<svg xmlns="http://www.w3.org/2000/svg" width="300" height="300" viewBox="0 0 300 300" version="1.1">
	<path d="M 132.750 123.716 C 131.223 123.948, 130 124.770, 130 125.566 C 130 126.480, 128.954 127, 127.117 127 C 125.074 127, 124.081 127.583, 123.710 129 C 123.423 130.100, 122.470 131, 121.594 131 C 120.717 131, 120 131.675, 120 132.500 C 120 133.555, 118.934 134, 116.406 134 C 113.654 134, 112.690 134.468, 112.290 136 C 111.857 137.656, 110.926 138, 106.883 138 C 102.667 138, 102 138.273, 102 140 C 102 141.333, 101.333 142, 100 142 C 98.889 142, 98 142.667, 98 143.500 C 98 144.510, 96.990 145, 94.906 145 C 92.654 145, 91.671 145.544, 91.290 147 C 91.002 148.100, 90.197 149, 89.500 149 C 88.803 149, 87.998 149.900, 87.710 151 C 87.423 152.100, 86.470 153, 85.594 153 C 84.717 153, 84 153.675, 84 154.500 C 84 155.325, 83.345 156, 82.545 156 C 81.675 156, 80.827 157.405, 80.434 159.500 C 80.058 161.505, 79.184 163, 78.389 163 C 77.466 163, 77 164.185, 77 166.531 C 77 168.748, 76.441 170.277, 75.500 170.638 C 73.902 171.251, 73.398 174, 74.883 174 C 75.369 174, 76.002 174.900, 76.290 176 C 76.690 177.532, 77.654 178, 80.406 178 L 84 178 84 172.500 C 84 167.667, 84.242 167, 86 167 C 87.333 167, 88 166.333, 88 165 C 88 163.889, 88.667 163, 89.500 163 C 90.325 163, 91 162.325, 91 161.500 C 91 160.667, 91.889 160, 93 160 C 94.333 160, 95 159.333, 95 158 C 95 156.889, 95.667 156, 96.500 156 C 97.325 156, 98 155.325, 98 154.500 C 98 153.667, 98.889 153, 100 153 C 101.333 153, 102 152.333, 102 151 C 102 149.667, 102.667 149, 104 149 C 105.100 149, 106 148.345, 106 147.545 C 106 146.675, 107.405 145.827, 109.500 145.434 C 111.505 145.058, 113 144.184, 113 143.389 C 113 142.468, 114.180 142, 116.500 142 C 119.333 142, 120 141.619, 120 140 C 120 138.381, 120.667 138, 123.500 138 C 125.896 138, 127 137.541, 127 136.545 C 127 135.675, 128.405 134.827, 130.500 134.434 C 132.505 134.058, 134 133.184, 134 132.389 C 134 131.435, 135.254 131, 138 131 C 140.889 131, 142 131.417, 142 132.500 C 142 133.510, 143.010 134, 145.094 134 C 147.346 134, 148.329 134.544, 148.710 136 C 149 137.107, 150.074 138, 151.117 138 C 152.152 138, 153 138.675, 153 139.500 C 153 140.325, 153.675 141, 154.500 141 C 155.333 141, 156 141.889, 156 143 C 156 144.333, 156.667 145, 158 145 C 159.333 145, 160 145.667, 160 147 C 160 148.556, 160.667 149, 163 149 C 164.917 149, 166 149.510, 166 150.412 C 166 151.280, 167.541 152.085, 170 152.500 C 172.459 152.915, 174 153.720, 174 154.588 C 174 155.747, 176.956 156, 190.500 156 C 204.090 156, 207 155.749, 207 154.579 C 207 153.798, 208.350 152.862, 210 152.500 C 211.650 152.138, 213 151.202, 213 150.421 C 213 149.639, 213.900 149, 215 149 C 216.333 149, 217 148.333, 217 147 C 217 145.667, 217.667 145, 219 145 C 220.619 145, 221 144.333, 221 141.500 C 221 139.187, 221.469 138, 222.383 138 C 224.032 138, 225.050 133.597, 224.292 129.750 C 223.386 125.154, 217 127.187, 217 132.071 C 217 133.132, 216.375 134, 215.611 134 C 214.816 134, 213.942 135.495, 213.566 137.500 C 213.173 139.595, 212.325 141, 211.455 141 C 210.655 141, 210 141.900, 210 143 C 210 144.667, 209.333 145, 205.990 145 C 203.218 145, 201.452 145.617, 200.268 147 C 198.817 148.694, 197.328 148.998, 190.528 148.986 C 181.190 148.970, 178 148.308, 178 146.383 C 178 145.436, 176.739 145, 174 145 C 171.111 145, 170 144.583, 170 143.500 C 170 142.675, 169.325 142, 168.500 142 C 167.667 142, 167 141.111, 167 140 C 167 138.667, 166.333 138, 165 138 C 163.889 138, 163 137.333, 163 136.500 C 163 135.675, 162.325 135, 161.500 135 C 160.667 135, 160 134.111, 160 133 C 160 131.667, 159.333 131, 158 131 C 156.900 131, 156 130.345, 156 129.545 C 156 128.682, 154.614 127.831, 152.592 127.451 C 150.421 127.044, 149.003 126.120, 148.686 124.906 C 148.256 123.263, 147.313 123.021, 141.844 123.150 C 138.355 123.232, 134.262 123.487, 132.750 123.716" stroke="none" fill="black" fill-rule="evenodd"/>
</svg>