<svg xmlns="http://www.w3.org/2000/svg" width="300" height="300" viewBox="0 0 300 300" version="1.1">
	<path d="M 89.684 81.101 C 89.382 82.256, 88.705 82.936, 88.181 82.612 C 87.657 82.288, 86.957 83.030, 86.627 84.261 C 85.457 88.629, 85.802 89, 91.031 89 C 94.501 89, 96.235 89.450, 96.618 90.448 C 96.924 91.244, 99.594 92.437, 102.552 93.099 C 105.511 93.761, 107.715 94.652, 107.452 95.078 C 107.189 95.504, 109.454 96.163, 112.486 96.542 C 115.911 96.969, 118 97.711, 118 98.499 C 118 99.969, 121.109 100.967, 125.750 100.986 C 127.832 100.995, 129 101.493, 129 102.373 C 129 103.294, 130.688 103.908, 134.135 104.239 C 137.456 104.558, 139.594 105.310, 140.185 106.366 C 140.839 107.535, 142.509 108, 146.050 108 C 149.598 108, 151 108.392, 151 109.383 C 151 110.959, 154 111.966, 158.750 111.986 C 160.966 111.996, 162 112.477, 162 113.500 C 162 114.608, 163.160 115, 166.443 115 C 169.532 115, 171.285 115.539, 172.193 116.767 C 172.912 117.740, 175.074 118.657, 177 118.807 C 182.498 119.235, 186 120.085, 186 120.992 C 186 121.450, 187.912 122.122, 190.250 122.485 C 196.584 123.470, 197.983 123.999, 197.730 125.311 C 197.603 125.965, 198.063 126.388, 198.750 126.250 C 199.438 126.113, 200 126.927, 200 128.059 C 200 129.191, 199.581 129.859, 199.069 129.543 C 198.557 129.226, 197.856 129.425, 197.510 129.984 C 197.165 130.543, 195.982 131, 194.882 131 C 193.719 131, 193.158 131.447, 193.542 132.067 C 193.904 132.654, 193.298 133.371, 192.193 133.660 C 191.089 133.949, 189.960 135.043, 189.686 136.092 C 189.412 137.142, 188.470 138, 187.594 138 C 186.717 138, 186 138.675, 186 139.500 C 186 140.325, 185.311 141, 184.469 141 C 183.626 141, 182.678 141.675, 182.362 142.500 C 182.045 143.325, 181.159 144, 180.393 144 C 179.627 144, 179 144.900, 179 146 C 179 147.333, 178.333 148, 177 148 C 175.889 148, 175 148.667, 175 149.500 C 175 150.333, 174.111 151, 173 151 C 171.667 151, 171 151.667, 171 153 C 171 154.111, 170.333 155, 169.500 155 C 168.675 155, 168 155.675, 168 156.500 C 168 157.333, 167.111 158, 166 158 C 164.667 158, 164 158.667, 164 160 C 164 161.333, 163.333 162, 162 162 C 160.889 162, 160 162.667, 160 163.500 C 160 164.325, 159.325 165, 158.500 165 C 157.667 165, 157 165.889, 157 167 C 157 168.333, 156.333 169, 155 169 C 153.667 169, 153 169.667, 153 171 C 153 172.111, 152.333 173, 151.500 173 C 150.675 173, 150 173.675, 150 174.500 C 150 175.333, 149.111 176, 148 176 C 146.667 176, 146 176.667, 146 178 C 146 179.333, 145.333 180, 144 180 C 142.837 180, 142 180.667, 142 181.594 C 142 182.470, 141.100 183.423, 140 183.710 C 138.900 183.998, 138 184.856, 138 185.617 C 138 186.377, 137.425 187, 136.722 187 C 136.019 187, 134.674 187.900, 133.732 189 C 132.790 190.100, 131.228 191.007, 130.260 191.015 C 128.914 191.027, 128.814 191.229, 129.835 191.877 C 130.849 192.520, 130.669 192.853, 129.085 193.268 C 127.938 193.567, 127 194.541, 127 195.431 C 127 196.426, 125.855 197.279, 124.030 197.644 C 122.356 197.979, 120.799 199.059, 120.462 200.119 C 120.134 201.154, 119.424 202, 118.885 202 C 117.716 202, 113 206.925, 113 208.146 C 113 208.616, 112.373 209, 111.607 209 C 110.841 209, 109.955 209.675, 109.638 210.500 C 109.322 211.325, 108.430 212, 107.656 212 C 106.037 212, 104.742 217.132, 105.704 219.739 C 106.592 222.144, 107.859 222.850, 110.195 222.239 C 111.625 221.865, 111.820 221.507, 110.904 220.940 C 110.091 220.438, 110.954 219.912, 113.319 219.468 C 115.462 219.066, 117 218.197, 117 217.389 C 117 216.625, 117.675 216, 118.500 216 C 119.325 216, 120 215.122, 120 214.050 C 120 212.977, 120.787 211.641, 121.750 211.080 C 123.144 210.268, 123.195 210.042, 122 209.967 C 121.167 209.915, 121.612 209.387, 123 208.780 C 124.375 208.179, 125.804 207.747, 126.176 207.819 C 126.548 207.891, 127.136 206.658, 127.483 205.077 C 127.848 203.414, 128.933 201.989, 130.057 201.695 C 131.126 201.416, 132 200.470, 132 199.594 C 132 198.490, 132.922 198, 135 198 C 137.078 198, 138 197.510, 138 196.406 C 138 195.530, 138.900 194.577, 140 194.290 C 141.100 194.002, 142 193.144, 142 192.383 C 142 191.623, 142.623 191, 143.383 191 C 144.144 191, 145.002 190.100, 145.290 189 C 145.603 187.803, 146.654 187, 147.906 187 C 149.353 187, 150 186.364, 150 184.941 C 150 183.736, 150.443 183.156, 151.067 183.542 C 151.655 183.905, 152.381 183.257, 152.684 182.101 C 152.997 180.904, 154.044 180, 155.117 180 C 156.152 180, 157 179.355, 157 178.567 C 157 177.779, 157.900 176.849, 159 176.500 C 160.100 176.151, 161 175.221, 161 174.433 C 161 173.645, 161.675 173, 162.500 173 C 163.333 173, 164 172.111, 164 171 C 164 169.667, 164.667 169, 166 169 C 167.111 169, 168 168.333, 168 167.500 C 168 166.675, 168.675 166, 169.500 166 C 170.333 166, 171 165.111, 171 164 C 171 162.667, 171.667 162, 173 162 C 174.100 162, 175 161.377, 175 160.617 C 175 159.856, 175.900 158.998, 177 158.710 C 178.100 158.423, 179 157.470, 179 156.594 C 179 155.717, 179.623 155, 180.383 155 C 181.144 155, 182.014 154.055, 182.316 152.899 C 182.641 151.658, 183.330 151.086, 184 151.500 C 184.670 151.914, 185.359 151.342, 185.684 150.101 C 185.997 148.904, 187.044 148, 188.117 148 C 189.152 148, 190 147.377, 190 146.617 C 190 145.856, 190.945 144.986, 192.101 144.684 C 193.256 144.382, 193.951 143.730, 193.646 143.236 C 193.341 142.742, 194.676 141.716, 196.613 140.956 C 199.496 139.824, 199.806 139.453, 198.318 138.906 C 196.948 138.403, 197.424 138.059, 200.250 137.508 C 202.432 137.083, 204 136.197, 204 135.389 C 204 134.625, 204.689 134, 205.531 134 C 206.374 134, 207.317 133.337, 207.628 132.527 C 207.939 131.717, 209.725 130.767, 211.597 130.416 C 214.644 129.844, 215 129.435, 215 126.505 C 215 124.022, 214.494 123.101, 212.899 122.684 C 211.743 122.381, 211.095 121.655, 211.458 121.067 C 211.869 120.404, 211.009 120, 209.184 120 C 204.366 120, 200 118.831, 200 117.542 C 200 116.877, 199.438 116.292, 198.750 116.242 C 198.063 116.192, 195.044 115.818, 192.042 115.411 C 188.139 114.883, 187.142 114.469, 188.542 113.959 C 189.972 113.438, 189.152 113.060, 185.500 112.558 C 176.563 111.330, 175 110.863, 175 109.421 C 175 108.639, 174.662 108.053, 174.250 108.118 C 170.551 108.702, 165 107.801, 165 106.617 C 165 105.041, 162 104.034, 157.250 104.014 C 155.034 104.004, 154 103.523, 154 102.500 C 154 101.363, 152.767 101, 148.906 101 C 144.654 101, 143.726 100.670, 143.290 99 C 142.848 97.312, 141.926 97, 137.383 97 C 133.596 97, 132 96.609, 132 95.682 C 132 94.878, 129.955 94.002, 126.750 93.432 C 123.824 92.913, 121.592 92.002, 121.708 91.375 C 121.827 90.732, 119.943 90.028, 117.307 89.731 C 114.544 89.420, 112.338 88.569, 111.799 87.606 C 111.305 86.723, 109.835 86, 108.532 86 C 105.358 86, 102.891 84.986, 103.534 83.946 C 103.821 83.481, 102.468 82.803, 100.528 82.439 C 98.502 82.059, 97 81.186, 97 80.389 C 97 79.477, 95.837 79, 93.617 79 C 91.020 79, 90.105 79.489, 89.684 81.101" stroke="none" fill="black" fill-rule="evenodd"/>
</svg>