<svg xmlns="http://www.w3.org/2000/svg" width="300" height="300" viewBox="0 0 300 300" version="1.1">
	<path d="M 114 86.301 C 114 87.107, 113.100 88.002, 112 88.290 C 110.900 88.577, 110 89.530, 110 90.406 C 110 91.333, 110.837 92, 112 92 C 113.100 92, 114 92.623, 114 93.383 C 114 95.103, 117.077 95.969, 123.250 95.986 C 126.812 95.997, 128 95.625, 128 94.500 C 128 93.348, 129.278 93, 133.500 93 C 137.722 93, 139 93.348, 139 94.500 C 139 95.749, 140.983 96, 150.849 96 C 173.793 96, 182.133 97.587, 176.310 100.846 C 174.784 101.700, 174.578 105.382, 174.182 138.896 C 173.789 172.055, 173.909 176, 175.305 176 C 176.593 176, 176.923 177.712, 177.184 185.750 C 177.358 191.113, 177.363 197.394, 177.195 199.709 L 176.889 203.918 169.195 204.209 C 152.933 204.824, 135 203.965, 135 202.571 C 135 200.899, 130.551 200, 122.281 200 C 116.654 200, 115.745 200.260, 115.290 202 C 115.002 203.100, 114.369 204, 113.883 204 C 113.398 204, 113 204.702, 113 205.559 C 113 206.416, 113.337 206.914, 113.750 206.664 C 114.728 206.072, 117.066 208.601, 116.273 209.393 C 115.940 209.727, 116.668 210, 117.892 210 C 119.121 210, 119.841 209.552, 119.500 209 C 119.105 208.361, 122.156 208, 127.941 208 C 135.327 208, 137 208.277, 137 209.500 C 137 210.605, 138.153 211, 141.375 211 C 147.741 211, 152 212.052, 152 213.625 C 152 215.445, 158.873 215.494, 159.570 213.679 C 160.132 212.215, 166 212.611, 166 214.113 C 166 215.461, 176.767 215.200, 177.219 213.842 C 177.432 213.204, 178.707 212.521, 180.053 212.323 C 181.399 212.125, 183.082 211.184, 183.793 210.231 C 184.504 209.279, 185.479 208.500, 185.960 208.500 C 186.440 208.500, 187.104 208.230, 187.434 207.899 C 188.367 206.966, 186.819 189.994, 185.855 190.590 C 185.385 190.880, 185 185.049, 185 177.630 C 185 166.122, 184.743 163.885, 183.250 162.383 C 181.670 160.794, 181.526 158.431, 181.769 138.061 C 181.989 119.682, 182.309 115.297, 183.498 114.405 C 184.402 113.728, 185.207 110.618, 185.614 106.239 C 186.079 101.242, 186.633 99.306, 187.504 99.640 C 188.852 100.157, 189.965 97.068, 189.986 92.750 C 189.998 90.330, 189.610 89.989, 186.750 89.908 C 160.560 89.162, 150.862 88.395, 150.001 87 C 148.631 84.779, 114 84.106, 114 86.301" stroke="none" fill="black" fill-rule="evenodd"/>
</svg>