<svg xmlns="http://www.w3.org/2000/svg" width="300" height="300" viewBox="0 0 300 300" version="1.1">
	<path d="M 107.607 89.582 C 107.273 90.452, 107 92.477, 107 94.082 C 107 95.891, 106.478 97, 105.625 97 C 102.754 97, 102.771 110.591, 105.643 111.693 C 106.716 112.105, 107.035 116.437, 107.168 132.357 C 107.276 145.229, 107.576 150.334, 108 146.500 C 108.428 142.631, 108.723 147.516, 108.832 160.250 C 108.976 177.214, 108.788 180, 107.500 180 C 106.675 180, 106 180.698, 106 181.552 C 106 182.406, 104.715 183.552, 103.143 184.100 C 101.572 184.648, 99.681 186.228, 98.940 187.613 C 97.132 190.991, 99.013 192.269, 104.750 191.562 L 109 191.038 109 197.969 C 109 202.656, 109.429 205.160, 110.325 205.700 C 111.054 206.140, 111.940 207.287, 112.294 208.250 C 112.980 210.117, 117.816 210.587, 123.875 209.375 C 126.695 208.811, 127 208.391, 127 205.076 C 127 201.466, 126.939 201.409, 123.500 201.810 L 120 202.219 120 195.216 C 120 189.915, 119.636 188.074, 118.500 187.638 C 116.811 186.990, 116.531 183.273, 118 181 C 118.533 180.175, 119.005 179.950, 119.048 180.500 C 119.091 181.050, 119.534 180.488, 120.031 179.250 C 120.529 178.012, 121.625 177, 122.468 177 C 123.310 177, 124 176.325, 124 175.500 C 124 174.675, 124.717 174, 125.594 174 C 126.470 174, 127.423 173.100, 127.710 172 C 127.998 170.900, 128.856 170, 129.617 170 C 130.377 170, 131 169.515, 131 168.923 C 131 168.331, 132.269 166.578, 133.819 165.027 C 137.034 161.812, 141.466 161.850, 142.316 165.099 C 142.589 166.145, 143.556 167, 144.465 167 C 145.374 167, 145.839 167.451, 145.499 168.002 C 145.158 168.553, 146.059 169.452, 147.500 170 C 148.962 170.556, 149.828 171.469, 149.460 172.065 C 149.095 172.655, 149.740 173.381, 150.899 173.684 C 152.055 173.986, 153 174.820, 153 175.537 C 153 176.254, 154.410 177.151, 156.133 177.529 C 158.211 177.986, 158.840 178.481, 158.001 178.999 C 157.105 179.553, 157.432 180.017, 159.118 180.589 C 160.428 181.033, 161.838 181.307, 162.250 181.198 C 162.662 181.089, 163 181.900, 163 183 C 163 184.467, 163.667 185, 165.500 185 C 167.188 185, 168.023 185.569, 168.070 186.750 C 168.130 188.246, 168.265 188.210, 169 186.500 C 169.785 184.673, 169.866 184.659, 169.930 186.344 C 169.968 187.358, 170.900 188.423, 172 188.710 C 173.100 188.998, 174 189.856, 174 190.617 C 174 191.377, 174.900 192, 176 192 C 177.333 192, 178 192.667, 178 194 C 178 195.111, 178.667 196, 179.500 196 C 180.325 196, 181 196.623, 181 197.383 C 181 198.144, 181.900 199.002, 183 199.290 C 184.100 199.577, 185 200.530, 185 201.406 C 185 202.283, 185.675 203, 186.500 203 C 187.325 203, 188 203.717, 188 204.594 C 188 205.470, 188.900 206.423, 190 206.710 C 191.100 206.998, 192 207.856, 192 208.617 C 192 209.377, 192.689 210, 193.531 210 C 194.374 210, 195.322 210.675, 195.638 211.500 C 195.996 212.432, 197.520 213, 199.662 213 L 203.110 213 202.805 208.250 C 202.513 203.695, 202.366 203.487, 199.250 203.187 C 196.810 202.951, 196 202.391, 196 200.937 C 196 199.648, 195.311 199, 193.941 199 C 192.809 199, 192.146 198.573, 192.469 198.050 C 192.792 197.528, 192.143 196.612, 191.028 196.015 C 189.913 195.418, 189 194.270, 189 193.465 C 189 192.659, 188.100 192, 187 192 C 185.667 192, 185 191.333, 185 190 C 185 188.667, 184.333 188, 183 188 C 181.889 188, 181 187.333, 181 186.500 C 181 185.675, 180.425 185, 179.722 185 C 179.019 185, 177.674 184.100, 176.732 183 C 175.790 181.900, 174.089 181, 172.951 181 C 171.813 181, 171.161 180.549, 171.501 179.998 C 171.842 179.447, 170.968 178.558, 169.560 178.023 C 168.152 177.488, 167 176.363, 167 175.525 C 167 174.667, 166.126 174, 165 174 C 163.648 174, 163 173.333, 163 171.941 C 163 170.736, 162.557 170.156, 161.933 170.542 C 161.345 170.905, 160.619 170.257, 160.316 169.101 C 160.014 167.945, 159.102 167, 158.290 167 C 157.477 167, 156.577 166.100, 156.290 165 C 156.002 163.900, 155.144 163, 154.383 163 C 153.623 163, 153 162.325, 153 161.500 C 153 160.675, 152.325 160, 151.500 160 C 150.675 160, 150 159.131, 150 158.070 C 150 156.829, 149.196 156.025, 147.750 155.820 C 146.025 155.575, 145.427 154.741, 145.187 152.250 C 145.014 150.463, 145.352 148.944, 145.937 148.875 C 146.521 148.806, 147.542 148.694, 148.205 148.625 C 148.868 148.556, 149.655 147.461, 149.955 146.191 C 150.255 144.921, 150.950 144.021, 151.500 144.191 C 152.050 144.361, 152.931 143.037, 153.457 141.250 C 153.983 139.463, 154.996 138, 155.707 138 C 156.418 138, 157 137.377, 157 136.617 C 157 135.856, 157.900 134.998, 159 134.710 C 160.197 134.397, 161 133.346, 161 132.094 C 161 130.942, 161.639 130, 162.421 130 C 163.202 130, 164.138 128.650, 164.500 127 C 164.862 125.350, 165.798 124, 166.579 124 C 167.361 124, 168 123.100, 168 122 C 168 120.667, 168.667 120, 170 120 C 171.292 120, 172.044 119.292, 172.125 118 C 172.369 114.102, 172.604 113.503, 173.795 113.750 C 174.458 113.888, 175 113.058, 175 111.906 C 175 110.654, 175.803 109.603, 177 109.290 C 178.100 109.002, 179 108.144, 179 107.383 C 179 106.623, 179.659 106, 180.465 106 C 181.270 106, 182.409 105.104, 182.995 104.010 C 183.580 102.915, 184.384 102.069, 184.780 102.128 C 188.808 102.735, 190 101.895, 190 98.451 L 190 94.901 185 95.129 C 181.874 95.272, 180 95.812, 180 96.570 C 180 97.237, 178.875 98.066, 177.500 98.411 C 176.125 98.756, 175 99.705, 175 100.519 C 175 101.334, 174.325 102, 173.500 102 C 172.675 102, 172 102.717, 172 103.594 C 172 104.470, 171.100 105.423, 170 105.710 C 168.542 106.092, 167.996 107.082, 167.985 109.367 C 167.974 111.494, 167.694 112.066, 167.113 111.149 C 166.475 110.142, 165.907 110.588, 164.884 112.899 C 164.129 114.605, 162.947 116, 162.256 116 C 161.565 116, 161 116.900, 161 118 C 161 119.100, 160.345 120, 159.545 120 C 158.675 120, 157.827 121.405, 157.434 123.500 C 157.073 125.425, 156.205 127, 155.505 127 C 154.806 127, 153.998 127.900, 153.710 129 C 153.423 130.100, 152.470 131, 151.594 131 C 150.717 131, 150 131.689, 150 132.531 C 150 133.374, 149.352 134.311, 148.561 134.615 C 147.770 134.919, 146.834 136.479, 146.482 138.084 C 146.129 139.688, 145.202 141, 144.421 141 C 143.639 141, 143 141.717, 143 142.594 C 143 143.470, 142.100 144.423, 141 144.710 C 139.888 145.001, 139 146.074, 139 147.126 C 139 148.168, 138.100 149.790, 137 150.732 C 135.900 151.674, 135 153.019, 135 153.722 C 135 154.425, 134.438 155.008, 133.750 155.017 C 132.240 155.038, 128.614 158.803, 127.685 161.313 C 127.316 162.311, 126.558 162.845, 126 162.500 C 125.442 162.155, 124.687 162.689, 124.323 163.687 C 123.240 166.645, 119.044 170.444, 118.006 169.406 C 117.494 168.894, 116.946 163.756, 116.788 157.988 C 116.575 150.250, 116.172 147.566, 115.250 147.750 C 114.273 147.945, 114 141.667, 114 119 C 114 90.390, 113.972 90, 111.941 90 C 110.809 90, 110.160 89.550, 110.500 89 C 110.840 88.450, 110.465 88, 109.666 88 C 108.867 88, 107.941 88.712, 107.607 89.582" stroke="none" fill="black" fill-rule="evenodd"/>
</svg>