<svg xmlns="http://www.w3.org/2000/svg" width="300" height="300" viewBox="0 0 300 300" version="1.1">
	<path d="M 139 78.500 C 139 83.623, 139.163 84, 141.375 84 C 145.880 84, 150 85.254, 150 86.625 C 150 87.530, 151.197 88, 153.500 88 C 156.925 88, 157 87.913, 157 83.941 C 157 81.709, 156.609 80.124, 156.130 80.419 C 155.070 81.075, 150 76.870, 150 75.335 C 150 74.016, 146.715 73.032, 142.250 73.014 L 139 73 139 78.500 M 157.206 113.765 C 156.536 113.988, 156.242 114.582, 156.553 115.085 C 156.864 115.588, 156.276 116, 155.248 116 C 154.219 116, 152.446 116.867, 151.308 117.928 C 150.170 118.988, 147.723 120, 145.869 120.178 C 144.016 120.355, 142.639 120.950, 142.809 121.500 C 143.175 122.685, 139.786 123.761, 135.250 123.900 C 133.072 123.967, 132 124.495, 132 125.500 C 132 126.341, 131.108 127, 129.968 127 C 128.774 127, 127.592 127.928, 127.103 129.250 C 126.645 130.488, 125.985 131.387, 125.635 131.250 C 125.286 131.113, 123.252 131, 121.117 131 C 118.012 131, 117.123 131.421, 116.684 133.101 C 116.359 134.342, 115.670 134.914, 115 134.500 C 114.330 134.086, 113.641 134.658, 113.316 135.899 C 113.003 137.096, 111.956 138, 110.883 138 C 109.398 138, 109 138.739, 109 141.500 C 109 144.567, 109.310 145, 111.500 145 C 113.056 145, 114 144.433, 114 143.500 C 114 142.384, 115.177 142, 118.594 142 C 122.346 142, 123.283 141.634, 123.710 140 C 124.103 138.497, 125.074 138, 127.617 138 C 129.837 138, 131 137.523, 131 136.611 C 131 135.823, 132.473 134.946, 134.403 134.584 C 136.275 134.233, 138.061 133.283, 138.372 132.473 C 138.722 131.560, 140.281 131, 142.469 131 C 144.941 131, 146 130.550, 146 129.500 C 146 128.675, 146.900 127.933, 148 127.850 C 149.100 127.767, 150.563 127.655, 151.250 127.600 C 152.153 127.528, 152.639 130.556, 153 138.500 C 153.371 146.673, 153.827 149.434, 154.773 149.242 C 155.774 149.040, 155.988 152.781, 155.773 166.731 L 155.500 184.477 150.597 185.178 C 147.900 185.563, 145.425 186.276, 145.097 186.762 C 144.769 187.248, 143.713 187.936, 142.750 188.292 C 141.787 188.647, 141 189.626, 141 190.469 C 141 191.552, 139.976 192, 137.500 192 C 134.667 192, 134 192.381, 134 194 C 134 195.111, 133.333 196, 132.500 196 C 131.675 196, 131 196.623, 131 197.383 C 131 198.144, 130.168 198.984, 129.152 199.250 C 127.108 199.784, 126 203.740, 126 210.500 C 126 217.561, 127.024 221, 129.125 221 C 130.238 221, 131.006 221.711, 131.015 222.750 C 131.027 224.090, 131.229 224.188, 131.876 223.166 C 132.557 222.092, 132.840 222.141, 133.329 223.416 C 133.664 224.287, 134.626 225, 135.469 225 C 136.311 225, 137 225.675, 137 226.500 C 137 227.742, 138.889 228, 148 228 C 157.111 228, 159 227.742, 159 226.500 C 159 225.675, 159.612 225, 160.361 225 C 161.821 225, 162.976 218.291, 162.991 209.715 C 162.996 207.083, 163.697 203.865, 164.550 202.564 C 165.402 201.263, 166.363 197.056, 166.685 193.214 L 167.271 186.230 171.853 185.713 C 174.373 185.429, 176.609 184.673, 176.822 184.034 C 177.035 183.394, 178.315 182.451, 179.665 181.937 C 181.015 181.424, 181.842 180.553, 181.501 180.002 C 181.136 179.411, 182.238 178.994, 184.191 178.986 C 191.091 178.958, 192 178.247, 192 172.883 L 192 168 187.045 168 C 182.210 168, 182.075 168.081, 181.458 171.374 C 181.109 173.230, 180.302 174.734, 179.662 174.717 C 175.786 174.611, 174 175.173, 174 176.500 C 174 177.548, 172.944 178, 170.500 178 L 167 178 167 173.050 C 167 169.928, 166.496 167.804, 165.637 167.300 C 164.605 166.694, 164.123 162.124, 163.654 148.500 C 163.312 138.600, 162.994 129.825, 162.946 129 C 162.888 127.989, 162.579 128.152, 162 129.500 C 161.314 131.097, 161.126 130.733, 161.070 127.691 C 161.032 125.596, 161.395 124.126, 161.878 124.425 C 163.040 125.142, 164.146 119.428, 163.411 116.503 C 162.851 114.269, 159.770 112.910, 157.206 113.765 M 148.710 194 C 148.329 195.456, 147.346 196, 145.094 196 C 142.930 196, 142 196.479, 142 197.594 C 142 198.470, 141.100 199.423, 140 199.710 C 138.900 199.998, 138 200.870, 138 201.648 C 138 202.426, 137.287 203.336, 136.416 203.671 C 135.141 204.160, 135.092 204.443, 136.166 205.124 C 137.188 205.771, 137.090 205.973, 135.750 205.985 C 134.378 205.997, 134 206.863, 134 210 C 134 212.739, 134.436 214, 135.383 214 C 136.144 214, 137.014 214.945, 137.316 216.101 C 137.641 217.342, 138.330 217.914, 139 217.500 C 139.670 217.086, 140.359 217.658, 140.684 218.899 C 141.164 220.733, 141.980 221, 147.117 221 C 151.526 221, 153 220.645, 153 219.583 C 153 218.804, 153.493 218.002, 154.096 217.801 C 154.775 217.575, 155.402 212.587, 155.742 204.718 L 156.291 192 152.762 192 C 150.074 192, 149.109 192.477, 148.710 194" stroke="none" fill="black" fill-rule="evenodd"/>
</svg>