<svg xmlns="http://www.w3.org/2000/svg" width="300" height="300" viewBox="0 0 300 300" version="1.1">
	<path d="M 143.882 69.750 C 143.816 70.162, 143.816 70.838, 143.882 71.250 C 143.947 71.662, 140.625 72, 136.500 72 C 130.500 72, 129 72.300, 129 73.500 C 129 74.482, 128.017 75, 126.153 75 C 124.587 75, 122.268 75.900, 121 77 C 119.732 78.100, 117.915 79, 116.964 79 C 116.012 79, 114.986 79.945, 114.684 81.101 C 114.382 82.256, 113.677 82.918, 113.117 82.573 C 112.558 82.227, 111.605 82.869, 111 84 C 110.395 85.131, 109.527 85.825, 109.071 85.544 C 108.022 84.895, 103 89.847, 103 91.529 C 103 92.221, 102.325 93.045, 101.500 93.362 C 100.442 93.768, 100 95.419, 100 98.969 C 100 102.774, 100.365 104, 101.500 104 C 102.333 104, 103 104.889, 103 106 C 103 107.273, 103.667 108, 104.833 108 C 105.842 108, 106.715 108.563, 106.775 109.250 C 107.090 112.894, 107.853 114.361, 109.565 114.612 C 110.609 114.766, 111.623 115.368, 111.817 115.952 C 112.012 116.535, 112.582 116.758, 113.085 116.447 C 113.588 116.136, 114 116.584, 114 117.441 C 114 118.333, 114.855 119, 116 119 C 117.100 119, 118 119.612, 118 120.361 C 118 121.255, 119.782 121.932, 123.197 122.337 C 126.289 122.703, 128.739 123.570, 129.247 124.476 C 130.328 126.408, 136 126.533, 136 124.625 C 136 123.028, 140.723 121.853, 143.851 122.671 C 145.119 123.003, 146 124.029, 146 125.176 C 146 126.244, 145.573 126.854, 145.051 126.531 C 144.237 126.029, 143.480 128.727, 142.674 135 C 142.536 136.073, 140.988 136.586, 137.241 136.802 L 132 137.105 132 142.552 C 132 147.333, 132.245 148, 134 148 C 135.721 148, 135.998 148.662, 135.986 152.750 C 135.969 158.779, 135.109 162, 133.518 162 C 132.684 162, 132.100 164.364, 131.760 169.113 C 131.467 173.206, 130.721 176.554, 130.004 176.998 C 128.365 178.011, 127.121 190.356, 127.054 206.281 C 127.010 216.650, 127.278 219.169, 128.473 219.628 C 129.283 219.939, 130.233 221.725, 130.584 223.597 C 130.946 225.527, 131.823 227, 132.611 227 C 133.375 227, 134 227.619, 134 228.375 C 134 229.978, 138.281 231, 145 231 C 151.719 231, 156 229.978, 156 228.375 C 156 227.619, 156.852 227, 157.893 227 C 158.934 227, 160.056 226.296, 160.386 225.437 C 160.716 224.577, 161.439 224.153, 161.993 224.496 C 162.547 224.838, 163 224.641, 163 224.059 C 163 223.477, 163.900 223, 165 223 C 166.111 223, 167 222.333, 167 221.500 C 167 220.675, 167.675 220, 168.500 220 C 169.325 220, 170 219.283, 170 218.406 C 170 217.530, 170.900 216.577, 172 216.290 C 173.435 215.914, 174 214.926, 174 212.790 C 174 210.713, 174.571 209.664, 175.886 209.319 C 177.530 208.890, 177.844 207.519, 178.327 198.663 C 178.789 190.181, 178.694 176.247, 178.139 171.250 C 178.062 170.563, 177.325 170, 176.500 170 C 175.452 170, 175 168.944, 175 166.500 C 175 164.056, 174.548 163, 173.500 163 C 172.644 163, 172 162.101, 172 160.906 C 172 159.654, 171.197 158.603, 170 158.290 C 168.900 158.002, 168 157.343, 168 156.824 C 168 156.306, 168.419 156.141, 168.931 156.457 C 169.443 156.774, 170.144 156.575, 170.490 156.016 C 171.167 154.922, 183.052 154.639, 186.750 155.630 C 187.988 155.962, 189 156.856, 189 157.617 C 189 158.564, 190.261 159, 193 159 C 195.889 159, 197 158.583, 197 157.500 C 197 156.675, 197.619 156, 198.375 156 C 199.753 156, 201.424 150.494, 200.499 148.999 C 200.229 148.562, 196.856 147.887, 193.004 147.500 C 189.152 147.114, 186 146.393, 186 145.899 C 186 145.404, 183.188 144.997, 179.750 144.994 C 167.327 144.982, 157 143.783, 157 142.352 C 157 141.474, 155.774 141, 153.500 141 C 150.083 141, 150 140.905, 150 137 C 150 134.166, 150.424 133, 151.455 133 C 152.325 133, 153.173 131.595, 153.566 129.500 C 153.942 127.495, 154.816 126, 155.611 126 C 156.375 126, 157 125.096, 157 123.990 C 157 122.885, 157.900 121.210, 159 120.268 C 160.100 119.326, 161 117.966, 161 117.246 C 161 116.526, 161.663 115.683, 162.473 115.372 C 163.283 115.061, 164.233 113.275, 164.584 111.403 C 164.935 109.532, 165.820 108, 166.550 108 C 167.360 108, 168.145 106.215, 168.564 103.420 C 168.942 100.902, 169.869 98.604, 170.625 98.313 C 172.469 97.606, 172.380 94.083, 170.500 93.362 C 169.675 93.045, 169 92.159, 169 91.393 C 169 90.627, 168.075 90, 166.944 90 C 165.242 90, 164.949 89.474, 165.239 86.936 C 165.431 85.251, 166.124 83.541, 166.779 83.136 C 167.434 82.732, 168.252 80.990, 168.597 79.267 C 169.191 76.297, 169.034 76.097, 165.612 75.455 C 163.522 75.063, 162 74.192, 162 73.389 C 162 72.372, 160.526 72, 156.500 72 C 152.278 72, 151 71.652, 151 70.500 C 151 69.452, 149.944 69, 147.500 69 C 145.575 69, 143.947 69.338, 143.882 69.750 M 132 79.702 C 131.175 80.027, 130.140 80.902, 129.700 81.647 C 129.260 82.391, 127.573 83, 125.950 83 C 123.994 83, 123 83.506, 123 84.500 C 123 85.356, 122.101 86, 120.906 86 C 119.654 86, 118.603 86.803, 118.290 88 C 118 89.107, 116.926 90, 115.883 90 C 114.848 90, 114 90.627, 114 91.393 C 114 92.159, 113.325 93.045, 112.500 93.362 C 110.492 94.132, 110.420 101, 112.421 101 C 113.202 101, 114.142 102.369, 114.509 104.043 C 115.021 106.374, 115.858 107.222, 118.089 107.668 C 119.718 107.994, 121 108.897, 121 109.719 C 121 110.526, 121.900 111.423, 123 111.710 C 124.100 111.998, 125 112.856, 125 113.617 C 125 114.697, 127.078 115, 134.500 115 C 142.278 115, 144 114.728, 144 113.500 C 144 112.675, 144.338 112.053, 144.750 112.118 C 147.964 112.626, 150 111.804, 150 110 C 150 108.667, 150.667 108, 152 108 C 153.292 108, 154.044 107.292, 154.125 106 C 154.349 102.408, 154.479 102.102, 156.345 100.737 C 157.477 99.909, 158.057 98.474, 157.845 97.022 C 157.392 93.918, 155.408 93.331, 154.687 96.087 C 154.231 97.833, 153.585 98.154, 151.374 97.731 C 147.964 97.079, 146 97.776, 146 99.637 C 146 100.691, 145.222 100.485, 143 98.842 C 139.733 96.427, 139.142 94.266, 141.500 93.362 C 142.325 93.045, 143 92.159, 143 91.393 C 143 90.627, 143.848 90, 144.883 90 C 145.926 90, 147 89.107, 147.290 88 C 147.651 86.619, 148.693 85.976, 150.656 85.921 C 152.220 85.878, 152.906 85.605, 152.180 85.314 C 151.223 84.932, 151.443 84.378, 152.978 83.303 C 156.921 80.541, 153.875 79.252, 143.230 79.178 C 137.878 79.141, 132.825 79.377, 132 79.702 M 146 153 C 146 154.100, 145.377 155, 144.616 155 C 143.623 155, 143.116 156.830, 142.820 161.491 C 142.543 165.837, 141.881 168.398, 140.817 169.241 C 139.729 170.103, 139.015 173.014, 138.552 178.480 C 138.179 182.868, 137.341 186.789, 136.688 187.193 C 135.912 187.673, 135.377 192.100, 135.145 199.964 C 134.834 210.495, 134.990 212, 136.395 212 C 137.571 212, 138 212.961, 138 215.594 C 138 218.346, 138.468 219.310, 140 219.710 C 141.100 219.998, 142 220.856, 142 221.617 C 142 222.610, 143.410 223, 147 223 C 150.778 223, 152 222.633, 152 221.500 C 152 220.675, 152.848 220, 153.883 220 C 154.926 220, 156 219.107, 156.290 218 C 156.603 216.803, 157.654 216, 158.906 216 C 160.058 216, 160.888 215.662, 160.750 215.250 C 160.613 214.838, 160.846 214.397, 161.270 214.271 C 162.751 213.831, 164.786 211.493, 164.336 210.750 C 164.086 210.338, 164.584 210, 165.441 210 C 166.320 210, 167 209.149, 167 208.050 C 167 206.977, 167.728 205.692, 168.619 205.193 C 171.955 203.326, 172.611 174.555, 169.346 173.302 C 168.584 173.010, 168 171.313, 168 169.393 C 168 167.091, 167.532 166, 166.545 166 C 165.675 166, 164.827 164.595, 164.434 162.500 C 164.058 160.495, 163.184 159, 162.389 159 C 161.625 159, 161 158.100, 161 157 C 161 155.667, 160.333 155, 159 155 C 157.900 155, 157 154.377, 157 153.617 C 157 152.041, 154 151.034, 149.250 151.014 C 146.662 151.003, 146 151.407, 146 153 M 125.195 203.500 C 125.215 205.150, 125.439 205.704, 125.693 204.731 C 125.947 203.758, 125.930 202.408, 125.656 201.731 C 125.382 201.054, 125.175 201.850, 125.195 203.500" stroke="none" fill="black" fill-rule="evenodd"/>
</svg>