<svg xmlns="http://www.w3.org/2000/svg" width="300" height="300" viewBox="0 0 300 300" version="1.1">
	<path d="M 154 82.500 C 154 83.700, 152.500 84, 146.500 84 C 140.604 84, 139 84.311, 139 85.455 C 139 86.325, 137.595 87.173, 135.500 87.566 C 133.495 87.942, 132 88.816, 132 89.611 C 132 90.532, 130.820 91, 128.500 91 C 125.667 91, 125 91.381, 125 93 C 125 94.333, 124.333 95, 123 95 C 121.900 95, 121 95.623, 121 96.383 C 121 97.144, 120.100 98.002, 119 98.290 C 117.900 98.577, 117 99.530, 117 100.406 C 117 101.652, 115.908 102, 112 102 C 107.667 102, 107 102.267, 107 104 C 107 105.333, 106.333 106, 105 106 C 103.667 106, 103 106.667, 103 108 C 103 109.111, 102.333 110, 101.500 110 C 100.675 110, 100 110.675, 100 111.500 C 100 112.333, 99.111 113, 98 113 C 96.889 113, 96 113.667, 96 114.500 C 96 115.325, 95.283 116, 94.406 116 C 93.530 116, 92.577 116.900, 92.290 118 C 92.002 119.100, 91.144 120, 90.383 120 C 89.478 120, 89 121.169, 89 123.383 C 89 125.926, 88.503 126.897, 87 127.290 C 85.468 127.690, 85 128.654, 85 131.406 C 85 133.784, 84.536 135, 83.629 135 C 82.739 135, 82.025 136.754, 81.594 140 C 81.140 143.424, 80.469 145, 79.466 145 C 78.660 145, 78 145.900, 78 147 C 78 148.100, 77.345 149, 76.545 149 C 75.675 149, 74.827 150.405, 74.434 152.500 C 74.073 154.425, 73.209 156, 72.514 156 C 71.819 156, 70.967 157.414, 70.622 159.142 C 70.276 160.871, 69.207 162.896, 68.247 163.642 C 66.584 164.934, 66.584 165.066, 68.247 166.358 C 69.207 167.104, 70.276 169.129, 70.622 170.858 C 71.058 173.040, 71.823 174, 73.125 174 C 74.156 174, 75 174.639, 75 175.421 C 75 176.202, 76.350 177.138, 78 177.500 C 79.650 177.862, 81 178.798, 81 179.579 C 81 180.361, 81.900 181, 83 181 C 84.163 181, 85 181.667, 85 182.594 C 85 183.470, 85.900 184.423, 87 184.710 C 88.100 184.998, 89 185.840, 89 186.582 C 89 187.446, 90.799 188.170, 94 188.594 C 97.246 189.025, 99 189.739, 99 190.629 C 99 191.425, 100.049 192, 101.500 192 C 102.962 192, 104 192.574, 104 193.383 C 104 195.060, 107.053 195.968, 112.750 195.986 C 115.855 195.996, 117 196.404, 117 197.500 C 117 198.605, 118.153 199, 121.375 199 C 127.741 199, 132 200.052, 132 201.625 C 132 202.662, 133.741 203, 139.094 203 C 145.346 203, 146.249 202.763, 146.710 201 C 147.068 199.634, 148.067 199.004, 149.867 199.014 C 154.040 199.035, 157 200.115, 157 201.617 C 157 202.531, 158.187 203, 160.500 203 C 163.833 203, 164 203.167, 164 206.500 C 164 208.944, 163.548 210, 162.500 210 C 161.417 210, 161 211.111, 161 214 C 161 216.752, 161.434 218, 162.393 218 C 163.159 218, 164.045 218.675, 164.362 219.500 C 165.085 221.385, 168 221.479, 168 219.617 C 168 218.041, 171 217.034, 175.750 217.014 C 177.966 217.004, 179 216.523, 179 215.500 C 179 214.425, 180.097 214, 182.875 214 C 188.772 214, 193 212.904, 193 211.375 C 193 210.310, 195.030 210, 202 210 C 209.333 210, 211 210.278, 211 211.500 C 211 212.548, 212.056 213, 214.500 213 C 216.944 213, 218 212.548, 218 211.500 C 218 210.667, 218.889 210, 220 210 C 221.111 210, 222 209.333, 222 208.500 C 222 207.675, 222.648 207, 223.441 207 C 225.555 207, 226.233 205.339, 225.495 201.976 L 224.841 199 216.671 199.014 C 207.194 199.029, 204 199.686, 204 201.617 C 204 202.707, 201.773 203, 193.500 203 C 184.833 203, 183 203.262, 183 204.500 C 183 205.583, 181.889 206, 179 206 L 175 206 175 193.500 C 175 183.056, 174.753 181, 173.500 181 C 172.247 181, 172 178.944, 172 168.500 C 172 158.524, 172.279 156, 173.383 156 C 174.144 156, 175.002 155.100, 175.290 154 C 175.726 152.330, 176.654 152, 180.906 152 C 184.601 152, 186 151.616, 186 150.603 C 186 149.543, 188.062 149.120, 194.537 148.853 C 200.324 148.614, 203.343 148.064, 203.911 147.145 C 204.415 146.328, 207.380 145.579, 211.374 145.258 C 217.641 144.755, 218 144.842, 218 146.863 C 218 148.096, 217.365 149, 216.500 149 C 215.452 149, 215 150.056, 215 152.500 C 215 154.944, 215.452 156, 216.500 156 C 217.325 156, 218 155.365, 218 154.588 C 218 153.720, 219.541 152.915, 222 152.500 C 224.355 152.102, 226 151.270, 226 150.475 C 226 149.685, 227.345 148.997, 229.250 148.813 L 232.500 148.500 232.793 141.884 L 233.085 135.267 229.804 134.611 C 224.873 133.625, 215 134.971, 215 136.629 C 215 137.694, 212.880 138, 205.500 138 C 197.722 138, 196 138.272, 196 139.500 C 196 140.566, 194.914 141.002, 192.250 141.006 C 190.188 141.009, 184.787 141.301, 180.250 141.654 L 172 142.296 172 122.148 C 172 104.905, 172.216 102, 173.500 102 C 174.548 102, 175 100.944, 175 98.500 C 175 95.083, 175.095 95, 179 95 C 181.889 95, 183 95.417, 183 96.500 C 183 97.716, 184.611 98, 191.500 98 C 198.389 98, 200 97.716, 200 96.500 C 200 95.348, 201.278 95, 205.500 95 C 210.333 95, 211 94.758, 211 93 C 211 91.900, 211.623 91, 212.383 91 C 213.669 91, 214.955 88.160, 214.986 85.250 C 214.996 84.368, 212.941 84, 208 84 C 202.444 84, 201 83.690, 201 82.500 C 201 81.300, 199.500 81, 193.500 81 C 187.500 81, 186 81.300, 186 82.500 C 186 83.753, 183.944 84, 173.500 84 C 163.056 84, 161 83.753, 161 82.500 C 161 81.452, 159.944 81, 157.500 81 C 155.056 81, 154 81.452, 154 82.500 M 136 96.500 C 136 97.555, 134.934 98, 132.406 98 C 129.654 98, 128.690 98.468, 128.290 100 C 127.857 101.656, 126.926 102, 122.883 102 C 119.209 102, 118 102.371, 118 103.500 C 118 104.333, 117.111 105, 116 105 C 114.667 105, 114 105.667, 114 107 C 114 108.333, 113.333 109, 112 109 C 110.889 109, 110 109.667, 110 110.500 C 110 111.325, 109.325 112, 108.500 112 C 107.667 112, 107 112.889, 107 114 C 107 115.333, 106.333 116, 105 116 C 103.667 116, 103 116.667, 103 118 C 103 119.111, 102.333 120, 101.500 120 C 100.445 120, 100 121.066, 100 123.594 C 100 126.346, 99.532 127.310, 98 127.710 C 96.497 128.103, 96 129.074, 96 131.617 C 96 133.911, 95.532 135, 94.545 135 C 93.675 135, 92.827 136.405, 92.434 138.500 C 92.058 140.505, 91.184 142, 90.389 142 C 89.468 142, 89 143.180, 89 145.500 C 89 148.333, 88.619 149, 87 149 C 85.667 149, 85 149.667, 85 151 C 85 152.111, 84.333 153, 83.500 153 C 82.490 153, 82 154.010, 82 156.094 C 82 158.346, 81.456 159.329, 80 159.710 C 77.750 160.299, 77.244 163, 79.383 163 C 80.144 163, 81.002 163.900, 81.290 165 C 81.577 166.100, 82.530 167, 83.406 167 C 84.283 167, 85 167.689, 85 168.531 C 85 169.374, 85.675 170.322, 86.500 170.638 C 87.325 170.955, 88 171.841, 88 172.607 C 88 173.426, 89.030 174, 90.500 174 C 92.056 174, 93 174.567, 93 175.500 C 93 176.325, 93.675 177, 94.500 177 C 95.333 177, 96 177.889, 96 179 C 96 180.619, 96.667 181, 99.500 181 C 101.932 181, 103 181.454, 103 182.488 C 103 183.451, 104.412 184.202, 107 184.616 C 109.413 185.002, 111 185.800, 111 186.628 C 111 187.555, 112.258 188, 114.875 188 C 120.772 188, 125 189.096, 125 190.625 C 125 191.530, 126.197 192, 128.500 192 L 132 192 132 186.500 C 132 181.667, 132.242 181, 134 181 C 135.606 181, 136 181.667, 136 184.383 C 136 186.926, 136.497 187.897, 138 188.290 C 139.100 188.577, 140 189.530, 140 190.406 C 140 191.763, 141.559 192, 150.500 192 C 159.167 192, 161 192.262, 161 193.500 C 161 194.325, 161.675 195, 162.500 195 C 163.782 195, 164 192.167, 164 175.500 C 164 158.833, 163.782 156, 162.500 156 C 161.675 156, 161 155.325, 161 154.500 C 161 153.675, 161.675 153, 162.500 153 C 163.742 153, 164 151.111, 164 142 C 164 132.889, 163.742 131, 162.500 131 C 161.667 131, 161 130.111, 161 129 C 161 127.889, 161.667 127, 162.500 127 C 163.548 127, 164 125.944, 164 123.500 C 164 121.056, 163.548 120, 162.500 120 C 161.667 120, 161 119.111, 161 118 C 161 116.889, 161.667 116, 162.500 116 C 163.738 116, 164 114.167, 164 105.500 L 164 95 159.111 95 C 154.316 95, 154.210 95.067, 153.566 98.500 C 152.966 101.698, 152.611 102, 149.455 102 C 147.098 102, 146 101.538, 146 100.545 C 146 99.675, 144.595 98.827, 142.500 98.434 C 140.495 98.058, 139 97.184, 139 96.389 C 139 95.625, 138.325 95, 137.500 95 C 136.675 95, 136 95.675, 136 96.500" stroke="none" fill="black" fill-rule="evenodd"/>
</svg>