<svg xmlns="http://www.w3.org/2000/svg" width="300" height="300" viewBox="0 0 300 300" version="1.1">
	<path d="M 147.290 106 C 147.002 107.100, 146.144 108, 145.383 108 C 144.623 108, 144 108.914, 144 110.031 C 144 111.149, 143.325 112.322, 142.500 112.638 C 141.675 112.955, 141 114.045, 141 115.060 C 141 117.352, 138.942 122, 137.927 122 C 137.514 122, 136.872 123.800, 136.500 126 C 136.113 128.288, 135.263 130, 134.514 130 C 133.626 130, 132.978 132.236, 132.507 136.929 C 132.081 141.177, 131.304 144.053, 130.500 144.362 C 129.779 144.638, 128.885 146.245, 128.515 147.932 C 126.954 155.039, 126 150.110, 126 134.941 C 126 125.858, 126.385 119.120, 126.887 119.430 C 128.440 120.390, 129.842 117.600, 129.279 114.668 C 128.980 113.110, 128.120 111.600, 127.368 111.311 C 126.615 111.022, 126 110.159, 126 109.393 C 126 108.434, 124.752 108, 122 108 C 118.119 108, 118 108.101, 118 111.393 C 118 113.487, 117.426 115.006, 116.500 115.362 C 114.444 116.151, 114.351 126, 116.399 126 C 118.409 126, 118.680 131.916, 117.864 158 C 117.477 170.375, 117.412 182.223, 117.721 184.330 C 118.204 187.632, 118.572 188.082, 120.391 187.594 C 121.551 187.282, 123.063 187.021, 123.750 187.014 C 124.438 187.006, 125 186.325, 125 185.500 C 125 184.675, 125.675 184, 126.500 184 C 127.325 184, 128.046 183.438, 128.101 182.750 C 128.157 182.063, 128.384 178.350, 128.607 174.500 C 129.070 166.498, 129.569 164.615, 130.993 165.496 C 131.618 165.882, 132.027 164.103, 132.070 160.809 C 132.130 156.329, 133.683 149.443, 133.945 152.500 C 134.126 154.612, 135.970 150.362, 135.985 147.800 C 135.993 146.315, 136.686 144.716, 137.524 144.247 C 138.430 143.739, 139.297 141.289, 139.663 138.197 C 140.043 134.993, 140.764 133, 141.545 133 C 142.306 133, 143.085 131.015, 143.496 128.030 C 143.872 125.296, 144.661 123.159, 145.249 123.280 C 145.837 123.401, 146.809 121.677, 147.409 119.450 C 148.380 115.846, 148.829 115.405, 151.482 115.450 C 153.607 115.486, 154.571 116.054, 154.839 117.429 C 155.046 118.490, 155.842 119.985, 156.608 120.751 C 157.374 121.516, 158 123.236, 158 124.571 C 158 126.063, 158.578 127, 159.500 127 C 160.325 127, 161.017 127.563, 161.038 128.250 C 161.153 132.071, 162.350 137.580, 163.177 138.100 C 163.702 138.430, 164.478 141.252, 164.902 144.372 C 165.739 150.545, 166.110 151.630, 167.250 151.250 C 167.662 151.112, 168 153.631, 168 156.847 C 168 161.259, 168.491 163.260, 170 165 C 171.581 166.823, 172 168.741, 172 174.153 C 172 179.481, 172.323 181, 173.456 181 C 174.570 181, 174.981 182.704, 175.206 188.250 L 175.500 195.500 180.750 195.802 L 186 196.105 186 190.552 C 186 186.284, 185.653 185, 184.500 185 C 183.656 185, 182.933 184.016, 182.848 182.750 C 182.764 181.512, 182.591 180.050, 182.463 179.500 C 182.335 178.950, 182.179 176.588, 182.115 174.250 C 182.032 171.190, 181.580 170, 180.500 170 C 179.333 170, 179 168.667, 179 164 C 179 159.875, 178.609 157.995, 177.750 157.985 C 176.917 157.974, 177 157.646, 178 157 C 179.301 156.159, 179.281 156.029, 177.851 156.015 C 176.544 156.003, 176.055 154.528, 175.487 148.875 C 175.069 144.713, 174.444 142.282, 173.982 143.029 C 173.516 143.783, 172.900 141.578, 172.480 137.654 C 171.981 132.998, 171.351 131, 170.384 131 C 169.436 131, 169 129.739, 169 127 C 169 124.348, 168.554 123, 167.676 123 C 166.948 123, 165.918 121.313, 165.388 119.250 C 164.857 117.188, 163.878 115.613, 163.211 115.750 C 162.441 115.909, 162 114.691, 162 112.406 C 162 109.661, 161.531 108.690, 160.011 108.293 C 158.917 108.007, 158.270 107.373, 158.571 106.884 C 159.291 105.720, 154.682 104, 150.841 104 C 148.654 104, 147.668 104.555, 147.290 106" stroke="none" fill="black" fill-rule="evenodd"/>
</svg>