<svg xmlns="http://www.w3.org/2000/svg" width="300" height="300" viewBox="0 0 300 300" version="1.1">
	<path d="M 181 94.500 C 181 95.325, 180.341 96, 179.535 96 C 178.730 96, 177.582 96.913, 176.985 98.028 C 176.388 99.143, 175.472 99.792, 174.950 99.469 C 174.427 99.146, 174 99.359, 174 99.941 C 174 100.523, 173.213 101.032, 172.250 101.070 C 170.754 101.130, 170.790 101.265, 172.500 102 C 174.408 102.820, 174.397 102.863, 172.250 102.930 C 170.690 102.978, 170 103.613, 170 105 C 170 106.111, 169.333 107, 168.500 107 C 167.675 107, 167 107.717, 167 108.594 C 167 109.470, 166.125 110.416, 165.056 110.696 C 163.747 111.038, 163.012 112.233, 162.806 114.352 C 162.612 116.343, 162.009 117.398, 161.164 117.221 C 160.429 117.068, 159.589 117.856, 159.297 118.971 C 159.005 120.087, 158.144 121, 157.383 121 C 156.207 121, 155.415 124.295, 155.882 127.250 C 155.947 127.662, 154.875 128, 153.500 128 C 151.944 128, 151 127.433, 151 126.500 C 151 125.675, 150.550 125, 150 125 C 149.450 125, 149 124.283, 149 123.406 C 149 122.530, 148.100 121.577, 147 121.290 C 145.900 121.002, 144.944 119.919, 144.875 118.883 C 144.642 115.366, 144.501 114.928, 143.376 114.214 C 142.757 113.821, 141.934 112.037, 141.546 110.250 C 140.858 107.077, 140.714 107, 135.501 107 L 130.161 107 130.348 112.172 C 130.459 115.235, 131.038 117.513, 131.767 117.756 C 132.445 117.982, 133 118.774, 133 119.516 C 133 120.258, 133.869 121.141, 134.931 121.478 C 135.996 121.816, 137.144 123.378, 137.492 124.962 C 137.838 126.541, 138.770 128.081, 139.561 128.385 C 140.352 128.689, 141 129.626, 141 130.469 C 141 131.311, 141.619 132, 142.375 132 C 143.746 132, 145 136.120, 145 140.625 C 145 141.931, 144.409 143, 143.687 143 C 142.964 143, 141.755 144.575, 141 146.500 C 140.245 148.425, 139.036 150, 138.313 150 C 137.591 150, 137 150.900, 137 152 C 137 153.333, 136.333 154, 135 154 C 133.381 154, 133 154.667, 133 157.500 C 133 159.944, 132.548 161, 131.500 161 C 130.452 161, 130 162.056, 130 164.500 C 130 167.333, 129.619 168, 128 168 C 126.381 168, 126 168.667, 126 171.500 C 126 174.036, 125.561 175, 124.406 175 C 123.530 175, 122.577 175.900, 122.290 177 C 122.002 178.100, 121.180 179, 120.463 179 C 119.746 179, 118.862 180.350, 118.500 182 C 118.138 183.650, 117.202 185, 116.421 185 C 115.639 185, 114.992 185.787, 114.983 186.750 C 114.964 188.662, 110.887 193, 109.109 193 C 108.499 193, 108 194.364, 108 196.031 C 108 197.803, 107.377 199.302, 106.500 199.638 C 104.889 200.257, 104.391 204, 105.921 204 C 106.427 204, 107.138 205.350, 107.500 207 C 107.870 208.685, 108.808 210, 109.638 210 C 110.452 210, 110.840 209.550, 110.500 209 C 110.160 208.450, 110.359 207.944, 110.941 207.875 C 111.523 207.806, 112.563 207.694, 113.250 207.625 C 113.942 207.556, 114.638 205.827, 114.810 203.750 C 115.008 201.358, 115.626 200, 116.515 200 C 117.317 200, 118.188 198.513, 118.566 196.500 C 118.942 194.495, 119.816 193, 120.611 193 C 121.375 193, 122 192.283, 122 191.406 C 122 190.530, 122.900 189.577, 124 189.290 C 125.417 188.919, 126 187.926, 126 185.883 C 126 183.912, 126.504 183, 127.594 183 C 128.470 183, 129.423 182.100, 129.710 181 C 129.998 179.900, 130.806 179, 131.505 179 C 132.205 179, 133.073 177.425, 133.434 175.500 C 133.827 173.405, 134.675 172, 135.545 172 C 136.541 172, 137 170.896, 137 168.500 C 137 166.056, 137.452 165, 138.500 165 C 139.333 165, 140 164.111, 140 163 C 140 161.210, 141.039 160.532, 143.250 160.882 C 143.662 160.947, 144 159.425, 144 157.500 C 144 154.964, 144.439 154, 145.594 154 C 146.470 154, 147.423 153.100, 147.710 152 C 147.998 150.900, 148.856 150, 149.617 150 C 150.377 150, 151 149.325, 151 148.500 C 151 147.667, 151.889 147, 153 147 C 154.111 147, 155 147.667, 155 148.500 C 155 149.333, 155.889 150, 157 150 C 158.163 150, 159 150.667, 159 151.594 C 159 152.470, 159.900 153.423, 161 153.710 C 162.100 153.998, 163 154.820, 163 155.537 C 163 156.254, 164.304 157.128, 165.898 157.478 C 167.584 157.848, 169.009 158.927, 169.305 160.057 C 169.584 161.126, 170.530 162, 171.406 162 C 172.283 162, 173 162.575, 173 163.278 C 173 163.981, 173.900 165.326, 175 166.268 C 176.100 167.210, 177 168.660, 177 169.490 C 177 170.321, 177.675 171, 178.500 171 C 179.433 171, 180 171.944, 180 173.500 C 180 174.967, 180.574 176, 181.389 176 C 182.184 176, 183.058 177.495, 183.434 179.500 C 184.034 182.698, 184.389 183, 187.545 183 C 189.820 183, 191 182.528, 191 181.617 C 191 180.856, 191.958 179.983, 193.130 179.676 C 194.605 179.291, 195.066 178.614, 194.630 177.478 C 194.283 176.575, 194 174.973, 194 173.918 C 194 172.863, 193.377 172, 192.617 172 C 191.856 172, 190.998 171.100, 190.710 170 C 190.423 168.900, 189.470 168, 188.594 168 C 187.717 168, 187 167.573, 187 167.052 C 187 165.674, 182.470 161, 181.135 161 C 180.511 161, 180 160.100, 180 159 C 180 157.889, 179.333 157, 178.500 157 C 177.675 157, 177 156.377, 177 155.617 C 177 154.856, 176.100 153.998, 175 153.710 C 173.900 153.423, 173 152.470, 173 151.594 C 173 150.667, 172.163 150, 171 150 C 169.648 150, 169 149.333, 169 147.941 C 169 146.736, 168.557 146.156, 167.933 146.542 C 167.345 146.905, 166.619 146.257, 166.316 145.101 C 166.014 143.945, 165.130 143, 164.352 143 C 163.574 143, 162.647 142.213, 162.292 141.250 C 161.936 140.287, 161.282 139.253, 160.838 138.950 C 160.394 138.648, 159.742 136.960, 159.390 135.200 C 158.880 132.650, 159.080 132, 160.375 132 C 161.269 132, 162 131.311, 162 130.469 C 162 129.626, 162.713 128.664, 163.584 128.329 C 164.859 127.840, 164.908 127.557, 163.834 126.876 C 162.809 126.227, 162.901 126.027, 164.231 126.015 C 165.236 126.006, 166.225 124.952, 166.589 123.500 C 166.934 122.125, 167.843 121, 168.608 121 C 169.374 121, 170 120.096, 170 118.990 C 170 117.885, 170.900 116.210, 172 115.268 C 173.100 114.326, 174 112.981, 174 112.278 C 174 111.575, 174.675 111, 175.500 111 C 176.325 111, 177 110.283, 177 109.406 C 177 108.530, 177.900 107.577, 179 107.290 C 180.100 107.002, 181 106.144, 181 105.383 C 181 104.334, 182.751 103.996, 188.250 103.985 C 195.166 103.970, 200.134 102.511, 197.250 101.341 C 196.563 101.062, 196 100.002, 196 98.986 C 196 97.832, 195.156 97.019, 193.750 96.820 C 192.512 96.644, 191.639 96.050, 191.809 95.500 C 192.175 94.315, 188.786 93.239, 184.250 93.100 C 181.983 93.030, 181 93.454, 181 94.500" stroke="none" fill="black" fill-rule="evenodd"/>
</svg>