<svg xmlns="http://www.w3.org/2000/svg" width="300" height="300" viewBox="0 0 300 300" version="1.1">
	<path d="M 177.324 64.868 C 177.018 66.041, 176.144 67, 175.383 67 C 174.478 67, 174 68.169, 174 70.383 C 174 72.926, 173.503 73.897, 172 74.290 C 170.900 74.577, 170 75.530, 170 76.406 C 170 77.283, 169.375 78, 168.611 78 C 167.816 78, 166.942 79.495, 166.566 81.500 C 166.173 83.595, 165.325 85, 164.455 85 C 163.459 85, 163 86.104, 163 88.500 C 163 90.944, 162.548 92, 161.500 92 C 160.667 92, 160 92.889, 160 94 C 160 95.333, 159.333 96, 158 96 C 156.333 96, 156 96.667, 156 100 C 156 102.789, 155.570 104, 154.579 104 C 153.798 104, 152.862 105.350, 152.500 107 C 152.138 108.650, 151.252 110, 150.532 110 C 149.812 110, 148.936 111.525, 148.587 113.390 C 147.877 117.172, 146.252 117.964, 139.156 117.986 C 135.647 117.997, 134.712 117.616, 134.290 116 C 133.897 114.497, 132.926 114, 130.383 114 C 128.169 114, 127 113.522, 127 112.617 C 127 111.856, 126.100 110.998, 125 110.710 C 123.900 110.423, 123 109.470, 123 108.594 C 123 107.717, 122.325 107, 121.500 107 C 120.667 107, 120 106.111, 120 105 C 120 103.667, 119.333 103, 118 103 C 116.889 103, 116 102.333, 116 101.500 C 116 100.675, 115.325 100, 114.500 100 C 113.667 100, 113 99.111, 113 98 C 113 96.667, 112.333 96, 111 96 C 109.900 96, 109 95.345, 109 94.545 C 109 93.675, 107.595 92.827, 105.500 92.434 C 103.495 92.058, 102 91.184, 102 90.389 C 102 89.625, 101.325 89, 100.500 89 C 99.675 89, 99 89.675, 99 90.500 C 99 91.333, 98.111 92, 97 92 C 95.386 92, 95 92.667, 95 95.455 C 95 98.611, 95.302 98.966, 98.500 99.566 C 100.505 99.942, 102 100.816, 102 101.611 C 102 102.375, 102.675 103, 103.500 103 C 104.325 103, 105 103.717, 105 104.594 C 105 105.470, 105.900 106.423, 107 106.710 C 108.100 106.998, 109 107.856, 109 108.617 C 109 109.377, 109.900 110, 111 110 C 112.333 110, 113 110.667, 113 112 C 113 113.111, 113.667 114, 114.500 114 C 115.325 114, 116 114.625, 116 115.389 C 116 116.184, 117.495 117.058, 119.500 117.434 C 121.595 117.827, 123 118.675, 123 119.545 C 123 120.345, 123.900 121, 125 121 C 126.333 121, 127 121.667, 127 123 C 127 124.667, 127.667 125, 131 125 C 133.889 125, 135 125.417, 135 126.500 C 135 127.325, 135.675 128, 136.500 128 C 137.325 128, 138 127.325, 138 126.500 C 138 125.417, 139.111 125, 142 125 C 144.889 125, 146 125.417, 146 126.500 C 146 127.325, 146.450 128, 147 128 C 147.550 128, 148 127.325, 148 126.500 C 148 125.667, 148.889 125, 150 125 C 151.333 125, 152 124.333, 152 123 C 152 121.667, 152.667 121, 154 121 C 155.619 121, 156 120.333, 156 117.500 C 156 114.667, 156.381 114, 158 114 C 159.333 114, 160 113.333, 160 112 C 160 110.889, 160.667 110, 161.500 110 C 162.548 110, 163 108.944, 163 106.500 C 163 104.187, 163.469 103, 164.383 103 C 165.899 103, 166.965 100.032, 166.986 95.750 C 166.995 94.077, 167.544 93, 168.389 93 C 169.184 93, 170.058 91.505, 170.434 89.500 C 170.827 87.405, 171.675 86, 172.545 86 C 173.430 86, 174 85.021, 174 83.500 C 174 81.944, 174.567 81, 175.500 81 C 176.325 81, 177 80.325, 177 79.500 C 177 78.417, 178.111 78, 181 78 L 185 78 185 71 C 185 66.074, 184.630 63.996, 183.750 63.986 C 183.063 63.979, 181.461 63.694, 180.191 63.354 C 178.392 62.873, 177.759 63.207, 177.324 64.868 M 168.750 128.689 C 167.787 128.941, 167 129.789, 167 130.573 C 167 131.673, 165.396 132, 160 132 C 154.638 132, 153 132.330, 153 133.412 C 153 134.280, 151.459 135.085, 149 135.500 C 146.730 135.884, 145 136.738, 145 137.477 C 145 138.192, 143.425 139.073, 141.500 139.434 C 138.438 140.008, 138 140.460, 138 143.045 C 138 145.333, 137.549 146, 136 146 C 134.667 146, 134 146.667, 134 148 C 134 149.111, 133.333 150, 132.500 150 C 131.300 150, 131 151.500, 131 157.500 C 131 163.500, 131.300 165, 132.500 165 C 133.325 165, 134 165.675, 134 166.500 C 134 167.333, 134.889 168, 136 168 C 137.100 168, 138 168.655, 138 169.455 C 138 170.325, 139.405 171.173, 141.500 171.566 C 143.505 171.942, 145 172.816, 145 173.611 C 145 174.534, 146.185 175, 148.531 175 C 150.719 175, 152.278 175.560, 152.628 176.473 C 152.939 177.283, 154.725 178.233, 156.597 178.584 C 158.527 178.946, 160 179.823, 160 180.611 C 160 181.497, 161.121 182, 163.094 182 C 165.346 182, 166.329 182.544, 166.710 184 C 167.103 185.503, 168.074 186, 170.617 186 C 172.945 186, 174 186.464, 174 187.488 C 174 188.451, 175.412 189.202, 178 189.616 C 180.413 190.002, 182 190.800, 182 191.628 C 182 192.495, 183.138 193, 185.094 193 C 187.346 193, 188.329 193.544, 188.710 195 C 189.078 196.407, 190.074 197, 192.071 197 C 194.523 197, 194.999 197.476, 195.566 200.500 C 195.942 202.505, 196.816 204, 197.611 204 C 198.532 204, 199 205.180, 199 207.500 C 199 210.036, 198.561 211, 197.406 211 C 196.530 211, 195.577 211.900, 195.290 213 C 195.002 214.100, 194.144 215, 193.383 215 C 192.623 215, 192 215.623, 192 216.383 C 192 217.144, 191.100 218.002, 190 218.290 C 188.900 218.577, 188 219.530, 188 220.406 C 188 221.333, 187.163 222, 186 222 C 184.889 222, 184 222.667, 184 223.500 C 184 224.510, 182.990 225, 180.906 225 C 178.724 225, 177.669 225.552, 177.323 226.872 C 176.953 228.286, 175.566 228.893, 171.654 229.353 C 164.561 230.187, 156 229.097, 156 227.361 C 156 226.472, 154.785 226, 152.500 226 C 149.667 226, 149 225.619, 149 224 C 149 222.667, 148.333 222, 147 222 C 145.900 222, 145 221.345, 145 220.545 C 145 219.675, 143.595 218.827, 141.500 218.434 C 139.495 218.058, 138 217.184, 138 216.389 C 138 215.625, 137.283 215, 136.406 215 C 135.530 215, 134.577 214.100, 134.290 213 C 134 211.893, 132.926 211, 131.883 211 C 130.848 211, 130 210.325, 130 209.500 C 130 208.500, 129 208, 127 208 C 124.667 208, 124 207.556, 124 206 C 124 204.667, 123.333 204, 122 204 C 120.667 204, 120 203.333, 120 202 C 120 199.837, 117.898 199.470, 112.125 200.625 C 109.366 201.177, 109 201.645, 109 204.625 C 109 206.958, 109.463 208, 110.500 208 C 111.325 208, 112 208.675, 112 209.500 C 112 210.583, 113.111 211, 116 211 C 119.333 211, 120 211.333, 120 213 C 120 214.333, 120.667 215, 122 215 C 123.100 215, 124 215.655, 124 216.455 C 124 217.325, 125.405 218.173, 127.500 218.566 C 129.505 218.942, 131 219.816, 131 220.611 C 131 221.375, 131.675 222, 132.500 222 C 133.325 222, 134 222.625, 134 223.389 C 134 224.184, 135.495 225.058, 137.500 225.434 C 139.425 225.795, 141 226.689, 141 227.420 C 141 228.752, 145.171 230, 149.625 230 C 151.069 230, 152 230.588, 152 231.500 C 152 232.333, 152.889 233, 154 233 C 155.100 233, 156 233.623, 156 234.383 C 156 235.959, 159 236.966, 163.750 236.986 C 165.966 236.996, 167 237.477, 167 238.500 C 167 239.325, 167.675 240, 168.500 240 C 169.325 240, 170 239.325, 170 238.500 C 170 237.588, 170.931 237, 172.375 237 C 176.880 237, 181 235.746, 181 234.375 C 181 233.619, 181.900 233, 183 233 C 184.100 233, 185 232.345, 185 231.545 C 185 230.675, 186.405 229.827, 188.500 229.434 C 190.505 229.058, 192 228.184, 192 227.389 C 192 226.625, 192.900 226, 194 226 C 195.333 226, 196 225.333, 196 224 C 196 222.889, 196.667 222, 197.500 222 C 198.325 222, 199 221.325, 199 220.500 C 199 219.675, 199.717 219, 200.594 219 C 201.470 219, 202.423 218.100, 202.710 217 C 202.998 215.900, 203.828 215, 204.555 215 C 206.292 215, 207.427 207.330, 206.552 201.500 C 206.112 198.565, 205.377 197, 204.439 197 C 203.647 197, 203 196.100, 203 195 C 203 193.900, 202.345 193, 201.545 193 C 200.675 193, 199.827 191.595, 199.434 189.500 C 198.780 186.014, 198.755 186, 193.389 186 C 189.340 186, 188 185.638, 188 184.545 C 188 183.675, 186.595 182.827, 184.500 182.434 C 182.495 182.058, 181 181.184, 181 180.389 C 181 179.468, 179.820 179, 177.500 179 C 174.667 179, 174 178.619, 174 177 C 174 175.381, 173.333 175, 170.500 175 C 168.180 175, 167 174.532, 167 173.611 C 167 172.816, 165.505 171.942, 163.500 171.566 C 161.405 171.173, 160 170.325, 160 169.455 C 160 168.468, 158.911 168, 156.617 168 C 154.074 168, 153.103 167.503, 152.710 166 C 152.310 164.468, 151.346 164, 148.594 164 C 146.066 164, 145 163.555, 145 162.500 C 145 161.675, 144.325 161, 143.500 161 C 142.348 161, 142 159.722, 142 155.500 C 142 151.484, 142.373 150, 143.383 150 C 144.144 150, 145.002 149.100, 145.290 148 C 145.577 146.900, 146.530 146, 147.406 146 C 148.283 146, 149 145.325, 149 144.500 C 149 143.452, 150.056 143, 152.500 143 C 154.813 143, 156 142.531, 156 141.617 C 156 140.101, 158.968 139.035, 163.250 139.014 C 165.022 139.005, 166 138.466, 166 137.500 C 166 136.272, 167.722 136, 175.500 136 C 183.278 136, 185 136.272, 185 137.500 C 185 138.548, 186.056 139, 188.500 139 C 191.333 139, 192 139.381, 192 141 C 192 142.100, 192.626 143, 193.392 143 C 195.126 143, 196.246 147.170, 195.409 150.507 C 194.495 154.149, 195.811 160, 197.545 160 C 198.345 160, 199 159.325, 199 158.500 C 199 157.667, 199.889 157, 201 157 C 202.619 157, 203 156.333, 203 153.500 C 203 151.056, 203.452 150, 204.500 150 C 205.325 150, 206 149.325, 206 148.500 C 206 147.675, 205.325 147, 204.500 147 C 203.352 147, 203 145.735, 203 141.611 C 203 136.245, 202.986 136.220, 199.500 135.566 C 197.405 135.173, 196 134.325, 196 133.455 C 196 132.468, 194.911 132, 192.617 132 C 190.074 132, 189.103 131.503, 188.710 130 C 188.234 128.179, 187.398 128.010, 179.344 128.116 C 174.480 128.180, 169.713 128.438, 168.750 128.689" stroke="none" fill="black" fill-rule="evenodd"/>
</svg>