<svg xmlns="http://www.w3.org/2000/svg" width="300" height="300" viewBox="0 0 300 300" version="1.1">
	<path d="M 104.850 86.250 C 104.587 90.170, 104.363 103.103, 103.595 158.500 C 103.183 188.200, 102.626 213.287, 102.356 214.250 C 101.946 215.713, 102.542 216, 105.992 216 C 108.261 216, 109.869 215.597, 109.565 215.105 C 108.681 213.674, 110.885 213.284, 121 213.081 C 126.225 212.976, 131.609 212.617, 132.964 212.283 C 135.250 211.720, 135.286 211.621, 133.464 210.908 C 132.384 210.486, 145.589 210.109, 162.809 210.070 C 180.730 210.030, 193.884 209.621, 193.570 209.114 C 193.269 208.626, 193.917 207.993, 195.011 207.707 C 196.366 207.353, 197 206.341, 197 204.535 C 197 203.076, 197.419 202.141, 197.931 202.457 C 198.443 202.774, 199.144 202.575, 199.490 202.016 C 199.835 201.457, 199.416 201, 198.559 201 C 197.151 201, 196.847 200.446, 197.074 198.300 C 197.115 197.914, 196.215 197.254, 195.074 196.832 C 193.907 196.400, 193 195.175, 193 194.032 C 193 192.915, 192.377 192, 191.617 192 C 190.856 192, 189.998 191.100, 189.710 190 C 189.423 188.900, 188.470 188, 187.594 188 C 186.331 188, 186 189.129, 186 193.436 L 186 198.871 168.462 199.186 C 154.190 199.441, 150.752 199.779, 150 201 C 149.248 202.222, 145.782 202.559, 131.303 202.817 C 121.528 202.992, 112.044 202.856, 110.228 202.515 L 106.926 201.896 107.123 184.698 C 107.302 169.094, 108.297 158.056, 109.034 163.500 C 109.695 168.379, 110.832 150.154, 111.546 123.250 C 112.166 99.867, 112.591 94, 113.661 94 C 114.556 94, 115 92.675, 115 90 C 115 87.800, 114.662 86.053, 114.250 86.118 C 112.257 86.433, 110.944 85.899, 111.500 85 C 111.868 84.405, 110.677 84, 108.559 84 C 105.579 84, 104.975 84.366, 104.850 86.250 M 108.195 158.500 C 108.215 160.150, 108.439 160.704, 108.693 159.731 C 108.947 158.758, 108.930 157.408, 108.656 156.731 C 108.382 156.054, 108.175 156.850, 108.195 158.500 M 175.813 208.683 C 176.534 208.972, 177.397 208.936, 177.729 208.604 C 178.061 208.272, 177.471 208.036, 176.417 208.079 C 175.252 208.127, 175.015 208.364, 175.813 208.683" stroke="none" fill="black" fill-rule="evenodd"/>
</svg>