<svg xmlns="http://www.w3.org/2000/svg" width="300" height="300" viewBox="0 0 300 300" version="1.1">
	<path d="M 164.750 69.728 C 162.335 69.981, 161 70.633, 161 71.560 C 161 72.639, 159.620 73, 155.500 73 C 150.667 73, 150 73.242, 150 75 C 150 76.619, 149.333 77, 146.500 77 C 144.056 77, 143 77.452, 143 78.500 C 143 79.333, 142.111 80, 141 80 C 139.667 80, 139 80.667, 139 82 C 139 83.333, 138.333 84, 137 84 C 135.889 84, 135 84.667, 135 85.500 C 135 86.325, 134.325 87, 133.500 87 C 132.675 87, 132 87.717, 132 88.594 C 132 89.470, 131.100 90.423, 130 90.710 C 128.900 90.998, 128 91.803, 128 92.500 C 128 93.197, 127.100 94.002, 126 94.290 C 124.900 94.577, 124 95.530, 124 96.406 C 124 97.283, 123.283 98, 122.406 98 C 121.530 98, 120.579 98.895, 120.293 99.989 C 120.007 101.083, 119.371 101.729, 118.879 101.425 C 118.388 101.122, 117.684 101.689, 117.315 102.687 C 116.399 105.164, 112.768 108.962, 111.295 108.983 C 110.633 108.992, 109.796 110.571, 109.436 112.491 C 109.075 114.411, 108.379 115.734, 107.888 115.431 C 107.398 115.128, 106.548 116.059, 106 117.500 C 105.452 118.941, 104.576 119.856, 104.052 119.532 C 103.529 119.209, 102.803 120.532, 102.439 122.472 C 102.035 124.625, 101.200 126, 100.295 126 C 99.480 126, 98.586 126.869, 98.308 127.931 C 98.030 128.993, 97.172 130.104, 96.401 130.399 C 95.631 130.695, 95 132.249, 95 133.852 C 95 135.926, 94.423 136.918, 93 137.290 C 91.468 137.690, 91 138.654, 91 141.406 C 91 143.784, 90.536 145, 89.629 145 C 88.739 145, 88.025 146.754, 87.594 150 C 87.180 153.121, 86.438 155, 85.620 155 C 84.631 155, 84.141 158.497, 83.630 169.206 C 83.182 178.580, 82.540 183.666, 81.743 184.159 C 80.086 185.183, 80.107 197.202, 81.767 197.756 C 82.445 197.982, 83 199.718, 83 201.615 C 83 203.692, 83.572 205.282, 84.439 205.615 C 85.230 205.919, 86.166 207.479, 86.518 209.084 C 86.871 210.688, 87.798 212, 88.579 212 C 89.361 212, 90 212.900, 90 214 C 90 215.313, 90.667 216, 91.941 216 C 93.009 216, 94.165 216.457, 94.510 217.016 C 94.856 217.575, 95.557 217.774, 96.069 217.457 C 96.581 217.141, 97 217.598, 97 218.472 C 97 219.347, 97.787 220.352, 98.750 220.706 C 99.713 221.060, 100.860 221.946, 101.300 222.675 C 101.740 223.404, 102.752 224, 103.550 224 C 104.347 224, 105 224.639, 105 225.420 C 105 226.437, 106.919 227.043, 111.750 227.553 C 115.463 227.945, 118.820 228.768, 119.212 229.383 C 119.651 230.072, 124.537 230.628, 131.962 230.834 C 142.419 231.124, 144 230.960, 144 229.584 C 144 228.331, 145.149 228, 149.500 228 C 153.492 228, 155 227.624, 155 226.629 C 155 225.696, 156.915 225.042, 161 224.580 C 164.609 224.171, 167.006 223.422, 167.015 222.700 C 167.025 221.966, 167.407 222.082, 168 223 C 168.828 224.282, 168.972 224.246, 168.985 222.750 C 168.995 221.554, 169.792 221, 171.500 221 C 172.875 221, 174.338 220.973, 174.750 220.940 C 175.162 220.908, 175.823 220.008, 176.218 218.940 C 176.613 217.873, 177.625 217, 178.468 217 C 179.310 217, 180 216.325, 180 215.500 C 180 214.567, 180.944 214, 182.500 214 C 183.875 214, 185.338 213.973, 185.750 213.940 C 186.162 213.908, 186.823 213.008, 187.218 211.940 C 187.613 210.873, 188.625 210, 189.468 210 C 190.310 210, 191 209.356, 191 208.570 C 191 207.783, 192.012 206.985, 193.250 206.796 C 194.488 206.607, 195.403 205.946, 195.283 205.326 C 195.164 204.707, 196.205 203.914, 197.596 203.565 C 198.987 203.216, 201.557 201.371, 203.306 199.465 C 205.055 197.559, 207.031 196, 207.698 196 C 208.364 196, 209.204 194.429, 209.564 192.509 C 209.925 190.589, 210.621 189.266, 211.112 189.569 C 211.602 189.872, 212.452 188.941, 213 187.500 C 213.548 186.059, 214.407 185.134, 214.910 185.444 C 215.412 185.755, 216.127 184.207, 216.499 182.004 C 216.882 179.741, 217.739 178, 218.471 178 C 220.107 178, 220.969 174.831, 220.986 168.750 C 221 164.058, 220.961 164, 217.750 163.986 C 215.963 163.979, 213.488 163.701, 212.250 163.370 C 210.336 162.857, 210 163.158, 210 165.383 C 210 166.850, 210.566 168, 211.287 168 C 212 168, 212.677 169.339, 212.803 171 C 212.964 173.115, 212.584 174, 211.516 174 C 210.572 174, 210 174.929, 210 176.461 C 210 177.815, 209.172 179.727, 208.160 180.711 C 207.148 181.695, 206.026 183.316, 205.667 184.313 C 205.308 185.311, 204.561 185.847, 204.007 185.504 C 203.453 185.162, 203 185.502, 203 186.261 C 203 187.019, 201.875 188.618, 200.500 189.813 C 199.125 191.009, 197.964 192.777, 197.921 193.743 C 197.869 194.901, 197.662 195.050, 197.314 194.180 C 196.931 193.220, 196.388 193.429, 195.325 194.947 C 194.521 196.094, 193.444 196.774, 192.932 196.458 C 192.419 196.141, 192 196.584, 192 197.441 C 192 198.315, 191.151 199, 190.067 199 C 189.004 199, 187.865 199.851, 187.534 200.892 C 187.204 201.933, 186.003 203.027, 184.866 203.325 C 183.729 203.622, 183.065 204.296, 183.391 204.823 C 183.716 205.350, 182.388 206.080, 180.439 206.446 C 178.490 206.811, 176.645 207.761, 176.340 208.555 C 176.034 209.354, 174.493 210, 172.893 210 C 171.068 210, 170 210.521, 170 211.412 C 170 212.280, 168.459 213.085, 166 213.500 C 163.541 213.915, 162 214.720, 162 215.588 C 162 216.633, 160.570 217, 156.500 217 C 152.484 217, 151 217.373, 151 218.383 C 151 220.456, 147.718 220.972, 134.500 220.978 C 119.335 220.984, 112 220.146, 112 218.406 C 112 217.683, 110.425 216.795, 108.500 216.434 C 106.563 216.071, 105 215.178, 105 214.434 C 105 213.691, 103.440 212.798, 101.509 212.436 C 99.589 212.075, 98.246 211.411, 98.525 210.959 C 98.804 210.508, 98.575 209.856, 98.016 209.510 C 97.457 209.165, 97 208.009, 97 206.941 C 97 205.873, 96.325 205, 95.500 205 C 94.664 205, 94 204.110, 94 202.990 C 94 201.885, 93.177 200.276, 92.172 199.415 C 90.493 197.978, 90.378 196.327, 90.762 179.175 C 91.141 162.211, 91.354 160.374, 93.090 159.128 C 94.519 158.102, 95 156.535, 95 152.909 C 95 149.228, 95.328 148.189, 96.363 148.586 C 97.323 148.954, 97.919 147.907, 98.375 145.055 C 98.796 142.422, 99.546 141, 100.512 141 C 101.546 141, 102 139.932, 102 137.500 C 102 135.030, 102.449 134, 103.525 134 C 104.363 134, 105.488 132.848, 106.023 131.440 C 106.558 130.032, 107.398 129.128, 107.888 129.431 C 108.379 129.734, 109.075 128.411, 109.436 126.491 C 109.827 124.403, 110.675 123, 111.545 123 C 112.345 123, 113 122.311, 113 121.469 C 113 120.626, 113.658 119.685, 114.462 119.376 C 115.875 118.834, 117.603 115.282, 117.198 113.750 C 117.089 113.338, 117.645 113, 118.433 113 C 119.221 113, 120.151 112.100, 120.500 111 C 120.849 109.900, 121.779 109, 122.567 109 C 123.355 109, 124 108.341, 124 107.535 C 124 106.730, 124.913 105.582, 126.028 104.985 C 127.143 104.388, 127.792 103.472, 127.469 102.950 C 127.146 102.427, 127.851 102, 129.035 102 C 130.346 102, 131.392 101.219, 131.710 100 C 131.998 98.900, 132.856 98, 133.617 98 C 134.377 98, 135 97.325, 135 96.500 C 135 95.675, 135.645 95, 136.433 95 C 137.221 95, 138.135 94.149, 138.466 93.108 C 138.796 92.067, 139.997 90.973, 141.134 90.675 C 142.271 90.378, 142.936 89.705, 142.612 89.181 C 142.288 88.657, 142.917 87.993, 144.011 87.707 C 145.105 87.421, 146 86.470, 146 85.594 C 146 84.667, 146.837 84, 148 84 C 149.100 84, 150 83.345, 150 82.545 C 150 81.675, 151.405 80.827, 153.500 80.434 C 155.505 80.058, 157 79.184, 157 78.389 C 157 77.391, 158.477 76.977, 162.250 76.917 C 165.137 76.871, 168.625 76.711, 170 76.561 C 174.265 76.096, 182.513 77.526, 182.285 78.690 C 182.167 79.295, 183.629 80.083, 185.535 80.441 C 187.602 80.828, 189 81.677, 189 82.545 C 189 83.345, 189.686 84, 190.525 84 C 191.363 84, 192.477 85.125, 193 86.500 C 193.523 87.875, 194.381 89, 194.908 89 C 195.434 89, 196.153 89.907, 196.505 91.015 C 196.856 92.123, 197.486 92.818, 197.903 92.560 C 198.321 92.302, 199.272 93.645, 200.018 95.545 C 200.763 97.445, 201.694 99, 202.085 99 C 203.450 99, 204.197 113.080, 203.486 125.408 C 202.852 136.395, 202.552 137.884, 200.885 138.320 C 199.796 138.605, 199 139.696, 199 140.906 C 199 142.058, 198.373 143, 197.607 143 C 196.841 143, 195.955 143.675, 195.638 144.500 C 195.322 145.325, 194.374 146, 193.531 146 C 192.689 146, 192 146.675, 192 147.500 C 192 148.548, 190.944 149, 188.500 149 L 185 149 185 141.500 C 185 135.756, 184.674 134, 183.607 134 C 181.682 134, 181 131.756, 181 125.418 C 181 121.269, 180.649 120, 179.500 120 C 178.675 120, 178.053 119.662, 178.118 119.250 C 178.440 117.211, 177.861 116, 176.563 116 C 175.673 116, 175.007 114.763, 174.813 112.750 C 174.573 110.259, 173.975 109.425, 172.250 109.180 C 171.012 109.005, 170 108.217, 170 107.430 C 170 106.381, 168.670 106, 165 106 C 161.222 106, 160 106.367, 160 107.500 C 160 108.333, 159.111 109, 158 109 C 156.889 109, 156 109.667, 156 110.500 C 156 111.325, 155.310 112, 154.468 112 C 153.625 112, 152.561 113.013, 152.103 114.250 C 151.645 115.487, 151.097 116.321, 150.885 116.103 C 149.650 114.832, 146.059 117.456, 145.490 120.045 C 145.133 121.670, 144.202 123, 143.421 123 C 142.639 123, 142 123.900, 142 125 C 142 126.100, 141.345 127, 140.545 127 C 139.675 127, 138.827 128.405, 138.434 130.500 C 138.073 132.425, 137.205 134, 136.505 134 C 134.789 134, 134.030 137.265, 134.014 144.715 C 134.002 149.914, 134.327 151.104, 136 152 C 137.100 152.589, 138 153.730, 138 154.535 C 138 155.549, 139.155 156.022, 141.750 156.070 C 144.549 156.123, 145.006 156.334, 143.554 156.902 C 141.751 157.608, 141.788 157.712, 144.054 158.318 C 148.401 159.481, 152 159.110, 152 157.500 C 152 156.348, 153.278 156, 157.500 156 C 161.516 156, 163 156.373, 163 157.383 C 163 158.144, 163.900 159.002, 165 159.290 C 166.532 159.690, 167 160.654, 167 163.406 L 167 167 174.510 167 C 180.782 167, 182.302 166.670, 183.732 165 C 184.674 163.900, 186.019 163, 186.722 163 C 187.425 163, 188 162.325, 188 161.500 C 188 160.667, 188.889 160, 190 160 C 191.333 160, 192 159.333, 192 158 C 192 156.368, 192.690 155.987, 195.750 155.930 C 198.758 155.873, 199.104 155.689, 197.500 155 C 195.790 154.265, 195.754 154.130, 197.250 154.070 C 198.213 154.032, 199 153.550, 199 153 C 199 152.450, 199.787 151.993, 200.750 151.985 C 202.246 151.972, 202.282 151.828, 201 151 C 199.718 150.172, 199.754 150.028, 201.250 150.015 C 202.292 150.006, 203 149.238, 203 148.117 C 203 147.074, 203.893 146, 205 145.710 C 206.532 145.310, 207 144.346, 207 141.594 C 207 139.245, 207.467 138, 208.349 138 C 211.356 138, 211.358 104.480, 208.351 102.700 C 207.504 102.199, 207 100.041, 207 96.919 C 207 93.413, 206.556 91.767, 205.500 91.362 C 204.675 91.045, 204 89.930, 204 88.883 C 204 87.837, 203.100 86.210, 202 85.268 C 200.900 84.326, 200 83.029, 200 82.386 C 200 81.743, 198.857 80.930, 197.459 80.579 C 196.062 80.228, 195.188 79.505, 195.518 78.971 C 195.848 78.437, 195.469 78, 194.676 78 C 193.882 78, 193.010 77.148, 192.738 76.106 C 192.445 74.985, 190.969 73.933, 189.121 73.527 C 187.405 73.150, 186 72.464, 186 72.003 C 186 69.935, 174.523 68.706, 164.750 69.728 M 157.750 116.668 C 156.787 116.931, 156 117.789, 156 118.573 C 156 119.358, 155.325 120, 154.500 120 C 153.675 120, 153 120.689, 153 121.531 C 153 122.374, 152.352 123.311, 151.561 123.615 C 150.770 123.919, 149.838 125.459, 149.492 127.038 C 149.144 128.622, 147.996 130.184, 146.931 130.522 C 145.529 130.967, 145 132.053, 145 134.484 C 145 136.326, 144.560 137.983, 144.023 138.167 C 143.485 138.350, 142.754 139.963, 142.398 141.750 C 141.880 144.349, 142.075 145, 143.375 145 C 144.269 145, 145 145.655, 145 146.455 C 145 149.607, 158.450 149.598, 159.660 146.445 C 159.992 145.578, 161.571 145, 163.607 145 C 166.333 145, 167 144.607, 167 143 C 167 141.667, 167.667 141, 169 141 C 170.111 141, 171 140.333, 171 139.500 C 171 138.675, 171.675 138, 172.500 138 C 173.325 138, 174 138.675, 174 139.500 C 174 141.854, 176.699 141.253, 177.370 138.750 C 177.701 137.512, 177.979 134.640, 177.986 132.367 C 177.997 129.068, 177.596 128.128, 176 127.710 C 174.900 127.423, 174 126.475, 174 125.605 C 174 124.735, 173.213 123.103, 172.250 121.979 C 171.287 120.855, 170.444 119.500, 170.375 118.968 C 170.306 118.435, 170.194 117.627, 170.125 117.171 C 169.989 116.272, 160.597 115.890, 157.750 116.668 M 205.252 120.500 C 205.263 122.700, 205.468 123.482, 205.707 122.238 C 205.946 120.994, 205.937 119.194, 205.687 118.238 C 205.437 117.282, 205.241 118.300, 205.252 120.500 M 174 150.500 C 174 154.516, 174.373 156, 175.383 156 C 176.144 156, 177.002 155.100, 177.290 154 C 177.577 152.900, 178.530 152, 179.406 152 C 180.561 152, 181 151.036, 181 148.500 C 181 145.167, 180.833 145, 177.500 145 L 174 145 174 150.500" stroke="none" fill="black" fill-rule="evenodd"/>
</svg>