<svg xmlns="http://www.w3.org/2000/svg" width="300" height="300" viewBox="0 0 300 300" version="1.1">
	<path d="M 174 110.500 C 174 111.325, 173.283 112, 172.406 112 C 171.530 112, 170.577 112.900, 170.290 114 C 170.002 115.100, 169.144 116, 168.383 116 C 167.462 116, 167 117.201, 167 119.594 C 167 122.346, 166.532 123.310, 165 123.710 C 163.497 124.103, 163 125.074, 163 127.617 C 163 129.741, 162.512 131, 161.689 131 C 160.945 131, 159.797 133.267, 159.036 136.238 C 157.959 140.438, 157.539 141.082, 156.917 139.488 C 156.358 138.058, 156.117 138.763, 156.055 142 C 156.008 144.475, 155.572 147.128, 155.086 147.896 C 153.936 149.711, 151.020 148.578, 150.930 146.281 C 150.868 144.722, 150.752 144.749, 150 146.500 C 149.379 147.946, 149.121 146.942, 149.070 142.875 C 148.974 135.208, 148.019 131, 146.375 131 C 145.438 131, 145 129.727, 145 127 C 145 124.211, 144.570 123, 143.579 123 C 142.798 123, 141.855 121.618, 141.485 119.929 C 141.028 117.853, 140.355 117.033, 139.405 117.398 C 138.432 117.771, 138 117.178, 138 115.469 C 138 113.249, 137.590 113, 133.941 113 C 131.709 113, 130.128 113.399, 130.430 113.886 C 130.731 114.374, 130.083 115.007, 128.989 115.293 C 127.476 115.688, 127 116.660, 127 119.357 C 127 121.634, 126.400 123.236, 125.322 123.840 C 124.127 124.509, 123.516 126.539, 123.202 130.889 C 122.913 134.875, 122.325 137, 121.510 137 C 120.764 137, 120.049 138.877, 119.736 141.651 C 119.420 144.449, 118.572 146.660, 117.606 147.201 C 116.722 147.695, 116 149.370, 116 150.925 C 116 155.378, 114.841 160.020, 113.878 159.425 C 113.395 159.126, 113 159.584, 113 160.441 C 113 161.333, 112.145 162, 111 162 C 109.251 162, 108.979 161.277, 108.832 156.250 C 108.740 153.088, 108.591 149.375, 108.500 148 C 108.093 141.840, 107.993 141.463, 107.126 142.831 C 106.227 144.248, 105 139.945, 105 135.375 C 105 133.931, 104.412 133, 103.500 133 C 102.675 133, 102 132.325, 102 131.500 C 102 130.667, 101.111 130, 100 130 C 98.889 130, 98 130.667, 98 131.500 C 98 132.325, 97.325 133, 96.500 133 C 95.351 133, 95 134.269, 95 138.417 C 95 141.545, 95.476 143.992, 96.127 144.209 C 96.747 144.416, 97.479 146.928, 97.754 149.792 C 98.059 152.962, 98.734 155, 99.479 155 C 100.641 155, 101.728 163.590, 102.136 176 L 102.284 180.500 103 176.500 C 103.549 173.431, 103.749 174.654, 103.858 181.750 C 103.989 190.286, 104.154 191, 106 191 C 107.111 191, 108 190.333, 108 189.500 C 108 188.675, 108.686 188, 109.525 188 C 110.363 188, 111.477 186.875, 112 185.500 C 112.523 184.125, 113.354 183, 113.846 183 C 114.339 183, 115.038 180.769, 115.400 178.043 C 115.762 175.316, 116.646 172.497, 117.365 171.778 C 118.083 171.059, 118.945 167.820, 119.280 164.579 C 119.614 161.339, 120.396 158.373, 121.017 157.989 C 121.639 157.605, 122.589 155.324, 123.129 152.920 C 123.669 150.516, 124.562 148.271, 125.112 147.931 C 125.662 147.591, 126.365 144.655, 126.674 141.406 C 127.028 137.680, 127.838 135.023, 128.868 134.207 C 130.523 132.895, 130.652 132.561, 130.875 129 C 130.969 127.491, 131.708 127, 133.883 127 C 137.203 127, 137.965 128.718, 137.986 136.250 C 137.996 139.462, 138.397 140.919, 139.225 140.750 C 140.057 140.580, 140.671 142.892, 141.141 147.972 C 141.522 152.082, 142.321 155.607, 142.917 155.806 C 143.613 156.038, 144 160.400, 144 168.024 C 144 174.546, 144.429 180.147, 144.954 180.472 C 147.169 181.840, 150.888 179.787, 151.535 176.839 C 151.895 175.203, 152.767 173.643, 153.474 173.372 C 154.180 173.101, 155.066 170.562, 155.441 167.731 C 155.865 164.534, 156.427 163.073, 156.923 163.875 C 158.076 165.741, 159 162.892, 159 157.468 C 159 154.594, 159.521 152.808, 160.524 152.247 C 161.430 151.739, 162.297 149.289, 162.663 146.197 C 163.002 143.339, 163.595 141, 163.981 141 C 164.367 141, 165.227 139.187, 165.891 136.971 C 166.554 134.755, 167.481 133.179, 167.950 133.469 C 168.418 133.758, 169.341 131.746, 170.001 128.998 C 170.731 125.951, 171.746 124, 172.600 124 C 173.370 124, 174 123.063, 174 121.917 C 174 120.694, 174.517 120.006, 175.250 120.250 C 175.938 120.479, 176.500 121.154, 176.500 121.750 C 176.500 122.346, 176.838 123.171, 177.250 123.583 C 177.662 123.996, 178 125.833, 178 127.667 C 178 129.963, 178.467 131, 179.500 131 C 180.633 131, 181 132.222, 181 136 C 181 139.576, 181.392 141, 182.375 141 C 183.748 141, 184.938 144.916, 185.070 149.875 C 185.133 152.220, 185.228 152.287, 185.964 150.500 C 186.604 148.945, 186.953 149.686, 187.534 153.835 C 187.952 156.823, 188.879 159.400, 189.640 159.692 C 190.513 160.027, 191.005 161.875, 191.014 164.857 C 191.031 170.805, 191.900 174, 193.500 174 C 194.197 174, 195.002 174.900, 195.290 176 C 195.577 177.100, 196.252 178, 196.790 178 C 197.327 178, 198.002 177.100, 198.290 176 C 198.603 174.803, 199.654 174, 200.906 174 C 202.207 174, 203.027 173.337, 203.070 172.250 C 203.130 170.754, 203.265 170.790, 204 172.500 C 204.686 174.097, 204.874 173.733, 204.930 170.691 C 204.968 168.596, 204.590 167.135, 204.089 167.445 C 203.587 167.755, 202.873 166.207, 202.501 164.004 C 202.094 161.597, 201.275 160, 200.447 160 C 199.545 160, 198.836 158.242, 198.395 154.917 C 197.987 151.847, 197.411 150.335, 196.939 151.098 C 196.226 152.252, 195.985 151.406, 194.624 143 C 194.490 142.175, 193.845 141.612, 193.191 141.750 C 192.384 141.919, 192 140.227, 192 136.500 C 192 132.297, 191.649 131, 190.512 131 C 189.549 131, 188.798 129.588, 188.384 127 C 187.998 124.587, 187.200 123, 186.372 123 C 185.545 123, 184.995 121.907, 184.986 120.250 C 184.965 115.968, 183.899 113, 182.383 113 C 181.623 113, 181 112.100, 181 111 C 181 109.381, 180.333 109, 177.500 109 C 175.056 109, 174 109.452, 174 110.500 M 102.079 185.583 C 102.127 186.748, 102.364 186.985, 102.683 186.188 C 102.972 185.466, 102.936 184.603, 102.604 184.271 C 102.272 183.939, 102.036 184.529, 102.079 185.583" stroke="none" fill="black" fill-rule="evenodd"/>
</svg>