<svg xmlns="http://www.w3.org/2000/svg" width="300" height="300" viewBox="0 0 300 300" version="1.1">
	<path d="M 145 61.500 C 145 62.695, 143.524 63.002, 137.750 63.009 C 126.881 63.022, 120 64.042, 120 65.639 C 120 66.704, 117.611 67, 109 67 C 99.889 67, 98 67.258, 98 68.500 C 98 69.325, 97.325 70, 96.500 70 C 95.544 70, 95 70.961, 95 72.648 L 95 75.296 103.250 74.654 C 107.787 74.301, 114.088 74.009, 117.250 74.006 C 121.556 74.002, 123 73.642, 123 72.576 C 123 71.426, 125.710 71.088, 137.038 70.826 C 147.920 70.573, 151.277 70.176, 151.965 69.059 C 153.227 67.013, 180.649 66.830, 181.909 68.859 C 182.373 69.606, 184.833 70.452, 187.376 70.739 L 192 71.260 192 76.630 C 192 81.333, 191.752 82, 190 82 C 188.889 82, 188 82.667, 188 83.500 C 188 84.325, 187.325 85, 186.500 85 C 185.667 85, 185 85.889, 185 87 C 185 88.100, 184.345 89, 183.545 89 C 182.675 89, 181.827 90.405, 181.434 92.500 C 180.959 95.033, 180.255 96, 178.889 96 C 177.850 96, 177 96.675, 177 97.500 C 177 98.325, 176.325 99, 175.500 99 C 174.667 99, 174 99.889, 174 101 C 174 102.333, 173.333 103, 172 103 C 170.900 103, 170 103.655, 170 104.455 C 170 105.325, 168.595 106.173, 166.500 106.566 C 163.967 107.041, 163 107.745, 163 109.111 C 163 110.150, 162.325 111, 161.500 111 C 160.675 111, 160 111.675, 160 112.500 C 160 113.548, 158.944 114, 156.500 114 C 153.964 114, 153 114.439, 153 115.594 C 153 116.470, 152.100 117.423, 151 117.710 C 149.900 117.998, 149 118.856, 149 119.617 C 149 120.377, 148.100 121, 147 121 C 145.667 121, 145 121.667, 145 123 C 145 124.619, 144.333 125, 141.500 125 C 139.056 125, 138 125.452, 138 126.500 C 138 127.325, 137.283 128, 136.406 128 C 135.530 128, 134.577 128.900, 134.290 130 C 133.897 131.503, 132.926 132, 130.383 132 C 127.183 132, 127 131.810, 127 128.500 C 127 126.180, 126.532 125, 125.611 125 C 124.816 125, 123.942 123.505, 123.566 121.500 C 122.992 118.438, 122.540 118, 119.955 118 C 117.995 118, 117 118.505, 117 119.500 C 117 120.333, 116.111 121, 115 121 C 113.333 121, 113 121.667, 113 125 C 113 127.834, 113.424 129, 114.455 129 C 115.325 129, 116.173 130.405, 116.566 132.500 C 116.942 134.505, 117.816 136, 118.611 136 C 119.375 136, 120 136.675, 120 137.500 C 120 138.325, 119.377 139, 118.617 139 C 117.856 139, 116.998 139.900, 116.710 141 C 116.310 142.532, 115.346 143, 112.594 143 C 109.153 143, 109 143.149, 109 146.500 L 109 150 116.500 150 L 124 150 124 160.349 C 124 176.003, 122.968 186, 121.353 186 C 120.380 186, 120 187.543, 120 191.500 C 120 195.516, 119.627 197, 118.617 197 C 117.101 197, 116.035 199.968, 116.014 204.250 C 116.005 206.022, 115.466 207, 114.500 207 C 113.450 207, 113 208.059, 113 210.531 C 113 212.719, 112.440 214.278, 111.527 214.628 C 110.717 214.939, 109.767 216.725, 109.416 218.597 C 109.065 220.468, 108.203 222, 107.500 222 C 106.797 222, 105.927 223.575, 105.566 225.500 C 105.173 227.595, 104.325 229, 103.455 229 C 102.655 229, 102 229.900, 102 231 C 102 232.111, 101.333 233, 100.500 233 C 99.675 233, 98.994 233.563, 98.986 234.250 C 98.979 234.938, 98.701 236.512, 98.370 237.750 C 97.816 239.817, 98.102 240, 101.883 240 C 105.333 240, 106 239.676, 106 238 C 106 236.889, 106.667 236, 107.500 236 C 108.325 236, 109 235.425, 109 234.722 C 109 234.019, 109.900 232.674, 111 231.732 C 112.100 230.790, 113 228.890, 113 227.510 C 113 225.980, 113.568 225, 114.455 225 C 115.325 225, 116.173 223.595, 116.566 221.500 C 116.942 219.495, 117.816 218, 118.611 218 C 119.532 218, 120 216.820, 120 214.500 C 120 212.187, 120.469 211, 121.383 211 C 122.899 211, 123.965 208.032, 123.986 203.750 C 123.995 202.092, 124.545 201, 125.373 201 C 126.294 201, 126.908 199.312, 127.239 195.865 C 127.558 192.544, 128.310 190.406, 129.366 189.815 C 130.677 189.081, 131 187.229, 131 180.450 C 131 173.606, 131.285 172, 132.500 172 C 133.667 172, 134 170.667, 134 166 C 134 161.333, 133.667 160, 132.500 160 C 131.321 160, 131 158.611, 131 153.500 C 131 148.389, 131.321 147, 132.500 147 C 133.555 147, 134 145.934, 134 143.406 C 134 140.654, 134.468 139.690, 136 139.290 C 137.100 139.002, 138 138.194, 138 137.495 C 138 136.795, 139.575 135.927, 141.500 135.566 C 143.595 135.173, 145 134.325, 145 133.455 C 145 132.655, 145.900 132, 147 132 C 148.333 132, 149 131.333, 149 130 C 149 128.667, 149.667 128, 151 128 C 152.111 128, 153 127.333, 153 126.500 C 153 125.675, 153.675 125, 154.500 125 C 155.325 125, 156 124.345, 156 123.545 C 156 122.675, 157.405 121.827, 159.500 121.434 C 161.505 121.058, 163 120.184, 163 119.389 C 163 118.625, 163.900 118, 165 118 C 166.333 118, 167 117.333, 167 116 C 167 114.381, 167.667 114, 170.500 114 C 173.333 114, 174 113.619, 174 112 C 174 110.889, 174.667 110, 175.500 110 C 176.325 110, 177 109.325, 177 108.500 C 177 107.667, 177.889 107, 179 107 C 180.333 107, 181 106.333, 181 105 C 181 103.667, 181.667 103, 183 103 C 184.111 103, 185 102.333, 185 101.500 C 185 100.675, 185.675 100, 186.500 100 C 187.333 100, 188 99.111, 188 98 C 188 96.667, 188.667 96, 190 96 C 191.333 96, 192 95.333, 192 94 C 192 92.667, 192.667 92, 194 92 C 195.556 92, 196 91.333, 196 89 C 196 86.922, 196.490 86, 197.594 86 C 198.470 86, 199.423 85.100, 199.710 84 C 199.998 82.900, 200.856 82, 201.617 82 C 202.531 82, 203 80.813, 203 78.500 C 203 76.119, 203.461 75, 204.441 75 C 206.530 75, 207.074 73.620, 206.371 70.103 C 205.941 67.956, 205.172 67, 203.875 67 C 202.844 67, 202 66.361, 202 65.580 C 202 64.569, 200.123 63.958, 195.500 63.463 C 190.968 62.978, 189 62.348, 189 61.384 C 189 60.247, 185.066 60, 167 60 C 148.111 60, 145 60.212, 145 61.500" stroke="none" fill="black" fill-rule="evenodd"/>
</svg>