<svg xmlns="http://www.w3.org/2000/svg" width="300" height="300" viewBox="0 0 300 300" version="1.1">
	<path d="M 181.714 49.619 C 181.321 50.012, 181 52.508, 181 55.167 C 181 58.624, 180.605 60, 179.611 60 C 178.816 60, 177.942 61.495, 177.566 63.500 C 177.173 65.595, 176.325 67, 175.455 67 C 174.655 67, 174 67.900, 174 69 C 174 70.333, 173.333 71, 172 71 C 170.381 71, 170 71.667, 170 74.500 C 170 76.813, 169.531 78, 168.617 78 C 167.856 78, 166.998 78.900, 166.710 80 C 166.423 81.100, 165.470 82, 164.594 82 C 163.439 82, 163 82.964, 163 85.500 C 163 87.820, 162.532 89, 161.611 89 C 160.816 89, 159.942 90.495, 159.566 92.500 C 159.173 94.595, 158.325 96, 157.455 96 C 156.358 96, 156 97.354, 156 101.500 C 156 105.516, 155.627 107, 154.617 107 C 153.101 107, 152.035 109.968, 152.014 114.250 C 152.005 115.923, 151.456 117, 150.611 117 C 149.823 117, 148.946 118.473, 148.584 120.403 C 148.233 122.275, 147.283 124.061, 146.473 124.372 C 145.663 124.683, 145 125.851, 145 126.969 C 145 128.086, 144.383 129, 143.629 129 C 142.739 129, 142.025 130.754, 141.594 134 C 141.140 137.424, 140.469 139, 139.466 139 C 138.467 139, 138 140.078, 138 142.383 C 138 144.926, 137.503 145.897, 136 146.290 C 134.544 146.671, 134 147.654, 134 149.906 C 134 151.990, 133.510 153, 132.500 153 C 131.659 153, 131 153.892, 131 155.031 C 131 156.149, 130.352 157.311, 129.561 157.615 C 128.770 157.919, 127.834 159.479, 127.482 161.084 C 127.129 162.688, 126.252 164, 125.532 164 C 124.812 164, 123.927 165.575, 123.566 167.500 C 123.173 169.595, 122.325 171, 121.455 171 C 120.424 171, 120 172.166, 120 175 C 120 178.333, 119.667 179, 118 179 C 116.381 179, 116 179.667, 116 182.500 C 116 184.944, 115.548 186, 114.500 186 C 113.462 186, 113 187.043, 113 189.383 C 113 191.926, 112.503 192.897, 111 193.290 C 109.330 193.726, 109 194.654, 109 198.906 C 109 202.767, 108.637 204, 107.500 204 C 106.452 204, 106 205.056, 106 207.500 C 106 210.333, 105.619 211, 104 211 C 102.333 211, 102 211.667, 102 215 C 102 217.834, 101.576 219, 100.545 219 C 99.675 219, 98.827 220.405, 98.434 222.500 C 98.073 224.425, 97.203 226, 96.500 226 C 95.797 226, 94.927 227.575, 94.566 229.500 C 94.173 231.595, 93.325 233, 92.455 233 C 91.376 233, 91 234.291, 91 238 L 91 243 94.500 243 C 96.944 243, 98 242.548, 98 241.500 C 98 240.667, 98.889 240, 100 240 C 101.333 240, 102 239.333, 102 238 C 102 236.667, 102.667 236, 104 236 C 105.549 236, 106 235.333, 106 233.045 C 106 230.460, 106.438 230.008, 109.500 229.434 C 112.682 228.837, 113 228.470, 113 225.389 C 113 223.043, 113.462 222, 114.500 222 C 117.255 222, 116.042 219.168, 113 218.500 C 109.958 217.832, 108.745 215, 111.500 215 C 112.548 215, 113 213.944, 113 211.500 C 113 209.056, 113.452 208, 114.500 208 C 115.555 208, 116 206.934, 116 204.406 C 116 201.654, 116.468 200.690, 118 200.290 C 119.656 199.857, 120 198.926, 120 194.883 C 120 191.383, 120.393 190, 121.389 190 C 122.184 190, 123.058 188.505, 123.434 186.500 C 123.827 184.405, 124.675 183, 125.545 183 C 126.576 183, 127 181.834, 127 179 C 127 175.667, 127.333 175, 129 175 C 130.619 175, 131 174.333, 131 171.500 C 131 169.104, 131.459 168, 132.455 168 C 133.325 168, 134.173 166.595, 134.566 164.500 C 134.942 162.495, 135.816 161, 136.611 161 C 137.375 161, 138 160.100, 138 159 C 138 157.900, 138.655 157, 139.455 157 C 140.325 157, 141.173 155.595, 141.566 153.500 C 141.942 151.495, 142.816 150, 143.611 150 C 144.514 150, 145 148.852, 145 146.722 C 145 144.682, 145.755 142.798, 147 141.732 C 148.100 140.790, 149 138.890, 149 137.510 C 149 135.980, 149.568 135, 150.455 135 C 151.325 135, 152.173 133.595, 152.566 131.500 C 152.942 129.495, 153.816 128, 154.611 128 C 155.532 128, 156 126.820, 156 124.500 C 156 122.104, 156.459 121, 157.455 121 C 158.325 121, 159.173 119.595, 159.566 117.500 C 159.942 115.495, 160.816 114, 161.611 114 C 162.599 114, 163.004 112.630, 163.014 109.250 C 163.031 103.077, 163.897 100, 165.617 100 C 166.531 100, 167 98.813, 167 96.500 C 167 94.152, 167.465 93, 168.412 93 C 169.280 93, 170.085 91.459, 170.500 89 C 170.915 86.541, 171.720 85, 172.588 85 C 173.535 85, 174 83.848, 174 81.500 C 174 78.667, 174.381 78, 176 78 C 177.333 78, 178 77.333, 178 76 C 178 74.900, 178.639 74, 179.421 74 C 180.202 74, 181.129 72.688, 181.482 71.084 C 181.834 69.479, 182.770 67.919, 183.561 67.615 C 184.352 67.311, 185 66.374, 185 65.531 C 185 64.689, 185.647 64, 186.439 64 C 188.030 64, 189.399 57.396, 188.835 52.441 C 188.555 49.987, 187.997 49.451, 185.464 49.203 C 183.794 49.039, 182.107 49.227, 181.714 49.619 M 99 97.383 C 99 98.374, 96.878 98.964, 91.500 99.468 C 86.032 99.980, 84 100.554, 84 101.585 C 84 102.633, 82.575 103, 78.500 103 C 74.484 103, 73 103.373, 73 104.383 C 73 105.959, 70 106.966, 65.250 106.986 C 62.205 106.999, 62 107.221, 62 110.500 C 62 113.333, 62.381 114, 64 114 C 65.111 114, 66 114.667, 66 115.500 C 66 116.325, 66.619 117, 67.375 117 C 68.746 117, 70 121.120, 70 125.625 C 70 127.131, 70.583 128, 71.594 128 C 72.470 128, 73.423 128.900, 73.710 130 C 74.191 131.838, 75.074 132, 84.617 132 C 92.845 132, 95 131.710, 95 130.601 C 95 129.604, 97.005 129.002, 102 128.500 C 106.995 127.998, 109 127.396, 109 126.399 C 109 125.629, 109.900 125, 111 125 C 112.100 125, 113 124.345, 113 123.545 C 113 122.675, 114.405 121.827, 116.500 121.434 C 119.033 120.959, 120 120.255, 120 118.889 C 120 117.850, 120.623 117, 121.383 117 C 123.239 117, 123.880 114.117, 123.256 108.578 C 122.922 105.620, 122.255 104, 121.370 104 C 120.616 104, 120 103.150, 120 102.111 C 120 100.745, 119.033 100.041, 116.500 99.566 C 114.405 99.173, 113 98.325, 113 97.455 C 113 96.320, 111.459 96, 106 96 C 100.709 96, 99 96.337, 99 97.383 M 88 108.500 C 88 109.333, 87.111 110, 86 110 C 84.667 110, 84 110.667, 84 112 C 84 113.100, 83.381 114, 82.625 114 C 81.196 114, 79.591 119.530, 80.563 121.103 C 80.868 121.596, 81.766 122, 82.559 122 C 83.352 122, 84 122.450, 84 123 C 84 123.550, 85.575 124, 87.500 124 C 89.944 124, 91 123.548, 91 122.500 C 91 121.310, 92.444 121, 98 121 C 103.738 121, 105 120.713, 105 119.406 C 105 118.530, 105.900 117.577, 107 117.290 C 108.100 117.002, 109 116.144, 109 115.383 C 109 114.623, 109.900 114, 111 114 C 113.090 114, 113.376 113.007, 112.370 109.250 C 111.787 107.077, 111.362 107, 99.883 107 C 89.987 107, 88 107.251, 88 108.500 M 206 173.500 C 206 174.630, 204.787 175, 201.079 175 C 196.474 175, 196.119 175.184, 195.528 177.872 C 194.709 181.600, 195.836 186, 197.608 186 C 198.374 186, 199 185.377, 199 184.617 C 199 182.754, 202.155 182.030, 210.344 182.014 C 216.352 182.002, 217.251 182.244, 217.710 184 C 217.998 185.100, 218.856 186, 219.617 186 C 220.377 186, 221 186.675, 221 187.500 C 221 188.325, 221.675 189, 222.500 189 C 223.333 189, 224 189.889, 224 191 C 224 192.333, 224.667 193, 226 193 C 227.667 193, 228 193.667, 228 197 C 228 199.712, 228.439 201, 229.364 201 C 230.229 201, 230.961 202.698, 231.364 205.640 C 232.665 215.127, 231.833 222, 229.383 222 C 228.478 222, 228 223.169, 228 225.383 C 228 227.926, 227.503 228.897, 226 229.290 C 224.900 229.577, 224 230.530, 224 231.406 C 224 232.283, 223.325 233, 222.500 233 C 221.675 233, 221 233.675, 221 234.500 C 221 235.333, 220.111 236, 219 236 C 217.667 236, 217 236.667, 217 238 C 217 239.810, 216.333 240, 210 240 L 203 240 203 232.969 C 203 227.641, 202.637 225.798, 201.500 225.362 C 200.332 224.913, 200 222.931, 200 216.393 C 200 209.599, 200.286 208, 201.500 208 C 202.583 208, 203 206.889, 203 204 C 203 201.166, 203.424 200, 204.455 200 C 205.325 200, 206.173 198.595, 206.566 196.500 C 207.136 193.459, 207.602 193, 210.111 193 C 212.746 193, 213 192.692, 213 189.500 C 213 186.278, 212.762 186, 210 186 C 208.083 186, 207 186.510, 207 187.412 C 207 188.280, 205.459 189.085, 203 189.500 C 200.541 189.915, 199 190.720, 199 191.588 C 199 192.365, 198.375 193, 197.611 193 C 196.816 193, 195.942 194.495, 195.566 196.500 C 195.173 198.595, 194.325 200, 193.455 200 C 192.236 200, 192 202.916, 192 218 C 192 232.835, 192.248 236, 193.412 236 C 194.280 236, 195.085 237.541, 195.500 240 C 195.915 242.459, 196.720 244, 197.588 244 C 198.535 244, 199 245.152, 199 247.500 L 199 251 208 251 C 216.333 251, 217 250.852, 217 249 C 217 247.667, 217.667 247, 219 247 C 220.100 247, 221 246.375, 221 245.611 C 221 244.816, 222.495 243.942, 224.500 243.566 C 226.595 243.173, 228 242.325, 228 241.455 C 228 240.655, 228.625 240, 229.389 240 C 230.184 240, 231.058 238.505, 231.434 236.500 C 231.797 234.563, 232.690 233, 233.434 233 C 234.173 233, 235.065 231.468, 235.416 229.597 C 235.767 227.725, 236.717 225.939, 237.527 225.628 C 239.693 224.797, 239.711 200, 237.545 200 C 236.675 200, 235.827 198.595, 235.434 196.500 C 235.058 194.495, 234.184 193, 233.389 193 C 232.468 193, 232 191.820, 232 189.500 C 232 186.667, 231.619 186, 230 186 C 228.667 186, 228 185.333, 228 184 C 228 182.889, 227.333 182, 226.500 182 C 225.675 182, 225 181.325, 225 180.500 C 225 179.675, 224.152 179, 223.117 179 C 222.074 179, 221 178.107, 220.710 177 C 220.329 175.544, 219.346 175, 217.094 175 C 215.010 175, 214 174.510, 214 173.500 C 214 172.417, 212.889 172, 210 172 C 207.111 172, 206 172.417, 206 173.500 M 141.500 186 C 141.138 187.650, 140.202 189, 139.421 189 C 138.639 189, 138 189.900, 138 191 C 138 192.111, 138.667 193, 139.500 193 C 140.333 193, 141 193.889, 141 195 C 141 196.111, 140.333 197, 139.500 197 C 138.222 197, 138 199.667, 138 215 C 138 229.606, 138.259 233, 139.375 233 C 140.746 233, 142 237.120, 142 241.625 C 142 243.069, 142.588 244, 143.500 244 C 144.325 244, 145 244.675, 145 245.500 C 145 246.652, 146.278 247, 150.500 247 C 154.722 247, 156 246.652, 156 245.500 C 156 244.667, 156.889 244, 158 244 C 159.333 244, 160 243.333, 160 242 C 160 240.889, 160.667 240, 161.500 240 C 162.325 240, 163 239.325, 163 238.500 C 163 237.667, 163.889 237, 165 237 C 166.333 237, 167 236.333, 167 235 C 167 233.900, 167.625 233, 168.389 233 C 169.184 233, 170.058 231.505, 170.434 229.500 C 170.827 227.405, 171.675 226, 172.545 226 C 173.744 226, 174 223.709, 174 213 C 174 202.291, 173.744 200, 172.545 200 C 171.675 200, 170.827 198.595, 170.434 196.500 C 170.058 194.495, 169.184 193, 168.389 193 C 167.625 193, 167 192.325, 167 191.500 C 167 190.667, 166.111 190, 165 190 C 163.667 190, 163 189.333, 163 188 C 163 186.148, 162.333 186, 154 186 C 146.667 186, 145 185.722, 145 184.500 C 145 181.745, 142.168 182.958, 141.500 186 M 153 195.500 C 153 196.333, 152.111 197, 151 197 C 149.190 197, 149 197.667, 149 204 C 149 209.556, 148.690 211, 147.500 211 C 145.770 211, 145.441 214.647, 147.121 215.207 C 148.194 215.565, 148.609 219.240, 148.878 230.750 L 149 236 152.500 236 C 154.944 236, 156 235.548, 156 234.500 C 156 233.675, 156.717 233, 157.594 233 C 158.470 233, 159.423 232.100, 159.710 231 C 159.998 229.900, 160.856 229, 161.617 229 C 162.531 229, 163 227.813, 163 225.500 C 163 222.667, 163.381 222, 165 222 C 166.667 222, 167 221.333, 167 218 C 167 215.111, 167.417 214, 168.500 214 C 169.325 214, 170 213.550, 170 213 C 170 212.450, 169.325 212, 168.500 212 C 167.417 212, 167 210.889, 167 208 C 167 204.667, 166.667 204, 165 204 C 163.667 204, 163 203.333, 163 202 C 163 200.900, 162.377 200, 161.617 200 C 160.856 200, 159.998 199.100, 159.710 198 C 159.423 196.900, 158.470 196, 157.594 196 C 156.717 196, 156 195.550, 156 195 C 156 194.450, 155.325 194, 154.500 194 C 153.675 194, 153 194.675, 153 195.500" stroke="none" fill="black" fill-rule="evenodd"/>
</svg>