<svg xmlns="http://www.w3.org/2000/svg" width="300" height="300" viewBox="0 0 300 300" version="1.1">
	<path d="M 158.929 83.069 L 156.500 83.695 159 84.211 C 160.375 84.495, 145.863 84.789, 126.750 84.864 C 96.588 84.982, 92 85.198, 92 86.500 C 92 87.548, 90.944 88, 88.500 88 L 85 88 85 92.955 C 85 97.766, 85.095 97.927, 88.294 98.527 C 93.248 99.457, 99.545 98.723, 99.250 97.250 C 99.088 96.439, 100.240 96, 102.531 96 C 104.748 96, 106.277 95.441, 106.638 94.500 C 106.955 93.675, 107.867 93, 108.666 93 C 109.465 93, 109.840 93.450, 109.500 94 C 109.160 94.550, 109.771 95, 110.858 95 C 111.944 95, 112.999 94.502, 113.202 93.894 C 113.594 92.719, 142.133 91.734, 147.250 92.720 C 149.972 93.245, 149.999 93.327, 149.920 100.875 C 149.877 105.069, 149.420 112.325, 148.906 117 C 148.391 121.675, 147.995 127.411, 148.025 129.746 C 148.055 132.082, 147.387 136.326, 146.540 139.178 C 145.501 142.675, 144.981 148.779, 144.942 157.932 C 144.890 170.269, 143.647 182.479, 142.950 177.500 C 142.504 174.314, 141.246 194.411, 141.117 206.775 C 141.001 217.997, 141.012 218.054, 143.560 219.023 C 144.968 219.558, 145.842 220.447, 145.501 220.998 C 145.161 221.549, 145.359 222, 145.941 222 C 146.523 222, 147 221.381, 147 220.625 C 147 219.869, 148.380 218.974, 150.066 218.637 C 151.785 218.293, 152.856 217.576, 152.503 217.005 C 152.157 216.444, 152.577 215.716, 153.437 215.386 C 155.194 214.712, 155.568 211.356, 153.947 210.816 C 151.587 210.029, 151.157 201.656, 152.042 173.751 C 152.545 157.871, 153.223 144.448, 153.548 143.923 C 153.873 143.397, 154.487 143.183, 154.914 143.447 C 155.341 143.711, 155.962 135.066, 156.294 124.237 C 156.790 108.088, 157.177 104.344, 158.449 103.414 C 159.302 102.790, 160.006 101.204, 160.014 99.890 C 160.051 93.371, 160.649 92.893, 168.377 93.209 C 173.423 93.415, 175.427 93.864, 175.250 94.750 C 174.870 96.652, 181.644 96.370, 182.380 94.453 C 183.290 92.081, 191.697 92.735, 192.350 95.229 C 192.778 96.867, 193.718 97.055, 200.168 96.795 C 205.380 96.585, 207.428 96.138, 207.250 95.250 C 207.112 94.563, 207.900 94, 209 94 C 210.292 94, 211 93.333, 211 92.117 C 211 91.074, 211.893 90, 213 89.710 C 214.100 89.423, 215 88.653, 215 88 C 215 87.347, 214.100 86.577, 213 86.290 C 211.900 86.002, 211 85.144, 211 84.383 C 211 83.255, 208 83.031, 194.750 83.168 C 183.262 83.287, 180.258 83.531, 184.500 84 C 189.630 84.568, 188.869 84.688, 179.250 84.832 C 173.063 84.924, 168 84.599, 168 84.109 C 168 82.949, 162.045 82.266, 158.929 83.069" stroke="none" fill="black" fill-rule="evenodd"/>
</svg>