<svg xmlns="http://www.w3.org/2000/svg" width="300" height="300" viewBox="0 0 300 300" version="1.1">
	<path d="M 160.250 92.794 C 159.012 92.984, 158 93.783, 158 94.570 C 158 96.465, 155.372 96.411, 154.638 94.500 C 154.302 93.623, 152.803 93, 151.031 93 C 149.003 93, 148 93.497, 148 94.500 C 148 95.700, 146.500 96, 140.500 96 C 134.578 96, 133 96.308, 133 97.466 C 133 98.472, 131.409 99.142, 127.917 99.605 C 124.619 100.043, 123.302 100.571, 124.167 101.110 C 125.098 101.690, 124.519 102.138, 122.250 102.595 C 120.356 102.977, 119 103.863, 119 104.719 C 119 105.526, 118.100 106.423, 117 106.710 C 115.900 106.998, 115 107.856, 115 108.617 C 115 109.377, 114.325 110, 113.500 110 C 111.438 110, 111.438 116.570, 113.500 117.362 C 114.325 117.678, 115 119.061, 115 120.433 C 115 121.906, 115.820 123.368, 117 124 C 118.100 124.589, 119 125.730, 119 126.535 C 119 127.496, 120.032 128, 122 128 C 124.333 128, 125 128.444, 125 130 C 125 131.333, 125.667 132, 127 132 C 128.100 132, 129 132.655, 129 133.455 C 129 134.325, 130.405 135.173, 132.500 135.566 C 134.425 135.927, 136 136.795, 136 137.495 C 136 138.194, 136.900 139.002, 138 139.290 C 139.100 139.577, 140 140.530, 140 141.406 C 140 142.561, 140.964 143, 143.500 143 C 145.813 143, 147 143.469, 147 144.383 C 147 145.144, 147.900 146.002, 149 146.290 C 150.100 146.577, 151 147.530, 151 148.406 C 151 149.514, 151.924 150, 154.031 150 C 155.746 150, 157.303 150.625, 157.615 151.439 C 157.919 152.230, 159.479 153.166, 161.084 153.518 C 162.688 153.871, 164 154.798, 164 155.579 C 164 156.361, 164.852 157, 165.893 157 C 166.934 157, 168.038 157.657, 168.346 158.459 C 168.654 159.262, 170.390 160.322, 172.203 160.815 C 174.016 161.308, 175.387 162.226, 175.250 162.856 C 175.112 163.485, 175.900 164, 177 164 C 178.333 164, 179 164.667, 179 166 C 179 167.163, 179.667 168, 180.594 168 C 181.470 168, 182.423 168.900, 182.710 170 C 182.998 171.100, 183.856 172, 184.617 172 C 185.377 172, 186 172.900, 186 174 C 186 175.100, 186.625 176, 187.389 176 C 188.177 176, 189.054 177.473, 189.416 179.403 C 189.767 181.275, 190.717 183.061, 191.527 183.372 C 192.631 183.796, 193 185.699, 193 190.969 C 193 196.993, 192.749 198.002, 191.250 198.015 C 189.961 198.027, 189.839 198.245, 190.786 198.846 C 192.598 199.996, 185.475 202, 179.575 202 C 176.701 202, 175.122 202.388, 175.500 203 C 175.893 203.636, 173.277 203.974, 168.309 203.930 C 163.301 203.885, 161.217 203.570, 162.500 203.053 C 164.100 202.407, 163.600 202.112, 160 201.576 C 154.225 200.716, 115.741 199.105, 114.750 199.682 C 114.338 199.922, 114 199.416, 114 198.559 C 114 197.682, 113.150 197, 112.059 197 C 110.991 197, 109.835 196.543, 109.490 195.984 C 109.144 195.425, 108.443 195.226, 107.931 195.543 C 107.403 195.869, 107 193.927, 107 191.059 L 107 186 103.500 186 L 100 186 100 193.059 C 100 197.148, 100.391 199.877, 100.929 199.544 C 101.439 199.229, 102.002 199.990, 102.179 201.235 C 102.489 203.425, 102.928 203.516, 115.500 204 C 123.676 204.314, 128.314 204.871, 128 205.500 C 127.167 207.167, 137.058 207.859, 166.379 208.186 L 194.258 208.497 195.751 206.249 C 196.572 205.012, 197.803 204, 198.486 204 C 200.542 204, 201.790 190.202, 200.375 183.125 C 200.031 181.406, 199.131 180, 198.375 180 C 197.463 180, 197 178.789, 197 176.406 C 197 173.654, 196.532 172.690, 195 172.290 C 193.893 172, 193 170.926, 193 169.883 C 193 168.848, 192.377 168, 191.617 168 C 190.856 168, 189.998 167.100, 189.710 166 C 189.423 164.900, 188.470 164, 187.594 164 C 186.717 164, 186 163.325, 186 162.500 C 186 161.675, 185.377 161, 184.617 161 C 183.856 161, 182.998 160.100, 182.710 159 C 182.423 157.900, 181.470 157, 180.594 157 C 179.717 157, 179 156.325, 179 155.500 C 179 154.667, 178.111 154, 177 154 C 175.900 154, 175 153.373, 175 152.607 C 175 151.078, 172.899 150, 169.918 150 C 168.863 150, 168 149.345, 168 148.545 C 168 147.675, 166.595 146.827, 164.500 146.434 C 162.495 146.058, 161 145.184, 161 144.389 C 161 143.183, 158.252 142.508, 156.365 143.250 C 156.015 143.387, 155.355 142.488, 154.897 141.250 C 154.439 140.012, 153.375 139, 152.532 139 C 151.690 139, 151 138.374, 151 137.608 C 151 136.843, 149.875 135.934, 148.500 135.589 C 147.084 135.234, 145.970 134.211, 145.930 133.231 C 145.870 131.773, 145.724 131.815, 145 133.500 C 144.265 135.210, 144.130 135.246, 144.070 133.750 C 144.028 132.690, 143.211 132, 142 132 C 140.667 132, 140 131.333, 140 130 C 140 128.667, 139.333 128, 138 128 C 136.900 128, 136 127.377, 136 126.617 C 136 125.856, 135.100 124.998, 134 124.710 C 132.900 124.423, 132 123.470, 132 122.594 C 132 121.717, 131.325 121, 130.500 121 C 129.675 121, 129 120.325, 129 119.500 C 129 118.675, 128.410 118, 127.689 118 C 125.823 118, 122 114.214, 122 112.367 C 122 111.512, 122.900 110.577, 124 110.290 C 125.100 110.002, 126 109.144, 126 108.383 C 126 107.186, 128.687 106.444, 131.336 106.910 C 131.796 106.991, 132.411 106.144, 132.703 105.029 C 133.184 103.190, 134.040 102.999, 141.867 102.985 C 147.413 102.975, 149.988 102.646, 149.069 102.064 C 148.007 101.392, 148.562 100.985, 151.219 100.487 C 155.614 99.662, 158.584 100.221, 158.250 101.809 C 158.077 102.633, 159.985 103, 164.435 103 C 173.226 103, 176 104.165, 176 107.859 C 176 109.939, 176.577 110.918, 178.029 111.297 C 179.144 111.589, 179.991 112.204, 179.910 112.664 C 179.829 113.124, 179.823 114.400, 179.897 115.500 C 180.008 117.156, 180.193 117.243, 180.976 116.005 C 181.786 114.723, 182.129 114.794, 183.379 116.503 C 184.181 117.600, 185.043 118.273, 185.295 117.998 C 185.547 117.724, 185.958 113.820, 186.207 109.322 C 186.706 100.324, 186.511 100.047, 179.656 100.014 C 177.661 100.004, 176.657 99.404, 176.290 98 C 175.856 96.340, 174.893 95.988, 170.633 95.930 C 167.390 95.885, 166.183 95.591, 167.355 95.130 C 168.898 94.523, 168.645 94.236, 165.855 93.424 C 164.010 92.888, 161.488 92.604, 160.250 92.794 M 184.079 108.583 C 184.127 109.748, 184.364 109.985, 184.683 109.188 C 184.972 108.466, 184.936 107.603, 184.604 107.271 C 184.272 106.939, 184.036 107.529, 184.079 108.583 M 178.750 203.706 C 179.988 203.944, 182.012 203.944, 183.250 203.706 C 184.488 203.467, 183.475 203.272, 181 203.272 C 178.525 203.272, 177.512 203.467, 178.750 203.706" stroke="none" fill="black" fill-rule="evenodd"/>
</svg>