<svg xmlns="http://www.w3.org/2000/svg" width="300" height="300" viewBox="0 0 300 300" version="1.1">
	<path d="M 147.250 117.706 C 146.012 117.944, 145 118.783, 145 119.570 C 145 120.538, 143.869 121, 141.500 121 C 139.056 121, 138 120.548, 138 119.500 C 138 118.452, 136.944 118, 134.500 118 L 131 118 131 123 C 131 126.778, 131.367 128, 132.500 128 C 133.652 128, 134 129.278, 134 133.500 L 134 139 137.383 139 C 139.926 139, 140.897 139.497, 141.290 141 C 141.726 142.670, 142.654 143, 146.906 143 C 150.767 143, 152 143.363, 152 144.500 C 152 145.333, 152.889 146, 154 146 C 155.333 146, 156 146.667, 156 148 C 156 149.100, 156.655 150, 157.455 150 C 158.325 150, 159.173 151.405, 159.566 153.500 C 159.942 155.505, 160.816 157, 161.611 157 C 162.628 157, 163 158.474, 163 162.500 C 163 166.722, 162.652 168, 161.500 168 C 160.667 168, 160 168.889, 160 170 C 160 171.333, 159.333 172, 158 172 C 156.900 172, 156 172.623, 156 173.383 C 156 174.144, 155.100 175.002, 154 175.290 C 152.554 175.668, 152 176.654, 152 178.847 C 152 182.728, 153.122 183.359, 158.571 182.542 C 162.822 181.904, 163 181.739, 163 178.439 C 163 175.667, 163.388 175, 165 175 C 166.333 175, 167 174.333, 167 173 C 167 171.889, 167.667 171, 168.500 171 C 169.514 171, 170.018 169.947, 170.056 167.750 C 170.357 150.196, 170.340 150, 168.500 150 C 167.450 150, 167 148.941, 167 146.469 C 167 144.353, 166.435 142.720, 165.590 142.396 C 162.590 141.245, 162.606 132, 165.608 132 C 166.629 132, 167 130.532, 167 126.500 C 167 122.484, 166.627 121, 165.617 121 C 164.856 121, 163.998 120.100, 163.710 119 C 163.247 117.228, 162.408 117.016, 156.344 117.136 C 152.580 117.211, 148.488 117.467, 147.250 117.706" stroke="none" fill="black" fill-rule="evenodd"/>
</svg>