<svg xmlns="http://www.w3.org/2000/svg" width="300" height="300" viewBox="0 0 300 300" version="1.1">
	<path d="M 147.070 107.250 C 147.017 108.579, 146.135 109, 143.406 109 C 140.654 109, 139.690 109.468, 139.290 111 C 138.897 112.503, 137.926 113, 135.383 113 C 133.043 113, 132 113.462, 132 114.500 C 132 115.341, 131.108 116, 129.968 116 C 128.850 116, 127.613 116.873, 127.218 117.940 C 126.524 119.815, 126.230 120, 123.941 120 C 123.359 120, 123.107 120.364, 123.382 120.809 C 123.657 121.255, 122.520 122.717, 120.855 124.059 C 119.190 125.402, 117.417 127.540, 116.916 128.810 C 116.414 130.081, 115.553 130.842, 115.002 130.501 C 114.451 130.161, 114 130.626, 114 131.535 C 114 132.444, 113.100 133.423, 112 133.710 C 110.893 134, 110 135.074, 110 136.117 C 110 137.152, 109.345 138, 108.545 138 C 106.500 138, 105.848 142.727, 106.199 155 C 106.421 162.742, 106.828 165.434, 107.750 165.250 C 108.457 165.109, 109 165.989, 109 167.278 C 109 168.531, 109.900 170.326, 111 171.268 C 112.100 172.210, 113 173.885, 113 174.990 C 113 176.096, 113.623 177, 114.383 177 C 115.144 177, 116.002 177.900, 116.290 179 C 116.577 180.100, 117.530 181, 118.406 181 C 119.333 181, 120 181.837, 120 183 C 120 184.333, 120.667 185, 122 185 C 123.100 185, 123.888 185.563, 123.750 186.250 C 123.599 187.005, 124.830 187.627, 126.862 187.822 C 129.177 188.043, 130.382 188.745, 130.729 190.072 C 131.102 191.497, 132.116 192, 134.617 192 C 136.893 192, 138 192.471, 138 193.439 C 138 195.593, 144.319 196.189, 163.288 195.823 C 174.838 195.601, 180.305 195.130, 180.807 194.315 C 181.599 193.030, 185.212 192.252, 191.500 192.012 C 194.466 191.899, 194.997 191.663, 193.554 191.098 C 191.712 190.377, 191.728 190.304, 193.868 189.745 C 195.798 189.240, 196.084 188.592, 195.815 185.327 C 195.516 181.693, 195.311 181.484, 191.750 181.190 C 188.605 180.929, 188 181.190, 188 182.810 C 188 184.363, 187.098 184.842, 183.376 185.261 C 180.833 185.548, 178.441 186.287, 178.059 186.904 C 177.594 187.657, 172.112 188.033, 161.433 188.047 C 142.412 188.071, 142 188.035, 142 186.333 C 142 185.590, 140.930 185, 139.582 185 C 136.130 185, 134 184.005, 134 182.393 C 134 181.627, 133.311 181, 132.469 181 C 131.626 181, 130.678 180.325, 130.362 179.500 C 130.045 178.675, 129.159 178, 128.393 178 C 127.627 178, 127 177.550, 127 177 C 127 176.450, 126.325 176, 125.500 176 C 124.675 176, 124.049 175.662, 124.108 175.250 C 124.379 173.369, 122.631 170, 121.383 170 C 120.623 170, 120 169.100, 120 168 C 120 166.900, 119.353 166, 118.561 166 C 116.472 166, 115.638 158.654, 116.469 147.570 C 117.074 139.502, 117.441 138.118, 119.086 137.688 C 120.139 137.412, 121 136.470, 121 135.594 C 121 134.717, 121.623 134, 122.383 134 C 123.144 134, 124.014 133.055, 124.316 131.899 C 124.619 130.743, 125.345 130.095, 125.933 130.458 C 126.557 130.844, 127 130.264, 127 129.059 C 127 127.709, 127.649 127, 128.883 127 C 129.956 127, 131.003 126.096, 131.316 124.899 C 131.641 123.658, 132.330 123.086, 133 123.500 C 133.670 123.914, 134.359 123.342, 134.684 122.101 C 135.080 120.587, 136.029 120, 138.081 120 C 139.906 120, 141.314 119.281, 142 118 C 142.754 116.591, 144.094 116, 146.535 116 C 148.862 116, 150 115.533, 150 114.580 C 150 113.446, 151.966 113.172, 159.750 113.221 C 168.637 113.276, 177.890 114.536, 172.500 114.957 C 171.125 115.064, 171.592 115.486, 173.992 116.306 C 177.202 117.404, 177.551 117.923, 178.320 122.761 C 178.780 125.654, 179.543 127.782, 180.016 127.490 C 180.490 127.197, 181.017 128.655, 181.188 130.729 C 181.433 133.690, 181.956 134.565, 183.625 134.803 C 187.466 135.351, 189 132.524, 189 124.897 C 189 119.633, 188.635 117.797, 187.500 117.362 C 186.675 117.045, 186 116.117, 186 115.299 C 186 114.482, 185.100 113.577, 184 113.290 C 182.893 113, 182 111.926, 182 110.883 C 182 109.386, 181.231 108.986, 178.250 108.930 C 175.451 108.877, 174.994 108.666, 176.446 108.098 C 178.249 107.392, 178.212 107.288, 175.946 106.682 C 174.601 106.322, 167.988 106.021, 161.250 106.014 C 150.271 106.001, 148.993 106.182, 148.930 107.750 C 148.870 109.246, 148.735 109.210, 148 107.500 C 147.265 105.790, 147.130 105.754, 147.070 107.250 M 114.079 153.583 C 114.127 154.748, 114.364 154.985, 114.683 154.188 C 114.972 153.466, 114.936 152.603, 114.604 152.271 C 114.272 151.939, 114.036 152.529, 114.079 153.583" stroke="none" fill="black" fill-rule="evenodd"/>
</svg>