<svg xmlns="http://www.w3.org/2000/svg" width="300" height="300" viewBox="0 0 300 300" version="1.1">
	<path d="M 143 26 C 143 27.111, 142.333 28, 141.500 28 C 140.370 28, 140 29.213, 140 32.917 C 140 35.680, 140.494 37.998, 141.129 38.210 C 141.864 38.455, 142.436 43.547, 142.769 52.793 C 143.167 63.855, 143.581 67, 144.640 67 C 145.657 67, 146 68.764, 146 74 C 146 80.550, 145.855 81.009, 143.750 81.145 C 139.413 81.425, 132.318 81.561, 110.750 81.780 C 92.181 81.968, 89 82.219, 89 83.500 C 89 84.333, 88.111 85, 87 85 C 85.667 85, 85 85.667, 85 87 C 85 88.333, 85.667 89, 87 89 C 88.111 89, 89 89.667, 89 90.500 C 89 91.333, 89.889 92, 91 92 C 92.111 92, 93 91.333, 93 90.500 C 93 89.204, 96.677 89, 120.092 89 L 147.184 89 146.928 93.750 C 146.534 101.061, 146.863 103, 148.500 103 C 149.764 103, 150 105.278, 150 117.500 C 150 129.722, 150.236 132, 151.500 132 C 152.646 132, 153 133.260, 153 137.344 C 153 140.284, 153.293 147.477, 153.651 153.330 L 154.302 163.971 123.414 164.235 C 88.963 164.531, 91.035 164.043, 92.439 171.527 C 92.940 174.197, 93.655 174.985, 96.053 175.512 C 100.270 176.438, 107 175.147, 107 173.412 C 107 172.234, 111.120 172, 131.887 172 L 156.773 172 157.164 182.553 C 157.440 190.021, 157.951 193.352, 158.912 193.946 C 159.959 194.593, 160.386 199.617, 160.777 215.892 C 161.182 232.760, 161.556 237, 162.642 237 C 163.657 237, 164 238.769, 164 244 C 164 249.556, 163.690 251, 162.500 251 C 161.452 251, 161 252.056, 161 254.500 C 161 256.944, 161.452 258, 162.500 258 C 163.621 258, 164.003 259.201, 164.014 262.750 C 164.035 270.282, 164.797 272, 168.117 272 C 170.088 272, 171 271.496, 171 270.406 C 171 269.530, 171.900 268.577, 173 268.290 C 174.656 267.857, 175 266.926, 175 262.883 C 175 259.209, 174.629 258, 173.500 258 C 172.226 258, 172 255.458, 172 241.125 C 172 222.690, 171.468 218, 169.375 218 C 168.251 218, 168 214.076, 168 196.500 C 168 178.056, 167.787 175, 166.500 175 C 163.413 175, 165.050 172.081, 168.500 171.434 C 170.505 171.058, 172 170.184, 172 169.389 C 172 168.262, 175.014 168, 188 168 L 204 168 204 171.500 C 204 173.944, 204.452 175, 205.500 175 C 206.325 175, 207 174.325, 207 173.500 C 207 172.644, 207.899 172, 209.094 172 C 210.346 172, 211.397 171.197, 211.710 170 C 211.998 168.900, 212.856 168, 213.617 168 C 214.530 168, 215 166.816, 215 164.517 L 215 161.034 189.750 160.767 L 164.500 160.500 164.198 155.250 C 163.988 151.604, 163.475 150, 162.518 150 C 161.421 150, 161.076 146.837, 160.820 134.462 C 160.566 122.107, 160.198 118.737, 159.027 118.015 C 157.925 117.335, 157.456 114.452, 157.164 106.553 C 156.862 98.411, 156.456 96, 155.387 96 C 154.469 96, 154 94.817, 154 92.500 C 154 90.109, 154.459 89, 155.450 89 C 156.248 89, 157.341 88.212, 157.878 87.250 C 158.731 85.723, 160.841 85.459, 174.428 85.180 C 187.113 84.919, 190 84.594, 190 83.430 C 190 81.533, 192.905 81.589, 193.638 83.500 C 194.073 84.633, 195.902 85, 201.107 85 L 208 85 208 81.500 C 208 78.167, 207.833 78, 204.500 78 C 202.056 78, 201 77.548, 201 76.500 C 201 75.417, 199.889 75, 197 75 C 194.111 75, 193 75.417, 193 76.500 C 193 77.764, 190.722 78, 178.500 78 C 166.278 78, 164 78.236, 164 79.500 C 164 80.633, 162.778 81, 159 81 L 154 81 153.991 72.250 C 153.987 67.438, 153.696 61.113, 153.345 58.195 C 152.763 53.342, 152.892 52.841, 154.854 52.328 C 156.679 51.851, 157 51.036, 157 46.883 C 157 43.209, 156.629 42, 155.500 42 C 154.445 42, 154 40.934, 154 38.406 C 154 35.654, 153.532 34.690, 152 34.290 C 150.497 33.897, 150 32.926, 150 30.383 C 150 27.667, 149.606 27, 148 27 C 146.889 27, 146 26.333, 146 25.500 C 146 24.675, 145.325 24, 144.500 24 C 143.667 24, 143 24.889, 143 26" stroke="none" fill="black" fill-rule="evenodd"/>
</svg>