<svg xmlns="http://www.w3.org/2000/svg" width="300" height="300" viewBox="0 0 300 300" version="1.1">
	<path d="M 196 53.431 C 196 54.600, 193.060 54.921, 179.962 55.181 C 167.028 55.438, 163.744 55.790, 162.999 57 C 162.303 58.131, 159.608 58.585, 152.038 58.844 C 144.242 59.111, 142 59.502, 142 60.594 C 142 61.367, 141.100 62, 140 62 C 138.667 62, 138 62.667, 138 64 C 138 65.893, 137.333 66, 125.500 66 C 115.348 66, 113 66.268, 113 67.425 C 113 68.500, 110.793 69.022, 104 69.554 C 97.385 70.071, 95 70.621, 95 71.629 C 95 72.506, 93.830 73.005, 91.750 73.014 C 85.762 73.039, 84 73.971, 84 77.117 L 84 80 91.500 80 C 97.500 80, 99 79.700, 99 78.500 C 99 77.229, 101.444 77, 115 77 C 127.909 77, 131 76.734, 131 75.625 C 131 73.577, 135.646 73, 152.125 73 C 164.681 73, 167 72.766, 167 71.500 C 167 70.270, 168.753 69.999, 176.750 69.994 C 192.410 69.984, 203 68.918, 203 67.352 C 203 66.474, 204.226 66, 206.500 66 C 208.944 66, 210 66.452, 210 67.500 C 210 68.325, 209.283 69, 208.406 69 C 207.530 69, 206.577 69.900, 206.290 71 C 206.002 72.100, 205.257 73.008, 204.633 73.017 C 203.198 73.039, 199 77.416, 199 78.891 C 199 79.501, 197.425 80, 195.500 80 C 192.667 80, 192 80.381, 192 82 C 192 83.619, 192.667 84, 195.500 84 C 197.848 84, 199 83.535, 199 82.588 C 199 81.720, 200.541 80.915, 203 80.500 C 205.328 80.107, 207 79.267, 207 78.492 C 207 77.759, 208.350 76.862, 210 76.500 C 211.650 76.138, 213 75.202, 213 74.421 C 213 73.639, 213.848 73, 214.884 73 C 216.498 73, 216.828 72.045, 217.193 66.314 C 217.444 62.375, 218.108 59.464, 218.809 59.230 C 220.539 58.654, 220.272 55, 218.500 55 C 217.675 55, 217 54.325, 217 53.500 C 217 52.262, 215.167 52, 206.500 52 C 198.058 52, 196 52.280, 196 53.431 M 162.250 87.706 C 160.438 88.055, 160 88.807, 160 91.570 C 160 93.952, 160.458 95, 161.500 95 C 162.325 95, 163 95.653, 163 96.450 C 163 97.248, 163.723 98.305, 164.606 98.799 C 165.572 99.340, 166.420 101.551, 166.736 104.349 C 167.076 107.365, 167.742 109, 168.630 109 C 169.719 109, 170.041 112.026, 170.202 123.750 C 170.313 131.863, 170.321 140.007, 170.220 141.848 C 170.079 144.434, 170.488 145.315, 172.018 145.715 C 173.953 146.221, 174 147.201, 174 187.117 C 174 222.791, 174.191 228, 175.500 228 C 176.548 228, 177 229.056, 177 231.500 C 177 233.944, 176.548 235, 175.500 235 C 174.675 235, 174 235.675, 174 236.500 C 174 238.448, 171.386 238.448, 170.638 236.500 C 170.232 235.442, 168.581 235, 165.031 235 C 161.361 235, 160 234.617, 160 233.585 C 160 232.554, 157.968 231.980, 152.500 231.468 C 147.122 230.964, 145 230.374, 145 229.383 C 145 228.390, 143.589 228, 140 228 C 136.424 228, 135 227.608, 135 226.625 C 135 225.254, 130.880 224, 126.375 224 C 124.931 224, 124 223.412, 124 222.500 C 124 221.348, 122.722 221, 118.500 221 C 114.484 221, 113 220.627, 113 219.617 C 113 217.858, 109.902 217.031, 103.250 217.014 C 99.491 217.004, 98 216.613, 98 215.637 C 98 214.678, 96.053 214.118, 91.437 213.747 C 83.883 213.141, 81 213.657, 81 215.617 C 81 216.663, 82.707 217, 88 217 C 94.333 217, 95 217.190, 95 219 C 95 220.619, 95.667 221, 98.500 221 C 100.944 221, 102 221.452, 102 222.500 C 102 223.412, 102.931 224, 104.375 224 C 108.880 224, 113 225.254, 113 226.625 C 113 227.608, 114.424 228, 118 228 C 121.576 228, 123 228.392, 123 229.375 C 123 230.746, 127.120 232, 131.625 232 C 132.985 232, 134 232.594, 134 233.389 C 134 234.202, 135.554 235.069, 137.748 235.480 C 139.809 235.867, 141.786 236.654, 142.141 237.228 C 142.496 237.803, 145.085 238.494, 147.893 238.764 C 151.317 239.093, 153 239.707, 153 240.627 C 153 241.615, 154.470 242.002, 158.250 242.009 C 161.137 242.013, 165.863 242.301, 168.750 242.648 C 173.917 243.269, 174 243.332, 174 246.639 C 174 249.333, 174.397 250, 176 250 C 177.333 250, 178 249.333, 178 248 C 178 246.267, 178.667 246, 183 246 L 188 246 188 240.500 C 188 236.373, 187.640 235, 186.556 235 C 185.353 235, 185.061 231.491, 184.806 213.962 C 184.553 196.571, 184.240 192.764, 183 191.999 C 181.726 191.214, 181.449 186.016, 181.159 157.537 C 180.874 129.521, 180.585 124, 179.409 124 C 178.282 124, 178 121.794, 178 113 C 178 102.667, 177.879 102, 176 102 C 174.242 102, 174 101.333, 174 96.500 C 174 92.484, 173.627 91, 172.617 91 C 171.856 91, 170.998 90.100, 170.710 89 C 170.185 86.990, 167.833 86.630, 162.250 87.706 M 177 89.500 C 177 90.333, 177.889 91, 179 91 C 180.111 91, 181 90.333, 181 89.500 C 181 88.667, 180.111 88, 179 88 C 177.889 88, 177 88.667, 177 89.500 M 95 110.383 C 95 111.144, 94.052 112.015, 92.893 112.318 C 90.977 112.819, 90.809 113.487, 91.036 119.684 C 91.419 130.108, 91.258 131, 89 131 C 87.889 131, 87 131.667, 87 132.500 C 87 133.325, 86.325 134, 85.500 134 C 84.417 134, 84 135.111, 84 138 C 84 140.739, 84.436 142, 85.383 142 C 86.899 142, 87.965 144.968, 87.986 149.250 C 87.995 151.022, 88.534 152, 89.500 152 C 90.538 152, 91 153.043, 91 155.383 C 91 157.926, 91.497 158.897, 93 159.290 C 94.100 159.577, 95 160.530, 95 161.406 C 95 162.283, 95.689 163, 96.531 163 C 97.374 163, 98.317 163.663, 98.628 164.473 C 98.939 165.283, 100.725 166.233, 102.597 166.584 C 105.673 167.161, 106 167.549, 106 170.611 C 106 173.333, 105.607 174, 104 174 C 102.900 174, 102 174.623, 102 175.383 C 102 176.144, 101.100 177.002, 100 177.290 C 98.468 177.690, 98 178.654, 98 181.406 C 98 184.837, 98.157 185, 101.450 185 C 103.579 185, 105.245 184.385, 105.799 183.394 C 106.339 182.430, 108.547 181.580, 111.328 181.267 C 115.651 180.779, 115.999 180.522, 116.590 177.372 C 117.135 174.467, 117.622 174, 120.111 174 C 122.088 174, 123 173.497, 123 172.406 C 123 171.530, 123.900 170.577, 125 170.290 C 126.100 170.002, 127 169.144, 127 168.383 C 127 167.623, 127.900 167, 129 167 C 130.333 167, 131 166.333, 131 165 C 131 163.889, 131.667 163, 132.500 163 C 133.325 163, 134 162.283, 134 161.406 C 134 160.530, 134.900 159.577, 136 159.290 C 137.100 159.002, 138 158.144, 138 157.383 C 138 156.623, 138.900 156, 140 156 C 141.100 156, 142 155.345, 142 154.545 C 142 153.675, 143.405 152.827, 145.500 152.434 C 147.505 152.058, 149 151.184, 149 150.389 C 149 149.625, 149.900 149, 151 149 C 152.333 149, 153 148.333, 153 147 C 153 145.444, 153.667 145, 156 145 C 158.388 145, 159 144.569, 159 142.883 C 159 141.176, 158.565 140.883, 156.750 141.370 C 155.512 141.701, 153.262 141.979, 151.750 141.986 C 149.978 141.995, 149 142.534, 149 143.500 C 149 144.555, 147.934 145, 145.406 145 C 142.654 145, 141.690 145.468, 141.290 147 C 141.002 148.100, 140.144 149, 139.383 149 C 138.289 149, 138 146.699, 138 138 C 138 128.889, 137.742 127, 136.500 127 C 135.675 127, 135 126.384, 135 125.631 C 135 123.713, 129.674 123.024, 114.750 123.011 C 104.088 123.002, 102 122.754, 102 121.500 C 102 120.675, 102.675 120, 103.500 120 C 104.544 120, 105 118.949, 105 116.545 C 105 113.389, 104.698 113.034, 101.500 112.434 C 99.495 112.058, 98 111.184, 98 110.389 C 98 109.625, 97.325 109, 96.500 109 C 95.675 109, 95 109.623, 95 110.383 M 116 132.500 C 116 133.466, 115.022 134.005, 113.250 134.014 C 106.950 134.045, 106 134.845, 106 140.117 C 106 143.791, 106.371 145, 107.500 145 C 108.555 145, 109 146.066, 109 148.594 C 109 151.346, 109.468 152.310, 111 152.710 C 112.656 153.143, 113 154.074, 113 158.117 L 113 163 116.500 163 C 119.333 163, 120 162.619, 120 161 C 120 159.900, 120.639 159, 121.421 159 C 122.202 159, 123.138 157.650, 123.500 156 C 123.862 154.350, 124.798 153, 125.579 153 C 126.570 153, 127 151.789, 127 149 C 127 145.667, 127.333 145, 129 145 C 130.731 145, 131 144.333, 131 140.045 C 131 135.175, 130.941 135.080, 127.500 134.434 C 125.495 134.058, 124 133.184, 124 132.389 C 124 131.435, 122.746 131, 120 131 C 117.111 131, 116 131.417, 116 132.500 M 95 145.500 C 95 151.500, 95.300 153, 96.500 153 C 97.325 153, 98 153.675, 98 154.500 C 98 155.333, 98.889 156, 100 156 C 101.758 156, 102 155.333, 102 150.500 C 102 146.354, 101.642 145, 100.545 145 C 99.675 145, 98.827 143.595, 98.434 141.500 C 98.058 139.495, 97.184 138, 96.389 138 C 95.327 138, 95 139.767, 95 145.500" stroke="none" fill="black" fill-rule="evenodd"/>
</svg>