<svg xmlns="http://www.w3.org/2000/svg" width="300" height="300" viewBox="0 0 300 300" version="1.1">
	<path d="M 149 50 C 149 51.111, 148.333 52, 147.500 52 C 146.675 52, 146 52.675, 146 53.500 C 146 54.325, 145.152 55, 144.117 55 C 143.074 55, 142 55.893, 141.710 57 C 141.423 58.100, 140.470 59, 139.594 59 C 138.439 59, 138 59.964, 138 62.500 C 138 65.333, 137.619 66, 136 66 C 134.667 66, 134 66.667, 134 68 C 134 69.111, 133.333 70, 132.500 70 C 131.675 70, 131 70.575, 131 71.278 C 131 71.981, 130.100 73.326, 129 74.268 C 127.900 75.210, 127 76.885, 127 77.990 C 127 79.096, 126.375 80, 125.611 80 C 124.816 80, 123.942 81.495, 123.566 83.500 C 123.173 85.595, 122.325 87, 121.455 87 C 120.655 87, 120 87.900, 120 89 C 120 90.100, 119.375 91, 118.611 91 C 117.816 91, 116.942 92.495, 116.566 94.500 C 116.196 96.473, 115.313 98, 114.543 98 C 113.727 98, 112.903 99.614, 112.500 102 C 112.085 104.459, 111.280 106, 110.412 106 C 109.465 106, 109 107.152, 109 109.500 C 109 111.896, 108.541 113, 107.545 113 C 106.675 113, 105.827 114.405, 105.434 116.500 C 105.058 118.505, 104.184 120, 103.389 120 C 102.468 120, 102 121.180, 102 123.500 C 102 126.833, 102.167 127, 105.500 127 C 108.333 127, 109 126.619, 109 125 C 109 123.900, 109.623 123, 110.383 123 C 111.899 123, 112.965 120.032, 112.986 115.750 C 112.995 113.978, 113.534 113, 114.500 113 C 115.325 113, 116 112.283, 116 111.406 C 116 110.530, 116.900 109.577, 118 109.290 C 119.503 108.897, 120 107.926, 120 105.383 C 120 103.089, 120.468 102, 121.455 102 C 122.325 102, 123.173 100.595, 123.566 98.500 C 123.942 96.495, 124.816 95, 125.611 95 C 126.375 95, 127 94.100, 127 93 C 127 91.667, 127.667 91, 129 91 C 130.619 91, 131 90.333, 131 87.500 C 131 85.187, 131.469 84, 132.383 84 C 133.144 84, 134.002 83.100, 134.290 82 C 134.577 80.900, 135.530 80, 136.406 80 C 137.561 80, 138 79.036, 138 76.500 C 138 73.190, 138.183 73, 141.383 73 C 143.926 73, 144.897 73.497, 145.290 75 C 145.966 77.588, 148.036 77.577, 148.715 74.982 C 149.228 73.021, 149.901 72.971, 172.358 73.232 C 193.936 73.482, 195.497 73.623, 195.829 75.350 C 196.460 78.629, 194.986 84, 193.455 84 C 192.459 84, 192 85.104, 192 87.500 C 192 90.333, 191.619 91, 190 91 C 188.667 91, 188 91.667, 188 93 C 188 94.111, 187.333 95, 186.500 95 C 185.452 95, 185 96.056, 185 98.500 C 185 101.333, 184.619 102, 183 102 C 181.381 102, 181 102.667, 181 105.500 C 181 107.944, 180.548 109, 179.500 109 C 178.675 109, 178 109.717, 178 110.594 C 178 111.470, 177.100 112.423, 176 112.710 C 174.497 113.103, 174 114.074, 174 116.617 C 174 119.333, 173.606 120, 172 120 C 170.889 120, 170 120.667, 170 121.500 C 170 122.325, 169.325 123, 168.500 123 C 167.675 123, 167 123.800, 167 124.778 C 167 125.756, 166.100 127.326, 165 128.268 C 163.900 129.210, 163 130.885, 163 131.990 C 163 133.110, 162.336 134, 161.500 134 C 160.667 134, 160 134.889, 160 136 C 160 137.333, 159.333 138, 158 138 C 156.889 138, 156 138.667, 156 139.500 C 156 140.325, 155.325 141, 154.500 141 C 153.675 141, 153 140.325, 153 139.500 C 153 138.417, 151.889 138, 149 138 C 145.667 138, 145 137.667, 145 136 C 145 134.381, 144.333 134, 141.500 134 C 139.056 134, 138 133.548, 138 132.500 C 138 131.278, 136.333 131, 129 131 L 120 131 120 138.500 C 120 144.500, 119.700 146, 118.500 146 C 117.500 146, 117 147, 117 149 C 117 151, 117.500 152, 118.500 152 C 119.325 152, 120 151.325, 120 150.500 C 120 149.675, 120.625 149, 121.389 149 C 122.175 149, 123.053 147.531, 123.413 145.612 C 124.135 141.765, 125.662 141.174, 133.250 141.806 C 136.465 142.074, 138 142.654, 138 143.601 C 138 144.510, 139.138 145.005, 141.250 145.014 C 147.238 145.039, 149 145.971, 149 149.117 C 149 151.333, 148.538 152, 147 152 C 145.667 152, 145 152.667, 145 154 C 145 155.111, 144.333 156, 143.500 156 C 142.675 156, 142 156.717, 142 157.594 C 142 158.470, 141.100 159.423, 140 159.710 C 138.900 159.998, 138 160.803, 138 161.500 C 138 162.197, 137.100 163.002, 136 163.290 C 134.900 163.577, 134 164.530, 134 165.406 C 134 166.283, 133.325 167, 132.500 167 C 131.667 167, 131 167.889, 131 169 C 131 170.100, 130.361 171, 129.579 171 C 128.798 171, 127.862 172.350, 127.500 174 C 127.122 175.722, 126.196 177, 125.327 177 C 124.494 177, 123.577 177.900, 123.290 179 C 123.002 180.100, 122.144 181, 121.383 181 C 120.623 181, 120 181.900, 120 183 C 120 184.333, 119.333 185, 118 185 C 116.667 185, 116 185.667, 116 187 C 116 188.100, 115.361 189, 114.579 189 C 113.798 189, 112.862 190.350, 112.500 192 C 112.138 193.650, 111.202 195, 110.421 195 C 109.639 195, 109 195.900, 109 197 C 109 198.333, 108.333 199, 107 199 C 105.667 199, 105 199.667, 105 201 C 105 202.111, 104.333 203, 103.500 203 C 102.675 203, 102 203.675, 102 204.500 C 102 205.333, 101.111 206, 100 206 C 98.667 206, 98 206.667, 98 208 C 98 209.111, 97.333 210, 96.500 210 C 95.675 210, 95 210.675, 95 211.500 C 95 212.325, 94.283 213, 93.406 213 C 92.530 213, 91.577 213.900, 91.290 215 C 91.002 216.100, 90.144 217, 89.383 217 C 88.623 217, 88 217.900, 88 219 C 88 220.333, 87.333 221, 86 221 C 84.667 221, 84 221.667, 84 223 C 84 224.111, 83.333 225, 82.500 225 C 81.675 225, 81 225.675, 81 226.500 C 81 227.333, 80.111 228, 79 228 C 77.667 228, 77 228.667, 77 230 C 77 231.333, 76.333 232, 75 232 C 73.889 232, 73 232.667, 73 233.500 C 73 234.325, 72.325 235, 71.500 235 C 70.675 235, 70 235.717, 70 236.594 C 70 237.470, 69.100 238.423, 68 238.710 C 66.900 238.998, 66 239.856, 66 240.617 C 66 241.377, 65.100 242, 64 242 C 62.667 242, 62 242.667, 62 244 C 62 245.111, 61.333 246, 60.500 246 C 59.675 246, 59 246.675, 59 247.500 C 59 248.325, 59.675 249, 60.500 249 C 61.333 249, 62 249.889, 62 251 C 62 252.614, 62.667 253, 65.455 253 C 68.611 253, 68.966 252.698, 69.566 249.500 C 70.041 246.967, 70.745 246, 72.111 246 C 73.150 246, 74 245.325, 74 244.500 C 74 243.675, 74.675 243, 75.500 243 C 76.333 243, 77 242.111, 77 241 C 77 239.889, 77.667 239, 78.500 239 C 79.325 239, 80 238.283, 80 237.406 C 80 236.530, 80.900 235.577, 82 235.290 C 83.100 235.002, 84 234.197, 84 233.500 C 84 232.803, 84.900 231.998, 86 231.710 C 87.100 231.423, 88 230.470, 88 229.594 C 88 228.717, 88.623 228, 89.383 228 C 90.144 228, 91.002 227.100, 91.290 226 C 91.577 224.900, 92.530 224, 93.406 224 C 94.283 224, 95 223.325, 95 222.500 C 95 221.675, 95.675 221, 96.500 221 C 97.333 221, 98 220.111, 98 219 C 98 217.667, 98.667 217, 100 217 C 101.333 217, 102 216.333, 102 215 C 102 213.889, 102.667 213, 103.500 213 C 104.325 213, 105 212.325, 105 211.500 C 105 210.667, 105.889 210, 107 210 C 108.333 210, 109 209.333, 109 208 C 109 206.667, 109.667 206, 111 206 C 112.111 206, 113 205.333, 113 204.500 C 113 203.675, 113.675 203, 114.500 203 C 115.333 203, 116 202.111, 116 201 C 116 199.667, 116.667 199, 118 199 C 119.619 199, 120 198.333, 120 195.500 C 120 192.667, 120.381 192, 122 192 C 123.111 192, 124 191.333, 124 190.500 C 124 189.675, 124.675 189, 125.500 189 C 126.333 189, 127 188.111, 127 187 C 127 185.667, 127.667 185, 129 185 C 130.333 185, 131 184.333, 131 183 C 131 181.900, 131.623 181, 132.383 181 C 133.144 181, 134.002 180.100, 134.290 179 C 134.577 177.900, 135.530 177, 136.406 177 C 137.496 177, 138 176.088, 138 174.117 C 138 172.074, 138.583 171.081, 140 170.710 C 141.100 170.423, 142 169.470, 142 168.594 C 142 167.717, 142.563 166.992, 143.250 166.983 C 144.774 166.962, 149 162.645, 149 161.109 C 149 160.499, 149.900 160, 151 160 C 152.556 160, 153 160.667, 153 163 C 153 165, 153.500 166, 154.500 166 C 155.756 166, 156 168.111, 156 179 C 156 189.889, 156.244 192, 157.500 192 C 158.714 192, 159 193.594, 159 200.349 C 159 214.550, 160.095 224, 161.740 224 C 162.536 224, 163.423 224.900, 163.710 226 C 164.181 227.799, 165.074 228, 172.617 228 C 179.402 228, 181 227.714, 181 226.500 C 181 225.227, 183.500 225, 197.500 225 C 211.500 225, 214 225.227, 214 226.500 C 214 227.548, 215.056 228, 217.500 228 C 220.333 228, 221 228.381, 221 230 C 221 231.111, 221.667 232, 222.500 232 C 223.325 232, 224 232.675, 224 233.500 C 224 234.583, 225.111 235, 228 235 L 232 235 232 229.906 C 232 225.654, 231.670 224.726, 230 224.290 C 228.900 224.002, 228 223.144, 228 222.383 C 228 221.478, 226.831 221, 224.617 221 C 222.074 221, 221.103 220.503, 220.710 219 C 220.224 217.139, 219.346 217, 208.094 217 L 196 217 196 213.500 C 196 210.167, 196.167 210, 199.500 210 C 202.333 210, 203 209.619, 203 208 C 203 206.889, 203.667 206, 204.500 206 C 205.325 206, 206 205.325, 206 204.500 C 206 203.667, 206.889 203, 208 203 C 209.333 203, 210 202.333, 210 201 C 210 199.900, 210.655 199, 211.455 199 C 212.325 199, 213.173 197.595, 213.566 195.500 C 213.942 193.495, 214.816 192, 215.611 192 C 216.375 192, 217 191.325, 217 190.500 C 217 189.675, 217.717 189, 218.594 189 C 219.470 189, 220.423 188.100, 220.710 187 C 220.998 185.900, 221.856 185, 222.617 185 C 223.377 185, 224 184.100, 224 183 C 224 181.667, 224.667 181, 226 181 C 227.619 181, 228 180.333, 228 177.500 C 228 174.667, 228.381 174, 230 174 C 231.619 174, 232 173.333, 232 170.500 C 232 168.056, 232.452 167, 233.500 167 C 234.544 167, 235 165.950, 235 163.550 C 235 161.542, 235.619 159.753, 236.481 159.271 C 237.295 158.815, 238.251 156.993, 238.606 155.221 C 239.120 152.650, 238.922 152, 237.625 152 C 236.731 152, 236 151.325, 236 150.500 C 236 149.675, 235.152 149, 234.117 149 C 233.074 149, 232 148.107, 231.710 147 C 231.201 145.051, 230.346 145, 198.477 145 L 165.767 145 166.370 142.750 C 166.701 141.512, 166.979 139.938, 166.986 139.250 C 166.994 138.563, 167.623 138, 168.383 138 C 169.144 138, 170.002 137.100, 170.290 136 C 170.577 134.900, 171.530 134, 172.406 134 C 173.561 134, 174 133.036, 174 130.500 C 174 127.667, 174.381 127, 176 127 C 177.111 127, 178 126.333, 178 125.500 C 178 124.675, 178.675 124, 179.500 124 C 180.333 124, 181 123.111, 181 122 C 181 120.900, 181.655 120, 182.455 120 C 183.325 120, 184.173 118.595, 184.566 116.500 C 184.942 114.495, 185.816 113, 186.611 113 C 187.375 113, 188 112.283, 188 111.406 C 188 110.530, 188.900 109.577, 190 109.290 C 191.503 108.897, 192 107.926, 192 105.383 C 192 102.667, 192.394 102, 194 102 C 195.333 102, 196 101.333, 196 100 C 196 98.889, 196.667 98, 197.500 98 C 198.548 98, 199 96.944, 199 94.500 C 199 92.104, 199.459 91, 200.455 91 C 201.325 91, 202.173 89.595, 202.566 87.500 C 202.927 85.575, 203.808 84, 204.523 84 C 205.262 84, 206.116 82.270, 206.500 80 C 206.915 77.541, 207.720 76, 208.588 76 C 209.616 76, 210 74.639, 210 71 L 210 66 201 66 C 194.030 66, 192 65.690, 192 64.625 C 192 62.577, 187.354 62, 170.875 62 L 156 62 156 55 L 156 48 152.500 48 C 149.667 48, 149 48.381, 149 50 M 192.250 152.670 C 189.420 152.966, 188 153.597, 188 154.557 C 188 155.351, 187.325 156, 186.500 156 C 185.310 156, 185 157.444, 185 163 C 185 169.333, 184.810 170, 183 170 C 181.900 170, 181 169.377, 181 168.617 C 181 167.856, 180.057 166.987, 178.905 166.686 C 177.136 166.223, 176.918 165.651, 177.500 163 C 178.082 160.349, 177.864 159.777, 176.095 159.314 C 174.943 159.013, 174 158.144, 174 157.383 C 174 156.469, 172.813 156, 170.500 156 C 167.176 156, 167 156.174, 167 159.450 C 167 161.679, 166.389 163.243, 165.273 163.867 C 163.048 165.113, 162.861 172.679, 165.023 174.012 C 166.226 174.755, 166.557 178.545, 166.809 194.462 C 167.066 210.661, 167.365 214, 168.559 214 C 169.352 214, 170 214.675, 170 215.500 C 170 216.583, 171.111 217, 174 217 C 176.834 217, 178 216.576, 178 215.545 C 178 214.675, 179.405 213.827, 181.500 213.434 C 183.505 213.058, 185 212.184, 185 211.389 C 185 210.625, 185.900 210, 187 210 C 188.111 210, 189 209.333, 189 208.500 C 189 207.675, 189.675 207, 190.500 207 C 191.325 207, 192 206.150, 192 205.111 C 192 203.745, 192.967 203.041, 195.500 202.566 C 198.562 201.992, 199 201.540, 199 198.955 C 199 196.667, 199.451 196, 201 196 C 202.333 196, 203 195.333, 203 194 C 203 192.667, 203.667 192, 205 192 C 206.333 192, 207 191.333, 207 190 C 207 188.889, 207.667 188, 208.500 188 C 209.325 188, 210 187.325, 210 186.500 C 210 185.675, 210.625 185, 211.389 185 C 212.184 185, 213.058 183.505, 213.434 181.500 C 213.827 179.405, 214.675 178, 215.545 178 C 216.345 178, 217 177.100, 217 176 C 217 174.667, 217.667 174, 219 174 C 220.619 174, 221 173.333, 221 170.500 C 221 168.056, 221.452 167, 222.500 167 C 223.333 167, 224 166.111, 224 165 C 224 163.667, 224.667 163, 226 163 C 227.619 163, 228 162.333, 228 159.500 C 228 156.667, 227.619 156, 226 156 C 224.889 156, 224 155.333, 224 154.500 C 224 153.324, 222.628 153, 217.651 153 C 214.159 153, 207.971 152.826, 203.901 152.613 C 199.830 152.400, 194.588 152.426, 192.250 152.670" stroke="none" fill="black" fill-rule="evenodd"/>
</svg>