<svg xmlns="http://www.w3.org/2000/svg" width="300" height="300" viewBox="0 0 300 300" version="1.1">
	<path d="M 240 58.500 C 240 59.325, 239.345 60, 238.545 60 C 236.141 60, 235.718 65.884, 236.490 88.549 C 237.080 105.839, 237.491 110, 238.611 110 C 239.762 110, 240 114.623, 240 137 C 240 160.333, 240.204 164, 241.500 164 C 242.781 164, 243.034 167.243, 243.235 186.250 C 243.750 235.056, 243.886 233.006, 240.125 232.986 C 235.959 232.965, 233 231.883, 233 230.383 C 233 229.436, 231.739 229, 229 229 C 226.111 229, 225 228.583, 225 227.500 C 225 226.490, 223.990 226, 221.906 226 C 219.654 226, 218.671 225.456, 218.290 224 C 217.897 222.497, 216.926 222, 214.383 222 C 211.667 222, 211 221.606, 211 220 C 211 218.667, 210.333 218, 209 218 C 207.889 218, 207 217.333, 207 216.500 C 207 215.675, 206.325 215, 205.500 215 C 204.675 215, 204 214.345, 204 213.545 C 204 212.682, 202.614 211.831, 200.592 211.451 C 198.421 211.044, 197.003 210.120, 196.686 208.906 C 196.412 207.858, 195.470 207, 194.594 207 C 193.490 207, 193 206.078, 193 204 C 193 202, 192.500 201, 191.500 201 C 190.667 201, 190 200.111, 190 199 C 190 197.667, 189.333 197, 188 197 C 186.667 197, 186 196.333, 186 195 C 186 193.889, 185.333 193, 184.500 193 C 183.667 193, 183 193.889, 183 195 C 183 196.111, 183.667 197, 184.500 197 C 185.548 197, 186 198.056, 186 200.500 C 186 202.820, 186.468 204, 187.389 204 C 188.184 204, 189.058 205.495, 189.434 207.500 C 189.827 209.595, 190.675 211, 191.545 211 C 192.345 211, 193 211.900, 193 213 C 193 214.333, 193.667 215, 195 215 C 196.333 215, 197 215.667, 197 217 C 197 218.111, 197.667 219, 198.500 219 C 199.325 219, 200 219.675, 200 220.500 C 200 221.333, 200.889 222, 202 222 C 203.100 222, 204 222.655, 204 223.455 C 204 224.318, 205.386 225.169, 207.408 225.549 C 209.579 225.956, 210.997 226.880, 211.314 228.094 C 211.588 229.142, 212.530 230, 213.406 230 C 214.283 230, 215 230.675, 215 231.500 C 215 232.548, 216.056 233, 218.500 233 C 220.944 233, 222 233.452, 222 234.500 C 222 235.325, 222.717 236, 223.594 236 C 224.470 236, 225.423 236.900, 225.710 238 C 226.103 239.503, 227.074 240, 229.617 240 C 231.831 240, 233 240.478, 233 241.383 C 233 242.911, 235.974 243.965, 240.344 243.986 C 242.353 243.996, 243.341 243.413, 243.710 242 C 244.103 240.497, 245.074 240, 247.617 240 L 251 240 251 227.500 C 251 217.056, 251.247 215, 252.500 215 C 253.548 215, 254 213.944, 254 211.500 C 254 209.137, 253.537 208, 252.575 208 C 251.373 208, 251.099 202.132, 250.825 170.463 C 250.548 138.415, 250.281 132.790, 249 132 C 247.720 131.210, 247.452 125.640, 247.174 94.037 L 246.848 57 243.424 57 C 241.047 57, 240 57.459, 240 58.500 M 124.150 68.696 C 123.451 69.945, 121.462 70.503, 116.600 70.813 C 111.850 71.115, 110 71.621, 110 72.616 C 110 73.677, 108.164 74, 102.125 74 C 92.432 74, 88 74.824, 88 76.625 C 88 77.739, 84.682 78, 70.500 78 C 55.154 78, 53 78.196, 53 79.594 C 53 80.470, 52.067 81.431, 50.926 81.730 C 49.257 82.166, 48.979 82.782, 49.505 84.876 C 50.338 88.194, 51.605 88.966, 56.250 88.985 C 58.784 88.995, 60 88.551, 60 87.617 C 60 85.456, 63.331 85.028, 80.250 85.014 C 93.577 85.002, 96 84.769, 96 83.500 C 96 82.348, 97.278 82, 101.500 82 C 105.243 82, 106.994 82.399, 106.983 83.250 C 106.962 84.717, 102.670 89, 101.220 89 C 100.672 89, 99.927 90.575, 99.566 92.500 C 99.173 94.595, 98.325 96, 97.455 96 C 96.655 96, 96 96.900, 96 98 C 96 99.100, 95.345 100, 94.545 100 C 93.675 100, 92.827 101.405, 92.434 103.500 C 92.073 105.425, 91.205 107, 90.505 107 C 89.806 107, 88.998 107.900, 88.710 109 C 88.423 110.100, 87.470 111, 86.594 111 C 85.490 111, 85 111.922, 85 114 C 85 116, 84.500 117, 83.500 117 C 82.644 117, 82 117.899, 82 119.094 C 82 120.346, 81.197 121.397, 80 121.710 C 78.583 122.081, 78 123.074, 78 125.117 C 78 127.013, 77.487 128, 76.500 128 C 75.667 128, 75 128.889, 75 130 C 75 131.333, 74.333 132, 73 132 C 71.190 132, 71 132.667, 71 139 L 71 146 76.500 146 C 80.722 146, 82 145.652, 82 144.500 C 82 143.229, 84.444 143, 98 143 C 113.333 143, 114 142.917, 114 141 C 114 139.190, 114.667 139, 121 139 C 126.556 139, 128 138.690, 128 137.500 C 128 136.477, 129.034 135.996, 131.250 135.986 C 133.037 135.979, 135.512 135.701, 136.750 135.370 C 138.552 134.887, 139 135.178, 139 136.834 C 139 137.970, 139.787 139.342, 140.750 139.882 C 142.241 140.718, 142.522 142.541, 142.651 152.182 C 142.734 158.407, 142.847 164.512, 142.901 165.750 C 142.984 167.636, 143.566 168, 146.500 168 L 150 168 150 148 C 150 131.724, 149.745 128, 148.629 128 C 147.739 128, 147.025 126.246, 146.594 123 C 145.943 118.089, 145.869 118, 142.466 118 C 140.052 118, 139 118.455, 139 119.500 C 139 120.325, 138.325 121, 137.500 121 C 136.675 121, 136 121.717, 136 122.594 C 136 123.470, 135.100 124.423, 134 124.710 C 132.900 124.998, 132 125.856, 132 126.617 C 132 127.598, 130.621 128.004, 127.250 128.014 C 121.077 128.031, 118 128.897, 118 130.617 C 118 131.564, 116.739 132, 114 132 C 111.111 132, 110 132.417, 110 133.500 C 110 134.333, 109.111 135, 108 135 C 106.889 135, 106 134.333, 106 133.500 C 106 132.675, 105.550 132, 105 132 C 104.450 132, 104 132.675, 104 133.500 C 104 134.728, 102.278 135, 94.500 135 L 85 135 85 130 C 85 125.667, 85.267 125, 87 125 C 88.606 125, 89 124.333, 89 121.617 C 89 119.074, 89.497 118.103, 91 117.710 C 92.100 117.423, 93 116.470, 93 115.594 C 93 114.717, 93.675 114, 94.500 114 C 95.333 114, 96 113.111, 96 112 C 96 110.900, 96.639 110, 97.421 110 C 98.202 110, 99.138 108.650, 99.500 107 C 99.862 105.350, 100.798 104, 101.579 104 C 102.361 104, 103 103.100, 103 102 C 103 100.667, 103.667 100, 105 100 C 106.333 100, 107 99.333, 107 98 C 107 96.900, 107.625 96, 108.389 96 C 109.178 96, 110.055 94.522, 110.420 92.572 C 110.940 89.804, 111.634 89.020, 114.032 88.493 C 115.664 88.134, 117 87.202, 117 86.421 C 117 85.639, 117.900 85, 119 85 C 120.100 85, 121 84.375, 121 83.611 C 121 82.816, 122.495 81.942, 124.500 81.566 C 126.595 81.173, 128 80.325, 128 79.455 C 128 78.424, 129.166 78, 132 78 C 134.889 78, 136 77.583, 136 76.500 C 136 75.675, 136.675 75, 137.500 75 C 138.325 75, 139 74.122, 139 73.050 C 139 71.977, 139.787 70.635, 140.750 70.068 C 143.759 68.294, 140.265 67.032, 132.300 67.015 C 126.558 67.003, 124.907 67.344, 124.150 68.696 M 197 90.450 C 197 91.248, 196.213 92.341, 195.250 92.878 C 193.780 93.700, 193.445 95.658, 193.156 105.123 C 192.858 114.911, 193.040 116.556, 194.548 117.659 C 195.974 118.702, 196.371 121.070, 196.779 130.964 C 197.160 140.215, 197.590 143, 198.637 143 C 199.528 143, 200 144.212, 200 146.500 L 200 150 207.500 150 C 213.219 150, 215 149.671, 215 148.617 C 215 147.856, 215.900 146.998, 217 146.710 C 218.100 146.423, 219 145.470, 219 144.594 C 219 143.717, 219.675 143, 220.500 143 C 221.333 143, 222 142.111, 222 141 C 222 139.381, 221.333 139, 218.500 139 C 216.119 139, 215 139.461, 215 140.441 C 215 142.468, 213.496 143.163, 210.654 142.449 C 208.487 141.905, 208.139 141.123, 207.528 135.419 C 207.040 130.862, 206.429 129, 205.420 129 C 204.244 129, 204 125.817, 204 110.500 C 204 94.722, 203.779 92, 202.500 92 C 201.675 92, 201 91.325, 201 90.500 C 201 89.667, 200.111 89, 199 89 C 197.900 89, 197 89.653, 197 90.450 M 110 148 C 110 149.333, 109.333 150, 108 150 C 106.889 150, 106 150.667, 106 151.500 C 106 152.325, 105.325 153, 104.500 153 C 103.348 153, 103 154.278, 103 158.500 C 103 162.722, 102.652 164, 101.500 164 C 100.667 164, 100 164.889, 100 166 C 100 167.333, 99.333 168, 98 168 C 96.889 168, 96 168.667, 96 169.500 C 96 170.621, 94.799 171.003, 91.250 171.014 C 82.796 171.038, 82 171.563, 82 177.117 L 82 182 92.500 182 L 103 182 103 193 C 103 201.667, 103.292 204, 104.375 204 C 105.746 204, 107 208.120, 107 212.625 C 107 214.069, 107.588 215, 108.500 215 C 109.325 215, 110 215.675, 110 216.500 C 110 217.333, 110.889 218, 112 218 C 113.333 218, 114 218.667, 114 220 C 114 221.111, 114.667 222, 115.500 222 C 116.325 222, 117 221.365, 117 220.588 C 117 219.720, 118.541 218.915, 121 218.500 C 123.459 218.085, 125 217.280, 125 216.412 C 125 215.465, 126.152 215, 128.500 215 C 131.333 215, 132 214.619, 132 213 C 132 211.381, 132.667 211, 135.500 211 C 138.036 211, 139 210.561, 139 209.406 C 139 208.530, 139.900 207.577, 141 207.290 C 142.100 207.002, 143 206.144, 143 205.383 C 143 204.623, 143.623 204, 144.383 204 C 145.144 204, 146.002 203.100, 146.290 202 C 146.577 200.900, 147.530 200, 148.406 200 C 149.283 200, 150 199.325, 150 198.500 C 150 197.667, 150.889 197, 152 197 C 153.333 197, 154 196.333, 154 195 C 154 193.667, 154.667 193, 156 193 C 157.100 193, 158 192.361, 158 191.579 C 158 190.798, 159.350 189.862, 161 189.500 C 162.650 189.138, 164 188.202, 164 187.421 C 164 186.639, 164.900 186, 166 186 C 167.333 186, 168 185.333, 168 184 C 168 182.667, 168.667 182, 170 182 C 171.111 182, 172 181.333, 172 180.500 C 172 179.675, 172.675 179, 173.500 179 C 174.333 179, 175 178.111, 175 177 C 175 175.900, 175.655 175, 176.455 175 C 177.325 175, 178.173 173.595, 178.566 171.500 C 178.942 169.495, 179.816 168, 180.611 168 C 181.375 168, 182 167.100, 182 166 C 182 164.837, 181.333 164, 180.406 164 C 179.530 164, 178.577 164.900, 178.290 166 C 177.926 167.392, 176.926 168, 175 168 C 173.074 168, 172.074 168.608, 171.710 170 C 171.423 171.100, 170.470 172, 169.594 172 C 168.717 172, 168 172.675, 168 173.500 C 168 174.325, 167.377 175, 166.617 175 C 165.856 175, 164.998 175.900, 164.710 177 C 164.423 178.100, 163.470 179, 162.594 179 C 161.717 179, 161 179.675, 161 180.500 C 161 181.333, 160.111 182, 159 182 C 157.667 182, 157 182.667, 157 184 C 157 185.619, 156.333 186, 153.500 186 C 150.667 186, 150 186.381, 150 188 C 150 189.333, 149.333 190, 148 190 C 146.889 190, 146 190.667, 146 191.500 C 146 192.325, 145.325 193, 144.500 193 C 143.675 193, 143 193.655, 143 194.455 C 143 195.325, 141.595 196.173, 139.500 196.566 C 137.369 196.966, 136 197.803, 136 198.705 C 136 199.520, 135.100 200.423, 134 200.710 C 132.900 200.998, 132 201.856, 132 202.617 C 132 203.531, 130.813 204, 128.500 204 C 126.187 204, 125 204.469, 125 205.383 C 125 206.959, 122 207.966, 117.250 207.986 L 114 208 114 202.500 C 114 198.278, 113.652 197, 112.500 197 C 111.258 197, 111 195.111, 111 186 L 111 175 116 175 C 119.778 175, 121 174.633, 121 173.500 C 121 172.477, 122.034 171.996, 124.250 171.986 C 129 171.966, 132 170.959, 132 169.383 C 132 168.474, 133.178 168, 135.439 168 C 138.739 168, 138.904 167.822, 139.542 163.571 C 140.250 158.847, 139.692 157, 137.558 157 C 136.829 157, 135.998 156.100, 135.710 155 C 135.423 153.900, 134.470 153, 133.594 153 C 132.717 153, 132 152.325, 132 151.500 C 132 150.452, 130.944 150, 128.500 150 C 125.667 150, 125 149.619, 125 148 C 125 146.178, 124.333 146, 117.500 146 C 110.667 146, 110 146.178, 110 148 M 114 155.500 C 114 156.325, 113.381 157, 112.625 157 C 111.254 157, 110 161.120, 110 165.625 C 110 167.333, 110.561 168, 112 168 C 113.100 168, 114 167.381, 114 166.625 C 114 165.254, 118.120 164, 122.625 164 C 124.069 164, 125 163.412, 125 162.500 C 125 161.452, 126.056 161, 128.500 161 C 131.333 161, 132 160.619, 132 159 C 132 157.667, 131.333 157, 130 157 C 128.889 157, 128 156.333, 128 155.500 C 128 154.310, 126.556 154, 121 154 C 115.444 154, 114 154.310, 114 155.500" stroke="none" fill="black" fill-rule="evenodd"/>
</svg>