<svg xmlns="http://www.w3.org/2000/svg" width="300" height="300" viewBox="0 0 300 300" version="1.1">
	<path d="M 135.500 41 C 135.085 43.459, 134.280 45, 133.412 45 C 132.635 45, 132 45.675, 132 46.500 C 132 47.325, 132.675 48, 133.500 48 C 134.673 48, 135.001 49.364, 135.006 54.250 C 135.018 66.673, 136.217 77, 137.648 77 C 138.698 77, 139 79.337, 139 87.450 C 139 96.237, 139.270 98.052, 140.696 98.850 C 141.945 99.549, 142.503 101.538, 142.813 106.400 C 143.207 112.587, 143.101 113, 141.116 113 C 139.364 113, 139 113.602, 139 116.500 C 139 119.333, 138.619 120, 137 120 C 135.667 120, 135 120.667, 135 122 C 135 123.111, 134.333 124, 133.500 124 C 132.452 124, 132 125.056, 132 127.500 C 132 129.944, 131.548 131, 130.500 131 C 129.675 131, 129 131.675, 129 132.500 C 129 133.333, 128.111 134, 127 134 C 125.667 134, 125 134.667, 125 136 C 125 137.667, 124.333 138, 121 138 C 118.278 138, 117 138.438, 117 139.371 C 117 140.261, 115.246 140.975, 112 141.406 C 108.576 141.860, 107 142.531, 107 143.534 C 107 144.543, 105.908 145, 103.500 145 C 100.964 145, 100 145.439, 100 146.594 C 100 147.470, 99.100 148.423, 98 148.710 C 96.893 149, 96 150.074, 96 151.117 C 96 152.152, 95.325 153, 94.500 153 C 93.675 153, 93 153.675, 93 154.500 C 93 155.325, 93.675 156, 94.500 156 C 95.333 156, 96 156.889, 96 158 C 96 159.721, 96.662 159.998, 100.750 159.986 C 106.923 159.969, 110 159.103, 110 157.383 C 110 156.478, 111.169 156, 113.383 156 C 115.926 156, 116.897 155.503, 117.290 154 C 117.671 152.544, 118.654 152, 120.906 152 C 122.862 152, 124 151.495, 124 150.628 C 124 149.800, 125.587 149.002, 128 148.616 C 130.588 148.202, 132 147.451, 132 146.488 C 132 145.667, 132.896 145, 134 145 C 135.111 145, 136 144.333, 136 143.500 C 136 142.354, 137.258 142, 141.325 142 L 146.651 142 146.415 149.250 C 146.285 153.238, 146.138 159.537, 146.089 163.250 L 146 170 142.125 170 C 136.228 170, 132 171.096, 132 172.625 C 132 173.728, 129.136 174, 117.500 174 C 105.278 174, 103 174.236, 103 175.500 C 103 176.698, 101.514 177, 95.625 177 C 86.411 177, 82 177.850, 82 179.625 C 82 180.381, 81.100 181, 80 181 C 78.394 181, 78 181.667, 78 184.383 C 78 187.276, 78.399 187.846, 80.750 188.310 C 85.658 189.279, 103 187.830, 103 186.452 C 103 185.581, 105.576 185.099, 111.537 184.853 C 117.267 184.616, 120.345 184.060, 120.900 183.162 C 121.871 181.591, 145.372 180.151, 146.235 181.610 C 147.189 183.222, 145.801 189, 144.459 189 C 143.425 189, 143.076 193.491, 142.822 210.038 C 142.556 227.416, 142.239 231.237, 141 232.001 C 139.907 232.676, 139.404 235.242, 139.147 241.463 C 138.880 247.938, 138.457 250, 137.397 250 C 136.370 250, 136 251.457, 136 255.500 C 136 259.722, 136.348 261, 137.500 261 C 138.325 261, 139 261.675, 139 262.500 C 139 263.333, 139.889 264, 141 264 C 142.333 264, 143 263.333, 143 262 C 143 260.667, 143.667 260, 145 260 C 146.111 260, 147 259.333, 147 258.500 C 147 257.675, 147.675 257, 148.500 257 C 149.333 257, 150 256.111, 150 255 C 150 253.889, 150.667 253, 151.500 253 C 152.548 253, 153 251.944, 153 249.500 C 153 247.056, 152.548 246, 151.500 246 C 150.222 246, 150 243.333, 150 228 C 150 213.534, 150.266 210, 151.353 210 C 152.833 210, 154 200.237, 154 187.849 C 154 182.428, 154.313 181, 155.500 181 C 156.325 181, 157 180.325, 157 179.500 C 157 178.395, 158.153 178, 161.375 178 C 167.741 178, 172 176.948, 172 175.375 C 172 174.266, 175.091 174, 188 174 C 201.556 174, 204 173.771, 204 172.500 C 204 171.337, 205.319 171, 209.875 171 C 213.106 171, 217.156 170.719, 218.875 170.375 C 221.862 169.778, 222 169.535, 222 164.875 L 222 160 218.500 160 C 216.056 160, 215 160.452, 215 161.500 C 215 162.738, 213.172 163, 204.550 163 C 195.926 163, 193.940 163.285, 193.186 164.631 C 192.432 165.979, 189.817 166.351, 178.137 166.771 C 167.133 167.167, 164 167.581, 164 168.640 C 164 169.605, 162.549 170, 159 170 L 154 170 154 154 L 154 138 156.883 138 C 158.926 138, 159.919 137.417, 160.290 136 C 160.764 134.185, 161.654 134, 169.906 134 C 177.323 134, 179 133.723, 179 132.500 C 179 131.675, 179.675 131, 180.500 131 C 181.652 131, 182 132.278, 182 136.500 L 182 142 185.594 142 C 188.346 142, 189.310 141.532, 189.710 140 C 189.998 138.900, 190.856 138, 191.617 138 C 192.531 138, 193 136.813, 193 134.500 C 193 132.180, 192.532 131, 191.611 131 C 190.816 131, 189.942 129.505, 189.566 127.500 L 188.909 124 176.955 124 C 166.995 124, 165 124.250, 165 125.500 C 165 126.647, 163.737 127, 159.629 127 L 154.258 127 153.591 121.101 C 152.680 113.049, 153.864 102, 155.638 102 C 156.609 102, 157 100.538, 157 96.906 C 157 92.654, 157.330 91.726, 159 91.290 C 160.503 90.897, 161 89.926, 161 87.383 C 161 85.163, 161.477 84, 162.389 84 C 163.184 84, 164.058 82.505, 164.434 80.500 C 164.827 78.405, 165.675 77, 166.545 77 C 167.576 77, 168 75.834, 168 73 C 168 70.211, 168.430 69, 169.421 69 C 170.202 69, 171.138 67.650, 171.500 66 C 171.862 64.350, 172.798 63, 173.579 63 C 174.361 63, 175 62.200, 175 61.222 C 175 60.244, 175.900 58.674, 177 57.732 C 179.068 55.961, 179.406 54.117, 178.370 50.250 C 177.921 48.576, 177.028 48, 174.883 48 C 172.987 48, 172 48.513, 172 49.500 C 172 50.333, 171.111 51, 170 51 C 168.667 51, 168 51.667, 168 53 C 168 54.333, 167.333 55, 166 55 C 164.381 55, 164 55.667, 164 58.500 C 164 60.944, 163.548 62, 162.500 62 C 161.477 62, 160.996 63.034, 160.986 65.250 C 160.966 70, 159.959 73, 158.383 73 C 157.469 73, 157 74.187, 157 76.500 C 157 78.803, 156.530 80, 155.625 80 C 154.254 80, 153 84.120, 153 88.625 C 153 90.597, 152.491 91, 150 91 L 147 91 147 84.647 C 147 73.955, 145.873 66, 144.358 66 C 143.277 66, 143 63.046, 143 51.500 L 143 37 139.588 37 C 136.386 37, 136.134 37.247, 135.500 41 M 118 78.594 C 118 79.470, 117.100 80.423, 116 80.710 C 114.344 81.143, 114 82.074, 114 86.117 C 114 89.723, 114.380 91, 115.455 91 C 116.325 91, 117.173 92.405, 117.566 94.500 C 117.942 96.505, 118.816 98, 119.611 98 C 120.523 98, 121 99.163, 121 101.383 C 121 103.926, 121.497 104.897, 123 105.290 C 124.100 105.577, 125 106.530, 125 107.406 C 125 108.283, 125.717 109, 126.594 109 C 127.470 109, 128.423 109.900, 128.710 111 C 129.253 113.076, 132.226 113.582, 136.750 112.370 C 138.397 111.928, 139 111.024, 139 108.995 C 139 106.618, 138.500 106.129, 135.500 105.566 C 133.405 105.173, 132 104.325, 132 103.455 C 132 102.655, 131.371 102, 130.601 102 C 129.604 102, 129.002 99.995, 128.500 95 C 127.998 90.005, 127.396 88, 126.399 88 C 125.460 88, 125 86.818, 125 84.406 C 125 81.654, 124.532 80.690, 123 80.290 C 121.900 80.002, 121 79.144, 121 78.383 C 121 77.623, 120.325 77, 119.500 77 C 118.675 77, 118 77.717, 118 78.594 M 139 129 C 139 131.090, 139.993 131.376, 143.750 130.370 C 147.398 129.392, 146.511 127, 142.500 127 C 139.667 127, 139 127.381, 139 129" stroke="none" fill="black" fill-rule="evenodd"/>
</svg>