<svg xmlns="http://www.w3.org/2000/svg" width="300" height="300" viewBox="0 0 300 300" version="1.1">
	<path d="M 98.500 35 C 98.085 37.459, 97.280 39, 96.412 39 C 95.522 39, 95 40.067, 95 41.883 C 95 43.926, 94.417 44.919, 93 45.290 C 91.900 45.577, 91 46.480, 91 47.295 C 91 48.197, 89.631 49.034, 87.500 49.434 C 84.476 50.001, 84 50.477, 84 52.929 C 84 54.926, 83.407 55.922, 82 56.290 C 80.900 56.577, 80 57.530, 80 58.406 C 80 59.333, 80.837 60, 82 60 C 83.333 60, 84 60.667, 84 62 C 84 63.100, 83.345 64, 82.545 64 C 81.675 64, 80.827 65.405, 80.434 67.500 C 80.058 69.505, 79.184 71, 78.389 71 C 77.468 71, 77 72.180, 77 74.500 C 77 77.333, 76.619 78, 75 78 C 73.381 78, 73 78.667, 73 81.500 C 73 83.820, 72.532 85, 71.611 85 C 70.816 85, 69.942 86.495, 69.566 88.500 C 69.173 90.595, 68.325 92, 67.455 92 C 66.655 92, 66 92.900, 66 94 C 66 95.100, 65.345 96, 64.545 96 C 63.675 96, 62.827 97.405, 62.434 99.500 C 62.058 101.505, 61.184 103, 60.389 103 C 59.625 103, 59 103.900, 59 105 C 59 106.333, 58.333 107, 57 107 C 55.381 107, 55 107.667, 55 110.500 C 55 112.820, 54.532 114, 53.611 114 C 52.816 114, 51.942 115.495, 51.566 117.500 C 51.173 119.595, 50.325 121, 49.455 121 C 48.655 121, 48 121.900, 48 123 C 48 124.100, 47.345 125, 46.545 125 C 45.675 125, 44.827 126.405, 44.434 128.500 C 44.058 130.505, 43.184 132, 42.389 132 C 41.625 132, 41 132.717, 41 133.594 C 41 134.470, 40.100 135.423, 39 135.710 C 37.583 136.081, 37 137.074, 37 139.117 C 37 141.013, 36.487 142, 35.500 142 C 34.644 142, 34 142.899, 34 144.094 C 34 145.346, 33.197 146.397, 32 146.710 C 30.497 147.103, 30 148.074, 30 150.617 C 30 152.957, 29.538 154, 28.500 154 C 27.675 154, 27 154.675, 27 155.500 C 27 156.325, 27.675 157, 28.500 157 C 29.333 157, 30 157.889, 30 159 C 30 160.619, 30.667 161, 33.500 161 C 35.896 161, 37 160.541, 37 159.545 C 37 158.675, 38.405 157.827, 40.500 157.434 C 42.425 157.073, 44.006 156.265, 44.014 155.639 C 44.021 155.012, 44.299 153.488, 44.630 152.250 C 45.117 150.435, 44.824 150, 43.117 150 C 41.364 150, 41 149.398, 41 146.500 C 41 143.667, 41.381 143, 43 143 C 44.333 143, 45 142.333, 45 141 C 45 139.889, 45.667 139, 46.500 139 C 47.325 139, 48 138.377, 48 137.617 C 48 136.856, 48.900 135.998, 50 135.710 C 51.100 135.423, 52 134.470, 52 133.594 C 52 132.717, 52.675 132, 53.500 132 C 54.548 132, 55 130.944, 55 128.500 C 55 125.667, 55.381 125, 57 125 C 58.333 125, 59 124.333, 59 123 C 59 121.889, 59.667 121, 60.500 121 C 61.548 121, 62 119.944, 62 117.500 C 62 114.667, 62.381 114, 64 114 C 65.619 114, 66 113.333, 66 110.500 C 66 107.667, 66.381 107, 68 107 C 69.333 107, 70 106.333, 70 105 C 70 103.889, 70.667 103, 71.500 103 C 72.333 103, 73 103.889, 73 105 C 73 106.111, 73.667 107, 74.500 107 C 75.325 107, 76 107.675, 76 108.500 C 76 109.649, 77.269 110, 81.421 110 C 86.588 110, 86.871 109.865, 87.478 107.102 C 88.157 104.009, 90.124 103.037, 95.750 103.014 C 97.966 103.004, 99 102.523, 99 101.500 C 99 100.379, 100.201 99.997, 103.750 99.986 C 109.923 99.969, 113 99.103, 113 97.383 C 113 96.308, 115.004 96, 122 96 C 128.970 96, 131 95.690, 131 94.625 C 131 93.096, 135.228 92, 141.125 92 L 145 92 145 96.138 L 145 100.275 150.500 99.629 C 155.556 99.035, 156 99.145, 156 100.991 C 156 102.620, 156.662 103, 159.500 103 C 161.976 103, 163 102.552, 163 101.469 C 163 100.626, 163.675 99.678, 164.500 99.362 C 166.163 98.724, 166.612 93, 165 93 C 164.450 93, 164 92.100, 164 91 C 164 89.637, 163.333 89, 161.906 89 C 160.654 89, 159.603 88.197, 159.290 87 C 159.002 85.900, 158.144 85, 157.383 85 C 156.623 85, 156 84.381, 156 83.625 C 156 82.096, 151.772 81, 145.875 81 C 143.097 81, 142 80.575, 142 79.500 C 142 78.462, 140.957 78, 138.617 78 C 136.074 78, 135.103 77.503, 134.710 76 C 134.310 74.468, 133.346 74, 130.594 74 C 128.066 74, 127 73.555, 127 72.500 C 127 71.452, 125.944 71, 123.500 71 C 120.667 71, 120 70.619, 120 69 C 120 67.381, 119.333 67, 116.500 67 C 114.187 67, 113 66.531, 113 65.617 C 113 64.856, 112.100 63.998, 111 63.710 C 109.900 63.423, 109 62.470, 109 61.594 C 109 60.439, 108.036 60, 105.500 60 C 102.667 60, 102 59.619, 102 58 C 102 56.900, 101.374 56, 100.608 56 C 99.105 56, 97.563 51.516, 98.528 49.954 C 98.853 49.429, 99.766 49, 100.559 49 C 101.539 49, 102 47.881, 102 45.500 C 102 42.667, 102.381 42, 104 42 C 105.111 42, 106 41.333, 106 40.500 C 106 39.675, 106.675 39, 107.500 39 C 108.583 39, 109 37.889, 109 35 L 109 31 104.088 31 L 99.176 31 98.500 35 M 253 62 C 253 63.111, 252.333 64, 251.500 64 C 250.348 64, 250 65.278, 250 69.500 C 250 73.537, 250.371 75, 251.394 75 C 252.441 75, 252.880 77.012, 253.155 83.076 C 253.445 89.457, 253.887 91.357, 255.261 92.126 C 256.762 92.966, 257 94.737, 257 105.050 C 257 114.533, 257.284 117, 258.377 117 C 259.492 117, 259.895 121.865, 260.490 142.500 C 261.088 163.224, 261.486 168, 262.613 168 C 263.771 168, 264 174.264, 264 206 C 264 237.687, 263.770 244, 262.617 244 C 260.897 244, 260.031 247.077, 260.014 253.250 L 260 258 253 258 C 246.667 258, 246 257.810, 246 256 C 246 254.667, 245.333 254, 244 254 C 242.889 254, 242 253.333, 242 252.500 C 242 251.452, 240.944 251, 238.500 251 C 235.667 251, 235 250.619, 235 249 C 235 247.667, 234.333 247, 233 247 C 231.900 247, 231 246.361, 231 245.579 C 231 244.798, 229.650 243.862, 228 243.500 C 226.350 243.138, 225 242.202, 225 241.421 C 225 240.639, 224.100 240, 223 240 C 221.381 240, 221 239.333, 221 236.500 C 221 233.667, 220.619 233, 219 233 C 217.889 233, 217 232.333, 217 231.500 C 217 230.675, 216.283 230, 215.406 230 C 214.530 230, 213.577 229.100, 213.290 228 C 213.002 226.900, 212.144 226, 211.383 226 C 210.623 226, 210 225.100, 210 224 C 210 222.667, 209.333 222, 208 222 C 206.643 222, 206 221.333, 206 219.927 C 206 218.490, 205.462 217.957, 204.250 218.190 C 203.287 218.376, 202.537 219.309, 202.583 220.264 C 202.629 221.219, 202.742 223.575, 202.833 225.500 C 202.951 227.966, 203.471 229, 204.594 229 C 205.470 229, 206.423 229.900, 206.710 231 C 206.998 232.100, 207.856 233, 208.617 233 C 209.377 233, 210 233.675, 210 234.500 C 210 235.325, 210.717 236, 211.594 236 C 212.470 236, 213.423 236.900, 213.710 238 C 213.998 239.100, 214.856 240, 215.617 240 C 216.377 240, 217 240.900, 217 242 C 217 243.111, 217.667 244, 218.500 244 C 219.325 244, 220 244.717, 220 245.594 C 220 246.470, 220.900 247.423, 222 247.710 C 223.100 247.998, 224 248.856, 224 249.617 C 224 250.377, 224.900 251, 226 251 C 227.333 251, 228 251.667, 228 253 C 228 254.333, 228.667 255, 230 255 C 231.111 255, 232 255.667, 232 256.500 C 232 257.495, 232.995 258, 234.955 258 C 237.540 258, 237.992 258.438, 238.566 261.500 C 239.163 264.682, 239.530 265, 242.611 265 C 245.333 265, 246 265.393, 246 267 C 246 268.810, 246.667 269, 253.031 269 C 258.301 269, 260.204 268.631, 260.628 267.527 C 260.939 266.717, 262.725 265.767, 264.597 265.416 C 267.968 264.783, 268 264.726, 268 259.389 C 268 255.464, 268.376 254, 269.385 254 C 270.486 254, 270.919 250.317, 271.500 236 C 271.902 226.100, 272.628 218, 273.115 218 C 274.535 218, 274.205 204.235, 272.774 203.758 C 271.848 203.449, 271.452 195.089, 271.157 169.675 C 270.835 141.854, 270.527 136, 269.384 136 C 268.287 136, 268 133.647, 268 124.640 C 268 110.429, 267.179 104, 265.364 104 C 264.291 104, 264 101.546, 264 92.500 C 264 82.944, 263.746 81, 262.500 81 C 261.425 81, 261 79.903, 261 77.125 C 261 71.228, 259.904 67, 258.375 67 C 257.470 67, 257 65.803, 257 63.500 C 257 60.667, 256.619 60, 255 60 C 253.667 60, 253 60.667, 253 62 M 91 69 C 91 70.100, 90.375 71, 89.611 71 C 88.816 71, 87.942 72.495, 87.566 74.500 C 87.173 76.595, 86.325 78, 85.455 78 C 84.655 78, 84 78.900, 84 80 C 84 81.100, 83.345 82, 82.545 82 C 81.675 82, 80.827 83.405, 80.434 85.500 C 80.058 87.505, 79.184 89, 78.389 89 C 77.468 89, 77 90.180, 77 92.500 C 77 95.333, 76.619 96, 75 96 C 73.667 96, 73 96.667, 73 98 C 73 99.100, 73.563 99.994, 74.250 99.986 C 77.160 99.955, 80 98.669, 80 97.383 C 80 96.436, 81.261 96, 84 96 C 86.739 96, 88 95.564, 88 94.617 C 88 92.790, 91.135 92.030, 98.750 92.014 C 103.633 92.003, 105 91.672, 105 90.500 C 105 89.300, 106.500 89, 112.500 89 C 119.333 89, 120 88.822, 120 87 C 120 85.381, 120.667 85, 123.500 85 C 125.944 85, 127 84.548, 127 83.500 C 127 82.452, 125.944 82, 123.500 82 C 120.667 82, 120 81.619, 120 80 C 120 78.381, 119.333 78, 116.500 78 C 114.104 78, 113 77.541, 113 76.545 C 113 75.675, 111.595 74.827, 109.500 74.434 C 107.495 74.058, 106 73.184, 106 72.389 C 106 71.477, 104.837 71, 102.617 71 C 100.074 71, 99.103 70.503, 98.710 69 C 98.310 67.468, 97.346 67, 94.594 67 C 91.667 67, 91 67.371, 91 69 M 220.290 105 C 220.002 106.100, 219.144 107, 218.383 107 C 217.236 107, 217 112.198, 217 137.500 C 217 163.944, 217.199 168, 218.500 168 C 219.325 168, 220 168.648, 220 169.441 C 220 170.234, 220.461 171.167, 221.024 171.515 C 222.698 172.550, 228 170.958, 228 169.421 C 228 168.639, 228.675 168, 229.500 168 C 230.325 168, 231 167.325, 231 166.500 C 231 165.675, 230.325 165, 229.500 165 C 228.567 165, 228 164.056, 228 162.500 C 228 160.944, 227.433 160, 226.500 160 C 225.500 160, 225 159, 225 157 C 225 155, 225.500 154, 226.500 154 C 227.787 154, 228 150.944, 228 132.500 C 228 114.650, 227.760 111, 226.588 111 C 225.720 111, 224.915 109.459, 224.500 107 C 223.769 102.675, 221.215 101.461, 220.290 105 M 71.874 117.665 C 68.868 118.467, 68.624 132, 71.617 132 C 72.692 132, 73 134.004, 73 141 C 73 149.333, 73.148 150, 75 150 C 76.333 150, 77 150.667, 77 152 C 77 153.111, 77.667 154, 78.500 154 C 79.466 154, 80.005 154.978, 80.014 156.750 C 80.035 161.032, 81.101 164, 82.617 164 C 83.564 164, 84 165.261, 84 168 C 84 170.889, 83.583 172, 82.500 172 C 81.675 172, 81 172.648, 81 173.440 C 81 174.381, 79.703 174.987, 77.250 175.190 C 73.826 175.473, 73.473 175.783, 73.187 178.750 C 72.993 180.763, 72.327 182, 71.437 182 C 70.646 182, 70 182.900, 70 184 C 70 185.810, 70.667 186, 77 186 C 82.293 186, 84 185.663, 84 184.617 C 84 183.856, 84.900 182.998, 86 182.710 C 87.100 182.423, 88 181.470, 88 180.594 C 88 179.439, 88.964 179, 91.500 179 C 94.333 179, 95 178.619, 95 177 C 95 175.667, 95.667 175, 97 175 C 98.100 175, 99 174.345, 99 173.545 C 99 172.675, 100.405 171.827, 102.500 171.434 C 104.505 171.058, 106 170.184, 106 169.389 C 106 168.389, 107.400 168, 111 168 C 115.333 168, 116 167.733, 116 166 C 116 164.667, 116.667 164, 118 164 C 119.111 164, 120 163.333, 120 162.500 C 120 161.348, 118.722 161, 114.500 161 C 110.278 161, 109 161.348, 109 162.500 C 109 163.548, 107.944 164, 105.500 164 C 101.632 164, 100.544 161.614, 104 160.710 C 105.532 160.310, 106 159.346, 106 156.594 C 106 154.066, 106.445 153, 107.500 153 C 108.714 153, 109 151.402, 109 144.617 C 109 135.105, 108.937 135.040, 99.750 135.014 C 96.201 135.003, 95 134.621, 95 133.500 C 95 132.417, 93.889 132, 91 132 C 88.111 132, 87 132.417, 87 133.500 C 87 134.325, 86.325 135, 85.500 135 C 84.367 135, 84 133.778, 84 130 C 84 126.222, 84.367 125, 85.500 125 C 86.333 125, 87 124.111, 87 123 C 87 121.889, 86.333 121, 85.500 121 C 84.675 121, 84 120.381, 84 119.625 C 84 117.587, 76.634 116.396, 71.874 117.665 M 116.667 128.667 C 114.816 130.517, 116.522 143, 118.625 143 C 119.608 143, 120 144.424, 120 148 C 120 151.639, 120.384 153, 121.412 153 C 123.204 153, 124.372 159.501, 123.456 164.381 C 123.063 166.476, 122.193 168, 121.389 168 C 120.625 168, 120 168.675, 120 169.500 C 120 170.412, 119.069 171, 117.625 171 C 113.120 171, 109 172.254, 109 173.625 C 109 174.381, 108.365 175, 107.588 175 C 106.720 175, 105.915 176.541, 105.500 179 C 105.085 181.459, 104.280 183, 103.412 183 C 102.384 183, 102 184.361, 102 188 C 102 191.576, 101.608 193, 100.625 193 C 99.254 193, 98 197.120, 98 201.625 C 98 203.069, 97.412 204, 96.500 204 C 95.452 204, 95 205.056, 95 207.500 C 95 210.333, 94.619 211, 93 211 C 91.381 211, 91 211.667, 91 214.500 C 91 216.820, 90.532 218, 89.611 218 C 88.816 218, 87.942 219.495, 87.566 221.500 C 87.173 223.595, 86.325 225, 85.455 225 C 84.424 225, 84 226.166, 84 229 C 84 231.834, 83.576 233, 82.545 233 C 81.675 233, 80.827 234.405, 80.434 236.500 C 80.073 238.425, 79.203 240, 78.500 240 C 77.797 240, 76.927 241.575, 76.566 243.500 C 76.173 245.595, 75.325 247, 74.455 247 C 73.358 247, 73 248.354, 73 252.500 L 73 258 76.500 258 C 78.944 258, 80 257.548, 80 256.500 C 80 255.667, 80.889 255, 82 255 C 83.292 255, 84 254.333, 84 253.117 C 84 252.074, 84.893 251, 86 250.710 C 87.456 250.329, 88 249.346, 88 247.094 C 88 245.010, 88.490 244, 89.500 244 C 90.692 244, 91 242.545, 91 236.906 C 91 230.654, 91.237 229.751, 93 229.290 C 94.100 229.002, 95 228.144, 95 227.383 C 95 226.623, 95.675 226, 96.500 226 C 97.325 226, 98 226.675, 98 227.500 C 98 228.538, 99.043 229, 101.383 229 C 103.926 229, 104.897 229.497, 105.290 231 C 105.690 232.532, 106.654 233, 109.406 233 C 111.884 233, 113 233.452, 113 234.455 C 113 235.325, 114.405 236.173, 116.500 236.566 C 118.505 236.942, 120 237.816, 120 238.611 C 120 239.375, 120.900 240, 122 240 C 123.518 240, 123.997 240.662, 123.986 242.750 C 123.965 247.032, 122.899 250, 121.383 250 C 120.359 250, 120 251.558, 120 256 C 120 260.141, 120.387 261.996, 121.250 261.986 C 124.160 261.955, 127 260.669, 127 259.383 C 127 258.623, 127.655 258, 128.455 258 C 129.325 258, 130.173 256.595, 130.566 254.500 C 130.942 252.495, 131.816 251, 132.611 251 C 133.375 251, 134 250.100, 134 249 C 134 247.667, 134.667 247, 136 247 C 137.810 247, 138 246.333, 138 240 C 138 234.638, 138.330 233, 139.412 233 C 140.280 233, 141.085 231.459, 141.500 229 C 141.915 226.541, 142.720 225, 143.588 225 C 144.535 225, 145 223.848, 145 221.500 C 145 219.056, 145.452 218, 146.500 218 C 147.325 218, 148 217.325, 148 216.500 C 148 215.567, 148.944 215, 150.500 215 C 151.951 215, 153 215.575, 153 216.371 C 153 217.261, 154.754 217.975, 158 218.406 C 161.424 218.860, 163 219.531, 163 220.534 C 163 221.340, 163.900 222, 165 222 C 166.100 222, 167 222.655, 167 223.455 C 167 224.325, 168.405 225.173, 170.500 225.566 C 172.505 225.942, 174 226.816, 174 227.611 C 174 228.523, 175.163 229, 177.383 229 C 179.926 229, 180.897 229.497, 181.290 231 C 181.751 232.763, 182.654 233, 188.906 233 C 196.327 233, 196.591 232.806, 195.370 228.250 C 194.939 226.644, 194.013 225.996, 192.133 225.986 C 187.960 225.965, 185 224.885, 185 223.383 C 185 222.469, 183.813 222, 181.500 222 C 178.667 222, 178 221.619, 178 220 C 178 218.667, 177.333 218, 176 218 C 174.889 218, 174 217.333, 174 216.500 C 174 215.667, 173.111 215, 172 215 C 170.667 215, 170 214.333, 170 213 C 170 211.381, 169.333 211, 166.500 211 C 163.667 211, 163 210.619, 163 209 C 163 207.667, 162.333 207, 161 207 C 159.889 207, 159 206.333, 159 205.500 C 159 204.500, 158 204, 156 204 C 153.167 204, 153 203.778, 153 200 C 153 197.111, 153.417 196, 154.500 196 C 155.690 196, 156 194.556, 156 189 C 156 183.763, 156.343 182, 157.361 182 C 159.104 182, 159.980 174.928, 159.991 160.750 C 159.998 151.865, 160.260 150, 161.500 150 C 162.333 150, 163 149.111, 163 148 C 163 146.667, 163.667 146, 165 146 C 166.810 146, 167 145.333, 167 139 C 167 133.707, 166.663 132, 165.617 132 C 164.856 132, 163.998 131.100, 163.710 130 C 163.229 128.161, 162.352 128.001, 152.844 128.014 C 141.245 128.029, 138 128.598, 138 130.617 C 138 131.671, 136.219 132, 130.500 132 C 124.781 132, 123 131.671, 123 130.617 C 123 129.856, 121.987 128.962, 120.750 128.630 C 117.864 127.857, 117.473 127.860, 116.667 128.667 M 142 137.389 C 142 138.184, 140.505 139.058, 138.500 139.434 C 136.405 139.827, 135 140.675, 135 141.545 C 135 142.345, 134.100 143, 133 143 C 131.242 143, 131 143.667, 131 148.500 C 131 152.722, 131.348 154, 132.500 154 C 133.325 154, 134 154.675, 134 155.500 C 134 156.652, 135.278 157, 139.500 157 C 143.722 157, 145 156.652, 145 155.500 C 145 154.667, 145.889 154, 147 154 C 148.333 154, 149 153.333, 149 152 C 149 150.667, 149.667 150, 151 150 C 152.333 150, 153 149.333, 153 148 C 153 146.889, 153.667 146, 154.500 146 C 155.333 146, 156 145.111, 156 144 C 156 142.889, 156.667 142, 157.500 142 C 158.500 142, 159 141, 159 139 L 159 136 150.500 136 C 143.914 136, 142 136.313, 142 137.389 M 88 148 C 88 151.778, 88.367 153, 89.500 153 C 90.384 153, 91.006 153.923, 91.015 155.250 C 91.024 156.488, 91.482 158.175, 92.034 159 C 92.908 160.308, 93.168 160.276, 94.068 158.750 C 94.635 157.787, 95.696 157, 96.425 157 C 97.753 157, 99 152.824, 99 148.375 C 99 146.931, 99.588 146, 100.500 146 C 101.325 146, 102 145.325, 102 144.500 C 102 143.310, 100.556 143, 95 143 L 88 143 88 148 M 142 169.594 C 142 170.470, 141.100 171.423, 140 171.710 C 138.900 171.998, 138 172.856, 138 173.617 C 138 174.613, 136.577 175, 132.906 175 C 128.654 175, 127.726 175.330, 127.290 177 C 126.858 178.652, 125.926 179, 121.929 179 C 117.191 179, 117.077 179.073, 116.434 182.500 C 116.058 184.505, 115.184 186, 114.389 186 C 113.625 186, 113 186.900, 113 188 C 113 189.100, 112.377 190, 111.617 190 C 110.101 190, 109.035 192.968, 109.014 197.250 C 109.005 199.022, 108.466 200, 107.500 200 C 106.477 200, 105.996 201.034, 105.986 203.250 C 105.966 208, 104.959 211, 103.383 211 C 102.478 211, 102 212.169, 102 214.383 C 102 216.926, 102.497 217.897, 104 218.290 C 105.100 218.577, 106 219.530, 106 220.406 C 106 221.561, 106.964 222, 109.500 222 C 111.896 222, 113 222.459, 113 223.455 C 113 224.325, 114.405 225.173, 116.500 225.566 C 118.505 225.942, 120 226.816, 120 227.611 C 120 228.375, 120.900 229, 122 229 C 123.111 229, 124 229.667, 124 230.500 C 124 231.325, 124.638 232, 125.418 232 C 126.198 232, 127.575 232.283, 128.478 232.630 C 129.614 233.066, 130.291 232.605, 130.676 231.130 C 130.983 229.958, 131.856 229, 132.617 229 C 133.531 229, 134 227.813, 134 225.500 C 134 222.667, 134.381 222, 136 222 C 137.758 222, 138 221.333, 138 216.500 C 138 212.278, 138.348 211, 139.500 211 C 140.412 211, 141 210.069, 141 208.625 C 141 204.271, 142.235 200, 143.495 200 C 144.234 200, 144.952 198.120, 145.261 195.376 C 145.548 192.833, 146.381 190.382, 147.114 189.930 C 148.043 189.356, 148.564 185.913, 148.836 178.553 L 149.227 168 145.613 168 C 142.974 168, 142 168.429, 142 169.594" stroke="none" fill="black" fill-rule="evenodd"/>
</svg>