<svg xmlns="http://www.w3.org/2000/svg" width="300" height="300" viewBox="0 0 300 300" version="1.1">
	<path d="M 168 38.500 C 168 40.803, 167.530 42, 166.625 42 C 165.052 42, 164 46.259, 164 52.625 C 164 55.847, 163.605 57, 162.500 57 C 161.302 57, 161 58.486, 161 64.375 C 161 73.589, 160.150 78, 158.375 78 C 157.310 78, 157 80.030, 157 87 C 157 94.043, 156.696 96, 155.601 96 C 154.604 96, 154.002 98.005, 153.500 103 C 152.998 107.995, 152.396 110, 151.399 110 C 150.629 110, 150 110.900, 150 112 C 150 113.333, 149.333 114, 148 114 C 146.889 114, 146 114.667, 146 115.500 C 146 116.597, 144.858 117.002, 141.750 117.006 C 131.141 117.021, 121 118.312, 121 119.648 C 121 120.620, 119.454 121, 115.500 121 C 111.354 121, 110 121.358, 110 122.455 C 110 123.325, 108.595 124.173, 106.500 124.566 C 103.545 125.120, 103.002 125.634, 103.014 127.861 C 103.033 131.515, 104.059 135, 105.117 135 C 105.602 135, 106 134.325, 106 133.500 C 106 132.292, 107.556 132, 114 132 C 120.295 132, 122 131.693, 122 130.561 C 122 129.511, 123.895 128.934, 129 128.431 C 133.927 127.946, 136 127.336, 136 126.371 C 136 125.376, 137.508 125, 141.500 125 C 145.241 125, 146.996 125.400, 146.986 126.250 C 146.955 129.160, 145.669 132, 144.383 132 C 143.623 132, 143 132.900, 143 134 C 143 135.100, 142.377 136, 141.617 136 C 140.101 136, 139.035 138.968, 139.014 143.250 C 139.005 144.923, 138.456 146, 137.611 146 C 136.816 146, 135.942 147.495, 135.566 149.500 C 135.173 151.595, 134.325 153, 133.455 153 C 132.424 153, 132 154.166, 132 157 C 132 160.333, 131.667 161, 130 161 C 128.381 161, 128 161.667, 128 164.500 C 128 166.944, 127.548 168, 126.500 168 C 125.452 168, 125 169.056, 125 171.500 C 125 174.333, 124.619 175, 123 175 C 121.381 175, 121 175.667, 121 178.500 C 121 180.820, 120.532 182, 119.611 182 C 118.816 182, 117.942 183.495, 117.566 185.500 C 117.173 187.595, 116.325 189, 115.455 189 C 114.655 189, 114 189.900, 114 191 C 114 192.100, 113.345 193, 112.545 193 C 111.675 193, 110.827 194.405, 110.434 196.500 C 110.073 198.425, 109.203 200, 108.500 200 C 107.797 200, 106.927 201.575, 106.566 203.500 C 106.173 205.595, 105.325 207, 104.455 207 C 103.570 207, 103 207.979, 103 209.500 C 103 211.056, 102.433 212, 101.500 212 C 100.490 212, 100 213.010, 100 215.094 C 100 217.346, 99.456 218.329, 98 218.710 C 96.497 219.103, 96 220.074, 96 222.617 C 96 225.333, 95.606 226, 94 226 C 92.667 226, 92 226.667, 92 228 C 92 229.111, 91.333 230, 90.500 230 C 89.500 230, 89 231, 89 233 C 89 235.078, 88.510 236, 87.406 236 C 86.530 236, 85.577 236.900, 85.290 238 C 85.002 239.100, 84.144 240, 83.383 240 C 82.623 240, 82 240.900, 82 242 C 82 243.333, 81.333 244, 80 244 C 78.667 244, 78 244.667, 78 246 C 78 247.100, 77.361 248, 76.579 248 C 75.798 248, 74.862 249.350, 74.500 251 C 74.138 252.650, 73.202 254, 72.421 254 C 71.639 254, 71 254.900, 71 256 C 71 257.333, 70.333 258, 69 258 C 67.667 258, 67 258.667, 67 260 C 67 261.111, 66.333 262, 65.500 262 C 64.675 262, 64 262.675, 64 263.500 C 64 264.548, 65.056 265, 67.500 265 C 69.813 265, 71 264.531, 71 263.617 C 71 262.856, 71.900 261.998, 73 261.710 C 74.100 261.423, 75 260.470, 75 259.594 C 75 258.717, 75.675 258, 76.500 258 C 77.325 258, 78 257.377, 78 256.617 C 78 255.856, 78.900 254.998, 80 254.710 C 81.100 254.423, 82 253.470, 82 252.594 C 82 251.717, 82.675 251, 83.500 251 C 84.325 251, 85 250.283, 85 249.406 C 85 248.530, 85.900 247.577, 87 247.290 C 88.100 247.002, 89 246.144, 89 245.383 C 89 244.623, 89.675 244, 90.500 244 C 91.333 244, 92 243.111, 92 242 C 92 240.667, 92.667 240, 94 240 C 95.619 240, 96 239.333, 96 236.500 C 96 233.667, 96.381 233, 98 233 C 99.333 233, 100 232.333, 100 231 C 100 229.889, 100.667 229, 101.500 229 C 102.548 229, 103 227.944, 103 225.500 C 103 222.667, 103.381 222, 105 222 C 106.619 222, 107 221.333, 107 218.500 C 107 216.187, 107.469 215, 108.383 215 C 109.144 215, 110.002 214.100, 110.290 213 C 110.577 211.900, 111.530 211, 112.406 211 C 113.561 211, 114 210.036, 114 207.500 C 114 205.104, 114.459 204, 115.455 204 C 116.325 204, 117.173 202.595, 117.566 200.500 C 117.942 198.495, 118.816 197, 119.611 197 C 120.375 197, 121 196.100, 121 195 C 121 193.900, 121.655 193, 122.455 193 C 123.325 193, 124.173 191.595, 124.566 189.500 C 124.927 187.575, 125.797 186, 126.500 186 C 127.203 186, 128.073 184.425, 128.434 182.500 C 128.827 180.405, 129.675 179, 130.545 179 C 131.576 179, 132 177.834, 132 175 C 132 172.211, 132.430 171, 133.421 171 C 134.202 171, 135.138 169.650, 135.500 168 C 135.862 166.350, 136.798 165, 137.579 165 C 138.570 165, 139 163.789, 139 161 C 139 157.667, 139.333 157, 141 157 C 142.619 157, 143 156.333, 143 153.500 C 143 151.104, 143.459 150, 144.455 150 C 145.325 150, 146.173 148.595, 146.566 146.500 C 146.942 144.495, 147.816 143, 148.611 143 C 149.565 143, 150 141.746, 150 139 C 150 136.166, 150.424 135, 151.455 135 C 152.325 135, 153.173 133.595, 153.566 131.500 C 153.942 129.495, 154.816 128, 155.611 128 C 156.375 128, 157 127.325, 157 126.500 C 157 125.667, 157.889 125, 159 125 C 160.333 125, 161 124.333, 161 123 C 161 121.242, 161.667 121, 166.500 121 C 170.722 121, 172 120.652, 172 119.500 C 172 118.282, 173.643 117.998, 180.750 117.991 C 193.031 117.979, 200 117.027, 200 115.361 C 200 114.309, 202.154 114, 209.500 114 C 217.092 114, 219 114.289, 219 115.437 C 219 116.327, 220.237 116.993, 222.250 117.187 C 225.330 117.484, 225.517 117.735, 225.834 122 C 226.444 130.238, 224.971 143, 223.410 143 C 222.331 143, 222 144.642, 222 150 C 222 155.273, 221.661 157, 220.625 157 C 219.254 157, 218 161.120, 218 165.625 C 218 167.069, 217.412 168, 216.500 168 C 215.477 168, 214.996 169.034, 214.986 171.250 C 214.966 176, 213.959 179, 212.383 179 C 211.469 179, 211 180.187, 211 182.500 C 211 184.820, 210.532 186, 209.611 186 C 208.816 186, 207.942 187.495, 207.566 189.500 C 207.173 191.595, 206.325 193, 205.455 193 C 204.424 193, 204 194.166, 204 197 C 204 199.834, 203.576 201, 202.545 201 C 201.675 201, 200.827 202.405, 200.434 204.500 C 200.058 206.505, 199.184 208, 198.389 208 C 197.503 208, 197 209.121, 197 211.094 C 197 213.346, 196.456 214.329, 195 214.710 C 193.900 214.998, 193 215.856, 193 216.617 C 193 217.671, 191.219 218, 185.500 218 C 179.500 218, 178 217.700, 178 216.500 C 178 215.513, 177.013 215, 175.117 215 C 173.074 215, 172.081 214.417, 171.710 213 C 171.423 211.900, 170.470 211, 169.594 211 C 168.439 211, 168 210.036, 168 207.500 C 168 204.667, 167.619 204, 166 204 C 164.889 204, 164 203.333, 164 202.500 C 164 201.675, 163.325 201, 162.500 201 C 161.456 201, 161 199.950, 161 197.550 C 161 195.345, 160.388 193.757, 159.304 193.150 C 158.055 192.451, 157.497 190.462, 157.187 185.600 C 156.885 180.850, 156.379 179, 155.384 179 C 154.469 179, 154 177.813, 154 175.500 C 154 173.056, 154.452 172, 155.500 172 C 156.538 172, 157 170.957, 157 168.617 C 157 165.953, 156.521 165.105, 154.750 164.630 C 149.949 163.344, 150 163.193, 150 178.500 C 150 190.321, 150.261 193, 151.412 193 C 152.280 193, 153.085 194.541, 153.500 197 C 153.915 199.459, 154.720 201, 155.588 201 C 156.500 201, 157 202.096, 157 204.094 C 157 206.346, 157.544 207.329, 159 207.710 C 160.503 208.103, 161 209.074, 161 211.617 C 161 213.957, 161.462 215, 162.500 215 C 163.325 215, 164 215.675, 164 216.500 C 164 217.333, 164.889 218, 166 218 C 167.333 218, 168 218.667, 168 220 C 168 221.333, 168.667 222, 170 222 C 171.100 222, 172 222.655, 172 223.455 C 172 224.325, 173.405 225.173, 175.500 225.566 C 177.505 225.942, 179 226.816, 179 227.611 C 179 228.628, 180.474 229, 184.500 229 C 188.722 229, 190 228.652, 190 227.500 C 190 226.534, 190.978 225.995, 192.750 225.986 C 197.866 225.961, 199.860 224.912, 200.522 221.898 C 200.872 220.304, 201.798 219, 202.579 219 C 203.428 219, 204 217.993, 204 216.500 C 204 214.979, 204.570 214, 205.455 214 C 206.325 214, 207.173 212.595, 207.566 210.500 C 207.942 208.495, 208.816 207, 209.611 207 C 210.497 207, 211 205.879, 211 203.906 C 211 201.654, 211.544 200.671, 213 200.290 C 214.503 199.897, 215 198.926, 215 196.383 C 215 194.043, 215.462 193, 216.500 193 C 217.466 193, 218.005 192.022, 218.014 190.250 C 218.035 185.968, 219.101 183, 220.617 183 C 221.564 183, 222 181.739, 222 179 C 222 175.667, 222.333 175, 224 175 C 225.619 175, 226 174.333, 226 171.500 C 226 169.056, 226.452 168, 227.500 168 C 228.663 168, 229 166.681, 229 162.125 C 229 154.342, 229.940 150, 231.625 150 C 232.661 150, 233 148.273, 233 143 C 233 137.444, 233.310 136, 234.500 136 C 235.756 136, 236 133.889, 236 123 C 236 112.111, 235.756 110, 234.500 110 C 233.675 110, 233 109.365, 233 108.589 C 233 106.719, 226.773 106.419, 196.250 106.814 C 175.990 107.077, 172 107.365, 172 108.564 C 172 109.573, 170.809 110, 168 110 C 164.667 110, 164 110.333, 164 112 C 164 113.111, 163.333 114, 162.500 114 C 161.348 114, 161 112.722, 161 108.500 C 161 104.278, 161.348 103, 162.500 103 C 163.575 103, 164 101.903, 164 99.125 C 164 93.228, 165.096 89, 166.625 89 C 167.708 89, 168 86.667, 168 78 C 168 69.301, 168.289 67, 169.383 67 C 171.103 67, 171.969 63.923, 171.986 57.750 C 171.997 54.201, 172.379 53, 173.500 53 C 174.523 53, 175.004 51.966, 175.014 49.750 C 175.034 45, 176.041 42, 177.617 42 C 179.115 42, 179.311 40.762, 178.370 37.250 C 177.849 35.306, 177.102 35, 172.883 35 L 168 35 168 38.500" stroke="none" fill="black" fill-rule="evenodd"/>
</svg>