<svg xmlns="http://www.w3.org/2000/svg" width="300" height="300" viewBox="0 0 300 300" version="1.1">
	<path d="M 156 60.500 C 156 61.754, 153.913 62.001, 143.250 62.009 C 127.161 62.020, 120 62.830, 120 64.639 C 120 65.742, 116.201 66, 100 66 C 80.667 66, 80 66.067, 80 68 C 80 69.111, 79.333 70, 78.500 70 C 77.367 70, 77 71.222, 77 75 L 77 80 80.500 80 C 82.944 80, 84 79.548, 84 78.500 C 84 77.310, 85.444 77, 91 77 C 96.556 77, 98 77.310, 98 78.500 C 98 79.325, 97.365 80, 96.588 80 C 95.720 80, 94.915 81.541, 94.500 84 C 94.085 86.459, 93.280 88, 92.412 88 C 91.301 88, 91 89.916, 91 97 C 91 104.333, 90.722 106, 89.500 106 C 88.227 106, 87.999 108.530, 87.994 122.750 C 87.986 145.013, 87.113 156, 85.352 156 C 84.252 156, 84 160.663, 84 181 C 84 201.337, 83.748 206, 82.648 206 C 81.674 206, 81.117 208.302, 80.654 214.250 C 79.778 225.509, 79.834 241.779, 80.751 242.346 C 82.303 243.305, 91 241.723, 91 240.481 C 91 239.789, 92.575 238.927, 94.500 238.566 C 96.595 238.173, 98 237.325, 98 236.455 C 98 235.424, 99.166 235, 102 235 C 104.889 235, 106 234.583, 106 233.500 C 106 232.191, 111.278 232, 147.500 232 C 182.600 232, 189 232.218, 189 233.414 C 189 234.533, 191.452 234.900, 200.750 235.171 C 214.939 235.586, 216.676 235.348, 217.316 232.901 C 217.589 231.855, 218.530 231, 219.406 231 C 220.505 231, 221 230.082, 221 228.045 C 221 225.460, 220.562 225.008, 217.500 224.434 C 215.575 224.073, 214 223.203, 214 222.500 C 214 221.797, 212.425 220.927, 210.500 220.566 C 208.405 220.173, 207 219.325, 207 218.455 C 207 217.655, 206.100 217, 205 217 C 203.667 217, 203 217.667, 203 219 C 203 220.111, 202.333 221, 201.500 221 C 200.675 221, 200 221.675, 200 222.500 C 200 223.746, 198.056 224, 188.500 224 C 178.944 224, 177 223.746, 177 222.500 C 177 221.195, 172.389 221, 141.500 221 C 110.611 221, 106 221.195, 106 222.500 C 106 223.652, 104.722 224, 100.500 224 C 95.667 224, 95 224.242, 95 226 C 95 227.363, 94.333 228, 92.908 228 C 90.826 228, 90.817 227.862, 91.158 199.463 C 91.446 175.430, 91.737 170.780, 93 170.001 C 94.230 169.243, 94.556 165.647, 94.811 150.038 C 95.068 134.282, 95.369 131, 96.561 131 C 97.727 131, 98.002 128.869, 98.009 119.750 C 98.020 105.095, 98.878 98, 100.639 98 C 101.605 98, 102 96.550, 102 93 C 102 89.092, 102.348 88, 103.594 88 C 104.470 88, 105.423 87.100, 105.710 86 C 106.143 84.344, 107.074 84, 111.117 84 L 116 84 116 80.500 L 116 77 109 77 C 102.667 77, 102 76.810, 102 75 C 102 73.074, 102.667 73, 120 73 C 135.333 73, 138 72.778, 138 71.500 C 138 70.281, 139.641 69.999, 146.750 69.995 C 163.953 69.987, 178 68.796, 178 67.347 C 178 66.606, 178.651 66, 179.448 66 C 180.486 66, 180.981 67.463, 181.198 71.171 C 181.513 76.558, 183.667 78.990, 184.683 75.105 C 184.997 73.905, 186.043 73, 187.117 73 C 188.152 73, 189 72.325, 189 71.500 C 189 70.675, 189.675 70, 190.500 70 C 191.652 70, 192 68.722, 192 64.500 L 192 59 174 59 C 158.667 59, 156 59.222, 156 60.500 M 130 85.500 C 130 86.325, 129.325 87, 128.500 87 C 127.417 87, 127 88.111, 127 91 C 127 93.889, 126.583 95, 125.500 95 C 124.210 95, 124 98.260, 124 118.344 C 124 148.696, 123.151 163, 121.348 163 C 120.337 163, 120 164.876, 120 170.500 C 120 176.219, 119.671 178, 118.617 178 C 116.682 178, 116.029 181.196, 116.014 190.750 L 116 199 119.383 199 C 123.077 199, 123.960 197.514, 123.986 191.250 C 123.996 189.034, 124.477 188, 125.500 188 C 126.663 188, 127 186.681, 127 182.125 C 127 174.342, 127.940 170, 129.625 170 C 130.718 170, 131 167.439, 131 157.500 C 131 147.056, 131.247 145, 132.500 145 C 133.779 145, 134 142.292, 134 126.625 C 134 106.720, 134.503 102, 136.625 102 C 137.530 102, 138 100.803, 138 98.500 C 138 96.056, 138.452 95, 139.500 95 C 140.325 95, 141 94.325, 141 93.500 C 141 92.675, 140.325 92, 139.500 92 C 138.417 92, 138 90.889, 138 88 L 138 84 134 84 C 131.111 84, 130 84.417, 130 85.500 M 163 93.500 C 163 94.325, 162.374 95, 161.608 95 C 160.843 95, 159.988 96.013, 159.709 97.250 C 159.429 98.487, 159.363 112.325, 159.562 128 C 159.761 143.675, 159.941 158.863, 159.962 161.750 C 159.991 165.733, 160.362 167, 161.500 167 C 162.325 167, 163 167.675, 163 168.500 C 163 169.333, 163.889 170, 165 170 C 166.333 170, 167 170.667, 167 172 C 167 173.619, 167.667 174, 170.500 174 C 172.896 174, 174 174.459, 174 175.455 C 174 176.325, 175.405 177.173, 177.500 177.566 C 179.505 177.942, 181 178.816, 181 179.611 C 181 180.509, 182.150 181.005, 184.250 181.014 C 189 181.034, 192 182.041, 192 183.617 C 192 184.627, 193.484 185, 197.500 185 C 201.722 185, 203 185.348, 203 186.500 C 203 187.466, 203.978 188.005, 205.750 188.014 C 210.032 188.035, 213 189.101, 213 190.617 C 213 191.564, 214.261 192, 217 192 C 219.889 192, 221 191.583, 221 190.500 C 221 189.675, 221.675 189, 222.500 189 C 223.333 189, 224 188.111, 224 187 C 224 185.889, 223.333 185, 222.500 185 C 221.667 185, 221 184.111, 221 183 C 221 181.190, 220.333 181, 214 181 C 208.638 181, 207 180.670, 207 179.588 C 207 178.720, 205.459 177.915, 203 177.500 C 200.541 177.085, 199 176.280, 199 175.412 C 199 174.389, 197.656 174, 194.117 174 C 190.074 174, 189.143 173.656, 188.710 172 C 188.423 170.900, 187.470 170, 186.594 170 C 185.717 170, 185 169.325, 185 168.500 C 185 167.462, 183.957 167, 181.617 167 C 179.074 167, 178.103 166.503, 177.710 165 C 177.423 163.900, 176.470 163, 175.594 163 C 174.717 163, 174 162.325, 174 161.500 C 174 160.675, 173.381 160, 172.625 160 C 170.360 160, 170 155.116, 170 124.375 C 170 98.931, 169.799 95, 168.500 95 C 167.675 95, 167 94.325, 167 93.500 C 167 92.667, 166.111 92, 165 92 C 163.889 92, 163 92.667, 163 93.500" stroke="none" fill="black" fill-rule="evenodd"/>
</svg>