<svg xmlns="http://www.w3.org/2000/svg" width="300" height="300" viewBox="0 0 300 300" version="1.1">
	<path d="M 145.290 46 C 145 47.107, 143.926 48, 142.883 48 C 141.398 48, 141 48.739, 141 51.500 C 141 54.965, 141.044 55, 145.360 55 C 152.955 55, 159 56.168, 159 57.636 C 159 58.386, 159.900 59, 161 59 C 162.333 59, 163 59.667, 163 61 C 163 62.100, 163.623 63, 164.383 63 C 165.899 63, 166.965 65.968, 166.986 70.250 C 166.997 72.338, 166.518 73, 165 73 C 163.900 73, 163 73.655, 163 74.455 C 163 75.325, 161.595 76.173, 159.500 76.566 C 157.575 76.927, 156 77.797, 156 78.500 C 156 79.203, 154.425 80.073, 152.500 80.434 C 150.405 80.827, 149 81.675, 149 82.545 C 149 83.576, 147.834 84, 145 84 C 142.261 84, 141 84.436, 141 85.383 C 141 86.144, 139.988 87.038, 138.750 87.370 C 134.472 88.516, 133.735 88.165, 134.300 85.250 C 134.594 83.737, 134.590 81.263, 134.292 79.750 C 133.829 77.400, 133.259 77, 130.375 77 C 128.042 77, 127 77.463, 127 78.500 C 127 79.325, 126.283 80, 125.406 80 C 124.530 80, 123.577 80.900, 123.290 82 C 123.002 83.100, 122.144 84, 121.383 84 C 120.293 84, 120 86.227, 120 94.500 C 120 102.721, 120.297 105, 121.369 105 C 123.221 105, 123.976 110.258, 123.989 123.250 C 123.998 132.134, 124.260 134, 125.500 134 C 126.652 134, 127 135.278, 127 139.500 L 127 145 131 145 C 133.889 145, 135 144.583, 135 143.500 C 135 142.675, 135.675 142, 136.500 142 C 137.583 142, 138 140.889, 138 138 C 138 134.667, 137.667 134, 136 134 C 134.190 134, 134 133.333, 134 127 C 134 121.444, 133.690 120, 132.500 120 C 131.452 120, 131 118.944, 131 116.500 C 131 114.056, 131.452 113, 132.500 113 C 133.412 113, 134 112.069, 134 110.625 C 134 106.120, 135.254 102, 136.625 102 C 137.530 102, 138 100.803, 138 98.500 C 138 95.167, 138.167 95, 141.500 95 C 143.813 95, 145 94.531, 145 93.617 C 145 91.897, 148.077 91.031, 154.250 91.014 C 157.799 91.003, 159 90.621, 159 89.500 C 159 88.359, 160.256 87.997, 164.250 87.986 C 170.902 87.969, 174 87.142, 174 85.383 C 174 84.329, 175.781 84, 181.500 84 C 187.159 84, 189 83.666, 189 82.639 C 189 80.960, 196.009 80.017, 208.500 80.017 C 220.991 80.017, 228 80.960, 228 82.639 C 228 83.528, 229.215 84, 231.500 84 C 233.932 84, 235 84.454, 235 85.488 C 235 86.451, 236.412 87.202, 239 87.616 C 241.413 88.002, 243 88.800, 243 89.628 C 243 90.383, 243.675 91, 244.500 91 C 245.325 91, 246 91.675, 246 92.500 C 246 93.325, 245.365 94, 244.588 94 C 243.720 94, 242.915 95.541, 242.500 98 C 242.118 100.260, 241.261 102, 240.529 102 C 239.816 102, 238.998 102.900, 238.710 104 C 238.423 105.100, 237.470 106, 236.594 106 C 235.717 106, 235 106.675, 235 107.500 C 235 108.325, 234.375 109, 233.611 109 C 232.816 109, 231.942 110.495, 231.566 112.500 C 231.173 114.595, 230.325 116, 229.455 116 C 228.655 116, 228 116.900, 228 118 C 228 119.100, 227.345 120, 226.545 120 C 225.675 120, 224.827 121.405, 224.434 123.500 C 224.072 125.431, 223.177 127, 222.438 127 C 221.702 127, 220.659 127.787, 220.122 128.750 C 219.292 130.234, 217.313 130.551, 207.072 130.834 C 197.482 131.099, 195 131.459, 195 132.584 C 195 133.677, 193.322 134, 187.640 134 C 177.235 134, 171 134.988, 171 136.636 C 171 137.667, 169.168 138, 163.500 138 C 157.500 138, 156 138.300, 156 139.500 C 156 140.412, 155.069 141, 153.625 141 C 149.120 141, 145 142.254, 145 143.625 C 145 144.530, 143.803 145, 141.500 145 C 138.667 145, 138 145.381, 138 147 C 138 148.333, 137.333 149, 136 149 C 133.891 149, 133.359 152.008, 134.630 156.750 C 135.301 159.253, 138 159.854, 138 157.500 C 138 156.348, 139.278 156, 143.500 156 C 147.646 156, 149 155.642, 149 154.545 C 149 153.675, 150.405 152.827, 152.500 152.434 C 154.505 152.058, 156 151.184, 156 150.389 C 156 149.372, 157.474 149, 161.500 149 C 165.516 149, 167 148.627, 167 147.617 C 167 145.601, 170.243 145.029, 181.750 145.014 C 189.726 145.003, 192 144.698, 192 143.638 C 192 142.201, 204.173 140.371, 206.043 141.527 C 207.768 142.593, 207.045 145, 205 145 C 203.667 145, 203 145.667, 203 147 C 203 148.619, 203.667 149, 206.500 149 C 209.333 149, 210 148.619, 210 147 C 210 145.381, 210.667 145, 213.500 145 C 215.785 145, 217 144.528, 217 143.639 C 217 142.745, 218.798 142.063, 222.250 141.648 C 230.293 140.682, 231 140.791, 231 143 C 231 144.111, 230.333 145, 229.500 145 C 228.667 145, 228 145.889, 228 147 C 228 148.619, 228.667 149, 231.500 149 C 234.333 149, 235 148.619, 235 147 C 235 145.667, 235.667 145, 237 145 C 238.758 145, 239 144.333, 239 139.500 C 239 135.278, 238.652 134, 237.500 134 C 236.675 134, 236 133.325, 236 132.500 C 236 131.675, 235.127 131, 234.059 131 C 232.991 131, 231.853 130.571, 231.528 130.046 C 230.563 128.484, 232.105 124, 233.608 124 C 234.374 124, 235 123.100, 235 122 C 235 120.900, 235.655 120, 236.455 120 C 237.325 120, 238.173 118.595, 238.566 116.500 C 238.966 114.369, 239.803 113, 240.705 113 C 241.520 113, 242.423 112.100, 242.710 111 C 242.998 109.900, 243.856 109, 244.617 109 C 245.531 109, 246 107.813, 246 105.500 C 246 102.667, 246.381 102, 248 102 C 249.111 102, 250 101.333, 250 100.500 C 250 99.675, 250.619 99, 251.375 99 C 252.131 99, 253.033 97.586, 253.378 95.858 C 253.724 94.129, 254.734 92.184, 255.622 91.535 C 256.821 90.658, 257.057 89.536, 256.539 87.177 C 255.949 84.492, 255.389 84, 252.921 84 C 250.667 84, 250 83.543, 250 82 C 250 80.667, 249.333 80, 248 80 C 246.889 80, 246 79.333, 246 78.500 C 246 77.675, 245.325 77, 244.500 77 C 243.667 77, 243 76.111, 243 75 C 243 73.533, 242.333 73, 240.500 73 C 239.058 73, 238 72.424, 238 71.639 C 238 70.286, 231.426 69.028, 224.250 69.009 C 222.032 69.003, 221 68.524, 221 67.500 C 221 66.236, 218.722 66, 206.500 66 C 194.820 66, 192 66.269, 192 67.384 C 192 68.382, 190.124 68.887, 185.250 69.197 C 174.545 69.879, 174 69.621, 174 63.883 C 174 60.383, 173.607 59, 172.611 59 C 171.816 59, 170.942 57.505, 170.566 55.500 C 170.173 53.405, 169.325 52, 168.455 52 C 167.655 52, 167 51.100, 167 50 C 167 48.667, 166.333 48, 165 48 C 163.900 48, 163 47.377, 163 46.617 C 163 44.784, 159.861 44.030, 152.156 44.014 C 146.648 44.002, 145.744 44.263, 145.290 46 M 103.750 80.689 C 102.787 80.941, 102 81.789, 102 82.573 C 102 83.358, 101.377 84, 100.617 84 C 99.856 84, 98.998 84.900, 98.710 86 C 98.423 87.100, 97.470 88, 96.594 88 C 95.479 88, 95 88.930, 95 91.094 C 95 93.346, 94.456 94.329, 93 94.710 C 91.893 95, 91 96.074, 91 97.117 C 91 98.152, 90.325 99, 89.500 99 C 88.675 99, 88 99.675, 88 100.500 C 88 101.333, 87.111 102, 86 102 C 84.273 102, 84 102.667, 84 106.883 C 84 110.926, 83.656 111.857, 82 112.290 C 80.468 112.690, 80 113.654, 80 116.406 C 80 118.782, 79.536 120, 78.630 120 C 77.742 120, 77.076 121.635, 76.736 124.651 C 76.420 127.449, 75.572 129.660, 74.606 130.201 C 73.723 130.695, 73 131.977, 73 133.050 C 73 134.122, 72.383 135, 71.629 135 C 70.739 135, 70.025 136.754, 69.594 140 C 69.140 143.424, 68.469 145, 67.466 145 C 66.467 145, 66 146.078, 66 148.383 C 66 150.926, 65.503 151.897, 64 152.290 C 62.468 152.690, 62 153.654, 62 156.406 C 62 158.934, 61.555 160, 60.500 160 C 59.490 160, 59 161.010, 59 163.094 C 59 165.346, 58.456 166.329, 57 166.710 C 55.497 167.103, 55 168.074, 55 170.617 C 55 172.911, 54.532 174, 53.545 174 C 52.675 174, 51.827 175.405, 51.434 177.500 C 51.058 179.505, 50.184 181, 49.389 181 C 48.435 181, 48 182.254, 48 185 C 48 187.834, 47.576 189, 46.545 189 C 44.714 189, 43.776 193.771, 44.187 201 L 44.500 206.500 50.673 206.493 C 54.069 206.490, 57.101 206.232, 57.413 205.920 C 57.724 205.609, 58.265 203.924, 58.615 202.177 C 59.235 199.075, 59.164 199, 55.625 199 C 52.149 199, 52 198.856, 52 195.500 C 52 193.056, 52.452 192, 53.500 192 C 54.528 192, 55 190.969, 55 188.722 C 55 186.682, 55.755 184.798, 57 183.732 C 58.383 182.548, 59 180.782, 59 178.010 C 59 175.168, 59.424 174, 60.455 174 C 61.325 174, 62.173 172.595, 62.566 170.500 C 62.942 168.495, 63.816 167, 64.611 167 C 65.532 167, 66 165.820, 66 163.500 C 66 160.964, 66.439 160, 67.594 160 C 68.470 160, 69.423 159.100, 69.710 158 C 69.998 156.900, 70.856 156, 71.617 156 C 72.533 156, 73 154.809, 73 152.469 C 73 150.281, 73.560 148.722, 74.473 148.372 C 75.283 148.061, 76.233 146.275, 76.584 144.403 C 76.946 142.473, 77.823 141, 78.611 141 C 79.497 141, 80 139.879, 80 137.906 C 80 135.654, 80.544 134.671, 82 134.290 C 83.503 133.897, 84 132.926, 84 130.383 C 84 128.179, 84.479 127, 85.375 127 C 86.746 127, 88 122.880, 88 118.375 C 88 116.931, 88.588 116, 89.500 116 C 90.548 116, 91 114.944, 91 112.500 C 91 109.667, 91.381 109, 93 109 C 94.619 109, 95 108.333, 95 105.500 C 95 103.056, 95.452 102, 96.500 102 C 97.325 102, 98 101.283, 98 100.406 C 98 99.530, 98.900 98.577, 100 98.290 C 101.392 97.926, 102 96.926, 102 95 C 102 91.967, 103.833 91.038, 109.867 91.014 C 112.868 91.001, 113.168 90.756, 112.630 88.750 C 112.299 87.513, 112.021 85.938, 112.014 85.250 C 112.006 84.563, 111.325 84, 110.500 84 C 109.667 84, 109 83.111, 109 82 C 109 80.013, 107.638 79.673, 103.750 80.689 M 94 132.500 C 94 133.325, 93.325 134, 92.500 134 C 91.452 134, 91 135.056, 91 137.500 C 91 139.944, 90.548 141, 89.500 141 C 88.667 141, 88 141.889, 88 143 C 88 144.111, 88.667 145, 89.500 145 C 90.548 145, 91 146.056, 91 148.500 C 91 150.944, 90.548 152, 89.500 152 C 88.417 152, 88 153.111, 88 156 C 88 158.889, 88.417 160, 89.500 160 C 90.690 160, 91 161.444, 91 167 C 91 172.556, 90.690 174, 89.500 174 C 88.207 174, 88 177.444, 88 199 C 88 220.556, 88.207 224, 89.500 224 C 90.555 224, 91 225.066, 91 227.594 C 91 230.346, 91.468 231.310, 93 231.710 C 94.100 231.998, 95 232.856, 95 233.617 C 95 234.377, 95.900 235, 97 235 C 98.111 235, 99 234.333, 99 233.500 C 99 232.452, 100.056 232, 102.500 232 C 105.333 232, 106 231.619, 106 230 C 106 228.889, 106.667 228, 107.500 228 C 108.548 228, 109 226.944, 109 224.500 C 109 221.167, 108.833 221, 105.500 221 C 103.056 221, 102 221.452, 102 222.500 C 102 224.854, 99.301 224.253, 98.630 221.750 C 97.824 218.741, 97.843 167.674, 98.654 157.250 C 99.117 151.302, 99.674 149, 100.648 149 C 101.620 149, 102 147.454, 102 143.500 C 102 139.474, 101.628 138, 100.611 138 C 99.816 138, 98.942 136.505, 98.566 134.500 C 98.082 131.918, 97.397 131, 95.955 131 C 94.880 131, 94 131.675, 94 132.500 M 178 157.500 C 178 161.722, 178.348 163, 179.500 163 C 180.652 163, 181 164.278, 181 168.500 C 181 173.333, 181.242 174, 183 174 C 184.758 174, 185 174.667, 185 179.500 C 185 183.722, 185.348 185, 186.500 185 C 187.412 185, 188 185.931, 188 187.375 C 188 191.880, 189.254 196, 190.625 196 C 191.749 196, 192 199.924, 192 217.500 C 192 235.944, 191.787 239, 190.500 239 C 189.534 239, 188.995 239.978, 188.986 241.750 C 188.952 248.706, 188.562 249, 179.383 249 C 172.598 249, 171 248.714, 171 247.500 C 171 246.348, 169.722 246, 165.500 246 C 161.430 246, 160 245.633, 160 244.588 C 160 243.720, 158.459 242.915, 156 242.500 C 153.541 242.085, 152 241.280, 152 240.412 C 152 239.500, 150.904 239, 148.906 239 C 146.654 239, 145.671 238.456, 145.290 237 C 145.002 235.900, 144.144 235, 143.383 235 C 142.623 235, 142 234.325, 142 233.500 C 142 232.667, 141.111 232, 140 232 C 138.667 232, 138 231.333, 138 230 C 138 228.900, 137.377 228, 136.617 228 C 135.856 228, 134.990 227.069, 134.692 225.931 C 134.258 224.272, 133.494 223.925, 130.834 224.181 C 127.012 224.548, 125.289 228, 128.927 228 C 130.333 228, 131 228.643, 131 230 C 131 231.100, 131.655 232, 132.455 232 C 133.325 232, 134.173 233.405, 134.566 235.500 C 135.129 238.500, 135.618 239, 137.995 239 C 139.926 239, 140.925 239.607, 141.290 241 C 141.577 242.100, 142.530 243, 143.406 243 C 144.283 243, 145 243.675, 145 244.500 C 145 245.548, 146.056 246, 148.500 246 C 150.820 246, 152 246.468, 152 247.389 C 152 248.184, 153.495 249.058, 155.500 249.434 C 157.425 249.795, 159 250.688, 159 251.418 C 159 252.285, 160.782 252.917, 164.135 253.239 C 167.456 253.558, 169.594 254.310, 170.185 255.366 C 171.460 257.645, 189 257.812, 189 255.545 C 189 254.675, 190.405 253.827, 192.500 253.434 C 194.505 253.058, 196 252.184, 196 251.389 C 196 250.625, 196.675 250, 197.500 250 C 198.689 250, 199 248.561, 199 243.050 C 199 237.469, 199.345 235.907, 200.750 235.122 C 202.234 234.292, 202.551 232.313, 202.834 222.072 C 203.113 211.977, 202.927 210, 201.700 210 C 199.659 210, 199.029 206.897, 199.014 196.750 C 199.003 189.645, 198.718 188, 197.500 188 C 196.425 188, 196 186.903, 196 184.125 C 196 178.228, 194.904 174, 193.375 174 C 192.342 174, 192 172.290, 192 167.117 C 192 161.074, 192.244 160.169, 194 159.710 C 197.483 158.799, 196.439 156, 192.617 156 C 190.074 156, 189.103 155.503, 188.710 154 C 188.274 152.330, 187.346 152, 183.094 152 L 178 152 178 157.500" stroke="none" fill="black" fill-rule="evenodd"/>
</svg>