<svg xmlns="http://www.w3.org/2000/svg" width="300" height="300" viewBox="0 0 300 300" version="1.1">
	<path d="M 92 88.375 C 92 91.355, 92.366 91.823, 95.125 92.375 C 96.844 92.719, 100.219 93, 102.625 93 C 105.847 93, 107 93.395, 107 94.500 C 107 95.333, 107.889 96, 109 96 C 110.111 96, 111 95.333, 111 94.500 C 111 93.675, 111.675 93, 112.500 93 C 113.325 93, 114 93.675, 114 94.500 C 114 95.801, 118.056 96, 144.500 96 C 174.333 96, 175 96.044, 175 98 C 175 99.333, 174.333 100, 173 100 C 171.889 100, 171 100.667, 171 101.500 C 171 102.325, 170.325 103, 169.500 103 C 168.675 103, 168 103.655, 168 104.455 C 168 105.325, 166.595 106.173, 164.500 106.566 C 162.495 106.942, 161 107.816, 161 108.611 C 161 109.375, 160.100 110, 159 110 C 157.667 110, 157 110.667, 157 112 C 157 113.619, 156.333 114, 153.500 114 C 151.056 114, 150 114.452, 150 115.500 C 150 116.325, 149.283 117, 148.406 117 C 147.530 117, 146.577 117.900, 146.290 119 C 145.897 120.503, 144.926 121, 142.383 121 C 139.667 121, 139 121.394, 139 123 C 139 124.852, 138.333 125, 130 125 C 122.667 125, 121 125.278, 121 126.500 C 121 127.325, 120.325 128, 119.500 128 C 118.333 128, 118 129.333, 118 134 C 118 138.667, 118.333 140, 119.500 140 C 120.800 140, 121 144, 121 170 L 121 200 101.406 200 C 82.654 200, 81.790 200.086, 81.290 202 C 81.002 203.100, 80.144 204, 79.383 204 C 78.373 204, 78 205.484, 78 209.500 L 78 215 83.500 215 C 87.516 215, 89 214.627, 89 213.617 C 89 211.538, 92.280 211.029, 105.750 211.014 C 115.966 211.002, 118 210.751, 118 209.500 C 118 208.203, 121.761 208, 145.853 208 C 177.153 208, 186 207.418, 186 205.358 C 186 204.287, 188.639 204, 198.500 204 C 210.333 204, 211 204.107, 211 206 C 211 207.593, 211.662 207.997, 214.250 207.986 C 221.086 207.958, 222 207.238, 222 201.883 L 222 197 218.550 197 C 216.304 197, 214.757 196.389, 214.119 195.250 C 213.273 193.740, 211.545 193.500, 201.532 193.500 C 192.293 193.500, 189.737 193.806, 189.001 195 C 188.227 196.254, 184.012 196.550, 163.288 196.808 C 149.654 196.977, 137.037 196.844, 135.250 196.512 L 132 195.909 132 165.955 C 132 136.667, 132.045 136, 134 136 C 135.333 136, 136 135.333, 136 134 C 136 132.381, 136.667 132, 139.500 132 C 142.333 132, 143 131.619, 143 130 C 143 128.381, 143.667 128, 146.500 128 C 148.820 128, 150 127.532, 150 126.611 C 150 125.816, 151.495 124.942, 153.500 124.566 C 155.595 124.173, 157 123.325, 157 122.455 C 157 121.655, 157.900 121, 159 121 C 160.100 121, 161 120.375, 161 119.611 C 161 118.816, 162.495 117.942, 164.500 117.566 C 166.595 117.173, 168 116.325, 168 115.455 C 168 114.655, 168.900 114, 170 114 C 171.333 114, 172 113.333, 172 112 C 172 110.889, 172.667 110, 173.500 110 C 174.325 110, 175 109.325, 175 108.500 C 175 107.667, 175.889 107, 177 107 C 178.333 107, 179 106.333, 179 105 C 179 103.667, 179.667 103, 181 103 C 182.111 103, 183 102.333, 183 101.500 C 183 100.675, 183.675 100, 184.500 100 C 185.333 100, 186 99.111, 186 98 C 186 96.900, 186.655 96, 187.455 96 C 188.988 96, 190.462 90.619, 189.824 87.350 C 189.482 85.601, 187.918 85.503, 161.049 85.548 C 139.843 85.583, 132.533 85.900, 132.234 86.798 C 131.627 88.620, 125 88.347, 125 86.500 C 125 85.227, 122.500 85, 108.500 85 L 92 85 92 88.375" stroke="none" fill="black" fill-rule="evenodd"/>
</svg>