<svg xmlns="http://www.w3.org/2000/svg" width="300" height="300" viewBox="0 0 300 300" version="1.1">
	<path d="M 163 54.500 C 163 55.325, 162.325 56, 161.500 56 C 160.667 56, 160 56.889, 160 58 C 160 59.111, 160.667 60, 161.500 60 C 162.548 60, 163 61.056, 163 63.500 C 163 65.803, 163.470 67, 164.375 67 C 165.746 67, 167 71.120, 167 75.625 C 167 76.973, 167.594 78, 168.375 78 C 169.746 78, 171 82.120, 171 86.625 C 171 88.069, 171.588 89, 172.500 89 C 173.548 89, 174 90.056, 174 92.500 C 174 95.833, 174.167 96, 177.500 96 L 181 96 181 89 C 181 83.444, 180.690 82, 179.500 82 C 178.445 82, 178 80.934, 178 78.406 C 178 75.654, 177.532 74.690, 176 74.290 C 174.312 73.848, 174 72.926, 174 68.383 C 174 64.490, 173.621 63, 172.629 63 C 171.739 63, 171.025 61.246, 170.594 58 C 169.943 53.089, 169.869 53, 166.466 53 C 164.052 53, 163 53.455, 163 54.500 M 196 54.500 C 196 55.333, 195.111 56, 194 56 C 192.248 56, 192 56.667, 192 61.383 C 192 65.926, 192.312 66.848, 194 67.290 C 195.532 67.690, 196 68.654, 196 71.406 C 196 73.934, 196.445 75, 197.500 75 C 198.629 75, 199 76.209, 199 79.883 C 199 83.926, 199.344 84.857, 201 85.290 C 202.670 85.726, 203 86.654, 203 90.906 L 203 96 206.500 96 L 210 96 210 91 C 210 87.455, 209.605 86, 208.642 86 C 207.304 86, 206 78.277, 206 70.353 C 206 68.039, 205.535 67, 204.500 67 C 203.534 67, 202.995 66.022, 202.986 64.250 C 202.965 59.968, 201.899 57, 200.383 57 C 199.623 57, 199 56.100, 199 55 C 199 53.889, 198.333 53, 197.500 53 C 196.675 53, 196 53.675, 196 54.500 M 106 80 C 106 81.333, 105.333 82, 104 82 C 102.381 82, 102 82.667, 102 85.500 C 102 87.813, 101.531 89, 100.617 89 C 99.856 89, 98.962 90.013, 98.630 91.250 C 98.299 92.487, 98.021 109.362, 98.014 128.750 C 98.002 159.411, 97.805 164, 96.500 164 C 95.348 164, 95 165.278, 95 169.500 C 95 173.722, 95.348 175, 96.500 175 C 97.764 175, 98 177.278, 98 189.500 C 98 201.722, 97.764 204, 96.500 204 C 95.255 204, 95 205.931, 95 215.375 C 95 228.446, 94.322 233, 92.375 233 C 91.375 233, 91 234.500, 91 238.500 C 91 242.722, 91.348 244, 92.500 244 C 93.325 244, 94 244.675, 94 245.500 C 94 246.433, 94.944 247, 96.500 247 C 98.056 247, 99 246.433, 99 245.500 C 99 244.675, 99.675 244, 100.500 244 C 101.756 244, 102 241.889, 102 231 C 102 220.636, 102.279 218, 103.375 218 C 105.457 218, 106 213.320, 106 195.375 L 106 179 118.500 179 C 128.944 179, 131 179.247, 131 180.500 C 131 181.412, 131.931 182, 133.375 182 C 137.880 182, 142 183.254, 142 184.625 C 142 185.625, 143.500 186, 147.500 186 C 151.516 186, 153 186.373, 153 187.383 C 153 188.899, 155.968 189.965, 160.250 189.986 C 162.022 189.995, 163 190.534, 163 191.500 C 163 192.583, 164.111 193, 167 193 C 170.905 193, 171 192.917, 171 189.500 C 171 186.083, 170.905 186, 167 186 C 163.667 186, 163 185.667, 163 184 C 163 182.381, 162.333 182, 159.500 182 C 157.056 182, 156 181.548, 156 180.500 C 156 179.477, 154.966 178.996, 152.750 178.986 C 148 178.966, 145 177.959, 145 176.383 C 145 175.373, 143.516 175, 139.500 175 C 135.455 175, 134 174.630, 134 173.601 C 134 172.604, 131.995 172.002, 127 171.500 C 122.005 170.998, 120 170.396, 120 169.399 C 120 168.370, 118.545 168, 114.500 168 C 110.278 168, 109 167.652, 109 166.500 C 109 165.675, 108.325 165, 107.500 165 C 106.194 165, 106 160.278, 106 128.500 C 106 96.722, 106.194 92, 107.500 92 C 108.633 92, 109 90.778, 109 87 C 109 82.667, 109.267 82, 111 82 C 112.333 82, 113 81.333, 113 80 C 113 78.381, 112.333 78, 109.500 78 C 106.667 78, 106 78.381, 106 80" stroke="none" fill="black" fill-rule="evenodd"/>
</svg>