<svg xmlns="http://www.w3.org/2000/svg" width="300" height="300" viewBox="0 0 300 300" version="1.1">
	<path d="M 202.845 74.671 C 199.647 75.519, 199.430 85, 202.608 85 C 203.374 85, 204 85.900, 204 87 C 204 88.111, 204.667 89, 205.500 89 C 206.325 89, 207 89.717, 207 90.594 C 207 91.470, 207.900 92.423, 209 92.710 C 210.100 92.998, 211 93.856, 211 94.617 C 211 95.377, 211.900 96, 213 96 C 214.333 96, 215 96.667, 215 98 C 215 99.111, 215.667 100, 216.500 100 C 217.325 100, 218 100.675, 218 101.500 C 218 102.333, 218.889 103, 220 103 C 221.333 103, 222 103.667, 222 105 C 222 106.606, 222.667 107, 225.383 107 C 227.995 107, 228.894 107.486, 229.324 109.130 C 229.709 110.605, 230.386 111.066, 231.522 110.630 C 232.425 110.283, 233.802 110, 234.582 110 C 237.296 110, 235.980 107.246, 232.979 106.646 C 230.643 106.179, 229.825 105.377, 229.372 103.109 C 229.029 101.395, 227.999 99.972, 226.893 99.682 C 225.852 99.410, 225 98.470, 225 97.594 C 225 96.717, 224.325 96, 223.500 96 C 222.667 96, 222 95.111, 222 94 C 222 92.900, 221.377 92, 220.617 92 C 219.856 92, 218.998 91.100, 218.710 90 C 218.423 88.900, 217.470 88, 216.594 88 C 215.479 88, 215 87.070, 215 84.906 C 215 82.654, 214.456 81.671, 213 81.290 C 211.608 80.926, 211 79.926, 211 78 C 211 74.593, 207.904 73.329, 202.845 74.671 M 175.324 86.870 C 175.017 88.042, 174.144 89, 173.383 89 C 172.623 89, 171.994 89.563, 171.986 90.250 C 171.979 90.938, 171.701 92.513, 171.370 93.750 C 170.816 95.817, 171.102 96, 174.883 96 C 177.722 96, 179 96.430, 179 97.383 C 179 98.959, 182 99.966, 186.750 99.986 C 188.966 99.996, 190 100.477, 190 101.500 C 190 102.690, 191.444 103, 197 103 L 204 103 204 98 C 204 94.222, 203.633 93, 202.500 93 C 201.675 93, 201 93.675, 201 94.500 C 201 95.583, 199.889 96, 197 96 C 193.667 96, 193 95.667, 193 94 C 193 92.381, 192.333 92, 189.500 92 C 187.056 92, 186 91.548, 186 90.500 C 186 89.667, 185.111 89, 184 89 C 182.889 89, 182 88.333, 182 87.500 C 182 86.675, 181.362 86, 180.582 86 C 179.802 86, 178.425 85.717, 177.522 85.370 C 176.386 84.934, 175.709 85.395, 175.324 86.870 M 125 133.389 C 125 134.184, 123.505 135.058, 121.500 135.434 C 119.405 135.827, 118 136.675, 118 137.545 C 118 138.576, 116.834 139, 114 139 C 111.261 139, 110 139.436, 110 140.383 C 110 141.899, 107.032 142.965, 102.750 142.986 C 101.077 142.995, 100 143.544, 100 144.389 C 100 145.184, 98.505 146.058, 96.500 146.434 C 94.405 146.827, 93 147.675, 93 148.545 C 93 149.576, 91.834 150, 89 150 C 86.254 150, 85 150.435, 85 151.389 C 85 152.184, 83.505 153.058, 81.500 153.434 C 79.405 153.827, 78 154.675, 78 155.545 C 78 156.532, 76.910 157, 74.611 157 C 71.530 157, 71.163 157.318, 70.566 160.500 C 70.173 162.595, 69.325 164, 68.455 164 C 67.655 164, 67 164.900, 67 166 C 67 167.758, 67.667 168, 72.500 168 C 77.333 168, 78 167.758, 78 166 C 78 164.667, 78.667 164, 80 164 C 81.111 164, 82 163.333, 82 162.500 C 82 161.452, 83.056 161, 85.500 161 C 87.813 161, 89 160.531, 89 159.617 C 89 158.101, 91.968 157.035, 96.250 157.014 C 98.022 157.005, 99 156.466, 99 155.500 C 99 154.417, 100.111 154, 103 154 C 106.333 154, 107 153.667, 107 152 C 107 150.381, 107.667 150, 110.500 150 C 112.848 150, 114 149.535, 114 148.588 C 114 147.720, 115.541 146.915, 118 146.500 C 120.459 146.085, 122 145.280, 122 144.412 C 122 143.307, 123.846 143, 130.500 143 L 139 143 139 146.500 C 139 148.896, 139.459 150, 140.455 150 C 141.325 150, 142.173 151.405, 142.566 153.500 C 142.942 155.505, 143.816 157, 144.611 157 C 145.375 157, 146 157.900, 146 159 C 146 160.333, 146.667 161, 148 161 C 149.333 161, 150 161.667, 150 163 C 150 164.100, 150.639 165, 151.421 165 C 152.202 165, 153.138 166.350, 153.500 168 C 153.862 169.650, 154.798 171, 155.579 171 C 156.361 171, 157 171.900, 157 173 C 157 174.333, 157.667 175, 159 175 C 160.333 175, 161 175.667, 161 177 C 161 178.111, 161.667 179, 162.500 179 C 163.325 179, 164 179.675, 164 180.500 C 164 181.333, 164.889 182, 166 182 C 167.333 182, 168 182.667, 168 184 C 168 185.333, 168.667 186, 170 186 C 171.333 186, 172 186.667, 172 188 C 172 189.111, 172.667 190, 173.500 190 C 174.325 190, 175 190.625, 175 191.389 C 175 192.184, 176.495 193.058, 178.500 193.434 C 180.595 193.827, 182 194.675, 182 195.545 C 182 196.345, 182.900 197, 184 197 C 185.100 197, 186 197.625, 186 198.389 C 186 199.184, 187.495 200.058, 189.500 200.434 C 191.595 200.827, 193 201.675, 193 202.545 C 193 203.345, 193.900 204, 195 204 C 196.333 204, 197 204.667, 197 206 C 197 207.333, 197.667 208, 199 208 C 200.111 208, 201 208.667, 201 209.500 C 201 210.548, 202.056 211, 204.500 211 C 206.896 211, 208 211.459, 208 212.455 C 208 213.325, 209.405 214.173, 211.500 214.566 C 213.505 214.942, 215 215.816, 215 216.611 C 215 217.532, 216.180 218, 218.500 218 C 221.333 218, 222 218.381, 222 220 C 222 221.100, 222.623 222, 223.383 222 C 224.144 222, 225.010 222.931, 225.308 224.069 C 225.742 225.729, 226.506 226.075, 229.174 225.819 C 232.228 225.526, 232.525 225.193, 232.810 221.750 C 233.077 218.530, 232.830 218, 231.060 218 C 229.896 218, 229 217.348, 229 216.500 C 229 215.667, 228.111 215, 227 215 C 225.667 215, 225 214.333, 225 213 C 225 211.267, 224.333 211, 220 211 C 215.667 211, 215 210.733, 215 209 C 215 207.667, 214.333 207, 213 207 C 211.889 207, 211 206.333, 211 205.500 C 211 204.667, 210.111 204, 209 204 C 207.900 204, 207 203.361, 207 202.579 C 207 201.798, 205.650 200.862, 204 200.500 C 202.350 200.138, 201 199.202, 201 198.421 C 201 197.639, 200.152 197, 199.117 197 C 198.074 197, 197 196.107, 196.710 195 C 196.329 193.544, 195.346 193, 193.094 193 C 191.010 193, 190 192.510, 190 191.500 C 190 190.667, 189.111 190, 188 190 C 186.667 190, 186 189.333, 186 188 C 186 186.667, 185.333 186, 184 186 C 182.900 186, 182 185.361, 182 184.579 C 182 183.798, 180.650 182.862, 179 182.500 C 177.350 182.138, 176 181.202, 176 180.421 C 176 179.639, 175.100 179, 174 179 C 172.667 179, 172 178.333, 172 177 C 172 175.667, 171.333 175, 170 175 C 168.667 175, 168 174.333, 168 173 C 168 171.900, 167.361 171, 166.579 171 C 165.798 171, 164.862 169.650, 164.500 168 C 164.138 166.350, 163.202 165, 162.421 165 C 161.639 165, 161 164.100, 161 163 C 161 161.667, 160.333 161, 159 161 C 157.667 161, 157 160.333, 157 159 C 157 157.889, 156.333 157, 155.500 157 C 154.667 157, 154 156.111, 154 155 C 154 153.667, 153.333 153, 152 153 C 150.267 153, 150 152.333, 150 148 C 150 144.092, 149.652 143, 148.406 143 C 147.530 143, 146.577 142.100, 146.290 141 C 146.002 139.900, 145.144 139, 144.383 139 C 143.469 139, 143 137.813, 143 135.500 L 143 132 134 132 C 126.987 132, 125 132.307, 125 133.389" stroke="none" fill="black" fill-rule="evenodd"/>
</svg>