<svg xmlns="http://www.w3.org/2000/svg" width="300" height="300" viewBox="0 0 300 300" version="1.1">
	<path d="M 235.638 57.500 C 235.322 58.325, 234.374 59, 233.531 59 C 232.448 59, 232 60.024, 232 62.500 C 232 64.944, 232.452 66, 233.500 66 C 234.333 66, 235 66.889, 235 68 C 235 69.100, 235.623 70, 236.383 70 C 237.899 70, 238.965 72.968, 238.986 77.250 C 238.995 79.022, 239.534 80, 240.500 80 C 241.523 80, 242.004 81.034, 242.014 83.250 C 242.034 88, 243.041 91, 244.617 91 C 245.570 91, 246 92.278, 246 95.117 C 246 98.898, 246.183 99.184, 248.250 98.630 C 249.488 98.299, 251.063 98.021, 251.750 98.014 C 252.509 98.005, 253 96.626, 253 94.500 C 253 92.056, 252.548 91, 251.500 91 C 250.588 91, 250 90.069, 250 88.625 C 250 84.120, 248.746 80, 247.375 80 C 246.339 80, 246 78.273, 246 73 C 246 67.638, 245.670 66, 244.588 66 C 243.720 66, 242.915 64.459, 242.500 62 C 241.987 58.964, 241.364 58, 239.912 58 C 238.860 58, 238 57.550, 238 57 C 238 55.455, 236.284 55.819, 235.638 57.500 M 203 71.500 C 203 76.333, 203.242 77, 205 77 C 206.333 77, 207 77.667, 207 79 C 207 80.111, 207.667 81, 208.500 81 C 209.487 81, 210 81.987, 210 83.883 C 210 85.926, 210.583 86.919, 212 87.290 C 213.100 87.577, 214 88.530, 214 89.406 C 214 90.283, 214.675 91, 215.500 91 C 216.548 91, 217 92.056, 217 94.500 C 217 97.333, 217.381 98, 219 98 C 220.333 98, 221 98.667, 221 100 C 221 101.619, 221.667 102, 224.500 102 C 227.917 102, 228 101.905, 228 98 C 228 95.211, 227.570 94, 226.579 94 C 225.798 94, 224.862 92.650, 224.500 91 C 224.138 89.350, 223.202 88, 222.421 88 C 221.473 88, 221 86.873, 221 84.617 C 221 82.074, 220.503 81.103, 219 80.710 C 217.544 80.329, 217 79.346, 217 77.094 C 217 75.138, 216.495 74, 215.628 74 C 214.800 74, 214.002 72.413, 213.616 70 L 212.976 66 207.988 66 L 203 66 203 71.500 M 185 114.500 C 185 115.791, 181.681 116, 161.125 116 C 135.811 116, 131 116.419, 131 118.625 C 131 119.741, 127.606 120, 113 120 C 97.667 120, 95 120.222, 95 121.500 C 95 122.597, 93.858 123.002, 90.750 123.006 C 80.141 123.021, 70 124.312, 70 125.648 C 70 126.623, 68.439 127, 64.406 127 C 59.654 127, 58.734 127.301, 58.290 129 C 58.002 130.100, 57.144 131, 56.383 131 C 55.623 131, 55 131.625, 55 132.389 C 55 133.184, 53.505 134.058, 51.500 134.434 C 48.476 135.001, 48 135.477, 48 137.929 C 48 140.967, 49.798 141.960, 55.344 141.986 C 57.353 141.996, 58.341 141.413, 58.710 140 C 59.103 138.497, 60.074 138, 62.617 138 C 64.821 138, 66 137.521, 66 136.625 C 66 134.850, 70.411 134, 79.625 134 C 85.514 134, 87 133.698, 87 132.500 C 87 131.278, 88.661 131, 95.950 131 C 103.326 131, 105.068 130.702, 105.850 129.304 C 106.695 127.794, 109.704 127.561, 133.399 127.178 C 155.086 126.828, 160 126.494, 160 125.374 C 160 124.309, 162.051 124, 169.117 124 C 178.083 124, 178.223 124.037, 177.630 126.250 C 177.299 127.487, 177.021 129.063, 177.014 129.750 C 177.006 130.438, 176.325 131, 175.500 131 C 174.675 131, 174 131.623, 174 132.383 C 174 133.144, 173.100 134.002, 172 134.290 C 170.900 134.577, 170 135.530, 170 136.406 C 170 137.283, 169.325 138, 168.500 138 C 167.667 138, 167 138.889, 167 140 C 167 141.333, 166.333 142, 165 142 C 163.444 142, 163 142.667, 163 145 C 163 147.078, 162.510 148, 161.406 148 C 160.530 148, 159.577 148.900, 159.290 150 C 159.002 151.100, 158.144 152, 157.383 152 C 156.623 152, 156 152.900, 156 154 C 156 155.333, 155.333 156, 154 156 C 152.667 156, 152 156.667, 152 158 C 152 159.111, 151.333 160, 150.500 160 C 149.675 160, 149 160.623, 149 161.383 C 149 162.144, 148.100 163.002, 147 163.290 C 145.565 163.665, 145 164.654, 145 166.790 C 145 168.926, 144.435 169.914, 143 170.290 C 141.900 170.577, 141 171.530, 141 172.406 C 141 173.283, 140.325 174, 139.500 174 C 138.667 174, 138 174.889, 138 176 C 138 177.333, 137.333 178, 136 178 C 134.889 178, 134 178.667, 134 179.500 C 134 180.325, 133.325 181, 132.500 181 C 131.667 181, 131 181.889, 131 183 C 131 184.100, 130.377 185, 129.617 185 C 128.856 185, 127.998 185.900, 127.710 187 C 127.423 188.100, 126.491 189, 125.639 189 C 124.661 189, 123.849 190.290, 123.434 192.500 C 123.058 194.505, 122.184 196, 121.389 196 C 120.625 196, 120 196.900, 120 198 C 120 199.100, 119.361 200, 118.579 200 C 117.798 200, 116.872 201.304, 116.522 202.898 C 116.152 204.584, 115.073 206.009, 113.943 206.305 C 112.874 206.584, 112 207.530, 112 208.406 C 112 209.283, 111.325 210, 110.500 210 C 109.675 210, 109 210.675, 109 211.500 C 109 212.325, 108.325 213, 107.500 213 C 106.667 213, 106 213.889, 106 215 C 106 216.333, 105.333 217, 104 217 C 102.667 217, 102 217.667, 102 219 C 102 220.111, 101.333 221, 100.500 221 C 99.675 221, 99 221.717, 99 222.594 C 99 223.470, 98.100 224.423, 97 224.710 C 95.583 225.081, 95 226.074, 95 228.117 C 95 230.333, 94.538 231, 93 231 C 91.667 231, 91 231.667, 91 233 C 91 234.111, 90.333 235, 89.500 235 C 88.452 235, 88 236.056, 88 238.500 L 88 242 93 242 C 96.778 242, 98 241.633, 98 240.500 C 98 239.667, 98.889 239, 100 239 C 101.619 239, 102 238.333, 102 235.500 C 102 232.667, 102.381 232, 104 232 C 105.333 232, 106 231.333, 106 230 C 106 228.889, 106.667 228, 107.500 228 C 108.333 228, 109 227.111, 109 226 C 109 224.900, 109.639 224, 110.421 224 C 111.202 224, 112.128 222.696, 112.478 221.102 C 112.848 219.416, 113.927 217.991, 115.057 217.695 C 116.126 217.416, 117 216.470, 117 215.594 C 117 214.717, 117.675 214, 118.500 214 C 119.333 214, 120 213.111, 120 212 C 120 210.667, 120.667 210, 122 210 C 123.333 210, 124 209.333, 124 208 C 124 206.900, 124.639 206, 125.421 206 C 126.202 206, 127.129 204.688, 127.482 203.084 C 127.834 201.479, 128.770 199.919, 129.561 199.615 C 130.352 199.311, 131 198.374, 131 197.531 C 131 196.689, 131.675 196, 132.500 196 C 133.333 196, 134 195.111, 134 194 C 134 192.667, 134.667 192, 136 192 C 137.333 192, 138 191.333, 138 190 C 138 188.900, 138.623 188, 139.383 188 C 140.144 188, 141.002 187.100, 141.290 186 C 141.577 184.900, 142.530 184, 143.406 184 C 144.510 184, 145 183.078, 145 181 C 145 178.667, 145.444 178, 147 178 C 148.333 178, 149 177.333, 149 176 C 149 174.889, 149.667 174, 150.500 174 C 151.325 174, 152 173.283, 152 172.406 C 152 171.530, 152.900 170.577, 154 170.290 C 155.392 169.926, 156 168.926, 156 167 C 156 165.074, 156.608 164.074, 158 163.710 C 159.100 163.423, 160 162.523, 160 161.710 C 160 160.898, 160.900 159.998, 162 159.710 C 163.100 159.423, 164 158.470, 164 157.594 C 164 156.717, 164.675 156, 165.500 156 C 166.333 156, 167 155.111, 167 154 C 167 152.889, 167.667 152, 168.500 152 C 169.325 152, 170 151.325, 170 150.500 C 170 149.667, 170.889 149, 172 149 C 173.333 149, 174 148.333, 174 147 C 174 145.889, 174.667 145, 175.500 145 C 176.325 145, 177 144.283, 177 143.406 C 177 142.530, 177.900 141.577, 179 141.290 C 180.417 140.919, 181 139.926, 181 137.883 C 181 135.667, 181.462 135, 183 135 C 184.333 135, 185 134.333, 185 133 C 185 131.667, 185.667 131, 187 131 C 188.111 131, 189 130.333, 189 129.500 C 189 128.675, 189.675 128, 190.500 128 C 191.333 128, 192 127.111, 192 126 C 192 124.667, 192.667 124, 194 124 C 195.333 124, 196 123.333, 196 122 C 196 120.889, 196.667 120, 197.500 120 C 198.548 120, 199 118.944, 199 116.500 L 199 113 192 113 C 186.444 113, 185 113.310, 185 114.500" stroke="none" fill="black" fill-rule="evenodd"/>
</svg>