<svg xmlns="http://www.w3.org/2000/svg" width="300" height="300" viewBox="0 0 300 300" version="1.1">
	<path d="M 210 40 C 210 46.970, 210.310 49, 211.375 49 C 212.746 49, 214 53.120, 214 57.625 C 214 59.069, 214.588 60, 215.500 60 C 216.544 60, 217 61.050, 217 63.450 C 217 65.579, 217.615 67.245, 218.606 67.799 C 219.572 68.340, 220.420 70.551, 220.736 73.349 C 221.051 76.143, 221.763 78, 222.519 78 C 223.211 78, 224.073 79.575, 224.434 81.500 C 225.034 84.698, 225.389 85, 228.545 85 C 231.651 85, 231.999 84.722, 231.986 82.250 C 231.965 77.968, 230.899 75, 229.383 75 C 228.373 75, 228 73.516, 228 69.500 C 228 65.278, 227.652 64, 226.500 64 C 225.588 64, 225 63.069, 225 61.625 C 225 57.254, 223.763 53, 222.491 53 C 221.650 53, 221.094 50.814, 220.813 46.400 C 220.503 41.538, 219.945 39.549, 218.696 38.850 C 217.612 38.243, 217 36.655, 217 34.450 C 217 31.174, 216.824 31, 213.500 31 L 210 31 210 40 M 188.290 40 C 188.002 41.100, 187.144 42, 186.383 42 C 185.623 42, 185 42.675, 185 43.500 C 185 44.325, 185.675 45, 186.500 45 C 187.333 45, 188 45.889, 188 47 C 188 48.333, 188.667 49, 190 49 C 191.606 49, 192 49.667, 192 52.383 C 192 54.926, 192.497 55.897, 194 56.290 C 195.100 56.577, 196 57.530, 196 58.406 C 196 59.283, 196.675 60, 197.500 60 C 198.548 60, 199 61.056, 199 63.500 C 199 66.333, 199.381 67, 201 67 C 202.333 67, 203 67.667, 203 69 C 203 70.100, 203.623 71, 204.383 71 C 205.144 71, 206.002 71.900, 206.290 73 C 206.577 74.100, 207.530 75, 208.406 75 C 209.283 75, 210 75.675, 210 76.500 C 210 77.325, 210.675 78, 211.500 78 C 212.325 78, 213 78.675, 213 79.500 C 213 81.842, 216.691 81.289, 217.329 78.851 C 218.122 75.819, 216.991 71, 215.486 71 C 214.791 71, 213.927 69.425, 213.566 67.500 C 213.173 65.405, 212.325 64, 211.455 64 C 210.655 64, 210 63.100, 210 62 C 210 60.900, 209.345 60, 208.545 60 C 207.675 60, 206.827 58.595, 206.434 56.500 C 206.073 54.575, 205.205 53, 204.505 53 C 203.806 53, 202.998 52.100, 202.710 51 C 202.423 49.900, 201.470 49, 200.594 49 C 199.353 49, 199 47.918, 199 44.117 C 199 39.898, 198.694 39.151, 196.750 38.630 C 192.117 37.389, 188.834 37.920, 188.290 40 M 102 69 C 102 70.333, 101.333 71, 100 71 C 98.889 71, 98 71.667, 98 72.500 C 98 73.325, 97.325 74, 96.500 74 C 95.348 74, 95 75.278, 95 79.500 C 95 83.722, 95.348 85, 96.500 85 C 97.684 85, 98.003 86.423, 98.014 91.750 C 98.021 95.463, 98.299 99.513, 98.630 100.750 C 99.217 102.939, 99.027 103, 91.617 103 C 85.593 103, 84 103.306, 84 104.466 C 84 105.468, 82.428 106.140, 79.022 106.592 C 74.338 107.213, 74.006 107.452, 73.410 110.626 C 73.052 112.534, 72.174 114, 71.389 114 C 69.118 114, 69.812 116.716, 72.250 117.370 C 76.883 118.611, 80.166 118.080, 80.710 116 C 81.191 114.162, 82.074 114, 91.617 114 L 102 114 102 119.500 C 102 123.490, 102.376 125, 103.370 125 C 104.891 125, 106.072 132.173, 105.255 136.448 L 104.767 139 90.374 139 C 77.218 139, 75.833 139.172, 74.268 141 C 73.326 142.100, 71.981 143, 71.278 143 C 70.484 143, 70 144.326, 70 146.500 L 70 150 86 150 C 99.556 150, 102 149.771, 102 148.500 C 102 147.463, 103.042 147, 105.380 147 L 108.760 147 109.202 153.111 C 109.516 157.461, 110.127 159.491, 111.322 160.160 C 112.540 160.842, 113 162.456, 113 166.050 C 113 169.783, 113.369 171, 114.500 171 C 115.523 171, 116.004 172.034, 116.014 174.250 C 116.034 179, 117.041 182, 118.617 182 C 119.671 182, 120 183.781, 120 189.500 C 120 195.197, 120.331 197, 121.375 197 C 122.746 197, 124 201.120, 124 205.625 C 124 207.069, 124.588 208, 125.500 208 C 126.631 208, 127 209.217, 127 212.950 C 127 216.456, 127.469 218.163, 128.606 218.799 C 129.572 219.340, 130.420 221.551, 130.736 224.349 C 131.076 227.365, 131.742 229, 132.630 229 C 133.405 229, 134 230.031, 134 231.375 C 134 235.880, 135.254 240, 136.625 240 C 137.661 240, 138 241.727, 138 247 C 138 252.362, 138.330 254, 139.412 254 C 140.280 254, 141.085 255.541, 141.500 258 C 141.915 260.459, 142.720 262, 143.588 262 C 144.365 262, 145 262.717, 145 263.594 C 145 264.470, 145.900 265.423, 147 265.710 C 148.100 265.998, 149 266.856, 149 267.617 C 149 269.479, 151.915 269.385, 152.638 267.500 C 152.955 266.675, 153.841 266, 154.607 266 C 155.566 266, 156 264.752, 156 262 C 156 259.254, 155.565 258, 154.611 258 C 153.816 258, 152.942 256.505, 152.566 254.500 C 152.173 252.405, 151.325 251, 150.455 251 C 149.463 251, 149 249.902, 149 247.550 C 149 245.360, 148.387 243.756, 147.322 243.160 C 146.127 242.491, 145.516 240.461, 145.202 236.111 C 144.890 231.796, 144.354 230, 143.380 230 C 142.437 230, 142 228.734, 142 226 C 142 222.667, 141.667 222, 140 222 C 138.190 222, 138 221.333, 138 215 C 138 209.638, 137.670 208, 136.588 208 C 135.720 208, 134.915 206.459, 134.500 204 C 134.085 201.541, 133.280 200, 132.412 200 C 131.386 200, 131 198.646, 131 195.050 C 131 191.435, 130.542 189.843, 129.304 189.150 C 128.055 188.451, 127.497 186.462, 127.187 181.600 C 126.885 176.850, 126.379 175, 125.384 175 C 124.444 175, 124 173.758, 124 171.125 C 124 165.228, 122.904 161, 121.375 161 C 120.331 161, 120 159.197, 120 153.500 C 120 147.500, 120.300 146, 121.500 146 C 122.325 146, 123 145.325, 123 144.500 C 123 143.300, 124.500 143, 130.500 143 C 136.197 143, 138 142.669, 138 141.625 C 138 139.940, 142.342 139, 150.125 139 C 154.681 139, 156 138.663, 156 137.500 C 156 136.327, 157.364 135.999, 162.250 135.994 C 174.673 135.982, 185 134.783, 185 133.352 C 185 132.608, 185.675 132, 186.500 132 C 187.548 132, 188 130.944, 188 128.500 L 188 125 176 125 C 166 125, 164 125.250, 164 126.500 C 164 127.676, 162.625 128, 157.625 128 C 149.366 128, 145 128.908, 145 130.625 C 145 131.704, 142.742 132, 134.500 132 C 126.227 132, 124 132.293, 124 133.383 C 124 135.032, 119.597 136.050, 115.750 135.292 L 113 134.750 113 122.992 C 113 109.641, 112.715 110.041, 122.250 110.014 C 125.799 110.003, 127 109.621, 127 108.500 C 127 107.258, 128.889 107, 138 107 C 148.333 107, 149 106.879, 149 105 C 149 103.190, 149.667 103, 156 103 C 162.333 103, 163 103.190, 163 105 C 163 106.111, 162.333 107, 161.500 107 C 160.452 107, 160 108.056, 160 110.500 C 160 113.691, 160.255 114, 162.883 114 C 164.926 114, 165.919 113.417, 166.290 112 C 166.603 110.803, 167.654 110, 168.906 110 C 170.101 110, 171 109.356, 171 108.500 C 171 107.675, 171.675 107, 172.500 107 C 173.652 107, 174 105.722, 174 101.500 L 174 96 156 96 C 140.667 96, 138 96.222, 138 97.500 C 138 98.627, 136.794 99, 133.147 99 C 123.846 99, 116 100.209, 116 101.642 C 116 102.527, 114.781 103, 112.500 103 C 109.167 103, 109 102.833, 109 99.500 C 109 97.056, 108.548 96, 107.500 96 C 106.278 96, 106 94.333, 106 87 C 106 79.667, 106.278 78, 107.500 78 C 109.964 78, 109.509 71.366, 107 70.710 C 105.900 70.423, 105 69.470, 105 68.594 C 105 67.717, 104.325 67, 103.500 67 C 102.667 67, 102 67.889, 102 69" stroke="none" fill="black" fill-rule="evenodd"/>
</svg>