<svg xmlns="http://www.w3.org/2000/svg" width="300" height="300" viewBox="0 0 300 300" version="1.1">
	<path d="M 196 78.500 C 196 79.745, 194.071 80, 184.640 80 C 170.429 80, 164 80.821, 164 82.636 C 164 83.727, 161.002 84, 149 84 C 136.830 84, 134 84.263, 134 85.396 C 134 86.493, 130.896 86.947, 119.500 87.517 C 108.193 88.082, 105 88.545, 105 89.621 C 105 90.662, 103.283 91, 98 91 L 91 91 91 96.500 C 91 101.333, 91.242 102, 93 102 C 94.333 102, 95 102.667, 95 104 C 95 105.100, 95.625 106, 96.389 106 C 97.184 106, 98.058 107.495, 98.434 109.500 C 98.827 111.595, 99.675 113, 100.545 113 C 101.677 113, 102 111.474, 102 106.125 L 102 99.250 105.125 98.625 C 106.844 98.281, 110.219 98, 112.625 98 C 115.741 98, 117 97.591, 117 96.577 C 117 95.434, 119.641 95.091, 130.459 94.827 C 141.658 94.555, 144.135 94.217, 145.209 92.812 C 146.809 90.719, 151.655 91.441, 152.175 93.849 C 152.372 94.757, 152.375 101.013, 152.182 107.750 C 151.904 117.486, 151.542 120, 150.416 120 C 149.247 120, 149 123.140, 149 138 C 149 153.333, 148.778 156, 147.500 156 C 146.236 156, 146 158.269, 146 170.417 C 146 178.346, 146.411 184.983, 146.913 185.167 C 147.416 185.350, 148.151 194.118, 148.547 204.652 L 149.268 223.804 151.985 224.347 C 155.936 225.137, 158.733 224.122, 159.394 221.658 C 160.871 216.152, 159.562 206, 157.375 206 C 156.242 206, 156 201.242, 156 179 L 156 152 158.375 152 C 162.880 152, 167 153.254, 167 154.625 C 167 155.530, 168.197 156, 170.500 156 C 172.932 156, 174 156.454, 174 157.488 C 174 158.451, 175.412 159.202, 178 159.616 C 180.413 160.002, 182 160.800, 182 161.628 C 182 162.473, 183.106 163, 184.883 163 C 186.926 163, 187.919 163.583, 188.290 165 C 188.671 166.456, 189.654 167, 191.906 167 C 193.990 167, 195 167.490, 195 168.500 C 195 169.333, 195.889 170, 197 170 C 198.333 170, 199 170.667, 199 172 C 199 173.605, 199.667 174, 202.375 174 C 205.350 174, 205.824 173.632, 206.371 170.897 C 207.074 167.380, 206.530 166, 204.441 166 C 203.648 166, 203 165.325, 203 164.500 C 203 163.667, 202.111 163, 201 163 C 199.667 163, 199 162.333, 199 161 C 199 159.667, 198.333 159, 197 159 C 195.889 159, 195 158.333, 195 157.500 C 195 156.367, 193.778 156, 190 156 C 185.667 156, 185 155.733, 185 154 C 185 152.381, 184.333 152, 181.500 152 C 179.056 152, 178 151.548, 178 150.500 C 178 149.667, 177.111 149, 176 149 C 174.667 149, 174 148.333, 174 147 C 174 145.381, 173.333 145, 170.500 145 C 168.187 145, 167 144.531, 167 143.617 C 167 142.856, 166.100 141.998, 165 141.710 C 163.900 141.423, 163 140.470, 163 139.594 C 163 138.717, 162.325 138, 161.500 138 C 160.222 138, 160 135.333, 160 120 C 160 104.667, 160.222 102, 161.500 102 C 162.325 102, 163 101.365, 163 100.588 C 163 99.718, 164.547 98.914, 167.028 98.495 C 170.981 97.827, 171.044 97.751, 170.417 94.407 L 169.777 91 173.889 91 C 176.877 91, 178 90.590, 178 89.500 C 178 88.675, 178.675 88, 179.500 88 C 180.325 88, 181 88.675, 181 89.500 C 181 90.333, 181.889 91, 183 91 C 184.111 91, 185 90.333, 185 89.500 C 185 88.452, 186.056 88, 188.500 88 C 190.944 88, 192 88.452, 192 89.500 C 192 90.333, 192.889 91, 194 91 C 195.333 91, 196 91.667, 196 93 C 196 94.100, 196.623 95, 197.383 95 C 198.144 95, 199.002 94.100, 199.290 93 C 199.668 91.552, 200.654 91, 202.861 91 C 205.553 91, 205.986 90.591, 206.566 87.500 C 206.942 85.495, 207.816 84, 208.611 84 C 209.532 84, 210 82.820, 210 80.500 L 210 77 203 77 C 197.444 77, 196 77.310, 196 78.500" stroke="none" fill="black" fill-rule="evenodd"/>
</svg>