<svg xmlns="http://www.w3.org/2000/svg" width="300" height="300" viewBox="0 0 300 300" version="1.1">
	<path d="M 150 36.500 C 150 37.325, 149.283 38, 148.406 38 C 147.530 38, 146.577 38.900, 146.290 40 C 145.897 41.503, 144.926 42, 142.383 42 C 139.667 42, 139 42.394, 139 44 C 139 45.111, 138.333 46, 137.500 46 C 136.675 46, 136 46.675, 136 47.500 C 136 48.333, 135.111 49, 134 49 C 132.667 49, 132 49.667, 132 51 C 132 52.606, 131.333 53, 128.617 53 C 126.074 53, 125.103 53.497, 124.710 55 C 124.423 56.100, 123.470 57, 122.594 57 C 121.717 57, 121 57.675, 121 58.500 C 121 59.325, 120.325 60, 119.500 60 C 118.675 60, 118 60.717, 118 61.594 C 118 62.470, 117.100 63.423, 116 63.710 C 114.900 63.998, 114 64.806, 114 65.505 C 114 66.205, 112.425 67.073, 110.500 67.434 C 108.405 67.827, 107 68.675, 107 69.545 C 107 70.345, 106.100 71, 105 71 C 103.900 71, 103 71.625, 103 72.389 C 103 73.184, 101.505 74.058, 99.500 74.434 C 97.405 74.827, 96 75.675, 96 76.545 C 96 77.345, 95.377 78, 94.617 78 C 93.856 78, 92.998 78.900, 92.710 80 C 92.310 81.532, 91.346 82, 88.594 82 C 86.066 82, 85 82.445, 85 83.500 C 85 84.333, 84.111 85, 83 85 C 81.900 85, 81 85.639, 81 86.421 C 81 87.202, 79.650 88.138, 78 88.500 C 76.278 88.878, 75 89.804, 75 90.673 C 75 91.506, 74.100 92.423, 73 92.710 C 69.544 93.614, 70.632 96, 74.500 96 C 76.848 96, 78 95.535, 78 94.588 C 78 93.720, 79.541 92.915, 82 92.500 C 84.459 92.085, 86 91.280, 86 90.412 C 86 89.500, 87.096 89, 89.094 89 C 91.346 89, 92.329 88.456, 92.710 87 C 93.103 85.497, 94.074 85, 96.617 85 C 98.911 85, 100 84.532, 100 83.545 C 100 82.675, 101.405 81.827, 103.500 81.434 C 105.505 81.058, 107 80.184, 107 79.389 C 107 78.625, 107.900 78, 109 78 C 110.100 78, 111 77.361, 111 76.579 C 111 75.798, 112.350 74.862, 114 74.500 C 115.650 74.138, 117 73.202, 117 72.421 C 117 71.639, 117.900 71, 119 71 C 120.333 71, 121 70.333, 121 69 C 121 67.381, 121.667 67, 124.500 67 C 127.036 67, 128 66.561, 128 65.406 C 128 64.530, 128.900 63.577, 130 63.290 C 131.100 63.002, 132 62.144, 132 61.383 C 132 60.623, 132.900 60, 134 60 C 135.111 60, 136 59.333, 136 58.500 C 136 57.675, 136.675 57, 137.500 57 C 138.333 57, 139 56.111, 139 55 C 139 53.371, 139.667 53, 142.594 53 C 145.346 53, 146.310 52.532, 146.710 51 C 146.998 49.900, 147.856 49, 148.617 49 C 149.377 49, 150 49.900, 150 51 C 150 52.111, 150.667 53, 151.500 53 C 152.325 53, 153 52.283, 153 51.406 C 153 50.530, 153.900 49.577, 155 49.290 C 156.756 48.831, 157 47.926, 157 41.883 L 157 35 153.500 35 C 151.056 35, 150 35.452, 150 36.500 M 140 61.500 C 140 62.333, 139.111 63, 138 63 C 136.667 63, 136 63.667, 136 65 C 136 66.333, 135.333 67, 134 67 C 132.242 67, 132 67.667, 132 72.500 C 132 76.722, 131.652 78, 130.500 78 C 129.247 78, 129 80.042, 129 90.375 L 129 102.750 125.875 103.375 C 124.156 103.719, 121.719 104, 120.458 104 C 119.198 104, 117.980 104.563, 117.751 105.250 C 117.437 106.193, 111.285 106.577, 92.668 106.814 C 72.045 107.077, 68 107.364, 68 108.564 C 68 109.684, 66.351 110, 60.500 110 C 53.667 110, 53 110.178, 53 112 C 53 113.619, 52.333 114, 49.500 114 C 46.083 114, 46 114.095, 46 118 C 46 120.889, 46.417 122, 47.500 122 C 48.325 122, 49 122.675, 49 123.500 C 49 125.964, 55.634 125.509, 56.290 123 C 56.690 121.468, 57.654 121, 60.406 121 C 62.934 121, 64 120.555, 64 119.500 C 64 118.221, 66.708 118, 82.375 118 C 102.280 118, 107 117.497, 107 115.375 C 107 114.282, 109.561 114, 119.500 114 L 132 114 132 137.500 C 132 157.722, 132.209 161, 133.500 161 C 134.325 161, 135 161.675, 135 162.500 C 135 163.325, 134.325 164, 133.500 164 C 132.272 164, 132 165.722, 132 173.500 C 132 181.278, 131.728 183, 130.500 183 C 129.675 183, 129 183.675, 129 184.500 C 129 185.433, 128.056 186, 126.500 186 C 124.944 186, 124 186.567, 124 187.500 C 124 188.325, 123.325 189, 122.500 189 C 121.667 189, 121 189.889, 121 191 C 121 192.333, 120.333 193, 119 193 C 117.900 193, 117 193.639, 117 194.421 C 117 195.202, 115.696 196.128, 114.102 196.478 C 112.416 196.848, 110.991 197.927, 110.695 199.057 C 110.416 200.126, 109.470 201, 108.594 201 C 107.717 201, 107 201.675, 107 202.500 C 107 203.325, 106.377 204, 105.617 204 C 104.856 204, 103.998 204.900, 103.710 206 C 103.423 207.100, 102.470 208, 101.594 208 C 100.717 208, 100 208.675, 100 209.500 C 100 210.333, 99.111 211, 98 211 C 96.667 211, 96 211.667, 96 213 C 96 214.333, 95.333 215, 94 215 C 92.889 215, 92 215.667, 92 216.500 C 92 217.325, 91.325 218, 90.500 218 C 89.667 218, 89 218.889, 89 220 C 89 221.619, 88.333 222, 85.500 222 C 82.667 222, 82 222.381, 82 224 C 82 225.333, 81.333 226, 80 226 C 78.889 226, 78 226.667, 78 227.500 C 78 228.325, 77.283 229, 76.406 229 C 75.530 229, 74.577 229.900, 74.290 231 C 74.002 232.100, 73.144 233, 72.383 233 C 71.623 233, 71 233.675, 71 234.500 C 71 235.325, 70.283 236, 69.406 236 C 68.530 236, 67.577 236.900, 67.290 238 C 67 239.107, 65.926 240, 64.883 240 C 63.848 240, 63 240.675, 63 241.500 C 63 242.325, 62.325 243, 61.500 243 C 60.667 243, 60 243.889, 60 245 C 60 246.333, 59.333 247, 58 247 C 56.242 247, 56 247.667, 56 252.500 L 56 258 59.455 258 C 62.611 258, 62.966 257.698, 63.566 254.500 C 63.942 252.495, 64.816 251, 65.611 251 C 66.375 251, 67 250.100, 67 249 C 67 247.667, 67.667 247, 69 247 C 70.100 247, 71 246.377, 71 245.617 C 71 244.856, 71.900 243.998, 73 243.710 C 74.100 243.423, 75 242.470, 75 241.594 C 75 240.717, 75.675 240, 76.500 240 C 77.325 240, 78 239.325, 78 238.500 C 78 237.667, 78.889 237, 80 237 C 81.333 237, 82 236.333, 82 235 C 82 233.431, 82.667 233, 85.094 233 C 87.346 233, 88.329 232.456, 88.710 231 C 89 229.893, 90.074 229, 91.117 229 C 92.152 229, 93 228.325, 93 227.500 C 93 226.675, 93.675 226, 94.500 226 C 95.333 226, 96 225.111, 96 224 C 96 222.667, 96.667 222, 98 222 C 99.111 222, 100 221.333, 100 220.500 C 100 219.675, 100.717 219, 101.594 219 C 102.470 219, 103.423 218.100, 103.710 217 C 104.081 215.583, 105.074 215, 107.117 215 C 109.333 215, 110 214.538, 110 213 C 110 211.667, 110.667 211, 112 211 C 113.111 211, 114 210.333, 114 209.500 C 114 208.675, 114.717 208, 115.594 208 C 116.470 208, 117.423 207.100, 117.710 206 C 117.998 204.900, 118.803 204, 119.500 204 C 120.197 204, 121.002 203.100, 121.290 202 C 121.577 200.900, 122.530 200, 123.406 200 C 124.283 200, 125 199.325, 125 198.500 C 125 197.675, 125.717 197, 126.594 197 C 127.470 197, 128.423 196.100, 128.710 195 C 128.998 193.900, 129.856 193, 130.617 193 C 131.763 193, 132 197.976, 132 222 L 132 251 126.500 251 C 122.354 251, 121 250.642, 121 249.545 C 121 248.675, 119.595 247.827, 117.500 247.434 C 115.575 247.073, 114 246.205, 114 245.505 C 114 244.806, 113.100 243.998, 112 243.710 C 110.900 243.423, 110 242.470, 110 241.594 C 110 240.717, 109.325 240, 108.500 240 C 107.667 240, 107 239.111, 107 238 C 107 236.667, 106.333 236, 105 236 C 103.889 236, 103 235.333, 103 234.500 C 103 232.062, 100.270 232.790, 99.614 235.402 C 98.765 238.784, 99.985 244, 101.625 244 C 102.381 244, 103 244.675, 103 245.500 C 103 246.333, 103.889 247, 105 247 C 106.333 247, 107 247.667, 107 249 C 107 250.111, 107.667 251, 108.500 251 C 109.325 251, 110 251.717, 110 252.594 C 110 253.470, 110.900 254.423, 112 254.710 C 113.100 254.998, 114 255.856, 114 256.617 C 114 257.377, 114.900 258, 116 258 C 117.100 258, 118 258.655, 118 259.455 C 118 260.325, 119.405 261.173, 121.500 261.566 C 123.505 261.942, 125 262.816, 125 263.611 C 125 264.628, 126.474 265, 130.500 265 C 134.646 265, 136 264.642, 136 263.545 C 136 262.675, 137.405 261.827, 139.500 261.434 L 143 260.777 143 223.389 L 143 186 146.500 186 C 149.810 186, 150 185.817, 150 182.617 C 150 180.074, 149.503 179.103, 148 178.710 C 146.900 178.423, 146 177.470, 146 176.594 C 146 175.717, 145.325 175, 144.500 175 C 143.213 175, 143 171.944, 143 153.500 C 143 135.924, 142.749 132, 141.625 132 C 139.940 132, 139 127.658, 139 119.875 C 139 115.319, 139.337 114, 140.500 114 C 141.325 114, 142 113.389, 142 112.642 C 142 111.304, 149.723 110, 157.647 110 C 159.961 110, 161 109.535, 161 108.500 C 161 107.222, 163.667 107, 179 107 L 197 107 197 101.500 L 197 96 182.500 96 C 170.937 96, 168 96.276, 168 97.361 C 168 98.850, 161.255 99.976, 152.250 99.991 C 148.254 99.998, 147 100.358, 147 101.500 C 147 102.583, 145.889 103, 143 103 L 139 103 139 87.117 C 139 72.074, 139.106 71.206, 141 70.710 C 142.100 70.423, 143 69.470, 143 68.594 C 143 67.717, 143.675 67, 144.500 67 C 146.726 67, 146.318 64.316, 144 63.710 C 142.900 63.423, 142 62.470, 142 61.594 C 142 60.717, 141.550 60, 141 60 C 140.450 60, 140 60.675, 140 61.500 M 89 130 C 89 131.111, 88.333 132, 87.500 132 C 85.643 132, 85.385 138.628, 87.218 139.239 C 88.040 139.513, 88.565 143.122, 88.832 150.323 L 89.227 161 71.230 161 C 54.074 161, 53.209 161.093, 52.710 163 C 52.423 164.100, 51.450 165, 50.548 165 C 49.163 165, 48.955 166.036, 49.204 171.670 C 49.400 176.083, 49.946 178.488, 50.816 178.776 C 51.540 179.015, 52.380 178.263, 52.683 177.105 C 52.997 175.905, 54.043 175, 55.117 175 C 56.152 175, 57 174.377, 57 173.617 C 57 172.101, 59.968 171.035, 64.250 171.014 C 66.022 171.005, 67 170.466, 67 169.500 C 67 168.258, 68.889 168, 78 168 L 89 168 89 177 C 89 185.333, 88.852 186, 87 186 C 85.889 186, 85 186.667, 85 187.500 C 85 188.762, 82.778 189, 71 189 C 59.222 189, 57 188.762, 57 187.500 C 57 186.353, 55.736 186, 51.625 186 C 46.559 186, 46.219 186.158, 45.708 188.750 C 45.410 190.262, 45.406 192.738, 45.700 194.250 L 46.233 197 55.117 197 C 62.346 197, 64 197.279, 64 198.500 C 64 199.548, 65.056 200, 67.500 200 C 69.944 200, 71 199.548, 71 198.500 C 71 197.310, 72.444 197, 78 197 L 85 197 85 202 C 85 206.333, 85.267 207, 87 207 C 88.556 207, 89 206.333, 89 204 C 89 202, 89.500 201, 90.500 201 C 91.325 201, 92 200.150, 92 199.111 C 92 197.756, 92.958 197.043, 95.390 196.587 C 97.750 196.144, 98.961 195.274, 99.376 193.725 C 100.284 190.338, 100.159 190, 98 190 C 96.121 190, 96 189.333, 96 179 C 96 168.667, 96.121 168, 98 168 C 99.887 168, 99.999 167.338, 99.986 156.250 C 99.971 143.272, 99.447 140, 97.383 140 C 96.359 140, 96 138.442, 96 134 L 96 128 92.500 128 C 89.667 128, 89 128.381, 89 130 M 159.250 128.706 C 157.246 129.092, 157 129.733, 157 134.570 C 157 138.730, 156.649 140, 155.500 140 C 153.997 140, 153.378 143.838, 153.833 150.339 C 153.980 152.442, 153.509 153.316, 152.016 153.706 C 150.310 154.152, 150 155.060, 150 159.617 C 150 163.735, 150.352 165, 151.500 165 C 152.730 165, 153.002 166.756, 153.014 174.750 C 153.029 185.683, 153.621 189, 155.556 189 C 156.363 189, 157 190.463, 157.190 192.750 C 157.483 196.296, 157.704 196.517, 161.250 196.810 C 163.703 197.013, 165 197.619, 165 198.560 C 165 199.707, 166.834 200, 174 200 C 181.333 200, 183 199.722, 183 198.500 C 183 197.286, 184.598 197, 191.383 197 C 198.926 197, 199.819 196.799, 200.290 195 C 200.668 193.552, 201.654 193, 203.861 193 C 206.536 193, 206.987 192.584, 207.547 189.600 C 208.582 184.082, 207.879 182.538, 204.166 182.181 C 201.506 181.925, 200.742 182.272, 200.308 183.931 C 199.854 185.667, 198.980 186, 194.883 186 C 191.209 186, 190 186.371, 190 187.500 C 190 188.742, 188.111 189, 179 189 C 169.889 189, 168 188.742, 168 187.500 C 168 186.667, 167.111 186, 166 186 C 164.381 186, 164 185.333, 164 182.500 C 164 180.056, 163.548 179, 162.500 179 C 161.452 179, 161 177.944, 161 175.500 C 161 173.121, 161.461 172, 162.440 172 C 163.381 172, 163.987 170.703, 164.190 168.250 C 164.483 164.704, 164.704 164.483, 168.250 164.190 C 170.703 163.987, 172 163.381, 172 162.440 C 172 161.300, 173.763 161, 180.450 161 C 186.480 161, 189.130 160.614, 189.700 159.651 C 190.614 158.109, 198.544 156.807, 201.813 157.661 C 203.537 158.112, 204 158.975, 204 161.733 C 204 164.875, 204.230 165.172, 206.250 164.630 C 207.488 164.299, 209.063 164.021, 209.750 164.014 C 210.630 164.004, 211 161.926, 211 157 L 211 150 187.356 150 L 163.712 150 164.365 142.171 C 165.081 133.595, 164.377 127.924, 162.625 128.136 C 162.006 128.211, 160.488 128.467, 159.250 128.706 M 157 209.389 C 157 210.184, 155.505 211.058, 153.500 211.434 C 150.302 212.034, 150 212.389, 150 215.545 C 150 217.949, 150.456 219, 151.500 219 C 152.325 219, 153 219.675, 153 220.500 C 153 221.700, 154.500 222, 160.500 222 C 167.333 222, 168 222.178, 168 224 C 168 225.619, 168.667 226, 171.500 226 C 173.944 226, 175 226.452, 175 227.500 C 175 228.652, 176.278 229, 180.500 229 C 185.333 229, 186 229.242, 186 231 C 186 232.810, 186.667 233, 193 233 C 198.556 233, 200 233.310, 200 234.500 C 200 235.412, 200.931 236, 202.375 236 C 206.880 236, 211 237.254, 211 238.625 C 211 239.718, 213.561 240, 223.500 240 C 233.361 240, 236 240.287, 236 241.358 C 236 242.284, 237.952 242.919, 242.147 243.358 C 252.331 244.422, 254.128 244.228, 254.710 242 C 254.998 240.900, 255.856 240, 256.617 240 C 258.883 240, 258.184 237.283, 255.750 236.630 C 254.512 236.299, 251.137 236.021, 248.250 236.014 C 244.256 236.003, 243 235.641, 243 234.500 C 243 233.302, 241.514 233, 235.625 233 C 226.411 233, 222 232.150, 222 230.375 C 222 229.331, 220.197 229, 214.500 229 C 208.781 229, 207 228.672, 207 227.616 C 207 226.652, 205.032 226.022, 200.500 225.537 C 195.877 225.042, 194 224.431, 194 223.420 C 194 222.430, 192.789 222, 190 222 C 187.153 222, 186 221.578, 186 220.534 C 186 219.531, 184.424 218.860, 181 218.406 C 178.037 218.012, 176 217.236, 176 216.499 C 176 215.815, 174.200 214.968, 172 214.616 C 169.412 214.202, 168 213.451, 168 212.488 C 168 211.419, 166.875 211, 164 211 C 161.111 211, 160 210.583, 160 209.500 C 160 208.675, 159.325 208, 158.500 208 C 157.675 208, 157 208.625, 157 209.389" stroke="none" fill="black" fill-rule="evenodd"/>
</svg>