<svg xmlns="http://www.w3.org/2000/svg" width="300" height="300" viewBox="0 0 300 300" version="1.1">
	<path d="M 208 143.500 C 208 144.817, 200.500 145, 146.500 145 C 85.667 145, 85 145.022, 85 147 C 85 148.111, 84.333 149, 83.500 149 C 82.452 149, 82 150.056, 82 152.500 L 82 156 89 156 C 94.556 156, 96 155.690, 96 154.500 C 96 153.408, 97.157 152.989, 100.250 152.960 C 104.144 152.923, 202.880 152.945, 205.750 152.983 C 206.438 152.992, 207 153.675, 207 154.500 C 207 155.652, 208.278 156, 212.500 156 L 218 156 218 152.500 C 218 150.056, 217.548 149, 216.500 149 C 215.667 149, 215 148.111, 215 147 C 215 145.667, 214.333 145, 213 145 C 211.889 145, 211 144.333, 211 143.500 C 211 142.675, 210.325 142, 209.500 142 C 208.675 142, 208 142.675, 208 143.500" stroke="none" fill="black" fill-rule="evenodd"/>
</svg>