<svg xmlns="http://www.w3.org/2000/svg" width="300" height="300" viewBox="0 0 300 300" version="1.1">
	<path d="M 139 101.500 C 139 102.769, 136.576 103.003, 123.250 103.017 C 107.983 103.034, 107.431 103.107, 105.250 105.408 C 103.908 106.824, 103 109.037, 103 110.891 L 103 114 114 114 C 123.111 114, 125 113.742, 125 112.500 C 125 111.675, 125.563 110.994, 126.250 110.986 C 126.938 110.979, 128.512 110.701, 129.750 110.370 L 132 109.767 132 131.883 C 132 150.016, 132.248 154, 133.379 154 C 134.448 154, 134.922 157.051, 135.485 167.561 C 135.885 175.019, 136 181.333, 135.741 181.592 C 135.483 181.851, 132.960 182.336, 130.136 182.670 C 126.769 183.069, 125 183.747, 125 184.639 C 125 185.686, 122.924 186, 116 186 C 108.908 186, 107 185.700, 107 184.585 C 107 183.555, 104.983 182.982, 99.582 182.476 C 89.779 181.557, 78 182.717, 78 184.601 C 78 185.533, 76.832 186, 74.500 186 L 71 186 71 191.500 C 71 195.722, 71.348 197, 72.500 197 C 73.325 197, 74 197.675, 74 198.500 C 74 199.583, 75.111 200, 78 200 C 80.889 200, 82 199.583, 82 198.500 C 82 197.675, 82.675 197, 83.500 197 C 84.325 197, 85 197.675, 85 198.500 C 85 199.652, 86.278 200, 90.500 200 C 94.722 200, 96 199.652, 96 198.500 C 96 197.311, 97.439 197, 102.950 197 C 108.531 197, 110.093 196.655, 110.878 195.250 C 111.741 193.707, 113.931 193.463, 129.428 193.186 C 143.190 192.939, 147 192.584, 147 191.546 C 147 190.510, 151.688 190.062, 168.500 189.489 C 185.742 188.901, 190 188.483, 190 187.378 C 190 186.295, 192.247 186, 200.500 186 C 209.167 186, 211 186.262, 211 187.500 C 211 188.333, 211.889 189, 213 189 C 214.111 189, 215 188.333, 215 187.500 C 215 186.675, 215.675 186, 216.500 186 C 217.548 186, 218 187.056, 218 189.500 C 218 192.333, 218.381 193, 220 193 C 221.333 193, 222 193.667, 222 195 C 222 196.333, 222.667 197, 224 197 C 225.333 197, 226 196.333, 226 195 C 226 193.889, 226.667 193, 227.500 193 C 228.690 193, 229 191.556, 229 186 L 229 179 196.500 179 C 168.278 179, 164 179.197, 164 180.500 C 164 181.738, 162.167 182, 153.500 182 L 143 182 143 153.500 C 143 128.833, 143.202 125, 144.500 125 C 145.333 125, 146 124.111, 146 123 C 146 121.333, 146.667 121, 150 121 C 152.889 121, 154 120.583, 154 119.500 C 154 118.534, 154.978 117.995, 156.750 117.986 C 161.032 117.965, 164 116.899, 164 115.383 C 164 114.623, 164.900 114, 166 114 C 167.758 114, 168 113.333, 168 108.500 C 168 104.278, 167.652 103, 166.500 103 C 165.675 103, 165 102.325, 165 101.500 C 165 100.244, 162.889 100, 152 100 C 141.111 100, 139 100.244, 139 101.500 M 150 108.500 C 150 109.466, 149.022 110.005, 147.250 110.014 C 142.968 110.035, 140 111.101, 140 112.617 C 140 113.686, 141.930 114, 148.500 114 C 156.333 114, 157 113.843, 157 112 C 157 110.889, 156.333 110, 155.500 110 C 154.675 110, 154 109.325, 154 108.500 C 154 107.667, 153.111 107, 152 107 C 150.889 107, 150 107.667, 150 108.500" stroke="none" fill="black" fill-rule="evenodd"/>
</svg>