<svg xmlns="http://www.w3.org/2000/svg" width="300" height="300" viewBox="0 0 300 300" version="1.1">
	<path d="M 212 162 C 212 164.667, 212.333 165, 215 165 C 217.667 165, 218 164.667, 218 162 C 218 159.333, 217.667 159, 215 159 C 212.333 159, 212 159.333, 212 162 M 226 162 L 226 165 236.500 165 L 247 165 247 162 L 247 159 236.500 159 L 226 159 226 162 M 262 162 C 262 164.667, 262.333 165, 265 165 C 267.667 165, 268 164.667, 268 162 C 268 159.333, 267.667 159, 265 159 C 262.333 159, 262 159.333, 262 162 M 151 164.500 C 151 165.325, 150.550 166, 150 166 C 149.450 166, 149 167.088, 149 168.417 C 149 169.746, 148.438 171.060, 147.750 171.338 C 147.063 171.615, 147.963 171.878, 149.750 171.921 C 152.473 171.987, 153.002 171.635, 153.014 169.750 C 153.021 168.512, 153.299 166.488, 153.630 165.250 C 154.074 163.596, 153.805 163, 152.617 163 C 151.727 163, 151 163.675, 151 164.500" stroke="none" fill="black" fill-rule="evenodd"/>
</svg>