<svg xmlns="http://www.w3.org/2000/svg" width="300" height="300" viewBox="0 0 300 300" version="1.1">
	<path d="M 131 72.450 C 131 73.248, 130.213 74.341, 129.250 74.879 C 127.804 75.687, 127.440 77.604, 127.156 85.928 C 126.889 93.753, 126.499 96, 125.406 96 C 124.633 96, 124 96.675, 124 97.500 C 124 98.695, 122.524 99.002, 116.750 99.009 C 105.881 99.022, 99 100.042, 99 101.639 C 99 102.388, 98.100 103, 97 103 C 95.871 103, 95 103.667, 95 104.531 C 95 105.374, 94.325 106.322, 93.500 106.638 C 92.675 106.955, 92 107.841, 92 108.607 C 92 109.373, 92.675 110, 93.500 110 C 94.333 110, 95 110.889, 95 112 C 95 113.619, 95.667 114, 98.500 114 C 100.813 114, 102 113.531, 102 112.617 C 102 111.041, 105 110.034, 109.750 110.014 C 111.966 110.004, 113 109.523, 113 108.500 C 113 107.310, 114.444 107, 120 107 L 127 107 127 115.500 C 127 122.389, 126.716 124, 125.500 124 C 124.324 124, 124 125.373, 124 130.360 C 124 139.823, 122.959 146, 121.364 146 C 120.614 146, 120 146.900, 120 148 C 120 149.873, 119.333 150, 109.500 150 C 101.258 150, 99 150.296, 99 151.375 C 99 152.746, 94.880 154, 90.375 154 C 88.157 154, 88 154.371, 88 159.617 C 88 164.953, 88.112 165.203, 90.250 164.630 C 91.487 164.299, 93.737 164.021, 95.250 164.014 C 97.022 164.005, 98 163.466, 98 162.500 C 98 161.347, 99.281 161, 103.531 161 C 107.368 161, 109.228 160.568, 109.604 159.590 C 110.295 157.789, 114.276 156.780, 117.500 157.589 L 120 158.217 120 184.608 C 120 208.090, 120.176 211, 121.594 211 C 122.470 211, 123.423 211.900, 123.710 213 C 123.998 214.100, 124.856 215, 125.617 215 C 126.377 215, 127 215.625, 127 216.389 C 127 217.184, 128.495 218.058, 130.500 218.434 C 132.595 218.827, 134 219.675, 134 220.545 C 134 221.642, 135.354 222, 139.500 222 C 144.333 222, 145 222.242, 145 224 C 145 225.852, 145.667 226, 154 226 C 161.333 226, 163 226.278, 163 227.500 C 163 228.325, 163.675 229, 164.500 229 C 165.325 229, 166 228.325, 166 227.500 C 166 226.298, 167.510 226, 173.594 226 C 180.346 226, 181.245 225.778, 181.710 224 C 182.103 222.497, 183.074 222, 185.617 222 C 187.831 222, 189 221.522, 189 220.617 C 189 219.101, 191.968 218.035, 196.250 218.014 C 198.022 218.005, 199 217.466, 199 216.500 C 199 215.667, 199.889 215, 201 215 C 202.100 215, 203 214.377, 203 213.617 C 203 212.115, 205.960 211.035, 210.133 211.014 C 211.919 211.004, 212.935 210.356, 213.290 209 C 213.577 207.900, 214.530 207, 215.406 207 C 216.283 207, 217 206.325, 217 205.500 C 217 204.310, 215.556 204, 210 204 C 204.694 204, 203 204.336, 203 205.389 C 203 206.184, 201.505 207.058, 199.500 207.434 C 197.405 207.827, 196 208.675, 196 209.545 C 196 210.517, 194.921 211.005, 192.750 211.014 C 188 211.034, 185 212.041, 185 213.617 C 185 214.377, 184.100 215, 183 215 C 181.889 215, 181 215.667, 181 216.500 C 181 217.764, 178.722 218, 166.500 218 C 154.278 218, 152 217.764, 152 216.500 C 152 215.371, 150.791 215, 147.117 215 C 143.074 215, 142.143 214.656, 141.710 213 C 141.310 211.468, 140.346 211, 137.594 211 C 135.066 211, 134 210.555, 134 209.500 C 134 208.675, 133.325 208, 132.500 208 C 131.667 208, 131 207.111, 131 206 C 131 204.900, 130.353 204, 129.561 204 C 127.445 204, 126.796 197.660, 127.172 180.667 C 127.457 167.810, 127.731 165.727, 129.250 164.878 C 130.390 164.242, 131 162.697, 131 160.450 L 131 157 147 157 C 160.391 157, 163 156.761, 163 155.534 C 163 154.354, 165.100 154.012, 173.750 153.784 L 184.500 153.500 184.809 150.306 C 185.091 147.393, 184.826 147.058, 181.787 146.488 C 179.955 146.144, 167.778 146.006, 154.727 146.181 L 130.998 146.500 130.999 139.250 C 131 133.473, 131.305 132, 132.500 132 C 133.706 132, 134 130.458, 134 124.125 C 134 114.432, 134.824 110, 136.625 110 C 137.381 110, 138 109.325, 138 108.500 C 138 107.229, 140.444 107, 154 107 L 170 107 170 110.500 C 170 112.944, 169.548 114, 168.500 114 C 166.146 114, 166.747 116.699, 169.250 117.370 C 173.007 118.376, 174 118.090, 174 116 C 174 114.900, 174.655 114, 175.455 114 C 177.266 114, 178.454 108.235, 177.591 103.633 C 177.006 100.514, 176.619 100.220, 172.340 99.633 C 169.800 99.285, 161.034 99, 152.860 99 L 138 99 138 85 L 138 71 134.500 71 C 132.109 71, 131 71.459, 131 72.450" stroke="none" fill="black" fill-rule="evenodd"/>
</svg>