<svg xmlns="http://www.w3.org/2000/svg" width="300" height="300" viewBox="0 0 300 300" version="1.1">
	<path d="M 168 58 C 168 59.111, 167.333 60, 166.500 60 C 165.675 60, 165 60.675, 165 61.500 C 165 62.325, 165.675 63, 166.500 63 C 167.583 63, 168 64.111, 168 67 C 168 69.889, 168.417 71, 169.500 71 C 170.548 71, 171 72.056, 171 74.500 L 171 78 158.500 78 C 148.056 78, 146 78.247, 146 79.500 C 146 80.466, 145.022 81.005, 143.250 81.014 C 137.873 81.040, 136.218 82.024, 135.549 85.592 C 135.169 87.614, 134.318 89, 133.455 89 C 132.459 89, 132 90.104, 132 92.500 C 132 95.917, 132.095 96, 136 96 C 138.789 96, 140 95.570, 140 94.579 C 140 93.798, 141.350 92.862, 143 92.500 C 144.650 92.138, 146 91.267, 146 90.566 C 146 89.099, 162.527 87.854, 170.330 88.734 L 175 89.260 175 98.130 C 175 104.928, 174.683 107, 173.644 107 C 172.093 107, 170.760 119.745, 171.703 125.560 C 172.300 129.236, 175 130.416, 175 127 C 175 125.667, 175.667 125, 177 125 C 178.852 125, 179 124.333, 179 116 C 179 108.667, 179.278 107, 180.500 107 C 181.658 107, 182.003 105.690, 182.011 101.250 C 182.027 93.028, 183.021 88, 184.631 88 C 185.384 88, 186 87.325, 186 86.500 C 186 85.262, 187.833 85, 196.500 85 C 205.167 85, 207 84.738, 207 83.500 C 207 82.339, 208.412 81.974, 213.250 81.886 C 228.066 81.616, 230.864 81.469, 231.406 80.927 C 231.721 80.612, 232.265 78.924, 232.615 77.177 C 233.169 74.405, 232.979 74, 231.125 74 C 229.903 74, 229 73.363, 229 72.500 C 229 71.348, 227.722 71, 223.500 71 C 219.278 71, 218 71.348, 218 72.500 C 218 73.694, 216.523 74.002, 210.750 74.011 C 201.110 74.026, 196 74.933, 196 76.631 C 196 77.682, 194.028 78, 187.500 78 L 179 78 179 69 C 179 60.667, 178.852 60, 177 60 C 175.667 60, 175 59.333, 175 58 C 175 56.381, 174.333 56, 171.500 56 C 168.667 56, 168 56.381, 168 58 M 121.290 69 C 121.002 70.100, 120.194 71, 119.495 71 C 118.795 71, 117.927 72.575, 117.566 74.500 C 117.173 76.595, 116.325 78, 115.455 78 C 114.468 78, 114 79.089, 114 81.383 C 114 83.926, 113.503 84.897, 112 85.290 C 110.544 85.671, 110 86.654, 110 88.906 C 110 90.990, 109.510 92, 108.500 92 C 107.667 92, 107 92.889, 107 94 C 107 95.333, 106.333 96, 105 96 C 103.381 96, 103 96.667, 103 99.500 C 103 101.820, 102.532 103, 101.611 103 C 100.816 103, 99.942 104.495, 99.566 106.500 C 99.173 108.595, 98.325 110, 97.455 110 C 96.655 110, 96 110.900, 96 112 C 96 113.100, 95.375 114, 94.611 114 C 93.816 114, 92.942 115.495, 92.566 117.500 C 92.173 119.595, 91.325 121, 90.455 121 C 89.452 121, 89 122.116, 89 124.594 C 89 127.346, 88.532 128.310, 87 128.710 C 85.583 129.081, 85 130.074, 85 132.117 C 85 133.910, 84.475 135, 83.611 135 C 82.816 135, 81.942 136.495, 81.566 138.500 C 81.173 140.595, 80.325 142, 79.455 142 C 78.655 142, 78 142.900, 78 144 C 78 145.100, 77.375 146, 76.611 146 C 75.816 146, 74.942 147.495, 74.566 149.500 C 74.203 151.437, 73.310 153, 72.566 153 C 71.827 153, 70.935 154.532, 70.584 156.403 C 70.233 158.275, 69.283 160.061, 68.473 160.372 C 67.663 160.683, 67 161.851, 67 162.969 C 67 164.086, 66.345 165, 65.545 165 C 64.675 165, 63.827 166.405, 63.434 168.500 C 63.058 170.505, 62.184 172, 61.389 172 C 60.468 172, 60 173.180, 60 175.500 C 60 178.333, 59.619 179, 58 179 C 56.381 179, 56 179.667, 56 182.500 C 56 184.944, 55.548 186, 54.500 186 C 53.310 186, 53 187.444, 53 193 L 53 200 56.500 200 L 60 200 60 193 C 60 186.667, 60.190 186, 62 186 C 63.333 186, 64 185.333, 64 184 C 64 182.889, 64.667 182, 65.500 182 C 66.548 182, 67 180.944, 67 178.500 C 67 175.667, 67.381 175, 69 175 C 70.619 175, 71 174.333, 71 171.500 C 71 169.180, 71.468 168, 72.389 168 C 73.184 168, 74.058 166.505, 74.434 164.500 C 74.827 162.405, 75.675 161, 76.545 161 C 77.345 161, 78 160.100, 78 159 C 78 157.900, 78.655 157, 79.455 157 C 80.325 157, 81.173 155.595, 81.566 153.500 C 81.942 151.495, 82.816 150, 83.611 150 C 84.375 150, 85 149.100, 85 148 C 85 146.900, 85.655 146, 86.455 146 C 87.325 146, 88.173 144.595, 88.566 142.500 C 88.929 140.563, 89.822 139, 90.566 139 C 91.310 139, 92.203 137.437, 92.566 135.500 C 92.942 133.495, 93.816 132, 94.611 132 C 95.673 132, 96 133.767, 96 139.500 C 96 145.135, 96.336 147, 97.352 147 C 99.269 147, 99.987 158.341, 99.994 188.750 C 99.999 210.525, 100.206 214, 101.500 214 C 102.667 214, 103 215.333, 103 220 C 103 225.333, 103.222 226, 105 226 C 106.111 226, 107 226.667, 107 227.500 C 107 228.629, 108.209 229, 111.883 229 C 115.926 229, 116.857 228.656, 117.290 227 C 117.577 225.900, 118.530 225, 119.406 225 C 120.510 225, 121 224.078, 121 222 C 121 218.827, 120.711 218.685, 114 218.563 L 110.500 218.500 110.217 207.250 C 109.989 198.157, 109.653 196, 108.467 196 C 107.373 196, 107 194.728, 107 191 C 107 187.222, 107.367 186, 108.500 186 C 109.753 186, 110 183.944, 110 173.500 C 110 163.056, 109.753 161, 108.500 161 C 107.240 161, 106.998 158.799, 106.986 147.250 C 106.969 130.113, 106.751 129.231, 102.306 128.398 C 99.373 127.847, 98.922 127.416, 99.403 125.623 C 99.716 124.455, 99.979 122.938, 99.986 122.250 C 99.994 121.563, 100.675 121, 101.500 121 C 102.548 121, 103 119.944, 103 117.500 C 103 114.667, 103.381 114, 105 114 C 106.619 114, 107 113.333, 107 110.500 C 107 108.180, 107.468 107, 108.389 107 C 109.184 107, 110.058 105.505, 110.434 103.500 C 110.827 101.405, 111.675 100, 112.545 100 C 113.345 100, 114 99.100, 114 98 C 114 96.667, 114.667 96, 116 96 C 117.619 96, 118 95.333, 118 92.500 C 118 90.180, 118.468 89, 119.389 89 C 120.184 89, 121.058 87.505, 121.434 85.500 C 122 82.484, 122.480 82, 124.906 82 C 127.520 82, 127.761 81.660, 128.277 77.250 C 128.583 74.638, 128.593 71.263, 128.300 69.750 C 127.861 67.485, 127.242 67, 124.790 67 C 122.654 67, 121.665 67.565, 121.290 69 M 139 133.455 C 139 134.325, 137.595 135.173, 135.500 135.566 C 132.067 136.210, 132 136.316, 132 141.111 L 132 146 142.500 146 C 150.950 146, 153 145.720, 153 144.566 C 153 142.810, 163.660 142.355, 194.250 142.806 C 211.528 143.061, 215 143.354, 215 144.556 C 215 145.350, 215.625 146, 216.389 146 C 217.184 146, 218.058 147.495, 218.434 149.500 C 219.081 152.950, 222 154.587, 222 151.500 C 222 150.675, 222.675 150, 223.500 150 C 224.548 150, 225 148.944, 225 146.500 C 225 144.056, 224.548 143, 223.500 143 C 222.667 143, 222 142.111, 222 141 C 222 139.667, 221.333 139, 220 139 C 218.900 139, 218 138.377, 218 137.617 C 218 135.897, 214.923 135.031, 208.750 135.014 C 205.201 135.003, 204 134.621, 204 133.500 C 204 132.197, 199.722 132, 171.500 132 C 143.728 132, 139 132.212, 139 133.455 M 172 147.883 C 172 149.333, 171.370 150, 170 150 C 168.381 150, 168 150.667, 168 153.500 C 168 155.944, 168.452 157, 169.500 157 C 170.333 157, 171 157.889, 171 159 C 171 160.111, 170.333 161, 169.500 161 C 168.675 161, 168 161.675, 168 162.500 C 168 163.692, 166.545 164, 160.906 164 C 154.654 164, 153.751 164.237, 153.290 166 C 152.897 167.503, 151.926 168, 149.383 168 C 146.667 168, 146 168.394, 146 170 C 146 171.111, 145.333 172, 144.500 172 C 143.367 172, 143 173.222, 143 177 L 143 182 146.500 182 C 148.813 182, 150 181.531, 150 180.617 C 150 179.856, 150.900 178.998, 152 178.710 C 153.100 178.423, 154 177.470, 154 176.594 C 154 175.439, 154.964 175, 157.500 175 C 159.944 175, 161 174.548, 161 173.500 C 161 172.348, 162.278 172, 166.500 172 C 170.722 172, 172 172.348, 172 173.500 C 172 174.325, 172.675 175, 173.500 175 C 174.779 175, 175 177.722, 175 193.500 C 175 209.278, 174.779 212, 173.500 212 C 172.404 212, 171.996 213.145, 171.986 216.250 C 171.963 223.415, 171.176 224.999, 167.633 225.009 C 160.563 225.028, 154 226.295, 154 227.639 C 154 228.619, 152.486 229, 148.588 229 L 143.176 229 142.504 232.978 C 141.555 238.596, 142.653 242.673, 145.307 243.385 C 146.513 243.708, 151.255 243.979, 155.844 243.986 C 163.352 243.999, 164.240 243.800, 164.710 242 C 164.998 240.900, 165.856 240, 166.617 240 C 167.377 240, 168 239.381, 168 238.625 C 168 237.052, 172.259 236, 178.625 236 C 181.847 236, 183 235.605, 183 234.500 C 183 233.452, 184.056 233, 186.500 233 C 188.774 233, 190 233.474, 190 234.352 C 190 235.443, 195.448 235.810, 218.250 236.250 C 233.787 236.551, 246.560 236.730, 246.633 236.648 C 246.706 236.567, 247.086 235.007, 247.478 233.181 C 248.087 230.338, 247.889 229.784, 246.095 229.314 C 244.943 229.013, 244 228.144, 244 227.383 C 244 226.623, 243.100 226, 242 226 C 240.889 226, 240 226.667, 240 227.500 C 240 228.762, 237.778 229, 226 229 C 214.222 229, 212 228.762, 212 227.500 C 212 226.338, 210.684 226, 206.156 226 C 202.941 226, 195.516 225.707, 189.656 225.348 L 179 224.696 179 218.348 C 179 213.552, 179.345 212, 180.410 212 C 182.184 212, 183.188 200.306, 182.783 184.346 C 182.627 178.211, 182.869 172.817, 183.319 172.360 C 183.770 171.902, 190.715 171.584, 198.752 171.654 C 210.934 171.759, 213.562 172.048, 214.543 173.390 C 215.193 174.278, 217.128 175, 218.860 175 C 221.333 175, 222 174.575, 222 173 C 222 171.889, 222.667 171, 223.500 171 C 224.325 171, 225 170.325, 225 169.500 C 225 168.675, 224.325 168, 223.500 168 C 222.675 168, 222 167.377, 222 166.617 C 222 164.759, 218.848 164.030, 210.750 164.014 C 205.423 164.003, 204 163.684, 204 162.500 C 204 161.265, 202.188 160.998, 193.750 160.986 C 188.113 160.979, 182.488 160.701, 181.250 160.370 C 178.725 159.693, 178.189 158, 180.500 158 C 181.583 158, 182 156.889, 182 154 C 182 151.111, 181.583 150, 180.500 150 C 179.675 150, 179 149.325, 179 148.500 C 179 147.675, 178.438 146.994, 177.750 146.986 C 177.063 146.979, 175.488 146.701, 174.250 146.370 C 172.435 145.883, 172 146.176, 172 147.883" stroke="none" fill="black" fill-rule="evenodd"/>
</svg>