<svg xmlns="http://www.w3.org/2000/svg" width="300" height="300" viewBox="0 0 300 300" version="1.1">
	<path d="M 152 54.500 C 152 55.727, 150.292 56, 142.625 56 C 131.489 56, 127 56.754, 127 58.625 C 127 59.381, 126.325 60, 125.500 60 C 124.667 60, 124 60.889, 124 62 C 124 63.333, 123.333 64, 122 64 C 120.889 64, 120 64.667, 120 65.500 C 120 66.325, 120.623 67, 121.383 67 C 123.443 67, 123.670 69.790, 123.188 89.250 C 122.837 103.425, 122.471 107, 121.374 107 C 120.340 107, 120 108.730, 120 114 C 120 119.556, 120.310 121, 121.500 121 C 122.548 121, 123 122.056, 123 124.500 C 123 126.944, 122.548 128, 121.500 128 C 120.452 128, 120 129.056, 120 131.500 C 120 133.944, 120.452 135, 121.500 135 C 123.162 135, 123.237 137.425, 123.594 202.500 C 123.696 221.200, 123.830 237.287, 123.890 238.250 C 123.973 239.562, 124.875 240, 127.500 240 C 130.333 240, 131 240.381, 131 242 C 131 243.810, 131.667 244, 138 244 C 143.556 244, 145 244.310, 145 245.500 C 145 246.793, 148.444 247, 170 247 C 191.556 247, 195 246.793, 195 245.500 C 195 244.280, 196.650 244, 203.849 244 C 218.098 244, 228 242.915, 228 241.353 C 228 240.261, 231.853 240, 248 240 L 268 240 268 234.378 L 268 228.757 252.403 229.176 C 239.030 229.535, 236.670 229.838, 235.853 231.297 C 235.047 232.739, 233.223 233, 223.950 233 C 214.883 233, 213 233.258, 213 234.500 C 213 236.021, 205.451 236.727, 194 236.275 C 186.556 235.982, 181 236.959, 181 238.561 C 181 239.353, 180.325 240, 179.500 240 C 178.675 240, 178 239.382, 178 238.628 C 178 237.542, 174.235 237.103, 160 236.527 C 145.587 235.944, 142 235.520, 142 234.400 C 142 233.460, 140.820 233, 138.406 233 C 135.654 233, 134.690 232.532, 134.290 231 C 134.002 229.900, 133.144 229, 132.383 229 C 131.469 229, 131 227.813, 131 225.500 C 131 223.056, 131.452 222, 132.500 222 C 133.333 222, 134 221.111, 134 220 C 134 218.889, 133.333 218, 132.500 218 C 131.675 218, 131 217.325, 131 216.500 C 131 215.675, 131.675 215, 132.500 215 C 133.742 215, 134 213.111, 134 204 C 134 194.889, 133.742 193, 132.500 193 C 131.675 193, 131 192.325, 131 191.500 C 131 190.675, 131.675 190, 132.500 190 C 133.548 190, 134 188.944, 134 186.500 C 134 184.056, 133.548 183, 132.500 183 C 131.186 183, 131 176.500, 131 130.500 C 131 86.370, 131.221 78, 132.389 78 C 133.184 78, 134.058 76.505, 134.434 74.500 C 135.034 71.302, 135.389 71, 138.545 71 C 141.827 71, 142 70.825, 142 67.500 L 142 64 151.853 64 C 165.828 64, 174 63.025, 174 61.358 C 174 60.297, 176.397 60, 184.968 60 L 195.936 60 195.718 65.250 L 195.500 70.500 199.250 70.810 C 202.470 71.077, 203 70.830, 203 69.060 C 203 67.896, 203.652 67, 204.500 67 C 205.633 67, 206 65.778, 206 62 C 206 58.222, 205.633 57, 204.500 57 C 203.667 57, 203 56.111, 203 55 C 203 53.052, 202.333 53, 177.500 53 C 155.500 53, 152 53.206, 152 54.500 M 159 83.500 C 159 84.325, 158.325 85, 157.500 85 C 156.417 85, 156 86.111, 156 89 C 156 91.834, 156.424 93, 157.455 93 C 158.325 93, 159.173 94.405, 159.566 96.500 C 159.942 98.505, 160.816 100, 161.611 100 C 162.607 100, 163 101.383, 163 104.883 C 163 108.926, 163.344 109.857, 165 110.290 C 166.800 110.760, 166.999 111.648, 166.986 119.156 C 166.966 131.518, 166.737 132, 160.883 132 C 157.383 132, 156 132.393, 156 133.389 C 156 134.176, 154.529 135.053, 152.602 135.415 C 148.862 136.117, 147.450 138.961, 148.589 143.500 C 149.276 146.234, 153 147.079, 153 144.500 C 153 143.262, 154.833 143, 163.500 143 C 172.167 143, 174 142.738, 174 141.500 C 174 140.675, 174.627 140, 175.393 140 C 176.159 140, 177.045 140.675, 177.362 141.500 C 177.777 142.583, 179.474 143, 183.469 143 C 187.527 143, 189 143.371, 189 144.392 C 189 145.895, 193.484 147.437, 195.046 146.472 C 195.571 146.147, 196 144.334, 196 142.441 C 196 139.667, 195.613 139, 194 139 C 192.667 139, 192 138.333, 192 137 C 192 135.381, 191.333 135, 188.500 135 C 186.056 135, 185 134.548, 185 133.500 C 185 132.452, 183.944 132, 181.500 132 C 179.056 132, 178 131.548, 178 130.500 C 178 129.675, 178.717 129, 179.594 129 C 180.470 129, 181.423 128.100, 181.710 127 C 182.081 125.583, 183.074 125, 185.117 125 C 187.333 125, 188 124.538, 188 123 C 188 121.667, 188.667 121, 190 121 C 191.100 121, 192 120.377, 192 119.617 C 192 118.856, 192.900 117.998, 194 117.710 C 195.100 117.423, 196 116.470, 196 115.594 C 196 114.717, 196.675 114, 197.500 114 C 198.333 114, 199 113.111, 199 112 C 199 110.900, 199.655 110, 200.455 110 C 201.325 110, 202.173 108.595, 202.566 106.500 C 202.927 104.575, 203.820 103, 204.550 103 C 206.292 103, 207.428 95.341, 206.552 89.500 L 205.877 85 195.439 85 C 187.218 85, 185 85.294, 185 86.383 C 185 87.959, 182 88.966, 177.250 88.986 C 174.205 88.999, 174 89.221, 174 92.500 C 174 94.944, 173.548 96, 172.500 96 C 171.675 96, 171 95.283, 171 94.406 C 171 93.530, 170.100 92.577, 169 92.290 C 167.497 91.897, 167 90.926, 167 88.383 C 167 85.667, 166.606 85, 165 85 C 163.889 85, 163 84.333, 163 83.500 C 163 82.667, 162.111 82, 161 82 C 159.889 82, 159 82.667, 159 83.500 M 188 97.455 C 188 98.325, 186.595 99.173, 184.500 99.566 C 182.495 99.942, 181 100.816, 181 101.611 C 181 102.375, 180.387 103, 179.638 103 C 178.059 103, 176.551 114.361, 177.583 118.475 C 178.275 121.234, 181 121.976, 181 119.406 C 181 118.530, 181.900 117.577, 183 117.290 C 184.100 117.002, 185 116.144, 185 115.383 C 185 114.623, 185.675 114, 186.500 114 C 187.333 114, 188 113.111, 188 112 C 188 110.667, 188.667 110, 190 110 C 191.538 110, 192 109.333, 192 107.117 C 192 105.074, 192.583 104.081, 194 103.710 C 195.197 103.397, 196 102.346, 196 101.094 C 196 99.899, 196.644 99, 197.500 99 C 198.325 99, 199 98.325, 199 97.500 C 199 96.348, 197.722 96, 193.500 96 C 189.354 96, 188 96.358, 188 97.455 M 37.350 125 C 37.020 126.650, 36.131 128, 35.375 128 C 34.339 128, 34 129.727, 34 135 C 34 140.406, 34.326 142, 35.431 142 C 36.600 142, 36.921 144.944, 37.181 158.072 C 37.460 172.137, 37.719 174.266, 39.250 175.122 C 40.743 175.956, 41 177.636, 41 186.550 C 41 195.172, 41.262 197, 42.500 197 C 43.466 197, 44.005 197.978, 44.014 199.750 C 44.041 205.157, 45.054 207, 48 207 C 50.024 207, 50.929 206.396, 51.370 204.750 C 52.818 199.345, 51.555 190, 49.375 190 C 48.375 190, 48 188.500, 48 184.500 L 48 179 53.500 179 C 57.454 179, 59 179.380, 59 180.352 C 59 182.571, 86.190 184.119, 87.515 181.976 C 88.550 180.302, 86.958 175, 85.421 175 C 84.298 175, 84 173.110, 84 166 C 84 159.030, 84.310 157, 85.375 157 C 87.246 157, 88 152.511, 88 141.375 C 88 132.667, 87.858 132, 86 132 C 84.381 132, 84 131.333, 84 128.500 L 84 125 64 125 C 46.889 125, 44 124.783, 44 123.500 C 44 122.497, 42.997 122, 40.975 122 C 38.414 122, 37.858 122.460, 37.350 125 M 63 133.375 C 63 134.948, 58.741 136, 52.375 136 C 48.042 136, 48 136.033, 48 139.500 C 48 141.944, 47.548 143, 46.500 143 C 45.258 143, 45 144.889, 45 154 C 45 163.111, 45.258 165, 46.500 165 C 47.325 165, 48 165.675, 48 166.500 C 48 167.652, 49.278 168, 53.500 168 C 57.575 168, 59 168.367, 59 169.415 C 59 170.446, 61.028 171.019, 66.478 171.530 C 70.591 171.916, 74.641 171.968, 75.478 171.647 C 76.707 171.175, 77 169.038, 77 160.531 C 77 151.837, 77.262 150, 78.500 150 C 79.548 150, 80 148.944, 80 146.500 C 80 144.056, 79.548 143, 78.500 143 C 77.445 143, 77 141.934, 77 139.406 C 77 136.654, 76.532 135.690, 75 135.290 C 73.900 135.002, 73 134.144, 73 133.383 C 73 132.390, 71.590 132, 68 132 C 64.424 132, 63 132.392, 63 133.375 M 181 151.455 C 181 152.325, 179.595 153.173, 177.500 153.566 L 174 154.223 174 161.111 C 174 166.568, 173.688 168, 172.500 168 C 171.675 168, 171 167.325, 171 166.500 C 171 165.300, 169.500 165, 163.500 165 C 157.500 165, 156 165.300, 156 166.500 C 156 167.333, 155.111 168, 154 168 C 152.889 168, 152 168.667, 152 169.500 C 152 171.804, 149.306 171.279, 148.671 168.851 C 147.701 165.142, 149.034 161, 151.198 161 C 152.514 161, 153.039 160.431, 152.815 159.250 C 152.441 157.278, 146.894 156.422, 141.294 157.473 L 138 158.091 138 168.545 C 138 177.172, 138.262 179, 139.500 179 C 140.714 179, 141.031 180.767, 141.162 188.250 C 141.470 205.768, 141.623 207, 143.500 207 C 144.333 207, 145 207.889, 145 209 C 145 210.111, 144.333 211, 143.500 211 C 142.348 211, 142 212.278, 142 216.500 L 142 222 147 222 C 150.778 222, 152 221.633, 152 220.500 C 152 219.667, 152.889 219, 154 219 C 155.333 219, 156 218.333, 156 217 C 156 215.667, 156.667 215, 158 215 C 159.333 215, 160 214.333, 160 213 C 160 211.889, 160.667 211, 161.500 211 C 162.325 211, 163 210.325, 163 209.500 C 163 208.667, 163.889 208, 165 208 C 166.333 208, 167 207.333, 167 206 C 167 204.667, 167.667 204, 169 204 C 170.111 204, 171 203.333, 171 202.500 C 171 201.675, 171.675 201, 172.500 201 C 173.333 201, 174 200.111, 174 199 C 174 197.667, 174.667 197, 176 197 C 177.111 197, 178 197.667, 178 198.500 C 178 199.325, 178.675 200, 179.500 200 C 180.652 200, 181 201.278, 181 205.500 C 181 210.333, 181.242 211, 183 211 C 184.614 211, 185 211.667, 185 214.450 C 185 216.579, 184.385 218.245, 183.394 218.799 C 182.428 219.340, 181.580 221.551, 181.264 224.349 L 180.740 229 189.870 229 C 197.319 229, 199 228.724, 199 227.500 C 199 226.445, 200.066 226, 202.594 226 C 205.346 226, 206.310 225.532, 206.710 224 C 207.103 222.497, 208.074 222, 210.617 222 C 212.911 222, 214 221.532, 214 220.545 C 214 219.675, 215.405 218.827, 217.500 218.434 C 219.505 218.058, 221 217.184, 221 216.389 C 221 215.338, 222.682 215, 227.918 215 C 236.666 215, 238 214.472, 238 211.010 C 238 207.546, 236.345 207.032, 225.133 207.014 C 216.948 207, 216.780 206.951, 217.370 204.750 C 217.701 203.512, 217.979 202.162, 217.986 201.750 C 217.994 201.338, 218.675 201, 219.500 201 C 220.548 201, 221 199.944, 221 197.500 C 221 195.152, 221.465 194, 222.412 194 C 223.280 194, 224.085 192.459, 224.500 190 C 224.915 187.541, 225.720 186, 226.588 186 C 227.679 186, 228 184.293, 228 178.500 C 228 172.500, 227.700 171, 226.500 171 C 225.675 171, 225 170.325, 225 169.500 C 225 168.667, 224.111 168, 223 168 C 221.667 168, 221 167.333, 221 166 C 221 164.242, 220.333 164, 215.500 164 C 211.278 164, 210 163.652, 210 162.500 C 210 161.247, 207.944 161, 197.500 161 C 185.667 161, 185 160.893, 185 159 C 185 157.889, 185.667 157, 186.500 157 C 187.548 157, 188 155.944, 188 153.500 C 188 150.167, 187.833 150, 184.500 150 C 182.104 150, 181 150.459, 181 151.455 M 189 175.500 C 189 177.944, 189.452 179, 190.500 179 C 191.548 179, 192 180.056, 192 182.500 C 192 185.411, 191.639 186, 189.858 186 C 187.830 186, 187.750 186.331, 188.358 192.147 C 188.711 195.527, 189 199.577, 189 201.147 C 189 203.016, 189.517 204, 190.500 204 C 191.548 204, 192 205.056, 192 207.500 C 192 209.820, 192.468 211, 193.389 211 C 194.184 211, 195.058 209.505, 195.434 207.500 C 195.827 205.405, 196.675 204, 197.545 204 C 198.541 204, 199 205.104, 199 207.500 C 199 210.811, 199.183 211, 202.389 211 C 205.470 211, 205.837 210.682, 206.434 207.500 C 206.827 205.405, 207.675 204, 208.545 204 C 209.532 204, 210 202.911, 210 200.617 C 210 198.074, 210.497 197.103, 212 196.710 C 213.100 196.423, 214 195.470, 214 194.594 C 214 193.717, 214.608 193, 215.352 193 C 216.856 193, 218.289 179.666, 217.313 174.750 L 216.767 172 202.883 172 L 189 172 189 175.500 M 159.290 177 C 159.002 178.100, 158.144 179, 157.383 179 C 156.293 179, 156 181.227, 156 189.500 C 156 198.167, 156.262 200, 157.500 200 C 158.325 200, 159 199.325, 159 198.500 C 159 197.667, 159.889 197, 161 197 C 162.758 197, 163 196.333, 163 191.500 C 163 187.278, 163.348 186, 164.500 186 C 165.548 186, 166 184.944, 166 182.500 C 166 180.056, 165.548 179, 164.500 179 C 163.667 179, 163 178.111, 163 177 C 163 175.837, 162.333 175, 161.406 175 C 160.530 175, 159.577 175.900, 159.290 177 M 174 187.500 C 174 191.532, 174.371 193, 175.392 193 C 177.179 193, 178.164 189.068, 177.370 185.098 C 176.284 179.671, 174 181.299, 174 187.500" stroke="none" fill="black" fill-rule="evenodd"/>
</svg>