<svg xmlns="http://www.w3.org/2000/svg" width="300" height="300" viewBox="0 0 300 300" version="1.1">
	<path d="M 177 43.500 C 177 44.325, 176.325 45, 175.500 45 C 174.667 45, 174 45.889, 174 47 C 174 48.333, 173.333 49, 172 49 C 170.667 49, 170 49.667, 170 51 C 170 52.111, 169.333 53, 168.500 53 C 167.534 53, 166.995 53.978, 166.986 55.750 C 166.965 60.032, 165.899 63, 164.383 63 C 163.436 63, 163 64.261, 163 67 C 163 69.834, 162.576 71, 161.545 71 C 160.675 71, 159.827 72.405, 159.434 74.500 C 159.058 76.505, 158.184 78, 157.389 78 C 156.468 78, 156 79.180, 156 81.500 C 156 84.333, 155.619 85, 154 85 C 152.667 85, 152 85.667, 152 87 C 152 88.893, 151.333 89, 139.500 89 C 129.056 89, 127 89.247, 127 90.500 C 127 91.727, 125.292 92, 117.625 92 C 112.469 92, 106.844 92.281, 105.125 92.625 C 102.138 93.222, 102 93.465, 102 98.125 L 102 103 109 103 C 114.556 103, 116 102.690, 116 101.500 C 116 100.305, 117.476 99.998, 123.250 99.991 C 134.119 99.978, 141 98.958, 141 97.361 C 141 96.612, 141.900 96, 143 96 C 144.733 96, 145 96.667, 145 101 C 145 104.778, 144.633 106, 143.500 106 C 142.644 106, 142 106.899, 142 108.094 C 142 109.346, 141.197 110.397, 140 110.710 C 138.497 111.103, 138 112.074, 138 114.617 C 138 116.911, 137.532 118, 136.545 118 C 135.675 118, 134.827 119.405, 134.434 121.500 C 134.058 123.505, 133.184 125, 132.389 125 C 131.468 125, 131 126.180, 131 128.500 C 131 130.932, 130.546 132, 129.512 132 C 128.549 132, 127.798 133.412, 127.384 136 C 127.020 138.274, 126.187 140, 125.452 140 C 124.741 140, 123.862 141.350, 123.500 143 C 123.138 144.650, 122.202 146, 121.421 146 C 120.473 146, 120 147.127, 120 149.383 C 120 151.926, 119.503 152.897, 118 153.290 C 116.803 153.603, 116 154.654, 116 155.906 C 116 157.101, 115.356 158, 114.500 158 C 113.452 158, 113 159.056, 113 161.500 C 113 163.896, 112.541 165, 111.545 165 C 110.675 165, 109.827 166.405, 109.434 168.500 C 109.058 170.505, 108.184 172, 107.389 172 C 106.503 172, 106 173.121, 106 175.094 C 106 177.346, 105.456 178.329, 104 178.710 C 102.497 179.103, 102 180.074, 102 182.617 C 102 185.333, 101.606 186, 100 186 C 98.667 186, 98 186.667, 98 188 C 98 189.111, 97.333 190, 96.500 190 C 95.452 190, 95 191.056, 95 193.500 C 95 195.896, 94.541 197, 93.545 197 C 92.675 197, 91.827 198.405, 91.434 200.500 C 91.073 202.425, 90.203 204, 89.500 204 C 88.797 204, 87.927 205.575, 87.566 207.500 C 87.173 209.595, 86.325 211, 85.455 211 C 84.655 211, 84 211.900, 84 213 C 84 214.100, 83.345 215, 82.545 215 C 81.675 215, 80.827 216.405, 80.434 218.500 C 80.058 220.505, 79.184 222, 78.389 222 C 77.468 222, 77 223.180, 77 225.500 C 77 228.333, 76.619 229, 75 229 C 73.242 229, 73 229.667, 73 234.500 L 73 240 78.500 240 L 84 240 84 233.117 C 84 227.074, 84.244 226.169, 86 225.710 C 87.100 225.423, 88 224.470, 88 223.594 C 88 222.717, 88.675 222, 89.500 222 C 90.548 222, 91 220.944, 91 218.500 C 91 215.667, 91.381 215, 93 215 C 94.333 215, 95 214.333, 95 213 C 95 211.889, 95.667 211, 96.500 211 C 97.548 211, 98 209.944, 98 207.500 C 98 204.667, 98.381 204, 100 204 C 101.667 204, 102 203.333, 102 200 C 102 197.211, 102.430 196, 103.421 196 C 104.202 196, 105.138 194.650, 105.500 193 C 105.862 191.350, 106.748 190, 107.468 190 C 108.188 190, 109.065 188.468, 109.416 186.597 C 109.767 184.725, 110.717 182.939, 111.527 182.628 C 112.337 182.317, 113 181.374, 113 180.531 C 113 179.689, 113.675 179, 114.500 179 C 115.646 179, 116 180.261, 116 184.346 C 116 196.592, 117.278 208, 118.650 208 C 119.737 208, 120 211.794, 120 227.500 C 120 244.167, 120.218 247, 121.500 247 C 122.652 247, 123 248.278, 123 252.500 C 123 257.333, 123.242 258, 125 258 C 126.111 258, 127 258.667, 127 259.500 C 127 260.325, 127.675 261, 128.500 261 C 129.325 261, 130 260.325, 130 259.500 C 130 258.667, 130.889 258, 132 258 C 133.619 258, 134 257.333, 134 254.500 C 134 252.056, 133.548 251, 132.500 251 C 131.278 251, 131 249.333, 131 242 C 131 235.030, 130.690 233, 129.625 233 C 127.469 233, 127 228.244, 127 206.375 L 127 186 130.389 186 C 133.470 186, 133.837 185.682, 134.434 182.500 C 135.014 179.409, 135.447 179, 138.139 179 C 140.346 179, 141.332 178.448, 141.710 177 C 142.143 175.344, 143.074 175, 147.117 175 C 150.577 175, 152 174.602, 152 173.634 C 152 172.656, 154.018 172.124, 159.120 171.759 C 168.842 171.064, 170 171.474, 170 175.617 C 170 177.957, 169.538 179, 168.500 179 C 167.236 179, 167 181.278, 167 193.500 C 167 205.722, 167.236 208, 168.500 208 C 169.325 208, 170 208.675, 170 209.500 C 170 210.325, 169.325 211, 168.500 211 C 167.348 211, 167 212.278, 167 216.500 C 167 220.646, 166.642 222, 165.545 222 C 164.675 222, 163.827 223.405, 163.434 225.500 L 162.777 229 150.389 229 C 138.667 229, 138 229.108, 138 231 C 138 232.111, 137.333 233, 136.500 233 C 135.667 233, 135 233.889, 135 235 C 135 236.111, 135.667 237, 136.500 237 C 137.487 237, 138 237.987, 138 239.883 C 138 243.283, 139.686 243.966, 148.125 243.986 C 155.649 244.005, 160 243.048, 160 241.375 C 160 240.339, 161.727 240, 167 240 C 172.556 240, 174 239.690, 174 238.500 C 174 237.458, 175.144 236.958, 177.750 236.863 C 191.540 236.360, 195.126 236.346, 200.250 236.776 C 204.219 237.109, 206 237.683, 206 238.629 C 206 239.638, 207.585 240, 212 240 C 216.667 240, 218 239.667, 218 238.500 C 218 237.675, 218.675 237, 219.500 237 C 220.433 237, 221 236.056, 221 234.500 C 221 233.030, 220.426 232, 219.607 232 C 218.841 232, 217.955 231.325, 217.638 230.500 C 217.151 229.231, 213.748 229, 195.531 229 L 174 229 174 220.500 C 174 213.611, 174.284 212, 175.500 212 C 176.725 212, 177.001 210.304, 177.005 202.750 C 177.013 185.088, 178.188 171, 179.653 171 C 180.394 171, 181 170.325, 181 169.500 C 181 168.247, 183.056 168, 193.500 168 C 203.944 168, 206 167.753, 206 166.500 C 206 165.348, 207.278 165, 211.500 165 C 215.722 165, 217 165.348, 217 166.500 C 217 167.652, 218.278 168, 222.500 168 L 228 168 228 164.617 C 228 162.074, 227.503 161.103, 226 160.710 C 224.900 160.423, 224 159.440, 224 158.528 C 224 157.035, 222.300 156.900, 207.041 157.184 C 192.210 157.460, 189.920 157.722, 188.791 159.266 C 187.741 160.702, 186.626 160.912, 182.816 160.389 L 178.132 159.746 177.450 153.373 C 176.975 148.942, 176.345 147, 175.384 147 C 174.377 147, 174 145.534, 174 141.617 C 174 137.074, 174.312 136.152, 176 135.710 C 177.532 135.310, 178 134.346, 178 131.594 C 178 128.153, 178.149 128, 181.500 128 C 184.833 128, 185 127.833, 185 124.500 C 185 121.167, 184.833 121, 181.500 121 C 179.056 121, 178 120.548, 178 119.500 C 178 118.452, 176.944 118, 174.500 118 C 172.056 118, 171 118.452, 171 119.500 C 171 120.333, 170.111 121, 169 121 C 167.067 121, 167 121.667, 167 141 L 167 161 161.500 161 C 157.278 161, 156 161.348, 156 162.500 C 156 163.637, 154.767 164, 150.906 164 C 146.654 164, 145.726 164.330, 145.290 166 C 144.816 167.811, 143.926 168, 135.883 168 C 128.654 168, 127 167.721, 127 166.500 C 127 165.675, 126.352 165, 125.559 165 C 124.766 165, 123.868 164.596, 123.563 164.103 C 122.591 162.530, 124.196 157, 125.625 157 C 126.530 157, 127 155.803, 127 153.500 C 127 150.667, 127.381 150, 129 150 C 130.333 150, 131 149.333, 131 148 C 131 146.889, 131.667 146, 132.500 146 C 133.510 146, 134 144.990, 134 142.906 C 134 140.654, 134.544 139.671, 136 139.290 C 137.503 138.897, 138 137.926, 138 135.383 C 138 133.136, 138.474 132, 139.412 132 C 140.280 132, 141.085 130.459, 141.500 128 C 141.915 125.541, 142.720 124, 143.588 124 C 144.493 124, 145 122.913, 145 120.969 C 145 119.221, 145.624 117.698, 146.473 117.372 C 147.283 117.061, 148.233 115.275, 148.584 113.403 C 148.935 111.532, 149.827 110, 150.566 110 C 151.310 110, 152.203 108.437, 152.566 106.500 C 152.942 104.495, 153.816 103, 154.611 103 C 155.375 103, 156 102.377, 156 101.617 C 156 100.856, 156.900 99.998, 158 99.710 C 159.100 99.423, 160 98.470, 160 97.594 C 160 96.237, 161.559 96, 170.500 96 C 179.167 96, 181 95.738, 181 94.500 C 181 93.227, 183.500 93, 197.500 93 C 211.500 93, 214 93.227, 214 94.500 C 214 95.548, 215.056 96, 217.500 96 C 219.944 96, 221 96.452, 221 97.500 C 221 98.325, 221.675 99, 222.500 99 C 223.325 99, 224 98.325, 224 97.500 C 224 96.667, 224.889 96, 226 96 C 227.619 96, 228 95.333, 228 92.500 C 228 89.190, 227.817 89, 224.617 89 C 222.074 89, 221.103 88.503, 220.710 87 C 220.203 85.059, 219.346 85, 191.594 85 C 167.915 85, 163 84.762, 163 83.617 C 163 82.856, 163.900 81.998, 165 81.710 C 166.456 81.329, 167 80.346, 167 78.094 C 167 76.096, 167.500 75, 168.412 75 C 169.280 75, 170.085 73.459, 170.500 71 C 170.915 68.541, 171.720 67, 172.588 67 C 173.535 67, 174 65.848, 174 63.500 C 174 60.667, 174.381 60, 176 60 C 177.333 60, 178 59.333, 178 58 C 178 56.889, 178.667 56, 179.500 56 C 180.325 56, 181 55.325, 181 54.500 C 181 53.675, 181.675 53, 182.500 53 C 183.325 53, 184 53.675, 184 54.500 C 184 57.108, 187.726 56.227, 188.422 53.454 C 189.148 50.561, 188.493 49, 186.552 49 C 185.821 49, 184.927 47.425, 184.566 45.500 C 183.966 42.302, 183.611 42, 180.455 42 C 178.051 42, 177 42.456, 177 43.500" stroke="none" fill="black" fill-rule="evenodd"/>
</svg>