<svg xmlns="http://www.w3.org/2000/svg" width="300" height="300" viewBox="0 0 300 300" version="1.1">
	<path d="M 237.250 55.652 C 236.012 55.920, 235 56.558, 235 57.070 C 235 57.581, 234.325 58, 233.500 58 C 232.675 58, 232 57.550, 232 57 C 232 55.621, 228.255 55.734, 227.791 57.127 C 227.584 57.747, 225.072 58.479, 222.208 58.754 C 218.703 59.091, 217 59.703, 217 60.627 C 217 61.455, 215.908 62.005, 214.250 62.014 C 209.968 62.035, 207 63.101, 207 64.617 C 207 65.627, 205.516 66, 201.500 66 C 197.430 66, 196 66.367, 196 67.412 C 196 68.280, 194.459 69.085, 192 69.500 C 189.645 69.898, 188 70.730, 188 71.525 C 188 72.315, 186.655 73.003, 184.750 73.187 C 181.783 73.473, 181.473 73.826, 181.190 77.250 C 180.987 79.703, 180.381 81, 179.440 81 C 178.461 81, 178 82.121, 178 84.500 C 178 86.944, 178.452 88, 179.500 88 C 180.548 88, 181 89.056, 181 91.500 C 181 94.806, 181.187 95, 184.361 95 C 187.668 95, 187.731 95.083, 188.352 100.250 C 188.699 103.138, 188.987 107.862, 188.991 110.750 C 188.998 114.746, 189.358 116, 190.500 116 C 191.811 116, 192 121.667, 192 161 C 192 200.333, 192.189 206, 193.500 206 C 194.783 206, 195 208.889, 195 226 L 195 246 199 246 C 202.905 246, 203 245.917, 203 242.500 C 203 240.056, 203.452 239, 204.500 239 C 205.738 239, 206 237.167, 206 228.500 C 206 219.833, 205.738 218, 204.500 218 C 203.190 218, 203 212.500, 203 174.500 C 203 138.049, 203.225 131, 204.389 131 C 205.184 131, 206.058 132.495, 206.434 134.500 C 206.827 136.595, 207.675 138, 208.545 138 C 209.345 138, 210 138.900, 210 140 C 210 141.111, 210.667 142, 211.500 142 C 212.325 142, 213 142.675, 213 143.500 C 213 144.333, 213.889 145, 215 145 C 216.333 145, 217 145.667, 217 147 C 217 148.333, 217.667 149, 219 149 C 220.100 149, 221 149.625, 221 150.389 C 221 151.184, 222.495 152.058, 224.500 152.434 C 226.595 152.827, 228 153.675, 228 154.545 C 228 155.680, 229.541 156, 235 156 C 240.556 156, 242 155.690, 242 154.500 C 242 153.667, 242.889 153, 244 153 C 245.333 153, 246 152.333, 246 151 C 246 149.667, 246.667 149, 248 149 C 249.667 149, 250 148.333, 250 145 C 250 142.290, 250.439 141, 251.363 141 C 252.323 141, 252.883 139.041, 253.258 134.374 C 253.579 130.378, 254.328 127.416, 255.145 126.912 C 256.131 126.304, 256.591 122.800, 256.834 114.038 C 257.087 104.890, 257.485 102, 258.490 102 C 259.473 102, 259.901 99.495, 260.156 92.250 C 260.691 77.078, 260.086 69, 258.415 69 C 257.465 69, 257 67.851, 257 65.500 C 257 63.056, 256.548 62, 255.500 62 C 254.675 62, 254 61.311, 254 60.469 C 254 59.626, 253.213 58.647, 252.250 58.292 C 251.287 57.936, 250.241 57.264, 249.925 56.797 C 249.229 55.770, 240.390 54.972, 237.250 55.652 M 131 67.500 C 131 68.605, 129.847 69, 126.625 69 C 120.259 69, 116 70.052, 116 71.625 C 116 72.530, 114.803 73, 112.500 73 C 109.667 73, 109 73.381, 109 75 C 109 76.333, 108.333 77, 107 77 C 105.889 77, 105 77.667, 105 78.500 C 105 79.325, 104.325 80, 103.500 80 C 101.036 80, 101.491 86.634, 104 87.290 C 105.100 87.577, 106 88.530, 106 89.406 C 106 90.283, 106.675 91, 107.500 91 C 108.333 91, 109 91.889, 109 93 C 109 94.333, 109.667 95, 111 95 C 112.758 95, 113 94.333, 113 89.500 C 113 84.667, 113.242 84, 115 84 C 116.100 84, 117 83.377, 117 82.617 C 117 80.940, 120.053 80.032, 125.750 80.014 C 128.855 80.004, 130 79.596, 130 78.500 C 130 77.272, 131.722 77, 139.500 77 L 149 77 149 93 L 149 109 138 109 C 127.667 109, 127 109.121, 127 111 C 127 112.619, 126.333 113, 123.500 113 C 120.667 113, 120 112.619, 120 111 C 120 109.667, 119.333 109, 118 109 C 116.900 109, 116 109.655, 116 110.455 C 116 111.325, 114.595 112.173, 112.500 112.566 C 110.495 112.942, 109 113.816, 109 114.611 C 109 115.375, 108.389 116, 107.642 116 C 105.846 116, 105 124.371, 105 142.147 C 105 153.794, 104.761 156, 103.500 156 C 102.348 156, 102 157.278, 102 161.500 C 102 165.722, 102.348 167, 103.500 167 C 104.685 167, 105.001 168.419, 105.005 173.750 C 105.015 189.126, 106.271 203, 107.653 203 C 108.619 203, 109 204.555, 109 208.500 C 109 212.722, 109.348 214, 110.500 214 C 111.325 214, 112 214.619, 112 215.375 C 112 217.423, 116.706 217.995, 127.935 217.311 C 134.937 216.885, 138 216.321, 138 215.460 C 138 214.780, 139.575 213.927, 141.500 213.566 C 143.595 213.173, 145 212.325, 145 211.455 C 145 210.655, 145.623 210, 146.383 210 C 147.144 210, 148.002 209.100, 148.290 208 C 148.577 206.900, 149.494 206, 150.327 206 C 151.196 206, 152.122 204.722, 152.500 203 C 152.862 201.350, 153.798 200, 154.579 200 C 155.570 200, 156 198.789, 156 196 C 156 192.667, 156.333 192, 158 192 C 159.111 192, 160 192.667, 160 193.500 C 160 194.325, 160.675 195, 161.500 195 C 162.333 195, 163 195.889, 163 197 C 163 198.333, 163.667 199, 165 199 C 166.333 199, 167 199.667, 167 201 C 167 202.100, 167.623 203, 168.383 203 C 169.144 203, 170.002 203.900, 170.290 205 C 170.577 206.100, 171.530 207, 172.406 207 C 173.283 207, 174 207.675, 174 208.500 C 174 209.548, 175.056 210, 177.500 210 L 181 210 181 204.500 L 181 199 177.500 199 C 174.167 199, 174 198.833, 174 195.500 C 174 193.180, 173.532 192, 172.611 192 C 171.816 192, 170.942 190.505, 170.566 188.500 C 170.173 186.405, 169.325 185, 168.455 185 C 167.468 185, 167 183.911, 167 181.617 C 167 179.074, 166.503 178.103, 165 177.710 C 163.468 177.310, 163 176.346, 163 173.594 C 163 170.153, 162.851 170, 159.500 170 C 156.667 170, 156 170.381, 156 172 C 156 173.333, 155.333 174, 154 174 C 152.178 174, 152 174.667, 152 181.500 C 152 187.500, 151.700 189, 150.500 189 C 149.500 189, 149 190, 149 192 C 149 194.078, 148.510 195, 147.406 195 C 146.530 195, 145.577 195.900, 145.290 197 C 145.002 198.100, 144.197 199, 143.500 199 C 142.803 199, 141.998 199.900, 141.710 201 C 141.423 202.100, 140.470 203, 139.594 203 C 138.717 203, 138 203.675, 138 204.500 C 138 205.412, 137.069 206, 135.625 206 C 131.120 206, 127 207.254, 127 208.625 C 127 210.758, 124.297 210.245, 123.710 208 C 123.329 206.544, 122.346 206, 120.094 206 C 117.272 206, 116.999 205.714, 116.991 202.750 C 116.972 195.574, 115.714 189, 114.361 189 C 113.296 189, 113 186.611, 113 178 C 113 168.889, 113.258 167, 114.500 167 C 115.333 167, 116 166.111, 116 165 C 116 163.333, 116.667 163, 120 163 C 122.889 163, 124 162.583, 124 161.500 C 124 160.452, 125.056 160, 127.500 160 C 130.333 160, 131 159.619, 131 158 C 131 156.381, 131.667 156, 134.500 156 C 137.333 156, 138 155.619, 138 154 C 138 152.667, 138.667 152, 140 152 C 141.111 152, 142 151.333, 142 150.500 C 142 149.675, 142.616 149, 143.370 149 C 144.254 149, 144.922 150.614, 145.253 153.549 C 145.860 158.936, 145.933 159.031, 149.628 159.295 C 152.450 159.496, 152.505 159.401, 152.800 153.750 C 153.020 149.531, 153.486 148, 154.550 148 C 155.771 148, 156 144.679, 156 127 C 156 109.979, 156.257 106, 157.358 106 C 159.020 106, 160.006 97.791, 159.986 84.103 C 159.971 73.229, 159.375 70, 157.383 70 C 156.623 70, 156 69.100, 156 68 C 156 66.107, 155.333 66, 143.500 66 C 133.056 66, 131 66.247, 131 67.500 M 224.710 68 C 224.310 69.532, 223.346 70, 220.594 70 C 218.066 70, 217 70.445, 217 71.500 C 217 72.637, 215.767 73, 211.906 73 C 207.654 73, 206.726 73.330, 206.290 75 C 205.857 76.656, 204.926 77, 200.883 77 L 196 77 196 82.500 C 196 86.537, 196.371 88, 197.394 88 C 198.441 88, 198.880 90.012, 199.155 96.076 C 199.445 102.457, 199.887 104.357, 201.261 105.126 C 202.548 105.846, 203 107.387, 203 111.050 C 203 114.783, 203.369 116, 204.500 116 C 205.412 116, 206 116.931, 206 118.375 C 206 122.880, 207.254 127, 208.625 127 C 209.381 127, 210 127.900, 210 129 C 210 130.100, 210.655 131, 211.455 131 C 212.325 131, 213.173 132.405, 213.566 134.500 C 213.942 136.505, 214.816 138, 215.611 138 C 216.375 138, 217 138.625, 217 139.389 C 217 140.184, 218.495 141.058, 220.500 141.434 C 222.595 141.827, 224 142.675, 224 143.545 C 224 144.710, 225.791 145, 233 145 C 241.807 145, 242 144.949, 242 142.625 C 242 138.120, 243.254 134, 244.625 134 C 245.690 134, 246 131.970, 246 125 C 246 118.118, 246.317 116, 247.348 116 C 248.354 116, 248.862 113.293, 249.348 105.344 C 250.175 91.837, 250.188 73.192, 249.375 69.125 L 248.750 66 236.992 66 C 226.074 66, 225.196 66.143, 224.710 68 M 44 105.500 C 44 107.847, 43.535 109, 42.589 109 C 40.696 109, 40.417 115.216, 40.847 147.750 C 41.134 169.443, 41.438 174, 42.597 174 C 43.614 174, 44 175.376, 44 179 C 44 182.778, 43.633 184, 42.500 184 C 41.333 184, 41 185.333, 41 190 L 41 196 44.500 196 C 46.944 196, 48 196.452, 48 197.500 C 48 198.412, 48.931 199, 50.375 199 C 54.880 199, 59 200.254, 59 201.625 C 59 203.731, 79.828 203.611, 80.638 201.500 C 80.955 200.675, 81.841 200, 82.607 200 C 83.741 200, 84 196.937, 84 183.500 C 84 170.167, 84.264 167, 85.375 167 C 87.512 167, 88 162.264, 88 141.500 C 88 120.736, 87.512 116, 85.375 116 C 84.470 116, 84 114.803, 84 112.500 C 84 109.667, 83.619 109, 82 109 C 80.900 109, 80 108.386, 80 107.636 C 80 105.757, 72.682 104.883, 63.471 105.662 C 58.168 106.110, 56 106.686, 56 107.647 C 56 108.391, 55.100 109, 54 109 C 52.381 109, 52 108.333, 52 105.500 C 52 102.083, 51.905 102, 48 102 C 44.095 102, 44 102.083, 44 105.500 M 61.250 116.706 C 60.013 116.944, 59 117.783, 59 118.570 C 59 119.356, 58.100 120, 57 120 C 55.190 120, 55 120.667, 55 127 C 55 133.333, 54.810 134, 53 134 C 51.667 134, 51 133.333, 51 132 C 51 130.889, 50.333 130, 49.500 130 C 48.417 130, 48 131.111, 48 134 C 48 136.694, 48.441 138, 49.352 138 C 51.065 138, 51.986 148.886, 51.994 169.250 C 51.999 181.692, 52.235 184, 53.500 184 C 54.500 184, 55 183, 55 181 C 55 178.667, 55.444 178, 57 178 C 58.111 178, 59 178.667, 59 179.500 C 59 180.325, 59.675 181, 60.500 181 C 61.333 181, 62 181.889, 62 183 C 62 184.111, 61.333 185, 60.500 185 C 59.452 185, 59 186.056, 59 188.500 C 59 191.833, 59.167 192, 62.500 192 C 64.944 192, 66 192.452, 66 193.500 C 66 194.548, 67.056 195, 69.500 195 C 71.944 195, 73 194.548, 73 193.500 C 73 192.675, 73.623 192, 74.383 192 C 75.144 192, 76.038 190.988, 76.370 189.750 C 76.701 188.512, 76.979 171.694, 76.986 152.375 L 77 117.250 73.875 116.625 C 70.544 115.959, 64.942 115.995, 61.250 116.706 M 116.667 116.667 C 116.300 117.033, 116 118.608, 116 120.167 C 116 122.019, 115.480 123, 114.500 123 C 113.233 123, 113 125.346, 113 138.117 L 113 153.233 115.250 152.630 C 116.487 152.299, 118.963 152.021, 120.750 152.014 C 122.966 152.004, 124 151.523, 124 150.500 C 124 149.452, 125.056 149, 127.500 149 C 129.896 149, 131 148.541, 131 147.545 C 131 146.675, 132.405 145.827, 134.500 145.434 C 136.437 145.071, 138 144.178, 138 143.434 C 138 142.695, 139.534 141.803, 141.408 141.451 C 145.672 140.651, 146.152 139.037, 145.332 128.250 C 144.879 122.292, 144.329 120, 143.352 120 C 142.609 120, 142 119.325, 142 118.500 C 142 117.667, 141.111 117, 140 117 C 138.889 117, 138 117.667, 138 118.500 C 138 119.583, 136.889 120, 134 120 C 131.248 120, 130 120.434, 130 121.393 C 130 122.159, 129.325 123.045, 128.500 123.362 C 127.675 123.678, 127 124.626, 127 125.469 C 127 126.333, 126.129 127, 125 127 C 123.889 127, 123 126.333, 123 125.500 C 123 124.675, 122.325 124, 121.500 124 C 120.417 124, 120 122.889, 120 120 C 120 116.229, 118.552 114.781, 116.667 116.667" stroke="none" fill="black" fill-rule="evenodd"/>
</svg>