<svg xmlns="http://www.w3.org/2000/svg" width="300" height="300" viewBox="0 0 300 300" version="1.1">
	<path d="M 140 36.500 C 140 37.704, 138.468 38.002, 132.250 38.009 C 120.912 38.021, 114 39.018, 114 40.639 C 114 41.686, 111.924 42, 105 42 C 97.957 42, 96 42.304, 96 43.399 C 96 44.396, 93.995 44.998, 89 45.500 C 84.005 46.002, 82 46.604, 82 47.601 C 82 48.566, 80.760 49, 78 49 C 75.111 49, 74 49.417, 74 50.500 C 74 51.500, 73 52, 71 52 C 67.839 52, 66.959 50.614, 69.500 49.638 C 71.719 48.787, 71.336 46, 69 46 C 67.667 46, 67 45.333, 67 44 C 67 42.900, 66.377 42, 65.617 42 C 64.856 42, 63.998 42.900, 63.710 44 C 63.335 45.435, 62.346 46, 60.210 46 C 56.656 46, 56.034 47.595, 56.014 56.750 C 56.004 61.380, 55.644 63, 54.625 63 C 53.869 63, 52.959 64.457, 52.602 66.238 C 51.677 70.866, 52.978 81, 54.498 81 C 56.086 81, 56.975 86.445, 56.989 96.250 C 56.998 102.467, 57.297 104, 58.500 104 C 59.802 104, 60 108.222, 60 136 C 60 162.322, 60.241 168, 61.361 168 C 62.751 168, 63.974 174.622, 63.991 182.250 C 63.997 184.913, 64.435 186, 65.500 186 C 66.764 186, 67.037 188.631, 67.233 202.750 C 67.361 211.963, 67.412 221.637, 67.345 224.250 L 67.225 229 72.612 229 C 76.735 229, 78 228.648, 78 227.500 C 78 226.667, 78.889 226, 80 226 C 81.593 226, 81.997 225.338, 81.986 222.750 C 81.966 218, 80.959 215, 79.383 215 C 78.329 215, 78 213.219, 78 207.500 C 78 201.500, 77.700 200, 76.500 200 C 75.373 200, 75 198.794, 75 195.147 C 75 185.846, 73.791 178, 72.358 178 C 71.290 178, 71 175.440, 71 166 C 71 156, 71.250 154, 72.500 154 C 73.325 154, 74 154.675, 74 155.500 C 74 156.700, 75.500 157, 81.500 157 C 87.500 157, 89 156.700, 89 155.500 C 89 154.534, 89.978 153.995, 91.750 153.986 C 96.032 153.965, 99 152.899, 99 151.383 C 99 150.436, 100.261 150, 103 150 C 106.333 150, 107 150.333, 107 152 C 107 153.619, 107.667 154, 110.500 154 C 113.333 154, 114 153.619, 114 152 C 114 150.333, 114.667 150, 118 150 C 120.739 150, 122 149.564, 122 148.617 C 122 147.101, 124.968 146.035, 129.250 146.014 C 130.890 146.006, 132 145.453, 132 144.645 C 132 143.632, 134.552 143.150, 142.137 142.732 C 148.459 142.384, 152.557 141.716, 153.025 140.959 C 153.541 140.124, 158.815 139.584, 169.888 139.230 C 185.849 138.721, 186 138.736, 186 140.858 C 186 142.333, 185.377 143, 184 143 C 182.889 143, 182 143.667, 182 144.500 C 182 145.325, 181.325 146, 180.500 146 C 179.417 146, 179 147.111, 179 150 C 179 152.993, 179.401 154, 180.594 154 C 181.470 154, 182.423 153.100, 182.710 152 C 183.078 150.593, 184.074 150, 186.071 150 C 188.523 150, 188.999 149.524, 189.566 146.500 C 189.942 144.495, 190.816 143, 191.611 143 C 192.375 143, 193 142.100, 193 141 C 193 139.667, 193.667 139, 195 139 C 196.758 139, 197 138.333, 197 133.500 L 197 128 185.640 128 C 171.429 128, 165 128.821, 165 130.636 C 165 131.733, 161.769 132, 148.500 132 C 134.500 132, 132 132.227, 132 133.500 C 132 134.333, 131.111 135, 130 135 C 128.444 135, 128 134.333, 128 132 C 128 129.667, 128.444 129, 130 129 C 131.333 129, 132 128.333, 132 127 C 132 125.837, 132.667 125, 133.594 125 C 134.470 125, 135.423 124.100, 135.710 123 C 135.998 121.900, 136.856 121, 137.617 121 C 138.377 121, 139 120.325, 139 119.500 C 139 118.457, 140.049 118, 142.440 118 C 145.691 118, 145.896 117.795, 146.190 114.258 C 146.407 111.643, 147.027 110.417, 148.250 110.185 C 149.461 109.956, 150 110.492, 150 111.927 C 150 113.067, 150.623 114, 151.383 114 C 152.144 114, 153.002 114.900, 153.290 116 C 154.025 118.810, 156.672 118.494, 157.239 115.528 C 157.499 114.169, 157.494 110.794, 157.229 108.028 C 156.753 103.080, 156.692 103, 153.373 103 C 151.041 103, 150 102.537, 150 101.500 C 150 100.477, 148.966 99.996, 146.750 99.986 C 142 99.966, 139 98.959, 139 97.383 C 139 96.623, 139.900 96, 141 96 C 142.100 96, 143 95.377, 143 94.617 C 143 93.856, 143.900 92.998, 145 92.710 C 146.100 92.423, 147 91.470, 147 90.594 C 147 89.717, 147.675 89, 148.500 89 C 149.333 89, 150 88.111, 150 87 C 150 85.900, 150.655 85, 151.455 85 C 153.288 85, 154.451 79.217, 153.566 74.500 L 152.909 71 135.455 71 C 120.606 71, 118 71.224, 118 72.500 C 118 73.583, 116.889 74, 114 74 C 111.111 74, 110 73.583, 110 72.500 C 110 71.367, 108.778 71, 105 71 L 100 71 100 74.500 C 100 76.797, 100.471 78, 101.370 78 C 102.258 78, 102.924 79.635, 103.264 82.651 C 103.580 85.449, 104.428 87.660, 105.394 88.201 C 106.277 88.695, 107 89.977, 107 91.050 C 107 92.122, 107.675 93, 108.500 93 C 109.633 93, 110 94.222, 110 98 C 110 101.778, 109.633 103, 108.500 103 C 107.675 103, 107 103.623, 107 104.383 C 107 105.144, 106.100 106.002, 105 106.290 C 103.468 106.690, 103 107.654, 103 110.406 L 103 114 109.883 114 C 115.926 114, 116.831 114.244, 117.290 116 C 118.054 118.921, 125 118.921, 125 116 C 125 114.381, 125.667 114, 128.500 114 C 130.944 114, 132 114.452, 132 115.500 C 132 116.325, 131.283 117, 130.406 117 C 129.530 117, 128.577 117.900, 128.290 119 C 128.002 120.100, 127.144 121, 126.383 121 C 125.623 121, 125 121.900, 125 123 C 125 124.333, 124.333 125, 123 125 C 121.667 125, 121 125.667, 121 127 C 121 128.100, 120.361 129, 119.579 129 C 118.798 129, 117.862 130.350, 117.500 132 C 117.138 133.650, 116.202 135, 115.421 135 C 114.639 135, 114 135.900, 114 137 C 114 138.731, 113.333 139, 109.050 139 C 105.387 139, 103.846 139.452, 103.126 140.739 C 102.357 142.113, 100.457 142.555, 94.076 142.845 C 88.012 143.120, 86 143.559, 86 144.606 C 86 145.632, 84.523 146, 80.406 146 C 75.654 146, 74.734 146.301, 74.290 148 C 73.897 149.503, 72.926 150, 70.383 150 L 67 150 67 112.500 C 67 79.833, 66.807 75, 65.500 75 C 64.667 75, 64 74.111, 64 73 C 64 71.889, 64.667 71, 65.500 71 C 66.548 71, 67 69.944, 67 67.500 C 67 64.667, 67.381 64, 69 64 C 70.333 64, 71 63.333, 71 62 C 71 60.381, 71.667 60, 74.500 60 C 76.944 60, 78 59.548, 78 58.500 C 78 57.588, 78.931 57, 80.375 57 C 84.880 57, 89 55.746, 89 54.375 C 89 53.342, 90.710 53, 95.883 53 C 101.926 53, 102.831 52.756, 103.290 51 C 103.771 49.159, 104.654 49, 114.406 49 C 123.156 49, 125 48.739, 125 47.500 C 125 46.294, 126.542 46, 132.875 46 C 142.568 46, 147 45.176, 147 43.375 C 147 42.266, 150.091 42, 163 42 C 175.956 42, 179 42.263, 179 43.383 C 179 45.340, 182.209 45.971, 192.250 45.986 C 199.355 45.997, 201 46.282, 201 47.500 C 201 48.548, 202.056 49, 204.500 49 C 207.833 49, 208 49.167, 208 52.500 C 208 54.848, 208.465 56, 209.412 56 C 210.556 56, 210.889 59.052, 211.162 72.038 C 211.434 84.956, 211.792 88.255, 213 89 C 214.204 89.742, 214.567 92.991, 214.840 105.462 C 215.114 118.007, 215.451 121, 216.590 121 C 217.708 121, 218 123.043, 218 130.875 C 218 142.494, 218.734 147, 220.625 147 C 221.739 147, 222 150.318, 222 164.500 C 222 178.536, 222.268 182, 223.352 182 C 224.688 182, 225.979 192.141, 225.994 202.750 C 225.998 205.858, 226.403 207, 227.500 207 C 228.700 207, 229 208.500, 229 214.500 C 229 220.197, 229.331 222, 230.375 222 C 231.948 222, 233 226.259, 233 232.625 C 233 235.847, 233.395 237, 234.500 237 C 235.716 237, 236 238.611, 236 245.500 C 236 252.389, 235.716 254, 234.500 254 C 233.675 254, 233 253.325, 233 252.500 C 233 251.452, 231.944 251, 229.500 251 C 226.167 251, 226 251.167, 226 254.500 C 226 257.833, 226.167 258, 229.500 258 C 232.333 258, 233 258.381, 233 260 C 233 261.333, 233.667 262, 235 262 C 236.111 262, 237 262.667, 237 263.500 C 237 264.325, 237.675 265, 238.500 265 C 239.325 265, 240 264.325, 240 263.500 C 240 262.667, 240.889 262, 242 262 C 243.333 262, 244 261.333, 244 260 C 244 258.630, 244.667 258, 246.117 258 C 247.824 258, 248.117 257.565, 247.630 255.750 C 247.299 254.512, 247.021 250.463, 247.014 246.750 C 247.003 241.423, 246.684 240, 245.500 240 C 244.348 240, 244 238.722, 244 234.500 C 244 229.667, 243.758 229, 242 229 C 240.148 229, 240 228.333, 240 220 C 240 212.941, 239.697 211, 238.596 211 C 237.526 211, 237.023 208.507, 236.477 200.500 C 235.937 192.583, 235.422 190, 234.381 190 C 233.277 190, 233 187.389, 233 177 C 233 166.598, 232.724 164, 231.617 164 C 229.467 164, 229.028 160.675, 229.014 144.250 C 229.003 131.962, 228.732 129, 227.621 129 C 226.545 129, 226.082 125.807, 225.517 114.500 C 224.947 103.104, 224.493 100, 223.396 100 C 222.258 100, 222 96.954, 222 83.500 C 222 69.500, 221.773 67, 220.500 67 C 219.273 67, 219 65.292, 219 57.625 C 219 45.494, 218.301 42, 215.875 42 C 214.844 42, 214 41.386, 214 40.636 C 214 38.896, 207.661 38, 195.360 38 C 187.707 38, 186 37.727, 186 36.500 C 186 35.210, 182.778 35, 163 35 C 143.222 35, 140 35.210, 140 36.500 M 128 79.455 C 128 80.325, 126.595 81.173, 124.500 81.566 C 122.495 81.942, 121 82.816, 121 83.611 C 121 84.375, 120.325 85, 119.500 85 C 118.348 85, 118 86.278, 118 90.500 C 118 94.722, 118.348 96, 119.500 96 C 120.333 96, 121 96.889, 121 98 C 121 99.100, 121.563 99.994, 122.250 99.986 C 125.160 99.955, 128 98.669, 128 97.383 C 128 96.623, 128.900 96, 130 96 C 131.333 96, 132 95.333, 132 94 C 132 92.667, 132.667 92, 134 92 C 135.111 92, 136 91.333, 136 90.500 C 136 89.675, 136.675 89, 137.500 89 C 138.333 89, 139 88.111, 139 87 C 139 85.667, 139.667 85, 141 85 C 142.619 85, 143 84.333, 143 81.500 L 143 78 135.500 78 C 129.604 78, 128 78.311, 128 79.455 M 157 155.500 C 157 156.722, 155.333 157, 148 157 C 141.004 157, 139 157.308, 139 158.383 C 139 159.959, 136 160.966, 131.250 160.986 C 129.034 160.996, 128 161.477, 128 162.500 C 128 163.633, 126.778 164, 123 164 C 119.222 164, 118 163.633, 118 162.500 C 118 161.452, 116.944 161, 114.500 161 C 112.056 161, 111 161.452, 111 162.500 C 111 163.325, 110.140 164, 109.088 164 C 107.636 164, 107.013 164.964, 106.500 168 C 106.128 170.200, 105.450 172, 104.992 172 C 104.534 172, 103.862 173.350, 103.500 175 C 103.138 176.650, 102.202 178, 101.421 178 C 100.639 178, 99.994 178.787, 99.986 179.750 C 99.979 180.713, 99.701 182.512, 99.370 183.750 C 98.883 185.565, 99.176 186, 100.883 186 C 102.762 186, 103 186.573, 103 191.094 C 103 195.346, 103.330 196.274, 105 196.710 C 106.921 197.213, 107 198.074, 107 218.617 L 107 240 118 240 C 126.959 240, 129 239.730, 129 238.545 C 129 237.675, 130.405 236.827, 132.500 236.434 C 134.505 236.058, 136 235.184, 136 234.389 C 136 233.281, 138.421 233, 147.955 233 L 159.909 233 160.566 236.500 C 161.163 239.682, 161.530 240, 164.611 240 L 168 240 168 233.121 L 168 226.242 153.500 225.517 L 139 224.792 139.014 222.146 C 139.046 215.957, 139.863 215, 145.117 215 C 149.333 215, 150 215.273, 150 217 C 150 218.606, 150.667 219, 153.383 219 C 156.279 219, 156.844 218.603, 157.300 216.250 C 157.593 214.738, 157.583 211.363, 157.277 208.750 C 156.767 204.390, 156.897 204, 158.861 204 C 160.625 204, 161 203.407, 161 200.617 C 161 198.048, 161.493 197.104, 163.048 196.698 C 164.898 196.214, 165.066 195.505, 164.798 189.331 C 164.527 183.114, 164.298 182.471, 162.250 182.180 C 161.012 182.005, 160 181.217, 160 180.430 C 160 179.540, 158.962 178.995, 157.250 178.986 C 152.968 178.965, 150 177.899, 150 176.383 C 150 175.340, 148.311 175, 143.117 175 C 137.074 175, 136.169 175.244, 135.710 177 C 135.423 178.100, 134.470 179, 133.594 179 C 132.439 179, 132 179.964, 132 182.500 L 132 186 126.500 186 L 121 186 121 191.500 C 121 195.516, 121.373 197, 122.383 197 C 124.103 197, 124.969 200.077, 124.986 206.250 C 124.995 209.383, 124.575 211.005, 123.750 211.014 C 123.063 211.021, 121.487 211.299, 120.250 211.630 C 118.104 212.205, 118 211.961, 117.991 206.367 C 117.977 196.790, 116.886 190, 115.361 190 C 114.440 190, 114 188.707, 114 186 C 114 183.261, 114.436 182, 115.383 182 C 116.144 182, 117.002 181.100, 117.290 180 C 117.577 178.900, 118.530 178, 119.406 178 C 120.283 178, 121 177.325, 121 176.500 C 121 175.667, 121.889 175, 123 175 C 124.111 175, 125 174.333, 125 173.500 C 125 172.588, 125.931 172, 127.375 172 C 131.880 172, 136 170.746, 136 169.375 C 136 168.375, 137.500 168, 141.500 168 C 145.573 168, 147 167.633, 147 166.586 C 147 165.467, 149.452 165.100, 158.750 164.829 C 176.057 164.323, 174.600 163.401, 175.327 175.330 C 175.667 180.913, 176.408 185.636, 176.973 185.824 C 178.368 186.289, 178.276 188.741, 176.845 189.218 C 175.493 189.669, 175.273 193.617, 175.116 220.250 C 175.017 237.087, 174.779 240, 173.500 240 C 172.675 240, 172 240.619, 172 241.375 C 172 243.658, 167.092 244, 134.375 244 C 108.105 244, 103 244.228, 103 245.404 C 103 246.526, 100.183 246.878, 88.963 247.154 C 78.506 247.412, 74.711 247.847, 74.086 248.859 C 73.625 249.606, 71.205 250.448, 68.709 250.729 C 65.370 251.106, 64.040 251.738, 63.679 253.120 C 63.408 254.154, 62.470 255, 61.594 255 C 60.439 255, 60 255.964, 60 258.500 C 60 261.333, 60.381 262, 62 262 C 63.111 262, 64 262.667, 64 263.500 C 64 264.548, 65.056 265, 67.500 265 C 69.813 265, 71 264.531, 71 263.617 C 71 262.856, 71.900 261.998, 73 261.710 C 74.100 261.423, 75 260.470, 75 259.594 C 75 258.254, 76.432 258, 84 258 C 90.900 258, 93 257.684, 93 256.647 C 93 254.472, 104.268 254, 156.151 254 C 203.333 254, 204 254.028, 204 256 C 204 257.619, 204.667 258, 207.500 258 C 210.333 258, 211 257.619, 211 256 C 211 254.900, 211.623 254, 212.383 254 C 213.892 254, 214.965 251.036, 214.986 246.811 C 214.999 244.374, 214.563 244.057, 210.327 243.422 C 207.757 243.036, 201.549 242.991, 196.531 243.320 C 184.840 244.088, 183 243.621, 183 239.883 C 183 237.987, 183.513 237, 184.500 237 C 185.806 237, 186 232.278, 186 200.500 C 186 170.022, 185.771 164, 184.611 164 C 183.816 164, 182.942 162.505, 182.566 160.500 C 182.173 158.405, 181.325 157, 180.455 157 C 179.655 157, 179 156.325, 179 155.500 C 179 154.258, 177.111 154, 168 154 C 158.889 154, 157 154.258, 157 155.500 M 132 189.383 C 132 191.926, 132.497 192.897, 134 193.290 C 135.670 193.726, 136 194.654, 136 198.906 L 136 204 143 204 C 149.333 204, 150 203.810, 150 202 C 150 200.889, 150.667 200, 151.500 200 C 152.325 200, 153 199.325, 153 198.500 C 153 197.667, 153.889 197, 155 197 C 156.758 197, 157 196.333, 157 191.500 L 157 186 148 186 C 140.667 186, 139 186.278, 139 187.500 C 139 188.325, 138.325 189, 137.500 189 C 136.675 189, 136 188.325, 136 187.500 C 136 186.667, 135.111 186, 134 186 C 132.394 186, 132 186.667, 132 189.383 M 118 223.500 L 118 229 121.500 229 C 123.813 229, 125 228.531, 125 227.617 C 125 226.856, 125.900 225.998, 127 225.710 C 128.100 225.423, 129 224.470, 129 223.594 C 129 222.401, 127.993 222, 125 222 C 121.667 222, 121 221.667, 121 220 C 121 218.889, 120.333 218, 119.500 218 C 118.348 218, 118 219.278, 118 223.500" stroke="none" fill="black" fill-rule="evenodd"/>
</svg>