<svg xmlns="http://www.w3.org/2000/svg" width="300" height="300" viewBox="0 0 300 300" version="1.1">
	<path d="M 232 46.500 C 232 47.753, 229.944 48, 219.500 48 C 209.686 48, 207 48.289, 207 49.347 C 207 50.856, 192.797 51.987, 173.750 51.995 C 164.863 51.999, 163 52.260, 163 53.500 C 163 54.722, 161.333 55, 154 55 C 145.667 55, 145 55.148, 145 57 C 145 58.873, 144.333 59, 134.500 59 C 126.207 59, 124 59.292, 124 60.389 C 124 61.184, 122.505 62.058, 120.500 62.434 C 118.405 62.827, 117 63.675, 117 64.545 C 117 65.345, 116.100 66, 115 66 C 113.242 66, 113 66.667, 113 71.500 L 113 77 116.500 77 C 118.944 77, 120 76.548, 120 75.500 C 120 74.675, 120.717 74, 121.594 74 C 122.470 74, 123.423 73.100, 123.710 72 C 124.065 70.644, 125.081 69.996, 126.867 69.986 C 131.040 69.965, 134 68.885, 134 67.383 C 134 66.289, 136.301 66, 145 66 C 153.611 66, 156 65.704, 156 64.639 C 156 62.953, 162.996 62.021, 175.750 62.009 C 183.302 62.002, 185 61.725, 185 60.500 C 185 59.222, 187.667 59, 203 59 C 217.692 59, 221 59.255, 221 60.389 C 221 61.184, 219.505 62.058, 217.500 62.434 C 215.405 62.827, 214 63.675, 214 64.545 C 214 65.345, 213.100 66, 212 66 C 210.667 66, 210 66.667, 210 68 C 210 69.111, 209.333 70, 208.500 70 C 207.675 70, 207 70.675, 207 71.500 C 207 72.633, 208.222 73, 212 73 C 215.778 73, 217 72.633, 217 71.500 C 217 70.667, 217.889 70, 219 70 C 220.333 70, 221 69.333, 221 68 C 221 66.381, 221.667 66, 224.500 66 C 226.896 66, 228 65.541, 228 64.545 C 228 63.675, 229.405 62.827, 231.500 62.434 C 233.425 62.073, 235.008 61.265, 235.017 60.639 C 235.038 59.264, 239.385 55, 240.766 55 C 242.041 55, 243.053 49.917, 242.329 47.149 C 241.851 45.320, 241.038 45, 236.883 45 C 233.209 45, 232 45.371, 232 46.500 M 156 71 C 156 72.333, 155.333 73, 154 73 C 152.371 73, 152 73.667, 152 76.594 C 152 79.346, 152.468 80.310, 154 80.710 C 155.903 81.208, 156 82.074, 156 98.617 C 156 113.402, 155.776 116, 154.500 116 C 153.675 116, 153 115.325, 153 114.500 C 153 113.333, 151.667 113, 147 113 C 142.333 113, 141 113.333, 141 114.500 C 141 115.682, 139.601 116, 134.406 116 C 128.654 116, 127.746 116.255, 127.290 118 C 126.984 119.168, 125.926 120, 124.746 120 C 122.895 120, 122.777 120.444, 123.343 125.263 C 124.185 132.427, 123.105 141, 121.361 141 C 120.286 141, 120 143.606, 120 153.383 C 120 164.926, 120.136 165.802, 122 166.290 C 123.100 166.577, 124 167.530, 124 168.406 C 124 169.780, 125.729 170, 136.500 170 C 146.944 170, 149 169.753, 149 168.500 C 149 167.278, 150.667 167, 158 167 C 166.333 167, 167 167.148, 167 169 C 167 170.111, 167.667 171, 168.500 171 C 169.646 171, 170 172.261, 170 176.346 C 170 188.592, 171.278 200, 172.650 200 C 173.719 200, 174 202.912, 174 214 L 174 228 179.500 228 C 183.722 228, 185 227.652, 185 226.500 C 185 225.675, 185.717 225, 186.594 225 C 187.470 225, 188.423 224.100, 188.710 223 C 188.998 221.900, 189.856 221, 190.617 221 C 191.527 221, 192 219.821, 192 217.552 L 192 214.105 186.750 213.802 L 181.500 213.500 181.230 192.162 C 180.968 171.479, 181.022 170.807, 182.980 170.295 C 184.691 169.848, 185 168.944, 185 164.383 C 185 159.667, 184.752 159, 183 159 C 181.889 159, 181 158.333, 181 157.500 C 181 156.310, 179.556 156, 174 156 C 168.786 156, 167 156.345, 167 157.352 C 167 158.840, 156.466 159.994, 143 159.980 C 130.473 159.968, 131 160.477, 131 148.383 C 131 140.209, 131.294 138, 132.383 138 C 133.144 138, 134.002 137.100, 134.290 136 C 134.577 134.900, 135.530 134, 136.406 134 C 137.283 134, 138 133.325, 138 132.500 C 138 131.348, 139.278 131, 143.500 131 C 147.646 131, 149 131.358, 149 132.455 C 149 133.325, 150.405 134.173, 152.500 134.566 C 155.682 135.163, 156 135.530, 156 138.611 C 156 141.333, 156.393 142, 158 142 C 159.333 142, 160 141.333, 160 140 C 160 138.889, 160.667 138, 161.500 138 C 162.538 138, 163 136.957, 163 134.617 C 163 132.040, 163.492 131.105, 165.062 130.694 C 167.060 130.171, 167.115 129.620, 166.805 113.115 C 166.517 97.757, 166.298 95.938, 164.590 94.689 C 162.953 93.493, 162.774 92.434, 163.273 86.927 C 163.591 83.419, 164.335 80.388, 164.926 80.191 C 166.562 79.646, 166.215 74.296, 164.500 73.638 C 163.675 73.322, 163 72.149, 163 71.031 C 163 69.376, 162.351 69, 159.500 69 C 156.667 69, 156 69.381, 156 71 M 188 74.875 C 188 76.097, 187.363 77, 186.500 77 C 185.278 77, 185 78.667, 185 86 C 185 93.333, 185.278 95, 186.500 95 C 187.663 95, 188 96.319, 188 100.875 C 188 108.658, 188.940 113, 190.625 113 C 191.381 113, 192 113.623, 192 114.383 C 192 115.959, 195 116.966, 199.750 116.986 C 201.966 116.996, 203 117.477, 203 118.500 C 203 119.333, 203.889 120, 205 120 C 206.111 120, 207 119.333, 207 118.500 C 207 117.675, 207.675 117, 208.500 117 C 209.325 117, 210 117.675, 210 118.500 C 210 119.652, 211.278 120, 215.500 120 C 219.722 120, 221 119.652, 221 118.500 C 221 117.367, 222.222 117, 226 117 L 231 117 231 125.500 C 231 132.389, 230.716 134, 229.500 134 C 228.258 134, 228 135.889, 228 145 L 228 156 211.500 156 C 195.667 156, 195 156.081, 195 158 C 195 159.111, 194.333 160, 193.500 160 C 192.675 160, 192 160.675, 192 161.500 C 192 162.333, 192.889 163, 194 163 C 195.100 163, 196 163.655, 196 164.455 C 196 165.325, 197.405 166.173, 199.500 166.566 L 203 167.223 203 186.611 C 203 203.179, 203.218 206, 204.500 206 C 205.690 206, 206 207.444, 206 213 C 206 218.556, 205.690 220, 204.500 220 C 203.298 220, 203 221.510, 203 227.594 C 203 234.346, 202.778 235.245, 201 235.710 C 199.900 235.998, 199 236.856, 199 237.617 C 199 238.764, 193.802 239, 168.500 239 C 142.056 239, 138 239.199, 138 240.500 C 138 241.466, 137.022 242.005, 135.250 242.014 C 130.490 242.037, 128.189 243.110, 127.566 245.594 C 126.750 248.844, 127.897 253, 129.608 253 C 130.374 253, 131 253.623, 131 254.383 C 131 255.885, 133.960 256.965, 138.139 256.986 C 140.366 256.998, 140.880 256.455, 141.434 253.500 L 142.091 250 151.894 250 C 167.037 250, 177 248.950, 177 247.353 C 177 246.253, 181.490 246, 201 246 C 221.667 246, 225 245.792, 225 244.500 C 225 242.829, 232.579 242.290, 247.818 242.876 C 255.560 243.174, 256.174 243.051, 256.685 241.098 C 256.997 239.904, 258.045 239, 259.117 239 C 261.094 239, 261.366 237.969, 260.370 234.250 C 259.818 232.193, 259.176 232, 252.883 232 C 247.431 232, 246 232.312, 246 233.500 C 246 234.771, 243.556 235, 230 235 L 214 235 214 199 L 214 163 219 163 C 223.333 163, 224 163.267, 224 165 C 224 166.812, 224.667 167, 231.094 167 C 237.346 167, 238.249 166.763, 238.710 165 C 238.998 163.900, 239.856 163, 240.617 163 C 241.531 163, 242 161.813, 242 159.500 C 242 157.056, 241.548 156, 240.500 156 C 239.217 156, 239 153.111, 239 136 C 239 119.733, 239.256 116, 240.370 116 C 241.716 116, 243.372 107.411, 242.346 105.751 C 241.119 103.765, 228 105.479, 228 107.625 C 228 108.718, 225.439 109, 215.500 109 C 205.056 109, 203 108.753, 203 107.500 C 203 106.667, 202.111 106, 201 106 C 199.242 106, 199 105.333, 199 100.500 C 199 96.441, 198.632 95, 197.594 95 C 196.503 95, 196.110 92.775, 195.844 85.081 C 195.655 79.626, 195.242 74.906, 194.927 74.592 C 194.612 74.278, 192.924 73.735, 191.177 73.385 C 188.405 72.831, 188 73.021, 188 74.875 M 44 111 C 44 112.111, 43.333 113, 42.500 113 C 41.202 113, 41 116.833, 41 141.500 C 41 165.236, 41.234 170, 42.397 170 C 43.458 170, 43.888 172.109, 44.182 178.750 C 44.641 189.116, 44.249 192, 42.383 192 C 41.469 192, 41 193.187, 41 195.500 C 41 198.333, 41.381 199, 43 199 C 44.100 199, 45 199.623, 45 200.383 C 45 201.899, 47.968 202.965, 52.250 202.986 C 53.923 202.995, 55 202.462, 55 201.625 C 55 200.254, 59.120 199, 63.625 199 C 64.993 199, 66 198.407, 66 197.601 C 66 196.604, 68.005 196.002, 73 195.500 C 77.995 194.998, 80 194.396, 80 193.399 C 80 192.325, 81.742 192, 87.500 192 C 93.500 192, 95 191.700, 95 190.500 C 95 189.675, 95.675 189, 96.500 189 C 97.325 189, 98 189.675, 98 190.500 C 98 191.333, 98.889 192, 100 192 C 101.100 192, 102 191.377, 102 190.617 C 102 189.856, 102.900 188.998, 104 188.710 C 106.751 187.991, 106.563 185.047, 103.750 184.812 C 102.513 184.709, 96.775 184.596, 91 184.562 L 80.500 184.500 80.181 181.174 C 79.925 178.506, 80.271 177.742, 81.931 177.308 C 83.394 176.925, 84 175.956, 84 174 C 84 172.074, 84.608 171.074, 86 170.710 C 87.532 170.310, 88 169.346, 88 166.594 C 88 164.066, 88.445 163, 89.500 163 C 90.548 163, 91 161.944, 91 159.500 C 91 157.187, 91.469 156, 92.383 156 C 94.462 156, 94.971 152.720, 94.986 139.250 C 94.997 129.480, 94.720 127, 93.617 127 C 92.856 127, 91.998 126.100, 91.710 125 C 91.423 123.900, 90.470 123, 89.594 123 C 88.717 123, 88 122.325, 88 121.500 C 88 120.462, 86.957 120, 84.617 120 C 82.074 120, 81.103 119.503, 80.710 118 C 80.274 116.330, 79.346 116, 75.094 116 C 71.233 116, 70 115.637, 70 114.500 C 70 113.279, 68.346 113, 61.117 113 C 53.074 113, 52.184 112.811, 51.710 111 C 51.310 109.468, 50.346 109, 47.594 109 C 44.667 109, 44 109.371, 44 111 M 52 129.094 C 52 133.346, 51.670 134.274, 50 134.710 C 48.344 135.143, 48 136.074, 48 140.117 C 48 143.546, 48.401 145, 49.348 145 C 50.813 145, 52 158.443, 52 175.039 C 52 184.834, 52.119 184.973, 60.500 184.973 C 65.942 184.973, 69 184.041, 69 182.383 C 69 181.623, 69.900 181, 71 181 C 72.619 181, 73 180.333, 73 177.500 C 73 174.667, 73.381 174, 75 174 C 76.619 174, 77 173.333, 77 170.500 C 77 168.056, 77.452 167, 78.500 167 C 79.555 167, 80 165.934, 80 163.406 C 80 160.654, 80.468 159.690, 82 159.290 C 83.503 158.897, 84 157.926, 84 155.383 C 84 153.043, 84.462 152, 85.500 152 C 86.722 152, 87 150.333, 87 143 C 87 135.667, 86.722 134, 85.500 134 C 84.667 134, 84 133.111, 84 132 C 84 130.889, 83.333 130, 82.500 130 C 81.675 130, 81 129.325, 81 128.500 C 81 127.417, 79.889 127, 77 127 C 74.111 127, 73 126.583, 73 125.500 C 73 124.262, 71.167 124, 62.500 124 L 52 124 52 129.094 M 145 125.500 C 145 126.652, 146.278 127, 150.500 127 C 154.722 127, 156 126.652, 156 125.500 C 156 124.348, 154.722 124, 150.500 124 C 146.278 124, 145 124.348, 145 125.500" stroke="none" fill="black" fill-rule="evenodd"/>
</svg>