<svg xmlns="http://www.w3.org/2000/svg" width="300" height="300" viewBox="0 0 300 300" version="1.1">
	<path d="M 192 43.343 C 192 44.384, 188.443 44.834, 176.250 45.340 C 167.588 45.699, 157.012 45.995, 152.750 45.997 C 146.529 45.999, 145 46.296, 145 47.500 C 145 48.764, 142.722 49, 130.500 49 C 118.821 49, 116 49.269, 116 50.383 C 116 52.210, 112.865 52.970, 105.250 52.986 C 100.367 52.997, 99 53.328, 99 54.500 C 99 55.583, 97.889 56, 95 56 C 91.667 56, 91 56.333, 91 58 C 91 59.758, 90.333 60, 85.500 60 C 81.335 60, 80 60.356, 80 61.466 C 80 62.469, 78.424 63.140, 75 63.594 C 71.754 64.025, 70 64.739, 70 65.629 C 70 66.383, 69.100 67, 68 67 C 66.190 67, 66 66.333, 66 60 C 66 53.667, 66.190 53, 68 53 C 70.090 53, 70.376 52.007, 69.370 48.250 C 68.895 46.479, 68.047 46, 65.383 46 C 63.043 46, 62 46.462, 62 47.500 C 62 48.325, 61.325 49, 60.500 49 C 59.667 49, 59 49.889, 59 51 C 59 52.333, 58.333 53, 57 53 C 55.016 53, 55 53.667, 55 137.500 C 55 208.530, 55.219 222, 56.375 222 C 57.746 222, 59 226.120, 59 230.625 C 59 232.673, 59.482 233, 62.500 233 C 65.333 233, 66 232.619, 66 231 C 66 229.667, 66.667 229, 68 229 C 69.111 229, 70 228.333, 70 227.500 C 70 226.675, 70.623 226, 71.384 226 C 73 226, 73.841 216.869, 73.181 206.500 C 72.702 198.979, 70.591 197.545, 69.500 204 C 69.085 206.459, 68.280 208, 67.412 208 C 66.510 208, 66 209.083, 66 211 C 66 213, 65.500 214, 64.500 214 C 63.195 214, 62.991 209.162, 62.928 176.750 C 62.888 156.262, 62.635 131.625, 62.365 122 C 61.817 102.475, 62.364 96, 64.561 96 C 65.706 96, 66 94.163, 66 87 C 66 78.667, 66.148 78, 68 78 C 69.100 78, 70 77.377, 70 76.617 C 70 75.101, 72.968 74.035, 77.250 74.014 C 79.022 74.005, 80 73.466, 80 72.500 C 80 71.667, 80.889 71, 82 71 C 83.100 71, 84 70.377, 84 69.617 C 84 68.041, 87 67.034, 91.750 67.014 C 93.966 67.004, 95 66.523, 95 65.500 C 95 64.363, 96.233 64, 100.094 64 C 104.346 64, 105.274 63.670, 105.710 62 C 106.184 60.189, 107.074 60, 115.117 60 C 121.901 60, 124 59.682, 124 58.652 C 124 57.079, 137.699 56, 157.656 56 C 167.473 56, 170 55.718, 170 54.623 C 170 53.508, 174.158 53.161, 191.750 52.803 C 203.713 52.560, 214.266 52.552, 215.203 52.785 C 216.743 53.168, 216.935 55.697, 217.203 79.176 C 217.472 102.683, 217.666 105.236, 219.250 106.121 C 220.791 106.982, 221 108.827, 221 121.550 C 221 133.728, 221.236 136, 222.500 136 C 223.698 136, 224 137.486, 224 143.375 C 224 152.589, 224.850 157, 226.625 157 C 227.690 157, 228 159.030, 228 166 C 228 172.970, 228.310 175, 229.375 175 C 231.176 175, 232 179.432, 232 189.125 C 232 195.458, 232.294 197, 233.500 197 C 234.722 197, 235 198.667, 235 206 C 235 212.970, 235.310 215, 236.375 215 C 238.141 215, 239.004 219.420, 238.986 228.375 C 238.967 238.376, 238.394 240, 234.883 240 C 232.272 240, 232 240.320, 232 243.392 C 232 246.175, 232.448 246.896, 234.500 247.411 C 237.831 248.247, 242 247.124, 242 245.392 C 242 244.626, 242.900 244, 244 244 C 245.778 244, 246 243.333, 246 238 C 246 233.333, 246.333 232, 247.500 232 C 248.500 232, 249 231, 249 229 C 249 227, 248.500 226, 247.500 226 C 246.258 226, 246 224.111, 246 215 C 246 206.389, 245.704 204, 244.639 204 C 243.249 204, 242.026 197.378, 242.009 189.750 C 242.003 187.087, 241.565 186, 240.500 186 C 239.262 186, 239 184.172, 239 175.550 C 239 166.637, 238.743 164.955, 237.250 164.120 C 235.844 163.333, 235.431 161.454, 235.147 154.570 C 234.880 148.067, 234.458 146, 233.397 146 C 232.330 146, 231.998 144.287, 231.991 138.750 C 231.978 127.881, 230.958 121, 229.361 121 C 228.255 121, 228 116.966, 228 99.500 C 228 81.056, 227.787 78, 226.500 78 C 225.417 78, 225 76.889, 225 74 C 225 71.111, 225.417 70, 226.500 70 C 227.325 70, 228 69.325, 228 68.500 C 228 67.675, 227.325 67, 226.500 67 C 225.675 67, 225 66.325, 225 65.500 C 225 64.675, 225.675 64, 226.500 64 C 227.700 64, 228 62.500, 228 56.500 C 228 50.500, 227.700 49, 226.500 49 C 225.452 49, 225 47.944, 225 45.500 L 225 42 208.500 42 C 195.355 42, 192 42.273, 192 43.343 M 131 68.594 C 131 69.470, 130.100 70.423, 129 70.710 C 127.162 71.191, 127 72.074, 127 81.617 L 127 92 120.750 92.014 C 113.135 92.030, 110 92.790, 110 94.617 C 110 95.564, 108.739 96, 106 96 C 103.254 96, 102 96.435, 102 97.389 C 102 98.184, 100.505 99.058, 98.500 99.434 L 95 100.091 95 107.045 L 95 114 98.500 114 C 100.944 114, 102 113.548, 102 112.500 C 102 111.675, 102.675 111, 103.500 111 C 104.333 111, 105 110.111, 105 109 C 105 107.684, 105.667 107, 106.950 107 C 108.023 107, 109.339 106.217, 109.874 105.261 C 110.643 103.887, 112.543 103.445, 118.924 103.155 L 127 102.788 127 106.894 C 127 109.775, 126.576 111, 125.579 111 C 124.798 111, 123.869 112.321, 123.514 113.935 C 123.030 116.139, 122.139 117.030, 119.935 117.514 C 118.321 117.869, 117 118.798, 117 119.579 C 117 120.707, 115.042 121, 107.500 121 C 99.722 121, 98 121.272, 98 122.500 C 98 123.325, 97.325 124, 96.500 124 C 95.417 124, 95 125.111, 95 128 L 95 132 103.383 132 C 113.365 132, 112.966 131.386, 112.986 146.750 C 112.998 155.188, 113.265 157, 114.500 157 C 115.652 157, 116 158.278, 116 162.500 C 116 167.333, 115.758 168, 114 168 C 112.889 168, 112 168.667, 112 169.500 C 112 170.325, 111.325 171, 110.500 171 C 109.417 171, 109 172.111, 109 175 L 109 179 114.500 179 C 118.516 179, 120 179.373, 120 180.383 C 120 181.144, 119.100 182.002, 118 182.290 C 116.900 182.577, 116 183.530, 116 184.406 C 116 185.283, 115.325 186, 114.500 186 C 113.675 186, 113 186.717, 113 187.594 C 113 188.470, 112.100 189.423, 111 189.710 C 109.893 190, 109 191.074, 109 192.117 C 109 193.152, 108.325 194, 107.500 194 C 106.675 194, 106 194.675, 106 195.500 C 106 196.333, 105.111 197, 104 197 C 102.381 197, 102 197.667, 102 200.500 C 102 203.333, 101.619 204, 100 204 C 98.889 204, 98 204.667, 98 205.500 C 98 206.325, 97.325 207, 96.500 207 C 95.667 207, 95 207.889, 95 209 C 95 210.333, 94.333 211, 93 211 C 91.667 211, 91 211.667, 91 213 C 91 214.333, 90.333 215, 89 215 C 87.889 215, 87 215.667, 87 216.500 C 87 217.325, 86.325 218, 85.500 218 C 84.667 218, 84 218.889, 84 220 C 84 221.111, 83.333 222, 82.500 222 C 81.675 222, 81 222.675, 81 223.500 C 81 224.325, 81.675 225, 82.500 225 C 83.333 225, 84 225.889, 84 227 C 84 228.619, 84.667 229, 87.500 229 C 90.833 229, 91 228.833, 91 225.500 C 91 222.667, 91.381 222, 93 222 C 94.111 222, 95 221.333, 95 220.500 C 95 219.675, 95.717 219, 96.594 219 C 97.470 219, 98.423 218.100, 98.710 217 C 98.998 215.900, 99.856 215, 100.617 215 C 101.377 215, 102 214.100, 102 213 C 102 211.900, 102.623 211, 103.383 211 C 104.144 211, 105.002 210.100, 105.290 209 C 105.577 207.900, 106.530 207, 107.406 207 C 108.283 207, 109 206.325, 109 205.500 C 109 204.667, 109.889 204, 111 204 C 112.619 204, 113 203.333, 113 200.500 C 113 197.964, 113.439 197, 114.594 197 C 115.470 197, 116.423 196.100, 116.710 195 C 116.998 193.900, 117.856 193, 118.617 193 C 119.377 193, 120 192.325, 120 191.500 C 120 188.413, 122.919 190.050, 123.566 193.500 C 123.942 195.505, 124.816 197, 125.611 197 C 126.665 197, 127 198.698, 127 204.031 C 127 209.359, 127.363 211.202, 128.500 211.638 C 130.167 212.278, 130.572 215, 129 215 C 127.428 215, 127.833 217.722, 129.500 218.362 C 130.558 218.768, 131 220.419, 131 223.969 C 131 227.774, 131.365 229, 132.500 229 C 133.333 229, 134 229.889, 134 231 C 134 232.804, 134.662 232.999, 140.750 232.986 C 148.848 232.970, 152 232.241, 152 230.383 C 152 229.623, 152.900 229, 154 229 C 155.111 229, 156 228.333, 156 227.500 C 156 226.675, 156.717 226, 157.594 226 C 158.470 226, 159.423 225.100, 159.710 224 C 159.998 222.900, 160.856 222, 161.617 222 C 162.377 222, 163 221.325, 163 220.500 C 163 219.667, 163.889 219, 165 219 C 166.333 219, 167 218.333, 167 217 C 167 215.837, 167.667 215, 168.594 215 C 169.470 215, 170.423 214.100, 170.710 213 C 170.998 211.900, 171.856 211, 172.617 211 C 173.377 211, 174 210.325, 174 209.500 C 174 208.675, 174.717 208, 175.594 208 C 176.470 208, 177.423 207.100, 177.710 206 C 177.998 204.900, 178.856 204, 179.617 204 C 180.377 204, 181 203.325, 181 202.500 C 181 201.310, 182.444 201, 188 201 L 195 201 195 206 C 195 210.218, 195.292 211, 196.871 211 C 198.412 211, 198.859 209.959, 199.411 205.084 C 200.532 195.179, 199.181 193.051, 191.750 193.014 C 189.978 193.005, 189 192.466, 189 191.500 C 189 190.675, 189.675 190, 190.500 190 C 191.333 190, 192 189.111, 192 188 C 192 186.900, 192.655 186, 193.455 186 C 194.325 186, 195.173 184.595, 195.566 182.500 C 195.942 180.495, 196.816 179, 197.611 179 C 198.375 179, 199 178.100, 199 177 C 199 175.667, 199.667 175, 201 175 C 202.619 175, 203 174.333, 203 171.500 C 203 169.056, 203.452 168, 204.500 168 C 205.325 168, 206 167.283, 206 166.406 C 206 165.530, 206.900 164.577, 208 164.290 C 209.656 163.857, 210 162.926, 210 158.883 L 210 154 204.500 154 C 200.510 154, 199 154.376, 199 155.370 C 199 156.258, 197.365 156.924, 194.349 157.264 C 191.551 157.580, 189.340 158.428, 188.799 159.394 C 188.305 160.277, 187.248 161, 186.450 161 C 185.653 161, 185 161.675, 185 162.500 C 185 163.333, 184.111 164, 183 164 C 181.667 164, 181 164.667, 181 166 C 181 167.333, 180.333 168, 179 168 C 177.900 168, 177 168.655, 177 169.455 C 177 170.325, 175.595 171.173, 173.500 171.566 C 171.495 171.942, 170 172.816, 170 173.611 C 170 174.375, 169.325 175, 168.500 175 C 167.675 175, 167 175.623, 167 176.383 C 167 177.144, 166.100 178.002, 165 178.290 C 163.900 178.577, 163 179.480, 163 180.295 C 163 181.197, 161.631 182.034, 159.500 182.434 C 157.405 182.827, 156 183.675, 156 184.545 C 156 185.726, 154.021 186, 145.500 186 C 136.559 186, 135 185.763, 135 184.406 C 135 183.530, 134.100 182.577, 133 182.290 C 131.900 182.002, 131 181.144, 131 180.383 C 131 179.623, 131.900 179, 133 179 C 134.100 179, 135 178.361, 135 177.579 C 135 176.798, 136.350 175.862, 138 175.500 C 139.650 175.138, 141 174.202, 141 173.421 C 141 172.639, 141.900 172, 143 172 C 144.333 172, 145 171.333, 145 170 C 145 168.667, 145.667 168, 147 168 C 148.100 168, 149 167.377, 149 166.617 C 149 165.856, 149.900 164.998, 151 164.710 C 152.100 164.423, 153 163.470, 153 162.594 C 153 161.717, 153.675 161, 154.500 161 C 155.548 161, 156 159.944, 156 157.500 C 156 154.964, 156.439 154, 157.594 154 C 158.470 154, 159.423 153.100, 159.710 152 C 159.998 150.900, 160.806 150, 161.505 150 C 162.205 150, 163.073 148.425, 163.434 146.500 C 163.827 144.405, 164.675 143, 165.545 143 C 167.084 143, 167.509 138.499, 166.370 134.250 C 165.849 132.306, 165.102 132, 160.883 132 C 157.392 132, 156 131.606, 156 130.617 C 156 129.856, 156.931 128.990, 158.069 128.692 C 159.729 128.258, 160.075 127.494, 159.819 124.826 C 159.537 121.884, 159.125 121.464, 156.250 121.187 C 154.237 120.993, 153 120.327, 153 119.437 C 153 118.315, 151.353 118, 145.500 118 C 139.500 118, 138 118.300, 138 119.500 C 138 120.325, 137.325 121, 136.500 121 C 135.675 121, 135 120.325, 135 119.500 C 135 118.667, 134.111 118, 133 118 C 131.333 118, 131 117.333, 131 114 C 131 111.166, 131.424 110, 132.455 110 C 133.325 110, 134.173 108.595, 134.566 106.500 C 134.942 104.495, 135.816 103, 136.611 103 C 137.375 103, 138 102.371, 138 101.601 C 138 100.604, 140.005 100.002, 145 99.500 C 149.995 98.998, 152 98.396, 152 97.399 C 152 96.325, 153.742 96, 159.500 96 C 165.500 96, 167 95.700, 167 94.500 C 167 93.675, 167.675 93, 168.500 93 C 169.333 93, 170 92.111, 170 91 C 170 89.095, 169.333 89, 156 89 C 144.222 89, 142 89.238, 142 90.500 C 142 91.333, 141.111 92, 140 92 C 138.159 92, 138 91.333, 138 83.617 C 138 76.074, 138.201 75.181, 140 74.710 C 141.100 74.423, 142 73.470, 142 72.594 C 142 71.667, 141.163 71, 140 71 C 138.667 71, 138 70.333, 138 69 C 138 67.381, 137.333 67, 134.500 67 C 131.964 67, 131 67.439, 131 68.594 M 128 119.500 C 128 120.325, 128.450 121, 129 121 C 129.550 121, 130 120.325, 130 119.500 C 130 118.675, 129.550 118, 129 118 C 128.450 118, 128 118.675, 128 119.500 M 134.750 128.707 C 132.345 128.972, 131 129.637, 131 130.560 C 131 131.707, 132.844 132, 140.073 132 C 148.175 132, 149.111 131.813, 148.814 130.250 C 148.553 128.879, 147.400 128.478, 143.491 128.396 C 140.746 128.339, 136.813 128.479, 134.750 128.707 M 124 133.500 C 124 134.333, 124.889 135, 126 135 C 127.111 135, 128 134.333, 128 133.500 C 128 132.667, 127.111 132, 126 132 C 124.889 132, 124 132.667, 124 133.500 M 149 141.500 C 149 142.742, 147.111 143, 138 143 C 128.889 143, 127 143.258, 127 144.500 C 127 145.325, 126.325 146, 125.500 146 C 124.300 146, 124 147.500, 124 153.500 C 124 159.500, 124.300 161, 125.500 161 C 126.325 161, 127 161.675, 127 162.500 C 127 163.333, 127.889 164, 129 164 C 130.111 164, 131 163.333, 131 162.500 C 131 161.452, 132.056 161, 134.500 161 C 137.333 161, 138 160.619, 138 159 C 138 157.381, 138.667 157, 141.500 157 C 144.333 157, 145 156.619, 145 155 C 145 153.667, 145.667 153, 147 153 C 148.111 153, 149 152.333, 149 151.500 C 149 150.675, 149.623 150, 150.383 150 C 151.144 150, 152.002 149.100, 152.290 148 C 152.577 146.900, 153.530 146, 154.406 146 C 155.333 146, 156 145.163, 156 144 C 156 142.889, 155.333 142, 154.500 142 C 153.675 142, 153 141.550, 153 141 C 153 140.450, 152.100 140, 151 140 C 149.889 140, 149 140.667, 149 141.500 M 188.710 170 C 188.397 171.197, 187.346 172, 186.094 172 C 184.899 172, 184 172.644, 184 173.500 C 184 174.500, 183 175, 181 175 C 178.667 175, 178 175.444, 178 177 C 178 178.333, 177.333 179, 176 179 C 174.889 179, 174 179.667, 174 180.500 C 174 181.325, 173.283 182, 172.406 182 C 171.530 182, 170.577 182.900, 170.290 184 C 170.002 185.100, 169.144 186, 168.383 186 C 167.623 186, 167 186.675, 167 187.500 C 167 188.575, 168.097 189, 170.875 189 C 173.006 189, 176.156 189.281, 177.875 189.625 C 180.591 190.168, 181 189.972, 181 188.125 C 181 186.667, 181.627 186, 183 186 C 184.333 186, 185 185.333, 185 184 C 185 182.889, 185.667 182, 186.500 182 C 187.325 182, 188 181.283, 188 180.406 C 188 179.530, 188.900 178.577, 190 178.290 C 191.656 177.857, 192 176.926, 192 172.883 C 192 169.392, 191.606 168, 190.617 168 C 189.856 168, 188.998 168.900, 188.710 170 M 153 198.500 C 153 199.523, 151.966 200.004, 149.750 200.014 C 145 200.034, 142 201.041, 142 202.617 C 142 203.377, 141.100 204, 140 204 C 138.148 204, 138 204.667, 138 213 C 138 221.333, 138.148 222, 140 222 C 141.111 222, 142 222.667, 142 223.500 C 142 224.325, 142.675 225, 143.500 225 C 144.325 225, 145 224.325, 145 223.500 C 145 222.667, 145.889 222, 147 222 C 148.100 222, 149 221.345, 149 220.545 C 149 219.675, 150.405 218.827, 152.500 218.434 C 154.425 218.073, 156 217.205, 156 216.505 C 156 215.806, 156.900 214.998, 158 214.710 C 159.100 214.423, 160 213.470, 160 212.594 C 160 211.717, 160.675 211, 161.500 211 C 162.325 211, 163 210.325, 163 209.500 C 163 208.675, 163.717 208, 164.594 208 C 165.470 208, 166.423 207.100, 166.710 206 C 166.998 204.900, 167.856 204, 168.617 204 C 169.377 204, 170 203.283, 170 202.406 C 170 201.530, 170.900 200.577, 172 200.290 C 173.100 200.002, 174 199.144, 174 198.383 C 174 197.293, 171.773 197, 163.500 197 C 154.833 197, 153 197.262, 153 198.500 M 80 241.455 C 80 242.325, 78.595 243.173, 76.500 243.566 C 73.318 244.163, 73 244.530, 73 247.611 L 73 251 82 251 C 89.333 251, 91 251.278, 91 252.500 C 91 253.333, 91.889 254, 93 254 C 94.111 254, 95 253.333, 95 252.500 C 95 251.367, 96.222 251, 100 251 C 103.778 251, 105 251.367, 105 252.500 C 105 253.812, 110.986 254, 152.875 254 C 179.206 254, 202.156 254.281, 203.875 254.625 C 205.594 254.969, 207 255.869, 207 256.625 C 207 257.530, 208.197 258, 210.500 258 C 212.944 258, 214 257.548, 214 256.500 C 214 255.675, 214.675 255, 215.500 255 C 216.538 255, 217 253.957, 217 251.617 C 217 247.374, 215.904 247.032, 202.250 247.014 C 193.812 247.002, 192 246.735, 192 245.500 C 192 244.367, 190.778 244, 187 244 C 183.222 244, 182 244.367, 182 245.500 C 182 246.773, 179.500 247, 165.500 247 C 151.500 247, 149 246.773, 149 245.500 C 149 244.230, 146.573 244, 133.160 244 C 105.060 244, 84 242.862, 84 241.343 C 84 240.604, 83.100 240, 82 240 C 80.900 240, 80 240.655, 80 241.455" stroke="none" fill="black" fill-rule="evenodd"/>
</svg>