<svg xmlns="http://www.w3.org/2000/svg" width="300" height="300" viewBox="0 0 300 300" version="1.1">
	<path d="M 186.750 22.752 C 180.779 23.008, 179 23.419, 179 24.542 C 179 25.654, 177.605 26, 173.125 26 C 165.342 26, 161 26.940, 161 28.625 C 161 29.563, 159.727 30, 157 30 C 154.111 30, 153 30.417, 153 31.500 C 153 32.325, 152.325 33, 151.500 33 C 150.667 33, 150 33.889, 150 35 C 150 36.738, 149.333 37, 144.906 37 C 140.654 37, 139.726 37.330, 139.290 39 C 139.002 40.100, 138.165 41, 137.429 41 C 136.691 41, 135.796 42.571, 135.434 44.500 C 135.058 46.505, 134.184 48, 133.389 48 C 132.468 48, 132 49.180, 132 51.500 C 132 54.333, 131.619 55, 130 55 C 128.381 55, 128 55.667, 128 58.500 C 128 60.798, 127.529 62, 126.629 62 C 125.664 62, 125.054 64.073, 124.569 68.998 C 124.190 72.847, 124.165 76.458, 124.514 77.022 C 125.594 78.769, 123.948 84, 122.318 84 C 120.141 84, 120.770 100.622, 123 102 C 124.093 102.675, 124.596 105.242, 124.853 111.463 C 125.120 117.938, 125.543 120, 126.603 120 C 127.640 120, 128 121.509, 128 125.860 C 128 134.854, 129.070 141, 130.636 141 C 131.636 141, 132 142.599, 132 147 C 132 152.333, 132.222 153, 134 153 C 135.569 153, 136 153.667, 136 156.094 C 136 158.346, 135.456 159.329, 134 159.710 C 132.900 159.998, 132 160.856, 132 161.617 C 132 162.531, 130.813 163, 128.500 163 C 125.167 163, 125 163.167, 125 166.500 C 125 168.626, 125.491 170.005, 126.250 170.014 C 126.938 170.021, 128.512 170.299, 129.750 170.630 C 131.565 171.117, 132 170.824, 132 169.117 C 132 167.364, 132.602 167, 135.500 167 C 138.333 167, 139 166.619, 139 165 C 139 163.667, 139.667 163, 141 163 C 142.111 163, 143 162.333, 143 161.500 C 143 160.675, 143.675 160, 144.500 160 C 145.333 160, 146 159.111, 146 158 C 146 156.667, 146.667 156, 148 156 C 149.333 156, 150 155.333, 150 154 C 150 152.667, 150.667 152, 152 152 C 153.619 152, 154 151.333, 154 148.500 C 154 146.056, 154.452 145, 155.500 145 C 156.325 145, 157 144.311, 157 143.469 C 157 142.626, 157.648 141.689, 158.439 141.385 C 159.230 141.081, 160.157 139.563, 160.498 138.010 C 161.275 134.473, 163.905 133.730, 172.525 134.613 C 176.997 135.071, 179 135.697, 179 136.638 C 179 137.658, 180.760 138, 186 138 L 193 138 193 141.500 C 193 143.820, 192.532 145, 191.611 145 C 190.816 145, 189.942 146.495, 189.566 148.500 C 189.173 150.595, 188.325 152, 187.455 152 C 186.655 152, 186 152.900, 186 154 C 186 155.619, 185.333 156, 182.500 156 C 179.667 156, 179 156.381, 179 158 C 179 159.333, 178.333 160, 177 160 C 175.242 160, 175 160.667, 175 165.500 C 175 169.722, 174.652 171, 173.500 171 C 172.425 171, 172 172.097, 172 174.875 C 172 177.006, 171.719 180.156, 171.375 181.875 L 170.750 185 163.875 185 C 158.431 185, 157 185.312, 157 186.500 C 157 187.725, 155.302 188.002, 147.750 188.009 C 134.996 188.021, 128 188.953, 128 190.639 C 128 191.714, 125.376 192, 115.500 192 C 105.524 192, 103 192.279, 103 193.383 C 103 194.144, 102.039 195.018, 100.863 195.325 C 99.063 195.796, 98.826 196.380, 99.357 199.037 C 99.878 201.641, 99.641 202.281, 97.994 202.712 C 96.498 203.103, 96 204.078, 96 206.617 C 96 209.817, 96.190 210, 99.500 210 C 101.820 210, 103 209.532, 103 208.611 C 103 207.816, 104.495 206.942, 106.500 206.566 C 108.595 206.173, 110 205.325, 110 204.455 C 110 203.463, 111.098 203, 113.450 203 C 115.697 203, 117.242 202.390, 117.878 201.250 C 118.703 199.774, 120.666 199.447, 130.428 199.164 C 139.576 198.898, 142 198.532, 142 197.414 C 142 196.318, 143.742 195.998, 149.750 195.991 C 154.012 195.987, 159.863 195.699, 162.750 195.352 L 168 194.721 168 198.861 C 168 201.816, 167.584 203, 166.545 203 C 165.675 203, 164.827 204.405, 164.434 206.500 C 164.058 208.505, 163.184 210, 162.389 210 C 161.386 210, 161 211.414, 161 215.094 C 161 219.346, 160.670 220.274, 159 220.710 C 157.497 221.103, 157 222.074, 157 224.617 C 157 226.957, 156.538 228, 155.500 228 C 154.588 228, 154 228.931, 154 230.375 C 154 234.880, 152.746 239, 151.375 239 C 150.470 239, 150 240.197, 150 242.500 C 150 244.944, 149.548 246, 148.500 246 C 147.675 246, 147 246.717, 147 247.594 C 147 248.470, 146.100 249.423, 145 249.710 C 143.497 250.103, 143 251.074, 143 253.617 C 143 256.333, 142.606 257, 141 257 C 139.381 257, 139 257.667, 139 260.500 C 139 263.333, 138.619 264, 137 264 C 135.889 264, 135 264.667, 135 265.500 C 135 266.325, 134.325 267, 133.500 267 C 132.667 267, 132 267.889, 132 269 C 132 270.333, 131.333 271, 130 271 C 128.889 271, 128 271.667, 128 272.500 C 128 273.325, 127.325 274, 126.500 274 C 125.667 274, 125 274.889, 125 276 C 125 277.163, 125.667 278, 126.594 278 C 127.470 278, 128.423 278.900, 128.710 280 C 128.998 281.100, 129.856 282, 130.617 282 C 131.377 282, 132 281.100, 132 280 C 132 278.667, 132.667 278, 134 278 C 135.111 278, 136 277.333, 136 276.500 C 136 275.675, 136.675 275, 137.500 275 C 138.333 275, 139 274.111, 139 273 C 139 271.667, 139.667 271, 141 271 C 142.619 271, 143 270.333, 143 267.500 C 143 264.667, 143.381 264, 145 264 C 146.333 264, 147 263.333, 147 262 C 147 260.889, 147.667 260, 148.500 260 C 149.333 260, 150 259.111, 150 258 C 150 256.900, 150.639 256, 151.421 256 C 152.202 256, 153.138 254.650, 153.500 253 C 153.862 251.350, 154.748 250, 155.468 250 C 156.188 250, 157.065 248.468, 157.416 246.597 C 157.767 244.725, 158.717 242.939, 159.527 242.628 C 160.440 242.278, 161 240.719, 161 238.531 C 161 236.096, 161.455 235, 162.466 235 C 163.467 235, 164.139 233.433, 164.587 230.053 C 165.174 225.631, 165.549 225.038, 168.122 224.473 C 169.705 224.126, 171 223.202, 171 222.421 C 171 221.430, 172.211 221, 175 221 C 177.889 221, 179 221.417, 179 222.500 C 179 223.548, 180.056 224, 182.500 224 C 185.333 224, 186 224.381, 186 226 C 186 227.606, 186.667 228, 189.383 228 C 191.926 228, 192.897 228.497, 193.290 230 C 193.671 231.456, 194.654 232, 196.906 232 C 198.879 232, 200 232.503, 200 233.389 C 200 234.177, 201.473 235.054, 203.403 235.416 C 205.275 235.767, 207.061 236.717, 207.372 237.527 C 207.766 238.554, 209.460 239, 212.969 239 C 216.906 239, 218 239.347, 218 240.594 C 218 241.470, 218.900 242.423, 220 242.710 C 221.100 242.998, 222 243.856, 222 244.617 C 222 245.627, 223.484 246, 227.500 246 C 231.516 246, 233 246.373, 233 247.383 C 233 248.899, 235.968 249.965, 240.250 249.986 C 242.022 249.995, 243 250.534, 243 251.500 C 243 252.555, 244.066 253, 246.594 253 C 249.346 253, 250.310 253.468, 250.710 255 C 250.998 256.100, 251.856 257, 252.617 257 C 253.377 257, 254 257.717, 254 258.594 C 254 259.470, 254.900 260.423, 256 260.710 C 257.100 260.998, 258 261.856, 258 262.617 C 258 263.377, 258.675 264, 259.500 264 C 260.325 264, 261 263.283, 261 262.406 C 261 261.530, 261.900 260.577, 263 260.290 C 264.100 260.002, 265 259.144, 265 258.383 C 265 257.623, 265.675 257, 266.500 257 C 267.325 257, 268 256.373, 268 255.607 C 268 254.841, 267.325 253.955, 266.500 253.638 C 265.675 253.322, 265 252.374, 265 251.531 C 265 250.531, 264.047 249.995, 262.250 249.986 C 257.968 249.965, 255 248.899, 255 247.383 C 255 246.436, 253.739 246, 251 246 C 247.667 246, 247 245.667, 247 244 C 247 242.381, 246.333 242, 243.500 242 C 241.056 242, 240 241.548, 240 240.500 C 240 239.477, 238.966 238.996, 236.750 238.986 C 232 238.966, 229 237.959, 229 236.383 C 229 235.469, 227.813 235, 225.500 235 C 223.180 235, 222 234.532, 222 233.611 C 222 232.816, 220.505 231.942, 218.500 231.566 C 216.405 231.173, 215 230.325, 215 229.455 C 215 228.468, 213.911 228, 211.617 228 C 209.074 228, 208.103 227.503, 207.710 226 C 207.329 224.544, 206.346 224, 204.094 224 C 202.010 224, 201 223.510, 201 222.500 C 201 221.667, 200.111 221, 199 221 C 197.667 221, 197 220.333, 197 219 C 197 217.333, 196.333 217, 193 217 C 190.261 217, 189 216.564, 189 215.617 C 189 214.101, 186.032 213.035, 181.750 213.014 C 179.978 213.005, 179 212.466, 179 211.500 C 179 210.452, 177.944 210, 175.500 210 C 173.056 210, 172 209.548, 172 208.500 C 172 207.675, 172.675 207, 173.500 207 C 174.435 207, 175 206.054, 175 204.490 C 175 203.110, 175.900 201.210, 177 200.268 C 178.100 199.326, 179 197.981, 179 197.278 C 179 196.575, 179.675 196, 180.500 196 C 181.333 196, 182 195.111, 182 194 C 182 192.067, 182.667 192, 202 192 C 219.111 192, 222 191.783, 222 190.500 C 222 189.273, 223.708 189, 231.375 189 C 236.531 189, 242.156 188.719, 243.875 188.375 C 246.634 187.823, 247 187.355, 247 184.375 C 247 182.042, 246.537 181, 245.500 181 C 244.675 181, 244 180.325, 244 179.500 C 244 178.667, 243.111 178, 242 178 C 240.667 178, 240 177.333, 240 176 C 240 174.242, 239.333 174, 234.500 174 C 230.278 174, 229 173.652, 229 172.500 C 229 171.452, 227.944 171, 225.500 171 C 223.056 171, 222 171.452, 222 172.500 C 222 173.538, 223.043 174, 225.383 174 C 227.926 174, 228.897 174.497, 229.290 176 C 229.577 177.100, 230.530 178, 231.406 178 C 232.283 178, 233 178.675, 233 179.500 C 233 180.782, 230.172 181, 213.550 181 C 198.289 181, 193.927 181.291, 193.300 182.349 C 192.860 183.091, 190.363 183.983, 187.750 184.330 L 183 184.962 183 180.981 C 183 178.109, 183.418 177, 184.500 177 C 185.678 177, 186 175.616, 186 170.545 L 186 164.091 189.500 163.434 C 192.933 162.790, 193 162.684, 193 157.889 C 193 153.667, 193.273 153, 195 153 C 196.333 153, 197 152.333, 197 151 C 197 149.667, 197.667 149, 199 149 C 200.111 149, 201 148.333, 201 147.500 C 201 146.675, 201.675 146, 202.500 146 C 203.325 146, 204 146.675, 204 147.500 C 204 148.548, 205.056 149, 207.500 149 L 211 149 211 138.406 C 211 128.654, 211.159 127.771, 213 127.290 C 214.503 126.897, 215 125.926, 215 123.383 C 215 120.667, 215.394 120, 217 120 C 218.333 120, 219 119.333, 219 118 C 219 116.889, 219.667 116, 220.500 116 C 221.633 116, 222 114.778, 222 111 C 222 106.667, 222.267 106, 224 106 C 225.667 106, 226 105.333, 226 102 C 226 99.111, 226.417 98, 227.500 98 C 228.776 98, 229 95.402, 229 80.617 C 229 63.435, 228.974 63.226, 226.750 62.630 C 225.512 62.299, 223.262 62.021, 221.750 62.014 C 219.978 62.005, 219 61.466, 219 60.500 C 219 59.300, 217.500 59, 211.500 59 C 205.500 59, 204 59.300, 204 60.500 C 204 61.548, 202.944 62, 200.500 62 C 197.167 62, 197 61.833, 197 58.500 C 197 55.190, 196.817 55, 193.617 55 C 191.074 55, 190.103 55.497, 189.710 57 C 189.423 58.100, 188.470 59, 187.594 59 C 186.439 59, 186 59.964, 186 62.500 C 186 65.333, 185.619 66, 184 66 C 182.381 66, 182 65.333, 182 62.500 C 182 59.667, 182.381 59, 184 59 C 185.333 59, 186 58.333, 186 57 C 186 55.900, 186.655 55, 187.455 55 C 188.325 55, 189.173 53.595, 189.566 51.500 C 189.942 49.495, 190.816 48, 191.611 48 C 192.532 48, 193 46.820, 193 44.500 C 193 41.667, 193.381 41, 195 41 C 196.333 41, 197 40.333, 197 39 C 197 37.900, 197.625 37, 198.389 37 C 199.184 37, 200.058 35.505, 200.434 33.500 C 200.827 31.405, 201.675 30, 202.545 30 C 203.541 30, 204 28.896, 204 26.500 C 204 23.183, 203.822 23, 200.582 23 C 198.702 23, 196.564 22.869, 195.832 22.710 C 195.099 22.550, 191.012 22.569, 186.750 22.752 M 186 31.383 C 186 33.142, 182.902 33.969, 176.250 33.986 C 172.256 33.997, 171 34.359, 171 35.500 C 171 36.682, 169.601 37, 164.406 37 C 158.654 37, 157.746 37.255, 157.290 39 C 157 40.107, 155.926 41, 154.883 41 C 153.848 41, 153 41.655, 153 42.455 C 153 43.325, 151.595 44.173, 149.500 44.566 C 147.495 44.942, 146 45.816, 146 46.611 C 146 47.375, 145.325 48, 144.500 48 C 143.675 48, 143 48.675, 143 49.500 C 143 50.325, 142.283 51, 141.406 51 C 140.530 51, 139.577 51.900, 139.290 53 C 139.002 54.100, 138.144 55, 137.383 55 C 136.492 55, 135.995 56.156, 135.986 58.250 C 135.966 63, 134.959 66, 133.383 66 C 132.329 66, 132 67.781, 132 73.500 C 132 79.500, 132.300 81, 133.500 81 C 134.325 81, 135 81.675, 135 82.500 C 135 83.325, 134.325 84, 133.500 84 C 132.263 84, 132 85.820, 132 94.383 C 132 103.926, 132.162 104.809, 134 105.290 C 135.841 105.771, 136 106.654, 136 116.406 C 136 125.156, 136.261 127, 137.500 127 C 138.722 127, 139 128.667, 139 136 C 139 144.333, 139.148 145, 141 145 C 142.333 145, 143 145.667, 143 147 C 143 150.425, 145.734 149.231, 146.434 145.500 C 146.827 143.405, 147.675 142, 148.545 142 C 149.345 142, 150 141.100, 150 140 C 150 138.900, 150.619 138, 151.375 138 C 152.972 138, 154.147 133.277, 153.329 130.149 C 153.020 128.967, 152.144 128, 151.383 128 C 150.436 128, 150 126.739, 150 124 L 150 120 157 120 L 164 120 164 116.406 C 164 113.654, 164.468 112.690, 166 112.290 C 167.503 111.897, 168 110.926, 168 108.383 C 168 106.089, 168.468 105, 169.455 105 C 170.325 105, 171.173 103.595, 171.566 101.500 C 171.942 99.495, 172.816 98, 173.611 98 C 174.456 98, 175.005 96.923, 175.014 95.250 C 175.035 90.968, 176.101 88, 177.617 88 C 178.377 88, 179 87.100, 179 86 C 179 84.889, 179.667 84, 180.500 84 C 181.652 84, 182 82.722, 182 78.500 C 182 72.507, 180.747 71.479, 177.732 75 C 176.790 76.100, 175.115 77, 174.010 77 C 172.904 77, 172 77.625, 172 78.389 C 172 79.184, 170.505 80.058, 168.500 80.434 C 166.405 80.827, 165 81.675, 165 82.545 C 165 83.345, 164.152 84, 163.117 84 C 162.074 84, 161 84.893, 160.710 86 C 160.329 87.456, 159.346 88, 157.094 88 C 155.010 88, 154 88.490, 154 89.500 C 154 90.333, 153.111 91, 152 91 C 150.889 91, 150 90.333, 150 89.500 C 150 88.675, 149.377 88, 148.615 88 C 147.684 88, 147.002 89.830, 146.532 93.588 C 145.852 99.029, 145.764 99.158, 143.169 98.506 C 141.703 98.138, 140.298 97.632, 140.047 97.380 C 139.796 97.129, 139.405 94.016, 139.178 90.462 C 138.794 84.419, 138.904 84, 140.884 84 C 142.333 84, 143 83.370, 143 82 C 143 80.889, 143.667 80, 144.500 80 C 145.325 80, 146 79.325, 146 78.500 C 146 77.667, 146.889 77, 148 77 C 149.333 77, 150 76.333, 150 75 C 150 73.381, 150.667 73, 153.500 73 C 155.803 73, 157 72.530, 157 71.625 C 157 70.254, 161.120 69, 165.625 69 C 167.069 69, 168 68.412, 168 67.500 C 168 66.667, 168.889 66, 170 66 C 171.333 66, 172 65.333, 172 64 C 172 62.889, 172.667 62, 173.500 62 C 174.548 62, 175 60.944, 175 58.500 C 175 55.667, 175.381 55, 177 55 C 178.333 55, 179 54.333, 179 53 C 179 51.900, 179.655 51, 180.455 51 C 181.325 51, 182.173 49.595, 182.566 47.500 C 182.942 45.495, 183.816 44, 184.611 44 C 185.532 44, 186 42.820, 186 40.500 C 186 37.602, 186.364 37, 188.117 37 C 189.824 37, 190.117 36.565, 189.630 34.750 C 189.299 33.513, 189.021 31.938, 189.014 31.250 C 189.006 30.563, 188.325 30, 187.500 30 C 186.675 30, 186 30.623, 186 31.383 M 197 72.010 C 197 73.115, 196.100 74.790, 195 75.732 C 193.900 76.674, 193 78.244, 193 79.222 C 193 80.200, 192.325 81, 191.500 81 C 190.490 81, 190 82.010, 190 84.094 C 190 86.346, 189.456 87.329, 188 87.710 C 186.497 88.103, 186 89.074, 186 91.617 C 186 93.911, 185.532 95, 184.545 95 C 183.675 95, 182.827 96.405, 182.434 98.500 C 182.058 100.505, 181.184 102, 180.389 102 C 179.477 102, 179 103.163, 179 105.383 C 179 107.926, 178.503 108.897, 177 109.290 C 175.544 109.671, 175 110.654, 175 112.906 C 175 114.865, 174.495 116, 173.625 116 C 172.196 116, 170.591 121.530, 171.563 123.103 C 171.868 123.596, 173.666 124, 175.559 124 C 177.951 124, 179 124.457, 179 125.500 C 179 126.629, 180.209 127, 183.883 127 C 187.926 127, 188.857 127.344, 189.290 129 C 189.751 130.763, 190.654 131, 196.906 131 L 204 131 204 127 C 204 124.211, 204.430 123, 205.421 123 C 206.202 123, 207.138 121.650, 207.500 120 C 207.862 118.350, 208.798 117, 209.579 117 C 210.570 117, 211 115.789, 211 113 C 211 109.667, 211.333 109, 213 109 C 214.733 109, 215 108.333, 215 104 C 215 100.364, 215.385 99, 216.410 99 C 217.457 99, 218.002 96.817, 218.527 90.520 C 219.374 80.355, 218.497 73, 216.439 73 C 215.647 73, 215 72.325, 215 71.500 C 215 70.278, 213.333 70, 206 70 C 197.652 70, 197 70.146, 197 72.010 M 38.434 138.500 C 38.058 140.505, 37.184 142, 36.389 142 C 35.372 142, 35 143.474, 35 147.500 C 35 151.722, 35.348 153, 36.500 153 C 37.603 153, 38 154.150, 38 157.349 C 38 167.435, 39.288 177, 40.647 177 C 41.722 177, 42 179.977, 42 191.500 C 42 203.722, 41.764 206, 40.500 206 C 39.462 206, 39 207.043, 39 209.383 C 39 213.215, 40.438 213.963, 47.844 213.986 C 51.353 213.997, 52.288 213.616, 52.710 212 C 53.103 210.497, 54.074 210, 56.617 210 C 59.333 210, 60 209.606, 60 208 C 60 206.667, 60.667 206, 62 206 C 63.111 206, 64 205.333, 64 204.500 C 64 203.490, 65.010 203, 67.094 203 C 69.346 203, 70.329 202.456, 70.710 201 C 70.998 199.900, 71.856 199, 72.617 199 C 73.377 199, 74 198.375, 74 197.611 C 74 196.816, 75.495 195.942, 77.500 195.566 C 79.595 195.173, 81 194.325, 81 193.455 C 81 192.424, 82.166 192, 85 192 C 87.889 192, 89 191.583, 89 190.500 C 89 189.588, 89.931 189, 91.375 189 C 95.880 189, 100 187.746, 100 186.375 C 100 185.619, 100.675 185, 101.500 185 C 102.333 185, 103 184.111, 103 183 C 103 181.190, 102.333 181, 96 181 C 89.667 181, 89 181.190, 89 183 C 89 185.090, 88.007 185.376, 84.250 184.370 C 81.725 183.693, 81.189 182, 83.500 182 C 84.356 182, 85 181.101, 85 179.906 C 85 178.654, 85.803 177.603, 87 177.290 C 88.503 176.897, 89 175.926, 89 173.383 C 89 171.197, 89.481 170, 90.361 170 C 91.855 170, 92.977 163.248, 92.991 154.156 C 92.999 149.650, 92.687 148.731, 91 148.290 C 89.900 148.002, 89 147.144, 89 146.383 C 89 145.436, 87.739 145, 85 145 C 82.111 145, 81 144.583, 81 143.500 C 81 142.224, 78.378 142, 63.406 142 C 46.654 142, 45.788 141.904, 45.290 140 C 45.002 138.900, 44.144 138, 43.383 138 C 42.623 138, 42 137.325, 42 136.500 C 42 133.413, 39.081 135.050, 38.434 138.500 M 60.250 152.794 L 53 153.088 53 156.044 C 53 158.756, 52.711 159, 49.500 159 C 46.667 159, 46 159.381, 46 161 C 46 162.111, 46.667 163, 47.500 163 C 48.753 163, 49 165.043, 49 175.383 C 49 186.926, 49.136 187.802, 51 188.290 C 52.456 188.671, 53 189.654, 53 191.906 C 53 193.990, 53.490 195, 54.500 195 C 55.325 195, 56 194.325, 56 193.500 C 56 192.417, 57.111 192, 60 192 C 62.834 192, 64 191.576, 64 190.545 C 64 189.675, 65.405 188.827, 67.500 188.434 C 70.033 187.959, 71 187.255, 71 185.889 C 71 184.850, 71.675 184, 72.500 184 C 73.325 184, 74 183.325, 74 182.500 C 74 181.667, 74.889 181, 76 181 C 77.619 181, 78 180.333, 78 177.500 C 78 175.152, 78.465 174, 79.412 174 C 80.280 174, 81.085 172.459, 81.500 170 C 81.915 167.541, 82.720 166, 83.588 166 C 84.616 166, 85 164.639, 85 161 C 85 157.336, 84.619 156, 83.573 156 C 82.789 156, 82.001 155.245, 81.823 154.321 C 81.478 152.528, 76.143 152.150, 60.250 152.794" stroke="none" fill="black" fill-rule="evenodd"/>
</svg>