<svg xmlns="http://www.w3.org/2000/svg" width="300" height="300" viewBox="0 0 300 300" version="1.1">
	<path d="M 118 72.594 C 118 73.470, 117.100 74.423, 116 74.710 C 114.900 74.998, 114 75.856, 114 76.617 C 114 77.377, 113.377 78, 112.617 78 C 111.101 78, 110.035 80.968, 110.014 85.250 C 110.005 87.022, 109.466 88, 108.500 88 C 107.675 88, 107 88.878, 107 89.950 C 107 91.023, 106.277 92.305, 105.394 92.799 C 104.428 93.340, 103.580 95.551, 103.264 98.349 C 102.951 101.131, 102.236 103, 101.487 103 C 100.797 103, 99.998 103.900, 99.710 105 C 99.423 106.100, 98.470 107, 97.594 107 C 96.439 107, 96 107.964, 96 110.500 C 96 112.813, 95.531 114, 94.617 114 C 93.856 114, 92.998 114.900, 92.710 116 C 92.423 117.100, 91.470 118, 90.594 118 C 89.717 118, 89 118.675, 89 119.500 C 89 120.333, 88.111 121, 87 121 C 85.242 121, 85 121.667, 85 126.500 L 85 132 126.500 132 C 167.333 132, 168 132.032, 168 134 C 168 135.100, 167.345 136, 166.545 136 C 165.675 136, 164.827 137.405, 164.434 139.500 C 164.058 141.505, 163.184 143, 162.389 143 C 161.625 143, 161 143.623, 161 144.383 C 161 145.144, 160.100 146.002, 159 146.290 C 157.544 146.671, 157 147.654, 157 149.906 C 157 152.070, 156.521 153, 155.406 153 C 154.530 153, 153.577 153.900, 153.290 155 C 153.002 156.100, 152.144 157, 151.383 157 C 150.623 157, 150 157.900, 150 159 C 150 160.333, 149.333 161, 148 161 C 146.667 161, 146 161.667, 146 163 C 146 164.111, 145.333 165, 144.500 165 C 143.675 165, 143 165.675, 143 166.500 C 143 167.325, 142.345 168, 141.545 168 C 140.675 168, 139.827 169.405, 139.434 171.500 C 139.058 173.505, 138.184 175, 137.389 175 C 136.625 175, 136 175.717, 136 176.594 C 136 177.470, 135.100 178.423, 134 178.710 C 132.497 179.103, 132 180.074, 132 182.617 C 132 185.333, 131.606 186, 130 186 C 128.889 186, 128 186.667, 128 187.500 C 128 188.325, 127.325 189, 126.500 189 C 125.675 189, 125 188.325, 125 187.500 C 125 186.452, 123.944 186, 121.500 186 C 119.152 186, 118 185.535, 118 184.588 C 118 183.720, 116.459 182.915, 114 182.500 C 111.541 182.085, 110 181.280, 110 180.412 C 110 179.635, 109.325 179, 108.500 179 C 107.667 179, 107 178.111, 107 177 C 107 175.667, 106.333 175, 105 175 C 103.900 175, 103 174.375, 103 173.611 C 103 172.816, 101.505 171.942, 99.500 171.566 C 97.405 171.173, 96 170.325, 96 169.455 C 96 168.358, 94.646 168, 90.500 168 L 85 168 85 171.500 C 85 174.333, 85.381 175, 87 175 C 88.333 175, 89 175.667, 89 177 C 89 178.333, 89.667 179, 91 179 C 92.111 179, 93 179.667, 93 180.500 C 93 181.325, 93.675 182, 94.500 182 C 95.333 182, 96 182.889, 96 184 C 96 185.606, 96.667 186, 99.383 186 C 101.926 186, 102.897 186.497, 103.290 188 C 103.690 189.532, 104.654 190, 107.406 190 C 109.934 190, 111 190.445, 111 191.500 C 111 192.466, 111.978 193.005, 113.750 193.014 C 117.502 193.032, 121 194.047, 121 195.117 C 121 195.602, 120.325 196, 119.500 196 C 118.644 196, 118 196.899, 118 198.094 C 118 199.346, 117.197 200.397, 116 200.710 C 114.583 201.081, 114 202.074, 114 204.117 C 114 206.088, 113.496 207, 112.406 207 C 111.530 207, 110.577 207.900, 110.290 209 C 110.002 210.100, 109.320 211, 108.774 211 C 107.390 211, 103.038 215.258, 103.017 216.633 C 103.008 217.257, 102.069 218.010, 100.931 218.308 C 99.271 218.742, 98.925 219.506, 99.181 222.174 C 99.474 225.228, 99.807 225.525, 103.250 225.810 C 106.470 226.077, 107 225.830, 107 224.060 C 107 222.667, 107.647 222, 109 222 C 110.111 222, 111 221.333, 111 220.500 C 111 219.675, 111.675 219, 112.500 219 C 113.333 219, 114 218.111, 114 217 C 114 215.667, 114.667 215, 116 215 C 117.333 215, 118 214.333, 118 213 C 118 211.889, 118.667 211, 119.500 211 C 120.325 211, 121 210.377, 121 209.617 C 121 208.856, 121.900 207.998, 123 207.710 C 124.456 207.329, 125 206.346, 125 204.094 C 125 201.010, 125.019 201, 130.500 201 C 134.722 201, 136 201.348, 136 202.500 C 136 203.652, 137.278 204, 141.500 204 C 145.516 204, 147 204.373, 147 205.383 C 147 206.899, 149.968 207.965, 154.250 207.986 C 156.022 207.995, 157 208.534, 157 209.500 C 157 210.555, 158.066 211, 160.594 211 C 163.346 211, 164.310 211.468, 164.710 213 C 165.143 214.656, 166.074 215, 170.117 215 C 173.791 215, 175 215.371, 175 216.500 C 175 217.412, 175.931 218, 177.375 218 C 181.880 218, 186 219.254, 186 220.625 C 186 221.625, 187.500 222, 191.500 222 C 195.722 222, 197 222.348, 197 223.500 C 197 224.325, 197.717 225, 198.594 225 C 199.470 225, 200.416 225.874, 200.695 226.943 C 201.321 229.335, 205.645 230.405, 211.022 229.496 C 214.751 228.866, 215 228.610, 215 225.412 C 215 222.179, 214.816 222, 211.500 222 C 209.197 222, 208 221.530, 208 220.625 C 208 219.254, 203.880 218, 199.375 218 C 198.015 218, 197 217.406, 197 216.611 C 197 215.816, 195.505 214.942, 193.500 214.566 C 191.405 214.173, 190 213.325, 190 212.455 C 190 211.358, 188.646 211, 184.500 211 C 180.430 211, 179 210.633, 179 209.588 C 179 208.720, 177.459 207.915, 175 207.500 C 172.541 207.085, 171 206.280, 171 205.412 C 171 204.384, 169.639 204, 166 204 C 162.240 204, 161 203.631, 161 202.512 C 161 201.549, 159.588 200.798, 157 200.384 C 154.587 199.998, 153 199.200, 153 198.372 C 153 197.397, 151.589 197, 148.117 197 C 144.074 197, 143.143 196.656, 142.710 195 C 142.329 193.544, 141.346 193, 139.094 193 C 136.667 193, 136 192.569, 136 191 C 136 189.889, 136.667 189, 137.500 189 C 138.325 189, 139 188.325, 139 187.500 C 139 186.675, 139.655 186, 140.455 186 C 141.325 186, 142.173 184.595, 142.566 182.500 C 142.942 180.495, 143.816 179, 144.611 179 C 145.375 179, 146 178.100, 146 177 C 146 175.667, 146.667 175, 148 175 C 149.333 175, 150 174.333, 150 173 C 150 171.900, 150.639 171, 151.421 171 C 152.202 171, 153.138 169.650, 153.500 168 C 153.862 166.350, 154.798 165, 155.579 165 C 156.361 165, 157 164.100, 157 163 C 157 161.667, 157.667 161, 159 161 C 160.333 161, 161 160.333, 161 159 C 161 157.889, 161.667 157, 162.500 157 C 163.325 157, 164 156.325, 164 155.500 C 164 154.667, 164.889 154, 166 154 C 167.619 154, 168 153.333, 168 150.500 C 168 147.667, 168.381 147, 170 147 C 171.333 147, 172 146.333, 172 145 C 172 143.900, 172.623 143, 173.383 143 C 174.144 143, 175.002 142.100, 175.290 141 C 175.671 139.544, 176.654 139, 178.906 139 C 181.775 139, 182 138.746, 182 135.500 C 182 132.667, 182.381 132, 184 132 C 185.759 132, 186 131.333, 186 126.458 L 186 120.916 155.833 121.208 C 132.798 121.431, 125.567 121.796, 125.249 122.750 C 124.759 124.224, 121.316 124.437, 120.833 123.023 C 120.650 122.485, 116.563 121.744, 111.750 121.375 L 103 120.705 103 117.352 C 103 114.667, 103.398 114, 105 114 C 106.111 114, 107 114.667, 107 115.500 C 107 116.325, 107.675 117, 108.500 117 C 109.548 117, 110 115.944, 110 113.500 C 110 111.056, 109.548 110, 108.500 110 C 107.500 110, 107 109, 107 107 C 107 105, 107.500 104, 108.500 104 C 109.356 104, 110 103.101, 110 101.906 C 110 100.654, 110.803 99.603, 112 99.290 C 113.503 98.897, 114 97.926, 114 95.383 C 114 93.043, 114.462 92, 115.500 92 C 116.325 92, 117 91.325, 117 90.500 C 117 89.667, 117.889 89, 119 89 C 120.333 89, 121 88.333, 121 87 C 121 85.394, 121.667 85, 124.383 85 C 128.258 85, 128.964 83.582, 128.986 75.750 L 129 71 123.500 71 C 119.134 71, 118 71.329, 118 72.594" stroke="none" fill="black" fill-rule="evenodd"/>
</svg>