<svg xmlns="http://www.w3.org/2000/svg" width="300" height="300" viewBox="0 0 300 300" version="1.1">
	<path d="M 138 91.726 C 137.175 92.038, 136.140 92.902, 135.700 93.647 C 135.199 94.494, 133.052 95, 129.950 95 C 126.217 95, 125 95.369, 125 96.500 C 125 97.652, 123.722 98, 119.500 98 C 114.667 98, 114 98.242, 114 100 C 114 101.667, 113.333 102, 110 102 C 107.261 102, 106 102.436, 106 103.383 C 106 104.144, 105.033 105.020, 103.851 105.329 C 100.723 106.147, 96 104.972, 96 103.375 C 96 102.619, 95.100 102, 94 102 C 92.667 102, 92 102.667, 92 104 C 92 105.111, 91.333 106, 90.500 106 C 89.675 106, 89 106.653, 89 107.450 C 89 108.248, 88.213 109.341, 87.250 109.880 C 85.649 110.776, 85.500 113.214, 85.500 138.466 C 85.500 160.678, 85.766 166.237, 86.861 166.914 C 87.814 167.503, 88.290 170.420, 88.448 176.628 C 88.879 193.647, 88.284 192, 94 192 C 97.326 192, 99.005 191.582, 99.014 190.750 C 99.021 190.063, 99.299 188.488, 99.630 187.250 C 100.117 185.435, 99.824 185, 98.117 185 C 96.021 185, 96 184.765, 96 161.500 C 96 141.278, 95.791 138, 94.500 138 C 93.311 138, 93 136.564, 93 131.079 C 93 124.203, 93.019 124.155, 96 123.500 C 97.650 123.138, 99 122.202, 99 121.421 C 99 120.639, 99.850 120, 100.889 120 C 102.255 120, 102.959 119.033, 103.434 116.500 C 104.001 113.476, 104.477 113, 106.929 113 C 108.926 113, 109.922 112.407, 110.290 111 C 110.690 109.468, 111.654 109, 114.406 109 C 116.818 109, 118 108.540, 118 107.601 C 118 106.604, 120.005 106.002, 125 105.500 C 129.995 104.998, 132 104.396, 132 103.399 C 132 102.325, 133.742 102, 139.500 102 C 145.500 102, 147 101.700, 147 100.500 C 147 99.250, 149 99, 159 99 C 169 99, 171 99.250, 171 100.500 C 171 101.722, 172.667 102, 180 102 C 186.970 102, 189 102.310, 189 103.375 C 189 104.746, 193.120 106, 197.625 106 L 200 106 200 140.360 C 200 176.984, 200.424 184, 202.636 184 C 203.667 184, 204 185.832, 204 191.500 C 204 197.500, 204.300 199, 205.500 199 C 206.555 199, 207 200.066, 207 202.594 C 207 205.346, 207.468 206.310, 209 206.710 C 210.100 206.998, 211 207.856, 211 208.617 C 211 209.377, 211.900 210, 213 210 C 214.871 210, 214.999 209.338, 214.986 199.750 C 214.971 188.243, 214.399 185, 212.383 185 C 211.337 185, 211 183.293, 211 178 C 211 172.444, 210.690 171, 209.500 171 C 208.212 171, 208 167.889, 208 149 C 208 131.042, 208.252 127, 209.370 127 C 210.439 127, 210.848 123.982, 211.234 113.250 C 211.507 105.688, 211.539 99.162, 211.306 98.750 C 211.073 98.338, 207.759 98, 203.941 98 C 198.438 98, 197 97.689, 197 96.500 C 197 95.316, 195.577 94.997, 190.250 94.986 C 182.152 94.970, 179 94.241, 179 92.383 C 179 91.250, 175.437 91.014, 159.250 91.079 C 148.387 91.122, 138.825 91.413, 138 91.726" stroke="none" fill="black" fill-rule="evenodd"/>
</svg>