<svg xmlns="http://www.w3.org/2000/svg" width="300" height="300" viewBox="0 0 300 300" version="1.1">
	<path d="M 127 40.500 C 127 44.722, 126.652 46, 125.500 46 C 124.675 46, 124 46.675, 124 47.500 C 124 48.325, 124.623 49, 125.383 49 C 126.144 49, 127.002 49.900, 127.290 51 C 127.577 52.100, 128.347 53, 129 53 C 129.653 53, 130.423 52.100, 130.710 51 C 131 49.893, 132.074 49, 133.117 49 C 134.152 49, 135 48.325, 135 47.500 C 135 46.284, 136.611 46, 143.500 46 C 150.389 46, 152 46.284, 152 47.500 C 152 48.333, 152.889 49, 154 49 C 155.758 49, 156 49.667, 156 54.500 L 156 60 159.500 60 L 163 60 163 51 C 163 44.004, 162.692 42, 161.617 42 C 160.856 42, 159.998 41.100, 159.710 40 C 159.310 38.468, 158.346 38, 155.594 38 C 153.066 38, 152 37.555, 152 36.500 C 152 35.247, 149.944 35, 139.500 35 L 127 35 127 40.500 M 95 62 C 95 63.100, 94.377 64, 93.617 64 C 92.041 64, 91.034 67, 91.014 71.750 C 91.004 73.966, 90.523 75, 89.500 75 C 88.476 75, 87.997 76.032, 87.991 78.250 C 87.972 85.426, 86.714 92, 85.361 92 C 84.258 92, 84 95.799, 84 112 C 84 129.111, 84.217 132, 85.500 132 C 86.325 132, 87 132.648, 87 133.441 C 87 134.234, 87.461 135.167, 88.024 135.515 C 89.698 136.550, 95 134.958, 95 133.421 C 95 132.639, 95.675 132, 96.500 132 C 97.333 132, 98 131.111, 98 130 C 98 128.889, 97.333 128, 96.500 128 C 95.675 128, 95 127.347, 95 126.550 C 95 125.752, 94.213 124.659, 93.250 124.121 C 91.802 123.312, 91.500 121.708, 91.500 114.822 L 91.500 106.500 96.750 106.842 C 101.519 107.152, 102 106.992, 102 105.092 C 102 103.941, 102.623 103, 103.383 103 C 104.144 103, 105.002 102.100, 105.290 101 C 105.577 99.900, 106.530 99, 107.406 99 C 108.283 99, 109 98.325, 109 97.500 C 109 96.348, 110.278 96, 114.500 96 C 118.472 96, 120 95.622, 120 94.639 C 120 93.249, 126.622 92.026, 134.250 92.009 C 136.913 92.003, 138 91.565, 138 90.500 C 138 89.348, 139.278 89, 143.500 89 C 148.333 89, 149 88.758, 149 87 C 149 85.267, 149.667 85, 154 85 C 157.778 85, 159 84.633, 159 83.500 C 159 82.477, 160.034 81.996, 162.250 81.986 C 167 81.966, 170 80.959, 170 79.383 C 170 78.337, 171.707 78, 177 78 C 182.556 78, 184 77.690, 184 76.500 C 184 75.514, 184.986 75, 186.875 75 C 191.841 75, 196 73.804, 196 72.375 C 196 71.339, 197.727 71, 203 71 L 210 71 210 80 C 210 88.333, 209.852 89, 208 89 C 206.381 89, 206 89.667, 206 92.500 C 206 94.944, 205.548 96, 204.500 96 C 203.452 96, 203 97.056, 203 99.500 C 203 102.333, 202.619 103, 201 103 C 199.333 103, 199 103.667, 199 107 C 199 109.834, 198.576 111, 197.545 111 C 196.675 111, 195.827 112.405, 195.434 114.500 C 195.058 116.505, 194.184 118, 193.389 118 C 192.468 118, 192 119.180, 192 121.500 C 192 123.896, 191.541 125, 190.545 125 C 189.675 125, 188.827 126.405, 188.434 128.500 C 188.073 130.425, 187.185 132, 186.462 132 C 185.739 132, 184.994 132.787, 184.807 133.750 C 184.505 135.305, 183.077 135.500, 171.984 135.500 L 159.500 135.500 159.190 139.250 L 158.879 143 166.440 143 C 172.210 143, 174 143.328, 174 144.383 C 174 145.144, 174.900 146.002, 176 146.290 C 177.100 146.577, 178 147.530, 178 148.406 C 178 149.763, 179.559 150, 188.500 150 C 197.167 150, 199 149.738, 199 148.500 C 199 147.310, 200.444 147, 206 147 C 211.556 147, 213 147.310, 213 148.500 C 213 149.333, 213.889 150, 215 150 C 216.333 150, 217 150.667, 217 152 C 217 153.100, 216.377 154, 215.617 154 C 214.331 154, 213.045 156.840, 213.014 159.750 C 213.005 160.544, 214.459 161, 217 161 C 220.333 161, 221 160.667, 221 159 C 221 157.900, 221.655 157, 222.455 157 C 224.288 157, 225.451 151.217, 224.566 146.500 C 224.205 144.575, 223.355 143, 222.677 143 C 221.999 143, 220.674 142.100, 219.732 141 C 218.182 139.190, 216.782 139, 205.010 139 L 192 139 192 135.500 C 192 132.667, 192.381 132, 194 132 C 195.333 132, 196 131.333, 196 130 C 196 128.889, 196.667 128, 197.500 128 C 198.510 128, 199 126.990, 199 124.906 C 199 122.654, 199.544 121.671, 201 121.290 C 202.503 120.897, 203 119.926, 203 117.383 C 203 115.089, 203.468 114, 204.455 114 C 205.325 114, 206.173 112.595, 206.566 110.500 C 206.942 108.495, 207.816 107, 208.611 107 C 209.523 107, 210 105.837, 210 103.617 C 210 101.074, 210.497 100.103, 212 99.710 C 213.532 99.310, 214 98.346, 214 95.594 C 214 93.066, 214.445 92, 215.500 92 C 216.466 92, 217.005 91.022, 217.014 89.250 C 217.035 84.968, 218.101 82, 219.617 82 C 220.692 82, 221 79.996, 221 73 C 221 65.432, 220.746 64, 219.406 64 C 218.530 64, 217.577 63.100, 217.290 62 C 216.831 60.244, 215.926 60, 209.883 60 C 204.691 60, 203 60.340, 203 61.383 C 203 62.374, 200.878 62.964, 195.500 63.468 C 190.032 63.980, 188 64.554, 188 65.585 C 188 66.670, 186.368 67, 181 67 C 174.667 67, 174 67.190, 174 69 C 174 70.758, 173.333 71, 168.500 71 C 164.278 71, 163 71.348, 163 72.500 C 163 73.466, 162.022 74.005, 160.250 74.014 C 155.968 74.035, 153 75.101, 153 76.617 C 153 77.564, 151.739 78, 149 78 C 146.240 78, 145 78.434, 145 79.399 C 145 80.396, 142.995 80.998, 138 81.500 C 133.005 82.002, 131 82.604, 131 83.601 C 131 84.675, 129.258 85, 123.500 85 C 117.781 85, 116 85.329, 116 86.383 C 116 88.103, 112.923 88.969, 106.750 88.986 C 103.201 88.997, 102 89.379, 102 90.500 C 102 91.548, 100.944 92, 98.500 92 C 95.167 92, 95 91.833, 95 88.500 C 95 86.056, 95.452 85, 96.500 85 C 97.575 85, 98 83.903, 98 81.125 C 98 75.228, 99.096 71, 100.625 71 C 101.381 71, 102 70.100, 102 69 C 102 67.242, 102.667 67, 107.500 67 L 113 67 113 63.500 L 113 60 104 60 C 95.667 60, 95 60.148, 95 62 M 149 97.500 C 149 98.333, 148.111 99, 147 99 C 145.667 99, 145 99.667, 145 101 C 145 102.619, 144.333 103, 141.500 103 C 138.667 103, 138 103.381, 138 105 C 138 106.100, 137.345 107, 136.545 107 C 135.675 107, 134.827 108.405, 134.434 110.500 C 133.871 113.500, 133.382 114, 131.005 114 C 129.074 114, 128.075 114.607, 127.710 116 C 127.423 117.100, 126.506 118, 125.673 118 C 124.804 118, 123.878 119.278, 123.500 121 C 123.138 122.650, 122.202 124, 121.421 124 C 120.639 124, 120 124.900, 120 126 C 120 127.333, 119.333 128, 118 128 C 116.667 128, 116 128.667, 116 130 C 116 131.111, 115.333 132, 114.500 132 C 113.675 132, 113 132.623, 113 133.383 C 113 134.144, 112.100 135.002, 111 135.290 C 109.900 135.577, 109 136.530, 109 137.406 C 109 138.333, 108.163 139, 107 139 C 105.667 139, 105 139.667, 105 141 C 105 142.111, 104.333 143, 103.500 143 C 102.675 143, 102 143.675, 102 144.500 C 102 145.333, 101.111 146, 100 146 C 98.667 146, 98 146.667, 98 148 C 98 149.619, 97.333 150, 94.500 150 C 91.667 150, 91 150.381, 91 152 C 91 153.111, 90.333 154, 89.500 154 C 88.675 154, 88 154.675, 88 155.500 C 88 156.333, 87.111 157, 86 157 C 84.667 157, 84 157.667, 84 159 C 84 160.619, 83.333 161, 80.500 161 C 77.167 161, 77 161.167, 77 164.500 L 77 168 82.500 168 C 87.333 168, 88 167.758, 88 166 C 88 164.889, 88.667 164, 89.500 164 C 90.325 164, 91 163.377, 91 162.617 C 91 161.856, 91.900 160.998, 93 160.710 C 94.100 160.423, 95 159.470, 95 158.594 C 95 157.667, 95.837 157, 97 157 C 98.100 157, 99 156.361, 99 155.579 C 99 154.798, 100.350 153.862, 102 153.500 C 103.650 153.138, 105 152.202, 105 151.421 C 105 150.639, 105.900 150, 107 150 C 108.333 150, 109 149.333, 109 148 C 109 146.667, 109.667 146, 111 146 C 112.111 146, 113 145.333, 113 144.500 C 113 143.675, 113.675 143, 114.500 143 C 115.333 143, 116 142.111, 116 141 C 116 139.667, 116.667 139, 118 139 C 119.333 139, 120 138.333, 120 137 C 120 135.889, 120.667 135, 121.500 135 C 122.325 135, 123 134.325, 123 133.500 C 123 132.667, 123.889 132, 125 132 C 126.333 132, 127 131.333, 127 130 C 127 128.889, 127.667 128, 128.500 128 C 129.325 128, 130 127.325, 130 126.500 C 130 125.675, 130.850 125, 131.889 125 C 133.248 125, 133.958 124.039, 134.420 121.572 C 134.940 118.804, 135.634 118.020, 138.032 117.493 C 139.664 117.134, 141 116.202, 141 115.421 C 141 114.639, 141.900 114, 143 114 C 144.333 114, 145 113.333, 145 112 C 145 110.667, 145.667 110, 147 110 C 148.111 110, 149 109.333, 149 108.500 C 149 107.667, 149.889 107, 151 107 C 152.111 107, 153 107.667, 153 108.500 C 153 109.500, 154 110, 156 110 C 158 110, 159 109.500, 159 108.500 C 159 107.675, 158.325 107, 157.500 107 C 156.348 107, 156 105.722, 156 101.500 L 156 96 152.500 96 C 150.056 96, 149 96.452, 149 97.500 M 152.710 159 C 152.310 160.532, 151.346 161, 148.594 161 C 146.116 161, 145 161.452, 145 162.455 C 145 163.325, 143.595 164.173, 141.500 164.566 C 139.495 164.942, 138 165.816, 138 166.611 C 138 167.375, 137.325 168, 136.500 168 C 135.675 168, 135 168.717, 135 169.594 C 135 170.470, 134.100 171.423, 133 171.710 C 131.900 171.998, 131 172.856, 131 173.617 C 131 174.377, 130.283 175, 129.406 175 C 128.530 175, 127.577 175.900, 127.290 177 C 127.002 178.100, 126.144 179, 125.383 179 C 124.623 179, 124 179.675, 124 180.500 C 124 181.333, 123.111 182, 122 182 C 120.667 182, 120 182.667, 120 184 C 120 185.333, 119.333 186, 118 186 C 116.667 186, 116 186.667, 116 188 C 116 189.111, 115.333 190, 114.500 190 C 113.675 190, 113 190.675, 113 191.500 C 113 192.333, 112.111 193, 111 193 C 109.667 193, 109 193.667, 109 195 C 109 196.111, 108.333 197, 107.500 197 C 106.675 197, 106 197.675, 106 198.500 C 106 199.333, 105.111 200, 104 200 C 102.667 200, 102 200.667, 102 202 C 102 203.333, 101.333 204, 100 204 C 98.667 204, 98 204.667, 98 206 C 98 207.111, 97.333 208, 96.500 208 C 95.675 208, 95 208.575, 95 209.278 C 95 209.981, 94.100 211.326, 93 212.268 C 91.900 213.210, 91 214.835, 91 215.879 C 91 217.257, 90.040 217.957, 87.500 218.434 C 85.405 218.827, 84 219.675, 84 220.545 C 84 221.345, 83.377 222, 82.617 222 C 81.856 222, 80.998 222.900, 80.710 224 C 80.423 225.100, 79.470 226, 78.594 226 C 77.717 226, 77 226.675, 77 227.500 C 77 228.333, 76.111 229, 75 229 C 73.667 229, 73 229.667, 73 231 C 73 232.333, 72.333 233, 71 233 C 69.889 233, 69 233.667, 69 234.500 C 69 235.325, 68.325 236, 67.500 236 C 66.667 236, 66 236.889, 66 238 C 66 239.333, 65.333 240, 64 240 C 62.667 240, 62 240.667, 62 242 C 62 243.111, 61.333 244, 60.500 244 C 59.452 244, 59 245.056, 59 247.500 C 59 250.833, 59.167 251, 62.500 251 C 64.813 251, 66 250.531, 66 249.617 C 66 248.856, 66.900 247.998, 68 247.710 C 69.100 247.423, 70 246.523, 70 245.710 C 70 244.898, 70.900 243.998, 72 243.710 C 73.100 243.423, 74 242.470, 74 241.594 C 74 240.717, 74.675 240, 75.500 240 C 76.325 240, 77 239.377, 77 238.617 C 77 237.856, 77.900 236.998, 79 236.710 C 80.100 236.423, 81 235.470, 81 234.594 C 81 233.717, 81.675 233, 82.500 233 C 83.333 233, 84 232.111, 84 231 C 84 229.667, 84.667 229, 86 229 C 87.111 229, 88 228.333, 88 227.500 C 88 226.675, 88.717 226, 89.594 226 C 90.470 226, 91.423 225.100, 91.710 224 C 91.998 222.900, 92.856 222, 93.617 222 C 94.377 222, 95 221.377, 95 220.617 C 95 219.856, 95.900 218.998, 97 218.710 C 98.100 218.423, 99 217.470, 99 216.594 C 99 215.717, 99.675 215, 100.500 215 C 101.325 215, 102 214.377, 102 213.617 C 102 212.856, 102.900 211.998, 104 211.710 C 105.100 211.423, 106 210.470, 106 209.594 C 106 208.717, 106.675 208, 107.500 208 C 108.333 208, 109 207.111, 109 206 C 109 204.667, 109.667 204, 111 204 C 112.333 204, 113 203.333, 113 202 C 113 200.889, 113.667 200, 114.500 200 C 115.325 200, 116 199.325, 116 198.500 C 116 197.667, 116.889 197, 118 197 C 119.333 197, 120 196.333, 120 195 C 120 193.667, 120.667 193, 122 193 C 123.111 193, 124 192.333, 124 191.500 C 124 190.675, 124.675 190, 125.500 190 C 126.333 190, 127 189.111, 127 188 C 127 186.667, 127.667 186, 129 186 C 130.100 186, 131 185.345, 131 184.545 C 131 183.675, 132.405 182.827, 134.500 182.434 C 137.033 181.959, 138 181.255, 138 179.889 C 138 178.850, 138.675 178, 139.500 178 C 140.325 178, 141 177.325, 141 176.500 C 141 175.667, 141.889 175, 143 175 C 144.163 175, 145 174.333, 145 173.406 C 145 172.530, 145.900 171.577, 147 171.290 C 148.100 171.002, 149 170.144, 149 169.383 C 149 168.469, 150.187 168, 152.500 168 C 154.896 168, 156 167.541, 156 166.545 C 156 165.675, 157.405 164.827, 159.500 164.434 C 161.505 164.058, 163 163.184, 163 162.389 C 163 161.260, 166.088 161, 179.500 161 C 195.333 161, 196 160.919, 196 159 C 196 157.062, 195.333 157, 174.617 157 C 154.074 157, 153.213 157.079, 152.710 159 M 156 191 C 156 192.357, 155.333 193, 153.927 193 C 150.341 193, 151.998 196.450, 155.758 196.813 C 157.764 197.007, 159 197.674, 159 198.563 C 159 199.515, 160.098 200.005, 162.250 200.014 C 167 200.034, 170 201.041, 170 202.617 C 170 203.692, 172.004 204, 179 204 C 185.970 204, 188 204.310, 188 205.375 C 188 206.948, 192.259 208, 198.625 208 C 201.670 208, 203 208.418, 203 209.375 C 203 210.399, 205.187 210.864, 211.583 211.200 C 216.303 211.447, 220.466 212.132, 220.833 212.721 C 221.200 213.310, 224.537 214.116, 228.250 214.513 C 232.652 214.982, 235 215.674, 235 216.500 C 235 217.197, 234.100 218.002, 233 218.290 C 231.900 218.577, 231 219.530, 231 220.406 C 231 221.510, 230.078 222, 228 222 C 224.426 222, 223.877 224.466, 227.250 225.370 C 231.992 226.641, 235 226.109, 235 224 C 235 222.667, 235.667 222, 237 222 C 238.111 222, 239 221.333, 239 220.500 C 239 219.675, 239.619 219, 240.375 219 C 241.131 219, 242.020 217.650, 242.350 216 C 243.158 211.960, 242.070 207, 240.375 207 C 239.619 207, 239 206.325, 239 205.500 C 239 204.244, 236.889 204, 226 204 C 215.598 204, 213 203.724, 213 202.617 C 213 200.790, 209.865 200.030, 202.250 200.014 C 197.367 200.003, 196 199.672, 196 198.500 C 196 197.359, 194.744 196.997, 190.750 196.986 C 184.098 196.969, 181 196.142, 181 194.383 C 181 193.469, 179.813 193, 177.500 193 C 175.215 193, 174 192.528, 174 191.639 C 174 190.249, 167.378 189.026, 159.750 189.009 C 156.664 189.002, 156 189.354, 156 191 M 152 212.383 C 152 213.899, 149.032 214.965, 144.750 214.986 C 142.978 214.995, 142 215.534, 142 216.500 C 142 217.652, 140.722 218, 136.500 218 C 132.278 218, 131 217.652, 131 216.500 C 131 215.452, 129.944 215, 127.500 215 C 125.056 215, 124 215.452, 124 216.500 C 124 217.333, 123.111 218, 122 218 C 120.242 218, 120 218.667, 120 223.500 C 120 227.722, 120.348 229, 121.500 229 C 123.015 229, 123.287 232.347, 123.529 254 C 123.655 265.228, 123.573 265, 127.500 265 C 129.944 265, 131 264.548, 131 263.500 C 131 262.675, 131.608 262, 132.352 262 C 133.783 262, 134.982 251.673, 134.994 239.250 C 134.999 234.364, 135.327 233, 136.500 233 C 137.333 233, 138 232.111, 138 231 C 138 229.889, 138.667 229, 139.500 229 C 140.325 229, 141 228.325, 141 227.500 C 141 226.477, 142.034 225.996, 144.250 225.986 C 149 225.966, 152 224.959, 152 223.383 C 152 222.373, 153.484 222, 157.500 222 C 161.722 222, 163 221.652, 163 220.500 C 163 219.452, 164.056 219, 166.500 219 C 168.944 219, 170 219.452, 170 220.500 C 170 221.689, 171.436 222, 176.921 222 C 183.728 222, 183.851 222.047, 184.472 224.872 C 185.291 228.600, 184.164 233, 182.392 233 C 181.626 233, 181 233.900, 181 235 C 181 236.100, 180.361 237, 179.579 237 C 178.798 237, 177.862 238.350, 177.500 240 C 177.138 241.650, 176.202 243, 175.421 243 C 174.639 243, 174 243.900, 174 245 C 174 246.333, 173.333 247, 172 247 C 170.900 247, 170 247.655, 170 248.455 C 170 249.325, 168.595 250.173, 166.500 250.566 C 164.546 250.933, 163 251.821, 163 252.577 C 163 253.447, 161.212 254.168, 158 254.594 C 154.754 255.025, 153 255.739, 153 256.629 C 153 257.562, 151.722 258, 149 258 C 145.075 258, 145 258.068, 145 261.594 C 145 264.346, 145.468 265.310, 147 265.710 C 148.100 265.998, 149 266.631, 149 267.117 C 149 268.476, 151.779 268.163, 152.249 266.750 C 152.555 265.830, 157.330 265.412, 170.332 265.167 L 188 264.835 188 261.417 L 188 258 181 258 C 174.667 258, 174 257.810, 174 256 C 174 254.889, 174.667 254, 175.500 254 C 176.325 254, 177 253.325, 177 252.500 C 177 251.667, 177.889 251, 179 251 C 180.333 251, 181 250.333, 181 249 C 181 247.900, 181.655 247, 182.455 247 C 183.325 247, 184.173 245.595, 184.566 243.500 C 184.942 241.495, 185.816 240, 186.611 240 C 187.375 240, 188 239.283, 188 238.406 C 188 237.530, 188.900 236.577, 190 236.290 C 191.811 235.816, 192 234.926, 192 226.883 C 192 219.654, 191.721 218, 190.500 218 C 189.675 218, 189 217.325, 189 216.500 C 189 215.675, 188.152 215, 187.117 215 C 186.074 215, 185 214.107, 184.710 213 C 184.215 211.105, 183.346 211, 168.094 211 C 155.058 211, 152 211.263, 152 212.383" stroke="none" fill="black" fill-rule="evenodd"/>
</svg>