<svg xmlns="http://www.w3.org/2000/svg" width="300" height="300" viewBox="0 0 300 300" version="1.1">
	<path d="M 103 58 C 103 59.100, 102.381 60, 101.625 60 C 99.413 60, 98.891 65.522, 99.616 81.250 C 100.142 92.640, 100.605 96, 101.648 96 C 102.684 96, 103 98.106, 103 105 C 103 112.333, 103.278 114, 104.500 114 C 105.325 114, 106 114.675, 106 115.500 C 106 116.738, 104.167 117, 95.500 117 C 86.833 117, 85 116.738, 85 115.500 C 85 114.286, 83.402 114, 76.617 114 C 68.995 114, 68.184 113.813, 67.695 111.941 C 66.954 109.107, 68.082 99, 69.140 99 C 69.613 99, 70 98.325, 70 97.500 C 70 96.675, 69.550 96, 69 96 C 68.450 96, 67.998 93.638, 67.995 90.750 C 67.983 76.727, 66.673 63, 65.347 63 C 64.606 63, 64 62.325, 64 61.500 C 64 60.667, 63.111 60, 62 60 C 60.049 60, 60 60.667, 60 87 C 60 109.322, 59.760 114, 58.617 114 C 56.897 114, 56.031 117.077, 56.014 123.250 L 56 128 60 128 C 62.889 128, 64 127.583, 64 126.500 C 64 125.218, 66.833 125, 83.500 125 C 99.436 125, 103 125.253, 103 126.383 C 103 127.144, 103.931 128.010, 105.069 128.308 C 106.729 128.742, 107.075 129.506, 106.819 132.174 L 106.500 135.500 95.750 135.784 C 87.100 136.012, 85 136.354, 85 137.534 C 85 138.750, 82.658 139.002, 71.250 139.014 C 53.864 139.031, 53 139.249, 53 143.617 C 53 145.957, 53.462 147, 54.500 147 C 55.325 147, 56 147.675, 56 148.500 C 56 149.333, 56.889 150, 58 150 C 59.619 150, 60 150.667, 60 153.500 C 60 155.803, 59.530 157, 58.625 157 C 56.940 157, 56 161.342, 56 169.125 C 56 173.461, 55.638 175, 54.616 175 C 53.621 175, 53.115 176.850, 52.813 181.600 C 52.503 186.462, 51.945 188.451, 50.696 189.150 C 49.425 189.862, 49 191.465, 49 195.550 C 49 199.524, 48.625 201, 47.616 201 C 46.652 201, 46.022 202.968, 45.537 207.500 C 45.042 212.123, 44.431 214, 43.420 214 C 42.430 214, 42 215.211, 42 218 C 42 221.333, 41.667 222, 40 222 C 38.381 222, 38 222.667, 38 225.500 C 38 227.944, 37.548 229, 36.500 229 C 35.667 229, 35 229.889, 35 231 C 35 232.333, 34.333 233, 33 233 C 31.381 233, 31 233.667, 31 236.500 C 31 238.944, 30.548 240, 29.500 240 C 27.013 240, 27.815 242.737, 30.500 243.411 C 34.731 244.473, 37.813 243.126, 38.521 239.906 C 38.872 238.308, 39.798 237, 40.579 237 C 41.570 237, 42 235.789, 42 233 C 42 229.667, 42.333 229, 44 229 C 45.333 229, 46 228.333, 46 227 C 46 225.889, 46.667 225, 47.500 225 C 48.466 225, 49.005 224.022, 49.014 222.250 C 49.035 217.968, 50.101 215, 51.617 215 C 52.531 215, 53 213.813, 53 211.500 C 53 209.056, 53.452 208, 54.500 208 C 55.486 208, 56 207.014, 56 205.125 C 56 200.159, 57.196 196, 58.625 196 C 59.661 196, 60 194.273, 60 189 C 60 183.727, 60.339 182, 61.375 182 C 62.904 182, 64 177.772, 64 171.875 C 64 169.097, 64.425 168, 65.500 168 C 66.652 168, 67 166.722, 67 162.500 C 67 158.484, 67.373 157, 68.383 157 C 69.144 157, 70.002 156.100, 70.290 155 C 70.690 153.468, 71.654 153, 74.406 153 C 76.934 153, 78 152.555, 78 151.500 C 78 150.667, 78.889 150, 80 150 C 81.111 150, 82 150.667, 82 151.500 C 82 152.652, 83.278 153, 87.500 153 C 91.722 153, 93 152.652, 93 151.500 C 93 150.412, 91.881 150, 88.927 150 C 85.586 150, 84.914 149.685, 85.188 148.250 C 85.473 146.760, 86.893 146.457, 94.761 146.212 C 102.070 145.985, 104 145.619, 104 144.462 C 104 142.181, 105.699 142.746, 106.370 145.250 C 107.557 149.680, 107.229 150, 101.500 150 C 97.500 150, 96 150.375, 96 151.375 C 96 152.746, 100.120 154, 104.625 154 L 107 154 106.986 173.250 C 106.972 193.631, 106.603 197, 104.383 197 C 103.337 197, 103 198.707, 103 204 L 103 211 106.455 211 C 109.611 211, 109.966 210.698, 110.566 207.500 C 110.942 205.495, 111.816 204, 112.611 204 C 113.722 204, 114 201.499, 114 191.500 C 114 181.056, 114.247 179, 115.500 179 C 116.714 179, 117.031 177.233, 117.162 169.750 C 117.473 152.031, 117.702 150, 119.383 150 C 121.138 150, 121.885 146.160, 121.241 140.448 C 120.919 137.593, 120.249 136, 119.370 136 C 118.438 136, 118 134.720, 118 132 C 118 128.095, 118.083 128, 121.500 128 C 124.833 128, 125 127.833, 125 124.500 L 125 121 119.500 121 L 114 121 114 114 C 114 108.795, 113.654 107, 112.652 107 C 111.066 107, 110 93.268, 110 72.844 C 110 62.094, 109.755 60, 108.500 60 C 107.667 60, 107 59.111, 107 58 C 107 56.667, 106.333 56, 105 56 C 103.667 56, 103 56.667, 103 58 M 160.753 67.211 C 160.468 71.196, 159.737 74.588, 159.118 74.794 C 157.605 75.298, 157.697 77.733, 159.250 78.249 C 160.170 78.554, 160.500 82.336, 160.500 92.582 L 160.500 106.500 146.250 106.777 C 135.059 106.995, 132 107.346, 132 108.411 C 132 109.157, 131.100 110.002, 130 110.290 C 128.528 110.675, 128 111.654, 128 114 C 128 116.346, 128.528 117.325, 130 117.710 C 131.107 118, 132 119.074, 132 120.117 C 132 121.152, 132.639 122, 133.421 122 C 134.202 122, 135.138 123.350, 135.500 125 C 136.620 130.099, 139 128.739, 139 123 L 139 118 143.375 118 C 149.741 118, 154 116.948, 154 115.375 C 154 114.619, 154.675 114, 155.500 114 C 156.325 114, 157 114.623, 157 115.383 C 157 116.144, 157.884 116.998, 158.965 117.281 C 160.713 117.738, 160.862 118.386, 160.312 123.147 C 159.972 126.091, 159.201 128.821, 158.597 129.213 C 157.993 129.606, 157.342 133.762, 157.147 138.463 C 156.898 144.507, 156.424 147, 155.526 147 C 154.759 147, 153.996 148.976, 153.594 152 C 153.140 155.424, 152.469 157, 151.466 157 C 150.356 157, 150 158.335, 150 162.500 C 150 167.333, 149.758 168, 148 168 C 146.381 168, 146 168.667, 146 171.500 C 146 174.333, 146.381 175, 148 175 C 149.333 175, 150 175.667, 150 177 C 150 178.758, 150.667 179, 155.500 179 C 159.526 179, 161 179.372, 161 180.389 C 161 181.184, 162.495 182.058, 164.500 182.434 C 166.595 182.827, 168 183.675, 168 184.545 C 168 185.680, 169.541 186, 175 186 L 182 186 182 189.500 C 182 191.944, 181.548 193, 180.500 193 C 179.667 193, 179 193.889, 179 195 C 179 196.333, 178.333 197, 177 197 C 175.630 197, 175 197.667, 175 199.117 C 175 200.824, 174.565 201.117, 172.750 200.630 C 171.512 200.299, 169.938 200.021, 169.250 200.014 C 168.563 200.006, 168 199.325, 168 198.500 C 168 197.667, 167.111 197, 166 197 C 164.381 197, 164 197.667, 164 200.500 C 164 203.333, 164.381 204, 166 204 C 167.333 204, 168 204.667, 168 206 C 168 207.593, 168.662 207.997, 171.250 207.986 C 176 207.966, 179 206.959, 179 205.383 C 179 204.623, 179.900 204, 181 204 C 182.333 204, 183 203.333, 183 202 C 183 200.889, 183.667 200, 184.500 200 C 185.325 200, 186 199.325, 186 198.500 C 186 197.675, 186.623 197, 187.383 197 C 188.144 197, 189.002 196.100, 189.290 195 C 189.726 193.333, 190.654 193, 194.857 193 C 198.484 193, 200.157 193.459, 200.815 194.634 C 201.406 195.690, 203.544 196.442, 206.865 196.761 C 210.028 197.065, 212 197.732, 212 198.498 C 212 199.236, 214.035 200.012, 217 200.406 C 220.424 200.860, 222 201.531, 222 202.534 C 222 203.543, 223.092 204, 225.500 204 C 227.813 204, 229 204.469, 229 205.383 C 229 207.241, 232.152 207.970, 240.250 207.986 L 247 208 247 203.908 L 247 199.816 242.250 200.072 C 234.939 200.466, 233 200.137, 233 198.500 C 233 197.477, 231.966 196.996, 229.750 196.986 C 225 196.966, 222 195.959, 222 194.383 C 222 193.623, 221.100 193, 220 193 C 218.889 193, 218 192.333, 218 191.500 C 218 190.534, 217.022 189.995, 215.250 189.986 C 210.968 189.965, 208 188.899, 208 187.383 C 208 186.373, 206.516 186, 202.500 186 L 197 186 197 180.500 C 197 176.278, 197.348 175, 198.500 175 C 199.412 175, 200 174.069, 200 172.625 C 200 168.120, 201.254 164, 202.625 164 C 203.661 164, 204 162.273, 204 157 C 204 150.667, 204.190 150, 206 150 C 207.810 150, 208 149.333, 208 143 C 208 137.444, 208.310 136, 209.500 136 C 210.700 136, 211 134.500, 211 128.500 C 211 121.667, 211.178 121, 213 121 C 214.111 121, 215 120.333, 215 119.500 C 215 118.232, 217.373 118, 230.353 118 C 249.564 118, 258 117.194, 258 115.358 C 258 114.473, 259.219 114, 261.500 114 C 264.333 114, 265 114.381, 265 116 C 265 117.605, 265.667 118, 268.375 118 C 271.355 118, 271.823 117.634, 272.375 114.875 C 272.719 113.156, 273 110.681, 273 109.375 L 273 107 258.500 107 C 246.278 107, 244 107.236, 244 108.500 C 244 109.770, 241.569 110, 228.117 110 C 209.519 110, 211.027 111.235, 211.027 96 C 211.027 85.237, 211.626 82, 213.617 82 C 214.627 82, 215 80.516, 215 76.500 C 215 72.484, 214.627 71, 213.617 71 C 212.856 71, 211.998 70.100, 211.710 69 C 211.310 67.468, 210.346 67, 207.594 67 C 204.153 67, 204 67.149, 204 70.500 C 204 72.944, 203.548 74, 202.500 74 C 201.333 74, 201 75.333, 201 80 C 201 84.667, 201.333 86, 202.500 86 C 203.690 86, 204 87.444, 204 93 C 204 98.556, 203.690 100, 202.500 100 C 201.534 100, 200.995 100.978, 200.986 102.750 C 200.954 109.183, 200.210 110, 194.383 110 C 190.265 110, 189 109.648, 189 108.500 C 189 107.262, 187.167 107, 178.500 107 L 168 107 168 94.500 C 168 84.292, 168.264 82, 169.439 82 C 170.377 82, 171.112 80.435, 171.552 77.500 C 172.461 71.438, 171.297 64, 169.439 64 C 168.647 64, 168 63.100, 168 62 C 168 60.396, 167.333 60, 164.634 60 L 161.269 60 160.753 67.211 M 182.750 117.748 L 168 118.053 168 127.027 C 168 133.928, 167.686 136, 166.639 136 C 165.249 136, 164.026 142.622, 164.009 150.250 C 164.003 152.913, 163.565 154, 162.500 154 C 161.365 154, 161 155.226, 161 159.031 C 161 162.581, 160.558 164.232, 159.500 164.638 C 156.780 165.682, 157.814 168, 161 168 C 163.078 168, 164 168.490, 164 169.594 C 164 170.470, 164.900 171.423, 166 171.710 C 167.100 171.998, 168 172.856, 168 173.617 C 168 174.531, 169.187 175, 171.500 175 C 173.813 175, 175 175.469, 175 176.383 C 175 178.096, 178.073 178.969, 184.162 178.986 L 188.824 179 189.500 175 C 189.915 172.541, 190.720 171, 191.588 171 C 192.661 171, 193 169.418, 193 164.406 C 193 158.654, 193.255 157.746, 195 157.290 C 196.688 156.848, 197 155.926, 197 151.383 C 197 147.474, 197.378 146, 198.379 146 C 199.448 146, 199.921 142.971, 200.478 132.565 C 201.198 119.133, 200.927 116.806, 198.691 117.221 C 198.036 117.343, 190.863 117.580, 182.750 117.748" stroke="none" fill="black" fill-rule="evenodd"/>
</svg>