<svg xmlns="http://www.w3.org/2000/svg" width="300" height="300" viewBox="0 0 300 300" version="1.1">
	<path d="M 167 11.500 C 167 12.333, 166.111 13, 165 13 C 163.667 13, 163 13.667, 163 15 C 163 16.100, 162.375 17, 161.611 17 C 160.816 17, 159.942 18.495, 159.566 20.500 C 159.173 22.595, 158.325 24, 157.455 24 C 156.459 24, 156 25.104, 156 27.500 C 156 30.810, 155.817 31, 152.617 31 C 150.074 31, 149.103 31.497, 148.710 33 C 148.249 34.763, 147.346 35, 141.094 35 C 135.455 35, 134 35.308, 134 36.500 C 134 37.548, 132.944 38, 130.500 38 C 127.667 38, 127 38.381, 127 40 C 127 41.111, 126.333 42, 125.500 42 C 124.452 42, 124 43.056, 124 45.500 C 124 48.648, 124.276 49.001, 126.750 49.014 C 128.262 49.021, 130.512 49.299, 131.750 49.630 C 133.565 50.117, 134 49.824, 134 48.117 C 134 46.354, 134.601 46, 137.594 46 C 140.346 46, 141.310 45.532, 141.710 44 C 142.143 42.344, 143.074 42, 147.117 42 L 152 42 152 45.500 C 152 47.944, 151.548 49, 150.500 49 C 149.462 49, 149 50.043, 149 52.383 C 149 54.926, 148.503 55.897, 147 56.290 C 145.330 56.726, 145 57.654, 145 61.906 C 145 65.626, 144.619 67, 143.588 67 C 142.720 67, 141.915 68.541, 141.500 71 C 141.085 73.459, 140.280 75, 139.412 75 C 138.465 75, 138 76.152, 138 78.500 C 138 80.896, 137.541 82, 136.545 82 C 135.675 82, 134.827 83.405, 134.434 85.500 C 134.058 87.505, 133.184 89, 132.389 89 C 131.544 89, 130.995 90.077, 130.986 91.750 C 130.965 96.032, 129.899 99, 128.383 99 C 127.436 99, 127 100.261, 127 103 C 127 106.333, 126.667 107, 125 107 C 123.889 107, 123 107.667, 123 108.500 C 123 109.751, 120.968 110.001, 110.750 110.009 C 95.140 110.020, 88 110.845, 88 112.639 C 88 113.685, 85.942 114, 79.117 114 C 71.074 114, 70.184 114.189, 69.710 116 C 69.423 117.100, 68.470 118, 67.594 118 C 66.348 118, 66 119.092, 66 123 L 66 128 71.500 128 C 75.722 128, 77 127.652, 77 126.500 C 77 125.675, 77.653 125, 78.450 125 C 79.248 125, 80.341 124.213, 80.879 123.250 C 81.687 121.804, 83.604 121.440, 91.928 121.156 C 99.753 120.889, 102 120.499, 102 119.406 C 102 118.322, 103.731 118, 109.564 118 L 117.128 118 116.814 121.250 C 116.515 124.349, 116.674 124.514, 120.250 124.810 C 123.470 125.077, 124 124.830, 124 123.060 C 124 121.372, 124.632 121, 127.500 121 C 129.944 121, 131 120.548, 131 119.500 C 131 118.363, 132.233 118, 136.094 118 C 140.346 118, 141.274 117.670, 141.710 116 C 142.191 114.162, 143.074 114, 152.617 114 C 161.180 114, 163 113.737, 163 112.500 C 163 111.348, 164.278 111, 168.500 111 C 172.722 111, 174 111.348, 174 112.500 C 174 113.690, 175.444 114, 181 114 C 186.556 114, 188 113.690, 188 112.500 C 188 111.298, 189.513 111, 195.617 111 C 203.027 111, 203.217 111.061, 202.630 113.250 C 202.299 114.487, 202.021 115.838, 202.014 116.250 C 202.006 116.662, 201.325 117, 200.500 117 C 199.417 117, 199 118.111, 199 121 C 199 123.750, 199.435 125, 200.392 125 C 201.157 125, 202.031 126.013, 202.333 127.250 C 202.636 128.488, 202.916 162.462, 202.955 202.750 C 203.016 264.830, 202.814 276, 201.630 276 C 200.862 276, 199.998 276.900, 199.710 278 C 199.298 279.576, 198.346 280, 195.219 280 C 189.234 280, 185 278.912, 185 277.375 C 185 276.375, 183.500 276, 179.500 276 C 175.430 276, 174 275.633, 174 274.588 C 174 273.720, 172.459 272.915, 170 272.500 C 167.541 272.085, 166 271.280, 166 270.412 C 166 269.500, 164.904 269, 162.906 269 C 160.654 269, 159.671 268.456, 159.290 267 C 158.897 265.497, 157.926 265, 155.383 265 C 153.089 265, 152 264.532, 152 263.545 C 152 262.675, 150.595 261.827, 148.500 261.434 C 146.495 261.058, 145 260.184, 145 259.389 C 145 258.625, 144.325 258, 143.500 258 C 142.675 258, 142 257.283, 142 256.406 C 142 255.530, 141.100 254.577, 140 254.290 C 138.900 254.002, 138 253.197, 138 252.500 C 138 251.803, 137.100 250.998, 136 250.710 C 134.900 250.423, 134 249.470, 134 248.594 C 134 247.717, 133.325 247, 132.500 247 C 131.667 247, 131 246.111, 131 245 C 131 243.667, 130.333 243, 129 243 C 127.444 243, 127 242.333, 127 240 C 127 238, 126.500 237, 125.500 237 C 124.500 237, 124 238, 124 240 C 124 242, 124.500 243, 125.500 243 C 126.325 243, 127 243.848, 127 244.883 C 127 245.926, 127.893 247, 129 247.290 C 130.456 247.671, 131 248.654, 131 250.906 C 131 252.990, 131.490 254, 132.500 254 C 133.333 254, 134 254.889, 134 256 C 134 257.333, 134.667 258, 136 258 C 137.333 258, 138 258.667, 138 260 C 138 261.333, 138.667 262, 140 262 C 141.111 262, 142 262.667, 142 263.500 C 142 264.325, 142.675 265, 143.500 265 C 144.333 265, 145 265.889, 145 267 C 145 268.333, 145.667 269, 147 269 C 148.111 269, 149 269.667, 149 270.500 C 149 271.548, 150.056 272, 152.500 272 C 155.333 272, 156 272.381, 156 274 C 156 275.619, 156.667 276, 159.500 276 C 161.848 276, 163 276.465, 163 277.412 C 163 278.280, 164.541 279.085, 167 279.500 C 169.235 279.878, 171 280.741, 171 281.458 C 171 282.244, 172.824 282.945, 175.717 283.272 C 178.312 283.564, 180.594 284.283, 180.790 284.870 C 180.986 285.457, 182.688 286.226, 184.573 286.580 C 186.522 286.945, 188 287.822, 188 288.611 C 188 289.693, 189.987 290, 197 290 C 204.333 290, 206 289.722, 206 288.500 C 206 287.667, 206.889 287, 208 287 C 209.982 287, 210 286.333, 210 213.617 C 210 141.074, 210.023 140.227, 212 139.710 C 213.763 139.249, 214 138.346, 214 132.094 C 214 125.667, 214.188 125, 216 125 C 217.100 125, 218 124.377, 218 123.617 C 218 122.101, 220.968 121.035, 225.250 121.014 C 226.918 121.005, 228 120.456, 228 119.617 C 228 118.856, 228.900 117.998, 230 117.710 C 231.456 117.329, 232 116.346, 232 114.094 C 232 112.010, 232.490 111, 233.500 111 C 234.583 111, 235 109.889, 235 107 L 235 103 222.500 103 L 210 103 210 97.500 C 210 93.415, 209.635 92, 208.579 92 C 207.798 92, 206.866 90.664, 206.507 89.032 C 205.980 86.634, 205.196 85.940, 202.428 85.420 C 200.542 85.067, 199 84.173, 199 83.434 C 199 82.690, 197.437 81.797, 195.500 81.434 C 193.495 81.058, 192 80.184, 192 79.389 C 192 78.625, 191.100 78, 190 78 C 188.900 78, 188 77.345, 188 76.545 C 188 75.675, 186.595 74.827, 184.500 74.434 C 182.575 74.073, 181 73.203, 181 72.500 C 181 71.797, 179.425 70.927, 177.500 70.566 C 175.405 70.173, 174 69.325, 174 68.455 C 174 67.655, 173.325 67, 172.500 67 C 171.675 67, 171 66.283, 171 65.406 C 171 64.530, 170.100 63.577, 169 63.290 C 167.900 63.002, 167 62.144, 167 61.383 C 167 60.623, 166.100 60, 165 60 C 163.889 60, 163 59.333, 163 58.500 C 163 57.452, 161.944 57, 159.500 57 C 156.667 57, 156 56.619, 156 55 C 156 53.900, 156.655 53, 157.455 53 C 158.325 53, 159.173 51.595, 159.566 49.500 C 159.927 47.575, 160.797 46, 161.500 46 C 162.203 46, 163.070 44.442, 163.427 42.538 C 163.985 39.564, 164.564 38.985, 167.538 38.427 C 169.514 38.056, 171 37.181, 171 36.389 C 171 35.270, 173.712 35, 184.941 35 C 192.609 35, 199.057 34.663, 199.272 34.250 C 199.486 33.837, 199.467 31.363, 199.230 28.750 L 198.799 24 193.899 24 C 190.211 24, 189 24.371, 189 25.500 C 189 26.535, 187.961 27, 185.651 27 C 183.809 27, 178.859 27.291, 174.651 27.647 C 167.292 28.269, 167 28.212, 167 26.147 C 167 24.966, 167.623 24, 168.383 24 C 169.144 24, 170.002 23.100, 170.290 22 C 170.577 20.900, 171.530 20, 172.406 20 C 173.561 20, 174 19.036, 174 16.500 C 174 13.667, 173.619 13, 172 13 C 170.889 13, 170 12.333, 170 11.500 C 170 10.675, 169.325 10, 168.500 10 C 167.675 10, 167 10.675, 167 11.500 M 152.667 63.667 C 152.300 64.033, 152 65.608, 152 67.167 C 152 69.019, 151.480 70, 150.500 70 C 149.417 70, 149 71.111, 149 74 C 149 77.333, 148.667 78, 147 78 C 145.381 78, 145 78.667, 145 81.500 C 145 83.944, 144.548 85, 143.500 85 C 142.588 85, 142 85.931, 142 87.375 C 142 91.880, 140.746 96, 139.375 96 C 138.619 96, 138 96.900, 138 98 C 138 99.100, 137.377 100, 136.617 100 C 135.250 100, 133.746 104.780, 134.651 106.244 C 135.842 108.171, 145 106.524, 145 104.383 C 145 103.237, 149.976 103, 174 103 L 203 103 203 99.500 C 203 97.187, 202.531 96, 201.617 96 C 200.856 96, 199.998 95.100, 199.710 94 C 199.310 92.468, 198.346 92, 195.594 92 C 193.066 92, 192 91.555, 192 90.500 C 192 89.667, 191.111 89, 190 89 C 188.667 89, 188 88.333, 188 87 C 188 85.381, 187.333 85, 184.500 85 C 182.180 85, 181 84.532, 181 83.611 C 181 82.816, 179.505 81.942, 177.500 81.566 C 175.405 81.173, 174 80.325, 174 79.455 C 174 78.468, 172.911 78, 170.617 78 C 168.074 78, 167.103 77.503, 166.710 76 C 166.423 74.900, 165.470 74, 164.594 74 C 163.717 74, 163 73.325, 163 72.500 C 163 71.675, 162.325 71, 161.500 71 C 160.675 71, 160 70.283, 160 69.406 C 160 68.530, 159.100 67.577, 158 67.290 C 156.893 67, 156 65.926, 156 64.883 C 156 63.051, 154.009 62.324, 152.667 63.667 M 210 114.639 L 210 118.279 215.136 117.670 C 217.960 117.336, 220.457 116.876, 220.684 116.649 C 220.911 116.422, 220.802 115.058, 220.440 113.618 C 219.844 111.240, 219.334 111, 214.892 111 L 210 111 210 114.639 M 131 159 C 131 182.333, 131.204 186, 132.500 186 C 133.652 186, 134 187.278, 134 191.500 L 134 197 141.094 197 C 147.346 197, 148.249 196.763, 148.710 195 C 149.103 193.497, 150.074 193, 152.617 193 C 154.957 193, 156 192.538, 156 191.500 C 156 190.667, 156.889 190, 158 190 C 159.333 190, 160 189.333, 160 188 C 160 186.273, 160.667 186, 164.883 186 C 168.926 186, 169.857 185.656, 170.290 184 C 170.671 182.544, 171.654 182, 173.906 182 C 175.990 182, 177 181.510, 177 180.500 C 177 179.417, 178.111 179, 181 179 C 184.333 179, 185 178.667, 185 177 C 185 175.381, 185.667 175, 188.500 175 C 191.333 175, 192 174.619, 192 173 C 192 171.889, 192.667 171, 193.500 171 C 194.325 171, 195 170.325, 195 169.500 C 195 168.367, 193.778 168, 190 168 C 186.361 168, 185 168.384, 185 169.412 C 185 170.280, 183.459 171.085, 181 171.500 C 178.541 171.915, 177 172.720, 177 173.588 C 177 174.490, 175.917 175, 174 175 C 172 175, 171 174.500, 171 173.500 C 171 172.675, 171.675 172, 172.500 172 C 173.538 172, 174 170.957, 174 168.617 C 174 166.074, 174.497 165.103, 176 164.710 C 177.197 164.397, 178 163.346, 178 162.094 C 178 160.899, 178.644 160, 179.500 160 C 180.678 160, 181 158.616, 181 153.545 L 181 147.091 177.500 146.434 C 175.495 146.058, 174 145.184, 174 144.389 C 174 143.372, 172.526 143, 168.500 143 C 164.278 143, 163 143.348, 163 144.500 C 163 145.621, 161.799 146.003, 158.250 146.014 C 152.077 146.031, 149 146.897, 149 148.617 C 149 149.531, 147.813 150, 145.500 150 C 143.056 150, 142 150.452, 142 151.500 C 142 152.333, 141.111 153, 140 153 C 138.267 153, 138 152.333, 138 148 C 138 143.667, 138.267 143, 140 143 C 141.333 143, 142 142.333, 142 141 C 142 139.190, 142.667 139, 149 139 C 154.556 139, 156 138.690, 156 137.500 C 156 136.425, 154.903 136, 152.125 136 C 146.228 136, 142 134.904, 142 133.375 C 142 132.375, 140.500 132, 136.500 132 L 131 132 131 159 M 156 155.500 C 156 156.325, 155.283 157, 154.406 157 C 153.530 157, 152.577 157.900, 152.290 159 C 152 160.107, 150.926 161, 149.883 161 C 148.848 161, 148 161.639, 148 162.421 C 148 163.202, 146.650 164.138, 145 164.500 L 142 165.159 142 175.579 L 142 186 144.883 186 C 146.926 186, 147.919 185.417, 148.290 184 C 148.603 182.803, 149.654 182, 150.906 182 C 152.058 182, 153 181.361, 153 180.579 C 153 179.798, 154.321 178.869, 155.935 178.514 C 158.139 178.030, 159.030 177.139, 159.514 174.935 C 159.869 173.321, 160.798 172, 161.579 172 C 162.361 172, 163 171.100, 163 170 C 163 168.667, 163.667 168, 165 168 C 166.333 168, 167 167.333, 167 166 C 167 164.889, 167.667 164, 168.500 164 C 169.633 164, 170 162.778, 170 159 L 170 154 163 154 C 157.444 154, 156 154.310, 156 155.500" stroke="none" fill="black" fill-rule="evenodd"/>
</svg>