<svg xmlns="http://www.w3.org/2000/svg" width="300" height="300" viewBox="0 0 300 300" version="1.1">
	<path d="M 170 54.500 C 170 55.325, 169.325 56, 168.500 56 C 167.477 56, 166.996 57.034, 166.986 59.250 C 166.966 64, 165.959 67, 164.383 67 C 163.340 67, 163 68.688, 163 73.875 L 163 80.750 159.875 81.375 C 158.156 81.719, 155.681 82, 154.375 82 C 152.977 82, 152 82.591, 152 83.437 C 152 84.327, 150.763 84.993, 148.750 85.187 C 145.892 85.462, 145.462 85.892, 145.187 88.750 C 144.993 90.763, 144.327 92, 143.437 92 C 142.362 92, 142 93.386, 142 97.500 C 142 102.333, 142.242 103, 144 103 C 145.111 103, 146 102.333, 146 101.500 C 146 100.675, 146.675 100, 147.500 100 C 148.333 100, 149 99.111, 149 98 C 149 96.900, 149.623 96, 150.383 96 C 151.144 96, 152.002 95.100, 152.290 94 C 152.834 91.920, 156.117 91.389, 160.750 92.630 C 163.253 93.301, 163.854 96, 161.500 96 C 160.286 96, 160 97.595, 160 104.353 C 160 116.915, 158.965 125, 157.358 125 C 156.346 125, 156 126.753, 156 131.883 C 156 137.926, 155.756 138.831, 154 139.290 C 152.468 139.690, 152 140.654, 152 143.406 C 152 145.934, 151.555 147, 150.500 147 C 149.452 147, 149 148.056, 149 150.500 C 149 152.857, 148.536 154, 147.579 154 C 146.798 154, 145.866 155.336, 145.507 156.968 C 144.980 159.366, 144.196 160.060, 141.428 160.580 C 139.478 160.945, 138 161.822, 138 162.611 C 138 163.375, 137.325 164, 136.500 164 C 135.462 164, 135 165.043, 135 167.383 C 135 170.047, 135.479 170.895, 137.250 171.370 C 141.007 172.376, 142 172.090, 142 170 C 142 168.242, 142.667 168, 147.500 168 C 151.516 168, 153 167.627, 153 166.617 C 153 165.101, 155.968 164.035, 160.250 164.014 C 162.022 164.005, 163 163.466, 163 162.500 C 163 161.477, 164.034 160.996, 166.250 160.986 C 171 160.966, 174 159.959, 174 158.383 C 174 156.916, 181.331 156.446, 185.750 157.630 C 188.204 158.288, 188.838 160, 186.627 160 C 185.706 160, 185.092 161.688, 184.761 165.135 C 184.442 168.456, 183.690 170.594, 182.634 171.185 C 181.614 171.756, 181 173.397, 181 175.550 C 181 177.902, 180.537 179, 179.545 179 C 178.675 179, 177.827 180.405, 177.434 182.500 C 177.058 184.505, 176.184 186, 175.389 186 C 174.477 186, 174 187.163, 174 189.383 C 174 191.926, 173.503 192.897, 172 193.290 C 170.544 193.671, 170 194.654, 170 196.906 C 170 199.775, 169.746 200, 166.500 200 C 164.056 200, 163 199.548, 163 198.500 C 163 197.452, 161.944 197, 159.500 197 C 156.667 197, 156 196.619, 156 195 C 156 193.667, 155.333 193, 154 193 C 152.900 193, 152 192.345, 152 191.545 C 152 190.675, 150.595 189.827, 148.500 189.434 C 146.495 189.058, 145 188.184, 145 187.389 C 145 186.468, 143.820 186, 141.500 186 C 138.667 186, 138 186.381, 138 188 C 138 189.111, 137.333 190, 136.500 190 C 135.675 190, 135 190.675, 135 191.500 C 135 192.325, 135.675 193, 136.500 193 C 137.333 193, 138 193.889, 138 195 C 138 196.333, 138.667 197, 140 197 C 141.111 197, 142 197.667, 142 198.500 C 142 199.325, 142.675 200, 143.500 200 C 144.333 200, 145 200.889, 145 202 C 145 203.606, 145.667 204, 148.383 204 C 150.926 204, 151.897 204.497, 152.290 206 C 152.671 207.456, 153.654 208, 155.906 208 C 157.990 208, 159 208.490, 159 209.500 C 159 210.333, 159.889 211, 161 211 C 162.333 211, 163 211.667, 163 213 C 163 214.111, 162.333 215, 161.500 215 C 160.675 215, 160 215.675, 160 216.500 C 160 217.333, 159.111 218, 158 218 C 156.381 218, 156 218.667, 156 221.500 C 156 224.036, 155.561 225, 154.406 225 C 153.530 225, 152.577 225.900, 152.290 227 C 152.002 228.100, 151.144 229, 150.383 229 C 149.623 229, 149 229.900, 149 231 C 149 232.333, 148.333 233, 147 233 C 145.667 233, 145 233.667, 145 235 C 145 236.111, 144.333 237, 143.500 237 C 142.675 237, 142 237.675, 142 238.500 C 142 239.333, 141.111 240, 140 240 C 138.333 240, 138 240.667, 138 244 C 138 246.541, 138.456 247.995, 139.250 247.986 C 142.068 247.956, 145 246.688, 145 245.500 C 145 244.803, 145.900 243.998, 147 243.710 C 148.100 243.423, 149 242.470, 149 241.594 C 149 240.717, 149.675 240, 150.500 240 C 151.325 240, 152 239.283, 152 238.406 C 152 237.530, 152.900 236.577, 154 236.290 C 155.107 236, 156 234.926, 156 233.883 C 156 232.848, 156.639 232, 157.421 232 C 158.202 232, 159.138 230.650, 159.500 229 C 159.862 227.350, 160.798 226, 161.579 226 C 162.361 226, 163 225.100, 163 224 C 163 222.667, 163.667 222, 165 222 C 166.377 222, 167 221.333, 167 219.861 C 167 217.867, 167.356 217.764, 172.250 218.352 C 175.137 218.699, 178.512 218.987, 179.750 218.991 C 181.079 218.996, 182 219.614, 182 220.500 C 182 221.693, 183.456 222, 189.107 222 C 194.763 222, 196.105 222.284, 195.681 223.390 C 195.062 225.002, 198.865 226, 205.625 226 C 208.847 226, 210 226.395, 210 227.500 C 210 228.689, 211.439 229, 216.950 229 C 222.446 229, 224.099 229.355, 224.850 230.696 C 225.549 231.945, 227.538 232.503, 232.400 232.813 C 237.150 233.115, 239 233.621, 239 234.616 C 239 235.531, 240.187 236, 242.500 236 C 245.333 236, 246 236.381, 246 238 C 246 239.606, 246.667 240, 249.383 240 C 251.926 240, 252.897 240.497, 253.290 242 C 253.577 243.100, 254.347 244, 255 244 C 255.653 244, 256.423 243.100, 256.710 242 C 256.998 240.900, 257.856 240, 258.617 240 C 259.377 240, 260 239.325, 260 238.500 C 260 237.675, 259.325 237, 258.500 237 C 257.675 237, 257 236.150, 257 235.111 C 257 233.745, 256.033 233.041, 253.500 232.566 C 251.405 232.173, 250 231.325, 250 230.455 C 250 229.459, 248.896 229, 246.500 229 C 244.152 229, 243 228.535, 243 227.588 C 243 226.720, 241.459 225.915, 239 225.500 C 236.541 225.085, 235 224.280, 235 223.412 C 235 222.330, 233.362 222, 228 222 C 222.727 222, 221 221.661, 221 220.625 C 221 219.052, 216.741 218, 210.375 218 C 207.153 218, 206 217.605, 206 216.500 C 206 215.369, 204.783 215, 201.050 215 C 197.544 215, 195.837 214.531, 195.201 213.394 C 194.660 212.428, 192.449 211.580, 189.651 211.264 C 186.857 210.949, 185 210.237, 185 209.481 C 185 208.789, 183.425 207.927, 181.500 207.566 C 178.302 206.966, 178 206.611, 178 203.455 C 178 201.051, 178.456 200, 179.500 200 C 180.548 200, 181 198.944, 181 196.500 C 181 194.104, 181.459 193, 182.455 193 C 183.325 193, 184.173 191.595, 184.566 189.500 C 184.942 187.495, 185.816 186, 186.611 186 C 187.539 186, 188 184.806, 188 182.406 C 188 179.654, 188.468 178.690, 190 178.290 C 191.656 177.857, 192 176.926, 192 172.883 C 192 168.667, 192.273 168, 194 168 C 195.619 168, 196 167.333, 196 164.500 C 196 162.056, 196.452 161, 197.500 161 C 198.722 161, 199 159.333, 199 152 L 199 143 195.500 143 C 193.056 143, 192 143.452, 192 144.500 C 192 145.692, 190.545 146, 184.906 146 C 178.654 146, 177.751 146.237, 177.290 148 C 176.831 149.756, 175.926 150, 169.883 150 C 164.431 150, 163 150.312, 163 151.500 C 163 153.804, 160.306 153.279, 159.671 150.851 C 158.853 147.723, 160.028 143, 161.625 143 C 162.582 143, 163 141.670, 163 138.625 C 163 132.259, 164.052 128, 165.625 128 C 166.690 128, 167 125.970, 167 119 C 167 111.667, 167.278 110, 168.500 110 C 169.524 110, 170.003 108.968, 170.009 106.750 C 170.028 99.574, 171.286 93, 172.639 93 C 173.388 93, 174 92.100, 174 91 C 174 89.103, 174.667 89, 186.929 89 C 201.710 89, 203 88.432, 203 81.929 L 203 78 197.500 78 C 192.667 78, 192 77.758, 192 76 C 192 74.667, 191.333 74, 190 74 C 188.889 74, 188 73.333, 188 72.500 C 188 71.675, 187.325 71, 186.500 71 C 185.452 71, 185 69.944, 185 67.500 C 185 64.964, 184.561 64, 183.406 64 C 182.530 64, 181.577 63.100, 181.290 62 C 181.002 60.900, 180.144 60, 179.383 60 C 178.469 60, 178 58.813, 178 56.500 C 178 53.083, 177.905 53, 174 53 C 171.111 53, 170 53.417, 170 54.500 M 81 65.500 C 81 66.325, 80.150 67, 79.111 67 C 77.755 67, 77.043 67.959, 76.584 70.403 C 76.233 72.275, 75.283 74.061, 74.473 74.372 C 73.273 74.833, 73 77.534, 73 88.969 L 73 103 68.117 103 C 64.074 103, 63.143 103.344, 62.710 105 C 62.423 106.100, 61.470 107, 60.594 107 C 59.353 107, 59 108.082, 59 111.883 C 59 117.155, 59.950 117.955, 66.250 117.986 C 68.338 117.997, 69 117.518, 69 116 C 69 114.397, 69.667 114, 72.361 114 C 75.637 114, 75.736 114.123, 76.299 118.878 C 76.985 124.673, 76.287 128, 74.383 128 C 73.436 128, 73 129.261, 73 132 C 73 134.722, 72.562 136, 71.629 136 C 70.739 136, 70.025 137.754, 69.594 141 C 69.140 144.424, 68.469 146, 67.466 146 C 66.467 146, 66 147.078, 66 149.383 C 66 151.926, 65.503 152.897, 64 153.290 C 62.544 153.671, 62 154.654, 62 156.906 C 62 158.990, 61.510 160, 60.500 160 C 59.675 160, 59 160.878, 59 161.950 C 59 163.023, 58.277 164.305, 57.394 164.799 C 56.435 165.336, 55.581 167.537, 55.274 170.264 C 54.894 173.628, 54.265 174.959, 52.880 175.321 C 51.846 175.592, 51 176.530, 51 177.406 C 51 178.283, 50.325 179, 49.500 179 C 48.452 179, 48 180.056, 48 182.500 C 48 185.333, 47.619 186, 46 186 C 44.381 186, 44 186.667, 44 189.500 C 44 191.944, 43.548 193, 42.500 193 C 41.667 193, 41 193.889, 41 195 C 41 196.111, 41.667 197, 42.500 197 C 43.325 197, 44 197.675, 44 198.500 C 44 199.333, 44.889 200, 46 200 C 47.100 200, 48 199.377, 48 198.617 C 48 197.856, 48.900 196.998, 50 196.710 C 51.456 196.329, 52 195.346, 52 193.094 C 52 191.010, 52.490 190, 53.500 190 C 54.538 190, 55 188.957, 55 186.617 C 55 184.074, 55.497 183.103, 57 182.710 C 58.197 182.397, 59 181.346, 59 180.094 C 59 178.899, 59.644 178, 60.500 178 C 61.510 178, 62 176.990, 62 174.906 C 62 172.654, 62.544 171.671, 64 171.290 C 65.503 170.897, 66 169.926, 66 167.383 C 66 165.089, 66.468 164, 67.455 164 C 68.325 164, 69.173 162.595, 69.566 160.500 C 69.927 158.575, 70.797 157, 71.500 157 C 72.203 157, 73.073 155.425, 73.434 153.500 C 73.827 151.405, 74.675 150, 75.545 150 C 76.345 150, 77 149.325, 77 148.500 C 77 147.675, 77.675 147, 78.500 147 C 79.732 147, 80 148.761, 80 156.853 C 80 170.828, 80.975 179, 82.642 179 C 83.752 179, 84 183.926, 84 206 C 84 226.941, 84.281 232.997, 85.250 232.986 C 88.160 232.955, 91 231.669, 91 230.383 C 91 229.623, 91.655 229, 92.455 229 C 94.556 229, 95.286 223.610, 94.836 211.437 C 94.574 204.375, 94.027 200.635, 93.180 200.111 C 92.291 199.562, 91.731 194.662, 91.302 183.664 L 90.690 168 108.845 168 C 126.333 168, 127 167.927, 127 166 C 127 164.889, 126.333 164, 125.500 164 C 124.675 164, 124 163.325, 124 162.500 C 124 161.258, 122.111 161, 113 161 C 104.301 161, 102 160.711, 102 159.617 C 102 158.101, 99.032 157.035, 94.750 157.014 C 92.906 157.004, 92 156.475, 92 155.406 C 92 154.530, 91.141 153.588, 90.091 153.313 C 88.403 152.872, 88.138 151.638, 87.809 142.657 C 87.604 137.071, 87.616 131.713, 87.835 130.750 C 88.321 128.616, 91 128.405, 91 130.500 C 91 131.333, 91.889 132, 93 132 C 94.667 132, 95 131.333, 95 128 C 95 125.248, 94.566 124, 93.607 124 C 92.841 124, 91.955 123.325, 91.638 122.500 C 91.277 121.559, 89.748 121, 87.531 121 L 84 121 84 116.117 C 84 110.762, 84.914 110.042, 91.750 110.014 C 93.966 110.004, 95 109.523, 95 108.500 C 95 107.236, 97.278 107, 109.500 107 C 121.722 107, 124 106.764, 124 105.500 C 124 104.675, 124.675 104, 125.500 104 C 126.583 104, 127 102.889, 127 100 L 127 96 116.500 96 C 107.833 96, 106 96.262, 106 97.500 C 106 98.625, 104.689 99.034, 100.750 99.137 C 97.862 99.212, 92.912 99.390, 89.750 99.532 L 84 99.791 84 88.896 C 84 80.286, 84.290 78, 85.383 78 C 86.959 78, 87.966 75, 87.986 70.250 C 87.997 67.662, 87.593 67, 86 67 C 84.889 67, 84 66.333, 84 65.500 C 84 64.675, 83.325 64, 82.500 64 C 81.675 64, 81 64.675, 81 65.500 M 178 69.500 C 178 70.333, 177.111 71, 176 71 C 174.267 71, 174 71.667, 174 76 L 174 81 179.500 81 L 185 81 185 77.500 C 185 74.667, 184.619 74, 183 74 C 181.444 74, 181 73.333, 181 71 C 181 69, 180.500 68, 179.500 68 C 178.675 68, 178 68.675, 178 69.500" stroke="none" fill="black" fill-rule="evenodd"/>
</svg>