<svg xmlns="http://www.w3.org/2000/svg" width="300" height="300" viewBox="0 0 300 300" version="1.1">
	<path d="M 217.290 57 C 216.784 58.932, 215.926 59, 191.883 59 C 170.431 59, 167 59.207, 167 60.500 C 167 61.333, 166.111 62, 165 62 C 163.395 62, 163 62.667, 163 65.375 C 163 68.355, 163.366 68.823, 166.125 69.375 C 167.844 69.719, 172.794 70, 177.125 70 L 185 70 184.986 87.250 C 184.972 105.652, 184.571 109, 182.383 109 C 181.255 109, 181 112.415, 181 127.500 C 181 142.386, 180.736 146, 179.647 146 C 178.288 146, 177 155.565, 177 165.651 C 177 168.850, 176.603 170, 175.500 170 C 174.333 170, 174 171.333, 174 176 C 174 180.442, 173.641 182, 172.617 182 C 170.897 182, 170.031 185.077, 170.014 191.250 C 170.003 194.799, 169.621 196, 168.500 196 C 167.452 196, 167 197.056, 167 199.500 C 167 201.813, 166.531 203, 165.617 203 C 164.101 203, 163.035 205.968, 163.014 210.250 C 163.005 211.945, 162.458 213, 161.588 213 C 160.720 213, 159.915 214.541, 159.500 217 C 159.085 219.459, 158.280 221, 157.412 221 C 156.465 221, 156 222.152, 156 224.500 C 156 226.896, 155.541 228, 154.545 228 C 153.675 228, 152.827 229.405, 152.434 231.500 C 152.058 233.505, 151.184 235, 150.389 235 C 149.625 235, 149 235.900, 149 237 C 149 238.333, 148.333 239, 147 239 C 144.891 239, 144.359 242.008, 145.630 246.750 C 146.307 249.275, 148 249.811, 148 247.500 C 148 246.567, 148.944 246, 150.500 246 C 152.056 246, 153 245.433, 153 244.500 C 153 243.675, 153.675 243, 154.500 243 C 155.333 243, 156 242.111, 156 241 C 156 239.667, 156.667 239, 158 239 C 159.619 239, 160 238.333, 160 235.500 C 160 233.056, 160.452 232, 161.500 232 C 162.538 232, 163 230.957, 163 228.617 C 163 226.074, 163.497 225.103, 165 224.710 C 166.532 224.310, 167 223.346, 167 220.594 C 167 218.103, 167.450 217, 168.466 217 C 169.469 217, 170.140 215.424, 170.594 212 C 171.025 208.754, 171.739 207, 172.629 207 C 173.562 207, 174 205.722, 174 203 C 174 200.261, 174.436 199, 175.383 199 C 176.959 199, 177.966 196, 177.986 191.250 C 177.996 189.034, 178.477 188, 179.500 188 C 180.690 188, 181 186.556, 181 181 C 181 175.707, 181.337 174, 182.383 174 C 183.144 174, 184.002 173.100, 184.290 172 C 184.577 170.900, 185.530 170, 186.406 170 C 187.333 170, 188 170.837, 188 172 C 188 173.860, 188.667 174, 197.500 174 C 205.278 174, 207 173.728, 207 172.500 C 207 171.675, 207.675 171, 208.500 171 C 209.325 171, 210 171.675, 210 172.500 C 210 173.333, 210.889 174, 212 174 C 213.111 174, 214 173.333, 214 172.500 C 214 171.675, 214.675 171, 215.500 171 C 216.325 171, 217 171.675, 217 172.500 C 217 173.753, 219.056 174, 229.500 174 C 241.333 174, 242 173.893, 242 172 C 242 170.889, 241.333 170, 240.500 170 C 239.675 170, 239 169.325, 239 168.500 C 239 167.675, 238.283 167, 237.406 167 C 236.530 167, 235.577 166.100, 235.290 165 C 234.786 163.074, 233.926 163, 212 163 C 190.074 163, 189.214 163.074, 188.710 165 C 188.423 166.100, 187.470 167, 186.594 167 C 185.329 167, 185 165.866, 185 161.500 C 185 157.278, 185.348 156, 186.500 156 C 187.706 156, 188 154.458, 188 148.125 C 188 138.432, 188.824 134, 190.625 134 C 191.381 134, 192 133.375, 192 132.611 C 192 131.816, 193.495 130.942, 195.500 130.566 C 197.595 130.173, 199 129.325, 199 128.455 C 199 127.320, 200.541 127, 206 127 C 211.556 127, 213 126.690, 213 125.500 C 213 124.244, 215.111 124, 226 124 L 239 124 239 127.094 C 239 129.346, 238.456 130.329, 237 130.710 C 235.312 131.152, 235 132.074, 235 136.617 C 235 140.661, 234.638 142, 233.545 142 C 232.675 142, 231.827 143.405, 231.434 145.500 C 231.058 147.505, 230.184 149, 229.389 149 C 228.372 149, 228 150.474, 228 154.500 C 228 160.229, 228.320 160.557, 232.750 159.370 C 234.356 158.939, 235.004 158.013, 235.014 156.133 C 235.035 151.960, 236.115 149, 237.617 149 C 238.377 149, 239 148.100, 239 147 C 239 145.900, 239.655 145, 240.455 145 C 241.325 145, 242.173 143.595, 242.566 141.500 C 242.942 139.495, 243.816 138, 244.611 138 C 245.722 138, 246 135.499, 246 125.500 L 246 113 231.500 113 C 219.278 113, 217 113.236, 217 114.500 C 217 115.706, 215.458 116, 209.125 116 C 199.432 116, 195 116.824, 195 118.625 C 195 119.381, 194.325 120, 193.500 120 C 192.227 120, 192 117.500, 192 103.500 C 192 90.118, 192.261 87, 193.383 87 C 195.210 87, 195.970 83.865, 195.986 76.250 L 196 70 206.594 70 C 216.346 70, 217.229 69.841, 217.710 68 C 218.164 66.263, 219.074 66, 224.617 66 C 229.624 66, 231 65.677, 231 64.500 C 231 63.667, 231.889 63, 233 63 C 234.667 63, 235 62.333, 235 59 L 235 55 226.406 55 C 218.654 55, 217.762 55.196, 217.290 57 M 179.750 62.689 C 176.469 63.547, 177.765 66, 181.500 66 C 184.333 66, 185 65.619, 185 64 C 185 62.013, 183.638 61.673, 179.750 62.689 M 203 64.500 C 203 65.548, 204.056 66, 206.500 66 C 208.944 66, 210 65.548, 210 64.500 C 210 63.452, 208.944 63, 206.500 63 C 204.056 63, 203 63.452, 203 64.500 M 91 73.500 C 91 75.944, 90.548 77, 89.500 77 C 88.237 77, 87.999 79.254, 87.991 91.250 C 87.981 108.778, 87.213 116, 85.361 116 C 84.334 116, 84 117.841, 84 123.500 L 84 131 78.500 131 C 74.278 131, 73 131.348, 73 132.500 C 73 133.690, 71.556 134, 66 134 C 59.667 134, 59 134.190, 59 136 C 59 137.333, 58.333 138, 57 138 C 55.378 138, 55 138.667, 55 141.531 C 55 143.681, 55.563 145.279, 56.439 145.615 C 57.230 145.919, 58.166 147.479, 58.518 149.084 C 59.422 153.198, 63 153.195, 63 149.079 C 63 146.647, 63.502 146.049, 66 145.500 C 67.650 145.138, 69 144.202, 69 143.421 C 69 142.410, 70.262 142, 73.375 142 C 75.781 142, 79.156 141.719, 80.875 141.375 L 84 140.750 84 153.875 C 84 164.875, 84.243 167, 85.500 167 C 86.466 167, 87.005 167.978, 87.014 169.750 C 87.035 174.032, 88.101 177, 89.617 177 C 90.377 177, 91 177.848, 91 178.883 C 91 179.926, 91.893 181, 93 181.290 C 94.100 181.577, 95 182.530, 95 183.406 C 95 184.283, 95.675 185, 96.500 185 C 97.333 185, 98 185.889, 98 187 C 98 188.333, 98.667 189, 100 189 C 101.111 189, 102 189.667, 102 190.500 C 102 191.325, 102.675 192, 103.500 192 C 104.325 192, 105 192.717, 105 193.594 C 105 194.470, 105.900 195.423, 107 195.710 C 109.372 196.331, 109.702 199, 107.406 199 C 106.530 199, 105.577 199.900, 105.290 201 C 104.926 202.392, 103.926 203, 102 203 C 100.074 203, 99.074 203.608, 98.710 205 C 98.423 206.100, 97.470 207, 96.594 207 C 95.717 207, 95 207.675, 95 208.500 C 95 209.690, 96.444 210, 102 210 C 108.333 210, 109 209.810, 109 208 C 109 206.667, 109.667 206, 111 206 C 112.111 206, 113 205.333, 113 204.500 C 113 203.675, 113.675 203, 114.500 203 C 115.325 203, 116 203.675, 116 204.500 C 116 205.333, 116.889 206, 118 206 C 119.333 206, 120 206.667, 120 208 C 120 209.758, 120.667 210, 125.500 210 L 131 210 131 206 C 131 203.248, 130.566 202, 129.607 202 C 128.841 202, 127.955 201.325, 127.638 200.500 C 127.277 199.559, 125.748 199, 123.531 199 L 120 199 120 193.500 C 120 189.484, 120.373 188, 121.383 188 C 122.899 188, 123.965 185.032, 123.986 180.750 C 123.995 178.978, 124.534 178, 125.500 178 C 126.684 178, 127.003 176.577, 127.014 171.250 C 127.030 163.152, 127.759 160, 129.617 160 C 130.531 160, 131 158.813, 131 156.500 C 131 154.374, 130.509 152.995, 129.750 152.986 C 129.063 152.979, 127.544 152.716, 126.375 152.402 C 124.387 151.869, 124.205 152.319, 123.540 159.416 C 123.021 164.953, 122.447 167, 121.415 167 C 120.384 167, 120 168.356, 120 172 C 120 175.590, 119.610 177, 118.617 177 C 116.657 177, 116.141 174.117, 116.747 166.563 C 117.118 161.947, 117.678 160, 118.637 160 C 119.636 160, 120 158.399, 120 154 C 120 149.482, 120.351 148, 121.421 148 C 122.202 148, 123.138 146.650, 123.500 145 C 124.075 142.380, 124.592 142, 127.579 142 L 131 142 131 136.500 C 131 131.667, 130.758 131, 129 131 C 127.106 131, 127 130.333, 127 118.406 C 127 106.654, 127.134 105.778, 129 105.290 C 130.838 104.809, 131 103.926, 131 94.383 L 131 84 127.611 84 C 124.530 84, 124.163 84.318, 123.566 87.500 C 123.173 89.595, 122.325 91, 121.455 91 C 120.241 91, 120 93.728, 120 107.500 C 120 121.328, 119.763 124, 118.534 124 C 117.531 124, 116.860 125.576, 116.406 129 L 115.742 134 105.371 134 L 95 134 95 119.500 C 95 107.278, 95.236 105, 96.500 105 C 97.325 105, 98 104.325, 98 103.500 C 98 102.675, 97.325 102, 96.500 102 C 95.675 102, 95 101.325, 95 100.500 C 95 99.675, 95.675 99, 96.500 99 C 97.583 99, 98 97.889, 98 95 C 98 91.667, 98.333 91, 100 91 C 101.619 91, 102 90.333, 102 87.500 C 102 85.197, 101.530 84, 100.625 84 C 99.254 84, 98 79.880, 98 75.375 C 98 73.931, 97.412 73, 96.500 73 C 95.675 73, 95 72.325, 95 71.500 C 95 70.667, 94.111 70, 93 70 C 91.381 70, 91 70.667, 91 73.500 M 98 143.500 C 98 144.325, 97.325 145, 96.500 145 C 95.258 145, 95 146.889, 95 156 C 95 164.959, 95.270 167, 96.455 167 C 97.325 167, 98.173 168.405, 98.566 170.500 C 98.942 172.505, 99.816 174, 100.611 174 C 101.532 174, 102 175.180, 102 177.500 C 102 180.333, 102.381 181, 104 181 C 105.333 181, 106 181.667, 106 183 C 106 184.111, 106.667 185, 107.500 185 C 108.325 185, 109 185.675, 109 186.500 C 109 187.333, 109.889 188, 111 188 C 112.111 188, 113 187.333, 113 186.500 C 113 185.675, 113.675 185, 114.500 185 C 115.548 185, 116 183.944, 116 181.500 C 116 179.056, 115.548 178, 114.500 178 C 113.675 178, 113 178.675, 113 179.500 C 113 180.333, 112.111 181, 111 181 C 109.148 181, 109 180.333, 109 172 C 109 164.667, 109.278 163, 110.500 163 C 111.325 163, 112 162.325, 112 161.500 C 112 160.675, 111.550 160, 111 160 C 110.450 160, 110 159.100, 110 158 C 110 156.889, 110.667 156, 111.500 156 C 112.690 156, 113 154.556, 113 149 L 113 142 105.500 142 C 99.500 142, 98 142.300, 98 143.500" stroke="none" fill="black" fill-rule="evenodd"/>
</svg>