<svg xmlns="http://www.w3.org/2000/svg" width="300" height="300" viewBox="0 0 300 300" version="1.1">
	<path d="M 166.566 44.500 C 166.173 46.595, 165.325 48, 164.455 48 C 163.655 48, 163 48.900, 163 50 C 163 51.111, 162.333 52, 161.500 52 C 160.310 52, 160 53.444, 160 59 L 160 66 176 66 C 189.556 66, 192 65.771, 192 64.500 C 192 63.358, 193.254 62.998, 197.250 62.991 C 200.137 62.987, 204.863 62.699, 207.750 62.352 L 213 61.721 213 65.861 C 213 68.873, 212.592 70, 211.500 70 C 210.310 70, 210 71.444, 210 77 C 210 82.293, 209.663 84, 208.617 84 C 206.897 84, 206.031 87.077, 206.014 93.250 C 206.004 96.630, 205.599 98, 204.611 98 C 203.816 98, 202.942 99.495, 202.566 101.500 C 201.966 104.698, 201.611 105, 198.455 105 C 196.051 105, 195 104.544, 195 103.500 C 195 102.229, 192.556 102, 179 102 C 166.014 102, 163 102.262, 163 103.389 C 163 104.184, 161.505 105.058, 159.500 105.434 C 156.438 106.008, 156 106.460, 156 109.045 C 156 111.005, 155.495 112, 154.500 112 C 153.644 112, 153 112.899, 153 114.094 C 153 115.346, 152.197 116.397, 151 116.710 C 149.583 117.081, 149 118.074, 149 120.117 C 149 122.088, 148.496 123, 147.406 123 C 146.530 123, 145.577 123.900, 145.290 125 C 145 126.107, 143.926 127, 142.883 127 C 141.848 127, 141 127.675, 141 128.500 C 141 129.325, 140.325 130, 139.500 130 C 138.667 130, 138 130.889, 138 132 C 138 133.333, 137.333 134, 136 134 C 134.667 134, 134 134.667, 134 136 C 134 137.333, 133.333 138, 132 138 C 130.900 138, 130 138.639, 130 139.421 C 130 140.202, 128.650 141.138, 127 141.500 C 125.350 141.862, 124 142.798, 124 143.579 C 124 144.361, 123.100 145, 122 145 C 120.900 145, 120 145.619, 120 146.375 C 120 147.894, 115.780 149, 109.986 149 C 106.477 149, 106.178 148.764, 105.566 145.500 C 105.173 143.405, 104.325 142, 103.455 142 C 102.320 142, 102 140.459, 102 135 C 102 129.738, 101.660 128, 100.629 128 C 98.839 128, 97.637 116.334, 98.574 108.051 L 99.258 102 109.629 102 C 119.333 102, 120 102.129, 120 104 C 120 105.619, 120.667 106, 123.500 106 L 127 106 127 100.500 L 127 95 123.500 95 C 121.104 95, 120 94.541, 120 93.545 C 120 91.307, 114.211 90.677, 98.763 91.232 C 88.368 91.606, 84.563 92.090, 83.927 93.118 C 83.339 94.069, 80.413 94.610, 74.537 94.853 C 68.448 95.104, 66 95.573, 66 96.486 C 66 97.190, 65.069 98.010, 63.931 98.308 C 62.271 98.742, 61.925 99.506, 62.181 102.174 L 62.500 105.500 74.618 105.780 L 86.736 106.059 87.368 110.669 C 87.716 113.205, 88 117.241, 88 119.640 C 88 122.849, 88.396 124, 89.500 124 C 90.714 124, 91 125.598, 91 132.383 C 91 139.926, 91.201 140.819, 93 141.290 C 94.670 141.726, 95 142.654, 95 146.906 C 95 150.586, 95.386 152, 96.389 152 C 97.178 152, 98.055 153.478, 98.420 155.428 C 98.941 158.203, 99.632 158.980, 102.053 159.512 C 106.270 160.438, 113 159.147, 113 157.412 C 113 156.465, 114.152 156, 116.500 156 C 118.820 156, 120 155.532, 120 154.611 C 120 153.816, 121.495 152.942, 123.500 152.566 C 125.437 152.203, 127 151.310, 127 150.566 C 127 149.822, 128.563 148.929, 130.500 148.566 C 132.595 148.173, 134 147.325, 134 146.455 C 134 145.655, 134.900 145, 136 145 C 137.333 145, 138 144.333, 138 143 C 138 141.889, 138.667 141, 139.500 141 C 140.325 141, 141 140.325, 141 139.500 C 141 138.667, 141.889 138, 143 138 C 144.333 138, 145 137.333, 145 136 C 145 134.900, 145.639 134, 146.421 134 C 147.202 134, 148.134 132.664, 148.493 131.032 C 149.020 128.634, 149.804 127.940, 152.572 127.420 C 155.675 126.838, 156 126.456, 156 123.389 C 156 121.043, 156.462 120, 157.500 120 C 158.325 120, 159 119.365, 159 118.588 C 159 117.720, 160.541 116.915, 163 116.500 C 165.459 116.085, 167 115.280, 167 114.412 C 167 113.330, 168.642 113, 174.031 113 C 179.159 113, 181.209 112.618, 181.604 111.590 C 182.755 108.590, 192 108.606, 192 111.608 C 192 112.532, 193.177 113, 195.500 113 C 197.944 113, 199 113.452, 199 114.500 C 199 115.325, 198.375 116, 197.611 116 C 196.816 116, 195.942 117.495, 195.566 119.500 C 195.173 121.595, 194.325 123, 193.455 123 C 192.424 123, 192 124.166, 192 127 C 192 129.834, 191.576 131, 190.545 131 C 189.675 131, 188.827 132.405, 188.434 134.500 C 188.073 136.425, 187.203 138, 186.500 138 C 185.797 138, 184.927 139.575, 184.566 141.500 C 184.173 143.595, 183.325 145, 182.455 145 C 181.655 145, 181 145.655, 181 146.455 C 181 147.325, 179.595 148.173, 177.500 148.566 C 175.575 148.927, 174 149.795, 174 150.495 C 174 151.194, 173.100 152.002, 172 152.290 C 170.900 152.577, 170 153.530, 170 154.406 C 170 155.333, 169.163 156, 168 156 C 166.889 156, 166 156.667, 166 157.500 C 166 158.325, 165.325 159, 164.500 159 C 163.667 159, 163 159.889, 163 161 C 163 162.619, 162.333 163, 159.500 163 C 156.667 163, 156 163.381, 156 165 C 156 166.333, 155.333 167, 154 167 C 152.889 167, 152 167.667, 152 168.500 C 152 169.325, 151.325 170, 150.500 170 C 149.667 170, 149 170.889, 149 172 C 149 173.333, 148.333 174, 147 174 C 145.667 174, 145 174.667, 145 176 C 145 177.333, 144.333 178, 143 178 C 141.889 178, 141 178.667, 141 179.500 C 141 180.325, 140.325 181, 139.500 181 C 138.667 181, 138 181.889, 138 183 C 138 184.333, 137.333 185, 136 185 C 134.889 185, 134 185.667, 134 186.500 C 134 187.325, 133.325 188, 132.500 188 C 131.667 188, 131 188.889, 131 190 C 131 191.333, 130.333 192, 129 192 C 127.667 192, 127 192.667, 127 194 C 127 195.111, 126.333 196, 125.500 196 C 124.675 196, 124 196.675, 124 197.500 C 124 198.721, 122.346 199, 115.117 199 C 107.074 199, 106.184 199.189, 105.710 201 C 105.310 202.532, 104.346 203, 101.594 203 L 98 203 98 207.941 C 98 210.659, 98.482 213.180, 99.071 213.544 C 100.960 214.711, 109 213.007, 109 211.439 C 109 210.240, 112.007 210, 127 210 C 142.333 210, 145 209.778, 145 208.500 C 145 207.667, 145.889 207, 147 207 C 148.111 207, 149 207.667, 149 208.500 C 149 209.652, 150.278 210, 154.500 210 C 160.833 210, 160.492 209.031, 159.346 223.750 C 158.883 229.698, 158.326 232, 157.352 232 C 156.474 232, 156 233.226, 156 235.500 L 156 239 150.500 239 C 146.278 239, 145 239.348, 145 240.500 C 145 241.663, 143.681 242, 139.125 242 C 135.894 242, 131.844 242.281, 130.125 242.625 C 127.150 243.220, 127 243.478, 127 248.014 C 127 252.666, 127.082 252.793, 130.500 253.434 C 132.595 253.827, 134 254.675, 134 255.545 C 134 256.345, 134.900 257, 136 257 C 137.100 257, 138 257.611, 138 258.358 C 138 259.280, 139.914 259.915, 143.968 260.339 C 151.067 261.081, 156 260.276, 156 258.375 C 156 257.619, 156.675 257, 157.500 257 C 158.325 257, 159 256.283, 159 255.406 C 159 254.530, 159.900 253.577, 161 253.290 C 162.100 253.002, 163 252.183, 163 251.469 C 163 250.582, 165.380 249.948, 170.500 249.468 C 175.878 248.964, 178 248.374, 178 247.383 C 178 246.253, 181.570 246, 197.500 246 C 214.167 246, 217 245.782, 217 244.500 C 217 243.258, 218.889 243, 228 243 L 239 243 239 237.500 L 239 232 232 232 C 226.573 232, 225 232.324, 225 233.441 C 225 234.635, 221.661 234.934, 205.462 235.191 C 189.540 235.443, 185.755 235.774, 185.012 236.978 C 184.013 238.597, 171.034 239.727, 166.503 238.590 C 163.820 237.917, 163.005 235, 165.500 235 C 166.722 235, 167 233.333, 167 226 C 167 219.046, 167.311 217, 168.370 217 C 169.254 217, 169.922 215.386, 170.253 212.451 C 170.535 209.948, 170.935 207.732, 171.142 207.525 C 171.349 207.318, 177.026 206.826, 183.759 206.433 C 193.054 205.889, 196 205.390, 196 204.358 C 196 203.286, 198.635 203, 208.500 203 C 218.944 203, 221 202.753, 221 201.500 C 221 200.675, 221.675 200, 222.500 200 C 223.433 200, 224 199.056, 224 197.500 C 224 195.944, 223.433 195, 222.500 195 C 221.675 195, 221 194.325, 221 193.500 C 221 192.417, 219.889 192, 217 192 C 214.111 192, 213 192.417, 213 193.500 C 213 194.714, 211.405 195, 204.647 195 C 192.085 195, 184 196.035, 184 197.642 C 184 198.647, 182.308 199, 177.500 199 L 171 199 171 193.500 C 171 189.278, 171.348 188, 172.500 188 C 173.325 188, 174 187.325, 174 186.500 C 174 185.452, 175.056 185, 177.500 185 C 180.333 185, 181 184.619, 181 183 C 181 181.900, 180.381 181, 179.625 181 C 178.028 181, 176.853 176.277, 177.671 173.149 C 177.980 171.967, 178.856 171, 179.617 171 C 180.377 171, 181 170.200, 181 169.222 C 181 168.244, 181.900 166.674, 183 165.732 C 184.383 164.548, 185 162.782, 185 160.010 L 185 156 190.500 156 C 194.241 156, 195.996 155.600, 195.986 154.750 C 195.955 151.840, 194.669 149, 193.383 149 C 192.478 149, 192 147.831, 192 145.617 C 192 143.074, 192.497 142.103, 194 141.710 C 195.456 141.329, 196 140.346, 196 138.094 C 196 136.010, 196.490 135, 197.500 135 C 198.583 135, 199 133.889, 199 131 C 199 127.667, 199.333 127, 201 127 C 202.619 127, 203 126.333, 203 123.500 C 203 121.056, 203.452 120, 204.500 120 C 205.325 120, 206 119.325, 206 118.500 C 206 117.667, 206.889 117, 208 117 C 209.822 117, 210 116.333, 210 109.500 C 210 103.781, 210.329 102, 211.383 102 C 212.899 102, 213.965 99.032, 213.986 94.750 C 213.995 93.092, 214.545 92, 215.373 92 C 216.294 92, 216.908 90.312, 217.239 86.865 C 217.558 83.544, 218.310 81.406, 219.366 80.815 C 220.535 80.161, 221 78.491, 221 74.950 C 221 71.217, 221.369 70, 222.500 70 C 223.486 70, 224 69.014, 224 67.125 C 224 62.159, 225.196 58, 226.625 58 C 227.381 58, 228 57.325, 228 56.500 C 228 55.675, 227.377 55, 226.617 55 C 225.856 55, 224.982 54.041, 224.676 52.868 C 224.241 51.207, 223.608 50.873, 221.809 51.354 C 220.539 51.694, 216.688 51.979, 213.250 51.986 C 208.367 51.997, 207 52.328, 207 53.500 C 207 54.767, 204.667 55, 192 55 L 177 55 177 51.500 C 177 49.056, 176.548 48, 175.500 48 C 174.452 48, 174 46.944, 174 44.500 C 174 41.189, 173.817 41, 170.611 41 C 167.530 41, 167.163 41.318, 166.566 44.500 M 80 60.500 C 80 61.325, 79.325 62, 78.500 62 C 77.667 62, 77 62.889, 77 64 C 77 65.111, 76.333 66, 75.500 66 C 73.146 66, 73.747 68.699, 76.250 69.370 C 82.307 70.993, 95 69.642, 95 67.375 C 95 66.310, 97.030 66, 104 66 C 111.209 66, 113 66.290, 113 67.455 C 113 68.325, 114.405 69.173, 116.500 69.566 C 118.505 69.942, 120 70.816, 120 71.611 C 120 72.532, 121.180 73, 123.500 73 C 126.833 73, 127 72.833, 127 69.500 C 127 67.187, 126.531 66, 125.617 66 C 124.856 66, 123.998 65.100, 123.710 64 C 123.310 62.468, 122.346 62, 119.594 62 C 117.066 62, 116 61.555, 116 60.500 C 116 59.222, 113.333 59, 98 59 C 82.667 59, 80 59.222, 80 60.500 M 170 89.500 C 170 94.333, 170.242 95, 172 95 C 173.111 95, 174 95.667, 174 96.500 C 174 99.255, 176.832 98.042, 177.500 95 C 177.910 93.133, 178.790 91.997, 179.829 91.991 C 180.748 91.987, 183.863 91.699, 186.750 91.352 C 191.644 90.764, 192 90.867, 192 92.861 C 192 94.787, 192.547 95, 197.500 95 C 201.241 95, 202.996 94.600, 202.986 93.750 C 202.955 90.840, 201.669 88, 200.383 88 C 199.623 88, 199 87.100, 199 86 C 199 84.092, 198.333 84, 184.500 84 L 170 84 170 89.500 M 171 161.500 C 171 162.333, 170.111 163, 169 163 C 167.667 163, 167 163.667, 167 165 C 167 166.333, 166.333 167, 165 167 C 163.889 167, 163 167.667, 163 168.500 C 163 169.325, 162.325 170, 161.500 170 C 160.667 170, 160 170.889, 160 172 C 160 173.333, 159.333 174, 158 174 C 156.667 174, 156 174.667, 156 176 C 156 177.619, 155.333 178, 152.500 178 C 150.187 178, 149 178.469, 149 179.383 C 149 180.144, 148.100 181.002, 147 181.290 C 145.900 181.577, 145 182.530, 145 183.406 C 145 184.283, 144.377 185, 143.617 185 C 142.856 185, 141.998 185.900, 141.710 187 C 141.423 188.100, 140.470 189, 139.594 189 C 138.717 189, 138 189.675, 138 190.500 C 138 191.538, 136.957 192, 134.617 192 C 132.074 192, 131.103 192.497, 130.710 194 C 130.423 195.100, 129.470 196, 128.594 196 C 127.717 196, 127 196.675, 127 197.500 C 127 198.773, 129.500 199, 143.500 199 L 160 199 160 190 C 160 182.667, 160.278 181, 161.500 181 C 162.333 181, 163 180.111, 163 179 C 163 177.889, 163.667 177, 164.500 177 C 165.325 177, 166 176.325, 166 175.500 C 166 174.675, 166.850 174, 167.889 174 C 169.255 174, 169.959 173.033, 170.434 170.500 C 170.827 168.405, 171.675 167, 172.545 167 C 173.541 167, 174 165.896, 174 163.500 C 174 161.056, 173.548 160, 172.500 160 C 171.675 160, 171 160.675, 171 161.500 M 146 251.594 C 146 252.470, 145.100 253.423, 144 253.710 C 142.900 253.998, 142 254.582, 142 255.008 C 142 256.221, 147.183 257.217, 148.200 256.200 C 149.272 255.128, 148.190 250, 146.892 250 C 146.401 250, 146 250.717, 146 251.594" stroke="none" fill="black" fill-rule="evenodd"/>
</svg>