<svg xmlns="http://www.w3.org/2000/svg" width="300" height="300" viewBox="0 0 300 300" version="1.1">
	<path d="M 114 28.500 C 114 32.722, 113.652 34, 112.500 34 C 111.425 34, 111 35.097, 111 37.875 C 111 43.772, 109.904 48, 108.375 48 C 107.619 48, 107 48.675, 107 49.500 C 107 50.605, 105.847 51, 102.625 51 C 96.259 51, 92 52.052, 92 53.625 C 92 54.604, 90.593 55, 87.117 55 C 83.074 55, 82.143 55.344, 81.710 57 C 81.423 58.100, 80.470 59, 79.594 59 C 78.439 59, 78 59.964, 78 62.500 C 78 65.333, 77.619 66, 76 66 C 73.957 66, 73.232 68.407, 74.954 69.472 C 76.516 70.437, 81 68.895, 81 67.392 C 81 66.626, 81.900 66, 83 66 C 84.100 66, 85 65.381, 85 64.625 C 85 63.052, 89.259 62, 95.625 62 C 98.847 62, 100 61.605, 100 60.500 C 100 59.367, 101.222 59, 105 59 L 110 59 110.133 64.500 C 110.207 67.525, 110.267 72.250, 110.267 75 C 110.267 77.750, 110.207 82.475, 110.133 85.500 L 110 91 99.617 91 C 90.074 91, 89.191 91.162, 88.710 93 C 88.423 94.100, 87.447 95, 86.541 95 C 85.184 95, 84.948 95.921, 85.198 100.250 L 85.500 105.500 90 105.823 C 96.684 106.302, 103 105.144, 103 103.439 C 103 102.294, 104.837 102, 112 102 C 118.895 102, 121 101.684, 121 100.648 C 121 99.676, 123.254 99.123, 129.023 98.678 C 138.199 97.970, 143 98.639, 143 100.625 C 143 101.530, 144.197 102, 146.500 102 C 149.917 102, 150 101.905, 150 98 C 150 95.111, 149.583 94, 148.500 94 C 147.675 94, 147 93.325, 147 92.500 C 147 91.667, 146.111 91, 145 91 C 143.889 91, 143 90.333, 143 89.500 C 143 88.247, 140.944 88, 130.500 88 L 118 88 118 82.500 C 118 78.278, 118.348 77, 119.500 77 C 120.333 77, 121 76.111, 121 75 C 121 73.889, 120.333 73, 119.500 73 C 118.367 73, 118 71.778, 118 68 C 118 64.222, 118.367 63, 119.500 63 C 120.583 63, 121 61.889, 121 59 L 121 55 128 55 C 133.556 55, 135 54.690, 135 53.500 C 135 52.417, 136.111 52, 139 52 C 142.333 52, 143 51.667, 143 50 C 143 48.267, 143.667 48, 148 48 C 151.908 48, 153 47.652, 153 46.406 C 153 45.530, 153.900 44.577, 155 44.290 C 156.503 43.897, 157 42.926, 157 40.383 C 157 37.183, 156.810 37, 153.500 37 C 151.187 37, 150 37.469, 150 38.383 C 150 39.959, 147 40.966, 142.250 40.986 C 140.193 40.995, 139 41.496, 139 42.352 C 139 43.325, 136.725 43.879, 130.870 44.331 C 126.399 44.675, 122.349 44.715, 121.870 44.420 C 121.392 44.124, 121 40.759, 121 36.941 L 121 30 126.500 30 L 132 30 132 26.500 L 132 23 123 23 L 114 23 114 28.500 M 161 100 C 161 101.333, 160.333 102, 159 102 C 157.242 102, 157 102.667, 157 107.500 C 157 111.722, 156.652 113, 155.500 113 C 154.425 113, 154 114.097, 154 116.875 C 154 119.006, 153.719 122.156, 153.375 123.875 L 152.750 127 145.875 127 C 140.688 127, 139 127.340, 139 128.383 C 139 129.144, 138.100 130.002, 137 130.290 C 134.920 130.834, 134.389 134.117, 135.630 138.750 C 136.105 140.521, 136.953 141, 139.617 141 C 141.957 141, 143 140.538, 143 139.500 C 143 138.367, 144.222 138, 148 138 L 153 138 153 143 C 153 146.778, 152.633 148, 151.500 148 C 150.300 148, 150 149.500, 150 155.500 C 150 162.333, 149.822 163, 148 163 C 146.667 163, 146 163.667, 146 165 C 146 166.538, 145.333 167, 143.117 167 C 140.029 167, 139.040 168.770, 139.014 174.344 C 139.004 176.353, 139.587 177.341, 141 177.710 C 142.100 177.998, 143 178.856, 143 179.617 C 143 180.377, 143.675 181, 144.500 181 C 145.325 181, 146 180.325, 146 179.500 C 146 178.223, 148.654 178, 163.889 178 L 181.777 178 182.434 181.500 C 183.034 184.698, 183.389 185, 186.545 185 C 189.333 185, 190 184.614, 190 183 C 190 181.889, 190.667 181, 191.500 181 C 192.325 181, 193 180.325, 193 179.500 C 193 178.675, 192.375 178, 191.611 178 C 190.825 178, 189.947 176.531, 189.587 174.610 C 188.905 170.976, 187.205 170.039, 181.250 170.014 C 179.034 170.004, 178 169.523, 178 168.500 C 178 167.262, 176.167 167, 167.500 167 C 157.132 167, 157 166.970, 157 164.640 C 157 158.884, 158.332 153, 159.636 153 C 160.667 153, 161 151.168, 161 145.500 L 161 138 164.500 138 C 166.944 138, 168 137.548, 168 136.500 C 168 134.820, 170.217 134.612, 184.250 134.974 L 193 135.201 193 131.100 L 193 127 184 127 C 176.667 127, 175 126.722, 175 125.500 C 175 124.675, 174.325 124, 173.500 124 C 172.675 124, 172 124.675, 172 125.500 C 172 126.583, 170.889 127, 168 127 C 165.111 127, 164 126.583, 164 125.500 C 164 124.675, 163.325 124, 162.500 124 C 161.452 124, 161 122.944, 161 120.500 C 161 118.152, 161.465 117, 162.412 117 C 163.280 117, 164.085 115.459, 164.500 113 C 164.915 110.541, 165.720 109, 166.588 109 C 167.365 109, 168 108.377, 168 107.617 C 168 106.856, 168.900 105.998, 170 105.710 C 171.100 105.423, 172 104.470, 172 103.594 C 172 102.667, 171.163 102, 170 102 C 168.900 102, 168 101.377, 168 100.617 C 168 99.331, 165.160 98.045, 162.250 98.014 C 161.563 98.006, 161 98.900, 161 100 M 74.324 106.868 C 74.018 108.041, 73.144 109, 72.383 109 C 71.055 109, 70.865 110.213, 70.582 120.500 L 70.500 123.500 63.250 123.794 C 57.704 124.019, 56 124.430, 56 125.544 C 56 126.620, 54.725 127, 51.117 127 C 47.074 127, 46.143 127.344, 45.710 129 C 45.423 130.100, 44.470 131, 43.594 131 C 42.353 131, 42 132.082, 42 135.883 C 42 141.238, 42.914 141.958, 49.750 141.986 C 52.338 141.997, 53 141.593, 53 140 C 53 138.381, 53.667 138, 56.500 138 C 58.944 138, 60 137.548, 60 136.500 C 60 135.348, 61.278 135, 65.500 135 L 71 135 71 148.889 L 71 162.777 67.573 163.420 C 65.688 163.774, 63.998 164.507, 63.817 165.050 C 63.636 165.592, 61.128 166.316, 58.244 166.658 C 54.727 167.074, 53 167.737, 53 168.671 C 53 169.436, 52.325 170.322, 51.500 170.638 C 50.658 170.961, 50 172.449, 50 174.028 C 50 176.341, 50.534 176.958, 53 177.500 C 54.650 177.862, 56 178.798, 56 179.579 C 56 180.361, 56.900 181, 58 181 C 59.100 181, 60 181.623, 60 182.383 C 60 184.096, 63.073 184.969, 69.162 184.986 L 73.824 185 74.500 181 C 74.915 178.541, 75.720 177, 76.588 177 C 77.365 177, 78 176.325, 78 175.500 C 78 174.236, 80.278 174, 92.500 174 C 104.574 174, 107 173.755, 107 172.534 C 107 171.354, 109.100 171.012, 117.750 170.784 C 127.739 170.520, 128.500 170.358, 128.500 168.500 C 128.500 166.597, 127.833 166.500, 114.715 166.500 C 103.653 166.500, 100.749 166.209, 100.018 165.027 C 99.336 163.925, 96.450 163.456, 88.553 163.164 L 78 162.773 78 150.387 C 78 140.507, 78.280 138, 79.383 138 C 80.144 138, 81.002 137.100, 81.290 136 C 81.671 134.544, 82.654 134, 84.906 134 C 86.990 134, 88 133.510, 88 132.500 C 88 131.417, 89.111 131, 92 131 C 94.889 131, 96 131.417, 96 132.500 C 96 133.652, 97.278 134, 101.500 134 L 107 134 107 129.061 L 107 124.123 102.329 123.422 C 99.760 123.037, 93.235 123.012, 87.829 123.366 L 78 124.010 78 118.505 C 78 113.667, 78.242 113, 80 113 C 81.619 113, 82 112.333, 82 109.500 C 82 107.374, 81.509 105.995, 80.750 105.986 C 80.063 105.979, 78.461 105.694, 77.191 105.354 C 75.392 104.873, 74.759 105.207, 74.324 106.868 M 261.500 188 C 261.085 190.459, 260.280 192, 259.412 192 C 258.367 192, 258 193.430, 258 197.500 C 258 201.646, 257.642 203, 256.545 203 C 255.675 203, 254.827 204.405, 254.434 206.500 C 254.058 208.505, 253.184 210, 252.389 210 C 251.372 210, 251 211.474, 251 215.500 C 251 220.333, 250.758 221, 249 221 C 247.267 221, 247 221.667, 247 226 C 247 229.639, 246.616 231, 245.588 231 C 244.720 231, 243.915 232.541, 243.500 235 C 243.085 237.459, 242.280 239, 241.412 239 C 240.465 239, 240 240.152, 240 242.500 C 240 244.813, 239.531 246, 238.617 246 C 237.856 246, 236.980 246.970, 236.670 248.155 C 236.123 250.246, 235.787 250.291, 225.397 249.655 C 219.508 249.295, 209.809 249, 203.844 249 C 194.872 249, 193 248.741, 193 247.500 C 193 246.300, 191.500 246, 185.500 246 C 179.604 246, 178 245.689, 178 244.545 C 178 243.675, 176.595 242.827, 174.500 242.434 C 172.495 242.058, 171 241.184, 171 240.389 C 171 239.625, 170.325 239, 169.500 239 C 168.667 239, 168 238.111, 168 237 C 168 235.667, 167.333 235, 166 235 C 164.667 235, 164 234.333, 164 233 C 164 231.889, 163.333 231, 162.500 231 C 161.452 231, 161 229.944, 161 227.500 C 161 225.056, 161.452 224, 162.500 224 C 163.466 224, 164.005 223.022, 164.014 221.250 C 164.035 216.968, 165.101 214, 166.617 214 C 167.564 214, 168 212.739, 168 210 L 168 206 173.500 206 C 177.634 206, 179 205.640, 179 204.552 C 179 203.511, 180.473 203.020, 184.250 202.802 C 189.334 202.510, 189.510 202.400, 189.806 199.347 C 190.095 196.371, 189.886 196.156, 186.056 195.509 C 183.553 195.087, 182 194.284, 182 193.412 C 182 192.286, 179.876 192, 171.500 192 C 162.833 192, 161 192.262, 161 193.500 C 161 194.333, 160.111 195, 159 195 C 157.704 195, 157 195.667, 157 196.894 C 157 198.566, 156.055 198.831, 148.958 199.153 C 143.216 199.414, 140.651 199.945, 139.990 201.009 C 139.385 201.985, 137.414 202.510, 134.283 202.530 C 117.894 202.632, 114 203.010, 114 204.500 C 114 205.687, 112.572 206, 107.147 206 C 95.989 206, 88 207.103, 88 208.642 C 88 209.700, 85.677 210, 77.500 210 C 68.833 210, 67 210.262, 67 211.500 C 67 212.663, 65.681 213, 61.125 213 C 53.342 213, 49 213.940, 49 215.625 C 49 216.530, 47.803 217, 45.500 217 C 42.667 217, 42 217.381, 42 219 C 42 220.333, 41.333 221, 40 221 C 38.381 221, 38 221.667, 38 224.500 C 38 226.944, 37.548 228, 36.500 228 C 35.452 228, 35 229.056, 35 231.500 C 35 234.833, 35.167 235, 38.500 235 C 41.833 235, 42 234.833, 42 231.500 C 42 228.167, 42.167 228, 45.500 228 C 47.803 228, 49 227.530, 49 226.625 C 49 225.254, 53.120 224, 57.625 224 C 58.983 224, 60 223.406, 60 222.613 C 60 221.544, 62.411 221.138, 70.553 220.836 C 78.451 220.544, 81.335 220.075, 82.016 218.973 C 82.693 217.875, 85.481 217.412, 92.962 217.156 C 100.758 216.889, 103 216.498, 103 215.406 C 103 214.338, 104.623 213.997, 109.750 213.986 C 117.848 213.970, 121 213.241, 121 211.383 C 121 210.293, 123.227 210, 131.500 210 C 139.808 210, 142 210.291, 142 211.393 C 142 212.159, 141.325 213.045, 140.500 213.362 C 139.675 213.678, 139 214.626, 139 215.469 C 139 216.311, 138.375 217, 137.611 217 C 136.816 217, 135.942 218.495, 135.566 220.500 C 135.173 222.595, 134.325 224, 133.455 224 C 132.655 224, 132 224.900, 132 226 C 132 227.100, 131.345 228, 130.545 228 C 129.675 228, 128.827 229.405, 128.434 231.500 C 128.058 233.505, 127.184 235, 126.389 235 C 125.468 235, 125 236.180, 125 238.500 C 125 241.333, 124.619 242, 123 242 C 121.667 242, 121 242.667, 121 244 C 121 245.100, 120.375 246, 119.611 246 C 118.816 246, 117.942 247.495, 117.566 249.500 C 117.173 251.595, 116.325 253, 115.455 253 C 114.655 253, 114 253.900, 114 255 C 114 256.333, 113.333 257, 112 257 C 110.381 257, 110 257.667, 110 260.500 C 110 262.944, 109.548 264, 108.500 264 C 107.667 264, 107 264.889, 107 266 C 107 267.333, 106.333 268, 105 268 C 103.267 268, 103 268.667, 103 273 C 103 277.333, 103.267 278, 105 278 C 106.111 278, 107 277.333, 107 276.500 C 107 275.452, 108.056 275, 110.500 275 C 113.810 275, 114 274.817, 114 271.617 C 114 269.074, 114.497 268.103, 116 267.710 C 117.456 267.329, 118 266.346, 118 264.094 C 118 262.010, 118.490 261, 119.500 261 C 120.333 261, 121 260.111, 121 259 C 121 257.667, 121.667 257, 123 257 C 124.606 257, 125 256.333, 125 253.617 C 125 251.074, 125.497 250.103, 127 249.710 C 128.100 249.423, 129 248.470, 129 247.594 C 129 246.717, 129.675 246, 130.500 246 C 131.548 246, 132 244.944, 132 242.500 C 132 239.667, 132.381 239, 134 239 C 135.333 239, 136 238.333, 136 237 C 136 235.889, 136.667 235, 137.500 235 C 138.548 235, 139 233.944, 139 231.500 C 139 228.667, 139.381 228, 141 228 C 142.333 228, 143 227.333, 143 226 C 143 224.900, 143.623 224, 144.383 224 C 145.144 224, 146.002 223.100, 146.290 222 C 146.577 220.900, 147.530 220, 148.406 220 C 149.283 220, 150 219.325, 150 218.500 C 150 217.675, 150.859 217, 151.908 217 C 153.676 217, 153.797 217.736, 153.553 227.032 C 153.247 238.695, 153.702 242, 155.617 242 C 156.377 242, 157 242.900, 157 244 C 157 245.100, 157.623 246, 158.383 246 C 159.144 246, 160.002 246.900, 160.290 248 C 160.603 249.197, 161.654 250, 162.906 250 C 164.101 250, 165 250.644, 165 251.500 C 165 252.575, 166.097 253, 168.875 253 C 174.772 253, 179 254.096, 179 255.625 C 179 256.708, 181.333 257, 190 257 C 198.905 257, 201 257.274, 201 258.439 C 201 259.631, 204.310 259.932, 220.250 260.189 C 230.838 260.360, 240.262 260.342, 241.193 260.148 C 242.124 259.955, 243.172 258.492, 243.522 256.898 C 243.872 255.304, 244.798 254, 245.579 254 C 246.361 254, 247 253.086, 247 251.969 C 247 250.851, 247.663 249.683, 248.473 249.372 C 249.283 249.061, 250.233 247.275, 250.584 245.403 C 250.946 243.473, 251.823 242, 252.611 242 C 253.619 242, 254.002 240.559, 254.009 236.750 C 254.024 227.745, 255.150 221, 256.639 221 C 257.622 221, 258 219.472, 258 215.500 C 258 211.354, 258.358 210, 259.455 210 C 260.325 210, 261.173 208.595, 261.566 206.500 C 261.942 204.495, 262.816 203, 263.611 203 C 264.699 203, 265 200.939, 265 193.500 C 265 185.985, 264.705 184, 263.588 184 C 262.720 184, 261.915 185.541, 261.500 188" stroke="none" fill="black" fill-rule="evenodd"/>
</svg>