<svg xmlns="http://www.w3.org/2000/svg" width="300" height="300" viewBox="0 0 300 300" version="1.1">
	<path d="M 111 28.500 C 111 29.333, 110.111 30, 109 30 C 107.242 30, 107 30.667, 107 35.500 L 107 41 117.500 41 C 126.441 41, 128 41.237, 128 42.594 C 128 43.470, 128.900 44.423, 130 44.710 C 131.879 45.202, 132 46.074, 132 59.117 C 132 70.271, 131.728 73, 130.617 73 C 129.856 73, 128.998 73.900, 128.710 75 C 128.238 76.804, 127.346 77, 119.594 77 C 112.622 77, 111 77.283, 111 78.500 C 111 79.676, 109.625 80, 104.625 80 C 96.366 80, 92 80.908, 92 82.625 C 92 83.604, 90.593 84, 87.117 84 C 83.074 84, 82.143 84.344, 81.710 86 C 81.423 87.100, 80.470 88, 79.594 88 C 78.398 88, 78 86.989, 78 83.948 L 78 79.895 72.750 80.198 L 67.500 80.500 67.198 85.750 C 66.980 89.527, 66.489 91, 65.448 91 C 64.460 91, 64 92.112, 64 94.500 C 64 96.944, 64.452 98, 65.500 98 C 66.764 98, 67 100.278, 67 112.500 C 67 124.136, 67.272 127, 68.375 127 C 69.746 127, 71 131.120, 71 135.625 C 71 136.980, 71.594 138, 72.383 138 C 73.144 138, 74.010 138.931, 74.308 140.069 C 74.742 141.729, 75.506 142.075, 78.174 141.819 C 81.134 141.535, 81.535 141.134, 81.819 138.174 C 82.075 135.506, 81.729 134.742, 80.069 134.308 C 78.300 133.845, 78 132.986, 78 128.383 C 78 124.265, 77.648 123, 76.500 123 C 75.289 123, 74.997 121.411, 74.986 114.750 C 74.979 110.213, 74.701 105.487, 74.370 104.250 C 73.816 102.183, 74.102 102, 77.883 102 C 81.333 102, 82 101.676, 82 100 C 82 98.889, 82.667 98, 83.500 98 C 84.325 98, 85 97.325, 85 96.500 C 85 95.667, 85.889 95, 87 95 C 88.100 95, 89 94.377, 89 93.617 C 89 92.041, 92 91.034, 96.750 91.014 C 98.966 91.004, 100 90.523, 100 89.500 C 100 88.379, 101.201 87.997, 104.750 87.986 C 110.923 87.969, 114 87.103, 114 85.383 C 114 84.289, 116.301 84, 125 84 C 133.581 84, 136 83.702, 136 82.647 C 136 81.049, 145.966 80, 161.151 80 C 169.239 80, 171 79.732, 171 78.500 C 171 77.206, 174.500 77, 196.500 77 C 218.500 77, 222 77.206, 222 78.500 C 222 79.325, 221.325 80, 220.500 80 C 219.667 80, 219 80.889, 219 82 C 219 83.333, 218.333 84, 217 84 C 215.381 84, 215 84.667, 215 87.500 C 215 90.333, 214.619 91, 213 91 C 211.667 91, 211 91.667, 211 93 C 211 94.100, 210.375 95, 209.611 95 C 208.816 95, 207.942 96.495, 207.566 98.500 C 207.173 100.595, 206.325 102, 205.455 102 C 204.655 102, 204 102.900, 204 104 C 204 105.100, 203.377 106, 202.617 106 C 201.856 106, 200.998 106.900, 200.710 108 C 200.423 109.100, 199.506 110, 198.673 110 C 197.804 110, 196.878 111.278, 196.500 113 C 196.138 114.650, 195.202 116, 194.421 116 C 193.639 116, 193 116.900, 193 118 C 193 119.810, 192.333 120, 186 120 C 180.727 120, 179 119.661, 179 118.625 C 179 116.984, 174.590 115.954, 170.750 116.700 C 169.238 116.993, 168 117.856, 168 118.617 C 168 119.707, 165.773 120, 157.500 120 C 149.230 120, 147 120.294, 147 121.383 C 147 122.374, 144.878 122.964, 139.500 123.468 C 134.424 123.944, 132 124.586, 132 125.455 C 132 126.242, 130.198 126.943, 127.349 127.264 C 124.551 127.580, 122.340 128.428, 121.799 129.394 C 121.305 130.277, 120.023 131, 118.950 131 C 117.878 131, 117 131.626, 117 132.392 C 117 133.895, 112.516 135.437, 110.954 134.472 C 110.429 134.147, 110 133.234, 110 132.441 C 110 131.357, 108.604 131, 104.361 131 L 98.721 131 99.352 136.250 C 99.699 139.137, 99.987 142.252, 99.991 143.171 C 99.997 144.206, 101.128 145.089, 102.968 145.493 C 105.366 146.020, 106.060 146.804, 106.580 149.572 C 106.933 151.458, 107.812 153, 108.532 153 C 109.252 153, 110.138 154.350, 110.500 156 C 110.862 157.650, 111.798 159, 112.579 159 C 113.570 159, 114 160.211, 114 163 C 114 165.739, 114.436 167, 115.383 167 C 116.669 167, 117.955 169.840, 117.986 172.750 C 117.994 173.438, 117.100 174, 116 174 C 114.667 174, 114 174.667, 114 176 C 114 177.100, 113.377 178, 112.617 178 C 111.331 178, 110.045 180.840, 110.014 183.750 C 110.006 184.438, 110.900 185, 112 185 C 113.619 185, 114 185.667, 114 188.500 C 114 191.833, 113.833 192, 110.500 192 C 108.056 192, 107 192.452, 107 193.500 C 107 194.325, 106.283 195, 105.406 195 C 104.530 195, 103.577 195.900, 103.290 197 C 103.002 198.100, 102.102 199, 101.290 199 C 100.477 199, 99.577 199.900, 99.290 201 C 99.002 202.100, 98.144 203, 97.383 203 C 96.469 203, 96 204.187, 96 206.500 C 96 208.932, 95.546 210, 94.512 210 C 93.549 210, 92.798 211.412, 92.384 214 C 91.998 216.413, 91.200 218, 90.372 218 C 89.348 218, 89 219.672, 89 224.594 C 89 230.346, 88.745 231.254, 87 231.710 C 85.497 232.103, 85 233.074, 85 235.617 C 85 238.333, 85.394 239, 87 239 C 88.619 239, 89 239.667, 89 242.500 C 89 244.944, 89.452 246, 90.500 246 C 91.325 246, 92 246.717, 92 247.594 C 92 248.470, 92.900 249.423, 94 249.710 C 95.107 250, 96 251.074, 96 252.117 C 96 253.152, 96.655 254, 97.455 254 C 98.325 254, 99.173 255.405, 99.566 257.500 C 99.942 259.505, 100.816 261, 101.611 261 C 102.375 261, 103 261.675, 103 262.500 C 103 263.545, 104.052 264, 106.466 264 C 109.869 264, 109.943 263.911, 110.594 259 C 111.025 255.754, 111.739 254, 112.629 254 C 113.562 254, 114 252.722, 114 250 C 114 247.111, 113.583 246, 112.500 246 C 111.588 246, 111 245.069, 111 243.625 C 111 239.120, 109.746 235, 108.375 235 C 107.470 235, 107 233.803, 107 231.500 C 107 228.667, 107.381 228, 109 228 C 110.100 228, 111 227.345, 111 226.545 C 111 225.675, 112.405 224.827, 114.500 224.434 C 116.505 224.058, 118 223.184, 118 222.389 C 118 221.336, 119.694 221, 125 221 C 130.293 221, 132 220.663, 132 219.617 C 132 218.041, 135 217.034, 139.750 217.014 C 141.966 217.004, 143 216.523, 143 215.500 C 143 214.310, 144.444 214, 150 214 C 156.333 214, 157 213.810, 157 212 C 157 210.052, 157.667 210, 182.500 210 C 205.166 210, 208 210.177, 208 211.594 C 208 212.470, 207.100 213.423, 206 213.710 C 204.900 213.998, 204 214.856, 204 215.617 C 204 216.377, 203.325 217, 202.500 217 C 201.675 217, 201 217.717, 201 218.594 C 201 219.470, 200.100 220.423, 199 220.710 C 197.900 220.998, 197 221.806, 197 222.505 C 197 223.205, 195.425 224.073, 193.500 224.434 C 191.405 224.827, 190 225.675, 190 226.545 C 190 227.345, 189.100 228, 188 228 C 186.900 228, 186 228.655, 186 229.455 C 186 230.325, 184.595 231.173, 182.500 231.566 C 180.495 231.942, 179 232.816, 179 233.611 C 179 234.375, 178.100 235, 177 235 C 175.667 235, 175 235.667, 175 237 C 175 238.619, 174.333 239, 171.500 239 C 169.187 239, 168 239.469, 168 240.383 C 168 241.144, 167.100 242.002, 166 242.290 C 164.900 242.577, 164 243.530, 164 244.406 C 164 245.561, 163.036 246, 160.500 246 C 158.187 246, 157 246.469, 157 247.383 C 157 248.899, 154.032 249.965, 149.750 249.986 C 147.978 249.995, 147 250.534, 147 251.500 C 147 252.700, 145.500 253, 139.500 253 C 133.803 253, 132 253.331, 132 254.375 C 132 255.746, 127.880 257, 123.375 257 C 121.931 257, 121 257.588, 121 258.500 C 121 259.325, 120.325 260, 119.500 260 C 118.667 260, 118 260.889, 118 262 C 118 263.111, 118.667 264, 119.500 264 C 120.333 264, 121 264.889, 121 266 C 121 267.439, 121.667 268, 123.375 268 C 127.880 268, 132 266.746, 132 265.375 C 132 264.339, 133.727 264, 139 264 C 144.262 264, 146 263.660, 146 262.629 C 146 260.727, 157.751 259.674, 169.082 260.560 C 175.630 261.073, 178 261.622, 178 262.629 C 178 263.425, 179.049 264, 180.500 264 C 182.056 264, 183 263.433, 183 262.500 C 183 261.675, 183.675 261, 184.500 261 C 185.548 261, 186 262.056, 186 264.500 C 186 266.944, 186.452 268, 187.500 268 C 188.325 268, 189 268.675, 189 269.500 C 189 270.333, 189.889 271, 191 271 C 192.100 271, 193 270.377, 193 269.617 C 193 268.856, 193.900 267.998, 195 267.710 C 196.435 267.335, 197 266.346, 197 264.210 C 197 262.074, 196.435 261.086, 195 260.710 C 193.900 260.423, 193 259.491, 193 258.639 C 193 257.661, 191.710 256.849, 189.500 256.434 C 187.495 256.058, 186 255.184, 186 254.389 C 186 253.307, 184.013 253, 177 253 L 168 253 168 249.500 L 168 246 173.500 246 C 178.333 246, 179 245.758, 179 244 C 179 242.889, 179.667 242, 180.500 242 C 181.325 242, 182 241.325, 182 240.500 C 182 239.452, 183.056 239, 185.500 239 C 188.036 239, 189 238.561, 189 237.406 C 189 236.530, 189.900 235.577, 191 235.290 C 192.100 235.002, 193 234.144, 193 233.383 C 193 232.469, 194.187 232, 196.500 232 C 199.333 232, 200 231.619, 200 230 C 200 228.667, 200.667 228, 202 228 C 203.100 228, 204 227.345, 204 226.545 C 204 225.675, 205.405 224.827, 207.500 224.434 C 209.425 224.073, 211.008 223.265, 211.017 222.639 C 211.038 221.256, 215.388 217, 216.780 217 C 217.328 217, 218.073 215.425, 218.434 213.500 C 218.827 211.405, 219.675 210, 220.545 210 C 221.620 210, 222 208.723, 222 205.117 C 222 200.898, 221.694 200.151, 219.750 199.630 C 218.512 199.299, 206.363 199.021, 192.750 199.014 C 168.662 199, 168 199.054, 168 201 C 168 202.822, 167.333 203, 160.500 203 C 154.500 203, 153 203.300, 153 204.500 C 153 205.647, 151.736 206, 147.625 206 C 140.316 206, 136 206.975, 136 208.625 C 136 209.625, 134.500 210, 130.500 210 C 126.455 210, 125 210.370, 125 211.399 C 125 212.396, 122.995 212.998, 118 213.500 C 113.005 214.002, 111 214.604, 111 215.601 C 111 216.566, 109.760 217, 107 217 C 103.095 217, 103 216.917, 103 213.500 C 103 210.667, 103.381 210, 105 210 C 106.619 210, 107 209.333, 107 206.500 C 107 203.667, 107.381 203, 109 203 C 110.111 203, 111 202.333, 111 201.500 C 111 200.675, 111.675 200, 112.500 200 C 113.333 200, 114 199.111, 114 198 C 114 196.381, 114.667 196, 117.500 196 C 120.333 196, 121 195.619, 121 194 C 121 192.667, 121.667 192, 123 192 C 124.100 192, 125 191.375, 125 190.611 C 125 189.816, 126.495 188.942, 128.500 188.566 C 130.595 188.173, 132 187.325, 132 186.455 C 132 185.655, 132.900 185, 134 185 C 135.100 185, 136 184.377, 136 183.617 C 136 182.101, 138.968 181.035, 143.250 181.014 C 144.923 181.005, 146 180.456, 146 179.611 C 146 178.816, 147.495 177.942, 149.500 177.566 C 151.595 177.173, 153 176.325, 153 175.455 C 153 174.424, 154.166 174, 157 174 C 159.834 174, 161 173.576, 161 172.545 C 161 171.675, 162.405 170.827, 164.500 170.434 C 167.033 169.959, 168 169.255, 168 167.889 C 168 166.850, 168.623 166, 169.383 166 C 170.899 166, 171.965 163.032, 171.986 158.750 C 171.999 156.206, 171.700 156, 168 156 C 165.007 156, 164 155.599, 164 154.406 C 164 153.530, 164.900 152.577, 166 152.290 C 167.100 152.002, 168 151.197, 168 150.500 C 168 149.803, 168.900 148.998, 170 148.710 C 171.100 148.423, 172 147.470, 172 146.594 C 172 145.717, 172.675 145, 173.500 145 C 174.325 145, 175 144.325, 175 143.500 C 175 142.667, 175.889 142, 177 142 C 178.333 142, 179 141.333, 179 140 C 179 138.667, 179.667 138, 181 138 C 182.111 138, 183 137.333, 183 136.500 C 183 135.675, 183.675 135, 184.500 135 C 185.333 135, 186 134.111, 186 133 C 186 131.667, 186.667 131, 188 131 C 189.333 131, 190 130.333, 190 129 C 190 127.667, 190.667 127, 192 127 C 193.100 127, 194 126.361, 194 125.579 C 194 124.798, 195.350 123.862, 197 123.500 C 198.650 123.138, 200 122.202, 200 121.421 C 200 120.639, 200.900 120, 202 120 C 203.333 120, 204 119.333, 204 118 C 204 116.889, 204.667 116, 205.500 116 C 206.325 116, 207 115.325, 207 114.500 C 207 113.667, 207.889 113, 209 113 C 210.333 113, 211 112.333, 211 111 C 211 109.900, 211.655 109, 212.455 109 C 213.325 109, 214.173 107.595, 214.566 105.500 C 214.927 103.575, 215.795 102, 216.495 102 C 217.194 102, 218.002 101.100, 218.290 100 C 218.577 98.900, 219.530 98, 220.406 98 C 221.561 98, 222 97.036, 222 94.500 C 222 91.667, 222.381 91, 224 91 C 225.111 91, 226 90.333, 226 89.500 C 226 88.675, 226.675 88, 227.500 88 C 228.538 88, 229 86.957, 229 84.617 C 229 82.074, 229.497 81.103, 231 80.710 C 232.661 80.276, 233 79.346, 233 75.219 C 233 70.454, 232.872 70.224, 229.875 69.625 C 225.818 68.814, 201.831 68.828, 175.161 69.659 C 158.461 70.179, 154 70.601, 154 71.659 C 154 72.681, 151.859 73, 145 73 L 136 73 136 69.500 C 136 67.216, 136.472 66, 137.360 66 C 139.167 66, 139.964 57.978, 139.268 46.813 C 138.810 39.475, 138.445 38.088, 136.864 37.675 C 135.839 37.407, 135 36.491, 135 35.639 C 135 34.661, 133.710 33.849, 131.500 33.434 C 129.495 33.058, 128 32.184, 128 31.389 C 128 30.336, 126.306 30, 121 30 C 115.444 30, 114 29.690, 114 28.500 C 114 27.675, 113.325 27, 112.500 27 C 111.675 27, 111 27.675, 111 28.500 M 172 125.500 C 172 126.706, 170.458 127, 164.125 127 C 154.432 127, 150 127.824, 150 129.625 C 150 130.661, 148.273 131, 143 131 C 137.638 131, 136 131.330, 136 132.412 C 136 133.280, 134.459 134.085, 132 134.500 C 129.541 134.915, 128 135.720, 128 136.588 C 128 137.365, 127.325 138, 126.500 138 C 125.675 138, 125 138.623, 125 139.383 C 125 140.144, 124.100 141.002, 123 141.290 C 121.468 141.690, 121 142.654, 121 145.406 C 121 147.934, 120.555 149, 119.500 149 C 118.675 149, 118 149.675, 118 150.500 C 118 151.325, 118.675 152, 119.500 152 C 120.555 152, 121 153.066, 121 155.594 C 121 158.346, 121.468 159.310, 123 159.710 C 124.503 160.103, 125 161.074, 125 163.617 C 125 165.664, 125.494 166.995, 126.250 166.986 C 129.160 166.955, 132 165.669, 132 164.383 C 132 163.373, 133.484 163, 137.500 163 C 141.646 163, 143 162.642, 143 161.545 C 143 160.675, 144.405 159.827, 146.500 159.434 C 148.505 159.058, 150 158.184, 150 157.389 C 150 156.625, 150.900 156, 152 156 C 153.333 156, 154 155.333, 154 154 C 154 152.889, 154.667 152, 155.500 152 C 156.325 152, 157 151.377, 157 150.617 C 157 149.856, 157.900 148.998, 159 148.710 C 160.100 148.423, 161 147.470, 161 146.594 C 161 145.717, 161.675 145, 162.500 145 C 163.325 145, 164 144.283, 164 143.406 C 164 142.530, 164.900 141.577, 166 141.290 C 167.100 141.002, 168 140.144, 168 139.383 C 168 138.623, 168.655 138, 169.455 138 C 170.325 138, 171.173 136.595, 171.566 134.500 C 171.942 132.495, 172.816 131, 173.611 131 C 174.532 131, 175 129.820, 175 127.500 C 175 125.056, 174.548 124, 173.500 124 C 172.675 124, 172 124.675, 172 125.500" stroke="none" fill="black" fill-rule="evenodd"/>
</svg>