<svg xmlns="http://www.w3.org/2000/svg" width="300" height="300" viewBox="0 0 300 300" version="1.1">
	<path d="M 77 49.383 C 77 50.144, 76.100 51.002, 75 51.290 C 73.185 51.764, 73 52.654, 73 60.906 L 73 70 66 70 C 60.444 70, 59 70.310, 59 71.500 C 59 72.652, 57.722 73, 53.500 73 L 48 73 48 78.500 L 48 84 52.883 84 C 56.926 84, 57.857 83.656, 58.290 82 C 58.751 80.237, 59.654 80, 65.906 80 L 73 80 73 127 L 73 174 68 174 C 64.361 174, 63 174.384, 63 175.412 C 63 176.280, 61.459 177.085, 59 177.500 L 55 178.176 55 183.088 L 55 188 64 188 C 71.333 188, 73 187.722, 73 186.500 C 73 185.348, 74.278 185, 78.500 185 C 83.333 185, 84 184.758, 84 183 C 84 181.667, 84.667 181, 86 181 C 87.111 181, 88 180.333, 88 179.500 C 88 178.534, 88.978 177.995, 90.750 177.986 C 95.032 177.965, 98 176.899, 98 175.383 C 98 174.469, 99.187 174, 101.500 174 C 103.944 174, 105 173.548, 105 172.500 C 105 171.667, 105.889 171, 107 171 C 108.810 171, 109 171.667, 109 178 C 109 183.306, 108.664 185, 107.611 185 C 106.816 185, 105.942 186.495, 105.566 188.500 C 105.173 190.595, 104.325 192, 103.455 192 C 102.655 192, 102 192.900, 102 194 C 102 195.333, 101.333 196, 100 196 C 98.889 196, 98 196.667, 98 197.500 C 98 198.325, 97.325 199, 96.500 199 C 95.667 199, 95 199.889, 95 201 C 95 202.333, 94.333 203, 93 203 C 91.381 203, 91 203.667, 91 206.500 C 91 209.333, 90.619 210, 89 210 C 87.889 210, 87 210.667, 87 211.500 C 87 212.325, 86.325 213, 85.500 213 C 84.667 213, 84 213.889, 84 215 C 84 216.163, 83.333 217, 82.406 217 C 81.530 217, 80.577 217.900, 80.290 219 C 80.002 220.100, 79.144 221, 78.383 221 C 77.623 221, 77 221.900, 77 223 C 77 224.100, 76.361 225, 75.579 225 C 74.798 225, 73.872 226.304, 73.522 227.898 C 73.152 229.584, 72.073 231.009, 70.943 231.305 C 69.874 231.584, 69 232.530, 69 233.406 C 69 234.283, 68.325 235, 67.500 235 C 66.667 235, 66 235.889, 66 237 C 66 238.333, 65.333 239, 64 239 C 62.900 239, 62 239.623, 62 240.383 C 62 241.144, 61.100 242.002, 60 242.290 C 58.900 242.577, 58 243.530, 58 244.406 C 58 245.283, 57.325 246, 56.500 246 C 55.675 246, 55 246.675, 55 247.500 C 55 248.325, 54.325 249, 53.500 249 C 52.452 249, 52 250.056, 52 252.500 C 52 254.944, 52.452 256, 53.500 256 C 54.325 256, 55 255.602, 55 255.117 C 55 254.631, 55.900 253.998, 57 253.710 C 58.100 253.423, 59 252.470, 59 251.594 C 59 250.667, 59.837 250, 61 250 C 62.333 250, 63 249.333, 63 248 C 63 246.889, 63.667 246, 64.500 246 C 65.325 246, 66 245.377, 66 244.617 C 66 243.856, 66.900 242.998, 68 242.710 C 69.100 242.423, 70 241.470, 70 240.594 C 70 239.717, 70.675 239, 71.500 239 C 72.325 239, 73 238.283, 73 237.406 C 73 236.530, 73.900 235.577, 75 235.290 C 76.100 235.002, 77 234.197, 77 233.500 C 77 232.803, 77.900 231.998, 79 231.710 C 80.100 231.423, 81 230.470, 81 229.594 C 81 228.717, 81.675 228, 82.500 228 C 83.333 228, 84 227.111, 84 226 C 84 224.667, 84.667 224, 86 224 C 87.111 224, 88 223.333, 88 222.500 C 88 221.675, 88.625 221, 89.389 221 C 90.175 221, 91.053 219.531, 91.413 217.610 C 92.117 213.860, 94.357 212.721, 99.149 213.680 C 101.067 214.063, 102 214.863, 102 216.125 C 102 217.156, 102.627 218, 103.393 218 C 104.159 218, 105.045 218.675, 105.362 219.500 C 105.678 220.325, 106.851 221, 107.969 221 C 109.086 221, 110 221.639, 110 222.421 C 110 223.202, 111.350 224.138, 113 224.500 C 114.650 224.862, 116 225.798, 116 226.579 C 116 227.361, 116.900 228, 118 228 C 119.104 228, 120 228.667, 120 229.488 C 120 230.451, 121.412 231.202, 124 231.616 C 126.413 232.002, 128 232.800, 128 233.628 C 128 234.704, 130.268 235, 138.500 235 C 147.167 235, 149 234.738, 149 233.500 C 149 232.667, 149.889 232, 151 232 C 153.090 232, 153.376 231.007, 152.370 227.250 C 151.699 224.747, 149 224.146, 149 226.500 C 149 227.700, 147.500 228, 141.500 228 C 135.604 228, 134 227.689, 134 226.545 C 134 225.675, 132.595 224.827, 130.500 224.434 C 128.495 224.058, 127 223.184, 127 222.389 C 127 221.468, 125.820 221, 123.500 221 C 120.667 221, 120 220.619, 120 219 C 120 217.667, 119.333 217, 118 217 C 116.889 217, 116 216.333, 116 215.500 C 116 214.675, 115.325 214, 114.500 214 C 113.667 214, 113 213.111, 113 212 C 113 210.667, 112.333 210, 111 210 C 109.889 210, 109 209.333, 109 208.500 C 109 207.675, 108.352 207, 107.559 207 C 106.766 207, 105.868 206.596, 105.563 206.103 C 104.634 204.598, 106.167 199, 107.508 199 C 108.200 199, 109.002 198.100, 109.290 197 C 109.577 195.900, 110.530 195, 111.406 195 C 112.283 195, 113 194.325, 113 193.500 C 113 192.675, 113.675 192, 114.500 192 C 115.333 192, 116 191.111, 116 190 C 116 188.667, 116.667 188, 118 188 C 119.619 188, 120 187.333, 120 184.500 C 120 181.190, 120.183 181, 123.383 181 C 125.926 181, 126.897 180.503, 127.290 179 C 127.577 177.900, 128.530 177, 129.406 177 C 130.283 177, 131 176.325, 131 175.500 C 131 174.675, 131.647 174, 132.439 174 C 133.374 174, 134.110 172.450, 134.542 169.571 C 135.261 164.775, 134.694 163, 132.441 163 C 131.648 163, 131 162.325, 131 161.500 C 131 160.348, 129.722 160, 125.500 160 L 120 160 120 152.500 C 120 146.781, 120.329 145, 121.383 145 C 122.999 145, 123.967 141.979, 123.986 136.875 C 124.008 131.242, 122.886 127, 121.375 127 C 120.245 127, 120 122.545, 120 102 L 120 77 125.500 77 C 129.722 77, 131 76.652, 131 75.500 C 131 74.675, 131.648 74, 132.441 74 C 134.530 74, 135.074 72.620, 134.371 69.103 C 133.770 66.101, 133.578 66, 128.451 66 L 123.153 66 123.324 61.581 C 123.418 59.150, 123.181 56.847, 122.797 56.463 C 122.413 56.080, 120.052 55.535, 117.549 55.253 C 113.414 54.787, 113 54.934, 113 56.870 C 113 58.041, 112.377 59, 111.617 59 C 110.118 59, 109.035 61.959, 109.014 66.111 C 109.001 68.511, 108.577 68.772, 103.750 69.352 C 100.862 69.699, 95.237 69.987, 91.250 69.991 L 84 70 84 63.111 L 84 56.223 87.500 55.566 C 90.082 55.082, 91 54.397, 91 52.955 C 91 51.880, 90.325 51, 89.500 51 C 88.675 51, 88 50.325, 88 49.500 C 88 48.348, 86.722 48, 82.500 48 C 78.484 48, 77 48.373, 77 49.383 M 181 64.500 C 181 65.722, 179.333 66, 172 66 C 164.791 66, 163 66.290, 163 67.455 C 163 68.325, 161.595 69.173, 159.500 69.566 C 156.459 70.136, 156 70.602, 156 73.111 C 156 75.088, 156.503 76, 157.594 76 C 158.470 76, 159.423 76.900, 159.710 78 C 159.998 79.100, 160.806 80, 161.505 80 C 162.205 80, 163.065 81.532, 163.416 83.403 C 163.767 85.275, 164.717 87.061, 165.527 87.372 C 166.665 87.809, 167 89.878, 167 96.469 C 167 103.385, 167.284 105, 168.500 105 C 169.754 105, 170.001 107.087, 170.009 117.750 C 170.020 133.839, 170.830 141, 172.639 141 C 173.622 141, 174 142.528, 174 146.500 C 174 150.722, 173.652 152, 172.500 152 C 171.667 152, 171 152.889, 171 154 C 171 155.111, 171.667 156, 172.500 156 C 173.753 156, 174 158.056, 174 168.500 C 174 178.335, 173.712 181, 172.648 181 C 171.086 181, 170.016 191.581, 170.006 207.125 L 170 216.750 173.103 217.371 C 176.620 218.074, 178 217.530, 178 215.441 C 178 214.648, 178.675 214, 179.500 214 C 180.779 214, 181 211.278, 181 195.500 C 181 179.722, 181.221 177, 182.500 177 C 183.325 177, 184 176.325, 184 175.500 C 184 174.417, 185.111 174, 188 174 C 191.878 174, 192 173.897, 192 170.617 C 192 168.074, 192.497 167.103, 194 166.710 C 195.100 166.423, 196 165.470, 196 164.594 C 196 163.667, 196.837 163, 198 163 C 199.111 163, 200 162.333, 200 161.500 C 200 160.500, 201 160, 203 160 C 205.333 160, 206 159.556, 206 158 C 206 156.667, 206.667 156, 208 156 C 209.333 156, 210 156.667, 210 158 C 210 159.111, 210.667 160, 211.500 160 C 212.683 160, 213.004 161.425, 213.019 166.750 C 213.030 170.463, 213.278 183.288, 213.569 195.250 C 214.093 216.683, 214.070 217, 212.050 217 C 210.182 217, 210 216.389, 210 210.117 C 210 204.074, 209.756 203.169, 208 202.710 C 206.330 202.274, 206 201.346, 206 197.094 C 206 193.233, 205.637 192, 204.500 192 C 203.300 192, 203 193.500, 203 199.500 C 203 205.500, 203.300 207, 204.500 207 C 205.621 207, 206.003 208.201, 206.014 211.750 C 206.031 217.923, 206.897 221, 208.617 221 C 209.531 221, 210 222.187, 210 224.500 C 210 226.944, 210.452 228, 211.500 228 C 212.555 228, 213 229.066, 213 231.594 C 213 234.346, 213.468 235.310, 215 235.710 C 216.656 236.143, 217 237.074, 217 241.117 L 217 246 221 246 C 223.889 246, 225 245.583, 225 244.500 C 225 243.675, 225.675 243, 226.500 243 C 227.583 243, 228 241.889, 228 239 C 228 236.243, 227.566 235, 226.604 235 C 225.507 235, 225.053 231.896, 224.483 220.500 C 223.918 209.193, 223.455 206, 222.379 206 C 221.239 206, 221 201.056, 221 177.500 L 221 149 224.500 149 C 226.803 149, 228 148.530, 228 147.625 C 228 146.096, 232.228 145, 238.125 145 C 240.903 145, 242 144.575, 242 143.500 C 242 142.445, 243.066 142, 245.594 142 C 248.346 142, 249.310 141.532, 249.710 140 C 250 138.893, 251.074 138, 252.117 138 C 254.094 138, 254.366 136.969, 253.370 133.250 C 252.699 130.747, 250 130.146, 250 132.500 C 250 133.523, 248.966 134.004, 246.750 134.014 C 242 134.034, 239 135.041, 239 136.617 C 239 137.627, 237.516 138, 233.500 138 C 229.278 138, 228 138.348, 228 139.500 C 228 140.325, 227.438 141.006, 226.750 141.014 C 226.063 141.021, 224.488 141.299, 223.250 141.630 L 221 142.233 221 107.617 C 221 73.667, 220.961 73, 219 73 C 217.900 73, 217 72.345, 217 71.545 C 217 70.675, 215.595 69.827, 213.500 69.434 C 211.495 69.058, 210 68.184, 210 67.389 C 210 66.372, 208.526 66, 204.500 66 C 200.278 66, 199 65.652, 199 64.500 C 199 63.278, 197.333 63, 190 63 C 182.667 63, 181 63.278, 181 64.500 M 177.201 74.606 C 176.660 75.572, 174.449 76.420, 171.651 76.736 C 165.031 77.482, 165.433 79.805, 172.250 80.198 L 177.500 80.500 177.810 84.250 C 178.013 86.703, 178.619 88, 179.560 88 C 180.676 88, 181 89.575, 181 95 C 181 100.556, 180.690 102, 179.500 102 C 178.310 102, 178 103.444, 178 109 L 178 116 181.500 116 C 183.944 116, 185 115.548, 185 114.500 C 185 113.278, 186.667 113, 194 113 C 201.333 113, 203 113.278, 203 114.500 C 203 115.548, 204.056 116, 206.500 116 L 210 116 210 98 C 210 83.114, 209.754 80, 208.579 80 C 207.798 80, 206.872 78.696, 206.522 77.102 C 205.707 73.387, 204.247 73.031, 189.800 73.014 C 180.087 73.002, 177.947 73.273, 177.201 74.606 M 88 78.500 C 88 79.333, 87.111 80, 86 80 C 84.222 80, 84 80.667, 84 86 C 84 90.667, 83.667 92, 82.500 92 C 81.675 92, 81 92.450, 81 93 C 81 93.550, 81.675 94, 82.500 94 C 83.742 94, 84 95.889, 84 105 C 84 114.111, 83.742 116, 82.500 116 C 81.667 116, 81 116.889, 81 118 C 81 119.111, 81.667 120, 82.500 120 C 83.325 120, 84 120.675, 84 121.500 C 84 122.325, 83.325 123, 82.500 123 C 81.567 123, 81 123.944, 81 125.500 C 81 127.056, 81.567 128, 82.500 128 C 83.633 128, 84 129.222, 84 133 C 84 136.778, 83.633 138, 82.500 138 C 81.238 138, 81 140.217, 81 151.955 L 81 165.909 84.500 166.566 C 88.744 167.362, 94.710 166.369, 95.241 164.778 C 95.462 164.114, 98.486 163.436, 102.314 163.193 C 108.045 162.828, 109 162.498, 109 160.884 C 109 159.848, 109.675 159, 110.500 159 C 111.325 159, 112.039 158.438, 112.088 157.750 C 112.136 157.063, 112.351 151.618, 112.566 145.651 C 112.932 135.509, 112.828 134.768, 110.979 134.284 C 109.890 134, 109 133.144, 109 132.383 C 109 131.623, 108.325 131, 107.500 131 C 106.675 131, 106 131.635, 106 132.412 C 106 133.280, 104.459 134.085, 102 134.500 C 99.541 134.915, 98 135.720, 98 136.588 C 98 137.365, 97.100 138, 96 138 C 94.900 138, 94 137.361, 94 136.579 C 94 135.798, 92.692 134.872, 91.094 134.521 C 87.908 133.821, 86.526 130.738, 87.557 126.630 C 88.058 124.635, 88.968 124.163, 93.326 123.639 C 96.172 123.297, 100.862 123.013, 103.750 123.009 C 108.901 123, 109 122.944, 109 120.034 C 109 117.231, 108.727 117.033, 104 116.406 C 100.997 116.007, 99 115.239, 99 114.482 C 99 113.790, 97.471 112.936, 95.602 112.585 C 93.067 112.109, 92.043 111.308, 91.571 109.428 C 90.839 106.509, 91.516 105, 93.559 105 C 94.352 105, 95 104.325, 95 103.500 C 95 102.452, 96.056 102, 98.500 102 C 100.878 102, 102 102.461, 102 103.439 C 102 105.044, 110.061 106.699, 112.010 105.494 C 113.506 104.570, 112.333 99.777, 110.337 98.654 C 109.272 98.054, 108.906 96.450, 109.081 93.154 C 109.217 90.594, 109.254 85.912, 109.164 82.750 L 109 77 98.500 77 C 89.833 77, 88 77.262, 88 78.500 M 181.014 139.250 C 181.021 149.838, 181.299 159.512, 181.630 160.750 C 182.294 163.226, 184 163.829, 184 161.588 C 184 160.720, 185.541 159.915, 188 159.500 C 190.459 159.085, 192 158.280, 192 157.412 C 192 156.635, 192.900 156, 194 156 C 195.100 156, 196 155.345, 196 154.545 C 196 153.675, 197.405 152.827, 199.500 152.434 C 201.505 152.058, 203 151.184, 203 150.389 C 203 149.468, 204.180 149, 206.500 149 C 209.333 149, 210 148.619, 210 147 C 210 145.889, 210.667 145, 211.500 145 C 212.548 145, 213 143.944, 213 141.500 C 213 139.056, 212.548 138, 211.500 138 C 210.310 138, 210 136.556, 210 131 C 210 124.034, 209.987 124, 207.250 123.986 C 202.968 123.965, 200 122.899, 200 121.383 C 200 120.623, 199.100 120, 198 120 C 196.900 120, 196 120.619, 196 121.375 C 196 123.015, 190.784 124.235, 187.402 123.386 C 186.081 123.055, 185 122.157, 185 121.392 C 185 120.626, 184.100 120, 183 120 C 181.069 120, 181 120.662, 181.014 139.250" stroke="none" fill="black" fill-rule="evenodd"/>
</svg>