<svg xmlns="http://www.w3.org/2000/svg" width="300" height="300" viewBox="0 0 300 300" version="1.1">
	<path d="M 152 46 C 152 47.111, 151.333 48, 150.500 48 C 149.236 48, 149 50.278, 149 62.500 C 149 74.722, 149.236 77, 150.500 77 C 151.690 77, 152 78.444, 152 84 L 152 91 146.906 91 C 142.654 91, 141.726 91.330, 141.290 93 C 141.002 94.100, 140.144 95, 139.383 95 C 138.469 95, 138 96.187, 138 98.500 C 138 100.944, 138.452 102, 139.500 102 C 140.412 102, 141 102.931, 141 104.375 C 141 108.880, 142.254 113, 143.625 113 C 144.625 113, 145 114.500, 145 118.500 C 145 122.516, 145.373 124, 146.383 124 C 148.216 124, 148.970 127.139, 148.986 134.844 C 148.998 140.352, 148.737 141.256, 147 141.710 C 145.497 142.103, 145 143.074, 145 145.617 C 145 148.333, 145.394 149, 147 149 C 148.333 149, 149 149.667, 149 151 C 149 152.111, 149.667 153, 150.500 153 C 151.325 153, 152 153.675, 152 154.500 C 152 155.538, 153.043 156, 155.383 156 C 159.077 156, 159.960 154.514, 159.986 148.250 C 159.996 146.034, 160.477 145, 161.500 145 C 162.325 145, 163 144.375, 163 143.611 C 163 142.816, 164.495 141.942, 166.500 141.566 C 168.595 141.173, 170 140.325, 170 139.455 C 170 138.311, 171.604 138, 177.500 138 L 185 138 185 141.500 C 185 144.333, 185.381 145, 187 145 C 188.111 145, 189 144.333, 189 143.500 C 189 142.675, 189.675 142, 190.500 142 C 191.700 142, 192 140.500, 192 134.500 L 192 127 188.500 127 C 186.197 127, 185 126.530, 185 125.625 C 185 123.984, 180.590 122.954, 176.750 123.700 C 175.238 123.993, 174 124.856, 174 125.617 C 174 126.663, 172.293 127, 167 127 L 160 127 160 122 C 160 118.222, 160.367 117, 161.500 117 C 162.583 117, 163 115.889, 163 113 C 163 109.667, 163.333 109, 165 109 C 166.111 109, 167 108.333, 167 107.500 C 167 106.675, 167.675 106, 168.500 106 C 169.333 106, 170 105.111, 170 104 C 170 102.148, 170.667 102, 179 102 C 186.568 102, 188 102.254, 188 103.594 C 188 104.470, 188.900 105.423, 190 105.710 C 191.107 106, 192 107.074, 192 108.117 C 192 109.152, 192.614 110, 193.364 110 C 195.237 110, 196.002 116.514, 195.991 132.390 C 195.980 148.824, 195.181 156, 193.361 156 C 192.612 156, 192 156.900, 192 158 C 192 159.333, 191.333 160, 190 160 C 188.889 160, 188 160.667, 188 161.500 C 188 162.325, 187.325 163, 186.500 163 C 185.675 163, 185 162.325, 185 161.500 C 185 160.241, 182.628 159.976, 170.250 159.851 C 149.102 159.637, 142.887 159.779, 142.174 160.493 C 141.258 161.408, 141.404 168.737, 142.357 169.689 C 142.803 170.135, 151.636 170.433, 161.986 170.352 L 180.803 170.203 181.152 178.672 C 181.431 185.461, 181.847 187.335, 183.250 188.120 C 185.032 189.117, 185.483 192.595, 184.370 196.750 C 183.778 198.957, 183.477 199, 168.633 199.014 C 152.323 199.028, 149 199.469, 149 201.617 C 149 202.739, 145.882 203, 132.500 203 C 118.910 203, 116 203.251, 116 204.421 C 116 205.202, 114.650 206.138, 113 206.500 C 110.537 207.041, 110 207.660, 110 209.963 C 110 213.617, 111.454 213.969, 126.625 213.986 C 140.410 214.002, 145 213.350, 145 211.375 C 145 210.272, 147.864 210, 159.500 210 C 171.063 210, 174 209.724, 174 208.639 C 174 207.120, 182.317 205.747, 185.878 206.678 C 187.619 207.134, 188 207.993, 188 211.466 C 188 221.445, 189.295 231, 190.647 231 C 191.712 231, 192 233.639, 192 243.383 C 192 257.177, 191.873 256.953, 199.750 256.986 C 202.338 256.997, 203 256.593, 203 255 C 203 253.900, 203.619 253, 204.375 253 C 206.016 253, 207.046 248.590, 206.300 244.750 C 206.007 243.237, 205.144 242, 204.383 242 C 203.623 242, 203 241.325, 203 240.500 C 203 239.675, 202.381 239, 201.625 239 C 199.824 239, 199 234.568, 199 224.875 C 199 218.542, 198.706 217, 197.500 217 C 196.348 217, 196 215.722, 196 211.500 C 196 207.278, 196.348 206, 197.500 206 C 198.325 206, 199 205.325, 199 204.500 C 199 203.300, 200.500 203, 206.500 203 C 212.233 203, 214 202.673, 214 201.611 C 214 199.563, 219.903 198.782, 233.500 199.032 C 249.330 199.324, 250 199.261, 250 197.500 C 250 196.675, 250.675 196, 251.500 196 C 252.580 196, 253 194.895, 253 192.052 L 253 188.105 243.750 188.434 C 238.662 188.615, 233.037 188.816, 231.250 188.882 C 229.080 188.961, 228 189.499, 228 190.500 C 228 191.742, 226.111 192, 217 192 C 207.889 192, 206 192.258, 206 193.500 C 206 194.652, 204.722 195, 200.500 195 C 195.056 195, 195 194.970, 195 192 C 195 190, 194.500 189, 193.500 189 C 192.417 189, 192 187.889, 192 185 C 192 182.111, 192.417 181, 193.500 181 C 194.325 181, 195 180.325, 195 179.500 C 195 178.675, 194.325 178, 193.500 178 C 192.667 178, 192 177.111, 192 176 C 192 174.667, 192.667 174, 194 174 C 195.333 174, 196 173.333, 196 172 C 196 170.889, 196.667 170, 197.500 170 C 198.548 170, 199 168.944, 199 166.500 C 199 163.667, 199.381 163, 201 163 C 202.758 163, 203 162.333, 203 157.500 C 203 153.432, 203.367 152, 204.411 152 C 206.187 152, 206.617 145.276, 206.180 124.337 C 205.919 111.856, 205.593 109, 204.430 109 C 203.462 109, 203 107.868, 203 105.500 C 203 102.667, 202.619 102, 201 102 C 199.667 102, 199 101.333, 199 100 C 199 98.889, 198.333 98, 197.500 98 C 196.675 98, 196 97.325, 196 96.500 C 196 95.667, 195.111 95, 194 95 C 192.667 95, 192 94.333, 192 93 C 192 91.381, 191.333 91, 188.500 91 C 186.056 91, 185 90.548, 185 89.500 C 185 88.348, 183.722 88, 179.500 88 C 175.278 88, 174 88.348, 174 89.500 C 174 90.538, 172.957 91, 170.617 91 C 168.074 91, 167.103 91.497, 166.710 93 C 166.329 94.456, 165.346 95, 163.094 95 L 160 95 160 84.545 L 160 74.091 163.500 73.434 C 165.474 73.064, 167 72.181, 167 71.410 C 167 70.308, 170.843 69.990, 186.750 69.771 L 206.500 69.500 206.802 64.250 L 207.105 59 196.052 59 C 186.895 59, 185 59.257, 185 60.500 C 185 61.735, 183.188 62.002, 174.750 62.014 C 169.113 62.021, 163.488 62.299, 162.250 62.630 C 160.183 63.184, 160 62.898, 160 59.117 C 160 55.079, 160.067 55, 163.500 55 C 165.944 55, 167 54.548, 167 53.500 C 167 52.675, 167.675 52, 168.500 52 C 169.333 52, 170 51.111, 170 50 C 170 48.462, 169.333 48, 167.117 48 C 165.074 48, 164.081 47.417, 163.710 46 C 163.266 44.301, 162.346 44, 157.594 44 C 152.667 44, 152 44.238, 152 46 M 80 71.500 C 80 72.325, 79.377 73, 78.617 73 C 76.577 73, 76.143 77.003, 76.750 90.187 C 77.164 99.182, 77.617 102, 78.647 102 C 79.702 102, 80 104.421, 80 113 C 80 123.333, 79.879 124, 78 124 C 76.889 124, 76 124.667, 76 125.500 C 76 126.500, 75 127, 73 127 C 70.238 127, 70 127.278, 70 130.500 C 70 132.944, 70.452 134, 71.500 134 C 72.333 134, 73 134.889, 73 136 C 73 137.667, 73.667 138, 77 138 L 81 138 81 143.500 C 81 147.722, 81.348 149, 82.500 149 C 83.802 149, 84 153.222, 84 181 C 84 212.333, 84.042 213, 86 213 C 87.111 213, 88 212.333, 88 211.500 C 88 210.675, 88.623 210, 89.383 210 C 90.144 210, 91.002 209.100, 91.290 208 C 91.577 206.900, 92.593 206, 93.546 206 C 95.045 206, 95.196 205.303, 94.666 200.825 C 94.329 197.979, 93.505 195.312, 92.835 194.898 C 91.946 194.349, 91.499 187.086, 91.181 168.073 L 90.746 142 98.373 142 C 104.486 142, 106 142.298, 106 143.500 C 106 144.548, 107.056 145, 109.500 145 C 111.944 145, 113 144.548, 113 143.500 C 113 142.675, 113.675 142, 114.500 142 C 115.325 142, 116 142.675, 116 143.500 C 116 144.667, 117.333 145, 122 145 L 128 145 128 141.500 C 128 138.433, 127.690 138, 125.500 138 C 124.055 138, 123 137.424, 123 136.636 C 123 135.070, 116.854 134, 107.860 134 C 103.318 134, 102 133.663, 102 132.500 C 102 131.534, 101.022 130.995, 99.250 130.986 C 94.134 130.961, 92.140 129.912, 91.478 126.898 C 91.128 125.304, 90.202 124, 89.421 124 C 88.267 124, 87.959 121.226, 87.782 109.250 C 87.663 101.138, 87.710 90.547, 87.887 85.715 C 88.064 80.884, 87.917 75.371, 87.559 73.465 C 86.967 70.306, 86.605 70, 83.455 70 C 81.051 70, 80 70.456, 80 71.500 M 51.500 113 C 51.085 115.459, 50.280 117, 49.412 117 C 48.255 117, 48 119.887, 48 133 C 48 146.556, 48.229 149, 49.500 149 C 50.325 149, 51 149.647, 51 150.439 C 51 151.377, 52.562 152.112, 55.488 152.550 C 61.659 153.476, 63 152.758, 63 148.531 C 63 145.667, 62.622 145, 61 145 C 58.694 145, 58.716 145.241, 58.989 123.250 L 59.166 109 55.671 109 C 52.373 109, 52.138 109.225, 51.500 113" stroke="none" fill="black" fill-rule="evenodd"/>
</svg>