<svg xmlns="http://www.w3.org/2000/svg" width="300" height="300" viewBox="0 0 300 300" version="1.1">
	<path d="M 105.708 26.750 C 105.410 28.262, 105.406 30.738, 105.700 32.250 C 106.220 34.932, 106.403 35, 113.117 35 L 120 35 120 42 L 120 49 123.389 49 C 126.470 49, 126.837 48.682, 127.434 45.500 C 127.827 43.405, 128.675 42, 129.545 42 C 131.529 42, 131.543 35.146, 129.561 34.385 C 128.770 34.081, 127.837 32.535, 127.489 30.948 C 126.982 28.641, 126.168 27.935, 123.428 27.420 C 121.478 27.055, 120 26.178, 120 25.389 C 120 24.338, 118.325 24, 113.125 24 C 106.423 24, 106.236 24.069, 105.708 26.750 M 170 50.364 C 170 51.930, 163.854 53, 154.860 53 C 150.318 53, 149 53.337, 149 54.500 C 149 55.692, 147.545 56, 141.906 56 C 135.654 56, 134.751 56.237, 134.290 58 C 133.798 59.879, 132.926 60, 119.883 60 C 108.581 60, 106 60.263, 106 61.415 C 106 62.446, 103.968 63.020, 98.500 63.532 C 93.122 64.036, 91 64.626, 91 65.617 C 91 66.692, 88.993 67, 82 67 C 74.667 67, 73 66.722, 73 65.500 C 73 64.452, 74.056 64, 76.500 64 C 79.333 64, 80 63.619, 80 62 C 80 60.148, 79.333 60, 71 60 C 62.667 60, 62 60.148, 62 62 C 62 63.100, 61.393 64, 60.651 64 C 59.648 64, 59.143 66.614, 58.681 74.193 C 58.216 81.830, 57.676 84.602, 56.530 85.243 C 54.389 86.441, 54.242 110, 56.375 110 C 57.746 110, 59 114.120, 59 118.625 C 59 120.069, 59.588 121, 60.500 121 C 61.548 121, 62 122.056, 62 124.500 C 62 126.944, 61.548 128, 60.500 128 C 59.348 128, 59 129.278, 59 133.500 L 59 139 62.500 139 C 64.944 139, 66 138.548, 66 137.500 C 66 136.345, 67.290 136, 71.608 136 L 77.217 136 76.529 138.750 C 76.150 140.262, 75.202 141.860, 74.420 142.300 C 73.622 142.749, 73 144.611, 73 146.550 C 73 148.950, 72.544 150, 71.500 150 C 70.675 150, 70 150.675, 70 151.500 C 70 152.325, 70.675 153, 71.500 153 C 72.583 153, 73 154.111, 73 157 L 73 161 68.117 161 C 62.563 161, 62.038 161.796, 62.014 170.250 L 62 175 67.500 175 C 71.722 175, 73 174.652, 73 173.500 C 73 172.348, 74.278 172, 78.500 172 C 82.722 172, 84 172.348, 84 173.500 C 84 174.325, 83.381 175, 82.625 175 C 80.940 175, 80 179.342, 80 187.125 C 80 191.563, 79.649 193, 78.564 193 C 77.383 193, 77.073 196.116, 76.814 210.572 C 76.537 226.069, 76.293 228.259, 74.750 229.122 C 73.177 230.001, 73 232.065, 73 249.550 C 73 268.333, 73.069 269, 75 269 C 76.111 269, 77 269.667, 77 270.500 C 77 271.325, 77.675 272, 78.500 272 C 79.325 272, 80 271.325, 80 270.500 C 80 269.667, 80.889 269, 82 269 C 83.333 269, 84 268.333, 84 267 C 84 265.889, 84.667 265, 85.500 265 C 86.548 265, 87 263.944, 87 261.500 C 87 259.056, 86.548 258, 85.500 258 C 84.675 258, 84 257.325, 84 256.500 C 84 255.675, 83.325 255, 82.500 255 C 81.300 255, 81 253.500, 81 247.500 C 81 241.500, 81.300 240, 82.500 240 C 83.753 240, 84 237.944, 84 227.500 C 84 217.561, 84.282 215, 85.375 215 C 87.060 215, 88 210.658, 88 202.875 C 88 198.319, 88.337 197, 89.500 197 C 90.333 197, 91 196.111, 91 195 C 91 193.667, 91.667 193, 93 193 C 94.111 193, 95 192.333, 95 191.500 C 95 190.588, 95.931 190, 97.375 190 C 101.880 190, 106 188.746, 106 187.375 C 106 186.470, 107.197 186, 109.500 186 C 111.896 186, 113 186.459, 113 187.455 C 113 188.325, 114.405 189.173, 116.500 189.566 C 119.682 190.163, 120 190.530, 120 193.611 L 120 197 111 197 C 103.987 197, 102 197.307, 102 198.389 C 102 199.175, 100.531 200.053, 98.610 200.413 C 96.304 200.846, 95.043 201.728, 94.665 203.173 C 93.852 206.281, 95.034 211, 96.625 211 C 97.381 211, 98 211.900, 98 213 C 98 215.921, 104.946 215.921, 105.710 213 C 105.998 211.900, 106.803 211, 107.500 211 C 108.197 211, 109.002 210.100, 109.290 209 C 109.834 206.920, 113.117 206.389, 117.750 207.630 C 119.521 208.105, 120 208.953, 120 211.617 C 120 214.817, 120.190 215, 123.500 215 L 127 215 127 220.500 L 127 226 122 226 C 118.222 226, 117 226.367, 117 227.500 C 117 228.754, 114.934 229, 104.406 229 C 92.654 229, 91.778 229.134, 91.290 231 C 91.002 232.100, 90.144 233, 89.383 233 C 88.469 233, 88 234.187, 88 236.500 L 88 240 98.500 240 C 106.742 240, 109 239.704, 109 238.625 C 109 237.254, 113.120 236, 117.625 236 C 119.069 236, 120 235.412, 120 234.500 C 120 233.452, 121.056 233, 123.500 233 L 127 233 127 243.500 C 127 252.167, 126.738 254, 125.500 254 C 124.514 254, 124 254.986, 124 256.875 C 124 261.841, 122.804 266, 121.375 266 C 119.275 266, 119.739 267.698, 122 268.290 C 123.100 268.577, 124 269.530, 124 270.406 C 124 271.561, 124.964 272, 127.500 272 C 130.833 272, 131 271.833, 131 268.500 C 131 266.056, 131.452 265, 132.500 265 C 133.597 265, 134.002 263.858, 134.006 260.750 C 134.021 250.141, 135.312 240, 136.648 240 C 137.712 240, 138 237.335, 138 227.500 C 138 217.528, 137.720 215, 136.617 215 C 135.626 215, 135.036 212.878, 134.532 207.500 C 134.020 202.032, 133.446 200, 132.415 200 C 131.541 200, 130.995 198.948, 130.986 197.250 C 130.965 192.968, 129.899 190, 128.383 190 C 127.623 190, 127 189.100, 127 188 C 127 186.900, 126.375 186, 125.611 186 C 124.827 186, 123.948 184.537, 123.592 182.637 C 122.999 179.480, 122.665 179.239, 118.135 178.702 C 110.591 177.809, 98 179.023, 98 180.644 C 98 181.484, 96.858 182, 95 182 C 91.814 182, 90.780 179.682, 93.500 178.638 C 94.359 178.309, 95 176.816, 95 175.148 C 95 173.074, 95.577 172.082, 97 171.710 C 98.100 171.423, 99 170.470, 99 169.594 C 99 168.439, 99.964 168, 102.500 168 C 104.832 168, 106 167.533, 106 166.601 C 106 165.604, 108.005 165.002, 113 164.500 L 120 163.797 120 158.899 C 120 153.262, 120.754 153.566, 107.750 153.959 C 99.430 154.210, 99 154.119, 99 152.111 C 99 150.432, 99.614 150, 102 150 C 104.078 150, 105 149.510, 105 148.406 C 105 147.530, 105.900 146.577, 107 146.290 C 108.100 146.002, 109 145.197, 109 144.500 C 109 143.803, 109.900 142.998, 111 142.710 C 112.456 142.329, 113 141.346, 113 139.094 C 113 137.121, 113.503 136, 114.389 136 C 115.184 136, 116.058 134.505, 116.434 132.500 C 117.014 129.409, 117.447 129, 120.139 129 C 122.346 129, 123.332 128.448, 123.710 127 C 123.998 125.900, 124.856 125, 125.617 125 C 126.627 125, 127 123.516, 127 119.500 L 127 114 116 114 C 106.889 114, 105 113.742, 105 112.500 C 105 111.675, 104.325 111, 103.500 111 C 102.417 111, 102 109.889, 102 107 C 102 104.254, 101.565 103, 100.611 103 C 99.816 103, 98.942 101.505, 98.566 99.500 C 98.204 97.571, 97.309 96, 96.571 96 C 95.835 96, 94.998 95.100, 94.710 94 C 94.423 92.900, 93.653 92, 93 92 C 92.347 92, 91.577 92.900, 91.290 94 C 91.002 95.100, 90.144 96, 89.383 96 C 88.373 96, 88 97.484, 88 101.500 C 88 105.722, 88.348 107, 89.500 107 C 90.325 107, 91 107.653, 91 108.450 C 91 109.248, 91.691 110.287, 92.536 110.760 C 93.380 111.233, 94.168 112.943, 94.286 114.560 C 94.495 117.433, 94.381 117.507, 89.250 117.802 C 85.473 118.020, 84 118.511, 84 119.552 C 84 120.534, 82.899 121, 80.582 121 C 78.702 121, 76.425 121.283, 75.522 121.630 C 74.386 122.066, 73.709 121.605, 73.324 120.130 C 73.017 118.958, 72.144 118, 71.383 118 C 70.623 118, 70 117.100, 70 116 C 70 114.667, 69.333 114, 68 114 C 66.083 114, 66 113.333, 66 98 L 66 82 68.375 82 C 72.880 82, 77 80.746, 77 79.375 C 77 78.470, 78.197 78, 80.500 78 C 82.851 78, 84 77.535, 84 76.585 C 84 75.554, 86.032 74.980, 91.500 74.468 C 96.878 73.964, 99 73.374, 99 72.383 C 99 71.283, 101.446 71, 110.950 71 C 121.292 71, 123.032 70.764, 123.880 69.250 C 124.667 67.844, 126.546 67.431, 133.430 67.147 C 139.933 66.880, 142 66.458, 142 65.397 C 142 64.351, 143.572 63.997, 148.250 63.986 C 155.865 63.970, 159 63.210, 159 61.383 C 159 60.289, 161.301 60, 170 60 C 179.111 60, 181 59.742, 181 58.500 C 181 57.258, 182.889 57, 192 57 C 201.111 57, 203 57.258, 203 58.500 C 203 59.333, 203.889 60, 205 60 C 206.747 60, 206.999 60.664, 206.991 65.250 C 206.976 74.255, 205.850 81, 204.361 81 C 203.466 81, 203 82.229, 203 84.594 C 203 87.346, 202.532 88.310, 201 88.710 C 199.497 89.103, 199 90.074, 199 92.617 C 199 94.837, 198.523 96, 197.611 96 C 196.816 96, 195.942 97.495, 195.566 99.500 C 195.173 101.595, 194.325 103, 193.455 103 C 192.655 103, 192 103.900, 192 105 C 192 106.758, 191.333 107, 186.500 107 C 181.667 107, 181 106.758, 181 105 C 181 103.889, 180.333 103, 179.500 103 C 178.675 103, 178 102.325, 178 101.500 C 178 100.417, 176.889 100, 174 100 C 171.111 100, 170 100.417, 170 101.500 C 170 102.325, 169.325 103, 168.500 103 C 167.348 103, 167 104.278, 167 108.500 L 167 114 163.617 114 C 161.074 114, 160.103 114.497, 159.710 116 C 159.423 117.100, 158.470 118, 157.594 118 C 156.667 118, 156 118.837, 156 120 C 156 121.100, 155.361 122, 154.579 122 C 153.798 122, 152.862 123.350, 152.500 125 C 152.138 126.650, 151.202 128, 150.421 128 C 149.365 128, 149 129.415, 149 133.500 L 149 139 152.500 139 C 155.833 139, 156 138.833, 156 135.500 C 156 133.187, 156.469 132, 157.383 132 C 158.144 132, 159.002 131.100, 159.290 130 C 159.577 128.900, 160.530 128, 161.406 128 C 162.283 128, 163 127.325, 163 126.500 C 163 125.667, 163.889 125, 165 125 C 166.852 125, 167 125.667, 167 134 C 167 142.333, 166.852 143, 165 143 C 163.267 143, 163 143.667, 163 148 C 163 151.908, 162.652 153, 161.406 153 C 160.530 153, 159.577 153.900, 159.290 155 C 159.002 156.100, 158.144 157, 157.383 157 C 156.373 157, 156 158.484, 156 162.500 L 156 168 159.500 168 C 161.896 168, 163 167.541, 163 166.545 C 163 165.675, 164.405 164.827, 166.500 164.434 C 168.505 164.058, 170 163.184, 170 162.389 C 170 161.358, 171.548 161, 176.010 161 C 180.782 161, 182.372 160.588, 183.732 159 C 185.238 157.241, 186.682 157, 195.722 157 L 206 157 206 160.500 C 206 162.944, 205.548 164, 204.500 164 C 203.667 164, 203 164.889, 203 166 C 203 167.333, 202.333 168, 201 168 C 199.667 168, 199 168.667, 199 170 C 199 171.619, 198.333 172, 195.500 172 C 193.056 172, 192 172.452, 192 173.500 C 192 174.637, 190.767 175, 186.906 175 C 182.654 175, 181.726 175.330, 181.290 177 C 180.848 178.688, 179.926 179, 175.383 179 C 171.399 179, 170 179.369, 170 180.421 C 170 181.202, 168.650 182.138, 167 182.500 C 165.350 182.862, 164 183.798, 164 184.579 C 164 185.428, 162.993 186, 161.500 186 C 159.667 186, 159 186.533, 159 188 C 159 189.111, 158.333 190, 157.500 190 C 155.085 190, 155.533 195.645, 158 196.290 C 159.687 196.731, 159.999 197.650, 159.991 202.156 C 159.977 211.248, 158.855 218, 157.361 218 C 156.258 218, 156 221.799, 156 238 C 156 254.399, 156.250 258, 157.389 258 C 158.184 258, 159.058 259.495, 159.434 261.500 C 159.827 263.595, 160.675 265, 161.545 265 C 162.345 265, 163 265.900, 163 267 C 163 268.333, 163.667 269, 165 269 C 166.100 269, 167 269.623, 167 270.383 C 167 271.144, 167.900 272.002, 169 272.290 C 170.100 272.577, 171 273.530, 171 274.406 C 171 275.798, 173.027 276, 187 276 C 199.828 276, 203 275.730, 203 274.639 C 203 273.249, 209.622 272.026, 217.250 272.009 C 219.913 272.003, 221 271.565, 221 270.500 C 221 269.258, 222.889 269, 232 269 C 241.111 269, 243 268.742, 243 267.500 C 243 266.675, 243.675 266, 244.500 266 C 246.743 266, 246.314 262.315, 244 261.710 C 242.900 261.423, 242 260.470, 242 259.594 C 242 258.329, 240.866 258, 236.500 258 C 232.528 258, 231 258.378, 231 259.361 C 231 260.714, 224.426 261.972, 217.250 261.991 C 215.032 261.997, 214 262.476, 214 263.500 C 214 264.723, 212.330 265, 204.969 265 C 197.863 265, 195.814 265.320, 195.362 266.500 C 194.701 268.222, 192.339 268.516, 191.814 266.942 C 191.620 266.360, 188.095 265.738, 183.981 265.561 C 173.705 265.117, 174 265.178, 174 263.500 C 174 262.395, 175.153 262, 178.375 262 C 184.741 262, 189 260.948, 189 259.375 C 189 258.396, 190.407 258, 193.883 258 C 197.939 258, 198.856 257.658, 199.294 255.984 C 199.684 254.491, 200.558 254.020, 202.661 254.167 C 209.551 254.649, 214 253.995, 214 252.500 C 214 251.367, 215.222 251, 219 251 C 222.908 251, 224 250.652, 224 249.406 C 224 248.530, 224.900 247.577, 226 247.290 C 228.882 246.536, 228.460 244.321, 225.320 243.721 C 223.846 243.439, 218.221 243.452, 212.820 243.750 C 205.493 244.153, 203 244.635, 203 245.645 C 203 246.658, 201.207 247, 195.906 247 C 189.654 247, 188.751 247.237, 188.290 249 C 187.831 250.756, 186.926 251, 180.883 251 C 175.689 251, 174 251.340, 174 252.383 C 174 253.144, 173.100 254.002, 172 254.290 C 170.900 254.577, 170 255.530, 170 256.406 C 170 257.283, 169.325 258, 168.500 258 C 167.363 258, 167 256.767, 167 252.906 C 167 248.572, 166.687 247.731, 164.899 247.263 C 162.937 246.750, 162.844 246.276, 163.503 240.107 C 163.891 236.473, 164.711 233.186, 165.327 232.803 C 165.993 232.388, 166.603 227.842, 166.836 221.553 C 167.138 213.411, 167.544 211, 168.613 211 C 169.406 211, 170 209.983, 170 208.625 C 170 204.120, 171.254 200, 172.625 200 C 173.530 200, 174 198.803, 174 196.500 C 174 193.667, 174.381 193, 176 193 C 177.111 193, 178 192.333, 178 191.500 C 178 190.425, 179.097 190, 181.875 190 C 187.772 190, 192 188.904, 192 187.375 C 192 186.392, 193.424 186, 197 186 C 200.778 186, 202 185.633, 202 184.500 C 202 183.417, 203.111 183, 206 183 L 210 183 210 175.500 C 210 169.604, 210.311 168, 211.455 168 C 212.325 168, 213.173 166.595, 213.566 164.500 C 213.942 162.495, 214.816 161, 215.611 161 C 216.628 161, 217 159.526, 217 155.500 L 217 150 213.500 150 C 211.197 150, 210 149.530, 210 148.625 C 210 146.859, 205.580 145.996, 196.625 146.014 C 188.164 146.030, 185 146.738, 185 148.617 C 185 149.663, 183.293 150, 178 150 C 171.667 150, 171 149.810, 171 148 C 171 146.889, 171.667 146, 172.500 146 C 173.690 146, 174 144.556, 174 139 L 174 132 177.500 132 C 179.896 132, 181 131.541, 181 130.545 C 181 129.679, 182.393 128.829, 184.443 128.445 C 187.169 127.933, 188.013 127.217, 188.500 125.001 C 189.235 121.655, 191.070 121.032, 200.250 121.014 C 205.577 121.003, 207 120.684, 207 119.500 C 207 118.675, 207.675 118, 208.500 118 C 209.583 118, 210 116.889, 210 114 C 210 110.122, 209.897 110, 206.617 110 C 203.996 110, 203.107 109.515, 202.671 107.851 C 201.853 104.723, 203.028 100, 204.625 100 C 205.381 100, 206 99.100, 206 98 C 206 96.667, 206.667 96, 208 96 C 209.758 96, 210 95.333, 210 90.500 C 210 85.667, 210.242 85, 212 85 C 213.619 85, 214 84.333, 214 81.500 C 214 79.056, 214.452 78, 215.500 78 C 216.735 78, 217.002 76.188, 217.014 67.750 C 217.021 62.112, 217.306 56.461, 217.646 55.191 C 218.123 53.409, 217.793 52.759, 216.201 52.342 C 215.067 52.046, 213.896 51.172, 213.601 50.401 C 212.815 48.354, 170 48.317, 170 50.364 M 178 121 C 178 123, 178.500 124, 179.500 124 C 180.500 124, 181 123, 181 121 C 181 119, 180.500 118, 179.500 118 C 178.500 118, 178 119, 178 121 M 105.667 128.667 C 104.290 130.043, 105.073 132, 107 132 C 108.333 132, 109 131.333, 109 130 C 109 128.073, 107.043 127.290, 105.667 128.667 M 98 134 C 98 135.733, 97.333 136, 93 136 C 89.222 136, 88 136.367, 88 137.500 C 88 138.333, 87.111 139, 86 139 C 84.381 139, 84 139.667, 84 142.500 C 84 144.944, 83.548 146, 82.500 146 C 81.675 146, 80.994 146.563, 80.986 147.250 C 80.979 147.938, 80.701 149.512, 80.370 150.750 C 79.826 152.780, 80.121 153, 83.383 153 C 85.931 153, 87 152.557, 87 151.500 C 87 150.667, 87.889 150, 89 150 C 90.619 150, 91 149.333, 91 146.500 C 91 143.667, 91.381 143, 93 143 C 94.100 143, 95 142.377, 95 141.617 C 95 140.856, 95.900 139.998, 97 139.710 C 98.100 139.423, 99 138.470, 99 137.594 C 99 136.717, 99.675 136, 100.500 136 C 101.333 136, 102 135.111, 102 134 C 102 132.667, 101.333 132, 100 132 C 98.667 132, 98 132.667, 98 134 M 199 205.399 C 199 206.396, 196.995 206.998, 192 207.500 C 187.005 208.002, 185 208.604, 185 209.601 C 185 210.535, 183.827 211, 181.469 211 C 179.319 211, 177.721 211.563, 177.385 212.439 C 177.081 213.230, 175.566 214.156, 174.018 214.496 C 171.078 215.142, 170.038 217.179, 170.014 222.344 C 170.004 224.353, 170.587 225.341, 172 225.710 C 173.756 226.169, 174 227.074, 174 233.117 L 174 240 178 240 C 180.789 240, 182 239.570, 182 238.579 C 182 237.798, 183.350 236.862, 185 236.500 C 186.650 236.138, 188 235.202, 188 234.421 C 188 233.639, 188.900 233, 190 233 C 191.100 233, 192 232.377, 192 231.617 C 192 229.601, 195.243 229.029, 206.750 229.014 L 217 229 217 224 C 217 220.299, 216.623 219, 215.550 219 C 214.486 219, 214.020 217.469, 213.800 213.250 C 213.503 207.565, 213.463 207.496, 210.250 207.187 C 208.237 206.993, 207 206.327, 207 205.437 C 207 204.427, 205.810 204, 203 204 C 200.240 204, 199 204.434, 199 205.399 M 192 216.389 C 192 217.184, 190.505 218.058, 188.500 218.434 C 186.405 218.827, 185 219.675, 185 220.545 C 185 221.345, 184.100 222, 183 222 C 181.889 222, 181 222.667, 181 223.500 C 181 224.583, 182.111 225, 185 225 C 187.889 225, 189 224.583, 189 223.500 C 189 222.348, 190.278 222, 194.500 222 C 198.516 222, 200 221.627, 200 220.617 C 200 219.101, 202.968 218.035, 207.250 218.014 C 209.022 218.005, 210 217.466, 210 216.500 C 210 215.278, 208.333 215, 201 215 C 193.987 215, 192 215.307, 192 216.389" stroke="none" fill="black" fill-rule="evenodd"/>
</svg>