<svg xmlns="http://www.w3.org/2000/svg" width="300" height="300" viewBox="0 0 300 300" version="1.1">
	<path d="M 110.500 27.833 C 110.225 28.108, 110 29.833, 110 31.667 C 110 34.810, 110.200 35, 113.500 35 C 115.944 35, 117 35.452, 117 36.500 C 117 37.652, 118.278 38, 122.500 38 L 128 38 128 41.594 C 128 44.346, 128.468 45.310, 130 45.710 C 131.503 46.103, 132 47.074, 132 49.617 C 132 51.831, 132.478 53, 133.383 53 C 135.241 53, 135.970 49.848, 135.986 41.750 C 135.999 35.662, 135.804 35, 134 35 C 132.667 35, 132 34.333, 132 33 C 132 31.889, 131.333 31, 130.500 31 C 129.675 31, 129 30.353, 129 29.561 C 129 28.616, 127.542 27.946, 124.750 27.608 C 119.688 26.995, 111.204 27.129, 110.500 27.833 M 81.827 51.018 C 81.641 51.578, 79.128 52.316, 76.244 52.658 C 71.421 53.229, 70.999 53.488, 70.986 55.889 C 70.965 60.041, 69.882 63, 68.383 63 C 67.289 63, 67 65.301, 67 74 L 67 85 63.500 85 L 60 85 60 90.500 C 60 94.516, 60.373 96, 61.383 96 C 63.220 96, 63.717 99.083, 63.197 107.250 C 62.887 112.124, 62.382 114, 61.384 114 C 60.373 114, 60 115.484, 60 119.500 C 60 124.333, 60.242 125, 62 125 C 63.619 125, 64 125.667, 64 128.500 L 64 132 69.500 132 C 73.619 132, 75 131.639, 75 130.561 C 75 129.511, 76.895 128.934, 82 128.431 C 86.703 127.968, 89 127.317, 89 126.448 C 89 125.470, 92.308 125.075, 102.572 124.827 C 114.248 124.546, 116.281 124.255, 117.122 122.750 C 117.758 121.610, 119.303 121, 121.550 121 C 124.333 121, 125 121.386, 125 123 C 125 124.333, 124.333 125, 123 125 C 121.900 125, 121 125.625, 121 126.389 C 121 127.184, 119.505 128.058, 117.500 128.434 C 115.405 128.827, 114 129.675, 114 130.545 C 114 131.345, 113.100 132, 112 132 C 110.667 132, 110 132.667, 110 134 C 110 135.111, 109.333 136, 108.500 136 C 107.675 136, 107 136.675, 107 137.500 C 107 138.333, 106.111 139, 105 139 C 103.667 139, 103 139.667, 103 141 C 103 142.619, 102.333 143, 99.500 143 C 96.667 143, 96 143.381, 96 145 C 96 146.111, 95.333 147, 94.500 147 C 93.675 147, 93 147.675, 93 148.500 C 93 149.333, 92.111 150, 91 150 C 89.667 150, 89 150.667, 89 152 C 89 153.333, 88.333 154, 87 154 C 85.889 154, 85 154.667, 85 155.500 C 85 156.325, 84.325 157, 83.500 157 C 82.675 157, 82 157.717, 82 158.594 C 82 159.470, 81.100 160.423, 80 160.710 C 78.900 160.998, 78 161.803, 78 162.500 C 78 163.197, 77.100 164.002, 76 164.290 C 74.900 164.577, 74 165.530, 74 166.406 C 74 167.283, 73.325 168, 72.500 168 C 71.675 168, 71 168.675, 71 169.500 C 71 170.333, 70.111 171, 69 171 C 67.667 171, 67 171.667, 67 173 C 67 174.333, 66.333 175, 65 175 C 63.889 175, 63 175.667, 63 176.500 C 63 177.325, 62.325 178, 61.500 178 C 60.417 178, 60 179.111, 60 182 C 60 185.905, 60.083 186, 63.500 186 C 65.896 186, 67 185.541, 67 184.545 C 67 183.675, 68.405 182.827, 70.500 182.434 C 72.505 182.058, 74 181.184, 74 180.389 C 74 179.625, 74.900 179, 76 179 C 77.333 179, 78 178.333, 78 177 C 78 175.667, 78.667 175, 80 175 C 81.333 175, 82 174.333, 82 173 C 82 171.889, 82.667 171, 83.500 171 C 84.325 171, 85 170.325, 85 169.500 C 85 168.667, 85.889 168, 87 168 C 88.619 168, 89 167.333, 89 164.500 C 89 162.056, 89.452 161, 90.500 161 C 91.325 161, 92 160.283, 92 159.406 C 92 158.530, 92.900 157.577, 94 157.290 C 95.100 157.002, 96 156.194, 96 155.495 C 96 154.795, 97.575 153.927, 99.500 153.566 C 101.595 153.173, 103 152.325, 103 151.455 C 103 150.655, 103.675 150, 104.500 150 C 105.325 150, 106 149.283, 106 148.406 C 106 147.530, 106.900 146.577, 108 146.290 C 109.100 146.002, 110 145.144, 110 144.383 C 110 143.623, 110.900 143, 112 143 C 113.333 143, 114 142.333, 114 141 C 114 139.667, 114.667 139, 116 139 C 117.100 139, 118 138.345, 118 137.545 C 118 136.675, 119.405 135.827, 121.500 135.434 C 123.505 135.058, 125 134.184, 125 133.389 C 125 132.625, 125.675 132, 126.500 132 C 127.325 132, 128 131.365, 128 130.588 C 128 129.720, 129.541 128.915, 132 128.500 C 134.459 128.085, 136 127.280, 136 126.412 C 136 125.635, 136.675 125, 137.500 125 C 138.325 125, 139 125.675, 139 126.500 C 139 127.333, 139.889 128, 141 128 C 142.111 128, 143 127.333, 143 126.500 C 143 125.363, 144.233 125, 148.094 125 C 152.346 125, 153.274 124.670, 153.710 123 C 154.074 121.608, 155.074 121, 157 121 C 158.926 121, 159.926 120.392, 160.290 119 C 160.577 117.900, 161.530 117, 162.406 117 C 163.283 117, 164 116.325, 164 115.500 C 164 114.667, 164.889 114, 166 114 C 167.100 114, 168 113.377, 168 112.617 C 168 111.856, 168.900 110.998, 170 110.710 C 171.100 110.423, 172 109.470, 172 108.594 C 172 107.717, 172.675 107, 173.500 107 C 174.333 107, 175 106.111, 175 105 C 175 103.667, 175.667 103, 177 103 C 178.619 103, 179 102.333, 179 99.500 C 179 96.667, 179.381 96, 181 96 C 182.333 96, 183 95.333, 183 94 C 183 92.889, 183.667 92, 184.500 92 C 185.548 92, 186 90.944, 186 88.500 C 186 85.667, 186.381 85, 188 85 C 189.333 85, 190 84.333, 190 83 C 190 81.889, 190.667 81, 191.500 81 C 192.690 81, 193 79.556, 193 74 C 193 67.667, 192.810 67, 191 67 C 189.900 67, 189 66.377, 189 65.617 C 189 63.940, 185.947 63.032, 180.250 63.014 C 177.145 63.004, 176 62.596, 176 61.500 C 176 60.567, 175.056 60, 173.500 60 C 172.021 60, 171 60.573, 171 61.404 C 171 62.474, 168.507 62.977, 160.500 63.523 C 152.583 64.063, 150 64.578, 150 65.619 C 150 66.691, 147.987 67, 141 67 C 134.004 67, 132 67.308, 132 68.383 C 132 70.241, 128.848 70.970, 120.750 70.986 C 115.423 70.997, 114 71.316, 114 72.500 C 114 73.652, 112.722 74, 108.500 74 C 103.667 74, 103 74.242, 103 76 C 103 77.905, 102.333 78, 89 78 C 77.222 78, 75 77.762, 75 76.500 C 75 75.675, 75.675 75, 76.500 75 C 77.700 75, 78 73.500, 78 67.500 C 78 60.667, 78.178 60, 80 60 C 81.100 60, 82 59.361, 82 58.579 C 82 57.798, 83.350 56.862, 85 56.500 C 87.498 55.951, 88 55.353, 88 52.921 C 88 50.361, 87.640 50, 85.083 50 C 83.479 50, 82.014 50.458, 81.827 51.018 M 161 72.500 C 161 73.711, 159.411 74.003, 152.750 74.014 C 143.196 74.029, 140 74.682, 140 76.617 C 140 77.671, 138.219 78, 132.500 78 C 126.803 78, 125 78.331, 125 79.375 C 125 81.060, 120.658 82, 112.875 82 C 108.539 82, 107 82.362, 107 83.384 C 107 84.379, 105.150 84.885, 100.400 85.187 C 95.538 85.497, 93.549 86.055, 92.850 87.304 C 92.099 88.645, 90.446 89, 84.950 89 C 79.699 89, 78 89.338, 78 90.383 C 78 91.144, 77.100 92.002, 76 92.290 C 74.330 92.726, 74 93.654, 74 97.906 C 74 101.545, 73.610 103, 72.634 103 C 71.654 103, 71.123 105.035, 70.753 110.211 C 70.468 114.196, 69.737 117.588, 69.118 117.794 C 68.503 117.999, 68 118.804, 68 119.583 C 68 120.617, 69.353 121, 73 121 C 76.534 121, 78 120.604, 78 119.648 C 78 118.082, 88.590 117.016, 104.250 117.006 C 112.247 117.001, 114 116.730, 114 115.500 C 114 114.310, 115.444 114, 121 114 C 126.273 114, 128 113.661, 128 112.625 C 128 110.940, 132.342 110, 140.125 110 C 144.681 110, 146 109.663, 146 108.500 C 146 107.452, 147.056 107, 149.500 107 C 152.833 107, 153 107.167, 153 110.500 C 153 113.722, 152.762 114, 150 114 C 148 114, 147 114.500, 147 115.500 C 147 116.500, 148 117, 150 117 C 152 117, 153 116.500, 153 115.500 C 153 114.667, 153.889 114, 155 114 C 156.111 114, 157 113.333, 157 112.500 C 157 111.675, 157.717 111, 158.594 111 C 159.470 111, 160.423 110.100, 160.710 109 C 160.998 107.900, 161.898 107, 162.710 107 C 163.523 107, 164.423 106.100, 164.710 105 C 164.998 103.900, 165.856 103, 166.617 103 C 167.377 103, 168 102.100, 168 101 C 168 99.900, 168.655 99, 169.455 99 C 170.325 99, 171.173 97.595, 171.566 95.500 C 171.942 93.495, 172.816 92, 173.611 92 C 174.375 92, 175 91.311, 175 90.469 C 175 89.626, 175.648 88.689, 176.439 88.385 C 177.230 88.081, 178.166 86.521, 178.518 84.916 C 178.871 83.312, 179.798 82, 180.579 82 C 181.570 82, 182 80.789, 182 78 C 182 75.111, 181.583 74, 180.500 74 C 179.675 74, 179 73.325, 179 72.500 C 179 71.278, 177.333 71, 170 71 C 162.667 71, 161 71.278, 161 72.500 M 117.986 151.250 C 117.979 151.938, 117.701 153.512, 117.370 154.750 C 116.883 156.565, 117.176 157, 118.883 157 C 120.333 157, 121 157.630, 121 159 C 121 160.333, 121.667 161, 123 161 C 124.333 161, 125 161.667, 125 163 C 125 164.111, 125.667 165, 126.500 165 C 127.510 165, 128 166.010, 128 168.094 C 128 170.346, 128.544 171.329, 130 171.710 C 131.503 172.103, 132 173.074, 132 175.617 C 132 177.831, 132.478 179, 133.383 179 C 134.911 179, 135.965 181.974, 135.986 186.344 C 135.996 188.353, 135.413 189.341, 134 189.710 C 132.900 189.998, 132 190.856, 132 191.617 C 132 192.522, 130.830 193, 128.611 193 C 125.530 193, 125.163 192.682, 124.566 189.500 C 123.966 186.302, 123.611 186, 120.455 186 C 118.051 186, 117 185.544, 117 184.500 C 117 183.452, 115.944 183, 113.500 183 C 111.056 183, 110 183.452, 110 184.500 C 110 185.548, 108.944 186, 106.500 186 C 104.056 186, 103 186.452, 103 187.500 C 103 188.325, 102.283 189, 101.406 189 C 100.530 189, 99.584 189.874, 99.305 190.943 C 99.014 192.055, 97.593 193.150, 95.982 193.504 C 94.434 193.844, 92.919 194.770, 92.615 195.561 C 92.311 196.352, 91.374 197, 90.531 197 C 89.689 197, 89 197.675, 89 198.500 C 89 199.333, 88.111 200, 87 200 C 85.667 200, 85 200.667, 85 202 C 85 203.333, 84.333 204, 83 204 C 81.889 204, 81 204.667, 81 205.500 C 81 206.325, 80.325 207, 79.500 207 C 78.667 207, 78 207.889, 78 209 C 78 210.333, 77.333 211, 76 211 C 74.900 211, 74 211.639, 74 212.421 C 74 213.202, 72.664 214.134, 71.032 214.493 C 68.634 215.020, 67.940 215.804, 67.420 218.572 C 66.942 221.123, 66.264 222, 64.772 222 C 63.180 222, 62.891 222.464, 63.370 224.250 C 63.701 225.488, 63.979 227.063, 63.986 227.750 C 63.995 228.582, 65.674 229, 69 229 C 72.778 229, 74 228.633, 74 227.500 C 74 226.667, 74.889 226, 76 226 C 77.758 226, 78 225.333, 78 220.500 L 78 215 81.500 215 C 84.333 215, 85 214.619, 85 213 C 85 211.667, 85.667 211, 87 211 C 88.333 211, 89 210.333, 89 209 C 89 207.889, 89.667 207, 90.500 207 C 91.325 207, 92 206.325, 92 205.500 C 92 204.667, 92.889 204, 94 204 C 95.100 204, 96 203.375, 96 202.611 C 96 201.825, 97.467 200.947, 99.380 200.589 C 102.078 200.082, 102.874 199.381, 103.329 197.107 C 104.004 193.731, 105.953 193.033, 114.750 193.014 L 121 193 121 196.500 C 121 198.944, 120.548 200, 119.500 200 C 118.667 200, 118 200.889, 118 202 C 118 203.333, 117.333 204, 116 204 C 114.667 204, 114 204.667, 114 206 C 114 207.333, 113.333 208, 112 208 C 110.889 208, 110 208.667, 110 209.500 C 110 210.325, 109.325 211, 108.500 211 C 107.667 211, 107 211.889, 107 213 C 107 214.333, 106.333 215, 105 215 C 103.889 215, 103 215.667, 103 216.500 C 103 217.325, 102.325 218, 101.500 218 C 100.667 218, 100 218.889, 100 220 C 100 221.333, 99.333 222, 98 222 C 96.667 222, 96 222.667, 96 224 C 96 225.333, 95.333 226, 94 226 C 92.889 226, 92 226.667, 92 227.500 C 92 228.325, 91.325 229, 90.500 229 C 89.667 229, 89 229.889, 89 231 C 89 232.333, 88.333 233, 87 233 C 85.889 233, 85 233.667, 85 234.500 C 85 235.325, 84.325 236, 83.500 236 C 82.667 236, 82 236.889, 82 238 C 82 239.333, 81.333 240, 80 240 C 78.667 240, 78 240.667, 78 242 C 78 243.333, 77.333 244, 76 244 C 74.889 244, 74 244.667, 74 245.500 C 74 246.325, 73.438 247.008, 72.750 247.017 C 71.286 247.038, 67 251.329, 67 252.774 C 67 254.089, 71.800 254.972, 75.250 254.292 C 76.763 253.994, 78 253.131, 78 252.375 C 78 251.619, 78.900 251, 80 251 C 81.333 251, 82 250.333, 82 249 C 82 247.889, 82.667 247, 83.500 247 C 84.325 247, 85 246.377, 85 245.617 C 85 244.856, 85.900 243.998, 87 243.710 C 88.100 243.423, 89 242.470, 89 241.594 C 89 240.717, 89.623 240, 90.383 240 C 91.144 240, 92.002 239.100, 92.290 238 C 92.577 236.900, 93.530 236, 94.406 236 C 95.283 236, 96 235.325, 96 234.500 C 96 233.675, 96.717 233, 97.594 233 C 98.470 233, 99.423 232.100, 99.710 231 C 99.998 229.900, 100.856 229, 101.617 229 C 102.377 229, 103 228.325, 103 227.500 C 103 226.675, 103.717 226, 104.594 226 C 105.470 226, 106.423 225.100, 106.710 224 C 106.998 222.900, 107.856 222, 108.617 222 C 109.377 222, 110 221.283, 110 220.406 C 110 219.530, 110.900 218.577, 112 218.290 C 113.100 218.002, 114 217.144, 114 216.383 C 114 215.623, 114.900 215, 116 215 C 117.333 215, 118 214.333, 118 213 C 118 211.667, 118.667 211, 120 211 C 121.111 211, 122 210.333, 122 209.500 C 122 208.675, 122.675 208, 123.500 208 C 124.333 208, 125 207.111, 125 206 C 125 204.381, 125.667 204, 128.500 204 C 130.944 204, 132 203.548, 132 202.500 C 132 201.675, 132.563 200.994, 133.250 200.986 C 133.938 200.979, 135.512 200.701, 136.750 200.370 L 139 199.767 139 217.883 C 139 233.320, 138.778 236, 137.500 236 C 136.588 236, 136 236.931, 136 238.375 C 136 242.880, 134.746 247, 133.375 247 C 132.339 247, 132 248.727, 132 254 C 132 258.926, 131.630 261.004, 130.750 261.014 C 130.063 261.021, 128.511 261.292, 127.303 261.616 C 125.246 262.168, 125.087 261.833, 124.803 256.353 C 124.575 251.952, 124.128 250.500, 123 250.500 C 121.778 250.500, 121.448 252.474, 121.217 261.133 C 120.937 271.668, 120.957 271.772, 123.370 272.378 C 126.779 273.234, 132 272.022, 132 270.375 C 132 269.619, 132.655 269, 133.455 269 C 134.325 269, 135.173 267.595, 135.566 265.500 C 135.942 263.495, 136.816 262, 137.611 262 C 138.539 262, 139 260.806, 139 258.406 C 139 255.654, 139.468 254.690, 141 254.290 C 142.756 253.831, 143 252.926, 143 246.883 C 143 241.745, 143.345 240, 144.361 240 C 146.027 240, 146.979 233.031, 146.991 220.750 C 146.998 213.643, 147.282 212, 148.500 212 C 149.433 212, 150 211.056, 150 209.500 C 150 207.944, 149.433 207, 148.500 207 C 147.675 207, 147 206.325, 147 205.500 C 147 204.675, 147.675 204, 148.500 204 C 149.325 204, 150 203.325, 150 202.500 C 150 201.675, 150.675 201, 151.500 201 C 152.325 201, 153 201.675, 153 202.500 C 153 203.583, 154.111 204, 157 204 C 159.739 204, 161 204.436, 161 205.383 C 161 206.899, 163.968 207.965, 168.250 207.986 C 170.022 207.995, 171 208.534, 171 209.500 C 171 210.435, 171.946 211, 173.510 211 C 174.890 211, 176.790 211.900, 177.732 213 C 178.798 214.245, 180.682 215, 182.722 215 C 184.878 215, 186 215.483, 186 216.412 C 186 217.280, 187.541 218.085, 190 218.500 C 192.459 218.915, 194 219.720, 194 220.588 C 194 221.616, 195.361 222, 199 222 C 203.333 222, 204 222.267, 204 224 C 204 225.333, 204.667 226, 206 226 C 207.111 226, 208 226.667, 208 227.500 C 208 228.466, 208.978 229.005, 210.750 229.014 C 215.032 229.035, 218 230.101, 218 231.617 C 218 232.377, 218.900 233, 220 233 C 221.100 233, 222 233.625, 222 234.389 C 222 235.184, 223.495 236.058, 225.500 236.434 C 228.524 237.001, 229 237.477, 229 239.929 C 229 241.957, 228.410 242.921, 226.931 243.308 C 225.271 243.742, 224.925 244.506, 225.181 247.174 C 225.474 250.228, 225.807 250.525, 229.250 250.810 C 232.470 251.077, 233 250.830, 233 249.060 C 233 247.927, 233.623 247, 234.383 247 C 235.144 247, 236.002 246.100, 236.290 245 C 236.577 243.900, 237.530 243, 238.406 243 C 239.561 243, 240 242.036, 240 239.500 C 240 237.187, 239.531 236, 238.617 236 C 237.856 236, 236.998 235.100, 236.710 234 C 236.423 232.900, 235.470 232, 234.594 232 C 233.717 232, 233 231.325, 233 230.500 C 233 229.667, 232.111 229, 231 229 C 229.900 229, 229 228.375, 229 227.611 C 229 226.816, 227.505 225.942, 225.500 225.566 C 223.405 225.173, 222 224.325, 222 223.455 C 222 222.459, 220.896 222, 218.500 222 C 216.104 222, 215 221.541, 215 220.545 C 215 219.675, 213.595 218.827, 211.500 218.434 C 209.495 218.058, 208 217.184, 208 216.389 C 208 215.461, 206.806 215, 204.406 215 C 201.654 215, 200.690 214.532, 200.290 213 C 199.897 211.497, 198.926 211, 196.383 211 C 194.163 211, 193 210.523, 193 209.611 C 193 208.816, 191.505 207.942, 189.500 207.566 C 187.405 207.173, 186 206.325, 186 205.455 C 186 204.424, 184.834 204, 182 204 C 179.261 204, 178 203.564, 178 202.617 C 178 201.101, 175.032 200.035, 170.750 200.014 C 169.077 200.005, 168 199.456, 168 198.611 C 168 197.816, 166.505 196.942, 164.500 196.566 C 162.575 196.205, 161 195.500, 161 195 C 161 194.500, 162.575 193.795, 164.500 193.434 C 167.033 192.959, 168 192.255, 168 190.889 C 168 189.850, 168.675 189, 169.500 189 C 170.325 189, 171 188.325, 171 187.500 C 171 186.667, 171.889 186, 173 186 C 174.333 186, 175 185.333, 175 184 C 175 182.889, 175.667 182, 176.500 182 C 177.325 182, 178 181.325, 178 180.500 C 178 179.667, 178.889 179, 180 179 C 181.333 179, 182 178.333, 182 177 C 182 175.667, 182.667 175, 184 175 C 185.100 175, 186 174.377, 186 173.617 C 186 172.856, 186.900 171.998, 188 171.710 C 189.100 171.423, 190 170.470, 190 169.594 C 190 168.439, 190.964 168, 193.500 168 C 195.944 168, 197 167.548, 197 166.500 C 197 165.675, 197.675 165, 198.500 165 C 199.583 165, 200 163.889, 200 161 L 200 157 195 157 C 190.667 157, 190 157.267, 190 159 C 190 160.333, 189.333 161, 188 161 C 186.900 161, 186 161.625, 186 162.389 C 186 163.184, 184.505 164.058, 182.500 164.434 C 180.405 164.827, 179 165.675, 179 166.545 C 179 167.345, 178.377 168, 177.617 168 C 176.856 168, 175.998 168.900, 175.710 170 C 175.423 171.100, 174.506 172, 173.673 172 C 172.804 172, 171.878 173.278, 171.500 175 C 171.138 176.650, 170.202 178, 169.421 178 C 168.639 178, 168 178.900, 168 180 C 168 181.333, 167.333 182, 166 182 C 164.667 182, 164 182.667, 164 184 C 164 185.619, 163.333 186, 160.500 186 C 158.197 186, 157 186.470, 157 187.375 C 157 188.950, 152.292 190.151, 149.241 189.353 C 147.078 188.787, 146.036 186.333, 146.014 181.750 C 146.005 179.978, 145.466 179, 144.500 179 C 143.462 179, 143 177.957, 143 175.617 C 143 173.074, 142.503 172.103, 141 171.710 C 139.468 171.310, 139 170.346, 139 167.594 C 139 165.155, 138.543 164, 137.579 164 C 136.798 164, 135.869 162.679, 135.514 161.065 C 135.037 158.891, 134.135 157.969, 132.035 157.508 C 129.780 157.012, 129.069 156.182, 128.555 153.443 C 127.922 150.069, 127.810 150, 122.955 150 C 119.665 150, 117.995 150.420, 117.986 151.250" stroke="none" fill="black" fill-rule="evenodd"/>
</svg>