<svg xmlns="http://www.w3.org/2000/svg" width="300" height="300" viewBox="0 0 300 300" version="1.1">
	<path d="M 177 32.500 C 177 33.325, 176.325 34, 175.500 34 C 174.567 34, 174 34.944, 174 36.500 C 174 38.021, 173.430 39, 172.545 39 C 171.675 39, 170.827 40.405, 170.434 42.500 C 170.058 44.505, 169.184 46, 168.389 46 C 167.468 46, 167 47.180, 167 49.500 C 167 52.333, 166.619 53, 165 53 C 163.381 53, 163 53.667, 163 56.500 C 163 58.820, 162.532 60, 161.611 60 C 160.816 60, 159.942 61.495, 159.566 63.500 C 159.173 65.595, 158.325 67, 157.455 67 C 156.424 67, 156 68.166, 156 71 C 156 73.739, 155.564 75, 154.617 75 C 152.897 75, 152.031 78.077, 152.014 84.250 C 152.002 88.338, 152.279 89, 154 89 C 155.100 89, 156 88.377, 156 87.617 C 156 86.856, 156.900 85.998, 158 85.710 C 159.532 85.310, 160 84.346, 160 81.594 C 160 79.194, 160.461 78, 161.389 78 C 162.184 78, 163.058 76.505, 163.434 74.500 C 163.827 72.405, 164.675 71, 165.545 71 C 166.345 71, 167 70.100, 167 69 C 167 67.889, 167.667 67, 168.500 67 C 169.548 67, 170 65.944, 170 63.500 C 170 60.667, 170.381 60, 172 60 C 173.619 60, 174 59.333, 174 56.500 C 174 53.667, 174.381 53, 176 53 C 177.111 53, 178 53.667, 178 54.500 C 178 55.325, 178.675 56, 179.500 56 C 180.325 56, 181 55.325, 181 54.500 C 181 53.667, 181.889 53, 183 53 C 184.111 53, 185 52.333, 185 51.500 C 185 50.675, 185.675 50, 186.500 50 C 187.633 50, 188 51.222, 188 55 C 188 58.778, 187.633 60, 186.500 60 C 185.452 60, 185 61.056, 185 63.500 C 185 66.333, 184.619 67, 183 67 C 181.381 67, 181 67.667, 181 70.500 C 181 72.820, 180.532 74, 179.611 74 C 178.816 74, 177.942 75.495, 177.566 77.500 C 177.173 79.595, 176.325 81, 175.455 81 C 174.570 81, 174 81.979, 174 83.500 C 174 84.993, 173.428 86, 172.579 86 C 171.798 86, 170.869 87.321, 170.514 88.935 C 170.030 91.139, 169.139 92.030, 166.935 92.514 C 165.321 92.869, 164 93.798, 164 94.579 C 164 95.361, 163.100 96, 162 96 C 160.900 96, 160 95.365, 160 94.588 C 160 93.720, 158.459 92.915, 156 92.500 C 153.541 92.085, 152 91.280, 152 90.412 C 152 89.384, 150.639 89, 147 89 L 142 89 142 93.921 C 142 98.575, 142.162 98.877, 145 99.500 C 146.650 99.862, 148 100.798, 148 101.579 C 148 102.361, 148.942 103, 150.094 103 C 151.346 103, 152.397 103.803, 152.710 105 C 153.169 106.756, 154.074 107, 160.117 107 C 166.333 107, 167 107.194, 167 109 C 167 110.100, 166.345 111, 165.545 111 C 164.675 111, 163.827 112.405, 163.434 114.500 C 163.058 116.505, 162.184 118, 161.389 118 C 160.625 118, 160 118.675, 160 119.500 C 160 120.333, 159.111 121, 158 121 C 156.667 121, 156 121.667, 156 123 C 156 124.879, 155.333 125, 145 125 C 136.270 125, 134 125.287, 134 126.392 C 134 127.895, 129.516 129.437, 127.954 128.472 C 126.418 127.522, 126.785 121, 128.375 121 C 130.025 121, 131 116.684, 131 109.375 C 131 105.264, 131.353 104, 132.500 104 C 133.333 104, 134 103.111, 134 102 C 134 100.667, 134.667 100, 136 100 C 137.333 100, 138 99.333, 138 98 C 138 96.900, 137.377 96, 136.617 96 C 135.856 96, 134.998 95.100, 134.710 94 C 133.946 91.079, 127 91.079, 127 94 C 127 95.100, 126.377 96, 125.617 96 C 124.856 96, 123.998 95.100, 123.710 94 C 123.423 92.900, 122.470 92, 121.594 92 C 120.254 92, 120 90.568, 120 83 L 120 74 116.500 74 C 114.056 74, 113 73.548, 113 72.500 C 113 71.258, 111.111 71, 102 71 C 91.667 71, 91 70.879, 91 69 C 91 67.667, 91.667 67, 93 67 C 94.619 67, 95 66.333, 95 63.500 C 95 61.197, 95.470 60, 96.375 60 C 97.950 60, 99.151 55.292, 98.353 52.241 C 97.589 49.321, 95.590 49.029, 76.250 49.014 C 62.223 49.003, 59 49.258, 59 50.383 C 59 51.144, 58.100 52.002, 57 52.290 C 55.468 52.690, 55 53.654, 55 56.406 L 55 60 69.500 60 L 84 60 84 63.500 C 84 66.333, 83.619 67, 82 67 C 80.667 67, 80 67.667, 80 69 C 80 70.111, 79.333 71, 78.500 71 C 77.675 71, 77 71.675, 77 72.500 C 77 73.412, 76.069 74, 74.625 74 C 70.120 74, 66 75.254, 66 76.625 C 66 77.530, 64.803 78, 62.500 78 L 59 78 59 83.500 L 59 89 62.500 89 C 64.803 89, 66 88.530, 66 87.625 C 66 85.824, 70.432 85, 80.125 85 C 86.129 85, 88 84.674, 88 83.629 C 88 82.621, 90.385 82.071, 97 81.554 C 103.793 81.022, 106 80.500, 106 79.425 C 106 78.641, 106.675 78, 107.500 78 C 108.325 78, 109 78.717, 109 79.594 C 109 80.470, 109.900 81.423, 111 81.710 C 112.503 82.103, 113 83.074, 113 85.617 C 113 87.957, 113.462 89, 114.500 89 C 115.325 89, 116 89.675, 116 90.500 C 116 91.565, 114.913 92.003, 112.250 92.009 C 104.622 92.026, 98 93.249, 98 94.639 C 98 95.714, 95.376 96, 85.500 96 C 75.665 96, 73 96.288, 73 97.352 C 73 98.845, 62.553 99.983, 48.750 99.994 C 42.530 99.999, 41 100.296, 41 101.500 C 41 102.523, 39.966 103.004, 37.750 103.014 C 30.914 103.042, 30 103.762, 30 109.117 L 30 114 35.500 114 C 39.646 114, 41 113.642, 41 112.545 C 41 111.675, 42.405 110.827, 44.500 110.434 C 46.505 110.058, 48 109.184, 48 108.389 C 48 107.625, 48.900 107, 50 107 C 51.111 107, 52 107.667, 52 108.500 C 52 109.333, 52.889 110, 54 110 C 55.111 110, 56 109.333, 56 108.500 C 56 107.323, 57.376 107, 62.383 107 C 69.324 107, 69.953 107.600, 69.986 114.250 C 69.995 116.022, 70.534 117, 71.500 117 C 72.650 117, 73 118.272, 73 122.450 C 73 126.602, 73.417 128.134, 74.750 128.879 C 76.196 129.687, 76.560 131.604, 76.844 139.928 C 77.111 147.753, 77.501 150, 78.594 150 C 79.643 150, 80 151.493, 80 155.875 C 80 163.658, 80.940 168, 82.625 168 C 83.708 168, 84 170.333, 84 179 C 84 187.601, 84.296 190, 85.358 190 C 86.410 190, 86.832 193.037, 87.230 203.448 C 87.937 221.976, 87.930 222, 81.883 222 C 78.392 222, 77 221.606, 77 220.617 C 77 219.041, 74 218.034, 69.250 218.014 C 67.034 218.004, 66 217.523, 66 216.500 C 66 215.667, 65.111 215, 64 215 C 62.667 215, 62 214.333, 62 213 C 62 211.381, 61.333 211, 58.500 211 C 55.667 211, 55 210.619, 55 209 C 55 207.889, 54.333 207, 53.500 207 C 52.675 207, 52 206.325, 52 205.500 C 52 204.667, 51.111 204, 50 204 C 48.667 204, 48 203.333, 48 202 C 48 200.889, 47.333 200, 46.500 200 C 45.379 200, 44.997 198.799, 44.986 195.250 C 44.979 192.637, 44.701 189.488, 44.370 188.250 C 43.717 185.816, 41 185.117, 41 187.383 C 41 188.144, 40.100 189.002, 39 189.290 C 37.468 189.690, 37 190.654, 37 193.406 C 37 195.884, 37.452 197, 38.455 197 C 39.325 197, 40.173 198.405, 40.566 200.500 C 40.927 202.425, 41.797 204, 42.500 204 C 43.203 204, 44.073 205.575, 44.434 207.500 C 44.827 209.595, 45.675 211, 46.545 211 C 47.345 211, 48 211.900, 48 213 C 48 214.333, 48.667 215, 50 215 C 51.100 215, 52 215.655, 52 216.455 C 52 217.325, 53.405 218.173, 55.500 218.566 C 58.525 219.134, 59 219.608, 59 222.066 C 59 224.524, 59.475 224.998, 62.500 225.566 C 64.425 225.927, 66 226.789, 66 227.481 C 66 228.233, 67.833 228.946, 70.554 229.253 C 73.125 229.543, 75.631 230.481, 76.309 231.407 C 77.196 232.621, 78.354 232.879, 80.754 232.399 C 82.539 232.042, 84 231.362, 84 230.887 C 84 230.412, 85.800 229.736, 88 229.384 C 90.274 229.020, 92 228.187, 92 227.452 C 92 226.741, 93.350 225.862, 95 225.500 C 97.883 224.867, 98 224.630, 98 219.421 C 98 215.269, 97.649 214, 96.500 214 C 95.224 214, 95 211.389, 95 196.500 C 95 182.318, 94.739 179, 93.625 179 C 91.850 179, 91 174.589, 91 165.375 C 91 159.486, 90.698 158, 89.500 158 C 88.313 158, 88 156.572, 88 151.147 C 88 139.989, 86.897 132, 85.358 132 C 84.315 132, 84 129.914, 84 123 C 84 115.667, 83.722 114, 82.500 114 C 81.452 114, 81 112.944, 81 110.500 C 81 108.056, 81.452 107, 82.500 107 C 83.333 107, 84 106.111, 84 105 C 84 103.083, 84.667 103, 100 103 L 116 103 116 108.500 C 116 112.722, 115.652 114, 114.500 114 C 113.452 114, 113 115.056, 113 117.500 C 113 120.333, 112.619 121, 111 121 C 109.667 121, 109 121.667, 109 123 C 109 124.619, 108.333 125, 105.500 125 C 103.056 125, 102 124.548, 102 123.500 C 102 121.146, 99.301 121.747, 98.630 124.250 C 97.359 128.992, 97.891 132, 100 132 C 101.333 132, 102 132.667, 102 134 C 102 135.100, 102.563 135.994, 103.250 135.986 C 106.160 135.955, 109 134.669, 109 133.383 C 109 132.623, 109.900 132, 111 132 C 112.333 132, 113 131.333, 113 130 C 113 128.889, 113.667 128, 114.500 128 C 115.325 128, 116 127.325, 116 126.500 C 116 125.667, 116.889 125, 118 125 C 119.758 125, 120 125.667, 120 130.500 C 120 134.722, 119.652 136, 118.500 136 C 117.675 136, 117 136.675, 117 137.500 C 117 138.325, 117.675 139, 118.500 139 C 119.333 139, 120 139.889, 120 141 C 120 142.619, 120.667 143, 123.500 143 C 126.333 143, 127 142.619, 127 141 C 127 139.333, 127.667 139, 131 139 C 133.889 139, 135 138.583, 135 137.500 C 135 136.675, 135.675 136, 136.500 136 C 137.325 136, 138 136.675, 138 137.500 C 138 138.722, 139.667 139, 147 139 C 154.333 139, 156 138.722, 156 137.500 C 156 136.300, 157.500 136, 163.500 136 C 169.696 136, 171 136.277, 171 137.594 C 171 138.470, 170.126 139.416, 169.057 139.695 C 167.927 139.991, 166.848 141.416, 166.478 143.102 C 166.128 144.696, 165.202 146, 164.421 146 C 163.639 146, 163 146.900, 163 148 C 163 149.333, 162.333 150, 161 150 C 159.889 150, 159 150.667, 159 151.500 C 159 152.325, 158.325 153, 157.500 153 C 156.667 153, 156 153.889, 156 155 C 156 156.333, 155.333 157, 154 157 C 152.667 157, 152 157.667, 152 159 C 152 160.111, 151.333 161, 150.500 161 C 149.675 161, 149 161.675, 149 162.500 C 149 163.325, 148.283 164, 147.406 164 C 146.530 164, 145.577 164.900, 145.290 166 C 145 167.107, 143.926 168, 142.883 168 C 141.848 168, 141 168.675, 141 169.500 C 141 170.325, 140.325 171, 139.500 171 C 138.667 171, 138 171.889, 138 173 C 138 174.333, 137.333 175, 136 175 C 134.667 175, 134 175.667, 134 177 C 134 178.333, 133.333 179, 132 179 C 130.900 179, 130 179.639, 130 180.421 C 130 181.202, 128.650 182.138, 127 182.500 C 125.350 182.862, 124 183.798, 124 184.579 C 124 185.361, 123.100 186, 122 186 C 120.667 186, 120 186.667, 120 188 C 120 189.333, 119.333 190, 118 190 C 116.889 190, 116 190.667, 116 191.500 C 116 192.325, 115.325 193, 114.500 193 C 113.675 193, 113 193.623, 113 194.383 C 113 195.144, 112.100 196.002, 111 196.290 C 109.468 196.690, 109 197.654, 109 200.406 L 109 204 114.500 204 C 118.722 204, 120 203.652, 120 202.500 C 120 201.667, 120.889 201, 122 201 C 123.667 201, 124 200.333, 124 197 C 124 193.667, 124.333 193, 126 193 C 127.111 193, 128 192.333, 128 191.500 C 128 190.675, 128.675 190, 129.500 190 C 130.333 190, 131 189.111, 131 188 C 131 186.381, 131.667 186, 134.500 186 C 137.333 186, 138 185.619, 138 184 C 138 182.889, 138.667 182, 139.500 182 C 140.325 182, 141 181.325, 141 180.500 C 141 179.667, 141.889 179, 143 179 C 144.333 179, 145 178.333, 145 177 C 145 175.667, 145.667 175, 147 175 C 148.111 175, 149 174.333, 149 173.500 C 149 172.675, 149.675 172, 150.500 172 C 151.333 172, 152 171.111, 152 170 C 152 168.667, 152.667 168, 154 168 C 155.333 168, 156 167.333, 156 166 C 156 164.667, 156.667 164, 158 164 C 159.111 164, 160 163.333, 160 162.500 C 160 161.675, 160.675 161, 161.500 161 C 162.333 161, 163 160.111, 163 159 C 163 157.667, 163.667 157, 165 157 C 166.111 157, 167 156.333, 167 155.500 C 167 154.675, 167.675 154, 168.500 154 C 169.333 154, 170 153.111, 170 152 C 170 150.667, 170.667 150, 172 150 C 173.100 150, 174 149.377, 174 148.617 C 174 147.856, 174.900 146.998, 176 146.710 C 177.100 146.423, 178 145.470, 178 144.594 C 178 143.717, 178.675 143, 179.500 143 C 180.333 143, 181 142.111, 181 141 C 181 139.667, 181.667 139, 183 139 C 184.333 139, 185 138.333, 185 137 C 185 135.900, 185.639 135, 186.421 135 C 187.202 135, 188.138 133.650, 188.500 132 C 188.862 130.350, 189.798 129, 190.579 129 C 191.570 129, 192 127.789, 192 125 L 192 121 186.500 121 C 182.484 121, 181 121.373, 181 122.383 C 181 123.959, 178 124.966, 173.250 124.986 C 170.223 124.999, 170 124.769, 170 121.625 C 170 118.651, 170.368 118.176, 173.098 117.630 C 174.801 117.290, 177.276 117.282, 178.598 117.614 C 180.565 118.108, 181 117.835, 181 116.108 C 181 114.949, 180.375 114, 179.611 114 C 178.816 114, 177.942 112.505, 177.566 110.500 C 177.173 108.405, 176.325 107, 175.455 107 C 174.655 107, 174 106.100, 174 105 C 174 103.148, 174.667 103, 183 103 C 191.333 103, 192 103.148, 192 105 C 192 106.333, 192.667 107, 194 107 C 195.111 107, 196 107.667, 196 108.500 C 196 109.325, 196.675 110, 197.500 110 C 198.753 110, 199 112.056, 199 122.500 C 199 132.944, 198.753 135, 197.500 135 C 196.667 135, 196 135.889, 196 137 C 196 138.333, 195.333 139, 194 139 C 192.394 139, 192 139.667, 192 142.383 C 192 144.926, 192.497 145.897, 194 146.290 C 195.100 146.577, 196 147.530, 196 148.406 C 196 149.283, 196.675 150, 197.500 150 C 198.325 150, 199 149.325, 199 148.500 C 199 147.667, 199.889 147, 201 147 C 202.333 147, 203 146.333, 203 145 C 203 143.900, 203.622 143, 204.383 143 C 205.374 143, 205.964 140.878, 206.468 135.500 C 206.980 130.032, 207.554 128, 208.585 128 C 209.719 128, 210 125.816, 210 117 C 210 108.162, 209.721 106, 208.579 106 C 207.798 106, 206.862 104.650, 206.500 103 C 206.138 101.350, 205.202 100, 204.421 100 C 203.639 100, 203 99.100, 203 98 C 203 96.381, 202.333 96, 199.500 96 C 196.667 96, 196 95.619, 196 94 C 196 92.148, 195.333 92, 187 92 C 179.667 92, 178 91.722, 178 90.500 C 178 89.675, 178.675 89, 179.500 89 C 180.333 89, 181 88.111, 181 87 C 181 85.900, 181.655 85, 182.455 85 C 183.325 85, 184.173 83.595, 184.566 81.500 C 184.929 79.563, 185.822 78, 186.566 78 C 187.310 78, 188.203 76.437, 188.566 74.500 C 188.942 72.495, 189.816 71, 190.611 71 C 191.523 71, 192 69.837, 192 67.617 C 192 65.074, 192.497 64.103, 194 63.710 C 195.532 63.310, 196 62.346, 196 59.594 C 196 57.187, 196.461 56, 197.394 56 C 198.439 56, 198.896 53.932, 199.220 47.750 C 199.457 43.212, 199.444 39.106, 199.190 38.625 C 198.936 38.144, 195.639 37.972, 191.864 38.242 C 185.230 38.717, 185 38.656, 185 36.438 C 185 35.176, 184.293 33.436, 183.429 32.571 C 181.399 30.542, 177 30.493, 177 32.500 M 218 162.594 C 218 163.470, 217.100 164.423, 216 164.710 C 214.900 164.998, 214 165.856, 214 166.617 C 214 167.377, 213.100 168, 212 168 C 210.381 168, 210 168.667, 210 171.500 C 210 174.333, 209.619 175, 208 175 C 206.667 175, 206 175.667, 206 177 C 206 178.111, 205.333 179, 204.500 179 C 203.675 179, 203 179.623, 203 180.383 C 203 181.144, 202.100 182.002, 201 182.290 C 199.900 182.577, 199 183.530, 199 184.406 C 199 185.283, 198.377 186, 197.617 186 C 196.856 186, 195.998 186.900, 195.710 188 C 195.423 189.100, 194.470 190, 193.594 190 C 192.717 190, 192 190.675, 192 191.500 C 192 192.325, 191.325 193, 190.500 193 C 189.675 193, 189 193.717, 189 194.594 C 189 195.470, 188.100 196.423, 187 196.710 C 185.900 196.998, 185 197.856, 185 198.617 C 185 199.377, 184.100 200, 183 200 C 181.381 200, 181 199.333, 181 196.500 C 181 194.180, 180.532 193, 179.611 193 C 178.816 193, 177.942 191.505, 177.566 189.500 C 177.173 187.405, 176.325 186, 175.455 186 C 174.655 186, 174 185.100, 174 184 C 174 182.667, 173.333 182, 172 182 C 170.889 182, 170 181.333, 170 180.500 C 170 179.675, 169.325 179, 168.500 179 C 167.667 179, 167 178.111, 167 177 C 167 175.667, 166.333 175, 165 175 C 163.889 175, 163 174.333, 163 173.500 C 163 172.452, 161.944 172, 159.500 172 L 156 172 156 177 C 156 180.908, 155.652 182, 154.406 182 C 153.530 182, 152.577 182.900, 152.290 184 C 151.897 185.503, 150.926 186, 148.383 186 C 146.169 186, 145 186.478, 145 187.383 C 145 188.144, 144.100 189.002, 143 189.290 C 141.900 189.577, 141 190.530, 141 191.406 C 141 192.283, 140.325 193, 139.500 193 C 138.667 193, 138 193.889, 138 195 C 138 196.333, 137.333 197, 136 197 C 134.889 197, 134 197.667, 134 198.500 C 134 199.325, 133.325 200, 132.500 200 C 131.667 200, 131 200.889, 131 202 C 131 203.333, 130.333 204, 129 204 C 127.667 204, 127 204.667, 127 206 C 127 207.111, 126.333 208, 125.500 208 C 124.675 208, 124 208.675, 124 209.500 C 124 210.333, 123.111 211, 122 211 C 120.381 211, 120 211.667, 120 214.500 C 120 217.036, 119.561 218, 118.406 218 C 117.530 218, 116.577 218.900, 116.290 220 C 116.002 221.100, 115.194 222, 114.495 222 C 113.795 222, 112.927 223.575, 112.566 225.500 C 112.173 227.595, 111.325 229, 110.455 229 C 109.655 229, 109 229.900, 109 231 C 109 232.111, 109.667 233, 110.500 233 C 111.325 233, 112 233.675, 112 234.500 C 112 235.433, 112.944 236, 114.500 236 C 116.056 236, 117 235.433, 117 234.500 C 117 233.513, 117.987 233, 119.883 233 C 123.029 233, 123.961 231.238, 123.986 225.250 C 123.995 223.150, 124.491 222, 125.389 222 C 126.184 222, 127.058 220.505, 127.434 218.500 C 127.827 216.405, 128.675 215, 129.545 215 C 130.345 215, 131 214.100, 131 213 C 131 211.889, 131.667 211, 132.500 211 C 133.325 211, 134 210.325, 134 209.500 C 134 208.667, 134.889 208, 136 208 C 137.333 208, 138 207.333, 138 206 C 138 204.889, 138.667 204, 139.500 204 C 140.325 204, 141 203.283, 141 202.406 C 141 201.530, 141.900 200.577, 143 200.290 C 144.100 200.002, 145 199.144, 145 198.383 C 145 197.623, 145.900 197, 147 197 C 148.333 197, 149 196.333, 149 195 C 149 193.667, 149.667 193, 151 193 C 152.111 193, 153 192.333, 153 191.500 C 153 190.310, 154.444 190, 160 190 C 166.333 190, 167 190.190, 167 192 C 167 193.100, 167.628 194, 168.395 194 C 170.079 194, 170.752 199.537, 170.173 208.632 C 169.901 212.892, 169.348 215, 168.500 215 C 167.803 215, 166.998 215.900, 166.710 217 C 166.423 218.100, 165.470 219, 164.594 219 C 163.490 219, 163 219.922, 163 222 C 163 224.078, 162.510 225, 161.406 225 C 160.530 225, 159.577 225.900, 159.290 227 C 159.002 228.100, 158.144 229, 157.383 229 C 156.623 229, 156 229.900, 156 231 C 156 232.333, 155.333 233, 154 233 C 152.667 233, 152 233.667, 152 235 C 152 236.111, 151.333 237, 150.500 237 C 149.675 237, 149 237.675, 149 238.500 C 149 239.333, 148.111 240, 147 240 C 145.900 240, 145 240.623, 145 241.383 C 145 242.144, 144.100 243.002, 143 243.290 C 141.900 243.577, 141 244.530, 141 245.406 C 141 246.283, 140.325 247, 139.500 247 C 138.667 247, 138 247.889, 138 249 C 138 250.111, 138.667 251, 139.500 251 C 140.325 251, 141 251.675, 141 252.500 C 141 253.333, 141.889 254, 143 254 C 144.111 254, 145 253.333, 145 252.500 C 145 251.667, 145.889 251, 147 251 C 148.333 251, 149 250.333, 149 249 C 149 247.667, 149.667 247, 151 247 C 152.111 247, 153 246.333, 153 245.500 C 153 244.675, 153.675 244, 154.500 244 C 155.333 244, 156 243.111, 156 242 C 156 240.667, 156.667 240, 158 240 C 159.333 240, 160 239.333, 160 238 C 160 236.889, 160.667 236, 161.500 236 C 162.325 236, 163 235.325, 163 234.500 C 163 233.675, 163.717 233, 164.594 233 C 165.470 233, 166.423 232.100, 166.710 231 C 166.998 229.900, 167.856 229, 168.617 229 C 169.377 229, 170 228.325, 170 227.500 C 170 226.667, 170.889 226, 172 226 C 173.619 226, 174 226.667, 174 229.500 C 174 231.813, 173.531 233, 172.617 233 C 171.041 233, 170.034 236, 170.014 240.750 C 170.004 242.966, 169.523 244, 168.500 244 C 167.675 244, 167 244.675, 167 245.500 C 167 246.333, 166.111 247, 165 247 C 163.667 247, 163 247.667, 163 249 C 163 250.100, 162.345 251, 161.545 251 C 160.675 251, 159.827 252.405, 159.434 254.500 C 159.058 256.505, 158.184 258, 157.389 258 C 156.372 258, 156 259.474, 156 263.500 L 156 269 159.500 269 C 162.333 269, 163 268.619, 163 267 C 163 265.889, 163.667 265, 164.500 265 C 165.325 265, 166 264.283, 166 263.406 C 166 262.530, 166.874 261.584, 167.943 261.305 C 169.073 261.009, 170.152 259.584, 170.522 257.898 C 170.872 256.304, 171.798 255, 172.579 255 C 173.527 255, 174 253.873, 174 251.617 C 174 249.074, 174.497 248.103, 176 247.710 C 177.532 247.310, 178 246.346, 178 243.594 C 178 241.066, 178.445 240, 179.500 240 C 180.737 240, 181 238.181, 181 229.625 L 181 219.250 184.125 218.625 C 191.385 217.173, 206 218.519, 206 220.639 C 206 221.724, 208.937 222, 220.500 222 C 232.136 222, 235 222.272, 235 223.375 C 235 224.948, 239.259 226, 245.625 226 C 248.847 226, 250 226.395, 250 227.500 C 250 228.633, 251.222 229, 255 229 C 259.333 229, 260 229.267, 260 231 C 260 232.333, 260.667 233, 262 233 C 263.111 233, 264 233.667, 264 234.500 C 264 236.726, 266.684 236.318, 267.290 234 C 267.577 232.900, 268.530 232, 269.406 232 C 270.510 232, 271 231.078, 271 229 C 271 227, 270.500 226, 269.500 226 C 268.667 226, 268 225.111, 268 224 C 268 222.248, 267.333 222, 262.617 222 C 258.074 222, 257.152 221.688, 256.710 220 C 256.274 218.330, 255.346 218, 251.094 218 C 247.431 218, 246 217.613, 246 216.621 C 246 215.543, 243.227 215.149, 233.316 214.819 C 224.676 214.532, 220.505 214.015, 220.233 213.198 C 219.751 211.753, 217 211.584, 217 213 C 217 214.572, 214.278 214.167, 213.638 212.500 C 213.189 211.329, 211.192 211, 204.531 211 C 197.615 211, 196 210.716, 196 209.500 C 196 208.667, 195.111 208, 194 208 C 192.667 208, 192 207.333, 192 206 C 192 204.667, 192.667 204, 194 204 C 195.333 204, 196 203.333, 196 202 C 196 200.889, 196.667 200, 197.500 200 C 198.325 200, 199 199.325, 199 198.500 C 199 197.667, 199.889 197, 201 197 C 202.333 197, 203 196.333, 203 195 C 203 193.900, 203.625 193, 204.389 193 C 205.184 193, 206.058 191.505, 206.434 189.500 C 206.827 187.405, 207.675 186, 208.545 186 C 209.345 186, 210 185.325, 210 184.500 C 210 183.675, 210.717 183, 211.594 183 C 212.470 183, 213.423 182.100, 213.710 181 C 213.998 179.900, 214.898 179, 215.710 179 C 216.523 179, 217.423 178.100, 217.710 177 C 217.998 175.900, 218.856 175, 219.617 175 C 220.377 175, 221 174.377, 221 173.617 C 221 172.856, 221.900 171.998, 223 171.710 C 224.100 171.423, 225 170.470, 225 169.594 C 225 168.717, 225.675 168, 226.500 168 C 227.333 168, 228 167.111, 228 166 C 228 164.889, 227.333 164, 226.500 164 C 225.675 164, 225 163.325, 225 162.500 C 225 161.452, 223.944 161, 221.500 161 C 218.964 161, 218 161.439, 218 162.594" stroke="none" fill="black" fill-rule="evenodd"/>
</svg>