<svg xmlns="http://www.w3.org/2000/svg" width="300" height="300" viewBox="0 0 300 300" version="1.1">
	<path d="M 150 40 C 150 41.810, 149.333 42, 143 42 C 137.444 42, 136 42.310, 136 43.500 C 136 44.412, 135.069 45, 133.625 45 C 129.120 45, 125 46.254, 125 47.625 C 125 48.660, 123.280 49, 118.050 49 C 112.739 49, 110.890 49.375, 110.210 50.589 C 109.328 52.165, 104.016 52.694, 86.750 52.924 C 82.340 52.982, 81 53.349, 81 54.500 C 81 55.325, 80.325 56, 79.500 56 C 78.417 56, 78 57.111, 78 60 C 78 63.905, 78.083 64, 81.500 64 C 83.944 64, 85 64.452, 85 65.500 C 85 66.325, 85.675 67, 86.500 67 C 87.325 67, 88 66.325, 88 65.500 C 88 64.417, 89.111 64, 92 64 C 95.333 64, 96 63.667, 96 62 C 96 60.096, 96.667 60, 109.883 60 C 122.926 60, 123.798 59.879, 124.290 58 C 124.690 56.468, 125.654 56, 128.406 56 L 132 56 132 63.500 L 132 71 123 71 C 115.667 71, 114 71.278, 114 72.500 C 114 73.722, 112.333 74, 105 74 C 97.667 74, 96 73.722, 96 72.500 C 96 71.452, 94.944 71, 92.500 71 C 89.167 71, 89 71.167, 89 74.500 C 89 76.944, 88.548 78, 87.500 78 C 85.552 78, 85.552 80.614, 87.500 81.362 C 88.637 81.798, 89 83.641, 89 88.969 C 89 94.552, 89.309 96, 90.500 96 C 91.412 96, 92 96.931, 92 98.375 C 92 102.880, 93.254 107, 94.625 107 C 95.661 107, 96 108.727, 96 114 C 96 119.556, 96.310 121, 97.500 121 C 98.412 121, 99 121.931, 99 123.375 C 99 127.880, 100.254 132, 101.625 132 C 102.381 132, 103 132.675, 103 133.500 C 103 134.325, 102.325 135, 101.500 135 C 100.417 135, 100 136.111, 100 139 L 100 143 107 143 C 113.333 143, 114 142.810, 114 141 C 114 139.667, 114.667 139, 116 139 C 117.100 139, 118 138.377, 118 137.617 C 118 136.856, 118.900 135.998, 120 135.710 C 121.100 135.423, 122 134.470, 122 133.594 C 122 132.348, 123.092 132, 127 132 L 132 132 132 141 C 132 149.333, 131.852 150, 130 150 C 128.889 150, 128 150.667, 128 151.500 C 128 152.412, 127.069 153, 125.625 153 C 121.210 153, 117 154.243, 117 155.546 C 117 156.258, 115.664 157.134, 114.032 157.493 C 111.651 158.016, 110.939 158.808, 110.435 161.494 C 110.090 163.336, 110.108 166.215, 110.476 167.890 C 111.021 170.373, 111.780 171.056, 114.572 171.580 C 116.522 171.945, 118 172.822, 118 173.611 C 118 174.375, 118.900 175, 120 175 C 121.100 175, 122 174.361, 122 173.579 C 122 172.798, 123.321 171.869, 124.935 171.514 C 127.139 171.030, 128.030 170.139, 128.514 167.935 C 128.869 166.321, 129.798 165, 130.579 165 C 131.361 165, 132 164.100, 132 163 C 132 161.333, 132.667 161, 136.010 161 C 138.782 161, 140.548 160.383, 141.732 159 C 142.674 157.900, 144.244 157, 145.222 157 C 146.200 157, 147 156.325, 147 155.500 C 147 154.476, 148.032 153.997, 150.250 153.991 C 157.426 153.972, 164 152.714, 164 151.361 C 164 150.286, 166.617 150, 176.455 150 L 188.909 150 189.566 153.500 C 189.942 155.505, 190.816 157, 191.611 157 C 192.375 157, 193 157.717, 193 158.594 C 193 159.470, 193.900 160.423, 195 160.710 C 196.756 161.169, 197 162.074, 197 168.117 C 197 174.333, 196.806 175, 195 175 C 193.333 175, 193 175.667, 193 179 C 193 181.889, 192.583 183, 191.500 183 C 190.675 183, 190 183.675, 190 184.500 C 190 185.333, 190.889 186, 192 186 C 193.111 186, 194 186.667, 194 187.500 C 194 190.178, 195.823 189.084, 196.500 186 C 196.878 184.278, 197.804 183, 198.673 183 C 199.506 183, 200.423 182.100, 200.710 181 C 201.614 177.544, 204 178.632, 204 182.500 C 204 184.820, 203.532 186, 202.611 186 C 201.816 186, 200.942 187.495, 200.566 189.500 C 199.922 192.935, 199.818 193, 195.004 193 C 191.464 193, 189.840 193.464, 189.166 194.669 C 188.386 196.061, 185.977 196.414, 174.616 196.799 C 163.981 197.160, 161 197.561, 161 198.630 C 161 199.700, 158.754 200.003, 150.750 200.014 C 139.243 200.029, 136 200.601, 136 202.617 C 136 203.769, 129.984 204, 100 204 C 68.667 204, 64 204.194, 64 205.500 C 64 206.412, 63.069 207, 61.625 207 C 57.120 207, 53 208.254, 53 209.625 C 53 210.381, 52.100 211, 51 211 C 49.395 211, 49 211.667, 49 214.375 C 49 217.355, 49.366 217.823, 52.125 218.375 C 53.844 218.719, 58.569 219, 62.625 219 C 68.514 219, 70 219.302, 70 220.500 C 70 221.433, 70.944 222, 72.500 222 C 74.056 222, 75 221.433, 75 220.500 C 75 219.675, 75.675 219, 76.500 219 C 77.325 219, 78 218.124, 78 217.052 C 78 215.187, 78.976 215.092, 101.038 214.802 C 120.211 214.551, 124.231 214.248, 124.999 213 C 125.730 211.814, 128.760 211.431, 139.462 211.173 C 150.348 210.909, 153 210.566, 153 209.423 C 153 208.289, 155.003 208, 162.875 208 C 174.494 208, 179 207.266, 179 205.375 C 179 204.282, 181.561 204, 191.500 204 L 204 204 204 209.500 C 204 213.722, 204.348 215, 205.500 215 C 206.753 215, 207 217.056, 207 227.500 C 207 237.944, 206.753 240, 205.500 240 C 204.675 240, 204 240.675, 204 241.500 C 204 242.548, 202.944 243, 200.500 243 C 198.056 243, 197 242.548, 197 241.500 C 197 240.236, 194.722 240, 182.500 240 C 170.278 240, 168 239.764, 168 238.500 C 168 237.452, 166.944 237, 164.500 237 C 162.056 237, 161 237.452, 161 238.500 C 161 239.700, 159.500 240, 153.500 240 C 146.667 240, 146 240.178, 146 242 C 146 243.111, 145.333 244, 144.500 244 C 143.452 244, 143 245.056, 143 247.500 C 143 250.833, 143.167 251, 146.500 251 C 148.813 251, 150 251.469, 150 252.383 C 150 253.144, 150.900 254.002, 152 254.290 C 153.100 254.577, 154 255.530, 154 256.406 C 154 257.652, 155.092 258, 159 258 C 162.550 258, 164 258.395, 164 259.361 C 164 260.963, 170.887 261.978, 181.844 261.991 C 188.350 261.999, 189.247 261.772, 189.710 260 C 190.152 258.312, 191.074 258, 195.617 258 C 199.601 258, 201 257.631, 201 256.579 C 201 255.798, 202.350 254.862, 204 254.500 C 205.650 254.138, 207 253.202, 207 252.421 C 207 251.639, 207.900 251, 209 251 C 210.333 251, 211 250.333, 211 249 C 211 247.667, 211.667 247, 213 247 C 214.822 247, 215 246.333, 215 239.500 C 215 233.500, 215.300 232, 216.500 232 C 217.500 232, 218 231, 218 229 C 218 227, 217.500 226, 216.500 226 C 215.244 226, 215 223.889, 215 213 L 215 200 222 200 C 227.556 200, 229 199.690, 229 198.500 C 229 197.300, 230.500 197, 236.500 197 C 242.500 197, 244 196.700, 244 195.500 C 244 194.675, 244.675 194, 245.500 194 C 246.333 194, 247 193.111, 247 192 C 247 190.647, 247.667 190, 249.060 190 C 250.830 190, 251.077 189.470, 250.810 186.250 L 250.500 182.500 245.250 182.198 C 241.473 181.980, 240 181.489, 240 180.448 C 240 179.460, 238.888 179, 236.500 179 C 233.667 179, 233 178.619, 233 177 C 233 175.333, 232.333 175, 229 175 C 226.291 175, 225 174.560, 225 173.638 C 225 172.021, 215.834 170.683, 211.161 171.618 C 208.827 172.085, 207.960 172.907, 207.475 175.114 C 206.375 180.121, 204 178.676, 204 173 C 204 169.424, 204.392 168, 205.375 168 C 207.016 168, 208.046 163.590, 207.300 159.750 C 207.007 158.238, 206.144 157, 205.383 157 C 204.469 157, 204 155.813, 204 153.500 C 204 151.187, 203.531 150, 202.617 150 C 201.101 150, 200.035 147.032, 200.014 142.750 C 200.005 140.978, 199.466 140, 198.500 140 C 197.567 140, 197 139.056, 197 137.500 C 197 135.944, 196.433 135, 195.500 135 C 194.675 135, 194 134.325, 194 133.500 C 194 132.417, 192.889 132, 190 132 C 186.667 132, 186 132.333, 186 134 C 186 135.333, 185.333 136, 184 136 C 182.667 136, 182 136.667, 182 138 C 182 139.610, 181.333 140, 178.583 140 C 176.704 140, 174.986 140.543, 174.764 141.207 C 174.497 142.008, 170.928 142.553, 164.181 142.824 C 156.375 143.137, 154 143.555, 154 144.616 C 154 145.607, 152.436 146.047, 148.500 146.167 C 145.475 146.258, 142.213 146.371, 141.250 146.417 C 139.882 146.482, 139.535 145.761, 139.662 143.113 C 139.752 141.250, 140.403 139.369, 141.111 138.932 C 141.867 138.464, 142.569 135.433, 142.815 131.568 L 143.233 125 148.616 125 C 152.533 125, 154 124.623, 154 123.617 C 154 122.331, 156.840 121.045, 159.750 121.014 C 160.438 121.006, 161 121.900, 161 123 C 161 124.111, 161.667 125, 162.500 125 C 163.325 125, 164 125.675, 164 126.500 C 164 127.333, 164.889 128, 166 128 C 167.111 128, 168 127.333, 168 126.500 C 168 125.675, 168.623 125, 169.383 125 C 170.144 125, 171.002 124.100, 171.290 123 C 171.577 121.900, 172.530 121, 173.406 121 C 174.283 121, 175 120.352, 175 119.560 C 175 118.619, 176.297 118.013, 178.750 117.810 L 182.500 117.500 182.171 110.250 C 181.863 103.469, 181.977 103, 183.921 103 C 185.064 103, 186 102.377, 186 101.617 C 186 100.856, 186.900 99.998, 188 99.710 C 189.804 99.238, 190 98.346, 190 90.594 C 190 83.622, 190.283 82, 191.500 82 C 192.701 82, 193 80.494, 193 74.447 L 193 66.894 170.428 67.197 C 150.160 67.469, 147.757 67.679, 146.879 69.250 C 145.549 71.630, 143 71.465, 143 69 C 143 67.889, 142.333 67, 141.500 67 C 140.425 67, 140 65.903, 140 63.125 C 140 60.994, 139.719 57.844, 139.375 56.125 C 138.767 53.085, 138.848 53, 142.375 53 C 145.333 53, 146 52.632, 146 51 C 146 49.387, 146.667 49, 149.441 49 C 151.334 49, 153.057 49.337, 153.272 49.750 C 153.486 50.163, 153.467 52.638, 153.230 55.250 C 152.940 58.448, 152.341 60, 151.399 60 C 150.630 60, 150 60.900, 150 62 C 150 63.163, 150.667 64, 151.594 64 C 152.470 64, 153.423 63.100, 153.710 62 C 154 60.893, 155.074 60, 156.117 60 C 157.152 60, 158 59.373, 158 58.607 C 158 57.841, 158.675 56.955, 159.500 56.638 C 160.441 56.277, 161 54.748, 161 52.531 C 161 50.059, 161.450 49, 162.500 49 C 163.652 49, 164 47.722, 164 43.500 L 164 38 157 38 C 150.667 38, 150 38.190, 150 40 M 143 85 L 143 92 148.500 92 C 152.722 92, 154 91.652, 154 90.500 C 154 89.310, 155.444 89, 161 89 C 167.333 89, 168 88.810, 168 87 C 168 85.190, 168.667 85, 175 85 L 182 85 182 81.500 L 182 78 162.500 78 L 143 78 143 85 M 117.250 81.743 C 111.727 82.005, 110 82.435, 110 83.544 C 110 84.345, 109.377 85, 108.617 85 C 107.856 85, 106.998 85.900, 106.710 87 C 106.105 89.315, 103 89.733, 103 87.500 C 103 86.675, 102.325 86, 101.500 86 C 100.310 86, 100 87.444, 100 93 C 100 98.556, 100.310 100, 101.500 100 C 102.621 100, 103.003 101.201, 103.014 104.750 C 103.031 110.923, 103.897 114, 105.617 114 C 106.627 114, 107 115.484, 107 119.500 C 107 123.722, 107.348 125, 108.500 125 C 109.325 125, 110 125.675, 110 126.500 C 110 127.548, 111.056 128, 113.500 128 C 115.944 128, 117 127.548, 117 126.500 C 117 125.445, 118.066 125, 120.594 125 C 123.346 125, 124.310 124.532, 124.710 123 C 125.143 121.344, 126.074 121, 130.117 121 L 135 121 135 114 C 135 108.444, 134.690 107, 133.500 107 C 132.452 107, 132 108.056, 132 110.500 C 132 113.833, 131.833 114, 128.500 114 L 125 114 125 108.500 C 125 104.278, 125.348 103, 126.500 103 C 127.325 103, 128 102.325, 128 101.500 C 128 100.667, 128.889 100, 130 100 C 131.333 100, 132 99.333, 132 98 C 132 96.889, 132.667 96, 133.500 96 C 134.700 96, 135 94.500, 135 88.500 L 135 81 129.750 81.199 C 126.862 81.308, 121.237 81.553, 117.250 81.743 M 172 94.500 C 172 95.688, 170.569 96, 165.117 96 C 159.074 96, 158.169 96.244, 157.710 98 C 157.310 99.532, 156.346 100, 153.594 100 C 151.066 100, 150 100.445, 150 101.500 C 150 102.548, 148.944 103, 146.500 103 L 143 103 143 110 L 143 117 146.500 117 C 148.944 117, 150 116.548, 150 115.500 C 150 114.312, 151.431 114, 156.883 114 C 162.926 114, 163.831 113.756, 164.290 112 C 164.668 110.552, 165.654 110, 167.861 110 C 170.553 110, 170.986 109.591, 171.566 106.500 C 171.942 104.495, 172.816 103, 173.611 103 C 174.611 103, 175 101.600, 175 98 C 175 94.222, 174.633 93, 173.500 93 C 172.675 93, 172 93.675, 172 94.500 M 214.629 185.103 C 214.288 186.809, 214.258 188.609, 214.563 189.103 C 215.802 191.106, 233 189.481, 233 187.361 C 233 186.612, 232.100 186, 231 186 C 229.900 186, 229 185.377, 229 184.617 C 229 182.908, 225.929 182.032, 219.875 182.014 C 215.498 182.001, 215.217 182.166, 214.629 185.103 M 161 248.977 C 161 250.333, 161.659 251, 163 251 C 164.111 251, 165 251.667, 165 252.500 C 165 253.753, 167.056 254, 177.500 254 C 187.944 254, 190 253.753, 190 252.500 C 190 251.447, 191.064 251, 193.573 251 C 196.438 251, 197.080 250.653, 196.810 249.250 C 196.508 247.674, 194.708 247.473, 178.737 247.227 C 161.509 246.962, 161 247.012, 161 248.977" stroke="none" fill="black" fill-rule="evenodd"/>
</svg>