<svg xmlns="http://www.w3.org/2000/svg" width="300" height="300" viewBox="0 0 300 300" version="1.1">
	<path d="M 167 26 C 167 27.100, 166.374 28, 165.608 28 C 164.105 28, 162.563 32.484, 163.528 34.046 C 163.853 34.571, 164.766 35, 165.559 35 C 166.352 35, 167 35.675, 167 36.500 C 167 37.325, 167.635 38, 168.412 38 C 169.280 38, 170.085 39.541, 170.500 42 C 170.915 44.459, 171.720 46, 172.588 46 C 173.616 46, 174 47.361, 174 51 C 174 54.639, 174.384 56, 175.412 56 C 176.280 56, 177.085 57.541, 177.500 60 C 177.915 62.459, 178.720 64, 179.588 64 C 180.365 64, 181 64.653, 181 65.450 C 181 66.248, 181.787 67.373, 182.750 67.950 C 184.417 68.950, 184.417 69.050, 182.750 70.050 C 181.787 70.627, 181 71.977, 181 73.050 C 181 74.122, 180.361 75, 179.579 75 C 178.798 75, 177.869 76.321, 177.514 77.935 C 177.034 80.120, 176.137 81.031, 174 81.500 C 171.863 81.969, 170.966 82.880, 170.486 85.065 C 170.131 86.679, 169.202 88, 168.421 88 C 167.639 88, 167 88.900, 167 90 C 167 91.629, 166.333 92, 163.406 92 C 160.654 92, 159.690 92.468, 159.290 94 C 158.819 95.799, 157.926 96, 150.383 96 C 143.937 96, 142 96.318, 142 97.375 C 142 98.731, 137.890 100, 133.500 100 C 131.027 100, 129.631 103.874, 130.671 107.851 C 131.193 109.846, 131.869 110, 140.117 110 C 147.346 110, 149 109.721, 149 108.500 C 149 107.312, 150.431 107, 155.883 107 C 161.926 107, 162.831 106.756, 163.290 105 C 163.726 103.330, 164.654 103, 168.906 103 C 172.767 103, 174 102.637, 174 101.500 C 174 100.435, 175.087 99.997, 177.750 99.991 C 185.378 99.974, 192 98.751, 192 97.361 C 192 96.270, 195.172 96, 208 96 C 221.556 96, 224 96.229, 224 97.500 C 224 98.325, 223.325 99, 222.500 99 C 221.477 99, 220.996 100.034, 220.986 102.250 C 220.966 107, 219.959 110, 218.383 110 C 217.469 110, 217 111.187, 217 113.500 C 217 115.944, 216.548 117, 215.500 117 C 214.644 117, 214 117.899, 214 119.094 C 214 120.346, 213.197 121.397, 212 121.710 C 210.583 122.081, 210 123.074, 210 125.117 C 210 127.333, 209.538 128, 208 128 C 206.889 128, 206 127.333, 206 126.500 C 206 125.310, 204.556 125, 199 125 C 193.444 125, 192 125.310, 192 126.500 C 192 127.548, 190.944 128, 188.500 128 C 185.254 128, 185 127.775, 185 124.906 C 185 122.654, 184.456 121.671, 183 121.290 C 181.312 120.848, 181 119.926, 181 115.383 C 181 110.174, 180.911 110, 178.250 110.014 C 171.817 110.046, 171 110.790, 171 116.617 C 171 120.735, 171.352 122, 172.500 122 C 174.915 122, 174.467 127.645, 172 128.290 C 170.900 128.577, 170 129.530, 170 130.406 C 170 131.652, 168.908 132, 165 132 C 161.424 132, 160 132.392, 160 133.375 C 160 134.746, 155.880 136, 151.375 136 C 149.931 136, 149 136.588, 149 137.500 C 149 138.333, 148.111 139, 147 139 C 145.900 139, 145 139.623, 145 140.383 C 145 141.144, 144.100 142.002, 143 142.290 C 141.468 142.690, 141 143.654, 141 146.406 C 141 149.847, 140.851 150, 137.500 150 C 135.104 150, 134 150.459, 134 151.455 C 134 152.325, 132.595 153.173, 130.500 153.566 C 128.495 153.942, 127 154.816, 127 155.611 C 127 156.612, 125.595 157, 121.969 157 C 118.460 157, 116.766 157.446, 116.372 158.473 C 116.061 159.283, 114.275 160.233, 112.403 160.584 C 110.532 160.935, 109 161.797, 109 162.500 C 109 163.203, 107.425 164.073, 105.500 164.434 C 103.405 164.827, 102 165.675, 102 166.545 C 102 167.532, 100.911 168, 98.617 168 C 96.074 168, 95.103 168.497, 94.710 170 C 94.329 171.456, 93.346 172, 91.094 172 C 89.010 172, 88 172.490, 88 173.500 C 88 174.333, 87.111 175, 86 175 C 84.667 175, 84 175.667, 84 177 C 84 178.619, 83.333 179, 80.500 179 L 77 179 77 164.500 C 77 152.864, 77.272 150, 78.375 150 C 79.746 150, 81 145.880, 81 141.375 C 81 139.101, 81.298 139, 88 139 C 93.556 139, 95 138.690, 95 137.500 C 95 136.459, 96.148 135.956, 98.750 135.855 C 100.813 135.775, 104.300 135.615, 106.500 135.500 C 112.412 135.189, 116 135.975, 116 137.579 C 116 138.570, 117.211 139, 120 139 L 124 139 124 133.906 C 124 129.654, 123.670 128.726, 122 128.290 C 120.900 128.002, 120 127.144, 120 126.383 C 120 125.308, 117.996 125, 111 125 C 103.667 125, 102 125.278, 102 126.500 C 102 127.692, 100.545 128, 94.906 128 C 88.654 128, 87.751 128.237, 87.290 130 C 86.919 131.417, 85.926 132, 83.883 132 C 81.667 132, 81 131.538, 81 130 C 81 128.889, 81.667 128, 82.500 128 C 83.548 128, 84 126.944, 84 124.500 L 84 121 89.500 121 L 95 121 95 117.500 L 95 114 88.117 114 C 82.074 114, 81.169 114.244, 80.710 116 C 80.423 117.100, 79.470 118, 78.594 118 C 77.717 118, 77 118.623, 77 119.383 C 77 120.144, 76.100 121.002, 75 121.290 C 73.257 121.746, 73 122.654, 73 128.361 L 73 134.909 69.500 135.566 C 67.575 135.927, 66 136.797, 66 137.500 C 66 138.203, 64.425 139.073, 62.500 139.434 C 60.405 139.827, 59 140.675, 59 141.545 C 59 142.345, 58.100 143, 57 143 C 55.667 143, 55 143.667, 55 145 C 55 146.111, 54.333 147, 53.500 147 C 52.675 147, 52 147.675, 52 148.500 C 52 149.325, 52.675 150, 53.500 150 C 54.333 150, 55 150.889, 55 152 C 55 153.758, 55.667 154, 60.500 154 C 65.333 154, 66 153.758, 66 152 C 66 150.762, 66.667 150, 67.750 149.999 C 69.376 149.998, 69.477 151.658, 69.169 173.499 L 68.839 197 72.919 197 C 76.333 197, 77 196.673, 77 195 C 77 193.667, 77.667 193, 79 193 C 80.111 193, 81 192.333, 81 191.500 C 81 190.675, 81.675 190, 82.500 190 C 83.333 190, 84 189.111, 84 188 C 84 186.667, 84.667 186, 86 186 C 87.100 186, 88 185.345, 88 184.545 C 88 183.675, 89.405 182.827, 91.500 182.434 C 93.505 182.058, 95 181.184, 95 180.389 C 95 179.625, 95.900 179, 97 179 C 98.100 179, 99 178.345, 99 177.545 C 99 176.675, 100.405 175.827, 102.500 175.434 C 104.425 175.073, 106 174.188, 106 173.468 C 106 172.748, 107.350 171.862, 109 171.500 C 110.650 171.138, 112 170.202, 112 169.421 C 112 168.430, 113.211 168, 116 168 C 118.847 168, 120 167.578, 120 166.534 C 120 165.531, 121.576 164.860, 125 164.406 C 128.246 163.975, 130 163.261, 130 162.371 C 130 161.617, 130.900 161, 132 161 C 133.333 161, 134 160.333, 134 159 C 134 157.324, 134.667 157, 138.111 157 L 142.223 157 141.551 160.578 C 140.975 163.650, 141.171 164.232, 142.940 164.695 C 144.073 164.991, 145 165.856, 145 166.617 C 145 167.739, 148.118 168, 161.500 168 C 174.041 168, 177.997 168.300, 177.986 169.250 C 177.955 172.160, 176.669 175, 175.383 175 C 174.623 175, 174 175.900, 174 177 C 174 178.333, 173.333 179, 172 179 C 170.889 179, 170 179.667, 170 180.500 C 170 181.325, 169.325 182, 168.500 182 C 167.667 182, 167 182.889, 167 184 C 167 185.333, 166.333 186, 165 186 C 163.667 186, 163 186.667, 163 188 C 163 189.333, 162.333 190, 161 190 C 159.889 190, 159 190.667, 159 191.500 C 159 192.325, 158.325 193, 157.500 193 C 156.667 193, 156 193.889, 156 195 C 156 196.333, 155.333 197, 154 197 C 152.889 197, 152 197.667, 152 198.500 C 152 199.325, 151.283 200, 150.406 200 C 149.530 200, 148.577 200.900, 148.290 202 C 147.925 203.393, 146.926 204, 144.995 204 C 142.618 204, 142.129 204.500, 141.566 207.500 C 141.173 209.595, 140.325 211, 139.455 211 C 138.655 211, 138 211.623, 138 212.383 C 138 213.144, 137.100 214.002, 136 214.290 C 134.900 214.577, 134 215.477, 134 216.290 C 134 217.102, 133.100 218.002, 132 218.290 C 130.900 218.577, 130 219.530, 130 220.406 C 130 221.283, 129.325 222, 128.500 222 C 127.675 222, 127 222.623, 127 223.383 C 127 224.144, 126.100 225.002, 125 225.290 C 123.900 225.577, 123 226.494, 123 227.327 C 123 228.196, 121.722 229.122, 120 229.500 C 118.350 229.862, 117 230.798, 117 231.579 C 117 232.361, 116.100 233, 115 233 C 113.381 233, 113 233.667, 113 236.500 C 113 238.944, 113.452 240, 114.500 240 C 115.325 240, 116 239.365, 116 238.588 C 116 237.720, 117.541 236.915, 120 236.500 C 122.459 236.085, 124 235.280, 124 234.412 C 124 233.635, 124.675 233, 125.500 233 C 126.325 233, 127 232.283, 127 231.406 C 127 230.530, 127.900 229.577, 129 229.290 C 130.100 229.002, 131 228.197, 131 227.500 C 131 226.803, 131.900 225.998, 133 225.710 C 134.100 225.423, 135 224.470, 135 223.594 C 135 222.717, 135.675 222, 136.500 222 C 137.325 222, 138 221.345, 138 220.545 C 138 219.683, 139.382 218.831, 141.393 218.454 C 144.134 217.940, 144.899 217.254, 145.372 214.888 C 145.824 212.629, 146.645 211.821, 148.956 211.359 C 151.394 210.871, 152.073 210.127, 152.589 207.380 C 153.128 204.505, 153.637 204, 155.995 204 C 157.926 204, 158.925 203.393, 159.290 202 C 159.577 200.900, 160.530 200, 161.406 200 C 162.283 200, 163 199.325, 163 198.500 C 163 197.667, 163.889 197, 165 197 C 166.333 197, 167 196.333, 167 195 C 167 193.889, 167.667 193, 168.500 193 C 169.325 193, 170 192.325, 170 191.500 C 170 190.667, 170.889 190, 172 190 C 173.333 190, 174 189.333, 174 188 C 174 186.381, 174.667 186, 177.500 186 L 181 186 181 198.531 C 181 208.748, 181.277 211.169, 182.500 211.638 C 183.734 212.112, 184 214.680, 184 226.107 C 184 234.702, 183.619 240, 183 240 C 182.450 240, 182 242.250, 182 245 C 182 247.750, 182.450 250, 183 250 C 184.455 250, 184.228 254.757, 182.750 255.249 C 181.891 255.535, 181.393 258.844, 181.156 265.832 L 180.813 276 184.406 276 C 187.028 276, 188 275.569, 188 274.406 C 188 273.530, 188.900 272.577, 190 272.290 C 191.955 271.779, 192 270.926, 192 234.383 C 192 201.820, 191.807 197, 190.500 197 C 189.667 197, 189 196.111, 189 195 C 189 193.889, 189.667 193, 190.500 193 C 191.325 193, 192 193.675, 192 194.500 C 192 195.325, 192.635 196, 193.412 196 C 194.280 196, 195.085 197.541, 195.500 200 C 195.915 202.459, 196.720 204, 197.588 204 C 198.365 204, 199 204.900, 199 206 C 199 207.333, 199.667 208, 201 208 C 202.111 208, 203 208.667, 203 209.500 C 203 210.325, 203.675 211, 204.500 211 C 205.333 211, 206 211.889, 206 213 C 206 214.333, 206.667 215, 208 215 C 209.377 215, 210 215.667, 210 217.139 C 210 219.133, 210.356 219.236, 215.250 218.648 C 218.137 218.301, 221.512 218.013, 222.750 218.009 C 224.079 218.004, 225 217.386, 225 216.500 C 225 215.675, 225.675 215, 226.500 215 C 227.333 215, 228 214.111, 228 213 C 228 211.667, 228.667 211, 230 211 C 231.333 211, 232 210.333, 232 209 C 232 207.889, 232.667 207, 233.500 207 C 234.466 207, 235.005 206.022, 235.014 204.250 C 235.035 199.968, 236.101 197, 237.617 197 C 238.627 197, 239 195.516, 239 191.500 C 239 187.430, 239.367 186, 240.412 186 C 241.280 186, 242.085 184.459, 242.500 182 C 242.915 179.541, 243.720 178, 244.588 178 C 245.729 178, 246 175.599, 246 165.500 C 246 155.056, 245.753 153, 244.500 153 C 243.675 153, 243 152.325, 243 151.500 C 243 150.222, 240.333 150, 225 150 C 210.486 150, 207 150.263, 207 151.361 C 207 152.879, 200.218 153.977, 190.750 153.991 L 185 154 185 148.500 L 185 143 195.531 143 C 203.884 143, 206.180 142.695, 206.628 141.527 C 206.939 140.717, 208.725 139.767, 210.597 139.416 C 213.041 138.957, 214 138.245, 214 136.889 C 214 135.850, 214.675 135, 215.500 135 C 216.548 135, 217 133.944, 217 131.500 C 217 129.104, 217.459 128, 218.455 128 C 219.325 128, 220.173 126.595, 220.566 124.500 C 220.929 122.563, 221.822 121, 222.566 121 C 223.310 121, 224.203 119.437, 224.566 117.500 C 224.942 115.495, 225.816 114, 226.611 114 C 227.532 114, 228 112.820, 228 110.500 C 228 108.068, 228.454 107, 229.488 107 C 230.451 107, 231.202 105.588, 231.616 103 C 232.002 100.587, 232.800 99, 233.628 99 C 234.660 99, 235 97.266, 235 92 L 235 85 222.500 85 C 212.056 85, 210 85.247, 210 86.500 C 210 87.548, 208.944 88, 206.500 88 C 204.575 88, 203 87.550, 203 87 C 203 85.687, 195.267 85.698, 194.829 87.012 C 194.644 87.569, 190.781 88.311, 186.246 88.661 C 178.996 89.220, 178 89.097, 178 87.648 C 178 86.742, 178.675 86, 179.500 86 C 180.333 86, 181 85.111, 181 84 C 181 82.667, 181.667 82, 183 82 C 184.333 82, 185 81.333, 185 80 C 185 78.900, 185.655 78, 186.455 78 C 187.325 78, 188.173 76.595, 188.566 74.500 C 188.942 72.495, 189.816 71, 190.611 71 C 191.375 71, 192 70.377, 192 69.617 C 192 68.856, 192.900 67.998, 194 67.710 C 195.197 67.397, 196 66.346, 196 65.094 C 196 63.899, 196.644 63, 197.500 63 C 198.325 63, 199 62.325, 199 61.500 C 199 60.675, 199.655 60, 200.455 60 C 201.325 60, 202.173 58.595, 202.566 56.500 C 202.927 54.575, 203.797 53, 204.500 53 C 205.203 53, 206.073 51.425, 206.434 49.500 C 206.827 47.405, 207.675 46, 208.545 46 C 209.532 46, 210 44.911, 210 42.617 C 210 40.074, 210.497 39.103, 212 38.710 C 213.100 38.423, 214 37.470, 214 36.594 C 214 35.439, 214.964 35, 217.500 35 C 220.333 35, 221 34.619, 221 33 C 221 31.889, 221.667 31, 222.500 31 C 223.325 31, 224 30.325, 224 29.500 C 224 28.675, 223.283 28, 222.406 28 C 221.530 28, 220.577 27.100, 220.290 26 C 219.699 23.740, 218 23.274, 218 25.372 C 218 26.200, 216.413 26.998, 214 27.384 C 211.412 27.798, 210 28.549, 210 29.512 C 210 30.333, 209.104 31, 208 31 C 206.667 31, 206 31.667, 206 33 C 206 34.111, 205.333 35, 204.500 35 C 203.452 35, 203 36.056, 203 38.500 C 203 41.333, 202.619 42, 201 42 C 199.381 42, 199 42.667, 199 45.500 C 199 47.896, 198.541 49, 197.545 49 C 196.675 49, 195.827 50.405, 195.434 52.500 C 195.058 54.505, 194.184 56, 193.389 56 C 192.625 56, 192 56.900, 192 58 C 192 59.619, 191.333 60, 188.500 60 C 185.221 60, 184.999 59.795, 184.986 56.750 C 184.966 52, 183.959 49, 182.383 49 C 181.373 49, 181 47.516, 181 43.500 C 181 39.278, 180.652 38, 179.500 38 C 178.534 38, 177.995 37.022, 177.986 35.250 C 177.965 30.968, 176.899 28, 175.383 28 C 174.623 28, 174 27.100, 174 26 C 174 24.381, 173.333 24, 170.500 24 C 167.667 24, 167 24.381, 167 26 M 84 79.371 C 84 80.379, 81.615 80.929, 75 81.446 C 68.591 81.947, 66 82.528, 66 83.464 C 66 84.186, 64.471 85.064, 62.602 85.415 C 58.846 86.120, 58.308 87.354, 58.429 95 C 58.499 99.464, 58.530 99.503, 62.250 99.810 C 65.470 100.077, 66 99.830, 66 98.060 C 66 96.667, 66.647 96, 68 96 C 69.100 96, 70 95.345, 70 94.545 C 70 93.675, 71.405 92.827, 73.500 92.434 C 75.505 92.058, 77 91.184, 77 90.389 C 77 89.255, 80.308 89, 95 89 L 113 89 113 96 L 113 103 116.500 103 L 120 103 120 94 C 120 86.667, 119.722 85, 118.500 85 C 117.675 85, 117 84.283, 117 83.406 C 117 82.530, 116.100 81.577, 115 81.290 C 113.900 81.002, 113 80.144, 113 79.383 C 113 78.269, 110.179 78, 98.500 78 C 86.884 78, 84 78.273, 84 79.371 M 170 144.500 C 170 145.325, 169.325 146, 168.500 146 C 167.667 146, 167 146.889, 167 148 C 167 149.606, 166.333 150, 163.617 150 C 161.074 150, 160.103 150.497, 159.710 152 C 159.423 153.100, 158.470 154, 157.594 154 C 156.692 154, 156 154.829, 156 155.910 C 156 157.676, 156.701 157.797, 165.250 157.504 C 170.338 157.330, 175.063 157.145, 175.750 157.094 C 177.641 156.952, 177.396 150, 175.500 150 C 174.452 150, 174 148.944, 174 146.500 C 174 143.667, 173.619 143, 172 143 C 170.889 143, 170 143.667, 170 144.500 M 142 153.500 C 142 156.691, 142.255 157, 144.883 157 C 147.028 157, 147.921 156.424, 148.370 154.750 C 149.480 150.607, 149.113 150, 145.500 150 C 142.167 150, 142 150.167, 142 153.500 M 216 157.729 C 215.175 158.043, 214.214 158.739, 213.863 159.275 C 213.513 159.812, 210.026 160.480, 206.113 160.760 C 201.017 161.124, 199 161.656, 199 162.634 C 199 163.528, 197.791 164, 195.500 164 L 192 164 192 169.383 C 192 173.926, 192.312 174.848, 194 175.290 C 195.763 175.751, 196 176.654, 196 182.906 C 196 188.545, 196.308 190, 197.500 190 C 198.510 190, 199 191.010, 199 193.094 C 199 195.346, 199.544 196.329, 201 196.710 C 202.100 196.998, 203 197.856, 203 198.617 C 203 199.377, 203.675 200, 204.500 200 C 205.333 200, 206 200.889, 206 202 C 206 203.333, 206.667 204, 208 204 C 209.100 204, 210 204.655, 210 205.455 C 210 207.288, 215.783 208.451, 220.500 207.566 C 223.591 206.986, 224 206.553, 224 203.861 C 224 201.654, 224.552 200.668, 226 200.290 C 227.656 199.857, 228 198.926, 228 194.883 C 228 191.407, 228.396 190, 229.375 190 C 230.746 190, 232 185.880, 232 181.375 C 232 179.931, 232.588 179, 233.500 179 C 234.652 179, 235 177.722, 235 173.500 C 235 169.382, 235.361 168, 236.439 168 C 238.007 168, 239.711 159.960, 238.544 158.071 C 237.855 156.956, 218.791 156.667, 216 157.729" stroke="none" fill="black" fill-rule="evenodd"/>
</svg>