<svg xmlns="http://www.w3.org/2000/svg" width="300" height="300" viewBox="0 0 300 300" version="1.1">
	<path d="M 139 43.500 C 139 44.325, 138.365 45, 137.588 45 C 136.720 45, 135.915 46.541, 135.500 49 C 135.085 51.459, 134.280 53, 133.412 53 C 132.389 53, 132 54.344, 132 57.883 C 132 61.926, 131.656 62.857, 130 63.290 C 128.803 63.603, 128 64.654, 128 65.906 C 128 67.101, 127.356 68, 126.500 68 C 125.323 68, 125 69.376, 125 74.383 C 125 81.413, 125.553 81.956, 132.750 81.986 C 134.966 81.996, 136 82.477, 136 83.500 C 136 84.782, 138.833 85, 155.500 85 L 175 85 175 90.500 C 175 94.722, 174.652 96, 173.500 96 C 172.445 96, 172 97.066, 172 99.594 C 172 102.346, 171.532 103.310, 170 103.710 C 168.583 104.081, 168 105.074, 168 107.117 C 168 108.933, 167.478 110, 166.588 110 C 165.720 110, 164.915 111.541, 164.500 114 C 164.085 116.459, 163.280 118, 162.412 118 C 161.635 118, 161 118.575, 161 119.278 C 161 119.981, 160.100 121.326, 159 122.268 C 157.900 123.210, 157 125.110, 157 126.490 C 157 127.992, 156.430 129, 155.579 129 C 154.798 129, 153.862 130.350, 153.500 132 C 153.138 133.650, 152.202 135, 151.421 135 C 150.639 135, 150 135.848, 150 136.883 C 150 137.926, 149.107 139, 148 139.290 C 146.900 139.577, 146 140.530, 146 141.406 C 146 142.482, 145.105 142.996, 143.250 142.986 C 138.968 142.965, 136 141.899, 136 140.383 C 136 139.469, 134.813 139, 132.500 139 C 130.197 139, 129 138.530, 129 137.625 C 129 136.004, 123.798 134.762, 120.489 135.592 C 116.770 136.525, 115.957 143, 119.559 143 C 120.352 143, 121 143.675, 121 144.500 C 121 145.412, 121.931 146, 123.375 146 C 127.880 146, 132 147.254, 132 148.625 C 132 149.381, 132.900 150, 134 150 C 135.619 150, 136 150.667, 136 153.500 C 136 156.333, 135.619 157, 134 157 C 132.667 157, 132 157.667, 132 159 C 132 160.333, 131.333 161, 130 161 C 128.667 161, 128 161.667, 128 163 C 128 164.111, 127.333 165, 126.500 165 C 125.675 165, 125 165.675, 125 166.500 C 125 167.325, 124.355 168, 123.567 168 C 122.779 168, 121.849 168.900, 121.500 170 C 121.151 171.100, 120.269 172, 119.541 172 C 117.866 172, 116.767 176.223, 117.589 179.500 C 118.104 181.552, 118.825 182, 121.608 182 C 124.333 182, 125 181.607, 125 180 C 125 178.900, 125.639 178, 126.421 178 C 127.202 178, 128.138 176.650, 128.500 175 C 128.862 173.350, 129.798 172, 130.579 172 C 131.361 172, 132 171.100, 132 170 C 132 168.889, 132.667 168, 133.500 168 C 134.325 168, 135 167.283, 135 166.406 C 135 165.530, 135.900 164.577, 137 164.290 C 138.100 164.002, 139 163.197, 139 162.500 C 139 161.803, 139.900 160.998, 141 160.710 C 142.100 160.423, 143 159.470, 143 158.594 C 143 157.357, 144.065 157.003, 147.750 157.014 C 153.923 157.031, 157 157.897, 157 159.617 C 157 160.531, 158.187 161, 160.500 161 C 162.944 161, 164 161.452, 164 162.500 C 164 163.605, 165.153 164, 168.375 164 C 174.741 164, 179 165.052, 179 166.625 C 179 167.708, 181.333 168, 190 168 C 198.624 168, 201 168.295, 201 169.364 C 201 170.795, 207.007 172, 214.140 172 C 216.904 172, 218 172.426, 218 173.500 C 218 174.333, 218.889 175, 220 175 C 221.333 175, 222 175.667, 222 177 C 222 178.619, 222.667 179, 225.500 179 C 228.833 179, 229 178.833, 229 175.500 C 229 173.056, 228.548 172, 227.500 172 C 226.667 172, 226 171.111, 226 170 C 226 168.394, 225.333 168, 222.617 168 C 220.074 168, 219.103 167.503, 218.710 166 C 218.274 164.330, 217.346 164, 213.094 164 C 209.233 164, 208 163.637, 208 162.500 C 208 161.265, 206.188 160.998, 197.750 160.986 C 186.243 160.971, 183 160.399, 183 158.383 C 183 157.373, 181.516 157, 177.500 157 C 173.278 157, 172 156.652, 172 155.500 C 172 154.588, 171.069 154, 169.625 154 C 165.120 154, 161 152.746, 161 151.375 C 161 150.470, 159.803 150, 157.500 150 C 155.374 150, 153.995 149.509, 153.986 148.750 C 153.979 148.063, 153.701 146.488, 153.370 145.250 C 152.891 143.464, 153.180 143, 154.772 143 C 156.272 143, 156.943 142.118, 157.434 139.500 C 157.827 137.405, 158.675 136, 159.545 136 C 160.345 136, 161 135.100, 161 134 C 161 132.900, 161.623 132, 162.383 132 C 163.144 132, 164.002 131.100, 164.290 130 C 164.577 128.900, 165.530 128, 166.406 128 C 167.333 128, 168 127.163, 168 126 C 168 124.900, 168.639 124, 169.421 124 C 170.202 124, 171.138 122.650, 171.500 121 C 171.862 119.350, 172.748 118, 173.468 118 C 174.188 118, 175.065 116.468, 175.416 114.597 C 175.767 112.725, 176.717 110.939, 177.527 110.628 C 178.440 110.278, 179 108.719, 179 106.531 C 179 104.108, 179.456 103, 180.455 103 C 181.325 103, 182.173 101.595, 182.566 99.500 C 182.942 97.495, 183.816 96, 184.611 96 C 185.611 96, 186 94.600, 186 91 C 186 87.222, 186.367 86, 187.500 86 C 188.583 86, 189 84.889, 189 82 L 189 78 169.500 78 C 153.621 78, 150 77.745, 150 76.625 C 150 75.254, 145.880 74, 141.375 74 C 139.101 74, 139 73.702, 139 67 C 139 61.541, 139.320 60, 140.455 60 C 141.325 60, 142.173 58.595, 142.566 56.500 C 142.942 54.495, 143.816 53, 144.611 53 C 145.375 53, 146 52.325, 146 51.500 C 146 50.667, 146.889 50, 148 50 C 149.667 50, 150 49.333, 150 46 L 150 42 144.500 42 C 140.278 42, 139 42.348, 139 43.500 M 64 76.500 C 64 77.333, 63.111 78, 62 78 C 60.381 78, 60 78.667, 60 81.500 C 60 83.820, 59.532 85, 58.611 85 C 57.816 85, 56.942 86.495, 56.566 88.500 C 56.173 90.595, 55.325 92, 54.455 92 C 53.483 92, 52.995 93.079, 52.986 95.250 C 52.966 100, 51.959 103, 50.383 103 C 49.469 103, 49 104.187, 49 106.500 C 49 108.944, 48.548 110, 47.500 110 C 46.445 110, 46 111.066, 46 113.594 C 46 116.346, 45.532 117.310, 44 117.710 C 42.353 118.141, 42 119.074, 42 123 C 42 126.926, 41.647 127.859, 40 128.290 C 38.468 128.690, 38 129.654, 38 132.406 C 38 134.934, 37.555 136, 36.500 136 C 35.452 136, 35 137.056, 35 139.500 C 35 142.333, 34.619 143, 33 143 C 31.381 143, 31 143.667, 31 146.500 C 31 148.803, 30.530 150, 29.625 150 C 27.984 150, 26.954 154.410, 27.700 158.250 C 28.156 160.603, 28.722 161, 31.617 161 C 34.817 161, 35 160.810, 35 157.500 C 35 155.056, 35.452 154, 36.500 154 C 37.555 154, 38 152.934, 38 150.406 C 38 147.654, 38.468 146.690, 40 146.290 C 41.503 145.897, 42 144.926, 42 142.383 C 42 140.089, 42.468 139, 43.455 139 C 44.325 139, 45.173 137.595, 45.566 135.500 C 45.942 133.495, 46.816 132, 47.611 132 C 48.532 132, 49 130.820, 49 128.500 C 49 125.667, 49.381 125, 51 125 C 52.619 125, 53 124.333, 53 121.500 C 53 119.152, 53.465 118, 54.412 118 C 55.280 118, 56.085 116.459, 56.500 114 C 56.915 111.541, 57.720 110, 58.588 110 C 59.633 110, 60 108.570, 60 104.500 C 60 100.415, 60.365 99, 61.421 99 C 62.202 99, 63.138 97.650, 63.500 96 C 63.862 94.350, 64.798 93, 65.579 93 C 66.513 93, 67.005 91.885, 67.014 89.750 C 67.034 85, 68.041 82, 69.617 82 C 70.377 82, 71 81.100, 71 80 C 71 78.889, 70.333 78, 69.500 78 C 68.675 78, 68 77.325, 68 76.500 C 68 75.667, 67.111 75, 66 75 C 64.889 75, 64 75.667, 64 76.500 M 101.480 99.676 C 99.535 100.064, 99.461 100.806, 99.480 119.789 C 99.498 137.919, 99.640 139.493, 101.250 139.417 C 102.213 139.371, 104.575 139.258, 106.500 139.167 C 109.802 139.009, 110 138.802, 110 135.500 C 110 133.056, 109.548 132, 108.500 132 C 107.348 132, 107 130.722, 107 126.500 C 107 122.278, 107.348 121, 108.500 121 C 109.737 121, 110 119.180, 110 110.617 C 110 100.694, 109.900 100.207, 107.750 99.630 C 105.408 99.003, 104.830 99.007, 101.480 99.676 M 67 105 C 67 106.111, 66.333 107, 65.500 107 C 64.367 107, 64 108.222, 64 112 C 64 115.778, 64.367 117, 65.500 117 C 66.700 117, 67 118.500, 67 124.500 C 67 130.197, 67.331 132, 68.375 132 C 70.176 132, 71 136.432, 71 146.125 C 71 152.458, 71.294 154, 72.500 154 C 73.753 154, 74 156.056, 74 166.500 L 74 179 79.500 179 L 85 179 85 175.500 C 85 173.056, 84.548 172, 83.500 172 C 82.234 172, 82 169.681, 82 157.125 C 82 140.646, 81.423 136, 79.375 136 C 78.375 136, 78 134.500, 78 130.500 C 78 126.278, 77.652 125, 76.500 125 C 75.294 125, 75 123.458, 75 117.125 C 75 112.794, 74.719 107.844, 74.375 106.125 C 73.823 103.366, 73.355 103, 70.375 103 C 67.667 103, 67 103.395, 67 105 M 83.863 189.668 C 82.459 190.041, 82.122 192.663, 81.498 208.052 C 80.919 222.326, 80.486 226, 79.385 226 C 78.263 226, 78 229.035, 78 242 L 78 258 83.500 258 L 89 258 89 254.500 C 89 252.119, 88.539 251, 87.559 251 C 85.306 251, 84.739 249.225, 85.458 244.429 C 85.890 241.550, 86.626 240, 87.561 240 C 88.753 240, 89 237.253, 89 224 C 89 210.444, 89.229 208, 90.500 208 C 91.555 208, 92 206.934, 92 204.406 C 92 201.654, 92.468 200.690, 94 200.290 C 95.107 200, 96 198.926, 96 197.883 C 96 196.848, 96.675 196, 97.500 196 C 100.134 196, 99.108 194.183, 96.102 193.522 C 94.416 193.152, 92.991 192.073, 92.695 190.943 C 92.311 189.474, 91.371 189.028, 88.844 189.116 C 87.005 189.180, 84.763 189.428, 83.863 189.668 M 111 200.500 C 111 202.944, 111.452 204, 112.500 204 C 113.722 204, 114 205.667, 114 213 C 114 221.333, 114.148 222, 116 222 C 117.619 222, 118 222.667, 118 225.500 C 118 227.820, 118.468 229, 119.389 229 C 120.184 229, 121.058 230.495, 121.434 232.500 C 121.827 234.595, 122.675 236, 123.545 236 C 124.345 236, 125 236.900, 125 238 C 125 239.111, 125.667 240, 126.500 240 C 127.333 240, 128 240.889, 128 242 C 128 243.333, 128.667 244, 130 244 C 131.549 244, 132 244.667, 132 246.955 C 132 249.540, 132.438 249.992, 135.500 250.566 C 138.033 251.041, 139 251.745, 139 253.111 C 139 254.150, 139.675 255, 140.500 255 C 141.325 255, 142 255.675, 142 256.500 C 142 257.764, 144.265 258, 156.383 258 C 169.926 258, 170.797 257.883, 171.290 256 C 171.690 254.468, 172.654 254, 175.406 254 C 177.934 254, 179 253.555, 179 252.500 C 179 251.452, 180.056 251, 182.500 251 C 185.333 251, 186 250.619, 186 249 C 186 247.667, 186.667 247, 188 247 C 189.100 247, 190 246.375, 190 245.611 C 190 244.816, 191.495 243.942, 193.500 243.566 C 195.595 243.173, 197 242.325, 197 241.455 C 197 240.655, 197.625 240, 198.389 240 C 199.184 240, 200.058 238.505, 200.434 236.500 C 200.827 234.405, 201.675 233, 202.545 233 C 203.689 233, 204 231.396, 204 225.500 C 204 219.500, 204.300 218, 205.500 218 C 206.325 218, 207 217.325, 207 216.500 C 207 215.667, 207.889 215, 209 215 C 210.333 215, 211 214.333, 211 213 C 211 211.194, 210.333 211, 204.117 211 C 198.074 211, 197.169 210.756, 196.710 209 C 196.423 207.900, 195.470 207, 194.594 207 C 193.717 207, 193 206.325, 193 205.500 C 193 204.452, 191.944 204, 189.500 204 C 187.187 204, 186 203.531, 186 202.617 C 186 201.041, 183 200.034, 178.250 200.014 C 176.034 200.004, 175 199.523, 175 198.500 C 175 197.348, 173.722 197, 169.500 197 C 165.278 197, 164 197.348, 164 198.500 C 164 199.325, 163.325 200, 162.500 200 C 161.456 200, 161 201.051, 161 203.455 C 161 206.611, 161.302 206.966, 164.500 207.566 C 166.505 207.942, 168 208.816, 168 209.611 C 168 210.628, 169.474 211, 173.500 211 C 177.516 211, 179 211.373, 179 212.383 C 179 214.103, 182.077 214.969, 188.250 214.986 C 191.621 214.996, 193 215.402, 193 216.383 C 193 217.144, 193.900 218.002, 195 218.290 C 196.662 218.724, 197 219.654, 197 223.790 C 197 227.926, 196.662 228.855, 195 229.290 C 193.900 229.577, 193 230.530, 193 231.406 C 193 232.283, 192.325 233, 191.500 233 C 190.675 233, 190 233.675, 190 234.500 C 190 235.333, 189.111 236, 188 236 C 186.667 236, 186 236.667, 186 238 C 186 239.619, 185.333 240, 182.500 240 C 180.152 240, 179 240.465, 179 241.412 C 179 242.280, 177.459 243.085, 175 243.500 C 172.541 243.915, 171 244.720, 171 245.588 C 171 246.729, 168.599 247, 158.500 247 C 148.366 247, 146 246.731, 146 245.579 C 146 244.798, 144.650 243.862, 143 243.500 C 141.350 243.138, 140 242.202, 140 241.421 C 140 240.639, 139.150 240, 138.111 240 C 136.745 240, 136.041 239.033, 135.566 236.500 C 135.173 234.405, 134.325 233, 133.455 233 C 132.655 233, 132 232.100, 132 231 C 132 229.900, 131.375 229, 130.611 229 C 129.816 229, 128.942 227.505, 128.566 225.500 C 128.173 223.405, 127.325 222, 126.455 222 C 125.358 222, 125 220.646, 125 216.500 C 125 211.667, 124.758 211, 123 211 C 121.190 211, 121 210.333, 121 204 L 121 197 116 197 L 111 197 111 200.500 M 236.290 209 C 236.002 210.100, 235.144 211, 234.383 211 C 233.623 211, 233 211.900, 233 213 C 233 214.111, 233.667 215, 234.500 215 C 235.325 215, 236 215.635, 236 216.412 C 236 217.280, 237.541 218.085, 240 218.500 C 242.459 218.915, 244 219.720, 244 220.588 C 244 221.535, 245.152 222, 247.500 222 C 250.811 222, 251 222.183, 251 225.389 C 251 228.470, 251.318 228.837, 254.500 229.434 C 257.562 230.008, 258 230.460, 258 233.045 C 258 235.333, 258.451 236, 260 236 C 261.333 236, 262 236.667, 262 238 C 262 239.111, 262.667 240, 263.500 240 C 264.548 240, 265 241.056, 265 243.500 C 265 246.933, 265.079 247, 269.117 247 C 272.898 247, 273.184 246.817, 272.630 244.750 C 272.299 243.512, 272.021 241.037, 272.014 239.250 C 272.004 237.034, 271.523 236, 270.500 236 C 269.675 236, 269 235.311, 269 234.469 C 269 233.626, 268.352 232.689, 267.561 232.385 C 266.770 232.081, 265.834 230.521, 265.482 228.916 C 265.129 227.312, 264.202 226, 263.421 226 C 262.639 226, 262 225.100, 262 224 C 262 222.667, 261.333 222, 260 222 C 258.667 222, 258 221.333, 258 220 C 258 218.889, 257.333 218, 256.500 218 C 255.675 218, 255 217.325, 255 216.500 C 255 215.667, 254.111 215, 253 215 C 251.667 215, 251 214.333, 251 213 C 251 211.667, 250.333 211, 249 211 C 247.900 211, 247 210.377, 247 209.617 C 247 208.089, 244.026 207.035, 239.656 207.014 C 237.647 207.004, 236.659 207.587, 236.290 209" stroke="none" fill="black" fill-rule="evenodd"/>
</svg>