<svg xmlns="http://www.w3.org/2000/svg" width="300" height="300" viewBox="0 0 300 300" version="1.1">
	<path d="M 168 31 L 168 38 171.500 38 C 173.944 38, 175 37.548, 175 36.500 C 175 35.262, 176.833 35, 185.500 35 C 193.876 35, 196 35.286, 196 36.412 C 196 37.280, 197.541 38.085, 200 38.500 C 202.459 38.915, 204 39.720, 204 40.588 C 204 42.876, 206.713 42.201, 207.370 39.750 C 208.376 35.993, 208.090 35, 206 35 C 204.667 35, 204 34.333, 204 33 C 204 31.381, 203.333 31, 200.500 31 C 198.152 31, 197 30.535, 197 29.588 C 197 28.720, 195.459 27.915, 193 27.500 C 190.541 27.085, 189 26.280, 189 25.412 C 189 24.286, 186.876 24, 178.500 24 L 168 24 168 31 M 114 36.500 C 114 41.333, 114.242 42, 116 42 C 117.333 42, 118 42.667, 118 44 C 118 45.111, 118.667 46, 119.500 46 C 120.325 46, 121 46.675, 121 47.500 C 121 48.690, 119.556 49, 114 49 C 108.707 49, 107 49.337, 107 50.383 C 107 52.142, 103.902 52.969, 97.250 52.986 C 93.256 52.997, 92 53.359, 92 54.500 C 92 55.663, 90.681 56, 86.125 56 C 78.342 56, 74 56.940, 74 58.625 C 74 59.381, 73.325 60, 72.500 60 C 71.675 60, 71 60.675, 71 61.500 C 71 62.333, 70.111 63, 69 63 C 67.061 63, 67 63.667, 67 85 C 67 103.889, 66.788 107, 65.500 107 C 64.310 107, 64 108.444, 64 114 C 64 119.556, 64.310 121, 65.500 121 C 66.778 121, 67 123.667, 67 139 C 67 154.333, 66.778 157, 65.500 157 C 64.286 157, 64 158.595, 64 165.353 C 64 177.915, 62.965 186, 61.358 186 C 60.335 186, 60 187.850, 60 193.500 C 60 199.168, 59.667 201, 58.636 201 C 57.051 201, 55.679 208.873, 56.614 212.598 C 57.102 214.543, 57.862 215, 60.608 215 C 63.333 215, 64 214.607, 64 213 C 64 211.900, 64.623 211, 65.384 211 C 66.379 211, 66.884 209.156, 67.185 204.432 C 67.458 200.144, 68.107 197.552, 69.052 196.968 C 70.151 196.288, 70.585 193.176, 70.855 184.036 C 71.135 174.578, 71.509 172, 72.605 172 C 73.710 172, 74.045 169.457, 74.217 159.750 C 74.337 153.012, 74.519 143.450, 74.622 138.500 C 74.725 133.550, 74.852 126.912, 74.905 123.750 C 74.978 119.348, 75.352 118, 76.500 118 C 77.333 118, 78 117.111, 78 116 C 78 114.667, 78.667 114, 80 114 C 81.100 114, 82 113.377, 82 112.615 C 82 111.687, 83.812 111.004, 87.500 110.543 C 91.278 110.071, 93 109.409, 93 108.428 C 93 107.335, 94.547 107, 99.594 107 C 105.346 107, 106.254 106.745, 106.710 105 C 107.152 103.312, 108.074 103, 112.617 103 C 116.562 103, 118 102.626, 118 101.601 C 118 100.604, 120.005 100.002, 125 99.500 C 129.995 98.998, 132 98.396, 132 97.399 C 132 96.467, 133.168 96, 135.500 96 C 138.833 96, 139 96.167, 139 99.500 C 139 101.848, 138.535 103, 137.588 103 C 136.720 103, 135.915 104.541, 135.500 107 C 135.085 109.459, 134.280 111, 133.412 111 C 132.635 111, 132 111.675, 132 112.500 C 132 113.333, 132.889 114, 134 114 C 135.100 114, 136 113.345, 136 112.545 C 136 111.675, 137.405 110.827, 139.500 110.434 C 142.033 109.959, 143 109.255, 143 107.889 C 143 106.850, 143.675 106, 144.500 106 C 145.325 106, 146 105.325, 146 104.500 C 146 103.417, 147.111 103, 150 103 C 153.905 103, 154 103.083, 154 106.500 C 154 108.944, 154.452 110, 155.500 110 C 156.333 110, 157 110.889, 157 112 C 157 113.333, 157.667 114, 159 114 C 160.619 114, 161 114.667, 161 117.500 C 161 119.944, 161.452 121, 162.500 121 C 163.325 121, 164 121.717, 164 122.594 C 164 123.470, 164.900 124.423, 166 124.710 C 167.503 125.103, 168 126.074, 168 128.617 C 168 130.957, 168.462 132, 169.500 132 C 170.333 132, 171 132.889, 171 134 C 171 135.111, 170.333 136, 169.500 136 C 168.452 136, 168 137.056, 168 139.500 C 168 142.333, 167.619 143, 166 143 C 164.667 143, 164 143.667, 164 145 C 164 146.111, 163.333 147, 162.500 147 C 161.675 147, 161 147.675, 161 148.500 C 161 149.325, 160.325 150, 159.500 150 C 158.675 150, 158 150.644, 158 151.430 C 158 152.217, 156.988 153.005, 155.750 153.180 C 153.943 153.437, 153.439 154.238, 153.190 157.250 L 152.879 161 156.940 161 C 159.730 161, 161 160.567, 161 159.617 C 161 158.856, 161.900 157.998, 163 157.710 C 164.100 157.423, 165 156.470, 165 155.594 C 165 154.717, 165.675 154, 166.500 154 C 167.333 154, 168 153.111, 168 152 C 168 150.667, 168.667 150, 170 150 C 171.100 150, 172 149.374, 172 148.608 C 172 146.889, 176.161 145.751, 179.441 146.575 C 181.094 146.989, 182.088 148.126, 182.521 150.094 C 182.872 151.692, 183.798 153, 184.579 153 C 185.361 153, 186 153.900, 186 155 C 186 156.333, 186.667 157, 188 157 C 189.333 157, 190 157.667, 190 159 C 190 160.111, 190.667 161, 191.500 161 C 192.333 161, 193 161.889, 193 163 C 193 164.111, 193.667 165, 194.500 165 C 195.325 165, 196 165.675, 196 166.500 C 196 167.325, 196.850 168, 197.889 168 C 199.255 168, 199.959 168.967, 200.434 171.500 C 200.827 173.595, 201.675 175, 202.545 175 C 203.345 175, 204 175.900, 204 177 C 204 178.333, 204.667 179, 206 179 C 207.333 179, 208 179.667, 208 181 C 208 182.111, 208.667 183, 209.500 183 C 210.325 183, 211 183.675, 211 184.500 C 211 185.325, 211.623 186, 212.383 186 C 213.647 186, 214.953 188.826, 214.986 191.634 C 214.995 192.323, 212.416 192.932, 208.400 193.187 C 203.538 193.497, 201.549 194.055, 200.850 195.304 C 200.003 196.817, 197.580 197, 178.450 197 C 160.854 197, 157 196.751, 157 195.617 C 157 193.759, 153.848 193.030, 145.750 193.014 L 139 193 139 197 C 139 200.333, 139.333 201, 141 201 C 142.111 201, 143 201.667, 143 202.500 C 143 203.548, 144.056 204, 146.500 204 C 148.896 204, 150 204.459, 150 205.455 C 150 206.325, 151.405 207.173, 153.500 207.566 C 156.682 208.163, 157 208.530, 157 211.611 C 157 214.333, 157.393 215, 159 215 C 160.619 215, 161 215.667, 161 218.500 C 161 220.944, 161.452 222, 162.500 222 C 163.722 222, 164 223.667, 164 231 L 164 240 160.500 240 C 158.187 240, 157 239.531, 157 238.617 C 157 237.101, 154.032 236.035, 149.750 236.014 C 147.978 236.005, 147 235.466, 147 234.500 C 147 233.445, 145.934 233, 143.406 233 C 140.654 233, 139.690 232.532, 139.290 231 C 139 229.893, 137.926 229, 136.883 229 C 135.848 229, 135 228.361, 135 227.579 C 135 226.798, 133.650 225.862, 132 225.500 C 130.350 225.138, 129 224.202, 129 223.421 C 129 222.639, 128.100 222, 127 222 C 125.381 222, 125 221.333, 125 218.500 C 125 215.667, 124.619 215, 123 215 C 121.242 215, 121 214.333, 121 209.500 L 121 204 117.500 204 C 115.187 204, 114 204.469, 114 205.383 C 114 206.144, 113.100 207.002, 112 207.290 C 110.468 207.690, 110 208.654, 110 211.406 C 110 214.333, 110.371 215, 112 215 C 113.619 215, 114 215.667, 114 218.500 C 114 220.944, 114.452 222, 115.500 222 C 116.325 222, 117 222.717, 117 223.594 C 117 224.470, 117.875 225.416, 118.944 225.696 C 120.253 226.038, 120.988 227.233, 121.194 229.352 C 121.461 232.096, 121.917 232.540, 124.750 232.813 C 126.763 233.007, 128 233.673, 128 234.563 C 128 235.354, 128.900 236, 130 236 C 131.333 236, 132 236.667, 132 238 C 132 239.758, 132.667 240, 137.500 240 C 142.333 240, 143 240.242, 143 242 C 143 243.733, 143.667 244, 148 244 C 151.778 244, 153 244.367, 153 245.500 C 153 246.700, 154.500 247, 160.500 247 C 167.333 247, 168 246.822, 168 245 C 168 243.900, 168.639 243, 169.421 243 C 171.501 243, 172.307 237.770, 171.521 229.379 C 171.018 224.010, 170.444 222, 169.415 222 C 168.465 222, 168 220.851, 168 218.500 C 168 216.056, 167.548 215, 166.500 215 C 165.675 215, 165 214.283, 165 213.406 C 165 212.530, 164.100 211.577, 163 211.290 C 161.900 211.002, 161 210.172, 161 209.445 C 161 208.132, 166.807 206.974, 172 207.251 C 178.412 207.593, 182 206.965, 182 205.500 C 182 204.258, 183.889 204, 193 204 C 201.959 204, 204 203.730, 204 202.545 C 204 201.009, 209.394 199.536, 212.650 200.182 C 214.226 200.495, 214.448 201.333, 214.152 205.843 C 213.844 210.529, 214.045 211.199, 215.902 211.685 C 217.056 211.986, 218 212.856, 218 213.617 C 218 214.531, 219.187 215, 221.500 215 C 224.036 215, 225 215.439, 225 216.594 C 225 217.470, 225.900 218.423, 227 218.710 C 228.100 218.998, 229 219.856, 229 220.617 C 229 221.377, 229.900 222, 231 222 C 232.100 222, 233 222.655, 233 223.455 C 233 224.325, 234.405 225.173, 236.500 225.566 C 238.505 225.942, 240 226.816, 240 227.611 C 240 229.882, 242.716 229.188, 243.370 226.750 C 244.376 222.993, 244.090 222, 242 222 C 240.667 222, 240 221.333, 240 220 C 240 218.667, 239.333 218, 238 218 C 236.889 218, 236 217.333, 236 216.500 C 236 215.675, 235.325 215, 234.500 215 C 233.667 215, 233 214.111, 233 213 C 233 211.667, 232.333 211, 231 211 C 229.667 211, 229 210.333, 229 209 C 229 207.900, 228.377 207, 227.617 207 C 226.856 207, 225.980 206.033, 225.671 204.851 C 224.853 201.723, 226.028 197, 227.625 197 C 228.669 197, 229 195.197, 229 189.500 C 229 183.500, 228.700 182, 227.500 182 C 226.534 182, 225.995 181.022, 225.986 179.250 C 225.965 174.968, 224.899 172, 223.383 172 C 222.390 172, 222 173.410, 222 177 C 222 181.333, 221.733 182, 220 182 C 218.889 182, 218 181.333, 218 180.500 C 218 179.675, 217.325 179, 216.500 179 C 215.667 179, 215 178.111, 215 177 C 215 175.900, 214.345 175, 213.545 175 C 212.675 175, 211.827 173.595, 211.434 171.500 C 211.073 169.575, 210.205 168, 209.505 168 C 208.806 168, 207.998 167.100, 207.710 166 C 207.423 164.900, 206.470 164, 205.594 164 C 204.717 164, 204 163.325, 204 162.500 C 204 161.675, 203.325 161, 202.500 161 C 201.667 161, 201 160.111, 201 159 C 201 157.667, 200.333 157, 199 157 C 197.381 157, 197 156.333, 197 153.500 C 197 150.667, 196.619 150, 195 150 C 193.667 150, 193 149.333, 193 148 C 193 146.889, 192.333 146, 191.500 146 C 190.675 146, 190 145.325, 190 144.500 C 190 143.667, 189.111 143, 188 143 C 186.381 143, 186 142.333, 186 139.500 C 186 137.056, 185.548 136, 184.500 136 C 183.452 136, 183 134.944, 183 132.500 C 183 130.056, 183.452 129, 184.500 129 C 185.333 129, 186 128.111, 186 127 C 186 125.900, 186.655 125, 187.455 125 C 188.325 125, 189.173 123.595, 189.566 121.500 C 189.927 119.575, 190.797 118, 191.500 118 C 192.203 118, 193.073 116.425, 193.434 114.500 C 193.827 112.405, 194.675 111, 195.545 111 C 196.430 111, 197 110.021, 197 108.500 C 197 106.944, 197.567 106, 198.500 106 C 199.325 106, 200 105.325, 200 104.500 C 200 103.667, 200.889 103, 202 103 C 203.111 103, 204 102.333, 204 101.500 C 204 100.675, 204.675 100, 205.500 100 C 206.325 100, 207 100.675, 207 101.500 C 207 102.333, 207.889 103, 209 103 C 210.619 103, 211 102.333, 211 99.500 C 211 97.187, 210.531 96, 209.617 96 C 208.856 96, 207.998 95.100, 207.710 94 C 207.325 92.528, 206.346 92, 204 92 C 201.654 92, 200.675 92.528, 200.290 94 C 199.897 95.503, 198.926 96, 196.383 96 C 193.667 96, 193 96.394, 193 98 C 193 99.100, 192.345 100, 191.545 100 C 190.675 100, 189.827 101.405, 189.434 103.500 C 189.058 105.505, 188.184 107, 187.389 107 C 186.468 107, 186 108.180, 186 110.500 C 186 113.333, 185.619 114, 184 114 C 182.667 114, 182 114.667, 182 116 C 182 117.111, 181.333 118, 180.500 118 C 179.675 118, 178.993 118.787, 178.985 119.750 C 178.976 120.713, 178.518 122.175, 177.966 123 C 177.092 124.308, 176.832 124.276, 175.932 122.750 C 175.365 121.787, 174.298 121, 173.562 121 C 172.823 121, 171.928 119.431, 171.566 117.500 C 171.173 115.405, 170.325 114, 169.455 114 C 168.459 114, 168 112.896, 168 110.500 C 168 108.187, 167.531 107, 166.617 107 C 165.856 107, 164.998 106.100, 164.710 105 C 164.423 103.900, 163.470 103, 162.594 103 C 161.439 103, 161 102.036, 161 99.500 C 161 96.735, 160.603 96, 159.111 96 C 158.072 96, 157.243 95.438, 157.269 94.750 C 157.413 90.866, 156.839 89, 155.500 89 C 154.452 89, 154 87.944, 154 85.500 C 154 82.667, 153.619 82, 152 82 C 150.394 82, 150 81.333, 150 78.617 C 150 76.074, 149.503 75.103, 148 74.710 C 146.803 74.397, 146 73.346, 146 72.094 C 146 70.899, 145.356 70, 144.500 70 C 143.513 70, 143 69.013, 143 67.117 C 143 65.074, 142.417 64.081, 141 63.710 C 139.468 63.310, 139 62.346, 139 59.594 L 139 56 144.500 56 C 148.722 56, 150 55.652, 150 54.500 C 150 53.299, 151.505 53, 157.545 53 L 165.091 53 164.434 56.500 L 163.777 60 167.889 60 C 170.820 60, 172 59.582, 172 58.545 C 172 57.675, 173.405 56.827, 175.500 56.434 C 177.505 56.058, 179 55.184, 179 54.389 C 179 53.625, 179.675 53, 180.500 53 C 181.333 53, 182 52.111, 182 51 C 182 49.900, 181.377 49, 180.617 49 C 179.856 49, 178.997 48.098, 178.709 46.995 C 178.208 45.080, 177.535 45.008, 163.842 45.403 C 155.954 45.631, 146.463 45.858, 142.750 45.909 C 137.457 45.980, 136 46.324, 136 47.500 C 136 48.333, 135.111 49, 134 49 C 132.889 49, 132 48.333, 132 47.500 C 132 46.675, 131.375 46, 130.611 46 C 129.816 46, 128.942 44.505, 128.566 42.500 C 128.173 40.405, 127.325 39, 126.455 39 C 125.655 39, 125 38.152, 125 37.117 C 125 36.074, 124.107 35, 123 34.710 C 121.900 34.423, 121 33.470, 121 32.594 C 121 31.439, 120.036 31, 117.500 31 L 114 31 114 36.500 M 118 58.500 C 118 59.688, 116.569 60, 111.117 60 C 105.074 60, 104.169 60.244, 103.710 62 C 103.229 63.841, 102.346 64, 92.594 64 C 83.844 64, 82 64.261, 82 65.500 C 82 66.333, 81.111 67, 80 67 C 78.103 67, 78 67.667, 78 80 C 78 90.889, 77.756 93, 76.500 93 C 75.500 93, 75 94, 75 96 C 75 98, 75.500 99, 76.500 99 C 77.333 99, 78 99.889, 78 101 C 78 102.619, 78.667 103, 81.500 103 C 83.944 103, 85 102.548, 85 101.500 C 85 100.588, 85.931 100, 87.375 100 C 91.880 100, 96 98.746, 96 97.375 C 96 96.310, 98.030 96, 105 96 C 111.996 96, 114 95.692, 114 94.617 C 114 93.041, 117 92.034, 121.750 92.014 C 123.856 92.005, 125 91.509, 125 90.606 C 125 89.561, 126.986 89.122, 132.920 88.852 C 137.277 88.654, 141.065 88.268, 141.339 87.994 C 141.613 87.720, 142.148 86.259, 142.527 84.748 C 143.077 82.557, 142.872 82, 141.515 82 C 140.579 82, 139.577 81.100, 139.290 80 C 139.002 78.900, 138.184 78, 137.471 78 C 136.739 78, 135.882 76.260, 135.500 74 C 135.085 71.541, 134.280 70, 133.412 70 C 132.384 70, 132 68.639, 132 65 C 132 60.667, 131.733 60, 130 60 C 128.889 60, 128 59.333, 128 58.500 C 128 57.367, 126.778 57, 123 57 C 119.222 57, 118 57.367, 118 58.500 M 89 119.500 C 89 120.333, 88.111 121, 87 121 C 85.242 121, 85 121.667, 85 126.500 C 85 130.516, 85.373 132, 86.383 132 C 88.103 132, 88.969 135.077, 88.986 141.250 C 88.997 144.799, 89.379 146, 90.500 146 C 91.555 146, 92 147.066, 92 149.594 C 92 152.346, 92.468 153.310, 94 153.710 C 95.503 154.103, 96 155.074, 96 157.617 C 96 160.333, 95.606 161, 94 161 C 92.667 161, 92 161.667, 92 163 C 92 164.111, 91.333 165, 90.500 165 C 89.367 165, 89 166.222, 89 170 L 89 175 92.500 175 C 94.944 175, 96 174.548, 96 173.500 C 96 172.363, 97.233 172, 101.094 172 C 105.346 172, 106.274 171.670, 106.710 170 C 107 168.893, 108.074 168, 109.117 168 C 110.152 168, 111 167.325, 111 166.500 C 111 165.675, 111.675 165, 112.500 165 C 113.325 165, 114 164.150, 114 163.111 C 114 161.745, 114.967 161.041, 117.500 160.566 C 120.562 159.992, 121 159.540, 121 156.955 C 121 154.667, 121.451 154, 123 154 C 124.333 154, 125 153.333, 125 152 C 125 150.889, 125.667 150, 126.500 150 C 127.325 150, 128 149.283, 128 148.406 C 128 147.530, 128.900 146.577, 130 146.290 C 131.407 145.922, 132 144.926, 132 142.929 C 132 140.477, 132.476 140.001, 135.500 139.434 C 138.928 138.791, 139 138.678, 139 133.934 C 139 129.190, 138.928 129.077, 135.500 128.434 C 133.575 128.073, 132 127.205, 132 126.505 C 132 124.752, 128.965 124.366, 118.750 124.818 C 112.109 125.112, 110 125.542, 110 126.603 C 110 127.498, 108.889 128, 106.906 128 C 104.654 128, 103.671 128.544, 103.290 130 C 102.897 131.503, 101.926 132, 99.383 132 C 95.617 132, 94.607 129.598, 98 128.710 C 99.532 128.310, 100 127.346, 100 124.594 C 100 121.667, 99.629 121, 98 121 C 96.889 121, 96 120.333, 96 119.500 C 96 118.452, 94.944 118, 92.500 118 C 90.056 118, 89 118.452, 89 119.500 M 121 133.466 C 121 134.469, 119.424 135.140, 116 135.594 C 112.754 136.025, 111 136.739, 111 137.629 C 111 138.383, 110.100 139, 109 139 C 107.667 139, 107 139.667, 107 141 C 107 142.100, 106.377 143, 105.617 143 C 104.331 143, 103.045 145.840, 103.014 148.750 C 103.005 149.515, 104.359 150, 106.500 150 C 109.333 150, 110 149.619, 110 148 C 110 146.667, 110.667 146, 112 146 C 113.111 146, 114 145.333, 114 144.500 C 114 143.675, 114.717 143, 115.594 143 C 116.470 143, 117.423 142.100, 117.710 141 C 118.074 139.608, 119.074 139, 121 139 C 123.024 139, 123.929 138.396, 124.370 136.750 C 125.376 132.993, 125.090 132, 123 132 C 121.900 132, 121 132.660, 121 133.466 M 78 202 C 78 203.111, 77.333 204, 76.500 204 C 75.348 204, 75 205.278, 75 209.500 C 75 213.722, 75.348 215, 76.500 215 C 77.716 215, 78 216.611, 78 223.500 C 78 230.028, 78.318 232, 79.369 232 C 80.979 232, 81.973 237.028, 81.989 245.250 C 81.997 249.690, 82.342 251, 83.500 251 C 84.711 251, 85.003 252.589, 85.014 259.250 C 85.029 268.804, 85.682 272, 87.617 272 C 88.377 272, 89 272.900, 89 274 C 89 275.758, 89.667 276, 94.500 276 C 98.722 276, 100 275.652, 100 274.500 C 100 273.675, 100.675 273, 101.500 273 C 102.583 273, 103 271.889, 103 269 L 103 265 98.119 265 L 93.239 265 92.523 254.500 C 91.977 246.493, 91.474 244, 90.404 244 C 89.284 244, 89 241.776, 89 233 C 89 224.333, 88.708 222, 87.625 222 C 85.824 222, 85 217.568, 85 207.875 L 85 200 81.500 200 C 78.667 200, 78 200.381, 78 202" stroke="none" fill="black" fill-rule="evenodd"/>
</svg>