<svg xmlns="http://www.w3.org/2000/svg" width="300" height="300" viewBox="0 0 300 300" version="1.1">
	<path d="M 152.250 33.706 C 150.279 34.085, 150 34.752, 150 39.070 C 150 42.586, 149.606 44, 148.625 44 C 147.254 44, 146 48.120, 146 52.625 C 146 54.814, 145.601 55, 140.906 55 C 136.654 55, 135.726 55.330, 135.290 57 C 135.002 58.100, 134.144 59, 133.383 59 C 132.373 59, 132 60.484, 132 64.500 C 132 68.866, 132.329 70, 133.594 70 C 134.470 70, 135.423 69.100, 135.710 68 C 136.143 66.344, 137.074 66, 141.117 66 L 146 66 146 84.375 C 146 94.481, 146.281 104.156, 146.625 105.875 C 147.222 108.862, 147.465 109, 152.125 109 C 156.333 109, 157 109.274, 157 111 C 157 112.943, 157.667 113, 180.500 113 C 200.722 113, 204 113.209, 204 114.500 C 204 115.325, 203.283 116, 202.406 116 C 201.530 116, 200.577 116.900, 200.290 118 C 200 119.107, 198.926 120, 197.883 120 C 195.639 120, 195.352 122.814, 197.512 123.643 C 200.160 124.659, 208 123.011, 208 121.439 C 208 120.520, 209.042 120, 210.883 120 C 212.926 120, 213.919 119.417, 214.290 118 C 214.577 116.900, 215.530 116, 216.406 116 C 217.647 116, 218 114.918, 218 111.117 C 218 106.898, 217.694 106.151, 215.750 105.630 C 214.512 105.299, 204.162 105.021, 192.750 105.014 C 174.978 105.002, 172 104.785, 172 103.500 C 172 102.348, 170.722 102, 166.500 102 C 162.484 102, 161 101.627, 161 100.617 C 161 99.856, 160.100 98.998, 159 98.710 C 157.096 98.212, 157 97.346, 157 80.719 L 157 63.250 160.125 62.625 C 161.844 62.281, 166.794 62, 171.125 62 C 177.458 62, 179 61.706, 179 60.500 C 179 59.452, 180.056 59, 182.500 59 C 185.833 59, 186 59.167, 186 62.500 L 186 66 191.500 66 L 197 66 197 61 C 197 57.222, 197.367 56, 198.500 56 C 199.333 56, 200 55.111, 200 54 C 200 52.889, 199.333 52, 198.500 52 C 197.667 52, 197 51.111, 197 50 C 197 48.333, 196.333 48, 193 48 C 190.111 48, 189 48.417, 189 49.500 C 189 50.771, 186.556 51, 173 51 C 159.444 51, 157 50.771, 157 49.500 C 157 48.667, 157.889 48, 159 48 C 160.758 48, 161 47.333, 161 42.500 C 161 38.484, 160.627 37, 159.617 37 C 158.856 37, 157.998 36.100, 157.710 35 C 157.191 33.015, 156.583 32.871, 152.250 33.706 M 67.750 51.728 L 64 52.121 64 56.944 C 64 62.673, 64.272 62.785, 76.750 62.185 C 82.948 61.887, 85 61.442, 85 60.394 C 85 59.434, 86.246 59, 89 59 C 91.889 59, 93 59.417, 93 60.500 C 93 61.633, 94.222 62, 98 62 L 103 62 103 58.500 C 103 55.167, 102.833 55, 99.500 55 C 97.197 55, 96 54.530, 96 53.625 C 96 52.869, 94.594 51.969, 92.875 51.625 C 89.639 50.978, 74.323 51.041, 67.750 51.728 M 70 85.421 C 70 86.202, 68.650 87.138, 67 87.500 C 64.380 88.075, 64 88.592, 64 91.579 C 64 94.713, 64.251 95, 67 95 C 69 95, 70 95.500, 70 96.500 C 70 97.583, 71.111 98, 74 98 C 76.889 98, 78 97.583, 78 96.500 C 78 95.456, 79.050 95, 81.450 95 C 83.640 95, 85.244 94.387, 85.840 93.322 C 86.510 92.124, 88.545 91.516, 92.951 91.197 C 98.591 90.789, 99.170 90.934, 99.678 92.875 C 99.983 94.044, 100.803 95, 101.500 95 C 102.197 95, 103.002 95.900, 103.290 97 C 103.671 98.456, 104.654 99, 106.906 99 C 109.849 99, 110 98.805, 110 95 C 110 92.111, 109.583 91, 108.500 91 C 107.667 91, 107 90.111, 107 89 C 107 87.667, 106.333 87, 105 87 C 103.889 87, 103 86.333, 103 85.500 C 103 84.227, 100.500 84, 86.500 84 C 72.910 84, 70 84.251, 70 85.421 M 109.250 112.727 C 101.959 113.001, 100 113.385, 100 114.538 C 100 115.518, 98.929 116.005, 96.750 116.014 C 92 116.034, 89 117.041, 89 118.617 C 89 119.627, 87.516 120, 83.500 120 C 79.278 120, 78 120.348, 78 121.500 C 78 122.412, 77.069 123, 75.625 123 C 71.120 123, 67 124.254, 67 125.625 C 67 126.530, 65.803 127, 63.500 127 L 60 127 60 132.500 L 60 138 69 138 L 78 138 78 134.500 C 78 131.190, 78.183 131, 81.383 131 C 83.926 131, 84.897 130.503, 85.290 129 C 85.690 127.468, 86.654 127, 89.406 127 C 91.934 127, 93 126.555, 93 125.500 C 93 124.534, 93.978 123.995, 95.750 123.986 C 100.032 123.965, 103 122.899, 103 121.383 C 103 120.329, 104.781 120, 110.500 120 C 116.396 120, 118 119.689, 118 118.545 C 118 117.675, 119.405 116.827, 121.500 116.434 C 124.769 115.821, 126.599 113.017, 123.750 112.986 C 123.063 112.979, 121.600 112.839, 120.500 112.676 C 119.400 112.513, 114.338 112.536, 109.250 112.727 M 146 121.500 C 146 122.325, 145.325 123, 144.500 123 C 143.667 123, 143 123.889, 143 125 C 143 126.333, 142.333 127, 141 127 C 139.148 127, 139 127.667, 139 136 L 139 145 135.500 145 C 133.215 145, 132 145.472, 132 146.361 C 132 147.958, 125.119 148.978, 114.250 148.991 C 108.476 148.998, 107 149.305, 107 150.500 C 107 151.751, 104.966 152.002, 94.750 152.014 C 81.280 152.029, 78 152.538, 78 154.617 C 78 155.377, 77.325 156, 76.500 156 C 75.459 156, 75 157.047, 75 159.421 C 75 162.386, 75.388 162.926, 77.916 163.482 C 79.521 163.834, 81.081 164.770, 81.385 165.561 C 81.762 166.543, 83.499 167, 86.852 167 C 90.926 167, 91.856 166.658, 92.290 165 C 92.671 163.544, 93.654 163, 95.906 163 C 97.990 163, 99 162.510, 99 161.500 C 99 160.268, 100.764 160, 108.875 160 C 120.494 160, 125 159.266, 125 157.375 C 125 156.339, 126.727 156, 132 156 L 139 156 139 159.500 C 139 162.833, 138.833 163, 135.500 163 C 132.667 163, 132 163.381, 132 165 C 132 166.111, 131.333 167, 130.500 167 C 129.675 167, 129 167.717, 129 168.594 C 129 169.470, 128.126 170.416, 127.057 170.695 C 125.941 170.987, 124.849 172.409, 124.492 174.037 C 124.035 176.116, 123.107 177.037, 121 177.500 C 118.863 177.969, 117.966 178.880, 117.486 181.065 C 117.131 182.679, 116.202 184, 115.421 184 C 114.639 184, 114 184.900, 114 186 C 114 187.333, 113.333 188, 112 188 C 110.667 188, 110 188.667, 110 190 C 110 191.100, 109.377 192, 108.617 192 C 107.856 192, 106.998 192.900, 106.710 194 C 106.423 195.100, 105.470 196, 104.594 196 C 103.717 196, 103 196.675, 103 197.500 C 103 198.325, 102.283 199, 101.406 199 C 100.530 199, 99.577 199.900, 99.290 201 C 99.002 202.100, 98.144 203, 97.383 203 C 96.623 203, 96 203.675, 96 204.500 C 96 205.325, 95.283 206, 94.406 206 C 93.530 206, 92.577 206.900, 92.290 208 C 92.002 209.100, 91.144 210, 90.383 210 C 89.623 210, 89 210.675, 89 211.500 C 89 212.333, 88.111 213, 87 213 C 85.667 213, 85 213.667, 85 215 C 85 216.333, 84.333 217, 83 217 C 81.667 217, 81 217.667, 81 219 C 81 220.111, 80.333 221, 79.500 221 C 78.675 221, 78 221.675, 78 222.500 C 78 223.333, 77.111 224, 76 224 C 74.667 224, 74 224.667, 74 226 C 74 227.333, 73.333 228, 72 228 C 70.900 228, 70 228.639, 70 229.421 C 70 230.202, 68.650 231.138, 67 231.500 C 65.350 231.862, 64 232.748, 64 233.468 C 64 234.188, 62.425 235.073, 60.500 235.434 C 57.476 236.001, 57 236.477, 57 238.929 C 57 240.991, 57.587 241.920, 59.149 242.329 C 62.277 243.147, 67 241.972, 67 240.375 C 67 239.619, 67.900 239, 69 239 C 70.333 239, 71 238.333, 71 237 C 71 235.667, 71.667 235, 73 235 C 74.100 235, 75 234.361, 75 233.579 C 75 232.798, 76.350 231.862, 78 231.500 C 79.650 231.138, 81 230.202, 81 229.421 C 81 228.639, 81.900 228, 83 228 C 84.333 228, 85 227.333, 85 226 C 85 224.667, 85.667 224, 87 224 C 88.111 224, 89 223.333, 89 222.500 C 89 221.675, 89.675 221, 90.500 221 C 91.333 221, 92 220.111, 92 219 C 92 217.667, 92.667 217, 94 217 C 95.100 217, 96 216.377, 96 215.617 C 96 214.856, 96.900 213.998, 98 213.710 C 99.100 213.423, 100 212.470, 100 211.594 C 100 210.717, 100.623 210, 101.383 210 C 102.144 210, 103.002 209.100, 103.290 208 C 103.577 206.900, 104.530 206, 105.406 206 C 106.283 206, 107 205.325, 107 204.500 C 107 203.675, 107.623 203, 108.383 203 C 109.144 203, 110.002 202.100, 110.290 201 C 110.577 199.900, 111.530 199, 112.406 199 C 113.283 199, 114 198.325, 114 197.500 C 114 196.675, 114.717 196, 115.594 196 C 116.470 196, 117.423 195.100, 117.710 194 C 117.998 192.900, 118.856 192, 119.617 192 C 120.377 192, 121 191.100, 121 190 C 121 188.667, 121.667 188, 123 188 C 124.333 188, 125 187.333, 125 186 C 125 184.889, 125.667 184, 126.500 184 C 127.325 184, 128 183.325, 128 182.500 C 128 181.667, 128.889 181, 130 181 C 131.333 181, 132 180.333, 132 179 C 132 177.889, 132.667 177, 133.500 177 C 134.325 177, 135 176.325, 135 175.500 C 135 174.417, 136.111 174, 139 174 L 143 174 142.986 182.250 C 142.968 193.070, 142.453 194.741, 138.898 195.522 C 135.912 196.178, 134.803 199, 137.531 199 C 138.374 199, 139.311 199.648, 139.615 200.439 C 139.919 201.230, 141.479 202.166, 143.084 202.518 C 145.681 203.089, 146 203.574, 146 206.954 C 146 212.777, 147.103 217, 148.625 217 C 149.756 217, 150 221.530, 150 242.500 C 150 267.333, 150.052 268, 152 268 C 153.111 268, 154 268.667, 154 269.500 C 154 271.726, 156.684 271.318, 157.290 269 C 157.577 267.900, 158.594 267, 159.548 267 C 161.136 267, 161.239 265.841, 160.764 253.385 C 160.382 243.367, 159.882 239.545, 158.872 238.922 C 157.830 238.279, 157.418 234.343, 157.160 222.538 L 156.821 207 160.410 207 C 162.934 207, 164 207.445, 164 208.500 C 164 209.700, 165.500 210, 171.500 210 C 177.159 210, 179 210.334, 179 211.361 C 179 212.751, 185.622 213.974, 193.250 213.991 C 195.913 213.997, 197 214.435, 197 215.500 C 197 216.790, 200.209 217, 219.883 217 L 242.767 217 243.370 214.750 C 244.622 210.076, 244.480 210, 234.500 210 C 227.198 210, 225 209.688, 225 208.652 C 225 207.310, 211.834 206, 198.344 206 C 194.260 206, 193 205.646, 193 204.500 C 193 203.314, 191.580 203, 186.222 203 C 180.682 203, 179.132 202.635, 177.732 201 C 176.372 199.412, 174.782 199, 170.010 199 C 165.334 199, 164 198.667, 164 197.500 C 164 196.490, 162.990 196, 160.906 196 C 158.654 196, 157.671 195.456, 157.290 194 C 157.002 192.900, 156.144 192, 155.383 192 C 154.363 192, 154 190.460, 154 186.125 C 154 178.342, 153.060 174, 151.375 174 C 150.470 174, 150 172.803, 150 170.500 C 150 167.167, 150.167 167, 153.500 167 C 155.944 167, 157 167.452, 157 168.500 C 157 169.333, 157.889 170, 159 170 C 160.619 170, 161 169.333, 161 166.500 C 161 163.667, 160.619 163, 159 163 C 157.900 163, 157 162.345, 157 161.545 C 157 160.675, 155.595 159.827, 153.500 159.434 C 150.459 158.864, 150 158.398, 150 155.889 C 150 153.201, 150.269 153, 153.875 153 C 159.624 153, 164 151.916, 164 150.491 C 164 149.650, 166.186 149.094, 170.600 148.813 C 175.462 148.503, 177.451 147.945, 178.150 146.696 C 178.924 145.313, 180.637 145, 187.433 145 C 196.654 145, 196.955 144.756, 196.986 137.250 L 197 134 189.906 134 C 183.654 134, 182.751 134.237, 182.290 136 C 181.831 137.756, 180.926 138, 174.883 138 C 169.753 138, 168 138.346, 168 139.358 C 168 140.660, 160.322 142, 152.853 142 C 150.061 142, 150 141.882, 150 136.500 C 150 130.338, 149.861 130.422, 159.250 130.928 C 163.484 131.156, 164 130.957, 164 129.092 C 164 127.368, 163.385 127, 160.500 127 C 158.104 127, 157 126.541, 157 125.545 C 157 124.675, 155.595 123.827, 153.500 123.434 C 151.495 123.058, 150 122.184, 150 121.389 C 150 120.625, 149.100 120, 148 120 C 146.889 120, 146 120.667, 146 121.500" stroke="none" fill="black" fill-rule="evenodd"/>
</svg>