<svg xmlns="http://www.w3.org/2000/svg" width="300" height="300" viewBox="0 0 300 300" version="1.1">
	<path d="M 104 29.500 C 104 30.583, 102.889 31, 100 31 C 96.667 31, 96 31.333, 96 33 C 96 34.111, 95.333 35, 94.500 35 C 93.452 35, 93 36.056, 93 38.500 L 93 42 105 42 L 117 42 117 52.500 L 117 63 112.647 63 C 103.806 63, 96 64.239, 96 65.642 C 96 66.700, 93.662 67, 85.406 67 C 75.654 67, 74.771 67.159, 74.290 69 C 73.926 70.392, 72.926 71, 71 71 C 68.040 71, 67.040 72.842, 67.014 78.344 C 67.004 80.353, 67.587 81.341, 69 81.710 C 70.100 81.998, 71 82.856, 71 83.617 C 71 84.531, 72.187 85, 74.500 85 C 77.833 85, 78 84.833, 78 81.500 C 78 78.083, 78.095 78, 82 78 C 84.696 78, 86 77.559, 86 76.647 C 86 75.189, 95.726 74, 107.651 74 C 112.628 74, 114 73.676, 114 72.500 C 114 71.675, 114.619 71, 115.375 71 C 117.084 71, 118 75.360, 118 83.500 C 118 86.938, 117.719 91.156, 117.375 92.875 C 116.778 95.862, 116.535 96, 111.875 96 C 108.391 96, 107 96.395, 107 97.383 C 107 98.144, 106.100 99.002, 105 99.290 C 103.339 99.724, 103 100.654, 103 104.781 C 103 109.546, 103.128 109.776, 106.125 110.375 C 111.898 111.530, 114 111.163, 114 109 C 114 107.381, 114.667 107, 117.500 107 C 120.333 107, 121 107.381, 121 109 C 121 110.111, 120.333 111, 119.500 111 C 118.675 111, 118 111.675, 118 112.500 C 118 113.325, 118.675 114, 119.500 114 C 120.325 114, 121 114.675, 121 115.500 C 121 116.325, 120.325 117, 119.500 117 C 118.675 117, 118 117.850, 118 118.889 C 118 120.245, 117.041 120.957, 114.597 121.416 C 112.725 121.767, 110.939 122.717, 110.628 123.527 C 110.278 124.440, 108.719 125, 106.531 125 L 103 125 103 129.921 C 103 134.526, 103.184 134.881, 105.872 135.472 C 109.600 136.291, 114 135.164, 114 133.392 C 114 132.468, 115.177 132, 117.500 132 L 121 132 121 141 L 121 150 117.500 150 C 115.197 150, 114 150.470, 114 151.375 C 114 152.746, 109.880 154, 105.375 154 C 103.931 154, 103 154.588, 103 155.500 C 103 156.466, 102.022 157.005, 100.250 157.014 C 95.134 157.039, 93.140 158.088, 92.478 161.102 C 92.128 162.696, 91.202 164, 90.421 164 C 89.639 164, 89 164.900, 89 166 C 89 167.111, 89.667 168, 90.500 168 C 91.325 168, 92 168.648, 92 169.441 C 92 170.234, 92.429 171.147, 92.954 171.472 C 94.516 172.437, 99 170.895, 99 169.392 C 99 168.435, 100.250 168, 103 168 C 106.333 168, 107 167.667, 107 166 C 107 164.667, 107.667 164, 109 164 C 110.111 164, 111 163.333, 111 162.500 C 111 161.367, 112.222 161, 116 161 L 121 161 121 173.500 L 121 186 114 186 C 108.444 186, 107 186.310, 107 187.500 C 107 188.333, 106.111 189, 105 189 C 103.273 189, 103 188.333, 103 184.108 C 103 179.778, 102.725 179.148, 100.598 178.614 C 99.276 178.282, 96.801 178.290, 95.098 178.630 C 92.167 179.217, 92.001 179.500, 92.014 183.875 C 92.032 189.929, 92.908 193, 94.617 193 C 95.671 193, 96 194.781, 96 200.500 C 96 206.197, 96.331 208, 97.375 208 C 98.746 208, 100 212.120, 100 216.625 C 100 218.069, 100.588 219, 101.500 219 C 102.633 219, 103 220.222, 103 224 C 103 227.576, 103.392 229, 104.375 229 C 105.746 229, 107 233.120, 107 237.625 C 107 239.333, 107.561 240, 109 240 C 110.111 240, 111 240.667, 111 241.500 C 111 242.325, 111.675 243, 112.500 243 C 113.333 243, 114 243.889, 114 245 C 114 246.897, 114.667 247, 127 247 C 137.245 247, 140 246.714, 140 245.650 C 140 244.653, 142.544 244.136, 149.750 243.670 C 160.217 242.993, 164 243.481, 164 245.511 C 164 246.412, 161.619 246.896, 155.924 247.155 C 149.543 247.445, 147.643 247.887, 146.874 249.261 C 146.046 250.740, 144.338 251, 135.450 251 C 126.828 251, 125 251.262, 125 252.500 C 125 253.684, 123.577 254.003, 118.250 254.014 C 110.152 254.030, 107 254.759, 107 256.617 C 107 257.755, 102.842 258, 83.500 258 L 60 258 60 261.500 C 60 263.813, 60.469 265, 61.383 265 C 62.144 265, 63.015 265.948, 63.318 267.107 C 63.847 269.130, 64.357 269.200, 75.971 268.857 C 85.369 268.580, 88.280 268.165, 88.998 267 C 89.742 265.795, 92.975 265.437, 105.462 265.180 C 117.383 264.934, 121 264.556, 121 263.559 C 121 262.681, 123.276 262.034, 128 261.569 C 133.105 261.066, 135 260.489, 135 259.439 C 135 258.288, 136.900 258, 144.500 258 C 151.846 258, 154 257.691, 154 256.639 C 154 255.249, 160.622 254.026, 168.250 254.009 C 170.913 254.003, 172 253.565, 172 252.500 C 172 251.247, 174.056 251, 184.500 251 C 194.476 251, 197 250.721, 197 249.617 C 197 247.588, 200.251 247.029, 212.125 247.014 C 224.454 246.998, 229 247.701, 229 249.625 C 229 250.563, 230.273 251, 233 251 C 235.889 251, 237 250.583, 237 249.500 C 237 248.675, 237.675 248, 238.500 248 C 239.667 248, 240 246.667, 240 242 C 240 236.667, 239.778 236, 238 236 C 236.889 236, 236 235.333, 236 234.500 C 236 233.452, 234.944 233, 232.500 233 C 229.167 233, 229 233.167, 229 236.500 C 229 238.944, 228.548 240, 227.500 240 C 226.675 240, 226 239.325, 226 238.500 C 226 237.417, 224.889 237, 222 237 C 219.111 237, 218 237.417, 218 238.500 C 218 239.325, 217.325 240, 216.500 240 C 215.675 240, 215 239.325, 215 238.500 C 215 237.452, 213.944 237, 211.500 237 C 209.056 237, 208 237.452, 208 238.500 C 208 239.753, 205.944 240, 195.500 240 C 185.056 240, 183 240.247, 183 241.500 C 183 242.652, 181.722 243, 177.500 243 C 173.278 243, 172 242.652, 172 241.500 C 172 240.675, 172.625 240, 173.389 240 C 174.184 240, 175.058 238.505, 175.434 236.500 C 175.827 234.405, 176.675 233, 177.545 233 C 178.541 233, 179 231.896, 179 229.500 C 179 227.197, 179.470 226, 180.375 226 C 181.746 226, 183 221.880, 183 217.375 C 183 215.931, 183.588 215, 184.500 215 C 185.742 215, 186 213.111, 186 204 C 186 195.041, 185.730 193, 184.545 193 C 183.675 193, 182.827 191.595, 182.434 189.500 C 182.073 187.575, 181.205 186, 180.505 186 C 179.806 186, 178.998 185.100, 178.710 184 C 178.329 182.544, 177.346 182, 175.094 182 C 173.010 182, 172 181.510, 172 180.500 C 172 179.227, 169.500 179, 155.500 179 C 141.500 179, 139 179.227, 139 180.500 C 139 181.633, 137.778 182, 134 182 L 129 182 129 171.500 C 129 162.833, 129.262 161, 130.500 161 C 131.333 161, 132 160.111, 132 159 C 132 157.889, 132.667 157, 133.500 157 C 134.325 157, 135 156.378, 135 155.617 C 135 154.626, 137.122 154.036, 142.500 153.532 C 147.968 153.020, 150 152.446, 150 151.415 C 150 150.330, 151.632 150, 157 150 C 162.237 150, 164 149.657, 164 148.639 C 164 147.121, 170.782 146.023, 180.250 146.009 C 184.691 146.002, 186 145.658, 186 144.500 C 186 143.675, 186.675 143, 187.500 143 C 188.538 143, 189 141.957, 189 139.617 C 189 135.337, 187.347 134.825, 176.250 135.668 C 170.292 136.121, 168 136.671, 168 137.648 C 168 138.607, 166.520 139, 162.906 139 C 158.654 139, 157.726 139.330, 157.290 141 C 156.819 142.799, 155.926 143, 148.383 143 C 141.598 143, 140 143.286, 140 144.500 C 140 145.667, 138.667 146, 134 146 L 128 146 128.014 139.750 C 128.036 129.530, 128.229 129.242, 135.599 128.453 C 140.052 127.976, 142 127.346, 142 126.384 C 142 125.303, 144.078 125, 151.500 125 C 159.278 125, 161 125.272, 161 126.500 C 161 127.325, 161.563 128.006, 162.250 128.014 C 162.938 128.021, 164.512 128.299, 165.750 128.630 C 167.904 129.207, 168 128.972, 168 123.117 C 168 117.667, 167.782 117, 166 117 C 164.889 117, 164 116.333, 164 115.500 C 164 114.262, 162.167 114, 153.500 114 C 145.226 114, 143 114.293, 143 115.384 C 143 116.874, 130.963 118.713, 129.028 117.518 C 127.922 116.834, 127.638 105.952, 128.630 102.250 C 129.207 100.100, 129.694 100, 139.617 100 C 149.333 100, 150 99.872, 150 98 C 150 96.381, 150.667 96, 153.500 96 C 156.333 96, 157 96.381, 157 98 C 157 99.333, 157.667 100, 159 100 C 160.111 100, 161 100.667, 161 101.500 C 161 104.549, 163.792 102.923, 164.434 99.500 C 164.827 97.405, 165.675 96, 166.545 96 C 167.689 96, 168 94.396, 168 88.500 L 168 81 172 81 C 174.889 81, 176 80.583, 176 79.500 C 176 78.452, 177.056 78, 179.500 78 C 182.333 78, 183 77.619, 183 76 C 183 74.889, 183.667 74, 184.500 74 C 185.325 74, 186 73.325, 186 72.500 C 186 71.675, 186.655 71, 187.455 71 C 188.325 71, 189.173 69.595, 189.566 67.500 C 189.942 65.495, 190.816 64, 191.611 64 C 192.628 64, 193 62.526, 193 58.500 L 193 53 186 53 C 180.444 53, 179 53.310, 179 54.500 C 179 55.548, 177.944 56, 175.500 56 L 172 56 172 51 C 172 46.667, 171.733 46, 170 46 C 168.333 46, 168 45.333, 168 42 C 168 39.111, 167.583 38, 166.500 38 C 165.675 38, 165 37.382, 165 36.627 C 165 35.706, 163.312 35.092, 159.865 34.761 C 156.544 34.442, 154.406 33.690, 153.815 32.634 C 153.009 31.195, 150.109 31, 129.450 31 C 109.272 31, 106 30.791, 106 29.500 C 106 28.675, 105.550 28, 105 28 C 104.450 28, 104 28.675, 104 29.500 M 125 52.500 L 125 63 130 63 C 133.778 63, 135 62.633, 135 61.500 C 135 60.244, 137.111 60, 148 60 L 161 60 160.986 55.250 C 160.966 48.079, 160.179 46.198, 156.898 45.478 C 155.304 45.128, 154 44.202, 154 43.421 C 154 42.258, 151.362 42, 139.500 42 L 125 42 125 52.500 M 175 65.500 C 175 66.325, 174.325 67, 173.500 67 C 172.410 67, 172 68.123, 172 71.108 C 172 75.090, 172.085 75.196, 174.748 74.527 C 178.293 73.637, 178.150 73.852, 178.747 68.549 C 179.213 64.414, 179.066 64, 177.130 64 C 175.903 64, 175 64.636, 175 65.500 M 150 68.375 C 150 70.176, 145.568 71, 135.875 71 C 129.542 71, 128 71.294, 128 72.500 C 128 73.325, 127.325 74, 126.500 74 C 125.417 74, 125 75.111, 125 78 C 125 80.889, 125.417 82, 126.500 82 C 127.633 82, 128 83.222, 128 87 L 128 92 132 92 C 134.852 92, 136 91.578, 136 90.531 C 136 89.334, 138.269 89.010, 148.250 88.781 L 160.500 88.500 160.796 81.750 C 161.019 76.646, 161.446 75, 162.546 75 C 163.532 75, 164 73.910, 164 71.617 C 164 67.742, 162.582 67.036, 154.750 67.014 C 151.380 67.004, 150 67.399, 150 68.375 M 154 187.594 C 154 188.470, 153.100 189.423, 152 189.710 C 150.900 189.998, 150 190.856, 150 191.617 C 150 192.377, 150.900 193, 152 193 C 153.333 193, 154 193.667, 154 195 C 154 196.619, 153.333 197, 150.500 197 C 148.056 197, 147 197.452, 147 198.500 C 147 199.325, 147.675 200, 148.500 200 C 149.333 200, 150 200.889, 150 202 C 150 203.111, 150.667 204, 151.500 204 C 152.325 204, 153 203.381, 153 202.625 C 153 200.824, 157.432 200, 167.125 200 L 175 200 175 197.045 C 175 194.460, 174.562 194.008, 171.500 193.434 C 169.495 193.058, 168 192.184, 168 191.389 C 168 190.461, 166.806 190, 164.406 190 C 161.654 190, 160.690 189.532, 160.290 188 C 159.625 185.459, 154 185.096, 154 187.594 M 129 194.594 C 129 195.470, 128.100 196.423, 127 196.710 C 125.900 196.998, 125 197.856, 125 198.617 C 125 199.377, 124.100 200, 123 200 C 121.889 200, 121 199.333, 121 198.500 C 121 197.348, 119.722 197, 115.500 197 L 110 197 110 202.500 C 110 206.722, 109.652 208, 108.500 208 C 107.667 208, 107 208.889, 107 210 C 107 211.111, 107.667 212, 108.500 212 C 109.633 212, 110 213.222, 110 217 C 110 221.333, 110.267 222, 112 222 C 113.619 222, 114 222.667, 114 225.500 C 114 228.833, 114.167 229, 117.500 229 C 120.358 229, 121 229.375, 121 231.044 C 121 232.941, 121.519 233.067, 128.250 232.794 L 135.500 232.500 135.802 227.250 C 136.020 223.473, 136.511 222, 137.552 222 C 138.540 222, 139 220.888, 139 218.500 L 139 215 134 215 C 130.092 215, 129 215.348, 129 216.594 C 129 217.470, 128.100 218.423, 127 218.710 C 125.900 218.998, 125 219.856, 125 220.617 C 125 221.524, 123.826 222, 121.588 222 C 118.390 222, 118.134 221.751, 117.504 218.022 C 117.134 215.834, 117.127 212.698, 117.488 211.053 C 118.020 208.632, 118.797 207.941, 121.572 207.420 C 123.522 207.055, 125 206.178, 125 205.389 C 125 204.336, 126.694 204, 132 204 L 139 204 139 198.500 L 139 193 134 193 C 130.092 193, 129 193.348, 129 194.594 M 164 209.500 C 164 210.716, 162.389 211, 155.500 211 L 147 211 147 215.375 C 147 221.741, 145.948 226, 144.375 226 C 143.470 226, 143 227.197, 143 229.500 L 143 233 154.750 232.986 C 169.692 232.969, 170.783 232.671, 171.587 228.390 C 171.947 226.469, 172.825 225, 173.611 225 C 174.664 225, 175 223.306, 175 218 C 175 211.667, 174.810 211, 173 211 C 171.889 211, 171 210.333, 171 209.500 C 171 208.452, 169.944 208, 167.500 208 C 165.056 208, 164 208.452, 164 209.500" stroke="none" fill="black" fill-rule="evenodd"/>
</svg>