<svg xmlns="http://www.w3.org/2000/svg" width="300" height="300" viewBox="0 0 300 300" version="1.1">
	<path d="M 197 44.500 C 197 46.813, 196.531 48, 195.617 48 C 194.041 48, 193.034 51, 193.014 55.750 C 193.001 58.795, 192.779 59, 189.500 59 C 187.056 59, 186 59.452, 186 60.500 C 186 61.652, 184.722 62, 180.500 62 C 175.667 62, 175 62.242, 175 64 C 175 65.852, 174.333 66, 166 66 L 157 66 157 57 C 157 49.667, 156.722 48, 155.500 48 C 154.667 48, 154 47.111, 154 46 C 154 44.333, 153.333 44, 150 44 L 146 44 146.009 49.750 C 146.023 59.218, 147.121 66, 148.639 66 C 149.388 66, 150 66.629, 150 67.399 C 150 68.396, 147.995 68.998, 143 69.500 C 138.005 70.002, 136 70.604, 136 71.601 C 136 72.540, 134.818 73, 132.406 73 C 129.654 73, 128.690 73.468, 128.290 75 C 128.002 76.100, 127.144 77, 126.383 77 C 125.469 77, 125 78.187, 125 80.500 C 125 82.813, 125.469 84, 126.383 84 C 127.144 84, 128.002 84.900, 128.290 86 C 128.577 87.100, 129.530 88, 130.406 88 C 131.333 88, 132 87.163, 132 86 C 132 84.667, 132.667 84, 134 84 C 135.100 84, 136 83.345, 136 82.545 C 136 81.675, 137.405 80.827, 139.500 80.434 C 141.505 80.058, 143 79.184, 143 78.389 C 143 77.372, 144.474 77, 148.500 77 L 154 77 154 82 C 154 85.778, 154.367 87, 155.500 87 C 156.652 87, 157 88.278, 157 92.500 C 157 97.333, 157.242 98, 159 98 C 160.333 98, 161 98.667, 161 100 C 161 101.111, 161.667 102, 162.500 102 C 163.333 102, 164 102.889, 164 104 C 164 105.111, 163.333 106, 162.500 106 C 161.675 106, 161 106.675, 161 107.500 C 161 108.538, 159.957 109, 157.617 109 C 155.074 109, 154.103 109.497, 153.710 111 C 153.329 112.456, 152.346 113, 150.094 113 C 148.010 113, 147 113.490, 147 114.500 C 147 115.333, 146.111 116, 145 116 C 143.333 116, 143 116.667, 143 120 C 143 123.905, 143.083 124, 146.500 124 C 148.944 124, 150 124.452, 150 125.500 C 150 126.325, 150.675 127, 151.500 127 C 152.333 127, 153 127.889, 153 129 C 153 130.111, 152.333 131, 151.500 131 C 150.675 131, 150 131.675, 150 132.500 C 150 133.333, 149.111 134, 148 134 C 146.667 134, 146 134.667, 146 136 C 146 137.556, 145.333 138, 143 138 C 140.922 138, 140 138.490, 140 139.594 C 140 140.470, 139.100 141.423, 138 141.710 C 136.352 142.141, 136 143.074, 136 147.008 C 136 151.291, 136.263 151.849, 138.546 152.422 C 141.490 153.161, 143 152.489, 143 150.441 C 143 149.461, 144.119 149, 146.500 149 C 149.333 149, 150 148.619, 150 147 C 150 145.381, 150.667 145, 153.500 145 C 155.944 145, 157 144.548, 157 143.500 C 157 142.452, 158.056 142, 160.500 142 C 163.333 142, 164 141.619, 164 140 C 164 138.242, 164.667 138, 169.500 138 C 173.722 138, 175 137.652, 175 136.500 C 175 135.588, 175.931 135, 177.375 135 C 178.681 135, 181.156 134.719, 182.875 134.375 C 185.591 133.832, 186 134.028, 186 135.875 C 186 137.333, 185.373 138, 184 138 C 182.667 138, 182 138.667, 182 140 C 182 141.111, 181.333 142, 180.500 142 C 179.675 142, 179 142.675, 179 143.500 C 179 144.333, 178.111 145, 177 145 C 175.667 145, 175 145.667, 175 147 C 175 148.111, 174.333 149, 173.500 149 C 172.675 149, 172 149.717, 172 150.594 C 172 151.470, 171.100 152.423, 170 152.710 C 168.900 152.998, 168 153.856, 168 154.617 C 168 155.377, 167.345 156, 166.545 156 C 165.675 156, 164.827 157.405, 164.434 159.500 C 164.058 161.505, 163.184 163, 162.389 163 C 161.625 163, 161 163.900, 161 165 C 161 166.333, 160.333 167, 159 167 C 157.889 167, 157 167.667, 157 168.500 C 157 169.325, 156.325 170, 155.500 170 C 154.667 170, 154 170.889, 154 172 C 154 173.333, 153.333 174, 152 174 C 150.381 174, 150 174.667, 150 177.500 C 150 180.333, 149.619 181, 148 181 C 146.667 181, 146 181.667, 146 183 C 146 184.111, 145.333 185, 144.500 185 C 143.667 185, 143 184.111, 143 183 C 143 181.394, 142.333 181, 139.617 181 C 137.074 181, 136.103 181.497, 135.710 183 C 135.423 184.100, 134.470 185, 133.594 185 C 132.667 185, 132 185.837, 132 187 C 132 188.111, 131.333 189, 130.500 189 C 129.675 189, 129 189.675, 129 190.500 C 129 191.333, 128.111 192, 127 192 C 125.667 192, 125 192.667, 125 194 C 125 195.333, 124.333 196, 123 196 C 121.889 196, 121 196.667, 121 197.500 C 121 198.333, 120.111 199, 119 199 C 117.667 199, 117 199.667, 117 201 C 117 202.619, 116.333 203, 113.500 203 C 111.104 203, 110 203.459, 110 204.455 C 110 205.325, 108.595 206.173, 106.500 206.566 C 104.495 206.942, 103 207.816, 103 208.611 C 103 209.611, 101.600 210, 98 210 C 94.298 210, 93 210.377, 93 211.450 C 93 212.481, 91.263 213.097, 87 213.580 C 82.915 214.042, 81 214.696, 81 215.629 C 81 216.681, 79.050 217, 72.611 217 L 64.223 217 63.566 213.500 C 63.173 211.405, 62.325 210, 61.455 210 C 60.358 210, 60 208.646, 60 204.500 C 60 200.500, 59.625 199, 58.625 199 C 56.754 199, 56 194.511, 56 183.375 C 56 174.667, 56.142 174, 58 174 C 59.333 174, 60 173.333, 60 172 C 60 170.889, 60.667 170, 61.500 170 C 62.325 170, 63 169.325, 63 168.500 C 63 167.333, 64.333 167, 69 167 C 74.333 167, 75 166.778, 75 165 C 75 163.151, 74.338 163.001, 66.250 163.014 C 56.209 163.029, 53 163.660, 53 165.617 C 53 166.377, 52.100 167, 51 167 C 49.381 167, 49 167.667, 49 170.500 C 49 172.944, 48.548 174, 47.500 174 C 46.278 174, 46 175.667, 46 183 C 46 190.333, 46.278 192, 47.500 192 C 48.700 192, 49 193.500, 49 199.500 C 49 205.219, 49.329 207, 50.383 207 C 51.899 207, 52.965 209.968, 52.986 214.250 C 52.995 215.923, 53.544 217, 54.389 217 C 55.178 217, 56.055 218.478, 56.420 220.428 C 56.940 223.196, 57.634 223.980, 60.032 224.507 C 61.664 224.866, 63 225.798, 63 226.579 C 63 227.635, 64.415 228, 68.500 228 C 72.722 228, 74 227.652, 74 226.500 C 74 225.588, 74.931 225, 76.375 225 C 80.880 225, 85 223.746, 85 222.375 C 85 221.342, 86.710 221, 91.883 221 C 97.926 221, 98.831 220.756, 99.290 219 C 99.690 217.468, 100.654 217, 103.406 217 C 105.934 217, 107 216.555, 107 215.500 C 107 214.452, 108.056 214, 110.500 214 C 113.333 214, 114 213.619, 114 212 C 114 210.381, 114.667 210, 117.500 210 C 120.333 210, 121 209.619, 121 208 C 121 206.667, 121.667 206, 123 206 C 124.111 206, 125 205.333, 125 204.500 C 125 203.667, 125.889 203, 127 203 C 128.333 203, 129 202.333, 129 201 C 129 199.889, 129.667 199, 130.500 199 C 131.333 199, 132 199.889, 132 201 C 132 202.100, 131.345 203, 130.545 203 C 129.675 203, 128.827 204.405, 128.434 206.500 C 128.073 208.425, 127.203 210, 126.500 210 C 125.797 210, 124.927 211.575, 124.566 213.500 C 124.173 215.595, 123.325 217, 122.455 217 C 121.459 217, 121 218.104, 121 220.500 C 121 222.820, 120.532 224, 119.611 224 C 117.815 224, 116.670 230.087, 117.520 235.119 C 118.132 238.741, 118.404 239, 121.588 239 L 125 239 125 232.117 C 125 226.074, 125.244 225.169, 127 224.710 C 128.100 224.423, 129 223.470, 129 222.594 C 129 221.717, 129.675 221, 130.500 221 C 131.583 221, 132 219.889, 132 217 C 132 214.211, 132.430 213, 133.421 213 C 134.202 213, 135.138 211.650, 135.500 210 C 135.862 208.350, 136.798 207, 137.579 207 C 138.361 207, 139 206.100, 139 205 C 139 203.667, 139.667 203, 141 203 C 142.333 203, 143 202.333, 143 201 C 143 199.900, 143.625 199, 144.389 199 C 145.184 199, 146.058 197.505, 146.434 195.500 C 146.827 193.405, 147.675 192, 148.545 192 C 149.345 192, 150 191.100, 150 190 C 150 188.900, 150.655 188, 151.455 188 C 152.325 188, 153.173 186.595, 153.566 184.500 C 153.942 182.495, 154.816 181, 155.611 181 C 156.375 181, 157 180.325, 157 179.500 C 157 178.667, 157.889 178, 159 178 C 160.333 178, 161 177.333, 161 176 C 161 174.900, 161.623 174, 162.383 174 C 163.144 174, 164.002 173.100, 164.290 172 C 164.577 170.900, 165.530 170, 166.406 170 C 167.283 170, 168 169.377, 168 168.617 C 168 167.856, 168.900 166.998, 170 166.710 C 171.100 166.423, 172 165.470, 172 164.594 C 172 163.717, 172.625 163, 173.389 163 C 174.184 163, 175.058 161.505, 175.434 159.500 C 175.827 157.405, 176.675 156, 177.545 156 C 178.345 156, 179 155.377, 179 154.617 C 179 153.856, 179.900 152.998, 181 152.710 C 182.100 152.423, 183 151.470, 183 150.594 C 183 149.717, 183.675 149, 184.500 149 C 185.333 149, 186 148.111, 186 147 C 186 145.667, 186.667 145, 188 145 C 189.111 145, 190 144.333, 190 143.500 C 190 142.675, 190.675 142, 191.500 142 C 192.333 142, 193 141.111, 193 140 C 193 138.667, 193.667 138, 195 138 C 196.333 138, 197 137.333, 197 136 C 197 134.381, 197.667 134, 200.500 134 C 202.774 134, 204 133.526, 204 132.648 C 204 131.603, 207.218 131.169, 218.222 130.734 C 227.081 130.383, 232.579 129.762, 232.805 129.085 C 233.004 128.488, 234.198 128, 235.458 128 C 239.887 128, 244 126.736, 244 125.375 C 244 124.619, 244.675 124, 245.500 124 C 246.652 124, 247 122.722, 247 118.500 C 247 114.278, 246.652 113, 245.500 113 C 244.348 113, 244 111.722, 244 107.500 C 244 102.667, 243.758 102, 242 102 C 240.396 102, 240 101.333, 240 98.630 C 240 95.362, 239.860 95.244, 235.349 94.736 C 232.551 94.420, 230.340 93.572, 229.799 92.606 C 229.305 91.723, 228.023 91, 226.950 91 C 225.878 91, 225 90.325, 225 89.500 C 225 88.675, 224.325 88, 223.500 88 C 222.675 88, 222 88.623, 222 89.384 C 222 90.379, 220.156 90.884, 215.432 91.185 C 211.756 91.419, 208.530 92.143, 208.106 92.828 C 207.690 93.502, 205.021 94.329, 202.175 94.666 C 198.777 95.068, 197 95.746, 197 96.639 C 197 97.622, 195.472 98, 191.500 98 C 187.278 98, 186 97.652, 186 96.500 C 186 95.675, 186.623 95, 187.383 95 C 188.959 95, 189.966 92, 189.986 87.250 C 189.995 85.079, 190.483 84, 191.455 84 C 192.325 84, 193.173 82.595, 193.566 80.500 C 193.942 78.495, 194.816 77, 195.611 77 C 196.565 77, 197 75.746, 197 73 C 197 70.111, 197.417 69, 198.500 69 C 199.325 69, 200 68.325, 200 67.500 C 200 66.667, 200.889 66, 202 66 C 203.100 66, 204 65.381, 204 64.625 C 204 63.254, 208.120 62, 212.625 62 C 214.333 62, 215 62.561, 215 64 C 215 65.731, 215.667 66, 219.955 66 C 224.825 66, 224.920 65.941, 225.566 62.500 C 225.942 60.495, 226.816 59, 227.611 59 C 228.375 59, 229 58.100, 229 57 C 229 55.667, 229.667 55, 231 55 C 232.111 55, 233 54.333, 233 53.500 C 233 52.675, 232.325 52, 231.500 52 C 230.667 52, 230 51.111, 230 50 C 230 48.333, 229.333 48, 226 48 C 223.111 48, 222 48.417, 222 49.500 C 222 50.412, 221.069 51, 219.625 51 C 215.120 51, 211 52.254, 211 53.625 C 211 54.530, 209.803 55, 207.500 55 C 204.667 55, 204 54.619, 204 53 C 204 51.900, 204.623 51, 205.383 51 C 207.131 51, 208.062 47.562, 207.320 43.851 C 206.787 41.184, 206.435 41, 201.875 41 L 197 41 197 44.500 M 175 71.500 C 175 72.575, 173.903 73, 171.125 73 C 168.994 73, 165.844 73.281, 164.125 73.625 C 161.366 74.177, 161 74.645, 161 77.625 C 161 79.958, 161.463 81, 162.500 81 C 163.575 81, 164 82.097, 164 84.875 C 164 87.006, 164.281 90.156, 164.625 91.875 C 165.151 94.505, 165.705 95, 168.125 95 C 170.333 95, 171 94.536, 171 93 C 171 91.667, 171.667 91, 173 91 C 174.619 91, 175 90.333, 175 87.500 C 175 84.167, 175.167 84, 178.500 84 C 181.036 84, 182 83.561, 182 82.406 C 182 81.530, 182.900 80.577, 184 80.290 C 185.503 79.897, 186 78.926, 186 76.383 C 186 74.043, 186.462 73, 187.500 73 C 188.325 73, 189 72.325, 189 71.500 C 189 70.310, 187.556 70, 182 70 C 176.444 70, 175 70.310, 175 71.500 M 81.160 74.678 C 80.494 75.869, 78.471 76.483, 74.197 76.792 C 69.350 77.143, 68.077 77.596, 67.680 79.114 C 66.943 81.936, 60 81.833, 60 79 C 60 77.667, 59.333 77, 58 77 C 56.889 77, 56 76.333, 56 75.500 C 56 74.675, 55.373 74, 54.607 74 C 53.841 74, 52.955 74.675, 52.638 75.500 C 52.322 76.325, 51.315 77, 50.401 77 C 49.016 77, 48.827 77.772, 49.264 81.651 C 49.580 84.449, 50.428 86.660, 51.394 87.201 C 52.385 87.755, 53 89.421, 53 91.550 C 53 93.950, 53.456 95, 54.500 95 C 55.466 95, 56.005 95.978, 56.014 97.750 C 56.035 102.032, 57.101 105, 58.617 105 C 59.671 105, 60 106.781, 60 112.500 C 60 118.293, 60.321 120, 61.412 120 C 62.280 120, 63.085 121.541, 63.500 124 C 63.915 126.459, 64.720 128, 65.588 128 C 66.365 128, 67 128.450, 67 129 C 67 129.550, 66.384 130, 65.631 130 C 64.090 130, 62.850 135.709, 63.691 138.927 C 64.105 140.509, 65.035 141, 67.617 141 C 69.957 141, 71 140.538, 71 139.500 C 71 138.667, 71.889 138, 73 138 C 74.100 138, 75 137.345, 75 136.545 C 75 135.675, 76.405 134.827, 78.500 134.434 C 80.505 134.058, 82 133.184, 82 132.389 C 82 131.625, 82.643 131, 83.430 131 C 84.594 131, 84.919 133.887, 85.180 146.572 C 85.459 160.159, 85.723 162.269, 87.250 163.122 C 88.771 163.971, 89 165.731, 89 176.550 C 89 186.468, 89.281 189, 90.380 189 C 91.351 189, 91.888 190.771, 92.192 194.979 C 92.430 198.267, 92.912 201.245, 93.263 201.596 C 93.614 201.947, 95.886 202.458, 98.312 202.732 C 102.428 203.196, 102.756 203.056, 103.217 200.643 C 104.076 196.152, 102.887 188, 101.373 188 C 100.519 188, 100 186.883, 100 185.045 C 100 182.460, 100.438 182.008, 103.500 181.434 C 105.505 181.058, 107 180.184, 107 179.389 C 107 178.625, 107.563 177.994, 108.250 177.986 C 108.938 177.979, 110.513 177.701, 111.750 177.370 C 113.565 176.883, 114 177.176, 114 178.883 C 114 180.098, 113.361 181, 112.500 181 C 111.667 181, 111 181.889, 111 183 C 111 184.733, 111.667 185, 116 185 L 121 185 121 181.617 C 121 179.074, 121.497 178.103, 123 177.710 C 125.315 177.105, 125.733 174, 123.500 174 C 122.675 174, 122 173.283, 122 172.406 C 122 171.530, 121.100 170.577, 120 170.290 C 118.900 170.002, 118 169.144, 118 168.383 C 118 167.329, 116.219 167, 110.500 167 C 104.500 167, 103 167.300, 103 168.500 C 103 169.548, 101.944 170, 99.500 170 L 96 170 96 145 C 96 123.444, 95.793 120, 94.500 120 C 93.675 120, 93 119.325, 93 118.500 C 93 117.675, 93.675 117, 94.500 117 C 95.433 117, 96 116.056, 96 114.500 C 96 112.979, 96.570 112, 97.455 112 C 98.325 112, 99.173 110.595, 99.566 108.500 C 99.942 106.495, 100.816 105, 101.611 105 C 102.532 105, 103 103.820, 103 101.500 C 103 99.187, 103.469 98, 104.383 98 C 106.318 98, 106.971 94.804, 106.986 85.250 L 107 77 103.617 77 C 101.074 77, 100.103 76.503, 99.710 75 C 99.239 73.197, 98.346 73, 90.643 73 C 83.685 73, 81.925 73.311, 81.160 74.678 M 86 82.500 C 86 83.667, 84.667 84, 80 84 C 75.333 84, 74 84.333, 74 85.500 C 74 86.325, 73.283 87, 72.406 87 C 71.530 87, 70.577 87.900, 70.290 89 C 70.002 90.100, 69.144 91, 68.383 91 C 67.338 91, 67 92.699, 67 97.950 C 67 103.513, 67.347 105.095, 68.739 105.874 C 70.113 106.643, 70.555 108.543, 70.845 114.924 C 71.080 120.095, 71.623 123.005, 72.356 123.014 C 72.985 123.021, 74.513 123.299, 75.750 123.630 C 77.565 124.117, 78 123.824, 78 122.117 C 78 120.667, 78.630 120, 80 120 C 81.111 120, 82 119.333, 82 118.500 C 82 117.675, 82.675 117, 83.500 117 C 84.325 117, 85 116.152, 85 115.117 C 85 114.074, 85.893 113, 87 112.710 C 88.456 112.329, 89 111.346, 89 109.094 C 89 107.121, 89.503 106, 90.389 106 C 91.184 106, 92.058 104.505, 92.434 102.500 C 92.827 100.405, 93.675 99, 94.545 99 C 95.541 99, 96 97.896, 96 95.500 C 96 93.056, 96.452 92, 97.500 92 C 98.583 92, 99 90.889, 99 88 C 99 84.222, 98.833 84, 96 84 C 94 84, 93 83.500, 93 82.500 C 93 81.452, 91.944 81, 89.500 81 C 87.056 81, 86 81.452, 86 82.500 M 212 100.500 C 212 101.652, 210.722 102, 206.500 102 C 202.134 102, 201 102.329, 201 103.594 C 201 104.470, 200.100 105.423, 199 105.710 C 197.900 105.998, 197 106.856, 197 107.617 C 197 108.627, 195.516 109, 191.500 109 C 186.667 109, 186 109.242, 186 111 C 186 112.619, 185.333 113, 182.500 113 C 180.152 113, 179 113.465, 179 114.412 C 179 115.280, 177.459 116.085, 175 116.500 C 172.541 116.915, 171 117.720, 171 118.588 C 171 119.478, 169.932 120, 168.111 120 C 165.602 120, 165.136 120.459, 164.566 123.500 C 164.173 125.595, 163.325 127, 162.455 127 C 161.655 127, 161 127.900, 161 129 C 161 131.336, 163.787 131.719, 164.638 129.500 C 165.278 127.833, 168 127.428, 168 129 C 168 129.550, 168.675 130, 169.500 130 C 170.325 130, 171 129.325, 171 128.500 C 171 127.300, 172.500 127, 178.500 127 C 184.258 127, 186 126.675, 186 125.601 C 186 124.605, 187.994 124.003, 192.942 123.506 C 199.573 122.840, 199.912 122.679, 200.521 119.904 C 200.872 118.307, 201.798 117, 202.579 117 C 203.361 117, 204 116.152, 204 115.117 C 204 114.074, 204.893 113, 206 112.710 C 207.100 112.423, 208 111.470, 208 110.594 C 208 109.717, 208.675 109, 209.500 109 C 210.325 109, 211 108.283, 211 107.406 C 211 106.530, 211.900 105.577, 213 105.290 C 214.100 105.002, 215 104.144, 215 103.383 C 215 102.623, 215.675 102, 216.500 102 C 217.325 102, 218 101.325, 218 100.500 C 218 99.500, 217 99, 215 99 C 213 99, 212 99.500, 212 100.500 M 228.250 105.706 C 227.012 105.944, 226 106.783, 226 107.570 C 226 108.538, 224.869 109, 222.500 109 C 219.667 109, 219 109.381, 219 111 C 219 112.333, 218.333 113, 217 113 C 215.837 113, 215 113.667, 215 114.594 C 215 115.470, 214.100 116.423, 213 116.710 C 211.583 117.081, 211 118.074, 211 120.117 C 211 122.333, 211.462 123, 213 123 C 214.111 123, 215 122.333, 215 121.500 C 215 120.247, 217.056 120, 227.500 120 L 240 120 240 116 C 240 113.166, 239.576 112, 238.545 112 C 237.675 112, 236.827 110.595, 236.434 108.500 C 235.748 104.842, 234.661 104.471, 228.250 105.706 M 186 157.383 C 186 158.144, 185.116 158.998, 184.035 159.281 C 182.286 159.738, 182.093 160.580, 182.284 166.897 C 182.466 172.914, 182.766 174, 184.249 174 C 185.844 174, 186 175.426, 186 190 C 186 203.556, 186.229 206, 187.500 206 C 188.689 206, 189.038 207.609, 189.183 213.750 C 189.284 218.012, 189.273 222.625, 189.159 224 C 189.045 225.375, 189.215 228.412, 189.537 230.750 C 190.097 234.813, 190.274 235, 193.561 235 C 195.951 235, 197 234.543, 197 233.500 C 197 232.675, 197.648 232, 198.441 232 C 199.234 232, 200.147 231.571, 200.472 231.046 C 201.437 229.484, 199.895 225, 198.392 225 C 197.326 225, 197 223.240, 197 217.500 C 197 211.767, 197.327 210, 198.389 210 C 199.184 210, 200.058 208.505, 200.434 206.500 C 200.827 204.405, 201.675 203, 202.545 203 C 203.345 203, 204 202.100, 204 201 C 204 199.381, 204.667 199, 207.500 199 C 209.820 199, 211 198.532, 211 197.611 C 211 196.816, 212.495 195.942, 214.500 195.566 C 216.595 195.173, 218 194.325, 218 193.455 C 218 192.311, 219.604 192, 225.500 192 C 232.333 192, 233 192.178, 233 194 C 233 195.111, 233.667 196, 234.500 196 C 235.325 196, 236 196.675, 236 197.500 C 236 198.325, 235.325 199, 234.500 199 C 233.667 199, 233 199.889, 233 201 C 233 202.111, 233.667 203, 234.500 203 C 235.722 203, 236 204.667, 236 212 C 236 219.333, 235.722 221, 234.500 221 C 233.371 221, 233 222.210, 233 225.889 C 233 230.684, 232.933 230.790, 229.500 231.434 C 227.405 231.827, 226 232.675, 226 233.545 C 226 234.548, 224.884 235, 222.406 235 C 219.654 235, 218.690 235.468, 218.290 237 C 217.919 238.417, 216.926 239, 214.883 239 C 212.987 239, 212 239.513, 212 240.500 C 212 241.356, 211.101 242, 209.906 242 C 208.654 242, 207.603 242.803, 207.290 244 C 206.897 245.503, 205.926 246, 203.383 246 C 200.667 246, 200 246.394, 200 248 C 200 249.100, 199.345 250, 198.545 250 C 197.675 250, 196.827 251.405, 196.434 253.500 C 196.073 255.425, 195.377 257, 194.889 257 C 194.400 257, 194 257.675, 194 258.500 C 194 259.325, 194.675 260, 195.500 260 C 196.333 260, 197 260.889, 197 262 C 197 263.111, 197.667 264, 198.500 264 C 199.325 264, 200 263.325, 200 262.500 C 200 261.667, 200.889 261, 202 261 C 203.292 261, 204 260.333, 204 259.117 C 204 258.074, 204.893 257, 206 256.710 C 207.100 256.423, 208 255.470, 208 254.594 C 208 253.717, 208.675 253, 209.500 253 C 210.325 253, 211 252.325, 211 251.500 C 211 250.667, 211.889 250, 213 250 C 214.333 250, 215 249.333, 215 248 C 215 246.381, 215.667 246, 218.500 246 C 220.820 246, 222 245.532, 222 244.611 C 222 243.816, 223.495 242.942, 225.500 242.566 C 227.437 242.203, 229 241.310, 229 240.566 C 229 239.822, 230.563 238.929, 232.500 238.566 C 234.595 238.173, 236 237.325, 236 236.455 C 236 235.655, 236.900 235, 238 235 C 239.111 235, 240 234.333, 240 233.500 C 240 232.452, 241.056 232, 243.500 232 C 246.333 232, 247 231.619, 247 230 C 247 228.381, 247.667 228, 250.500 228 C 253.833 228, 254 227.833, 254 224.500 C 254 221.667, 253.619 221, 252 221 C 250.889 221, 250 221.667, 250 222.500 C 250 223.633, 248.778 224, 245 224 C 241.410 224, 240 223.610, 240 222.617 C 240 221.856, 240.900 220.998, 242 220.710 C 243.670 220.274, 244 219.346, 244 215.094 C 244 211.233, 244.363 210, 245.500 210 C 246.325 210, 247 209.325, 247 208.500 C 247 207.675, 246.325 207, 245.500 207 C 244.261 207, 243.998 205.133, 243.986 196.250 C 243.971 184.253, 243.416 181, 241.383 181 C 240.469 181, 240 179.813, 240 177.500 C 240 174.667, 239.619 174, 238 174 C 236.667 174, 236 173.333, 236 172 C 236 170.889, 235.333 170, 234.500 170 C 233.675 170, 233 169.325, 233 168.500 C 233 167.462, 231.957 167, 229.617 167 C 227.074 167, 226.103 166.503, 225.710 165 C 225.274 163.330, 224.346 163, 220.094 163 C 216.438 163, 215 162.612, 215 161.625 C 215 159.824, 210.568 159, 200.875 159 C 194.542 159, 193 158.706, 193 157.500 C 193 156.452, 191.944 156, 189.500 156 C 187.187 156, 186 156.469, 186 157.383 M 197.352 170.716 C 195.144 170.993, 194.028 171.767, 193.616 173.306 C 192.552 177.273, 192.973 180.885, 194.606 181.799 C 195.572 182.340, 196.420 184.551, 196.736 187.349 C 197.244 191.860, 197.362 192, 200.630 192 C 203.333 192, 204 191.604, 204 190 C 204 188.381, 204.667 188, 207.500 188 C 209.944 188, 211 187.548, 211 186.500 C 211 185.348, 212.278 185, 216.500 185 C 220.526 185, 222 184.628, 222 183.611 C 222 182.816, 223.495 181.942, 225.500 181.566 C 228.950 180.919, 230.587 178, 227.500 178 C 226.667 178, 226 177.111, 226 176 C 226 174.667, 225.333 174, 224 174 C 222.900 174, 222 173.388, 222 172.639 C 222 170.475, 207.974 169.381, 197.352 170.716" stroke="none" fill="black" fill-rule="evenodd"/>
</svg>