<svg xmlns="http://www.w3.org/2000/svg" width="300" height="300" viewBox="0 0 300 300" version="1.1">
	<path d="M 97.250 31.706 C 96.013 31.944, 95 32.558, 95 33.070 C 95 33.581, 94.100 34, 93 34 C 91.667 34, 91 34.667, 91 36 C 91 37.100, 90.365 38, 89.588 38 C 87.541 38, 86.963 43.554, 87.454 58.500 C 87.689 65.650, 87.633 72.963, 87.330 74.750 L 86.777 78 65.889 78 C 47.988 78, 45 78.215, 45 79.500 C 45 80.325, 45.675 81, 46.500 81 C 47.333 81, 48 81.889, 48 83 C 48 84.111, 47.333 85, 46.500 85 C 45.667 85, 45 85.889, 45 87 C 45 88.111, 45.667 89, 46.500 89 C 47.325 89, 48 89.675, 48 90.500 C 48 91.333, 48.889 92, 50 92 C 51.111 92, 52 91.333, 52 90.500 C 52 89.667, 52.889 89, 54 89 C 55.100 89, 56 88.345, 56 87.545 C 56 85.444, 60.724 84.861, 75 85.202 L 87.500 85.500 87.819 88.826 C 88.075 91.494, 87.729 92.258, 86.069 92.692 C 84.606 93.075, 84 94.044, 84 96 C 84 97.926, 83.392 98.926, 82 99.290 C 80.544 99.671, 80 100.654, 80 102.906 C 80 105.070, 79.521 106, 78.406 106 C 77.530 106, 76.577 106.900, 76.290 108 C 76.002 109.100, 75.144 110, 74.383 110 C 73.623 110, 73 110.900, 73 112 C 73 113.100, 72.375 114, 71.611 114 C 70.816 114, 69.942 115.495, 69.566 117.500 C 69.173 119.595, 68.325 121, 67.455 121 C 66.655 121, 66 121.900, 66 123 C 66 124.333, 65.333 125, 64 125 C 62.381 125, 62 125.667, 62 128.500 C 62 130.944, 61.548 132, 60.500 132 C 59.667 132, 59 132.889, 59 134 C 59 135.333, 58.333 136, 57 136 C 55.451 136, 55 136.667, 55 138.955 C 55 141.540, 54.562 141.992, 51.500 142.566 C 48.318 143.163, 48 143.530, 48 146.611 C 48 149.333, 47.607 150, 46 150 C 44.889 150, 44 150.667, 44 151.500 C 44 152.325, 43.325 153, 42.500 153 C 41.667 153, 41 153.889, 41 155 C 41 156.333, 40.333 157, 39 157 C 37.889 157, 37 157.667, 37 158.500 C 37 159.325, 36.325 160, 35.500 160 C 34.417 160, 34 161.111, 34 164 C 34 167.905, 34.083 168, 37.500 168 C 40.333 168, 41 167.619, 41 166 C 41 164.889, 41.667 164, 42.500 164 C 43.325 164, 44 163.325, 44 162.500 C 44 161.667, 44.889 161, 46 161 C 47.333 161, 48 160.333, 48 159 C 48 157.667, 48.667 157, 50 157 C 51.333 157, 52 156.333, 52 155 C 52 153.900, 52.639 153, 53.421 153 C 54.202 153, 55.138 151.650, 55.500 150 C 55.862 148.350, 56.798 147, 57.579 147 C 58.361 147, 59 146.152, 59 145.117 C 59 144.074, 59.893 143, 61 142.710 C 62.100 142.423, 63 141.470, 63 140.594 C 63 139.717, 63.675 139, 64.500 139 C 65.548 139, 66 137.944, 66 135.500 C 66 132.667, 66.381 132, 68 132 C 69.333 132, 70 131.333, 70 130 C 70 128.889, 70.667 128, 71.500 128 C 72.325 128, 73 127.325, 73 126.500 C 73 125.667, 73.889 125, 75 125 C 76.619 125, 77 124.333, 77 121.500 C 77 118.964, 77.439 118, 78.594 118 C 79.470 118, 80.423 117.100, 80.710 116 C 80.998 114.900, 81.856 114, 82.617 114 C 83.377 114, 84 113.100, 84 112 C 84 110.667, 84.667 110, 86 110 C 87.111 110, 88 109.333, 88 108.500 C 88 107.675, 88.675 107, 89.500 107 C 90.700 107, 91 108.500, 91 114.500 C 91 120.500, 90.700 122, 89.500 122 C 88.675 122, 88 122.675, 88 123.500 C 88 124.333, 87.111 125, 86 125 C 84.667 125, 84 125.667, 84 127 C 84 128.111, 83.333 129, 82.500 129 C 81.675 129, 81 129.675, 81 130.500 C 81 131.633, 82.222 132, 86 132 C 90.333 132, 91 132.267, 91 134 C 91 135.100, 91.604 136, 92.342 136 C 93.788 136, 94.991 159.275, 94.997 187.367 L 95 201.233 97.250 200.630 C 98.487 200.299, 100.063 200.021, 100.750 200.014 C 101.509 200.005, 102 198.626, 102 196.500 C 102 194.187, 102.469 193, 103.383 193 C 105.322 193, 105.971 189.801, 105.986 180.156 C 105.999 172.648, 105.800 171.760, 104 171.290 C 102.106 170.794, 102 169.926, 102 154.883 C 102 139.667, 102.084 139, 104 139 C 105.333 139, 106 139.667, 106 141 C 106 142.556, 106.667 143, 109 143 C 111.078 143, 112 143.490, 112 144.594 C 112 145.470, 112.900 146.423, 114 146.710 C 115.100 146.998, 116 147.856, 116 148.617 C 116 149.564, 117.261 150, 120 150 C 123.420 150, 124 150.310, 124 152.139 C 124 154.119, 124.374 154.234, 129 153.686 L 134 153.094 134 169.547 C 134 185.333, 134.081 186, 136 186 C 137.333 186, 138 186.667, 138 188 C 138 189.831, 138.667 190, 145.875 190 C 155.568 190, 160 189.176, 160 187.375 C 160 186.470, 161.197 186, 163.500 186 C 165.896 186, 167 185.541, 167 184.545 C 167 183.675, 168.405 182.827, 170.500 182.434 C 172.505 182.058, 174 181.184, 174 180.389 C 174 179.468, 175.180 179, 177.500 179 L 181 179 181 184.500 C 181 189.333, 181.242 190, 183 190 C 184.111 190, 185 190.667, 185 191.500 C 185 192.629, 186.210 193, 189.892 193 C 194.275 193, 194.848 192.740, 195.411 190.500 C 196.247 187.169, 195.124 183, 193.392 183 C 192.435 183, 192 181.750, 192 179 C 192 176.111, 191.583 175, 190.500 175 C 189.675 175, 189 174.325, 189 173.500 C 189 172.675, 189.675 172, 190.500 172 C 191.652 172, 192 170.722, 192 166.500 C 192 161.667, 192.242 161, 194 161 C 195.333 161, 196 160.333, 196 159 C 196 157.900, 196.616 157, 197.370 157 C 198.258 157, 198.924 155.365, 199.264 152.349 C 199.580 149.551, 200.428 147.340, 201.394 146.799 C 203.390 145.683, 203.486 143.124, 201.561 142.385 C 200.770 142.081, 199.844 140.566, 199.504 139.018 C 199.150 137.407, 198.055 135.986, 196.943 135.695 C 195.874 135.416, 195 134.470, 195 133.594 C 195 132.504, 194.088 132, 192.117 132 C 190.049 132, 189.081 131.419, 188.696 129.945 C 188.225 128.144, 187.500 127.928, 182.829 128.195 L 177.500 128.500 177.190 132.250 C 176.987 134.703, 176.381 136, 175.440 136 C 174.648 136, 174 136.675, 174 137.500 C 174 138.325, 174.675 139, 175.500 139 C 176.573 139, 177 140.094, 177 142.844 C 177 144.959, 177.293 151.484, 177.652 157.344 C 178.291 167.786, 178.261 168, 176.152 168 C 174.968 168, 174 168.625, 174 169.389 C 174 170.184, 172.505 171.058, 170.500 171.434 C 168.405 171.827, 167 172.675, 167 173.545 C 167 174.541, 165.896 175, 163.500 175 C 160.667 175, 160 175.381, 160 177 C 160 178.758, 159.333 179, 154.500 179 C 150.278 179, 149 179.348, 149 180.500 C 149 182.854, 146.301 182.253, 145.630 179.750 C 145.299 178.512, 145.021 166.588, 145.014 153.250 C 145.002 132.367, 144.792 129, 143.500 129 C 142.667 129, 142 128.111, 142 127 C 142 125.900, 142.648 125, 143.439 125 C 144.631 125, 144.932 121.713, 145.189 105.928 C 145.465 88.999, 145.697 86.746, 147.250 85.878 C 148.538 85.159, 149 83.633, 149 80.102 L 149 75.304 159.656 74.652 C 172.884 73.843, 186.773 73.833, 189.750 74.630 C 190.988 74.962, 192 75.856, 192 76.617 C 192 77.627, 193.484 78, 197.500 78 C 201.516 78, 203 78.373, 203 79.383 C 203 80.669, 205.840 81.955, 208.750 81.986 C 209.438 81.994, 210 81.100, 210 80 C 210 78.667, 210.667 78, 212 78 C 213.100 78, 214 77.383, 214 76.629 C 214 74.793, 223.770 73.716, 232.399 74.600 C 236.971 75.068, 239 75.695, 239 76.638 C 239 77.528, 240.213 78, 242.500 78 C 245.333 78, 246 78.381, 246 80 C 246 81.333, 246.667 82, 248 82 C 249.111 82, 250 82.667, 250 83.500 C 250 84.325, 250.675 85, 251.500 85 C 252.555 85, 253 86.066, 253 88.594 C 253 91.394, 253.460 92.307, 255.083 92.732 C 257.065 93.250, 257.149 93.827, 256.833 104.710 C 256.552 114.342, 256.224 116.298, 254.750 117.122 C 253.610 117.758, 253 119.303, 253 121.550 C 253 123.950, 252.544 125, 251.500 125 C 250.675 125, 250 125.717, 250 126.594 C 250 127.470, 249.100 128.423, 248 128.710 C 246.900 128.998, 246 129.856, 246 130.617 C 246 131.377, 245.345 132, 244.545 132 C 243.675 132, 242.827 133.405, 242.434 135.500 L 241.777 139 234.889 139 L 228 139 228 134 C 228 130.356, 227.616 129, 226.585 129 C 225.554 129, 224.980 126.968, 224.468 121.500 C 223.964 116.122, 223.374 114, 222.383 114 C 221.373 114, 221 112.514, 221 108.500 C 221 104.278, 221.348 103, 222.500 103 C 223.737 103, 224 101.181, 224 92.625 L 224 82.250 221.149 81.680 C 215.208 80.492, 213.047 82.502, 213.014 89.250 C 213.005 91.022, 212.466 92, 211.500 92 C 210.278 92, 210 93.667, 210 101 C 210 107.866, 210.318 110, 211.343 110 C 213.011 110, 214 131.642, 214 168.160 C 214 189.573, 214.207 193, 215.500 193 C 216.801 193, 217 197.111, 217 224 C 217 250.889, 216.801 255, 215.500 255 C 214.310 255, 214 256.444, 214 262 L 214 269 218.889 269 C 223.684 269, 223.790 268.933, 224.434 265.500 C 224.827 263.405, 225.675 262, 226.545 262 C 227.741 262, 228 259.771, 228 249.500 C 228 239.667, 227.712 237, 226.649 237 C 225.547 237, 225.164 229.282, 224.574 195.158 C 224.176 172.145, 224.170 151.609, 224.562 149.523 L 225.273 145.730 232.594 146.348 C 241.059 147.064, 246 146.337, 246 144.375 C 246 143.619, 246.675 143, 247.500 143 C 248.325 143, 249 142.283, 249 141.406 C 249 140.530, 249.858 139.588, 250.906 139.314 C 252.120 138.997, 253.044 137.579, 253.451 135.408 C 253.831 133.386, 254.682 132, 255.545 132 C 256.345 132, 257 131.325, 257 130.500 C 257 129.675, 257.635 129, 258.412 129 C 259.280 129, 260.085 127.459, 260.500 125 C 260.915 122.541, 261.720 121, 262.588 121 C 263.670 121, 264 119.362, 264 114 C 264 108.444, 264.310 107, 265.500 107 C 266.583 107, 267 105.889, 267 103 C 267 100.111, 266.583 99, 265.500 99 C 264.310 99, 264 97.556, 264 92 C 264 86.541, 263.680 85, 262.545 85 C 261.675 85, 260.827 83.595, 260.434 81.500 C 260.058 79.495, 259.184 78, 258.389 78 C 257.625 78, 257 77.377, 257 76.617 C 257 75.856, 256.100 74.998, 255 74.710 C 253.900 74.423, 253 73.470, 253 72.594 C 253 71.525, 252.094 70.996, 250.250 70.986 C 245.968 70.965, 243 69.899, 243 68.383 C 243 67.221, 233.834 67.002, 185.750 67.014 C 154.262 67.021, 127.487 67.299, 126.250 67.630 C 124.576 68.079, 124 68.972, 124 71.117 L 124 74 113 74 C 102.667 74, 102 74.121, 102 76 C 102 78.731, 99.377 78.537, 98.630 75.750 C 98.299 74.513, 98.021 66.412, 98.014 57.750 C 98.001 42.662, 98.084 42, 100 42 C 101.333 42, 102 41.333, 102 40 C 102 38.889, 102.667 38, 103.500 38 C 104.325 38, 105 37.325, 105 36.500 C 105 35.675, 104.325 35, 103.500 35 C 102.667 35, 102 34.111, 102 33 C 102 31.009, 101.531 30.881, 97.250 31.706 M 117 83.500 C 117 84.700, 115.500 85, 109.500 85 C 102.667 85, 102 85.178, 102 87 C 102 88.758, 102.667 89, 107.500 89 C 111.722 89, 113 89.348, 113 90.500 C 113 91.325, 113.675 92, 114.500 92 C 115.333 92, 116 92.889, 116 94 C 116 95.854, 115.333 96, 106.853 96 L 97.707 96 98.353 103.651 C 98.709 107.859, 99 113.484, 99 116.151 C 99 119.795, 99.373 121, 100.500 121 C 101.538 121, 102 122.043, 102 124.383 C 102 126.926, 102.497 127.897, 104 128.290 C 105.100 128.577, 106 129.530, 106 130.406 C 106 131.283, 106.675 132, 107.500 132 C 108.325 132, 109 132.625, 109 133.389 C 109 134.184, 110.495 135.058, 112.500 135.434 C 114.595 135.827, 116 136.675, 116 137.545 C 116 138.345, 116.900 139, 118 139 C 119.333 139, 120 139.667, 120 141 C 120 142.619, 120.667 143, 123.500 143 C 125.944 143, 127 143.452, 127 144.500 C 127 145.333, 127.889 146, 129 146 C 130.333 146, 131 146.667, 131 148 C 131 149.111, 131.667 150, 132.500 150 C 133.390 150, 133.998 149.085, 133.996 147.750 C 133.994 146.512, 134.138 132, 134.317 115.500 C 134.496 99, 134.445 84.713, 134.205 83.750 C 133.631 81.456, 127 81.226, 127 83.500 C 127 84.325, 126.325 85, 125.500 85 C 124.675 85, 124 84.325, 124 83.500 C 124 82.452, 122.944 82, 120.500 82 C 118.056 82, 117 82.452, 117 83.500 M 188.415 140.362 C 188.127 141.111, 188.029 144.369, 188.196 147.602 C 188.437 152.260, 188.863 153.550, 190.250 153.814 C 191.685 154.087, 192 153.413, 192 150.073 C 192 147.119, 192.412 146, 193.500 146 C 194.325 146, 195 145.325, 195 144.500 C 195 143.675, 194.325 143, 193.500 143 C 192.667 143, 192 142.111, 192 141 C 192 138.743, 189.225 138.249, 188.415 140.362" stroke="none" fill="black" fill-rule="evenodd"/>
</svg>