<svg xmlns="http://www.w3.org/2000/svg" width="300" height="300" viewBox="0 0 300 300" version="1.1">
	<path d="M 128 29.500 C 128 30.333, 127.111 31, 126 31 C 124.242 31, 124 31.667, 124 36.500 L 124 42 152.500 42 C 180.333 42, 181 42.047, 181 44 C 181 45.333, 181.667 46, 183 46 C 184.111 46, 185 46.667, 185 47.500 C 185 48.548, 186.056 49, 188.500 49 C 191.833 49, 192 48.833, 192 45.500 C 192 43.180, 191.532 42, 190.611 42 C 189.822 42, 188.945 40.522, 188.580 38.572 C 188.065 35.832, 187.359 35.018, 185.052 34.511 C 183.465 34.163, 181.919 33.230, 181.615 32.439 C 181.236 31.451, 179.486 31, 176.031 31 C 172.226 31, 171 30.635, 171 29.500 C 171 28.221, 168.278 28, 152.500 28 C 136.722 28, 134 28.221, 134 29.500 C 134 30.325, 133.325 31, 132.500 31 C 131.675 31, 131 30.325, 131 29.500 C 131 28.675, 130.325 28, 129.500 28 C 128.675 28, 128 28.675, 128 29.500 M 102 43.361 C 102 44.850, 95.255 45.976, 86.250 45.991 C 82.254 45.998, 81 46.358, 81 47.500 C 81 48.583, 79.889 49, 77 49 C 74.111 49, 73 49.417, 73 50.500 C 73 51.325, 72.325 52, 71.500 52 C 70.333 52, 70 53.333, 70 58 L 70 64 73.094 64 C 75.346 64, 76.329 63.456, 76.710 62 C 76.998 60.900, 77.856 60, 78.617 60 C 79.377 60, 80 59.381, 80 58.625 C 80 56.940, 84.342 56, 92.125 56 C 96.681 56, 98 55.663, 98 54.500 C 98 53.278, 99.667 53, 107 53 L 116 53 116 56.500 C 116 59.810, 116.183 60, 119.383 60 C 123.258 60, 123.964 58.582, 123.986 50.750 C 123.998 46.662, 123.721 46, 122 46 C 120.667 46, 120 45.333, 120 44 C 120 42.148, 119.333 42, 111 42 C 104.076 42, 102 42.314, 102 43.361 M 156.352 52.716 C 152.646 53.182, 152.033 54.722, 152.014 63.633 C 151.999 70.293, 151.347 70.954, 144.750 70.986 C 142.978 70.995, 142 71.534, 142 72.500 C 142 73.333, 141.111 74, 140 74 C 138.333 74, 138 74.667, 138 78 L 138 82 143.500 82 C 148.333 82, 149 82.242, 149 84 C 149 85.111, 149.667 86, 150.500 86 C 151.325 86, 152 86.675, 152 87.500 C 152 88.325, 151.325 89, 150.500 89 C 149.262 89, 149 90.833, 149 99.500 C 149 107.793, 149.292 110, 150.389 110 C 151.184 110, 152.058 111.495, 152.434 113.500 C 153.034 116.698, 153.389 117, 156.545 117 C 158.949 117, 160 116.544, 160 115.500 C 160 114.675, 160.675 114, 161.500 114 C 162.325 114, 163 114.675, 163 115.500 C 163 116.325, 163.675 117, 164.500 117 C 165.325 117, 166 116.325, 166 115.500 C 166 114.300, 167.500 114, 173.500 114 C 180.333 114, 181 114.178, 181 116 C 181 118.921, 187.946 118.921, 188.710 116 C 188.998 114.900, 189.856 114, 190.617 114 C 191.522 114, 192 112.830, 192 110.611 C 192 107.530, 191.682 107.163, 188.500 106.566 C 186.405 106.173, 185 105.325, 185 104.455 C 185 102.374, 178.378 102.502, 177.201 104.606 C 176.143 106.495, 168.790 107.558, 163.562 106.578 L 160 105.909 160 93.955 L 160 82 167 82 C 173.333 82, 174 81.810, 174 80 C 174 78.178, 174.667 78, 181.500 78 C 187.500 78, 189 77.700, 189 76.500 C 189 75.675, 189.675 75, 190.500 75 C 191.433 75, 192 74.056, 192 72.500 C 192 71.030, 191.426 70, 190.607 70 C 189.841 70, 188.955 69.325, 188.638 68.500 C 187.917 66.619, 185 66.519, 185 68.375 C 185 70.176, 180.568 71, 170.875 71 L 163 71 163 65.500 C 163 60.667, 163.242 60, 165 60 C 166.605 60, 167 59.333, 167 56.625 C 167 53.645, 166.634 53.177, 163.875 52.625 C 162.156 52.281, 160.469 52.072, 160.125 52.160 C 159.781 52.248, 158.083 52.498, 156.352 52.716 M 94.723 68.952 C 94.271 70.678, 93.386 71, 89.094 71 L 84 71 84 74.500 C 84 76.803, 83.530 78, 82.625 78 C 81.254 78, 80 82.120, 80 86.625 C 80 88.899, 79.702 89, 73 89 C 67.707 89, 66 89.337, 66 90.383 C 66 91.144, 65.069 92.010, 63.931 92.308 C 62.271 92.742, 61.925 93.506, 62.181 96.174 L 62.500 99.500 71.488 99.510 C 79.229 99.518, 80.523 99.761, 80.812 101.260 C 80.996 102.217, 81.789 103, 82.573 103 C 83.703 103, 84 104.872, 84 112 C 84 119.084, 84.301 121, 85.412 121 C 86.280 121, 87.085 122.541, 87.500 125 L 88.176 129 93.963 129 C 101.663 129, 106 128.054, 106 126.375 C 106 125.619, 106.904 125, 108.010 125 C 109.115 125, 110.790 124.100, 111.732 123 C 112.674 121.900, 114.244 121, 115.222 121 C 116.200 121, 117 120.325, 117 119.500 C 117 118.675, 117.675 118, 118.500 118 C 119.333 118, 120 117.111, 120 116 C 120 114.394, 120.667 114, 123.383 114 C 125.926 114, 126.897 113.503, 127.290 112 C 127.577 110.900, 128.530 110, 129.406 110 C 130.283 110, 131 109.325, 131 108.500 C 131 107.667, 131.889 107, 133 107 C 134.111 107, 135 106.333, 135 105.500 C 135 104.675, 135.675 104, 136.500 104 C 137.583 104, 138 102.889, 138 100 C 138 97.111, 138.417 96, 139.500 96 C 140.325 96, 141 95.325, 141 94.500 C 141 93.675, 140.325 93, 139.500 93 C 138.675 93, 138 93.675, 138 94.500 C 138 95.333, 137.111 96, 136 96 C 134.889 96, 134 96.667, 134 97.500 C 134 98.325, 133.325 99, 132.500 99 C 131.667 99, 131 99.889, 131 101 C 131 102.606, 130.333 103, 127.617 103 C 125.074 103, 124.103 103.497, 123.710 105 C 123.423 106.100, 122.470 107, 121.594 107 C 120.717 107, 120 107.625, 120 108.389 C 120 109.184, 118.505 110.058, 116.500 110.434 C 114.405 110.827, 113 111.675, 113 112.545 C 113 113.541, 111.896 114, 109.500 114 C 107.152 114, 106 114.465, 106 115.412 C 106 116.280, 104.459 117.085, 102 117.500 C 99.541 117.915, 98 118.720, 98 119.588 C 98 120.365, 97.325 121, 96.500 121 C 95.452 121, 95 119.944, 95 117.500 C 95 115.197, 94.530 114, 93.625 114 C 91.940 114, 91 109.658, 91 101.875 L 91 96 106.921 96 L 122.841 96 123.472 93.128 C 123.819 91.549, 123.818 89.123, 123.470 87.736 C 122.863 85.318, 122.571 85.229, 116.270 85.539 C 112.658 85.717, 109.432 86.279, 109.102 86.787 C 108.771 87.295, 104.563 88.025, 99.750 88.408 L 91 89.104 91 83.552 C 91 78.667, 91.240 78, 93 78 C 94.333 78, 95 77.333, 95 76 C 95 74.646, 95.667 74, 97.063 74 C 98.788 74, 99.075 73.468, 98.813 70.758 C 98.450 66.995, 95.568 65.722, 94.723 68.952 M 156 137.500 C 156 138.333, 155.111 139, 154 139 C 152.889 139, 152 139.667, 152 140.500 C 152 141.325, 151.325 142, 150.500 142 C 149.675 142, 149 142.848, 149 143.883 C 149 144.926, 148.107 146, 147 146.290 C 145.544 146.671, 145 147.654, 145 149.906 C 145 152.070, 144.521 153, 143.406 153 C 142.530 153, 141.577 153.900, 141.290 155 C 141.002 156.100, 140.144 157, 139.383 157 C 138.478 157, 138 158.169, 138 160.383 C 138 162.926, 137.503 163.897, 136 164.290 C 134.468 164.690, 134 165.654, 134 168.406 C 134 170.934, 133.555 172, 132.500 172 C 131.452 172, 131 173.056, 131 175.500 C 131 178.333, 130.619 179, 129 179 C 127.381 179, 127 178.333, 127 175.500 C 127 173.180, 126.532 172, 125.611 172 C 124.816 172, 123.942 170.505, 123.566 168.500 C 123.173 166.405, 122.325 165, 121.455 165 C 120.340 165, 120 163.567, 120 158.870 L 120 152.740 115.451 153.253 C 112.948 153.535, 110.633 154.033, 110.306 154.361 C 109.979 154.688, 109.493 157.216, 109.228 159.978 C 108.841 164.004, 109.045 165, 110.256 165 C 111.887 165, 112.965 167.861, 112.986 172.250 C 112.995 173.923, 113.544 175, 114.389 175 C 115.184 175, 116.058 176.495, 116.434 178.500 C 116.827 180.595, 117.675 182, 118.545 182 C 119.345 182, 120 182.900, 120 184 C 120 185.100, 120.619 186, 121.375 186 C 122.746 186, 124 190.120, 124 194.625 C 124 196.333, 123.439 197, 122 197 C 120.381 197, 120 197.667, 120 200.500 C 120 202.896, 119.541 204, 118.545 204 C 117.675 204, 116.827 205.405, 116.434 207.500 C 116.058 209.505, 115.184 211, 114.389 211 C 113.477 211, 113 212.163, 113 214.383 C 113 216.926, 112.503 217.897, 111 218.290 C 109.544 218.671, 109 219.654, 109 221.906 C 109 223.904, 108.500 225, 107.588 225 C 106.720 225, 105.915 226.541, 105.500 229 C 105.085 231.459, 104.280 233, 103.412 233 C 102.635 233, 102 233.900, 102 235 C 102 236.100, 101.377 237, 100.617 237 C 99.101 237, 98.035 239.968, 98.014 244.250 C 98.005 245.923, 97.456 247, 96.611 247 C 95.816 247, 94.942 248.495, 94.566 250.500 C 94.173 252.595, 93.325 254, 92.455 254 C 91.468 254, 91 255.089, 91 257.383 C 91 259.926, 90.503 260.897, 89 261.290 C 87.900 261.577, 87 262.530, 87 263.406 C 87 264.283, 86.325 265, 85.500 265 C 84.667 265, 84 265.889, 84 267 C 84 268.111, 83.333 269, 82.500 269 C 80.196 269, 80.721 271.694, 83.149 272.329 C 87.339 273.424, 90.845 271.983, 91.525 268.886 C 91.874 267.299, 92.798 266, 93.579 266 C 94.361 266, 95 265.152, 95 264.117 C 95 263.074, 95.893 262, 97 261.710 C 98.100 261.423, 99 260.470, 99 259.594 C 99 258.717, 99.675 258, 100.500 258 C 101.548 258, 102 256.944, 102 254.500 C 102 252.152, 102.465 251, 103.412 251 C 104.280 251, 105.085 249.459, 105.500 247 C 105.915 244.541, 106.720 243, 107.588 243 C 108.500 243, 109 241.904, 109 239.906 C 109 237.654, 109.544 236.671, 111 236.290 C 112.503 235.897, 113 234.926, 113 232.383 C 113 230.089, 113.468 229, 114.455 229 C 115.325 229, 116.173 227.595, 116.566 225.500 C 116.942 223.495, 117.816 222, 118.611 222 C 119.375 222, 120 221.100, 120 220 C 120 218.900, 120.655 218, 121.455 218 C 122.325 218, 123.173 216.595, 123.566 214.500 C 123.942 212.495, 124.816 211, 125.611 211 C 126.532 211, 127 209.820, 127 207.500 C 127 204.667, 127.381 204, 129 204 C 130.111 204, 131 203.333, 131 202.500 C 131 201.667, 131.889 201, 133 201 C 134.111 201, 135 201.667, 135 202.500 C 135 203.500, 136 204, 138 204 C 139.917 204, 141 204.510, 141 205.412 C 141 206.280, 142.541 207.085, 145 207.500 C 147.459 207.915, 149 208.720, 149 209.588 C 149 210.729, 151.401 211, 161.500 211 C 171.944 211, 174 210.753, 174 209.500 C 174 208.675, 174.717 208, 175.594 208 C 176.470 208, 177.423 207.100, 177.710 206 C 177.998 204.900, 178.856 204, 179.617 204 C 180.377 204, 181 203.100, 181 202 C 181 200.667, 181.667 200, 183 200 C 184.619 200, 185 199.333, 185 196.500 C 185 194.056, 185.452 193, 186.500 193 C 187.722 193, 188 191.333, 188 184 C 188 176.667, 187.722 175, 186.500 175 C 185.371 175, 185 173.789, 185 170.101 L 185 165.203 192 164.500 L 199 163.797 199 160.399 L 199 157 186.500 157 C 176.056 157, 174 156.753, 174 155.500 C 174 154.588, 173.069 154, 171.625 154 C 167.120 154, 163 152.746, 163 151.375 C 163 150.470, 161.803 150, 159.500 150 C 155.632 150, 154.544 147.614, 158 146.710 C 159.100 146.423, 160 145.470, 160 144.594 C 160 143.237, 161.559 143, 170.500 143 C 180.333 143, 181 142.873, 181 141 C 181 139.242, 180.333 139, 175.500 139 C 171.278 139, 170 138.652, 170 137.500 C 170 136.310, 168.556 136, 163 136 C 157.444 136, 156 136.310, 156 137.500 M 62.630 152.250 C 61.834 155.221, 61.847 178.078, 62.648 184.750 C 63.063 188.202, 63.745 190, 64.639 190 C 65.701 190, 66 192.311, 66 200.500 C 66 208.793, 66.292 211, 67.389 211 C 68.184 211, 69.058 212.495, 69.434 214.500 C 70.080 217.941, 70.175 218, 75.045 218 C 78.783 218, 80 217.632, 80 216.500 C 80 215.463, 81.042 215, 83.375 215 C 86.349 215, 86.824 214.632, 87.370 211.902 C 88.164 207.932, 87.179 204, 85.392 204 C 84.626 204, 84 204.626, 84 205.392 C 84 207.103, 79.844 208.250, 76.594 207.434 C 75.271 207.102, 73.928 205.856, 73.608 204.665 C 73.289 203.474, 73.021 191.640, 73.014 178.367 C 73 155.080, 72.930 154.215, 71 153.710 C 69.900 153.423, 69 152.470, 69 151.594 C 69 150.504, 68.088 150, 66.117 150 C 63.972 150, 63.079 150.576, 62.630 152.250 M 217.017 153.250 C 217.034 156.443, 220.461 161, 222.846 161 C 223.431 161, 224.205 162.575, 224.566 164.500 C 224.942 166.505, 225.816 168, 226.611 168 C 227.375 168, 228 168.900, 228 170 C 228 171.111, 228.667 172, 229.500 172 C 230.548 172, 231 173.056, 231 175.500 C 231 177.944, 230.548 179, 229.500 179 C 228.675 179, 228 179.623, 228 180.383 C 228 181.144, 227.069 182.010, 225.931 182.308 C 224.271 182.742, 223.925 183.506, 224.181 186.174 C 224.474 189.228, 224.807 189.525, 228.250 189.810 C 231.470 190.077, 232 189.830, 232 188.060 C 232 186.896, 232.652 186, 233.500 186 C 234.325 186, 235 185.377, 235 184.617 C 235 183.856, 235.900 182.998, 237 182.710 C 238.815 182.236, 239 181.346, 239 173.094 C 239 165.677, 238.723 164, 237.500 164 C 236.675 164, 236 163.283, 236 162.406 C 236 161.530, 235.100 160.577, 234 160.290 C 232.583 159.919, 232 158.926, 232 156.883 C 232 154.667, 231.538 154, 230 154 C 228.667 154, 228 153.333, 228 152 C 228 150.242, 227.333 150, 222.500 150 L 217 150 217.017 153.250 M 149 162.383 C 149 163.144, 148.100 164.002, 147 164.290 C 145.468 164.690, 145 165.654, 145 168.406 C 145 170.806, 144.539 172, 143.611 172 C 142.816 172, 141.942 173.495, 141.566 175.500 C 141.173 177.595, 140.325 179, 139.455 179 C 138.323 179, 138 180.527, 138 185.883 C 138 191.926, 138.244 192.831, 140 193.290 C 141.100 193.577, 142 194.530, 142 195.406 C 142 196.510, 142.922 197, 145 197 C 146.917 197, 148 197.510, 148 198.412 C 148 199.280, 149.541 200.085, 152 200.500 C 154.459 200.915, 156 201.720, 156 202.588 C 156 203.535, 157.152 204, 159.500 204 C 161.803 204, 163 203.530, 163 202.625 C 163 201.254, 167.120 200, 171.625 200 C 173.069 200, 174 199.412, 174 198.500 C 174 197.675, 174.625 197, 175.389 197 C 176.184 197, 177.058 195.505, 177.434 193.500 C 177.827 191.405, 178.675 190, 179.545 190 C 180.716 190, 181 188.146, 181 180.500 C 181 172.722, 180.728 171, 179.500 171 C 178.675 171, 178 170.325, 178 169.500 C 178 168.417, 176.889 168, 174 168 C 171.278 168, 170 167.562, 170 166.629 C 170 165.739, 168.246 165.025, 165 164.594 C 161.576 164.140, 160 163.469, 160 162.466 C 160 161.356, 158.665 161, 154.500 161 C 150.484 161, 149 161.373, 149 162.383" stroke="none" fill="black" fill-rule="evenodd"/>
</svg>