<svg xmlns="http://www.w3.org/2000/svg" width="300" height="300" viewBox="0 0 300 300" version="1.1">
	<path d="M 114 50 C 114 51.100, 113.377 52, 112.617 52 C 110.601 52, 110.029 55.243, 110.014 66.750 L 110 77 90.500 77 C 73.833 77, 71 77.218, 71 78.500 C 71 79.325, 70.352 80, 69.559 80 C 68.766 80, 67.853 80.429, 67.528 80.954 C 66.432 82.729, 68.156 86.808, 70.233 87.351 C 73.290 88.150, 78 86.952, 78 85.375 C 78 84.266, 81.091 84, 94 84 L 110 84 110 95 C 110 104.111, 109.742 106, 108.500 106 C 107.534 106, 106.995 106.978, 106.986 108.750 C 106.961 113.866, 105.912 115.860, 102.898 116.522 C 101.304 116.872, 100 117.798, 100 118.579 C 100 119.681, 98.314 120, 92.500 120 C 86.500 120, 85 120.300, 85 121.500 C 85 122.412, 84.069 123, 82.625 123 C 78.271 123, 74 124.235, 74 125.495 C 74 126.231, 72.139 126.950, 69.451 127.253 C 66.948 127.535, 64.756 127.931, 64.579 128.133 C 64.401 128.335, 63.946 130.637, 63.567 133.250 C 62.935 137.603, 63.050 138, 64.939 138 C 66.104 138, 67 138.652, 67 139.500 C 67 140.548, 68.056 141, 70.500 141 C 72.944 141, 74 140.548, 74 139.500 C 74 138.348, 75.278 138, 79.500 138 C 83.500 138, 85 137.625, 85 136.625 C 85 135.254, 89.120 134, 93.625 134 C 95.069 134, 96 133.412, 96 132.500 C 96 131.310, 97.444 131, 103 131 C 108.273 131, 110 130.661, 110 129.625 C 110 128.468, 113.984 127, 117.125 127 C 118.116 127, 118.336 163.069, 117.375 167.875 C 117.031 169.594, 116.131 171, 115.375 171 C 114.619 171, 114 171.675, 114 172.500 C 114 173.325, 114.635 174, 115.412 174 C 116.280 174, 117.085 175.541, 117.500 178 C 117.915 180.459, 118.720 182, 119.588 182 C 120.616 182, 121 183.361, 121 187 C 121 191.333, 121.267 192, 123 192 C 124.333 192, 125 192.667, 125 194 C 125 196.622, 128.024 196.622, 128.710 194 C 128.998 192.900, 129.856 192, 130.617 192 C 131.610 192, 132 190.590, 132 187 C 132 183.222, 131.633 182, 130.500 182 C 129.417 182, 129 180.889, 129 178 C 129 174.095, 129.083 174, 132.500 174 C 134.803 174, 136 173.530, 136 172.625 C 136 171.096, 140.228 170, 146.125 170 C 148.903 170, 150 169.575, 150 168.500 C 150 167.675, 150.623 167, 151.383 167 C 152.959 167, 153.966 170, 153.986 174.750 C 153.999 177.713, 154.273 178, 157.094 178 C 159.346 178, 160.329 177.456, 160.710 176 C 160.998 174.900, 161.856 174, 162.617 174 C 163.606 174, 164 172.608, 164 169.117 C 164 165.074, 163.656 164.143, 162 163.710 C 160.900 163.423, 160 162.506, 160 161.673 C 160 159.714, 150.677 158.650, 137.832 159.142 C 129.450 159.464, 128.508 159.322, 128.583 157.750 C 128.629 156.787, 128.742 151.050, 128.833 145 C 128.970 135.963, 129.268 134, 130.500 134 C 131.722 134, 132 132.333, 132 125 L 132 116 123 116 L 114 116 114 111 C 114 107.424, 114.392 106, 115.375 106 C 117.176 106, 118 101.568, 118 91.875 L 118 84 126.375 84 L 134.750 84 135.320 81.149 C 136.062 77.438, 135.131 74, 133.383 74 C 132.623 74, 132 73.100, 132 72 C 132 70.900, 131.365 70, 130.588 70 C 129.720 70, 128.915 68.459, 128.500 66 C 128.085 63.541, 127.280 62, 126.412 62 C 125.635 62, 125 61.096, 125 59.990 C 125 58.885, 124.100 57.210, 123 56.268 C 121.755 55.202, 121 53.318, 121 51.278 C 121 48.198, 120.788 48, 117.500 48 C 114.667 48, 114 48.381, 114 50 M 121 73.500 C 121 76.333, 121.381 77, 123 77 C 124.619 77, 125 76.333, 125 73.500 C 125 70.667, 124.619 70, 123 70 C 121.381 70, 121 70.667, 121 73.500 M 71 160.859 C 71 161.926, 70.118 162.997, 69 163.290 C 67.080 163.792, 67 164.654, 67 184.906 C 67 202.990, 66.786 206, 65.500 206 C 64.354 206, 63.972 207.358, 63.881 211.750 C 63.816 214.912, 63.581 222.900, 63.361 229.500 C 62.880 243.848, 63.541 250, 65.561 250 C 66.353 250, 67 250.675, 67 251.500 C 67 252.333, 67.889 253, 69 253 C 70.942 253, 71 252.333, 71 230 C 71 210.222, 71.210 207, 72.500 207 C 73.605 207, 74 205.847, 74 202.625 C 74 200.219, 74.281 196.844, 74.625 195.125 C 75.151 192.495, 75.705 192, 78.125 192 C 79.893 192, 81 192.528, 81 193.371 C 81 194.304, 82.915 194.958, 87 195.420 C 91.263 195.903, 93 196.519, 93 197.550 C 93 198.541, 94.109 199, 96.500 199 C 99.333 199, 100 199.381, 100 201 C 100 202.619, 100.667 203, 103.500 203 C 105.944 203, 107 203.452, 107 204.500 C 107 205.548, 108.056 206, 110.500 206 C 113.333 206, 114 206.381, 114 208 C 114 209.733, 114.667 210, 119 210 C 122.639 210, 124 210.384, 124 211.412 C 124 212.280, 125.541 213.085, 128 213.500 C 130.459 213.915, 132 214.720, 132 215.588 C 132 216.619, 133.374 217, 137.094 217 C 141.346 217, 142.274 217.330, 142.710 219 C 143.103 220.503, 144.074 221, 146.617 221 C 148.957 221, 150 221.462, 150 222.500 C 150 223.523, 151.034 224.004, 153.250 224.014 C 158 224.034, 161 225.041, 161 226.617 C 161 227.663, 162.707 228, 168 228 C 173.273 228, 175 228.339, 175 229.375 C 175 230.948, 179.259 232, 185.625 232 C 188.670 232, 190 232.418, 190 233.375 C 190 234.399, 192.187 234.864, 198.583 235.200 C 203.426 235.454, 207.471 236.145, 207.867 236.785 C 208.287 237.464, 213.472 238.196, 220.784 238.610 C 232.832 239.291, 233 239.270, 233 237.150 C 233 235.906, 233.632 235, 234.500 235 C 235.548 235, 236 233.944, 236 231.500 C 236 229.056, 235.548 228, 234.500 228 C 233.452 228, 233 226.944, 233 224.500 C 233 221.167, 232.833 221, 229.500 221 C 226.352 221, 225.999 221.276, 225.986 223.750 C 225.965 228.032, 224.899 231, 223.383 231 C 222.623 231, 222 230.325, 222 229.500 C 222 228.247, 219.944 228, 209.500 228 C 199.561 228, 197 227.718, 197 226.625 C 197 225.052, 192.741 224, 186.375 224 C 183.153 224, 182 223.605, 182 222.500 C 182 221.379, 180.799 220.997, 177.250 220.986 C 171.077 220.969, 168 220.103, 168 218.383 C 168 217.436, 166.739 217, 164 217 C 161.111 217, 160 216.583, 160 215.500 C 160 214.534, 159.022 213.995, 157.250 213.986 C 152.968 213.965, 150 212.899, 150 211.383 C 150 210.436, 148.739 210, 146 210 C 143.261 210, 142 209.564, 142 208.617 C 142 207.101, 139.032 206.035, 134.750 206.014 C 132.978 206.005, 132 205.466, 132 204.500 C 132 203.472, 130.969 203, 128.722 203 C 126.682 203, 124.798 202.245, 123.732 201 C 122.548 199.617, 120.782 199, 118.010 199 C 115.168 199, 114 198.576, 114 197.545 C 114 196.675, 112.595 195.827, 110.500 195.434 C 108.495 195.058, 107 194.184, 107 193.389 C 107 192.477, 105.837 192, 103.617 192 C 101.074 192, 100.103 191.503, 99.710 190 C 99.329 188.544, 98.346 188, 96.094 188 C 94.010 188, 93 187.510, 93 186.500 C 93 185.445, 91.934 185, 89.406 185 C 86.654 185, 85.690 184.532, 85.290 183 C 84.897 181.497, 83.926 181, 81.383 181 L 78 181 78 172.617 C 78 162.884, 77.821 163.037, 89.250 163.014 C 94.390 163.003, 96 162.663, 96 161.588 C 96 159.879, 91.758 159.220, 79.750 159.065 C 71.768 158.961, 71 159.119, 71 160.859" stroke="none" fill="black" fill-rule="evenodd"/>
</svg>