<svg xmlns="http://www.w3.org/2000/svg" width="300" height="300" viewBox="0 0 300 300" version="1.1">
	<path d="M 172 42.500 C 172 43.641, 170.744 44.003, 166.750 44.014 C 160.098 44.031, 157 44.858, 157 46.617 C 157 47.692, 154.996 48, 148 48 C 141.030 48, 139 48.310, 139 49.375 C 139 51.369, 134.404 52, 119.875 52 C 109.097 52, 107 52.244, 107 53.500 C 107 54.333, 106.111 55, 105 55 C 103.333 55, 103 55.667, 103 59 L 103 63 108.250 62.995 C 122.273 62.983, 136 61.673, 136 60.347 C 136 59.606, 136.675 59, 137.500 59 C 138.325 59, 139 59.623, 139 60.383 C 139 61.144, 139.900 62.002, 141 62.290 C 142.841 62.771, 143 63.654, 143 73.406 L 143 84 133.500 84 C 125.722 84, 124 84.272, 124 85.500 C 124 86.466, 123.022 87.005, 121.250 87.014 C 119.737 87.021, 117.487 87.299, 116.250 87.630 C 114.071 88.214, 114 88.009, 114 81.117 C 114 75.700, 114.333 74, 115.393 74 C 116.159 74, 117.063 74.723, 117.402 75.606 C 117.859 76.797, 118.724 77.035, 120.749 76.527 C 123.755 75.772, 124.961 74.412, 124.985 71.750 C 124.997 70.329, 124.108 69.997, 120.250 69.986 C 114.077 69.969, 111 69.103, 111 67.383 C 111 66.436, 109.739 66, 107 66 C 104.111 66, 103 66.417, 103 67.500 C 103 68.325, 102.325 69, 101.500 69 C 100.452 69, 100 70.056, 100 72.500 C 100 74.944, 100.452 76, 101.500 76 C 102.701 76, 103 77.503, 103 83.531 C 103 89.183, 103.361 91.201, 104.448 91.618 C 105.417 91.990, 106.122 94.462, 106.577 99.087 C 107.056 103.944, 107.666 106, 108.629 106 C 109.405 106, 110 107.030, 110 108.375 C 110 112.880, 111.254 117, 112.625 117 C 113.661 117, 114 118.727, 114 124 C 114 129.482, 114.318 131, 115.466 131 C 116.469 131, 117.140 132.576, 117.594 136 C 118.025 139.246, 118.739 141, 119.629 141 C 120.383 141, 121 141.900, 121 143 C 121 144.619, 120.333 145, 117.500 145 C 115.187 145, 114 145.469, 114 146.383 C 114 147.144, 113.100 148.002, 112 148.290 C 110.301 148.734, 110 149.654, 110 154.406 C 110 158.712, 109.655 160, 108.500 160 C 107.675 160, 107 160.675, 107 161.500 C 107 162.325, 106.325 163, 105.500 163 C 104.675 163, 104 163.717, 104 164.594 C 104 165.470, 103.100 166.423, 102 166.710 C 100.900 166.998, 100 167.898, 100 168.710 C 100 169.523, 99.100 170.423, 98 170.710 C 96.583 171.081, 96 172.074, 96 174.117 C 96 176.088, 95.496 177, 94.406 177 C 93.530 177, 92.577 177.900, 92.290 179 C 92.002 180.100, 91.197 181, 90.500 181 C 89.803 181, 88.998 181.900, 88.710 183 C 88.423 184.100, 87.470 185, 86.594 185 C 85.717 185, 85 185.675, 85 186.500 C 85 187.325, 84.283 188, 83.406 188 C 82.530 188, 81.577 188.900, 81.290 190 C 81.002 191.100, 80.144 192, 79.383 192 C 78.623 192, 78 192.675, 78 193.500 C 78 194.325, 77.283 195, 76.406 195 C 75.530 195, 74.577 195.900, 74.290 197 C 74.002 198.100, 73.144 199, 72.383 199 C 71.623 199, 71 199.900, 71 201 C 71 202.606, 70.333 203, 67.617 203 C 65.074 203, 64.103 203.497, 63.710 205 C 63.423 206.100, 62.470 207, 61.594 207 C 60.717 207, 60 207.675, 60 208.500 C 60 209.333, 59.111 210, 58 210 C 56.381 210, 56 210.667, 56 213.500 C 56 216.917, 56.095 217, 60 217 C 62.889 217, 64 216.583, 64 215.500 C 64 214.675, 64.675 214, 65.500 214 C 66.333 214, 67 213.111, 67 212 C 67 210.667, 67.667 210, 69 210 C 70.100 210, 71 209.345, 71 208.545 C 71 207.675, 72.405 206.827, 74.500 206.434 C 77.033 205.959, 78 205.255, 78 203.889 C 78 202.850, 78.675 202, 79.500 202 C 80.325 202, 81 201.325, 81 200.500 C 81 199.675, 81.848 199, 82.883 199 C 83.926 199, 85 198.107, 85.290 197 C 85.577 195.900, 86.530 195, 87.406 195 C 88.283 195, 89 194.325, 89 193.500 C 89 192.675, 89.623 192, 90.383 192 C 91.144 192, 92.002 191.100, 92.290 190 C 92.577 188.900, 93.530 188, 94.406 188 C 95.283 188, 96 187.325, 96 186.500 C 96 185.675, 96.655 185, 97.455 185 C 98.325 185, 99.173 183.595, 99.566 181.500 C 99.966 179.369, 100.803 178, 101.705 178 C 102.520 178, 103.423 177.100, 103.710 176 C 103.998 174.900, 104.856 174, 105.617 174 C 106.377 174, 107 173.325, 107 172.500 C 107 171.675, 107.675 171, 108.500 171 C 109.333 171, 110 170.111, 110 169 C 110 167.667, 110.667 167, 112 167 C 113.333 167, 114 166.333, 114 165 C 114 163.667, 114.667 163, 116 163 C 117.100 163, 118 162.377, 118 161.617 C 118 160.856, 118.900 159.998, 120 159.710 C 121.100 159.423, 122 158.470, 122 157.594 C 122 156.717, 122.675 156, 123.500 156 C 124.325 156, 125 155.375, 125 154.611 C 125 153.816, 126.495 152.942, 128.500 152.566 C 130.595 152.173, 132 151.325, 132 150.455 C 132 149.655, 132.900 149, 134 149 C 135.333 149, 136 148.333, 136 147 C 136 145.242, 136.667 145, 141.500 145 C 145.722 145, 147 144.652, 147 143.500 C 147 142.675, 147.675 142, 148.500 142 C 149.548 142, 150 143.056, 150 145.500 C 150 148.833, 149.833 149, 146.500 149 C 144.180 149, 143 149.468, 143 150.389 C 143 151.184, 141.505 152.058, 139.500 152.434 C 137.405 152.827, 136 153.675, 136 154.545 C 136 155.680, 137.541 156, 143 156 L 150 156 150 174 C 150 189.333, 150.222 192, 151.500 192 C 152.783 192, 153 194.889, 153 212 C 153 229.111, 152.783 232, 151.500 232 C 150.227 232, 150 229.500, 150 215.500 C 150 202.167, 149.736 199, 148.625 199 C 146.479 199, 145.999 203.754, 146.014 224.875 C 146.028 245.628, 146.392 249, 148.617 249 C 149.644 249, 150 250.575, 150 255.117 C 150 260.972, 150.096 261.207, 152.250 260.630 C 153.488 260.299, 155.063 260.021, 155.750 260.014 C 156.438 260.006, 157 259.325, 157 258.500 C 157 257.667, 157.889 257, 159 257 C 160.963 257, 161 256.333, 161 221 L 161 185 164.500 185 C 166.944 185, 168 185.452, 168 186.500 C 168 187.466, 168.978 188.005, 170.750 188.014 C 175.032 188.035, 178 189.101, 178 190.617 C 178 191.564, 179.261 192, 182 192 C 184.739 192, 186 192.436, 186 193.383 C 186 194.959, 189 195.966, 193.750 195.986 C 195.828 195.995, 197 196.494, 197 197.370 C 197 198.258, 198.635 198.924, 201.651 199.264 C 204.449 199.580, 206.660 200.428, 207.201 201.394 C 207.854 202.562, 209.585 203, 213.550 203 C 217.500 203, 219 203.377, 219 204.371 C 219 205.261, 220.754 205.975, 224 206.406 C 227.424 206.860, 229 207.531, 229 208.534 C 229 209.713, 230.761 210, 238 210 C 246.333 210, 247 209.852, 247 208 C 247 206.889, 246.333 206, 245.500 206 C 244.675 206, 244 205.325, 244 204.500 C 244 203.445, 242.934 203, 240.406 203 C 237.654 203, 236.690 202.532, 236.290 201 C 235.857 199.344, 234.926 199, 230.883 199 C 227.209 199, 226 198.629, 226 197.500 C 226 196.477, 224.966 195.996, 222.750 195.986 C 218 195.966, 215 194.959, 215 193.383 C 215 192.373, 213.516 192, 209.500 192 C 204.667 192, 204 191.758, 204 190 C 204 188.267, 203.333 188, 199 188 C 195.222 188, 194 187.633, 194 186.500 C 194 185.417, 192.889 185, 190 185 C 186.667 185, 186 184.667, 186 183 C 186 181.333, 185.333 181, 182 181 C 179.261 181, 178 180.564, 178 179.617 C 178 178.101, 175.032 177.035, 170.750 177.014 C 168.978 177.005, 168 176.466, 168 175.500 C 168 174.464, 166.960 174, 164.638 174 C 161.297 174, 161.271 173.964, 160.612 168.359 C 160.248 165.257, 160.250 158.732, 160.618 153.859 L 161.287 145 164.643 145 C 166.835 145, 168 144.520, 168 143.617 C 168 142.856, 168.900 141.998, 170 141.710 C 171.100 141.423, 172 140.470, 172 139.594 C 172 138.504, 172.912 138, 174.883 138 C 176.926 138, 177.919 137.417, 178.290 136 C 178.690 134.468, 179.654 134, 182.406 134 C 184.934 134, 186 133.555, 186 132.500 C 186 131.667, 186.889 131, 188 131 C 189.100 131, 190 130.345, 190 129.545 C 190 128.675, 191.405 127.827, 193.500 127.434 C 195.505 127.058, 197 126.184, 197 125.389 C 197 124.625, 197.717 124, 198.594 124 C 199.470 124, 200.423 123.100, 200.710 122 C 200.998 120.900, 201.856 120, 202.617 120 C 203.531 120, 204 118.813, 204 116.500 C 204 113.667, 204.381 113, 206 113 C 207.100 113, 208 112.361, 208 111.579 C 208 110.798, 209.336 109.866, 210.968 109.507 C 213.366 108.980, 214.060 108.196, 214.580 105.428 C 215.042 102.961, 215.752 102, 217.111 102 C 218.150 102, 219 101.361, 219 100.579 C 219 99.798, 220.321 98.869, 221.935 98.514 C 224.139 98.030, 225.030 97.139, 225.514 94.935 C 225.869 93.321, 226.798 92, 227.579 92 C 228.361 92, 229 91.152, 229 90.117 C 229 89.074, 229.893 88, 231 87.710 C 232.456 87.329, 233 86.346, 233 84.094 C 233 82.010, 233.490 81, 234.500 81 C 235.433 81, 236 80.056, 236 78.500 C 236 76.944, 235.433 76, 234.500 76 C 233.675 76, 233 75.325, 233 74.500 C 233 73.278, 231.339 73, 224.050 73 C 216.565 73, 214.939 73.287, 214.122 74.750 C 213.254 76.303, 211.001 76.535, 194.072 76.811 C 178.287 77.068, 175 77.369, 175 78.561 C 175 79.736, 172.711 80, 162.500 80 L 150 80 150 69.611 L 150 59.223 153.500 58.566 C 155.595 58.173, 157 57.325, 157 56.455 C 157 55.320, 158.541 55, 164 55 C 169.556 55, 171 54.690, 171 53.500 C 171 52.278, 172.667 52, 180 52 C 187.333 52, 189 52.278, 189 53.500 C 189 54.325, 188.325 55, 187.500 55 C 185.146 55, 185.747 57.699, 188.250 58.370 C 192.117 59.406, 193.961 59.068, 195.732 57 C 196.674 55.900, 197.963 55, 198.597 55 C 200.005 55, 201.096 50.085, 200.335 47.173 C 199.957 45.728, 198.696 44.846, 196.390 44.413 C 194.469 44.053, 193 43.175, 193 42.389 C 193 41.292, 190.793 41, 182.500 41 C 173.833 41, 172 41.262, 172 42.500 M 193 85.361 C 193 87.047, 186.004 87.979, 173.250 87.991 C 165.698 87.998, 164 88.275, 164 89.500 C 164 90.633, 162.778 91, 159 91 L 154 91 154 100 C 154 107.333, 154.278 109, 155.500 109 C 156.325 109, 157 108.325, 157 107.500 C 157 106.310, 158.444 106, 164 106 C 169.556 106, 171 106.310, 171 107.500 C 171 108.333, 171.889 109, 173 109 C 174.333 109, 175 109.667, 175 111 C 175 112.333, 175.667 113, 177 113 C 178.619 113, 179 113.667, 179 116.500 C 179 119.375, 178.630 120, 176.927 120 C 175.490 120, 174.957 120.538, 175.190 121.750 C 175.376 122.713, 176.309 123.463, 177.264 123.417 C 178.219 123.371, 180.575 123.258, 182.500 123.167 C 184.870 123.054, 186 122.516, 186 121.500 C 186 120.667, 186.889 120, 188 120 C 189.111 120, 190 119.333, 190 118.500 C 190 117.675, 190.675 117, 191.500 117 C 192.333 117, 193 116.111, 193 115 C 193 113.667, 193.667 113, 195 113 C 196.333 113, 197 112.333, 197 111 C 197 109.889, 197.667 109, 198.500 109 C 199.325 109, 200 108.325, 200 107.500 C 200 106.667, 200.889 106, 202 106 C 203.333 106, 204 105.333, 204 104 C 204 102.667, 204.667 102, 206 102 C 207.111 102, 208 101.333, 208 100.500 C 208 99.675, 208.675 99, 209.500 99 C 210.333 99, 211 98.111, 211 97 C 211 95.667, 211.667 95, 213 95 C 214.333 95, 215 94.333, 215 93 C 215 91.900, 215.623 91, 216.383 91 C 217.669 91, 218.955 88.160, 218.986 85.250 C 218.997 84.313, 215.741 84, 206 84 C 195.703 84, 193 84.283, 193 85.361 M 139.304 92.421 C 138.687 93.524, 136 94.142, 129.723 94.625 C 123.389 95.111, 121 95.666, 121 96.648 C 121 97.391, 120.325 98, 119.500 98 C 118.667 98, 118 98.889, 118 100 C 118 101.111, 118.667 102, 119.500 102 C 120.739 102, 121 103.844, 121 112.594 C 121 122.346, 121.159 123.229, 123 123.710 C 124.656 124.143, 125 125.074, 125 129.117 C 125 132.918, 125.353 134, 126.594 134 C 127.470 134, 128.423 134.900, 128.710 136 C 129.074 137.392, 130.074 138, 132 138 C 133.926 138, 134.926 137.392, 135.290 136 C 135.734 134.301, 136.654 134, 141.406 134 C 145.712 134, 147 133.655, 147 132.500 C 147 131.675, 147.675 131, 148.500 131 C 149.333 131, 150 130.111, 150 129 C 150 127.900, 149.377 127, 148.617 127 C 147.856 127, 146.998 126.100, 146.710 125 C 146.067 122.540, 143.007 122.335, 142.983 124.750 C 142.964 126.601, 138.909 131, 137.220 131 C 135.769 131, 134.759 124.389, 135.520 119.881 C 136.014 116.955, 136.646 116, 138.088 116 C 139.140 116, 140 115.325, 140 114.500 C 140 113.675, 140.690 113, 141.534 113 C 142.834 113, 143.024 111.376, 142.784 102.331 C 142.506 91.897, 141.385 88.703, 139.304 92.421 M 157.290 118 C 157.002 119.100, 156.144 120, 155.383 120 C 154.623 120, 154 120.675, 154 121.500 C 154 122.325, 154.675 123, 155.500 123 C 156.583 123, 157 124.111, 157 127 C 157 130.905, 157.083 131, 160.500 131 C 163.036 131, 164 130.561, 164 129.406 C 164 128.530, 164.900 127.577, 166 127.290 C 167.107 127, 168 125.926, 168 124.883 C 168 123.848, 168.675 123, 169.500 123 C 170.487 123, 171 122.013, 171 120.117 C 171 116.839, 169.269 116.036, 162.156 116.014 C 158.647 116.003, 157.712 116.384, 157.290 118" stroke="none" fill="black" fill-rule="evenodd"/>
</svg>