<svg xmlns="http://www.w3.org/2000/svg" width="300" height="300" viewBox="0 0 300 300" version="1.1">
	<path d="M 167 71.406 C 167 72.499, 164.753 72.889, 156.928 73.156 C 148.604 73.440, 146.687 73.804, 145.879 75.250 C 145.029 76.771, 143.268 77, 132.450 77 C 122.050 77, 120 77.247, 120 78.500 C 120 79.692, 118.545 80, 112.906 80 C 106.654 80, 105.751 80.237, 105.290 82 C 104.897 83.503, 103.926 84, 101.383 84 C 98.667 84, 98 84.394, 98 86 C 98 87.111, 97.333 88, 96.500 88 C 95.367 88, 95 89.222, 95 93 C 95 96.778, 95.367 98, 96.500 98 C 97.325 98, 98 97.325, 98 96.500 C 98 95.667, 98.889 95, 100 95 C 101.333 95, 102 94.333, 102 93 C 102 91.267, 102.667 91, 107 91 C 110.778 91, 112 90.633, 112 89.500 C 112 88.324, 113.375 88, 118.375 88 C 126.634 88, 131 87.092, 131 85.375 C 131 84.619, 131.675 84, 132.500 84 C 133.325 84, 134 84.675, 134 85.500 C 134 86.333, 134.889 87, 136 87 C 137.111 87, 138 86.333, 138 85.500 C 138 84.348, 139.278 84, 143.500 84 C 147.516 84, 149 84.373, 149 85.383 C 149 86.144, 148.100 87.002, 147 87.290 C 145.900 87.577, 145 88.530, 145 89.406 C 145 90.283, 144.365 91, 143.588 91 C 142.720 91, 141.915 92.541, 141.500 95 C 141.085 97.459, 140.280 99, 139.412 99 C 138.465 99, 138 100.152, 138 102.500 C 138 104.813, 137.531 106, 136.617 106 C 135.041 106, 134.034 109, 134.014 113.750 C 134.004 115.966, 133.523 117, 132.500 117 C 131.490 117, 131 118.010, 131 120.094 C 131 122.346, 130.456 123.329, 129 123.710 C 127.497 124.103, 127 125.074, 127 127.617 C 127 129.911, 126.532 131, 125.545 131 C 124.675 131, 123.827 132.405, 123.434 134.500 C 123.058 136.505, 122.184 138, 121.389 138 C 120.468 138, 120 139.180, 120 141.500 C 120 144.333, 119.619 145, 118 145 C 116.667 145, 116 145.667, 116 147 C 116 148.100, 115.377 149, 114.617 149 C 113.331 149, 112.045 151.840, 112.014 154.750 C 112.004 155.647, 114.259 156, 120 156 C 126.170 156, 128 155.681, 128 154.607 C 128 153.498, 131.561 153.067, 145.500 152.486 C 159.350 151.909, 163 151.469, 163 150.378 C 163 149.271, 165.846 149, 177.500 149 L 192 149 192 158 C 192 164.924, 191.686 167, 190.639 167 C 189.150 167, 188.024 173.745, 188.009 182.750 C 188.002 186.549, 187.618 188, 186.616 188 C 185.621 188, 185.115 189.850, 184.813 194.600 C 184.503 199.462, 183.945 201.451, 182.696 202.150 C 181.612 202.757, 181 204.345, 181 206.550 C 181 208.804, 180.525 210, 179.630 210 C 178.746 210, 178.078 211.614, 177.747 214.549 C 177.465 217.052, 176.994 219.339, 176.700 219.633 C 176.406 219.928, 174.307 220.417, 172.035 220.722 C 168.665 221.174, 167.540 220.883, 165.914 219.138 C 164.223 217.323, 162.795 217, 156.461 217 C 150.496 217, 149 216.699, 149 215.500 C 149 214.588, 148.069 214, 146.625 214 C 142.120 214, 138 212.746, 138 211.375 C 138 210.375, 136.500 210, 132.500 210 C 128.484 210, 127 209.627, 127 208.617 C 127 207.101, 124.032 206.035, 119.750 206.014 C 117.978 206.005, 117 205.466, 117 204.500 C 117 203.452, 115.944 203, 113.500 203 C 110.667 203, 110 203.381, 110 205 C 110 206.100, 110.450 207, 111 207 C 111.550 207, 112 207.675, 112 208.500 C 112 209.583, 113.111 210, 116 210 C 119.333 210, 120 210.333, 120 212 C 120 213.619, 120.667 214, 123.500 214 C 125.944 214, 127 214.452, 127 215.500 C 127 216.523, 128.034 217.004, 130.250 217.014 C 135 217.034, 138 218.041, 138 219.617 C 138 220.531, 139.187 221, 141.500 221 C 143.944 221, 145 221.452, 145 222.500 C 145 223.523, 146.034 224.004, 148.250 224.014 C 153 224.034, 156 225.041, 156 226.617 C 156 227.531, 157.187 228, 159.500 228 C 161.944 228, 163 228.452, 163 229.500 C 163 230.690, 164.444 231, 170 231 C 175.556 231, 177 230.690, 177 229.500 C 177 228.417, 178.111 228, 181 228 L 185 228 185 223 C 185 219.361, 185.384 218, 186.412 218 C 187.280 218, 188.085 216.459, 188.500 214 C 188.915 211.541, 189.720 210, 190.588 210 C 191.667 210, 192 208.378, 192 203.117 C 192 197.074, 192.244 196.169, 194 195.710 C 195.763 195.249, 196 194.346, 196 188.094 C 196 182.455, 196.308 181, 197.500 181 C 198.717 181, 199 179.378, 199 172.406 C 199 164.654, 199.196 163.762, 201 163.290 C 202.688 162.848, 203 161.926, 203 157.383 C 203 153.367, 203.365 152, 204.439 152 C 206.247 152, 207.748 143.348, 206.208 141.808 C 205.498 141.098, 195.108 141.001, 173.583 141.506 C 147.789 142.110, 142 142.498, 142 143.623 C 142 144.625, 140.504 145, 136.500 145 L 131 145 131 141.500 C 131 139.056, 131.452 138, 132.500 138 C 133.466 138, 134.005 137.022, 134.014 135.250 C 134.035 130.968, 135.101 128, 136.617 128 C 137.564 128, 138 126.739, 138 124 C 138 120.667, 138.333 120, 140 120 C 141.619 120, 142 119.333, 142 116.500 C 142 114.180, 142.468 113, 143.389 113 C 144.184 113, 145.058 111.505, 145.434 109.500 C 145.827 107.405, 146.675 106, 147.545 106 C 148.541 106, 149 104.896, 149 102.500 C 149 100.056, 149.452 99, 150.500 99 C 151.333 99, 152 98.111, 152 97 C 152 95.667, 152.667 95, 154 95 C 155.370 95, 156 94.333, 156 92.883 C 156 91.176, 156.435 90.883, 158.250 91.370 C 159.488 91.701, 161.063 91.979, 161.750 91.986 C 162.438 91.994, 163 92.690, 163 93.534 C 163 94.805, 163.901 94.952, 168.250 94.387 C 171.137 94.012, 173.759 93.310, 174.075 92.826 C 174.392 92.343, 176.979 91.671, 179.825 91.334 C 183.223 90.932, 185 90.254, 185 89.361 C 185 88.612, 185.675 88, 186.500 88 C 187.333 88, 188 87.111, 188 86 C 188 84.667, 188.667 84, 190 84 C 191.333 84, 192 83.333, 192 82 C 192 80.900, 192.626 80, 193.392 80 C 194.895 80, 196.437 75.516, 195.472 73.954 C 195.147 73.429, 194.234 73, 193.441 73 C 192.648 73, 192 72.325, 192 71.500 C 192 70.247, 189.944 70, 179.500 70 C 169.426 70, 167 70.273, 167 71.406 M 165.250 80.737 C 161.503 80.999, 160 81.519, 160 82.552 C 160 83.349, 160.675 84, 161.500 84 C 162.325 84, 163 84.635, 163 85.412 C 163 87.204, 169.501 88.372, 174.381 87.456 C 176.476 87.063, 178 86.193, 178 85.389 C 178 84.625, 178.675 84, 179.500 84 C 181.854 84, 181.253 81.301, 178.750 80.630 C 176.509 80.030, 175.219 80.040, 165.250 80.737" stroke="none" fill="black" fill-rule="evenodd"/>
</svg>