<svg xmlns="http://www.w3.org/2000/svg" width="300" height="300" viewBox="0 0 300 300" version="1.1">
	<path d="M 157 64 C 157 65.619, 156.333 66, 153.500 66 C 151.187 66, 150 66.469, 150 67.383 C 150 68.144, 149.100 69.002, 148 69.290 C 146.900 69.577, 146 70.530, 146 71.406 C 146 72.521, 145.070 73, 142.906 73 C 140.654 73, 139.671 73.544, 139.290 75 C 139.002 76.100, 138.144 77, 137.383 77 C 136.623 77, 136 77.675, 136 78.500 C 136 79.333, 135.111 80, 134 80 C 132.667 80, 132 80.667, 132 82 C 132 83.619, 131.333 84, 128.500 84 C 125.667 84, 125 84.381, 125 86 C 125 87.333, 124.333 88, 123 88 C 121.889 88, 121 88.667, 121 89.500 C 121 90.325, 120.325 91, 119.500 91 C 118.675 91, 118 91.717, 118 92.594 C 118 93.470, 117.100 94.423, 116 94.710 C 114.900 94.998, 114 95.856, 114 96.617 C 114 97.377, 113.100 98, 112 98 C 110.667 98, 110 98.667, 110 100 C 110 101.111, 109.333 102, 108.500 102 C 107.675 102, 107 102.675, 107 103.500 C 107 104.333, 106.111 105, 105 105 C 103.708 105, 103 105.667, 103 106.883 C 103 107.926, 102.107 109, 101 109.290 C 99.900 109.577, 99 110.530, 99 111.406 C 99 112.283, 98.325 113, 97.500 113 C 96.675 113, 96 113.675, 96 114.500 C 96 115.333, 95.111 116, 94 116 C 92.667 116, 92 116.667, 92 118 C 92 119.333, 91.333 120, 90 120 C 88.900 120, 88 120.639, 88 121.421 C 88 122.202, 86.650 123.138, 85 123.500 C 83.350 123.862, 82 124.798, 82 125.579 C 82 126.361, 81.100 127, 80 127 C 78.667 127, 78 127.667, 78 129 C 78 130.758, 78.667 131, 83.500 131 C 88.333 131, 89 130.758, 89 129 C 89 127.667, 89.667 127, 91 127 C 92.100 127, 93 126.361, 93 125.579 C 93 124.798, 94.350 123.862, 96 123.500 C 97.650 123.138, 99 122.202, 99 121.421 C 99 120.639, 99.900 120, 101 120 C 102.333 120, 103 119.333, 103 118 C 103 116.667, 103.667 116, 105 116 C 106.111 116, 107 115.333, 107 114.500 C 107 113.675, 107.675 113, 108.500 113 C 109.325 113, 110 113.675, 110 114.500 C 110 115.325, 109.325 116, 108.500 116 C 107.667 116, 107 116.889, 107 118 C 107 119.111, 107.667 120, 108.500 120 C 109.565 120, 110.003 121.087, 110.009 123.750 C 110.026 131.378, 111.249 138, 112.639 138 C 113.701 138, 114 140.311, 114 148.500 C 114 156.742, 114.296 159, 115.375 159 C 117.383 159, 118 163.610, 118 178.625 C 118 189.668, 118.254 192, 119.456 192 C 120.570 192, 120.981 193.704, 121.206 199.250 L 121.500 206.500 126.750 206.802 L 132 207.105 132 203.052 C 132 200.269, 131.567 199, 130.617 199 C 128.429 199, 128.028 195.652, 128.014 177.250 C 128.002 162.589, 127.775 160, 126.500 160 C 125.277 160, 125 158.330, 125 150.969 C 125 143.863, 124.680 141.814, 123.500 141.362 C 121.837 140.724, 121.388 135, 123 135 C 123.550 135, 124 135.675, 124 136.500 C 124 137.667, 125.333 138, 130 138 C 134.442 138, 136 137.641, 136 136.617 C 136 135.101, 138.968 134.035, 143.250 134.014 C 144.881 134.006, 146 133.452, 146 132.654 C 146 131.621, 149.303 131.150, 160.206 130.630 C 169.696 130.177, 174.663 129.545, 175.169 128.726 C 176.239 126.993, 203.160 126.986, 203.738 128.718 C 203.962 129.388, 205.645 130.218, 207.477 130.562 C 211.675 131.349, 211.687 131.458, 211.161 162.020 C 210.838 180.719, 210.507 185, 209.382 185 C 208.363 185, 208 186.542, 208 190.875 C 208 198.658, 207.060 203, 205.375 203 C 204.296 203, 204 205.258, 204 213.500 L 204 224 198.500 224 C 194.441 224, 193 223.632, 193 222.594 C 193 221.502, 190.758 221.111, 182.962 220.844 C 175.393 220.585, 172.697 220.131, 172 219 C 171.241 217.768, 167.579 217.442, 151.538 217.174 C 132.322 216.852, 132 216.881, 132 218.924 C 132 220.103, 131.352 221, 130.500 221 C 129.675 221, 128.994 221.563, 128.986 222.250 C 128.979 222.938, 128.701 224.513, 128.370 225.750 L 127.767 228 162.383 228 L 197 228 197 233.500 L 197 239 201.912 239 L 206.824 239 207.500 235 C 207.915 232.541, 208.720 231, 209.588 231 C 210.670 231, 211 229.362, 211 224 C 211 218.707, 211.337 217, 212.383 217 C 214.318 217, 214.971 213.804, 214.986 204.250 C 214.997 197.992, 215.326 196, 216.352 196 C 217.688 196, 218.979 185.859, 218.994 175.250 C 218.998 172.142, 219.403 171, 220.500 171 C 221.791 171, 222 167.735, 222 147.617 C 222 125.074, 221.928 124.214, 220 123.710 C 218.900 123.423, 218 122.470, 218 121.594 C 218 120.260, 216.611 120, 209.500 120 C 202.611 120, 201 119.716, 201 118.500 C 201 117.348, 199.722 117, 195.500 117 C 191.278 117, 190 117.348, 190 118.500 C 190 119.783, 187.111 120, 170 120 C 153.697 120, 150 120.254, 150 121.375 C 150 123.060, 145.658 124, 137.875 124 C 133.319 124, 132 124.337, 132 125.500 C 132 126.655, 130.711 127, 126.398 127 L 120.797 127 121.148 118.250 L 121.500 109.500 117.750 109.190 C 115.297 108.987, 114 108.381, 114 107.440 C 114 106.648, 114.675 106, 115.500 106 C 116.333 106, 117 105.111, 117 104 C 117 102.708, 117.667 102, 118.883 102 C 119.926 102, 121 101.107, 121.290 100 C 121.577 98.900, 122.530 98, 123.406 98 C 124.283 98, 125 97.325, 125 96.500 C 125 95.667, 125.889 95, 127 95 C 128.100 95, 129 94.361, 129 93.579 C 129 92.798, 130.350 91.862, 132 91.500 C 133.650 91.138, 135 90.202, 135 89.421 C 135 88.639, 135.900 88, 137 88 C 138.333 88, 139 87.333, 139 86 C 139 84.667, 139.667 84, 141 84 C 142.111 84, 143 83.333, 143 82.500 C 143 81.675, 143.717 81, 144.594 81 C 145.470 81, 146.416 80.126, 146.695 79.057 C 146.986 77.945, 148.407 76.850, 150.018 76.496 C 151.566 76.156, 153.081 75.230, 153.385 74.439 C 153.689 73.648, 154.626 73, 155.469 73 C 156.311 73, 157 72.325, 157 71.500 C 157 70.445, 158.066 70, 160.594 70 C 163.346 70, 164.310 69.532, 164.710 68 C 164.998 66.900, 165.856 66, 166.617 66 C 169.356 66, 167.930 63.236, 164.875 62.625 C 159.102 61.470, 157 61.837, 157 64 M 149 163.726 C 148.175 164.038, 147.140 164.902, 146.700 165.647 C 146.260 166.391, 145.248 167, 144.450 167 C 143.459 167, 143 168.109, 143 170.500 L 143 174 148.500 174 C 152.722 174, 154 174.348, 154 175.500 C 154 176.325, 154.675 177, 155.500 177 C 156.325 177, 157 176.325, 157 175.500 C 157 174.310, 158.444 174, 164 174 C 169.556 174, 171 173.690, 171 172.500 C 171 171.567, 171.944 171, 173.500 171 C 175.056 171, 176 171.567, 176 172.500 C 176 173.325, 176.450 174, 177 174 C 177.550 174, 178 173.325, 178 172.500 C 178 171.567, 178.944 171, 180.500 171 C 182.056 171, 183 171.567, 183 172.500 C 183 173.555, 184.065 174, 186.588 174 L 190.176 174 189.504 177.978 C 188.663 182.956, 189.707 188, 191.579 188 C 192.361 188, 193 187.425, 193 186.722 C 193 186.019, 193.900 184.674, 195 183.732 C 196.558 182.398, 197 180.782, 197 176.416 C 197 171.654, 196.700 170.734, 195 170.290 C 193.900 170.002, 193 169.194, 193 168.495 C 193 167.795, 191.425 166.927, 189.500 166.566 C 187.405 166.173, 186 165.325, 186 164.455 C 186 163.233, 183.152 163.013, 168.250 163.079 C 158.488 163.122, 149.825 163.413, 149 163.726" stroke="none" fill="black" fill-rule="evenodd"/>
</svg>