<svg xmlns="http://www.w3.org/2000/svg" width="300" height="300" viewBox="0 0 300 300" version="1.1">
	<path d="M 204.750 92.689 C 203.787 92.941, 203 93.789, 203 94.573 C 203 95.682, 201.329 96, 195.500 96 C 189.811 96, 188 96.331, 188 97.372 C 188 98.447, 184.540 98.901, 172 99.469 C 159.282 100.046, 156 100.482, 156 101.597 C 156 102.763, 151.815 103.002, 131.250 103.014 C 105.412 103.028, 102 103.332, 102 105.617 C 102 106.608, 100.597 107, 97.045 107 C 92.175 107, 92.080 107.059, 91.434 110.500 C 91.073 112.425, 91.073 115.575, 91.434 117.500 C 92.080 120.941, 92.175 121, 97.045 121 L 102 121 102 117.500 L 102 114 120 114 C 135.333 114, 138 113.778, 138 112.500 C 138 111.278, 139.667 111, 147 111 C 154.333 111, 156 111.278, 156 112.500 C 156 113.325, 156.675 114, 157.500 114 C 158.325 114, 159 114.675, 159 115.500 C 159 116.325, 158.325 117, 157.500 117 C 156.221 117, 156 119.722, 156 135.500 C 156 150.518, 156.258 154, 157.373 154 C 158.485 154, 158.886 159.133, 159.482 181 L 160.217 208 164.992 208 C 170.682 208, 170.760 207.803, 170.182 194.750 C 169.888 188.109, 169.458 186, 168.397 186 C 167.230 186, 167 180.662, 167 153.500 C 167 125.278, 167.197 121, 168.500 121 C 169.325 121, 170 120.325, 170 119.500 C 170 118.258, 171.889 118, 181 118 C 191.333 118, 192 117.879, 192 116 C 192 114.242, 192.667 114, 197.500 114 C 202.333 114, 203 113.758, 203 112 C 203 110.900, 203.655 110, 204.455 110 C 205.325 110, 206.173 108.595, 206.566 106.500 C 206.942 104.495, 207.816 103, 208.611 103 C 209.628 103, 210 101.526, 210 97.500 C 210 91.737, 209.644 91.410, 204.750 92.689 M 184 108.500 C 184 109.633, 182.778 110, 179 110 C 174.667 110, 174 110.267, 174 112 C 174 113.852, 174.667 114, 183 114 L 192 114 192 110.500 C 192 107.083, 191.905 107, 188 107 C 185.111 107, 184 107.417, 184 108.500" stroke="none" fill="black" fill-rule="evenodd"/>
</svg>