<svg xmlns="http://www.w3.org/2000/svg" width="300" height="300" viewBox="0 0 300 300" version="1.1">
	<path d="M 128 31.389 C 128 32.184, 126.505 33.058, 124.500 33.434 C 121.059 34.080, 121 34.175, 121 39.045 L 121 44 125 44 C 127.889 44, 129 43.583, 129 42.500 C 129 41.214, 132 41, 150 41 C 168 41, 171 41.214, 171 42.500 C 171 43.652, 172.278 44, 176.500 44 L 182 44 182 48 C 182 50.889, 181.583 52, 180.500 52 C 179.675 52, 179 52.575, 179 53.278 C 179 53.981, 178.100 55.326, 177 56.268 C 175.900 57.210, 175 58.835, 175 59.879 C 175 61.257, 174.040 61.957, 171.500 62.434 C 169.405 62.827, 168 63.675, 168 64.545 C 168 65.345, 167.377 66, 166.617 66 C 165.856 66, 164.998 66.900, 164.710 68 C 164.423 69.100, 163.470 70, 162.594 70 C 161.717 70, 161 70.675, 161 71.500 C 161 72.333, 160.111 73, 159 73 C 157.667 73, 157 73.667, 157 75 C 157 76.852, 156.333 77, 148 77 C 140.667 77, 139 77.278, 139 78.500 C 139 79.548, 137.944 80, 135.500 80 C 132.667 80, 132 80.381, 132 82 C 132 83.733, 131.333 84, 127 84 C 123.092 84, 122 84.348, 122 85.594 C 122 86.470, 121.100 87.423, 120 87.710 C 117.491 88.366, 117.036 95, 119.500 95 C 120.325 95, 121 95.675, 121 96.500 C 121 97.333, 121.889 98, 123 98 C 124.333 98, 125 98.667, 125 100 C 125 101.100, 125.623 102, 126.383 102 C 127.144 102, 128.002 102.900, 128.290 104 C 128.577 105.100, 129.530 106, 130.406 106 C 131.561 106, 132 106.964, 132 109.500 C 132 112.333, 132.381 113, 134 113 C 135.333 113, 136 113.667, 136 115 C 136 116.111, 136.667 117, 137.500 117 C 138.630 117, 139 118.212, 139 121.906 L 139 126.813 128.928 127.156 C 120.604 127.440, 118.687 127.804, 117.879 129.250 C 117.106 130.632, 115.557 131, 110.509 131 C 106.994 131, 103.909 130.662, 103.654 130.249 C 102.628 128.589, 104.284 120, 105.630 120 C 106.727 120, 107 117.110, 107 105.500 C 107 93.278, 107.236 91, 108.500 91 C 109.663 91, 110 89.681, 110 85.125 C 110 77.342, 110.940 73, 112.625 73 C 113.381 73, 114 72.325, 114 71.500 C 114 70.675, 114.675 70, 115.500 70 C 116.325 70, 117 70.675, 117 71.500 C 117 72.583, 118.111 73, 121 73 C 126.129 73, 126.493 70.503, 121.500 69.566 C 119.405 69.173, 118 68.325, 118 67.455 C 118 66.655, 117.100 66, 116 66 C 114.667 66, 114 65.333, 114 64 C 114 62.667, 113.333 62, 112 62 C 110.889 62, 110 61.333, 110 60.500 C 110 59.675, 109.325 59, 108.500 59 C 107.675 59, 107 59.675, 107 60.500 C 107 61.333, 106.111 62, 105 62 C 103.667 62, 103 62.667, 103 64 C 103 65.111, 102.333 66, 101.500 66 C 100.239 66, 100 68.206, 100 79.853 C 100 97.629, 99.154 106, 97.358 106 C 96.277 106, 96 108.954, 96 120.500 C 96 132.179, 95.731 135, 94.617 135 C 92.897 135, 92.031 138.077, 92.014 144.250 C 92.003 147.799, 91.621 149, 90.500 149 C 89.452 149, 89 150.056, 89 152.500 C 89 154.813, 88.531 156, 87.617 156 C 86.041 156, 85.034 159, 85.014 163.750 C 85.004 165.966, 84.523 167, 83.500 167 C 82.452 167, 82 168.056, 82 170.500 C 82 173.333, 81.619 174, 80 174 C 78.333 174, 78 174.667, 78 178 C 78 180.834, 77.576 182, 76.545 182 C 75.675 182, 74.827 183.405, 74.434 185.500 C 74.058 187.505, 73.184 189, 72.389 189 C 71.512 189, 71 190.107, 71 192 C 71 194.333, 70.556 195, 69 195 C 67.667 195, 67 195.667, 67 197 C 67 198.111, 66.333 199, 65.500 199 C 64.417 199, 64 200.111, 64 203 C 64 205.541, 64.456 206.995, 65.250 206.986 C 68.160 206.955, 71 205.669, 71 204.383 C 71 203.623, 71.900 203, 73 203 C 74.333 203, 75 202.333, 75 201 C 75 199.889, 75.667 199, 76.500 199 C 77.548 199, 78 197.944, 78 195.500 C 78 192.667, 78.381 192, 80 192 C 81.333 192, 82 191.333, 82 190 C 82 188.889, 82.667 188, 83.500 188 C 84.548 188, 85 186.944, 85 184.500 C 85 181.667, 85.381 181, 87 181 C 88.619 181, 89 180.333, 89 177.500 C 89 175.056, 89.452 174, 90.500 174 C 91.412 174, 92 173.069, 92 171.625 C 92 167.120, 93.254 163, 94.625 163 C 95.530 163, 96 161.803, 96 159.500 C 96 157.197, 96.470 156, 97.375 156 C 98.746 156, 100 151.880, 100 147.375 C 100 145.163, 100.377 145, 105.500 145 C 109.722 145, 111 144.652, 111 143.500 C 111 142.289, 112.589 141.997, 119.250 141.986 C 128.804 141.971, 132 141.318, 132 139.383 C 132 138.329, 133.781 138, 139.500 138 C 145.500 138, 147 137.700, 147 136.500 C 147 135.675, 147.675 135, 148.500 135 C 149.548 135, 150 136.056, 150 138.500 C 150 140.813, 149.531 142, 148.617 142 C 146.500 142, 146.028 145.304, 146.014 160.250 L 146 174 141 174 C 137.222 174, 136 174.367, 136 175.500 C 136 176.737, 134.183 177, 125.651 177 C 119.959 177, 111.867 177.290, 107.669 177.645 L 100.036 178.290 99.407 181.645 C 99.052 183.539, 98.173 185, 97.389 185 C 96.625 185, 96 185.635, 96 186.412 C 96 187.280, 97.541 188.085, 100 188.500 C 102.459 188.915, 104 189.720, 104 190.588 C 104 191.365, 104.675 192, 105.500 192 C 106.325 192, 107 191.388, 107 190.639 C 107 189.249, 113.622 188.026, 121.250 188.009 C 123.913 188.003, 125 187.565, 125 186.500 C 125 185.262, 126.833 185, 135.500 185 L 146 185 146 190 C 146 193.778, 145.633 195, 144.500 195 C 143.206 195, 143 198.500, 143 220.500 L 143 246 150 246 L 157 246 157 242.500 C 157 239.167, 156.833 239, 153.500 239 L 150 239 150 228 C 150 218.889, 150.258 217, 151.500 217 C 152.714 217, 153 215.406, 153 208.651 C 153 194.869, 154.104 185, 155.647 185 C 156.391 185, 157 184.100, 157 183 C 157 181.121, 157.667 181, 168 181 C 177.111 181, 179 180.742, 179 179.500 C 179 178.286, 180.598 178, 187.383 178 C 197.441 178, 196.967 177.197, 196.986 194.250 C 196.998 204.022, 197.253 206, 198.500 206 C 199.794 206, 200.001 209.532, 200.009 231.750 C 200.018 260.436, 200.567 268, 202.639 268 C 203.388 268, 204 268.933, 204 270.073 C 204 271.510, 204.538 272.043, 205.750 271.810 C 207.363 271.500, 207.524 269.087, 207.804 240.987 C 208.148 206.586, 207.585 196, 205.415 196 C 204.300 196, 204 194.092, 204 187 C 204 179.432, 204.254 178, 205.594 178 C 206.470 178, 207.423 177.100, 207.710 176 C 208.198 174.136, 209.074 174, 220.617 174 C 232.333 174, 233 173.892, 233 172 C 233 170.889, 233.667 170, 234.500 170 C 235.548 170, 236 168.944, 236 166.500 L 236 163 225.469 163 C 217.116 163, 214.820 163.305, 214.372 164.473 C 213.665 166.316, 208.149 167.411, 204.078 166.517 L 201 165.841 201 155.921 C 201 147.769, 201.267 146, 202.500 146 C 203.433 146, 204 145.056, 204 143.500 C 204 141.944, 203.433 141, 202.500 141 C 201.675 141, 201 140.156, 201 139.125 C 201 138.094, 200.719 135.844, 200.375 134.125 C 199.766 131.081, 199.845 131, 203.406 131 C 205.734 131, 207.272 130.455, 207.638 129.500 C 208.073 128.367, 209.902 128, 215.107 128 C 220.567 128, 222 128.312, 222 129.500 C 222 130.325, 222.655 131, 223.455 131 C 224.325 131, 225.173 132.405, 225.566 134.500 C 226.266 138.231, 229 139.425, 229 136 C 229 134.900, 229.623 134, 230.383 134 C 231.959 134, 232.966 131, 232.986 126.250 C 232.996 124.022, 232.528 123, 231.500 123 C 230.675 123, 230 122.325, 230 121.500 C 230 120.217, 227.111 120, 210 120 C 193.875 120, 190 120.262, 190 121.350 C 190 122.722, 178.592 124, 166.346 124 C 161.667 124, 161 123.751, 161 122 C 161 120.889, 161.667 120, 162.500 120 C 163.325 120, 164 119.325, 164 118.500 C 164 117.667, 164.889 117, 166 117 C 167.333 117, 168 116.333, 168 115 C 168 113.667, 168.667 113, 170 113 C 171.111 113, 172 112.333, 172 111.500 C 172 110.675, 172.717 110, 173.594 110 C 174.470 110, 175.423 109.100, 175.710 108 C 175.998 106.900, 176.856 106, 177.617 106 C 178.377 106, 179 105.100, 179 104 C 179 102.667, 179.667 102, 181 102 C 182.111 102, 183 101.333, 183 100.500 C 183 99.675, 183.675 99, 184.500 99 C 185.333 99, 186 98.111, 186 97 C 186 95.667, 186.667 95, 188 95 C 189.111 95, 190 94.333, 190 93.500 C 190 92.675, 190.675 92, 191.500 92 C 192.333 92, 193 91.111, 193 90 C 193 88.371, 193.667 88, 196.594 88 C 199.346 88, 200.310 87.532, 200.710 86 C 201.103 84.497, 202.074 84, 204.617 84 C 208.107 84, 208.473 83.368, 207.370 79.250 C 206.895 77.479, 206.047 77, 203.383 77 C 201.043 77, 200 77.462, 200 78.500 C 200 79.548, 198.944 80, 196.500 80 C 193.667 80, 193 80.381, 193 82 C 193 83.619, 192.333 84, 189.500 84 L 186 84 186 79.079 C 186 74.364, 185.867 74.130, 182.823 73.461 C 180.499 72.951, 179.341 73.180, 178.511 74.315 C 177.073 76.282, 172.425 77.497, 171.579 76.127 C 171.227 75.558, 171.216 73.989, 171.554 72.641 C 172.008 70.833, 173.064 70.023, 175.584 69.550 C 177.613 69.170, 179 68.319, 179 67.455 C 179 66.655, 179.623 66, 180.383 66 C 181.144 66, 182.002 65.100, 182.290 64 C 182.577 62.900, 183.530 62, 184.406 62 C 185.283 62, 186 61.325, 186 60.500 C 186 59.675, 186.623 59, 187.383 59 C 188.144 59, 189.002 58.100, 189.290 57 C 189.577 55.900, 190.530 55, 191.406 55 C 192.561 55, 193 54.036, 193 51.500 C 193 48.667, 193.381 48, 195 48 C 196.758 48, 197 47.333, 197 42.500 L 197 37 191.500 37 C 187.508 37, 186 36.624, 186 35.629 C 186 34.621, 183.615 34.071, 177 33.554 C 170.207 33.022, 168 32.500, 168 31.425 C 168 30.239, 164.643 30, 148 30 C 131.601 30, 128 30.250, 128 31.389 M 168 85.381 C 168 86.422, 165.417 86.937, 157.500 87.477 C 149.493 88.023, 147 88.526, 147 89.596 C 147 90.567, 145.767 91, 143 91 C 139.667 91, 139 91.333, 139 93 C 139 94.111, 138.333 95, 137.500 95 C 136.675 95, 136 95.675, 136 96.500 C 136 97.325, 136.625 98, 137.389 98 C 138.184 98, 139.058 99.495, 139.434 101.500 C 139.827 103.595, 140.675 105, 141.545 105 C 142.430 105, 143 105.979, 143 107.500 C 143 108.951, 143.575 110, 144.371 110 C 145.261 110, 145.975 111.754, 146.406 115 C 147.026 119.675, 147.254 120, 149.918 120 C 151.926 120, 152.921 119.410, 153.290 118 C 153.577 116.900, 154.530 116, 155.406 116 C 156.283 116, 157 115.325, 157 114.500 C 157 113.667, 157.889 113, 159 113 C 160.100 113, 161 112.345, 161 111.545 C 161 110.675, 162.405 109.827, 164.500 109.434 C 167.682 108.837, 168 108.470, 168 105.389 C 168 102.667, 168.393 102, 170 102 C 171.111 102, 172 101.333, 172 100.500 C 172 99.675, 172.675 99, 173.500 99 C 174.333 99, 175 98.111, 175 97 C 175 95.667, 175.667 95, 177 95 C 178.333 95, 179 94.333, 179 93 C 179 91.381, 179.667 91, 182.500 91 C 185.833 91, 186 90.833, 186 87.500 L 186 84 177 84 C 170.013 84, 168 84.309, 168 85.381 M 178 132.500 C 178 133.715, 176.395 134, 169.559 134 C 164.916 134, 160.853 134.429, 160.528 134.954 C 160.204 135.479, 160.223 137.042, 160.571 138.428 C 161.043 140.308, 162.067 141.109, 164.602 141.585 C 167.672 142.161, 168 142.550, 168 145.611 C 168 148.333, 167.607 149, 166 149 C 164.646 149, 164 148.333, 164 146.937 C 164 145.211, 163.468 144.925, 160.750 145.187 C 157.892 145.462, 157.462 145.892, 157.187 148.750 C 156.993 150.763, 156.327 152, 155.437 152 C 154.275 152, 154 154.104, 154 163 L 154 174 157.500 174 C 159.785 174, 161 173.528, 161 172.639 C 161 170.978, 167.963 170.021, 180.133 170.009 C 187.922 170.001, 188.818 169.804, 189.290 168 C 189.577 166.900, 190.530 166, 191.406 166 C 192.510 166, 193 165.078, 193 163 C 193 161, 192.500 160, 191.500 160 C 190.236 160, 190 157.722, 190 145.500 L 190 131 184 131 C 179.333 131, 178 131.333, 178 132.500" stroke="none" fill="black" fill-rule="evenodd"/>
</svg>