<svg xmlns="http://www.w3.org/2000/svg" width="300" height="300" viewBox="0 0 300 300" version="1.1">
	<path d="M 71.750 38.689 C 70.787 38.941, 70 39.789, 70 40.573 C 70 41.358, 69.100 42, 68 42 C 66.889 42, 66 42.667, 66 43.500 C 66 44.325, 65.352 45, 64.559 45 C 62.470 45, 61.926 46.380, 62.629 49.897 C 63.222 52.858, 63.472 53, 68.125 53 C 71.609 53, 73 52.605, 73 51.617 C 73 50.041, 76 49.034, 80.750 49.014 L 84 49 84 63.500 C 84 75.722, 84.236 78, 85.500 78 C 86.652 78, 87 79.278, 87 83.500 C 87 87.722, 86.652 89, 85.500 89 C 84.675 89, 84 89.675, 84 90.500 C 84 91.523, 82.966 92.004, 80.750 92.014 C 76 92.034, 73 93.041, 73 94.617 C 73 95.377, 72.044 96, 70.875 96 C 69.028 96, 68.832 95.591, 69.375 92.875 C 69.719 91.156, 70 88.681, 70 87.375 C 70 85.327, 70.482 85, 73.500 85 C 76.266 85, 77 84.604, 77 83.109 C 77 81.440, 76.323 81.251, 71.250 81.502 C 68.088 81.658, 64.037 81.834, 62.250 81.893 L 59 82 59 96.500 C 59 108.722, 59.236 111, 60.500 111 C 61.698 111, 62 112.486, 62 118.375 C 62 127.589, 62.850 132, 64.625 132 C 65.661 132, 66 133.727, 66 139 C 66 144.556, 66.310 146, 67.500 146 C 68.652 146, 69 147.278, 69 151.500 L 69 157 78.500 157 C 86.278 157, 88 156.728, 88 155.500 C 88 154.675, 88.675 154, 89.500 154 C 90.325 154, 91 154.675, 91 155.500 C 91 156.325, 91.675 157, 92.500 157 C 93.565 157, 94.003 158.087, 94.009 160.750 C 94.013 162.813, 94.301 166.863, 94.648 169.750 C 95.236 174.644, 95.133 175, 93.139 175 C 91.963 175, 91 175.623, 91 176.383 C 91 178.241, 87.848 178.970, 79.750 178.986 C 74.423 178.997, 73 179.316, 73 180.500 C 73 181.663, 71.681 182, 67.125 182 C 59.342 182, 55 182.940, 55 184.625 C 55 185.608, 53.576 186, 50 186 C 46.361 186, 45 186.384, 45 187.412 C 45 188.280, 43.459 189.085, 41 189.500 C 37.247 190.134, 37 190.386, 37 193.588 C 37 195.826, 37.476 197, 38.383 197 C 39.144 197, 40.002 197.900, 40.290 199 C 40.659 200.413, 41.647 200.996, 43.656 200.986 C 48.026 200.965, 51 199.911, 51 198.383 C 51 197.436, 52.261 197, 55 197 C 58.333 197, 59 196.667, 59 195 C 59 193.381, 59.667 193, 62.500 193 C 64.944 193, 66 192.548, 66 191.500 C 66 190.289, 67.589 189.997, 74.250 189.986 C 83.804 189.971, 87 189.318, 87 187.383 C 87 186.436, 88.261 186, 91 186 L 95 186 95 191.500 C 95 195.722, 95.348 197, 96.500 197 C 97.758 197, 98.001 199.142, 98.006 210.250 C 98.015 229.195, 98.974 240, 100.648 240 C 101.392 240, 102 240.900, 102 242 C 102 243.619, 102.667 244, 105.500 244 C 108.333 244, 109 243.619, 109 242 C 109 240.667, 109.667 240, 111 240 C 112.333 240, 113 239.333, 113 238 C 113 236.889, 113.667 236, 114.500 236 C 115.325 236, 116 235.283, 116 234.406 C 116 233.530, 116.900 232.577, 118 232.290 C 119.656 231.857, 120 230.926, 120 226.883 C 120 222.619, 120.261 222, 122.060 222 C 123.829 222, 124.077 221.470, 123.810 218.258 C 123.593 215.643, 122.973 214.417, 121.750 214.185 C 120.567 213.961, 120 214.487, 120 215.810 C 120 216.926, 119.140 217.992, 118 218.290 C 116.544 218.671, 116 219.654, 116 221.906 C 116 223.990, 115.510 225, 114.500 225 C 113.667 225, 113 225.889, 113 227 C 113 228.333, 112.333 229, 111 229 C 109.190 229, 109 228.333, 109 222 C 109 216.444, 108.690 215, 107.500 215 C 106.227 215, 106 212.500, 106 198.500 L 106 182 113 182 C 118.348 182, 120 181.668, 120 180.594 C 120 179.502, 122.242 179.111, 130.038 178.844 C 136.907 178.608, 140.330 178.088, 140.881 177.194 C 141.325 176.476, 144.233 175.625, 147.344 175.304 C 151.160 174.910, 153 174.278, 153 173.360 C 153 172.395, 154.451 172, 158 172 C 162.333 172, 163 171.733, 163 170 C 163 168.667, 163.667 168, 165 168 C 167.090 168, 167.376 167.007, 166.370 163.250 C 165.921 161.576, 165.028 161, 162.883 161 C 160.987 161, 160 161.513, 160 162.500 C 160 163.523, 158.966 164.004, 156.750 164.014 C 152 164.034, 149 165.041, 149 166.617 C 149 167.692, 146.996 168, 140 168 C 132.667 168, 131 168.278, 131 169.500 C 131 170.565, 129.913 171.003, 127.250 171.009 C 119.622 171.026, 113 172.249, 113 173.639 C 113 174.622, 111.472 175, 107.500 175 L 102 175 102 162.500 L 102 150 106 150 C 108.720 150, 110 149.562, 110 148.630 C 110 147.036, 116.276 146.126, 122.750 146.780 C 125.514 147.060, 127 147.698, 127 148.605 C 127 149.566, 128.245 150, 131 150 C 133.889 150, 135 149.583, 135 148.500 C 135 147.675, 135.675 147, 136.500 147 C 137.583 147, 138 145.889, 138 143 C 138 140.111, 137.583 139, 136.500 139 C 135.371 139, 135 137.791, 135 134.117 C 135 128.845, 135.950 128.045, 142.250 128.014 C 144.338 128.003, 145 128.482, 145 130 C 145 131.333, 145.667 132, 147 132 C 148.667 132, 149 132.667, 149 136 C 149 138.889, 149.417 140, 150.500 140 C 151.325 140, 152 140.675, 152 141.500 C 152 142.583, 153.111 143, 156 143 C 159.333 143, 160 142.667, 160 141 C 160 139.889, 160.667 139, 161.500 139 C 162.548 139, 163 137.944, 163 135.500 C 163 132.167, 162.833 132, 159.500 132 C 156.667 132, 156 131.619, 156 130 C 156 128.561, 156.667 128, 158.375 128 C 162.880 128, 167 129.254, 167 130.625 C 167 131.661, 168.727 132, 174 132 C 179.556 132, 181 131.690, 181 130.500 C 181 129.675, 181.717 129, 182.594 129 C 183.470 129, 184.423 128.100, 184.710 127 C 185.143 125.344, 186.074 125, 190.117 125 L 195 125 195 130.500 C 195 134.722, 194.652 136, 193.500 136 C 192.452 136, 192 137.056, 192 139.500 C 192 142.810, 191.817 143, 188.617 143 C 186.074 143, 185.103 143.497, 184.710 145 C 184.423 146.100, 183.470 147, 182.594 147 C 181.717 147, 181 147.675, 181 148.500 C 181 149.325, 181.623 150, 182.383 150 C 183.144 150, 184.002 150.900, 184.290 152 C 184.577 153.100, 185.530 154, 186.406 154 C 187.283 154, 188 154.675, 188 155.500 C 188 156.548, 189.056 157, 191.500 157 C 193.944 157, 195 156.548, 195 155.500 C 195 154.359, 196.256 153.997, 200.250 153.986 C 206.902 153.969, 210 153.142, 210 151.383 C 210 150.373, 211.484 150, 215.500 150 C 219.472 150, 221 149.622, 221 148.639 C 221 147.745, 222.798 147.063, 226.250 146.648 C 234.963 145.601, 234.695 145.470, 235.229 151.028 C 236.017 159.235, 235.337 161, 231.383 161 C 229.169 161, 228 161.478, 228 162.383 C 228 163.144, 227.100 164.002, 226 164.290 C 224.237 164.751, 224 165.654, 224 171.906 C 224 177.545, 223.692 179, 222.500 179 C 221.675 179, 221 179.675, 221 180.500 C 221 181.732, 219.240 182, 211.158 182 C 191.065 182, 174 183.219, 174 184.655 C 174 185.718, 171.061 186, 160 186 C 148.610 186, 146 186.263, 146 187.412 C 146 188.280, 144.459 189.085, 142 189.500 C 139.541 189.915, 138 190.720, 138 191.588 C 138 192.365, 137.100 193, 136 193 C 134.242 193, 134 193.667, 134 198.500 L 134 204 140 204 C 144.480 204, 146 204.355, 146 205.402 C 146 206.370, 147.841 207.017, 151.947 207.494 C 158.246 208.225, 160 207.778, 160 205.441 C 160 204.361, 158.622 204, 154.500 204 L 149 204 149 200.500 L 149 197 155.950 197 C 161.530 197, 163.094 196.655, 163.879 195.250 C 164.757 193.681, 167.189 193.464, 187.429 193.154 C 205.972 192.869, 210 192.557, 210 191.404 C 210 190.632, 210.900 190, 212 190 C 213.111 190, 214 190.667, 214 191.500 C 214 192.325, 214.675 193, 215.500 193 C 216.325 193, 217 192.325, 217 191.500 C 217 190.667, 217.889 190, 219 190 C 220.111 190, 221 190.667, 221 191.500 C 221 192.325, 221.675 193, 222.500 193 C 223.722 193, 224 194.667, 224 202 L 224 211 220.500 211 C 217.667 211, 217 211.381, 217 213 C 217 214.619, 216.333 215, 213.500 215 C 210.667 215, 210 215.381, 210 217 C 210 218.111, 209.333 219, 208.500 219 C 207.675 219, 207 219.675, 207 220.500 C 207 221.333, 206.111 222, 205 222 C 203.837 222, 203 222.667, 203 223.594 C 203 224.470, 202.100 225.423, 201 225.710 C 199.900 225.998, 199 226.856, 199 227.617 C 199 228.377, 198.325 229, 197.500 229 C 196.675 229, 196 229.717, 196 230.594 C 196 231.470, 195.100 232.423, 194 232.710 C 192.497 233.103, 192 234.074, 192 236.617 C 192 239.333, 191.606 240, 190 240 C 188.561 240, 188 240.667, 188 242.375 C 188 246.880, 189.254 251, 190.625 251 C 191.381 251, 192 251.623, 192 252.383 C 192 253.144, 192.900 254.002, 194 254.290 C 195.100 254.577, 196 255.530, 196 256.406 C 196 257.283, 196.675 258, 197.500 258 C 198.325 258, 199 258.619, 199 259.375 C 199 261.195, 203.447 262, 213.500 262 C 223.553 262, 228 261.195, 228 259.375 C 228 258.619, 228.900 258, 230 258 C 231.333 258, 232 257.333, 232 256 C 232 254.900, 232.639 254, 233.421 254 C 234.202 254, 235.129 252.688, 235.482 251.084 C 235.834 249.479, 236.801 247.906, 237.632 247.588 C 238.908 247.098, 239.091 244.589, 238.820 231.336 C 238.587 219.922, 238.160 215.551, 237.250 215.249 C 236.562 215.020, 236 213.332, 236 211.496 C 236 208.601, 236.398 208.072, 239 207.500 C 240.650 207.138, 242 206.202, 242 205.421 C 242 204.464, 243.143 204, 245.500 204 C 248.333 204, 249 203.619, 249 202 C 249 200.889, 248.333 200, 247.500 200 C 246.675 200, 246 199.325, 246 198.500 C 246 197.675, 245.325 197, 244.500 197 C 243.675 197, 243 197.675, 243 198.500 C 243 199.583, 241.889 200, 239 200 L 235 200 235 195.045 C 235 190.175, 235.059 190.080, 238.500 189.434 C 240.505 189.058, 242 188.184, 242 187.389 C 242 186.327, 243.767 186, 249.500 186 C 255.396 186, 257 185.689, 257 184.545 C 257 183.675, 258.405 182.827, 260.500 182.434 C 263.923 181.792, 264 181.672, 264 176.977 L 264 172.176 260 171.500 C 257.541 171.085, 256 170.280, 256 169.412 C 256 168.465, 254.848 168, 252.500 168 C 250.056 168, 249 167.548, 249 166.500 C 249 165.675, 248.325 165, 247.500 165 C 246.254 165, 246 163.056, 246 153.500 C 246 144.425, 245.711 142, 244.629 142 C 243.739 142, 243.025 140.246, 242.594 137 C 242.140 133.576, 241.469 132, 240.466 132 C 239.660 132, 239 131.100, 239 130 C 239 128.407, 238.338 128.003, 235.750 128.014 C 229.486 128.040, 228 128.923, 228 132.617 L 228 136 223 136 C 219.222 136, 218 136.367, 218 137.500 C 218 138.700, 216.500 139, 210.500 139 L 203 139 203 130 L 203 121 212 121 C 218.954 121, 221 120.689, 221 119.630 C 221 118.746, 222.614 118.078, 225.549 117.747 C 228.052 117.465, 230.414 116.921, 230.799 116.537 C 231.725 115.615, 232.338 89.614, 231.535 85.336 C 231.166 83.370, 230.312 82, 229.455 82 C 228.462 82, 228 80.902, 228 78.545 C 228 75.389, 227.698 75.034, 224.500 74.434 C 222.575 74.073, 221 73.217, 221 72.532 C 221 71.679, 218.097 71.068, 211.776 70.591 C 206.703 70.208, 202.311 69.504, 202.016 69.026 C 201.721 68.549, 200.247 67.849, 198.740 67.471 C 196.427 66.890, 196 66.255, 196 63.392 C 196 61.044, 196.462 60, 197.500 60 C 198.333 60, 199 59.111, 199 58 C 199 56.667, 199.667 56, 201 56 C 202.111 56, 203 55.333, 203 54.500 C 203 53.675, 203.635 53, 204.412 53 C 205.280 53, 206.085 51.459, 206.500 49 C 206.915 46.541, 207.720 45, 208.588 45 C 209.365 45, 210 44.325, 210 43.500 C 210 42.667, 209.111 42, 208 42 C 206.889 42, 206 41.333, 206 40.500 C 206 38.809, 206.342 38.875, 195.500 38.487 C 185.543 38.132, 181 38.797, 181 40.611 C 181 41.532, 179.820 42, 177.500 42 C 175.056 42, 174 41.548, 174 40.500 C 174 39.300, 172.500 39, 166.500 39 C 160.500 39, 159 39.300, 159 40.500 C 159 41.633, 157.778 42, 154 42 L 149 42 149 47.500 L 149 53 154.500 53 C 158.575 53, 160 52.633, 160 51.585 C 160 50.556, 162.010 49.982, 167.379 49.479 C 175.770 48.693, 181 49.499, 181 51.579 C 181 52.361, 181.623 53, 182.383 53 C 184.241 53, 184.970 56.152, 184.986 64.250 L 185 71 179.500 71 C 175.278 71, 174 71.348, 174 72.500 C 174 73.555, 172.934 74, 170.406 74 C 167.654 74, 166.690 74.468, 166.290 76 C 165.897 77.503, 164.926 78, 162.383 78 C 159.139 78, 159 78.154, 159.009 81.750 C 159.013 83.813, 159.301 87.862, 159.648 90.750 C 160.156 94.976, 160.641 96, 162.139 96 C 163.163 96, 164 95.373, 164 94.607 C 164 93.841, 164.675 92.955, 165.500 92.638 C 166.441 92.277, 167 90.748, 167 88.531 C 167 85.162, 167.161 85, 170.500 85 C 172.781 85, 174 84.527, 174 83.642 C 174 82.048, 184.189 80.688, 188.968 81.644 L 192 82.250 192 91.125 L 192 100 188.500 100 C 186.056 100, 185 100.452, 185 101.500 C 185 102.684, 183.577 103.003, 178.250 103.014 C 170.152 103.030, 167 103.759, 167 105.617 C 167 106.522, 165.831 107, 163.617 107 C 161.074 107, 160.103 107.497, 159.710 109 C 159.423 110.100, 158.470 111, 157.594 111 C 156.505 111, 156 111.911, 156 113.875 C 156 116.295, 156.495 116.849, 159.125 117.375 C 160.844 117.719, 163.994 118, 166.125 118 C 169.333 118, 170 117.656, 170 116 C 170 114.333, 170.667 114, 174 114 C 176.722 114, 178 113.562, 178 112.629 C 178 111.739, 179.754 111.025, 183 110.594 C 186.424 110.140, 188 109.469, 188 108.466 C 188 107.660, 188.900 107, 190 107 C 191.333 107, 192 107.667, 192 109 C 192 110.111, 192.667 111, 193.500 111 C 194.325 111, 195 111.675, 195 112.500 C 195 113.679, 193.611 114, 188.500 114 C 183.569 114, 182 114.341, 182 115.412 C 182 116.280, 180.459 117.085, 178 117.500 C 175.541 117.915, 174 118.720, 174 119.588 C 174 120.713, 171.894 121, 163.625 121 L 153.250 121 152.737 118.250 C 152.016 114.388, 151.907 79.291, 152.602 74.750 C 153.099 71.504, 153.534 70.998, 155.838 70.986 C 160.038 70.965, 163 69.888, 163 68.383 C 163 67.623, 163.900 67, 165 67 C 167.009 67, 167.779 64.600, 166.103 63.563 C 164.530 62.591, 159 64.196, 159 65.625 C 159 66.661, 157.273 67, 152 67 L 145 67 145 70.500 C 145 72.944, 144.548 74, 143.500 74 C 142.221 74, 142 76.722, 142 92.500 C 142 108.278, 142.221 111, 143.500 111 C 144.495 111, 145 111.995, 145 113.955 C 145 116.523, 144.556 116.993, 141.600 117.547 C 135.899 118.617, 134.536 117.916, 134.190 113.742 C 133.987 111.296, 133.381 110, 132.440 110 C 131.379 110, 131 108.685, 131 105 C 131 100.667, 130.733 100, 129 100 C 127.667 100, 127 99.333, 127 98 C 127 96.381, 126.333 96, 123.500 96 C 121.187 96, 120 95.531, 120 94.617 C 120 92.759, 116.848 92.030, 108.750 92.014 C 103.423 92.003, 102 91.684, 102 90.500 C 102 89.458, 100.952 89, 98.564 89 L 95.129 89 94.814 71.250 C 94.642 61.487, 94.665 52.487, 94.867 51.250 C 95.215 49.113, 95.679 49, 104.117 49 C 112.333 49, 113 49.150, 113 51 C 113 52.111, 113.667 53, 114.500 53 C 115.325 53, 116 53.675, 116 54.500 C 116 55.325, 115.325 56, 114.500 56 C 113.348 56, 113 57.278, 113 61.500 C 113 65.722, 113.348 67, 114.500 67 C 115.325 67, 116 66.325, 116 65.500 C 116 64.667, 116.889 64, 118 64 C 119.667 64, 120 63.333, 120 60 C 120 57.111, 120.417 56, 121.500 56 C 122.633 56, 123 54.778, 123 51 C 123 47.222, 122.633 46, 121.500 46 C 120.667 46, 120 45.111, 120 44 C 120 42.900, 119.377 42, 118.617 42 C 117.856 42, 116.998 41.100, 116.710 40 C 116.207 38.074, 115.396 38.004, 94.844 38.116 C 83.105 38.180, 72.713 38.438, 71.750 38.689 M 199 87 L 199 96 210 96 C 220.333 96, 221 96.121, 221 98 C 221 99.111, 221.667 100, 222.500 100 C 223.652 100, 224 98.722, 224 94.500 C 224 90.278, 223.652 89, 222.500 89 C 221.667 89, 221 88.111, 221 87 C 221 85.667, 220.333 85, 219 85 C 217.667 85, 217 84.333, 217 83 C 217 81.889, 216.333 81, 215.500 81 C 214.675 81, 214 80.325, 214 79.500 C 214 78.300, 212.500 78, 206.500 78 L 199 78 199 87 M 84 101.500 C 84 102.543, 82.951 103, 80.560 103 C 77.308 103, 77.104 103.204, 76.810 106.750 C 76.514 110.326, 76.349 110.485, 73.250 110.186 L 70 109.872 70 115.436 C 70 119.534, 70.368 121, 71.397 121 C 72.458 121, 72.880 123.067, 73.147 129.570 C 73.431 136.454, 73.844 138.333, 75.250 139.120 C 76.300 139.708, 77 141.280, 77 143.050 C 77 145.923, 77.130 146, 82 146 C 85.778 146, 87 145.633, 87 144.500 C 87 143.667, 87.889 143, 89 143 C 90.879 143, 91 142.333, 91 132 C 91 122.889, 90.742 121, 89.500 121 C 88.262 121, 88 119.167, 88 110.500 C 88 100.667, 87.873 100, 86 100 C 84.889 100, 84 100.667, 84 101.500 M 98.589 102.500 C 98.244 103.875, 98.244 106.125, 98.589 107.500 C 99.078 109.446, 99.858 110, 102.108 110 C 104.012 110, 105 109.488, 105 108.500 C 105 107.417, 106.111 107, 109 107 C 111.889 107, 113 107.417, 113 108.500 C 113 109.548, 114.056 110, 116.500 110 L 120 110 120 119 L 120 128 116.500 128 C 113.167 128, 113 127.833, 113 124.500 C 113 122.056, 113.452 121, 114.500 121 C 116.882 121, 116.239 118.277, 113.750 117.822 C 112.513 117.595, 109.362 117.588, 106.750 117.806 L 102 118.201 102 130.101 C 102 139.605, 102.280 142, 103.393 142 C 104.159 142, 105.045 141.325, 105.362 140.500 C 105.777 139.417, 107.474 139, 111.469 139 C 115.719 139, 117 138.653, 117 137.500 C 117 136.490, 118.010 136, 120.094 136 C 122.346 136, 123.329 135.456, 123.710 134 C 123.998 132.900, 124.856 132, 125.617 132 C 126.692 132, 127 129.996, 127 123 C 127 114.667, 126.852 114, 125 114 C 123.381 114, 123 113.333, 123 110.500 C 123 108.056, 122.548 107, 121.500 107 C 120.667 107, 120 106.111, 120 105 C 120 103.381, 119.333 103, 116.500 103 C 114.056 103, 113 102.548, 113 101.500 C 113 100.312, 111.568 100, 106.108 100 C 99.591 100, 99.183 100.136, 98.589 102.500 M 206.290 105 C 206.002 106.100, 205.144 107, 204.383 107 C 203.623 107, 203 107.675, 203 108.500 C 203 109.652, 204.278 110, 208.500 110 L 214 110 214 106.500 C 214 103.149, 213.847 103, 210.406 103 C 207.654 103, 206.690 103.468, 206.290 105 M 242.314 172.905 C 242.013 174.057, 241.144 175, 240.383 175 C 239.623 175, 239 175.900, 239 177 C 239 178.518, 239.662 178.997, 241.750 178.986 C 246.577 178.962, 248.810 177.892, 249.464 175.288 C 250.220 172.276, 250.340 172.414, 246.181 171.522 C 243.338 170.913, 242.784 171.111, 242.314 172.905 M 220.290 220 C 219.919 221.417, 218.926 222, 216.883 222 C 214.667 222, 214 222.462, 214 224 C 214 225.333, 213.333 226, 212 226 C 210.900 226, 210 226.623, 210 227.383 C 210 228.144, 209.100 229.002, 208 229.290 C 206.900 229.577, 206 230.530, 206 231.406 C 206 232.283, 205.325 233, 204.500 233 C 203.667 233, 203 233.889, 203 235 C 203 236.100, 202.377 237, 201.617 237 C 199.897 237, 199.031 240.077, 199.014 246.250 C 199.002 250.338, 199.279 251, 201 251 C 202.111 251, 203 251.667, 203 252.500 C 203 253.738, 204.833 254, 213.500 254 C 222.167 254, 224 253.738, 224 252.500 C 224 251.667, 224.889 251, 226 251 C 227.667 251, 228 250.333, 228 247 C 228 244.111, 228.417 243, 229.500 243 C 230.325 243, 231 242.325, 231 241.500 C 231 240.675, 230.325 240, 229.500 240 C 228.258 240, 228 238.111, 228 229 L 228 218 224.406 218 C 221.654 218, 220.690 218.468, 220.290 220" stroke="none" fill="black" fill-rule="evenodd"/>
</svg>