<svg xmlns="http://www.w3.org/2000/svg" width="300" height="300" viewBox="0 0 300 300" version="1.1">
	<path d="M 168 61.500 C 168 62.642, 166.746 63.002, 162.750 63.009 C 153.745 63.024, 147 64.150, 147 65.639 C 147 66.618, 145.490 67, 141.617 67 C 137.074 67, 136.152 67.312, 135.710 69 C 135.274 70.670, 134.346 71, 130.094 71 C 126.233 71, 125 71.363, 125 72.500 C 125 73.333, 124.111 74, 123 74 C 121.238 74, 121 74.667, 121 79.594 C 121 84.346, 121.301 85.266, 123 85.710 C 124.100 85.998, 125 86.631, 125 87.117 C 125 89.380, 127.915 87.665, 128.486 85.065 C 128.970 82.861, 129.861 81.970, 132.065 81.486 C 133.679 81.131, 135 80.202, 135 79.421 C 135 78.572, 136.007 78, 137.500 78 C 139.056 78, 140 77.433, 140 76.500 C 140 75.425, 141.097 75, 143.875 75 C 149.772 75, 154 73.904, 154 72.375 C 154 71.296, 156.258 71, 164.500 71 L 175 71 175 74.500 C 175 77.333, 175.381 78, 177 78 C 178.333 78, 179 77.333, 179 76 C 179 74.900, 179.623 74, 180.383 74 C 182.127 74, 183.063 70.565, 182.325 66.874 C 181.874 64.621, 181.072 63.916, 178.380 63.411 C 176.467 63.053, 175 62.175, 175 61.389 C 175 60.468, 173.820 60, 171.500 60 C 169.056 60, 168 60.452, 168 61.500 M 49 79.399 C 49 80.396, 46.995 80.998, 42 81.500 C 37.323 81.970, 35 82.630, 35 83.490 C 35 84.198, 33.425 85.073, 31.500 85.434 C 28.059 86.080, 28 86.175, 28 91.045 C 28 95.333, 28.269 96, 30 96 C 31.111 96, 32 96.667, 32 97.500 C 32 98.325, 32.675 99, 33.500 99 C 34.325 99, 35 98.325, 35 97.500 C 35 96.452, 36.056 96, 38.500 96 C 41.333 96, 42 95.619, 42 94 C 42 92.381, 42.667 92, 45.500 92 C 47.822 92, 49 91.532, 49 90.609 C 49 89.550, 51.618 89.048, 60 88.500 C 66.050 88.105, 71 87.381, 71 86.891 C 71 86.401, 71.900 86, 73 86 C 74.100 86, 75 86.414, 75 86.921 C 75 87.427, 76.350 88.138, 78 88.500 C 80.620 89.075, 81 89.592, 81 92.579 C 81 94.953, 80.541 96, 79.500 96 C 78.667 96, 78 96.889, 78 98 C 78 99.111, 77.333 100, 76.500 100 C 75.675 100, 75 100.675, 75 101.500 C 75 102.548, 76.056 103, 78.500 103 C 80.944 103, 82 102.548, 82 101.500 C 82 100.675, 82.675 100, 83.500 100 C 84.333 100, 85 99.111, 85 98 C 85 96.900, 85.619 96, 86.375 96 C 87.131 96, 88.031 94.594, 88.375 92.875 C 89.417 87.665, 89.121 85, 87.500 85 C 86.675 85, 86 84.283, 86 83.406 C 86 82.530, 85.100 81.577, 84 81.290 C 82.900 81.002, 82 80.144, 82 79.383 C 82 78.261, 78.882 78, 65.500 78 C 52.032 78, 49 78.257, 49 79.399 M 175 87 C 175 88.810, 174.333 89, 168 89 C 162.444 89, 161 89.310, 161 90.500 C 161 91.523, 159.966 92.004, 157.750 92.014 C 153 92.034, 150 93.041, 150 94.617 C 150 95.627, 148.516 96, 144.500 96 C 140.528 96, 139 96.378, 139 97.361 C 139 98.714, 132.426 99.972, 125.250 99.991 C 123.032 99.997, 122 100.476, 122 101.500 C 122 102.648, 120.735 103, 116.617 103 C 112.074 103, 111.152 103.312, 110.710 105 C 110.397 106.197, 109.346 107, 108.094 107 C 106.368 107, 106 107.614, 106 110.500 L 106 114 117 114 C 125.807 114, 128 113.718, 128 112.588 C 128 111.720, 129.541 110.915, 132 110.500 C 134.459 110.085, 136 109.280, 136 108.412 C 136 107.465, 137.152 107, 139.500 107 C 141.813 107, 143 106.531, 143 105.617 C 143 103.897, 146.077 103.031, 152.250 103.014 C 155.799 103.003, 157 102.621, 157 101.500 C 157 100.348, 158.278 100, 162.500 100 C 166.722 100, 168 100.348, 168 101.500 C 168 102.333, 167.111 103, 166 103 C 164.667 103, 164 103.667, 164 105 C 164 106.111, 163.333 107, 162.500 107 C 161.675 107, 161 107.717, 161 108.594 C 161 109.470, 160.100 110.423, 159 110.710 C 157.900 110.998, 157 111.856, 157 112.617 C 157 113.377, 156.375 114, 155.611 114 C 154.822 114, 153.945 115.478, 153.580 117.428 C 153.060 120.196, 152.366 120.980, 149.968 121.507 C 148.336 121.866, 147 122.798, 147 123.579 C 147 124.361, 146.150 125, 145.111 125 C 143.745 125, 143.041 125.967, 142.566 128.500 C 142.173 130.595, 141.325 132, 140.455 132 C 139.655 132, 139 132.623, 139 133.383 C 139 134.144, 138.100 135.002, 137 135.290 C 135.900 135.577, 135 136.530, 135 137.406 C 135 138.283, 134.325 139, 133.500 139 C 132.675 139, 132 139.623, 132 140.383 C 132 141.144, 131.100 142.002, 130 142.290 C 128.900 142.577, 128 143.530, 128 144.406 C 128 145.283, 127.325 146, 126.500 146 C 125.667 146, 125 146.889, 125 148 C 125 149.333, 124.333 150, 123 150 C 121.667 150, 121 150.667, 121 152 C 121 153.100, 120.361 154, 119.579 154 C 118.798 154, 117.862 155.350, 117.500 157 C 117.138 158.650, 116.202 160, 115.421 160 C 114.639 160, 114 160.900, 114 162 C 114 163.163, 113.333 164, 112.406 164 C 111.530 164, 110.577 164.900, 110.290 166 C 110.002 167.100, 109.144 168, 108.383 168 C 107.623 168, 107 168.900, 107 170 C 107 171.333, 106.333 172, 105 172 C 103.667 172, 103 172.667, 103 174 C 103 175.111, 102.333 176, 101.500 176 C 100.567 176, 100 175.056, 100 173.500 C 100 171.944, 100.567 171, 101.500 171 C 102.487 171, 103 170.013, 103 168.117 C 103 166.074, 103.583 165.081, 105 164.710 C 106.100 164.423, 107 163.470, 107 162.594 C 107 161.717, 107.675 161, 108.500 161 C 109.627 161, 110 159.795, 110 156.151 C 110 145.607, 111.262 136, 112.647 136 C 113.620 136, 114 134.457, 114 130.500 C 114 126.474, 113.628 125, 112.611 125 C 111.825 125, 110.947 123.531, 110.587 121.610 C 109.920 118.057, 108.187 117.041, 102.750 117.014 C 100.978 117.005, 100 116.466, 100 115.500 C 100 114.667, 99.111 114, 98 114 C 96.889 114, 96 114.667, 96 115.500 C 96 116.641, 94.622 117.039, 90.250 117.162 C 87.088 117.252, 83.150 117.393, 81.500 117.476 C 79.850 117.559, 76.813 117.711, 74.750 117.813 C 72.166 117.942, 71 118.466, 71 119.500 C 71 120.652, 69.722 121, 65.500 121 C 60.620 121, 60 121.231, 60 123.052 C 60 124.900, 59.476 125.074, 54.750 124.802 L 49.500 124.500 49.782 121.039 C 49.938 119.135, 50.549 117.279, 51.141 116.913 C 51.733 116.547, 52.452 114.167, 52.739 111.624 C 53.050 108.862, 53.765 107, 54.513 107 C 56.050 107, 57.026 102.474, 56.292 98.750 C 55.781 96.158, 55.441 96, 50.375 96 C 45.667 96, 45 96.248, 45 98 C 45 99.111, 44.333 100, 43.500 100 C 42.218 100, 42 102.833, 42 119.500 C 42 136.167, 41.782 139, 40.500 139 C 39.348 139, 39 140.278, 39 144.500 C 39 148.722, 39.348 150, 40.500 150 C 41.782 150, 42 152.820, 42 169.383 C 42 187.926, 42.087 188.789, 44 189.290 C 45.100 189.577, 46 190.501, 46 191.343 C 46 192.329, 47.128 192.985, 49.173 193.187 C 53.651 193.629, 53.896 195.741, 49.564 196.554 C 46.311 197.164, 46 197.519, 46 200.611 L 46 204 53 204 C 59.333 204, 60 203.810, 60 202 C 60 200.381, 60.667 200, 63.500 200 C 65.944 200, 67 199.548, 67 198.500 C 67 197.278, 68.667 197, 76 197 C 83.333 197, 85 196.722, 85 195.500 C 85 194.667, 85.889 194, 87 194 C 88.100 194, 89 194.450, 89 195 C 89 195.550, 90.575 196, 92.500 196 C 94.425 196, 96 195.550, 96 195 C 96 193.395, 98.728 193.849, 99.386 195.564 C 99.799 196.641, 101 197.030, 103.243 196.814 C 106.085 196.540, 106.539 196.098, 106.806 193.347 C 107.095 190.371, 106.886 190.156, 103.056 189.509 C 100.553 189.087, 99 188.284, 99 187.412 C 99 186.635, 98.325 186, 97.500 186 C 96.452 186, 96 184.944, 96 182.500 C 96 180.056, 96.452 179, 97.500 179 C 98.325 179, 99 179.717, 99 180.594 C 99 181.470, 99.900 182.423, 101 182.710 C 102.100 182.998, 103 183.856, 103 184.617 C 103 185.377, 103.900 186, 105 186 C 106.333 186, 107 185.333, 107 184 C 107 182.900, 107.655 182, 108.455 182 C 109.325 182, 110.173 180.595, 110.566 178.500 C 110.942 176.495, 111.816 175, 112.611 175 C 113.375 175, 114 174.325, 114 173.500 C 114 172.675, 114.717 172, 115.594 172 C 116.470 172, 117.423 171.100, 117.710 170 C 117.998 168.900, 118.856 168, 119.617 168 C 120.377 168, 121 167.100, 121 166 C 121 164.667, 121.667 164, 123 164 C 124.619 164, 125 163.333, 125 160.500 C 125 157.667, 125.381 157, 127 157 C 128.111 157, 129 156.333, 129 155.500 C 129 154.675, 129.675 154, 130.500 154 C 131.333 154, 132 153.111, 132 152 C 132 150.889, 132.667 150, 133.500 150 C 134.325 150, 135 149.283, 135 148.406 C 135 147.530, 135.900 146.577, 137 146.290 C 138.100 146.002, 139.008 145.257, 139.017 144.633 C 139.039 143.198, 143.416 139, 144.891 139 C 145.501 139, 146 138.283, 146 137.406 C 146 136.530, 146.900 135.577, 148 135.290 C 149.100 135.002, 150 134.144, 150 133.383 C 150 132.623, 150.623 132, 151.383 132 C 152.144 132, 153.002 131.100, 153.290 130 C 153.577 128.900, 154.530 128, 155.406 128 C 156.283 128, 157.008 127.438, 157.017 126.750 C 157.038 125.249, 161.345 121, 162.846 121 C 163.431 121, 164.205 119.425, 164.566 117.500 C 164.942 115.495, 165.816 114, 166.611 114 C 167.375 114, 168 113.377, 168 112.617 C 168 111.856, 168.900 110.998, 170 110.710 C 171.100 110.423, 172 109.470, 172 108.594 C 172 107.439, 172.964 107, 175.500 107 C 178.333 107, 179 106.619, 179 105 C 179 103.667, 179.667 103, 181 103 C 182.111 103, 183 102.333, 183 101.500 C 183 100.675, 183.675 100, 184.500 100 C 185.583 100, 186 98.889, 186 96 C 186 93.250, 186.435 92, 187.392 92 C 188.895 92, 190.437 87.516, 189.472 85.954 C 189.147 85.429, 185.759 85, 181.941 85 C 175.667 85, 175 85.192, 175 87 M 179 115.389 C 179 116.184, 177.505 117.058, 175.500 117.434 C 173.405 117.827, 172 118.675, 172 119.545 C 172 120.345, 171.100 121, 170 121 C 168.395 121, 168 121.667, 168 124.375 C 168 127.259, 168.400 127.829, 170.750 128.292 C 174.597 129.050, 179 128.032, 179 126.383 C 179 125.231, 185.015 125, 215 125 L 251 125 251 129.883 C 251 133.926, 250.656 134.857, 249 135.290 C 247.900 135.577, 247 136.530, 247 137.406 C 247 138.283, 246.325 139, 245.500 139 C 244.667 139, 244 139.889, 244 141 C 244 142.619, 244.667 143, 247.500 143 C 250.333 143, 251 142.619, 251 141 C 251 139.667, 251.667 139, 253 139 C 254.111 139, 255 138.333, 255 137.500 C 255 136.675, 255.675 136, 256.500 136 C 257.700 136, 258 134.500, 258 128.500 C 258 122.500, 257.700 121, 256.500 121 C 255.675 121, 255 120.381, 255 119.625 C 255 118.052, 250.741 117, 244.375 117 C 241.153 117, 240 116.605, 240 115.500 C 240 114.209, 236.722 114, 216.500 114 C 196.278 114, 193 114.209, 193 115.500 C 193 116.325, 192.325 117, 191.500 117 C 190.675 117, 190 116.325, 190 115.500 C 190 114.348, 188.722 114, 184.500 114 C 180.474 114, 179 114.372, 179 115.389 M 78 126.500 C 78 127.412, 77.069 128, 75.625 128 C 71.120 128, 67 129.254, 67 130.625 C 67 131.530, 65.803 132, 63.500 132 C 61.104 132, 60 132.459, 60 133.455 C 60 134.325, 58.595 135.173, 56.500 135.566 C 53.318 136.163, 53 136.530, 53 139.611 C 53 142.333, 52.607 143, 51 143 C 49.151 143, 49 143.667, 49 151.844 C 49 168.548, 50.183 182, 51.652 182 C 52.393 182, 53 182.900, 53 184 C 53 185.111, 53.667 186, 54.500 186 C 55.325 186, 56 186.675, 56 187.500 C 56 188.325, 55.325 189, 54.500 189 C 53.667 189, 53 189.889, 53 191 C 53 192.619, 53.667 193, 56.500 193 C 58.803 193, 60 192.530, 60 191.625 C 60 189.940, 64.342 189, 72.125 189 C 76.681 189, 78 188.663, 78 187.500 C 78 186.348, 79.278 186, 83.500 186 L 89 186 89 181 C 89 177.429, 89.392 176, 90.372 176 C 91.200 176, 91.998 174.413, 92.384 172 C 92.798 169.412, 93.549 168, 94.512 168 C 95.653 168, 96 166.687, 96 162.362 L 96 156.724 89.278 157.413 C 85.580 157.791, 82.284 158.540, 81.952 159.077 C 81.621 159.614, 79.021 160.329, 76.175 160.666 C 73.030 161.038, 71 161.769, 71 162.528 C 71 163.215, 69.442 164.070, 67.538 164.427 C 64.564 164.985, 63.985 165.564, 63.427 168.538 C 62.733 172.238, 60 173.403, 60 170 C 60 168.381, 59.333 168, 56.500 168 C 53.167 168, 53 167.833, 53 164.500 C 53 162.056, 53.452 161, 54.500 161 C 55.333 161, 56 160.111, 56 159 C 56 157.381, 56.667 157, 59.500 157 C 61.848 157, 63 156.535, 63 155.588 C 63 154.720, 64.541 153.915, 67 153.500 C 69.459 153.085, 71 152.280, 71 151.412 C 71 150.286, 73.124 150, 81.500 150 C 89.742 150, 92 149.704, 92 148.625 C 92 147.254, 96.120 146, 100.625 146 C 102.974 146, 103 145.886, 103 135.500 L 103 125 90.500 125 C 80.056 125, 78 125.247, 78 126.500 M 213.250 146.706 C 211.527 147.038, 211 147.826, 211 150.070 C 211 152.084, 210.502 153, 209.406 153 C 208.530 153, 207.577 153.900, 207.290 155 C 207.002 156.100, 206.144 157, 205.383 157 C 204.469 157, 204 158.187, 204 160.500 C 204 163.036, 203.561 164, 202.406 164 C 201.530 164, 200.577 164.900, 200.290 166 C 200.002 167.100, 199.144 168, 198.383 168 C 197.469 168, 197 169.187, 197 171.500 C 197 174.333, 196.619 175, 195 175 C 193.381 175, 193 175.667, 193 178.500 C 193 181.833, 192.833 182, 189.500 182 C 187.180 182, 186 181.532, 186 180.611 C 186 179.816, 184.505 178.942, 182.500 178.566 C 180.405 178.173, 179 177.325, 179 176.455 C 179 175.655, 178.100 175, 177 175 C 175.900 175, 175 174.340, 175 173.534 C 175 172.531, 173.424 171.860, 170 171.406 C 166.754 170.975, 165 170.261, 165 169.371 C 165 168.617, 164.100 168, 163 168 C 161.900 168, 161 167.345, 161 166.545 C 161 165.675, 159.595 164.827, 157.500 164.434 C 155.575 164.073, 154 163.209, 154 162.514 C 154 160.968, 149.484 159.975, 145.750 160.700 C 143.202 161.194, 143 161.589, 143 166.071 C 143 170.809, 143.073 170.923, 146.500 171.566 C 148.505 171.942, 150 172.816, 150 173.611 C 150 174.532, 151.180 175, 153.500 175 C 156.333 175, 157 175.381, 157 177 C 157 178.758, 157.667 179, 162.500 179 C 166.516 179, 168 179.373, 168 180.383 C 168 181.144, 168.900 182.002, 170 182.290 C 171.100 182.577, 172 183.530, 172 184.406 C 172 185.561, 172.964 186, 175.500 186 C 177.944 186, 179 186.452, 179 187.500 C 179 188.325, 179.675 189, 180.500 189 C 181.433 189, 182 189.944, 182 191.500 C 182 193.056, 181.433 194, 180.500 194 C 179.675 194, 179 194.675, 179 195.500 C 179 196.333, 178.111 197, 177 197 C 175.381 197, 175 197.667, 175 200.500 C 175 203.333, 174.619 204, 173 204 C 171.889 204, 171 204.667, 171 205.500 C 171 206.325, 170.325 207, 169.500 207 C 168.667 207, 168 207.889, 168 209 C 168 210.333, 167.333 211, 166 211 C 164.667 211, 164 211.667, 164 213 C 164 214.111, 163.333 215, 162.500 215 C 161.675 215, 161 215.675, 161 216.500 C 161 217.333, 160.111 218, 159 218 C 157.667 218, 157 218.667, 157 220 C 157 221.100, 156.377 222, 155.617 222 C 154.856 222, 153.998 222.900, 153.710 224 C 153.423 225.100, 152.470 226, 151.594 226 C 150.717 226, 150 226.675, 150 227.500 C 150 228.333, 149.111 229, 148 229 C 146.889 229, 146 228.333, 146 227.500 C 146 226.667, 145.111 226, 144 226 C 142.889 226, 142 226.667, 142 227.500 C 142 228.325, 141.325 229, 140.500 229 C 139.667 229, 139 229.889, 139 231 C 139 232.333, 139.667 233, 141 233 C 142.111 233, 143 233.667, 143 234.500 C 143 235.548, 144.056 236, 146.500 236 C 148.820 236, 150 235.532, 150 234.611 C 150 233.816, 151.495 232.942, 153.500 232.566 C 155.595 232.173, 157 231.325, 157 230.455 C 157 229.655, 157.900 229, 159 229 C 160.111 229, 161 228.333, 161 227.500 C 161 226.675, 161.675 226, 162.500 226 C 163.333 226, 164 225.111, 164 224 C 164 222.667, 164.667 222, 166 222 C 167.607 222, 168 221.333, 168 218.611 C 168 215.530, 168.318 215.163, 171.500 214.566 C 173.595 214.173, 175 213.325, 175 212.455 C 175 211.655, 175.655 211, 176.455 211 C 177.325 211, 178.173 209.595, 178.566 207.500 C 179.041 204.967, 179.745 204, 181.111 204 C 182.150 204, 183 203.325, 183 202.500 C 183 201.675, 183.675 201, 184.500 201 C 185.325 201, 186 200.156, 186 199.125 C 186 196.690, 190.160 195.838, 198.032 196.661 C 202.086 197.085, 204 197.720, 204 198.642 C 204 199.405, 205.041 200, 206.375 200 C 210.880 200, 215 201.254, 215 202.625 C 215 203.625, 216.500 204, 220.500 204 C 224.646 204, 226 204.358, 226 205.455 C 226 206.325, 227.405 207.173, 229.500 207.566 C 231.505 207.942, 233 208.816, 233 209.611 C 233 210.614, 234.414 211, 238.094 211 C 242.346 211, 243.274 211.330, 243.710 213 C 244.143 214.656, 245.074 215, 249.117 215 C 252.656 215, 254 215.389, 254 216.412 C 254 217.280, 255.541 218.085, 258 218.500 C 260.459 218.915, 262 219.720, 262 220.588 C 262 221.633, 263.430 222, 267.500 222 C 273.229 222, 273.557 221.680, 272.370 217.250 C 271.895 215.479, 271.047 215, 268.383 215 C 266.169 215, 265 214.522, 265 213.617 C 265 212.101, 262.032 211.035, 257.750 211.014 C 256.055 211.005, 255 210.458, 255 209.588 C 255 208.720, 253.459 207.915, 251 207.500 C 248.541 207.085, 247 206.280, 247 205.412 C 247 204.465, 245.848 204, 243.500 204 C 241.092 204, 240 203.543, 240 202.534 C 240 201.531, 238.424 200.860, 235 200.406 C 232.035 200.012, 230 199.236, 230 198.498 C 230 197.732, 228.028 197.065, 224.865 196.761 C 221.544 196.442, 219.406 195.690, 218.815 194.634 C 218.244 193.614, 216.603 193, 214.450 193 C 212.105 193, 211 192.536, 211 191.552 C 211 190.511, 209.528 190.020, 205.759 189.802 C 201.594 189.562, 200.447 189.120, 200.167 187.650 C 199.542 184.363, 201.016 179, 202.545 179 C 203.345 179, 204 178.100, 204 177 C 204 175.900, 204.655 175, 205.455 175 C 206.325 175, 207.173 173.595, 207.566 171.500 C 207.927 169.575, 208.795 168, 209.495 168 C 210.194 168, 211.002 167.100, 211.290 166 C 211.577 164.900, 212.530 164, 213.406 164 C 214.496 164, 215 163.088, 215 161.117 C 215 159.074, 215.583 158.081, 217 157.710 C 218.100 157.423, 219 156.506, 219 155.673 C 219 154.804, 220.278 153.878, 222 153.500 C 223.650 153.138, 225 152.202, 225 151.421 C 225 150.430, 226.211 150, 229 150 C 232.333 150, 233 149.667, 233 148 C 233 146.142, 232.379 146.010, 224.250 146.136 C 219.438 146.211, 214.488 146.467, 213.250 146.706" stroke="none" fill="black" fill-rule="evenodd"/>
</svg>