<svg xmlns="http://www.w3.org/2000/svg" width="300" height="300" viewBox="0 0 300 300" version="1.1">
	<path d="M 123.290 35 C 123.002 36.100, 122.144 37, 121.383 37 C 120.469 37, 120 38.187, 120 40.500 C 120 43.833, 120.167 44, 123.500 44 C 125.944 44, 127 43.548, 127 42.500 C 127 41.300, 128.500 41, 134.500 41 L 142 41 142 46 C 142 49.778, 142.367 51, 143.500 51 C 144.333 51, 145 51.889, 145 53 C 145 54.100, 144.377 55, 143.617 55 C 142.856 55, 141.998 55.900, 141.710 57 C 141.274 58.670, 140.346 59, 136.094 59 C 131.667 59, 131 58.738, 131 57 C 131 55.386, 130.333 55, 127.550 55 C 125.421 55, 123.755 55.615, 123.201 56.606 C 122.660 57.572, 120.449 58.420, 117.651 58.736 L 113 59.260 113 69.630 C 113 78.181, 113.263 80, 114.500 80 C 115.658 80, 116.002 81.309, 116.009 85.750 C 116.023 95.218, 117.121 102, 118.639 102 C 119.622 102, 120 103.528, 120 107.500 C 120 112.333, 120.242 113, 122 113 C 123.100 113, 124 113.623, 124 114.383 C 124 116.103, 127.077 116.969, 133.250 116.986 C 137.338 116.998, 138 116.721, 138 115 C 138 113.837, 138.667 113, 139.594 113 C 140.470 113, 141.423 112.100, 141.710 111 C 141.998 109.900, 142.856 109, 143.617 109 C 144.377 109, 145 108.325, 145 107.500 C 145 106.417, 146.111 106, 149 106 C 151.889 106, 153 106.417, 153 107.500 C 153 108.325, 153.675 109, 154.500 109 C 155.722 109, 156 110.667, 156 118 C 156 126.333, 155.852 127, 154 127 C 152.667 127, 152 127.667, 152 129 C 152 130.905, 151.333 131, 138 131 C 126.483 131, 124 131.255, 124 132.440 C 124 133.381, 122.704 133.987, 120.258 134.190 C 116.084 134.536, 115.383 135.899, 116.453 141.600 C 117.076 144.923, 117.202 145, 122.045 145 C 125.583 145, 127 144.607, 127 143.625 C 127 142.254, 131.120 141, 135.625 141 C 137.069 141, 138 140.412, 138 139.500 C 138 138.278, 139.667 138, 147 138 L 156 138 156 147 C 156 154.239, 156.287 156, 157.466 156 C 158.466 156, 159.138 157.561, 159.583 160.914 C 160.273 166.113, 161.319 166.956, 167.125 166.986 C 169.269 166.997, 169.864 166.428, 170.375 163.875 C 171.530 158.102, 171.163 156, 169 156 C 167.121 156, 167 155.333, 167 145 C 167 134.667, 167.121 134, 169 134 C 170.111 134, 171 133.333, 171 132.500 C 171 131.318, 172.399 131, 177.594 131 C 183.346 131, 184.254 130.745, 184.710 129 C 185.103 127.497, 186.074 127, 188.617 127 C 190.957 127, 192 126.538, 192 125.500 C 192 124.452, 193.056 124, 195.500 124 C 198.333 124, 199 123.619, 199 122 C 199 120.242, 199.667 120, 204.500 120 C 208.722 120, 210 119.652, 210 118.500 C 210 117.534, 210.978 116.995, 212.750 116.986 C 217.032 116.965, 220 115.899, 220 114.383 C 220 113.436, 221.261 113, 224 113 C 226.813 113, 228 112.573, 228 111.561 C 228 109.744, 234.215 108.759, 243 109.185 L 249.500 109.500 249.158 114.750 L 248.816 120 252.908 120 C 256.891 120, 257 120.090, 257 123.383 C 257 125.926, 256.503 126.897, 255 127.290 C 253.257 127.746, 253 128.654, 253 134.357 C 253 139.550, 253.361 141.102, 254.750 141.878 C 256.257 142.720, 256.546 144.762, 256.831 156.592 C 257.254 174.202, 256.812 176.663, 253.074 177.484 C 250.990 177.941, 250.072 178.844, 249.698 180.801 C 249.005 184.425, 249.533 185, 253.559 185 C 256.333 185, 257 184.613, 257 183 C 257 181.667, 257.667 181, 259 181 C 260.111 181, 261 180.333, 261 179.500 C 261 178.675, 261.675 178, 262.500 178 C 263.583 178, 264 176.889, 264 174 C 264 171.293, 264.440 170, 265.361 170 C 267.183 170, 268.028 162.406, 267.290 152.655 C 266.875 147.164, 266.328 145, 265.356 145 C 264.287 145, 264 142.353, 264 132.500 L 264 120 260.500 120 C 257.167 120, 257 119.833, 257 116.500 C 257 114.056, 257.452 113, 258.500 113 C 259.583 113, 260 111.889, 260 109 C 260 106.111, 259.583 105, 258.500 105 C 257.675 105, 257 104.325, 257 103.500 C 257 102.667, 256.111 102, 255 102 C 253.900 102, 253 101.377, 253 100.617 C 253 98.759, 249.848 98.030, 241.750 98.014 C 235.662 98.001, 235 98.196, 235 100 C 235 101.810, 234.333 102, 228 102 C 222.727 102, 221 102.339, 221 103.375 C 221 104.746, 216.880 106, 212.375 106 C 210.667 106, 210 105.439, 210 104 C 210 102.667, 210.667 102, 212 102 C 213.333 102, 214 101.333, 214 100 C 214 98.889, 214.667 98, 215.500 98 C 216.325 98, 217 97.425, 217 96.722 C 217 96.019, 217.900 94.674, 219 93.732 C 220.100 92.790, 221 91.115, 221 90.010 C 221 88.838, 221.664 88, 222.594 88 C 223.470 88, 224.423 87.100, 224.710 86 C 224.998 84.900, 225.856 84, 226.617 84 C 227.377 84, 228 83.100, 228 82 C 228 80.900, 228.639 80, 229.421 80 C 230.202 80, 231.138 78.650, 231.500 77 C 231.862 75.350, 232.798 74, 233.579 74 C 234.361 74, 235 73.152, 235 72.117 C 235 71.074, 235.893 70, 237 69.710 C 238.532 69.310, 239 68.346, 239 65.594 L 239 62 230 62 C 221.667 62, 221 62.148, 221 64 C 221 65.758, 220.333 66, 215.500 66 C 211.278 66, 210 66.348, 210 67.500 C 210 68.548, 208.944 69, 206.500 69 C 204.056 69, 203 68.548, 203 67.500 C 203 66.675, 203.625 66, 204.389 66 C 205.178 66, 206.055 64.522, 206.420 62.572 C 206.936 59.825, 207.640 59.018, 209.967 58.507 C 212.138 58.030, 213.032 57.130, 213.514 54.935 C 213.869 53.321, 214.798 52, 215.579 52 C 216.361 52, 217 51.100, 217 50 C 217 48.667, 217.667 48, 219 48 C 220.619 48, 221 47.333, 221 44.500 C 221 41.083, 220.905 41, 217 41 C 214.111 41, 213 41.417, 213 42.500 C 213 43.510, 211.990 44, 209.906 44 C 207.654 44, 206.671 44.544, 206.290 46 C 206.002 47.100, 205.144 48, 204.383 48 C 203.469 48, 203 49.187, 203 51.500 C 203 54.333, 202.619 55, 201 55 C 199.381 55, 199 55.667, 199 58.500 C 199 60.944, 198.548 62, 197.500 62 C 196.667 62, 196 62.889, 196 64 C 196 65.333, 195.333 66, 194 66 C 192.381 66, 192 66.667, 192 69.500 C 192 72.333, 191.619 73, 190 73 C 188.190 73, 188 72.333, 188 66 C 188 60.444, 187.690 59, 186.500 59 C 185.667 59, 185 58.111, 185 57 C 185 55.333, 184.333 55, 181 55 C 178.111 55, 177 54.583, 177 53.500 C 177 52.284, 175.389 52, 168.500 52 L 160 52 160 46.500 C 160 41.667, 159.758 41, 158 41 C 156.667 41, 156 40.333, 156 39 C 156 37.381, 155.333 37, 152.500 37 C 150.197 37, 149 36.530, 149 35.625 C 149 33.750, 144.508 33, 133.281 33 C 124.654 33, 123.766 33.178, 123.290 35 M 66 49.500 C 66 50.325, 65.283 51, 64.406 51 C 63.530 51, 62.577 51.900, 62.290 53 C 62.002 54.100, 61.144 55, 60.383 55 C 59.594 55, 59 56.020, 59 57.375 C 59 61.880, 57.746 66, 56.375 66 C 55.470 66, 55 67.197, 55 69.500 C 55 71.820, 54.532 73, 53.611 73 C 52.816 73, 51.942 74.495, 51.566 76.500 C 51.173 78.595, 50.325 80, 49.455 80 C 48.655 80, 48 80.900, 48 82 C 48 83.100, 47.345 84, 46.545 84 C 45.675 84, 44.827 85.405, 44.434 87.500 C 44.058 89.505, 43.184 91, 42.389 91 C 41.625 91, 41 91.900, 41 93 C 41 94.100, 40.345 95, 39.545 95 C 38.675 95, 37.827 96.405, 37.434 98.500 C 37.073 100.425, 36.201 102, 35.497 102 C 33.807 102, 32.856 106.029, 33.630 109.902 C 34.251 113.003, 37 114.316, 37 111.512 C 37 110.549, 38.412 109.798, 41 109.384 C 43.413 108.998, 45 108.200, 45 107.372 C 45 106.617, 45.675 106, 46.500 106 C 47.333 106, 48 105.111, 48 104 C 48 102.381, 48.667 102, 51.500 102 C 53.820 102, 55 101.532, 55 100.611 C 55 99.816, 56.495 98.942, 58.500 98.566 C 60.595 98.173, 62 97.325, 62 96.455 C 62 95.468, 63.089 95, 65.383 95 C 67.926 95, 68.897 94.503, 69.290 93 C 69.603 91.803, 70.654 91, 71.906 91 C 73.101 91, 74 90.356, 74 89.500 C 74 88.452, 75.056 88, 77.500 88 C 80.036 88, 81 88.439, 81 89.594 C 81 90.470, 80.126 91.416, 79.057 91.695 C 77.927 91.991, 76.848 93.416, 76.478 95.102 C 76.128 96.696, 75.202 98, 74.421 98 C 73.639 98, 73 98.900, 73 100 C 73 101.333, 72.333 102, 71 102 C 69.889 102, 69 102.667, 69 103.500 C 69 104.325, 68.325 105, 67.500 105 C 66.667 105, 66 105.889, 66 107 C 66 108.333, 65.333 109, 64 109 C 62.667 109, 62 109.667, 62 111 C 62 112.333, 61.333 113, 60 113 C 58.889 113, 58 113.667, 58 114.500 C 58 115.325, 57.325 116, 56.500 116 C 55.667 116, 55 116.889, 55 118 C 55 119.619, 54.333 120, 51.500 120 C 48.667 120, 48 120.381, 48 122 C 48 123.333, 47.333 124, 46 124 C 44.889 124, 44 124.667, 44 125.500 C 44 126.548, 42.944 127, 40.500 127 C 37.178 127, 37 127.175, 37 130.441 C 37 132.334, 37.482 134.180, 38.071 134.544 C 39.960 135.711, 48 134.007, 48 132.439 C 48 131.459, 49.126 131, 51.531 131 C 53.719 131, 55.278 130.440, 55.628 129.527 C 55.939 128.717, 57.725 127.767, 59.597 127.416 C 61.527 127.054, 63 126.177, 63 125.389 C 63 124.503, 64.121 124, 66.094 124 C 68.346 124, 69.329 123.456, 69.710 122 C 70.103 120.497, 71.074 120, 73.617 120 C 75.957 120, 77 119.538, 77 118.500 C 77 117.367, 78.222 117, 82 117 C 85.778 117, 87 117.367, 87 118.500 C 87 119.538, 88.043 120, 90.383 120 C 92.926 120, 93.897 120.497, 94.290 122 C 94.577 123.100, 95.530 124, 96.406 124 C 97.283 124, 98 124.675, 98 125.500 C 98 126.333, 98.889 127, 100 127 C 101.333 127, 102 127.667, 102 129 C 102 130.758, 101.333 131, 96.500 131 L 91 131 91 136.500 C 91 140.646, 91.358 142, 92.455 142 C 93.325 142, 94.173 143.405, 94.566 145.500 C 94.927 147.425, 95.797 149, 96.500 149 C 97.203 149, 98.073 150.575, 98.434 152.500 C 98.827 154.595, 99.675 156, 100.545 156 C 101.345 156, 102 156.900, 102 158 C 102 159.100, 102.639 160, 103.421 160 C 104.202 160, 105.128 161.304, 105.478 162.898 C 106.137 165.899, 108.135 166.961, 113.171 166.986 C 115.324 166.997, 115.968 166.424, 116.495 164.024 C 117.233 160.661, 116.555 159, 114.441 159 C 113.648 159, 113 158.325, 113 157.500 C 113 156.667, 112.111 156, 111 156 C 109.381 156, 109 155.333, 109 152.500 C 109 150.056, 108.548 149, 107.500 149 C 106.310 149, 106 147.556, 106 142 C 106 136.444, 106.310 135, 107.500 135 C 108.700 135, 109 133.500, 109 127.500 C 109 120.667, 108.822 120, 107 120 C 105.900 120, 105 119.361, 105 118.579 C 105 117.798, 103.679 116.869, 102.065 116.514 C 99.861 116.030, 98.970 115.139, 98.486 112.935 C 98.131 111.321, 97.202 110, 96.421 110 C 95.639 110, 95 109.156, 95 108.125 C 95 106.878, 94.079 106.069, 92.250 105.708 C 88.403 104.950, 84 105.968, 84 107.617 C 84 108.531, 82.813 109, 80.500 109 C 78.056 109, 77 108.548, 77 107.500 C 77 106.675, 77.675 106, 78.500 106 C 79.333 106, 80 105.111, 80 104 C 80 102.667, 80.667 102, 82 102 C 83.333 102, 84 101.333, 84 100 C 84 98.889, 84.667 98, 85.500 98 C 86.325 98, 87 97.283, 87 96.406 C 87 95.530, 87.900 94.577, 89 94.290 C 90.100 94.002, 91 93.144, 91 92.383 C 91 91.623, 91.655 91, 92.455 91 C 93.325 91, 94.173 89.595, 94.566 87.500 C 95.163 84.318, 95.530 84, 98.611 84 C 101.333 84, 102 83.607, 102 82 C 102 80.900, 102.655 80, 103.455 80 C 104.325 80, 105.173 78.595, 105.566 76.500 C 105.942 74.495, 106.816 73, 107.611 73 C 110.328 73, 108.948 70.147, 105.908 69.480 C 101.437 68.498, 94 69.798, 94 71.561 C 94 72.461, 92.969 73.005, 91.250 73.014 C 86.968 73.035, 84 74.101, 84 75.617 C 84 76.531, 82.813 77, 80.500 77 C 78.056 77, 77 77.452, 77 78.500 C 77 79.548, 75.944 80, 73.500 80 C 70.667 80, 70 80.381, 70 82 C 70 83.667, 69.333 84, 66 84 C 62.667 84, 62 84.333, 62 86 C 62 87.333, 61.333 88, 60 88 C 58.889 88, 58 88.667, 58 89.500 C 58 90.325, 57.325 91, 56.500 91 C 55.452 91, 55 89.944, 55 87.500 C 55 84.667, 55.381 84, 57 84 C 58.619 84, 59 83.333, 59 80.500 C 59 78.180, 59.468 77, 60.389 77 C 61.184 77, 62.058 75.505, 62.434 73.500 C 62.827 71.405, 63.675 70, 64.545 70 C 65.345 70, 66 69.100, 66 68 C 66 66.900, 66.623 66, 67.383 66 C 69.241 66, 69.970 62.848, 69.986 54.750 C 69.999 48.662, 69.804 48, 68 48 C 66.889 48, 66 48.667, 66 49.500 M 124 75 C 124 85.889, 124.244 88, 125.500 88 C 126.716 88, 127 89.611, 127 96.500 L 127 105 130.500 105 C 132.944 105, 134 104.548, 134 103.500 C 134 102.667, 134.889 102, 136 102 C 137.100 102, 138 101.381, 138 100.625 C 138 99.254, 142.120 98, 146.625 98 C 148.069 98, 149 97.412, 149 96.500 C 149 95.675, 149.675 95, 150.500 95 C 151.333 95, 152 94.111, 152 93 C 152 91.889, 151.333 91, 150.500 91 C 149.675 91, 149 90.325, 149 89.500 C 149 88.452, 147.944 88, 145.500 88 C 142.964 88, 142 88.439, 142 89.594 C 142 90.470, 141.100 91.423, 140 91.710 C 138.900 91.998, 138 92.856, 138 93.617 C 138 94.531, 136.813 95, 134.500 95 L 131 95 131 89.500 C 131 85.484, 131.373 84, 132.383 84 C 133.144 84, 134.002 83.100, 134.290 82 C 134.690 80.468, 135.654 80, 138.406 80 C 140.934 80, 142 79.555, 142 78.500 C 142 77.452, 143.056 77, 145.500 77 C 149.315 77, 149.725 75.877, 148.375 69.125 C 147.823 66.366, 147.355 66, 144.375 66 C 142.126 66, 141 66.474, 141 67.421 C 141 68.202, 139.650 69.138, 138 69.500 C 136.350 69.862, 135 70.798, 135 71.579 C 135 72.361, 134.115 73, 133.034 73 C 131.435 73, 130.947 72.084, 130.417 68.086 C 129.792 63.372, 128.589 62.084, 124.750 62.014 C 124.338 62.006, 124 67.850, 124 75 M 158.250 62.658 C 155.757 63.191, 155.126 66, 157.500 66 C 158.548 66, 159 67.056, 159 69.500 C 159 71.944, 158.548 73, 157.500 73 C 156.675 73, 156 73.670, 156 74.488 C 156 75.451, 157.412 76.202, 160 76.616 C 162.413 77.002, 164 77.800, 164 78.628 C 164 79.383, 164.675 80, 165.500 80 C 166.555 80, 167 81.066, 167 83.594 C 167 86.346, 166.532 87.310, 165 87.710 C 161.604 88.598, 162.618 91, 166.389 91 C 169.470 91, 169.837 90.682, 170.434 87.500 C 170.827 85.405, 171.675 84, 172.545 84 C 173.345 84, 174 83.100, 174 82 C 174 80.900, 174.647 80, 175.439 80 C 177.978 80, 178.857 65.524, 176.463 63.130 C 175.699 62.366, 161.356 61.995, 158.250 62.658 M 215.750 73.689 C 214.787 73.941, 214 74.789, 214 75.573 C 214 76.537, 212.864 77, 210.500 77 C 207.964 77, 207 77.439, 207 78.594 C 207 79.470, 206.100 80.423, 205 80.710 C 203.900 80.998, 203 81.856, 203 82.617 C 203 83.627, 201.516 84, 197.500 84 C 192.667 84, 192 84.242, 192 86 C 192 87.619, 191.333 88, 188.500 88 C 185.667 88, 185 87.619, 185 86 C 185 84.667, 184.333 84, 183 84 C 181.667 84, 181 84.667, 181 86 C 181 87.111, 180.333 88, 179.500 88 C 178.675 88, 178 88.717, 178 89.594 C 178 90.470, 177.100 91.423, 176 91.710 C 174.900 91.998, 174 92.856, 174 93.617 C 174 94.377, 173.325 95, 172.500 95 C 171.675 95, 171 95.675, 171 96.500 C 171 97.333, 170.111 98, 169 98 C 167.092 98, 167 98.667, 167 112.500 C 167 124.722, 167.236 127, 168.500 127 C 169.325 127, 170 126.381, 170 125.625 C 170 124.254, 174.120 123, 178.625 123 C 180.069 123, 181 122.412, 181 121.500 C 181 120.348, 182.278 120, 186.500 120 L 192 120 192 116.500 C 192 114.180, 192.468 113, 193.389 113 C 194.184 113, 195.058 111.505, 195.434 109.500 C 195.827 107.405, 196.675 106, 197.545 106 C 198.345 106, 199 105.100, 199 104 C 199 102.889, 199.667 102, 200.500 102 C 201.325 102, 202 101.283, 202 100.406 C 202 99.530, 202.858 98.588, 203.906 98.314 C 205.120 97.997, 206.044 96.579, 206.451 94.408 C 206.831 92.386, 207.682 91, 208.545 91 C 209.345 91, 210 90.100, 210 89 C 210 87.900, 210.639 87, 211.421 87 C 212.202 87, 213.131 85.679, 213.486 84.065 C 213.963 81.891, 214.865 80.969, 216.963 80.508 C 219.599 79.929, 220.947 77.832, 220.986 74.250 C 221 73.010, 219.119 72.809, 215.750 73.689 M 226.783 127.683 C 225.769 127.949, 224.802 129.540, 224.421 131.567 C 224.055 133.520, 223.179 135, 222.389 135 C 221.314 135, 221 136.898, 221 143.389 L 221 151.777 217.500 152.434 C 215.405 152.827, 214 153.675, 214 154.545 C 214 155.345, 213.100 156, 212 156 C 210.667 156, 210 155.333, 210 154 C 210 152.900, 209.377 152, 208.617 152 C 207.856 152, 206.998 151.100, 206.710 150 C 206.423 148.900, 205.470 148, 204.594 148 C 203.307 148, 202.997 146.796, 202.986 141.750 C 202.964 131.668, 202.585 131, 196.883 131 L 192 131 192 134.500 C 192 136.944, 191.548 138, 190.500 138 C 189.675 138, 189 138.675, 189 139.500 C 189 140.325, 189.675 141, 190.500 141 C 191.583 141, 192 142.111, 192 145 C 192 147.739, 192.436 149, 193.383 149 C 194.144 149, 195.002 149.900, 195.290 151 C 195.577 152.100, 196.494 153, 197.327 153 C 198.187 153, 199.118 154.261, 199.482 155.916 C 199.834 157.521, 200.770 159.081, 201.561 159.385 C 202.352 159.689, 203 160.626, 203 161.469 C 203 162.698, 204.381 163, 210 163 C 215.556 163, 217 162.690, 217 161.500 C 217 160.675, 217.563 159.994, 218.250 159.986 C 218.938 159.979, 220.466 159.713, 221.647 159.397 C 223.519 158.894, 223.882 159.344, 224.485 162.910 C 225.136 166.763, 225.374 167, 228.588 167 C 230.907 167, 232 166.534, 232 165.545 C 232 164.675, 233.405 163.827, 235.500 163.434 C 238.682 162.837, 239 162.470, 239 159.389 C 239 156.627, 239.383 156, 241.073 156 C 242.508 156, 243.044 155.461, 242.814 154.250 C 242.557 152.897, 241.291 152.431, 237.241 152.198 L 232 151.895 232 142.948 C 232 135.661, 232.278 134, 233.500 134 C 234.548 134, 235 132.944, 235 130.500 C 235 127.194, 234.820 127.006, 231.750 127.116 C 229.963 127.180, 227.727 127.435, 226.783 127.683 M 66 141.500 C 66 147.396, 66.311 149, 67.455 149 C 68.325 149, 69.173 150.405, 69.566 152.500 C 69.927 154.425, 70.797 156, 71.500 156 C 72.203 156, 73.073 157.575, 73.434 159.500 C 73.827 161.595, 74.675 163, 75.545 163 C 76.345 163, 77 163.900, 77 165 C 77 166.730, 77.667 167, 81.941 167 C 84.659 167, 87.147 166.571, 87.472 166.046 C 88.437 164.484, 86.895 160, 85.392 160 C 84.626 160, 84 159.100, 84 158 C 84 156.900, 83.375 156, 82.611 156 C 81.816 156, 80.942 154.505, 80.566 152.500 C 80.205 150.575, 79.312 149, 78.582 149 C 77.716 149, 77.084 147.225, 76.764 143.893 C 76.494 141.085, 75.841 138.497, 75.314 138.143 C 74.786 137.790, 74.064 136.713, 73.708 135.750 C 73.260 134.536, 71.982 134, 69.531 134 L 66 134 66 141.500 M 44.630 144.250 C 44.299 145.488, 44.021 148.637, 44.014 151.250 C 44.002 155.338, 44.279 156, 46 156 C 47.100 156, 48 156.655, 48 157.455 C 48 158.325, 49.405 159.173, 51.500 159.566 C 53.425 159.927, 55 160.672, 55 161.220 C 55 162.670, 59.283 166.962, 60.750 166.983 C 61.438 166.992, 62 167.675, 62 168.500 C 62 169.538, 63.043 170, 65.383 170 C 68.047 170, 68.895 169.521, 69.370 167.750 C 70.376 163.993, 70.090 163, 68 163 C 66.381 163, 66 162.333, 66 159.500 C 66 156.667, 65.619 156, 64 156 C 62.900 156, 62 155.361, 62 154.579 C 62 153.798, 60.696 152.872, 59.102 152.522 C 57.416 152.152, 55.991 151.073, 55.695 149.943 C 55.416 148.874, 54.470 148, 53.594 148 C 52.717 148, 52 147.325, 52 146.500 C 52 145.667, 51.111 145, 50 145 C 48.889 145, 48 144.333, 48 143.500 C 48 141.146, 45.301 141.747, 44.630 144.250 M 113 191.500 C 113 200.167, 113.262 202, 114.500 202 C 115.730 202, 116.002 203.754, 116.009 211.750 C 116.020 224.978, 116.933 232, 118.639 232 C 119.657 232, 120 233.763, 120 239 C 120 244.556, 119.690 246, 118.500 246 C 117.675 246, 117 246.675, 117 247.500 C 117 248.325, 117.675 249, 118.500 249 C 119.451 249, 120 249.957, 120 251.617 C 120 253.842, 120.336 254.143, 122.250 253.630 C 123.487 253.299, 125.063 253.021, 125.750 253.014 C 126.701 253.003, 127.003 248.869, 127.014 235.750 C 127.021 226.262, 127.299 217.488, 127.630 216.250 C 128.151 214.306, 128.898 214, 133.117 214 C 137.333 214, 138 213.727, 138 212 C 138 210.107, 138.667 210, 150.500 210 C 160.944 210, 163 209.753, 163 208.500 C 163 207.236, 165.278 207, 177.500 207 C 189.722 207, 192 207.236, 192 208.500 C 192 209.548, 193.056 210, 195.500 210 C 198.333 210, 199 210.381, 199 212 C 199 213.100, 198.345 214, 197.545 214 C 196.675 214, 195.827 215.405, 195.434 217.500 C 195.058 219.505, 194.184 221, 193.389 221 C 192.625 221, 192 221.900, 192 223 C 192 224.111, 191.333 225, 190.500 225 C 189.675 225, 189 225.675, 189 226.500 C 189 227.333, 188.111 228, 187 228 C 185.667 228, 185 228.667, 185 230 C 185 231.333, 184.333 232, 183 232 C 181.889 232, 181 232.667, 181 233.500 C 181 234.325, 180.325 235, 179.500 235 C 178.667 235, 178 235.889, 178 237 C 178 238.333, 177.333 239, 176 239 C 174.900 239, 174 239.623, 174 240.383 C 174 241.144, 173.100 242.002, 172 242.290 C 170.900 242.577, 170 243.530, 170 244.406 C 170 245.510, 169.078 246, 167 246 C 165.127 246, 164 246.515, 164 247.369 C 164 248.831, 159.106 249.970, 152.750 249.989 C 150.088 249.997, 149 250.435, 149 251.500 C 149 252.544, 147.950 253, 145.550 253 C 143.421 253, 141.755 253.615, 141.201 254.606 C 140.660 255.572, 138.449 256.420, 135.651 256.736 C 132.635 257.076, 131 257.742, 131 258.630 C 131 259.384, 130.100 260, 129 260 C 127.333 260, 127 260.667, 127 264 C 127 267.333, 127.333 268, 129 268 C 130.111 268, 131 268.667, 131 269.500 C 131 270.325, 131.675 271, 132.500 271 C 133.325 271, 134 270.325, 134 269.500 C 134 268.395, 135.153 268, 138.375 268 C 144.741 268, 149 266.948, 149 265.375 C 149 264.392, 150.424 264, 154 264 C 157.644 264, 159 263.616, 159 262.585 C 159 261.554, 161.032 260.980, 166.500 260.468 C 171.878 259.964, 174 259.374, 174 258.383 C 174 257.337, 175.709 257, 181 257 C 186.556 257, 188 257.310, 188 258.500 C 188 259.538, 189.044 260, 191.392 260 C 194.175 260, 194.896 259.552, 195.411 257.500 C 196.550 252.961, 195.138 250.117, 191.398 249.415 C 189.471 249.053, 188 248.176, 188 247.389 C 188 246.512, 186.893 246, 185 246 C 183 246, 182 245.500, 182 244.500 C 182 243.675, 182.675 243, 183.500 243 C 184.333 243, 185 242.111, 185 241 C 185 239.667, 185.667 239, 187 239 C 188.333 239, 189 238.333, 189 237 C 189 235.889, 189.667 235, 190.500 235 C 191.325 235, 192 234.325, 192 233.500 C 192 232.667, 192.889 232, 194 232 C 195.333 232, 196 231.333, 196 230 C 196 228.889, 196.667 228, 197.500 228 C 198.325 228, 199 227.283, 199 226.406 C 199 225.530, 199.900 224.577, 201 224.290 C 202.417 223.919, 203 222.926, 203 220.883 C 203 219.092, 203.525 218, 204.386 218 C 206.061 218, 207.432 210.242, 206.504 206.016 C 206.036 203.887, 205.122 202.966, 203.018 202.504 C 201.450 202.160, 199.907 201.200, 199.589 200.371 C 198.731 198.136, 153.396 198.735, 152.001 201 C 151.270 202.186, 148.240 202.569, 137.538 202.827 L 124 203.155 124 197.202 C 124 189.345, 123.065 185, 121.375 185 C 120.619 185, 120 184.100, 120 183 C 120 181.381, 119.333 181, 116.500 181 L 113 181 113 191.500" stroke="none" fill="black" fill-rule="evenodd"/>
</svg>