<svg xmlns="http://www.w3.org/2000/svg" width="300" height="300" viewBox="0 0 300 300" version="1.1">
	<path d="M 170.290 57 C 170.002 58.100, 169.194 59, 168.495 59 C 167.795 59, 166.927 60.575, 166.566 62.500 C 166.173 64.595, 165.325 66, 164.455 66 C 163.655 66, 163 66.675, 163 67.500 C 163 68.325, 162.325 69, 161.500 69 C 160.644 69, 160 69.899, 160 71.094 C 160 72.346, 159.197 73.397, 158 73.710 C 156.497 74.103, 156 75.074, 156 77.617 C 156 79.873, 155.527 81, 154.579 81 C 153.798 81, 152.862 82.350, 152.500 84 C 152.138 85.650, 151.202 87, 150.421 87 C 149.639 87, 149 87.900, 149 89 C 149 90.333, 148.333 91, 147 91 C 145.667 91, 145 91.667, 145 93 C 145 94.111, 144.333 95, 143.500 95 C 142.675 95, 142 95.625, 142 96.389 C 142 97.175, 140.531 98.053, 138.610 98.413 C 135.057 99.080, 134.041 100.813, 134.014 106.250 L 134 109 155.500 109 C 173.944 109, 177 108.787, 177 107.500 C 177 106.348, 178.278 106, 182.500 106 L 188 106 188 113 C 188 118.556, 187.690 120, 186.500 120 C 185.348 120, 185 121.278, 185 125.500 L 185 131 179.500 131 C 175.278 131, 174 131.348, 174 132.500 C 174 133.740, 172.135 134.002, 163.250 134.009 C 149.072 134.020, 142 134.896, 142 136.639 C 142 137.560, 140.707 138, 138 138 C 134.667 138, 134 137.667, 134 136 C 134 134.889, 133.333 134, 132.500 134 C 131.452 134, 131 132.944, 131 130.500 C 131 127.190, 130.817 127, 127.617 127 C 125.074 127, 124.103 126.503, 123.710 125 C 123.274 123.330, 122.346 123, 118.094 123 C 114.233 123, 113 122.637, 113 121.500 C 113 120.348, 111.722 120, 107.500 120 C 103.278 120, 102 120.348, 102 121.500 C 102 122.627, 100.794 123, 97.147 123 C 87.846 123, 80 124.209, 80 125.642 C 80 126.389, 79.325 127, 78.500 127 C 77.367 127, 77 125.778, 77 122 C 77 118.315, 77.379 117, 78.440 117 C 79.381 117, 79.987 115.703, 80.190 113.250 L 80.500 109.500 85.750 109.198 C 90.183 108.943, 91 108.592, 91 106.948 C 91 105.876, 90.325 105, 89.500 105 C 88.675 105, 88 104.325, 88 103.500 C 88 102.417, 86.889 102, 84 102 C 81.261 102, 80 101.564, 80 100.617 C 80 99.331, 77.160 98.045, 74.250 98.014 C 73.485 98.005, 73 99.359, 73 101.500 C 73 103.820, 72.532 105, 71.611 105 C 70.800 105, 69.927 106.559, 69.511 108.750 C 69.119 110.813, 68.956 133.644, 69.149 159.486 C 69.479 203.600, 69.393 206.493, 67.750 206.810 C 65.328 207.276, 65.541 210, 68 210 C 69.111 210, 70 210.667, 70 211.500 C 70 212.325, 70.675 213, 71.500 213 C 72.325 213, 73 212.325, 73 211.500 C 73 210.247, 75.056 210, 85.500 210 C 95.944 210, 98 209.753, 98 208.500 C 98 207.348, 99.278 207, 103.500 207 C 107.722 207, 109 207.348, 109 208.500 C 109 209.333, 109.889 210, 111 210 C 112.111 210, 113 209.333, 113 208.500 C 113 207.452, 114.056 207, 116.500 207 L 120 207 120 212 C 120 216.333, 120.267 217, 122 217 C 123.111 217, 124 216.333, 124 215.500 C 124 214.675, 124.675 214, 125.500 214 C 126.333 214, 127 213.111, 127 212 C 127 210.381, 127.667 210, 130.500 210 C 133.833 210, 134 209.833, 134 206.500 C 134 204.056, 133.548 203, 132.500 203 C 131.310 203, 131 201.556, 131 196 C 131 190.742, 131.341 189, 132.369 189 C 134.221 189, 134.976 183.742, 134.989 170.750 C 134.998 161.866, 135.260 160, 136.500 160 C 137.333 160, 138 159.111, 138 158 C 138 156.889, 137.333 156, 136.500 156 C 135.667 156, 135 155.111, 135 154 C 135 152.889, 135.667 152, 136.500 152 C 137.487 152, 138 151.013, 138 149.117 C 138 145.797, 139.718 145.035, 147.250 145.014 C 150.799 145.003, 152 144.621, 152 143.500 C 152 142.001, 153.236 141.917, 180.750 141.550 C 184.174 141.504, 184.529 141.757, 184.836 144.451 C 185.062 146.440, 184.575 147.837, 183.341 148.740 C 181.897 149.796, 181.435 151.754, 181.150 158.039 C 180.891 163.739, 180.417 166, 179.482 166 C 178.737 166, 177.885 167.720, 177.500 170 C 177.085 172.459, 176.280 174, 175.412 174 C 174.465 174, 174 175.152, 174 177.500 C 174 179.896, 173.541 181, 172.545 181 C 171.675 181, 170.827 179.595, 170.434 177.500 C 169.837 174.318, 169.470 174, 166.389 174 C 164.170 174, 163 174.478, 163 175.383 C 163 176.144, 162.034 177.019, 160.854 177.328 C 158.892 177.841, 158.763 178.342, 159.345 183.195 C 159.696 186.113, 159.987 193.338, 159.991 199.250 C 159.998 208.135, 160.260 210, 161.500 210 C 162.550 210, 163 211.059, 163 213.531 C 163 215.719, 163.560 217.278, 164.473 217.628 C 165.283 217.939, 166.233 219.725, 166.584 221.597 C 166.935 223.468, 167.795 225, 168.495 225 C 169.911 225, 170.966 228.069, 170.986 232.250 C 170.999 234.794, 170.700 235, 167 235 L 163 235 163 240.500 L 163 246 168.500 246 C 172.545 246, 174 245.630, 174 244.601 C 174 243.604, 176.005 243.002, 181 242.500 C 185.627 242.035, 188 241.366, 188 240.526 C 188 239.727, 189.900 239.072, 193.107 238.764 C 195.915 238.494, 198.599 237.649, 199.070 236.887 C 199.702 235.864, 203.083 235.407, 211.964 235.145 C 220.118 234.904, 224.004 234.420, 224.014 233.645 C 224.021 233.015, 224.299 231.488, 224.630 230.250 C 225.229 228.015, 225.157 228, 214.117 228 C 204.902 228, 203 227.743, 203 226.500 C 203 225.675, 203.717 225, 204.594 225 C 205.470 225, 206.423 224.100, 206.710 223 C 206.998 221.900, 207.856 221, 208.617 221 C 209.377 221, 210 220.325, 210 219.500 C 210 218.675, 210.717 218, 211.594 218 C 212.470 218, 213.423 217.100, 213.710 216 C 213.998 214.900, 214.856 214, 215.617 214 C 216.377 214, 217 213.100, 217 212 C 217 210.667, 217.667 210, 219 210 C 220.333 210, 221 209.333, 221 208 C 221 206.900, 221.655 206, 222.455 206 C 223.325 206, 224.173 204.595, 224.566 202.500 C 224.942 200.495, 225.816 199, 226.611 199 C 227.687 199, 228 197.093, 228 190.545 L 228 182.091 224.500 181.434 C 222.495 181.058, 221 180.184, 221 179.389 C 221 178.307, 219.013 178, 212 178 C 204.667 178, 203 178.278, 203 179.500 C 203 180.722, 201.333 181, 194 181 C 186.830 181, 185 181.293, 185 182.441 C 185 184.489, 183.490 185.161, 180.546 184.422 C 177.827 183.740, 176.990 181, 179.500 181 C 180.548 181, 181 179.944, 181 177.500 C 181 174.667, 181.381 174, 183 174 C 184.619 174, 185 173.333, 185 170.500 C 185 168.056, 185.452 167, 186.500 167 C 187.605 167, 188 165.847, 188 162.625 C 188 156.259, 189.052 152, 190.625 152 C 191.661 152, 192 150.273, 192 145 L 192 138 213.500 138 C 234.333 138, 235 138.062, 235 140 C 235 141.758, 235.667 142, 240.500 142 L 246 142 246 138.545 C 246 135.389, 245.698 135.034, 242.500 134.434 C 240.495 134.058, 239 133.184, 239 132.389 C 239 131.243, 234.885 131, 215.500 131 L 192 131 192 127 C 192 124.111, 192.417 123, 193.500 123 C 194.524 123, 195.003 121.968, 195.009 119.750 C 195.028 112.574, 196.286 106, 197.639 106 C 198.388 106, 199 105.100, 199 104 C 199 102.190, 199.667 102, 206 102 C 211.556 102, 213 101.690, 213 100.500 C 213 99.667, 213.889 99, 215 99 C 216.111 99, 217 99.667, 217 100.500 C 217 101.333, 217.889 102, 219 102 C 220.758 102, 221 102.667, 221 107.500 C 221 112.333, 221.242 113, 223 113 C 224.111 113, 225 112.333, 225 111.500 C 225 110.675, 225.675 110, 226.500 110 C 227.583 110, 228 108.889, 228 106 C 228 103.111, 228.417 102, 229.500 102 C 230.325 102, 231 101.325, 231 100.500 C 231 99.675, 230.325 99, 229.500 99 C 228.567 99, 228 98.056, 228 96.500 C 228 95.030, 227.426 94, 226.607 94 C 225.841 94, 224.955 93.325, 224.638 92.500 C 224.169 91.277, 221.748 91, 211.531 91 L 199 91 199 84.222 C 199 78.682, 199.365 77.132, 201 75.732 C 202.383 74.548, 203 72.782, 203 70.010 C 203 66.667, 202.667 66, 201 66 C 199.667 66, 199 65.333, 199 64 C 199 62.381, 198.333 62, 195.500 62 C 192.667 62, 192 62.381, 192 64 C 192 65.111, 191.333 66, 190.500 66 C 189.255 66, 189 67.929, 189 77.360 C 189 83.609, 188.714 90.809, 188.364 93.360 L 187.728 98 179.989 98 C 170.426 98, 166 98.831, 166 100.625 C 166 101.661, 164.273 102, 159 102 L 152 102 152 98.500 C 152 95.667, 152.381 95, 154 95 C 155.333 95, 156 94.333, 156 93 C 156 91.900, 156.655 91, 157.455 91 C 158.325 91, 159.173 89.595, 159.566 87.500 C 159.942 85.495, 160.816 84, 161.611 84 C 162.532 84, 163 82.820, 163 80.500 C 163 77.667, 163.381 77, 165 77 C 166.333 77, 167 76.333, 167 75 C 167 73.889, 167.667 73, 168.500 73 C 169.325 73, 170 72.377, 170 71.617 C 170 69.968, 174.403 68.950, 178.250 69.708 C 180.893 70.229, 181 70.090, 181 66.125 C 181 63.125, 180.591 62, 179.500 62 C 178.452 62, 178 60.944, 178 58.500 C 178 55.149, 177.847 55, 174.406 55 C 171.654 55, 170.690 55.468, 170.290 57 M 84 85.371 C 84 86.379, 81.615 86.929, 75 87.446 C 68.207 87.978, 66 88.500, 66 89.575 C 66 90.359, 65.100 91, 64 91 C 62.900 91, 62 91.655, 62 92.455 C 62 93.325, 60.595 94.173, 58.500 94.566 C 55.014 95.220, 55 95.245, 55 100.611 L 55 106 58.500 106 C 61.333 106, 62 105.619, 62 104 C 62 102.667, 62.667 102, 64 102 C 65.100 102, 66 101.345, 66 100.545 C 66 99.675, 67.405 98.827, 69.500 98.434 C 71.425 98.073, 73 97.199, 73 96.491 C 73 95.571, 75.429 95.105, 81.537 94.853 C 87.759 94.596, 90.324 94.093, 90.998 93 C 91.733 91.809, 94.814 91.433, 105.962 91.174 L 120 90.849 120 96.424 L 120 102 123.500 102 L 127 102 127 94.500 C 127 88.500, 126.700 87, 125.500 87 C 124.675 87, 124 86.325, 124 85.500 C 124 84.217, 121.111 84, 104 84 C 87.725 84, 84 84.255, 84 85.371 M 91 132.500 C 91 133.548, 89.944 134, 87.500 134 L 84 134 84 139.500 L 84 145 80.500 145 L 77 145 77 170 C 77 191.556, 77.207 195, 78.500 195 C 79.325 195, 80 194.325, 80 193.500 C 80 192.667, 80.889 192, 82 192 C 83.619 192, 84 192.667, 84 195.500 L 84 199 104 199 L 124 199 124 192 C 124 186.444, 124.310 185, 125.500 185 C 126.764 185, 127 182.722, 127 170.500 L 127 156 123.500 156 L 120 156 120 165 L 120 174 116.500 174 C 113.167 174, 113 173.833, 113 170.500 C 113 168.056, 113.452 167, 114.500 167 C 115.583 167, 116 165.889, 116 163 C 116 160.111, 115.583 159, 114.500 159 C 113.675 159, 113 158.325, 113 157.500 C 113 156.348, 111.722 156, 107.500 156 C 103.484 156, 102 156.373, 102 157.383 C 102 158.144, 101.100 159.002, 100 159.290 C 98.803 159.603, 98 160.654, 98 161.906 C 98 163.101, 97.356 164, 96.500 164 C 95.367 164, 95 165.222, 95 169 C 95 173.333, 94.733 174, 93 174 C 91.381 174, 91 173.333, 91 170.500 C 91 168.056, 90.548 167, 89.500 167 C 88.348 167, 88 165.722, 88 161.500 C 88 156.667, 88.242 156, 90 156 C 91.100 156, 92 155.345, 92 154.545 C 92 153.675, 93.405 152.827, 95.500 152.434 C 97.505 152.058, 99 151.184, 99 150.389 C 99 149.346, 100.625 149, 105.531 149 C 110.361 149, 112.210 148.616, 112.628 147.527 C 112.939 146.717, 114.725 145.767, 116.597 145.416 C 118.527 145.054, 120 144.177, 120 143.389 C 120 142.625, 120.648 142, 121.441 142 C 125.486 142, 124.141 135.410, 119.906 134.479 C 118.308 134.128, 117 133.202, 117 132.421 C 117 131.266, 114.566 131, 104 131 C 93.111 131, 91 131.244, 91 132.500 M 195.750 188.728 C 193.335 188.981, 192 189.633, 192 190.560 C 192 191.639, 190.620 192, 186.500 192 C 182.354 192, 181 192.358, 181 193.455 C 181 194.325, 179.595 195.173, 177.500 195.566 L 174 196.223 174 203.111 C 174 208.310, 174.339 210, 175.383 210 C 177.103 210, 177.969 213.077, 177.986 219.250 C 177.997 222.799, 178.379 224, 179.500 224 C 180.548 224, 181 225.056, 181 227.500 C 181 230.333, 181.381 231, 183 231 C 184.111 231, 185 230.333, 185 229.500 C 185 228.452, 186.056 228, 188.500 228 C 191.333 228, 192 227.619, 192 226 C 192 224.667, 192.667 224, 194 224 C 195.111 224, 196 223.333, 196 222.500 C 196 221.675, 196.575 221, 197.278 221 C 197.981 221, 199.326 220.100, 200.268 219 C 201.210 217.900, 202.835 217, 203.879 217 C 205.257 217, 205.957 216.040, 206.434 213.500 C 206.827 211.405, 207.675 210, 208.545 210 C 209.345 210, 210 209.325, 210 208.500 C 210 207.675, 210.675 207, 211.500 207 C 212.356 207, 213 206.101, 213 204.906 C 213 203.654, 213.803 202.603, 215 202.290 C 216.503 201.897, 217 200.926, 217 198.383 C 217 196.043, 217.462 195, 218.500 195 C 219.487 195, 220 194.013, 220 192.117 C 220 189.972, 219.424 189.079, 217.750 188.630 C 215.391 187.998, 202.168 188.057, 195.750 188.728" stroke="none" fill="black" fill-rule="evenodd"/>
</svg>