<svg xmlns="http://www.w3.org/2000/svg" width="300" height="300" viewBox="0 0 300 300" version="1.1">
	<path d="M 185 54.500 C 185 55.706, 183.458 56, 177.125 56 C 167.432 56, 163 56.824, 163 58.625 C 163 59.734, 159.909 60, 147 60 C 133.444 60, 131 60.229, 131 61.500 C 131 63.018, 130.730 63.042, 107.500 63.553 C 99.006 63.740, 98 63.946, 98 65.500 C 98 66.325, 97.381 67, 96.625 67 C 95.003 67, 93.568 72.968, 94.876 74.276 C 96.294 75.694, 116 74.013, 116 72.474 C 116 71.536, 119.263 71.114, 128.537 70.853 C 136.293 70.635, 141.346 70.075, 141.787 69.385 C 142.860 67.707, 146.507 66.838, 149.415 67.568 C 152.162 68.258, 153.029 71, 150.500 71 C 149.675 71, 149 71.623, 149 72.383 C 149 73.144, 148.100 74.002, 147 74.290 C 145.900 74.577, 145 75.530, 145 76.406 C 145 77.333, 144.163 78, 143 78 C 141.667 78, 141 78.667, 141 80 C 141 81.111, 140.333 82, 139.500 82 C 138.675 82, 138 82.675, 138 83.500 C 138 84.325, 137.345 85, 136.545 85 C 135.675 85, 134.827 86.405, 134.434 88.500 C 134.058 90.505, 133.184 92, 132.389 92 C 131.625 92, 131 92.900, 131 94 C 131 95.333, 130.333 96, 129 96 C 127.667 96, 127 96.667, 127 98 C 127 99.111, 126.333 100, 125.500 100 C 124.675 100, 124 100.675, 124 101.500 C 124 102.333, 123.111 103, 122 103 C 120.667 103, 120 103.667, 120 105 C 120 106.111, 119.333 107, 118.500 107 C 117.675 107, 117 107.675, 117 108.500 C 117 109.333, 116.111 110, 115 110 C 113.667 110, 113 110.667, 113 112 C 113 113.333, 112.333 114, 111 114 C 109.667 114, 109 114.667, 109 116 C 109 117.100, 108.377 118, 107.617 118 C 106.856 118, 105.998 118.900, 105.710 120 C 105.423 121.100, 104.470 122, 103.594 122 C 102.490 122, 102 122.922, 102 125 C 102 127.333, 101.556 128, 100 128 C 98.667 128, 98 128.667, 98 130 C 98 131.111, 97.333 132, 96.500 132 C 95.675 132, 95 132.675, 95 133.500 C 95 134.333, 94.111 135, 93 135 C 91.667 135, 91 135.667, 91 137 C 91 138.333, 90.333 139, 89 139 C 87.889 139, 87 139.667, 87 140.500 C 87 141.325, 86.325 142, 85.500 142 C 84.348 142, 84 143.278, 84 147.500 C 84 151.722, 84.348 153, 85.500 153 C 86.325 153, 87 152.325, 87 151.500 C 87 150.675, 87.850 150, 88.889 150 C 90.255 150, 90.959 149.033, 91.434 146.500 C 91.827 144.405, 92.675 143, 93.545 143 C 94.345 143, 95 142.374, 95 141.608 C 95 139.908, 99.149 138.748, 102.352 139.552 C 104.582 140.112, 104.739 140.694, 105.352 150.727 C 105.709 156.548, 106 165.291, 106 170.156 C 106 177.351, 106.280 179, 107.500 179 C 108.762 179, 109 181.217, 109 192.950 C 109 205.028, 109.228 207.028, 110.696 207.850 C 111.945 208.549, 112.503 210.538, 112.813 215.400 L 113.233 222 118.055 222 L 122.877 222 123.542 217.571 C 124.261 212.775, 123.694 211, 121.441 211 C 120.299 211, 120 209.234, 120 202.500 C 120 196.008, 119.679 194, 118.642 194 C 116.957 194, 116 185.801, 116 171.353 C 116 162.817, 115.737 161, 114.500 161 C 113.236 161, 113 158.722, 113 146.500 C 113 134.278, 113.236 132, 114.500 132 C 115.583 132, 116 130.889, 116 128 C 116 125.111, 115.583 124, 114.500 124 C 112.302 124, 112.669 122.320, 115 121.710 C 116.100 121.423, 117 120.470, 117 119.594 C 117 118.717, 117.675 118, 118.500 118 C 119.333 118, 120 117.111, 120 116 C 120 114.667, 120.667 114, 122 114 C 123.111 114, 124 113.333, 124 112.500 C 124 111.675, 124.675 111, 125.500 111 C 126.333 111, 127 110.111, 127 109 C 127 107.667, 127.667 107, 129 107 C 130.333 107, 131 106.333, 131 105 C 131 103.900, 131.623 103, 132.383 103 C 133.144 103, 134.002 102.100, 134.290 101 C 134.577 99.900, 135.530 99, 136.406 99 C 137.283 99, 138 98.325, 138 97.500 C 138 96.667, 138.889 96, 140 96 C 141.333 96, 142 95.333, 142 94 C 142 92.889, 142.667 92, 143.500 92 C 144.325 92, 145 91.425, 145 90.722 C 145 90.019, 145.900 88.674, 147 87.732 C 148.100 86.790, 149 85.168, 149 84.126 C 149 83.074, 149.888 82.001, 151 81.710 C 152.100 81.423, 153 80.470, 153 79.594 C 153 78.717, 153.675 78, 154.500 78 C 155.333 78, 156 77.111, 156 76 C 156 74.667, 156.667 74, 158 74 C 159.111 74, 160 73.333, 160 72.500 C 160 71.379, 161.201 70.997, 164.750 70.986 C 167.363 70.979, 170.512 70.701, 171.750 70.370 C 173.532 69.892, 174 70.181, 174 71.758 C 174 73.197, 174.885 73.927, 177.188 74.388 C 178.941 74.738, 180.746 74.654, 181.200 74.200 C 182.451 72.949, 180.944 67, 179.375 67 C 178.619 67, 178 66.377, 178 65.616 C 178 64.626, 179.777 64.126, 184.250 63.855 C 194.457 63.239, 202 63.977, 202 65.593 C 202 66.367, 201.550 67, 201 67 C 200.450 67, 200 68.526, 200 70.392 C 200 73.192, 200.444 73.895, 202.546 74.422 C 205.490 75.161, 207 74.489, 207 72.441 C 207 71.648, 207.675 71, 208.500 71 C 209.652 71, 210 69.722, 210 65.500 C 210 60.667, 209.758 60, 208 60 C 206.667 60, 206 59.333, 206 58 C 206 56.148, 205.333 56, 197 56 C 189.667 56, 188 55.722, 188 54.500 C 188 53.675, 187.325 53, 186.500 53 C 185.675 53, 185 53.675, 185 54.500 M 159 126.500 C 159 127.751, 156.968 128.001, 146.750 128.009 C 131.140 128.020, 124 128.845, 124 130.639 C 124 131.388, 123.100 132, 122 132 C 120.667 132, 120 132.667, 120 134 C 120 135.111, 119.333 136, 118.500 136 C 117.675 136, 117 136.675, 117 137.500 C 117 138.325, 117.675 139, 118.500 139 C 119.333 139, 120 139.889, 120 141 C 120 142.619, 120.667 143, 123.500 143 C 126.333 143, 127 142.619, 127 141 C 127 139.242, 127.667 139, 132.500 139 C 136.722 139, 138 138.652, 138 137.500 C 138 136.237, 140.254 135.999, 152.250 135.991 C 169.778 135.981, 177 135.213, 177 133.361 C 177 132.314, 179.076 132, 186 132 C 192.970 132, 195 132.310, 195 133.375 C 195 134.734, 199.112 136, 203.524 136 C 205.605 136, 205.856 136.592, 206.500 143 C 207.002 147.995, 207.604 150, 208.601 150 C 209.533 150, 210 151.168, 210 153.500 C 210 155.785, 209.528 157, 208.639 157 C 206.953 157, 206.021 163.996, 206.009 176.750 C 206.002 184.302, 205.725 186, 204.500 186 C 203.278 186, 203 187.667, 203 195 C 203 201.996, 202.692 204, 201.617 204 C 199.759 204, 199.030 207.152, 199.014 215.250 C 199.003 220.577, 198.684 222, 197.500 222 C 196.675 222, 196 222.675, 196 223.500 C 196 224.700, 194.500 225, 188.500 225 C 182.500 225, 181 224.700, 181 223.500 C 181 222.667, 180.111 222, 179 222 C 177.889 222, 177 222.667, 177 223.500 C 177 224.673, 175.636 225.001, 170.750 225.006 C 158.327 225.018, 148 226.217, 148 227.648 C 148 228.698, 145.655 229, 137.500 229 C 129.227 229, 127 229.293, 127 230.383 C 127 231.959, 124 232.966, 119.250 232.986 C 117.115 232.995, 116 233.487, 116 234.421 C 116 235.202, 114.650 236.138, 113 236.500 C 110.534 237.042, 110 237.659, 110 239.972 C 110 243.573, 111.238 244, 121.675 244 C 129.346 244, 130.239 243.802, 130.710 242 C 131.141 240.353, 132.074 240, 136 240 C 139.926 240, 140.859 239.647, 141.290 238 C 141.764 236.185, 142.654 236, 150.906 236 C 158.323 236, 160 235.723, 160 234.500 C 160 233.224, 162.611 233, 177.500 233 C 192.389 233, 195 233.224, 195 234.500 C 195 235.548, 196.056 236, 198.500 236 C 200.944 236, 202 235.548, 202 234.500 C 202 233.667, 202.889 233, 204 233 C 205.333 233, 206 232.333, 206 231 C 206 229.889, 205.333 229, 204.500 229 C 203.675 229, 203 228.325, 203 227.500 C 203 226.675, 203.675 226, 204.500 226 C 205.412 226, 206 225.069, 206 223.625 C 206 219.120, 207.254 215, 208.625 215 C 209.703 215, 210 212.760, 210 204.617 C 210 195.074, 210.162 194.191, 212 193.710 C 213.815 193.236, 214 192.346, 214 184.094 C 214 176.677, 214.277 175, 215.500 175 C 216.782 175, 217 172.167, 217 155.500 C 217 139.528, 216.749 136, 215.611 136 C 214.825 136, 213.947 134.531, 213.587 132.610 C 212.920 129.057, 211.187 128.041, 205.750 128.014 C 203.978 128.005, 203 127.466, 203 126.500 C 203 125.212, 199.889 125, 181 125 C 162.111 125, 159 125.212, 159 126.500 M 163 173.500 C 163 174.753, 160.944 175, 150.500 175 C 140.524 175, 138 175.279, 138 176.383 C 138 177.144, 137.100 178.002, 136 178.290 C 134.468 178.690, 134 179.654, 134 182.406 L 134 186 148.500 186 C 160.175 186, 163 185.731, 163 184.617 C 163 183.626, 165.119 183.036, 170.481 182.534 C 180.130 181.630, 183.630 182.389, 184.425 185.559 C 185.249 188.839, 184.111 193, 182.392 193 C 181.626 193, 181 193.900, 181 195 C 181 196.619, 181.667 197, 184.500 197 C 187.333 197, 188 196.619, 188 195 C 188 193.667, 188.667 193, 190 193 C 191.810 193, 192 192.333, 192 186 C 192 179.667, 191.810 179, 190 179 C 188.667 179, 188 178.333, 188 177 C 188 175.267, 187.333 175, 183 175 C 179.222 175, 178 174.633, 178 173.500 C 178 172.300, 176.500 172, 170.500 172 C 164.500 172, 163 172.300, 163 173.500" stroke="none" fill="black" fill-rule="evenodd"/>
</svg>