<svg xmlns="http://www.w3.org/2000/svg" width="300" height="300" viewBox="0 0 300 300" version="1.1">
	<path d="M 171.625 34.125 C 171.281 35.844, 171 38.319, 171 39.625 C 171 41.069, 170.412 42, 169.500 42 C 168.236 42, 168 44.278, 168 56.500 C 168 68.722, 168.236 71, 169.500 71 C 170.738 71, 171 72.833, 171 81.500 L 171 92 175 92 L 179 92 179 69.111 L 179 46.223 182.500 45.566 C 184.595 45.173, 186 44.325, 186 43.455 C 186 42.290, 187.791 42, 195 42 C 202.333 42, 204 42.278, 204 43.500 C 204 44.325, 204.619 45, 205.375 45 C 207.307 45, 208.133 50.244, 207.372 57.675 C 206.926 62.028, 206.299 64, 205.362 64 C 204.314 64, 204 66.072, 204 73 L 204 82 220 82 C 233.556 82, 236 82.229, 236 83.500 C 236 84.333, 236.889 85, 238 85 C 239.758 85, 240 84.333, 240 79.500 L 240 74 236.500 74 C 234.056 74, 233 73.548, 233 72.500 C 233 71.278, 231.333 71, 224 71 L 215 71 215 62 C 215 54.667, 215.278 53, 216.500 53 C 217.333 53, 218 52.111, 218 51 C 218 49.889, 217.333 49, 216.500 49 C 215.348 49, 215 47.722, 215 43.500 C 215 38.667, 214.758 38, 213 38 C 211.889 38, 211 37.333, 211 36.500 C 211 35.675, 210.347 35, 209.550 35 C 208.752 35, 207.664 34.223, 207.133 33.273 C 205.978 31.210, 197.900 30.801, 197.242 32.773 C 196.657 34.529, 193 34.294, 193 32.500 C 193 31.452, 191.944 31, 189.500 31 C 186.667 31, 186 31.381, 186 33 C 186 34.619, 185.333 35, 182.500 35 C 179.667 35, 179 34.619, 179 33 C 179 31.395, 178.333 31, 175.625 31 C 172.645 31, 172.177 31.366, 171.625 34.125 M 74.250 45.732 C 71.391 45.990, 70 46.587, 70 47.557 C 70 48.622, 68.689 49, 65 49 L 60 49 60 56.500 C 60 63.378, 60.169 64, 62.036 64 C 63.992 64, 64.069 64.558, 63.997 78.250 C 63.866 103.310, 62.891 118, 61.359 118 C 60.612 118, 60 118.633, 60 119.406 C 60 120.499, 57.753 120.889, 49.928 121.156 C 41.604 121.440, 39.687 121.804, 38.879 123.250 C 38.237 124.397, 36.695 125, 34.398 125 L 30.895 125 31.198 130.250 L 31.500 135.500 36.750 135.802 C 41.476 136.074, 42 135.900, 42 134.052 C 42 132.178, 42.607 132, 49 132 C 54.556 132, 56 131.690, 56 130.500 C 56 129.452, 57.056 129, 59.500 129 L 63 129 63 134.500 C 63 138.722, 62.652 140, 61.500 140 C 60.367 140, 60 141.222, 60 145 C 60 148.590, 59.610 150, 58.617 150 C 57.041 150, 56.034 153, 56.014 157.750 C 56.003 160.338, 56.407 161, 58 161 C 59.100 161, 60 160.377, 60 159.617 C 60 158.856, 60.900 157.998, 62 157.710 C 63.532 157.310, 64 156.346, 64 153.594 C 64 151.194, 64.461 150, 65.389 150 C 66.184 150, 67.058 148.505, 67.434 146.500 C 67.827 144.405, 68.675 143, 69.545 143 C 70.541 143, 71 141.896, 71 139.500 C 71 137.180, 71.468 136, 72.389 136 C 73.174 136, 74.052 134.534, 74.410 132.626 C 75.006 129.452, 75.338 129.213, 80.022 128.592 C 83.428 128.140, 85 127.468, 85 126.466 C 85 125.356, 86.335 125, 90.500 125 L 96 125 96 128.500 C 96 131.833, 96.167 132, 99.500 132 C 102.750 132, 103 131.777, 103 128.891 C 103 125.705, 106.400 121.050, 108.750 121.017 C 109.438 121.008, 110 120.325, 110 119.500 C 110 118.279, 111.655 118, 118.899 118 L 127.797 118 128.500 125 C 129.002 129.995, 129.604 132, 130.601 132 C 131.566 132, 132 133.240, 132 136 C 132 138.889, 131.583 140, 130.500 140 C 129.675 140, 129 140.450, 129 141 C 129 141.550, 129.675 142, 130.500 142 C 131.756 142, 132 144.111, 132 155 L 132 168 128.500 168 C 125.964 168, 125 167.561, 125 166.406 C 125 165.530, 124.100 164.577, 123 164.290 C 121.900 164.002, 121 163.144, 121 162.383 C 121 161.623, 120.325 161, 119.500 161 C 118.667 161, 118 160.111, 118 159 C 118 157.667, 117.333 157, 116 157 C 114.889 157, 114 156.333, 114 155.500 C 114 154.675, 113.325 154, 112.500 154 C 111.500 154, 111 155, 111 157 C 111 159, 111.500 160, 112.500 160 C 113.433 160, 114 160.944, 114 162.500 C 114 163.993, 114.572 165, 115.421 165 C 116.202 165, 117.138 166.350, 117.500 168 C 117.862 169.650, 118.798 171, 119.579 171 C 120.361 171, 121 171.900, 121 173 C 121 174.606, 121.667 175, 124.383 175 C 126.926 175, 127.897 175.497, 128.290 177 C 128.577 178.100, 129.530 179, 130.406 179 C 131.333 179, 132 178.163, 132 177 C 132 175.381, 132.667 175, 135.500 175 C 137.813 175, 139 174.531, 139 173.617 C 139 172.856, 139.900 171.998, 141 171.710 C 142.763 171.249, 143 170.346, 143 164.094 C 143 158.645, 142.672 157, 141.585 157 C 139.707 157, 138.773 146.487, 139.187 130 L 139.500 117.500 142.750 117.187 C 144.763 116.993, 146 116.327, 146 115.437 C 146 114.646, 146.900 114, 148 114 C 149.111 114, 150 113.333, 150 112.500 C 150 111.452, 151.056 111, 153.500 111 C 156.333 111, 157 110.619, 157 109 C 157 107.667, 157.667 107, 159 107 C 160.619 107, 161 106.333, 161 103.500 C 161 101.119, 161.461 100, 162.441 100 C 164.489 100, 165.161 98.490, 164.422 95.546 C 163.895 93.444, 163.192 93, 160.392 93 C 158.044 93, 157 93.462, 157 94.500 C 157 95.652, 155.722 96, 151.500 96 C 147.354 96, 146 96.358, 146 97.455 C 146 98.325, 144.595 99.173, 142.500 99.566 C 140.495 99.942, 139 100.816, 139 101.611 C 139 102.375, 138.325 103, 137.500 103 C 136.273 103, 136 101.292, 136 93.625 C 136 82.489, 135.246 78, 133.375 78 C 132.619 78, 132 77.100, 132 76 C 132 74.889, 131.333 74, 130.500 74 C 129.675 74, 129 73.325, 129 72.500 C 129 71.675, 128.152 71, 127.117 71 C 126.075 71, 125 70.107, 124.711 69.003 C 124.236 67.186, 123.425 67.023, 115.662 67.190 C 108.360 67.347, 107.068 67.634, 106.661 69.187 C 106.260 70.723, 105.103 71, 99.094 71 C 93.455 71, 92 71.308, 92 72.500 C 92 73.466, 91.022 74.005, 89.250 74.014 C 84.968 74.035, 82 75.101, 82 76.617 C 82 77.531, 80.813 78, 78.500 78 C 75.667 78, 75 77.619, 75 76 C 75 74.889, 75.667 74, 76.500 74 C 77.487 74, 78 73.013, 78 71.117 C 78 69.074, 78.583 68.081, 80 67.710 C 83.290 66.850, 82.364 64.291, 78.500 63.566 C 76.405 63.173, 75 62.325, 75 61.455 C 75 60.655, 74.100 60, 73 60 C 71.900 60, 71 59.377, 71 58.617 C 71 57.041, 74 56.034, 78.750 56.014 C 80.966 56.004, 82 55.523, 82 54.500 C 82 53.278, 83.667 53, 91 53 C 98.333 53, 100 53.278, 100 54.500 C 100 55.325, 100.675 56, 101.500 56 C 102.652 56, 103 57.278, 103 61.500 C 103 66.333, 103.242 67, 105 67 C 106.333 67, 107 66.333, 107 65 C 107 63.900, 107.639 63, 108.421 63 C 109.202 63, 110.140 61.640, 110.505 59.978 C 111.437 55.735, 110.153 49, 108.412 49 C 107.635 49, 107 48.381, 107 47.625 C 107 46.869, 105.594 45.969, 103.875 45.625 C 100.663 44.983, 81.816 45.051, 74.250 45.732 M 99 79.383 C 99 80.959, 96 81.966, 91.250 81.986 C 89.034 81.996, 88 82.477, 88 83.500 C 88 84.487, 87.012 85, 85.111 85 C 82.602 85, 82.136 85.459, 81.566 88.500 C 81.173 90.595, 80.325 92, 79.455 92 C 78.655 92, 78 92.900, 78 94 C 78 95.111, 77.333 96, 76.500 96 C 75.675 96, 75 96.675, 75 97.500 C 75 98.325, 75.675 99, 76.500 99 C 77.722 99, 78 100.667, 78 108 L 78 117 83.500 117 C 87.722 117, 89 116.652, 89 115.500 C 89 114.667, 89.889 114, 91 114 C 92.163 114, 93 113.333, 93 112.406 C 93 111.530, 92.100 110.577, 91 110.290 C 89.244 109.831, 89 108.926, 89 102.883 L 89 96 92.500 96 C 95.333 96, 96 96.381, 96 98 C 96 99.333, 96.667 100, 98 100 C 99.538 100, 100 100.667, 100 102.883 C 100 104.926, 100.583 105.919, 102 106.290 C 103.100 106.577, 104 107.530, 104 108.406 C 104 109.652, 105.092 110, 109 110 C 112.778 110, 114 109.633, 114 108.500 C 114 107.363, 115.233 107, 119.094 107 C 123.346 107, 124.274 106.670, 124.710 105 C 124.998 103.900, 125.856 103, 126.617 103 C 127.531 103, 128 101.813, 128 99.500 C 128 97.056, 127.548 96, 126.500 96 C 125.472 96, 125 94.969, 125 92.722 C 125 90.682, 124.245 88.798, 123 87.732 C 121.900 86.790, 121 85.115, 121 84.010 C 121 82.890, 120.336 82, 119.500 82 C 118.667 82, 118 81.111, 118 80 C 118 78.140, 117.333 78, 108.500 78 C 101.078 78, 99 78.303, 99 79.383 M 207 97.500 C 207 98.575, 205.903 99, 203.125 99 C 197.228 99, 193 100.096, 193 101.625 C 193 102.530, 191.803 103, 189.500 103 C 186.667 103, 186 103.381, 186 105 C 186 106.619, 185.333 107, 182.500 107 C 180.180 107, 179 107.468, 179 108.389 C 179 109.184, 177.505 110.058, 175.500 110.434 C 173.405 110.827, 172 111.675, 172 112.545 C 172 113.541, 170.896 114, 168.500 114 C 165.964 114, 165 114.439, 165 115.594 C 165 116.470, 164.100 117.423, 163 117.710 C 161.900 117.998, 161 118.856, 161 119.617 C 161 120.377, 160.100 121, 159 121 C 157.667 121, 157 121.667, 157 123 C 157 124.333, 156.333 125, 155 125 C 153.889 125, 153 125.667, 153 126.500 C 153 127.325, 152.325 128, 151.500 128 C 150.348 128, 150 129.278, 150 133.500 L 150 139 156.883 139 C 162.926 139, 163.831 139.244, 164.290 141 C 164.690 142.532, 165.654 143, 168.406 143 C 170.806 143, 172 143.461, 172 144.389 C 172 145.184, 173.495 146.058, 175.500 146.434 C 177.595 146.827, 179 147.675, 179 148.545 C 179 149.345, 179.900 150, 181 150 C 182.163 150, 183 150.667, 183 151.594 C 183 152.470, 182.100 153.423, 181 153.710 C 179.900 153.998, 179 154.803, 179 155.500 C 179 156.197, 178.100 157.002, 177 157.290 C 175.900 157.577, 175 158.530, 175 159.406 C 175 160.283, 174.377 161, 173.617 161 C 172.856 161, 171.998 161.900, 171.710 163 C 171.423 164.100, 170.470 165, 169.594 165 C 168.717 165, 168 165.675, 168 166.500 C 168 167.333, 167.111 168, 166 168 C 164.889 168, 164 168.667, 164 169.500 C 164 170.325, 163.381 171, 162.625 171 C 161.869 171, 160.969 172.406, 160.625 174.125 C 159.696 178.771, 159.784 179, 162.500 179 C 164.056 179, 165 178.433, 165 177.500 C 165 176.675, 165.675 176, 166.500 176 C 167.333 176, 168 175.111, 168 174 C 168 172.381, 168.667 172, 171.500 172 C 174.333 172, 175 171.619, 175 170 C 175 168.667, 175.667 168, 177 168 C 178.111 168, 179 167.333, 179 166.500 C 179 165.675, 179.717 165, 180.594 165 C 181.470 165, 182.423 164.100, 182.710 163 C 182.998 161.900, 183.856 161, 184.617 161 C 185.377 161, 186 160.100, 186 159 C 186 157.667, 186.667 157, 188 157 C 189.111 157, 190 156.333, 190 155.500 C 190 154.675, 190.675 154, 191.500 154 C 192.325 154, 193 154.675, 193 155.500 C 193 156.652, 194.278 157, 198.500 157 C 203.333 157, 204 157.242, 204 159 C 204 160.822, 204.667 161, 211.500 161 C 217.187 161, 219 161.331, 219 162.371 C 219 163.261, 220.754 163.975, 224 164.406 C 227.424 164.860, 229 165.531, 229 166.534 C 229 167.340, 229.900 168, 231 168 C 232.333 168, 233 168.667, 233 170 C 233 171.111, 233.667 172, 234.500 172 C 235.466 172, 236.005 172.978, 236.014 174.750 C 236.035 179.032, 237.101 182, 238.617 182 C 239.377 182, 240 181.100, 240 180 C 240 178.889, 240.667 178, 241.500 178 C 242.500 178, 243 177, 243 175 C 243 173, 242.500 172, 241.500 172 C 240.348 172, 240 170.722, 240 166.500 L 240 161 236.500 161 C 233.667 161, 233 160.619, 233 159 C 233 157.333, 232.333 157, 229 157 C 226.278 157, 225 156.562, 225 155.629 C 225 154.739, 223.246 154.025, 220 153.594 C 216.576 153.140, 215 152.469, 215 151.466 C 215 150.422, 213.847 150, 211 150 C 208.166 150, 207 149.576, 207 148.545 C 207 147.668, 205.577 146.824, 203.417 146.418 C 200.375 145.848, 199.919 145.425, 200.403 143.623 C 200.716 142.455, 200.979 141.162, 200.986 140.750 C 200.994 140.338, 201.675 140, 202.500 140 C 203.333 140, 204 139.111, 204 138 C 204 136.837, 204.667 136, 205.594 136 C 206.470 136, 207.423 135.100, 207.710 134 C 207.998 132.900, 208.806 132, 209.505 132 C 210.205 132, 211.073 130.425, 211.434 128.500 C 211.827 126.405, 212.675 125, 213.545 125 C 214.345 125, 215 124.100, 215 123 C 215 121.900, 215.655 121, 216.455 121 C 217.325 121, 218.173 119.595, 218.566 117.500 C 218.942 115.495, 219.816 114, 220.611 114 C 221.532 114, 222 112.820, 222 110.500 C 222 108.056, 222.452 107, 223.500 107 C 224.325 107, 225.006 106.438, 225.014 105.750 C 225.021 105.063, 225.299 103.487, 225.630 102.250 C 226.117 100.435, 225.824 100, 224.117 100 C 222.667 100, 222 99.370, 222 98 C 222 96.178, 221.333 96, 214.500 96 C 208.500 96, 207 96.300, 207 97.500 M 200 108.500 C 200 109.510, 198.990 110, 196.906 110 C 194.654 110, 193.671 110.544, 193.290 112 C 192.897 113.503, 191.926 114, 189.383 114 C 187.089 114, 186 114.468, 186 115.455 C 186 116.325, 184.595 117.173, 182.500 117.566 C 180.495 117.942, 179 118.816, 179 119.611 C 179 120.523, 177.837 121, 175.617 121 C 173.074 121, 172.103 121.497, 171.710 123 C 171.423 124.100, 170.470 125, 169.594 125 C 168.667 125, 168 125.837, 168 127 C 168 128.111, 168.667 129, 169.500 129 C 170.325 129, 171 129.675, 171 130.500 C 171 131.333, 171.889 132, 173 132 C 174.100 132, 175 132.625, 175 133.389 C 175 134.184, 176.495 135.058, 178.500 135.434 C 180.595 135.827, 182 136.675, 182 137.545 C 182 138.517, 183.079 139.005, 185.250 139.014 C 187.037 139.021, 189.512 139.299, 190.750 139.630 C 192.565 140.117, 193 139.824, 193 138.117 C 193 136.667, 193.630 136, 195 136 C 196.333 136, 197 135.333, 197 134 C 197 132.889, 197.667 132, 198.500 132 C 199.333 132, 200 131.111, 200 130 C 200 128.667, 200.667 128, 202 128 C 203.619 128, 204 127.333, 204 124.500 C 204 122.104, 204.459 121, 205.455 121 C 206.325 121, 207.173 119.595, 207.566 117.500 C 207.942 115.495, 208.816 114, 209.611 114 C 210.532 114, 211 112.820, 211 110.500 L 211 107 205.500 107 C 201.278 107, 200 107.348, 200 108.500 M 83.816 139.677 C 81.737 140.226, 80.592 145.013, 81.449 149.578 C 82.032 152.690, 82.404 153, 85.545 153 C 87.949 153, 89 152.544, 89 151.500 C 89 150.236, 91.278 150, 103.500 150 C 115.722 150, 118 149.764, 118 148.500 C 118 147.675, 118.675 147, 119.500 147 C 120.325 147, 121 146.132, 121 145.070 C 121 143.261, 120.033 143.121, 105.428 142.820 C 91.841 142.541, 89.731 142.277, 88.878 140.750 C 87.906 139.010, 87.037 138.826, 83.816 139.677 M 181.250 182.659 C 180.012 182.923, 179 183.783, 179 184.570 C 179 185.683, 177.338 186, 171.500 186 C 165.742 186, 164 186.325, 164 187.399 C 164 188.396, 161.995 188.998, 157 189.500 C 152.005 190.002, 150 190.604, 150 191.601 C 150 192.630, 148.545 193, 144.500 193 C 139.667 193, 139 193.242, 139 195 C 139 196.758, 138.333 197, 133.500 197 C 129.278 197, 128 197.348, 128 198.500 C 128 199.466, 127.022 200.005, 125.250 200.014 C 123.737 200.021, 121.551 200.282, 120.391 200.594 C 118.561 201.085, 118.195 200.618, 117.629 197.080 C 117.204 194.427, 116.456 193, 115.488 193 C 114.454 193, 114 191.932, 114 189.500 C 114 186.187, 113.818 186, 110.605 186 C 107.412 186, 107.189 186.223, 106.855 189.750 C 106.659 191.813, 106.658 199.238, 106.852 206.250 C 107.121 215.954, 107.520 219, 108.523 219 C 109.248 219, 110.138 220.350, 110.500 222 C 110.862 223.650, 111.798 225, 112.579 225 C 113.681 225, 114 226.686, 114 232.500 C 114 238.500, 114.300 240, 115.500 240 C 116.565 240, 117.003 241.087, 117.009 243.750 C 117.013 245.813, 117.301 249.863, 117.648 252.750 L 118.279 258 94.139 258 C 74.253 258, 70 257.756, 70 256.617 C 70 255.856, 68.987 254.962, 67.750 254.630 C 64.335 253.715, 64 253.838, 64 256 C 64 257.333, 63.333 258, 62 258 C 60.381 258, 60 258.667, 60 261.500 C 60 264.036, 60.439 265, 61.594 265 C 62.470 265, 63.434 265.943, 63.735 267.095 C 64.263 269.113, 64.777 269.177, 77.809 268.845 C 87.486 268.598, 91.453 268.144, 91.750 267.250 C 92.245 265.764, 100 265.529, 100 267 C 100 268.410, 102.750 268.250, 103.229 266.812 C 103.508 265.977, 108.883 265.494, 121.313 265.186 C 135.435 264.836, 139 264.471, 139 263.374 C 139 262.302, 141.360 261.972, 149.750 261.874 C 185.626 261.454, 194 261.762, 194 263.500 C 194 264.800, 197.987 265, 223.883 265 C 252.926 265, 253.781 265.056, 254.290 267 C 254.733 268.695, 255.654 269, 260.335 269 C 267.657 269, 269 267.594, 269 259.929 L 269 254 265.500 254 C 262.667 254, 262 254.381, 262 256 C 262 257.810, 261.333 258, 255 258 C 249.742 258, 248 257.659, 248 256.631 C 248 254.695, 242.655 254.024, 227.133 254.011 L 213.767 254 214.370 251.750 C 214.701 250.512, 214.979 248.262, 214.986 246.750 C 214.995 244.978, 215.534 244, 216.500 244 C 217.333 244, 218 243.111, 218 242 C 218 240.667, 218.667 240, 220 240 C 221.667 240, 222 239.333, 222 236 C 222 233.261, 222.436 232, 223.383 232 C 224.899 232, 225.965 229.032, 225.986 224.750 C 225.995 223.056, 226.542 222, 227.411 222 C 228.439 222, 228.915 220.302, 229.165 215.750 C 229.739 205.273, 228.953 197, 227.384 197 C 226.623 197, 226 196.100, 226 195 C 226 193.667, 225.333 193, 224 193 C 222.667 193, 222 192.333, 222 191 C 222 189.889, 221.333 189, 220.500 189 C 219.675 189, 219 188.325, 219 187.500 C 219 186.417, 217.889 186, 215 186 C 212.111 186, 211 185.583, 211 184.500 C 211 183.675, 210.662 182.984, 210.250 182.965 C 199.901 182.476, 182.945 182.297, 181.250 182.659 M 175 195 C 175 196.843, 174.333 197, 166.500 197 C 159.963 197, 158 197.317, 158 198.372 C 158 199.200, 156.413 199.998, 154 200.384 C 151.412 200.798, 150 201.549, 150 202.512 C 150 203.688, 148.531 204, 143 204 C 137.727 204, 136 204.339, 136 205.375 C 136 206.746, 131.880 208, 127.375 208 C 126.020 208, 125 208.594, 125 209.383 C 125 210.144, 124.044 211.017, 122.875 211.322 C 120.934 211.830, 120.789 212.409, 121.197 218.049 C 121.516 222.455, 122.124 224.490, 123.322 225.160 C 124.726 225.946, 125 227.807, 125 236.550 C 125 245.172, 125.262 247, 126.500 247 C 127.548 247, 128 248.056, 128 250.500 L 128 254 142.500 254 C 154.722 254, 157 253.764, 157 252.500 C 157 251.348, 158.278 251, 162.500 251 C 167.333 251, 168 250.758, 168 249 C 168 247.900, 168.655 247, 169.455 247 C 170.325 247, 171.173 245.595, 171.566 243.500 C 171.942 241.495, 172.816 240, 173.611 240 C 174.614 240, 175 238.586, 175 234.906 C 175 230.654, 175.330 229.726, 177 229.290 C 178.503 228.897, 179 227.926, 179 225.383 C 179 223.043, 179.462 222, 180.500 222 C 181.692 222, 182 220.545, 182 214.906 C 182 208.654, 182.237 207.751, 184 207.290 C 185.503 206.897, 186 205.926, 186 203.383 C 186 201.160, 186.477 200, 187.392 200 C 188.895 200, 190.437 195.516, 189.472 193.954 C 189.147 193.429, 185.759 193, 181.941 193 C 175.667 193, 175 193.192, 175 195 M 200.580 196.423 C 200.176 198.579, 199.331 200, 198.455 200 C 197.452 200, 197 201.116, 197 203.594 C 197 206.346, 196.532 207.310, 195 207.710 C 193.497 208.103, 193 209.074, 193 211.617 C 193 213.957, 192.538 215, 191.500 215 C 190.588 215, 190 215.931, 190 217.375 C 190 221.880, 188.746 226, 187.375 226 C 186.470 226, 186 227.197, 186 229.500 C 186 231.908, 185.543 233, 184.534 233 C 183.531 233, 182.860 234.576, 182.406 238 C 181.975 241.246, 181.261 243, 180.371 243 C 179.617 243, 179 243.900, 179 245 C 179 246.111, 178.333 247, 177.500 247 C 176.667 247, 176 247.889, 176 249 C 176 250.733, 176.667 251, 181 251 C 184.778 251, 186 251.367, 186 252.500 C 186 253.690, 187.444 254, 193 254 C 198.556 254, 200 253.690, 200 252.500 C 200 251.667, 200.889 251, 202 251 C 203.333 251, 204 250.333, 204 249 C 204 247.889, 204.667 247, 205.500 247 C 206.325 247, 207 246.283, 207 245.406 C 207 244.530, 207.900 243.577, 209 243.290 C 210.356 242.935, 211.004 241.919, 211.014 240.133 C 211.035 235.960, 212.115 233, 213.617 233 C 214.627 233, 215 231.516, 215 227.500 C 215 223.528, 215.378 222, 216.361 222 C 218.129 222, 219.144 213.670, 218.327 205.857 C 217.913 201.891, 217.277 200, 216.358 200 C 215.611 200, 215 199.325, 215 198.500 C 215 197.456, 213.950 197, 211.550 197 C 209.611 197, 207.749 196.378, 207.300 195.580 C 206.860 194.798, 205.319 193.864, 203.876 193.503 C 201.483 192.904, 201.192 193.162, 200.580 196.423 M 161 206 C 161 207.333, 160.333 208, 159 208 C 157.381 208, 157 208.667, 157 211.500 C 157 214.333, 156.619 215, 155 215 C 153.667 215, 153 215.667, 153 217 C 153 218.111, 152.333 219, 151.500 219 C 150.367 219, 150 220.222, 150 224 C 150 227.778, 149.633 229, 148.500 229 C 147.312 229, 147 230.431, 147 235.883 C 147 243.595, 147.397 243.973, 155.500 243.973 C 160.942 243.973, 164 243.041, 164 241.383 C 164 240.623, 164.900 240, 166 240 C 167.333 240, 168 239.333, 168 238 C 168 236.900, 168.623 236, 169.383 236 C 170.669 236, 171.955 233.160, 171.986 230.250 C 171.994 229.563, 171.100 229, 170 229 C 168.667 229, 168 229.667, 168 231 C 168 232.619, 167.333 233, 164.500 233 C 162.056 233, 161 233.452, 161 234.500 C 161 235.333, 160.111 236, 159 236 C 157.262 236, 157 235.333, 157 230.906 C 157 226.654, 157.330 225.726, 159 225.290 C 160.503 224.897, 161 223.926, 161 221.383 C 161 219.089, 161.468 218, 162.455 218 C 163.325 218, 164.173 216.595, 164.566 214.500 C 164.942 212.495, 165.816 211, 166.611 211 C 167.532 211, 168 209.820, 168 207.500 C 168 204.167, 167.833 204, 164.500 204 C 161.667 204, 161 204.381, 161 206" stroke="none" fill="black" fill-rule="evenodd"/>
</svg>