<svg xmlns="http://www.w3.org/2000/svg" width="300" height="300" viewBox="0 0 300 300" version="1.1">
	<path d="M 196 51 C 196 52.333, 195.333 53, 194 53 C 192.667 53, 192 53.667, 192 55 C 192 56.111, 191.333 57, 190.500 57 C 189.675 57, 189 57.675, 189 58.500 C 189 59.333, 188.111 60, 187 60 C 185.667 60, 185 60.667, 185 62 C 185 63.333, 184.333 64, 183 64 C 181.889 64, 181 64.667, 181 65.500 C 181 66.325, 180.325 67, 179.500 67 C 178.667 67, 178 67.889, 178 69 C 178 70.333, 177.333 71, 176 71 C 174.667 71, 174 71.667, 174 73 C 174 74.100, 173.361 75, 172.579 75 C 171.798 75, 170.862 76.350, 170.500 78 C 170.138 79.650, 169.202 81, 168.421 81 C 167.639 81, 167 81.900, 167 83 C 167 84.333, 166.333 85, 165 85 C 163.667 85, 163 85.667, 163 87 C 163 88.111, 162.333 89, 161.500 89 C 160.675 89, 160 89.675, 160 90.500 C 160 91.548, 158.944 92, 156.500 92 C 154.056 92, 153 91.548, 153 90.500 C 153 89.277, 151.323 89, 143.906 89 C 135.654 89, 134.764 88.815, 134.290 87 C 133.919 85.583, 132.926 85, 130.883 85 C 129.104 85, 128 84.474, 128 83.625 C 128 81.930, 123.040 80.842, 119 81.650 C 116.378 82.174, 116 82.675, 116 85.625 C 116 87.958, 115.537 89, 114.500 89 C 113.675 89, 113 89.675, 113 90.500 C 113 91.732, 111.236 92, 103.125 92 C 91.506 92, 87 92.734, 87 94.625 C 87 95.381, 86.325 96, 85.500 96 C 84.348 96, 84 97.278, 84 101.500 L 84 107 87.383 107 C 89.926 107, 90.897 106.503, 91.290 105 C 91.746 103.255, 92.654 103, 98.406 103 C 103.601 103, 105 102.682, 105 101.500 C 105 100.417, 106.111 100, 109 100 C 112.333 100, 113 100.333, 113 102 C 113 103.111, 113.667 104, 114.500 104 C 115.524 104, 116.003 105.032, 116.009 107.250 C 116.028 114.426, 117.286 121, 118.639 121 C 119.685 121, 120 123.058, 120 129.883 C 120 137.926, 119.811 138.816, 118 139.290 C 116.900 139.577, 116 140.530, 116 141.406 C 116 142.333, 115.163 143, 114 143 C 112.889 143, 112 143.667, 112 144.500 C 112 145.325, 111.325 146, 110.500 146 C 109.667 146, 109 146.889, 109 148 C 109 149.333, 108.333 150, 107 150 C 105.889 150, 105 150.667, 105 151.500 C 105 152.325, 104.325 153, 103.500 153 C 102.667 153, 102 153.889, 102 155 C 102 156.333, 101.333 157, 100 157 C 98.667 157, 98 157.667, 98 159 C 98 160.111, 97.333 161, 96.500 161 C 95.278 161, 95 162.667, 95 170 C 95 177.013, 95.307 179, 96.389 179 C 97.184 179, 98.058 180.495, 98.434 182.500 C 98.827 184.595, 99.675 186, 100.545 186 C 101.345 186, 102 186.675, 102 187.500 C 102 188.325, 102.717 189, 103.594 189 C 104.470 189, 105.423 189.900, 105.710 191 C 106.103 192.503, 107.074 193, 109.617 193 C 112.333 193, 113 193.394, 113 195 C 113 196.619, 113.667 197, 116.500 197 C 118.896 197, 120 196.541, 120 195.545 C 120 194.675, 121.405 193.827, 123.500 193.434 C 125.505 193.058, 127 192.184, 127 191.389 C 127 190.625, 127.717 190, 128.594 190 C 129.470 190, 130.423 189.100, 130.710 188 C 130.998 186.900, 131.856 186, 132.617 186 C 133.743 186, 134 182.659, 134 168 C 134 152.667, 133.778 150, 132.500 150 C 131.417 150, 131 148.889, 131 146 C 131 143.211, 131.430 142, 132.421 142 C 133.202 142, 134.131 140.679, 134.486 139.065 C 134.970 136.861, 135.861 135.970, 138.065 135.486 C 139.679 135.131, 141 134.202, 141 133.421 C 141 132.639, 141.848 132, 142.883 132 C 143.926 132, 145 131.107, 145.290 130 C 145.577 128.900, 146.530 128, 147.406 128 C 148.283 128, 149 127.325, 149 126.500 C 149 125.675, 149.563 124.994, 150.250 124.986 C 150.938 124.979, 152.512 124.701, 153.750 124.370 C 155.817 123.816, 156 124.102, 156 127.883 C 156 130.876, 156.410 132, 157.500 132 C 158.597 132, 159.002 133.142, 159.006 136.250 C 159.021 146.859, 160.312 157, 161.648 157 C 162.653 157, 163 158.767, 163 163.883 C 163 169.926, 163.244 170.831, 165 171.290 C 166.100 171.577, 167 172.530, 167 173.406 C 167 174.333, 167.837 175, 169 175 C 170.111 175, 171 174.333, 171 173.500 C 171 172.675, 171.675 172, 172.500 172 C 173.767 172, 174 169.667, 174 157 C 174 144.707, 174.256 142, 175.420 142 C 176.431 142, 177.042 140.123, 177.537 135.500 C 178.022 130.968, 178.652 129, 179.616 129 C 180.564 129, 181 127.739, 181 125 C 181 122.111, 181.417 121, 182.500 121 C 183.325 121, 184 120.325, 184 119.500 C 184 118.644, 184.899 118, 186.094 118 C 187.346 118, 188.397 117.197, 188.710 116 C 189.103 114.497, 190.074 114, 192.617 114 C 194.957 114, 196 113.538, 196 112.500 C 196 111.675, 196.675 111, 197.500 111 C 198.325 111, 199 111.675, 199 112.500 C 199 113.325, 198.325 114, 197.500 114 C 196.464 114, 195.947 115.159, 195.829 117.750 C 195.735 119.813, 195.554 123.300, 195.428 125.500 C 195.301 127.700, 195.432 134.113, 195.718 139.750 C 196.114 147.549, 196.569 150, 197.619 150 C 198.531 150, 199 151.190, 199 153.500 C 199 155.813, 199.469 157, 200.383 157 C 201.959 157, 202.966 160, 202.986 164.750 C 202.996 166.966, 203.477 168, 204.500 168 C 205.412 168, 206 168.931, 206 170.375 C 206 174.880, 207.254 179, 208.625 179 C 209.608 179, 210 180.424, 210 184 C 210 187.576, 210.392 189, 211.375 189 C 213.066 189, 214 193.346, 214 201.219 C 214 206.346, 213.718 207.261, 212 207.710 C 210.344 208.143, 210 209.074, 210 213.117 C 210 217.333, 210.273 218, 212 218 C 213.111 218, 214 217.333, 214 216.500 C 214 215.675, 214.499 215, 215.109 215 C 217.533 215, 220.966 210.470, 220.983 207.250 C 220.994 205.035, 221.478 204, 222.500 204 C 223.548 204, 224 202.944, 224 200.500 C 224 198.056, 223.548 197, 222.500 197 C 221.300 197, 221 195.500, 221 189.500 C 221 183.604, 220.689 182, 219.545 182 C 218.675 182, 217.827 180.595, 217.434 178.500 C 217.058 176.495, 216.184 175, 215.389 175 C 214.401 175, 213.996 173.630, 213.986 170.250 C 213.969 164.077, 213.103 161, 211.383 161 C 210.373 161, 210 159.516, 210 155.500 C 210 151.455, 209.630 150, 208.601 150 C 207.604 150, 207.002 147.995, 206.500 143 C 205.998 138.005, 205.396 136, 204.399 136 C 203.325 136, 203 134.258, 203 128.500 C 203 122.500, 203.300 121, 204.500 121 C 205.548 121, 206 119.944, 206 117.500 C 206 114.190, 206.183 114, 209.383 114 C 211.926 114, 212.897 113.503, 213.290 112 C 213.771 110.159, 214.654 110, 224.406 110 C 233.156 110, 235 109.739, 235 108.500 C 235 107.417, 236.111 107, 239 107 C 241.889 107, 243 106.583, 243 105.500 C 243 104.675, 243.675 104, 244.500 104 C 245.647 104, 246 102.736, 246 98.625 C 246 93.365, 245.931 93.236, 242.762 92.602 C 237.865 91.623, 228 92.977, 228 94.629 C 228 95.689, 225.956 96, 219 96 C 212.030 96, 210 96.310, 210 97.375 C 210 98.746, 205.880 100, 201.375 100 C 199.931 100, 199 100.588, 199 101.500 C 199 102.548, 197.944 103, 195.500 103 C 192.667 103, 192 103.381, 192 105 C 192 106.667, 191.333 107, 188 107 C 185.211 107, 184 107.430, 184 108.421 C 184 109.202, 182.650 110.138, 181 110.500 C 179.350 110.862, 178 111.798, 178 112.579 C 178 113.361, 177.100 114, 176 114 C 174.127 114, 174 114.667, 174 124.500 C 174 132.721, 173.703 135, 172.631 135 C 171.169 135, 170.030 139.894, 170.011 146.250 C 170.003 148.912, 169.565 150, 168.500 150 C 167.268 150, 166.977 148.081, 166.870 139.250 C 166.644 120.619, 166.490 118.663, 165.222 118.241 C 163.621 117.707, 163.643 114.285, 165.250 113.751 C 166.116 113.463, 166.605 110.059, 166.841 102.668 C 167.093 94.790, 167.520 92, 168.474 92 C 169.185 92, 170.002 91.100, 170.290 90 C 170.577 88.900, 171.530 88, 172.406 88 C 173.283 88, 174 87.325, 174 86.500 C 174 85.675, 174.655 85, 175.455 85 C 176.325 85, 177.173 83.595, 177.566 81.500 C 178.041 78.967, 178.745 78, 180.111 78 C 181.150 78, 182 77.325, 182 76.500 C 182 75.675, 182.675 75, 183.500 75 C 184.333 75, 185 74.111, 185 73 C 185 71.667, 185.667 71, 187 71 C 188.333 71, 189 70.333, 189 69 C 189 67.889, 189.667 67, 190.500 67 C 191.325 67, 192 66.377, 192 65.617 C 192 64.856, 192.900 63.998, 194 63.710 C 195.100 63.423, 196 62.470, 196 61.594 C 196 60.353, 197.081 60, 200.875 60 C 205.535 60, 205.778 59.862, 206.375 56.875 C 207.853 49.485, 207.553 49, 201.500 49 C 196.667 49, 196 49.242, 196 51 M 41 68.594 C 41 69.470, 40.100 70.423, 39 70.710 C 36.886 71.263, 36.655 72.112, 37.630 75.750 C 38.195 77.856, 38.768 78, 46.617 78 L 55 78 55 74.500 C 55 71.167, 54.833 71, 51.500 71 C 49.187 71, 48 70.531, 48 69.617 C 48 68.856, 46.987 67.962, 45.750 67.630 C 42.140 66.663, 41 66.894, 41 68.594 M 124 90.500 C 124 91.333, 124.889 92, 126 92 C 127.111 92, 128 91.333, 128 90.500 C 128 89.667, 127.111 89, 126 89 C 124.889 89, 124 89.667, 124 90.500 M 134.750 99.725 L 127 100.084 127 114.136 C 127 127.346, 127.120 128.219, 129 128.710 C 130.100 128.998, 131 129.856, 131 130.617 C 131 131.377, 131.675 132, 132.500 132 C 133.325 132, 134 131.283, 134 130.406 C 134 129.530, 134.900 128.577, 136 128.290 C 137.100 128.002, 138 127.144, 138 126.383 C 138 125.473, 139.179 125, 141.450 125 C 143.696 125, 145.243 124.389, 145.880 123.250 C 146.605 121.955, 148.049 121.525, 151.430 121.596 L 156 121.692 156 115.729 C 156 110.034, 155.899 109.794, 153.750 110.370 C 152.512 110.701, 150.938 110.979, 150.250 110.986 C 149.531 110.994, 149 112.274, 149 114 C 149 116.078, 148.510 117, 147.406 117 C 146.530 117, 145.577 117.900, 145.290 119 C 144.897 120.503, 143.926 121, 141.383 121 C 138.183 121, 138 120.810, 138 117.500 C 138 114.667, 138.381 114, 140 114 C 141.333 114, 142 113.333, 142 112 C 142 110.889, 142.667 110, 143.500 110 C 144.325 110, 145 109.325, 145 108.500 C 145 107.667, 145.889 107, 147 107 C 148.333 107, 149 106.333, 149 105 C 149 103.889, 149.667 103, 150.500 103 C 151.325 103, 152 102.325, 152 101.500 C 152 100.534, 151.022 99.995, 149.250 99.986 C 147.738 99.979, 145.600 99.836, 144.500 99.669 C 143.400 99.503, 139.012 99.528, 134.750 99.725 M 53.853 146.670 C 51.667 147.250, 50.998 150.188, 51.701 156.122 C 52.076 159.286, 52.757 161, 53.639 161 C 54.658 161, 55 162.768, 55 168.031 C 55 173.301, 55.369 175.204, 56.473 175.628 C 59.589 176.824, 59.541 189, 56.421 189 C 55.430 189, 55 190.211, 55 193 C 55 195.889, 54.583 197, 53.500 197 C 52.675 197, 52 197.675, 52 198.500 C 52 199.333, 51.111 200, 50 200 C 48.667 200, 48 200.667, 48 202 C 48 203.333, 47.333 204, 46 204 C 44.381 204, 44 204.667, 44 207.500 C 44 209.944, 43.548 211, 42.500 211 C 41.348 211, 41 212.278, 41 216.500 L 41 222 44.500 222 C 47.333 222, 48 221.619, 48 220 C 48 218.667, 48.667 218, 50 218 C 51.111 218, 52 217.333, 52 216.500 C 52 215.675, 52.717 215, 53.594 215 C 54.470 215, 55.423 214.100, 55.710 213 C 55.998 211.900, 56.856 211, 57.617 211 C 58.377 211, 59 210.325, 59 209.500 C 59 208.262, 60.833 208, 69.500 208 C 77.793 208, 80 208.292, 80 209.389 C 80 210.177, 81.473 211.054, 83.403 211.416 C 85.275 211.767, 87.061 212.717, 87.372 213.527 C 87.683 214.337, 88.851 215, 89.969 215 C 91.108 215, 92 215.659, 92 216.500 C 92 217.510, 93.010 218, 95.094 218 C 97.346 218, 98.329 218.544, 98.710 220 C 99.074 221.392, 100.074 222, 102 222 C 103.926 222, 104.926 222.608, 105.290 224 C 105.671 225.456, 106.654 226, 108.906 226 C 110.990 226, 112 226.490, 112 227.500 C 112 228.325, 112.848 229, 113.883 229 C 114.926 229, 116 229.893, 116.290 231 C 116.671 232.456, 117.654 233, 119.906 233 C 121.879 233, 123 233.503, 123 234.389 C 123 235.184, 124.495 236.058, 126.500 236.434 C 128.595 236.827, 130 237.675, 130 238.545 C 130 239.430, 130.979 240, 132.500 240 C 133.962 240, 135 240.574, 135 241.383 C 135 242.899, 137.968 243.965, 142.250 243.986 C 144.022 243.995, 145 244.534, 145 245.500 C 145 246.652, 146.278 247, 150.500 247 C 155.380 247, 156 247.231, 156 249.052 C 156 251.071, 156.373 251.100, 179.038 250.802 C 196.538 250.573, 202.267 250.189, 202.874 249.207 C 203.443 248.283, 208.152 247.739, 219.336 247.302 C 231.487 246.827, 235 246.388, 235 245.345 C 235 244.300, 237.452 244, 246 244 C 255.111 244, 257 244.258, 257 245.500 C 257 246.325, 257.675 247, 258.500 247 C 259.325 247, 260 246.325, 260 245.500 C 260 244.667, 260.889 244, 262 244 C 263.667 244, 264 243.333, 264 240 L 264 236 256.500 236 C 250.500 236, 249 235.700, 249 234.500 C 249 233.675, 248.325 233, 247.500 233 C 246.675 233, 246 233.675, 246 234.500 C 246 235.740, 244.135 236.002, 235.250 236.009 C 221.072 236.020, 214 236.896, 214 238.639 C 214 239.726, 210.984 240, 199 240 C 186.333 240, 184 240.233, 184 241.500 C 184 242.633, 182.778 243, 179 243 C 175.222 243, 174 242.633, 174 241.500 C 174 240.262, 172.167 240, 163.500 240 C 155.124 240, 153 239.714, 153 238.588 C 153 237.720, 151.459 236.915, 149 236.500 C 146.541 236.085, 145 235.280, 145 234.412 C 145 233.542, 143.945 232.995, 142.250 232.986 C 137.968 232.965, 135 231.899, 135 230.383 C 135 229.574, 133.962 229, 132.500 229 C 131.007 229, 130 228.428, 130 227.579 C 130 226.798, 128.650 225.862, 127 225.500 C 125.350 225.138, 124 224.202, 124 223.421 C 124 222.473, 122.873 222, 120.617 222 C 118.074 222, 117.103 221.503, 116.710 220 C 116.397 218.803, 115.346 218, 114.094 218 C 112.899 218, 112 217.356, 112 216.500 C 112 215.513, 111.013 215, 109.117 215 C 107.074 215, 106.081 214.417, 105.710 213 C 105.310 211.468, 104.346 211, 101.594 211 C 99.116 211, 98 210.548, 98 209.545 C 98 208.675, 96.595 207.827, 94.500 207.434 C 92.495 207.058, 91 206.184, 91 205.389 C 91 204.468, 89.820 204, 87.500 204 C 84.667 204, 84 203.619, 84 202 C 84 200.333, 83.333 200, 80 200 C 77.111 200, 76 199.583, 76 198.500 C 76 197.367, 74.778 197, 71 197 L 66 197 66 179 C 66 163.667, 65.778 161, 64.500 161 C 63.588 161, 63 160.069, 63 158.625 C 63 154.120, 61.746 150, 60.375 150 C 59.619 150, 59 149.100, 59 148 C 59 146.027, 57.617 145.670, 53.853 146.670 M 120 148.500 C 120 149.538, 118.957 150, 116.611 150 C 113.530 150, 113.163 150.318, 112.566 153.500 C 112.173 155.595, 111.325 157, 110.455 157 C 109.655 157, 109 157.675, 109 158.500 C 109 159.325, 108.325 160, 107.500 160 C 106.644 160, 106 160.899, 106 162.094 C 106 163.346, 105.197 164.397, 104 164.710 C 102.344 165.143, 102 166.074, 102 170.117 C 102 173.791, 102.371 175, 103.500 175 C 104.333 175, 105 175.889, 105 177 C 105 178.292, 105.667 179, 106.883 179 C 107.926 179, 109 179.893, 109.290 181 C 109.577 182.100, 110.530 183, 111.406 183 C 112.283 183, 113 183.675, 113 184.500 C 113 185.652, 114.278 186, 118.500 186 L 124 186 124 179 C 124 173.444, 124.310 172, 125.500 172 C 126.583 172, 127 170.889, 127 168 C 127 165.111, 126.583 164, 125.500 164 C 124.284 164, 124 162.389, 124 155.500 C 124 147.667, 123.843 147, 122 147 C 120.889 147, 120 147.667, 120 148.500" stroke="none" fill="black" fill-rule="evenodd"/>
</svg>