<svg xmlns="http://www.w3.org/2000/svg" width="300" height="300" viewBox="0 0 300 300" version="1.1">
	<path d="M 71 60.500 C 71 61.333, 70.111 62, 69 62 C 67.381 62, 67 62.667, 67 65.500 C 67 67.944, 66.548 69, 65.500 69 C 64.272 69, 64 70.722, 64 78.500 C 64 86.278, 64.272 88, 65.500 88 C 68.509 88, 66.937 90.789, 63.573 91.420 C 61.688 91.774, 59.963 92.610, 59.741 93.278 C 59.477 94.068, 56.304 94.618, 50.668 94.849 C 44.475 95.104, 42 95.571, 42 96.486 C 42 97.190, 41.069 98.010, 39.931 98.308 C 38.271 98.742, 37.925 99.506, 38.181 102.174 L 38.500 105.500 47.333 105.790 C 55.509 106.059, 56.206 105.928, 56.700 104.040 C 57.145 102.338, 58.042 102, 62.117 102 C 65.918 102, 67 102.353, 67 103.594 C 67 104.470, 67.847 105.409, 68.881 105.679 C 70.406 106.078, 70.741 107.054, 70.648 110.836 C 70.332 123.767, 70.996 131, 72.500 131 C 73.548 131, 74 132.056, 74 134.500 C 74 136.944, 73.548 138, 72.500 138 C 71.675 138, 71 138.655, 71 139.455 C 71 140.325, 69.595 141.173, 67.500 141.566 C 65.495 141.942, 64 142.816, 64 143.611 C 64 144.375, 63.100 145, 62 145 C 60.667 145, 60 145.667, 60 147 C 60 148.333, 59.333 149, 58 149 C 56.900 149, 56 149.625, 56 150.389 C 56 151.184, 54.505 152.058, 52.500 152.434 C 50.405 152.827, 49 153.675, 49 154.545 C 49 155.345, 48.100 156, 47 156 C 45.889 156, 45 156.667, 45 157.500 C 45 158.325, 44.325 159, 43.500 159 C 42.667 159, 42 159.889, 42 161 C 42 162.333, 41.333 163, 40 163 C 38.889 163, 38 163.667, 38 164.500 C 38 165.325, 37.325 166, 36.500 166 C 35.667 166, 35 166.889, 35 168 C 35 169.333, 34.333 170, 33 170 C 31.242 170, 31 170.667, 31 175.500 C 31 180.333, 31.242 181, 33 181 C 34.100 181, 35 181.626, 35 182.392 C 35 184.124, 39.169 185.247, 42.500 184.411 C 45.185 183.737, 45.987 181, 43.500 181 C 42.452 181, 42 179.944, 42 177.500 C 42 174.667, 42.381 174, 44 174 C 45.619 174, 46 173.333, 46 170.500 C 46 168.056, 46.452 167, 47.500 167 C 48.333 167, 49 166.111, 49 165 C 49 163.381, 49.667 163, 52.500 163 C 55.036 163, 56 162.561, 56 161.406 C 56 160.530, 56.900 159.577, 58 159.290 C 59.100 159.002, 60 158.144, 60 157.383 C 60 156.623, 60.900 156, 62 156 C 63.100 156, 64 155.345, 64 154.545 C 64 153.675, 65.405 152.827, 67.500 152.434 C 69.505 152.058, 71 151.184, 71 150.389 C 71 149.625, 71.950 149, 73.111 149 C 74.983 149, 75.148 149.398, 74.566 152.500 C 73.989 155.573, 74.159 156, 75.955 156 C 77.952 156, 78 156.508, 78 177.500 C 78 195.944, 78.213 199, 79.500 199 C 80.700 199, 81 200.500, 81 206.500 C 81 212.500, 80.700 214, 79.500 214 C 78.452 214, 78 215.056, 78 217.500 C 78 219.944, 78.452 221, 79.500 221 C 80.325 221, 81 221.675, 81 222.500 C 81 223.325, 80.325 224, 79.500 224 C 78.417 224, 78 225.111, 78 228 C 78 230.750, 77.565 232, 76.608 232 C 75.105 232, 73.563 236.484, 74.528 238.046 C 74.853 238.571, 75.766 239, 76.559 239 C 77.352 239, 78 239.900, 78 241 C 78 242.629, 78.667 243, 81.594 243 C 84.346 243, 85.310 242.532, 85.710 241 C 85.998 239.900, 86.873 239, 87.655 239 C 89.664 239, 89.221 172.370, 87.203 171.125 C 85.685 170.188, 84.333 151.367, 85.382 145.775 C 86.045 142.241, 86.072 142.225, 92.524 141.534 C 97.127 141.041, 99 140.430, 99 139.420 C 99 138.319, 100.687 138, 106.500 138 L 114 138 114 134.500 L 114 131 103.500 131 C 94.833 131, 93 131.262, 93 132.500 C 93 133.648, 91.733 134, 87.601 134 L 82.203 134 81.500 127 C 80.998 122.005, 80.396 120, 79.399 120 C 78.289 120, 78 117.828, 78 109.500 L 78 99 81.750 98.989 C 88.106 98.970, 93 97.831, 93 96.369 C 93 95.318, 94.972 95, 101.500 95 L 110 95 110 98.500 L 110 102 105.117 102 C 101.074 102, 100.143 102.344, 99.710 104 C 99.423 105.100, 98.470 106, 97.594 106 C 96.348 106, 96 107.092, 96 111 L 96 116 101 116 C 104.778 116, 106 115.633, 106 114.500 C 106 113.417, 107.111 113, 110 113 C 113.333 113, 114 112.667, 114 111 C 114 109.381, 114.667 109, 117.500 109 C 119.820 109, 121 108.532, 121 107.611 C 121 106.816, 122.495 105.942, 124.500 105.566 C 126.595 105.173, 128 104.325, 128 103.455 C 128 102.358, 129.354 102, 133.500 102 C 137.722 102, 139 101.652, 139 100.500 C 139 99.588, 139.931 99, 141.375 99 C 145.880 99, 150 97.746, 150 96.375 C 150 95.340, 151.720 95, 156.950 95 C 162.342 95, 164.106 94.634, 164.815 93.366 C 165.406 92.310, 167.544 91.558, 170.865 91.239 C 174.312 90.908, 176 90.294, 176 89.373 C 176 88.545, 177.092 87.995, 178.750 87.986 C 183.032 87.965, 186 86.899, 186 85.383 C 186 84.373, 187.484 84, 191.500 84 C 195.722 84, 197 83.652, 197 82.500 C 197 81.675, 197.563 80.994, 198.250 80.986 C 198.938 80.979, 200.512 80.701, 201.750 80.370 C 203.770 79.828, 204 80.125, 204 83.267 C 204 85.926, 203.519 86.892, 202 87.290 C 200.900 87.577, 200 88.530, 200 89.406 C 200 90.561, 199.036 91, 196.500 91 C 194.187 91, 193 91.469, 193 92.383 C 193 93.885, 190.040 94.965, 185.867 94.986 C 184.081 94.996, 183.065 95.644, 182.710 97 C 182.274 98.670, 181.346 99, 177.094 99 C 173.233 99, 172 99.363, 172 100.500 C 172 101.742, 170.111 102, 161 102 C 150.667 102, 150 102.121, 150 104 C 150 105.333, 149.333 106, 148 106 C 146.889 106, 146 106.667, 146 107.500 C 146 108.325, 145.381 109, 144.625 109 C 143.600 109, 143.135 111.206, 142.795 117.694 C 142.512 123.070, 141.892 126.536, 141.169 126.777 C 139.604 127.299, 139.678 129.662, 141.279 130.277 C 142.272 130.658, 142.552 136.395, 142.529 155.919 C 142.504 177.174, 142.268 181.213, 141 181.997 C 139.762 182.762, 139.446 186.518, 139.193 203.462 C 138.891 223.623, 138.923 224, 140.943 224 C 142.105 224, 143 223.347, 143 222.500 C 143 221.675, 143.628 221, 144.396 221 C 145.493 221, 145.947 217.896, 146.517 206.500 C 147.082 195.193, 147.545 192, 148.621 192 C 149.754 192, 150 187.807, 150 168.500 C 150 149.158, 150.245 145, 151.383 145 C 152.144 145, 153.002 144.100, 153.290 143 C 153.577 141.900, 154.530 141, 155.406 141 C 156.283 141, 157 140.325, 157 139.500 C 157 138.310, 158.444 138, 164 138 C 169.291 138, 171 137.663, 171 136.617 C 171 135.629, 173.095 135.039, 178.358 134.545 C 186.905 133.745, 193 134.604, 193 136.611 C 193 137.532, 194.180 138, 196.500 138 C 199.036 138, 200 138.439, 200 139.594 C 200 140.470, 200.900 141.423, 202 141.710 C 203.100 141.998, 204 142.806, 204 143.505 C 204 144.205, 205.529 145.064, 207.397 145.415 C 211.515 146.187, 211.655 146.997, 211.173 167.250 C 210.924 177.684, 210.532 181, 209.548 181 C 208.243 181, 207 185.208, 207 189.625 C 207 191.069, 206.412 192, 205.500 192 C 204.371 192, 204 193.209, 204 196.883 C 204 200.926, 203.656 201.857, 202 202.290 C 200.468 202.690, 200 203.654, 200 206.406 C 200 208.934, 199.555 210, 198.500 210 C 197.278 210, 197 211.667, 197 219 L 197 228 200.500 228 C 202.813 228, 204 228.469, 204 229.383 C 204 231.103, 207.077 231.969, 213.250 231.986 C 216.799 231.997, 218 232.379, 218 233.500 C 218 234.788, 221.111 235, 240 235 C 258.889 235, 262 234.788, 262 233.500 C 262 232.675, 262.675 232, 263.500 232 C 265.119 232, 265.187 231.596, 265.375 220.833 C 265.458 216.083, 265.922 213.526, 266.750 213.250 C 268.232 212.756, 268.444 210, 267 210 C 265.541 210, 265.774 203.242, 267.250 202.750 C 268.635 202.289, 269.083 186.757, 267.750 185.419 C 266.339 184.004, 265.590 186.078, 265.178 192.538 C 264.883 197.175, 264.376 199, 263.384 199 C 262.492 199, 261.995 200.156, 261.986 202.250 C 261.966 207, 260.959 210, 259.383 210 C 258.337 210, 258 211.707, 258 217 L 258 224 236.500 224 C 218.056 224, 215 223.787, 215 222.500 C 215 221.452, 213.944 221, 211.500 221 L 208 221 208 214 C 208 208.444, 208.310 207, 209.500 207 C 210.523 207, 211.004 205.966, 211.014 203.750 C 211.034 199, 212.041 196, 213.617 196 C 214.627 196, 215 194.516, 215 190.500 C 215 186.455, 215.370 185, 216.399 185 C 217.396 185, 217.998 182.995, 218.500 178 C 219.002 173.005, 219.604 171, 220.601 171 C 221.718 171, 222 168.685, 222 159.500 C 222 150.104, 221.734 148, 220.545 148 C 219.675 148, 218.827 146.595, 218.434 144.500 C 218.058 142.495, 217.184 141, 216.389 141 C 215.625 141, 215 140.325, 215 139.500 C 215 138.667, 214.111 138, 213 138 C 211.667 138, 211 137.333, 211 136 C 211 134.667, 210.333 134, 209 134 C 207.889 134, 207 133.333, 207 132.500 C 207 131.490, 205.990 131, 203.906 131 C 201.654 131, 200.671 130.456, 200.290 129 C 199.789 127.087, 198.926 127, 180.433 127 C 163.721 127, 160.978 127.218, 160.201 128.606 C 159.660 129.572, 157.449 130.420, 154.651 130.736 L 150 131.260 150 124.247 C 150 118.074, 150.240 117.171, 152 116.710 C 153.197 116.397, 154 115.346, 154 114.094 C 154 112.899, 154.644 112, 155.500 112 C 156.325 112, 157 111.325, 157 110.500 C 157 109.348, 158.278 109, 162.500 109 C 166.646 109, 168 108.642, 168 107.545 C 168 106.675, 169.405 105.827, 171.500 105.434 C 173.505 105.058, 175 104.184, 175 103.389 C 175 102.372, 176.474 102, 180.500 102 C 184.500 102, 186 101.625, 186 100.625 C 186 99.254, 190.120 98, 194.625 98 C 196.069 98, 197 97.412, 197 96.500 C 197 95.452, 198.056 95, 200.500 95 C 202.896 95, 204 94.541, 204 93.545 C 204 92.675, 205.405 91.827, 207.500 91.434 C 210.033 90.959, 211 90.255, 211 88.889 C 211 87.850, 211.623 87, 212.383 87 C 214.110 87, 214.969 83.920, 214.986 77.666 L 215 72.833 202.928 73.166 C 192.687 73.449, 190.708 73.766, 189.878 75.250 C 189.152 76.549, 187.626 77, 183.950 77 C 180.217 77, 179 77.369, 179 78.500 C 179 79.412, 178.069 80, 176.625 80 C 172.120 80, 168 81.254, 168 82.625 C 168 83.625, 166.500 84, 162.500 84 C 158.425 84, 157 84.367, 157 85.415 C 157 86.446, 154.968 87.020, 149.500 87.532 C 144.122 88.036, 142 88.626, 142 89.617 C 142 90.610, 140.589 91, 137 91 C 133.410 91, 132 91.390, 132 92.383 C 132 93.959, 129 94.966, 124.250 94.986 C 122.034 94.996, 121 95.477, 121 96.500 C 121 97.548, 119.944 98, 117.500 98 C 113.558 98, 112.572 95.607, 116.130 94.676 C 117.605 94.291, 118.066 93.614, 117.630 92.478 C 117.283 91.575, 117 90.234, 117 89.498 C 117 88.761, 115.650 87.862, 114 87.500 C 112.350 87.138, 111 86.202, 111 85.421 C 111 84.430, 109.789 84, 107 84 C 104.251 84, 103 84.435, 103 85.391 C 103 86.450, 100.382 86.952, 92 87.500 C 83.618 88.048, 81 88.550, 81 89.609 C 81 90.474, 79.914 91, 78.130 91 C 75.494 91, 75.222 90.653, 74.790 86.750 C 74.531 84.412, 74.526 79.688, 74.780 76.250 L 75.240 70 80.120 70 C 84.333 70, 85 69.727, 85 68 C 85 66.889, 84.333 66, 83.500 66 C 82.675 66, 82 65.365, 82 64.588 C 82 63.720, 80.459 62.915, 78 62.500 C 75.541 62.085, 74 61.280, 74 60.412 C 74 59.635, 73.325 59, 72.500 59 C 71.675 59, 71 59.675, 71 60.500 M 139 60.500 C 139 61.717, 137.378 62, 130.406 62 C 122.654 62, 121.762 62.196, 121.290 64 C 120.858 65.652, 119.926 66, 115.929 66 C 111.191 66, 111.077 66.073, 110.434 69.500 C 110.073 71.425, 110.073 74.575, 110.434 76.500 C 111.004 79.536, 111.472 80, 113.966 80 C 116.325 80, 116.955 79.480, 117.478 77.102 C 118.157 74.009, 120.124 73.037, 125.750 73.014 C 127.966 73.004, 129 72.523, 129 71.500 C 129 70.313, 130.427 70, 135.844 70 C 139.609 70, 147.453 69.709, 153.275 69.352 L 163.862 68.705 164.181 72.602 C 164.476 76.210, 164.713 76.485, 167.372 76.295 C 168.951 76.182, 170.526 75.807, 170.872 75.462 C 171.731 74.602, 171.670 64.336, 170.799 63.466 C 170.414 63.081, 168.052 62.535, 165.549 62.253 C 162.614 61.922, 161 61.254, 161 60.370 C 161 59.293, 158.647 59, 150 59 C 140.889 59, 139 59.258, 139 60.500" stroke="none" fill="black" fill-rule="evenodd"/>
</svg>