<svg xmlns="http://www.w3.org/2000/svg" width="300" height="300" viewBox="0 0 300 300" version="1.1">
	<path d="M 107 53.500 C 107 54.652, 105.722 55, 101.500 55 C 96.667 55, 96 55.242, 96 57 C 96 58.758, 95.333 59, 90.500 59 C 86.484 59, 85 59.373, 85 60.383 C 85 61.144, 84.100 62.002, 83 62.290 C 81.468 62.690, 81 63.654, 81 66.406 C 81 68.934, 80.555 70, 79.500 70 C 78.675 70, 78 70.675, 78 71.500 C 78 72.325, 78.675 73, 79.500 73 C 80.333 73, 81 73.889, 81 75 C 81 76.333, 81.667 77, 83 77 C 84.333 77, 85 76.333, 85 75 C 85 73.889, 85.667 73, 86.500 73 C 87.325 73, 88 72.325, 88 71.500 C 88 70.417, 89.111 70, 92 70 C 95.333 70, 96 69.667, 96 68 C 96 66.267, 96.667 66, 101 66 C 104.778 66, 106 65.633, 106 64.500 C 106 63.477, 107.034 62.996, 109.250 62.986 C 111.037 62.979, 113.539 62.694, 114.809 62.354 C 116.608 61.873, 117.241 62.207, 117.676 63.868 C 118.149 65.677, 118.973 66, 123.117 66 L 128 66 128 61.045 C 128 56.175, 127.941 56.080, 124.500 55.434 C 122.495 55.058, 121 54.184, 121 53.389 C 121 52.336, 119.306 52, 114 52 C 108.444 52, 107 52.310, 107 53.500 M 186.250 62.732 C 183.391 62.990, 182 63.587, 182 64.557 C 182 65.727, 179.916 66, 171 66 C 162.419 66, 160 66.298, 160 67.353 C 160 68.712, 150.435 70, 140.349 70 C 137.150 70, 136 70.397, 136 71.500 C 136 72.583, 134.889 73, 132 73 L 128 73 128 78.500 L 128 84 135 84 C 140.273 84, 142 83.661, 142 82.625 C 142 81.196, 146.159 80, 151.125 80 C 153.014 80, 154 79.486, 154 78.500 C 154 77.289, 155.589 76.997, 162.250 76.986 C 171.804 76.971, 175 76.318, 175 74.383 C 175 73.263, 178.044 73, 191 73 C 204.334 73, 207 73.242, 207 74.455 C 207 75.325, 205.595 76.173, 203.500 76.566 C 201.495 76.942, 200 77.816, 200 78.611 C 200 79.375, 199.325 80, 198.500 80 C 197.675 80, 197 79.325, 197 78.500 C 197 76.146, 194.301 76.747, 193.630 79.250 C 192.520 83.393, 192.887 84, 196.500 84 C 199.333 84, 200 83.619, 200 82 C 200 80.192, 200.667 80, 206.955 80 L 213.909 80 214.566 76.500 C 214.942 74.495, 215.816 73, 216.611 73 C 217.532 73, 218 71.820, 218 69.500 C 218 67.056, 217.548 66, 216.500 66 C 215.675 66, 215 65.377, 215 64.617 C 215 63.856, 213.988 62.962, 212.750 62.630 C 210.408 62.003, 193.634 62.067, 186.250 62.732 M 117 85.500 C 117 86.524, 115.968 87.003, 113.750 87.009 C 106.574 87.028, 100 88.286, 100 89.639 C 100 90.666, 98.159 91, 92.500 91 C 85.667 91, 85 91.178, 85 93 C 85 94.810, 84.333 95, 78 95 C 72.444 95, 71 95.310, 71 96.500 C 71 97.548, 69.944 98, 67.500 98 C 64.667 98, 64 98.381, 64 100 C 64 101.333, 63.333 102, 62 102 C 60.667 102, 60 102.667, 60 104 C 60 105.100, 60.623 106, 61.383 106 C 62.144 106, 63.002 106.900, 63.290 108 C 63.577 109.100, 64.530 110, 65.406 110 C 66.283 110, 67 110.450, 67 111 C 67 111.550, 66.325 112, 65.500 112 C 64.417 112, 64 113.111, 64 116 C 64 118.746, 64.435 120, 65.389 120 C 66.184 120, 67.058 121.495, 67.434 123.500 C 67.827 125.595, 68.675 127, 69.545 127 C 70.345 127, 71 127.900, 71 129 C 71 130.100, 71.629 131, 72.399 131 C 73.396 131, 73.998 133.005, 74.500 138 C 75.002 142.995, 75.604 145, 76.601 145 C 77.757 145, 78 148.821, 78 167 C 78 185.219, 77.759 189, 76.596 189 C 75.526 189, 75.023 191.493, 74.477 199.500 C 73.937 207.417, 73.422 210, 72.381 210 C 71.473 210, 71 211.183, 71 213.450 C 71 215.640, 70.387 217.244, 69.322 217.840 C 68.127 218.509, 67.516 220.539, 67.202 224.889 C 66.905 228.989, 66.334 231, 65.468 231 C 64.740 231, 63.881 232.746, 63.500 235 C 63.085 237.459, 62.280 239, 61.412 239 C 60.330 239, 60 240.638, 60 246 L 60 253 63.389 253 C 66.470 253, 66.837 252.682, 67.434 249.500 C 67.827 247.405, 68.675 246, 69.545 246 C 70.642 246, 71 244.646, 71 240.500 C 71 236.474, 71.372 235, 72.389 235 C 73.184 235, 74.058 233.505, 74.434 231.500 C 74.827 229.405, 75.675 228, 76.545 228 C 77.680 228, 78 226.459, 78 221 C 78 215.727, 78.339 214, 79.375 214 C 80.948 214, 82 209.741, 82 203.375 C 82 200.153, 82.395 199, 83.500 199 C 84.786 199, 85.019 195.690, 85.136 175.750 C 85.211 162.963, 85.323 148.450, 85.386 143.500 L 85.500 134.500 88.750 134.187 C 90.763 133.993, 92 133.327, 92 132.437 C 92 131.246, 94.823 131, 108.500 131 C 122.650 131, 125 131.218, 125 132.531 C 125 133.374, 124.325 134.322, 123.500 134.638 C 122.664 134.959, 122 136.446, 122 137.999 C 122 140.148, 122.581 140.929, 124.546 141.422 C 127.490 142.161, 129 141.489, 129 139.441 C 129 138.648, 129.675 138, 130.500 138 C 131.583 138, 132 136.889, 132 134 C 132 131.111, 132.417 130, 133.500 130 C 134.325 130, 135 129.550, 135 129 C 135 128.450, 134.325 128, 133.500 128 C 132.667 128, 132 127.111, 132 126 C 132 124.837, 131.333 124, 130.406 124 C 129.530 124, 128.577 123.100, 128.290 122 C 127.634 119.491, 121 119.036, 121 121.500 C 121 122.325, 120.325 123, 119.500 123 C 118.675 123, 118 122.325, 118 121.500 C 118 120.417, 116.889 120, 114 120 C 111.007 120, 110 119.599, 110 118.406 C 110 117.530, 110.900 116.577, 112 116.290 C 113.100 116.002, 114 115.197, 114 114.500 C 114 113.803, 114.900 112.998, 116 112.710 C 117.100 112.423, 118 111.470, 118 110.594 C 118 109.717, 118.675 109, 119.500 109 C 120.333 109, 121 108.111, 121 107 C 121 105.900, 121.655 105, 122.455 105 C 123.325 105, 124.173 103.595, 124.566 101.500 C 124.927 99.575, 125.820 98, 126.550 98 C 128.013 98, 129.648 89.857, 128.544 88.071 C 128.180 87.482, 127.009 87, 125.941 87 C 124.873 87, 124 86.325, 124 85.500 C 124 84.452, 122.944 84, 120.500 84 C 118.056 84, 117 84.452, 117 85.500 M 179 85.383 C 179 86.669, 181.840 87.955, 184.750 87.986 C 185.438 87.994, 186 87.100, 186 86 C 186 84.381, 185.333 84, 182.500 84 C 180.187 84, 179 84.469, 179 85.383 M 164.750 87.728 C 162.335 87.981, 161 88.633, 161 89.560 C 161 90.352, 160.100 91, 159 91 C 157.667 91, 157 91.667, 157 93 C 157 94.100, 156.371 95, 155.601 95 C 154.604 95, 154.002 97.005, 153.500 102 C 152.998 106.995, 152.396 109, 151.399 109 C 150.219 109, 150 116.907, 150 159.500 C 150 202.227, 150.216 210, 151.406 210 C 152.497 210, 152.890 212.225, 153.156 219.919 C 153.345 225.374, 153.865 230.201, 154.311 230.646 C 155.174 231.508, 162.574 231.779, 163.327 230.977 C 163.573 230.715, 164.098 227.658, 164.493 224.184 C 165.151 218.405, 165.043 217.824, 163.226 217.349 C 161.327 216.852, 161.209 215.599, 160.506 188.415 C 160.102 172.787, 159.373 160, 158.886 160 C 158.399 160, 158 159.100, 158 158 C 158 156.889, 158.667 156, 159.500 156 C 160.652 156, 161 154.722, 161 150.500 C 161 146.278, 161.348 145, 162.500 145 C 164.137 145, 164.466 143.061, 164.072 135.750 C 163.844 131.516, 164.043 131, 165.908 131 C 167.059 131, 168 130.377, 168 129.617 C 168 128.041, 171 127.034, 175.750 127.014 C 177.966 127.004, 179 126.523, 179 125.500 C 179 124.363, 180.233 124, 184.094 124 C 188.346 124, 189.274 123.670, 189.710 122 C 190.181 120.201, 191.074 120, 198.617 120 C 205.402 120, 207 119.714, 207 118.500 C 207 117.395, 208.153 117, 211.375 117 C 213.781 117, 217.156 116.719, 218.875 116.375 C 221.900 115.770, 222 115.862, 222 119.258 C 222 121.926, 221.521 122.892, 220 123.290 C 218.078 123.792, 218 124.654, 218 145.251 C 218 173.787, 218.882 188, 220.652 188 C 221.714 188, 222 190.762, 222 201 C 222 211.262, 222.285 214, 223.353 214 C 224.811 214, 226 223.726, 226 235.651 C 226 240.510, 226.338 242, 227.440 242 C 228.381 242, 228.987 243.296, 229.190 245.742 C 229.407 248.357, 230.027 249.583, 231.250 249.815 C 232.461 250.044, 233 249.508, 233 248.073 C 233 246.667, 233.643 246, 235 246 C 236.111 246, 237 245.333, 237 244.500 C 237 243.675, 237.675 243, 238.500 243 C 239.652 243, 240 241.722, 240 237.500 C 240 233.508, 239.624 232, 238.629 232 C 237.664 232, 237.054 229.927, 236.569 225 C 236.066 219.895, 235.489 218, 234.439 218 C 233.316 218, 233 216.366, 233 210.550 C 233 204.493, 232.673 202.916, 231.250 202.121 C 229.671 201.238, 229.471 198.747, 229.200 176.572 C 228.948 155.909, 228.670 152, 227.450 152 C 226.321 152, 226 150.449, 226 145 C 226 139.444, 226.310 138, 227.500 138 C 228.692 138, 229 136.545, 229 130.906 C 229 124.654, 229.237 123.751, 231 123.290 C 232.417 122.919, 233 121.926, 233 119.883 C 233 117.987, 233.513 117, 234.500 117 C 235.356 117, 236 116.101, 236 114.906 C 236 113.654, 236.803 112.603, 238 112.290 C 239.524 111.891, 240 110.926, 240 108.235 L 240 104.704 231.750 105.346 C 227.213 105.699, 222.262 105.991, 220.750 105.994 C 218.975 105.998, 218 106.532, 218 107.500 C 218 108.722, 216.333 109, 209 109 C 202.004 109, 200 109.308, 200 110.383 C 200 112.210, 196.865 112.970, 189.250 112.986 C 184.367 112.997, 183 113.328, 183 114.500 C 183 115.700, 181.500 116, 175.500 116 C 168.667 116, 168 116.178, 168 118 C 168 119.619, 167.333 120, 164.500 120 L 161 120 161 112.500 C 161 106.500, 161.300 105, 162.500 105 C 163.510 105, 164 103.990, 164 101.906 C 164 99.654, 164.544 98.671, 166 98.290 C 167.100 98.002, 168 97.144, 168 96.383 C 168 95.623, 168.623 95, 169.383 95 C 170.144 95, 171.002 94.100, 171.290 93 C 171.577 91.900, 172.530 91, 173.406 91 C 175.831 91, 175.308 88.316, 172.750 87.630 C 171.512 87.299, 170.050 87.097, 169.500 87.182 C 168.950 87.267, 166.813 87.513, 164.750 87.728 M 110 96.500 C 110 97.575, 108.903 98, 106.125 98 C 100.228 98, 96 99.096, 96 100.625 C 96 101.625, 94.500 102, 90.500 102 C 86.484 102, 85 102.373, 85 103.383 C 85 104.886, 82.039 105.965, 77.858 105.986 C 75.880 105.997, 75.059 106.628, 74.589 108.500 C 73.753 111.831, 74.876 116, 76.608 116 C 77.565 116, 78 117.250, 78 120 C 78 123.544, 78.271 124, 80.375 124 C 84.880 124, 89 122.746, 89 121.375 C 89 120.470, 90.197 120, 92.500 120 C 94.813 120, 96 119.531, 96 118.617 C 96 117.856, 96.900 116.998, 98 116.710 C 99.100 116.423, 100 115.470, 100 114.594 C 100 113.439, 100.964 113, 103.500 113 C 106.333 113, 107 112.619, 107 111 C 107 109.889, 107.667 109, 108.500 109 C 109.325 109, 110 108.283, 110 107.406 C 110 106.530, 110.900 105.577, 112 105.290 C 113.417 104.919, 114 103.926, 114 101.883 C 114 99.987, 114.513 99, 115.500 99 C 116.333 99, 117 98.111, 117 97 C 117 95.381, 116.333 95, 113.500 95 C 111.056 95, 110 95.452, 110 96.500" stroke="none" fill="black" fill-rule="evenodd"/>
</svg>