<svg xmlns="http://www.w3.org/2000/svg" width="300" height="300" viewBox="0 0 300 300" version="1.1">
	<path d="M 123 43.421 C 123 44.202, 121.650 45.138, 120 45.500 C 118.350 45.862, 117 46.798, 117 47.579 C 117 48.361, 116.100 49, 115 49 C 113.667 49, 113 49.667, 113 51 C 113 52.333, 112.333 53, 111 53 C 109.667 53, 109 53.667, 109 55 C 109 56.100, 108.361 57, 107.579 57 C 106.798 57, 105.862 58.350, 105.500 60 C 105.138 61.650, 104.202 63, 103.421 63 C 102.639 63, 102 63.900, 102 65 C 102 66.100, 101.345 67, 100.545 67 C 99.675 67, 98.827 68.405, 98.434 70.500 C 98.058 72.505, 97.184 74, 96.389 74 C 95.625 74, 95 74.900, 95 76 C 95 77.333, 94.333 78, 93 78 C 91.381 78, 91 78.667, 91 81.500 C 91 84.333, 90.619 85, 89 85 C 87.889 85, 87 85.667, 87 86.500 C 87 87.325, 86.325 88, 85.500 88 C 84.567 88, 84 88.944, 84 90.500 C 84 91.993, 83.428 93, 82.579 93 C 81.798 93, 80.862 94.350, 80.500 96 C 80.138 97.650, 79.202 99, 78.421 99 C 77.639 99, 77 99.900, 77 101 C 77 102.333, 76.333 103, 75 103 C 73.667 103, 73 103.667, 73 105 C 73 106.333, 72.333 107, 71 107 C 69.889 107, 69 107.667, 69 108.500 C 69 109.325, 68.325 110, 67.500 110 C 66.667 110, 66 110.889, 66 112 C 66 113.333, 65.333 114, 64 114 C 62.889 114, 62 114.667, 62 115.500 C 62 116.325, 61.325 117, 60.500 117 C 59.567 117, 59 117.944, 59 119.500 C 59 121.056, 58.433 122, 57.500 122 C 56.675 122, 56 122.450, 56 123 C 56 123.550, 56.675 124, 57.500 124 C 58.325 124, 59 123.570, 59 123.045 C 59 122.520, 60.575 121.795, 62.500 121.434 C 64.425 121.073, 66 120.203, 66 119.500 C 66 118.797, 67.575 117.927, 69.500 117.566 C 71.595 117.173, 73 116.325, 73 115.455 C 73 114.655, 73.900 114, 75 114 C 76.333 114, 77 113.333, 77 112 C 77 110.889, 77.667 110, 78.500 110 C 79.325 110, 80 109.325, 80 108.500 C 80 107.667, 80.889 107, 82 107 C 83.619 107, 84 106.333, 84 103.500 C 84 100.667, 84.381 100, 86 100 C 87.333 100, 88 99.333, 88 98 C 88 96.889, 88.667 96, 89.500 96 C 90.325 96, 91 95.283, 91 94.406 C 91 93.530, 91.900 92.577, 93 92.290 C 94.417 91.919, 95 90.926, 95 88.883 C 95 86.912, 95.504 86, 96.594 86 C 97.470 86, 98.423 85.100, 98.710 84 C 98.998 82.900, 99.856 82, 100.617 82 C 101.377 82, 102 81.100, 102 80 C 102 78.900, 102.655 78, 103.455 78 C 104.325 78, 105.173 76.595, 105.566 74.500 C 105.942 72.495, 106.816 71, 107.611 71 C 108.375 71, 109 70.100, 109 69 C 109 67.667, 109.667 67, 111 67 C 112.333 67, 113 66.333, 113 65 C 113 63.900, 113.639 63, 114.421 63 C 115.202 63, 116.138 61.650, 116.500 60 C 116.862 58.350, 117.798 57, 118.579 57 C 119.361 57, 120 56.100, 120 55 C 120 53.381, 120.667 53, 123.500 53 C 126.333 53, 127 52.619, 127 51 C 127 49.667, 127.667 49, 129 49 C 130.619 49, 131 48.333, 131 45.500 C 131 42.083, 130.905 42, 127 42 C 124.211 42, 123 42.430, 123 43.421 M 193.750 74.689 C 192.296 75.069, 192 76.317, 192 82.073 C 192 86.955, 192.369 88.996, 193.250 88.986 C 196.160 88.955, 199 87.669, 199 86.383 C 199 85.398, 200.366 85.004, 203.750 85.014 C 209.923 85.031, 213 85.897, 213 87.617 C 213 88.531, 214.187 89, 216.500 89 C 218.944 89, 220 89.452, 220 90.500 C 220 91.333, 220.889 92, 222 92 C 223.619 92, 224 91.333, 224 88.500 C 224 86.056, 223.548 85, 222.500 85 C 221.675 85, 221 84.375, 221 83.611 C 221 82.816, 219.505 81.942, 217.500 81.566 C 215.405 81.173, 214 80.325, 214 79.455 C 214 78.655, 213.100 78, 212 78 C 210.900 78, 210 77.377, 210 76.617 C 210 75.856, 208.988 74.962, 207.750 74.630 C 205.223 73.953, 196.426 73.990, 193.750 74.689 M 131 87.500 C 131 91.722, 131.348 93, 132.500 93 C 133.510 93, 134 94.010, 134 96.094 C 134 98.346, 134.544 99.329, 136 99.710 C 137.392 100.074, 138 101.074, 138 103 C 138 104.926, 138.608 105.926, 140 106.290 C 141.197 106.603, 142 107.654, 142 108.906 C 142 110.101, 142.644 111, 143.500 111 C 144.325 111, 145 111.675, 145 112.500 C 145 113.325, 145.623 114, 146.383 114 C 147.653 114, 148.953 116.830, 148.986 119.666 C 148.996 120.473, 145.253 120.935, 136.832 121.166 C 128.233 121.402, 124.542 121.867, 124.249 122.750 C 123.757 124.230, 120 124.451, 120 123 C 120 122.450, 119.325 122, 118.500 122 C 117.675 122, 117 122.394, 117 122.875 C 117 124.104, 111.283 125.109, 108.402 124.386 C 105.803 123.734, 105.097 122, 107.430 122 C 108.217 122, 109.005 120.987, 109.180 119.750 C 109.440 117.921, 110.155 117.488, 113 117.437 C 118.986 117.328, 120 117.047, 120 115.500 C 120 114.452, 118.944 114, 116.500 114 C 113.667 114, 113 113.619, 113 112 C 113 110.242, 112.333 110, 107.500 110 C 102.667 110, 102 110.242, 102 112 C 102 113.333, 101.333 114, 100 114 C 98.242 114, 98 114.667, 98 119.500 L 98 125 91 125 C 85.444 125, 84 125.310, 84 126.500 C 84 127.769, 81.577 128.002, 68.250 128.014 C 51.331 128.028, 48 128.456, 48 130.617 C 48 131.377, 47.325 132, 46.500 132 C 45.675 132, 45 132.675, 45 133.500 C 45 134.325, 45.675 135, 46.500 135 C 47.333 135, 48 135.889, 48 137 C 48 138.852, 48.667 139, 57 139 C 64.333 139, 66 138.722, 66 137.500 C 66 136.255, 67.931 136, 77.375 136 C 90.446 136, 95 135.322, 95 133.375 C 95 132.619, 95.619 132, 96.375 132 C 97.746 132, 99 136.120, 99 140.625 C 99 142.069, 99.588 143, 100.500 143 C 101.690 143, 102 144.444, 102 150 C 102 156.333, 101.810 157, 100 157 C 98.381 157, 98 157.667, 98 160.500 C 98 162.944, 97.548 164, 96.500 164 C 95.667 164, 95 164.889, 95 166 C 95 167.333, 94.333 168, 93 168 C 91.242 168, 91 168.667, 91 173.500 C 91 177.722, 90.652 179, 89.500 179 C 88.425 179, 88 180.097, 88 182.875 C 88 188.772, 86.904 193, 85.375 193 C 84.310 193, 84 195.030, 84 202 C 84 209.333, 84.278 211, 85.500 211 C 86.412 211, 87 211.931, 87 213.375 C 87 217.880, 88.254 222, 89.625 222 C 90.381 222, 91 222.900, 91 224 C 91 225.100, 91.655 226, 92.455 226 C 93.325 226, 94.173 227.405, 94.566 229.500 C 95.041 232.033, 95.745 233, 97.111 233 C 98.150 233, 99 233.675, 99 234.500 C 99 235.325, 99.675 236, 100.500 236 C 101.333 236, 102 236.889, 102 238 C 102 239.333, 102.667 240, 104 240 C 105.100 240, 106 240.623, 106 241.383 C 106 242.911, 108.974 243.965, 113.344 243.986 C 115.353 243.996, 116.341 243.413, 116.710 242 C 116.998 240.900, 117.856 240, 118.617 240 C 119.743 240, 120 236.659, 120 222 C 120 207.368, 119.742 204, 118.621 204 C 117.545 204, 117.082 200.807, 116.517 189.500 C 115.947 178.104, 115.493 175, 114.396 175 C 113.290 175, 113 172.819, 113 164.500 C 113 155.833, 113.262 154, 114.500 154 C 115.333 154, 116 153.111, 116 152 C 116 150.667, 116.667 150, 118 150 C 119.619 150, 120 149.333, 120 146.500 C 120 144.056, 120.452 143, 121.500 143 C 122.333 143, 123 142.111, 123 141 C 123 139.444, 122.333 139, 120 139 C 117.922 139, 117 139.490, 117 140.594 C 117 141.470, 116.100 142.423, 115 142.710 C 113.900 142.998, 113 143.856, 113 144.617 C 113 145.377, 112.100 146, 111 146 C 109.190 146, 109 145.333, 109 139 L 109 132 119.500 132 C 127.718 132, 130 131.703, 130 130.632 C 130 128.926, 141.447 128.049, 154.203 128.776 C 160.712 129.147, 163 129.631, 163 130.639 C 163 131.387, 162.048 132, 160.883 132 C 159.176 132, 158.883 132.435, 159.370 134.250 C 159.701 135.488, 159.979 137.063, 159.986 137.750 C 159.994 138.438, 160.623 139, 161.383 139 C 162.144 139, 163.002 139.900, 163.290 141 C 163.577 142.100, 164.530 143, 165.406 143 C 166.333 143, 167 143.837, 167 145 C 167 146.111, 167.667 147, 168.500 147 C 169.325 147, 170 147.675, 170 148.500 C 170 149.333, 170.889 150, 172 150 C 173.619 150, 174 150.667, 174 153.500 C 174 156.333, 174.381 157, 176 157 C 177.333 157, 178 157.667, 178 159 C 178 160.100, 178.625 161, 179.389 161 C 180.184 161, 181.058 162.495, 181.434 164.500 C 181.827 166.595, 182.675 168, 183.545 168 C 184.345 168, 185 168.675, 185 169.500 C 185 170.325, 185.675 171, 186.500 171 C 187.583 171, 188 172.111, 188 175 C 188 177.889, 187.583 179, 186.500 179 C 185.675 179, 185 179.717, 185 180.594 C 185 181.470, 184.100 182.423, 183 182.710 C 181.900 182.998, 181 183.856, 181 184.617 C 181 185.377, 180.375 186, 179.611 186 C 178.822 186, 177.945 187.478, 177.580 189.428 C 177.060 192.196, 176.366 192.980, 173.968 193.507 C 172.336 193.866, 171 194.798, 171 195.579 C 171 196.570, 169.789 197, 167 197 C 163.667 197, 163 196.667, 163 195 C 163 193.900, 162.381 193, 161.625 193 C 159.984 193, 158.954 197.410, 159.700 201.250 C 160.220 203.932, 160.403 204, 167.117 204 C 172.323 204, 174 203.662, 174 202.611 C 174 201.816, 175.495 200.942, 177.500 200.566 C 179.595 200.173, 181 199.325, 181 198.455 C 181 197.655, 181.900 197, 183 197 C 184.333 197, 185 196.333, 185 195 C 185 193.900, 185.655 193, 186.455 193 C 187.325 193, 188.173 191.595, 188.566 189.500 C 189.210 186.067, 189.316 186, 194.111 186 C 198.774 186, 199.001 186.127, 199.014 188.750 C 199.039 193.917, 200.139 196.078, 203.039 196.658 C 205.240 197.098, 205.950 197.918, 206.454 200.607 C 206.831 202.618, 207.683 204, 208.545 204 C 209.345 204, 210 204.900, 210 206 C 210 207.100, 210.655 208, 211.455 208 C 212.325 208, 213.173 209.405, 213.566 211.500 C 213.942 213.505, 214.816 215, 215.611 215 C 216.375 215, 217 215.689, 217 216.531 C 217 217.374, 217.648 218.311, 218.439 218.615 C 219.230 218.919, 220.166 220.479, 220.518 222.084 C 220.871 223.688, 221.798 225, 222.579 225 C 223.361 225, 224 225.942, 224 227.094 C 224 228.346, 224.803 229.397, 226 229.710 C 227.417 230.081, 228 231.074, 228 233.117 C 228 234.933, 228.522 236, 229.412 236 C 230.280 236, 231.085 237.541, 231.500 240 C 231.915 242.459, 232.720 244, 233.588 244 C 234.365 244, 235 244.689, 235 245.531 C 235 246.374, 235.648 247.311, 236.439 247.615 C 237.230 247.919, 238.166 249.479, 238.518 251.084 C 238.871 252.688, 239.798 254, 240.579 254 C 241.361 254, 242 254.900, 242 256 C 242 257.667, 242.667 258, 246 258 C 249.333 258, 250 257.667, 250 256 C 250 254.889, 250.667 254, 251.500 254 C 252.633 254, 253 252.778, 253 249 C 253 245.092, 252.652 244, 251.406 244 C 250.530 244, 249.577 243.100, 249.290 242 C 248.610 239.401, 246 239.401, 246 242 C 246 244.622, 242.976 244.622, 242.290 242 C 242.002 240.900, 241.144 240, 240.383 240 C 239.478 240, 239 238.831, 239 236.617 C 239 234.074, 238.503 233.103, 237 232.710 C 235.544 232.329, 235 231.346, 235 229.094 C 235 227.010, 234.510 226, 233.500 226 C 232.667 226, 232 225.111, 232 224 C 232 222.667, 231.333 222, 230 222 C 228.381 222, 228 221.333, 228 218.500 C 228 216.056, 227.548 215, 226.500 215 C 225.667 215, 225 214.111, 225 213 C 225 211.667, 224.333 211, 223 211 C 221.381 211, 221 210.333, 221 207.500 C 221 204.667, 220.619 204, 219 204 C 217.381 204, 217 203.333, 217 200.500 C 217 198.056, 216.548 197, 215.500 197 C 214.667 197, 214 196.111, 214 195 C 214 193.667, 213.333 193, 212 193 C 210.381 193, 210 192.333, 210 189.500 C 210 187.056, 209.548 186, 208.500 186 C 207.675 186, 207 185.283, 207 184.406 C 207 183.530, 206.100 182.577, 205 182.290 C 203.565 181.914, 203 180.926, 203 178.790 C 203 176.654, 202.435 175.665, 201 175.290 C 199.900 175.002, 199 174.102, 199 173.290 C 199 172.477, 199.900 171.577, 201 171.290 C 202.417 170.919, 203 169.926, 203 167.883 C 203 165.987, 203.513 165, 204.500 165 C 205.333 165, 206 164.111, 206 163 C 206 161.667, 206.667 161, 208 161 C 209.619 161, 210 160.333, 210 157.500 C 210 154.667, 210.381 154, 212 154 C 213.333 154, 214 153.333, 214 152 C 214 150.667, 214.667 150, 216 150 C 217.111 150, 218 149.333, 218 148.500 C 218 147.675, 218.675 147, 219.500 147 C 220.333 147, 221 146.111, 221 145 C 221 143.381, 221.667 143, 224.500 143 C 226.944 143, 228 142.548, 228 141.500 C 228 140.452, 229.056 140, 231.500 140 C 233.944 140, 235 140.452, 235 141.500 C 235 143.086, 239.433 143.527, 243.750 142.370 C 246.327 141.679, 246.792 140, 244.406 140 C 243.530 140, 242.588 139.142, 242.314 138.094 C 241.997 136.880, 240.579 135.956, 238.408 135.549 C 236.386 135.169, 235 134.318, 235 133.455 C 235 132.358, 233.646 132, 229.500 132 C 225.415 132, 224 132.365, 224 133.421 C 224 134.202, 222.650 135.138, 221 135.500 C 219.350 135.862, 218 136.798, 218 137.579 C 218 138.361, 217.100 139, 216 139 C 214.667 139, 214 139.667, 214 141 C 214 142.333, 213.333 143, 212 143 C 210.667 143, 210 143.667, 210 145 C 210 146.100, 209.361 147, 208.579 147 C 207.798 147, 206.872 148.304, 206.522 149.898 C 206.152 151.584, 205.073 153.009, 203.943 153.305 C 202.874 153.584, 202 154.530, 202 155.406 C 202 156.283, 201.325 157, 200.500 157 C 199.667 157, 199 157.889, 199 159 C 199 160.111, 198.333 161, 197.500 161 C 196.675 161, 196 161.675, 196 162.500 C 196 163.333, 195.111 164, 194 164 C 192.667 164, 192 163.333, 192 162 C 192 160.900, 191.361 160, 190.579 160 C 189.798 160, 188.862 158.650, 188.500 157 C 188.138 155.350, 187.252 154, 186.532 154 C 185.812 154, 184.927 152.425, 184.566 150.500 C 184.173 148.405, 183.325 147, 182.455 147 C 181.655 147, 181 146.100, 181 145 C 181 143.889, 180.333 143, 179.500 143 C 178.675 143, 178 142.283, 178 141.406 C 178 140.530, 177.100 139.577, 176 139.290 C 174.893 139, 174 137.926, 174 136.883 C 174 135.848, 173.325 135, 172.500 135 C 171.675 135, 171 134.325, 171 133.500 C 171 132.667, 170.111 132, 169 132 C 167.381 132, 167 131.333, 167 128.500 L 167 125 179.500 125 C 189.944 125, 192 125.247, 192 126.500 C 192 127.548, 190.944 128, 188.500 128 C 185.667 128, 185 128.381, 185 130 C 185 131.893, 185.667 132, 197.500 132 C 207.476 132, 210 131.721, 210 130.617 C 210 129.856, 210.900 128.998, 212 128.710 C 213.100 128.423, 214 127.470, 214 126.594 C 214 125.717, 214.675 125, 215.500 125 C 216.537 125, 217 123.959, 217 121.629 L 217 118.258 207.750 117.531 C 202.662 117.130, 189.731 116.960, 179.014 117.152 C 161.090 117.472, 159.501 117.360, 159.191 115.750 C 159.005 114.787, 158.211 114, 157.427 114 C 156.642 114, 156 113.100, 156 112 C 156 110.900, 155.345 110, 154.545 110 C 153.675 110, 152.827 108.595, 152.434 106.500 C 152.073 104.575, 151.205 103, 150.505 103 C 149.806 103, 148.998 102.100, 148.710 101 C 148.423 99.900, 147.470 99, 146.594 99 C 145.490 99, 145 98.078, 145 96 C 145 94, 144.500 93, 143.500 93 C 142.477 93, 141.996 91.966, 141.986 89.750 C 141.958 82.914, 141.238 82, 135.883 82 L 131 82 131 87.500 M 102 170 C 102 171.100, 101.377 172, 100.615 172 C 99.687 172, 99.004 173.812, 98.543 177.500 C 98.100 181.047, 97.387 183, 96.534 183 C 95.576 183, 95.110 185.250, 94.841 191.172 C 94.600 196.482, 94.037 199.488, 93.235 199.755 C 91.316 200.395, 91.566 211, 93.500 211 C 94.548 211, 95 212.056, 95 214.500 C 95 216.944, 95.452 218, 96.500 218 C 97.333 218, 98 218.889, 98 220 C 98 221.333, 98.667 222, 100 222 C 101.333 222, 102 222.667, 102 224 C 102 225.111, 102.667 226, 103.500 226 C 104.325 226, 105 226.675, 105 227.500 C 105 228.333, 105.889 229, 107 229 C 108.333 229, 109 229.667, 109 231 C 109 232.333, 109.667 233, 111 233 C 112.872 233, 113 232.333, 113 222.550 C 113 213.636, 112.743 211.956, 111.250 211.121 C 109.793 210.307, 109.443 208.376, 109.159 199.572 C 108.892 191.306, 108.511 189, 107.409 189 C 106.377 189, 105.998 187.595, 105.991 183.750 C 105.976 174.745, 104.850 168, 103.361 168 C 102.612 168, 102 168.900, 102 170" stroke="none" fill="black" fill-rule="evenodd"/>
</svg>