<svg xmlns="http://www.w3.org/2000/svg" width="300" height="300" viewBox="0 0 300 300" version="1.1">
	<path d="M 132.750 44.666 C 131.644 44.970, 130.995 46.132, 130.986 47.823 C 130.965 52.037, 129.890 55, 128.383 55 C 127.276 55, 127 57.598, 127 68 C 127 78.313, 126.718 81, 125.636 81 C 124.566 81, 124.172 84.184, 123.810 95.750 C 123.557 103.862, 123.548 113.537, 123.791 117.250 C 124.218 123.767, 124.324 124, 126.866 123.986 C 131.040 123.965, 134 122.885, 134 121.383 C 134 120.623, 133.325 120, 132.500 120 C 131.247 120, 131 117.944, 131 107.500 L 131 95 136.500 95 C 140.516 95, 142 94.627, 142 93.617 C 142 91.682, 145.196 91.029, 154.750 91.014 C 161.411 91.003, 163 90.711, 163 89.500 C 163 88.262, 164.828 88, 173.455 88 L 183.909 88 184.566 91.500 C 184.942 93.505, 185.816 95, 186.611 95 C 187.375 95, 188 95.675, 188 96.500 C 188 97.333, 188.889 98, 190 98 C 191.852 98, 192 97.333, 192 89 C 192 80.667, 191.852 80, 190 80 C 188.889 80, 188 79.333, 188 78.500 C 188 77.367, 186.778 77, 183 77 C 179.222 77, 178 77.367, 178 78.500 C 178 79.652, 176.722 80, 172.500 80 C 168.278 80, 167 79.652, 167 78.500 C 167 77.667, 166.111 77, 165 77 C 163.889 77, 163 77.667, 163 78.500 C 163 79.765, 160.709 80, 148.383 80 L 133.767 80 134.370 77.750 C 134.701 76.513, 134.979 73.362, 134.986 70.750 C 134.997 67.201, 135.379 66, 136.500 66 C 137.652 66, 138 64.722, 138 60.500 C 138 56.354, 138.358 55, 139.455 55 C 140.983 55, 142.458 49.639, 141.834 46.350 C 141.478 44.470, 136.695 43.584, 132.750 44.666 M 86.250 94.685 C 84.243 95.090, 84 95.736, 84 100.661 L 84 106.184 88.750 105.928 C 96.061 105.534, 98 105.863, 98 107.500 C 98 108.583, 99.111 109, 102 109 C 105.905 109, 106 108.917, 106 105.500 C 106 102.667, 105.619 102, 104 102 C 102.667 102, 102 101.333, 102 100 C 102 98.667, 101.333 98, 100 98 C 98.889 98, 98 97.333, 98 96.500 C 98 95.534, 97.022 94.995, 95.250 94.986 C 93.737 94.979, 91.600 94.806, 90.500 94.602 C 89.400 94.398, 87.487 94.436, 86.250 94.685 M 149 118 C 149 119.333, 148.333 120, 147 120 C 145.667 120, 145 120.667, 145 122 C 145 123.100, 144.371 124, 143.601 124 C 142.604 124, 142.002 126.005, 141.500 131 C 140.998 135.995, 140.396 138, 139.399 138 C 138.325 138, 138 139.742, 138 145.500 C 138 152.333, 137.822 153, 136 153 C 134.889 153, 134 153.667, 134 154.500 C 134 155.690, 132.556 156, 127 156 C 120.667 156, 120 156.190, 120 158 C 120 159.333, 119.333 160, 118 160 C 116.889 160, 116 160.667, 116 161.500 C 116 162.325, 115.381 163, 114.625 163 C 113.196 163, 111.591 168.530, 112.563 170.103 C 113.774 172.061, 124 170.516, 124 168.375 C 124 167.470, 125.197 167, 127.500 167 C 130.333 167, 131 166.619, 131 165 C 131 163.381, 131.667 163, 134.500 163 L 138 163 138 179 C 138 192.181, 138.251 195, 139.425 195 C 140.500 195, 141.022 197.207, 141.554 204 C 142.071 210.615, 142.621 213, 143.629 213 C 144.383 213, 145 213.848, 145 214.883 C 145 215.926, 145.893 217, 147 217.290 C 148.100 217.577, 149 218.530, 149 219.406 C 149 220.283, 149.675 221, 150.500 221 C 151.325 221, 152 221.625, 152 222.389 C 152 223.184, 153.495 224.058, 155.500 224.434 C 157.595 224.827, 159 225.675, 159 226.545 C 159 227.657, 160.416 228, 165 228 C 169.378 228, 171 228.366, 171 229.353 C 171 231.291, 181.643 232, 210.744 232 C 234.346 232, 235.205 231.931, 235.710 230 C 235.998 228.900, 236.856 228, 237.617 228 C 238.531 228, 239 226.813, 239 224.500 L 239 221 204.500 221 C 175.793 221, 170 220.768, 170 219.617 C 170 218.101, 167.032 217.035, 162.750 217.014 C 160.978 217.005, 160 216.466, 160 215.500 C 160 214.667, 159.111 214, 158 214 C 156.381 214, 156 213.333, 156 210.500 C 156 207.964, 155.561 207, 154.406 207 C 153.530 207, 152.577 206.100, 152.290 205 C 152.002 203.900, 151.144 203, 150.383 203 C 149.308 203, 149 200.996, 149 194 C 149 187.076, 148.686 185, 147.639 185 C 146.745 185, 146.063 183.202, 145.648 179.750 C 144.707 171.917, 144.852 170, 146.383 170 C 148.103 170, 148.969 166.923, 148.986 160.750 L 149 156 154.500 156 C 158.722 156, 160 155.652, 160 154.500 C 160 153.588, 160.931 153, 162.375 153 C 166.880 153, 171 151.746, 171 150.375 C 171 149.470, 172.197 149, 174.500 149 C 177.333 149, 178 149.381, 178 151 C 178 152.111, 178.667 153, 179.500 153 C 180.690 153, 181 154.444, 181 160 C 181 165.556, 180.690 167, 179.500 167 C 178.236 167, 178 169.278, 178 181.500 C 178 195.333, 178.092 196, 180 196 C 181.111 196, 182 196.667, 182 197.500 C 182 199.698, 183.680 199.331, 184.290 197 C 184.577 195.900, 185.530 195, 186.406 195 C 187.784 195, 188.001 193.205, 188.006 181.750 C 188.015 162.805, 188.974 152, 190.648 152 C 191.526 152, 192 150.774, 192 148.500 L 192 145 199 145 C 204.556 145, 206 144.690, 206 143.500 C 206 142.278, 207.667 142, 215 142 L 224 142 224 149 C 224 154.556, 223.690 156, 222.500 156 C 221.348 156, 221 157.278, 221 161.500 C 221 166.333, 220.758 167, 219 167 C 217.381 167, 217 167.667, 217 170.500 C 217 172.944, 216.548 174, 215.500 174 C 214.452 174, 214 175.056, 214 177.500 C 214 180.333, 213.619 181, 212 181 C 210.667 181, 210 181.667, 210 183 C 210 184.619, 209.333 185, 206.500 185 C 203.167 185, 203 185.167, 203 188.500 L 203 192 208.500 192 C 213.333 192, 214 191.758, 214 190 C 214 188.889, 214.667 188, 215.500 188 C 216.325 188, 217 187.325, 217 186.500 C 217 185.667, 217.889 185, 219 185 C 220.333 185, 221 184.333, 221 183 C 221 181.889, 221.667 181, 222.500 181 C 223.466 181, 224.005 180.022, 224.014 178.250 C 224.035 173.968, 225.101 171, 226.617 171 C 227.564 171, 228 169.739, 228 167 C 228 164.261, 228.436 163, 229.383 163 C 231.103 163, 231.969 159.923, 231.986 153.750 C 231.997 150.201, 232.379 149, 233.500 149 C 234.548 149, 235 147.944, 235 145.500 C 235 143.056, 234.548 142, 233.500 142 C 232.667 142, 232 141.111, 232 140 C 232 138.667, 231.333 138, 230 138 C 228.900 138, 228 137.353, 228 136.561 C 228 134.420, 221.017 133.709, 206.217 134.343 C 189.426 135.062, 189.201 134.993, 188.391 128.889 C 187.760 124.132, 187.651 124, 184.371 124 C 182.041 124, 181 124.463, 181 125.500 C 181 126.325, 180.325 127, 179.500 127 C 178.348 127, 178 128.278, 178 132.500 C 178 137.333, 177.758 138, 176 138 C 174.667 138, 174 138.667, 174 140 C 174 141.758, 173.333 142, 168.500 142 C 164.278 142, 163 142.348, 163 143.500 C 163 144.548, 161.944 145, 159.500 145 C 157.187 145, 156 145.469, 156 146.383 C 156 147.669, 153.160 148.955, 150.250 148.986 C 149.342 148.996, 149 146.541, 149 140 C 149 132.667, 149.278 131, 150.500 131 C 151.538 131, 152 129.957, 152 127.611 C 152 124.530, 152.318 124.163, 155.500 123.566 C 158.524 122.999, 159 122.523, 159 120.071 C 159 117.048, 157.201 116.041, 151.750 116.014 C 149.662 116.003, 149 116.482, 149 118 M 70 121.594 C 70 122.470, 69.100 123.423, 68 123.710 C 66.497 124.103, 66 125.074, 66 127.617 L 66 131 76.500 131 C 85.441 131, 87 131.237, 87 132.594 C 87 133.470, 87.900 134.423, 89 134.710 C 90.857 135.196, 91 136.074, 91 147 C 91 157.926, 91.143 158.804, 93 159.290 C 94.670 159.726, 95 160.654, 95 164.906 C 95 168.767, 95.363 170, 96.500 170 C 97.605 170, 98 171.153, 98 174.375 C 98 180.741, 99.052 185, 100.625 185 C 101.530 185, 102 186.197, 102 188.500 C 102 190.803, 101.530 192, 100.625 192 C 99.052 192, 98 196.259, 98 202.625 C 98 205.738, 97.590 207, 96.579 207 C 95.798 207, 94.862 208.350, 94.500 210 C 94.138 211.650, 93.202 213, 92.421 213 C 91.639 213, 91 213.900, 91 215 C 91 216.111, 90.333 217, 89.500 217 C 88.675 217, 88 217.717, 88 218.594 C 88 219.470, 87.100 220.423, 86 220.710 C 84.900 220.998, 84 221.856, 84 222.617 C 84 223.377, 83.100 224, 82 224 C 80.667 224, 80 224.667, 80 226 C 80 227.111, 79.333 228, 78.500 228 C 77.675 228, 77 227.365, 77 226.588 C 77 224.864, 70.281 223.560, 66.115 224.475 C 64.126 224.912, 62.991 225.900, 62.575 227.559 C 61.751 230.839, 62.889 235, 64.608 235 C 65.374 235, 66 235.900, 66 237 C 66 238.810, 66.667 239, 73 239 C 78.556 239, 80 239.310, 80 240.500 C 80 241.605, 81.153 242, 84.375 242 C 90.741 242, 95 243.052, 95 244.625 C 95 245.608, 96.424 246, 100 246 C 103.576 246, 105 246.392, 105 247.375 C 105 248.804, 109.159 250, 114.125 250 C 116.014 250, 117 250.514, 117 251.500 C 117 252.704, 118.530 253.001, 124.750 253.006 C 139.178 253.017, 149 254.142, 149 255.782 C 149 257.053, 151.253 257.199, 164.592 256.794 C 175.979 256.448, 180.403 255.965, 180.997 255.005 C 181.620 253.997, 187.664 253.578, 206.905 253.208 C 224.381 252.871, 231.996 252.387, 231.986 251.612 C 231.979 251.001, 231.701 249.488, 231.370 248.250 C 230.818 246.193, 230.176 246, 223.883 246 C 218.431 246, 217 245.688, 217 244.500 C 217 243.310, 215.556 243, 210 243 C 204.444 243, 203 243.310, 203 244.500 C 203 245.778, 200.333 246, 185 246 C 169.667 246, 167 246.222, 167 247.500 C 167 248.652, 165.722 249, 161.500 249 C 157.278 249, 156 248.652, 156 247.500 C 156 246.263, 154.180 246, 145.617 246 C 136.074 246, 135.191 245.838, 134.710 244 C 134.229 242.159, 133.346 242, 123.594 242 C 114.844 242, 113 241.739, 113 240.500 C 113 239.445, 111.934 239, 109.406 239 C 106.654 239, 105.690 238.532, 105.290 237 C 104.857 235.344, 103.926 235, 99.883 235 C 96.383 235, 95 234.607, 95 233.611 C 95 232.816, 93.505 231.942, 91.500 231.566 C 88.050 230.919, 86.413 228, 89.500 228 C 90.325 228, 91 227.377, 91 226.617 C 91 225.856, 91.900 224.998, 93 224.710 C 94.100 224.423, 95 223.470, 95 222.594 C 95 221.717, 95.675 221, 96.500 221 C 97.333 221, 98 220.111, 98 219 C 98 217.667, 98.667 217, 100 217 C 101.619 217, 102 216.333, 102 213.500 C 102 211.187, 102.469 210, 103.383 210 C 104.959 210, 105.966 207, 105.986 202.250 C 105.996 200.034, 106.477 199, 107.500 199 C 108.753 199, 109 196.944, 109 186.500 C 109 176.056, 108.753 174, 107.500 174 C 106.379 174, 105.997 172.799, 105.986 169.250 C 105.969 163.077, 105.103 160, 103.383 160 C 102.373 160, 102 158.516, 102 154.500 C 102 150.278, 101.652 149, 100.500 149 C 99.358 149, 98.998 147.746, 98.991 143.750 C 98.987 140.863, 98.700 136.146, 98.354 133.270 C 97.757 128.294, 97.562 128.009, 94.363 127.408 C 92.463 127.052, 91 126.173, 91 125.389 C 91 124.594, 89.985 124, 88.625 124 C 84.120 124, 80 122.746, 80 121.375 C 80 120.392, 78.576 120, 75 120 C 71.092 120, 70 120.348, 70 121.594" stroke="none" fill="black" fill-rule="evenodd"/>
</svg>