<svg xmlns="http://www.w3.org/2000/svg" width="300" height="300" viewBox="0 0 300 300" version="1.1">
	<path d="M 114 43.500 C 114 44.325, 113.283 45, 112.406 45 C 111.530 45, 110.577 45.900, 110.290 47 C 110.002 48.100, 109.197 49, 108.500 49 C 107.803 49, 106.998 49.900, 106.710 51 C 106.423 52.100, 105.470 53, 104.594 53 C 103.717 53, 103 53.675, 103 54.500 C 103 55.325, 102.325 56, 101.500 56 C 100.667 56, 100 56.889, 100 58 C 100 59.333, 99.333 60, 98 60 C 96.381 60, 96 60.667, 96 63.500 C 96 66.333, 95.619 67, 94 67 C 92.667 67, 92 67.667, 92 69 C 92 70.111, 91.333 71, 90.500 71 C 89.452 71, 89 72.056, 89 74.500 C 89 77.333, 88.619 78, 87 78 C 85.381 78, 85 78.667, 85 81.500 C 85 83.820, 84.532 85, 83.611 85 C 82.816 85, 81.942 86.495, 81.566 88.500 C 81.173 90.595, 80.325 92, 79.455 92 C 78.468 92, 78 93.089, 78 95.383 C 78 97.926, 77.503 98.897, 76 99.290 C 74.900 99.577, 74 100.530, 74 101.406 C 74 102.283, 73.325 103, 72.500 103 C 71.667 103, 71 103.889, 71 105 C 71 106.100, 70.345 107, 69.545 107 C 68.675 107, 67.827 108.405, 67.434 110.500 C 66.837 113.682, 66.470 114, 63.389 114 C 60.667 114, 60 114.393, 60 116 C 60 117.333, 59.333 118, 58 118 C 56.381 118, 56 118.667, 56 121.500 C 56 124.333, 56.381 125, 58 125 C 59.111 125, 60 125.667, 60 126.500 C 60 127.333, 60.889 128, 62 128 C 63.111 128, 64 127.333, 64 126.500 C 64 125.367, 65.222 125, 69 125 C 73.333 125, 74 124.733, 74 123 C 74 121.333, 74.667 121, 78 121 C 80.889 121, 82 120.583, 82 119.500 C 82 118.310, 83.444 118, 89 118 L 96 118 96 130 C 96 140, 96.250 142, 97.500 142 C 98.799 142, 99 145.944, 99 171.500 C 99 197.056, 98.799 201, 97.500 201 C 96.224 201, 96 203.611, 96 218.500 C 96 233.389, 95.776 236, 94.500 236 C 93.675 236, 93 235.325, 93 234.500 C 93 233.667, 92.111 233, 91 233 C 89.092 233, 89 232.333, 89 218.500 C 89 204.550, 88.922 204, 86.950 204 C 84.932 204, 84.905 204.371, 85.200 228.572 C 85.471 250.747, 85.671 253.238, 87.250 254.121 C 88.212 254.659, 89 255.752, 89 256.550 C 89 257.347, 89.900 258, 91 258 C 92.100 258, 93 257.361, 93 256.579 C 93 255.798, 94.304 254.872, 95.898 254.522 C 99.179 253.802, 99.966 251.921, 99.986 244.750 C 99.996 241.409, 100.405 240, 101.366 240 C 102.344 240, 102.876 237.983, 103.240 232.887 C 103.562 228.395, 104.256 225.460, 105.125 224.924 C 106.227 224.243, 106.558 218.513, 106.795 196.038 L 107.089 168 110.545 168 C 113.333 168, 114 168.386, 114 170 C 114 171.333, 114.667 172, 116 172 C 117.111 172, 118 172.667, 118 173.500 C 118 174.690, 119.444 175, 125 175 L 132 175 132 178.500 C 132 181.333, 131.619 182, 130 182 C 128.667 182, 128 182.667, 128 184 C 128 185.111, 127.333 186, 126.500 186 C 123.470 186, 125.031 188.915, 128.400 189.547 C 133.885 190.576, 135.462 189.873, 135.813 186.242 C 136.017 184.135, 136.662 183, 137.657 183 C 138.499 183, 139.423 182.100, 139.710 181 C 139.998 179.900, 140.856 179, 141.617 179 C 142.377 179, 143 178.100, 143 177 C 143 175.900, 143.623 175, 144.383 175 C 145.144 175, 146.002 174.100, 146.290 173 C 146.577 171.900, 147.530 171, 148.406 171 C 149.496 171, 150 170.088, 150 168.117 C 150 166.074, 150.583 165.081, 152 164.710 C 153.100 164.423, 154 163.470, 154 162.594 C 154 161.717, 154.675 161, 155.500 161 C 156.538 161, 157 159.957, 157 157.617 C 157 155.074, 157.497 154.103, 159 153.710 C 160.100 153.423, 161 152.470, 161 151.594 C 161 150.717, 161.625 150, 162.389 150 C 163.184 150, 164.058 148.505, 164.434 146.500 C 164.827 144.405, 165.675 143, 166.545 143 C 167.345 143, 168 142.100, 168 141 C 168 139.900, 168.655 139, 169.455 139 C 170.325 139, 171.173 137.595, 171.566 135.500 C 171.942 133.495, 172.816 132, 173.611 132 C 174.375 132, 175 131.377, 175 130.617 C 175 129.856, 175.900 128.998, 177 128.710 C 178.435 128.335, 179 127.346, 179 125.210 C 179 122.035, 180.718 121.041, 186.250 121.014 C 188.860 121.001, 189.001 120.759, 189.014 116.250 C 189.031 110.195, 189.892 107, 191.505 107 C 192.205 107, 193.073 105.425, 193.434 103.500 C 193.827 101.405, 194.675 100, 195.545 100 C 196.345 100, 197 99.100, 197 98 C 197 96.889, 197.667 96, 198.500 96 C 199.555 96, 200 94.934, 200 92.406 C 200 89.654, 200.468 88.690, 202 88.290 C 203.656 87.857, 204 86.926, 204 82.883 C 204 78.577, 204.250 78, 206.116 78 C 208.096 78, 208.206 77.581, 207.822 71.538 C 207.595 67.984, 207.186 64.853, 206.912 64.579 C 206.639 64.305, 202.721 63.773, 198.207 63.397 C 192.302 62.904, 190 62.332, 190 61.356 C 190 60.482, 188.798 60, 186.617 60 C 184.074 60, 183.103 59.503, 182.710 58 C 182.272 56.324, 181.346 56, 177 56 C 172.654 56, 171.728 56.324, 171.290 58 C 171.002 59.100, 170.144 60, 169.383 60 C 168.623 60, 168 60.623, 168 61.383 C 168 62.144, 167.100 63.002, 166 63.290 C 164.468 63.690, 164 64.654, 164 67.406 C 164 69.934, 163.555 71, 162.500 71 C 161.675 71, 161 71.675, 161 72.500 C 161 73.325, 161.717 74, 162.594 74 C 163.470 74, 164.423 74.900, 164.710 76 C 165.297 78.245, 168 78.758, 168 76.625 C 168 74.674, 172.558 74, 185.750 74 L 197.250 74 196.606 77.221 C 196.251 78.993, 195.295 80.815, 194.481 81.271 C 193.619 81.753, 193 83.542, 193 85.550 C 193 87.902, 192.537 89, 191.545 89 C 190.675 89, 189.827 90.405, 189.434 92.500 C 189.058 94.505, 188.184 96, 187.389 96 C 186.468 96, 186 97.180, 186 99.500 C 186 102.333, 185.619 103, 184 103 C 182.667 103, 182 103.667, 182 105 C 182 106.111, 181.333 107, 180.500 107 C 179.452 107, 179 108.056, 179 110.500 L 179 114 173.500 114 C 169.278 114, 168 113.652, 168 112.500 C 168 111.675, 167.283 111, 166.406 111 C 165.530 111, 164.577 110.100, 164.290 109 C 163.848 107.312, 162.926 107, 158.383 107 L 153 107 153 110.500 C 153 113.333, 153.381 114, 155 114 C 156.333 114, 157 114.667, 157 116 C 157 117.619, 157.667 118, 160.500 118 C 162.944 118, 164 118.452, 164 119.500 C 164 120.548, 165.056 121, 167.500 121 C 170.333 121, 171 121.381, 171 123 C 171 124.111, 170.333 125, 169.500 125 C 168.452 125, 168 126.056, 168 128.500 C 168 131.333, 167.619 132, 166 132 C 164.667 132, 164 132.667, 164 134 C 164 135.111, 163.333 136, 162.500 136 C 161.675 136, 161 136.623, 161 137.383 C 161 138.144, 160.100 139.002, 159 139.290 C 157.565 139.665, 157 140.654, 157 142.790 C 157 144.926, 156.435 145.914, 155 146.290 C 153.900 146.577, 153 147.530, 153 148.406 C 153 149.283, 152.325 150, 151.500 150 C 150.667 150, 150 150.889, 150 152 C 150 153.100, 149.345 154, 148.545 154 C 147.675 154, 146.827 155.405, 146.434 157.500 C 146.058 159.505, 145.184 161, 144.389 161 C 143.468 161, 143 162.180, 143 164.500 L 143 168 134 168 C 126.987 168, 125 167.693, 125 166.611 C 125 165.816, 123.505 164.942, 121.500 164.566 C 119.405 164.173, 118 163.325, 118 162.455 C 118 161.655, 117.100 161, 116 161 C 114.667 161, 114 160.333, 114 159 C 114 157.667, 113.333 157, 112 157 C 110.889 157, 110 156.333, 110 155.500 C 110 154.675, 109.325 154, 108.500 154 C 107.217 154, 107 151.111, 107 134 L 107 114 127 114 C 144.111 114, 147 113.783, 147 112.500 C 147 111.675, 147.675 111, 148.500 111 C 149.333 111, 150 110.111, 150 109 C 150 107.667, 149.333 107, 148 107 C 146.900 107, 146 106.377, 146 105.617 C 146 104.856, 144.988 103.962, 143.750 103.630 C 140.182 102.674, 139 102.890, 139 104.500 C 139 105.548, 137.944 106, 135.500 106 C 133.056 106, 132 105.548, 132 104.500 C 132 103.452, 130.944 103, 128.500 103 C 126.056 103, 125 102.548, 125 101.500 C 125 100.675, 124.283 100, 123.406 100 C 122.530 100, 121.577 99.100, 121.290 98 C 121.002 96.900, 120.144 96, 119.383 96 C 118.623 96, 118 95.283, 118 94.406 C 118 93.530, 117.100 92.577, 116 92.290 C 114.900 92.002, 114 91.203, 114 90.513 C 114 88.986, 106.782 88.045, 100.500 88.753 C 96.157 89.242, 96 89.378, 96 92.630 C 96 94.959, 95.537 96, 94.500 96 C 93.348 96, 93 97.278, 93 101.500 C 93 106.333, 92.758 107, 91 107 C 89.889 107, 89 107.667, 89 108.500 C 89 109.652, 87.722 110, 83.500 110 C 79.278 110, 78 109.652, 78 108.500 C 78 107.675, 78.655 107, 79.455 107 C 80.325 107, 81.173 105.595, 81.566 103.500 C 81.927 101.575, 82.797 100, 83.500 100 C 84.203 100, 85.073 98.425, 85.434 96.500 C 85.827 94.405, 86.675 93, 87.545 93 C 88.345 93, 89 92.100, 89 91 C 89 89.900, 89.625 89, 90.389 89 C 91.184 89, 92.058 87.505, 92.434 85.500 C 92.827 83.405, 93.675 82, 94.545 82 C 95.345 82, 96 81.100, 96 80 C 96 78.900, 96.655 78, 97.455 78 C 98.325 78, 99.173 76.595, 99.566 74.500 C 99.942 72.495, 100.816 71, 101.611 71 C 102.375 71, 103 70.100, 103 69 C 103 67.667, 103.667 67, 105 67 C 106.619 67, 107 66.333, 107 63.500 C 107 60.167, 107.167 60, 110.500 60 C 112.813 60, 114 59.531, 114 58.617 C 114 57.856, 114.900 56.998, 116 56.710 C 117.100 56.423, 118 55.470, 118 54.594 C 118 53.717, 118.675 53, 119.500 53 C 120.652 53, 121 51.722, 121 47.500 L 121 42 117.500 42 C 115.056 42, 114 42.452, 114 43.500 M 107 94 C 107 95.100, 106.345 96, 105.545 96 C 104.004 96, 102.532 101.414, 103.193 104.650 C 103.478 106.046, 104.298 106.420, 106.536 106.174 C 108.166 105.995, 109.860 105.207, 110.300 104.424 C 111.357 102.541, 114 102.595, 114 104.500 C 114 106.965, 116.913 106.196, 117.575 103.557 C 118.288 100.716, 117.484 99, 115.441 99 C 114.648 99, 114 98.325, 114 97.500 C 114 96.667, 113.111 96, 112 96 C 110.667 96, 110 95.333, 110 94 C 110 92.889, 109.333 92, 108.500 92 C 107.667 92, 107 92.889, 107 94 M 233 105 C 233 106.333, 232.333 107, 231 107 C 229.900 107, 229 107.625, 229 108.389 C 229 109.184, 227.505 110.058, 225.500 110.434 C 222.476 111.001, 222 111.477, 222 113.929 C 222 115.926, 221.407 116.922, 220 117.290 C 218.900 117.577, 218 118.530, 218 119.406 C 218 120.283, 217.325 121, 216.500 121 C 215.667 121, 215 121.889, 215 123 C 215 124.333, 214.333 125, 213 125 C 211.381 125, 211 125.667, 211 128.500 C 211 131.333, 210.619 132, 209 132 C 207.242 132, 207 132.667, 207 137.500 L 207 143 217.950 143 C 227.340 143, 229.040 142.751, 229.878 141.250 C 230.709 139.764, 232.696 139.449, 243.070 139.163 L 255.285 138.826 254.642 142.038 C 254.289 143.805, 254 146.319, 254 147.625 C 254 149.069, 253.412 150, 252.500 150 C 251.452 150, 251 151.056, 251 153.500 C 251 156.333, 250.619 157, 249 157 C 247.381 157, 247 157.667, 247 160.500 C 247 162.944, 246.548 164, 245.500 164 C 244.667 164, 244 164.889, 244 166 C 244 167.333, 243.333 168, 242 168 C 240.381 168, 240 168.667, 240 171.500 C 240 173.896, 239.541 175, 238.545 175 C 237.675 175, 236.827 176.405, 236.434 178.500 C 236.058 180.505, 235.184 182, 234.389 182 C 233.625 182, 233 182.900, 233 184 C 233 185.100, 232.345 186, 231.545 186 C 230.675 186, 229.827 187.405, 229.434 189.500 C 228.837 192.682, 228.470 193, 225.389 193 C 223.090 193, 222 192.532, 222 191.545 C 222 190.675, 220.595 189.827, 218.500 189.434 C 216.495 189.058, 215 188.184, 215 187.389 C 215 186.477, 213.837 186, 211.617 186 C 209.074 186, 208.103 185.503, 207.710 184 C 207.329 182.544, 206.346 182, 204.094 182 C 202.010 182, 201 181.510, 201 180.500 C 201 179.300, 199.500 179, 193.500 179 C 187.500 179, 186 179.300, 186 180.500 C 186 181.325, 186.625 182, 187.389 182 C 188.175 182, 189.053 183.469, 189.413 185.390 C 190.095 189.024, 191.795 189.961, 197.750 189.986 C 199.966 189.996, 201 190.477, 201 191.500 C 201 192.548, 202.056 193, 204.500 193 C 207.333 193, 208 193.381, 208 195 C 208 196.619, 208.667 197, 211.500 197 C 213.944 197, 215 197.452, 215 198.500 C 215 199.325, 215.648 200, 216.441 200 C 217.234 200, 218.147 200.429, 218.472 200.954 C 219.437 202.516, 217.895 207, 216.392 207 C 215.626 207, 215 207.848, 215 208.883 C 215 209.926, 214.107 211, 213 211.290 C 211.900 211.577, 211 212.530, 211 213.406 C 211 214.283, 210.345 215, 209.545 215 C 208.675 215, 207.827 216.405, 207.434 218.500 C 207.058 220.505, 206.184 222, 205.389 222 C 204.625 222, 204 222.900, 204 224 C 204 225.111, 203.333 226, 202.500 226 C 201.675 226, 201 226.675, 201 227.500 C 201 228.333, 200.111 229, 199 229 C 197.667 229, 197 229.667, 197 231 C 197 232.100, 196.345 233, 195.545 233 C 194.675 233, 193.827 234.405, 193.434 236.500 C 192.959 239.033, 192.255 240, 190.889 240 C 189.850 240, 189 240.675, 189 241.500 C 189 242.325, 188.325 243, 187.500 243 C 186.675 243, 186 243.850, 186 244.889 C 186 246.255, 185.033 246.959, 182.500 247.434 C 180.405 247.827, 179 248.675, 179 249.545 C 179 250.345, 178.100 251, 177 251 C 175.381 251, 175 251.667, 175 254.500 C 175 257.333, 175.381 258, 177 258 C 178.111 258, 179 258.667, 179 259.500 C 179 260.325, 179.675 261, 180.500 261 C 181.325 261, 182 260.325, 182 259.500 C 182 258.667, 182.889 258, 184 258 C 185.333 258, 186 257.333, 186 256 C 186 254.889, 186.667 254, 187.500 254 C 188.325 254, 189 253.325, 189 252.500 C 189 251.667, 189.889 251, 191 251 C 192.333 251, 193 250.333, 193 249 C 193 247.900, 193.655 247, 194.455 247 C 195.325 247, 196.173 245.595, 196.566 243.500 C 197.041 240.967, 197.745 240, 199.111 240 C 200.150 240, 201 239.325, 201 238.500 C 201 237.675, 201.675 237, 202.500 237 C 203.333 237, 204 236.111, 204 235 C 204 233.667, 204.667 233, 206 233 C 207.333 233, 208 232.333, 208 231 C 208 229.889, 208.667 229, 209.500 229 C 210.325 229, 211 228.377, 211 227.617 C 211 226.856, 211.900 225.998, 213 225.710 C 214.100 225.423, 215 224.470, 215 223.594 C 215 222.717, 215.625 222, 216.389 222 C 217.184 222, 218.058 220.505, 218.434 218.500 C 218.827 216.405, 219.675 215, 220.545 215 C 221.345 215, 222 214.100, 222 213 C 222 211.900, 222.623 211, 223.383 211 C 224.144 211, 225.018 210.039, 225.325 208.863 C 225.798 207.058, 226.377 206.825, 229.067 207.363 C 230.818 207.714, 233.319 208, 234.625 208 C 236.069 208, 237 208.588, 237 209.500 C 237 210.325, 237.675 211, 238.500 211 C 239.325 211, 240 211.655, 240 212.455 C 240 213.325, 241.405 214.173, 243.500 214.566 C 245.505 214.942, 247 215.816, 247 216.611 C 247 217.628, 248.474 218, 252.500 218 L 258 218 258 214.500 C 258 211.167, 257.833 211, 254.500 211 C 252.180 211, 251 210.532, 251 209.611 C 251 208.816, 249.505 207.942, 247.500 207.566 C 245.405 207.173, 244 206.325, 244 205.455 C 244 204.655, 243.100 204, 242 204 C 240.667 204, 240 203.333, 240 202 C 240 200.667, 239.333 200, 238 200 C 236.431 200, 236 199.333, 236 196.906 C 236 194.654, 236.544 193.671, 238 193.290 C 239.503 192.897, 240 191.926, 240 189.383 C 240 186.667, 240.394 186, 242 186 C 243.333 186, 244 185.333, 244 184 C 244 182.889, 244.667 182, 245.500 182 C 246.510 182, 247 180.990, 247 178.906 C 247 176.654, 247.544 175.671, 249 175.290 C 250.503 174.897, 251 173.926, 251 171.383 C 251 169.043, 251.462 168, 252.500 168 C 253.325 168, 254 167.283, 254 166.406 C 254 165.530, 254.900 164.577, 256 164.290 C 257.503 163.897, 258 162.926, 258 160.383 C 258 158.169, 258.478 157, 259.383 157 C 260.899 157, 261.965 154.032, 261.986 149.750 C 261.995 147.978, 262.534 147, 263.500 147 C 264.386 147, 265.004 146.079, 265.009 144.750 C 265.013 143.512, 265.301 140.137, 265.648 137.250 C 266.269 132.083, 266.237 132, 263.639 132 C 261.960 132, 261 131.454, 261 130.500 C 261 129.328, 259.633 128.997, 254.750 128.986 C 251.313 128.979, 247.461 128.694, 246.191 128.354 C 244.392 127.873, 243.759 128.207, 243.324 129.868 C 242.800 131.871, 242.140 132, 232.383 132 L 222 132 222 128.500 C 222 125.667, 222.381 125, 224 125 C 225.333 125, 226 124.333, 226 123 C 226 121.889, 226.667 121, 227.500 121 C 228.325 121, 229 120.283, 229 119.406 C 229 118.530, 229.900 117.577, 231 117.290 C 232.100 117.002, 233 116.144, 233 115.383 C 233 114.469, 234.187 114, 236.500 114 L 240 114 240 108.500 L 240 103 236.500 103 C 233.667 103, 233 103.381, 233 105 M 76.816 139.677 C 75.890 139.921, 74.842 141.444, 74.487 143.061 C 74.119 144.735, 73.189 146, 72.327 146 C 71.494 146, 70.577 146.900, 70.290 148 C 70.002 149.100, 69.144 150, 68.383 150 C 67.623 150, 67 150.900, 67 152 C 67 153.100, 66.345 154, 65.545 154 C 64.675 154, 63.827 155.405, 63.434 157.500 C 63.058 159.505, 62.184 161, 61.389 161 C 60.625 161, 60 161.900, 60 163 C 60 164.111, 59.333 165, 58.500 165 C 57.675 165, 57 165.675, 57 166.500 C 57 167.333, 56.111 168, 55 168 C 53.394 168, 53 168.667, 53 171.383 C 53 173.926, 52.503 174.897, 51 175.290 C 49.544 175.671, 49 176.654, 49 178.906 C 49 180.990, 48.510 182, 47.500 182 C 46.667 182, 46 182.889, 46 184 C 46 185.333, 45.333 186, 44 186 C 42.381 186, 42 186.667, 42 189.500 C 42 192.333, 41.619 193, 40 193 C 38.667 193, 38 193.667, 38 195 C 38 196.100, 37.374 197, 36.608 197 C 34.821 197, 33.836 200.932, 34.630 204.902 C 35.330 208.398, 37.902 209.091, 38.710 206 C 38.998 204.900, 39.856 204, 40.617 204 C 41.377 204, 42 203.377, 42 202.617 C 42 201.856, 42.900 200.998, 44 200.710 C 45.435 200.335, 46 199.346, 46 197.210 C 46 195.074, 46.565 194.086, 48 193.710 C 49.100 193.423, 50 192.470, 50 191.594 C 50 190.717, 50.675 190, 51.500 190 C 52.333 190, 53 189.111, 53 188 C 53 186.900, 53.655 186, 54.455 186 C 55.325 186, 56.173 184.595, 56.566 182.500 C 56.942 180.495, 57.816 179, 58.611 179 C 59.375 179, 60 178.100, 60 177 C 60 175.900, 60.623 175, 61.383 175 C 62.144 175, 63.002 174.100, 63.290 173 C 63.577 171.900, 64.530 171, 65.406 171 C 66.521 171, 67 170.070, 67 167.906 C 67 165.654, 67.544 164.671, 69 164.290 C 70.107 164, 71 162.926, 71 161.883 C 71 160.848, 71.675 160, 72.500 160 C 73.500 160, 74 159, 74 157 C 74 154.667, 74.444 154, 76 154 C 77.333 154, 78 153.333, 78 152 C 78 150.900, 78.623 150, 79.383 150 C 80.144 150, 81.002 149.100, 81.290 148 C 81.690 146.468, 82.654 146, 85.406 146 C 88.847 146, 89 145.851, 89 142.500 L 89 139 83.750 139.116 C 80.862 139.180, 77.742 139.432, 76.816 139.677" stroke="none" fill="black" fill-rule="evenodd"/>
</svg>