<svg xmlns="http://www.w3.org/2000/svg" width="300" height="300" viewBox="0 0 300 300" version="1.1">
	<path d="M 182 13.455 C 182 14.325, 180.595 15.173, 178.500 15.566 C 176.495 15.942, 175 16.816, 175 17.611 C 175 18.375, 174.100 19, 173 19 C 171.900 19, 171 19.639, 171 20.421 C 171 21.202, 169.650 22.138, 168 22.500 C 166.278 22.878, 165 23.804, 165 24.673 C 165 25.506, 164.100 26.423, 163 26.710 C 161.900 26.998, 161 27.856, 161 28.617 C 161 29.377, 160.100 30, 159 30 C 157.900 30, 157 30.655, 157 31.455 C 157 33.166, 151.226 34.491, 147.215 33.701 C 145.722 33.407, 143.262 33.406, 141.750 33.700 C 139.397 34.156, 139 34.722, 139 37.617 C 139 39.957, 139.462 41, 140.500 41 C 141.325 41, 142 41.675, 142 42.500 C 142 43.325, 141.325 44, 140.500 44 C 139.667 44, 139 44.889, 139 46 C 139 47.333, 138.333 48, 137 48 C 135.889 48, 135 48.667, 135 49.500 C 135 50.325, 134.325 51, 133.500 51 C 132.667 51, 132 51.889, 132 53 C 132 54.619, 131.333 55, 128.500 55 C 125.667 55, 125 55.381, 125 57 C 125 58.333, 124.333 59, 123 59 C 121.900 59, 121 59.625, 121 60.389 C 121 61.184, 119.505 62.058, 117.500 62.434 C 115.405 62.827, 114 63.675, 114 64.545 C 114 65.345, 113.100 66, 112 66 C 110.900 66, 110 66.655, 110 67.455 C 110 68.325, 108.595 69.173, 106.500 69.566 C 104.495 69.942, 103 70.816, 103 71.611 C 103 72.375, 102.100 73, 101 73 C 99.900 73, 99 73.655, 99 74.455 C 99 75.325, 97.595 76.173, 95.500 76.566 C 93.563 76.929, 92 77.822, 92 78.566 C 92 79.310, 90.437 80.203, 88.500 80.566 C 86.495 80.942, 85 81.816, 85 82.611 C 85 83.375, 84.100 84, 83 84 C 81.381 84, 81 84.667, 81 87.500 C 81 90.833, 81.167 91, 84.500 91 C 86.944 91, 88 90.548, 88 89.500 C 88 88.644, 88.899 88, 90.094 88 C 91.346 88, 92.397 87.197, 92.710 86 C 93.103 84.497, 94.074 84, 96.617 84 C 98.911 84, 100 83.532, 100 82.545 C 100 81.675, 101.405 80.827, 103.500 80.434 C 105.505 80.058, 107 79.184, 107 78.389 C 107 77.625, 107.900 77, 109 77 C 110.100 77, 111 76.345, 111 75.545 C 111 74.675, 112.405 73.827, 114.500 73.434 C 116.425 73.073, 118 72.205, 118 71.505 C 118 70.806, 118.900 69.998, 120 69.710 C 121.100 69.423, 122 68.470, 122 67.594 C 122 66.439, 122.964 66, 125.500 66 C 127.857 66, 129 65.536, 129 64.579 C 129 63.798, 130.350 62.862, 132 62.500 C 133.650 62.138, 135 61.202, 135 60.421 C 135 59.639, 135.900 59, 137 59 C 138.333 59, 139 58.333, 139 57 C 139 55.667, 139.667 55, 141 55 C 142.100 55, 143 54.377, 143 53.617 C 143 52.856, 143.900 51.998, 145 51.710 C 146.100 51.423, 147 50.470, 147 49.594 C 147 48.504, 147.912 48, 149.883 48 C 151.926 48, 152.919 47.417, 153.290 46 C 153.577 44.900, 154.530 44, 155.406 44 C 156.283 44, 157 43.325, 157 42.500 C 157 41.667, 157.889 41, 159 41 C 160.333 41, 161 40.333, 161 39 C 161 37.667, 161.667 37, 163 37 C 164.111 37, 165 36.333, 165 35.500 C 165 34.675, 165.675 34, 166.500 34 C 167.333 34, 168 33.111, 168 32 C 168 30.381, 168.667 30, 171.500 30 C 173.848 30, 175 29.535, 175 28.588 C 175 27.720, 176.541 26.915, 179 26.500 C 181.459 26.085, 183 25.280, 183 24.412 C 183 23.635, 183.675 23, 184.500 23 C 185.652 23, 186 21.722, 186 17.500 C 186 12.667, 185.758 12, 184 12 C 182.900 12, 182 12.655, 182 13.455 M 143 60.594 C 143 61.470, 142.100 62.423, 141 62.710 C 139.162 63.191, 139 64.074, 139 73.617 L 139 84 133.500 84 C 129.278 84, 128 84.348, 128 85.500 C 128 86.663, 126.681 87, 122.125 87 C 114.342 87, 110 87.940, 110 89.625 C 110 90.690, 107.970 91, 101 91 C 94.004 91, 92 91.308, 92 92.383 C 92 94.103, 88.923 94.969, 82.750 94.986 L 78 95 78 100.500 L 78 106 85 106 C 91.333 106, 92 105.810, 92 104 C 92 102.667, 92.667 102, 94 102 C 95.100 102, 96 101.388, 96 100.639 C 96 99.249, 102.622 98.026, 110.250 98.009 C 112.913 98.003, 114 97.565, 114 96.500 C 114 95.298, 115.513 95, 121.617 95 C 129.027 95, 129.217 95.061, 128.630 97.250 C 128.299 98.487, 128.021 100.063, 128.014 100.750 C 128.005 101.509, 126.626 102, 124.500 102 C 121.167 102, 121 102.167, 121 105.500 C 121 107.896, 120.541 109, 119.545 109 C 118.675 109, 117.827 110.405, 117.434 112.500 C 117.058 114.505, 116.184 116, 115.389 116 C 114.625 116, 114 116.900, 114 118 C 114 119.333, 113.333 120, 112 120 C 110.667 120, 110 120.667, 110 122 C 110 123.111, 109.333 124, 108.500 124 C 107.675 124, 107 124.575, 107 125.278 C 107 125.981, 106.100 127.326, 105 128.268 C 103.900 129.210, 103 130.885, 103 131.990 C 103 133.110, 102.336 134, 101.500 134 C 100.667 134, 100 134.889, 100 136 C 100 137.333, 99.333 138, 98 138 C 96.667 138, 96 138.667, 96 140 C 96 141.100, 95.361 142, 94.579 142 C 93.798 142, 92.862 143.350, 92.500 145 C 92.138 146.650, 91.202 148, 90.421 148 C 89.639 148, 89 148.900, 89 150 C 89 151.333, 88.333 152, 87 152 C 85.667 152, 85 152.667, 85 154 C 85 155.100, 84.381 156, 83.625 156 C 81.984 156, 80.954 160.410, 81.700 164.250 C 82.311 167.402, 85 168.013, 85 165 C 85 163.667, 85.667 163, 87 163 C 88.100 163, 89 162.377, 89 161.617 C 89 160.856, 89.900 159.998, 91 159.710 C 92.100 159.423, 93 158.470, 93 157.594 C 93 156.717, 93.675 156, 94.500 156 C 95.538 156, 96 154.957, 96 152.611 C 96 149.530, 96.318 149.163, 99.500 148.566 C 102.562 147.992, 103 147.540, 103 144.955 C 103 142.667, 103.451 142, 105 142 C 106.333 142, 107 141.333, 107 140 C 107 138.900, 107.623 138, 108.383 138 C 109.144 138, 110.002 137.100, 110.290 136 C 110.577 134.900, 111.530 134, 112.406 134 C 113.561 134, 114 133.036, 114 130.500 C 114 127.667, 114.381 127, 116 127 C 117.111 127, 118 126.333, 118 125.500 C 118 124.675, 118.675 124, 119.500 124 C 120.333 124, 121 123.111, 121 122 C 121 120.667, 121.667 120, 123 120 C 124.333 120, 125 119.333, 125 118 C 125 116.889, 125.667 116, 126.500 116 C 127.510 116, 128 114.990, 128 112.906 C 128 110.654, 128.544 109.671, 130 109.290 C 131.107 109, 132 107.926, 132 106.883 C 132 105.848, 132.639 105, 133.421 105 C 134.202 105, 135.138 103.650, 135.500 102 C 136.139 99.092, 138.928 97.725, 139.071 100.250 C 139.110 100.938, 139.287 105.494, 139.465 110.375 C 139.677 116.209, 140.227 119.522, 141.069 120.043 C 141.885 120.547, 142.513 123.947, 142.800 129.417 L 143.251 138 136.171 138 L 129.091 138 128.434 141.500 C 128.073 143.425, 127.203 145, 126.500 145 C 125.797 145, 124.927 146.575, 124.566 148.500 C 124.173 150.595, 123.325 152, 122.455 152 C 121.358 152, 121 153.354, 121 157.500 L 121 163 117.500 163 C 114.667 163, 114 163.381, 114 165 C 114 166.111, 113.333 167, 112.500 167 C 111.675 167, 111 167.675, 111 168.500 C 111 169.325, 111.675 170, 112.500 170 C 113.333 170, 114 170.889, 114 172 C 114 173.111, 114.667 174, 115.500 174 C 116.333 174, 117 174.889, 117 176 C 117 177.111, 116.333 178, 115.500 178 C 114.284 178, 114 179.611, 114 186.500 C 114 193.045, 113.684 195, 112.625 195 C 111.254 195, 110 199.120, 110 203.625 C 110 205.069, 109.412 206, 108.500 206 C 107.456 206, 107 207.050, 107 209.450 C 107 211.579, 106.385 213.245, 105.394 213.799 C 104.428 214.340, 103.580 216.551, 103.264 219.349 C 102.924 222.365, 102.258 224, 101.370 224 C 100.595 224, 100 225.031, 100 226.375 C 100 230.880, 98.746 235, 97.375 235 C 96.375 235, 96 236.500, 96 240.500 C 96 244.703, 95.649 246, 94.512 246 C 93.549 246, 92.798 247.412, 92.384 250 C 91.998 252.413, 91.200 254, 90.372 254 C 89.545 254, 88.995 255.093, 88.986 256.750 C 88.965 261.032, 87.899 264, 86.383 264 C 85.469 264, 85 265.187, 85 267.500 C 85 269.820, 84.532 271, 83.611 271 C 82.816 271, 81.942 272.495, 81.566 274.500 C 81.173 276.595, 80.325 278, 79.455 278 C 78.417 278, 78 279.181, 78 282.117 C 78 285.898, 78.183 286.184, 80.250 285.630 C 81.487 285.299, 83.027 285.021, 83.671 285.014 C 84.314 285.006, 85.138 283.650, 85.500 282 C 85.862 280.350, 86.798 279, 87.579 279 C 88.428 279, 89 277.993, 89 276.500 C 89 274.979, 89.570 274, 90.455 274 C 91.325 274, 92.173 272.595, 92.566 270.500 C 92.942 268.495, 93.816 267, 94.611 267 C 95.532 267, 96 265.820, 96 263.500 C 96 261.187, 96.469 260, 97.383 260 C 98.959 260, 99.966 257, 99.986 252.250 C 99.996 250.034, 100.477 249, 101.500 249 C 102.466 249, 103.005 248.022, 103.014 246.250 C 103.035 241.968, 104.101 239, 105.617 239 C 106.627 239, 107 237.516, 107 233.500 C 107 229.335, 107.356 228, 108.466 228 C 109.469 228, 110.140 226.424, 110.594 223 C 111.025 219.754, 111.739 218, 112.629 218 C 113.562 218, 114 216.722, 114 214 C 114 211.261, 114.436 210, 115.383 210 C 116.959 210, 117.966 207, 117.986 202.250 C 117.996 200.034, 118.477 199, 119.500 199 C 120.621 199, 121.003 197.799, 121.014 194.250 C 121.031 188.077, 121.897 185, 123.617 185 C 124.521 185, 125 183.832, 125 181.625 C 125 178.645, 125.366 178.177, 128.125 177.625 C 129.844 177.281, 132.319 177, 133.625 177 C 135.069 177, 136 176.412, 136 175.500 C 136 174.675, 136.675 174, 137.500 174 C 138.325 174, 139 174.675, 139 175.500 C 139 176.676, 140.371 177, 145.342 177 C 148.830 177, 157.830 177.295, 165.342 177.655 L 179 178.310 179 181.655 C 179 183.915, 178.528 185, 177.545 185 C 176.675 185, 175.827 186.405, 175.434 188.500 C 175.073 190.425, 174.205 192, 173.505 192 C 172.806 192, 171.998 192.900, 171.710 194 C 171.423 195.100, 170.470 196, 169.594 196 C 168.490 196, 168 196.922, 168 199 C 168 201.078, 167.510 202, 166.406 202 C 165.530 202, 164.584 202.874, 164.305 203.943 C 164.009 205.073, 162.584 206.152, 160.898 206.522 C 159.304 206.872, 158 207.798, 158 208.579 C 158 209.361, 157.100 210, 156 210 C 154.381 210, 154 210.667, 154 213.500 C 154 217.579, 152.934 217.338, 169.607 217.027 C 181.159 216.811, 181.740 216.897, 182.264 218.900 C 182.693 220.542, 183.597 221, 186.406 221 C 188.845 221, 190 221.457, 190 222.421 C 190 223.202, 191.350 224.138, 193 224.500 C 194.650 224.862, 196 225.798, 196 226.579 C 196 227.361, 196.900 228, 198 228 C 199.333 228, 200 228.667, 200 230 C 200 231.333, 200.667 232, 202 232 C 203.810 232, 204 232.667, 204 239 C 204 244.459, 203.680 246, 202.545 246 C 201.675 246, 200.827 247.405, 200.434 249.500 C 199.957 252.040, 199.257 253, 197.879 253 C 196.835 253, 195.210 253.900, 194.268 255 C 193.326 256.100, 191.981 257, 191.278 257 C 190.575 257, 190 257.625, 190 258.389 C 190 259.184, 188.505 260.058, 186.500 260.434 C 184.405 260.827, 183 261.675, 183 262.545 C 183 263.576, 181.834 264, 179 264 C 176.261 264, 175 264.436, 175 265.384 C 175 266.345, 173.060 266.975, 168.636 267.449 C 160.258 268.346, 150 267.202, 150 265.371 C 150 264.376, 148.492 264, 144.500 264 C 139.667 264, 139 264.242, 139 266 C 139 267.333, 139.667 268, 141 268 C 142.100 268, 143 268.625, 143 269.389 C 143 270.184, 144.495 271.058, 146.500 271.434 C 148.595 271.827, 150 272.675, 150 273.545 C 150 274.751, 152.479 275, 164.500 275 C 178.333 275, 179 274.908, 179 273 C 179 271.267, 179.667 271, 184 271 C 187.778 271, 189 270.633, 189 269.500 C 189 268.644, 189.899 268, 191.094 268 C 192.346 268, 193.397 267.197, 193.710 266 C 194.081 264.583, 195.074 264, 197.117 264 C 199.088 264, 200 263.496, 200 262.406 C 200 261.530, 200.900 260.577, 202 260.290 C 203.100 260.002, 204 259.197, 204 258.500 C 204 257.803, 204.900 256.998, 206 256.710 C 207.100 256.423, 208 255.470, 208 254.594 C 208 253.717, 208.675 253, 209.500 253 C 210.548 253, 211 251.944, 211 249.500 C 211 247.197, 211.470 246, 212.375 246 C 213.968 246, 215.249 240.847, 214.298 238.261 C 213.942 237.292, 213.054 236.140, 212.325 235.700 C 211.596 235.260, 211 233.348, 211 231.450 C 211 229.050, 210.544 228, 209.500 228 C 208.667 228, 208 227.111, 208 226 C 208 224.667, 207.333 224, 206 224 C 204.889 224, 204 223.333, 204 222.500 C 204 221.675, 203.283 221, 202.406 221 C 201.530 221, 200.577 220.100, 200.290 219 C 199.926 217.608, 198.926 217, 197 217 C 195.074 217, 194.074 216.392, 193.710 215 C 193.423 213.900, 192.470 213, 191.594 213 C 190.717 213, 190 212.325, 190 211.500 C 190 210.348, 188.722 210, 184.500 210 C 179.667 210, 179 209.758, 179 208 C 179 206.667, 178.333 206, 177 206 C 175.900 206, 175 205.425, 175 204.722 C 175 204.019, 175.900 202.674, 177 201.732 C 178.100 200.790, 179 199.115, 179 198.010 C 179 196.890, 179.664 196, 180.500 196 C 181.333 196, 182 195.111, 182 194 C 182 192.667, 182.667 192, 184 192 C 185.667 192, 186 191.333, 186 188 C 186 185.166, 186.424 184, 187.455 184 C 189.241 184, 190.448 178.317, 189.540 174.180 C 188.800 170.814, 186.968 170.034, 179.750 170.014 C 176.201 170.003, 175 169.621, 175 168.500 C 175 167.259, 173.125 167, 164.126 167 L 153.251 167 153.764 158 C 154.260 149.312, 154.203 149, 152.139 149 C 150.112 149, 150 148.528, 150 140 L 150 131 157 131 C 162.556 131, 164 131.310, 164 132.500 C 164 133.753, 166.098 134.006, 176.750 134.034 C 183.762 134.053, 195.976 134.194, 203.892 134.349 C 217.087 134.606, 218.324 134.478, 218.759 132.815 C 219.020 131.817, 219.856 131, 220.617 131 C 221.572 131, 222 129.716, 222 126.848 L 222 122.696 211.344 123.348 C 205.484 123.707, 199.184 124, 197.344 124 C 195.038 124, 194 124.466, 194 125.500 C 194 126.652, 192.722 127, 188.500 127 C 184.507 127, 183 126.624, 183 125.629 C 183 124.594, 180.334 124.085, 172.154 123.554 C 160.158 122.777, 154 123.475, 154 125.611 C 154 126.375, 153.100 127, 152 127 C 150.092 127, 150 126.333, 150 112.500 C 150 99.899, 150.209 98, 151.594 98 C 152.470 98, 153.423 98.900, 153.710 100 C 153.998 101.100, 154.856 102, 155.617 102 C 156.663 102, 157 100.293, 157 95 L 157 88 168.250 87.891 C 174.438 87.831, 184.450 87.869, 190.500 87.975 C 202.615 88.187, 207 87.501, 207 85.392 C 207 84.435, 208.250 84, 211 84 C 214.333 84, 215 83.667, 215 82 C 215 80.889, 215.667 80, 216.500 80 C 218.853 80, 218.254 77.302, 215.750 76.621 C 214.512 76.284, 205.738 76.301, 196.250 76.659 C 182.787 77.167, 179 77.605, 179 78.655 C 179 79.526, 177.766 80, 175.500 80 C 173.056 80, 172 79.548, 172 78.500 C 172 77.417, 170.889 77, 168 77 C 165.111 77, 164 77.417, 164 78.500 C 164 79.637, 162.767 80, 158.906 80 C 154.654 80, 153.726 80.330, 153.290 82 C 153.002 83.100, 152.144 84, 151.383 84 C 150.623 84, 150 83.100, 150 82 C 150 80.889, 149.333 80, 148.500 80 C 147.675 80, 147 79.325, 147 78.500 C 147 77.675, 147.675 77, 148.500 77 C 149.583 77, 150 75.889, 150 73 C 150 69.095, 150.083 69, 153.500 69 C 156.691 69, 157 68.745, 157 66.117 C 157 64.074, 156.417 63.081, 155 62.710 C 153.900 62.423, 153 61.470, 153 60.594 C 153 59.348, 151.908 59, 148 59 C 144.092 59, 143 59.348, 143 60.594 M 136 147 C 136 148.333, 135.333 149, 134 149 C 132.242 149, 132 149.667, 132 154.500 C 132 158.722, 131.652 160, 130.500 160 C 129.505 160, 129 160.995, 129 162.955 C 129 165.509, 129.450 165.994, 132.317 166.532 C 134.142 166.874, 137.179 167.007, 139.067 166.827 L 142.500 166.500 142.152 161.500 C 141.961 158.750, 141.399 156.350, 140.902 156.167 C 139.671 155.712, 139.755 153, 141 153 C 141.550 153, 142 151.477, 142 149.617 C 142 146.953, 141.521 146.105, 139.750 145.630 C 136.335 144.715, 136 144.838, 136 147" stroke="none" fill="black" fill-rule="evenodd"/>
</svg>