<svg xmlns="http://www.w3.org/2000/svg" width="300" height="300" viewBox="0 0 300 300" version="1.1">
	<path d="M 206.187 50.633 C 205.276 52.263, 203.614 52.542, 193.072 52.834 C 183.482 53.099, 181 53.459, 181 54.584 C 181 55.605, 179.674 56.004, 176.250 56.014 C 170.077 56.031, 167 56.897, 167 58.617 C 167 59.377, 166.100 60, 165 60 C 163.889 60, 163 60.667, 163 61.500 C 163 62.325, 162.325 63, 161.500 63 C 160.417 63, 160 64.111, 160 67 C 160 70.905, 160.083 71, 163.500 71 C 165.944 71, 167 71.452, 167 72.500 C 167 73.325, 167.675 74, 168.500 74 C 169.333 74, 170 74.889, 170 76 C 170 77.333, 170.667 78, 172 78 C 173.758 78, 174 77.333, 174 72.500 L 174 67 177.500 67 C 179.944 67, 181 66.548, 181 65.500 C 181 64.588, 181.931 64, 183.375 64 C 187.880 64, 192 62.746, 192 61.375 C 192 60.619, 192.900 60, 194 60 C 195.111 60, 196 60.667, 196 61.500 C 196 62.325, 196.675 63, 197.500 63 C 198.325 63, 199 62.325, 199 61.500 C 199 60.278, 200.667 60, 208 60 C 216.333 60, 217 60.148, 217 62 C 217 63.333, 217.667 64, 219 64 C 220.733 64, 221 64.667, 221 69 C 221 72.778, 221.367 74, 222.500 74 C 223.548 74, 224 75.056, 224 77.500 C 224 79.944, 223.548 81, 222.500 81 C 221.477 81, 220.996 82.034, 220.986 84.250 C 220.966 89, 219.959 92, 218.383 92 C 217.436 92, 217 93.261, 217 96 C 217 98.834, 216.576 100, 215.545 100 C 214.675 100, 213.827 101.405, 213.434 103.500 C 213.058 105.505, 212.184 107, 211.389 107 C 210.468 107, 210 108.180, 210 110.500 C 210 113.333, 209.619 114, 208 114 C 206.381 114, 206 114.667, 206 117.500 C 206 119.944, 205.548 121, 204.500 121 C 203.667 121, 203 121.889, 203 123 C 203 124.111, 203.667 125, 204.500 125 C 205.548 125, 206 126.056, 206 128.500 C 206 131.333, 206.381 132, 208 132 C 209.619 132, 210 132.667, 210 135.500 C 210 138.833, 210.167 139, 213.500 139 C 216.333 139, 217 139.381, 217 141 C 217 142.333, 217.667 143, 219 143 C 220.619 143, 221 143.667, 221 146.500 C 221 149.333, 220.619 150, 219 150 C 217.381 150, 217 150.667, 217 153.500 C 217 156.833, 216.833 157, 213.500 157 C 210.667 157, 210 157.381, 210 159 C 210 160.333, 209.333 161, 208 161 C 206.889 161, 206 161.667, 206 162.500 C 206 163.722, 204.333 164, 197 164 L 188 164 188 159 C 188 155.222, 187.633 154, 186.500 154 C 185.282 154, 184.997 152.355, 184.986 145.250 C 184.971 135.209, 184.340 132, 182.383 132 C 181.329 132, 181 130.219, 181 124.500 C 181 118.500, 180.700 117, 179.500 117 C 178.363 117, 178 115.767, 178 111.906 C 178 107.654, 177.670 106.726, 176 106.290 C 174.344 105.857, 174 104.926, 174 100.883 C 174 96.667, 173.727 96, 172 96 C 170.900 96, 170 95.374, 170 94.608 C 170 92.876, 165.831 91.753, 162.500 92.589 L 160 93.217 160 116.108 C 160 134.933, 160.246 139, 161.384 139 C 162.379 139, 162.885 140.850, 163.187 145.600 C 163.497 150.462, 164.055 152.451, 165.304 153.150 C 166.301 153.708, 167 155.315, 167 157.050 C 167 159.006, 167.506 160, 168.500 160 C 169.325 160, 170 160.850, 170 161.889 C 170 163.255, 170.967 163.959, 173.500 164.434 C 175.595 164.827, 177 165.675, 177 166.545 C 177 167.345, 177.834 168, 178.853 168 C 180.524 168, 180.761 169.189, 181.265 180.137 C 181.659 188.698, 182.218 192.516, 183.162 193.099 C 184.182 193.728, 184.579 198.377, 184.832 212.670 C 185.202 233.544, 184.637 240, 182.439 240 C 181.479 240, 181.005 241.083, 181.014 243.250 C 181.039 249.238, 181.971 251, 185.117 251 C 187.088 251, 188 250.496, 188 249.406 C 188 248.530, 188.900 247.577, 190 247.290 C 191.100 247.002, 192 246.144, 192 245.383 C 192 244.623, 192.675 244, 193.500 244 C 194.722 244, 195 242.333, 195 235 C 195 227.667, 194.722 226, 193.500 226 C 192.204 226, 192 222.333, 192 199 L 192 172 201 172 C 209.333 172, 210 171.852, 210 170 C 210 168.381, 210.667 168, 213.500 168 C 216.333 168, 217 167.619, 217 166 C 217 164.667, 217.667 164, 219 164 C 220.111 164, 221 163.333, 221 162.500 C 221 161.675, 221.675 161, 222.500 161 C 223.333 161, 224 160.111, 224 159 C 224 157.667, 224.667 157, 226 157 C 227.879 157, 228 156.333, 228 146 C 228 135.667, 227.879 135, 226 135 C 224.889 135, 224 134.333, 224 133.500 C 224 132.675, 223.325 132, 222.500 132 C 221.675 132, 221 131.345, 221 130.545 C 221 129.675, 219.595 128.827, 217.500 128.434 C 214.318 127.837, 214 127.470, 214 124.389 C 214 122.043, 214.462 121, 215.500 121 C 216.466 121, 217.005 120.022, 217.014 118.250 C 217.035 113.968, 218.101 111, 219.617 111 C 220.426 111, 221 109.962, 221 108.500 C 221 107.049, 221.575 106, 222.371 106 C 223.261 106, 223.975 104.246, 224.406 101 C 224.860 97.576, 225.531 96, 226.534 96 C 227.578 96, 228 94.847, 228 92 C 228 89.261, 228.436 88, 229.383 88 C 231.285 88, 231.973 84.813, 231.973 76 C 231.973 67.187, 231.285 64, 229.383 64 C 228.469 64, 228 62.813, 228 60.500 C 228 57.964, 227.561 57, 226.406 57 C 225.530 57, 224.577 56.100, 224.290 55 C 223.922 53.594, 222.926 53, 220.933 53 C 219.371 53, 217.696 52.279, 217.201 51.394 C 216.665 50.438, 214.468 49.582, 211.766 49.277 C 208.048 48.858, 207.042 49.102, 206.187 50.633 M 106 90.500 C 106 91.605, 104.847 92, 101.625 92 C 95.259 92, 91 93.052, 91 94.625 C 91 95.690, 88.970 96, 82 96 L 73 96 73 99.500 C 73 101.944, 72.548 103, 71.500 103 C 70.667 103, 70 103.889, 70 105 C 70 106.111, 70.667 107, 71.500 107 C 72.325 107, 73 107.675, 73 108.500 C 73 109.548, 74.056 110, 76.500 110 C 78.944 110, 80 109.548, 80 108.500 C 80 107.462, 81.043 107, 83.383 107 C 85.926 107, 86.897 106.503, 87.290 105 C 87.751 103.237, 88.654 103, 94.906 103 C 100.545 103, 102 102.692, 102 101.500 C 102 99.146, 104.699 99.747, 105.370 102.250 C 106.161 105.204, 106.150 117.741, 105.343 131.750 C 104.856 140.195, 104.359 143, 103.347 143 C 102.325 143, 102 145.021, 102 151.383 C 102 158.926, 101.799 159.819, 100 160.290 C 98.803 160.603, 98 161.654, 98 162.906 C 98 164.101, 97.356 165, 96.500 165 C 95.675 165, 95 165.675, 95 166.500 C 95 167.333, 94.111 168, 93 168 C 91.900 168, 91 168.660, 91 169.466 C 91 170.468, 89.428 171.140, 86.022 171.592 C 81.373 172.208, 81.003 172.469, 80.429 175.526 C 79.455 180.718, 80.175 182.461, 83.450 182.835 C 88.394 183.399, 95 182.029, 95 180.439 C 95 179.391, 96.291 178.996, 99.750 178.986 C 105.923 178.969, 109 178.103, 109 176.383 C 109 175.469, 110.187 175, 112.500 175 C 114.944 175, 116 174.548, 116 173.500 C 116 172.477, 117.034 171.996, 119.250 171.986 C 124 171.966, 127 170.959, 127 169.383 C 127 168.469, 128.187 168, 130.500 168 C 132.848 168, 134 167.535, 134 166.588 C 134 165.720, 135.541 164.915, 138 164.500 C 140.459 164.085, 142 163.280, 142 162.412 C 142 161.465, 143.152 161, 145.500 161 C 147.896 161, 149 160.541, 149 159.545 C 149 158.675, 150.405 157.827, 152.500 157.434 C 155.682 156.837, 156 156.470, 156 153.389 C 156 150.183, 155.811 150, 152.500 150 C 150.180 150, 149 150.468, 149 151.389 C 149 152.184, 147.505 153.058, 145.500 153.434 C 143.405 153.827, 142 154.675, 142 155.545 C 142 156.638, 140.661 157, 136.617 157 C 132.074 157, 131.152 157.312, 130.710 159 C 130.310 160.532, 129.346 161, 126.594 161 C 124.066 161, 123 161.445, 123 162.500 C 123 163.690, 121.556 164, 116 164 L 109 164 109 157 C 109 151.707, 109.337 150, 110.383 150 C 112.416 150, 112.971 146.747, 112.986 134.750 C 112.997 126.195, 113.287 124, 114.404 124 C 115.474 124, 115.977 121.507, 116.523 113.500 C 117.063 105.583, 117.578 103, 118.619 103 C 119.379 103, 120 102.325, 120 101.500 C 120 100.534, 120.978 99.995, 122.750 99.986 C 128.187 99.959, 129.920 98.943, 130.587 95.390 C 130.947 93.469, 131.825 92, 132.611 92 C 133.375 92, 134 91.325, 134 90.500 C 134 89.238, 131.778 89, 120 89 C 108.222 89, 106 89.238, 106 90.500 M 167 128.500 C 167 140.722, 167.236 143, 168.500 143 C 169.466 143, 170.005 143.978, 170.014 145.750 C 170.035 150.032, 171.101 153, 172.617 153 C 173.377 153, 174 153.900, 174 155 C 174 157.665, 176.618 157.568, 177.322 154.878 C 178.253 151.317, 176.880 143, 175.361 143 C 174.314 143, 174 140.924, 174 134 C 174 127.030, 173.690 125, 172.625 125 C 171.254 125, 170 120.880, 170 116.375 C 170 114.931, 169.412 114, 168.500 114 C 167.236 114, 167 116.278, 167 128.500" stroke="none" fill="black" fill-rule="evenodd"/>
</svg>