<svg xmlns="http://www.w3.org/2000/svg" width="300" height="300" viewBox="0 0 300 300" version="1.1">
	<path d="M 143 24.594 C 143 25.470, 142.100 26.423, 141 26.710 C 139.900 26.998, 139 27.856, 139 28.617 C 139 29.377, 138.100 30, 137 30 C 135.889 30, 135 30.667, 135 31.500 C 135 32.325, 134.325 33, 133.500 33 C 132.667 33, 132 33.889, 132 35 C 132 36.333, 131.333 37, 130 37 C 128.889 37, 128 37.667, 128 38.500 C 128 39.325, 127.325 40, 126.500 40 C 125.667 40, 125 40.889, 125 42 C 125 43.333, 124.333 44, 123 44 C 121.667 44, 121 44.667, 121 46 C 121 47.100, 120.377 48, 119.617 48 C 118.856 48, 117.998 48.900, 117.710 50 C 117.423 51.100, 116.470 52, 115.594 52 C 114.717 52, 114 52.675, 114 53.500 C 114 54.333, 113.111 55, 112 55 C 110.667 55, 110 55.667, 110 57 C 110 58.111, 109.333 59, 108.500 59 C 107.675 59, 107 59.675, 107 60.500 C 107 61.333, 106.111 62, 105 62 C 103.667 62, 103 62.667, 103 64 C 103 65.100, 102.345 66, 101.545 66 C 100.675 66, 99.827 67.405, 99.434 69.500 C 99.058 71.505, 98.184 73, 97.389 73 C 96.625 73, 96 73.623, 96 74.383 C 96 75.144, 95.100 76.002, 94 76.290 C 92.900 76.577, 92 77.530, 92 78.406 C 92 79.283, 91.325 80, 90.500 80 C 89.667 80, 89 80.889, 89 82 C 89 83.333, 88.333 84, 87 84 C 85.667 84, 85 84.667, 85 86 C 85 87.100, 84.361 88, 83.579 88 C 82.798 88, 81.862 89.350, 81.500 91 C 81.138 92.650, 80.202 94, 79.421 94 C 78.639 94, 78 94.900, 78 96 C 78 97.333, 77.333 98, 76 98 C 74.667 98, 74 98.667, 74 100 C 74 101.111, 73.333 102, 72.500 102 C 71.667 102, 71 102.889, 71 104 C 71 105.333, 70.333 106, 69 106 C 67.462 106, 67 106.667, 67 108.883 C 67 110.926, 66.417 111.919, 65 112.290 C 63.468 112.690, 63 113.654, 63 116.406 C 63 119.932, 63.075 120, 67 120 C 70.333 120, 71 119.667, 71 118 C 71 116.889, 71.667 116, 72.500 116 C 73.325 116, 74 115.325, 74 114.500 C 74 113.667, 74.889 113, 76 113 C 77.619 113, 78 112.333, 78 109.500 C 78 106.667, 78.381 106, 80 106 C 81.333 106, 82 105.333, 82 104 C 82 102.889, 82.667 102, 83.500 102 C 84.333 102, 85 101.111, 85 100 C 85 98.900, 85.639 98, 86.421 98 C 87.202 98, 88.138 96.650, 88.500 95 C 88.878 93.278, 89.804 92, 90.673 92 C 91.506 92, 92.423 91.100, 92.710 90 C 92.998 88.900, 93.856 88, 94.617 88 C 95.377 88, 96 87.100, 96 86 C 96 84.667, 96.667 84, 98 84 C 99.333 84, 100 83.333, 100 82 C 100 80.889, 100.667 80, 101.500 80 C 102.325 80, 103 79.377, 103 78.617 C 103 77.856, 103.900 76.998, 105 76.710 C 106.456 76.329, 107 75.346, 107 73.094 C 107 71.010, 107.490 70, 108.500 70 C 109.333 70, 110 69.111, 110 68 C 110 66.667, 110.667 66, 112 66 C 113.333 66, 114 65.333, 114 64 C 114 62.667, 114.667 62, 116 62 C 117.111 62, 118 61.333, 118 60.500 C 118 59.675, 118.623 59, 119.383 59 C 120.144 59, 121.002 58.100, 121.290 57 C 121.577 55.900, 122.530 55, 123.406 55 C 124.283 55, 125 54.325, 125 53.500 C 125 52.675, 125.675 52, 126.500 52 C 127.333 52, 128 51.111, 128 50 C 128 48.667, 128.667 48, 130 48 C 131.333 48, 132 47.333, 132 46 C 132 44.667, 132.667 44, 134 44 C 135.111 44, 136 43.333, 136 42.500 C 136 41.675, 136.675 41, 137.500 41 C 138.333 41, 139 40.111, 139 39 C 139 37.381, 139.667 37, 142.500 37 C 145.333 37, 146 37.381, 146 39 C 146 40.333, 146.667 41, 148 41 C 149.333 41, 150 41.667, 150 43 C 150 44.111, 150.667 45, 151.500 45 C 152.325 45, 153 45.675, 153 46.500 C 153 47.333, 153.889 48, 155 48 C 156.619 48, 157 48.667, 157 51.500 C 157 53.813, 157.469 55, 158.383 55 C 160.462 55, 160.971 58.280, 160.986 71.750 C 160.998 81.966, 161.249 84, 162.500 84 C 163.333 84, 164 84.889, 164 86 C 164 87.333, 164.667 88, 166 88 C 167.892 88, 168 87.333, 168 75.617 C 168 63.620, 168.070 63.214, 170.250 62.630 C 174.883 61.389, 178.166 61.920, 178.710 64 C 179.141 65.647, 180.074 66, 184 66 C 187.926 66, 188.859 66.353, 189.290 68 C 189.690 69.532, 190.654 70, 193.406 70 C 195.934 70, 197 70.445, 197 71.500 C 197 72.548, 198.056 73, 200.500 73 C 202.813 73, 204 73.469, 204 74.383 C 204 76.103, 207.077 76.969, 213.250 76.986 C 217.983 77, 218 76.988, 218 73.617 C 218 71.074, 217.503 70.103, 216 69.710 C 214.900 69.423, 214 68.470, 214 67.594 C 214 66.348, 212.908 66, 209 66 C 204.667 66, 204 65.733, 204 64 C 204 62.381, 203.333 62, 200.500 62 C 197.144 62, 197 61.851, 197 58.375 C 197 54.819, 196.938 54.762, 193.750 55.398 C 191.963 55.754, 190.350 56.485, 190.167 57.023 C 189.629 58.598, 186 58.143, 186 56.500 C 186 55.667, 186.889 55, 188 55 C 189.111 55, 190 54.333, 190 53.500 C 190 52.667, 189.111 52, 188 52 C 186.667 52, 186 51.333, 186 50 C 186 48.381, 185.333 48, 182.500 48 C 180.187 48, 179 47.531, 179 46.617 C 179 44.858, 175.902 44.031, 169.250 44.014 C 165.256 44.003, 164 43.641, 164 42.500 C 164 41.675, 163.325 41, 162.500 41 C 161.667 41, 161 40.111, 161 39 C 161 37.900, 160.377 37, 159.617 37 C 158.856 37, 157.998 36.100, 157.710 35 C 157.423 33.900, 156.506 33, 155.673 33 C 154.811 33, 153.881 31.736, 153.514 30.065 C 153.030 27.861, 152.139 26.970, 149.935 26.486 C 148.321 26.131, 147 25.202, 147 24.421 C 147 23.639, 146.100 23, 145 23 C 143.837 23, 143 23.667, 143 24.594 M 178 53.500 C 178 54.433, 178.944 55, 180.500 55 C 182.056 55, 183 54.433, 183 53.500 C 183 52.567, 182.056 52, 180.500 52 C 178.944 52, 178 52.567, 178 53.500 M 119.750 91.689 C 117.454 92.289, 117.225 99, 119.500 99 C 120.325 99, 121 99.675, 121 100.500 C 121 101.652, 122.278 102, 126.500 102 C 130.538 102, 132 102.371, 132 103.395 C 132 105.216, 136.308 105.589, 152.250 105.148 C 162.331 104.868, 165 104.502, 165 103.397 C 165 102.334, 166.673 102, 172 102 L 179 102 179 105.500 C 179 108.833, 178.833 109, 175.500 109 C 172.667 109, 172 109.381, 172 111 C 172 112.333, 171.333 113, 170 113 C 168.900 113, 168 113.623, 168 114.383 C 168 115.144, 167.100 116.002, 166 116.290 C 164.900 116.577, 164 117.530, 164 118.406 C 164 119.561, 163.036 120, 160.500 120 C 158.104 120, 157 119.541, 157 118.545 C 157 117.675, 155.595 116.827, 153.500 116.434 C 151.495 116.058, 150 115.184, 150 114.389 C 150 113.468, 148.820 113, 146.500 113 C 144.056 113, 143 113.452, 143 114.500 C 143 115.333, 142.111 116, 141 116 C 139.242 116, 139 116.667, 139 121.500 L 139 127 144.500 127 L 150 127 150 130.500 C 150 133.833, 149.833 134, 146.500 134 C 143.667 134, 143 134.381, 143 136 C 143 137.619, 142.333 138, 139.500 138 C 137.056 138, 136 138.452, 136 139.500 C 136 140.333, 135.111 141, 134 141 C 132.667 141, 132 141.667, 132 143 C 132 144.333, 131.333 145, 130 145 C 128.667 145, 128 145.667, 128 147 C 128 148.100, 127.374 149, 126.608 149 C 124.821 149, 123.836 152.932, 124.630 156.902 C 125.313 160.313, 128 161.188, 128 158 C 128 156.667, 128.667 156, 130 156 C 131.100 156, 132 155.375, 132 154.611 C 132 153.816, 133.495 152.942, 135.500 152.566 C 137.429 152.204, 139 151.309, 139 150.571 C 139 149.835, 139.900 148.998, 141 148.710 C 142.100 148.423, 143 147.470, 143 146.594 C 143 145.667, 143.837 145, 145 145 C 146.111 145, 147 144.333, 147 143.500 C 147 142.675, 147.675 142, 148.500 142 C 149.333 142, 150 141.111, 150 140 C 150 138.381, 150.667 138, 153.500 138 C 156.333 138, 157 137.619, 157 136 C 157 134.561, 157.667 134, 159.375 134 C 163.880 134, 168 135.254, 168 136.625 C 168 137.530, 169.197 138, 171.500 138 L 175 138 175 143.500 L 175 149 178.412 149 C 181.596 149, 181.868 148.741, 182.480 145.119 C 183.330 140.087, 182.185 134, 180.389 134 C 179.625 134, 178.992 133.438, 178.983 132.750 C 178.962 131.226, 174.645 127, 173.109 127 C 172.499 127, 172 125.425, 172 123.500 C 172 120.167, 172.167 120, 175.500 120 C 178.333 120, 179 119.619, 179 118 C 179 116.889, 179.667 116, 180.500 116 C 181.325 116, 182 115.325, 182 114.500 C 182 113.445, 183.066 113, 185.594 113 C 188.346 113, 189.310 112.532, 189.710 111 C 189.998 109.900, 190.856 109, 191.617 109 C 192.377 109, 193 108.325, 193 107.500 C 193 106.445, 194.066 106, 196.594 106 C 199.346 106, 200.310 105.532, 200.710 104 C 200.998 102.900, 201.856 102, 202.617 102 C 203.377 102, 204 101.325, 204 100.500 C 204 99.667, 204.889 99, 206 99 C 208.086 99, 208.474 97.370, 207.370 93.250 C 206.818 91.193, 206.176 91, 199.883 91 C 193.667 91, 193 91.194, 193 93 C 193 94.956, 192.333 95, 162.500 95 C 137.198 95, 132 94.764, 132 93.617 C 132 91.412, 125.016 90.313, 119.750 91.689 M 117.290 118 C 117.002 119.100, 116.144 120, 115.383 120 C 114.340 120, 114 121.689, 114 126.883 C 114 132.926, 113.756 133.831, 112 134.290 C 110.095 134.788, 110 135.654, 110 152.500 C 110 169.346, 110.095 170.212, 112 170.710 C 113.100 170.998, 114 171.856, 114 172.617 C 114 173.531, 115.187 174, 117.500 174 C 119.944 174, 121 174.452, 121 175.500 C 121 176.652, 122.278 177, 126.500 177 C 130.722 177, 132 176.652, 132 175.500 C 132 174.278, 133.667 174, 141 174 C 147.924 174, 150 173.686, 150 172.639 C 150 171.249, 156.622 170.026, 164.250 170.009 C 166.913 170.003, 168 169.565, 168 168.500 C 168 167.452, 169.056 167, 171.500 167 C 173.813 167, 175 166.531, 175 165.617 C 175 164.041, 178 163.034, 182.750 163.014 C 184.850 163.005, 186 162.509, 186 161.611 C 186 160.816, 187.495 159.942, 189.500 159.566 C 191.595 159.173, 193 158.325, 193 157.455 C 193 156.424, 194.166 156, 197 156 C 199.889 156, 201 155.583, 201 154.500 C 201 153.675, 201.675 153, 202.500 153 C 203.679 153, 204 154.389, 204 159.500 C 204 164.348, 204.349 166, 205.375 166 C 207.115 166, 208 170.384, 208 179 C 208 182.713, 207.719 187.156, 207.375 188.875 C 206.778 191.862, 206.535 192, 201.875 192 C 198.208 192, 197 192.372, 197 193.500 C 197 194.573, 195.906 195, 193.154 195 C 191.038 195, 185.188 195.292, 180.154 195.650 L 171 196.299 171 192.695 C 171 189.405, 170.710 189.036, 167.683 188.468 C 165.858 188.126, 162.821 187.993, 160.933 188.173 C 157.872 188.465, 157.466 188.852, 157.187 191.750 C 156.993 193.763, 156.327 195, 155.437 195 C 154.645 195, 154 195.940, 154 197.094 C 154 198.346, 153.197 199.397, 152 199.710 C 150.900 199.998, 150 200.856, 150 201.617 C 150 202.627, 148.516 203, 144.500 203 C 140.278 203, 139 203.348, 139 204.500 C 139 205.637, 137.767 206, 133.906 206 C 129.654 206, 128.726 206.330, 128.290 208 C 127.897 209.503, 126.926 210, 124.383 210 L 121 210 121 217 C 121 223.333, 121.190 224, 123 224 C 124.758 224, 125 224.667, 125 229.500 C 125 234.333, 124.758 235, 123 235 C 121.381 235, 121 235.667, 121 238.500 C 121 240.944, 120.548 242, 119.500 242 C 118.667 242, 118 242.889, 118 244 C 118 245.667, 117.333 246, 114 246 L 110 246 110 241 C 110 237.222, 109.633 236, 108.500 236 C 107.302 236, 107 234.513, 107 228.617 C 107 222.074, 106.772 221.174, 105 220.710 C 103.139 220.224, 103 219.346, 103 208.094 C 103 198.010, 102.751 196, 101.500 196 C 100.310 196, 100 194.561, 100 189.045 L 100 182.091 103.500 181.434 C 107.085 180.761, 107.418 180.160, 106.370 176.250 C 105.824 174.215, 105.157 174, 99.395 174 L 93.024 174 92.384 178 C 91.998 180.413, 91.200 182, 90.372 182 C 89.392 182, 89 183.429, 89 187 C 89 190.778, 89.367 192, 90.500 192 C 91.663 192, 92 193.319, 92 197.875 C 92 205.658, 92.940 210, 94.625 210 C 95.708 210, 96 212.333, 96 221 C 96 229.667, 96.292 232, 97.375 232 C 99.025 232, 100 236.316, 100 243.625 C 100 247.736, 100.353 249, 101.500 249 C 102.356 249, 103 249.899, 103 251.094 C 103 252.346, 103.803 253.397, 105 253.710 C 106.100 253.998, 107 254.856, 107 255.617 C 107 256.462, 108.069 256.995, 109.750 256.986 C 114.032 256.965, 117 255.899, 117 254.383 C 117 253.623, 117.850 253, 118.889 253 C 120.255 253, 120.959 252.033, 121.434 249.500 C 121.827 247.405, 122.675 246, 123.545 246 C 124.624 246, 125 244.709, 125 241 C 125 237.222, 125.367 236, 126.500 236 C 127.628 236, 128 234.792, 128 231.125 C 128 224.288, 129.012 220, 130.625 220 C 131.381 220, 132 219.325, 132 218.500 C 132 217.667, 132.889 217, 134 217 C 135.111 217, 136 216.333, 136 215.500 C 136 214.588, 136.931 214, 138.375 214 C 142.880 214, 147 212.746, 147 211.375 C 147 210.619, 147.675 210, 148.500 210 C 149.737 210, 150 211.820, 150 220.383 C 150 229.926, 149.838 230.809, 148 231.290 C 146.237 231.751, 146 232.654, 146 238.906 C 146 244.545, 145.692 246, 144.500 246 C 143.452 246, 143 247.056, 143 249.500 C 143 251.944, 143.452 253, 144.500 253 C 145.358 253, 146 253.900, 146 255.103 C 146 257.103, 146.415 257.188, 154.570 256.853 C 161.454 256.569, 163.333 256.156, 164.120 254.750 C 164.758 253.611, 166.303 253, 168.550 253 C 170.827 253, 172 252.528, 172 251.611 C 172 250.816, 173.495 249.942, 175.500 249.566 C 177.595 249.173, 179 248.325, 179 247.455 C 179 246.655, 179.900 246, 181 246 C 182.111 246, 183 245.333, 183 244.500 C 183 243.675, 183.675 243, 184.500 243 C 185.333 243, 186 242.111, 186 241 C 186 239.667, 186.667 239, 188 239 C 189.100 239, 190 238.377, 190 237.617 C 190 236.331, 192.840 235.045, 195.750 235.014 C 196.438 235.006, 197 235.900, 197 237 C 197 238.111, 197.667 239, 198.500 239 C 199.548 239, 200 240.056, 200 242.500 C 200 245.333, 200.381 246, 202 246 C 203.619 246, 204 246.667, 204 249.500 C 204 252.036, 204.439 253, 205.594 253 C 206.470 253, 207.423 253.900, 207.710 255 C 207.998 256.100, 208.856 257, 209.617 257 C 210.531 257, 211 258.187, 211 260.500 C 211 262.944, 211.452 264, 212.500 264 C 214.854 264, 214.253 266.699, 211.750 267.370 C 210.512 267.701, 207.588 267.979, 205.250 267.986 C 202.145 267.996, 201 268.404, 201 269.500 C 201 270.325, 201.675 271, 202.500 271 C 203.333 271, 204 271.889, 204 273 C 204 274.721, 204.662 274.998, 208.750 274.986 C 214.923 274.969, 218 274.103, 218 272.383 C 218 271.436, 219.261 271, 222 271 L 226 271 226 266 C 226 262.222, 226.367 261, 227.500 261 C 228.555 261, 229 259.934, 229 257.406 C 229 254.654, 229.468 253.690, 231 253.290 C 232.688 252.848, 233 251.926, 233 247.383 C 233 243.528, 233.384 242, 234.352 242 C 235.395 242, 235.826 238.868, 236.244 228.250 C 236.969 209.808, 236.163 196, 234.361 196 C 233.613 196, 233 195.100, 233 194 C 233 192.148, 232.333 192, 224 192 L 215 192 215 188.500 C 215 186.056, 215.452 185, 216.500 185 C 217.728 185, 218 183.278, 218 175.500 C 218 167.722, 217.728 166, 216.500 166 C 215.243 166, 214.998 163.855, 214.986 152.750 C 214.969 136.207, 214.723 135.226, 210.390 134.413 C 208.469 134.053, 207 133.175, 207 132.389 C 207 131.625, 206.325 131, 205.500 131 C 204.452 131, 204 132.056, 204 134.500 C 204 137.333, 203.619 138, 202 138 C 200.381 138, 200 138.667, 200 141.500 C 200 143.944, 199.548 145, 198.500 145 C 197.667 145, 197 145.889, 197 147 C 197 148.619, 196.333 149, 193.500 149 C 191.056 149, 190 149.452, 190 150.500 C 190 151.555, 188.934 152, 186.406 152 C 183.654 152, 182.690 152.468, 182.290 154 C 181.857 155.656, 180.926 156, 176.883 156 C 173.367 156, 172 156.391, 172 157.399 C 172 158.396, 169.995 158.998, 165 159.500 C 160.005 160.002, 158 160.604, 158 161.601 C 158 162.644, 156.473 163, 152 163 C 147.558 163, 146 163.359, 146 164.383 C 146 166.399, 142.757 166.971, 131.250 166.986 C 121.662 166.999, 121 166.871, 121 165 C 121 163.889, 120.333 163, 119.500 163 C 118.258 163, 118 161.111, 118 152 C 118 142.889, 118.258 141, 119.500 141 C 120.672 141, 121.003 139.633, 121.014 134.750 C 121.034 125.661, 121.668 124, 125.117 124 C 127.814 124, 128 123.742, 128 120 L 128 116 122.906 116 C 118.654 116, 117.726 116.330, 117.290 118 M 186 204.500 C 186 205.663, 184.682 206, 180.140 206 C 171.146 206, 165 207.070, 165 208.636 C 165 209.386, 164.100 210, 163 210 C 161.386 210, 161 210.667, 161 213.450 C 161 215.697, 160.389 217.242, 159.250 217.880 C 157.844 218.667, 157.431 220.546, 157.147 227.430 C 156.880 233.933, 156.458 236, 155.397 236 C 154.387 236, 154 237.385, 154 241 L 154 246 161 246 C 167.333 246, 168 245.810, 168 244 C 168 242.381, 168.667 242, 171.500 242 C 173.944 242, 175 241.548, 175 240.500 C 175 239.667, 175.889 239, 177 239 C 178.100 239, 179 238.345, 179 237.545 C 179 236.675, 180.405 235.827, 182.500 235.434 C 185.682 234.837, 186 234.470, 186 231.389 C 186 228.667, 186.393 228, 188 228 C 189.333 228, 190 227.333, 190 226 C 190 224.889, 190.667 224, 191.500 224 C 192.621 224, 193.003 222.799, 193.014 219.250 C 193.036 211.418, 193.742 210, 197.617 210 C 199.957 210, 201 210.462, 201 211.500 C 201 212.325, 201.675 213, 202.500 213 C 203.700 213, 204 214.500, 204 220.500 C 204 226.219, 204.329 228, 205.383 228 C 206.959 228, 207.966 231, 207.986 235.750 C 207.995 237.850, 208.491 239, 209.389 239 C 210.184 239, 211.058 240.495, 211.434 242.500 C 211.827 244.595, 212.675 246, 213.545 246 C 214.541 246, 215 247.104, 215 249.500 C 215 251.813, 215.469 253, 216.383 253 C 217.144 253, 218.002 253.900, 218.290 255 C 218.577 256.100, 219.530 257, 220.406 257 C 221.599 257, 222 255.993, 222 253 C 222 250.288, 222.439 249, 223.364 249 C 224.229 249, 224.961 247.302, 225.364 244.360 C 226.180 238.406, 226.172 215.080, 225.352 208.250 L 224.721 203 215.861 203 C 208.651 203, 207 203.280, 207 204.500 C 207 205.325, 206.325 206, 205.500 206 C 204.675 206, 204 205.325, 204 204.500 C 204 203.278, 202.333 203, 195 203 C 187.667 203, 186 203.278, 186 204.500" stroke="none" fill="black" fill-rule="evenodd"/>
</svg>