<svg xmlns="http://www.w3.org/2000/svg" width="300" height="300" viewBox="0 0 300 300" version="1.1">
	<path d="M 145 22 C 145 25.778, 144.633 27, 143.500 27 C 142.667 27, 142 27.889, 142 29 C 142 30.111, 142.667 31, 143.500 31 C 144.700 31, 145 32.500, 145 38.500 C 145 44.500, 144.700 46, 143.500 46 C 142.675 46, 142 46.675, 142 47.500 C 142 48.652, 140.722 49, 136.500 49 C 131.667 49, 131 49.242, 131 51 C 131 52.619, 130.333 53, 127.500 53 C 124.191 53, 124 52.815, 124 49.625 C 124 46.650, 123.632 46.176, 120.897 45.629 C 117.380 44.926, 116 45.470, 116 47.559 C 116 48.352, 115.325 49, 114.500 49 C 113.452 49, 113 50.056, 113 52.500 C 113 54.944, 113.452 56, 114.500 56 C 115.333 56, 116 56.889, 116 58 C 116 59.333, 116.667 60, 118 60 C 119.333 60, 120 60.667, 120 62 C 120 63.100, 120.655 64, 121.455 64 C 122.325 64, 123.173 65.405, 123.566 67.500 C 123.942 69.505, 124.816 71, 125.611 71 C 126.375 71, 127 71.900, 127 73 C 127 74.111, 127.667 75, 128.500 75 C 129.325 75, 130 75.675, 130 76.500 C 130 77.333, 130.889 78, 132 78 C 133.333 78, 134 78.667, 134 80 C 134 81.333, 134.667 82, 136 82 C 137.111 82, 138 82.667, 138 83.500 C 138 84.325, 138.623 85, 139.383 85 C 140.144 85, 141.002 85.900, 141.290 87 C 141.577 88.100, 142.530 89, 143.406 89 C 144.561 89, 145 89.964, 145 92.500 C 145 94.820, 144.532 96, 143.611 96 C 142.816 96, 141.942 97.495, 141.566 99.500 C 140.920 102.941, 140.825 103, 135.955 103 C 132.403 103, 131 103.392, 131 104.383 C 131 106.462, 127.720 106.971, 114.250 106.986 C 104.034 106.998, 102 107.249, 102 108.500 C 102 109.412, 101.069 110, 99.625 110 C 95.120 110, 91 111.254, 91 112.625 C 91 113.381, 90.325 114, 89.500 114 C 88.675 114, 88 114.717, 88 115.594 C 88 116.470, 87.100 117.423, 86 117.710 C 83.682 118.316, 83.274 121, 85.500 121 C 86.333 121, 87 121.889, 87 123 C 87 124.333, 87.667 125, 89 125 C 90.111 125, 91 125.667, 91 126.500 C 91 127.700, 92.500 128, 98.500 128 C 104.500 128, 106 127.700, 106 126.500 C 106 125.310, 107.444 125, 113 125 C 118.273 125, 120 124.661, 120 123.625 C 120 122.254, 124.120 121, 128.625 121 C 129.970 121, 131 120.405, 131 119.629 C 131 118.621, 133.385 118.071, 140 117.554 C 146.793 117.022, 149 116.500, 149 115.425 C 149 114.297, 150.877 114, 158 114 C 165.035 114, 167 113.695, 167 112.604 C 167 111.507, 170.104 111.053, 181.500 110.483 C 192.807 109.918, 196 109.455, 196 108.379 C 196 107.309, 198.017 107, 205 107 C 211.996 107, 214 106.692, 214 105.617 C 214 104.331, 216.840 103.045, 219.750 103.014 C 220.506 103.005, 221 104.336, 221 106.383 C 221 109.047, 221.479 109.895, 223.250 110.370 C 227.007 111.376, 228 111.090, 228 109 C 228 107.407, 228.667 107, 231.278 107 C 233.318 107, 235.202 106.245, 236.268 105 C 237.210 103.900, 238.832 103, 239.874 103 C 240.926 103, 241.999 102.112, 242.290 101 C 242.577 99.900, 243.530 99, 244.406 99 C 245.652 99, 246 97.908, 246 94 L 246 89 242.500 89 C 240.056 89, 239 89.452, 239 90.500 C 239 91.676, 237.625 92, 232.625 92 C 224.366 92, 220 92.908, 220 94.625 C 220 95.661, 218.273 96, 213 96 C 207.676 96, 206 96.334, 206 97.396 C 206 98.493, 202.896 98.947, 191.500 99.517 C 180.193 100.082, 177 100.545, 177 101.621 C 177 102.727, 174.232 103, 163 103 C 151.222 103, 149 102.762, 149 101.500 C 149 100.675, 149.625 100, 150.389 100 C 151.184 100, 152.058 98.505, 152.434 96.500 C 152.827 94.405, 153.675 93, 154.545 93 C 155.532 93, 156 91.911, 156 89.617 C 156 87.074, 156.497 86.103, 158 85.710 C 159.532 85.310, 160 84.346, 160 81.594 C 160 79.066, 160.445 78, 161.500 78 C 162.325 78, 163 78.612, 163 79.361 C 163 80.951, 169.915 81.985, 180.500 81.978 C 188.832 81.972, 192 81.257, 192 79.383 C 192 78.469, 190.813 78, 188.500 78 C 185.667 78, 185 77.619, 185 76 C 185 74.242, 184.333 74, 179.500 74 C 175.278 74, 174 73.652, 174 72.500 C 174 71.452, 172.944 71, 170.500 71 C 167.667 71, 167 70.619, 167 69 C 167 67.381, 167.667 67, 170.500 67 C 172.944 67, 174 66.548, 174 65.500 C 174 64.675, 174.717 64, 175.594 64 C 176.470 64, 177.423 63.100, 177.710 62 C 177.998 60.900, 178.856 60, 179.617 60 C 180.377 60, 181 59.377, 181 58.617 C 181 57.856, 181.900 56.998, 183 56.710 C 184.100 56.423, 185 55.470, 185 54.594 C 185 53.717, 185.675 53, 186.500 53 C 187.544 53, 188 51.949, 188 49.545 C 188 46.389, 187.698 46.034, 184.500 45.434 C 182.495 45.058, 181 44.184, 181 43.389 C 181 42.288, 178.719 42, 170 42 C 160.889 42, 159 42.258, 159 43.500 C 159 44.325, 158.325 45, 157.500 45 C 156.238 45, 156 42.778, 156 31 L 156 17 150.500 17 L 145 17 145 22 M 167 50.912 C 167 51.414, 165.200 52.128, 163 52.500 C 160.541 52.915, 159 53.720, 159 54.588 C 159 55.365, 158.325 56, 157.500 56 C 156.452 56, 156 57.056, 156 59.500 C 156 62.833, 156.167 63, 159.500 63 C 161.944 63, 163 62.548, 163 61.500 C 163 60.452, 164.056 60, 166.500 60 C 168.944 60, 170 59.548, 170 58.500 C 170 57.667, 170.889 57, 172 57 C 173.619 57, 174 56.333, 174 53.500 C 174 50.167, 173.833 50, 170.500 50 C 168.575 50, 167 50.410, 167 50.912 M 143.750 56.679 C 142.787 56.936, 142 57.789, 142 58.573 C 142 59.358, 141.100 60, 140 60 C 138.667 60, 138 60.667, 138 62 C 138 63.619, 137.333 64, 134.500 64 C 132.056 64, 131 64.452, 131 65.500 C 131 66.325, 131.689 67, 132.531 67 C 133.374 67, 134.322 67.675, 134.638 68.500 C 134.955 69.325, 135.841 70, 136.607 70 C 137.373 70, 138 70.900, 138 72 C 138 73.163, 138.667 74, 139.594 74 C 140.470 74, 141.423 74.900, 141.710 76 C 141.998 77.100, 142.856 78, 143.617 78 C 144.377 78, 145 78.933, 145 80.073 C 145 83.711, 148.452 81.988, 148.819 78.166 C 149.078 75.473, 148.735 74.743, 146.995 74.288 C 145.268 73.837, 144.976 73.231, 145.492 71.176 C 145.844 69.772, 146.806 68.131, 147.630 67.529 C 148.696 66.749, 149.037 65.007, 148.814 61.476 C 148.493 56.402, 147.677 55.629, 143.750 56.679 M 51 115.500 C 51 116.325, 50.325 117, 49.500 117 C 48.417 117, 48 118.111, 48 121 C 48 124.333, 48.333 125, 50 125 C 51.111 125, 52 125.667, 52 126.500 C 52 127.325, 52.675 128, 53.500 128 C 54.333 128, 55 128.889, 55 130 C 55 131.619, 55.667 132, 58.500 132 C 61.833 132, 62 131.833, 62 128.500 C 62 126.056, 61.548 125, 60.500 125 C 59.667 125, 59 124.111, 59 123 C 59 121.262, 59.667 121, 64.094 121 C 68.346 121, 69.274 121.330, 69.710 123 C 69.998 124.100, 70.856 125, 71.617 125 C 72.377 125, 73 124.100, 73 123 C 73 121.889, 73.667 121, 74.500 121 C 75.325 121, 76 120.325, 76 119.500 C 76 118.675, 75.325 118, 74.500 118 C 73.667 118, 73 117.111, 73 116 C 73 114.121, 72.333 114, 62 114 C 52.889 114, 51 114.258, 51 115.500 M 156 126.500 C 156 127.692, 154.545 128, 148.906 128 C 142.654 128, 141.751 128.237, 141.290 130 C 141.002 131.100, 140.144 132, 139.383 132 C 138.308 132, 138 134.004, 138 141 C 138 147.900, 138.316 150, 139.353 150 C 140.968 150, 142 159.997, 142 175.651 C 142 184.183, 142.263 186, 143.500 186 C 144.722 186, 145 187.667, 145 195 C 145 201.996, 145.308 204, 146.383 204 C 147.911 204, 148.965 206.974, 148.986 211.344 C 148.996 213.353, 148.413 214.341, 147 214.710 C 145.497 215.103, 145 216.074, 145 218.617 C 145 221.333, 145.394 222, 147 222 C 148.111 222, 149 222.667, 149 223.500 C 149 224.548, 150.056 225, 152.500 225 C 155.833 225, 156 224.833, 156 221.500 C 156 218.167, 156.167 218, 159.500 218 C 161.425 218, 163 217.501, 163 216.891 C 163 214.467, 167.530 211.034, 170.750 211.017 C 173.339 211.004, 174 211.407, 174 213 C 174 214.111, 173.333 215, 172.500 215 C 171.675 215, 171 215.717, 171 216.594 C 171 217.470, 170.100 218.423, 169 218.710 C 167.900 218.998, 167 219.856, 167 220.617 C 167 221.377, 166.345 222, 165.545 222 C 164.675 222, 163.827 223.405, 163.434 225.500 C 162.959 228.033, 162.255 229, 160.889 229 C 159.850 229, 159 229.675, 159 230.500 C 159 231.325, 158.325 232, 157.500 232 C 156.667 232, 156 232.889, 156 234 C 156 235.333, 155.333 236, 154 236 C 152.667 236, 152 236.667, 152 238 C 152 239.111, 151.333 240, 150.500 240 C 149.675 240, 149 240.647, 149 241.439 C 149 243.690, 141.593 244.317, 124.461 243.514 C 112.250 242.942, 109 242.496, 109 241.395 C 109 240.253, 105.729 240, 91 240 C 71.962 240, 72.330 240.101, 73.630 235.250 C 74.072 233.603, 74.976 233, 77.005 233 C 79.382 233, 79.871 232.500, 80.434 229.500 C 80.827 227.405, 81.675 226, 82.545 226 C 83.532 226, 84 224.911, 84 222.617 C 84 220.074, 84.497 219.103, 86 218.710 C 87.532 218.310, 88 217.346, 88 214.594 C 88 212.066, 88.445 211, 89.500 211 C 90.753 211, 91 208.944, 91 198.500 C 91 188.056, 90.753 186, 89.500 186 C 88.379 186, 87.997 184.799, 87.986 181.250 C 87.969 175.077, 87.103 172, 85.383 172 C 84.436 172, 84 170.739, 84 168 C 84 165.166, 83.576 164, 82.545 164 C 81.675 164, 80.827 162.595, 80.434 160.500 C 80.058 158.495, 79.184 157, 78.389 157 C 77.625 157, 77 156.283, 77 155.406 C 77 154.530, 76.100 153.577, 75 153.290 C 73.497 152.897, 73 151.926, 73 149.383 C 73 147.043, 72.538 146, 71.500 146 C 70.675 146, 70 145.325, 70 144.500 C 70 143.667, 69.111 143, 68 143 C 66.667 143, 66 142.333, 66 141 C 66 139.667, 65.333 139, 64 139 C 62.889 139, 62 139.667, 62 140.500 C 62 141.325, 61.325 142, 60.500 142 C 59.417 142, 59 143.111, 59 146 C 59 148.889, 59.417 150, 60.500 150 C 61.325 150, 62 150.675, 62 151.500 C 62 152.333, 62.889 153, 64 153 C 65.292 153, 66 153.667, 66 154.883 C 66 155.926, 66.893 157, 68 157.290 C 69.100 157.577, 70 158.530, 70 159.406 C 70 160.283, 70.675 161, 71.500 161 C 72.548 161, 73 162.056, 73 164.500 C 73 167.333, 73.381 168, 75 168 C 76.619 168, 77 168.667, 77 171.500 C 77 173.944, 77.452 175, 78.500 175 C 79.621 175, 80.003 176.201, 80.014 179.750 C 80.031 185.923, 80.897 189, 82.617 189 C 83.697 189, 84 191.078, 84 198.500 C 84 205.922, 83.697 208, 82.617 208 C 81.101 208, 80.035 210.968, 80.014 215.250 C 80.005 217.022, 79.466 218, 78.500 218 C 77.667 218, 77 218.889, 77 220 C 77 221.333, 76.333 222, 75 222 C 73.667 222, 73 222.667, 73 224 C 73 225.111, 72.333 226, 71.500 226 C 70.675 226, 70 226.675, 70 227.500 C 70 228.333, 69.111 229, 68 229 C 66.667 229, 66 229.667, 66 231 C 66 232.100, 65.377 233, 64.617 233 C 63.041 233, 62.034 236, 62.014 240.750 C 62.004 242.966, 61.523 244, 60.500 244 C 59.452 244, 59 245.056, 59 247.500 C 59 250.333, 59.381 251, 61 251 C 62.111 251, 63 251.667, 63 252.500 C 63 253.325, 63.675 254, 64.500 254 C 65.325 254, 66 253.325, 66 252.500 C 66 251.204, 69.667 251, 93 251 C 116.333 251, 120 251.204, 120 252.500 C 120 253.652, 121.278 254, 125.500 254 C 130.333 254, 131 254.242, 131 256 C 131 257.111, 131.667 258, 132.500 258 C 133.333 258, 134 258.889, 134 260 C 134 261.100, 134.563 261.994, 135.250 261.986 C 138.160 261.955, 141 260.669, 141 259.383 C 141 258.329, 142.781 258, 148.500 258 C 154.197 258, 156 258.331, 156 259.375 C 156 260.746, 160.120 262, 164.625 262 C 166.069 262, 167 262.588, 167 263.500 C 167 264.652, 168.278 265, 172.500 265 C 176.516 265, 178 265.373, 178 266.383 C 178 267.959, 181 268.966, 185.750 268.986 C 187.966 268.996, 189 269.477, 189 270.500 C 189 271.412, 189.931 272, 191.375 272 C 195.880 272, 200 273.254, 200 274.625 C 200 275.661, 201.727 276, 207 276 C 212.425 276, 214 276.324, 214 277.439 C 214 278.489, 215.895 279.066, 221 279.569 C 225.927 280.054, 228 280.664, 228 281.629 C 228 282.707, 230.350 283, 239 283 L 250 283 250 279.500 C 250 277.056, 250.452 276, 251.500 276 C 252.548 276, 253 274.944, 253 272.500 C 253 269.167, 252.833 269, 249.500 269 C 246.667 269, 246 268.619, 246 267 C 246 265.381, 245.333 265, 242.500 265 C 239.167 265, 239 265.167, 239 268.500 C 239 271.917, 238.905 272, 235 272 C 232.111 272, 231 271.583, 231 270.500 C 231 269.283, 229.378 269, 222.406 269 C 214.654 269, 213.762 268.804, 213.290 267 C 212.857 265.344, 211.926 265, 207.883 265 C 204.394 265, 203 264.605, 203 263.617 C 203 262.626, 200.878 262.036, 195.500 261.532 C 190.032 261.020, 188 260.446, 188 259.415 C 188 258.384, 186.644 258, 183 258 C 179.424 258, 178 257.608, 178 256.625 C 178 255.254, 173.880 254, 169.375 254 C 167.931 254, 167 253.412, 167 252.500 C 167 251.348, 165.722 251, 161.500 251 C 156.667 251, 156 250.758, 156 249 C 156 247.889, 155.333 247, 154.500 247 C 151.745 247, 152.958 244.168, 156 243.500 C 157.650 243.138, 159 242.202, 159 241.421 C 159 240.639, 159.900 240, 161 240 C 162.163 240, 163 239.333, 163 238.406 C 163 237.530, 163.900 236.577, 165 236.290 C 166.100 236.002, 167 235.144, 167 234.383 C 167 233.623, 167.675 233, 168.500 233 C 169.333 233, 170 232.111, 170 231 C 170 229.667, 170.667 229, 172 229 C 173.333 229, 174 228.333, 174 227 C 174 225.889, 174.667 225, 175.500 225 C 176.325 225, 177 224.325, 177 223.500 C 177 222.667, 177.889 222, 179 222 C 180.333 222, 181 221.333, 181 220 C 181 218.667, 181.667 218, 183 218 C 184.111 218, 185 217.333, 185 216.500 C 185 215.675, 185.623 215, 186.383 215 C 187.144 215, 188.002 214.100, 188.290 213 C 188.577 211.900, 189.530 211, 190.406 211 C 191.561 211, 192 210.036, 192 207.500 C 192 204.667, 192.381 204, 194 204 C 196.109 204, 196.641 200.992, 195.370 196.250 C 194.699 193.747, 192 193.146, 192 195.500 C 192 196.652, 190.722 197, 186.500 197 C 182.278 197, 181 197.348, 181 198.500 C 181 199.637, 179.767 200, 175.906 200 C 171.654 200, 170.726 200.330, 170.290 202 C 169.831 203.756, 168.926 204, 162.883 204 L 156 204 156 200.500 L 156 197 161.500 197 C 166.333 197, 167 196.758, 167 195 C 167 193.889, 167.667 193, 168.500 193 C 169.325 193, 170 192.325, 170 191.500 C 170 190.667, 170.889 190, 172 190 C 173.333 190, 174 189.333, 174 188 C 174 186.242, 174.667 186, 179.500 186 C 183.646 186, 185 185.642, 185 184.545 C 185 183.675, 186.405 182.827, 188.500 182.434 C 190.505 182.058, 192 181.184, 192 180.389 C 192 179.468, 193.180 179, 195.500 179 C 198.833 179, 199 179.167, 199 182.500 C 199 185.833, 199.167 186, 202.500 186 L 206 186 206 193 C 206 198.556, 205.690 200, 204.500 200 C 203.352 200, 203 201.265, 203 205.383 C 203 209.926, 202.688 210.848, 201 211.290 C 199.330 211.726, 199 212.654, 199 216.906 C 199 220.767, 198.637 222, 197.500 222 C 196.675 222, 196 221.325, 196 220.500 C 196 219.417, 194.889 219, 192 219 C 189.111 219, 188 219.417, 188 220.500 C 188 221.325, 187.325 222, 186.500 222 C 185.675 222, 184.994 222.563, 184.986 223.250 C 184.979 223.938, 184.701 225.512, 184.370 226.750 C 183.816 228.817, 184.102 229, 187.883 229 C 191.333 229, 192 229.324, 192 231 C 192 232.619, 192.667 233, 195.500 233 C 197.848 233, 199 233.465, 199 234.412 C 199 235.280, 200.541 236.085, 203 236.500 C 205.459 236.915, 207 237.720, 207 238.588 C 207 239.535, 208.152 240, 210.500 240 C 212.944 240, 214 240.452, 214 241.500 C 214 242.325, 214.675 243, 215.500 243 C 216.333 243, 217 243.889, 217 245 C 217 246.629, 217.667 247, 220.594 247 C 223.346 247, 224.310 247.468, 224.710 249 C 225.375 251.541, 231 251.904, 231 249.406 C 231 248.530, 231.900 247.577, 233 247.290 C 235.318 246.684, 235.726 244, 233.500 244 C 232.667 244, 232 243.111, 232 242 C 232 240.381, 231.333 240, 228.500 240 C 225.964 240, 225 239.561, 225 238.406 C 225 237.530, 224.100 236.577, 223 236.290 C 221.900 236.002, 221 235.194, 221 234.495 C 221 233.795, 219.425 232.927, 217.500 232.566 C 215.405 232.173, 214 231.325, 214 230.455 C 214 229.655, 213.100 229, 212 229 C 210.900 229, 210 228.375, 210 227.611 C 210 226.816, 208.505 225.942, 206.500 225.566 C 203.079 224.924, 201.402 222, 204.455 222 C 205.325 222, 206.173 220.595, 206.566 218.500 C 206.942 216.495, 207.816 215, 208.611 215 C 209.628 215, 210 213.526, 210 209.500 C 210 204.667, 210.242 204, 212 204 C 213.822 204, 214 203.333, 214 196.500 C 214 190.660, 214.317 189, 215.431 189 C 217.110 189, 217.705 177.803, 217.173 156.250 C 216.910 145.613, 216.564 143, 215.423 143 C 214.472 143, 214 141.875, 214 139.611 C 214 136.530, 213.682 136.163, 210.500 135.566 C 208.405 135.173, 207 134.325, 207 133.455 C 207 132.655, 206.100 132, 205 132 C 203.900 132, 203 131.377, 203 130.617 C 203 128.759, 199.848 128.030, 191.750 128.014 C 186.423 128.003, 185 127.684, 185 126.500 C 185 125.236, 182.722 125, 170.500 125 C 158.278 125, 156 125.236, 156 126.500 M 159 137.500 C 159 138.325, 158.325 139, 157.500 139 C 156.675 139, 156 139.655, 156 140.455 C 156 141.325, 154.595 142.173, 152.500 142.566 L 149 143.223 149 150.111 C 149 155.568, 149.312 157, 150.500 157 C 151.652 157, 152 158.278, 152 162.500 L 152 168 156 168 C 158.739 168, 160 167.564, 160 166.617 C 160 164.616, 163.234 164.029, 174.344 164.014 C 183.352 164.001, 184.232 164.170, 184.710 166 C 185.184 167.811, 186.074 168, 194.117 168 C 201.013 168, 203 168.309, 203 169.383 C 203 170.144, 203.900 171.002, 205 171.290 C 206.532 171.690, 207 172.654, 207 175.406 C 207 177.934, 207.445 179, 208.500 179 C 209.756 179, 210 176.889, 210 166 C 210 155.598, 209.724 153, 208.617 153 C 207.101 153, 206.035 150.032, 206.014 145.750 C 206.005 143.953, 205.469 143, 204.469 143 C 203.626 143, 202.683 142.337, 202.372 141.527 C 202.061 140.717, 200.275 139.767, 198.403 139.416 C 196.473 139.054, 195 138.177, 195 137.389 C 195 136.255, 191.692 136, 177 136 C 161.667 136, 159 136.222, 159 137.500 M 170 173.500 C 170 174.493, 169.007 175, 167.059 175 C 165.441 175, 163.821 175.480, 163.459 176.067 C 162.576 177.495, 163.070 177.864, 166.881 178.626 C 169.628 179.176, 170.200 178.951, 170.675 177.137 C 171.082 175.578, 172.013 175, 174.117 175 C 176.013 175, 177 174.487, 177 173.500 C 177 172.452, 175.944 172, 173.500 172 C 171.056 172, 170 172.452, 170 173.500 M 153 182.500 C 153 185.722, 153.238 186, 156 186 C 158.762 186, 159 185.722, 159 182.500 C 159 179.278, 158.762 179, 156 179 C 153.238 179, 153 179.278, 153 182.500" stroke="none" fill="black" fill-rule="evenodd"/>
</svg>