<svg xmlns="http://www.w3.org/2000/svg" width="300" height="300" viewBox="0 0 300 300" version="1.1">
	<path d="M 97.750 38.689 C 96.382 39.047, 96 40.222, 96 44.073 L 96 49 106.450 49 C 115.080 49, 117.060 49.285, 117.815 50.634 C 118.406 51.690, 120.544 52.442, 123.865 52.761 C 127.312 53.092, 129 53.706, 129 54.627 C 129 55.382, 129.675 56, 130.500 56 C 131.652 56, 132 57.278, 132 61.500 C 132 65.722, 132.348 67, 133.500 67 C 134.325 67, 135 66.283, 135 65.406 C 135 64.530, 135.900 63.577, 137 63.290 C 138.735 62.836, 139 61.926, 139 56.429 L 139 50.091 135.500 49.434 C 132.967 48.959, 132 48.255, 132 46.889 C 132 45.667, 131.294 45, 130 45 C 128.889 45, 128 44.333, 128 43.500 C 128 42.286, 126.402 42, 119.617 42 C 112.074 42, 111.181 41.799, 110.710 40 C 110.264 38.295, 109.399 38.017, 104.844 38.116 C 101.905 38.180, 98.713 38.438, 97.750 38.689 M 204 40 C 204 41.619, 203.333 42, 200.500 42 C 197.964 42, 197 42.439, 197 43.594 C 197 44.470, 196.100 45.423, 195 45.710 C 193.583 46.081, 193 47.074, 193 49.117 C 193 51.013, 192.487 52, 191.500 52 C 190.644 52, 190 52.899, 190 54.094 C 190 55.346, 189.197 56.397, 188 56.710 C 186.583 57.081, 186 58.074, 186 60.117 C 186 62.013, 185.487 63, 184.500 63 C 183.462 63, 183 64.043, 183 66.383 C 183 70.258, 184.418 70.964, 192.250 70.986 C 195.799 70.997, 197 71.379, 197 72.500 C 197 73.333, 197.889 74, 199 74 C 200.111 74, 201 73.333, 201 72.500 C 201 71.675, 201.675 71, 202.500 71 C 203.325 71, 204 71.675, 204 72.500 C 204 73.548, 205.056 74, 207.500 74 C 209.944 74, 211 73.548, 211 72.500 C 211 71.255, 212.931 71, 222.375 71 C 235.446 71, 240 70.322, 240 68.375 C 240 67.470, 241.197 67, 243.500 67 C 246.036 67, 247 67.439, 247 68.594 C 247 69.470, 247.900 70.423, 249 70.710 C 250.100 70.998, 251 71.856, 251 72.617 C 251 73.377, 251.675 74, 252.500 74 C 253.325 74, 254 73.325, 254 72.500 C 254 71.667, 254.889 71, 256 71 C 257.619 71, 258 70.333, 258 67.500 C 258 65.129, 257.538 64, 256.567 64 C 255.779 64, 254.849 63.100, 254.500 62 C 253.900 60.110, 252.987 60, 237.933 60 C 224.437 60, 222 60.229, 222 61.500 C 222 62.738, 220.167 63, 211.500 63 C 202.833 63, 201 62.738, 201 61.500 C 201 60.667, 200.111 60, 199 60 C 197.667 60, 197 59.333, 197 58 C 197 56.900, 197.639 56, 198.421 56 C 199.202 56, 200.128 54.696, 200.478 53.102 C 201.239 49.636, 202.995 49.032, 212.367 49.014 C 218.997 49, 219.213 48.923, 218.630 46.750 C 218.299 45.513, 218.021 43.938, 218.014 43.250 C 218.005 42.491, 216.626 42, 214.500 42 C 211.667 42, 211 41.619, 211 40 C 211 38.381, 210.333 38, 207.500 38 C 204.667 38, 204 38.381, 204 40 M 112.250 81.706 C 111.013 81.944, 110 82.783, 110 83.570 C 110 84.674, 108.404 85, 103 85 C 97.727 85, 96 85.339, 96 86.375 C 96 87.746, 91.880 89, 87.375 89 C 85.931 89, 85 89.588, 85 90.500 C 85 91.325, 84.377 92, 83.617 92 C 81.968 92, 80.950 96.403, 81.708 100.250 C 82.171 102.600, 82.741 103, 85.625 103 C 87.958 103, 89 102.537, 89 101.500 C 89 100.337, 90.319 100, 94.875 100 C 102.658 100, 107 99.060, 107 97.375 C 107 96.470, 108.197 96, 110.500 96 C 112.944 96, 114 95.548, 114 94.500 C 114 93.310, 115.444 93, 121 93 L 128 93 128 98 C 128 101.778, 127.633 103, 126.500 103 C 125.477 103, 124.996 104.034, 124.986 106.250 C 124.966 111, 123.959 114, 122.383 114 C 121.469 114, 121 115.187, 121 117.500 C 121 119.820, 120.532 121, 119.611 121 C 118.816 121, 117.942 122.495, 117.566 124.500 C 117.173 126.595, 116.325 128, 115.455 128 C 114.424 128, 114 129.166, 114 132 C 114 134.834, 113.576 136, 112.545 136 C 111.675 136, 110.827 137.405, 110.434 139.500 C 110.058 141.505, 109.184 143, 108.389 143 C 107.468 143, 107 144.180, 107 146.500 C 107 149.333, 106.619 150, 105 150 C 103.381 150, 103 150.667, 103 153.500 C 103 155.848, 102.535 157, 101.588 157 C 100.720 157, 99.915 158.541, 99.500 161 C 99.085 163.459, 98.280 165, 97.412 165 C 96.384 165, 96 166.361, 96 170 C 96 174.333, 95.733 175, 94 175 C 92.381 175, 92 175.667, 92 178.500 C 92 180.944, 91.548 182, 90.500 182 C 89.417 182, 89 183.111, 89 186 C 89 188.889, 89.417 190, 90.500 190 C 91.325 190, 92 190.675, 92 191.500 C 92 192.333, 92.889 193, 94 193 C 95.111 193, 96 192.333, 96 191.500 C 96 190.452, 97.056 190, 99.500 190 L 103 190 103.014 183.250 C 103.030 175.152, 103.759 172, 105.617 172 C 106.564 172, 107 170.739, 107 168 C 107 165.111, 107.417 164, 108.500 164 C 109.510 164, 110 162.990, 110 160.906 C 110 158.654, 110.544 157.671, 112 157.290 C 113.503 156.897, 114 155.926, 114 153.383 C 114 151.163, 114.477 150, 115.389 150 C 116.184 150, 117.058 148.505, 117.434 146.500 C 117.827 144.405, 118.675 143, 119.545 143 C 120.544 143, 121 141.892, 121 139.469 C 121 137.281, 121.560 135.722, 122.473 135.372 C 123.283 135.061, 124.233 133.275, 124.584 131.403 C 124.935 129.532, 125.827 128, 126.566 128 C 127.310 128, 128.203 126.437, 128.566 124.500 C 128.942 122.495, 129.816 121, 130.611 121 C 131.607 121, 132 119.617, 132 116.117 C 132 112.074, 132.344 111.143, 134 110.710 C 135.670 110.274, 136 109.346, 136 105.094 C 136 101.233, 136.363 100, 137.500 100 C 138.700 100, 139 98.500, 139 92.500 C 139 86.500, 138.700 85, 137.500 85 C 136.675 85, 136 84.381, 136 83.625 C 136 82.869, 134.594 81.969, 132.875 81.625 C 129.493 80.949, 115.904 81.002, 112.250 81.706 M 42 105 L 42 114 45.500 114 C 47.813 114, 49 114.469, 49 115.383 C 49 116.144, 49.900 117.002, 51 117.290 C 52.456 117.671, 53 118.654, 53 120.906 C 53 122.990, 53.490 124, 54.500 124 C 55.722 124, 56 125.667, 56 133 C 56 139.961, 55.689 142, 54.628 142 C 53.800 142, 53.002 143.587, 52.616 146 C 52.202 148.588, 51.451 150, 50.488 150 C 48.271 150, 48.689 152.685, 51 153.290 C 52.532 153.690, 53 154.654, 53 157.406 C 53 159.806, 53.461 161, 54.389 161 C 55.184 161, 56.058 162.495, 56.434 164.500 C 56.827 166.595, 57.675 168, 58.545 168 C 59.541 168, 60 169.104, 60 171.500 C 60 173.803, 60.470 175, 61.375 175 C 62.746 175, 64 179.120, 64 183.625 C 64 185.069, 64.588 186, 65.500 186 C 66.753 186, 67 188.056, 67 198.500 C 67 208.944, 66.753 211, 65.500 211 C 64.452 211, 64 212.056, 64 214.500 C 64 217.917, 63.905 218, 60 218 C 56.667 218, 56 218.333, 56 220 C 56 221.549, 55.333 222, 53.045 222 C 50.460 222, 50.008 222.438, 49.434 225.500 C 49.073 227.425, 49.073 230.575, 49.434 232.500 C 50.008 235.562, 50.460 236, 53.045 236 C 55.005 236, 56 235.495, 56 234.500 C 56 233.462, 57.043 233, 59.383 233 C 61.926 233, 62.897 232.503, 63.290 231 C 63.723 229.345, 64.647 229.002, 68.656 229.014 C 74.919 229.031, 78 229.890, 78 231.617 C 78 232.627, 79.484 233, 83.500 233 C 87.722 233, 89 233.348, 89 234.500 C 89 235.466, 89.978 236.005, 91.750 236.014 C 96.032 236.035, 99 237.101, 99 238.617 C 99 239.564, 100.261 240, 103 240 C 105.739 240, 107 240.436, 107 241.383 C 107 242.899, 109.968 243.965, 114.250 243.986 C 115.908 243.995, 117 244.545, 117 245.373 C 117 246.293, 118.683 246.907, 122.107 247.236 C 124.915 247.506, 127.564 248.295, 127.993 248.989 C 128.447 249.724, 131.744 250.463, 135.887 250.760 C 140.507 251.090, 143 251.693, 143 252.479 C 143 253.650, 160.761 255, 176.158 255 C 180.684 255, 182 255.338, 182 256.500 C 182 257.801, 186.111 258, 213 258 C 239.889 258, 244 258.199, 244 259.500 C 244 260.548, 245.056 261, 247.500 261 C 249.944 261, 251 260.548, 251 259.500 C 251 258.675, 251.675 258, 252.500 258 C 253.548 258, 254 256.944, 254 254.500 C 254 251.661, 253.620 251, 251.990 251 C 250.885 251, 249.210 250.100, 248.268 249 C 246.607 247.061, 245.318 247, 205.778 247 C 170.198 247, 165 246.809, 165 245.500 C 165 244.342, 163.691 243.998, 159.250 243.991 C 149.782 243.977, 143 242.879, 143 241.361 C 143 240.314, 140.924 240, 134 240 C 125.667 240, 125 239.852, 125 238 C 125 236.242, 124.333 236, 119.500 236 C 115.278 236, 114 235.652, 114 234.500 C 114 233.452, 112.944 233, 110.500 233 C 107.667 233, 107 232.619, 107 231 C 107 229.381, 106.333 229, 103.500 229 C 101.056 229, 100 228.548, 100 227.500 C 100 226.445, 98.934 226, 96.406 226 C 93.654 226, 92.690 225.532, 92.290 224 C 91.859 222.353, 90.926 222, 87 222 C 83.074 222, 82.141 221.647, 81.710 220 C 81.306 218.453, 80.346 218, 77.477 218 C 74.117 218, 73.824 217.787, 74.370 215.750 C 74.701 214.512, 74.979 212.262, 74.986 210.750 C 74.995 208.978, 75.534 208, 76.500 208 C 77.722 208, 78 206.333, 78 199 C 78 191.667, 77.722 190, 76.500 190 C 75.395 190, 75 188.847, 75 185.625 C 75 179.431, 73.960 175, 72.505 175 C 71.765 175, 71.047 173.112, 70.736 170.349 C 70.420 167.551, 69.572 165.340, 68.606 164.799 C 67.723 164.305, 67 163.023, 67 161.950 C 67 160.878, 66.371 160, 65.601 160 C 64.604 160, 64.002 157.995, 63.500 153 C 62.998 148.005, 62.396 146, 61.399 146 C 60.629 146, 60 145.325, 60 144.500 C 60 143.675, 60.619 143, 61.375 143 C 63.155 143, 64 138.585, 64 129.281 C 64 122.654, 63.775 121.754, 62 121.290 C 60.497 120.897, 60 119.926, 60 117.383 C 60 115.163, 59.523 114, 58.611 114 C 57.816 114, 56.942 112.505, 56.566 110.500 C 56.173 108.405, 55.325 107, 54.455 107 C 53.655 107, 53 106.100, 53 105 C 53 103.900, 52.345 103, 51.545 103 C 50.675 103, 49.827 101.595, 49.434 99.500 C 48.837 96.318, 48.470 96, 45.389 96 L 42 96 42 105 M 197.352 99.716 C 193.937 100.145, 193.038 101.842, 193.014 107.901 L 193 111.301 203.607 110.701 C 213.549 110.138, 214.245 110.222, 214.723 112.050 C 215.004 113.123, 215.856 114, 216.617 114 C 217.610 114, 218 115.410, 218 119 C 218 122.634, 217.615 124, 216.591 124 C 215.489 124, 215.108 126.306, 214.841 134.572 C 214.557 143.376, 214.207 145.307, 212.750 146.121 C 211.228 146.972, 211 148.739, 211 159.706 L 211 172.313 195.750 171.701 C 187.363 171.364, 178.588 171.353, 176.250 171.676 L 172 172.263 172 177.046 L 172 181.829 179.498 182.532 C 183.621 182.918, 188.009 182.960, 189.248 182.624 C 190.486 182.288, 196.787 182.303, 203.250 182.656 L 215 183.300 215 186.650 C 215 188.809, 215.484 190, 216.361 190 C 218.183 190, 219.028 197.594, 218.290 207.345 C 217.902 212.474, 217.301 215, 216.467 215 C 215.783 215, 214.927 216.575, 214.566 218.500 C 214.173 220.595, 213.325 222, 212.455 222 C 211.655 222, 211 222.675, 211 223.500 C 211 224.412, 210.069 225, 208.625 225 C 203.977 225, 200 226.254, 200 227.719 C 200 228.526, 200.900 229.423, 202 229.710 C 203.100 229.998, 204 230.856, 204 231.617 C 204 233.897, 211.668 233.411, 213.732 231 C 214.674 229.900, 216.019 229, 216.722 229 C 217.425 229, 218 228.325, 218 227.500 C 218 226.667, 218.889 226, 220 226 C 221.606 226, 222 225.333, 222 222.617 C 222 220.074, 222.497 219.103, 224 218.710 C 225.532 218.310, 226 217.346, 226 214.594 C 226 212.066, 226.445 211, 227.500 211 C 228.762 211, 229 208.778, 229 197 L 229 183 243.500 183 L 258 183 258 179 C 258 175.095, 257.917 175, 254.500 175 C 252.056 175, 251 174.548, 251 173.500 C 251 172.667, 250.111 172, 249 172 C 247.889 172, 247 172.667, 247 173.500 C 247 174.325, 246.325 175, 245.500 175 C 244.675 175, 244 174.325, 244 173.500 C 244 172.258, 242.111 172, 233 172 C 222.667 172, 222 171.879, 222 170 C 222 168.889, 221.333 168, 220.500 168 C 219.367 168, 219 166.778, 219 163 C 219 159.222, 219.367 158, 220.500 158 C 221.742 158, 222 156.111, 222 147 C 222 138.333, 222.292 136, 223.375 136 C 225.325 136, 226 131.443, 226 118.281 C 226 107.654, 225.853 106.774, 224 106.290 C 222.613 105.927, 222 104.926, 222 103.023 C 222 100.459, 221.655 100.237, 216.750 99.648 C 211.322 98.996, 202.842 99.026, 197.352 99.716 M 132 138.883 C 132 140.926, 131.417 141.919, 130 142.290 C 128.468 142.690, 128 143.654, 128 146.406 C 128 149.932, 128.075 150, 132 150 C 135.333 150, 136 150.333, 136 152 C 136 153.111, 136.667 154, 137.500 154 C 138.631 154, 139 155.217, 139 158.950 C 139 162.626, 139.451 164.153, 140.750 164.879 C 142.196 165.687, 142.560 167.604, 142.844 175.928 C 143.111 183.753, 143.501 186, 144.594 186 C 145.367 186, 146 186.675, 146 187.500 C 146 188.325, 145.325 189, 144.500 189 C 143.315 189, 142.965 190.574, 142.833 196.500 C 142.742 200.625, 142.629 204.787, 142.583 205.750 C 142.521 207.069, 143.423 207.576, 146.250 207.810 L 150 208.121 150 200.560 C 150 194.507, 150.299 193, 151.500 193 C 152.742 193, 153 191.111, 153 182 C 153 172.889, 152.742 171, 151.500 171 C 150.310 171, 150 169.556, 150 164 C 150 158.652, 149.668 157, 148.594 157 C 147.665 157, 146.954 155.303, 146.500 152 C 146.046 148.697, 145.335 147, 144.406 147 C 143.584 147, 143 145.991, 143 144.571 C 143 141.654, 140.584 139, 137.929 139 C 136.868 139, 136 138.325, 136 137.500 C 136 136.667, 135.111 136, 134 136 C 132.462 136, 132 136.667, 132 138.883" stroke="none" fill="black" fill-rule="evenodd"/>
</svg>