<svg xmlns="http://www.w3.org/2000/svg" width="300" height="300" viewBox="0 0 300 300" version="1.1">
	<path d="M 67.290 58 C 66.831 59.756, 65.926 60, 59.883 60 C 53.667 60, 53 60.194, 53 62 C 53 63.367, 52.333 64, 50.894 64 C 48.896 64, 48.807 64.415, 49.155 72.076 C 49.445 78.457, 49.887 80.357, 51.261 81.126 C 52.653 81.905, 53 83.487, 53 89.050 C 53 94.561, 53.311 96, 54.500 96 C 55.663 96, 56 97.319, 56 101.875 C 56 109.658, 56.940 114, 58.625 114 C 59.521 114, 60 115.179, 60 117.383 C 60 120.005, 60.484 120.893, 62.151 121.329 C 64.193 121.863, 64.269 122.285, 63.651 129.597 C 63.293 133.835, 63 138.584, 63 140.151 C 63 142.017, 62.482 143, 61.500 143 C 60.300 143, 60 144.500, 60 150.500 C 60 156.219, 59.671 158, 58.617 158 C 56.897 158, 56.031 161.077, 56.014 167.250 C 56.003 170.799, 55.621 172, 54.500 172 C 53.534 172, 52.995 172.978, 52.986 174.750 C 52.965 179.032, 51.899 182, 50.383 182 C 49.623 182, 49 182.900, 49 184 C 49 185.333, 48.333 186, 47 186 C 45.889 186, 45 186.667, 45 187.500 C 45 188.325, 44.325 189, 43.500 189 C 42.417 189, 42 190.111, 42 193 C 42 196.809, 42.148 197, 45.109 197 C 48.295 197, 52.950 193.600, 52.983 191.250 C 52.992 190.563, 53.717 190, 54.594 190 C 55.470 190, 56.423 189.100, 56.710 188 C 56.998 186.900, 57.856 186, 58.617 186 C 59.531 186, 60 184.813, 60 182.500 C 60 179.667, 60.381 179, 62 179 C 63.667 179, 64 178.333, 64 175 C 64 172.211, 64.430 171, 65.421 171 C 66.202 171, 67.134 169.664, 67.493 168.032 C 68.020 165.634, 68.804 164.940, 71.572 164.420 C 73.522 164.055, 75 163.178, 75 162.389 C 75 161.625, 75.675 161, 76.500 161 C 77.325 161, 78 161.623, 78 162.383 C 78 163.144, 78.900 164.002, 80 164.290 C 81.435 164.665, 82 165.654, 82 167.790 C 82 170.965, 83.718 171.959, 89.250 171.986 C 91.338 171.997, 92 171.518, 92 170 C 92 168.667, 92.667 168, 94 168 C 95.333 168, 96 167.333, 96 166 C 96 164.381, 95.333 164, 92.500 164 C 89.167 164, 89 163.833, 89 160.500 L 89 157 96 157 C 101.556 157, 103 156.690, 103 155.500 C 103 154.667, 103.889 154, 105 154 C 106.619 154, 107 154.667, 107 157.500 C 107 160.333, 106.619 161, 105 161 C 103.381 161, 103 161.667, 103 164.500 C 103 166.944, 102.548 168, 101.500 168 C 100.675 168, 100 168.717, 100 169.594 C 100 170.470, 99.100 171.423, 98 171.710 C 96.900 171.998, 96 172.803, 96 173.500 C 96 174.197, 95.100 175.002, 94 175.290 C 92.900 175.577, 92 176.530, 92 177.406 C 92 178.283, 91.325 179, 90.500 179 C 89.675 179, 89 179.675, 89 180.500 C 89 181.412, 88.069 182, 86.625 182 C 82.120 182, 78 183.254, 78 184.625 C 78 185.530, 76.803 186, 74.500 186 C 71.667 186, 71 186.381, 71 188 C 71 189.111, 70.333 190, 69.500 190 C 68.675 190, 68 190.675, 68 191.500 C 68 192.325, 68.675 193, 69.500 193 C 70.333 193, 71 193.889, 71 195 C 71 196.731, 71.667 197, 75.950 197 C 79.456 197, 81.163 196.531, 81.799 195.394 C 82.340 194.428, 84.551 193.580, 87.349 193.264 C 90.365 192.924, 92 192.258, 92 191.370 C 92 190.616, 92.900 190, 94 190 C 95.333 190, 96 189.333, 96 188 C 96 186.381, 96.667 186, 99.500 186 C 101.944 186, 103 185.548, 103 184.500 C 103 183.675, 103.563 182.994, 104.250 182.986 C 104.938 182.979, 106.513 182.701, 107.750 182.370 C 109.565 181.883, 110 182.176, 110 183.883 C 110 185.098, 109.361 186, 108.500 186 C 107.675 186, 107 186.623, 107 187.383 C 107 188.144, 106.100 189.002, 105 189.290 C 103.803 189.603, 103 190.654, 103 191.906 C 103 193.058, 102.361 194, 101.579 194 C 100.798 194, 99.862 195.350, 99.500 197 C 99.138 198.650, 98.202 200, 97.421 200 C 96.464 200, 96 201.143, 96 203.500 C 96 206.036, 95.561 207, 94.406 207 C 93.530 207, 92.577 207.900, 92.290 209 C 92.002 210.100, 91.144 211, 90.383 211 C 89.469 211, 89 212.187, 89 214.500 C 89 217.333, 88.619 218, 87 218 C 85.667 218, 85 218.667, 85 220 C 85 221.100, 84.375 222, 83.611 222 C 82.816 222, 81.942 223.495, 81.566 225.500 C 81.173 227.595, 80.325 229, 79.455 229 C 78.459 229, 78 230.104, 78 232.500 C 78 235.833, 78.167 236, 81.500 236 C 83.944 236, 85 235.548, 85 234.500 C 85 233.667, 85.889 233, 87 233 C 88.619 233, 89 232.333, 89 229.500 C 89 227.056, 89.452 226, 90.500 226 C 91.333 226, 92 225.111, 92 224 C 92 222.667, 92.667 222, 94 222 C 95.619 222, 96 221.333, 96 218.500 C 96 215.667, 96.381 215, 98 215 C 99.333 215, 100 214.333, 100 213 C 100 211.900, 100.625 211, 101.389 211 C 102.184 211, 103.058 209.505, 103.434 207.500 C 103.827 205.405, 104.675 204, 105.545 204 C 106.345 204, 107 203.325, 107 202.500 C 107 201.667, 107.889 201, 109 201 C 110.111 201, 111 201.667, 111 202.500 C 111 203.629, 112.209 204, 115.883 204 C 119.926 204, 120.857 204.344, 121.290 206 C 121.726 207.670, 122.654 208, 126.906 208 C 130.586 208, 132 208.386, 132 209.389 C 132 210.184, 133.495 211.058, 135.500 211.434 C 137.595 211.827, 139 212.675, 139 213.545 C 139 214.642, 140.354 215, 144.500 215 C 148.722 215, 150 215.348, 150 216.500 C 150 217.548, 151.056 218, 153.500 218 C 155.813 218, 157 217.531, 157 216.617 C 157 215.856, 157.900 214.998, 159 214.710 C 160.100 214.423, 161 213.653, 161 213 C 161 212.347, 160.100 211.577, 159 211.290 C 157.900 211.002, 157 210.144, 157 209.383 C 157 208.444, 155.758 208, 153.125 208 C 147.228 208, 143 206.904, 143 205.375 C 143 204.619, 142.100 204, 141 204 C 139.900 204, 139 203.381, 139 202.625 C 139 201.254, 134.880 200, 130.375 200 C 129.031 200, 128 199.405, 128 198.630 C 128 197.746, 126.386 197.078, 123.451 196.747 C 120.948 196.465, 118.646 195.979, 118.333 195.667 C 118.021 195.354, 117.535 193.052, 117.253 190.549 C 116.787 186.414, 116.934 186, 118.870 186 C 120.624 186, 121 185.402, 121 182.617 C 121 180.074, 121.497 179.103, 123 178.710 C 124.670 178.274, 125 177.346, 125 173.094 L 125 168 119.500 168 C 115.278 168, 114 168.348, 114 169.500 C 114 170.361, 113.098 171, 111.883 171 C 110.176 171, 109.883 170.565, 110.370 168.750 C 110.701 167.512, 110.979 166.162, 110.986 165.750 C 110.994 165.338, 111.675 165, 112.500 165 C 113.583 165, 114 163.889, 114 161 C 114 157.667, 114.333 157, 116 157 C 117.111 157, 118 156.333, 118 155.500 C 118 154.490, 119.010 154, 121.094 154 C 123.346 154, 124.329 153.456, 124.710 152 C 125.103 150.497, 126.074 150, 128.617 150 C 131.333 150, 132 150.394, 132 152 C 132 153.629, 132.667 154, 135.594 154 C 138.346 154, 139.310 153.532, 139.710 152 C 139.998 150.900, 140.856 150, 141.617 150 C 142.377 150, 143 149.100, 143 148 C 143 146.889, 143.667 146, 144.500 146 C 145.325 146, 146 145.325, 146 144.500 C 146 143.675, 145.325 143, 144.500 143 C 143.667 143, 143 142.111, 143 141 C 143 139.242, 142.333 139, 137.500 139 C 132.667 139, 132 139.242, 132 141 C 132 142.610, 131.333 143, 128.582 143 C 126.702 143, 124.452 142.727, 123.582 142.393 C 121.572 141.622, 121.509 139, 123.500 139 C 124.548 139, 125 137.944, 125 135.500 C 125 133.056, 125.452 132, 126.500 132 C 127.548 132, 128 130.944, 128 128.500 C 128 125.083, 128.095 125, 132 125 C 135.905 125, 136 125.083, 136 128.500 C 136 131.833, 136.167 132, 139.500 132 C 141.944 132, 143 131.548, 143 130.500 C 143 129.675, 143.616 129, 144.369 129 C 145.946 129, 146.973 124.002, 146.989 116.250 C 146.997 112.255, 147.359 111, 148.500 111 C 149.773 111, 150 108.500, 150 94.500 C 150 80.728, 150.241 78, 151.455 78 C 152.325 78, 153.173 76.595, 153.566 74.500 C 153.928 72.569, 154.823 71, 155.562 71 C 156.298 71, 157.341 70.213, 157.878 69.250 C 158.719 67.745, 160.752 67.454, 172.428 67.173 L 186 66.845 186 83.423 C 186 96.870, 185.739 100, 184.617 100 C 182.897 100, 182.031 103.077, 182.014 109.250 C 182.003 112.799, 181.621 114, 180.500 114 C 179.477 114, 178.996 115.034, 178.986 117.250 C 178.966 122.114, 177.948 125, 176.253 125 C 175.049 125, 174.845 125.928, 175.253 129.549 C 175.535 132.052, 176.079 134.412, 176.462 134.796 C 177.444 135.777, 192.341 136.346, 196.523 135.562 C 198.600 135.172, 200 134.324, 200 133.455 C 200 132.311, 201.604 132, 207.500 132 C 213.500 132, 215 131.700, 215 130.500 C 215 129.588, 215.931 129, 217.375 129 C 221.880 129, 226 127.746, 226 126.375 C 226 125.339, 227.727 125, 233 125 C 238.556 125, 240 125.310, 240 126.500 C 240 127.364, 240.903 128, 242.130 128 C 244.066 128, 244.213 127.586, 243.747 123.451 C 243.465 120.948, 243.069 118.743, 242.867 118.550 C 242.349 118.054, 234.300 117.629, 229.250 117.830 C 226.214 117.952, 225 118.429, 225 119.500 C 225 120.715, 223.394 121, 216.550 121 C 209.644 121, 207.926 121.310, 207.150 122.696 C 205.330 125.948, 186 125.727, 186 122.455 C 186 121.655, 186.623 121, 187.383 121 C 189.103 121, 189.969 117.923, 189.986 111.750 C 189.997 108.201, 190.379 107, 191.500 107 C 192.692 107, 193 105.545, 193 99.906 C 193 93.654, 193.237 92.751, 195 92.290 C 196.879 91.798, 197 90.926, 197 77.883 C 197 64.667, 196.904 64, 195 64 C 193.667 64, 193 63.333, 193 62 C 193 60.381, 192.333 60, 189.500 60 C 187.197 60, 186 59.530, 186 58.625 C 186 56.988, 181.674 55.995, 174.625 56.014 C 168.093 56.031, 165 56.867, 165 58.617 C 165 59.627, 163.516 60, 159.500 60 C 155.430 60, 154 60.367, 154 61.412 C 154 62.280, 152.459 63.085, 150 63.500 C 147.541 63.915, 146 64.720, 146 65.588 C 146 66.365, 145.381 67, 144.625 67 C 143.264 67, 142 71.113, 142 75.542 C 142 76.802, 141.438 78.022, 140.750 78.252 C 139.508 78.667, 139.440 79.770, 139.119 104.750 L 139 114 130 114 C 122.667 114, 121 114.278, 121 115.500 C 121 116.695, 119.524 117.002, 113.750 117.009 C 109.763 117.013, 104.138 117.301, 101.250 117.648 L 96 118.279 96 110.639 C 96 104.802, 96.326 103, 97.383 103 C 99.103 103, 99.969 99.923, 99.986 93.750 C 99.997 90.201, 100.379 89, 101.500 89 C 102.742 89, 103 87.111, 103 78 C 103 69.301, 102.711 67, 101.617 67 C 100.856 67, 99.998 66.100, 99.710 65 C 99.423 63.900, 98.470 63, 97.594 63 C 96.717 63, 96 62.325, 96 61.500 C 96 60.667, 95.111 60, 94 60 C 92.900 60, 92 59.377, 92 58.617 C 92 56.616, 88.766 56.029, 77.656 56.014 C 68.648 56.001, 67.768 56.170, 67.290 58 M 82 65.500 C 82 66.650, 80.729 67, 76.559 67 C 73.566 67, 70.852 67.431, 70.527 67.957 C 69.455 69.691, 71.193 82, 72.509 82 C 74.109 82, 75.403 99.316, 74.439 107.834 L 73.742 114 79.260 114 C 84.774 114, 84.778 113.998, 85.434 110.500 C 85.827 108.405, 86.675 107, 87.545 107 C 88.642 107, 89 105.646, 89 101.500 C 89 97.551, 89.380 96, 90.349 96 C 91.357 96, 91.847 93.374, 92.287 85.618 C 92.928 74.287, 92.500 71, 90.383 71 C 89.623 71, 89 70.100, 89 69 C 89 67.667, 88.333 67, 87 67 C 85.889 67, 85 66.333, 85 65.500 C 85 64.675, 84.325 64, 83.500 64 C 82.675 64, 82 64.675, 82 65.500 M 57 71 C 57 73.667, 57.333 74, 60 74 C 62 74, 63 73.500, 63 72.500 C 63 71.675, 62.325 71, 61.500 71 C 60.675 71, 60 70.325, 60 69.500 C 60 68.675, 59.325 68, 58.500 68 C 57.500 68, 57 69, 57 71 M 60 85.500 C 60 91.187, 60.331 93, 61.371 93 C 62.261 93, 62.975 94.754, 63.406 98 C 63.860 101.424, 64.531 103, 65.534 103 C 66.682 103, 67 101.482, 67 96 C 67 90.444, 66.690 89, 65.500 89 C 64.477 89, 63.996 87.966, 63.986 85.750 C 63.966 81, 62.959 78, 61.383 78 C 60.329 78, 60 79.781, 60 85.500 M 74.630 127.250 C 74.299 128.488, 74.021 130.963, 74.014 132.750 C 74.004 134.966, 73.523 136, 72.500 136 C 71.284 136, 71 137.611, 71 144.500 L 71 153 74.500 153 L 78 153 78 144.500 C 78 137.389, 78.260 136, 79.594 136 C 80.470 136, 81.423 135.100, 81.710 134 C 82.169 132.244, 83.074 132, 89.117 132 L 96 132 96 135.500 C 96 138.833, 95.833 139, 92.500 139 L 89 139 89 144.500 L 89 150 92.500 150 C 95.333 150, 96 149.619, 96 148 C 96 146.190, 96.667 146, 103 146 C 108.556 146, 110 145.690, 110 144.500 C 110 143.667, 110.889 143, 112 143 C 113.667 143, 114 142.333, 114 139 C 114 136.261, 114.436 135, 115.383 135 C 116.899 135, 117.965 132.032, 117.986 127.750 L 118 125 107 125 C 97.889 125, 96 125.258, 96 126.500 C 96 127.548, 94.944 128, 92.500 128 C 90.056 128, 89 127.548, 89 126.500 C 89 125.312, 87.569 125, 82.117 125 C 75.824 125, 75.182 125.193, 74.630 127.250 M 211 148.500 C 211 149.633, 209.778 150, 206 150 C 202.361 150, 201 150.384, 201 151.412 C 201 152.280, 199.459 153.085, 197 153.500 C 194.541 153.915, 193 154.720, 193 155.588 C 193 156.535, 191.848 157, 189.500 157 C 186.667 157, 186 157.381, 186 159 C 186 160.667, 185.333 161, 182 161 C 179.111 161, 178 161.417, 178 162.500 C 178 163.510, 176.990 164, 174.906 164 C 172.654 164, 171.671 164.544, 171.290 166 C 170.897 167.503, 169.926 168, 167.383 168 C 165.089 168, 164 168.468, 164 169.455 C 164 170.325, 162.595 171.173, 160.500 171.566 C 158.495 171.942, 157 172.816, 157 173.611 C 157 174.532, 155.820 175, 153.500 175 C 150.667 175, 150 175.381, 150 177 C 150 178.333, 149.333 179, 148 179 C 146.900 179, 146 179.639, 146 180.421 C 146 181.202, 144.696 182.128, 143.102 182.478 C 140.088 183.140, 139.039 185.134, 139.014 190.250 C 139 192.918, 139.163 193, 144.500 193 C 148.722 193, 150 192.652, 150 191.500 C 150 190.667, 150.889 190, 152 190 C 153.333 190, 154 189.333, 154 188 C 154 186.381, 154.667 186, 157.500 186 C 160.833 186, 161 186.167, 161 189.500 C 161 191.944, 161.452 193, 162.500 193 C 163.333 193, 164 193.889, 164 195 C 164 196.333, 164.667 197, 166 197 C 167.100 197, 168 197.625, 168 198.389 C 168 199.184, 169.495 200.058, 171.500 200.434 C 173.595 200.827, 175 201.675, 175 202.545 C 175 203.345, 175.900 204, 177 204 C 178.111 204, 179 204.667, 179 205.500 C 179 206.325, 179.675 207, 180.500 207 C 181.333 207, 182 207.889, 182 209 C 182 210.111, 181.333 211, 180.500 211 C 179.667 211, 179 211.889, 179 213 C 179 214.100, 178.377 215, 177.617 215 C 176.856 215, 175.998 215.900, 175.710 217 C 175.423 218.100, 174.470 219, 173.594 219 C 172.717 219, 172 219.675, 172 220.500 C 172 221.333, 171.111 222, 170 222 C 168.667 222, 168 222.667, 168 224 C 168 225.333, 167.333 226, 166 226 C 164.889 226, 164 226.667, 164 227.500 C 164 228.325, 163.325 229, 162.500 229 C 161.667 229, 161 229.889, 161 231 C 161 232.738, 161.667 233, 166.094 233 C 170.346 233, 171.274 232.670, 171.710 231 C 171.998 229.900, 172.856 229, 173.617 229 C 174.377 229, 175 228.325, 175 227.500 C 175 226.667, 175.889 226, 177 226 C 178.333 226, 179 225.333, 179 224 C 179 222.667, 179.667 222, 181 222 C 182.111 222, 183 221.333, 183 220.500 C 183 219.675, 183.675 219, 184.500 219 C 185.333 219, 186 218.111, 186 217 C 186 215.148, 186.667 215, 195 215 C 202.013 215, 204 215.307, 204 216.389 C 204 217.184, 205.495 218.058, 207.500 218.434 C 209.595 218.827, 211 219.675, 211 220.545 C 211 221.642, 212.354 222, 216.500 222 C 220.646 222, 222 222.358, 222 223.455 C 222 224.325, 223.405 225.173, 225.500 225.566 C 227.425 225.927, 229 226.797, 229 227.500 C 229 228.203, 230.575 229.073, 232.500 229.434 C 234.595 229.827, 236 230.675, 236 231.545 C 236 232.345, 236.900 233, 238 233 C 239.100 233, 240 233.625, 240 234.389 C 240 235.184, 241.495 236.058, 243.500 236.434 C 245.595 236.827, 247 237.675, 247 238.545 C 247 239.345, 247.623 240, 248.383 240 C 249.144 240, 250.002 240.900, 250.290 242 C 250.690 243.532, 251.654 244, 254.406 244 C 257.838 244, 258 243.844, 258 240.545 C 258 237.389, 257.698 237.034, 254.500 236.434 C 251.960 235.957, 251 235.257, 251 233.879 C 251 232.835, 250.100 231.210, 249 230.268 C 247.900 229.326, 247 228.031, 247 227.389 C 247 226.747, 245.425 225.927, 243.500 225.566 C 241.405 225.173, 240 224.325, 240 223.455 C 240 222.459, 238.896 222, 236.500 222 C 233.667 222, 233 221.619, 233 220 C 233 218.381, 232.333 218, 229.500 218 C 227.056 218, 226 217.548, 226 216.500 C 226 215.445, 224.934 215, 222.406 215 C 219.654 215, 218.690 214.532, 218.290 213 C 217.857 211.344, 216.926 211, 212.883 211 C 209.383 211, 208 210.607, 208 209.611 C 208 208.824, 206.529 207.947, 204.602 207.585 C 202.067 207.109, 201.043 206.308, 200.571 204.428 C 199.839 201.509, 200.516 200, 202.559 200 C 203.352 200, 204 199.100, 204 198 C 204 196.900, 204.639 196, 205.421 196 C 206.202 196, 207.138 194.650, 207.500 193 C 207.862 191.350, 208.798 190, 209.579 190 C 210.361 190, 211 189.100, 211 188 C 211 186.667, 211.667 186, 213 186 C 214.619 186, 215 185.333, 215 182.500 C 215 180.180, 215.468 179, 216.389 179 C 217.184 179, 218.058 177.505, 218.434 175.500 C 218.827 173.405, 219.675 172, 220.545 172 C 221.642 172, 222 170.646, 222 166.500 C 222 162.278, 222.348 161, 223.500 161 C 224.652 161, 225 159.722, 225 155.500 C 225 151.278, 224.652 150, 223.500 150 C 222.675 150, 222 149.325, 222 148.500 C 222 147.348, 220.722 147, 216.500 147 C 212.278 147, 211 147.348, 211 148.500 M 210.791 159.127 C 210.584 159.747, 208.072 160.479, 205.208 160.754 C 201.703 161.091, 200 161.703, 200 162.627 C 200 163.529, 198.800 164, 196.500 164 C 193.667 164, 193 164.381, 193 166 C 193 167.758, 192.333 168, 187.500 168 C 183.354 168, 182 168.358, 182 169.455 C 182 170.325, 180.595 171.173, 178.500 171.566 C 176.495 171.942, 175 172.816, 175 173.611 C 175 174.532, 173.820 175, 171.500 175 C 168.667 175, 168 175.381, 168 177 C 168 178.619, 167.333 179, 164.500 179 C 161.602 179, 161 179.364, 161 181.117 C 161 182.824, 161.435 183.117, 163.250 182.630 C 164.488 182.299, 166.063 182.021, 166.750 182.014 C 167.438 182.006, 168 181.325, 168 180.500 C 168 179.452, 169.056 179, 171.500 179 C 173.820 179, 175 179.468, 175 180.389 C 175 181.184, 173.505 182.058, 171.500 182.434 C 167.742 183.139, 166.539 186, 170 186 C 171.100 186, 172 186.639, 172 187.421 C 172 188.202, 173.350 189.138, 175 189.500 C 176.650 189.862, 178 190.798, 178 191.579 C 178 192.361, 178.942 193, 180.094 193 C 181.346 193, 182.397 193.803, 182.710 195 C 183.103 196.503, 184.074 197, 186.617 197 C 188.957 197, 190 197.462, 190 198.500 C 190 199.325, 190.675 200, 191.500 200 C 192.333 200, 193 199.111, 193 198 C 193 196.900, 193.639 196, 194.421 196 C 195.202 196, 196.138 194.650, 196.500 193 C 196.862 191.350, 197.798 190, 198.579 190 C 199.361 190, 200 189.100, 200 188 C 200 186.667, 200.667 186, 202 186 C 203.619 186, 204 185.333, 204 182.500 C 204 179.964, 204.439 179, 205.594 179 C 206.470 179, 207.423 178.100, 207.710 177 C 207.998 175.900, 208.793 175, 209.477 175 C 210.232 175, 210.966 172.938, 211.342 169.756 C 211.684 166.872, 212.422 164.359, 212.982 164.173 C 214.592 163.636, 214.228 158, 212.583 158 C 211.804 158, 210.998 158.507, 210.791 159.127" stroke="none" fill="black" fill-rule="evenodd"/>
</svg>