<svg xmlns="http://www.w3.org/2000/svg" width="300" height="300" viewBox="0 0 300 300" version="1.1">
	<path d="M 160.838 26.750 C 160.748 31.013, 160.804 41.587, 160.961 50.250 L 161.248 66 155.624 66 C 151.554 66, 150 66.375, 150 67.358 C 150 68.761, 142.194 70, 133.353 70 C 130.150 70, 129 70.396, 129 71.500 C 129 72.721, 127.346 73, 120.117 73 C 109.703 73, 110.027 72.599, 110.027 85.500 C 110.027 94.800, 110.690 98, 112.617 98 C 113.377 98, 114 98.900, 114 100 C 114 101.619, 113.333 102, 110.500 102 C 108.056 102, 107 102.452, 107 103.500 C 107 104.412, 106.069 105, 104.625 105 C 100.120 105, 96 106.254, 96 107.625 C 96 109.885, 93.281 109.179, 92.630 106.750 C 92.299 105.512, 92.021 99.888, 92.014 94.250 L 92 84 96 84 C 100.141 84, 100.505 83.487, 99.370 79.250 C 98.916 77.556, 98.032 77, 95.790 77 C 93.654 77, 92.665 76.435, 92.290 75 C 91.897 73.497, 90.926 73, 88.383 73 C 86.043 73, 85 72.538, 85 71.500 C 85 70.667, 85.889 70, 87 70 C 88.333 70, 89 69.333, 89 68 C 89 66.900, 89.623 66, 90.383 66 C 91.144 66, 92.002 65.100, 92.290 64 C 92.671 62.544, 93.654 62, 95.906 62 C 97.990 62, 99 61.510, 99 60.500 C 99 59.452, 100.056 59, 102.500 59 C 105.333 59, 106 58.619, 106 57 C 106 55.900, 105.550 55, 105 55 C 103.428 55, 103.833 52.278, 105.500 51.638 C 106.325 51.322, 107 50.374, 107 49.531 C 107 48.342, 105.772 48, 101.500 48 C 96.667 48, 96 48.242, 96 50 C 96 51.111, 95.333 52, 94.500 52 C 93.675 52, 93 52.675, 93 53.500 C 93 54.422, 92.063 55, 90.571 55 C 87.654 55, 85 57.416, 85 60.071 C 85 61.132, 84.325 62, 83.500 62 C 82.667 62, 82 62.889, 82 64 C 82 65.333, 81.333 66, 80 66 C 78.667 66, 78 66.667, 78 68 C 78 69.111, 77.333 70, 76.500 70 C 75.675 70, 75 70.717, 75 71.594 C 75 72.470, 74.100 73.423, 73 73.710 C 71.900 73.998, 71 74.856, 71 75.617 C 71 76.377, 70.377 77, 69.617 77 C 68.856 77, 67.998 77.900, 67.710 79 C 67.423 80.100, 66.506 81, 65.673 81 C 64.811 81, 63.881 82.264, 63.514 83.935 C 63.037 86.109, 62.135 87.031, 60.037 87.492 C 58.409 87.849, 56.987 88.941, 56.695 90.057 C 56.416 91.126, 55.506 92, 54.673 92 C 53.811 92, 52.881 93.264, 52.514 94.935 C 52.030 97.139, 51.139 98.030, 48.935 98.514 C 47.321 98.869, 46 99.798, 46 100.579 C 46 101.361, 45.100 102, 44 102 C 42.667 102, 42 102.667, 42 104 C 42 105.333, 41.333 106, 40 106 C 38.889 106, 38 106.667, 38 107.500 C 38 108.325, 37.377 109, 36.617 109 C 34.870 109, 34.114 112.834, 34.749 118.467 C 35.355 123.846, 35.730 123.973, 51 123.973 C 63.724 123.973, 67 123.442, 67 121.383 C 67 120.469, 68.187 120, 70.500 120 C 73.833 120, 74 120.167, 74 123.500 C 74 126.339, 73.620 127, 71.990 127 C 70.885 127, 69.210 127.900, 68.268 129 C 67.326 130.100, 66.031 131, 65.389 131 C 64.747 131, 63.927 132.575, 63.566 134.500 C 63.173 136.595, 62.325 138, 61.455 138 C 60.655 138, 60 138.900, 60 140 C 60 141.100, 59.345 142, 58.545 142 C 57.675 142, 56.827 143.405, 56.434 145.500 C 56.073 147.425, 55.203 149, 54.500 149 C 53.797 149, 52.927 150.575, 52.566 152.500 C 52.173 154.595, 51.325 156, 50.455 156 C 49.655 156, 49 156.900, 49 158 C 49 159.100, 48.345 160, 47.545 160 C 46.675 160, 45.827 161.405, 45.434 163.500 C 45.058 165.505, 44.184 167, 43.389 167 C 42.468 167, 42 168.180, 42 170.500 C 42 173.333, 41.619 174, 40 174 C 38.667 174, 38 174.667, 38 176 C 38 177.111, 37.333 178, 36.500 178 C 35.675 178, 35 178.623, 35 179.383 C 35 180.144, 34.100 181.002, 33 181.290 C 31.565 181.665, 31 182.654, 31 184.790 C 31 186.926, 30.435 187.914, 29 188.290 C 27.900 188.577, 27 189.530, 27 190.406 C 27 191.283, 26.325 192, 25.500 192 C 24.452 192, 24 193.056, 24 195.500 C 24 198.333, 23.619 199, 22 199 C 20.407 199, 20.003 199.662, 20.014 202.250 C 20.034 207, 21.041 210, 22.617 210 C 23.377 210, 24 209.377, 24 208.617 C 24 207.856, 24.900 206.998, 26 206.710 C 27.100 206.423, 28 205.470, 28 204.594 C 28 203.717, 28.675 203, 29.500 203 C 30.548 203, 31 201.944, 31 199.500 C 31 196.667, 31.381 196, 33 196 C 34.333 196, 35 195.333, 35 194 C 35 192.900, 35.625 192, 36.389 192 C 37.184 192, 38.058 190.505, 38.434 188.500 C 38.827 186.405, 39.675 185, 40.545 185 C 41.345 185, 42 184.100, 42 183 C 42 181.667, 42.667 181, 44 181 C 45.619 181, 46 180.333, 46 177.500 C 46 175.056, 46.452 174, 47.500 174 C 48.333 174, 49 173.111, 49 172 C 49 170.900, 49.639 170, 50.421 170 C 51.202 170, 52.138 168.650, 52.500 167 C 52.862 165.350, 53.759 164, 54.492 164 C 55.267 164, 56.107 162.328, 56.500 160 C 56.915 157.541, 57.720 156, 58.588 156 C 59.365 156, 60 155.377, 60 154.617 C 60 153.856, 60.900 152.998, 62 152.710 C 63.532 152.310, 64 151.346, 64 148.594 C 64 146.201, 64.462 145, 65.383 145 C 66.144 145, 67.002 144.100, 67.290 143 C 67.577 141.900, 68.530 141, 69.406 141 C 70.496 141, 71 140.088, 71 138.117 C 71 136.074, 71.583 135.081, 73 134.710 C 74.100 134.423, 75 133.470, 75 132.594 C 75 131.717, 75.675 131, 76.500 131 C 77.333 131, 78 130.111, 78 129 C 78 127.391, 78.667 127, 81.412 127 L 84.824 127 85.162 143.038 C 85.376 153.209, 85.901 159.336, 86.596 159.788 C 87.199 160.179, 87.978 162.638, 88.327 165.250 L 88.962 170 84.981 170 C 82.109 170, 81 169.582, 81 168.500 C 81 167.675, 80.325 167, 79.500 167 C 78.675 167, 78 166.345, 78 165.545 C 78 164.675, 76.595 163.827, 74.500 163.434 C 72.495 163.058, 71 162.184, 71 161.389 C 71 160.468, 69.820 160, 67.500 160 C 65.180 160, 64 160.468, 64 161.389 C 64 162.184, 62.505 163.058, 60.500 163.434 C 56.017 164.275, 56.017 165.725, 60.500 166.566 C 62.505 166.942, 64 167.816, 64 168.611 C 64 169.375, 64.717 170, 65.594 170 C 66.470 170, 67.423 170.900, 67.710 172 C 68.081 173.417, 69.074 174, 71.117 174 C 72.910 174, 74 174.525, 74 175.389 C 74 176.184, 75.495 177.058, 77.500 177.434 C 79.595 177.827, 81 178.675, 81 179.545 C 81 180.345, 81.724 181, 82.609 181 C 83.494 181, 85.286 182.013, 86.592 183.250 L 88.965 185.500 88.983 213.750 L 89 242 92.500 242 C 94.944 242, 96 241.548, 96 240.500 C 96 239.675, 96.625 239, 97.389 239 C 99.647 239, 100.175 232.869, 99.421 215.398 C 98.869 202.607, 98.415 199, 97.357 199 C 96.395 199, 96 197.543, 96 194 C 96 189.667, 96.267 189, 98 189 C 99.111 189, 100 189.667, 100 190.500 C 100 191.753, 102.056 192, 112.500 192 L 125 192 125 188.500 L 125 185 114.406 185 C 104.654 185, 103.771 184.841, 103.290 183 C 103 181.893, 101.926 181, 100.883 181 C 99.848 181, 99 180.325, 99 179.500 C 99 178.675, 98.325 178, 97.500 178 C 96.217 178, 96 175.111, 96 158 C 96 140.889, 95.783 138, 94.500 138 C 93.300 138, 93 136.500, 93 130.500 C 93 124.500, 93.300 123, 94.500 123 C 95.325 123, 96 122.325, 96 121.500 C 96 120.667, 96.889 120, 98 120 C 99.619 120, 100 119.333, 100 116.500 L 100 113 105.500 113 C 109.722 113, 111 112.652, 111 111.500 C 111 110.675, 111.675 110, 112.500 110 C 113.325 110, 114 110.675, 114 111.500 C 114 112.325, 114.660 113, 115.466 113 C 116.469 113, 117.140 114.576, 117.594 118 C 118.025 121.246, 118.739 123, 119.629 123 C 120.562 123, 121 124.278, 121 127 C 121 129.834, 121.424 131, 122.455 131 C 123.325 131, 124.173 132.405, 124.566 134.500 C 124.942 136.505, 125.816 138, 126.611 138 C 127.375 138, 128 138.900, 128 140 C 128 141.111, 127.333 142, 126.500 142 C 125.367 142, 125 143.222, 125 147 L 125 152 130.500 152 C 134.722 152, 136 151.652, 136 150.500 C 136 149.379, 137.201 148.997, 140.750 148.986 C 146.923 148.969, 150 148.103, 150 146.383 C 150 145.469, 151.187 145, 153.500 145 C 155.944 145, 157 144.548, 157 143.500 C 157 142.348, 158.278 142, 162.500 142 C 166.722 142, 168 142.348, 168 143.500 C 168 144.548, 169.056 145, 171.500 145 C 173.944 145, 175 144.548, 175 143.500 C 175 142.348, 176.278 142, 180.500 142 L 186 142 186 147.617 C 186 152.953, 186.112 153.203, 188.250 152.630 C 189.488 152.299, 191.063 152.021, 191.750 152.014 C 192.438 152.006, 193 151.377, 193 150.617 C 193 149.856, 193.900 148.998, 195 148.710 C 196.100 148.423, 197 147.470, 197 146.594 C 197 145.717, 197.625 145, 198.389 145 C 199.184 145, 200.058 143.505, 200.434 141.500 C 200.827 139.405, 201.675 138, 202.545 138 C 203.541 138, 204 136.896, 204 134.500 C 204 132.104, 204.459 131, 205.455 131 C 206.325 131, 207.173 129.595, 207.566 127.500 C 207.942 125.495, 208.816 124, 209.611 124 C 210.565 124, 211 122.746, 211 120 C 211 117.261, 211.436 116, 212.383 116 C 213.959 116, 214.966 113, 214.986 108.250 C 214.995 106.182, 215.495 105, 216.361 105 C 217.714 105, 218.972 98.426, 218.991 91.250 C 218.997 89.032, 219.476 88, 220.500 88 C 221.742 88, 222 86.111, 222 77 L 222 66 206 66 L 190 66 189.784 62.250 C 189.666 60.188, 189.553 55.350, 189.534 51.500 L 189.500 44.500 185.750 44.190 C 182.530 43.923, 182 44.170, 182 45.940 C 182 47.104, 181.348 48, 180.500 48 C 179.278 48, 179 49.667, 179 57 L 179 66 173.500 66 L 168 66 168 52.117 C 168 39.074, 168.121 38.202, 170 37.710 C 171.532 37.310, 172 36.346, 172 33.594 C 172 31.066, 172.445 30, 173.500 30 C 174.548 30, 175 28.944, 175 26.500 C 175 24.187, 174.531 23, 173.617 23 C 172.856 23, 171.998 22.100, 171.710 21 C 171.274 19.330, 170.346 19, 166.094 19 L 161 19 160.838 26.750 M 173.250 76.706 C 172.012 76.944, 171 77.783, 171 78.570 C 171 79.356, 170.325 80, 169.500 80 C 168.333 80, 168 81.333, 168 86 C 168 90.667, 168.333 92, 169.500 92 C 170.325 92, 171 92.675, 171 93.500 C 171 94.325, 170.325 95, 169.500 95 C 168.675 95, 168 95.675, 168 96.500 C 168 97.325, 168.675 98, 169.500 98 C 170.333 98, 171 98.889, 171 100 C 171 101.667, 171.667 102, 175 102 L 179 102 179 93 C 179 85.667, 179.278 84, 180.500 84 C 181.333 84, 182 83.111, 182 82 C 182 80.900, 181.377 80, 180.617 80 C 179.856 80, 178.998 79.100, 178.710 78 C 178.191 76.015, 177.583 75.871, 173.250 76.706 M 81 78.421 C 81 79.202, 79.679 80.131, 78.065 80.486 C 75.861 80.970, 74.970 81.861, 74.486 84.065 C 74.131 85.679, 73.202 87, 72.421 87 C 71.639 87, 71 87.900, 71 89 C 71 90.333, 70.333 91, 69 91 C 67.889 91, 67 91.667, 67 92.500 C 67 93.325, 66.283 94, 65.406 94 C 64.530 94, 63.584 94.874, 63.305 95.943 C 63.013 97.059, 61.591 98.151, 59.963 98.508 C 57.895 98.962, 56.962 99.895, 56.508 101.963 C 56.151 103.591, 55.059 105.013, 53.943 105.305 C 52.874 105.584, 52 106.501, 52 107.343 C 52 108.339, 50.864 108.983, 48.750 109.187 C 46.667 109.387, 45.500 110.039, 45.500 111 C 45.500 112.249, 47.859 112.546, 59.626 112.777 C 73.092 113.040, 73.778 112.959, 74.283 111.027 C 74.691 109.465, 75.638 109, 78.406 109 L 82 109 82 94.500 C 82 82.278, 82.236 80, 83.500 80 C 84.325 80, 85 79.325, 85 78.500 C 85 77.667, 84.111 77, 83 77 C 81.900 77, 81 77.639, 81 78.421 M 143 78.500 C 143 79.652, 141.722 80, 137.500 80 C 132.667 80, 132 80.242, 132 82 C 132 83.619, 131.333 84, 128.500 84 C 126.109 84, 125 84.459, 125 85.450 C 125 86.248, 124.277 87.305, 123.394 87.799 C 122.428 88.340, 121.580 90.551, 121.264 93.349 L 120.740 98 126.370 98 L 132 98 132 102 C 132 104.739, 131.564 106, 130.617 106 C 128.862 106, 128.115 109.840, 128.759 115.552 C 129.081 118.407, 129.751 120, 130.630 120 C 131.624 120, 132 121.510, 132 125.500 C 132 129.646, 132.358 131, 133.455 131 C 134.325 131, 135.173 132.405, 135.566 134.500 C 136.266 138.231, 139 139.425, 139 136 C 139 134.667, 139.667 134, 141 134 C 142.333 134, 143 134.667, 143 136 C 143 137.727, 143.667 138, 147.883 138 C 151.926 138, 152.857 137.656, 153.290 136 C 153.726 134.330, 154.654 134, 158.906 134 C 162.767 134, 164 133.637, 164 132.500 C 164 131.675, 163.371 131, 162.603 131 C 161.545 131, 161.120 128.955, 160.853 122.583 C 160.385 111.416, 158.314 109.038, 157.253 118.451 C 156.971 120.953, 156.236 123.006, 155.620 123.014 C 155.004 123.021, 153.488 123.299, 152.250 123.630 C 150.435 124.117, 150 123.824, 150 122.117 C 150 120.667, 149.370 120, 148 120 C 146.889 120, 146 119.333, 146 118.500 C 146 117.675, 145.325 117, 144.500 117 C 143.667 117, 143 116.111, 143 115 C 143 113.889, 143.667 113, 144.500 113 C 145.333 113, 146 112.111, 146 111 C 146 109.667, 146.667 109, 148 109 C 149.100 109, 150 108.349, 150 107.552 C 150 106.511, 151.473 106.020, 155.250 105.802 L 160.500 105.500 160.777 91.250 L 161.055 77 152.027 77 C 144.670 77, 143 77.277, 143 78.500 M 189.606 88.500 C 189.228 94.825, 189.229 105.199, 189.609 111.554 C 190.282 122.815, 190.245 123.123, 188.150 123.671 C 186.968 123.980, 186 124.856, 186 125.617 C 186 126.377, 185.325 127, 184.500 127 C 183.667 127, 183 127.889, 183 129 C 183 130.111, 183.667 131, 184.500 131 C 185.325 131, 186 131.675, 186 132.500 C 186 133.333, 186.889 134, 188 134 C 189.333 134, 190 134.667, 190 136 C 190 137.111, 190.667 138, 191.500 138 C 192.333 138, 193 137.111, 193 136 C 193 134.900, 193.623 134, 194.383 134 C 195.899 134, 196.965 131.032, 196.986 126.750 C 196.995 125.077, 197.544 124, 198.389 124 C 199.184 124, 200.058 122.505, 200.434 120.500 C 200.827 118.405, 201.675 117, 202.545 117 C 203.576 117, 204 115.834, 204 113 C 204 110.273, 204.438 109, 205.375 109 C 206.904 109, 208 104.772, 208 98.875 C 208 96.097, 208.425 95, 209.500 95 C 210.700 95, 211 93.500, 211 87.500 L 211 80 207.500 80 C 205.056 80, 204 79.548, 204 78.500 C 204 77.313, 202.572 77, 197.147 77 L 190.294 77 189.606 88.500 M 171 116.875 C 171 122.772, 172.096 127, 173.625 127 C 174.530 127, 175 125.803, 175 123.500 C 175 120.667, 175.381 120, 177 120 C 178.619 120, 179 119.333, 179 116.500 C 179 113.083, 178.905 113, 175 113 C 171.022 113, 171 113.021, 171 116.875 M 197 154.500 C 197 155.652, 195.722 156, 191.500 156 C 187.455 156, 186 156.370, 186 157.399 C 186 158.396, 183.995 158.998, 179 159.500 C 174.005 160.002, 172 160.604, 172 161.601 C 172 162.675, 170.258 163, 164.500 163 C 158.781 163, 157 163.329, 157 164.383 C 157 166.500, 153.696 166.972, 138.750 166.986 C 127.201 166.998, 125 167.240, 125 168.500 C 125 169.333, 124.111 170, 123 170 C 121.333 170, 121 170.667, 121 174 L 121 178 126.500 178 L 132 178 132 181.500 C 132 184.333, 131.619 185, 130 185 C 128.148 185, 128 185.667, 128 194 C 128 201.333, 127.722 203, 126.500 203 C 125.218 203, 125 205.844, 125 222.594 C 125 241.346, 124.914 242.210, 123 242.710 C 121.162 243.191, 121 244.074, 121 253.617 C 121 261.695, 120.699 264, 119.642 264 C 118.340 264, 117 271.678, 117 279.147 C 117 281.734, 117.322 282, 120.455 282 C 123.611 282, 123.966 281.698, 124.566 278.500 C 124.927 276.575, 125.808 275, 126.523 275 C 127.262 275, 128.116 273.270, 128.500 271 C 128.915 268.541, 129.720 267, 130.588 267 C 131.633 267, 132 265.570, 132 261.500 C 132 257.278, 131.652 256, 130.500 256 C 129.500 256, 129 255, 129 253 C 129 251, 129.500 250, 130.500 250 C 131.700 250, 132 248.500, 132 242.500 C 132 236.500, 132.300 235, 133.500 235 C 134.325 235, 135 234.325, 135 233.500 C 135 232.345, 136.288 232, 140.594 232 C 145.346 232, 146.266 231.699, 146.710 230 C 147.074 228.608, 148.074 228, 150 228 C 151.926 228, 152.926 227.392, 153.290 226 C 153.577 224.900, 154.530 224, 155.406 224 C 156.283 224, 157 223.325, 157 222.500 C 157 221.639, 157.902 221, 159.117 221 C 160.824 221, 161.117 221.435, 160.630 223.250 C 160.299 224.488, 160.021 226.063, 160.014 226.750 C 160.006 227.438, 159.325 228, 158.500 228 C 157.667 228, 157 228.889, 157 230 C 157 231.111, 156.333 232, 155.500 232 C 153.962 232, 153.688 234.349, 153.688 247.500 C 153.688 261.438, 153.969 264, 155.500 264 C 156.538 264, 157 265.043, 157 267.383 C 157 269.926, 157.497 270.897, 159 271.290 C 160.100 271.577, 161 272.530, 161 273.406 C 161 274.561, 161.964 275, 164.500 275 C 166.944 275, 168 275.452, 168 276.500 C 168 277.583, 169.111 278, 172 278 C 174.889 278, 176 277.583, 176 276.500 C 176 275.534, 176.978 274.995, 178.750 274.986 C 183.032 274.965, 186 273.899, 186 272.383 C 186 271.623, 186.900 271, 188 271 C 189.100 271, 190 270.375, 190 269.611 C 190 268.816, 191.495 267.942, 193.500 267.566 C 195.595 267.173, 197 266.325, 197 265.455 C 197 264.655, 197.900 264, 199 264 C 200.100 264, 201 263.377, 201 262.617 C 201 260.088, 207.770 259.379, 219.853 260.642 C 224.048 261.081, 226 261.716, 226 262.642 C 226 263.721, 228.875 264, 240 264 C 251.450 264, 254 264.260, 254 265.425 C 254 266.500, 256.207 267.022, 263 267.554 C 269.615 268.071, 272 268.621, 272 269.629 C 272 270.383, 272.900 271, 274 271 C 275.111 271, 276 270.333, 276 269.500 C 276 268.667, 276.889 268, 278 268 C 279.629 268, 280 267.333, 280 264.406 C 280 261.654, 279.532 260.690, 278 260.290 C 276.608 259.926, 276 258.926, 276 257 C 276 254.976, 275.396 254.071, 273.750 253.630 C 269.607 252.520, 269 252.887, 269 256.500 C 269 259.833, 268.833 260, 265.500 260 C 263.056 260, 262 259.548, 262 258.500 C 262 257.278, 260.339 257, 253.050 257 C 245.565 257, 243.939 256.713, 243.122 255.250 C 242.292 253.766, 240.313 253.449, 230.072 253.166 C 218.959 252.859, 218 252.680, 218 250.916 C 218 249.862, 217.325 249, 216.500 249 C 215.675 249, 215 248.325, 215 247.500 C 215 246.667, 215.889 246, 217 246 C 218.111 246, 219 245.333, 219 244.500 C 219 243.675, 219.675 243, 220.500 243 C 221.333 243, 222 242.111, 222 241 C 222 239.667, 222.667 239, 224 239 C 225.333 239, 226 238.333, 226 237 C 226 235.889, 226.667 235, 227.500 235 C 228.325 235, 229 234.325, 229 233.500 C 229 232.675, 229.717 232, 230.594 232 C 231.470 232, 232.423 231.100, 232.710 230 C 232.998 228.900, 233.856 228, 234.617 228 C 235.531 228, 236 226.813, 236 224.500 L 236 221 229 221 C 223.444 221, 222 221.310, 222 222.500 C 222 223.412, 221.069 224, 219.625 224 C 215.120 224, 211 225.254, 211 226.625 C 211 227.530, 209.803 228, 207.500 228 C 205.056 228, 204 228.452, 204 229.500 C 204 230.325, 203.283 231, 202.406 231 C 201.530 231, 200.577 231.900, 200.290 233 C 199.897 234.503, 198.926 235, 196.383 235 C 194.089 235, 193 235.468, 193 236.455 C 193 237.325, 191.595 238.173, 189.500 238.566 C 187.495 238.942, 186 239.816, 186 240.611 C 186 241.712, 183.719 242, 175 242 L 164 242 164.014 239.250 C 164.035 234.968, 165.101 232, 166.617 232 C 167.377 232, 168 231.100, 168 230 C 168 228.900, 168.623 228, 169.383 228 C 170.144 228, 171.002 227.100, 171.290 226 C 171.577 224.900, 172.530 224, 173.406 224 C 174.283 224, 175 223.325, 175 222.500 C 175 221.417, 176.111 221, 179 221 C 181.834 221, 183 220.576, 183 219.545 C 183 218.675, 184.405 217.827, 186.500 217.434 C 188.505 217.058, 190 216.184, 190 215.389 C 190 214.544, 191.077 213.995, 192.750 213.986 C 197.032 213.965, 200 212.899, 200 211.383 C 200 210.623, 200.900 210, 202 210 C 205.003 210, 204.888 203.465, 201.870 202.676 C 200.395 202.291, 199.934 201.614, 200.370 200.478 C 200.717 199.575, 201 198.198, 201 197.418 C 201 196.638, 201.675 196, 202.500 196 C 203.652 196, 204 194.722, 204 190.500 L 204 185 195 185 C 187.667 185, 186 185.278, 186 186.500 C 186 187.642, 184.746 188.002, 180.750 188.009 C 171.745 188.024, 165 189.150, 165 190.639 C 165 191.666, 163.159 192, 157.500 192 C 151.767 192, 150 192.327, 150 193.389 C 150 194.184, 148.505 195.058, 146.500 195.434 L 143 196.091 143 204.545 C 143 211.277, 143.296 213, 144.455 213 C 145.325 213, 146.173 211.595, 146.566 209.500 C 146.942 207.495, 147.816 206, 148.611 206 C 149.375 206, 150 205.325, 150 204.500 C 150 203.452, 151.056 203, 153.500 203 C 155.813 203, 157 202.531, 157 201.617 C 157 199.858, 160.098 199.031, 166.750 199.014 C 170.547 199.004, 172 198.617, 172 197.616 C 172 196.556, 174.397 196.131, 182.250 195.799 C 187.887 195.560, 193.243 195.549, 194.151 195.773 C 195.618 196.136, 197.411 200.905, 196.447 201.881 C 196.241 202.090, 192.905 202.488, 189.036 202.765 C 184.002 203.126, 182 203.657, 182 204.634 C 182 205.405, 180.966 206, 179.625 206 C 175.120 206, 171 207.254, 171 208.625 C 171 209.608, 169.576 210, 166 210 C 162.240 210, 161 210.369, 161 211.488 C 161 212.451, 159.588 213.202, 157 213.616 C 154.587 214.002, 153 214.800, 153 215.628 C 153 216.608, 151.571 217, 148 217 C 143.667 217, 143 217.267, 143 219 C 143 220.619, 142.333 221, 139.500 221 L 136 221 136 206.500 C 136 194.510, 136.251 192, 137.448 192 C 138.489 192, 138.980 190.527, 139.198 186.750 C 139.492 181.630, 139.581 181.492, 142.750 181.187 C 144.763 180.993, 146 180.327, 146 179.437 C 146 178.362, 147.386 178, 151.500 178 C 156.333 178, 157 177.758, 157 176 C 157 174.242, 157.667 174, 162.500 174 C 166.545 174, 168 173.630, 168 172.601 C 168 171.604, 170.005 171.002, 175 170.500 C 179.995 169.998, 182 169.396, 182 168.399 C 182 167.490, 183.139 166.995, 185.250 166.986 C 190 166.966, 193 165.959, 193 164.383 C 193 163.469, 194.187 163, 196.500 163 C 199.333 163, 200 163.381, 200 165 C 200 166.606, 200.667 167, 203.383 167 C 207.077 167, 207.960 165.514, 207.986 159.250 C 207.997 156.662, 207.593 156, 206 156 C 204.889 156, 204 155.333, 204 154.500 C 204 153.452, 202.944 153, 200.500 153 C 198.056 153, 197 153.452, 197 154.500 M 209.750 235.689 C 208.787 235.941, 208 236.789, 208 237.573 C 208 238.571, 206.798 239, 204 239 C 201.211 239, 200 239.430, 200 240.421 C 200 241.202, 198.650 242.138, 197 242.500 C 195.350 242.862, 194 243.798, 194 244.579 C 194 245.695, 195.822 246, 202.500 246 C 210.333 246, 211 245.843, 211 244 C 211 242.667, 211.667 242, 213 242 C 214.619 242, 215 241.333, 215 238.500 C 215 234.906, 214.261 234.510, 209.750 235.689 M 161 254.937 C 161 256.072, 161.616 257, 162.370 257 C 163.254 257, 163.922 258.614, 164.253 261.549 C 164.535 264.052, 165.021 266.354, 165.333 266.667 C 166.345 267.678, 174.776 268.265, 178.438 267.578 C 180.582 267.175, 182 266.330, 182 265.455 C 182 264.468, 183.089 264, 185.383 264 C 187.926 264, 188.897 263.503, 189.290 262 C 189.577 260.900, 190.530 260, 191.406 260 C 192.283 260, 193 259.347, 193 258.550 C 193 257.752, 193.784 256.661, 194.742 256.125 C 195.700 255.589, 196.197 254.864, 195.848 254.514 C 195.498 254.165, 187.514 253.653, 178.106 253.376 C 161.330 252.883, 161 252.914, 161 254.937" stroke="none" fill="black" fill-rule="evenodd"/>
</svg>