<svg xmlns="http://www.w3.org/2000/svg" width="300" height="300" viewBox="0 0 300 300" version="1.1">
	<path d="M 113 50.500 C 113 51.333, 112.111 52, 111 52 C 109.900 52, 109 51.550, 109 51 C 109 49.428, 106.278 49.833, 105.638 51.500 C 105.277 52.441, 103.748 53, 101.531 53 C 99.059 53, 98 53.450, 98 54.500 C 98 55.325, 97.325 56, 96.500 56 C 95.452 56, 95 57.056, 95 59.500 C 95 61.626, 95.491 63.005, 96.250 63.014 C 96.938 63.021, 98.513 63.299, 99.750 63.630 C 101.565 64.117, 102 63.824, 102 62.117 C 102 60.074, 102.437 60, 114.500 60 C 124.438 60, 127 59.718, 127 58.625 C 127 57.604, 129.122 57.143, 135.250 56.831 C 148.318 56.165, 159 56.965, 159 58.609 C 159 59.565, 160.251 60, 163 60 C 166.853 60, 167 60.120, 167 63.278 C 167 65.318, 166.245 67.202, 165 68.268 C 163.900 69.210, 163 70.885, 163 71.990 C 163 73.162, 162.336 74, 161.406 74 C 160.530 74, 159.577 74.900, 159.290 76 C 159.002 77.100, 158.144 78, 157.383 78 C 156.623 78, 156 78.623, 156 79.383 C 156 80.144, 155.100 81.002, 154 81.290 C 152.900 81.577, 152 82.530, 152 83.406 C 152 84.336, 151.162 85, 149.990 85 C 148.885 85, 147.210 85.900, 146.268 87 C 145.326 88.100, 143.981 89, 143.278 89 C 142.575 89, 142 89.675, 142 90.500 C 142 91.333, 141.111 92, 140 92 C 138.667 92, 138 92.667, 138 94 C 138 95.733, 137.333 96, 133 96 C 129.222 96, 128 96.367, 128 97.500 C 128 98.605, 126.847 99, 123.625 99 C 117.259 99, 113 100.052, 113 101.625 C 113 102.625, 111.500 103, 107.500 103 C 103.484 103, 102 103.373, 102 104.383 C 102 105.144, 101.100 106.002, 100 106.290 C 98.468 106.690, 98 107.654, 98 110.406 L 98 114 103.500 114 C 107.722 114, 109 113.652, 109 112.500 C 109 111.465, 110.039 111, 112.353 111 C 120.277 111, 128 109.696, 128 108.358 C 128 107.300, 130.323 107, 138.500 107 C 147.441 107, 149 107.237, 149 108.594 C 149 109.470, 148.100 110.423, 147 110.710 C 145.900 110.998, 145 111.856, 145 112.617 C 145 113.627, 146.484 114, 150.500 114 L 156 114 156 107.111 L 156 100.223 152.500 99.566 C 149.452 98.994, 149 98.533, 149 96 C 149 93.467, 149.452 93.006, 152.500 92.434 C 155.033 91.959, 156 91.255, 156 89.889 C 156 88.850, 156.627 88, 157.393 88 C 158.159 88, 159.045 87.325, 159.362 86.500 C 159.678 85.675, 160.574 85, 161.352 85 C 162.130 85, 163.002 84.100, 163.290 83 C 163.577 81.900, 164.530 81, 165.406 81 C 166.510 81, 167 80.078, 167 78 C 167 75.922, 167.490 75, 168.594 75 C 169.470 75, 170.423 74.100, 170.710 73 C 170.998 71.900, 171.856 71, 172.617 71 C 173.564 71, 174 69.739, 174 67 C 174 64.111, 174.417 63, 175.500 63 C 176.325 63, 177 62.325, 177 61.500 C 177 60.675, 176.325 60, 175.500 60 C 174.452 60, 174 58.944, 174 56.500 C 174 53.190, 173.817 53, 170.617 53 C 168.074 53, 167.103 52.503, 166.710 51 C 166.204 49.063, 165.346 49, 139.594 49 C 116.622 49, 113 49.204, 113 50.500 M 73 90.500 C 73 91.325, 72.283 92, 71.406 92 C 70.530 92, 69.577 92.900, 69.290 94 C 69.002 95.100, 68.144 96, 67.383 96 C 66.232 96, 66 101.793, 66 130.500 C 66 160.500, 65.804 165, 64.500 165 C 62.912 165, 62.996 163.470, 62.567 200.500 C 62.478 208.200, 62.604 219.302, 62.848 225.171 C 63.248 234.810, 63.485 235.894, 65.294 236.367 C 68.300 237.153, 73 235.938, 73 234.375 C 73 233.619, 73.900 233, 75 233 C 76.333 233, 77 232.333, 77 231 C 77 229.889, 77.667 229, 78.500 229 C 79.325 229, 80 228.325, 80 227.500 C 80 226.667, 80.889 226, 82 226 C 83.606 226, 84 225.333, 84 222.617 C 84 220.074, 84.497 219.103, 86 218.710 C 87.100 218.423, 88 217.470, 88 216.594 C 88 215.439, 88.964 215, 91.500 215 C 94.333 215, 95 214.619, 95 213 C 95 211.889, 95.667 211, 96.500 211 C 97.325 211, 98 210.325, 98 209.500 C 98 208.667, 98.889 208, 100 208 C 101.333 208, 102 207.333, 102 206 C 102 204.667, 102.667 204, 104 204 C 105.100 204, 106 203.340, 106 202.534 C 106 201.531, 107.576 200.860, 111 200.406 C 114.246 199.975, 116 199.261, 116 198.371 C 116 197.617, 116.900 197, 118 197 C 119.605 197, 120 196.333, 120 193.625 C 120 190.650, 119.632 190.176, 116.897 189.629 C 113.380 188.926, 112 189.470, 112 191.559 C 112 192.539, 110.881 193, 108.500 193 C 106.143 193, 105 193.464, 105 194.421 C 105 195.202, 103.650 196.138, 102 196.500 C 100.350 196.862, 99 197.798, 99 198.579 C 99 199.361, 98.100 200, 97 200 C 95.667 200, 95 200.667, 95 202 C 95 203.333, 94.333 204, 93 204 C 91.900 204, 91 204.625, 91 205.389 C 91 206.184, 89.505 207.058, 87.500 207.434 C 85.571 207.796, 84 208.691, 84 209.429 C 84 210.165, 83.100 211.002, 82 211.290 C 80.900 211.577, 80 212.530, 80 213.406 C 80 214.283, 79.325 215, 78.500 215 C 77.675 215, 77 215.675, 77 216.500 C 77 217.333, 76.111 218, 75 218 C 73.106 218, 73 217.333, 73 205.389 L 73 192.777 76.500 193.434 C 79.755 194.045, 80 193.913, 80 191.545 C 80 189.949, 79.440 189, 78.500 189 C 77.675 189, 77 188.325, 77 187.500 C 77 186.675, 77.675 186, 78.500 186 C 79.325 186, 80 185.283, 80 184.406 C 80 183.530, 80.900 182.577, 82 182.290 C 83.100 182.002, 84 181.144, 84 180.383 C 84 179.623, 84.900 179, 86 179 C 87.100 179, 88 178.345, 88 177.545 C 88 176.675, 89.405 175.827, 91.500 175.434 C 93.505 175.058, 95 174.184, 95 173.389 C 95 172.544, 96.077 171.995, 97.750 171.986 C 102.032 171.965, 105 170.899, 105 169.383 C 105 168.373, 106.484 168, 110.500 168 C 114.500 168, 116 167.625, 116 166.625 C 116 165.254, 120.120 164, 124.625 164 C 126.069 164, 127 163.412, 127 162.500 C 127 161.667, 127.889 161, 129 161 C 130.111 161, 131 161.667, 131 162.500 C 131 163.325, 131.717 164, 132.594 164 C 133.470 164, 134.423 164.900, 134.710 166 C 134.998 167.100, 135.856 168, 136.617 168 C 137.377 168, 138 168.900, 138 170 C 138 171.100, 138.655 172, 139.455 172 C 140.325 172, 141.173 173.405, 141.566 175.500 C 141.942 177.505, 142.816 179, 143.611 179 C 144.375 179, 145 179.717, 145 180.594 C 145 181.470, 145.900 182.423, 147 182.710 C 148.392 183.074, 149 184.074, 149 186 C 149 187.926, 149.608 188.926, 151 189.290 C 152.100 189.577, 153 190.530, 153 191.406 C 153 192.283, 153.675 193, 154.500 193 C 155.333 193, 156 193.889, 156 195 C 156 196.333, 156.667 197, 158 197 C 159.333 197, 160 197.667, 160 199 C 160 200.111, 160.667 201, 161.500 201 C 162.325 201, 163 201.675, 163 202.500 C 163 203.333, 163.889 204, 165 204 C 166.606 204, 167 204.667, 167 207.383 C 167 209.926, 167.497 210.897, 169 211.290 C 170.100 211.577, 171 212.530, 171 213.406 C 171 214.283, 171.675 215, 172.500 215 C 173.325 215, 174 215.675, 174 216.500 C 174 217.325, 174.717 218, 175.594 218 C 176.470 218, 177.423 218.900, 177.710 220 C 177.998 221.100, 178.856 222, 179.617 222 C 180.377 222, 181 222.900, 181 224 C 181 225.333, 181.667 226, 183 226 C 184.111 226, 185 226.667, 185 227.500 C 185 228.325, 185.689 229, 186.531 229 C 187.374 229, 188.322 229.675, 188.638 230.500 C 188.955 231.325, 189.841 232, 190.607 232 C 191.373 232, 192 232.850, 192 233.889 C 192 235.255, 192.967 235.959, 195.500 236.434 C 197.595 236.827, 199 237.675, 199 238.545 C 199 239.345, 199.623 240, 200.383 240 C 201.144 240, 202.002 240.900, 202.290 242 C 202.603 243.197, 203.654 244, 204.906 244 C 206.101 244, 207 244.644, 207 245.500 C 207 246.487, 207.987 247, 209.883 247 C 211.926 247, 212.919 247.583, 213.290 249 C 213.751 250.763, 214.654 251, 220.906 251 L 228 251 228 247.500 C 228 245.197, 228.470 244, 229.375 244 C 231.176 244, 232 239.568, 232 229.875 C 232 223.542, 232.294 222, 233.500 222 C 234.745 222, 235 220.069, 235 210.625 C 235 197.554, 235.678 193, 237.625 193 C 238.741 193, 239 189.606, 239 175 C 239 159.667, 239.222 157, 240.500 157 C 241.548 157, 242 155.944, 242 153.500 C 242 151.056, 241.548 150, 240.500 150 C 239.675 150, 239 150.623, 239 151.383 C 239 152.144, 238.100 153.002, 237 153.290 C 235.139 153.776, 235 154.654, 235 165.906 C 235 175.990, 234.751 178, 233.500 178 C 232.342 178, 231.998 179.309, 231.991 183.750 C 231.977 193.218, 230.879 200, 229.361 200 C 228.309 200, 228 202.154, 228 209.500 C 228 216.857, 227.692 219, 226.636 219 C 225.168 219, 224 225.045, 224 232.640 C 224 235.849, 223.604 237, 222.500 237 C 221.675 237, 221 237.675, 221 238.500 C 221 240.964, 214.366 240.509, 213.710 238 C 213.329 236.544, 212.346 236, 210.094 236 C 208.010 236, 207 235.510, 207 234.500 C 207 233.667, 206.111 233, 205 233 C 203.667 233, 203 232.333, 203 231 C 203 229.667, 202.333 229, 201 229 C 199.889 229, 199 228.333, 199 227.500 C 199 226.675, 198.325 226, 197.500 226 C 196.667 226, 196 225.111, 196 224 C 196 222.667, 195.333 222, 194 222 C 192.900 222, 192 221.377, 192 220.617 C 192 219.856, 191.100 218.998, 190 218.710 C 188.900 218.423, 188 217.470, 188 216.594 C 188 215.717, 187.438 214.992, 186.750 214.983 C 185.286 214.962, 181 210.671, 181 209.226 C 181 208.680, 180.100 207.998, 179 207.710 C 177.900 207.423, 177 206.470, 177 205.594 C 177 204.717, 176.325 204, 175.500 204 C 174.675 204, 174 203.377, 174 202.617 C 174 201.856, 173.100 200.998, 172 200.710 C 170.900 200.423, 170 199.470, 170 198.594 C 170 197.717, 169.325 197, 168.500 197 C 167.667 197, 167 196.111, 167 195 C 167 193.667, 166.333 193, 165 193 C 163.667 193, 163 192.333, 163 191 C 163 189.889, 162.333 189, 161.500 189 C 160.490 189, 160 187.990, 160 185.906 C 160 183.654, 159.456 182.671, 158 182.290 C 156.893 182, 156 180.926, 156 179.883 C 156 178.848, 155.361 178, 154.579 178 C 153.798 178, 152.862 176.650, 152.500 175 C 152.138 173.350, 151.202 172, 150.421 172 C 149.639 172, 149 171.100, 149 170 C 149 168.667, 148.333 168, 147 168 C 145.381 168, 145 167.333, 145 164.500 C 145 162.056, 144.548 161, 143.500 161 C 142.667 161, 142 160.111, 142 159 C 142 157.889, 142.667 157, 143.500 157 C 144.325 157, 145 156.374, 145 155.609 C 145 154.550, 147.618 154.048, 156 153.500 C 164.382 152.952, 167 152.450, 167 151.391 C 167 150.626, 167.675 150, 168.500 150 C 169.325 150, 170 150.619, 170 151.375 C 170 153.015, 175.216 154.235, 178.598 153.386 C 179.919 153.055, 181 152.157, 181 151.392 C 181 150.626, 181.900 150, 183 150 C 184.606 150, 185 149.333, 185 146.617 C 185 142.409, 184.531 142.303, 168.250 142.821 C 158.625 143.127, 156 143.510, 156 144.605 C 156 146.011, 152.133 146.596, 145.250 146.232 C 142.625 146.093, 142 146.439, 142 148.030 C 142 149.662, 141.313 150, 138 150 C 134.667 150, 134 149.667, 134 148 C 134 146.889, 133.333 146, 132.500 146 C 131.675 146, 131 145.325, 131 144.500 C 131 143.675, 131.675 143, 132.500 143 C 133.544 143, 134 141.949, 134 139.545 C 134 136.389, 133.698 136.034, 130.500 135.434 C 128.495 135.058, 127 134.184, 127 133.389 C 127 132.625, 126.325 132, 125.500 132 C 124.667 132, 124 131.111, 124 130 C 124 128.333, 123.333 128, 120 128 L 116 128 116 133.500 C 116 138.333, 116.242 139, 118 139 C 119.606 139, 120 139.667, 120 142.383 C 120 144.926, 120.497 145.897, 122 146.290 C 124.080 146.834, 124.611 150.117, 123.370 154.750 C 122.849 156.694, 122.102 157, 117.883 157 C 114.407 157, 113 157.396, 113 158.375 C 113 159.746, 108.880 161, 104.375 161 C 102.931 161, 102 161.588, 102 162.500 C 102 163.555, 100.934 164, 98.406 164 C 95.654 164, 94.690 164.468, 94.290 166 C 93.857 167.656, 92.926 168, 88.883 168 C 84.667 168, 84 168.273, 84 170 C 84 171.333, 83.333 172, 82 172 C 80.889 172, 80 172.667, 80 173.500 C 80 174.325, 79.438 175.006, 78.750 175.014 C 78.063 175.021, 76.487 175.299, 75.250 175.630 L 73 176.233 73 141.617 C 73 107.667, 73.039 107, 75 107 C 76.667 107, 77 106.333, 77 103 C 77 100.111, 77.417 99, 78.500 99 C 79.633 99, 80 97.778, 80 94 L 80 89 76.500 89 C 74.056 89, 73 89.452, 73 90.500" stroke="none" fill="black" fill-rule="evenodd"/>
</svg>