<svg xmlns="http://www.w3.org/2000/svg" width="300" height="300" viewBox="0 0 300 300" version="1.1">
	<path d="M 132 27.500 C 132 29.803, 131.530 31, 130.625 31 C 128.824 31, 128 35.432, 128 45.125 C 128 51.219, 127.683 53, 126.596 53 C 125.473 53, 125.123 55.835, 124.846 67.167 C 124.602 77.155, 124.141 81.454, 123.282 81.740 C 122.612 81.963, 121.774 83.688, 121.420 85.573 L 120.777 89 113.889 89 C 108.432 89, 107 89.312, 107 90.500 C 107 91.764, 104.722 92, 92.500 92 C 78.667 92, 78 92.092, 78 94 C 78 95.333, 77.333 96, 76 96 C 74.407 96, 74.003 95.338, 74.014 92.750 C 74.034 88, 75.041 85, 76.617 85 C 77.692 85, 78 82.996, 78 76 C 78 69.076, 78.314 67, 79.361 67 C 80.751 67, 81.974 60.378, 81.991 52.750 C 81.997 50.087, 82.435 49, 83.500 49 C 84.548 49, 85 47.944, 85 45.500 C 85 42.637, 85.373 42, 87.052 42 C 88.900 42, 89.074 41.476, 88.802 36.750 C 88.507 31.628, 88.421 31.492, 85.243 31.186 C 83 30.970, 81.799 31.359, 81.386 32.436 C 81.056 33.296, 80.159 34, 79.393 34 C 78.627 34, 78 34.900, 78 36 C 78 37.100, 77.381 38, 76.625 38 C 74.940 38, 74 42.342, 74 50.125 C 74 54.681, 73.663 56, 72.500 56 C 71.278 56, 71 57.661, 71 64.950 C 71 72.327, 70.702 74.068, 69.304 74.850 C 68.055 75.549, 67.497 77.538, 67.187 82.400 C 66.905 86.831, 66.352 89, 65.503 89 C 64.610 89, 64.029 92.082, 63.523 99.500 C 62.977 107.507, 62.474 110, 61.404 110 C 60.632 110, 60 110.900, 60 112 C 60 113.667, 60.667 114, 64 114 C 66.789 114, 68 113.570, 68 112.579 C 68 111.798, 69.308 110.872, 70.906 110.521 C 74.126 109.813, 75.473 106.731, 74.411 102.500 L 73.783 100 87.267 100 C 102.388 100, 107 99.386, 107 97.375 C 107 96.339, 108.727 96, 114 96 L 121 96 121 101.500 L 121 107 124.500 107 L 128 107 128 101.125 C 128 93.342, 128.940 89, 130.625 89 C 131.708 89, 132 86.667, 132 78 C 132 67.465, 132.089 67, 134.117 67 C 135.822 67, 136.117 66.562, 135.637 64.750 C 134.565 60.703, 136.142 46, 137.648 46 C 138.702 46, 139 43.578, 139 35 L 139 24 135.500 24 C 132.167 24, 132 24.167, 132 27.500 M 143 51 C 143 52.333, 142.333 53, 141 53 C 139.190 53, 139 53.667, 139 60 L 139 67 142.500 67 C 145.833 67, 146 66.833, 146 63.500 L 146 60 153 60 C 158.556 60, 160 59.690, 160 58.500 C 160 57.675, 160.864 57, 161.921 57 C 163.226 57, 164.045 57.928, 164.478 59.898 C 164.878 61.722, 165.927 63.015, 167.307 63.385 C 171.682 64.558, 172 64.221, 172 58.406 C 172 53.654, 171.699 52.734, 170 52.290 C 168.900 52.002, 168 51.144, 168 50.383 C 168 49.279, 165.476 49, 155.500 49 C 143.667 49, 143 49.107, 143 51 M 94.250 63.706 C 93.013 63.944, 92 64.783, 92 65.570 C 92 66.356, 91.325 67, 90.500 67 C 89.462 67, 89 68.043, 89 70.383 C 89 72.926, 88.503 73.897, 87 74.290 C 85.330 74.726, 85 75.654, 85 79.906 L 85 85 88.389 85 C 91.470 85, 91.837 84.682, 92.434 81.500 C 92.827 79.405, 93.675 78, 94.545 78 C 95.345 78, 96 77.384, 96 76.630 C 96 75.284, 104.589 73.628, 106.249 74.654 C 106.662 74.909, 107 77.341, 107 80.059 L 107 85 110.500 85 L 114 85 114 77.500 C 114 71.686, 113.681 70, 112.579 70 C 111.798 70, 110.874 68.701, 110.525 67.114 C 110.039 64.902, 109.174 64.085, 106.821 63.614 C 103.537 62.957, 97.923 62.998, 94.250 63.706 M 146 72.421 C 146 73.202, 144.696 74.128, 143.102 74.478 C 139.027 75.373, 137.175 82, 141 82 C 142.111 82, 143 82.667, 143 83.500 C 143 84.333, 143.889 85, 145 85 C 146.100 85, 147 84.387, 147 83.637 C 147 81.904, 157.167 80.995, 168.138 81.747 C 173.827 82.137, 176 82.661, 176 83.643 C 176 84.389, 176.675 85, 177.500 85 C 178.333 85, 179 85.889, 179 87 C 179 88.619, 179.667 89, 182.500 89 C 185.917 89, 186 88.905, 186 85 C 186 82.111, 185.583 81, 184.500 81 C 183.675 81, 183 80.325, 183 79.500 C 183 78.667, 182.111 78, 181 78 C 179.667 78, 179 77.333, 179 76 C 179 74.242, 178.333 74, 173.500 74 C 169.278 74, 168 73.652, 168 72.500 C 168 71.258, 166.111 71, 157 71 C 148.162 71, 146 71.279, 146 72.421 M 143 108.500 C 143 109.325, 142.283 110, 141.406 110 C 140.530 110, 139.577 110.900, 139.290 112 C 139 113.107, 137.926 114, 136.883 114 C 135.848 114, 135 114.675, 135 115.500 C 135 116.325, 134.325 117, 133.500 117 C 132.675 117, 132 116.325, 132 115.500 C 132 114.278, 130.333 114, 123 114 C 116.004 114, 114 114.308, 114 115.383 C 114 116.144, 113.100 117.002, 112 117.290 C 110.330 117.726, 110 118.654, 110 122.906 L 110 128 122.250 128.014 C 140.830 128.034, 139 125.783, 139 148.617 L 139 168 133.500 168 C 129.546 168, 128 168.380, 128 169.352 C 128 170.845, 117.553 171.983, 103.750 171.994 C 97.530 171.999, 96 172.296, 96 173.500 C 96 174.621, 94.799 175.003, 91.250 175.014 C 85.077 175.031, 82 175.897, 82 177.617 C 82 178.377, 81.100 179, 80 179 C 78.381 179, 78 179.667, 78 182.500 C 78 184.813, 78.469 186, 79.383 186 C 80.144 186, 81.002 186.900, 81.290 188 C 81.702 189.576, 82.654 190, 85.781 190 C 91.766 190, 96 188.912, 96 187.375 C 96 186.470, 97.197 186, 99.500 186 C 101.803 186, 103 185.530, 103 184.625 C 103 183.052, 107.259 182, 113.625 182 C 116.847 182, 118 181.605, 118 180.500 C 118 179.452, 119.056 179, 121.500 179 C 125.368 179, 126.456 181.386, 123 182.290 C 121.900 182.577, 121 183.530, 121 184.406 C 121 185.561, 121.964 186, 124.500 186 C 126.848 186, 128 185.535, 128 184.588 C 128 183.720, 129.541 182.915, 132 182.500 C 134.459 182.085, 136 181.280, 136 180.412 C 136 179.330, 137.638 179, 143 179 C 149.333 179, 150 178.810, 150 177 C 150 175.107, 150.667 175, 162.500 175 C 172.944 175, 175 174.753, 175 173.500 C 175 172.348, 176.278 172, 180.500 172 L 186 172 186 175.500 C 186 178.851, 186.153 179, 189.594 179 C 192.346 179, 193.310 178.532, 193.710 177 C 193.998 175.900, 194.856 175, 195.617 175 C 196.531 175, 197 173.813, 197 171.500 C 197 168.167, 196.833 168, 193.500 168 C 191.180 168, 190 167.532, 190 166.611 C 190 164.639, 185.465 164.063, 170 164.072 C 154.478 164.081, 150 164.649, 150 166.611 C 150 167.375, 149.037 168, 147.861 168 C 145.867 168, 145.764 167.644, 146.352 162.750 C 146.699 159.863, 146.987 156.488, 146.991 155.250 C 146.996 153.921, 147.614 153, 148.500 153 C 149.325 153, 150 152.325, 150 151.500 C 150 150.675, 149.325 150, 148.500 150 C 147.417 150, 147 148.889, 147 146 C 147 143.111, 147.417 142, 148.500 142 C 149.677 142, 150 140.624, 150 135.617 C 150 128.172, 150.127 128.095, 161.250 128.803 C 166.124 129.113, 168 129.618, 168 130.616 C 168 131.377, 167.100 132, 166 132 C 164.381 132, 164 132.667, 164 135.500 L 164 139 169.500 139 C 173.866 139, 175 138.671, 175 137.406 C 175 136.530, 175.900 135.577, 177 135.290 C 178.503 134.897, 179 133.926, 179 131.383 C 179 129.043, 179.462 128, 180.500 128 C 181.548 128, 182 126.944, 182 124.500 C 182 122.056, 181.548 121, 180.500 121 C 179.675 121, 179 120.381, 179 119.625 C 179 117.754, 174.511 117, 163.375 117 C 155.708 117, 154 116.727, 154 115.500 C 154 114.667, 153.111 114, 152 114 C 150.667 114, 150 113.333, 150 112 C 150 110.667, 149.333 110, 148 110 C 146.889 110, 146 109.333, 146 108.500 C 146 107.675, 145.325 107, 144.500 107 C 143.675 107, 143 107.675, 143 108.500 M 163.283 182.701 C 161.682 183.011, 160.887 184.084, 160.422 186.565 C 160.067 188.454, 159.377 190, 158.889 190 C 157.737 190, 157.728 192.730, 158.878 193.167 C 159.361 193.350, 160.059 194.904, 160.429 196.620 C 160.992 199.231, 160.767 199.828, 159.051 200.276 C 157.923 200.571, 157 201.530, 157 202.406 C 157 203.780, 155.271 204, 144.500 204 C 134.658 204, 132 204.288, 132 205.353 C 132 206.738, 122.393 208, 111.849 208 C 108.333 208, 107 208.389, 107 209.416 C 107 210.541, 104.522 210.901, 94.962 211.166 C 86.108 211.412, 82.699 211.864, 82.075 212.875 C 81.540 213.744, 78.605 214.438, 74.113 214.760 C 69.017 215.124, 67 215.656, 67 216.634 C 67 217.528, 65.791 218, 63.500 218 C 60.667 218, 60 218.381, 60 220 C 60 221.111, 59.333 222, 58.500 222 C 57.452 222, 57 223.056, 57 225.500 L 57 229 66 229 C 73.333 229, 75 228.722, 75 227.500 C 75 226.318, 76.399 226, 81.594 226 C 87.346 226, 88.254 225.745, 88.710 224 C 89.152 222.312, 90.074 222, 94.617 222 C 98.490 222, 100 221.618, 100 220.639 C 100 219.042, 106.881 218.022, 117.750 218.009 C 123.309 218.002, 125 217.672, 125 216.594 C 125 215.502, 127.242 215.111, 135.038 214.844 C 142.358 214.593, 145.314 214.114, 145.955 213.075 C 146.564 212.088, 149.432 211.514, 155.284 211.207 L 163.733 210.763 164.412 214.382 C 164.822 216.570, 165.665 218, 166.545 218 C 167.532 218, 168 219.090, 168 221.389 C 168 224.470, 167.682 224.837, 164.500 225.434 C 162.405 225.827, 161 226.675, 161 227.545 C 161 228.345, 160.100 229, 159 229 C 157.900 229, 157 229.655, 157 230.455 C 157 231.325, 155.595 232.173, 153.500 232.566 C 151.495 232.942, 150 233.816, 150 234.611 C 150 235.375, 149.283 236, 148.406 236 C 147.530 236, 146.577 236.900, 146.290 238 C 146 239.107, 144.926 240, 143.883 240 C 142.848 240, 142 240.675, 142 241.500 C 142 242.325, 141.325 243, 140.500 243 C 139.667 243, 139 243.889, 139 245 C 139 246.333, 138.333 247, 137 247 C 135.889 247, 135 247.667, 135 248.500 C 135 249.325, 134.325 250, 133.500 250 C 132.333 250, 132 251.333, 132 256 C 132 261.333, 132.222 262, 134 262 C 135.111 262, 136 262.667, 136 263.500 C 136 264.325, 136.675 265, 137.500 265 C 138.333 265, 139 265.889, 139 267 C 139 268.333, 139.667 269, 141 269 C 142.100 269, 143 269.612, 143 270.361 C 143 271.840, 149.791 272.986, 158.500 272.978 C 164.903 272.971, 168 272.126, 168 270.383 C 168 269.478, 169.170 269, 171.389 269 C 174.470 269, 174.837 268.682, 175.434 265.500 C 175.827 263.405, 176.675 262, 177.545 262 C 178.541 262, 179 260.896, 179 258.500 C 179 256.209, 179.472 255, 180.366 255 C 181.340 255, 181.863 253.064, 182.190 248.250 C 182.824 238.931, 182.125 233, 180.395 233 C 179.434 233, 179 231.755, 179 229 C 179 226.111, 179.417 225, 180.500 225 C 181.325 225, 182 224.325, 182 223.500 C 182 222.667, 182.889 222, 184 222 C 185.333 222, 186 221.333, 186 220 C 186 218.667, 186.667 218, 188 218 C 189.111 218, 190 217.333, 190 216.500 C 190 215.490, 191.010 215, 193.094 215 C 195.346 215, 196.329 214.456, 196.710 213 C 197.103 211.497, 198.074 211, 200.617 211 C 204.383 211, 205.393 208.598, 202 207.710 C 200.900 207.423, 200 206.470, 200 205.594 C 200 204.277, 201.304 204, 207.500 204 C 213.135 204, 215 203.664, 215 202.648 C 215 201.312, 225.141 200.021, 235.750 200.006 C 238.699 200.002, 240 199.577, 240 198.617 C 240 197.856, 240.900 196.998, 242 196.710 C 243.100 196.423, 244 195.653, 244 195 C 244 194.347, 243.100 193.577, 242 193.290 C 240.900 193.002, 240 192.144, 240 191.383 C 240 190.257, 236.659 190, 222 190 C 207.426 190, 204 190.261, 204 191.370 C 204 192.258, 202.365 192.924, 199.349 193.264 C 196.551 193.580, 194.340 194.428, 193.799 195.394 C 193.109 196.628, 191.292 197, 185.950 197 C 180.439 197, 179 197.311, 179 198.500 C 179 199.541, 177.953 200, 175.579 200 C 172.592 200, 172.075 199.620, 171.500 197 C 171.138 195.350, 170.202 194, 169.421 194 C 168.639 194, 168 193.158, 168 192.129 C 168 190.492, 169.124 190.170, 177 189.554 L 186 188.850 186 185.425 L 186 182 175.750 182.136 C 170.113 182.211, 164.502 182.465, 163.283 182.701 M 194 187.500 C 194 188.325, 194.661 189, 195.469 189 C 196.363 189, 196.712 188.414, 196.362 187.500 C 196.045 186.675, 195.384 186, 194.893 186 C 194.402 186, 194 186.675, 194 187.500 M 182.710 206 C 182.274 207.670, 181.346 208, 177.094 208 C 173.233 208, 172 208.363, 172 209.500 C 172 210.325, 172.675 211, 173.500 211 C 174.333 211, 175 211.889, 175 213 C 175 214.593, 175.662 214.997, 178.250 214.986 C 183 214.966, 186 213.959, 186 212.383 C 186 211.469, 187.187 211, 189.500 211 C 191.813 211, 193 210.531, 193 209.617 C 193 208.856, 193.900 207.998, 195 207.710 C 196.100 207.423, 197 206.470, 197 205.594 C 197 204.290, 195.748 204, 190.117 204 C 184.074 204, 183.169 204.244, 182.710 206 M 168 231.500 C 168 232.333, 167.111 233, 166 233 C 164.900 233, 164 233.655, 164 234.455 C 164 235.325, 162.595 236.173, 160.500 236.566 C 158.495 236.942, 157 237.816, 157 238.611 C 157 239.375, 156.377 240, 155.617 240 C 154.856 240, 153.998 240.900, 153.710 242 C 153.333 243.442, 152.346 244, 150.173 244 C 147.637 244, 147.054 244.476, 146.500 247 C 146.138 248.650, 145.202 250, 144.421 250 C 143.351 250, 143 251.482, 143 256 C 143 261.333, 143.222 262, 145 262 C 146.111 262, 147 262.667, 147 263.500 C 147 264.722, 148.667 265, 156 265 C 163.333 265, 165 264.722, 165 263.500 C 165 262.675, 165.675 262, 166.500 262 C 167.333 262, 168 261.111, 168 260 C 168 258.667, 168.667 258, 170 258 C 171.619 258, 172 257.333, 172 254.500 C 172 252.056, 172.452 251, 173.500 251 C 174.652 251, 175 249.722, 175 245.500 C 175 241.278, 174.652 240, 173.500 240 C 172.667 240, 172 239.111, 172 238 C 172 236.889, 172.667 236, 173.500 236 C 174.325 236, 175 235.325, 175 234.500 C 175 233.667, 174.111 233, 173 233 C 171.889 233, 171 232.333, 171 231.500 C 171 230.675, 170.325 230, 169.500 230 C 168.675 230, 168 230.675, 168 231.500" stroke="none" fill="black" fill-rule="evenodd"/>
</svg>