<svg xmlns="http://www.w3.org/2000/svg" width="300" height="300" viewBox="0 0 300 300" version="1.1">
	<path d="M 157 22.500 C 157 23.652, 155.722 24, 151.500 24 L 146 24 146 31 C 146 37.333, 146.190 38, 148 38 C 149.111 38, 150 37.333, 150 36.500 C 150 35.667, 150.889 35, 152 35 C 153.100 35, 154 34.345, 154 33.545 C 154 30.347, 169.420 30.212, 171.201 33.394 C 171.755 34.385, 173.421 35, 175.550 35 L 179 35 179 39.892 C 179 44.275, 179.260 44.848, 181.500 45.411 C 185.743 46.476, 188.813 45.127, 189.525 41.885 C 190.440 37.719, 189.136 31, 187.412 31 C 186.635 31, 186 30.345, 186 29.545 C 186 28.675, 184.595 27.827, 182.500 27.434 C 180.495 27.058, 179 26.184, 179 25.389 C 179 24.327, 177.233 24, 171.500 24 C 165.500 24, 164 23.700, 164 22.500 C 164 21.452, 162.944 21, 160.500 21 C 158.056 21, 157 21.452, 157 22.500 M 93 47.500 C 93 48.325, 92.213 49.008, 91.250 49.017 C 89.338 49.036, 85 53.113, 85 54.891 C 85 55.501, 84.375 56, 83.611 56 C 82.816 56, 81.942 57.495, 81.566 59.500 C 81.173 61.595, 80.325 63, 79.455 63 C 78.655 63, 78 63.848, 78 64.883 C 78 65.926, 77.107 67, 76 67.290 C 74.544 67.671, 74 68.654, 74 70.906 C 74 72.990, 73.510 74, 72.500 74 C 71.667 74, 71 74.889, 71 76 C 71 77.333, 70.333 78, 69 78 C 67.667 78, 67 78.667, 67 80 C 67 81.100, 66.377 82, 65.617 82 C 64.856 82, 63.998 82.900, 63.710 84 C 63.423 85.100, 62.470 86, 61.594 86 C 60.504 86, 60 86.912, 60 88.883 C 60 90.926, 59.417 91.919, 58 92.290 C 56.900 92.577, 56 93.530, 56 94.406 C 56 95.283, 55.325 96, 54.500 96 C 53.452 96, 53 97.056, 53 99.500 C 53 102.333, 52.619 103, 51 103 C 49.667 103, 49 103.667, 49 105 C 49 106.111, 48.333 107, 47.500 107 C 46.675 107, 46 107.675, 46 108.500 C 46 109.333, 45.111 110, 44 110 C 42.381 110, 42 110.667, 42 113.500 C 42 116.036, 41.561 117, 40.406 117 C 39.530 117, 38.577 117.900, 38.290 119 C 38.002 120.100, 37.144 121, 36.383 121 C 35.623 121, 35 121.900, 35 123 C 35 124.333, 34.333 125, 33 125 C 31.381 125, 31 125.667, 31 128.500 C 31 131.333, 30.619 132, 29 132 C 27.889 132, 27 132.667, 27 133.500 C 27 134.325, 26.325 135, 25.500 135 C 24.675 135, 24 135.848, 24 136.883 C 24 137.926, 23.107 139, 22 139.290 C 20.565 139.665, 20 140.654, 20 142.790 C 20 144.926, 19.435 145.914, 18 146.290 C 16.900 146.577, 16 147.530, 16 148.406 C 16 149.283, 15.325 150, 14.500 150 C 13.675 150, 13 150.675, 13 151.500 C 13 152.325, 12.325 153, 11.500 153 C 10.644 153, 10 153.899, 10 155.094 C 10 156.346, 9.197 157.397, 8 157.710 C 5.401 158.390, 5.401 161, 8 161 C 9.111 161, 10 161.667, 10 162.500 C 10 163.325, 10.675 164, 11.500 164 C 12.325 164, 13 163.325, 13 162.500 C 13 161.667, 13.889 161, 15 161 C 16.333 161, 17 160.333, 17 159 C 17 157.889, 17.667 157, 18.500 157 C 19.325 157, 20 156.283, 20 155.406 C 20 154.530, 20.900 153.577, 22 153.290 C 23.100 153.002, 24 152.144, 24 151.383 C 24 150.623, 24.655 150, 25.455 150 C 26.325 150, 27.173 148.595, 27.566 146.500 C 27.942 144.495, 28.816 143, 29.611 143 C 30.375 143, 31 142.100, 31 141 C 31 139.667, 31.667 139, 33 139 C 34.333 139, 35 138.333, 35 137 C 35 135.900, 35.639 135, 36.421 135 C 37.202 135, 38.138 133.650, 38.500 132 C 38.862 130.350, 39.798 129, 40.579 129 C 41.361 129, 42 128.100, 42 127 C 42 125.837, 42.667 125, 43.594 125 C 44.470 125, 45.423 124.100, 45.710 123 C 45.998 121.900, 46.856 121, 47.617 121 C 48.531 121, 49 119.813, 49 117.500 C 49 114.667, 49.381 114, 51 114 C 52.111 114, 53 113.333, 53 112.500 C 53 111.675, 53.675 111, 54.500 111 C 55.333 111, 56 110.111, 56 109 C 56 107.667, 56.667 107, 58 107 C 59.619 107, 60 106.333, 60 103.500 C 60 100.167, 60.167 100, 63.500 100 C 65.944 100, 67 100.452, 67 101.500 C 67 102.333, 67.889 103, 69 103 C 70.111 103, 71 102.333, 71 101.500 C 71 100.675, 71.675 100, 72.500 100 C 73.325 100, 74 100.675, 74 101.500 C 74 102.583, 75.111 103, 78 103 C 81.333 103, 82 103.333, 82 105 C 82 106.733, 82.667 107, 87 107 C 90.589 107, 92 107.390, 92 108.383 C 92 109.374, 94.122 109.964, 99.500 110.468 C 104.968 110.980, 107 111.554, 107 112.585 C 107 113.633, 108.425 114, 112.500 114 L 118 114 118 117.500 C 118 119.944, 118.452 121, 119.500 121 C 120.333 121, 121 121.889, 121 123 C 121 124.163, 121.667 125, 122.594 125 C 123.470 125, 124.423 124.100, 124.710 123 C 124.998 121.900, 125.856 121, 126.617 121 C 127.607 121, 128 119.602, 128 116.079 C 128 111.425, 127.838 111.123, 125 110.500 C 123.350 110.138, 122 109.259, 122 108.548 C 122 107.813, 120.274 106.980, 118 106.616 C 115.412 106.202, 114 105.451, 114 104.488 C 114 103.303, 112.474 103, 106.500 103 C 100.500 103, 99 102.700, 99 101.500 C 99 100.534, 98.022 99.995, 96.250 99.986 C 91.968 99.965, 89 98.899, 89 97.383 C 89 96.436, 87.739 96, 85 96 C 82.166 96, 81 95.576, 81 94.545 C 81 93.675, 79.595 92.827, 77.500 92.434 C 74.967 91.959, 74 91.255, 74 89.889 C 74 88.850, 73.325 88, 72.500 88 C 71.675 88, 71 87.550, 71 87 C 71 86.450, 71.717 86, 72.594 86 C 73.470 86, 74.423 85.100, 74.710 84 C 74.998 82.900, 75.856 82, 76.617 82 C 77.377 82, 78 81.100, 78 80 C 78 78.900, 78.655 78, 79.455 78 C 80.325 78, 81.173 76.595, 81.566 74.500 C 81.942 72.495, 82.816 71, 83.611 71 C 84.375 71, 85 70.100, 85 69 C 85 67.667, 85.667 67, 87 67 C 88.111 67, 89 66.333, 89 65.500 C 89 64.675, 89.675 64, 90.500 64 C 91.333 64, 92 63.111, 92 62 C 92 60.333, 92.667 60, 96 60 L 100 60 100 54.500 C 100 49.667, 99.758 49, 98 49 C 96.889 49, 96 48.333, 96 47.500 C 96 46.675, 95.325 46, 94.500 46 C 93.675 46, 93 46.675, 93 47.500 M 171 54.500 C 171 55.698, 169.514 56, 163.625 56 C 154.411 56, 150 56.850, 150 58.625 C 150 59.726, 147.230 60, 136.117 60 C 123.074 60, 122.202 60.121, 121.710 62 C 121.310 63.532, 120.346 64, 117.594 64 L 114 64 114 69 C 114 73.333, 114.267 74, 116 74 C 117.111 74, 118 73.333, 118 72.500 C 118 71.675, 118.675 71, 119.500 71 C 120.325 71, 121 71.675, 121 72.500 C 121 73.548, 122.056 74, 124.500 74 C 126.944 74, 128 73.548, 128 72.500 C 128 71.348, 129.278 71, 133.500 71 C 138.333 71, 139 70.758, 139 69 C 139 67.242, 139.667 67, 144.500 67 C 148.722 67, 150 66.652, 150 65.500 C 150 64.294, 151.542 64, 157.875 64 C 167.568 64, 172 63.176, 172 61.375 C 172 60.255, 175.621 60, 191.500 60 L 211 60 211 63.500 C 211 65.944, 210.548 67, 209.500 67 C 207.146 67, 207.747 69.699, 210.250 70.370 C 213.818 71.326, 215 71.110, 215 69.500 C 215 68.675, 215.616 68, 216.369 68 C 217.956 68, 219.049 62.705, 218.286 58.714 C 218 57.222, 217.144 56, 216.383 56 C 215.623 56, 215 55.325, 215 54.500 C 215 53.212, 211.889 53, 193 53 C 174.111 53, 171 53.212, 171 54.500 M 157.852 70.703 C 155.285 70.988, 154.054 71.685, 153.696 73.054 C 153.416 74.124, 152.470 75, 151.594 75 C 150.254 75, 150 76.432, 150 84 C 150 92.333, 150.148 93, 152 93 C 153.111 93, 154 93.667, 154 94.500 C 154 95.325, 154.675 96, 155.500 96 C 158.587 96, 156.950 98.919, 153.500 99.566 C 151.495 99.942, 150 100.816, 150 101.611 C 150 102.375, 149.100 103, 148 103 C 146.667 103, 146 103.667, 146 105 C 146 106.733, 145.333 107, 141 107 C 137.092 107, 136 107.348, 136 108.594 C 136 109.470, 135.100 110.423, 134 110.710 C 132.497 111.103, 132 112.074, 132 114.617 L 132 118 144.750 117.989 C 159.674 117.976, 165 117.287, 165 115.369 C 165 114.257, 168.662 114, 184.500 114 C 200.538 114, 204 114.248, 204 115.399 C 204 116.396, 206.005 116.998, 211 117.500 C 215.995 118.002, 218 118.604, 218 119.601 C 218 120.371, 218.900 121, 220 121 C 221.619 121, 222 120.333, 222 117.500 C 222 115.187, 221.531 114, 220.617 114 C 219.856 114, 218.998 113.100, 218.710 112 C 218.249 110.237, 217.346 110, 211.094 110 C 205.455 110, 204 109.692, 204 108.500 C 204 107.213, 200.944 107, 182.500 107 C 161.667 107, 161 106.938, 161 105 C 161 103.667, 161.667 103, 163 103 C 164.100 103, 165 102.361, 165 101.579 C 165 100.798, 166.350 99.862, 168 99.500 C 169.650 99.138, 171 98.202, 171 97.421 C 171 96.572, 172.007 96, 173.500 96 C 174.970 96, 176 95.426, 176 94.607 C 176 93.841, 176.675 92.955, 177.500 92.638 C 178.325 92.322, 179 91.374, 179 90.531 C 179 89.667, 179.871 89, 181 89 C 182.333 89, 183 88.333, 183 87 C 183 85.889, 183.667 85, 184.500 85 C 185.325 85, 186 84.325, 186 83.500 C 186 82.652, 186.896 82, 188.060 82 C 189.830 82, 190.077 81.470, 189.810 78.250 C 189.525 74.807, 189.228 74.474, 186.174 74.181 C 183.506 73.925, 182.742 74.271, 182.308 75.931 C 181.925 77.394, 180.956 78, 179 78 C 177.074 78, 176.074 78.608, 175.710 80 C 175.423 81.100, 174.470 82, 173.594 82 C 172.717 82, 172 82.675, 172 83.500 C 172 84.333, 171.111 85, 170 85 C 168.900 85, 168 85.639, 168 86.421 C 168 87.202, 166.640 88.140, 164.978 88.505 C 162.609 89.025, 161.426 88.665, 159.496 86.834 C 156.501 83.994, 156.347 82.404, 159 81.710 C 160.100 81.423, 161 80.470, 161 79.594 C 161 78.667, 161.837 78, 163 78 C 164.100 78, 165 77.377, 165 76.617 C 165 74.790, 168.135 74.030, 175.750 74.014 C 180.633 74.003, 182 73.672, 182 72.500 C 182 71.289, 180.411 70.997, 173.750 70.986 C 169.213 70.979, 164.600 70.821, 163.500 70.635 C 162.400 70.450, 159.859 70.480, 157.852 70.703 M 100 130.500 C 100 131.742, 98.111 132, 89 132 C 80.389 132, 78 132.296, 78 133.361 C 78 134.879, 71.218 135.977, 61.750 135.991 C 57.309 135.998, 56 136.342, 56 137.500 C 56 138.548, 54.944 139, 52.500 139 C 49.667 139, 49 139.381, 49 141 C 49 142.100, 48.377 143, 47.617 143 C 46.331 143, 45.045 145.840, 45.014 148.750 C 45.004 149.640, 47.159 150, 52.500 150 C 59.333 150, 60 149.822, 60 148 C 60 146.381, 60.667 146, 63.500 146 C 65.944 146, 67 145.548, 67 144.500 C 67 143.312, 68.431 143, 73.875 143 C 80.589 143, 80.762 143.064, 81.242 145.750 C 81.941 149.659, 81.529 158.804, 80.613 159.721 C 80.188 160.145, 76.277 160.654, 71.920 160.852 C 66.330 161.106, 64 161.589, 64 162.495 C 64 163.200, 62.425 164.073, 60.500 164.434 C 58.405 164.827, 57 165.675, 57 166.545 C 57 167.345, 56.100 168, 55 168 C 53.900 168, 53 168.623, 53 169.383 C 53 170.144, 52.100 171.002, 51 171.290 C 49.301 171.734, 49 172.654, 49 177.406 C 49 181.712, 49.345 183, 50.500 183 C 51.325 183, 52 183.675, 52 184.500 C 52 185.433, 52.944 186, 54.500 186 C 56.690 186, 57 185.567, 57 182.500 C 57 180.056, 57.452 179, 58.500 179 C 59.333 179, 60 178.111, 60 177 C 60 175.667, 60.667 175, 62 175 C 63.100 175, 64 174.383, 64 173.629 C 64 172.739, 65.754 172.025, 69 171.594 C 72.424 171.140, 74 170.469, 74 169.466 C 74 168.419, 75.161 168, 78.065 168 L 82.129 168 81.945 181.750 C 81.710 199.388, 81.571 200, 77.798 200 C 75.654 200, 74.665 200.563, 74.290 202 C 73.857 203.656, 72.926 204, 68.883 204 C 64.667 204, 64 203.727, 64 202 C 64 200.667, 63.333 200, 62 200 C 60.267 200, 60 199.333, 60 195 C 60 191.674, 59.582 189.995, 58.750 189.986 C 58.063 189.979, 56.488 189.701, 55.250 189.370 C 53.428 188.881, 53 189.175, 53 190.915 C 53 192.096, 52.325 193.322, 51.500 193.638 C 49.833 194.278, 49.428 197, 51 197 C 51.550 197, 52 198.575, 52 200.500 C 52 203.333, 52.381 204, 54 204 C 55.333 204, 56 204.667, 56 206 C 56 207.333, 56.667 208, 58 208 C 59.111 208, 60 208.667, 60 209.500 C 60 210.690, 61.444 211, 67 211 C 72.556 211, 74 210.690, 74 209.500 C 74 208.667, 74.889 208, 76 208 C 77.333 208, 78 207.333, 78 206 C 78 204.381, 78.667 204, 81.500 204 C 84.333 204, 85 204.381, 85 206 C 85 207.111, 84.333 208, 83.500 208 C 82.675 208, 82 208.675, 82 209.500 C 82 210.333, 81.111 211, 80 211 C 78.667 211, 78 211.667, 78 213 C 78 214.100, 77.377 215, 76.617 215 C 75.856 215, 74.998 215.900, 74.710 217 C 74.423 218.100, 73.470 219, 72.594 219 C 71.717 219, 71 219.675, 71 220.500 C 71 221.333, 70.111 222, 69 222 C 67.900 222, 67 222.623, 67 223.383 C 67 224.899, 64.032 225.965, 59.750 225.986 C 57.978 225.995, 57 226.534, 57 227.500 C 57 228.583, 55.889 229, 53 229 C 49.667 229, 49 229.333, 49 231 C 49 232.333, 48.333 233, 47 233 C 45.667 233, 45 233.667, 45 235 C 45 236.111, 44.333 237, 43.500 237 C 42.675 237, 42 237.675, 42 238.500 C 42 239.333, 42.889 240, 44 240 C 45.111 240, 46 240.667, 46 241.500 C 46 242.500, 47 243, 49 243 C 51 243, 52 242.500, 52 241.500 C 52 240.302, 53.487 240, 59.383 240 C 65.926 240, 66.826 239.772, 67.290 238 C 67.671 236.544, 68.654 236, 70.906 236 C 72.879 236, 74 235.497, 74 234.611 C 74 233.823, 75.473 232.946, 77.403 232.584 C 79.275 232.233, 81.061 231.283, 81.372 230.473 C 81.722 229.560, 83.281 229, 85.469 229 C 87.941 229, 89 228.550, 89 227.500 C 89 226.363, 90.233 226, 94.094 226 C 98.346 226, 99.274 225.670, 99.710 224 C 100.152 222.312, 101.074 222, 105.617 222 C 109.735 222, 111 221.648, 111 220.500 C 111 219.588, 111.931 219, 113.375 219 C 117.880 219, 122 217.746, 122 216.375 C 122 215.470, 123.197 215, 125.500 215 C 127.813 215, 129 214.531, 129 213.617 C 129 212.101, 131.968 211.035, 136.250 211.014 C 138.047 211.005, 139 210.469, 139 209.469 C 139 208.626, 139.675 207.678, 140.500 207.362 C 141.325 207.045, 142 206.159, 142 205.393 C 142 204.345, 140.389 204, 135.500 204 C 130.652 204, 129 204.349, 129 205.375 C 129 206.746, 124.880 208, 120.375 208 C 118.931 208, 118 208.588, 118 209.500 C 118 210.652, 116.722 211, 112.500 211 C 108.484 211, 107 211.373, 107 212.383 C 107 213.959, 104 214.966, 99.250 214.986 C 97.034 214.996, 96 215.477, 96 216.500 C 96 217.633, 94.778 218, 91 218 C 87.222 218, 86 217.633, 86 216.500 C 86 215.675, 86.675 215, 87.500 215 C 88.333 215, 89 214.111, 89 213 C 89 211.667, 89.667 211, 91 211 C 92.111 211, 93 210.333, 93 209.500 C 93 208.675, 93.675 208, 94.500 208 C 95.333 208, 96 207.111, 96 206 C 96 204.667, 96.667 204, 98 204 C 99.333 204, 100 203.333, 100 202 C 100 200.889, 100.667 200, 101.500 200 C 102.325 200, 103 199.325, 103 198.500 C 103 197.675, 103.717 197, 104.594 197 C 105.470 197, 106.423 196.100, 106.710 195 C 106.998 193.900, 107.856 193, 108.617 193 C 109.377 193, 110 192.283, 110 191.406 C 110 190.530, 110.900 189.577, 112 189.290 C 113.100 189.002, 114 188.144, 114 187.383 C 114 186.623, 114.900 186, 116 186 C 117.619 186, 118 185.333, 118 182.500 C 118 179.083, 117.905 179, 114 179 C 111.211 179, 110 179.430, 110 180.421 C 110 181.202, 108.679 182.131, 107.065 182.486 C 104.891 182.963, 103.969 183.865, 103.508 185.963 C 103.151 187.591, 102.059 189.013, 100.943 189.305 C 99.874 189.584, 99 190.530, 99 191.406 C 99 192.283, 98.325 193, 97.500 193 C 96.667 193, 96 193.889, 96 195 C 96 196.333, 95.333 197, 94 197 C 92.889 197, 92 197.667, 92 198.500 C 92 199.325, 91.325 200, 90.500 200 C 89.310 200, 89 198.556, 89 193 C 89 187.652, 89.332 186, 90.406 186 C 91.497 186, 91.890 183.775, 92.156 176.081 C 92.345 170.626, 92.803 165.860, 93.174 165.490 C 93.545 165.121, 99.282 164.568, 105.924 164.262 C 115.134 163.838, 118 163.385, 118 162.353 C 118 161.609, 118.675 161, 119.500 161 C 120.333 161, 121 160.111, 121 159 C 121 157.667, 120.333 157, 119 157 C 117.889 157, 117 156.333, 117 155.500 C 117 154.452, 115.944 154, 113.500 154 C 111.056 154, 110 154.452, 110 155.500 C 110 156.738, 108.167 157, 99.500 157 L 89 157 89 152 L 89 147 92.500 147 C 94.944 147, 96 147.452, 96 148.500 C 96 149.325, 96.675 150, 97.500 150 C 98.333 150, 99 149.111, 99 148 C 99 146.889, 98.333 146, 97.500 146 C 96.452 146, 96 144.944, 96 142.500 C 96 139.212, 96.198 139, 99.278 139 C 101.318 139, 103.202 139.755, 104.268 141 C 105.210 142.100, 107.110 143, 108.490 143 C 110.333 143, 111 142.469, 111 141 C 111 139.889, 111.667 139, 112.500 139 C 113.325 139, 114 138.325, 114 137.500 C 114 136.675, 113.325 136, 112.500 136 C 111.667 136, 111 135.111, 111 134 C 111 132.533, 110.333 132, 108.500 132 C 106.944 132, 106 131.433, 106 130.500 C 106 129.500, 105 129, 103 129 C 101 129, 100 129.500, 100 130.500 M 171 133.455 C 171 134.325, 169.595 135.173, 167.500 135.566 C 164.318 136.163, 164 136.530, 164 139.611 C 164 141.824, 163.522 143, 162.622 143 C 161.531 143, 161.091 146.650, 160.514 160.500 C 160.113 170.125, 159.383 178, 158.893 178 C 157.562 178, 157.787 189.762, 159.127 190.209 C 159.747 190.416, 160.479 192.928, 160.754 195.792 C 161.091 199.297, 161.703 201, 162.627 201 C 163.382 201, 164 201.675, 164 202.500 C 164 203.583, 165.111 204, 168 204 C 171.333 204, 172 203.667, 172 202 C 172 200.889, 172.667 200, 173.500 200 C 174.548 200, 175 198.944, 175 196.500 C 175 193.667, 174.619 193, 173 193 C 171.889 193, 171 192.333, 171 191.500 C 171 190.675, 170.325 190, 169.500 190 C 168.333 190, 168 188.667, 168 184 C 168 179.482, 168.351 178, 169.421 178 C 171.380 178, 172.261 173.158, 171.848 164.664 L 171.500 157.500 184.250 157.220 C 196.488 156.951, 197 157.022, 197 158.970 C 197 160.623, 197.649 161, 200.500 161 C 202.820 161, 204 161.468, 204 162.389 C 204 163.184, 205.495 164.058, 207.500 164.434 C 209.595 164.827, 211 165.675, 211 166.545 C 211 167.726, 209.021 168, 200.500 168 C 192.124 168, 190 168.286, 190 169.412 C 190 170.280, 188.459 171.085, 186 171.500 C 183.645 171.898, 182 172.730, 182 173.525 C 182 174.315, 180.655 175.003, 178.750 175.187 L 175.500 175.500 175.207 182.122 C 174.944 188.078, 175.120 188.798, 176.957 189.279 C 178.081 189.572, 179 190.530, 179 191.406 C 179 192.283, 179.675 193, 180.500 193 C 181.466 193, 182.005 192.022, 182.014 190.250 C 182.041 184.813, 183.057 183.080, 186.610 182.413 C 188.475 182.064, 190 181.205, 190 180.505 C 190 179.198, 201.677 177.885, 205.250 178.790 C 207.384 179.331, 207.592 182, 205.500 182 C 204.667 182, 204 182.889, 204 184 C 204 185.733, 204.667 186, 209 186 L 214 186 214 189.500 C 214 191.944, 213.548 193, 212.500 193 C 211.348 193, 211 194.278, 211 198.500 L 211 204 195 204 C 182.091 204, 179 204.266, 179 205.375 C 179 206.948, 174.741 208, 168.375 208 C 165.153 208, 164 208.395, 164 209.500 C 164 210.690, 162.556 211, 157 211 C 150.667 211, 150 211.190, 150 213 C 150 214.111, 149.333 215, 148.500 215 C 147.675 215, 146.994 215.563, 146.986 216.250 C 146.979 216.938, 146.701 218.512, 146.370 219.750 C 145.771 221.985, 145.843 222, 156.883 222 C 166.098 222, 168 221.743, 168 220.500 C 168 219.588, 168.931 219, 170.375 219 C 174.880 219, 179 217.746, 179 216.375 C 179 215.391, 180.429 215, 184.031 215 C 187.581 215, 189.232 214.558, 189.638 213.500 C 189.994 212.574, 191.513 212, 193.607 212 C 196.710 212, 197 212.256, 197 215 C 197 217.333, 196.556 218, 195 218 C 193.667 218, 193 218.667, 193 220 C 193 221.333, 192.333 222, 191 222 C 189.889 222, 189 222.667, 189 223.500 C 189 224.548, 187.944 225, 185.500 225 C 182.667 225, 182 225.381, 182 227 C 182 228.111, 181.333 229, 180.500 229 C 179.452 229, 179 230.056, 179 232.500 C 179 235.851, 178.847 236, 175.406 236 C 172.654 236, 171.690 236.468, 171.290 238 C 171.002 239.100, 170.144 240, 169.383 240 C 168.469 240, 168 241.187, 168 243.500 C 168 246.333, 167.619 247, 166 247 C 164.667 247, 164 247.667, 164 249 C 164 250.111, 163.333 251, 162.500 251 C 161.675 251, 161 251.619, 161 252.375 C 161 253.746, 156.880 255, 152.375 255 C 150.931 255, 150 255.588, 150 256.500 C 150 257.325, 149.325 258, 148.500 258 C 147.675 258, 147 258.717, 147 259.594 C 147 260.470, 146.100 261.423, 145 261.710 C 143.900 261.998, 143 262.856, 143 263.617 C 143 264.377, 142.100 265, 141 265 C 139.667 265, 139 265.667, 139 267 C 139 268.111, 138.333 269, 137.500 269 C 136.452 269, 136 270.056, 136 272.500 L 136 276 140.883 276 C 144.926 276, 145.857 275.656, 146.290 274 C 146.577 272.900, 147.530 272, 148.406 272 C 149.283 272, 150 271.375, 150 270.611 C 150 269.816, 151.495 268.942, 153.500 268.566 C 155.595 268.173, 157 267.325, 157 266.455 C 157 265.655, 157.900 265, 159 265 C 160.333 265, 161 264.333, 161 263 C 161 261.889, 161.667 261, 162.500 261 C 163.325 261, 164 260.325, 164 259.500 C 164 258.667, 164.889 258, 166 258 C 167.333 258, 168 257.333, 168 256 C 168 254.667, 168.667 254, 170 254 C 171.111 254, 172 253.333, 172 252.500 C 172 251.675, 172.675 251, 173.500 251 C 174.333 251, 175 250.111, 175 249 C 175 247.667, 175.667 247, 177 247 C 178.100 247, 179 246.374, 179 245.608 C 179 243.882, 183.166 242.753, 186.474 243.583 C 188.304 244.042, 189.113 245.087, 189.585 247.602 C 190.161 250.672, 190.550 251, 193.611 251 C 195.910 251, 197 251.468, 197 252.455 C 197 253.325, 198.405 254.173, 200.500 254.566 C 202.505 254.942, 204 255.816, 204 256.611 C 204 257.628, 205.474 258, 209.500 258 C 213.516 258, 215 258.373, 215 259.383 C 215 261.318, 218.196 261.971, 227.750 261.986 C 234.411 261.997, 236 262.289, 236 263.500 C 236 264.773, 238.500 265, 252.500 265 C 266.500 265, 269 264.773, 269 263.500 C 269 262.452, 270.056 262, 272.500 262 C 275.333 262, 276 261.619, 276 260 C 276 258.667, 276.667 258, 278 258 C 279.111 258, 280 257.333, 280 256.500 C 280 255.675, 280.675 255, 281.500 255 C 282.333 255, 283 254.111, 283 253 C 283 251.667, 283.667 251, 285 251 C 286.333 251, 287 250.333, 287 249 C 287 247.889, 287.667 247, 288.500 247 C 289.516 247, 290.054 245.870, 290.167 243.500 C 290.258 241.575, 290.371 239.219, 290.417 238.264 C 290.541 235.676, 286.977 235.372, 286.312 237.913 C 286.012 239.061, 285.144 240, 284.383 240 C 283.623 240, 283 240.900, 283 242 C 283 243.111, 282.333 244, 281.500 244 C 280.675 244, 280 244.675, 280 245.500 C 280 246.333, 279.111 247, 278 247 C 276.667 247, 276 247.667, 276 249 C 276 250.619, 275.333 251, 272.500 251 C 270.167 251, 269 251.467, 269 252.399 C 269 254.252, 263.116 254.699, 245.750 254.166 C 234.971 253.835, 232 253.447, 232 252.372 C 232 251.317, 230.036 251, 223.500 251 C 216.930 251, 215 250.686, 215 249.617 C 215 248.041, 212 247.034, 207.250 247.014 C 204.671 247.003, 204 246.587, 204 245 C 204 243.889, 203.333 243, 202.500 243 C 201.675 243, 201 242.325, 201 241.500 C 201 240.675, 200.156 240, 199.125 240 C 196.983 240, 195.848 236.139, 196.700 231.750 C 197.156 229.397, 197.722 229, 200.617 229 C 203.333 229, 204 229.394, 204 231 C 204 232.333, 204.667 233, 206 233 C 207.333 233, 208 232.333, 208 231 C 208 229.889, 208.667 229, 209.500 229 C 210.325 229, 211 228.377, 211 227.617 C 211 226.856, 211.900 225.998, 213 225.710 C 214.670 225.274, 215 224.346, 215 220.094 C 215 216.423, 215.387 215, 216.383 215 C 217.144 215, 218.002 214.100, 218.290 213 C 218.577 211.900, 219.530 211, 220.406 211 C 221.818 211, 222 208.378, 222 188 C 222 168.859, 221.763 165, 220.588 165 C 219.720 165, 218.915 163.459, 218.500 161 C 217.892 157.404, 217.530 157, 214.912 157 C 213.071 157, 212 156.481, 212 155.588 C 212 154.720, 210.459 153.915, 208 153.500 C 205.541 153.085, 204 152.280, 204 151.412 C 204 150.431, 202.778 150, 200 150 C 197.261 150, 196 149.564, 196 148.617 C 196 146.682, 192.804 146.029, 183.250 146.014 L 175 146 175 142.500 C 175 139.167, 175.167 139, 178.500 139 C 180.944 139, 182 138.548, 182 137.500 C 182 136.348, 183.278 136, 187.500 136 C 192.333 136, 193 135.758, 193 134 C 193 132.121, 192.333 132, 182 132 C 173.041 132, 171 132.270, 171 133.455" stroke="none" fill="black" fill-rule="evenodd"/>
</svg>