<svg xmlns="http://www.w3.org/2000/svg" width="300" height="300" viewBox="0 0 300 300" version="1.1">
	<path d="M 141.576 29.446 C 141.175 31.584, 140.330 33, 139.455 33 C 138.655 33, 138 33.900, 138 35 C 138 36.100, 137.347 37, 136.550 37 C 135.752 37, 134.722 37.674, 134.261 38.497 C 133.611 39.659, 130.352 40.142, 119.712 40.652 C 109.219 41.156, 106 41.626, 106 42.655 C 106 43.395, 105.100 44, 104 44 C 102.667 44, 102 44.667, 102 46 C 102 47.333, 101.333 48, 100 48 C 98.381 48, 98 48.667, 98 51.500 C 98 54.333, 98.381 55, 100 55 C 101.100 55, 102 54.340, 102 53.534 C 102 52.531, 103.576 51.860, 107 51.406 C 110.246 50.975, 112 50.261, 112 49.371 C 112 48.280, 114.654 48, 125 48 L 138 48 138 59 L 138 70 129 70 C 121.667 70, 120 70.278, 120 71.500 C 120 72.652, 118.722 73, 114.500 73 C 110.354 73, 109 73.358, 109 74.455 C 109 75.325, 107.595 76.173, 105.500 76.566 L 102 77.223 102 84.111 L 102 91 105.389 91 C 108.470 91, 108.837 90.682, 109.434 87.500 C 110.034 84.302, 110.389 84, 113.545 84 C 115.949 84, 117 83.544, 117 82.500 C 117 80.935, 117.842 80.814, 131.250 80.459 L 138 80.280 138 93.140 C 138 103.585, 137.733 106, 136.579 106 C 135.798 106, 134.872 107.308, 134.521 108.906 C 134.075 110.936, 133.099 112.009, 131.285 112.465 C 129.856 112.823, 115.716 113.007, 99.862 112.873 C 84.008 112.739, 70.767 112.899, 70.438 113.229 C 70.108 113.558, 69.762 116.004, 69.669 118.664 L 69.500 123.500 93.500 123.801 C 120.351 124.138, 128 123.612, 128 121.428 C 128 120.235, 131.537 120, 149.500 120 C 167.944 120, 171 119.787, 171 118.500 C 171 117.675, 171.675 117, 172.500 117 C 173.325 117, 174 117.675, 174 118.500 C 174 119.548, 175.056 120, 177.500 120 C 179.878 120, 181 119.539, 181 118.561 C 181 116.863, 186.379 116.059, 195.983 116.322 C 201.276 116.467, 202.529 116.821, 202.807 118.250 C 203.042 119.463, 202.511 120, 201.073 120 C 199.667 120, 199 120.643, 199 122 C 199 123.111, 198.333 124, 197.500 124 C 196.675 124, 196 124.675, 196 125.500 C 196 126.333, 195.111 127, 194 127 C 192.667 127, 192 127.667, 192 129 C 192 130.667, 192.667 131, 196.010 131 C 198.782 131, 200.548 130.383, 201.732 129 C 202.674 127.900, 204.019 127, 204.722 127 C 205.425 127, 206 126.325, 206 125.500 C 206 124.667, 206.889 124, 208 124 C 209.619 124, 210 123.333, 210 120.500 C 210 118.056, 210.452 117, 211.500 117 C 212.333 117, 213 116.111, 213 115 C 213 113.889, 212.333 113, 211.500 113 C 210.667 113, 210 112.111, 210 111 C 210 109.381, 209.333 109, 206.500 109 C 204.056 109, 203 108.548, 203 107.500 C 203 106.310, 201.556 106, 196 106 C 190.444 106, 189 106.310, 189 107.500 C 189 108.788, 185.873 109, 166.861 109 L 144.721 109 145.352 103.750 C 145.699 100.862, 145.987 97.713, 145.991 96.750 C 145.996 95.787, 146.675 95, 147.500 95 C 148.333 95, 149 94.111, 149 93 C 149 91.667, 149.667 91, 151 91 C 152.111 91, 153 90.333, 153 89.500 C 153 88.675, 153.675 88, 154.500 88 C 155.333 88, 156 87.111, 156 86 C 156 84.667, 156.667 84, 158 84 C 159.333 84, 160 83.333, 160 82 C 160 80.889, 160.667 80, 161.500 80 C 162.633 80, 163 78.778, 163 75 C 163 71.092, 162.652 70, 161.406 70 C 160.530 70, 159.577 69.100, 159.290 68 C 158.634 65.491, 152 65.036, 152 67.500 C 152 68.325, 151.325 69, 150.500 69 C 149.675 69, 149 68.325, 149 67.500 C 149 66.675, 148.325 66, 147.500 66 C 145.728 66, 145.461 62.346, 147.191 61.770 C 147.892 61.536, 148.556 58.625, 148.807 54.686 L 149.233 48 156.116 48 C 161.290 48, 163 48.342, 163 49.375 C 163 51.060, 167.342 52, 175.125 52 C 180.333 52, 181 51.773, 181 50 C 181 48.667, 181.667 48, 183 48 C 184.333 48, 185 47.333, 185 46 C 185 44.889, 185.667 44, 186.500 44 C 187.548 44, 188 42.944, 188 40.500 C 188 37.167, 187.833 37, 184.500 37 C 182.056 37, 181 36.548, 181 35.500 C 181 34.310, 179.556 34, 174 34 C 168.444 34, 167 34.310, 167 35.500 C 167 36.700, 165.500 37, 159.500 37 C 152.667 37, 152 36.822, 152 35 C 152 33.900, 151.354 33, 150.563 33 C 149.673 33, 149.007 31.763, 148.813 29.750 C 148.541 26.922, 148.094 26.461, 145.371 26.196 C 142.498 25.916, 142.189 26.181, 141.576 29.446 M 167 46.500 C 167 47.325, 167.675 48, 168.500 48 C 169.325 48, 170 47.325, 170 46.500 C 170 45.675, 169.325 45, 168.500 45 C 167.675 45, 167 45.675, 167 46.500 M 145.528 80.954 C 144.780 82.166, 145.957 87, 147.001 87 C 147.433 87, 148.045 86.325, 148.362 85.500 C 148.678 84.675, 149.626 84, 150.469 84 C 151.333 84, 152 83.129, 152 82 C 152 80.453, 151.333 80, 149.059 80 C 147.441 80, 145.853 80.429, 145.528 80.954 M 149 125.500 C 149 126.652, 147.722 127, 143.500 127 C 138.667 127, 138 127.242, 138 129 C 138 130.619, 137.333 131, 134.500 131 C 131.964 131, 131 131.439, 131 132.594 C 131 133.470, 130.100 134.423, 129 134.710 C 127.900 134.998, 127 135.856, 127 136.617 C 127 137.377, 126.377 138, 125.617 138 C 124.856 138, 123.998 138.900, 123.710 140 C 123.423 141.100, 122.470 142, 121.594 142 C 120.717 142, 120 142.623, 120 143.383 C 120 144.144, 119.100 145.002, 118 145.290 C 116.900 145.577, 116 146.530, 116 147.406 C 116 148.283, 115.325 149, 114.500 149 C 113.675 149, 113 149.675, 113 150.500 C 113 151.333, 112.111 152, 111 152 C 109.667 152, 109 152.667, 109 154 C 109 155.619, 108.333 156, 105.500 156 L 102 156 102 161.603 L 102 167.205 110.537 166.853 C 116.426 166.609, 119.339 166.070, 119.930 165.113 C 120.401 164.351, 123.085 163.506, 125.893 163.236 C 129.317 162.907, 131 162.293, 131 161.373 C 131 160.404, 132.397 159.996, 135.750 159.986 C 141.923 159.969, 145 159.103, 145 157.383 C 145 156.436, 146.261 156, 149 156 C 151.889 156, 153 155.583, 153 154.500 C 153 153.675, 153.675 153, 154.500 153 C 155.325 153, 156 153.675, 156 154.500 C 156 155.325, 155.377 156, 154.617 156 C 153.856 156, 152.998 156.900, 152.710 158 C 152.423 159.100, 151.470 160, 150.594 160 C 149.717 160, 149 160.675, 149 161.500 C 149 162.538, 147.957 163, 145.617 163 C 143.074 163, 142.103 163.497, 141.710 165 C 141.329 166.456, 140.346 167, 138.094 167 C 136.010 167, 135 167.490, 135 168.500 C 135 169.356, 134.101 170, 132.906 170 C 131.654 170, 130.603 170.803, 130.290 172 C 129.897 173.503, 128.926 174, 126.383 174 C 124.089 174, 123 174.468, 123 175.455 C 123 176.325, 121.595 177.173, 119.500 177.566 C 117.495 177.942, 116 178.816, 116 179.611 C 116 180.628, 114.526 181, 110.500 181 C 106.278 181, 105 181.348, 105 182.500 C 105 183.325, 104.325 184, 103.500 184 C 102.417 184, 102 185.111, 102 188 L 102 192 113 192 C 121.756 192, 124 191.715, 124 190.601 C 124 189.604, 126.005 189.002, 131 188.500 C 135.995 187.998, 138 187.396, 138 186.399 C 138 185.325, 139.742 185, 145.500 185 C 151.159 185, 153 184.666, 153 183.639 C 153 182.286, 159.574 181.028, 166.750 181.009 C 168.968 181.003, 170 180.524, 170 179.500 C 170 178.345, 171.288 178, 175.594 178 C 180.346 178, 181.266 177.699, 181.710 176 C 182.316 173.682, 185 173.274, 185 175.500 C 185 176.325, 185.675 177, 186.500 177 C 187.356 177, 188 177.899, 188 179.094 C 188 180.346, 188.803 181.397, 190 181.710 C 191.392 182.074, 192 183.074, 192 185 C 192 186.926, 192.608 187.926, 194 188.290 C 195.456 188.671, 196 189.654, 196 191.906 C 196 193.990, 196.490 195, 197.500 195 C 198.333 195, 199 195.889, 199 197 C 199 198.100, 199.623 199, 200.383 199 C 202.142 199, 202.969 202.098, 202.986 208.750 C 202.997 212.756, 202.645 214, 201.500 214 C 200.675 214, 200 214.675, 200 215.500 C 200 216.583, 198.889 217, 196 217 C 192.667 217, 192 217.333, 192 219 C 192 220.721, 192.662 220.998, 196.750 220.986 C 202.923 220.969, 206 220.103, 206 218.383 C 206 217.623, 206.900 217, 208 217 C 209.619 217, 210 216.333, 210 213.500 C 210 211.177, 210.468 210, 211.392 210 C 212.157 210, 213.066 208.875, 213.411 207.500 C 214.247 204.169, 213.124 200, 211.392 200 C 210.435 200, 210 198.750, 210 196 C 210 193.261, 209.564 192, 208.617 192 C 207.856 192, 206.998 191.100, 206.710 190 C 206.423 188.900, 205.470 188, 204.594 188 C 203.439 188, 203 187.036, 203 184.500 C 203 182.187, 202.531 181, 201.617 181 C 199.897 181, 199.031 177.923, 199.014 171.750 C 199.003 168.201, 198.621 167, 197.500 167 C 196.667 167, 196 166.111, 196 165 C 196 163.333, 195.333 163, 192 163 C 189.261 163, 188 163.436, 188 164.383 C 188 165.899, 185.032 166.965, 180.750 166.986 C 178.978 166.995, 178 167.534, 178 168.500 C 178 169.605, 176.847 170, 173.625 170 C 167.259 170, 163 171.052, 163 172.625 C 163 173.661, 161.273 174, 156 174 C 150.444 174, 149 174.310, 149 175.500 C 149 176.652, 147.722 177, 143.500 177 C 139.278 177, 138 176.652, 138 175.500 C 138 174.462, 139.043 174, 141.383 174 C 143.926 174, 144.897 173.503, 145.290 172 C 145.671 170.544, 146.654 170, 148.906 170 C 150.990 170, 152 169.510, 152 168.500 C 152 167.667, 152.889 167, 154 167 C 155.100 167, 156 166.345, 156 165.545 C 156 164.675, 157.405 163.827, 159.500 163.434 C 161.505 163.058, 163 162.184, 163 161.389 C 163 160.625, 163.717 160, 164.594 160 C 165.470 160, 166.423 159.100, 166.710 158 C 167.103 156.497, 168.074 156, 170.617 156 C 172.911 156, 174 155.532, 174 154.545 C 174 153.675, 175.405 152.827, 177.500 152.434 C 179.505 152.058, 181 151.184, 181 150.389 C 181 149.625, 181.900 149, 183 149 C 184.333 149, 185 148.333, 185 147 C 185 145.667, 185.667 145, 187 145 C 188.111 145, 189 144.333, 189 143.500 C 189 142.675, 189.675 142, 190.500 142 C 191.333 142, 192 141.111, 192 140 C 192 138.178, 191.333 138, 184.500 138 C 178.781 138, 177 138.328, 177 139.384 C 177 140.348, 175.032 140.978, 170.500 141.463 C 165.877 141.958, 164 142.569, 164 143.580 C 164 144.631, 162.601 145, 158.617 145 C 154.074 145, 153.152 145.312, 152.710 147 C 152.274 148.670, 151.346 149, 147.094 149 C 143.425 149, 142 149.387, 142 150.383 C 142 151.374, 139.878 151.964, 134.500 152.468 C 129.032 152.980, 127 153.554, 127 154.585 C 127 155.535, 125.851 156, 123.500 156 C 120.667 156, 120 155.619, 120 154 C 120 152.667, 120.667 152, 122 152 C 123.111 152, 124 151.333, 124 150.500 C 124 149.675, 124.675 149, 125.500 149 C 126.325 149, 127 148.283, 127 147.406 C 127 146.530, 127.900 145.577, 129 145.290 C 130.100 145.002, 131 144.197, 131 143.500 C 131 142.803, 131.900 141.998, 133 141.710 C 134.100 141.423, 135 140.470, 135 139.594 C 135 138.439, 135.964 138, 138.500 138 C 140.878 138, 142 137.539, 142 136.561 C 142 134.574, 148.767 133.698, 160.705 134.139 C 169.056 134.448, 170.494 134.269, 170.771 132.885 C 171.011 131.688, 170.049 131.104, 167.047 130.624 C 164.421 130.204, 163 129.454, 163 128.488 C 163 127.454, 161.932 127, 159.500 127 C 157.056 127, 156 126.548, 156 125.500 C 156 124.452, 154.944 124, 152.500 124 C 150.056 124, 149 124.452, 149 125.500 M 156 185.767 C 156 186.926, 155.159 187.987, 154 188.290 C 152.159 188.771, 152 189.654, 152 199.406 C 152 209.333, 152.126 210, 154 210 C 155.111 210, 156 210.667, 156 211.500 C 156 212.325, 155.283 213, 154.406 213 C 153.530 213, 152.577 213.900, 152.290 215 C 152.002 216.100, 151.199 217, 150.505 217 C 149.531 217, 149.137 223.426, 148.776 245.250 C 148.519 260.788, 148.645 273.883, 149.056 274.351 C 149.466 274.819, 151.197 274.896, 152.901 274.522 C 155.504 273.950, 156 273.373, 156 270.921 C 156 269.124, 156.524 268, 157.361 268 C 158.879 268, 159.977 261.218, 159.991 251.750 L 160 246 167 246 C 172.273 246, 174 246.339, 174 247.375 C 174 248.904, 178.228 250, 184.125 250 C 186.903 250, 188 250.425, 188 251.500 C 188 252.652, 189.278 253, 193.500 253 C 197.516 253, 199 253.373, 199 254.383 C 199 255.959, 202 256.966, 206.750 256.986 C 208.850 256.995, 210 257.491, 210 258.389 C 210 259.184, 211.495 260.058, 213.500 260.434 C 215.595 260.827, 217 261.675, 217 262.545 C 217 263.532, 218.090 264, 220.389 264 C 223.470 264, 223.837 264.318, 224.434 267.500 C 224.827 269.595, 225.675 271, 226.545 271 C 227.345 271, 228 271.900, 228 273 C 228 274.619, 228.667 275, 231.500 275 C 234.333 275, 235 274.619, 235 273 C 235 271.667, 235.667 271, 237 271 C 238.111 271, 239 270.333, 239 269.500 C 239 268.675, 238.375 268, 237.611 268 C 236.816 268, 235.942 266.505, 235.566 264.500 C 235.173 262.405, 234.325 261, 233.455 261 C 232.655 261, 232 260.100, 232 259 C 232 257.333, 231.333 257, 228 257 C 224.667 257, 224 256.667, 224 255 C 224 253.381, 223.333 253, 220.500 253 C 218.056 253, 217 252.548, 217 251.500 C 217 250.588, 216.069 250, 214.625 250 C 210.120 250, 206 248.746, 206 247.375 C 206 246.396, 204.593 246, 201.117 246 C 197.074 246, 196.143 245.656, 195.710 244 C 195.274 242.330, 194.346 242, 190.094 242 C 186.233 242, 185 241.637, 185 240.500 C 185 239.257, 183.109 239, 173.980 239 L 162.961 239 163.230 217.263 C 163.476 197.481, 163.657 195.496, 165.250 195.190 C 166.462 194.957, 167 195.491, 167 196.927 C 167 198.103, 167.649 199, 168.500 199 C 169.548 199, 170 197.944, 170 195.500 C 170 193.056, 169.548 192, 168.500 192 C 167.667 192, 167 191.111, 167 190 C 167 188.667, 166.333 188, 165 188 C 163.889 188, 163 187.333, 163 186.500 C 163 185.675, 162.438 184.994, 161.750 184.986 C 161.063 184.979, 159.488 184.701, 158.250 184.370 C 156.466 183.892, 156 184.181, 156 185.767 M 134 204.500 C 134 205.510, 132.990 206, 130.906 206 C 128.654 206, 127.671 206.544, 127.290 208 C 126.897 209.503, 125.926 210, 123.383 210 C 121.169 210, 120 210.478, 120 211.383 C 120 212.144, 119.100 213.002, 118 213.290 C 116.900 213.577, 116 214.530, 116 215.406 C 116 216.336, 115.162 217, 113.990 217 C 112.885 217, 111.210 217.900, 110.268 219 C 109.326 220.100, 107.981 221, 107.278 221 C 106.575 221, 106 221.675, 106 222.500 C 106 223.333, 105.111 224, 104 224 C 102.667 224, 102 224.667, 102 226 C 102 227.333, 101.333 228, 100 228 C 98.667 228, 98 228.667, 98 230 C 98 231.111, 97.333 232, 96.500 232 C 95.675 232, 95 232.675, 95 233.500 C 95 234.333, 94.111 235, 93 235 C 91.667 235, 91 235.667, 91 237 C 91 238.111, 90.333 239, 89.500 239 C 88.675 239, 88 239.675, 88 240.500 C 88 241.333, 87.111 242, 86 242 C 84.667 242, 84 242.667, 84 244 C 84 245.333, 83.333 246, 82 246 C 80.889 246, 80 246.667, 80 247.500 C 80 248.325, 79.325 249, 78.500 249 C 77.667 249, 77 249.889, 77 251 C 77 252.333, 76.333 253, 75 253 C 73.667 253, 73 253.667, 73 255 C 73 256.111, 72.333 257, 71.500 257 C 70.675 257, 70 257.675, 70 258.500 C 70 259.333, 69.111 260, 68 260 C 66.667 260, 66 260.667, 66 262 C 66 263.111, 65.333 264, 64.500 264 C 63.452 264, 63 265.056, 63 267.500 L 63 271 68 271 C 71.778 271, 73 270.633, 73 269.500 C 73 268.667, 73.889 268, 75 268 C 76.333 268, 77 267.333, 77 266 C 77 264.667, 77.667 264, 79 264 C 80.111 264, 81 263.333, 81 262.500 C 81 261.675, 81.675 261, 82.500 261 C 83.583 261, 84 259.889, 84 257 C 84 254.111, 84.417 253, 85.500 253 C 86.325 253, 87 252.283, 87 251.406 C 87 250.530, 87.900 249.577, 89 249.290 C 90.100 249.002, 91 248.144, 91 247.383 C 91 246.623, 91.900 246, 93 246 C 94.333 246, 95 245.333, 95 244 C 95 242.667, 95.667 242, 97 242 C 98.111 242, 99 241.333, 99 240.500 C 99 239.675, 99.675 239, 100.500 239 C 101.333 239, 102 238.111, 102 237 C 102 235.667, 102.667 235, 104 235 C 105.111 235, 106 234.333, 106 233.500 C 106 232.675, 106.675 232, 107.500 232 C 108.333 232, 109 231.111, 109 230 C 109 228.667, 109.667 228, 111 228 C 112.100 228, 113 227.345, 113 226.545 C 113 225.675, 114.405 224.827, 116.500 224.434 C 118.505 224.058, 120 223.184, 120 222.389 C 120 221.625, 120.623 221, 121.383 221 C 122.144 221, 123.002 220.100, 123.290 219 C 123.690 217.468, 124.654 217, 127.406 217 C 129.934 217, 131 216.555, 131 215.500 C 131 214.675, 131.717 214, 132.594 214 C 133.470 214, 134.423 213.100, 134.710 212 C 135.143 210.344, 136.074 210, 140.117 210 C 143.791 210, 145 210.371, 145 211.500 C 145 212.333, 145.889 213, 147 213 C 148.619 213, 149 212.333, 149 209.500 C 149 207.056, 148.548 206, 147.500 206 C 146.675 206, 146 205.325, 146 204.500 C 146 203.333, 144.667 203, 140 203 C 135.333 203, 134 203.333, 134 204.500 M 181 212 C 181 213.111, 181.667 214, 182.500 214 C 183.325 214, 184 214.675, 184 215.500 C 184 216.333, 184.889 217, 186 217 C 187.333 217, 188 216.333, 188 215 C 188 213.889, 187.333 213, 186.500 213 C 185.675 213, 185 212.325, 185 211.500 C 185 210.667, 184.111 210, 183 210 C 181.667 210, 181 210.667, 181 212" stroke="none" fill="black" fill-rule="evenodd"/>
</svg>