<svg xmlns="http://www.w3.org/2000/svg" width="300" height="300" viewBox="0 0 300 300" version="1.1">
	<path d="M 202 43.500 C 202 44.325, 201.325 45, 200.500 45 C 199.348 45, 199 46.278, 199 50.500 C 199 55.333, 199.242 56, 201 56 C 202.333 56, 203 56.667, 203 58 C 203 59.111, 203.667 60, 204.500 60 C 205.548 60, 206 58.944, 206 56.500 L 206 53 217 53 C 226.111 53, 228 53.258, 228 54.500 C 228 55.325, 228.717 56, 229.594 56 C 230.470 56, 231.423 56.900, 231.710 58 C 232.103 59.503, 233.074 60, 235.617 60 C 238.887 60, 239 59.869, 239 56.071 C 239 51.055, 236.945 49, 231.929 49 C 229.144 49, 228 48.573, 228 47.534 C 228 46.531, 226.424 45.860, 223 45.406 C 219.754 44.975, 218 44.261, 218 43.371 C 218 42.324, 216.110 42, 210 42 C 203.556 42, 202 42.292, 202 43.500 M 125.783 52.662 C 124.776 52.939, 123.799 54.555, 123.421 56.567 C 123.055 58.520, 122.179 60, 121.389 60 C 120.468 60, 120 61.180, 120 63.500 C 120 65.944, 120.452 67, 121.500 67 C 123.817 67, 123.571 73.972, 121.250 74.086 C 120.287 74.133, 112.258 74.099, 103.407 74.011 C 85.760 73.835, 80 74.475, 80 76.611 C 80 77.375, 79.325 78, 78.500 78 C 77.675 78, 77 78.675, 77 79.500 C 77 80.325, 76.311 81, 75.469 81 C 72.842 81, 72.671 83.875, 75.144 86.481 C 77.834 89.317, 84 90.058, 84 87.545 C 84 85.359, 88.722 84.879, 107 85.205 L 123.500 85.500 123.764 116.250 C 123.992 142.665, 124.238 147, 125.514 147 C 126.498 147, 127 148.013, 127 150 C 127 152, 126.500 153, 125.500 153 C 124.667 153, 124 153.889, 124 155 C 124 156.629, 123.333 157, 120.406 157 C 117.654 157, 116.690 157.468, 116.290 159 C 115.897 160.503, 114.926 161, 112.383 161 C 110.043 161, 109 161.462, 109 162.500 C 109 163.548, 107.944 164, 105.500 164 C 102.167 164, 102 163.833, 102 160.500 C 102 157.644, 102.375 157, 104.039 157 C 105.958 157, 106.061 156.483, 105.789 148.250 L 105.500 139.500 101.750 139.190 C 99.297 138.987, 98 138.381, 98 137.440 C 98 136.648, 97.325 136, 96.500 136 C 95.675 136, 95 136.675, 95 137.500 C 95 138.723, 93.330 139, 85.969 139 C 79.034 139, 76.809 139.334, 76.385 140.439 C 76.081 141.230, 74.521 142.166, 72.916 142.518 C 70.388 143.074, 70 143.614, 70 146.579 C 70 149.822, 70.182 150, 73.500 150 C 75.813 150, 77 150.469, 77 151.383 C 77 152.669, 79.840 153.955, 82.750 153.986 C 83.505 153.995, 84 152.668, 84 150.639 C 84 147.332, 84.083 147.269, 89.250 146.648 C 98.370 145.553, 98 145.347, 98 151.500 C 98 155.722, 97.652 157, 96.500 157 C 95.667 157, 95 157.889, 95 159 C 95 160.333, 94.333 161, 93 161 C 91.381 161, 91 161.667, 91 164.500 C 91 166.944, 90.548 168, 89.500 168 C 88.675 168, 88 168.717, 88 169.594 C 88 170.470, 87.100 171.423, 86 171.710 C 84.900 171.998, 84 172.856, 84 173.617 C 84 174.377, 83.100 175, 82 175 C 80.900 175, 80 175.655, 80 176.455 C 80 177.325, 78.595 178.173, 76.500 178.566 C 74.495 178.942, 73 179.816, 73 180.611 C 73 181.375, 72.325 182, 71.500 182 C 70.667 182, 70 182.889, 70 184 C 70 185.333, 69.333 186, 68 186 C 66.900 186, 66 186.623, 66 187.383 C 66 188.144, 65.100 189.002, 64 189.290 C 62.468 189.690, 62 190.654, 62 193.406 C 62 196.932, 62.075 197, 66 197 C 69.333 197, 70 196.667, 70 195 C 70 193.381, 70.667 193, 73.500 193 C 75.820 193, 77 192.532, 77 191.611 C 77 190.816, 78.495 189.942, 80.500 189.566 C 82.595 189.173, 84 188.325, 84 187.455 C 84 186.655, 84.900 186, 86 186 C 87.333 186, 88 185.333, 88 184 C 88 182.667, 88.667 182, 90 182 C 91.100 182, 92 181.361, 92 180.579 C 92 179.798, 93.350 178.862, 95 178.500 C 96.650 178.138, 98 177.202, 98 176.421 C 98 175.639, 98.900 175, 100 175 C 101.100 175, 102 174.340, 102 173.534 C 102 172.531, 103.576 171.860, 107 171.406 C 110.246 170.975, 112 170.261, 112 169.371 C 112 168.617, 112.900 168, 114 168 C 115.100 168, 116 167.381, 116 166.625 C 116 165.196, 121.530 163.591, 123.103 164.563 C 123.596 164.868, 124 165.766, 124 166.559 C 124 167.352, 124.620 168, 125.377 168 C 126.492 168, 126.835 172.137, 127.175 189.683 C 127.479 205.363, 127.928 211.476, 128.798 211.766 C 130.246 212.249, 130.418 215, 129 215 C 128.450 215, 128 217.475, 128 220.500 C 128 223.525, 128.403 226, 128.896 226 C 129.389 226, 130.118 232.525, 130.517 240.500 C 131.082 251.807, 131.545 255, 132.621 255 C 133.379 255, 134 255.675, 134 256.500 C 134 257.333, 134.889 258, 136 258 C 137.100 258, 138 257.377, 138 256.617 C 138 255.856, 138.900 254.998, 140 254.710 C 141.822 254.234, 142 253.346, 142 244.719 C 142 233.492, 141.250 229, 139.375 229 C 138.261 229, 138 225.682, 138 211.500 C 138 196.611, 137.776 194, 136.500 194 C 135.312 194, 134.984 192.493, 134.922 186.750 C 134.879 182.762, 134.631 176.125, 134.372 172 C 133.658 160.633, 134.350 158.213, 138.538 157.427 C 140.514 157.056, 142 156.181, 142 155.389 C 142 154.468, 143.180 154, 145.500 154 C 148.333 154, 149 153.619, 149 152 C 149 150.381, 149.667 150, 152.500 150 C 154.944 150, 156 149.548, 156 148.500 C 156 147.452, 154.944 147, 152.500 147 C 150.056 147, 149 147.452, 149 148.500 C 149 149.700, 147.500 150, 141.500 150 L 134 150 134 121.500 C 134 96.833, 133.798 93, 132.500 93 C 131.667 93, 131 92.111, 131 91 C 131 89.900, 131.623 89, 132.383 89 C 133.144 89, 133.977 88.198, 134.233 87.217 C 134.629 85.702, 136.034 85.395, 143.600 85.171 C 156.772 84.780, 167 85.890, 167 87.711 C 167 88.937, 168.685 89.129, 176.919 88.844 C 182.374 88.655, 187.152 88.185, 187.536 87.799 C 187.920 87.414, 188.465 85.052, 188.747 82.549 L 189.260 78 172.630 78 C 156.667 78, 156 77.920, 156 76 C 156 74.381, 155.333 74, 152.500 74 C 149.167 74, 149 73.833, 149 70.500 C 149 67.667, 148.619 67, 147 67 C 145.889 67, 145 66.333, 145 65.500 C 145 64.667, 144.111 64, 143 64 C 141.667 64, 141 63.333, 141 62 C 141 60.889, 140.333 60, 139.500 60 C 138.675 60, 138 59.377, 138 58.617 C 138 57.856, 137.100 56.998, 136 56.710 C 134.900 56.423, 134 55.470, 134 54.594 C 134 53.717, 133.438 52.994, 132.750 52.986 C 132.063 52.979, 130.600 52.796, 129.500 52.581 C 128.400 52.366, 126.727 52.402, 125.783 52.662 M 134.566 63.500 C 134.173 65.595, 133.325 67, 132.455 67 C 131.358 67, 131 68.354, 131 72.500 L 131 78 138 78 L 145 78 145 74.500 C 145 72.056, 144.548 71, 143.500 71 C 142.667 71, 142 70.111, 142 69 C 142 67.667, 141.333 67, 140 67 C 138.381 67, 138 66.333, 138 63.500 C 138 61.180, 137.532 60, 136.611 60 C 135.816 60, 134.942 61.495, 134.566 63.500 M 215.750 128.689 C 214.787 128.941, 214 129.789, 214 130.573 C 214 131.709, 212.061 132, 204.500 132 C 197.078 132, 195 132.303, 195 133.383 C 195 134.899, 192.032 135.965, 187.750 135.986 C 185.978 135.995, 185 136.534, 185 137.500 C 185 138.583, 183.889 139, 181 139 C 178.111 139, 177 139.417, 177 140.500 C 177 141.325, 176.325 142, 175.500 142 C 174.667 142, 174 142.889, 174 144 C 174 145.619, 173.333 146, 170.500 146 C 167.667 146, 167 146.381, 167 148 C 167 149.619, 166.333 150, 163.500 150 C 161.197 150, 160 150.470, 160 151.375 C 160 152.746, 155.880 154, 151.375 154 C 149.931 154, 149 154.588, 149 155.500 C 149 156.348, 148.104 157, 146.940 157 C 145.170 157, 144.923 157.530, 145.190 160.750 L 145.500 164.500 152.250 164.796 C 157.354 165.019, 159 165.446, 159 166.546 C 159 167.576, 160.167 168, 163 168 C 165.834 168, 167 168.424, 167 169.455 C 167 170.325, 168.405 171.173, 170.500 171.566 C 172.425 171.927, 174 172.789, 174 173.481 C 174 174.237, 175.857 174.949, 178.651 175.264 C 181.449 175.580, 183.660 176.428, 184.201 177.394 C 184.755 178.385, 186.421 179, 188.550 179 C 190.950 179, 192 179.456, 192 180.500 C 192 181.466, 192.978 182.005, 194.750 182.014 C 199.032 182.035, 202 183.101, 202 184.617 C 202 185.564, 203.261 186, 206 186 C 208.834 186, 210 186.424, 210 187.455 C 210 189.389, 214.740 190.185, 224 189.806 L 231.500 189.500 231.295 186.628 C 231.016 182.723, 230.656 182.512, 224.168 182.435 C 215.206 182.329, 214 182.100, 214 180.500 C 214 179.456, 212.950 179, 210.550 179 C 208.421 179, 206.755 178.385, 206.201 177.394 C 205.660 176.428, 203.449 175.580, 200.651 175.264 C 197.807 174.944, 196 174.242, 196 173.458 C 196 172.741, 194.235 171.878, 192 171.500 C 189.541 171.085, 188 170.280, 188 169.412 C 188 168.465, 186.848 168, 184.500 168 C 182.187 168, 181 167.531, 181 166.617 C 181 165.101, 178.032 164.035, 173.750 164.014 C 172.077 164.005, 171 163.456, 171 162.611 C 171 161.816, 169.505 160.942, 167.500 160.566 C 165.405 160.173, 164 159.325, 164 158.455 C 164 157.655, 164.450 157, 165 157 C 165.550 157, 166 156.383, 166 155.628 C 166 154.800, 167.587 154.002, 170 153.616 C 172.588 153.202, 174 152.451, 174 151.488 C 174 150.454, 175.068 150, 177.500 150 C 179.820 150, 181 149.532, 181 148.611 C 181 147.816, 182.495 146.942, 184.500 146.566 C 186.425 146.205, 188 145.312, 188 144.582 C 188 143.716, 189.775 143.084, 193.107 142.764 C 195.915 142.494, 198.589 141.665, 199.048 140.923 C 199.578 140.066, 202.462 139.426, 206.941 139.173 C 212.102 138.882, 214 138.401, 214 137.387 C 214 136.469, 215.182 136, 217.500 136 C 220.917 136, 221 135.905, 221 132 C 221 127.866, 220.385 127.478, 215.750 128.689 M 160 144.500 C 160 145.500, 161 146, 163 146 C 165 146, 166 145.500, 166 144.500 C 166 143.500, 165 143, 163 143 C 161 143, 160 143.500, 160 144.500" stroke="none" fill="black" fill-rule="evenodd"/>
</svg>