<svg xmlns="http://www.w3.org/2000/svg" width="300" height="300" viewBox="0 0 300 300" version="1.1">
	<path d="M 73.014 39.750 C 73.021 42.362, 73.299 45.513, 73.630 46.750 C 74.307 49.275, 76 49.811, 76 47.500 C 76 46.217, 78.882 46, 95.937 46 L 115.873 46 116.187 49.250 C 116.473 52.217, 116.826 52.527, 120.250 52.810 L 124 53.121 123.986 48.310 C 123.965 40.725, 123.225 39.133, 119.390 38.413 C 117.469 38.053, 116 37.175, 116 36.389 C 116 35.247, 112.179 35, 94.500 35 L 73 35 73.014 39.750 M 66 81.361 C 66 97.262, 65.780 100, 64.500 100 C 63.675 100, 63 100.675, 63 101.500 C 63 102.325, 63.675 103, 64.500 103 C 65.548 103, 66 104.056, 66 106.500 C 66 108.803, 66.470 110, 67.375 110 C 68.948 110, 70 114.259, 70 120.625 C 70 123.847, 70.395 125, 71.500 125 C 72.739 125, 73 126.844, 73 135.594 C 73 145.346, 73.159 146.229, 75 146.710 C 76.100 146.998, 77 147.856, 77 148.617 C 77 149.377, 77.619 150, 78.375 150 C 80.490 150, 81.128 144.537, 80.389 132.750 C 79.884 124.693, 79.375 122, 78.358 122 C 77.309 122, 77 119.835, 77 112.500 L 77 103 80.500 103 C 82.944 103, 84 102.548, 84 101.500 C 84 100.445, 85.066 100, 87.594 100 C 90.346 100, 91.310 99.532, 91.710 98 C 92.181 96.201, 93.074 96, 100.617 96 C 106.993 96, 109 95.676, 109 94.648 C 109 92.887, 119.987 92.014, 142.250 92.006 L 159 92 159 96 C 159 98.889, 158.583 100, 157.500 100 C 156.452 100, 156 101.056, 156 103.500 C 156 105.896, 155.541 107, 154.545 107 C 153.675 107, 152.827 108.405, 152.434 110.500 C 152.073 112.425, 151.203 114, 150.500 114 C 149.797 114, 148.927 115.575, 148.566 117.500 C 147.992 120.562, 147.540 121, 144.955 121 C 142.245 121, 142 120.710, 142 117.500 C 142 114.083, 141.905 114, 138 114 C 135.111 114, 134 113.583, 134 112.500 C 134 111.367, 132.778 111, 129 111 C 125.222 111, 124 111.367, 124 112.500 C 124 113.690, 122.556 114, 117 114 C 111.638 114, 110 114.330, 110 115.412 C 110 116.280, 108.459 117.085, 106 117.500 C 103.541 117.915, 102 118.720, 102 119.588 C 102 120.365, 101.100 121, 100 121 C 98.667 121, 98 121.667, 98 123 C 98 124.111, 97.333 125, 96.500 125 C 95.675 125, 95 125.689, 95 126.531 C 95 127.374, 94.325 128.322, 93.500 128.638 C 91.902 129.251, 91.398 132, 92.883 132 C 93.369 132, 94.002 132.900, 94.290 134 C 94.577 135.100, 95.501 136, 96.343 136 C 97.338 136, 97.983 137.135, 98.187 139.242 C 98.393 141.377, 99.097 142.597, 100.250 142.815 C 101.781 143.105, 102 142.275, 102 136.185 L 102 129.223 105.500 128.566 C 107.595 128.173, 109 127.325, 109 126.455 C 109 125.452, 110.116 125, 112.594 125 C 115.346 125, 116.310 124.532, 116.710 123 C 117.181 121.201, 118.074 121, 125.617 121 C 133.333 121, 134 121.159, 134 123 C 134 124.111, 133.333 125, 132.500 125 C 131.452 125, 131 126.056, 131 128.500 C 131 131.333, 130.619 132, 129 132 C 127.381 132, 127 132.667, 127 135.500 C 127 138.333, 126.619 139, 125 139 C 123.889 139, 123 138.333, 123 137.500 C 123 136.675, 122.325 136, 121.500 136 C 120.675 136, 120 136.675, 120 137.500 C 120 138.548, 118.944 139, 116.500 139 C 113.667 139, 113 139.381, 113 141 C 113 142.333, 112.333 143, 111 143 C 109.381 143, 109 143.667, 109 146.500 L 109 150 100 150 C 92.667 150, 91 150.278, 91 151.500 C 91 152.575, 89.903 153, 87.125 153 C 81.369 153, 77 154.085, 77 155.514 C 77 156.209, 75.425 157.073, 73.500 157.434 C 70.050 158.081, 68.413 161, 71.500 161 C 72.325 161, 73 161.675, 73 162.500 C 73 163.722, 74.667 164, 82 164 C 89.333 164, 91 163.722, 91 162.500 C 91 161.462, 92.043 161, 94.383 161 C 96.952 161, 97.896 160.507, 98.302 158.952 C 98.786 157.102, 99.495 156.934, 105.669 157.202 L 112.500 157.500 112.803 166.500 C 113.133 176.293, 112.453 182, 110.955 182 C 110.430 182, 110 181.325, 110 180.500 C 110 179.417, 108.889 179, 106 179 C 103.111 179, 102 179.417, 102 180.500 C 102 181.769, 99.194 182.038, 83.750 182.250 C 73.713 182.387, 61 182.359, 55.500 182.187 C 50 182.015, 43.587 182.155, 41.250 182.499 C 37.356 183.070, 37 183.368, 37 186.061 C 37 188.007, 36.493 189, 35.500 189 C 34.667 189, 34 189.889, 34 191 C 34 192.942, 34.667 193, 57 193 C 76.778 193, 80 192.790, 80 191.500 C 80 190.348, 81.278 190, 85.500 190 L 91 190 91 193.500 C 91 196.333, 90.619 197, 89 197 C 87.900 197, 87 197.639, 87 198.421 C 87 199.202, 85.650 200.138, 84 200.500 C 82.350 200.862, 81 201.798, 81 202.579 C 81 203.361, 80.100 204, 79 204 C 77.667 204, 77 204.667, 77 206 C 77 207.111, 76.333 208, 75.500 208 C 74.675 208, 74 208.675, 74 209.500 C 74 210.356, 73.101 211, 71.906 211 C 70.654 211, 69.603 211.803, 69.290 213 C 68.857 214.656, 67.926 215, 63.883 215 L 59 215 59 218.500 C 59 220.813, 58.531 222, 57.617 222 C 56.856 222, 55.998 222.900, 55.710 224 C 55.423 225.100, 54.470 226, 53.594 226 C 52.717 226, 52 226.675, 52 227.500 C 52 228.333, 51.111 229, 50 229 C 48.667 229, 48 229.667, 48 231 C 48 232.333, 47.333 233, 46 233 C 44.889 233, 44 233.667, 44 234.500 C 44 235.510, 42.990 236, 40.906 236 C 38.654 236, 37.671 236.544, 37.290 238 C 37.002 239.100, 36.144 240, 35.383 240 C 34.623 240, 34 240.675, 34 241.500 C 34 242.325, 34.675 243, 35.500 243 C 36.333 243, 37 243.889, 37 245 C 37 246.333, 37.667 247, 39 247 C 40.100 247, 41 246.375, 41 245.611 C 41 244.816, 42.495 243.942, 44.500 243.566 C 46.595 243.173, 48 242.325, 48 241.455 C 48 240.655, 48.900 240, 50 240 C 51.333 240, 52 239.333, 52 238 C 52 236.889, 52.667 236, 53.500 236 C 54.325 236, 55 235.325, 55 234.500 C 55 233.667, 55.889 233, 57 233 C 58.333 233, 59 232.333, 59 231 C 59 229.889, 59.667 229, 60.500 229 C 61.325 229, 62 228.325, 62 227.500 C 62 226.667, 62.889 226, 64 226 C 65.333 226, 66 225.333, 66 224 C 66 222.394, 66.667 222, 69.383 222 C 71.926 222, 72.897 221.503, 73.290 220 C 73.762 218.194, 74.654 218, 82.500 218 C 90.346 218, 91.238 218.194, 91.710 220 C 92.075 221.393, 93.074 222, 95.005 222 C 97.382 222, 97.871 222.500, 98.434 225.500 C 98.827 227.595, 99.675 229, 100.545 229 C 101.642 229, 102 230.354, 102 234.500 C 102 238.646, 102.358 240, 103.455 240 C 104.325 240, 105.173 241.405, 105.566 243.500 C 105.942 245.505, 106.816 247, 107.611 247 C 108.523 247, 109 248.163, 109 250.383 C 109 252.926, 109.497 253.897, 111 254.290 C 112.456 254.671, 113 255.654, 113 257.906 C 113 259.879, 113.503 261, 114.389 261 C 115.184 261, 116.058 262.495, 116.434 264.500 C 117.266 268.934, 120 269.317, 120 265 C 120 262.238, 120.278 262, 123.500 262 L 127 262 127 253 C 127 245.667, 126.722 244, 125.500 244 C 124.230 244, 123.969 241.244, 123.800 226 C 123.690 216.100, 123.578 206.319, 123.550 204.264 C 123.513 201.476, 123.944 200.442, 125.250 200.190 C 126.462 199.957, 127 200.490, 127 201.927 C 127 203.773, 127.602 204, 132.500 204 C 136.500 204, 138 204.375, 138 205.375 C 138 206.746, 142.120 208, 146.625 208 C 148.069 208, 149 208.588, 149 209.500 C 149 210.548, 150.056 211, 152.500 211 C 155.333 211, 156 211.381, 156 213 C 156 214.758, 156.667 215, 161.500 215 C 165.526 215, 167 215.372, 167 216.389 C 167 217.184, 168.495 218.058, 170.500 218.434 C 172.595 218.827, 174 219.675, 174 220.545 C 174 221.576, 175.166 222, 178 222 C 180.739 222, 182 222.436, 182 223.383 C 182 225.060, 185.053 225.968, 190.750 225.986 C 193.855 225.996, 195 226.404, 195 227.500 C 195 228.655, 196.288 229, 200.594 229 C 205.346 229, 206.266 229.301, 206.710 231 C 207.169 232.756, 208.074 233, 214.117 233 C 219.384 233, 221 233.332, 221 234.415 C 221 235.446, 223.032 236.020, 228.500 236.532 C 233.878 237.036, 236 237.626, 236 238.617 C 236 239.652, 237.634 240, 242.500 240 C 247.348 240, 249 240.349, 249 241.375 C 249 242.757, 253.127 244, 257.719 244 C 259.346 244, 260.365 243.319, 260.710 242 C 260.998 240.900, 261.856 240, 262.617 240 C 263.377 240, 264 239.325, 264 238.500 C 264 237.675, 264.648 237, 265.441 237 C 267.555 237, 268.233 235.339, 267.495 231.976 C 266.765 228.652, 264 227.881, 264 231 C 264 232.808, 263.333 233, 257.050 233 C 251.470 233, 249.906 232.655, 249.120 231.250 C 248.333 229.844, 246.454 229.431, 239.570 229.147 C 233.067 228.880, 231 228.458, 231 227.397 C 231 226.441, 229.776 226, 227.125 226 C 221.228 226, 217 224.904, 217 223.375 C 217 222.342, 215.290 222, 210.117 222 C 204.074 222, 203.169 221.756, 202.710 220 C 202.274 218.330, 201.346 218, 197.094 218 C 193.233 218, 192 217.637, 192 216.500 C 192 215.363, 190.767 215, 186.906 215 C 182.654 215, 181.726 214.670, 181.290 213 C 180.857 211.344, 179.926 211, 175.883 211 C 172.344 211, 171 210.611, 171 209.588 C 171 208.720, 169.459 207.915, 167 207.500 C 164.541 207.085, 163 206.280, 163 205.412 C 163 204.389, 161.656 204, 158.117 204 C 154.074 204, 153.143 203.656, 152.710 202 C 152.329 200.544, 151.346 200, 149.094 200 C 147.010 200, 146 199.510, 146 198.500 C 146 197.675, 146.675 197, 147.500 197 C 148.333 197, 149 196.111, 149 195 C 149 193.667, 149.667 193, 151 193 C 152.100 193, 153 192.361, 153 191.579 C 153 190.798, 154.350 189.862, 156 189.500 C 157.650 189.138, 159 188.202, 159 187.421 C 159 186.639, 159.900 186, 161 186 C 162.333 186, 163 185.333, 163 184 C 163 182.667, 163.667 182, 165 182 C 166.111 182, 167 181.333, 167 180.500 C 167 179.675, 167.623 179, 168.383 179 C 169.144 179, 170.002 178.100, 170.290 177 C 170.577 175.900, 171.530 175, 172.406 175 C 173.283 175, 174 174.375, 174 173.611 C 174 172.816, 175.495 171.942, 177.500 171.566 C 179.595 171.173, 181 170.325, 181 169.455 C 181 168.459, 182.104 168, 184.500 168 C 186.944 168, 188 167.548, 188 166.500 C 188 165.395, 189.153 165, 192.375 165 C 198.741 165, 203 163.948, 203 162.375 C 203 161.619, 202.100 161, 201 161 C 199.900 161, 199 160.345, 199 159.545 C 199 158.675, 197.595 157.827, 195.500 157.434 C 190.783 156.549, 185 157.712, 185 159.545 C 185 160.541, 183.896 161, 181.500 161 C 179.180 161, 178 161.468, 178 162.389 C 178 163.184, 176.505 164.058, 174.500 164.434 C 172.405 164.827, 171 165.675, 171 166.545 C 171 167.345, 170.152 168, 169.117 168 C 168.074 168, 167 168.893, 166.710 170 C 166.423 171.100, 165.470 172, 164.594 172 C 163.717 172, 163 172.675, 163 173.500 C 163 174.325, 162.377 175, 161.617 175 C 160.856 175, 159.998 175.900, 159.710 177 C 159.423 178.100, 158.470 179, 157.594 179 C 156.717 179, 156 179.675, 156 180.500 C 156 181.333, 155.111 182, 154 182 C 152.667 182, 152 182.667, 152 184 C 152 185.619, 151.333 186, 148.500 186 C 146.104 186, 145 186.459, 145 187.455 C 145 188.325, 143.595 189.173, 141.500 189.566 C 139.495 189.942, 138 190.816, 138 191.611 C 138 192.693, 136.013 193, 129 193 L 120 193 120 189.500 C 120 187.056, 120.452 186, 121.500 186 C 122.325 186, 123 185.325, 123 184.500 C 123 183.675, 122.325 183, 121.500 183 C 120.278 183, 120 181.333, 120 174 C 120 167.030, 120.310 165, 121.375 165 C 122.746 165, 124 160.880, 124 156.375 C 124 154.026, 124.114 154, 134.500 154 L 145 154 145 150 L 145 146 139.500 146 C 135.134 146, 134 145.671, 134 144.406 C 134 143.530, 134.900 142.577, 136 142.290 C 137.100 142.002, 138 141.144, 138 140.383 C 138 139.623, 138.623 139, 139.383 139 C 140.144 139, 141.002 138.100, 141.290 137 C 141.577 135.900, 142.530 135, 143.406 135 C 144.283 135, 145 134.325, 145 133.500 C 145 132.667, 145.889 132, 147 132 C 148.619 132, 149 131.333, 149 128.500 C 149 125.167, 149.167 125, 152.500 125 C 155.833 125, 156 124.833, 156 121.500 C 156 118.964, 156.439 118, 157.594 118 C 158.470 118, 159.423 117.100, 159.710 116 C 159.998 114.900, 160.856 114, 161.617 114 C 162.531 114, 163 112.813, 163 110.500 C 163 107.667, 163.381 107, 165 107 C 166.758 107, 167 106.333, 167 101.500 C 167 97.500, 167.375 96, 168.375 96 C 170.016 96, 171.046 91.590, 170.300 87.750 C 170.007 86.237, 169.144 85, 168.383 85 C 167.623 85, 167 84.381, 167 83.625 C 167 81.720, 162.482 81, 150.533 81 C 130.828 81, 113 82.218, 113 83.564 C 113 84.468, 110.062 84.913, 102.462 85.159 C 94.957 85.402, 91.683 85.891, 91.086 86.859 C 90.072 88.502, 82.436 89.492, 77.673 88.598 C 75.307 88.155, 74.046 87.282, 73.665 85.827 C 72.852 82.719, 74.034 78, 75.625 78 C 76.530 78, 77 76.803, 77 74.500 C 77 71.167, 77.167 71, 80.500 71 C 83.833 71, 84 70.833, 84 67.500 C 84 64.124, 83.867 64, 80.250 63.991 C 78.188 63.987, 74.138 63.699, 71.250 63.352 L 66 62.721 66 81.361 M 109 187.500 C 109 188.325, 108.375 189, 107.611 189 C 106.822 189, 105.945 190.478, 105.580 192.428 C 105.060 195.196, 104.366 195.980, 101.968 196.507 C 100.336 196.866, 99 197.798, 99 198.579 C 99 199.361, 98.100 200, 97 200 C 95.667 200, 95 200.667, 95 202 C 95 203.333, 94.333 204, 93 204 C 91.900 204, 91 204.655, 91 205.455 C 91 206.325, 89.595 207.173, 87.500 207.566 C 82.439 208.516, 83.099 210.638, 88.651 211.264 C 91.449 211.580, 93.660 212.428, 94.201 213.394 C 94.695 214.277, 95.977 215, 97.050 215 C 98.122 215, 99 215.675, 99 216.500 C 99 217.325, 99.675 218, 100.500 218 C 101.333 218, 102 218.889, 102 220 C 102 221.104, 102.667 222, 103.488 222 C 104.451 222, 105.202 223.412, 105.616 226 C 106.002 228.413, 106.800 230, 107.628 230 C 108.455 230, 109.005 231.093, 109.014 232.750 C 109.035 237.032, 110.101 240, 111.617 240 C 112.377 240, 113 240.900, 113 242 C 113 243.111, 113.667 244, 114.500 244 C 115.700 244, 116 242.500, 116 236.500 C 116 230.500, 115.700 229, 114.500 229 C 113.213 229, 113 225.944, 113 207.500 C 113 186.667, 112.938 186, 111 186 C 109.889 186, 109 186.667, 109 187.500" stroke="none" fill="black" fill-rule="evenodd"/>
</svg>