<svg xmlns="http://www.w3.org/2000/svg" width="300" height="300" viewBox="0 0 300 300" version="1.1">
	<path d="M 146.695 32.059 C 145.747 35.685, 147.147 45, 148.640 45 C 149.605 45, 150 46.451, 150 50 C 150 53.639, 149.616 55, 148.588 55 C 146.847 55, 145.563 61.735, 146.495 65.978 C 146.860 67.640, 147.798 69, 148.579 69 C 149.570 69, 150 70.211, 150 73 C 150 76.333, 149.667 77, 148 77 C 146.190 77, 146 77.667, 146 84 C 146 89.556, 145.690 91, 144.500 91 C 143.675 91, 143 91.619, 143 92.375 C 143 94.176, 138.568 95, 128.875 95 C 122.542 95, 121 95.294, 121 96.500 C 121 97.684, 119.577 98.003, 114.250 98.014 C 106.152 98.030, 103 98.759, 103 100.617 C 103 101.610, 101.590 102, 98 102 L 93 102 93 98.500 C 93 96.056, 93.452 95, 94.500 95 C 95.325 95, 96 94.377, 96 93.617 C 96 92.856, 96.900 91.998, 98 91.710 C 99.100 91.423, 100 90.470, 100 89.594 C 100 88.717, 100.675 88, 101.500 88 C 102.333 88, 103 87.111, 103 86 C 103 84.381, 103.667 84, 106.500 84 C 108.803 84, 110 83.530, 110 82.625 C 110 81.052, 114.259 80, 120.625 80 C 123.847 80, 125 79.605, 125 78.500 C 125 77.452, 126.056 77, 128.500 77 C 131.333 77, 132 77.381, 132 79 C 132 80.111, 132.667 81, 133.500 81 C 134.325 81, 135 81.675, 135 82.500 C 135 83.433, 135.944 84, 137.500 84 C 139.056 84, 140 83.433, 140 82.500 C 140 81.675, 140.675 81, 141.500 81 C 142.583 81, 143 79.889, 143 77 C 143 73.667, 142.667 73, 141 73 C 139.900 73, 139 72.375, 139 71.611 C 139 69.604, 132.905 68.745, 124.358 69.545 C 119.095 70.039, 117 70.629, 117 71.617 C 117 72.605, 115.606 73, 112.117 73 C 108.020 73, 107.146 73.333, 106.692 75.069 C 106.258 76.729, 105.494 77.075, 102.826 76.819 C 100.929 76.637, 99.543 75.963, 99.600 75.250 C 99.655 74.563, 99.767 69.725, 99.850 64.500 C 99.972 56.789, 100.282 55, 101.500 55 C 102.325 55, 103 54.325, 103 53.500 C 103 52.675, 102.325 52, 101.500 52 C 100.667 52, 100 51.111, 100 50 C 100 48.395, 99.333 48, 96.625 48 C 93.645 48, 93.177 48.366, 92.625 51.125 C 92.281 52.844, 92 58.469, 92 63.625 C 92 71.292, 91.727 73, 90.500 73 C 89.316 73, 88.997 74.423, 88.986 79.750 C 88.970 87.848, 88.241 91, 86.383 91 C 85.289 91, 85 93.301, 85 102 C 85 111.111, 84.742 113, 83.500 113 C 82.667 113, 82 113.889, 82 115 C 82 116.111, 82.667 117, 83.500 117 C 84.325 117, 85 117.675, 85 118.500 C 85 119.543, 86.049 120, 88.440 120 C 91.692 120, 91.896 119.796, 92.190 116.250 C 92.480 112.743, 92.712 112.500, 95.777 112.500 C 97.579 112.500, 99.460 111.848, 99.958 111.052 C 100.548 110.108, 103.151 109.458, 107.432 109.185 C 112.156 108.884, 114 108.379, 114 107.384 C 114 106.492, 115.156 105.995, 117.250 105.986 C 122 105.966, 125 104.959, 125 103.383 C 125 102.316, 126.911 102, 133.375 102 L 141.750 102 142.375 105.125 C 142.719 106.844, 143 109.319, 143 110.625 C 143 112.673, 143.482 113, 146.500 113 C 149.333 113, 150 112.619, 150 111 C 150 109.242, 150.667 109, 155.500 109 L 161 109 161 116.500 L 161 124 164.500 124 L 168 124 168 116.500 C 168 110.500, 168.300 109, 169.500 109 C 170.325 109, 171 108.325, 171 107.500 C 171 106.675, 170.325 106, 169.500 106 C 168.667 106, 168 105.111, 168 104 C 168 102.381, 167.333 102, 164.500 102 C 161.667 102, 161 101.619, 161 100 C 161 98.394, 160.333 98, 157.617 98 C 153.726 98, 153.151 96.605, 153.806 88.750 C 154.074 85.535, 154.654 84, 155.601 84 C 156.370 84, 157 83.325, 157 82.500 C 157 81.278, 158.667 81, 166 81 C 173.333 81, 175 81.278, 175 82.500 C 175 83.700, 176.500 84, 182.500 84 L 190 84 190 87.500 C 190 89.944, 190.452 91, 191.500 91 C 192.333 91, 193 91.889, 193 93 C 193 94.333, 193.667 95, 195 95 C 196.822 95, 197 94.333, 197 87.500 C 197 80.667, 196.822 80, 195 80 C 193.889 80, 193 79.333, 193 78.500 C 193 77.310, 191.556 77, 186 77 C 180.618 77, 179 76.672, 179 75.579 C 179 73.601, 174.277 72.770, 165.216 73.153 L 157.500 73.479 157.195 68.160 C 156.928 63.500, 157.144 62.775, 158.945 62.304 C 160.075 62.009, 161 61.144, 161 60.383 C 161 59.469, 162.187 59, 164.500 59 C 166.803 59, 168 58.530, 168 57.625 C 168 56.869, 169.256 55.999, 170.790 55.692 C 174.073 55.035, 182.276 55.961, 183.010 57.071 C 183.291 57.495, 184.692 58.136, 186.124 58.495 C 188.218 59.021, 188.834 58.743, 189.270 57.074 C 189.970 54.397, 193 54.337, 193 57 C 193 58.100, 193.623 59, 194.383 59 C 195.899 59, 196.965 61.968, 196.986 66.250 C 197.005 70.013, 199.660 69.824, 200.500 66 C 200.862 64.350, 201.798 63, 202.579 63 C 203.570 63, 204 61.789, 204 59 C 204 56.261, 203.564 55, 202.617 55 C 201.856 55, 200.998 54.100, 200.710 53 C 200.423 51.900, 199.470 51, 198.594 51 C 197.717 51, 197 50.325, 197 49.500 C 197 48.278, 195.333 48, 188 48 C 180.667 48, 179 47.722, 179 46.500 C 179 45.675, 178.325 45, 177.500 45 C 176.675 45, 176 45.675, 176 46.500 C 176 47.708, 174.444 48, 168 48 C 160.783 48, 160 47.813, 160 46.083 C 160 45.029, 159.464 43.988, 158.809 43.770 C 158.108 43.536, 157.444 40.625, 157.193 36.686 L 156.767 30 152 30 C 148.029 30, 147.143 30.344, 146.695 32.059 M 107 118.500 C 107 119.333, 106.111 120, 105 120 C 103.889 120, 103 120.667, 103 121.500 C 103 122.325, 102.325 123, 101.500 123 C 100.342 123, 99.998 124.309, 99.991 128.750 C 99.977 138.218, 98.879 145, 97.361 145 C 96.612 145, 96 145.655, 96 146.455 C 96 147.325, 94.595 148.173, 92.500 148.566 C 89.967 149.041, 89 149.745, 89 151.111 C 89 152.150, 88.377 153, 87.617 153 C 85.897 153, 85.031 156.077, 85.014 162.250 C 85.003 165.799, 84.621 167, 83.500 167 C 82.675 167, 82 167.675, 82 168.500 C 82 169.325, 82.675 170, 83.500 170 C 84.333 170, 85 170.889, 85 172 C 85 173.758, 85.667 174, 90.500 174 C 95.333 174, 96 173.758, 96 172 C 96 170.667, 96.667 170, 98 170 C 99.111 170, 100 169.333, 100 168.500 C 100 167.675, 100.675 167, 101.500 167 C 102.621 167, 103.003 165.799, 103.014 162.250 C 103.034 155.079, 103.821 153.198, 107.102 152.478 C 108.696 152.128, 110 151.259, 110 150.548 C 110 149.722, 111.856 149.076, 115.135 148.761 C 118.456 148.442, 120.594 147.690, 121.185 146.634 C 121.894 145.366, 123.658 145, 129.050 145 C 134.561 145, 136 144.689, 136 143.500 C 136 142.310, 137.444 142, 143 142 L 150 142 150 155.948 L 150 169.895 144.750 170.198 L 139.500 170.500 139.198 175.750 C 138.926 180.476, 139.100 181, 140.948 181 C 142.105 181, 143 181.654, 143 182.500 C 143 183.325, 143.627 184, 144.393 184 C 145.159 184, 146.045 183.325, 146.362 182.500 C 146.678 181.675, 147.626 181, 148.469 181 C 149.793 181, 150 183.707, 150 201 C 150 217.201, 149.742 221, 148.639 221 C 146.787 221, 146.019 228.222, 146.009 245.750 C 146.001 257.746, 145.763 260, 144.500 260 C 143.452 260, 143 261.056, 143 263.500 C 143 265.944, 143.452 267, 144.500 267 C 145.333 267, 146 267.889, 146 269 C 146 270.606, 146.667 271, 149.383 271 C 153.704 271, 153.969 270.035, 153.986 254.250 C 153.998 244.034, 154.249 242, 155.500 242 C 156.325 242, 157 241.325, 157 240.500 C 157 239.477, 158.034 238.996, 160.250 238.986 C 165 238.966, 168 237.959, 168 236.383 C 168 235.436, 169.261 235, 172 235 C 174.889 235, 176 234.583, 176 233.500 C 176 232.500, 177 232, 179 232 C 181 232, 182 232.500, 182 233.500 C 182 234.548, 183.056 235, 185.500 235 C 188.833 235, 189 235.167, 189 238.500 C 189 240.944, 188.548 242, 187.500 242 C 186.667 242, 186 242.889, 186 244 C 186 245.333, 185.333 246, 184 246 C 182.900 246, 182 246.623, 182 247.383 C 182 248.899, 179.032 249.965, 174.750 249.986 C 172.978 249.995, 172 250.534, 172 251.500 C 172 252.333, 171.111 253, 170 253 C 168.242 253, 168 253.667, 168 258.500 L 168 264 171.500 264 C 173.832 264, 175 263.533, 175 262.601 C 175 261.604, 177.005 261.002, 182 260.500 C 186.995 259.998, 189 259.396, 189 258.399 C 189 257.460, 190.182 257, 192.594 257 C 195.346 257, 196.310 256.532, 196.710 255 C 197.169 253.244, 198.074 253, 204.117 253 C 209.311 253, 211 252.660, 211 251.617 C 211 250.856, 211.900 249.998, 213 249.710 C 214.100 249.423, 215 248.470, 215 247.594 C 215 246.250, 213.542 246, 205.692 246 L 196.384 246 196.814 237 C 197.188 229.188, 197.030 228, 195.622 228 C 194.730 228, 194 227.381, 194 226.625 C 194 224.683, 189.439 223.998, 176.625 224.014 C 164.260 224.029, 161 224.572, 161 226.617 C 161 227.377, 160.100 228, 159 228 C 157.161 228, 157.001 227.338, 157.014 219.750 C 157.032 208.930, 157.547 207.259, 161.102 206.478 C 162.696 206.128, 164 205.252, 164 204.532 C 164 203.812, 165.532 202.935, 167.403 202.584 C 169.275 202.233, 171.061 201.283, 171.372 200.473 C 171.809 199.335, 173.878 199, 180.469 199 C 187.385 199, 189 198.716, 189 197.500 C 189 196.300, 190.500 196, 196.500 196 L 204 196 204 201.500 L 204 207 207.500 207 L 211 207 211 198 C 211 190.432, 210.746 189, 209.406 189 C 208.530 189, 207.577 188.100, 207.290 187 C 207.002 185.900, 206.144 185, 205.383 185 C 204.436 185, 204 183.739, 204 181 C 204 178.250, 204.435 177, 205.392 177 C 206.895 177, 208.437 172.516, 207.472 170.954 C 207.147 170.429, 206.234 170, 205.441 170 C 204.648 170, 204 169.100, 204 168 C 204 166.889, 203.333 166, 202.500 166 C 199.822 166, 200.916 164.177, 204 163.500 C 205.650 163.138, 207 162.202, 207 161.421 C 207 160.639, 207.900 160, 209 160 C 210.333 160, 211 159.333, 211 158 C 211 156.667, 211.667 156, 213 156 C 214.333 156, 215 155.333, 215 154 C 215 152.900, 215.619 152, 216.375 152 C 218.032 152, 219 147.679, 219 140.281 C 219 135.654, 218.692 134.732, 217 134.290 C 215.900 134.002, 215 133.144, 215 132.383 C 215 131.473, 213.821 131, 211.550 131 C 209.303 131, 207.758 130.390, 207.121 129.250 C 206.243 127.679, 203.840 127.469, 183.572 127.197 C 164.477 126.940, 161 127.115, 161 128.330 C 161 130.240, 157.909 130.970, 149.750 130.986 C 144.423 130.997, 143 131.316, 143 132.500 C 143 133.605, 141.847 134, 138.625 134 C 132.259 134, 128 135.052, 128 136.625 C 128 137.690, 125.970 138, 119 138 L 110 138 110 132.906 C 110 128.654, 110.330 127.726, 112 127.290 C 113.100 127.002, 114 126.197, 114 125.500 C 114 124.803, 114.900 123.998, 116 123.710 C 117.100 123.423, 118 122.470, 118 121.594 C 118 120.667, 117.163 120, 116 120 C 114.889 120, 114 119.333, 114 118.500 C 114 117.452, 112.944 117, 110.500 117 C 108.056 117, 107 117.452, 107 118.500 M 161 140 C 161 141.111, 161.667 142, 162.500 142 C 163.500 142, 164 143, 164 145 C 164 147, 163.500 148, 162.500 148 C 161.271 148, 161 149.737, 161 157.630 L 161 167.261 174.616 166.799 C 185.977 166.414, 188.386 166.061, 189.166 164.669 C 189.708 163.699, 191.334 163, 193.050 163 C 195.083 163, 196 162.504, 196 161.406 C 196 160.530, 196.900 159.577, 198 159.290 C 199.100 159.002, 200 158.144, 200 157.383 C 200 156.623, 200.900 156, 202 156 C 203.333 156, 204 155.333, 204 154 C 204 152.667, 204.667 152, 206 152 C 207.111 152, 208 151.333, 208 150.500 C 208 149.675, 208.675 149, 209.500 149 C 210.548 149, 211 147.944, 211 145.500 C 211 142.964, 210.561 142, 209.406 142 C 208.530 142, 207.577 141.100, 207.290 140 C 206.786 138.074, 205.926 138, 183.883 138 C 161.667 138, 161 138.058, 161 140 M 160.566 177.500 C 160.205 179.425, 159.480 181, 158.955 181 C 158.430 181, 158 182.575, 158 184.500 C 158 186.425, 158.450 188, 159 188 C 159.550 188, 160 188.900, 160 190 C 160 191.667, 160.667 192, 164 192 C 167.333 192, 168 191.667, 168 190 C 168 188.267, 168.667 188, 173 188 C 176.778 188, 178 187.633, 178 186.500 C 178 185.302, 179.488 185, 185.389 185 L 192.777 185 193.434 181.500 C 193.827 179.405, 194.675 178, 195.545 178 C 196.345 178, 197 177.100, 197 176 C 197 174.075, 196.333 174, 179.111 174 L 161.223 174 160.566 177.500" stroke="none" fill="black" fill-rule="evenodd"/>
</svg>