<svg xmlns="http://www.w3.org/2000/svg" width="300" height="300" viewBox="0 0 300 300" version="1.1">
	<path d="M 127 40.500 C 127 41.325, 126.325 42, 125.500 42 C 124.588 42, 124 42.931, 124 44.375 C 124 48.880, 122.746 53, 121.375 53 C 120.470 53, 120 54.197, 120 56.500 C 120 58.813, 119.531 60, 118.617 60 C 116.759 60, 116.030 63.152, 116.014 71.250 L 116 78 119.455 78 C 122.611 78, 122.966 77.698, 123.566 74.500 C 123.942 72.495, 124.816 71, 125.611 71 C 126.375 71, 127 70.100, 127 69 C 127 67.381, 127.667 67, 130.500 67 C 132.813 67, 134 66.531, 134 65.616 C 134 64.621, 135.895 64.102, 140.750 63.765 C 144.463 63.507, 147.838 63.481, 148.250 63.707 C 148.662 63.933, 149 66.566, 149 69.559 C 149 73.729, 149.350 75, 150.500 75 C 151.633 75, 152 76.222, 152 80 C 152 83.778, 151.633 85, 150.500 85 C 149.667 85, 149 85.889, 149 87 C 149 88.758, 148.333 89, 143.500 89 C 139.278 89, 138 89.348, 138 90.500 C 138 91.555, 136.934 92, 134.406 92 C 131.654 92, 130.690 92.468, 130.290 94 C 129.897 95.503, 128.926 96, 126.383 96 C 124.043 96, 123 96.462, 123 97.500 C 123 98.325, 122.325 99, 121.500 99 C 120.667 99, 120 99.889, 120 101 C 120 102.333, 119.333 103, 118 103 C 116.667 103, 116 103.667, 116 105 C 116 106.111, 115.333 107, 114.500 107 C 113.675 107, 113 107.675, 113 108.500 C 113 109.325, 113.675 110, 114.500 110 C 115.333 110, 116 110.889, 116 112 C 116 113.333, 116.667 114, 118 114 C 119.333 114, 120 114.667, 120 116 C 120 118.090, 120.993 118.376, 124.750 117.370 C 127.253 116.699, 127.854 114, 125.500 114 C 124.667 114, 124 113.111, 124 112 C 124 110.889, 124.667 110, 125.500 110 C 126.325 110, 127 109.501, 127 108.891 C 127 107.113, 131.338 103.036, 133.250 103.017 C 134.213 103.008, 135 102.325, 135 101.500 C 135 100.534, 135.978 99.995, 137.750 99.986 C 139.262 99.979, 141.512 99.701, 142.750 99.370 C 144.939 98.783, 145 98.973, 145 106.383 C 145 112.166, 144.670 114, 143.630 114 C 142.746 114, 142.078 115.614, 141.747 118.549 C 141.465 121.052, 140.921 123.414, 140.537 123.799 C 140.153 124.185, 133.800 124.647, 126.420 124.827 C 116.183 125.077, 113 125.466, 113 126.466 C 113 127.187, 111.471 128.064, 109.602 128.415 C 107.067 128.891, 106.043 129.692, 105.571 131.572 C 105.223 132.958, 105.204 134.521, 105.528 135.046 C 106.197 136.127, 118.368 136.323, 125.360 135.364 C 128.302 134.961, 130 134.229, 130 133.364 C 130 132.439, 131.288 132, 134 132 C 138.304 132, 139.713 134.319, 136 135.290 C 134.330 135.726, 134 136.654, 134 140.906 C 134 144.767, 133.637 146, 132.500 146 C 131.667 146, 131 146.889, 131 148 C 131 149.100, 130.377 150, 129.617 150 C 128.041 150, 127.034 153, 127.014 157.750 C 127.005 159.921, 126.517 161, 125.545 161 C 124.675 161, 123.827 162.405, 123.434 164.500 C 123.058 166.505, 122.184 168, 121.389 168 C 120.468 168, 120 169.180, 120 171.500 C 120 174.333, 119.619 175, 118 175 C 116.667 175, 116 175.667, 116 177 C 116 178.111, 115.333 179, 114.500 179 C 113.667 179, 113 179.889, 113 181 C 113 182.111, 113.667 183, 114.500 183 C 115.325 183, 116 183.675, 116 184.500 C 116 185.583, 117.111 186, 120 186 C 122.889 186, 124 186.417, 124 187.500 C 124 188.325, 124.675 189, 125.500 189 C 126.650 189, 127 190.272, 127 194.450 C 127 198.415, 127.438 200.146, 128.606 200.799 C 129.572 201.340, 130.420 203.551, 130.736 206.349 C 131.076 209.365, 131.742 211, 132.630 211 C 133.405 211, 134 212.031, 134 213.375 C 134 217.880, 135.254 222, 136.625 222 C 137.608 222, 138 223.424, 138 227 C 138 230.639, 138.384 232, 139.412 232 C 140.280 232, 141.085 233.541, 141.500 236 C 141.882 238.260, 142.739 240, 143.471 240 C 144.184 240, 145.002 240.900, 145.290 242 C 145.751 243.763, 146.654 244, 152.906 244 C 159.333 244, 160 243.812, 160 242 C 160 240.667, 159.333 240, 158 240 C 156.667 240, 156 239.333, 156 238 C 156 236.900, 155.361 236, 154.579 236 C 153.798 236, 152.862 234.650, 152.500 233 C 152.138 231.350, 151.202 230, 150.421 230 C 149.430 230, 149 228.789, 149 226 C 149 223.261, 148.564 222, 147.617 222 C 146.101 222, 145.035 219.032, 145.014 214.750 C 145.005 213.093, 144.455 212, 143.628 212 C 142.800 212, 142.002 210.413, 141.616 208 C 141.202 205.412, 140.451 204, 139.488 204 C 138.351 204, 138 202.703, 138 198.500 C 138 194.500, 137.625 193, 136.625 193 C 135.254 193, 134 188.880, 134 184.375 C 134 182.931, 133.412 182, 132.500 182 C 131.452 182, 131 180.944, 131 178.500 C 131 175.667, 130.619 175, 129 175 C 127.381 175, 127 174.333, 127 171.500 C 127 168.667, 127.381 168, 129 168 C 130.333 168, 131 167.333, 131 166 C 131 164.900, 131.617 164, 132.371 164 C 133.261 164, 133.975 162.246, 134.406 159 C 134.860 155.576, 135.531 154, 136.534 154 C 137.533 154, 138 152.922, 138 150.617 C 138 148.074, 138.497 147.103, 140 146.710 C 141.532 146.310, 142 145.346, 142 142.594 C 142 140.066, 142.445 139, 143.500 139 C 144.548 139, 145 137.944, 145 135.500 C 145 132.667, 145.381 132, 147 132 C 148.606 132, 149 131.333, 149 128.617 C 149 126.023, 149.489 125.105, 151.095 124.686 C 152.856 124.225, 153.081 123.647, 152.510 121.047 C 151.566 116.746, 152.834 110, 154.588 110 C 155.535 110, 156 108.848, 156 106.500 C 156 104.197, 156.470 103, 157.375 103 C 158.746 103, 160 98.880, 160 94.375 C 160 92.931, 160.588 92, 161.500 92 C 162.325 92, 163 91.325, 163 90.500 C 163 89.462, 164.043 89, 166.383 89 C 168.926 89, 169.897 88.503, 170.290 87 C 170.659 85.587, 171.647 85.004, 173.656 85.014 C 179.230 85.040, 181 86.029, 181 89.117 C 181 90.912, 180.475 92, 179.609 92 C 178.550 92, 178.048 94.618, 177.500 103 C 176.952 111.382, 176.450 114, 175.391 114 C 174.291 114, 174 116.200, 174 124.500 C 174 132.742, 173.704 135, 172.625 135 C 171.052 135, 170 139.259, 170 145.625 C 170 148.847, 169.605 150, 168.500 150 C 167.348 150, 167 151.278, 167 155.500 C 167 160.333, 166.758 161, 165 161 C 163.242 161, 163 161.667, 163 166.500 C 163 170.722, 162.652 172, 161.500 172 C 160.675 172, 160 172.675, 160 173.500 C 160 174.325, 160.675 175, 161.500 175 C 162.333 175, 163 175.889, 163 177 C 163 178.605, 163.667 179, 166.375 179 C 169.355 179, 169.823 178.634, 170.375 175.875 C 170.719 174.156, 171 171.681, 171 170.375 C 171 168.931, 171.588 168, 172.500 168 C 173.690 168, 174 166.556, 174 161 C 174 155.727, 174.339 154, 175.375 154 C 176.904 154, 178 149.772, 178 143.875 C 178 141.097, 178.425 140, 179.500 140 C 180.583 140, 181 138.889, 181 136 C 181 132.120, 181.102 132, 184.389 132 C 187.470 132, 187.837 132.318, 188.434 135.500 C 189.014 138.591, 189.447 139, 192.139 139 C 194.346 139, 195.332 139.552, 195.710 141 C 195.998 142.100, 196.856 143, 197.617 143 C 198.377 143, 199 143.625, 199 144.389 C 199 145.178, 200.478 146.055, 202.428 146.420 C 205.196 146.940, 205.980 147.634, 206.507 150.032 C 206.866 151.664, 207.798 153, 208.579 153 C 209.361 153, 210 153.900, 210 155 C 210 156.333, 210.667 157, 212 157 C 213.100 157, 214 157.655, 214 158.455 C 214 159.325, 215.405 160.173, 217.500 160.566 C 220.033 161.041, 221 161.745, 221 163.111 C 221 164.150, 221.675 165, 222.500 165 C 223.325 165, 224 165.675, 224 166.500 C 224 167.333, 224.889 168, 226 168 C 227.333 168, 228 168.667, 228 170 C 228 171.619, 228.667 172, 231.500 172 C 233.944 172, 235 172.452, 235 173.500 C 235 174.652, 236.278 175, 240.500 175 L 246 175 246 171.500 C 246 168.667, 246.381 168, 248 168 C 249.593 168, 249.997 167.338, 249.986 164.750 C 249.966 160, 248.959 157, 247.383 157 C 246.623 157, 246 157.900, 246 159 C 246 160.333, 245.333 161, 244 161 C 242.381 161, 242 161.667, 242 164.500 C 242 167.710, 241.755 168, 239.045 168 C 236.460 168, 236.008 167.562, 235.434 164.500 C 234.959 161.967, 234.255 161, 232.889 161 C 231.850 161, 231 160.345, 231 159.545 C 231 158.675, 229.595 157.827, 227.500 157.434 C 225.495 157.058, 224 156.184, 224 155.389 C 224 154.625, 223.325 154, 222.500 154 C 221.667 154, 221 153.111, 221 152 C 221 150.667, 220.333 150, 219 150 C 217.667 150, 217 149.333, 217 148 C 217 146.889, 216.333 146, 215.500 146 C 214.675 146, 214 145.325, 214 144.500 C 214 143.667, 213.111 143, 212 143 C 210.667 143, 210 142.333, 210 141 C 210 139.667, 209.333 139, 208 139 C 206.889 139, 206 138.333, 206 137.500 C 206 136.675, 205.325 136, 204.500 136 C 203.667 136, 203 135.111, 203 134 C 203 132.667, 202.333 132, 201 132 C 199.667 132, 199 131.333, 199 130 C 199 128.889, 198.333 128, 197.500 128 C 196.675 128, 196 127.325, 196 126.500 C 196 125.667, 195.111 125, 194 125 C 192.667 125, 192 124.333, 192 123 C 192 121.381, 191.333 121, 188.500 121 L 185 121 185 110.500 C 185 101.833, 185.262 100, 186.500 100 C 187.412 100, 188 99.069, 188 97.625 C 188 93.120, 189.254 89, 190.625 89 C 191.625 89, 192 87.500, 192 83.500 L 192 78 196 78 C 198.739 78, 200 77.564, 200 76.617 C 200 75.101, 202.968 74.035, 207.250 74.014 C 209.022 74.005, 210 73.466, 210 72.500 C 210 71.452, 211.056 71, 213.500 71 C 215.944 71, 217 70.548, 217 69.500 C 217 67.857, 220.629 67.402, 221.167 68.977 C 221.350 69.515, 222.963 70.246, 224.750 70.602 C 227.600 71.170, 228 70.989, 228 69.125 C 228 67.667, 228.627 67, 230 67 C 231.619 67, 232 66.333, 232 63.500 L 232 60 221 60 C 210.667 60, 210 60.121, 210 62 C 210 63.333, 209.333 64, 208 64 C 206.889 64, 206 64.667, 206 65.500 C 206 66.637, 204.767 67, 200.906 67 C 196.654 67, 195.726 67.330, 195.290 69 C 194.402 72.393, 192 71.383, 192 67.617 C 192 65.074, 192.497 64.103, 194 63.710 C 195.100 63.423, 196 62.470, 196 61.594 C 196 60.348, 197.092 60, 201 60 C 204.590 60, 206 59.610, 206 58.617 C 206 56.759, 202.848 56.030, 194.750 56.014 C 189.423 56.003, 188 55.684, 188 54.500 C 188 51.451, 185.208 53.077, 184.566 56.500 C 184.173 58.595, 183.325 60, 182.455 60 C 181.323 60, 181 61.527, 181 66.889 L 181 73.777 177.500 74.434 C 175.405 74.827, 174 75.675, 174 76.545 C 174 77.642, 172.646 78, 168.500 78 C 164.278 78, 163 78.348, 163 79.500 C 163 80.325, 162.325 81, 161.500 81 C 160.247 81, 160 78.944, 160 68.500 C 160 56.667, 159.893 56, 158 56 C 156.889 56, 156 55.333, 156 54.500 C 156 53.258, 154.111 53, 145 53 L 134 53 134 46 L 134 39 130.500 39 C 128.056 39, 127 39.452, 127 40.500 M 228 43.500 C 228 44.333, 227.111 45, 226 45 C 224.333 45, 224 45.667, 224 49 C 224 52.905, 224.083 53, 227.500 53 C 230.036 53, 231 53.439, 231 54.594 C 231 55.470, 231.900 56.423, 233 56.710 C 234.100 56.998, 235 57.856, 235 58.617 C 235 59.531, 236.187 60, 238.500 60 C 242.442 60, 242.394 59.824, 242.466 74.500 L 242.500 81.500 245.372 81.295 C 246.951 81.182, 248.526 80.809, 248.872 80.464 C 249.217 80.120, 249.652 74.668, 249.838 68.349 C 250.160 57.397, 250.078 56.833, 248.088 56.313 C 246.903 56.003, 246 54.952, 246 53.883 C 246 52.848, 245.325 52, 244.500 52 C 243.675 52, 243 51.325, 243 50.500 C 243 49.667, 242.111 49, 241 49 C 239.900 49, 239 48.375, 239 47.611 C 239 46.816, 237.505 45.942, 235.500 45.566 C 233.405 45.173, 232 44.325, 232 43.455 C 232 42.655, 231.100 42, 230 42 C 228.889 42, 228 42.667, 228 43.500 M 66 89 C 66 98.111, 66.258 100, 67.500 100 C 68.714 100, 69 101.598, 69 108.383 C 69 117.562, 68.706 117.952, 61.750 117.986 C 59.978 117.995, 59 118.534, 59 119.500 C 59 120.652, 57.722 121, 53.500 121 C 48.667 121, 48 121.242, 48 123 C 48 124.810, 47.333 125, 41 125 C 35.444 125, 34 125.310, 34 126.500 C 34 127.555, 32.934 128, 30.406 128 C 27.654 128, 26.690 128.468, 26.290 130 C 26 131.107, 24.926 132, 23.883 132 C 22.848 132, 22 132.627, 22 133.393 C 22 134.159, 21.325 135.045, 20.500 135.362 C 18.136 136.269, 18.750 138.719, 21.472 139.239 C 25.868 140.080, 34 138.868, 34 137.373 C 34 136.545, 35.092 135.995, 36.750 135.986 C 41.032 135.965, 44 134.899, 44 133.383 C 44 132.373, 45.484 132, 49.500 132 C 53.516 132, 55 131.627, 55 130.616 C 55 129.652, 56.962 129.023, 61.472 128.540 C 65.031 128.159, 68.337 128.090, 68.817 128.387 C 69.852 129.026, 70.403 161.547, 69.444 165.367 C 69.081 166.815, 68.157 168, 67.392 168 C 66.626 168, 66 168.655, 66 169.455 C 66 170.325, 64.595 171.173, 62.500 171.566 C 60.495 171.942, 59 172.816, 59 173.611 C 59 174.375, 58.283 175, 57.406 175 C 56.530 175, 55.577 175.900, 55.290 177 C 55 178.107, 53.926 179, 52.883 179 C 51.848 179, 51 179.639, 51 180.421 C 51 181.202, 49.650 182.138, 48 182.500 C 46.350 182.862, 45 183.798, 45 184.579 C 45 185.361, 44.100 186, 43 186 C 41.667 186, 41 186.667, 41 188 C 41 189.333, 40.333 190, 39 190 C 37.889 190, 37 190.667, 37 191.500 C 37 192.325, 36.325 193, 35.500 193 C 34.667 193, 34 193.889, 34 195 C 34 196.333, 33.333 197, 32 197 C 30.190 197, 30 197.667, 30 204 L 30 211 33.450 211 C 35.677 211, 37.266 211.621, 37.932 212.750 C 39.597 215.574, 40.967 212.432, 40.985 205.750 C 40.996 201.456, 41.360 200, 42.421 200 C 43.202 200, 44.131 198.679, 44.486 197.065 C 44.970 194.861, 45.861 193.970, 48.065 193.486 C 49.736 193.119, 51 192.189, 51 191.327 C 51 190.494, 51.900 189.577, 53 189.290 C 54.100 189.002, 55 188.144, 55 187.383 C 55 186.623, 55.900 186, 57 186 C 58.100 186, 59 185.345, 59 184.545 C 59 183.675, 60.405 182.827, 62.500 182.434 C 64.505 182.058, 66 181.184, 66 180.389 C 66 179.625, 66.900 179, 68 179 C 69.619 179, 70 179.667, 70 182.500 C 70 184.944, 70.452 186, 71.500 186 C 72.652 186, 73 187.278, 73 191.500 C 73 195.722, 72.652 197, 71.500 197 C 70.667 197, 70 197.889, 70 199 C 70 200.111, 70.667 201, 71.500 201 C 72.690 201, 73 202.444, 73 208 C 73 213.556, 72.690 215, 71.500 215 C 70.675 215, 70 215.675, 70 216.500 C 70 217.325, 70.675 218, 71.500 218 C 72.742 218, 73 219.889, 73 229 C 73 237.647, 72.707 240, 71.630 240 C 70.109 240, 68.928 247.173, 69.745 251.448 C 70.154 253.585, 70.783 254, 73.617 254 C 76.333 254, 77 253.606, 77 252 C 77 250.889, 77.667 250, 78.500 250 C 80.216 250, 80.112 253.131, 80.001 204.666 C 79.927 172.443, 79.964 171.822, 81.963 171.299 C 83.394 170.925, 84 169.943, 84 167.995 C 84 165.618, 84.500 165.129, 87.500 164.566 C 89.437 164.203, 91 163.310, 91 162.566 C 91 161.822, 92.563 160.929, 94.500 160.566 C 96.595 160.173, 98 159.325, 98 158.455 C 98 157.655, 98.900 157, 100 157 C 101.111 157, 102 156.333, 102 155.500 C 102 154.667, 102.889 154, 104 154 C 105.333 154, 106 153.333, 106 152 C 106 150.381, 106.667 150, 109.500 150 C 111.944 150, 113 149.548, 113 148.500 C 113 147.675, 113.675 147, 114.500 147 C 115.333 147, 116 146.111, 116 145 C 116 143.242, 115.333 143, 110.500 143 C 106.354 143, 105 143.358, 105 144.455 C 105 145.325, 103.595 146.173, 101.500 146.566 C 99.495 146.942, 98 147.816, 98 148.611 C 98 149.375, 97.100 150, 96 150 C 94.900 150, 94 150.639, 94 151.421 C 94 152.202, 92.650 153.138, 91 153.500 C 89.350 153.862, 88 154.746, 88 155.463 C 88 157.043, 83.523 158.036, 79.750 157.292 L 77 156.750 77 142.875 C 77 131.592, 77.264 129, 78.412 129 C 79.280 129, 80.085 127.459, 80.500 125 L 81.176 121 89.588 121 C 96.099 121, 98 120.686, 98 119.611 C 98 118.816, 99.495 117.942, 101.500 117.566 C 104.950 116.919, 106.587 114, 103.500 114 C 102.667 114, 102 113.111, 102 112 C 102 110.227, 101.333 110, 96.125 110 C 88.342 110, 84 110.940, 84 112.625 C 84 113.530, 82.803 114, 80.500 114 L 77 114 77 103.545 L 77 93.091 80.500 92.434 C 83.033 91.959, 84 91.255, 84 89.889 C 84 88.850, 83.325 88, 82.500 88 C 81.675 88, 81 87.325, 81 86.500 C 81 85.667, 80.111 85, 79 85 C 77.381 85, 77 84.333, 77 81.500 L 77 78 71.500 78 L 66 78 66 89 M 174 194.500 C 174 195.325, 173.352 196, 172.559 196 C 171.766 196, 170.868 196.404, 170.563 196.897 C 169.591 198.470, 171.196 204, 172.625 204 C 173.381 204, 174 204.900, 174 206 C 174 207.333, 174.667 208, 176 208 C 177.619 208, 178 208.667, 178 211.500 C 178 213.944, 178.452 215, 179.500 215 C 180.325 215, 181 215.717, 181 216.594 C 181 217.470, 181.900 218.423, 183 218.710 C 184.100 218.998, 185 219.856, 185 220.617 C 185 221.377, 185.625 222, 186.389 222 C 187.178 222, 188.055 223.478, 188.420 225.428 C 188.940 228.196, 189.634 228.980, 192.032 229.507 C 193.664 229.866, 195 230.798, 195 231.579 C 195 232.635, 196.415 233, 200.500 233 L 206 233 206 229.611 C 206 226.530, 205.682 226.163, 202.500 225.566 C 200.405 225.173, 199 224.325, 199 223.455 C 199 222.655, 198.325 222, 197.500 222 C 196.675 222, 196 221.283, 196 220.406 C 196 219.530, 195.100 218.577, 194 218.290 C 192.497 217.897, 192 216.926, 192 214.383 C 192 211.667, 191.606 211, 190 211 C 188.381 211, 188 210.333, 188 207.500 C 188 205.056, 187.548 204, 186.500 204 C 185.667 204, 185 203.111, 185 202 C 185 200.889, 184.333 200, 183.500 200 C 182.675 200, 182 199.283, 182 198.406 C 182 197.530, 181.100 196.577, 180 196.290 C 178.900 196.002, 178 195.144, 178 194.383 C 178 193.623, 177.100 193, 176 193 C 174.889 193, 174 193.667, 174 194.500 M 264 195 C 264 196.111, 263.333 197, 262.500 197 C 261.452 197, 261 198.056, 261 200.500 C 261 202.944, 261.452 204, 262.500 204 C 263.548 204, 264 205.056, 264 207.500 C 264 209.803, 264.470 211, 265.375 211 C 266.746 211, 268 215.120, 268 219.625 C 268 220.992, 268.593 222, 269.397 222 C 270.501 222, 270.868 224.657, 271.147 234.667 C 271.389 243.333, 271.878 247.459, 272.696 247.732 C 273.375 247.958, 274.187 251.129, 274.575 255.065 L 275.258 262 278.629 262 L 282 262 282 244 C 282 228.667, 281.778 226, 280.500 226 C 279.395 226, 279 224.847, 279 221.625 C 279 215.431, 277.960 211, 276.505 211 C 275.765 211, 275.047 209.112, 274.736 206.349 C 274.420 203.551, 273.572 201.340, 272.606 200.799 C 271.615 200.245, 271 198.579, 271 196.450 C 271 193.174, 270.824 193, 267.500 193 C 264.667 193, 264 193.381, 264 195 M 220.780 201.250 C 220.147 207.521, 221.042 214, 222.542 214 C 223.259 214, 224.122 215.765, 224.500 218 C 224.915 220.459, 225.720 222, 226.588 222 C 227.633 222, 228 223.430, 228 227.500 C 228 231.516, 228.373 233, 229.383 233 C 230.144 233, 231.002 233.900, 231.290 235 C 231.834 237.080, 235.117 237.611, 239.750 236.370 C 242.253 235.699, 242.854 233, 240.500 233 C 239.667 233, 239 232.111, 239 231 C 239 229.900, 238.377 229, 237.617 229 C 235.790 229, 235.030 225.865, 235.014 218.250 C 235.003 213.367, 234.672 212, 233.500 212 C 232.477 212, 231.996 210.966, 231.986 208.750 C 231.966 204, 230.959 201, 229.383 201 C 228.623 201, 228 200.100, 228 199 C 228 197.393, 227.333 197, 224.605 197 C 221.345 197, 221.193 197.169, 220.780 201.250" stroke="none" fill="black" fill-rule="evenodd"/>
</svg>