<svg xmlns="http://www.w3.org/2000/svg" width="300" height="300" viewBox="0 0 300 300" version="1.1">
	<path d="M 154.750 45.724 C 150.566 45.997, 149 46.495, 149 47.550 C 149 48.641, 147.638 49, 143.500 49 L 138 49 138 54.500 L 138 60 141.500 60 C 143.881 60, 145 60.461, 145 61.441 C 145 63.489, 146.510 64.161, 149.454 63.422 C 151.432 62.926, 152 62.152, 152 59.951 C 152 56.541, 153.072 55.729, 156.454 56.578 C 158.874 57.185, 159 57.558, 159 64.108 C 159 69.568, 158.688 71, 157.500 71 C 156.675 71, 156 71.675, 156 72.500 C 156 73.325, 156.675 74, 157.500 74 C 158.687 74, 159 75.428, 159 80.853 C 159 92.011, 160.103 100, 161.642 100 C 162.601 100, 163 101.438, 163 104.889 C 163 109.684, 162.933 109.790, 159.500 110.434 C 157.405 110.827, 156 111.675, 156 112.545 C 156 113.345, 155.100 114, 154 114 C 152.381 114, 152 114.667, 152 117.500 L 152 121 161 121 C 168.333 121, 170 120.722, 170 119.500 C 170 118.667, 170.889 118, 172 118 C 173.333 118, 174 117.333, 174 116 C 174 114.381, 174.667 114, 177.500 114 C 179.813 114, 181 113.531, 181 112.617 C 181 111.856, 181.900 110.998, 183 110.710 C 184.100 110.423, 185 109.470, 185 108.594 C 185 107.439, 185.964 107, 188.500 107 C 191.333 107, 192 106.619, 192 105 C 192 103.381, 192.667 103, 195.500 103 C 197.944 103, 199 102.548, 199 101.500 C 199 100.452, 200.056 100, 202.500 100 C 205.333 100, 206 99.619, 206 98 C 206 96.394, 206.667 96, 209.383 96 C 211.926 96, 212.897 95.503, 213.290 94 C 213.934 91.535, 216.831 91.371, 217.708 93.750 C 218.064 94.713, 218.837 95.820, 219.427 96.212 C 220.090 96.651, 220.622 102.858, 220.820 112.462 C 221.081 125.117, 221.406 128, 222.570 128 C 223.643 128, 224.002 129.435, 224.009 133.750 C 224.023 143.218, 225.121 150, 226.639 150 C 227.686 150, 228 152.076, 228 159 C 228 165.895, 228.316 168, 229.352 168 C 230.918 168, 231.984 178.590, 231.994 194.250 C 231.999 202.247, 232.270 204, 233.500 204 C 234.787 204, 235 207.056, 235 225.500 C 235 243.944, 234.787 247, 233.500 247 C 232.675 247, 232 246.325, 232 245.500 C 232 244.667, 231.111 244, 230 244 C 228.667 244, 228 243.333, 228 242 C 228 240.381, 227.333 240, 224.500 240 C 221.667 240, 221 239.619, 221 238 C 221 236.667, 220.333 236, 219 236 C 217.889 236, 217 235.333, 217 234.500 C 217 233.675, 216.325 233, 215.500 233 C 214.667 233, 214 232.111, 214 231 C 214 229.667, 213.333 229, 212 229 C 210.889 229, 210 228.333, 210 227.500 C 210 226.675, 209.283 226, 208.406 226 C 207.530 226, 206.577 225.100, 206.290 224 C 206.002 222.900, 205.144 222, 204.383 222 C 203.623 222, 203 221.100, 203 220 C 203 218.900, 202.345 218, 201.545 218 C 200.675 218, 199.827 216.595, 199.434 214.500 C 199.073 212.575, 198.203 211, 197.500 211 C 196.797 211, 195.927 209.425, 195.566 207.500 C 195.173 205.405, 194.325 204, 193.455 204 C 192.468 204, 192 202.911, 192 200.617 C 192 198.074, 191.503 197.103, 190 196.710 C 188.544 196.329, 188 195.346, 188 193.094 C 188 191.010, 187.510 190, 186.500 190 C 185.300 190, 185 188.500, 185 182.500 C 185 176.604, 184.689 175, 183.545 175 C 182.675 175, 181.827 173.595, 181.434 171.500 C 181.058 169.495, 180.184 168, 179.389 168 C 178.625 168, 178 167.100, 178 166 C 178 164.667, 177.333 164, 176 164 C 174.889 164, 174 163.333, 174 162.500 C 174 161.452, 172.944 161, 170.500 161 C 167.667 161, 167 160.619, 167 159 C 167 157.148, 166.333 157, 158 157 C 150.667 157, 149 156.722, 149 155.500 C 149 154.342, 147.691 153.998, 143.250 153.991 C 140.088 153.987, 135.137 153.699, 132.250 153.352 C 127.341 152.762, 127 152.543, 127 149.969 C 127 146.893, 123.923 145.479, 119.594 146.566 C 116.722 147.287, 116.032 149.442, 116.014 157.750 C 116.003 162.633, 115.672 164, 114.500 164 C 113.300 164, 113 165.500, 113 171.500 C 113 177.500, 113.300 179, 114.500 179 C 115.767 179, 116.002 181.367, 116.014 194.250 C 116.028 210.675, 116.467 214, 118.617 214 C 119.564 214, 120 215.261, 120 218 C 120 220.739, 120.436 222, 121.383 222 C 122.648 222, 123.953 224.827, 123.986 227.639 C 123.994 228.265, 122.425 229.073, 120.500 229.434 C 118.405 229.827, 117 230.675, 117 231.545 C 117 232.345, 116.100 233, 115 233 C 113.381 233, 113 233.667, 113 236.500 L 113 240 122 240 C 128.996 240, 131 239.692, 131 238.617 C 131 237.856, 131.900 236.998, 133 236.710 C 134.100 236.423, 135 235.470, 135 234.594 C 135 233.348, 136.092 233, 140 233 C 144.333 233, 145 232.733, 145 231 C 145 229.667, 145.667 229, 147 229 C 148.111 229, 149 228.333, 149 227.500 C 149 226.363, 150.233 226, 154.094 226 C 158.346 226, 159.274 225.670, 159.710 224 C 160.596 220.611, 163 221.616, 163 225.375 C 163 228.259, 163.400 228.829, 165.750 229.292 C 170.149 230.159, 174 229.035, 174 226.883 C 174 225.848, 174.655 225, 175.455 225 C 176.325 225, 177.173 223.595, 177.566 221.500 C 178.136 218.459, 178.602 218, 181.111 218 C 183.012 218, 184 217.487, 184 216.500 C 184 215.417, 185.111 215, 188 215 C 191.333 215, 192 215.333, 192 217 C 192 218.100, 192.639 219, 193.421 219 C 194.202 219, 195.138 220.350, 195.500 222 C 195.862 223.650, 196.798 225, 197.579 225 C 198.361 225, 199 225.900, 199 227 C 199 228.333, 199.667 229, 201 229 C 202.333 229, 203 229.667, 203 231 C 203 232.111, 203.667 233, 204.500 233 C 205.325 233, 206 233.717, 206 234.594 C 206 235.470, 206.900 236.423, 208 236.710 C 209.100 236.998, 210 237.856, 210 238.617 C 210 239.377, 210.900 240, 212 240 C 213.333 240, 214 240.667, 214 242 C 214 243.111, 214.667 244, 215.500 244 C 216.325 244, 217 244.675, 217 245.500 C 217 246.333, 217.889 247, 219 247 C 220.333 247, 221 247.667, 221 249 C 221 250.111, 221.667 251, 222.500 251 C 223.325 251, 224 251.675, 224 252.500 C 224 253.548, 225.056 254, 227.500 254 C 229.944 254, 231 253.548, 231 252.500 C 231 251.667, 231.889 251, 233 251 C 234.100 251, 235 251.619, 235 252.375 C 235 253.804, 240.530 255.409, 242.103 254.437 C 242.596 254.132, 243 253.234, 243 252.441 C 243 251.648, 243.675 251, 244.500 251 C 245.333 251, 246 250.111, 246 249 C 246 247.889, 245.333 247, 244.500 247 C 243.667 247, 243 246.111, 243 245 C 243 243.889, 243.667 243, 244.500 243 C 245.738 243, 246 241.167, 246 232.500 C 246 224.359, 245.697 222, 244.652 222 C 243.234 222, 242 208.665, 242 193.344 C 242 187.483, 241.697 186, 240.500 186 C 239.236 186, 239 183.722, 239 171.500 C 239 159.937, 238.724 157, 237.639 157 C 236.042 157, 235.022 150.119, 235.009 139.250 C 235.002 133.476, 234.695 132, 233.500 132 C 232.305 132, 231.998 130.524, 231.991 124.750 C 231.978 113.881, 230.958 107, 229.361 107 C 228.276 107, 228 104.063, 228 92.500 C 228 80.638, 228.258 78, 229.421 78 C 231.170 78, 232.334 73.180, 231.443 69.628 C 231.080 68.183, 230.157 67, 229.392 67 C 228.468 67, 228 65.823, 228 63.500 C 228 61.187, 227.531 60, 226.617 60 C 225.856 60, 224.998 59.100, 224.710 58 C 224.423 56.900, 223.470 56, 222.594 56 C 221.651 56, 221 55.158, 221 53.940 C 221 52.170, 220.470 51.923, 217.250 52.190 C 214.238 52.439, 213.437 52.943, 213.180 54.750 C 213.005 55.987, 212.217 57, 211.430 57 C 210.462 57, 210 58.131, 210 60.500 C 210 62.803, 210.470 64, 211.375 64 C 213.150 64, 214 68.411, 214 77.625 C 214 84.333, 213.819 85, 212 85 C 210.667 85, 210 85.667, 210 87 C 210 88.619, 209.333 89, 206.500 89 C 204.056 89, 203 89.452, 203 90.500 C 203 91.333, 202.111 92, 201 92 C 199.667 92, 199 92.667, 199 94 C 199 95.810, 198.333 96, 192 96 C 186.444 96, 185 96.310, 185 97.500 C 185 99.854, 182.301 99.253, 181.630 96.750 C 181.299 95.513, 181.021 92.362, 181.014 89.750 L 181 85 174 85 L 167 85 167 78 C 167 72.444, 167.310 71, 168.500 71 C 169.652 71, 170 69.722, 170 65.500 L 170 60 179.500 60 C 187.278 60, 189 60.272, 189 61.500 C 189 62.325, 189.675 63, 190.500 63 C 191.325 63, 192 62.325, 192 61.500 C 192 60.452, 193.056 60, 195.500 60 C 198.810 60, 199 59.817, 199 56.617 C 199 54.074, 198.503 53.103, 197 52.710 C 195.900 52.423, 195 51.470, 195 50.594 C 195 49.348, 193.908 49, 190 49 C 186.383 49, 185 48.613, 185 47.601 C 185 45.587, 170.557 44.691, 154.750 45.724 M 77 65.500 C 77 66.621, 75.799 67.003, 72.250 67.014 C 65.079 67.034, 63.198 67.821, 62.478 71.102 C 62.128 72.696, 61.252 74, 60.532 74 C 59.530 74, 59.134 77.416, 58.846 88.546 C 58.549 100.037, 58.158 103.284, 56.985 104.009 C 55.704 104.800, 55.460 113.161, 55.206 164.963 L 54.912 225 58.456 225 C 60.940 225, 62 224.551, 62 223.500 C 62 222.463, 63.042 222, 65.375 222 C 68.355 222, 68.823 221.634, 69.375 218.875 C 69.719 217.156, 70 214.681, 70 213.375 C 70 212.011, 70.593 211, 71.394 211 C 72.439 211, 72.879 209.007, 73.150 203.039 C 73.438 196.699, 73.891 194.800, 75.374 193.716 C 76.974 192.546, 77.182 191.283, 76.852 184.744 C 76.325 174.298, 74.271 172.419, 73.253 181.451 C 72.922 184.386, 72.254 186, 71.370 186 C 70.446 186, 70 187.261, 70 189.875 C 70 195.772, 68.904 200, 67.375 200 C 66.438 200, 66 201.273, 66 204 C 66 206.889, 65.583 208, 64.500 208 C 63.197 208, 63 203.667, 63 175 C 63 146.333, 63.197 142, 64.500 142 C 65.633 142, 66 140.778, 66 137 L 66 132 71.500 132 C 75.722 132, 77 131.652, 77 130.500 C 77 129.588, 77.931 129, 79.375 129 C 83.880 129, 88 127.746, 88 126.375 C 88 125.470, 89.197 125, 91.500 125 C 93.813 125, 95 124.531, 95 123.617 C 95 121.682, 98.196 121.029, 107.750 121.014 C 114.411 121.003, 116 120.711, 116 119.500 C 116 118.667, 116.889 118, 118 118 C 119.333 118, 120 117.333, 120 116 C 120 114.381, 120.667 114, 123.500 114 C 125.813 114, 127 113.531, 127 112.617 C 127 111.856, 127.900 110.998, 129 110.710 C 130.100 110.423, 131 109.470, 131 108.594 C 131 107.277, 129.696 107, 123.500 107 C 117.500 107, 116 106.700, 116 105.500 C 116 104.675, 115.325 104, 114.500 104 C 113.352 104, 113 102.735, 113 98.617 C 113 94.074, 112.688 93.152, 111 92.710 C 109.468 92.310, 109 91.346, 109 88.594 C 109 86.066, 108.555 85, 107.500 85 C 106.675 85, 106 84.283, 106 83.406 C 106 82.530, 105.100 81.577, 104 81.290 C 102.583 80.919, 102 79.926, 102 77.883 C 102 75.912, 101.496 75, 100.406 75 C 99.530 75, 98.577 74.100, 98.290 73 C 97.999 71.888, 96.926 71, 95.874 71 C 94.832 71, 93.210 70.100, 92.268 69 C 91.326 67.900, 89.981 67, 89.278 67 C 88.575 67, 88 66.325, 88 65.500 C 88 64.348, 86.722 64, 82.500 64 C 78.278 64, 77 64.348, 77 65.500 M 73.434 78.500 C 73.058 80.505, 72.184 82, 71.389 82 C 70.389 82, 70 83.400, 70 87 C 70 90.778, 70.367 92, 71.500 92 C 72.583 92, 73 93.111, 73 96 C 73 98.993, 72.599 100, 71.406 100 C 70.530 100, 69.577 99.100, 69.290 98 C 69.002 96.900, 68.144 96, 67.383 96 C 66.279 96, 66 98.524, 66 108.500 L 66 121 69.500 121 C 71.848 121, 73 120.535, 73 119.588 C 73 118.720, 74.541 117.915, 77 117.500 C 79.459 117.085, 81 116.280, 81 115.412 C 81 114.635, 81.675 114, 82.500 114 C 83.548 114, 84 112.944, 84 110.500 C 84 108.056, 84.452 107, 85.500 107 C 86.325 107, 87 106.325, 87 105.500 C 87 104.675, 86.325 104, 85.500 104 C 84.567 104, 84 103.056, 84 101.500 C 84 99.944, 83.433 99, 82.500 99 C 81.675 99, 81 98.325, 81 97.500 C 81 96.667, 80.111 96, 79 96 C 77.381 96, 77 95.333, 77 92.500 C 77 90.187, 77.469 89, 78.383 89 C 79.144 89, 80.002 88.100, 80.290 87 C 80.577 85.900, 81.530 85, 82.406 85 C 83.333 85, 84 85.837, 84 87 C 84 88.619, 84.667 89, 87.500 89 C 90.833 89, 91 89.167, 91 92.500 C 91 95.333, 91.381 96, 93 96 C 94.667 96, 95 96.667, 95 100 C 95 102.889, 95.417 104, 96.500 104 C 97.325 104, 98 104.450, 98 105 C 98 105.550, 97.325 106, 96.500 106 C 95.417 106, 95 107.111, 95 110 L 95 114 99.912 114 L 104.824 114 105.496 110.022 C 106.337 105.044, 105.293 100, 103.421 100 C 102.473 100, 102 98.873, 102 96.617 C 102 94.074, 101.503 93.103, 100 92.710 C 98.803 92.397, 98 91.346, 98 90.094 C 98 88.899, 97.356 88, 96.500 88 C 95.675 88, 95 87.325, 95 86.500 C 95 85.667, 94.111 85, 93 85 C 91.667 85, 91 84.333, 91 83 C 91 81.889, 90.333 81, 89.500 81 C 88.675 81, 88 80.325, 88 79.500 C 88 78.667, 87.111 78, 86 78 C 84.889 78, 84 77.333, 84 76.500 C 84 75.368, 82.783 75, 79.045 75 C 74.175 75, 74.080 75.059, 73.434 78.500 M 138 162.500 C 138 163.466, 137.022 164.005, 135.250 164.014 C 131.043 164.035, 128 165.092, 128 166.533 C 128 167.248, 128.507 168.002, 129.127 168.209 C 129.747 168.416, 130.479 170.928, 130.754 173.792 C 131.215 178.594, 131.089 179, 129.127 179 C 127.667 179, 127 178.373, 127 177 C 127 175.889, 126.333 175, 125.500 175 C 124.236 175, 124 177.278, 124 189.500 C 124 201.722, 124.236 204, 125.500 204 C 126.621 204, 127.003 205.201, 127.014 208.750 C 127.031 214.923, 127.897 218, 129.617 218 C 130.377 218, 131 218.900, 131 220 C 131 221.100, 131.623 222, 132.383 222 C 133.144 222, 134.002 221.100, 134.290 220 C 134.577 218.900, 135.530 218, 136.406 218 C 137.333 218, 138 218.837, 138 220 C 138 221.667, 138.667 222, 142 222 C 144.739 222, 146 221.564, 146 220.617 C 146 218.940, 149.053 218.032, 154.750 218.014 C 157.855 218.004, 159 217.596, 159 216.500 C 159 215.348, 160.278 215, 164.500 215 C 169.333 215, 170 214.758, 170 213 C 170 211.667, 170.667 211, 172 211 C 173.822 211, 174 210.333, 174 203.500 C 174 197.500, 174.300 196, 175.500 196 C 176.548 196, 177 194.944, 177 192.500 C 177 190.056, 176.548 189, 175.500 189 C 174.310 189, 174 187.556, 174 182 C 174 176.707, 173.663 175, 172.617 175 C 171.856 175, 170.998 174.100, 170.710 173 C 170.423 171.900, 169.470 171, 168.594 171 C 167.717 171, 167 170.325, 167 169.500 C 167 168.452, 165.944 168, 163.500 168 C 161.197 168, 160 167.530, 160 166.625 C 160 164.908, 155.634 164, 147.375 164 C 142.375 164, 141 163.676, 141 162.500 C 141 161.675, 140.325 161, 139.500 161 C 138.675 161, 138 161.675, 138 162.500 M 138 180.500 C 138 181.333, 137.111 182, 136 182 C 134.667 182, 134 182.667, 134 184 C 134 185.111, 133.333 186, 132.500 186 C 131.452 186, 131 187.056, 131 189.500 C 131 192.833, 131.167 193, 134.500 193 C 137.333 193, 138 193.381, 138 195 C 138 196.333, 138.667 197, 140 197 C 141.111 197, 142 197.667, 142 198.500 C 142 199.325, 142.675 200, 143.500 200 C 144.633 200, 145 198.778, 145 195 L 145 190 150.500 190 C 154.722 190, 156 190.348, 156 191.500 C 156 192.325, 156.675 193, 157.500 193 C 158.583 193, 159 194.111, 159 197 C 159 199.889, 158.583 201, 157.500 201 C 156.348 201, 156 202.278, 156 206.500 C 156 210.866, 156.329 212, 157.594 212 C 158.470 212, 159.423 211.100, 159.710 210 C 159.998 208.900, 160.856 208, 161.617 208 C 162.564 208, 163 206.739, 163 204 C 163 200.667, 163.333 200, 165 200 C 166.727 200, 167 199.333, 167 195.117 C 167 191.074, 166.656 190.143, 165 189.710 C 163.468 189.310, 163 188.346, 163 185.594 C 163 182.667, 162.629 182, 161 182 C 159.889 182, 159 181.333, 159 180.500 C 159 179.262, 157.167 179, 148.500 179 C 139.833 179, 138 179.262, 138 180.500" stroke="none" fill="black" fill-rule="evenodd"/>
</svg>