<svg xmlns="http://www.w3.org/2000/svg" width="300" height="300" viewBox="0 0 300 300" version="1.1">
	<path d="M 112.750 45.728 C 110.525 45.961, 109 46.653, 109 47.430 C 109 48.243, 107.273 48.935, 104.451 49.253 C 101.948 49.535, 99.589 50.078, 99.207 50.459 C 98.826 50.841, 98.510 53.931, 98.507 57.327 L 98.500 63.500 101.826 63.819 C 104.494 64.075, 105.258 63.729, 105.692 62.069 C 105.998 60.901, 107.053 60, 108.117 60 C 109.152 60, 110 59.325, 110 58.500 C 110 56.189, 111.693 56.725, 112.370 59.250 C 113.320 62.797, 113.112 64, 111.545 64 C 109.184 64, 108.859 68.862, 109.189 99.288 C 109.420 120.688, 109.815 128.270, 110.728 128.833 C 111.453 129.280, 112.231 133.162, 112.626 138.296 C 113.094 144.387, 113.682 147, 114.584 147 C 115.308 147, 116.011 148.426, 116.187 150.250 C 116.476 153.251, 116.803 153.525, 120.456 153.823 C 122.632 154, 125.953 153.856, 127.837 153.503 L 131.262 152.860 130.666 147.827 C 130.141 143.393, 130.303 142.733, 132.035 142.281 C 133.116 141.998, 134 141.144, 134 140.383 C 134 139.469, 135.187 139, 137.500 139 C 139.944 139, 141 138.548, 141 137.500 C 141 136.278, 142.667 136, 150 136 C 157.278 136, 159.024 136.287, 159.125 137.500 C 159.194 138.325, 159.306 142.105, 159.375 145.899 L 159.500 152.798 153.750 153.449 C 149.692 153.908, 148 154.526, 148 155.550 C 148 156.679, 146.449 157, 141 157 C 135.727 157, 134 157.339, 134 158.375 C 134 159.904, 129.772 161, 123.875 161 C 121.097 161, 120 161.425, 120 162.500 C 120 163.605, 118.847 164, 115.625 164 C 109.259 164, 105 165.052, 105 166.625 C 105 167.684, 103.045 168, 96.500 168 C 89.885 168, 88 168.310, 88 169.399 C 88 170.396, 85.995 170.998, 81 171.500 C 76.005 172.002, 74 172.604, 74 173.601 C 74 174.626, 72.562 175, 68.617 175 C 64.074 175, 63.152 175.312, 62.710 177 C 62.310 178.532, 61.346 179, 58.594 179 L 55 179 55 184.500 L 55 190 62 190 C 67.556 190, 69 190.310, 69 191.500 C 69 192.333, 69.889 193, 71 193 C 72.129 193, 73 192.333, 73 191.469 C 73 190.626, 73.648 189.689, 74.439 189.385 C 75.230 189.081, 76.163 187.535, 76.511 185.948 C 77.018 183.641, 77.832 182.935, 80.572 182.420 C 82.522 182.055, 84 181.178, 84 180.389 C 84 179.337, 85.686 179, 90.950 179 C 96.121 179, 98.118 178.612, 98.749 177.484 C 99.348 176.414, 102.011 175.782, 107.799 175.336 C 113.320 174.910, 116 174.298, 116 173.463 C 116 172.781, 117.575 171.927, 119.500 171.566 C 121.595 171.173, 123 170.325, 123 169.455 C 123 168.311, 124.604 168, 130.500 168 C 136.217 168, 138 167.671, 138 166.617 C 138 165.626, 140.122 165.036, 145.500 164.532 C 150.655 164.049, 153 163.420, 153 162.521 C 153 161.580, 155.275 161.108, 161.076 160.845 C 167.457 160.555, 169.357 160.113, 170.126 158.739 C 170.905 157.347, 172.487 157, 178.050 157 C 183.561 157, 185 156.689, 185 155.500 C 185 154.369, 186.352 153.959, 190.500 153.833 C 193.525 153.742, 196.781 153.629, 197.736 153.583 C 198.691 153.537, 199.624 154.287, 199.810 155.250 C 200.060 156.551, 199.486 157, 197.573 157 C 195.667 157, 195 157.518, 195 159 C 195 160.619, 194.333 161, 191.500 161 C 189.056 161, 188 161.452, 188 162.500 C 188 163.583, 189.111 164, 192 164 C 194.889 164, 196 163.583, 196 162.500 C 196 161.371, 197.209 161, 200.883 161 C 204.926 161, 205.857 160.656, 206.290 159 C 206.665 157.565, 207.654 157, 209.790 157 C 211.926 157, 212.914 156.435, 213.290 155 C 213.577 153.900, 214.530 153, 215.406 153 C 216.652 153, 217 151.908, 217 148 L 217 143 206.500 143 C 197.833 143, 196 143.262, 196 144.500 C 196 145.658, 194.691 146.002, 190.250 146.009 C 180.782 146.023, 174 147.121, 174 148.639 C 174 149.567, 172.689 150, 169.883 150 C 166.102 150, 165.816 149.817, 166.370 147.750 C 166.701 146.512, 166.979 144.938, 166.986 144.250 C 166.994 143.563, 167.675 143, 168.500 143 C 169.548 143, 170 141.944, 170 139.500 C 170 137.056, 169.548 136, 168.500 136 C 167.667 136, 167 135.111, 167 134 C 167 132.667, 166.333 132, 165 132 C 163.667 132, 163 131.333, 163 130 C 163 128.267, 162.333 128, 158 128 L 153 128 153 124.125 C 153 118.228, 151.904 114, 150.375 114 C 149.619 114, 149 113.283, 149 112.406 C 149 111.530, 148.100 110.577, 147 110.290 C 145.900 110.002, 145 109.209, 145 108.528 C 145 107.024, 132.042 105.852, 124.845 106.705 L 120 107.279 120 87.139 C 120 67.667, 120.066 67, 122 67 C 123.111 67, 124 66.333, 124 65.500 C 124 64.452, 125.056 64, 127.500 64 C 129.944 64, 131 64.452, 131 65.500 C 131 66.762, 133.222 67, 145 67 C 156.279 67, 159 66.730, 159 65.611 C 159 64.816, 160.495 63.942, 162.500 63.566 C 164.595 63.173, 166 62.325, 166 61.455 C 166 60.655, 166.900 60, 168 60 C 169.758 60, 170 59.333, 170 54.500 L 170 49 166.500 49 C 164.197 49, 163 48.530, 163 47.625 C 163 46.869, 161.594 45.969, 159.875 45.625 C 156.598 44.970, 119.220 45.052, 112.750 45.728 M 124 54.500 C 124 55.325, 124.675 56, 125.500 56 C 126.333 56, 127 56.889, 127 58 C 127 59.908, 127.667 60, 141.500 60 C 153.722 60, 156 59.764, 156 58.500 C 156 57.675, 156.675 57, 157.500 57 C 158.333 57, 159 56.111, 159 55 C 159 53.076, 158.333 53, 141.500 53 C 126.611 53, 124 53.224, 124 54.500 M 129.250 117.706 C 127.279 118.085, 127 118.752, 127 123.070 L 127 128 132.500 128 C 136.722 128, 138 127.652, 138 126.500 C 138 125.452, 139.056 125, 141.500 125 C 144.809 125, 145 124.815, 145 121.625 C 145 118.645, 144.634 118.177, 141.875 117.625 C 138.544 116.959, 132.942 116.995, 129.250 117.706 M 120 126.500 C 120 130.516, 120.373 132, 121.383 132 C 122.144 132, 123.007 130.762, 123.300 129.250 C 124.046 125.410, 123.016 121, 121.375 121 C 120.375 121, 120 122.500, 120 126.500 M 123.500 140 C 122.663 141.354, 123.792 143, 125.559 143 C 126.352 143, 127 142.100, 127 141 C 127 138.930, 124.587 138.240, 123.500 140 M 124 173.500 C 124 174.583, 122.889 175, 120 175 C 117.111 175, 116 175.417, 116 176.500 C 116 177.325, 115.325 178, 114.500 178 C 113.227 178, 113 180.500, 113 194.500 C 113 210.333, 112.919 211, 111 211 C 109.381 211, 109 211.667, 109 214.500 C 109 216.803, 109.470 218, 110.375 218 C 112.176 218, 113 222.432, 113 232.125 C 113 238.458, 113.294 240, 114.500 240 C 115.555 240, 116 241.066, 116 243.594 C 116 246.346, 116.468 247.310, 118 247.710 C 119.100 247.998, 120 248.856, 120 249.617 C 120 250.377, 120.675 251, 121.500 251 C 122.325 251, 123 251.619, 123 252.375 C 123 254.307, 128.244 255.133, 135.675 254.372 C 139.668 253.963, 142 253.270, 142 252.492 C 142 251.768, 143.917 251.044, 146.651 250.736 C 149.449 250.420, 151.660 249.572, 152.201 248.606 C 152.695 247.723, 153.752 247, 154.550 247 C 155.347 247, 156 246.325, 156 245.500 C 156 244.452, 157.056 244, 159.500 244 C 162.333 244, 163 243.619, 163 242 C 163 240.394, 163.667 240, 166.383 240 C 168.926 240, 169.897 239.503, 170.290 238 C 170.671 236.544, 171.654 236, 173.906 236 C 175.990 236, 177 235.510, 177 234.500 C 177 233.278, 178.667 233, 186 233 C 193.084 233, 195 233.301, 195 234.412 C 195 235.280, 196.541 236.085, 199 236.500 C 201.459 236.915, 203 237.720, 203 238.588 C 203 239.679, 204.707 240, 210.500 240 C 216.219 240, 218 240.329, 218 241.383 C 218 242.899, 220.968 243.965, 225.250 243.986 C 227.022 243.995, 228 244.534, 228 245.500 C 228 246.548, 229.056 247, 231.500 247 C 234.333 247, 235 247.381, 235 249 C 235 250.758, 235.667 251, 240.500 251 L 246 251 246 247 C 246 244.111, 245.583 243, 244.500 243 C 243.675 243, 243 242.325, 243 241.500 C 243 240.567, 242.056 240, 240.500 240 C 239.038 240, 238 239.426, 238 238.617 C 238 237.101, 235.032 236.035, 230.750 236.014 C 228.978 236.005, 228 235.466, 228 234.500 C 228 233.311, 226.561 233, 221.050 233 C 215.658 233, 213.894 232.634, 213.185 231.366 C 212.594 230.310, 210.456 229.558, 207.135 229.239 C 203.688 228.908, 202 228.294, 202 227.373 C 202 226.427, 200.679 225.996, 197.750 225.986 C 192.053 225.968, 189 225.060, 189 223.383 C 189 222.513, 190.112 222, 192 222 C 194.078 222, 195 221.510, 195 220.406 C 195 219.530, 195.900 218.577, 197 218.290 C 198.100 218.002, 199 217.144, 199 216.383 C 199 215.623, 199.900 215, 201 215 C 202.100 215, 203 214.345, 203 213.545 C 203 212.675, 204.405 211.827, 206.500 211.434 C 209.033 210.959, 210 210.255, 210 208.889 C 210 207.850, 210.675 207, 211.500 207 C 212.325 207, 213 206.325, 213 205.500 C 213 204.667, 213.889 204, 215 204 C 216.333 204, 217 203.333, 217 202 C 217 200.667, 217.667 200, 219 200 C 220.111 200, 221 199.333, 221 198.500 C 221 197.675, 221.623 197, 222.383 197 C 223.144 197, 224.002 196.100, 224.290 195 C 224.577 193.900, 225.530 193, 226.406 193 C 227.561 193, 228 192.036, 228 189.500 C 228 186.667, 228.381 186, 230 186 C 232.090 186, 232.376 185.007, 231.370 181.250 C 230.793 179.100, 230.306 179, 220.383 179 C 211.820 179, 210 179.263, 210 180.500 C 210 181.466, 209.022 182.005, 207.250 182.014 C 202.968 182.035, 200 183.101, 200 184.617 C 200 185.426, 198.962 186, 197.500 186 C 195.979 186, 195 186.570, 195 187.455 C 195 188.325, 193.595 189.173, 191.500 189.566 C 189.495 189.942, 188 190.816, 188 191.611 C 188 192.532, 186.820 193, 184.500 193 C 181.667 193, 181 193.381, 181 195 C 181 196.619, 180.333 197, 177.500 197 C 175.180 197, 174 197.468, 174 198.389 C 174 199.184, 172.505 200.058, 170.500 200.434 C 168.405 200.827, 167 201.675, 167 202.545 C 167 203.345, 166.100 204, 165 204 C 163.900 204, 163 204.625, 163 205.389 C 163 206.184, 161.505 207.058, 159.500 207.434 C 157.405 207.827, 156 208.675, 156 209.545 C 156 210.622, 154.715 211, 151.050 211 C 147.897 211, 145.809 211.501, 145.300 212.378 C 144.860 213.136, 143.037 214.072, 141.250 214.458 C 138.400 215.073, 138 214.903, 138 213.079 C 138 211.175, 137.421 211, 131.117 211 C 125.074 211, 124.169 210.756, 123.710 209 C 123.423 207.900, 122.470 207, 121.594 207 C 120.260 207, 120 205.611, 120 198.500 C 120 191.846, 120.307 190, 121.412 190 C 122.280 190, 123.085 188.459, 123.500 186 C 124.108 182.404, 124.470 182, 127.088 182 C 129.010 182, 130 181.490, 130 180.500 C 130 179.300, 131.500 179, 137.500 179 L 145 179 145 175.500 C 145 173.056, 144.548 172, 143.500 172 C 142.675 172, 142 172.675, 142 173.500 C 142 174.700, 140.500 175, 134.500 175 C 128.500 175, 127 174.700, 127 173.500 C 127 172.675, 126.325 172, 125.500 172 C 124.675 172, 124 172.675, 124 173.500 M 87.188 187.739 C 87.690 190.345, 91 190.636, 91 188.073 C 91 186.642, 90.358 186, 88.927 186 C 87.496 186, 86.957 186.539, 87.188 187.739 M 199 194.956 C 199 196.625, 198.358 197, 195.500 197 C 193.180 197, 192 197.468, 192 198.389 C 192 199.184, 190.505 200.058, 188.500 200.434 C 186.405 200.827, 185 201.675, 185 202.545 C 185 203.532, 183.911 204, 181.617 204 C 179.074 204, 178.103 204.497, 177.710 206 C 177.329 207.456, 176.346 208, 174.094 208 C 172.121 208, 171 208.503, 171 209.389 C 171 210.177, 169.527 211.054, 167.597 211.416 C 165.725 211.767, 163.939 212.717, 163.628 213.527 C 163.317 214.337, 162.149 215, 161.031 215 C 159.892 215, 159 215.659, 159 216.500 C 159 217.356, 159.899 218, 161.094 218 C 162.346 218, 163.397 218.803, 163.710 220 C 164.191 221.838, 165.074 222, 174.617 222 C 184.333 222, 185 221.872, 185 220 C 185 218.889, 185.667 218, 186.500 218 C 187.325 218, 188 217.325, 188 216.500 C 188 215.667, 188.889 215, 190 215 C 191.333 215, 192 214.333, 192 213 C 192 211.381, 192.667 211, 195.500 211 C 198.333 211, 199 210.619, 199 209 C 199 207.667, 199.667 207, 201 207 C 202.111 207, 203 206.333, 203 205.500 C 203 204.675, 203.623 204, 204.383 204 C 205.144 204, 206.002 203.100, 206.290 202 C 206.577 200.900, 207.530 200, 208.406 200 C 209.283 200, 210 199.377, 210 198.617 C 210 197.856, 210.947 196.986, 212.105 196.683 C 213.264 196.380, 214.015 195.540, 213.775 194.816 C 213.482 193.930, 210.998 193.404, 206.170 193.206 C 199.520 192.934, 199 193.060, 199 194.956 M 120 224 C 120 225.100, 120.629 226, 121.399 226 C 122.396 226, 122.998 228.005, 123.500 233 C 124.002 237.995, 124.604 240, 125.601 240 C 126.371 240, 127 240.900, 127 242 C 127 243.333, 127.667 244, 129 244 C 130.111 244, 131 244.667, 131 245.500 C 131 246.548, 132.056 247, 134.500 247 C 136.944 247, 138 246.548, 138 245.500 C 138 244.588, 138.931 244, 140.375 244 C 144.880 244, 149 242.746, 149 241.375 C 149 240.470, 150.197 240, 152.500 240 C 155.333 240, 156 239.619, 156 238 C 156 236.667, 156.667 236, 158 236 C 159.111 236, 160 235.333, 160 234.500 C 160 233.452, 161.056 233, 163.500 233 C 166.333 233, 167 232.619, 167 231 C 167 229.242, 166.333 229, 161.500 229 C 157.278 229, 156 228.652, 156 227.500 C 156 225.823, 152.827 225.477, 141.685 225.939 C 135.472 226.197, 134.822 226.035, 134.319 224.111 C 133.825 222.221, 133.046 222, 126.883 222 C 120.667 222, 120 222.194, 120 224" stroke="none" fill="black" fill-rule="evenodd"/>
</svg>