<svg xmlns="http://www.w3.org/2000/svg" width="300" height="300" viewBox="0 0 300 300" version="1.1">
	<path d="M 145 39 C 145 40.100, 144.375 41, 143.611 41 C 142.816 41, 141.942 42.495, 141.566 44.500 C 141.173 46.595, 140.325 48, 139.455 48 C 138.275 48, 138 49.964, 138 58.383 C 138 67.926, 137.838 68.809, 136 69.290 C 134.330 69.726, 134 70.654, 134 74.906 C 134 78.767, 133.637 80, 132.500 80 C 131.417 80, 131 81.111, 131 84 C 131 87.333, 130.667 88, 129 88 C 127.267 88, 127 88.667, 127 93 L 127 98 111 98 C 97.444 98, 95 97.771, 95 96.500 C 95 95.312, 93.569 95, 88.117 95 C 81.824 95, 81.182 95.193, 80.630 97.250 C 79.443 101.680, 79.771 102, 85.500 102 C 89.618 102, 91 102.361, 91 103.439 C 91 105.555, 97.925 106.292, 113.513 105.837 L 127 105.443 127 108.815 C 127 111.346, 127.499 112.318, 129 112.710 C 130.100 112.998, 131 113.803, 131 114.500 C 131 115.197, 131.959 116.018, 133.132 116.324 C 134.793 116.759, 135.127 117.392, 134.646 119.191 C 134.306 120.461, 134.021 122.737, 134.014 124.250 C 134.005 126.022, 133.466 127, 132.500 127 C 131.452 127, 131 128.056, 131 130.500 C 131 132.944, 131.452 134, 132.500 134 C 133.583 134, 134 135.111, 134 138 C 134 141.333, 134.333 142, 136 142 C 137.822 142, 138 141.333, 138 134.500 L 138 127 141.500 127 C 144.333 127, 145 127.381, 145 129 C 145 130.619, 145.667 131, 148.500 131 C 150.848 131, 152 131.465, 152 132.412 C 152 133.280, 153.541 134.085, 156 134.500 C 158.459 134.915, 160 135.720, 160 136.588 C 160 137.535, 161.152 138, 163.500 138 C 165.878 138, 167 138.461, 167 139.439 C 167 141.497, 173.161 142.159, 189 141.803 L 202.500 141.500 202.810 137.750 L 203.121 134 188.560 134 C 176.284 134, 174 133.765, 174 132.500 C 174 131.462, 172.957 131, 170.617 131 C 168.074 131, 167.103 130.503, 166.710 129 C 166.329 127.544, 165.346 127, 163.094 127 C 161.121 127, 160 126.497, 160 125.611 C 160 124.816, 158.505 123.942, 156.500 123.566 C 154.405 123.173, 153 122.325, 153 121.455 C 153 120.655, 152.100 120, 151 120 C 149.900 120, 149 119.377, 149 118.617 C 149 117.041, 146 116.034, 141.250 116.014 C 138.018 116, 138 115.972, 138 111 C 138 107.222, 137.633 106, 136.500 106 C 135.667 106, 135 105.111, 135 104 C 135 102.889, 135.667 102, 136.500 102 C 137.325 102, 138 101.325, 138 100.500 C 138 99.675, 138.675 99, 139.500 99 C 140.325 99, 141 99.675, 141 100.500 C 141 101.652, 142.278 102, 146.500 102 C 150.526 102, 152 102.372, 152 103.389 C 152 104.184, 153.495 105.058, 155.500 105.434 C 157.595 105.827, 159 106.675, 159 107.545 C 159 108.345, 159.850 109, 160.889 109 C 162.255 109, 162.959 109.967, 163.434 112.500 C 164.008 115.562, 164.460 116, 167.045 116 C 169.662 116, 170 115.656, 170 113 C 170 111, 169.500 110, 168.500 110 C 167.417 110, 167 108.889, 167 106 C 167 102.667, 166.667 102, 165 102 C 163.900 102, 163 101.345, 163 100.545 C 163 99.675, 161.595 98.827, 159.500 98.434 C 157.495 98.058, 156 97.184, 156 96.389 C 156 95.486, 154.852 95, 152.722 95 C 150.682 95, 148.798 94.245, 147.732 93 C 146.548 91.617, 144.782 91, 142.010 91 C 138.094 91, 138 90.918, 138 87.500 C 138 85.104, 138.459 84, 139.455 84 C 140.325 84, 141.173 82.595, 141.566 80.500 C 142.220 77.014, 142.245 77, 147.611 77 C 151.735 77, 153 77.352, 153 78.500 C 153 79.738, 154.833 80, 163.500 80 L 174 80 174 85.500 L 174 91 177.500 91 L 181 91 181 83.500 C 181 77.500, 180.700 76, 179.500 76 C 178.675 76, 178 75.325, 178 74.500 C 178 73.333, 176.667 73, 172 73 C 167.333 73, 166 72.667, 166 71.500 C 166 70.302, 164.514 70, 158.625 70 C 154.569 70, 149.794 69.709, 148.015 69.353 L 144.781 68.706 145.212 62.743 C 145.518 58.522, 146.134 56.504, 147.322 55.840 C 148.540 55.158, 149 53.544, 149 49.950 C 149 46.217, 149.369 45, 150.500 45 C 151.333 45, 152 44.111, 152 43 C 152 41.889, 151.333 41, 150.500 41 C 149.667 41, 149 40.111, 149 39 C 149 37.667, 148.333 37, 147 37 C 145.667 37, 145 37.667, 145 39 M 75.250 51.696 C 73.847 51.972, 73 52.866, 73 54.070 C 73 55.131, 72.325 56, 71.500 56 C 70.302 56, 70 57.486, 70 63.375 C 70 72.589, 69.150 77, 67.375 77 C 66.318 77, 66 78.937, 66 85.383 C 66 92.926, 65.799 93.819, 64 94.290 C 62.301 94.734, 62 95.654, 62 100.406 C 62 104.712, 61.655 106, 60.500 106 C 59.348 106, 59 107.278, 59 111.500 C 59 115.722, 59.348 117, 60.500 117 C 61.325 117, 62 117.675, 62 118.500 C 62 119.333, 62.889 120, 64 120 C 65.100 120, 66 119.377, 66 118.617 C 66 117.856, 66.900 116.998, 68 116.710 C 69.815 116.236, 70 115.346, 70 107.094 C 70 99.677, 70.277 98, 71.500 98 C 72.575 98, 73 96.903, 73 94.125 C 73 88.228, 74.096 84, 75.625 84 C 76.661 84, 77 82.273, 77 77 C 77 71.577, 77.324 70, 78.439 70 C 80.174 70, 81.283 63.719, 80.820 56.509 C 80.486 51.299, 79.887 50.782, 75.250 51.696 M 88 74.594 C 88 75.470, 87.100 76.423, 86 76.710 C 84.312 77.152, 84 78.074, 84 82.617 C 84 86.876, 84.333 88, 85.594 88 C 86.470 88, 87.423 87.100, 87.710 86 C 88.103 84.497, 89.074 84, 91.617 84 C 93.957 84, 95 83.538, 95 82.500 C 95 81.310, 96.444 81, 102 81 L 109 81 109 84.500 C 109 87.833, 109.167 88, 112.500 88 L 116 88 116 82.579 C 116 77.404, 115.868 77.130, 113.084 76.518 C 111.479 76.166, 109.919 75.230, 109.615 74.439 C 109.183 73.313, 106.771 73, 98.531 73 C 89.562 73, 88 73.236, 88 74.594 M 134 159.860 C 134 177.439, 134.716 184, 136.636 184 C 137.725 184, 138 186.920, 138 198.500 C 138 210.008, 138.279 213, 139.350 213 C 140.722 213, 142 224.408, 142 236.654 C 142 240.739, 142.354 242, 143.500 242 C 144.333 242, 145 242.889, 145 244 C 145 245.612, 145.667 246, 148.439 246 C 151.739 246, 151.904 245.822, 152.542 241.571 C 153.261 236.775, 152.694 235, 150.441 235 C 149.222 235, 149 230.842, 149 208 C 149 185.678, 148.760 181, 147.617 181 C 146.331 181, 145.045 178.160, 145.014 175.250 C 145.005 174.456, 146.459 174, 149 174 C 151.685 174, 153 173.558, 153 172.654 C 153 171.631, 156.055 171.153, 165.750 170.658 C 190.545 169.394, 199 169.892, 199 172.617 C 199 173.531, 200.187 174, 202.500 174 C 205.518 174, 206 174.327, 206 176.375 C 206 180.880, 207.254 185, 208.625 185 C 209.690 185, 210 187.030, 210 194 C 210 201.568, 209.746 203, 208.406 203 C 207.530 203, 206.577 202.100, 206.290 201 C 205.831 199.244, 204.926 199, 198.883 199 C 193.689 199, 192 199.340, 192 200.383 C 192 202.142, 188.902 202.969, 182.250 202.986 C 178.256 202.997, 177 203.359, 177 204.500 C 177 205.466, 176.022 206.005, 174.250 206.014 C 169.968 206.035, 167 207.101, 167 208.617 C 167 209.377, 166.100 210, 165 210 C 163.667 210, 163 210.667, 163 212 C 163 213.111, 162.333 214, 161.500 214 C 160.369 214, 160 215.215, 160 218.937 C 160 223.775, 160.065 223.880, 163.250 224.187 C 166.083 224.460, 166.539 224.904, 166.806 227.648 C 167.024 229.900, 167.736 230.963, 169.306 231.384 C 173.363 232.472, 174 232.096, 174 228.617 C 174 226.074, 173.503 225.103, 172 224.710 C 170.900 224.423, 170 223.428, 170 222.500 C 170 221.572, 170.900 220.577, 172 220.290 C 173.100 220.002, 174 219.144, 174 218.383 C 174 217.469, 175.187 217, 177.500 217 C 179.944 217, 181 216.548, 181 215.500 C 181 214.675, 181.717 214, 182.594 214 C 183.470 214, 184.423 213.100, 184.710 212 C 185.198 210.136, 186.074 210, 197.617 210 L 210 210 210 213.500 C 210 215.813, 209.531 217, 208.617 217 C 207.041 217, 206.034 220, 206.014 224.750 C 206.003 227.338, 206.407 228, 208 228 C 209.667 228, 210 228.667, 210 232 C 210 234.752, 209.566 236, 208.607 236 C 207.841 236, 206.955 236.675, 206.638 237.500 C 206.277 238.441, 204.748 239, 202.531 239 C 200.059 239, 199 239.450, 199 240.500 C 199 241.605, 197.847 242, 194.625 242 C 188.259 242, 184 243.052, 184 244.625 C 184 245.661, 182.273 246, 177 246 C 171.703 246, 170 246.337, 170 247.385 C 170 248.313, 168.188 248.996, 164.500 249.457 C 160.722 249.929, 159 250.591, 159 251.572 C 159 252.537, 157.866 253, 155.500 253 C 152.667 253, 152 253.381, 152 255 C 152 256.111, 151.333 257, 150.500 257 C 149.452 257, 149 258.056, 149 260.500 L 149 264 156 264 C 161.362 264, 163 263.670, 163 262.588 C 163 261.720, 164.541 260.915, 167 260.500 C 169.459 260.085, 171 259.280, 171 258.412 C 171 257.542, 172.055 256.995, 173.750 256.986 C 178.032 256.965, 181 255.899, 181 254.383 C 181 253.436, 182.261 253, 185 253 C 187.889 253, 189 252.583, 189 251.500 C 189 250.534, 189.978 249.995, 191.750 249.986 C 196.032 249.965, 199 248.899, 199 247.383 C 199 246.623, 199.900 246, 201 246 C 202.758 246, 203 246.667, 203 251.500 L 203 257 206.500 257 C 209.333 257, 210 256.619, 210 255 C 210 253.900, 210.655 253, 211.455 253 C 212.325 253, 213.173 251.595, 213.566 249.500 C 213.942 247.495, 214.816 246, 215.611 246 C 216.375 246, 217 245.381, 217 244.625 C 217 243.254, 221.120 242, 225.625 242 C 227.069 242, 228 241.412, 228 240.500 C 228 239.311, 229.438 239, 234.941 239 C 242.401 239, 243.396 238.426, 242.453 234.667 C 241.952 232.674, 241.067 232.155, 237.474 231.750 C 231.834 231.114, 228 231.870, 228 233.617 C 228 234.623, 226.534 235, 222.623 235 L 217.245 235 217.761 219.250 C 218.044 210.588, 218.664 203.350, 219.138 203.167 C 220.467 202.653, 220.158 196.219, 218.782 195.761 C 217.960 195.487, 217.435 191.878, 217.168 184.677 C 216.863 176.431, 216.457 174, 215.387 174 C 214.624 174, 214 173.283, 214 172.406 C 214 171.530, 213.100 170.577, 212 170.290 C 210.900 170.002, 210 169.144, 210 168.383 C 210 167.623, 209.325 167, 208.500 167 C 207.667 167, 207 166.111, 207 165 C 207 163.333, 206.333 163, 203 163 C 200.222 163, 199 162.569, 199 161.588 C 199 159.460, 192.322 158.717, 180.465 159.526 C 172.576 160.063, 170 160.579, 170 161.619 C 170 162.720, 167.464 163, 157.500 163 L 145 163 145 155.500 C 145 149.500, 144.700 148, 143.500 148 C 142.675 148, 142 147.325, 142 146.500 C 142 145.417, 140.889 145, 138 145 L 134 145 134 159.860 M 66 157.439 L 66 162.879 84.919 163.189 C 95.325 163.360, 104.152 163.815, 104.536 164.201 C 104.920 164.586, 105.465 166.948, 105.747 169.451 C 106.243 173.848, 106.372 174, 109.630 174 L 113 174 113 167 C 113 160.667, 112.810 160, 111 160 C 109.667 160, 109 159.333, 109 158 C 109 156.190, 108.333 156, 102 156 C 95.667 156, 95 155.810, 95 154 C 95 152.092, 94.333 152, 80.500 152 L 66 152 66 157.439 M 91 186.500 C 91 187.621, 89.799 188.003, 86.250 188.014 C 80.077 188.031, 77 188.897, 77 190.617 C 77 191.377, 76.100 192, 75 192 C 73.900 192, 73 192.655, 73 193.455 C 73 194.325, 71.595 195.173, 69.500 195.566 C 66.967 196.041, 66 196.745, 66 198.111 C 66 199.150, 65.325 200, 64.500 200 C 63.513 200, 63 200.987, 63 202.883 C 63 206.126, 64.759 206.973, 71.500 206.973 C 78.220 206.973, 79.884 206.134, 80.587 202.390 C 81.161 199.329, 81.551 199, 84.611 199 C 86.830 199, 88 198.522, 88 197.617 C 88 195.843, 90.846 195.389, 99.250 195.823 L 106 196.171 106 199.585 C 106 201.954, 106.460 203, 107.500 203 C 108.633 203, 109 204.222, 109 208 C 109 212.333, 109.267 213, 111 213 C 112.733 213, 113 212.333, 113 208 C 113 204.222, 113.367 203, 114.500 203 C 115.548 203, 116 201.944, 116 199.500 C 116 197.056, 115.548 196, 114.500 196 C 113.417 196, 113 194.889, 113 192 C 113 188.667, 112.667 188, 111 188 C 109.889 188, 109 187.333, 109 186.500 C 109 185.278, 107.333 185, 100 185 C 92.667 185, 91 185.278, 91 186.500 M 122.250 213.706 C 121.013 213.944, 120 214.783, 120 215.570 C 120 216.637, 118.603 217, 114.500 217 C 110.484 217, 109 217.373, 109 218.383 C 109 219.899, 106.032 220.965, 101.750 220.986 C 100.055 220.995, 99 221.542, 99 222.412 C 99 223.280, 97.459 224.085, 95 224.500 C 92.541 224.915, 91 225.720, 91 226.588 C 91 227.535, 89.848 228, 87.500 228 C 85.104 228, 84 228.459, 84 229.455 C 84 230.325, 82.595 231.173, 80.500 231.566 C 78.495 231.942, 77 232.816, 77 233.611 C 77 234.523, 75.837 235, 73.617 235 C 71.074 235, 70.103 235.497, 69.710 237 C 69.335 238.435, 68.346 239, 66.210 239 C 64.074 239, 63.086 239.565, 62.710 241 C 62.423 242.100, 61.470 243, 60.594 243 C 59.439 243, 59 243.964, 59 246.500 C 59 249.333, 59.381 250, 61 250 C 62.111 250, 63 250.667, 63 251.500 C 63 252.325, 63.675 253, 64.500 253 C 65.325 253, 66 252.325, 66 251.500 C 66 250.425, 67.097 250, 69.875 250 C 77.419 250, 79.999 249.014, 80.014 246.125 C 80.043 240.510, 81.018 239, 84.617 239 C 86.831 239, 88 238.522, 88 237.617 C 88 236.101, 90.968 235.035, 95.250 235.014 C 97.022 235.005, 98 234.466, 98 233.500 C 98 232.445, 99.066 232, 101.594 232 C 104.346 232, 105.310 231.532, 105.710 230 C 106.143 228.344, 107.074 228, 111.117 228 C 114.918 228, 116 227.647, 116 226.406 C 116 225.530, 116.900 224.577, 118 224.290 C 119.100 224.002, 120 223.144, 120 222.383 C 120 221.402, 121.379 220.996, 124.750 220.986 C 132.202 220.965, 134 220.190, 134 217 C 134 213.347, 129.974 212.218, 122.250 213.706" stroke="none" fill="black" fill-rule="evenodd"/>
</svg>