<svg xmlns="http://www.w3.org/2000/svg" width="300" height="300" viewBox="0 0 300 300" version="1.1">
	<path d="M 146.290 46 C 145.897 47.503, 144.926 48, 142.383 48 L 139 48 139 55 C 139 59.926, 139.370 62.004, 140.250 62.014 C 140.938 62.021, 142.466 62.287, 143.647 62.603 C 145.519 63.106, 145.882 62.656, 146.485 59.090 L 147.176 55 168.182 55 C 188.346 55, 189.208 55.080, 189.710 57 C 189.998 58.100, 190.856 59, 191.617 59 C 192.377 59, 193 59.900, 193 61 C 193 62.111, 192.333 63, 191.500 63 C 190.675 63, 190 63.675, 190 64.500 C 190 65.538, 188.957 66, 186.617 66 C 184.074 66, 183.103 66.497, 182.710 68 C 182.212 69.904, 181.346 70, 164.673 70 L 147.159 70 146.500 73 C 146.138 74.650, 145.202 76, 144.421 76 C 143.319 76, 143 77.686, 143 83.500 C 143 89.293, 143.321 91, 144.412 91 C 145.280 91, 146.085 92.541, 146.500 95 C 146.915 97.459, 147.720 99, 148.588 99 C 149.670 99, 150 100.638, 150 106 C 150 111.556, 149.690 113, 148.500 113 C 147.675 113, 147 113.675, 147 114.500 C 147 115.722, 148.667 116, 156 116 C 163.333 116, 165 115.722, 165 114.500 C 165 113.318, 166.399 113, 171.594 113 C 177.346 113, 178.254 112.745, 178.710 111 C 179.103 109.497, 180.074 109, 182.617 109 C 184.957 109, 186 108.538, 186 107.500 C 186 106.363, 187.233 106, 191.094 106 C 195.346 106, 196.274 105.670, 196.710 104 C 197.152 102.312, 198.074 102, 202.617 102 C 206.735 102, 208 101.648, 208 100.500 C 208 99.452, 209.056 99, 211.500 99 C 213.944 99, 215 99.452, 215 100.500 C 215 101.325, 215.675 102, 216.500 102 C 217.642 102, 218.002 103.254, 218.009 107.250 C 218.024 116.255, 219.150 123, 220.639 123 C 221.691 123, 222 125.154, 222 132.500 C 222 139.922, 222.303 142, 223.383 142 C 224.959 142, 225.966 145, 225.986 149.750 C 225.995 151.874, 226.489 153, 227.410 153 C 228.549 153, 228.886 155.993, 229.160 168.538 C 229.433 181.009, 229.796 184.258, 231 185.001 C 232.093 185.676, 232.596 188.242, 232.853 194.463 C 233.120 200.938, 233.543 203, 234.603 203 C 235.636 203, 236.002 204.496, 236.006 208.750 C 236.018 220.716, 237.240 231, 238.648 231 C 239.684 231, 240 233.105, 240 240 L 240 249 234.500 249 C 230.278 249, 229 248.652, 229 247.500 C 229 246.371, 227.791 246, 224.117 246 C 220.074 246, 219.143 245.656, 218.710 244 C 218.310 242.468, 217.346 242, 214.594 242 C 212.066 242, 211 241.555, 211 240.500 C 211 239.452, 209.944 239, 207.500 239 C 204.667 239, 204 238.619, 204 237 C 204 235.667, 203.333 235, 202 235 C 200.900 235, 200 234.383, 200 233.629 C 200 232.739, 198.246 232.025, 195 231.594 C 191.576 231.140, 190 230.469, 190 229.466 C 190 228.660, 189.100 228, 188 228 C 186.667 228, 186 227.333, 186 226 C 186 224.889, 185.333 224, 184.500 224 C 183.675 224, 183 223.352, 183 222.559 C 183 220.470, 181.620 219.926, 178.103 220.629 C 174.612 221.328, 173.959 223.494, 177 224.290 C 178.100 224.577, 179 225.530, 179 226.406 C 179 227.283, 179.675 228, 180.500 228 C 181.325 228, 182 228.717, 182 229.594 C 182 230.470, 182.900 231.423, 184 231.710 C 185.107 232, 186 233.074, 186 234.117 C 186 235.152, 186.675 236, 187.500 236 C 189.826 236, 189.268 237.721, 186.750 238.309 C 185.512 238.599, 176.912 238.705, 167.638 238.545 C 154.965 238.327, 150.572 237.925, 149.956 236.929 C 149.460 236.126, 146.546 235.438, 142.568 235.185 L 136 234.767 136 225.884 C 136 218.654, 136.279 217, 137.500 217 C 138.621 217, 139.003 215.799, 139.014 212.250 C 139.035 204.902, 139.825 203.002, 142.867 202.986 C 147.040 202.965, 150 201.885, 150 200.383 C 150 199.373, 151.484 199, 155.500 199 C 159.634 199, 161 198.640, 161 197.552 C 161 196.511, 162.473 196.020, 166.250 195.802 L 171.500 195.500 171.500 192 L 171.500 188.500 166.250 188.198 C 162.473 187.980, 161 187.489, 161 186.448 C 161 185.651, 160.100 185, 159 185 C 157.667 185, 157 184.333, 157 183 C 157 181.889, 156.333 181, 155.500 181 C 154.675 181, 154 180.375, 154 179.611 C 154 178.816, 152.505 177.942, 150.500 177.566 C 148.405 177.173, 147 176.325, 147 175.455 C 147 174.311, 145.396 174, 139.500 174 L 132 174 132 167 C 132 161.727, 132.339 160, 133.375 160 C 134.746 160, 136 155.880, 136 151.375 C 136 149.101, 136.298 149, 143 149 C 148.459 149, 150 148.680, 150 147.545 C 150 146.675, 151.405 145.827, 153.500 145.434 C 156.682 144.837, 157 144.470, 157 141.389 C 157 138.183, 156.811 138, 153.500 138 C 150.667 138, 150 137.619, 150 136 C 150 134.333, 149.333 134, 146 134 C 143.111 134, 142 133.583, 142 132.500 C 142 131.322, 140.616 131, 135.545 131 L 129.091 131 128.434 134.500 C 128.058 136.505, 127.184 138, 126.389 138 C 125.625 138, 125 138.900, 125 140 C 125 141.333, 124.333 142, 123 142 C 121.900 142, 121 142.627, 121 143.394 C 121 144.440, 118.994 144.879, 112.958 145.153 C 107.792 145.388, 104.629 145.982, 104.114 146.815 C 103.673 147.529, 100.767 148.375, 97.656 148.696 C 94.030 149.070, 92 149.739, 92 150.560 C 92 151.265, 90.692 152.128, 89.094 152.479 C 84.859 153.410, 83.514 160, 87.559 160 C 88.352 160, 89 160.675, 89 161.500 C 89 162.325, 89.623 163, 90.383 163 C 91.144 163, 92.002 163.900, 92.290 165 C 93.201 168.483, 96 167.439, 96 163.617 C 96 161.074, 96.497 160.103, 98 159.710 C 99.100 159.423, 100 158.470, 100 157.594 C 100 156.260, 101.389 156, 108.500 156 C 115.045 156, 117 155.684, 117 154.625 C 117 153.196, 122.530 151.591, 124.103 152.563 C 125.103 153.182, 125.312 168.232, 124.370 171.750 C 123.805 173.856, 123.232 174, 115.383 174 C 108.912 174, 107 174.316, 107 175.383 C 107 176.144, 106.100 177.002, 105 177.290 C 103.468 177.690, 103 178.654, 103 181.406 C 103 184.333, 103.371 185, 105 185 C 106.111 185, 107 185.667, 107 186.500 C 107 187.548, 108.056 188, 110.500 188 C 112.944 188, 114 187.548, 114 186.500 C 114 185.298, 115.515 185, 121.639 185 L 129.279 185 128.648 190.250 C 128.301 193.138, 128.013 196.287, 128.009 197.250 C 128.001 198.749, 126.997 199, 121 199 C 115.727 199, 114 199.339, 114 200.375 C 114 201.746, 109.880 203, 105.375 203 C 104.015 203, 103 203.594, 103 204.389 C 103 205.184, 101.505 206.058, 99.500 206.434 C 96.071 207.077, 96 207.189, 96 211.945 L 96 216.799 100.750 217.194 C 106.917 217.708, 110 217.105, 110 215.383 C 110 214.462, 111.201 214, 113.594 214 C 116.346 214, 117.310 213.532, 117.710 212 C 118.103 210.497, 119.074 210, 121.617 210 C 123.957 210, 125 209.538, 125 208.500 C 125 207.667, 125.889 207, 127 207 C 128.111 207, 129 207.667, 129 208.500 C 129 209.325, 129.675 210, 130.500 210 C 131.325 210, 132 210.675, 132 211.500 C 132 212.325, 131.381 213, 130.625 213 C 128.824 213, 128 217.432, 128 227.125 L 128 235 121 235 C 114.667 235, 114 235.190, 114 237 C 114 238.374, 113.333 239, 111.870 239 C 109.934 239, 109.787 239.414, 110.253 243.549 C 110.535 246.052, 111.080 248.414, 111.464 248.799 C 112.471 249.810, 132.256 250.313, 139.688 249.517 C 144.157 249.038, 146 248.426, 146 247.420 C 146 246.224, 150.883 246, 177 246 C 203.460 246, 208 246.213, 208 247.455 C 208 248.325, 209.405 249.173, 211.500 249.566 C 213.505 249.942, 215 250.816, 215 251.611 C 215 252.532, 216.180 253, 218.500 253 C 221.333 253, 222 253.381, 222 255 C 222 256.894, 222.667 257, 234.594 257 C 246.346 257, 247.222 256.866, 247.710 255 C 247.998 253.900, 248.856 253, 249.617 253 C 251.756 253, 251.250 250.299, 249 249.710 C 247.086 249.210, 247 248.346, 247 229.594 C 247 212.844, 246.782 210, 245.500 210 C 244.337 210, 244 208.681, 244 204.125 C 244 196.342, 243.060 192, 241.375 192 C 240.282 192, 240 189.439, 240 179.500 C 240 169.492, 239.723 167, 238.609 167 C 237.550 167, 237.048 164.382, 236.500 156 C 235.983 148.081, 235.422 145, 234.497 145 C 233.587 145, 233.105 142.652, 232.847 136.958 C 232.586 131.212, 232.056 128.653, 230.991 127.996 C 229.780 127.248, 229.438 123.689, 229.169 109.038 L 228.838 91 232.419 91 C 234.935 91, 236 90.554, 236 89.500 C 236 88.667, 236.889 88, 238 88 C 239.333 88, 240 87.333, 240 86 C 240 84.381, 239.333 84, 236.500 84 C 234.056 84, 233 84.452, 233 85.500 C 233 86.583, 231.889 87, 229 87 C 225.095 87, 225 86.917, 225 83.500 C 225 81.056, 224.548 80, 223.500 80 C 222.675 80, 222 79.325, 222 78.500 C 222 77.675, 222.623 77, 223.383 77 C 224.144 77, 225.002 76.100, 225.290 75 C 225.886 72.720, 229 72.251, 229 74.441 C 229 76.357, 230.929 77.471, 232.142 76.258 C 234.012 74.388, 231.991 70.157, 228.906 69.479 C 227.308 69.128, 226 68.202, 226 67.421 C 226 66.639, 225.100 66, 224 66 C 222.667 66, 222 65.333, 222 64 C 222 62.381, 221.333 62, 218.500 62 C 215.667 62, 215 62.381, 215 64 C 215 65.333, 214.333 66, 213 66 C 211.407 66, 211.003 66.662, 211.014 69.250 C 211.033 73.824, 212.025 77, 213.436 77 C 214.245 77, 214.681 79.286, 214.768 84 L 214.898 91 211.449 91 C 209.189 91, 208 91.474, 208 92.375 C 208 93.948, 203.741 95, 197.375 95 C 194.352 95, 193 95.420, 193 96.361 C 193 97.255, 191.219 97.932, 187.809 98.336 C 184.954 98.674, 182.436 98.769, 182.214 98.547 C 181.263 97.597, 183.286 92, 184.579 92 C 186.765 92, 186.266 88.303, 184 87.710 C 182.900 87.423, 182 86.470, 182 85.594 C 182 84.717, 181.325 84, 180.500 84 C 179.675 84, 179 84.625, 179 85.389 C 179 86.184, 177.505 87.058, 175.500 87.434 C 173.405 87.827, 172 88.675, 172 89.545 C 172 90.345, 171.100 91, 170 91 C 168.667 91, 168 91.667, 168 93 C 168 94.619, 167.333 95, 164.500 95 C 162.056 95, 161 95.452, 161 96.500 C 161 97.333, 160.111 98, 159 98 C 157.267 98, 157 97.333, 157 93 C 157 89.222, 156.633 88, 155.500 88 C 154.348 88, 154 86.722, 154 82.500 C 154 78.278, 154.348 77, 155.500 77 C 156.333 77, 157 76.111, 157 75 C 157 73.083, 157.667 73, 173 73 C 186.556 73, 189 72.771, 189 71.500 C 189 70.445, 190.066 70, 192.594 70 C 195.346 70, 196.310 69.532, 196.710 68 C 196.998 66.900, 197.828 66, 198.555 66 C 199.353 66, 200.141 64.241, 200.542 61.571 C 201.261 56.775, 200.694 55, 198.441 55 C 197.648 55, 197 54.100, 197 53 C 197 51.667, 196.333 51, 195 51 C 193.889 51, 193 50.333, 193 49.500 C 193 48.310, 191.556 48, 186 48 C 180.727 48, 179 47.661, 179 46.625 C 179 44.628, 174.401 44, 159.781 44 C 147.654 44, 146.779 44.130, 146.290 46 M 64 75 C 64 75.550, 63.100 76, 62 76 C 60.333 76, 60 76.667, 60 80 C 60 83.333, 59.667 84, 58 84 C 56.242 84, 56 84.667, 56 89.500 C 56 93.514, 55.627 95, 54.618 95 C 53.498 95, 53.096 99.746, 52.500 120 C 52.095 133.750, 51.367 145, 50.882 145 C 50.397 145, 50 147.475, 50 150.500 C 50 153.525, 50.450 156, 51 156 C 51.550 156, 52 158.475, 52 161.500 C 52 164.525, 51.550 167, 51 167 C 50.450 167, 50 168.575, 50 170.500 C 50 172.425, 50.450 174, 51 174 C 51.550 174, 52 174.900, 52 176 C 52 177.100, 51.550 178, 51 178 C 49.541 178, 49.774 184.758, 51.250 185.249 C 52.109 185.535, 52.607 188.844, 52.844 195.832 C 53.111 203.740, 53.500 206, 54.594 206 C 55.665 206, 56 207.631, 56 212.849 C 56 216.616, 56.288 223.105, 56.640 227.269 C 57.364 235.836, 57.971 236.377, 65.667 235.322 C 69.586 234.785, 70.014 234.441, 70.591 231.367 C 70.938 229.515, 71.797 228, 72.500 228 C 73.203 228, 74.073 226.425, 74.434 224.500 C 74.827 222.405, 75.675 221, 76.545 221 C 77.642 221, 78 219.646, 78 215.500 L 78 210 74.500 210 C 71.167 210, 71 210.167, 71 213.500 C 71 216.333, 70.619 217, 69 217 C 67.667 217, 67 217.667, 67 219 C 67 220.111, 66.333 221, 65.500 221 C 64.268 221, 64 219.236, 64 211.125 C 64 199.506, 63.266 195, 61.375 195 C 60.229 195, 60 187.591, 60 150.500 C 60 111.611, 60.189 106, 61.500 106 C 62.333 106, 63 105.111, 63 104 C 63 102.667, 63.667 102, 65 102 C 66.333 102, 67 101.333, 67 100 C 67 98.889, 67.667 98, 68.500 98 C 69.325 98, 70 97.325, 70 96.500 C 70 95.333, 71.333 95, 76 95 C 80.667 95, 82 95.333, 82 96.500 C 82 97.466, 82.978 98.005, 84.750 98.014 C 90.228 98.041, 92 99.044, 92 102.117 L 92 105 84.750 105.009 C 73.881 105.022, 67 106.042, 67 107.639 C 67 108.388, 66.381 109, 65.625 109 C 64.254 109, 63 113.120, 63 117.625 C 63 119.729, 63.456 120, 67 120 C 69.746 120, 71 119.565, 71 118.611 C 71 117.816, 72.495 116.942, 74.500 116.566 C 76.595 116.173, 78 115.325, 78 114.455 C 78 113.290, 79.791 113, 87 113 L 96 113 96 116.500 C 96 119.833, 95.833 120, 92.500 120 C 90.056 120, 89 120.452, 89 121.500 C 89 122.412, 88.069 123, 86.625 123 C 82.120 123, 78 124.254, 78 125.625 C 78 126.530, 76.803 127, 74.500 127 L 71 127 71 132.500 L 71 138 80 138 C 88.333 138, 89 137.852, 89 136 C 89 134.381, 89.667 134, 92.500 134 C 94.944 134, 96 133.548, 96 132.500 C 96 131.667, 96.889 131, 98 131 C 99.333 131, 100 130.333, 100 129 C 100 127.267, 100.667 127, 105 127 C 108.600 127, 110 126.611, 110 125.611 C 110 124.816, 111.495 123.942, 113.500 123.566 C 115.595 123.173, 117 122.325, 117 121.455 C 117 120.424, 118.166 120, 121 120 C 124.905 120, 125 119.917, 125 116.500 C 125 113.083, 124.905 113, 121 113 C 118.111 113, 117 113.417, 117 114.500 C 117 115.485, 116.014 116, 114.129 116 C 111.439 116, 111.216 115.685, 110.594 111 C 110.140 107.576, 109.469 106, 108.466 106 C 107.660 106, 107 105.100, 107 104 C 107 102.900, 106.345 102, 105.545 102 C 104.682 102, 103.831 100.614, 103.451 98.592 C 103.044 96.421, 102.120 95.003, 100.906 94.686 C 99.858 94.412, 99 93.470, 99 92.594 C 99 91.490, 98.078 91, 96 91 C 94.046 91, 93 90.494, 93 89.550 C 93 88.519, 91.263 87.903, 87 87.420 C 82.915 86.958, 81 86.304, 81 85.371 C 81 84.392, 79.568 84, 76 84 L 71 84 71 80.500 C 71 78.024, 70.552 77, 69.469 77 C 68.626 77, 67.678 76.325, 67.362 75.500 C 66.722 73.833, 64 73.428, 64 75 M 141.750 188.689 C 140.787 188.941, 140 189.789, 140 190.573 C 140 191.663, 141.537 192, 146.500 192 C 151.368 192, 153 191.653, 153 190.617 C 153 188.439, 146.782 187.374, 141.750 188.689" stroke="none" fill="black" fill-rule="evenodd"/>
</svg>