<svg xmlns="http://www.w3.org/2000/svg" width="300" height="300" viewBox="0 0 300 300" version="1.1">
	<path d="M 156 56.245 C 156 58.137, 153.042 58.969, 146.250 58.986 C 142.256 58.997, 141 59.359, 141 60.500 C 141 61.637, 139.767 62, 135.906 62 C 131.654 62, 130.726 62.330, 130.290 64 C 129.919 65.417, 128.926 66, 126.883 66 C 124.987 66, 124 66.513, 124 67.500 C 124 68.333, 123.111 69, 122 69 C 120.267 69, 120 68.333, 120 64 L 120 59 116.500 59 C 114.109 59, 113 59.459, 113 60.450 C 113 61.248, 112.213 62.341, 111.250 62.879 C 108.824 64.235, 107.925 84, 110.290 84 C 112.240 84, 112.970 87.046, 112.986 95.250 C 112.997 100.577, 113.316 102, 114.500 102 C 115.605 102, 116 103.153, 116 106.375 C 116 112.741, 117.052 117, 118.625 117 C 119.684 117, 120 118.955, 120 125.500 C 120 132.389, 120.284 134, 121.500 134 C 122.333 134, 123 134.889, 123 136 C 123 137.667, 123.667 138, 127 138 L 131 138 131 133.990 C 131 131.218, 130.383 129.452, 129 128.268 C 127.365 126.868, 127 125.318, 127 119.778 C 127 114.580, 126.668 113, 125.576 113 C 124.425 113, 124.088 110.260, 123.821 98.750 C 123.640 90.912, 123.656 83.724, 123.856 82.775 C 124.077 81.727, 125.551 80.800, 127.610 80.413 C 129.531 80.053, 131 79.175, 131 78.389 C 131 77.625, 131.623 77, 132.383 77 C 133.144 77, 134.002 76.100, 134.290 75 C 134.726 73.330, 135.654 73, 139.906 73 C 143.631 73, 145 72.620, 145 71.585 C 145 69.783, 155.346 68.858, 170 69.349 C 175.775 69.543, 185.563 69.769, 191.750 69.851 C 201.017 69.974, 203 70.264, 203 71.500 C 203 72.637, 204.233 73, 208.094 73 C 212.346 73, 213.274 73.330, 213.710 75 C 213.998 76.100, 214.856 77, 215.617 77 C 216.663 77, 217 78.707, 217 84 C 217 89.306, 216.664 91, 215.611 91 C 214.816 91, 213.942 92.495, 213.566 94.500 C 213.173 96.595, 212.325 98, 211.455 98 C 210.424 98, 210 99.166, 210 102 C 210 104.789, 209.570 106, 208.579 106 C 207.798 106, 206.872 107.304, 206.522 108.898 C 206.152 110.584, 205.073 112.009, 203.943 112.305 C 202.874 112.584, 202 113.530, 202 114.406 C 202 115.283, 201.325 116, 200.500 116 C 199.667 116, 199 116.889, 199 118 C 199 119.333, 198.333 120, 197 120 C 195.889 120, 195 120.667, 195 121.500 C 195 122.325, 194.325 123, 193.500 123 C 192.417 123, 192 124.111, 192 127 C 192 130.905, 192.083 131, 195.500 131 C 198.333 131, 199 130.619, 199 129 C 199 127.667, 199.667 127, 201 127 C 202.619 127, 203 126.333, 203 123.500 C 203 120.667, 203.381 120, 205 120 C 206.111 120, 207 119.333, 207 118.500 C 207 117.675, 207.675 117, 208.500 117 C 209.333 117, 210 116.111, 210 115 C 210 113.667, 210.667 113, 212 113 C 213.333 113, 214 112.333, 214 111 C 214 109.900, 214.625 109, 215.389 109 C 216.184 109, 217.058 107.505, 217.434 105.500 C 217.827 103.405, 218.675 102, 219.545 102 C 220.541 102, 221 100.896, 221 98.500 C 221 96.197, 221.470 95, 222.375 95 C 223.746 95, 225 90.880, 225 86.375 C 225 84.931, 225.588 84, 226.500 84 C 227.690 84, 228 82.556, 228 77 C 228 71.444, 227.690 70, 226.500 70 C 225.667 70, 225 69.111, 225 68 C 225 66.667, 224.333 66, 223 66 C 221.667 66, 221 65.333, 221 64 C 221 62.242, 220.333 62, 215.500 62 C 211.409 62, 210 61.635, 210 60.576 C 210 59.405, 206.543 59.095, 190.462 58.826 C 176.657 58.596, 170.707 58.148, 170.184 57.301 C 169.777 56.641, 166.420 55.791, 162.722 55.413 C 157.070 54.833, 156 54.966, 156 56.245 M 53.750 87.689 C 51.454 88.289, 51.225 95, 53.500 95 C 54.325 95, 55 95.675, 55 96.500 C 55 97.735, 56.812 98.002, 65.250 98.014 C 78.170 98.031, 79.719 98.446, 80.522 102.102 C 80.872 103.696, 81.798 105, 82.579 105 C 83.570 105, 84 106.211, 84 109 C 84 114.186, 86.618 114.553, 87.566 109.500 C 87.942 107.495, 88.816 106, 89.611 106 C 90.532 106, 91 104.820, 91 102.500 C 91 100.180, 90.532 99, 89.611 99 C 88.819 99, 87.944 97.514, 87.573 95.538 C 87.015 92.564, 86.436 91.985, 83.462 91.427 C 81.558 91.070, 80 90.215, 80 89.528 C 80 87.513, 59.832 86.100, 53.750 87.689 M 161.853 116.670 C 160.068 117.144, 159.035 119.902, 159.014 124.250 C 159.005 126.022, 158.466 127, 157.500 127 C 156.278 127, 156 128.667, 156 136 C 156 142.970, 155.690 145, 154.625 145 C 153.052 145, 152 149.259, 152 155.625 C 152 158.847, 151.605 160, 150.500 160 C 149.369 160, 149 161.217, 149 164.950 C 149 168.491, 148.535 170.161, 147.366 170.815 C 146.310 171.406, 145.558 173.544, 145.239 176.865 C 144.908 180.312, 144.294 182, 143.373 182 C 142.505 182, 142 183.138, 142 185.094 C 142 187.346, 141.456 188.329, 140 188.710 C 138.497 189.103, 138 190.074, 138 192.617 C 138 194.911, 137.532 196, 136.545 196 C 135.675 196, 134.827 197.405, 134.434 199.500 C 134.058 201.505, 133.184 203, 132.389 203 C 131.468 203, 131 204.180, 131 206.500 C 131 208.813, 130.531 210, 129.617 210 C 128.041 210, 127.034 213, 127.014 217.750 C 127.005 219.850, 126.509 221, 125.611 221 C 124.816 221, 123.942 222.495, 123.566 224.500 C 123.173 226.595, 122.325 228, 121.455 228 C 120.468 228, 120 229.089, 120 231.383 C 120 233.926, 119.503 234.897, 118 235.290 C 116.330 235.726, 116 236.654, 116 240.906 L 116 246 121.500 246 L 127 246 127.014 241.250 C 127.031 235.077, 127.897 232, 129.617 232 C 130.531 232, 131 230.813, 131 228.500 C 131 226.152, 131.465 225, 132.412 225 C 133.280 225, 134.085 223.459, 134.500 221 C 134.915 218.541, 135.720 217, 136.588 217 C 137.535 217, 138 215.848, 138 213.500 C 138 211.180, 138.468 210, 139.389 210 C 140.184 210, 141.058 208.505, 141.434 206.500 C 141.827 204.405, 142.675 203, 143.545 203 C 144.532 203, 145 201.911, 145 199.617 C 145 197.074, 145.497 196.103, 147 195.710 C 148.532 195.310, 149 194.346, 149 191.594 C 149 189.194, 149.461 188, 150.389 188 C 151.184 188, 152.058 186.505, 152.434 184.500 C 152.827 182.405, 153.675 181, 154.545 181 C 155.677 181, 156 179.473, 156 174.117 C 156 168.074, 156.244 167.169, 158 166.710 C 159.670 166.274, 160 165.346, 160 161.094 C 160 157.233, 160.363 156, 161.500 156 C 162.663 156, 163 154.681, 163 150.125 C 163 142.342, 163.940 138, 165.625 138 C 166.625 138, 167 136.500, 167 132.500 C 167 128.278, 167.348 127, 168.500 127 C 169.652 127, 170 125.722, 170 121.500 L 170 116 166.750 116.116 C 164.963 116.180, 162.759 116.429, 161.853 116.670 M 66 125.500 C 66 126.652, 64.722 127, 60.500 127 C 55.667 127, 55 127.242, 55 129 C 55 130.619, 54.333 131, 51.500 131 C 48.167 131, 48 131.167, 48 134.500 C 48 136.813, 48.469 138, 49.383 138 C 50.144 138, 51.018 138.959, 51.324 140.132 C 51.759 141.793, 52.392 142.127, 54.191 141.646 C 55.461 141.306, 57.737 141.021, 59.250 141.014 C 61.022 141.005, 62 140.466, 62 139.500 C 62 138.348, 63.278 138, 67.500 138 C 71.500 138, 73 137.625, 73 136.625 C 73 134.984, 77.410 133.954, 81.250 134.700 C 82.763 134.993, 84 135.856, 84 136.617 C 84 137.377, 84.625 138, 85.389 138 C 86.184 138, 87.058 139.495, 87.434 141.500 C 88.001 144.524, 88.477 145, 90.929 145 C 94.024 145, 94.961 143.210, 94.986 137.250 C 94.995 135.143, 94.513 134, 93.617 134 C 92.856 134, 91.998 133.100, 91.710 132 C 91.423 130.900, 90.470 130, 89.594 130 C 88.717 130, 88 129.325, 88 128.500 C 88 127.452, 86.944 127, 84.500 127 C 82.056 127, 81 126.548, 81 125.500 C 81 124.300, 79.500 124, 73.500 124 C 67.500 124, 66 124.300, 66 125.500 M 174 156.500 C 174 162.500, 174.300 164, 175.500 164 C 177.027 164, 177.300 167.373, 177.486 188.500 C 177.702 212.970, 177.986 217, 179.500 217 C 180.652 217, 181 218.278, 181 222.500 C 181 226.516, 181.373 228, 182.383 228 C 183.144 228, 184.002 228.900, 184.290 230 C 184.577 231.100, 185.530 232, 186.406 232 C 187.283 232, 188 232.675, 188 233.500 C 188 234.333, 188.889 235, 190 235 C 191.333 235, 192 235.667, 192 237 C 192 238.810, 192.667 239, 199 239 C 204.556 239, 206 239.310, 206 240.500 C 206 241.787, 209.043 242, 227.383 242 C 248.713 242, 248.768 241.994, 249.370 239.750 C 249.701 238.512, 249.979 236.262, 249.986 234.750 C 249.995 232.978, 250.534 232, 251.500 232 C 252.700 232, 253 230.500, 253 224.500 C 253 218.500, 252.700 217, 251.500 217 C 250.273 217, 250 215.292, 250 207.625 C 250 196.489, 249.246 192, 247.375 192 C 246.470 192, 246 190.803, 246 188.500 C 246 186.056, 246.452 185, 247.500 185 C 248.753 185, 249 182.944, 249 172.500 C 249 162.056, 248.753 160, 247.500 160 C 246.367 160, 246 161.222, 246 165 C 246 168.621, 245.614 170, 244.599 170 C 242.713 170, 241.569 188.359, 242.199 208.496 C 242.458 216.748, 242.472 225.412, 242.230 227.750 L 241.790 232 225.520 232 C 207.677 232, 203 231.455, 203 229.375 C 203 228.470, 201.803 228, 199.500 228 C 196.667 228, 196 227.619, 196 226 C 196 224.667, 195.333 224, 194 224 C 192.444 224, 192 223.333, 192 221 C 192 219.146, 191.484 218, 190.648 218 C 189.287 218, 188.020 207.809, 188.006 196.750 C 188.002 193.286, 187.610 192, 186.561 192 C 185.369 192, 185.068 188.713, 184.811 172.928 C 184.535 155.999, 184.303 153.746, 182.750 152.878 C 181.787 152.341, 181 151.248, 181 150.450 C 181 149.459, 179.891 149, 177.500 149 L 174 149 174 156.500 M 102 161.500 C 102 162.652, 100.722 163, 96.500 163 C 91.667 163, 91 163.242, 91 165 C 91 166.733, 90.333 167, 86 167 C 82.222 167, 81 167.367, 81 168.500 C 81 169.356, 80.101 170, 78.906 170 C 77.654 170, 76.603 170.803, 76.290 172 C 75.897 173.503, 74.926 174, 72.383 174 C 70.169 174, 69 174.478, 69 175.383 C 69 176.899, 66.032 177.965, 61.750 177.986 C 60.077 177.995, 59 178.544, 59 179.389 C 59 180.184, 57.505 181.058, 55.500 181.434 C 53.405 181.827, 52 182.675, 52 183.545 C 52 184.345, 51.100 185, 50 185 C 48.381 185, 48 185.667, 48 188.500 L 48 192 55 192 C 60.738 192, 62 191.713, 62 190.406 C 62 189.530, 62.900 188.577, 64 188.290 C 65.100 188.002, 66 187.144, 66 186.383 C 66 185.469, 67.187 185, 69.500 185 C 71.896 185, 73 184.541, 73 183.545 C 73 182.675, 74.405 181.827, 76.500 181.434 C 78.425 181.073, 80 180.203, 80 179.500 C 80 178.797, 81.575 177.927, 83.500 177.566 C 85.595 177.173, 87 176.325, 87 175.455 C 87 174.362, 88.339 174, 92.383 174 C 96.926 174, 97.848 173.688, 98.290 172 C 98.690 170.468, 99.654 170, 102.406 170 C 104.934 170, 106 169.555, 106 168.500 C 106 167.310, 107.444 167, 113 167 C 119.333 167, 120 166.810, 120 165 C 120 163.667, 119.333 163, 118 163 C 116.889 163, 116 162.333, 116 161.500 C 116 160.310, 114.556 160, 109 160 C 103.444 160, 102 160.310, 102 161.500" stroke="none" fill="black" fill-rule="evenodd"/>
</svg>