<svg xmlns="http://www.w3.org/2000/svg" width="300" height="300" viewBox="0 0 300 300" version="1.1">
	<path d="M 144.283 16.701 C 142.682 17.011, 141.887 18.084, 141.422 20.565 C 141.055 22.520, 140.179 24, 139.389 24 C 138.244 24, 138 28.024, 138 46.883 C 138 68.926, 137.926 69.786, 136 70.290 C 134.237 70.751, 134 71.654, 134 77.906 C 134 83.279, 133.664 85, 132.617 85 C 131.856 85, 130.998 85.900, 130.710 87 C 130.133 89.206, 127.626 89.478, 118.250 88.352 C 114.798 87.937, 113 87.255, 113 86.361 C 113 85.276, 110.063 85, 98.500 85 C 86.278 85, 84 85.236, 84 86.500 C 84 88.592, 81.331 88.384, 80.790 86.250 C 80.546 85.287, 80.550 76.513, 80.799 66.750 C 81.161 52.582, 81.529 49, 82.626 49 C 83.604 49, 84 47.591, 84 44.108 C 84 39.778, 83.725 39.148, 81.598 38.614 C 80.276 38.282, 77.801 38.290, 76.098 38.630 L 73 39.250 73 60.625 C 73 78.958, 72.787 82, 71.500 82 C 70.425 82, 70 83.097, 70 85.875 C 70 91.772, 68.904 96, 67.375 96 C 66.375 96, 66 97.500, 66 101.500 L 66 107 69.250 106.983 C 74.271 106.956, 77 103.438, 77 96.992 C 77 92.061, 77.127 91.801, 79.250 92.370 C 80.487 92.701, 82.063 92.979, 82.750 92.986 C 83.438 92.994, 84 93.675, 84 94.500 C 84 95.700, 85.500 96, 91.500 96 C 97.500 96, 99 95.700, 99 94.500 C 99 93.262, 100.833 93, 109.500 93 C 118.167 93, 120 93.262, 120 94.500 C 120 95.548, 121.056 96, 123.500 96 C 125.944 96, 127 95.548, 127 94.500 C 127 93.675, 127.626 93, 128.392 93 C 130.124 93, 131.247 97.169, 130.411 100.500 C 129.785 102.991, 129.742 103, 117.892 103 C 106.667 103, 106 103.112, 106 105 C 106 106.333, 105.333 107, 104 107 C 102.274 107, 102 107.667, 102 111.875 C 102 116.528, 102.142 116.778, 105.103 117.371 C 108.620 118.074, 110 117.530, 110 115.441 C 110 114.324, 111.572 114, 117 114 C 122.556 114, 124 114.310, 124 115.500 C 124 116.325, 124.612 117, 125.360 117 C 126.278 117, 126.910 118.840, 127.304 122.656 C 127.625 125.767, 128.452 128.661, 129.142 129.088 C 129.862 129.533, 130.575 132.662, 130.815 136.432 L 131.233 143 125.616 143 C 121.291 143, 120 143.345, 120 144.500 C 120 145.466, 119.022 146.005, 117.250 146.014 C 112.968 146.035, 110 147.101, 110 148.617 C 110 149.564, 108.739 150, 106 150 C 103.254 150, 102 150.435, 102 151.389 C 102 152.184, 100.505 153.058, 98.500 153.434 C 96.405 153.827, 95 154.675, 95 155.545 C 95 156.345, 94.100 157, 93 157 C 91.667 157, 91 157.667, 91 159 C 91 160.100, 90.375 161, 89.611 161 C 88.816 161, 87.942 162.495, 87.566 164.500 C 86.992 167.562, 86.540 168, 83.955 168 C 81.511 168, 81 167.589, 81 165.625 C 81 161.120, 79.746 157, 78.375 157 C 77.375 157, 77 155.500, 77 151.500 L 77 146 82.500 146 L 88 146 88 142.500 L 88 139 78.906 139 C 70.654 139, 69.764 139.185, 69.290 141 C 69.002 142.100, 68.144 143, 67.383 143 C 66.469 143, 66 144.187, 66 146.500 C 66 148.944, 66.452 150, 67.500 150 C 68.412 150, 69 150.931, 69 152.375 C 69 156.880, 70.254 161, 71.625 161 C 72.606 161, 73 162.417, 73 165.950 C 73 169.456, 73.469 171.163, 74.606 171.799 C 75.572 172.340, 76.420 174.551, 76.736 177.349 C 77.076 180.365, 77.742 182, 78.630 182 C 79.384 182, 80 182.900, 80 184 C 80 185.667, 80.667 186, 84 186 C 87.333 186, 88 185.667, 88 184 C 88 182.889, 88.667 182, 89.500 182 C 90.466 182, 91.005 181.022, 91.014 179.250 C 91.035 174.968, 92.101 172, 93.617 172 C 94.377 172, 95 171.100, 95 170 C 95 168.900, 95.655 168, 96.455 168 C 97.325 168, 98.173 166.595, 98.566 164.500 C 99.163 161.318, 99.530 161, 102.611 161 C 105.333 161, 106 160.607, 106 159 C 106 157.267, 106.667 157, 111 157 C 114.778 157, 116 156.633, 116 155.500 C 116 154.316, 117.423 153.997, 122.750 153.986 C 126.463 153.979, 130.512 153.701, 131.750 153.370 C 133.817 152.816, 134 153.102, 134 156.883 C 134 160.921, 133.933 161, 130.500 161 C 128.056 161, 127 161.452, 127 162.500 C 127 163.325, 126.283 164, 125.406 164 C 124.530 164, 123.577 164.900, 123.290 166 C 122.926 167.392, 121.926 168, 120 168 C 118.074 168, 117.074 168.608, 116.710 170 C 116.423 171.100, 115.470 172, 114.594 172 C 113.717 172, 113 172.575, 113 173.278 C 113 173.981, 112.100 175.326, 111 176.268 C 109.900 177.210, 109 178.885, 109 179.990 C 109 181.110, 108.336 182, 107.500 182 C 106.667 182, 106 182.889, 106 184 C 106 185.333, 105.333 186, 104 186 C 102.667 186, 102 186.667, 102 188 C 102 189.333, 101.333 190, 100 190 C 98.381 190, 98 190.667, 98 193.500 C 98 195.944, 97.548 197, 96.500 197 C 95.675 197, 95 197.623, 95 198.383 C 95 199.144, 94.100 200.002, 93 200.290 C 91.900 200.577, 91 201.530, 91 202.406 C 91 203.283, 90.325 204, 89.500 204 C 88.452 204, 88 205.056, 88 207.500 C 88 210.333, 87.619 211, 86 211 C 84.381 211, 84 211.667, 84 214.500 C 84 216.944, 83.548 218, 82.500 218 C 81.667 218, 81 218.889, 81 220 C 81 221.333, 80.333 222, 79 222 C 77.381 222, 77 222.667, 77 225.500 C 77 228.333, 76.619 229, 75 229 C 73.667 229, 73 229.667, 73 231 C 73 232.100, 72.345 233, 71.545 233 C 70.675 233, 69.827 234.405, 69.434 236.500 C 69.058 238.505, 68.184 240, 67.389 240 C 64.985 240, 65.882 242.754, 68.500 243.411 C 72.731 244.473, 75.813 243.126, 76.521 239.906 C 76.872 238.308, 77.798 237, 78.579 237 C 79.361 237, 80 236.100, 80 235 C 80 233.667, 80.667 233, 82 233 C 83.619 233, 84 232.333, 84 229.500 C 84 226.667, 84.381 226, 86 226 C 87.333 226, 88 225.333, 88 224 C 88 222.900, 88.625 222, 89.389 222 C 90.184 222, 91.058 220.505, 91.434 218.500 C 91.827 216.405, 92.675 215, 93.545 215 C 94.345 215, 95 214.100, 95 213 C 95 211.900, 95.655 211, 96.455 211 C 97.325 211, 98.173 209.595, 98.566 207.500 C 98.942 205.495, 99.816 204, 100.611 204 C 101.375 204, 102 203.377, 102 202.617 C 102 201.856, 102.900 200.998, 104 200.710 C 105.197 200.397, 106 199.346, 106 198.094 C 106 196.899, 106.644 196, 107.500 196 C 108.325 196, 109 195.325, 109 194.500 C 109 193.667, 109.889 193, 111 193 C 112.619 193, 113 192.333, 113 189.500 C 113 186.667, 113.381 186, 115 186 C 116.333 186, 117 185.333, 117 184 C 117 182.889, 117.667 182, 118.500 182 C 119.495 182, 120 181.005, 120 179.045 C 120 176.476, 120.444 176.007, 123.406 175.452 C 126.307 174.907, 126.907 174.307, 127.452 171.406 C 128.001 168.479, 128.491 168, 130.936 168 L 133.781 168 134.500 179 C 135.048 187.382, 135.550 190, 136.609 190 C 137.532 190, 138 191.178, 138 193.500 C 138 195.944, 137.548 197, 136.500 197 C 135.310 197, 135 198.444, 135 204 C 135 209.556, 135.310 211, 136.500 211 C 137.333 211, 138 211.889, 138 213 C 138 214.100, 137.392 215, 136.648 215 C 134.887 215, 134.014 225.987, 134.006 248.250 C 134.001 262.470, 133.773 265, 132.500 265 C 131.278 265, 131 266.667, 131 274 L 131 283 134.500 283 C 136.813 283, 138 282.531, 138 281.617 C 138 280.856, 138.900 279.998, 140 279.710 C 141.914 279.210, 142 278.346, 142 259.594 C 142 242.844, 142.218 240, 143.500 240 C 144.764 240, 145 237.722, 145 225.500 L 145 211 148.250 211.014 C 153 211.034, 156 212.041, 156 213.617 C 156 214.377, 156.900 215, 158 215 C 159.111 215, 160 215.667, 160 216.500 C 160 217.466, 160.978 218.005, 162.750 218.014 C 167.032 218.035, 170 219.101, 170 220.617 C 170 221.627, 171.484 222, 175.500 222 C 180.333 222, 181 222.242, 181 224 C 181 225.619, 181.667 226, 184.500 226 C 186.944 226, 188 226.452, 188 227.500 C 188 228.555, 189.066 229, 191.594 229 C 194.346 229, 195.310 229.468, 195.710 231 C 196.143 232.656, 197.074 233, 201.117 233 C 204.617 233, 206 233.393, 206 234.389 C 206 235.184, 207.495 236.058, 209.500 236.434 C 211.595 236.827, 213 237.675, 213 238.545 C 213 239.532, 214.089 240, 216.383 240 C 218.926 240, 219.897 240.497, 220.290 242 C 220.723 243.655, 221.647 243.998, 225.656 243.986 C 231.919 243.969, 235 243.110, 235 241.383 C 235 240.469, 233.813 240, 231.500 240 C 228.667 240, 228 239.619, 228 238 C 228 236.381, 227.333 236, 224.500 236 C 222.056 236, 221 235.548, 221 234.500 C 221 233.452, 219.944 233, 217.500 233 C 214.667 233, 214 232.619, 214 231 C 214 229.667, 213.333 229, 212 229 C 210.900 229, 210 228.365, 210 227.588 C 210 226.720, 208.459 225.915, 206 225.500 C 203.541 225.085, 202 224.280, 202 223.412 C 202 222.465, 200.848 222, 198.500 222 C 196.104 222, 195 221.541, 195 220.545 C 195 219.675, 193.595 218.827, 191.500 218.434 C 189.495 218.058, 188 217.184, 188 216.389 C 188 215.468, 186.820 215, 184.500 215 C 182.187 215, 181 214.531, 181 213.617 C 181 212.041, 178 211.034, 173.250 211.014 C 171.156 211.005, 170 210.508, 170 209.617 C 170 207.682, 166.804 207.029, 157.250 207.014 C 150.589 207.003, 149 206.711, 149 205.500 C 149 204.667, 148.111 204, 147 204 C 145.067 204, 145 203.333, 145 184 C 145 166.889, 144.783 164, 143.500 164 C 142.675 164, 142 163.325, 142 162.500 C 142 161.675, 142.675 161, 143.500 161 C 144.652 161, 145 159.722, 145 155.500 L 145 150 160.883 150 C 175.926 150, 176.794 150.106, 177.290 152 C 177.577 153.100, 178.530 154, 179.406 154 C 180.283 154, 181 154.675, 181 155.500 C 181 156.325, 181.675 157, 182.500 157 C 183.325 157, 184 157.627, 184 158.393 C 184 159.159, 183.325 160.045, 182.500 160.362 C 181.675 160.678, 181 161.851, 181 162.969 C 181 164.108, 180.341 165, 179.500 165 C 178.675 165, 178 165.675, 178 166.500 C 178 167.333, 177.111 168, 176 168 C 174.667 168, 174 168.667, 174 170 C 174 171.619, 173.333 172, 170.500 172 C 168.056 172, 167 172.452, 167 173.500 C 167 174.548, 165.944 175, 163.500 175 C 160.964 175, 160 174.561, 160 173.406 C 160 172.530, 159.100 171.577, 158 171.290 C 156.900 171.002, 156 170.144, 156 169.383 C 156 168.469, 154.813 168, 152.500 168 C 149.667 168, 149 168.381, 149 170 C 149 171.111, 149.667 172, 150.500 172 C 151.325 172, 152 172.675, 152 173.500 C 152 174.333, 152.889 175, 154 175 C 155.333 175, 156 175.667, 156 177 C 156 178.619, 156.667 179, 159.500 179 C 161.944 179, 163 179.452, 163 180.500 C 163 181.333, 163.889 182, 165 182 C 166.111 182, 167 181.333, 167 180.500 C 167 179.363, 168.233 179, 172.094 179 C 176.346 179, 177.274 178.670, 177.710 177 C 178 175.893, 179.074 175, 180.117 175 C 181.152 175, 182 174.361, 182 173.579 C 182 172.798, 183.321 171.869, 184.935 171.514 C 187.139 171.030, 188.030 170.139, 188.514 167.935 C 188.869 166.321, 189.798 165, 190.579 165 C 191.681 165, 192 163.314, 192 157.500 C 192 150.667, 191.822 150, 190 150 C 188.889 150, 188 149.333, 188 148.500 C 188 147.675, 187.283 147, 186.406 147 C 185.530 147, 184.590 146.148, 184.318 145.107 C 183.924 143.601, 182.528 143.075, 177.491 142.536 C 173.228 142.079, 170.970 141.363, 170.578 140.343 C 169.662 137.956, 147.259 138.779, 145.878 141.250 C 143.917 144.761, 142.001 143.285, 141.986 138.250 C 141.969 132.077, 141.103 129, 139.383 129 C 138.329 129, 138 127.219, 138 121.500 C 138 115.781, 138.329 114, 139.383 114 C 140.144 114, 141.002 114.900, 141.290 116 C 141.764 117.815, 142.654 118, 150.906 118 C 158.323 118, 160 118.277, 160 119.500 C 160 120.325, 160.623 121, 161.383 121 C 162.144 121, 163.014 121.947, 163.317 123.105 C 164.333 126.990, 166.487 124.558, 166.802 119.171 C 167.019 115.463, 167.514 114, 168.552 114 C 171.600 114, 169.917 111.075, 166.500 110.434 C 164.495 110.058, 163 109.184, 163 108.389 C 163 106.973, 153.978 106.323, 142.750 106.928 L 138 107.184 138 98.092 C 138 89.667, 138.147 89, 140 89 C 141.810 89, 142 88.333, 142 82 C 142 76.444, 142.310 75, 143.500 75 C 144.700 75, 145 73.500, 145 67.500 C 145 60.667, 145.178 60, 147 60 C 148.111 60, 149 59.333, 149 58.500 C 149 57.675, 149.675 57, 150.500 57 C 151.333 57, 152 56.111, 152 55 C 152 53.092, 152.667 53, 166.500 53 L 181 53 181 60 C 181 66.333, 181.190 67, 183 67 C 184.333 67, 185 66.333, 185 65 C 185 63.900, 185.616 63, 186.368 63 C 187.220 63, 187.950 61.410, 188.301 58.790 C 189.019 53.436, 188.147 49, 186.375 49 C 185.619 49, 185 48.365, 185 47.588 C 185 46.720, 183.459 45.915, 181 45.500 C 178.541 45.085, 177 44.280, 177 43.412 C 177 42.260, 174.305 42, 162.383 42 L 147.767 42 148.370 39.750 C 148.701 38.513, 148.979 34.462, 148.986 30.750 C 148.997 25.423, 149.316 24, 150.500 24 C 151.583 24, 152 22.889, 152 20 C 152 16.270, 151.814 16.009, 149.250 16.136 C 147.738 16.211, 145.502 16.465, 144.283 16.701 M 95 58.500 C 95 59.548, 93.944 60, 91.500 60 C 88.124 60, 88 60.133, 87.991 63.750 C 87.987 65.813, 87.699 69.862, 87.352 72.750 C 86.731 77.917, 86.763 78, 89.361 78 C 91.040 78, 92 77.454, 92 76.500 C 92 75.675, 92.675 75, 93.500 75 C 94.333 75, 95 74.111, 95 73 C 95 71.381, 95.667 71, 98.500 71 C 100.944 71, 102 70.548, 102 69.500 C 102 68.675, 102.627 68, 103.393 68 C 104.159 68, 105.045 68.675, 105.362 69.500 C 105.678 70.325, 106.626 71, 107.469 71 C 108.311 71, 109 70.325, 109 69.500 C 109 68.675, 109.563 67.994, 110.250 67.986 C 110.938 67.979, 112.451 67.718, 113.612 67.406 C 115.180 66.985, 115.865 67.375, 116.269 68.919 C 116.670 70.453, 117.614 71, 119.861 71 C 122.553 71, 122.986 71.409, 123.566 74.500 C 124.521 79.590, 126.618 78.883, 127.277 73.250 C 127.974 67.287, 127.183 63, 125.383 63 C 124.623 63, 124 62.325, 124 61.500 C 124 60.417, 122.889 60, 120 60 C 117.111 60, 116 59.583, 116 58.500 C 116 57.262, 114.167 57, 105.500 57 C 96.833 57, 95 57.262, 95 58.500 M 156 72.500 C 156 73.325, 155.325 74, 154.500 74 C 153.667 74, 153 74.889, 153 76 C 153 77.111, 153.667 78, 154.500 78 C 155.333 78, 156 78.889, 156 80 C 156 81.822, 156.667 82, 163.500 82 C 169.500 82, 171 82.300, 171 83.500 C 171 84.325, 171.675 85, 172.500 85 C 173.333 85, 174 85.889, 174 87 C 174 88.100, 174.623 89, 175.383 89 C 176.144 89, 177.002 89.900, 177.290 91 C 177.577 92.100, 178.490 93, 179.318 93 C 181.207 93, 182.400 86.649, 181.456 81.619 C 180.835 78.306, 180.491 78, 177.389 78 C 175.170 78, 174 77.522, 174 76.617 C 174 75.041, 171 74.034, 166.250 74.014 C 164.034 74.004, 163 73.523, 163 72.500 C 163 71.452, 161.944 71, 159.500 71 C 157.056 71, 156 71.452, 156 72.500" stroke="none" fill="black" fill-rule="evenodd"/>
</svg>