<svg xmlns="http://www.w3.org/2000/svg" width="300" height="300" viewBox="0 0 300 300" version="1.1">
	<path d="M 123 21 C 123 22.111, 122.333 23, 121.500 23 C 120.278 23, 120 24.667, 120 32 L 120 41 111 41 C 104.004 41, 102 41.308, 102 42.383 C 102 43.144, 101.100 44.002, 100 44.290 C 98.424 44.702, 98 45.654, 98 48.781 C 98 54.766, 99.088 59, 100.625 59 C 101.381 59, 102 59.675, 102 60.500 C 102 61.325, 102.623 62, 103.383 62 C 104.885 62, 105.965 59.040, 105.986 54.861 C 105.998 52.641, 106.555 52.118, 109.500 51.566 C 111.595 51.173, 113 50.325, 113 49.455 C 113 48.459, 114.104 48, 116.500 48 C 118.944 48, 120 48.452, 120 49.500 C 120 50.325, 120.623 51, 121.383 51 C 123.330 51, 123.614 53.727, 123.177 68.250 C 122.875 78.317, 122.500 81, 121.397 81 C 120.290 81, 120 83.177, 120 91.500 C 120 101.333, 119.873 102, 118 102 C 116.900 102, 116 102.629, 116 103.399 C 116 104.396, 113.995 104.998, 109 105.500 C 104.005 106.002, 102 106.604, 102 107.601 C 102 108.696, 100.043 109, 93 109 C 84.667 109, 84 109.148, 84 111 C 84 112.619, 83.333 113, 80.500 113 C 77.167 113, 77 112.833, 77 109.500 C 77 107.056, 77.452 106, 78.500 106 C 79.333 106, 80 105.111, 80 104 C 80 102.667, 80.667 102, 82 102 C 83.619 102, 84 101.333, 84 98.500 L 84 95 78.500 95 C 74.278 95, 73 95.348, 73 96.500 C 73 97.325, 72.375 98, 71.611 98 C 70.816 98, 69.942 99.495, 69.566 101.500 C 69.173 103.595, 68.325 105, 67.455 105 C 66.291 105, 66 106.777, 66 113.883 C 66 121.926, 65.811 122.816, 64 123.290 C 62.900 123.577, 62 124.530, 62 125.406 C 62 126.283, 61.325 127, 60.500 127 C 59.300 127, 59 128.500, 59 134.500 C 59 140.353, 59.315 142, 60.437 142 C 61.327 142, 61.993 143.237, 62.187 145.250 C 62.492 148.416, 62.634 148.508, 67.716 148.801 L 72.931 149.102 73.216 138.301 L 73.500 127.500 76.750 127.187 C 78.763 126.993, 80 126.327, 80 125.437 C 80 124.646, 80.900 124, 82 124 C 83.333 124, 84 123.333, 84 122 C 84 120.242, 84.667 120, 89.500 120 C 93.472 120, 95 119.622, 95 118.639 C 95 117.249, 101.622 116.026, 109.250 116.009 C 111.913 116.003, 113 115.565, 113 114.500 C 113 113.283, 114.622 113, 121.594 113 C 129.408 113, 130.236 112.815, 130.722 110.956 C 131.246 108.950, 131.774 108.918, 159.199 109.206 C 184.591 109.473, 187.232 109.660, 188.121 111.250 C 188.847 112.549, 190.374 113, 194.050 113 C 198.333 113, 199 113.269, 199 115 C 199 116.100, 198.345 117, 197.545 117 C 196.675 117, 195.827 118.405, 195.434 120.500 C 195.058 122.505, 194.184 124, 193.389 124 C 192.625 124, 192 124.675, 192 125.500 C 192 126.544, 190.950 127, 188.550 127 C 186.330 127, 184.725 127.624, 184.050 128.750 C 183.050 130.417, 182.950 130.417, 181.950 128.750 C 181.177 127.460, 179.598 127, 175.950 127 C 172.393 127, 171 126.609, 171 125.611 C 171 124.816, 169.505 123.942, 167.500 123.566 C 165.405 123.173, 164 122.325, 164 121.455 C 164 120.358, 162.646 120, 158.500 120 C 154.401 120, 153 120.364, 153 121.428 C 153 122.409, 151.278 123.071, 147.500 123.543 C 143.812 124.004, 142 124.687, 142 125.615 C 142 126.377, 141.100 127, 140 127 C 138.900 127, 138 127.655, 138 128.455 C 138 129.325, 136.595 130.173, 134.500 130.566 C 132.575 130.927, 131 131.797, 131 132.500 C 131 133.203, 129.425 134.073, 127.500 134.434 C 125.405 134.827, 124 135.675, 124 136.545 C 124 137.345, 123.100 138, 122 138 C 120.900 138, 120 138.635, 120 139.412 C 120 140.280, 118.459 141.085, 116 141.500 C 113.541 141.915, 112 142.720, 112 143.588 C 112 144.481, 110.929 145, 109.088 145 C 106.470 145, 106.108 145.404, 105.500 149 C 105.085 151.459, 104.280 153, 103.412 153 C 102.635 153, 102 153.675, 102 154.500 C 102 155.690, 103.444 156, 109 156 C 114.237 156, 116 155.657, 116 154.639 C 116 153.214, 122.665 152.025, 130.750 152.009 C 133.857 152.002, 135 151.597, 135 150.500 C 135 149.310, 136.444 149, 142 149 C 147.556 149, 149 148.690, 149 147.500 C 149 146.452, 150.056 146, 152.500 146 C 154.944 146, 156 146.452, 156 147.500 C 156 148.325, 155.325 149, 154.500 149 C 153.675 149, 153 149.625, 153 150.389 C 153 151.184, 151.505 152.058, 149.500 152.434 C 147.405 152.827, 146 153.675, 146 154.545 C 146 155.345, 145.152 156, 144.117 156 C 143.074 156, 142 156.893, 141.710 158 C 141.423 159.100, 140.470 160, 139.594 160 C 138.717 160, 138 160.675, 138 161.500 C 138 162.333, 137.111 163, 136 163 C 134.667 163, 134 163.667, 134 165 C 134 166.619, 133.333 167, 130.500 167 C 128.180 167, 127 167.468, 127 168.389 C 127 169.184, 125.505 170.058, 123.500 170.434 C 121.405 170.827, 120 171.675, 120 172.545 C 120 173.345, 119.100 174, 118 174 C 116.900 174, 116 174.655, 116 175.455 C 116 176.325, 114.595 177.173, 112.500 177.566 C 110.495 177.942, 109 178.816, 109 179.611 C 109 180.375, 108.100 181, 107 181 C 105.900 181, 105 181.655, 105 182.455 C 105 183.325, 103.595 184.173, 101.500 184.566 C 99.495 184.942, 98 185.816, 98 186.611 C 98 187.497, 96.879 188, 94.906 188 C 92.654 188, 91.671 188.544, 91.290 190 C 90.848 191.688, 89.926 192, 85.383 192 C 81.265 192, 80 192.352, 80 193.500 C 80 194.325, 79.325 195, 78.500 195 C 77.417 195, 77 196.111, 77 199 L 77 203 96.531 203 C 112.970 203, 116.154 202.762, 116.638 201.500 C 117.278 199.833, 120 199.428, 120 201 C 120 202.572, 122.722 202.167, 123.362 200.500 C 123.723 199.559, 125.252 199, 127.469 199 L 131 199 131 217 C 131 232.333, 131.222 235, 132.500 235 C 133.333 235, 134 235.889, 134 237 C 134 238.111, 133.333 239, 132.500 239 C 131.367 239, 131 240.222, 131 244 C 131 247.778, 131.367 249, 132.500 249 C 133.433 249, 134 249.944, 134 251.500 C 134 253.056, 133.433 254, 132.500 254 C 131.675 254, 131 254.675, 131 255.500 C 131 256.333, 130.111 257, 129 257 C 127.107 257, 127 257.667, 127 269.500 L 127 282 131 282 C 133.889 282, 135 281.583, 135 280.500 C 135 279.675, 135.675 279, 136.500 279 C 137.583 279, 138 277.889, 138 275 C 138 272.261, 138.436 271, 139.383 271 C 141.462 271, 141.971 267.720, 141.986 254.250 L 142 242 145.875 242 C 151.772 242, 156 243.096, 156 244.625 C 156 245.661, 157.727 246, 163 246 C 168.273 246, 170 246.339, 170 247.375 C 170 248.948, 174.259 250, 180.625 250 C 183.847 250, 185 250.395, 185 251.500 C 185 252.466, 185.978 253.005, 187.750 253.014 C 192.032 253.035, 195 254.101, 195 255.617 C 195 256.531, 196.187 257, 198.500 257 C 200.800 257, 202 257.471, 202 258.372 C 202 259.200, 203.587 259.998, 206 260.384 C 208.588 260.798, 210 261.549, 210 262.512 C 210 263.333, 210.896 264, 212 264 C 213.100 264, 214 264.655, 214 265.455 C 214 266.325, 215.405 267.173, 217.500 267.566 C 219.505 267.942, 221 268.816, 221 269.611 C 221 270.375, 221.689 271, 222.531 271 C 223.374 271, 224.311 271.648, 224.615 272.439 C 224.919 273.230, 226.434 274.156, 227.982 274.496 C 229.593 274.850, 231.014 275.945, 231.305 277.057 C 231.584 278.126, 232.530 279, 233.406 279 C 234.283 279, 235 279.675, 235 280.500 C 235 281.548, 236.056 282, 238.500 282 C 241.833 282, 242 281.833, 242 278.500 C 242 276.056, 241.548 275, 240.500 275 C 239.675 275, 239 274.283, 239 273.406 C 239 272.530, 238.100 271.577, 237 271.290 C 235.900 271.002, 235 270.197, 235 269.500 C 235 268.803, 234.100 267.998, 233 267.710 C 231.900 267.423, 231 266.470, 231 265.594 C 231 264.717, 230.325 264, 229.500 264 C 228.675 264, 228 263.345, 228 262.545 C 228 261.675, 226.595 260.827, 224.500 260.434 C 222.495 260.058, 221 259.184, 221 258.389 C 221 257.625, 220.100 257, 219 257 C 217.667 257, 217 256.333, 217 255 C 217 253.381, 216.333 253, 213.500 253 C 211.056 253, 210 252.548, 210 251.500 C 210 250.445, 208.934 250, 206.406 250 C 203.654 250, 202.690 249.532, 202.290 248 C 201.857 246.344, 200.926 246, 196.883 246 C 193.392 246, 192 245.606, 192 244.617 C 192 242.897, 188.923 242.031, 182.750 242.014 L 178 242 178 238.500 C 178 235.167, 178.167 235, 181.500 235 L 185 235 185 222.500 C 185 210.667, 184.893 210, 183 210 C 181.381 210, 181 209.333, 181 206.500 C 181 204.138, 180.537 203, 179.575 203 C 178.500 203, 177.978 200.793, 177.446 194 C 176.929 187.385, 176.379 185, 175.371 185 C 174.617 185, 174 184.100, 174 183 C 174 180.095, 167.470 180.095, 166.710 183 C 166.274 184.670, 165.346 185, 161.094 185 C 157.233 185, 156 185.363, 156 186.500 C 156 187.735, 154.188 188.002, 145.750 188.014 C 134.243 188.029, 131 188.601, 131 190.617 C 131 191.721, 128.476 192, 118.500 192 C 108.229 192, 106 191.741, 106 190.545 C 106 189.675, 107.405 188.827, 109.500 188.434 C 111.425 188.073, 113 187.203, 113 186.500 C 113 185.797, 114.575 184.927, 116.500 184.566 C 118.595 184.173, 120 183.325, 120 182.455 C 120 181.655, 120.900 181, 122 181 C 123.100 181, 124 180.375, 124 179.611 C 124 178.816, 125.495 177.942, 127.500 177.566 C 129.595 177.173, 131 176.325, 131 175.455 C 131 174.459, 132.104 174, 134.500 174 C 137.333 174, 138 173.619, 138 172 C 138 170.667, 138.667 170, 140 170 C 141.111 170, 142 169.333, 142 168.500 C 142 167.675, 142.689 167, 143.531 167 C 144.374 167, 145.311 166.352, 145.615 165.561 C 145.919 164.770, 147.479 163.834, 149.084 163.482 C 150.688 163.129, 152 162.202, 152 161.421 C 152 160.639, 152.900 160, 154 160 C 155.333 160, 156 159.333, 156 158 C 156 156.394, 156.667 156, 159.383 156 C 161.926 156, 162.897 155.503, 163.290 154 C 163.577 152.900, 164.530 152, 165.406 152 C 166.283 152, 167 151.325, 167 150.500 C 167 149.667, 167.889 149, 169 149 C 170.333 149, 171 148.333, 171 147 C 171 145.889, 171.667 145, 172.500 145 C 173.325 145, 174 144.325, 174 143.500 C 174 142.675, 174.675 142, 175.500 142 C 176.333 142, 177 141.111, 177 140 C 177 138.889, 176.333 138, 175.500 138 C 174.675 138, 174 137.325, 174 136.500 C 174 135.452, 172.944 135, 170.500 135 C 168.056 135, 167 135.452, 167 136.500 C 167 137.722, 165.333 138, 158 138 C 150.667 138, 149 138.278, 149 139.500 C 149 140.565, 147.913 141.003, 145.250 141.009 C 143.188 141.013, 139.137 141.301, 136.250 141.648 C 131.356 142.236, 131 142.133, 131 140.139 C 131 138.361, 131.591 138, 134.500 138 C 136.896 138, 138 137.541, 138 136.545 C 138 135.675, 139.405 134.827, 141.500 134.434 C 143.425 134.073, 145 133.195, 145 132.482 C 145 131.529, 147.697 131.097, 155.213 130.844 C 168.685 130.390, 174 130.863, 174 132.515 C 174 133.419, 176.302 134.045, 181.379 134.521 C 189.770 135.307, 195 134.501, 195 132.421 C 195 131.639, 195.900 131, 197 131 C 198.333 131, 199 130.333, 199 129 C 199 127.667, 199.667 127, 201 127 C 202.619 127, 203 126.333, 203 123.500 C 203 120.667, 203.381 120, 205 120 C 206.619 120, 207 119.333, 207 116.500 C 207 114.056, 207.452 113, 208.500 113 C 209.333 113, 210 112.111, 210 111 C 210 109.900, 209.377 109, 208.617 109 C 207.856 109, 206.998 108.100, 206.710 107 C 206.423 105.900, 205.470 105, 204.594 105 C 203.717 105, 203 104.325, 203 103.500 C 203 102.272, 201.278 102, 193.500 102 C 186.219 102, 184 101.687, 184 100.658 C 184 99.608, 180.050 99.173, 165.897 98.660 C 144.427 97.882, 131 98.647, 131 100.648 C 131 101.527, 129.775 102, 127.500 102 C 124.167 102, 124 101.833, 124 98.500 C 124 96.215, 124.472 95, 125.361 95 C 126.254 95, 126.932 93.223, 127.334 89.825 C 127.671 86.979, 128.522 84.297, 129.224 83.864 C 130.134 83.302, 130.593 79.052, 130.826 69.038 C 131.088 57.710, 131.426 55, 132.576 55 C 133.537 55, 134 53.862, 134 51.500 L 134 48 142.883 48 C 150.926 48, 151.816 48.189, 152.290 50 C 152.724 51.662, 153.654 52, 157.790 52 C 162.423 52, 162.804 51.810, 163.300 49.250 C 163.594 47.737, 163.590 45.263, 163.292 43.750 C 162.781 41.158, 162.441 41, 157.375 41 C 152.667 41, 152 40.752, 152 39 C 152 37.159, 151.333 37, 143.625 37 L 135.250 37 134.625 33.875 C 134.281 32.156, 134 29.681, 134 28.375 C 134 26.931, 133.412 26, 132.500 26 C 131.452 26, 131 24.944, 131 22.500 C 131 19.083, 130.905 19, 127 19 C 123.667 19, 123 19.333, 123 21 M 154.750 195.717 L 149 196.100 149 199.550 C 149 202.826, 148.824 203, 145.500 203 L 142 203 142 219.500 C 142 233.500, 142.227 236, 143.500 236 C 144.325 236, 145 236.650, 145 237.446 C 145 238.641, 147.207 238.857, 157.750 238.696 L 170.500 238.500 170.261 235.359 C 170.044 232.510, 170.340 232.159, 173.439 231.578 C 176.202 231.059, 176.980 230.365, 177.512 227.947 C 178.438 223.730, 177.147 217, 175.412 217 C 174.465 217, 174 215.848, 174 213.500 C 174 210.667, 173.619 210, 172 210 C 170.381 210, 170 209.333, 170 206.500 C 170 204.121, 169.539 203, 168.560 203 C 167.619 203, 167.013 201.703, 166.810 199.250 C 166.462 195.043, 166.169 194.957, 154.750 195.717 M 111.250 206.684 C 110.013 206.934, 109 207.783, 109 208.570 C 109 209.538, 107.869 210, 105.500 210 C 102.667 210, 102 210.381, 102 212 C 102 213.333, 101.333 214, 100 214 C 98.889 214, 98 214.667, 98 215.500 C 98 216.325, 97.325 217, 96.500 217 C 95.667 217, 95 217.889, 95 219 C 95 220.333, 94.333 221, 93 221 C 91.667 221, 91 221.667, 91 223 C 91 224.111, 90.333 225, 89.500 225 C 88.675 225, 88 225.675, 88 226.500 C 88 227.333, 87.111 228, 86 228 C 84.381 228, 84 228.667, 84 231.500 C 84 234.333, 83.619 235, 82 235 C 80.667 235, 80 235.667, 80 237 C 80 238.111, 79.333 239, 78.500 239 C 77.675 239, 77 239.623, 77 240.383 C 77 241.144, 76.100 242.002, 75 242.290 C 73.900 242.577, 73 243.530, 73 244.406 C 73 245.283, 72.375 246, 71.611 246 C 70.816 246, 69.942 247.495, 69.566 249.500 C 69.173 251.595, 68.325 253, 67.455 253 C 66.655 253, 66 253.900, 66 255 C 66 256.100, 65.345 257, 64.545 257 C 63.683 257, 62.831 258.384, 62.453 260.400 C 61.418 265.918, 62.121 267.462, 65.834 267.819 C 68.494 268.075, 69.258 267.728, 69.692 266.069 C 70.105 264.491, 71.037 264, 73.617 264 L 77 264 77 257.117 C 77 251.074, 77.244 250.169, 79 249.710 C 80.100 249.423, 81 248.470, 81 247.594 C 81 246.717, 81.675 246, 82.500 246 C 83.333 246, 84 245.111, 84 244 C 84 242.667, 84.667 242, 86 242 C 87.333 242, 88 241.333, 88 240 C 88 238.900, 88.639 238, 89.421 238 C 90.202 238, 91.138 236.650, 91.500 235 C 91.862 233.350, 92.798 232, 93.579 232 C 94.361 232, 95 231.100, 95 230 C 95 228.900, 95.623 228, 96.383 228 C 97.144 228, 98.002 227.100, 98.290 226 C 98.577 224.900, 99.530 224, 100.406 224 C 101.283 224, 102 223.325, 102 222.500 C 102 221.667, 102.889 221, 104 221 C 105.100 221, 106 220.345, 106 219.545 C 106 218.675, 107.405 217.827, 109.500 217.434 C 111.505 217.058, 113 216.184, 113 215.389 C 113 214.468, 114.180 214, 116.500 214 C 119.833 214, 120 214.167, 120 217.500 C 120 219.944, 120.452 221, 121.500 221 C 122.325 221, 123 221.675, 123 222.500 C 123 223.333, 123.889 224, 125 224 C 126.556 224, 127 223.333, 127 221 C 127 219.046, 126.494 218, 125.550 218 C 124.486 218, 124.020 216.469, 123.800 212.250 L 123.500 206.500 118.500 206.364 C 115.750 206.290, 112.487 206.433, 111.250 206.684 M 152.188 211.739 C 152.690 214.345, 156 214.636, 156 212.073 C 156 210.642, 155.358 210, 153.927 210 C 152.496 210, 151.957 210.539, 152.188 211.739" stroke="none" fill="black" fill-rule="evenodd"/>
</svg>