<svg xmlns="http://www.w3.org/2000/svg" width="300" height="300" viewBox="0 0 300 300" version="1.1">
	<path d="M 164 50 C 164 51.111, 163.333 52, 162.500 52 C 161.452 52, 161 53.056, 161 55.500 C 161 57.896, 160.541 59, 159.545 59 C 158.675 59, 157.827 60.405, 157.434 62.500 L 156.777 66 138.889 66 L 121 66 121 69.500 C 121 71.944, 120.548 73, 119.500 73 C 116.413 73, 118.050 75.919, 121.500 76.566 C 126.217 77.451, 132 76.288, 132 74.455 C 132 73.270, 134.041 73, 143 73 L 154 73 153.991 76.750 C 153.974 84.378, 152.751 91, 151.361 91 C 150.612 91, 150 91.900, 150 93 C 150 94.100, 149.345 95, 148.545 95 C 147.675 95, 146.827 96.405, 146.434 98.500 C 145.959 101.033, 145.255 102, 143.889 102 C 142.850 102, 142 102.655, 142 103.455 C 142 104.325, 140.595 105.173, 138.500 105.566 C 136.495 105.942, 135 106.816, 135 107.611 C 135 108.532, 133.820 109, 131.500 109 C 129.104 109, 128 109.459, 128 110.455 C 128 111.325, 126.595 112.173, 124.500 112.566 C 121.318 113.163, 121 113.530, 121 116.611 L 121 120 130 120 C 136.970 120, 139 119.690, 139 118.625 C 139 117.254, 143.120 116, 147.625 116 C 149.069 116, 150 115.412, 150 114.500 C 150 113.667, 150.889 113, 152 113 C 153.163 113, 154 113.667, 154 114.594 C 154 115.470, 153.100 116.423, 152 116.710 C 150.900 116.998, 150 117.856, 150 118.617 C 150 119.377, 149.345 120, 148.545 120 C 147.675 120, 146.827 121.405, 146.434 123.500 C 146.058 125.505, 145.184 127, 144.389 127 C 143.625 127, 143 127.623, 143 128.383 C 143 129.144, 142.100 130.002, 141 130.290 C 139.900 130.577, 139 131.530, 139 132.406 C 139 133.283, 138.325 134, 137.500 134 C 136.667 134, 136 134.889, 136 136 C 136 137.333, 135.333 138, 134 138 C 132.667 138, 132 138.667, 132 140 C 132 141.100, 131.345 142, 130.545 142 C 129.675 142, 128.827 143.405, 128.434 145.500 C 128.058 147.505, 127.184 149, 126.389 149 C 125.625 149, 125 149.717, 125 150.594 C 125 151.470, 124.100 152.423, 123 152.710 C 121.608 153.074, 121 154.074, 121 156 C 121 157.926, 120.392 158.926, 119 159.290 C 117.900 159.577, 117 160.530, 117 161.406 C 117 162.283, 116.325 163, 115.500 163 C 114.410 163, 114 164.124, 114 167.117 C 114 170.898, 114.183 171.184, 116.250 170.630 C 117.487 170.299, 119.063 170.021, 119.750 170.014 C 120.438 170.006, 121 169.377, 121 168.617 C 121 167.856, 121.900 166.998, 123 166.710 C 124.100 166.423, 125 165.470, 125 164.594 C 125 163.717, 125.655 163, 126.455 163 C 127.325 163, 128.173 161.595, 128.566 159.500 C 128.942 157.495, 129.816 156, 130.611 156 C 131.375 156, 132 155.100, 132 154 C 132 152.889, 132.667 152, 133.500 152 C 134.325 152, 135 151.283, 135 150.406 C 135 149.530, 135.874 148.584, 136.943 148.305 C 138.073 148.009, 139.152 146.584, 139.522 144.898 C 139.872 143.304, 140.798 142, 141.579 142 C 142.361 142, 143 141.100, 143 140 C 143 138.900, 143.623 138, 144.383 138 C 145.144 138, 146.002 137.100, 146.290 136 C 146.577 134.900, 147.530 134, 148.406 134 C 149.333 134, 150 134.837, 150 136 C 150 137.852, 150.667 138, 159 138 C 167.333 138, 168 138.148, 168 140 C 168 141.333, 167.333 142, 166 142 C 164.889 142, 164 142.667, 164 143.500 C 164 144.325, 163.325 145, 162.500 145 C 161.667 145, 161 145.889, 161 147 C 161 148.333, 160.333 149, 159 149 C 157.900 149, 157 149.625, 157 150.389 C 157 151.184, 155.505 152.058, 153.500 152.434 C 151.405 152.827, 150 153.675, 150 154.545 C 150 155.345, 149.100 156, 148 156 C 146.900 156, 146 156.655, 146 157.455 C 146 158.325, 144.595 159.173, 142.500 159.566 C 140.495 159.942, 139 160.816, 139 161.611 C 139 162.532, 137.820 163, 135.500 163 C 132.083 163, 132 163.095, 132 167 C 132 170.333, 132.333 171, 134 171 C 135.111 171, 136 171.667, 136 172.500 C 136 173.782, 138.833 174, 155.500 174 C 174.333 174, 175 174.068, 175 176 C 175 177.111, 174.333 178, 173.500 178 C 172.675 178, 172 178.675, 172 179.500 C 172 180.333, 171.111 181, 170 181 C 168.667 181, 168 181.667, 168 183 C 168 184.333, 167.333 185, 166 185 C 164.381 185, 164 185.667, 164 188.500 C 164 191.691, 163.745 192, 161.117 192 C 159.074 192, 158.081 192.583, 157.710 194 C 157.423 195.100, 156.523 196, 155.710 196 C 154.898 196, 153.998 196.900, 153.710 198 C 153.423 199.100, 152.470 200, 151.594 200 C 150.717 200, 150 200.675, 150 201.500 C 150 202.325, 149.377 203, 148.617 203 C 147.856 203, 146.998 203.900, 146.710 205 C 146.423 206.100, 145.470 207, 144.594 207 C 143.717 207, 143 207.675, 143 208.500 C 143 209.652, 141.722 210, 137.500 210 C 133.354 210, 132 209.642, 132 208.545 C 132 206.818, 127.097 205.717, 121.456 206.177 C 117.782 206.477, 117.477 206.737, 117.181 209.826 C 116.925 212.494, 117.271 213.258, 118.931 213.692 C 120.069 213.990, 121 214.856, 121 215.617 C 121 216.627, 122.484 217, 126.500 217 C 131.333 217, 132 217.242, 132 219 C 132 220.111, 131.333 221, 130.500 221 C 129.675 221, 129 221.675, 129 222.500 C 129 223.333, 128.111 224, 127 224 C 125.667 224, 125 224.667, 125 226 C 125 227.333, 124.333 228, 123 228 C 121.667 228, 121 228.667, 121 230 C 121 231.111, 120.333 232, 119.500 232 C 118.675 232, 118 232.675, 118 233.500 C 118 234.333, 117.111 235, 116 235 C 114.667 235, 114 235.667, 114 237 C 114 238.111, 113.333 239, 112.500 239 C 111.675 239, 111 239.675, 111 240.500 C 111 241.333, 110.111 242, 109 242 C 107.667 242, 107 242.667, 107 244 C 107 245.333, 106.333 246, 105 246 C 103.387 246, 103 246.667, 103 249.441 C 103 251.334, 103.429 253.147, 103.954 253.472 C 105.516 254.437, 110 252.895, 110 251.392 C 110 250.626, 110.900 250, 112 250 C 113.333 250, 114 249.333, 114 248 C 114 246.889, 114.667 246, 115.500 246 C 116.325 246, 117 245.283, 117 244.406 C 117 243.530, 117.900 242.577, 119 242.290 C 120.100 242.002, 121 241.144, 121 240.383 C 121 239.623, 121.900 239, 123 239 C 124.333 239, 125 238.333, 125 237 C 125 235.889, 125.667 235, 126.500 235 C 127.325 235, 128 234.325, 128 233.500 C 128 232.667, 128.889 232, 130 232 C 131.333 232, 132 231.333, 132 230 C 132 228.667, 132.667 228, 134 228 C 135.100 228, 136 227.377, 136 226.617 C 136 225.001, 139.021 224.033, 144.125 224.014 C 149.758 223.992, 154 225.114, 154 226.625 C 154 227.625, 155.500 228, 159.500 228 C 163.516 228, 165 228.373, 165 229.383 C 165 230.959, 168 231.966, 172.750 231.986 C 174.966 231.996, 176 232.477, 176 233.500 C 176 234.672, 177.367 235.003, 182.250 235.014 C 189.865 235.030, 193 235.790, 193 237.617 C 193 238.531, 194.187 239, 196.500 239 C 198.944 239, 200 239.452, 200 240.500 C 200 241.412, 200.931 242, 202.375 242 C 206.880 242, 211 243.254, 211 244.625 C 211 245.563, 212.273 246, 215 246 C 217.739 246, 219 246.436, 219 247.383 C 219 248.899, 221.968 249.965, 226.250 249.986 C 228.022 249.995, 229 250.534, 229 251.500 C 229 252.333, 229.889 253, 231 253 C 232.111 253, 233 253.667, 233 254.500 C 233 256.448, 235.614 256.448, 236.362 254.500 C 236.678 253.675, 237.626 253, 238.469 253 C 239.552 253, 240 251.976, 240 249.500 C 240 246.167, 239.833 246, 236.500 246 C 233.667 246, 233 245.619, 233 244 C 233 242.667, 232.333 242, 231 242 C 229.889 242, 229 241.333, 229 240.500 C 229 239.369, 227.783 239, 224.050 239 C 220.435 239, 218.843 238.542, 218.150 237.304 C 217.451 236.055, 215.462 235.497, 210.600 235.187 C 206.146 234.904, 204 234.353, 204 233.495 C 204 232.795, 202.425 231.927, 200.500 231.566 C 198.405 231.173, 197 230.325, 197 229.455 C 197 228.358, 195.646 228, 191.500 228 C 187.500 228, 186 227.625, 186 226.625 C 186 225.254, 181.880 224, 177.375 224 C 175.931 224, 175 223.412, 175 222.500 C 175 221.379, 173.799 220.997, 170.250 220.986 C 164.077 220.969, 161 220.103, 161 218.383 C 161 217.436, 159.739 217, 157 217 C 153.095 217, 153 216.917, 153 213.500 C 153 210.667, 153.381 210, 155 210 C 156.333 210, 157 209.333, 157 208 C 157 206.889, 157.667 206, 158.500 206 C 159.325 206, 160 205.325, 160 204.500 C 160 203.675, 160.848 203, 161.883 203 C 162.926 203, 164 202.107, 164.290 201 C 164.577 199.900, 165.530 199, 166.406 199 C 167.283 199, 168 198.325, 168 197.500 C 168 196.675, 168.717 196, 169.594 196 C 170.470 196, 171.423 195.100, 171.710 194 C 171.998 192.900, 172.856 192, 173.617 192 C 174.377 192, 175 191.100, 175 190 C 175 188.900, 175.623 188, 176.383 188 C 177.144 188, 178.002 187.100, 178.290 186 C 178.577 184.900, 179.494 184, 180.327 184 C 181.196 184, 182.122 182.722, 182.500 181 C 182.862 179.350, 183.798 178, 184.579 178 C 185.536 178, 186 176.857, 186 174.500 C 186 171.667, 186.381 171, 188 171 C 189.667 171, 190 170.333, 190 167 L 190 163 177 163 C 166.111 163, 164 163.244, 164 164.500 C 164 165.633, 162.778 166, 159 166 C 154.128 166, 154 165.924, 154 163.045 C 154 160.460, 154.438 160.008, 157.500 159.434 C 159.505 159.058, 161 158.184, 161 157.389 C 161 156.468, 162.180 156, 164.500 156 C 166.813 156, 168 155.531, 168 154.617 C 168 153.856, 168.900 152.998, 170 152.710 C 171.100 152.423, 172 151.470, 172 150.594 C 172 149.439, 172.964 149, 175.500 149 C 178.333 149, 179 148.619, 179 147 C 179 145.190, 179.667 145, 186.031 145 C 191.359 145, 193.202 145.363, 193.638 146.500 C 193.959 147.335, 195.445 148, 196.990 148 C 200.139 148, 201.266 145.581, 200.320 140.851 C 199.859 138.543, 199.225 138, 196.992 138 C 195.074 138, 194.074 137.390, 193.710 136 C 193.310 134.468, 192.346 134, 189.594 134 C 187.066 134, 186 133.555, 186 132.500 C 186 131.337, 184.681 131, 180.125 131 C 172.342 131, 168 130.060, 168 128.375 C 168 127.375, 166.500 127, 162.500 127 C 158.134 127, 157 126.671, 157 125.406 C 157 124.530, 157.900 123.577, 159 123.290 C 160.407 122.922, 161 121.926, 161 119.929 C 161 117.477, 161.476 117.001, 164.500 116.434 C 167.033 115.959, 168 115.255, 168 113.889 C 168 112.850, 168.639 112, 169.421 112 C 170.202 112, 171.138 110.650, 171.500 109 C 171.862 107.350, 172.798 106, 173.579 106 C 174.361 106, 175 105.100, 175 104 C 175 102.889, 174.333 102, 173.500 102 C 172.675 102, 172 101.325, 172 100.500 C 172 99.417, 170.889 99, 168 99 C 165.111 99, 164 99.417, 164 100.500 C 164 101.633, 162.778 102, 159 102 C 154.667 102, 154 101.733, 154 100 C 154 98.889, 154.667 98, 155.500 98 C 156.325 98, 157 97.347, 157 96.550 C 157 95.752, 157.755 94.677, 158.678 94.160 C 159.873 93.491, 160.484 91.461, 160.798 87.111 C 161.098 82.970, 161.662 81, 162.548 81 C 163.384 81, 164.104 79.013, 164.543 75.500 C 165.180 70.404, 165.424 69.999, 167.865 69.986 C 172.040 69.965, 175 68.885, 175 67.383 C 175 66.373, 176.484 66, 180.500 66 C 185.333 66, 186 65.758, 186 64 C 186 62.889, 186.667 62, 187.500 62 C 188.325 62, 189 61.325, 189 60.500 C 189 59.675, 188.325 59, 187.500 59 C 186.675 59, 186 58.345, 186 57.545 C 186 56.675, 184.595 55.827, 182.500 55.434 C 180.495 55.058, 179 54.184, 179 53.389 C 179 52.625, 178.100 52, 177 52 C 175.667 52, 175 51.333, 175 50 C 175 48.242, 174.333 48, 169.500 48 C 164.667 48, 164 48.242, 164 50 M 168 60.500 C 168 61.633, 169.222 62, 173 62 C 176.778 62, 178 61.633, 178 60.500 C 178 59.367, 176.778 59, 173 59 C 169.222 59, 168 59.367, 168 60.500 M 100 74.594 C 100 75.470, 99.100 76.423, 98 76.710 C 96.900 76.998, 96 77.856, 96 78.617 C 96 79.377, 95.325 80, 94.500 80 C 93.667 80, 93 80.889, 93 82 C 93 83.764, 93.667 84, 98.639 84 L 104.279 84 103.648 89.250 C 103.301 92.138, 103.013 95.235, 103.009 96.133 C 103.004 97.032, 102.100 98.002, 101 98.290 C 99.900 98.577, 99 99.530, 99 100.406 C 99 101.283, 98.325 102, 97.500 102 C 96.667 102, 96 102.889, 96 104 C 96 105.111, 95.333 106, 94.500 106 C 93.675 106, 93 106.675, 93 107.500 C 93 108.325, 92.150 109, 91.111 109 C 89.752 109, 89.042 109.961, 88.580 112.428 C 88.060 115.196, 87.366 115.980, 84.968 116.507 C 83.336 116.866, 82 117.798, 82 118.579 C 82 119.361, 81.100 120, 80 120 C 78.667 120, 78 120.667, 78 122 C 78 123.333, 77.333 124, 76 124 C 74.889 124, 74 124.667, 74 125.500 C 74 126.325, 73.325 127, 72.500 127 C 71.263 127, 71 125.180, 71 116.617 C 71 107.074, 70.838 106.191, 69 105.710 C 67.900 105.423, 67 104.470, 67 103.594 C 67 102.667, 66.163 102, 65 102 C 63.889 102, 63 102.667, 63 103.500 C 63 104.325, 62.325 105, 61.500 105 C 60.272 105, 60 106.722, 60 114.500 C 60 122.278, 60.272 124, 61.500 124 C 62.548 124, 63 125.056, 63 127.500 C 63 129.944, 62.548 131, 61.500 131 C 60.310 131, 60 132.444, 60 138 L 60 145 63.500 145 L 67 145 67 156 C 67 165.111, 66.742 167, 65.500 167 C 64.477 167, 63.996 165.966, 63.986 163.750 C 63.966 159, 62.959 156, 61.383 156 C 60.329 156, 60 157.781, 60 163.500 C 60 169.396, 60.311 171, 61.455 171 C 62.325 171, 63.173 172.405, 63.566 174.500 C 63.942 176.505, 64.816 178, 65.611 178 C 66.375 178, 67 178.653, 67 179.450 C 67 180.248, 67.787 181.341, 68.750 181.879 C 70.312 182.751, 70.533 185.068, 70.807 203.428 C 71.060 220.339, 71.366 224, 72.527 224 C 73.656 224, 73.997 226.565, 74.220 236.750 L 74.500 249.500 77.826 249.819 C 80.494 250.075, 81.258 249.729, 81.692 248.069 C 81.990 246.931, 82.803 246, 83.500 246 C 84.321 246, 85.011 243.720, 85.460 239.528 C 86.192 232.697, 85.790 231, 83.441 231 C 82.281 231, 81.998 229.004, 81.991 220.750 C 81.980 207.047, 81.086 200, 79.361 200 C 78.334 200, 78 198.159, 78 192.500 C 78 186.304, 78.277 185, 79.594 185 C 80.470 185, 81.423 184.100, 81.710 183 C 82 181.893, 83.074 181, 84.117 181 C 85.152 181, 86 180.325, 86 179.500 C 86 178.490, 87.010 178, 89.094 178 C 91.346 178, 92.329 177.456, 92.710 176 C 92.998 174.900, 93.856 174, 94.617 174 C 95.377 174, 96 173.375, 96 172.611 C 96 171.816, 97.495 170.942, 99.500 170.566 C 101.429 170.204, 103 169.309, 103 168.571 C 103 167.835, 103.900 166.998, 105 166.710 C 106.100 166.423, 107 165.470, 107 164.594 C 107 163.717, 107.623 163, 108.384 163 C 110.096 163, 111.483 151.818, 110.495 145.970 C 109.887 142.373, 109.542 142, 106.818 142 C 104.654 142, 103.666 141.440, 103.290 140 C 102.897 138.497, 101.926 138, 99.383 138 C 96.667 138, 96 137.606, 96 136 C 96 134.148, 95.333 134, 87 134 C 79.667 134, 78 133.722, 78 132.500 C 78 131.675, 78.623 131, 79.383 131 C 80.144 131, 81.002 130.100, 81.290 129 C 81.577 127.900, 82.530 127, 83.406 127 C 84.283 127, 85 126.325, 85 125.500 C 85 124.667, 85.889 124, 87 124 C 88.333 124, 89 123.333, 89 122 C 89 120.667, 89.667 120, 91 120 C 92.111 120, 93 119.333, 93 118.500 C 93 117.675, 93.675 117, 94.500 117 C 95.333 117, 96 116.111, 96 115 C 96 113.667, 96.667 113, 98 113 C 99.333 113, 100 112.333, 100 111 C 100 109.889, 100.667 109, 101.500 109 C 102.325 109, 103 108.325, 103 107.500 C 103 106.667, 103.889 106, 105 106 C 106.333 106, 107 105.333, 107 104 C 107 102.900, 107.625 102, 108.389 102 C 109.184 102, 110.058 100.505, 110.434 98.500 C 110.827 96.405, 111.675 95, 112.545 95 C 113.642 95, 114 93.646, 114 89.500 C 114 85.278, 114.348 84, 115.500 84 C 116.333 84, 117 83.111, 117 82 C 117 80.889, 116.333 80, 115.500 80 C 114.675 80, 114 79.325, 114 78.500 C 114 77.675, 113.283 77, 112.406 77 C 111.530 77, 110.577 76.100, 110.290 75 C 109.857 73.344, 108.926 73, 104.883 73 C 101.082 73, 100 73.353, 100 74.594 M 78 159.500 L 78 174 81.500 174 C 84.333 174, 85 173.619, 85 172 C 85 170.667, 85.667 170, 87 170 C 88.111 170, 89 169.333, 89 168.500 C 89 167.675, 89.717 167, 90.594 167 C 91.470 167, 92.423 166.100, 92.710 165 C 92.998 163.900, 93.856 163, 94.617 163 C 95.377 163, 96 162.377, 96 161.617 C 96 160.856, 96.900 159.998, 98 159.710 C 99.100 159.423, 100 158.470, 100 157.594 C 100 156.717, 100.675 156, 101.500 156 C 102.325 156, 103 155.325, 103 154.500 C 103 153.675, 102.325 153, 101.500 153 C 100.667 153, 100 152.111, 100 151 C 100 149.667, 99.333 149, 98 149 C 96.667 149, 96 148.333, 96 147 C 96 145.148, 95.333 145, 87 145 L 78 145 78 159.500" stroke="none" fill="black" fill-rule="evenodd"/>
</svg>