<svg xmlns="http://www.w3.org/2000/svg" width="300" height="300" viewBox="0 0 300 300" version="1.1">
	<path d="M 159.290 57 C 159.002 58.100, 158.144 59, 157.383 59 C 156.623 59, 156 59.900, 156 61 C 156 62.100, 155.377 63, 154.617 63 C 152.897 63, 152.031 66.077, 152.014 72.250 C 152.003 75.799, 151.621 77, 150.500 77 C 149.675 77, 149 77.675, 149 78.500 C 149 79.548, 150.056 80, 152.500 80 C 155.833 80, 156 79.833, 156 76.500 C 156 74.056, 156.452 73, 157.500 73 C 158.325 73, 159 72.283, 159 71.406 C 159 70.530, 159.900 69.577, 161 69.290 C 162.100 69.002, 163 68.144, 163 67.383 C 163 66.248, 166.861 66, 184.500 66 L 206 66 206 69.500 C 206 71.944, 205.548 73, 204.500 73 C 203.667 73, 203 73.889, 203 75 C 203 76.333, 202.333 77, 201 77 C 199.889 77, 199 77.667, 199 78.500 C 199 79.325, 198.325 80, 197.500 80 C 196.667 80, 196 80.889, 196 82 C 196 83.333, 195.333 84, 194 84 C 192.889 84, 192 84.667, 192 85.500 C 192 86.325, 191.283 87, 190.406 87 C 189.530 87, 188.577 87.900, 188.290 89 C 187.914 90.435, 186.926 91, 184.790 91 C 182.654 91, 181.665 91.565, 181.290 93 C 181.002 94.100, 180.144 95, 179.383 95 C 178.623 95, 178 95.625, 178 96.389 C 178 97.184, 176.505 98.058, 174.500 98.434 C 172.405 98.827, 171 99.675, 171 100.545 C 171 101.576, 169.834 102, 167 102 C 164.111 102, 163 102.417, 163 103.500 C 163 104.412, 162.069 105, 160.625 105 C 156.120 105, 152 106.254, 152 107.625 C 152 108.381, 151.325 109, 150.500 109 C 149.417 109, 149 110.111, 149 113 C 149 117.459, 148.888 117.416, 157.750 116.352 C 161.202 115.937, 163 115.255, 163 114.361 C 163 113.341, 164.778 113, 170.094 113 C 176.346 113, 177.249 112.763, 177.710 111 C 178.184 109.189, 179.074 109, 187.117 109 C 194.346 109, 196 108.721, 196 107.500 C 196 106.367, 197.222 106, 201 106 C 204.778 106, 206 106.367, 206 107.500 C 206 108.548, 207.056 109, 209.500 109 C 211.626 109, 213.005 108.509, 213.014 107.750 C 213.021 107.063, 213.299 105.487, 213.630 104.250 C 214.117 102.435, 213.824 102, 212.117 102 C 210.667 102, 210 101.370, 210 100 C 210 98.148, 209.333 98, 201 98 C 194.004 98, 192 97.692, 192 96.617 C 192 95.856, 192.900 94.998, 194 94.710 C 195.100 94.423, 196 93.470, 196 92.594 C 196 91.717, 196.627 91, 197.393 91 C 198.159 91, 199.029 90.367, 199.325 89.594 C 199.622 88.821, 201.216 87.892, 202.867 87.529 C 205.142 87.029, 206.026 86.159, 206.514 83.935 C 206.869 82.321, 207.798 81, 208.579 81 C 209.361 81, 210 80.100, 210 79 C 210 77.667, 210.667 77, 212 77 C 213.619 77, 214 76.333, 214 73.500 C 214 71.056, 214.452 70, 215.500 70 C 216.648 70, 217 68.735, 217 64.611 C 217 59.245, 216.986 59.220, 213.500 58.566 C 211.405 58.173, 210 57.325, 210 56.455 C 210 55.220, 206.198 55, 184.906 55 C 160.654 55, 159.795 55.067, 159.290 57 M 60.750 80.689 C 58.454 81.289, 58.225 88, 60.500 88 C 61.325 88, 62 88.675, 62 89.500 C 62 90.706, 63.542 91, 69.875 91 C 79.568 91, 84 91.824, 84 93.625 C 84 94.381, 84.660 95, 85.466 95 C 86.469 95, 87.140 96.576, 87.594 100 C 88.208 104.629, 88.462 105, 91.012 105 C 94.189 105, 94.965 103.194, 94.986 95.750 C 94.996 92.254, 94.616 91, 93.545 91 C 92.675 91, 91.827 89.595, 91.434 87.500 C 90.837 84.318, 90.470 84, 87.389 84 C 85.170 84, 84 83.522, 84 82.617 C 84 81.856, 82.987 80.962, 81.750 80.630 C 79.202 79.947, 63.419 79.992, 60.750 80.689 M 131 93 C 131 100.333, 131.278 102, 132.500 102 C 133.809 102, 134 107.278, 134 143.500 C 134 178.321, 133.776 185, 132.606 185 C 131.559 185, 131.120 187.012, 130.845 193.076 C 130.555 199.457, 130.113 201.357, 128.739 202.126 C 127.611 202.757, 127 204.312, 127 206.550 C 127 208.950, 126.544 210, 125.500 210 C 124.588 210, 124 210.931, 124 212.375 C 124 216.880, 122.746 221, 121.375 221 C 120.396 221, 120 222.407, 120 225.883 C 120 229.926, 119.656 230.857, 118 231.290 C 116.468 231.690, 116 232.654, 116 235.406 C 116 237.934, 115.555 239, 114.500 239 C 113.452 239, 113 240.056, 113 242.500 L 113 246 117.883 246 C 123.238 246, 123.958 245.086, 123.986 238.250 C 123.996 236.034, 124.477 235, 125.500 235 C 126.548 235, 127 233.944, 127 231.500 C 127 228.667, 127.381 228, 129 228 C 130.758 228, 131 227.333, 131 222.500 C 131 218.335, 131.356 217, 132.466 217 C 133.465 217, 134.137 215.445, 134.579 212.114 L 135.227 207.227 140.114 206.579 C 143.445 206.137, 145 205.465, 145 204.466 C 145 203.660, 145.900 203, 147 203 C 148.100 203, 149 202.377, 149 201.617 C 149 200.115, 151.960 199.035, 156.133 199.014 C 157.919 199.004, 158.935 198.356, 159.290 197 C 159.695 195.452, 160.654 195, 163.536 195 L 167.258 195 166.552 202.250 C 166.163 206.238, 165.430 209.650, 164.923 209.833 C 163.727 210.265, 163.718 213, 164.912 213 C 165.414 213, 166.128 214.800, 166.500 217 C 166.915 219.459, 167.720 221, 168.588 221 C 169.365 221, 170 221.635, 170 222.412 C 170 223.280, 171.541 224.085, 174 224.500 C 176.459 224.915, 178 225.720, 178 226.588 C 178 227.611, 179.344 228, 182.883 228 C 186.926 228, 187.857 228.344, 188.290 230 C 188.671 231.456, 189.654 232, 191.906 232 C 193.990 232, 195 232.490, 195 233.500 C 195 234.655, 196.288 235, 200.594 235 C 205.346 235, 206.266 235.301, 206.710 237 C 207.196 238.857, 208.074 239, 219 239 C 229.926 239, 230.804 238.857, 231.290 237 C 231.603 235.803, 232.654 235, 233.906 235 C 235.101 235, 236 234.356, 236 233.500 C 236 232.675, 236.675 232, 237.500 232 C 238.333 232, 239 231.111, 239 230 C 239 228.630, 239.667 228, 241.117 228 C 242.824 228, 243.117 227.565, 242.630 225.750 C 242.299 224.512, 242.021 222.938, 242.014 222.250 C 242.006 221.563, 241.325 221, 240.500 221 C 239.675 221, 239 221.675, 239 222.500 C 239 223.333, 238.111 224, 237 224 C 235.667 224, 235 224.667, 235 226 C 235 227.733, 234.333 228, 230 228 C 226.222 228, 225 228.367, 225 229.500 C 225 230.333, 224.111 231, 223 231 C 221.889 231, 221 230.333, 221 229.500 C 221 228.300, 219.500 228, 213.500 228 C 207.781 228, 206 227.671, 206 226.617 C 206 225.101, 203.032 224.035, 198.750 224.014 C 196.978 224.005, 196 223.466, 196 222.500 C 196 221.445, 194.934 221, 192.406 221 C 189.654 221, 188.690 220.532, 188.290 219 C 187.897 217.497, 186.926 217, 184.383 217 C 182.169 217, 181 216.522, 181 215.617 C 181 214.856, 180.100 213.998, 179 213.710 C 177.900 213.423, 177 212.470, 177 211.594 C 177 210.717, 176.325 210, 175.500 210 C 174.300 210, 174 208.500, 174 202.500 C 174 196.813, 174.331 195, 175.371 195 C 176.261 195, 176.975 193.246, 177.406 190 C 177.867 186.522, 178.525 185, 179.566 185 C 180.389 185, 181.311 184.352, 181.615 183.561 C 181.919 182.770, 183.479 181.834, 185.084 181.482 C 186.688 181.129, 188 180.202, 188 179.421 C 188 178.457, 189.155 178, 191.594 178 C 194.346 178, 195.310 177.532, 195.710 176 C 196.103 174.497, 197.074 174, 199.617 174 C 201.848 174, 203 173.524, 203 172.601 C 203 171.604, 205.005 171.002, 210 170.500 C 214.995 169.998, 217 169.396, 217 168.399 C 217 167.272, 219.530 167, 230 167 C 240.889 167, 243 167.244, 243 168.500 C 243 169.325, 243.675 170, 244.500 170 C 245.548 170, 246 168.944, 246 166.500 C 246 163.667, 245.619 163, 244 163 C 242.900 163, 242 162.377, 242 161.617 C 242 159, 234.555 158.385, 218.250 159.654 C 212.302 160.117, 210 160.674, 210 161.648 C 210 162.607, 208.519 163, 204.906 163 C 200.654 163, 199.726 163.330, 199.290 165 C 199 166.107, 197.926 167, 196.883 167 C 195.848 167, 195 167.675, 195 168.500 C 195 169.510, 193.990 170, 191.906 170 C 189.654 170, 188.671 170.544, 188.290 172 C 187.857 173.656, 186.926 174, 182.883 174 L 178 174 178 156 C 178 138.667, 177.926 138, 176 138 C 174.381 138, 174 137.333, 174 134.500 C 174 132.024, 173.552 131, 172.469 131 C 171.626 131, 170.678 130.325, 170.362 129.500 C 170.045 128.675, 169.159 128, 168.393 128 C 167.627 128, 167 128.675, 167 129.500 C 167 130.333, 166.111 131, 165 131 C 163.262 131, 163 131.667, 163 136.094 C 163 140.346, 163.330 141.274, 165 141.710 C 166.100 141.998, 167 142.856, 167 143.617 C 167 144.377, 167.675 145, 168.500 145 C 169.764 145, 170 147.278, 170 159.500 C 170 171.722, 169.764 174, 168.500 174 C 167.348 174, 167 175.278, 167 179.500 C 167 183.722, 166.652 185, 165.500 185 C 164.675 185, 164 185.617, 164 186.372 C 164 187.200, 162.413 187.998, 160 188.384 C 157.412 188.798, 156 189.549, 156 190.512 C 156 191.333, 155.104 192, 154 192 C 152.900 192, 152 192.655, 152 193.455 C 152 194.325, 150.595 195.173, 148.500 195.566 C 146.495 195.942, 145 196.816, 145 197.611 C 145 198.532, 143.820 199, 141.500 199 C 138.167 199, 138 198.833, 138 195.500 C 138 193.187, 138.469 192, 139.383 192 C 141.340 192, 141.971 188.791, 141.986 178.750 C 141.997 171.645, 142.282 170, 143.500 170 C 144.800 170, 145 166, 145 140 C 145 114, 144.800 110, 143.500 110 C 142.667 110, 142 109.111, 142 108 C 142 106.889, 142.667 106, 143.500 106 C 144.550 106, 145 104.941, 145 102.469 C 145 100.252, 145.559 98.723, 146.500 98.362 C 147.325 98.045, 148 97.159, 148 96.393 C 148 95.627, 147.325 95, 146.500 95 C 145.667 95, 145 94.111, 145 93 C 145 91.900, 144.375 91, 143.611 91 C 142.816 91, 141.942 89.505, 141.566 87.500 C 140.920 84.059, 140.825 84, 135.955 84 L 131 84 131 93 M 80 128.375 C 80 130.025, 75.684 131, 68.375 131 C 64.264 131, 63 131.353, 63 132.500 C 63 133.333, 62.111 134, 61 134 C 59.333 134, 59 134.667, 59 138 L 59 142 67.250 141.986 C 76.804 141.971, 80 141.318, 80 139.383 C 80 138.308, 82.004 138, 89 138 L 98 138 98 143.500 C 98 149.215, 98.327 149.555, 102.693 148.385 C 104.078 148.013, 105.122 146.721, 105.527 144.877 C 106.441 140.718, 105.134 134, 103.412 134 C 102.522 134, 102 132.933, 102 131.117 C 102 127.512, 100.450 127.032, 88.750 127.014 C 81.986 127.003, 80 127.312, 80 128.375 M 109 175.500 C 109 176.412, 108.069 177, 106.625 177 C 102.120 177, 98 178.254, 98 179.625 C 98 180.530, 96.803 181, 94.500 181 C 92.104 181, 91 181.459, 91 182.455 C 91 183.325, 89.595 184.173, 87.500 184.566 C 85.495 184.942, 84 185.816, 84 186.611 C 84 187.406, 82.985 188, 81.625 188 C 77.120 188, 73 189.254, 73 190.625 C 73 191.530, 71.803 192, 69.500 192 C 67.056 192, 66 192.452, 66 193.500 C 66 194.325, 65.283 195, 64.406 195 C 63.530 195, 62.577 195.900, 62.290 197 C 61.897 198.503, 60.926 199, 58.383 199 C 55.667 199, 55 199.394, 55 201 C 55 202.111, 54.333 203, 53.500 203 C 52.452 203, 52 204.056, 52 206.500 L 52 210 59 210 C 64.293 210, 66 209.663, 66 208.617 C 66 207.856, 66.900 206.998, 68 206.710 C 69.100 206.423, 70 205.470, 70 204.594 C 70 203.717, 70.675 203, 71.500 203 C 72.333 203, 73 202.111, 73 201 C 73 199.381, 73.667 199, 76.500 199 C 78.944 199, 80 198.548, 80 197.500 C 80 196.667, 80.889 196, 82 196 C 83.333 196, 84 195.333, 84 194 C 84 192.242, 84.667 192, 89.500 192 C 93.646 192, 95 191.642, 95 190.545 C 95 189.675, 96.405 188.827, 98.500 188.434 C 100.505 188.058, 102 187.184, 102 186.389 C 102 185.466, 103.185 185, 105.531 185 C 107.719 185, 109.278 184.440, 109.628 183.527 C 109.939 182.717, 111.725 181.767, 113.597 181.416 C 116.673 180.839, 117 180.451, 117 177.389 C 117 174.102, 116.880 174, 113 174 C 110.111 174, 109 174.417, 109 175.500" stroke="none" fill="black" fill-rule="evenodd"/>
</svg>