<svg xmlns="http://www.w3.org/2000/svg" width="300" height="300" viewBox="0 0 300 300" version="1.1">
	<path d="M 87.750 62.668 C 86.787 62.931, 86 63.789, 86 64.573 C 86 65.428, 84.998 66, 83.500 66 C 81.667 66, 81 66.533, 81 68 C 81 69.111, 80.333 70, 79.500 70 C 78.675 70, 78 70.675, 78 71.500 C 78 72.325, 78.623 73, 79.383 73 C 80.144 73, 81.002 73.900, 81.290 75 C 81.724 76.662, 82.654 77, 86.790 77 C 90.926 77, 91.855 76.662, 92.290 75 C 92.577 73.900, 93.530 73, 94.406 73 C 95.333 73, 96 73.837, 96 75 C 96 76.758, 96.667 77, 101.500 77 C 105.722 77, 107 77.348, 107 78.500 C 107 79.325, 107.675 80, 108.500 80 C 109.652 80, 110 81.278, 110 85.500 C 110 89.722, 109.652 91, 108.500 91 C 107.667 91, 107 91.889, 107 93 C 107 94.100, 106.377 95, 105.617 95 C 104.856 95, 103.998 95.900, 103.710 97 C 103.423 98.100, 102.506 99, 101.673 99 C 100.801 99, 99.877 100.282, 99.495 102.022 C 98.563 106.265, 99.847 113, 101.588 113 C 102.365 113, 103 113.900, 103 115 C 103 116.333, 103.667 117, 105 117 C 106.111 117, 107 117.667, 107 118.500 C 107 119.325, 107.625 120, 108.389 120 C 109.184 120, 110.058 121.495, 110.434 123.500 C 110.827 125.595, 111.675 127, 112.545 127 C 113.642 127, 114 128.354, 114 132.500 C 114 136.516, 113.627 138, 112.617 138 C 111.856 138, 110.998 138.900, 110.710 140 C 110.423 141.100, 109.470 142, 108.594 142 C 107.717 142, 107 142.675, 107 143.500 C 107 144.333, 106.111 145, 105 145 C 103.667 145, 103 145.667, 103 147 C 103 148.619, 102.333 149, 99.500 149 C 96.667 149, 96 148.619, 96 147 C 96 145.900, 95.388 145, 94.639 145 C 93.042 145, 92.022 138.119, 92.009 127.250 C 92.002 121.536, 91.688 120, 90.527 120 C 89.313 120, 89.006 117.506, 88.777 105.750 L 88.500 91.500 83.250 91.198 L 78 90.895 78 97.948 C 78 103.550, 78.308 105, 79.500 105 C 80.662 105, 81 106.316, 81 110.844 C 81 124.097, 82.300 138, 83.539 138 C 84.415 138, 84.886 141.058, 85.164 148.553 C 85.448 156.238, 85.939 159.344, 86.968 159.980 C 88.071 160.662, 88.477 164.717, 88.817 178.427 C 89.161 192.325, 89.535 196, 90.606 196 C 91.694 196, 92.013 200.178, 92.230 217.250 L 92.500 238.500 95.826 238.819 C 98.494 239.075, 99.258 238.729, 99.692 237.069 C 99.990 235.931, 100.793 235, 101.477 235 C 103.185 235, 104.089 226.358, 103.326 217.331 C 102.887 212.140, 102.312 210, 101.353 210 C 100.287 210, 99.998 207.298, 99.991 197.250 C 99.980 181.161, 99.170 174, 97.361 174 C 96.343 174, 96 172.237, 96 167 C 96 161.444, 96.310 160, 97.500 160 C 98.333 160, 99 159.111, 99 158 C 99 156.333, 99.667 156, 103 156 C 105.834 156, 107 155.576, 107 154.545 C 107 153.675, 108.405 152.827, 110.500 152.434 C 112.505 152.058, 114 151.184, 114 150.389 C 114 149.625, 114.717 149, 115.594 149 C 116.470 149, 117.423 148.100, 117.710 147 C 117.998 145.900, 118.806 145, 119.505 145 C 120.205 145, 121.073 143.425, 121.434 141.500 C 121.827 139.405, 122.675 138, 123.545 138 C 125.626 138, 125.498 131.378, 123.394 130.201 C 122.428 129.660, 121.580 127.449, 121.264 124.651 C 120.924 121.635, 120.258 120, 119.370 120 C 118.616 120, 118 119.283, 118 118.406 C 118 117.530, 117.100 116.577, 116 116.290 C 114.608 115.926, 114 114.926, 114 113 C 114 111.074, 113.392 110.074, 112 109.710 C 110.468 109.310, 110 108.346, 110 105.594 C 110 102.667, 110.371 102, 112 102 C 113.619 102, 114 101.333, 114 98.500 C 114 95.667, 114.381 95, 116 95 C 117.333 95, 118 94.333, 118 93 C 118 91.889, 118.667 91, 119.500 91 C 120.688 91, 121 89.569, 121 84.117 C 121 78.074, 120.756 77.169, 119 76.710 C 117.900 76.423, 117 75.470, 117 74.594 C 117 73.717, 116.325 73, 115.500 73 C 114.675 73, 114 72.365, 114 71.588 C 114 70.720, 112.459 69.915, 110 69.500 C 107.541 69.085, 106 68.280, 106 67.412 C 106 66.384, 104.639 66, 101 66 C 97.222 66, 96 65.633, 96 64.500 C 96 63.675, 95.438 62.994, 94.750 62.986 C 94.063 62.979, 92.600 62.796, 91.500 62.581 C 90.400 62.366, 88.713 62.405, 87.750 62.668 M 130.250 62.706 C 128.279 63.085, 128 63.752, 128 68.070 L 128 73 133.500 73 C 137.722 73, 139 72.652, 139 71.500 C 139 70.207, 142.444 70, 164 70 C 184.740 70, 189 70.238, 189 71.397 C 189 72.455, 191.045 72.880, 197.417 73.147 C 205.418 73.483, 208.122 74.211, 206.689 75.645 C 206.334 75.999, 203.784 76.507, 201.022 76.772 C 197.943 77.068, 196 77.736, 196 78.498 C 196 79.236, 193.965 80.012, 191 80.406 C 187.576 80.860, 186 81.531, 186 82.534 C 186 83.543, 187.092 84, 189.500 84 C 192.333 84, 193 84.381, 193 86 C 193 87.111, 192.333 88, 191.500 88 C 190.675 88, 190 88.675, 190 89.500 C 190 90.325, 190.675 91, 191.500 91 C 192.333 91, 193 91.889, 193 93 C 193 94.111, 192.333 95, 191.500 95 C 190.675 95, 190 95.675, 190 96.500 C 190 97.325, 190.675 98, 191.500 98 C 192.583 98, 193 99.111, 193 102 C 193 104.541, 192.544 105.995, 191.750 105.986 C 188.840 105.955, 186 104.669, 186 103.383 C 186 102.623, 185.325 102, 184.500 102 C 183.675 102, 183 102.675, 183 103.500 C 183 104.535, 181.961 105, 179.647 105 C 177.802 105, 173.527 105.289, 170.147 105.642 L 164 106.285 164 100.267 C 164 90.538, 164.800 88.002, 167.875 87.986 C 172.041 87.965, 175 86.883, 175 85.383 C 175 84.308, 172.996 84, 166 84 C 158.667 84, 157 84.278, 157 85.500 C 157 86.325, 156.325 87, 155.500 87 C 154.249 87, 153.998 89.034, 153.986 99.250 C 153.971 112.720, 153.462 116, 151.383 116 C 150.623 116, 150 116.900, 150 118 C 150 119.100, 149.345 120, 148.545 120 C 147.675 120, 146.827 121.405, 146.434 123.500 C 146.058 125.505, 145.184 127, 144.389 127 C 143.466 127, 143 128.185, 143 130.531 C 143 132.748, 142.441 134.277, 141.500 134.638 C 140.675 134.955, 140 135.841, 140 136.607 C 140 137.373, 140.675 138, 141.500 138 C 142.548 138, 143 139.056, 143 141.500 L 143 145 148 145 C 151.778 145, 153 144.633, 153 143.500 C 153 142.667, 153.889 142, 155 142 C 156.629 142, 157 141.333, 157 138.406 C 157 135.654, 157.468 134.690, 159 134.290 C 160.756 133.831, 161 132.926, 161 126.883 C 161 120.667, 161.194 120, 163 120 C 164.100 120, 165 119.345, 165 118.545 C 165 117.675, 166.405 116.827, 168.500 116.434 C 170.505 116.058, 172 115.184, 172 114.389 C 172 113.336, 173.694 113, 179 113 C 184.293 113, 186 113.337, 186 114.383 C 186 115.144, 185.100 116.002, 184 116.290 C 182.544 116.671, 182 117.654, 182 119.906 C 182 121.990, 181.510 123, 180.500 123 C 179.667 123, 179 123.889, 179 125 C 179 126.333, 178.333 127, 177 127 C 175.667 127, 175 127.667, 175 129 C 175 130.111, 174.333 131, 173.500 131 C 172.675 131, 172 131.675, 172 132.500 C 172 133.333, 171.111 134, 170 134 C 168.667 134, 168 134.667, 168 136 C 168 137.333, 167.333 138, 166 138 C 164.900 138, 164 138.639, 164 139.421 C 164 140.202, 162.650 141.138, 161 141.500 C 159.350 141.862, 158 142.798, 158 143.579 C 158 144.361, 157.152 145, 156.117 145 C 155.074 145, 154 145.893, 153.710 147 C 153.423 148.100, 152.470 149, 151.594 149 C 150.439 149, 150 149.964, 150 152.500 L 150 156 155.500 156 C 159.722 156, 161 155.652, 161 154.500 C 161 153.675, 161.717 153, 162.594 153 C 163.470 153, 164.423 152.100, 164.710 151 C 165.074 149.608, 166.074 149, 168 149 C 169.926 149, 170.926 148.392, 171.290 147 C 171.603 145.803, 172.654 145, 173.906 145 C 175.101 145, 176 144.356, 176 143.500 C 176 142.675, 176.675 142, 177.500 142 C 178.333 142, 179 141.111, 179 140 C 179 138.667, 179.667 138, 181 138 C 182.100 138, 183 137.361, 183 136.579 C 183 135.798, 184.336 134.866, 185.968 134.507 C 188.366 133.980, 189.060 133.196, 189.580 130.428 C 189.933 128.542, 190.795 127, 191.495 127 C 192.194 127, 193.002 126.100, 193.290 125 C 193.671 123.544, 194.654 123, 196.906 123 C 199.727 123, 200.001 123.287, 200.014 126.250 C 200.034 131, 201.041 134, 202.617 134 C 203.641 134, 204 135.558, 204 140 C 204 144.401, 204.364 146, 205.364 146 C 206.795 146, 208 152.007, 208 159.140 C 208 161.736, 208.447 163, 209.366 163 C 210.344 163, 210.876 165.017, 211.240 170.113 C 211.562 174.605, 212.256 177.540, 213.125 178.075 C 214.173 178.721, 214.576 182.621, 214.820 194.462 C 215.133 209.613, 215.089 210, 213.070 210 C 211.667 210, 211 210.644, 211 212 C 211 213.111, 210.333 214, 209.500 214 C 208.675 214, 208 214.675, 208 215.500 C 208 216.700, 206.500 217, 200.500 217 C 194.604 217, 193 216.689, 193 215.545 C 193 214.675, 191.595 213.827, 189.500 213.434 C 187.495 213.058, 186 212.184, 186 211.389 C 186 210.625, 185.345 210, 184.545 210 C 183.675 210, 182.827 208.595, 182.434 206.500 C 182.058 204.495, 181.184 203, 180.389 203 C 179.625 203, 179 202.100, 179 201 C 179 199.667, 178.333 199, 177 199 C 175.381 199, 175 198.333, 175 195.500 C 175 193.056, 174.548 192, 173.500 192 C 172.588 192, 172 191.069, 172 189.625 C 172 185.120, 170.746 181, 169.375 181 C 168.619 181, 168 180.325, 168 179.500 C 168 178.675, 167.325 178, 166.500 178 C 165.452 178, 165 179.056, 165 181.500 C 165 183.944, 165.452 185, 166.500 185 C 167.652 185, 168 186.278, 168 190.500 C 168 194.526, 168.372 196, 169.389 196 C 170.184 196, 171.058 197.495, 171.434 199.500 C 171.827 201.595, 172.675 203, 173.545 203 C 174.541 203, 175 204.104, 175 206.500 C 175 209.333, 175.381 210, 177 210 C 178.333 210, 179 210.667, 179 212 C 179 213.100, 179.639 214, 180.421 214 C 181.202 214, 182.131 215.321, 182.486 216.935 C 182.970 219.139, 183.861 220.030, 186.065 220.514 C 187.679 220.869, 189 221.737, 189 222.442 C 189 223.348, 191.784 223.930, 198.442 224.419 C 208.833 225.182, 215 224.467, 215 222.500 C 215 221.797, 216.575 220.927, 218.500 220.566 L 222 219.909 222 207.955 C 222 197.995, 222.250 196, 223.500 196 C 224.333 196, 225 195.111, 225 194 C 225 192.889, 224.333 192, 223.500 192 C 222.258 192, 222 190.111, 222 181 C 222 172.389, 221.704 170, 220.639 170 C 219.249 170, 218.026 163.378, 218.009 155.750 C 218.003 153.228, 217.547 152, 216.616 152 C 215.621 152, 215.116 150.156, 214.815 145.432 C 214.550 141.268, 213.885 138.547, 213 138 C 212.115 137.453, 211.450 134.732, 211.185 130.568 C 210.884 125.844, 210.379 124, 209.384 124 C 208.402 124, 207.996 122.621, 207.986 119.250 C 207.969 113.077, 207.103 110, 205.383 110 C 204.290 110, 204 107.716, 204 99.117 C 204 89.074, 203.845 88.193, 202 87.710 C 200.900 87.423, 200 86.470, 200 85.594 C 200 84.439, 200.964 84, 203.500 84 C 205.848 84, 207 83.535, 207 82.588 C 207 81.720, 208.541 80.915, 211 80.500 C 214.753 79.866, 215 79.614, 215 76.412 C 215 74.046, 215.460 73, 216.500 73 C 217.325 73, 218 72.325, 218 71.500 C 218 70.675, 217.325 70, 216.500 70 C 215.667 70, 215 69.111, 215 68 C 215 66.333, 214.333 66, 211 66 C 208.293 66, 207 65.560, 207 64.639 C 207 63.745, 205.202 63.063, 201.750 62.648 C 195.998 61.957, 133.876 62.007, 130.250 62.706 M 193 111 C 193 112.333, 193.667 113, 195 113 C 196.333 113, 197 112.333, 197 111 C 197 109.667, 196.333 109, 195 109 C 193.667 109, 193 109.667, 193 111" stroke="none" fill="black" fill-rule="evenodd"/>
</svg>