<svg xmlns="http://www.w3.org/2000/svg" width="300" height="300" viewBox="0 0 300 300" version="1.1">
	<path d="M 128 43.500 C 128 44.325, 127.325 45, 126.500 45 C 125.667 45, 125 45.889, 125 47 C 125 48.111, 125.667 49, 126.500 49 C 127.333 49, 128 49.889, 128 51 C 128 52.812, 128.667 53, 135.094 53 C 141.458 53, 142.244 52.784, 142.736 50.901 C 143.245 48.955, 143.854 48.827, 151.063 49.154 C 155.341 49.349, 159.154 49.821, 159.538 50.204 C 159.921 50.588, 160.465 52.948, 160.747 55.451 C 161.155 59.072, 160.951 60, 159.747 60 C 158.914 60, 157.998 60.900, 157.710 62 C 157.236 63.815, 156.346 64, 148.094 64 C 140.677 64, 139 64.277, 139 65.500 C 139 66.633, 137.778 67, 134 67 C 130.092 67, 129 67.348, 129 68.594 C 129 69.470, 128.143 70.411, 127.096 70.685 C 124.729 71.304, 124.387 74.339, 124.834 90.750 C 125.099 100.493, 125.457 103, 126.584 103 C 127.674 103, 128.002 104.667, 128.009 110.250 C 128.022 121.119, 129.042 128, 130.639 128 C 131.666 128, 132 129.841, 132 135.500 C 132 141.197, 132.331 143, 133.375 143 C 135.282 143, 136.169 148.382, 135.394 155.238 C 134.953 159.135, 134.298 161, 133.371 161 C 132.617 161, 132 161.623, 132 162.383 C 132 163.144, 131.100 164.002, 130 164.290 C 128.544 164.671, 128 165.654, 128 167.906 C 128 169.990, 127.510 171, 126.500 171 C 125.667 171, 125 171.889, 125 173 C 125 174.333, 124.333 175, 123 175 C 121.667 175, 121 175.667, 121 177 C 121 178.111, 120.333 179, 119.500 179 C 118.452 179, 118 180.056, 118 182.500 C 118 185.333, 117.619 186, 116 186 C 114.394 186, 114 186.667, 114 189.383 C 114 191.926, 113.503 192.897, 112 193.290 C 110.544 193.671, 110 194.654, 110 196.906 C 110 198.990, 109.510 200, 108.500 200 C 107.675 200, 107 199.325, 107 198.500 C 107 195.413, 104.081 197.050, 103.434 200.500 C 103.073 202.425, 102.205 204, 101.505 204 C 100.806 204, 99.998 204.900, 99.710 206 C 99.423 207.100, 98.470 208, 97.594 208 C 96.439 208, 96 208.964, 96 211.500 C 96 215.165, 93.523 216.527, 92.362 213.500 C 92.045 212.675, 91.159 212, 90.393 212 C 89.327 212, 89 210.251, 89 204.550 C 89 198.512, 88.670 196.915, 87.261 196.126 C 85.887 195.357, 85.445 193.457, 85.155 187.076 C 84.880 181.012, 84.441 179, 83.394 179 C 82.318 179, 81.962 176.950, 81.833 170 C 81.742 165.050, 81.629 160.213, 81.583 159.250 C 81.520 157.916, 82.199 157.551, 84.440 157.714 C 86.057 157.832, 87.767 158.620, 88.240 159.464 C 88.905 160.652, 90.955 160.997, 97.300 160.986 C 106.805 160.971, 110 160.316, 110 158.383 C 110 157.623, 110.900 157, 112 157 C 113.333 157, 114 156.333, 114 155 C 114 153.900, 114.655 153, 115.455 153 C 116.325 153, 117.173 151.595, 117.566 149.500 C 117.942 147.495, 118.816 146, 119.611 146 C 120.375 146, 121 145.325, 121 144.500 C 121 143.675, 120.375 143, 119.611 143 C 118.822 143, 117.945 141.522, 117.580 139.572 C 117.060 136.804, 116.366 136.020, 113.968 135.493 C 112.336 135.134, 111 134.202, 111 133.421 C 111 132.365, 109.585 132, 105.500 132 L 100 132 100 128.500 C 100 126.056, 100.452 125, 101.500 125 C 102.333 125, 103 124.111, 103 123 C 103 121.667, 103.667 121, 105 121 C 106.333 121, 107 120.333, 107 119 C 107 117.889, 107.667 117, 108.500 117 C 109.325 117, 110 116.325, 110 115.500 C 110 114.667, 110.889 114, 112 114 C 113.619 114, 114 113.333, 114 110.500 C 114 108.068, 114.454 107, 115.488 107 C 116.451 107, 117.202 105.588, 117.616 103 C 118.002 100.587, 118.800 99, 119.628 99 C 120.660 99, 121 97.266, 121 92 C 121 86.707, 120.663 85, 119.617 85 C 118.856 85, 117.998 84.100, 117.710 83 C 117.423 81.900, 116.470 81, 115.594 81 C 114.717 81, 114 80.325, 114 79.500 C 114 78.348, 112.722 78, 108.500 78 C 104.484 78, 103 77.627, 103 76.617 C 103 74.626, 99.763 74.027, 89 74.027 C 78.237 74.027, 75 74.626, 75 76.617 C 75 77.564, 73.739 78, 71 78 C 67.095 78, 67 78.083, 67 81.500 C 67 83.820, 67.468 85, 68.389 85 C 69.184 85, 70.058 86.495, 70.434 88.500 C 71.034 91.698, 71.389 92, 74.545 92 C 77.333 92, 78 91.614, 78 90 C 78 88.889, 77.333 88, 76.500 88 C 73.563 88, 75.060 86.079, 78.500 85.434 C 80.505 85.058, 82 84.184, 82 83.389 C 82 82.336, 83.694 82, 89 82 C 94.556 82, 96 82.310, 96 83.500 C 96 84.621, 97.201 85.003, 100.750 85.014 C 108.272 85.035, 109.868 85.781, 110.587 89.610 C 110.947 91.531, 111.825 93, 112.611 93 C 113.375 93, 114 93.675, 114 94.500 C 114 95.333, 113.111 96, 112 96 C 110.381 96, 110 96.667, 110 99.500 C 110 101.944, 109.548 103, 108.500 103 C 107.667 103, 107 103.889, 107 105 C 107 106.333, 106.333 107, 105 107 C 103.381 107, 103 107.667, 103 110.500 C 103 113.333, 102.619 114, 101 114 C 99.889 114, 99 114.667, 99 115.500 C 99 116.325, 98.325 117, 97.500 117 C 96.667 117, 96 117.889, 96 119 C 96 120.333, 95.333 121, 94 121 C 92.667 121, 92 121.667, 92 123 C 92 124.556, 91.333 125, 89 125 C 87 125, 86 125.500, 86 126.500 C 86 127.356, 85.101 128, 83.906 128 C 82.654 128, 81.603 128.803, 81.290 130 C 81.002 131.100, 80.144 132, 79.383 132 C 78.623 132, 78 132.900, 78 134 C 78 135.111, 78.667 136, 79.500 136 C 80.325 136, 81 136.675, 81 137.500 C 81 138.743, 82.892 139, 92.031 139 C 100.706 139, 103.181 139.307, 103.615 140.439 C 103.919 141.230, 105.479 142.166, 107.084 142.518 C 109.612 143.074, 110 143.614, 110 146.579 C 110 149.333, 109.610 150, 108 150 C 106.900 150, 106 150.623, 106 151.383 C 106 153.210, 102.865 153.970, 95.250 153.986 C 89.662 153.999, 89 153.788, 89 152 C 89 150.381, 88.333 150, 85.500 150 C 83.056 150, 82 149.548, 82 148.500 C 82 147.667, 81.111 147, 80 147 C 78.533 147, 78 146.333, 78 144.500 C 78 143.049, 77.425 142, 76.629 142 C 75.739 142, 75.025 140.246, 74.594 137 C 74.140 133.576, 73.469 132, 72.466 132 C 71.457 132, 71 130.908, 71 128.500 L 71 125 65.500 125 L 60 125 60 130 C 60 133.576, 60.392 135, 61.375 135 C 62.746 135, 64 139.120, 64 143.625 C 64 145.069, 64.588 146, 65.500 146 C 66.650 146, 67 147.272, 67 151.450 C 67 155.535, 67.425 157.138, 68.696 157.850 C 69.945 158.549, 70.503 160.538, 70.813 165.400 C 71.115 170.150, 71.621 172, 72.616 172 C 73.618 172, 74.002 173.451, 74.009 177.250 C 74.024 186.255, 75.150 193, 76.639 193 C 77.622 193, 78 194.528, 78 198.500 C 78 202.472, 78.378 204, 79.361 204 C 80.751 204, 81.974 210.622, 81.991 218.250 C 81.997 220.913, 82.435 222, 83.500 222 C 84.548 222, 85 223.056, 85 225.500 L 85 229 90.500 229 L 96 229 96 224 C 96 220.424, 96.392 219, 97.375 219 C 98.746 219, 100 214.880, 100 210.375 C 100 208.931, 100.588 208, 101.500 208 C 102.633 208, 103 209.222, 103 213 C 103 217.333, 103.267 218, 105 218 C 106.111 218, 107 217.333, 107 216.500 C 107 215.675, 107.717 215, 108.594 215 C 109.470 215, 110.423 214.100, 110.710 213 C 110.998 211.900, 111.856 211, 112.617 211 C 113.627 211, 114 209.516, 114 205.500 C 114 201.484, 114.373 200, 115.383 200 C 116.144 200, 117.002 199.100, 117.290 198 C 117.577 196.900, 118.530 196, 119.406 196 C 120.496 196, 121 195.088, 121 193.117 C 121 191.074, 121.583 190.081, 123 189.710 C 124.456 189.329, 125 188.346, 125 186.094 C 125 183.930, 125.479 183, 126.594 183 C 127.470 183, 128.423 182.100, 128.710 181 C 128.998 179.900, 129.856 179, 130.617 179 C 131.531 179, 132 177.813, 132 175.500 C 132 172.667, 132.381 172, 134 172 C 135.333 172, 136 171.333, 136 170 C 136 168.889, 136.667 168, 137.500 168 C 138.333 168, 139 167.111, 139 166 C 139 164.667, 139.667 164, 141 164 C 142.111 164, 143 163.333, 143 162.500 C 143 161.667, 143.889 161, 145 161 C 146.333 161, 147 160.333, 147 159 C 147 157.381, 147.667 157, 150.500 157 C 152.944 157, 154 156.548, 154 155.500 C 154 154.490, 155.010 154, 157.094 154 C 159.346 154, 160.329 153.456, 160.710 152 C 161.103 150.497, 162.074 150, 164.617 150 C 167.373 150, 168 149.616, 168 147.927 C 168 144.341, 171.450 145.998, 171.813 149.758 C 172.007 151.764, 172.674 153, 173.563 153 C 174.725 153, 175 155.104, 175 164 C 175 172.944, 174.729 175, 173.550 175 C 172.752 175, 171.672 175.763, 171.150 176.696 C 170.451 177.945, 168.462 178.503, 163.600 178.813 C 157.952 179.172, 157 179.505, 157 181.116 C 157 182.602, 157.739 183, 160.500 183 C 162.944 183, 164 183.452, 164 184.500 C 164 185.690, 165.444 186, 171 186 C 177.232 186, 178 186.210, 178 187.917 C 178 188.971, 177.577 189.983, 177.059 190.167 C 176.541 190.350, 175.799 200.063, 175.409 211.750 C 174.892 227.230, 174.373 233, 173.498 233 C 172.325 233, 171.020 243.865, 171.006 253.750 L 171 258 175 258 L 179 258 179 254 C 179 251.255, 179.435 250, 180.388 250 C 181.470 250, 181.934 246.925, 182.500 236 C 183.066 225.075, 183.530 222, 184.612 222 C 185.738 222, 186 218.979, 186 206 L 186 190 191.500 190 C 195.722 190, 197 190.348, 197 191.500 C 197 192.689, 198.439 193, 203.950 193 C 209.417 193, 211.101 193.358, 211.840 194.678 C 212.509 195.873, 214.539 196.484, 218.889 196.798 C 223.204 197.110, 225 197.646, 225 198.620 C 225 199.382, 226.008 200.004, 227.250 200.009 C 228.488 200.013, 231.863 200.301, 234.750 200.648 L 240 201.279 240 197.139 L 240 193 235 193 C 231.361 193, 230 192.616, 230 191.588 C 230 190.720, 228.459 189.915, 226 189.500 C 223.541 189.085, 222 188.280, 222 187.412 C 222 186.333, 220.378 186, 215.117 186 C 209.074 186, 208.169 185.756, 207.710 184 C 207.274 182.330, 206.346 182, 202.094 182 C 198.233 182, 197 181.637, 197 180.500 C 197 179.348, 195.722 179, 191.500 179 L 186 179 186 172 C 186 166.444, 185.690 165, 184.500 165 C 183.244 165, 183 162.889, 183 152 C 183 141.111, 183.244 139, 184.500 139 C 185.325 139, 186 138.325, 186 137.500 C 186 136.588, 186.931 136, 188.375 136 C 192.880 136, 197 134.746, 197 133.375 C 197 132.470, 198.197 132, 200.500 132 C 203.333 132, 204 131.619, 204 130 C 204 128.667, 204.667 128, 206 128 C 207.111 128, 208 127.333, 208 126.500 C 208 125.675, 208.675 125, 209.500 125 C 210.684 125, 211.003 123.577, 211.014 118.250 C 211.030 110.152, 211.759 107, 213.617 107 C 214.689 107, 215 105.029, 215 98.222 C 215 90.682, 214.718 89.203, 213 87.732 C 211.900 86.790, 211 84.890, 211 83.510 C 211 81.946, 210.435 81, 209.500 81 C 208.675 81, 208 80.325, 208 79.500 C 208 78.667, 207.111 78, 206 78 C 204.667 78, 204 77.333, 204 76 C 204 74.267, 203.333 74, 199 74 C 195.222 74, 194 73.633, 194 72.500 C 194 71.258, 192.111 71, 183 71 L 172 71 172 67.500 C 172 65.056, 172.452 64, 173.500 64 C 174.333 64, 175 63.111, 175 62 C 175 60.667, 175.667 60, 177 60 C 178.333 60, 179 59.333, 179 58 C 179 56.889, 179.667 56, 180.500 56 C 181.500 56, 182 55, 182 53 C 182 51, 181.500 50, 180.500 50 C 179.675 50, 179 49.150, 179 48.111 C 179 46.745, 178.033 46.041, 175.500 45.566 C 173.405 45.173, 172 44.325, 172 43.455 C 172 42.226, 168.584 42, 150 42 C 131.111 42, 128 42.212, 128 43.500 M 157 80 C 157 81.758, 156.333 82, 151.500 82 C 147.278 82, 146 82.348, 146 83.500 C 146 84.325, 145.325 85, 144.500 85 C 143.675 85, 143 85.689, 143 86.531 C 143 87.374, 142.325 88.322, 141.500 88.638 C 140.675 88.955, 140 89.841, 140 90.607 C 140 91.373, 140.675 92, 141.500 92 C 142.689 92, 143 93.438, 143 98.941 C 143 105.163, 141.912 108.245, 140.289 106.622 C 139.971 106.304, 139.493 103.784, 139.228 101.022 C 138.906 97.666, 138.290 96, 137.373 96 C 136.279 96, 136 98.647, 136 109 C 136 119.450, 136.273 122, 137.394 122 C 138.439 122, 138.878 123.986, 139.148 129.920 C 139.686 141.761, 142.101 142.774, 142.822 131.462 C 143.117 126.825, 143.624 125, 144.616 125 C 145.556 125, 146 126.242, 146 128.875 C 146 131.006, 146.281 134.156, 146.625 135.875 C 147.148 138.492, 147.710 139, 150.080 139 C 152.522 139, 152.999 138.521, 153.566 135.500 C 154.041 132.967, 154.745 132, 156.111 132 C 157.150 132, 158 131.361, 158 130.579 C 158 129.798, 159.350 128.862, 161 128.500 C 164.042 127.832, 165.255 125, 162.500 125 C 161.452 125, 161 123.944, 161 121.500 C 161 118.667, 160.619 118, 159 118 C 157.333 118, 157 117.333, 157 114 C 157 110.667, 157.333 110, 159 110 C 160.111 110, 161 109.333, 161 108.500 C 161 107.452, 162.056 107, 164.500 107 L 168 107 168 99.500 C 168 93.781, 167.671 92, 166.617 92 C 165.101 92, 164.035 89.032, 164.014 84.750 C 164.005 82.978, 163.466 82, 162.500 82 C 161.667 82, 161 81.111, 161 80 C 161 78.667, 160.333 78, 159 78 C 157.667 78, 157 78.667, 157 80 M 175.265 90.137 C 175.632 98.094, 176.246 102.534, 177.049 103.030 C 177.722 103.446, 178.494 106.085, 178.764 108.893 C 179.163 113.043, 179.605 114, 181.127 114 C 182.157 114, 183 114.675, 183 115.500 C 183 116.466, 183.978 117.005, 185.750 117.014 C 191.228 117.041, 193 118.044, 193 121.117 C 193 123.333, 193.462 124, 195 124 C 196.100 124, 197 123.550, 197 123 C 197 122.450, 197.635 122, 198.412 122 C 199.280 122, 200.085 120.459, 200.500 118 C 200.915 115.541, 201.720 114, 202.588 114 C 203.670 114, 204 112.362, 204 107 C 204 101.444, 204.310 100, 205.500 100 C 206.333 100, 207 99.111, 207 98 C 207 96.889, 206.333 96, 205.500 96 C 204.462 96, 204 94.957, 204 92.617 C 204 90.074, 203.503 89.103, 202 88.710 C 200.900 88.423, 200 87.470, 200 86.594 C 200 85.717, 199.325 85, 198.500 85 C 197.675 85, 197 84.325, 197 83.500 C 197 82.588, 196.069 82, 194.625 82 C 190.120 82, 186 80.746, 186 79.375 C 186 78.371, 184.478 78, 180.353 78 L 174.706 78 175.265 90.137 M 143 115.500 C 143 116.325, 143.675 117, 144.500 117 C 145.325 117, 146 116.325, 146 115.500 C 146 114.675, 145.325 114, 144.500 114 C 143.675 114, 143 114.675, 143 115.500 M 168 119 C 168 120.111, 168.667 121, 169.500 121 C 170.333 121, 171 120.111, 171 119 C 171 117.889, 170.333 117, 169.500 117 C 168.667 117, 168 117.889, 168 119 M 181.250 124.684 C 180.012 124.934, 179 125.783, 179 126.570 C 179 127.639, 180.406 128, 184.573 128 C 189.341 128, 190.099 127.747, 189.815 126.250 C 189.474 124.448, 185.766 123.770, 181.250 124.684" stroke="none" fill="black" fill-rule="evenodd"/>
</svg>