<svg xmlns="http://www.w3.org/2000/svg" width="300" height="300" viewBox="0 0 300 300" version="1.1">
	<path d="M 178 58 C 178 59.333, 177.333 60, 176 60 C 174.381 60, 174 60.667, 174 63.500 C 174 66.333, 173.619 67, 172 67 C 170.667 67, 170 67.667, 170 69 C 170 70.111, 169.333 71, 168.500 71 C 167.534 71, 166.995 71.978, 166.986 73.750 C 166.965 78.032, 165.899 81, 164.383 81 C 163.469 81, 163 82.187, 163 84.500 C 163 86.848, 162.535 88, 161.588 88 C 160.720 88, 159.915 89.541, 159.500 92 C 159.085 94.459, 158.280 96, 157.412 96 C 156.465 96, 156 97.152, 156 99.500 C 156 101.932, 155.546 103, 154.512 103 C 153.549 103, 152.798 104.412, 152.384 107 C 151.998 109.413, 151.200 111, 150.372 111 C 149.392 111, 149 112.429, 149 116 C 149 120.333, 148.733 121, 147 121 C 145.381 121, 145 121.667, 145 124.500 C 145 126.820, 144.532 128, 143.611 128 C 142.816 128, 141.942 129.495, 141.566 131.500 C 141.173 133.595, 140.325 135, 139.455 135 C 138.570 135, 138 135.979, 138 137.500 C 138 138.993, 137.428 140, 136.579 140 C 135.798 140, 134.862 141.350, 134.500 143 C 134.138 144.650, 133.202 146, 132.421 146 C 131.473 146, 131 147.127, 131 149.383 C 131 151.926, 130.503 152.897, 129 153.290 C 127.468 153.690, 127 154.654, 127 157.406 C 127 159.934, 126.555 161, 125.500 161 C 124.675 161, 124 161.717, 124 162.594 C 124 163.470, 123.100 164.423, 122 164.710 C 120.497 165.103, 120 166.074, 120 168.617 C 120 170.911, 119.532 172, 118.545 172 C 117.675 172, 116.827 173.405, 116.434 175.500 C 116.058 177.505, 115.184 179, 114.389 179 C 113.468 179, 113 180.180, 113 182.500 C 113 184.932, 112.546 186, 111.512 186 C 110.549 186, 109.798 187.412, 109.384 190 C 109.032 192.200, 108.186 194, 107.504 194 C 106.029 194, 104.887 201.183, 105.708 205.290 C 106.174 207.620, 106.678 208.053, 108.391 207.593 C 109.551 207.282, 111.063 207.021, 111.750 207.014 C 112.438 207.006, 113 206.325, 113 205.500 C 113 204.675, 113.619 204, 114.375 204 C 115.746 204, 117 199.880, 117 195.375 C 117 193.931, 117.588 193, 118.500 193 C 119.700 193, 120 194.500, 120 200.500 C 120 206.219, 119.671 208, 118.617 208 C 117.856 208, 116.998 208.900, 116.710 210 C 116.423 211.100, 115.470 212, 114.594 212 C 113.717 212, 113 212.675, 113 213.500 C 113 214.333, 112.111 215, 111 215 C 109.667 215, 109 215.667, 109 217 C 109 218.111, 108.333 219, 107.500 219 C 106.675 219, 106 219.675, 106 220.500 C 106 221.333, 105.111 222, 104 222 C 102.900 222, 102 222.635, 102 223.412 C 102 224.280, 100.459 225.085, 98 225.500 C 95.541 225.915, 94 226.720, 94 227.588 C 94 228.693, 92.154 229, 85.500 229 L 77 229 77 225.500 C 77 222.667, 76.619 222, 75 222 C 73.128 222, 73 221.333, 73 211.611 L 73 201.223 76.500 200.566 C 78.595 200.173, 80 199.325, 80 198.455 C 80 197.468, 81.089 197, 83.383 197 C 85.926 197, 86.897 196.503, 87.290 195 C 87.603 193.803, 88.654 193, 89.906 193 C 91.058 193, 92 192.361, 92 191.579 C 92 190.798, 93.350 189.862, 95 189.500 C 96.650 189.138, 98 188.202, 98 187.421 C 98 186.639, 98.900 186, 100 186 C 101.100 186, 102 185.377, 102 184.617 C 102 183.856, 102.900 182.998, 104 182.710 C 105.197 182.397, 106 181.346, 106 180.094 C 106 178.899, 106.644 178, 107.500 178 C 108.325 178, 109 177.550, 109 177 C 109 176.450, 108.325 176, 107.500 176 C 106.667 176, 106 175.111, 106 174 C 106 172.667, 105.333 172, 104 172 C 102.333 172, 102 171.333, 102 168 C 102 165.111, 101.583 164, 100.500 164 C 99.675 164, 99 163.325, 99 162.500 C 99 161.667, 98.111 161, 97 161 C 95.667 161, 95 160.333, 95 159 C 95 157.667, 94.333 157, 93 157 C 91.381 157, 91 156.333, 91 153.500 C 91 151.180, 90.532 150, 89.611 150 C 88.822 150, 87.945 148.522, 87.580 146.572 C 87.060 143.804, 86.366 143.020, 83.968 142.493 C 82.336 142.134, 81 141.202, 81 140.421 C 81 139.362, 79.573 139, 75.406 139 C 70.654 139, 69.734 139.301, 69.290 141 C 69.002 142.100, 68.144 143, 67.383 143 C 66.623 143, 66 143.900, 66 145 C 66 146.100, 65.371 147, 64.601 147 C 63.604 147, 63.002 149.005, 62.500 154 C 61.998 158.995, 61.396 161, 60.399 161 C 59.629 161, 59 161.675, 59 162.500 C 59 163.412, 58.069 164, 56.625 164 C 55.319 164, 52.844 164.281, 51.125 164.625 L 48 165.250 48 157.625 L 48 150 41 150 L 34 150 34 155 C 34 158.778, 34.367 160, 35.500 160 C 36.641 160, 37.003 161.256, 37.014 165.250 C 37.031 171.902, 37.858 175, 39.617 175 C 40.377 175, 41 175.900, 41 177 C 41 178.100, 41.616 179, 42.370 179 C 43.254 179, 43.922 180.614, 44.253 183.549 C 44.851 188.860, 44.699 188.635, 48.313 189.542 C 50.650 190.129, 51.216 189.890, 51.678 188.124 C 51.983 186.956, 52.856 186, 53.617 186 C 54.627 186, 55 184.516, 55 180.500 C 55 174.771, 55.320 174.443, 59.750 175.630 C 61.521 176.105, 62 176.953, 62 179.617 C 62 181.957, 61.538 183, 60.500 183 C 59.452 183, 59 184.056, 59 186.500 C 59 188.944, 59.452 190, 60.500 190 C 61.500 190, 62 191, 62 193 C 62 195, 61.500 196, 60.500 196 C 59.667 196, 59 196.889, 59 198 C 59 199.619, 58.333 200, 55.500 200 C 52.083 200, 52 200.095, 52 204 C 52 207.333, 52.333 208, 54 208 C 55.100 208, 56 208.646, 56 209.437 C 56 210.327, 57.237 210.993, 59.250 211.187 C 62.419 211.492, 62.508 211.630, 62.802 216.750 C 63.020 220.527, 63.511 222, 64.552 222 C 65.623 222, 66 223.302, 66 227 C 66 230.908, 66.348 232, 67.594 232 C 68.470 232, 69.423 232.900, 69.710 234 C 69.998 235.100, 70.856 236, 71.617 236 C 72.377 236, 73 236.900, 73 238 C 73 239.852, 73.667 240, 82 240 C 89.084 240, 91 239.699, 91 238.588 C 91 237.720, 92.541 236.915, 95 236.500 C 97.459 236.085, 99 235.280, 99 234.412 C 99 233.500, 100.096 233, 102.094 233 C 104.346 233, 105.329 232.456, 105.710 231 C 106.078 229.593, 107.074 229, 109.071 229 C 111.523 229, 111.999 228.524, 112.566 225.500 C 113.163 222.318, 113.530 222, 116.611 222 C 119.817 222, 120 221.811, 120 218.500 C 120 215.667, 120.381 215, 122 215 C 123.333 215, 124 214.333, 124 213 C 124 211.381, 124.667 211, 127.500 211 C 130.333 211, 131 211.381, 131 213 C 131 214.100, 131.625 215, 132.389 215 C 133.184 215, 134.058 216.495, 134.434 218.500 C 134.827 220.595, 135.675 222, 136.545 222 C 137.345 222, 138 222.900, 138 224 C 138 225.111, 138.667 226, 139.500 226 C 140.325 226, 141 226.675, 141 227.500 C 141 228.583, 142.111 229, 145 229 C 148.700 229, 148.999 228.794, 148.986 226.250 C 148.965 221.968, 147.899 219, 146.383 219 C 145.623 219, 145 218.100, 145 217 C 145 215.837, 144.333 215, 143.406 215 C 142.530 215, 141.577 214.100, 141.290 213 C 141.002 211.900, 140.144 211, 139.383 211 C 138.469 211, 138 209.813, 138 207.500 C 138 205.180, 137.532 204, 136.611 204 C 135.816 204, 134.942 202.505, 134.566 200.500 C 134.173 198.405, 133.325 197, 132.455 197 C 131.358 197, 131 195.646, 131 191.500 C 131 186.667, 130.758 186, 129 186 C 127.178 186, 127 185.333, 127 178.500 C 127 172.604, 127.311 171, 128.455 171 C 129.325 171, 130.173 169.595, 130.566 167.500 C 130.929 165.563, 131.822 164, 132.566 164 C 133.310 164, 134.203 162.437, 134.566 160.500 C 134.942 158.495, 135.816 157, 136.611 157 C 137.532 157, 138 155.820, 138 153.500 C 138 150.667, 138.381 150, 140 150 C 141.619 150, 142 149.333, 142 146.500 C 142 144.180, 142.468 143, 143.389 143 C 144.184 143, 145.058 141.505, 145.434 139.500 C 145.827 137.405, 146.675 136, 147.545 136 C 148.345 136, 149 135.100, 149 134 C 149 132.889, 149.667 132, 150.500 132 C 151.555 132, 152 130.934, 152 128.406 C 152 125.654, 152.468 124.690, 154 124.290 C 155.392 123.926, 156 122.926, 156 121 C 156 119.074, 156.608 118.074, 158 117.710 C 159.670 117.274, 160 116.346, 160 112.094 C 160 108.233, 160.363 107, 161.500 107 C 162.548 107, 163 105.944, 163 103.500 C 163 100.667, 163.381 100, 165 100 C 166.667 100, 167 99.333, 167 96 C 167 93.254, 167.435 92, 168.389 92 C 169.184 92, 170.058 90.505, 170.434 88.500 C 170.827 86.405, 171.675 85, 172.545 85 C 173.541 85, 174 83.896, 174 81.500 C 174 78.667, 174.381 78, 176 78 C 177.370 78, 178 77.333, 178 75.883 C 178 74.176, 178.435 73.883, 180.250 74.370 C 181.488 74.701, 183.063 74.979, 183.750 74.986 C 184.469 74.994, 185 76.274, 185 78 C 185 79.888, 185.513 81, 186.383 81 C 187.899 81, 188.965 78.032, 188.986 73.750 L 189 71 199.500 71 C 207.773 71, 210 71.293, 210 72.383 C 210 73.144, 210.900 74.002, 212 74.290 C 214.206 74.867, 214.478 77.374, 213.352 86.750 C 212.937 90.202, 212.255 92, 211.361 92 C 210.472 92, 210 93.215, 210 95.500 C 210 98.518, 209.673 99, 207.625 99 C 203.120 99, 199 100.254, 199 101.625 C 199 102.625, 197.500 103, 193.500 103 C 189.484 103, 188 103.373, 188 104.383 C 188 105.899, 185.032 106.965, 180.750 106.986 C 178.978 106.995, 178 107.534, 178 108.500 C 178 109.333, 177.111 110, 176 110 C 174.667 110, 174 110.667, 174 112 C 174 113.374, 173.333 114, 171.870 114 C 169.934 114, 169.787 114.414, 170.253 118.549 C 170.535 121.052, 171.061 123.394, 171.421 123.754 C 171.782 124.115, 174.984 124.595, 178.538 124.822 L 185 125.233 185 121.733 C 185 119.074, 185.481 118.108, 187 117.710 C 188.100 117.423, 189 116.470, 189 115.594 C 189 114.348, 190.092 114, 194 114 C 197.576 114, 199 113.608, 199 112.625 C 199 111.254, 203.120 110, 207.625 110 C 209.069 110, 210 109.412, 210 108.500 C 210 107.452, 211.056 107, 213.500 107 C 216.833 107, 217 107.167, 217 110.500 C 217 112.932, 216.546 114, 215.512 114 C 214.549 114, 213.798 115.412, 213.384 118 C 212.998 120.413, 212.200 122, 211.372 122 C 210.617 122, 210 122.450, 210 123 C 210 123.550, 210.675 124, 211.500 124 C 212.728 124, 213 125.722, 213 133.500 L 213 143 202.500 143 C 193.833 143, 192 143.262, 192 144.500 C 192 145.621, 190.799 146.003, 187.250 146.014 C 181.077 146.031, 178 146.897, 178 148.617 C 178 149.564, 176.739 150, 174 150 L 170 150 170 144.500 C 170 140.278, 169.652 139, 168.500 139 C 167.310 139, 167 137.556, 167 132 L 167 125 163.617 125 C 161.074 125, 160.103 125.497, 159.710 127 C 159.423 128.100, 158.470 129, 157.594 129 C 156.348 129, 156 130.092, 156 134 C 156 137.576, 156.392 139, 157.375 139 C 158.948 139, 160 143.259, 160 149.625 C 160 152.714, 160.413 154, 161.404 154 C 162.526 154, 162.878 156.817, 163.154 168.037 C 163.428 179.168, 163.811 182.266, 165 182.999 C 166.246 183.768, 166.551 187.735, 166.803 206.462 L 167.106 229 170.553 229 L 174 229 174 234.500 L 174 240 185 240 C 194.111 240, 196 239.742, 196 238.500 C 196 237.328, 197.367 236.997, 202.250 236.986 C 205.688 236.979, 209.539 236.694, 210.809 236.354 C 212.608 235.873, 213.241 236.207, 213.676 237.868 C 213.982 239.041, 214.803 240, 215.500 240 C 216.197 240, 217.002 240.900, 217.290 242 C 217.577 243.100, 218.347 244, 219 244 C 219.653 244, 220.423 243.100, 220.710 242 C 221.103 240.497, 222.074 240, 224.617 240 C 226.821 240, 228 239.521, 228 238.625 C 228 237.096, 232.228 236, 238.125 236 C 240.903 236, 242 235.575, 242 234.500 C 242 233.258, 243.889 233, 253 233 C 261.959 233, 264 232.730, 264 231.545 C 264 230.675, 265.405 229.827, 267.500 229.434 C 269.437 229.071, 271 228.178, 271 227.434 C 271 226.690, 269.437 225.797, 267.500 225.434 C 265.495 225.058, 264 224.184, 264 223.389 C 264 222.372, 262.526 222, 258.500 222 C 254.278 222, 253 222.348, 253 223.500 C 253 224.325, 252.325 225, 251.500 225 C 250.675 225, 250 224.325, 250 223.500 C 250 222.417, 248.889 222, 246 222 C 243.111 222, 242 222.417, 242 223.500 C 242 224.548, 240.944 225, 238.500 225 C 236.056 225, 235 224.548, 235 223.500 C 235 222.675, 234.325 222, 233.500 222 C 232.675 222, 232 222.675, 232 223.500 C 232 225.778, 225.358 225.546, 224.835 223.250 C 224.616 222.287, 224.606 215.088, 224.814 207.250 C 225.116 195.862, 225.474 193, 226.596 193 C 227.368 193, 228 192.325, 228 191.500 C 228 190.348, 229.278 190, 233.500 190 L 239 190 239 195.500 C 239 199.722, 238.652 201, 237.500 201 C 236.675 201, 236 201.675, 236 202.500 C 236 204.915, 241.645 204.467, 242.290 202 C 242.577 200.900, 243.530 200, 244.406 200 C 245.713 200, 246 198.738, 246 193 C 246 187.707, 245.663 186, 244.617 186 C 243.856 186, 242.998 185.100, 242.710 184 C 242.236 182.185, 241.346 182, 233.094 182 L 224 182 224 173.651 C 224 169.059, 224.291 161.859, 224.647 157.651 L 225.293 150 230.147 150 C 233.612 150, 235 150.396, 235 151.383 C 235 152.959, 238 153.966, 242.750 153.986 C 245.877 153.999, 246 153.849, 246 150 C 246 146.667, 245.667 146, 244 146 C 242.889 146, 242 145.333, 242 144.500 C 242 143.284, 240.389 143, 233.500 143 L 225 143 225 132.579 L 225 122.159 228 121.500 C 231.042 120.832, 232.255 118, 229.500 118 C 228.278 118, 228 116.333, 228 109 C 228 101.667, 227.722 100, 226.500 100 C 225.667 100, 225 99.111, 225 98 C 225 96.333, 224.333 96, 221 96 C 218.459 96, 217.005 95.544, 217.014 94.750 C 217.045 91.840, 218.331 89, 219.617 89 C 220.711 89, 221 86.699, 221 78 C 221 67.667, 220.879 67, 219 67 C 217.900 67, 217 66.381, 217 65.625 C 217 64.254, 212.880 63, 208.375 63 C 206.931 63, 206 62.412, 206 61.500 C 206 60.278, 204.333 60, 197 60 C 190.004 60, 188 59.692, 188 58.617 C 188 57.101, 185.032 56.035, 180.750 56.014 C 178.662 56.003, 178 56.482, 178 58 M 56 61.372 C 56 62.200, 54.413 62.998, 52 63.384 C 49.412 63.798, 48 64.549, 48 65.512 C 48 66.333, 47.104 67, 46 67 C 44.667 67, 44 67.667, 44 69 C 44 70.111, 43.333 71, 42.500 71 C 41.675 71, 41 71.675, 41 72.500 C 41 73.325, 41.675 74, 42.500 74 C 43.333 74, 44 74.889, 44 76 C 44 77.333, 44.667 78, 46 78 C 47.333 78, 48 78.667, 48 80 C 48 81.111, 48.667 82, 49.500 82 C 50.325 82, 51 82.675, 51 83.500 C 51 84.333, 51.889 85, 53 85 C 54.619 85, 55 85.667, 55 88.500 C 55 91.333, 55.381 92, 57 92 C 58.333 92, 59 92.667, 59 94 C 59 95.619, 59.667 96, 62.500 96 C 65.333 96, 66 96.381, 66 98 C 66 99.111, 65.333 100, 64.500 100 C 63.675 100, 63 100.675, 63 101.500 C 63 102.583, 61.889 103, 59 103 C 56.166 103, 55 103.424, 55 104.455 C 55 105.325, 53.595 106.173, 51.500 106.566 C 49.575 106.927, 48 107.797, 48 108.500 C 48 109.203, 46.425 110.073, 44.500 110.434 C 41.059 111.080, 41 111.175, 41 116.045 L 41 121 48 121 C 53.556 121, 55 120.690, 55 119.500 C 55 118.588, 55.931 118, 57.375 118 C 61.880 118, 66 116.746, 66 115.375 C 66 114.310, 68.030 114, 75 114 C 83.333 114, 84 114.148, 84 116 C 84 117.111, 84.667 118, 85.500 118 C 86.652 118, 87 119.278, 87 123.500 C 87 127.722, 86.652 129, 85.500 129 C 84.443 129, 84 130.069, 84 132.617 C 84 135.879, 84.220 136.174, 86.250 135.630 C 87.487 135.299, 89.063 135.021, 89.750 135.014 C 90.630 135.004, 91 132.926, 91 128 C 91 122.444, 91.310 121, 92.500 121 C 93.548 121, 94 119.944, 94 117.500 C 94 115.056, 93.548 114, 92.500 114 C 91.667 114, 91 113.111, 91 112 C 91 110.889, 90.333 110, 89.500 110 C 88.675 110, 88 109.325, 88 108.500 C 88 107.667, 87.111 107, 86 107 C 84.667 107, 84 106.333, 84 105 C 84 103.381, 83.333 103, 80.500 103 C 77.167 103, 77 102.833, 77 99.500 C 77 96.667, 77.381 96, 79 96 C 80.333 96, 81 95.333, 81 94 C 81 92.889, 81.667 92, 82.500 92 C 83.548 92, 84 90.944, 84 88.500 C 84 85.667, 84.381 85, 86 85 C 87.874 85, 88 84.333, 88 74.406 C 88 64.654, 87.841 63.771, 86 63.290 C 84.900 63.002, 84 62.144, 84 61.383 C 84 60.271, 81.253 60, 70 60 C 58.802 60, 56 60.275, 56 61.372 M 62.589 73.500 C 61.753 76.831, 62.876 81, 64.608 81 C 65.565 81, 66 82.250, 66 85 C 66 87.889, 66.417 89, 67.500 89 C 68.325 89, 69 89.675, 69 90.500 C 69 91.333, 69.889 92, 71 92 C 72.111 92, 73 91.333, 73 90.500 C 73 89.667, 73.889 89, 75 89 C 76.619 89, 77 88.333, 77 85.500 C 77 83.056, 77.452 82, 78.500 82 C 79.652 82, 80 80.722, 80 76.500 L 80 71 71.608 71 C 63.491 71, 63.196 71.082, 62.589 73.500 M 76.324 147.868 C 76.018 149.041, 75.144 150, 74.383 150 C 73.623 150, 73 150.900, 73 152 C 73 153.111, 72.333 154, 71.500 154 C 70.675 154, 70 154.675, 70 155.500 C 70 156.722, 71.667 157, 79 157 C 86.568 157, 88 156.746, 88 155.406 C 88 154.530, 87.100 153.577, 86 153.290 C 84.583 152.919, 84 151.926, 84 149.883 C 84 148.251, 83.458 146.994, 82.750 146.986 C 82.063 146.979, 80.461 146.694, 79.191 146.354 C 77.392 145.873, 76.759 146.207, 76.324 147.868 M 207 151.500 C 207 152.605, 205.847 153, 202.625 153 C 196.259 153, 192 154.052, 192 155.625 C 192 156.530, 190.803 157, 188.500 157 C 185.667 157, 185 157.381, 185 159 C 185 160.758, 184.333 161, 179.500 161 C 174.667 161, 174 161.242, 174 163 C 174 164.111, 173.333 165, 172.500 165 C 171.675 165, 171 165.675, 171 166.500 C 171 167.325, 171.675 168, 172.500 168 C 173.787 168, 174 171.056, 174 189.500 C 174 207.350, 174.240 211, 175.412 211 C 176.280 211, 177.085 212.541, 177.500 215 C 177.915 217.459, 178.720 219, 179.588 219 C 180.365 219, 181 219.675, 181 220.500 C 181 221.325, 180.325 222, 179.500 222 C 178.675 222, 177.994 222.563, 177.986 223.250 C 177.979 223.938, 177.701 225.512, 177.370 226.750 C 176.793 228.904, 177.028 229, 182.883 229 C 187.654 229, 189 228.670, 189 227.500 C 189 226.675, 189.675 226, 190.500 226 C 191.325 226, 192 226.675, 192 227.500 C 192 228.333, 192.889 229, 194 229 C 195.111 229, 196 228.333, 196 227.500 C 196 226.302, 197.486 226, 203.375 226 C 207.431 226, 212.156 225.719, 213.875 225.375 L 217 224.750 217 208.875 C 217 196.834, 216.698 193.003, 215.750 193.014 C 212.840 193.045, 210 194.331, 210 195.617 C 210 196.610, 208.590 197, 205 197 C 201.222 197, 200 197.367, 200 198.500 C 200 199.325, 199.150 200, 198.111 200 C 196.745 200, 196.041 200.967, 195.566 203.500 C 194.919 206.950, 192 208.587, 192 205.500 C 192 204.452, 190.944 204, 188.500 204 L 185 204 185 199.045 C 185 194.175, 185.059 194.080, 188.500 193.434 C 190.454 193.067, 192 192.179, 192 191.423 C 192 190.553, 193.788 189.832, 197 189.406 C 200.246 188.975, 202 188.261, 202 187.371 C 202 186.331, 203.813 186, 209.500 186 L 217 186 217 182.500 C 217 180.056, 216.548 179, 215.500 179 C 214.667 179, 214 178.111, 214 177 C 214 175.889, 214.667 175, 215.500 175 C 216.325 175, 217 174.325, 217 173.500 C 217 172.675, 216.325 172, 215.500 172 C 214.258 172, 214 170.111, 214 161 L 214 150 210.500 150 C 208.056 150, 207 150.452, 207 151.500 M 70 179 L 70 190 73.094 190 C 75.346 190, 76.329 189.456, 76.710 188 C 77.103 186.497, 78.074 186, 80.617 186 C 83.333 186, 84 185.606, 84 184 C 84 182.667, 84.667 182, 86 182 C 87.111 182, 88 181.333, 88 180.500 C 88 179.675, 88.675 179, 89.500 179 C 90.523 179, 91.004 177.966, 91.014 175.750 C 91.021 173.963, 91.299 171.488, 91.630 170.250 C 92.229 168.015, 92.157 168, 81.117 168 L 70 168 70 179" stroke="none" fill="black" fill-rule="evenodd"/>
</svg>