<svg xmlns="http://www.w3.org/2000/svg" width="300" height="300" viewBox="0 0 300 300" version="1.1">
	<path d="M 132 73 C 132 74.100, 131.377 75, 130.617 75 C 128.713 75, 128.015 78.327, 128.701 84.122 C 129.076 87.286, 129.757 89, 130.639 89 C 131.724 89, 132 91.937, 132 103.500 C 132 115.023, 132.278 118, 133.353 118 C 135.125 118, 136 128.293, 136 149.151 C 136 162.572, 136.230 165, 137.500 165 C 138.548 165, 139 166.056, 139 168.500 C 139 170.944, 138.548 172, 137.500 172 C 136.367 172, 136 173.222, 136 177 C 136 180.778, 136.367 182, 137.500 182 C 138.583 182, 139 183.111, 139 186 C 139 188.889, 139.417 190, 140.500 190 C 141.325 190, 142 190.675, 142 191.500 C 142 192.325, 142.848 193, 143.883 193 C 144.926 193, 146 193.893, 146.290 195 C 146.690 196.532, 147.654 197, 150.406 197 C 152.825 197, 154 196.541, 154 195.596 C 154 194.526, 156.493 194.023, 164.500 193.477 C 172.417 192.937, 175 192.422, 175 191.381 C 175 190.417, 176.321 190, 179.375 190 C 185.741 190, 190 188.948, 190 187.375 C 190 186.396, 191.407 186, 194.883 186 C 198.926 186, 199.857 185.656, 200.290 184 C 200.577 182.900, 201.530 182, 202.406 182 C 203.333 182, 204 182.837, 204 184 C 204 185.619, 204.667 186, 207.500 186 C 210.333 186, 211 186.381, 211 188 C 211 189.333, 211.667 190, 213 190 C 214.100 190, 215 190.625, 215 191.389 C 215 192.184, 216.495 193.058, 218.500 193.434 C 221.562 194.008, 222 194.460, 222 197.045 C 222 199.333, 221.549 200, 220 200 C 218.667 200, 218 200.667, 218 202 C 218 203.873, 217.333 204, 207.500 204 C 199.221 204, 197 204.293, 197 205.385 C 197 206.486, 193.317 206.919, 179 207.500 C 164.683 208.081, 161 208.514, 161 209.615 C 161 210.627, 159.519 211, 155.500 211 C 151.500 211, 150 211.375, 150 212.375 C 150 214.060, 145.658 215, 137.875 215 C 133.319 215, 132 215.337, 132 216.500 C 132 217.663, 130.681 218, 126.125 218 C 118.342 218, 114 218.940, 114 220.625 C 114 221.760, 109.015 222, 85.500 222 C 61.622 222, 57 221.771, 57 220.588 C 57 219.720, 55.459 218.915, 53 218.500 L 49 217.824 49 207.412 C 49 197.667, 49.128 197, 51 197 C 52.333 197, 53 196.333, 53 195 C 53 193.121, 53.667 193, 64 193 C 73.111 193, 75 192.742, 75 191.500 C 75 190.310, 76.444 190, 82 190 C 88.333 190, 89 189.810, 89 188 C 89 186.267, 89.667 186, 94 186 C 97.908 186, 99 185.652, 99 184.406 C 99 183.530, 99.900 182.577, 101 182.290 C 102.100 182.002, 103 181.144, 103 180.383 C 103 179.623, 103.900 179, 105 179 C 106.100 179, 107 179.655, 107 180.455 C 107 181.325, 108.405 182.173, 110.500 182.566 C 113.682 183.163, 114 183.530, 114 186.611 C 114 189.333, 114.393 190, 116 190 C 117.111 190, 118 190.667, 118 191.500 C 118 192.633, 119.222 193, 123 193 L 128 193 128 189.500 C 128 187.056, 127.548 186, 126.500 186 C 125.667 186, 125 185.111, 125 184 C 125 182.667, 124.333 182, 123 182 C 121.889 182, 121 181.333, 121 180.500 C 121 179.675, 120.375 179, 119.611 179 C 118.816 179, 117.942 177.505, 117.566 175.500 C 117.173 173.405, 116.325 172, 115.455 172 C 114.469 172, 114 170.912, 114 168.625 C 114 165.645, 113.634 165.177, 110.875 164.625 C 105.102 163.470, 103 163.837, 103 166 C 103 167.100, 102.375 168, 101.611 168 C 100.816 168, 99.942 169.495, 99.566 171.500 C 98.999 174.524, 98.523 175, 96.071 175 C 94.074 175, 93.078 175.593, 92.710 177 C 92.274 178.670, 91.346 179, 87.094 179 C 83.233 179, 82 179.363, 82 180.500 C 82 181.706, 80.458 182, 74.125 182 C 69.794 182, 64.844 182.281, 63.125 182.625 C 60.409 183.168, 60 182.972, 60 181.125 C 60 179.932, 60.638 179, 61.455 179 C 62.325 179, 63.173 177.595, 63.566 175.500 C 63.942 173.495, 64.816 172, 65.611 172 C 66.375 172, 67 171.100, 67 170 C 67 168.667, 67.667 168, 69 168 C 70.333 168, 71 167.333, 71 166 C 71 164.900, 71.639 164, 72.421 164 C 73.202 164, 74.138 162.650, 74.500 161 C 74.862 159.350, 75.798 158, 76.579 158 C 77.361 158, 78 157.152, 78 156.117 C 78 155.074, 78.893 154, 80 153.710 C 81.100 153.423, 82 152.470, 82 151.594 C 82 150.717, 82.675 150, 83.500 150 C 84.333 150, 85 149.111, 85 148 C 85 146.667, 85.667 146, 87 146 C 88.111 146, 89 145.333, 89 144.500 C 89 143.675, 89.625 143, 90.389 143 C 91.184 143, 92.058 141.505, 92.434 139.500 C 92.827 137.405, 93.675 136, 94.545 136 C 95.576 136, 96 134.834, 96 132 L 96 128 90.906 128 C 86.654 128, 85.726 128.330, 85.290 130 C 84.897 131.503, 83.926 132, 81.383 132 C 79.179 132, 78 132.479, 78 133.375 C 78 134.944, 72.051 136.451, 70.800 135.200 C 69.606 134.006, 71.021 128, 72.496 128 C 73.236 128, 74.012 125.970, 74.406 123 C 74.860 119.576, 75.531 118, 76.534 118 C 77.641 118, 78 116.678, 78 112.611 C 78 107.245, 78.014 107.220, 81.500 106.566 L 85 105.909 85 97.455 L 85 89 81.500 89 L 78 89 78 94.500 C 78 99.333, 77.758 100, 76 100 C 74.889 100, 74 100.667, 74 101.500 C 74 102.325, 73.325 103, 72.500 103 C 71.445 103, 71 104.066, 71 106.594 C 71 109.346, 70.532 110.310, 69 110.710 C 67.344 111.143, 67 112.074, 67 116.117 C 67 119.656, 66.611 121, 65.588 121 C 64.720 121, 63.915 122.541, 63.500 125 C 63.085 127.459, 62.280 129, 61.412 129 C 60.465 129, 60 130.152, 60 132.500 C 60 135.333, 59.619 136, 58 136 C 56.667 136, 56 136.667, 56 138 C 56 139.111, 55.333 140, 54.500 140 C 53.675 140, 53 140.675, 53 141.500 C 53 142.333, 52.111 143, 51 143 C 49.242 143, 49 143.667, 49 148.500 L 49 154 52.500 154 C 55.333 154, 56 153.619, 56 152 C 56 150.242, 56.667 150, 61.500 150 C 65.722 150, 67 149.652, 67 148.500 C 67 147.675, 67.563 146.994, 68.250 146.986 C 68.938 146.979, 70.513 146.701, 71.750 146.370 C 73.565 145.883, 74 146.176, 74 147.883 C 74 149.098, 73.361 150, 72.500 150 C 71.667 150, 71 150.889, 71 152 C 71 153.100, 70.377 154, 69.617 154 C 68.856 154, 67.998 154.900, 67.710 156 C 67.423 157.100, 66.506 158, 65.673 158 C 64.804 158, 63.878 159.278, 63.500 161 C 63.138 162.650, 62.202 164, 61.421 164 C 60.639 164, 60 164.900, 60 166 C 60 167.333, 59.333 168, 58 168 C 56.381 168, 56 168.667, 56 171.500 C 56 173.813, 55.531 175, 54.617 175 C 53.856 175, 52.998 175.900, 52.710 177 C 52.423 178.100, 51.653 179, 51 179 C 50.347 179, 49.577 178.100, 49.290 177 C 49.002 175.900, 48.144 175, 47.383 175 C 46.289 175, 46 172.699, 46 164 C 46 153.667, 45.879 153, 44 153 C 42.274 153, 42 152.333, 42 148.125 C 42 143.454, 41.868 143.224, 38.840 142.618 C 37.102 142.270, 35.560 142.106, 35.413 142.253 C 34.890 142.777, 34.643 149.640, 34.820 158.750 C 34.966 166.226, 35.288 168, 36.500 168 C 37.714 168, 38 169.595, 38 176.353 C 38 188.915, 39.035 197, 40.642 197 C 41.605 197, 42 198.455, 42 202 C 42 205.565, 41.607 207, 40.631 207 C 39.169 207, 38.030 211.894, 38.011 218.250 C 38.003 220.912, 37.565 222, 36.500 222 C 35.675 222, 35 222.675, 35 223.500 C 35 224.325, 35.675 225, 36.500 225 C 37.325 225, 38 225.857, 38 226.904 C 38 228.670, 39.026 228.833, 52.167 229.154 C 62.357 229.403, 66.451 229.851, 66.751 230.750 C 67.312 232.436, 95.649 232.552, 96.210 230.871 C 96.455 230.136, 101.547 229.564, 110.793 229.231 C 121.855 228.833, 125 228.419, 125 227.360 C 125 226.387, 126.494 225.998, 130.250 225.991 C 139.255 225.976, 146 224.850, 146 223.361 C 146 222.378, 147.528 222, 151.500 222 C 155.500 222, 157 221.625, 157 220.625 C 157 218.754, 161.489 218, 172.625 218 C 180.292 218, 182 217.727, 182 216.500 C 182 215.217, 184.889 215, 202 215 C 218.834 215, 222 214.770, 222 213.545 C 222 212.675, 223.405 211.827, 225.500 211.434 C 227.425 211.073, 229 210.205, 229 209.505 C 229 208.806, 229.900 207.998, 231 207.710 C 232.435 207.335, 233 206.346, 233 204.210 C 233 202.074, 233.565 201.086, 235 200.710 C 236.100 200.423, 237 199.470, 237 198.594 C 237 197.717, 237.675 197, 238.500 197 C 239.738 197, 240 195.167, 240 186.500 C 240 177.994, 240.275 176, 241.450 176 C 242.514 176, 242.980 174.470, 243.200 170.260 C 243.437 165.732, 243.870 164.449, 245.250 164.186 C 246.659 163.918, 247 164.568, 247 167.520 C 247 170.346, 247.459 171.307, 249 171.710 C 250.503 172.103, 251 173.074, 251 175.617 C 251 177.957, 251.462 179, 252.500 179 C 253.637 179, 254 180.233, 254 184.094 C 254 188.346, 254.330 189.274, 256 189.710 C 258.255 190.300, 258.754 193, 256.608 193 C 254.821 193, 253.836 196.932, 254.630 200.902 C 255.143 203.467, 255.724 204, 258.008 204 C 259.926 204, 260.926 203.390, 261.290 202 C 261.577 200.900, 262.477 200, 263.290 200 C 265.264 200, 265.618 197.331, 265.177 185.750 C 264.891 178.224, 264.487 176, 263.403 176 C 262.632 176, 262 175.058, 262 173.906 C 262 172.654, 261.197 171.603, 260 171.290 C 258.497 170.897, 258 169.926, 258 167.383 C 258 165.078, 257.533 164, 256.534 164 C 255.531 164, 254.860 162.424, 254.406 159 C 253.975 155.754, 253.261 154, 252.371 154 C 251.464 154, 251 152.784, 251 150.406 C 251 147.654, 250.532 146.690, 249 146.290 C 247.244 145.831, 247 144.926, 247 138.883 C 247 132.667, 246.806 132, 245 132 C 243.889 132, 243 131.333, 243 130.500 C 243 129.675, 242.325 129, 241.500 129 C 240.675 129, 240 129.675, 240 130.500 C 240 131.362, 239.098 132, 237.878 132 C 235.828 132, 235.768 132.360, 236.078 142.750 C 236.665 162.368, 236.183 171, 234.500 171 C 233.278 171, 233 172.667, 233 180 L 233 189 229.500 189 C 227.056 189, 226 188.548, 226 187.500 C 226 186.667, 225.111 186, 224 186 C 222.667 186, 222 185.333, 222 184 C 222 182.667, 221.333 182, 220 182 C 218.889 182, 218 181.333, 218 180.500 C 218 179.675, 217.325 179, 216.500 179 C 215.667 179, 215 178.111, 215 177 C 215 175.667, 214.333 175, 213 175 C 211.900 175, 211 174.377, 211 173.617 C 211 172.089, 208.026 171.035, 203.656 171.014 C 201.647 171.004, 200.659 171.587, 200.290 173 C 199.935 174.356, 198.919 175.004, 197.133 175.014 C 192.960 175.035, 190 176.115, 190 177.617 C 190 178.663, 188.293 179, 183 179 C 177.444 179, 176 179.310, 176 180.500 C 176 181.700, 174.500 182, 168.500 182 C 162.500 182, 161 181.700, 161 180.500 C 161 179.675, 161.675 179, 162.500 179 C 163.333 179, 164 178.111, 164 177 C 164 175.667, 164.667 175, 166 175 C 167.619 175, 168 174.333, 168 171.500 C 168 168.667, 168.381 168, 170 168 C 171.333 168, 172 167.333, 172 166 C 172 164.900, 172.625 164, 173.389 164 C 174.184 164, 175.058 162.505, 175.434 160.500 C 175.827 158.405, 176.675 157, 177.545 157 C 178.345 157, 179 156.100, 179 155 C 179 153.900, 179.639 153, 180.421 153 C 181.202 153, 182.138 151.650, 182.500 150 C 182.862 148.350, 183.798 147, 184.579 147 C 185.428 147, 186 145.993, 186 144.500 C 186 143.007, 186.572 142, 187.421 142 C 188.202 142, 189.138 140.650, 189.500 139 C 189.862 137.350, 190.798 136, 191.579 136 C 192.539 136, 193 134.853, 193 132.469 C 193 130.281, 193.560 128.722, 194.473 128.372 C 195.283 128.061, 196.233 126.275, 196.584 124.403 C 196.935 122.532, 197.797 121, 198.500 121 C 199.203 121, 200.073 119.425, 200.434 117.500 C 200.827 115.405, 201.675 114, 202.545 114 C 204.738 114, 204.292 111.310, 202 110.710 C 200.900 110.423, 200 109.470, 200 108.594 C 200 107.439, 199.036 107, 196.500 107 C 194.056 107, 193 107.452, 193 108.500 C 193 109.548, 191.944 110, 189.500 110 C 186.667 110, 186 110.381, 186 112 C 186 113.667, 185.333 114, 182 114 C 179.111 114, 178 114.417, 178 115.500 C 178 116.325, 177.156 117, 176.125 117 C 175.094 117, 172.844 117.281, 171.125 117.625 C 168.409 118.168, 168 117.972, 168 116.125 C 168 114.667, 168.627 114, 170 114 C 171.333 114, 172 113.333, 172 112 C 172 110.889, 172.667 110, 173.500 110 C 174.510 110, 175 108.990, 175 106.906 C 175 104.654, 175.544 103.671, 177 103.290 C 178.688 102.848, 179 101.926, 179 97.383 L 179 92 175.750 92.014 C 169.486 92.040, 168 92.923, 168 96.617 C 168 98.911, 167.532 100, 166.545 100 C 165.675 100, 164.827 101.405, 164.434 103.500 C 164.058 105.505, 163.184 107, 162.389 107 C 161.468 107, 161 108.180, 161 110.500 C 161 113.333, 160.619 114, 159 114 C 157.381 114, 157 114.667, 157 117.500 C 157 119.944, 156.548 121, 155.500 121 C 154.348 121, 154 122.278, 154 126.500 C 154 130.722, 154.348 132, 155.500 132 C 156.325 132, 157 131.325, 157 130.500 C 157 129.324, 158.375 129, 163.375 129 C 171.634 129, 176 128.092, 176 126.375 C 176 125.505, 177.135 125, 179.094 125 C 181.346 125, 182.329 124.456, 182.710 123 C 183.681 119.287, 186 120.696, 186 125 C 186 127.834, 185.576 129, 184.545 129 C 183.675 129, 182.827 130.405, 182.434 132.500 C 182.058 134.505, 181.184 136, 180.389 136 C 179.503 136, 179 137.121, 179 139.094 C 179 141.346, 178.456 142.329, 177 142.710 C 175.497 143.103, 175 144.074, 175 146.617 C 175 149.333, 174.606 150, 173 150 C 171.667 150, 171 150.667, 171 152 C 171 153.111, 170.333 154, 169.500 154 C 168.513 154, 168 154.987, 168 156.883 C 168 158.926, 167.417 159.919, 166 160.290 C 164.900 160.577, 164 161.530, 164 162.406 C 164 163.283, 163.325 164, 162.500 164 C 161.667 164, 161 164.889, 161 166 C 161 167.100, 160.345 168, 159.545 168 C 158.675 168, 157.827 169.405, 157.434 171.500 C 157.073 173.425, 156.203 175, 155.500 175 C 154.797 175, 153.927 176.575, 153.566 178.500 C 153.001 181.509, 152.517 182, 150.113 182 L 147.316 182 146.661 163.250 C 146.301 152.938, 146.004 139.887, 146.003 134.250 C 146.001 126.072, 145.713 124, 144.583 124 C 143.425 124, 143.104 120.756, 142.833 106.332 C 142.588 93.330, 142.170 88.555, 141.250 88.249 C 140.563 88.020, 139.996 86.408, 139.991 84.667 C 139.987 82.925, 139.699 79.138, 139.352 76.250 C 138.731 71.083, 138.668 71, 135.361 71 C 132.667 71, 132 71.397, 132 73" stroke="none" fill="black" fill-rule="evenodd"/>
</svg>