<svg xmlns="http://www.w3.org/2000/svg" width="300" height="300" viewBox="0 0 300 300" version="1.1">
	<path d="M 154 65.500 C 154 66.764, 151.722 67, 139.500 67 L 125 67 125 72.500 L 125 78 134 78 C 140.900 78, 143 77.684, 143 76.647 C 143 75.629, 145.790 75.127, 154.250 74.621 C 164.897 73.985, 172.017 74.488, 171.986 75.875 C 171.934 78.257, 170.541 81, 169.383 81 C 168.623 81, 168 81.900, 168 83 C 168 84.333, 167.333 85, 166 85 C 164.667 85, 164 85.667, 164 87 C 164 88.111, 163.333 89, 162.500 89 C 161.675 89, 161 89.675, 161 90.500 C 161 91.333, 160.111 92, 159 92 C 157.667 92, 157 92.667, 157 94 C 157 95.619, 156.333 96, 153.500 96 C 151.187 96, 150 96.469, 150 97.383 C 150 98.144, 149.100 99.002, 148 99.290 C 146.324 99.728, 146 100.654, 146 105 C 146 109.346, 146.324 110.272, 148 110.710 C 149.100 110.998, 150 111.856, 150 112.617 C 150 113.377, 150.900 114, 152 114 C 153.333 114, 154 114.667, 154 116 C 154 117.111, 154.667 118, 155.500 118 C 156.325 118, 157 118.675, 157 119.500 C 157 120.333, 157.889 121, 159 121 C 160.333 121, 161 121.667, 161 123 C 161 124.100, 161.647 125, 162.439 125 C 164.044 125, 165.698 133.061, 164.493 135.011 C 164.081 135.678, 161.823 136.060, 159.140 135.918 C 149.994 135.433, 146 135.913, 146 137.500 C 146 138.761, 143.791 139, 132.117 139 C 119.074 139, 118.202 139.121, 117.710 141 C 117.218 142.881, 116.346 143, 103.094 143 C 91.233 143, 89 143.238, 89 144.500 C 89 145.706, 87.458 146, 81.125 146 C 71.432 146, 67 146.824, 67 148.625 C 67 149.530, 65.803 150, 63.500 150 C 60.667 150, 60 150.381, 60 152 C 60 153.350, 59.333 154, 57.948 154 C 56.100 154, 55.926 154.524, 56.198 159.250 C 56.492 164.357, 56.587 164.508, 59.716 164.811 C 62.512 165.081, 63.018 165.578, 63.588 168.615 C 64.187 171.812, 64.508 172.083, 67.363 171.804 C 71.024 171.447, 72.574 168, 69.073 168 C 67.667 168, 67 167.357, 67 166 C 67 164.889, 66.333 164, 65.500 164 C 64.675 164, 64 163.325, 64 162.500 C 64 161.664, 64.890 161, 66.010 161 C 67.115 161, 68.790 160.100, 69.732 159 C 71.203 157.282, 72.682 157, 80.222 157 C 87.358 157, 89 156.719, 89 155.500 C 89 154.273, 90.708 154, 98.375 154 C 109.511 154, 114 153.246, 114 151.375 C 114 150.310, 116.030 150, 123 150 C 130.035 150, 132 149.695, 132 148.604 C 132 147.507, 135.104 147.053, 146.500 146.483 C 157.807 145.918, 161 145.455, 161 144.379 C 161 143.374, 162.492 143, 166.500 143 L 172 143 172 146.500 C 172 148.803, 172.470 150, 173.375 150 C 174.399 150, 174.864 152.187, 175.200 158.583 C 175.513 164.545, 176.085 167.434, 177.075 168.045 C 178.124 168.692, 178.590 171.705, 178.841 179.462 C 179.108 187.699, 179.490 190, 180.591 190 C 181.535 190, 182 191.156, 182 193.500 C 182 195.826, 181.532 197, 180.606 197 C 179.559 197, 179.120 199.012, 178.845 205.076 C 178.555 211.457, 178.113 213.357, 176.739 214.126 C 175.783 214.661, 175 215.752, 175 216.550 C 175 217.347, 174.325 218, 173.500 218 C 172.667 218, 172 218.889, 172 220 C 172 221.606, 171.333 222, 168.617 222 C 166.074 222, 165.103 221.503, 164.710 220 C 164.310 218.468, 163.346 218, 160.594 218 C 158.066 218, 157 217.555, 157 216.500 C 157 215.452, 155.944 215, 153.500 215 C 150.667 215, 150 214.619, 150 213 C 150 211.667, 149.333 211, 148 211 C 146.900 211, 146 210.345, 146 209.545 C 146 208.675, 144.595 207.827, 142.500 207.434 C 140.495 207.058, 139 206.184, 139 205.389 C 139 204.625, 138.325 204, 137.500 204 C 136.667 204, 136 203.111, 136 202 C 136 200.667, 135.333 200, 134 200 C 132.889 200, 132 199.333, 132 198.500 C 132 197.675, 131.377 197, 130.617 197 C 129.856 197, 128.998 196.100, 128.710 195 C 128.423 193.900, 127.470 193, 126.594 193 C 125.717 193, 125 192.325, 125 191.500 C 125 190.452, 123.944 190, 121.500 190 C 118.167 190, 118 190.167, 118 193.500 C 118 195.944, 118.452 197, 119.500 197 C 120.325 197, 121 197.623, 121 198.383 C 121 199.144, 121.900 200.002, 123 200.290 C 124.100 200.577, 125 201.530, 125 202.406 C 125 203.333, 125.837 204, 127 204 C 128.111 204, 129 204.667, 129 205.500 C 129 206.325, 129.675 207, 130.500 207 C 131.333 207, 132 207.889, 132 209 C 132 210.333, 132.667 211, 134 211 C 135.111 211, 136 211.667, 136 212.500 C 136 213.325, 136.675 214, 137.500 214 C 138.325 214, 139 214.850, 139 215.889 C 139 217.255, 139.967 217.959, 142.500 218.434 C 144.595 218.827, 146 219.675, 146 220.545 C 146 221.345, 146.900 222, 148 222 C 149.333 222, 150 222.667, 150 224 C 150 225.111, 150.667 226, 151.500 226 C 152.325 226, 153 226.675, 153 227.500 C 153 228.555, 154.066 229, 156.594 229 C 159.346 229, 160.310 229.468, 160.710 231 C 161.470 233.905, 168 233.905, 168 231 C 168 229.242, 168.667 229, 173.500 229 C 178.333 229, 179 228.758, 179 227 C 179 225.900, 179.655 225, 180.455 225 C 181.325 225, 182.173 223.595, 182.566 221.500 C 182.942 219.495, 183.816 218, 184.611 218 C 185.611 218, 186 216.600, 186 213 C 186 209.424, 186.392 208, 187.375 208 C 189.192 208, 190.002 203.544, 189.989 193.625 C 189.975 183.151, 189.111 178, 187.369 178 C 186.286 178, 186 175.490, 186 166 C 186 156, 185.750 154, 184.500 154 C 183.588 154, 183 153.069, 183 151.625 C 183 150.319, 182.731 147.905, 182.402 146.262 C 181.809 143.293, 181.839 143.270, 187.038 142.770 C 190.443 142.443, 192.590 141.697, 193.185 140.634 C 193.969 139.233, 196.266 139.002, 209.300 139.014 C 227.442 139.030, 228.683 139.281, 229.522 143.102 C 230.119 145.821, 230.464 146, 235.079 146 C 238.787 146, 240 145.630, 240 144.500 C 240 143.675, 240.655 143, 241.455 143 C 242.325 143, 243.173 141.595, 243.566 139.500 C 243.942 137.495, 244.816 136, 245.611 136 C 246.375 136, 247 135.100, 247 134 C 247 132.667, 246.333 132, 245 132 C 243.889 132, 243 131.333, 243 130.500 C 243 129.224, 240.389 129, 225.500 129 C 210.611 129, 208 129.224, 208 130.500 C 208 131.773, 205.500 132, 191.500 132 L 175 132 175 128.500 C 175 126.187, 174.531 125, 173.617 125 C 172.856 125, 171.998 124.100, 171.710 123 C 171.423 121.900, 170.470 121, 169.594 121 C 168.439 121, 168 120.036, 168 117.500 C 168 114.667, 167.619 114, 166 114 C 164.667 114, 164 113.333, 164 112 C 164 110.900, 163.381 110, 162.625 110 C 161.028 110, 159.853 105.277, 160.671 102.149 C 160.980 100.967, 161.856 100, 162.617 100 C 163.377 100, 164 99.100, 164 98 C 164 96.667, 164.667 96, 166 96 C 167.100 96, 168 95.377, 168 94.617 C 168 93.856, 168.900 92.998, 170 92.710 C 171.100 92.423, 172 91.470, 172 90.594 C 172 89.717, 172.675 89, 173.500 89 C 174.333 89, 175 88.111, 175 87 C 175 85.667, 175.667 85, 177 85 C 178.333 85, 179 84.333, 179 83 C 179 81.900, 179.655 81, 180.455 81 C 181.325 81, 182.173 79.595, 182.566 77.500 C 182.942 75.495, 183.816 74, 184.611 74 C 185.532 74, 186 72.820, 186 70.500 C 186 67.083, 185.905 67, 182 67 C 179.111 67, 178 66.583, 178 65.500 C 178 64.675, 177.550 64, 177 64 C 176.450 64, 176 64.675, 176 65.500 C 176 66.433, 175.056 67, 173.500 67 C 171.944 67, 171 66.433, 171 65.500 C 171 64.675, 170.325 64, 169.500 64 C 168.675 64, 168 64.675, 168 65.500 C 168 66.652, 166.722 67, 162.500 67 C 158.278 67, 157 66.652, 157 65.500 C 157 64.675, 156.325 64, 155.500 64 C 154.675 64, 154 64.675, 154 65.500" stroke="none" fill="black" fill-rule="evenodd"/>
</svg>