<svg xmlns="http://www.w3.org/2000/svg" width="300" height="300" viewBox="0 0 300 300" version="1.1">
	<path d="M 125.750 34.663 C 124.237 34.921, 123 35.778, 123 36.566 C 123 37.355, 122.325 38, 121.500 38 C 120.417 38, 120 39.111, 120 42 C 120 45.537, 120.273 46, 122.360 46 C 128.116 46, 134 44.668, 134 43.364 C 134 42.295, 136.376 42, 145 42 C 155.333 42, 156 42.121, 156 44 C 156 45.333, 156.667 46, 158 46 C 159.111 46, 160 46.667, 160 47.500 C 160 48.325, 160.616 49, 161.370 49 C 162.891 49, 164.072 41.827, 163.255 37.552 L 162.767 35 150.633 34.991 C 143.960 34.987, 136.250 34.805, 133.500 34.587 C 130.750 34.370, 127.263 34.404, 125.750 34.663 M 181.250 52.685 C 175.754 52.990, 174 53.440, 174 54.544 C 174 55.549, 172.886 56, 170.406 56 C 167.654 56, 166.690 56.468, 166.290 58 C 165.857 59.656, 164.926 60, 160.883 60 C 157.340 60, 156 60.388, 156 61.415 C 156 62.446, 153.968 63.020, 148.500 63.532 C 143.122 64.036, 141 64.626, 141 65.617 C 141 66.692, 138.993 67, 132 67 C 125.004 67, 123 67.308, 123 68.383 C 123 70.210, 119.865 70.970, 112.250 70.986 C 107.367 70.997, 106 71.328, 106 72.500 C 106 73.718, 104.355 74.003, 97.250 74.014 C 87.209 74.029, 84 74.660, 84 76.617 C 84 77.531, 82.813 78, 80.500 78 C 77.167 78, 77 78.167, 77 81.500 C 77 84.844, 77.167 85.008, 80.750 85.188 C 82.813 85.291, 86.904 85.249, 89.842 85.094 C 98.823 84.620, 105.727 86.792, 100 88.290 C 98.468 88.690, 98 89.654, 98 92.406 C 98 94.934, 97.555 96, 96.500 96 C 95.310 96, 95 97.444, 95 103 C 95 108.556, 95.310 110, 96.500 110 C 97.333 110, 98 110.889, 98 112 C 98 113.111, 97.333 114, 96.500 114 C 95.348 114, 95 115.278, 95 119.500 C 95 123.722, 95.348 125, 96.500 125 C 97.325 125, 98 125.675, 98 126.500 C 98 127.325, 97.383 128, 96.628 128 C 95.552 128, 95.160 131.034, 94.807 142.080 C 94.464 152.838, 94.020 156.369, 92.929 157.044 C 91.921 157.666, 91.396 160.444, 91.147 166.463 C 90.880 172.938, 90.457 175, 89.397 175 C 88.370 175, 88 176.457, 88 180.500 C 88 185.333, 87.758 186, 86 186 C 84.242 186, 84 186.667, 84 191.500 C 84 196.333, 83.758 197, 82 197 C 80.267 197, 80 197.667, 80 202 C 80 205.778, 79.633 207, 78.500 207 C 77.477 207, 76.996 208.034, 76.986 210.250 C 76.966 215, 75.959 218, 74.383 218 C 73.623 218, 73 218.900, 73 220 C 73 221.100, 72.375 222, 71.611 222 C 70.816 222, 69.942 223.495, 69.566 225.500 C 69.173 227.595, 68.325 229, 67.455 229 C 66.655 229, 66 229.900, 66 231 C 66 232.333, 65.333 233, 64 233 C 62.482 233, 62.003 233.662, 62.014 235.750 C 62.041 241.228, 63.044 243, 66.117 243 C 68.013 243, 69 242.487, 69 241.500 C 69 240.667, 69.889 240, 71 240 C 72.619 240, 73 239.333, 73 236.500 C 73 233.667, 73.381 233, 75 233 C 76.619 233, 77 232.333, 77 229.500 C 77 226.964, 77.439 226, 78.594 226 C 79.470 226, 80.423 225.100, 80.710 224 C 80.998 222.900, 81.856 222, 82.617 222 C 83.627 222, 84 220.516, 84 216.500 C 84 212.278, 84.348 211, 85.500 211 C 86.325 211, 87 210.365, 87 209.588 C 87 208.720, 88.541 207.915, 91 207.500 C 93.459 207.085, 95 206.280, 95 205.412 C 95 204.635, 95.625 204, 96.389 204 C 97.184 204, 98.058 202.505, 98.434 200.500 C 98.827 198.405, 99.675 197, 100.545 197 C 101.345 197, 102 196.100, 102 195 C 102 193.667, 102.667 193, 104 193 C 105.111 193, 106 192.333, 106 191.500 C 106 190.675, 106.675 190, 107.500 190 C 108.333 190, 109 189.111, 109 188 C 109 186.667, 109.667 186, 111 186 C 112.333 186, 113 185.333, 113 184 C 113 182.889, 113.667 182, 114.500 182 C 115.325 182, 116 181.325, 116 180.500 C 116 179.667, 116.889 179, 118 179 C 119.333 179, 120 178.333, 120 177 C 120 175.889, 120.667 175, 121.500 175 C 122.325 175, 123 174.325, 123 173.500 C 123 172.667, 123.889 172, 125 172 C 126.333 172, 127 171.333, 127 170 C 127 168.900, 127.623 168, 128.383 168 C 129.144 168, 130.002 167.100, 130.290 166 C 130.603 164.803, 131.654 164, 132.906 164 C 134.058 164, 135 163.361, 135 162.579 C 135 161.798, 136.350 160.862, 138 160.500 C 139.650 160.138, 141 159.202, 141 158.421 C 141 157.639, 141.900 157, 143 157 C 144.111 157, 145 156.333, 145 155.500 C 145 154.300, 146.500 154, 152.500 154 C 158.500 154, 160 154.300, 160 155.500 C 160 156.325, 160.675 157, 161.500 157 C 162.629 157, 163 155.791, 163 152.117 C 163 146.269, 162.509 146.034, 150.250 146.014 C 142.662 146.001, 142 146.161, 142 148 C 142 149.667, 141.333 150, 138 150 C 134.667 150, 134 150.333, 134 152 C 134 153.111, 133.333 154, 132.500 154 C 131.675 154, 131 154.675, 131 155.500 C 131 156.333, 130.111 157, 129 157 C 127.900 157, 127 157.623, 127 158.383 C 127 159.144, 126.100 160.002, 125 160.290 C 123.900 160.577, 123 161.530, 123 162.406 C 123 163.283, 122.325 164, 121.500 164 C 120.667 164, 120 164.889, 120 166 C 120 167.333, 119.333 168, 118 168 C 116.889 168, 116 168.667, 116 169.500 C 116 170.325, 115.325 171, 114.500 171 C 113.667 171, 113 171.889, 113 173 C 113 174.333, 112.333 175, 111 175 C 109.900 175, 109 175.623, 109 176.383 C 109 177.144, 108.100 178.002, 107 178.290 C 105.900 178.577, 105 179.530, 105 180.406 C 105 181.283, 104.325 182, 103.500 182 C 102.667 182, 102 182.889, 102 184 C 102 185.333, 101.333 186, 100 186 C 98.667 186, 98 186.667, 98 188 C 98 189.111, 97.333 190, 96.500 190 C 95.348 190, 95 188.722, 95 184.500 C 95 180.500, 95.375 179, 96.375 179 C 97.904 179, 99 174.772, 99 168.875 C 99 166.097, 99.425 165, 100.500 165 C 101.728 165, 102 163.278, 102 155.500 C 102 148.078, 102.303 146, 103.383 146 C 105.647 146, 105.972 142.602, 105.986 118.750 C 105.998 99.201, 106.211 96, 107.500 96 C 108.325 96, 109 95.377, 109 94.617 C 109 93.856, 109.900 92.998, 111 92.710 C 112.100 92.423, 113 91.470, 113 90.594 C 113 89.717, 113.675 89, 114.500 89 C 115.333 89, 116 88.111, 116 87 C 116 85.267, 115.333 85, 111 85 C 107.222 85, 106 84.633, 106 83.500 C 106 81.863, 107.939 81.534, 115.250 81.928 C 119.484 82.156, 120 81.957, 120 80.092 C 120 78.169, 120.564 78, 127 78 C 132.229 78, 134 77.657, 134 76.642 C 134 75.304, 141.723 74, 149.647 74 C 151.961 74, 153 73.535, 153 72.500 C 153 71.369, 154.217 71, 157.950 71 C 161.456 71, 163.163 70.531, 163.799 69.394 C 164.340 68.428, 166.551 67.580, 169.349 67.264 C 172.365 66.924, 174 66.258, 174 65.370 C 174 64.595, 175.031 64, 176.375 64 C 180.880 64, 185 62.746, 185 61.375 C 185 59.242, 187.703 59.755, 188.290 62 C 188.726 63.670, 189.654 64, 193.906 64 C 198.333 64, 199 63.738, 199 62 C 199 60.900, 199.639 60, 200.421 60 C 201.836 60, 203.695 54.362, 202.631 53.298 C 201.866 52.533, 190.071 52.195, 181.250 52.685 M 171 83.500 C 171 84.333, 170.111 85, 169 85 C 167.561 85, 167 85.667, 167 87.375 C 167 91.999, 165.745 96, 164.296 96 C 163.177 96, 163.004 96.750, 163.546 99.250 C 163.934 101.037, 164.666 102.765, 165.173 103.088 C 165.679 103.411, 166.365 108.474, 166.698 114.338 C 167.288 124.769, 167.255 125, 165.151 125 C 163.906 125, 163 125.632, 163 126.500 C 163 127.775, 160.411 128.002, 145.750 128.014 C 127.348 128.028, 124 128.429, 124 130.617 C 124 131.564, 122.739 132, 120 132 C 117.111 132, 116 132.417, 116 133.500 C 116 134.325, 115.381 135, 114.625 135 C 112.930 135, 111.842 139.960, 112.650 144 C 113.061 146.053, 113.842 147, 115.125 147 C 116.156 147, 117 147.675, 117 148.500 C 117 149.325, 117.675 150, 118.500 150 C 119.548 150, 120 148.944, 120 146.500 C 120 143.667, 120.381 143, 122 143 C 123.100 143, 124 142.377, 124 141.617 C 124 140.041, 127 139.034, 131.750 139.014 C 133.916 139.005, 135 138.516, 135 137.550 C 135 136.360, 137.733 136.046, 150.250 135.800 C 158.637 135.635, 166.441 135.651, 167.591 135.836 C 169.646 136.167, 169.692 136.724, 170.349 168.934 C 171.170 209.249, 170.302 240, 168.342 240 C 167.291 240, 167 237.291, 167 227.500 C 167 215.667, 166.893 215, 165 215 C 163.058 215, 163 215.667, 163 238.094 C 163 260.346, 163.073 261.206, 165 261.710 C 166.100 261.998, 167 262.856, 167 263.617 C 167 264.377, 167.900 265, 169 265 C 170.111 265, 171 264.333, 171 263.500 C 171 262.675, 171.675 262, 172.500 262 C 173.333 262, 174 261.111, 174 260 C 174 258.900, 174.623 258, 175.383 258 C 177.462 258, 177.971 254.720, 177.986 241.250 C 177.998 231.034, 178.249 229, 179.500 229 C 180.807 229, 181 224.111, 181 191 C 181 157.889, 180.807 153, 179.500 153 C 178.262 153, 178 151.167, 178 142.500 L 178 132 203 132 L 228 132 228 128.500 C 228 125.667, 227.619 125, 226 125 C 224.900 125, 224 124.353, 224 123.561 C 224 121.472, 217.314 120.737, 202.038 121.148 C 193.785 121.369, 188.662 121.917, 188.213 122.624 C 187.164 124.279, 181.688 125.220, 177.584 124.450 L 174 123.777 174 108.505 C 174 94.074, 174.110 93.204, 176 92.710 C 177.100 92.423, 178 91.470, 178 90.594 C 178 89.717, 178.675 89, 179.500 89 C 180.333 89, 181 88.111, 181 87 C 181 85.889, 180.333 85, 179.500 85 C 178.675 85, 178 84.325, 178 83.500 C 178 82.452, 176.944 82, 174.500 82 C 172.056 82, 171 82.452, 171 83.500 M 188 189.594 C 188 192.346, 188.468 193.310, 190 193.710 C 191.100 193.998, 192 194.856, 192 195.617 C 192 196.610, 193.410 197, 197 197 C 200.639 197, 202 197.384, 202 198.412 C 202 199.280, 203.541 200.085, 206 200.500 C 208.459 200.915, 210 201.720, 210 202.588 C 210 203.535, 211.152 204, 213.500 204 C 215.813 204, 217 204.469, 217 205.383 C 217 206.959, 220 207.966, 224.750 207.986 C 226.850 207.995, 228 208.491, 228 209.389 C 228 210.184, 229.495 211.058, 231.500 211.434 C 233.595 211.827, 235 212.675, 235 213.545 C 235 214.345, 235.900 215, 237 215 C 238.758 215, 239 214.333, 239 209.500 L 239 204 235.617 204 C 233.074 204, 232.103 203.503, 231.710 202 C 231.329 200.544, 230.346 200, 228.094 200 C 226.121 200, 225 199.497, 225 198.611 C 225 197.823, 223.527 196.946, 221.597 196.584 C 219.725 196.233, 217.939 195.283, 217.628 194.473 C 217.278 193.560, 215.719 193, 213.531 193 C 211.185 193, 210 192.534, 210 191.611 C 210 190.816, 208.505 189.942, 206.500 189.566 C 204.405 189.173, 203 188.325, 203 187.455 C 203 186.311, 201.396 186, 195.500 186 L 188 186 188 189.594" stroke="none" fill="black" fill-rule="evenodd"/>
</svg>