<svg xmlns="http://www.w3.org/2000/svg" width="300" height="300" viewBox="0 0 300 300" version="1.1">
	<path d="M 186 43.399 C 186 44.396, 183.995 44.998, 179 45.500 C 174.005 46.002, 172 46.604, 172 47.601 C 172 48.540, 170.818 49, 168.406 49 C 165.654 49, 164.690 49.468, 164.290 51 C 164.002 52.100, 163.144 53, 162.383 53 C 161.623 53, 161 53.653, 161 54.450 C 161 55.248, 160.277 56.305, 159.394 56.799 C 158.428 57.340, 157.580 59.551, 157.264 62.349 L 156.740 67 160.259 67 C 163.488 67, 163.831 66.712, 164.434 63.500 C 165.001 60.476, 165.477 60, 167.929 60 C 169.926 60, 170.922 59.407, 171.290 58 C 171.726 56.330, 172.654 56, 176.906 56 C 180.767 56, 182 55.637, 182 54.500 C 182 53.300, 183.500 53, 189.500 53 L 197 53 197 58.617 C 197 63.953, 197.112 64.203, 199.250 63.630 C 200.488 63.299, 202.063 63.021, 202.750 63.014 C 203.458 63.006, 204 61.749, 204 60.117 C 204 58.074, 204.583 57.081, 206 56.710 C 207.763 56.249, 208 55.346, 208 49.094 L 208 42 197 42 C 188.244 42, 186 42.285, 186 43.399 M 143 58 C 143 65.333, 143.278 67, 144.500 67 C 145.621 67, 146.003 68.201, 146.014 71.750 C 146.031 77.923, 146.897 81, 148.617 81 C 149.671 81, 150 82.781, 150 88.500 C 150 94.500, 149.700 96, 148.500 96 C 147.675 96, 147 95.283, 147 94.406 C 147 93.530, 146.100 92.577, 145 92.290 C 143.900 92.002, 143 91.144, 143 90.383 C 143 89.373, 141.516 89, 137.500 89 L 132 89 132 94.500 C 132 98.722, 132.348 100, 133.500 100 C 134.412 100, 135 100.931, 135 102.375 C 135 106.880, 136.254 111, 137.625 111 C 138.608 111, 139 112.424, 139 116 C 139 119.590, 139.390 121, 140.383 121 C 142.241 121, 142.970 124.152, 142.986 132.250 C 142.997 137.577, 143.316 139, 144.500 139 C 145.333 139, 146 139.889, 146 141 C 146 142.667, 146.667 143, 150 143 L 154 143 154 135.906 C 154 129.654, 153.763 128.751, 152 128.290 C 150.344 127.857, 150 126.926, 150 122.883 C 150 119.209, 149.629 118, 148.500 118 C 147.417 118, 147 116.889, 147 114 C 147 111.111, 147.417 110, 148.500 110 C 149.548 110, 150 108.944, 150 106.500 C 150 103.167, 150.167 103, 153.500 103 L 157 103 157 119 C 157 134.333, 157.083 135, 159 135 C 160.733 135, 161 134.333, 161 130 C 161 125.791, 161.294 125, 162.861 125 C 164.598 125, 164.697 124.161, 164.337 112.500 L 163.951 100 167.226 99.986 C 171.999 99.966, 175 98.962, 175 97.383 C 175 96.276, 177.598 96, 188 96 C 198.889 96, 201 95.756, 201 94.500 C 201 93.675, 201.675 93, 202.500 93 C 203.325 93, 204 93.675, 204 94.500 C 204 95.722, 205.667 96, 213 96 C 221.333 96, 222 96.148, 222 98 C 222 99.100, 222.623 100, 223.383 100 C 225.384 100, 225.971 103.234, 225.986 114.344 C 225.999 123.352, 225.830 124.232, 224 124.710 C 222.497 125.103, 222 126.074, 222 128.617 L 222 132 216.500 132 C 212.278 132, 211 132.348, 211 133.500 C 211 134.325, 210.438 135.006, 209.750 135.014 C 209.063 135.021, 207.488 135.299, 206.250 135.630 C 204.220 136.174, 204 135.879, 204 132.617 C 204 129.974, 204.429 129, 205.594 129 C 206.470 129, 207.423 128.100, 207.710 127 C 207.998 125.900, 208.806 125, 209.505 125 C 210.205 125, 211.073 123.425, 211.434 121.500 C 211.827 119.405, 212.675 118, 213.545 118 C 215.112 118, 215.320 116.797, 214.370 113.250 C 214.038 112.013, 213.144 111, 212.383 111 C 211.623 111, 211 110.100, 211 109 C 211 107.148, 210.333 107, 202 107 C 194.667 107, 193 107.278, 193 108.500 C 193 109.466, 192.022 110.005, 190.250 110.014 C 185.968 110.035, 183 111.101, 183 112.617 C 183 113.564, 181.739 114, 179 114 C 176.166 114, 175 114.424, 175 115.455 C 175 116.325, 173.595 117.173, 171.500 117.566 L 168 118.223 168 128.611 C 168 137.035, 168.275 139, 169.455 139 C 170.325 139, 171.173 137.595, 171.566 135.500 C 171.942 133.495, 172.816 132, 173.611 132 C 174.523 132, 175 130.836, 175 128.611 C 175 125.530, 175.318 125.163, 178.500 124.566 C 180.595 124.173, 182 123.325, 182 122.455 C 182 121.459, 183.104 121, 185.500 121 C 187.848 121, 189 120.535, 189 119.588 C 189 118.720, 190.541 117.915, 193 117.500 C 195.459 117.085, 197 116.280, 197 115.412 C 197 114.465, 198.152 114, 200.500 114 L 204 114 204 119.500 C 204 124.333, 203.758 125, 202 125 C 200.381 125, 200 125.667, 200 128.500 C 200 130.820, 199.532 132, 198.611 132 C 197.816 132, 196.942 133.495, 196.566 135.500 C 196.009 138.470, 195.500 139.002, 193.205 139.014 C 188.965 139.035, 186 140.106, 186 141.617 C 186 142.564, 184.739 143, 182 143 C 179.111 143, 178 143.417, 178 144.500 C 178 145.647, 176.736 146, 172.625 146 C 165.316 146, 161 146.975, 161 148.625 C 161 149.563, 159.727 150, 157 150 C 153.456 150, 153 150.271, 153 152.375 C 153 159.660, 155.601 163.325, 157.879 159.250 C 158.681 157.816, 160.584 157.437, 168.429 157.153 C 175.498 156.898, 178 156.463, 178 155.491 C 178 154.736, 179.703 153.888, 182 153.500 C 184.459 153.085, 186 152.280, 186 151.412 C 186 150.465, 187.152 150, 189.500 150 C 191.803 150, 193 149.530, 193 148.625 C 193 147.254, 197.120 146, 201.625 146 C 203.069 146, 204 145.412, 204 144.500 C 204 143.348, 205.278 143, 209.500 143 C 213.516 143, 215 143.373, 215 144.383 C 215 145.144, 214.100 146.002, 213 146.290 C 211.900 146.577, 211 147.530, 211 148.406 C 211 149.561, 210.036 150, 207.500 150 C 204.667 150, 204 150.381, 204 152 C 204 153.333, 203.333 154, 202 154 C 200.667 154, 200 153.333, 200 152 C 200 150.444, 199.333 150, 197 150 C 195.083 150, 194 150.510, 194 151.412 C 194 152.280, 192.459 153.085, 190 153.500 L 186 154.176 186 163.088 C 186 170.343, 186.279 172, 187.500 172 C 188.548 172, 189 173.056, 189 175.500 C 189 178.833, 188.833 179, 185.500 179 C 183.056 179, 182 179.452, 182 180.500 C 182 181.697, 180.516 182, 174.640 182 C 164.235 182, 158 182.988, 158 184.636 C 158 185.667, 156.168 186, 150.500 186 C 144.500 186, 143 186.300, 143 187.500 C 143 188.555, 141.934 189, 139.406 189 C 136.654 189, 135.690 189.468, 135.290 191 C 135.002 192.100, 134.144 193, 133.383 193 C 132.436 193, 132 194.261, 132 197 C 132 199.889, 132.417 201, 133.500 201 C 134.325 201, 135 201.675, 135 202.500 C 135 203.583, 136.111 204, 139 204 C 142.333 204, 143 203.667, 143 202 C 143 200.889, 143.667 200, 144.500 200 C 145.325 200, 146 199.375, 146 198.611 C 146 197.823, 147.473 196.946, 149.403 196.584 C 151.275 196.233, 153.061 195.283, 153.372 194.473 C 153.820 193.305, 156.116 193, 164.469 193 C 173.163 193, 175 192.738, 175 191.500 C 175 190.278, 176.667 190, 184 190 L 193 190 193 193.500 C 193 195.813, 193.469 197, 194.383 197 C 196.103 197, 196.969 200.077, 196.986 206.250 C 196.997 209.799, 197.379 211, 198.500 211 C 199.412 211, 200 211.931, 200 213.375 C 200 217.880, 201.254 222, 202.625 222 C 203.704 222, 204 224.258, 204 232.500 C 204 241.167, 204.262 243, 205.500 243 C 206.684 243, 207.003 244.423, 207.014 249.750 C 207.021 253.463, 207.299 257.512, 207.630 258.750 C 208.301 261.253, 211 261.854, 211 259.500 C 211 258.667, 211.889 258, 213 258 C 214.111 258, 215 257.333, 215 256.500 C 215 255.675, 215.675 255, 216.500 255 C 217.333 255, 218 254.111, 218 253 C 218 251.889, 217.333 251, 216.500 251 C 215.300 251, 215 249.500, 215 243.500 C 215 237.803, 214.669 236, 213.625 236 C 211.850 236, 211 231.589, 211 222.375 C 211 216.486, 210.698 215, 209.500 215 C 208.379 215, 207.997 213.799, 207.986 210.250 C 207.969 204.077, 207.103 201, 205.383 201 C 204.329 201, 204 199.219, 204 193.500 L 204 186 215 186 C 224.111 186, 226 185.742, 226 184.500 C 226 183.260, 227.866 182.998, 236.750 182.989 C 249.742 182.976, 255 182.221, 255 180.369 C 255 179.616, 255.675 179, 256.500 179 C 257.548 179, 258 177.944, 258 175.500 L 258 172 250.750 171.991 C 239.881 171.978, 233 170.958, 233 169.361 C 233 168.472, 231.785 168, 229.500 168 C 227.056 168, 226 168.452, 226 169.500 C 226 170.325, 226.675 171, 227.500 171 C 228.333 171, 229 171.889, 229 173 C 229 174.852, 228.333 175, 220 175 C 212.667 175, 211 175.278, 211 176.500 C 211 177.466, 210.022 178.005, 208.250 178.014 C 206.738 178.021, 204.461 178.306, 203.191 178.646 C 201.392 179.127, 200.759 178.793, 200.324 177.132 C 200.018 175.959, 199.144 175, 198.383 175 C 197.308 175, 197 172.996, 197 166 L 197 157 204 157 C 209.556 157, 211 156.690, 211 155.500 C 211 154.455, 212.052 154, 214.466 154 C 217.869 154, 217.943 154.089, 218.594 159 C 219.025 162.246, 219.739 164, 220.629 164 C 221.608 164, 222 162.569, 222 159 C 222 154.667, 222.267 154, 224 154 C 225.333 154, 226 153.333, 226 152 C 226 150.900, 226.619 150, 227.375 150 C 228.131 150, 229.033 148.586, 229.378 146.858 C 229.724 145.129, 230.793 143.104, 231.753 142.358 C 233.356 141.112, 233.366 140.895, 231.881 139.736 C 230.991 139.040, 229.943 137.015, 229.552 135.236 C 228.928 132.398, 229.097 132, 230.921 132 C 232.774 132, 233 131.403, 233 126.500 C 233 122.510, 233.376 121, 234.370 121 C 236.076 121, 236.851 114.815, 236.220 106.250 C 235.915 102.110, 235.331 100, 234.491 100 C 233.793 100, 232.933 98.458, 232.580 96.572 C 232.060 93.804, 231.366 93.020, 228.968 92.493 C 227.336 92.134, 226 91.202, 226 90.421 C 226 89.369, 224.601 89, 220.617 89 C 215.981 89, 215.157 88.707, 214.681 86.890 C 214.153 84.869, 213.643 84.795, 202.523 85.148 C 193.709 85.428, 190.699 85.869, 190.012 86.981 C 189.337 88.073, 186.421 88.545, 178.553 88.836 C 170.411 89.138, 168 89.544, 168 90.613 C 168 91.531, 166.817 92, 164.500 92 C 161.167 92, 161 91.833, 161 88.500 C 161 85.667, 160.619 85, 159 85 C 157.242 85, 157 84.333, 157 79.500 C 157 75.278, 156.652 74, 155.500 74 C 154.278 74, 154 72.333, 154 65 C 154 57.667, 154.278 56, 155.500 56 C 156.325 56, 157 55.325, 157 54.500 C 157 53.675, 156.325 53, 155.500 53 C 154.667 53, 154 52.111, 154 51 C 154 49.242, 153.333 49, 148.500 49 L 143 49 143 58 M 69.250 69.408 C 67.275 71.492, 67 72.833, 67 80.391 C 67 87.377, 66.717 89, 65.500 89 C 64.534 89, 63.995 89.978, 63.986 91.750 C 63.965 96.032, 62.899 99, 61.383 99 C 60.436 99, 60 100.261, 60 103 C 60 106.333, 59.667 107, 58 107 C 56.667 107, 56 107.667, 56 109 C 56 110.100, 55.361 111, 54.579 111 C 53.798 111, 52.862 112.350, 52.500 114 C 52.138 115.650, 51.202 117, 50.421 117 C 49.639 117, 49 117.900, 49 119 C 49 120.111, 48.333 121, 47.500 121 C 46.675 121, 46 121.717, 46 122.594 C 46 123.470, 45.100 124.423, 44 124.710 C 42.497 125.103, 42 126.074, 42 128.617 C 42 131.897, 42.122 132, 46 132 C 48.834 132, 50 131.576, 50 130.545 C 50 129.675, 51.405 128.827, 53.500 128.434 C 55.505 128.058, 57 127.184, 57 126.389 C 57 125.512, 58.107 125, 60 125 C 62.078 125, 63 124.510, 63 123.406 C 63 122.530, 63.900 121.577, 65 121.290 C 66.100 121.002, 67 120.144, 67 119.383 C 67 118.623, 67.900 118, 69 118 C 70.333 118, 71 117.333, 71 116 C 71 114.381, 71.667 114, 74.500 114 C 77.333 114, 78 113.619, 78 112 C 78 110.667, 78.667 110, 80 110 C 81.111 110, 82 109.333, 82 108.500 C 82 107.452, 83.056 107, 85.500 107 C 88.833 107, 89 107.167, 89 110.500 C 89 113.333, 88.619 114, 87 114 C 85.381 114, 85 114.667, 85 117.500 C 85 119.944, 84.548 121, 83.500 121 C 82.667 121, 82 121.889, 82 123 C 82 124.333, 81.333 125, 80 125 C 78.381 125, 78 125.667, 78 128.500 C 78 130.896, 77.541 132, 76.545 132 C 75.675 132, 74.827 133.405, 74.434 135.500 C 74.058 137.505, 73.184 139, 72.389 139 C 71.625 139, 71 139.900, 71 141 C 71 142.333, 70.333 143, 69 143 C 67.381 143, 67 143.667, 67 146.500 C 67 148.813, 66.531 150, 65.617 150 C 64.856 150, 63.998 150.900, 63.710 152 C 63.423 153.100, 62.470 154, 61.594 154 C 60.717 154, 60 154.675, 60 155.500 C 60 156.325, 59.325 157, 58.500 157 C 57.675 157, 57 157.717, 57 158.594 C 57 159.470, 56.148 160.410, 55.107 160.682 C 52.965 161.242, 51.896 165.108, 52.715 169.332 C 53.161 171.633, 53.662 172.057, 55.382 171.596 C 56.547 171.283, 58.063 171.021, 58.750 171.014 C 59.438 171.006, 60 170.325, 60 169.500 C 60 168.667, 60.889 168, 62 168 C 63.100 168, 64 167.345, 64 166.545 C 64 165.675, 65.405 164.827, 67.500 164.434 C 69.505 164.058, 71 163.184, 71 162.389 C 71 161.625, 71.900 161, 73 161 C 74.100 161, 75 160.345, 75 159.545 C 75 158.675, 76.405 157.827, 78.500 157.434 C 80.505 157.058, 82 156.184, 82 155.389 C 82 154.503, 83.121 154, 85.094 154 C 87.346 154, 88.329 153.456, 88.710 152 C 89.103 150.497, 90.074 150, 92.617 150 C 95.333 150, 96 149.606, 96 148 C 96 146.482, 96.662 146.003, 98.750 146.014 C 103.032 146.035, 106 147.101, 106 148.617 C 106 149.426, 107.038 150, 108.500 150 C 110.333 150, 111 150.533, 111 152 C 111 153.111, 111.667 154, 112.500 154 C 113.325 154, 114 154.625, 114 155.389 C 114 156.184, 115.495 157.058, 117.500 157.434 C 119.595 157.827, 121 158.675, 121 159.545 C 121 160.345, 121.900 161, 123 161 C 124.111 161, 125 161.667, 125 162.500 C 125 163.325, 125.675 164, 126.500 164 C 127.523 164, 128.004 165.034, 128.014 167.250 C 128.040 173.514, 128.923 175, 132.617 175 L 136 175 136 168 C 136 161.667, 135.810 161, 134 161 C 132.393 161, 132 160.333, 132 157.611 C 132 154.530, 131.682 154.163, 128.500 153.566 C 126.405 153.173, 125 152.325, 125 151.455 C 125 150.655, 124.100 150, 123 150 C 121.667 150, 121 149.333, 121 148 C 121 146.900, 120.377 146, 119.617 146 C 118.856 146, 117.998 145.100, 117.710 144 C 117.423 142.900, 116.470 142, 115.594 142 C 114.717 142, 114 141.325, 114 140.500 C 114 139.675, 113.377 139, 112.617 139 C 111.856 139, 110.998 138.100, 110.710 137 C 110.423 135.900, 109.470 135, 108.594 135 C 107.717 135, 107 134.325, 107 133.500 C 107 131.036, 100.366 131.491, 99.710 134 C 99.423 135.100, 98.470 136, 97.594 136 C 96.717 136, 96 136.675, 96 137.500 C 96 138.333, 95.111 139, 94 139 C 92.900 139, 92 139.655, 92 140.455 C 92 141.325, 90.595 142.173, 88.500 142.566 C 86.495 142.942, 85 143.816, 85 144.611 C 85 145.375, 84.438 146.006, 83.750 146.014 C 83.063 146.021, 81.487 146.299, 80.250 146.630 C 78.336 147.143, 78 146.842, 78 144.617 C 78 143.022, 78.555 142, 79.421 142 C 80.202 142, 81.138 140.650, 81.500 139 C 81.862 137.350, 82.798 136, 83.579 136 C 84.361 136, 85 135.100, 85 134 C 85 132.667, 85.667 132, 87 132 C 88.619 132, 89 131.333, 89 128.500 C 89 126.180, 89.468 125, 90.389 125 C 91.184 125, 92.058 123.505, 92.434 121.500 C 92.827 119.405, 93.675 118, 94.545 118 C 95.345 118, 96 117.100, 96 116 C 96 114.667, 96.667 114, 98 114 C 99.619 114, 100 113.333, 100 110.500 C 100 108.056, 100.452 107, 101.500 107 C 102.690 107, 103 105.556, 103 100 C 103 93.667, 102.810 93, 101 93 C 99.889 93, 99 93.667, 99 94.500 C 99 95.633, 97.778 96, 94 96 C 90.400 96, 89 96.389, 89 97.389 C 89 98.184, 87.505 99.058, 85.500 99.434 C 83.405 99.827, 82 100.675, 82 101.545 C 82 102.532, 80.911 103, 78.617 103 C 76.074 103, 75.103 103.497, 74.710 105 C 74.310 106.532, 73.346 107, 70.594 107 C 67.667 107, 67 106.629, 67 105 C 67 103.667, 67.667 103, 69 103 C 70.619 103, 71 102.333, 71 99.500 C 71 97.168, 71.467 96, 72.399 96 C 73.396 96, 73.998 93.995, 74.500 89 C 75.002 84.005, 75.604 82, 76.601 82 C 77.675 82, 78 80.258, 78 74.500 L 78 67 74.750 67.017 C 72.644 67.028, 70.708 67.870, 69.250 69.408 M 110.638 177.500 C 110.322 178.325, 109.374 179, 108.531 179 C 107.448 179, 107 180.024, 107 182.500 C 107 184.820, 107.468 186, 108.389 186 C 109.184 186, 110.058 187.495, 110.434 189.500 C 110.827 191.595, 111.675 193, 112.545 193 C 113.541 193, 114 194.104, 114 196.500 C 114 198.820, 114.468 200, 115.389 200 C 116.184 200, 117.058 201.495, 117.434 203.500 C 117.827 205.595, 118.675 207, 119.545 207 C 120.432 207, 121 207.980, 121 209.510 C 121 210.890, 121.900 212.790, 123 213.732 C 124.100 214.674, 125 216.019, 125 216.722 C 125 217.425, 125.717 218, 126.594 218 C 127.470 218, 128.423 218.900, 128.710 220 C 129.143 221.656, 130.074 222, 134.117 222 C 138.333 222, 139 221.727, 139 220 C 139 218.900, 138.377 218, 137.617 218 C 136.856 218, 135.998 217.100, 135.710 216 C 135.423 214.900, 134.470 214, 133.594 214 C 132.504 214, 132 213.088, 132 211.117 C 132 209.074, 131.417 208.081, 130 207.710 C 128.544 207.329, 128 206.346, 128 204.094 C 128 202.010, 127.510 201, 126.500 201 C 125.445 201, 125 199.934, 125 197.406 C 125 194.654, 124.532 193.690, 123 193.290 C 121.497 192.897, 121 191.926, 121 189.383 C 121 187.043, 120.538 186, 119.500 186 C 118.452 186, 118 184.944, 118 182.500 C 118 179.667, 117.619 179, 116 179 C 114.889 179, 114 178.333, 114 177.500 C 114 176.675, 113.373 176, 112.607 176 C 111.841 176, 110.955 176.675, 110.638 177.500 M 81.434 186.500 C 80.549 191.217, 81.712 197, 83.545 197 C 84.620 197, 85 198.277, 85 201.883 C 85 205.926, 85.344 206.857, 87 207.290 C 88.100 207.577, 89 208.530, 89 209.406 C 89 210.283, 89.675 211, 90.500 211 C 91.555 211, 92 212.066, 92 214.594 C 92 217.346, 92.468 218.310, 94 218.710 C 95.100 218.998, 96 219.856, 96 220.617 C 96 221.531, 97.187 222, 99.500 222 C 102.833 222, 103 221.833, 103 218.500 C 103 216.056, 102.548 215, 101.500 215 C 100.445 215, 100 213.934, 100 211.406 C 100 208.654, 99.532 207.690, 98 207.290 C 96.344 206.857, 96 205.926, 96 201.883 C 96 197.667, 95.727 197, 94 197 C 92.667 197, 92 196.333, 92 195 C 92 193.889, 91.333 193, 90.500 193 C 89.367 193, 89 191.778, 89 188 L 89 183 85.545 183 C 82.389 183, 82.034 183.302, 81.434 186.500 M 45.362 194.500 C 45.045 195.325, 44.159 196, 43.393 196 C 42.326 196, 42 197.756, 42 203.500 C 42 209.233, 42.327 211, 43.389 211 C 44.184 211, 45.058 212.495, 45.434 214.500 C 45.827 216.595, 46.675 218, 47.545 218 C 48.576 218, 49 219.166, 49 222 C 49 225.333, 49.333 226, 51 226 C 52.111 226, 53 226.667, 53 227.500 C 53 228.325, 53.675 229, 54.500 229 C 55.333 229, 56 229.889, 56 231 C 56 232.333, 56.667 233, 58 233 C 59.100 233, 60 233.619, 60 234.375 C 60 236.016, 64.410 237.046, 68.250 236.300 C 70.603 235.844, 71 235.278, 71 232.383 C 71 229.206, 70.794 229, 67.617 229 C 65.074 229, 64.103 228.503, 63.710 227 C 63.423 225.900, 62.470 225, 61.594 225 C 60.439 225, 60 224.036, 60 221.500 C 60 219.104, 59.541 218, 58.545 218 C 57.675 218, 56.827 216.595, 56.434 214.500 C 56.058 212.495, 55.184 211, 54.389 211 C 53.336 211, 53 209.306, 53 204 C 53 197.667, 52.810 197, 51 197 C 49.667 197, 49 196.333, 49 195 C 49 192.664, 46.213 192.281, 45.362 194.500" stroke="none" fill="black" fill-rule="evenodd"/>
</svg>