<svg xmlns="http://www.w3.org/2000/svg" width="300" height="300" viewBox="0 0 300 300" version="1.1">
	<path d="M 161 35.500 C 161 36.333, 160.111 37, 159 37 C 157.667 37, 157 37.667, 157 39 C 157 40.333, 156.333 41, 155 41 C 153.889 41, 153 41.667, 153 42.500 C 153 43.325, 152.325 44, 151.500 44 C 150.667 44, 150 44.889, 150 46 C 150 47.333, 149.333 48, 148 48 C 146.889 48, 146 48.667, 146 49.500 C 146 50.325, 145.325 51, 144.500 51 C 143.667 51, 143 51.889, 143 53 C 143 54.333, 142.333 55, 141 55 C 139.667 55, 139 55.667, 139 57 C 139 58.333, 138.333 59, 137 59 C 135.889 59, 135 59.667, 135 60.500 C 135 61.325, 134.325 62, 133.500 62 C 132.667 62, 132 62.889, 132 64 C 132 65.333, 131.333 66, 130 66 C 128.667 66, 128 66.667, 128 68 C 128 69.111, 127.333 70, 126.500 70 C 125.675 70, 125 70.623, 125 71.383 C 125 72.144, 124.100 73.002, 123 73.290 C 121.900 73.577, 121 74.530, 121 75.406 C 121 76.283, 120.377 77, 119.617 77 C 118.856 77, 117.998 77.900, 117.710 79 C 117.423 80.100, 116.470 81, 115.594 81 C 114.717 81, 114 81.675, 114 82.500 C 114 83.548, 112.944 84, 110.500 84 C 108.056 84, 107 84.452, 107 85.500 C 107 86.333, 106.111 87, 105 87 C 103.333 87, 103 87.667, 103 91 C 103 93.889, 102.583 95, 101.500 95 C 100.675 95, 100 95.675, 100 96.500 C 100 97.333, 99.111 98, 98 98 C 96.667 98, 96 98.667, 96 100 C 96 101.333, 95.333 102, 94 102 C 92.900 102, 92 102.639, 92 103.421 C 92 104.202, 90.696 105.128, 89.102 105.478 C 87.416 105.848, 85.991 106.927, 85.695 108.057 C 85.416 109.126, 84.470 110, 83.594 110 C 82.717 110, 82 110.675, 82 111.500 C 82 112.333, 81.111 113, 80 113 C 78.667 113, 78 112.333, 78 111 C 78 109.900, 77.345 109, 76.545 109 C 75.675 109, 74.827 107.595, 74.434 105.500 C 74.058 103.495, 73.184 102, 72.389 102 C 71.625 102, 71 101.100, 71 100 C 71 98.667, 70.333 98, 69 98 C 67.889 98, 67 97.333, 67 96.500 C 67 95.675, 66.325 95, 65.500 95 C 64.667 95, 64 94.111, 64 93 C 64 91.667, 63.333 91, 62 91 C 60.381 91, 60 90.333, 60 87.500 C 60 84.667, 60.381 84, 62 84 C 63.111 84, 64 83.333, 64 82.500 C 64 81.675, 64.717 81, 65.594 81 C 66.470 81, 67.423 80.100, 67.710 79 C 67.998 77.900, 68.856 77, 69.617 77 C 70.377 77, 71 76.100, 71 75 C 71 73.889, 71.667 73, 72.500 73 C 73.325 73, 74 72.283, 74 71.406 C 74 70.530, 74.900 69.577, 76 69.290 C 77.392 68.926, 78 67.926, 78 66 C 78 64.074, 78.608 63.074, 80 62.710 C 81.456 62.329, 82 61.346, 82 59.094 C 82 57.138, 82.505 56, 83.373 56 C 84.868 56, 86.080 47.868, 85.239 43.472 C 84.812 41.237, 84.289 41, 79.790 41 C 75.654 41, 74.724 40.662, 74.290 39 C 73.820 37.205, 72.932 37.001, 65.633 37.014 C 61.160 37.021, 56.487 37.299, 55.250 37.630 C 52.747 38.301, 52.146 41, 54.500 41 C 55.325 41, 56 41.675, 56 42.500 C 56 43.325, 55.325 44, 54.500 44 C 53.667 44, 53 44.889, 53 46 C 53 47.880, 53.667 48, 64.125 48 L 75.250 48 74.625 51.125 C 74.281 52.844, 74 55.094, 74 56.125 C 74 57.156, 73.325 58, 72.500 58 C 71.567 58, 71 58.944, 71 60.500 C 71 61.993, 70.428 63, 69.579 63 C 68.798 63, 67.862 64.350, 67.500 66 C 67.138 67.650, 66.202 69, 65.421 69 C 64.639 69, 64 69.900, 64 71 C 64 72.333, 63.333 73, 62 73 C 60.667 73, 60 73.667, 60 75 C 60 76.100, 59.377 77, 58.617 77 C 57.856 77, 56.998 77.900, 56.710 79 C 56.423 80.100, 55.470 81, 54.594 81 C 53.717 81, 53 81.675, 53 82.500 C 53 83.333, 52.111 84, 51 84 C 49.667 84, 49 84.667, 49 86 C 49 87.111, 48.333 88, 47.500 88 C 46.452 88, 46 89.056, 46 91.500 C 46 93.944, 46.452 95, 47.500 95 C 48.325 95, 49 95.635, 49 96.412 C 49 97.280, 50.541 98.085, 53 98.500 C 55.459 98.915, 57 99.720, 57 100.588 C 57 101.365, 57.675 102, 58.500 102 C 59.333 102, 60 102.889, 60 104 C 60 105.333, 60.667 106, 62 106 C 63.111 106, 64 106.667, 64 107.500 C 64 108.325, 64.675 109, 65.500 109 C 66.538 109, 67 110.043, 67 112.383 C 67 114.935, 67.496 115.896, 69.016 116.294 C 70.509 116.684, 70.980 117.558, 70.833 119.661 C 70.439 125.290, 70.981 128, 72.500 128 C 73.500 128, 74 129, 74 131 L 74 134 65 134 C 57.667 134, 56 133.722, 56 132.500 C 56 131.452, 54.944 131, 52.500 131 C 50.056 131, 49 131.452, 49 132.500 C 49 133.739, 47.156 134, 38.406 134 C 28.654 134, 27.771 134.159, 27.290 136 C 26.897 137.503, 25.926 138, 23.383 138 C 20.667 138, 20 138.394, 20 140 C 20 141.111, 19.333 142, 18.500 142 C 17.675 142, 17 142.675, 17 143.500 C 17 144.325, 17.625 145, 18.389 145 C 19.178 145, 20.055 146.478, 20.420 148.428 C 20.940 151.196, 21.634 151.980, 24.032 152.507 C 25.664 152.866, 27 153.798, 27 154.579 C 27 155.361, 27.900 156, 29 156 C 30.758 156, 31 155.333, 31 150.500 L 31 145 34.500 145 C 36.944 145, 38 144.548, 38 143.500 C 38 142.221, 40.722 142, 56.500 142 L 75 142 74.995 146.750 C 74.982 160.326, 73.654 174, 72.347 174 C 71.381 174, 71 175.555, 71 179.500 L 71 185 67.406 185 C 64.654 185, 63.690 184.532, 63.290 183 C 63.002 181.900, 62.144 181, 61.383 181 C 60.623 181, 60 180.100, 60 179 C 60 177.667, 59.333 177, 58 177 C 56.889 177, 56 176.333, 56 175.500 C 56 174.675, 55.325 174, 54.500 174 C 53.367 174, 53 175.222, 53 179 C 53 182.778, 53.367 184, 54.500 184 C 55.356 184, 56 184.899, 56 186.094 C 56 187.346, 56.803 188.397, 58 188.710 C 59.407 189.078, 60 190.074, 60 192.071 C 60 194.523, 60.476 194.999, 63.500 195.566 C 65.505 195.942, 67 196.816, 67 197.611 C 67 198.375, 67.900 199, 69 199 C 70.100 199, 71 198.345, 71 197.545 C 71 196.675, 72.405 195.827, 74.500 195.434 L 78 194.777 78 187.889 C 78 182.690, 78.339 181, 79.383 181 C 81.241 181, 81.970 177.848, 81.986 169.750 C 81.997 164.423, 82.316 163, 83.500 163 C 84.722 163, 85 161.333, 85 154 L 85 145 94 145 C 101.568 145, 103 144.746, 103 143.406 C 103 142.530, 103.900 141.577, 105 141.290 C 106.100 141.002, 107 140.144, 107 139.383 C 107 138.373, 105.516 138, 101.500 138 C 97.500 138, 96 137.625, 96 136.625 C 96 135.254, 91.880 134, 87.375 134 C 85.931 134, 85 133.412, 85 132.500 C 85 131.675, 84.325 131, 83.500 131 C 82.348 131, 82 129.722, 82 125.500 C 82 121.484, 82.373 120, 83.383 120 C 84.144 120, 85.002 119.100, 85.290 118 C 85.671 116.544, 86.654 116, 88.906 116 C 90.990 116, 92 115.510, 92 114.500 C 92 113.667, 92.889 113, 94 113 C 95.333 113, 96 112.333, 96 111 C 96 109.889, 96.667 109, 97.500 109 C 98.325 109, 99 108.325, 99 107.500 C 99 106.667, 99.889 106, 101 106 C 102.333 106, 103 105.333, 103 104 C 103 102.667, 103.667 102, 105 102 C 106.111 102, 107 102.667, 107 103.500 C 107 104.325, 107.675 105, 108.500 105 C 109.605 105, 110 106.153, 110 109.375 C 110 115.741, 111.052 120, 112.625 120 C 113.708 120, 114 122.333, 114 131 C 114 140.111, 113.742 142, 112.500 142 C 111.435 142, 110.997 143.087, 110.991 145.750 C 110.974 153.378, 109.751 160, 108.361 160 C 107.406 160, 106.996 161.417, 106.986 164.750 C 106.969 170.923, 106.103 174, 104.383 174 C 103.373 174, 103 175.484, 103 179.500 C 103 183.472, 102.622 185, 101.639 185 C 100.120 185, 98.747 193.317, 99.678 196.878 C 100.146 198.666, 100.983 199, 104.992 199 C 109.424 199, 109.789 198.804, 110.320 196.149 C 110.634 194.580, 110.639 192.336, 110.332 191.161 C 109.468 187.856, 110.883 182, 112.545 182 C 113.687 182, 114 180.411, 114 174.617 C 114 168.074, 114.228 167.174, 116 166.710 C 117.670 166.274, 118 165.346, 118 161.094 C 118 157.233, 118.363 156, 119.500 156 C 120.796 156, 121 152.333, 121 129 C 121 106.895, 120.753 102, 119.639 102 C 118.757 102, 118.076 100.286, 117.701 97.122 C 117.015 91.327, 117.713 88, 119.617 88 C 120.377 88, 121 87.100, 121 86 C 121 84.667, 121.667 84, 123 84 C 124.111 84, 125 83.333, 125 82.500 C 125 81.675, 125.675 81, 126.500 81 C 127.333 81, 128 80.111, 128 79 C 128 77.667, 128.667 77, 130 77 C 131.333 77, 132 76.333, 132 75 C 132 73.900, 132.623 73, 133.383 73 C 134.144 73, 135.002 72.100, 135.290 71 C 135.577 69.900, 136.530 69, 137.406 69 C 138.283 69, 139 68.325, 139 67.500 C 139 66.667, 139.889 66, 141 66 C 142.333 66, 143 65.333, 143 64 C 143 62.667, 143.667 62, 145 62 C 146.111 62, 147 61.333, 147 60.500 C 147 59.675, 147.675 59, 148.500 59 C 149.333 59, 150 58.111, 150 57 C 150 55.667, 150.667 55, 152 55 C 153.100 55, 154 54.345, 154 53.545 C 154 52.675, 155.405 51.827, 157.500 51.434 C 159.505 51.058, 161 50.184, 161 49.389 C 161 48.468, 162.180 48, 164.500 48 L 168 48 168 41 L 168 34 164.500 34 C 162.056 34, 161 34.452, 161 35.500 M 180.750 87.689 C 179.296 88.069, 179 89.317, 179 95.073 C 179 100.317, 179.337 102, 180.389 102 C 181.184 102, 182.058 103.495, 182.434 105.500 C 182.827 107.595, 183.675 109, 184.545 109 C 185.541 109, 186 110.104, 186 112.500 C 186 114.848, 186.465 116, 187.412 116 C 188.280 116, 189.085 117.541, 189.500 120 C 189.915 122.459, 190.720 124, 191.588 124 C 192.458 124, 193.005 125.055, 193.014 126.750 C 193.035 131.032, 194.101 134, 195.617 134 C 196.377 134, 197 134.900, 197 136 C 197 137.111, 197.667 138, 198.500 138 C 199.325 138, 200 138.717, 200 139.594 C 200 140.470, 200.900 141.423, 202 141.710 C 203.107 142, 204 143.074, 204 144.117 C 204 145.152, 204.623 146, 205.383 146 C 206.899 146, 207.965 148.968, 207.986 153.250 C 207.997 155.329, 208.488 156, 210 156 C 211.111 156, 212 156.667, 212 157.500 C 212 158.325, 212.675 159, 213.500 159 C 214.333 159, 215 159.889, 215 161 C 215 162.163, 215.667 163, 216.594 163 C 217.470 163, 218.423 163.900, 218.710 165 C 218.998 166.100, 219.856 167, 220.617 167 C 221.531 167, 222 168.187, 222 170.500 C 222 172.896, 222.459 174, 223.455 174 C 224.325 174, 225.173 175.405, 225.566 177.500 C 225.927 179.425, 226.797 181, 227.500 181 C 228.203 181, 229.073 182.575, 229.434 184.500 C 229.827 186.595, 230.675 188, 231.545 188 C 232.345 188, 233 188.900, 233 190 C 233 191.100, 233.655 192, 234.455 192 C 235.325 192, 236.173 193.405, 236.566 195.500 C 236.942 197.505, 237.816 199, 238.611 199 C 239.375 199, 240 199.900, 240 201 C 240 202.100, 240.655 203, 241.455 203 C 242.325 203, 243.173 204.405, 243.566 206.500 C 243.927 208.425, 244.797 210, 245.500 210 C 246.203 210, 247.073 211.575, 247.434 213.500 C 247.827 215.595, 248.675 217, 249.545 217 C 250.541 217, 251 218.104, 251 220.500 C 251 222.944, 251.452 224, 252.500 224 C 253.333 224, 254 224.889, 254 226 C 254 227.333, 254.667 228, 256 228 C 257.758 228, 258 228.667, 258 233.500 C 258 237.646, 258.358 239, 259.455 239 C 260.325 239, 261.173 240.405, 261.566 242.500 C 261.927 244.425, 262.797 246, 263.500 246 C 264.203 246, 265.073 247.575, 265.434 249.500 C 265.827 251.595, 266.675 253, 267.545 253 C 268.541 253, 269 254.104, 269 256.500 C 269 259.036, 269.439 260, 270.594 260 C 271.470 260, 272.423 260.900, 272.710 262 C 273.439 264.788, 278.561 264.788, 279.290 262 C 279.577 260.900, 280.530 260, 281.406 260 C 282.283 260, 283 259.325, 283 258.500 C 283 257.675, 282.375 257, 281.611 257 C 280.816 257, 279.942 255.505, 279.566 253.500 C 279.173 251.405, 278.325 250, 277.455 250 C 276.655 250, 276 249.100, 276 248 C 276 246.900, 275.365 246, 274.588 246 C 273.720 246, 272.915 244.459, 272.500 242 C 272.085 239.541, 271.280 238, 270.412 238 C 269.500 238, 269 236.904, 269 234.906 C 269 232.654, 268.456 231.671, 267 231.290 C 265.497 230.897, 265 229.926, 265 227.383 C 265 225.043, 264.538 224, 263.500 224 C 262.490 224, 262 222.990, 262 220.906 C 262 218.654, 261.456 217.671, 260 217.290 C 258.497 216.897, 258 215.926, 258 213.383 C 258 211.089, 257.532 210, 256.545 210 C 255.675 210, 254.827 208.595, 254.434 206.500 C 254.073 204.575, 253.203 203, 252.500 203 C 251.797 203, 250.927 201.425, 250.566 199.500 C 250.173 197.405, 249.325 196, 248.455 196 C 247.655 196, 247 195.100, 247 194 C 247 192.900, 246.375 192, 245.611 192 C 244.816 192, 243.942 190.505, 243.566 188.500 C 243.173 186.405, 242.325 185, 241.455 185 C 240.655 185, 240 184.100, 240 183 C 240 181.900, 239.345 181, 238.545 181 C 237.675 181, 236.827 179.595, 236.434 177.500 C 236.058 175.495, 235.184 174, 234.389 174 C 233.625 174, 233 173.377, 233 172.617 C 233 171.856, 232.100 170.998, 231 170.710 C 229.468 170.310, 229 169.346, 229 166.594 C 229 164.066, 228.555 163, 227.500 163 C 226.667 163, 226 162.111, 226 161 C 226 159.667, 225.333 159, 224 159 C 222.381 159, 222 158.333, 222 155.500 C 222 152.667, 221.619 152, 220 152 C 218.889 152, 218 151.333, 218 150.500 C 218 149.675, 217.325 149, 216.500 149 C 215.462 149, 215 147.957, 215 145.617 C 215 143.074, 214.503 142.103, 213 141.710 C 211.900 141.423, 211 140.470, 211 139.594 C 211 138.717, 210.325 138, 209.500 138 C 208.452 138, 208 136.944, 208 134.500 C 208 131.667, 207.619 131, 206 131 C 204.242 131, 204 130.333, 204 125.500 C 204 120.667, 203.758 120, 202 120 C 200.381 120, 200 119.333, 200 116.500 C 200 114.056, 199.548 113, 198.500 113 C 197.450 113, 197 111.941, 197 109.469 C 197 107.281, 196.440 105.722, 195.527 105.372 C 194.717 105.061, 193.767 103.275, 193.416 101.403 C 193.054 99.473, 192.177 98, 191.389 98 C 190.468 98, 190 96.820, 190 94.500 C 190 91.667, 189.619 91, 188 91 C 186.667 91, 186 90.333, 186 89 C 186 87.013, 184.638 86.673, 180.750 87.689 M 143 118 C 143 119.366, 142.333 120, 140.898 120 C 138.859 120, 138.802 120.388, 139.021 132.750 C 139.539 161.994, 139.096 174, 137.500 174 C 136.588 174, 136 174.931, 136 176.375 C 136 180.880, 134.746 185, 133.375 185 C 132.371 185, 132 186.519, 132 190.625 L 132 196.250 135.125 195.625 C 136.844 195.281, 139.319 195, 140.625 195 C 142.069 195, 143 194.412, 143 193.500 C 143 192.367, 144.222 192, 148 192 C 151.639 192, 153 191.616, 153 190.588 C 153 189.720, 154.541 188.915, 157 188.500 C 159.459 188.085, 161 187.280, 161 186.412 C 161 185.465, 162.152 185, 164.500 185 C 167.833 185, 168 184.833, 168 181.500 C 168 179.056, 168.452 178, 169.500 178 C 170.325 178, 171 178.675, 171 179.500 C 171 180.333, 171.889 181, 173 181 C 174.333 181, 175 181.667, 175 183 C 175 184.333, 175.667 185, 177 185 C 178.619 185, 179 185.667, 179 188.500 L 179 192 183.883 192 C 189.238 192, 189.958 191.086, 189.986 184.250 C 189.997 181.662, 189.593 181, 188 181 C 186.667 181, 186 180.333, 186 179 C 186 177.900, 185.345 177, 184.545 177 C 183.675 177, 182.827 175.595, 182.434 173.500 C 182.058 171.495, 181.184 170, 180.389 170 C 179.336 170, 179 168.306, 179 163 L 179 156 175 156 C 172.111 156, 171 156.417, 171 157.500 C 171 158.325, 170.325 159, 169.500 159 C 168.333 159, 168 160.333, 168 165 C 168 169.667, 167.667 171, 166.500 171 C 165.675 171, 165 171.675, 165 172.500 C 165 173.333, 164.111 174, 163 174 C 161.900 174, 161 174.655, 161 175.455 C 161 176.325, 159.595 177.173, 157.500 177.566 C 155.495 177.942, 154 178.816, 154 179.611 C 154 180.628, 152.526 181, 148.500 181 C 144.278 181, 143 180.652, 143 179.500 C 143 178.675, 143.637 178, 144.415 178 C 145.446 178, 146.020 175.968, 146.532 170.500 C 147.036 165.122, 147.626 163, 148.617 163 C 149.751 163, 150 159.132, 150 141.500 C 150 123.861, 149.752 120, 148.617 120 C 147.856 120, 146.998 119.100, 146.710 118 C 146.423 116.900, 145.470 116, 144.594 116 C 143.667 116, 143 116.837, 143 118" stroke="none" fill="black" fill-rule="evenodd"/>
</svg>