<svg xmlns="http://www.w3.org/2000/svg" width="300" height="300" viewBox="0 0 300 300" version="1.1">
	<path d="M 162.750 1.689 C 161.787 1.941, 161 2.789, 161 3.573 C 161 4.358, 160.100 5, 159 5 C 157.381 5, 157 5.667, 157 8.500 C 157 10.944, 156.548 12, 155.500 12 C 154.675 12, 154 12.675, 154 13.500 C 154 14.325, 154.675 15, 155.500 15 C 156.333 15, 157 15.889, 157 17 C 157 18.333, 157.667 19, 159 19 C 160.100 19, 161 18.377, 161 17.617 C 161 16.856, 161.900 15.998, 163 15.710 C 164.100 15.423, 165 14.470, 165 13.594 C 165 12.287, 166.262 12, 172 12 C 177.272 12, 179 11.661, 179 10.625 C 179 9.599, 181.218 9.134, 187.750 8.788 C 198.726 8.208, 199.996 8.527, 200.014 11.867 C 200.035 16.040, 201.115 19, 202.617 19 C 203.531 19, 204 17.813, 204 15.500 C 204 12.667, 204.381 12, 206 12 C 207.629 12, 208 11.333, 208 8.406 C 208 5.654, 207.532 4.690, 206 4.290 C 204.900 4.002, 204 3.144, 204 2.383 C 204 1.248, 200.455 1.021, 184.250 1.116 C 173.387 1.180, 163.713 1.438, 162.750 1.689 M 223.750 19.638 C 222.787 19.918, 222 20.808, 222 21.617 C 222 22.654, 221.044 23.021, 218.750 22.864 C 216.963 22.741, 210.438 22.721, 204.250 22.820 C 194.997 22.968, 193 23.266, 193 24.500 C 193 25.727, 191.292 26, 183.625 26 C 172.489 26, 168 26.754, 168 28.625 C 168 29.381, 167.100 30, 166 30 C 164.889 30, 164 29.333, 164 28.500 C 164 27.452, 162.944 27, 160.500 27 C 158.056 27, 157 27.452, 157 28.500 C 157 29.548, 155.944 30, 153.500 30 C 151.056 30, 150 29.548, 150 28.500 C 150 27.348, 148.722 27, 144.500 27 C 140.278 27, 139 27.348, 139 28.500 C 139 29.778, 136.333 30, 121 30 L 103 30 103 26.500 L 103 23 98.045 23 C 93.175 23, 93.080 23.059, 92.434 26.500 C 92.073 28.425, 91.185 30, 90.460 30 C 89.420 30, 89.074 34.548, 88.821 51.538 C 88.555 69.362, 88.241 73.235, 87 74 C 85.869 74.697, 85.415 77.393, 85.156 84.962 C 84.889 92.758, 84.498 95, 83.406 95 C 82.488 95, 81.997 96.128, 81.991 98.250 C 81.972 105.426, 80.714 112, 79.361 112 C 78.364 112, 78 113.606, 78 118 C 78 122.442, 77.641 124, 76.617 124 C 75.101 124, 74.035 126.968, 74.014 131.250 C 74.005 133.022, 73.466 134, 72.500 134 C 71.667 134, 71 134.889, 71 136 C 71 137.100, 70.377 138, 69.617 138 C 68.041 138, 67.034 141, 67.014 145.750 C 67.005 147.850, 66.509 149, 65.611 149 C 64.816 149, 63.942 150.495, 63.566 152.500 C 63.173 154.595, 62.325 156, 61.455 156 C 60.655 156, 60 156.900, 60 158 C 60 159.100, 59.345 160, 58.545 160 C 57.675 160, 56.827 161.405, 56.434 163.500 C 56.058 165.505, 55.184 167, 54.389 167 C 53.389 167, 53 168.400, 53 172 C 53 175.778, 53.367 177, 54.500 177 C 55.325 177, 56 176.325, 56 175.500 C 56 174.456, 57.051 174, 59.455 174 C 62.611 174, 62.966 173.698, 63.566 170.500 C 63.927 168.575, 64.797 167, 65.500 167 C 66.203 167, 67.073 165.425, 67.434 163.500 C 67.827 161.405, 68.675 160, 69.545 160 C 70.541 160, 71 158.896, 71 156.500 C 71 154.180, 71.468 153, 72.389 153 C 73.184 153, 74.058 151.505, 74.434 149.500 C 74.827 147.405, 75.675 146, 76.545 146 C 77.576 146, 78 144.834, 78 142 C 78 139.153, 78.422 138, 79.466 138 C 80.469 138, 81.140 136.424, 81.594 133 C 82.025 129.754, 82.739 128, 83.629 128 C 84.472 128, 85 126.894, 85 125.125 C 85 120.159, 86.196 116, 87.625 116 C 88.625 116, 89 114.500, 89 110.500 C 89 106.455, 89.370 105, 90.399 105 C 91.396 105, 91.998 102.995, 92.500 98 C 93.002 93.005, 93.604 91, 94.601 91 C 95.371 91, 96 91.900, 96 93 C 96 94.100, 96.655 95, 97.455 95 C 98.325 95, 99.173 96.405, 99.566 98.500 C 99.942 100.505, 100.816 102, 101.611 102 C 102.523 102, 103 103.163, 103 105.383 C 103 107.926, 103.497 108.897, 105 109.290 C 106.670 109.726, 107 110.654, 107 114.906 C 107 118.767, 107.363 120, 108.500 120 C 109.555 120, 110 121.066, 110 123.594 C 110 126.346, 110.468 127.310, 112 127.710 C 113.656 128.143, 114 129.074, 114 133.117 L 114 138 117.500 138 C 120.333 138, 121 137.619, 121 136 C 121 134.900, 121.623 134, 122.383 134 C 125.199 134, 125.992 124.655, 123.304 123.150 C 122.055 122.451, 121.497 120.462, 121.187 115.600 C 120.793 109.413, 120.899 109, 122.884 109 C 124.098 109, 125 108.361, 125 107.500 C 125 106.278, 126.667 106, 134 106 L 143 106 143 110.883 C 143 114.926, 142.656 115.857, 141 116.290 C 139.565 116.665, 139 117.654, 139 119.790 C 139 121.926, 138.435 122.914, 137 123.290 C 135.900 123.577, 135 124.530, 135 125.406 C 135 126.283, 134.325 127, 133.500 127 C 132.667 127, 132 127.889, 132 129 C 132 130.100, 131.377 131, 130.617 131 C 129.856 131, 128.998 131.900, 128.710 133 C 128.423 134.100, 127.470 135, 126.594 135 C 125.717 135, 125 135.675, 125 136.500 C 125 137.333, 124.111 138, 123 138 C 121.900 138, 121 138.623, 121 139.383 C 121 140.144, 120.100 141.002, 119 141.290 C 117.900 141.577, 117 142.530, 117 143.406 C 117 144.561, 116.036 145, 113.500 145 C 110.667 145, 110 145.381, 110 147 C 110 148.619, 109.333 149, 106.500 149 C 103.345 149, 103.001 149.271, 103.014 151.750 C 103.036 156.333, 104.078 158.787, 106.241 159.353 C 109.292 160.151, 114 158.950, 114 157.375 C 114 156.619, 114.900 156, 116 156 C 117.100 156, 118 155.345, 118 154.545 C 118 153.675, 119.405 152.827, 121.500 152.434 C 123.505 152.058, 125 151.184, 125 150.389 C 125 149.625, 125.900 149, 127 149 C 128.333 149, 129 148.333, 129 147 C 129 145.889, 129.667 145, 130.500 145 C 131.325 145, 132 144.325, 132 143.500 C 132 142.667, 132.889 142, 134 142 C 135.333 142, 136 141.333, 136 140 C 136 138.381, 136.667 138, 139.500 138 C 141.813 138, 143 137.531, 143 136.617 C 143 135.856, 143.900 134.998, 145 134.710 C 146.100 134.423, 147 133.470, 147 132.594 C 147 131.490, 147.922 131, 150 131 C 152.078 131, 153 130.510, 153 129.406 C 153 128.530, 153.900 127.577, 155 127.290 C 156.503 126.897, 157 125.926, 157 123.383 C 157 120.183, 156.810 120, 153.500 120 C 150.625 120, 150 120.370, 150 122.073 C 150 123.504, 149.461 124.043, 148.261 123.812 C 145.655 123.310, 145.364 120, 147.927 120 C 149.630 120, 150 119.375, 150 116.500 C 150 114.152, 150.465 113, 151.412 113 C 153.141 113, 154.439 106.276, 153.519 102.087 C 153.030 99.860, 152.146 98.971, 149.935 98.486 C 148.321 98.131, 147 97.202, 147 96.421 C 147 95.266, 144.566 95, 134 95 C 123.574 95, 121 95.275, 121 96.389 C 121 97.184, 119.505 98.058, 117.500 98.434 C 115.405 98.827, 114 99.675, 114 100.545 C 114 101.345, 113.365 102, 112.588 102 C 111.720 102, 110.915 100.459, 110.500 98 C 110.085 95.541, 109.280 94, 108.412 94 C 107.510 94, 107 92.917, 107 91 C 107 88.922, 106.510 88, 105.406 88 C 104.530 88, 103.577 87.100, 103.290 86 C 102.897 84.497, 101.926 84, 99.383 84 C 96.103 84, 96 83.878, 96 80 C 96 77.248, 96.434 76, 97.393 76 C 98.159 76, 99.045 75.325, 99.362 74.500 C 99.811 73.329, 101.808 73, 108.469 73 C 115.385 73, 117 72.716, 117 71.500 C 117 70.477, 118.034 69.996, 120.250 69.986 C 125 69.966, 128 68.959, 128 67.383 C 128 66.373, 129.484 66, 133.500 66 C 137.722 66, 139 65.652, 139 64.500 C 139 63.452, 140.056 63, 142.500 63 C 144.944 63, 146 63.452, 146 64.500 C 146 65.333, 146.889 66, 148 66 C 149.810 66, 150 65.333, 150 59 L 150 52 146.500 52 C 143.167 52, 143 51.833, 143 48.500 C 143 46.056, 143.452 45, 144.500 45 C 145.333 45, 146 44.111, 146 43 C 146 41.153, 146.671 40.999, 154.750 40.986 C 164.791 40.971, 168 40.340, 168 38.383 C 168 37.337, 169.707 37, 175 37 C 180.556 37, 182 36.690, 182 35.500 C 182 34.410, 183.124 34, 186.117 34 C 189.898 34, 190.184 34.183, 189.630 36.250 C 189.299 37.487, 189.021 38.837, 189.014 39.250 C 189.006 39.663, 188.325 40, 187.500 40 C 186.675 40, 186 40.848, 186 41.883 C 186 42.926, 185.107 44, 184 44.290 C 182.544 44.671, 182 45.654, 182 47.906 C 182 49.990, 181.510 51, 180.500 51 C 179.417 51, 179 52.111, 179 55 C 179 57.739, 178.564 59, 177.617 59 C 175.759 59, 175.030 62.152, 175.014 70.250 C 175.001 76.338, 175.196 77, 177 77 C 179.090 77, 179.376 77.993, 178.370 81.750 C 177.921 83.424, 177.028 84, 174.883 84 C 172.048 84, 172 84.094, 172 89.606 L 172 95.212 180.076 94.845 C 186.457 94.555, 188.357 94.113, 189.126 92.739 C 189.661 91.783, 190.752 91, 191.550 91 C 192.347 91, 193 90.325, 193 89.500 C 193 88.667, 193.889 88, 195 88 C 196.904 88, 196.999 88.662, 196.986 101.750 C 196.968 120.717, 197.286 120, 188.883 120 C 183.710 120, 182 120.342, 182 121.375 C 182 122.904, 177.772 124, 171.875 124 C 169.097 124, 168 124.425, 168 125.500 C 168 126.538, 166.957 127, 164.617 127 C 162.074 127, 161.103 127.497, 160.710 129 C 160.335 130.433, 159.346 131, 157.219 131 C 154.778 131, 154.154 131.489, 153.708 133.750 C 153.410 135.262, 153.406 137.738, 153.700 139.250 C 154.213 141.895, 154.467 141.999, 160.367 141.986 C 167.869 141.970, 171 141.203, 171 139.383 C 171 138.623, 171.848 138, 172.883 138 C 173.926 138, 175 137.107, 175.290 136 C 175.671 134.544, 176.654 134, 178.906 134 C 180.990 134, 182 133.510, 182 132.500 C 182 131.351, 183.269 131, 187.418 131 C 190.398 131, 193.575 130.717, 194.478 130.370 C 195.614 129.934, 196.291 130.395, 196.676 131.870 C 196.983 133.042, 197.856 134, 198.617 134 C 199.734 134, 200.001 136.935, 200.006 149.250 C 200.014 170.087, 200.922 181, 202.648 181 C 203.620 181, 204 182.546, 204 186.500 L 204 192 207.500 192 L 211 192 211 185 C 211 179.444, 210.690 178, 209.500 178 C 208.207 178, 208 174.569, 208 153.117 C 208 129.074, 208.068 128.216, 210 127.710 C 211.100 127.423, 212 126.470, 212 125.594 C 212 124.388, 213.034 123.997, 216.250 123.986 C 221.947 123.968, 225 123.060, 225 121.383 C 225 120.373, 226.484 120, 230.500 120 C 234.722 120, 236 119.652, 236 118.500 C 236 117.445, 237.066 117, 239.594 117 C 242.346 117, 243.310 116.532, 243.710 115 C 243.998 113.900, 244.856 113, 245.617 113 C 246.377 113, 247 112.100, 247 111 C 247 109.667, 246.333 109, 245 109 C 243.889 109, 243 108.333, 243 107.500 C 243 106.500, 242 106, 240 106 C 238 106, 237 106.500, 237 107.500 C 237 108.583, 235.889 109, 233 109 C 230.261 109, 229 109.436, 229 110.383 C 229 112.142, 225.902 112.969, 219.250 112.986 C 215.256 112.997, 214 113.359, 214 114.500 C 214 115.487, 213.012 116, 211.109 116 C 208.542 116, 208.172 115.603, 207.804 112.447 C 207.576 110.492, 207.582 104.867, 207.817 99.947 L 208.245 91 213.122 91 C 216.791 91, 218 90.628, 218 89.500 C 218 88.675, 217.283 88, 216.406 88 C 215.530 88, 214.577 87.100, 214.290 86 C 214.002 84.900, 213.144 84, 212.383 84 C 211.623 84, 211 83.325, 211 82.500 C 211 81.379, 212.201 80.997, 215.750 80.986 C 218.363 80.979, 221.512 80.701, 222.750 80.370 C 224.939 79.783, 225 79.973, 225 87.383 C 225 93.487, 224.702 95, 223.500 95 C 222.675 95, 222 95.675, 222 96.500 C 222 97.325, 222.563 98.006, 223.250 98.014 C 223.938 98.021, 225.512 98.299, 226.750 98.630 C 228.504 99.100, 229 98.815, 229 97.339 C 229 96.297, 229.900 94.674, 231 93.732 C 232.740 92.242, 233 90.782, 233 82.510 C 233 73.667, 232.860 73, 231 73 C 229.889 73, 229 72.333, 229 71.500 C 229 69.949, 226.730 69.591, 216.500 69.530 L 211.500 69.500 211.198 64.250 C 210.926 59.524, 211.100 59, 212.948 59 C 214.613 59, 215 58.362, 215 55.617 C 215 53.074, 215.497 52.103, 217 51.710 C 218.100 51.423, 219 50.470, 219 49.594 C 219 48.717, 219.675 48, 220.500 48 C 221.548 48, 222 46.944, 222 44.500 C 222 41.667, 222.381 41, 224 41 C 225.333 41, 226 40.333, 226 39 C 226 37.889, 226.667 37, 227.500 37 C 228.333 37, 229 36.111, 229 35 C 229 33.889, 229.667 33, 230.500 33 C 231.325 33, 232 32.325, 232 31.500 C 232 30.547, 232.959 30, 234.630 30 C 237.160 30, 237.241 29.827, 236.747 25.451 C 236.465 22.948, 235.967 20.633, 235.639 20.306 C 234.836 19.502, 225.935 19.002, 223.750 19.638 M 208 32 C 208 33.333, 207.333 34, 206 34 C 204.900 34, 204 34.625, 204 35.389 C 204 36.178, 202.522 37.055, 200.572 37.420 C 197.804 37.940, 197.020 38.634, 196.493 41.032 C 196.134 42.664, 195.202 44, 194.421 44 C 193.639 44, 193 44.900, 193 46 C 193 47.100, 192.375 48, 191.611 48 C 190.816 48, 189.942 49.495, 189.566 51.500 C 189.173 53.595, 188.325 55, 187.455 55 C 186.424 55, 186 56.166, 186 59 C 186 61.889, 185.583 63, 184.500 63 C 183.675 63, 183 63.675, 183 64.500 C 183 65.500, 184 66, 186 66 C 187.726 66, 189.006 66.531, 189.014 67.250 C 189.021 67.938, 189.299 69.513, 189.630 70.750 C 190.117 72.565, 189.824 73, 188.117 73 C 186.902 73, 186 73.639, 186 74.500 C 186 75.548, 187.056 76, 189.500 76 C 191.944 76, 193 75.548, 193 74.500 C 193 73.452, 194.056 73, 196.500 73 C 199.833 73, 200 72.833, 200 69.500 C 200 66.667, 200.381 66, 202 66 C 203.733 66, 204 65.333, 204 61 C 204 57.361, 204.384 56, 205.412 56 C 206.280 56, 207.085 54.459, 207.500 52 C 207.915 49.541, 208.720 48, 209.588 48 C 210.535 48, 211 46.848, 211 44.500 C 211 42.068, 211.454 41, 212.488 41 C 213.451 41, 214.202 39.588, 214.616 37 C 215.002 34.587, 215.800 33, 216.628 33 C 217.383 33, 218 32.325, 218 31.500 C 218 30.367, 216.778 30, 213 30 C 208.667 30, 208 30.267, 208 32 M 99.813 41.250 C 99.613 49.038, 99.421 53.463, 99.162 56.250 C 99.073 57.212, 98.325 58, 97.500 58 C 96.667 58, 96 58.889, 96 60 C 96 61.810, 96.667 62, 103 62 C 108.556 62, 110 61.690, 110 60.500 C 110 59.348, 111.278 59, 115.500 59 C 120.333 59, 121 58.758, 121 57 C 121 55.394, 121.667 55, 124.383 55 C 126.926 55, 127.897 54.503, 128.290 53 C 128.577 51.900, 129.530 51, 130.406 51 C 131.283 51, 132 50.325, 132 49.500 C 132 48.675, 132.625 48, 133.389 48 C 134.184 48, 135.058 46.505, 135.434 44.500 C 135.827 42.405, 136.675 41, 137.545 41 C 138.348 41, 139 40.075, 139 38.936 C 139 36.957, 138.517 36.880, 127.250 37.065 C 112.118 37.314, 111.265 37.519, 110.479 41.094 C 109.826 44.067, 107 45.209, 107 42.500 C 107 41.667, 106.111 41, 105 41 C 103.381 41, 103 40.333, 103 37.500 C 103 35.056, 102.548 34, 101.500 34 C 100.322 34, 99.960 35.555, 99.813 41.250 M 150 168.500 C 150 169.333, 149.111 170, 148 170 C 146.667 170, 146 170.667, 146 172 C 146 173.810, 145.333 174, 139 174 C 133.541 174, 132 174.320, 132 175.455 C 132 176.325, 130.595 177.173, 128.500 177.566 C 126.575 177.927, 125 178.795, 125 179.495 C 125 180.353, 122.854 180.904, 118.400 181.187 C 113.538 181.497, 111.549 182.055, 110.850 183.304 C 110.292 184.301, 108.685 185, 106.950 185 C 104.994 185, 104 185.506, 104 186.500 C 104 187.325, 104.675 188, 105.500 188 C 106.333 188, 107 188.889, 107 190 C 107 191.333, 107.667 192, 109 192 C 110.100 192, 111 191.377, 111 190.617 C 111 188.790, 114.135 188.030, 121.750 188.014 C 126.633 188.003, 128 187.672, 128 186.500 C 128 185.445, 129.066 185, 131.594 185 C 134.346 185, 135.310 184.532, 135.710 183 C 136.143 181.344, 137.074 181, 141.117 181 C 144.791 181, 146 180.629, 146 179.500 C 146 178.477, 147.034 177.996, 149.250 177.986 C 154 177.966, 157 176.959, 157 175.383 C 157 174.373, 158.484 174, 162.500 174 C 166.570 174, 168 174.367, 168 175.412 C 168 176.280, 169.541 177.085, 172 177.500 C 174.459 177.915, 176 178.720, 176 179.588 C 176 181.950, 177.742 181.164, 178.411 178.500 C 179.220 175.276, 178.211 171.295, 176.410 170.604 C 175.634 170.306, 175 169.374, 175 168.531 C 175 167.238, 173.058 167, 162.500 167 C 152.056 167, 150 167.247, 150 168.500 M 153.726 188.607 C 153.393 188.941, 153.374 191.360, 153.684 193.982 L 154.249 198.751 147.524 199.179 C 142.551 199.496, 140.552 200.049, 139.850 201.304 C 139.068 202.702, 137.327 203, 129.950 203 C 122.661 203, 121 203.278, 121 204.500 C 121 205.663, 119.681 206, 115.125 206 C 107.342 206, 103 206.940, 103 208.625 C 103 209.381, 102.377 210, 101.617 210 C 99.968 210, 98.950 214.403, 99.708 218.250 C 100.211 220.800, 100.605 221, 105.125 221 C 109.333 221, 110 220.726, 110 219 C 110 217.242, 110.667 217, 115.500 217 C 119.722 217, 121 216.652, 121 215.500 C 121 214.348, 122.278 214, 126.500 214 C 131.333 214, 132 213.758, 132 212 C 132 210.107, 132.667 210, 144.500 210 C 154.754 210, 157 210.261, 157 211.450 C 157 212.248, 157.666 213.274, 158.481 213.729 C 159.295 214.185, 160.251 216.007, 160.606 217.779 C 161.237 220.933, 161.175 221, 157.625 221 C 155.069 221, 154 221.443, 154 222.500 C 154 223.523, 152.966 224.004, 150.750 224.014 C 146 224.034, 143 225.041, 143 226.617 C 143 227.663, 141.293 228, 136 228 C 130.727 228, 129 228.339, 129 229.375 C 129 230.746, 124.880 232, 120.375 232 C 118.931 232, 118 232.588, 118 233.500 C 118 234.652, 116.722 235, 112.500 235 C 107.667 235, 107 235.242, 107 237 C 107 238.758, 106.333 239, 101.500 239 C 97.474 239, 96 239.372, 96 240.389 C 96 241.184, 94.505 242.058, 92.500 242.434 C 90.405 242.827, 89 243.675, 89 244.545 C 89 245.345, 88.100 246, 87 246 C 85.273 246, 85 246.667, 85 250.883 C 85 256.424, 85.805 256.962, 94.139 256.986 C 98.652 257, 98.795 256.905, 99.434 253.500 C 100.034 250.302, 100.389 250, 103.545 250 C 106.333 250, 107 249.614, 107 248 C 107 246.242, 107.667 246, 112.500 246 C 116.545 246, 118 245.630, 118 244.601 C 118 243.604, 120.005 243.002, 125 242.500 C 129.995 241.998, 132 241.396, 132 240.399 C 132 239.370, 133.455 239, 137.500 239 C 141.516 239, 143 238.627, 143 237.617 C 143 235.897, 146.077 235.031, 152.250 235.014 C 155.799 235.003, 157 234.621, 157 233.500 C 157 232.417, 158.111 232, 161 232 C 164.905 232, 165 232.083, 165 235.500 C 165 237.944, 165.452 239, 166.500 239 C 167.690 239, 168 240.444, 168 246 C 168 251.237, 168.343 253, 169.361 253 C 170.999 253, 171.979 259.934, 171.991 271.625 C 172.002 281.547, 171.191 286, 169.375 286 C 168.619 286, 168 286.675, 168 287.500 C 168 288.652, 166.722 289, 162.500 289 C 158.278 289, 157 289.348, 157 290.500 C 157 291.652, 155.722 292, 151.500 292 C 148.475 292, 146 291.570, 146 291.045 C 146 290.520, 144.425 289.795, 142.500 289.434 C 140.575 289.073, 139 288.205, 139 287.505 C 139 286.806, 138.100 285.998, 137 285.710 C 135.900 285.423, 135 284.470, 135 283.594 C 135 282.717, 134.325 282, 133.500 282 C 132.452 282, 132 280.944, 132 278.500 C 132 275.667, 131.619 275, 130 275 C 128.561 275, 128 275.667, 128 277.375 C 128 281.880, 129.254 286, 130.625 286 C 131.530 286, 132 287.197, 132 289.500 C 132 292.333, 132.381 293, 134 293 C 135.100 293, 136 293.623, 136 294.383 C 136 295.899, 138.968 296.965, 143.250 296.986 C 145.022 296.995, 146 297.534, 146 298.500 C 146 299.742, 147.889 300, 157 300 C 165.959 300, 168 299.730, 168 298.545 C 168 297.675, 169.405 296.827, 171.500 296.434 C 173.505 296.058, 175 295.184, 175 294.389 C 175 293.625, 175.900 293, 177 293 C 178.333 293, 179 292.333, 179 291 C 179 289.889, 179.667 289, 180.500 289 C 181.764 289, 182 286.722, 182 274.500 C 182 262.767, 181.734 260, 180.606 260 C 179.559 260, 179.120 257.988, 178.845 251.924 C 178.555 245.543, 178.113 243.643, 176.739 242.874 C 175.347 242.095, 175 240.513, 175 234.950 C 175 228.667, 175.192 228, 177 228 C 178.100 228, 179 227.371, 179 226.601 C 179 225.604, 181.005 225.002, 186 224.500 C 190.995 223.998, 193 223.396, 193 222.399 C 193 221.299, 195.030 221, 202.510 221 C 210.782 221, 212.242 220.740, 213.732 219 C 215.290 217.180, 216.682 217, 229.177 217 L 242.909 217 243.566 213.500 C 243.942 211.495, 244.816 210, 245.611 210 C 246.532 210, 247 208.820, 247 206.500 L 247 203 241.500 203 C 237.278 203, 236 203.348, 236 204.500 C 236 205.727, 234.292 206, 226.625 206 C 215.489 206, 211 206.754, 211 208.625 C 211 209.690, 208.970 210, 202 210 C 194.957 210, 193 210.304, 193 211.399 C 193 212.396, 190.995 212.998, 186 213.500 C 181.005 214.002, 179 214.604, 179 215.601 C 179 216.566, 177.760 217, 175 217 C 172.111 217, 171 216.583, 171 215.500 C 171 214.675, 170.325 214, 169.500 214 C 168.463 214, 168 212.958, 168 210.625 C 168 207.645, 168.366 207.177, 171.125 206.625 C 172.844 206.281, 176.894 206, 180.125 206 L 186 206 186 201.125 C 186 196.465, 185.862 196.222, 182.875 195.625 C 181.156 195.281, 177.781 195, 175.375 195 C 172.153 195, 171 194.605, 171 193.500 C 171 192.452, 169.944 192, 167.500 192 C 165.187 192, 164 191.531, 164 190.617 C 164 188.563, 155.444 186.889, 153.726 188.607" stroke="none" fill="black" fill-rule="evenodd"/>
</svg>