<svg xmlns="http://www.w3.org/2000/svg" width="300" height="300" viewBox="0 0 300 300" version="1.1">
	<path d="M 153 17.500 C 153 18.682, 151.601 19, 146.406 19 C 140.654 19, 139.746 19.255, 139.290 21 C 139 22.107, 137.926 23, 136.883 23 C 135.848 23, 135 23.675, 135 24.500 C 135 25.325, 134.325 26, 133.500 26 C 131.036 26, 131.491 32.634, 134 33.290 C 135.100 33.577, 136 34.530, 136 35.406 C 136 36.283, 136.675 37, 137.500 37 C 138.325 37, 139 36.325, 139 35.500 C 139 34.667, 139.889 34, 141 34 C 142.333 34, 143 33.333, 143 32 C 143 30.667, 143.667 30, 145 30 C 146.100 30, 147 29.377, 147 28.617 C 147 26.715, 150.187 26.027, 159 26.027 C 169.172 26.027, 170.997 26.611, 171.014 29.867 C 171.035 34.040, 172.115 37, 173.617 37 C 174.377 37, 175 36.325, 175 35.500 C 175 34.667, 175.889 34, 177 34 C 178.822 34, 179 33.333, 179 26.500 L 179 19 175.500 19 C 173.056 19, 172 18.548, 172 17.500 C 172 16.272, 170.278 16, 162.500 16 C 154.722 16, 153 16.272, 153 17.500 M 193 35.500 C 193 36.690, 191.556 37, 186 37 C 179.667 37, 179 37.190, 179 39 C 179 40.758, 178.333 41, 173.500 41 C 169.278 41, 168 41.348, 168 42.500 C 168 43.621, 166.799 44.003, 163.250 44.014 C 157.077 44.031, 154 44.897, 154 46.617 C 154 47.627, 152.516 48, 148.500 48 C 144.278 48, 143 48.348, 143 49.500 C 143 50.565, 141.913 51.003, 139.250 51.009 C 131.622 51.026, 125 52.249, 125 53.639 C 125 54.659, 123.222 55, 117.906 55 C 111.654 55, 110.751 55.237, 110.290 57 C 109.897 58.503, 108.926 59, 106.383 59 C 103.002 59, 103 59.002, 103 63.875 C 103 68.535, 103.138 68.778, 106.125 69.375 C 107.844 69.719, 111.036 70, 113.219 70 C 116.346 70, 117.298 69.576, 117.710 68 C 118.103 66.497, 119.074 66, 121.617 66 C 123.957 66, 125 65.538, 125 64.500 C 125 63.675, 125.563 62.994, 126.250 62.986 C 126.938 62.979, 128.512 62.701, 129.750 62.370 L 132 61.767 132 83.883 C 132 102.876, 131.788 106, 130.500 106 C 129.675 106, 129 106.675, 129 107.500 C 129 108.325, 129.675 109, 130.500 109 C 131.333 109, 132 109.889, 132 111 C 132 112.619, 132.667 113, 135.500 113 C 137.944 113, 139 113.452, 139 114.500 C 139 115.333, 139.889 116, 141 116 C 142.111 116, 143 115.333, 143 114.500 C 143 113.452, 144.056 113, 146.500 113 C 149.333 113, 150 112.619, 150 111 C 150 109.667, 150.667 109, 152 109 C 153.111 109, 154 108.333, 154 107.500 C 154 106.675, 154.675 106, 155.500 106 C 156.333 106, 157 105.111, 157 104 C 157 102.394, 157.667 102, 160.383 102 C 162.926 102, 163.897 101.503, 164.290 100 C 164.577 98.900, 165.530 98, 166.406 98 C 167.283 98, 168 97.325, 168 96.500 C 168 95.367, 169.222 95, 173 95 C 177.333 95, 178 95.267, 178 97 C 178 98.100, 177.550 99, 177 99 C 176.450 99, 176 99.675, 176 100.500 C 176 101.433, 175.056 102, 173.500 102 C 171.979 102, 171 102.570, 171 103.455 C 171 104.325, 169.595 105.173, 167.500 105.566 C 164.967 106.041, 164 106.745, 164 108.111 C 164 109.150, 163.325 110, 162.500 110 C 161.500 110, 161 111, 161 113 C 161 115, 161.500 116, 162.500 116 C 163.333 116, 164 116.889, 164 118 C 164 119.333, 164.667 120, 166 120 C 167.333 120, 168 119.333, 168 118 C 168 116.381, 168.667 116, 171.500 116 L 175 116 175 121.500 C 175 125.722, 174.652 127, 173.500 127 C 172.278 127, 172 128.667, 172 136 C 172 144.333, 171.852 145, 170 145 C 168.900 145, 168 145.623, 168 146.383 C 168 148.103, 164.923 148.969, 158.750 148.986 L 154 149 154 143.500 L 154 138 157.500 138 C 159.944 138, 161 138.452, 161 139.500 C 161 140.325, 161.675 141, 162.500 141 C 163.548 141, 164 139.944, 164 137.500 C 164 135.056, 163.548 134, 162.500 134 C 161.675 134, 161 133.325, 161 132.500 C 161 131.667, 160.111 131, 159 131 C 157.650 131, 157 130.333, 157 128.948 C 157 127.100, 156.476 126.926, 151.750 127.198 C 146.630 127.492, 146.492 127.581, 146.187 130.750 C 145.993 132.763, 145.327 134, 144.437 134 C 143.293 134, 143 135.855, 143 143.094 C 143 151.346, 142.815 152.236, 141 152.710 C 139.900 152.998, 139 153.856, 139 154.617 C 139 155.627, 137.516 156, 133.500 156 C 129.507 156, 128 156.376, 128 157.371 C 128 158.261, 126.246 158.975, 123 159.406 C 119.770 159.834, 118 160.551, 118 161.432 C 118 162.448, 115.831 162.884, 109.463 163.147 C 103.953 163.375, 100.647 163.952, 100.138 164.776 C 99.704 165.478, 97.069 166.323, 94.281 166.653 L 89.213 167.253 88.856 154.460 C 88.603 145.378, 88.137 141.546, 87.250 141.250 C 85.745 140.748, 85.586 138.305, 87.027 137.824 C 87.592 137.636, 88.332 132.917, 88.672 127.337 L 89.290 117.192 92.270 116.596 C 93.909 116.268, 96.994 116, 99.125 116 C 101.903 116, 103 115.575, 103 114.500 C 103 113.300, 104.500 113, 110.500 113 L 118 113 118 109.588 C 118 106.417, 117.735 106.134, 114.250 105.583 C 112.188 105.256, 105.663 105.173, 99.750 105.397 L 89 105.805 89 102.452 C 89 100.413, 88.371 98.747, 87.394 98.201 C 86.428 97.660, 85.580 95.449, 85.264 92.651 C 84.786 88.408, 84.927 88, 86.870 88 C 88.333 88, 89 87.374, 89 86 C 89 84.381, 89.667 84, 92.500 84 C 95.333 84, 96 83.619, 96 82 C 96 80.667, 95.333 80, 94 80 C 92.889 80, 92 79.333, 92 78.500 C 92 77.675, 91.325 77, 90.500 77 C 89.667 77, 89 76.111, 89 75 C 89 73.371, 88.333 73, 85.406 73 C 82.654 73, 81.690 73.468, 81.290 75 C 81.002 76.100, 80.144 77, 79.383 77 C 78.263 77, 78 80.044, 78 93 L 78 109 74.469 109 C 72.281 109, 70.722 109.560, 70.372 110.473 C 70.061 111.283, 68.275 112.233, 66.403 112.584 C 64.473 112.946, 63 113.823, 63 114.611 C 63 115.375, 62.325 116, 61.500 116 C 60.417 116, 60 117.111, 60 120 C 60 123.878, 60.103 124, 63.383 124 C 65.926 124, 66.897 124.497, 67.290 126 C 67.577 127.100, 68.347 128, 69 128 C 69.653 128, 70.423 127.100, 70.710 126 C 70.998 124.900, 71.856 124, 72.617 124 C 73.377 124, 74 123.100, 74 122 C 74 120.667, 74.667 120, 76 120 C 77.933 120, 78 120.667, 78 140 C 78 157.111, 78.217 160, 79.500 160 C 80.325 160, 81 160.675, 81 161.500 C 81 162.325, 80.325 163, 79.500 163 C 78.452 163, 78 164.056, 78 166.500 L 78 170 70.906 170 C 64.654 170, 63.751 170.237, 63.290 172 C 62.836 173.737, 61.926 174, 56.383 174 C 51.376 174, 50 174.323, 50 175.500 C 50 176.356, 49.101 177, 47.906 177 C 46.654 177, 45.603 177.803, 45.290 179 C 45.002 180.100, 44.144 181, 43.383 181 C 42.623 181, 42 181.900, 42 183 C 42 184.111, 42.667 185, 43.500 185 C 44.325 185, 45 185.635, 45 186.412 C 45 187.280, 46.541 188.085, 49 188.500 C 51.459 188.915, 53 189.720, 53 190.588 C 53 191.365, 53.900 192, 55 192 C 56.619 192, 57 191.333, 57 188.500 C 57 186.056, 57.452 185, 58.500 185 C 59.333 185, 60 184.111, 60 183 C 60 181.242, 60.667 181, 65.500 181 C 69.722 181, 71 180.652, 71 179.500 C 71 178.370, 72.212 178, 75.911 178 L 80.822 178 81.246 184.250 C 81.479 187.688, 81.757 203.525, 81.863 219.445 C 81.970 235.365, 82.214 248.548, 82.407 248.740 C 82.599 248.933, 84.049 249.182, 85.628 249.295 C 88.418 249.494, 88.509 249.350, 88.802 244.250 C 89.020 240.473, 89.511 239, 90.552 239 C 91.749 239, 92 236.490, 92 224.500 C 92 212.278, 91.764 210, 90.500 210 C 89.229 210, 89 207.556, 89 194 C 89 180.027, 89.202 178, 90.594 178 C 91.470 178, 92.423 177.100, 92.710 176 C 93.169 174.244, 94.074 174, 100.117 174 C 105.569 174, 107 173.688, 107 172.500 C 107 171.675, 107.675 171, 108.500 171 C 109.325 171, 110 171.675, 110 172.500 C 110 173.700, 111.500 174, 117.500 174 C 123.500 174, 125 173.700, 125 172.500 C 125 171.675, 125.717 171, 126.594 171 C 127.470 171, 128.423 170.100, 128.710 169 C 129.103 167.497, 130.074 167, 132.617 167 C 134.831 167, 136 166.522, 136 165.617 C 136 164.331, 138.840 163.045, 141.750 163.014 C 142.675 163.004, 143 165.859, 143 174 C 143 182.959, 143.270 185, 144.455 185 C 145.325 185, 146.173 186.405, 146.566 188.500 C 146.942 190.505, 147.816 192, 148.611 192 C 149.375 192, 150 192.900, 150 194 C 150 195.111, 150.667 196, 151.500 196 C 152.487 196, 153 196.987, 153 198.883 C 153 201.956, 151.228 202.959, 145.750 202.986 C 143.978 202.995, 143 203.534, 143 204.500 C 143 205.555, 141.934 206, 139.406 206 C 136.654 206, 135.690 206.468, 135.290 208 C 134.897 209.503, 133.926 210, 131.383 210 C 129.089 210, 128 210.468, 128 211.455 C 128 212.325, 126.595 213.173, 124.500 213.566 C 122.495 213.942, 121 214.816, 121 215.611 C 121 216.375, 120.325 217, 119.500 217 C 117.036 217, 117.491 223.634, 120 224.290 C 121.100 224.577, 122 225.530, 122 226.406 C 122 227.652, 123.092 228, 127 228 L 132 228 132 224.500 C 132 221.667, 132.381 221, 134 221 C 135.333 221, 136 220.333, 136 219 C 136 217.889, 136.667 217, 137.500 217 C 138.325 217, 139 216.325, 139 215.500 C 139 214.445, 140.066 214, 142.594 214 C 145.346 214, 146.310 213.532, 146.710 212 C 147.143 210.344, 148.074 210, 152.117 210 C 155.608 210, 157 209.606, 157 208.617 C 157 207.342, 159.833 206.046, 162.690 206.014 C 163.346 206.006, 164.018 207.682, 164.190 209.750 C 164.484 213.310, 164.677 213.500, 168 213.500 C 171.218 213.500, 171.525 213.238, 171.813 210.250 C 172.017 208.136, 172.661 207, 173.657 207 C 174.499 207, 175.423 206.100, 175.710 205 C 176.103 203.497, 177.074 203, 179.617 203 C 181.911 203, 183 202.532, 183 201.545 C 183 200.675, 184.405 199.827, 186.500 199.434 C 188.505 199.058, 190 198.184, 190 197.389 C 190 196.503, 191.121 196, 193.094 196 C 195.346 196, 196.329 195.456, 196.710 194 C 197.152 192.312, 198.074 192, 202.617 192 C 206.510 192, 208 191.621, 208 190.629 C 208 189.029, 218.319 187.540, 222.367 188.556 C 224.614 189.120, 224.936 189.776, 225.201 194.337 C 225.431 198.297, 225.903 199.558, 227.250 199.814 C 228.434 200.039, 229 199.514, 229 198.190 C 229 197.074, 229.860 196.008, 231 195.710 C 232.676 195.272, 233 194.346, 233 190 C 233 185.654, 232.676 184.728, 231 184.290 C 229.900 184.002, 229 183.144, 229 182.383 C 229 181.272, 226.271 181, 215.117 181 C 202.074 181, 201.202 181.121, 200.710 183 C 200.274 184.670, 199.346 185, 195.094 185 C 191.233 185, 190 185.363, 190 186.500 C 190 187.590, 188.876 188, 185.883 188 C 182.164 188, 181.821 187.793, 182.329 185.851 C 183.147 182.723, 181.972 178, 180.375 178 C 179.375 178, 179 176.500, 179 172.500 C 179 168.278, 179.348 167, 180.500 167 C 181.652 167, 182 165.722, 182 161.500 L 182 156 193 156 C 203.333 156, 204 155.879, 204 154 C 204 152.900, 204.626 152, 205.392 152 C 207.103 152, 208.250 147.844, 207.434 144.594 C 206.645 141.448, 204.222 140.910, 194.250 141.668 C 188.292 142.121, 186 142.671, 186 143.648 C 186 146.178, 183.252 145.012, 182.708 142.250 C 181.950 138.403, 182.968 134, 184.617 134 C 185.728 134, 186 131.270, 186 120.111 L 186 106.223 189.500 105.566 C 191.595 105.173, 193 104.325, 193 103.455 C 193 102.655, 193.900 102, 195 102 C 196.100 102, 197 101.353, 197 100.561 C 197 98.527, 204.434 97.605, 214.066 98.445 L 222 99.137 222 95.069 C 222 91.085, 221.927 91, 218.500 91 C 216.056 91, 215 90.548, 215 89.500 C 215 88.348, 213.722 88, 209.500 88 C 205.278 88, 204 88.348, 204 89.500 C 204 90.548, 202.944 91, 200.500 91 C 198.056 91, 197 90.548, 197 89.500 C 197 88.675, 197.625 88, 198.389 88 C 199.184 88, 200.058 86.505, 200.434 84.500 C 200.827 82.405, 201.675 81, 202.545 81 C 203.532 81, 204 79.911, 204 77.617 C 204 75.074, 204.497 74.103, 206 73.710 C 207.655 73.277, 207.998 72.353, 207.986 68.344 C 207.969 62.081, 207.110 59, 205.383 59 C 204.373 59, 204 57.516, 204 53.500 C 204 48.667, 204.242 48, 206 48 C 207.721 48, 207.998 47.338, 207.986 43.250 C 207.961 34.304, 207.694 34, 199.883 34 C 194.431 34, 193 34.312, 193 35.500 M 192.250 44.706 C 191.012 44.944, 190 45.783, 190 46.570 C 190 47.637, 188.603 48, 184.500 48 C 180.500 48, 179 48.375, 179 49.375 C 179 50.948, 174.741 52, 168.375 52 C 165.153 52, 164 52.395, 164 53.500 C 164 54.690, 162.556 55, 157 55 C 151.541 55, 150 55.320, 150 56.455 C 150 57.325, 148.595 58.173, 146.500 58.566 C 140.982 59.601, 141.988 62, 147.941 62 C 153.447 62, 154.355 62.738, 153.422 66.454 C 152.740 69.173, 150 70.010, 150 67.500 C 150 66.452, 148.944 66, 146.500 66 L 143 66 143 71 C 143 74.778, 143.367 76, 144.500 76 C 145.325 76, 146 75.325, 146 74.500 C 146 73.300, 147.500 73, 153.500 73 L 161 73 161 76.594 C 161 79.346, 160.532 80.310, 159 80.710 C 157.497 81.103, 157 82.074, 157 84.617 C 157 86.873, 156.527 88, 155.579 88 C 154.798 88, 153.862 89.350, 153.500 91 C 153.138 92.650, 152.202 94, 151.421 94 C 150.639 94, 150 94.900, 150 96 C 150 97.333, 150.667 98, 152 98 C 153.111 98, 154 97.333, 154 96.500 C 154 95.490, 155.010 95, 157.094 95 C 159.346 95, 160.329 94.456, 160.710 93 C 161 91.893, 162.074 91, 163.117 91 C 164.152 91, 165 90.361, 165 89.579 C 165 88.798, 166.350 87.862, 168 87.500 C 171.042 86.832, 172.255 84, 169.500 84 C 168.348 84, 168 82.722, 168 78.500 C 168 73.667, 167.758 73, 166 73 C 164.262 73, 164 72.333, 164 67.906 C 164 63.654, 164.330 62.726, 166 62.290 C 167.100 62.002, 168 61.144, 168 60.383 C 168 59.478, 169.170 59, 171.389 59 C 174.470 59, 174.837 59.318, 175.434 62.500 C 176.001 65.524, 176.477 66, 178.929 66 C 180.926 66, 181.922 65.407, 182.290 64 C 182.577 62.900, 183.530 62, 184.406 62 C 185.283 62, 186 61.325, 186 60.500 C 186 59.667, 186.889 59, 188 59 C 189.333 59, 190 58.333, 190 57 C 190 55.889, 190.667 55, 191.500 55 C 192.325 55, 193 54.325, 193 53.500 C 193 52.667, 193.889 52, 195 52 C 196.333 52, 197 51.333, 197 50 C 197 48.889, 197.667 48, 198.500 48 C 199.333 48, 200 47.111, 200 46 C 200 43.958, 197.927 43.612, 192.250 44.706 M 193 68 C 193 69.111, 192.333 70, 191.500 70 C 190.675 70, 190 70.675, 190 71.500 C 190 72.333, 189.111 73, 188 73 C 186.178 73, 186 73.667, 186 80.500 C 186 86.696, 186.277 88, 187.594 88 C 188.470 88, 189.423 87.100, 189.710 86 C 189.998 84.900, 190.856 84, 191.617 84 C 192.531 84, 193 82.813, 193 80.500 C 193 77.667, 193.381 77, 195 77 C 196.758 77, 197 76.333, 197 71.500 C 197 66.667, 196.758 66, 195 66 C 193.667 66, 193 66.667, 193 68 M 164 157.383 C 164 158.899, 161.032 159.965, 156.750 159.986 C 154.013 160, 154 160.034, 154 167 L 154 174 157.500 174 C 159.944 174, 161 174.452, 161 175.500 C 161 176.548, 162.056 177, 164.500 177 C 166.944 177, 168 176.548, 168 175.500 C 168 174.675, 168.612 174, 169.361 174 C 170.751 174, 171.974 167.378, 171.991 159.750 C 172 156.040, 171.957 156, 168 156 C 165.261 156, 164 156.436, 164 157.383 M 157 188.500 L 157 192 164 192 C 169.556 192, 171 191.690, 171 190.500 C 171 189.675, 170.325 189, 169.500 189 C 168.667 189, 168 188.111, 168 187 C 168 185.242, 167.333 185, 162.500 185 L 157 185 157 188.500 M 151.750 217.689 C 150.513 218.013, 150 219.151, 150 221.573 C 150 223.801, 149.523 225, 148.636 225 C 146.697 225, 146.177 230.626, 146.190 251.500 C 146.202 271.331, 146.582 275, 148.625 275 C 149.530 275, 150 276.197, 150 278.500 C 150 281.833, 150.167 282, 153.500 282 C 155.803 282, 157 282.470, 157 283.375 C 157 285.015, 162.216 286.235, 165.598 285.386 C 166.919 285.055, 168 284.157, 168 283.392 C 168 282.371, 169.468 282, 173.500 282 C 177.646 282, 179 281.642, 179 280.545 C 179 279.675, 180.405 278.827, 182.500 278.434 C 184.505 278.058, 186 277.184, 186 276.389 C 186 275.625, 186.900 275, 188 275 C 189.333 275, 190 274.333, 190 273 C 190 271.444, 190.667 271, 193 271 C 195.078 271, 196 270.510, 196 269.406 C 196 268.530, 196.900 267.577, 198 267.290 C 199.100 267.002, 200 266.144, 200 265.383 C 200 264.308, 202.004 264, 209 264 C 216.084 264, 218 264.301, 218 265.412 C 218 266.280, 219.541 267.085, 222 267.500 C 224.459 267.915, 226 268.720, 226 269.588 C 226 270.458, 227.055 271.005, 228.750 271.014 C 233.032 271.035, 236 272.101, 236 273.617 C 236 274.564, 237.261 275, 240 275 C 242.750 275, 244 275.435, 244 276.392 C 244 277.157, 245.081 278.055, 246.402 278.386 C 249.784 279.235, 255 278.015, 255 276.375 C 255 275.619, 255.675 275, 256.500 275 C 257.333 275, 258 274.111, 258 273 C 258 271.667, 257.333 271, 256 271 C 254.900 271, 254 270.371, 254 269.601 C 254 268.604, 251.995 268.002, 247 267.500 C 242.005 266.998, 240 266.396, 240 265.399 C 240 264.476, 238.848 264, 236.617 264 C 234.074 264, 233.103 263.503, 232.710 262 C 232.310 260.468, 231.346 260, 228.594 260 C 226.066 260, 225 259.555, 225 258.500 C 225 257.367, 223.778 257, 220 257 L 215 257 215 253.500 C 215 251.180, 215.468 250, 216.389 250 C 217.184 250, 218.058 248.505, 218.434 246.500 C 218.827 244.405, 219.675 243, 220.545 243 C 221.345 243, 222 242.100, 222 241 C 222 239.667, 222.667 239, 224 239 C 225.333 239, 226 238.333, 226 237 C 226 235.889, 226.667 235, 227.500 235 C 228.637 235, 229 233.767, 229 229.906 C 229 225.654, 229.330 224.726, 231 224.290 C 232.516 223.893, 233 222.926, 233 220.290 L 233 216.813 222.928 217.156 C 214.604 217.440, 212.687 217.804, 211.879 219.250 C 211.242 220.390, 209.697 221, 207.450 221 C 205.050 221, 204 221.456, 204 222.500 C 204 223.637, 202.767 224, 198.906 224 C 194.654 224, 193.726 224.330, 193.290 226 C 192.897 227.503, 191.926 228, 189.383 228 C 187.133 228, 186 228.474, 186 229.415 C 186 230.444, 183.990 231.018, 178.621 231.521 C 170.230 232.307, 165 231.501, 165 229.421 C 165 228.639, 164.100 228, 163 228 C 161.381 228, 161 227.333, 161 224.500 C 161 221.667, 160.619 221, 159 221 C 157.667 221, 157 220.333, 157 219 C 157 217.013, 155.638 216.673, 151.750 217.689 M 158 233.500 C 158 234.325, 158.450 235, 159 235 C 159.550 235, 160 234.325, 160 233.500 C 160 232.675, 159.550 232, 159 232 C 158.450 232, 158 232.675, 158 233.500 M 200 233.500 C 200 234.690, 198.556 235, 193 235 L 186 235 186 238.500 C 186 241.833, 186.167 242, 189.500 242 C 192.333 242, 193 242.381, 193 244 C 193 245.619, 193.667 246, 196.500 246 C 198.944 246, 200 246.452, 200 247.500 C 200 248.541, 201.047 249, 203.421 249 C 206.381 249, 206.927 248.610, 207.478 246.102 C 207.848 244.416, 208.927 242.991, 210.057 242.695 C 211.126 242.416, 212 241.470, 212 240.594 C 212 239.717, 212.675 239, 213.500 239 C 214.333 239, 215 238.111, 215 237 C 215 235.889, 215.667 235, 216.500 235 C 217.325 235, 218 234.325, 218 233.500 C 218 232.278, 216.333 232, 209 232 C 201.667 232, 200 232.278, 200 233.500 M 157.630 241.250 C 157.299 242.488, 157.021 249.688, 157.014 257.250 C 157.001 270.338, 157.096 271, 159 271 C 160.333 271, 161 271.667, 161 273 C 161 274.758, 161.667 275, 166.500 275 C 170.516 275, 172 274.627, 172 273.617 C 172 272.115, 174.960 271.035, 179.133 271.014 C 180.919 271.004, 181.935 270.356, 182.290 269 C 182.577 267.900, 183.530 267, 184.406 267 C 185.283 267, 186 266.325, 186 265.500 C 186 264.667, 186.889 264, 188 264 C 189.100 264, 190 263.345, 190 262.545 C 190 261.668, 191.423 260.824, 193.583 260.418 C 196.625 259.848, 197.081 259.425, 196.597 257.623 C 196.284 256.455, 196.021 255.220, 196.014 254.879 C 196.006 254.537, 193.750 253.959, 191 253.594 C 187.576 253.140, 186 252.469, 186 251.466 C 186 250.590, 185.045 250, 183.625 250 C 179.120 250, 175 248.746, 175 247.375 C 175 246.375, 173.500 246, 169.500 246 C 165.278 246, 164 245.652, 164 244.500 C 164 243.675, 163.283 243, 162.406 243 C 161.530 243, 160.577 242.100, 160.290 241 C 159.596 238.348, 158.377 238.463, 157.630 241.250" stroke="none" fill="black" fill-rule="evenodd"/>
</svg>