<svg xmlns="http://www.w3.org/2000/svg" width="300" height="300" viewBox="0 0 300 300" version="1.1">
	<path d="M 141.750 38.728 C 139.335 38.981, 138 39.633, 138 40.560 C 138 41.736, 135.711 42, 125.500 42 L 113 42 113 49 C 113 53.926, 113.370 56.004, 114.250 56.014 C 114.938 56.021, 116.513 56.299, 117.750 56.630 C 119.565 57.117, 120 56.824, 120 55.117 C 120 53.364, 120.602 53, 123.500 53 C 126.333 53, 127 52.619, 127 51 C 127 49.092, 127.667 49, 141.500 49 C 155.333 49, 156 49.092, 156 51 C 156 52.619, 156.667 53, 159.500 53 L 163 53 163 45.500 L 163 38 154.250 38.168 C 149.438 38.261, 143.813 38.513, 141.750 38.728 M 203 40 C 203 41.333, 202.333 42, 201 42 C 199.148 42, 199 42.667, 199 51 C 199 59.333, 198.852 60, 197 60 C 195.889 60, 195 60.667, 195 61.500 C 195 62.325, 194.325 63, 193.500 63 C 192.417 63, 192 64.111, 192 67 C 192 70.905, 192.083 71, 195.500 71 L 199 71 199 81.500 C 199 90.167, 198.738 92, 197.500 92 C 196.667 92, 196 92.889, 196 94 C 196 95.619, 195.333 96, 192.500 96 C 189.964 96, 189 96.439, 189 97.594 C 189 98.470, 188.100 99.423, 187 99.710 C 185.244 100.169, 185 101.074, 185 107.117 L 185 114 193.455 114 L 201.909 114 202.566 110.500 C 202.942 108.495, 203.816 107, 204.611 107 C 205.375 107, 206 106.100, 206 105 C 206 103.667, 206.667 103, 208 103 C 209.111 103, 210 102.333, 210 101.500 C 210 100.348, 211.278 100, 215.500 100 C 219.722 100, 221 100.348, 221 101.500 C 221 102.333, 220.111 103, 219 103 C 217.900 103, 217 103.625, 217 104.389 C 217 105.184, 215.505 106.058, 213.500 106.434 C 211.405 106.827, 210 107.675, 210 108.545 C 210 109.345, 209.325 110, 208.500 110 C 207.459 110, 207 111.047, 207 113.421 C 207 116.408, 207.380 116.925, 210 117.500 C 213.952 118.368, 213.989 121, 210.050 121 C 208.381 121, 206.709 121.697, 206.201 122.606 C 205.664 123.565, 203.463 124.419, 200.736 124.726 C 197.372 125.106, 196.041 125.735, 195.679 127.120 C 195.408 128.154, 194.470 129, 193.594 129 C 192.348 129, 192 130.092, 192 134 C 192 137.709, 191.624 139, 190.545 139 C 189.675 139, 188.827 140.405, 188.434 142.500 C 188.058 144.505, 187.184 146, 186.389 146 C 185.372 146, 185 147.474, 185 151.500 C 185 155.516, 184.627 157, 183.617 157 C 181.456 157, 181.028 160.331, 181.014 177.250 C 181.002 190.577, 180.769 193, 179.500 193 C 178.667 193, 178 193.889, 178 195 C 178 196.111, 178.667 197, 179.500 197 C 180.548 197, 181 198.056, 181 200.500 C 181 202.944, 180.548 204, 179.500 204 C 178.218 204, 178 206.833, 178 223.500 C 178 240.167, 178.218 243, 179.500 243 C 180.325 243, 181 243.848, 181 244.883 C 181 245.926, 181.893 247, 183 247.290 C 184.448 247.668, 185 248.654, 185 250.861 C 185 253.553, 185.409 253.986, 188.500 254.566 C 190.505 254.942, 192 255.816, 192 256.611 C 192 257.532, 193.180 258, 195.500 258 C 197.813 258, 199 258.469, 199 259.383 C 199 261.531, 202.330 261.973, 218.500 261.973 C 234.670 261.973, 238 261.531, 238 259.383 C 238 258.290, 240.288 258, 248.912 258 L 259.824 258 260.518 253.896 C 261.537 247.864, 260.188 237, 258.420 237 C 257.639 237, 257 236.100, 257 235 C 257 233.667, 256.333 233, 255 233 C 253.193 233, 253 233.667, 253 239.894 L 253 246.788 244.958 247.153 C 239.213 247.414, 236.653 247.944, 235.995 249.009 C 235.237 250.236, 232.047 250.500, 217.968 250.500 C 202.716 250.500, 200.755 250.310, 199.881 248.750 C 199.342 247.787, 198.023 247, 196.950 247 C 195.878 247, 195 246.325, 195 245.500 C 195 244.675, 194.325 244, 193.500 244 C 192.667 244, 192 243.111, 192 242 C 192 240.889, 191.333 240, 190.500 240 C 189.588 240, 189 239.069, 189 237.625 C 189 233.120, 187.746 229, 186.375 229 C 185.392 229, 185 227.576, 185 224 C 185 220.222, 185.367 219, 186.500 219 C 187.694 219, 188.026 217.417, 188.125 211.250 C 188.194 206.988, 188.311 200.575, 188.385 197 C 188.993 167.597, 188.964 168, 190.500 168 C 191.652 168, 192 166.722, 192 162.500 C 192 158.335, 192.356 157, 193.466 157 C 194.469 157, 195.140 155.424, 195.594 152 C 196.025 148.754, 196.739 147, 197.629 147 C 198.506 147, 199.005 145.830, 199.014 143.750 C 199.040 137.403, 199.814 136.281, 204.533 135.749 C 210.166 135.114, 214 135.870, 214 137.617 C 214 138.475, 215.095 139, 216.883 139 C 219.956 139, 220.959 137.228, 220.986 131.750 C 220.995 130.093, 221.545 129, 222.372 129 C 223.200 129, 223.998 127.413, 224.384 125 C 224.798 122.412, 225.549 121, 226.512 121 C 227.767 121, 228 118.499, 228 105 L 228 89 224.550 89 C 222.323 89, 220.734 88.379, 220.068 87.250 C 219.271 85.898, 218.845 85.790, 218.193 86.776 C 217.729 87.478, 215.021 88.329, 212.175 88.666 L 207 89.279 207 80.139 C 207 72.682, 207.276 71, 208.500 71 C 209.333 71, 210 70.111, 210 69 C 210 67.092, 210.667 67, 224.500 67 L 239 67 239 62 L 239 57 235 57 C 232.111 57, 231 57.417, 231 58.500 C 231 59.325, 230.325 60, 229.500 60 C 228.675 60, 228 59.365, 228 58.588 C 228 56.808, 221.510 55.626, 216.698 56.529 C 214.750 56.894, 211.771 56.889, 210.078 56.517 C 207.498 55.950, 207 55.369, 207 52.921 C 207 50.991, 207.509 50, 208.500 50 C 209.450 50, 210 49.043, 210 47.389 C 210 44.946, 210.226 44.820, 213.500 45.434 C 216.573 46.011, 217 45.841, 217 44.045 C 217 42.920, 216.377 42, 215.617 42 C 214.856 42, 213.998 41.100, 213.710 40 C 213.274 38.330, 212.346 38, 208.094 38 C 203.667 38, 203 38.262, 203 40 M 142 58.500 C 142 59.583, 140.889 60, 138 60 C 135.111 60, 134 60.417, 134 61.500 C 134 62.325, 133.325 63, 132.500 63 C 131.675 63, 131 63.862, 131 64.916 C 131 66.680, 130.041 66.859, 118.928 67.166 C 108.687 67.449, 106.708 67.766, 105.878 69.250 C 105.291 70.300, 103.721 71, 101.950 71 C 99.080 71, 99 71.135, 99 75.955 C 99 80.851, 99.043 80.917, 102.596 81.584 C 104.573 81.955, 109.102 82.025, 112.659 81.739 C 116.216 81.454, 119.998 81.448, 121.063 81.727 C 123.329 82.319, 123.706 86, 121.500 86 C 120.321 86, 120 87.389, 120 92.500 C 120 97.611, 120.321 99, 121.500 99 C 122.433 99, 123 99.944, 123 101.500 C 123 103.056, 122.433 104, 121.500 104 C 120.675 104, 120 104.675, 120 105.500 C 120 106.550, 118.941 107, 116.469 107 C 114.252 107, 112.723 106.441, 112.362 105.500 C 111.694 103.760, 106.350 103.449, 105.794 105.118 C 105.588 105.737, 102.196 106.468, 98.211 106.753 C 93.035 107.123, 91 107.654, 91 108.634 C 91 109.528, 89.791 110, 87.500 110 L 84 110 84 92.617 C 84 76.074, 84.097 75.208, 86 74.710 C 87.666 74.275, 88 73.346, 88 69.155 L 88 64.123 83.512 63.450 C 77.341 62.524, 76 63.242, 76 67.469 C 76 69.941, 75.550 71, 74.500 71 C 72.258 71, 72.258 102.778, 74.500 103.638 C 75.335 103.959, 76 105.445, 76 106.990 C 76 109.947, 74.163 110.959, 68.750 110.986 C 66.978 110.995, 66 111.534, 66 112.500 C 66 113.652, 64.722 114, 60.500 114 C 55.667 114, 55 114.242, 55 116 C 55 117.276, 54.333 118, 53.159 118 C 51.591 118, 51.334 118.778, 51.426 123.240 C 51.512 127.362, 51.904 128.550, 53.267 128.813 C 54.220 128.996, 55 129.789, 55 130.573 C 55 131.358, 55.900 132, 57 132 C 58.111 132, 59 131.333, 59 130.500 C 59 129.675, 59.675 129, 60.500 129 C 61.325 129, 62 128.140, 62 127.088 C 62 125.636, 62.964 125.013, 66 124.500 C 68.200 124.128, 70 123.414, 70 122.912 C 70 122.410, 71.350 122, 73 122 C 75.595 122, 76.006 122.371, 76.044 124.750 C 76.069 126.263, 76.329 135.713, 76.622 145.750 L 77.154 164 74.702 164 C 70.126 164, 66 165.245, 66 166.625 C 66 167.530, 64.803 168, 62.500 168 C 60.104 168, 59 168.459, 59 169.455 C 59 170.325, 57.595 171.173, 55.500 171.566 C 53.495 171.942, 52 172.816, 52 173.611 C 52 174.375, 51.100 175, 50 175 C 48.900 175, 48 175.655, 48 176.455 C 48 177.325, 46.595 178.173, 44.500 178.566 C 41.318 179.163, 41 179.530, 41 182.611 C 41 185.333, 41.393 186, 43 186 C 44.111 186, 45 186.667, 45 187.500 C 45 188.325, 45.675 189, 46.500 189 C 47.333 189, 48 189.889, 48 191 C 48 192.619, 48.667 193, 51.500 193 L 55 193 55 188.045 C 55 183.175, 55.059 183.080, 58.500 182.434 C 60.505 182.058, 62 181.184, 62 180.389 C 62 179.625, 62.900 179, 64 179 C 65.333 179, 66 178.333, 66 177 C 66 175.242, 66.667 175, 71.500 175 L 77 175 77 180.500 C 77 184.722, 77.348 186, 78.500 186 C 79.787 186, 80 189.056, 80 207.500 C 80 225.944, 79.787 229, 78.500 229 C 77.300 229, 77 230.500, 77 236.500 C 77 243.333, 77.178 244, 79 244 C 80.111 244, 81 244.667, 81 245.500 C 81 246.325, 81.675 247, 82.500 247 C 83.325 247, 84 246.325, 84 245.500 C 84 244.675, 84.617 244, 85.371 244 C 87.572 244, 88.185 234.128, 87.980 202 C 87.751 166.082, 87.665 168, 89.500 168 C 90.325 168, 91 167.283, 91 166.406 C 91 165.530, 91.900 164.577, 93 164.290 C 94.100 164.002, 95 163.144, 95 162.383 C 95 161.469, 96.187 161, 98.500 161 C 101.333 161, 102 160.619, 102 159 C 102 157.395, 102.667 157, 105.375 157 C 108.286 157, 108.828 156.608, 109.320 154.149 C 109.634 152.580, 109.638 150.330, 109.329 149.149 C 108.694 146.721, 106 146.196, 106 148.500 C 106 149.333, 105.111 150, 104 150 C 102.889 150, 102 150.667, 102 151.500 C 102 152.466, 101.022 153.005, 99.250 153.014 C 94.968 153.035, 92 154.101, 92 155.617 C 92 156.564, 90.739 157, 88 157 L 84 157 84 141 C 84 128.014, 84.262 125, 85.389 125 C 86.184 125, 87.058 123.505, 87.434 121.500 C 88.049 118.224, 88.335 118, 91.920 118 C 97.775 118, 102 116.900, 102 115.375 C 102 114.619, 102.675 114, 103.500 114 C 104.325 114, 105 114.619, 105 115.375 C 105 117.101, 109.373 118, 117.764 118 L 124.279 118 123.648 123.250 C 123.301 126.138, 123.013 130.863, 123.009 133.750 C 123.002 137.746, 122.642 139, 121.500 139 C 120.194 139, 120 143.667, 120 175 C 120 204.986, 119.769 211, 118.616 211 C 117.628 211, 117.120 212.786, 116.837 217.250 C 116.240 226.679, 116.948 233, 118.601 233 C 119.613 233, 120 234.382, 120 238 L 120 243 123.500 243 C 125.944 243, 127 242.548, 127 241.500 C 127 240.667, 127.889 240, 129 240 C 130.619 240, 131 239.333, 131 236.500 C 131 234.056, 131.452 233, 132.500 233 C 133.738 233, 134 231.167, 134 222.500 C 134 213.833, 133.738 212, 132.500 212 C 131.452 212, 131 213.056, 131 215.500 C 131 218.333, 130.619 219, 129 219 C 127.151 219, 127.001 218.338, 127.014 210.250 C 127.035 196.582, 126.734 197, 136.567 197 C 143.464 197, 145.069 196.698, 145.879 195.250 C 146.688 193.802, 148.610 193.440, 157.013 193.154 L 167.168 192.807 166.834 210.442 C 166.562 224.783, 166.220 228.249, 165 229.001 C 163.909 229.675, 163.405 232.229, 163.151 238.373 C 162.850 245.666, 162.543 246.886, 160.901 247.316 C 158.819 247.860, 158.150 253.357, 160.024 254.515 C 161.698 255.550, 167 253.958, 167 252.421 C 167 251.639, 167.637 251, 168.415 251 C 169.446 251, 170.020 248.968, 170.532 243.500 C 171.036 238.122, 171.626 236, 172.617 236 C 173.763 236, 174 230.867, 174 206 C 174 180.830, 173.773 176, 172.588 176 C 171.720 176, 170.915 174.459, 170.500 172 C 170.085 169.541, 169.280 168, 168.412 168 C 167.474 168, 167 166.864, 167 164.617 C 167 162.074, 166.503 161.103, 165 160.710 C 163.565 160.335, 163 159.346, 163 157.210 C 163 155.074, 162.435 154.086, 161 153.710 C 159.900 153.423, 159 152.470, 159 151.594 C 159 150.717, 158.325 150, 157.500 150 C 156.675 150, 156 149.345, 156 148.545 C 156 147.675, 154.595 146.827, 152.500 146.434 C 150.575 146.073, 149 145.205, 149 144.505 C 149 143.647, 146.854 143.096, 142.400 142.813 C 137.538 142.503, 135.549 141.945, 134.850 140.696 C 134.328 139.763, 133.248 139, 132.450 139 C 131.377 139, 131 137.702, 131 134 C 131 130.315, 131.379 129, 132.440 129 C 133.381 129, 133.987 127.703, 134.190 125.250 C 134.483 121.704, 134.704 121.483, 138.250 121.190 C 141.188 120.946, 142 120.459, 142 118.940 C 142 117.873, 142.675 117, 143.500 117 C 144.325 117, 145 116.325, 145 115.500 C 145 114.667, 145.889 114, 147 114 C 148.100 114, 149 113.377, 149 112.616 C 149 111.115, 161.044 109.291, 162.996 110.498 C 163.575 110.855, 165.388 110.854, 167.024 110.495 C 169.822 109.880, 170 109.553, 170 105.037 C 170 100.595, 169.793 100.192, 167.250 99.687 C 162.334 98.711, 149 100.144, 149 101.648 C 149 102.526, 147.774 103, 145.500 103 C 142.167 103, 142 102.833, 142 99.500 C 142 97.056, 142.452 96, 143.500 96 C 144.333 96, 145 95.111, 145 94 C 145 92.667, 145.667 92, 147 92 C 148.100 92, 149 91.377, 149 90.617 C 149 89.856, 149.900 88.998, 151 88.710 C 152.100 88.423, 153 87.470, 153 86.594 C 153 85.717, 153.675 85, 154.500 85 C 155.548 85, 156 83.944, 156 81.500 C 156 78.667, 156.381 78, 158 78 C 159.100 78, 160 77.361, 160 76.579 C 160 75.798, 161.350 74.862, 163 74.500 C 164.650 74.138, 166 73.202, 166 72.421 C 166 71.639, 166.900 71, 168 71 C 169.758 71, 170 70.333, 170 65.500 L 170 60 163 60 C 157.444 60, 156 60.310, 156 61.500 C 156 62.548, 154.944 63, 152.500 63 C 150.056 63, 149 62.548, 149 61.500 C 149 60.667, 148.111 60, 147 60 C 145.889 60, 145 59.333, 145 58.500 C 145 57.675, 144.325 57, 143.500 57 C 142.675 57, 142 57.675, 142 58.500 M 139.750 74.689 C 138.787 74.941, 138 75.789, 138 76.573 C 138 77.358, 137.345 78, 136.545 78 C 135.675 78, 134.827 79.405, 134.434 81.500 C 134.058 83.505, 133.184 85, 132.389 85 C 131.372 85, 131 86.474, 131 90.500 C 131 94.722, 131.348 96, 132.500 96 C 133.325 96, 134 95.283, 134 94.406 C 134 93.530, 134.900 92.577, 136 92.290 C 137.107 92, 138 90.926, 138 89.883 C 138 88.848, 138.639 88, 139.421 88 C 140.202 88, 141.138 86.650, 141.500 85 C 141.862 83.350, 142.798 82, 143.579 82 C 144.361 82, 145 81.100, 145 80 C 145 78.667, 145.667 78, 147 78 C 148.333 78, 149 77.333, 149 76 C 149 74.335, 148.372 74.019, 145.250 74.116 C 143.188 74.180, 140.713 74.438, 139.750 74.689 M 131 153.500 L 131 157 138 157 C 143.556 157, 145 156.690, 145 155.500 C 145 154.675, 144.283 154, 143.406 154 C 142.530 154, 141.577 153.100, 141.290 152 C 140.857 150.344, 139.926 150, 135.883 150 L 131 150 131 153.500 M 142 170 L 142 175 138 175 C 135.111 175, 134 174.583, 134 173.500 C 134 171.354, 131.327 171.642, 130.749 173.851 C 130.483 174.870, 130.488 178.020, 130.760 180.851 L 131.254 186 145.627 186 C 157.736 186, 160 185.764, 160 184.500 C 160 183.675, 160.675 183, 161.500 183 C 162.583 183, 163 181.889, 163 179 C 163 176.111, 162.583 175, 161.500 175 C 160.675 175, 160 174.325, 160 173.500 C 160 172.667, 159.111 172, 158 172 C 156.889 172, 156 172.667, 156 173.500 C 156 174.548, 154.944 175, 152.500 175 L 149 175 149 170 L 149 165 145.500 165 L 142 165 142 170 M 203 173.440 C 203 174.381, 201.704 174.987, 199.258 175.190 C 195.084 175.536, 194.383 176.899, 195.453 182.600 C 195.831 184.616, 196.683 186, 197.545 186 C 198.345 186, 199 186.675, 199 187.500 C 199 188.325, 199.563 189.006, 200.250 189.014 C 200.938 189.021, 202.512 189.299, 203.750 189.630 C 205.565 190.117, 206 189.824, 206 188.117 C 206 186.218, 206.566 186, 211.500 186 C 215.496 186, 217 185.625, 217 184.627 C 217 183.705, 218.691 183.092, 222.149 182.760 C 229.097 182.092, 230.773 182.690, 231.522 186.102 C 232.045 188.480, 232.675 189, 235.034 189 C 237.528 189, 237.996 188.536, 238.566 185.500 C 238.942 183.495, 239.816 182, 240.611 182 C 241.532 182, 242 180.820, 242 178.500 C 242 175.278, 241.762 175, 239 175 C 237 175, 236 174.500, 236 173.500 C 236 172.227, 233.500 172, 219.500 172 C 205.807 172, 203 172.245, 203 173.440 M 213.750 189.709 C 211.344 189.973, 210 190.637, 210 191.560 C 210 192.541, 208.875 193, 206.469 193 C 204.281 193, 202.722 193.560, 202.372 194.473 C 202.061 195.283, 200.275 196.233, 198.403 196.584 C 196.473 196.946, 195 197.823, 195 198.611 C 195 199.375, 194.325 200, 193.500 200 C 192.417 200, 192 201.111, 192 204 L 192 208 196 208 C 198.889 208, 200 208.417, 200 209.500 C 200 210.325, 200.450 211, 201 211 C 201.550 211, 202 210.325, 202 209.500 C 202 208.667, 202.889 208, 204 208 C 205.333 208, 206 207.333, 206 206 C 206 204.333, 206.667 204, 210 204 C 212.739 204, 214 203.564, 214 202.617 C 214 201.331, 216.840 200.045, 219.750 200.014 C 220.515 200.005, 221 201.359, 221 203.500 C 221 205.626, 221.491 207.005, 222.250 207.014 C 222.938 207.021, 224.512 207.299, 225.750 207.630 C 227.780 208.174, 228 207.879, 228 204.617 C 228 202.069, 228.443 201, 229.500 201 C 230.583 201, 231 199.889, 231 197 C 231 193.222, 230.833 193, 228 193 C 226 193, 225 192.500, 225 191.500 C 225 190.675, 224.213 189.994, 223.250 189.986 C 222.287 189.979, 220.600 189.821, 219.500 189.635 C 218.400 189.450, 215.813 189.483, 213.750 189.709 M 250 205.375 C 250 206.948, 245.741 208, 239.375 208 C 236.153 208, 235 208.395, 235 209.500 C 235 210.548, 233.944 211, 231.500 211 C 229.187 211, 228 211.469, 228 212.383 C 228 214.241, 224.848 214.970, 216.750 214.986 C 211.423 214.997, 210 215.316, 210 216.500 C 210 217.692, 208.545 218, 202.906 218 C 196.654 218, 195.751 218.237, 195.290 220 C 195.002 221.100, 194.144 222, 193.383 222 C 192.479 222, 192 223.168, 192 225.375 C 192 229.119, 193.529 229.775, 201.500 229.452 C 203.700 229.363, 207.412 229.225, 209.750 229.145 C 212.632 229.047, 214 228.555, 214 227.617 C 214 226.101, 216.968 225.035, 221.250 225.014 C 223.022 225.005, 224 224.466, 224 223.500 C 224 222.417, 225.111 222, 228 222 C 230.722 222, 232 221.562, 232 220.629 C 232 219.739, 233.754 219.025, 237 218.594 C 240.424 218.140, 242 217.469, 242 216.466 C 242 215.422, 243.153 215, 246 215 C 248.739 215, 250 214.564, 250 213.617 C 250 212.101, 252.968 211.035, 257.250 211.014 C 259.329 211.003, 260 210.512, 260 209 C 260 207.889, 259.333 207, 258.500 207 C 257.675 207, 257 206.325, 257 205.500 C 257 204.452, 255.944 204, 253.500 204 C 251.197 204, 250 204.470, 250 205.375" stroke="none" fill="black" fill-rule="evenodd"/>
</svg>