<svg xmlns="http://www.w3.org/2000/svg" width="300" height="300" viewBox="0 0 300 300" version="1.1">
	<path d="M 131 25.383 C 131 26.144, 130.100 27.002, 129 27.290 C 127.468 27.690, 127 28.654, 127 31.406 C 127 33.806, 126.539 35, 125.611 35 C 124.816 35, 123.942 36.495, 123.566 38.500 C 123.173 40.595, 122.325 42, 121.455 42 C 120.358 42, 120 43.354, 120 47.500 C 120 52.333, 119.758 53, 118 53 C 116.381 53, 116 53.667, 116 56.500 C 116 58.797, 115.529 60, 114.630 60 C 113.742 60, 113.076 61.635, 112.736 64.651 C 112.420 67.449, 111.572 69.660, 110.606 70.201 C 108.739 71.246, 108.305 80.452, 110.071 81.544 C 111.960 82.711, 120 81.007, 120 79.439 C 120 78.253, 122.552 78, 134.500 78 C 147.101 78, 149 78.209, 149 79.594 C 149 80.470, 148.100 81.423, 147 81.710 C 145.583 82.081, 145 83.074, 145 85.117 C 145 87.088, 144.496 88, 143.406 88 C 142.530 88, 141.577 88.900, 141.290 90 C 141.002 91.100, 140.144 92, 139.383 92 C 138.623 92, 138 92.900, 138 94 C 138 95.100, 137.345 96, 136.545 96 C 135.675 96, 134.827 97.405, 134.434 99.500 C 134.058 101.505, 133.184 103, 132.389 103 C 131.625 103, 131 103.900, 131 105 C 131 106.333, 130.333 107, 129 107 C 127.667 107, 127 107.667, 127 109 C 127 110.100, 126.361 111, 125.579 111 C 124.798 111, 123.862 112.350, 123.500 114 C 123.138 115.650, 122.202 117, 121.421 117 C 120.572 117, 120 118.007, 120 119.500 C 120 121.056, 119.433 122, 118.500 122 C 117.675 122, 117 122.675, 117 123.500 C 117 124.333, 116.111 125, 115 125 C 113.381 125, 113 125.667, 113 128.500 C 113 131.333, 112.619 132, 111 132 C 109.667 132, 109 132.667, 109 134 C 109 135.333, 108.333 136, 107 136 C 105.889 136, 105 136.667, 105 137.500 C 105 138.487, 104.013 139, 102.117 139 C 100.074 139, 99.081 139.583, 98.710 141 C 98.310 142.532, 97.346 143, 94.594 143 C 92.066 143, 91 143.445, 91 144.500 C 91 145.325, 90.325 146, 89.500 146 C 88.229 146, 88 143.556, 88 130 C 88 116.444, 88.229 114, 89.500 114 C 90.579 114, 91 112.897, 91 110.071 C 91 104.202, 92.797 103, 101.571 103 C 107.230 103, 109 102.670, 109 101.617 C 109 100.856, 109.900 99.998, 111 99.710 C 112.435 99.335, 113 98.346, 113 96.210 C 113 92.809, 111.318 92.027, 104 92.027 C 98.081 92.027, 95 92.914, 95 94.617 C 95 95.531, 93.813 96, 91.500 96 L 88 96 88 85.500 C 88 76.833, 88.262 75, 89.500 75 C 90.583 75, 91 73.889, 91 71 C 91 68.111, 90.583 67, 89.500 67 C 88.534 67, 87.995 66.022, 87.986 64.250 C 87.965 59.968, 86.899 57, 85.383 57 C 84.623 57, 84 56.100, 84 55 C 84 53.900, 83.377 53, 82.617 53 C 81.856 53, 80.998 53.900, 80.710 55 C 80.423 56.100, 79.470 57, 78.594 57 C 77.190 57, 77 59.324, 77 76.500 L 77 96 68 96 C 60.667 96, 59 96.278, 59 97.500 C 59 98.412, 58.069 99, 56.625 99 C 52.120 99, 48 100.254, 48 101.625 C 48 102.381, 47.100 103, 46 103 C 44.279 103, 44.002 103.662, 44.014 107.750 C 44.021 110.362, 44.299 113.513, 44.630 114.750 C 45.301 117.253, 48 117.854, 48 115.500 C 48 114.675, 48.623 114, 49.383 114 C 50.144 114, 51.002 113.100, 51.290 112 C 51.577 110.900, 52.530 110, 53.406 110 C 54.283 110, 55 109.325, 55 108.500 C 55 107.247, 57.050 107, 67.454 107 L 79.909 107 80.204 123.792 C 80.603 146.422, 80.199 153, 78.411 153 C 77.635 153, 77 153.900, 77 155 C 77 156.333, 76.333 157, 75 157 C 73.667 157, 73 157.667, 73 159 C 73 160.619, 72.333 161, 69.500 161 C 67.056 161, 66 161.452, 66 162.500 C 66 163.325, 65.283 164, 64.406 164 C 63.530 164, 62.577 164.900, 62.290 166 C 62 167.107, 60.926 168, 59.883 168 C 58.848 168, 58 168.675, 58 169.500 C 58 170.325, 57.325 171, 56.500 171 C 55.667 171, 55 171.889, 55 173 C 55 174.100, 54.377 175, 53.617 175 C 52.856 175, 51.998 175.900, 51.710 177 C 51.423 178.100, 50.470 179, 49.594 179 C 48.290 179, 48 180.252, 48 185.889 L 48 192.777 51.644 193.461 C 53.648 193.837, 55.930 194.787, 56.715 195.572 C 57.500 196.358, 59.911 197, 62.071 197 C 65.333 197, 66 196.661, 66 195 C 66 193.900, 65.377 193, 64.617 193 C 63.856 193, 62.998 192.100, 62.710 191 C 62.423 189.900, 61.470 189, 60.594 189 C 58.096 189, 58.459 183.375, 61 182.710 C 62.456 182.329, 63 181.346, 63 179.094 C 63 177.010, 63.490 176, 64.500 176 C 65.325 176, 66 175.150, 66 174.111 C 66 172.745, 66.967 172.041, 69.500 171.566 C 71.595 171.173, 73 170.325, 73 169.455 C 73 168.655, 73.900 168, 75 168 C 76.357 168, 77 167.333, 77 165.927 C 77 164.490, 77.538 163.957, 78.750 164.190 C 79.713 164.376, 80.463 165.309, 80.417 166.264 C 80.371 167.219, 80.258 174.300, 80.167 182 C 80.027 193.704, 79.754 196, 78.500 196 C 77.667 196, 77 196.889, 77 198 C 77 199.333, 76.333 200, 75 200 C 73.333 200, 73 200.667, 73 204 C 73 207.333, 73.333 208, 75 208 C 76.111 208, 77 208.667, 77 209.500 C 77 210.333, 77.889 211, 79 211 C 80.111 211, 81 210.333, 81 209.500 C 81 208.675, 81.675 208, 82.500 208 C 83.583 208, 84 206.889, 84 204 C 84 201.293, 84.440 200, 85.361 200 C 87.170 200, 87.980 192.839, 87.991 176.750 C 87.999 166.087, 88.246 164, 89.500 164 C 90.548 164, 91 162.944, 91 160.500 C 91 158.187, 91.469 157, 92.383 157 C 93.144 157, 94.002 156.100, 94.290 155 C 94.577 153.900, 95.530 153, 96.406 153 C 97.283 153, 98 152.325, 98 151.500 C 98 150.417, 99.111 150, 102 150 C 104.746 150, 106 149.565, 106 148.611 C 106 147.816, 107.495 146.942, 109.500 146.566 C 111.595 146.173, 113 145.325, 113 144.455 C 113 143.538, 114.017 142.995, 115.750 142.986 C 120.032 142.965, 123 141.899, 123 140.383 C 123 139.623, 122.325 139, 121.500 139 C 120.371 139, 120 137.791, 120 134.117 C 120 130.074, 120.344 129.143, 122 128.710 C 123.100 128.423, 124 127.470, 124 126.594 C 124 125.717, 124.675 125, 125.500 125 C 126.333 125, 127 124.111, 127 123 C 127 121.889, 127.667 121, 128.500 121 C 129.325 121, 130 120.283, 130 119.406 C 130 118.530, 130.874 117.584, 131.943 117.305 C 133.073 117.009, 134.152 115.584, 134.522 113.898 C 134.872 112.304, 135.798 111, 136.579 111 C 137.783 111, 138 116.963, 138 149.955 L 138 188.909 141.500 189.566 C 144.040 190.043, 145 190.743, 145 192.121 C 145 193.165, 145.900 194.790, 147 195.732 C 148.100 196.674, 149 198.019, 149 198.722 C 149 199.425, 149.675 200, 150.500 200 C 151.325 200, 152 199.325, 152 198.500 C 152 197.350, 153.272 197, 157.450 197 C 161.415 197, 163.146 196.562, 163.799 195.394 C 164.340 194.428, 166.551 193.580, 169.349 193.264 L 174 192.740 174 196.370 L 174 200 168.500 200 C 163.667 200, 163 200.242, 163 202 C 163 203.810, 162.333 204, 156 204 C 150.638 204, 149 204.330, 149 205.412 C 149 206.280, 147.459 207.085, 145 207.500 C 142.541 207.915, 141 208.720, 141 209.588 C 141 210.614, 139.646 211, 136.050 211 C 132.384 211, 130.846 211.452, 130.125 212.742 C 128.967 214.811, 128.389 214.400, 127.504 210.874 C 126.904 208.483, 127.162 208.192, 130.423 207.580 C 133.706 206.965, 134 206.625, 134 203.455 L 134 200 127 200 L 120 200 120 205.500 C 120 209.722, 119.652 211, 118.500 211 C 117.452 211, 117 212.056, 117 214.500 C 117 216.944, 117.452 218, 118.500 218 C 119.742 218, 120 219.889, 120 229 C 120 237.598, 120.296 240, 121.358 240 C 123.043 240, 124 248.199, 124 262.647 C 124 271.183, 124.263 273, 125.500 273 C 126.325 273, 127 273.675, 127 274.500 C 127 275.652, 128.278 276, 132.500 276 L 138 276 138 270.500 L 138 265 134.500 265 L 131 265 131 249.050 C 131 234.928, 130.800 232.988, 129.258 232.125 C 126.819 230.760, 128.146 229.851, 133.451 229.253 C 137.848 228.757, 138 228.628, 138 225.370 C 138 222.667, 138.396 222, 140 222 C 141.100 222, 142 221.345, 142 220.545 C 142 219.675, 143.405 218.827, 145.500 218.434 C 147.505 218.058, 149 217.184, 149 216.389 C 149 215.336, 150.694 215, 156 215 C 162.333 215, 163 214.810, 163 213 C 163 211.381, 163.667 211, 166.500 211 C 168.944 211, 170 210.548, 170 209.500 C 170 208.588, 170.931 208, 172.375 208 C 176.880 208, 181 206.746, 181 205.375 C 181 204.310, 183.030 204, 190 204 C 197.333 204, 199 203.722, 199 202.500 C 199 201.435, 200.087 200.997, 202.750 200.991 C 210.378 200.974, 217 199.751, 217 198.361 C 217 197.283, 219.703 197, 230 197 C 240.889 197, 243 197.244, 243 198.500 C 243 199.325, 243.675 200, 244.500 200 C 245.548 200, 246 201.056, 246 203.500 C 246 205.823, 245.532 207, 244.608 207 C 243.496 207, 243.070 210.721, 242.485 225.549 C 242.082 235.750, 242.044 246.668, 242.399 249.810 C 242.755 252.952, 242.754 256.980, 242.398 258.762 C 241.752 261.992, 241.734 262, 235.625 261.986 C 228.131 261.970, 225 261.203, 225 259.383 C 225 258.436, 223.739 258, 221 258 C 218.261 258, 217 257.564, 217 256.617 C 217 255.331, 214.160 254.045, 211.250 254.014 C 210.563 254.006, 210 254.900, 210 256 C 210 257.619, 210.667 258, 213.500 258 C 216.333 258, 217 258.381, 217 260 C 217 261.111, 217.667 262, 218.500 262 C 219.325 262, 220 262.675, 220 263.500 C 220 264.433, 220.944 265, 222.500 265 C 223.962 265, 225 265.574, 225 266.383 C 225 268.384, 228.234 268.971, 239.344 268.986 C 248.352 268.999, 249.232 268.830, 249.710 267 C 249.998 265.900, 250.856 265, 251.617 265 C 252.762 265, 253.001 260.057, 253.009 236.250 C 253.018 204.630, 253.530 197, 255.639 197 C 256.519 197, 257 195.803, 257 193.617 C 257 189.302, 256.025 189.031, 240.406 189.014 C 221.483 188.992, 207 190.092, 207 191.549 C 207 192.418, 204.421 192.901, 198.463 193.147 C 193.183 193.366, 189.640 193.964, 189.174 194.718 C 188.105 196.449, 181.830 196.818, 181.253 195.184 C 180.993 194.446, 181.714 193.626, 182.895 193.317 C 184.053 193.014, 185 192.144, 185 191.383 C 185 190.308, 187.004 190, 194 190 C 202.333 190, 203 189.852, 203 188 C 203 186.889, 203.667 186, 204.500 186 C 205.548 186, 206 184.944, 206 182.500 C 206 180.056, 205.548 179, 204.500 179 C 203.667 179, 203 178.111, 203 177 C 203 175.386, 202.333 175, 199.550 175 C 197.397 175, 195.756 175.614, 195.185 176.634 C 194.594 177.690, 192.456 178.442, 189.135 178.761 C 184.192 179.236, 184 179.161, 184 176.752 C 184 172.130, 185.239 168, 186.625 168 C 187.381 168, 188 168.927, 188 170.060 C 188 171.830, 188.530 172.077, 191.750 171.810 C 195.071 171.535, 195.538 171.164, 195.835 168.559 C 196.019 166.941, 195.879 163.679, 195.524 161.309 L 194.877 157 189.939 157 L 185 157 185 151.500 C 185 147.278, 185.348 146, 186.500 146 C 187.633 146, 188 144.778, 188 141 L 188 136 197 136 L 206 136 206 132 C 206 128.095, 205.917 128, 202.500 128 C 200.056 128, 199 127.548, 199 126.500 C 199 125.310, 197.556 125, 192 125 C 185.667 125, 185 124.810, 185 123 C 185 121.900, 185.625 121, 186.389 121 C 187.184 121, 188.058 119.505, 188.434 117.500 C 189.081 114.050, 192 112.413, 192 115.500 C 192 116.333, 192.889 117, 194 117 C 195.111 117, 196 116.333, 196 115.500 C 196 114.675, 196.675 114, 197.500 114 C 198.544 114, 199 112.950, 199 110.550 C 199 108.308, 199.613 106.752, 200.750 106.107 C 202.401 105.172, 202.394 105.037, 200.618 103.724 C 199.021 102.544, 198.805 101.369, 199.195 95.974 C 199.455 92.380, 200.165 89.445, 200.828 89.224 C 202.495 88.668, 202.280 86.322, 200.500 85.638 C 199.675 85.322, 199 84.394, 199 83.577 C 199 82.670, 197.635 81.835, 195.500 81.434 C 193.495 81.058, 192 80.184, 192 79.389 C 192 78.625, 191.100 78, 190 78 C 188.900 78, 188 78.617, 188 79.371 C 188 80.379, 185.615 80.929, 179 81.446 C 172.207 81.978, 170 82.500, 170 83.575 C 170 84.360, 169.049 85, 167.883 85 C 166.176 85, 165.883 84.565, 166.370 82.750 C 166.701 81.513, 166.979 79.315, 166.986 77.867 C 166.996 76.081, 167.644 75.065, 169 74.710 C 170.100 74.423, 171 73.470, 171 72.594 C 171 71.348, 172.092 71, 176 71 C 180.333 71, 181 70.733, 181 69 C 181 67.667, 181.667 67, 183 67 C 184.111 67, 185 66.333, 185 65.500 C 185 64.452, 186.056 64, 188.500 64 C 191.917 64, 192 63.905, 192 60 C 192 56.095, 192.083 56, 195.500 56 L 199 56 199.015 61.750 C 199.033 68.432, 200.403 71.574, 202.068 68.750 C 202.635 67.787, 203.700 67, 204.433 67 C 206.242 67, 206.654 64.005, 206.185 54.250 C 205.887 48.052, 205.442 46, 204.394 46 C 203.477 46, 203 44.843, 203 42.617 C 203 40.074, 202.503 39.103, 201 38.710 C 199.468 38.310, 199 37.346, 199 34.594 C 199 32.066, 198.555 31, 197.500 31 C 196.675 31, 196 30.352, 196 29.559 C 196 27.470, 194.620 26.926, 191.103 27.629 L 188 28.250 188 39.125 C 188 48.125, 187.741 50, 186.500 50 C 185.500 50, 185 51, 185 53 C 185 55.078, 184.510 56, 183.406 56 C 182.530 56, 181.577 56.900, 181.290 58 C 180.897 59.503, 179.926 60, 177.383 60 C 174.667 60, 174 59.606, 174 58 C 174 56.900, 173.438 56.006, 172.750 56.014 C 169.840 56.045, 167 57.331, 167 58.617 C 167 60.883, 164.283 60.184, 163.630 57.750 C 162.395 53.141, 162.940 46.133, 164.606 45.201 C 165.572 44.660, 166.420 42.449, 166.736 39.651 C 167.244 35.140, 167.362 35, 170.630 35 C 173.333 35, 174 34.604, 174 33 C 174 31.667, 173.333 31, 172 31 C 170.900 31, 170 30.361, 170 29.579 C 170 28.798, 168.650 27.862, 167 27.500 C 165.350 27.138, 164 26.202, 164 25.421 C 164 24.430, 162.789 24, 160 24 L 156 24 156 45.500 L 156 67 147 67 C 140.076 67, 138 67.314, 138 68.361 C 138 69.880, 129.683 71.253, 126.122 70.322 C 124.325 69.852, 124 69.020, 124 64.883 C 124 61.209, 124.371 60, 125.500 60 C 126.584 60, 127 58.888, 127 55.990 C 127 53.218, 127.617 51.452, 129 50.268 C 130.100 49.326, 131 47.981, 131 47.278 C 131 46.575, 131.625 46, 132.389 46 C 133.184 46, 134.058 44.505, 134.434 42.500 C 134.827 40.405, 135.675 39, 136.545 39 C 137.576 39, 138 37.834, 138 35 C 138 32.166, 137.576 31, 136.545 31 C 135.675 31, 134.827 29.595, 134.434 27.500 C 133.806 24.151, 131 22.422, 131 25.383 M 156 90.500 C 156 91.325, 155.283 92, 154.406 92 C 153.530 92, 152.577 92.900, 152.290 94 C 152.002 95.100, 151.144 96, 150.383 96 C 149.280 96, 148.990 98.584, 148.953 108.750 C 148.751 163.068, 148.460 174.346, 147.250 174.750 C 146.563 174.979, 146 176.029, 146 177.083 C 146 178.540, 146.709 179, 148.955 179 C 151.540 179, 151.992 179.438, 152.566 182.500 L 153.223 186 159.495 186 C 164.926 186, 165.837 185.732, 166.290 184 C 166.690 182.468, 167.654 182, 170.406 182 C 172.934 182, 174 181.555, 174 180.500 C 174 179.667, 173.111 179, 172 179 C 170.900 179, 170 178.345, 170 177.545 C 170 176.675, 168.595 175.827, 166.500 175.434 C 163.318 174.837, 163 174.470, 163 171.389 C 163 168.667, 163.393 168, 165 168 C 166.100 168, 167 167.345, 167 166.545 C 167 165.675, 168.405 164.827, 170.500 164.434 L 174 163.777 174 155.389 C 174 148.599, 174.286 147, 175.500 147 C 176.590 147, 177 145.877, 177 142.892 C 177 138.910, 176.915 138.804, 174.250 139.471 C 172.738 139.850, 171.140 140.798, 170.700 141.580 C 170.251 142.378, 168.389 143, 166.450 143 C 164.050 143, 163 143.456, 163 144.500 C 163 145.548, 161.944 146, 159.500 146 C 157.056 146, 156 145.548, 156 144.500 C 156 143.675, 155.325 143, 154.500 143 C 153.452 143, 153 141.944, 153 139.500 C 153 137.056, 153.452 136, 154.500 136 C 155.333 136, 156 135.111, 156 134 C 156 132.190, 156.667 132, 163 132 C 169.333 132, 170 131.810, 170 130 C 170 128.333, 170.667 128, 174 128 L 178 128 178 122.125 C 178 112.528, 177.191 109.998, 174.125 110.014 C 169.959 110.035, 167 111.117, 167 112.617 C 167 113.377, 166.100 114, 165 114 C 163.381 114, 163 114.667, 163 117.500 C 163 120.833, 162.833 121, 159.500 121 C 157.187 121, 156 120.531, 156 119.617 C 156 118.856, 155.100 117.998, 154 117.710 C 152.330 117.274, 152 116.346, 152 112.094 C 152 107.667, 152.262 107, 154 107 C 155.333 107, 156 106.333, 156 105 C 156 103.381, 156.667 103, 159.500 103 C 162.333 103, 163 102.619, 163 101 C 163 99.889, 162.333 99, 161.500 99 C 160.675 99, 160 98.325, 160 97.500 C 160 96.667, 159.111 96, 158 96 C 156.889 96, 156 95.333, 156 94.500 C 156 93.675, 156.675 93, 157.500 93 C 158.333 93, 159 92.111, 159 91 C 159 89.889, 158.333 89, 157.500 89 C 156.675 89, 156 89.675, 156 90.500 M 178 90.500 C 178 91.333, 177.111 92, 176 92 C 174.667 92, 174 92.667, 174 94 C 174 95.111, 173.333 96, 172.500 96 C 171.675 96, 171 96.675, 171 97.500 C 171 98.500, 172 99, 174 99 C 176 99, 177 98.500, 177 97.500 C 177 96.300, 178.500 96, 184.500 96 L 192 96 192 92.500 L 192 89 185 89 C 179.444 89, 178 89.310, 178 90.500 M 189 216.594 C 189 217.470, 188.100 218.423, 187 218.710 C 185.900 218.998, 185 219.856, 185 220.617 C 185 221.377, 184.100 222, 183 222 C 181.667 222, 181 221.333, 181 220 C 181 218.482, 180.338 218.003, 178.250 218.014 C 173.968 218.035, 171 219.101, 171 220.617 C 171 221.377, 170.152 222, 169.117 222 C 168.074 222, 167 222.893, 166.710 224 C 166.423 225.100, 165.470 226, 164.594 226 C 163.717 226, 163 226.675, 163 227.500 C 163 228.325, 162.377 229, 161.617 229 C 160.856 229, 159.998 229.900, 159.710 231 C 159.423 232.100, 158.470 233, 157.594 233 C 156.667 233, 156 233.837, 156 235 C 156 236.100, 155.345 237, 154.545 237 C 153.675 237, 152.827 238.405, 152.434 240.500 C 152.058 242.505, 151.184 244, 150.389 244 C 149.525 244, 149 245.090, 149 246.883 C 149 249.028, 149.576 249.921, 151.250 250.370 C 155.007 251.376, 156 251.090, 156 249 C 156 247.667, 156.667 247, 158 247 C 159.100 247, 160 246.377, 160 245.617 C 160 244.856, 160.900 243.998, 162 243.710 C 163.100 243.423, 164 242.470, 164 241.594 C 164 240.717, 164.675 240, 165.500 240 C 166.325 240, 167 239.325, 167 238.500 C 167 237.675, 167.675 237, 168.500 237 C 169.333 237, 170 236.111, 170 235 C 170 233.667, 170.667 233, 172 233 C 173.333 233, 174 232.333, 174 231 C 174 229.178, 174.667 229, 181.500 229 C 187.500 229, 189 228.700, 189 227.500 C 189 226.367, 190.222 226, 194 226 C 197.600 226, 199 226.389, 199 227.389 C 199 228.184, 200.495 229.058, 202.500 229.434 C 204.595 229.827, 206 230.675, 206 231.545 C 206 232.541, 207.104 233, 209.500 233 C 211.848 233, 213 233.465, 213 234.412 C 213 235.280, 214.541 236.085, 217 236.500 C 221.150 237.201, 222.749 240, 219 240 C 217.900 240, 217 240.623, 217 241.383 C 217 242.144, 216.100 243.002, 215 243.290 C 212.988 243.816, 212.263 246.427, 213.856 247.411 C 215.588 248.482, 225 246.750, 225 245.361 C 225 244.612, 225.675 244, 226.500 244 C 227.690 244, 228 242.556, 228 237 C 228 231.262, 227.713 230, 226.406 230 C 225.530 230, 224.580 229.111, 224.296 228.025 C 223.960 226.739, 222.596 225.827, 220.390 225.413 C 218.469 225.053, 217 224.175, 217 223.389 C 217 222.393, 215.617 222, 212.117 222 C 208.074 222, 207.143 221.656, 206.710 220 C 206.329 218.544, 205.346 218, 203.094 218 C 201.010 218, 200 217.510, 200 216.500 C 200 215.348, 198.722 215, 194.500 215 C 190.134 215, 189 215.329, 189 216.594 M 174 238.500 C 174 239.333, 173.111 240, 172 240 C 170.889 240, 170 240.667, 170 241.500 C 170 242.325, 169.325 243, 168.500 243 C 167.300 243, 167 244.500, 167 250.500 C 167 257.333, 167.178 258, 169 258 C 170.333 258, 171 258.667, 171 260 C 171 261.111, 171.667 262, 172.500 262 C 173.361 262, 174 262.902, 174 264.117 C 174 265.824, 174.435 266.117, 176.250 265.630 C 177.488 265.299, 179.287 265.021, 180.250 265.014 C 181.213 265.006, 182 264.325, 182 263.500 C 182 262.675, 182.675 262, 183.500 262 C 184.333 262, 185 261.111, 185 260 C 185 258.889, 185.667 258, 186.500 258 C 187.652 258, 188 259.278, 188 263.500 L 188 269 201 269 C 213.333 269, 214 268.897, 214 267 C 214 265.667, 213.333 265, 212 265 C 210.900 265, 210 264.375, 210 263.611 C 210 262.816, 208.505 261.942, 206.500 261.566 L 203 260.909 203 253.955 L 203 247 192 247 C 181.667 247, 181 247.121, 181 249 C 181 250.111, 180.333 251, 179.500 251 C 178.452 251, 178 249.944, 178 247.500 L 178 244 183 244 L 188 244 188 240.500 C 188 238.056, 187.548 237, 186.500 237 C 185.675 237, 185 237.675, 185 238.500 C 185 239.333, 184.111 240, 183 240 C 181.889 240, 181 239.333, 181 238.500 C 181 237.452, 179.944 237, 177.500 237 C 175.056 237, 174 237.452, 174 238.500" stroke="none" fill="black" fill-rule="evenodd"/>
</svg>