<svg xmlns="http://www.w3.org/2000/svg" width="300" height="300" viewBox="0 0 300 300" version="1.1">
	<path d="M 158 49.594 C 158 50.470, 157.147 51.410, 156.104 51.683 C 154.656 52.062, 154.048 53.457, 153.532 57.589 C 153.069 61.295, 152.406 63, 151.428 63 C 150.327 63, 150 64.601, 150 70 C 150 75.293, 149.663 77, 148.617 77 C 146.897 77, 146.031 80.077, 146.014 86.250 C 146.003 89.799, 145.621 91, 144.500 91 C 143.348 91, 143 92.278, 143 96.500 L 143 102 139.611 102 C 136.530 102, 136.163 101.682, 135.566 98.500 C 134.966 95.302, 134.611 95, 131.455 95 C 128.667 95, 128 94.614, 128 93 C 128 91.369, 127.333 91, 124.383 91 C 121.121 91, 120.826 90.780, 121.370 88.750 C 121.701 87.513, 121.979 85.938, 121.986 85.250 C 121.994 84.563, 122.675 84, 123.500 84 C 124.690 84, 125 82.556, 125 77 C 125 71.727, 125.339 70, 126.375 70 C 128.747 70, 130.167 56.839, 127.943 55.465 C 125.624 54.032, 121.947 56.017, 121.345 59.027 C 121.018 60.662, 120.189 62, 119.504 62 C 118.724 62, 118.005 64.241, 117.580 68 C 117.097 72.263, 116.481 74, 115.450 74 C 114.297 74, 114 75.740, 114 82.500 C 114 89.045, 113.684 91, 112.625 91 C 111.254 91, 110 95.120, 110 99.625 C 110 101.069, 109.412 102, 108.500 102 C 107.300 102, 107 103.500, 107 109.500 C 107 117.804, 107.136 117.923, 114.843 116.381 L 117.936 115.763 117.492 108.881 L 117.049 102 120.408 102 C 122.926 102, 123.898 102.501, 124.290 104 C 124.603 105.197, 125.654 106, 126.906 106 C 128.101 106, 129 106.644, 129 107.500 C 129 108.548, 130.056 109, 132.500 109 C 135.333 109, 136 109.381, 136 111 C 136 112.111, 136.667 113, 137.500 113 C 138.653 113, 139 114.284, 139 118.560 L 139 124.121 142.750 123.810 L 146.500 123.500 146.802 118.250 C 147.020 114.473, 147.511 113, 148.552 113 C 149.687 113, 150 111.380, 150 105.500 L 150 98 153.500 98 C 156.333 98, 157 98.381, 157 100 C 157 101.333, 157.667 102, 159 102 C 160.100 102, 161 102.655, 161 103.455 C 161 104.325, 162.405 105.173, 164.500 105.566 C 166.505 105.942, 168 106.816, 168 107.611 C 168 108.375, 168.655 109, 169.455 109 C 170.318 109, 171.169 110.386, 171.549 112.408 C 171.987 114.744, 172.866 115.998, 174.344 116.394 C 178.714 117.567, 179 117.235, 179 111 C 179 106.482, 178.649 105, 177.579 105 C 176.798 105, 175.866 103.664, 175.507 102.032 C 174.980 99.634, 174.196 98.940, 171.428 98.420 C 169.478 98.055, 168 97.178, 168 96.389 C 168 95.625, 167.375 95, 166.611 95 C 165.822 95, 164.945 93.522, 164.580 91.572 C 164.067 88.838, 163.357 88.018, 161.070 87.515 C 157.686 86.772, 157.033 84.958, 157.014 76.250 C 157.001 70.662, 157.212 70, 159 70 C 160.758 70, 161 69.333, 161 64.500 C 161 60.484, 161.373 59, 162.383 59 C 163.144 59, 164.002 58.100, 164.290 57 C 164.577 55.900, 165.530 55, 166.406 55 C 167.561 55, 168 54.036, 168 51.500 L 168 48 163 48 C 159.092 48, 158 48.348, 158 49.594 M 251 64.500 C 251 65.333, 250.111 66, 249 66 C 247.242 66, 247 66.667, 247 71.500 L 247 77 254 77 C 259.399 77, 261 77.327, 261 78.428 C 261 79.409, 262.722 80.071, 266.500 80.543 C 270.188 81.004, 272 81.687, 272 82.615 C 272 83.564, 273.259 84, 276 84 C 280.141 84, 280.505 83.487, 279.370 79.250 C 278.895 77.479, 278.047 77, 275.383 77 C 272.667 77, 272 76.606, 272 75 C 272 73.381, 271.333 73, 268.500 73 C 266.187 73, 265 72.531, 265 71.617 C 265 70.856, 264.100 69.998, 263 69.710 C 261.900 69.423, 261 68.470, 261 67.594 C 261 66.439, 260.036 66, 257.500 66 C 255.056 66, 254 65.548, 254 64.500 C 254 63.675, 253.325 63, 252.500 63 C 251.675 63, 251 63.675, 251 64.500 M 56.434 80.500 C 56.073 82.425, 55.211 84, 54.519 84 C 53.763 84, 53.051 85.857, 52.736 88.651 C 52.420 91.449, 51.572 93.660, 50.606 94.201 C 49.615 94.755, 49 96.421, 49 98.550 C 49 100.950, 48.544 102, 47.500 102 C 46.452 102, 46 103.056, 46 105.500 C 46 108.333, 45.619 109, 44 109 C 42.381 109, 42 109.667, 42 112.500 C 42 115.036, 41.561 116, 40.406 116 C 39.530 116, 38.577 116.900, 38.290 118 C 38.002 119.100, 37.144 120, 36.383 120 C 35.623 120, 35 120.900, 35 122 C 35 123.333, 34.333 124, 33 124 C 31.267 124, 31 124.667, 31 129 C 31 133.333, 31.267 134, 33 134 C 34.111 134, 35 133.333, 35 132.500 C 35 131.310, 36.444 131, 42 131 C 48.333 131, 49 130.810, 49 129 C 49 127.333, 49.667 127, 53 127 C 55.889 127, 57 126.583, 57 125.500 C 57 124.443, 58.069 124, 60.617 124 C 63.879 124, 64.174 124.220, 63.630 126.250 C 63.299 127.487, 63.021 129.063, 63.014 129.750 C 63.006 130.438, 62.325 131, 61.500 131 C 60.675 131, 60 131.623, 60 132.383 C 60 133.144, 59.100 134.002, 58 134.290 C 56.900 134.577, 56 135.530, 56 136.406 C 56 137.283, 55.325 138, 54.500 138 C 53.667 138, 53 138.889, 53 140 C 53 141.333, 52.333 142, 51 142 C 49.889 142, 49 142.667, 49 143.500 C 49 144.325, 48.325 145, 47.500 145 C 46.667 145, 46 145.889, 46 147 C 46 148.333, 45.333 149, 44 149 C 42.889 149, 42 149.667, 42 150.500 C 42 151.325, 41.283 152, 40.406 152 C 39.530 152, 38.577 152.900, 38.290 154 C 38.002 155.100, 37.144 156, 36.383 156 C 35.623 156, 35 156.900, 35 158 C 35 159.333, 34.333 160, 33 160 C 31.667 160, 31 160.667, 31 162 C 31 163.111, 30.333 164, 29.500 164 C 28.367 164, 28 165.222, 28 169 L 28 174 42 174 C 53.390 174, 56 173.737, 56 172.588 C 56 171.720, 57.541 170.915, 60 170.500 C 62.459 170.085, 64 169.280, 64 168.412 C 64 167.465, 65.152 167, 67.500 167 C 70.333 167, 71 166.619, 71 165 C 71 163.381, 71.667 163, 74.500 163 C 77.333 163, 78 162.619, 78 161 C 78 159.482, 78.662 159.003, 80.750 159.014 C 85.849 159.039, 87.861 160.090, 88.515 163.070 C 89.018 165.357, 89.838 166.067, 92.572 166.580 C 95.039 167.042, 96 167.752, 96 169.111 C 96 170.150, 96.623 171, 97.383 171 C 99.318 171, 99.971 174.196, 99.986 183.750 L 100 192 102.893 192 C 106.194 192, 107 190.611, 107 184.918 C 107 182.102, 107.422 181, 108.500 181 C 109.548 181, 110 179.944, 110 177.500 C 110 175.056, 109.548 174, 108.500 174 C 107.472 174, 107 172.969, 107 170.722 C 107 168.682, 106.245 166.798, 105 165.732 C 103.900 164.790, 103 163.115, 103 162.010 C 103 160.838, 102.336 160, 101.406 160 C 100.530 160, 99.577 159.100, 99.290 158 C 99.002 156.900, 98.144 156, 97.383 156 C 96.623 156, 96 155.325, 96 154.500 C 96 153.675, 95.283 153, 94.406 153 C 93.530 153, 92.577 152.100, 92.290 151 C 92.002 149.900, 91.144 149, 90.383 149 C 89.623 149, 89 148.100, 89 147 C 89 145.333, 88.333 145, 85 145 C 81.667 145, 81 145.333, 81 147 C 81 148.111, 80.333 149, 79.500 149 C 78.675 149, 78 149.675, 78 150.500 C 78 151.325, 77.283 152, 76.406 152 C 75.530 152, 74.577 152.900, 74.290 154 C 73.897 155.503, 72.926 156, 70.383 156 C 67.667 156, 67 156.394, 67 158 C 67 159.619, 66.333 160, 63.500 160 C 61.056 160, 60 160.452, 60 161.500 C 60 162.584, 58.888 163, 55.990 163 C 53.218 163, 51.452 163.617, 50.268 165 C 49.202 166.245, 47.318 167, 45.278 167 C 42.219 167, 42 166.774, 42 163.611 C 42 160.530, 42.318 160.163, 45.500 159.566 C 47.595 159.173, 49 158.325, 49 157.455 C 49 156.655, 49.900 156, 51 156 C 52.333 156, 53 155.333, 53 154 C 53 152.900, 53.623 152, 54.383 152 C 55.144 152, 56.002 151.100, 56.290 150 C 56.577 148.900, 57.530 148, 58.406 148 C 59.510 148, 60 147.078, 60 145 C 60 142.667, 60.444 142, 62 142 C 63.333 142, 64 141.333, 64 140 C 64 138.889, 64.667 138, 65.500 138 C 66.325 138, 67 137.377, 67 136.617 C 67 135.856, 67.900 134.998, 69 134.710 C 70.100 134.423, 71 133.470, 71 132.594 C 71 131.717, 71.675 131, 72.500 131 C 73.333 131, 74 130.111, 74 129 C 74 127.667, 74.667 127, 76 127 C 77.619 127, 78 126.333, 78 123.500 C 78 120.667, 78.381 120, 80 120 C 81.619 120, 82 119.333, 82 116.500 C 82 114.056, 82.452 113, 83.500 113 C 84.652 113, 85 111.722, 85 107.500 L 85 102 81.500 102 C 79.180 102, 78 102.468, 78 103.389 C 78 104.184, 76.505 105.058, 74.500 105.434 C 72.405 105.827, 71 106.675, 71 107.545 C 71 108.541, 69.896 109, 67.500 109 C 64.667 109, 64 109.381, 64 111 C 64 112.619, 63.333 113, 60.500 113 C 58.056 113, 57 113.452, 57 114.500 C 57 115.451, 56.043 116, 54.383 116 C 52.158 116, 51.857 115.664, 52.370 113.750 C 52.701 112.513, 52.979 110.263, 52.986 108.750 C 52.995 107.077, 53.544 106, 54.389 106 C 55.184 106, 56.058 104.505, 56.434 102.500 C 56.827 100.405, 57.675 99, 58.545 99 C 59.576 99, 60 97.834, 60 95 C 60 91.667, 60.333 91, 62 91 C 63.810 91, 64 90.333, 64 84 L 64 77 60.545 77 C 57.389 77, 57.034 77.302, 56.434 80.500 M 184.750 87.689 C 182.386 88.307, 182.151 98, 184.500 98 C 185.548 98, 186 99.056, 186 101.500 C 186 104.036, 186.439 105, 187.594 105 C 188.470 105, 189.423 105.900, 189.710 107 C 189.998 108.100, 190.856 109, 191.617 109 C 192.533 109, 193 110.191, 193 112.531 C 193 114.748, 193.559 116.277, 194.500 116.638 C 195.325 116.955, 196 117.841, 196 118.607 C 196 119.655, 194.389 120, 189.500 120 C 184.541 120, 183 120.338, 183 121.425 C 183 122.500, 180.793 123.022, 174 123.554 C 167.385 124.071, 165 124.621, 165 125.629 C 165 126.638, 163.416 127, 159 127 C 154.558 127, 153 127.359, 153 128.383 C 153 130.241, 149.848 130.970, 141.750 130.986 C 136.423 130.997, 135 131.316, 135 132.500 C 135 133.672, 133.633 134.003, 128.750 134.014 C 121.135 134.030, 118 134.790, 118 136.617 C 118 137.564, 116.739 138, 114 138 C 111.111 138, 110 138.417, 110 139.500 C 110 140.325, 109.325 141, 108.500 141 C 107.667 141, 107 141.889, 107 143 C 107 144.333, 106.333 145, 105 145 C 103.395 145, 103 145.667, 103 148.375 C 103 151.259, 103.400 151.829, 105.750 152.292 C 107.263 152.590, 109.737 152.594, 111.250 152.300 C 113.459 151.872, 114 151.222, 114 149 C 114 145.982, 115.835 145.039, 121.750 145.014 C 123.966 145.004, 125 144.523, 125 143.500 C 125 142.358, 126.254 141.998, 130.250 141.991 C 139.255 141.976, 146 140.850, 146 139.361 C 146 138.378, 147.528 138, 151.500 138 C 156.333 138, 157 138.242, 157 140 C 157 141.100, 156.361 142, 155.579 142 C 154.798 142, 153.869 143.321, 153.514 144.935 C 153.030 147.139, 152.139 148.030, 149.935 148.514 C 147.728 148.999, 147 149.728, 147 151.454 C 147 152.717, 146.719 155.156, 146.375 156.875 C 145.768 159.910, 145.595 160, 140.375 160 C 136.264 160, 135 160.353, 135 161.500 C 135 162.325, 134.325 163, 133.500 163 C 132.675 163, 132 162.325, 132 161.500 C 132 160.675, 131.325 160, 130.500 160 C 129.675 160, 129 160.675, 129 161.500 C 129 162.333, 128.111 163, 127 163 C 125.667 163, 125 163.667, 125 165 C 125 166.111, 124.333 167, 123.500 167 C 122.675 167, 122 167.675, 122 168.500 C 122 169.325, 122.675 170, 123.500 170 C 124.333 170, 125 170.889, 125 172 C 125 173.810, 125.667 174, 132 174 C 137.556 174, 139 173.690, 139 172.500 C 139 171.452, 140.056 171, 142.500 171 C 145.710 171, 146 171.245, 146 173.955 C 146 176.540, 145.562 176.992, 142.500 177.566 C 140.495 177.942, 139 178.816, 139 179.611 C 139 180.532, 137.820 181, 135.500 181 C 132.667 181, 132 181.381, 132 183 C 132 184.111, 131.333 185, 130.500 185 C 129.675 185, 129 185.675, 129 186.500 C 129 187.325, 129.675 188, 130.500 188 C 131.333 188, 132 188.889, 132 190 C 132 191.619, 132.667 192, 135.500 192 C 137.813 192, 139 191.531, 139 190.617 C 139 189.856, 139.900 188.998, 141 188.710 C 142.100 188.423, 143 187.470, 143 186.594 C 143 184.169, 145.684 184.692, 146.370 187.250 C 146.701 188.488, 146.979 194.113, 146.986 199.750 C 146.999 209.127, 146.840 210, 145.117 210 C 144.074 210, 143 210.893, 142.710 212 C 142.333 213.442, 141.346 214, 139.173 214 C 136.637 214, 136.054 214.476, 135.500 217 C 135.138 218.650, 134.202 220, 133.421 220 C 132.639 220, 132 220.900, 132 222 C 132 223.111, 131.333 224, 130.500 224 C 129.667 224, 129 224.889, 129 226 C 129 227.111, 129.667 228, 130.500 228 C 131.325 228, 132 228.675, 132 229.500 C 132 230.333, 132.889 231, 134 231 C 135.111 231, 136 230.333, 136 229.500 C 136 228.675, 136.675 228, 137.500 228 C 138.579 228, 139 229.103, 139 231.929 C 139 236.228, 141 239, 144.103 239 C 145.181 239, 146.317 238.337, 146.628 237.527 C 146.939 236.717, 148.725 235.767, 150.597 235.416 C 152.527 235.054, 154 234.177, 154 233.389 C 154 232.468, 155.180 232, 157.500 232 C 160.333 232, 161 231.619, 161 230 C 161 228.889, 161.667 228, 162.500 228 C 163.325 228, 164 228.619, 164 229.375 C 164 230.804, 169.530 232.409, 171.103 231.437 C 171.596 231.132, 172 230.234, 172 229.441 C 172 228.648, 172.675 228, 173.500 228 C 174.333 228, 175 227.111, 175 226 C 175 224.889, 175.667 224, 176.500 224 C 177.325 224, 178 223.325, 178 222.500 C 178 221.667, 178.889 221, 180 221 C 181.333 221, 182 220.333, 182 219 C 182 217.667, 182.667 217, 184 217 C 185.619 217, 186 216.333, 186 213.500 C 186 210.167, 186.167 210, 189.500 210 C 192.333 210, 193 209.619, 193 208 C 193 206.667, 193.667 206, 195 206 C 196.100 206, 197 205.375, 197 204.611 C 197 203.816, 198.495 202.942, 200.500 202.566 C 202.595 202.173, 204 201.325, 204 200.455 C 204 199.655, 204.900 199, 206 199 C 207.100 199, 208 198.377, 208 197.617 C 208 196.856, 208.900 195.998, 210 195.710 C 211.100 195.423, 212 194.470, 212 193.594 C 212 192.717, 212.708 192, 213.573 192 C 215.772 192, 214.945 188.613, 212.639 188.169 C 209.370 187.539, 204 189.017, 204 190.545 C 204 191.541, 202.896 192, 200.500 192 C 197.667 192, 197 192.381, 197 194 C 197 195.333, 196.333 196, 195 196 C 193.889 196, 193 196.667, 193 197.500 C 193 198.333, 192.111 199, 191 199 C 189.900 199, 189 199.639, 189 200.421 C 189 201.202, 187.650 202.138, 186 202.500 C 184.350 202.862, 183 203.759, 183 204.492 C 183 205.267, 181.328 206.107, 179 206.500 C 176.541 206.915, 175 207.720, 175 208.588 C 175 209.365, 174.100 210, 173 210 C 171.889 210, 171 210.667, 171 211.500 C 171 212.325, 170.325 213, 169.500 213 C 168.284 213, 168 211.389, 168 204.500 L 168 196 171.500 196 C 174.333 196, 175 195.619, 175 194 C 175 192.667, 175.667 192, 177 192 C 178.100 192, 179 192.623, 179 193.383 C 179 194.669, 181.840 195.955, 184.750 195.986 C 185.438 195.994, 186 195.100, 186 194 C 186 192.889, 186.667 192, 187.500 192 C 188.548 192, 189 190.944, 189 188.500 C 189 186.056, 188.548 185, 187.500 185 C 186.667 185, 186 184.111, 186 183 C 186 181.190, 185.333 181, 179 181 C 172.667 181, 172 181.190, 172 183 C 172 184.333, 171.333 185, 170 185 C 168.667 185, 168 184.333, 168 183 C 168 181.889, 167.333 181, 166.500 181 C 165.348 181, 165 179.722, 165 175.500 C 165 171.278, 165.348 170, 166.500 170 C 167.333 170, 168 170.889, 168 172 C 168 173.619, 168.667 174, 171.500 174 C 174.333 174, 175 173.619, 175 172 C 175 170.667, 175.667 170, 177 170 C 178.111 170, 179 169.333, 179 168.500 C 179 167.452, 180.056 167, 182.500 167 C 185.833 167, 186 167.167, 186 170.500 C 186 172.813, 186.469 174, 187.383 174 C 189.241 174, 189.970 170.848, 189.986 162.750 L 190 156 182.500 156 C 176.604 156, 175 156.311, 175 157.455 C 175 158.325, 173.595 159.173, 171.500 159.566 C 169.495 159.942, 168 160.816, 168 161.611 C 168 162.375, 167.325 163, 166.500 163 C 165.452 163, 165 161.944, 165 159.500 C 165 157.056, 165.452 156, 166.500 156 C 167.333 156, 168 155.111, 168 154 C 168 152.889, 168.667 152, 169.500 152 C 170.325 152, 171 151.325, 171 150.500 C 171 149.675, 170.325 149, 169.500 149 C 168.348 149, 168 147.722, 168 143.500 L 168 138 172 138 C 175.333 138, 176 137.667, 176 136 C 176 134.900, 176.450 134, 177 134 C 177.550 134, 178 133.325, 178 132.500 C 178 131.306, 179.478 130.997, 185.250 130.986 C 193.832 130.970, 197 130.268, 197 128.383 C 197 126.521, 199.915 126.615, 200.638 128.500 C 200.955 129.325, 201.841 130, 202.607 130 C 203.566 130, 204 131.248, 204 134 C 204 137.333, 204.333 138, 206 138 C 207.619 138, 208 138.667, 208 141.500 C 208 143.820, 208.468 145, 209.389 145 C 210.184 145, 211.058 146.495, 211.434 148.500 C 211.827 150.595, 212.675 152, 213.545 152 C 214.345 152, 215 152.900, 215 154 C 215 155.111, 215.667 156, 216.500 156 C 217.523 156, 218.004 157.034, 218.014 159.250 C 218.034 164, 219.041 167, 220.617 167 C 221.531 167, 222 168.187, 222 170.500 C 222 173.333, 222.381 174, 224 174 C 225.619 174, 226 174.667, 226 177.500 C 226 179.820, 226.468 181, 227.389 181 C 228.184 181, 229.058 182.495, 229.434 184.500 C 229.827 186.595, 230.675 188, 231.545 188 C 232.541 188, 233 189.104, 233 191.500 C 233 193.944, 233.452 195, 234.500 195 C 235.700 195, 236 196.500, 236 202.500 C 236 208.500, 235.700 210, 234.500 210 C 233.675 210, 233 210.717, 233 211.594 C 233 212.470, 232.100 213.423, 231 213.710 C 229.583 214.081, 229 215.074, 229 217.117 C 229 219.088, 228.496 220, 227.406 220 C 226.530 220, 225.577 220.900, 225.290 222 C 225.002 223.100, 224.144 224, 223.383 224 C 222.623 224, 222 224.900, 222 226 C 222 228.599, 219.390 228.599, 218.710 226 C 218.397 224.803, 217.346 224, 216.094 224 C 214.899 224, 214 223.356, 214 222.500 C 214 220.189, 212.307 220.725, 211.630 223.250 C 210.389 227.883, 210.920 231.166, 213 231.710 C 214.100 231.998, 215 232.856, 215 233.617 C 215 234.531, 216.187 235, 218.500 235 C 220.944 235, 222 234.548, 222 233.500 C 222 232.452, 223.056 232, 225.500 232 C 228.333 232, 229 231.619, 229 230 C 229 228.667, 229.667 228, 231 228 C 232.333 228, 233 227.333, 233 226 C 233 224.900, 233.639 224, 234.421 224 C 235.202 224, 236.138 222.650, 236.500 221 C 236.862 219.350, 237.798 218, 238.579 218 C 239.361 218, 240 217.100, 240 216 C 240 214.381, 240.667 214, 243.500 214 C 246.833 214, 247 214.167, 247 217.500 C 247 219.896, 247.459 221, 248.455 221 C 249.325 221, 250.173 222.405, 250.566 224.500 C 250.942 226.505, 251.816 228, 252.611 228 C 253.532 228, 254 229.180, 254 231.500 C 254 234.333, 254.381 235, 256 235 C 257.667 235, 258 235.667, 258 239 C 258 241.789, 258.430 243, 259.421 243 C 260.202 243, 261.138 244.350, 261.500 246 C 261.862 247.650, 262.798 249, 263.579 249 C 264.361 249, 265 249.900, 265 251 C 265 253.905, 271.530 253.905, 272.290 251 C 272.577 249.900, 273.530 249, 274.406 249 C 275.715 249, 276 247.728, 276 241.875 L 276 234.750 273.250 235.292 C 271.738 235.590, 269.262 235.594, 267.750 235.300 C 265.397 234.844, 265 234.278, 265 231.383 C 265 229.169, 264.522 228, 263.617 228 C 262.856 228, 261.998 227.100, 261.710 226 C 261.423 224.900, 260.470 224, 259.594 224 C 258.439 224, 258 223.036, 258 220.500 C 258 218.180, 257.532 217, 256.611 217 C 255.816 217, 254.942 215.505, 254.566 213.500 C 254.173 211.405, 253.325 210, 252.455 210 C 251.655 210, 251 209.100, 251 208 C 251 206.900, 250.377 206, 249.617 206 C 248.331 206, 247.045 203.160, 247.014 200.250 C 247.006 199.563, 247.900 199, 249 199 C 250.619 199, 251 198.333, 251 195.500 C 251 193.180, 251.468 192, 252.389 192 C 253.184 192, 254.058 190.505, 254.434 188.500 C 254.827 186.405, 255.675 185, 256.545 185 C 257.345 185, 258 184.100, 258 183 C 258 181.900, 258.655 181, 259.455 181 C 260.325 181, 261.173 179.595, 261.566 177.500 C 262.041 174.967, 262.745 174, 264.111 174 C 265.150 174, 266 173.354, 266 172.563 C 266 171.673, 267.237 171.007, 269.250 170.813 C 272.147 170.534, 272.478 170.188, 272.295 167.628 C 272.182 166.049, 271.828 164.494, 271.507 164.173 C 271.186 163.852, 268.016 163.405, 264.462 163.178 C 258.419 162.794, 258 162.904, 258 164.884 C 258 166.333, 257.370 167, 256 167 C 254.381 167, 254 167.667, 254 170.500 C 254 172.944, 253.548 174, 252.500 174 C 251.667 174, 251 174.889, 251 176 C 251 177.100, 250.377 178, 249.617 178 C 248.115 178, 247.035 180.960, 247.014 185.133 C 247.004 187.013, 246.356 187.939, 244.750 188.370 C 240.513 189.505, 240 189.141, 240 185 C 240 182.254, 239.565 181, 238.611 181 C 237.816 181, 236.942 179.505, 236.566 177.500 C 236.173 175.405, 235.325 174, 234.455 174 C 233.463 174, 233 172.902, 233 170.550 C 233 168.421, 232.385 166.755, 231.394 166.201 C 230.428 165.660, 229.580 163.449, 229.264 160.651 C 228.949 157.857, 228.237 156, 227.481 156 C 226.789 156, 225.927 154.425, 225.566 152.500 C 225.173 150.405, 224.325 149, 223.455 149 C 222.655 149, 222 148.100, 222 147 C 222 145.900, 221.345 145, 220.545 145 C 219.683 145, 218.831 143.616, 218.453 141.600 C 217.383 135.899, 218.084 134.536, 222.258 134.190 C 224.704 133.987, 226 133.381, 226 132.440 C 226 131.648, 226.689 131, 227.531 131 C 228.374 131, 229.322 130.325, 229.638 129.500 C 229.955 128.675, 230.841 128, 231.607 128 C 232.373 128, 233 127.100, 233 126 C 233 124.837, 233.667 124, 234.594 124 C 235.470 124, 236.423 123.100, 236.710 122 C 236.998 120.900, 237.856 120, 238.617 120 C 239.531 120, 240 118.813, 240 116.500 C 240 113.667, 240.381 113, 242 113 C 243.333 113, 244 112.333, 244 111 C 244 109.667, 243.333 109, 242 109 C 240.889 109, 240 108.333, 240 107.500 C 240 106.675, 239.325 106, 238.500 106 C 237.675 106, 237 106.618, 237 107.373 C 237 108.294, 235.312 108.908, 231.865 109.239 C 228.544 109.558, 226.406 110.310, 225.815 111.366 C 225.106 112.634, 223.342 113, 217.950 113 C 212.439 113, 211 113.311, 211 114.500 C 211 115.548, 209.944 116, 207.500 116 C 204.167 116, 204 115.833, 204 112.500 C 204 110.180, 203.532 109, 202.611 109 C 201.816 109, 200.942 107.505, 200.566 105.500 C 200.173 103.405, 199.325 102, 198.455 102 C 197.372 102, 197 100.697, 197 96.906 C 197 92.654, 196.670 91.726, 195 91.290 C 193.893 91, 193 89.926, 193 88.883 C 193 87.401, 192.307 87.025, 189.750 87.116 C 187.963 87.180, 185.713 87.438, 184.750 87.689 M 214 125.500 C 214 126.325, 213.550 127, 213 127 C 211.386 127, 211.854 129.730, 213.582 130.393 C 216.474 131.503, 218 131.022, 218 129 C 218 127.667, 218.667 127, 220 127 C 221.111 127, 222 126.333, 222 125.500 C 222 124.417, 220.889 124, 218 124 C 215.111 124, 214 124.417, 214 125.500 M 80.250 195.706 C 78.175 196.105, 78 196.677, 78 203.070 C 78 208.467, 78.322 210, 79.455 210 C 80.325 210, 81.173 211.405, 81.566 213.500 C 81.927 215.425, 82.797 217, 83.500 217 C 84.203 217, 85.073 218.575, 85.434 220.500 C 85.827 222.595, 86.675 224, 87.545 224 C 88.345 224, 89 224.900, 89 226 C 89 227.100, 89.623 228, 90.383 228 C 91.144 228, 92.002 228.900, 92.290 230 C 92.751 231.763, 93.654 232, 99.906 232 L 107 232 107 228.588 C 107 225.386, 106.753 225.134, 103 224.500 C 100.541 224.085, 99 223.280, 99 222.412 C 99 221.635, 98.325 221, 97.500 221 C 96.667 221, 96 220.111, 96 219 C 96 217.900, 95.345 217, 94.545 217 C 93.675 217, 92.827 215.595, 92.434 213.500 C 92.058 211.495, 91.184 210, 90.389 210 C 89.435 210, 89 208.745, 89 205.990 C 89 203.218, 88.383 201.452, 87 200.268 C 85.900 199.326, 85 197.756, 85 196.778 C 85 195.003, 84.492 194.889, 80.250 195.706 M 49 204.500 C 49 209.333, 49.242 210, 51 210 C 52.333 210, 53 210.667, 53 212 C 53 213.100, 53.625 214, 54.389 214 C 55.184 214, 56.058 215.495, 56.434 217.500 C 56.827 219.595, 57.675 221, 58.545 221 C 59.345 221, 60 221.623, 60 222.383 C 60 223.144, 60.900 224.002, 62 224.290 C 63.100 224.577, 64 225.530, 64 226.406 C 64 227.713, 65.262 228, 71 228 C 77.333 228, 78 227.810, 78 226 C 78 224.889, 77.333 224, 76.500 224 C 75.675 224, 75 223.325, 75 222.500 C 75 221.675, 74.152 221, 73.117 221 C 72.074 221, 71 220.107, 70.710 219 C 70.423 217.900, 69.470 217, 68.594 217 C 67.667 217, 67 216.163, 67 215 C 67 213.900, 66.361 213, 65.579 213 C 64.798 213, 63.862 211.650, 63.500 210 C 63.138 208.350, 62.202 207, 61.421 207 C 60.473 207, 60 205.873, 60 203.617 C 60 199.923, 58.514 199.040, 52.250 199.014 L 49 199 49 204.500 M 24 209.883 C 24 211.926, 23.417 212.919, 22 213.290 C 20.900 213.577, 20 214.572, 20 215.500 C 20 216.428, 20.900 217.423, 22 217.710 C 23.100 217.998, 24 218.856, 24 219.617 C 24 220.377, 24.655 221, 25.455 221 C 26.325 221, 27.173 222.405, 27.566 224.500 C 28.134 227.525, 28.608 228, 31.066 228 C 33.509 228, 33.999 228.480, 34.549 231.408 C 34.956 233.579, 35.880 234.997, 37.094 235.314 C 38.142 235.588, 39 236.530, 39 237.406 C 39 238.652, 40.092 239, 44 239 L 49 239 49 233.500 L 49 228 45.500 228 C 42.667 228, 42 227.619, 42 226 C 42 224.900, 41.377 224, 40.617 224 C 39.856 224, 38.998 223.100, 38.710 222 C 38.423 220.900, 37.470 220, 36.594 220 C 35.504 220, 35 219.088, 35 217.117 C 35 215.074, 34.417 214.081, 33 213.710 C 31.544 213.329, 31 212.346, 31 210.094 C 31 207.225, 30.746 207, 27.500 207 C 24.309 207, 24 207.255, 24 209.883 M 146.225 219.248 C 145.973 220.212, 145.144 221, 144.383 221 C 143.623 221, 143 221.900, 143 223 C 143 224.111, 142.333 225, 141.500 225 C 140.675 225, 140 225.675, 140 226.500 C 140 228.915, 145.645 228.467, 146.290 226 C 146.671 224.544, 147.654 224, 149.906 224 C 151.990 224, 153 223.510, 153 222.500 C 153 221.452, 154.056 221, 156.500 221 C 159.295 221, 160 220.610, 160 219.063 C 160 217.323, 159.324 217.145, 153.341 217.312 C 147.934 217.462, 146.597 217.826, 146.225 219.248" stroke="none" fill="black" fill-rule="evenodd"/>
</svg>