<svg xmlns="http://www.w3.org/2000/svg" width="300" height="300" viewBox="0 0 300 300" version="1.1">
	<path d="M 134.273 38.477 C 133.693 39.512, 130.837 40.155, 124.723 40.625 C 118.389 41.111, 116 41.666, 116 42.648 C 116 43.604, 114.535 44, 111 44 C 106.667 44, 106 44.267, 106 46 C 106 47.333, 105.333 48, 104 48 C 102.900 48, 102 48.623, 102 49.383 C 102 50.144, 101.100 51.002, 100 51.290 C 98.900 51.577, 98 52.530, 98 53.406 C 98 54.283, 97.382 55, 96.627 55 C 95.132 55, 93.920 63.132, 94.761 67.528 C 95.324 70.475, 98 70.865, 98 68 C 98 66.667, 98.667 66, 100 66 C 101.619 66, 102 65.333, 102 62.500 C 102 59.667, 102.381 59, 104 59 C 105.333 59, 106 58.333, 106 57 C 106 55.267, 106.667 55, 111 55 C 114.778 55, 116 54.633, 116 53.500 C 116 52.395, 117.153 52, 120.375 52 C 126.741 52, 131 50.948, 131 49.375 C 131 48.271, 133.886 48, 145.645 48 L 160.290 48 159.712 54.897 C 159.394 58.691, 159.381 62.741, 159.683 63.897 C 160.381 66.564, 162.603 66.627, 163.290 64 C 163.577 62.900, 164.530 62, 165.406 62 C 166.762 62, 167 60.450, 167 51.611 L 167 41.223 163.500 40.566 C 161.405 40.173, 160 39.325, 160 38.455 C 160 36.292, 135.484 36.313, 134.273 38.477 M 133.353 55.692 C 130.715 56.208, 130.214 59.441, 130.817 72.053 C 131.138 78.779, 131.587 81, 132.622 81 C 133.609 81, 134 82.420, 134 86 L 134 91 129.050 91 C 125.435 91, 123.843 91.458, 123.150 92.696 C 122.451 93.945, 120.462 94.503, 115.600 94.813 C 110.850 95.115, 109 95.621, 109 96.616 C 109 97.406, 107.981 98, 106.625 98 C 102.120 98, 98 99.254, 98 100.625 C 98 101.530, 96.803 102, 94.500 102 C 91.214 102, 91.001 101.801, 91.017 98.750 C 91.034 95.530, 94.467 91, 96.891 91 C 97.501 91, 98 90.100, 98 89 C 98 87.227, 97.333 87, 92.125 87 C 88.894 87, 84.844 87.281, 83.125 87.625 L 80 88.250 80 98.625 C 80 107.181, 79.737 109, 78.500 109 C 77.667 109, 77 109.889, 77 111 C 77 112.333, 76.333 113, 75 113 C 73.900 113, 73 113.623, 73 114.383 C 73 115.144, 72.041 116.018, 70.868 116.324 C 69.207 116.759, 68.873 117.392, 69.354 119.191 C 69.694 120.461, 69.979 122.737, 69.986 124.250 C 69.995 126.022, 70.534 127, 71.500 127 C 72.333 127, 73 127.889, 73 129 C 73 130.333, 73.667 131, 75 131 C 76.111 131, 77 131.667, 77 132.500 C 77 133.325, 77.717 134, 78.594 134 C 79.470 134, 80.423 134.900, 80.710 136 C 80.998 137.100, 81.856 138, 82.617 138 C 83.627 138, 84 139.484, 84 143.500 L 84 149 87.441 149 C 89.334 149, 91.091 148.662, 91.346 148.249 C 92.372 146.589, 90.716 138, 89.370 138 C 88.293 138, 88 135.647, 88 127 C 88 117.889, 88.258 116, 89.500 116 C 90.325 116, 91 115.325, 91 114.500 C 91 113.445, 92.066 113, 94.594 113 C 97.346 113, 98.310 112.532, 98.710 111 C 99.143 109.344, 100.074 109, 104.117 109 C 107.660 109, 109 108.612, 109 107.585 C 109 106.554, 111.032 105.980, 116.500 105.468 C 121.878 104.964, 124 104.374, 124 103.383 C 124 102.373, 125.486 102, 129.500 102 L 135 102 135 106 C 135 108.889, 135.417 110, 136.500 110 C 137.787 110, 138 113.056, 138 131.500 C 138 149.200, 137.754 153, 136.608 153 C 134.876 153, 133.753 157.169, 134.589 160.500 C 135.075 162.434, 135.861 163, 138.063 163 C 140.524 163, 140.998 162.526, 141.566 159.500 C 141.927 157.575, 142.779 156, 143.459 156 C 144.324 156, 144.893 152.781, 145.350 145.308 C 145.741 138.924, 146.474 134.325, 147.169 133.896 C 147.809 133.500, 148.333 131.111, 148.333 128.588 C 148.333 124.448, 148.561 124, 150.667 124 C 152.333 124, 153 123.429, 153 122 C 153 120.267, 153.667 120, 158 120 C 161.778 120, 163 119.633, 163 118.500 C 163 117.348, 164.278 117, 168.500 117 C 172.722 117, 174 117.348, 174 118.500 C 174 119.325, 174.623 120, 175.383 120 C 176.144 120, 177.012 120.939, 177.312 122.087 C 177.982 124.648, 181.315 124.317, 181.831 121.639 C 182.461 118.370, 180.983 113, 179.455 113 C 178.655 113, 178 112.100, 178 111 C 178 109.106, 177.333 109, 165.406 109 C 153.654 109, 152.778 109.134, 152.290 111 C 152.002 112.100, 151.144 113, 150.383 113 C 149.623 113, 149 113.675, 149 114.500 C 149 115.333, 148.111 116, 147 116 C 145.190 116, 145 115.333, 145 109 C 145 102.667, 145.190 102, 147 102 C 148.100 102, 149 101.388, 149 100.639 C 149 98.830, 156.161 98.020, 172.250 98.009 C 182.913 98.001, 185 97.754, 185 96.500 C 185 95.367, 186.222 95, 190 95 C 193.778 95, 195 95.367, 195 96.500 C 195 97.655, 196.288 98, 200.594 98 C 205.346 98, 206.266 98.301, 206.710 100 C 206.998 101.100, 207.856 102, 208.617 102 C 209.627 102, 210 103.484, 210 107.500 C 210 112.333, 209.758 113, 208 113 C 206.381 113, 206 113.667, 206 116.500 C 206 118.813, 205.531 120, 204.617 120 C 203.856 120, 202.998 120.900, 202.710 122 C 202.423 123.100, 201.470 124, 200.594 124 C 199.717 124, 199 124.675, 199 125.500 C 199 126.325, 198.377 127, 197.617 127 C 196.856 127, 195.998 127.900, 195.710 129 C 195.423 130.100, 194.470 131, 193.594 131 C 192.717 131, 192 131.675, 192 132.500 C 192 133.325, 191.283 134, 190.406 134 C 189.530 134, 188.577 134.900, 188.290 136 C 188.002 137.100, 187.144 138, 186.383 138 C 185.623 138, 185 138.675, 185 139.500 C 185 140.548, 183.944 141, 181.500 141 C 179.056 141, 178 140.548, 178 139.500 C 178 138.667, 177.111 138, 176 138 C 174.667 138, 174 137.333, 174 136 C 174 134.227, 173.333 134, 168.125 134 C 160.342 134, 156 134.940, 156 136.625 C 156 137.381, 155.100 138, 154 138 C 152.394 138, 152 138.667, 152 141.383 C 152 144.279, 152.397 144.844, 154.750 145.300 C 159.161 146.154, 167 144.914, 167 143.361 C 167 142.396, 168.443 142, 171.955 142 C 176.825 142, 176.920 142.059, 177.566 145.500 C 178.163 148.682, 178.530 149, 181.611 149 C 184.333 149, 185 148.607, 185 147 C 185 145.381, 185.667 145, 188.500 145 C 190.944 145, 192 144.548, 192 143.500 C 192 142.675, 192.717 142, 193.594 142 C 194.470 142, 195.423 141.100, 195.710 140 C 195.998 138.900, 196.803 138, 197.500 138 C 198.197 138, 199.002 137.100, 199.290 136 C 199.577 134.900, 200.530 134, 201.406 134 C 202.283 134, 203 133.377, 203 132.617 C 203 131.856, 203.900 130.998, 205 130.710 C 206.100 130.423, 207 129.470, 207 128.594 C 207 127.717, 207.675 127, 208.500 127 C 209.333 127, 210 126.111, 210 125 C 210 123.900, 210.639 123, 211.421 123 C 212.202 123, 213.138 121.650, 213.500 120 C 213.862 118.350, 214.798 117, 215.579 117 C 216.570 117, 217 115.789, 217 113 C 217 110.166, 217.424 109, 218.455 109 C 219.325 109, 220.173 107.595, 220.566 105.500 C 221.451 100.783, 220.288 95, 218.455 95 C 217.655 95, 217 94.100, 217 93 C 217 91.889, 216.333 91, 215.500 91 C 214.675 91, 214 90.365, 214 89.588 C 214 88.720, 212.459 87.915, 210 87.500 C 207.541 87.085, 206 86.280, 206 85.412 C 206 84.286, 203.876 84, 195.500 84 C 186.833 84, 185 84.262, 185 85.500 C 185 86.706, 183.462 87, 177.158 87 C 172.845 87, 163.170 87.295, 155.658 87.655 L 142 88.310 142 73.655 C 142 59.667, 141.909 59, 140 59 C 138.667 59, 138 58.333, 138 57 C 138 55.018, 137.508 54.880, 133.353 55.692 M 109 118.500 C 109 119.548, 107.944 120, 105.500 120 C 103.056 120, 102 120.452, 102 121.500 C 102 122.325, 101.325 123, 100.500 123 C 99.417 123, 99 124.111, 99 127 L 99 131 103.883 131 C 107.926 131, 108.857 130.656, 109.290 129 C 109.671 127.544, 110.654 127, 112.906 127 C 115.333 127, 116 127.431, 116 129 C 116 130.333, 116.667 131, 118 131 C 119.619 131, 120 131.667, 120 134.500 C 120 137.333, 120.381 138, 122 138 C 123.333 138, 124 137.333, 124 136 C 124 134.889, 124.667 134, 125.500 134 C 126.325 134, 127 133.325, 127 132.500 C 127 131.675, 126.325 131, 125.500 131 C 124.445 131, 124 129.934, 124 127.406 C 124 124.654, 123.532 123.690, 122 123.290 C 120.900 123.002, 120 122.144, 120 121.383 C 120 120.469, 118.813 120, 116.500 120 C 114.056 120, 113 119.548, 113 118.500 C 113 117.667, 112.111 117, 111 117 C 109.889 117, 109 117.667, 109 118.500 M 109 146.564 C 109 147.310, 107.440 148.202, 105.500 148.566 C 102.318 149.163, 102 149.530, 102 152.611 L 102 156 107.500 156 C 111.472 156, 113 155.622, 113 154.639 C 113 153.249, 119.622 152.026, 127.250 152.009 C 130.857 152, 131 151.868, 131 148.550 L 131 145.100 120 145.159 C 111.481 145.206, 109 145.522, 109 146.564 M 163 166.455 L 163 176.909 159.500 177.566 C 156.067 178.210, 156 178.316, 156 183.111 C 156 186.918, 156.353 188, 157.594 188 C 158.470 188, 159.423 188.900, 159.710 190 C 160.103 191.503, 161.074 192, 163.617 192 L 167 192 167 206.094 C 167 219.346, 166.881 220.218, 165 220.710 C 163.497 221.103, 163 222.074, 163 224.617 C 163 228.422, 160.594 229.378, 159.692 225.931 C 159.258 224.271, 158.494 223.925, 155.826 224.181 C 152.843 224.467, 152.466 224.854, 152.173 227.933 C 151.688 233.024, 152.861 238, 154.545 238 C 155.345 238, 156 238.848, 156 239.883 C 156 240.926, 156.893 242, 158 242.290 C 159.456 242.671, 160 243.654, 160 245.906 C 160 247.990, 160.490 249, 161.500 249 C 162.583 249, 163 250.111, 163 253 C 163 255.889, 163.417 257, 164.500 257 C 165.325 257, 166 257.648, 166 258.441 C 166 260.530, 167.380 261.074, 170.897 260.371 L 174 259.750 174 252.875 C 174 247.669, 173.662 246, 172.608 246 C 170.882 246, 169.753 241.834, 170.583 238.526 C 171.042 236.696, 172.087 235.887, 174.602 235.415 C 176.529 235.053, 178 234.176, 178 233.389 C 178 232.267, 180.811 232, 192.617 232 L 207.233 232 206.630 234.250 C 206.299 235.488, 206.021 237.702, 206.014 239.171 C 206.003 241.320, 205.415 241.970, 203 242.500 C 201.350 242.862, 200 243.798, 200 244.579 C 200 245.361, 199.100 246, 198 246 C 196.900 246, 196 246.625, 196 247.389 C 196 248.184, 194.505 249.058, 192.500 249.434 C 190.405 249.827, 189 250.675, 189 251.545 C 189 252.576, 187.834 253, 185 253 C 181.667 253, 181 253.333, 181 255 C 181 256.370, 180.333 257, 178.883 257 C 177.176 257, 176.883 257.435, 177.370 259.250 C 177.701 260.488, 177.979 262.063, 177.986 262.750 C 177.996 263.630, 180.074 264, 185 264 C 190.556 264, 192 263.690, 192 262.500 C 192 261.534, 192.978 260.995, 194.750 260.986 C 199.032 260.965, 202 259.899, 202 258.383 C 202 257.623, 202.942 257, 204.094 257 C 205.346 257, 206.397 256.197, 206.710 255 C 207.103 253.497, 208.074 253, 210.617 253 C 212.957 253, 214 252.538, 214 251.500 C 214 250.448, 215.062 250, 217.560 250 C 221.062 250, 221.116 249.938, 220.810 246.258 C 220.593 243.643, 219.973 242.417, 218.750 242.185 C 217.539 241.956, 217 242.492, 217 243.927 C 217 245.630, 216.375 246, 213.500 246 C 211.056 246, 210 245.548, 210 244.500 C 210 243.667, 210.889 243, 212 243 C 213.333 243, 214 242.333, 214 241 C 214 239.889, 214.667 239, 215.500 239 C 216.652 239, 217 237.722, 217 233.500 C 217 228.667, 216.758 228, 215 228 C 213.900 228, 213 227.377, 213 226.617 C 213 224.405, 209.636 224.028, 189.750 224.014 C 171.671 224, 171 223.928, 171 222 C 171 220.889, 171.667 220, 172.500 220 C 173.782 220, 174 217.167, 174 200.500 L 174 181 181 181 C 186.556 181, 188 180.690, 188 179.500 C 188 178.275, 189.698 177.998, 197.250 177.991 C 210.004 177.979, 217 177.047, 217 175.361 C 217 174.612, 217.900 174, 219 174 C 220.758 174, 221 174.667, 221 179.500 L 221 185 224.500 185 C 227.333 185, 228 184.619, 228 183 C 228 181.667, 228.667 181, 230 181 C 231.518 181, 231.997 180.338, 231.986 178.250 C 231.959 172.813, 230.943 171.080, 227.390 170.413 C 225.469 170.053, 224 169.175, 224 168.389 C 224 167.307, 222.013 167, 215 167 C 207.667 167, 206 167.278, 206 168.500 C 206 169.727, 204.292 170, 196.625 170 C 185.489 170, 181 170.754, 181 172.625 C 181 173.530, 179.803 174, 177.500 174 L 174 174 174 168.500 C 174 163.602, 174.227 163, 176.073 163 C 179.659 163, 178.002 159.550, 174.242 159.187 C 172.236 158.993, 171 158.326, 171 157.437 C 171 156.427, 169.810 156, 167 156 L 163 156 163 166.455 M 84 179.500 C 84 180.333, 83.111 181, 82 181 C 80.279 181, 80.002 181.662, 80.014 185.750 C 80.021 188.363, 80.299 191.512, 80.630 192.750 C 81.301 195.253, 84 195.854, 84 193.500 C 84 192.667, 84.889 192, 86 192 C 87.100 192, 88 191.383, 88 190.629 C 88 189.698, 89.897 189.044, 93.916 188.589 C 100.715 187.820, 105 188.601, 105 190.608 C 105 191.374, 105.900 192, 107 192 C 108.619 192, 109 192.667, 109 195.500 C 109 198.333, 109.381 199, 111 199 C 112.822 199, 113 198.333, 113 191.500 C 113 185.500, 112.700 184, 111.500 184 C 110.675 184, 110 183.325, 110 182.500 C 110 181.300, 108.500 181, 102.500 181 C 96.500 181, 95 180.700, 95 179.500 C 95 178.348, 93.722 178, 89.500 178 C 85.278 178, 84 178.348, 84 179.500 M 89.750 206.689 C 88.787 206.941, 88 207.789, 88 208.573 C 88 209.358, 87.100 210, 86 210 C 84.242 210, 84 210.667, 84 215.500 L 84 221 87.500 221 C 90.333 221, 91 220.619, 91 219 C 91 217.242, 91.667 217, 96.500 217 C 100.722 217, 102 216.652, 102 215.500 C 102 214.310, 103.444 214, 109 214 L 116 214 116.014 218.750 C 116.021 221.363, 116.299 224.512, 116.630 225.750 C 117.283 228.184, 120 228.883, 120 226.617 C 120 225.856, 120.900 224.998, 122 224.710 C 123.763 224.249, 124 223.346, 124 217.094 C 124 210.667, 123.812 210, 122 210 C 120.667 210, 120 209.333, 120 208 C 120 206.088, 119.372 206.005, 105.750 206.116 C 97.912 206.180, 90.713 206.438, 89.750 206.689 M 95.250 238.807 C 92.532 239.004, 91 239.595, 91 240.446 C 91 241.178, 89.425 242.073, 87.500 242.434 L 84 243.091 84 250.045 L 84 257 87.389 257 C 90.463 257, 90.838 256.678, 91.427 253.538 C 91.985 250.564, 92.564 249.985, 95.538 249.427 C 97.514 249.056, 99 248.181, 99 247.389 C 99 246.270, 101.721 246, 113 246 L 127 246 127 242.500 C 127 239.139, 126.851 238.996, 123.250 238.903 C 110.786 238.581, 98.935 238.541, 95.250 238.807" stroke="none" fill="black" fill-rule="evenodd"/>
</svg>