<svg xmlns="http://www.w3.org/2000/svg" width="300" height="300" viewBox="0 0 300 300" version="1.1">
	<path d="M 189 43.500 C 189 44.535, 187.961 45, 185.647 45 C 177.723 45, 170 46.304, 170 47.642 C 170 48.700, 167.677 49, 159.500 49 C 149.667 49, 149 49.127, 149 51 C 149 52.333, 148.333 53, 147 53 C 145.889 53, 145 53.667, 145 54.500 C 145 55.717, 143.378 56, 136.406 56 C 128.654 56, 127.762 56.196, 127.290 58 C 126.795 59.893, 125.926 60, 111 60 C 96.074 60, 95.205 60.107, 94.710 62 C 94.423 63.100, 93.470 64, 92.594 64 C 91.304 64, 91.003 65.192, 91.014 70.250 C 91.034 79.339, 91.668 81, 95.117 81 C 97.745 81, 98 80.691, 98 77.500 C 98 74.667, 98.381 74, 100 74 C 101.111 74, 102 73.333, 102 72.500 C 102 71.452, 103.056 71, 105.500 71 C 107.944 71, 109 71.452, 109 72.500 C 109 73.583, 110.111 74, 113 74 C 115.889 74, 117 73.583, 117 72.500 C 117 71.262, 118.833 71, 127.500 71 C 137.333 71, 138 70.873, 138 69 C 138 66.910, 138.993 66.624, 142.750 67.630 C 144.521 68.105, 145 68.953, 145 71.617 C 145 73.910, 144.532 75, 143.546 75 C 142.446 75, 142.019 76.646, 141.796 81.750 L 141.500 88.500 137.750 88.810 C 135.297 89.013, 134 89.619, 134 90.560 C 134 91.625, 132.672 92, 128.906 92 C 124.654 92, 123.726 92.330, 123.290 94 C 122.857 95.656, 121.926 96, 117.883 96 C 114.082 96, 113 96.353, 113 97.594 C 113 98.470, 112.100 99.423, 111 99.710 C 109.497 100.103, 109 101.074, 109 103.617 C 109 105.957, 108.538 107, 107.500 107 C 106.675 107, 105.994 107.563, 105.986 108.250 C 105.979 108.938, 105.701 110.513, 105.370 111.750 C 104.797 113.888, 105.047 114, 110.383 114 L 116 114 116 110.500 C 116 107.190, 116.183 107, 119.383 107 C 121.926 107, 122.897 106.503, 123.290 105 C 123.690 103.468, 124.654 103, 127.406 103 C 129.934 103, 131 102.555, 131 101.500 C 131 100.345, 132.291 100, 136.617 100 C 141.953 100, 142.203 100.112, 141.630 102.250 C 141.299 103.487, 141.021 106.638, 141.014 109.250 C 141.003 112.799, 140.621 114, 139.500 114 C 138.667 114, 138 114.889, 138 116 C 138 117.111, 137.333 118, 136.500 118 C 135.675 118, 135 118.675, 135 119.500 C 135 120.333, 134.111 121, 133 121 C 131.667 121, 131 121.667, 131 123 C 131 124.333, 130.333 125, 129 125 C 127.889 125, 127 125.667, 127 126.500 C 127 127.325, 126.325 128, 125.500 128 C 124.352 128, 124 129.265, 124 133.383 C 124 137.926, 124.312 138.848, 126 139.290 C 127.100 139.577, 128 140.530, 128 141.406 C 128 142.283, 128.450 143, 129 143 C 129.550 143, 130 143.623, 130 144.383 C 130 145.899, 127.032 146.965, 122.750 146.986 C 120.978 146.995, 120 147.534, 120 148.500 C 120 149.548, 118.944 150, 116.500 150 C 114.180 150, 113 150.468, 113 151.389 C 113 152.184, 111.505 153.058, 109.500 153.434 C 107.405 153.827, 106 154.675, 106 155.545 C 106 156.345, 105.100 157, 104 157 C 102.667 157, 102 157.667, 102 159 C 102 160.100, 101.377 161, 100.617 161 C 99.331 161, 98.045 163.840, 98.014 166.750 C 98.004 167.640, 100.159 168, 105.500 168 C 111.396 168, 113 167.689, 113 166.545 C 113 165.675, 114.405 164.827, 116.500 164.434 C 118.425 164.073, 120 163.205, 120 162.505 C 120 161.806, 120.900 160.998, 122 160.710 C 123.100 160.423, 124 159.470, 124 158.594 C 124 157.667, 124.837 157, 126 157 C 127.111 157, 128 156.333, 128 155.500 C 128 154.500, 129 154, 131 154 C 133.762 154, 134 154.278, 134 157.500 C 134 159.944, 133.548 161, 132.500 161 C 131.317 161, 130.996 162.424, 130.983 167.750 C 130.968 173.543, 130.629 174.819, 128.592 176.750 C 126.339 178.886, 125.426 179, 110.609 179 C 97.401 179, 95 179.231, 95 180.500 C 95 181.333, 94.111 182, 93 182 C 91.381 182, 91 181.333, 91 178.500 L 91 175 83.490 175 C 77.218 175, 75.698 175.330, 74.268 177 C 72.999 178.482, 71.318 179, 67.778 179 C 64.330 179, 63 179.393, 63 180.412 C 63 181.280, 61.459 182.085, 59 182.500 C 56.541 182.915, 55 183.720, 55 184.588 C 55 185.535, 53.848 186, 51.500 186 C 48.667 186, 48 186.381, 48 188 C 48 189.333, 47.333 190, 46 190 C 44.889 190, 44 190.667, 44 191.500 C 44 192.548, 42.944 193, 40.500 193 C 37.667 193, 37 193.381, 37 195 C 37 196.619, 36.333 197, 33.500 197 C 31.187 197, 30 197.469, 30 198.383 C 30 199.144, 29.100 200.002, 28 200.290 C 26.900 200.577, 26 201.530, 26 202.406 C 26 203.283, 25.325 204, 24.500 204 C 23.667 204, 23 204.889, 23 206 C 23 207.111, 22.333 208, 21.500 208 C 20.675 208, 20 208.675, 20 209.500 C 20 210.325, 20.675 211, 21.500 211 C 22.364 211, 23 211.903, 23 213.130 C 23 215.071, 23.409 215.214, 27.624 214.739 C 30.167 214.452, 32.529 213.775, 32.874 213.235 C 33.218 212.694, 34.948 211.937, 36.718 211.553 C 39.390 210.974, 40.046 210.273, 40.580 207.428 C 40.945 205.478, 41.822 204, 42.611 204 C 43.375 204, 44 203.375, 44 202.611 C 44 201.816, 45.495 200.942, 47.500 200.566 C 49.595 200.173, 51 199.325, 51 198.455 C 51 197.655, 51.848 197, 52.883 197 C 53.926 197, 55 196.107, 55.290 195 C 55.671 193.544, 56.654 193, 58.906 193 C 60.990 193, 62 192.510, 62 191.500 C 62 190.445, 63.066 190, 65.594 190 C 68.346 190, 69.310 189.532, 69.710 188 C 70.103 186.497, 71.074 186, 73.617 186 C 75.957 186, 77 185.538, 77 184.500 C 77 183.367, 78.222 183, 82 183 C 86.785 183, 87.001 183.118, 87.014 185.750 C 87.045 192.050, 87.845 193, 93.117 193 C 96.660 193, 98 192.612, 98 191.585 C 98 190.554, 100.032 189.980, 105.500 189.468 C 110.878 188.964, 113 188.374, 113 187.383 C 113 186.316, 114.911 186, 121.361 186 L 129.721 186 130.352 191.250 C 130.699 194.138, 130.987 199.762, 130.991 203.750 C 130.998 209.524, 131.305 211, 132.500 211 C 133.523 211, 134.004 212.034, 134.014 214.250 C 134.034 219, 135.041 222, 136.617 222 C 137.377 222, 138 222.900, 138 224 C 138 225.111, 138.667 226, 139.500 226 C 140.325 226, 141 226.717, 141 227.594 C 141 228.470, 141.900 229.423, 143 229.710 C 144.100 229.998, 145 230.856, 145 231.617 C 145 232.377, 145.900 233, 147 233 C 148.100 233, 148.994 233.563, 148.986 234.250 C 148.955 237.160, 147.669 240, 146.383 240 C 145.623 240, 145 240.655, 145 241.455 C 145 242.325, 143.595 243.173, 141.500 243.566 C 139.495 243.942, 138 244.816, 138 245.611 C 138 246.375, 137.100 247, 136 247 C 134.667 247, 134 247.667, 134 249 C 134 250.619, 133.333 251, 130.500 251 C 126.235 251, 125.669 253.488, 129.750 254.292 C 133.597 255.050, 138 254.032, 138 252.383 C 138 251.469, 139.187 251, 141.500 251 C 144.333 251, 145 250.619, 145 249 C 145 247.667, 145.667 247, 147 247 C 148.100 247, 149 246.375, 149 245.611 C 149 244.816, 150.495 243.942, 152.500 243.566 C 154.595 243.173, 156 242.325, 156 241.455 C 156 240.459, 157.104 240, 159.500 240 C 161.896 240, 163 240.459, 163 241.455 C 163 242.325, 164.405 243.173, 166.500 243.566 C 168.505 243.942, 170 244.816, 170 245.611 C 170 246.523, 171.163 247, 173.383 247 C 175.926 247, 176.897 247.497, 177.290 249 C 177.690 250.532, 178.654 251, 181.406 251 C 183.934 251, 185 251.445, 185 252.500 C 185 253.575, 186.097 254, 188.875 254 C 194.772 254, 199 255.096, 199 256.625 C 199 257.728, 201.864 258, 213.500 258 L 228 258 228 254.250 L 228.001 250.500 217.932 250.500 C 209.382 250.500, 207.714 250.236, 206.881 248.750 C 206.153 247.451, 204.625 247, 200.950 247 C 197.417 247, 196 246.606, 196 245.625 C 196 244.254, 191.880 243, 187.375 243 C 185.931 243, 185 242.412, 185 241.500 C 185 240.462, 183.957 240, 181.617 240 C 179.074 240, 178.103 239.503, 177.710 238 C 177.329 236.544, 176.346 236, 174.094 236 C 172.010 236, 171 235.510, 171 234.500 C 171 233.675, 170.127 233, 169.059 233 C 167.991 233, 166.920 232.662, 166.678 232.250 C 165.794 230.743, 167.264 225, 168.534 225 C 169.253 225, 170.138 223.650, 170.500 222 C 170.862 220.350, 171.798 219, 172.579 219 C 173.361 219, 174 218.100, 174 217 C 174 215.900, 174.655 215, 175.455 215 C 176.325 215, 177.173 213.595, 177.566 211.500 C 177.942 209.495, 178.816 208, 179.611 208 C 180.539 208, 181 206.806, 181 204.406 C 181 201.654, 181.468 200.690, 183 200.290 C 184.656 199.857, 185 198.926, 185 194.883 C 185 191.209, 185.371 190, 186.500 190 C 187.333 190, 188 189.111, 188 188 C 188 186.333, 188.667 186, 192 186 C 194.889 186, 196 185.583, 196 184.500 C 196 183.236, 198.278 183, 210.500 183 C 222.722 183, 225 183.236, 225 184.500 C 225 185.500, 226 186, 228 186 C 230 186, 231 185.500, 231 184.500 C 231 183.300, 232.500 183, 238.500 183 C 244.500 183, 246 183.300, 246 184.500 C 246 185.690, 247.444 186, 253 186 C 258.273 186, 260 185.661, 260 184.625 C 260 182.986, 264.409 181.954, 268.236 182.697 C 272.686 183.560, 277.714 182.200, 278.296 179.975 C 278.580 178.889, 279.530 178, 280.406 178 C 281.283 178, 282 177.550, 282 177 C 282 176.450, 281.283 176, 280.406 176 C 279.530 176, 278.577 175.100, 278.290 174 C 277.914 172.565, 276.926 172, 274.790 172 C 272.654 172, 271.665 171.435, 271.290 170 C 270.669 167.628, 268 167.298, 268 169.594 C 268 170.470, 267.100 171.423, 266 171.710 C 264.900 171.998, 264 172.856, 264 173.617 C 264 174.769, 257.984 175, 228 175 C 192.667 175, 192 174.963, 192 173 C 192 171.900, 192.639 171, 193.421 171 C 194.202 171, 195.134 169.664, 195.493 168.032 C 196.020 165.634, 196.804 164.940, 199.572 164.420 C 202.907 163.795, 203 163.648, 203 159.005 C 203 155.074, 202.648 154.141, 201 153.710 C 199.900 153.423, 199 152.470, 199 151.594 C 199 150.439, 198.036 150, 195.500 150 C 193.187 150, 192 150.469, 192 151.383 C 192 152.144, 191.100 153.002, 190 153.290 C 188.468 153.690, 188 154.654, 188 157.406 C 188 159.934, 187.555 161, 186.500 161 C 185.379 161, 184.997 162.201, 184.986 165.750 C 184.961 174.675, 184.934 174.700, 175.221 175.210 C 169.907 175.489, 166.464 176.109, 166.223 176.831 C 165.749 178.252, 160 178.408, 160 177 C 160 176.450, 159.100 176, 158 176 C 156.889 176, 156 176.667, 156 177.500 C 156 178.688, 154.569 179, 149.117 179 C 140.972 179, 141.085 179.206, 141.796 165.667 C 142.135 159.202, 142.600 157, 143.625 157 C 144.455 157, 145.005 155.910, 145.014 154.250 C 145.041 148.813, 146.057 147.080, 149.610 146.413 C 151.531 146.053, 153 145.175, 153 144.389 C 153 143.503, 154.121 143, 156.094 143 C 158.346 143, 159.329 142.456, 159.710 141 C 160.103 139.497, 161.074 139, 163.617 139 C 165.957 139, 167 138.538, 167 137.500 C 167 136.534, 167.978 135.995, 169.750 135.986 C 174.032 135.965, 177 134.899, 177 133.383 C 177 132.436, 178.261 132, 181 132 C 183.889 132, 185 131.583, 185 130.500 C 185 129.675, 185.675 129, 186.500 129 C 187.325 129, 188 129.675, 188 130.500 C 188 131.325, 187.375 132, 186.611 132 C 185.816 132, 184.942 133.495, 184.566 135.500 C 184.173 137.595, 183.325 139, 182.455 139 C 181.655 139, 181 139.900, 181 141 C 181 142.333, 180.333 143, 179 143 C 177.889 143, 177 143.667, 177 144.500 C 177 145.325, 176.325 146, 175.500 146 C 174.417 146, 174 147.111, 174 150 C 174 153.333, 174.333 154, 176 154 C 177.333 154, 178 153.333, 178 152 C 178 150.381, 178.667 150, 181.500 150 C 184.833 150, 185 149.833, 185 146.500 C 185 143.667, 185.381 143, 187 143 C 188.333 143, 189 142.333, 189 141 C 189 139.889, 189.667 139, 190.500 139 C 191.325 139, 192 138.377, 192 137.617 C 192 136.856, 192.900 135.998, 194 135.710 C 195.456 135.329, 196 134.346, 196 132.094 C 196 130.010, 196.490 129, 197.500 129 C 198.555 129, 199 127.934, 199 125.406 C 199 122.654, 199.468 121.690, 201 121.290 C 202.503 120.897, 203 119.926, 203 117.383 C 203 115.179, 203.479 114, 204.375 114 C 205.746 114, 207 109.880, 207 105.375 C 207 103.931, 207.588 103, 208.500 103 C 209.722 103, 210 101.333, 210 94 C 210 87.004, 209.692 85, 208.617 85 C 207.856 85, 206.998 84.100, 206.710 83 C 206.249 81.237, 205.346 81, 199.094 81 C 193.455 81, 192 80.692, 192 79.500 C 192 78.452, 190.944 78, 188.500 78 C 186.056 78, 185 78.452, 185 79.500 C 185 80.565, 183.913 81.003, 181.250 81.009 C 173.987 81.026, 167 82.258, 167 83.523 C 167 84.718, 154.529 86.267, 152.750 85.293 C 151.860 84.805, 151.763 69.485, 152.630 66.250 C 152.962 65.013, 153.856 64, 154.617 64 C 155.377 64, 156 63.100, 156 62 C 156 60.121, 156.667 60, 167 60 C 176.111 60, 178 59.742, 178 58.500 C 178 56.844, 178.482 56.771, 191.500 56.449 C 202.411 56.179, 206 56.706, 206 58.579 C 206 59.361, 206.900 60, 208 60 C 209.100 60, 210 59.377, 210 58.617 C 210 57.856, 210.900 56.998, 212 56.710 C 213.676 56.272, 214 55.346, 214 51 C 214 46.654, 213.676 45.728, 212 45.290 C 210.900 45.002, 210 44.144, 210 43.383 C 210 42.293, 207.773 42, 199.500 42 C 190.833 42, 189 42.262, 189 43.500 M 178 90.371 C 178 91.336, 175.927 91.946, 171 92.431 C 165.895 92.934, 164 93.511, 164 94.561 C 164 95.653, 162.554 96, 158 96 C 153.333 96, 152 96.333, 152 97.500 C 152 98.325, 151.325 99, 150.500 99 C 149.335 99, 149 100.327, 149 104.939 L 149 110.877 161.500 110.287 L 174 109.696 174 117.348 L 174 125 177.500 125 C 180.333 125, 181 124.619, 181 123 C 181 121.242, 181.667 121, 186.500 121 C 190.722 121, 192 120.652, 192 119.500 C 192 118.675, 192.619 118, 193.375 118 C 194.746 118, 196 113.880, 196 109.375 C 196 107.931, 196.588 107, 197.500 107 C 198.700 107, 199 105.500, 199 99.500 C 199 92.667, 198.822 92, 197 92 C 195.889 92, 195 91.333, 195 90.500 C 195 89.284, 193.389 89, 186.500 89 C 179.967 89, 178 89.317, 178 90.371 M 37.198 101.250 L 37.500 106.500 46 106.637 C 67.250 106.979, 66 106.831, 66 109 C 66 110.333, 66.667 111, 68 111 C 69.111 111, 70 111.667, 70 112.500 C 70 113.325, 70.675 114, 71.500 114 C 72.325 114, 73 113.283, 73 112.406 C 73 111.530, 73.900 110.577, 75 110.290 C 76.100 110.002, 77 109.144, 77 108.383 C 77 107.623, 76.100 107, 75 107 C 73.393 107, 73 106.333, 73 103.611 C 73 100.530, 72.682 100.163, 69.500 99.566 C 67.405 99.173, 66 98.325, 66 97.455 C 66 96.248, 63.515 96, 51.448 96 L 36.895 96 37.198 101.250 M 163 119.500 C 163 120.621, 161.799 121.003, 158.250 121.014 C 150.902 121.035, 149.002 121.825, 148.986 124.867 C 148.965 129.040, 147.885 132, 146.383 132 C 144.885 132, 144.689 133.238, 145.630 136.750 C 146.294 139.226, 148 139.829, 148 137.588 C 148 136.720, 149.541 135.915, 152 135.500 C 154.459 135.085, 156 134.280, 156 133.412 C 156 132.431, 157.222 132, 160 132 C 162.752 132, 164 131.566, 164 130.607 C 164 129.841, 164.675 128.955, 165.500 128.638 C 166.558 128.232, 167 126.581, 167 123.031 C 167 118.667, 166.735 118, 165 118 C 163.889 118, 163 118.667, 163 119.500 M 134.290 130 C 134.002 131.100, 133.201 132, 132.511 132 C 131.728 132, 131.059 133.978, 130.737 137.250 C 130.452 140.137, 130.349 142.642, 130.507 142.814 C 130.666 142.987, 132.417 142.825, 134.398 142.453 L 138 141.777 138 134.889 C 138 129.252, 137.710 128, 136.406 128 C 135.530 128, 134.577 128.900, 134.290 130 M 51.710 141 C 51.274 142.670, 50.346 143, 46.094 143 C 42.233 143, 41 143.363, 41 144.500 C 41 145.555, 39.934 146, 37.406 146 C 34.654 146, 33.690 146.468, 33.290 148 C 33.002 149.100, 32.144 150, 31.383 150 C 30.623 150, 30 150.900, 30 152 C 30 153.111, 30.667 154, 31.500 154 C 32.325 154, 33 154.675, 33 155.500 C 33 156.700, 34.500 157, 40.500 157 C 46.396 157, 48 156.689, 48 155.545 C 48 154.675, 49.405 153.827, 51.500 153.434 C 53.505 153.058, 55 152.184, 55 151.389 C 55 150.307, 56.987 150, 64 150 C 72.333 150, 73 150.148, 73 152 C 73 153.613, 73.667 154, 76.441 154 C 78.334 154, 80.132 153.596, 80.437 153.103 C 81.409 151.530, 79.804 146, 78.375 146 C 77.619 146, 77 145.325, 77 144.500 C 77 143.348, 75.722 143, 71.500 143 C 67.484 143, 66 142.627, 66 141.617 C 66 139.907, 62.929 139.032, 56.867 139.014 C 53.068 139.002, 52.139 139.360, 51.710 141 M 145 187.455 C 145 188.325, 143.595 189.173, 141.500 189.566 C 138.318 190.163, 138 190.530, 138 193.611 C 138 195.830, 138.478 197, 139.383 197 C 141.103 197, 141.969 200.077, 141.986 206.250 C 141.997 209.799, 142.379 211, 143.500 211 C 144.333 211, 145 211.889, 145 213 C 145 214.100, 145.655 215, 146.455 215 C 147.325 215, 148.173 216.405, 148.566 218.500 C 149.041 221.033, 149.745 222, 151.111 222 C 152.150 222, 153 222.626, 153 223.392 C 153 224.895, 157.484 226.437, 159.046 225.472 C 159.571 225.147, 160 224.234, 160 223.441 C 160 222.648, 160.675 222, 161.500 222 C 162.548 222, 163 220.944, 163 218.500 C 163 215.667, 163.381 215, 165 215 C 166.333 215, 167 214.333, 167 213 C 167 211.889, 167.667 211, 168.500 211 C 169.548 211, 170 209.944, 170 207.500 C 170 204.667, 170.381 204, 172 204 C 173.727 204, 174 203.333, 174 199.117 C 174 195.074, 174.344 194.143, 176 193.710 C 177.532 193.310, 178 192.346, 178 189.594 L 178 186 161.500 186 C 147.728 186, 145 186.241, 145 187.455" stroke="none" fill="black" fill-rule="evenodd"/>
</svg>