<svg xmlns="http://www.w3.org/2000/svg" width="300" height="300" viewBox="0 0 300 300" version="1.1">
	<path d="M 101.750 38.689 C 100.787 38.941, 100 39.789, 100 40.573 C 100 41.358, 99.100 42, 98 42 C 96.889 42, 96 42.667, 96 43.500 C 96 44.333, 95.111 45, 94 45 C 92.667 45, 92 45.667, 92 47 C 92 48.619, 91.333 49, 88.500 49 C 85.667 49, 85 49.381, 85 51 C 85 52.100, 84.377 53, 83.617 53 C 82.856 53, 81.998 53.900, 81.710 55 C 81.423 56.100, 80.470 57, 79.594 57 C 78.717 57, 78 57.675, 78 58.500 C 78 59.548, 76.944 60, 74.500 60 C 72.187 60, 71 59.531, 71 58.617 C 71 57.856, 70.100 56.998, 69 56.710 C 67.900 56.423, 67 55.470, 67 54.594 C 67 53.717, 66.325 53, 65.500 53 C 64.675 53, 64 52.283, 64 51.406 C 64 50.530, 63.100 49.577, 62 49.290 C 60.497 48.897, 60 47.926, 60 45.383 L 60 42 54.500 42 L 49 42 49 45.531 C 49 47.681, 49.563 49.279, 50.439 49.615 C 51.230 49.919, 52.163 51.465, 52.511 53.052 C 53.018 55.359, 53.832 56.065, 56.572 56.580 C 59.675 57.162, 60 57.544, 60 60.611 L 60 64 65 64 C 68.778 64, 70 64.367, 70 65.500 C 70 66.325, 69.325 67, 68.500 67 C 67.667 67, 67 67.889, 67 69 C 67 70.100, 66.377 71, 65.617 71 C 64.856 71, 63.998 71.900, 63.710 73 C 63.423 74.100, 62.470 75, 61.594 75 C 60.717 75, 60 75.675, 60 76.500 C 60 77.325, 59.377 78, 58.617 78 C 57.856 78, 56.998 78.900, 56.710 80 C 56.423 81.100, 55.470 82, 54.594 82 C 53.717 82, 53 82.675, 53 83.500 C 53 84.333, 52.111 85, 51 85 C 49.667 85, 49 85.667, 49 87 C 49 88.619, 48.333 89, 45.500 89 C 43.187 89, 42 89.469, 42 90.383 C 42 91.144, 41.100 92.002, 40 92.290 C 38.330 92.726, 38 93.654, 38 97.906 L 38 103 41.500 103 C 43.944 103, 45 102.548, 45 101.500 C 45 100.324, 46.375 100, 51.375 100 C 59.634 100, 64 99.092, 64 97.375 C 64 96.392, 65.424 96, 69 96 L 74 96 74 112.500 C 74 126.500, 73.773 129, 72.500 129 C 71.675 129, 71 129.675, 71 130.500 C 71 131.652, 69.722 132, 65.500 132 C 61.354 132, 60 132.358, 60 133.455 C 60 134.325, 58.595 135.173, 56.500 135.566 C 54.495 135.942, 53 136.816, 53 137.611 C 53 138.628, 51.526 139, 47.500 139 C 42.667 139, 42 139.242, 42 141 C 42 142.333, 41.333 143, 40 143 C 38.889 143, 38 143.667, 38 144.500 C 38 145.325, 37.325 146, 36.500 146 C 35.667 146, 35 146.889, 35 148 C 35 149.111, 35.667 150, 36.500 150 C 37.325 150, 38 150.648, 38 151.441 C 38 152.234, 38.429 153.147, 38.954 153.472 C 40.516 154.437, 45 152.895, 45 151.392 C 45 150.435, 46.250 150, 49 150 C 51.889 150, 53 149.583, 53 148.500 C 53 147.452, 54.056 147, 56.500 147 C 59.333 147, 60 146.619, 60 145 C 60 143.242, 60.667 143, 65.500 143 C 70.333 143, 71 142.758, 71 141 C 71 139.381, 71.667 139, 74.500 139 C 77.333 139, 78 139.381, 78 141 C 78 142.111, 77.333 143, 76.500 143 C 75.675 143, 75 143.675, 75 144.500 C 75 145.325, 75.675 146, 76.500 146 C 77.583 146, 78 147.111, 78 150 C 78 152.889, 77.583 154, 76.500 154 C 75.452 154, 75 155.056, 75 157.500 C 75 159.944, 75.452 161, 76.500 161 C 77.325 161, 78 161.675, 78 162.500 C 78 163.325, 77.325 164, 76.500 164 C 75.667 164, 75 164.889, 75 166 C 75 167.333, 74.333 168, 73 168 C 71.900 168, 71 168.619, 71 169.375 C 71 170.746, 66.880 172, 62.375 172 C 60.931 172, 60 172.588, 60 173.500 C 60 174.544, 58.950 175, 56.550 175 C 54.360 175, 52.756 175.613, 52.160 176.678 C 51.491 177.873, 49.461 178.484, 45.111 178.798 C 40.796 179.110, 39 179.646, 39 180.620 C 39 181.507, 37.840 182.005, 35.750 182.014 C 31 182.034, 28 183.041, 28 184.617 C 28 185.377, 27.100 186, 26 186 C 24.889 186, 24 186.667, 24 187.500 C 24 188.325, 23.352 189, 22.559 189 C 20.470 189, 19.926 190.380, 20.629 193.897 L 21.250 197 28.125 197 C 33.312 197, 35 196.660, 35 195.617 C 35 194.101, 37.968 193.035, 42.250 193.014 C 44.022 193.005, 45 192.466, 45 191.500 C 45 190.667, 45.889 190, 47 190 C 48.333 190, 49 189.333, 49 188 C 49 186.242, 49.667 186, 54.500 186 C 58.703 186, 60 185.649, 60 184.512 C 60 183.549, 61.412 182.798, 64 182.384 C 66.413 181.998, 68 181.200, 68 180.372 C 68 179.392, 69.429 179, 73 179 C 76.778 179, 78 179.367, 78 180.500 C 78 181.325, 77.325 182, 76.500 182 C 75.667 182, 75 182.889, 75 184 C 75 185.111, 75.667 186, 76.500 186 C 77.333 186, 78 186.889, 78 188 C 78 189.100, 77.378 190, 76.618 190 C 75.498 190, 75.096 194.746, 74.500 215 C 73.904 235.254, 73.502 240, 72.382 240 C 71.294 240, 71 242.231, 71 250.500 L 71 261 74.500 261 L 78 261 78 254 C 78 248.727, 78.339 247, 79.375 247 C 81.246 247, 82 242.511, 82 231.375 C 82 223.708, 82.273 222, 83.500 222 C 84.786 222, 85.002 218.965, 85.017 200.750 C 85.034 179.694, 85.056 179.479, 87.408 177.250 C 88.714 176.013, 90.281 175, 90.891 175 C 91.501 175, 92 174.325, 92 173.500 C 92 172.588, 92.931 172, 94.375 172 C 98.880 172, 103 170.746, 103 169.375 C 103 168.438, 104.273 168, 107 168 C 109.722 168, 111 167.562, 111 166.629 C 111 165.739, 112.754 165.025, 116 164.594 C 119.424 164.140, 121 163.469, 121 162.466 C 121 161.422, 122.153 161, 125 161 C 127.834 161, 129 160.576, 129 159.545 C 129 158.675, 130.405 157.827, 132.500 157.434 C 135.682 156.837, 136 156.470, 136 153.389 L 136 150 130.500 150 C 126.430 150, 125 150.367, 125 151.412 C 125 152.280, 123.459 153.085, 121 153.500 C 118.746 153.881, 117 154.740, 117 155.468 C 117 156.334, 114.989 156.905, 110.889 157.202 C 106.539 157.516, 104.509 158.127, 103.840 159.322 C 103.158 160.540, 101.544 161, 97.950 161 C 94.417 161, 93 161.394, 93 162.375 C 93 163.804, 87.470 165.409, 85.897 164.437 C 84.902 163.821, 84.678 141.805, 85.630 138.250 C 85.962 137.012, 86.856 136, 87.617 136 C 88.377 136, 89 135.100, 89 134 C 89 132.242, 89.667 132, 94.500 132 L 100 132 100 135.383 C 100 138.047, 100.479 138.895, 102.250 139.370 C 106.831 140.597, 107 140.353, 107 132.500 L 107 125 101.500 125 C 97.278 125, 96 124.652, 96 123.500 C 96 122.675, 95.373 122, 94.607 122 C 93.841 122, 92.955 122.675, 92.638 123.500 C 92.277 124.441, 90.748 125, 88.531 125 C 85.078 125, 85 124.912, 85 121 C 85 118.111, 84.583 117, 83.500 117 C 82.367 117, 82 115.778, 82 112 C 82 108.222, 82.367 107, 83.500 107 C 84.583 107, 85 105.889, 85 103 C 85 99.599, 85.316 99, 87.107 99 C 88.569 99, 89.038 98.541, 88.638 97.500 C 88.186 96.322, 88.915 96, 92.031 96 C 94.892 96, 96 95.581, 96 94.500 C 96 93.675, 96.675 93, 97.500 93 C 98.633 93, 99 94.222, 99 98 C 99 101.778, 98.633 103, 97.500 103 C 96.667 103, 96 103.889, 96 105 C 96 106.607, 96.667 107, 99.389 107 C 102.470 107, 102.837 106.682, 103.434 103.500 C 103.838 101.349, 104.668 100, 105.589 100 C 106.810 100, 107.033 98.655, 106.794 92.750 L 106.500 85.500 86.750 85.229 C 69.620 84.994, 67 85.160, 67 86.479 C 67 87.315, 66.325 88, 65.500 88 C 64.509 88, 64 87.009, 64 85.079 C 64 82.647, 64.502 82.049, 67 81.500 C 68.650 81.138, 70 80.202, 70 79.421 C 70 78.639, 70.848 78, 71.883 78 C 72.926 78, 74 77.107, 74.290 76 C 74.577 74.900, 75.530 74, 76.406 74 C 77.283 74, 78 73.325, 78 72.500 C 78 71.667, 78.889 71, 80 71 C 81.333 71, 82 70.333, 82 69 C 82 67.889, 82.667 67, 83.500 67 C 84.325 67, 85 66.325, 85 65.500 C 85 64.667, 85.889 64, 87 64 C 88.333 64, 89 63.333, 89 62 C 89 60.667, 89.667 60, 91 60 C 92.111 60, 93 59.333, 93 58.500 C 93 57.675, 93.675 57, 94.500 57 C 95.333 57, 96 56.111, 96 55 C 96 53.667, 96.667 53, 98 53 C 99.333 53, 100 52.333, 100 51 C 100 49.667, 100.667 49, 102 49 C 103.111 49, 104 48.333, 104 47.500 C 104 46.675, 104.675 46, 105.500 46 C 106.333 46, 107 45.111, 107 44 C 107 42.889, 107.667 42, 108.500 42 C 110.854 42, 110.253 39.301, 107.750 38.630 C 105.317 37.978, 104.438 37.987, 101.750 38.689 M 132.750 81.658 C 130.368 81.952, 129 82.646, 129 83.560 C 129 84.352, 128.100 85, 127 85 C 125.148 85, 125 85.667, 125 94 L 125 103 128.500 103 C 131.833 103, 132 102.833, 132 99.500 C 132 96.667, 132.381 96, 134 96 C 135.100 96, 136 95.363, 136 94.585 C 136 92.764, 146.555 91.750, 161 92.184 L 171.500 92.500 171.794 99.750 C 172.019 105.296, 172.430 107, 173.544 107 C 174.345 107, 175 107.675, 175 108.500 C 175 109.325, 174.325 110, 173.500 110 C 172.231 110, 171.998 112.423, 171.986 125.750 C 171.979 134.412, 171.708 142.487, 171.385 143.693 C 171.015 145.073, 169.722 146.122, 167.898 146.522 C 166.304 146.872, 165 147.798, 165 148.579 C 165 149.361, 164.100 150, 163 150 C 161.900 150, 161 150.625, 161 151.389 C 161 152.184, 159.505 153.058, 157.500 153.434 C 155.405 153.827, 154 154.675, 154 155.545 C 154 156.345, 153.100 157, 152 157 C 150.667 157, 150 157.667, 150 159 C 150 160.619, 149.333 161, 146.500 161 C 144.056 161, 143 161.452, 143 162.500 C 143 163.333, 142.111 164, 141 164 C 139.667 164, 139 164.667, 139 166 C 139 167.619, 138.333 168, 135.500 168 C 133.152 168, 132 168.465, 132 169.412 C 132 170.280, 130.459 171.085, 128 171.500 C 125.541 171.915, 124 172.720, 124 173.588 C 124 174.535, 122.848 175, 120.500 175 C 117.667 175, 117 175.381, 117 177 C 117 178.111, 116.333 179, 115.500 179 C 114.675 179, 114 179.675, 114 180.500 C 114 181.325, 114.675 182, 115.500 182 C 116.333 182, 117 182.889, 117 184 C 117 185.333, 117.667 186, 119 186 C 120.100 186, 121 185.381, 121 184.625 C 121 183.254, 125.120 182, 129.625 182 C 131.069 182, 132 181.412, 132 180.500 C 132 179.667, 132.889 179, 134 179 C 135.333 179, 136 178.333, 136 177 C 136 175.381, 136.667 175, 139.500 175 C 141.944 175, 143 174.548, 143 173.500 C 143 172.675, 143.717 172, 144.594 172 C 145.470 172, 146.423 171.100, 146.710 170 C 147.074 168.608, 148.074 168, 150 168 C 151.926 168, 152.926 167.392, 153.290 166 C 153.577 164.900, 154.530 164, 155.406 164 C 156.283 164, 157 163.375, 157 162.611 C 157 161.816, 158.495 160.942, 160.500 160.566 C 162.671 160.159, 164 159.334, 164 158.394 C 164 157.259, 164.923 156.957, 167.683 157.190 L 171.366 157.500 171.363 166 C 171.353 204.625, 170.989 214, 169.500 214 C 168.567 214, 168 214.944, 168 216.500 C 168 218.333, 167.467 219, 166 219 C 164.667 219, 164 218.333, 164 217 C 164 215.889, 163.333 215, 162.500 215 C 161.667 215, 161 214.111, 161 213 C 161 211.667, 160.333 211, 159 211 C 157.900 211, 157.006 211.563, 157.014 212.250 C 157.045 215.160, 158.331 218, 159.617 218 C 160.531 218, 161 219.187, 161 221.500 C 161 223.944, 161.452 225, 162.500 225 C 163.333 225, 164 225.889, 164 227 C 164 228.333, 164.667 229, 166 229 C 167.333 229, 168 229.667, 168 231 C 168 232.100, 168.563 232.994, 169.250 232.986 C 172.160 232.955, 175 231.669, 175 230.383 C 175 229.623, 175.623 229, 176.383 229 C 178.687 229, 178.972 225.575, 178.986 197.750 C 178.998 174.645, 179.204 171, 180.500 171 C 181.633 171, 182 169.778, 182 166 C 182 162.222, 181.633 161, 180.500 161 C 179.675 161, 179 160.325, 179 159.500 C 179 158.675, 179.675 158, 180.500 158 C 181.486 158, 182 157.014, 182 155.125 C 182 150.159, 183.196 146, 184.625 146 C 185.530 146, 186 144.803, 186 142.500 C 186 139.667, 185.619 139, 184 139 C 181.665 139, 181.591 137.511, 182.660 111.750 C 183.166 99.557, 183.616 96, 184.657 96 C 185.618 96, 186 94.437, 186 90.500 L 186 85 180.500 85 C 176.278 85, 175 84.652, 175 83.500 C 175 82.315, 173.582 81.999, 168.250 81.996 C 164.537 81.994, 155.875 81.813, 149 81.593 C 142.125 81.374, 134.813 81.403, 132.750 81.658 M 269 83.500 C 269 84.722, 267.333 85, 260 85 C 253.004 85, 251 85.308, 251 86.383 C 251 88.241, 247.848 88.970, 239.750 88.986 C 234.423 88.997, 233 89.316, 233 90.500 C 233 91.751, 230.966 92.002, 220.750 92.014 C 207.280 92.029, 204 92.538, 204 94.617 C 204 95.627, 202.516 96, 198.500 96 C 194.484 96, 193 96.373, 193 97.383 C 193 98.144, 192.100 99.002, 191 99.290 C 188.920 99.834, 188.389 103.117, 189.630 107.750 C 190.105 109.521, 190.953 110, 193.617 110 C 195.957 110, 197 109.538, 197 108.500 C 197 107.667, 197.889 107, 199 107 C 200.100 107, 201 106.377, 201 105.617 C 201 103.405, 204.364 103.028, 224.250 103.014 C 240.244 103.002, 243 102.780, 243 101.500 C 243 100.477, 244.034 99.996, 246.250 99.986 C 251 99.966, 254 98.959, 254 97.383 C 254 96.373, 255.484 96, 259.500 96 L 265 96 265 99.383 C 265 101.926, 265.497 102.897, 267 103.290 C 268.904 103.788, 269 104.654, 269 121.406 C 269 136.378, 269.224 139, 270.500 139 C 271.652 139, 272 140.278, 272 144.500 L 272 150 268.500 150 C 266.180 150, 265 150.468, 265 151.389 C 265 152.184, 263.505 153.058, 261.500 153.434 C 259.405 153.827, 258 154.675, 258 155.545 C 258 156.576, 256.832 157, 253.990 157 C 251.218 157, 249.452 157.617, 248.268 159 C 247.326 160.100, 245.756 161, 244.778 161 C 243.800 161, 243 161.675, 243 162.500 C 243 163.548, 241.944 164, 239.500 164 C 236.667 164, 236 164.381, 236 166 C 236 167.619, 235.333 168, 232.500 168 C 230.104 168, 229 168.459, 229 169.455 C 229 170.325, 227.595 171.173, 225.500 171.566 C 223.495 171.942, 222 172.816, 222 173.611 C 222 174.375, 221.100 175, 220 175 C 218.889 175, 218 175.667, 218 176.500 C 218 177.325, 217.325 178, 216.500 178 C 215.417 178, 215 179.111, 215 182 L 215 186 222 186 C 227.293 186, 229 185.663, 229 184.617 C 229 183.856, 229.900 182.998, 231 182.710 C 232.100 182.423, 233 181.520, 233 180.705 C 233 179.803, 234.369 178.966, 236.500 178.566 C 238.595 178.173, 240 177.325, 240 176.455 C 240 175.655, 240.675 175, 241.500 175 C 242.325 175, 243 174.325, 243 173.500 C 243 172.667, 243.889 172, 245 172 C 246.333 172, 247 171.333, 247 170 C 247 168.381, 247.667 168, 250.500 168 C 252.820 168, 254 167.532, 254 166.611 C 254 165.816, 255.495 164.942, 257.500 164.566 C 259.595 164.173, 261 163.325, 261 162.455 C 261 161.655, 261.900 161, 263 161 C 264.333 161, 265 160.333, 265 159 C 265 157.381, 265.667 157, 268.500 157 L 272 157 272 180.500 C 272 200.722, 271.791 204, 270.500 204 C 269.348 204, 269 205.278, 269 209.500 C 269 214.333, 268.758 215, 267 215 C 265.667 215, 265 215.667, 265 217 C 265 218.100, 264.361 219, 263.579 219 C 262.798 219, 261.862 220.350, 261.500 222 C 261.138 223.650, 260.202 225, 259.421 225 C 258.639 225, 258 225.900, 258 227 C 258 228.333, 257.333 229, 256 229 C 254.667 229, 254 229.667, 254 231 C 254 232.619, 253.333 233, 250.500 233 C 248.187 233, 247 233.469, 247 234.383 C 247 235.144, 246.100 236.002, 245 236.290 C 243.900 236.577, 243 237.530, 243 238.406 C 243 239.333, 243.837 240, 245 240 C 246.111 240, 247 240.667, 247 241.500 C 247 242.548, 248.056 243, 250.500 243 C 252.944 243, 254 242.548, 254 241.500 C 254 240.667, 254.889 240, 256 240 C 257.111 240, 258 239.333, 258 238.500 C 258 237.675, 258.717 237, 259.594 237 C 260.470 237, 261.423 236.100, 261.710 235 C 261.998 233.900, 262.856 233, 263.617 233 C 264.377 233, 265 232.100, 265 231 C 265 229.667, 265.667 229, 267 229 C 268.111 229, 269 228.333, 269 227.500 C 269 226.675, 269.717 226, 270.594 226 C 271.470 226, 272.423 225.100, 272.710 224 C 272.998 222.900, 273.856 222, 274.617 222 C 275.531 222, 276 220.813, 276 218.500 C 276 216.187, 276.469 215, 277.383 215 C 278.144 215, 279.038 213.988, 279.370 212.750 C 280.173 209.752, 280.157 118.953, 279.352 112.250 C 278.937 108.798, 278.255 107, 277.361 107 C 276.296 107, 276 104.611, 276 96 C 276 85.667, 275.879 85, 274 85 C 272.889 85, 272 84.333, 272 83.500 C 272 82.675, 271.325 82, 270.500 82 C 269.675 82, 269 82.675, 269 83.500 M 135.161 122.677 C 134.664 123.565, 132.344 124.432, 129.651 124.736 L 125 125.260 125 130.013 C 125 135.223, 125.953 135.958, 132.750 135.986 C 135.338 135.997, 136 135.593, 136 134 C 136 132.190, 136.667 132, 143 132 C 149.333 132, 150 132.190, 150 134 C 150 135.111, 150.667 136, 151.500 136 C 152.325 136, 153 136.675, 153 137.500 C 153 138.325, 152.325 139, 151.500 139 C 150.452 139, 150 140.056, 150 142.500 C 150 145.833, 150.167 146, 153.500 146 L 157 146 157 140.969 C 157 137.419, 157.442 135.768, 158.500 135.362 C 160.141 134.732, 160.584 132, 159.045 132 C 158.520 132, 157.795 130.425, 157.434 128.500 C 156.837 125.318, 156.470 125, 153.389 125 C 151.043 125, 150 124.538, 150 123.500 C 150 121.938, 149.809 121.892, 141.260 121.427 C 137.371 121.215, 135.799 121.537, 135.161 122.677 M 247 126.500 C 247 127.412, 246.069 128, 244.625 128 C 240.120 128, 236 129.254, 236 130.625 C 236 131.530, 234.803 132, 232.500 132 C 229.667 132, 229 132.381, 229 134 C 229 135.111, 228.333 136, 227.500 136 C 226.675 136, 226 136.625, 226 137.389 C 226 138.175, 224.531 139.053, 222.610 139.413 C 219.057 140.080, 218.041 141.813, 218.014 147.250 C 218.003 149.338, 218.482 150, 220 150 C 221.100 150, 222 150.623, 222 151.383 C 222 152.144, 222.900 153.002, 224 153.290 C 225.100 153.577, 226 154.530, 226 155.406 C 226 156.283, 226.675 157, 227.500 157 C 228.652 157, 229 155.722, 229 151.500 C 229 146.667, 229.242 146, 231 146 C 232.111 146, 233 145.333, 233 144.500 C 233 143.675, 233.623 143, 234.383 143 C 235.144 143, 236.002 142.100, 236.290 141 C 236.690 139.468, 237.654 139, 240.406 139 C 242.934 139, 244 138.555, 244 137.500 C 244 136.310, 245.444 136, 251 136 L 258 136 258 139.500 C 258 142.333, 258.381 143, 260 143 C 261.111 143, 262 142.333, 262 141.500 C 262 140.675, 262.675 140, 263.500 140 C 264.650 140, 265 138.727, 265 134.545 C 265 129.103, 264.992 129.089, 261.500 128.434 C 259.495 128.058, 258 127.184, 258 126.389 C 258 125.372, 256.526 125, 252.500 125 C 248.278 125, 247 125.348, 247 126.500" stroke="none" fill="black" fill-rule="evenodd"/>
</svg>