<svg xmlns="http://www.w3.org/2000/svg" width="300" height="300" viewBox="0 0 300 300" version="1.1">
	<path d="M 106 33.500 C 106 34.333, 105.111 35, 104 35 C 102.092 35, 102 35.667, 102 49.500 C 102 61.722, 101.764 64, 100.500 64 C 99.675 64, 99 64.675, 99 65.500 C 99 66.742, 97.111 67, 88 67 L 77 67 77 61.500 C 77 57.278, 77.348 56, 78.500 56 C 79.412 56, 80 55.069, 80 53.625 C 80 49.120, 81.254 45, 82.625 45 C 83.381 45, 84 44.325, 84 43.500 C 84 42.667, 84.889 42, 86 42 C 87.619 42, 88 41.333, 88 38.500 L 88 35 80.500 35 L 73 35 73 38.500 C 73 40.822, 72.532 42, 71.609 42 C 70.550 42, 70.048 44.618, 69.500 53 C 68.952 61.382, 68.450 64, 67.391 64 C 66.626 64, 66 64.675, 66 65.500 C 66 66.333, 65.111 67, 64 67 C 62.900 67, 62 67.623, 62 68.383 C 62 70.103, 58.923 70.969, 52.750 70.986 L 48 71 48 74.500 C 48 77.375, 47.630 78, 45.927 78 C 44.492 78, 43.956 78.539, 44.186 79.750 C 44.443 81.103, 45.709 81.569, 49.759 81.802 C 54.476 82.074, 55 81.899, 55 80.052 C 55 78.231, 55.620 78, 60.500 78 L 66 78 66 94 C 66 107.556, 65.771 110, 64.500 110 C 63.667 110, 63 110.889, 63 112 C 63 113.111, 63.667 114, 64.500 114 C 65.333 114, 66 114.889, 66 116 C 66 117.333, 66.667 118, 68 118 C 69.111 118, 70 118.667, 70 119.500 C 70 120.548, 71.056 121, 73.500 121 C 76.333 121, 77 121.381, 77 123 C 77 124.619, 77.667 125, 80.500 125 C 82.944 125, 84 125.452, 84 126.500 C 84 127.325, 84.675 128, 85.500 128 C 86.700 128, 87 129.500, 87 135.500 C 87 141.500, 86.700 143, 85.500 143 C 84.675 143, 84 143.675, 84 144.500 C 84 145.555, 82.934 146, 80.406 146 C 77.654 146, 76.690 146.468, 76.290 148 C 75.837 149.731, 74.926 150, 69.523 150 L 63.279 150 62.648 144.750 C 62.301 141.863, 62.013 136.238, 62.009 132.250 L 62 125 58.500 125 C 56.056 125, 55 125.452, 55 126.500 C 55 127.325, 54.381 128, 53.625 128 C 51.693 128, 50.867 133.244, 51.628 140.675 C 52.074 145.028, 52.701 147, 53.638 147 C 54.604 147, 55 148.440, 55 151.950 C 55 155.456, 55.469 157.163, 56.606 157.799 C 57.572 158.340, 58.420 160.551, 58.736 163.349 C 59.076 166.365, 59.742 168, 60.630 168 C 61.554 168, 62 169.261, 62 171.875 C 62 177.772, 63.096 182, 64.625 182 C 65.563 182, 66 183.273, 66 186 C 66 189.905, 66.083 190, 69.500 190 L 73 190 73 184.500 L 73 179 82 179 L 91 179 91 191.500 L 91 204 87.500 204 C 85.162 204, 84 204.466, 84 205.404 C 84 206.474, 81.507 206.977, 73.500 207.523 C 65.583 208.063, 63 208.578, 63 209.619 C 63 210.616, 61.542 211.004, 57.750 211.014 C 51.098 211.031, 48 211.858, 48 213.617 C 48 214.531, 46.813 215, 44.500 215 C 42.024 215, 41 215.448, 41 216.531 C 41 217.374, 40.325 218.322, 39.500 218.638 C 38.664 218.959, 38 220.446, 38 221.999 C 38 224.159, 38.579 224.929, 40.584 225.432 C 44.671 226.457, 55 224.981, 55 223.371 C 55 222.332, 56.814 222, 62.500 222 C 68.219 222, 70 221.671, 70 220.617 C 70 219.101, 72.968 218.035, 77.250 218.014 C 79.022 218.005, 80 217.466, 80 216.500 C 80 215.300, 81.500 215, 87.500 215 L 95 215 95 224 C 95 231.333, 95.278 233, 96.500 233 C 97.753 233, 98 235.056, 98 245.500 L 98 258 103.500 258 L 109 258 109 252.500 C 109 248.278, 108.652 247, 107.500 247 C 106.452 247, 106 245.944, 106 243.500 C 106 241.056, 106.452 240, 107.500 240 C 108.325 240, 109 239.325, 109 238.500 C 109 237.675, 108.325 237, 107.500 237 C 106.244 237, 106 234.889, 106 224 L 106 211 113 211 C 118.556 211, 120 210.690, 120 209.500 C 120 208.337, 121.319 208, 125.875 208 C 133.658 208, 138 207.060, 138 205.375 C 138 204.392, 139.424 204, 143 204 C 146.639 204, 148 203.616, 148 202.588 C 148 201.720, 149.541 200.915, 152 200.500 C 154.459 200.085, 156 199.280, 156 198.412 C 156 197.635, 156.675 197, 157.500 197 C 158.333 197, 159 196.111, 159 195 C 159 193.889, 158.333 193, 157.500 193 C 156.675 193, 156 192.325, 156 191.500 C 156 190.452, 154.944 190, 152.500 190 C 150.197 190, 149 190.470, 149 191.375 C 149 192.746, 144.880 194, 140.375 194 C 138.931 194, 138 194.588, 138 195.500 C 138 196.690, 136.556 197, 131 197 C 125.444 197, 124 197.310, 124 198.500 C 124 199.658, 122.691 200.002, 118.250 200.009 C 115.088 200.013, 110.138 200.301, 107.250 200.648 L 102 201.279 102 195.639 C 102 191.293, 101.656 190, 100.500 190 C 99.348 190, 99 188.722, 99 184.500 C 99 180.278, 99.348 179, 100.500 179 C 101.333 179, 102 178.111, 102 177 C 102 175.381, 102.667 175, 105.500 175 L 109 175 109 182.500 C 109 188.696, 109.277 190, 110.594 190 C 111.470 190, 112.423 189.100, 112.710 188 C 112.998 186.900, 113.856 186, 114.617 186 C 115.406 186, 116 184.980, 116 183.625 C 116 179.120, 117.254 175, 118.625 175 C 119.381 175, 120 174.325, 120 173.500 C 120 172.675, 119.325 172, 118.500 172 C 117.667 172, 117 171.111, 117 170 C 117 168.394, 116.333 168, 113.617 168 C 111.074 168, 110.103 167.503, 109.710 166 C 109.310 164.468, 108.346 164, 105.594 164 C 103.066 164, 102 163.555, 102 162.500 C 102 161.675, 102.675 161, 103.500 161 C 104.325 161, 105 160.283, 105 159.406 C 105 158.530, 105.900 157.577, 107 157.290 C 108.634 156.862, 109.002 155.919, 109.014 152.133 C 109.021 149.585, 109.299 146.488, 109.630 145.250 C 110.200 143.122, 109.941 142.999, 104.867 142.986 C 96.386 142.965, 95 142.318, 95 138.383 C 95 136.043, 95.462 135, 96.500 135 C 97.325 135, 98 134.325, 98 133.500 C 98 132.675, 97.325 132, 96.500 132 C 95.348 132, 95 130.722, 95 126.500 C 95 122.354, 95.358 121, 96.455 121 C 97.325 121, 98.173 119.595, 98.566 117.500 C 99.136 114.459, 99.602 114, 102.111 114 C 104.292 114, 105 114.470, 105 115.918 C 105 119.743, 106.140 121, 109.607 121 L 113 121 113 114 C 113 107.617, 112.820 107, 110.957 107 C 108.983 107, 108.920 106.502, 109.117 92.500 C 109.267 81.849, 109.646 78, 110.544 78 C 111.216 78, 112.002 77.100, 112.290 76 C 112.577 74.900, 113.530 74, 114.406 74 C 115.283 74, 116 73.325, 116 72.500 C 116 71.667, 116.889 71, 118 71 C 119.111 71, 120 71.667, 120 72.500 C 120 73.325, 120.675 74, 121.500 74 C 122.325 74, 123 73.325, 123 72.500 C 123 71.452, 124.056 71, 126.500 71 C 128.803 71, 130 71.470, 130 72.375 C 130 73.988, 135.197 75.240, 138.476 74.417 C 140.335 73.950, 140.856 72.978, 141.288 69.172 C 141.580 66.602, 141.597 64.275, 141.328 64 C 141.058 63.725, 133.924 63.348, 125.475 63.161 C 112.146 62.867, 110.063 62.603, 109.737 61.161 C 109.095 58.326, 110.239 42.531, 111.128 41.950 C 111.591 41.648, 112.258 39.960, 112.610 38.200 C 113.124 35.630, 112.924 35, 111.594 35 C 110.683 35, 109.678 34.325, 109.362 33.500 C 109.045 32.675, 108.159 32, 107.393 32 C 106.627 32, 106 32.675, 106 33.500 M 171 58.500 C 171 59.333, 170.111 60, 169 60 C 167.667 60, 167 60.667, 167 62 C 167 63.111, 166.333 64, 165.500 64 C 164.675 64, 164 64.617, 164 65.371 C 164 66.259, 165.737 66.973, 168.925 67.396 C 171.633 67.755, 174.027 68.581, 174.244 69.232 C 174.480 69.941, 177.509 70.576, 181.819 70.820 C 187.081 71.117, 189 71.596, 189 72.613 C 189 73.497, 190.122 74, 192.094 74 C 194.346 74, 195.329 74.544, 195.710 76 C 196 77.107, 197.074 78, 198.117 78 C 199.152 78, 200 78.675, 200 79.500 C 200 80.500, 201 81, 203 81 C 205.933 81, 206 80.889, 206 76 C 206 71.659, 205.735 71, 203.990 71 C 202.885 71, 201.210 70.100, 200.268 69 C 199.202 67.755, 197.318 67, 195.278 67 C 193.076 67, 192 66.522, 192 65.545 C 192 64.675, 190.595 63.827, 188.500 63.434 C 186.495 63.058, 185 62.184, 185 61.389 C 185 60.435, 183.746 60, 181 60 C 178.111 60, 177 59.583, 177 58.500 C 177 57.500, 176 57, 174 57 C 172 57, 171 57.500, 171 58.500 M 87.750 74.743 C 81.783 75.006, 80 75.420, 80 76.542 C 80 77.344, 79.388 78, 78.639 78 C 76.807 78, 75.883 86.308, 76.674 95.669 L 77.293 103 88.147 103 L 99 103 99 99.500 C 99 97.056, 99.452 96, 100.500 96 C 101.742 96, 102 94.111, 102 85 L 102 74 98.750 74.201 C 96.963 74.312, 92.013 74.556, 87.750 74.743 M 147.250 88.706 C 146.012 88.944, 145 89.783, 145 90.570 C 145 91.356, 144.381 92, 143.625 92 C 142.254 92, 141 96.120, 141 100.625 C 141 102.069, 140.412 103, 139.500 103 C 138.278 103, 138 104.667, 138 112 L 138 121 150.500 121 C 160.944 121, 163 120.753, 163 119.500 C 163 118.286, 164.595 118, 171.353 118 C 175.948 118, 182.473 117.711, 185.853 117.358 L 192 116.715 192 120.858 C 192 124.333, 191.678 125, 190 125 C 188.381 125, 188 125.667, 188 128.500 C 188 130.797, 187.529 132, 186.630 132 C 185.742 132, 185.076 133.635, 184.736 136.651 C 184.420 139.449, 183.572 141.660, 182.606 142.201 C 181.615 142.755, 181 144.421, 181 146.550 C 181 148.950, 180.544 150, 179.500 150 C 178.588 150, 178 150.931, 178 152.375 C 178 156.880, 176.746 161, 175.375 161 C 174.470 161, 174 162.197, 174 164.500 C 174 166.896, 173.541 168, 172.545 168 C 171.675 168, 170.827 169.405, 170.434 171.500 L 169.777 175 152.295 175 C 135.654 175, 134.788 175.096, 134.290 177 C 133.897 178.503, 132.926 179, 130.383 179 C 128.169 179, 127 179.478, 127 180.383 C 127 181.144, 126.100 182.002, 125 182.290 C 123.587 182.659, 123.004 183.647, 123.014 185.656 C 123.040 191.230, 124.029 193, 127.117 193 C 129.088 193, 130 192.496, 130 191.406 C 130 190.530, 130.900 189.577, 132 189.290 C 133.100 189.002, 134 188.144, 134 187.383 C 134 186.261, 137.127 186, 150.561 186 L 167.123 186 166.426 190.750 C 166.043 193.363, 165.115 195.860, 164.365 196.300 C 162.515 197.384, 162.544 204, 164.399 204 C 165.396 204, 165.998 206.005, 166.500 211 C 167.025 216.225, 167.581 218, 168.695 218 C 169.516 218, 170.423 218.900, 170.710 220 C 170.998 221.100, 171.856 222, 172.617 222 C 173.377 222, 174 222.900, 174 224 C 174 225.111, 174.667 226, 175.500 226 C 176.325 226, 177 226.675, 177 227.500 C 177 228.333, 177.889 229, 179 229 C 180.333 229, 181 229.667, 181 231 C 181 232.333, 181.667 233, 183 233 C 184.100 233, 185 233.625, 185 234.389 C 185 235.184, 186.495 236.058, 188.500 236.434 C 191.698 237.034, 192 237.389, 192 240.545 C 192 242.820, 191.528 244, 190.617 244 C 189.856 244, 188.998 244.900, 188.710 246 C 188.423 247.100, 187.470 248, 186.594 248 C 185.479 248, 185 248.930, 185 251.094 C 185 253.346, 184.456 254.329, 183 254.710 C 181.900 254.998, 181 255.856, 181 256.617 C 181 257.377, 180.325 258, 179.500 258 C 178.675 258, 178 258.675, 178 259.500 C 178 260.333, 177.111 261, 176 261 C 174.381 261, 174 261.667, 174 264.500 C 174 266.944, 174.452 268, 175.500 268 C 176.325 268, 177 267.590, 177 267.088 C 177 266.586, 178.800 265.872, 181 265.500 C 183.459 265.085, 185 264.280, 185 263.412 C 185 262.635, 185.717 262, 186.594 262 C 187.470 262, 188.423 261.100, 188.710 260 C 188.998 258.900, 189.856 258, 190.617 258 C 191.377 258, 192 257.100, 192 256 C 192 254.900, 192.655 254, 193.455 254 C 194.325 254, 195.173 252.595, 195.566 250.500 C 196.041 247.967, 196.745 247, 198.111 247 C 199.150 247, 200 246.325, 200 245.500 C 200 244.367, 201.222 244, 205 244 C 208.778 244, 210 244.367, 210 245.500 C 210 246.702, 211.513 247, 217.617 247 C 225.027 247, 225.217 246.939, 224.630 244.750 C 224.299 243.513, 224.021 241.938, 224.014 241.250 C 224.004 240.370, 221.926 240, 217 240 C 211.707 240, 210 239.663, 210 238.617 C 210 237.856, 209.100 236.998, 208 236.710 C 206.681 236.365, 206 235.346, 206 233.719 C 206 229.127, 207.243 225, 208.625 225 C 209.604 225, 210 223.593, 210 220.117 C 210 216.074, 210.344 215.143, 212 214.710 C 213.670 214.274, 214 213.346, 214 209.094 C 214 205.233, 214.363 204, 215.500 204 C 216.652 204, 217 202.722, 217 198.500 C 217 194.484, 217.373 193, 218.383 193 C 219.144 193, 220.002 192.100, 220.290 191 C 220.690 189.468, 221.654 189, 224.406 189 C 226.934 189, 228 188.555, 228 187.500 C 228 186.675, 228.675 186, 229.500 186 C 230.325 186, 231 186.611, 231 187.358 C 231 188.897, 238.989 190, 250.147 190 C 256.333 190, 257 189.805, 257 188 C 257 186.889, 257.667 186, 258.500 186 C 259.333 186, 260 185.111, 260 184 C 260 182.667, 259.333 182, 258 182 C 256.889 182, 256 181.333, 256 180.500 C 256 179.229, 253.556 179, 240 179 L 224 179 224 173.500 C 224 168.667, 224.242 168, 226 168 C 227.333 168, 228 167.333, 228 166 C 228 164.889, 227.333 164, 226.500 164 C 225.675 164, 225 163.325, 225 162.500 C 225 161.417, 223.889 161, 221 161 C 217.667 161, 217 161.333, 217 163 C 217 164.100, 216.383 165, 215.629 165 C 214.739 165, 214.025 166.754, 213.594 170 C 213.140 173.424, 212.469 175, 211.466 175 C 210.654 175, 210 175.916, 210 177.055 C 210 179.062, 209.682 179.093, 196.250 178.410 C 188.152 177.998, 182.173 177.256, 181.706 176.605 C 180.327 174.687, 181.576 165.817, 183.366 164.815 C 184.386 164.244, 185 162.603, 185 160.450 C 185 158.050, 185.456 157, 186.500 157 C 187.548 157, 188 155.944, 188 153.500 C 188 150.667, 188.381 150, 190 150 C 191.727 150, 192 149.333, 192 145.117 C 192 141.074, 192.344 140.143, 194 139.710 C 195.532 139.310, 196 138.346, 196 135.594 C 196 133.066, 196.445 132, 197.500 132 C 198.548 132, 199 130.944, 199 128.500 C 199 125.667, 199.381 125, 201 125 C 202.667 125, 203 124.333, 203 121 C 203 118.111, 203.417 117, 204.500 117 C 205.633 117, 206 115.778, 206 112 L 206 107 190 107 C 176.444 107, 174 107.229, 174 108.500 C 174 109.753, 171.944 110, 161.500 110 L 149 110 149 103 C 149 96.667, 149.190 96, 151 96 C 152.100 96, 153 95.345, 153 94.545 C 153 93.675, 154.405 92.827, 156.500 92.434 C 158.425 92.073, 160 91.209, 160 90.514 C 160 88.501, 153.268 87.547, 147.250 88.706 M 81 117.500 C 81 119.944, 81.452 121, 82.500 121 C 83.548 121, 84 119.944, 84 117.500 C 84 115.056, 83.548 114, 82.500 114 C 81.452 114, 81 115.056, 81 117.500 M 84 155.500 C 84 156.538, 82.957 157, 80.617 157 C 78.074 157, 77.103 157.497, 76.710 159 C 76.329 160.456, 75.346 161, 73.094 161 C 70.003 161, 70 161.005, 70 166.617 C 70 171.953, 70.112 172.203, 72.250 171.630 C 73.487 171.299, 75.063 171.021, 75.750 171.014 C 76.438 171.006, 77 170.325, 77 169.500 C 77 168.452, 78.056 168, 80.500 168 C 83.333 168, 84 167.619, 84 166 C 84 164.667, 84.667 164, 86 164 C 87.333 164, 88 163.333, 88 162 C 88 160.889, 88.667 160, 89.500 160 C 91.698 160, 91.331 158.320, 89 157.710 C 87.900 157.423, 87 156.470, 87 155.594 C 87 154.717, 86.325 154, 85.500 154 C 84.675 154, 84 154.675, 84 155.500 M 178 187.594 C 178 188.470, 177.100 189.423, 176 189.710 C 174.244 190.169, 174 191.074, 174 197.117 C 174 202.569, 174.312 204, 175.500 204 C 176.412 204, 177 204.931, 177 206.375 C 177 210.746, 178.237 215, 179.508 215 C 180.200 215, 181.002 215.900, 181.290 217 C 181.577 218.100, 182.530 219, 183.406 219 C 184.283 219, 185 219.675, 185 220.500 C 185 221.325, 185.623 222, 186.383 222 C 187.144 222, 188.002 222.900, 188.290 224 C 188.577 225.100, 189.530 226, 190.406 226 C 191.283 226, 192 226.675, 192 227.500 C 192 228.548, 193.056 229, 195.500 229 C 198.833 229, 199 228.833, 199 225.500 C 199 223.187, 199.469 222, 200.383 222 C 202.103 222, 202.969 218.923, 202.986 212.750 C 202.997 209.201, 203.379 208, 204.500 208 C 205.555 208, 206 206.934, 206 204.406 C 206 201.654, 206.468 200.690, 208 200.290 C 209.756 199.831, 210 198.926, 210 192.883 L 210 186 194 186 C 180.027 186, 178 186.202, 178 187.594" stroke="none" fill="black" fill-rule="evenodd"/>
</svg>