<svg xmlns="http://www.w3.org/2000/svg" width="300" height="300" viewBox="0 0 300 300" version="1.1">
	<path d="M 114 49.375 C 114 50.746, 109.880 52, 105.375 52 C 104.015 52, 103 52.594, 103 53.389 C 103 54.184, 101.505 55.058, 99.500 55.434 L 96 56.091 96 66.545 C 96 76.333, 96.128 77, 98 77 C 99.667 77, 100 76.333, 100 73 C 100 70.111, 100.417 69, 101.500 69 C 102.490 69, 103 68.010, 103 66.088 C 103 63.470, 103.404 63.108, 107 62.500 C 109.459 62.085, 111 61.280, 111 60.412 C 111 59.261, 113.679 59, 125.500 59 C 137.220 59, 140 59.267, 140 60.392 C 140 61.895, 144.484 63.437, 146.046 62.472 C 148.376 61.032, 146.666 52.407, 143.908 51.686 C 142.858 51.412, 142 50.470, 142 49.594 C 142 48.211, 140.143 48, 128 48 C 116.788 48, 114 48.274, 114 49.375 M 175 67.500 C 175 68.524, 173.968 69.003, 171.750 69.009 C 164.574 69.028, 158 70.286, 158 71.639 C 158 72.620, 156.480 73, 152.550 73 C 148.399 73, 146.866 73.417, 146.120 74.750 C 145.333 76.156, 143.454 76.569, 136.570 76.853 C 130.067 77.120, 128 77.542, 128 78.603 C 128 79.601, 126.644 80.004, 123.250 80.014 C 117.077 80.031, 114 80.897, 114 82.617 C 114 83.692, 111.996 84, 105 84 C 97.667 84, 96 84.278, 96 85.500 C 96 86.412, 95.069 87, 93.625 87 C 89.120 87, 85 88.254, 85 89.625 C 85 90.604, 83.593 91, 80.117 91 C 74.762 91, 74.042 91.914, 74.014 98.750 L 74 102 83 102 C 90.084 102, 92 101.699, 92 100.588 C 92 99.720, 93.541 98.915, 96 98.500 C 98.459 98.085, 100 97.280, 100 96.412 C 100 95.383, 101.365 95, 105.031 95 C 108.581 95, 110.232 94.558, 110.638 93.500 C 111.660 90.837, 114 91.800, 114 94.883 C 114 96.926, 113.417 97.919, 112 98.290 C 110.565 98.665, 110 99.654, 110 101.790 C 110 103.926, 109.435 104.914, 108 105.290 C 106.900 105.577, 106 106.530, 106 107.406 C 106 108.283, 105.325 109, 104.500 109 C 103.667 109, 103 109.889, 103 111 C 103 112.100, 102.375 113, 101.611 113 C 100.816 113, 99.942 114.495, 99.566 116.500 C 99.173 118.595, 98.325 120, 97.455 120 C 96.655 120, 96 120.900, 96 122 C 96 123.100, 95.361 124, 94.579 124 C 93.798 124, 92.862 125.350, 92.500 127 C 92.138 128.650, 91.202 130, 90.421 130 C 89.639 130, 89 130.900, 89 132 C 89 133.333, 88.333 134, 87 134 C 85.667 134, 85 134.667, 85 136 C 85 137.100, 84.375 138, 83.611 138 C 82.816 138, 81.942 139.495, 81.566 141.500 C 80.999 144.524, 80.523 145, 78.071 145 C 76.074 145, 75.078 144.407, 74.710 143 C 74.423 141.900, 73.470 141, 72.594 141 C 71.717 141, 71 140.325, 71 139.500 C 71 138.348, 69.722 138, 65.500 138 C 61.519 138, 60 137.623, 60 136.635 C 60 135.584, 56.897 135.105, 46.532 134.556 C 39.125 134.164, 32.600 134.129, 32.032 134.480 C 31.464 134.831, 31 137.341, 31 140.059 L 31 145 48.750 145.017 C 66.122 145.034, 66.548 145.085, 68.750 147.408 C 71.715 150.536, 71.874 156, 69 156 C 67.381 156, 67 156.667, 67 159.500 C 67 162.333, 66.619 163, 65 163 C 63.667 163, 63 163.667, 63 165 C 63 166.111, 62.333 167, 61.500 167 C 60.452 167, 60 168.056, 60 170.500 C 60 172.944, 59.548 174, 58.500 174 C 57.675 174, 57 174.675, 57 175.500 C 57 176.325, 57.675 177, 58.500 177 C 59.333 177, 60 177.889, 60 179 C 60 180.619, 60.667 181, 63.500 181 L 67 181 67 175.500 C 67 170.667, 67.242 170, 69 170 C 70.538 170, 71 169.333, 71 167.117 C 71 165.074, 71.583 164.081, 73 163.710 C 74.100 163.423, 75 162.470, 75 161.594 C 75 160.717, 75.675 160, 76.500 160 C 77.333 160, 78 159.111, 78 158 C 78 156.667, 78.667 156, 80 156 C 81.333 156, 82 155.333, 82 154 C 82 152.889, 82.667 152, 83.500 152 C 84.325 152, 85 151.325, 85 150.500 C 85 149.667, 85.889 149, 87 149 C 88.606 149, 89 148.333, 89 145.617 C 89 143.074, 89.497 142.103, 91 141.710 C 92.100 141.423, 93 140.470, 93 139.594 C 93 138.717, 93.675 138, 94.500 138 C 95.333 138, 96 137.111, 96 136 C 96 134.667, 96.667 134, 98 134 C 99.333 134, 100 133.333, 100 132 C 100 130.889, 100.667 130, 101.500 130 C 102.510 130, 103 128.990, 103 126.906 C 103 124.654, 103.544 123.671, 105 123.290 C 106.100 123.002, 107 122.144, 107 121.383 C 107 120.623, 107.625 120, 108.389 120 C 109.184 120, 110.058 118.505, 110.434 116.500 C 110.827 114.405, 111.675 113, 112.545 113 C 113.345 113, 114 112.100, 114 111 C 114 109.667, 114.667 109, 116 109 C 117.619 109, 118 108.333, 118 105.500 C 118 103.056, 118.452 102, 119.500 102 C 120.333 102, 121 101.111, 121 100 C 121 98.667, 121.667 98, 123 98 C 124.111 98, 125 97.333, 125 96.500 C 125 95.452, 126.056 95, 128.500 95 C 130.944 95, 132 95.452, 132 96.500 C 132 97.548, 133.056 98, 135.500 98 L 139 98 139 92.906 C 139 88.654, 139.330 87.726, 141 87.290 C 142.100 87.002, 143 86.144, 143 85.383 C 143 84.337, 144.707 84, 150 84 C 155.368 84, 157 83.670, 157 82.585 C 157 81.554, 159.032 80.980, 164.500 80.468 C 169.878 79.964, 172 79.374, 172 78.383 C 172 75.383, 174.933 77.125, 175.566 80.500 C 175.942 82.505, 176.816 84, 177.611 84 C 178.375 84, 179 84.952, 179 86.117 C 179 87.824, 179.435 88.117, 181.250 87.630 C 182.488 87.299, 184.063 87.021, 184.750 87.014 C 185.509 87.005, 186 85.626, 186 83.500 C 186 80.667, 186.381 80, 188 80 C 189.111 80, 190 79.333, 190 78.500 C 190 77.675, 190.623 77, 191.383 77 C 193.032 77, 194.050 72.597, 193.292 68.750 L 192.750 66 183.875 66 C 176.653 66, 175 66.279, 175 67.500 M 33.853 87.670 C 32.084 88.139, 31.036 90.897, 31.014 95.139 C 31.002 97.369, 31.544 97.880, 34.517 98.437 C 36.451 98.800, 38.456 98.836, 38.971 98.518 C 40.520 97.561, 45 99.114, 45 100.608 C 45 101.565, 46.250 102, 49 102 C 52.333 102, 53 102.333, 53 104 C 53 105.111, 53.667 106, 54.500 106 C 55.548 106, 56 107.056, 56 109.500 C 56 113.113, 56.607 113.480, 60.750 112.370 C 62.694 111.849, 63 111.102, 63 106.883 C 63 103.209, 62.629 102, 61.500 102 C 60.667 102, 60 101.111, 60 100 C 60 98.889, 59.333 98, 58.500 98 C 57.675 98, 57 97.283, 57 96.406 C 57 95.530, 56.100 94.577, 55 94.290 C 53.900 94.002, 53 93.144, 53 92.383 C 53 91.469, 51.813 91, 49.500 91 C 47.197 91, 46 90.530, 46 89.625 C 46 87.583, 38.641 86.398, 33.853 87.670 M 146 96.500 C 146 97.325, 145.325 98, 144.500 98 C 143.667 98, 143 98.889, 143 100 C 143 101.333, 142.333 102, 141 102 C 139.267 102, 139 102.667, 139 107 C 139 110.908, 138.652 112, 137.406 112 C 136.530 112, 135.577 112.900, 135.290 114 C 135.002 115.100, 134.144 116, 133.383 116 C 132.623 116, 132 116.900, 132 118 C 132 119.370, 131.333 120, 129.883 120 C 128.176 120, 127.883 120.435, 128.370 122.250 C 128.701 123.487, 128.979 125.063, 128.986 125.750 C 128.996 126.630, 131.074 127, 136 127 C 141.556 127, 143 126.690, 143 125.500 C 143 124.435, 144.087 123.997, 146.750 123.991 C 154.378 123.974, 161 122.751, 161 121.361 C 161 120.472, 162.215 120, 164.500 120 C 166.944 120, 168 120.452, 168 121.500 C 168 122.333, 168.889 123, 170 123 C 171.111 123, 172 122.333, 172 121.500 C 172 120.500, 173 120, 175 120 C 177.762 120, 178 120.278, 178 123.500 C 178 125.944, 177.548 127, 176.500 127 C 175.452 127, 175 128.056, 175 130.500 C 175 132.848, 174.535 134, 173.588 134 C 172.720 134, 171.915 135.541, 171.500 138 C 171.085 140.459, 170.280 142, 169.412 142 C 168.465 142, 168 143.152, 168 145.500 C 168 148.833, 167.833 149, 164.500 149 C 161.667 149, 161 148.619, 161 147 C 161 145.667, 160.333 145, 159 145 C 157.900 145, 157 144.345, 157 143.545 C 157 142.675, 155.595 141.827, 153.500 141.434 C 151.495 141.058, 150 140.184, 150 139.389 C 150 138.625, 149.100 138, 148 138 C 146.889 138, 146 137.333, 146 136.500 C 146 135.675, 145.362 135, 144.582 135 C 143.802 135, 142.425 134.717, 141.522 134.370 C 140.386 133.934, 139.709 134.395, 139.324 135.870 C 138.990 137.148, 137.966 138, 136.767 138 C 135.181 138, 134.892 138.466, 135.370 140.250 C 135.701 141.488, 135.979 143.063, 135.986 143.750 C 135.994 144.478, 137.293 145, 139.094 145 C 141.346 145, 142.329 145.544, 142.710 147 C 143.103 148.503, 144.074 149, 146.617 149 C 148.837 149, 150 149.477, 150 150.389 C 150 151.184, 151.495 152.058, 153.500 152.434 C 155.595 152.827, 157 153.675, 157 154.545 C 157 155.345, 157.900 156, 159 156 C 160.606 156, 161 156.667, 161 159.383 C 161 161.926, 160.503 162.897, 159 163.290 C 157.544 163.671, 157 164.654, 157 166.906 C 157 169.775, 156.746 170, 153.500 170 C 151.056 170, 150 169.548, 150 168.500 C 150 167.675, 149.377 167, 148.617 167 C 147.856 167, 146.998 166.100, 146.710 165 C 146.423 163.900, 145.470 163, 144.594 163 C 143.717 163, 143 162.375, 143 161.611 C 143 160.816, 141.505 159.942, 139.500 159.566 C 137.405 159.173, 136 158.325, 136 157.455 C 136 156.655, 135.100 156, 134 156 C 132.667 156, 132 155.333, 132 154 C 132 152.889, 131.333 152, 130.500 152 C 129.675 152, 129 151.325, 129 150.500 C 129 149.667, 128.111 149, 127 149 C 125.667 149, 125 148.333, 125 147 C 125 145.667, 124.333 145, 123 145 C 121.889 145, 121 144.333, 121 143.500 C 121 142.675, 120.325 142, 119.500 142 C 118.359 142, 117.997 140.744, 117.986 136.750 C 117.963 127.754, 117.491 127, 111.883 127 L 107 127 107 132.500 C 107 137.333, 106.758 138, 105 138 C 103.057 138, 103 138.667, 103 161.500 C 103 181.722, 102.791 185, 101.500 185 C 100.675 185, 100 185.675, 100 186.500 C 100 187.325, 100.675 188, 101.500 188 C 102.333 188, 103 188.889, 103 190 C 103 191.111, 102.333 192, 101.500 192 C 100.247 192, 100 194.056, 100 204.500 L 100 217 105.500 217 C 109.722 217, 111 216.652, 111 215.500 C 111 214.675, 111.675 214, 112.500 214 C 113.333 214, 114 213.111, 114 212 C 114 210.645, 113.333 210, 111.934 210 C 109.947 210, 109.887 209.607, 110.376 199.750 C 110.656 194.112, 110.911 185.113, 110.943 179.750 C 110.990 171.776, 111.273 170, 112.500 170 C 113.716 170, 114 168.389, 114 161.500 C 114 154.611, 114.284 153, 115.500 153 C 116.325 153, 117 153.675, 117 154.500 C 117 155.333, 117.889 156, 119 156 C 120.111 156, 121 156.667, 121 157.500 C 121 158.325, 121.717 159, 122.594 159 C 123.470 159, 124.423 159.900, 124.710 161 C 124.998 162.100, 125.898 163, 126.710 163 C 127.523 163, 128.423 163.900, 128.710 165 C 128.998 166.100, 129.856 167, 130.617 167 C 131.377 167, 132 167.625, 132 168.389 C 132 169.184, 133.495 170.058, 135.500 170.434 C 137.595 170.827, 139 171.675, 139 172.545 C 139 173.541, 140.104 174, 142.500 174 C 145.333 174, 146 174.381, 146 176 C 146 177.333, 146.667 178, 148 178 C 149.111 178, 150 178.667, 150 179.500 C 150 180.333, 149.111 181, 148 181 C 146.667 181, 146 181.667, 146 183 C 146 184.100, 145.375 185, 144.611 185 C 143.816 185, 142.942 186.495, 142.566 188.500 C 142.173 190.595, 141.325 192, 140.455 192 C 139.655 192, 139 192.900, 139 194 C 139 195.111, 138.333 196, 137.500 196 C 136.675 196, 136 196.675, 136 197.500 C 136 198.333, 135.111 199, 134 199 C 132.667 199, 132 199.667, 132 201 C 132 202.333, 131.333 203, 130 203 C 128.667 203, 128 203.667, 128 205 C 128 206.111, 127.333 207, 126.500 207 C 125.675 207, 125 207.675, 125 208.500 C 125 209.652, 126.278 210, 130.500 210 C 134.722 210, 136 209.652, 136 208.500 C 136 207.675, 136.675 207, 137.500 207 C 138.333 207, 139 206.111, 139 205 C 139 203.667, 139.667 203, 141 203 C 142.333 203, 143 202.333, 143 201 C 143 199.900, 143.655 199, 144.455 199 C 145.325 199, 146.173 197.595, 146.566 195.500 C 146.942 193.495, 147.816 192, 148.611 192 C 149.375 192, 150 191.377, 150 190.617 C 150 189.856, 150.900 188.998, 152 188.710 C 153.100 188.423, 154 187.470, 154 186.594 C 154 184.096, 159.625 184.459, 160.290 187 C 160.690 188.532, 161.654 189, 164.406 189 C 167.720 189, 168 189.230, 168 191.955 C 168 194.540, 168.438 194.992, 171.500 195.566 C 173.631 195.966, 175 196.803, 175 197.705 C 175 198.520, 175.900 199.423, 177 199.710 C 178.100 199.998, 179 200.856, 179 201.617 C 179 202.377, 179.675 203, 180.500 203 C 181.325 203, 182 203.675, 182 204.500 C 182 205.333, 182.889 206, 184 206 C 185.333 206, 186 206.667, 186 208 C 186 209.333, 186.667 210, 188 210 C 189.111 210, 190 210.667, 190 211.500 C 190 212.325, 190.675 213, 191.500 213 C 192.325 213, 193 213.850, 193 214.889 C 193 216.255, 193.967 216.959, 196.500 217.434 C 198.595 217.827, 200 218.675, 200 219.545 C 200 220.345, 200.900 221, 202 221 C 203.111 221, 204 221.667, 204 222.500 C 204 223.325, 204.717 224, 205.594 224 C 206.470 224, 207.423 224.900, 207.710 226 C 208.103 227.503, 209.074 228, 211.617 228 C 214.333 228, 215 228.394, 215 230 C 215 231.619, 215.667 232, 218.500 232 C 220.944 232, 222 232.452, 222 233.500 C 222 234.325, 222.717 235, 223.594 235 C 224.470 235, 225.423 235.900, 225.710 237 C 226.103 238.503, 227.074 239, 229.617 239 C 231.911 239, 233 239.468, 233 240.455 C 233 241.325, 234.405 242.173, 236.500 242.566 C 238.505 242.942, 240 243.816, 240 244.611 C 240 245.662, 241.677 246, 246.883 246 C 252.926 246, 253.831 246.244, 254.290 248 C 254.762 249.804, 255.654 250, 263.406 250 C 270.378 250, 272 250.283, 272 251.500 C 272 252.652, 273.278 253, 277.500 253 C 282.333 253, 283 252.758, 283 251 C 283 249.889, 283.667 249, 284.500 249 C 285.325 249, 286 248.325, 286 247.500 C 286 246.675, 285.325 246, 284.500 246 C 283.675 246, 283 245.374, 283 244.609 C 283 243.550, 280.382 243.048, 272 242.500 C 263.618 241.952, 261 241.450, 261 240.391 C 261 239.400, 259.633 238.996, 256.250 238.986 C 250.077 238.969, 247 238.103, 247 236.383 C 247 235.469, 245.813 235, 243.500 235 C 241.056 235, 240 234.548, 240 233.500 C 240 232.452, 238.944 232, 236.500 232 C 233.667 232, 233 231.619, 233 230 C 233 228.394, 232.333 228, 229.617 228 C 227.074 228, 226.103 227.503, 225.710 226 C 225.329 224.544, 224.346 224, 222.094 224 C 220.010 224, 219 223.510, 219 222.500 C 219 221.675, 218.213 220.992, 217.250 220.983 C 215.363 220.964, 211 216.896, 211 215.154 C 211 214.569, 209.425 213.795, 207.500 213.434 C 205.495 213.058, 204 212.184, 204 211.389 C 204 210.625, 203.325 210, 202.500 210 C 201.675 210, 201 209.283, 201 208.406 C 201 207.530, 200.100 206.577, 199 206.290 C 197.900 206.002, 197 205.144, 197 204.383 C 197 203.623, 196.100 203, 195 203 C 193.667 203, 193 202.333, 193 201 C 193 199.667, 192.333 199, 191 199 C 189.889 199, 189 198.333, 189 197.500 C 189 196.675, 188.325 196, 187.500 196 C 186.667 196, 186 195.111, 186 194 C 186 192.381, 185.333 192, 182.500 192 C 179.667 192, 179 191.619, 179 190 C 179 188.667, 178.333 188, 177 188 C 175.889 188, 175 187.333, 175 186.500 C 175 185.675, 174.325 185, 173.500 185 C 172.667 185, 172 184.111, 172 183 C 172 181.667, 171.333 181, 170 181 C 168.900 181, 168 180.375, 168 179.611 C 168 178.816, 166.505 177.942, 164.500 177.566 C 161.079 176.924, 159.402 174, 162.455 174 C 163.325 174, 164.173 172.595, 164.566 170.500 C 164.942 168.495, 165.816 167, 166.611 167 C 167.375 167, 168 166.100, 168 165 C 168 163.900, 168.655 163, 169.455 163 C 170.325 163, 171.173 161.595, 171.566 159.500 C 171.942 157.495, 172.816 156, 173.611 156 C 174.514 156, 175 154.852, 175 152.722 C 175 150.682, 175.755 148.798, 177 147.732 C 178.100 146.790, 179 144.890, 179 143.510 C 179 141.980, 179.568 141, 180.455 141 C 181.325 141, 182.173 139.595, 182.566 137.500 C 182.942 135.495, 183.816 134, 184.611 134 C 185.611 134, 186 132.600, 186 129 C 186 125.424, 186.392 124, 187.375 124 C 189.015 124, 190.235 118.784, 189.386 115.402 L 188.783 113 169.392 113 C 152.821 113, 150 113.218, 150 114.500 C 150 117.010, 147.260 116.173, 146.578 113.454 C 145.723 110.048, 146.542 109, 150.059 109 C 152.083 109, 153 108.503, 153 107.406 C 153 106.530, 153.900 105.577, 155 105.290 C 157.318 104.684, 157.726 102, 155.500 102 C 154.452 102, 154 100.944, 154 98.500 C 154 95.083, 153.905 95, 150 95 C 147.111 95, 146 95.417, 146 96.500 M 70.160 182.678 C 69.491 183.873, 67.461 184.484, 63.111 184.798 C 58.796 185.110, 57 185.646, 57 186.620 C 57 187.507, 55.840 188.005, 53.750 188.014 C 49 188.034, 46 189.041, 46 190.617 C 46 191.564, 44.739 192, 42 192 C 39.261 192, 38 192.436, 38 193.383 C 38 194.899, 35.032 195.965, 30.750 195.986 C 28.978 195.995, 28 196.534, 28 197.500 C 28 198.555, 26.934 199, 24.406 199 C 21.654 199, 20.690 199.468, 20.290 201 C 20.002 202.100, 19.144 203, 18.383 203 C 17.469 203, 17 204.187, 17 206.500 L 17 210 27.383 210 C 36.926 210, 37.809 209.838, 38.290 208 C 38.577 206.900, 39.530 206, 40.406 206 C 41.283 206, 42 205.325, 42 204.500 C 42 203.667, 42.889 203, 44 203 C 45.100 203, 46 202.377, 46 201.617 C 46 200.101, 48.968 199.035, 53.250 199.014 C 54.923 199.005, 56 198.456, 56 197.611 C 56 196.816, 57.495 195.942, 59.500 195.566 C 61.595 195.173, 63 194.325, 63 193.455 C 63 192.424, 64.166 192, 67 192 C 69.847 192, 71 191.578, 71 190.534 C 71 189.534, 72.562 188.862, 75.921 188.416 C 80.037 187.870, 80.942 187.366, 81.452 185.336 C 82.352 181.750, 81.407 181, 75.991 181 C 72.452 181, 70.840 181.464, 70.160 182.678" stroke="none" fill="black" fill-rule="evenodd"/>
</svg>