<svg xmlns="http://www.w3.org/2000/svg" width="300" height="300" viewBox="0 0 300 300" version="1.1">
	<path d="M 131 8 C 131 9.333, 130.333 10, 129 10 C 127.267 10, 127 10.667, 127 15 C 127 19.333, 127.267 20, 129 20 C 130.333 20, 131 20.667, 131 22 C 131 25.403, 133.733 24.238, 134.427 20.538 C 134.985 17.564, 135.564 16.985, 138.538 16.427 C 140.442 16.070, 142 15.377, 142 14.889 C 142 13.399, 144.747 13.899, 145.362 15.500 C 145.678 16.325, 146.626 17, 147.469 17 C 148.311 17, 149 17.675, 149 18.500 C 149 19.548, 150.056 20, 152.500 20 L 156 20 156 14.500 C 156 9.667, 155.758 9, 154 9 C 152.889 9, 152 8.333, 152 7.500 C 152 6.262, 150.167 6, 141.500 6 C 131.667 6, 131 6.127, 131 8 M 136.500 31.732 C 135.400 32.007, 134.179 32.742, 133.788 33.366 C 133.359 34.048, 129.077 34.637, 123.038 34.844 C 115.242 35.111, 113 35.502, 113 36.594 C 113 37.683, 111.227 38, 105.140 38 C 94.263 38, 88 38.963, 88 40.636 C 88 41.561, 86.712 42, 84 42 C 80.095 42, 80 42.083, 80 45.500 C 80 47.944, 79.548 49, 78.500 49 C 77.207 49, 76.998 52.423, 76.986 73.750 C 76.972 99.588, 76.668 103, 74.383 103 C 73.309 103, 73 104.987, 73 111.883 C 73 119.926, 73.189 120.816, 75 121.290 C 76.670 121.726, 77 122.654, 77 126.906 L 77 132 73 132 C 70.111 132, 69 132.417, 69 133.500 C 69 134.325, 68.325 135, 67.500 135 C 66.667 135, 66 135.889, 66 137 C 66 138.111, 65.333 139, 64.500 139 C 63.667 139, 63 139.889, 63 141 C 63 142.111, 63.667 143, 64.500 143 C 65.325 143, 66 143.675, 66 144.500 C 66 145.325, 66.675 146, 67.500 146 C 68.325 146, 69 145.325, 69 144.500 C 69 143.417, 70.111 143, 73 143 L 77 143 77 149.950 C 77 155.513, 76.653 157.095, 75.261 157.874 C 73.887 158.643, 73.445 160.543, 73.155 166.924 C 72.880 172.988, 72.441 175, 71.394 175 C 70.593 175, 70 176.011, 70 177.375 C 70 181.880, 68.746 186, 67.375 186 C 66.396 186, 66 187.407, 66 190.883 C 66 194.926, 65.656 195.857, 64 196.290 C 62.468 196.690, 62 197.654, 62 200.406 C 62 202.934, 61.555 204, 60.500 204 C 59.462 204, 59 205.043, 59 207.389 C 59 210.450, 58.672 210.839, 55.602 211.415 C 51.862 212.117, 50.450 214.961, 51.589 219.500 C 52.104 221.552, 52.825 222, 55.608 222 C 57.956 222, 59 221.538, 59 220.500 C 59 219.675, 59.675 219, 60.500 219 C 61.333 219, 62 218.111, 62 217 C 62 215.667, 62.667 215, 64 215 C 65.606 215, 66 214.333, 66 211.617 C 66 209.074, 66.497 208.103, 68 207.710 C 69.532 207.310, 70 206.346, 70 203.594 C 70 201.218, 70.464 200, 71.370 200 C 72.258 200, 72.924 198.365, 73.264 195.349 C 73.580 192.551, 74.428 190.340, 75.394 189.799 C 76.531 189.163, 77 187.456, 77 183.950 C 77 180.376, 77.389 179, 78.399 179 C 79.396 179, 79.998 176.995, 80.500 172 C 81.002 167.005, 81.604 165, 82.601 165 C 83.701 165, 84 162.971, 84 155.500 C 84 147.722, 84.272 146, 85.500 146 C 86.325 146, 87 145.383, 87 144.628 C 87 143.805, 88.568 143.005, 90.916 142.629 C 93.070 142.285, 95.011 141.467, 95.230 140.811 C 95.464 140.108, 98.369 139.444, 102.314 139.193 L 109 138.767 109 145.977 C 109 152.346, 109.233 153.248, 111 153.710 C 112.503 154.103, 113 155.074, 113 157.617 L 113 161 117.939 161 L 122.877 161 123.524 156.691 C 123.879 154.321, 124.019 151.059, 123.835 149.441 C 123.535 146.810, 123.131 146.500, 120 146.500 C 116.390 146.500, 116.377 146.478, 116.833 141 C 116.925 139.900, 117.675 139, 118.500 139 C 119.325 139, 120 138.325, 120 137.500 C 120 136.337, 121.319 136, 125.875 136 C 129.106 136, 133.156 135.719, 134.875 135.375 C 137.971 134.756, 138 134.788, 138 138.875 C 138 141.875, 137.591 143, 136.500 143 C 135.315 143, 134.977 144.520, 134.892 150.250 C 134.833 154.238, 134.720 161.849, 134.642 167.164 C 134.564 172.479, 134.224 177.105, 133.886 177.445 C 133.548 177.784, 130.960 178.336, 128.136 178.670 C 124.943 179.048, 123 179.763, 123 180.560 C 123 181.265, 121.650 182.138, 120 182.500 C 118.350 182.862, 117 183.798, 117 184.579 C 117 185.428, 115.993 186, 114.500 186 C 112.944 186, 112 186.567, 112 187.500 C 112 188.325, 111.325 189, 110.500 189 C 109.667 189, 109 189.889, 109 191 C 109 192.333, 108.333 193, 107 193 C 105.889 193, 105 193.667, 105 194.500 C 105 195.325, 104.325 196, 103.500 196 C 102.417 196, 102 197.111, 102 200 C 102 202.889, 102.417 204, 103.500 204 C 104.325 204, 105 204.623, 105 205.383 C 105 206.899, 102.032 207.965, 97.750 207.986 C 95.978 207.995, 95 208.534, 95 209.500 C 95 210.333, 94.111 211, 93 211 C 91.387 211, 91 211.667, 91 214.441 C 91 216.334, 91.463 218.168, 92.028 218.518 C 93.963 219.713, 106 217.874, 106 216.384 C 106 215.337, 107.706 215, 113 215 C 118.556 215, 120 215.310, 120 216.500 C 120 217.325, 120.675 218, 121.500 218 C 122.333 218, 123 218.889, 123 220 C 123 221.619, 122.333 222, 119.500 222 C 117.056 222, 116 222.452, 116 223.500 C 116 224.510, 114.990 225, 112.906 225 C 110.654 225, 109.671 225.544, 109.290 227 C 109 228.107, 107.926 229, 106.883 229 C 105.267 229, 105 229.780, 105 234.500 L 105 240 109 240 C 112.333 240, 113 239.667, 113 238 C 113 236.889, 113.667 236, 114.500 236 C 115.325 236, 116 235.325, 116 234.500 C 116 233.667, 116.889 233, 118 233 C 119.333 233, 120 232.333, 120 231 C 120 229.242, 120.667 229, 125.500 229 C 129.722 229, 131 228.652, 131 227.500 C 131 226.675, 131.675 226, 132.500 226 C 133.325 226, 134 226.675, 134 227.500 C 134 228.333, 134.889 229, 136 229 C 137.605 229, 138 229.667, 138 232.375 C 138 235.259, 138.400 235.829, 140.750 236.292 C 144.492 237.030, 149 236.048, 149 234.495 C 149 233.795, 150.575 232.927, 152.500 232.566 C 155.562 231.992, 156 231.540, 156 228.955 C 156 226.245, 155.710 226, 152.500 226 C 150.056 226, 149 226.452, 149 227.500 C 149 228.333, 148.111 229, 147 229 C 145.381 229, 145 228.333, 145 225.500 C 145 222.667, 145.381 222, 147 222 C 148.333 222, 149 221.333, 149 220 C 149 218.667, 148.333 218, 147 218 C 145.889 218, 145 217.333, 145 216.500 C 145 215.675, 144.325 215, 143.500 215 C 142.247 215, 142 212.944, 142 202.500 C 142 192.056, 142.247 190, 143.500 190 C 144.791 190, 145 186.722, 145 166.500 L 145 143 148.375 143 C 151.350 143, 151.824 142.632, 152.371 139.897 C 153.074 136.380, 152.530 135, 150.441 135 C 149.648 135, 149 134.325, 149 133.500 C 149 132.462, 147.957 132, 145.617 132 C 143.024 132, 142.105 131.511, 141.686 129.907 C 141.162 127.904, 140.612 127.828, 128.828 128.133 C 117.817 128.417, 116.483 128.268, 116.186 126.725 C 115.957 125.540, 116.502 125, 117.927 125 C 119.630 125, 120 124.375, 120 121.500 C 120 119.152, 119.535 118, 118.588 118 C 117.720 118, 116.915 116.459, 116.500 114 C 116.085 111.541, 115.280 110, 114.412 110 C 113.330 110, 113 108.362, 113 103 C 113 97.707, 113.337 96, 114.383 96 C 115.144 96, 116.002 95.100, 116.290 94 C 116.751 92.237, 117.654 92, 123.906 92 C 130.333 92, 131 92.188, 131 94 C 131 95.731, 131.667 96, 135.955 96 C 140.825 96, 140.920 95.941, 141.566 92.500 C 141.942 90.495, 142.816 89, 143.611 89 C 144.375 89, 145 88.100, 145 87 C 145 85.333, 145.667 85, 149 85 C 151.889 85, 153 84.583, 153 83.500 C 153 82.452, 154.056 82, 156.500 82 C 158.944 82, 160 82.452, 160 83.500 C 160 84.633, 161.222 85, 165 85 C 169.333 85, 170 85.267, 170 87 C 170 88.333, 169.333 89, 168 89 C 166.889 89, 166 89.667, 166 90.500 C 166 91.500, 165 92, 163 92 C 160.667 92, 160 92.444, 160 94 C 160 95.606, 159.333 96, 156.617 96 C 154.074 96, 153.103 96.497, 152.710 98 C 152.423 99.100, 151.470 100, 150.594 100 C 149.717 100, 149 100.623, 149 101.383 C 149 102.144, 148.100 103.002, 147 103.290 C 145.564 103.665, 145 104.654, 145 106.795 C 145 109.412, 144.571 109.858, 141.500 110.434 C 138.302 111.034, 138 111.389, 138 114.545 C 138 116.949, 137.544 118, 136.500 118 C 135.675 118, 135 118.675, 135 119.500 C 135 120.325, 135.675 121, 136.500 121 C 137.333 121, 138 121.889, 138 123 C 138 124.333, 138.667 125, 140 125 C 141.333 125, 142 124.333, 142 123 C 142 121.900, 142.623 121, 143.383 121 C 144.144 121, 145.002 120.100, 145.290 119 C 145.577 117.900, 146.530 117, 147.406 117 C 148.283 117, 149 116.325, 149 115.500 C 149 114.667, 149.889 114, 151 114 C 152.111 114, 153 113.333, 153 112.500 C 153 111.310, 154.444 111, 160 111 C 165.556 111, 167 111.310, 167 112.500 C 167 113.333, 167.889 114, 169 114 C 170.667 114, 171 114.667, 171 118 C 171 120.889, 171.417 122, 172.500 122 C 173.782 122, 174 124.833, 174 141.500 C 174 160.757, 173.973 161, 171.861 161 C 169.867 161, 169.764 161.356, 170.352 166.250 C 170.699 169.137, 170.987 173.188, 170.991 175.250 C 170.997 177.913, 171.435 179, 172.500 179 C 173.742 179, 174 180.889, 174 190 C 174 199.111, 174.258 201, 175.500 201 C 176.633 201, 177 202.222, 177 206 C 177 209.778, 176.633 211, 175.500 211 C 174.417 211, 174 212.111, 174 215 C 174 217.789, 174.430 219, 175.421 219 C 177.809 219, 178.229 224.351, 177.472 245.091 C 176.893 260.946, 176.466 265, 175.373 265 C 174.376 265, 174 266.505, 174 270.500 C 174 274.722, 173.652 276, 172.500 276 C 171.452 276, 171 277.056, 171 279.500 C 171 282.333, 170.619 283, 169 283 C 167.667 283, 167 283.667, 167 285 C 167 286.333, 166.333 287, 165 287 C 163.381 287, 163 287.667, 163 290.500 C 163 293.833, 163.167 294, 166.500 294 C 168.944 294, 170 293.548, 170 292.500 C 170 291.667, 170.889 291, 172 291 C 173.333 291, 174 290.333, 174 289 C 174 287.667, 174.667 287, 176 287 C 177.333 287, 178 286.333, 178 285 C 178 283.900, 178.623 283, 179.384 283 C 180.379 283, 180.885 281.150, 181.187 276.400 C 181.497 271.538, 182.055 269.549, 183.304 268.850 C 184.757 268.037, 185 266.118, 185 255.450 C 185 245.050, 185.247 243, 186.500 243 C 187.333 243, 188 243.889, 188 245 C 188 246.333, 188.667 247, 190 247 C 191.111 247, 192 246.333, 192 245.500 C 192 244.348, 193.278 244, 197.500 244 C 202.333 244, 203 243.758, 203 242 C 203 240.381, 203.667 240, 206.500 240 C 208.803 240, 210 239.530, 210 238.625 C 210 237.254, 214.120 236, 218.625 236 C 219.969 236, 221 235.405, 221 234.630 C 221 233.742, 222.635 233.076, 225.651 232.736 C 228.449 232.420, 230.660 231.572, 231.201 230.606 C 231.837 229.469, 233.544 229, 237.050 229 C 240.783 229, 242 228.631, 242 227.500 C 242 226.457, 243.049 226, 245.441 226 C 249.453 226, 250.302 225.050, 249.422 221.546 C 248.740 218.827, 246 217.990, 246 220.500 C 246 221.700, 244.500 222, 238.500 222 C 232.832 222, 231 222.333, 231 223.364 C 231 224.795, 224.993 226, 217.860 226 C 215.096 226, 214 226.426, 214 227.500 C 214 228.641, 212.744 229.003, 208.750 229.014 C 202.098 229.031, 199 229.858, 199 231.617 C 199 232.531, 197.813 233, 195.500 233 C 193.056 233, 192 233.452, 192 234.500 C 192 235.548, 190.944 236, 188.500 236 C 186.056 236, 185 235.548, 185 234.500 C 185 233.675, 185.675 233, 186.500 233 C 187.333 233, 188 232.111, 188 231 C 188 229.889, 187.333 229, 186.500 229 C 185.675 229, 185 228.325, 185 227.500 C 185 226.675, 185.675 226, 186.500 226 C 187.692 226, 188 224.545, 188 218.906 C 188 212.654, 188.237 211.751, 190 211.290 C 191.100 211.002, 192 210.207, 192 209.523 C 192 208.258, 198.987 207.026, 206.250 207.009 C 209.336 207.002, 210 207.354, 210 209 C 210 210.333, 210.667 211, 212 211 C 213.333 211, 214 210.333, 214 209 C 214 207.889, 214.667 207, 215.500 207 C 216.548 207, 217 205.944, 217 203.500 C 217 200.667, 216.619 200, 215 200 C 213.889 200, 213 199.333, 213 198.500 C 213 197.284, 211.389 197, 204.500 197 C 197.611 197, 196 197.284, 196 198.500 C 196 199.555, 194.934 200, 192.406 200 C 189.654 200, 188.690 200.468, 188.290 202 C 188.002 203.100, 187.144 204, 186.383 204 C 185.308 204, 185 201.996, 185 195 L 185 186 188.500 186 C 190.820 186, 192 185.532, 192 184.611 C 192 183.816, 193.495 182.942, 195.500 182.566 C 200.116 181.700, 206 182.846, 206 184.611 C 206 185.565, 207.254 186, 210 186 C 214.372 186, 214.766 185.080, 213.375 178.125 C 212.778 175.138, 212.535 175, 207.875 175 C 204.208 175, 203 174.628, 203 173.500 C 203 172.675, 202.325 172, 201.500 172 C 200.675 172, 200 172.675, 200 173.500 C 200 174.667, 198.667 175, 194 175 C 189.558 175, 188 175.359, 188 176.383 C 188 177.669, 185.160 178.955, 182.250 178.986 C 181.400 178.996, 181 177.241, 181 173.500 C 181 169.484, 181.373 168, 182.383 168 C 183.144 168, 184.002 167.100, 184.290 166 C 184.577 164.900, 185.530 164, 186.406 164 C 187.561 164, 188 163.036, 188 160.500 C 188 158.056, 187.548 157, 186.500 157 C 185.675 157, 185 156.283, 185 155.406 C 185 154.530, 184.100 153.577, 183 153.290 C 181.097 152.792, 181.001 151.932, 181.014 135.633 C 181.021 126.210, 181.299 117.487, 181.630 116.250 C 182.176 114.215, 182.842 114, 188.617 114 C 193.326 114, 195 114.356, 195 115.358 C 195 117.043, 203.199 118, 217.647 118 C 226.183 118, 228 118.263, 228 119.500 C 228 120.548, 229.056 121, 231.500 121 C 234.333 121, 235 121.381, 235 123 C 235 124.333, 235.667 125, 237 125 C 238.111 125, 239 125.667, 239 126.500 C 239 129.587, 241.919 127.950, 242.566 124.500 C 242.942 122.495, 243.816 121, 244.611 121 C 245.532 121, 246 119.820, 246 117.500 C 246 115.187, 245.531 114, 244.617 114 C 243.856 114, 242.998 113.100, 242.710 112 C 242.238 110.196, 241.346 110, 233.594 110 C 226.839 110, 225 109.696, 225 108.581 C 225 107.420, 221.716 107.102, 206.962 106.831 C 193.117 106.577, 188.729 106.184, 188.086 105.141 C 187.625 104.394, 185.167 103.548, 182.624 103.261 C 178.143 102.756, 178 102.636, 178 99.370 L 178 96 183 96 C 187.333 96, 188 95.733, 188 94 C 188 92.889, 187.333 92, 186.500 92 C 185.675 92, 185 91.325, 185 90.500 C 185 89.667, 184.111 89, 183 89 C 180.910 89, 180.624 88.007, 181.630 84.250 C 182.307 81.725, 184 81.189, 184 83.500 C 184 84.676, 185.375 85, 190.375 85 C 198.634 85, 203 85.908, 203 87.625 C 203 89.115, 204.242 89.310, 207.750 88.370 C 209.694 87.849, 210 87.102, 210 82.883 L 210 78 201 78 C 194.030 78, 192 77.690, 192 76.625 C 192 74.940, 187.658 74, 179.875 74 L 174 74 174 67 C 174 60.667, 174.190 60, 176 60 C 177.373 60, 178 59.333, 178 57.873 C 178 55.921, 177.585 55.785, 172.978 56.228 C 170.216 56.493, 167.686 56.981, 167.355 57.311 C 167.025 57.642, 166.770 61.532, 166.790 65.956 L 166.825 74 160.059 74 C 148.983 74, 141 75.107, 141 76.642 C 141 77.605, 139.545 78, 136 78 C 132.424 78, 131 78.392, 131 79.375 C 131 80.746, 126.880 82, 122.375 82 C 120.931 82, 120 82.588, 120 83.500 C 120 84.333, 119.111 85, 118 85 C 116.242 85, 116 84.333, 116 79.500 C 116 74.163, 115.918 74, 113.250 74.014 C 108.134 74.039, 106.140 75.088, 105.478 78.102 C 105.128 79.696, 104.202 81, 103.421 81 C 102.430 81, 102 82.211, 102 85 C 102 88.905, 101.917 89, 98.500 89 C 96.056 89, 95 89.452, 95 90.500 C 95 91.652, 93.722 92, 89.500 92 L 84 92 84 81 C 84 72.301, 84.289 70, 85.383 70 C 86.899 70, 87.965 67.032, 87.986 62.750 C 87.995 60.978, 88.534 60, 89.500 60 C 90.548 60, 91 58.944, 91 56.500 C 91 53.667, 91.381 53, 93 53 C 94.100 53, 95 52.377, 95 51.617 C 95 49.759, 98.152 49.030, 106.250 49.014 C 111.359 49.003, 113 48.660, 113 47.601 C 113 46.604, 115.005 46.002, 120 45.500 C 124.995 44.998, 127 44.396, 127 43.399 C 127 42.285, 129.244 42, 138 42 C 147.111 42, 149 41.742, 149 40.500 C 149 39.348, 150.278 39, 154.500 39 C 158.722 39, 160 39.348, 160 40.500 C 160 41.548, 161.056 42, 163.500 42 L 167 42 167 47.500 C 167 51.516, 167.373 53, 168.383 53 C 169.144 53, 170.002 52.100, 170.290 51 C 170.577 49.900, 171.530 49, 172.406 49 C 173.710 49, 174 47.748, 174 42.111 L 174 35.223 170.500 34.566 C 168.405 34.173, 167 33.325, 167 32.455 C 167 31.244, 164.606 31.019, 152.750 31.116 C 144.912 31.180, 137.600 31.457, 136.500 31.732 M 98 54.500 C 98 55.333, 98.889 56, 100 56 C 101.111 56, 102 55.333, 102 54.500 C 102 53.667, 101.111 53, 100 53 C 98.889 53, 98 53.667, 98 54.500 M 95.852 99.700 C 93.287 99.987, 92.054 100.686, 91.696 102.054 C 91.416 103.124, 90.506 104, 89.673 104 C 88.804 104, 87.878 105.278, 87.500 107 C 87.138 108.650, 86.202 110, 85.421 110 C 84.365 110, 84 111.415, 84 115.500 C 84 120.333, 84.242 121, 86 121 C 87.758 121, 88 121.667, 88 126.500 L 88 132 97 132 L 106 132 106 125.111 L 106 118.223 102.500 117.566 C 99.050 116.919, 97.413 114, 100.500 114 C 101.325 114, 102 113.377, 102 112.617 C 102 111.856, 102.925 110.991, 104.055 110.696 C 105.856 110.225, 106.072 109.500, 105.805 104.829 C 105.510 99.669, 105.405 99.497, 102.500 99.396 C 100.850 99.339, 97.859 99.476, 95.852 99.700 M 127 187.455 C 127 188.325, 125.595 189.173, 123.500 189.566 C 121.495 189.942, 120 190.816, 120 191.611 C 120 192.375, 119.100 193, 118 193 C 116.667 193, 116 193.667, 116 195 C 116 196.111, 115.333 197, 114.500 197 C 113.367 197, 113 198.222, 113 202 L 113 207 118.094 207 C 122.346 207, 123.274 207.330, 123.710 209 C 123.998 210.100, 124.829 211, 125.556 211 C 126.363 211, 127 212.463, 127.190 214.750 C 127.473 218.174, 127.783 218.527, 130.750 218.813 L 134 219.127 134 202.563 L 134 186 130.500 186 C 128.104 186, 127 186.459, 127 187.455" stroke="none" fill="black" fill-rule="evenodd"/>
</svg>