<svg xmlns="http://www.w3.org/2000/svg" width="300" height="300" viewBox="0 0 300 300" version="1.1">
	<path d="M 161.750 45.720 C 157.568 45.996, 156 46.495, 156 47.550 C 156 48.641, 154.638 49, 150.500 49 C 146.484 49, 145 49.373, 145 50.383 C 145 51.899, 142.032 52.965, 137.750 52.986 C 135.978 52.995, 135 53.534, 135 54.500 C 135 55.523, 133.966 56.004, 131.750 56.014 C 127 56.034, 124 57.041, 124 58.617 C 124 59.627, 122.516 60, 118.500 60 C 114.354 60, 113 60.358, 113 61.455 C 113 62.325, 111.595 63.173, 109.500 63.566 C 107.495 63.942, 106 64.816, 106 65.611 C 106 66.375, 105.100 67, 104 67 C 102.333 67, 102 67.667, 102 71 C 102 74.333, 102.333 75, 104 75 C 105.111 75, 106 75.667, 106 76.500 C 106 77.325, 106.675 78, 107.500 78 C 108.333 78, 109 77.111, 109 76 C 109 74.667, 109.667 74, 111 74 C 112.111 74, 113 73.333, 113 72.500 C 113 71.452, 114.056 71, 116.500 71 C 119.333 71, 120 70.619, 120 69 C 120 67.267, 120.667 67, 125 67 C 128.778 67, 130 66.633, 130 65.500 C 130 64.417, 131.111 64, 134 64 C 137.333 64, 138 63.667, 138 62 C 138 60.242, 138.667 60, 143.500 60 C 147.545 60, 149 59.630, 149 58.601 C 149 57.604, 151.005 57.002, 156 56.500 C 160.995 55.998, 163 55.396, 163 54.399 C 163 53.629, 163.900 53, 165 53 C 166.619 53, 167 53.667, 167 56.500 C 167 59.333, 166.619 60, 165 60 C 163.900 60, 163 60.619, 163 61.375 C 163 62.948, 158.741 64, 152.375 64 C 149.153 64, 148 64.395, 148 65.500 C 148 66.633, 146.778 67, 143 67 C 138.667 67, 138 67.267, 138 69 C 138 70.100, 137.377 71, 136.617 71 C 135.041 71, 134.034 74, 134.014 78.750 C 134.005 80.844, 133.508 82, 132.616 82 C 131.621 82, 131.116 83.844, 130.815 88.568 C 130.542 92.856, 129.894 95.448, 128.948 96.032 C 126.745 97.393, 126.795 152.638, 129 153.998 C 130.159 154.713, 130.576 157.549, 130.836 166.462 C 131.102 175.581, 131.469 178, 132.586 178 C 133.364 178, 134 178.900, 134 180 C 134 181.111, 133.333 182, 132.500 182 C 131.462 182, 131 183.043, 131 185.383 C 131 187.926, 130.503 188.897, 129 189.290 C 127.468 189.690, 127 190.654, 127 193.406 L 127 197 134.094 197 C 140.346 197, 141.249 196.763, 141.710 195 C 141.998 193.900, 142.856 193, 143.617 193 C 144.377 193, 145 192.375, 145 191.611 C 145 190.816, 146.495 189.942, 148.500 189.566 C 150.595 189.173, 152 188.325, 152 187.455 C 152 186.424, 153.166 186, 156 186 C 158.739 186, 160 185.564, 160 184.617 C 160 183.101, 162.968 182.035, 167.250 182.014 C 168.922 182.005, 170 181.456, 170 180.613 C 170 179.596, 171.919 179.117, 177.181 178.820 C 181.579 178.571, 184.518 177.946, 184.764 177.207 C 185.436 175.193, 187.728 175.856, 188.370 178.250 C 189.285 181.665, 189.162 182, 187 182 C 185.667 182, 185 182.667, 185 184 C 185 185.333, 184.333 186, 183 186 C 181.889 186, 181 186.667, 181 187.500 C 181 188.325, 180.283 189, 179.406 189 C 178.530 189, 177.577 189.900, 177.290 191 C 177.002 192.100, 176.144 193, 175.383 193 C 174.623 193, 174 193.675, 174 194.500 C 174 195.325, 173.283 196, 172.406 196 C 171.530 196, 170.577 196.900, 170.290 198 C 170.002 199.100, 169.144 200, 168.383 200 C 167.623 200, 167 200.900, 167 202 C 167 203.333, 166.333 204, 165 204 C 163.889 204, 163 204.667, 163 205.500 C 163 206.325, 162.283 207, 161.406 207 C 160.530 207, 159.577 207.900, 159.290 209 C 159.002 210.100, 158.144 211, 157.383 211 C 156.623 211, 156 211.675, 156 212.500 C 156 213.325, 155.283 214, 154.406 214 C 153.530 214, 152.584 214.874, 152.305 215.943 C 152.013 217.059, 150.591 218.151, 148.963 218.508 C 146.895 218.962, 145.962 219.895, 145.508 221.963 C 145.151 223.591, 144.059 225.013, 142.943 225.305 C 141.874 225.584, 141 226.530, 141 227.406 C 141 228.283, 140.325 229, 139.500 229 C 138.667 229, 138 229.889, 138 231 C 138 232.333, 137.333 233, 136 233 C 134.889 233, 134 233.667, 134 234.500 C 134 235.325, 133.325 236, 132.500 236 C 131.667 236, 131 236.889, 131 238 C 131 239.333, 130.333 240, 129 240 C 127.889 240, 127 240.667, 127 241.500 C 127 242.325, 126.325 243, 125.500 243 C 124.667 243, 124 243.889, 124 245 C 124 246.333, 123.333 247, 122 247 C 120.394 247, 120 247.667, 120 250.383 C 120 253.278, 120.397 253.844, 122.750 254.300 C 124.263 254.594, 126.737 254.590, 128.250 254.292 C 130.600 253.829, 131 253.259, 131 250.375 C 131 248.042, 131.463 247, 132.500 247 C 133.325 247, 134 246.283, 134 245.406 C 134 244.530, 134.900 243.577, 136 243.290 C 137.100 243.002, 138 242.144, 138 241.383 C 138 240.623, 138.675 240, 139.500 240 C 140.325 240, 141 239.283, 141 238.406 C 141 237.530, 141.900 236.577, 143 236.290 C 144.100 236.002, 145.008 235.257, 145.017 234.633 C 145.039 233.198, 149.416 229, 150.891 229 C 151.501 229, 152 228.283, 152 227.406 C 152 226.530, 152.900 225.577, 154 225.290 C 155.100 225.002, 156 224.144, 156 223.383 C 156 222.623, 156.623 222, 157.383 222 C 158.144 222, 159.002 221.100, 159.290 220 C 159.577 218.900, 160.530 218, 161.406 218 C 162.283 218, 163 217.325, 163 216.500 C 163 215.667, 163.889 215, 165 215 C 166.333 215, 167 214.333, 167 213 C 167 211.889, 167.667 211, 168.500 211 C 169.325 211, 170 210.325, 170 209.500 C 170 208.667, 170.889 208, 172 208 C 173.333 208, 174 207.333, 174 206 C 174 204.667, 174.667 204, 176 204 C 177.111 204, 178 203.333, 178 202.500 C 178 201.675, 178.675 201, 179.500 201 C 180.333 201, 181 200.111, 181 199 C 181 197.667, 181.667 197, 183 197 C 184.333 197, 185 196.333, 185 195 C 185 193.667, 185.667 193, 187 193 C 188.111 193, 189 192.333, 189 191.500 C 189 190.443, 190.069 190, 192.617 190 C 195.879 190, 196.174 190.220, 195.630 192.250 C 195.299 193.488, 195.021 194.817, 195.014 195.205 C 195.006 195.592, 193.425 196.205, 191.500 196.566 C 188.318 197.163, 188 197.530, 188 200.611 C 188 203.898, 188.120 204, 192 204 C 194.789 204, 196 203.570, 196 202.579 C 196 201.798, 197.304 200.872, 198.898 200.522 C 201.912 199.860, 202.961 197.866, 202.986 192.750 C 202.995 191.055, 203.542 190, 204.412 190 C 205.280 190, 206.085 188.459, 206.500 186 C 206.915 183.541, 207.720 182, 208.588 182 C 209.773 182, 210 177.101, 210 151.500 C 210 126.039, 209.769 121, 208.601 121 C 207.604 121, 207.002 118.995, 206.500 114 C 205.998 109.005, 205.396 107, 204.399 107 C 203.370 107, 203 105.545, 203 101.500 C 203 96.667, 202.758 96, 201 96 C 199.381 96, 199 95.333, 199 92.500 C 199 90.056, 198.548 89, 197.500 89 C 196.667 89, 196 88.111, 196 87 C 196 85.667, 195.333 85, 194 85 C 192.667 85, 192 84.333, 192 83 C 192 81.889, 191.333 81, 190.500 81 C 189.675 81, 189 80.325, 189 79.500 C 189 78.567, 188.056 78, 186.500 78 C 185.038 78, 184 77.426, 184 76.617 C 184 74.512, 180.703 74.029, 166.250 74.014 C 155.145 74.002, 153 73.757, 153 72.500 C 153 71.365, 154.226 71, 158.031 71 C 161.486 71, 163.236 70.549, 163.615 69.561 C 163.919 68.770, 165.479 67.834, 167.084 67.482 C 168.688 67.129, 170 66.202, 170 65.421 C 170 64.639, 170.900 64, 172 64 C 173.606 64, 174 63.333, 174 60.617 C 174 58.074, 174.497 57.103, 176 56.710 C 177.472 56.325, 178 55.346, 178 53 C 178 50.654, 177.472 49.675, 176 49.290 C 174.900 49.002, 174 48.144, 174 47.383 C 174 46.623, 173.438 45.994, 172.750 45.986 C 172.063 45.979, 170.600 45.831, 169.500 45.657 C 168.400 45.483, 164.912 45.512, 161.750 45.720 M 156 83.500 C 156 84.652, 154.722 85, 150.500 85 C 145.667 85, 145 85.242, 145 87 C 145 88.100, 144.377 89, 143.617 89 C 142.856 89, 141.998 89.900, 141.710 91 C 141.423 92.100, 140.470 93, 139.594 93 C 138.194 93, 138 95.197, 138 111 C 138 126.803, 138.194 129, 139.594 129 C 140.470 129, 141.423 128.100, 141.710 127 C 142.065 125.644, 143.081 124.996, 144.867 124.986 C 149.040 124.965, 152 123.885, 152 122.383 C 152 121.276, 154.598 121, 165 121 C 175.889 121, 178 121.244, 178 122.500 C 178 123.325, 178.675 124, 179.500 124 C 180.650 124, 181 125.273, 181 129.455 C 181 134.880, 181.019 134.913, 184.443 135.555 C 187.204 136.073, 188.011 136.775, 188.522 139.101 C 188.872 140.695, 189.798 142, 190.579 142 C 191.681 142, 192 143.686, 192 149.500 L 192 157 188.500 157 L 185 157 185 151.969 C 185 145.827, 184.444 145.536, 174.478 146.470 C 169.028 146.981, 167 147.554, 167 148.585 C 167 149.569, 165.782 150, 163 150 C 160.166 150, 159 150.424, 159 151.455 C 159 152.325, 157.595 153.173, 155.500 153.566 C 153.495 153.942, 152 154.816, 152 155.611 C 152 156.532, 150.820 157, 148.500 157 C 145.083 157, 145 157.095, 145 161 C 145 164.905, 144.917 165, 141.500 165 C 139.056 165, 138 165.452, 138 166.500 C 138 167.325, 138.675 168, 139.500 168 C 140.957 168, 141.242 169.115, 141.418 175.500 C 141.497 178.408, 141.664 178.509, 146.829 178.805 C 151.500 179.072, 152.225 178.856, 152.696 177.055 C 153.146 175.336, 154.031 175, 158.117 175 C 161.660 175, 163 174.612, 163 173.585 C 163 172.554, 165.032 171.980, 170.500 171.468 C 175.878 170.964, 178 170.374, 178 169.383 C 178 168.279, 180.541 168, 190.590 168 L 203.179 168 202.840 152.462 C 202.575 140.368, 202.184 136.730, 201.075 136.045 C 200.085 135.434, 199.513 132.545, 199.200 126.583 C 198.864 120.187, 198.399 118, 197.375 118 C 196.418 118, 196 116.670, 196 113.625 C 196 107.259, 194.948 103, 193.375 103 C 192.470 103, 192 101.803, 192 99.500 C 192 97.104, 191.541 96, 190.545 96 C 189.675 96, 188.827 94.595, 188.434 92.500 C 188.073 90.575, 187.253 89, 186.611 89 C 185.969 89, 184.674 88.100, 183.732 87 C 182.790 85.900, 181.115 85, 180.010 85 C 178.890 85, 178 84.336, 178 83.500 C 178 82.258, 176.111 82, 167 82 C 157.889 82, 156 82.258, 156 83.500 M 81 103.740 C 79.075 103.971, 77.140 104.799, 76.700 105.580 C 76.108 106.632, 73.708 107, 67.450 107 C 60.907 107, 59 107.313, 59 108.389 C 59 109.184, 57.505 110.058, 55.500 110.434 C 53.405 110.827, 52 111.675, 52 112.545 C 52 113.345, 51.100 114, 50 114 C 48.381 114, 48 114.667, 48 117.500 L 48 121 53.500 121 C 57.526 121, 59 120.628, 59 119.611 C 59 118.816, 60.495 117.942, 62.500 117.566 C 64.595 117.173, 66 116.325, 66 115.455 C 66 114.358, 67.354 114, 71.500 114 L 77 114 77 141 C 77 164.333, 77.204 168, 78.500 168 C 79.333 168, 80 168.889, 80 170 C 80 171.111, 79.333 172, 78.500 172 C 77.675 172, 77 172.675, 77 173.500 C 77 174.325, 76.283 175, 75.406 175 C 74.530 175, 73.577 175.900, 73.290 177 C 72.897 178.503, 71.926 179, 69.383 179 C 67.163 179, 66 179.477, 66 180.389 C 66 181.184, 64.505 182.058, 62.500 182.434 C 60.405 182.827, 59 183.675, 59 184.545 C 59 185.345, 58.100 186, 57 186 C 55.889 186, 55 186.667, 55 187.500 C 55 188.325, 54.325 189, 53.500 189 C 52.417 189, 52 190.111, 52 193 C 52 195.889, 52.417 197, 53.500 197 C 54.325 197, 55 197.675, 55 198.500 C 55 199.728, 56.722 200, 64.500 200 C 72.278 200, 74 199.728, 74 198.500 C 74 197.490, 75.010 197, 77.094 197 C 79.346 197, 80.329 196.456, 80.710 195 C 80.998 193.900, 81.856 193, 82.617 193 C 83.531 193, 84 191.813, 84 189.500 C 84 186.667, 84.381 186, 86 186 C 87.333 186, 88 185.333, 88 184 C 88 182.889, 88.667 182, 89.500 182 C 90.325 182, 91 181.325, 91 180.500 C 91 179.667, 91.889 179, 93 179 C 94.333 179, 95 178.333, 95 177 C 95 175.381, 95.667 175, 98.500 175 C 100.944 175, 102 174.548, 102 173.500 C 102 172.675, 102.717 172, 103.594 172 C 104.470 172, 105.423 171.100, 105.710 170 C 106.143 168.344, 107.074 168, 111.117 168 C 114.617 168, 116 167.607, 116 166.611 C 116 165.816, 117.495 164.942, 119.500 164.566 C 122.698 163.966, 123 163.611, 123 160.455 L 123 157 118 157 C 113.667 157, 113 157.267, 113 159 C 113 160.619, 112.333 161, 109.500 161 C 107.056 161, 106 161.452, 106 162.500 C 106 163.523, 104.966 164.004, 102.750 164.014 C 98 164.034, 95 165.041, 95 166.617 C 95 167.521, 93.832 168, 91.625 168 C 88.645 168, 88.177 167.634, 87.625 164.875 C 87.281 163.156, 87 160.681, 87 159.375 C 87 157.931, 86.412 157, 85.500 157 C 84.239 157, 84 154.791, 84 143.117 C 84 130.074, 84.121 129.202, 86 128.710 C 87.667 128.274, 88 127.346, 88 123.139 C 88 118.161, 88.049 118.081, 91.500 117.434 C 93.505 117.058, 95 116.184, 95 115.389 C 95 114.307, 96.987 114, 104 114 L 113 114 113 110.071 C 113 103.543, 111.704 102.977, 97.179 103.160 C 90.205 103.248, 82.925 103.509, 81 103.740 M 165.250 128.706 C 164.012 128.944, 163 129.783, 163 130.570 C 163 131.615, 161.686 132, 158.125 132 C 153.465 132, 153.222 132.138, 152.625 135.125 C 152.281 136.844, 152 139.319, 152 140.625 C 152 143.522, 149.446 143.814, 148.710 141 C 148.310 139.468, 147.346 139, 144.594 139 C 142.066 139, 141 138.555, 141 137.500 C 141 136.675, 140.325 136, 139.500 136 C 138.310 136, 138 137.444, 138 143 L 138 150 141.500 150 C 143.896 150, 145 149.541, 145 148.545 C 145 147.675, 146.405 146.827, 148.500 146.434 C 150.505 146.058, 152 145.184, 152 144.389 C 152 143.435, 153.254 143, 156 143 C 158.739 143, 160 142.564, 160 141.617 C 160 140.041, 163 139.034, 167.750 139.014 C 169.966 139.004, 171 138.523, 171 137.500 C 171 136.675, 171.675 136, 172.500 136 C 173.538 136, 174 134.957, 174 132.617 C 174 128.418, 171.814 127.441, 165.250 128.706 M 182 216.500 C 182 217.333, 181.111 218, 180 218 C 178.667 218, 178 218.667, 178 220 C 178 221.667, 177.333 222, 174 222 C 170.667 222, 170 222.333, 170 224 C 170 225.111, 169.333 226, 168.500 226 C 167.675 226, 167 226.675, 167 227.500 C 167 228.548, 168.056 229, 170.500 229 C 172.944 229, 174 228.548, 174 227.500 C 174 226.452, 175.056 226, 177.500 226 C 179.944 226, 181 226.452, 181 227.500 C 181 228.684, 182.423 229.003, 187.750 229.014 C 195.848 229.030, 199 229.759, 199 231.617 C 199 232.627, 200.484 233, 204.500 233 C 208.722 233, 210 233.348, 210 234.500 C 210 235.466, 210.978 236.005, 212.750 236.014 C 217.032 236.035, 220 237.101, 220 238.617 C 220 239.564, 221.261 240, 224 240 C 226.739 240, 228 240.436, 228 241.383 C 228 242.899, 230.968 243.965, 235.250 243.986 C 237.022 243.995, 238 244.534, 238 245.500 C 238 246.356, 238.899 247, 240.094 247 C 241.346 247, 242.397 247.803, 242.710 249 C 243.143 250.656, 244.074 251, 248.117 251 L 253 251 253 247 C 253 244.111, 252.583 243, 251.500 243 C 250.675 243, 250 242.325, 250 241.500 C 250 240.417, 248.889 240, 246 240 C 243.261 240, 242 239.564, 242 238.617 C 242 237.101, 239.032 236.035, 234.750 236.014 C 233.077 236.005, 232 235.456, 232 234.611 C 232 233.816, 230.505 232.942, 228.500 232.566 C 226.405 232.173, 225 231.325, 225 230.455 C 225 229.424, 223.834 229, 221 229 C 218.254 229, 217 228.565, 217 227.611 C 217 226.816, 215.505 225.942, 213.500 225.566 C 211.405 225.173, 210 224.325, 210 223.455 C 210 222.320, 208.459 222, 203 222 C 197.727 222, 196 221.661, 196 220.625 C 196 219.196, 191.841 218, 186.875 218 C 184.986 218, 184 217.486, 184 216.500 C 184 215.675, 183.550 215, 183 215 C 182.450 215, 182 215.675, 182 216.500" stroke="none" fill="black" fill-rule="evenodd"/>
</svg>