<svg xmlns="http://www.w3.org/2000/svg" width="300" height="300" viewBox="0 0 300 300" version="1.1">
	<path d="M 181.255 46.132 C 180.828 47.766, 179.732 48, 172.500 48 C 165.074 48, 164.180 48.203, 163.710 50 C 163.423 51.100, 162.470 52, 161.594 52 C 160.504 52, 160 52.912, 160 54.883 C 160 58.369, 161.641 58.967, 171.250 58.986 C 176.337 58.997, 178 58.659, 178 57.617 C 178 55.465, 181.326 55.028, 197.844 55.014 C 212.352 55.001, 213.216 55.109, 213.710 57 C 214.016 58.168, 215.074 59, 216.256 59 C 218.094 59, 218.225 59.454, 217.689 63.978 C 217.253 67.656, 217.460 69.158, 218.482 69.730 C 220.385 70.795, 221.092 90.134, 219.250 90.749 C 217.770 91.243, 217.549 95, 219 95 C 219.550 95, 220 95.675, 220 96.500 C 220 97.325, 219.325 98, 218.500 98 C 217.675 98, 217 97.377, 217 96.617 C 217 95.856, 216.100 94.998, 215 94.710 C 213.900 94.423, 213 93.431, 213 92.508 C 213 91.012, 211.731 90.865, 201.428 91.164 C 191.666 91.447, 189.703 91.774, 188.878 93.250 C 188.134 94.583, 186.602 95, 182.450 95 C 178.272 95, 177 95.350, 177 96.500 C 177 97.325, 176.325 98, 175.500 98 C 174.675 98, 174 97.325, 174 96.500 C 174 95.675, 174.623 95, 175.383 95 C 176.144 95, 177.002 94.100, 177.290 93 C 177.603 91.803, 178.654 91, 179.906 91 C 181.101 91, 182 90.356, 182 89.500 C 182 88.490, 183.010 88, 185.094 88 C 187.346 88, 188.329 87.456, 188.710 86 C 189.184 84.189, 190.074 84, 198.117 84 C 205.346 84, 207 84.279, 207 85.500 C 207 86.325, 207.675 87, 208.500 87 C 209.325 87, 210 86.325, 210 85.500 C 210 84.675, 210.675 84, 211.500 84 C 212.325 84, 213 83.325, 213 82.500 C 213 81.675, 212.325 81, 211.500 81 C 210.567 81, 210 80.056, 210 78.500 C 210 76.310, 209.567 76, 206.500 76 C 204.575 76, 203 75.550, 203 75 C 203 73.621, 199.255 73.734, 198.791 75.127 C 198.584 75.747, 196.072 76.479, 193.208 76.754 C 189.703 77.091, 188 77.703, 188 78.627 C 188 79.529, 186.800 80, 184.500 80 C 181.667 80, 181 80.381, 181 82 C 181 83.619, 180.333 84, 177.500 84 C 175.187 84, 174 84.469, 174 85.383 C 174 86.144, 173.100 87.002, 172 87.290 C 170.900 87.577, 170 88.530, 170 89.406 C 170 90.283, 169.325 91, 168.500 91 C 167.675 91, 167 91.717, 167 92.594 C 167 93.470, 166.100 94.423, 165 94.710 C 163.497 95.103, 163 96.074, 163 98.617 C 163 101.333, 162.606 102, 161 102 C 159.900 102, 159 102.655, 159 103.455 C 159 104.325, 157.595 105.173, 155.500 105.566 C 153.495 105.942, 152 106.816, 152 107.611 C 152 108.375, 151.325 109, 150.500 109 C 149.348 109, 149 110.278, 149 114.500 C 149 118.722, 149.348 120, 150.500 120 C 151.325 120, 152 120.619, 152 121.375 C 152 122.532, 155.984 124, 159.125 124 C 159.606 124, 160 121.525, 160 118.500 C 160 114.484, 160.373 113, 161.383 113 C 162.144 113, 163.002 112.100, 163.290 111 C 163.577 109.900, 164.347 109, 165 109 C 165.653 109, 166.423 109.900, 166.710 111 C 167.315 113.314, 171 113.743, 171 111.500 C 171 110.675, 171.675 110, 172.500 110 C 173.325 110, 174 109.156, 174 108.125 C 174 106.226, 177.383 105, 182.625 105 C 184.069 105, 185 104.412, 185 103.500 C 185 102.348, 186.278 102, 190.500 102 C 194.722 102, 196 101.652, 196 100.500 C 196 99.310, 197.444 99, 203 99 C 208.556 99, 210 99.310, 210 100.500 C 210 101.325, 210.625 102, 211.389 102 C 212.184 102, 213.058 103.495, 213.434 105.500 C 213.827 107.595, 214.675 109, 215.545 109 C 216.642 109, 217 110.354, 217 114.500 C 217 118.545, 216.630 120, 215.601 120 C 214.605 120, 214.003 121.988, 213.509 126.907 C 212.707 134.896, 212.608 134.964, 201.750 134.986 C 196.423 134.997, 195 135.316, 195 136.500 C 195 137.325, 194.325 138, 193.500 138 C 192.675 138, 192 137.325, 192 136.500 C 192 135.667, 191.111 135, 190 135 C 188.889 135, 188 135.667, 188 136.500 C 188 137.722, 186.333 138, 179 138 C 172.076 138, 170 138.314, 170 139.361 C 170 140.751, 163.378 141.974, 155.750 141.991 C 153.087 141.997, 152 142.435, 152 143.500 C 152 144.690, 150.556 145, 145 145 L 138 145 138 123.500 C 138 102.667, 138.062 102, 140 102 C 141.100 102, 142 101.345, 142 100.545 C 142 99.668, 143.423 98.824, 145.583 98.418 C 148.625 97.848, 149.081 97.425, 148.597 95.623 C 148.284 94.455, 148.021 93.162, 148.014 92.750 C 147.993 91.641, 145.222 91.839, 144.833 92.977 C 144.650 93.515, 143.037 94.246, 141.250 94.602 L 138 95.250 138 78.625 C 138 64.514, 138.227 62, 139.500 62 C 141.596 62, 141.383 59.319, 139.250 58.844 C 138.287 58.630, 130.412 58.618, 121.750 58.817 C 109.033 59.110, 106 59.451, 106 60.590 C 106 61.684, 104.236 62, 98.125 62 C 88.432 62, 84 62.824, 84 64.625 C 84 65.625, 82.500 66, 78.500 66 C 73.667 66, 73 66.242, 73 68 C 73 69.111, 72.333 70, 71.500 70 C 70.675 70, 70 70.675, 70 71.500 C 70 72.325, 70.623 73, 71.383 73 C 72.144 73, 73.002 73.900, 73.290 75 C 73.671 76.456, 74.654 77, 76.906 77 C 78.990 77, 80 77.490, 80 78.500 C 80 79.333, 80.889 80, 82 80 C 83.619 80, 84 79.333, 84 76.500 L 84 73 91 73 C 96.556 73, 98 72.690, 98 71.500 C 98 70.427, 99.094 70, 101.844 70 C 103.959 70, 110.484 69.707, 116.344 69.348 L 127 68.696 127 83.848 C 127 96.650, 126.767 99, 125.500 99 C 124.675 99, 124 99.675, 124 100.500 C 124 101.333, 123.111 102, 122 102 C 120.667 102, 120 101.333, 120 100 C 120 98.900, 119.345 98, 118.545 98 C 117.675 98, 116.827 96.595, 116.434 94.500 L 115.777 91 101.389 91 C 89.265 91, 87 91.236, 87 92.500 C 87 93.325, 86.325 94, 85.500 94 C 84.333 94, 84 95.333, 84 100 C 84 105.882, 84.054 106, 86.750 105.986 C 91.032 105.965, 94 104.899, 94 103.383 C 94 102.623, 94.900 102, 96 102 C 97.111 102, 98 101.333, 98 100.500 C 98 99.477, 99.034 98.996, 101.250 98.986 C 103.037 98.979, 105.513 98.701, 106.750 98.370 C 108.565 97.883, 109 98.176, 109 99.883 C 109 101.333, 109.630 102, 111 102 C 112.619 102, 113 102.667, 113 105.500 C 113 108.333, 112.619 109, 111 109 C 109.900 109, 109 109.623, 109 110.383 C 109 111.885, 106.040 112.965, 101.867 112.986 C 100.081 112.996, 99.065 113.644, 98.710 115 C 98.423 116.100, 97.470 117, 96.594 117 C 95.717 117, 95 117.675, 95 118.500 C 95 119.333, 94.111 120, 93 120 C 91.900 120, 91 120.625, 91 121.389 C 91 122.184, 89.505 123.058, 87.500 123.434 C 85.405 123.827, 84 124.675, 84 125.545 C 84 126.345, 83.283 127, 82.406 127 C 81.530 127, 80.577 127.900, 80.290 129 C 80.002 130.100, 79.144 131, 78.383 131 C 77.392 131, 77 132.403, 77 135.955 C 77 140.798, 77.077 140.924, 80.400 141.547 C 85.885 142.576, 87.462 141.873, 87.813 138.242 C 88.007 136.236, 88.674 135, 89.563 135 C 90.354 135, 91 134.100, 91 133 C 91 131.667, 91.667 131, 93 131 C 94.333 131, 95 130.333, 95 129 C 95 127.667, 95.667 127, 97 127 C 98.100 127, 99 126.361, 99 125.579 C 99 124.798, 100.350 123.862, 102 123.500 C 103.650 123.138, 105 122.202, 105 121.421 C 105 120.473, 106.127 120, 108.383 120 C 110.926 120, 111.897 119.503, 112.290 118 C 112.577 116.900, 113.530 116, 114.406 116 C 115.283 116, 116 115.325, 116 114.500 C 116 113.667, 116.889 113, 118 113 C 119.100 113, 120 112.377, 120 111.617 C 120 110.331, 122.840 109.045, 125.750 109.014 C 126.712 109.003, 127 113.959, 127 130.500 C 127 148.076, 126.749 152, 125.625 152 C 123.484 152, 121.939 162.226, 123.897 163.437 C 125.470 164.409, 131 162.804, 131 161.375 C 131 160.619, 131.675 160, 132.500 160 C 133.333 160, 134 159.111, 134 158 C 134 156.333, 134.667 156, 138 156 C 140.707 156, 142 155.560, 142 154.639 C 142 153.249, 148.622 152.026, 156.250 152.009 C 158.913 152.003, 160 151.565, 160 150.500 C 160 149.278, 161.667 149, 169 149 C 175.996 149, 178 148.692, 178 147.617 C 178 145.598, 181.245 145.029, 192.853 145.014 L 203.207 145 202.960 151.750 C 202.605 161.479, 202.813 163, 204.500 163 C 205.325 163, 206 162.325, 206 161.500 C 206 160.667, 206.889 160, 208 160 C 209.333 160, 210 159.333, 210 158 C 210 156.667, 210.667 156, 212 156 C 213.619 156, 214 155.333, 214 152.500 C 214 150.056, 214.452 149, 215.500 149 C 216.544 149, 217 147.950, 217 145.550 C 217 143.397, 217.614 141.756, 218.634 141.185 C 219.690 140.594, 220.442 138.456, 220.761 135.135 C 221.067 131.951, 221.730 130, 222.507 130 C 223.405 130, 223.963 126.463, 224.480 117.500 C 225.040 107.799, 225.515 105, 226.601 105 C 227.764 105, 228 100.558, 228 78.617 C 228 53.074, 227.936 52.217, 226 51.710 C 224.900 51.423, 224 50.470, 224 49.594 C 224 48.287, 222.738 48, 217 48 C 211.687 48, 210 47.665, 210 46.608 C 210 44.539, 206.574 44.028, 193.527 44.151 C 182.914 44.252, 181.695 44.449, 181.255 46.132 M 148.324 171.868 C 147.925 173.394, 146.983 174, 145.008 174 C 141.672 174, 141 176.343, 141 187.971 C 141 202.402, 142.181 214, 143.650 214 C 144.727 214, 145 217.233, 145 230 C 145 243.556, 144.771 246, 143.500 246 C 142.459 246, 142 247.047, 142 249.421 C 142 252.425, 142.373 252.923, 145.068 253.515 C 146.755 253.886, 153.280 253.867, 159.568 253.474 C 168.277 252.930, 171 252.431, 171 251.380 C 171 250.294, 173.239 250, 181.500 250 L 192 250 192 253.500 C 192 256.833, 192.167 257, 195.500 257 C 198.333 257, 199 256.619, 199 255 C 199 253.667, 199.667 253, 201 253 C 202.619 253, 203 252.333, 203 249.500 C 203 247.056, 203.452 246, 204.500 246 C 205.548 246, 206 244.944, 206 242.500 C 206 239.667, 206.381 239, 208 239 C 209.758 239, 210 238.333, 210 233.500 C 210 228.667, 210.242 228, 212 228 C 213.619 228, 214 227.333, 214 224.500 C 214 222.056, 214.452 221, 215.500 221 C 216.605 221, 217 219.847, 217 216.625 C 217 210.259, 218.052 206, 219.625 206 C 220.690 206, 221 203.970, 221 197 C 221 189.791, 220.710 188, 219.545 188 C 218.675 188, 217.827 186.595, 217.434 184.500 C 216.959 181.967, 216.255 181, 214.889 181 C 213.850 181, 213 180.391, 213 179.647 C 213 177.843, 200.558 176.792, 189.385 177.651 C 183.323 178.117, 181 178.670, 181 179.648 C 181 180.698, 178.658 181, 170.500 181 C 160.667 181, 160 181.127, 160 183 C 160 184.667, 159.333 185, 156 185 C 152.095 185, 152 184.917, 152 181.500 C 152 178.667, 152.381 178, 154 178 C 155.619 178, 156 177.333, 156 174.500 C 156 172.374, 155.509 170.995, 154.750 170.986 C 154.063 170.979, 152.461 170.694, 151.191 170.354 C 149.392 169.873, 148.759 170.207, 148.324 171.868 M 192 186.500 C 192 187.627, 190.794 188, 187.147 188 C 177.846 188, 170 189.209, 170 190.642 C 170 191.621, 168.466 192, 164.500 192 C 160.354 192, 159 192.358, 159 193.455 C 159 194.325, 157.595 195.173, 155.500 195.566 L 152 196.223 152 203.111 L 152 210 156 210 C 158.834 210, 160 209.576, 160 208.545 C 160 207.675, 161.405 206.827, 163.500 206.434 C 165.505 206.058, 167 205.184, 167 204.389 C 167 203.401, 168.370 202.996, 171.750 202.986 C 177.923 202.969, 181 202.103, 181 200.383 C 181 199.303, 183.068 199, 190.429 199 C 202.431 199, 203 199.479, 203 209.571 L 203 217 199.500 217 C 196.352 217, 195.999 216.724, 195.986 214.250 C 195.955 207.950, 195.155 207, 189.883 207 C 186.209 207, 185 207.371, 185 208.500 C 185 209.652, 183.722 210, 179.500 210 C 175.354 210, 174 210.358, 174 211.455 C 174 212.325, 172.595 213.173, 170.500 213.566 C 168.495 213.942, 167 214.816, 167 215.611 C 167 216.375, 166.100 217, 165 217 C 163.190 217, 163 217.667, 163 224 C 163 229.418, 162.675 231, 161.563 231 C 160.674 231, 160.007 229.764, 159.813 227.758 C 159.607 225.623, 158.903 224.403, 157.750 224.185 C 156.181 223.888, 156 224.856, 156 233.566 L 156 243.279 161.250 242.648 C 164.137 242.301, 170.662 242.013, 175.750 242.009 C 183.302 242.002, 185 241.725, 185 240.500 C 185 239.452, 186.056 239, 188.500 239 C 190.944 239, 192 239.452, 192 240.500 C 192 241.333, 192.889 242, 194 242 C 195.111 242, 196 241.333, 196 240.500 C 196 239.675, 196.675 239, 197.500 239 C 198.333 239, 199 238.111, 199 237 C 199 235.900, 199.623 235, 200.383 235 C 201.959 235, 202.966 232, 202.986 227.250 C 202.996 225.034, 203.477 224, 204.500 224 C 205.466 224, 206.005 223.022, 206.014 221.250 C 206.035 216.968, 207.101 214, 208.617 214 C 209.720 214, 210 211.483, 210 201.545 L 210 189.091 206.500 188.434 C 204.495 188.058, 203 187.184, 203 186.389 C 203 185.372, 201.526 185, 197.500 185 C 193.278 185, 192 185.348, 192 186.500" stroke="none" fill="black" fill-rule="evenodd"/>
</svg>