<svg xmlns="http://www.w3.org/2000/svg" width="300" height="300" viewBox="0 0 300 300" version="1.1">
	<path d="M 188.710 75 C 188.310 76.532, 187.346 77, 184.594 77 C 182.066 77, 181 77.445, 181 78.500 C 181 79.466, 180.022 80.005, 178.250 80.014 C 173.968 80.035, 171 81.101, 171 82.617 C 171 83.623, 169.533 84, 165.617 84 C 161.074 84, 160.152 84.312, 159.710 86 C 159.423 87.100, 158.470 88, 157.594 88 C 156.717 88, 156 88.675, 156 89.500 C 156 90.325, 155.325 91, 154.500 91 C 153.675 91, 152.994 91.563, 152.986 92.250 C 152.979 92.938, 152.716 94.455, 152.403 95.623 C 151.919 97.425, 152.375 97.848, 155.417 98.418 C 157.577 98.824, 159 99.668, 159 100.545 C 159 101.345, 159.850 102, 160.889 102 C 162.248 102, 162.958 101.039, 163.420 98.572 C 163.935 95.832, 164.641 95.018, 166.948 94.511 C 168.535 94.163, 170.081 93.230, 170.385 92.439 C 170.697 91.625, 172.254 91, 173.969 91 C 175.871 91, 177 90.489, 177 89.628 C 177 88.800, 178.587 88.002, 181 87.616 C 183.588 87.202, 185 86.451, 185 85.488 C 185 84.312, 186.469 84, 192 84 C 197.556 84, 199 83.690, 199 82.500 C 199 81.316, 200.423 80.997, 205.750 80.986 C 209.463 80.979, 213.512 80.701, 214.750 80.370 L 217 79.767 217 101.415 C 217 119.735, 217.231 123.151, 218.500 123.638 C 220.524 124.415, 220.387 125.613, 218 128 C 215.626 130.374, 214 130.578, 214 128.500 C 214 127.667, 213.111 127, 212 127 C 210.627 127, 210 126.333, 210 124.875 C 210 123.028, 209.591 122.832, 206.875 123.375 C 205.156 123.719, 201.106 124, 197.875 124 C 193.319 124, 192 124.337, 192 125.500 C 192 126.637, 190.767 127, 186.906 127 C 182.654 127, 181.726 127.330, 181.290 129 C 180.897 130.503, 179.926 131, 177.383 131 C 175.163 131, 174 131.477, 174 132.389 C 174 133.184, 172.505 134.058, 170.500 134.434 C 168.405 134.827, 167 135.675, 167 136.545 C 167 137.345, 166.100 138, 165 138 C 163.381 138, 163 138.667, 163 141.500 C 163 144.333, 163.381 145, 165 145 C 166.333 145, 167 145.667, 167 147 C 167 148.111, 167.667 149, 168.500 149 C 169.325 149, 170 149.675, 170 150.500 C 170 151.548, 171.056 152, 173.500 152 C 175.944 152, 177 151.548, 177 150.500 C 177 149.675, 176.325 149, 175.500 149 C 174.452 149, 174 147.944, 174 145.500 C 174 142.167, 174.167 142, 177.500 142 C 180.333 142, 181 141.619, 181 140 C 181 138.333, 181.667 138, 185 138 C 187.712 138, 189 137.561, 189 136.636 C 189 135.070, 195.146 134, 204.140 134 L 210 134 210 138 C 210 141.905, 210.083 142, 213.500 142 C 216.333 142, 217 141.619, 217 140 C 217 138.667, 217.667 138, 219 138 C 220.810 138, 221 138.667, 221 145 L 221 152 217.406 152 C 214.654 152, 213.690 152.468, 213.290 154 C 212.857 155.656, 211.926 156, 207.883 156 C 204.277 156, 203 156.380, 203 157.455 C 203 158.325, 201.595 159.173, 199.500 159.566 C 197.495 159.942, 196 160.816, 196 161.611 C 196 162.375, 195.100 163, 194 163 C 192.900 163, 192 163.655, 192 164.455 C 192 165.325, 190.595 166.173, 188.500 166.566 C 186.495 166.942, 185 167.816, 185 168.611 C 185 169.532, 183.820 170, 181.500 170 C 178.667 170, 178 170.381, 178 172 C 178 173.333, 177.333 174, 176 174 C 174.900 174, 174 174.625, 174 175.389 C 174 176.184, 172.505 177.058, 170.500 177.434 C 168.563 177.797, 167 178.690, 167 179.434 C 167 180.178, 165.437 181.071, 163.500 181.434 C 161.405 181.827, 160 182.675, 160 183.545 C 160 184.345, 159.100 185, 158 185 C 156.889 185, 156 185.667, 156 186.500 C 156 187.325, 156.675 188, 157.500 188 C 158.333 188, 159 188.889, 159 190 C 159 191.822, 159.667 192, 166.500 192 L 174 192 174 188.617 C 174 186.074, 174.497 185.103, 176 184.710 C 177.100 184.423, 178 183.470, 178 182.594 C 178 181.717, 178.675 181, 179.500 181 C 180.325 181, 181 180.375, 181 179.611 C 181 178.816, 182.495 177.942, 184.500 177.566 C 186.595 177.173, 188 176.325, 188 175.455 C 188 174.468, 189.089 174, 191.383 174 C 193.926 174, 194.897 173.503, 195.290 172 C 195.603 170.803, 196.654 170, 197.906 170 C 199.101 170, 200 169.356, 200 168.500 C 200 167.513, 200.987 167, 202.883 167 C 204.926 167, 205.919 166.417, 206.290 165 C 206.671 163.544, 207.654 163, 209.906 163 C 211.865 163, 213 162.495, 213 161.625 C 213 160.196, 218.530 158.591, 220.103 159.563 C 220.596 159.868, 221 164.141, 221 169.059 C 221 176.340, 221.279 178, 222.500 178 C 223.770 178, 224.036 180.798, 224.233 196.250 C 224.361 206.287, 224.340 217.537, 224.186 221.250 L 223.905 228 227.953 228 C 231.333 228, 232 227.671, 232 226 C 232 224.889, 232.667 224, 233.500 224 C 234.776 224, 235 221.389, 235 206.500 C 235 191.611, 234.776 189, 233.500 189 C 232.265 189, 231.999 187.192, 231.994 178.750 C 231.985 162.623, 230.935 152, 229.352 152 C 228.239 152, 228 145.020, 228 112.500 L 228 73 208.617 73 C 190.074 73, 189.211 73.087, 188.710 75 M 66 80.500 C 66 82.820, 66.468 84, 67.389 84 C 68.184 84, 69.058 85.495, 69.434 87.500 C 70.034 90.698, 70.389 91, 73.545 91 C 75.902 91, 77 90.538, 77 89.545 C 77 88.675, 78.405 87.827, 80.500 87.434 C 82.505 87.058, 84 86.184, 84 85.389 C 84 84.278, 86.501 84, 96.500 84 C 106.376 84, 109 84.286, 109 85.361 C 109 86.879, 115.782 87.977, 125.250 87.991 C 129.475 87.998, 131 88.367, 131 89.383 C 131 90.144, 131.959 91.018, 133.132 91.324 C 134.793 91.759, 135.127 92.392, 134.646 94.191 C 134.306 95.461, 134.021 101.112, 134.014 106.750 C 134.002 115.188, 133.735 117, 132.500 117 C 131.253 117, 130.998 118.978, 130.986 128.750 C 130.969 143.682, 130.629 145, 126.790 145 C 124.654 145, 123.665 145.565, 123.290 147 C 122.897 148.503, 121.926 149, 119.383 149 C 117.163 149, 116 149.477, 116 150.389 C 116 151.184, 114.505 152.058, 112.500 152.434 C 110.405 152.827, 109 153.675, 109 154.545 C 109 155.541, 107.896 156, 105.500 156 C 102.667 156, 102 156.381, 102 158 C 102 159.619, 101.333 160, 98.500 160 C 96.056 160, 95 160.452, 95 161.500 C 95 162.333, 94.111 163, 93 163 C 91.900 163, 91 163.655, 91 164.455 C 91 165.325, 89.595 166.173, 87.500 166.566 C 85.495 166.942, 84 167.816, 84 168.611 C 84 169.539, 82.806 170, 80.406 170 C 77.654 170, 76.690 170.468, 76.290 172 C 75.897 173.503, 74.926 174, 72.383 174 C 69.183 174, 69 174.190, 69 177.500 L 69 181 76.500 181 C 82.500 181, 84 180.700, 84 179.500 C 84 178.445, 85.066 178, 87.594 178 C 90.346 178, 91.310 177.532, 91.710 176 C 92.081 174.583, 93.074 174, 95.117 174 C 97.088 174, 98 173.496, 98 172.406 C 98 171.530, 98.900 170.577, 100 170.290 C 101.100 170.002, 102 169.144, 102 168.383 C 102 167.623, 102.900 167, 104 167 C 105.100 167, 106 166.345, 106 165.545 C 106 164.675, 107.405 163.827, 109.500 163.434 C 111.425 163.073, 113 162.203, 113 161.500 C 113 160.797, 114.575 159.927, 116.500 159.566 C 118.595 159.173, 120 158.325, 120 157.455 C 120 156.655, 120.900 156, 122 156 C 123.100 156, 124 155.377, 124 154.617 C 124 153.331, 126.840 152.045, 129.750 152.014 C 130.704 152.003, 131 156.236, 131 169.883 C 131 186.926, 130.906 187.791, 129 188.290 C 127.330 188.726, 127 189.654, 127 193.906 C 127 198.793, 126.888 199.001, 124.250 199.014 C 118.820 199.041, 117 200.051, 117 203.037 C 117 205.344, 117.536 205.959, 120.022 206.505 C 124.265 207.437, 131 206.153, 131 204.412 C 131 203.635, 131.675 203, 132.500 203 C 133.555 203, 134 201.934, 134 199.406 C 134 196.654, 134.468 195.690, 136 195.290 C 137.656 194.857, 138 193.926, 138 189.883 C 138 186.407, 138.396 185, 139.375 185 C 141.468 185, 142 180.310, 142 161.875 L 142 145 145.500 145 C 148.833 145, 149 144.833, 149 141.500 C 149 138.667, 148.619 138, 147 138 C 145.889 138, 145 138.667, 145 139.500 C 145 141.597, 142.314 141.383, 141.867 139.250 C 141.665 138.287, 141.644 130.412, 141.820 121.750 C 142.082 108.911, 142.405 106, 143.570 106 C 144.627 106, 145.004 104.629, 145.014 100.750 C 145.031 94.098, 145.858 91, 147.617 91 C 148.531 91, 149 89.813, 149 87.500 L 149 84 143.500 84 C 138.667 84, 138 83.758, 138 82 C 138 80.148, 137.333 80, 129 80 C 121.667 80, 120 79.722, 120 78.500 C 120 77.204, 116.333 77, 93 77 L 66 77 66 80.500 M 95 121.375 C 95 122.746, 90.880 124, 86.375 124 C 85.015 124, 84 124.594, 84 125.389 C 84 126.184, 82.505 127.058, 80.500 127.434 C 78.405 127.827, 77 128.675, 77 129.545 C 77 130.345, 76.100 131, 75 131 C 73.889 131, 73 131.667, 73 132.500 C 73 133.325, 72.377 134, 71.617 134 C 70.856 134, 69.993 135.238, 69.700 136.750 C 68.954 140.590, 69.984 145, 71.625 145 C 72.381 145, 73 145.900, 73 147 C 73 148.333, 73.667 149, 75 149 C 76.111 149, 77 149.667, 77 150.500 C 77 151.354, 77.899 152, 79.088 152 C 80.968 152, 81.109 151.604, 80.504 148.022 C 79.663 143.044, 80.707 138, 82.579 138 C 83.361 138, 84 137.365, 84 136.588 C 84 135.720, 85.541 134.915, 88 134.500 C 90.459 134.085, 92 133.280, 92 132.412 C 92 131.286, 94.124 131, 102.500 131 L 113 131 113 134.500 C 113 136.944, 113.452 138, 114.500 138 C 115.333 138, 116 138.889, 116 140 C 116 141.333, 116.667 142, 118 142 C 119.850 142, 120 141.333, 120 133.117 C 120 125.074, 119.811 124.184, 118 123.710 C 116.900 123.423, 116 122.470, 116 121.594 C 116 120.237, 114.441 120, 105.500 120 C 97.258 120, 95 120.296, 95 121.375" stroke="none" fill="black" fill-rule="evenodd"/>
</svg>