<svg xmlns="http://www.w3.org/2000/svg" width="300" height="300" viewBox="0 0 300 300" version="1.1">
	<path d="M 112.750 34.668 C 111.729 34.947, 111 36.105, 111 37.448 C 111 38.714, 110.719 41.156, 110.375 42.875 C 109.767 45.915, 109.848 46, 113.375 46 C 115.780 46, 117 46.462, 117 47.372 C 117 48.200, 118.587 48.998, 121 49.384 C 123.588 49.798, 125 50.549, 125 51.512 C 125 52.333, 125.896 53, 127 53 C 128.100 53, 129 53.639, 129 54.421 C 129 55.202, 130.294 56.125, 131.875 56.473 C 134.351 57.016, 134.828 57.682, 135.308 61.262 C 135.615 63.549, 135.615 66.675, 135.308 68.210 C 134.853 70.487, 134.221 71, 131.875 71 C 129.986 71, 129 71.514, 129 72.500 C 129 73.605, 127.847 74, 124.625 74 C 118.259 74, 114 75.052, 114 76.625 C 114 77.661, 112.273 78, 107 78 C 101.444 78, 100 78.310, 100 79.500 C 100 80.555, 98.934 81, 96.406 81 C 93.654 81, 92.690 81.468, 92.290 83 C 91.897 84.503, 90.926 85, 88.383 85 C 85.183 85, 85 84.810, 85 81.500 C 85 78.667, 85.381 78, 87 78 C 88.100 78, 89 77.377, 89 76.617 C 89 75.856, 89.931 74.990, 91.069 74.692 C 92.728 74.258, 93.075 73.494, 92.819 70.834 C 92.462 67.121, 90.918 66.418, 85.400 67.453 C 83.384 67.831, 82 68.683, 82 69.545 C 82 70.345, 81.100 71, 80 71 C 78.242 71, 78 71.667, 78 76.500 C 78 80.516, 77.627 82, 76.617 82 C 74.682 82, 74.029 85.196, 74.014 94.750 C 74.003 101.411, 73.711 103, 72.500 103 C 71.244 103, 71 105.111, 71 116 C 71 126.889, 71.244 129, 72.500 129 C 73.325 129, 74 129.675, 74 130.500 C 74 131.538, 75.043 132, 77.383 132 C 81.077 132, 81.960 130.514, 81.986 124.250 C 81.997 121.662, 81.593 121, 80 121 C 78.127 121, 78 120.333, 78 110.500 C 78 101.979, 78.274 100, 79.455 100 C 80.331 100, 81.176 101.421, 81.580 103.577 C 82.192 106.838, 82.483 107.096, 84.874 106.496 C 88.277 105.641, 88.152 105.833, 88.747 100.549 C 89.078 97.614, 89.746 96, 90.630 96 C 91.384 96, 92 95.283, 92 94.406 C 92 93.530, 92.900 92.577, 94 92.290 C 95.100 92.002, 96 91.144, 96 90.383 C 96 89.373, 97.484 89, 101.500 89 C 105.500 89, 107 88.625, 107 87.625 C 107 86.052, 111.259 85, 117.625 85 C 120.847 85, 122 84.605, 122 83.500 C 122 82.328, 123.367 81.997, 128.250 81.986 C 135.865 81.970, 139 81.210, 139 79.383 C 139 78.623, 139.900 78, 141 78 C 142.111 78, 143 78.667, 143 79.500 C 143 80.325, 143.675 81, 144.500 81 C 145.325 81, 146 80.325, 146 79.500 C 146 78.217, 148.889 78, 166 78 C 183.111 78, 186 77.783, 186 76.500 C 186 75.300, 187.500 75, 193.500 75 C 199.500 75, 201 75.300, 201 76.500 C 201 77.633, 202.222 78, 206 78 L 211 78 211 87 C 211 94.333, 210.722 96, 209.500 96 C 208.445 96, 208 97.066, 208 99.594 C 208 102.346, 207.532 103.310, 206 103.710 C 204.497 104.103, 204 105.074, 204 107.617 C 204 109.873, 203.527 111, 202.579 111 C 201.798 111, 200.862 112.350, 200.500 114 C 199.954 116.485, 199.347 117, 196.966 117 C 194.472 117, 194.004 116.536, 193.434 113.500 C 192.788 110.056, 192.697 110, 187.795 110 C 183.654 110, 182.724 110.338, 182.290 112 C 182.002 113.100, 181.144 114, 180.383 114 C 179.623 114, 179 114.675, 179 115.500 C 179 116.325, 178.283 117, 177.406 117 C 176.530 117, 175.577 117.900, 175.290 119 C 175.002 120.100, 174.194 121, 173.495 121 C 172.795 121, 171.927 122.575, 171.566 124.500 C 171.173 126.595, 170.325 128, 169.455 128 C 168.655 128, 168 128.900, 168 130 C 168 131.100, 167.345 132, 166.545 132 C 165.675 132, 164.827 133.405, 164.434 135.500 C 164.058 137.505, 163.184 139, 162.389 139 C 161.466 139, 161 140.185, 161 142.531 C 161 144.719, 160.440 146.278, 159.527 146.628 C 158.717 146.939, 157.767 148.725, 157.416 150.597 C 157.065 152.468, 156.188 154, 155.468 154 C 154.748 154, 153.862 155.350, 153.500 157 C 153.138 158.650, 152.202 160, 151.421 160 C 150.430 160, 150 161.211, 150 164 C 150 167.333, 149.667 168, 148 168 C 146.667 168, 146 168.667, 146 170 C 146 171.111, 145.333 172, 144.500 172 C 143.675 172, 143 172.675, 143 173.500 C 143 174.333, 142.111 175, 141 175 C 139.148 175, 139 174.333, 139 166 C 139 158.667, 138.722 157, 137.500 157 C 136.675 157, 136 156.325, 136 155.500 C 136 154.675, 136.675 154, 137.500 154 C 138.583 154, 139 152.889, 139 150 C 139 147.111, 138.583 146, 137.500 146 C 136.675 146, 136 145.325, 136 144.500 C 136 143.667, 135.111 143, 134 143 C 132.889 143, 132 143.667, 132 144.500 C 132 145.333, 131.111 146, 130 146 C 128.182 146, 128 146.667, 128 153.344 C 128 168.665, 129.234 182, 130.652 182 C 131.616 182, 132 183.535, 132 187.383 C 132 191.926, 131.688 192.848, 130 193.290 C 128.544 193.671, 128 194.654, 128 196.906 C 128 198.990, 127.510 200, 126.500 200 C 125.667 200, 125 200.889, 125 202 C 125 203.333, 124.333 204, 123 204 C 121.381 204, 121 204.667, 121 207.500 C 121 210.333, 120.619 211, 119 211 C 117.889 211, 117 211.667, 117 212.500 C 117 213.325, 116.325 214, 115.500 214 C 114.567 214, 114 214.944, 114 216.500 C 114 218.056, 113.433 219, 112.500 219 C 111.675 219, 111 219.675, 111 220.500 C 111 221.333, 110.111 222, 109 222 C 107.381 222, 107 222.667, 107 225.500 C 107 228.333, 106.619 229, 105 229 C 103.667 229, 103 229.667, 103 231 C 103 232.111, 102.333 233, 101.500 233 C 100.675 233, 100 233.717, 100 234.594 C 100 235.470, 99.100 236.423, 98 236.710 C 96.900 236.998, 96 237.856, 96 238.617 C 96 239.377, 95.325 240, 94.500 240 C 93.675 240, 93 240.717, 93 241.594 C 93 242.470, 92.100 243.423, 91 243.710 C 89.900 243.998, 89 244.856, 89 245.617 C 89 246.377, 88.100 247, 87 247 C 85.667 247, 85 247.667, 85 249 C 85 250.111, 84.333 251, 83.500 251 C 82.675 251, 82 251.625, 82 252.389 C 82 253.184, 80.505 254.058, 78.500 254.434 C 76.405 254.827, 75 255.675, 75 256.545 C 75 257.430, 74.021 258, 72.500 258 C 70.667 258, 70 258.533, 70 260 C 70 261.100, 69.550 262, 69 262 C 68.450 262, 68 262.675, 68 263.500 C 68 264.633, 69.222 265, 73 265 C 76.600 265, 78 264.611, 78 263.611 C 78 262.816, 79.495 261.942, 81.500 261.566 C 83.595 261.173, 85 260.325, 85 259.455 C 85 258.655, 85.900 258, 87 258 C 88.333 258, 89 257.333, 89 256 C 89 254.667, 89.667 254, 91 254 C 92.111 254, 93 253.333, 93 252.500 C 93 251.675, 93.675 251, 94.500 251 C 95.333 251, 96 250.111, 96 249 C 96 247.667, 96.667 247, 98 247 C 99.100 247, 100 246.361, 100 245.579 C 100 244.798, 101.321 243.869, 102.935 243.514 C 105.139 243.030, 106.030 242.139, 106.514 239.935 C 106.869 238.321, 107.798 237, 108.579 237 C 109.361 237, 110 236.100, 110 235 C 110 233.667, 110.667 233, 112 233 C 113.333 233, 114 232.333, 114 231 C 114 229.900, 114.655 229, 115.455 229 C 116.325 229, 117.173 227.595, 117.566 225.500 C 117.942 223.495, 118.816 222, 119.611 222 C 120.375 222, 121 221.100, 121 220 C 121 218.667, 121.667 218, 123 218 C 124.333 218, 125 217.333, 125 216 C 125 214.900, 125.639 214, 126.421 214 C 127.202 214, 128.128 212.696, 128.478 211.102 C 129.186 207.879, 131.649 206.780, 136.149 207.680 C 138.608 208.172, 139 208.714, 139 211.625 C 139 214.333, 139.395 215, 141 215 C 142.111 215, 143 215.667, 143 216.500 C 143 217.325, 143.675 218, 144.500 218 C 145.333 218, 146 218.889, 146 220 C 146 221.860, 146.667 222, 155.500 222 C 163.278 222, 165 222.272, 165 223.500 C 165 224.325, 165.675 225, 166.500 225 C 167.325 225, 168 224.325, 168 223.500 C 168 222.348, 169.278 222, 173.500 222 C 177.545 222, 179 221.630, 179 220.601 C 179 219.604, 181.005 219.002, 186 218.500 C 190.661 218.032, 193 217.369, 193 216.515 C 193 215.810, 193.900 214.998, 195 214.710 C 196.804 214.238, 197 213.346, 197 205.594 C 197 197.667, 196.845 197, 195 197 C 193.667 197, 193 196.333, 193 195 C 193 193.900, 192.375 193, 191.611 193 C 190.816 193, 189.942 191.505, 189.566 189.500 C 189.173 187.405, 188.325 186, 187.455 186 C 186.655 186, 186 185.100, 186 184 C 186 182.889, 185.333 182, 184.500 182 C 183.675 182, 183 181.325, 183 180.500 C 183 179.534, 183.978 178.995, 185.750 178.986 C 190.032 178.965, 193 177.899, 193 176.383 C 193 175.623, 193.675 175, 194.500 175 C 196.615 175, 196.378 172.028, 194.250 171.870 C 193.287 171.799, 188.758 171.846, 184.184 171.975 C 176.472 172.192, 175.827 172.056, 175.317 170.104 C 174.894 168.488, 173.982 168, 171.383 168 C 168.667 168, 168 167.606, 168 166 C 168 164.667, 167.333 164, 166 164 C 164.262 164, 164 163.333, 164 158.906 C 164 154.654, 164.330 153.726, 166 153.290 C 167.503 152.897, 168 151.926, 168 149.383 C 168 147.089, 168.468 146, 169.455 146 C 170.325 146, 171.173 144.595, 171.566 142.500 C 171.927 140.575, 172.797 139, 173.500 139 C 174.203 139, 175.073 137.425, 175.434 135.500 C 175.827 133.405, 176.675 132, 177.545 132 C 178.345 132, 179 131.100, 179 130 C 179 128.900, 179.639 128, 180.421 128 C 181.202 128, 182.134 126.664, 182.493 125.032 C 183.020 122.634, 183.804 121.940, 186.572 121.420 C 188.522 121.055, 190 120.178, 190 119.389 C 190 118.625, 190.675 118, 191.500 118 C 192.325 118, 193 118.623, 193 119.383 C 193 120.144, 193.900 121.002, 195 121.290 C 196.100 121.577, 197 122.347, 197 123 C 197 123.653, 196.100 124.423, 195 124.710 C 193.900 124.998, 193 125.803, 193 126.500 C 193 127.197, 192.100 128.002, 191 128.290 C 189.900 128.577, 189 129.530, 189 130.406 C 189 131.283, 188.325 132, 187.500 132 C 186.452 132, 186 133.056, 186 135.500 C 186 137.944, 186.452 139, 187.500 139 C 188.325 139, 189 138.325, 189 137.500 C 189 136.667, 189.889 136, 191 136 C 192.333 136, 193 135.333, 193 134 C 193 132.393, 193.667 132, 196.389 132 C 199.470 132, 199.837 131.682, 200.434 128.500 C 200.827 126.405, 201.675 125, 202.545 125 C 203.345 125, 204 124.100, 204 123 C 204 121.667, 204.667 121, 206 121 C 207.619 121, 208 120.333, 208 117.500 C 208 115.056, 208.452 114, 209.500 114 C 210.333 114, 211 113.111, 211 112 C 211 110.900, 211.655 110, 212.455 110 C 213.325 110, 214.173 108.595, 214.566 106.500 C 214.942 104.495, 215.816 103, 216.611 103 C 217.456 103, 218.005 101.923, 218.014 100.250 C 218.035 95.968, 219.101 93, 220.617 93 C 221.564 93, 222 91.739, 222 89 C 222 86.273, 222.438 85, 223.375 85 C 224.907 85, 226 80.770, 226 74.844 C 226 72.036, 225.508 70.756, 224.250 70.292 C 223.287 69.936, 222.179 69.163, 221.788 68.573 C 221.317 67.864, 211.652 67.399, 193.308 67.204 C 168.923 66.943, 165.400 67.100, 164.385 68.488 C 163.522 69.668, 160.657 70.226, 153.114 70.686 L 143 71.302 143 62.151 C 143 53.667, 142.854 53, 141 53 C 139.667 53, 139 52.333, 139 51 C 139 49.667, 138.333 49, 137 49 C 135.889 49, 135 48.333, 135 47.500 C 135 46.675, 134.325 46, 133.500 46 C 132.667 46, 132 45.111, 132 44 C 132 42.381, 131.333 42, 128.500 42 C 125.667 42, 125 41.619, 125 40 C 125 38.667, 124.333 38, 123 38 C 121.889 38, 121 37.333, 121 36.500 C 121 35.675, 120.438 34.994, 119.750 34.986 C 119.063 34.979, 117.600 34.796, 116.500 34.581 C 115.400 34.366, 113.713 34.405, 112.750 34.668 M 103 119.500 C 103 120.325, 102.325 121, 101.500 121 C 100.327 121, 99.999 122.364, 99.994 127.250 C 99.982 139.673, 98.783 150, 97.352 150 C 96.336 150, 96 151.865, 96 157.500 C 96 163.219, 95.671 165, 94.617 165 C 93.101 165, 92.035 167.968, 92.014 172.250 C 92.005 174.022, 91.466 175, 90.500 175 C 89.456 175, 89 176.050, 89 178.450 C 89 180.579, 88.385 182.245, 87.394 182.799 C 86.428 183.340, 85.580 185.551, 85.264 188.349 C 84.924 191.365, 84.258 193, 83.370 193 C 82.464 193, 82 194.218, 82 196.594 C 82 199.346, 81.532 200.310, 80 200.710 C 78.263 201.164, 78 202.074, 78 207.617 C 78 212.406, 78.348 214, 79.393 214 C 80.159 214, 81.045 213.325, 81.362 212.500 C 81.723 211.559, 83.252 211, 85.469 211 L 89 211 89 204 C 89 198.638, 89.330 197, 90.412 197 C 91.280 197, 92.085 195.459, 92.500 193 C 92.915 190.541, 93.720 189, 94.588 189 C 95.535 189, 96 187.848, 96 185.500 C 96 183.187, 96.469 182, 97.383 182 C 98.899 182, 99.965 179.032, 99.986 174.750 C 99.995 172.978, 100.534 172, 101.500 172 C 102.648 172, 103 170.735, 103 166.617 C 103 162.074, 103.312 161.152, 105 160.710 C 106.841 160.229, 107 159.346, 107 149.594 C 107 141.326, 107.299 139, 108.361 139 C 109.850 139, 110.976 132.255, 110.991 123.250 L 111 118 107 118 C 104.111 118, 103 118.417, 103 119.500 M 206.250 153.685 C 204.291 154.080, 204 154.762, 204 158.958 C 204 163.674, 204.075 163.791, 207.500 164.434 C 209.595 164.827, 211 165.675, 211 166.545 C 211 167.541, 212.104 168, 214.500 168 L 218 168 218 173.500 L 218 179 221.594 179 C 224.346 179, 225.310 178.532, 225.710 177 C 225.998 175.900, 226.856 175, 227.617 175 C 228.606 175, 229 173.608, 229 170.117 C 229 166.074, 228.656 165.143, 227 164.710 C 225.900 164.423, 225 163.470, 225 162.594 C 225 161.479, 224.070 161, 221.906 161 C 219.654 161, 218.671 160.456, 218.290 159 C 218.002 157.900, 217.144 157, 216.383 157 C 215.623 157, 215 156.325, 215 155.500 C 215 154.675, 214.438 153.994, 213.750 153.986 C 213.063 153.979, 211.600 153.806, 210.500 153.602 C 209.400 153.398, 207.488 153.436, 206.250 153.685 M 153 176.500 C 153 177.325, 152.325 178, 151.500 178 C 150.667 178, 150 178.889, 150 180 C 150 181.163, 149.333 182, 148.406 182 C 147.530 182, 146.577 182.900, 146.290 184 C 146.002 185.100, 145.144 186, 144.383 186 C 143.308 186, 143 188.004, 143 195 C 143 203.333, 143.148 204, 145 204 C 146.333 204, 147 204.667, 147 206 C 147 207.111, 147.667 208, 148.500 208 C 149.325 208, 150 208.675, 150 209.500 C 150 210.333, 150.889 211, 152 211 C 153.100 211, 154 211.623, 154 212.383 C 154 214.207, 157.134 214.970, 164.700 214.986 C 169.500 214.997, 171.115 214.617, 171.850 213.304 C 172.549 212.055, 174.538 211.497, 179.400 211.187 C 184.150 210.885, 186 210.379, 186 209.384 C 186 208.623, 186.675 208, 187.500 208 C 188.333 208, 189 207.111, 189 206 C 189 204.889, 188.333 204, 187.500 204 C 186.348 204, 186 202.722, 186 198.500 C 186 194.484, 185.627 193, 184.617 193 C 183.856 193, 182.998 192.100, 182.710 191 C 182.423 189.900, 181.470 189, 180.594 189 C 179.439 189, 179 188.036, 179 185.500 C 179 182.667, 178.619 182, 177 182 C 175.889 182, 175 181.333, 175 180.500 C 175 179.371, 173.791 179, 170.117 179 C 166.074 179, 165.143 178.656, 164.710 177 C 164.266 175.301, 163.346 175, 158.594 175 C 154.288 175, 153 175.345, 153 176.500" stroke="none" fill="black" fill-rule="evenodd"/>
</svg>