<svg xmlns="http://www.w3.org/2000/svg" width="300" height="300" viewBox="0 0 300 300" version="1.1">
	<path d="M 71 24.500 C 71 25.333, 70.111 26, 69 26 C 67.667 26, 67 26.667, 67 28 C 67 29.111, 66.333 30, 65.500 30 C 64.452 30, 64 31.056, 64 33.500 C 64 35.891, 64.459 37, 65.450 37 C 66.248 37, 67.373 37.788, 67.950 38.750 C 68.950 40.417, 69.050 40.417, 70.050 38.750 C 70.725 37.624, 72.330 37, 74.550 37 C 76.848 37, 78 36.530, 78 35.594 C 78 34.500, 80.281 34.107, 88.250 33.824 C 93.888 33.625, 99.513 33.635, 100.750 33.847 C 103.237 34.274, 103.886 37, 101.500 37 C 99.146 37, 99.747 39.699, 102.250 40.370 C 106.393 41.480, 107 41.113, 107 37.500 C 107 35.056, 107.452 34, 108.500 34 C 109.333 34, 110 33.111, 110 32 C 110 30.889, 109.333 30, 108.500 30 C 107.667 30, 107 29.111, 107 28 C 107 26.667, 106.333 26, 105 26 C 103.889 26, 103 25.333, 103 24.500 C 103 23.229, 100.556 23, 87 23 C 73.444 23, 71 23.229, 71 24.500 M 183.250 51.743 C 177.727 52.005, 176 52.435, 176 53.544 C 176 54.638, 174.663 55, 170.617 55 C 166.074 55, 165.152 55.312, 164.710 57 C 164.310 58.532, 163.346 59, 160.594 59 C 158.194 59, 157 59.461, 157 60.389 C 157 61.184, 155.505 62.058, 153.500 62.434 C 150.059 63.080, 150 63.175, 150 68.045 C 150 71.828, 150.362 73, 151.531 73 C 152.374 73, 153.322 73.675, 153.638 74.500 C 153.955 75.325, 154.841 76, 155.607 76 C 156.373 76, 157 75.325, 157 74.500 C 157 73.667, 157.889 73, 159 73 C 160.111 73, 161 72.333, 161 71.500 C 161 70.675, 161.717 70, 162.594 70 C 163.470 70, 164.423 69.100, 164.710 68 C 165.103 66.497, 166.074 66, 168.617 66 C 170.957 66, 172 65.538, 172 64.500 C 172 63.675, 172.675 63, 173.500 63 C 174.325 63, 175 63.675, 175 64.500 C 175 65.325, 174.365 66, 173.588 66 C 172.720 66, 171.915 67.541, 171.500 70 C 171.085 72.459, 170.280 74, 169.412 74 C 168.271 74, 168 76.401, 168 86.500 C 168 96.342, 167.712 99, 166.647 99 C 164.983 99, 164 109.085, 164 126.151 C 164 136.017, 163.749 138, 162.500 138 C 161.213 138, 161 141.056, 161 159.500 C 161 177.944, 161.213 181, 162.500 181 C 163.684 181, 164.003 182.423, 164.014 187.750 C 164.030 195.848, 164.759 199, 166.617 199 C 167.377 199, 168 199.675, 168 200.500 C 168 201.325, 168.563 202.006, 169.250 202.014 C 169.938 202.021, 171.512 202.299, 172.750 202.630 C 174.565 203.117, 175 202.824, 175 201.117 C 175 199.667, 175.630 199, 177 199 C 178.163 199, 179 198.333, 179 197.406 C 179 196.530, 178.100 195.577, 177 195.290 C 175.900 195.002, 175 194.144, 175 193.383 C 175 192.623, 174.393 192, 173.652 192 C 171.800 192, 170.947 168.476, 171.721 138.750 C 172.192 120.670, 172.590 116, 173.657 116 C 174.513 116, 175 114.789, 175 112.660 L 175 109.321 189.500 109.117 C 203.502 108.920, 204 108.983, 204 110.957 C 204 112.625, 204.642 113, 207.500 113 C 210.833 113, 211 113.167, 211 116.500 C 211 119.333, 211.381 120, 213 120 C 214.619 120, 215 120.667, 215 123.500 C 215 125.848, 215.465 127, 216.412 127 C 217.280 127, 218.085 128.541, 218.500 131 C 218.915 133.459, 219.720 135, 220.588 135 C 221.692 135, 222 136.830, 222 143.383 C 222 150.926, 221.799 151.819, 220 152.290 C 218.900 152.577, 218 153.530, 218 154.406 C 218 155.510, 217.078 156, 215 156 C 211.814 156, 210.780 153.682, 213.500 152.638 C 214.637 152.202, 215 150.359, 215 145.031 L 215 138 209.500 138 C 204.667 138, 204 137.758, 204 136 C 204 134.188, 203.333 134, 196.906 134 C 190.654 134, 189.751 134.237, 189.290 136 C 189.002 137.100, 188.144 138, 187.383 138 C 186.394 138, 186 139.392, 186 142.883 C 186 146.926, 186.344 147.857, 188 148.290 C 189.100 148.577, 190 149.530, 190 150.406 C 190 151.561, 190.964 152, 193.500 152 C 196.833 152, 197 151.833, 197 148.500 L 197 145 202 145 L 207 145 207 150.500 C 207 154.722, 206.652 156, 205.500 156 C 204.667 156, 204 156.889, 204 158 C 204 159.333, 203.333 160, 202 160 C 200.889 160, 200 160.667, 200 161.500 C 200 162.510, 198.990 163, 196.906 163 C 194.654 163, 193.671 163.544, 193.290 165 C 192.897 166.503, 191.926 167, 189.383 167 C 187.169 167, 186 167.478, 186 168.383 C 186 169.144, 185.100 170.002, 184 170.290 C 182.900 170.577, 182 171.530, 182 172.406 C 182 173.571, 181.026 174, 178.383 174 C 175.121 174, 174.826 174.220, 175.370 176.250 C 175.701 177.488, 175.979 179.063, 175.986 179.750 C 175.994 180.438, 176.675 181, 177.500 181 C 178.325 181, 179 181.675, 179 182.500 C 179 183.325, 179.675 184, 180.500 184 C 181.325 184, 182 183.325, 182 182.500 C 182 181.417, 183.111 181, 186 181 C 188.889 181, 190 180.583, 190 179.500 C 190 178.534, 190.978 177.995, 192.750 177.986 C 197.032 177.965, 200 176.899, 200 175.383 C 200 174.623, 200.900 174, 202 174 C 203.100 174, 204 173.345, 204 172.545 C 204 171.675, 205.405 170.827, 207.500 170.434 C 209.505 170.058, 211 169.184, 211 168.389 C 211 167.625, 211.900 167, 213 167 C 214.100 167, 215 166.377, 215 165.617 C 215 164.118, 217.959 163.035, 222.111 163.014 C 224.516 163.001, 224.771 163.413, 225.352 168.250 C 225.699 171.137, 225.987 177.662, 225.991 182.750 L 226 192 222 192 C 219.111 192, 218 192.417, 218 193.500 C 218 194.510, 216.990 195, 214.906 195 C 212.654 195, 211.671 195.544, 211.290 197 C 210.862 198.634, 209.919 199.002, 206.133 199.014 C 200.071 199.032, 197 199.907, 197 201.617 C 197 202.531, 195.813 203, 193.500 203 C 191.180 203, 190 203.468, 190 204.389 C 190 205.184, 188.505 206.058, 186.500 206.434 C 184.405 206.827, 183 207.675, 183 208.545 C 183 209.541, 181.896 210, 179.500 210 C 177.056 210, 176 210.452, 176 211.500 C 176 212.356, 175.101 213, 173.906 213 C 172.654 213, 171.603 213.803, 171.290 215 C 170.897 216.503, 169.926 217, 167.383 217 C 164.206 217, 164 217.206, 164 220.383 C 164 223.270, 164.399 223.843, 166.714 224.286 C 170.705 225.049, 176 223.956, 176 222.369 C 176 221.393, 177.435 221, 181 221 C 185.333 221, 186 220.733, 186 219 C 186 217.667, 186.667 217, 188 217 C 189.100 217, 190 216.345, 190 215.545 C 190 214.675, 191.405 213.827, 193.500 213.434 C 195.505 213.058, 197 212.184, 197 211.389 C 197 210.468, 198.180 210, 200.500 210 C 202.803 210, 204 209.530, 204 208.625 C 204 207.254, 208.120 206, 212.625 206 C 214.069 206, 215 205.412, 215 204.500 C 215 203.452, 216.056 203, 218.500 203 C 220.944 203, 222 203.452, 222 204.500 C 222 205.333, 221.111 206, 220 206 C 218.667 206, 218 206.667, 218 208 C 218 209.111, 217.333 210, 216.500 210 C 215.667 210, 215 210.889, 215 212 C 215 213.100, 214.345 214, 213.545 214 C 212.675 214, 211.827 215.405, 211.434 217.500 C 211.073 219.425, 210.205 221, 209.505 221 C 208.806 221, 207.998 221.900, 207.710 223 C 207.423 224.100, 206.470 225, 205.594 225 C 204.504 225, 204 225.912, 204 227.883 C 204 229.926, 203.417 230.919, 202 231.290 C 200.900 231.577, 200 232.530, 200 233.406 C 200 234.283, 199.325 235, 198.500 235 C 197.452 235, 197 236.056, 197 238.500 C 197 241.333, 196.619 242, 195 242 C 193.381 242, 193 242.667, 193 245.500 C 193 247.944, 192.548 249, 191.500 249 C 190.667 249, 190 249.889, 190 251 C 190 252.333, 189.333 253, 188 253 C 186.333 253, 186 253.667, 186 257 C 186 259.789, 185.570 261, 184.579 261 C 183.798 261, 182.862 262.350, 182.500 264 C 182.138 265.650, 181.259 267, 180.548 267 C 179.813 267, 178.980 268.726, 178.616 271 C 178.264 273.200, 177.532 275, 176.988 275 C 174.861 275, 176.145 277.820, 178.546 278.422 C 181.490 279.161, 183 278.489, 183 276.441 C 183 275.648, 183.675 275, 184.500 275 C 185.333 275, 186 274.111, 186 273 C 186 271.900, 186.655 271, 187.455 271 C 188.325 271, 189.173 269.595, 189.566 267.500 C 189.927 265.575, 190.797 264, 191.500 264 C 192.203 264, 193.073 262.425, 193.434 260.500 C 193.827 258.405, 194.675 257, 195.545 257 C 196.345 257, 197 256.100, 197 255 C 197 253.889, 197.667 253, 198.500 253 C 199.548 253, 200 251.944, 200 249.500 C 200 246.667, 200.381 246, 202 246 C 203.619 246, 204 245.333, 204 242.500 C 204 239.667, 204.381 239, 206 239 C 207.333 239, 208 238.333, 208 237 C 208 235.889, 208.667 235, 209.500 235 C 210.325 235, 211 234.325, 211 233.500 C 211 232.667, 211.889 232, 213 232 C 214.606 232, 215 231.333, 215 228.617 C 215 226.074, 215.497 225.103, 217 224.710 C 218.435 224.335, 219 223.346, 219 221.210 C 219 218.968, 219.556 218.084, 221.250 217.630 C 225.421 216.513, 225.614 216.798, 225.556 224 C 225.504 230.452, 225.334 230.999, 223.375 231 C 215.823 231.001, 213.488 233.189, 214.680 239.149 C 215.210 241.801, 215.579 242, 219.978 242 C 229.164 242, 237 243.216, 237 244.642 C 237 245.601, 238.437 246, 241.883 246 C 245.926 246, 246.857 246.344, 247.290 248 C 247.671 249.456, 248.654 250, 250.906 250 C 252.990 250, 254 250.490, 254 251.500 C 254 252.652, 255.278 253, 259.500 253 L 265 253 265 249.500 C 265 246.667, 264.619 246, 263 246 C 261.900 246, 261 245.345, 261 244.545 C 261 243.675, 259.595 242.827, 257.500 242.434 C 255.495 242.058, 254 241.184, 254 240.389 C 254 239.544, 252.923 238.995, 251.250 238.986 C 246.968 238.965, 244 237.899, 244 236.383 C 244 235.373, 242.516 235, 238.500 235 C 234.484 235, 233 234.627, 233 233.617 C 233 232.856, 232.100 231.998, 231 231.710 C 229.900 231.423, 229 230.470, 229 229.594 C 229 228.667, 229.837 228, 231 228 C 232.667 228, 233 227.333, 233 224 C 233 221.246, 233.434 220, 234.394 220 C 236.252 220, 236.679 210.261, 236.157 179.750 C 235.849 161.724, 235.452 156, 234.510 156 C 233.686 156, 233.098 153.611, 232.760 148.887 C 232.453 144.602, 231.731 141.452, 230.945 140.966 C 230.195 140.502, 229.452 137.572, 229.199 134.079 C 228.889 129.790, 228.353 128, 227.380 128 C 226.437 128, 226 126.734, 226 124 C 226 120.667, 225.667 120, 224 120 C 222.381 120, 222 119.333, 222 116.500 C 222 114.056, 221.548 113, 220.500 113 C 219.675 113, 219 112.283, 219 111.406 C 219 110.530, 218.100 109.577, 217 109.290 C 215.900 109.002, 215 108.102, 215 107.290 C 215 106.477, 214.100 105.577, 213 105.290 C 211.900 105.002, 211 104.144, 211 103.383 C 211 102.469, 209.813 102, 207.500 102 C 205.187 102, 204 101.531, 204 100.617 C 204 98.858, 200.902 98.031, 194.250 98.014 C 190.256 98.003, 189 97.641, 189 96.500 C 189 95.367, 187.778 95, 184 95 C 180.222 95, 179 95.367, 179 96.500 C 179 98.854, 176.301 98.253, 175.630 95.750 C 174.418 91.226, 174.924 88.253, 177 87.710 C 178.670 87.274, 179 86.346, 179 82.094 C 179 78.423, 179.387 77, 180.383 77 C 181.144 77, 182.002 76.100, 182.290 75 C 182.726 73.330, 183.654 73, 187.906 73 C 191.767 73, 193 72.637, 193 71.500 C 193 70.452, 194.056 70, 196.500 70 C 199.333 70, 200 69.619, 200 68 C 200 66.667, 200.667 66, 202 66 C 203.619 66, 204 65.333, 204 62.500 C 204 60.056, 204.452 59, 205.500 59 C 206.325 59, 207 58.325, 207 57.500 C 207 56.675, 206.325 56, 205.500 56 C 204.675 56, 204 55.163, 204 54.139 C 204 52.641, 202.976 52.156, 198.750 51.648 C 195.863 51.301, 192.825 51.103, 192 51.207 C 191.175 51.312, 187.238 51.553, 183.250 51.743 M 63.150 56.696 C 62.451 57.945, 60.462 58.503, 55.600 58.813 C 50.850 59.115, 49 59.621, 49 60.616 C 49 61.531, 47.813 62, 45.500 62 L 42 62 42 67.500 C 42 72.333, 42.242 73, 44 73 C 45.111 73, 46 72.333, 46 71.500 C 46 70.289, 47.589 69.997, 54.250 69.986 C 63.804 69.971, 67 69.318, 67 67.383 C 67 66.308, 69.004 66, 76 66 L 85 66 85 69.500 C 85 71.820, 84.532 73, 83.611 73 C 82.816 73, 81.942 74.495, 81.566 76.500 C 81.173 78.595, 80.325 80, 79.455 80 C 78.459 80, 78 81.104, 78 83.500 C 78 86.036, 77.561 87, 76.406 87 C 75.530 87, 74.577 87.900, 74.290 89 C 74.002 90.100, 73.197 91, 72.500 91 C 71.803 91, 70.998 91.900, 70.710 93 C 70.123 95.245, 67 95.765, 67 93.617 C 67 92.101, 64.032 91.035, 59.750 91.014 C 57.978 91.005, 57 90.466, 57 89.500 C 57 88.667, 56.111 88, 55 88 C 53.667 88, 53 87.333, 53 86 C 53 84.242, 52.333 84, 47.500 84 L 42 84 42 87.500 C 42 90.036, 42.439 91, 43.594 91 C 44.470 91, 45.423 91.900, 45.710 93 C 45.998 94.100, 46.856 95, 47.617 95 C 48.377 95, 49 95.625, 49 96.389 C 49 97.184, 50.495 98.058, 52.500 98.434 C 54.595 98.827, 56 99.675, 56 100.545 C 56 101.541, 57.104 102, 59.500 102 C 62.333 102, 63 102.381, 63 104 C 63 105.111, 62.333 106, 61.500 106 C 60.452 106, 60 107.056, 60 109.500 C 60 112.333, 59.619 113, 58 113 C 56.667 113, 56 113.667, 56 115 C 56 116.111, 55.333 117, 54.500 117 C 53.675 117, 53 117.675, 53 118.500 C 53 119.325, 52.345 120, 51.545 120 C 50.682 120, 49.831 121.385, 49.452 123.406 C 48.907 126.307, 48.307 126.907, 45.406 127.452 C 42.480 128.001, 42 128.491, 42 130.934 C 42 133.392, 41.525 133.866, 38.500 134.434 C 35.059 135.080, 35 135.175, 35 140.045 L 35 145 42 145 C 47.273 145, 49 144.661, 49 143.625 C 49 142.254, 53.120 141, 57.625 141 L 60 141 60 168.500 C 60 191.167, 59.758 196, 58.625 196 C 57.254 196, 56 200.120, 56 204.625 C 56 206.069, 55.412 207, 54.500 207 C 53.534 207, 52.995 207.978, 52.986 209.750 C 52.965 214.032, 51.899 217, 50.383 217 C 49.469 217, 49 218.187, 49 220.500 C 49 223.036, 48.561 224, 47.406 224 C 46.530 224, 45.577 224.900, 45.290 226 C 45.002 227.100, 44.144 228, 43.383 228 C 42.373 228, 42 229.484, 42 233.500 L 42 239 45.594 239 C 48.346 239, 49.310 238.532, 49.710 237 C 49.998 235.900, 50.856 235, 51.617 235 C 52.531 235, 53 233.813, 53 231.500 C 53 229.180, 53.468 228, 54.389 228 C 55.184 228, 56.058 226.505, 56.434 224.500 C 56.827 222.405, 57.675 221, 58.545 221 C 59.576 221, 60 219.834, 60 217 C 60 214.261, 60.436 213, 61.383 213 C 62.899 213, 63.965 210.032, 63.986 205.750 C 63.995 203.978, 64.534 203, 65.500 203 C 66.605 203, 67 201.847, 67 198.625 C 67 192.259, 68.052 188, 69.625 188 C 70.755 188, 71 183.545, 71 163 L 71 138 74.500 138 C 76.803 138, 78 137.530, 78 136.625 C 78 135.254, 82.120 134, 86.625 134 C 87.989 134, 89 133.407, 89 132.606 C 89 131.560, 91.006 131.121, 97.042 130.847 C 102.787 130.586, 105.348 130.055, 106.005 128.991 C 106.697 127.872, 108.911 127.500, 114.877 127.500 C 123.056 127.500, 125.797 128.415, 122.742 130.125 C 120.031 131.642, 120.686 133.687, 124.103 134.371 C 127.620 135.074, 129 134.530, 129 132.441 C 129 131.648, 129.675 131, 130.500 131 C 131.333 131, 132 130.111, 132 129 C 132 127.667, 132.667 127, 134 127 C 135.518 127, 135.997 126.338, 135.986 124.250 C 135.965 119.968, 134.899 117, 133.383 117 C 132.623 117, 132 116.100, 132 115 C 132 113.190, 131.333 113, 125 113 C 118.667 113, 118 112.810, 118 111 C 118 109.667, 117.333 109, 116 109 C 114.889 109, 114 108.333, 114 107.500 C 114 106.588, 113.069 106, 111.625 106 C 107.120 106, 103 104.746, 103 103.375 C 103 102.339, 101.273 102, 96 102 C 90.727 102, 89 101.661, 89 100.625 C 89 99.254, 84.880 98, 80.375 98 C 78.931 98, 78 97.412, 78 96.500 C 78 95.667, 78.889 95, 80 95 C 81.333 95, 82 94.333, 82 93 C 82 91.889, 82.667 91, 83.500 91 C 84.548 91, 85 89.944, 85 87.500 C 85 84.667, 85.381 84, 87 84 C 88.333 84, 89 83.333, 89 82 C 89 80.900, 89.623 80, 90.383 80 C 91.144 80, 92.002 79.100, 92.290 78 C 92.577 76.900, 93.530 76, 94.406 76 C 95.561 76, 96 75.036, 96 72.500 C 96 70.187, 96.469 69, 97.383 69 C 98.911 69, 99.965 66.026, 99.986 61.656 C 99.996 59.647, 99.413 58.659, 98 58.290 C 96.900 58.002, 96 57.144, 96 56.383 C 96 55.263, 92.963 55, 80.050 55 C 66.091 55, 63.981 55.212, 63.150 56.696 M 186 60.500 C 186 61.325, 186.675 62, 187.500 62 C 188.325 62, 189 61.325, 189 60.500 C 189 59.675, 188.325 59, 187.500 59 C 186.675 59, 186 59.675, 186 60.500 M 179 64.500 C 179 65.325, 179.675 66, 180.500 66 C 181.325 66, 182 65.325, 182 64.500 C 182 63.675, 181.325 63, 180.500 63 C 179.675 63, 179 63.675, 179 64.500 M 67.667 109.667 C 67.300 110.033, 67 111.608, 67 113.167 C 67 115.019, 66.480 116, 65.500 116 C 64.667 116, 64 116.889, 64 118 C 64 119.333, 63.333 120, 62 120 C 60.667 120, 60 120.667, 60 122 C 60 123.100, 59.374 124, 58.608 124 C 57.105 124, 55.563 128.484, 56.528 130.046 C 57.427 131.501, 60 131.183, 60 129.617 C 60 127.759, 63.152 127.030, 71.250 127.014 C 76.577 127.003, 78 126.684, 78 125.500 C 78 124.588, 78.931 124, 80.375 124 C 84.880 124, 89 122.746, 89 121.375 C 89 120.310, 91.030 120, 98 120 C 106.333 120, 107 119.852, 107 118 C 107 116.381, 106.333 116, 103.500 116 C 101.056 116, 100 115.548, 100 114.500 C 100 113.348, 98.722 113, 94.500 113 C 90.500 113, 89 112.625, 89 111.625 C 89 110.869, 87.594 109.969, 85.875 109.625 C 81.718 108.794, 68.509 108.824, 67.667 109.667 M 103.710 140 C 103.397 141.197, 102.346 142, 101.094 142 C 99.899 142, 99 142.644, 99 143.500 C 99 144.325, 98.325 145, 97.500 145 C 96.452 145, 96 146.056, 96 148.500 C 96 150.848, 95.535 152, 94.588 152 C 93.720 152, 92.915 153.541, 92.500 156 C 92.085 158.459, 91.280 160, 90.412 160 C 89.381 160, 89 161.374, 89 165.094 C 89 169.346, 88.670 170.274, 87 170.710 C 85.497 171.103, 85 172.074, 85 174.617 C 85 176.816, 84.520 178, 83.629 178 C 82.739 178, 82.025 179.754, 81.594 183 C 81.140 186.424, 80.469 188, 79.466 188 C 78.467 188, 78 189.078, 78 191.383 C 78 193.926, 77.503 194.897, 76 195.290 C 74.334 195.725, 74 196.654, 74 200.847 C 74 206.438, 74.729 207.357, 78.428 206.429 C 80.308 205.957, 81.109 204.933, 81.585 202.398 C 81.947 200.471, 82.824 199, 83.611 199 C 84.532 199, 85 197.820, 85 195.500 C 85 192.667, 85.381 192, 87 192 C 88.619 192, 89 191.333, 89 188.500 C 89 186.152, 89.465 185, 90.412 185 C 91.280 185, 92.085 183.459, 92.500 181 C 92.915 178.541, 93.720 177, 94.588 177 C 95.616 177, 96 175.639, 96 172 C 96 167.667, 96.267 167, 98 167 C 99.333 167, 100 166.333, 100 165 C 100 163.889, 100.667 163, 101.500 163 C 102.548 163, 103 161.944, 103 159.500 C 103 156.667, 103.381 156, 105 156 C 106.619 156, 107 155.333, 107 152.500 C 107 150.056, 107.452 149, 108.500 149 C 109.583 149, 110 147.889, 110 145 C 110 142.111, 109.583 141, 108.500 141 C 107.675 141, 107 140.325, 107 139.500 C 107 137.274, 104.316 137.682, 103.710 140 M 121 157.500 C 121 158.325, 120.283 159, 119.406 159 C 118.530 159, 117.577 159.900, 117.290 161 C 117.002 162.100, 116.144 163, 115.383 163 C 114.623 163, 114 163.623, 114 164.383 C 114 165.144, 113.100 166.002, 112 166.290 C 110.803 166.603, 110 167.654, 110 168.906 C 110 170.101, 109.356 171, 108.500 171 C 107.452 171, 107 172.056, 107 174.500 C 107 176.813, 106.531 178, 105.617 178 C 104.041 178, 103.034 181, 103.014 185.750 C 103.005 187.921, 102.517 189, 101.545 189 C 100.675 189, 99.827 190.405, 99.434 192.500 C 99.058 194.505, 98.184 196, 97.389 196 C 96.389 196, 96 197.400, 96 201 C 96 204.639, 95.616 206, 94.588 206 C 93.720 206, 92.915 207.541, 92.500 210 C 92.085 212.459, 91.280 214, 90.412 214 C 89.367 214, 89 215.430, 89 219.500 L 89 225 92.500 225 C 95.810 225, 96 224.817, 96 221.617 C 96 219.074, 96.497 218.103, 98 217.710 C 99.532 217.310, 100 216.346, 100 213.594 C 100 211.066, 100.445 210, 101.500 210 C 102.544 210, 103 208.950, 103 206.550 C 103 204.421, 103.615 202.755, 104.606 202.201 C 105.572 201.660, 106.420 199.449, 106.736 196.651 C 107.069 193.700, 107.748 192, 108.596 192 C 109.443 192, 110.173 190.173, 110.594 187 C 111.025 183.754, 111.739 182, 112.629 182 C 113.383 182, 114 181.100, 114 180 C 114 178.900, 114.625 178, 115.389 178 C 116.184 178, 117.058 176.505, 117.434 174.500 C 117.827 172.405, 118.675 171, 119.545 171 C 120.345 171, 121 170.100, 121 169 C 121 167.667, 121.667 167, 123 167 C 124.111 167, 125 166.333, 125 165.500 C 125 164.675, 125.675 164, 126.500 164 C 127.433 164, 128 163.056, 128 161.500 C 128 159.944, 127.433 159, 126.500 159 C 125.675 159, 125 158.325, 125 157.500 C 125 156.667, 124.111 156, 123 156 C 121.889 156, 121 156.667, 121 157.500 M 143 182.883 C 143 183.369, 142.100 184.002, 141 184.290 C 139.900 184.577, 139 185.477, 139 186.290 C 139 187.102, 138.100 188.002, 137 188.290 C 135.900 188.577, 135 189.530, 135 190.406 C 135 191.283, 134.325 192, 133.500 192 C 132.452 192, 132 193.056, 132 195.500 C 132 197.848, 131.535 199, 130.588 199 C 129.720 199, 128.915 200.541, 128.500 203 C 128.085 205.459, 127.280 207, 126.412 207 C 125.465 207, 125 208.152, 125 210.500 C 125 212.896, 124.541 214, 123.545 214 C 122.675 214, 121.827 215.405, 121.434 217.500 C 121.073 219.425, 120.203 221, 119.500 221 C 118.797 221, 117.927 222.575, 117.566 224.500 C 117.173 226.595, 116.325 228, 115.455 228 C 114.459 228, 114 229.104, 114 231.500 C 114 234.333, 113.619 235, 112 235 C 110.381 235, 110 235.667, 110 238.500 C 110 240.944, 109.548 242, 108.500 242 C 107.667 242, 107 242.889, 107 244 C 107 245.619, 106.333 246, 103.500 246 C 100.167 246, 100 246.167, 100 249.500 L 100 253 105.500 253 C 109.722 253, 111 252.652, 111 251.500 C 111 250.675, 111.675 250, 112.500 250 C 113.333 250, 114 249.111, 114 248 C 114 246.900, 114.655 246, 115.455 246 C 116.325 246, 117.173 244.595, 117.566 242.500 C 117.942 240.495, 118.816 239, 119.611 239 C 120.375 239, 121 238.100, 121 237 C 121 235.900, 121.623 235, 122.383 235 C 123.899 235, 124.965 232.032, 124.986 227.750 C 124.995 226.077, 125.544 225, 126.389 225 C 127.184 225, 128.058 223.505, 128.434 221.500 C 128.827 219.405, 129.675 218, 130.545 218 C 131.576 218, 132 216.834, 132 214 C 132 210.667, 132.333 210, 134 210 C 135.333 210, 136 209.333, 136 208 C 136 206.889, 136.667 206, 137.500 206 C 138.466 206, 139.005 205.022, 139.014 203.250 C 139.035 198.968, 140.101 196, 141.617 196 C 142.377 196, 143 195.100, 143 194 C 143 192.667, 143.667 192, 145 192 C 147.109 192, 147.641 188.992, 146.370 184.250 C 145.800 182.125, 143 180.989, 143 182.883" stroke="none" fill="black" fill-rule="evenodd"/>
</svg>