<svg xmlns="http://www.w3.org/2000/svg" width="300" height="300" viewBox="0 0 300 300" version="1.1">
	<path d="M 192 14.383 C 192 16.340, 188.791 16.971, 178.750 16.986 C 171.645 16.997, 170 17.282, 170 18.500 C 170 19.663, 168.681 20, 164.125 20 C 156.342 20, 152 20.940, 152 22.625 C 152 23.474, 150.896 24, 149.117 24 C 147.074 24, 146.081 24.583, 145.710 26 C 145.423 27.100, 144.519 28, 143.702 28 C 142.885 28, 141.934 29.125, 141.589 30.500 C 140.753 33.831, 141.876 38, 143.608 38 C 144.374 38, 145 38.900, 145 40 C 145 41.333, 145.667 42, 147 42 C 148.667 42, 149 41.333, 149 38 C 149 35.111, 149.417 34, 150.500 34 C 151.325 34, 152 33.325, 152 32.500 C 152 31.452, 153.056 31, 155.500 31 C 157.944 31, 159 30.548, 159 29.500 C 159 28.378, 160.197 27.998, 163.750 27.994 C 166.363 27.991, 172.234 27.697, 176.799 27.342 C 183.169 26.846, 184.977 26.383, 184.580 25.348 C 184.175 24.291, 185.678 24, 191.531 24 C 197.503 24, 199 23.699, 199 22.500 C 199 21.667, 199.889 21, 201 21 C 202.111 21, 203 21.667, 203 22.500 C 203 23.325, 203.675 24, 204.500 24 C 205.722 24, 206 25.667, 206 33 C 206 40.333, 205.722 42, 204.500 42 C 203.213 42, 202.999 45.087, 202.991 63.750 C 202.981 88.537, 202.373 96, 200.361 96 C 199.314 96, 199 98.076, 199 105 L 199 114 192 114 C 186.444 114, 185 114.310, 185 115.500 C 185 116.597, 183.858 117.002, 180.750 117.006 C 170.141 117.021, 160 118.312, 160 119.648 C 160 120.664, 158.135 121, 152.500 121 C 145.667 121, 145 121.178, 145 123 C 145 124.822, 144.333 125, 137.500 125 C 131.500 125, 130 125.300, 130 126.500 C 130 127.690, 128.556 128, 123 128 L 116 128 116 124.906 C 116 122.654, 116.544 121.671, 118 121.290 C 119.503 120.897, 120 119.926, 120 117.383 C 120 114.589, 119.626 114, 117.852 114 C 115.776 114, 115.725 113.722, 116.346 105.750 C 116.699 101.213, 116.991 95.588, 116.994 93.250 C 116.998 90.142, 117.403 89, 118.500 89 C 119.652 89, 120 87.722, 120 83.500 C 120 78.667, 120.242 78, 122 78 C 123.100 78, 124 77.375, 124 76.611 C 124 75.816, 125.495 74.942, 127.500 74.566 C 129.429 74.204, 131 73.309, 131 72.571 C 131 71.835, 131.947 70.986, 133.105 70.683 C 136.990 69.667, 134.558 67.513, 129.171 67.198 L 124 66.895 124 61.948 C 124 58.216, 124.369 57, 125.500 57 C 126.555 57, 127 55.934, 127 53.406 C 127 50.654, 127.468 49.690, 129 49.290 C 130.688 48.848, 131 47.926, 131 43.383 C 131 39.265, 131.352 38, 132.500 38 C 133.466 38, 134.005 37.022, 134.014 35.250 C 134.021 33.737, 134.299 31.488, 134.630 30.250 C 135.207 28.096, 134.972 28, 129.117 28 C 124.346 28, 123 28.330, 123 29.500 C 123 30.798, 119.167 31, 94.500 31 L 66 31 66 38.617 C 66 46.027, 66.061 46.217, 68.250 45.630 C 69.487 45.299, 71.063 45.021, 71.750 45.014 C 72.438 45.006, 73 44.325, 73 43.500 C 73 42.300, 74.500 42, 80.500 42 C 86.500 42, 88 41.700, 88 40.500 C 88 39.229, 90.444 39, 104 39 L 120 39 120 44 C 120 47.590, 119.610 49, 118.617 49 C 117.041 49, 116.034 52, 116.014 56.750 L 116 60 105.500 60 C 97.124 60, 95 60.286, 95 61.412 C 95 62.280, 93.459 63.085, 91 63.500 C 88.541 63.915, 87 64.720, 87 65.588 C 87 66.365, 86.325 67, 85.500 67 C 84.417 67, 84 68.111, 84 71 C 84 74.333, 84.333 75, 86 75 C 87.111 75, 88 75.667, 88 76.500 C 88 77.548, 89.056 78, 91.500 78 C 94.810 78, 95 77.817, 95 74.616 L 95 71.233 101.750 70.790 C 105.462 70.546, 109.287 70.546, 110.250 70.790 C 112.393 71.333, 112.550 73.575, 110.500 74.362 C 109.675 74.678, 109 75.626, 109 76.469 C 109 77.635, 107.835 78, 104.117 78 C 100.074 78, 99.143 78.344, 98.710 80 C 98.423 81.100, 97.470 82, 96.594 82 C 95.717 82, 95 82.625, 95 83.389 C 95 84.184, 93.505 85.058, 91.500 85.434 C 88.059 86.080, 88 86.175, 88 91.045 C 88 95.839, 88.094 96, 90.883 96 C 92.926 96, 93.919 95.417, 94.290 94 C 94.577 92.900, 95.530 92, 96.406 92 C 97.283 92, 98 91.325, 98 90.500 C 98 89.667, 98.889 89, 100 89 C 101.100 89, 102 88.377, 102 87.617 C 102 86.331, 104.840 85.045, 107.750 85.014 C 108.658 85.004, 109 87.459, 109 94 C 109 101.333, 108.722 103, 107.500 103 C 106.348 103, 106 104.278, 106 108.500 C 106 112.722, 106.348 114, 107.500 114 C 108.548 114, 109 115.056, 109 117.500 C 109 119.944, 108.548 121, 107.500 121 C 106.324 121, 105.954 122.567, 105.787 128.250 C 105.268 145.922, 105.294 146.264, 107.200 146.763 C 108.623 147.135, 109 148.255, 109 152.117 C 109 155.608, 109.394 157, 110.383 157 C 111.959 157, 112.966 160, 112.986 164.750 C 112.996 166.966, 113.477 168, 114.500 168 C 115.537 168, 116 169.042, 116 171.375 C 116 174.259, 116.400 174.829, 118.750 175.292 C 120.263 175.590, 122.737 175.594, 124.250 175.300 C 126.603 174.844, 127 174.278, 127 171.383 C 127 169.043, 126.538 168, 125.500 168 C 124.534 168, 123.995 167.022, 123.986 165.250 C 123.965 160.968, 122.899 158, 121.383 158 C 120.329 158, 120 156.219, 120 150.500 C 120 144.500, 119.700 143, 118.500 143 C 115.413 143, 117.050 140.081, 120.500 139.434 C 122.505 139.058, 124 138.184, 124 137.389 C 124 136.401, 125.370 135.996, 128.750 135.986 C 134.923 135.969, 138 135.103, 138 133.383 C 138 132.329, 139.781 132, 145.500 132 C 151.139 132, 153 131.664, 153 130.647 C 153 129.288, 162.565 128, 172.651 128 C 175.850 128, 177 127.603, 177 126.500 C 177 125.272, 178.722 125, 186.500 125 C 194.278 125, 196 125.272, 196 126.500 C 196 127.548, 197.056 128, 199.500 128 L 203 128 203 133.278 C 203 137.318, 202.531 138.957, 201 140.268 C 199.617 141.452, 199 143.218, 199 145.990 C 199 148.832, 198.576 150, 197.545 150 C 196.675 150, 195.827 151.405, 195.434 153.500 C 195.058 155.505, 194.184 157, 193.389 157 C 192.625 157, 192 157.900, 192 159 C 192 160.100, 191.345 161, 190.545 161 C 189.675 161, 188.827 162.405, 188.434 164.500 C 188.058 166.505, 187.184 168, 186.389 168 C 185.625 168, 185 168.900, 185 170 C 185 171.111, 184.333 172, 183.500 172 C 182.675 172, 182 172.675, 182 173.500 C 182 174.756, 179.889 175, 169 175 L 156 175 156 170.117 C 156 166.074, 156.344 165.143, 158 164.710 C 159.532 164.310, 160 163.346, 160 160.594 C 160 158.066, 160.445 157, 161.500 157 C 162.548 157, 163 155.944, 163 153.500 C 163 150.083, 163.095 150, 167 150 C 169.739 150, 171 149.564, 171 148.617 C 171 147.041, 174 146.034, 178.750 146.014 C 180.966 146.004, 182 145.523, 182 144.500 C 182 143.324, 183.375 143, 188.375 143 C 194.715 143, 194.753 142.983, 195.375 139.875 C 196.766 132.920, 196.372 132, 192 132 C 189.278 132, 188 132.438, 188 133.371 C 188 134.261, 186.246 134.975, 183 135.406 C 179.576 135.860, 178 136.531, 178 137.534 C 178 138.644, 176.665 139, 172.500 139 L 167 139 167 135.500 C 167 132.667, 166.619 132, 165 132 C 163.900 132, 163 132.623, 163 133.383 C 163 134.144, 162.100 135.002, 161 135.290 C 159.900 135.577, 159 136.530, 159 137.406 C 159 138.283, 158.325 139, 157.500 139 C 156.667 139, 156 139.889, 156 141 C 156 142.111, 155.333 143, 154.500 143 C 153.675 143, 153 143.635, 153 144.412 C 153 145.280, 151.459 146.085, 149 146.500 C 146.541 146.915, 145 147.720, 145 148.588 C 145 149.535, 143.848 150, 141.500 150 C 138.667 150, 138 150.381, 138 152 C 138 153.333, 137.333 154, 136 154 C 134.889 154, 134 154.667, 134 155.500 C 134 156.325, 133.325 157, 132.500 157 C 131.452 157, 131 158.056, 131 160.500 C 131 162.944, 131.452 164, 132.500 164 C 133.333 164, 134 164.889, 134 166 C 134 167.333, 134.667 168, 136 168 C 137.111 168, 138 168.667, 138 169.500 C 138 172.587, 140.919 170.950, 141.566 167.500 C 141.942 165.495, 142.816 164, 143.611 164 C 144.375 164, 145.008 163.438, 145.017 162.750 C 145.038 161.226, 149.355 157, 150.891 157 C 151.501 157, 152 158.575, 152 160.500 C 152 162.944, 151.548 164, 150.500 164 C 149.348 164, 149 165.278, 149 169.500 C 149 173.866, 148.671 175, 147.406 175 C 146.530 175, 145.587 175.864, 145.311 176.920 C 144.847 178.692, 143.767 178.842, 131.290 178.867 C 123.855 178.882, 117.533 179.134, 117.241 179.425 C 116.949 179.717, 116.493 182.216, 116.228 184.978 L 115.746 190 126.873 190 L 138 190 138 193.500 C 138 195.944, 137.548 197, 136.500 197 C 135.425 197, 135 198.097, 135 200.875 C 135 203.006, 134.719 206.156, 134.375 207.875 L 133.750 211 119.925 211 C 108.270 211, 105.958 211.252, 105.201 212.606 C 104.660 213.572, 102.449 214.420, 99.651 214.736 L 95 215.260 95 220.085 C 95 224.807, 95.074 224.923, 98.500 225.566 C 103.217 226.451, 109 225.288, 109 223.455 C 109 222.259, 111.229 222, 121.500 222 C 133.991 222, 134 222.002, 134 224.375 C 134 228.880, 135.254 233, 136.625 233 C 137.530 233, 138 234.197, 138 236.500 C 138 238.944, 138.452 240, 139.500 240 C 140.325 240, 141 240.717, 141 241.594 C 141 242.470, 141.900 243.423, 143 243.710 C 146.688 244.675, 145.160 246.722, 140.349 247.264 C 137.551 247.580, 135.340 248.428, 134.799 249.394 C 134.305 250.277, 133.248 251, 132.450 251 C 131.653 251, 131 251.625, 131 252.389 C 131 253.184, 129.505 254.058, 127.500 254.434 C 125.405 254.827, 124 255.675, 124 256.545 C 124 257.345, 123.100 258, 122 258 C 120.381 258, 120 258.667, 120 261.500 L 120 265 127.500 265 C 133.314 265, 135 264.681, 135 263.579 C 135 262.798, 136.350 261.862, 138 261.500 C 139.650 261.138, 141 260.202, 141 259.421 C 141 258.639, 141.848 258, 142.883 258 C 143.957 258, 145.003 257.095, 145.317 255.895 C 146.125 252.805, 148.449 254.138, 148.819 257.903 C 149.073 260.494, 148.719 261.261, 147.069 261.692 C 145.931 261.990, 145 262.803, 145 263.500 C 145 264.197, 144.100 265.002, 143 265.290 C 141.900 265.577, 141 266.530, 141 267.406 C 141 268.283, 140.325 269, 139.500 269 C 138.675 269, 138 269.675, 138 270.500 C 138 271.333, 137.111 272, 136 272 C 134.667 272, 134 272.667, 134 274 C 134 275.333, 133.333 276, 132 276 C 130.889 276, 130 276.667, 130 277.500 C 130 278.325, 129.325 279, 128.500 279 C 126.290 279, 126.676 281.876, 129.250 284.592 C 132.009 287.503, 133.602 287.632, 134.290 285 C 134.577 283.900, 135.530 283, 136.406 283 C 137.283 283, 138 282.325, 138 281.500 C 138 280.675, 138.717 280, 139.594 280 C 140.470 280, 141.423 279.100, 141.710 278 C 141.998 276.900, 142.803 276, 143.500 276 C 144.197 276, 145.002 275.100, 145.290 274 C 145.577 272.900, 146.530 272, 147.406 272 C 148.283 272, 149 271.325, 149 270.500 C 149 269.675, 149.675 269, 150.500 269 C 151.325 269, 152 268.283, 152 267.406 C 152 266.530, 152.900 265.577, 154 265.290 C 155.100 265.002, 156 264.144, 156 263.383 C 156 262.623, 156.900 262, 158 262 C 159.333 262, 160 261.333, 160 260 C 160 258.444, 160.667 258, 163 258 C 165.078 258, 166 257.510, 166 256.406 C 166 255.530, 166.900 254.577, 168 254.290 C 169.100 254.002, 170 253.102, 170 252.290 C 170 251.477, 170.900 250.577, 172 250.290 C 173.100 250.002, 174 249.144, 174 248.383 C 174 247.623, 174.900 247, 176 247 C 177.111 247, 178 246.333, 178 245.500 C 178 244.675, 178.625 244, 179.389 244 C 180.184 244, 181.058 242.505, 181.434 240.500 C 181.827 238.405, 182.675 237, 183.545 237 C 184.576 237, 185 235.834, 185 233 C 185 229.667, 184.667 229, 183 229 C 181.381 229, 181 228.333, 181 225.500 C 181 222.667, 181.381 222, 183 222 C 184.619 222, 185 221.333, 185 218.500 L 185 215 189.950 215 C 193.613 215, 195.154 214.548, 195.874 213.261 C 196.643 211.887, 198.543 211.445, 204.924 211.155 C 210.988 210.880, 213 210.441, 213 209.394 C 213 208.326, 214.753 208, 220.500 208 C 227.333 208, 228 207.822, 228 206 C 228 204.889, 228.667 204, 229.500 204 C 230.325 204, 231 203.325, 231 202.500 C 231 201.675, 230.325 201, 229.500 201 C 228.667 201, 228 200.111, 228 199 C 228 197.242, 227.333 197, 222.500 197 C 218.278 197, 217 197.348, 217 198.500 C 217 199.637, 215.767 200, 211.906 200 C 207.654 200, 206.726 200.330, 206.290 202 C 205.847 203.694, 204.926 204, 200.267 204 C 195.051 204, 194.798 203.884, 195.370 201.750 C 195.701 200.512, 195.979 198.037, 195.986 196.250 C 195.995 194.172, 196.494 193, 197.370 193 C 198.716 193, 200.372 184.411, 199.346 182.751 C 199.091 182.338, 197.334 182, 195.441 182 C 192.175 182, 192 181.822, 192 178.500 C 192 176.104, 192.459 175, 193.455 175 C 194.325 175, 195.173 173.595, 195.566 171.500 C 195.927 169.575, 196.797 168, 197.500 168 C 198.203 168, 199.073 166.425, 199.434 164.500 C 199.827 162.405, 200.675 161, 201.545 161 C 202.541 161, 203 159.896, 203 157.500 C 203 155.056, 203.452 154, 204.500 154 C 205.333 154, 206 153.111, 206 152 C 206 150.667, 206.667 150, 208 150 C 209.619 150, 210 149.333, 210 146.500 C 210 144.187, 210.469 143, 211.383 143 C 213.103 143, 213.969 139.923, 213.986 133.750 C 213.997 130.201, 214.379 129, 215.500 129 C 216.333 129, 217 128.111, 217 127 C 217 125.900, 216.375 125, 215.611 125 C 214.822 125, 213.945 123.522, 213.580 121.572 C 213.067 118.838, 212.357 118.018, 210.070 117.515 C 208.322 117.132, 206.990 116.069, 206.656 114.794 C 205.851 111.714, 207.041 107, 208.625 107 C 209.708 107, 210 104.667, 210 96 C 210 87.389, 210.296 85, 211.361 85 C 213.373 85, 213.981 77.537, 213.991 52.750 C 213.999 34.087, 214.213 31, 215.500 31 C 216.722 31, 217 29.333, 217 22 L 217 13 204.500 13 C 194.524 13, 192 13.279, 192 14.383 M 170.290 58 C 169.897 59.503, 168.926 60, 166.383 60 C 164.043 60, 163 60.462, 163 61.500 C 163 62.325, 162.352 63, 161.559 63 C 160.766 63, 159.868 63.404, 159.563 63.897 C 158.591 65.470, 160.196 71, 161.625 71 C 162.381 71, 163 71.900, 163 73 C 163 74.111, 162.333 75, 161.500 75 C 160.675 75, 160 75.675, 160 76.500 C 160 77.583, 158.889 78, 156 78 C 153.211 78, 152 78.430, 152 79.421 C 152 80.202, 150.696 81.128, 149.102 81.478 C 146.088 82.140, 145.039 84.134, 145.014 89.250 L 145 92 154 92 C 161.333 92, 163 91.722, 163 90.500 C 163 89.675, 162.325 89, 161.500 89 C 158.413 89, 160.050 86.081, 163.500 85.434 C 165.505 85.058, 167 84.184, 167 83.389 C 167 82.327, 168.767 82, 174.500 82 C 180.500 82, 182 82.300, 182 83.500 C 182 84.325, 182.675 85, 183.500 85 C 184.633 85, 185 83.778, 185 80 C 185 76.222, 185.367 75, 186.500 75 C 187.333 75, 188 74.111, 188 73 C 188 71.667, 188.667 71, 190 71 C 191.806 71, 192 70.333, 192 64.117 C 192 55.976, 192.094 56.035, 179.156 56.014 C 171.648 56.001, 170.760 56.200, 170.290 58 M 174 65.500 C 174 66.333, 173.111 67, 172 67 C 170.381 67, 170 67.667, 170 70.500 L 170 74 176.883 74 C 184.382 74, 184.953 73.489, 184.986 66.750 C 185 64.082, 184.837 64, 179.500 64 C 175.278 64, 174 64.348, 174 65.500 M 170.188 133.739 C 170.690 136.345, 174 136.636, 174 134.073 C 174 132.642, 173.358 132, 171.927 132 C 170.496 132, 169.957 132.539, 170.188 133.739 M 171 184.500 C 171 185.652, 169.722 186, 165.500 186 C 160.667 186, 160 186.242, 160 188 C 160 189.667, 159.333 190, 156 190 C 153.111 190, 152 190.417, 152 191.500 C 152 192.325, 151.377 193, 150.617 193 C 149.856 193, 148.998 193.900, 148.710 195 C 148.423 196.100, 147.470 197, 146.594 197 C 145.287 197, 145 198.262, 145 204 L 145 211 152 211 C 157.229 211, 159 210.657, 159 209.642 C 159 208.209, 166.846 207, 176.147 207 C 179.794 207, 181 206.627, 181 205.500 C 181 204.667, 181.889 204, 183 204 C 184.619 204, 185 203.333, 185 200.500 C 185 198.056, 185.452 197, 186.500 197 C 187.555 197, 188 195.934, 188 193.406 C 188 190.654, 188.468 189.690, 190 189.290 C 191.100 189.002, 192 188.144, 192 187.383 C 192 186.373, 190.516 186, 186.500 186 C 181.667 186, 181 186.242, 181 188 C 181 189.619, 180.333 190, 177.500 190 C 174.167 190, 174 189.833, 174 186.500 C 174 184.056, 173.548 183, 172.500 183 C 171.675 183, 171 183.675, 171 184.500 M 170 216.500 C 170 217.627, 168.794 218, 165.147 218 C 155.846 218, 148 219.209, 148 220.642 C 148 221.389, 147.325 222, 146.500 222 C 145.375 222, 145.003 223.188, 145.014 226.750 C 145.038 235.204, 145.563 236, 151.117 236 C 154.608 236, 156 235.606, 156 234.617 C 156 232.968, 160.403 231.950, 164.250 232.708 C 166.557 233.163, 167 232.908, 167 231.125 C 167 229.956, 167.625 229, 168.389 229 C 169.184 229, 170.058 227.505, 170.434 225.500 C 170.827 223.405, 171.675 222, 172.545 222 C 173.541 222, 174 220.896, 174 218.500 C 174 215.667, 173.619 215, 172 215 C 170.889 215, 170 215.667, 170 216.500 M 182.750 254.689 C 181.787 254.941, 181 255.789, 181 256.573 C 181 257.537, 179.864 258, 177.500 258 C 174.167 258, 174 258.167, 174 261.500 L 174 265 184.250 265.014 C 195.757 265.029, 199 265.601, 199 267.617 C 199 268.663, 200.707 269, 206 269 C 211.399 269, 213 269.327, 213 270.428 C 213 271.409, 214.722 272.071, 218.500 272.543 C 222.188 273.004, 224 273.687, 224 274.615 C 224 275.627, 225.481 276, 229.500 276 L 235 276 235 272.500 C 235 270.056, 234.548 269, 233.500 269 C 232.667 269, 232 268.111, 232 267 C 232 265.242, 231.333 265, 226.500 265 C 222.278 265, 221 264.652, 221 263.500 C 221 262.588, 220.069 262, 218.625 262 C 214.120 262, 210 260.746, 210 259.375 C 210 258.375, 208.500 258, 204.500 258 C 199.667 258, 199 257.758, 199 256 C 199 254.173, 198.372 254.010, 191.750 254.116 C 187.762 254.180, 183.713 254.438, 182.750 254.689" stroke="none" fill="black" fill-rule="evenodd"/>
</svg>