<svg xmlns="http://www.w3.org/2000/svg" width="300" height="300" viewBox="0 0 300 300" version="1.1">
	<path d="M 190.250 33.706 C 188.421 34.058, 188 34.803, 188 37.686 L 188 41.233 181.636 40.551 C 178.136 40.177, 172.511 40.182, 169.136 40.564 L 163 41.258 163.014 45.879 C 163.021 48.421, 163.299 51.513, 163.630 52.750 C 164.288 55.204, 166 55.838, 166 53.628 C 166 52.800, 167.587 52.002, 170 51.616 C 172.588 51.202, 174 50.451, 174 49.488 C 174 48.454, 175.068 48, 177.500 48 C 179.848 48, 181 48.465, 181 49.412 C 181 50.280, 182.541 51.085, 185 51.500 C 188.036 52.013, 189 52.636, 189 54.088 C 189 55.140, 189.675 56, 190.500 56 C 191.776 56, 192 58.597, 192 73.375 L 192 90.749 183.417 91.200 C 177.699 91.500, 174.556 92.101, 174 93 C 173.444 93.899, 170.301 94.500, 164.583 94.800 C 158.187 95.136, 156 95.601, 156 96.625 C 156 97.381, 155.100 98, 154 98 C 152.667 98, 152 98.667, 152 100 C 152 101.111, 151.333 102, 150.500 102 C 149.667 102, 149 102.889, 149 104 C 149 105.111, 149.667 106, 150.500 106 C 151.325 106, 152 106.675, 152 107.500 C 152 108.333, 152.889 109, 154 109 C 155.333 109, 156 109.667, 156 111 C 156 112.333, 156.667 113, 158 113 C 159.619 113, 160 112.333, 160 109.500 C 160 106.167, 160.167 106, 163.500 106 C 166.333 106, 167 105.619, 167 104 C 167 102.092, 167.667 102, 181.500 102 C 194.101 102, 196 102.209, 196 103.594 C 196 104.470, 195.100 105.423, 194 105.710 C 192.900 105.998, 192 106.856, 192 107.617 C 192 108.531, 190.813 109, 188.500 109 C 185.667 109, 185 109.381, 185 111 C 185 112.333, 184.333 113, 183 113 C 181.889 113, 181 113.667, 181 114.500 C 181 115.548, 179.944 116, 177.500 116 C 175.056 116, 174 115.548, 174 114.500 C 174 113.452, 172.944 113, 170.500 113 C 167.667 113, 167 113.381, 167 115 C 167 116.111, 167.667 117, 168.500 117 C 169.325 117, 170 117.675, 170 118.500 C 170 119.325, 169.325 120, 168.500 120 C 167.675 120, 167 120.635, 167 121.412 C 167 122.280, 165.459 123.085, 163 123.500 C 160.645 123.898, 159 124.730, 159 125.525 C 159 126.314, 157.657 127.003, 155.758 127.187 C 152.127 127.538, 151.424 129.115, 152.453 134.600 C 153.074 137.910, 153.218 138, 157.929 138 C 161.926 138, 162.858 137.652, 163.290 136 C 163.671 134.544, 164.654 134, 166.906 134 C 168.990 134, 170 133.510, 170 132.500 C 170 131.477, 171.034 130.996, 173.250 130.986 C 178 130.966, 181 129.959, 181 128.383 C 181 127.373, 182.484 127, 186.500 127 C 190.722 127, 192 126.652, 192 125.500 C 192 124.675, 192.675 124, 193.500 124 C 194.325 124, 195 124.717, 195 125.594 C 195 126.470, 195.900 127.423, 197 127.710 C 198.656 128.143, 199 129.074, 199 133.117 C 199 136.712, 198.618 138, 197.552 138 C 196.511 138, 196.020 139.473, 195.802 143.250 L 195.500 148.500 191.750 148.810 C 189.297 149.013, 188 149.619, 188 150.560 C 188 151.609, 186.711 152.004, 183.250 152.014 C 177.077 152.031, 174 152.897, 174 154.617 C 174 155.531, 172.813 156, 170.500 156 C 167.964 156, 167 156.439, 167 157.594 C 167 158.470, 166.100 159.423, 165 159.710 C 162.924 160.253, 162.418 163.226, 163.630 167.750 C 164.174 169.780, 164.846 170, 170.500 170 C 175.926 170, 176.837 169.732, 177.290 168 C 177.577 166.900, 178.530 166, 179.406 166 C 180.283 166, 181 165.325, 181 164.500 C 181 163.452, 182.056 163, 184.500 163 C 186.803 163, 188 162.530, 188 161.625 C 188 160.196, 193.530 158.591, 195.103 159.563 C 195.596 159.868, 196 164.766, 196 170.448 L 196 180.777 192.597 181.416 C 190.725 181.767, 188.939 182.717, 188.628 183.527 C 188.180 184.695, 185.884 185, 177.531 185 C 168.837 185, 167 185.262, 167 186.500 C 167 187.739, 165.156 188, 156.406 188 C 146.654 188, 145.771 188.159, 145.290 190 C 144.831 191.756, 143.926 192, 137.883 192 C 131.667 192, 131 192.194, 131 194 C 131 195.333, 130.333 196, 129 196 C 127.381 196, 127 196.667, 127 199.500 C 127 201.820, 126.532 203, 125.611 203 C 124.816 203, 123.942 204.495, 123.566 206.500 C 123.173 208.595, 122.325 210, 121.455 210 C 120.655 210, 120 210.623, 120 211.383 C 120 212.144, 119.100 213.002, 118 213.290 C 116.900 213.577, 116 214.530, 116 215.406 C 116 216.561, 115.036 217, 112.500 217 C 109.667 217, 109 217.381, 109 219 C 109 220.810, 108.333 221, 102 221 C 96.444 221, 95 221.310, 95 222.500 C 95 223.652, 93.722 224, 89.500 224 L 84 224 84 220.500 C 84 218.104, 84.459 217, 85.455 217 C 86.325 217, 87.173 215.595, 87.566 213.500 C 87.927 211.575, 88.797 210, 89.500 210 C 90.203 210, 91.073 208.425, 91.434 206.500 C 91.827 204.405, 92.675 203, 93.545 203 C 94.345 203, 95 202.100, 95 201 C 95 199.900, 95.623 199, 96.383 199 C 97.144 199, 98.002 198.100, 98.290 197 C 98.577 195.900, 99.530 195, 100.406 195 C 101.510 195, 102 194.078, 102 192 C 102 189.922, 102.490 189, 103.594 189 C 104.470 189, 105.423 188.100, 105.710 187 C 105.998 185.900, 106.898 185, 107.710 185 C 108.523 185, 109.423 184.100, 109.710 183 C 109.998 181.900, 110.856 181, 111.617 181 C 112.377 181, 113 180.325, 113 179.500 C 113 178.675, 113.625 178, 114.389 178 C 115.184 178, 116.058 176.505, 116.434 174.500 C 116.827 172.405, 117.675 171, 118.545 171 C 119.576 171, 120 169.834, 120 167 L 120 163 112.906 163 C 106.654 163, 105.751 163.237, 105.290 165 C 104.848 166.688, 103.926 167, 99.383 167 C 95.265 167, 94 167.352, 94 168.500 C 94 169.633, 92.778 170, 89 170 C 84.667 170, 84 170.267, 84 172 C 84 173.758, 83.333 174, 78.500 174 C 74.528 174, 73 174.378, 73 175.361 C 73 176.751, 66.378 177.974, 58.750 177.991 C 56.087 177.997, 55 178.435, 55 179.500 C 55 180.690, 53.556 181, 48 181 C 41.667 181, 41 181.190, 41 183 C 41 184.333, 40.333 185, 39 185 C 36.910 185, 36.624 185.993, 37.630 189.750 C 38.195 191.856, 38.768 192, 46.617 192 C 53.063 192, 55 191.682, 55 190.625 C 55 188.940, 59.342 188, 67.125 188 C 71.681 188, 73 187.663, 73 186.500 C 73 185.348, 74.278 185, 78.500 185 C 83.333 185, 84 184.758, 84 183 C 84 181.381, 84.667 181, 87.500 181 C 89.944 181, 91 180.548, 91 179.500 C 91 178.410, 92.124 178, 95.117 178 C 98.898 178, 99.184 178.183, 98.630 180.250 C 98.299 181.488, 98.021 183.063, 98.014 183.750 C 98.006 184.438, 97.325 185, 96.500 185 C 95.675 185, 95 185.675, 95 186.500 C 95 187.325, 94.283 188, 93.406 188 C 92.530 188, 91.577 188.900, 91.290 190 C 91.002 191.100, 90.194 192, 89.495 192 C 88.795 192, 87.927 193.575, 87.566 195.500 C 87.173 197.595, 86.325 199, 85.455 199 C 84.655 199, 84 199.900, 84 201 C 84 202.100, 83.345 203, 82.545 203 C 81.675 203, 80.827 204.405, 80.434 206.500 C 80.058 208.505, 79.184 210, 78.389 210 C 77.468 210, 77 211.180, 77 213.500 C 77 216.333, 76.619 217, 75 217 C 73.178 217, 73 217.667, 73 224.500 L 73 232 78.500 232 C 82.722 232, 84 232.348, 84 233.500 C 84 234.325, 84.675 235, 85.500 235 C 86.325 235, 87 234.325, 87 233.500 C 87 232.316, 88.423 231.997, 93.750 231.986 C 101.848 231.970, 105 231.241, 105 229.383 C 105 228.436, 106.261 228, 109 228 C 111.834 228, 113 227.576, 113 226.545 C 113 225.675, 114.405 224.827, 116.500 224.434 C 118.505 224.058, 120 223.184, 120 222.389 C 120 221.372, 121.474 221, 125.500 221 C 129.516 221, 131 221.373, 131 222.383 C 131 223.144, 131.900 224.002, 133 224.290 C 134.100 224.577, 135 225.530, 135 226.406 C 135 227.283, 135.675 228, 136.500 228 C 137.325 228, 138 228.655, 138 229.455 C 138 230.325, 139.405 231.173, 141.500 231.566 C 143.505 231.942, 145 232.816, 145 233.611 C 145 234.693, 146.987 235, 154 235 C 160.526 235, 163.004 234.656, 163.014 233.750 C 163.021 233.063, 163.299 231.488, 163.630 230.250 C 164.217 228.061, 164.027 228, 156.617 228 C 150.314 228, 149 227.725, 149 226.406 C 149 225.530, 148.100 224.577, 147 224.290 C 145.900 224.002, 145 223.144, 145 222.383 C 145 221.623, 144.325 221, 143.500 221 C 142.667 221, 142 220.111, 142 219 C 142 217.667, 141.333 217, 140 217 C 138.381 217, 138 216.333, 138 213.500 C 138 210.667, 137.619 210, 136 210 C 134.381 210, 134 209.333, 134 206.500 L 134 203 139.500 203 C 143.570 203, 145 202.633, 145 201.588 C 145 200.720, 146.541 199.915, 149 199.500 C 151.298 199.112, 153 198.264, 153 197.508 C 153 196.549, 155.849 195.998, 163.500 195.477 C 171.417 194.937, 174 194.422, 174 193.381 C 174 192.280, 176.536 192, 186.500 192 L 199 192 199 195.500 C 199 197.944, 198.548 199, 197.500 199 C 196.236 199, 196 201.278, 196 213.500 C 196 225.722, 196.236 228, 197.500 228 C 198.690 228, 199 229.444, 199 235 C 199 240.556, 198.690 242, 197.500 242 C 196.667 242, 196 242.889, 196 244 C 196 245.111, 196.667 246, 197.500 246 C 198.742 246, 199 247.889, 199 257 L 199 268 202.594 268 C 205.346 268, 206.310 267.532, 206.710 266 C 207.074 264.608, 208.074 264, 210 264 C 213.018 264, 213.961 262.165, 213.986 256.250 C 213.996 254.034, 214.477 253, 215.500 253 C 216.325 253, 217 252.374, 217 251.608 C 217 249.903, 212.848 248.749, 209.626 249.558 C 207.539 250.082, 207.195 249.751, 206.783 246.827 C 206.526 244.997, 206.357 231.125, 206.408 216 L 206.500 188.500 209.750 188.187 C 211.763 187.993, 213 187.327, 213 186.437 C 213 185.366, 214.370 185, 218.383 185 C 222.926 185, 223.848 184.688, 224.290 183 C 224.726 181.330, 225.654 181, 229.906 181 C 233.767 181, 235 180.637, 235 179.500 C 235 178.588, 235.931 178, 237.375 178 C 241.880 178, 246 176.746, 246 175.375 C 246 174.470, 247.197 174, 249.500 174 C 251.944 174, 253 173.548, 253 172.500 C 253 171.675, 253.717 171, 254.594 171 C 255.470 171, 256.423 170.100, 256.710 169 C 257 167.893, 258.074 167, 259.117 167 C 260.152 167, 261 166.325, 261 165.500 C 261 164.675, 261.675 164, 262.500 164 C 263.667 164, 264 162.667, 264 158 C 264 153.177, 263.687 152, 262.406 152 C 261.530 152, 260.577 152.900, 260.290 154 C 260.002 155.100, 259.144 156, 258.383 156 C 257.623 156, 257 156.900, 257 158 C 257 159.333, 256.333 160, 255 160 C 253.889 160, 253 160.667, 253 161.500 C 253 162.325, 252.283 163, 251.406 163 C 250.530 163, 249.577 163.900, 249.290 165 C 248.919 166.417, 247.926 167, 245.883 167 C 243.255 167, 243 166.691, 243 163.500 C 243 161.056, 243.452 160, 244.500 160 C 245.583 160, 246 158.889, 246 156 C 246 153.111, 245.583 152, 244.500 152 C 243.675 152, 243 151.325, 243 150.500 C 243 149.667, 242.111 149, 241 149 C 239.900 149, 239 148.377, 239 147.617 C 239 145.503, 235.698 145.029, 220.867 145.014 C 205.202 144.998, 206.027 145.583, 206.027 134.500 C 206.027 124.701, 206.434 124, 212.117 124 L 217 124 217 127.500 C 217 130.851, 217.153 131, 220.594 131 C 223.346 131, 224.310 130.532, 224.710 129 C 224.998 127.900, 225.856 127, 226.617 127 C 227.606 127, 228 125.608, 228 122.117 C 228 116.276, 227.499 116.034, 215.367 116.014 C 208.080 116.001, 207.179 115.792, 206.710 114 C 206.423 112.900, 205.470 112, 204.594 112 C 203.717 112, 203 111.550, 203 111 C 203 110.450, 203.675 110, 204.500 110 C 205.583 110, 206 108.889, 206 106 L 206 102 210 102 C 212.889 102, 214 101.583, 214 100.500 C 214 99.494, 215.071 98.968, 217.250 98.902 C 219.037 98.848, 223.741 98.631, 227.702 98.419 C 231.662 98.207, 235.148 98.430, 235.447 98.914 C 236.411 100.474, 234.795 106, 233.375 106 C 232.619 106, 232 106.675, 232 107.500 C 232 108.548, 233.056 109, 235.500 109 C 237.944 109, 239 108.548, 239 107.500 C 239 106.675, 239.717 106, 240.594 106 C 241.470 106, 242.423 105.100, 242.710 104 C 242.998 102.900, 243.856 102, 244.617 102 C 245.377 102, 246 101.100, 246 100 C 246 98.889, 246.667 98, 247.500 98 C 248.548 98, 249 96.944, 249 94.500 C 249 92.056, 248.548 91, 247.500 91 C 246.675 91, 246 90.325, 246 89.500 C 246 88.247, 243.951 88, 233.559 88 C 226.716 88, 220.868 87.596, 220.563 87.103 C 219.591 85.530, 221.196 80, 222.625 80 C 223.406 80, 224 78.973, 224 77.625 C 224 73.120, 225.254 69, 226.625 69 C 227.486 69, 228 67.879, 228 66 C 228 64, 227.500 63, 226.500 63 C 225.417 63, 225 61.889, 225 59 C 225 55.667, 224.667 55, 223 55 C 221.667 55, 221 54.333, 221 53 C 221 51.667, 220.333 51, 219 51 C 217.889 51, 217 50.333, 217 49.500 C 217 48.452, 215.944 48, 213.500 48 C 211.104 48, 210 47.541, 210 46.545 C 210 45.675, 208.595 44.827, 206.500 44.434 C 204.495 44.058, 203 43.184, 203 42.389 C 203 41.625, 202.100 41, 201 41 C 199.667 41, 199 40.333, 199 39 C 199 37.900, 198.377 37, 197.617 37 C 196.856 37, 195.998 36.100, 195.710 35 C 195.191 33.015, 194.583 32.871, 190.250 33.706 M 199 62.094 C 199 68.346, 199.237 69.249, 201 69.710 C 202.838 70.191, 203 71.074, 203 80.617 C 203 89.180, 203.263 91, 204.500 91 C 205.325 91, 206 90.325, 206 89.500 C 206 88.667, 206.889 88, 208 88 C 209.619 88, 210 87.333, 210 84.500 C 210 82.152, 210.465 81, 211.412 81 C 212.280 81, 213.085 79.459, 213.500 77 C 213.915 74.541, 214.720 73, 215.588 73 C 216.616 73, 217 71.639, 217 68 C 217 64.222, 216.633 63, 215.500 63 C 214.667 63, 214 62.111, 214 61 C 214 59.667, 213.333 59, 212 59 C 210.667 59, 210 58.333, 210 57 C 210 55.242, 209.333 55, 204.500 55 L 199 55 199 62.094 M 78.250 62.697 C 77.013 62.940, 76 63.783, 76 64.570 C 76 65.661, 74.486 66, 69.617 66 C 64.074 66, 63.164 66.263, 62.710 68 C 62.423 69.100, 61.470 70, 60.594 70 C 59.287 70, 59 71.262, 59 77 C 59 83.333, 59.190 84, 61 84 C 62.111 84, 63 84.667, 63 85.500 C 63 86.325, 63.675 87, 64.500 87 C 65.633 87, 66 85.778, 66 82 C 66 77.667, 66.267 77, 68 77 C 69.100 77, 70 76.377, 70 75.617 C 70 73.897, 73.077 73.031, 79.250 73.014 L 84 73 84 94.500 C 84 112.076, 84.251 116, 85.375 116 C 87.015 116, 88.235 121.216, 87.386 124.598 C 86.941 126.370, 86.091 127.004, 84.142 127.014 C 79.961 127.035, 77 128.114, 77 129.617 C 77 130.377, 76.100 131, 75 131 C 73.242 131, 73 131.667, 73 136.500 L 73 142 76.500 142 C 78.944 142, 80 142.452, 80 143.500 C 80 144.641, 81.258 145.004, 85.250 145.017 C 89.463 145.031, 90.944 145.503, 92.750 147.408 C 93.987 148.714, 95 150.529, 95 151.443 C 95 152.819, 95.902 153.053, 100.250 152.802 L 105.500 152.500 105.500 149 C 105.500 145.782, 105.238 145.475, 102.250 145.187 C 99.076 144.881, 99 144.760, 99 140.053 C 99 134.659, 99.891 134.027, 107.500 134.027 C 112.942 134.027, 116 134.959, 116 136.617 C 116 137.377, 116.900 138, 118 138 C 119.758 138, 120 138.667, 120 143.500 C 120 148.333, 120.242 149, 122 149 C 123.758 149, 124 148.333, 124 143.500 C 124 139.278, 124.348 138, 125.500 138 C 126.333 138, 127 137.111, 127 136 C 127 134.900, 126.375 134, 125.611 134 C 124.816 134, 123.942 132.505, 123.566 130.500 C 123.173 128.405, 122.325 127, 121.455 127 C 119.262 127, 119.708 124.310, 122 123.710 C 123.472 123.325, 124 122.346, 124 120 C 124 117.654, 123.472 116.675, 122 116.290 C 120.900 116.002, 120 115.194, 120 114.495 C 120 113.795, 118.425 112.927, 116.500 112.566 C 114.405 112.173, 113 111.325, 113 110.455 C 113 109.358, 111.646 109, 107.500 109 C 103.278 109, 102 108.652, 102 107.500 C 102 106.452, 100.944 106, 98.500 106 L 95 106 95 90 C 95 76.991, 95.260 74, 96.393 74 C 97.159 74, 98.045 74.675, 98.362 75.500 C 98.823 76.702, 101.030 77, 109.469 77 C 118.163 77, 120 76.738, 120 75.500 C 120 74.675, 120.675 74, 121.500 74 C 122.325 74, 123 74.450, 123 75 C 123 75.550, 123.900 76, 125 76 C 126.100 76, 127 75.602, 127 75.117 C 127 74.631, 127.925 73.991, 129.055 73.696 C 130.856 73.225, 131.072 72.500, 130.805 67.829 L 130.500 62.500 105.500 62.378 C 91.750 62.311, 79.487 62.454, 78.250 62.697 M 106 71.500 C 106 72.633, 107.222 73, 111 73 C 114.778 73, 116 72.633, 116 71.500 C 116 70.367, 114.778 70, 111 70 C 107.222 70, 106 70.367, 106 71.500 M 192 114.500 C 192 115.333, 192.889 116, 194 116 C 195.111 116, 196 115.333, 196 114.500 C 196 113.667, 195.111 113, 194 113 C 192.889 113, 192 113.667, 192 114.500 M 99 119.883 C 99 123.126, 100.759 123.973, 107.500 123.973 C 112.942 123.973, 116 123.041, 116 121.383 C 116 120.390, 114.590 120, 111 120 C 107.222 120, 106 119.633, 106 118.500 C 106 117.452, 104.944 117, 102.500 117 C 99.309 117, 99 117.255, 99 119.883 M 84 139.383 C 84 140.669, 86.840 141.955, 89.750 141.986 C 90.438 141.994, 91 141.100, 91 140 C 91 138.381, 90.333 138, 87.500 138 C 85.187 138, 84 138.469, 84 139.383 M 214 154.500 C 214 155.548, 212.944 156, 210.500 156 C 208.575 156, 206.976 156.338, 206.946 156.750 C 206.194 167.155, 206.076 176.925, 206.697 177.297 C 207.139 177.561, 209.863 177.545, 212.750 177.262 C 216.283 176.914, 218 176.297, 218 175.373 C 218 174.352, 219.640 174, 224.389 174 L 230.777 174 231.434 170.500 C 231.827 168.405, 232.675 167, 233.545 167 C 234.345 167, 235 166.100, 235 165 C 235 163.667, 235.667 163, 237 163 C 238.619 163, 239 162.333, 239 159.500 L 239 156 233.500 156 C 229.278 156, 228 155.652, 228 154.500 C 228 153.310, 226.556 153, 221 153 C 215.444 153, 214 153.310, 214 154.500" stroke="none" fill="black" fill-rule="evenodd"/>
</svg>