<svg xmlns="http://www.w3.org/2000/svg" width="300" height="300" viewBox="0 0 300 300" version="1.1">
	<path d="M 148.250 9.706 C 147.012 9.944, 146 10.783, 146 11.570 C 146 12.356, 145.325 13, 144.500 13 C 143.675 13, 143 13.717, 143 14.594 C 143 15.470, 142.100 16.423, 141 16.710 C 139.497 17.103, 139 18.074, 139 20.617 C 139 23.333, 138.606 24, 137 24 C 135.667 24, 135 24.667, 135 26 C 135 27.111, 134.333 28, 133.500 28 C 132.667 28, 132 28.889, 132 30 C 132 31.100, 131.345 32, 130.545 32 C 129.668 32, 128.824 33.423, 128.418 35.583 C 127.848 38.625, 127.425 39.081, 125.623 38.597 C 124.455 38.284, 122.938 38.021, 122.250 38.014 C 121.418 38.005, 121 36.326, 121 33 C 121 29.222, 120.633 28, 119.500 28 C 118.395 28, 118 26.847, 118 23.625 C 118 21.219, 117.719 17.844, 117.375 16.125 C 116.778 13.138, 116.535 13, 111.875 13 L 107 13 107 20.500 C 107 26.396, 107.311 28, 108.455 28 C 109.325 28, 110.173 29.405, 110.566 31.500 C 110.942 33.505, 111.816 35, 112.611 35 C 113.532 35, 114 36.180, 114 38.500 C 114 40.813, 114.469 42, 115.383 42 C 116.669 42, 117.955 44.840, 117.986 47.750 C 117.994 48.438, 117.100 49, 116 49 C 114.667 49, 114 49.667, 114 51 C 114 52.111, 113.333 53, 112.500 53 C 111.675 53, 111 53.675, 111 54.500 C 111 55.325, 111.675 56, 112.500 56 C 113.333 56, 114 56.889, 114 58 C 114 59.822, 114.667 60, 121.500 60 C 127.139 60, 129 59.664, 129 58.647 C 129 57.288, 138.565 56, 148.651 56 C 152.333 56, 153 56.307, 153 58 C 153 59.111, 152.333 60, 151.500 60 C 150.667 60, 150 60.889, 150 62 C 150 63.100, 149.345 64, 148.545 64 C 147.675 64, 146.827 65.405, 146.434 67.500 C 145.837 70.682, 145.470 71, 142.389 71 C 140.043 71, 139 71.462, 139 72.500 C 139 73.466, 138.022 74.005, 136.250 74.014 C 131.968 74.035, 129 75.101, 129 76.617 C 129 77.564, 127.739 78, 125 78 C 122.111 78, 121 78.417, 121 79.500 C 121 80.548, 119.944 81, 117.500 81 C 114.667 81, 114 81.381, 114 83 C 114 84.333, 113.333 85, 112 85 C 110.387 85, 110 85.667, 110 88.441 C 110 90.334, 110.463 92.168, 111.028 92.518 C 112.963 93.713, 125 91.874, 125 90.384 C 125 89.623, 125.900 89, 127 89 C 128.100 89, 129 88.345, 129 87.545 C 129 86.675, 130.405 85.827, 132.500 85.434 C 134.505 85.058, 136 84.184, 136 83.389 C 136 82.468, 137.180 82, 139.500 82 C 141.641 82, 142.995 82.485, 142.986 83.250 C 142.955 86.160, 141.669 89, 140.383 89 C 139.390 89, 139 90.410, 139 94 C 139 97.571, 138.608 99, 137.628 99 C 136.800 99, 136.002 100.587, 135.616 103 C 135.202 105.588, 134.451 107, 133.488 107 C 132.670 107, 132 107.619, 132 108.375 C 132 109.746, 127.880 111, 123.375 111 C 121.931 111, 121 111.588, 121 112.500 C 121 113.652, 119.722 114, 115.500 114 C 111.278 114, 110 114.348, 110 115.500 C 110 116.466, 109.022 117.005, 107.250 117.014 C 102.968 117.035, 100 118.101, 100 119.617 C 100 120.538, 98.799 121, 96.406 121 C 93.654 121, 92.690 121.468, 92.290 123 C 92.002 124.100, 91.144 125, 90.383 125 C 89.623 125, 89 125.675, 89 126.500 C 89 127.325, 89.675 128, 90.500 128 C 91.333 128, 92 128.889, 92 130 C 92 131.758, 92.667 132, 97.500 132 C 101.866 132, 103 131.671, 103 130.406 C 103 129.530, 103.900 128.577, 105 128.290 C 106.100 128.002, 107 127.144, 107 126.383 C 107 125.469, 108.187 125, 110.500 125 C 112.803 125, 114 124.530, 114 123.625 C 114 122.096, 118.228 121, 124.125 121 C 127.333 121, 128 121.344, 128 123 C 128 124.111, 127.333 125, 126.500 125 C 125.667 125, 125 125.889, 125 127 C 125 128.100, 124.345 129, 123.545 129 C 122.675 129, 121.827 130.405, 121.434 132.500 C 121.058 134.505, 120.184 136, 119.389 136 C 118.468 136, 118 137.180, 118 139.500 C 118 142.333, 117.619 143, 116 143 C 114.381 143, 114 143.667, 114 146.500 C 114 149.333, 113.619 150, 112 150 C 110.381 150, 110 150.667, 110 153.500 C 110 155.944, 109.548 157, 108.500 157 C 107.452 157, 107 158.056, 107 160.500 C 107 163.333, 106.619 164, 105 164 C 103.667 164, 103 164.667, 103 166 C 103 167.111, 102.333 168, 101.500 168 C 100.452 168, 100 169.056, 100 171.500 C 100 174.333, 99.619 175, 98 175 C 96.381 175, 96 175.667, 96 178.500 C 96 181.036, 95.561 182, 94.406 182 C 93.530 182, 92.577 182.900, 92.290 184 C 92.002 185.100, 91.144 186, 90.383 186 C 89.469 186, 89 187.187, 89 189.500 C 89 192.333, 88.619 193, 87 193 C 85.667 193, 85 193.667, 85 195 C 85 196.111, 84.333 197, 83.500 197 C 82.675 197, 82 197.717, 82 198.594 C 82 199.470, 81.100 200.423, 80 200.710 C 78.608 201.074, 78 202.074, 78 204 C 78 205.926, 77.392 206.926, 76 207.290 C 74.900 207.577, 74 208.530, 74 209.406 C 74 210.283, 73.325 211, 72.500 211 C 71.667 211, 71 211.889, 71 213 C 71 214.333, 70.333 215, 69 215 C 67.667 215, 67 215.667, 67 217 C 67 218.111, 66.333 219, 65.500 219 C 64.675 219, 64 219.675, 64 220.500 C 64 221.333, 63.111 222, 62 222 C 60.381 222, 60 222.667, 60 225.500 C 60 228.375, 59.630 229, 57.927 229 C 56.492 229, 55.956 229.539, 56.186 230.750 C 56.443 232.103, 57.709 232.569, 61.759 232.802 C 66.476 233.074, 67 232.899, 67 231.052 C 67 229.667, 67.650 229, 69 229 C 70.619 229, 71 228.333, 71 225.500 C 71 222.667, 71.381 222, 73 222 C 74.111 222, 75 221.333, 75 220.500 C 75 219.675, 75.675 219, 76.500 219 C 77.333 219, 78 218.111, 78 217 C 78 215.889, 78.667 215, 79.500 215 C 80.325 215, 81 214.283, 81 213.406 C 81 212.530, 81.858 211.588, 82.906 211.314 C 84.120 210.997, 85.044 209.579, 85.451 207.408 C 85.831 205.386, 86.682 204, 87.545 204 C 88.345 204, 89 203.100, 89 202 C 89 200.889, 89.667 200, 90.500 200 C 91.325 200, 92 199.325, 92 198.500 C 92 197.667, 92.889 197, 94 197 C 95.619 197, 96 196.333, 96 193.500 C 96 190.667, 96.381 190, 98 190 C 99.333 190, 100 189.333, 100 188 C 100 186.889, 100.667 186, 101.500 186 C 102.333 186, 103 185.111, 103 184 C 103 182.900, 103.655 182, 104.455 182 C 105.325 182, 106.173 180.595, 106.566 178.500 C 106.929 176.563, 107.822 175, 108.566 175 C 109.310 175, 110.203 173.437, 110.566 171.500 C 110.942 169.495, 111.816 168, 112.611 168 C 113.532 168, 114 166.820, 114 164.500 C 114 161.667, 114.381 161, 116 161 C 117.333 161, 118 160.333, 118 159 C 118 157.889, 118.667 157, 119.500 157 C 120.548 157, 121 155.944, 121 153.500 C 121 150.667, 121.381 150, 123 150 C 124.619 150, 125 149.333, 125 146.500 C 125 144.180, 125.468 143, 126.389 143 C 127.184 143, 128.058 141.505, 128.434 139.500 C 128.827 137.405, 129.675 136, 130.545 136 C 131.345 136, 132 135.100, 132 134 C 132 132.381, 132.667 132, 135.500 132 C 137.932 132, 139 132.454, 139 133.488 C 139 134.451, 140.412 135.202, 143 135.616 C 145.413 136.002, 147 136.800, 147 137.628 C 147 138.474, 148.108 139, 149.892 139 C 152.191 139, 152.920 139.547, 153.453 141.669 C 154.515 145.901, 153.017 157, 151.384 157 C 150.436 157, 150 158.261, 150 161 C 150 163.789, 149.570 165, 148.579 165 C 147.798 165, 146.862 166.350, 146.500 168 C 146.122 169.722, 145.196 171, 144.327 171 C 143.494 171, 142.577 171.900, 142.290 173 C 141.839 174.724, 140.919 175.002, 135.633 175.014 C 128.131 175.030, 125 175.797, 125 177.617 C 125 178.627, 123.516 179, 119.500 179 L 114 179 114 184.500 L 114 190 117.594 190 C 120.346 190, 121.310 189.532, 121.710 188 C 122.181 186.201, 123.074 186, 130.617 186 C 137.063 186, 139 185.682, 139 184.625 C 139 182.701, 143.546 181.998, 155.875 182.014 C 167.749 182.029, 171 182.588, 171 184.617 C 171 185.377, 171.900 186, 173 186 C 174.100 186, 175 186.623, 175 187.383 C 175 188.144, 175.900 189.002, 177 189.290 C 178.670 189.726, 179 190.654, 179 194.906 C 179 199.333, 178.738 200, 177 200 C 175.900 200, 175 199.377, 175 198.617 C 175 196.757, 172.069 196.343, 162.250 196.815 C 156.410 197.096, 154 197.587, 154 198.495 C 154 199.200, 152.425 200.073, 150.500 200.434 C 148.405 200.827, 147 201.675, 147 202.545 C 147 203.345, 146.100 204, 145 204 C 143.889 204, 143 204.667, 143 205.500 C 143 206.333, 142.111 207, 141 207 C 139.667 207, 139 207.667, 139 209 C 139 210.619, 138.333 211, 135.500 211 C 132.667 211, 132 211.381, 132 213 C 132 214.605, 131.333 215, 128.625 215 C 125.714 215, 125.172 215.392, 124.680 217.851 C 124.366 219.420, 124.361 221.664, 124.668 222.839 C 125.039 224.257, 124.684 225.184, 123.613 225.595 C 121.702 226.328, 121.471 228.657, 123.250 229.250 C 124.126 229.541, 124.558 232.782, 124.694 240.083 C 124.800 245.812, 124.913 251.512, 124.944 252.750 C 124.977 254.058, 125.628 255, 126.500 255 C 127.596 255, 128.004 256.145, 128.014 259.250 C 128.032 264.947, 128.940 268, 130.617 268 C 131.627 268, 132 269.484, 132 273.500 C 132 277.866, 132.329 279, 133.594 279 C 134.470 279, 135.423 279.900, 135.710 281 C 135.998 282.100, 136.856 283, 137.617 283 C 138.377 283, 139 283.900, 139 285 C 139 286.667, 139.667 287, 143 287 C 145.889 287, 147 287.417, 147 288.500 C 147 289.325, 147.675 290, 148.500 290 C 149.325 290, 150 289.325, 150 288.500 C 150 287.462, 151.043 287, 153.383 287 C 155.926 287, 156.897 286.503, 157.290 285 C 157.577 283.900, 158.530 283, 159.406 283 C 160.283 283, 161 282.325, 161 281.500 C 161 280.452, 162.056 280, 164.500 280 C 167.333 280, 168 279.619, 168 278 C 168 276.667, 168.667 276, 170 276 C 171.263 276, 172 275.333, 172 274.191 C 172 272.698, 172.918 272.350, 177.250 272.200 C 187.141 271.858, 197 273.049, 197 274.585 C 197 275.612, 198.340 276, 201.883 276 C 205.926 276, 206.857 276.344, 207.290 278 C 207.726 279.670, 208.654 280, 212.906 280 C 216.767 280, 218 280.363, 218 281.500 C 218 282.538, 219.043 283, 221.383 283 C 223.926 283, 224.897 283.497, 225.290 285 C 225.690 286.532, 226.654 287, 229.406 287 C 231.789 287, 233 287.463, 233 288.375 C 233 289.950, 237.708 291.151, 240.759 290.353 C 242.644 289.860, 243.952 287.386, 243.986 284.250 C 243.994 283.563, 243.100 283, 242 283 C 240.900 283, 240 282.375, 240 281.611 C 240 280.816, 238.505 279.942, 236.500 279.566 C 234.405 279.173, 233 278.325, 233 277.455 C 233 276.424, 231.834 276, 229 276 C 226.261 276, 225 275.564, 225 274.617 C 225 273.101, 222.032 272.035, 217.750 272.014 C 216.092 272.005, 215 271.455, 215 270.627 C 215 269.707, 213.317 269.093, 209.893 268.764 C 207.085 268.494, 204.416 267.672, 203.962 266.938 C 203.459 266.125, 200.571 265.440, 196.568 265.185 C 191.844 264.884, 190 264.379, 190 263.384 C 190 262.623, 189.100 262, 188 262 C 186.667 262, 186 261.333, 186 260 C 186 258.667, 186.667 258, 188 258 C 189.111 258, 190 257.333, 190 256.500 C 190 255.675, 190.675 255, 191.500 255 C 192.333 255, 193 254.111, 193 253 C 193 251.667, 193.667 251, 195 251 C 196.619 251, 197 250.333, 197 247.500 C 197 244.167, 197.167 244, 200.500 244 C 203.917 244, 204 243.905, 204 240 C 204 236.151, 203.877 236.001, 200.750 236.014 C 196 236.034, 193 237.041, 193 238.617 C 193 239.531, 191.813 240, 189.500 240 C 187.104 240, 186 240.459, 186 241.455 C 186 242.325, 184.595 243.173, 182.500 243.566 C 180.495 243.942, 179 244.816, 179 245.611 C 179 246.375, 178.100 247, 177 247 C 175.900 247, 175 247.655, 175 248.455 C 175 249.325, 173.595 250.173, 171.500 250.566 C 169.495 250.942, 168 251.816, 168 252.611 C 168 253.722, 165.499 254, 155.500 254 L 143 254 143 259.500 L 143 265 147.883 265 C 152.021 265, 152.852 265.324, 153.322 267.124 C 153.769 268.832, 154.378 269.122, 156.439 268.605 C 159.822 267.756, 164 268.863, 164 270.608 C 164 271.374, 163.325 272, 162.500 272 C 161.667 272, 161 272.889, 161 274 C 161 275.619, 160.333 276, 157.500 276 C 155.056 276, 154 276.452, 154 277.500 C 154 278.583, 152.889 279, 150 279 C 147.111 279, 146 278.583, 146 277.500 C 146 276.675, 145.377 276, 144.617 276 C 143.856 276, 142.998 275.100, 142.710 274 C 142.423 272.900, 141.470 272, 140.594 272 C 139.211 272, 139 270.143, 139 258 C 139 244.667, 139.095 244, 141 244 C 142.333 244, 143 243.333, 143 242 C 143 240.381, 143.667 240, 146.500 240 C 148.896 240, 150 239.541, 150 238.545 C 150 237.675, 151.405 236.827, 153.500 236.434 C 155.425 236.073, 157 235.203, 157 234.500 C 157 233.797, 158.575 232.927, 160.500 232.566 C 162.595 232.173, 164 231.325, 164 230.455 C 164 229.459, 165.104 229, 167.500 229 C 169.944 229, 171 228.548, 171 227.500 C 171 226.348, 172.278 226, 176.500 226 C 181.333 226, 182 225.758, 182 224 C 182 222.667, 182.667 222, 184 222 C 185.758 222, 186 221.333, 186 216.500 C 186 212.528, 186.378 211, 187.361 211 C 188.255 211, 188.937 209.202, 189.352 205.750 C 190.478 196.374, 190.206 193.867, 188 193.290 C 186.312 192.848, 186 191.926, 186 187.383 C 186 182.667, 185.752 182, 184 182 C 182.889 182, 182 181.333, 182 180.500 C 182 179.490, 180.990 179, 178.906 179 C 176.654 179, 175.671 178.456, 175.290 177 C 174.857 175.344, 173.926 175, 169.883 175 C 166.284 175, 165 174.619, 165 173.550 C 165 172.486, 163.470 172.020, 159.260 171.800 C 154.732 171.563, 153.449 171.130, 153.186 169.750 C 152.956 168.539, 153.492 168, 154.927 168 C 156.630 168, 157 167.375, 157 164.500 C 157 161.667, 157.381 161, 159 161 C 160.758 161, 161 160.333, 161 155.500 C 161 151.474, 161.372 150, 162.389 150 C 163.184 150, 164.058 148.505, 164.434 146.500 C 165.068 143.121, 168 141.385, 168 144.389 C 168 145.184, 169.495 146.058, 171.500 146.434 C 173.595 146.827, 175 147.675, 175 148.545 C 175 149.345, 175.900 150, 177 150 C 178.619 150, 179 150.667, 179 153.500 L 179 157 184.500 157 L 190 157 190 153.500 C 190 150.667, 189.619 150, 188 150 C 186.667 150, 186 149.333, 186 148 C 186 146.889, 185.333 146, 184.500 146 C 183.675 146, 183 145.325, 183 144.500 C 183 143.667, 182.111 143, 181 143 C 179.667 143, 179 142.333, 179 141 C 179 139.381, 178.333 139, 175.500 139 C 173.180 139, 172 138.532, 172 137.611 C 172 136.816, 170.505 135.942, 168.500 135.566 C 166.405 135.173, 165 134.325, 165 133.455 C 165 132.358, 163.646 132, 159.500 132 C 154.667 132, 154 131.758, 154 130 C 154 128.667, 153.333 128, 152 128 C 150.900 128, 150 127.345, 150 126.544 C 150 125.432, 148.306 125.018, 142.830 124.794 C 134.718 124.461, 132.514 122.596, 138.949 121.509 C 141.374 121.099, 143 120.276, 143 119.457 C 143 118.687, 144.527 117.804, 146.500 117.434 C 148.505 117.058, 150 116.184, 150 115.389 C 150 114.250, 153.610 114, 170.060 114 L 190.121 114 189.810 110.250 C 189.501 106.509, 189.488 106.499, 184.519 106.186 C 181.780 106.013, 179.228 105.369, 178.849 104.755 C 178.469 104.141, 175.348 103.436, 171.913 103.187 C 166.680 102.809, 165.449 103.033, 164.324 104.571 C 162.138 107.561, 143 107.905, 143 104.955 C 143 104.430, 143.643 104, 144.428 104 C 145.409 104, 146.071 102.278, 146.543 98.500 C 147.004 94.812, 147.687 93, 148.615 93 C 149.564 93, 150 91.741, 150 89 C 150 86.261, 150.436 85, 151.383 85 C 152.144 85, 153.002 84.100, 153.290 83 C 153.577 81.900, 154.530 81, 155.406 81 C 156.283 81, 157 80.325, 157 79.500 C 157 78.348, 158.278 78, 162.500 78 L 168 78 168 81.500 C 168 83.944, 168.452 85, 169.500 85 C 170.325 85, 171 84.325, 171 83.500 C 171 82.667, 171.889 82, 173 82 C 174.667 82, 175 81.333, 175 78 C 175 75.211, 174.570 74, 173.579 74 C 172.798 74, 171.866 72.664, 171.507 71.032 C 170.980 68.634, 170.196 67.940, 167.428 67.420 C 164.325 66.838, 164 66.456, 164 63.389 C 164 61.043, 163.538 60, 162.500 60 C 161.310 60, 161 58.556, 161 53 L 161 46 148.500 46 C 136.667 46, 136 45.893, 136 44 C 136 42.889, 136.667 42, 137.500 42 C 138.466 42, 139.005 41.022, 139.014 39.250 C 139.035 34.968, 140.101 32, 141.617 32 C 142.377 32, 143 31.100, 143 30 C 143 28.889, 143.667 28, 144.500 28 C 145.333 28, 146 27.111, 146 26 C 146 24.667, 146.667 24, 148 24 C 149.333 24, 150 23.333, 150 22 C 150 20.900, 150.623 20, 151.383 20 C 152.144 20, 153.002 19.100, 153.290 18 C 153.577 16.900, 154.481 16, 155.298 16 C 156.873 16, 158.467 11.565, 157.472 9.954 C 156.883 9.002, 152.513 8.885, 148.250 9.706 M 161 205.389 C 161 206.184, 159.505 207.058, 157.500 207.434 C 155.405 207.827, 154 208.675, 154 209.545 C 154 210.345, 153.100 211, 152 211 C 150.333 211, 150 211.667, 150 215 L 150 219 143.079 219 C 136.203 219, 136.155 219.019, 135.500 222 C 135.138 223.650, 134.202 225, 133.421 225 C 132.365 225, 132 226.415, 132 230.500 L 132 236 135.500 236 C 137.944 236, 139 235.548, 139 234.500 C 139 233.462, 140.043 233, 142.383 233 C 144.926 233, 145.897 232.503, 146.290 231 C 146.690 229.468, 147.654 229, 150.406 229 C 152.845 229, 154 228.543, 154 227.579 C 154 226.798, 155.350 225.862, 157 225.500 C 158.650 225.138, 160 224.202, 160 223.421 C 160 222.430, 161.211 222, 164 222 C 166.739 222, 168 221.564, 168 220.617 C 168 219.856, 168.900 218.998, 170 218.710 C 171.100 218.423, 172 217.470, 172 216.594 C 172 215.717, 172.675 215, 173.500 215 C 174.548 215, 175 213.944, 175 211.500 C 175 209.056, 174.548 208, 173.500 208 C 172.667 208, 172 207.111, 172 206 C 172 204.242, 171.333 204, 166.500 204 C 162.474 204, 161 204.372, 161 205.389" stroke="none" fill="black" fill-rule="evenodd"/>
</svg>