<svg xmlns="http://www.w3.org/2000/svg" width="300" height="300" viewBox="0 0 300 300" version="1.1">
	<path d="M 114 46.500 C 114 51.333, 114.242 52, 116 52 C 117.111 52, 118 52.667, 118 53.500 C 118 54.325, 118.675 55, 119.500 55 C 120.333 55, 121 55.889, 121 57 C 121 58.607, 121.667 59, 124.389 59 C 127.470 59, 127.837 59.318, 128.434 62.500 C 128.827 64.595, 129.675 66, 130.545 66 C 131.642 66, 132 67.354, 132 71.500 C 132 75.722, 131.652 77, 130.500 77 C 129.675 77, 129 77.622, 129 78.383 C 129 79.374, 126.878 79.964, 121.500 80.468 C 116.032 80.980, 114 81.554, 114 82.585 C 114 83.729, 111.609 84, 101.500 84 C 91.056 84, 89 84.247, 89 85.500 C 89 86.548, 87.944 87, 85.500 87 C 83.056 87, 82 86.548, 82 85.500 C 82 84.675, 82.625 84, 83.389 84 C 84.184 84, 85.058 82.505, 85.434 80.500 C 86.079 77.060, 88 75.563, 88 78.500 C 88 79.583, 89.111 80, 92 80 C 95.333 80, 96 79.667, 96 78 C 96 76.889, 95.333 76, 94.500 76 C 93.675 76, 93 75.325, 93 74.500 C 93 73.667, 92.111 73, 91 73 C 89.667 73, 89 72.333, 89 71 C 89 69.889, 88.333 69, 87.500 69 C 86.675 69, 86 68.325, 86 67.500 C 86 66.417, 84.889 66, 82 66 C 78.095 66, 78 66.083, 78 69.500 C 78 71.813, 77.531 73, 76.617 73 C 74.759 73, 74.030 76.152, 74.014 84.250 C 74.003 89.577, 73.684 91, 72.500 91 C 71.294 91, 71 92.540, 71 98.860 C 71 109.737, 70.037 116, 68.364 116 C 67.333 116, 67 117.832, 67 123.500 C 67 130.333, 67.178 131, 69 131 C 70.111 131, 71 131.667, 71 132.500 C 71 133.325, 71.675 134, 72.500 134 C 73.325 134, 74 133.325, 74 132.500 C 74 131.667, 74.889 131, 76 131 C 77.619 131, 78 130.333, 78 127.500 C 78 125.056, 77.548 124, 76.500 124 C 75.452 124, 75 122.944, 75 120.500 C 75 118.056, 75.452 117, 76.500 117 C 77.700 117, 78 115.500, 78 109.500 C 78 102.667, 78.178 102, 80 102 C 81.100 102, 82 101.345, 82 100.545 C 82 99.675, 83.405 98.827, 85.500 98.434 C 87.505 98.058, 89 97.184, 89 96.389 C 89 95.468, 90.180 95, 92.500 95 C 94.803 95, 96 94.530, 96 93.625 C 96 91.678, 100.554 91, 113.625 91 C 123.069 91, 125 90.745, 125 89.500 C 125 88.261, 126.844 88, 135.594 88 C 145.346 88, 146.229 87.841, 146.710 86 C 147.191 84.162, 148.074 84, 157.617 84 C 165.983 84, 168 83.721, 168 82.561 C 168 80.603, 174.164 79.813, 186.500 80.193 L 196.500 80.500 196.835 83.441 C 197.399 88.396, 196.030 95, 194.439 95 C 193.461 95, 193 96.122, 193 98.500 C 193 100.820, 192.532 102, 191.611 102 C 190.816 102, 189.942 103.495, 189.566 105.500 C 189.173 107.595, 188.325 109, 187.455 109 C 186.655 109, 186 109.900, 186 111 C 186 112.111, 185.333 113, 184.500 113 C 183.675 113, 183 113.675, 183 114.500 C 183 115.605, 181.847 116, 178.625 116 C 172.259 116, 168 117.052, 168 118.625 C 168 119.661, 166.273 120, 161 120 C 155.727 120, 154 120.339, 154 121.375 C 154 122.746, 149.880 124, 145.375 124 C 143.931 124, 143 124.588, 143 125.500 C 143 126.690, 141.556 127, 136 127 C 130.444 127, 129 126.690, 129 125.500 C 129 124.675, 129.675 124, 130.500 124 C 131.333 124, 132 123.111, 132 122 C 132 120.667, 132.667 120, 134 120 C 135.111 120, 136 119.333, 136 118.500 C 136 117.675, 136.675 117, 137.500 117 C 138.333 117, 139 116.111, 139 115 C 139 113.667, 139.667 113, 141 113 C 142.333 113, 143 112.333, 143 111 C 143 109.667, 143.667 109, 145 109 C 146.111 109, 147 108.333, 147 107.500 C 147 106.675, 147.675 106, 148.500 106 C 149.325 106, 150 106.675, 150 107.500 C 150 108.548, 151.056 109, 153.500 109 C 155.976 109, 157 108.552, 157 107.469 C 157 106.626, 157.675 105.678, 158.500 105.362 C 159.325 105.045, 160 104.159, 160 103.393 C 160 102.627, 159.325 102, 158.500 102 C 157.675 102, 157 101.345, 157 100.545 C 157 98.712, 151.217 97.549, 146.500 98.434 C 144.405 98.827, 143 99.675, 143 100.545 C 143 101.345, 142.100 102, 141 102 C 139.889 102, 139 102.667, 139 103.500 C 139 104.325, 138.283 105, 137.406 105 C 136.530 105, 135.577 105.900, 135.290 107 C 135.002 108.100, 134.144 109, 133.383 109 C 132.623 109, 132 109.900, 132 111 C 132 112.111, 131.333 113, 130.500 113 C 129.675 113, 129 113.675, 129 114.500 C 129 115.333, 128.111 116, 127 116 C 125.667 116, 125 116.667, 125 118 C 125 119.333, 124.333 120, 123 120 C 121.667 120, 121 120.667, 121 122 C 121 123.111, 120.333 124, 119.500 124 C 118.675 124, 118 124.675, 118 125.500 C 118 126.333, 117.111 127, 116 127 C 114.667 127, 114 127.667, 114 129 C 114 130.619, 113.333 131, 110.500 131 C 107.964 131, 107 131.439, 107 132.594 C 107 133.470, 106.100 134.423, 105 134.710 C 103.593 135.078, 103 136.074, 103 138.071 C 103 140.523, 103.476 140.999, 106.500 141.566 C 111.217 142.451, 117 141.288, 117 139.455 C 117 138.343, 118.416 138, 123 138 C 127.394 138, 129 137.636, 129 136.639 C 129 135.286, 135.574 134.028, 142.750 134.009 C 144.968 134.003, 146 133.524, 146 132.500 C 146 131.348, 147.278 131, 151.500 131 C 156.333 131, 157 130.758, 157 129 C 157 126.910, 157.993 126.624, 161.750 127.630 C 164.253 128.301, 164.854 131, 162.500 131 C 161.675 131, 161 131.675, 161 132.500 C 161 133.333, 160.111 134, 159 134 C 157.667 134, 157 134.667, 157 136 C 157 137.111, 156.333 138, 155.500 138 C 154.675 138, 154 138.717, 154 139.594 C 154 140.470, 153.100 141.423, 152 141.710 C 150.900 141.998, 150 142.856, 150 143.617 C 150 144.377, 149.100 145, 148 145 C 146.667 145, 146 145.667, 146 147 C 146 148.111, 145.333 149, 144.500 149 C 143.675 149, 143 149.675, 143 150.500 C 143 151.333, 142.111 152, 141 152 C 139.667 152, 139 152.667, 139 154 C 139 155.333, 138.333 156, 137 156 C 135.889 156, 135 156.667, 135 157.500 C 135 158.325, 134.325 159, 133.500 159 C 132.675 159, 132 159.848, 132 160.883 C 132 163.332, 129.474 163.771, 118.667 163.204 C 112.748 162.893, 110 162.361, 110 161.526 C 110 160.169, 92.596 158.734, 87.750 159.690 C 85.399 160.154, 85 160.724, 85 163.617 C 85 165.957, 84.538 167, 83.500 167 C 80.413 167, 82.050 169.919, 85.500 170.566 C 87.505 170.942, 89 171.816, 89 172.611 C 89 174.612, 91.791 174.326, 92.184 172.285 C 92.775 169.214, 110 169.498, 110 172.579 C 110 173.536, 111.143 174, 113.500 174 C 115.944 174, 117 174.452, 117 175.500 C 117 176.325, 116.325 177, 115.500 177 C 114.667 177, 114 177.889, 114 179 C 114 180.333, 113.333 181, 112 181 C 110.889 181, 110 181.667, 110 182.500 C 110 183.325, 109.283 184, 108.406 184 C 107.530 184, 106.584 184.874, 106.305 185.943 C 106.009 187.073, 104.584 188.152, 102.898 188.522 C 101.304 188.872, 100 189.798, 100 190.579 C 100 191.361, 99.100 192, 98 192 C 96.667 192, 96 192.667, 96 194 C 96 195.333, 95.333 196, 94 196 C 92.889 196, 92 196.667, 92 197.500 C 92 198.336, 91.110 199, 89.990 199 C 88.885 199, 87.210 199.900, 86.268 201 C 85.326 202.100, 83.981 203, 83.278 203 C 82.575 203, 82 203.675, 82 204.500 C 82 205.333, 81.111 206, 80 206 C 78.667 206, 78 206.667, 78 208 C 78 209.758, 77.333 210, 72.500 210 C 68.134 210, 67 210.329, 67 211.594 C 67 212.470, 67.900 213.423, 69 213.710 C 70.100 213.998, 71 214.856, 71 215.617 C 71 216.531, 72.187 217, 74.500 217 C 76.820 217, 78 216.532, 78 215.611 C 78 214.816, 79.495 213.942, 81.500 213.566 C 83.595 213.173, 85 212.325, 85 211.455 C 85 210.655, 85.900 210, 87 210 C 88.111 210, 89 209.333, 89 208.500 C 89 207.675, 89.717 207, 90.594 207 C 91.470 207, 92.416 206.126, 92.695 205.057 C 92.991 203.927, 94.416 202.848, 96.102 202.478 C 97.696 202.128, 99 201.202, 99 200.421 C 99 199.639, 99.900 199, 101 199 C 102.111 199, 103 198.333, 103 197.500 C 103 196.667, 103.889 196, 105 196 C 106.333 196, 107 195.333, 107 194 C 107 192.667, 107.667 192, 109 192 C 110.111 192, 111 191.333, 111 190.500 C 111 189.675, 111.675 189, 112.500 189 C 113.333 189, 114 188.111, 114 187 C 114 185.393, 114.667 185, 117.389 185 C 120.470 185, 120.837 184.682, 121.434 181.500 L 122.091 178 134.045 178 C 144.005 178, 146 178.250, 146 179.500 C 146 180.700, 147.500 181, 153.500 181 C 159.219 181, 161 181.329, 161 182.383 C 161 184.241, 164.152 184.970, 172.250 184.986 C 177.577 184.997, 179 185.316, 179 186.500 C 179 187.711, 180.589 188.003, 187.250 188.014 C 196.804 188.029, 200 188.682, 200 190.617 C 200 191.711, 202.301 192, 211 192 C 220.111 192, 222 192.258, 222 193.500 C 222 194.325, 222.635 195, 223.412 195 C 224.280 195, 225.085 196.541, 225.500 199 C 226.217 203.241, 228.402 204.395, 229.290 201 C 229.577 199.900, 230.530 199, 231.406 199 C 232.671 199, 233 197.866, 233 193.500 C 233 188.667, 232.758 188, 231 188 C 229.889 188, 229 187.333, 229 186.500 C 229 185.283, 227.378 185, 220.406 185 C 212.654 185, 211.762 184.804, 211.290 183 C 210.831 181.244, 209.926 181, 203.883 181 C 198.745 181, 197 180.655, 197 179.639 C 197 178.214, 190.335 177.025, 182.250 177.009 C 179.143 177.002, 178 176.597, 178 175.500 C 178 174.278, 176.333 174, 169 174 C 162.004 174, 160 173.692, 160 172.617 C 160 170.897, 156.923 170.031, 150.750 170.014 C 147.201 170.003, 146 169.621, 146 168.500 C 146 167.452, 144.944 167, 142.500 167 C 139.667 167, 139 166.619, 139 165 C 139 163.667, 139.667 163, 141 163 C 142.333 163, 143 162.333, 143 161 C 143 159.889, 143.667 159, 144.500 159 C 145.325 159, 146 158.325, 146 157.500 C 146 156.667, 146.889 156, 148 156 C 149.333 156, 150 155.333, 150 154 C 150 152.667, 150.667 152, 152 152 C 153.100 152, 154 151.377, 154 150.617 C 154 149.856, 154.900 148.998, 156 148.710 C 157.100 148.423, 158 147.470, 158 146.594 C 158 145.717, 158.675 145, 159.500 145 C 160.325 145, 161 144.325, 161 143.500 C 161 142.452, 162.056 142, 164.500 142 C 167.333 142, 168 141.619, 168 140 C 168 138.667, 168.667 138, 170 138 C 171.100 138, 172 137.361, 172 136.579 C 172 135.798, 173.350 134.862, 175 134.500 C 176.722 134.122, 178 133.196, 178 132.327 C 178 131.494, 178.900 130.577, 180 130.290 C 181.100 130.002, 182 129.144, 182 128.383 C 182 127.623, 182.900 127, 184 127 C 185.619 127, 186 126.333, 186 123.500 C 186 120.667, 186.381 120, 188 120 C 189.111 120, 190 119.333, 190 118.500 C 190 117.675, 190.675 117, 191.500 117 C 192.333 117, 193 116.111, 193 115 C 193 113.667, 193.667 113, 195 113 C 196.333 113, 197 112.333, 197 111 C 197 109.889, 197.667 109, 198.500 109 C 199.466 109, 200.005 108.022, 200.014 106.250 C 200.035 101.968, 201.101 99, 202.617 99 C 203.627 99, 204 97.516, 204 93.500 C 204 89.278, 204.348 88, 205.500 88 C 206.583 88, 207 86.889, 207 84 C 207 81.111, 206.583 80, 205.500 80 C 204.348 80, 204 78.722, 204 74.500 C 204 69.667, 203.758 69, 202 69 C 200.889 69, 200 68.333, 200 67.500 C 200 66.675, 199.325 66, 198.500 66 C 197.675 66, 197 66.675, 197 67.500 C 197 68.622, 195.803 69.002, 192.250 69.006 C 181.191 69.020, 171 70.287, 171 71.648 C 171 72.709, 168.400 73, 158.906 73 C 147.654 73, 146.776 73.139, 146.290 75 C 145.897 76.503, 144.926 77, 142.383 77 L 139 77 139 68 C 139 61.004, 138.692 59, 137.617 59 C 136.856 59, 135.998 58.100, 135.710 57 C 135.423 55.900, 134.470 55, 133.594 55 C 132.717 55, 132 54.325, 132 53.500 C 132 52.675, 131.283 52, 130.406 52 C 129.530 52, 128.577 51.100, 128.290 50 C 128.002 48.900, 127.144 48, 126.383 48 C 125.623 48, 125 47.100, 125 46 C 125 44.667, 124.333 44, 123 44 C 121.889 44, 121 43.333, 121 42.500 C 121 41.452, 119.944 41, 117.500 41 L 114 41 114 46.500 M 117 211.455 C 117 212.325, 115.595 213.173, 113.500 213.566 C 110.318 214.163, 110 214.530, 110 217.611 C 110 220.333, 110.393 221, 112 221 C 113.810 221, 114 221.667, 114 228 C 114 233.459, 114.320 235, 115.455 235 C 116.325 235, 117.173 236.405, 117.566 238.500 C 117.942 240.505, 118.816 242, 119.611 242 C 120.523 242, 121 243.163, 121 245.383 C 121 247.926, 121.497 248.897, 123 249.290 C 124.197 249.603, 125 250.654, 125 251.906 C 125 253.101, 125.644 254, 126.500 254 C 127.325 254, 128 254.675, 128 255.500 C 128 256.333, 128.889 257, 130 257 C 131.333 257, 132 257.667, 132 259 C 132 260.163, 132.667 261, 133.594 261 C 134.470 261, 135.423 260.100, 135.710 259 C 136.214 257.074, 137.074 257, 159.117 257 C 181.333 257, 182 256.942, 182 255 C 182 253.900, 181.377 253, 180.617 253 C 179.856 253, 178.998 252.100, 178.710 251 C 178.238 249.196, 177.346 249, 169.594 249 L 161 249 161 245.500 C 161 243.104, 161.459 242, 162.455 242 C 163.325 242, 164.173 240.595, 164.566 238.500 C 164.942 236.495, 165.816 235, 166.611 235 C 167.375 235, 168 234.377, 168 233.617 C 168 232.856, 168.900 231.998, 170 231.710 C 171.800 231.240, 171.999 230.352, 171.986 222.844 C 171.964 208.962, 173.306 210, 155.383 210 C 142.376 210, 140 210.232, 140 211.500 C 140 212.356, 139.101 213, 137.906 213 C 136.654 213, 135.603 213.803, 135.290 215 C 134.645 217.467, 129 217.915, 129 215.500 C 129 214.644, 128.101 214, 126.906 214 C 125.654 214, 124.603 213.197, 124.290 212 C 123.897 210.497, 122.926 210, 120.383 210 C 118.089 210, 117 210.468, 117 211.455 M 124.667 217.667 C 124.300 218.033, 124 219.608, 124 221.167 C 124 222.725, 123.550 224, 123 224 C 122.450 224, 122 224.900, 122 226 C 122 227.111, 122.667 228, 123.500 228 C 124.333 228, 125 228.889, 125 230 C 125 231.111, 125.667 232, 126.500 232 C 127.605 232, 128 230.847, 128 227.625 C 128 225.219, 128.281 221.844, 128.625 220.125 C 129.155 217.476, 128.952 217, 127.292 217 C 126.215 217, 125.033 217.300, 124.667 217.667 M 156.500 217.735 C 155.400 218.008, 154.241 218.641, 153.925 219.142 C 153.608 219.643, 151.021 220.329, 148.175 220.666 C 144.777 221.068, 143 221.746, 143 222.639 C 143 223.517, 141.807 224, 139.640 224 C 136.297 224, 136.277 224.029, 135.704 229.575 C 134.856 237.795, 135.976 249, 137.645 249 C 138.390 249, 139 248.325, 139 247.500 C 139 246.417, 140.111 246, 143 246 C 145.789 246, 147 245.570, 147 244.579 C 147 243.798, 148.350 242.862, 150 242.500 C 151.650 242.138, 153 241.202, 153 240.421 C 153 239.639, 153.900 239, 155 239 C 156.619 239, 157 238.333, 157 235.500 C 157 232.667, 157.381 232, 159 232 C 160.333 232, 161 231.333, 161 230 C 161 228.889, 161.667 228, 162.500 228 C 163.633 228, 164 226.778, 164 223 C 164 219.350, 163.617 218, 162.582 218 C 161.802 218, 160.564 217.828, 159.832 217.619 C 159.099 217.409, 157.600 217.461, 156.500 217.735" stroke="none" fill="black" fill-rule="evenodd"/>
</svg>