<svg xmlns="http://www.w3.org/2000/svg" width="300" height="300" viewBox="0 0 300 300" version="1.1">
	<path d="M 238.750 9.668 C 237.787 9.931, 237 10.789, 237 11.573 C 237 12.358, 236.213 13.008, 235.250 13.017 C 233.338 13.036, 229 17.113, 229 18.891 C 229 19.599, 226.434 20, 221.906 20 C 215.654 20, 214.751 20.237, 214.290 22 C 213.919 23.417, 212.926 24, 210.883 24 C 209.108 24, 208 24.527, 208 25.371 C 208 27.226, 197.938 28.312, 188.949 27.426 C 184.063 26.945, 182 26.335, 182 25.371 C 182 24.617, 181.325 24, 180.500 24 C 179.667 24, 179 24.889, 179 26 C 179 27.333, 178.333 28, 177 28 C 175.381 28, 175 28.667, 175 31.500 L 175 35 182.500 35 C 188.500 35, 190 35.300, 190 36.500 C 190 37.325, 190.675 38, 191.500 38 C 192.325 38, 193 37.325, 193 36.500 C 193 35.379, 194.201 34.997, 197.750 34.986 C 203.923 34.969, 207 34.103, 207 32.383 C 207 31.623, 207.900 31, 209 31 C 210.111 31, 211 30.333, 211 29.500 C 211 28.445, 212.066 28, 214.594 28 C 217.346 28, 218.310 27.532, 218.710 26 C 219.386 23.416, 226 23.047, 226 25.594 C 226 26.470, 225.100 27.423, 224 27.710 C 222.900 27.998, 222 28.856, 222 29.617 C 222 30.377, 221.100 31, 220 31 C 218.667 31, 218 31.667, 218 33 C 218 34.111, 217.333 35, 216.500 35 C 215.675 35, 215 35.675, 215 36.500 C 215 37.333, 214.111 38, 213 38 C 211.667 38, 211 38.667, 211 40 C 211 41.100, 210.377 42, 209.617 42 C 208.856 42, 207.998 42.900, 207.710 44 C 207.423 45.100, 206.470 46, 205.594 46 C 204.717 46, 204 46.623, 204 47.383 C 204 48.144, 203.100 49.002, 202 49.290 C 200.900 49.577, 200 50.530, 200 51.406 C 200 52.283, 199.325 53, 198.500 53 C 197.675 53, 197 53.675, 197 54.500 C 197 55.333, 196.111 56, 195 56 C 193.667 56, 193 56.667, 193 58 C 193 59.619, 192.333 60, 189.500 60 C 187.104 60, 186 60.459, 186 61.455 C 186 62.325, 184.595 63.173, 182.500 63.566 C 180.495 63.942, 179 64.816, 179 65.611 C 179 66.532, 177.820 67, 175.500 67 C 172.667 67, 172 67.381, 172 69 C 172 70.333, 171.333 71, 170 71 C 168.381 71, 168 71.667, 168 74.500 L 168 78 173.500 78 C 177.722 78, 179 77.652, 179 76.500 C 179 75.435, 180.087 74.997, 182.750 74.991 C 190.013 74.974, 197 73.742, 197 72.477 C 197 71.653, 199.228 71.091, 203.600 70.813 C 208.462 70.503, 210.451 69.945, 211.150 68.696 C 211.843 67.458, 213.435 67, 217.050 67 C 220.783 67, 222 66.631, 222 65.500 C 222 64.278, 223.667 64, 231 64 C 239.333 64, 240 64.148, 240 66 C 240 67.100, 239.361 68, 238.579 68 C 237.798 68, 236.862 69.350, 236.500 71 C 236.122 72.722, 235.196 74, 234.327 74 C 233.494 74, 232.577 74.900, 232.290 76 C 231.919 77.417, 230.926 78, 228.883 78 C 226.667 78, 226 78.462, 226 80 C 226 81.333, 225.333 82, 224 82 C 222.451 82, 222 82.667, 222 84.955 C 222 87.525, 221.556 87.993, 218.592 88.549 C 216.421 88.956, 215.003 89.880, 214.686 91.094 C 214.412 92.142, 213.470 93, 212.594 93 C 211.717 93, 211 93.675, 211 94.500 C 211 95.325, 210.325 96, 209.500 96 C 208.675 96, 208 96.635, 208 97.412 C 208 98.280, 206.459 99.085, 204 99.500 C 201.541 99.915, 200 100.720, 200 101.588 C 200 102.670, 198.362 103, 193 103 C 186.667 103, 186 103.190, 186 105 C 186 106.758, 185.333 107, 180.500 107 L 175 107 175 112.500 C 175 117.613, 175.166 118, 177.360 118 C 183.116 118, 189 116.668, 189 115.364 C 189 114.377, 190.521 114, 194.500 114 C 198.500 114, 200 113.625, 200 112.625 C 200 111.196, 204.159 110, 209.125 110 C 211.014 110, 212 109.486, 212 108.500 C 212 106.189, 213.693 106.725, 214.370 109.250 C 214.701 110.488, 214.979 115.213, 214.986 119.750 C 214.997 126.260, 215.304 128, 216.441 128 C 218.530 128, 219.074 129.380, 218.371 132.897 C 217.824 135.632, 217.350 136, 214.375 136 C 212.042 136, 211 136.463, 211 137.500 C 211 138.652, 209.722 139, 205.500 139 C 201.484 139, 200 139.373, 200 140.383 C 200 142.103, 196.923 142.969, 190.750 142.986 C 187.201 142.997, 186 143.379, 186 144.500 C 186 145.663, 184.681 146, 180.125 146 C 176.894 146, 172.844 146.281, 171.125 146.625 C 168.138 147.222, 168 147.465, 168 152.125 L 168 157 177 157 C 184.333 157, 186 156.722, 186 155.500 C 186 154.379, 187.201 153.997, 190.750 153.986 C 196.923 153.969, 200 153.103, 200 151.383 C 200 150.436, 201.261 150, 204 150 C 206.889 150, 208 149.583, 208 148.500 C 208 147.534, 208.978 146.995, 210.750 146.986 C 212.262 146.979, 214.539 146.694, 215.809 146.354 C 217.608 145.873, 218.241 146.207, 218.676 147.868 C 218.982 149.041, 219.856 150, 220.617 150 C 221.627 150, 222 151.484, 222 155.500 C 222 159.516, 222.373 161, 223.383 161 C 225.103 161, 225.969 164.077, 225.986 170.250 C 225.996 173.644, 226.399 175, 227.397 175 C 228.457 175, 228.880 177.062, 229.147 183.537 C 229.401 189.683, 229.912 192.328, 230.973 192.983 C 232.075 193.664, 232.544 196.549, 232.836 204.447 C 233.138 212.589, 233.544 215, 234.613 215 C 235.732 215, 236 217.805, 236 229.500 C 236 241.371, 235.742 244, 234.577 244 C 233.433 244, 233.091 246.657, 232.827 257.572 C 232.546 269.248, 232.255 271.281, 230.750 272.122 C 229.300 272.932, 229 274.538, 229 281.491 C 229 286.106, 229.340 290.092, 229.756 290.349 C 230.171 290.606, 231.746 290.580, 233.256 290.291 C 235.666 289.831, 236 289.311, 236 286.023 C 236 278.998, 237.214 273, 238.636 273 C 239.667 273, 240 271.168, 240 265.500 C 240 259.841, 240.334 258, 241.361 258 C 243.315 258, 243.981 250.627, 243.991 228.875 C 244.001 208.732, 243.503 204, 241.375 204 C 240.282 204, 240 201.439, 240 191.500 C 240 181.391, 239.729 179, 238.585 179 C 237.554 179, 236.980 176.968, 236.468 171.500 C 236.001 166.517, 235.343 164, 234.508 164 C 233.135 164, 232.061 150.941, 232.801 143.250 L 233.210 139 240.105 139 C 245.567 139, 247 138.688, 247 137.500 C 247 136.348, 248.278 136, 252.500 136 C 257.333 136, 258 135.758, 258 134 C 258 132.381, 258.667 132, 261.500 132 C 264.036 132, 265 131.561, 265 130.406 C 265 129.530, 265.900 128.577, 267 128.290 C 268.100 128.002, 269 127.144, 269 126.383 C 269 125.623, 268.100 125, 267 125 C 265.667 125, 265 124.333, 265 123 C 265 121.381, 264.333 121, 261.500 121 C 259.187 121, 258 120.531, 258 119.617 C 258 118.856, 257.100 117.998, 256 117.710 C 254.681 117.365, 254 116.346, 254 114.719 C 254 110.127, 255.243 106, 256.625 106 C 257.608 106, 258 104.576, 258 101 C 258 97.410, 257.610 96, 256.617 96 C 255.856 96, 254.998 95.100, 254.710 94 C 254.310 92.468, 253.346 92, 250.594 92 C 248.066 92, 247 91.555, 247 90.500 C 247 89.452, 245.944 89, 243.500 89 C 241.056 89, 240 89.452, 240 90.500 C 240 91.700, 238.500 92, 232.500 92 C 226.500 92, 225 91.700, 225 90.500 C 225 89.667, 225.889 89, 227 89 C 228.333 89, 229 88.333, 229 87 C 229 85.667, 229.667 85, 231 85 C 232.111 85, 233 84.333, 233 83.500 C 233 82.675, 233.717 82, 234.594 82 C 235.470 82, 236.423 81.100, 236.710 80 C 236.998 78.900, 237.856 78, 238.617 78 C 239.377 78, 240 77.377, 240 76.617 C 240 75.856, 240.900 74.998, 242 74.710 C 243.100 74.423, 244 73.470, 244 72.594 C 244 71.717, 244.675 71, 245.500 71 C 246.555 71, 247 69.934, 247 67.406 C 247 64.654, 247.468 63.690, 249 63.290 C 251.250 62.701, 251.756 60, 249.617 60 C 248.856 60, 247.998 59.100, 247.710 58 C 247.221 56.130, 246.346 56, 234.219 56 C 219.599 56, 215 56.628, 215 58.625 C 215 59.625, 213.500 60, 209.500 60 C 204.667 60, 204 59.758, 204 58 C 204 56.667, 204.667 56, 206 56 C 207.111 56, 208 55.333, 208 54.500 C 208 53.675, 208.623 53, 209.383 53 C 210.144 53, 211.002 52.100, 211.290 51 C 211.577 49.900, 212.530 49, 213.406 49 C 214.283 49, 215 48.325, 215 47.500 C 215 46.675, 215.717 46, 216.594 46 C 217.470 46, 218.423 45.100, 218.710 44 C 218.998 42.900, 219.856 42, 220.617 42 C 221.377 42, 222 41.100, 222 40 C 222 38.667, 222.667 38, 224 38 C 225.111 38, 226 37.333, 226 36.500 C 226 35.675, 226.563 34.992, 227.250 34.983 C 228.774 34.962, 233 30.645, 233 29.109 C 233 28.499, 233.675 28, 234.500 28 C 235.333 28, 236 27.111, 236 26 C 236 24.667, 236.667 24, 238 24 C 239.333 24, 240 23.333, 240 22 C 240 20.667, 240.667 20, 242 20 C 243.333 20, 244 19.333, 244 18 C 244 16.889, 244.667 16, 245.500 16 C 246.500 16, 247 15, 247 13 C 247 11.274, 246.469 9.994, 245.750 9.986 C 245.063 9.979, 243.600 9.796, 242.500 9.581 C 241.400 9.366, 239.713 9.405, 238.750 9.668 M 74.566 27.500 C 74.173 29.595, 73.325 31, 72.455 31 C 71.468 31, 71 32.089, 71 34.383 C 71 36.926, 70.503 37.897, 69 38.290 C 67.330 38.726, 67 39.654, 67 43.906 C 67 47.767, 66.637 49, 65.500 49 C 64.588 49, 64 49.931, 64 51.375 C 64 55.880, 62.746 60, 61.375 60 C 60.310 60, 60 62.030, 60 69 C 60 77.333, 59.852 78, 58 78 C 56.381 78, 56 78.667, 56 81.500 C 56 83.944, 55.548 85, 54.500 85 C 53.675 85, 53 85.623, 53 86.383 C 53 87.959, 56 88.966, 60.750 88.986 L 64 89 64 83.500 C 64 79.278, 64.348 78, 65.500 78 C 66.652 78, 67 76.722, 67 72.500 C 67 68.484, 67.373 67, 68.383 67 C 69.959 67, 70.966 64, 70.986 59.250 C 70.996 57.034, 71.477 56, 72.500 56 C 73.412 56, 74 55.069, 74 53.625 C 74 49.120, 75.254 45, 76.625 45 C 77.381 45, 78 44.325, 78 43.500 C 78 40.451, 80.792 42.077, 81.434 45.500 C 82.068 48.879, 85 50.615, 85 47.611 C 85 46.816, 86.495 45.942, 88.500 45.566 C 90.595 45.173, 92 44.325, 92 43.455 C 92 42.358, 93.354 42, 97.500 42 C 101.722 42, 103 42.348, 103 43.500 C 103 44.333, 103.889 45, 105 45 C 106.667 45, 107 45.667, 107 49 C 107 52.333, 106.667 53, 105 53 C 103.381 53, 103 53.667, 103 56.500 C 103 58.813, 102.531 60, 101.617 60 C 100.856 60, 99.998 60.900, 99.710 62 C 99.423 63.100, 98.470 64, 97.594 64 C 96.439 64, 96 64.964, 96 67.500 C 96 70.333, 95.619 71, 94 71 C 92.889 71, 92 71.667, 92 72.500 C 92 73.325, 91.325 74, 90.500 74 C 89.667 74, 89 74.889, 89 76 C 89 77.333, 88.333 78, 87 78 C 85.381 78, 85 78.667, 85 81.500 C 85 84.333, 84.619 85, 83 85 C 81.667 85, 81 85.667, 81 87 C 81 88.111, 80.333 89, 79.500 89 C 78.675 89, 78 89.675, 78 90.500 C 78 91.325, 77.283 92, 76.406 92 C 75.530 92, 74.577 92.900, 74.290 94 C 74 95.107, 72.926 96, 71.883 96 C 70.848 96, 70 96.639, 70 97.421 C 70 98.202, 68.650 99.138, 67 99.500 L 64 100.159 64 108.579 L 64 117 67.500 117 L 71 117 71 112.111 C 71 107.316, 71.067 107.210, 74.500 106.566 C 76.595 106.173, 78 105.325, 78 104.455 C 78 103.358, 79.354 103, 83.500 103 C 87.516 103, 89 103.373, 89 104.383 C 89 105.959, 92 106.966, 96.750 106.986 C 98.966 106.996, 100 107.477, 100 108.500 C 100 109.412, 99.069 110, 97.625 110 C 96.319 110, 93.844 110.281, 92.125 110.625 C 89.583 111.133, 88.997 111.739, 88.986 113.875 C 88.965 118.041, 87.883 121, 86.383 121 C 85.436 121, 85 122.261, 85 125 C 85 127.889, 84.583 129, 83.500 129 C 82.675 129, 82 129.675, 82 130.500 C 82 131.583, 80.889 132, 78 132 C 74.667 132, 74 132.333, 74 134 C 74 135.100, 73.377 136, 72.617 136 C 71.023 136, 70.060 139.861, 70.751 143.476 C 71.110 145.354, 72.042 146.105, 74.612 146.587 C 76.531 146.947, 78 147.825, 78 148.611 C 78 149.375, 78.675 150, 79.500 150 C 80.333 150, 81 150.889, 81 152 C 81 153.111, 80.333 154, 79.500 154 C 78.452 154, 78 155.056, 78 157.500 C 78 160.333, 77.619 161, 76 161 C 74.889 161, 74 161.667, 74 162.500 C 74 163.325, 73.325 164, 72.500 164 C 71.675 164, 71 163.325, 71 162.500 C 71 161.667, 70.111 161, 69 161 C 67.242 161, 67 160.333, 67 155.500 C 67 151.278, 66.652 150, 65.500 150 C 64.342 150, 63.998 148.691, 63.991 144.250 C 63.977 134.782, 62.879 128, 61.361 128 C 60.270 128, 60 124.828, 60 112 L 60 96 55.117 96 C 49.239 96, 49.034 96.445, 49.014 109.250 C 49.003 116.040, 49.310 118, 50.383 118 C 52.399 118, 52.971 121.243, 52.986 132.750 C 52.998 141.188, 53.265 143, 54.500 143 C 55.621 143, 56.003 144.201, 56.014 147.750 C 56.031 153.923, 56.897 157, 58.617 157 C 59.564 157, 60 158.261, 60 161 C 60 164.333, 60.333 165, 62 165 C 63.111 165, 64 165.667, 64 166.500 C 64 167.325, 64.675 168, 65.500 168 C 66.548 168, 67 169.056, 67 171.500 L 67 175 72.500 175 C 76.526 175, 78 174.628, 78 173.611 C 78 172.816, 79.495 171.942, 81.500 171.566 C 83.595 171.173, 85 170.325, 85 169.455 C 85 168.424, 86.166 168, 89 168 C 91.834 168, 93 167.576, 93 166.545 C 93 165.675, 94.405 164.827, 96.500 164.434 C 98.505 164.058, 100 163.184, 100 162.389 C 100 161.293, 102.190 161, 110.383 161 C 119.926 161, 120.809 161.162, 121.290 163 C 122.033 165.841, 127.967 165.841, 128.710 163 C 128.998 161.900, 129.856 161, 130.617 161 C 131.522 161, 132 159.831, 132 157.617 C 132 154.999, 131.515 154.106, 129.856 153.673 C 127.765 153.126, 127.725 152.782, 128.227 139.608 C 128.798 124.654, 128.436 121, 126.383 121 C 125.469 121, 125 119.813, 125 117.500 C 125 115.187, 124.531 114, 123.617 114 C 122.856 114, 121.998 113.100, 121.710 112 C 121.423 110.900, 120.470 110, 119.594 110 C 118.717 110, 118 109.325, 118 108.500 C 118 107.667, 117.111 107, 116 107 C 114.667 107, 114 106.333, 114 105 C 114 103.667, 113.333 103, 112 103 C 110.900 103, 110 102.340, 110 101.534 C 110 100.531, 108.424 99.860, 105 99.406 C 101.754 98.975, 100 98.261, 100 97.371 C 100 96.438, 98.722 96, 96 96 C 93.111 96, 92 95.583, 92 94.500 C 92 93.675, 91.325 93, 90.500 93 C 89.452 93, 89 91.944, 89 89.500 C 89 86.964, 89.439 86, 90.594 86 C 91.470 86, 92.423 85.100, 92.710 84 C 92.998 82.900, 93.856 82, 94.617 82 C 95.377 82, 96 81.100, 96 80 C 96 78.667, 96.667 78, 98 78 C 99.333 78, 100 77.333, 100 76 C 100 74.889, 100.667 74, 101.500 74 C 102.510 74, 103 72.990, 103 70.906 C 103 68.654, 103.544 67.671, 105 67.290 C 106.100 67.002, 107 66.144, 107 65.383 C 107 64.623, 107.635 64, 108.412 64 C 109.280 64, 110.085 62.459, 110.500 60 C 110.915 57.541, 111.720 56, 112.588 56 C 113.535 56, 114 54.848, 114 52.500 C 114 49.667, 114.381 49, 116 49 C 117.518 49, 117.997 48.338, 117.986 46.250 C 117.959 40.813, 116.943 39.080, 113.390 38.413 C 111.469 38.053, 110 37.175, 110 36.389 C 110 35.278, 107.499 35, 97.500 35 L 85 35 85 31.500 C 85 29.056, 84.548 28, 83.500 28 C 82.667 28, 82 27.111, 82 26 C 82 24.393, 81.333 24, 78.611 24 C 75.530 24, 75.163 24.318, 74.566 27.500 M 240 102.883 C 240 105.028, 240.576 105.921, 242.250 106.370 C 246.393 107.480, 247 107.113, 247 103.500 C 247 100.167, 246.833 100, 243.500 100 C 240.309 100, 240 100.255, 240 102.883 M 227.750 103.689 C 226.224 104.088, 226 105.484, 226 114.573 L 226 125 229.500 125 C 232.333 125, 233 124.619, 233 123 C 233 121.381, 233.667 121, 236.500 121 L 240 121 240 114 C 240 107.667, 239.810 107, 238 107 C 236.900 107, 236 106.377, 236 105.617 C 236 103.580, 231.866 102.614, 227.750 103.689 M 99 115.500 C 99 116.325, 98.325 117, 97.500 117 C 96.408 117, 96 118.127, 96 121.142 L 96 125.285 102.147 124.642 C 105.527 124.289, 109.577 124, 111.147 124 C 113.741 124, 114 123.682, 114 120.500 C 114 118.056, 113.548 117, 112.500 117 C 111.675 117, 111 116.325, 111 115.500 C 111 114.333, 109.667 114, 105 114 C 100.333 114, 99 114.333, 99 115.500 M 244 122.594 C 244 123.470, 243.100 124.423, 242 124.710 C 240.900 124.998, 240 125.856, 240 126.617 C 240 127.627, 241.484 128, 245.500 128 C 249.722 128, 251 127.652, 251 126.500 C 251 125.675, 251.675 125, 252.500 125 C 253.333 125, 254 124.111, 254 123 C 254 121.267, 253.333 121, 249 121 C 245.092 121, 244 121.348, 244 122.594 M 236 130.500 C 236 131.333, 236.889 132, 238 132 C 239.111 132, 240 131.333, 240 130.500 C 240 129.667, 239.111 129, 238 129 C 236.889 129, 236 129.667, 236 130.500 M 103 133.389 C 103 134.184, 101.505 135.058, 99.500 135.434 C 97.405 135.827, 96 136.675, 96 137.545 C 96 138.345, 95.365 139, 94.588 139 C 93.720 139, 92.915 140.541, 92.500 143 C 92.085 145.459, 91.280 147, 90.412 147 C 89.465 147, 89 148.152, 89 150.500 C 89 153.518, 89.327 154, 91.375 154 C 95.880 154, 100 152.746, 100 151.375 C 100 150.318, 101.937 150, 108.383 150 C 115.926 150, 116.819 149.799, 117.290 148 C 117.577 146.900, 118.530 146, 119.406 146 C 120.713 146, 121 144.738, 121 139 L 121 132 112 132 C 104.987 132, 103 132.307, 103 133.389 M 143 174.883 C 143 180.926, 143.244 181.831, 145 182.290 C 146.100 182.577, 147 183.530, 147 184.406 C 147 185.283, 147.675 186, 148.500 186 C 149.652 186, 150 187.278, 150 191.500 C 150 196.333, 150.242 197, 152 197 C 153.619 197, 154 197.667, 154 200.500 C 154 202.944, 154.452 204, 155.500 204 C 156.325 204, 157 204.623, 157 205.383 C 157 206.959, 160 207.966, 164.750 207.986 C 167.877 207.999, 168 207.849, 168 204 C 168 200.667, 167.667 200, 166 200 C 164.889 200, 164 199.333, 164 198.500 C 164 197.675, 163.325 197, 162.500 197 C 161.417 197, 161 195.889, 161 193 C 161 190.166, 160.576 189, 159.545 189 C 158.675 189, 157.827 187.595, 157.434 185.500 C 157.058 183.495, 156.184 182, 155.389 182 C 154.389 182, 154 180.600, 154 177 C 154 172.667, 153.733 172, 152 172 C 150.667 172, 150 171.333, 150 170 C 150 168.381, 149.333 168, 146.500 168 L 143 168 143 174.883 M 124.566 175.500 C 124.173 177.595, 123.325 179, 122.455 179 C 120.888 179, 120.680 180.203, 121.630 183.750 C 121.962 184.988, 122.856 186, 123.617 186 C 124.377 186, 125 186.900, 125 188 C 125 189.111, 125.667 190, 126.500 190 C 127.575 190, 128 191.097, 128 193.875 C 128 199.772, 129.096 204, 130.625 204 C 131.530 204, 132 205.197, 132 207.500 C 132 210.333, 132.381 211, 134 211 C 135.333 211, 136 211.667, 136 213 C 136 214.111, 136.667 215, 137.500 215 C 138.333 215, 139 214.111, 139 213 C 139 211.889, 139.667 211, 140.500 211 C 142.233 211, 142.549 208.350, 140.882 207.794 C 140.263 207.588, 139.532 204.196, 139.247 200.211 C 138.877 195.035, 138.346 193, 137.366 193 C 136.595 193, 136 191.966, 136 190.625 C 136 186.120, 134.746 182, 133.375 182 C 132.470 182, 132 180.803, 132 178.500 C 132 176.056, 131.548 175, 130.500 175 C 129.675 175, 129 174.325, 129 173.500 C 129 172.675, 128.150 172, 127.111 172 C 125.745 172, 125.041 172.967, 124.566 175.500 M 35 191.500 C 35 195.722, 35.348 197, 36.500 197 C 37.325 197, 38 197.717, 38 198.594 C 38 199.470, 38.900 200.423, 40 200.710 C 41.100 200.998, 42 201.856, 42 202.617 C 42 203.522, 43.169 204, 45.383 204 C 47.926 204, 48.897 204.497, 49.290 206 C 49.577 207.100, 50.530 208, 51.406 208 C 52.283 208, 53 208.623, 53 209.383 C 53 210.144, 53.900 211.002, 55 211.290 C 56.100 211.577, 57 212.530, 57 213.406 C 57 214.283, 57.675 215, 58.500 215 C 59.325 215, 60 215.625, 60 216.389 C 60 217.184, 61.495 218.058, 63.500 218.434 C 65.595 218.827, 67 219.675, 67 220.545 C 67 221.576, 68.166 222, 71 222 C 74.333 222, 75 221.667, 75 220 C 75 218.889, 75.667 218, 76.500 218 C 78.726 218, 78.318 215.316, 76 214.710 C 74.900 214.423, 74 213.470, 74 212.594 C 74 211.439, 73.036 211, 70.500 211 C 67.667 211, 67 210.619, 67 209 C 67 207.889, 66.333 207, 65.500 207 C 64.675 207, 64 206.325, 64 205.500 C 64 204.667, 63.111 204, 62 204 C 60.667 204, 60 203.333, 60 202 C 60 200.667, 59.333 200, 58 200 C 56.889 200, 56 199.333, 56 198.500 C 56 197.675, 55.425 197, 54.722 197 C 54.019 197, 52.674 196.100, 51.732 195 C 50.790 193.900, 49.115 193, 48.010 193 C 46.838 193, 46 192.336, 46 191.406 C 46 190.530, 45.100 189.577, 44 189.290 C 42.900 189.002, 42 188.144, 42 187.383 C 42 186.469, 40.813 186, 38.500 186 L 35 186 35 191.500 M 81.725 189.609 C 79.828 191.506, 81.478 204, 83.625 204 C 84.381 204, 85 204.623, 85 205.383 C 85 206.144, 85.900 207.002, 87 207.290 C 88.100 207.577, 89 208.530, 89 209.406 C 89 210.283, 89.689 211, 90.531 211 C 91.374 211, 92.311 211.648, 92.615 212.439 C 92.919 213.230, 94.479 214.166, 96.084 214.518 C 97.688 214.871, 99 215.798, 99 216.579 C 99 217.681, 100.686 218, 106.500 218 L 114 218 114 213 L 114 208 110.500 208 C 108.056 208, 107 208.452, 107 209.500 C 107 210.333, 106.111 211, 105 211 C 103.900 211, 103 210.377, 103 209.617 C 103 208.856, 102.100 207.998, 101 207.710 C 99.900 207.423, 99 206.470, 99 205.594 C 99 204.717, 98.325 204, 97.500 204 C 96.667 204, 96 203.111, 96 202 C 96 200.900, 95.361 200, 94.579 200 C 93.798 200, 92.862 198.650, 92.500 197 C 92.138 195.350, 91.202 194, 90.421 194 C 89.639 194, 89 193.100, 89 192 C 89 190.900, 88.438 189.994, 87.750 189.986 C 87.063 189.979, 85.589 189.728, 84.475 189.428 C 83.361 189.129, 82.123 189.210, 81.725 189.609" stroke="none" fill="black" fill-rule="evenodd"/>
</svg>