<svg xmlns="http://www.w3.org/2000/svg" width="300" height="300" viewBox="0 0 300 300" version="1.1">
	<path d="M 168 47.500 C 168 48.782, 165.167 49, 148.500 49 C 131.324 49, 129 49.190, 129 50.594 C 129 51.470, 128.100 52.423, 127 52.710 C 125.497 53.103, 125 54.074, 125 56.617 C 125 59.333, 125.394 60, 127 60 C 128.111 60, 129 60.667, 129 61.500 C 129 62.548, 130.056 63, 132.500 63 C 134.944 63, 136 62.548, 136 61.500 C 136 60.675, 136.675 60, 137.500 60 C 138.325 60, 139 59.325, 139 58.500 C 139 57.410, 140.123 57, 143.108 57 C 147.090 57, 147.196 57.085, 146.527 59.748 C 145.637 63.293, 145.852 63.150, 140.549 63.747 C 137.614 64.078, 136 64.746, 136 65.630 C 136 66.384, 136.675 67, 137.500 67 C 138.333 67, 139 67.889, 139 69 C 139 70.111, 139.667 71, 140.500 71 C 142.262 71, 142.662 77.613, 140.935 78.188 C 139.301 78.733, 138.913 91.849, 140.504 92.758 C 141.234 93.176, 142.114 96.451, 142.517 100.250 C 143.137 106.095, 143.016 107, 141.616 107 C 139.721 107, 139.423 109.641, 141.250 110.251 C 142.075 110.527, 142.505 112.852, 142.513 117.084 C 142.564 141.538, 143.039 150, 144.361 150 C 145.880 150, 147.253 158.317, 146.322 161.878 C 145.850 163.682, 145.021 164, 140.790 164 C 136.654 164, 135.724 164.338, 135.290 166 C 134.831 167.756, 133.926 168, 127.883 168 C 122.654 168, 121 168.336, 121 169.399 C 121 170.396, 118.995 170.998, 114 171.500 C 109.005 172.002, 107 172.604, 107 173.601 C 107 174.533, 105.832 175, 103.500 175 C 100.352 175, 99.999 174.724, 99.986 172.250 C 99.961 167.134, 98.912 165.140, 95.898 164.478 C 94.304 164.128, 93 163.202, 93 162.421 C 93 161.293, 91.042 161, 83.500 161 C 75.722 161, 74 161.272, 74 162.500 C 74 163.711, 72.411 164.003, 65.750 164.014 C 56.196 164.029, 53 164.682, 53 166.617 C 53 167.627, 51.516 168, 47.500 168 C 43.278 168, 42 168.348, 42 169.500 C 42 170.325, 41.325 171, 40.500 171 C 39.452 171, 39 169.944, 39 167.500 C 39 165.056, 39.452 164, 40.500 164 C 41.633 164, 42 162.778, 42 159 C 42 155.424, 42.392 154, 43.375 154 C 44.746 154, 46 149.880, 46 145.375 C 46 143.931, 46.588 143, 47.500 143 C 48.333 143, 49 142.111, 49 141 C 49 139.667, 49.667 139, 51 139 C 52.100 139, 53 138.345, 53 137.545 C 53 136.675, 54.405 135.827, 56.500 135.434 C 58.505 135.058, 60 134.184, 60 133.389 C 60 132.327, 61.767 132, 67.500 132 C 73.314 132, 75 131.681, 75 130.579 C 75 129.798, 76.350 128.862, 78 128.500 C 79.650 128.138, 81 127.202, 81 126.421 C 81 125.365, 82.415 125, 86.500 125 L 92 125 92 128.500 C 92 131.333, 92.381 132, 94 132 C 95.111 132, 96 132.667, 96 133.500 C 96 134.325, 96.623 135, 97.383 135 C 98.959 135, 99.966 132, 99.986 127.250 C 99.996 125.034, 100.477 124, 101.500 124 C 102.325 124, 103 123.550, 103 123 C 103 122.450, 102.356 122, 101.570 122 C 100.783 122, 99.995 120.987, 99.820 119.750 C 99.575 118.025, 98.741 117.427, 96.250 117.187 C 94.237 116.993, 93 116.327, 93 115.437 C 93 114.315, 91.353 114, 85.500 114 C 79.500 114, 78 113.700, 78 112.500 C 78 111.675, 78.619 111, 79.375 111 C 81.239 111, 82.003 106.503, 81.986 95.625 C 81.971 85.218, 81.356 82, 79.383 82 C 78.623 82, 78 81.100, 78 80 C 78 78.667, 77.333 78, 76 78 C 74.900 78, 74 77.377, 74 76.617 C 74 74.601, 70.757 74.029, 59.250 74.014 C 49.662 74.001, 49 74.129, 49 76 C 49 77.619, 48.333 78, 45.500 78 L 42 78 42 87 L 42 96 45.500 96 L 49 96 49 90.500 C 49 85.667, 49.242 85, 51 85 C 52.111 85, 53 84.333, 53 83.500 C 53 82.348, 54.278 82, 58.500 82 C 62.722 82, 64 82.348, 64 83.500 C 64 84.510, 65.010 85, 67.094 85 C 69.346 85, 70.329 85.544, 70.710 87 C 70.998 88.100, 71.856 89, 72.617 89 C 73.692 89, 74 91.004, 74 98 C 74 105.333, 73.722 107, 72.500 107 C 71.372 107, 71 108.208, 71 111.875 C 71 116.535, 70.862 116.778, 67.875 117.375 C 66.156 117.719, 62.781 118, 60.375 118 C 57.153 118, 56 118.395, 56 119.500 C 56 120.690, 54.556 121, 49 121 C 43.541 121, 42 121.320, 42 122.455 C 42 123.325, 40.595 124.173, 38.500 124.566 C 35.072 125.209, 35 125.322, 35 130.066 C 35 134.810, 35.072 134.923, 38.500 135.566 C 42.316 136.282, 43.192 138.455, 40 139.290 C 38.468 139.690, 38 140.654, 38 143.406 C 38 145.934, 37.555 147, 36.500 147 C 35.367 147, 35 148.222, 35 152 C 35 155.590, 34.610 157, 33.617 157 C 32.041 157, 31.034 160, 31.014 164.750 C 31.005 166.921, 30.517 168, 29.545 168 C 28.675 168, 27.827 169.405, 27.434 171.500 C 27.058 173.505, 26.184 175, 25.389 175 C 24.478 175, 24 176.162, 24 178.375 C 24 181.380, 24.355 181.821, 27.238 182.398 C 32.135 183.377, 42 182.023, 42 180.371 C 42 179.471, 43.202 179, 45.500 179 C 47.803 179, 49 178.530, 49 177.625 C 49 176.096, 53.228 175, 59.125 175 C 61.710 175, 63 174.551, 63 173.651 C 63 172.643, 65.596 172.157, 73.250 171.731 C 84.788 171.089, 89 171.593, 89 173.617 C 89 174.377, 89.675 175, 90.500 175 C 91.325 175, 92 175.675, 92 176.500 C 92 177.325, 91.325 178, 90.500 178 C 89.282 178, 88.997 179.645, 88.986 186.750 C 88.971 196.791, 88.340 200, 86.383 200 C 85.436 200, 85 201.261, 85 204 C 85 206.722, 84.562 208, 83.629 208 C 82.739 208, 82.025 209.754, 81.594 213 C 81.140 216.424, 80.469 218, 79.466 218 C 78.467 218, 78 219.078, 78 221.383 C 78 223.926, 77.503 224.897, 76 225.290 C 74.803 225.603, 74 226.654, 74 227.906 C 74 229.058, 73.361 230, 72.579 230 C 71.798 230, 70.869 231.321, 70.514 232.935 C 70.030 235.139, 69.139 236.030, 66.935 236.514 C 65.321 236.869, 64 237.798, 64 238.579 C 64 239.635, 62.585 240, 58.500 240 L 53 240 53 234.500 C 53 230.484, 52.627 229, 51.617 229 C 50.041 229, 49.034 226, 49.014 221.250 C 49.004 219.022, 49.472 218, 50.500 218 C 51.325 218, 52 217.325, 52 216.500 C 52 215.517, 51.016 215, 49.144 215 C 46.303 215, 46.286 215.037, 45.710 222.655 C 44.972 232.406, 45.817 240, 47.639 240 C 48.388 240, 49 240.900, 49 242 C 49 243.100, 49.655 244, 50.455 244 C 51.325 244, 52.173 245.405, 52.566 247.500 L 53.223 251 60.111 251 C 66.333 251, 67 250.806, 67 249 C 67 247.667, 67.667 247, 69 247 C 70.111 247, 71 246.333, 71 245.500 C 71 244.675, 71.675 244, 72.500 244 C 73.333 244, 74 243.111, 74 242 C 74 240.667, 74.667 240, 76 240 C 77.619 240, 78 239.333, 78 236.500 C 78 233.667, 78.381 233, 80 233 C 81.333 233, 82 232.333, 82 231 C 82 229.889, 82.667 229, 83.500 229 C 84.548 229, 85 227.944, 85 225.500 C 85 222.667, 85.381 222, 87 222 C 88.619 222, 89 221.333, 89 218.500 C 89 216.152, 89.465 215, 90.412 215 C 91.280 215, 92.085 213.459, 92.500 211 C 92.915 208.541, 93.720 207, 94.588 207 C 95.670 207, 96 205.362, 96 200 C 96 194.541, 96.320 193, 97.455 193 C 98.325 193, 99.173 191.595, 99.566 189.500 C 100.207 186.081, 100.333 186, 104.995 186 C 108.926 186, 109.859 185.648, 110.290 184 C 110.671 182.544, 111.654 182, 113.906 182 C 115.862 182, 117 181.495, 117 180.627 C 117 179.707, 118.683 179.093, 122.107 178.764 C 124.915 178.494, 127.506 177.800, 127.863 177.221 C 128.221 176.642, 131.773 175.848, 135.757 175.455 C 140.878 174.951, 143 174.340, 143 173.371 C 143 172.404, 144.400 171.996, 147.750 171.986 C 153.923 171.969, 157 171.103, 157 169.383 C 157 168.279, 159.524 168, 169.500 168 C 179.944 168, 182 167.753, 182 166.500 C 182 165.435, 183.087 164.997, 185.750 164.991 C 193.378 164.974, 200 163.751, 200 162.361 C 200 161.612, 200.900 161, 202 161 C 203.619 161, 204 161.667, 204 164.500 L 204 168 209.500 168 C 214.333 168, 215 167.758, 215 166 C 215 164.900, 215.647 164, 216.439 164 C 218.007 164, 219.711 155.960, 218.544 154.071 C 217.114 151.757, 193 153.237, 193 155.639 C 193 156.740, 189.279 157, 173.500 157 L 154 157 153.991 153.250 C 153.974 145.622, 152.751 139, 151.361 139 C 150.400 139, 150 137.572, 150 134.139 L 150 129.279 155.250 128.648 C 158.137 128.301, 163.762 128.013, 167.750 128.009 L 175 128 175 133.500 C 175 137.722, 174.652 139, 173.500 139 C 172.667 139, 172 139.889, 172 141 C 172 142.111, 172.667 143, 173.500 143 C 174.325 143, 175 142.283, 175 141.406 C 175 140.530, 175.900 139.577, 177 139.290 C 178.107 139, 179 137.926, 179 136.883 C 179 135.848, 179.617 135, 180.371 135 C 181.263 135, 181.976 133.239, 182.410 129.966 C 183.234 123.757, 182.261 118, 180.389 118 C 179.435 118, 179 116.746, 179 114 C 179 111.280, 179.438 110, 180.370 110 C 181.891 110, 183.072 102.827, 182.255 98.552 L 181.767 96 165.883 96 L 150 96 150 82.117 C 150 69.074, 150.121 68.202, 152 67.710 C 153.100 67.423, 154 66.533, 154 65.733 C 154 64.057, 160.552 63.022, 171.250 63.009 C 176.579 63.002, 178 62.684, 178 61.500 C 178 60.417, 179.111 60, 182 60 C 184.739 60, 186 59.564, 186 58.617 C 186 57.856, 186.900 56.998, 188 56.710 C 190.080 56.166, 190.611 52.883, 189.370 48.250 C 188.793 46.100, 188.306 46, 178.383 46 C 169.820 46, 168 46.263, 168 47.500 M 168 54.389 C 168 55.184, 166.505 56.058, 164.500 56.434 C 162.405 56.827, 161 57.675, 161 58.545 C 161 59.541, 162.104 60, 164.500 60 C 166.813 60, 168 59.531, 168 58.617 C 168 57.856, 168.900 56.998, 170 56.710 C 171.100 56.423, 172 55.470, 172 54.594 C 172 53.667, 171.163 53, 170 53 C 168.900 53, 168 53.625, 168 54.389 M 162.750 103.689 C 160.454 104.289, 160.225 111, 162.500 111 C 163.325 111, 164 111.675, 164 112.500 C 164 113.583, 165.111 114, 168 114 C 170.889 114, 172 113.583, 172 112.500 C 172 111.675, 172.675 111, 173.500 111 C 174.583 111, 175 109.889, 175 107 L 175 103 169.750 103.116 C 166.863 103.180, 163.713 103.438, 162.750 103.689 M 150 112 L 150 117 153.500 117 C 156.833 117, 157 116.833, 157 113.500 C 157 111.056, 156.548 110, 155.500 110 C 154.675 110, 154 109.325, 154 108.500 C 154 107.667, 153.111 107, 152 107 C 150.267 107, 150 107.667, 150 112 M 148.750 175.689 C 147.787 175.941, 147 176.789, 147 177.573 C 147 178.358, 146.100 179, 145 179 C 143.889 179, 143 179.667, 143 180.500 C 143 181.333, 142.111 182, 141 182 C 139.381 182, 139 182.667, 139 185.500 C 139 187.787, 138.528 189, 137.638 189 C 135.554 189, 134.833 199.727, 135.618 219.066 C 136.154 232.258, 136.603 236, 137.653 236 C 138.558 236, 139 237.313, 139 240 C 139 242.834, 139.424 244, 140.455 244 C 141.325 244, 142.173 245.405, 142.566 247.500 C 143.210 250.933, 143.316 251, 148.111 251 C 151.790 251, 153 251.371, 153 252.500 C 153 253.548, 154.056 254, 156.500 254 C 158.944 254, 160 253.548, 160 252.500 C 160 251.300, 161.500 251, 167.500 251 C 174.333 251, 175 250.822, 175 249 C 175 247.667, 175.667 247, 177 247 C 178.111 247, 179 246.333, 179 245.500 C 179 244.452, 180.056 244, 182.500 244 C 185.333 244, 186 243.619, 186 242 C 186 240.381, 186.667 240, 189.500 240 C 192.333 240, 193 239.619, 193 238 C 193 236.142, 193.667 236, 202.375 236 C 213.511 236, 218 236.754, 218 238.625 C 218 239.669, 219.803 240, 225.500 240 C 232.333 240, 233 240.178, 233 242 C 233 243.758, 233.667 244, 238.500 244 C 242.722 244, 244 244.348, 244 245.500 C 244 246.621, 245.201 247.003, 248.750 247.014 C 254.923 247.031, 258 247.897, 258 249.617 C 258 250.462, 259.069 250.995, 260.750 250.986 C 265.971 250.960, 268.077 249.867, 268.676 246.870 C 268.992 245.292, 269.869 244, 270.625 244 C 271.381 244, 272 243.100, 272 242 C 272 240.190, 271.333 240, 265 240 C 259.727 240, 258 239.661, 258 238.625 C 258 236.940, 253.658 236, 245.875 236 C 241.576 236, 240 235.634, 240 234.634 C 240 233.656, 237.983 233.124, 232.887 232.760 C 228.547 232.449, 225.454 231.735, 224.955 230.927 C 224.460 230.127, 221.540 229.438, 217.568 229.185 L 211 228.767 211 225.384 C 211 222.667, 211.394 222, 213 222 C 214.333 222, 215 221.333, 215 220 C 215 218.889, 215.667 218, 216.500 218 C 217.325 218, 218 217.325, 218 216.500 C 218 215.667, 218.889 215, 220 215 C 221.333 215, 222 214.333, 222 213 C 222 211.889, 222.667 211, 223.500 211 C 224.325 211, 225 210.283, 225 209.406 C 225 208.530, 225.900 207.577, 227 207.290 C 228.647 206.859, 229 205.926, 229 202 C 229 198.074, 229.353 197.141, 231 196.710 C 232.100 196.423, 233 195.653, 233 195 C 233 194.347, 232.100 193.577, 231 193.290 C 229.900 193.002, 229 192.144, 229 191.383 C 229 190.623, 228.325 190, 227.500 190 C 226.675 190, 226 190.675, 226 191.500 C 226 192.333, 225.111 193, 224 193 C 222.889 193, 222 192.333, 222 191.500 C 222 190.310, 220.556 190, 215 190 C 209.444 190, 208 190.310, 208 191.500 C 208 192.523, 206.966 193.004, 204.750 193.014 C 200 193.034, 197 194.041, 197 195.617 C 197 196.531, 195.813 197, 193.500 197 C 191.056 197, 190 197.452, 190 198.500 C 190 199.523, 188.966 200.004, 186.750 200.014 C 182 200.034, 179 201.041, 179 202.617 C 179 203.706, 176.791 204, 168.617 204 C 159.074 204, 158.191 203.838, 157.710 202 C 157.249 200.237, 156.346 200, 150.094 200 C 144.455 200, 143 199.692, 143 198.500 C 143 197.675, 143.675 197, 144.500 197 C 145.412 197, 146 196.069, 146 194.625 C 146 193.319, 146.281 190.844, 146.625 189.125 C 147.144 186.531, 147.719 186, 150.008 186 C 151.926 186, 152.926 185.390, 153.290 184 C 153.577 182.900, 154.530 182, 155.406 182 C 156.283 182, 157 181.325, 157 180.500 C 157 179.417, 158.111 179, 161 179 C 163.889 179, 165 179.417, 165 180.500 C 165 181.325, 165.675 182, 166.500 182 C 167.548 182, 168 180.944, 168 178.500 L 168 175 159.250 175.116 C 154.438 175.180, 149.713 175.438, 148.750 175.689 M 202.750 200.651 C 201.787 200.924, 201 201.789, 201 202.573 C 201 203.632, 199.612 204, 195.617 204 C 191.074 204, 190.152 204.312, 189.710 206 C 189.255 207.741, 188.346 208, 182.702 208 C 176.587 208, 176.180 208.145, 175.578 210.546 C 174.645 214.262, 175.553 215, 181.059 215 C 184.608 215, 186 215.391, 186 216.389 C 186 217.184, 187.495 218.058, 189.500 218.434 C 191.595 218.827, 193 219.675, 193 220.545 C 193 221.642, 194.354 222, 198.500 222 C 203.333 222, 204 221.758, 204 220 C 204 218.889, 204.667 218, 205.500 218 C 206.325 218, 207 217.325, 207 216.500 C 207 215.667, 207.889 215, 209 215 C 210.333 215, 211 214.333, 211 213 C 211 211.889, 211.667 211, 212.500 211 C 213.325 211, 214 210.325, 214 209.500 C 214 208.675, 214.844 208, 215.875 208 C 217.179 208, 217.942 207.038, 218.382 204.840 C 218.730 203.102, 218.898 201.578, 218.757 201.452 C 218.131 200.897, 204.324 200.206, 202.750 200.651 M 146 209.500 C 146 210.325, 145.325 211, 144.500 211 C 143.348 211, 143 212.278, 143 216.500 C 143 220.722, 143.348 222, 144.500 222 C 145.575 222, 146 223.097, 146 225.875 C 146 231.772, 147.096 236, 148.625 236 C 149.381 236, 150 236.900, 150 238 C 150 239.333, 150.667 240, 152 240 C 153.111 240, 154 240.667, 154 241.500 C 154 242.690, 155.444 243, 161 243 C 166.556 243, 168 242.690, 168 241.500 C 168 240.452, 169.056 240, 171.500 240 C 173.932 240, 175 239.546, 175 238.512 C 175 237.549, 176.412 236.798, 179 236.384 C 181.274 236.020, 183 235.187, 183 234.452 C 183 233.741, 184.350 232.862, 186 232.500 C 189.042 231.832, 190.255 229, 187.500 229 C 186.675 229, 186 228.375, 186 227.611 C 186 226.816, 184.505 225.942, 182.500 225.566 C 180.405 225.173, 179 224.325, 179 223.455 C 179 222.424, 177.834 222, 175 222 C 172.166 222, 171 221.576, 171 220.545 C 171 219.675, 169.595 218.827, 167.500 218.434 C 165.495 218.058, 164 217.184, 164 216.389 C 164 215.468, 162.820 215, 160.500 215 C 158.104 215, 157 214.541, 157 213.545 C 157 212.675, 155.595 211.827, 153.500 211.434 C 151.495 211.058, 150 210.184, 150 209.389 C 150 208.625, 149.100 208, 148 208 C 146.889 208, 146 208.667, 146 209.500" stroke="none" fill="black" fill-rule="evenodd"/>
</svg>