<svg xmlns="http://www.w3.org/2000/svg" width="300" height="300" viewBox="0 0 300 300" version="1.1">
	<path d="M 130.708 43.750 C 130.410 45.263, 130.406 47.737, 130.700 49.250 L 131.233 52 140.117 52 C 147.346 52, 149 52.279, 149 53.500 C 149 54.548, 150.056 55, 152.500 55 C 155.333 55, 156 55.381, 156 57 C 156 58.615, 156.667 59, 159.466 59 L 162.932 59 163.216 69.669 C 163.422 77.400, 163.862 80.458, 164.816 80.774 C 165.541 81.014, 166.380 80.265, 166.683 79.105 C 166.986 77.947, 167.803 77, 168.499 77 C 169.343 77, 169.995 74.548, 170.455 69.642 C 171.255 61.095, 170.396 55, 168.389 55 C 167.625 55, 167 54.325, 167 53.500 C 167 52.667, 166.111 52, 165 52 C 163.667 52, 163 51.333, 163 50 C 163 48.381, 162.333 48, 159.500 48 C 156.667 48, 156 47.619, 156 46 C 156 44.242, 155.333 44, 150.500 44 C 146.278 44, 145 43.652, 145 42.500 C 145 41.312, 143.569 41, 138.125 41 C 131.423 41, 131.236 41.069, 130.708 43.750 M 134 78.500 C 134 79.548, 132.944 80, 130.500 80 C 127.083 80, 127 80.095, 127 84 C 127 86.889, 126.583 88, 125.500 88 C 124.262 88, 124 89.833, 124 98.500 C 124 107.167, 124.262 109, 125.500 109 C 126.742 109, 127 110.889, 127 120 C 127 129.111, 127.258 131, 128.500 131 C 129.548 131, 130 132.056, 130 134.500 C 130 137.843, 129.841 138, 126.448 138 L 122.895 138 123.198 143.250 L 123.500 148.500 129.250 148.800 C 133.469 149.020, 135 149.486, 135 150.550 C 135 151.347, 135.675 152, 136.500 152 C 137.325 152, 138 151.325, 138 150.500 C 138 149.348, 139.278 149, 143.500 149 C 148.333 149, 149 149.242, 149 151 C 149 152.111, 149.667 153, 150.500 153 C 151.325 153, 152 153.675, 152 154.500 C 152 155.325, 151.325 156, 150.500 156 C 149.348 156, 149 157.278, 149 161.500 C 149 165.516, 148.627 167, 147.617 167 C 146.041 167, 145.034 170, 145.014 174.750 C 145.004 176.932, 144.518 178, 143.534 178 C 142.531 178, 141.860 179.576, 141.406 183 C 140.975 186.246, 140.261 188, 139.371 188 C 138.617 188, 138 188.900, 138 190 C 138 191.852, 137.333 192, 129 192 C 120.667 192, 120 191.852, 120 190 C 120 188.889, 119.333 188, 118.500 188 C 117.675 188, 117 187.325, 117 186.500 C 117 185.300, 115.500 185, 109.500 185 C 102.667 185, 102 184.822, 102 183 C 102 181.889, 102.667 181, 103.500 181 C 104.333 181, 105 180.111, 105 179 C 105 177.889, 104.333 177, 103.500 177 C 102.675 177, 102 176.325, 102 175.500 C 102 174.675, 102.675 174, 103.500 174 C 104.333 174, 105 173.111, 105 172 C 105 170.889, 104.333 170, 103.500 170 C 102.675 170, 102 169.325, 102 168.500 C 102 167.667, 102.889 167, 104 167 C 105.333 167, 106 166.333, 106 165 C 106 163.889, 106.667 163, 107.500 163 C 108.325 163, 109 162.325, 109 161.500 C 109 160.452, 110.056 160, 112.500 160 C 115.333 160, 116 159.619, 116 158 C 116 156.190, 115.333 156, 109 156 L 102 156 102 129 L 102 102 91 102 C 82.041 102, 80 101.730, 80 100.545 C 80 98.371, 75.075 97.837, 60 98.374 C 52.575 98.639, 46.163 98.888, 45.750 98.928 C 45.337 98.968, 45 99.675, 45 100.500 C 45 101.433, 44.056 102, 42.500 102 C 40.944 102, 40 102.567, 40 103.500 C 40 104.325, 39.325 105, 38.500 105 C 36.558 105, 36.535 108.884, 38.473 109.628 C 39.283 109.939, 40.233 111.725, 40.584 113.597 C 40.946 115.527, 41.823 117, 42.611 117 C 43.765 117, 44 122.069, 44 147 C 44 172.021, 43.768 177, 42.603 177 C 41.542 177, 41.120 179.067, 40.853 185.570 C 40.569 192.454, 40.156 194.333, 38.750 195.120 C 37.345 195.906, 37 197.470, 37 203.050 C 37 208.322, 36.664 210, 35.608 210 C 34.560 210, 34.040 212.452, 33.505 219.929 C 33.114 225.390, 33.092 230.340, 33.456 230.929 C 33.820 231.518, 35.666 232, 37.559 232 L 41 232 41 224.500 C 41 218.500, 41.300 217, 42.500 217 C 43.575 217, 44 215.903, 44 213.125 C 44 207.228, 45.096 203, 46.625 203 C 47.690 203, 48 200.970, 48 194 C 48 187.030, 48.310 185, 49.375 185 C 51.060 185, 52 180.658, 52 172.875 L 52 167 55.500 167 C 58.333 167, 59 167.381, 59 169 C 59 170.111, 59.667 171, 60.500 171 C 61.325 171, 62 171.675, 62 172.500 C 62 173.333, 62.889 174, 64 174 C 65.619 174, 66 174.667, 66 177.500 C 66 180.333, 65.619 181, 64 181 C 62.900 181, 62 181.639, 62 182.421 C 62 183.202, 60.650 184.138, 59 184.500 C 57.278 184.878, 56 185.804, 56 186.673 C 56 187.506, 55.100 188.423, 54 188.710 C 51.682 189.316, 51.274 192, 53.500 192 C 54.325 192, 55 192.675, 55 193.500 C 55 194.333, 55.889 195, 57 195 C 58.111 195, 59 194.333, 59 193.500 C 59 192.452, 60.056 192, 62.500 192 C 64.896 192, 66 191.541, 66 190.545 C 66 189.675, 67.405 188.827, 69.500 188.434 C 71.425 188.073, 73 187.205, 73 186.505 C 73 185.806, 73.900 184.998, 75 184.710 C 76.100 184.423, 77 183.470, 77 182.594 C 77 181.439, 77.964 181, 80.500 181 C 82.813 181, 84 180.531, 84 179.617 C 84 178.856, 84.900 177.998, 86 177.710 C 87.100 177.423, 88 176.470, 88 175.594 C 88 174.439, 88.964 174, 91.500 174 L 95 174 95 188 C 95 199.778, 95.238 202, 96.500 202 C 97.788 202, 98 205.111, 98 224 L 98 246 102 246 L 106 246 106 240.500 C 106 236.278, 106.348 235, 107.500 235 C 108.652 235, 109 233.722, 109 229.500 C 109 225.278, 108.652 224, 107.500 224 C 106.229 224, 106 221.556, 106 208 C 106 194.444, 106.229 192, 107.500 192 C 108.325 192, 109 192.717, 109 193.594 C 109 194.470, 109.900 195.423, 111 195.710 C 112.100 195.998, 113 196.856, 113 197.617 C 113 198.692, 115.004 199, 122 199 L 131 199 131 202.594 C 131 205.346, 130.532 206.310, 129 206.710 C 127.583 207.081, 127 208.074, 127 210.117 C 127 212.013, 126.487 213, 125.500 213 C 124.644 213, 124 213.899, 124 215.094 C 124 216.346, 123.197 217.397, 122 217.710 C 120.497 218.103, 120 219.074, 120 221.617 C 120 223.911, 119.532 225, 118.545 225 C 116.861 225, 115.688 229.976, 116.173 235.067 C 116.476 238.243, 116.781 238.523, 120.250 238.810 C 123.939 239.116, 124 239.063, 124 235.560 C 124 233.062, 124.448 232, 125.500 232 C 126.555 232, 127 230.934, 127 228.406 C 127 225.654, 127.468 224.690, 129 224.290 C 130.417 223.919, 131 222.926, 131 220.883 C 131 219.067, 131.522 218, 132.412 218 C 133.280 218, 134.085 216.459, 134.500 214 C 134.915 211.541, 135.720 210, 136.588 210 C 137.365 210, 138 209.100, 138 208 C 138 206.900, 138.655 206, 139.455 206 C 140.325 206, 141.173 204.595, 141.566 202.500 C 141.927 200.575, 142.797 199, 143.500 199 C 144.203 199, 145.073 197.425, 145.434 195.500 C 145.827 193.405, 146.675 192, 147.545 192 C 148.541 192, 149 190.896, 149 188.500 C 149 186.180, 149.468 185, 150.389 185 C 151.184 185, 152.058 183.505, 152.434 181.500 C 152.827 179.405, 153.675 178, 154.545 178 C 155.642 178, 156 176.646, 156 172.500 C 156 168.484, 156.373 167, 157.383 167 C 159.103 167, 159.969 163.923, 159.986 157.750 C 159.997 154.076, 160.361 153, 161.594 153 C 162.470 153, 163.423 152.100, 163.710 151 C 164.404 148.348, 165.623 148.463, 166.370 151.250 C 167.151 154.165, 167.151 168.835, 166.370 171.750 C 166.038 172.988, 165.144 174, 164.383 174 C 163.337 174, 163 175.707, 163 181 C 163 186.214, 162.655 188, 161.648 188 C 160.196 188, 159.017 198.368, 159.006 211.250 C 159.001 216.581, 158.685 218, 157.500 218 C 156.367 218, 156 219.222, 156 223 C 156 226.778, 156.367 228, 157.500 228 C 158.605 228, 159 229.153, 159 232.375 C 159 238.741, 160.052 243, 161.625 243 C 162.381 243, 163 243.675, 163 244.500 C 163 245.333, 163.889 246, 165 246 C 166.333 246, 167 246.667, 167 248 C 167 249.619, 167.667 250, 170.500 250 C 172.820 250, 174 250.468, 174 251.389 C 174 252.184, 175.495 253.058, 177.500 253.434 C 179.595 253.827, 181 254.675, 181 255.545 C 181 256.689, 182.604 257, 188.500 257 C 194.500 257, 196 257.300, 196 258.500 C 196 259.801, 200.056 260, 226.500 260 L 257 260 257 257 C 257 255.127, 257.515 254, 258.369 254 C 260.067 254, 260.974 248.890, 260.989 239.250 C 260.998 233.477, 261.306 232, 262.500 232 C 263.700 232, 264 230.500, 264 224.500 C 264 218.500, 264.300 217, 265.500 217 C 266.548 217, 267 215.944, 267 213.500 C 267 210.312, 266.744 210, 264.125 210 C 261.705 210, 261.151 210.495, 260.625 213.125 C 260.281 214.844, 260 217.994, 260 220.125 C 260 222.903, 259.575 224, 258.500 224 C 257.477 224, 256.996 225.034, 256.986 227.250 C 256.966 232, 255.959 235, 254.383 235 C 253.340 235, 253 236.688, 253 241.875 C 253 250.322, 255.024 249.723, 225.747 249.951 C 201.957 250.137, 195 249.557, 195 247.386 C 195 246.394, 193.613 246, 190.117 246 C 186.074 246, 185.143 245.656, 184.710 244 C 184.329 242.544, 183.346 242, 181.094 242 C 179.121 242, 178 241.497, 178 240.611 C 178 239.825, 176.531 238.947, 174.610 238.587 C 170.781 237.868, 170.035 236.272, 170.014 228.750 C 170.003 225.201, 169.621 224, 168.500 224 C 167.247 224, 167 221.944, 167 211.500 C 167 201.624, 167.286 199, 168.361 199 C 169.751 199, 170.974 192.378, 170.991 184.750 C 170.997 182.087, 171.435 181, 172.500 181 C 173.690 181, 174 179.556, 174 174 C 174 168.727, 174.339 167, 175.375 167 C 176.746 167, 178 162.880, 178 158.375 C 178 156.327, 178.482 156, 181.500 156 L 185 156 185 163 C 185 168.556, 185.310 170, 186.500 170 C 187.690 170, 188 168.556, 188 163 C 188 157.444, 187.690 156, 186.500 156 C 185.348 156, 185 154.722, 185 150.500 C 185 145.163, 185.082 145, 187.750 145.014 C 192.032 145.035, 195 146.101, 195 147.617 C 195 148.627, 196.484 149, 200.500 149 C 204.722 149, 206 149.348, 206 150.500 C 206 151.333, 206.889 152, 208 152 C 209.333 152, 210 152.667, 210 154 C 210 155.100, 209.381 156, 208.625 156 C 207.096 156, 206 160.228, 206 166.125 C 206 168.903, 205.575 170, 204.500 170 C 203.667 170, 203 170.889, 203 172 C 203 173.104, 202.333 174, 201.512 174 C 200.549 174, 199.798 175.412, 199.384 178 C 198.998 180.413, 198.200 182, 197.372 182 C 196.514 182, 196 183.124, 196 185 C 196 187.333, 195.556 188, 194 188 C 192.381 188, 192 187.333, 192 184.500 C 192 181.667, 191.619 181, 190 181 C 188.150 181, 188 181.667, 188 189.875 L 188 198.750 190.750 199.292 C 192.262 199.590, 194.738 199.594, 196.250 199.300 C 198.603 198.844, 199 198.278, 199 195.383 C 199 192.667, 199.394 192, 201 192 C 202.333 192, 203 191.333, 203 190 C 203 188.900, 203.655 188, 204.455 188 C 205.325 188, 206.173 186.595, 206.566 184.500 C 206.942 182.495, 207.816 181, 208.611 181 C 209.375 181, 210 180.100, 210 179 C 210 177.900, 210.623 177, 211.383 177 C 212.899 177, 213.965 174.032, 213.986 169.750 C 213.995 167.978, 214.534 167, 215.500 167 C 216.642 167, 217.002 165.746, 217.009 161.750 C 217.013 158.863, 217.304 154.113, 217.655 151.195 C 218.230 146.405, 218.092 145.837, 216.238 145.352 C 215.109 145.057, 213.960 143.957, 213.686 142.908 C 213.412 141.858, 212.470 141, 211.594 141 C 210.717 141, 210 140.325, 210 139.500 C 210 138.675, 209.325 138, 208.500 138 C 207.675 138, 207 137.325, 207 136.500 C 207 135.675, 207.675 135, 208.500 135 C 209.333 135, 210 134.111, 210 133 C 210 131.900, 210.635 131, 211.412 131 C 212.280 131, 213.085 129.459, 213.500 127 C 213.875 124.782, 214.743 123, 215.449 123 C 216.236 123, 216.955 121.027, 217.334 117.825 C 217.671 114.979, 218.517 112.298, 219.214 111.868 C 220.012 111.375, 220.617 108.104, 220.847 103.042 C 221.193 95.416, 221.103 95, 219.106 95 C 217.948 95, 217 94.377, 217 93.617 C 217 91.858, 213.902 91.031, 207.250 91.014 C 203.256 91.003, 202 90.641, 202 89.500 C 202 88.238, 199.778 88, 188 88 C 176.637 88, 174 88.265, 174 89.406 C 174 90.499, 171.753 90.889, 163.928 91.156 C 155.604 91.440, 153.687 91.804, 152.879 93.250 C 152.134 94.583, 150.602 95, 146.450 95 C 142.272 95, 141 95.350, 141 96.500 C 141 97.548, 139.944 98, 137.500 98 C 134.744 98, 134 97.601, 134 96.125 C 134 92.078, 135.318 88, 136.625 88 C 137.381 88, 138 87.100, 138 86 C 138 84.381, 138.667 84, 141.500 84 C 144.833 84, 145 83.833, 145 80.500 L 145 77 139.500 77 C 135.278 77, 134 77.348, 134 78.500 M 159.750 98.728 C 157.335 98.981, 156 99.633, 156 100.560 C 156 101.620, 154.690 102, 151.045 102 C 146.175 102, 146.080 102.059, 145.434 105.500 C 144.837 108.682, 144.470 109, 141.389 109 C 138.102 109, 138 109.120, 138 113 C 138 115.889, 137.583 117, 136.500 117 C 135.452 117, 135 118.056, 135 120.500 C 135 122.944, 135.452 124, 136.500 124 C 137.716 124, 138 125.611, 138 132.500 L 138 141 150.594 141 C 162.346 141, 163.222 141.134, 163.710 143 C 164.310 145.292, 167 145.738, 167 143.545 C 167 142.675, 168.405 141.827, 170.500 141.434 C 172.505 141.058, 174 140.184, 174 139.389 C 174 138.327, 175.767 138, 181.500 138 C 187.500 138, 189 137.700, 189 136.500 C 189 135.675, 189.675 135, 190.500 135 C 191.325 135, 192 135.675, 192 136.500 C 192 137.538, 193.043 138, 195.389 138 C 198.470 138, 198.837 137.682, 199.434 134.500 C 199.827 132.405, 200.675 131, 201.545 131 C 202.345 131, 203 130.100, 203 129 C 203 127.889, 203.667 127, 204.500 127 C 205.637 127, 206 125.767, 206 121.906 C 206 117.654, 206.330 116.726, 208 116.290 C 209.796 115.820, 210 114.926, 210 107.508 L 210 99.250 206.875 98.625 C 203.598 97.970, 166.220 98.052, 159.750 98.728 M 63 107.500 C 63 108.583, 61.889 109, 59 109 L 55 109 55 132.500 C 55 151.842, 55.245 156, 56.383 156 C 57.144 156, 58.002 155.100, 58.290 154 C 58.603 152.803, 59.654 152, 60.906 152 C 62.101 152, 63 151.356, 63 150.500 C 63 149.284, 64.611 149, 71.500 149 C 78.389 149, 80 149.284, 80 150.500 C 80 151.333, 80.889 152, 82 152 C 83.822 152, 84 152.667, 84 159.500 L 84 167 87.500 167 C 90.333 167, 91 166.619, 91 165 C 91 163.627, 91.667 163, 93.125 163 C 95.163 163, 95.232 162.643, 94.800 154.417 C 94.487 148.455, 93.915 145.566, 92.925 144.955 C 91.800 144.261, 91.434 140.387, 91.186 126.538 L 90.871 109 78.436 109 C 68.048 109, 66 108.753, 66 107.500 C 66 106.675, 65.325 106, 64.500 106 C 63.675 106, 63 106.675, 63 107.500 M 69 157.500 C 69 158.325, 68.325 159, 67.500 159 C 66.333 159, 66 160.333, 66 165 C 66 169.667, 66.333 171, 67.500 171 C 68.500 171, 69 172, 69 174 C 69 176.333, 69.444 177, 71 177 C 72.111 177, 73 176.333, 73 175.500 C 73 174.667, 73.889 174, 75 174 C 76.852 174, 77 173.333, 77 165 L 77 156 73 156 C 70.111 156, 69 156.417, 69 157.500" stroke="none" fill="black" fill-rule="evenodd"/>
</svg>