<svg xmlns="http://www.w3.org/2000/svg" width="300" height="300" viewBox="0 0 300 300" version="1.1">
	<path d="M 164 43.500 C 164 44.325, 163.156 45, 162.125 45 C 159.555 45, 159 48.483, 159 64.625 C 159 75.847, 158.759 78, 157.500 78 C 156.278 78, 156 79.667, 156 87 L 156 96 150.500 96 C 146.484 96, 145 96.373, 145 97.383 C 145 98.899, 142.032 99.965, 137.750 99.986 C 135.978 99.995, 135 100.534, 135 101.500 C 135 102.742, 133.111 103, 124 103 C 114.889 103, 113 102.742, 113 101.500 C 113 100.675, 113.635 100, 114.412 100 C 115.280 100, 116.085 98.459, 116.500 96 C 116.915 93.541, 117.720 92, 118.588 92 C 119.535 92, 120 90.848, 120 88.500 C 120 86.197, 120.470 85, 121.375 85 C 122.746 85, 124 80.880, 124 76.375 C 124 74.931, 124.588 74, 125.500 74 C 126.548 74, 127 72.944, 127 70.500 C 127 67.667, 127.381 67, 129 67 C 130.100 67, 131 66.377, 131 65.617 C 131 64.856, 131.959 63.982, 133.132 63.676 C 134.793 63.241, 135.127 62.608, 134.646 60.809 C 134.306 59.539, 134.021 57.263, 134.014 55.750 C 134 53.085, 133.830 53, 128.500 53 L 123 53 123 56.500 C 123 58.944, 122.548 60, 121.500 60 C 120.452 60, 120 61.056, 120 63.500 C 120 65.803, 119.530 67, 118.625 67 C 117.254 67, 116 71.120, 116 75.625 C 116 76.969, 115.405 78, 114.630 78 C 113.742 78, 113.076 79.635, 112.736 82.651 C 112.420 85.449, 111.572 87.660, 110.606 88.201 C 109.615 88.755, 109 90.421, 109 92.550 C 109 94.827, 108.528 96, 107.611 96 C 106.816 96, 105.942 97.495, 105.566 99.500 C 105.173 101.595, 104.325 103, 103.455 103 C 102.358 103, 102 104.354, 102 108.500 L 102 114 116 114 C 127.464 114, 130 113.741, 130 112.572 C 130 111.591, 131.722 110.929, 135.500 110.457 C 138.887 110.034, 141 109.286, 141 108.512 C 141 107.727, 142.957 107.066, 146.208 106.754 C 149.072 106.479, 151.584 105.747, 151.791 105.127 C 152.381 103.357, 159 103.700, 159 105.500 C 159 106.325, 158.325 107, 157.500 107 C 156.310 107, 156 108.444, 156 114 L 156 121 147 121 C 140.004 121, 138 121.308, 138 122.383 C 138 124.241, 134.848 124.970, 126.750 124.986 C 121.676 124.997, 120 125.344, 120 126.383 C 120 127.144, 119.069 128.010, 117.931 128.308 C 116.271 128.742, 115.925 129.506, 116.181 132.174 L 116.500 135.500 125.333 135.790 C 133.509 136.059, 134.206 135.928, 134.700 134.040 C 135.183 132.191, 136.019 132, 143.617 132 C 150.402 132, 152 131.714, 152 130.500 C 152 129.614, 152.922 128.995, 154.250 128.989 C 155.488 128.983, 158.188 128.699, 160.250 128.358 C 163.604 127.804, 164 127.963, 164 129.869 C 164 131.333, 163.374 132, 162 132 C 160.889 132, 160 132.667, 160 133.500 C 160 134.333, 159.111 135, 158 135 C 156.667 135, 156 135.667, 156 137 C 156 138.333, 155.333 139, 154 139 C 152.900 139, 152 139.655, 152 140.455 C 152 141.325, 150.595 142.173, 148.500 142.566 C 146.575 142.927, 145 143.795, 145 144.495 C 145 145.194, 144.100 146.002, 143 146.290 C 141.900 146.577, 141 147.530, 141 148.406 C 141 149.561, 140.036 150, 137.500 150 C 134.667 150, 134 150.381, 134 152 C 134 153.111, 133.333 154, 132.500 154 C 131.675 154, 131 154.675, 131 155.500 C 131 156.548, 129.944 157, 127.500 157 C 124.667 157, 124 157.381, 124 159 C 124 160.333, 123.333 161, 122 161 C 120.889 161, 120 161.667, 120 162.500 C 120 163.621, 118.799 164.003, 115.250 164.014 C 107.902 164.035, 106.002 164.825, 105.986 167.867 C 105.952 174.406, 105.312 175, 98.290 175 C 92.654 175, 91.745 175.260, 91.290 177 C 90.897 178.503, 89.926 179, 87.383 179 C 85.043 179, 84 179.462, 84 180.500 C 84 181.555, 82.934 182, 80.406 182 C 77.654 182, 76.690 182.468, 76.290 184 C 75.836 185.737, 74.926 186, 69.383 186 C 64.553 186, 63 186.343, 63 187.412 C 63 188.280, 61.459 189.085, 59 189.500 C 56.730 189.884, 55 190.738, 55 191.477 C 55 192.192, 53.425 193.073, 51.500 193.434 C 48.050 194.081, 46.413 197, 49.500 197 C 50.325 197, 51 197.623, 51 198.383 C 51 200.183, 55.287 200.974, 61.250 200.277 C 64.317 199.918, 66 199.239, 66 198.361 C 66 197.612, 66.900 197, 68 197 C 69.100 197, 70 196.345, 70 195.545 C 70 194.675, 71.405 193.827, 73.500 193.434 C 75.425 193.073, 77 192.203, 77 191.500 C 77 190.797, 78.575 189.927, 80.500 189.566 C 82.595 189.173, 84 188.325, 84 187.455 C 84 186.424, 85.166 186, 88 186 C 90.889 186, 92 185.583, 92 184.500 C 92 183.675, 92.675 183, 93.500 183 C 94.325 183, 95 183.675, 95 184.500 C 95 185.548, 96.056 186, 98.500 186 C 100.813 186, 102 185.531, 102 184.617 C 102 183.041, 105 182.034, 109.750 182.014 C 112.338 182.003, 113 182.407, 113 184 C 113 185.100, 113.623 186, 114.383 186 C 115.144 186, 116.002 186.900, 116.290 188 C 116.577 189.100, 117.530 190, 118.406 190 C 119.561 190, 120 190.964, 120 193.500 C 120 196.333, 120.381 197, 122 197 C 123.111 197, 124 197.667, 124 198.500 C 124 199.325, 124.675 200, 125.500 200 C 126.333 200, 127 200.889, 127 202 C 127 203.333, 127.667 204, 129 204 C 130.333 204, 131 204.667, 131 206 C 131 207.111, 131.667 208, 132.500 208 C 133.548 208, 134 209.056, 134 211.500 C 134 214.917, 134.095 215, 138 215 C 141.925 215, 142 214.932, 142 211.406 C 142 208.654, 141.532 207.690, 140 207.290 C 138.900 207.002, 138 206.144, 138 205.383 C 138 204.623, 137.345 204, 136.545 204 C 135.675 204, 134.827 202.595, 134.434 200.500 C 134.058 198.495, 133.184 197, 132.389 197 C 131.625 197, 131 196.100, 131 195 C 131 193.900, 130.377 193, 129.617 193 C 128.331 193, 127.045 190.160, 127.014 187.250 C 127.005 186.456, 128.459 186, 131 186 C 133.889 186, 135 185.583, 135 184.500 C 135 183.675, 135.675 183, 136.500 183 C 137.333 183, 138 182.111, 138 181 C 138 179.667, 138.667 179, 140 179 C 141.333 179, 142 178.333, 142 177 C 142 175.381, 142.667 175, 145.500 175 C 147.944 175, 149 174.548, 149 173.500 C 149 172.452, 150.056 172, 152.500 172 C 155.333 172, 156 171.619, 156 170 C 156 168.148, 156.667 168, 165 168 C 172.333 168, 174 167.722, 174 166.500 C 174 165.403, 175.142 164.998, 178.250 164.994 C 188.859 164.979, 199 163.688, 199 162.352 C 199 161.474, 200.226 161, 202.500 161 C 205.833 161, 206 161.167, 206 164.500 C 206 166.944, 205.548 168, 204.500 168 C 203.452 168, 203 169.056, 203 171.500 C 203 173.944, 203.452 175, 204.500 175 C 205.333 175, 206 175.889, 206 177 C 206 178.111, 205.333 179, 204.500 179 C 203.222 179, 203 181.667, 203 197 C 203 214.333, 202.926 215, 201 215 C 199.889 215, 199 215.667, 199 216.500 C 199 217.333, 199.889 218, 201 218 C 202.333 218, 203 218.667, 203 220 C 203 221.111, 203.667 222, 204.500 222 C 205.333 222, 206 222.889, 206 224 C 206 225.111, 205.333 226, 204.500 226 C 203.452 226, 203 227.056, 203 229.500 C 203 231.944, 203.452 233, 204.500 233 C 205.711 233, 206.003 234.589, 206.014 241.250 C 206.033 252.779, 206.474 254, 210.617 254 L 214 254 214 238 L 214 222 221 222 C 226.459 222, 228 221.680, 228 220.545 C 228 219.675, 229.405 218.827, 231.500 218.434 C 233.505 218.058, 235 217.184, 235 216.389 C 235 215.625, 235.900 215, 237 215 C 238.100 215, 239 214.345, 239 213.545 C 239 212.675, 240.405 211.827, 242.500 211.434 C 245.033 210.959, 246 210.255, 246 208.889 C 246 207.850, 246.639 207, 247.421 207 C 248.202 207, 249.138 205.650, 249.500 204 C 249.862 202.350, 250.798 201, 251.579 201 C 252.543 201, 253 199.845, 253 197.406 C 253 194.654, 253.468 193.690, 255 193.290 C 256.883 192.797, 257 191.926, 257 178.383 C 257 166.265, 256.764 164, 255.500 164 C 254.675 164, 254 163.325, 254 162.500 C 254 161.417, 252.889 161, 250 161 C 246.667 161, 246 160.667, 246 159 C 246 157.190, 245.333 157, 239 157 C 233.444 157, 232 156.690, 232 155.500 C 232 153.945, 226.489 153.501, 209.500 153.687 C 181.388 153.996, 182 153.955, 182 155.500 C 182 156.723, 180.323 157, 172.906 157 C 164.654 157, 163.764 157.185, 163.290 159 C 162.848 160.688, 161.926 161, 157.383 161 C 153.265 161, 152 161.352, 152 162.500 C 152 163.548, 150.944 164, 148.500 164 C 145.667 164, 145 164.381, 145 166 C 145 167.619, 144.333 168, 141.500 168 C 139.104 168, 138 168.459, 138 169.455 C 138 170.325, 136.595 171.173, 134.500 171.566 C 131.960 172.043, 131 172.743, 131 174.121 C 131 175.165, 130.100 176.790, 129 177.732 C 127.900 178.674, 127 180.244, 127 181.222 C 127 182.200, 126.325 183, 125.500 183 C 124.667 183, 124 182.111, 124 181 C 124 179.667, 123.333 179, 122 179 C 120.333 179, 120 178.333, 120 175 C 120 172.111, 120.417 171, 121.500 171 C 122.325 171, 123 170.325, 123 169.500 C 123 168.667, 123.889 168, 125 168 C 126.100 168, 127 167.375, 127 166.611 C 127 165.816, 128.495 164.942, 130.500 164.566 C 132.595 164.173, 134 163.325, 134 162.455 C 134 161.655, 134.900 161, 136 161 C 137.333 161, 138 160.333, 138 159 C 138 157.667, 138.667 157, 140 157 C 141.100 157, 142 156.375, 142 155.611 C 142 154.816, 143.495 153.942, 145.500 153.566 C 147.595 153.173, 149 152.325, 149 151.455 C 149 150.655, 149.900 150, 151 150 C 152.100 150, 153 149.361, 153 148.579 C 153 147.798, 154.350 146.862, 156 146.500 C 157.650 146.138, 159 145.202, 159 144.421 C 159 143.639, 159.900 143, 161 143 C 162.163 143, 163 142.333, 163 141.406 C 163 140.530, 163.900 139.577, 165 139.290 C 166.100 139.002, 167 138.194, 167 137.495 C 167 136.795, 168.575 135.927, 170.500 135.566 C 172.595 135.173, 174 134.325, 174 133.455 C 174 132.468, 175.089 132, 177.383 132 C 179.926 132, 180.897 131.503, 181.290 130 C 181.577 128.900, 182.530 128, 183.406 128 C 184.283 128, 185 127.325, 185 126.500 C 185 125.667, 185.889 125, 187 125 C 188.100 125, 189 124.361, 189 123.579 C 189 122.798, 190.304 121.872, 191.898 121.522 C 194.912 120.860, 195.961 118.866, 195.986 113.750 C 196 111.054, 195.882 111, 190 111 C 185.333 111, 184 111.333, 184 112.500 C 184 113.690, 182.556 114, 177 114 C 171.444 114, 170 114.310, 170 115.500 C 170 116.548, 168.944 117, 166.500 117 C 163.309 117, 163 116.745, 163 114.117 C 163 112.074, 163.583 111.081, 165 110.710 C 166.662 110.276, 167 109.346, 167 105.210 C 167 101.074, 167.338 100.145, 169 99.710 C 170.100 99.423, 171 98.470, 171 97.594 C 171 96.439, 171.964 96, 174.500 96 C 176.896 96, 178 95.541, 178 94.545 C 178 93.675, 179.405 92.827, 181.500 92.434 C 183.505 92.058, 185 91.184, 185 90.389 C 185 89.625, 185.900 89, 187 89 C 188.111 89, 189 88.333, 189 87.500 C 189 86.675, 189.675 86, 190.500 86 C 191.633 86, 192 87.222, 192 91 L 192 96 197.500 96 L 203 96 203 92.500 C 203 90.056, 203.452 89, 204.500 89 C 205.742 89, 206 87.111, 206 78 C 206 68.889, 205.742 67, 204.500 67 C 203.310 67, 203 65.556, 203 60 C 203 53.667, 202.810 53, 201 53 C 199.667 53, 199 52.333, 199 51 C 199 49.381, 198.333 49, 195.500 49 C 192.083 49, 192 49.095, 192 53 C 192 55.889, 191.583 57, 190.500 57 C 189.675 57, 189 57.675, 189 58.500 C 189 59.325, 189.675 60, 190.500 60 C 191.652 60, 192 61.278, 192 65.500 C 192 69.722, 192.348 71, 193.500 71 C 194.325 71, 195 71.675, 195 72.500 C 195 73.325, 194.325 74, 193.500 74 C 192.667 74, 192 74.889, 192 76 C 192 77.333, 191.333 78, 190 78 C 188.900 78, 188 78.655, 188 79.455 C 188 80.325, 186.595 81.173, 184.500 81.566 C 182.495 81.942, 181 82.816, 181 83.611 C 181 84.532, 179.820 85, 177.500 85 C 174.667 85, 174 85.381, 174 87 C 174 88.619, 173.333 89, 170.500 89 L 167 89 167 76.500 C 167 66.409, 167.272 64, 168.410 64 C 169.457 64, 170.001 61.829, 170.521 55.584 C 171.280 46.484, 170.918 45, 167.941 45 C 166.873 45, 166 44.325, 166 43.500 C 166 42.675, 165.550 42, 165 42 C 164.450 42, 164 42.675, 164 43.500 M 52 112.500 C 52 113.583, 50.889 114, 48 114 C 44.095 114, 44 114.083, 44 117.500 C 44 120.333, 44.381 121, 46 121 C 47.100 121, 48 121.623, 48 122.383 C 48 124.399, 51.243 124.971, 62.750 124.986 L 73 125 73 128.500 C 73 131.833, 73.167 132, 76.500 132 C 79.833 132, 80 131.833, 80 128.500 C 80 126.056, 79.548 125, 78.500 125 C 77.667 125, 77 124.111, 77 123 C 77 121.667, 76.333 121, 75 121 C 73.900 121, 73 120.345, 73 119.545 C 73 118.675, 71.595 117.827, 69.500 117.434 C 67.495 117.058, 66 116.184, 66 115.389 C 66 114.372, 64.526 114, 60.500 114 C 56.278 114, 55 113.652, 55 112.500 C 55 111.675, 54.325 111, 53.500 111 C 52.675 111, 52 111.675, 52 112.500 M 68.250 146.737 C 64.503 146.999, 63 147.519, 63 148.552 C 63 149.655, 61.570 150, 57 150 C 52.416 150, 51 150.343, 51 151.455 C 51 152.325, 49.595 153.173, 47.500 153.566 C 44.318 154.163, 44 154.530, 44 157.611 C 44 160.898, 44.120 161, 48 161 C 50.889 161, 52 161.417, 52 162.500 C 52 163.548, 53.056 164, 55.500 164 C 57.944 164, 59 163.548, 59 162.500 C 59 161.675, 59.623 161, 60.383 161 C 61.144 161, 62.002 160.100, 62.290 159 C 62.771 157.159, 63.654 157, 73.406 157 L 84 157 84 160.500 C 84 162.944, 84.452 164, 85.500 164 C 86.333 164, 87 164.889, 87 166 C 87 167.333, 87.667 168, 89 168 C 90.852 168, 91 167.333, 91 159 C 91 150.667, 90.852 150, 89 150 C 87.900 150, 87 149.377, 87 148.617 C 87 146.146, 82.764 145.722, 68.250 146.737 M 215.897 164.661 C 214.510 165.032, 214.199 168.300, 213.581 189.034 C 213.189 202.203, 213.149 213.433, 213.493 213.989 C 213.837 214.545, 216.289 215, 218.942 215 C 222.926 215, 223.858 214.651, 224.290 213 C 224.690 211.468, 225.654 211, 228.406 211 C 230.934 211, 232 210.555, 232 209.500 C 232 208.675, 232.675 208, 233.500 208 C 234.333 208, 235 207.111, 235 206 C 235 204.667, 235.667 204, 237 204 C 238.111 204, 239 203.333, 239 202.500 C 239 201.675, 239.675 201, 240.500 201 C 241.333 201, 242 200.111, 242 199 C 242 197.667, 242.667 197, 244 197 C 245.667 197, 246 196.333, 246 193 C 246 190.111, 246.417 189, 247.500 189 C 248.716 189, 249 187.389, 249 180.500 C 249 173.611, 248.716 172, 247.500 172 C 246.667 172, 246 171.111, 246 170 C 246 168.267, 245.333 168, 241 168 C 237.424 168, 236 167.608, 236 166.625 C 236 165.869, 234.594 164.969, 232.875 164.625 C 229.480 163.946, 218.482 163.969, 215.897 164.661 M 166 173.500 C 166 174.325, 165.325 175, 164.500 175 C 163.229 175, 163 177.455, 163 191.094 C 163 206.346, 163.105 207.215, 165 207.710 C 166.107 208, 167 209.074, 167 210.117 C 167 211.152, 167.675 212, 168.500 212 C 169.325 212, 170 212.675, 170 213.500 C 170 214.701, 171.507 215, 177.560 215 L 185.121 215 184.810 211.250 L 184.500 207.500 179.250 207.638 L 174 207.775 174 198.388 C 174 190.710, 174.273 189, 175.500 189 C 176.325 189, 177 188.325, 177 187.500 C 177 186.675, 176.325 186, 175.500 186 C 174.348 186, 174 184.722, 174 180.500 C 174 176.278, 173.652 175, 172.500 175 C 171.675 175, 171 174.325, 171 173.500 C 171 172.567, 170.056 172, 168.500 172 C 166.944 172, 166 172.567, 166 173.500 M 135 191.500 C 135 192.325, 135.675 193, 136.500 193 C 137.325 193, 138 192.325, 138 191.500 C 138 190.675, 137.325 190, 136.500 190 C 135.675 190, 135 190.675, 135 191.500" stroke="none" fill="black" fill-rule="evenodd"/>
</svg>