<svg xmlns="http://www.w3.org/2000/svg" width="300" height="300" viewBox="0 0 300 300" version="1.1">
	<path d="M 204 43.383 C 204 44.144, 203.100 45.002, 202 45.290 C 200.803 45.603, 200 46.654, 200 47.906 C 200 49.101, 199.356 50, 198.500 50 C 197.452 50, 197 51.056, 197 53.500 C 197 55.813, 196.531 57, 195.617 57 C 194.101 57, 193.035 59.968, 193.014 64.250 C 193.005 65.923, 192.456 67, 191.611 67 C 190.816 67, 189.942 68.495, 189.566 70.500 C 189.173 72.595, 188.325 74, 187.455 74 C 186.424 74, 186 75.166, 186 78 C 186 80.834, 185.576 82, 184.545 82 C 183.675 82, 182.827 83.405, 182.434 85.500 C 182.058 87.505, 181.184 89, 180.389 89 C 179.468 89, 179 90.180, 179 92.500 C 179 94.896, 178.541 96, 177.545 96 C 176.675 96, 175.827 97.405, 175.434 99.500 C 175.073 101.425, 174.209 103, 173.514 103 C 171.966 103, 170.791 108.318, 171.614 111.598 C 172.148 113.725, 172.778 114, 177.108 114 L 182 114 182.014 109.250 C 182.031 103.077, 182.897 100, 184.617 100 C 185.522 100, 186 98.831, 186 96.617 C 186 94.074, 186.497 93.103, 188 92.710 C 189.456 92.329, 190 91.346, 190 89.094 C 190 87.010, 190.490 86, 191.500 86 C 192.583 86, 193 84.889, 193 82 C 193 78.667, 193.333 78, 195 78 C 196.619 78, 197 77.333, 197 74.500 C 197 72.180, 197.468 71, 198.389 71 C 199.184 71, 200.058 69.505, 200.434 67.500 C 200.827 65.405, 201.675 64, 202.545 64 C 203.538 64, 204 62.902, 204 60.545 C 204 57.407, 204.312 57.032, 207.408 56.451 C 211.410 55.700, 212.133 53.922, 211.299 46.878 C 210.736 42.123, 210.637 42, 207.361 42 C 205.166 42, 204 42.480, 204 43.383 M 110 54.500 C 110 55.771, 107.556 56, 94 56 C 78.667 56, 78 56.083, 78 58 C 78 59.619, 77.333 60, 74.500 60 L 71 60 71 90.389 L 71 120.777 67.597 121.416 C 65.725 121.767, 63.939 122.717, 63.628 123.527 C 63.188 124.674, 61.063 125, 54.031 125 C 46.670 125, 45 125.277, 45 126.500 C 45 127.325, 44.325 128, 43.500 128 C 42.417 128, 42 129.111, 42 132 L 42 136 49.875 136 C 59.568 136, 64 135.176, 64 133.375 C 64 132.470, 65.197 132, 67.500 132 L 71 132 71 151.500 C 71 168.167, 71.218 171, 72.500 171 C 73.325 171, 74 171.848, 74 172.883 C 74 175.184, 77.026 175.896, 83.972 175.229 C 88.920 174.753, 89 174.692, 89 171.373 C 89 168.105, 88.876 168, 85 168 L 81 168 81 159.156 C 81 154.291, 81.290 145.569, 81.645 139.773 L 82.290 129.235 91.145 128.543 C 97.818 128.021, 100 127.499, 100 126.425 C 100 125.297, 101.877 125, 109 125 L 118 125 118 141 C 118 153.928, 118.265 157, 119.378 157 C 120.473 157, 120.843 160.214, 121.176 172.597 C 121.535 185.970, 121.838 188.330, 123.297 189.147 C 124.234 189.671, 125 190.752, 125 191.550 C 125 192.623, 126.298 193, 130 193 C 133.778 193, 135 192.633, 135 191.500 C 135 190.675, 134.325 190, 133.500 190 C 132.348 190, 132 188.722, 132 184.500 C 132 180.278, 131.652 179, 130.500 179 C 129.358 179, 128.999 177.748, 128.995 173.750 C 128.983 159.727, 127.673 146, 126.347 146 C 125.303 146, 125 143.637, 125 135.500 C 125 127.227, 125.293 125, 126.383 125 C 127.144 125, 128.002 124.100, 128.290 123 C 128.726 121.330, 129.654 121, 133.906 121 C 137.767 121, 139 120.637, 139 119.500 C 139 118.308, 140.455 118, 146.094 118 C 152.346 118, 153.249 117.763, 153.710 116 C 154.103 114.497, 155.074 114, 157.617 114 C 160.862 114, 160.999 113.847, 160.985 110.250 C 160.966 105.605, 160.194 104.338, 156.876 103.505 C 154.782 102.979, 154.166 103.257, 153.730 104.926 C 153.270 106.682, 152.407 107, 148.094 107 C 144.233 107, 143 107.363, 143 108.500 C 143 109.692, 141.545 110, 135.906 110 C 129.654 110, 128.751 110.237, 128.290 112 C 128.002 113.100, 127.186 114, 126.477 114 C 125.532 114, 125.095 111.307, 124.844 103.928 C 124.560 95.604, 124.196 93.687, 122.750 92.879 C 121.229 92.029, 121 90.268, 121 79.450 C 121 69.050, 120.753 67, 119.500 67 C 117.274 67, 117.682 64.316, 120 63.710 C 121.100 63.423, 122 62.470, 122 61.594 C 122 58.583, 123.910 60.002, 124.566 63.500 C 125.163 66.682, 125.530 67, 128.611 67 C 130.830 67, 132 66.522, 132 65.617 C 132 64.856, 132.900 63.998, 134 63.710 C 135.670 63.274, 136 62.346, 136 58.094 L 136 53 123 53 C 112.111 53, 110 53.244, 110 54.500 M 96 65.500 C 96 66.344, 95.106 67, 93.957 67 C 92.210 67, 91.956 67.544, 92.207 70.750 L 92.500 74.500 88.750 74.207 C 85.544 73.956, 85 74.210, 85 75.957 C 85 77.081, 84.392 78, 83.648 78 C 82.217 78, 81.018 88.327, 81.006 100.750 C 81.001 105.636, 80.673 107, 79.500 107 C 78.310 107, 78 108.444, 78 114 L 78 121 87 121 C 93.970 121, 96 120.690, 96 119.625 C 96 118.052, 100.259 117, 106.625 117 C 109.847 117, 111 116.605, 111 115.500 C 111 114.500, 112 114, 114 114 C 116.762 114, 117 113.722, 117 110.500 C 117 108.056, 116.548 107, 115.500 107 C 114.278 107, 114 105.333, 114 98 C 114 90.981, 113.694 89, 112.609 89 C 111.550 89, 111.048 86.382, 110.500 78 C 109.952 69.618, 109.450 67, 108.391 67 C 107.626 67, 107 66.325, 107 65.500 C 107 64.348, 105.722 64, 101.500 64 C 97.278 64, 96 64.348, 96 65.500 M 237 79.594 C 237 80.470, 236.100 81.423, 235 81.710 C 233.888 82.001, 233 83.074, 233 84.126 C 233 85.168, 232.100 86.790, 231 87.732 C 229.900 88.674, 229 90.244, 229 91.222 C 229 92.200, 228.325 93, 227.500 93 C 226.675 93, 226 93.675, 226 94.500 C 226 95.333, 225.111 96, 224 96 C 222.381 96, 222 96.667, 222 99.500 C 222 101.848, 221.535 103, 220.588 103 C 219.720 103, 218.915 104.541, 218.500 107 C 218.085 109.459, 217.280 111, 216.412 111 C 215.510 111, 215 112.083, 215 114 C 215 116.078, 214.510 117, 213.406 117 C 212.530 117, 211.577 117.900, 211.290 119 C 211.002 120.100, 210.194 121, 209.495 121 C 208.795 121, 207.927 122.575, 207.566 124.500 C 207.173 126.595, 206.325 128, 205.455 128 C 204.655 128, 204 128.900, 204 130 C 204 131.100, 203.345 132, 202.545 132 C 201.675 132, 200.827 133.405, 200.434 135.500 C 200.058 137.505, 199.184 139, 198.389 139 C 197.625 139, 197 139.900, 197 141 C 197 142.333, 196.333 143, 195 143 C 193.381 143, 193 143.667, 193 146.500 C 193 148.813, 192.531 150, 191.617 150 C 190.041 150, 189.034 153, 189.014 157.750 C 189.001 160.877, 189.151 161, 193 161 C 196.905 161, 197 160.917, 197 157.500 C 197 155.056, 197.452 154, 198.500 154 C 199.333 154, 200 153.111, 200 152 C 200 150.667, 200.667 150, 202 150 C 203.619 150, 204 149.333, 204 146.500 C 204 143.667, 204.381 143, 206 143 C 207.333 143, 208 142.333, 208 141 C 208 139.889, 208.667 139, 209.500 139 C 210.548 139, 211 137.944, 211 135.500 C 211 132.667, 211.381 132, 213 132 C 214.619 132, 215 131.333, 215 128.500 C 215 125.667, 215.381 125, 217 125 C 218.333 125, 219 124.333, 219 123 C 219 121.889, 219.667 121, 220.500 121 C 221.333 121, 222 120.111, 222 119 C 222 117.900, 222.655 117, 223.455 117 C 224.325 117, 225.173 115.595, 225.566 113.500 C 225.927 111.575, 226.797 110, 227.500 110 C 228.203 110, 229.073 108.425, 229.434 106.500 C 229.827 104.405, 230.675 103, 231.545 103 C 232.345 103, 233 102.325, 233 101.500 C 233 100.675, 233.625 100, 234.389 100 C 235.184 100, 236.058 98.505, 236.434 96.500 C 236.827 94.405, 237.675 93, 238.545 93 C 239.345 93, 240 92.150, 240 91.111 C 240 89.745, 240.967 89.041, 243.500 88.566 C 246.941 87.920, 247 87.825, 247 82.955 L 247 78 242 78 C 238.092 78, 237 78.348, 237 79.594 M 247 126.500 C 247 127.325, 246.381 128, 245.625 128 C 244.254 128, 243 132.120, 243 136.625 C 243 138.069, 242.412 139, 241.500 139 C 240.462 139, 240 140.043, 240 142.383 C 240 144.926, 239.503 145.897, 238 146.290 C 236.468 146.690, 236 147.654, 236 150.406 C 236 152.934, 235.555 154, 234.500 154 C 233.452 154, 233 155.056, 233 157.500 C 233 160.333, 232.619 161, 231 161 C 229.381 161, 229 161.667, 229 164.500 C 229 166.944, 228.548 168, 227.500 168 C 226.675 168, 226 168.717, 226 169.594 C 226 170.470, 225.100 171.423, 224 171.710 C 222.497 172.103, 222 173.074, 222 175.617 C 222 178.333, 221.606 179, 220 179 C 218.667 179, 218 179.667, 218 181 C 218 182.111, 217.333 183, 216.500 183 C 215.490 183, 215 184.010, 215 186.094 C 215 188.346, 214.456 189.329, 213 189.710 C 211.497 190.103, 211 191.074, 211 193.617 C 211 195.831, 210.522 197, 209.617 197 C 208.856 197, 207.998 197.900, 207.710 199 C 207.423 200.100, 206.470 201, 205.594 201 C 204.717 201, 204 201.675, 204 202.500 C 204 203.325, 203.375 204, 202.611 204 C 201.816 204, 200.942 205.495, 200.566 207.500 C 200.173 209.595, 199.325 211, 198.455 211 C 197.655 211, 197 211.900, 197 213 C 197 214.333, 196.333 215, 195 215 C 193.381 215, 193 215.667, 193 218.500 C 193 221.333, 192.619 222, 191 222 C 189.889 222, 189 222.667, 189 223.500 C 189 224.325, 188.325 225, 187.500 225 C 186.667 225, 186 225.889, 186 227 C 186 228.111, 185.333 229, 184.500 229 C 183.675 229, 183 229.717, 183 230.594 C 183 231.470, 182.100 232.423, 181 232.710 C 179.900 232.998, 179 233.898, 179 234.710 C 179 235.523, 178.100 236.423, 177 236.710 C 175.900 236.998, 175 237.856, 175 238.617 C 175 239.377, 174.325 240, 173.500 240 C 172.675 240, 172 240.717, 172 241.594 C 172 242.470, 171.100 243.423, 170 243.710 C 168.900 243.998, 168 244.856, 168 245.617 C 168 246.531, 166.813 247, 164.500 247 C 161.667 247, 161 247.381, 161 249 C 161 250.667, 160.333 251, 157 251 C 153.095 251, 153 251.083, 153 254.500 C 153 257.567, 153.310 258, 155.500 258 C 156.951 258, 158 257.425, 158 256.629 C 158 255.739, 159.754 255.025, 163 254.594 C 166.212 254.168, 168 253.447, 168 252.577 C 168 251.821, 169.546 250.933, 171.500 250.566 C 173.595 250.173, 175 249.325, 175 248.455 C 175 247.655, 175.900 247, 177 247 C 178.100 247, 179 246.377, 179 245.617 C 179 244.856, 179.900 243.998, 181 243.710 C 182.100 243.423, 183 242.470, 183 241.594 C 183 240.717, 183.675 240, 184.500 240 C 185.333 240, 186 239.111, 186 238 C 186 236.667, 186.667 236, 188 236 C 189.111 236, 190 235.333, 190 234.500 C 190 233.675, 190.675 233, 191.500 233 C 192.333 233, 193 232.111, 193 231 C 193 229.667, 193.667 229, 195 229 C 196.333 229, 197 228.333, 197 227 C 197 225.900, 197.639 225, 198.421 225 C 199.202 225, 200.138 223.650, 200.500 222 C 200.862 220.350, 201.798 219, 202.579 219 C 203.361 219, 204 218.100, 204 217 C 204 215.837, 204.667 215, 205.594 215 C 206.470 215, 207.423 214.100, 207.710 213 C 207.998 211.900, 208.806 211, 209.505 211 C 210.205 211, 211.073 209.425, 211.434 207.500 C 211.827 205.405, 212.675 204, 213.545 204 C 214.345 204, 215 203.100, 215 202 C 215 200.889, 215.667 200, 216.500 200 C 217.325 200, 218 199.283, 218 198.406 C 218 197.530, 218.900 196.577, 220 196.290 C 221.503 195.897, 222 194.926, 222 192.383 C 222 190.127, 222.473 189, 223.421 189 C 224.202 189, 225.138 187.650, 225.500 186 C 225.862 184.350, 226.798 183, 227.579 183 C 228.361 183, 229 182.152, 229 181.117 C 229 180.074, 229.893 179, 231 178.710 C 232.456 178.329, 233 177.346, 233 175.094 C 233 173.010, 233.490 172, 234.500 172 C 235.333 172, 236 171.111, 236 170 C 236 168.667, 236.667 168, 238 168 C 239.667 168, 240 167.333, 240 164 C 240 161.166, 240.424 160, 241.455 160 C 242.325 160, 243.173 158.595, 243.566 156.500 C 243.942 154.495, 244.816 153, 245.611 153 C 246.532 153, 247 151.820, 247 149.500 C 247 147.104, 247.459 146, 248.455 146 C 249.325 146, 250.173 144.595, 250.566 142.500 C 250.927 140.575, 251.797 139, 252.500 139 C 253.203 139, 254.073 137.425, 254.434 135.500 C 254.827 133.405, 255.675 132, 256.545 132 C 257.541 132, 258 130.896, 258 128.500 L 258 125 252.500 125 C 248.278 125, 247 125.348, 247 126.500" stroke="none" fill="black" fill-rule="evenodd"/>
</svg>