<svg xmlns="http://www.w3.org/2000/svg" width="300" height="300" viewBox="0 0 300 300" version="1.1">
	<path d="M 128 46.500 C 128 47.690, 126.556 48, 121 48 C 115.707 48, 114 48.337, 114 49.383 C 114 50.144, 113.100 51.002, 112 51.290 C 110.528 51.675, 110 52.654, 110 55 C 110 57.346, 110.528 58.325, 112 58.710 C 113.100 58.998, 114 59.856, 114 60.617 C 114 61.377, 114.675 62, 115.500 62 C 116.325 62, 117 61.325, 117 60.500 C 117 59.417, 118.111 59, 121 59 C 124.333 59, 125 58.667, 125 57 C 125 55.062, 125.667 55, 146.500 55 C 164.139 55, 168 55.248, 168 56.383 C 168 57.144, 168.900 58.002, 170 58.290 C 171.100 58.577, 172 59.530, 172 60.406 C 172 61.561, 172.964 62, 175.500 62 L 179 62 179 56.500 C 179 52.278, 178.652 51, 177.500 51 C 176.675 51, 176 50.325, 176 49.500 C 176 48.292, 174.444 48, 168 48 C 161.556 48, 160 47.708, 160 46.500 C 160 45.229, 157.556 45, 144 45 C 130.444 45, 128 45.229, 128 46.500 M 125 60.500 C 125 61.333, 124.111 62, 123 62 C 121.381 62, 121 62.667, 121 65.500 C 121 67.774, 120.526 69, 119.648 69 C 118.287 69, 117.020 79.191, 117.006 90.250 C 117.002 93.803, 116.622 95, 115.500 95 C 114.213 95, 114 98.056, 114 116.500 L 114 138 106.500 138 C 100.791 138, 99 138.329, 99 139.380 C 99 140.441, 96.112 140.926, 86.500 141.480 C 77.314 142.010, 74 142.544, 74 143.495 C 74 144.416, 71.674 144.894, 65.924 145.155 C 59.543 145.445, 57.643 145.887, 56.874 147.261 C 56.243 148.389, 54.688 149, 52.450 149 L 49 149 49 154.500 L 49 160 52.594 160 C 55.346 160, 56.310 159.532, 56.710 158 C 57.103 156.497, 58.074 156, 60.617 156 C 62.821 156, 64 155.521, 64 154.625 C 64 153.096, 68.228 152, 74.125 152 C 76.903 152, 78 151.575, 78 150.500 C 78 149.303, 79.483 149, 85.344 149 C 89.384 149, 97.484 148.707, 103.344 148.348 L 114 147.696 114 178.848 C 114 204.706, 113.765 210, 112.616 210 C 111.126 210, 109.287 222.037, 110.482 223.972 C 111.185 225.108, 115.263 225.304, 118.750 224.370 C 120.444 223.916, 121 223.032, 121 220.790 C 121 218.654, 121.565 217.665, 123 217.290 C 124.811 216.816, 125 215.926, 125 207.883 C 125 199.629, 124.857 199, 122.974 199 C 120.986 199, 120.953 198.532, 121.224 174.002 C 121.478 150.967, 121.637 149.004, 123.250 149.002 C 124.333 149.001, 125 148.237, 125 147 C 125 145.074, 125.667 145, 143 145 C 157.659 145, 161 145.257, 161 146.383 C 161 147.669, 163.840 148.955, 166.750 148.986 C 167.438 148.994, 168 148.100, 168 147 C 168 145.667, 168.667 145, 170 145 C 171.111 145, 172 144.333, 172 143.500 C 172 142.305, 173.476 141.998, 179.250 141.991 C 190.119 141.978, 197 140.958, 197 139.361 C 197 138.472, 198.215 138, 200.500 138 C 203.333 138, 204 138.381, 204 140 C 204 141.111, 204.667 142, 205.500 142 C 206.774 142, 207 144.538, 207 158.842 C 207 184.764, 208.064 203, 209.578 203 C 210.523 203, 210.928 206.453, 211.173 216.572 C 211.454 228.248, 211.745 230.281, 213.250 231.122 C 214.655 231.907, 215 233.469, 215 239.050 L 215 246 211 246 C 208.166 246, 207 245.576, 207 244.545 C 207 243.675, 205.595 242.827, 203.500 242.434 C 201.495 242.058, 200 241.184, 200 240.389 C 200 239.625, 199.048 239, 197.883 239 C 196.176 239, 195.883 239.435, 196.370 241.250 C 196.701 242.488, 196.979 244.063, 196.986 244.750 C 196.994 245.438, 197.623 246, 198.383 246 C 199.144 246, 200.002 246.900, 200.290 248 C 200.690 249.532, 201.654 250, 204.406 250 C 206.934 250, 208 250.445, 208 251.500 C 208 252.325, 208.623 253, 209.383 253 C 210.144 253, 211.002 253.900, 211.290 255 C 211.726 256.670, 212.654 257, 216.906 257 C 220.577 257, 222 256.613, 222 255.617 C 222 254.856, 222.900 253.998, 224 253.710 C 225.718 253.261, 226 252.346, 226 247.219 C 226 239.346, 225.066 235, 223.375 235 C 222.310 235, 222 232.970, 222 226 C 222 219.118, 221.683 217, 220.652 217 C 219.310 217, 218 203.834, 218 190.344 C 218 186.260, 217.646 185, 216.500 185 C 215.209 185, 215 181.722, 215 161.500 L 215 138 228.883 138 C 241.926 138, 242.798 137.879, 243.290 136 C 243.577 134.900, 244.530 134, 245.406 134 C 246.283 134, 247 133.325, 247 132.500 C 247 131.667, 247.889 131, 249 131 C 250.333 131, 251 130.333, 251 129 C 251 127.667, 250.333 127, 249 127 C 247.889 127, 247 126.333, 247 125.500 C 247 124.667, 246.111 124, 245 124 C 243.900 124, 243 124.636, 243 125.414 C 243 126.532, 240.576 126.898, 231.428 127.164 C 221.666 127.447, 219.703 127.774, 218.878 129.250 C 218.341 130.213, 217.248 131, 216.450 131 C 215.653 131, 214.948 130.213, 214.884 129.250 C 214.820 128.287, 214.665 125.048, 214.538 122.052 C 214.411 119.013, 213.799 116.433, 213.155 116.218 C 211.552 115.684, 211.624 105.292, 213.235 104.755 C 214.037 104.488, 214.600 101.482, 214.841 96.172 L 215.212 88 209.356 87.839 C 202.774 87.657, 196.858 87.664, 186.250 87.863 C 180.774 87.967, 179 88.342, 179 89.397 C 179 90.458, 176.933 90.880, 170.430 91.147 C 163.546 91.431, 161.667 91.844, 160.880 93.250 C 160.045 94.743, 158.363 95, 149.450 95 C 140.828 95, 139 95.262, 139 96.500 C 139 97.637, 137.767 98, 133.906 98 C 129.654 98, 128.726 98.330, 128.290 100 C 128.002 101.100, 127.144 102, 126.383 102 C 125.269 102, 125 99.179, 125 87.500 C 125 75.794, 125.268 73, 126.389 73 C 127.184 73, 128.058 71.505, 128.434 69.500 C 128.827 67.405, 129.675 66, 130.545 66 C 131.345 66, 132 65.325, 132 64.500 C 132 63.452, 133.056 63, 135.500 63 C 138.333 63, 139 62.619, 139 61 C 139 59.190, 138.333 59, 132 59 C 126.444 59, 125 59.310, 125 60.500 M 196 96.500 C 196 97.732, 194.239 98, 186.147 98 C 172.172 98, 164 98.975, 164 100.642 C 164 101.685, 161.914 102, 155 102 C 147.957 102, 146 102.304, 146 103.399 C 146 104.396, 143.995 104.998, 139 105.500 C 134.005 106.002, 132 106.604, 132 107.601 C 132 108.371, 131.283 109, 130.406 109 C 129.530 109, 128.577 109.900, 128.290 111 C 128.002 112.100, 127.212 113, 126.534 113 C 125.679 113, 125.111 116.131, 124.678 123.241 C 124.335 128.873, 123.592 133.636, 123.027 133.824 C 122.462 134.013, 122 135.029, 122 136.083 C 122 137.905, 122.942 138, 141 138 L 160 138 160 134.500 C 160 132.056, 159.548 131, 158.500 131 C 157.667 131, 157 130.111, 157 129 C 157 127.667, 156.333 127, 155 127 C 153.889 127, 153 126.333, 153 125.500 C 153 124.675, 152.325 124, 151.500 124 C 150.667 124, 150 123.111, 150 122 C 150 120.381, 149.333 120, 146.500 120 C 143.667 120, 143 119.619, 143 118 C 143 116.632, 142.333 116, 140.892 116 C 139.093 116, 138.884 115.598, 139.471 113.260 C 140.383 109.626, 141.533 109.033, 147.705 109.015 C 152.865 109, 152.915 109.030, 153.566 112.500 C 153.942 114.505, 154.816 116, 155.611 116 C 156.375 116, 157 116.900, 157 118 C 157 119.333, 157.667 120, 159 120 C 160.333 120, 161 120.667, 161 122 C 161 123.111, 161.667 124, 162.500 124 C 163.325 124, 164 124.675, 164 125.500 C 164 126.333, 164.889 127, 166 127 C 167.619 127, 168 127.667, 168 130.500 L 168 134 180.500 134 C 190.944 134, 193 133.753, 193 132.500 C 193 131.348, 194.278 131, 198.500 131 L 204 131 204 113 L 204 95 200 95 C 197.111 95, 196 95.417, 196 96.500 M 157 168.500 C 157 169.325, 156.325 170, 155.500 170 C 154.456 170, 154 171.051, 154 173.455 C 154 176.611, 154.302 176.966, 157.500 177.566 C 159.505 177.942, 161 178.816, 161 179.611 C 161 180.532, 162.180 181, 164.500 181 C 167.333 181, 168 181.381, 168 183 C 168 184.619, 168.667 185, 171.500 185 C 173.820 185, 175 185.468, 175 186.389 C 175 187.184, 176.495 188.058, 178.500 188.434 C 180.595 188.827, 182 189.675, 182 190.545 C 182 191.576, 183.166 192, 186 192 C 189.905 192, 190 191.917, 190 188.500 C 190 185.083, 189.905 185, 186 185 C 182.667 185, 182 184.667, 182 183 C 182 181.444, 181.333 181, 179 181 C 176.922 181, 176 180.510, 176 179.406 C 176 178.530, 175.100 177.577, 174 177.290 C 172.900 177.002, 172 176.144, 172 175.383 C 172 174.623, 171.100 174, 170 174 C 168.900 174, 168 173.377, 168 172.617 C 168 171.856, 167.100 170.998, 166 170.710 C 164.900 170.423, 164 169.470, 164 168.594 C 164 167.439, 163.036 167, 160.500 167 C 158.056 167, 157 167.452, 157 168.500" stroke="none" fill="black" fill-rule="evenodd"/>
</svg>