<svg xmlns="http://www.w3.org/2000/svg" width="300" height="300" viewBox="0 0 300 300" version="1.1">
	<path d="M 149 56.358 C 149 58.110, 140.698 59, 124.353 59 C 114.039 59, 112 59.248, 112 60.500 C 112 61.575, 110.903 62, 108.125 62 C 102.228 62, 98 63.096, 98 64.625 C 98 65.381, 97.325 66, 96.500 66 C 95.452 66, 95 67.056, 95 69.500 L 95 73 100.500 73 C 104.722 73, 106 72.652, 106 71.500 C 106 70.328, 107.367 69.997, 112.250 69.986 C 119.865 69.970, 123 69.210, 123 67.383 C 123 66.279, 125.524 66, 135.500 66 C 145.944 66, 148 66.247, 148 67.500 C 148 68.325, 147.325 69, 146.500 69 C 145.667 69, 145 69.889, 145 71 C 145 72.333, 144.333 73, 143 73 C 141.667 73, 141 73.667, 141 75 C 141 76.111, 140.333 77, 139.500 77 C 138.675 77, 138 77.623, 138 78.383 C 138 79.144, 137.100 80.002, 136 80.290 C 134.900 80.577, 134 81.530, 134 82.406 C 134 83.283, 133.325 84, 132.500 84 C 131.452 84, 131 85.056, 131 87.500 C 131 90.333, 130.619 91, 129 91 C 127.667 91, 127 91.667, 127 93 C 127 94.333, 126.333 95, 125 95 C 123.667 95, 123 95.667, 123 97 C 123 98.111, 122.333 99, 121.500 99 C 120.675 99, 120 99.675, 120 100.500 C 120 101.325, 119.345 102, 118.545 102 C 117.675 102, 116.827 103.405, 116.434 105.500 C 116.058 107.505, 115.184 109, 114.389 109 C 113.625 109, 113 109.900, 113 111 C 113 112.333, 112.333 113, 111 113 C 109.889 113, 109 113.667, 109 114.500 C 109 115.325, 108.325 116, 107.500 116 C 106.667 116, 106 116.889, 106 118 C 106 119.333, 105.333 120, 104 120 C 102.667 120, 102 120.667, 102 122 C 102 123.100, 101.361 124, 100.579 124 C 99.798 124, 98.869 125.321, 98.514 126.935 C 98.037 129.109, 97.135 130.031, 95.037 130.492 C 93.409 130.849, 91.987 131.941, 91.695 133.057 C 91.416 134.126, 90.470 135, 89.594 135 C 88.348 135, 88 136.092, 88 140 L 88 145 115 145 C 135.941 145, 141.997 145.281, 141.986 146.250 C 141.955 149.160, 140.669 152, 139.383 152 C 138.359 152, 138 153.558, 138 158 C 138 162.667, 137.667 164, 136.500 164 C 135.675 164, 135 164.675, 135 165.500 C 135 166.583, 133.889 167, 131 167 C 128.111 167, 127 167.417, 127 168.500 C 127 169.575, 125.903 170, 123.125 170 C 117.228 170, 113 171.096, 113 172.625 C 113 173.625, 111.500 174, 107.500 174 C 103.484 174, 102 174.373, 102 175.383 C 102 176.144, 101.100 177.002, 100 177.290 C 98.900 177.577, 98 178.530, 98 179.406 C 98 180.283, 97.325 181, 96.500 181 C 95.667 181, 95 181.889, 95 183 C 95 184.111, 95.667 185, 96.500 185 C 97.325 185, 98 185.607, 98 186.349 C 98 187.357, 100.626 187.847, 108.382 188.287 C 114.092 188.610, 119.717 188.625, 120.882 188.321 C 124.122 187.473, 123.429 185.169, 119.827 184.813 C 116.122 184.447, 114.834 182.118, 117.895 181.317 C 119.053 181.014, 120 180.144, 120 179.383 C 120 178.337, 121.707 178, 127 178 C 133.333 178, 134 178.190, 134 180 C 134 181.111, 133.333 182, 132.500 182 C 131.286 182, 131 183.598, 131 190.383 C 131 197.926, 130.799 198.819, 129 199.290 C 127.255 199.746, 127 200.654, 127 206.406 C 127 211.601, 126.682 213, 125.500 213 C 124.477 213, 123.996 214.034, 123.986 216.250 C 123.963 221.876, 122.991 223.843, 119.898 224.522 C 118.304 224.872, 117 225.798, 117 226.579 C 117 227.570, 115.789 228, 113 228 C 110.166 228, 109 228.424, 109 229.455 C 109 230.325, 107.595 231.173, 105.500 231.566 L 102 232.223 102 239.111 L 102 246 109.500 246 C 115.314 246, 117 245.681, 117 244.579 C 117 243.798, 118.350 242.862, 120 242.500 C 121.650 242.138, 123 241.202, 123 240.421 C 123 239.639, 123.900 239, 125 239 C 126.333 239, 127 238.333, 127 237 C 127 235.381, 127.667 235, 130.500 235 C 132.944 235, 134 234.548, 134 233.500 C 134 232.313, 135.427 232, 140.840 232 C 144.602 232, 155.177 231.704, 164.340 231.343 C 177.290 230.832, 181 230.387, 181 229.343 C 181 228.318, 183.134 228, 190 228 C 196.970 228, 199 228.310, 199 229.375 C 199 230.746, 203.120 232, 207.625 232 C 209.333 232, 210 231.439, 210 230 C 210 228.889, 210.667 228, 211.500 228 C 212.333 228, 213 227.111, 213 226 C 213 224.889, 212.333 224, 211.500 224 C 210.675 224, 210 223.325, 210 222.500 C 210 221.194, 205.333 221, 174 221 C 142.667 221, 138 221.194, 138 222.500 C 138 223.548, 136.944 224, 134.500 224 C 131.167 224, 131 223.833, 131 220.500 C 131 218.168, 131.467 217, 132.399 217 C 133.396 217, 133.998 214.995, 134.500 210 C 135.002 205.005, 135.604 203, 136.601 203 C 137.675 203, 138 201.258, 138 195.500 C 138 189.604, 138.311 188, 139.455 188 C 140.325 188, 141.173 186.595, 141.566 184.500 C 141.942 182.495, 142.816 181, 143.611 181 C 144.532 181, 145 179.820, 145 177.500 L 145 174 152.500 174 C 158.219 174, 160 173.671, 160 172.617 C 160 170.897, 163.077 170.031, 169.250 170.014 C 172.799 170.003, 174 169.621, 174 168.500 C 174 167.452, 175.056 167, 177.500 167 L 181 167 181 172.500 L 181 178 184.412 178 C 187.614 178, 187.866 177.753, 188.500 174 C 188.915 171.541, 189.720 170, 190.588 170 C 191.699 170, 192 168.084, 192 161 C 192 153.957, 191.696 152, 190.601 152 C 189.604 152, 189.002 149.995, 188.500 145 C 187.998 140.005, 187.396 138, 186.399 138 C 185.467 138, 185 136.832, 185 134.500 C 185 132.056, 185.452 131, 186.500 131 C 187.652 131, 188 129.722, 188 125.500 L 188 120 184.500 120 C 181.667 120, 181 119.619, 181 118 C 181 116.381, 180.333 116, 177.500 116 C 174.667 116, 174 116.381, 174 118 C 174 119.100, 173.374 120, 172.608 120 C 170.863 120, 169.756 124.178, 170.605 127.561 C 171.122 129.622, 170.832 130.231, 169.124 130.678 C 167.956 130.983, 167 131.856, 167 132.617 C 167 133.682, 165.101 134.003, 158.750 134.014 C 149.196 134.029, 146 134.682, 146 136.617 C 146 137.748, 142.373 138, 126.079 138 L 106.159 138 105.505 135.024 C 104.775 131.700, 105.443 130, 107.480 130 C 108.228 130, 109.138 128.650, 109.500 127 C 109.862 125.350, 110.798 124, 111.579 124 C 112.361 124, 113 123.100, 113 122 C 113 120.889, 113.667 120, 114.500 120 C 115.325 120, 116 119.283, 116 118.406 C 116 117.530, 116.900 116.577, 118 116.290 C 119.100 116.002, 120 115.144, 120 114.383 C 120 113.623, 120.675 113, 121.500 113 C 122.325 113, 123 112.283, 123 111.406 C 123 110.530, 123.900 109.577, 125 109.290 C 126.503 108.897, 127 107.926, 127 105.383 C 127 102.667, 127.394 102, 129 102 C 130.333 102, 131 101.333, 131 100 C 131 98.889, 131.667 98, 132.500 98 C 133.325 98, 134 97.325, 134 96.500 C 134 95.667, 134.889 95, 136 95 C 137.619 95, 138 94.333, 138 91.500 C 138 88.667, 138.381 88, 140 88 C 141.333 88, 142 87.333, 142 86 C 142 84.889, 142.667 84, 143.500 84 C 144.333 84, 145 83.111, 145 82 C 145 80.667, 145.667 80, 147 80 C 148.111 80, 149 79.333, 149 78.500 C 149 77.675, 149.625 77, 150.389 77 C 151.184 77, 152.058 75.505, 152.434 73.500 C 153.014 70.409, 153.447 70, 156.139 70 C 158.346 70, 159.332 69.448, 159.710 68 C 159.998 66.900, 160.856 66, 161.617 66 C 162.377 66, 163 65.100, 163 64 C 163 62.667, 163.667 62, 165 62 C 166.619 62, 167 61.333, 167 58.500 L 167 55 158 55 C 151.086 55, 149 55.315, 149 56.358 M 156 143.383 C 156 144.144, 155.100 145.002, 154 145.290 C 152.544 145.671, 152 146.654, 152 148.906 C 152 150.990, 151.510 152, 150.500 152 C 149.445 152, 149 153.066, 149 155.594 C 149 158.378, 148.537 159.308, 146.946 159.724 C 144.210 160.440, 144.543 166.302, 147.350 166.834 C 150.639 167.458, 156 165.983, 156 164.455 C 156 163.358, 157.354 163, 161.500 163 C 165.722 163, 167 162.652, 167 161.500 C 167 160.310, 168.444 160, 174 160 L 181 160 181 156 C 181 153.111, 180.583 152, 179.500 152 C 178.675 152, 178 151.325, 178 150.500 C 178 149.667, 177.111 149, 176 149 C 174.667 149, 174 148.333, 174 147 C 174 145.667, 173.333 145, 172 145 C 170.889 145, 170 144.333, 170 143.500 C 170 142.310, 168.556 142, 163 142 C 157.707 142, 156 142.337, 156 143.383" stroke="none" fill="black" fill-rule="evenodd"/>
</svg>