<svg xmlns="http://www.w3.org/2000/svg" width="300" height="300" viewBox="0 0 300 300" version="1.1">
	<path d="M 79 82.955 C 79 83.480, 77.425 84.205, 75.500 84.566 C 72.500 85.129, 72 85.618, 72 87.995 C 72 90.558, 73.377 91.697, 77.286 92.365 C 77.719 92.439, 78.459 93.124, 78.930 93.887 C 79.401 94.649, 82.085 95.494, 84.893 95.764 C 88.010 96.063, 90 96.735, 90 97.488 C 90 98.228, 92.070 98.967, 95.175 99.334 C 98.021 99.671, 100.666 100.460, 101.054 101.087 C 101.555 101.898, 101.914 101.834, 102.300 100.863 C 102.678 99.913, 102.866 100.030, 102.921 101.250 C 102.983 102.614, 103.889 103, 107.032 103 C 110.110 103, 111.234 103.459, 111.782 104.940 C 112.177 106.008, 112.838 106.908, 113.250 106.940 C 113.662 106.973, 115.575 107, 117.500 107 C 119.944 107, 121 107.452, 121 108.500 C 121 109.325, 121.873 110, 122.941 110 C 124.009 110, 125.165 110.457, 125.510 111.016 C 125.856 111.575, 126.557 111.774, 127.069 111.457 C 127.581 111.141, 128 111.584, 128 112.441 C 128 113.585, 129.033 114, 131.883 114 C 134.926 114, 135.880 114.433, 136.290 116 C 136.671 117.456, 137.654 118, 139.906 118 C 141.990 118, 143 118.490, 143 119.500 C 143 120.325, 143.511 121, 144.135 121 C 144.760 121, 146.313 122.125, 147.588 123.500 C 148.862 124.875, 150.853 126, 152.011 126 C 153.170 126, 153.840 126.450, 153.500 127 C 153.160 127.550, 153.753 128, 154.819 128 C 156.853 128, 159.384 130.282, 158.420 131.247 C 158.110 131.556, 159.239 132.113, 160.928 132.484 C 162.708 132.875, 164 133.796, 164 134.673 C 164 135.506, 164.900 136.423, 166 136.710 C 167.100 136.998, 168 137.856, 168 138.617 C 168 139.377, 168.675 140, 169.500 140 C 170.325 140, 171 140.627, 171 141.393 C 171 142.159, 170.325 143.045, 169.500 143.362 C 168.675 143.678, 168 144.851, 168 145.969 C 168 147.122, 167.341 148, 166.475 148 C 165.581 148, 164.702 149.240, 164.350 151 C 164.020 152.650, 163.131 154, 162.375 154 C 161.619 154, 161 154.659, 161 155.465 C 161 156.270, 160.100 157.411, 159 158 C 157.900 158.589, 157 159.730, 157 160.535 C 157 161.341, 156.361 162, 155.579 162 C 154.798 162, 153.862 163.350, 153.500 165 C 153.138 166.650, 152.202 168, 151.421 168 C 150.639 168, 150 168.900, 150 170 C 150 171.333, 149.333 172, 148 172 C 146.889 172, 146 172.667, 146 173.500 C 146 174.325, 145.325 175, 144.500 175 C 143.667 175, 143 175.889, 143 177 C 143 178.333, 142.333 179, 141 179 C 139.871 179, 139 179.667, 139 180.531 C 139 181.374, 138.325 182.322, 137.500 182.638 C 136.675 182.955, 136 183.841, 136 184.607 C 136 185.373, 135.100 186, 134 186 C 132.667 186, 132 186.667, 132 188 C 132 189.129, 131.333 190, 130.469 190 C 129.626 190, 128.695 190.631, 128.399 191.401 C 128.104 192.172, 126.993 193.030, 125.931 193.308 C 124.869 193.586, 124 194.530, 124 195.406 C 124 196.283, 123.311 197, 122.469 197 C 121.626 197, 120.695 197.631, 120.399 198.401 C 120.104 199.172, 118.993 200.030, 117.931 200.308 C 116.869 200.586, 116 201.530, 116 202.406 C 116 203.283, 115.298 204, 114.440 204 C 113.248 204, 112.953 204.886, 113.190 207.750 C 113.375 209.989, 114.004 211.460, 114.750 211.400 C 115.438 211.345, 118.475 211.233, 121.500 211.150 C 125.656 211.037, 127 210.633, 127 209.500 C 127 208.659, 127.892 208, 129.031 208 C 130.149 208, 131.315 207.342, 131.624 206.538 C 131.932 205.734, 133.043 204.804, 134.092 204.471 C 135.142 204.138, 136 203.319, 136 202.651 C 136 201.983, 137.238 201.337, 138.750 201.216 C 140.262 201.095, 141.998 200.323, 142.608 199.501 C 143.217 198.679, 145.129 197.724, 146.858 197.378 C 148.586 197.033, 150 196.167, 150 195.454 C 150 194.742, 151.410 193.849, 153.133 193.471 C 155.213 193.014, 155.841 192.520, 155 192 C 154.162 191.482, 154.816 190.980, 156.934 190.514 C 158.695 190.128, 160.373 189.191, 160.664 188.433 C 160.955 187.675, 162.725 186.767, 164.597 186.416 C 166.527 186.054, 168 185.177, 168 184.389 C 168 183.625, 168.338 183.089, 168.750 183.198 C 170.115 183.559, 174 181.882, 174 180.933 C 174 180.420, 175.125 180, 176.500 180 C 178.333 180, 179 179.467, 179 178 C 179 176.900, 179.338 176.053, 179.750 176.118 C 182.862 176.610, 186 175.797, 186 174.500 C 186 173.675, 186.869 173, 187.930 173 C 189.079 173, 189.990 172.199, 190.180 171.023 C 190.463 169.278, 190.781 169.190, 192.902 170.273 C 194.223 170.948, 195.798 172.400, 196.402 173.500 C 197.006 174.600, 198.027 175.840, 198.672 176.256 C 199.316 176.672, 200.131 178.322, 200.483 179.922 C 200.835 181.523, 201.770 183.081, 202.561 183.385 C 203.437 183.721, 204 185.319, 204 187.469 C 204 189.645, 204.450 190.904, 205.172 190.750 C 205.817 190.613, 206.879 192.300, 207.532 194.500 C 208.438 197.550, 208.833 198.025, 209.196 196.500 C 209.545 195.033, 209.878 195.499, 210.447 198.250 C 210.894 200.411, 211.811 202, 212.611 202 C 213.491 202, 214.037 203.191, 214.100 205.250 C 214.207 208.762, 215.647 214.136, 216.042 212.500 C 216.175 211.950, 216.557 213.300, 216.892 215.500 L 217.500 219.500 222.681 219.800 L 227.862 220.100 228.543 215.562 C 229.274 210.690, 228.607 207.507, 227.058 208.464 C 226.531 208.790, 225.811 207.509, 225.457 205.620 C 225.045 203.424, 224.124 202.004, 222.906 201.686 C 221.858 201.412, 221 200.470, 221 199.594 C 221 198.717, 220.325 198, 219.500 198 C 218.675 198, 218 197.311, 218 196.469 C 218 195.626, 217.325 194.678, 216.500 194.362 C 215.675 194.045, 214.994 192.597, 214.986 191.143 C 214.965 186.961, 213.886 184, 212.383 184 C 211.623 184, 211 183.100, 211 182 C 211 180.900, 210.375 180, 209.611 180 C 208.816 180, 207.942 178.505, 207.566 176.500 C 207.173 174.405, 206.325 173, 205.455 173 C 204.655 173, 204 172.152, 204 171.117 C 204 170.081, 203.169 169.016, 202.154 168.750 C 200.717 168.375, 200.409 167.573, 200.767 165.134 C 201.161 162.452, 201.643 162, 204.113 162 C 206.088 162, 207 161.496, 207 160.406 C 207 159.530, 207.900 158.577, 209 158.290 C 210.100 158.002, 211 157.144, 211 156.383 C 211 155.623, 211.848 155, 212.883 155 C 213.919 155, 214.975 154.204, 215.229 153.231 C 215.512 152.148, 216.788 151.371, 218.516 151.228 C 220.068 151.100, 221.443 150.883, 221.570 150.747 C 221.697 150.611, 221.959 148.250, 222.151 145.500 L 222.500 140.500 217.171 140.195 C 212.500 139.928, 211.775 140.144, 211.304 141.945 C 210.896 143.508, 209.956 144, 207.383 144 C 204.634 144, 204 144.386, 204 146.059 C 204 147.191, 203.549 147.839, 202.998 147.499 C 201.751 146.728, 200 151.146, 200 155.065 C 200 157.753, 199.705 158, 196.500 158 C 193.167 158, 193 157.833, 193 154.500 C 193 152.187, 192.531 151, 191.617 151 C 190.856 151, 189.998 150.100, 189.710 149 C 189.423 147.900, 188.470 147, 187.594 147 C 186.717 147, 186 146.325, 186 145.500 C 186 144.675, 185.352 144, 184.559 144 C 182.306 144, 181.739 142.225, 182.458 137.429 C 182.890 134.550, 183.626 133, 184.561 133 C 185.726 133, 186 130.895, 186 121.941 C 186 114.809, 185.644 111.102, 184.998 111.501 C 184.447 111.842, 183.548 110.941, 183 109.500 C 182.452 108.059, 181.553 107.158, 181.002 107.499 C 180.451 107.839, 180 107.191, 180 106.059 C 180 104.877, 179.348 104, 178.469 104 C 177.626 104, 176.683 103.337, 176.372 102.527 C 176.061 101.717, 174.275 100.767, 172.403 100.416 C 170.532 100.065, 169 99.185, 169 98.461 C 169 97.616, 167.043 96.899, 163.537 96.461 C 160.414 96.071, 158.165 95.308, 158.287 94.679 C 158.413 94.028, 155.662 93.221, 151.547 92.703 C 147.723 92.221, 144.123 91.208, 143.547 90.452 C 142.830 89.510, 139.900 89.020, 134.250 88.898 C 128.470 88.772, 126 88.349, 126 87.484 C 126 85.778, 121.300 85, 111 85 C 101.218 85, 95.760 84.197, 96.575 82.878 C 96.874 82.395, 93.041 82, 88.059 82 C 82.973 82, 79 82.419, 79 82.955 M 106.250 92.671 C 102.534 93.444, 103.494 96, 107.500 96 C 109.813 96, 111 96.469, 111 97.383 C 111 98.959, 114 99.966, 118.750 99.986 C 120.966 99.996, 122 100.477, 122 101.500 C 122 102.510, 123.010 103, 125.094 103 C 127.317 103, 128.330 103.547, 128.696 104.946 C 129.061 106.343, 130.233 106.977, 132.852 107.196 C 135.118 107.385, 136.405 107.974, 136.250 108.750 C 136.105 109.474, 137.017 110, 138.418 110 C 141.870 110, 144 110.995, 144 112.607 C 144 113.488, 145.102 114, 147 114 C 149.027 114, 150 114.497, 150 115.531 C 150 116.374, 150.787 117.346, 151.750 117.691 C 152.713 118.037, 154.305 119.148, 155.289 120.160 C 156.273 121.172, 157.960 122, 159.039 122 C 160.118 122, 161 122.675, 161 123.500 C 161 124.325, 161.659 125, 162.465 125 C 163.270 125, 164.409 125.896, 164.995 126.990 C 165.580 128.085, 166.384 128.914, 166.780 128.834 C 167.176 128.753, 168.625 129.179, 170 129.780 C 171.375 130.381, 172.050 130.909, 171.500 130.952 C 170.478 131.032, 172.979 132.957, 174.142 132.985 C 174.494 132.993, 175.066 131.875, 175.411 130.500 C 175.756 129.125, 176.506 128, 177.078 128 C 177.650 128, 177.840 127.550, 177.500 127 C 177.160 126.450, 177.359 126, 177.941 126 C 178.558 126, 179 123.704, 179 120.500 C 179 116.278, 178.652 115, 177.500 115 C 176.675 115, 176 114.283, 176 113.406 C 176 112.530, 175.100 111.577, 174 111.290 C 172.900 111.002, 172 110.144, 172 109.383 C 172 108.623, 171.100 107.944, 170 107.875 C 168.900 107.806, 167.550 107.638, 167 107.500 C 166.450 107.362, 165.100 107.194, 164 107.125 C 162.900 107.056, 162 106.381, 162 105.625 C 162 104.252, 158.084 103.062, 153.125 102.930 C 150.855 102.869, 150.764 102.756, 152.453 102.095 C 154.107 101.448, 153.896 101.229, 151.078 100.666 C 149.248 100.300, 146.254 100, 144.425 100 C 142.297 100, 140.747 99.370, 140.121 98.250 C 139.313 96.804, 137.396 96.440, 129.072 96.156 C 121.247 95.889, 119 95.499, 119 94.406 C 119 93.593, 117.999 93, 116.625 93 C 115.319 93, 112.956 92.821, 111.375 92.602 C 109.794 92.383, 107.487 92.414, 106.250 92.671 M 175 152.500 C 175 153.325, 174.377 154, 173.617 154 C 172.856 154, 171.998 154.900, 171.710 156 C 171.423 157.100, 170.470 158, 169.594 158 C 168.667 158, 168 158.837, 168 160 C 168 161.100, 167.361 162, 166.579 162 C 165.798 162, 164.862 163.350, 164.500 165 C 164.138 166.650, 163.202 168, 162.421 168 C 161.639 168, 161 168.900, 161 170 C 161 171.333, 160.333 172, 159 172 C 157.667 172, 157 172.667, 157 174 C 157 175.292, 156.333 176, 155.117 176 C 154.044 176, 152.997 176.904, 152.684 178.101 C 152.381 179.257, 151.655 179.905, 151.067 179.542 C 150.387 179.121, 150 180.173, 150 182.441 C 150 184.398, 150.450 186, 151 186 C 151.550 186, 152 185.325, 152 184.500 C 152 183.567, 152.944 183, 154.500 183 C 155.967 183, 157 182.426, 157 181.611 C 157 180.816, 158.495 179.942, 160.500 179.566 C 162.437 179.203, 164 178.310, 164 177.566 C 164 176.827, 165.532 175.935, 167.403 175.584 C 169.275 175.233, 171.072 174.254, 171.396 173.409 C 171.721 172.565, 172.416 172.139, 172.943 172.465 C 173.469 172.790, 174.368 172.180, 174.942 171.109 C 175.515 170.039, 177.450 168.837, 179.242 168.440 C 182.011 167.825, 182.202 167.611, 180.517 167.014 C 178.911 166.444, 179.244 166.177, 182.267 165.610 C 184.546 165.182, 186 164.343, 186 163.455 C 186 162.655, 186.675 162, 187.500 162 C 188.325 162, 189 161.136, 189 160.079 C 189 158.727, 188.038 157.946, 185.750 157.438 C 183.029 156.834, 182.817 156.604, 184.446 156.026 C 186.296 155.371, 186.283 155.307, 184.196 154.762 C 182.988 154.446, 182 153.470, 182 152.594 C 182 151.439, 181.036 151, 178.500 151 C 176.056 151, 175 151.452, 175 152.500" stroke="none" fill="black" fill-rule="evenodd"/>
</svg>