<svg xmlns="http://www.w3.org/2000/svg" width="300" height="300" viewBox="0 0 300 300" version="1.1">
	<path d="M 64.750 37.689 C 63.788 37.941, 63 38.564, 63 39.073 C 63 39.583, 62.058 40, 60.906 40 C 59.654 40, 58.603 40.803, 58.290 42 C 58.002 43.100, 57.144 44, 56.383 44 C 55.479 44, 55 45.168, 55 47.375 C 55 50.259, 55.400 50.829, 57.750 51.292 C 61.597 52.050, 66 51.032, 66 49.383 C 66 48.294, 68.209 48, 76.383 48 C 85.926 48, 86.809 48.162, 87.290 50 C 87.577 51.100, 88.530 52, 89.406 52 C 90.283 52, 91 52.675, 91 53.500 C 91 54.548, 89.944 55, 87.500 55 C 85.224 55, 84 55.473, 84 56.353 C 84 57.738, 74.393 59, 63.849 59 C 60.205 59, 59 59.373, 59 60.500 C 59 61.663, 57.681 62, 53.125 62 C 45.342 62, 41 62.940, 41 64.625 C 41 65.381, 40.100 66, 39 66 C 37.900 66, 37 66.625, 37 67.389 C 37 68.184, 35.505 69.058, 33.500 69.434 C 30.302 70.034, 30 70.389, 30 73.545 L 30 77 37.500 77 C 43.396 77, 45 76.689, 45 75.545 C 45 74.675, 46.405 73.827, 48.500 73.434 C 50.505 73.058, 52 72.184, 52 71.389 C 52 70.336, 53.694 70, 59 70 C 65.333 70, 66 69.810, 66 68 C 66 66.190, 66.667 66, 73 66 L 80 66 80 69.500 C 80 71.944, 79.548 73, 78.500 73 C 77.667 73, 77 73.889, 77 75 C 77 76.111, 77.667 77, 78.500 77 C 79.690 77, 80 78.444, 80 84 C 80 90.333, 80.190 91, 82 91 C 83.333 91, 84 91.667, 84 93 C 84 94.619, 84.667 95, 87.500 95 C 89.944 95, 91 94.548, 91 93.500 C 91 92.667, 91.889 92, 93 92 C 95.338 92, 95.680 93.802, 93.500 94.638 C 92.675 94.955, 92 95.883, 92 96.701 C 92 97.518, 91.100 98.423, 90 98.710 C 88.900 98.998, 88 99.856, 88 100.617 C 88 101.671, 86.219 102, 80.500 102 C 74.788 102, 73 102.329, 73 103.381 C 73 104.422, 70.417 104.937, 62.500 105.477 L 52 106.192 52 111.437 L 52 116.682 57.250 116.457 C 60.138 116.334, 66.438 116.180, 71.250 116.116 C 78.309 116.022, 80 115.710, 80 114.500 C 80 113.278, 81.667 113, 89 113 L 98 113 98 123.500 L 98 134 94.750 134.009 C 87.574 134.028, 81 135.286, 81 136.639 C 81 137.666, 79.159 138, 73.500 138 L 66 138 66 144.883 C 66 150.926, 66.244 151.831, 68 152.290 C 69.472 152.675, 70 153.654, 70 156 C 70 158.346, 69.472 159.325, 68 159.710 C 66.900 159.998, 66 160.803, 66 161.500 C 66 162.197, 65.100 163.002, 64 163.290 C 62.900 163.577, 62 164.530, 62 165.406 C 62 166.283, 61.377 167, 60.617 167 C 59.856 167, 58.998 167.900, 58.710 169 C 58.423 170.100, 57.470 171, 56.594 171 C 55.717 171, 55 171.675, 55 172.500 C 55 173.325, 54.375 174, 53.611 174 C 52.816 174, 51.942 175.495, 51.566 177.500 C 51.173 179.595, 50.325 181, 49.455 181 C 48.655 181, 48 181.900, 48 183 C 48 184.333, 47.333 185, 46 185 C 44.889 185, 44 185.667, 44 186.500 C 44 187.325, 43.325 188, 42.500 188 C 41.348 188, 41 189.278, 41 193.500 C 41 197.722, 41.348 199, 42.500 199 C 43.325 199, 44 198.325, 44 197.500 C 44 196.445, 45.066 196, 47.594 196 C 50.346 196, 51.310 195.532, 51.710 194 C 51.998 192.900, 52.856 192, 53.617 192 C 54.377 192, 55 191.377, 55 190.617 C 55 189.856, 55.900 188.998, 57 188.710 C 58.532 188.310, 59 187.346, 59 184.594 C 59 182.066, 59.445 181, 60.500 181 C 61.325 181, 62 180.325, 62 179.500 C 62 178.667, 62.889 178, 64 178 C 65.333 178, 66 177.333, 66 176 C 66 174.900, 66.655 174, 67.455 174 C 68.325 174, 69.173 172.595, 69.566 170.500 C 70.142 167.429, 70.588 167, 73.205 167 C 75.346 167, 76.335 166.436, 76.710 165 C 76.998 163.900, 77.856 163, 78.617 163 C 79.377 163, 80 162.283, 80 161.406 C 80 160.530, 80.900 159.577, 82 159.290 C 83.393 158.925, 84 157.926, 84 155.995 C 84 153.618, 84.500 153.129, 87.500 152.566 C 89.595 152.173, 91 151.325, 91 150.455 C 91 149.655, 91.900 149, 93 149 C 94.111 149, 95 148.333, 95 147.500 C 95 146.675, 95.627 146, 96.393 146 C 97.159 146, 98.045 146.675, 98.362 147.500 C 98.678 148.325, 99.626 149, 100.469 149 C 102.718 149, 102.336 151.679, 100 152.290 C 98.900 152.577, 98 153.530, 98 154.406 C 98 155.283, 97.325 156, 96.500 156 C 95.452 156, 95 157.056, 95 159.500 C 95 161.944, 95.452 163, 96.500 163 C 97.325 163, 98 163.717, 98 164.594 C 98 165.470, 98.900 166.423, 100 166.710 C 101.756 167.169, 102 168.074, 102 174.117 C 102 179.255, 101.655 181, 100.639 181 C 99.150 181, 98.024 187.745, 98.009 196.750 C 98.002 200.746, 97.642 202, 96.500 202 C 95.514 202, 95 202.986, 95 204.875 C 95 209.841, 93.804 214, 92.375 214 C 91.470 214, 91 215.197, 91 217.500 L 91 221 96.500 221 L 102 221 102 217.617 C 102 215.074, 102.497 214.103, 104 213.710 C 105.763 213.249, 106 212.346, 106 206.094 C 106 200.455, 106.308 199, 107.500 199 C 108.762 199, 109 196.784, 109 185.059 C 109 177.391, 109.404 170.868, 109.897 170.563 C 111.470 169.591, 117 171.196, 117 172.625 C 117 173.530, 118.197 174, 120.500 174 C 122.896 174, 124 174.459, 124 175.455 C 124 176.325, 125.405 177.173, 127.500 177.566 C 129.505 177.942, 131 178.816, 131 179.611 C 131 180.532, 132.180 181, 134.500 181 C 137.333 181, 138 181.381, 138 183 C 138 184.619, 138.667 185, 141.500 185 C 143.803 185, 145 185.470, 145 186.375 C 145 187.746, 149.120 189, 153.625 189 C 155.069 189, 156 189.588, 156 190.500 C 156 191.633, 157.222 192, 161 192 C 164.607 192, 166 191.612, 166 190.607 C 166 189.841, 165.325 188.955, 164.500 188.638 C 163.675 188.322, 163 187.374, 163 186.531 C 163 185.448, 161.976 185, 159.500 185 C 156.667 185, 156 184.619, 156 183 C 156 181.381, 155.333 181, 152.500 181 C 150.056 181, 149 180.548, 149 179.500 C 149 178.675, 148.283 178, 147.406 178 C 146.530 178, 145.577 177.100, 145.290 176 C 144.897 174.497, 143.926 174, 141.383 174 C 139.089 174, 138 173.532, 138 172.545 C 138 171.675, 136.595 170.827, 134.500 170.434 C 132.575 170.073, 131 169.203, 131 168.500 C 131 167.797, 129.425 166.927, 127.500 166.566 C 125.405 166.173, 124 165.325, 124 164.455 C 124 163.459, 122.896 163, 120.500 163 C 118.056 163, 117 162.548, 117 161.500 C 117 160.667, 116.111 160, 115 160 C 113.667 160, 113 159.333, 113 158 C 113 156.667, 112.333 156, 111 156 C 109.242 156, 109 155.333, 109 150.500 L 109 145 119.500 145 C 128.167 145, 130 144.738, 130 143.500 C 130 142.644, 130.899 142, 132.094 142 C 133.346 142, 134.397 141.197, 134.710 140 C 134.998 138.900, 135.856 138, 136.617 138 C 137.531 138, 138 136.813, 138 134.500 C 138 132.056, 138.452 131, 139.500 131 C 140.358 131, 141 130.099, 141 128.894 C 141 126.896, 140.585 126.807, 132.924 127.155 C 126.543 127.445, 124.643 127.887, 123.874 129.261 C 123.095 130.653, 121.513 131, 115.950 131 L 109 131 109 127.500 C 109 125.056, 108.548 124, 107.500 124 C 106.300 124, 106 122.500, 106 116.500 L 106 109 109.500 109 C 111.944 109, 113 108.548, 113 107.500 C 113 106.337, 114.319 106, 118.875 106 C 126.658 106, 131 105.060, 131 103.375 C 131 102.282, 133.561 102, 143.500 102 C 155.333 102, 156 101.893, 156 100 C 156 98.900, 156.639 98, 157.421 98 C 158.202 98, 159.128 96.696, 159.478 95.102 C 160.140 92.088, 162.134 91.039, 167.250 91.014 L 170 91 170 120.842 C 170 159.728, 170.849 178, 172.655 178 C 173.654 178, 174 179.803, 174 185 L 174 192 177.500 192 C 180.333 192, 181 191.619, 181 190 C 181 188.667, 181.667 188, 183 188 C 184.727 188, 185 187.333, 185 183.117 C 185 179.074, 184.656 178.143, 183 177.710 C 181.159 177.229, 181 176.346, 181 166.594 C 181 157.844, 180.739 156, 179.500 156 C 178.202 156, 178 152.172, 178 127.545 L 178 99.091 181.500 98.434 C 183.425 98.073, 185 97.203, 185 96.500 C 185 95.797, 186.575 94.927, 188.500 94.566 C 190.595 94.173, 192 93.325, 192 92.455 C 192 91.320, 193.541 91, 199 91 C 204.556 91, 206 90.690, 206 89.500 C 206 88.452, 207.056 88, 209.500 88 L 213 88 213 93.500 C 213 97.722, 212.652 99, 211.500 99 C 210.675 99, 210 99.675, 210 100.500 C 210 101.325, 210.619 102, 211.375 102 C 212.948 102, 214 106.259, 214 112.625 C 214 115.700, 214.414 117, 215.394 117 C 216.440 117, 216.879 119.006, 217.153 125.042 C 217.407 130.620, 217.957 133.355, 218.948 133.968 C 219.958 134.592, 220.504 137.508, 220.811 143.925 C 221.117 150.331, 221.615 153, 222.506 153 C 224.242 153, 224.970 156.301, 224.986 164.250 C 224.997 169.577, 225.316 171, 226.500 171 C 227.807 171, 228 175.833, 228 208.500 C 228 241.167, 227.807 246, 226.500 246 C 225.588 246, 225 246.931, 225 248.375 C 225 252.880, 223.746 257, 222.375 257 C 221.470 257, 221 258.197, 221 260.500 L 221 264 225.883 264 C 231.155 264, 231.955 263.050, 231.986 256.750 C 231.995 255.063, 232.542 254, 233.404 254 C 235.056 254, 235.733 226.214, 235.153 182.273 C 234.866 160.560, 234.562 156, 233.403 156 C 232.358 156, 232 154.500, 232 150.125 C 232 142.342, 231.060 138, 229.375 138 C 228.310 138, 228 135.970, 228 129 C 228 121.667, 227.722 120, 226.500 120 C 225.247 120, 225 117.944, 225 107.500 L 225 95 228.500 95 C 231.333 95, 232 94.619, 232 93 C 232 91.667, 231.333 91, 230 91 C 228.889 91, 228 90.333, 228 89.500 C 228 88.229, 230.444 88, 244 88 L 260 88 260.014 90.750 C 260.035 95.032, 261.101 98, 262.617 98 C 263.377 98, 264 97.325, 264 96.500 C 264 95.667, 264.889 95, 266 95 C 267.111 95, 268 94.333, 268 93.500 C 268 92.675, 268.675 92, 269.500 92 C 270.583 92, 271 90.889, 271 88 C 271 85.261, 270.564 84, 269.617 84 C 268.856 84, 267.998 83.100, 267.710 82 C 267.200 80.047, 266.352 80, 231.844 80.014 C 212.405 80.021, 195.488 80.299, 194.250 80.630 C 193.012 80.962, 192 81.856, 192 82.617 C 192 83.627, 190.516 84, 186.500 84 L 181 84 181 80.500 C 181 77.667, 181.381 77, 183 77 C 184.100 77, 185 76.345, 185 75.545 C 185 74.675, 186.405 73.827, 188.500 73.434 C 191.033 72.959, 192 72.255, 192 70.889 C 192 69.850, 192.675 69, 193.500 69 C 194.325 69, 195 68.325, 195 67.500 C 195 66.659, 195.892 66, 197.031 66 C 198.149 66, 199.311 65.352, 199.615 64.561 C 199.919 63.770, 201.479 62.834, 203.084 62.482 C 204.688 62.129, 206 61.202, 206 60.421 C 206 59.639, 206.900 59, 208 59 C 209.100 59, 210 58.377, 210 57.617 C 210 56.041, 213 55.034, 217.750 55.014 C 220.800 55.001, 221 55.215, 221 58.500 C 221 60.944, 221.452 62, 222.500 62 C 223.633 62, 224 60.778, 224 57 C 224 53.222, 223.633 52, 222.500 52 C 221.667 52, 221 51.111, 221 50 C 221 48.242, 220.333 48, 215.500 48 C 210.667 48, 210 48.242, 210 50 C 210 51.619, 209.333 52, 206.500 52 C 204.056 52, 203 52.452, 203 53.500 C 203 54.333, 202.111 55, 201 55 C 199.900 55, 199 55.655, 199 56.455 C 199 57.325, 197.595 58.173, 195.500 58.566 C 193.495 58.942, 192 59.816, 192 60.611 C 192 61.375, 191.283 62, 190.406 62 C 189.530 62, 188.577 62.900, 188.290 64 C 187.926 65.392, 186.926 66, 185 66 C 183.074 66, 182.074 66.608, 181.710 68 C 181.397 69.197, 180.346 70, 179.094 70 C 177.899 70, 177 70.644, 177 71.500 C 177 72.325, 176.325 73, 175.500 73 C 174.667 73, 174 73.889, 174 75 C 174 76.333, 173.333 77, 172 77 C 170.900 77, 170 77.625, 170 78.389 C 170 79.184, 168.505 80.058, 166.500 80.434 C 164.405 80.827, 163 81.675, 163 82.545 C 163 83.345, 162.100 84, 161 84 C 159.900 84, 159 84.655, 159 85.455 C 159 86.325, 157.595 87.173, 155.500 87.566 C 153.495 87.942, 152 88.816, 152 89.611 C 152 90.375, 151.347 91, 150.550 91 C 149.752 91, 148.601 91.787, 147.992 92.750 C 147.198 94.003, 146.735 94.145, 146.359 93.250 C 145.692 91.664, 142.295 91.614, 141.772 93.183 C 141.522 93.934, 138.024 94.526, 132.189 94.805 C 125.263 95.136, 123 95.584, 123 96.622 C 123 97.685, 121.053 98, 114.500 98 C 106.667 98, 106 97.843, 106 96 C 106 94.889, 106.667 94, 107.500 94 C 108.325 94, 109 93.325, 109 92.500 C 109 91.667, 109.889 91, 111 91 C 112.333 91, 113 90.333, 113 89 C 113 87.889, 113.667 87, 114.500 87 C 115.325 87, 116 86.325, 116 85.500 C 116 84.667, 116.889 84, 118 84 C 119.333 84, 120 83.333, 120 82 C 120 80.900, 120.639 80, 121.421 80 C 122.202 80, 123.138 78.650, 123.500 77 C 123.878 75.278, 124.804 74, 125.673 74 C 126.506 74, 127.423 73.100, 127.710 72 C 127.998 70.900, 128.856 70, 129.617 70 C 130.377 70, 131 69.100, 131 68 C 131 66.242, 130.333 66, 125.500 66 C 120.667 66, 120 66.242, 120 68 C 120 69.333, 119.333 70, 118 70 C 116.451 70, 116 70.667, 116 72.955 C 116 75.540, 115.562 75.992, 112.500 76.566 C 109.318 77.163, 109 77.530, 109 80.611 L 109 84 103.500 84 C 98.566 84, 98 84.218, 98 86.117 C 98 87.824, 97.565 88.117, 95.750 87.630 C 94.513 87.299, 92.311 87.021, 90.858 87.014 C 88.857 87.003, 88.060 86.373, 87.568 84.416 C 86.594 80.533, 88.018 70, 89.518 70 C 90.211 70, 91.073 68.425, 91.434 66.500 C 92.022 63.367, 92.427 62.999, 95.295 62.991 C 102.430 62.972, 109 61.711, 109 60.361 C 109 59.276, 111.937 59, 123.500 59 L 138 59 138 64 C 138 68.333, 138.267 69, 140 69 C 141.111 69, 142 68.333, 142 67.500 C 142 66.675, 142.619 66, 143.375 66 C 145.016 66, 146.046 61.590, 145.300 57.750 C 145.007 56.237, 144.144 55, 143.383 55 C 142.623 55, 142 54.325, 142 53.500 C 142 52.213, 138.954 52, 120.588 52 L 99.176 52 98.500 48 C 97.892 44.404, 97.530 44, 94.912 44 C 92.990 44, 92 43.490, 92 42.500 C 92 41.302, 90.513 41, 84.617 41 C 78.074 41, 77.174 40.772, 76.710 39 C 76.272 37.325, 75.400 37.019, 71.344 37.116 C 68.680 37.180, 65.713 37.438, 64.750 37.689" stroke="none" fill="black" fill-rule="evenodd"/>
</svg>