<svg xmlns="http://www.w3.org/2000/svg" width="300" height="300" viewBox="0 0 300 300" version="1.1">
	<path d="M 147 61.500 C 147 62.325, 146.283 63, 145.406 63 C 144.530 63, 143.577 63.900, 143.290 65 C 143.002 66.100, 142.165 67, 141.429 67 C 140.691 67, 139.796 68.571, 139.434 70.500 C 139.058 72.505, 138.184 74, 137.389 74 C 136.625 74, 136 74.900, 136 76 C 136 77.208, 135.307 78.031, 134.250 78.079 C 133.219 78.125, 133.010 78.364, 133.741 78.659 C 134.682 79.039, 134.621 79.522, 133.491 80.652 C 132.671 81.472, 132 83.686, 132 85.571 C 132 87.905, 131.535 89, 130.545 89 C 129.675 89, 128.827 90.405, 128.434 92.500 C 128.058 94.505, 127.184 96, 126.389 96 C 125.388 96, 125 97.405, 125 101.032 C 125 105.338, 124.675 106.185, 122.750 106.897 C 121.513 107.355, 120.612 108.015, 120.750 108.365 C 121.591 110.502, 120.815 114, 119.500 114 C 118.435 114, 117.997 115.088, 117.989 117.750 C 117.971 123.804, 116.832 129, 115.521 129 C 114.054 129, 113 143.710, 113 164.187 C 113 175.166, 113.293 178.175, 114.402 178.601 C 115.173 178.896, 116.093 180.682, 116.447 182.569 C 116.830 184.610, 117.680 186, 118.545 186 C 119.541 186, 120 187.104, 120 189.500 C 120 192.333, 120.381 193, 122 193 C 123.333 193, 124 193.667, 124 195 C 124 196.100, 124.619 197, 125.375 197 C 126.131 197, 127.022 198.359, 127.354 200.021 C 127.826 202.382, 128.618 203.174, 130.979 203.646 C 133.051 204.060, 134 204.839, 134 206.125 C 134 207.238, 134.711 208.006, 135.750 208.015 C 137.103 208.027, 137.194 208.224, 136.154 208.884 C 135.166 209.510, 135.631 210.024, 137.904 210.817 C 139.607 211.410, 141 212.594, 141 213.448 C 141 214.333, 141.859 215, 143 215 C 144.100 215, 145 215.625, 145 216.389 C 145 217.184, 146.495 218.058, 148.500 218.434 C 150.595 218.827, 152 219.675, 152 220.545 C 152 221.345, 152.900 222, 154 222 C 155.100 222, 156 222.655, 156 223.455 C 156 224.325, 157.405 225.173, 159.500 225.566 C 161.505 225.942, 163 226.816, 163 227.611 C 163 228.497, 164.121 229, 166.094 229 C 168.346 229, 169.329 229.544, 169.710 231 C 170.065 232.355, 171.082 233.005, 172.867 233.015 C 175.782 233.032, 178.217 234.244, 178.085 235.612 C 178.038 236.100, 178.338 236.507, 178.750 236.515 C 180.290 236.547, 182.012 238.171, 181.457 239.069 C 181.141 239.581, 182.371 239.955, 184.191 239.900 C 187.302 239.807, 187.350 239.753, 185 239 C 182.673 238.255, 182.651 238.192, 184.691 238.100 C 187.581 237.968, 188.294 236.616, 187.465 232.842 C 186.963 230.553, 186.552 230.098, 185.907 231.117 C 185.211 232.215, 185.027 232.139, 185.015 230.750 C 185.007 229.787, 184.523 229, 183.941 229 C 183.359 229, 183.146 228.573, 183.469 228.051 C 183.792 227.528, 182.468 226.803, 180.528 226.439 C 178.588 226.075, 177 225.205, 177 224.505 C 177 223.086, 174.027 222.070, 169.500 221.943 C 167.247 221.880, 166.948 221.683, 168.301 221.149 C 169.772 220.568, 169.451 220.203, 166.551 219.154 C 164.598 218.448, 163 217.225, 163 216.435 C 163 215.462, 161.874 215, 159.500 215 C 156.667 215, 156 214.619, 156 213 C 156 211.667, 155.333 211, 154 211 C 152.900 211, 152 210.361, 152 209.579 C 152 208.798, 150.650 207.862, 149 207.500 C 147.350 207.138, 146 206.202, 146 205.421 C 146 204.639, 145.100 204, 144 204 C 142.667 204, 142 203.333, 142 202 C 142 200.667, 141.333 200, 140 200 C 138.444 200, 138 199.333, 138 197 C 138 194.922, 137.510 194, 136.406 194 C 135.530 194, 134.577 193.100, 134.290 192 C 134.002 190.900, 133.144 190, 132.383 190 C 131.623 190, 131 189.100, 131 188 C 131 186.896, 130.333 186, 129.512 186 C 128.550 186, 127.798 184.592, 127.387 182.018 C 127.037 179.828, 126.379 178.266, 125.926 178.546 C 125.167 179.015, 124.495 176.380, 123.746 170 C 123.585 168.625, 122.901 167.612, 122.226 167.750 C 120.612 168.079, 120.474 150.342, 122.086 149.805 C 122.683 149.606, 123.679 144.618, 124.299 138.721 C 125.087 131.231, 125.814 128, 126.713 128 C 127.541 128, 128 126.618, 128 124.125 C 128 118.228, 129.096 114, 130.625 114 C 131.612 114, 132 112.562, 132 108.906 C 132 104.654, 132.330 103.726, 134 103.290 C 135.503 102.897, 136 101.926, 136 99.383 C 136 97.043, 136.462 96, 137.500 96 C 138.555 96, 139 94.934, 139 92.406 C 139 89.654, 139.468 88.690, 141 88.290 C 142.423 87.918, 143 86.926, 143 84.852 C 143 83.249, 143.629 81.696, 144.398 81.401 C 145.168 81.105, 146.322 78.778, 146.964 76.229 C 147.832 72.782, 148.367 71.966, 149.050 73.047 C 149.803 74.237, 149.972 74.167, 149.985 72.660 C 149.998 71.013, 150.758 70.856, 157.250 71.160 L 164.500 71.500 164.810 67.750 C 165.085 64.436, 164.852 63.986, 162.810 63.882 C 161.540 63.816, 160.124 63.829, 159.664 63.910 C 159.204 63.991, 158.589 63.144, 158.297 62.029 C 157.847 60.307, 156.951 60, 152.383 60 C 148.265 60, 147 60.352, 147 61.500" stroke="none" fill="black" fill-rule="evenodd"/>
</svg>