<svg xmlns="http://www.w3.org/2000/svg" width="300" height="300" viewBox="0 0 300 300" version="1.1">
	<path d="M 125.316 65.701 C 121.488 66.438, 121.038 76.500, 124.833 76.500 C 125.867 76.500, 129.579 80.459, 130.295 82.326 C 130.648 83.247, 131.626 84, 132.469 84 C 133.311 84, 133.888 84.525, 133.750 85.167 C 133.613 85.809, 134.940 86.768, 136.699 87.297 C 139.059 88.008, 140.064 89.013, 140.529 91.130 C 140.875 92.709, 141.798 94, 142.579 94 C 143.361 94, 144 94.717, 144 95.594 C 144 96.470, 144.900 97.423, 146 97.710 C 147.107 98, 148 99.074, 148 100.117 C 148 101.323, 148.707 102, 149.969 102 C 151.224 102, 151.747 102.496, 151.412 103.369 C 151.100 104.181, 151.723 104.956, 152.943 105.275 C 154.460 105.671, 155 106.625, 155 108.906 C 155 110.990, 155.490 112, 156.500 112 C 157.356 112, 158 112.899, 158 114.094 C 158 115.346, 158.803 116.397, 160 116.710 C 161.656 117.143, 162 118.074, 162 122.117 C 162 125.617, 162.393 127, 163.389 127 C 164.202 127, 165.069 128.554, 165.480 130.748 C 165.867 132.809, 166.673 134.798, 167.272 135.168 C 167.871 135.538, 168.559 138.576, 168.800 141.918 C 169.359 149.646, 168.046 171.147, 167.053 170.533 C 166.640 170.278, 165.713 172.529, 164.992 175.535 C 164.212 178.784, 163.137 181, 162.340 181 C 161.475 181, 161 182.241, 161 184.500 C 161 186.932, 160.546 188, 159.512 188 C 158.551 188, 157.799 189.404, 157.390 191.960 C 157.042 194.137, 156.267 195.825, 155.667 195.710 C 155.068 195.594, 154.143 197.188, 153.612 199.250 C 153.082 201.313, 152.052 203, 151.324 203 C 150.596 203, 150 203.900, 150 205 C 150 206.100, 149.374 207, 148.608 207 C 147.843 207, 146.934 208.125, 146.589 209.500 C 146.244 210.875, 145.295 212, 144.481 212 C 143.144 212, 142.848 212.567, 143.074 214.700 C 143.115 215.086, 142.215 215.746, 141.074 216.168 C 139.933 216.590, 139 217.605, 139 218.422 C 139 219.330, 137.636 220.165, 135.500 220.566 C 133.495 220.942, 132 221.816, 132 222.611 C 132 223.532, 130.820 224, 128.500 224 C 125.156 224, 125 224.158, 125 227.559 C 125 229.681, 125.404 230.868, 126.002 230.499 C 126.553 230.158, 127.442 231.032, 127.977 232.440 C 128.998 235.126, 132 236, 132 233.611 C 132 232.816, 133.495 231.942, 135.500 231.566 C 137.595 231.173, 139 230.325, 139 229.455 C 139 228.655, 139.900 228, 141 228 C 142.333 228, 143 227.333, 143 226 C 143 224.889, 143.667 224, 144.500 224 C 145.325 224, 146 223.325, 146 222.500 C 146 221.667, 146.889 221, 148 221 C 149.333 221, 150 220.333, 150 219 C 150 217.667, 150.667 217, 152 217 C 153.333 217, 154 216.333, 154 215 C 154 213.889, 154.667 213, 155.500 213 C 156.325 213, 157 212.311, 157 211.469 C 157 210.626, 157.713 209.664, 158.584 209.329 C 159.859 208.840, 159.908 208.557, 158.834 207.876 C 157.812 207.229, 157.910 207.027, 159.250 207.015 C 160.328 207.006, 161 206.232, 161 205 C 161 203.900, 161.625 203, 162.389 203 C 163.184 203, 164.058 201.505, 164.434 199.500 C 164.827 197.405, 165.675 196, 166.545 196 C 167.548 196, 168 194.884, 168 192.406 C 168 189.731, 168.480 188.687, 169.880 188.321 C 171.262 187.960, 171.894 186.630, 172.271 183.291 C 172.552 180.795, 173.338 178.409, 174.017 177.990 C 174.719 177.556, 175.470 174.162, 175.760 170.113 C 176.124 165.017, 176.656 163, 177.634 163 C 179.859 163, 180.154 143.332, 177.950 141.969 C 177.287 141.559, 176.521 138.043, 176.240 134.113 C 175.876 129.017, 175.344 127, 174.366 127 C 173.472 127, 173 125.791, 173 123.500 C 173 121.068, 172.546 120, 171.512 120 C 170.549 120, 169.798 118.588, 169.384 116 C 168.998 113.587, 168.200 112, 167.372 112 C 166.514 112, 166 110.876, 166 109 C 166 106.667, 165.556 106, 164 106 C 162.667 106, 162 105.333, 162 104 C 162 102.900, 161.356 102, 160.570 102 C 159.783 102, 158.985 100.987, 158.796 99.750 C 158.607 98.513, 157.920 97.606, 157.269 97.736 C 156.618 97.865, 155.791 96.403, 155.431 94.486 C 155.072 92.569, 154.205 91, 153.505 91 C 152.806 91, 151.998 90.100, 151.710 89 C 151.423 87.900, 150.506 87, 149.673 87 C 148.813 87, 147.882 85.739, 147.518 84.084 C 146.944 81.467, 144.692 79.439, 142.793 79.827 C 142.404 79.907, 141.799 78.444, 141.449 76.578 C 141.044 74.420, 140.118 73.003, 138.906 72.686 C 137.858 72.412, 137 71.470, 137 70.594 C 137 69.667, 136.163 69, 135 69 C 133.889 69, 133 68.333, 133 67.500 C 133 66.675, 132.362 66, 131.582 66 C 130.802 66, 129.564 65.838, 128.832 65.640 C 128.099 65.443, 126.517 65.470, 125.316 65.701" stroke="none" fill="black" fill-rule="evenodd"/>
</svg>