<svg xmlns="http://www.w3.org/2000/svg" width="300" height="300" viewBox="0 0 300 300" version="1.1">
	<path d="M 167 31.383 C 167 32.374, 164.878 32.964, 159.500 33.468 C 154.032 33.980, 152 34.554, 152 35.585 C 152 36.535, 150.851 37, 148.500 37 C 145.667 37, 145 37.381, 145 39 C 145 40.619, 144.333 41, 141.500 41 C 139.180 41, 138 41.468, 138 42.389 C 138 43.178, 136.522 44.055, 134.572 44.420 C 131.804 44.940, 131.020 45.634, 130.493 48.032 C 130.134 49.664, 129.202 51, 128.421 51 C 127.319 51, 127 52.686, 127 58.500 C 127 64.500, 126.700 66, 125.500 66 C 124.379 66, 123.997 67.201, 123.986 70.750 C 123.969 76.923, 123.103 80, 121.383 80 C 120.436 80, 120 81.261, 120 84 C 120 86.739, 119.564 88, 118.617 88 C 116.623 88, 116.267 90.388, 116.788 100.250 C 117.134 106.782, 117.599 109, 118.625 109 C 119.746 109, 120 112.700, 120 129 C 120 146.111, 120.217 149, 121.500 149 C 122.597 149, 123.002 150.142, 123.006 153.250 C 123.009 155.588, 123.301 161.213, 123.654 165.750 L 124.296 174 129.648 174 C 134.615 174, 135 173.829, 135 171.625 C 135 167.120, 133.746 163, 132.375 163 C 131.470 163, 131 161.803, 131 159.500 L 131 156 136 156 L 141 156 141 152.500 C 141 149.667, 141.381 149, 143 149 C 144.333 149, 145 148.333, 145 147 C 145 145.667, 145.667 145, 147 145 C 148.111 145, 149 144.333, 149 143.500 C 149 142.634, 149.904 142, 151.139 142 C 153.133 142, 153.236 142.356, 152.648 147.250 C 152.301 150.137, 152.013 156.438, 152.009 161.250 C 152.002 168.357, 151.718 170, 150.500 170 C 149.452 170, 149 171.056, 149 173.500 C 149 176.967, 148.958 177, 144.625 177 C 138.259 177, 134 178.052, 134 179.625 C 134 180.530, 132.803 181, 130.500 181 C 127.667 181, 127 181.381, 127 183 C 127 184.111, 126.333 185, 125.500 185 C 124.667 185, 124 185.889, 124 187 C 124 188.111, 124.667 189, 125.500 189 C 126.486 189, 127 189.986, 127 191.875 C 127 194.295, 127.495 194.849, 130.125 195.375 C 131.844 195.719, 135.036 196, 137.219 196 C 140.346 196, 141.298 195.576, 141.710 194 C 142.103 192.497, 143.074 192, 145.617 192 C 147.821 192, 149 191.521, 149 190.625 C 149 189.254, 153.120 188, 157.625 188 C 159.069 188, 160 187.412, 160 186.500 C 160 185.278, 161.667 185, 169 185 C 177.333 185, 178 185.148, 178 187 C 178 188.111, 178.667 189, 179.500 189 C 180.325 189, 181 189.675, 181 190.500 C 181 191.333, 181.889 192, 183 192 C 184.333 192, 185 191.333, 185 190 C 185 188.667, 185.667 188, 187 188 C 188.111 188, 189 187.333, 189 186.500 C 189 185.452, 190.056 185, 192.500 185 C 195.833 185, 196 184.833, 196 181.500 C 196 179.056, 196.452 178, 197.500 178 C 198.555 178, 199 176.934, 199 174.406 C 199 171.629, 199.464 170.691, 201.042 170.279 C 203.048 169.754, 203.079 169.228, 202.792 140.301 C 202.526 113.479, 202.344 110.770, 200.750 109.879 C 199.417 109.134, 199 107.602, 199 103.450 C 199 99.272, 198.650 98, 197.500 98 C 196.452 98, 196 96.944, 196 94.500 C 196 91.667, 195.619 91, 194 91 C 192.667 91, 192 90.333, 192 89 C 192 87.889, 191.333 87, 190.500 87 C 189.675 87, 189 86.325, 189 85.500 C 189 84.258, 187.111 84, 178 84 C 168.889 84, 167 84.258, 167 85.500 C 167 86.652, 165.722 87, 161.500 87 C 157.278 87, 156 86.652, 156 85.500 C 156 84.675, 156.675 84, 157.500 84 C 158.325 84, 159 83.283, 159 82.406 C 159 81.530, 159.900 80.577, 161 80.290 C 162.503 79.897, 163 78.926, 163 76.383 C 163 73.667, 163.394 73, 165 73 C 166.619 73, 167 72.333, 167 69.500 C 167 67.104, 167.459 66, 168.455 66 C 169.325 66, 170.173 64.595, 170.566 62.500 C 170.942 60.495, 171.816 59, 172.611 59 C 173.532 59, 174 57.820, 174 55.500 C 174 53.197, 174.470 52, 175.375 52 C 177.048 52, 178.005 47.649, 177.986 40.125 C 177.964 30.722, 177.528 30, 171.883 30 C 168.394 30, 167 30.395, 167 31.383 M 159 42.421 C 159 43.202, 157.650 44.138, 156 44.500 C 154.350 44.862, 153 45.798, 153 46.579 C 153 47.361, 152.124 48, 151.052 48 C 149.408 48, 149.057 48.817, 148.802 53.241 C 148.569 57.291, 148.103 58.557, 146.750 58.814 C 145.539 59.044, 145 58.508, 145 57.073 C 145 54.913, 144.029 54.618, 140.250 55.630 C 138.306 56.151, 138 56.898, 138 61.117 C 138 65.333, 137.727 66, 136 66 C 134.667 66, 134 66.667, 134 68 C 134 69.111, 133.333 70, 132.500 70 C 131.365 70, 131 71.226, 131 75.031 C 131 78.581, 130.558 80.232, 129.500 80.638 C 127.797 81.292, 127.478 83.659, 129.024 84.175 C 129.587 84.362, 130.314 86.159, 130.640 88.168 C 131.116 91.105, 130.818 92.175, 129.116 93.632 C 125.939 96.353, 126.461 98, 130.500 98 C 132.820 98, 134 97.532, 134 96.611 C 134 95.822, 135.478 94.945, 137.428 94.580 C 140.175 94.064, 140.982 93.360, 141.493 91.033 C 141.968 88.871, 142.871 87.968, 145.033 87.493 C 147.360 86.982, 148.064 86.175, 148.580 83.428 C 148.933 81.542, 149.827 80, 150.566 80 C 151.310 80, 152.203 78.437, 152.566 76.500 C 152.942 74.495, 153.816 73, 154.611 73 C 155.375 73, 156 72.325, 156 71.500 C 156 70.675, 156.635 70, 157.412 70 C 158.280 70, 159.085 68.459, 159.500 66 C 159.915 63.541, 160.720 62, 161.588 62 C 162.535 62, 163 60.848, 163 58.500 C 163 55.667, 163.381 55, 165 55 C 166.810 55, 167 54.333, 167 48 L 167 41 163 41 C 160.211 41, 159 41.430, 159 42.421 M 178 95.883 C 178 97.098, 178.639 98, 179.500 98 C 180.333 98, 181 98.889, 181 100 C 181 101.333, 181.667 102, 183 102 C 184.619 102, 185 102.667, 185 105.500 C 185 108.333, 184.619 109, 183 109 C 181.889 109, 181 108.333, 181 107.500 C 181 106.675, 180.325 106, 179.500 106 C 178.667 106, 178 105.111, 178 104 C 178 102.667, 177.333 102, 176 102 C 174.889 102, 174 101.333, 174 100.500 C 174 99.675, 173.325 99, 172.500 99 C 171.675 99, 171 99.675, 171 100.500 C 171 101.333, 170.111 102, 169 102 C 167.357 102, 166.998 102.670, 166.991 105.750 C 166.974 113.378, 165.751 120, 164.361 120 C 162.884 120, 162.692 121.249, 163.630 124.750 C 164.151 126.694, 164.898 127, 169.117 127 C 172.617 127, 174 126.607, 174 125.611 C 174 124.816, 175.495 123.942, 177.500 123.566 C 179.595 123.173, 181 122.325, 181 121.455 C 181 120.417, 182.181 120, 185.117 120 C 188.898 120, 189.184 119.817, 188.630 117.750 C 188.299 116.513, 188.021 114.938, 188.014 114.250 C 188.006 113.563, 187.325 113, 186.500 113 C 185.667 113, 185 112.111, 185 111 C 185 109.889, 185.667 109, 186.500 109 C 187.652 109, 188 107.722, 188 103.500 C 188 99.278, 187.652 98, 186.500 98 C 185.675 98, 185 97.325, 185 96.500 C 185 95.675, 184.438 94.994, 183.750 94.986 C 183.063 94.979, 181.488 94.701, 180.250 94.370 C 178.435 93.883, 178 94.176, 178 95.883 M 46.750 98.689 C 45.788 98.941, 45 99.789, 45 100.573 C 45 101.358, 44.156 102, 43.125 102 C 41.828 102, 41.059 102.956, 40.629 105.103 C 39.810 109.202, 40.450 110, 44.559 110 C 46.951 110, 48 110.457, 48 111.500 C 48 112.325, 48.689 113, 49.531 113 C 50.374 113, 51.322 112.325, 51.638 111.500 C 52.399 109.517, 54.626 109.584, 55.405 111.613 C 55.816 112.684, 56.743 113.039, 58.161 112.668 C 61.178 111.879, 66 113.011, 66 114.508 C 66 115.200, 66.900 116.002, 68 116.290 C 69.435 116.665, 70 117.654, 70 119.790 C 70 122.032, 70.556 122.916, 72.250 123.370 C 76.727 124.569, 77 124.260, 77 117.990 C 77 113.218, 76.588 111.628, 75 110.268 C 73.900 109.326, 73 108.001, 73 107.323 C 73 106.645, 71.425 105.795, 69.500 105.434 C 67.495 105.058, 66 104.184, 66 103.389 C 66 102.435, 64.746 102, 62 102 C 59.261 102, 58 101.564, 58 100.617 C 58 98.439, 51.782 97.374, 46.750 98.689 M 151.250 98.706 C 150.012 98.944, 149 99.783, 149 100.570 C 149 101.528, 147.884 102, 145.617 102 C 143.074 102, 142.103 102.497, 141.710 104 C 141.423 105.100, 140.470 106, 139.594 106 C 138.717 106, 138 106.623, 138 107.383 C 138 108.144, 137.100 109.002, 136 109.290 C 134.330 109.726, 134 110.654, 134 114.906 C 134 119.899, 133.941 120, 131 120 C 128.252 120, 128 120.287, 128 123.417 C 128 125.296, 128.503 127.001, 129.118 127.206 C 129.737 127.412, 130.468 130.804, 130.753 134.789 C 131.140 140.207, 131.632 142, 132.728 142 C 133.531 142, 134.423 141.100, 134.710 140 C 135.103 138.497, 136.074 138, 138.617 138 C 140.911 138, 142 137.532, 142 136.545 C 142 135.675, 143.405 134.827, 145.500 134.434 C 147.505 134.058, 149 133.184, 149 132.389 C 149 131.468, 150.180 131, 152.500 131 L 156 131 156 118 C 156 107.111, 156.244 105, 157.500 105 C 158.487 105, 159 104.013, 159 102.117 C 159 99.972, 158.424 99.079, 156.750 98.630 C 155.512 98.299, 154.275 98.082, 154 98.150 C 153.725 98.217, 152.488 98.467, 151.250 98.706 M 188.201 128.606 C 187.660 129.572, 185.449 130.420, 182.651 130.736 C 179.635 131.076, 178 131.742, 178 132.630 C 178 133.405, 176.969 134, 175.625 134 C 171.120 134, 167 135.254, 167 136.625 C 167 137.381, 166.377 138, 165.617 138 C 163.897 138, 163.031 141.077, 163.014 147.250 C 163.003 150.799, 162.621 152, 161.500 152 C 160.258 152, 160 153.889, 160 163 L 160 174 172 174 C 181.782 174, 184 174.266, 184 175.441 C 184 177.555, 185.661 178.233, 189.024 177.495 C 191.976 176.846, 192 176.784, 192 169.921 C 192 164.436, 192.311 163, 193.500 163 C 194.776 163, 195 160.402, 195 145.617 C 195 128.435, 194.974 128.226, 192.750 127.630 C 189.506 126.761, 189.196 126.827, 188.201 128.606 M 64.250 141.706 C 63.013 141.944, 62 142.783, 62 143.570 C 62 144.538, 60.869 145, 58.500 145 C 56.187 145, 55 145.469, 55 146.383 C 55 147.899, 52.032 148.965, 47.750 148.986 C 45.978 148.995, 45 149.534, 45 150.500 C 45 151.333, 44.111 152, 43 152 C 41.242 152, 41 152.667, 41 157.500 L 41 163 48 163 C 53.619 163, 55 162.698, 55 161.469 C 55 160.626, 55.675 159.678, 56.500 159.362 C 57.325 159.045, 58 158.159, 58 157.393 C 58 156.627, 58.900 156, 60 156 C 61.100 156, 62 155.381, 62 154.625 C 62 153.254, 66.120 152, 70.625 152 C 72.069 152, 73 151.412, 73 150.500 C 73 149.417, 74.111 149, 77 149 C 79.889 149, 81 149.417, 81 150.500 C 81 151.325, 81.675 152, 82.500 152 C 83.325 152, 84 151.325, 84 150.500 C 84 149.675, 84.675 149, 85.500 149 C 86.325 149, 87 149.675, 87 150.500 C 87 151.356, 87.899 152, 89.094 152 C 90.346 152, 91.397 152.803, 91.710 154 C 91.998 155.100, 92.856 156, 93.617 156 C 94.377 156, 95 156.900, 95 158 C 95 159.619, 95.667 160, 98.500 160 C 101.917 160, 102 159.905, 102 156 C 102 153.211, 101.570 152, 100.579 152 C 99.798 152, 98.866 150.664, 98.507 149.032 C 97.980 146.634, 97.196 145.940, 94.428 145.420 C 92.542 145.067, 91 144.209, 91 143.514 C 91 142.819, 89.594 141.969, 87.875 141.625 C 84.483 140.947, 67.897 141.003, 64.250 141.706 M 91 179.370 C 91 180.258, 89.365 180.924, 86.349 181.264 C 83.551 181.580, 81.340 182.428, 80.799 183.394 C 80.245 184.385, 78.579 185, 76.450 185 C 74.173 185, 73 185.472, 73 186.389 C 73 187.184, 71.505 188.058, 69.500 188.434 C 67.405 188.827, 66 189.675, 66 190.545 C 66 191.345, 65.100 192, 64 192 C 62.900 192, 62 192.639, 62 193.421 C 62 194.202, 60.650 195.138, 59 195.500 C 57.278 195.878, 56 196.804, 56 197.673 C 56 198.506, 55.126 199.416, 54.057 199.695 C 52.927 199.991, 51.848 201.416, 51.478 203.102 C 51.128 204.696, 50.202 206, 49.421 206 C 48.365 206, 48 207.415, 48 211.500 C 48 215.722, 48.348 217, 49.500 217 C 50.325 217, 51 216.325, 51 215.500 C 51 214.667, 51.889 214, 53 214 C 54.111 214, 55 214.667, 55 215.500 C 55 216.548, 56.056 217, 58.500 217 C 61.833 217, 62 216.833, 62 213.500 C 62 211.056, 61.548 210, 60.500 210 C 58.274 210, 58.682 207.316, 61 206.710 C 62.100 206.423, 63 205.470, 63 204.594 C 63 203.717, 63.675 203, 64.500 203 C 65.325 203, 66 202.345, 66 201.545 C 66 200.675, 67.405 199.827, 69.500 199.434 C 71.505 199.058, 73 198.184, 73 197.389 C 73 196.468, 74.180 196, 76.500 196 C 79.333 196, 80 195.619, 80 194 C 80 192.333, 80.667 192, 84 192 C 86.834 192, 88 191.576, 88 190.545 C 88 189.675, 89.405 188.827, 91.500 188.434 C 93.505 188.058, 95 187.184, 95 186.389 C 95 185.372, 96.474 185, 100.500 185 L 106 185 106 181.500 L 106 178 98.500 178 C 92.816 178, 91 178.332, 91 179.370 M 148.745 205.552 C 147.968 209.620, 149.111 217, 150.519 217 C 151.211 217, 152.073 218.575, 152.434 220.500 C 152.827 222.595, 153.675 224, 154.545 224 C 155.541 224, 156 225.104, 156 227.500 C 156 229.820, 156.468 231, 157.389 231 C 158.184 231, 159.058 232.495, 159.434 234.500 C 159.827 236.595, 160.675 238, 161.545 238 C 162.576 238, 163 239.166, 163 242 C 163 245.333, 163.333 246, 165 246 C 166.111 246, 167 246.667, 167 247.500 C 167 248.325, 167.717 249, 168.594 249 C 169.470 249, 170.423 249.900, 170.710 251 C 171.483 253.954, 176.562 253.763, 177.370 250.750 C 178.611 246.117, 178.080 242.834, 176 242.290 C 174.900 242.002, 174 241.144, 174 240.383 C 174 239.623, 173.365 239, 172.588 239 C 171.720 239, 170.915 237.459, 170.500 235 C 170.085 232.541, 169.280 231, 168.412 231 C 167.465 231, 167 229.848, 167 227.500 C 167 225.187, 166.531 224, 165.617 224 C 164.101 224, 163.035 221.032, 163.014 216.750 C 163.005 214.978, 162.466 214, 161.500 214 C 160.667 214, 160 213.111, 160 212 C 160 210.667, 159.333 210, 158 210 C 156.381 210, 156 209.333, 156 206.500 C 156 203.190, 155.817 203, 152.617 203 C 149.783 203, 149.154 203.415, 148.745 205.552 M 251.750 206.689 C 249.399 207.304, 249.149 217, 251.484 217 C 252.753 217, 253.006 220.945, 253.234 244.250 L 253.500 271.500 257 271.500 L 260.500 271.500 260.764 238.750 L 261.027 206 257.264 206.116 C 255.194 206.180, 252.713 206.438, 251.750 206.689 M 98 212 C 98 213.111, 97.333 214, 96.500 214 C 95.452 214, 95 215.056, 95 217.500 C 95 219.944, 95.452 221, 96.500 221 C 97.466 221, 98.005 221.978, 98.014 223.750 C 98.035 228.032, 99.101 231, 100.617 231 C 101.564 231, 102 232.261, 102 235 C 102 237.847, 102.422 239, 103.466 239 C 104.469 239, 105.140 240.576, 105.594 244 C 106.025 247.246, 106.739 249, 107.629 249 C 108.562 249, 109 250.278, 109 253 C 109 256.333, 109.333 257, 111 257 C 112.111 257, 113 257.667, 113 258.500 C 113 259.325, 113.675 260, 114.500 260 C 115.333 260, 116 260.889, 116 262 C 116 263.667, 116.667 264, 120 264 C 122.889 264, 124 263.583, 124 262.500 C 124 261.675, 124.648 261, 125.441 261 C 127.530 261, 128.074 259.620, 127.371 256.103 C 126.824 253.368, 126.350 253, 123.375 253 C 121.168 253, 120 252.521, 120 251.617 C 120 250.856, 119.100 249.998, 118 249.710 C 116.544 249.329, 116 248.346, 116 246.094 C 116 244.010, 115.510 243, 114.500 243 C 113.477 243, 112.996 241.966, 112.986 239.750 C 112.966 235, 111.959 232, 110.383 232 C 109.436 232, 109 230.739, 109 228 C 109 225.111, 108.583 224, 107.500 224 C 106.310 224, 106 222.556, 106 217 L 106 210 102 210 C 98.667 210, 98 210.333, 98 212 M 202 211.500 C 202 212.325, 201.325 213, 200.500 213 C 199.277 213, 199 214.677, 199 222.094 C 199 230.346, 199.185 231.236, 201 231.710 C 202.756 232.169, 203 233.074, 203 239.117 C 203 244.569, 203.312 246, 204.500 246 C 205.523 246, 206.004 247.034, 206.014 249.250 C 206.034 254, 207.041 257, 208.617 257 C 209.377 257, 210 257.619, 210 258.375 C 210 260.016, 214.410 261.046, 218.250 260.300 C 219.762 260.007, 221 259.144, 221 258.383 C 221 257.623, 221.675 257, 222.500 257 C 223.333 257, 224 256.111, 224 255 C 224 253.889, 223.333 253, 222.500 253 C 221.675 253, 221 252.375, 221 251.611 C 221 250.816, 219.505 249.942, 217.500 249.566 L 214 248.909 213.986 242.705 C 213.970 235.134, 213.208 232, 211.383 232 C 210.359 232, 210 230.442, 210 226 C 210 221.584, 209.638 220, 208.629 220 C 207.739 220, 207.025 218.246, 206.594 215 C 206.053 210.921, 205.569 210, 203.966 210 C 202.885 210, 202 210.675, 202 211.500" stroke="none" fill="black" fill-rule="evenodd"/>
</svg>