<svg xmlns="http://www.w3.org/2000/svg" width="300" height="300" viewBox="0 0 300 300" version="1.1">
	<path d="M 139 92 C 139 92.550, 138.325 93, 137.500 93 C 136.500 93, 136 94, 136 96 C 136 98, 136.500 99, 137.500 99 C 138.333 99, 139 99.889, 139 101 C 139 102.100, 138.373 103, 137.607 103 C 136.841 103, 135.955 103.675, 135.638 104.500 C 135.322 105.325, 134.374 106, 133.531 106 C 132.689 106, 132 106.623, 132 107.383 C 132 108.144, 131.100 109.002, 130 109.290 C 128.253 109.747, 127.394 112.163, 127.882 115.250 C 127.947 115.662, 127.365 116, 126.588 116 C 125.720 116, 124.915 117.541, 124.500 120 C 124.085 122.459, 123.280 124, 122.412 124 C 121.592 124, 121 124.996, 121 126.375 C 121 130.273, 119.814 135.003, 118.967 134.480 C 118.533 134.211, 117.888 135.906, 117.535 138.246 C 116.270 146.625, 115.798 148.291, 115.037 147.060 C 114.116 145.569, 113 153.220, 113 161.033 C 113 165.240, 112.594 166.942, 111.491 167.365 C 110.661 167.684, 110.065 168.294, 110.168 168.722 C 110.270 169.150, 109.990 173.513, 109.545 178.417 C 108.809 186.523, 108.906 187.458, 110.613 188.706 C 112.233 189.891, 112.285 190.209, 110.995 191.024 C 109.724 191.828, 109.762 191.972, 111.250 191.985 C 112.580 191.996, 113 192.839, 113 195.500 C 113 197.674, 113.484 199, 114.278 199 C 114.981 199, 116.326 199.900, 117.268 201 C 118.210 202.100, 119.899 203, 121.022 203 C 122.144 203, 123.317 203.663, 123.628 204.473 C 123.939 205.283, 125.837 206.222, 127.847 206.560 C 133.638 207.534, 135.070 208.078, 134.456 209.072 C 134.129 209.600, 136.277 210, 139.441 210 C 142.498 210, 145 209.590, 145 209.088 C 145 208.586, 146.912 207.887, 149.250 207.534 C 158.666 206.113, 159.687 205.791, 157.500 204.929 C 155.961 204.322, 156.372 204.124, 159.281 204.070 C 161.638 204.026, 163.276 203.445, 163.628 202.527 C 163.939 201.717, 165.725 200.767, 167.597 200.416 C 169.527 200.054, 171 199.177, 171 198.389 C 171 197.095, 172.796 196.542, 175.750 196.925 C 176.438 197.015, 177 196.351, 177 195.450 C 177 194.550, 177.900 193.577, 179 193.290 C 180.100 193.002, 181 192.102, 181 191.290 C 181 190.477, 181.900 189.577, 183 189.290 C 184.417 188.919, 185 187.926, 185 185.883 C 185 184.085, 185.524 183, 186.393 183 C 187.913 183, 189 180.902, 189 177.968 C 189 176.940, 189.635 175.740, 190.410 175.300 C 191.505 174.679, 191.916 170.815, 192.250 158 C 192.769 138.106, 192.334 132, 190.399 132 C 189.543 132, 188.995 130.933, 188.986 129.250 C 188.979 127.737, 188.678 125.399, 188.318 124.054 C 187.712 121.788, 187.608 121.751, 186.902 123.554 C 186.203 125.341, 186.135 125.314, 186.070 123.219 C 186.032 121.964, 185.352 120.689, 184.561 120.385 C 183.770 120.081, 182.834 118.521, 182.482 116.916 C 182.129 115.312, 181.202 114, 180.421 114 C 179.639 114, 179 113.100, 179 112 C 179 110.667, 178.333 110, 177 110 C 175.889 110, 175 109.333, 175 108.500 C 175 107.675, 174.283 107, 173.406 107 C 172.530 107, 171.584 106.125, 171.304 105.056 C 170.962 103.747, 169.767 103.012, 167.648 102.806 C 165.748 102.621, 164.602 101.996, 164.757 101.228 C 164.899 100.528, 163.859 99.517, 162.447 98.980 C 161.035 98.443, 160.128 97.602, 160.431 97.112 C 160.734 96.621, 159.411 95.925, 157.491 95.564 C 155.571 95.204, 154 94.311, 154 93.580 C 154 92.848, 152.594 91.969, 150.875 91.625 C 146.059 90.662, 139 90.885, 139 92 M 157 110.500 C 157 114.319, 155.264 115.121, 152.652 112.509 C 151.522 111.379, 151.039 111.318, 150.659 112.259 C 150.351 113.022, 150.128 112.858, 150.079 111.833 C 149.978 109.706, 148.987 109.407, 143.483 109.845 C 139.871 110.132, 139 110.570, 139 112.101 C 139 113.145, 138.361 114, 137.579 114 C 136.798 114, 135.862 115.350, 135.500 117 C 135.138 118.650, 134.202 120, 133.421 120 C 132.407 120, 132 121.269, 132 124.429 C 132 127.094, 131.383 129.474, 130.451 130.406 C 129.188 131.669, 127.080 140.255, 126.990 144.500 C 126.979 145.050, 126.533 144.825, 126 144 C 125.467 143.175, 125.009 142.950, 124.983 143.500 C 124.696 149.471, 122.880 158.456, 121.829 159.105 C 120.855 159.706, 120.408 163.639, 120.157 173.822 C 119.827 187.225, 119.889 187.738, 121.907 188.266 C 123.190 188.601, 124 189.623, 124 190.906 C 124 192.101, 124.644 193, 125.500 193 C 126.325 193, 127 193.675, 127 194.500 C 127 195.325, 127.653 196, 128.450 196 C 129.248 196, 130.277 196.673, 130.737 197.495 C 131.356 198.601, 134.206 199.141, 141.695 199.571 C 150.518 200.077, 151.936 199.936, 152.757 198.470 C 153.344 197.421, 155.447 196.591, 158.349 196.264 C 161.365 195.924, 163 195.258, 163 194.370 C 163 193.616, 163.900 193, 165 193 C 166.100 193, 167 192.345, 167 191.545 C 167 190.675, 168.405 189.827, 170.500 189.434 C 172.505 189.058, 174 188.184, 174 187.389 C 174 186.625, 174.655 186, 175.455 186 C 176.325 186, 177.173 184.595, 177.566 182.500 C 177.942 180.495, 178.816 179, 179.611 179 C 180.375 179, 181 178.100, 181 177 C 181 175.703, 181.667 175, 182.896 175 C 184.636 175, 184.851 173.818, 185.510 160.629 C 186.356 143.720, 185.491 132, 183.399 132 C 182.629 132, 182 131.100, 182 130 C 182 128.889, 181.333 128, 180.500 128 C 179.490 128, 179 126.990, 179 124.906 C 179 122.704, 178.451 121.669, 177.092 121.314 C 176.043 121.040, 174.960 119.957, 174.686 118.908 C 174.412 117.858, 173.470 117, 172.594 117 C 171.717 117, 171 116.325, 171 115.500 C 171 114.675, 170.377 114, 169.617 114 C 168.856 114, 168.010 113.148, 167.738 112.106 C 167.445 110.985, 165.969 109.933, 164.121 109.527 C 162.405 109.150, 161 108.427, 161 107.921 C 161 107.414, 160.100 107, 159 107 C 157.381 107, 157 107.667, 157 110.500" stroke="none" fill="black" fill-rule="evenodd"/>
</svg>