<svg xmlns="http://www.w3.org/2000/svg" width="300" height="300" viewBox="0 0 300 300" version="1.1">
	<path d="M 120 46 C 120 47.100, 119.377 48, 118.617 48 C 117.331 48, 116.045 50.840, 116.014 53.750 C 116.003 54.710, 120.813 55.001, 136.750 55.006 C 162.833 55.014, 174 55.806, 174 57.648 C 174 58.559, 175.306 59, 178 59 C 180.889 59, 182 59.417, 182 60.500 C 182 61.325, 182.675 62, 183.500 62 C 184.325 62, 185 61.325, 185 60.500 C 185 59.675, 185.675 59, 186.500 59 C 187.544 59, 188 57.949, 188 55.545 C 188 52.389, 187.698 52.034, 184.500 51.434 C 182.495 51.058, 181 50.184, 181 49.389 C 181 48.255, 177.692 48, 163 48 C 148.394 48, 145 47.741, 145 46.625 C 145 44.754, 140.511 44, 129.375 44 C 120.667 44, 120 44.142, 120 46 M 185 78.500 C 185 79.725, 183.302 80.002, 175.750 80.009 C 162.996 80.021, 156 80.953, 156 82.639 C 156 83.686, 153.924 84, 147 84 C 140.013 84, 138 84.309, 138 85.381 C 138 86.422, 135.417 86.937, 127.500 87.477 C 119.493 88.023, 117 88.526, 117 89.596 C 117 90.698, 115.046 91, 107.906 91 C 99.654 91, 98.764 91.185, 98.290 93 C 98.002 94.100, 97.144 95, 96.383 95 C 95.623 95, 95 95.900, 95 97 C 95 98.111, 95.667 99, 96.500 99 C 97.325 99, 98 99.675, 98 100.500 C 98 101.742, 99.889 102, 109 102 C 117.667 102, 120 101.708, 120 100.625 C 120 99.254, 124.120 98, 128.625 98 C 130.069 98, 131 97.412, 131 96.500 C 131 95.285, 132.606 95, 139.450 95 C 146.356 95, 148.074 94.690, 148.850 93.304 C 149.549 92.055, 151.538 91.497, 156.400 91.187 C 162.587 90.793, 163 90.899, 163 92.884 C 163 94.636, 162.398 95, 159.500 95 C 156.667 95, 156 95.381, 156 97 C 156 98.111, 155.333 99, 154.500 99 C 153.675 99, 153 99.675, 153 100.500 C 153 101.325, 152.150 102, 151.111 102 C 149.745 102, 149.041 102.967, 148.566 105.500 C 148.173 107.595, 147.325 109, 146.455 109 C 145.655 109, 145 109.900, 145 111 C 145 112.100, 144.345 113, 143.545 113 C 142.675 113, 141.827 114.405, 141.434 116.500 C 141.058 118.505, 140.184 120, 139.389 120 C 138.468 120, 138 121.180, 138 123.500 C 138 126.333, 137.619 127, 136 127 C 134.667 127, 134 127.667, 134 129 C 134 130.100, 133.375 131, 132.611 131 C 131.816 131, 130.942 132.495, 130.566 134.500 C 130.173 136.595, 129.325 138, 128.455 138 C 127.459 138, 127 139.104, 127 141.500 C 127 143.820, 126.532 145, 125.611 145 C 124.816 145, 123.942 146.495, 123.566 148.500 C 123.173 150.595, 122.325 152, 121.455 152 C 120.424 152, 120 153.166, 120 156 C 120 159.333, 119.667 160, 118 160 C 116.267 160, 116 160.667, 116 165 C 116 168.600, 115.611 170, 114.611 170 C 113.816 170, 112.942 171.495, 112.566 173.500 C 112.173 175.595, 111.325 177, 110.455 177 C 109.459 177, 109 178.104, 109 180.500 C 109 182.944, 108.548 184, 107.500 184 C 106.477 184, 105.996 185.034, 105.986 187.250 C 105.966 192, 104.959 195, 103.383 195 C 102.373 195, 102 196.484, 102 200.500 C 102 204.722, 101.652 206, 100.500 206 C 99.462 206, 99 207.044, 99 209.392 C 99 212.192, 99.444 212.895, 101.546 213.422 C 104.490 214.161, 106 213.489, 106 211.441 C 106 210.648, 106.623 210, 107.383 210 C 108.144 210, 109.002 209.100, 109.290 208 C 109.577 206.900, 110.530 206, 111.406 206 C 112.561 206, 113 205.036, 113 202.500 C 113 200.168, 113.467 199, 114.399 199 C 115.396 199, 115.998 196.995, 116.500 192 C 117.002 187.005, 117.604 185, 118.601 185 C 119.664 185, 120 183.346, 120 178.117 C 120 172.074, 120.244 171.169, 122 170.710 C 123.532 170.310, 124 169.346, 124 166.594 C 124 164.066, 124.445 163, 125.500 163 C 126.548 163, 127 161.944, 127 159.500 C 127 156.667, 127.381 156, 129 156 C 130.111 156, 131 155.333, 131 154.500 C 131 153.675, 131.717 153, 132.594 153 C 133.470 153, 134.423 152.100, 134.710 151 C 134.998 149.900, 135.856 149, 136.617 149 C 137.377 149, 138 148.100, 138 147 C 138 145.667, 138.667 145, 140 145 C 141.111 145, 142 144.333, 142 143.500 C 142 142.675, 142.675 142, 143.500 142 C 144.325 142, 145 142.675, 145 143.500 C 145 144.652, 146.278 145, 150.500 145 C 154.646 145, 156 145.358, 156 146.455 C 156 147.325, 157.405 148.173, 159.500 148.566 C 161.505 148.942, 163 149.816, 163 150.611 C 163 151.375, 163.900 152, 165 152 C 166.333 152, 167 152.667, 167 154 C 167 155.619, 167.667 156, 170.500 156 C 173.333 156, 174 156.381, 174 158 C 174 159.100, 174.623 160, 175.383 160 C 176.144 160, 177.002 160.900, 177.290 162 C 177.577 163.100, 178.530 164, 179.406 164 C 180.496 164, 181 164.912, 181 166.883 C 181 168.926, 181.583 169.919, 183 170.290 C 184.532 170.690, 185 171.654, 185 174.406 C 185 176.818, 185.460 178, 186.399 178 C 187.396 178, 187.998 180.005, 188.500 185 C 189.002 189.995, 189.604 192, 190.601 192 C 191.533 192, 192 193.168, 192 195.500 C 192 197.813, 191.531 199, 190.617 199 C 188.858 199, 188.031 202.098, 188.014 208.750 C 188.003 212.744, 187.641 214, 186.500 214 C 185.534 214, 184.995 214.978, 184.986 216.750 C 184.965 221.032, 183.899 224, 182.383 224 C 181.623 224, 181 224.900, 181 226 C 181 227.100, 180.375 228, 179.611 228 C 178.816 228, 177.942 229.495, 177.566 231.500 C 177.173 233.595, 176.325 235, 175.455 235 C 174.655 235, 174 235.900, 174 237 C 174 238.333, 173.333 239, 172 239 C 170.667 239, 170 239.667, 170 241 C 170 242.111, 169.333 243, 168.500 243 C 167.675 243, 167 243.675, 167 244.500 C 167 245.583, 165.889 246, 163 246 C 160.111 246, 159 246.417, 159 247.500 C 159 248.633, 157.778 249, 154 249 C 150.222 249, 149 248.633, 149 247.500 C 149 246.667, 148.111 246, 147 246 C 145.667 246, 145 245.333, 145 244 C 145 242.889, 144.333 242, 143.500 242 C 142.675 242, 142 241.325, 142 240.500 C 142 239.667, 141.111 239, 140 239 C 138.242 239, 138 238.333, 138 233.500 C 138 228.667, 137.758 228, 136 228 C 134.148 228, 134 228.667, 134 237 C 134 245.333, 134.148 246, 136 246 C 137.333 246, 138 246.667, 138 248 C 138 249.333, 138.667 250, 140 250 C 141.111 250, 142 250.667, 142 251.500 C 142 252.325, 142.689 253, 143.531 253 C 144.374 253, 145.303 253.627, 145.597 254.393 C 146.237 256.059, 155.718 257.441, 160.022 256.495 C 161.660 256.135, 163 255.202, 163 254.421 C 163 253.430, 164.211 253, 167 253 C 169.889 253, 171 252.583, 171 251.500 C 171 250.675, 171.675 250, 172.500 250 C 173.333 250, 174 249.111, 174 248 C 174 246.381, 174.667 246, 177.500 246 C 180.833 246, 181 245.833, 181 242.500 C 181 239.667, 181.381 239, 183 239 C 184.333 239, 185 238.333, 185 237 C 185 235.900, 185.655 235, 186.455 235 C 187.325 235, 188.173 233.595, 188.566 231.500 C 188.942 229.495, 189.816 228, 190.611 228 C 191.532 228, 192 226.820, 192 224.500 C 192 222.197, 192.470 221, 193.375 221 C 194.948 221, 196 216.741, 196 210.375 C 196 207.153, 196.395 206, 197.500 206 C 198.753 206, 199 203.944, 199 193.500 C 199 183.056, 198.753 181, 197.500 181 C 196.363 181, 196 179.767, 196 175.906 C 196 171.654, 195.670 170.726, 194 170.290 C 192.497 169.897, 192 168.926, 192 166.383 C 192 163.667, 191.606 163, 190 163 C 188.667 163, 188 162.333, 188 161 C 188 159.889, 187.333 159, 186.500 159 C 185.675 159, 185 158.325, 185 157.500 C 185 156.675, 184.377 156, 183.617 156 C 182.856 156, 181.998 155.100, 181.710 154 C 181.423 152.900, 180.470 152, 179.594 152 C 178.717 152, 178 151.325, 178 150.500 C 178 149.667, 177.111 149, 176 149 C 174.667 149, 174 148.333, 174 147 C 174 145.667, 173.333 145, 172 145 C 170.900 145, 170 144.345, 170 143.545 C 170 142.675, 168.595 141.827, 166.500 141.434 C 164.495 141.058, 163 140.184, 163 139.389 C 163 138.468, 161.820 138, 159.500 138 C 157.187 138, 156 137.531, 156 136.617 C 156 134.897, 152.923 134.031, 146.750 134.014 C 143.201 134.003, 142 133.621, 142 132.500 C 142 131.675, 142.625 131, 143.389 131 C 144.184 131, 145.058 129.505, 145.434 127.500 C 145.827 125.405, 146.675 124, 147.545 124 C 148.541 124, 149 122.896, 149 120.500 C 149 118.056, 149.452 117, 150.500 117 C 151.333 117, 152 116.111, 152 115 C 152 113.667, 152.667 113, 154 113 C 155.333 113, 156 112.333, 156 111 C 156 109.900, 156.623 109, 157.383 109 C 158.144 109, 159.002 108.100, 159.290 107 C 159.577 105.900, 160.530 105, 161.406 105 C 162.283 105, 163 104.325, 163 103.500 C 163 102.667, 163.889 102, 165 102 C 166.100 102, 167 101.363, 167 100.585 C 167 99.554, 169.032 98.980, 174.500 98.468 C 179.878 97.964, 182 97.374, 182 96.383 C 182 95.297, 184.169 95, 192.094 95 C 201.346 95, 202.231 94.833, 202.710 93 C 203 91.893, 204.074 91, 205.117 91 C 206.733 91, 207 90.220, 207 85.500 C 207 80.667, 206.758 80, 205 80 C 203.889 80, 203 79.333, 203 78.500 C 203 77.417, 201.889 77, 199 77 C 196.111 77, 195 77.417, 195 78.500 C 195 79.325, 194.325 80, 193.500 80 C 192.675 80, 192 79.325, 192 78.500 C 192 77.452, 190.944 77, 188.500 77 C 186.056 77, 185 77.452, 185 78.500 M 171 89.500 C 171 90.738, 172.833 91, 181.500 91 C 190.167 91, 192 90.738, 192 89.500 C 192 88.262, 190.167 88, 181.500 88 C 172.833 88, 171 88.262, 171 89.500" stroke="none" fill="black" fill-rule="evenodd"/>
</svg>