<svg xmlns="http://www.w3.org/2000/svg" width="300" height="300" viewBox="0 0 300 300" version="1.1">
	<path d="M 201.605 89.700 C 200.081 90.104, 199.983 90.376, 201.105 91.086 C 202.229 91.798, 202.160 91.997, 200.750 92.110 C 199.787 92.187, 198.550 92.362, 198 92.500 C 197.450 92.638, 196.550 92.806, 196 92.875 C 195.450 92.944, 195 93.675, 195 94.500 C 195 95.495, 194.005 96, 192.045 96 C 189.425 96, 189.011 96.423, 188.390 99.733 C 187.808 102.836, 187.559 103.132, 186.915 101.483 C 186.255 99.793, 186.130 99.758, 186.070 101.250 C 186.027 102.337, 185.207 103, 183.906 103 C 182.654 103, 181.603 103.803, 181.290 105 C 181.002 106.100, 180.197 107, 179.500 107 C 178.803 107, 177.998 107.900, 177.710 109 C 177.423 110.100, 176.470 111, 175.594 111 C 174.490 111, 174 111.922, 174 114 C 174 116.027, 173.503 117, 172.469 117 C 171.626 117, 170.678 117.675, 170.362 118.500 C 170.045 119.325, 169.212 120, 168.510 120 C 167.808 120, 166.998 120.900, 166.710 122 C 166.423 123.100, 165.470 124, 164.594 124 C 163.667 124, 163 124.837, 163 126 C 163 127.100, 162.375 128, 161.611 128 C 160.816 128, 159.942 129.495, 159.566 131.500 C 158.966 134.698, 158.611 135, 155.455 135 C 152.275 135, 152 134.759, 152 131.969 C 152 130.197, 151.377 128.698, 150.500 128.362 C 149.564 128.002, 149 126.476, 149 124.299 C 149 121.654, 148.518 120.687, 147 120.290 C 145.344 119.857, 145 118.926, 145 114.883 C 145 111.209, 144.629 110, 143.500 110 C 142.450 110, 142 108.941, 142 106.468 C 142 103.807, 141.488 102.746, 139.926 102.168 C 138.785 101.746, 137.885 101.086, 137.926 100.700 C 138.250 97.643, 137.788 96, 136.607 96 C 135.841 96, 134.955 96.675, 134.638 97.500 C 134.322 98.325, 133.374 99, 132.531 99 C 131.326 99, 131 100.279, 131 105 C 131 109.448, 131.359 111, 132.386 111 C 133.263 111, 134.021 112.655, 134.448 115.500 C 134.888 118.435, 135.623 120, 136.561 120 C 137.573 120, 138 121.187, 138 124 C 138 126.567, 138.427 127.910, 139.191 127.750 C 139.845 127.613, 140.538 128.400, 140.730 129.500 C 141.649 134.777, 142.134 136, 143.306 136 C 144.017 136, 144.682 137.413, 144.819 139.211 C 144.954 140.977, 145.538 142.714, 146.117 143.073 C 146.697 143.431, 147.190 144.123, 147.213 144.612 C 147.236 145.100, 147.478 146.082, 147.751 146.793 C 148.024 147.504, 147.930 148.404, 147.542 148.793 C 147.155 149.182, 139.111 149.692, 129.669 149.926 C 119.431 150.180, 113.913 150.632, 116 151.045 C 118.140 151.468, 114.579 151.788, 106.832 151.868 C 93.313 152.009, 91 152.409, 91 154.607 C 91 155.373, 90.325 156, 89.500 156 C 88.421 156, 88.020 157.052, 88.070 159.750 C 88.127 162.758, 88.311 163.104, 89 161.500 C 89.735 159.790, 89.870 159.754, 89.930 161.250 C 89.992 162.789, 91.146 163, 99.500 163 C 106.567 163, 108.936 162.680, 108.750 161.750 C 108.561 160.807, 111.999 160.432, 122.750 160.223 C 134.985 159.984, 137 160.161, 137 161.473 C 137 162.313, 136.539 163, 135.975 163 C 135.412 163, 134.512 164.152, 133.977 165.560 C 133.442 166.968, 132.552 167.841, 132 167.500 C 131.448 167.159, 130.558 168.032, 130.023 169.440 C 129.488 170.848, 128.476 172.007, 127.775 172.015 C 126.822 172.027, 126.849 172.252, 127.883 172.907 C 128.901 173.551, 128.438 173.965, 126.133 174.471 C 124.410 174.849, 123 175.746, 123 176.463 C 123 177.180, 122.100 178.002, 121 178.290 C 119.900 178.577, 119 179.530, 119 180.406 C 119 181.283, 118.325 182, 117.500 182 C 116.675 182, 116 182.675, 116 183.500 C 116 184.341, 115.108 185, 113.969 185 C 112.851 185, 111.678 185.675, 111.362 186.500 C 111.045 187.325, 110.159 188, 109.393 188 C 108.434 188, 108 189.248, 108 192 C 108 195.912, 108.078 196, 111.531 196 C 113.748 196, 115.277 195.441, 115.638 194.500 C 115.955 193.675, 116.728 192.992, 117.357 192.983 C 117.986 192.973, 119.560 191.848, 120.855 190.483 C 122.150 189.117, 123.950 187.968, 124.855 187.930 C 126.122 187.876, 126.041 187.679, 124.500 187.071 C 122.740 186.378, 122.878 186.199, 125.653 185.583 C 127.845 185.097, 129.172 183.998, 130.009 181.979 C 130.671 180.381, 132.501 178.503, 134.077 177.805 C 135.860 177.016, 137.166 175.523, 137.532 173.852 C 137.857 172.375, 138.770 170.919, 139.561 170.615 C 140.352 170.311, 141 169.374, 141 168.531 C 141 167.689, 141.675 167, 142.500 167 C 143.325 167, 144 166.311, 144 165.469 C 144 164.626, 144.787 163.642, 145.750 163.281 C 146.713 162.919, 147.950 162.066, 148.500 161.385 C 150.503 158.902, 159 159.892, 159 162.608 C 159 163.374, 159.625 164, 160.389 164 C 161.177 164, 162.054 165.473, 162.416 167.403 C 162.767 169.275, 163.675 171.045, 164.433 171.336 C 165.191 171.627, 166.128 173.305, 166.514 175.066 C 167.030 177.414, 167.451 177.898, 168.093 176.883 C 168.789 175.785, 168.973 175.861, 168.985 177.250 C 168.993 178.213, 169.702 179, 170.559 179 C 171.416 179, 171.854 179.427, 171.531 179.950 C 170.850 181.052, 174.426 183.241, 175.369 182.298 C 175.716 181.951, 176 182.642, 176 183.833 C 176 185.025, 176.436 186, 176.969 186 C 177.501 186, 177.678 186.675, 177.362 187.500 C 177.045 188.325, 177.251 189, 177.820 189 C 178.388 189, 179.059 188.213, 179.311 187.250 C 179.562 186.287, 179.820 187.188, 179.884 189.250 C 179.961 191.727, 180.471 193, 181.389 193 C 182.184 193, 183.058 194.495, 183.434 196.500 C 183.827 198.595, 184.675 200, 185.545 200 C 186.345 200, 187 200.900, 187 202 C 187 203.100, 187.655 204, 188.455 204 C 189.325 204, 190.173 205.405, 190.566 207.500 C 191.163 210.682, 191.530 211, 194.611 211 C 196.830 211, 198 210.522, 198 209.617 C 198 208.856, 198.900 207.998, 200 207.710 C 201.655 207.277, 201.998 206.353, 201.986 202.344 C 201.968 195.812, 201.133 193.012, 199.401 193.676 C 198.631 193.972, 198 194.841, 198 195.607 C 198 196.373, 197.100 197, 196 197 C 194.667 197, 194 196.333, 194 195 C 194 193.900, 193.375 193, 192.611 193 C 191.816 193, 190.942 191.505, 190.566 189.500 C 190.173 187.405, 189.325 186, 188.455 186 C 187.653 186, 187 185.076, 187 183.941 C 187 182.736, 186.557 182.156, 185.933 182.542 C 185.345 182.905, 184.619 182.257, 184.316 181.101 C 184.014 179.945, 183.102 179, 182.290 179 C 181.477 179, 180.577 178.100, 180.290 177 C 180.002 175.900, 179.194 175, 178.495 175 C 177.795 175, 176.927 173.425, 176.566 171.500 C 176.173 169.405, 175.325 168, 174.455 168 C 173.655 168, 173 167.100, 173 166 C 173 164.829, 172.333 164, 171.392 164 C 170.137 164, 169.935 163.396, 170.473 161.252 C 171.300 157.956, 172.113 157.051, 172.720 158.750 C 173.249 160.230, 177 160.449, 177 159 C 177 157.448, 181.965 157.822, 183.643 159.500 C 184.665 160.522, 187.190 161, 191.571 161 C 196.619 161, 198 161.322, 198 162.500 C 198 163.539, 199.044 164, 201.393 164 C 205.145 164, 206 162.799, 206 157.530 C 206 154.542, 205.662 154.159, 202.500 153.566 C 200.405 153.173, 199 152.325, 199 151.455 C 199 150.251, 196.590 150, 185.050 150 C 173.281 150, 170.959 149.749, 170.201 148.394 C 169.659 147.426, 167.446 146.579, 164.628 146.262 C 159.273 145.658, 158.055 144.576, 160.972 143.015 C 162.087 142.418, 163 141.270, 163 140.465 C 163 139.659, 163.655 139, 164.455 139 C 165.325 139, 166.173 137.595, 166.566 135.500 C 167.041 132.967, 167.745 132, 169.111 132 C 170.150 132, 171 131.325, 171 130.500 C 171 129.675, 171.675 129, 172.500 129 C 173.333 129, 174 128.111, 174 127 C 174 125.837, 174.667 125, 175.594 125 C 176.470 125, 177.423 124.100, 177.710 123 C 177.998 121.900, 178.856 121, 179.617 121 C 180.377 121, 181 120.100, 181 119 C 181 117.889, 181.667 117, 182.500 117 C 183.325 117, 184 116.325, 184 115.500 C 184 114.675, 184.848 114, 185.883 114 C 186.926 114, 188 113.107, 188.290 112 C 188.577 110.900, 189.530 110, 190.406 110 C 191.283 110, 192 109.325, 192 108.500 C 192 107.675, 192.623 107, 193.383 107 C 194.144 107, 195.002 106.100, 195.290 105 C 195.680 103.508, 196.661 102.996, 199.156 102.985 C 201.543 102.974, 202.091 102.710, 201.069 102.064 C 200.008 101.393, 200.574 100.983, 203.254 100.480 C 205.243 100.107, 207.312 100.075, 207.851 100.408 C 209.168 101.222, 214 99.323, 214 97.993 C 214 97.411, 213.067 96.590, 211.926 96.168 C 210.785 95.746, 209.885 95.086, 209.926 94.700 C 210.152 92.564, 209.854 92, 208.500 92 C 207.675 92, 207.113 91.448, 207.250 90.774 C 207.521 89.444, 204.638 88.895, 201.605 89.700 M 123.813 151.683 C 124.534 151.972, 125.397 151.936, 125.729 151.604 C 126.061 151.272, 125.471 151.036, 124.417 151.079 C 123.252 151.127, 123.015 151.364, 123.813 151.683" stroke="none" fill="black" fill-rule="evenodd"/>
</svg>