<svg xmlns="http://www.w3.org/2000/svg" width="300" height="300" viewBox="0 0 300 300" version="1.1">
	<path d="M 152.710 51 C 152.397 52.197, 151.346 53, 150.094 53 C 148.899 53, 148 53.644, 148 54.500 C 148 55.325, 147.325 56, 146.500 56 C 145.667 56, 145 56.889, 145 58 C 145 59.333, 144.333 60, 143 60 C 141.889 60, 141 60.667, 141 61.500 C 141 62.325, 140.325 63, 139.500 63 C 138.667 63, 138 63.889, 138 65 C 138 66.333, 137.333 67, 136 67 C 134.667 67, 134 67.667, 134 69 C 134 70.100, 133.377 71, 132.617 71 C 131.856 71, 130.998 71.900, 130.710 73 C 130.423 74.100, 129.470 75, 128.594 75 C 127.490 75, 127 75.922, 127 78 C 127 80.078, 126.510 81, 125.406 81 C 124.530 81, 123.577 81.900, 123.290 83 C 123.002 84.100, 122.144 85, 121.383 85 C 120.623 85, 120 85.900, 120 87 C 120 88.333, 119.333 89, 118 89 C 116.667 89, 116 89.667, 116 91 C 116 92.111, 115.333 93, 114.500 93 C 113.675 93, 113 93.675, 113 94.500 C 113 95.333, 112.111 96, 111 96 C 109.667 96, 109 96.667, 109 98 C 109 99.100, 108.361 100, 107.579 100 C 106.798 100, 105.862 101.350, 105.500 103 C 105.138 104.650, 104.202 106, 103.421 106 C 102.639 106, 102 106.848, 102 107.883 C 102 108.926, 101.107 110, 100 110.290 C 98.900 110.577, 98 111.530, 98 112.406 C 98 113.283, 97.375 114, 96.611 114 C 95.822 114, 94.945 115.478, 94.580 117.428 C 94.064 120.175, 93.360 120.982, 91.033 121.493 C 88.862 121.970, 87.968 122.870, 87.486 125.065 C 87.131 126.679, 86.202 128, 85.421 128 C 84.639 128, 84 128.900, 84 130 C 84 131.333, 83.333 132, 82 132 C 80.900 132, 80 132.623, 80 133.383 C 80 134.144, 79.100 135.002, 78 135.290 C 76.900 135.577, 76 136.530, 76 137.406 C 76 138.514, 75.076 139, 72.969 139 C 71.197 139, 69.698 139.623, 69.362 140.500 C 69.045 141.325, 68.159 142, 67.393 142 C 66.434 142, 66 143.248, 66 146 L 66 150 71 150 C 74.908 150, 76 149.652, 76 148.406 C 76 147.530, 76.900 146.577, 78 146.290 C 79.100 146.002, 80 145.102, 80 144.290 C 80 143.477, 80.900 142.577, 82 142.290 C 83.100 142.002, 84 141.144, 84 140.383 C 84 139.623, 84.623 139, 85.383 139 C 86.144 139, 87.002 138.100, 87.290 137 C 87.577 135.900, 88.530 135, 89.406 135 C 90.283 135, 91 134.325, 91 133.500 C 91 132.675, 91.655 132, 92.455 132 C 93.325 132, 94.173 130.595, 94.566 128.500 C 95.041 125.967, 95.745 125, 97.111 125 C 98.150 125, 99 124.325, 99 123.500 C 99 122.675, 99.675 122, 100.500 122 C 101.333 122, 102 121.111, 102 120 C 102 118.837, 102.667 118, 103.594 118 C 104.470 118, 105.423 117.100, 105.710 116 C 105.998 114.900, 106.856 114, 107.617 114 C 108.377 114, 109 113.100, 109 112 C 109 110.667, 109.667 110, 111 110 C 112.333 110, 113 109.333, 113 108 C 113 106.900, 113.639 106, 114.421 106 C 115.202 106, 116.138 104.650, 116.500 103 C 116.862 101.350, 117.798 100, 118.579 100 C 119.361 100, 120 99.100, 120 98 C 120 96.667, 120.667 96, 122 96 C 123.333 96, 124 95.333, 124 94 C 124 92.889, 124.667 92, 125.500 92 C 126.325 92, 127 91.325, 127 90.500 C 127 89.667, 127.889 89, 129 89 C 130.333 89, 131 88.333, 131 87 C 131 85.900, 131.655 85, 132.455 85 C 133.325 85, 134.173 83.595, 134.566 81.500 C 134.942 79.495, 135.816 78, 136.611 78 C 137.375 78, 138 77.325, 138 76.500 C 138 75.675, 138.675 75, 139.500 75 C 140.325 75, 141 75.675, 141 76.500 C 141 77.325, 141.850 78, 142.889 78 C 144.255 78, 144.959 78.967, 145.434 81.500 C 145.827 83.595, 146.675 85, 147.545 85 C 148.345 85, 149 85.655, 149 86.455 C 149 87.325, 150.405 88.173, 152.500 88.566 C 154.425 88.927, 156 89.797, 156 90.500 C 156 91.203, 157.575 92.073, 159.500 92.434 C 161.595 92.827, 163 93.675, 163 94.545 C 163 95.345, 163.900 96, 165 96 C 166.100 96, 167 96.623, 167 97.383 C 167 98.899, 169.968 99.965, 174.250 99.986 C 176.022 99.995, 177 100.534, 177 101.500 C 177 102.583, 178.111 103, 181 103 C 184.333 103, 185 103.333, 185 105 C 185 106.733, 185.667 107, 190 107 C 193.639 107, 195 107.384, 195 108.412 C 195 109.280, 196.541 110.085, 199 110.500 C 201.459 110.915, 203 111.720, 203 112.588 C 203 113.667, 204.622 114, 209.883 114 C 215.926 114, 216.831 114.244, 217.290 116 C 217.671 117.456, 218.654 118, 220.906 118 C 222.990 118, 224 118.490, 224 119.500 C 224 120.648, 225.265 121, 229.383 121 C 233.926 121, 234.848 120.688, 235.290 119 C 235.577 117.900, 236.579 117, 237.515 117 C 238.872 117, 239.077 116.443, 238.527 114.252 C 238.148 112.741, 237.632 111.298, 237.380 111.047 C 237.129 110.796, 234.016 110.405, 230.462 110.178 C 225.825 109.883, 224 109.376, 224 108.384 C 224 107.337, 222.294 107, 217 107 C 210.667 107, 210 106.810, 210 105 C 210 103.242, 209.333 103, 204.500 103 C 200.474 103, 199 102.628, 199 101.611 C 199 100.816, 197.505 99.942, 195.500 99.566 C 193.405 99.173, 192 98.325, 192 97.455 C 192 96.358, 190.646 96, 186.500 96 C 181.667 96, 181 95.758, 181 94 C 181 92.381, 180.333 92, 177.500 92 C 175.056 92, 174 91.548, 174 90.500 C 174 89.667, 173.111 89, 172 89 C 170.667 89, 170 88.333, 170 87 C 170 85.381, 169.333 85, 166.500 85 C 164.104 85, 163 84.541, 163 83.545 C 163 82.675, 161.595 81.827, 159.500 81.434 C 157.495 81.058, 156 80.184, 156 79.389 C 156 78.625, 155.325 78, 154.500 78 C 153.675 78, 153 77.283, 153 76.406 C 153 75.530, 152.100 74.577, 151 74.290 C 149.900 74.002, 149 73.144, 149 72.383 C 149 71.623, 148.100 71, 147 71 C 145.667 71, 145 70.333, 145 69 C 145 67.667, 145.667 67, 147 67 C 148.111 67, 149 66.333, 149 65.500 C 149 64.675, 149.675 64, 150.500 64 C 151.333 64, 152 63.111, 152 62 C 152 60.667, 152.667 60, 154 60 C 155.111 60, 156 59.333, 156 58.500 C 156 57.675, 156.675 57, 157.500 57 C 158.325 57, 159 57.675, 159 58.500 C 159 59.333, 159.889 60, 161 60 C 162.333 60, 163 60.667, 163 62 C 163 64.090, 163.993 64.376, 167.750 63.370 C 169.405 62.926, 170 62.025, 170 59.963 C 170 57.660, 169.463 57.041, 167 56.500 C 165.350 56.138, 164 55.202, 164 54.421 C 164 53.639, 163.152 53, 162.117 53 C 161.074 53, 160 52.107, 159.710 51 C 159.335 49.565, 158.346 49, 156.210 49 C 154.074 49, 153.086 49.565, 152.710 51 M 163 108.500 C 163 109.676, 161.628 110, 156.651 110 C 144.726 110, 135 111.189, 135 112.647 C 135 113.559, 133.696 114, 131 114 C 128.166 114, 127 114.424, 127 115.455 C 127 116.325, 125.595 117.173, 123.500 117.566 C 120.151 118.194, 118.422 121, 121.383 121 C 122.144 121, 123.018 121.962, 123.326 123.138 C 123.847 125.132, 124.363 125.243, 130.943 124.772 L 138 124.267 138 133.634 C 138 141.293, 138.273 143, 139.500 143 C 140.325 143, 141 143.675, 141 144.500 C 141 145.672, 139.633 146.003, 134.750 146.014 C 127.135 146.030, 124 146.790, 124 148.617 C 124 149.377, 123.100 150, 122 150 C 120.381 150, 120 150.667, 120 153.500 L 120 157 131 157 L 142 157 142 160.500 C 142 162.830, 142.467 164, 143.397 164 C 144.455 164, 144.880 166.045, 145.147 172.417 C 145.490 180.596, 146.207 183.123, 147.750 181.586 C 148.162 181.175, 148.647 174.800, 148.827 167.420 L 149.155 154 153.931 154 C 163.160 154, 171 152.786, 171 151.358 C 171 150.611, 171.675 150, 172.500 150 C 173.325 150, 174 150.675, 174 151.500 C 174 152.722, 175.667 153, 183 153 C 190.333 153, 192 152.722, 192 151.500 C 192 150.667, 192.889 150, 194 150 C 196.090 150, 196.376 149.007, 195.370 145.250 C 194.776 143.036, 194.510 143, 178.883 143 C 165.431 143, 163 143.230, 163 144.500 C 163 145.690, 161.556 146, 156 146 L 149 146 149 139 C 149 133.727, 148.661 132, 147.625 132 C 146.017 132, 144.855 127.269, 145.685 124.098 C 146.053 122.689, 147.292 121.692, 149.130 121.324 C 150.708 121.008, 152 120.131, 152 119.375 C 152 118.493, 153.166 117.995, 155.250 117.986 C 160 117.966, 163 116.959, 163 115.383 C 163 114.308, 165.004 114, 172 114 L 181 114 181 117.500 C 181 119.944, 180.548 121, 179.500 121 C 178.410 121, 178 122.124, 178 125.117 C 178 128.898, 178.183 129.184, 180.250 128.630 C 181.488 128.299, 183.063 128.021, 183.750 128.014 C 184.438 128.006, 185 127.325, 185 126.500 C 185 125.675, 185.635 125, 186.412 125 C 188.204 125, 189.372 118.499, 188.456 113.619 C 188.063 111.524, 187.193 110, 186.389 110 C 185.625 110, 185 109.325, 185 108.500 C 185 107.258, 183.111 107, 174 107 C 164.889 107, 163 107.258, 163 108.500 M 120 195 C 120 201.996, 120.308 204, 121.383 204 C 123.103 204, 123.969 207.077, 123.986 213.250 C 123.997 216.799, 124.379 218, 125.500 218 C 126.523 218, 127.004 219.034, 127.014 221.250 C 127.034 226, 128.041 229, 129.617 229 C 130.531 229, 131 230.187, 131 232.500 C 131 234.944, 131.452 236, 132.500 236 C 133.333 236, 134 236.889, 134 238 C 134 239.333, 134.667 240, 136 240 C 137.810 240, 138 240.667, 138 247 C 138 252.556, 138.310 254, 139.500 254 C 140.325 254, 141 253.371, 141 252.603 C 141 251.542, 143.067 251.120, 149.570 250.853 C 156.454 250.569, 158.333 250.156, 159.120 248.750 C 159.758 247.611, 161.303 247, 163.550 247 C 165.950 247, 167 246.544, 167 245.500 C 167 244.348, 168.278 244, 172.500 244 C 177.333 244, 178 243.758, 178 242 C 178 240.381, 178.667 240, 181.500 240 C 183.896 240, 185 239.541, 185 238.545 C 185 237.675, 186.405 236.827, 188.500 236.434 C 191.682 235.837, 192 235.470, 192 232.389 C 192 229.107, 191.874 229, 188.039 229 C 185.286 229, 183.473 229.649, 182.095 231.128 C 180.942 232.366, 179.461 233.007, 178.556 232.660 C 176.405 231.834, 176.605 229.916, 178.906 229.314 C 180.120 228.997, 181.044 227.579, 181.451 225.408 C 182.001 222.480, 182.491 222, 184.934 222 C 187.392 222, 187.866 221.525, 188.434 218.500 C 188.827 216.405, 189.675 215, 190.545 215 C 191.345 215, 192 214.100, 192 213 C 192 211.900, 192.623 211, 193.383 211 C 195.103 211, 195.969 207.923, 195.986 201.750 C 195.999 197.413, 195.794 197, 193.625 197 C 188.902 197, 185 195.749, 185 194.236 C 185 192.999, 184.050 192.834, 179.825 193.334 C 176.979 193.671, 174.296 194.522, 173.862 195.224 C 173.353 196.048, 170.047 196.625, 164.537 196.853 C 158.062 197.120, 156 197.543, 156 198.603 C 156 199.616, 154.601 200, 150.906 200 C 146.654 200, 145.726 200.330, 145.290 202 C 144.831 203.756, 143.926 204, 137.883 204 L 131 204 131 197.117 C 131 191.074, 130.756 190.169, 129 189.710 C 127.900 189.423, 127 188.470, 127 187.594 C 127 186.439, 126.036 186, 123.500 186 L 120 186 120 195 M 167 205.375 C 167 206.948, 162.741 208, 156.375 208 C 153.153 208, 152 208.395, 152 209.500 C 152 210.548, 150.944 211, 148.500 211 C 146.104 211, 145 211.459, 145 212.455 C 145 213.325, 143.595 214.173, 141.500 214.566 C 138.014 215.220, 138 215.245, 138 220.611 C 138 224.660, 138.362 226, 139.455 226 C 140.325 226, 141.173 227.405, 141.566 229.500 C 141.942 231.505, 142.816 233, 143.611 233 C 144.532 233, 145 234.180, 145 236.500 C 145 239.810, 145.183 240, 148.383 240 C 150.926 240, 151.897 239.503, 152.290 238 C 152.690 236.468, 153.654 236, 156.406 236 C 158.934 236, 160 235.555, 160 234.500 C 160 233.675, 160.575 233, 161.278 233 C 161.981 233, 163.326 232.100, 164.268 231 C 165.210 229.900, 166.885 229, 167.990 229 C 169.162 229, 170 228.336, 170 227.406 C 170 226.530, 170.900 225.577, 172 225.290 C 173.407 224.922, 174 223.926, 174 221.929 C 174 219.492, 174.481 219, 177.406 218.452 C 180.307 217.907, 180.907 217.307, 181.452 214.406 C 181.831 212.385, 182.682 211, 183.545 211 C 184.541 211, 185 209.896, 185 207.500 L 185 204 176 204 C 169.030 204, 167 204.310, 167 205.375" stroke="none" fill="black" fill-rule="evenodd"/>
</svg>