<svg xmlns="http://www.w3.org/2000/svg" width="300" height="300" viewBox="0 0 300 300" version="1.1">
	<path d="M 154 49.594 C 154 50.470, 153.100 51.423, 152 51.710 C 150.900 51.998, 150 52.803, 150 53.500 C 150 54.197, 149.100 55.002, 148 55.290 C 146.565 55.665, 146 56.654, 146 58.790 C 146 60.926, 145.435 61.914, 144 62.290 C 142.900 62.577, 142 63.530, 142 64.406 C 142 65.283, 141.325 66, 140.500 66 C 139.667 66, 139 66.889, 139 68 C 139 69.111, 138.333 70, 137.500 70 C 136.675 70, 136 70.675, 136 71.500 C 136 72.333, 135.111 73, 134 73 C 132.667 73, 132 73.667, 132 75 C 132 76.100, 131.377 77, 130.617 77 C 129.856 77, 128.998 77.900, 128.710 79 C 128.423 80.100, 127.470 81, 126.594 81 C 125.717 81, 125 81.675, 125 82.500 C 125 83.325, 124.325 84, 123.500 84 C 122.675 84, 122 84.675, 122 85.500 C 122 86.356, 121.101 87, 119.906 87 C 118.654 87, 117.603 87.803, 117.290 89 C 117.002 90.100, 116.144 91, 115.383 91 C 114.469 91, 114 92.187, 114 94.500 C 114 97.333, 113.619 98, 112 98 C 110.667 98, 110 98.667, 110 100 C 110 101.619, 109.333 102, 106.500 102 C 103.667 102, 103 102.381, 103 104 C 103 105.111, 102.333 106, 101.500 106 C 100.675 106, 100 106.675, 100 107.500 C 100 108.333, 99.111 109, 98 109 C 96.667 109, 96 109.667, 96 111 C 96 112.619, 95.333 113, 92.500 113 C 89.167 113, 89 113.167, 89 116.500 C 89 119.833, 89.167 120, 92.500 120 C 94.820 120, 96 119.532, 96 118.611 C 96 117.816, 97.495 116.942, 99.500 116.566 C 101.595 116.173, 103 115.325, 103 114.455 C 103 113.655, 103.900 113, 105 113 C 106.100 113, 107 112.345, 107 111.545 C 107 110.675, 108.405 109.827, 110.500 109.434 C 112.505 109.058, 114 108.184, 114 107.389 C 114 106.625, 114.616 106, 115.368 106 C 116.467 106, 116.881 110.632, 117.467 129.461 C 118.315 156.691, 117.504 174, 115.381 174 C 114.272 174, 114 176.761, 114 188 C 114 201.333, 114.095 202, 116 202 C 117.100 202, 118 201.570, 118 201.045 C 118 200.520, 119.575 199.795, 121.500 199.434 C 124.682 198.837, 125 198.470, 125 195.389 C 125 193.043, 125.462 192, 126.500 192 C 127.548 192, 128 190.944, 128 188.500 C 128 186.056, 127.548 185, 126.500 185 C 125.236 185, 125 182.722, 125 170.500 C 125 158.278, 125.236 156, 126.500 156 C 127.700 156, 128 154.500, 128 148.500 C 128 142.500, 127.700 141, 126.500 141 C 125.500 141, 125 140, 125 138 C 125 135.238, 125.278 135, 128.500 135 C 130.944 135, 132 135.452, 132 136.500 C 132 137.548, 133.056 138, 135.500 138 C 138.333 138, 139 138.381, 139 140 C 139 141.333, 139.667 142, 141 142 C 142.111 142, 143 142.667, 143 143.500 C 143 144.753, 145.056 145, 155.500 145 C 167.333 145, 168 145.107, 168 147 C 168 148.333, 168.667 149, 170 149 C 171.111 149, 172 149.667, 172 150.500 C 172 151.325, 172.675 152, 173.500 152 C 174.325 152, 175 151.347, 175 150.550 C 175 149.752, 175.787 148.635, 176.750 148.068 C 177.985 147.340, 178.159 146.810, 177.342 146.266 C 176.705 145.842, 175.867 143.809, 175.480 141.748 C 174.832 138.293, 174.512 138, 171.389 138 C 169.197 138, 168 137.519, 168 136.639 C 168 135.150, 161.255 134.024, 152.250 134.009 C 148.441 134.002, 147 133.619, 147 132.611 C 147 131.823, 145.527 130.946, 143.597 130.584 C 137.961 129.527, 137.186 124.563, 142.500 123.566 C 144.595 123.173, 146 122.325, 146 121.455 C 146 120.230, 149.166 120, 166 120 L 186 120 186 123.500 C 186 125.803, 186.470 127, 187.375 127 C 189.246 127, 190 131.489, 190 142.625 C 190 150.292, 190.273 152, 191.500 152 C 192.729 152, 193 153.732, 193 161.585 L 193 171.171 185.505 170.468 C 175.712 169.551, 165 170.654, 165 172.580 C 165 173.741, 162.361 174, 150.500 174 C 137.899 174, 136 174.209, 136 175.594 C 136 176.470, 135.100 177.423, 134 177.710 C 132.477 178.108, 132 179.074, 132 181.756 L 132 185.280 146.109 184.772 C 156.611 184.395, 160.436 183.911, 161.071 182.882 C 161.700 181.862, 165.077 181.413, 173.962 181.166 L 186 180.833 186 184.916 C 186 188.883, 186.096 189, 189.353 189 L 192.706 189 193.269 201.222 C 193.610 208.630, 194.259 213.586, 194.916 213.805 C 196.210 214.237, 196.384 217, 195.117 217 C 194.631 217, 193.998 217.900, 193.710 219 C 193.201 220.947, 192.346 221, 161.210 221 L 129.233 221 128.630 223.250 C 127.624 227.007, 127.910 228, 130 228 C 131.100 228, 132 228.626, 132 229.392 C 132 231.249, 145.475 232.093, 170.500 231.804 L 189.500 231.585 189.810 235.292 C 190.013 237.709, 190.622 239, 191.560 239 C 192.461 239, 193.005 240.030, 193.014 241.750 C 193.035 246.032, 194.101 249, 195.617 249 C 196.377 249, 197 249.900, 197 251 C 197 252.619, 197.667 253, 200.500 253 C 202.813 253, 204 252.531, 204 251.617 C 204 250.856, 204.966 249.981, 206.146 249.672 C 208.108 249.159, 208.237 248.658, 207.655 243.805 C 207.304 240.887, 207.013 237.037, 207.009 235.250 C 207.003 233.032, 206.524 232, 205.500 232 C 204.221 232, 204 229.278, 204 213.500 C 204 197.722, 203.779 195, 202.500 195 C 201.675 195, 201 194.325, 201 193.500 C 201 192.675, 201.675 192, 202.500 192 C 203.333 192, 204 191.111, 204 190 C 204 188.889, 203.333 188, 202.500 188 C 201.234 188, 201 185.684, 201 173.158 C 201 148.432, 199.902 131, 198.345 131 C 197.346 131, 197 129.197, 197 124 C 197 118.262, 196.713 117, 195.406 117 C 194.530 117, 193.577 116.100, 193.290 115 C 193.002 113.900, 192.130 113, 191.352 113 C 190.574 113, 189.678 112.325, 189.362 111.500 C 188.713 109.809, 186.342 109.473, 185.833 111 C 185.342 112.473, 161.705 112.616, 161.216 111.149 C 160.667 109.501, 158.317 109.731, 157.638 111.500 C 157.177 112.702, 154.970 113, 146.531 113 C 137.837 113, 136 113.262, 136 114.500 C 136 115.652, 134.722 116, 130.500 116 L 125 116 125 107.500 C 125 100.611, 125.284 99, 126.500 99 C 127.523 99, 128.004 97.966, 128.014 95.750 C 128.034 91, 129.041 88, 130.617 88 C 131.377 88, 132 87.100, 132 86 C 132 84.667, 132.667 84, 134 84 C 135.111 84, 136 83.333, 136 82.500 C 136 81.675, 136.675 81, 137.500 81 C 138.333 81, 139 80.111, 139 79 C 139 77.667, 139.667 77, 141 77 C 142.333 77, 143 76.333, 143 75 C 143 73.667, 143.667 73, 145 73 C 146.111 73, 147 72.333, 147 71.500 C 147 70.675, 147.675 70, 148.500 70 C 149.333 70, 150 69.111, 150 68 C 150 66.667, 150.667 66, 152 66 C 153.333 66, 154 65.333, 154 64 C 154 62.889, 154.667 62, 155.500 62 C 156.325 62, 157 61.325, 157 60.500 C 157 59.452, 158.056 59, 160.500 59 L 164 59 164 53.500 L 164 48 159 48 C 155.092 48, 154 48.348, 154 49.594 M 193.688 231.646 C 192.272 233.061, 193.073 235, 195.073 235 C 196.471 235, 197.041 234.457, 196.823 233.333 C 196.466 231.492, 194.759 230.574, 193.688 231.646" stroke="none" fill="black" fill-rule="evenodd"/>
</svg>