<svg xmlns="http://www.w3.org/2000/svg" width="300" height="300" viewBox="0 0 300 300" version="1.1">
	<path d="M 185 49.500 C 185 50.565, 183.913 51.003, 181.250 51.009 C 173.622 51.026, 167 52.249, 167 53.639 C 167 54.751, 162.340 55, 141.500 55 L 116 55 116.014 58.250 C 116.047 66.093, 115.889 66, 129.117 66 C 139.013 66, 141 65.749, 141 64.500 C 141 63.667, 141.889 63, 143 63 C 144.111 63, 145 63.667, 145 64.500 C 145 65.333, 145.889 66, 147 66 C 148.111 66, 149 65.333, 149 64.500 C 149 63.310, 150.444 63, 156 63 C 161.556 63, 163 63.310, 163 64.500 C 163 65.325, 162.377 66, 161.617 66 C 160.856 66, 159.998 66.900, 159.710 68 C 159.423 69.100, 158.470 70, 157.594 70 C 156.717 70, 156 70.623, 156 71.383 C 156 72.144, 155.100 73.002, 154 73.290 C 152.900 73.577, 152 74.530, 152 75.406 C 152 76.283, 151.325 77, 150.500 77 C 149.675 77, 149 77.675, 149 78.500 C 149 79.333, 148.111 80, 147 80 C 145.667 80, 145 80.667, 145 82 C 145 83.100, 144.377 84, 143.617 84 C 142.856 84, 141.998 84.900, 141.710 86 C 141.423 87.100, 140.470 88, 139.594 88 C 138.717 88, 138 88.675, 138 89.500 C 138 90.325, 137.283 91, 136.406 91 C 135.530 91, 134.577 91.900, 134.290 93 C 134.002 94.100, 133.144 95, 132.383 95 C 131.623 95, 131 95.623, 131 96.383 C 131 97.144, 130.100 98.002, 129 98.290 C 127.900 98.577, 127 99.530, 127 100.406 C 127 101.283, 126.377 102, 125.617 102 C 124.856 102, 123.998 102.900, 123.710 104 C 123.423 105.100, 122.470 106, 121.594 106 C 120.717 106, 120 106.675, 120 107.500 C 120 108.333, 119.111 109, 118 109 C 116.667 109, 116 109.667, 116 111 C 116 112.111, 115.333 113, 114.500 113 C 113.452 113, 113 114.056, 113 116.500 C 113 118.813, 113.469 120, 114.383 120 C 115.144 120, 116.002 120.900, 116.290 122 C 116.976 124.622, 120 124.622, 120 122 C 120 120.267, 120.667 120, 125 120 C 128.778 120, 130 119.633, 130 118.500 C 130 117.514, 130.986 117, 132.875 117 C 134.456 117, 137.156 116.719, 138.875 116.375 C 141.591 115.832, 142 116.028, 142 117.875 C 142 119.333, 141.373 120, 140 120 C 138.667 120, 138 120.667, 138 122 C 138 123.111, 137.333 124, 136.500 124 C 135.675 124, 135 124.717, 135 125.594 C 135 126.470, 134.126 127.416, 133.057 127.695 C 131.927 127.991, 130.848 129.416, 130.478 131.102 C 130.128 132.696, 129.202 134, 128.421 134 C 127.639 134, 127 134.900, 127 136 C 127 137.619, 126.333 138, 123.500 138 C 120.667 138, 120 138.381, 120 140 C 120 141.333, 119.333 142, 118 142 C 116.381 142, 116 142.667, 116 145.500 C 116 147.944, 115.548 149, 114.500 149 C 113.675 149, 113 149.675, 113 150.500 C 113 151.652, 114.278 152, 118.500 152 C 122.722 152, 124 151.652, 124 150.500 C 124 149.369, 125.217 149, 128.950 149 C 132.456 149, 134.163 148.531, 134.799 147.394 C 135.340 146.428, 137.551 145.580, 140.349 145.264 C 143.365 144.924, 145 144.258, 145 143.370 C 145 142.376, 146.510 142, 150.500 142 L 156 142 156 145.500 C 156 147.896, 156.459 149, 157.455 149 C 158.325 149, 159.173 150.405, 159.566 152.500 C 159.942 154.505, 160.816 156, 161.611 156 C 163.755 156, 163.253 158.701, 161 159.290 C 159.900 159.577, 159 160.530, 159 161.406 C 159 162.283, 158.325 163, 157.500 163 C 156.667 163, 156 163.889, 156 165 C 156 166.111, 155.333 167, 154.500 167 C 153.675 167, 153 167.675, 153 168.500 C 153 169.325, 153.675 170, 154.500 170 C 155.333 170, 156 170.889, 156 172 C 156 173.333, 156.667 174, 158 174 C 159.111 174, 160 173.333, 160 172.500 C 160 171.675, 160.675 171, 161.500 171 C 162.652 171, 163 172.278, 163 176.500 C 163 180.722, 162.652 182, 161.500 182 C 160.534 182, 159.995 182.978, 159.986 184.750 C 159.952 191.706, 159.562 192, 150.383 192 C 143.598 192, 142 192.286, 142 193.500 C 142 194.412, 141.069 195, 139.625 195 C 138.319 195, 135.844 195.281, 134.125 195.625 C 131.135 196.223, 131 196.461, 131 201.156 C 131 204.595, 130.551 206.235, 129.500 206.638 C 128.675 206.955, 128 207.841, 128 208.607 C 128 209.612, 129.393 210, 133 210 C 137.333 210, 138 209.733, 138 208 C 138 206.667, 138.667 206, 140 206 C 141.100 206, 142 205.384, 142 204.630 C 142 203.746, 143.615 203.078, 146.554 202.747 C 149.189 202.450, 151.629 201.521, 152.344 200.545 C 153.237 199.323, 154.327 199.044, 156.289 199.536 C 158.775 200.160, 159 200.623, 159 205.108 C 159 208.790, 158.629 210, 157.500 210 C 156.310 210, 156 211.444, 156 217 C 156 222.362, 155.670 224, 154.588 224 C 153.720 224, 152.915 225.541, 152.500 228 C 152.121 230.245, 151.259 232, 150.537 232 C 149.829 232, 148.978 233.359, 148.646 235.021 C 148.174 237.382, 147.382 238.174, 145.021 238.646 C 143.359 238.978, 142 239.869, 142 240.625 C 142 241.691, 139.956 242, 132.906 242 C 124.654 242, 123.764 242.185, 123.290 244 C 123.002 245.100, 122.144 246, 121.383 246 C 120.478 246, 120 247.170, 120 249.389 C 120 252.470, 120.318 252.837, 123.500 253.434 C 125.425 253.795, 127 254.520, 127 255.045 C 127 256.464, 130.766 256.202, 131.249 254.750 C 131.551 253.840, 135.921 253.413, 147.332 253.180 C 160.100 252.919, 163 252.595, 163 251.430 C 163 249.921, 163.644 249.881, 189 249.825 C 216.877 249.763, 235 248.799, 235 247.378 C 235 246.278, 237.621 246, 248 246 C 258.889 246, 261 245.756, 261 244.500 C 261 243.675, 261.675 243, 262.500 243 C 263.333 243, 264 242.111, 264 241 C 264 239.667, 264.667 239, 266 239 C 267.619 239, 268 238.333, 268 235.500 C 268 232.083, 267.905 232, 264 232 C 261.111 232, 260 232.417, 260 233.500 C 260 234.325, 259.325 235, 258.500 235 C 257.675 235, 257 235.623, 257 236.383 C 257 237.144, 255.988 238.038, 254.750 238.370 C 253.512 238.701, 236.412 238.979, 216.750 238.986 C 185.645 238.998, 181 239.195, 181 240.500 C 181 241.753, 178.944 242, 168.500 242 L 156 242 156 239.117 C 156 237.074, 156.583 236.081, 158 235.710 C 159.532 235.310, 160 234.346, 160 231.594 C 160 229.066, 160.445 228, 161.500 228 C 162.652 228, 163 226.722, 163 222.500 C 163 218.484, 163.373 217, 164.383 217 C 166.103 217, 166.969 213.923, 166.986 207.750 C 166.996 204.370, 167.401 203, 168.389 203 C 169.184 203, 170.058 201.505, 170.434 199.500 C 171.081 196.049, 171.161 196, 176.139 196 C 180.346 196, 181.274 195.667, 181.710 194 C 182.164 192.263, 183.074 192, 188.617 192 C 193.366 192, 195 191.648, 195 190.625 C 195 189.052, 199.259 188, 205.625 188 C 208.847 188, 210 187.605, 210 186.500 C 210 185.312, 211.431 185, 216.875 185 C 223.577 185, 223.764 184.931, 224.292 182.250 C 224.590 180.738, 224.594 178.262, 224.300 176.750 C 223.844 174.397, 223.278 174, 220.383 174 C 218.197 174, 217 174.481, 217 175.361 C 217 176.751, 210.378 177.974, 202.750 177.991 C 200.087 177.997, 199 178.435, 199 179.500 C 199 180.688, 197.569 181, 192.117 181 C 186.074 181, 185.169 181.244, 184.710 183 C 184.274 184.670, 183.346 185, 179.094 185 C 175.233 185, 174 185.363, 174 186.500 C 174 187.325, 173.325 188, 172.500 188 C 171.348 188, 171 186.722, 171 182.500 C 171 178.278, 171.348 177, 172.500 177 C 173.556 177, 174 175.933, 174 173.399 L 174 169.797 181 170.500 C 187.669 171.170, 188 171.104, 188 169.101 C 188 167.246, 187.414 167, 183 167 C 178.667 167, 178 166.733, 178 165 C 178 163.381, 178.667 163, 181.500 163 C 183.944 163, 185 162.548, 185 161.500 C 185 160.534, 185.978 159.995, 187.750 159.986 C 192.032 159.965, 195 158.899, 195 157.383 C 195 156.289, 197.301 156, 206 156 C 214.667 156, 217 156.292, 217 157.375 C 217 158.904, 221.228 160, 227.125 160 C 230.887 160, 231 160.102, 231 163.500 C 231 165.944, 230.548 167, 229.500 167 C 228.675 167, 228 167.675, 228 168.500 C 228 169.325, 228.563 170.006, 229.250 170.014 C 229.938 170.021, 231.512 170.299, 232.750 170.630 C 234.565 171.117, 235 170.824, 235 169.117 C 235 167.667, 235.630 167, 237 167 C 238.721 167, 238.998 166.338, 238.986 162.250 C 238.966 155.079, 238.179 153.198, 234.898 152.478 C 233.304 152.128, 232 151.202, 232 150.421 C 232 149.373, 230.616 149, 226.722 149 C 222.682 149, 221.043 148.531, 219.732 147 C 218.214 145.227, 216.782 145, 207.126 145 C 197.074 145, 196.193 145.154, 195.710 147 C 195.310 148.532, 194.346 149, 191.594 149 C 188.667 149, 188 148.629, 188 147 C 188 145.667, 188.667 145, 190 145 C 191.100 145, 192 144.377, 192 143.617 C 192 142.856, 192.900 141.998, 194 141.710 C 195.100 141.423, 196 140.470, 196 139.594 C 196 138.717, 196.675 138, 197.500 138 C 198.325 138, 199 137.325, 199 136.500 C 199 135.675, 199.717 135, 200.594 135 C 201.470 135, 202.423 134.100, 202.710 133 C 202.998 131.900, 203.803 131, 204.500 131 C 205.197 131, 206.002 130.100, 206.290 129 C 206.577 127.900, 207.530 127, 208.406 127 C 209.283 127, 210 126.325, 210 125.500 C 210 124.675, 210.625 124, 211.389 124 C 212.184 124, 213.058 122.505, 213.434 120.500 C 213.795 118.575, 214.689 117, 215.420 117 C 216.541 117, 218 112.971, 218 109.875 C 218 109.394, 214.396 109, 209.990 109 C 203.218 109, 201.716 109.309, 200.268 111 C 198.999 112.482, 197.318 113, 193.778 113 C 190.198 113, 189 113.376, 189 114.500 C 189 115.590, 187.877 116, 184.892 116 C 180.910 116, 180.804 115.915, 181.471 113.250 C 181.850 111.737, 182.798 110.140, 183.580 109.700 C 184.361 109.260, 185 108.248, 185 107.450 C 185 106.653, 185.675 106, 186.500 106 C 187.333 106, 188 105.111, 188 104 C 188 102.667, 188.667 102, 190 102 C 191.111 102, 192 101.333, 192 100.500 C 192 99.452, 193.056 99, 195.500 99 L 199 99 199 93.500 C 199 89.378, 199.361 88, 200.441 88 C 202.471 88, 203.162 86.495, 202.446 83.640 C 201.753 80.880, 199.073 79.835, 194.851 80.680 C 192.510 81.148, 192 81.764, 192 84.125 C 192 86.333, 191.536 87, 190 87 C 188.667 87, 188 87.667, 188 89 C 188 90.111, 187.333 91, 186.500 91 C 185.667 91, 185 91.889, 185 93 C 185 94.333, 184.333 95, 183 95 C 181.667 95, 181 95.667, 181 97 C 181 98.100, 180.361 99, 179.579 99 C 178.798 99, 177.862 100.350, 177.500 102 C 177.138 103.650, 176.202 105, 175.421 105 C 174.464 105, 174 106.143, 174 108.500 C 174 111.036, 173.561 112, 172.406 112 C 171.530 112, 170.577 112.900, 170.290 114 C 170.002 115.100, 169.144 116, 168.383 116 C 167.373 116, 167 117.484, 167 121.500 L 167 127 174 127 C 179.556 127, 181 126.690, 181 125.500 C 181 124.300, 182.500 124, 188.500 124 C 195.333 124, 196 123.822, 196 122 C 196 120.889, 196.667 120, 197.500 120 C 198.548 120, 199 121.056, 199 123.500 C 199 126.036, 198.561 127, 197.406 127 C 196.530 127, 195.577 127.900, 195.290 129 C 195.002 130.100, 194.144 131, 193.383 131 C 192.623 131, 192 131.675, 192 132.500 C 192 133.325, 191.283 134, 190.406 134 C 189.530 134, 188.577 134.900, 188.290 136 C 188.002 137.100, 187.144 138, 186.383 138 C 185.623 138, 185 138.623, 185 139.383 C 185 140.144, 184.100 141.002, 183 141.290 C 181.900 141.577, 181 142.530, 181 143.406 C 181 144.333, 180.163 145, 179 145 C 177.667 145, 177 145.667, 177 147 C 177 148.111, 176.333 149, 175.500 149 C 174.675 149, 174 149.675, 174 150.500 C 174 151.325, 173.325 152, 172.500 152 C 171.675 152, 171 151.325, 171 150.500 C 171 149.667, 170.111 149, 169 149 C 167.242 149, 167 148.333, 167 143.500 C 167 139.354, 166.642 138, 165.545 138 C 164.675 138, 163.827 136.595, 163.434 134.500 C 163.050 132.451, 162.189 131, 161.357 131 C 160.576 131, 159.678 130.325, 159.362 129.500 C 158.732 127.859, 156 127.416, 156 128.955 C 156 129.480, 154.425 130.205, 152.500 130.566 C 150.575 130.927, 149 131.797, 149 132.500 C 149 133.203, 147.425 134.073, 145.500 134.434 C 143.405 134.827, 142 135.675, 142 136.545 C 142 137.345, 141.100 138, 140 138 C 138.667 138, 138 137.333, 138 136 C 138 134.889, 138.667 134, 139.500 134 C 140.325 134, 141 133.325, 141 132.500 C 141 131.667, 141.889 131, 143 131 C 144.333 131, 145 130.333, 145 129 C 145 127.667, 145.667 127, 147 127 C 148.111 127, 149 126.333, 149 125.500 C 149 124.675, 149.717 124, 150.594 124 C 151.470 124, 152.423 123.100, 152.710 122 C 152.998 120.900, 153.856 120, 154.617 120 C 155.377 120, 156 119.325, 156 118.500 C 156 117.675, 156.717 117, 157.594 117 C 158.470 117, 159.423 116.100, 159.710 115 C 159.998 113.900, 160.856 113, 161.617 113 C 162.538 113, 163 111.799, 163 109.406 C 163 106.654, 163.468 105.690, 165 105.290 C 166.100 105.002, 167 104.144, 167 103.383 C 167 102.289, 164.699 102, 156 102 C 147.333 102, 145 102.292, 145 103.375 C 145 104.131, 143.594 105.031, 141.875 105.375 C 136.499 106.450, 135 106.150, 135 104 C 135 102.889, 135.667 102, 136.500 102 C 137.325 102, 138 101.377, 138 100.617 C 138 99.856, 138.900 98.998, 140 98.710 C 141.100 98.423, 142 97.470, 142 96.594 C 142 95.717, 142.563 94.992, 143.250 94.983 C 144.714 94.962, 149 90.671, 149 89.226 C 149 88.680, 149.900 87.998, 151 87.710 C 152.100 87.423, 153 86.470, 153 85.594 C 153 84.504, 153.912 84, 155.883 84 C 157.926 84, 158.919 83.417, 159.290 82 C 159.577 80.900, 160.530 80, 161.406 80 C 162.283 80, 163 79.325, 163 78.500 C 163 77.667, 163.889 77, 165 77 C 166.333 77, 167 76.333, 167 75 C 167 73.667, 167.667 73, 169 73 C 170.111 73, 171 72.333, 171 71.500 C 171 70.490, 172.010 70, 174.094 70 C 176.346 70, 177.329 69.456, 177.710 68 C 178.181 66.201, 179.074 66, 186.617 66 C 193.063 66, 195 65.682, 195 64.625 C 195 63.268, 199.111 62, 203.508 62 C 205.904 62, 206.961 59.797, 206.986 54.750 C 206.995 52.978, 207.534 52, 208.500 52 C 209.333 52, 210 51.111, 210 50 C 210 48.107, 209.333 48, 197.500 48 C 187.056 48, 185 48.247, 185 49.500 M 48 107.500 C 48 108.548, 46.944 109, 44.500 109 L 41 109 41 114.500 L 41 120 50 120 C 57.239 120, 59 120.287, 59 121.466 C 59 122.469, 60.576 123.140, 64 123.594 C 67.246 124.025, 69 124.739, 69 125.629 C 69 126.383, 69.850 127, 70.889 127 C 72.255 127, 72.959 127.967, 73.434 130.500 C 74.008 133.562, 74.460 134, 77.045 134 C 79.755 134, 80 133.710, 80 130.500 C 80 128.056, 79.548 127, 78.500 127 C 77.452 127, 77 125.944, 77 123.500 C 77 120.667, 76.619 120, 75 120 C 73.900 120, 73 119.345, 73 118.545 C 73 117.675, 71.595 116.827, 69.500 116.434 C 67.495 116.058, 66 115.184, 66 114.389 C 66 113.625, 65.100 113, 64 113 C 62.667 113, 62 112.333, 62 111 C 62 109.242, 61.333 109, 56.500 109 C 52.278 109, 51 108.652, 51 107.500 C 51 106.675, 50.325 106, 49.500 106 C 48.675 106, 48 106.675, 48 107.500 M 66 150.500 C 66 151.523, 64.966 152.004, 62.750 152.014 C 58 152.034, 55 153.041, 55 154.617 C 55 155.377, 54.100 156, 53 156 C 50.891 156, 50.359 159.008, 51.630 163.750 C 52.251 166.065, 55.536 166.893, 56.199 164.902 C 56.401 164.298, 58.688 163.564, 61.283 163.272 C 64.351 162.926, 66 162.261, 66 161.370 C 66 160.494, 67.172 159.995, 69.250 159.986 C 74 159.966, 77 158.959, 77 157.383 C 77 156.337, 78.707 156, 84 156 C 89.459 156, 91 156.320, 91 157.455 C 91 158.325, 92.405 159.173, 94.500 159.566 C 96.505 159.942, 98 160.816, 98 161.611 C 98 162.375, 98.900 163, 100 163 C 101.731 163, 102 162.333, 102 158.045 C 102 153.175, 101.941 153.080, 98.500 152.434 C 96.495 152.058, 95 151.184, 95 150.389 C 95 149.268, 92.206 149, 80.500 149 C 68.278 149, 66 149.236, 66 150.500 M 102 197.500 C 102 198.742, 100.111 199, 91 199 C 82.301 199, 80 199.289, 80 200.383 C 80 201.959, 77 202.966, 72.250 202.986 C 70.034 202.996, 69 203.477, 69 204.500 C 69 205.510, 67.990 206, 65.906 206 C 63.654 206, 62.671 206.544, 62.290 208 C 61.897 209.503, 60.926 210, 58.383 210 C 56.089 210, 55 210.468, 55 211.455 C 55 212.325, 53.595 213.173, 51.500 213.566 C 49.575 213.927, 48 214.797, 48 215.500 C 48 216.203, 46.425 217.073, 44.500 217.434 C 42.405 217.827, 41 218.675, 41 219.545 C 41 220.345, 40.100 221, 39 221 C 37.889 221, 37 221.667, 37 222.500 C 37 223.325, 36.377 224, 35.617 224 C 33.968 224, 32.950 228.403, 33.708 232.250 C 34.171 234.600, 34.741 235, 37.625 235 C 39.904 235, 41 234.530, 41 233.552 C 41 232.511, 42.473 232.020, 46.250 231.802 C 51.357 231.508, 51.508 231.413, 51.811 228.284 C 52.080 225.498, 52.582 224.981, 55.561 224.423 C 57.519 224.055, 59 223.179, 59 222.389 C 59 221.625, 59.623 221, 60.383 221 C 61.144 221, 62.002 220.100, 62.290 219 C 62.690 217.468, 63.654 217, 66.406 217 C 68.806 217, 70 216.539, 70 215.611 C 70 214.816, 71.495 213.942, 73.500 213.566 C 75.595 213.173, 77 212.325, 77 211.455 C 77 210.358, 78.354 210, 82.500 210 C 86.500 210, 88 209.625, 88 208.625 C 88 206.982, 92.310 206, 99.517 206 C 104.300 206, 104.841 205.771, 105.411 203.500 C 106.247 200.169, 105.124 196, 103.392 196 C 102.626 196, 102 196.675, 102 197.500" stroke="none" fill="black" fill-rule="evenodd"/>
</svg>