<svg xmlns="http://www.w3.org/2000/svg" width="300" height="300" viewBox="0 0 300 300" version="1.1">
	<path d="M 164.750 129.083 C 163.528 130.422, 163 132.659, 163 136.500 C 163 140.646, 162.642 142, 161.545 142 C 160.675 142, 159.827 143.405, 159.434 145.500 C 159.058 147.505, 158.184 149, 157.389 149 C 156.625 149, 156 149.675, 156 150.500 C 156 151.341, 155.108 152, 153.969 152 C 152.851 152, 151.664 152.713, 151.329 153.584 C 150.840 154.859, 150.557 154.908, 149.876 153.834 C 149.243 152.835, 149.027 152.814, 149.015 153.750 C 149.005 154.597, 147.225 155, 143.500 155 C 139.500 155, 138 154.625, 138 153.625 C 138 152.254, 133.880 151, 129.375 151 C 127.963 151, 127 150.410, 127 149.545 C 127 148.675, 125.595 147.827, 123.500 147.434 C 121.495 147.058, 120 146.184, 120 145.389 C 120 144.625, 119.114 144, 118.031 144 C 116.659 144, 116.244 143.528, 116.661 142.440 C 117.061 141.399, 116.553 140.696, 115.130 140.324 C 113.958 140.017, 113 139.144, 113 138.383 C 113 137.623, 112.100 137, 111 137 C 109.900 137, 109 137.623, 109 138.383 C 109 139.144, 108.100 140.002, 107 140.290 C 105.468 140.690, 105 141.654, 105 144.406 C 105 146.934, 104.555 148, 103.500 148 C 102.675 148, 102 148.833, 102 149.852 C 102 152.284, 96.684 157.790, 93.585 158.568 C 92.243 158.905, 90.925 159.753, 90.657 160.452 C 90.323 161.321, 87.489 161.783, 81.714 161.911 C 73.952 162.082, 73.215 161.929, 72.723 160.049 C 72.428 158.922, 71.470 158, 70.594 158 C 69.717 158, 69 157.325, 69 156.500 C 69 155.675, 68.325 155, 67.500 155 C 66.567 155, 66 154.056, 66 152.500 C 66 150.792, 65.446 149.995, 64.250 149.985 C 62.910 149.973, 62.812 149.771, 63.834 149.124 C 64.908 148.443, 64.859 148.160, 63.584 147.671 C 62.713 147.336, 62 146.149, 62 145.031 C 62 143.892, 61.341 143, 60.500 143 C 59.667 143, 59 142.111, 59 141 C 59 139.393, 58.333 139, 55.607 139 C 53.741 139, 51.995 139.572, 51.726 140.270 C 50.697 142.954, 51.734 149.272, 53.354 150.178 C 54.292 150.703, 55 152.347, 55 153.998 C 55 156.928, 58.717 162, 60.865 162 C 61.489 162, 62 162.690, 62 163.532 C 62 164.375, 62.873 165.387, 63.940 165.782 C 65.008 166.177, 65.795 166.950, 65.690 167.500 C 65.586 168.050, 66.850 168.640, 68.500 168.812 C 70.150 168.984, 72.061 169.855, 72.746 170.748 C 73.570 171.822, 76.045 172.520, 80.056 172.810 C 85.280 173.188, 86.393 172.955, 88.099 171.125 C 89.473 169.649, 91.288 169, 94.039 169 C 96.745 169, 98 168.562, 98 167.617 C 98 166.856, 98.900 165.998, 100 165.710 C 101.100 165.423, 102 164.470, 102 163.594 C 102 162.717, 102.623 162, 103.383 162 C 104.144 162, 105.002 161.100, 105.290 160 C 105.577 158.900, 106.530 158, 107.406 158 C 108.283 158, 109 157.289, 109 156.421 C 109 155.134, 109.972 154.911, 114.250 155.221 C 117.410 155.449, 119.412 156.045, 119.278 156.717 C 119.155 157.331, 120.843 158.136, 123.028 158.505 C 125.243 158.879, 127 159.743, 127 160.458 C 127 161.242, 128.807 161.944, 131.651 162.264 C 134.449 162.580, 136.660 163.428, 137.201 164.394 C 138.426 166.583, 147.806 166.670, 148.638 164.500 C 148.955 163.675, 150.403 162.994, 151.857 162.986 C 155.689 162.967, 159.061 161.907, 158.448 160.916 C 158.157 160.444, 159.062 159.772, 160.459 159.421 C 162.066 159.018, 163 158.084, 163 156.882 C 163 155.836, 163.900 154.210, 165 153.268 C 166.256 152.192, 167.029 150.244, 167.079 148.028 C 167.122 146.087, 167.384 145.058, 167.659 145.741 C 168.036 146.673, 168.546 146.596, 169.709 145.434 C 170.561 144.582, 171.912 144.136, 172.711 144.442 C 173.510 144.749, 174.752 145, 175.470 145 C 176.189 145, 177.073 146.575, 177.434 148.500 C 177.827 150.595, 178.675 152, 179.545 152 C 180.345 152, 181 152.900, 181 154 C 181 155.111, 181.667 156, 182.500 156 C 183.325 156, 184 156.717, 184 157.594 C 184 158.470, 184.895 159.421, 185.989 159.707 C 187.083 159.993, 187.730 160.627, 187.429 161.116 C 187.127 161.604, 188.035 162.443, 189.447 162.980 C 190.859 163.517, 191.958 164.303, 191.889 164.728 C 191.327 168.178, 192.221 169.794, 195 170.350 C 196.760 170.702, 198 171.581, 198 172.475 C 198 174.728, 223.497 174.752, 224.362 172.500 C 224.678 171.675, 225.912 171, 227.104 171 C 229.682 171, 233.732 166.914, 234.607 163.431 C 234.950 162.065, 236.078 160.493, 237.115 159.938 C 238.573 159.158, 239 157.805, 239 153.965 C 239 150.575, 239.389 149.079, 240.226 149.250 C 240.901 149.387, 241.607 148.488, 241.796 147.250 C 242.026 145.738, 242.855 144.977, 244.320 144.930 C 246.426 144.862, 246.432 144.830, 244.500 144 C 242.790 143.265, 242.754 143.130, 244.250 143.070 C 245.213 143.032, 246 142.250, 246 141.333 C 246 140.417, 246.296 139.963, 246.658 140.325 C 247.983 141.649, 250 138.663, 250 135.378 C 250 132.104, 249.877 132, 246 132 C 243.800 132, 242 132.450, 242 133 C 242 133.550, 241.325 134, 240.500 134 C 239.675 134, 239 134.450, 239 135 C 239 135.550, 238.213 136.007, 237.250 136.015 C 235.754 136.028, 235.718 136.172, 237 137 C 238.304 137.843, 238.287 137.971, 236.867 137.985 C 235.968 137.993, 234.986 138.945, 234.684 140.101 C 234.382 141.256, 233.683 141.922, 233.131 141.581 C 232.242 141.031, 230.266 149.228, 230.802 151.250 C 230.911 151.662, 230.325 152, 229.500 152 C 228.417 152, 228 153.111, 228 156 C 228 159.333, 227.667 160, 226 160 C 224.889 160, 224 160.667, 224 161.500 C 224 162.738, 222.167 163, 213.500 163 C 205.227 163, 203 162.707, 203 161.617 C 203 160.856, 202.100 159.998, 201 159.710 C 199.900 159.423, 199 158.470, 199 157.594 C 199 156.667, 198.163 156, 197 156 C 195.889 156, 195 155.333, 195 154.500 C 195 153.675, 194.325 153, 193.500 153 C 192.667 153, 192 152.111, 192 151 C 192 149.900, 191.409 149, 190.687 149 C 189.964 149, 188.755 147.423, 187.998 145.496 C 187.063 143.111, 186.369 142.392, 185.827 143.246 C 185.337 144.018, 185.025 143.250, 185.015 141.250 C 185.003 138.672, 184.587 138, 183 138 C 181.667 138, 181 137.333, 181 136 C 181 134.900, 180.377 134, 179.617 134 C 178.856 134, 177.998 133.100, 177.710 132 C 177.423 130.900, 176.470 130, 175.594 130 C 174.717 130, 174 129.325, 174 128.500 C 174 126.227, 166.952 126.672, 164.750 129.083 M 55.813 137.683 C 56.534 137.972, 57.397 137.936, 57.729 137.604 C 58.061 137.272, 57.471 137.036, 56.417 137.079 C 55.252 137.127, 55.015 137.364, 55.813 137.683" stroke="none" fill="black" fill-rule="evenodd"/>
</svg>