<svg xmlns="http://www.w3.org/2000/svg" width="300" height="300" viewBox="0 0 300 300" version="1.1">
	<path d="M 169.813 72.683 C 170.534 72.972, 171.397 72.936, 171.729 72.604 C 172.061 72.272, 171.471 72.036, 170.417 72.079 C 169.252 72.127, 169.015 72.364, 169.813 72.683 M 162.172 75.331 C 159.792 75.981, 158.198 76.864, 158.629 77.295 C 159.060 77.727, 158.461 78.328, 157.299 78.632 C 156.136 78.936, 154.960 80.043, 154.686 81.092 C 154.412 82.142, 153.470 83, 152.594 83 C 151.717 83, 151 83.675, 151 84.500 C 151 85.325, 150.325 86, 149.500 86 C 148.675 86, 148 86.717, 148 87.594 C 148 88.470, 147.100 89.423, 146 89.710 C 144.900 89.998, 143.992 90.743, 143.983 91.367 C 143.973 91.990, 142.848 93.560, 141.483 94.855 C 140.117 96.150, 138.993 97.725, 138.985 98.355 C 138.976 99.040, 138.617 98.944, 138.093 98.117 C 137.449 97.099, 137.035 97.562, 136.529 99.867 C 136.128 101.695, 135.211 103, 134.327 103 C 133.494 103, 132.577 103.900, 132.290 105 C 132.002 106.100, 131.197 107, 130.500 107 C 129.803 107, 128.986 107.945, 128.684 109.101 C 128.381 110.257, 127.655 110.905, 127.067 110.542 C 126.443 110.156, 126 110.736, 126 111.941 C 126 113.291, 125.351 114, 124.117 114 C 123.074 114, 122 114.893, 121.710 116 C 121.423 117.100, 120.470 118, 119.594 118 C 118.717 118, 118 118.623, 118 119.383 C 118 120.144, 117.100 121.002, 116 121.290 C 114.900 121.577, 114 122.530, 114 123.406 C 114 124.283, 113.325 125, 112.500 125 C 111.675 125, 111 125.623, 111 126.383 C 111 127.144, 110.100 128.002, 109 128.290 C 107.900 128.577, 107 129.530, 107 130.406 C 107 131.333, 106.163 132, 105 132 C 103.900 132, 103 132.645, 103 133.433 C 103 134.221, 102.100 135.151, 101 135.500 C 99.900 135.849, 99 136.779, 99 137.567 C 99 138.355, 98.325 139, 97.500 139 C 96.675 139, 96 139.655, 96 140.455 C 96 141.323, 94.602 142.172, 92.535 142.559 C 90.629 142.917, 89.167 143.714, 89.285 144.331 C 89.403 144.948, 88.487 145.607, 87.250 145.796 C 85.812 146.015, 85 146.836, 85 148.070 C 85 149.131, 84.325 150, 83.500 150 C 82.367 150, 82 151.222, 82 155 L 82 160 85.500 160 C 87.944 160, 89 159.548, 89 158.500 C 89 157.675, 89.675 157, 90.500 157 C 91.325 157, 92 157.675, 92 158.500 C 92 159.325, 92.563 160.035, 93.250 160.077 C 93.938 160.119, 102.739 160.473, 112.809 160.863 C 124.960 161.334, 131.360 161.964, 131.837 162.737 C 132.596 163.964, 140.298 164.865, 150.750 164.950 C 156.317 164.994, 157 165.219, 157 167 C 157 168.100, 157.614 169, 158.364 169 C 159.832 169, 161 175.045, 161 182.640 C 161 185.595, 161.403 186.919, 162.250 186.750 C 163.157 186.569, 163.579 188.912, 163.790 195.297 C 164.007 201.890, 164.445 204.234, 165.540 204.654 C 166.556 205.044, 167.003 206.776, 167.009 210.357 C 167.022 218.010, 168.154 226.023, 169.136 225.416 C 169.611 225.122, 170 225.359, 170 225.941 C 170 227.327, 177.726 227.322, 178.188 225.936 C 178.953 223.640, 177.237 209.579, 176.147 209.216 C 175.398 208.966, 175 205.725, 175 199.885 C 175 192.854, 174.679 190.814, 173.500 190.362 C 172.458 189.962, 172 188.336, 172 185.040 C 172 175.837, 170.785 168, 169.358 168 C 167.346 168, 167.709 166.023, 169.750 165.861 C 170.713 165.785, 181.727 165.645, 194.228 165.550 C 206.728 165.456, 217.295 165.039, 217.709 164.624 C 218.570 163.764, 218.548 156.215, 217.683 155.349 C 217.368 155.035, 209.549 154.819, 200.306 154.870 C 191.063 154.921, 179.338 154.693, 174.250 154.363 L 165 153.762 164.991 150.131 C 164.977 144.149, 163.780 136.018, 162.985 136.509 C 161.698 137.305, 160.929 130.752, 161.606 124.762 C 162.146 119.994, 162.586 119, 164.160 119 C 165.727 119, 166.019 118.357, 165.817 115.350 C 165.652 112.903, 165.014 111.555, 163.880 111.258 C 162.896 111.001, 161.921 109.390, 161.549 107.408 C 160.968 104.312, 160.593 104, 157.455 104 C 155.103 104, 154 104.463, 154 105.450 C 154 106.248, 153.257 107.317, 152.348 107.825 C 149.841 109.228, 149.306 131.512, 151.747 132.878 C 153.019 133.590, 153.544 135.794, 153.958 142.156 C 154.343 148.076, 154.863 150.427, 155.750 150.250 C 156.438 150.112, 157 150.900, 157 152 C 157 153.772, 156.333 154, 151.159 154 C 138.533 154, 114.957 152.645, 116.031 151.981 C 117.961 150.788, 114.334 150, 106.918 150 C 101.372 150, 100 149.696, 100 148.469 C 100 147.626, 100.675 146.678, 101.500 146.362 C 102.325 146.045, 103 145.159, 103 144.393 C 103 143.627, 103.848 143, 104.883 143 C 105.926 143, 107 142.107, 107.290 141 C 107.577 139.900, 108.530 139, 109.406 139 C 110.283 139, 111 138.377, 111 137.617 C 111 136.856, 111.900 135.998, 113 135.710 C 114.100 135.423, 115 134.470, 115 133.594 C 115 132.717, 115.675 132, 116.500 132 C 117.325 132, 118 131.377, 118 130.617 C 118 129.856, 118.900 128.998, 120 128.710 C 121.100 128.423, 122 127.470, 122 126.594 C 122 125.717, 122.717 125, 123.594 125 C 124.470 125, 125.421 124.105, 125.707 123.011 C 125.993 121.917, 126.604 121.255, 127.064 121.539 C 127.523 121.823, 128.388 121.143, 128.985 120.028 C 129.582 118.913, 130.730 118, 131.535 118 C 132.341 118, 133 117.355, 133 116.567 C 133 115.779, 133.900 114.849, 135 114.500 C 136.100 114.151, 137 113.221, 137 112.433 C 137 111.645, 137.675 111, 138.500 111 C 139.333 111, 140 110.111, 140 109 C 140 107.667, 140.667 107, 142 107 C 143.352 107, 144 106.333, 144 104.941 C 144 103.809, 144.427 103.146, 144.950 103.469 C 145.472 103.792, 146.388 103.143, 146.985 102.028 C 147.582 100.913, 148.730 100, 149.535 100 C 150.341 100, 151 99.100, 151 98 C 151 96.900, 151.645 96, 152.433 96 C 153.221 96, 154.153 95.093, 154.505 93.985 C 154.856 92.877, 155.592 92.248, 156.139 92.586 C 156.687 92.924, 157.382 92.256, 157.684 91.101 C 157.997 89.904, 159.044 89, 160.117 89 C 161.152 89, 162 88.375, 162 87.611 C 162 86.816, 163.495 85.942, 165.500 85.566 C 167.425 85.205, 169 84.532, 169 84.071 C 169 83.610, 169.929 82.990, 171.065 82.693 C 172.775 82.246, 173.076 81.496, 172.815 78.327 C 172.529 74.858, 172.219 74.484, 169.500 74.326 C 167.850 74.230, 164.553 74.682, 162.172 75.331 M 167.158 117 C 167.158 118.375, 167.385 118.938, 167.662 118.250 C 167.940 117.563, 167.940 116.438, 167.662 115.750 C 167.385 115.063, 167.158 115.625, 167.158 117" stroke="none" fill="black" fill-rule="evenodd"/>
</svg>