<svg xmlns="http://www.w3.org/2000/svg" width="300" height="300" viewBox="0 0 300 300" version="1.1">
	<path d="M 183 68.500 C 183 69.325, 182.152 70, 181.117 70 C 180.074 70, 179 70.893, 178.710 72 C 178.423 73.100, 177.470 74, 176.594 74 C 175.717 74, 175 74.655, 175 75.455 C 175 76.325, 173.595 77.173, 171.500 77.566 C 169.495 77.942, 168 78.816, 168 79.611 C 168 80.375, 167.283 81, 166.406 81 C 165.530 81, 164.577 81.900, 164.290 83 C 164.002 84.100, 163.197 85, 162.500 85 C 161.803 85, 160.998 85.900, 160.710 87 C 160.423 88.100, 159.470 89, 158.594 89 C 157.490 89, 157 89.922, 157 92 C 157 94.027, 156.503 95, 155.469 95 C 154.626 95, 153.678 95.675, 153.362 96.500 C 153.045 97.325, 152.159 98, 151.393 98 C 150.627 98, 150 98.900, 150 100 C 150 101.333, 149.333 102, 148 102 C 146.667 102, 146 102.667, 146 104 C 146 105.100, 145.375 106, 144.611 106 C 143.816 106, 142.942 107.495, 142.566 109.500 C 142.204 111.429, 141.309 113, 140.571 113 C 139.835 113, 138.986 113.945, 138.684 115.101 C 138.382 116.256, 137.691 116.927, 137.148 116.591 C 136.605 116.256, 135.622 117.615, 134.964 119.610 C 134.088 122.264, 133.533 122.871, 132.898 121.870 C 132.251 120.848, 131.995 121.071, 131.890 122.750 C 131.669 126.305, 131.621 126.417, 129.250 128.962 C 128.012 130.290, 127 131.919, 127 132.582 C 127 133.244, 126.325 134.045, 125.500 134.362 C 124.675 134.678, 124 135.626, 124 136.469 C 124 137.311, 123.345 138, 122.545 138 C 121.675 138, 120.827 139.405, 120.434 141.500 C 120.073 143.425, 119.203 145, 118.500 145 C 117.797 145, 116.935 146.532, 116.584 148.403 C 116.233 150.275, 115.283 152.061, 114.473 152.372 C 113.560 152.722, 113 154.281, 113 156.469 C 113 158.809, 112.533 160, 111.617 160 C 110.101 160, 109.035 162.968, 109.014 167.250 C 109.005 168.910, 108.455 170, 107.625 170 C 106.254 170, 105 174.120, 105 178.625 C 105 180.069, 104.412 181, 103.500 181 C 102.244 181, 102 183.111, 102 194 C 102 203.111, 102.337 206.925, 103.125 206.750 C 103.744 206.612, 104.710 207.850, 105.272 209.500 C 105.834 211.150, 106.902 212.860, 107.647 213.300 C 108.391 213.740, 109 214.752, 109 215.550 C 109 216.347, 109.900 217, 111 217 C 112.232 217, 113.006 217.672, 113.015 218.750 C 113.027 220.139, 113.211 220.215, 113.907 219.117 C 114.554 218.095, 114.957 218.526, 115.449 220.766 C 115.991 223.237, 116.753 223.919, 119.557 224.445 C 121.537 224.816, 123 225.686, 123 226.493 C 123 227.480, 124.556 227.985, 128.250 228.198 C 132.116 228.420, 133.500 228.896, 133.500 230 C 133.500 233.313, 174.126 233.916, 176.522 230.639 C 177.193 229.722, 179.511 229.014, 182.320 228.869 C 185.394 228.709, 187 228.176, 187 227.313 C 187 226.591, 187.942 226, 189.094 226 C 190.346 226, 191.397 225.197, 191.710 224 C 192.074 222.610, 193.074 222, 194.992 222 C 198.415 222, 199 219.718, 199 206.375 C 199 198.708, 198.727 197, 197.500 197 C 196.675 197, 196 196.283, 196 195.406 C 196 194.530, 195.100 193.577, 194 193.290 C 192.900 193.002, 192 192.197, 192 191.500 C 192 190.803, 191.100 189.998, 190 189.710 C 188.900 189.423, 188 188.520, 188 187.705 C 188 186.803, 186.631 185.966, 184.500 185.566 C 182.563 185.203, 181 184.310, 181 183.566 C 181 182.822, 179.437 181.929, 177.500 181.566 C 175.575 181.205, 174 180.500, 174 180 C 174 179.500, 172.389 178.788, 170.420 178.419 C 168.451 178.050, 166.621 177.176, 166.353 176.477 C 166.030 175.637, 162.416 174.955, 155.683 174.466 C 149.379 174.008, 146.262 173.444, 147.500 172.986 C 149.010 172.427, 148.275 172.069, 144.500 171.525 C 141.750 171.129, 138.600 170.657, 137.500 170.477 C 136.400 170.296, 133.700 170.108, 131.500 170.059 C 128.909 170.001, 127.970 169.671, 128.834 169.124 C 130.618 167.993, 128.086 167, 123.418 167 C 120.201 167, 120 166.801, 120 163.617 C 120 161.116, 120.503 160.102, 121.928 159.729 C 123.255 159.382, 123.957 158.177, 124.178 155.862 C 124.359 153.977, 125.012 152.598, 125.667 152.722 C 126.314 152.846, 127.132 151.175, 127.505 148.972 C 127.916 146.535, 128.721 145, 129.588 145 C 130.365 145, 131 144.325, 131 143.500 C 131 142.675, 131.655 142, 132.455 142 C 133.325 142, 134.173 140.595, 134.566 138.500 C 134.927 136.575, 135.795 135, 136.495 135 C 137.194 135, 138.002 134.100, 138.290 133 C 138.577 131.900, 139.530 131, 140.406 131 C 141.782 131, 142.560 128.642, 142.128 125.780 C 142.069 125.384, 142.915 124.580, 144.010 123.995 C 145.104 123.409, 146 122.266, 146 121.455 C 146 120.644, 146.900 119.210, 148 118.268 C 149.100 117.326, 150 115.756, 150 114.778 C 150 113.800, 150.420 113, 150.933 113 C 151.446 113, 152.151 112.100, 152.500 111 C 152.849 109.900, 153.892 108.993, 154.817 108.985 C 156.269 108.971, 156.294 108.836, 155 108 C 153.718 107.172, 153.754 107.028, 155.250 107.015 C 156.328 107.006, 157 106.232, 157 105 C 157 103.837, 157.667 103, 158.594 103 C 159.470 103, 160.423 102.100, 160.710 101 C 160.998 99.900, 161.856 99, 162.617 99 C 163.377 99, 164 98.283, 164 97.406 C 164 96.530, 164.900 95.577, 166 95.290 C 167.107 95, 168 93.926, 168 92.883 C 168 91.783, 168.728 90.971, 169.750 90.930 C 171.242 90.870, 171.207 90.745, 169.517 90.085 C 167.868 89.441, 168.164 89.192, 171.267 88.610 C 173.669 88.159, 175 87.357, 175 86.361 C 175 85.509, 175.895 84.579, 176.989 84.293 C 178.083 84.007, 178.730 83.373, 178.429 82.884 C 178.127 82.396, 179.059 81.548, 180.500 81 C 181.941 80.452, 182.872 79.602, 182.569 79.112 C 182.266 78.621, 183.589 77.925, 185.509 77.564 C 187.429 77.204, 189 76.480, 189 75.955 C 189 74.532, 193.767 74.800, 194.250 76.250 C 194.808 77.925, 200 77.967, 200 76.296 C 200 75.583, 199.325 75, 198.500 75 C 197.659 75, 197 74.108, 197 72.969 C 197 71.851, 196.325 70.678, 195.500 70.362 C 194.675 70.045, 194 69.159, 194 68.393 C 194 67.371, 192.534 67, 188.500 67 C 184.278 67, 183 67.348, 183 68.500 M 112.994 182.250 C 112.991 186.787, 112.494 192.284, 111.888 194.465 C 111.085 197.357, 111.087 198.529, 111.894 198.798 C 112.502 199.001, 113.007 200.817, 113.015 202.833 C 113.027 205.546, 113.279 206.110, 113.985 205 C 114.735 203.822, 115.081 204.198, 115.595 206.750 C 116.054 209.028, 116.811 210, 118.125 210 C 119.156 210, 120 210.639, 120 211.421 C 120 212.202, 121.350 213.138, 123 213.500 C 124.650 213.862, 126 214.798, 126 215.579 C 126 216.563, 127.195 217, 129.883 217 C 132.926 217, 133.880 217.433, 134.290 219 C 134.686 220.515, 135.654 221, 138.281 221 C 143.524 221, 148.378 222.148, 146.927 223.045 C 145.129 224.157, 158.278 225.363, 162.732 224.495 C 165.916 223.875, 166.190 223.635, 164.500 222.951 C 163.170 222.412, 164.743 222.117, 169.200 222.070 C 174.201 222.018, 176.124 221.601, 176.781 220.428 C 177.281 219.533, 179.565 218.620, 182.080 218.310 C 184.511 218.011, 186.950 217.228, 187.500 216.571 C 188.050 215.914, 189.287 215.081, 190.250 214.719 C 192.446 213.895, 192.662 208.191, 190.527 207.372 C 189.717 207.061, 188.767 205.275, 188.416 203.403 C 188.054 201.473, 187.177 200, 186.389 200 C 185.625 200, 185 199.283, 185 198.406 C 185 197.530, 184.100 196.577, 183 196.290 C 181.900 196.002, 181 195.144, 181 194.383 C 181 193.623, 180.377 193, 179.617 193 C 178.856 193, 178.014 192.161, 177.746 191.136 C 177.431 189.933, 175.960 189.027, 173.601 188.585 C 171.590 188.208, 170.174 187.528, 170.454 187.075 C 170.734 186.622, 168.673 186.031, 165.875 185.762 C 163.076 185.493, 160.487 184.788, 160.120 184.195 C 159.371 182.982, 148.836 181.071, 142 180.908 C 138.439 180.823, 138.022 180.652, 140 180.090 C 142.413 179.404, 142.383 179.356, 139.125 178.690 C 137.269 178.310, 133.964 178, 131.781 178 C 128.654 178, 127.702 177.576, 127.290 176 C 126.831 174.244, 125.926 174, 119.883 174 L 113 174 112.994 182.250" stroke="none" fill="black" fill-rule="evenodd"/>
</svg>