<svg xmlns="http://www.w3.org/2000/svg" width="300" height="300" viewBox="0 0 300 300" version="1.1">
	<path d="M 172 21.500 C 172 22.333, 171.111 23, 170 23 C 168.667 23, 168 23.667, 168 25 C 168 26.333, 167.333 27, 166 27 C 164.889 27, 164 27.667, 164 28.500 C 164 29.325, 163.375 30, 162.611 30 C 161.816 30, 160.942 31.495, 160.566 33.500 C 160.173 35.595, 159.325 37, 158.455 37 C 157.655 37, 157 37.655, 157 38.455 C 157 39.325, 155.595 40.173, 153.500 40.566 C 151.495 40.942, 150 41.816, 150 42.611 C 150 43.532, 148.820 44, 146.500 44 L 143 44 143 49.500 L 143 55 160.594 55 C 177.346 55, 178.212 55.096, 178.710 57 C 179.013 58.159, 180.074 59, 181.233 59 C 182.819 59, 183.108 59.466, 182.630 61.250 C 182.299 62.487, 182.021 64.063, 182.014 64.750 C 182.006 65.438, 181.325 66, 180.500 66 C 179.675 66, 179 66.675, 179 67.500 C 179 68.333, 178.111 69, 177 69 C 175.889 69, 175 68.333, 175 67.500 C 175 66.368, 173.783 66, 170.045 66 C 165.175 66, 165.080 66.059, 164.434 69.500 C 163.837 72.682, 163.470 73, 160.389 73 C 158.164 73, 157 72.523, 157 71.611 C 157 70.816, 155.505 69.942, 153.500 69.566 C 151.405 69.173, 150 68.325, 150 67.455 C 150 66.358, 148.646 66, 144.500 66 L 139 66 139 69.383 C 139 71.926, 139.497 72.897, 141 73.290 C 142.100 73.577, 143 74.530, 143 75.406 C 143 76.652, 144.092 77, 148 77 C 151.571 77, 153 77.392, 153 78.372 C 153 79.200, 154.587 79.998, 157 80.384 C 160.632 80.965, 161 81.299, 161 84.012 C 161 86.079, 160.509 87, 159.406 87 C 158.530 87, 157.588 87.858, 157.314 88.906 C 156.997 90.120, 155.579 91.044, 153.408 91.451 C 151.386 91.831, 150 92.682, 150 93.545 C 150 94.345, 149.325 95, 148.500 95 C 147.675 95, 147 95.675, 147 96.500 C 147 97.333, 146.111 98, 145 98 C 143.667 98, 143 98.667, 143 100 C 143 101.667, 142.333 102, 139 102 C 136.111 102, 135 102.417, 135 103.500 C 135 104.524, 133.968 105.003, 131.750 105.009 C 124.574 105.028, 118 106.286, 118 107.639 C 118 108.388, 117.100 109, 116 109 C 114.242 109, 114 109.667, 114 114.500 C 114 118.722, 114.348 120, 115.500 120 C 116.325 120, 117 120.675, 117 121.500 C 117 122.333, 117.889 123, 119 123 C 120.111 123, 121 122.333, 121 121.500 C 121 120.348, 122.278 120, 126.500 120 C 130.511 120, 132 119.626, 132 118.619 C 132 117.578, 134.583 117.063, 142.500 116.523 C 150.507 115.977, 153 115.474, 153 114.404 C 153 113.379, 154.416 112.996, 158.250 112.986 C 164.902 112.969, 168 112.142, 168 110.383 C 168 109.308, 170.004 109, 177 109 C 184.333 109, 186 108.722, 186 107.500 C 186 106.452, 187.056 106, 189.500 106 C 192.333 106, 193 105.619, 193 104 C 193 102.667, 193.667 102, 195 102 C 196.873 102, 197 102.667, 197 112.500 L 197 123 192.625 123 C 186.259 123, 182 124.052, 182 125.625 C 182 126.530, 180.803 127, 178.500 127 C 175.667 127, 175 127.381, 175 129 C 175 130.619, 174.333 131, 171.500 131 C 168.167 131, 168 131.167, 168 134.500 C 168 137.333, 167.619 138, 166 138 C 164.889 138, 164 138.667, 164 139.500 C 164 140.325, 163.325 141, 162.500 141 C 161.675 141, 161 141.848, 161 142.883 C 161 143.926, 160.107 145, 159 145.290 C 157.587 145.659, 157.004 146.647, 157.014 148.656 C 157.035 153.026, 158.089 156, 159.617 156 C 160.377 156, 161 156.675, 161 157.500 C 161 158.325, 161.717 159, 162.594 159 C 163.470 159, 164.416 159.874, 164.695 160.943 C 164.991 162.073, 166.416 163.152, 168.102 163.522 C 169.696 163.872, 171 164.798, 171 165.579 C 171 166.361, 171.900 167, 173 167 C 174.111 167, 175 167.667, 175 168.500 C 175 169.325, 175.717 170, 176.594 170 C 177.470 170, 178.423 170.900, 178.710 172 C 179.184 173.811, 180.074 174, 188.117 174 C 195.223 174, 197 173.709, 197 172.545 C 197 171.675, 198.405 170.827, 200.500 170.434 C 202.505 170.058, 204 169.184, 204 168.389 C 204 167.625, 204.900 167, 206 167 C 207.333 167, 208 166.333, 208 165 C 208 163.889, 208.667 163, 209.500 163 C 210.738 163, 211 161.167, 211 152.500 C 211 143.833, 210.738 142, 209.500 142 C 208.452 142, 208 140.944, 208 138.500 C 208 136.056, 208.452 135, 209.500 135 C 210.667 135, 211 133.667, 211 129 C 211 124.333, 210.667 123, 209.500 123 C 208.367 123, 208 121.778, 208 118 C 208 114.289, 208.375 113, 209.456 113 C 210.570 113, 210.981 111.296, 211.206 105.750 L 211.500 98.500 215.250 98.190 C 217.554 97.999, 219 97.365, 219 96.546 C 219 95.575, 221.188 95.112, 227.042 94.847 C 232.582 94.595, 235.357 94.041, 235.959 93.066 C 236.564 92.087, 239.485 91.511, 245.417 91.200 C 251.813 90.864, 254 90.399, 254 89.375 C 254 88.619, 254.900 88, 256 88 C 257.333 88, 258 87.333, 258 86 C 258 84.889, 258.667 84, 259.500 84 C 260.333 84, 261 83.111, 261 82 C 261 80.889, 260.333 80, 259.500 80 C 258.675 80, 258 79.325, 258 78.500 C 258 77.417, 256.889 77, 254 77 C 251.111 77, 250 77.417, 250 78.500 C 250 79.596, 248.855 80.004, 245.750 80.014 C 240.053 80.032, 237 80.940, 237 82.617 C 237 83.743, 233.664 84, 219.034 84 L 201.069 84 200.417 88.914 C 199.712 94.227, 198.727 94.959, 192.250 94.986 C 190.034 94.996, 189 95.477, 189 96.500 C 189 97.575, 187.903 98, 185.125 98 C 179.228 98, 175 99.096, 175 100.625 C 175 101.690, 172.970 102, 166 102 C 158.667 102, 157 102.278, 157 103.500 C 157 104.325, 156.325 105, 155.500 105 C 154.509 105, 154 104.009, 154 102.079 C 154 99.670, 154.507 99.047, 156.898 98.522 C 158.584 98.152, 160.009 97.073, 160.305 95.943 C 160.584 94.874, 161.530 94, 162.406 94 C 163.283 94, 164 93.325, 164 92.500 C 164 91.667, 164.889 91, 166 91 C 167.333 91, 168 90.333, 168 89 C 168 87.889, 168.667 87, 169.500 87 C 170.325 87, 171 86.325, 171 85.500 C 171 84.667, 171.889 84, 173 84 C 174.163 84, 175 83.333, 175 82.406 C 175 81.530, 175.900 80.577, 177 80.290 C 178.100 80.002, 179 79.144, 179 78.383 C 179 77.623, 179.675 77, 180.500 77 C 181.325 77, 182 76.283, 182 75.406 C 182 74.530, 182.900 73.577, 184 73.290 C 185.100 73.002, 186 72.144, 186 71.383 C 186 70.623, 186.900 70, 188 70 C 189.333 70, 190 69.333, 190 68 C 190 66.381, 190.667 66, 193.500 66 C 195.896 66, 197 65.541, 197 64.545 C 197 63.675, 198.405 62.827, 200.500 62.434 C 202.505 62.058, 204 61.184, 204 60.389 C 204 59.625, 204.900 59, 206 59 C 207.605 59, 208 58.333, 208 55.625 C 208 52.645, 207.634 52.177, 204.875 51.625 C 199.216 50.493, 196.846 50.873, 196.290 53 C 195.897 54.503, 194.926 55, 192.383 55 C 190.089 55, 189 54.532, 189 53.545 C 189 52.675, 187.595 51.827, 185.500 51.434 C 183.495 51.058, 182 50.184, 182 49.389 C 182 48.393, 180.617 48, 177.117 48 C 173.074 48, 172.143 47.656, 171.710 46 C 171.310 44.468, 170.346 44, 167.594 44 C 164.972 44, 164 43.569, 164 42.406 C 164 41.530, 164.900 40.577, 166 40.290 C 167.100 40.002, 168 39.144, 168 38.383 C 168 37.623, 168.675 37, 169.500 37 C 170.325 37, 171 36.325, 171 35.500 C 171 34.417, 172.111 34, 175 34 L 179 34 179 28.406 C 179 23.654, 178.699 22.734, 177 22.290 C 175.900 22.002, 175 21.369, 175 20.883 C 175 20.398, 174.325 20, 173.500 20 C 172.675 20, 172 20.675, 172 21.500 M 64 42.500 C 64 43.333, 63.111 44, 62 44 C 60.667 44, 60 44.667, 60 46 C 60 47.100, 59.381 48, 58.625 48 C 56.824 48, 56 52.432, 56 62.125 C 56 68.458, 55.706 70, 54.500 70 C 53.369 70, 53 71.217, 53 74.950 C 53 78.185, 52.508 80.178, 51.580 80.700 C 50.798 81.140, 49.865 82.675, 49.506 84.110 C 48.924 86.437, 49.198 86.790, 52.024 87.355 C 56.059 88.162, 60 87.192, 60 85.392 C 60 84.371, 61.468 84, 65.500 84 C 69.722 84, 71 83.652, 71 82.500 C 71 81.435, 72.087 80.997, 74.750 80.991 C 82.378 80.974, 89 79.751, 89 78.361 C 89 77.343, 90.763 77, 96 77 L 103 77 103 87.500 C 103 97.702, 102.936 98.002, 100.750 98.069 C 99.513 98.108, 88.791 98.079, 76.924 98.007 C 54.399 97.869, 50 98.294, 50 100.608 C 50 101.374, 49.100 102, 48 102 C 46.381 102, 46 102.667, 46 105.500 C 46 108.746, 46.225 109, 49.094 109 C 51.346 109, 52.329 109.544, 52.710 111 C 52.998 112.100, 53.856 113, 54.617 113 C 55.377 113, 56 113.675, 56 114.500 C 56 115.325, 55.325 116, 54.500 116 C 53.445 116, 53 117.066, 53 119.594 C 53 122.346, 52.532 123.310, 51 123.710 C 49.497 124.103, 49 125.074, 49 127.617 C 49 129.957, 48.538 131, 47.500 131 C 46.534 131, 45.995 131.978, 45.986 133.750 C 45.965 138.032, 44.899 141, 43.383 141 C 42.377 141, 42 142.467, 42 146.383 C 42 150.926, 42.312 151.848, 44 152.290 C 45.100 152.577, 46 153.530, 46 154.406 C 46 155.561, 46.964 156, 49.500 156 C 51.820 156, 53 155.532, 53 154.611 C 53 153.816, 54.495 152.942, 56.500 152.566 C 58.437 152.203, 60 151.310, 60 150.566 C 60 149.822, 58.437 148.929, 56.500 148.566 C 53.059 147.920, 53 147.825, 53 142.955 C 53 139.217, 53.368 138, 54.500 138 C 55.555 138, 56 136.934, 56 134.406 C 56 131.654, 56.468 130.690, 58 130.290 C 59.417 129.919, 60 128.926, 60 126.883 C 60 124.912, 60.504 124, 61.594 124 C 62.470 124, 63.423 123.100, 63.710 122 C 63.998 120.900, 64.856 120, 65.617 120 C 66.538 120, 67 118.799, 67 116.406 C 67 113.654, 67.468 112.690, 69 112.290 C 70.100 112.002, 71 111.144, 71 110.383 C 71 109.337, 72.707 109, 78 109 C 83.556 109, 85 108.690, 85 107.500 C 85 106.452, 86.056 106, 88.500 106 C 90.944 106, 92 106.452, 92 107.500 C 92 108.652, 93.278 109, 97.500 109 L 103 109 103 116.500 C 103 122.500, 102.700 124, 101.500 124 C 100.452 124, 100 125.056, 100 127.500 C 100 129.944, 100.452 131, 101.500 131 C 102.325 131, 103 131.675, 103 132.500 C 103 133.325, 102.386 134, 101.636 134 C 100.287 134, 99 139.927, 99 146.140 C 99 148.756, 99.306 149, 102.594 149 C 105.346 149, 106.310 148.532, 106.710 147 C 106.998 145.900, 107.785 145, 108.460 145 C 109.685 145, 111 123.430, 111 103.340 C 111 96.593, 111.287 95, 112.500 95 C 113.742 95, 114 93.111, 114 84 C 114 75.353, 114.293 73, 115.370 73 C 116.249 73, 116.919 71.407, 117.241 68.552 C 117.885 62.840, 117.138 59, 115.383 59 C 114.436 59, 114 57.739, 114 55 C 114 51.667, 113.667 51, 112 51 C 110.889 51, 110 50.333, 110 49.500 C 110 48.513, 109.013 48, 107.117 48 C 103.546 48, 103.032 49.580, 103.014 60.621 L 103 68.742 94 69.446 C 87.207 69.978, 85 70.500, 85 71.575 C 85 72.718, 82.921 73, 74.500 73 L 64 73 64 69.500 C 64 67.056, 64.452 66, 65.500 66 C 66.753 66, 67 63.944, 67 53.500 C 67 43.056, 66.753 41, 65.500 41 C 64.675 41, 64 41.675, 64 42.500 M 189 132.500 C 189 133.510, 187.990 134, 185.906 134 C 183.654 134, 182.671 134.544, 182.290 136 C 181.897 137.503, 180.926 138, 178.383 138 C 176.043 138, 175 138.462, 175 139.500 C 175 140.325, 174.365 141, 173.588 141 C 172.720 141, 171.915 142.541, 171.500 145 C 171.085 147.459, 170.280 149, 169.412 149 C 168.635 149, 168 149.900, 168 151 C 168 152.111, 168.667 153, 169.500 153 C 170.325 153, 171 153.675, 171 154.500 C 171 155.333, 171.889 156, 173 156 C 174.333 156, 175 156.667, 175 158 C 175 159.333, 175.667 160, 177 160 C 178.111 160, 179 160.667, 179 161.500 C 179 162.325, 179.623 163, 180.383 163 C 181.144 163, 182.002 163.900, 182.290 165 C 182.726 166.670, 183.654 167, 187.906 167 C 192.333 167, 193 166.738, 193 165 C 193 163.667, 193.667 163, 195 163 C 196.111 163, 197 162.333, 197 161.500 C 197 160.675, 197.675 160, 198.500 160 C 199.764 160, 200 157.722, 200 145.500 L 200 131 194.500 131 C 190.278 131, 189 131.348, 189 132.500 M 139 144 C 139 145.111, 138.333 146, 137.500 146 C 136.250 146, 136 148, 136 158 C 136 167.608, 136.279 170, 137.397 170 C 138.458 170, 138.880 172.067, 139.147 178.570 C 139.431 185.454, 139.844 187.333, 141.250 188.120 C 142.213 188.659, 143 189.752, 143 190.550 C 143 191.641, 141.638 192, 137.500 192 C 133.528 192, 132 192.378, 132 193.361 C 132 194.422, 128.492 194.879, 116.084 195.435 C 107.331 195.827, 98.106 195.838, 95.584 195.460 C 93.063 195.082, 89.019 195.070, 86.597 195.433 C 83.022 195.969, 82.077 196.555, 81.578 198.547 C 81.239 199.896, 81.231 202.072, 81.560 203.382 C 82.056 205.358, 82.994 205.874, 87.079 206.416 C 90.438 206.862, 92 207.534, 92 208.534 C 92 209.578, 93.153 210, 96 210 C 98.889 210, 100 210.417, 100 211.500 C 100 214.571, 102.874 212.992, 103.187 209.750 C 103.462 206.892, 103.862 206.492, 106.500 206.438 C 119.509 206.167, 121 205.967, 121 204.500 C 121 203.300, 122.500 203, 128.500 203 C 134.500 203, 136 203.300, 136 204.500 C 136 205.333, 135.111 206, 134 206 C 132.667 206, 132 206.667, 132 208 C 132 209.333, 131.333 210, 130 210 C 128.889 210, 128 210.667, 128 211.500 C 128 212.325, 127.325 213, 126.500 213 C 125.667 213, 125 213.889, 125 215 C 125 216.606, 124.333 217, 121.617 217 C 119.074 217, 118.103 217.497, 117.710 219 C 117.423 220.100, 116.470 221, 115.594 221 C 114.717 221, 114 221.675, 114 222.500 C 114 223.325, 113.283 224, 112.406 224 C 111.530 224, 110.577 224.900, 110.290 226 C 110.002 227.100, 109.144 228, 108.383 228 C 107.623 228, 107 228.675, 107 229.500 C 107 230.333, 106.111 231, 105 231 C 103.706 231, 103 231.667, 103 232.889 C 103 234.255, 102.033 234.959, 99.500 235.434 C 97.405 235.827, 96 236.675, 96 237.545 C 96 238.345, 95.100 239, 94 239 C 92.889 239, 92 239.667, 92 240.500 C 92 241.325, 91.325 242, 90.500 242 C 89.667 242, 89 242.889, 89 244 C 89 245.333, 88.333 246, 87 246 C 85.900 246, 85 246.655, 85 247.455 C 85 248.325, 83.595 249.173, 81.500 249.566 C 79.495 249.942, 78 250.816, 78 251.611 C 78 252.375, 77.100 253, 76 253 C 74.667 253, 74 253.667, 74 255 C 74 256.556, 73.333 257, 71 257 C 69 257, 68 257.500, 68 258.500 C 68 259.356, 67.101 260, 65.906 260 C 64.654 260, 63.603 260.803, 63.290 262 C 62.919 263.417, 61.926 264, 59.883 264 C 58.090 264, 57 264.525, 57 265.389 C 57 266.184, 55.505 267.058, 53.500 267.434 C 51.405 267.827, 50 268.675, 50 269.545 C 50 270.345, 49.100 271, 48 271 C 46.333 271, 46 271.667, 46 275 C 46 278.700, 46.206 278.999, 48.750 278.986 C 53.032 278.965, 56 277.899, 56 276.383 C 56 275.623, 56.900 275, 58 275 C 59.100 275, 60 274.345, 60 273.545 C 60 272.675, 61.405 271.827, 63.500 271.434 C 65.505 271.058, 67 270.184, 67 269.389 C 67 268.625, 67.900 268, 69 268 C 70.333 268, 71 267.333, 71 266 C 71 264.667, 71.667 264, 73 264 C 74.100 264, 75 263.345, 75 262.545 C 75 261.675, 76.405 260.827, 78.500 260.434 C 80.505 260.058, 82 259.184, 82 258.389 C 82 257.625, 82.575 257, 83.278 257 C 83.981 257, 85.326 256.100, 86.268 255 C 87.210 253.900, 88.885 253, 89.990 253 C 91.110 253, 92 252.336, 92 251.500 C 92 250.667, 92.889 250, 94 250 C 95.333 250, 96 249.333, 96 248 C 96 246.667, 96.667 246, 98 246 C 99.100 246, 100 245.361, 100 244.579 C 100 243.798, 101.350 242.862, 103 242.500 C 104.650 242.138, 106 241.202, 106 240.421 C 106 239.639, 106.900 239, 108 239 C 109.333 239, 110 238.333, 110 237 C 110 235.667, 110.667 235, 112 235 C 113.111 235, 114 234.333, 114 233.500 C 114 232.675, 114.717 232, 115.594 232 C 116.470 232, 117.423 231.100, 117.710 230 C 117.998 228.900, 118.856 228, 119.617 228 C 120.377 228, 121 227.375, 121 226.611 C 121 225.816, 122.495 224.942, 124.500 224.566 C 126.595 224.173, 128 223.325, 128 222.455 C 128 221.655, 128.900 221, 130 221 C 131.333 221, 132 220.333, 132 219 C 132 217.333, 132.667 217, 136 217 C 138.889 217, 140 216.583, 140 215.500 C 140 214.675, 140.675 214, 141.500 214 C 142.325 214, 143 214.675, 143 215.500 C 143 216.325, 143.675 217, 144.500 217 C 145.706 217, 146 218.542, 146 224.875 C 146 234.568, 146.824 239, 148.625 239 C 151.619 239, 149.871 241.934, 146.500 242.566 L 143 243.223 143 250.111 C 143 255.568, 143.312 257, 144.500 257 C 145.466 257, 146.005 257.978, 146.014 259.750 C 146.035 264.032, 147.101 267, 148.617 267 C 149.377 267, 150 267.900, 150 269 C 150 270.111, 150.667 271, 151.500 271 C 152.325 271, 153 270.283, 153 269.406 C 153 268.530, 153.900 267.577, 155 267.290 C 156.100 267.002, 157 266.144, 157 265.383 C 157 264.623, 157.675 264, 158.500 264 C 159.325 264, 160 263.373, 160 262.607 C 160 261.841, 159.325 260.955, 158.500 260.638 C 157.246 260.157, 157 257.192, 157 242.531 C 157 227.615, 157.224 225, 158.500 225 C 159.325 225, 160 225.675, 160 226.500 C 160 227.433, 160.944 228, 162.500 228 C 164.021 228, 165 228.570, 165 229.455 C 165 230.325, 166.405 231.173, 168.500 231.566 C 170.505 231.942, 172 232.816, 172 233.611 C 172 234.532, 173.180 235, 175.500 235 C 178.333 235, 179 235.381, 179 237 C 179 238.758, 179.667 239, 184.500 239 C 188.646 239, 190 239.358, 190 240.455 C 190 241.325, 191.405 242.173, 193.500 242.566 C 195.505 242.942, 197 243.816, 197 244.611 C 197 245.673, 198.767 246, 204.500 246 C 210.219 246, 212 246.329, 212 247.383 C 212 249.210, 215.135 249.970, 222.750 249.986 C 227.633 249.997, 229 250.328, 229 251.500 C 229 252.652, 230.278 253, 234.500 253 C 238.722 253, 240 253.348, 240 254.500 C 240 255.325, 240.627 256, 241.393 256 C 242.159 256, 243.045 255.325, 243.362 254.500 C 243.678 253.675, 244.626 253, 245.469 253 C 246.552 253, 247 251.976, 247 249.500 C 247 247.187, 246.531 246, 245.617 246 C 244.856 246, 243.998 245.100, 243.710 244 C 243.229 242.159, 242.346 242, 232.594 242 C 223.844 242, 222 241.739, 222 240.500 C 222 239.379, 220.799 238.997, 217.250 238.986 C 211.077 238.969, 208 238.103, 208 236.383 C 208 235.373, 206.516 235, 202.500 235 C 198.500 235, 197 234.625, 197 233.625 C 197 232.254, 192.880 231, 188.375 231 C 186.931 231, 186 230.412, 186 229.500 C 186 228.452, 184.944 228, 182.500 228 C 179.667 228, 179 227.619, 179 226 C 179 224.381, 178.333 224, 175.500 224 C 173.056 224, 172 223.548, 172 222.500 C 172 221.667, 171.111 221, 170 221 C 168.667 221, 168 220.333, 168 219 C 168 217.889, 167.333 217, 166.500 217 C 165.675 217, 165 216.325, 165 215.500 C 165 214.404, 166.145 213.996, 169.250 213.986 C 174.947 213.968, 178 213.060, 178 211.383 C 178 210.436, 179.261 210, 182 210 C 184.746 210, 186 209.565, 186 208.611 C 186 207.816, 187.495 206.942, 189.500 206.566 C 191.437 206.203, 193 205.310, 193 204.566 C 193 203.822, 194.563 202.929, 196.500 202.566 C 198.595 202.173, 200 201.325, 200 200.455 C 200 199.655, 200.900 199, 202 199 C 203.111 199, 204 198.333, 204 197.500 C 204 196.348, 205.278 196, 209.500 196 L 215 196 215 192 L 215 188 207.906 188 C 201.654 188, 200.751 188.237, 200.290 190 C 199.897 191.503, 198.926 192, 196.383 192 C 193.667 192, 193 192.394, 193 194 C 193 195.111, 192.333 196, 191.500 196 C 190.675 196, 190 196.625, 190 197.389 C 190 198.177, 188.527 199.054, 186.597 199.416 C 184.725 199.767, 182.939 200.717, 182.628 201.527 C 182.234 202.554, 180.540 203, 177.031 203 C 173.446 203, 172 203.392, 172 204.366 C 172 205.344, 169.982 205.876, 164.880 206.241 C 154.054 207.015, 154 206.979, 154 198.883 C 154 192.667, 153.806 192, 152 192 C 150.178 192, 150 191.333, 150 184.500 C 150 178.500, 149.700 177, 148.500 177 C 147.295 177, 146.963 175.278, 146.813 168.250 C 146.711 163.438, 146.559 158.150, 146.476 156.500 C 146.393 154.850, 146.252 151.588, 146.162 149.250 C 146.046 146.211, 145.573 145, 144.500 145 C 143.675 145, 143 144.325, 143 143.500 C 143 142.667, 142.111 142, 141 142 C 139.667 142, 139 142.667, 139 144" stroke="none" fill="black" fill-rule="evenodd"/>
</svg>