<svg xmlns="http://www.w3.org/2000/svg" width="300" height="300" viewBox="0 0 300 300" version="1.1">
	<path d="M 112.348 86.778 C 112.055 87.898, 110.957 89.040, 109.908 89.314 C 107.173 90.029, 107.182 96, 109.918 96 C 112.899 96, 115 97.078, 115 98.607 C 115 99.373, 115.900 100, 117 100 C 118.100 100, 119 100.568, 119 101.263 C 119 101.957, 120.013 102.986, 121.250 103.549 C 122.487 104.113, 123.388 105.119, 123.250 105.787 C 122.920 107.387, 124.690 107.356, 125.338 105.750 C 125.639 105.003, 125.874 105.205, 125.921 106.250 C 125.970 107.324, 126.795 108, 128.059 108 C 129.191 108, 129.839 108.451, 129.499 109.002 C 129.158 109.553, 130.059 110.452, 131.500 111 C 132.941 111.548, 133.872 112.398, 133.569 112.888 C 133.266 113.379, 134.589 114.075, 136.509 114.436 C 138.440 114.798, 140 115.691, 140 116.434 C 140 117.178, 141.563 118.071, 143.500 118.434 C 145.595 118.827, 147 119.675, 147 120.545 C 147 121.345, 147.848 122, 148.883 122 C 149.926 122, 151 122.893, 151.290 124 C 151.671 125.456, 152.654 126, 154.906 126 C 156.879 126, 158 126.503, 158 127.389 C 158 128.184, 159.495 129.058, 161.500 129.434 C 163.437 129.797, 165 130.690, 165 131.434 C 165 132.173, 166.532 133.065, 168.403 133.416 C 170.275 133.767, 172.061 134.717, 172.372 135.527 C 172.683 136.337, 173.626 137, 174.469 137 C 177.541 137, 175.943 139.788, 172.500 140.434 C 170.405 140.827, 169 141.675, 169 142.545 C 169 143.347, 168.076 144, 166.941 144 C 165.736 144, 165.156 144.443, 165.542 145.067 C 165.905 145.655, 165.257 146.381, 164.101 146.684 C 162.904 146.997, 162 148.044, 162 149.117 C 162 150.333, 161.292 151, 160 151 C 158.900 151, 158 151.499, 158 152.109 C 158 153.645, 153.774 157.962, 152.250 157.983 C 151.563 157.992, 151 158.900, 151 160 C 151 161.333, 150.333 162, 149 162 C 147.900 162, 147 162.623, 147 163.383 C 147 164.144, 146.055 165.014, 144.899 165.316 C 143.658 165.641, 143.086 166.330, 143.500 167 C 143.914 167.670, 143.342 168.359, 142.101 168.684 C 140.945 168.986, 140 169.870, 140 170.649 C 140 171.427, 138.988 172.471, 137.750 172.969 C 136.512 173.466, 135.893 173.902, 136.372 173.937 C 136.852 173.971, 136.689 174.670, 136.009 175.489 C 135.329 176.308, 134.374 176.731, 133.887 176.430 C 133.399 176.129, 133 176.561, 133 177.391 C 133 178.221, 132.213 179.359, 131.250 179.920 C 129.856 180.732, 129.805 180.958, 131 181.033 C 132.427 181.122, 128.622 183.172, 126.500 183.457 C 125.950 183.530, 125.625 184.172, 125.779 184.882 C 125.932 185.591, 125.144 186.411, 124.029 186.703 C 122.913 186.995, 122 187.870, 122 188.648 C 122 189.426, 121.356 190.310, 120.570 190.612 C 119.783 190.913, 118.682 192.474, 118.122 194.080 C 117.562 195.686, 116.406 197, 115.552 197 C 114.667 197, 114 197.859, 114 199 C 114 200.100, 113.381 201, 112.625 201 C 111.107 201, 110 205.220, 110 211.008 C 110 214.312, 110.332 214.831, 112.750 215.300 C 114.263 215.594, 116.684 215.601, 118.131 215.316 C 120.409 214.867, 120.832 214.186, 121.276 210.248 C 121.581 207.534, 122.437 205.335, 123.394 204.799 C 124.277 204.305, 125 203.023, 125 201.950 C 125 200.878, 125.639 200, 126.421 200 C 127.202 200, 128.138 198.650, 128.500 197 C 128.862 195.350, 129.798 194, 130.579 194 C 131.361 194, 132 193.100, 132 192 C 132 190.900, 132.659 190, 133.465 190 C 134.270 190, 135.418 189.087, 136.015 187.972 C 136.612 186.857, 137.528 186.208, 138.050 186.531 C 138.573 186.854, 139 186.374, 139 185.465 C 139 184.556, 139.900 183.577, 141 183.290 C 142.100 183.002, 143 182.197, 143 181.500 C 143 180.803, 143.900 179.998, 145 179.710 C 146.100 179.423, 147 178.470, 147 177.594 C 147 176.717, 147.675 176, 148.500 176 C 149.325 176, 150 175.325, 150 174.500 C 150 173.675, 150.717 173, 151.594 173 C 152.470 173, 153.423 172.100, 153.710 171 C 153.998 169.900, 154.856 169, 155.617 169 C 156.377 169, 157 168.355, 157 167.567 C 157 166.779, 157.851 165.865, 158.892 165.534 C 159.933 165.204, 161.027 164.003, 161.325 162.866 C 161.622 161.729, 162.295 161.064, 162.819 161.388 C 163.343 161.712, 164.007 161.083, 164.293 159.989 C 164.579 158.895, 165.530 158, 166.406 158 C 167.283 158, 168 157.325, 168 156.500 C 168 155.675, 168.848 155, 169.883 155 C 170.926 155, 172 154.107, 172.290 153 C 172.577 151.900, 173.530 151, 174.406 151 C 175.283 151, 176 150.325, 176 149.500 C 176 148.667, 176.889 148, 178 148 C 179.333 148, 180 147.333, 180 146 C 180 144.381, 180.667 144, 183.500 144 C 185.944 144, 187 143.548, 187 142.500 C 187 141.667, 187.889 141, 189 141 C 190.667 141, 191 140.333, 191 137 C 191 133.667, 190.667 133, 189 133 C 187.889 133, 187 132.333, 187 131.500 C 187 130.452, 185.944 130, 183.500 130 C 180.667 130, 180 129.619, 180 128 C 180 126.381, 179.333 126, 176.500 126 C 173.667 126, 173 125.619, 173 124 C 173 122.381, 172.333 122, 169.500 122 C 167.056 122, 166 121.548, 166 120.500 C 166 119.452, 164.944 119, 162.500 119 C 159.964 119, 159 118.561, 159 117.406 C 159 116.530, 158.100 115.577, 157 115.290 C 155.900 115.002, 155 114.194, 155 113.495 C 155 112.795, 153.425 111.927, 151.500 111.566 C 149.563 111.203, 148 110.310, 148 109.566 C 148 108.822, 146.437 107.929, 144.500 107.566 C 142.405 107.173, 141 106.325, 141 105.455 C 141 104.655, 140.100 104, 139 104 C 137.900 104, 137 103.355, 137 102.567 C 137 101.779, 136.100 100.849, 135 100.500 C 133.900 100.151, 133 99.241, 133 98.478 C 133 97.687, 131.511 96.811, 129.535 96.441 C 127.629 96.083, 126.107 95.500, 126.153 95.145 C 126.417 93.105, 125.816 92, 124.441 92 C 123.584 92, 123.152 91.563, 123.482 91.029 C 123.812 90.495, 122.938 89.772, 121.541 89.421 C 120.143 89.070, 119 88.157, 119 87.392 C 119 86.626, 118.362 86, 117.582 86 C 116.802 86, 115.425 85.717, 114.522 85.370 C 113.399 84.939, 112.713 85.383, 112.348 86.778" stroke="none" fill="black" fill-rule="evenodd"/>
</svg>