<svg xmlns="http://www.w3.org/2000/svg" width="300" height="300" viewBox="0 0 300 300" version="1.1">
	<path d="M 152 69.936 C 150.625 70.412, 149.950 70.909, 150.500 71.042 C 151.050 71.175, 148.373 71.601, 144.551 71.988 C 140.730 72.375, 137.434 73.197, 137.229 73.814 C 137.023 74.432, 135.276 75.233, 133.347 75.595 C 131.418 75.956, 129.603 76.871, 129.313 77.626 C 129.009 78.418, 127.348 79, 125.393 79 C 122.667 79, 122 79.393, 122 81 C 122 82.619, 121.333 83, 118.500 83 C 116.187 83, 115 83.469, 115 84.383 C 115 85.144, 114.100 86.002, 113 86.290 C 111.900 86.577, 111 87.530, 111 88.406 C 111 89.283, 110.377 90, 109.617 90 C 108.856 90, 107.998 90.900, 107.710 92 C 107.423 93.100, 106.470 94, 105.594 94 C 104.717 94, 104 94.675, 104 95.500 C 104 96.325, 103.325 97, 102.500 97 C 101.667 97, 101 97.889, 101 99 C 101 100.145, 100.333 101, 99.441 101 C 98.584 101, 98.129 101.399, 98.430 101.887 C 98.731 102.374, 98.308 103.329, 97.489 104.009 C 96.670 104.689, 96 106.791, 96 108.681 C 96 110.718, 95.593 111.866, 95 111.500 C 94.395 111.126, 94 112.509, 94 115 C 94 117.491, 94.395 118.874, 95 118.500 C 95.604 118.127, 96 119.490, 96 121.941 C 96 125.333, 96.328 126, 98 126 C 99.111 126, 100 126.667, 100 127.500 C 100 128.325, 100.675 129, 101.500 129 C 102.325 129, 103 129.850, 103 130.889 C 103 132.245, 103.959 132.957, 106.403 133.416 C 108.275 133.767, 110.061 134.717, 110.372 135.527 C 110.683 136.337, 111.851 137, 112.969 137 C 114.086 137, 115 137.612, 115 138.361 C 115 139.255, 116.798 139.937, 120.250 140.352 C 127.879 141.268, 156.154 141.008, 158.500 140 C 159.945 139.379, 160.084 139.081, 159 138.927 C 158.175 138.809, 161.231 138.387, 165.792 137.990 C 172.042 137.445, 174.407 136.825, 175.397 135.471 C 176.120 134.483, 177.338 133.915, 178.105 134.209 C 180.313 135.053, 179.137 157.433, 176.792 159.207 C 175.251 160.374, 175.055 163.801, 174.792 194.251 C 174.537 223.709, 174.691 228.003, 176 228.016 C 177.188 228.028, 177.226 228.204, 176.183 228.866 C 174.155 230.152, 179.997 232.197, 184.613 231.818 C 188.927 231.464, 189.625 230.147, 188.547 224.400 C 188.169 222.384, 187.317 221, 186.455 221 C 185.233 221, 185 217.952, 185 201.941 C 185 189.490, 184.653 183.096, 184 183.500 C 183.420 183.859, 183 182.879, 183 181.166 C 183 179.464, 183.635 177.970, 184.500 177.638 C 185.735 177.165, 186 174.581, 186 163.031 C 186 151.491, 186.255 149, 187.439 149 C 188.807 149, 189.497 146.169, 190.242 137.500 C 190.384 135.850, 191.008 134.594, 191.629 134.710 C 192.249 134.825, 193.042 133.137, 193.390 130.960 C 193.789 128.469, 194.559 127, 195.467 127 C 196.341 127, 197.185 125.529, 197.610 123.267 C 198.192 120.164, 198.441 119.868, 199.085 121.517 C 199.745 123.207, 199.870 123.242, 199.930 121.750 C 199.972 120.701, 200.787 120, 201.966 120 C 203.566 120, 204.053 119.082, 204.586 115.061 C 204.953 112.296, 205.849 109.888, 206.621 109.592 C 208.480 108.879, 208.383 106, 206.500 106 C 205.667 106, 205 105.111, 205 104 C 205 102.381, 204.333 102, 201.500 102 L 198 102 198 95.117 C 198 89.074, 197.756 88.169, 196 87.710 C 194.900 87.423, 194 86.470, 194 85.594 C 194 84.717, 193.325 84, 192.500 84 C 191.675 84, 191 83.283, 191 82.406 C 191 81.530, 190.100 80.577, 189 80.290 C 187.900 80.002, 187 79.144, 187 78.383 C 187 77.623, 186.283 77, 185.406 77 C 184.530 77, 183.592 76.154, 183.321 75.120 C 182.960 73.738, 181.630 73.106, 178.291 72.729 C 175.795 72.448, 173.411 71.665, 172.994 70.990 C 172.070 69.495, 155.659 68.671, 152 69.936 M 154.418 77.867 C 154.713 78.344, 151.821 78.959, 147.992 79.233 C 144.162 79.507, 140.419 80.238, 139.673 80.857 C 138.926 81.476, 138.020 81.687, 137.658 81.325 C 137.296 80.963, 137 81.142, 137 81.722 C 137 82.302, 135.468 83.065, 133.597 83.416 C 131.725 83.767, 129.939 84.717, 129.628 85.527 C 129.317 86.337, 128.374 87, 127.531 87 C 126.689 87, 126 87.675, 126 88.500 C 126 89.797, 122.862 90.610, 119.750 90.118 C 119.338 90.053, 119 90.900, 119 92 C 119 93.306, 118.333 94, 117.079 94 C 115.740 94, 114.951 94.949, 114.471 97.133 C 114.014 99.213, 113.520 99.841, 113 99 C 112.480 98.159, 111.986 98.787, 111.529 100.867 C 111.151 102.590, 110.258 104, 109.546 104 C 106.784 104, 105.797 121.601, 108.500 122.638 C 109.325 122.955, 110 123.841, 110 124.607 C 110 125.426, 111.030 126, 112.500 126 C 114.021 126, 115 126.570, 115 127.455 C 115 128.358, 116.421 129.146, 118.750 129.533 C 124.198 130.438, 125.201 130.867, 124.504 131.993 C 124.097 132.652, 129.086 133, 138.941 133 C 147.377 133, 154 132.598, 154 132.085 C 154 131.582, 157.375 130.854, 161.500 130.468 C 165.625 130.081, 169 129.381, 169 128.911 C 169 128.441, 170.463 127.680, 172.250 127.219 C 174.658 126.599, 175.577 125.749, 175.799 123.941 C 175.964 122.598, 176.289 120.933, 176.522 120.240 C 176.755 119.546, 176.917 118.687, 176.883 118.329 C 176.849 117.972, 177.536 117.279, 178.410 116.790 C 179.285 116.301, 180 115.410, 180 114.811 C 180 114.211, 180.674 113.221, 181.498 112.610 C 182.321 112, 183.092 110.290, 183.211 108.811 C 183.341 107.191, 184.137 105.936, 185.213 105.655 C 186.211 105.394, 187 104.263, 187 103.094 C 187 101.942, 187.399 101, 187.887 101 C 188.374 101, 188.971 99.650, 189.213 98 C 189.496 96.071, 189.220 95, 188.438 95 C 187.770 95, 186.927 93.425, 186.566 91.500 C 186.173 89.405, 185.325 88, 184.455 88 C 183.655 88, 183 87.136, 183 86.079 C 183 84.771, 182.071 83.955, 180.084 83.518 C 178.479 83.166, 176.937 82.277, 176.655 81.543 C 176.373 80.808, 173.748 79.873, 170.821 79.465 C 166.750 78.898, 165.970 78.538, 167.500 77.932 C 168.760 77.434, 166.609 77.115, 161.691 77.070 C 157.396 77.032, 154.123 77.390, 154.418 77.867 M 199.079 96.583 C 199.127 97.748, 199.364 97.985, 199.683 97.188 C 199.972 96.466, 199.936 95.603, 199.604 95.271 C 199.272 94.939, 199.036 95.529, 199.079 96.583" stroke="none" fill="black" fill-rule="evenodd"/>
</svg>