<svg xmlns="http://www.w3.org/2000/svg" width="300" height="300" viewBox="0 0 300 300" version="1.1">
	<path d="M 121.750 44.689 C 120.296 45.069, 120 46.317, 120 52.073 C 120 58.333, 119.808 59, 118 59 C 116.889 59, 116 59.667, 116 60.500 C 116 61.466, 115.022 62.005, 113.250 62.014 C 108.968 62.035, 106 63.101, 106 64.617 C 106 65.564, 104.739 66, 102 66 C 99.166 66, 98 66.424, 98 67.455 C 98 68.325, 96.595 69.173, 94.500 69.566 C 92.495 69.942, 91 70.816, 91 71.611 C 91 72.375, 90.352 73, 89.559 73 C 87.306 73, 86.739 74.775, 87.458 79.571 C 88.096 83.822, 88.261 84, 91.561 84 C 94.825 84, 95 84.179, 95 87.500 C 95 90.333, 94.619 91, 93 91 C 91.381 91, 91 91.667, 91 94.500 C 91 97.518, 91.327 98, 93.375 98 C 94.681 98, 97.156 98.281, 98.875 98.625 C 101.862 99.222, 102 99.465, 102 104.125 C 102 108.333, 101.726 109, 100 109 C 98.381 109, 98 109.667, 98 112.500 C 98 114.944, 97.548 116, 96.500 116 C 95.417 116, 95 117.111, 95 120 C 95 122.739, 94.564 124, 93.617 124 C 91.897 124, 91.031 127.077, 91.014 133.250 C 91.002 137.338, 91.279 138, 93 138 C 94.333 138, 95 137.333, 95 136 C 95 134.900, 95.639 134, 96.421 134 C 97.202 134, 98.138 132.650, 98.500 131 C 98.862 129.350, 99.798 128, 100.579 128 C 101.570 128, 102 126.789, 102 124 C 102 121.261, 102.436 120, 103.383 120 C 104.899 120, 105.965 117.032, 105.986 112.750 C 105.995 110.978, 106.534 110, 107.500 110 C 108.583 110, 109 108.889, 109 106 C 109 102.095, 109.083 102, 112.500 102 C 114.944 102, 116 101.548, 116 100.500 C 116 99.268, 117.764 99, 125.875 99 C 131.306 99, 137.156 98.719, 138.875 98.375 C 141.634 97.823, 142 97.355, 142 94.375 L 142 91 128.883 91 C 115.769 91, 115.767 91, 116.370 88.750 C 116.701 87.513, 116.979 85.938, 116.986 85.250 C 116.994 84.563, 117.675 84, 118.500 84 C 119.548 84, 120 82.944, 120 80.500 C 120 78.180, 120.468 77, 121.389 77 C 122.176 77, 123.053 75.530, 123.414 73.607 C 123.959 70.704, 124.553 70.119, 127.525 69.561 C 129.600 69.172, 131 68.323, 131 67.455 C 131 66.252, 133.401 66, 144.883 66 C 161.032 66, 159.849 64.945, 159.185 78.750 C 158.887 84.948, 158.442 87, 157.394 87 C 156.434 87, 156 88.246, 156 91 C 156 93.834, 155.576 95, 154.545 95 C 153.675 95, 152.827 96.405, 152.434 98.500 C 152.058 100.505, 151.184 102, 150.389 102 C 149.468 102, 149 103.180, 149 105.500 C 149 108.333, 148.619 109, 147 109 C 145.667 109, 145 109.667, 145 111 C 145 112.111, 144.333 113, 143.500 113 C 142.452 113, 142 114.056, 142 116.500 C 142 119.333, 141.619 120, 140 120 C 138.333 120, 138 120.667, 138 124 C 138 126.789, 137.570 128, 136.579 128 C 135.798 128, 134.862 129.350, 134.500 131 C 134.138 132.650, 133.202 134, 132.421 134 C 131.639 134, 131 134.900, 131 136 C 131 137.333, 130.333 138, 129 138 C 127.667 138, 127 138.667, 127 140 C 127 141.111, 126.333 142, 125.500 142 C 124.675 142, 124 142.675, 124 143.500 C 124 144.333, 123.111 145, 122 145 C 120.667 145, 120 145.667, 120 147 C 120 148.333, 119.333 149, 118 149 C 116.889 149, 116 149.667, 116 150.500 C 116 151.325, 115.325 152, 114.500 152 C 113.410 152, 113 153.124, 113 156.117 C 113 159.898, 113.183 160.184, 115.250 159.630 C 116.487 159.299, 118.063 159.021, 118.750 159.014 C 119.438 159.006, 120 158.325, 120 157.500 C 120 156.667, 120.889 156, 122 156 C 123.111 156, 124 155.333, 124 154.500 C 124 153.675, 124.675 153, 125.500 153 C 126.333 153, 127 152.111, 127 151 C 127 149.667, 127.667 149, 129 149 C 130.333 149, 131 148.333, 131 147 C 131 145.889, 131.667 145, 132.500 145 C 133.325 145, 134 144.325, 134 143.500 C 134 142.667, 134.889 142, 136 142 C 137.333 142, 138 141.333, 138 140 C 138 138.667, 138.667 138, 140 138 C 141.619 138, 142 137.333, 142 134.500 C 142 132.056, 142.452 131, 143.500 131 C 144.333 131, 145 130.111, 145 129 C 145 127.667, 145.667 127, 147 127 C 148.619 127, 149 126.333, 149 123.500 C 149 121.104, 149.459 120, 150.455 120 C 151.325 120, 152.173 118.595, 152.566 116.500 C 152.942 114.495, 153.816 113, 154.611 113 C 155.375 113, 156 112.100, 156 111 C 156 109.900, 156.655 109, 157.455 109 C 158.325 109, 159.173 107.595, 159.566 105.500 C 159.942 103.495, 160.816 102, 161.611 102 C 162.523 102, 163 100.837, 163 98.617 C 163 96.074, 163.497 95.103, 165 94.710 C 166.763 94.249, 167 93.346, 167 87.094 C 167 81.455, 167.308 80, 168.500 80 C 169.690 80, 170 78.556, 170 73 C 170 67.444, 169.690 66, 168.500 66 C 167.462 66, 167 64.957, 167 62.617 C 167 60.074, 166.503 59.103, 165 58.710 C 163.900 58.423, 163 57.470, 163 56.594 C 163 55.209, 161.101 55, 148.500 55 C 136.278 55, 134 55.236, 134 56.500 C 134 57.325, 133.325 58, 132.500 58 C 131.310 58, 131 56.556, 131 51 L 131 44 127.250 44.116 C 125.188 44.180, 122.713 44.438, 121.750 44.689 M 218 46.500 C 218 47.433, 217.056 48, 215.500 48 C 213.944 48, 213 48.567, 213 49.500 C 213 50.575, 211.903 51, 209.125 51 C 203.228 51, 199 52.096, 199 53.625 C 199 54.381, 198.377 55, 197.617 55 C 196.856 55, 195.998 55.900, 195.710 57 C 195.423 58.100, 194.470 59, 193.594 59 C 192.329 59, 192 60.134, 192 64.500 C 192 68.866, 192.329 70, 193.594 70 C 194.470 70, 195.423 69.100, 195.710 68 C 196 66.893, 197.074 66, 198.117 66 C 199.152 66, 200 65.377, 200 64.617 C 200 62.940, 203.053 62.032, 208.750 62.014 L 213 62 213 69 C 213 74.556, 212.690 76, 211.500 76 C 210.417 76, 210 77.111, 210 80 L 210 84 203 84 L 196 84 196 87.500 C 196 89.944, 196.452 91, 197.500 91 C 198.325 91, 199 91.717, 199 92.594 C 199 93.470, 199.900 94.423, 201 94.710 C 202.647 95.141, 203 96.074, 203 100 C 203 103.926, 202.647 104.859, 201 105.290 C 199.468 105.690, 199 106.654, 199 109.406 C 199 111.884, 198.548 113, 197.545 113 C 196.675 113, 195.827 114.405, 195.434 116.500 C 195.058 118.505, 194.184 120, 193.389 120 C 192.625 120, 192 120.900, 192 122 C 192 123.100, 191.345 124, 190.545 124 C 189.675 124, 188.827 125.405, 188.434 127.500 C 188.058 129.505, 187.184 131, 186.389 131 C 185.468 131, 185 132.180, 185 134.500 C 185 136.825, 184.532 138, 183.607 138 C 182.078 138, 181 140.101, 181 143.082 C 181 144.170, 180.311 145, 179.406 145 C 178.530 145, 177.577 145.900, 177.290 147 C 177.002 148.100, 176.144 149, 175.383 149 C 174.623 149, 174 149.623, 174 150.383 C 174 151.144, 173.100 152.002, 172 152.290 C 169.920 152.834, 169.389 156.117, 170.630 160.750 C 171.283 163.184, 174 163.883, 174 161.617 C 174 160.856, 174.900 159.998, 176 159.710 C 177.100 159.423, 178 158.470, 178 157.594 C 178 156.717, 178.675 156, 179.500 156 C 180.325 156, 181 155.283, 181 154.406 C 181 153.530, 181.900 152.577, 183 152.290 C 184.392 151.926, 185 150.926, 185 149 C 185 147.074, 185.608 146.074, 187 145.710 C 188.100 145.423, 189 144.470, 189 143.594 C 189 142.717, 189.675 142, 190.500 142 C 191.548 142, 192 140.944, 192 138.500 C 192 135.964, 192.439 135, 193.594 135 C 194.470 135, 195.423 134.100, 195.710 133 C 195.998 131.900, 196.856 131, 197.617 131 C 198.522 131, 199 129.831, 199 127.617 C 199 125.074, 199.497 124.103, 201 123.710 C 202.532 123.310, 203 122.346, 203 119.594 C 203 117.201, 203.462 116, 204.383 116 C 205.899 116, 206.965 113.032, 206.986 108.750 C 206.995 106.978, 207.534 106, 208.500 106 C 209.333 106, 210 105.111, 210 104 C 210 102.333, 210.667 102, 214 102 C 216.834 102, 218 102.424, 218 103.455 C 218 104.325, 219.405 105.173, 221.500 105.566 C 223.505 105.942, 225 106.816, 225 107.611 C 225 108.532, 226.180 109, 228.500 109 C 231.333 109, 232 109.381, 232 111 C 232 112.619, 232.667 113, 235.500 113 C 237.944 113, 239 113.452, 239 114.500 C 239 115.325, 239.717 116, 240.594 116 C 241.470 116, 242.423 116.900, 242.710 118 C 243.103 119.503, 244.074 120, 246.617 120 C 249.511 120, 250 120.343, 250 122.375 C 250 126.880, 248.746 131, 247.375 131 C 246.470 131, 246 132.197, 246 134.500 C 246 137.333, 245.619 138, 244 138 C 242.667 138, 242 138.667, 242 140 C 242 141.111, 241.333 142, 240.500 142 C 239.452 142, 239 143.056, 239 145.500 C 239 148.333, 238.619 149, 237 149 C 235.667 149, 235 149.667, 235 151 C 235 152.111, 234.333 153, 233.500 153 C 232.675 153, 232 153.675, 232 154.500 C 232 155.333, 231.111 156, 230 156 C 228.667 156, 228 156.667, 228 158 C 228 159.111, 227.333 160, 226.500 160 C 225.675 160, 225 160.675, 225 161.500 C 225 163.101, 222.898 163.416, 214.750 163.037 L 210 162.816 210 166.908 C 210 169.725, 209.569 171, 208.617 171 C 206.440 171, 206.027 174.348, 206.027 192 C 206.027 209.652, 206.440 213, 208.617 213 C 209.627 213, 210 214.484, 210 218.500 C 210 222.722, 210.348 224, 211.500 224 C 212.325 224, 213.052 224.787, 213.116 225.750 C 213.759 235.440, 213.812 239.044, 213.357 242.250 C 212.826 245.988, 212.809 246, 208.029 246 C 204.074 246, 203.142 245.649, 202.710 244 C 202.329 242.544, 201.346 242, 199.094 242 C 196.930 242, 196 241.521, 196 240.406 C 196 239.530, 195.100 238.577, 194 238.290 C 192.344 237.857, 192 236.926, 192 232.883 C 192 229.226, 191.626 228, 190.512 228 C 189.549 228, 188.798 226.588, 188.384 224 C 187.998 221.587, 187.200 220, 186.372 220 C 185.350 220, 185 218.342, 185 213.500 C 185 208.389, 185.321 207, 186.500 207 C 187.555 207, 188 205.934, 188 203.406 C 188 200.654, 188.468 199.690, 190 199.290 C 191.100 199.002, 192 198.144, 192 197.383 C 192 196.469, 193.187 196, 195.500 196 C 198.333 196, 199 195.619, 199 194 C 199 192.381, 198.333 192, 195.500 192 C 193.056 192, 192 191.548, 192 190.500 C 192 189.667, 191.111 189, 190 189 C 188.889 189, 188 189.667, 188 190.500 C 188 191.629, 186.791 192, 183.117 192 C 179.074 192, 178.143 191.656, 177.710 190 C 177.423 188.900, 176.470 188, 175.594 188 C 174.717 188, 174 187.325, 174 186.500 C 174 185.667, 173.111 185, 172 185 C 170.889 185, 170 185.667, 170 186.500 C 170 187.325, 169.325 188, 168.500 188 C 167.675 188, 167 187.325, 167 186.500 C 167 185.247, 164.951 185, 154.559 185 C 147.716 185, 141.909 184.662, 141.654 184.249 C 141.398 183.836, 141.430 181.361, 141.725 178.749 L 142.260 174 147.130 174 C 153.079 174, 154.049 171.475, 148.500 170.434 C 146.575 170.073, 145 169.203, 145 168.500 C 145 167.797, 143.425 166.927, 141.500 166.566 C 139.575 166.205, 138 165.480, 138 164.955 C 138 164.430, 137.325 164, 136.500 164 C 135.675 164, 135 164.675, 135 165.500 C 135 166.325, 134.115 167, 133.034 167 C 131.431 167, 130.947 167.921, 130.406 172 C 130.041 174.750, 129.350 177, 128.871 177 C 128.392 177, 128 177.900, 128 179 C 128 180.111, 128.667 181, 129.500 181 C 130.700 181, 131 182.500, 131 188.500 C 131 194.500, 131.300 196, 132.500 196 C 133.717 196, 134 197.622, 134 204.594 C 134 212.346, 134.196 213.238, 136 213.710 C 137.756 214.169, 138 215.074, 138 221.117 C 138 226.544, 137.685 228, 136.512 228 C 135.549 228, 134.798 229.412, 134.384 232 C 133.998 234.413, 133.200 236, 132.372 236 C 131.617 236, 131 236.450, 131 237 C 131 237.570, 128.039 238, 124.117 238 C 116.618 238, 116.047 237.489, 116.014 230.750 C 116.005 228.978, 115.466 228, 114.500 228 C 113.278 228, 113 226.333, 113 219 C 113 211.667, 113.278 210, 114.500 210 C 115.548 210, 116 208.944, 116 206.500 C 116 203.667, 116.381 203, 118 203 C 119.667 203, 120 202.333, 120 199 C 120 195.667, 119.667 195, 118 195 C 116.889 195, 116 194.333, 116 193.500 C 116 192.675, 115.325 192, 114.500 192 C 113.675 192, 113 192.675, 113 193.500 C 113 194.325, 112.283 195, 111.406 195 C 110.530 195, 109.588 195.858, 109.314 196.908 C 109.040 197.957, 107.957 199.040, 106.908 199.314 C 105.346 199.722, 105 200.736, 105 204.906 C 105 208.767, 104.637 210, 103.500 210 C 102.348 210, 102 211.278, 102 215.500 C 102 219.722, 102.348 221, 103.500 221 C 104.663 221, 105 222.319, 105 226.875 C 105 234.658, 105.940 239, 107.625 239 C 108.381 239, 109 239.900, 109 241 C 109 242.111, 109.667 243, 110.500 243 C 111.325 243, 112 243.675, 112 244.500 C 112 245.773, 114.500 246, 128.500 246 C 142.500 246, 145 245.773, 145 244.500 C 145 243.358, 146.254 242.998, 150.250 242.991 C 158.885 242.977, 166 241.840, 166 240.474 C 166 239.631, 168.354 239.086, 173.250 238.795 C 182.834 238.225, 183.827 238.559, 184.587 242.610 C 184.936 244.475, 185.795 246, 186.495 246 C 187.194 246, 188.002 246.900, 188.290 248 C 188.671 249.456, 189.654 250, 191.906 250 C 193.990 250, 195 250.490, 195 251.500 C 195 252.722, 196.661 253, 203.950 253 C 211.435 253, 213.061 253.287, 213.880 254.750 C 214.776 256.351, 217.708 256.529, 248.429 256.842 C 281.936 257.184, 282 257.181, 282 255.092 C 282 253.899, 282.645 253, 283.500 253 C 286.029 253, 285.163 250.258, 282.416 249.568 C 280.995 249.212, 277.193 249.218, 273.967 249.583 C 270.741 249.948, 261.554 249.920, 253.551 249.519 C 242.112 248.948, 239 248.493, 239 247.396 C 239 246.305, 237.035 246, 230 246 L 221 246 221 226.500 C 221 209.833, 221.218 207, 222.500 207 C 223.325 207, 224 207.675, 224 208.500 C 224 209.548, 225.056 210, 227.500 210 C 229.781 210, 231 209.527, 231 208.642 C 231 207.304, 238.723 206, 246.647 206 C 248.961 206, 250 205.535, 250 204.500 C 250 203.507, 250.993 203, 252.941 203 C 256.458 203, 257.277 201.952, 256.422 198.546 C 255.821 196.150, 255.406 196, 249.392 196 C 244.377 196, 243 196.323, 243 197.500 C 243 198.756, 240.889 199, 230 199 L 217 199 217 193.500 C 217 189.278, 216.652 188, 215.500 188 C 214.675 188, 214 187.325, 214 186.500 C 214 185.675, 214.675 185, 215.500 185 C 216.543 185, 217 183.951, 217 181.560 C 217 178.308, 217.204 178.104, 220.750 177.810 C 224.329 177.514, 224.485 177.352, 224.175 174.250 C 223.902 171.523, 224.183 171, 225.925 171 C 227.333 171, 228 170.358, 228 169 C 228 167.667, 228.667 167, 230 167 C 231.100 167, 232 166.361, 232 165.579 C 232 164.798, 233.336 163.866, 234.968 163.507 C 237.366 162.980, 238.060 162.196, 238.580 159.428 C 239.042 156.961, 239.752 156, 241.111 156 C 242.150 156, 243 155.325, 243 154.500 C 243 153.675, 243.675 153, 244.500 153 C 245.433 153, 246 152.056, 246 150.500 C 246 149.007, 246.572 148, 247.421 148 C 248.202 148, 249.138 146.650, 249.500 145 C 249.862 143.350, 250.798 142, 251.579 142 C 252.361 142, 253 141.100, 253 140 C 253 138.896, 253.667 138, 254.488 138 C 255.451 138, 256.202 136.588, 256.616 134 C 256.968 131.800, 257.815 130, 258.499 130 C 259.236 130, 260.012 127.963, 260.406 125 C 260.860 121.576, 261.531 120, 262.534 120 C 263.533 120, 264 118.922, 264 116.617 C 264 114.074, 264.497 113.103, 266 112.710 C 267.532 112.310, 268 111.346, 268 108.594 C 268 106.066, 268.445 105, 269.500 105 C 270.621 105, 271.003 103.799, 271.014 100.250 C 271.031 94.077, 271.897 91, 273.617 91 C 274.731 91, 275 88.179, 275 76.500 C 275 62.667, 274.908 62, 273 62 C 271.889 62, 271 61.333, 271 60.500 C 271 59.675, 270.325 59, 269.500 59 C 268.667 59, 268 58.111, 268 57 C 268 55.333, 267.333 55, 264 55 C 261.293 55, 260 54.560, 260 53.639 C 260 52.286, 253.426 51.028, 246.250 51.009 C 244.032 51.003, 243 50.524, 243 49.500 C 243 48.258, 241.111 48, 232 48 C 222.889 48, 221 47.742, 221 46.500 C 221 45.675, 220.325 45, 219.500 45 C 218.675 45, 218 45.675, 218 46.500 M 224 60.500 C 224 61.325, 223.325 62, 222.500 62 C 221.278 62, 221 63.667, 221 71 C 221 78.163, 220.706 80, 219.561 80 C 218.623 80, 217.888 81.562, 217.450 84.487 C 216.461 91.081, 217.468 93.944, 221.027 94.655 C 222.662 94.982, 224 95.869, 224 96.625 C 224 97.537, 225.211 98, 227.594 98 C 230.346 98, 231.310 98.468, 231.710 100 C 232.074 101.392, 233.074 102, 235 102 C 236.926 102, 237.926 102.608, 238.290 104 C 238.577 105.100, 239.530 106, 240.406 106 C 241.283 106, 242 106.675, 242 107.500 C 242 108.333, 242.889 109, 244 109 C 245.333 109, 246 109.667, 246 111 C 246 112.333, 246.667 113, 248 113 C 249.111 113, 250 113.667, 250 114.500 C 250 115.487, 250.987 116, 252.883 116 C 255.956 116, 256.959 114.228, 256.986 108.750 C 256.995 106.978, 257.534 106, 258.500 106 C 259.605 106, 260 104.847, 260 101.625 C 260 95.259, 261.052 91, 262.625 91 C 263.690 91, 264 88.970, 264 82 C 264 74.667, 264.278 73, 265.500 73 C 266.325 73, 267 72.325, 267 71.500 C 267 70.675, 266.325 70, 265.500 70 C 264.667 70, 264 69.111, 264 68 C 264 66.889, 263.333 66, 262.500 66 C 261.675 66, 261 65.383, 261 64.629 C 261 63.696, 259.085 63.042, 255 62.580 C 250.737 62.097, 249 61.481, 249 60.450 C 249 59.261, 246.754 59, 236.500 59 C 226.056 59, 224 59.247, 224 60.500 M 106 74.937 C 106 76.628, 105.369 77, 102.500 77 C 99.352 77, 98.999 77.276, 98.986 79.750 C 98.979 81.263, 98.718 83.449, 98.407 84.609 C 97.948 86.318, 98.377 86.824, 100.670 87.276 C 102.227 87.583, 104.737 87.594, 106.250 87.300 C 108.791 86.807, 109 86.404, 109 82 C 109 77.995, 109.336 77.145, 111.105 76.683 C 114.166 75.882, 112.878 73.553, 109.173 73.187 C 106.533 72.926, 106 73.220, 106 74.937 M 31.750 98.689 C 30.513 99.013, 30 100.151, 30 102.573 C 30 105.333, 30.389 106, 32 106 C 33.111 106, 34 106.667, 34 107.500 C 34 108.325, 34.675 109, 35.500 109 C 36.325 109, 37 108.325, 37 107.500 C 37 106.667, 37.889 106, 39 106 C 40.111 106, 41 106.667, 41 107.500 C 41 108.637, 42.233 109, 46.094 109 C 50.346 109, 51.274 109.330, 51.710 111 C 52.103 112.503, 53.074 113, 55.617 113 C 58.817 113, 59 113.190, 59 116.500 C 59 119.333, 59.381 120, 61 120 C 62.111 120, 63 120.667, 63 121.500 C 63 122.325, 63.675 123, 64.500 123 C 65.690 123, 66 121.556, 66 116 C 66 110.707, 65.663 109, 64.617 109 C 63.856 109, 62.998 108.100, 62.710 107 C 62.423 105.900, 61.470 105, 60.594 105 C 59.717 105, 59 104.325, 59 103.500 C 59 102.417, 57.889 102, 55 102 C 52.261 102, 51 101.564, 51 100.617 C 51 99.856, 49.987 98.962, 48.750 98.630 C 46.212 97.950, 34.422 97.991, 31.750 98.689 M 41.250 159.743 C 35.727 160.005, 34 160.435, 34 161.544 C 34 162.345, 33.100 163, 32 163 C 30.381 163, 30 163.667, 30 166.500 C 30 170.412, 29.402 170.211, 41 170.211 C 51.458 170.211, 52 170.126, 52 168.500 C 52 167.371, 53.209 167, 56.883 167 C 62.155 167, 62.955 167.950, 62.986 174.250 C 62.995 176.022, 63.534 177, 64.500 177 C 65.333 177, 66 177.889, 66 179 C 66 182.461, 68.861 181.258, 69.566 177.500 C 69.942 175.495, 70.816 174, 71.611 174 C 72.532 174, 73 172.820, 73 170.500 C 73 168.180, 72.532 167, 71.611 167 C 70.825 167, 69.947 165.531, 69.587 163.610 C 69.144 161.250, 68.274 160.039, 66.725 159.624 C 64.521 159.033, 55.248 159.076, 41.250 159.743 M 145.750 195.557 C 145.338 195.984, 145 205.033, 145 215.667 L 145 235 156 235 C 165.111 235, 167 234.742, 167 233.500 C 167 232.588, 167.931 232, 169.375 232 C 170.681 232, 173.160 231.718, 174.884 231.373 L 178.017 230.747 177.586 224.123 C 177.348 220.480, 177.120 216.488, 177.077 215.250 C 177.033 213.951, 176.366 213, 175.500 213 C 174.452 213, 174 211.944, 174 209.500 C 174 207.203, 174.471 206, 175.370 206 C 176.262 206, 176.928 204.343, 177.279 201.250 C 177.576 198.637, 177.747 196.429, 177.659 196.343 C 177.012 195.705, 146.337 194.950, 145.750 195.557 M 77 201 C 77 202.619, 76.333 203, 73.500 203 C 71.180 203, 70 203.468, 70 204.389 C 70 205.184, 68.505 206.058, 66.500 206.434 C 64.405 206.827, 63 207.675, 63 208.545 C 63 209.576, 61.834 210, 59 210 C 56.166 210, 55 210.424, 55 211.455 C 55 212.325, 53.595 213.173, 51.500 213.566 C 49.495 213.942, 48 214.816, 48 215.611 C 48 216.532, 46.820 217, 44.500 217 C 41.667 217, 41 217.381, 41 219 C 41 220.619, 40.333 221, 37.500 221 C 35.056 221, 34 221.452, 34 222.500 C 34 223.555, 32.934 224, 30.406 224 C 27.654 224, 26.690 224.468, 26.290 226 C 25.897 227.503, 24.926 228, 22.383 228 L 19 228 19 233.500 L 19 239 22.250 238.986 C 27 238.966, 30 237.959, 30 236.383 C 30 235.478, 31.169 235, 33.383 235 C 35.926 235, 36.897 234.503, 37.290 233 C 37.577 231.900, 38.530 231, 39.406 231 C 40.283 231, 41 230.325, 41 229.500 C 41 228.667, 41.889 228, 43 228 C 44.100 228, 45 227.345, 45 226.545 C 45 225.675, 46.405 224.827, 48.500 224.434 C 50.505 224.058, 52 223.184, 52 222.389 C 52 221.468, 53.180 221, 55.500 221 C 58.333 221, 59 220.619, 59 219 C 59 217.381, 59.667 217, 62.500 217 C 64.820 217, 66 216.532, 66 215.611 C 66 214.816, 67.495 213.942, 69.500 213.566 C 71.595 213.173, 73 212.325, 73 211.455 C 73 210.655, 73.900 210, 75 210 C 76.100 210, 77 209.345, 77 208.545 C 77 207.675, 78.405 206.827, 80.500 206.434 C 83.682 205.837, 84 205.470, 84 202.389 C 84 199.183, 83.811 199, 80.500 199 C 77.667 199, 77 199.381, 77 201" stroke="none" fill="black" fill-rule="evenodd"/>
</svg>