<svg xmlns="http://www.w3.org/2000/svg" width="300" height="300" viewBox="0 0 300 300" version="1.1">
	<path d="M 189 38.421 C 189 39.202, 187.664 40.134, 186.032 40.493 C 183.634 41.020, 182.940 41.804, 182.420 44.572 C 182.055 46.522, 181.178 48, 180.389 48 C 179.625 48, 179 48.900, 179 50 C 179 51.333, 178.333 52, 177 52 C 175.381 52, 175 52.667, 175 55.500 C 175 57.820, 174.532 59, 173.611 59 C 172.816 59, 171.942 60.495, 171.566 62.500 C 171.173 64.595, 170.325 66, 169.455 66 C 168.459 66, 168 67.104, 168 69.500 C 168 72.833, 167.833 73, 164.500 73 C 162.056 73, 161 72.548, 161 71.500 C 161 70.667, 160.111 70, 159 70 C 157.889 70, 157 70.667, 157 71.500 C 157 72.764, 154.722 73, 142.500 73 C 130.278 73, 128 72.764, 128 71.500 C 128 70.675, 127.325 70, 126.500 70 C 125.667 70, 125 69.111, 125 68 C 125 64.986, 118.465 65.114, 117.673 68.144 C 117.168 70.072, 116.646 70.223, 112.458 69.649 C 109.898 69.298, 106.722 69.283, 105.402 69.614 C 103.238 70.157, 103 70.750, 103 75.608 L 103 81 108.500 81 C 112.722 81, 114 81.348, 114 82.500 C 114 83.325, 114.608 84, 115.352 84 C 116.326 84, 116.883 86.302, 117.346 92.250 C 118.469 106.677, 118.282 109, 116 109 C 114.667 109, 114 109.667, 114 111 C 114 112.607, 113.333 113, 110.611 113 C 107.530 113, 107.163 113.318, 106.566 116.500 C 106.173 118.595, 105.325 120, 104.455 120 C 103.372 120, 103 121.303, 103 125.094 C 103 129.346, 103.330 130.274, 105 130.710 C 106.766 131.172, 106.998 132.067, 106.985 138.367 C 106.962 148.905, 104.305 151.884, 103.253 142.549 C 102.922 139.614, 102.254 138, 101.370 138 C 100.419 138, 100 136.663, 100 133.625 C 100 127.259, 98.948 123, 97.375 123 C 96.339 123, 96 121.273, 96 116 C 96 109.667, 96.190 109, 98 109 C 99.100 109, 100 108.375, 100 107.611 C 100 106.816, 101.495 105.942, 103.500 105.566 C 105.595 105.173, 107 104.325, 107 103.455 C 107 102.290, 105.209 102, 98 102 C 89.667 102, 89 102.148, 89 104 C 89 105.333, 88.333 106, 87 106 C 85.190 106, 85 106.667, 85 113 C 85 118.273, 85.339 120, 86.375 120 C 87.746 120, 89 124.120, 89 128.625 C 89 130.069, 89.588 131, 90.500 131 C 91.637 131, 92 132.233, 92 136.094 C 92 140.346, 92.330 141.274, 94 141.710 C 95.503 142.103, 96 143.074, 96 145.617 C 96 147.837, 96.477 149, 97.389 149 C 98.184 149, 99.058 150.495, 99.434 152.500 C 99.827 154.595, 100.675 156, 101.545 156 C 102.345 156, 103 156.900, 103 158 C 103 159.100, 103.623 160, 104.383 160 C 105.144 160, 106.038 161.012, 106.370 162.250 C 107.320 165.797, 107.112 167, 105.545 167 C 104.675 167, 103.827 168.405, 103.434 170.500 C 103.073 172.425, 102.203 174, 101.500 174 C 100.797 174, 99.927 175.575, 99.566 177.500 C 99.173 179.595, 98.325 181, 97.455 181 C 96.655 181, 96 181.900, 96 183 C 96 184.100, 95.345 185, 94.545 185 C 93.675 185, 92.827 186.405, 92.434 188.500 C 92.073 190.425, 91.205 192, 90.505 192 C 89.806 192, 88.998 192.900, 88.710 194 C 88.423 195.100, 87.470 196, 86.594 196 C 85.717 196, 85 196.675, 85 197.500 C 85 198.333, 84.111 199, 83 199 C 81.900 199, 81 199.623, 81 200.383 C 81 201.899, 78.032 202.965, 73.750 202.986 C 71.978 202.995, 71 203.534, 71 204.500 C 71 205.555, 69.934 206, 67.406 206 C 64.654 206, 63.690 206.468, 63.290 208 C 62.836 209.735, 61.926 210, 56.429 210 L 50.091 210 49.434 213.500 C 48.837 216.682, 48.470 217, 45.389 217 C 42.667 217, 42 217.393, 42 219 C 42 220.111, 41.333 221, 40.500 221 C 39.452 221, 39 222.056, 39 224.500 L 39 228 44.500 228 C 48.722 228, 50 227.652, 50 226.500 C 50 225.675, 50.675 225, 51.500 225 C 52.325 225, 53 224.152, 53 223.117 C 53 222.074, 53.893 221, 55 220.710 C 56.100 220.423, 57 219.470, 57 218.594 C 57 217.439, 57.964 217, 60.500 217 C 62.944 217, 64 216.548, 64 215.500 C 64 214.452, 65.056 214, 67.500 214 L 71 214 71 219 L 71 224 74.500 224 C 77.833 224, 78 223.833, 78 220.500 C 78 217.667, 78.381 217, 80 217 C 81.111 217, 82 216.333, 82 215.500 C 82 214.490, 83.010 214, 85.094 214 C 87.346 214, 88.329 213.456, 88.710 212 C 88.998 210.900, 89.806 210, 90.505 210 C 91.205 210, 92.073 208.425, 92.434 206.500 C 92.827 204.405, 93.675 203, 94.545 203 C 95.532 203, 96 201.911, 96 199.617 C 96 197.074, 96.497 196.103, 98 195.710 C 99.456 195.329, 100 194.346, 100 192.094 C 100 190.010, 100.490 189, 101.500 189 C 102.333 189, 103 188.111, 103 187 C 103 185.667, 103.667 185, 105 185 C 106.619 185, 107 184.333, 107 181.500 C 107 178.964, 107.439 178, 108.594 178 C 109.470 178, 110.423 177.100, 110.710 176 C 110.998 174.900, 111.856 174, 112.617 174 C 113.531 174, 114 172.813, 114 170.500 C 114 167.667, 114.381 167, 116 167 C 117.333 167, 118 166.333, 118 165 C 118 163.402, 118.667 163, 121.320 163 L 124.639 163 124.231 179.246 C 123.958 190.098, 123.436 195.730, 122.661 196.208 C 121.916 196.667, 121.380 201.235, 121.166 208.962 C 120.901 218.522, 120.541 221, 119.416 221 C 118.383 221, 118 222.354, 118 226 C 118 230.889, 118.067 231, 121 231 C 123 231, 124 230.500, 124 229.500 C 124 228.675, 124.850 228, 125.889 228 C 127.255 228, 127.959 227.033, 128.434 224.500 C 128.827 222.405, 129.675 221, 130.545 221 C 131.751 221, 132 218.521, 132 206.500 L 132 192 135.500 192 C 138.333 192, 139 192.381, 139 194 C 139 195.333, 139.667 196, 141 196 C 142.111 196, 143 196.667, 143 197.500 C 143 198.631, 144.217 199, 147.950 199 C 151.456 199, 153.163 199.469, 153.799 200.606 C 154.340 201.572, 156.551 202.420, 159.349 202.736 L 164 203.260 164 208.019 C 164 212.665, 163.918 212.793, 160.500 213.434 C 157.302 214.034, 157 214.389, 157 217.545 L 157 221 163.750 220.986 C 171.848 220.970, 175 220.241, 175 218.383 C 175 217.436, 176.261 217, 179 217 C 181.889 217, 183 216.583, 183 215.500 C 183 214.490, 184.010 214, 186.094 214 C 188.346 214, 189.329 213.456, 189.710 212 C 190.169 210.244, 191.074 210, 197.117 210 C 202.569 210, 204 209.688, 204 208.500 C 204 207.675, 204.563 206.994, 205.250 206.986 C 205.938 206.979, 207.512 206.701, 208.750 206.370 C 210.565 205.883, 211 206.176, 211 207.883 C 211 209.048, 210.377 210, 209.617 210 C 208.856 210, 207.998 210.900, 207.710 212 C 207.423 213.100, 206.470 214, 205.594 214 C 204.717 214, 204 214.675, 204 215.500 C 204 216.333, 203.111 217, 202 217 C 200.667 217, 200 217.667, 200 219 C 200 220.333, 199.333 221, 198 221 C 196.900 221, 196 221.639, 196 222.421 C 196 223.202, 194.650 224.138, 193 224.500 C 191.350 224.862, 190 225.798, 190 226.579 C 190 227.361, 189.100 228, 188 228 C 186.667 228, 186 228.667, 186 230 C 186 231.333, 185.333 232, 184 232 C 182.889 232, 182 232.667, 182 233.500 C 182 234.325, 181.325 235, 180.500 235 C 179.667 235, 179 235.889, 179 237 C 179 238.333, 178.333 239, 177 239 C 175.900 239, 175 239.623, 175 240.383 C 175 241.144, 174.100 242.002, 173 242.290 C 171.900 242.577, 171 243.530, 171 244.406 C 171 245.495, 170.089 246, 168.125 246 C 165.787 246, 165.149 246.513, 164.708 248.750 C 164.410 250.262, 164.406 252.738, 164.700 254.250 C 165.132 256.479, 165.771 257, 168.071 257 C 170.508 257, 171 256.519, 171.548 253.594 C 172.093 250.693, 172.693 250.093, 175.594 249.548 C 177.615 249.169, 179 248.318, 179 247.455 C 179 246.655, 179.675 246, 180.500 246 C 181.325 246, 182 245.283, 182 244.406 C 182 243.530, 182.900 242.577, 184 242.290 C 185.100 242.002, 186 241.144, 186 240.383 C 186 239.623, 186.900 239, 188 239 C 189.333 239, 190 238.333, 190 237 C 190 235.267, 190.667 235, 195 235 C 199.333 235, 200 235.267, 200 237 C 200 238.333, 200.667 239, 202 239 C 203.100 239, 204 239.625, 204 240.389 C 204 241.184, 205.495 242.058, 207.500 242.434 C 209.595 242.827, 211 243.675, 211 244.545 C 211 245.576, 212.166 246, 215 246 C 217.739 246, 219 246.436, 219 247.383 C 219 248.899, 221.968 249.965, 226.250 249.986 C 228.022 249.995, 229 250.534, 229 251.500 C 229 252.555, 230.066 253, 232.594 253 C 235.346 253, 236.310 253.468, 236.710 255 C 237.103 256.503, 238.074 257, 240.617 257 C 242.837 257, 244 257.477, 244 258.389 C 244 259.184, 245.495 260.058, 247.500 260.434 C 249.595 260.827, 251 261.675, 251 262.545 C 251 263.642, 252.354 264, 256.500 264 L 262 264 262 260.500 C 262 257.667, 261.619 257, 260 257 C 258.667 257, 258 256.333, 258 255 C 258 253.333, 257.333 253, 254 253 C 251.166 253, 250 252.576, 250 251.545 C 250 250.675, 248.595 249.827, 246.500 249.434 C 244.495 249.058, 243 248.184, 243 247.389 C 243 246.468, 241.820 246, 239.500 246 C 237.104 246, 236 245.541, 236 244.545 C 236 243.675, 234.595 242.827, 232.500 242.434 C 230.495 242.058, 229 241.184, 229 240.389 C 229 239.468, 227.820 239, 225.500 239 C 222.667 239, 222 238.619, 222 237 C 222 235.242, 221.333 235, 216.500 235 C 212.484 235, 211 234.627, 211 233.617 C 211 232.041, 208 231.034, 203.250 231.014 C 201.034 231.004, 200 230.523, 200 229.500 C 200 228.667, 200.889 228, 202 228 C 203.333 228, 204 227.333, 204 226 C 204 224.667, 204.667 224, 206 224 C 207.111 224, 208 223.333, 208 222.500 C 208 221.675, 208.575 221, 209.278 221 C 209.981 221, 211.326 220.100, 212.268 219 C 213.210 217.900, 214.864 217, 215.945 217 C 217.398 217, 218.080 216.089, 218.566 213.500 C 219.134 210.475, 219.608 210, 222.066 210 C 224.524 210, 224.998 209.525, 225.566 206.500 C 225.927 204.575, 226.795 203, 227.495 203 C 228.194 203, 229.002 202.100, 229.290 201 C 229.577 199.900, 230.530 199, 231.406 199 C 232.561 199, 233 199.964, 233 202.500 C 233 205.036, 232.561 206, 231.406 206 C 230.530 206, 229.577 206.900, 229.290 208 C 229.002 209.100, 228.200 210, 227.508 210 C 226.008 210, 224.880 214.824, 225.671 217.851 C 226.306 220.279, 229 220.804, 229 218.500 C 229 217.667, 229.889 217, 231 217 C 232.100 217, 233 216.377, 233 215.617 C 233 214.856, 233.900 213.998, 235 213.710 C 236.100 213.423, 237 212.470, 237 211.594 C 237 210.717, 237.675 210, 238.500 210 C 239.548 210, 240 208.944, 240 206.500 C 240 204.197, 240.470 203, 241.375 203 C 242.746 203, 244 198.880, 244 194.375 C 244 192.931, 244.588 192, 245.500 192 C 247.128 192, 247.286 190.097, 247.286 170.500 C 247.286 150.585, 247.095 148, 245.629 148 C 244.739 148, 244.025 146.246, 243.594 143 C 243.140 139.576, 242.469 138, 241.466 138 C 240.660 138, 240 137.100, 240 136 C 240 134.900, 239.345 134, 238.545 134 C 237.675 134, 236.827 132.595, 236.434 130.500 C 235.871 127.500, 235.382 127, 233.005 127 C 231.074 127, 230.075 126.393, 229.710 125 C 229.423 123.900, 228.470 123, 227.594 123 C 226.717 123, 226 122.325, 226 121.500 C 226 120.333, 224.667 120, 220 120 C 215.416 120, 214 119.657, 214 118.545 C 214 116.811, 208.149 115.495, 204.507 116.409 C 201.170 117.246, 197 116.126, 197 114.392 C 197 113.626, 197.623 113, 198.383 113 C 199.144 113, 200.002 112.100, 200.290 111 C 200.577 109.900, 201.530 109, 202.406 109 C 203.283 109, 204 108.325, 204 107.500 C 204 106.675, 204.717 106, 205.594 106 C 206.470 106, 207.423 105.100, 207.710 104 C 207.998 102.900, 208.856 102, 209.617 102 C 210.377 102, 211 101.100, 211 100 C 211 98.667, 211.667 98, 213 98 C 214.111 98, 215 97.333, 215 96.500 C 215 95.675, 215.625 95, 216.389 95 C 217.184 95, 218.058 93.505, 218.434 91.500 C 218.827 89.405, 219.675 88, 220.545 88 C 221.345 88, 222 87.100, 222 86 C 222 84.900, 222.655 84, 223.455 84 C 224.325 84, 225.173 82.595, 225.566 80.500 C 225.927 78.575, 226.797 77, 227.500 77 C 228.203 77, 229.073 75.425, 229.434 73.500 C 229.827 71.405, 230.675 70, 231.545 70 C 232.690 70, 233 68.387, 233 62.430 L 233 54.859 217.428 55.180 C 203.841 55.459, 201.731 55.723, 200.878 57.250 C 200.134 58.583, 198.602 59, 194.450 59 C 190.272 59, 189 59.350, 189 60.500 C 189 61.548, 187.944 62, 185.500 62 C 182.964 62, 182 61.561, 182 60.406 C 182 59.530, 182.900 58.577, 184 58.290 C 185.503 57.897, 186 56.926, 186 54.383 C 186 52.043, 186.462 51, 187.500 51 C 188.325 51, 189 50.325, 189 49.500 C 189 48.567, 189.944 48, 191.500 48 C 193.056 48, 194 47.433, 194 46.500 C 194 45.675, 194.675 45, 195.500 45 C 196.325 45, 197 45.675, 197 46.500 C 197 47.548, 198.056 48, 200.500 48 C 203.333 48, 204 47.619, 204 46 C 204 44.900, 203.345 44, 202.545 44 C 201.675 44, 200.827 42.595, 200.434 40.500 C 199.780 37.014, 199.755 37, 194.389 37 C 190.399 37, 189 37.369, 189 38.421 M 211 64.500 C 211 65.690, 209.556 66, 204 66 C 198.727 66, 197 66.339, 197 67.375 C 197 68.746, 192.880 70, 188.375 70 C 186.931 70, 186 70.588, 186 71.500 C 186 72.325, 185.283 73, 184.406 73 C 183.530 73, 182.577 73.900, 182.290 75 C 182.002 76.100, 181.144 77, 180.383 77 C 179.623 77, 179 77.900, 179 79 C 179 80.333, 178.333 81, 177 81 C 175.444 81, 175 81.667, 175 84 C 175 85.944, 174.493 87, 173.560 87 C 172.619 87, 172.013 88.297, 171.810 90.750 C 171.517 94.296, 171.296 94.517, 167.750 94.810 C 164.530 95.077, 164 94.830, 164 93.060 C 164 91.896, 163.348 91, 162.500 91 C 161.344 91, 161 89.706, 161 85.352 L 161 79.704 152.750 80.346 C 148.213 80.699, 140.787 80.991, 136.250 80.994 C 129.586 80.999, 128 81.288, 128 82.500 C 128 83.325, 127.325 84, 126.500 84 C 125.310 84, 125 85.444, 125 91 C 125 96.556, 125.310 98, 126.500 98 C 127.548 98, 128 99.056, 128 101.500 L 128 105 139 105 C 149.117 105, 150 105.152, 150 106.889 C 150 108.255, 150.967 108.959, 153.500 109.434 C 156.941 110.080, 157 110.175, 157 115.045 C 157 118.783, 156.632 120, 155.500 120 C 154.452 120, 154 121.056, 154 123.500 C 154 126.833, 154.167 127, 157.500 127 C 160.333 127, 161 127.381, 161 129 C 161 130.100, 160.377 131, 159.617 131 C 158.856 131, 157.998 131.900, 157.710 133 C 157.397 134.197, 156.346 135, 155.094 135 C 153.899 135, 153 135.644, 153 136.500 C 153 137.548, 151.944 138, 149.500 138 C 146.667 138, 146 138.381, 146 140 C 146 141.111, 145.333 142, 144.500 142 C 143.675 142, 143 142.675, 143 143.500 C 143 144.333, 142.111 145, 141 145 C 139.242 145, 139 145.667, 139 150.500 L 139 156 135.500 156 L 132 156 132 166.383 C 132 175.926, 132.162 176.809, 134 177.290 C 135.100 177.577, 136 178.530, 136 179.406 C 136 180.283, 136.675 181, 137.500 181 C 138.325 181, 139 181.717, 139 182.594 C 139 183.470, 139.900 184.423, 141 184.710 C 142.100 184.998, 143 185.806, 143 186.505 C 143 187.205, 144.575 188.073, 146.500 188.434 C 148.595 188.827, 150 189.675, 150 190.545 C 150 191.576, 151.166 192, 154 192 C 156.889 192, 158 192.417, 158 193.500 C 158 194.495, 158.995 195, 160.955 195 C 163.540 195, 163.992 194.562, 164.566 191.500 C 164.942 189.495, 165.816 188, 166.611 188 C 167.775 188, 168 181.024, 168 145 C 168 102.667, 168.031 102, 170 102 C 171.111 102, 172 101.333, 172 100.500 C 172 99.513, 172.987 99, 174.883 99 C 178.461 99, 178.968 100.574, 178.986 111.750 C 178.999 119.329, 179.163 120, 181 120 C 182.111 120, 183 119.333, 183 118.500 C 183 117.675, 183.675 117, 184.500 117 C 185.333 117, 186 116.111, 186 115 C 186 113.667, 186.667 113, 188 113 C 189.333 113, 190 112.333, 190 111 C 190 109.889, 190.667 109, 191.500 109 C 192.325 109, 193 108.325, 193 107.500 C 193 106.675, 193.717 106, 194.594 106 C 195.470 106, 196.423 105.100, 196.710 104 C 196.998 102.900, 197.803 102, 198.500 102 C 199.197 102, 200.002 101.100, 200.290 100 C 200.577 98.900, 201.530 98, 202.406 98 C 203.283 98, 204 97.325, 204 96.500 C 204 95.675, 204.675 95, 205.500 95 C 206.333 95, 207 94.111, 207 93 C 207 91.667, 207.667 91, 209 91 C 210.619 91, 211 90.333, 211 87.500 C 211 84.667, 211.381 84, 213 84 C 214.619 84, 215 83.333, 215 80.500 C 215 78.187, 215.469 77, 216.383 77 C 217.144 77, 218.002 76.100, 218.290 75 C 218.577 73.900, 219.530 73, 220.406 73 C 221.652 73, 222 71.908, 222 68 L 222 63 216.500 63 C 212.278 63, 211 63.348, 211 64.500 M 132 114.500 C 132 115.325, 131.325 116, 130.500 116 C 129.348 116, 129 117.278, 129 121.500 C 129 125.722, 129.348 127, 130.500 127 C 131.548 127, 132 128.056, 132 130.500 C 132 133.833, 132.167 134, 135.500 134 C 138.339 134, 139 133.620, 139 131.990 C 139 130.885, 139.900 129.210, 141 128.268 C 142.100 127.326, 143 125.981, 143 125.278 C 143 124.575, 143.675 124, 144.500 124 C 145.583 124, 146 122.889, 146 120 C 146 117.111, 145.583 116, 144.500 116 C 143.675 116, 143 115.325, 143 114.500 C 143 113.348, 141.722 113, 137.500 113 C 133.278 113, 132 113.348, 132 114.500 M 118 118.500 C 118 119.333, 117.111 120, 116 120 C 114.667 120, 114 120.667, 114 122 C 114 123.100, 113.383 124, 112.629 124 C 111.702 124, 111.047 125.865, 110.606 129.762 C 109.831 136.618, 110.718 142, 112.625 142 C 113.381 142, 114 142.675, 114 143.500 C 114 144.548, 115.056 145, 117.500 145 L 121 145 121 131 C 121 119.222, 120.762 117, 119.500 117 C 118.675 117, 118 117.675, 118 118.500 M 194 118.500 C 194 119.325, 194.450 120, 195 120 C 195.550 120, 196 119.325, 196 118.500 C 196 117.675, 195.550 117, 195 117 C 194.450 117, 194 117.675, 194 118.500 M 56 122 C 56 123.111, 55.333 124, 54.500 124 C 53.675 124, 53 124.675, 53 125.500 C 53 126.325, 53.675 127, 54.500 127 C 55.333 127, 56 127.889, 56 129 C 56 130.810, 56.667 131, 63 131 C 68.362 131, 70 131.330, 70 132.412 C 70 133.280, 71.541 134.085, 74 134.500 C 77.753 135.134, 78 135.386, 78 138.588 C 78 141.821, 78.184 142, 81.500 142 L 85 142 85 136.500 C 85 132.278, 84.652 131, 83.500 131 C 82.667 131, 82 130.111, 82 129 C 82 127.667, 81.333 127, 80 127 C 78.900 127, 78 126.375, 78 125.611 C 78 124.816, 76.505 123.942, 74.500 123.566 C 72.405 123.173, 71 122.325, 71 121.455 C 71 120.311, 69.396 120, 63.500 120 C 56.667 120, 56 120.178, 56 122 M 189.372 128.473 C 189.061 129.283, 187.275 130.233, 185.403 130.584 C 183.532 130.935, 182 131.815, 182 132.538 C 182 133.261, 181.213 134.005, 180.250 134.191 C 178.702 134.490, 178.500 135.885, 178.500 146.297 C 178.500 153.797, 178.099 158.325, 177.394 158.782 C 176.182 159.568, 174.914 171.955, 175.727 175.063 C 176.321 177.335, 179 177.692, 179 175.500 C 179 174.452, 180.056 174, 182.500 174 C 184.803 174, 186 173.530, 186 172.625 C 186 171.096, 190.228 170, 196.125 170 C 198.903 170, 200 169.575, 200 168.500 C 200 167.477, 201.034 166.996, 203.250 166.986 C 208 166.966, 211 165.959, 211 164.383 C 211 163.623, 211.900 163, 213 163 C 214.163 163, 215 162.333, 215 161.406 C 215 160.530, 214.100 159.577, 213 159.290 C 211.900 159.002, 211 158.144, 211 157.383 C 211 156.623, 210.325 156, 209.500 156 C 208.675 156, 208 156.675, 208 157.500 C 208 158.555, 206.934 159, 204.406 159 C 201.654 159, 200.690 159.468, 200.290 161 C 200.002 162.100, 199.181 163, 198.465 163 C 197.749 163, 196.425 163.283, 195.522 163.630 C 194.399 164.061, 193.713 163.617, 193.348 162.224 C 192.994 160.870, 191.674 159.974, 189.408 159.549 C 186.075 158.923, 186 158.800, 186 153.955 L 186 149 204 149 L 222 149 222 156 L 222 163 231 163 L 240 163 240 159.500 C 240 157.187, 239.531 156, 238.617 156 C 237.101 156, 236.035 153.032, 236.014 148.750 C 236.005 146.978, 235.466 146, 234.500 146 C 233.644 146, 233 145.101, 233 143.906 C 233 142.654, 232.197 141.603, 231 141.290 C 229.608 140.926, 229 139.926, 229 138 C 229 136.074, 228.392 135.074, 227 134.710 C 225.900 134.423, 225 133.506, 225 132.673 C 225 131.813, 223.739 130.882, 222.084 130.518 C 220.479 130.166, 218.919 129.230, 218.615 128.439 C 217.791 126.292, 190.197 126.324, 189.372 128.473 M 52.566 159.500 C 52.173 161.595, 51.325 163, 50.455 163 C 49.655 163, 49 163.900, 49 165 C 49 166.908, 49.667 167, 63.500 167 C 75.722 167, 78 167.236, 78 168.500 C 78 169.333, 78.889 170, 80 170 C 81.333 170, 82 170.667, 82 172 C 82 173.111, 82.667 174, 83.500 174 C 84.333 174, 85 174.889, 85 176 C 85 177.333, 85.667 178, 87 178 C 88.333 178, 89 177.333, 89 176 C 89 174.889, 89.667 174, 90.500 174 C 91.325 174, 92 173.325, 92 172.500 C 92 171.675, 91.325 171, 90.500 171 C 89.417 171, 89 169.889, 89 167 C 89 163.667, 88.667 163, 87 163 C 85.900 163, 85 162.345, 85 161.545 C 85 160.675, 83.595 159.827, 81.500 159.434 C 79.495 159.058, 78 158.184, 78 157.389 C 78 156.278, 75.516 156, 65.611 156 L 53.223 156 52.566 159.500 M 207 175.383 C 207 176.899, 204.032 177.965, 199.750 177.986 C 198.077 177.995, 197 178.544, 197 179.389 C 197 180.184, 195.505 181.058, 193.500 181.434 C 191.405 181.827, 190 182.675, 190 183.545 C 190 184.689, 188.396 185, 182.500 185 L 175 185 175 195.500 L 175 206 180.500 206 C 184.722 206, 186 205.652, 186 204.500 C 186 203.348, 187.278 203, 191.500 203 C 195.516 203, 197 202.627, 197 201.617 C 197 199.897, 200.077 199.031, 206.250 199.014 C 209.646 199.004, 211 198.601, 211 197.601 C 211 196.604, 213.005 196.002, 218 195.500 C 222.995 194.998, 225 194.396, 225 193.399 C 225 191.229, 228.701 191.747, 229.290 194 C 229.666 195.440, 230.654 196, 232.818 196 C 235.546 196, 235.887 195.630, 236.500 192 C 236.915 189.541, 237.720 188, 238.588 188 C 239.365 188, 240 187.325, 240 186.500 C 240 185.459, 238.954 185, 236.582 185 C 234.702 185, 232.452 184.727, 231.582 184.393 C 229.572 183.622, 229.509 181, 231.500 181 C 232.548 181, 233 179.944, 233 177.500 L 233 174 220 174 C 209.598 174, 207 174.276, 207 175.383" stroke="none" fill="black" fill-rule="evenodd"/>
</svg>