<svg xmlns="http://www.w3.org/2000/svg" width="300" height="300" viewBox="0 0 300 300" version="1.1">
	<path d="M 163.714 44.619 C 163.321 45.012, 163 46.608, 163 48.167 C 163 50.019, 162.480 51, 161.500 51 C 160.259 51, 160 52.877, 160 61.889 L 160 72.777 156.252 73.480 C 154.191 73.867, 152.195 74.684, 151.818 75.295 C 151.380 76.003, 145.474 76.559, 135.565 76.825 C 120.238 77.237, 120 77.211, 120 75.122 C 120 73.902, 119.362 73, 118.500 73 C 117.337 73, 117 71.681, 117 67.125 C 117 63.894, 116.719 59.844, 116.375 58.125 C 115.780 55.150, 115.521 55, 110.992 55 C 106.725 55, 106.184 55.255, 105.761 57.472 C 104.920 61.868, 106.132 70, 107.627 70 C 108.604 70, 109 71.413, 109 74.899 L 109 79.797 102 80.500 C 97.005 81.002, 95 81.604, 95 82.601 C 95 83.715, 92.756 84, 84 84 C 74.889 84, 73 84.258, 73 85.500 C 73 86.325, 72.325 87, 71.500 87 C 70.667 87, 70 87.889, 70 89 C 70 90.333, 69.333 91, 68 91 C 66.667 91, 66 91.667, 66 93 C 66 94.333, 66.667 95, 68 95 C 69.111 95, 70 95.667, 70 96.500 C 70 97.325, 70.675 98, 71.500 98 C 72.325 98, 73 97.325, 73 96.500 C 73 95.348, 74.278 95, 78.500 95 C 83.333 95, 84 94.758, 84 93 C 84 91.121, 84.667 91, 95 91 C 104.111 91, 106 90.742, 106 89.500 C 106 88.452, 107.056 88, 109.500 88 C 111.944 88, 113 88.452, 113 89.500 C 113 90.325, 113.619 91, 114.375 91 C 116.016 91, 117.046 95.410, 116.300 99.250 C 115.854 101.552, 116.112 102, 117.883 102 C 119.837 102, 120 102.538, 120 109 C 120 114.306, 120.336 116, 121.389 116 C 122.178 116, 123.055 117.478, 123.420 119.428 C 123.941 122.203, 124.632 122.980, 127.053 123.512 C 128.698 123.873, 131.834 123.866, 134.022 123.496 C 137.751 122.866, 138 122.610, 138 119.412 C 138 116.179, 137.816 116, 134.500 116 C 131.167 116, 131 115.833, 131 112.500 C 131 109.667, 130.619 109, 129 109 C 127.190 109, 127 108.333, 127 102 C 127 96.444, 126.690 95, 125.500 95 C 124.462 95, 124 93.957, 124 91.617 C 124 87.998, 125.505 87.042, 131.250 87.014 C 133.022 87.005, 134 86.466, 134 85.500 C 134 84.243, 136.116 84, 147.043 84 L 160.086 84 159.391 102 C 158.708 119.681, 158.732 120, 160.736 120 C 162.269 120, 162.938 119.146, 163.420 116.573 C 163.774 114.688, 164.612 112.963, 165.282 112.740 C 166.141 112.454, 166.602 108.155, 166.846 98.167 C 167.123 86.835, 167.473 84, 168.596 84 C 169.368 84, 170 83.381, 170 82.625 C 170 80.908, 174.366 80, 182.625 80 C 187.453 80, 189 79.657, 189 78.586 C 189 77.469, 191.408 77.101, 200.459 76.836 C 210.182 76.551, 212.121 76.222, 213.258 74.664 C 214.981 72.304, 220.335 72.719, 220.815 75.250 C 221.017 76.316, 220.531 77, 219.573 77 C 218.708 77, 218 77.675, 218 78.500 C 218 79.583, 216.889 80, 214 80 C 210.667 80, 210 80.333, 210 82 C 210 83.758, 209.333 84, 204.500 84 C 200.508 84, 199 84.376, 199 85.371 C 199 86.379, 196.615 86.929, 190 87.446 C 183.207 87.978, 181 88.500, 181 89.575 C 181 90.537, 179.862 91, 177.500 91 C 174.620 91, 174 91.369, 174 93.084 C 174 95.099, 174.399 95.156, 186.038 94.834 C 194.419 94.601, 198.316 94.112, 198.864 93.224 C 199.297 92.522, 201.979 91.671, 204.825 91.334 C 208.223 90.932, 210 90.254, 210 89.361 C 210 88.495, 211.182 87.995, 213.250 87.986 C 218 87.966, 221 86.959, 221 85.383 C 221 84.469, 222.187 84, 224.500 84 C 226.896 84, 228 83.541, 228 82.545 C 228 81.675, 229.405 80.827, 231.500 80.434 C 233.505 80.058, 235 79.184, 235 78.389 C 235 77.625, 235.900 77, 237 77 C 238.333 77, 239 76.333, 239 75 C 239 73.667, 239.667 73, 241 73 C 242.619 73, 243 72.333, 243 69.500 L 243 66 225 66 C 210.295 66, 207 66.255, 207 67.391 C 207 68.450, 204.382 68.952, 196 69.500 C 187.618 70.048, 185 70.550, 185 71.609 C 185 72.671, 183.257 73, 177.629 73 L 170.258 73 170.379 58.750 L 170.500 44.500 167.464 44.203 C 165.794 44.039, 164.107 44.227, 163.714 44.619 M 110 125.594 C 110 126.470, 109.153 127.409, 108.117 127.680 C 106.723 128.044, 106.066 129.447, 105.583 133.086 C 104.975 137.671, 104.740 138, 102.077 138 C 99.607 138, 99.134 137.529, 98.566 134.500 C 97.966 131.302, 97.611 131, 94.455 131 L 91 131 91.014 135.750 C 91.031 141.923, 91.897 145, 93.617 145 C 94.627 145, 95 146.484, 95 150.500 C 95 155.333, 94.758 156, 93 156 C 91.381 156, 91 156.667, 91 159.500 C 91 161.944, 90.548 163, 89.500 163 C 88.667 163, 88 163.889, 88 165 C 88 166.333, 87.333 167, 86 167 C 84.381 167, 84 167.667, 84 170.500 C 84 173.333, 83.619 174, 82 174 C 80.667 174, 80 174.667, 80 176 C 80 177.111, 79.333 178, 78.500 178 C 77.452 178, 77 179.056, 77 181.500 C 77 184.333, 76.619 185, 75 185 C 73.889 185, 73 185.667, 73 186.500 C 73 187.325, 72.375 188, 71.611 188 C 70.816 188, 69.942 189.495, 69.566 191.500 C 69.009 194.470, 68.500 195.002, 66.205 195.014 C 59.985 195.045, 59 195.864, 59 201.008 C 59 205.268, 59.270 205.851, 61.500 206.411 C 64.831 207.247, 69 206.124, 69 204.392 C 69 203.626, 69.900 203, 71 203 C 72.333 203, 73 202.333, 73 201 C 73 199.667, 73.667 199, 75 199 C 76.619 199, 77 198.333, 77 195.500 C 77 192.667, 77.381 192, 79 192 C 80.111 192, 81 191.333, 81 190.500 C 81 189.675, 81.675 189, 82.500 189 C 83.333 189, 84 188.111, 84 187 C 84 185.900, 84.655 185, 85.455 185 C 86.325 185, 87.173 183.595, 87.566 181.500 C 87.942 179.495, 88.816 178, 89.611 178 C 90.532 178, 91 176.820, 91 174.500 C 91 171.667, 91.381 171, 93 171 C 94.333 171, 95 170.333, 95 169 C 95 167.900, 95.625 167, 96.389 167 C 97.184 167, 98.058 165.505, 98.434 163.500 C 99.006 160.452, 99.467 160, 102 160 C 104.533 160, 104.994 160.452, 105.566 163.500 C 105.942 165.505, 106.816 167, 107.611 167 C 108.614 167, 109 168.414, 109 172.094 C 109 176.346, 109.330 177.274, 111 177.710 C 112.417 178.081, 113 179.074, 113 181.117 C 113 184.200, 110.660 185.163, 109.638 182.500 C 108.899 180.574, 105 180.536, 105 182.455 C 105 183.325, 103.595 184.173, 101.500 184.566 C 99.495 184.942, 98 185.816, 98 186.611 C 98 187.375, 97.325 188, 96.500 188 C 95.667 188, 95 188.889, 95 190 C 95 191.333, 94.333 192, 93 192 C 91.381 192, 91 192.667, 91 195.500 C 91 197.813, 90.531 199, 89.617 199 C 88.856 199, 87.998 199.900, 87.710 201 C 87.423 202.100, 86.470 203, 85.594 203 C 84.439 203, 84 203.964, 84 206.500 C 84 208.896, 83.541 210, 82.545 210 C 81.675 210, 80.827 211.405, 80.434 213.500 C 80.058 215.505, 79.184 217, 78.389 217 C 77.625 217, 77 217.900, 77 219 C 77 220.100, 76.345 221, 75.545 221 C 74.675 221, 73.827 222.405, 73.434 224.500 C 73.071 226.437, 72.178 228, 71.434 228 C 70.690 228, 69.797 229.563, 69.434 231.500 C 69.058 233.505, 68.184 235, 67.389 235 C 66.372 235, 66 236.474, 66 240.500 C 66 244.722, 66.348 246, 67.500 246 C 68.325 246, 69 245.325, 69 244.500 C 69 243.667, 69.889 243, 71 243 C 72.250 243, 73 242.333, 73 241.222 C 73 240.244, 73.900 238.674, 75 237.732 C 76.100 236.790, 77 234.890, 77 233.510 C 77 232.008, 77.570 231, 78.421 231 C 79.202 231, 80.138 229.650, 80.500 228 C 80.862 226.350, 81.798 225, 82.579 225 C 83.361 225, 84 224.152, 84 223.117 C 84 222.074, 84.893 221, 86 220.710 C 87.100 220.423, 88 219.470, 88 218.594 C 88 217.717, 88.675 217, 89.500 217 C 90.548 217, 91 215.944, 91 213.500 C 91 211.104, 91.459 210, 92.455 210 C 93.325 210, 94.173 208.595, 94.566 206.500 C 94.942 204.495, 95.816 203, 96.611 203 C 97.375 203, 98 202.100, 98 201 C 98 199.667, 98.667 199, 100 199 C 101.111 199, 102 198.333, 102 197.500 C 102 196.675, 102.717 196, 103.594 196 C 104.470 196, 105.423 195.100, 105.710 194 C 106.103 192.497, 107.074 192, 109.617 192 C 111.957 192, 113 191.538, 113 190.500 C 113 187.413, 115.919 189.050, 116.566 192.500 C 116.942 194.505, 117.816 196, 118.611 196 C 119.664 196, 120 197.694, 120 203 C 120 208.263, 119.660 210, 118.629 210 C 117.621 210, 117.071 212.385, 116.554 219 C 116.022 225.793, 115.500 228, 114.425 228 C 113.641 228, 113 228.900, 113 230 C 113 231.100, 112.345 232, 111.545 232 C 110.675 232, 109.827 233.405, 109.434 235.500 C 109.073 237.425, 108.180 239, 107.450 239 C 105.708 239, 104.572 246.659, 105.448 252.500 C 106.153 257.205, 108.341 258.629, 109.290 255 C 109.577 253.900, 110.530 253, 111.406 253 C 112.333 253, 113 252.163, 113 251 C 113 249.889, 113.667 249, 114.500 249 C 115.325 249, 116 248.325, 116 247.500 C 116 246.667, 116.889 246, 118 246 C 119.758 246, 120 245.333, 120 240.500 C 120 236.484, 120.373 235, 121.383 235 C 123.103 235, 123.969 231.923, 123.986 225.750 C 123.997 222.201, 124.379 221, 125.500 221 C 126.753 221, 127 218.944, 127 208.500 L 127 196 131 196 C 133.889 196, 135 196.417, 135 197.500 C 135 198.738, 136.833 199, 145.500 199 C 154.167 199, 156 198.738, 156 197.500 C 156 196.348, 157.278 196, 161.500 196 C 165.516 196, 167 196.373, 167 197.383 C 167 198.144, 166.100 199.002, 165 199.290 C 163.330 199.726, 163 200.654, 163 204.906 C 163 208.767, 162.637 210, 161.500 210 C 160.588 210, 160 210.931, 160 212.375 C 160 216.880, 158.746 221, 157.375 221 C 156.396 221, 156 222.407, 156 225.883 C 156 229.926, 155.656 230.857, 154 231.290 C 152.544 231.671, 152 232.654, 152 234.906 C 152 236.990, 151.510 238, 150.500 238 C 149.644 238, 149 238.899, 149 240.094 C 149 241.346, 148.197 242.397, 147 242.710 C 145.497 243.103, 145 244.074, 145 246.617 C 145 248.957, 144.538 250, 143.500 250 C 142.452 250, 142 251.056, 142 253.500 L 142 257 146.912 257 L 151.824 257 152.500 253 C 152.915 250.541, 153.720 249, 154.588 249 C 155.535 249, 156 247.848, 156 245.500 C 156 243.104, 156.459 242, 157.455 242 C 158.325 242, 159.173 240.595, 159.566 238.500 C 159.942 236.495, 160.816 235, 161.611 235 C 162.532 235, 163 233.820, 163 231.500 C 163 229.104, 163.459 228, 164.455 228 C 165.325 228, 166.173 226.595, 166.566 224.500 C 167.163 221.318, 167.530 221, 170.611 221 C 172.830 221, 174 221.478, 174 222.383 C 174 223.144, 174.900 224.002, 176 224.290 C 177.100 224.577, 178 225.530, 178 226.406 C 178 227.561, 178.964 228, 181.500 228 C 183.896 228, 185 228.459, 185 229.455 C 185 230.325, 186.405 231.173, 188.500 231.566 C 190.505 231.942, 192 232.816, 192 233.611 C 192 234.628, 193.474 235, 197.500 235 C 201.516 235, 203 235.373, 203 236.383 C 203 237.959, 206 238.966, 210.750 238.986 C 212.966 238.996, 214 239.477, 214 240.500 C 214 241.325, 214.675 242, 215.500 242 C 216.325 242, 217 241.325, 217 240.500 C 217 239.667, 217.889 239, 219 239 C 220.605 239, 221 238.333, 221 235.625 C 221 232.645, 220.634 232.177, 217.875 231.625 C 216.156 231.281, 213.681 231, 212.375 231 C 210.931 231, 210 230.412, 210 229.500 C 210 228.417, 208.889 228, 206 228 C 203.261 228, 202 227.564, 202 226.617 C 202 225.101, 199.032 224.035, 194.750 224.014 C 192.978 224.005, 192 223.466, 192 222.500 C 192 221.452, 190.944 221, 188.500 221 C 185.667 221, 185 220.619, 185 219 C 185 217.667, 184.333 217, 183 217 C 181.667 217, 181 216.333, 181 215 C 181 213.900, 180.361 213, 179.579 213 C 178.798 213, 177.862 211.650, 177.500 210 C 177.138 208.350, 176.202 207, 175.421 207 C 174.369 207, 174 205.601, 174 201.617 C 174 197.074, 174.312 196.152, 176 195.710 C 177.841 195.229, 178 194.346, 178 184.594 C 178 175.844, 178.261 174, 179.500 174 C 180.652 174, 181 172.722, 181 168.500 C 181 164.278, 180.652 163, 179.500 163 C 178.273 163, 178 161.292, 178 153.625 C 178 142.489, 177.246 138, 175.375 138 C 174.619 138, 174 137.325, 174 136.500 C 174 135.452, 172.944 135, 170.500 135 C 168.056 135, 167 135.452, 167 136.500 C 167 137.333, 166.111 138, 165 138 C 163.900 138, 163.006 138.563, 163.014 139.250 C 163.045 142.160, 164.331 145, 165.617 145 C 166.377 145, 167 145.900, 167 147 C 167 148.111, 167.667 149, 168.500 149 C 169.782 149, 170 151.833, 170 168.500 L 170 188 166.125 188 C 160.228 188, 156 189.096, 156 190.625 C 156 191.690, 153.970 192, 147 192 C 139.791 192, 138 191.710, 138 190.545 C 138 189.675, 136.595 188.827, 134.500 188.434 C 132.495 188.058, 131 187.184, 131 186.389 C 131 185.625, 130.100 185, 129 185 C 127.667 185, 127 184.333, 127 183 C 127 181.889, 126.333 181, 125.500 181 C 122.435 181, 124.006 178.126, 127.242 177.813 C 129.377 177.607, 130.597 176.903, 130.815 175.750 C 131.081 174.348, 130.436 174, 127.573 174 C 124.970 174, 124 173.567, 124 172.406 C 124 171.530, 123.100 170.577, 122 170.290 C 120.900 170.002, 120 169.197, 120 168.500 C 120 167.803, 119.100 166.998, 118 166.710 C 116.544 166.329, 116 165.346, 116 163.094 C 116 161.010, 115.510 160, 114.500 160 C 113.445 160, 113 158.934, 113 156.406 C 113 153.654, 112.532 152.690, 111 152.290 C 109.344 151.857, 109 150.926, 109 146.883 C 109 142.667, 109.273 142, 111 142 C 112.333 142, 113 141.333, 113 140 C 113 138.900, 113.625 138, 114.389 138 C 115.184 138, 116.058 136.505, 116.434 134.500 C 116.827 132.405, 117.675 131, 118.545 131 C 119.541 131, 120 129.896, 120 127.500 L 120 124 115 124 C 111.092 124, 110 124.348, 110 125.594 M 224 161.375 C 224 162.131, 222.641 163.022, 220.979 163.354 C 218.643 163.821, 217.825 164.623, 217.372 166.891 C 217.029 168.605, 215.999 170.028, 214.893 170.318 C 213.852 170.590, 213 171.530, 213 172.406 C 213 173.283, 212.325 174, 211.500 174 C 210.452 174, 210 175.056, 210 177.500 C 210 180.333, 209.619 181, 208 181 C 206.667 181, 206 181.667, 206 183 C 206 184.100, 205.375 185, 204.611 185 C 203.816 185, 202.942 186.495, 202.566 188.500 C 202.173 190.595, 201.325 192, 200.455 192 C 199.655 192, 199 192.900, 199 194 C 199 195.100, 198.375 196, 197.611 196 C 196.816 196, 195.942 197.495, 195.566 199.500 C 195.173 201.595, 194.325 203, 193.455 203 C 192.459 203, 192 204.104, 192 206.500 C 192 208.813, 191.531 210, 190.617 210 C 189.331 210, 188.045 212.840, 188.014 215.750 C 188.005 216.544, 189.459 217, 192 217 C 194.889 217, 196 216.583, 196 215.500 C 196 214.675, 196.625 214, 197.389 214 C 198.177 214, 199.054 212.527, 199.416 210.597 C 199.767 208.725, 200.717 206.939, 201.527 206.628 C 202.337 206.317, 203 205.149, 203 204.031 C 203 202.914, 203.639 202, 204.421 202 C 205.202 202, 206.138 200.650, 206.500 199 C 206.862 197.350, 207.798 196, 208.579 196 C 209.361 196, 210 195.100, 210 194 C 210 192.667, 210.667 192, 212 192 C 213.619 192, 214 191.333, 214 188.500 C 214 186.056, 214.452 185, 215.500 185 C 216.333 185, 217 184.111, 217 183 C 217 181.667, 217.667 181, 219 181 C 220.619 181, 221 180.333, 221 177.500 C 221 175.056, 221.452 174, 222.500 174 C 223.325 174, 224 173.283, 224 172.406 C 224 171.530, 224.900 170.577, 226 170.290 C 227.100 170.002, 228 169.144, 228 168.383 C 228 167.623, 228.675 167, 229.500 167 C 230.548 167, 231 165.944, 231 163.500 C 231 160.167, 230.833 160, 227.500 160 C 225.197 160, 224 160.470, 224 161.375" stroke="none" fill="black" fill-rule="evenodd"/>
</svg>