<svg xmlns="http://www.w3.org/2000/svg" width="300" height="300" viewBox="0 0 300 300" version="1.1">
	<path d="M 149 53 C 149 53.550, 147.537 54.006, 145.750 54.014 C 141.111 54.033, 138 55.031, 138 56.500 C 138 57.197, 137.100 58.002, 136 58.290 C 134.468 58.690, 134 59.654, 134 62.406 C 134 64.934, 133.555 66, 132.500 66 C 131.675 66, 131 66.675, 131 67.500 C 131 68.325, 131.675 69, 132.500 69 C 133.333 69, 134 69.889, 134 71 C 134 72.333, 134.667 73, 136 73 C 137.606 73, 138 72.333, 138 69.617 C 138 67.074, 138.497 66.103, 140 65.710 C 141.100 65.423, 142 64.470, 142 63.594 C 142 62.287, 143.262 62, 149 62 C 155.333 62, 156 62.190, 156 64 C 156 65.333, 156.667 66, 158 66 C 159.100 66, 160 66.655, 160 67.455 C 160 68.327, 161.409 69.174, 163.518 69.569 C 165.452 69.932, 166.974 70.740, 166.899 71.365 C 166.500 74.692, 167.156 77, 168.500 77 C 169.325 77, 170 77.689, 170 78.531 C 170 79.374, 170.678 80.323, 171.506 80.641 C 172.334 80.958, 173.290 82.961, 173.631 85.091 C 173.971 87.221, 174.548 88.779, 174.913 88.554 C 175.277 88.329, 176.198 89.574, 176.958 91.322 C 177.718 93.070, 178.775 94.790, 179.306 95.143 C 179.838 95.497, 180.494 98.085, 180.764 100.893 C 181.034 103.702, 181.594 106, 182.009 106 C 182.926 106, 184.973 113.817, 185.070 117.693 C 185.131 120.137, 185.247 120.241, 185.963 118.500 C 186.603 116.944, 186.865 117.500, 187.143 121 C 187.751 128.662, 186.964 135, 185.403 135 C 184.632 135, 184 135.675, 184 136.500 C 184 137.648, 182.735 138, 178.611 138 C 174.942 138, 173.237 137.601, 173.269 136.750 C 173.486 130.893, 173.659 131, 164 131 C 156.667 131, 155 131.278, 155 132.500 C 155 133.550, 153.941 134, 151.469 134 C 149.252 134, 147.723 134.559, 147.362 135.500 C 146.745 137.108, 144 137.598, 144 136.100 C 144 135.605, 141.751 134.660, 139.002 134.001 C 136.254 133.341, 134.235 132.429, 134.517 131.973 C 134.799 131.517, 134.171 130.872, 133.122 130.539 C 130.739 129.783, 130.031 127.203, 130.014 119.219 C 130.004 114.667, 130.396 112.785, 131.439 112.385 C 132.230 112.081, 133.183 110.408, 133.555 108.666 C 133.928 106.925, 135.081 104.695, 136.116 103.711 C 137.152 102.727, 138 101.040, 138 99.961 C 138 98.882, 138.675 98, 139.500 98 C 140.325 98, 141 97.311, 141 96.469 C 141 95.626, 141.663 94.683, 142.473 94.372 C 143.283 94.061, 144.233 92.275, 144.584 90.403 C 144.946 88.473, 145.823 87, 146.611 87 C 147.375 87, 148 86.325, 148 85.500 C 148 84.675, 148.848 84, 149.883 84 C 150.926 84, 152 83.107, 152.290 82 C 152.577 80.900, 153.530 80, 154.406 80 C 155.283 80, 156 79.325, 156 78.500 C 156 77.675, 156.689 77, 157.531 77 C 159.652 77, 160.272 74.845, 159.066 71.672 C 157.873 68.537, 156 68.126, 156 71 C 156 72.752, 155.333 73, 150.617 73 C 145.988 73, 145.156 73.295, 144.684 75.101 C 144.359 76.342, 143.670 76.914, 143 76.500 C 142.330 76.086, 141.641 76.658, 141.316 77.899 C 141.014 79.055, 140.144 80, 139.383 80 C 138.623 80, 138 80.900, 138 82 C 138 83.232, 137.328 84.006, 136.250 84.015 C 134.910 84.027, 134.812 84.229, 135.834 84.876 C 136.928 85.570, 136.908 85.821, 135.726 86.275 C 134.933 86.579, 133.982 88.329, 133.612 90.164 C 133.139 92.514, 132.692 93.101, 132.100 92.151 C 131.516 91.213, 131.054 91.899, 130.585 94.401 C 130.177 96.574, 129.333 98, 128.455 98 C 127.655 98, 127 98.900, 127 100 C 127 101.100, 126.378 102, 125.619 102 C 124.806 102, 123.747 103.950, 123.045 106.737 C 122.389 109.342, 121.323 111.800, 120.676 112.199 C 119.950 112.647, 119.367 116.592, 119.152 122.507 C 118.815 131.793, 118.886 132.165, 121.453 134.544 C 122.911 135.895, 124.530 137, 125.052 137 C 125.573 137, 126 137.880, 126 138.955 C 126 140.420, 126.934 141.085, 129.733 141.610 C 132.836 142.192, 133.132 142.441, 131.483 143.085 C 129.949 143.684, 129.872 143.875, 131.143 143.930 C 134.087 144.056, 134.353 149, 131.417 149 C 130.637 149, 130 149.675, 130 150.500 C 130 151.333, 129.111 152, 128 152 C 126.667 152, 126 152.667, 126 154 C 126 155.100, 125.345 156, 124.545 156 C 123.675 156, 122.827 157.405, 122.434 159.500 C 122.058 161.505, 121.184 163, 120.389 163 C 119.625 163, 119 163.717, 119 164.594 C 119 165.470, 118.012 166.446, 116.804 166.762 C 114.707 167.310, 114.696 167.371, 116.554 168.098 C 118.241 168.758, 118.267 168.869, 116.750 168.930 C 115.766 168.969, 115 169.778, 115 170.778 C 115 171.756, 114.100 173.326, 113 174.268 C 111.900 175.210, 111 176.885, 111 177.990 C 111 179.096, 110.381 180, 109.625 180 C 108.869 180, 107.967 181.414, 107.622 183.142 C 107.276 184.871, 106.340 186.783, 105.542 187.392 C 104.743 188.002, 103.902 189.850, 103.673 191.500 C 103.443 193.150, 102.774 194.396, 102.186 194.269 C 101.245 194.066, 99.281 202.284, 99.802 204.250 C 99.911 204.662, 99.381 205, 98.625 205 C 95.922 205, 94.755 222.165, 97.353 223.700 C 98.098 224.140, 99.166 225.850, 99.728 227.500 C 100.290 229.150, 101.256 230.387, 101.875 230.250 C 102.494 230.112, 103 230.450, 103 231 C 103 231.550, 103.787 232.007, 104.750 232.015 C 106.246 232.028, 106.282 232.172, 105 233 C 103.673 233.857, 103.676 233.971, 105.028 233.985 C 105.868 233.993, 107.326 234.900, 108.268 236 C 109.210 237.100, 110.885 238, 111.990 238 C 113.110 238, 114 238.664, 114 239.500 C 114 240.325, 114.338 241.003, 114.750 241.006 C 118.439 241.034, 127.516 243.218, 128.139 244.226 C 128.707 245.148, 133.355 245.593, 144.962 245.838 C 159.088 246.135, 161 245.986, 161 244.588 C 161 243.486, 161.995 242.966, 164.250 242.888 C 170.991 242.656, 174.313 241.956, 175.389 240.540 C 176.035 239.690, 178.488 238.983, 181.250 238.852 C 185.087 238.670, 186 238.278, 186 236.813 C 186 235.408, 186.787 235, 189.500 235 C 191.944 235, 193 234.548, 193 233.500 C 193 232.667, 193.889 232, 195 232 C 196.333 232, 197 231.333, 197 230 C 197 228.615, 197.667 228, 199.167 228 C 200.358 228, 201.037 227.704, 200.675 227.342 C 199.771 226.438, 202.012 223.889, 203.113 224.570 C 203.612 224.878, 204 219.373, 204 212 C 204 204.360, 203.619 199.117, 203.089 199.445 C 202.189 200.001, 201.187 195.572, 200.782 189.250 C 200.662 187.374, 200.030 186, 199.287 186 C 198.455 186, 198 184.604, 198 182.050 C 198 179.375, 197.452 177.793, 196.304 177.150 C 195.055 176.451, 194.497 174.462, 194.187 169.600 C 193.885 164.850, 193.379 163, 192.384 163 C 191.373 163, 191 161.516, 191 157.500 C 191 152.959, 190.695 151.986, 189.250 151.921 C 188.120 151.870, 187.961 151.657, 188.803 151.320 C 189.791 150.924, 189.695 150.498, 188.406 149.555 C 185.750 147.613, 187.282 143.317, 190.914 142.519 C 193.242 142.008, 194.015 141.134, 194.747 138.189 C 195.251 136.160, 196.189 134.612, 196.832 134.750 C 197.622 134.919, 197.977 133.142, 197.930 129.250 C 197.882 125.382, 197.603 124.154, 197.076 125.500 C 196.516 126.929, 196.085 125.574, 195.567 120.755 C 195.164 117.008, 194.268 113.675, 193.551 113.255 C 192.830 112.833, 192.052 109.909, 191.788 106.628 C 191.460 102.560, 190.806 100.471, 189.658 99.828 C 188.609 99.242, 188 97.621, 188 95.419 C 188 93.355, 187.429 91.718, 186.598 91.399 C 185.827 91.104, 184.907 89.318, 184.553 87.431 C 184.199 85.544, 183.311 84, 182.580 84 C 181.848 84, 180.955 82.537, 180.595 80.750 C 180.132 78.453, 179.694 77.895, 179.100 78.849 C 178.516 79.787, 178.054 79.101, 177.585 76.599 C 177.177 74.426, 176.333 73, 175.455 73 C 174.459 73, 174 71.896, 174 69.500 C 174 66.667, 173.619 66, 172 66 C 170.667 66, 170 65.333, 170 64 C 170 62.889, 169.333 62, 168.500 62 C 167.675 62, 167 61.375, 167 60.611 C 167 59.816, 165.505 58.942, 163.500 58.566 C 161.405 58.173, 160 57.325, 160 56.455 C 160 55.456, 158.892 55, 156.469 55 C 154.252 55, 152.723 54.441, 152.362 53.500 C 151.722 51.833, 149 51.428, 149 53 M 158.361 148.773 C 141.964 149.034, 141.198 149.136, 140.678 151.124 C 140.358 152.349, 139.669 152.914, 139 152.500 C 138.330 152.086, 137.641 152.658, 137.316 153.899 C 137.014 155.055, 136.032 156.007, 135.133 156.015 C 133.857 156.027, 133.792 156.215, 134.834 156.876 C 135.908 157.557, 135.859 157.840, 134.584 158.329 C 133.713 158.664, 133 159.899, 133 161.076 C 133 162.566, 132.545 163.039, 131.500 162.638 C 130.465 162.241, 130 162.703, 130 164.125 C 130 165.346, 129.184 166.401, 128 166.710 C 126.608 167.074, 126 168.074, 126 170 C 126 171.926, 125.392 172.926, 124 173.290 C 122.800 173.604, 122 174.654, 122 175.916 C 122 177.073, 121.100 178.790, 120 179.732 C 118.900 180.674, 118 182.019, 118 182.722 C 118 183.425, 117.325 184, 116.500 184 C 115.450 184, 115 185.059, 115 187.531 C 115 189.658, 114.436 191.279, 113.582 191.607 C 112.801 191.906, 111.632 194.366, 110.982 197.073 C 110.333 199.781, 109.447 201.777, 109.015 201.509 C 107.971 200.864, 106.830 210.335, 107.112 217.303 C 107.291 221.731, 107.707 222.952, 109.168 223.334 C 110.176 223.597, 111 224.530, 111 225.406 C 111 226.283, 111.623 227, 112.383 227 C 113.144 227, 113.985 227.835, 114.252 228.855 C 114.611 230.228, 115.980 230.850, 119.520 231.249 C 122.428 231.577, 124.654 232.417, 125.201 233.394 C 125.982 234.791, 128.894 235, 147.550 235 C 162.832 235, 168.928 234.679, 168.750 233.883 C 168.612 233.268, 169.400 232.620, 170.500 232.441 C 177.496 231.305, 179 230.776, 179 229.455 C 179 228.468, 180.091 228, 182.393 228 C 184.385 228, 186.009 227.420, 186.325 226.594 C 186.622 225.821, 188.245 224.885, 189.932 224.515 C 191.620 224.144, 193 223.287, 193 222.609 C 193 221.932, 193.900 220.411, 195 219.230 C 197.410 216.644, 197.877 207.550, 195.644 206.694 C 194.771 206.359, 194.096 203.781, 193.749 199.461 C 193.453 195.769, 192.771 192.467, 192.234 192.124 C 191.697 191.781, 191.054 188.627, 190.805 185.116 C 190.498 180.780, 189.832 178.350, 188.729 177.544 C 187.588 176.710, 187.015 174.442, 186.802 169.928 C 186.591 165.442, 186.122 163.576, 185.250 163.750 C 184.417 163.917, 184 162.667, 184 160 C 184 156.667, 183.667 156, 182 156 C 180.394 156, 180 155.333, 180 152.617 C 180 148.370, 180.299 148.424, 158.361 148.773" stroke="none" fill="black" fill-rule="evenodd"/>
</svg>