<svg xmlns="http://www.w3.org/2000/svg" width="300" height="300" viewBox="0 0 300 300" version="1.1">
	<path d="M 146.290 16 C 145.831 17.756, 144.926 18, 138.883 18 C 133.622 18, 132 18.333, 132 19.412 C 132 20.280, 130.459 21.085, 128 21.500 C 125.541 21.915, 124 22.720, 124 23.588 C 124 24.490, 122.917 25, 121 25 C 118.667 25, 118 25.444, 118 27 C 118 28.333, 117.333 29, 116 29 C 114.889 29, 114 29.667, 114 30.500 C 114 31.325, 114.675 32, 115.500 32 C 116.652 32, 117 33.278, 117 37.500 C 117 41.722, 116.652 43, 115.500 43 C 114.667 43, 114 43.889, 114 45 C 114 46.100, 114.623 47, 115.383 47 C 116.144 47, 117.002 47.900, 117.290 49 C 117.577 50.100, 118.530 51, 119.406 51 C 120.647 51, 121 52.082, 121 55.883 C 121 59.926, 121.344 60.857, 123 61.290 C 124.456 61.671, 125 62.654, 125 64.906 C 125 66.879, 125.503 68, 126.389 68 C 127.184 68, 128.058 69.495, 128.434 71.500 C 128.827 73.595, 129.675 75, 130.545 75 C 131.576 75, 132 76.166, 132 79 C 132 81.889, 132.417 83, 133.500 83 C 134.466 83, 135.005 83.978, 135.014 85.750 C 135.021 87.263, 135.306 89.539, 135.646 90.809 C 136.127 92.608, 135.793 93.241, 134.132 93.676 C 132.959 93.982, 132 94.856, 132 95.617 C 132 96.377, 131.325 97, 130.500 97 C 129.667 97, 129 97.889, 129 99 C 129 100.111, 129.667 101, 130.500 101 C 131.325 101, 132 101.675, 132 102.500 C 132 103.722, 133.667 104, 141 104 C 148.333 104, 150 103.722, 150 102.500 C 150 101.344, 151.292 101, 155.630 101 L 161.260 101 160.736 105.651 C 160.420 108.449, 159.572 110.660, 158.606 111.201 C 157.615 111.755, 157 113.421, 157 115.550 C 157 117.950, 156.544 119, 155.500 119 C 154.675 119, 154 119.625, 154 120.389 C 154 121.184, 152.505 122.058, 150.500 122.434 C 148.405 122.827, 147 123.675, 147 124.545 C 147 125.345, 146.100 126, 145 126 C 143.889 126, 143 126.667, 143 127.500 C 143 128.333, 142.111 129, 141 129 C 139.248 129, 139 129.667, 139 134.383 C 139 138.926, 139.312 139.848, 141 140.290 C 142.100 140.577, 143 141.530, 143 142.406 C 143 143.283, 143.623 144, 144.383 144 C 145.144 144, 146.002 144.900, 146.290 146 C 146.762 147.806, 147.654 148, 155.500 148 C 163.346 148, 164.238 147.806, 164.710 146 C 165.103 144.497, 166.074 144, 168.617 144 C 171.333 144, 172 143.606, 172 142 C 172 140.889, 172.667 140, 173.500 140 C 174.325 140, 175 139.325, 175 138.500 C 175 137.667, 175.889 137, 177 137 C 178.333 137, 179 136.333, 179 135 C 179 133.889, 179.667 133, 180.500 133 C 181.325 133, 182 132.325, 182 131.500 C 182 130.675, 181.325 130, 180.500 130 C 179.675 130, 179 130.675, 179 131.500 C 179 132.538, 177.957 133, 175.617 133 C 173.074 133, 172.103 133.497, 171.710 135 C 171.329 136.456, 170.346 137, 168.094 137 C 166.138 137, 165 137.505, 165 138.373 C 165 139.898, 155.097 141.364, 153.695 140.046 C 152.255 138.693, 154.094 134.209, 156.335 133.608 C 157.526 133.289, 160.637 133.021, 163.250 133.014 C 166.799 133.003, 168 132.621, 168 131.500 C 168 130.667, 168.889 130, 170 130 C 171.333 130, 172 129.333, 172 128 C 172 126.381, 172.667 126, 175.500 126 C 177.896 126, 179 125.541, 179 124.545 C 179 123.675, 180.405 122.827, 182.500 122.434 C 184.505 122.058, 186 121.184, 186 120.389 C 186 119.327, 187.767 119, 193.500 119 C 199.500 119, 201 119.300, 201 120.500 C 201 121.555, 199.934 122, 197.406 122 C 194.654 122, 193.690 122.468, 193.290 124 C 193.002 125.100, 192.144 126, 191.383 126 C 190.623 126, 190 126.675, 190 127.500 C 190 128.325, 190.675 129, 191.500 129 C 192.325 129, 193 129.850, 193 130.889 C 193 132.255, 192.033 132.959, 189.500 133.434 C 186.438 134.008, 186 134.460, 186 137.045 C 186 139.333, 185.549 140, 184 140 C 182.667 140, 182 140.667, 182 142 C 182 143.538, 181.333 144, 179.117 144 C 177.074 144, 176.081 144.583, 175.710 146 C 175.423 147.100, 174.470 148, 173.594 148 C 172.717 148, 172 148.675, 172 149.500 C 172 150.333, 171.111 151, 170 151 C 168.667 151, 168 151.667, 168 153 C 168 154.111, 167.333 155, 166.500 155 C 165.675 155, 165 155.675, 165 156.500 C 165 157.333, 164.111 158, 163 158 C 161.667 158, 161 158.667, 161 160 C 161 161.333, 160.333 162, 159 162 C 157.900 162, 157 162.625, 157 163.389 C 157 164.184, 155.505 165.058, 153.500 165.434 C 151.405 165.827, 150 166.675, 150 167.545 C 150 168.541, 148.896 169, 146.500 169 C 144.068 169, 143 169.454, 143 170.488 C 143 171.451, 141.588 172.202, 139 172.616 C 136.587 173.002, 135 173.800, 135 174.628 C 135 175.383, 134.325 176, 133.500 176 C 132.452 176, 132 177.056, 132 179.500 C 132 182.833, 132.167 183, 135.500 183 C 137.944 183, 139 182.548, 139 181.500 C 139 180.278, 140.667 180, 148 180 C 155.333 180, 157 179.722, 157 178.500 C 157 177.588, 157.931 177, 159.375 177 C 160.681 177, 163.156 176.719, 164.875 176.375 L 168 175.750 168 184.875 C 168 192.319, 168.276 194, 169.500 194 C 170.333 194, 171 194.889, 171 196 C 171 197.111, 170.333 198, 169.500 198 C 168.675 198, 168 198.675, 168 199.500 C 168 200.565, 166.913 201.003, 164.250 201.009 C 156.622 201.026, 150 202.249, 150 203.639 C 150 204.686, 147.924 205, 141 205 C 132.667 205, 132 205.148, 132 207 C 132 208.619, 131.333 209, 128.500 209 C 125.964 209, 125 209.439, 125 210.594 C 125 211.470, 124.100 212.423, 123 212.710 C 121.900 212.998, 121 213.856, 121 214.617 C 121 215.697, 123.078 216, 130.500 216 C 138.278 216, 140 215.728, 140 214.500 C 140 213.353, 141.264 213, 145.375 213 C 152.684 213, 157 212.025, 157 210.375 C 157 209.331, 158.803 209, 164.500 209 L 172 209 172 217.500 C 172 224.389, 172.284 226, 173.500 226 C 174.700 226, 175 227.500, 175 233.500 C 175 239.219, 175.329 241, 176.383 241 C 178.462 241, 178.971 244.280, 178.986 257.750 C 178.998 267.966, 179.249 270, 180.500 270 C 181.548 270, 182 271.056, 182 273.500 C 182 275.944, 181.548 277, 180.500 277 C 179.365 277, 179 278.228, 179 282.052 L 179 287.105 184.250 286.802 L 189.500 286.500 189.817 276.500 C 190.257 262.571, 189.221 252, 187.415 252 C 186.281 252, 186 249.816, 186 241 C 186 232.184, 185.719 230, 184.585 230 C 182.172 230, 181.071 208.596, 183.367 206.300 C 183.661 206.006, 185.948 205.535, 188.451 205.253 C 191.386 204.922, 193 204.254, 193 203.370 C 193 202.376, 194.510 202, 198.500 202 C 203.333 202, 204 201.758, 204 200 C 204 198.242, 204.667 198, 209.500 198 C 213.722 198, 215 197.652, 215 196.500 C 215 195.588, 215.931 195, 217.375 195 C 221.880 195, 226 193.746, 226 192.375 C 226 191.470, 227.197 191, 229.500 191 C 231.944 191, 233 190.548, 233 189.500 C 233 188.675, 233.648 188, 234.441 188 C 236.530 188, 237.074 186.620, 236.371 183.103 C 235.856 180.532, 235.277 180, 232.992 180 C 231.074 180, 230.074 180.610, 229.710 182 C 229.397 183.197, 228.346 184, 227.094 184 C 225.899 184, 225 184.644, 225 185.500 C 225 186.631, 223.783 187, 220.050 187 C 216.544 187, 214.837 187.469, 214.201 188.606 C 213.660 189.572, 211.449 190.420, 208.651 190.736 C 205.635 191.076, 204 191.742, 204 192.630 C 204 193.581, 202.663 194, 199.625 194 C 193.259 194, 189 195.052, 189 196.625 C 189 197.530, 187.803 198, 185.500 198 C 183.056 198, 182 197.548, 182 196.500 C 182 195.675, 181.325 195, 180.500 195 C 179.259 195, 179 193.123, 179 184.111 L 179 173.223 182.427 172.580 C 184.312 172.226, 186.028 171.415, 186.241 170.778 C 186.462 170.114, 189.486 169.436, 193.314 169.193 C 198.135 168.886, 200 168.381, 200 167.384 C 200 166.469, 201.187 166, 203.500 166 C 206.833 166, 207 166.167, 207 169.500 C 207 171.944, 206.548 173, 205.500 173 C 204.667 173, 204 173.889, 204 175 C 204 176.619, 204.667 177, 207.500 177 C 210.333 177, 211 176.619, 211 175 C 211 173.667, 211.667 173, 213 173 C 214.758 173, 215 172.333, 215 167.500 C 215 163.484, 214.627 162, 213.617 162 C 212.856 162, 211.998 161.100, 211.710 160 C 211.238 158.194, 210.346 158, 202.500 158 C 194.654 158, 193.762 158.194, 193.290 160 C 192.809 161.838, 191.926 162, 182.383 162 C 173.820 162, 172 162.263, 172 163.500 C 172 164.333, 171.111 165, 170 165 C 168.889 165, 168 164.333, 168 163.500 C 168 162.675, 168.623 162, 169.383 162 C 170.144 162, 171.002 161.100, 171.290 160 C 171.577 158.900, 172.530 158, 173.406 158 C 174.283 158, 175 157.325, 175 156.500 C 175 155.667, 175.889 155, 177 155 C 178.333 155, 179 154.333, 179 153 C 179 151.667, 179.667 151, 181 151 C 182.111 151, 183 150.333, 183 149.500 C 183 148.675, 183.675 148, 184.500 148 C 185.333 148, 186 147.111, 186 146 C 186 144.667, 186.667 144, 188 144 C 189.111 144, 190 143.333, 190 142.500 C 190 141.675, 190.675 141, 191.500 141 C 192.333 141, 193 140.111, 193 139 C 193 137.393, 193.667 137, 196.389 137 C 199.470 137, 199.837 136.682, 200.434 133.500 C 200.827 131.405, 201.675 130, 202.545 130 C 203.689 130, 204 128.396, 204 122.500 L 204 115 209.500 115 C 214.333 115, 215 115.242, 215 117 C 215 118.733, 215.667 119, 220 119 C 223.908 119, 225 118.652, 225 117.406 C 225 116.530, 225.900 115.577, 227 115.290 C 228.647 114.859, 229 113.926, 229 110 C 229 104.423, 228.299 104.035, 218.156 104.014 C 212.648 104.002, 211.744 104.263, 211.290 106 C 210.816 107.811, 209.926 108, 201.883 108 C 194.940 108, 193 108.305, 193 109.399 C 193 110.396, 190.995 110.998, 186 111.500 C 181.005 112.002, 179 112.604, 179 113.601 C 179 114.510, 177.861 115.005, 175.750 115.014 C 173.963 115.021, 171.488 115.299, 170.250 115.630 C 168.116 116.202, 168 115.949, 168 110.733 C 168 106.074, 168.306 105.153, 170 104.710 C 171.532 104.310, 172 103.346, 172 100.594 C 172 98.066, 172.445 97, 173.500 97 C 174.325 97, 175 96.325, 175 95.500 C 175 94.337, 176.319 94, 180.875 94 C 188.658 94, 193 93.060, 193 91.375 C 193 90.438, 194.273 90, 197 90 C 199.889 90, 201 89.583, 201 88.500 C 201 87.425, 202.097 87, 204.875 87 C 207.006 87, 210.156 86.719, 211.875 86.375 C 214.634 85.823, 215 85.355, 215 82.375 L 215 79 209.500 79 C 205.484 79, 204 78.627, 204 77.617 C 204 76.856, 204.900 75.998, 206 75.710 C 207.100 75.423, 208 74.470, 208 73.594 C 208 72.717, 208.675 72, 209.500 72 C 210.548 72, 211 70.944, 211 68.500 C 211 65.667, 211.381 65, 213 65 C 214.333 65, 215 64.333, 215 63 C 215 61.900, 215.660 61, 216.466 61 C 217.469 61, 218.140 59.424, 218.594 56 C 219.025 52.754, 219.739 51, 220.629 51 C 221.624 51, 222 49.493, 222 45.500 C 222 41.500, 222.375 40, 223.375 40 C 224.886 40, 226.008 35.758, 225.986 30.125 C 225.967 25.021, 224.999 22, 223.383 22 C 222.623 22, 222 21.100, 222 20 C 222 18.381, 221.333 18, 218.500 18 C 216.197 18, 215 17.530, 215 16.625 C 215 14.346, 210.097 14, 177.781 14 C 147.654 14, 146.799 14.054, 146.290 16 M 175 23.434 C 175 24.611, 171.941 24.925, 157.928 25.184 C 142.908 25.462, 140.738 25.710, 139.878 27.250 C 139.242 28.390, 137.697 29, 135.450 29 C 133.173 29, 132 29.472, 132 30.389 C 132 31.184, 130.505 32.058, 128.500 32.434 C 125.302 33.034, 125 33.389, 125 36.545 C 125 38.838, 125.470 40, 126.399 40 C 127.396 40, 127.998 42.005, 128.500 47 C 129.002 51.995, 129.604 54, 130.601 54 C 131.533 54, 132 55.168, 132 57.500 C 132 60.333, 132.381 61, 134 61 C 135.667 61, 136 61.667, 136 65 C 136 67.889, 136.417 69, 137.500 69 C 138.325 69, 139 69.675, 139 70.500 C 139 72.964, 145.634 72.509, 146.290 70 C 146.671 68.544, 147.654 68, 149.906 68 C 151.990 68, 153 67.510, 153 66.500 C 153 65.667, 153.889 65, 155 65 C 156.333 65, 157 64.333, 157 63 C 157 61.889, 157.667 61, 158.500 61 C 159.325 61, 160 60.283, 160 59.406 C 160 58.530, 160.900 57.577, 162 57.290 C 164.509 56.634, 164.964 50, 162.500 50 C 161.348 50, 161 48.722, 161 44.500 C 161 40.278, 161.348 39, 162.500 39 C 163.325 39, 164 38.325, 164 37.500 C 164 36.667, 164.889 36, 166 36 C 167.111 36, 168 36.667, 168 37.500 C 168 38.325, 168.717 39, 169.594 39 C 170.470 39, 171.423 39.900, 171.710 41 C 172.545 44.192, 174.718 43.316, 175.434 39.500 C 175.827 37.405, 176.675 36, 177.545 36 C 178.345 36, 179 35.325, 179 34.500 C 179 33.675, 179.717 33, 180.594 33 C 181.470 33, 182.423 32.100, 182.710 31 C 183.065 29.644, 184.081 28.996, 185.867 28.986 C 190.040 28.965, 193 27.885, 193 26.383 C 193 25.623, 192.325 25, 191.500 25 C 190.675 25, 190 24.325, 190 23.500 C 190 22.300, 188.500 22, 182.500 22 C 176.653 22, 175 22.316, 175 23.434 M 200 27 C 200 28.111, 199.333 29, 198.500 29 C 197.667 29, 197 29.889, 197 31 C 197 32.333, 196.333 33, 195 33 C 193.889 33, 193 33.667, 193 34.500 C 193 35.325, 192.325 36, 191.500 36 C 190.667 36, 190 36.889, 190 38 C 190 39.333, 189.333 40, 188 40 C 186.462 40, 186 40.667, 186 42.883 C 186 44.926, 185.417 45.919, 184 46.290 C 182.900 46.577, 182 47.530, 182 48.406 C 182 49.283, 181.325 50, 180.500 50 C 179.667 50, 179 50.889, 179 52 C 179 53.333, 178.333 54, 177 54 C 175.667 54, 175 54.667, 175 56 C 175 57.111, 174.333 58, 173.500 58 C 172.675 58, 172 58.675, 172 59.500 C 172 60.333, 171.111 61, 170 61 C 168.625 61, 168 61.667, 168 63.134 C 168 65.161, 168.358 65.243, 175.113 64.760 C 179.605 64.438, 182.540 63.744, 183.075 62.875 C 183.699 61.864, 187.108 61.412, 195.962 61.166 C 207.042 60.859, 208 60.680, 208 58.916 C 208 57.862, 208.675 57, 209.500 57 C 210.633 57, 211 55.778, 211 52 C 211 47.667, 211.267 47, 213 47 C 214.859 47, 215 46.333, 215 37.571 C 215 25.928, 214.331 25, 205.929 25 C 200.667 25, 200 25.225, 200 27 M 192.750 68.728 C 190.335 68.981, 189 69.633, 189 70.560 C 189 71.352, 188.325 72, 187.500 72 C 186.675 72, 186 72.675, 186 73.500 C 186 74.466, 185.022 75.005, 183.250 75.014 C 177.813 75.041, 176.080 76.057, 175.413 79.610 C 175.053 81.531, 174.175 83, 173.389 83 C 172.625 83, 172 83.675, 172 84.500 C 172 85.652, 173.278 86, 177.500 86 C 181.722 86, 183 85.652, 183 84.500 C 183 83.371, 184.210 83, 187.889 83 C 192.684 83, 192.790 82.933, 193.434 79.500 C 193.827 77.405, 194.675 76, 195.545 76 C 196.345 76, 197 75.100, 197 74 C 197 72.889, 197.667 72, 198.500 72 C 199.333 72, 200 71.111, 200 70 C 200 68.698, 199.389 68.059, 198.250 68.168 C 197.287 68.261, 194.813 68.513, 192.750 68.728 M 67.284 75.678 C 64.537 76.057, 63.974 76.623, 63.423 79.561 C 63.055 81.519, 62.179 83, 61.389 83 C 60.625 83, 60 83.675, 60 84.500 C 60 85.652, 61.278 86, 65.500 86 C 69.722 86, 71 85.652, 71 84.500 C 71 83.262, 72.833 83, 81.500 83 C 89.793 83, 92 83.292, 92 84.389 C 92 85.178, 93.478 86.055, 95.428 86.420 C 98.196 86.940, 98.980 87.634, 99.507 90.032 C 100.767 95.769, 103.952 92.725, 103.986 85.750 C 103.997 83.662, 103.518 83, 102 83 C 100.667 83, 100 82.333, 100 81 C 100 79.333, 99.333 79, 96 79 C 93.111 79, 92 78.583, 92 77.500 C 92 76.306, 90.523 75.998, 84.750 75.989 C 80.763 75.983, 75.925 75.811, 74 75.606 C 72.075 75.402, 69.053 75.434, 67.284 75.678 M 161 77.500 C 161 78.523, 159.966 79.004, 157.750 79.014 C 153 79.034, 150 80.041, 150 81.617 C 150 82.531, 148.813 83, 146.500 83 C 143.167 83, 143 83.167, 143 86.500 L 143 90 152 90 C 159.333 90, 161 89.722, 161 88.500 C 161 87.675, 161.624 87, 162.387 87 C 163.919 87, 164.949 82.183, 164.225 78.398 C 163.729 75.801, 161 75.041, 161 77.500 M 91.250 122.706 C 90.013 122.944, 89 123.783, 89 124.570 C 89 125.637, 87.603 126, 83.500 126 C 79.430 126, 78 126.367, 78 127.412 C 78 128.280, 76.459 129.085, 74 129.500 C 71.541 129.915, 70 130.720, 70 131.588 C 70 132.477, 68.934 133, 67.125 133 C 64.705 133, 64.151 133.495, 63.625 136.125 C 62.147 143.515, 62.447 144, 68.500 144 L 74 144 74 140.500 C 74 137.083, 74.095 137, 78 137 C 80.739 137, 82 136.564, 82 135.617 C 82 133.682, 85.196 133.029, 94.750 133.014 C 102.338 133.001, 103 133.161, 103 135 C 103 136.333, 103.667 137, 105 137 C 106.619 137, 107 137.667, 107 140.500 C 107 142.813, 107.469 144, 108.383 144 C 110.110 144, 110.969 140.919, 110.986 134.656 C 110.998 130.647, 110.655 129.723, 109 129.290 C 107.900 129.002, 107 128.144, 107 127.383 C 107 126.623, 106.100 126, 105 126 C 103.900 126, 103 125.377, 103 124.617 C 103 122.390, 97.518 121.498, 91.250 122.706 M 110 167.500 C 110 168.510, 108.990 169, 106.906 169 C 104.654 169, 103.671 169.544, 103.290 171 C 102.897 172.503, 101.926 173, 99.383 173 C 97.163 173, 96 173.477, 96 174.389 C 96 175.184, 94.505 176.058, 92.500 176.434 C 90.405 176.827, 89 177.675, 89 178.545 C 89 179.532, 87.911 180, 85.617 180 C 83.074 180, 82.103 180.497, 81.710 182 C 81.423 183.100, 80.470 184, 79.594 184 C 78.717 184, 78 184.675, 78 185.500 C 78 186.548, 76.944 187, 74.500 187 C 71.667 187, 71 187.381, 71 189 C 71 190.333, 70.333 191, 69 191 C 67.889 191, 67 191.667, 67 192.500 C 67 193.325, 66.381 194, 65.625 194 C 64.254 194, 63 198.120, 63 202.625 C 63 204.729, 63.456 205, 67 205 C 69.739 205, 71 204.564, 71 203.617 C 71 202.856, 71.900 201.998, 73 201.710 C 74.100 201.423, 75 200.470, 75 199.594 C 75 198.717, 75.675 198, 76.500 198 C 77.333 198, 78 197.111, 78 196 C 78 194.667, 78.667 194, 80 194 C 81.111 194, 82 193.333, 82 192.500 C 82 191.664, 82.890 191, 84.010 191 C 85.115 191, 86.790 190.100, 87.732 189 C 88.674 187.900, 90.244 187, 91.222 187 C 92.200 187, 93 186.345, 93 185.545 C 93 184.675, 94.405 183.827, 96.500 183.434 C 98.505 183.058, 100 182.184, 100 181.389 C 100 180.468, 101.180 180, 103.500 180 C 105.944 180, 107 179.548, 107 178.500 C 107 177.675, 107.717 177, 108.594 177 C 109.470 177, 110.423 176.100, 110.710 175 C 111.074 173.608, 112.074 173, 114 173 C 116.024 173, 116.929 172.396, 117.370 170.750 C 118.505 166.513, 118.141 166, 114 166 C 111.111 166, 110 166.417, 110 167.500" stroke="none" fill="black" fill-rule="evenodd"/>
</svg>