<svg xmlns="http://www.w3.org/2000/svg" width="300" height="300" viewBox="0 0 300 300" version="1.1">
	<path d="M 110.235 75.708 C 108.990 75.947, 108.229 76.561, 108.544 77.071 C 108.865 77.590, 107.141 78, 104.641 78 C 99.411 78, 96.768 78.816, 97.606 80.172 C 97.934 80.701, 97.256 81.382, 96.101 81.684 C 94.489 82.105, 94 83.020, 94 85.617 C 94 87.837, 94.477 89, 95.389 89 C 96.184 89, 97.058 90.495, 97.434 92.500 C 98.008 95.562, 98.460 96, 101.045 96 C 103.618 96, 104 95.636, 104 93.189 C 104 91.642, 104.918 89.392, 106.039 88.189 C 107.843 86.252, 109.108 86, 117.039 86 L 126 86 126 89.383 C 126 91.926, 125.503 92.897, 124 93.290 C 122.330 93.726, 122 94.654, 122 98.906 C 122 102.448, 121.619 103.924, 120.750 103.750 C 119.862 103.572, 119.415 105.614, 119.205 110.799 C 118.985 116.252, 118.521 118.246, 117.371 118.688 C 116.125 119.166, 116.086 119.439, 117.166 120.124 C 118.205 120.782, 118.135 120.973, 116.849 120.985 C 115.464 120.998, 115.143 122.453, 114.849 130.037 C 114.643 135.383, 114.032 139.365, 113.354 139.787 C 112.724 140.179, 111.914 143.650, 111.554 147.500 C 110.471 159.109, 109.892 161.956, 108.667 161.722 C 108.025 161.600, 107.625 162.101, 107.779 162.836 C 107.932 163.571, 107.144 164.411, 106.029 164.703 C 104.490 165.105, 104 166.058, 104 168.648 C 104 170.761, 104.572 172.282, 105.500 172.638 C 106.777 173.128, 107 176.842, 107 197.562 L 107 221.909 110.750 222.508 C 112.813 222.838, 115.175 223.536, 116 224.060 C 119.169 226.073, 120.020 226.136, 123.115 224.592 C 125.027 223.638, 128.852 223, 132.654 223 C 137.628 223, 139 222.676, 139 221.500 C 139 220.369, 140.215 220, 143.935 220 C 149.569 220, 154.415 218.481, 153.501 217.002 C 153.105 216.361, 156.145 216, 161.941 216 C 169.327 216, 171 215.723, 171 214.500 C 171 213.338, 172.316 213, 176.844 213 C 180.059 213, 187.596 212.673, 193.594 212.274 C 202.002 211.714, 203.584 211.403, 200.500 210.916 C 196.769 210.326, 196.886 210.274, 202.250 210.142 C 207.679 210.008, 208 209.860, 208 207.500 C 208 205.944, 208.567 205, 209.500 205 C 211.811 205, 211.275 203.307, 208.750 202.630 C 205.357 201.721, 182.789 202.016, 180.500 203 L 178.500 203.859 180.500 204.105 C 181.600 204.240, 177.180 204.609, 170.679 204.925 C 160.839 205.404, 158.693 205.793, 157.879 207.250 C 157.093 208.655, 155.530 209, 149.950 209 C 144.721 209, 143 209.340, 143 210.375 C 143 211.400, 140.794 211.865, 134.306 212.205 C 128.930 212.488, 125.464 213.108, 125.223 213.831 C 125.009 214.474, 123.345 215, 121.526 215 L 118.219 215 117.500 204 C 117.034 196.864, 116.381 192.995, 115.641 192.985 C 114.934 192.975, 115.007 192.648, 115.834 192.124 C 116.892 191.453, 116.812 191.142, 115.449 190.619 C 113.984 190.057, 113.808 188.980, 114.260 183.353 C 114.562 179.589, 115.341 176.407, 116.071 175.956 C 116.775 175.521, 117.495 174.115, 117.670 172.832 C 118.368 167.710, 119.051 166.311, 121.492 165.004 C 123.058 164.166, 123.614 163.379, 122.936 162.960 C 122.329 162.586, 123.951 162.040, 126.540 161.748 C 129.129 161.457, 131.625 160.606, 132.086 159.859 C 132.717 158.837, 136.680 158.415, 148.091 158.156 C 165.178 157.768, 172 158.434, 172 160.492 C 172 161.245, 173.012 162.015, 174.250 162.204 C 175.488 162.393, 176.388 163.099, 176.250 163.774 C 176.113 164.448, 176.675 165, 177.500 165 C 178.325 165, 179 164.602, 179 164.117 C 179 163.631, 179.900 162.998, 181 162.710 C 184.910 161.688, 182.347 155, 178.045 155 C 177.049 155, 175.998 154.100, 175.710 153 C 175.310 151.468, 174.346 151, 171.594 151 C 169.066 151, 168 150.555, 168 149.500 C 168 147.352, 144.497 147.264, 143.673 149.409 C 143.280 150.433, 141.139 150.836, 135.824 150.886 C 131.764 150.924, 128.363 151.412, 128.172 151.983 C 127.984 152.549, 127.418 152.758, 126.915 152.447 C 126.412 152.136, 126 152.359, 126 152.941 C 126 153.523, 124.425 154, 122.500 154 C 119.633 154, 119 153.627, 119 151.941 C 119 150.809, 119.410 150.135, 119.911 150.445 C 120.874 151.040, 121.506 147.745, 122.521 136.830 C 122.932 132.420, 123.626 129.974, 124.571 129.611 C 125.622 129.208, 126 127.204, 126 122.031 C 126 116.732, 126.339 115, 127.375 115 C 128.904 115, 130 110.772, 130 104.875 C 130 102.097, 130.425 101, 131.500 101 C 132.580 101, 133 99.894, 133 97.050 C 133 94.342, 133.551 92.779, 134.750 92.080 C 136.154 91.262, 136.203 91.035, 135 90.931 C 134.175 90.859, 134.625 90.457, 136 90.036 C 137.375 89.616, 143.113 89.503, 148.750 89.787 C 157.534 90.228, 159 90.081, 159 88.762 C 159 87.794, 157.700 86.979, 155.500 86.566 C 153.279 86.149, 152 85.340, 152 84.351 C 152 82.977, 154.275 82.852, 171.250 83.288 C 187.169 83.697, 190.552 84.038, 190.798 85.262 C 190.966 86.095, 190.092 87.042, 188.798 87.429 C 186.576 88.094, 186.566 88.146, 188.500 88.988 C 189.787 89.549, 186.133 89.884, 178.250 89.930 C 168.653 89.985, 166 90.293, 166 91.353 C 166 92.896, 175.869 94, 189.651 94 C 196.108 94, 198 93.685, 198 92.611 C 198 91.825, 199.469 90.947, 201.390 90.587 C 204.948 89.919, 205.959 88.188, 205.986 82.719 C 205.995 80.974, 205.348 79.697, 204.250 79.292 C 203.287 78.936, 202.210 78.214, 201.856 77.686 C 201.502 77.158, 195.877 76.366, 189.356 75.927 C 177.155 75.105, 114.278 74.931, 110.235 75.708" stroke="none" fill="black" fill-rule="evenodd"/>
</svg>