<svg xmlns="http://www.w3.org/2000/svg" width="300" height="300" viewBox="0 0 300 300" version="1.1">
	<path d="M 199 83.031 C 199 83.599, 198.276 84.341, 197.391 84.680 C 195.093 85.562, 191 89.523, 191 90.865 C 191 91.489, 190.325 92, 189.500 92 C 188.675 92, 188 92.689, 188 93.531 C 188 94.374, 187.366 95.306, 186.590 95.604 C 185.815 95.901, 184.878 97.350, 184.509 98.822 C 184.140 100.295, 182.974 102.305, 181.919 103.289 C 180.863 104.273, 180 106.185, 180 107.539 C 180 109.026, 179.424 110, 178.545 110 C 177.675 110, 176.827 111.405, 176.434 113.500 C 176.058 115.505, 175.184 117, 174.389 117 C 173.625 117, 173 117.900, 173 119 C 173 120.333, 172.333 121, 171 121 C 169.381 121, 169 121.667, 169 124.500 C 169 126.944, 168.548 128, 167.500 128 C 166.675 128, 166 128.717, 166 129.594 C 166 130.470, 165.012 131.446, 163.804 131.762 C 161.707 132.310, 161.696 132.371, 163.554 133.098 C 165.241 133.758, 165.267 133.869, 163.750 133.930 C 162.690 133.972, 162 134.789, 162 136 C 162 137.333, 161.333 138, 160 138 C 158.667 138, 158 138.667, 158 140 C 158 141.111, 157.333 142, 156.500 142 C 155.675 142, 155 142.675, 155 143.500 C 155 144.325, 154.283 145, 153.406 145 C 152.530 145, 151.577 145.900, 151.290 147 C 150.685 149.314, 147 149.743, 147 147.500 C 147 146.675, 146.325 146, 145.500 146 C 144.667 146, 144 145.111, 144 144 C 144 142.900, 143.377 142, 142.617 142 C 141.856 142, 140.998 141.100, 140.710 140 C 140.423 138.900, 139.470 138, 138.594 138 C 137.667 138, 137 137.163, 137 136 C 137 134.667, 136.333 134, 135 134 C 133.900 134, 133.053 133.662, 133.118 133.250 C 133.610 130.138, 132.797 127, 131.500 127 C 130.675 127, 130 126.325, 130 125.500 C 130 124.667, 129.111 124, 128 124 C 126.667 124, 126 123.333, 126 122 C 126 120.900, 125.375 120, 124.611 120 C 123.816 120, 122.942 118.505, 122.566 116.500 C 122.173 114.405, 121.325 113, 120.455 113 C 119.655 113, 119 112.100, 119 111 C 119 109.900, 118.345 109, 117.545 109 C 116.675 109, 115.827 107.595, 115.434 105.500 C 115.058 103.495, 114.184 102, 113.389 102 C 112.211 102, 111.703 99.800, 112.074 96.300 C 112.115 95.914, 111.215 95.254, 110.074 94.832 C 108.922 94.406, 108 93.175, 108 92.064 C 108 90.701, 107.524 90.245, 106.508 90.635 C 105.657 90.962, 104.753 90.519, 104.401 89.604 C 104.035 88.650, 102.716 88.040, 101.143 88.100 L 98.500 88.199 101 88.953 C 103.488 89.703, 103.485 89.709, 100.500 90.104 C 97.828 90.457, 97.466 90.918, 97.185 94.327 C 96.927 97.465, 97.232 98.248, 98.879 98.679 C 100.257 99.039, 100.985 100.194, 101.194 102.352 C 101.362 104.083, 101.898 105.275, 102.385 105 C 102.872 104.725, 103.645 105.513, 104.103 106.750 C 104.561 107.987, 105.625 109, 106.468 109 C 107.514 109, 108 109.981, 108 112.094 C 108 114.346, 108.544 115.329, 110 115.710 C 111.107 116, 112 117.074, 112 118.117 C 112 119.152, 112.675 120, 113.500 120 C 114.333 120, 115 120.889, 115 122 C 115 123.100, 115.655 124, 116.455 124 C 117.325 124, 118.173 125.405, 118.566 127.500 C 118.929 129.437, 119.822 131, 120.566 131 C 121.310 131, 122.203 132.563, 122.566 134.500 C 122.942 136.505, 123.816 138, 124.611 138 C 125.375 138, 126 138.886, 126 139.969 C 126 141.341, 126.472 141.756, 127.560 141.339 C 128.592 140.942, 129.301 141.437, 129.658 142.801 C 129.955 143.934, 130.828 145.104, 131.599 145.399 C 132.369 145.695, 133 146.626, 133 147.469 C 133 148.311, 133.623 149, 134.383 149 C 135.144 149, 136.002 149.900, 136.290 151 C 136.577 152.100, 137.479 153, 138.293 153 C 139.840 153, 140.765 156.784, 140.188 160.750 C 139.978 162.193, 139.169 163, 137.930 163 C 136.667 163, 136 163.691, 136 165 C 136 166.333, 135.333 167, 134 167 C 132.889 167, 132 167.667, 132 168.500 C 132 169.325, 131.325 170, 130.500 170 C 129.667 170, 129 170.889, 129 172 C 129 173.111, 128.333 174, 127.500 174 C 126.675 174, 126 174.717, 126 175.594 C 126 176.470, 125.111 177.420, 124.025 177.704 C 122.744 178.039, 121.828 179.400, 121.420 181.575 C 121.074 183.420, 120.500 184.893, 120.145 184.847 C 118.124 184.585, 117 185.176, 117 186.500 C 117 187.325, 116.325 188, 115.500 188 C 114.667 188, 114 188.889, 114 190 C 114 191.100, 113.663 191.947, 113.250 191.882 C 109.805 191.338, 108.108 192.232, 107.522 194.898 C 106.969 197.419, 104.299 199.419, 101.857 199.144 C 101.503 199.104, 100.671 200.379, 100.009 201.977 C 99.220 203.882, 97.840 205.096, 96.004 205.499 C 93.172 206.121, 92.041 208.192, 92.014 212.809 C 92.006 214.091, 91.555 214.843, 91 214.500 C 90.450 214.160, 90 214.310, 90 214.833 C 90 216.181, 94.116 217.044, 96.977 216.296 C 99.221 215.709, 99.254 215.610, 97.446 214.902 C 95.900 214.297, 96.154 214.126, 98.685 214.070 C 104.440 213.943, 107 212.390, 107 209.025 C 107 207.003, 107.497 206, 108.500 206 C 109.325 206, 110 205.325, 110 204.500 C 110 203.147, 111.187 202.556, 113.250 202.882 C 113.663 202.947, 114 202.100, 114 201 C 114 199.667, 114.667 199, 116 199 C 117.129 199, 118 198.333, 118 197.469 C 118 196.626, 118.675 195.678, 119.500 195.362 C 120.325 195.045, 121 194.159, 121 193.393 C 121 192.627, 121.900 192, 123 192 C 124.163 192, 125 191.333, 125 190.406 C 125 189.530, 125.900 188.577, 127 188.290 C 128.100 188.002, 129 187.144, 129 186.383 C 129 185.623, 129.675 185, 130.500 185 C 131.325 185, 132 184.283, 132 183.406 C 132 182.530, 132.889 181.580, 133.975 181.296 C 135.294 180.951, 136.177 179.576, 136.630 177.156 C 137.185 174.199, 137.439 173.898, 138.014 175.517 C 138.606 177.187, 138.835 176.968, 139.465 174.129 C 139.922 172.065, 140.947 170.565, 142.106 170.262 C 143.148 169.990, 144 169.144, 144 168.383 C 144 167.469, 145.187 167, 147.500 167 C 149.944 167, 151 167.452, 151 168.500 C 151 169.325, 151.717 170, 152.594 170 C 153.470 170, 154.423 170.900, 154.710 172 C 154.998 173.100, 155.856 174, 156.617 174 C 157.377 174, 158 174.848, 158 175.883 C 158 176.926, 158.893 178, 160 178.290 C 161.100 178.577, 162 179.530, 162 180.406 C 162 181.283, 162.450 182, 163 182 C 163.550 182, 164 182.675, 164 183.500 C 164 184.853, 165.187 185.444, 167.250 185.118 C 167.662 185.053, 168.008 185.788, 168.017 186.750 C 168.027 187.713, 169.152 189.560, 170.517 190.855 C 171.883 192.150, 173.007 193.725, 173.015 194.355 C 173.024 194.985, 173.467 194.825, 174 194 C 174.775 192.801, 174.996 193.002, 175.103 195 C 175.177 196.375, 175.171 197.876, 175.090 198.336 C 175.009 198.796, 175.856 199.411, 176.971 199.703 C 178.087 199.995, 179 200.803, 179 201.500 C 179 202.197, 179.945 203.014, 181.101 203.316 C 182.342 203.641, 182.914 204.330, 182.500 205 C 182.086 205.670, 182.658 206.359, 183.899 206.684 C 185.096 206.997, 186 208.044, 186 209.117 C 186 210.333, 186.708 211, 188 211 C 189.111 211, 190 211.667, 190 212.500 C 190 214.470, 193.432 214.425, 195.429 212.429 C 196.293 211.564, 197 209.314, 197 207.429 C 197 204.667, 196.611 204, 195 204 C 193.667 204, 193 203.333, 193 202 C 193 200.889, 192.333 200, 191.500 200 C 190.675 200, 190 199.377, 190 198.617 C 190 197.856, 189.100 196.998, 188 196.710 C 186.781 196.392, 186 195.346, 186 194.035 C 186 192.851, 185.549 192.161, 184.998 192.501 C 184.447 192.842, 183.548 191.941, 183 190.500 C 182.452 189.059, 181.590 188.136, 181.083 188.449 C 180.577 188.761, 179.865 187.660, 179.500 186 C 179.136 184.341, 177.978 182.524, 176.929 181.962 C 175.879 181.400, 175.124 180.616, 175.251 180.220 C 175.378 179.824, 173.798 177.774, 171.741 175.664 C 169.683 173.554, 168 171.417, 168 170.914 C 168 170.411, 167.438 170.113, 166.750 170.250 C 166.063 170.388, 165.625 169.899, 165.779 169.164 C 165.932 168.429, 165.144 167.589, 164.029 167.297 C 162.896 167.001, 162 165.935, 162 164.883 C 162 163.667, 161.292 163, 160 163 C 158.900 163, 158.053 162.662, 158.118 162.250 C 158.444 160.187, 157.853 159, 156.500 159 C 155.513 159, 155.024 158.059, 155.070 156.250 C 155.133 153.813, 155.238 153.728, 156 155.500 C 156.807 157.379, 156.864 157.358, 156.930 155.156 C 156.975 153.657, 157.751 152.616, 159.085 152.268 C 160.669 151.853, 160.849 151.520, 159.835 150.877 C 158.812 150.228, 158.909 150.027, 160.250 150.015 C 161.292 150.006, 162 149.238, 162 148.117 C 162 147.074, 162.893 146, 164 145.710 C 165.100 145.423, 166 144.444, 166 143.535 C 166 142.626, 166.451 142.161, 167.002 142.501 C 167.553 142.842, 168.442 141.968, 168.977 140.560 C 169.512 139.152, 170.637 138, 171.475 138 C 172.333 138, 173 137.126, 173 136 C 173 134.900, 173.639 134, 174.421 134 C 175.202 134, 176.138 132.650, 176.500 131 C 176.862 129.350, 177.798 128, 178.579 128 C 179.536 128, 180 126.857, 180 124.500 C 180 121.667, 180.381 121, 182 121 C 183.333 121, 184 120.333, 184 119 C 184 117.889, 184.667 117, 185.500 117 C 186.325 117, 187 116.118, 187 115.039 C 187 113.960, 187.848 112.273, 188.884 111.289 C 189.919 110.305, 191.093 107.978, 191.492 106.117 C 191.951 103.976, 192.496 103.185, 192.977 103.963 C 193.480 104.777, 194.102 104.146, 194.817 102.096 C 195.410 100.393, 196.369 99, 196.948 99 C 197.527 99, 198 98.325, 198 97.500 C 198 96.675, 198.878 96, 199.950 96 C 201.023 96, 202.373 95.213, 202.950 94.250 C 203.950 92.583, 204.050 92.583, 205.050 94.250 C 206.879 97.301, 209 96.361, 209 92.500 C 209 90.056, 208.548 89, 207.500 89 C 206.644 89, 206 88.101, 206 86.906 C 206 85.658, 205.197 84.603, 204.011 84.293 C 202.917 84.007, 202.269 83.374, 202.570 82.886 C 202.872 82.399, 202.191 82, 201.059 82 C 199.927 82, 199 82.464, 199 83.031" stroke="none" fill="black" fill-rule="evenodd"/>
</svg>