<svg xmlns="http://www.w3.org/2000/svg" width="300" height="300" viewBox="0 0 300 300" version="1.1">
	<path d="M 120 76.702 C 119.175 77.027, 118.140 77.902, 117.700 78.647 C 117.260 79.391, 116.248 80, 115.450 80 C 114.653 80, 113.993 80.787, 113.985 81.750 C 113.974 83.021, 113.749 83.152, 113.164 82.231 C 112.579 81.309, 111.990 81.650, 111.010 83.481 C 110.269 84.866, 109.063 86, 108.331 86 C 107.599 86, 107 86.914, 107 88.031 C 107 89.149, 106.342 90.315, 105.538 90.624 C 104.734 90.932, 103.804 92.043, 103.471 93.092 C 103.138 94.142, 102.221 95, 101.433 95 C 100.645 95, 100.084 95.338, 100.188 95.750 C 100.755 98.015, 98.659 105, 97.412 105 C 96.431 105, 96 106.223, 96 109.010 C 96 111.782, 95.383 113.548, 94 114.732 C 92.518 116.001, 92 117.682, 92 121.222 C 92 124.585, 91.597 126, 90.639 126 C 89.748 126, 89.070 127.765, 88.673 131.115 C 88.340 133.929, 87.429 136.741, 86.649 137.365 C 85.705 138.121, 85.007 141.671, 84.561 147.991 C 84.089 154.685, 83.466 157.719, 82.446 158.290 C 80.302 159.490, 80.353 176, 82.500 176 C 83.435 176, 84 176.946, 84 178.510 C 84 179.890, 84.900 181.790, 86 182.732 C 87.100 183.674, 88 184.984, 88 185.643 C 88 186.302, 89.369 187.142, 91.043 187.509 C 93.346 188.015, 94.223 188.863, 94.650 191 C 94.973 192.617, 96.023 194.034, 97.107 194.318 C 98.148 194.590, 99 195.494, 99 196.327 C 99 197.196, 100.278 198.122, 102 198.500 C 103.650 198.862, 105 199.798, 105 200.579 C 105 201.539, 106.147 202, 108.531 202 C 110.719 202, 112.278 202.560, 112.628 203.473 C 112.939 204.283, 114.837 205.222, 116.847 205.560 C 122.480 206.508, 124.072 207.074, 123.538 207.939 C 122.970 208.857, 130.254 210, 136.671 210 C 139.652 210, 141.248 209.518, 141.638 208.500 C 142.003 207.549, 143.547 206.997, 145.857 206.991 C 153.388 206.973, 160 205.744, 160 204.361 C 160 202.307, 176.838 202.414, 177.628 204.473 C 177.939 205.283, 179.725 206.233, 181.597 206.584 C 183.527 206.946, 185 207.823, 185 208.611 C 185 209.497, 186.121 210, 188.094 210 C 190.346 210, 191.329 210.544, 191.710 212 C 192.103 213.503, 193.074 214, 195.617 214 C 197.945 214, 199 214.464, 199 215.488 C 199 216.459, 200.437 217.206, 203.138 217.638 C 205.414 218.002, 207.989 219.132, 208.860 220.150 C 209.732 221.167, 211.244 222, 212.222 222 C 213.200 222, 213.888 222.563, 213.750 223.250 C 213.588 224.060, 214.733 224.500, 217 224.500 C 220.474 224.500, 220.502 224.464, 220.808 219.672 C 221.074 215.501, 220.836 214.770, 219.058 214.305 C 217.926 214.009, 217 213.165, 217 212.429 C 217 211.691, 215.429 210.796, 213.500 210.434 C 211.575 210.073, 210 209.197, 210 208.488 C 210 207.779, 208.313 206.750, 206.250 206.203 C 204.012 205.608, 203.306 205.137, 204.500 205.033 L 206.500 204.859 204.500 204 C 203.400 203.527, 201.090 203.109, 199.367 203.070 C 197.109 203.020, 196.087 202.441, 195.710 201 C 195.275 199.335, 194.292 198.981, 189.844 198.884 C 186.905 198.820, 185.400 198.532, 186.500 198.244 C 188.151 197.811, 187.890 197.510, 185 196.521 C 181.123 195.194, 179.576 192, 182.810 192 C 183.987 192, 184.997 191.120, 185.344 189.794 C 185.661 188.580, 186.261 187.927, 186.676 188.343 C 187.092 188.759, 187.932 187.389, 188.544 185.299 C 189.155 183.210, 190.183 181.612, 190.828 181.750 C 191.691 181.934, 192 177.109, 192 163.441 C 192 152.307, 191.629 145.111, 191.074 145.454 C 190.564 145.769, 189.603 143.433, 188.938 140.263 C 187.990 135.746, 187.557 134.932, 186.935 136.500 C 186.393 137.864, 186.118 136.695, 186.070 132.821 C 186.023 129.038, 185.469 126.612, 184.409 125.551 C 182.841 123.984, 182.227 122.193, 182.077 118.750 C 182.034 117.787, 181.325 117, 180.500 117 C 179.667 117, 179 116.111, 179 115 C 179 113.900, 178.345 113, 177.545 113 C 176.675 113, 175.827 111.595, 175.434 109.500 C 175.058 107.495, 174.184 106, 173.389 106 C 172.625 106, 172 105.100, 172 104 C 172 102.667, 171.333 102, 170 102 C 168.900 102, 168 101.345, 168 100.545 C 168 99.675, 166.595 98.827, 164.500 98.434 C 162.575 98.073, 161 97.203, 161 96.500 C 161 95.797, 159.425 94.927, 157.500 94.566 C 155.509 94.192, 154 93.315, 154 92.530 C 154 91.512, 151.648 90.966, 145.020 90.448 C 140.081 90.061, 136.248 89.407, 136.504 88.994 C 137.126 87.987, 131.869 87, 125.875 87 C 122.299 87, 121 86.616, 121 85.560 C 121 84.619, 122.297 84.013, 124.750 83.810 C 128.310 83.516, 128.500 83.323, 128.500 80 C 128.500 76.704, 128.296 76.489, 125 76.305 C 123.075 76.198, 120.825 76.377, 120 76.702 M 114.982 94.833 C 114.442 95.017, 114 96.015, 114 97.052 C 114 98.317, 113.506 98.748, 112.500 98.362 C 111.550 97.997, 111 98.375, 111 99.393 C 111 100.277, 111.675 101, 112.500 101 C 113.537 101, 114 102.042, 114 104.375 C 114 107.299, 113.613 107.827, 111.100 108.330 C 105.886 109.373, 103.334 112.787, 102.789 119.450 C 102.521 122.722, 101.784 125.572, 101.151 125.783 C 100.518 125.994, 99.955 127.592, 99.900 129.333 C 99.756 133.914, 98.502 137.539, 97.161 137.250 C 96.403 137.087, 96 138.709, 96 141.929 C 96 144.963, 95.427 147.430, 94.509 148.348 C 93.379 149.478, 93.318 149.961, 94.259 150.341 C 95.017 150.647, 94.847 150.873, 93.821 150.921 C 92.409 150.987, 92.091 152.390, 91.821 159.750 C 91.424 170.568, 91.745 173, 93.570 173 C 94.795 173, 95.595 176.230, 95.118 179.250 C 95.053 179.662, 95.900 180, 97 180 C 98.333 180, 99 180.667, 99 182 C 99 183.111, 99.667 184, 100.500 184 C 101.325 184, 102 184.675, 102 185.500 C 102 186.333, 102.889 187, 104 187 C 105.333 187, 106 187.667, 106 189 C 106 190.305, 106.667 191, 107.918 191 C 110.872 191, 113 192.074, 113 193.563 C 113 194.544, 114.978 194.993, 120.250 195.206 C 125.196 195.407, 127.427 195.879, 127.269 196.692 C 126.939 198.399, 134.638 199.330, 144.096 198.726 C 148.509 198.444, 152.278 198.053, 152.472 197.857 C 152.665 197.661, 152.586 196.262, 152.295 194.750 C 151.879 192.585, 151.207 191.997, 149.133 191.986 C 145.309 191.967, 141.940 190.906, 142.552 189.916 C 143.084 189.055, 141.710 188.632, 134.722 187.507 C 132.644 187.173, 131.208 186.472, 131.531 185.949 C 131.877 185.390, 129.607 185, 126 185 C 122.479 185, 120.126 185.395, 120.457 185.931 C 120.774 186.443, 120.583 187.140, 120.033 187.479 C 118.591 188.371, 111.913 186.949, 112.568 185.890 C 112.870 185.401, 112.191 185, 111.059 185 C 109.321 185, 109 184.372, 109 180.969 C 109 178.041, 109.479 176.761, 110.750 176.294 C 111.713 175.940, 112.836 175.097, 113.247 174.420 C 114.299 172.686, 133.196 173.682, 134.256 175.527 C 134.672 176.251, 136.472 177.160, 138.256 177.547 C 140.040 177.935, 141.782 178.694, 142.126 179.235 C 142.471 179.775, 144.892 180.459, 147.508 180.754 C 151.022 181.150, 152.390 181.774, 152.748 183.145 C 153.100 184.491, 154.162 185, 156.617 185 C 158.816 185, 160 185.480, 160 186.371 C 160 187.302, 161.897 187.956, 165.916 188.411 C 173.238 189.239, 176.281 188.530, 177.573 185.695 C 178.123 184.488, 179.086 183.601, 179.713 183.725 C 180.339 183.849, 181.138 182.649, 181.487 181.059 C 181.836 179.468, 182.770 177.919, 183.561 177.615 C 185.709 176.791, 185.654 150.512, 183.500 148.357 C 182.675 147.532, 181.994 145.202, 181.986 143.179 C 181.979 141.155, 181.678 138.399, 181.318 137.054 C 180.712 134.788, 180.608 134.751, 179.902 136.554 C 179.397 137.844, 179.117 136.700, 179.070 133.156 C 179.011 128.686, 178.673 127.727, 177 127.290 C 175.497 126.897, 175 125.926, 175 123.383 C 175 121.089, 174.532 120, 173.545 120 C 172.675 120, 171.827 118.595, 171.434 116.500 C 171.058 114.495, 170.184 113, 169.389 113 C 168.625 113, 168 112.100, 168 111 C 168 109.667, 167.333 109, 166 109 C 164.889 109, 164 108.333, 164 107.500 C 164 106.675, 163.283 106, 162.406 106 C 161.530 106, 160.577 105.100, 160.290 104 C 159.897 102.497, 158.926 102, 156.383 102 C 154.160 102, 153 101.523, 153 100.608 C 153 98.632, 148.911 97.764, 138 97.425 C 132.775 97.262, 127.600 97.068, 126.500 96.994 L 124.500 96.859 126.500 96.054 C 127.914 95.484, 126.663 95.138, 122.232 94.874 C 118.785 94.668, 115.522 94.650, 114.982 94.833 M 134.768 95.725 C 136.565 95.947, 139.265 95.943, 140.768 95.715 C 142.271 95.486, 140.800 95.304, 137.500 95.310 C 134.200 95.315, 132.971 95.502, 134.768 95.725 M 118.813 96.683 C 119.534 96.972, 120.397 96.936, 120.729 96.604 C 121.061 96.272, 120.471 96.036, 119.417 96.079 C 118.252 96.127, 118.015 96.364, 118.813 96.683 M 107.195 180.500 C 107.215 182.150, 107.439 182.704, 107.693 181.731 C 107.947 180.758, 107.930 179.408, 107.656 178.731 C 107.382 178.054, 107.175 178.850, 107.195 180.500" stroke="none" fill="black" fill-rule="evenodd"/>
</svg>