<svg xmlns="http://www.w3.org/2000/svg" width="300" height="300" viewBox="0 0 300 300" version="1.1">
	<path d="M 159 85.806 C 157.075 85.974, 155.019 86.737, 154.430 87.501 C 153.842 88.264, 151.254 88.998, 148.680 89.131 C 145.606 89.291, 144 89.824, 144 90.687 C 144 91.409, 143.127 92, 142.059 92 C 140.991 92, 139.835 92.457, 139.490 93.016 C 139.144 93.575, 138.443 93.774, 137.931 93.457 C 137.419 93.141, 137 93.584, 137 94.441 C 137 95.437, 136.098 96, 134.500 96 C 132.792 96, 131.995 96.554, 131.985 97.750 C 131.973 99.090, 131.771 99.188, 131.124 98.166 C 130.443 97.092, 130.160 97.141, 129.671 98.416 C 129.336 99.287, 128.149 100, 127.031 100 C 125.892 100, 125 100.659, 125 101.500 C 125 102.333, 124.111 103, 123 103 C 121.667 103, 121 103.667, 121 105 C 121 106.100, 120.662 106.947, 120.250 106.882 C 118.037 106.532, 114.016 107.102, 114.118 107.750 C 114.423 109.678, 113.785 113.357, 113.338 112.250 C 112.687 110.637, 110.922 110.616, 111.250 112.226 C 111.387 112.901, 110.487 113.607, 109.250 113.796 C 107.210 114.107, 106.349 116.146, 106.910 119.336 C 106.991 119.796, 106.144 120.411, 105.029 120.703 C 103.896 120.999, 103 122.065, 103 123.117 C 103 124.152, 102.325 125, 101.500 125 C 100.507 125, 100 125.993, 100 127.941 C 100 129.559, 99.543 131.165, 98.984 131.510 C 98.425 131.856, 98.226 132.557, 98.543 133.069 C 98.859 133.581, 98.416 134, 97.559 134 C 96.378 134, 96 135.091, 96 138.500 C 96 142.113, 95.655 143.003, 94.250 143.015 C 92.910 143.027, 92.812 143.229, 93.834 143.876 C 94.898 144.550, 94.830 144.851, 93.500 145.362 C 92.043 145.921, 91.875 147.540, 92.166 158.169 C 92.402 166.767, 92.867 170.458, 93.750 170.751 C 94.438 170.980, 95 172.410, 95 173.930 C 95 175.450, 95.900 177.732, 97 179 C 98.100 180.268, 99 182.362, 99 183.653 C 99 185.073, 99.593 186, 100.500 186 C 101.325 186, 102 186.717, 102 187.594 C 102 188.470, 102.900 189.423, 104 189.710 C 105.100 189.998, 106 190.856, 106 191.617 C 106 192.377, 106.675 193, 107.500 193 C 108.333 193, 109 193.889, 109 195 C 109 196.333, 109.667 197, 111 197 C 112.100 197, 113 197.623, 113 198.383 C 113 199.144, 113.900 200.002, 115 200.290 C 116.100 200.577, 117 201.530, 117 202.406 C 117 203.561, 117.964 204, 120.500 204 C 123.333 204, 124 204.381, 124 206 C 124 207.619, 124.667 208, 127.500 208 C 129.797 208, 131 208.471, 131 209.370 C 131 210.260, 132.643 210.925, 135.689 211.268 C 138.268 211.559, 140.856 212.445, 141.439 213.236 C 142.220 214.296, 145.961 214.849, 155.627 215.335 C 169.463 216.031, 184.989 215.229, 182.882 213.927 C 182.113 213.452, 183.138 212.912, 185.569 212.512 C 195.073 210.948, 195.646 210.769, 193.517 210.014 C 191.911 209.444, 192.244 209.177, 195.267 208.610 C 197.320 208.225, 199 207.570, 199 207.156 C 199 206.741, 200.519 205.852, 202.376 205.181 C 205.150 204.178, 205.970 203.179, 206.979 199.574 C 207.709 196.969, 207.923 193.502, 207.507 191.039 C 206.821 186.983, 206.724 186.898, 203.153 187.195 L 199.500 187.500 199.198 192.750 C 198.992 196.323, 198.467 198, 197.555 198 C 196.817 198, 195.955 198.675, 195.638 199.500 C 195.305 200.369, 193.809 201, 192.081 201 C 190.288 201, 188.711 201.693, 188.126 202.739 C 187.353 204.121, 185.441 204.555, 178.826 204.852 C 174.089 205.064, 170.192 205.715, 169.785 206.363 C 168.684 208.114, 150.167 207.891, 149.070 206.113 C 148.599 205.351, 145.915 204.506, 143.107 204.236 C 139.775 203.916, 138 203.284, 138 202.418 C 138 201.688, 136.425 200.795, 134.500 200.434 C 132.495 200.058, 131 199.184, 131 198.389 C 131 197.461, 129.806 197, 127.406 197 C 124.654 197, 123.690 196.532, 123.290 195 C 123.002 193.900, 122.144 193, 121.383 193 C 120.623 193, 119.964 192.213, 119.921 191.250 C 119.871 190.138, 119.653 189.971, 119.324 190.791 C 118.946 191.732, 118.330 191.534, 117.051 190.059 C 116.086 188.947, 115.048 188.285, 114.744 188.590 C 114.439 188.894, 113.897 187.807, 113.538 186.173 C 113.154 184.424, 112.087 182.995, 110.943 182.695 C 109.874 182.416, 109 181.518, 109 180.701 C 109 179.883, 108.325 178.955, 107.500 178.638 C 106.631 178.305, 106 176.809, 106 175.081 C 106 173.441, 105.320 171.719, 104.490 171.254 C 101.486 169.573, 101.505 143, 104.510 143 C 106.084 143, 107 140.762, 107 136.918 C 107 135.171, 107.483 134.100, 108.205 134.250 C 108.867 134.387, 109.450 134.050, 109.500 133.500 C 109.919 128.872, 111.306 125, 112.545 125 C 113.345 125, 114 124.100, 114 123 C 114 121.900, 114.623 121, 115.383 121 C 116.144 121, 117.002 120.100, 117.290 119 C 117.577 117.900, 118.530 117, 119.406 117 C 120.283 117, 121 116.325, 121 115.500 C 121 114.675, 121.848 114, 122.883 114 C 123.956 114, 125.003 113.096, 125.316 111.899 C 125.641 110.658, 126.330 110.086, 127 110.500 C 127.670 110.914, 128.359 110.342, 128.684 109.101 C 128.997 107.904, 130.044 107, 131.117 107 C 132.152 107, 133 106.523, 133 105.941 C 133 105.359, 133.450 105.160, 134 105.500 C 134.550 105.840, 135 105.627, 135 105.028 C 135 104.428, 135.787 103.642, 136.750 103.281 C 137.713 102.919, 138.950 102.035, 139.500 101.314 C 140.050 100.594, 141.710 99.908, 143.189 99.789 C 144.809 99.659, 146.064 98.863, 146.345 97.787 C 146.738 96.284, 147.981 95.989, 154.156 95.930 C 158.826 95.885, 160.772 95.572, 159.500 95.071 C 157.767 94.388, 157.950 94.183, 160.871 93.535 C 164.915 92.639, 179 93.808, 179 95.040 C 179 95.518, 180.575 96.205, 182.500 96.566 C 184.431 96.928, 186 97.823, 186 98.562 C 186 99.298, 186.723 100.305, 187.606 100.799 C 188.579 101.344, 189.422 103.564, 189.745 106.434 C 190.044 109.085, 190.878 111.400, 191.640 111.692 C 192.388 111.979, 193 112.841, 193 113.607 C 193 114.373, 193.850 115, 194.889 115 C 196.255 115, 196.959 114.033, 197.434 111.500 C 197.795 109.575, 198.422 108, 198.826 108 C 200.117 108, 201.775 102.276, 201.262 99.591 C 200.990 98.166, 200.130 97, 199.352 97 C 198.574 97, 197.689 96.352, 197.385 95.561 C 197.081 94.770, 195.490 93.827, 193.849 93.467 C 192.208 93.106, 190.622 92.179, 190.325 91.406 C 190.029 90.633, 188.952 90, 187.932 90 C 186.912 90, 185.273 89.143, 184.289 88.095 C 182.812 86.523, 180.755 86.130, 172.500 85.845 C 167 85.655, 160.925 85.638, 159 85.806 M 209.158 196 C 209.158 197.375, 209.385 197.938, 209.662 197.250 C 209.940 196.563, 209.940 195.438, 209.662 194.750 C 209.385 194.063, 209.158 194.625, 209.158 196" stroke="none" fill="black" fill-rule="evenodd"/>
</svg>