<svg xmlns="http://www.w3.org/2000/svg" width="300" height="300" viewBox="0 0 300 300" version="1.1">
	<path d="M 156 60.500 C 156 61.581, 154.893 62, 152.039 62 C 148.065 62, 144 64.823, 144 67.582 C 144 68.244, 143.428 69.006, 142.728 69.274 C 142.028 69.543, 141.355 70.981, 141.232 72.470 C 140.955 75.818, 140.151 77.211, 138.931 76.457 C 138.415 76.138, 138 77.690, 138 79.941 C 138 82.951, 138.403 84, 139.559 84 C 140.416 84, 140.893 84.364, 140.618 84.809 C 140.343 85.254, 141.401 86.829, 142.969 88.309 C 145.609 90.800, 146.458 91, 154.410 91 C 161.057 91, 163 90.687, 163 89.617 C 163 88.856, 163.900 87.998, 165 87.710 C 166.100 87.423, 167 86.470, 167 85.594 C 167 84.637, 167.847 84, 169.117 84 C 170.916 84, 171.136 83.588, 170.585 81.250 C 170.229 79.737, 169.665 76.561, 169.332 74.192 C 168.802 70.420, 168.982 69.817, 170.779 69.348 C 172.846 68.807, 174.566 64.724, 173.472 62.954 C 173.147 62.429, 172.234 62, 171.441 62 C 170.648 62, 170 61.325, 170 60.500 C 170 59.310, 168.556 59, 163 59 C 157.444 59, 156 59.310, 156 60.500 M 167.232 73 C 167.232 74.925, 167.438 75.713, 167.689 74.750 C 167.941 73.787, 167.941 72.213, 167.689 71.250 C 167.438 70.287, 167.232 71.075, 167.232 73 M 147 146.383 C 147 147.144, 146.055 148.014, 144.899 148.316 C 143.744 148.618, 143.065 149.296, 143.391 149.823 C 143.716 150.350, 142.411 151.075, 140.491 151.436 C 138.525 151.804, 137 152.688, 137 153.457 C 137 154.275, 135.374 155.099, 132.951 155.508 L 128.902 156.192 129.201 161.346 C 129.493 166.376, 129.584 166.515, 133 167.118 C 134.925 167.458, 136.050 167.803, 135.500 167.884 C 133.022 168.248, 137.915 169.972, 141.500 169.998 C 146.979 170.038, 150 170.969, 150 172.617 C 150 173.377, 150.885 174, 151.966 174 C 153.580 174, 154.055 174.932, 154.624 179.224 C 155.144 183.146, 155.509 183.956, 156.088 182.474 C 156.597 181.171, 156.883 182.454, 156.930 186.250 C 156.984 190.726, 156.668 192, 155.500 192 C 154.391 192, 154 193.163, 154 196.465 C 154 199.906, 153.542 201.175, 152 202 C 150.719 202.686, 150 204.094, 150 205.919 C 150 207.939, 149.411 208.921, 147.971 209.297 C 146.856 209.589, 146.009 210.204, 146.090 210.664 C 146.634 213.758, 145.674 215.656, 142.954 216.860 C 140.881 217.778, 139.723 219.133, 139.329 221.104 C 139.011 222.697, 138.131 224, 137.375 224 C 136.619 224, 136 224.717, 136 225.594 C 136 226.470, 135.100 227.423, 134 227.710 C 132.900 227.998, 132 228.803, 132 229.500 C 132 230.197, 131.192 230.978, 130.204 231.236 C 128.894 231.579, 128.342 232.836, 128.162 235.880 C 128.027 238.176, 128.174 240.473, 128.490 240.984 C 129.300 242.294, 132 241.070, 132 239.393 C 132 238.627, 132.627 238, 133.393 238 C 134.159 238, 135.045 237.325, 135.362 236.500 C 135.678 235.675, 136.574 235, 137.352 235 C 138.130 235, 139.002 234.100, 139.290 233 C 139.577 231.900, 140.530 231, 141.406 231 C 142.283 231, 143 230.325, 143 229.500 C 143 228.675, 143.626 228, 144.392 228 C 145.157 228, 146.066 226.875, 146.411 225.500 C 146.756 224.125, 147.705 223, 148.519 223 C 149.334 223, 150 222.425, 150 221.722 C 150 221.019, 150.900 219.674, 152 218.732 C 153.100 217.790, 154 216.115, 154 215.010 C 154 213.904, 154.639 213, 155.421 213 C 156.202 213, 157.137 211.653, 157.499 210.006 C 157.860 208.359, 158.760 206.672, 159.498 206.256 C 160.236 205.840, 160.989 203.925, 161.170 202 C 161.357 200.012, 162.004 198.596, 162.667 198.722 C 163.423 198.866, 164.067 196.397, 164.495 191.722 C 165.407 181.741, 164.832 173.434, 163.250 173.750 C 162.442 173.912, 162 172.774, 162 170.535 C 162 168.175, 161.404 166.752, 160.132 166.071 C 157.247 164.527, 158.482 160.273, 162.041 159.491 C 164.116 159.035, 165.038 158.105, 165.500 156 C 165.969 153.863, 166.880 152.966, 169.065 152.486 C 172.059 151.828, 173.223 149, 170.500 149 C 169.667 149, 169 148.111, 169 147 C 169 145.121, 168.333 145, 158 145 C 149.301 145, 147 145.289, 147 146.383" stroke="none" fill="black" fill-rule="evenodd"/>
</svg>