<svg xmlns="http://www.w3.org/2000/svg" width="300" height="300" viewBox="0 0 300 300" version="1.1">
	<path d="M 141.625 52.125 C 141.281 53.844, 141 59.469, 141 64.625 C 141 72.292, 140.727 74, 139.500 74 C 138.667 74, 138 74.889, 138 76 C 138 77.932, 137.333 78, 118.500 78 C 103.574 78, 98.997 77.707, 98.986 76.750 C 98.979 76.063, 98.701 74.487, 98.370 73.250 C 97.883 71.435, 98.176 71, 99.883 71 C 101.686 71, 102 70.407, 102 67 C 102 64.111, 101.583 63, 100.500 63 C 99.675 63, 99 62.325, 99 61.500 C 99 60.667, 98.111 60, 97 60 C 95.889 60, 95 59.333, 95 58.500 C 95 57.667, 94.111 57, 93 57 C 91.381 57, 91 57.667, 91 60.500 C 91 62.944, 90.548 64, 89.500 64 C 88.452 64, 88 65.056, 88 67.500 C 88 69.944, 88.452 71, 89.500 71 C 90.548 71, 91 72.056, 91 74.500 C 91 76.944, 90.548 78, 89.500 78 C 88.675 78, 88 78.675, 88 79.500 C 88 80.725, 86.302 81.002, 78.750 81.009 C 65.996 81.021, 59 81.953, 59 83.639 C 59 84.622, 57.472 85, 53.500 85 C 48.667 85, 48 85.242, 48 87 C 48 88.938, 48.667 89, 69.500 89 C 87.139 89, 91 89.248, 91 90.383 C 91 91.144, 91.900 92.002, 93 92.290 C 94.763 92.751, 95 93.654, 95 99.906 C 95 105.431, 95.320 107, 96.448 107 C 97.489 107, 97.980 108.472, 98.198 112.241 C 98.533 118.057, 99.435 118.704, 105.600 117.547 C 108.969 116.915, 110.530 114, 107.500 114 C 106.675 114, 106 113.283, 106 112.406 C 106 111.530, 105.100 110.577, 104 110.290 C 102.155 109.807, 102 108.926, 102 98.883 C 102 90.247, 102.288 88, 103.393 88 C 104.159 88, 105.045 87.325, 105.362 86.500 C 105.831 85.277, 108.252 85, 118.469 85 C 128.941 85, 131 84.754, 131 83.500 C 131 82.452, 132.056 82, 134.500 82 L 138 82 138 86.966 L 138 91.931 133 92.594 C 127.375 93.341, 125.813 96, 131 96 C 133.762 96, 134 96.278, 134 99.500 C 134 101.820, 133.532 103, 132.611 103 C 131.816 103, 130.942 104.495, 130.566 106.500 C 130.173 108.595, 129.325 110, 128.455 110 C 127.655 110, 127 110.900, 127 112 C 127 113.111, 126.333 114, 125.500 114 C 124.308 114, 124 115.455, 124 121.094 C 124 127.346, 123.763 128.249, 122 128.710 C 120.900 128.998, 120 129.856, 120 130.617 C 120 131.627, 118.516 132, 114.500 132 C 110.278 132, 109 132.348, 109 133.500 C 109 134.325, 108.283 135, 107.406 135 C 106.530 135, 105.577 135.900, 105.290 137 C 105.002 138.100, 104.144 139, 103.383 139 C 102.436 139, 102 140.261, 102 143 C 102 145.889, 101.583 147, 100.500 147 C 99.675 147, 99 147.675, 99 148.500 C 99 149.333, 98.111 150, 97 150 C 95.178 150, 95 149.333, 95 142.500 C 95 136.500, 94.700 135, 93.500 135 C 92.675 135, 92 134.325, 92 133.500 C 92 132.567, 91.056 132, 89.500 132 C 87.944 132, 87 132.567, 87 133.500 C 87 134.325, 86.325 135, 85.500 135 C 84.417 135, 84 136.111, 84 139 C 84 141.727, 84.438 143, 85.375 143 C 87.176 143, 88 147.432, 88 157.125 C 88 163.458, 88.294 165, 89.500 165 C 90.633 165, 91 166.222, 91 170 L 91 175 94.383 175 C 98.002 175, 98.958 173.495, 98.986 167.750 C 98.995 165.978, 99.534 165, 100.500 165 C 101.652 165, 102 163.722, 102 159.500 C 102 154.667, 102.242 154, 104 154 C 105.333 154, 106 153.333, 106 152 C 106 150.889, 106.667 150, 107.500 150 C 108.333 150, 109 149.111, 109 148 C 109 146.667, 109.667 146, 111 146 C 112.111 146, 113 145.333, 113 144.500 C 113 143.667, 113.889 143, 115 143 C 116.100 143, 117 142.374, 117 141.608 C 117 139.891, 121.925 138.525, 123.269 139.869 C 123.881 140.481, 123.978 145.194, 123.526 152.425 C 122.969 161.341, 122.481 164, 121.401 164 C 120.334 164, 120 165.657, 120 170.955 L 120 177.909 116.500 178.566 C 114.495 178.942, 113 179.816, 113 180.611 C 113 181.539, 111.806 182, 109.406 182 C 106.654 182, 105.690 182.468, 105.290 184 C 104.848 185.688, 103.926 186, 99.383 186 C 95.265 186, 94 186.352, 94 187.500 C 94 188.575, 92.903 189, 90.125 189 C 84.228 189, 80 190.096, 80 191.625 C 80 192.455, 78.910 193.005, 77.250 193.014 C 72.968 193.035, 70 194.101, 70 195.617 C 70 196.564, 68.739 197, 66 197 C 63.111 197, 62 197.417, 62 198.500 C 62 199.325, 61.325 200, 60.500 200 C 59.667 200, 59 200.889, 59 202 C 59 203.111, 58.333 204, 57.500 204 C 55.552 204, 55.552 206.614, 57.500 207.362 C 58.325 207.678, 59 208.626, 59 209.469 C 59 210.552, 60.024 211, 62.500 211 C 64.944 211, 66 210.548, 66 209.500 C 66 208.435, 67.087 207.997, 69.750 207.991 C 77.378 207.974, 84 206.751, 84 205.361 C 84 204.472, 85.215 204, 87.500 204 C 89.848 204, 91 203.535, 91 202.588 C 91 201.720, 92.541 200.915, 95 200.500 C 97.459 200.085, 99 199.280, 99 198.412 C 99 197.383, 100.365 197, 104.031 197 C 107.581 197, 109.232 196.558, 109.638 195.500 C 110.636 192.901, 113.001 193.784, 112.986 196.750 C 112.965 201.032, 111.899 204, 110.383 204 C 109.469 204, 109 205.187, 109 207.500 C 109 209.820, 108.532 211, 107.611 211 C 106.816 211, 105.942 212.495, 105.566 214.500 C 105.173 216.595, 104.325 218, 103.455 218 C 102.459 218, 102 219.104, 102 221.500 C 102 224.036, 101.561 225, 100.406 225 C 99.530 225, 98.577 225.900, 98.290 227 C 98.002 228.100, 97.144 229, 96.383 229 C 95.623 229, 95 229.900, 95 231 C 95 232.333, 94.333 233, 93 233 C 91.667 233, 91 233.667, 91 235 C 91 236.100, 90.374 237, 89.608 237 C 87.876 237, 86.753 241.169, 87.589 244.500 C 88.246 247.118, 91 248.015, 91 245.611 C 91 244.816, 92.495 243.942, 94.500 243.566 C 96.595 243.173, 98 242.325, 98 241.455 C 98 240.655, 98.900 240, 100 240 C 101.606 240, 102 239.333, 102 236.617 C 102 234.074, 102.497 233.103, 104 232.710 C 105.100 232.423, 106 231.470, 106 230.594 C 106 229.717, 106.675 229, 107.500 229 C 108.548 229, 109 227.944, 109 225.500 C 109 222.667, 109.381 222, 111 222 C 112.619 222, 113 221.333, 113 218.500 C 113 216.152, 113.465 215, 114.412 215 C 115.280 215, 116.085 213.459, 116.500 211 C 116.915 208.541, 117.720 207, 118.588 207 C 119.616 207, 120 205.639, 120 202 C 120 198.410, 120.390 197, 121.383 197 C 122.144 197, 123.002 196.100, 123.290 195 C 123.577 193.900, 124.530 193, 125.406 193 C 126.283 193, 127 192.325, 127 191.500 C 127 190.675, 127.717 190, 128.594 190 C 129.470 190, 130.423 189.100, 130.710 188 C 131.103 186.497, 132.074 186, 134.617 186 C 136.821 186, 138 185.521, 138 184.625 C 138 183.096, 142.228 182, 148.125 182 C 150.903 182, 152 181.575, 152 180.500 C 152 179.477, 153.034 178.996, 155.250 178.986 C 160 178.966, 163 177.959, 163 176.383 C 163 175.373, 164.484 175, 168.500 175 C 172.722 175, 174 174.652, 174 173.500 C 174 172.477, 175.034 171.996, 177.250 171.986 C 182 171.966, 185 170.959, 185 169.383 C 185 168.308, 187.004 168, 194 168 C 200.954 168, 203 167.689, 203 166.630 C 203 165.746, 204.614 165.078, 207.549 164.747 C 210.052 164.465, 212.354 163.979, 212.667 163.667 C 212.979 163.354, 213.465 161.052, 213.747 158.549 L 214.260 154 208.630 154 C 204.292 154, 203 154.344, 203 155.500 C 203 156.652, 201.722 157, 197.500 157 C 193.484 157, 192 157.373, 192 158.383 C 192 160.103, 188.923 160.969, 182.750 160.986 C 179.201 160.997, 178 161.379, 178 162.500 C 178 163.605, 176.847 164, 173.625 164 C 167.259 164, 163 165.052, 163 166.625 C 163 167.625, 161.500 168, 157.500 168 C 153.484 168, 152 168.373, 152 169.383 C 152 170.669, 149.160 171.955, 146.250 171.986 C 145.563 171.994, 145 171.100, 145 170 C 145 168.667, 145.667 168, 147 168 C 148.333 168, 149 167.333, 149 166 C 149 164.889, 149.667 164, 150.500 164 C 151.325 164, 152 163.325, 152 162.500 C 152 161.667, 152.889 161, 154 161 C 155.619 161, 156 160.333, 156 157.500 C 156 154.667, 156.381 154, 158 154 C 159.333 154, 160 153.333, 160 152 C 160 150.900, 160.630 150, 161.399 150 C 162.966 150, 163.751 143.971, 163.157 136.500 C 162.808 132.119, 162.708 132, 159.399 132 C 157.182 132, 156 131.522, 156 130.625 C 156 128.850, 151.589 128, 142.375 128 L 135 128 135 123 L 135 118 138.500 118 C 140.944 118, 142 118.452, 142 119.500 C 142 120.325, 142.675 121, 143.500 121 C 144.548 121, 145 119.944, 145 117.500 C 145 114.667, 144.619 114, 143 114 C 141.889 114, 141 113.333, 141 112.500 C 141 111.675, 140.325 111, 139.500 111 C 138.417 111, 138 109.889, 138 107 C 138 103.667, 138.333 103, 140 103 C 141.727 103, 142 102.333, 142 98.117 C 142 92.845, 142.950 92.045, 149.250 92.014 C 151.022 92.005, 152 91.466, 152 90.500 C 152 89.667, 152.889 89, 154 89 C 155.100 89, 156 88.345, 156 87.545 C 156 86.682, 157.385 85.831, 159.406 85.452 C 162.307 84.907, 162.907 84.307, 163.452 81.406 C 163.803 79.533, 164.520 78, 165.045 78 C 165.570 78, 166 77.377, 166 76.617 C 166 74.790, 162.865 74.030, 155.250 74.014 L 149 74 149 70.500 C 149 68.056, 149.452 67, 150.500 67 C 151.333 67, 152 66.111, 152 65 C 152 63.889, 151.333 63, 150.500 63 C 149.310 63, 149 61.556, 149 56 L 149 49 145.625 49 C 142.645 49, 142.177 49.366, 141.625 52.125 M 149 83.500 C 149 84.325, 149.675 85, 150.500 85 C 151.325 85, 152 84.325, 152 83.500 C 152 82.675, 151.325 82, 150.500 82 C 149.675 82, 149 82.675, 149 83.500 M 138 137.500 C 138 138.325, 137.330 139, 136.512 139 C 135.549 139, 134.798 140.412, 134.384 143 C 133.998 145.413, 133.200 147, 132.372 147 C 131.307 147, 130.963 149.349, 130.833 157.500 C 130.742 163.275, 130.629 168.781, 130.583 169.736 C 130.537 170.691, 131.287 171.624, 132.250 171.810 C 133.462 172.043, 134 171.510, 134 170.073 C 134 168.667, 134.643 168, 136 168 C 137.333 168, 138 167.333, 138 166 C 138 164.889, 138.667 164, 139.500 164 C 140.325 164, 141 163.325, 141 162.500 C 141 161.667, 141.889 161, 143 161 C 144.333 161, 145 160.333, 145 159 C 145 157.667, 145.667 157, 147 157 C 148.333 157, 149 156.333, 149 155 C 149 153.900, 149.639 153, 150.421 153 C 151.202 153, 152.138 151.650, 152.500 150 C 152.862 148.350, 153.798 147, 154.579 147 C 155.570 147, 156 145.789, 156 143 L 156 139 148.500 139 C 142.500 139, 141 138.700, 141 137.500 C 141 136.675, 140.325 136, 139.500 136 C 138.675 136, 138 136.675, 138 137.500 M 127.014 203.250 C 127.038 209.069, 127.996 210.999, 130.867 211.014 C 135.040 211.035, 138 212.115, 138 213.617 C 138 214.610, 139.410 215, 143 215 C 146.639 215, 148 215.384, 148 216.412 C 148 217.280, 149.541 218.085, 152 218.500 C 154.459 218.915, 156 219.720, 156 220.588 C 156 221.670, 157.638 222, 163 222 C 168.273 222, 170 222.339, 170 223.375 C 170 224.746, 174.120 226, 178.625 226 C 180.069 226, 181 226.588, 181 227.500 C 181 228.652, 182.278 229, 186.500 229 C 191.333 229, 192 229.242, 192 231 C 192 232.810, 192.667 233, 199 233 C 204.556 233, 206 233.310, 206 234.500 C 206 235.412, 206.931 236, 208.375 236 C 212.880 236, 217 237.254, 217 238.625 C 217 239.625, 218.500 240, 222.500 240 C 226.516 240, 228 240.373, 228 241.383 C 228 242.959, 231 243.966, 235.750 243.986 C 237.850 243.995, 239 244.491, 239 245.389 C 239 246.184, 240.495 247.058, 242.500 247.434 C 244.595 247.827, 246 248.675, 246 249.545 C 246 250.541, 247.104 251, 249.500 251 C 252.917 251, 253 250.905, 253 247 C 253 244.111, 252.583 243, 251.500 243 C 250.675 243, 250 242.325, 250 241.500 C 250 240.417, 248.889 240, 246 240 C 243.261 240, 242 239.564, 242 238.617 C 242 237.101, 239.032 236.035, 234.750 236.014 C 232.978 236.005, 232 235.466, 232 234.500 C 232 233.352, 230.735 233, 226.617 233 C 222.074 233, 221.152 232.688, 220.710 231 C 220.274 229.330, 219.346 229, 215.094 229 C 211.233 229, 210 228.637, 210 227.500 C 210 226.588, 209.069 226, 207.625 226 C 203.120 226, 199 224.746, 199 223.375 C 199 222.375, 197.500 222, 193.500 222 C 189.484 222, 188 221.627, 188 220.617 C 188 218.897, 184.923 218.031, 178.750 218.014 C 175.402 218.004, 174 217.596, 174 216.630 C 174 215.742, 172.365 215.076, 169.349 214.736 C 166.551 214.420, 164.340 213.572, 163.799 212.606 C 163.163 211.469, 161.456 211, 157.950 211 C 154.354 211, 153 210.614, 153 209.588 C 153 208.720, 151.459 207.915, 149 207.500 C 146.541 207.085, 145 206.280, 145 205.412 C 145 204.465, 143.848 204, 141.500 204 C 139.187 204, 138 203.531, 138 202.617 C 138 201.041, 135 200.034, 130.250 200.014 C 127.244 200.001, 127.001 200.244, 127.014 203.250" stroke="none" fill="black" fill-rule="evenodd"/>
</svg>