<svg xmlns="http://www.w3.org/2000/svg" width="300" height="300" viewBox="0 0 300 300" version="1.1">
	<path d="M 106.566 26.500 C 106.205 28.425, 105.480 30, 104.955 30 C 103.759 30, 103.689 32.715, 104.873 33.167 C 105.354 33.350, 106.073 40.813, 106.471 49.750 L 107.194 66 85.597 66 C 67.836 66, 64 66.247, 64 67.389 C 64 68.178, 62.522 69.055, 60.572 69.420 C 57.804 69.940, 57.020 70.634, 56.493 73.032 C 56.134 74.664, 55.202 76, 54.421 76 C 53.639 76, 53 76.900, 53 78 C 53 79.733, 53.667 80, 58 80 C 61.778 80, 63 79.633, 63 78.500 C 63 77.212, 66.111 77, 85 77 C 106.333 77, 107 77.061, 107 79 C 107 80.111, 107.667 81, 108.500 81 C 109.466 81, 110.005 81.978, 110.014 83.750 C 110.035 88.032, 111.101 91, 112.617 91 C 113.564 91, 114 92.261, 114 95 C 114 97.889, 114.417 99, 115.500 99 C 116.325 99, 117 99.675, 117 100.500 C 117 101.652, 118.278 102, 122.500 102 C 126.722 102, 128 101.652, 128 100.500 C 128 99.675, 127.325 99, 126.500 99 C 125.667 99, 125 98.111, 125 97 C 125 95.667, 124.333 95, 123 95 C 121.667 95, 121 94.333, 121 93 C 121 91.889, 120.333 91, 119.500 91 C 118.310 91, 118 89.556, 118 84 C 118 78.707, 118.337 77, 119.383 77 C 120.144 77, 121.014 76.053, 121.317 74.895 C 121.620 73.736, 122.460 72.985, 123.184 73.225 C 124.106 73.531, 124.587 76.258, 124.789 82.331 C 125.016 89.136, 125.392 91, 126.539 91 C 127.542 91, 128 92.097, 128 94.500 C 128 97.333, 128.381 98, 130 98 C 131.850 98, 132 98.667, 132 106.861 L 132 115.721 126.750 116.352 C 123.862 116.699, 119.813 116.987, 117.750 116.991 C 115.087 116.997, 114 117.435, 114 118.500 C 114 119.548, 112.944 120, 110.500 120 C 107.964 120, 107 120.439, 107 121.594 C 107 122.470, 106.100 123.423, 105 123.710 C 103.900 123.998, 103 124.803, 103 125.500 C 103 126.197, 102.100 127.002, 101 127.290 C 99.544 127.671, 99 128.654, 99 130.906 C 99 133.540, 99.372 134, 101.500 134 C 103.056 134, 104 133.433, 104 132.500 C 104 131.513, 104.987 131, 106.883 131 C 108.926 131, 109.919 130.417, 110.290 129 C 110.751 127.237, 111.654 127, 117.906 127 C 123.730 127, 125 127.285, 125 128.594 C 125 129.470, 124.100 130.423, 123 130.710 C 121.497 131.103, 121 132.074, 121 134.617 C 121 137.333, 121.394 138, 123 138 C 124.100 138, 125 137.377, 125 136.617 C 125 135.856, 125.900 134.998, 127 134.710 C 128.100 134.423, 129 133.470, 129 132.594 C 129 131.717, 129.675 131, 130.500 131 C 131.333 131, 132 130.111, 132 129 C 132 127.333, 132.667 127, 136 127 C 138.889 127, 140 126.583, 140 125.500 C 140 124.500, 141 124, 143 124 C 145 124, 146 124.500, 146 125.500 C 146 126.325, 145.325 127, 144.500 127 C 143.675 127, 143 127.717, 143 128.594 C 143 129.470, 142.100 130.423, 141 130.710 C 139.900 130.998, 139 131.806, 139 132.505 C 139 133.205, 137.425 134.073, 135.500 134.434 C 133.405 134.827, 132 135.675, 132 136.545 C 132 137.345, 131.325 138, 130.500 138 C 129.675 138, 129 138.717, 129 139.594 C 129 140.470, 128.100 141.423, 127 141.710 C 125.900 141.998, 125 142.856, 125 143.617 C 125 144.377, 124.100 145, 123 145 C 121.900 145, 121 145.623, 121 146.383 C 121 147.144, 120.100 148.002, 119 148.290 C 117.900 148.577, 117 149.494, 117 150.327 C 117 151.196, 115.722 152.122, 114 152.500 C 112.350 152.862, 111 153.798, 111 154.579 C 111 155.361, 110.100 156, 109 156 C 107.889 156, 107 156.667, 107 157.500 C 107 158.333, 106.111 159, 105 159 C 103.667 159, 103 159.667, 103 161 C 103 162.163, 102.333 163, 101.406 163 C 100.530 163, 99.577 163.900, 99.290 165 C 99.002 166.100, 98.144 167, 97.383 167 C 96.623 167, 96 167.675, 96 168.500 C 96 169.333, 95.111 170, 94 170 C 92.667 170, 92 170.667, 92 172 C 92 173.111, 91.333 174, 90.500 174 C 89.675 174, 89 174.675, 89 175.500 C 89 176.333, 88.111 177, 87 177 C 85.127 177, 85 176.333, 85 166.500 C 85 157.833, 85.262 156, 86.500 156 C 87.325 156, 88 155.325, 88 154.500 C 88 153.675, 87.550 153, 87 153 C 86.450 153, 86 152.100, 86 151 C 86 149.889, 86.667 149, 87.500 149 C 88.652 149, 89 147.722, 89 143.500 C 89 139.278, 89.348 138, 90.500 138 C 91.565 138, 92.003 136.913, 92.009 134.250 C 92.026 126.622, 93.249 120, 94.639 120 C 95.388 120, 96 119.100, 96 118 C 96 116.889, 96.667 116, 97.500 116 C 98.325 116, 99 115.325, 99 114.500 C 99 113.675, 98.325 113, 97.500 113 C 96.654 113, 96 112.105, 96 110.948 C 96 109.100, 95.476 108.926, 90.750 109.198 L 85.500 109.500 85.190 113.250 C 84.998 115.568, 84.366 117, 83.536 117 C 82.542 117, 82.006 119.732, 81.477 127.500 C 80.937 135.417, 80.422 138, 79.381 138 C 78.262 138, 78 141.135, 78 154.500 C 78 168.500, 77.773 171, 76.500 171 C 75.509 171, 75 171.991, 75 173.921 C 75 176.353, 75.502 176.951, 78 177.500 C 81.042 178.168, 82.255 181, 79.500 181 C 78.667 181, 78 181.889, 78 183 C 78 184.333, 77.333 185, 76 185 C 74.889 185, 74 185.667, 74 186.500 C 74 187.325, 73.325 188, 72.500 188 C 71.667 188, 71 188.889, 71 190 C 71 191.333, 70.333 192, 69 192 C 67.667 192, 67 192.667, 67 194 C 67 195.111, 66.333 196, 65.500 196 C 64.675 196, 64 196.675, 64 197.500 C 64 198.333, 63.111 199, 62 199 C 60.242 199, 60 199.667, 60 204.500 C 60 208.722, 60.348 210, 61.500 210 C 62.325 210, 63 209.325, 63 208.500 C 63 207.667, 63.889 207, 65 207 C 66.333 207, 67 206.333, 67 205 C 67 203.667, 67.667 203, 69 203 C 70.333 203, 71 202.333, 71 201 C 71 199.889, 71.667 199, 72.500 199 C 73.325 199, 74 198.325, 74 197.500 C 74 196.667, 74.889 196, 76 196 C 77.333 196, 78 195.333, 78 194 C 78 192.667, 78.667 192, 80 192 C 81.333 192, 82 191.333, 82 190 C 82 188.889, 82.667 188, 83.500 188 C 84.325 188, 85 187.325, 85 186.500 C 85 185.667, 85.889 185, 87 185 C 88.333 185, 89 184.333, 89 183 C 89 181.381, 89.667 181, 92.500 181 C 94.944 181, 96 180.548, 96 179.500 C 96 178.675, 96.717 178, 97.594 178 C 98.470 178, 99.423 177.100, 99.710 176 C 99.998 174.900, 100.803 174, 101.500 174 C 102.197 174, 103.002 173.100, 103.290 172 C 103.577 170.900, 104.530 170, 105.406 170 C 106.283 170, 107 169.325, 107 168.500 C 107 167.675, 107.623 167, 108.383 167 C 109.144 167, 110.002 166.100, 110.290 165 C 110.665 163.565, 111.654 163, 113.790 163 C 115.926 163, 116.914 162.435, 117.290 161 C 117.577 159.900, 118.530 159, 119.406 159 C 120.283 159, 121 158.325, 121 157.500 C 121 156.667, 121.889 156, 123 156 C 124.100 156, 125 155.377, 125 154.617 C 125 153.856, 125.900 152.998, 127 152.710 C 128.100 152.423, 129 151.470, 129 150.594 C 129 149.717, 129.675 149, 130.500 149 C 131.333 149, 132 148.111, 132 147 C 132 145.667, 132.667 145, 134 145 C 135.100 145, 136 144.345, 136 143.545 C 136 142.675, 137.405 141.827, 139.500 141.434 C 141.505 141.058, 143 140.184, 143 139.389 C 143 138.625, 143.623 138, 144.383 138 C 145.144 138, 146.002 137.100, 146.290 136 C 146.671 134.544, 147.654 134, 149.906 134 C 151.990 134, 153 133.510, 153 132.500 C 153 131.348, 154.278 131, 158.500 131 L 164 131 164 134.500 C 164 137.933, 164.079 138, 168.117 138 C 171.898 138, 172.184 137.817, 171.630 135.750 C 171.299 134.512, 171.021 132.938, 171.014 132.250 C 171.006 131.563, 170.325 131, 169.500 131 C 168.452 131, 168 129.944, 168 127.500 C 168 124.167, 168.167 124, 171.500 124 C 173.944 124, 175 124.452, 175 125.500 C 175 126.333, 175.889 127, 177 127 C 178.111 127, 179 126.333, 179 125.500 C 179 124.675, 179.675 124, 180.500 124 C 181.325 124, 182 124.675, 182 125.500 C 182 126.333, 182.889 127, 184 127 C 185.111 127, 186 126.333, 186 125.500 C 186 124.675, 186.675 124, 187.500 124 C 188.325 124, 189 124.675, 189 125.500 C 189 126.583, 190.111 127, 193 127 C 196.912 127, 197 127.078, 197 130.531 C 197 132.719, 196.440 134.278, 195.527 134.628 C 194.717 134.939, 193.767 136.725, 193.416 138.597 C 193.054 140.527, 192.177 142, 191.389 142 C 190.625 142, 190 142.675, 190 143.500 C 190 144.333, 189.111 145, 188 145 C 186.667 145, 186 145.667, 186 147 C 186 148.758, 185.333 149, 180.500 149 C 176.354 149, 175 149.358, 175 150.455 C 175 151.325, 176.405 152.173, 178.500 152.566 C 180.505 152.942, 182 153.816, 182 154.611 C 182 155.375, 182.900 156, 184 156 C 185.111 156, 186 155.333, 186 154.500 C 186 153.452, 187.056 153, 189.500 153 C 192.333 153, 193 152.619, 193 151 C 193 149.667, 193.667 149, 195 149 C 196.333 149, 197 148.333, 197 147 C 197 145.889, 197.667 145, 198.500 145 C 199.325 145, 200 144.325, 200 143.500 C 200 142.667, 200.889 142, 202 142 C 203.667 142, 204 141.333, 204 138 C 204 135.187, 204.427 134, 205.439 134 C 206.374 134, 207.110 132.450, 207.542 129.571 C 208.261 124.775, 207.694 123, 205.441 123 C 204.648 123, 204 122.325, 204 121.500 C 204 120.417, 202.889 120, 200 120 C 197.288 120, 196 119.561, 196 118.636 C 196 116.542, 189.189 116, 162.860 116 L 139 116 139 102 C 139 90.610, 138.737 88, 137.588 88 C 136.720 88, 135.915 86.459, 135.500 84 C 135.085 81.541, 134.280 80, 133.412 80 C 132.635 80, 132 79.100, 132 78 C 132 76.889, 131.333 76, 130.500 76 C 129.675 76, 129 75.550, 129 75 C 129 73.721, 126.997 73.909, 146.750 73.331 L 164 72.827 164 79.913 C 164 85.546, 163.692 87, 162.500 87 C 161.417 87, 161 88.111, 161 91 C 161 94.905, 161.083 95, 164.500 95 L 168 95 168 89.500 C 168 85.500, 168.375 84, 169.375 84 C 170.746 84, 172 79.880, 172 75.375 C 172 73.026, 172.114 73, 182.500 73 C 191.167 73, 193 73.262, 193 74.500 C 193 75.325, 192.325 76, 191.500 76 C 190.567 76, 190 76.944, 190 78.500 C 190 80.564, 190.480 80.998, 192.750 80.986 C 197.032 80.965, 200 79.899, 200 78.383 C 200 77.623, 200.900 77, 202 77 C 203.758 77, 204 76.333, 204 71.500 C 204 66.667, 203.758 66, 202 66 C 200.900 66, 200 65.377, 200 64.617 C 200 62.601, 196.757 62.029, 185.250 62.014 L 175 62 175 51.617 C 175 42.074, 175.162 41.191, 177 40.710 C 178.763 40.249, 179 39.346, 179 33.094 L 179 26 175.406 26 C 172.654 26, 171.690 26.468, 171.290 28 C 171.002 29.100, 170.144 30, 169.383 30 C 168.269 30, 168 32.821, 168 44.500 C 168 56.722, 167.764 59, 166.500 59 C 165.675 59, 165 59.619, 165 60.375 C 165 62.060, 160.658 63, 152.875 63 C 148.319 63, 147 63.337, 147 64.500 C 147 65.700, 145.500 66, 139.500 66 C 133.500 66, 132 65.700, 132 64.500 C 132 63.675, 131.325 63, 130.500 63 C 129.675 63, 129 63.675, 129 64.500 C 129 65.700, 127.500 66, 121.500 66 L 114 66 114 53.500 C 114 43.561, 114.282 41, 115.375 41 C 116.912 41, 118 36.766, 118 30.781 C 118 27.654, 117.576 26.702, 116 26.290 C 114.900 26.002, 114 25.144, 114 24.383 C 114 23.478, 112.830 23, 110.611 23 C 107.530 23, 107.163 23.318, 106.566 26.500 M 142 154.500 C 142 155.500, 141 156, 139 156 C 136.238 156, 136 156.278, 136 159.500 L 136 163 143 163 C 148.293 163, 150 163.337, 150 164.383 C 150 166.462, 153.280 166.971, 166.750 166.986 C 176.369 166.997, 179 167.290, 179 168.352 C 179 169.760, 189.284 170.982, 201.250 170.994 C 205.692 170.999, 207 171.341, 207 172.500 C 207 173.667, 208.333 174, 213 174 C 217.584 174, 219 174.343, 219 175.455 C 219 176.325, 220.405 177.173, 222.500 177.566 C 224.505 177.942, 226 178.816, 226 179.611 C 226 180.375, 226.675 181, 227.500 181 C 228.325 181, 229 181.675, 229 182.500 C 229 183.325, 228.381 184, 227.625 184 C 226.468 184, 225 187.984, 225 191.125 C 225 191.606, 226.523 192, 228.383 192 C 230.926 192, 231.897 191.503, 232.290 190 C 232.577 188.900, 233.530 188, 234.406 188 C 235.713 188, 236 186.738, 236 181 C 236 175.444, 235.690 174, 234.500 174 C 233.675 174, 233 173.365, 233 172.588 C 233 171.720, 231.459 170.915, 229 170.500 C 226.541 170.085, 225 169.280, 225 168.412 C 225 167.542, 223.945 166.995, 222.250 166.986 C 217.968 166.965, 215 165.899, 215 164.383 C 215 163.269, 212.179 163, 200.500 163 C 188.278 163, 186 162.764, 186 161.500 C 186 160.373, 184.795 160, 181.151 160 C 170.607 160, 161 158.738, 161 157.353 C 161 156.344, 159.218 156, 154 156 C 148.444 156, 147 155.690, 147 154.500 C 147 153.567, 146.056 153, 144.500 153 C 142.944 153, 142 153.567, 142 154.500 M 143 183 C 143 184.619, 142.333 185, 139.500 185 C 137.056 185, 136 185.452, 136 186.500 C 136 187.333, 135.111 188, 134 188 C 132.667 188, 132 188.667, 132 190 C 132 191.619, 131.333 192, 128.500 192 C 125.667 192, 125 192.381, 125 194 C 125 195.100, 124.377 196, 123.617 196 C 122.856 196, 121.998 196.900, 121.710 198 C 121.423 199.100, 120.470 200, 119.594 200 C 118.717 200, 118 200.675, 118 201.500 C 118 202.333, 117.111 203, 116 203 C 114.667 203, 114 203.667, 114 205 C 114 206.100, 113.361 207, 112.579 207 C 111.798 207, 110.872 208.304, 110.522 209.898 C 110.152 211.584, 109.073 213.009, 107.943 213.305 C 106.874 213.584, 106 214.494, 106 215.327 C 106 216.189, 104.736 217.119, 103.065 217.486 C 100.880 217.966, 99.969 218.863, 99.500 221 C 99.031 223.137, 98.120 224.034, 95.935 224.514 C 94.321 224.869, 93 225.798, 93 226.579 C 93 227.361, 92.150 228, 91.111 228 C 89.745 228, 89.041 228.967, 88.566 231.500 C 88.173 233.595, 87.325 235, 86.455 235 C 85.655 235, 85 235.623, 85 236.383 C 85 237.144, 84.100 238.002, 83 238.290 C 81.900 238.577, 81 239.530, 81 240.406 C 81 241.283, 80.325 242, 79.500 242 C 78.667 242, 78 242.889, 78 244 C 78 245.619, 77.333 246, 74.500 246 C 72.187 246, 71 246.469, 71 247.383 C 71 248.144, 70.100 249.002, 69 249.290 C 67.900 249.577, 67 250.477, 67 251.290 C 67 252.102, 66.100 253.002, 65 253.290 C 63.900 253.577, 63 254.530, 63 255.406 C 63 256.283, 62.325 257, 61.500 257 C 58.860 257, 59.897 259.730, 62.750 260.292 C 66.597 261.050, 71 260.032, 71 258.383 C 71 257.623, 71.900 257, 73 257 C 74.333 257, 75 256.333, 75 255 C 75 253.462, 75.667 253, 77.883 253 C 79.926 253, 80.919 252.417, 81.290 251 C 81.577 249.900, 82.530 249, 83.406 249 C 84.283 249, 85 248.325, 85 247.500 C 85 246.667, 85.889 246, 87 246 C 88.333 246, 89 245.333, 89 244 C 89 242.889, 89.667 242, 90.500 242 C 91.325 242, 92 241.325, 92 240.500 C 92 239.667, 92.889 239, 94 239 C 95.333 239, 96 238.333, 96 237 C 96 235.889, 96.667 235, 97.500 235 C 98.325 235, 99 234.283, 99 233.406 C 99 232.530, 99.900 231.577, 101 231.290 C 102.100 231.002, 103 230.144, 103 229.383 C 103 228.623, 103.900 228, 105 228 C 106.333 228, 107 227.333, 107 226 C 107 224.889, 107.667 224, 108.500 224 C 109.325 224, 110 223.325, 110 222.500 C 110 221.667, 110.889 221, 112 221 C 113.333 221, 114 220.333, 114 219 C 114 217.667, 114.667 217, 116 217 C 117.333 217, 118 216.333, 118 215 C 118 213.889, 118.667 213, 119.500 213 C 120.325 213, 121 212.325, 121 211.500 C 121 210.675, 121.675 210, 122.500 210 C 123.325 210, 124 209.283, 124 208.406 C 124 207.530, 124.900 206.577, 126 206.290 C 127.100 206.002, 128 205.144, 128 204.383 C 128 203.623, 128.900 203, 130 203 C 131.333 203, 132 202.333, 132 201 C 132 199.667, 132.667 199, 134 199 C 135.100 199, 136 198.377, 136 197.617 C 136 196.856, 136.900 195.998, 138 195.710 C 139.100 195.423, 140 194.470, 140 193.594 C 140 192.348, 141.092 192, 145 192 C 148.591 192, 150 191.610, 150 190.617 C 150 188.599, 154.242 188.073, 165.250 188.725 C 172.479 189.153, 175 189.651, 175 190.651 C 175 191.393, 175.900 192, 177 192 C 178.333 192, 179 191.333, 179 190 C 179 188.889, 179.667 188, 180.500 188 C 181.325 188, 182 187.325, 182 186.500 C 182 185.310, 180.556 185, 175 185 C 169.707 185, 168 184.663, 168 183.617 C 168 181.601, 164.757 181.029, 153.250 181.014 C 143.662 181.001, 143 181.129, 143 183 M 164 202.500 C 164 205.333, 164.381 206, 166 206 C 167.333 206, 168 206.667, 168 208 C 168 209.758, 168.667 210, 173.500 210 C 178.333 210, 179 210.242, 179 212 C 179 213.619, 179.667 214, 182.500 214 C 184.944 214, 186 214.452, 186 215.500 C 186 216.544, 187.050 217, 189.450 217 C 191.688 217, 193.243 217.611, 193.874 218.739 C 194.643 220.113, 196.543 220.555, 202.924 220.845 C 208.988 221.120, 211 221.559, 211 222.606 C 211 223.407, 212.011 224, 213.375 224 C 217.880 224, 222 225.254, 222 226.625 C 222 227.625, 223.500 228, 227.500 228 C 231.516 228, 233 228.373, 233 229.383 C 233 230.144, 233.900 231.002, 235 231.290 C 236.472 231.675, 237 232.654, 237 235 C 237 237.346, 236.472 238.325, 235 238.710 C 233.893 239, 233 240.074, 233 241.117 C 233 242.152, 232.377 243, 231.617 243 C 230.331 243, 229.045 245.840, 229.014 248.750 C 229.005 249.515, 230.359 250, 232.500 250 C 235.333 250, 236 249.619, 236 248 C 236 246.667, 236.667 246, 238 246 C 239.100 246, 240 245.377, 240 244.617 C 240 243.856, 240.900 242.998, 242 242.710 C 243.456 242.329, 244 241.346, 244 239.094 C 244 237.010, 244.490 236, 245.500 236 C 246.583 236, 247 234.889, 247 232 C 247 229.111, 246.583 228, 245.500 228 C 244.667 228, 244 227.111, 244 226 C 244 224.667, 243.333 224, 242 224 C 240.889 224, 240 223.333, 240 222.500 C 240 221.348, 238.722 221, 234.500 221 C 229.667 221, 229 220.758, 229 219 C 229 217.190, 228.333 217, 222 217 C 216.444 217, 215 216.690, 215 215.500 C 215 214.588, 214.069 214, 212.625 214 C 208.120 214, 204 212.746, 204 211.375 C 204 210.375, 202.500 210, 198.500 210 C 193.667 210, 193 209.758, 193 208 C 193 206.381, 192.333 206, 189.500 206 C 187.056 206, 186 205.548, 186 204.500 C 186 203.452, 184.944 203, 182.500 203 C 179.667 203, 179 202.619, 179 201 C 179 199.178, 178.333 199, 171.500 199 L 164 199 164 202.500 M 132 226.500 C 132 233.922, 132.303 236, 133.383 236 C 135.060 236, 135.968 239.053, 135.986 244.750 C 135.996 247.855, 136.404 249, 137.500 249 C 138.728 249, 139 250.722, 139 258.500 C 139 266.146, 139.284 268, 140.455 268 C 141.325 268, 142.173 269.405, 142.566 271.500 C 143.163 274.682, 143.530 275, 146.611 275 C 149.333 275, 150 274.607, 150 273 C 150 271.889, 150.667 271, 151.500 271 C 152.548 271, 153 269.944, 153 267.500 C 153 265.056, 152.548 264, 151.500 264 C 150.278 264, 150 262.333, 150 255 C 150 248.004, 150.308 246, 151.383 246 C 152.144 246, 153.002 245.100, 153.290 244 C 153.577 242.900, 154.530 242, 155.406 242 C 156.283 242, 157 241.371, 157 240.603 C 157 239.543, 159.062 239.120, 165.537 238.853 C 171.018 238.626, 174.354 238.046, 174.857 237.231 C 175.327 236.472, 178.147 235.870, 181.888 235.731 C 186.953 235.544, 188.321 235.831, 189.117 237.250 C 189.657 238.213, 190.752 239, 191.550 239 C 192.347 239, 193 239.689, 193 240.531 C 193 241.374, 193.675 242.322, 194.500 242.638 C 195.325 242.955, 196 243.841, 196 244.607 C 196 245.373, 195.325 246, 194.500 246 C 193.452 246, 193 247.056, 193 249.500 C 193 251.944, 192.548 253, 191.500 253 C 190.667 253, 190 253.889, 190 255 C 190 256.333, 189.333 257, 188 257 C 186.889 257, 186 257.667, 186 258.500 C 186 259.325, 185.283 260, 184.406 260 C 183.530 260, 182.577 260.900, 182.290 262 C 181.897 263.503, 180.926 264, 178.383 264 C 176.089 264, 175 264.468, 175 265.455 C 175 266.325, 173.595 267.173, 171.500 267.566 C 169.495 267.942, 168 268.816, 168 269.611 C 168 270.375, 167.073 271, 165.940 271 C 164.170 271, 163.923 271.530, 164.190 274.750 C 164.477 278.219, 164.757 278.524, 167.933 278.827 C 173.024 279.312, 178 278.139, 178 276.455 C 178 275.645, 178.928 275, 180.094 275 C 181.346 275, 182.397 274.197, 182.710 273 C 183.081 271.583, 184.074 271, 186.117 271 C 188.013 271, 189 270.487, 189 269.500 C 189 268.667, 189.889 268, 191 268 C 192.333 268, 193 267.333, 193 266 C 193 264.393, 193.667 264, 196.389 264 C 199.456 264, 199.838 263.675, 200.420 260.572 C 200.940 257.804, 201.634 257.020, 204.032 256.493 C 207.092 255.821, 208.164 254, 205.500 254 C 204.272 254, 204 252.278, 204 244.500 C 204 237.078, 203.697 235, 202.617 235 C 201.856 235, 200.998 234.100, 200.710 233 C 200.423 231.900, 199.470 231, 198.594 231 C 197.717 231, 197 230.325, 197 229.500 C 197 228.217, 194.111 228, 177 228 C 160.166 228, 157 228.230, 157 229.455 C 157 230.325, 155.595 231.173, 153.500 231.566 C 151.495 231.942, 150 232.816, 150 233.611 C 150 234.532, 148.820 235, 146.500 235 C 143.167 235, 143 234.833, 143 231.500 C 143 228.167, 143.167 228, 146.500 228 C 150.368 228, 151.456 225.614, 148 224.710 C 146.900 224.423, 146 223.470, 146 222.594 C 146 221.439, 145.036 221, 142.500 221 C 140.187 221, 139 220.531, 139 219.617 C 139 218.331, 136.160 217.045, 133.250 217.014 C 132.337 217.004, 132 219.559, 132 226.500" stroke="none" fill="black" fill-rule="evenodd"/>
</svg>