<svg xmlns="http://www.w3.org/2000/svg" width="300" height="300" viewBox="0 0 300 300" version="1.1">
	<path d="M 80.250 51.685 C 78.532 52.032, 78 52.832, 78 55.070 C 78 56.905, 77.481 58, 76.609 58 C 75.550 58, 75.048 60.618, 74.500 69 L 73.781 80 70.030 80 C 62.999 80, 57 81.214, 57 82.636 C 57 83.386, 56.100 84, 55 84 C 53.242 84, 53 84.667, 53 89.500 L 53 95 56.500 95 C 59.333 95, 60 94.619, 60 93 C 60 91.889, 60.667 91, 61.500 91 C 62.325 91, 63 90.325, 63 89.500 C 63 88.348, 64.278 88, 68.500 88 L 74 88 74.009 94.750 C 74.022 105.150, 75.067 112, 76.639 112 C 77.560 112, 78 113.293, 78 116 C 78 119.333, 78.333 120, 80 120 C 81.619 120, 82 120.667, 82 123.500 L 82 127 76.750 127.017 C 72.537 127.031, 71.056 127.503, 69.250 129.408 C 68.013 130.714, 67 132.281, 67 132.891 C 67 133.501, 66.325 134, 65.500 134 C 64.348 134, 64 135.278, 64 139.500 L 64 145 67.500 145 C 70.333 145, 71 144.619, 71 143 C 71 141.889, 71.667 141, 72.500 141 C 73.325 141, 74 140.325, 74 139.500 C 74 138.667, 74.889 138, 76 138 C 77.111 138, 78 137.333, 78 136.500 C 78 135.675, 78.563 134.994, 79.250 134.986 C 79.938 134.979, 81.446 134.719, 82.601 134.409 C 84.494 133.900, 84.766 134.373, 85.333 139.166 C 85.680 142.093, 86.422 144.641, 86.982 144.827 C 88.300 145.267, 88.318 156, 87 156 C 86.450 156, 86 157.575, 86 159.500 C 86 161.425, 86.450 163, 87 163 C 88.641 163, 88.185 169.715, 86.500 170.362 C 85.329 170.811, 85 172.808, 85 179.469 C 85 186.385, 84.716 188, 83.500 188 C 82.588 188, 82 188.931, 82 190.375 C 82 194.880, 80.746 199, 79.375 199 C 78.438 199, 78 200.273, 78 203 C 78 205.834, 77.576 207, 76.545 207 C 75.675 207, 74.827 208.405, 74.434 210.500 C 74.058 212.505, 73.184 214, 72.389 214 C 71.468 214, 71 215.180, 71 217.500 C 71 219.896, 70.541 221, 69.545 221 C 68.675 221, 67.827 222.405, 67.434 224.500 C 67.073 226.425, 66.203 228, 65.500 228 C 64.797 228, 63.927 229.575, 63.566 231.500 C 63.173 233.595, 62.325 235, 61.455 235 C 60.459 235, 60 236.104, 60 238.500 C 60 241.368, 59.628 242, 57.940 242 C 56.171 242, 55.923 242.530, 56.190 245.742 C 56.536 249.916, 57.899 250.617, 63.600 249.547 C 65.616 249.169, 67 248.317, 67 247.455 C 67 246.459, 68.104 246, 70.500 246 C 74.469 246, 74.453 246.054, 74.040 234.750 C 73.811 228.478, 73.942 228, 75.897 228 C 77.634 228, 78 227.391, 78 224.500 C 78 222.152, 78.465 221, 79.412 221 C 80.280 221, 81.085 219.459, 81.500 217 C 81.915 214.541, 82.720 213, 83.588 213 C 84.535 213, 85 211.848, 85 209.500 C 85 207.187, 85.469 206, 86.383 206 C 87.899 206, 88.965 203.032, 88.986 198.750 C 88.995 197.043, 89.540 196, 90.425 196 C 91.500 196, 92.022 193.793, 92.554 187 C 93.071 180.385, 93.621 178, 94.629 178 C 95.745 178, 96 174.275, 96 158 C 96 141.601, 96.250 138, 97.389 138 C 98.173 138, 99.052 136.537, 99.409 134.635 C 100.010 131.430, 100.289 131.241, 105.283 130.654 C 112.430 129.814, 121 130.897, 121 132.639 C 121 133.505, 122.182 134.005, 124.250 134.014 C 130.165 134.039, 132 134.982, 132 138 C 132 139.926, 132.608 140.926, 134 141.290 C 135.100 141.577, 136 142.530, 136 143.406 C 136 144.283, 136.675 145, 137.500 145 C 138.333 145, 139 145.889, 139 147 C 139 148.333, 139.667 149, 141 149 C 142.619 149, 143 149.667, 143 152.500 C 143 155.333, 143.381 156, 145 156 C 146.333 156, 147 156.667, 147 158 C 147 159.111, 147.667 160, 148.500 160 C 149.548 160, 150 161.056, 150 163.500 C 150 166.333, 150.381 167, 152 167 C 153.111 167, 154 167.667, 154 168.500 C 154 169.325, 154.675 170, 155.500 170 C 156.333 170, 157 170.889, 157 172 C 157 173.333, 157.667 174, 159 174 C 160.333 174, 161 174.667, 161 176 C 161 177.100, 161.623 178, 162.383 178 C 163.144 178, 164.002 178.900, 164.290 180 C 164.577 181.100, 165.530 182, 166.406 182 C 167.283 182, 168 182.675, 168 183.500 C 168 184.325, 168.647 185, 169.439 185 C 170.374 185, 171.110 186.550, 171.542 189.429 C 172.261 194.225, 171.694 196, 169.441 196 C 168.648 196, 168 196.675, 168 197.500 C 168 198.325, 167.377 199, 166.617 199 C 165.856 199, 164.998 199.900, 164.710 201 C 164.423 202.100, 163.470 203, 162.594 203 C 161.329 203, 161 204.134, 161 208.500 L 161 214 164.500 214 C 167.333 214, 168 213.619, 168 212 C 168 210.900, 168.655 210, 169.455 210 C 170.325 210, 171.173 208.595, 171.566 206.500 C 171.942 204.495, 172.816 203, 173.611 203 C 174.375 203, 175 202.100, 175 201 C 175 199.667, 175.667 199, 177 199 C 178.111 199, 179 198.333, 179 197.500 C 179 196.667, 179.889 196, 181 196 C 182.111 196, 183 196.667, 183 197.500 C 183 198.325, 183.675 199, 184.500 199 C 185.325 199, 186 199.655, 186 200.455 C 186 201.318, 187.386 202.169, 189.408 202.549 C 191.579 202.956, 192.997 203.880, 193.314 205.094 C 193.588 206.142, 194.530 207, 195.406 207 C 196.283 207, 197 207.675, 197 208.500 C 197 209.333, 197.889 210, 199 210 C 200.100 210, 201 210.639, 201 211.421 C 201 212.202, 202.350 213.138, 204 213.500 C 205.650 213.862, 207 214.798, 207 215.579 C 207 216.361, 207.848 217, 208.883 217 C 209.926 217, 211 217.893, 211.290 219 C 211.577 220.100, 212.530 221, 213.406 221 C 214.561 221, 215 221.964, 215 224.500 C 215 226.896, 215.459 228, 216.455 228 C 217.325 228, 218.173 229.405, 218.566 231.500 C 218.942 233.505, 219.816 235, 220.611 235 C 221.375 235, 222 235.900, 222 237 C 222 238.333, 222.667 239, 224 239 C 225.100 239, 226 239.623, 226 240.383 C 226 241.144, 226.900 242.002, 228 242.290 C 229.100 242.577, 230 243.530, 230 244.406 C 230 245.510, 230.922 246, 233 246 C 234.917 246, 236 245.490, 236 244.588 C 236 243.720, 237.541 242.915, 240 242.500 C 243.501 241.909, 243.998 241.492, 243.986 239.162 C 243.965 234.962, 242.888 232, 241.383 232 C 240.623 232, 240 231.100, 240 230 C 240 228.667, 239.333 228, 238 228 C 236.900 228, 236 227.377, 236 226.617 C 236 225.856, 235.100 224.998, 234 224.710 C 232.900 224.423, 232 223.470, 232 222.594 C 232 221.490, 231.078 221, 229 221 C 226.667 221, 226 220.556, 226 219 C 226 217.394, 225.333 217, 222.617 217 C 220.074 217, 219.103 216.503, 218.710 215 C 218.423 213.900, 217.470 213, 216.594 213 C 215.717 213, 215 212.325, 215 211.500 C 215 210.667, 214.111 210, 213 210 C 211.667 210, 211 209.333, 211 208 C 211 206.889, 210.333 206, 209.500 206 C 208.675 206, 208 205.325, 208 204.500 C 208 203.452, 206.944 203, 204.500 203 C 201.667 203, 201 202.619, 201 201 C 201 199.708, 200.333 199, 199.117 199 C 198.074 199, 197 198.107, 196.710 197 C 196.423 195.900, 195.470 195, 194.594 195 C 193.717 195, 193 194.325, 193 193.500 C 193 192.675, 192.377 192, 191.617 192 C 190.856 192, 189.998 191.100, 189.710 190 C 189.423 188.900, 188.470 188, 187.594 188 C 186.490 188, 186 187.078, 186 185 C 186 182.922, 186.490 182, 187.594 182 C 188.470 182, 189.423 181.100, 189.710 180 C 189.998 178.900, 190.856 178, 191.617 178 C 192.377 178, 193 177.100, 193 176 C 193 174.667, 193.667 174, 195 174 C 196.111 174, 197 173.333, 197 172.500 C 197 171.452, 198.056 171, 200.500 171 C 203.917 171, 204 170.905, 204 167 L 204 163 197 163 C 190.667 163, 190 163.190, 190 165 C 190 166.333, 189.333 167, 188 167 C 186.381 167, 186 167.667, 186 170.500 C 186 173.333, 185.619 174, 184 174 C 182.667 174, 182 174.667, 182 176 C 182 177.111, 181.333 178, 180.500 178 C 179.675 178, 179 178.675, 179 179.500 C 179 180.333, 178.111 181, 177 181 C 175.667 181, 175 180.333, 175 179 C 175 177.900, 174.361 177, 173.579 177 C 172.798 177, 171.862 175.650, 171.500 174 C 171.138 172.350, 170.202 171, 169.421 171 C 168.639 171, 168 170.100, 168 169 C 168 167.667, 167.333 167, 166 167 C 164.667 167, 164 166.333, 164 165 C 164 163.889, 163.333 163, 162.500 163 C 161.675 163, 161 162.283, 161 161.406 C 161 160.530, 160.100 159.577, 159 159.290 C 157.583 158.919, 157 157.926, 157 155.883 C 157 153.987, 156.487 153, 155.500 153 C 154.667 153, 154 152.111, 154 151 C 154 149.667, 153.333 149, 152 149 C 150.667 149, 150 148.333, 150 147 C 150 145.889, 149.333 145, 148.500 145 C 147.675 145, 147 144.283, 147 143.406 C 147 142.530, 146.100 141.577, 145 141.290 C 143.497 140.897, 143 139.926, 143 137.383 C 143 134.667, 142.606 134, 141 134 C 139.889 134, 139 133.333, 139 132.500 C 139 131.675, 138.381 131, 137.625 131 C 136.420 131, 134.430 125.237, 135.325 124.341 C 135.512 124.155, 139.790 123.709, 144.832 123.351 C 151.542 122.875, 154 122.338, 154 121.350 C 154 120.345, 155.789 120, 161 120 C 166.293 120, 168 120.337, 168 121.383 C 168 122.144, 167.100 123.002, 166 123.290 C 164.900 123.577, 164 124.530, 164 125.406 C 164 126.561, 163.036 127, 160.500 127 C 157.667 127, 157 127.381, 157 129 C 157 130.619, 156.333 131, 153.500 131 C 151.187 131, 150 131.469, 150 132.383 C 150 133.144, 149.100 134.002, 148 134.290 C 146.900 134.577, 146 135.530, 146 136.406 C 146 137.599, 147.007 138, 150 138 C 152.889 138, 154 137.583, 154 136.500 C 154 135.425, 155.097 135, 157.875 135 C 163.772 135, 168 133.904, 168 132.375 C 168 131.619, 168.900 131, 170 131 C 171.333 131, 172 130.333, 172 129 C 172 127.900, 172.625 127, 173.389 127 C 174.184 127, 175.058 125.505, 175.434 123.500 C 175.854 121.264, 176.658 120, 177.662 120 C 178.803 120, 179.068 119.385, 178.630 117.750 C 178.299 116.513, 178.021 114.938, 178.014 114.250 C 178.006 113.528, 176.720 113, 174.969 113 C 173.197 113, 171.698 112.377, 171.362 111.500 C 170.633 109.600, 168 109.530, 168 111.410 C 168 112.568, 164.774 112.839, 150 112.926 C 132.585 113.028, 132 112.966, 132 111.016 C 132 109.907, 132.619 109, 133.375 109 C 134.746 109, 136 104.880, 136 100.375 C 136 98.931, 136.588 98, 137.500 98 C 138.325 98, 139 97.377, 139 96.616 C 139 95.621, 140.850 95.115, 145.600 94.813 C 150.462 94.503, 152.451 93.945, 153.150 92.696 C 153.757 91.612, 155.345 91, 157.550 91 C 159.821 91, 161 90.527, 161 89.617 C 161 88.856, 161.900 87.998, 163 87.710 C 164.100 87.423, 165 86.470, 165 85.594 C 165 84.717, 165.675 84, 166.500 84 C 167.548 84, 168 82.944, 168 80.500 C 168 78.187, 167.531 77, 166.617 77 C 165.856 77, 164.998 76.100, 164.710 75 C 164.218 73.119, 163.346 73, 150.094 73 C 138.233 73, 136 72.762, 136 71.500 C 136 70.459, 134.953 70, 132.579 70 C 129.619 70, 129.073 70.390, 128.522 72.898 C 128.122 74.722, 127.073 76.015, 125.693 76.385 C 124.487 76.708, 116.412 76.979, 107.750 76.986 C 94.423 76.998, 92 77.231, 92 78.500 C 92 79.548, 90.944 80, 88.500 80 L 85 80 85 73 L 85 66 88.500 66 C 90.944 66, 92 66.452, 92 67.500 C 92 68.333, 92.889 69, 94 69 C 95.538 69, 96 68.333, 96 66.117 C 96 64.074, 95.417 63.081, 94 62.710 C 92.468 62.310, 92 61.346, 92 58.594 C 92 56.066, 91.555 55, 90.500 55 C 89.675 55, 89 54.325, 89 53.500 C 89 52.675, 88.438 51.994, 87.750 51.986 C 87.063 51.979, 85.600 51.806, 84.500 51.602 C 83.400 51.398, 81.487 51.436, 80.250 51.685 M 147.250 80.743 C 141.727 81.005, 140 81.435, 140 82.544 C 140 83.345, 139.100 84, 138 84 C 136.381 84, 136 84.667, 136 87.500 C 136 90.833, 136.167 91, 139.500 91 C 141.944 91, 143 90.548, 143 89.500 C 143 88.588, 143.931 88, 145.375 88 C 149.880 88, 154 86.746, 154 85.375 C 154 84.619, 154.675 84, 155.500 84 C 156.333 84, 157 83.111, 157 82 C 157 80.900, 156.438 80.089, 155.750 80.199 C 155.063 80.308, 151.238 80.553, 147.250 80.743 M 88.710 86 C 88.329 87.456, 87.346 88, 85.094 88 L 82 88 82 97 C 82 104.333, 82.278 106, 83.500 106 C 84.637 106, 85 107.233, 85 111.094 C 85 115.346, 85.330 116.274, 87 116.710 C 88.100 116.998, 89 117.856, 89 118.617 C 89 119.377, 89.675 120, 90.500 120 C 91.325 120, 92 119.381, 92 118.625 C 92 117.254, 96.120 116, 100.625 116 C 102.069 116, 103 115.412, 103 114.500 C 103 113.667, 103.889 113, 105 113 C 106.619 113, 107 113.667, 107 116.500 C 107 119.333, 107.381 120, 109 120 C 110.100 120, 111 119.352, 111 118.561 C 111 117.511, 112.895 116.934, 118 116.431 L 125 115.742 125 110.871 C 125 107.208, 125.372 106, 126.500 106 C 127.742 106, 128 104.111, 128 95 L 128 84 108.617 84 C 90.074 84, 89.211 84.087, 88.710 86 M 207.500 98 C 206.998 102.995, 206.396 105, 205.399 105 C 204.629 105, 204 105.900, 204 107 C 204 108.619, 204.667 109, 207.500 109 C 210.833 109, 211 108.833, 211 105.500 L 211 102 216.500 102 C 221.333 102, 222 102.242, 222 104 C 222 105.333, 222.667 106, 224 106 C 225.111 106, 226 106.667, 226 107.500 C 226 108.325, 226.675 109, 227.500 109 C 228.333 109, 229 109.889, 229 111 C 229 112.333, 229.667 113, 231 113 C 232.111 113, 233 113.667, 233 114.500 C 233 115.325, 233.675 116, 234.500 116 C 235.333 116, 236 116.889, 236 118 C 236 119.333, 236.667 120, 238 120 C 239.100 120, 240 120.626, 240 121.392 C 240 123.124, 244.169 124.247, 247.500 123.411 C 250.185 122.737, 250.987 120, 248.500 120 C 247.675 120, 247 119.377, 247 118.617 C 247 117.856, 246.100 116.998, 245 116.710 C 243.900 116.423, 243 115.470, 243 114.594 C 243 113.717, 242.325 113, 241.500 113 C 240.667 113, 240 112.111, 240 111 C 240 109.900, 239.377 109, 238.617 109 C 237.856 109, 236.998 108.100, 236.710 107 C 236.423 105.900, 235.470 105, 234.594 105 C 233.717 105, 233 104.325, 233 103.500 C 233 102.667, 232.111 102, 231 102 C 229.667 102, 229 101.333, 229 100 C 229 98.889, 228.333 98, 227.500 98 C 226.675 98, 226 97.325, 226 96.500 C 226 95.667, 225.111 95, 224 95 C 222.667 95, 222 94.333, 222 93 C 222 91.193, 221.333 91, 215.101 91 L 208.203 91 207.500 98 M 222 231.500 C 222 234.810, 222.183 235, 225.383 235 C 227.982 235, 228.894 235.488, 229.317 237.105 C 229.942 239.493, 232.333 239.194, 232.823 236.667 C 233.011 235.697, 232.508 235, 231.619 235 C 230.664 235, 229.844 233.686, 229.434 231.500 C 228.837 228.318, 228.470 228, 225.389 228 C 222.183 228, 222 228.189, 222 231.500" stroke="none" fill="black" fill-rule="evenodd"/>
</svg>