<svg xmlns="http://www.w3.org/2000/svg" width="300" height="300" viewBox="0 0 300 300" version="1.1">
	<path d="M 51 139.373 C 51 140.427, 50.149 141, 48.582 141 C 43.861 141, 43 141.925, 43 146.996 C 43 151.630, 43.100 151.792, 46.250 152.235 C 48.038 152.487, 56.700 152.603, 65.500 152.493 C 74.300 152.384, 90.050 152.659, 100.500 153.106 C 120.657 153.968, 185.729 154.972, 222.639 154.989 L 244.777 155 245.434 158.500 C 246.002 161.525, 246.476 162, 248.934 162 C 251.392 162, 251.866 161.525, 252.434 158.500 C 252.795 156.575, 253.475 155, 253.946 155 C 254.416 155, 255.338 152.760, 255.995 150.023 C 257.008 145.798, 256.958 144.816, 255.666 143.523 C 254.828 142.685, 253.548 142.007, 252.821 142.015 C 251.845 142.027, 251.892 142.284, 253 143 C 253.984 143.636, 240.399 144.031, 213.500 144.148 C 190.950 144.246, 174.975 144.629, 178 145 C 181.120 145.382, 172.573 145.745, 158.250 145.837 C 136.400 145.978, 133 145.798, 133 144.500 C 133 143.256, 131.082 142.999, 121.750 142.997 C 101.024 142.991, 62.583 140.944, 61.882 139.808 C 61.514 139.214, 58.915 138.506, 56.107 138.236 C 51.856 137.828, 51 138.018, 51 139.373 M 160.762 144.707 C 162.006 144.946, 163.806 144.937, 164.762 144.687 C 165.718 144.437, 164.700 144.241, 162.500 144.252 C 160.300 144.263, 159.518 144.468, 160.762 144.707 M 80.813 150.683 C 81.534 150.972, 82.397 150.936, 82.729 150.604 C 83.061 150.272, 82.471 150.036, 81.417 150.079 C 80.252 150.127, 80.015 150.364, 80.813 150.683" stroke="none" fill="black" fill-rule="evenodd"/>
</svg>