<svg xmlns="http://www.w3.org/2000/svg" width="300" height="300" viewBox="0 0 300 300" version="1.1">
	<path d="M 163.750 55.689 C 162.787 55.941, 162 56.789, 162 57.573 C 162 58.358, 161.311 59, 160.469 59 C 159.626 59, 158.689 59.648, 158.385 60.439 C 158.081 61.230, 156.550 62.160, 154.982 62.504 C 152.873 62.967, 151.964 63.887, 151.493 66.033 C 150.982 68.358, 150.174 69.064, 147.436 69.578 C 145.556 69.931, 144.284 70.650, 144.609 71.177 C 144.935 71.704, 144.298 72.371, 143.193 72.660 C 142.089 72.949, 140.960 74.043, 140.686 75.092 C 140.412 76.142, 139.358 77.032, 138.344 77.070 C 136.668 77.134, 136.682 77.212, 138.500 77.929 C 140.233 78.612, 140.050 78.817, 137.129 79.465 C 135.065 79.922, 133.565 80.947, 133.262 82.106 C 132.990 83.148, 132.144 84, 131.383 84 C 130.623 84, 130 84.717, 130 85.594 C 130 86.470, 129.100 87.423, 128 87.710 C 126.900 87.998, 126 88.856, 126 89.617 C 126 90.377, 125.100 91, 124 91 C 122.889 91, 122 91.667, 122 92.500 C 122 93.325, 121.341 94, 120.535 94 C 119.730 94, 118.589 94.900, 118 96 C 117.411 97.100, 115.985 98, 114.829 98 C 112.220 98, 108.137 102.267, 107.880 105.263 C 107.401 110.870, 108.081 120.068, 108.936 119.540 C 110.908 118.321, 111.281 129.920, 110.593 171 C 110.201 194.375, 109.756 215.676, 109.603 218.336 C 109.360 222.553, 109.611 223.282, 111.558 224.022 C 112.786 224.489, 113.950 225.346, 114.145 225.928 C 114.340 226.509, 118.016 227.282, 122.313 227.644 C 126.610 228.007, 129.635 228.608, 129.035 228.979 C 127.652 229.833, 132.247 232, 135.440 232 C 136.730 232, 138.045 232.675, 138.362 233.500 C 138.763 234.546, 140.394 235, 143.746 235 C 147.318 235, 148.996 235.515, 150.268 237 C 151.382 238.301, 153.218 239, 155.522 239 C 157.656 239, 159.279 239.563, 159.607 240.418 C 159.906 241.199, 162.415 242.380, 165.182 243.044 C 168.660 243.878, 169.794 244.516, 168.856 245.110 C 168.039 245.628, 170.875 245.969, 176 245.969 C 181.462 245.969, 183.989 245.646, 183.069 245.064 C 182.010 244.394, 182.596 243.979, 185.319 243.468 C 187.462 243.066, 189 242.197, 189 241.389 C 189 240.625, 189.675 240, 190.500 240 C 191.325 240, 192 239.120, 192 238.045 C 192 235.923, 187.824 234.628, 182.397 235.067 C 176.274 235.563, 169.890 234.986, 170.504 233.993 C 171.201 232.867, 170.198 232.438, 164.750 231.533 C 162.421 231.146, 161 230.358, 161 229.455 C 161 228.397, 159.771 228, 156.500 228 C 152.908 228, 151.986 227.647, 151.930 226.250 C 151.869 224.733, 151.758 224.759, 151.098 226.446 C 150.371 228.304, 150.310 228.293, 149.762 226.196 C 149.305 224.449, 148.453 224, 145.594 224 C 143.066 224, 142 223.555, 142 222.500 C 142 221.477, 140.966 220.996, 138.750 220.986 C 134.124 220.967, 131 219.970, 131 218.513 C 131 217.768, 129.157 217.052, 126.451 216.747 C 123.948 216.465, 121.632 215.965, 121.303 215.636 C 120.973 215.307, 120.800 194.959, 120.917 170.419 C 121.068 139.047, 120.815 125.996, 120.066 126.459 C 119.335 126.911, 119.022 123.720, 119.070 116.309 C 119.113 109.744, 119.459 106.285, 119.951 107.500 C 120.636 109.192, 120.874 108.922, 121.492 105.750 C 122.028 102.998, 122.725 102, 124.111 102 C 125.291 102, 126 101.297, 126 100.125 C 126 98.858, 126.936 98.063, 128.885 97.673 C 130.952 97.260, 132.072 96.231, 132.833 94.048 C 133.418 92.372, 134.594 91, 135.448 91 C 136.302 91, 137 90.375, 137 89.611 C 137 88.816, 138.495 87.942, 140.500 87.566 C 142.595 87.173, 144 86.325, 144 85.455 C 144 84.655, 144.900 84, 146 84 C 147.333 84, 148 83.333, 148 82 C 148 80.889, 148.667 80, 149.500 80 C 150.325 80, 151 79.325, 151 78.500 C 151 77.667, 151.889 77, 153 77 C 154.333 77, 155 76.333, 155 75 C 155 73.376, 155.705 72.978, 158.750 72.884 C 160.813 72.820, 161.713 72.562, 160.750 72.311 C 157.867 71.557, 158.772 70, 162.094 70 C 164.309 70, 165.331 69.452, 165.692 68.069 C 165.970 67.007, 166.773 66.359, 167.476 66.629 C 168.343 66.962, 168.967 65.707, 169.413 62.734 C 170.458 55.761, 169.246 54.253, 163.750 55.689" stroke="none" fill="black" fill-rule="evenodd"/>
</svg>