<svg xmlns="http://www.w3.org/2000/svg" width="300" height="300" viewBox="0 0 300 300" version="1.1">
	<path d="M 136.250 80.810 C 135.012 80.991, 134 81.783, 134 82.570 C 134 83.683, 132.338 84, 126.500 84 C 121.033 84, 119.068 84.339, 119.250 85.250 C 119.405 86.023, 118.165 86.599, 116 86.760 C 109.168 87.267, 105.593 88.130, 106.921 88.951 C 107.701 89.433, 106.006 90.019, 102.602 90.444 C 99.381 90.846, 96.993 91.645, 96.985 92.322 C 96.976 93.012, 96.568 92.878, 96 92 C 95.172 90.718, 95.028 90.754, 95.015 92.250 C 95.007 93.213, 94.341 94, 93.535 94 C 92.730 94, 91.589 94.900, 91 96 C 90.411 97.100, 89.270 98, 88.465 98 C 87.659 98, 87 98.675, 87 99.500 C 87 100.325, 86.381 101, 85.625 101 C 84.869 101, 83.992 102.291, 83.676 103.868 C 83.065 106.927, 84.191 112.667, 85.322 112.250 C 85.695 112.112, 87.750 112, 89.889 112 C 93.538 112, 93.818 112.214, 94.431 115.486 C 94.791 117.403, 95.404 118.907, 95.793 118.827 C 96.182 118.748, 97.318 119.039, 98.317 119.474 C 100.771 120.543, 101.959 119.075, 101.311 115.774 C 100.890 113.628, 100.056 112.913, 97.388 112.413 C 94.549 111.880, 94.002 111.350, 94.014 109.139 C 94.043 103.509, 95.016 102, 98.617 102 C 101.166 102, 102.004 101.569, 102.015 100.250 C 102.027 98.880, 102.218 98.796, 102.894 99.863 C 103.504 100.825, 103.872 100.883, 104.147 100.059 C 104.589 98.734, 106.824 98.187, 112.250 98.077 C 114.702 98.026, 116 97.531, 116 96.644 C 116 95.668, 118.307 95.095, 124.234 94.601 C 129.841 94.133, 132.729 93.449, 133.284 92.457 C 134.603 90.099, 144.125 90.497, 146.268 93 C 147.596 94.551, 149.218 95, 153.490 95 C 157.721 95, 159 95.348, 159 96.500 C 159 97.325, 159.614 98, 160.364 98 C 162.176 98, 167.118 103, 166.421 104.128 C 166.120 104.615, 166.555 105.276, 167.389 105.596 C 168.289 105.941, 169.170 108.070, 169.559 110.839 C 169.919 113.402, 170.767 115.950, 171.443 116.500 C 172.120 117.050, 172.955 120.537, 173.299 124.250 L 173.925 131 160.962 131 C 150.107 131, 148 131.244, 148 132.500 C 148 133.555, 146.934 134, 144.406 134 C 141.654 134, 140.690 134.468, 140.290 136 C 139.919 137.417, 138.926 138, 136.883 138 C 134.912 138, 134 138.504, 134 139.594 C 134 140.470, 133.100 141.423, 132 141.710 C 130.900 141.998, 130 142.856, 130 143.617 C 130 144.377, 129.100 145, 128 145 C 126.677 145, 126 145.667, 126 146.969 C 126 148.303, 125.519 148.753, 124.508 148.365 C 123.688 148.050, 122.769 148.438, 122.467 149.226 C 122.164 150.014, 120.360 151.270, 118.458 152.016 C 116.556 152.763, 115 153.964, 115 154.687 C 115 155.409, 114.377 156, 113.617 156 C 112.856 156, 111.998 156.900, 111.710 158 C 111.423 159.100, 110.470 160, 109.594 160 C 108.717 160, 108 160.675, 108 161.500 C 108 162.325, 107.338 163, 106.529 163 C 105.717 163, 104.661 164.456, 104.173 166.250 C 103.687 168.037, 102.822 169.404, 102.252 169.286 C 101.683 169.168, 100.915 171.081, 100.547 173.536 C 100.179 175.991, 99.428 178, 98.880 178 C 98.331 178, 98.160 178.450, 98.500 179 C 98.840 179.550, 98.641 180, 98.059 180 C 96.507 180, 96.765 186.762, 98.353 187.700 C 99.097 188.140, 99.965 190.489, 100.281 192.920 C 100.604 195.408, 101.542 197.724, 102.428 198.219 C 103.292 198.703, 104 199.977, 104 201.050 C 104 202.122, 104.675 203, 105.500 203 C 106.325 203, 107 203.623, 107 204.383 C 107 205.144, 107.900 206.002, 109 206.290 C 110.100 206.577, 111 207.530, 111 208.406 C 111 209.521, 111.976 210.024, 114.250 210.079 C 116.037 210.122, 116.914 210.393, 116.197 210.680 C 113.507 211.758, 118.511 213.936, 123.750 213.968 C 127.404 213.990, 128.924 214.380, 128.750 215.250 C 128.578 216.108, 130.304 216.594, 134.250 216.800 C 138.906 217.043, 140 216.805, 140 215.550 C 140 214.362, 141.139 214, 144.883 214 C 148.926 214, 149.857 213.656, 150.290 212 C 150.671 210.544, 151.654 210, 153.906 210 C 155.608 210, 157 209.539, 157 208.975 C 157 208.412, 158.125 207.523, 159.500 207 C 160.875 206.477, 162 205.363, 162 204.525 C 162 203.497, 162.978 203, 165 203 C 166.650 203, 168 202.539, 168 201.975 C 168 201.412, 169.125 200.523, 170.500 200 C 171.875 199.477, 173 198.619, 173 198.092 C 173 197.113, 176.876 195.437, 178.278 195.811 C 178.706 195.925, 179.316 195.339, 179.635 194.509 C 181.106 190.676, 182.728 194.249, 183.199 202.363 C 183.323 204.487, 184.004 206.448, 184.712 206.720 C 185.420 206.992, 186 208.048, 186 209.068 C 186 210.088, 186.828 211.727, 187.840 212.711 C 188.852 213.695, 189.974 215.316, 190.333 216.313 C 190.692 217.311, 191.469 217.828, 192.060 217.463 C 192.657 217.094, 193.379 217.733, 193.684 218.899 C 194.175 220.777, 194.964 221, 201.117 221 C 205.039 221, 208 220.570, 208 220 C 208 219.450, 209.321 219, 210.935 219 C 216.511 219, 218.553 217.561, 218.831 213.437 C 218.971 211.362, 218.805 208.390, 218.463 206.832 C 217.956 204.524, 217.310 204, 214.966 204 C 212.496 204, 212.002 204.472, 211.462 207.350 C 210.909 210.298, 210.483 210.679, 207.917 210.525 C 201.675 210.150, 200.902 209.967, 201.500 209 C 201.840 208.450, 201.149 208, 199.965 208 C 198.679 208, 197.609 207.223, 197.308 206.069 C 197.030 205.007, 196.204 203.908, 195.471 203.627 C 194.739 203.346, 193.826 201.020, 193.441 198.457 C 192.969 195.308, 192.465 194.236, 191.887 195.149 C 191.386 195.940, 191.024 191.198, 191.015 183.719 C 191.002 172.989, 190.746 170.840, 189.416 170.329 C 188.141 169.840, 188.092 169.557, 189.166 168.876 C 190.188 168.229, 190.090 168.027, 188.750 168.015 C 187.155 168.001, 187 166.542, 187 151.500 C 187 138.833, 186.710 135.058, 185.750 135.250 C 184.862 135.428, 184.415 133.386, 184.205 128.201 C 184.003 123.186, 183.485 120.740, 182.550 120.381 C 181.687 120.050, 180.934 117.324, 180.493 112.933 C 180.111 109.124, 179.406 106.249, 178.928 106.544 C 178.125 107.041, 177.634 105.692, 176.730 100.500 C 176.538 99.400, 175.845 98.612, 175.191 98.750 C 174.536 98.887, 174 98.276, 174 97.391 C 174 95.462, 170.012 91.042, 168.250 91.017 C 167.563 91.008, 167 90.325, 167 89.500 C 167 88.667, 166.111 88, 165 88 C 163.667 88, 163 87.333, 163 86 C 163 84.190, 162.333 84, 156 84 C 150.444 84, 149 83.690, 149 82.500 C 149 81.562, 147.970 80.952, 146.250 80.871 C 144.738 80.800, 142.375 80.683, 141 80.612 C 139.625 80.540, 137.488 80.629, 136.250 80.810 M 175.079 129.583 C 175.127 130.748, 175.364 130.985, 175.683 130.188 C 175.972 129.466, 175.936 128.603, 175.604 128.271 C 175.272 127.939, 175.036 128.529, 175.079 129.583 M 146.250 141.706 C 145.012 141.944, 144 142.783, 144 143.570 C 144 144.356, 143.100 145, 142 145 C 140.768 145, 139.994 145.672, 139.985 146.750 C 139.973 148.090, 139.771 148.188, 139.124 147.166 C 138.443 146.092, 138.160 146.141, 137.671 147.416 C 137.336 148.287, 136.149 149, 135.031 149 C 133.892 149, 133 149.659, 133 150.500 C 133 151.325, 132.325 152, 131.500 152 C 130.667 152, 130 152.889, 130 154 C 130 155.333, 129.333 156, 128 156 C 126.889 156, 126 156.667, 126 157.500 C 126 158.325, 125.283 159, 124.406 159 C 123.530 159, 122.577 159.900, 122.290 161 C 122.002 162.100, 120.989 163, 120.038 163 C 118.171 163, 115.679 165.443, 114.683 168.250 C 114.342 169.213, 113.619 170, 113.077 170 C 112.534 170, 111.795 171.575, 111.434 173.500 C 111.058 175.505, 110.184 177, 109.389 177 C 108.372 177, 108 178.474, 108 182.500 C 108 186.171, 108.389 187.917, 109.168 187.750 C 109.811 187.613, 110.756 189.188, 111.268 191.250 C 111.780 193.313, 112.604 195, 113.099 195 C 113.595 195, 114 195.717, 114 196.594 C 114 197.470, 114.900 198.423, 116 198.710 C 117.100 198.998, 118 199.898, 118 200.710 C 118 201.523, 118.869 202.414, 119.931 202.692 C 120.993 202.970, 122.104 203.828, 122.399 204.599 C 123.216 206.725, 143 206.631, 143 204.500 C 143 203.417, 144.111 203, 147 203 C 149.834 203, 151 202.576, 151 201.545 C 151 200.675, 152.405 199.827, 154.500 199.434 C 156.505 199.058, 158 198.184, 158 197.389 C 158 196.625, 158.900 196, 160 196 C 161.333 196, 162 195.333, 162 194 C 162 192.900, 162.338 192.053, 162.750 192.118 C 165.862 192.610, 169 191.797, 169 190.500 C 169 189.675, 169.690 189, 170.532 189 C 171.375 189, 172.439 187.988, 172.897 186.750 C 173.355 185.512, 174.015 184.613, 174.365 184.750 C 175.969 185.381, 177 184.869, 177 183.441 C 177 182.584, 177.437 182.152, 177.971 182.482 C 179.454 183.399, 180.258 178.693, 179.532 173.340 C 178.875 168.494, 177.813 167.043, 174.901 167.015 C 173.582 167.003, 173.193 165.213, 172.681 156.807 C 172.216 149.170, 171.676 146.398, 170.530 145.757 C 169.689 145.286, 169 144.300, 169 143.567 C 169 142.833, 167.988 141.962, 166.750 141.630 C 164.272 140.966, 149.814 141.019, 146.250 141.706" stroke="none" fill="black" fill-rule="evenodd"/>
</svg>