<svg xmlns="http://www.w3.org/2000/svg" width="300" height="300" viewBox="0 0 300 300" version="1.1">
	<path d="M 182.168 53.074 C 181.746 54.215, 180.973 55.002, 180.450 54.824 C 179.928 54.646, 179.362 56.413, 179.193 58.750 C 179.023 61.087, 178.434 63, 177.883 63 C 177.333 63, 177.131 63.403, 177.435 63.895 C 177.740 64.388, 177.316 65.048, 176.494 65.364 C 175.299 65.822, 175 68.048, 175 76.469 C 175 84.622, 174.696 87, 173.656 87 C 172.623 87, 172.160 90.306, 171.659 101.250 C 170.825 119.475, 170.837 142.789, 171.682 145.946 C 172.288 148.212, 172.392 148.249, 173.098 146.446 C 173.522 145.362, 173.891 149.481, 173.930 155.750 C 173.990 165.406, 173.774 167, 172.406 167 C 171.530 167, 170.587 166.138, 170.312 165.085 C 170.036 164.031, 168.640 162.875, 167.208 162.516 C 165.620 162.118, 165.052 161.586, 165.752 161.153 C 166.466 160.712, 165.747 159.933, 163.849 159.093 C 161.882 158.223, 161.218 157.483, 161.980 157.013 C 164.029 155.746, 157.318 155, 143.875 155 C 133.097 155, 131 155.244, 131 156.500 C 131 157.555, 129.934 158, 127.406 158 C 124.654 158, 123.690 158.468, 123.290 160 C 122.919 161.417, 121.926 162, 119.883 162 C 117.912 162, 117 162.504, 117 163.594 C 117 164.470, 116.100 165.423, 115 165.710 C 113.900 165.998, 113 166.856, 113 167.617 C 113 168.377, 112.100 169, 111 169 C 109.667 169, 109 169.667, 109 171 C 109 172.587, 108.328 173.003, 105.750 173.015 C 103.590 173.025, 102.947 173.314, 103.834 173.876 C 104.908 174.557, 104.859 174.840, 103.584 175.329 C 102.567 175.720, 102 177.159, 102 179.352 C 102 181.803, 101.491 182.900, 100.194 183.239 C 98.816 183.599, 98.329 184.855, 98.139 188.541 C 97.862 193.884, 97.326 195.320, 95.931 194.457 C 95.395 194.126, 95 196.479, 95 200 C 95 203.744, 95.381 205.883, 95.981 205.512 C 96.881 204.955, 98.730 212.380, 98.179 214.336 C 98.049 214.796, 98.856 215.411, 99.971 215.703 C 101.104 215.999, 102 217.065, 102 218.117 C 102 219.152, 102.675 220, 103.500 220 C 104.325 220, 105 220.675, 105 221.500 C 105 222.333, 105.889 223, 107 223 C 108.333 223, 109 223.667, 109 225 C 109 226.667, 109.667 227, 113 227 C 115.739 227, 117 227.436, 117 228.383 C 117 230.512, 120.408 230.974, 134.287 230.727 C 143.373 230.566, 147.302 230.131, 147.862 229.224 C 148.296 228.522, 150.979 227.671, 153.825 227.334 C 157.223 226.932, 159 226.254, 159 225.361 C 159 224.546, 160.104 223.995, 161.750 223.986 C 165.980 223.965, 169.387 222.857, 167.951 221.970 C 167.183 221.495, 167.914 220.958, 169.934 220.514 C 171.695 220.128, 173.378 219.179, 173.675 218.406 C 173.971 217.633, 174.855 217, 175.638 217 C 176.422 217, 177.322 216.325, 177.638 215.500 C 177.955 214.675, 178.841 214, 179.607 214 C 180.867 214, 181.438 212.772, 181.118 210.750 C 181.053 210.338, 182.575 210, 184.500 210 L 188 210 188 214.950 C 188 218.354, 188.478 220.168, 189.530 220.757 C 190.680 221.400, 191.218 224.200, 191.694 232.015 C 192.087 238.472, 192.618 241.674, 193.093 240.459 C 193.611 239.135, 193.882 240.167, 193.930 243.643 C 194.004 249.104, 195.069 250.318, 198.904 249.315 C 200.057 249.013, 201 248.144, 201 247.383 C 201 246.623, 201.860 246, 202.912 246 C 206.470 246, 206.948 232.961, 203.439 231.615 C 202.376 231.207, 202 229.226, 202 224.031 C 202 218.448, 201.691 217, 200.500 217 C 199.328 217, 198.997 215.633, 198.986 210.750 C 198.970 203.147, 198.106 199.225, 196.877 201.165 C 196.370 201.965, 196.024 199.594, 196.015 195.250 C 196.004 189.977, 196.341 188.068, 197.250 188.250 C 198.087 188.417, 198.597 186.849, 198.793 183.500 C 198.986 180.223, 199.675 178.055, 200.793 177.208 C 202.311 176.059, 202.533 173.036, 202.798 149.868 C 203.029 129.672, 202.805 123.470, 201.802 122.261 C 200.879 121.149, 200.403 115.437, 200.144 102.351 C 199.856 87.803, 199.501 84, 198.432 84 C 197.442 84, 197.007 81.940, 196.792 76.250 C 196.583 70.703, 196.145 68.571, 195.250 68.750 C 194.563 68.887, 194 68.587, 194 68.083 C 194 67.579, 194.563 66.940, 195.250 66.662 C 195.997 66.361, 195.795 66.126, 194.750 66.079 C 193.285 66.013, 193 65.015, 193 59.941 C 193 56.609, 192.601 54.128, 192.114 54.430 C 191.626 54.731, 190.993 54.083, 190.707 52.989 C 189.947 50.082, 183.250 50.149, 182.168 53.074 M 186 70.059 C 186 72.429, 185.596 73.868, 185.029 73.518 C 183.692 72.691, 183.214 75.647, 182.526 89 C 182.200 95.325, 181.622 104.100, 181.242 108.500 C 180.633 115.540, 180.474 116.020, 179.917 112.500 C 179.470 109.677, 179.242 111.240, 179.142 117.809 C 179.064 122.929, 179.387 126.879, 179.860 126.586 C 180.950 125.913, 182 135.777, 182 146.678 C 182 153.209, 182.332 155.190, 183.500 155.638 C 184.678 156.090, 185 158.125, 185 165.107 C 185 172.345, 185.279 174, 186.500 174 C 187.550 174, 188 175.059, 188 177.531 C 188 181.034, 190.890 183.829, 191.773 181.180 C 191.990 180.531, 192.917 179.968, 193.833 179.930 C 195.163 179.874, 195.096 179.686, 193.500 179 C 191.873 178.301, 191.815 178.127, 193.189 178.070 C 195.626 177.969, 195.877 174.520, 196.510 132.376 C 197.062 95.652, 197.046 95.245, 195.034 94.719 C 193.131 94.222, 193 93.413, 193 82.201 C 193 72.468, 192.718 70.106, 191.500 69.638 C 190.675 69.322, 190 68.374, 190 67.531 C 190 66.667, 189.129 66, 188 66 C 186.328 66, 186 66.667, 186 70.059 M 134 163.383 C 134 164.899, 131.032 165.965, 126.750 165.986 C 124.978 165.995, 124 166.534, 124 167.500 C 124 168.333, 123.111 169, 122 169 C 120.667 169, 120 169.667, 120 171 C 120 172.333, 119.333 173, 118 173 C 116.677 173, 116 173.667, 116 174.969 C 116 176.308, 115.520 176.753, 114.500 176.362 C 113.459 175.962, 113 176.431, 113 177.893 C 113 179.333, 112.367 180, 111 180 C 109.242 180, 109 180.667, 109 185.500 C 109 189.722, 108.652 191, 107.500 191 C 106.287 191, 106.003 192.577, 106.015 199.250 C 106.025 204.568, 106.352 206.991, 106.936 206.069 C 107.606 205.010, 108.021 205.596, 108.532 208.319 C 108.934 210.462, 109.803 212, 110.611 212 C 111.375 212, 112 212.900, 112 214 C 112 215.333, 112.667 216, 114 216 C 115.100 216, 116 216.619, 116 217.375 C 116 218.746, 120.120 220, 124.625 220 C 126.069 220, 127 220.588, 127 221.500 C 127 222.722, 128.667 223, 136 223 C 142.576 223, 144.933 222.670, 144.750 221.774 C 144.613 221.099, 145.625 220.415, 147 220.254 C 153.713 219.466, 155.952 218.813, 155.736 217.707 C 155.597 216.999, 156.924 216.364, 158.947 216.172 C 160.843 215.992, 162.868 215.212, 163.447 214.441 C 164.026 213.669, 165.550 212.883, 166.832 212.695 C 168.115 212.506, 169.465 211.902, 169.832 211.353 C 170.200 210.804, 171.287 210.064, 172.250 209.708 C 173.213 209.353, 174 208.374, 174 207.531 C 174 206.689, 174.819 206, 175.820 206 C 178.618 206, 184.212 200.500, 184.141 197.820 C 184.018 193.241, 183.647 192, 182.403 192 C 181.708 192, 180.995 191.023, 180.820 189.828 C 180.360 186.704, 178 186.262, 178 189.300 C 178 190.933, 178.682 191.945, 180.019 192.295 C 181.801 192.761, 181.899 193.127, 180.858 195.411 C 179.993 197.312, 178.924 198, 176.839 198 C 174.982 198, 174 197.481, 174 196.500 C 174 195.667, 173.111 195, 172 195 C 170.667 195, 170 194.333, 170 193 C 170 191.889, 169.333 191, 168.500 191 C 167.675 191, 167 190.373, 167 189.607 C 167 188.841, 167.675 187.955, 168.500 187.638 C 169.382 187.300, 170 185.800, 170 184 C 170 182.200, 169.382 180.700, 168.500 180.362 C 167.630 180.028, 167 178.532, 167 176.799 C 167 174.654, 166.437 173.665, 165 173.290 C 163.893 173, 163 171.926, 163 170.883 C 163 169.783, 162.272 168.971, 161.250 168.930 C 159.763 168.870, 159.801 168.738, 161.500 168.049 C 163.192 167.364, 162.922 167.126, 159.750 166.508 C 157.688 166.106, 156 165.205, 156 164.505 C 156 162.661, 152.640 162.029, 142.750 162.014 C 135.960 162.003, 134 162.310, 134 163.383" stroke="none" fill="black" fill-rule="evenodd"/>
</svg>