<svg xmlns="http://www.w3.org/2000/svg" width="300" height="300" viewBox="0 0 300 300" version="1.1">
	<path d="M 157.250 157.496 C 156.563 158.277, 156 159.835, 156 160.958 C 156 162.967, 156.467 163, 185 163 C 212.787 163, 214 162.921, 214 161.107 C 214 158.882, 212.131 158, 207.418 158 C 205.538 158, 204 157.550, 204 157 C 204 156.362, 195.775 156.014, 181.250 156.038 C 162.888 156.069, 158.259 156.350, 157.250 157.496 M 120 159.358 C 120 160.766, 121.356 161, 129.500 161 C 135.167 161, 139 160.596, 139 160 C 139 159.450, 137.491 159, 135.647 159 C 133.802 159, 129.527 158.711, 126.147 158.358 C 120.852 157.804, 120 157.943, 120 159.358 M 242 162 C 242 162.578, 245.167 163, 249.500 163 C 253.833 163, 257 162.578, 257 162 C 257 161.422, 253.833 161, 249.500 161 C 245.167 161, 242 161.422, 242 162 M 262 162 C 262 162.550, 264.025 163, 266.500 163 C 268.975 163, 271 162.550, 271 162 C 271 161.450, 268.975 161, 266.500 161 C 264.025 161, 262 161.450, 262 162" stroke="none" fill="black" fill-rule="evenodd"/>
</svg>