<svg xmlns="http://www.w3.org/2000/svg" width="300" height="300" viewBox="0 0 300 300" version="1.1">
	<path d="M 139.192 50.621 C 138.449 51.949, 135.819 52.337, 124.642 52.763 C 114.071 53.166, 111 53.589, 111 54.642 C 111 55.624, 109.452 56, 105.406 56 C 100.654 56, 99.734 56.301, 99.290 58 C 98.645 60.467, 93 60.915, 93 58.500 C 93 57.667, 92.111 57, 91 57 C 89.889 57, 89 57.667, 89 58.500 C 89 59.325, 88.345 60, 87.545 60 C 84.393 60, 84.376 73.163, 87.527 74.372 C 88.554 74.766, 89 76.460, 89 79.969 C 89 83.774, 89.365 85, 90.500 85 C 91.412 85, 92 85.931, 92 87.375 C 92 91.880, 93.254 96, 94.625 96 C 95.625 96, 96 97.500, 96 101.500 C 96 105.500, 96.375 107, 97.375 107 C 98.904 107, 100 111.228, 100 117.125 C 100 119.758, 100.444 121, 101.384 121 C 102.376 121, 102.883 122.825, 103.178 127.462 C 103.405 131.016, 103.917 134.250, 104.316 134.649 C 104.715 135.049, 107.760 135.572, 111.082 135.812 C 116.584 136.210, 117.172 136.060, 117.678 134.125 C 118.106 132.487, 119.008 132, 121.617 132 C 123.821 132, 125 131.521, 125 130.625 C 125 129.096, 129.228 128, 135.125 128 C 137.903 128, 139 127.575, 139 126.500 C 139 125.348, 140.278 125, 144.500 125 C 148.722 125, 150 125.348, 150 126.500 C 150 128.047, 151.014 128.328, 157 128.437 C 160.319 128.497, 160.500 128.681, 160.500 131.986 C 160.500 134.512, 160.018 135.566, 158.750 135.810 C 157.538 136.043, 157 135.510, 157 134.073 C 157 132.370, 156.375 132, 153.500 132 C 150.667 132, 150 132.381, 150 134 C 150 135.100, 149.377 136, 148.617 136 C 146.624 136, 146.029 139.230, 146.014 150.133 C 145.998 161.424, 146.539 160.964, 133.250 160.986 C 126.589 160.997, 125 161.289, 125 162.500 C 125 163.690, 123.556 164, 118 164 C 112.444 164, 111 163.690, 111 162.500 C 111 161.675, 111.675 161, 112.500 161 C 113.333 161, 114 160.111, 114 159 C 114 157.667, 114.667 157, 116 157 C 117.111 157, 118 156.333, 118 155.500 C 118 154.675, 118.675 154, 119.500 154 C 120.333 154, 121 153.111, 121 152 C 121 150.667, 121.667 150, 123 150 C 124.333 150, 125 149.333, 125 148 C 125 146.148, 125.667 146, 134 146 C 141.333 146, 143 145.722, 143 144.500 C 143 143.667, 142.111 143, 141 143 C 139.667 143, 139 142.333, 139 141 C 139 139.889, 138.333 139, 137.500 139 C 136.675 139, 136 138.325, 136 137.500 C 136 136.417, 134.889 136, 132 136 C 129.111 136, 128 136.417, 128 137.500 C 128 138.548, 126.944 139, 124.500 139 C 121.667 139, 121 139.381, 121 141 C 121 142.111, 120.333 143, 119.500 143 C 118.675 143, 118 143.675, 118 144.500 C 118 145.333, 117.111 146, 116 146 C 114.667 146, 114 146.667, 114 148 C 114 149.333, 113.333 150, 112 150 C 110.667 150, 110 150.667, 110 152 C 110 153.111, 109.333 154, 108.500 154 C 107.675 154, 107 154.675, 107 155.500 C 107 156.333, 106.111 157, 105 157 C 103.900 157, 103 157.655, 103 158.455 C 103 159.325, 101.595 160.173, 99.500 160.566 C 97.495 160.942, 96 161.816, 96 162.611 C 96 163.375, 95.325 164, 94.500 164 C 93.462 164, 93 165.043, 93 167.383 C 93 171.696, 93.987 171.971, 109.500 171.978 C 124.837 171.984, 132 171.151, 132 169.361 C 132 168.343, 133.763 168, 139 168 L 146 168 146 180.500 L 146 193 142.906 193 C 140.654 193, 139.671 193.544, 139.290 195 C 138.789 196.915, 137.926 197, 118.883 197 C 102.266 197, 99 197.236, 99 198.437 C 99 199.327, 97.763 199.993, 95.750 200.187 C 92.875 200.464, 92.463 200.884, 92.181 203.826 C 91.925 206.494, 92.271 207.258, 93.931 207.692 C 95.069 207.990, 96 208.856, 96 209.617 C 96 210.692, 98.004 211, 105 211 C 112.333 211, 114 210.722, 114 209.500 C 114 208.435, 115.087 207.997, 117.750 207.991 C 125.378 207.974, 132 206.751, 132 205.361 C 132 204.332, 133.859 204, 139.617 204 C 147.027 204, 147.217 204.061, 146.630 206.250 C 146.299 207.488, 146.021 214.012, 146.014 220.750 L 146 233 128 233 C 112.667 233, 110 233.222, 110 234.500 C 110 235.766, 107.681 236, 95.125 236 C 78.646 236, 74 236.577, 74 238.625 C 74 239.704, 71.742 240, 63.500 240 C 54.559 240, 53 240.237, 53 241.594 C 53 242.470, 52.100 243.423, 51 243.710 C 49.497 244.103, 49 245.074, 49 247.617 L 49 251 61.250 250.986 C 74.720 250.971, 78 250.462, 78 248.383 C 78 247.436, 79.261 247, 82 247 C 84.680 247, 86 246.557, 86 245.658 C 86 244.608, 89.960 244.172, 104.160 243.658 C 114.148 243.296, 126.073 243, 130.660 243 C 138.249 243, 139 243.175, 139 244.941 C 139 246.009, 139.431 247.148, 139.957 247.473 C 141.666 248.530, 154 246.809, 154 245.514 C 154 243.866, 169.392 243, 198.656 243 C 218.740 243, 222 242.790, 222 241.500 C 222 240.244, 224.111 240, 235 240 C 244.063 240, 248 239.655, 248 238.860 C 248 238.233, 248.707 237.203, 249.572 236.571 C 251.888 234.878, 250.444 230.149, 247.375 229.379 C 246.053 229.047, 241.786 228.956, 237.894 229.176 C 232.538 229.478, 230.584 229.992, 229.859 231.288 C 228.981 232.857, 225.762 233, 191.450 233 L 154 233 154 227.500 C 154 223.278, 154.348 222, 155.500 222 C 156.325 222, 157 221.325, 157 220.500 C 157 219.675, 156.325 219, 155.500 219 C 154.667 219, 154 218.111, 154 217 C 154 215.889, 154.667 215, 155.500 215 C 156.652 215, 157 213.722, 157 209.500 L 157 204 160.448 204 L 163.895 204 164.198 209.250 C 164.490 214.321, 164.606 214.510, 167.619 214.804 C 171.271 215.159, 171.965 213.641, 171.986 205.250 C 171.998 200.662, 171.748 200, 170 200 C 168.900 200, 168 199.375, 168 198.611 C 168 197.816, 166.505 196.942, 164.500 196.566 C 162.405 196.173, 161 195.325, 161 194.455 C 161 193.459, 159.896 193, 157.500 193 L 154 193 154 186 C 154 180.444, 154.310 179, 155.500 179 C 156.652 179, 157 177.722, 157 173.500 L 157 168 160.500 168 C 162.774 168, 164 167.526, 164 166.648 C 164 165.136, 174.484 164.016, 188.750 164.006 L 197 164 197 160.500 L 197 157 191.500 157 C 187.474 157, 186 156.628, 186 155.611 C 186 154.816, 184.505 153.942, 182.500 153.566 C 180.405 153.173, 179 152.325, 179 151.455 C 179 150.459, 177.896 150, 175.500 150 C 172.964 150, 172 149.561, 172 148.406 C 172 147.530, 171.100 146.577, 170 146.290 C 168.583 145.919, 168 144.926, 168 142.883 C 168 140.987, 167.487 140, 166.500 140 C 165.667 140, 165 139.111, 165 138 C 165 136.889, 165.667 136, 166.500 136 C 167.700 136, 168 134.500, 168 128.500 C 168 122.500, 167.700 121, 166.500 121 C 165.675 121, 165 120.325, 165 119.500 C 165 118.675, 165.675 118, 166.500 118 C 167.333 118, 168 117.111, 168 116 C 168 114.667, 168.667 114, 170 114 C 171.333 114, 172 113.333, 172 112 C 172 110.889, 172.667 110, 173.500 110 C 174.336 110, 175 109.110, 175 107.990 C 175 106.885, 175.900 105.210, 177 104.268 C 178.100 103.326, 179 101.981, 179 101.278 C 179 100.575, 179.625 100, 180.389 100 C 181.184 100, 182.058 98.505, 182.434 96.500 C 182.827 94.405, 183.675 93, 184.545 93 C 185.532 93, 186 91.911, 186 89.617 C 186 87.074, 186.497 86.103, 188 85.710 C 189.197 85.397, 190 84.346, 190 83.094 C 190 81.899, 190.644 81, 191.500 81 C 192.624 81, 193 79.802, 193 76.222 C 193 72.682, 193.518 71.001, 195 69.732 C 197.327 67.739, 197.642 64.184, 195.561 63.385 C 194.770 63.081, 193.837 61.535, 193.489 59.948 C 192.982 57.641, 192.168 56.935, 189.428 56.420 C 187.478 56.055, 186 55.178, 186 54.389 C 186 53.361, 184.471 53, 180.125 53 C 172.342 53, 168 52.060, 168 50.375 C 168 49.274, 165.220 49, 154.050 49 C 142.226 49, 139.961 49.247, 139.192 50.621 M 125 61.399 C 125 62.396, 122.995 62.998, 118 63.500 C 113.005 64.002, 111 64.604, 111 65.601 C 111 66.371, 110.276 67, 109.391 67 C 107.208 67, 103.039 71.089, 103.017 73.250 C 103.008 74.213, 102.377 75, 101.617 75 C 99.713 75, 99.015 78.327, 99.701 84.122 C 100.076 87.286, 100.757 89, 101.639 89 C 102.609 89, 103 90.464, 103 94.094 C 103 98.346, 103.330 99.274, 105 99.710 C 106.756 100.169, 107 101.074, 107 107.117 C 107 112.569, 107.312 114, 108.500 114 C 109.548 114, 110 115.056, 110 117.500 L 110 121 121 121 C 129.667 121, 132 120.708, 132 119.625 C 132 117.754, 136.489 117, 147.625 117 C 155.292 117, 157 116.727, 157 115.500 C 157 114.667, 157.889 114, 159 114 C 160.333 114, 161 113.333, 161 112 C 161 110.889, 161.667 110, 162.500 110 C 164.029 110, 164.125 109.377, 164.383 97.750 L 164.500 92.500 160.544 92.177 C 154.903 91.717, 150 92.818, 150 94.545 C 150 95.677, 148.473 96, 143.117 96 C 137.074 96, 136.169 96.244, 135.710 98 C 135.310 99.532, 134.346 100, 131.594 100 C 129.066 100, 128 100.445, 128 101.500 C 128 102.325, 127.501 103, 126.891 103 C 125.355 103, 121.038 107.226, 121.017 108.750 C 121.007 109.509, 119.624 110, 117.500 110 L 114 110 114 103 L 114 96 117.500 96 C 120.333 96, 121 95.619, 121 94 C 121 92.381, 121.667 92, 124.500 92 C 126.944 92, 128 91.548, 128 90.500 C 128 89.445, 129.066 89, 131.594 89 C 134.346 89, 135.310 88.532, 135.710 87 C 136.169 85.244, 137.074 85, 143.117 85 C 148.338 85, 150 84.663, 150 83.605 C 150 81.968, 156.079 81.145, 163.250 81.813 C 166.395 82.105, 168 82.718, 168 83.627 C 168 84.382, 168.900 85, 170 85 C 171.619 85, 172 85.667, 172 88.500 C 172 90.944, 172.452 92, 173.500 92 C 174.325 92, 175 91.325, 175 90.500 C 175 89.667, 175.889 89, 177 89 C 178.667 89, 179 88.333, 179 85 C 179 82.111, 179.417 81, 180.500 81 C 181.466 81, 182.005 80.022, 182.014 78.250 C 182.035 73.968, 183.101 71, 184.617 71 C 185.377 71, 186 70.100, 186 69 C 186 67.667, 185.333 67, 184 67 C 182.889 67, 182 66.333, 182 65.500 C 182 64.588, 181.069 64, 179.625 64 C 175.120 64, 171 62.746, 171 61.375 C 171 60.248, 166.848 60, 148 60 C 128.964 60, 125 60.241, 125 61.399 M 157 148.500 C 157 152.722, 156.652 154, 155.500 154 C 153.111 154, 153.765 156.728, 156.250 157.133 C 157.488 157.335, 162.213 157.353, 166.750 157.174 C 173.068 156.924, 175 156.514, 175 155.424 C 175 154.641, 174.325 154, 173.500 154 C 172.667 154, 172 153.111, 172 152 C 172 150.667, 171.333 150, 170 150 C 168.667 150, 168 149.333, 168 148 C 168 146.381, 167.333 146, 164.500 146 C 162.056 146, 161 145.548, 161 144.500 C 161 143.667, 160.111 143, 159 143 C 157.242 143, 157 143.667, 157 148.500" stroke="none" fill="black" fill-rule="evenodd"/>
</svg>