<svg xmlns="http://www.w3.org/2000/svg" width="300" height="300" viewBox="0 0 300 300" version="1.1">
	<path d="M 149 29.500 C 149 30.769, 146.577 31.002, 133.250 31.014 C 116.331 31.028, 113 31.456, 113 33.617 C 113 34.377, 112.100 35, 111 35 C 109.381 35, 109 35.667, 109 38.500 C 109 41.333, 109.381 42, 111 42 C 112.333 42, 113 42.667, 113 44 C 113 45.163, 113.667 46, 114.594 46 C 115.470 46, 116.423 45.100, 116.710 44 C 117.169 42.244, 118.074 42, 124.117 42 C 129.243 42, 131 41.654, 131 40.644 C 131 39.678, 133.086 39.131, 138.256 38.740 C 148.540 37.962, 159 38.919, 159 40.637 C 159 41.519, 160.194 42, 162.383 42 C 166.258 42, 166.964 43.418, 166.986 51.250 C 166.997 54.799, 167.379 56, 168.500 56 C 169.700 56, 170 57.500, 170 63.500 C 170 69.500, 169.700 71, 168.500 71 C 167.317 71, 166.996 72.424, 166.983 77.750 C 166.968 83.543, 166.629 84.819, 164.592 86.750 C 161.737 89.456, 160.422 89.576, 159.121 87.250 C 158.313 85.804, 156.396 85.440, 148.072 85.156 C 140.247 84.889, 138 84.499, 138 83.406 C 138 82.368, 136.559 82, 132.500 82 C 127.667 82, 127 81.758, 127 80 C 127 78.178, 126.333 78, 119.500 78 C 113.500 78, 112 78.300, 112 79.500 C 112 80.500, 111 81, 109 81 C 106.059 81, 106 80.899, 106 75.906 C 106 71.654, 105.670 70.726, 104 70.290 C 102.344 69.857, 102 68.926, 102 64.883 C 102 61.407, 101.604 60, 100.625 60 C 99.096 60, 98 55.772, 98 49.875 C 98 47.097, 97.575 46, 96.500 46 C 95.667 46, 95 45.111, 95 44 C 95 42.390, 94.333 42, 91.579 42 C 88.605 42, 88.074 42.384, 87.511 44.951 C 86.571 49.230, 87.927 57, 89.614 57 C 90.531 57, 91 58.183, 91 60.500 C 91 62.813, 91.469 64, 92.383 64 C 94.103 64, 94.969 67.077, 94.986 73.250 C 94.996 76.630, 95.401 78, 96.389 78 C 97.184 78, 98.058 79.495, 98.434 81.500 C 98.827 83.595, 99.675 85, 100.545 85 C 101.345 85, 102 85.900, 102 87 C 102 88.100, 102.623 89, 103.383 89 C 104.144 89, 105.002 89.900, 105.290 91 C 105.726 92.670, 106.654 93, 110.906 93 C 114.767 93, 116 93.363, 116 94.500 C 116 95.652, 117.278 96, 121.500 96 L 127 96 127 105 C 127 111.996, 126.692 114, 125.617 114 C 124.856 114, 123.998 114.900, 123.710 116 C 123.236 117.815, 122.346 118, 114.094 118 C 106.677 118, 105 118.277, 105 119.500 C 105 120.793, 101.556 121, 80 121 L 55 121 55 126.500 L 55 132 69.500 132 C 81.722 132, 84 131.764, 84 130.500 C 84 129.275, 85.696 128.999, 93.250 128.996 C 113.395 128.988, 131 127.752, 131 126.344 C 131 125.605, 131.900 125, 133 125 C 134.111 125, 135 125.667, 135 126.500 C 135 127.325, 135.675 128, 136.500 128 C 137.325 128, 138 127.363, 138 126.584 C 138 125.459, 140.482 125.099, 150.072 124.834 C 159.658 124.569, 162.321 124.183, 163.004 122.960 C 164.280 120.676, 206 120.150, 206 122.418 C 206 123.331, 204.642 124.164, 202.500 124.566 C 200.495 124.942, 199 125.816, 199 126.611 C 199 127.532, 197.820 128, 195.500 128 C 192.667 128, 192 128.381, 192 130 C 192 131.619, 191.333 132, 188.500 132 C 186.104 132, 185 132.459, 185 133.455 C 185 135.288, 190.783 136.451, 195.500 135.566 C 197.595 135.173, 199 134.325, 199 133.455 C 199 132.358, 200.354 132, 204.500 132 C 208.516 132, 210 131.627, 210 130.617 C 210 129.856, 210.900 128.998, 212 128.710 C 213.100 128.423, 214 127.470, 214 126.594 C 214 125.717, 214.675 125, 215.500 125 C 216.333 125, 217 124.111, 217 123 C 217 121.900, 217.626 121, 218.392 121 C 220.101 121, 221.250 116.845, 220.437 113.605 C 219.927 111.571, 219.057 111.123, 214.668 110.636 C 210.494 110.173, 201.711 110.279, 190.250 110.929 C 189.563 110.968, 189 111.675, 189 112.500 C 189 113.767, 186.667 114, 174 114 C 161.333 114, 159 114.233, 159 115.500 C 159 116.325, 158.325 117, 157.500 117 C 156.675 117, 156 116.325, 156 115.500 C 156 114.675, 155.325 114, 154.500 114 C 153.675 114, 153 114.629, 153 115.397 C 153 116.458, 150.891 116.888, 144.250 117.182 C 139.438 117.395, 134.488 117.389, 133.250 117.168 C 130.465 116.671, 130.254 114, 133 114 C 134.619 114, 135 113.333, 135 110.500 C 135 108.056, 135.452 107, 136.500 107 C 137.690 107, 138 105.556, 138 100 L 138 93 147 93 C 154.333 93, 156 93.278, 156 94.500 C 156 95.325, 156.675 96, 157.500 96 C 158.333 96, 159 96.889, 159 98 C 159 99.667, 159.667 100, 163 100 C 166.878 100, 167 99.897, 167 96.617 C 167 94.074, 167.497 93.103, 169 92.710 C 170.100 92.423, 171 91.470, 171 90.594 C 171 89.717, 171.675 89, 172.500 89 C 173.548 89, 174 87.944, 174 85.500 C 174 83.197, 174.470 82, 175.375 82 C 177.332 82, 178.001 77.429, 177.991 64.125 C 177.980 49.112, 177.134 42, 175.361 42 C 174.612 42, 174 41.100, 174 40 C 174 38.667, 173.333 38, 172 38 C 170.889 38, 170 37.333, 170 36.500 C 170 35.675, 169.325 35, 168.500 35 C 167.667 35, 167 34.111, 167 33 C 167 31.178, 166.333 31, 159.500 31 C 153.500 31, 152 30.700, 152 29.500 C 152 28.675, 151.325 28, 150.500 28 C 149.675 28, 149 28.675, 149 29.500 M 123.680 55.851 C 122.729 60.607, 123.829 62.745, 127.592 63.451 C 129.614 63.831, 131 64.682, 131 65.545 C 131 66.541, 132.104 67, 134.500 67 C 136.896 67, 138 67.459, 138 68.455 C 138 69.325, 139.405 70.173, 141.500 70.566 C 144.682 71.163, 145 71.530, 145 74.611 C 145 77.898, 145.120 78, 149 78 C 152.978 78, 153 77.979, 153 74.125 C 153 67.771, 151.943 64.218, 149.893 63.682 C 148.852 63.410, 148 62.470, 148 61.594 C 148 60.348, 146.908 60, 143 60 C 139.291 60, 138 59.624, 138 58.545 C 138 57.675, 136.595 56.827, 134.500 56.434 C 132.495 56.058, 131 55.184, 131 54.389 C 131 53.478, 129.838 53, 127.625 53 C 124.714 53, 124.172 53.392, 123.680 55.851 M 152.290 130 C 151.859 131.647, 150.926 132, 147 132 C 143.074 132, 142.141 132.353, 141.710 134 C 141.423 135.100, 140.470 136, 139.594 136 C 138.717 136, 138 136.675, 138 137.500 C 138 138.325, 137.345 139, 136.545 139 C 135.682 139, 134.831 140.386, 134.451 142.408 C 134.044 144.579, 133.120 145.997, 131.906 146.314 C 130.858 146.588, 130 147.530, 130 148.406 C 130 149.283, 129.325 150, 128.500 150 C 127.667 150, 127 150.889, 127 152 C 127 153.100, 126.340 154, 125.534 154 C 124.531 154, 123.860 155.576, 123.406 159 C 122.975 162.246, 122.261 164, 121.371 164 C 120.617 164, 120 164.900, 120 166 C 120 167.100, 119.381 168, 118.625 168 C 117.254 168, 116 163.880, 116 159.375 C 116 157.931, 115.412 157, 114.500 157 C 113.310 157, 113 155.560, 113 150.039 L 113 143.078 121.750 142.789 C 128.733 142.558, 130.500 142.197, 130.500 141 C 130.500 139.844, 128.952 139.432, 123.750 139.204 C 118.950 138.994, 117 138.525, 117 137.579 C 117 136.048, 112.683 135, 106.375 135 L 102 135 102 144.500 C 102 151.922, 102.303 154, 103.383 154 C 104.899 154, 105.965 156.968, 105.986 161.250 C 105.995 163.022, 106.534 164, 107.500 164 C 108.583 164, 109 165.111, 109 168 C 109 171.333, 109.333 172, 111 172 C 112.619 172, 113 172.667, 113 175.500 C 113 178.333, 112.619 179, 111 179 C 109.889 179, 109 179.667, 109 180.500 C 109 181.325, 108.325 182, 107.500 182 C 106.667 182, 106 182.889, 106 184 C 106 185.333, 105.333 186, 104 186 C 102.889 186, 102 186.667, 102 187.500 C 102 188.333, 101.111 189, 100 189 C 98.667 189, 98 189.667, 98 191 C 98 192.337, 97.333 193, 95.990 193 C 94.885 193, 93.210 193.900, 92.268 195 C 91.326 196.100, 90.033 197, 89.394 197 C 88.756 197, 87.998 197.900, 87.710 199 C 87.423 200.100, 86.470 201, 85.594 201 C 84.717 201, 84 201.675, 84 202.500 C 84 203.333, 83.111 204, 82 204 C 80.667 204, 80 204.667, 80 206 C 80 207.111, 79.333 208, 78.500 208 C 77.675 208, 77 208.675, 77 209.500 C 77 210.333, 76.111 211, 75 211 C 73.667 211, 73 211.667, 73 213 C 73 214.100, 72.377 215, 71.617 215 C 70.856 215, 69.998 215.900, 69.710 217 C 69.423 218.100, 68.470 219, 67.594 219 C 66.717 219, 66 219.675, 66 220.500 C 66 221.325, 65.377 222, 64.617 222 C 63.856 222, 62.998 222.900, 62.710 224 C 62.423 225.100, 61.470 226, 60.594 226 C 59.717 226, 59 226.675, 59 227.500 C 59 228.333, 58.111 229, 57 229 C 55.667 229, 55 229.667, 55 231 C 55 232.111, 54.333 233, 53.500 233 C 52.667 233, 52 233.889, 52 235 C 52 236.111, 52.667 237, 53.500 237 C 54.325 237, 55 237.675, 55 238.500 C 55 239.548, 56.056 240, 58.500 240 C 60.944 240, 62 239.548, 62 238.500 C 62 237.667, 62.889 237, 64 237 C 65.667 237, 66 236.333, 66 233 C 66 229.667, 66.333 229, 68 229 C 69.111 229, 70 228.333, 70 227.500 C 70 226.675, 70.675 226, 71.500 226 C 72.333 226, 73 225.111, 73 224 C 73 222.667, 73.667 222, 75 222 C 76.100 222, 77 221.377, 77 220.617 C 77 219.856, 77.900 218.998, 79 218.710 C 80.100 218.423, 81 217.470, 81 216.594 C 81 215.717, 81.675 215, 82.500 215 C 83.325 215, 84 214.377, 84 213.617 C 84 212.856, 84.900 211.998, 86 211.710 C 87.100 211.423, 88 210.470, 88 209.594 C 88 208.717, 88.717 208, 89.594 208 C 90.470 208, 91.423 207.100, 91.710 206 C 92.081 204.583, 93.074 204, 95.117 204 C 97.333 204, 98 203.538, 98 202 C 98 200.667, 98.667 200, 100 200 C 101.549 200, 102 199.333, 102 197.045 C 102 194.460, 102.438 194.008, 105.500 193.434 C 107.425 193.073, 109 192.205, 109 191.505 C 109 190.806, 109.900 189.998, 111 189.710 C 112.100 189.423, 113 188.470, 113 187.594 C 113 186.439, 113.964 186, 116.500 186 C 118.803 186, 120 185.530, 120 184.625 C 120 183.104, 124.222 182, 130.037 182 C 133.676 182, 133.851 182.156, 134.500 186 C 134.915 188.459, 135.720 190, 136.588 190 C 137.726 190, 138 192.332, 138 202 C 138 211.490, 138.286 214, 139.369 214 C 140.979 214, 141.973 219.028, 141.989 227.250 C 141.997 231.422, 142.373 233, 143.358 233 C 144.410 233, 144.833 236.066, 145.236 246.615 C 145.529 254.299, 146.204 260.508, 146.786 260.868 C 147.353 261.218, 148.133 263.191, 148.520 265.252 C 149.037 268.012, 149.721 269, 151.111 269 C 152.150 269, 153 268.325, 153 267.500 C 153 266.675, 153.675 266, 154.500 266 C 155.785 266, 156 263.056, 156 245.500 C 156 228.877, 155.743 225, 154.639 225 C 153.150 225, 152.024 218.255, 152.009 209.250 C 152.002 205.254, 151.642 204, 150.500 204 C 149.348 204, 149 202.722, 149 198.500 C 149 194.484, 148.627 193, 147.617 193 C 146.856 193, 145.962 191.988, 145.630 190.750 C 144.689 187.238, 144.885 186, 146.383 186 C 147.959 186, 148.966 183, 148.986 178.250 C 148.999 175.205, 149.221 175, 152.500 175 C 154.944 175, 156 174.548, 156 173.500 C 156 172.445, 157.066 172, 159.594 172 C 162.346 172, 163.310 171.532, 163.710 170 C 164.074 168.610, 165.074 168, 166.992 168 C 169.281 168, 169.856 167.469, 170.375 164.875 C 170.719 163.156, 171 160.622, 171 159.243 C 171 156.748, 170.967 156.739, 163.500 157.218 C 156.858 157.645, 156 157.501, 156 155.961 C 156 154.766, 157.094 154.017, 159.500 153.566 C 161.595 153.173, 163 152.325, 163 151.455 C 163 150.655, 163.655 150, 164.455 150 C 165.325 150, 166.173 148.595, 166.566 146.500 C 166.927 144.575, 167.797 143, 168.500 143 C 169.203 143, 170.073 141.425, 170.434 139.500 C 170.827 137.405, 171.675 136, 172.545 136 C 173.576 136, 174 134.834, 174 132 L 174 128 163.406 128 C 153.654 128, 152.771 128.159, 152.290 130 M 152.710 141 C 152.310 142.532, 151.346 143, 148.594 143 C 145.667 143, 145 143.371, 145 145 C 145 146.111, 144.333 147, 143.500 147 C 142.675 147, 142 147.675, 142 148.500 C 142 149.333, 141.111 150, 140 150 C 138.667 150, 138 150.667, 138 152 C 138 153.333, 137.333 154, 136 154 C 134.889 154, 134 154.667, 134 155.500 C 134 156.325, 133.325 157, 132.500 157 C 131.410 157, 131 158.124, 131 161.117 C 131 164.898, 131.183 165.184, 133.250 164.630 C 134.488 164.299, 136.063 164.021, 136.750 164.014 C 137.438 164.006, 138 163.325, 138 162.500 C 138 161.667, 138.889 161, 140 161 C 141.111 161, 142 160.333, 142 159.500 C 142 158.675, 142.675 158, 143.500 158 C 144.325 158, 145 157.150, 145 156.111 C 145 154.752, 145.961 154.042, 148.428 153.580 C 151.196 153.060, 151.980 152.366, 152.507 149.968 C 152.866 148.336, 153.798 147, 154.579 147 C 155.361 147, 156 146.100, 156 145 C 156 143.889, 156.667 143, 157.500 143 C 158.333 143, 159 142.111, 159 141 C 159 139.462, 158.333 139, 156.117 139 C 154.074 139, 153.081 139.583, 152.710 141 M 177.710 206 C 177.266 207.699, 176.346 208, 171.594 208 C 167.288 208, 166 208.345, 166 209.500 C 166 210.655, 167.288 211, 171.594 211 C 176.346 211, 177.266 211.301, 177.710 213 C 178.184 214.811, 179.074 215, 187.117 215 C 194.346 215, 196 215.279, 196 216.500 C 196 217.663, 197.319 218, 201.875 218 C 209.658 218, 214 218.940, 214 220.625 C 214 221.661, 215.727 222, 221 222 C 226.291 222, 228 222.337, 228 223.383 C 228 224.374, 230.122 224.964, 235.500 225.468 C 240.968 225.980, 243 226.554, 243 227.585 C 243 228.363, 243.675 229, 244.500 229 C 245.325 229, 246 228.325, 246 227.500 C 246 226.675, 246.648 226, 247.441 226 C 249.530 226, 250.074 224.620, 249.371 221.103 C 248.754 218.022, 248.705 218, 242.375 218 C 237.375 218, 236 217.676, 236 216.500 C 236 215.333, 234.667 215, 230 215 C 225.558 215, 224 214.641, 224 213.617 C 224 211.897, 220.923 211.031, 214.750 211.014 C 211.393 211.004, 210 210.597, 210 209.625 C 210 208.052, 205.741 207, 199.375 207 C 196.153 207, 195 206.605, 195 205.500 C 195 204.286, 193.402 204, 186.617 204 C 179.074 204, 178.181 204.201, 177.710 206" stroke="none" fill="black" fill-rule="evenodd"/>
</svg>