<svg xmlns="http://www.w3.org/2000/svg" width="300" height="300" viewBox="0 0 300 300" version="1.1">
	<path d="M 239 49.500 C 239 50.325, 238.283 51, 237.406 51 C 236.530 51, 235.588 51.858, 235.314 52.908 C 235.040 53.957, 233.909 55.052, 232.802 55.341 C 231.695 55.631, 230.986 56.460, 231.226 57.184 C 231.542 58.138, 234.600 58.578, 242.331 58.784 C 250.909 59.012, 253 59.355, 253 60.534 C 253 61.578, 254.152 62, 257 62 C 259.889 62, 261 61.583, 261 60.500 C 261 59.675, 261.675 59, 262.500 59 C 263.333 59, 264 58.111, 264 57 C 264 55.242, 263.333 55, 258.500 55 C 254.474 55, 253 54.628, 253 53.611 C 253 52.816, 251.505 51.942, 249.500 51.566 C 247.405 51.173, 246 50.325, 246 49.455 C 246 48.459, 244.896 48, 242.500 48 C 240.056 48, 239 48.452, 239 49.500 M 159.710 57 C 159.329 58.456, 158.346 59, 156.094 59 C 154.010 59, 153 59.490, 153 60.500 C 153 61.333, 152.111 62, 151 62 C 149.667 62, 149 62.667, 149 64 C 149 65.333, 148.333 66, 147 66 C 145.889 66, 145 66.667, 145 67.500 C 145 68.325, 144.283 69, 143.406 69 C 142.530 69, 141.577 69.900, 141.290 71 C 141.002 72.100, 140.144 73, 139.383 73 C 138.623 73, 138 73.623, 138 74.383 C 138 75.144, 137.100 76.002, 136 76.290 C 134.900 76.577, 134 77.530, 134 78.406 C 134 79.283, 133.325 80, 132.500 80 C 131.667 80, 131 80.889, 131 82 C 131 83.333, 130.333 84, 129 84 C 127.667 84, 127 84.667, 127 86 C 127 87.100, 126.361 88, 125.579 88 C 124.798 88, 123.862 89.350, 123.500 91 C 123.138 92.650, 122.202 94, 121.421 94 C 120.639 94, 120 94.848, 120 95.883 C 120 96.926, 119.107 98, 118 98.290 C 116.900 98.577, 116 99.530, 116 100.406 C 116 101.283, 115.377 102, 114.617 102 C 113.856 102, 112.998 102.900, 112.710 104 C 112.423 105.100, 111.470 106, 110.594 106 C 109.439 106, 109 106.964, 109 109.500 C 109 112.333, 109.381 113, 111 113 C 112.333 113, 113 112.333, 113 111 C 113 109.667, 113.667 109, 115 109 C 116.100 109, 117 108.361, 117 107.579 C 117 106.798, 118.350 105.862, 120 105.500 C 121.650 105.138, 123 104.202, 123 103.421 C 123 102.639, 123.850 102, 124.889 102 C 126.255 102, 126.959 101.033, 127.434 98.500 C 127.827 96.405, 128.675 95, 129.545 95 C 130.345 95, 131 94.325, 131 93.500 C 131 92.675, 131.675 92, 132.500 92 C 133.356 92, 134 91.101, 134 89.906 C 134 88.654, 134.803 87.603, 136 87.290 C 137.100 87.002, 138 86.144, 138 85.383 C 138 84.623, 138.675 84, 139.500 84 C 140.325 84, 141 83.283, 141 82.406 C 141 81.530, 141.852 80.590, 142.893 80.318 C 143.999 80.028, 145.029 78.605, 145.372 76.891 C 145.825 74.623, 146.643 73.821, 148.979 73.354 C 150.695 73.011, 152 72.115, 152 71.281 C 152 70.474, 152.900 69.577, 154 69.290 C 155.100 69.002, 156 68.144, 156 67.383 C 156 66.469, 157.187 66, 159.500 66 C 161.944 66, 163 65.548, 163 64.500 C 163 63.452, 164.056 63, 166.500 63 C 168.944 63, 170 63.452, 170 64.500 C 170 65.325, 169.377 66, 168.617 66 C 166.862 66, 166.115 69.840, 166.759 75.552 C 167.081 78.407, 167.751 80, 168.630 80 C 169.384 80, 170 80.900, 170 82 C 170 83.333, 170.667 84, 172 84 C 173.333 84, 174 84.667, 174 86 C 174 87.100, 174.655 88, 175.455 88 C 176.325 88, 177.173 89.405, 177.566 91.500 C 177.927 93.425, 178.795 95, 179.495 95 C 180.194 95, 181.002 95.900, 181.290 97 C 181.577 98.100, 182.530 99, 183.406 99 C 184.283 99, 185 99.675, 185 100.500 C 185 101.325, 185.675 102, 186.500 102 C 187.325 102, 188 102.717, 188 103.594 C 188 104.470, 188.900 105.423, 190 105.710 C 192.336 106.321, 192.718 109, 190.469 109 C 189.626 109, 188.678 109.675, 188.362 110.500 C 188.045 111.325, 187.159 112, 186.393 112 C 185.627 112, 185 111.325, 185 110.500 C 185 109.667, 184.111 109, 183 109 C 181.900 109, 181 109.623, 181 110.383 C 181 111.959, 178 112.966, 173.250 112.986 C 171.034 112.996, 170 113.477, 170 114.500 C 170 115.652, 168.722 116, 164.500 116 L 159 116 159 112.500 C 159 110.056, 158.548 109, 157.500 109 C 156.675 109, 156 108.325, 156 107.500 C 156 106.667, 156.889 106, 158 106 C 159.333 106, 160 105.333, 160 104 C 160 102.889, 160.667 102, 161.500 102 C 162.325 102, 163 102.675, 163 103.500 C 163 104.548, 164.056 105, 166.500 105 C 168.944 105, 170 104.548, 170 103.500 C 170 102.452, 168.944 102, 166.500 102 C 164.056 102, 163 101.548, 163 100.500 C 163 99.675, 162.283 99, 161.406 99 C 160.530 99, 159.577 98.100, 159.290 97 C 158.634 94.491, 152 94.036, 152 96.500 C 152 97.325, 151.325 98, 150.500 98 C 149.272 98, 149 99.722, 149 107.500 C 149 116.333, 148.860 117, 147 117 C 145.889 117, 145 117.667, 145 118.500 C 145 119.753, 142.944 120, 132.500 120 C 122.436 120, 120 120.274, 120 121.404 C 120 122.474, 117.507 122.977, 109.500 123.523 C 101.583 124.063, 99 124.578, 99 125.619 C 99 126.626, 97.511 127, 93.500 127 L 88 127 87.986 122.250 C 87.966 115.079, 87.179 113.198, 83.898 112.478 C 82.304 112.128, 81 111.202, 81 110.421 C 81 109.319, 79.314 109, 73.500 109 L 66 109 66 103.500 L 66 98 62.500 98 C 59.221 98, 58.999 98.205, 58.986 101.250 C 58.966 106, 57.959 109, 56.383 109 C 55.623 109, 55 109.900, 55 111 C 55 112.333, 54.333 113, 53 113 C 51.889 113, 51 113.667, 51 114.500 C 51 115.548, 49.944 116, 47.500 116 C 44.667 116, 44 116.381, 44 118 C 44 119.111, 43.333 120, 42.500 120 C 41.667 120, 41 119.111, 41 118 C 41 116.667, 40.333 116, 39 116 C 37.381 116, 37 115.333, 37 112.500 C 37 110.056, 36.548 109, 35.500 109 C 34.452 109, 34 107.944, 34 105.500 L 34 102 28.500 102 L 23 102 23 106.883 C 23 110.926, 23.344 111.857, 25 112.290 C 26.100 112.577, 27 113.530, 27 114.406 C 27 115.283, 27.675 116, 28.500 116 C 29.333 116, 30 116.889, 30 118 C 30 119.100, 30.655 120, 31.455 120 C 32.325 120, 33.173 121.405, 33.566 123.500 C 33.927 125.425, 34.795 127, 35.495 127 C 36.194 127, 37.002 127.900, 37.290 129 C 37.577 130.100, 38.530 131, 39.406 131 C 40.283 131, 41 131.675, 41 132.500 C 41 133.325, 41.625 134, 42.389 134 C 43.178 134, 44.055 135.478, 44.420 137.428 C 44.933 140.162, 45.643 140.982, 47.930 141.485 C 50.910 142.139, 51.961 144.151, 51.986 149.250 C 51.995 151.022, 52.534 152, 53.500 152 C 54.333 152, 55 152.889, 55 154 C 55 155.100, 55.619 156, 56.375 156 C 58.531 156, 59 160.756, 59 182.625 C 59 200.069, 59.216 203, 60.500 203 C 61.663 203, 62 204.319, 62 208.875 C 62 212.106, 62.281 216.156, 62.625 217.875 C 63.247 220.985, 63.281 221, 69.656 221 C 74.376 221, 76.212 220.612, 76.628 219.527 C 76.939 218.717, 78.725 217.767, 80.597 217.416 C 82.527 217.054, 84 216.177, 84 215.389 C 84 214.625, 84.717 214, 85.594 214 C 86.470 214, 87.423 213.100, 87.710 212 C 87.998 210.900, 88.856 210, 89.617 210 C 90.377 210, 91 209.325, 91 208.500 C 91 207.675, 91.717 207, 92.594 207 C 93.470 207, 94.423 206.100, 94.710 205 C 94.998 203.900, 95.898 203, 96.710 203 C 97.523 203, 98.423 202.100, 98.710 201 C 98.998 199.900, 99.856 199, 100.617 199 C 101.610 199, 102 197.590, 102 194 L 102 189 105.500 189 C 107.944 189, 109 189.452, 109 190.500 C 109 191.538, 110.043 192, 112.383 192 C 114.963 192, 115.895 192.491, 116.308 194.069 C 116.742 195.728, 117.506 196.075, 120.166 195.819 C 123.879 195.462, 124.582 193.918, 123.547 188.400 C 122.993 185.444, 122.523 185, 119.955 185 C 117.667 185, 117 184.549, 117 183 C 117 181.667, 116.333 181, 115 181 C 113.900 181, 113 180.377, 113 179.617 C 113 178.856, 112.100 177.998, 111 177.710 C 109.900 177.423, 109 176.470, 109 175.594 C 109 174.717, 108.377 174, 107.617 174 C 106.856 174, 105.990 173.069, 105.692 171.931 C 105.258 170.271, 104.494 169.925, 101.826 170.181 L 98.500 170.500 98.212 179.750 C 97.985 187.069, 97.620 189, 96.462 189 C 95.504 189, 95 190.034, 95 192 C 95 194.078, 94.510 195, 93.406 195 C 92.530 195, 91.577 195.900, 91.290 197 C 91.002 198.100, 90.197 199, 89.500 199 C 88.803 199, 87.998 199.900, 87.710 201 C 87.423 202.100, 86.470 203, 85.594 203 C 84.717 203, 84 203.625, 84 204.389 C 84 205.184, 82.505 206.058, 80.500 206.434 C 78.405 206.827, 77 207.675, 77 208.545 C 77 209.541, 75.896 210, 73.500 210 C 70.124 210, 70 209.867, 69.991 206.250 C 69.974 198.622, 68.751 192, 67.361 192 C 66.258 192, 66 188.201, 66 172 C 66 155.386, 66.241 152, 67.421 152 C 68.202 152, 69.134 150.664, 69.493 149.032 C 70.020 146.634, 70.804 145.940, 73.572 145.420 C 75.458 145.067, 77 144.203, 77 143.500 C 77 142.797, 78.575 141.927, 80.500 141.566 C 82.595 141.173, 84 140.325, 84 139.455 C 84 138.290, 85.791 138, 93 138 C 100.333 138, 102 137.722, 102 136.500 C 102 135.588, 102.931 135, 104.375 135 C 108.880 135, 113 133.746, 113 132.375 C 113 131.340, 114.720 131, 119.950 131 C 125.513 131, 127.095 130.653, 127.874 129.261 C 128.643 127.886, 130.545 127.445, 136.947 127.154 C 146.725 126.710, 152 127.548, 152 129.545 C 152 130.345, 151.325 131, 150.500 131 C 149.452 131, 149 132.056, 149 134.500 C 149 136.944, 149.452 138, 150.500 138 C 151.690 138, 152 139.444, 152 145 C 152 150.556, 151.690 152, 150.500 152 C 149.236 152, 149 154.278, 149 166.500 C 149 178.722, 149.236 181, 150.500 181 C 151.363 181, 152 181.903, 152 183.125 C 152 184.972, 152.409 185.168, 155.125 184.625 C 156.844 184.281, 159.319 184, 160.625 184 L 163 184 163 170 C 163 158.222, 162.762 156, 161.500 156 C 160.452 156, 160 154.944, 160 152.500 C 160 150.056, 160.452 149, 161.500 149 C 162.690 149, 163 147.556, 163 142 C 163 136.444, 162.690 135, 161.500 135 C 160.348 135, 160 133.722, 160 129.500 L 160 124 164.750 123.986 C 170.923 123.969, 174 123.103, 174 121.383 C 174 120.289, 176.301 120, 185 120 C 194.111 120, 196 119.742, 196 118.500 C 196 117.675, 196.675 117, 197.500 117 C 198.325 117, 199 117.675, 199 118.500 C 199 119.333, 199.889 120, 201 120 C 202.333 120, 203 120.667, 203 122 C 203 123.100, 203.623 124, 204.383 124 C 205.144 124, 206.002 124.900, 206.290 126 C 206.577 127.100, 207.530 128, 208.406 128 C 209.510 128, 210 128.922, 210 131 C 210 133.333, 210.444 134, 212 134 C 213.333 134, 214 134.667, 214 136 C 214 137.100, 214.625 138, 215.389 138 C 216.178 138, 217.055 139.478, 217.420 141.428 C 217.940 144.196, 218.634 144.980, 221.032 145.507 C 223.496 146.048, 224 146.654, 224 149.079 C 224 151.009, 223.491 152, 222.500 152 C 221.667 152, 221 152.889, 221 154 C 221 155.111, 220.333 156, 219.500 156 C 218.675 156, 218 156.717, 218 157.594 C 218 158.470, 217.100 159.423, 216 159.710 C 214.565 160.086, 214 161.074, 214 163.210 C 214 165.346, 213.435 166.335, 212 166.710 C 210.497 167.103, 210 168.074, 210 170.617 C 210 173.333, 209.606 174, 208 174 C 206.667 174, 206 174.667, 206 176 C 206 177.111, 205.333 178, 204.500 178 C 203.675 178, 203 178.675, 203 179.500 C 203 180.333, 202.111 181, 201 181 C 199.387 181, 199 181.667, 199 184.441 C 199 186.334, 199.404 188.132, 199.897 188.437 C 201.470 189.409, 207 187.804, 207 186.375 C 207 185.619, 207.675 185, 208.500 185 C 209.333 185, 210 184.111, 210 183 C 210 181.667, 210.667 181, 212 181 C 213.333 181, 214 180.333, 214 179 C 214 177.889, 214.667 177, 215.500 177 C 216.510 177, 217 175.990, 217 173.906 C 217 171.654, 217.544 170.671, 219 170.290 C 220.100 170.002, 221 169.144, 221 168.383 C 221 167.623, 221.675 167, 222.500 167 C 223.333 167, 224 166.111, 224 165 C 224 163.667, 224.667 163, 226 163 C 227.111 163, 228 162.333, 228 161.500 C 228 160.667, 228.889 160, 230 160 C 231.111 160, 232 160.667, 232 161.500 C 232 162.325, 232.625 163, 233.389 163 C 234.184 163, 235.058 164.495, 235.434 166.500 C 235.827 168.595, 236.675 170, 237.545 170 C 238.541 170, 239 171.104, 239 173.500 C 239 175.944, 239.452 177, 240.500 177 C 241.333 177, 242 177.889, 242 179 C 242 180.333, 242.667 181, 244 181 C 245.619 181, 246 181.667, 246 184.500 C 246 187.036, 246.439 188, 247.594 188 C 248.470 188, 249.423 188.900, 249.710 190 C 249.998 191.100, 250.856 192, 251.617 192 C 252.533 192, 253 193.191, 253 195.531 C 253 197.719, 253.560 199.278, 254.473 199.628 C 255.283 199.939, 256.233 201.725, 256.584 203.597 C 256.946 205.527, 257.823 207, 258.611 207 C 259.497 207, 260 208.121, 260 210.094 C 260 212.346, 260.544 213.329, 262 213.710 C 263.656 214.143, 264 215.074, 264 219.117 C 264 222.593, 264.396 224, 265.375 224 C 266.948 224, 268 228.259, 268 234.625 C 268 237.847, 268.395 239, 269.500 239 C 270.621 239, 271.003 240.201, 271.014 243.750 C 271.036 251.582, 271.742 253, 275.617 253 C 279.454 253, 279.552 252.575, 278.358 241.147 C 277.919 236.952, 277.284 235, 276.358 235 C 275.343 235, 275 233.229, 275 228 C 275 221.667, 274.810 221, 273 221 C 271.242 221, 271 220.333, 271 215.500 C 271 211.474, 270.628 210, 269.611 210 C 268.816 210, 267.942 208.505, 267.566 206.500 C 267.173 204.405, 266.325 203, 265.455 203 C 264.459 203, 264 201.896, 264 199.500 C 264 197.180, 263.532 196, 262.611 196 C 261.816 196, 260.942 194.505, 260.566 192.500 C 260.173 190.405, 259.325 189, 258.455 189 C 257.655 189, 257 188.152, 257 187.117 C 257 186.074, 256.107 185, 255 184.710 C 253.468 184.310, 253 183.346, 253 180.594 C 253 178.066, 252.555 177, 251.500 177 C 250.675 177, 250 176.325, 250 175.500 C 250 174.667, 249.111 174, 248 174 C 246.242 174, 246 173.333, 246 168.500 C 246 164.278, 245.652 163, 244.500 163 C 243.675 163, 243 162.283, 243 161.406 C 243 160.530, 242.100 159.577, 241 159.290 C 239.565 158.914, 239 157.926, 239 155.790 C 239 153.654, 238.435 152.665, 237 152.290 C 235.565 151.914, 235 150.926, 235 148.790 C 235 146.654, 235.565 145.665, 237 145.290 C 238.100 145.002, 239 144.144, 239 143.383 C 239 142.623, 239.675 142, 240.500 142 C 241.333 142, 242 141.111, 242 140 C 242 138.667, 242.667 138, 244 138 C 245.333 138, 246 137.333, 246 136 C 246 134.889, 246.667 134, 247.500 134 C 248.325 134, 249 133.325, 249 132.500 C 249 131.667, 249.889 131, 251 131 C 252.333 131, 253 130.333, 253 129 C 253 127.667, 253.667 127, 255 127 C 256.100 127, 257 126.343, 257 125.539 C 257 124.391, 258.874 124.016, 265.750 123.789 L 274.500 123.500 274.500 120 L 274.500 116.500 267 116.194 C 257.740 115.815, 253 116.611, 253 118.545 C 253 119.345, 252.100 120, 251 120 C 249.889 120, 249 120.667, 249 121.500 C 249 122.325, 248.325 123, 247.500 123 C 246.667 123, 246 123.889, 246 125 C 246 126.333, 245.333 127, 244 127 C 242.900 127, 242 127.623, 242 128.383 C 242 129.144, 241.100 130.002, 240 130.290 C 238.900 130.577, 238 131.530, 238 132.406 C 238 133.283, 237.325 134, 236.500 134 C 235.667 134, 235 134.889, 235 136 C 235 137.333, 234.333 138, 233 138 C 231.889 138, 231 138.667, 231 139.500 C 231 140.325, 230.325 141, 229.500 141 C 228.675 141, 228 140.325, 228 139.500 C 228 138.675, 227.345 138, 226.545 138 C 225.675 138, 224.827 136.595, 224.434 134.500 C 224.058 132.495, 223.184 131, 222.389 131 C 221.625 131, 221 130.100, 221 129 C 221 127.667, 220.333 127, 219 127 C 217.889 127, 217 126.333, 217 125.500 C 217 124.675, 216.325 124, 215.500 124 C 214.348 124, 214 122.722, 214 118.500 C 214 114.278, 214.348 113, 215.500 113 C 216.333 113, 217 113.889, 217 115 C 217 116.817, 217.664 116.999, 224.250 116.991 C 235.119 116.978, 242 115.958, 242 114.361 C 242 113.612, 242.900 113, 244 113 C 245.333 113, 246 112.333, 246 111 C 246 109.667, 246.667 109, 248 109 C 249.333 109, 250 108.333, 250 107 C 250 105.889, 250.667 105, 251.500 105 C 252.325 105, 253 104.325, 253 103.500 C 253 102.675, 252.377 102, 251.617 102 C 250.856 102, 249.982 101.041, 249.676 99.868 C 249.241 98.207, 248.608 97.873, 246.809 98.354 C 245.539 98.694, 243.262 98.979, 241.750 98.986 C 239.978 98.995, 239 99.534, 239 100.500 C 239 101.728, 237.278 102, 229.500 102 C 222.086 102, 220 102.303, 220 103.381 C 220 104.408, 217.580 104.944, 210.550 105.471 C 200.775 106.204, 199 105.892, 199 103.441 C 199 102.648, 198.325 102, 197.500 102 C 196.667 102, 196 101.111, 196 100 C 196 98.667, 195.333 98, 194 98 C 192.667 98, 192 97.333, 192 96 C 192 94.900, 191.361 94, 190.579 94 C 189.798 94, 188.862 92.650, 188.500 91 C 188.138 89.350, 187.202 88, 186.421 88 C 185.639 88, 185 87.100, 185 86 C 185 84.900, 184.345 84, 183.545 84 C 182.675 84, 181.827 82.595, 181.434 80.500 C 181.058 78.495, 180.184 77, 179.389 77 C 178.625 77, 178 76.100, 178 75 C 178 73.667, 177.333 73, 176 73 C 174.190 73, 174 72.333, 174 66 C 174 60.444, 173.690 59, 172.500 59 C 171.667 59, 171 58.111, 171 57 C 171 55.248, 170.333 55, 165.617 55 C 161.074 55, 160.152 55.312, 159.710 57 M 66 127.500 C 66 133.696, 66.277 135, 67.594 135 C 68.470 135, 69.423 134.100, 69.710 133 C 69.998 131.900, 71.049 131, 72.045 131 C 74.596 131, 77 128.296, 77 125.429 C 77 123.937, 77.578 123, 78.500 123 C 79.325 123, 80 122.325, 80 121.500 C 80 120.310, 78.556 120, 73 120 L 66 120 66 127.500 M 51.775 126.398 C 51.051 130.183, 52.081 135, 53.613 135 C 54.376 135, 55 135.675, 55 136.500 C 55 137.363, 55.903 138, 57.125 138 C 58.972 138, 59.168 137.591, 58.625 134.875 C 58.281 133.156, 58 130.681, 58 129.375 C 58 127.931, 57.412 127, 56.500 127 C 55.675 127, 55 126.325, 55 125.500 C 55 123.041, 52.271 123.801, 51.775 126.398" stroke="none" fill="black" fill-rule="evenodd"/>
</svg>