<svg xmlns="http://www.w3.org/2000/svg" width="300" height="300" viewBox="0 0 300 300" version="1.1">
	<path d="M 164 36.500 C 164 37.325, 163.325 38, 162.500 38 C 161.667 38, 161 38.889, 161 40 C 161 41.333, 160.333 42, 159 42 C 157.667 42, 157 42.667, 157 44 C 157 45.111, 156.333 46, 155.500 46 C 154.675 46, 154 46.675, 154 47.500 C 154 48.333, 153.111 49, 152 49 C 150.381 49, 150 49.667, 150 52.500 C 150 55.333, 149.619 56, 148 56 C 146.667 56, 146 56.667, 146 58 C 146 59.111, 145.333 60, 144.500 60 C 143.667 60, 143 60.889, 143 62 C 143 63.333, 142.333 64, 141 64 C 139.889 64, 139 64.667, 139 65.500 C 139 66.325, 138.325 67, 137.500 67 C 136.667 67, 136 67.889, 136 69 C 136 70.333, 135.333 71, 134 71 C 132.381 71, 132 71.667, 132 74.500 C 132 77.333, 131.619 78, 130 78 C 128.667 78, 128 78.667, 128 80 C 128 81.111, 127.333 82, 126.500 82 C 125.675 82, 125 82.675, 125 83.500 C 125 84.333, 124.111 85, 123 85 C 121.667 85, 121 85.667, 121 87 C 121 88.333, 120.333 89, 119 89 C 117.889 89, 117 89.667, 117 90.500 C 117 91.325, 116.325 92, 115.500 92 C 114.667 92, 114 92.889, 114 94 C 114 95.606, 113.333 96, 110.617 96 C 108.074 96, 107.103 96.497, 106.710 98 C 106.423 99.100, 105.442 100, 104.530 100 C 103.263 100, 102.947 100.765, 103.187 103.250 C 103.473 106.217, 103.826 106.527, 107.250 106.810 C 109.537 107, 111 107.637, 111 108.444 C 111 109.906, 114.022 110.965, 118.250 110.986 C 120.022 110.995, 121 111.534, 121 112.500 C 121 113.333, 121.889 114, 123 114 C 124.100 114, 125 114.655, 125 115.455 C 125 116.325, 126.405 117.173, 128.500 117.566 C 130.505 117.942, 132 118.816, 132 119.611 C 132 120.532, 133.180 121, 135.500 121 C 137.813 121, 139 121.469, 139 122.383 C 139 124.103, 142.077 124.969, 148.250 124.986 C 151.799 124.997, 153 125.379, 153 126.500 C 153 127.325, 152.325 128, 151.500 128 C 150.667 128, 150 128.889, 150 130 C 150 131.619, 149.333 132, 146.500 132 C 143.667 132, 143 132.381, 143 134 C 143 135.333, 142.333 136, 141 136 C 139.900 136, 139 136.616, 139 137.370 C 139 138.257, 137.371 138.924, 134.376 139.261 C 131.833 139.548, 129.382 140.381, 128.930 141.114 C 128.356 142.043, 124.913 142.564, 117.553 142.836 L 107 143.227 107 134.113 C 107 127.047, 106.691 125, 105.625 125 C 104.254 125, 103 120.880, 103 116.375 C 103 115.020, 102.406 114, 101.617 114 C 100.856 114, 99.998 113.100, 99.710 112 C 99.423 110.900, 98.470 110, 97.594 110 C 96.717 110, 96 109.375, 96 108.611 C 96 107.816, 94.505 106.942, 92.500 106.566 C 90.405 106.173, 89 105.325, 89 104.455 C 89 103.459, 87.896 103, 85.500 103 C 83.197 103, 82 102.530, 82 101.625 C 82 100.254, 77.880 99, 73.375 99 C 71.931 99, 71 98.412, 71 97.500 C 71 96.278, 69.333 96, 62 96 C 54.667 96, 53 96.278, 53 97.500 C 53 98.333, 52.111 99, 51 99 C 49.667 99, 49 99.667, 49 101 C 49 102.100, 48.392 103, 47.648 103 C 45.876 103, 45.014 114.011, 45.006 136.750 C 45.001 151.414, 44.775 154, 43.500 154 C 42.218 154, 42 156.833, 42 173.500 C 42 190.167, 42.218 193, 43.500 193 C 44.333 193, 45 193.889, 45 195 C 45 196.667, 45.667 197, 49 197 C 51.889 197, 53 196.583, 53 195.500 C 53 194.675, 53.635 194, 54.412 194 C 55.280 194, 56.085 192.459, 56.500 190 C 56.915 187.541, 57.720 186, 58.588 186 C 59.365 186, 60 185.330, 60 184.512 C 60 183.542, 58.566 182.794, 55.878 182.365 L 51.756 181.705 52.369 176.603 C 52.707 173.796, 52.987 158.563, 52.991 142.750 C 52.999 117.865, 53.202 114, 54.500 114 C 55.325 114, 56 113.325, 56 112.500 C 56 111.667, 56.889 111, 58 111 C 59.333 111, 60 110.333, 60 109 C 60 107.178, 60.667 107, 67.500 107 C 73.187 107, 75 107.331, 75 108.371 C 75 109.261, 76.754 109.975, 80 110.406 C 83.424 110.860, 85 111.531, 85 112.534 C 85 113.340, 85.900 114, 87 114 C 88.333 114, 89 114.667, 89 116 C 89 117.100, 89.655 118, 90.455 118 C 91.325 118, 92.173 119.405, 92.566 121.500 C 92.942 123.505, 93.816 125, 94.611 125 C 95.532 125, 96 126.180, 96 128.500 C 96 130.944, 96.452 132, 97.500 132 C 98.722 132, 99 133.667, 99 141 L 99 150 95.500 150 C 93.104 150, 92 149.541, 92 148.545 C 92 147.675, 90.595 146.827, 88.500 146.434 C 86.495 146.058, 85 145.184, 85 144.389 C 85 143.278, 82.499 143, 72.500 143 L 60 143 60 146.500 C 60 149.333, 59.619 150, 58 150 C 55.378 150, 55.378 153.024, 58 153.710 C 59.100 153.998, 60 154.856, 60 155.617 C 60 156.377, 60.900 157, 62 157 C 63.333 157, 64 157.667, 64 159 C 64 160.619, 64.667 161, 67.500 161 C 70.917 161, 71 160.905, 71 157 C 71 153.152, 71.124 153, 74.250 153.009 C 76.037 153.013, 79.854 153.300, 82.730 153.646 C 87.706 154.243, 87.991 154.438, 88.592 157.637 C 88.939 159.487, 89.795 161, 90.495 161 C 92.354 161, 92.814 163.866, 92.241 171.880 C 91.757 178.642, 91.839 179, 93.866 179 C 95.638 179, 96 179.593, 96 182.500 C 96 185.333, 95.619 186, 94 186 C 92.889 186, 92 185.333, 92 184.500 C 92 183.675, 91.325 183, 90.500 183 C 89.510 183, 89 183.990, 89 185.912 C 89 188.530, 88.596 188.892, 85 189.500 C 82.541 189.915, 81 190.720, 81 191.588 C 81 192.535, 79.848 193, 77.500 193 C 74.667 193, 74 193.381, 74 195 C 74 196.733, 73.333 197, 69 197 C 65.400 197, 64 197.389, 64 198.389 C 64 199.184, 62.505 200.058, 60.500 200.434 C 57.302 201.034, 57 201.389, 57 204.545 C 57 206.949, 57.456 208, 58.500 208 C 59.325 208, 60 208.675, 60 209.500 C 60 210.325, 60.675 211, 61.500 211 C 62.325 211, 63 210.325, 63 209.500 C 63 208.345, 64.288 208, 68.594 208 C 73.346 208, 74.266 207.699, 74.710 206 C 75.103 204.497, 76.074 204, 78.617 204 C 80.957 204, 82 203.538, 82 202.500 C 82 201.675, 82.675 201, 83.500 201 C 84.333 201, 85 200.111, 85 199 C 85 197.333, 85.667 197, 89 197 C 91.889 197, 93 197.417, 93 198.500 C 93 199.495, 93.995 200, 95.955 200 C 98.540 200, 98.992 199.562, 99.566 196.500 C 99.927 194.575, 100.795 193, 101.495 193 C 102.194 193, 103.002 192.100, 103.290 191 C 103.577 189.900, 104.530 189, 105.406 189 C 106.283 189, 107 188.325, 107 187.500 C 107 186.675, 107.675 186, 108.500 186 C 109.548 186, 110 184.944, 110 182.500 C 110 180.056, 109.548 179, 108.500 179 C 107.272 179, 107 177.278, 107 169.500 C 107 162.047, 107.300 160, 108.393 160 C 109.159 160, 110.045 159.325, 110.362 158.500 C 110.777 157.417, 112.474 157, 116.469 157 C 120.719 157, 122 156.653, 122 155.500 C 122 154.425, 123.097 154, 125.875 154 C 131.772 154, 136 152.904, 136 151.375 C 136 150.470, 137.197 150, 139.500 150 C 141.944 150, 143 149.548, 143 148.500 C 143 147.588, 143.931 147, 145.375 147 C 149.880 147, 154 145.746, 154 144.375 C 154 143.519, 155.114 143, 156.950 143 C 158.702 143, 160.292 142.300, 160.864 141.278 C 161.564 140.027, 163.148 139.549, 166.650 139.528 C 170.327 139.507, 171.548 139.107, 171.791 137.846 C 172.035 136.582, 173.747 136.028, 179.055 135.494 C 184.005 134.997, 186 134.395, 186 133.399 C 186 131.197, 188.706 131.767, 189.315 134.098 C 189.801 135.956, 190.471 136.156, 195.182 135.848 C 200.500 135.500, 200.500 135.500, 200.806 138.648 C 201.024 140.900, 201.736 141.963, 203.306 142.384 C 207.004 143.376, 208 143.082, 208 141 C 208 139.889, 208.667 139, 209.500 139 C 210.633 139, 211 137.778, 211 134 C 211 130.222, 210.633 129, 209.500 129 C 208.644 129, 208 128.101, 208 126.906 C 208 125.654, 207.197 124.603, 206 124.290 C 204.900 124.002, 204 123.144, 204 122.383 C 204 121.623, 203.100 121, 202 121 C 200.889 121, 200 120.333, 200 119.500 C 200 118.348, 198.722 118, 194.500 118 C 190.278 118, 189 118.348, 189 119.500 C 189 120.325, 188.325 121, 187.500 121 C 186.675 121, 186 121.623, 186 122.383 C 186 123.959, 183 124.966, 178.250 124.986 C 176.034 124.996, 175 125.477, 175 126.500 C 175 127.637, 173.767 128, 169.906 128 C 165.654 128, 164.726 128.330, 164.290 130 C 163.669 132.376, 160 132.723, 160 130.406 C 160 129.530, 160.875 128.584, 161.944 128.304 C 163.253 127.962, 163.988 126.767, 164.194 124.648 C 164.460 121.911, 164.920 121.459, 167.716 121.189 C 170.502 120.920, 171.019 120.418, 171.577 117.439 C 171.945 115.481, 172.821 114, 173.611 114 C 174.375 114, 175 113.325, 175 112.500 C 175 111.675, 175.717 111, 176.594 111 C 177.470 111, 178.423 110.100, 178.710 109 C 178.998 107.900, 179.898 107, 180.710 107 C 181.523 107, 182.423 106.100, 182.710 105 C 182.998 103.900, 183.856 103, 184.617 103 C 185.377 103, 186 102.377, 186 101.617 C 186 100.856, 186.900 99.998, 188 99.710 C 189.100 99.423, 190 98.470, 190 97.594 C 190 96.490, 190.922 96, 193 96 C 195.078 96, 196 95.510, 196 94.406 C 196 93.530, 196.900 92.577, 198 92.290 C 199.100 92.002, 200 91.194, 200 90.495 C 200 89.795, 201.532 88.935, 203.403 88.584 C 205.275 88.233, 207.061 87.283, 207.372 86.473 C 207.691 85.642, 209.208 85, 210.852 85 C 212.926 85, 213.918 84.423, 214.290 83 C 214.577 81.900, 215.530 81, 216.406 81 C 217.283 81, 218 80.325, 218 79.500 C 218 78.348, 216.722 78, 212.500 78 C 208.507 78, 207 78.376, 207 79.371 C 207 80.261, 205.246 80.975, 202 81.406 C 198.576 81.860, 197 82.531, 197 83.534 C 197 84.340, 196.100 85, 195 85 C 193.667 85, 193 85.667, 193 87 C 193 88.619, 192.333 89, 189.500 89 C 186.167 89, 186 89.167, 186 92.500 L 186 96 181 96 C 177.435 96, 176 96.393, 176 97.369 C 176 98.933, 170.983 99.979, 163.500 99.975 C 155.908 99.971, 154.002 99.202, 153.986 96.133 C 153.965 91.960, 152.885 89, 151.383 89 C 150.623 89, 150 88.100, 150 87 C 150 85.889, 149.333 85, 148.500 85 C 147.675 85, 147 84.325, 147 83.500 C 147 82.667, 146.111 82, 145 82 C 143.889 82, 143 82.667, 143 83.500 C 143 84.333, 142.111 85, 141 85 C 139.242 85, 139 85.667, 139 90.500 C 139 95.333, 139.242 96, 141 96 C 142.607 96, 143 96.667, 143 99.389 C 143 102.470, 143.318 102.837, 146.500 103.434 C 148.595 103.827, 150 104.675, 150 105.545 C 150 106.710, 151.791 107, 159 107 L 168 107 168 110.500 C 168 113.333, 167.619 114, 166 114 C 164.900 114, 164 114.623, 164 115.383 C 164 117.377, 161.612 117.733, 151.750 117.212 C 145.218 116.866, 143 116.401, 143 115.375 C 143 114.619, 142.100 114, 141 114 C 139.900 114, 139 113.345, 139 112.545 C 139 111.675, 137.595 110.827, 135.500 110.434 C 133.575 110.073, 132 109.203, 132 108.500 C 132 107.797, 130.425 106.927, 128.500 106.566 C 126.405 106.173, 125 105.325, 125 104.455 C 125 103.655, 124.100 103, 123 103 C 121.381 103, 121 102.333, 121 99.500 C 121 96.667, 121.381 96, 123 96 C 124.333 96, 125 95.333, 125 94 C 125 92.889, 125.667 92, 126.500 92 C 127.325 92, 128 91.325, 128 90.500 C 128 89.667, 128.889 89, 130 89 C 131.619 89, 132 88.333, 132 85.500 C 132 82.667, 132.381 82, 134 82 C 135.333 82, 136 81.333, 136 80 C 136 78.667, 136.667 78, 138 78 C 139.111 78, 140 77.333, 140 76.500 C 140 75.675, 140.675 75, 141.500 75 C 142.333 75, 143 74.111, 143 73 C 143 71.900, 143.623 71, 144.383 71 C 145.144 71, 146.002 70.100, 146.290 69 C 146.577 67.900, 147.530 67, 148.406 67 C 149.333 67, 150 66.163, 150 65 C 150 63.889, 150.667 63, 151.500 63 C 152.325 63, 153 62.325, 153 61.500 C 153 60.667, 153.889 60, 155 60 C 156.333 60, 157 59.333, 157 58 C 157 56.900, 157.655 56, 158.455 56 C 159.325 56, 160.173 54.595, 160.566 52.500 C 161.163 49.318, 161.530 49, 164.611 49 C 166.957 49, 168 48.538, 168 47.500 C 168 46.452, 169.056 46, 171.500 46 L 175 46 175 40.500 L 175 35 169.500 35 C 165.278 35, 164 35.348, 164 36.500 M 166.783 142.683 C 165.769 142.949, 164.802 144.540, 164.421 146.567 C 164.055 148.520, 163.179 150, 162.389 150 C 161.372 150, 161 151.474, 161 155.500 C 161 159.516, 160.627 161, 159.617 161 C 158.041 161, 157.034 164, 157.014 168.750 C 157.001 171.795, 156.779 172, 153.500 172 C 151.056 172, 150 172.452, 150 173.500 C 150 174.548, 148.944 175, 146.500 175 C 143.667 175, 143 175.381, 143 177 C 143 178.619, 142.333 179, 139.500 179 C 137.152 179, 136 179.465, 136 180.412 C 136 181.280, 134.459 182.085, 132 182.500 C 129.541 182.915, 128 183.720, 128 184.588 C 128 185.365, 127.325 186, 126.500 186 C 125.675 186, 125 186.675, 125 187.500 C 125 188.333, 124.111 189, 123 189 C 121.667 189, 121 189.667, 121 191 C 121 192.111, 120.333 193, 119.500 193 C 118.417 193, 118 194.111, 118 197 L 118 201 122.750 200.986 C 130.252 200.965, 132 200.198, 132 196.929 C 132 194.477, 132.476 194.001, 135.500 193.434 C 137.505 193.058, 139 192.184, 139 191.389 C 139 190.625, 139.900 190, 141 190 C 142.333 190, 143 189.333, 143 188 C 143 186.381, 143.667 186, 146.500 186 C 149.333 186, 150 186.381, 150 188 C 150 189.100, 149.345 190, 148.545 190 C 147.675 190, 146.827 191.405, 146.434 193.500 C 146.058 195.505, 145.184 197, 144.389 197 C 143.468 197, 143 198.180, 143 200.500 C 143 203.333, 142.619 204, 141 204 C 139.381 204, 139 204.667, 139 207.500 C 139 209.820, 138.532 211, 137.611 211 C 136.816 211, 135.942 212.495, 135.566 214.500 C 135.173 216.595, 134.325 218, 133.455 218 C 132.424 218, 132 219.166, 132 222 C 132 224.834, 131.576 226, 130.545 226 C 129.675 226, 128.827 227.405, 128.434 229.500 C 128.058 231.505, 127.184 233, 126.389 233 C 125.468 233, 125 234.180, 125 236.500 C 125 239.333, 124.619 240, 123 240 C 121.381 240, 121 240.667, 121 243.500 C 121 245.803, 120.530 247, 119.625 247 C 118.056 247, 116.549 252.949, 117.800 254.200 C 118.999 255.399, 125 253.975, 125 252.492 C 125 251.800, 125.900 250.998, 127 250.710 C 128.100 250.423, 129 249.470, 129 248.594 C 129 247.717, 129.675 247, 130.500 247 C 131.325 247, 132 246.375, 132 245.611 C 132 244.822, 133.478 243.945, 135.428 243.580 C 138.196 243.060, 138.980 242.366, 139.507 239.968 C 140.048 237.504, 140.654 237, 143.079 237 C 145.333 237, 146 236.543, 146 235 C 146 233.667, 146.667 233, 148 233 C 149.333 233, 150 232.333, 150 231 C 150 229.192, 150.667 229, 156.950 229 C 162.530 229, 164.094 229.345, 164.880 230.750 C 165.667 232.156, 167.546 232.569, 174.430 232.853 C 182.055 233.166, 183 233.414, 183 235.103 C 183 236.146, 183.675 237, 184.500 237 C 185.325 237, 186 237.675, 186 238.500 C 186 239.548, 184.944 240, 182.500 240 C 179.667 240, 179 240.381, 179 242 C 179 243.333, 178.333 244, 177 244 C 175.900 244, 175 244.623, 175 245.383 C 175 246.144, 174.100 247.002, 173 247.290 C 171.900 247.577, 171 248.530, 171 249.406 C 171 250.283, 170.325 251, 169.500 251 C 168.675 251, 168 251.660, 168 252.466 C 168 253.469, 166.424 254.140, 163 254.594 C 159.754 255.025, 158 255.739, 158 256.629 C 158 257.638, 156.416 258, 152 258 C 146.667 258, 146 257.778, 146 256 C 146 254.889, 145.333 254, 144.500 254 C 143.456 254, 143 255.051, 143 257.455 C 143 260.611, 143.302 260.966, 146.500 261.566 C 148.505 261.942, 150 262.816, 150 263.611 C 150 264.628, 151.474 265, 155.500 265 C 159.516 265, 161 264.627, 161 263.617 C 161 262.856, 161.900 261.998, 163 261.710 C 164.100 261.423, 165 260.470, 165 259.594 C 165 258.348, 166.092 258, 170 258 C 174.333 258, 175 257.733, 175 256 C 175 254.667, 175.667 254, 177 254 C 178.100 254, 179 253.377, 179 252.617 C 179 251.856, 179.900 250.998, 181 250.710 C 182.100 250.423, 183 249.470, 183 248.594 C 183 247.717, 183.675 247, 184.500 247 C 185.325 247, 186 246.325, 186 245.500 C 186 244.667, 186.889 244, 188 244 C 189.333 244, 190 243.333, 190 242 C 190 240.157, 190.667 240, 198.500 240 C 205.045 240, 207 240.316, 207 241.375 C 207 242.746, 211.120 244, 215.625 244 C 217.069 244, 218 244.588, 218 245.500 C 218 246.648, 219.265 247, 223.383 247 C 227.926 247, 228.848 247.312, 229.290 249 C 229.726 250.670, 230.654 251, 234.906 251 C 238.586 251, 240 251.386, 240 252.389 C 240 253.184, 241.495 254.058, 243.500 254.434 C 245.595 254.827, 247 255.675, 247 256.545 C 247 257.345, 247.900 258, 249 258 C 250.333 258, 251 258.667, 251 260 C 251 261.619, 251.667 262, 254.500 262 C 257.333 262, 258 261.619, 258 260 C 258 258.889, 258.667 258, 259.500 258 C 260.325 258, 261 257.325, 261 256.500 C 261 255.675, 260.325 255, 259.500 255 C 258.675 255, 258 254.150, 258 253.111 C 258 251.745, 257.033 251.041, 254.500 250.566 C 252.405 250.173, 251 249.325, 251 248.455 C 251 247.459, 249.896 247, 247.500 247 C 245.152 247, 244 246.535, 244 245.588 C 244 244.720, 242.459 243.915, 240 243.500 C 237.541 243.085, 236 242.280, 236 241.412 C 236 240.367, 234.570 240, 230.500 240 C 226.484 240, 225 239.627, 225 238.617 C 225 237.041, 222 236.034, 217.250 236.014 C 215.034 236.004, 214 235.523, 214 234.500 C 214 233.367, 212.778 233, 209 233 L 204 233 204 229.500 C 204 226.964, 204.439 226, 205.594 226 C 206.470 226, 207.423 225.100, 207.710 224 C 207.998 222.900, 208.803 222, 209.500 222 C 210.197 222, 211.002 221.100, 211.290 220 C 211.577 218.900, 212.530 218, 213.406 218 C 214.283 218, 215 217.325, 215 216.500 C 215 215.675, 215.675 215, 216.500 215 C 217.333 215, 218 214.111, 218 213 C 218 211.667, 218.667 211, 220 211 C 221.810 211, 222 210.333, 222 204 L 222 197 209.500 197 C 199.056 197, 197 197.247, 197 198.500 C 197 199.706, 195.458 200, 189.125 200 C 179.432 200, 175 200.824, 175 202.625 C 175 203.625, 173.500 204, 169.500 204 C 165.354 204, 164 204.358, 164 205.455 C 164 206.325, 162.595 207.173, 160.500 207.566 C 157.318 208.163, 157 208.530, 157 211.611 C 157 213.957, 156.538 215, 155.500 215 C 154.675 215, 154 215.675, 154 216.500 C 154 217.333, 153.111 218, 152 218 C 150.667 218, 150 218.667, 150 220 C 150 221.333, 149.333 222, 148 222 C 146.889 222, 146 222.667, 146 223.500 C 146 224.325, 145.375 225, 144.611 225 C 143.816 225, 142.942 226.495, 142.566 228.500 C 141.512 234.121, 139 233.064, 139 227 C 139 222.667, 139.267 222, 141 222 C 142.619 222, 143 221.333, 143 218.500 C 143 216.056, 143.452 215, 144.500 215 C 145.333 215, 146 214.111, 146 213 C 146 211.667, 146.667 211, 148 211 C 149.619 211, 150 210.333, 150 207.500 C 150 205.152, 150.465 204, 151.412 204 C 152.280 204, 153.085 202.459, 153.500 200 C 153.915 197.541, 154.720 196, 155.588 196 C 156.616 196, 157 194.639, 157 191 C 157 186.667, 157.267 186, 159 186 C 160.333 186, 161 185.333, 161 184 C 161 182.889, 161.667 182, 162.500 182 C 163.325 182, 164 181.325, 164 180.500 C 164 179.667, 164.889 179, 166 179 C 167.100 179, 168 178.377, 168 177.617 C 168 175.897, 171.077 175.031, 177.250 175.014 C 180.620 175.004, 182 174.598, 182 173.617 C 182 172.626, 184.122 172.036, 189.500 171.532 C 194.968 171.020, 197 170.446, 197 169.415 C 197 168.330, 198.632 168, 204 168 C 209.293 168, 211 168.337, 211 169.383 C 211 171.330, 214.615 172.055, 220.750 171.338 C 224.214 170.933, 226 170.261, 226 169.362 C 226 168.472, 227.213 168, 229.500 168 C 232.333 168, 233 167.619, 233 166 C 233 164.900, 233.623 164, 234.383 164 C 235.669 164, 236.955 161.160, 236.986 158.250 C 236.997 157.315, 233.822 157, 224.406 157 C 212.654 157, 211.778 157.134, 211.290 159 C 210.833 160.747, 209.926 161, 204.106 161 C 198.682 161, 197.126 160.628, 195.732 159 C 194.790 157.900, 193.115 157, 192.010 157 C 190.890 157, 190 156.336, 190 155.500 C 190 154.667, 189.111 154, 188 154 C 186.667 154, 186 153.333, 186 152 C 186 150.381, 185.333 150, 182.500 150 C 179.667 150, 179 149.619, 179 148 C 179 146.667, 178.333 146, 177 146 C 175.667 146, 175 145.333, 175 144 C 175 142.386, 174.372 142.022, 171.750 142.116 C 169.963 142.180, 167.727 142.435, 166.783 142.683 M 173.250 153.706 C 171.438 154.055, 171 154.807, 171 157.570 C 171 159.952, 170.542 161, 169.500 161 C 168.452 161, 168 162.056, 168 164.500 C 168 167.810, 168.183 168, 171.383 168 C 173.926 168, 174.897 167.503, 175.290 166 C 175.745 164.260, 176.654 164, 182.290 164 C 188.161 164, 188.823 163.790, 189.370 161.750 C 190.505 157.513, 190.141 157, 186 157 C 183.261 157, 182 156.564, 182 155.617 C 182 154.856, 180.988 153.962, 179.750 153.630 C 177.390 152.998, 176.896 153.004, 173.250 153.706 M 186 209.384 C 186 210.379, 184.150 210.885, 179.400 211.187 C 174.538 211.497, 172.549 212.055, 171.850 213.304 C 171.234 214.404, 169.648 215, 167.334 215 C 164.123 215, 163.827 215.224, 164.370 217.250 C 164.701 218.488, 164.979 220.063, 164.986 220.750 C 164.996 221.630, 167.074 222, 172 222 C 177.293 222, 179 222.337, 179 223.383 C 179 224.959, 182 225.966, 186.750 225.986 C 188.966 225.996, 190 226.477, 190 227.500 C 190 228.325, 190.675 229, 191.500 229 C 192.325 229, 193 228.325, 193 227.500 C 193 226.667, 193.889 226, 195 226 C 196.333 226, 197 225.333, 197 224 C 197 222.900, 197.623 222, 198.383 222 C 199.144 222, 200.002 221.100, 200.290 220 C 200.577 218.900, 201.530 218, 202.406 218 C 203.283 218, 204 217.325, 204 216.500 C 204 215.675, 204.675 215, 205.500 215 C 206.325 215, 207.006 214.438, 207.014 213.750 C 207.021 213.063, 207.299 211.488, 207.630 210.250 C 208.229 208.015, 208.157 208, 197.117 208 C 188.318 208, 186 208.288, 186 209.384" stroke="none" fill="black" fill-rule="evenodd"/>
</svg>