<svg xmlns="http://www.w3.org/2000/svg" width="300" height="300" viewBox="0 0 300 300" version="1.1">
	<path d="M 114 60.500 C 114 61.548, 112.944 62, 110.500 62 C 107.667 62, 107 62.381, 107 64 C 107 65.333, 106.333 66, 105 66 C 103.192 66, 103 66.667, 103 72.950 C 103 78.530, 103.345 80.094, 104.750 80.880 C 106.372 81.788, 106.526 85.476, 106.857 131.430 C 107.155 172.971, 107.439 181, 108.607 181 C 109.726 181, 110.037 183.896, 110.187 195.750 C 110.365 209.843, 110.475 213.718, 110.838 218.750 C 110.929 220.011, 111.659 221, 112.500 221 C 113.738 221, 114 222.833, 114 231.500 L 114 242 118.883 242 C 122.926 242, 123.857 241.656, 124.290 240 C 124.577 238.900, 125.530 238, 126.406 238 C 127.510 238, 128 237.078, 128 235 C 128 233, 127.500 232, 126.500 232 C 125.667 232, 125 231.111, 125 230 C 125 228.667, 124.333 228, 123 228 C 121.107 228, 121 227.333, 121 215.500 C 121 205.056, 120.753 203, 119.500 203 C 118.263 203, 118 201.183, 118 192.651 C 118 186.959, 117.707 178.835, 117.349 174.597 C 116.731 167.285, 116.807 166.863, 118.849 166.329 C 120.032 166.020, 121 165.144, 121 164.383 C 121 163.469, 122.187 163, 124.500 163 C 126.820 163, 128 162.532, 128 161.611 C 128 160.816, 129.495 159.942, 131.500 159.566 C 133.595 159.173, 135 158.325, 135 157.455 C 135 156.459, 136.104 156, 138.500 156 C 140.866 156, 142 155.537, 142 154.572 C 142 153.591, 143.722 152.929, 147.500 152.457 C 151.188 151.996, 153 151.313, 153 150.385 C 153 149.623, 153.873 149, 154.941 149 C 157.475 149, 158.209 147.682, 157.422 144.546 C 156.895 142.444, 156.192 142, 153.392 142 C 151.044 142, 150 142.462, 150 143.500 C 150 144.637, 148.767 145, 144.906 145 C 140.654 145, 139.726 145.330, 139.290 147 C 138.848 148.688, 137.926 149, 133.383 149 C 129.492 149, 128 149.380, 128 150.370 C 128 151.891, 120.827 153.072, 116.552 152.255 C 114.058 151.778, 114 151.577, 114 143.383 L 114 135 118 135 C 120.889 135, 122 135.417, 122 136.500 C 122 137.325, 122.450 138, 123 138 C 123.550 138, 124 137.325, 124 136.500 C 124 135.644, 124.899 135, 126.094 135 C 127.346 135, 128.397 134.197, 128.710 133 C 129.181 131.202, 130.074 131, 137.571 131 L 145.909 131 146.566 134.500 C 147.129 137.500, 147.618 138, 149.995 138 C 151.926 138, 152.925 137.393, 153.290 136 C 153.577 134.900, 154.530 134, 155.406 134 C 156.650 134, 157 132.912, 157 129.045 C 157 124.175, 156.941 124.080, 153.500 123.434 C 151.495 123.058, 150 122.184, 150 121.389 C 150 120.292, 147.793 120, 139.500 120 C 130.833 120, 129 120.262, 129 121.500 C 129 122.386, 128.079 123.004, 126.750 123.009 C 125.513 123.013, 122.138 123.301, 119.250 123.648 L 114 124.279 114 113.139 C 114 104.322, 114.288 102, 115.383 102 C 116.144 102, 117.004 101.093, 117.294 99.984 C 117.684 98.491, 118.558 98.020, 120.661 98.167 C 126.290 98.561, 129 98.019, 129 96.500 C 129 95.534, 129.978 94.995, 131.750 94.986 C 136.032 94.965, 139 93.899, 139 92.383 C 139 91.478, 140.170 91, 142.389 91 C 145.470 91, 145.837 90.682, 146.434 87.500 C 146.827 85.405, 147.675 84, 148.545 84 C 149.541 84, 150 82.896, 150 80.500 C 150 78.197, 150.470 77, 151.375 77 C 152.912 77, 154 72.766, 154 66.781 C 154 63.654, 153.576 62.702, 152 62.290 C 150.900 62.002, 150 61.144, 150 60.383 C 150 59.257, 146.659 59, 132 59 C 116.667 59, 114 59.222, 114 60.500 M 128 68 C 128 69.733, 127.333 70, 123 70 C 119.092 70, 118 70.348, 118 71.594 C 118 72.470, 117.100 73.423, 116 73.710 C 114.244 74.169, 114 75.074, 114 81.117 C 114 88.902, 113.502 88.583, 123.750 87.352 C 127.202 86.937, 129 86.255, 129 85.361 C 129 84.472, 130.215 84, 132.500 84 C 135.333 84, 136 83.619, 136 82 C 136 80.889, 136.667 80, 137.500 80 C 138.325 80, 139 79.325, 139 78.500 C 139 77.667, 139.889 77, 141 77 C 142.758 77, 143 76.333, 143 71.500 L 143 66 135.500 66 C 128.667 66, 128 66.178, 128 68 M 178.750 69.716 L 175 70.121 175 75.060 L 175 80 180.500 80 C 184.722 80, 186 79.652, 186 78.500 C 186 77.452, 187.056 77, 189.500 77 C 191.944 77, 193 77.452, 193 78.500 C 193 79.695, 194.476 80.002, 200.250 80.009 C 204.238 80.013, 209.863 80.301, 212.750 80.648 C 217.917 81.269, 218 81.332, 218 84.639 C 218 86.960, 217.536 88, 216.500 88 C 215.664 88, 215 88.890, 215 90.010 C 215 91.115, 214.100 92.790, 213 93.732 C 211.900 94.674, 211 96.019, 211 96.722 C 211 97.425, 210.100 98, 209 98 C 207.667 98, 207 98.667, 207 100 C 207 101.538, 206.333 102, 204.117 102 C 202.074 102, 201.081 102.583, 200.710 104 C 200.274 105.670, 199.346 106, 195.094 106 C 191.366 106, 190 106.380, 190 107.416 C 190 108.541, 187.518 108.901, 177.928 109.166 C 167.687 109.449, 165.708 109.766, 164.878 111.250 C 164.341 112.213, 163.248 113, 162.450 113 C 161.377 113, 161 114.298, 161 118 L 161 123 166 123 C 169.778 123, 171 122.633, 171 121.500 C 171 120.244, 173.111 120, 184 120 C 194.540 120, 197 119.732, 197 118.585 C 197 117.556, 199.010 116.982, 204.379 116.479 C 212.770 115.693, 218 116.499, 218 118.579 C 218 119.361, 218.900 120, 220 120 C 221.111 120, 222 120.667, 222 121.500 C 222 123.854, 224.699 123.253, 225.370 120.750 C 226.641 116.008, 226.109 113, 224 113 C 222.667 113, 222 112.333, 222 111 C 222 109.381, 221.333 109, 218.500 109 C 215.667 109, 215 108.619, 215 107 C 215 105.889, 214.333 105, 213.500 105 C 212.675 105, 212 104.325, 212 103.500 C 212 102.675, 212.675 102, 213.500 102 C 214.325 102, 215 101.377, 215 100.617 C 215 99.856, 215.900 98.998, 217 98.710 C 218.100 98.423, 219 97.470, 219 96.594 C 219 95.717, 219.675 95, 220.500 95 C 221.333 95, 222 94.111, 222 93 C 222 91.667, 222.667 91, 224 91 C 225.619 91, 226 90.333, 226 87.500 C 226 85.056, 226.452 84, 227.500 84 C 228.548 84, 229 82.944, 229 80.500 C 229 78.187, 228.531 77, 227.617 77 C 226.856 77, 225.998 76.100, 225.710 75 C 225.236 73.185, 224.346 73, 216.094 73 C 208.677 73, 207 72.723, 207 71.500 C 207 70.389, 205.770 69.979, 202.250 69.919 C 199.637 69.875, 194.125 69.720, 190 69.575 C 185.875 69.430, 180.813 69.494, 178.750 69.716 M 35 96.500 C 35 97.684, 33.577 98.003, 28.250 98.014 C 16.635 98.037, 17.356 97.111, 16.757 112.791 C 16.424 121.522, 15.835 126.555, 15.119 126.794 C 14.363 127.046, 14 131.842, 14 141.583 C 14 153.731, 14.236 156, 15.500 156 C 16.722 156, 17 157.667, 17 165 C 17 171.996, 17.308 174, 18.383 174 C 19.144 174, 20.002 174.900, 20.290 176 C 20.675 177.472, 21.654 178, 24 178 C 26.346 178, 27.325 177.472, 27.710 176 C 27.998 174.900, 28.800 174, 29.492 174 C 31.033 174, 32.024 169.479, 31.300 165.750 C 30.747 162.898, 28 161.858, 28 164.500 C 28 165.333, 27.111 166, 26 166 C 24.058 166, 24 165.333, 24 143 C 24 120.667, 24.058 120, 26 120 C 27.333 120, 28 119.333, 28 118 C 28 116.900, 28.625 116, 29.389 116 C 30.184 116, 31.058 114.505, 31.434 112.500 C 31.827 110.405, 32.675 109, 33.545 109 C 34.345 109, 35 108.325, 35 107.500 C 35 106.310, 36.444 106, 42 106 C 47.306 106, 49 106.336, 49 107.389 C 49 108.184, 50.495 109.058, 52.500 109.434 C 54.595 109.827, 56 110.675, 56 111.545 C 56 112.345, 56.900 113, 58 113 C 59.333 113, 60 113.667, 60 115 C 60 116.111, 60.667 117, 61.500 117 C 62.325 117, 63 117.675, 63 118.500 C 63 119.333, 63.889 120, 65 120 C 66.619 120, 67 120.667, 67 123.500 C 67 125.813, 67.469 127, 68.383 127 C 69.959 127, 70.966 130, 70.986 134.750 C 70.996 136.966, 71.477 138, 72.500 138 C 73.738 138, 74 139.833, 74 148.500 C 74 157.167, 73.738 159, 72.500 159 C 71.367 159, 71 157.778, 71 154 C 71 149.667, 70.733 149, 69 149 C 67.667 149, 67 148.333, 67 147 C 67 145.889, 66.333 145, 65.500 145 C 64.675 145, 64 144.365, 64 143.588 C 64 142.720, 62.459 141.915, 60 141.500 C 57.541 141.085, 56 140.280, 56 139.412 C 56 138.384, 54.639 138, 51 138 C 47.361 138, 46 137.616, 46 136.588 C 46 134.796, 39.499 133.628, 34.619 134.544 C 32.524 134.937, 31 135.807, 31 136.611 C 31 137.375, 30.325 138, 29.500 138 C 28.452 138, 28 139.056, 28 141.500 C 28 143.674, 28.484 145, 29.278 145 C 29.981 145, 31.326 145.900, 32.268 147 C 33.452 148.383, 35.218 149, 37.990 149 C 41.333 149, 42 148.667, 42 147 C 42 145.262, 42.667 145, 47.094 145 C 51.346 145, 52.274 145.330, 52.710 147 C 53.103 148.503, 54.074 149, 56.617 149 C 58.831 149, 60 149.478, 60 150.383 C 60 151.144, 60.900 152.002, 62 152.290 C 63.670 152.726, 64 153.654, 64 157.906 L 64 163 67.500 163 L 71 163 71 170.031 C 71 175.301, 70.631 177.204, 69.527 177.628 C 68.717 177.939, 67.767 179.725, 67.416 181.597 L 66.777 185 58.295 185 C 50.654 185, 49.761 184.802, 49.290 183 C 48.848 181.312, 47.926 181, 43.383 181 C 39.265 181, 38 180.648, 38 179.500 C 38 178.513, 37.013 178, 35.117 178 C 32.063 178, 31.041 179.774, 31.014 185.125 C 31.003 187.269, 31.572 187.864, 34.125 188.375 C 35.844 188.719, 38.319 189, 39.625 189 C 41.069 189, 42 189.588, 42 190.500 C 42 191.770, 44.431 192, 57.875 192 L 73.750 192 74.375 188.875 C 74.719 187.156, 75 184.006, 75 181.875 C 75 179.097, 75.425 178, 76.500 178 C 77.688 178, 78 176.569, 78 171.117 C 78 165.074, 78.244 164.169, 80 163.710 C 81.875 163.220, 82 162.346, 82 149.719 C 82 134.612, 81.386 130, 79.375 130 C 78.392 130, 78 128.576, 78 125 C 78 120.667, 77.733 120, 76 120 C 74.381 120, 74 119.333, 74 116.500 C 74 114.056, 73.548 113, 72.500 113 C 71.675 113, 71 112.283, 71 111.406 C 71 110.530, 70.100 109.577, 69 109.290 C 67.900 109.002, 67 108.144, 67 107.383 C 67 106.623, 66.283 106, 65.406 106 C 64.530 106, 63.577 105.100, 63.290 104 C 62.897 102.497, 61.926 102, 59.383 102 C 56.667 102, 56 101.606, 56 100 C 56 98.190, 55.333 98, 49 98 C 43.444 98, 42 97.690, 42 96.500 C 42 95.452, 40.944 95, 38.500 95 C 36.056 95, 35 95.452, 35 96.500 M 205.750 134.689 C 204.787 134.941, 204 135.789, 204 136.573 C 204 137.703, 202.128 138, 195 138 C 187.987 138, 186 138.307, 186 139.389 C 186 140.184, 184.505 141.058, 182.500 141.434 C 180.405 141.827, 179 142.675, 179 143.545 C 179 144.345, 178.100 145, 177 145 C 175.333 145, 175 145.667, 175 149 L 175 153 179.375 153 C 185.741 153, 190 151.948, 190 150.375 C 190 149.396, 191.407 149, 194.883 149 C 198.926 149, 199.857 148.656, 200.290 147 C 200.734 145.301, 201.654 145, 206.406 145 C 210.712 145, 212 144.655, 212 143.500 C 212 142.284, 213.611 142, 220.500 142 L 229 142 229 147 C 229 150.600, 228.611 152, 227.611 152 C 226.816 152, 225.942 153.495, 225.566 155.500 C 225.173 157.595, 224.325 159, 223.455 159 C 222.424 159, 222 160.166, 222 163 C 222 165.834, 221.576 167, 220.545 167 C 219.675 167, 218.827 168.405, 218.434 170.500 C 218.073 172.425, 217.203 174, 216.500 174 C 215.797 174, 214.927 175.575, 214.566 177.500 C 214.173 179.595, 213.325 181, 212.455 181 C 211.655 181, 211 181.900, 211 183 C 211 184.111, 210.333 185, 209.500 185 C 208.675 185, 208 185.675, 208 186.500 C 208 187.333, 207.111 188, 206 188 C 204.889 188, 204 187.333, 204 186.500 C 204 185.472, 202.969 185, 200.722 185 C 198.682 185, 196.798 184.245, 195.732 183 C 194.790 181.900, 192.890 181, 191.510 181 C 190.008 181, 189 180.430, 189 179.579 C 189 177.707, 183.956 176.663, 178.978 177.504 L 175 178.176 175 183 L 175 187.824 179 188.500 C 181.459 188.915, 183 189.720, 183 190.588 C 183 191.616, 184.361 192, 188 192 C 191.600 192, 193 192.389, 193 193.389 C 193 194.184, 194.495 195.058, 196.500 195.434 C 199.950 196.081, 201.587 199, 198.500 199 C 197.667 199, 197 199.889, 197 201 C 197 202.333, 196.333 203, 195 203 C 193.381 203, 193 203.667, 193 206.500 C 193 209.333, 192.619 210, 191 210 C 189.889 210, 189 210.667, 189 211.500 C 189 212.325, 188.325 213, 187.500 213 C 186.675 213, 186 213.848, 186 214.883 C 186 215.926, 185.107 217, 184 217.290 C 182.900 217.577, 182 218.530, 182 219.406 C 182 220.283, 181.377 221, 180.617 221 C 179.856 221, 178.998 221.900, 178.710 223 C 178.423 224.100, 177.470 225, 176.594 225 C 175.717 225, 175 225.675, 175 226.500 C 175 227.325, 174.325 228, 173.500 228 C 172.675 228, 172 228.717, 172 229.594 C 172 230.470, 171.100 231.423, 170 231.710 C 168.900 231.998, 168 232.856, 168 233.617 C 168 234.377, 167.100 235, 166 235 C 164.407 235, 164.003 235.662, 164.014 238.250 C 164.034 243, 165.041 246, 166.617 246 C 167.377 246, 168 245.377, 168 244.617 C 168 243.856, 168.900 242.998, 170 242.710 C 171.100 242.423, 172 241.470, 172 240.594 C 172 239.717, 172.675 239, 173.500 239 C 174.333 239, 175 238.111, 175 237 C 175 235.667, 175.667 235, 177 235 C 178.100 235, 179 234.377, 179 233.617 C 179 232.856, 179.900 231.998, 181 231.710 C 182.100 231.423, 183 230.470, 183 229.594 C 183 228.717, 183.675 228, 184.500 228 C 185.333 228, 186 227.111, 186 226 C 186 224.667, 186.667 224, 188 224 C 189.111 224, 190 223.333, 190 222.500 C 190 221.675, 190.675 221, 191.500 221 C 192.333 221, 193 220.111, 193 219 C 193 217.900, 193.655 217, 194.455 217 C 195.325 217, 196.173 215.595, 196.566 213.500 C 197.041 210.967, 197.745 210, 199.111 210 C 200.150 210, 201 209.325, 201 208.500 C 201 207.675, 201.675 207, 202.500 207 C 203.333 207, 204 206.111, 204 205 C 204 203.127, 204.667 203, 214.500 203 C 223.167 203, 225 203.262, 225 204.500 C 225 205.412, 225.931 206, 227.375 206 C 231.880 206, 236 207.254, 236 208.625 C 236 209.563, 237.273 210, 240 210 C 242.739 210, 244 210.436, 244 211.383 C 244 212.899, 246.968 213.965, 251.250 213.986 C 253.022 213.995, 254 214.534, 254 215.500 C 254 216.555, 255.066 217, 257.594 217 C 260.346 217, 261.310 217.468, 261.710 219 C 262.103 220.503, 263.074 221, 265.617 221 C 267.831 221, 269 221.478, 269 222.383 C 269 223.144, 269.900 224.002, 271 224.290 C 272.100 224.577, 273 225.530, 273 226.406 C 273 227.283, 273.675 228, 274.500 228 C 275.325 228, 276 228.623, 276 229.383 C 276 230.669, 278.840 231.955, 281.750 231.986 C 282.544 231.995, 283 230.541, 283 228 C 283 225.211, 282.570 224, 281.579 224 C 280.798 224, 279.866 222.664, 279.507 221.032 C 278.980 218.634, 278.196 217.940, 275.428 217.420 C 273.542 217.067, 272 216.188, 272 215.468 C 272 214.748, 270.650 213.862, 269 213.500 C 267.350 213.138, 266 212.202, 266 211.421 C 266 210.430, 264.789 210, 262 210 C 258.667 210, 258 209.667, 258 208 C 258 206.381, 257.333 206, 254.500 206 C 252.056 206, 251 205.548, 251 204.500 C 251 203.456, 249.950 203, 247.550 203 C 245.397 203, 243.756 202.386, 243.185 201.366 C 242.594 200.310, 240.456 199.558, 237.135 199.239 C 233.942 198.932, 232 198.270, 232 197.489 C 232 196.088, 228.915 195.034, 224.750 195.014 C 222.978 195.005, 222 194.466, 222 193.500 C 222 192.667, 221.111 192, 220 192 C 218.900 192, 218.006 191.438, 218.014 190.750 C 218.045 187.840, 219.331 185, 220.617 185 C 221.522 185, 222 183.831, 222 181.617 C 222 179.074, 222.497 178.103, 224 177.710 C 225.456 177.329, 226 176.346, 226 174.094 C 226 172.010, 226.490 171, 227.500 171 C 228.555 171, 229 169.934, 229 167.406 C 229 164.654, 229.468 163.690, 231 163.290 C 232.503 162.897, 233 161.926, 233 159.383 C 233 157.163, 233.477 156, 234.389 156 C 235.184 156, 236.058 154.505, 236.434 152.500 C 236.827 150.405, 237.675 149, 238.545 149 C 239.689 149, 240 147.396, 240 141.500 L 240 134 223.750 134.116 C 214.813 134.180, 206.713 134.438, 205.750 134.689" stroke="none" fill="black" fill-rule="evenodd"/>
</svg>