<svg xmlns="http://www.w3.org/2000/svg" width="300" height="300" viewBox="0 0 300 300" version="1.1">
	<path d="M 187.750 37.689 C 186.787 37.941, 186 38.789, 186 39.573 C 186 40.703, 184.128 41, 177 41 C 169.667 41, 168 41.278, 168 42.500 C 168 43.575, 166.903 44, 164.125 44 C 158.228 44, 154 45.096, 154 46.625 C 154 47.563, 152.727 48, 150 48 C 147.166 48, 146 48.424, 146 49.455 C 146 50.325, 144.595 51.173, 142.500 51.566 C 140.575 51.927, 139 52.797, 139 53.500 C 139 54.203, 137.425 55.073, 135.500 55.434 C 132.059 56.080, 132 56.175, 132 61.045 C 132 64.597, 132.392 66, 133.383 66 C 134.144 66, 135.002 66.900, 135.290 68 C 135.690 69.532, 136.654 70, 139.406 70 C 142.932 70, 143 69.925, 143 66 C 143 63.111, 143.417 62, 144.500 62 C 145.325 62, 146 61.325, 146 60.500 C 146 59.667, 146.889 59, 148 59 C 149.333 59, 150 58.333, 150 57 C 150 55.242, 150.667 55, 155.500 55 C 159.722 55, 161 54.652, 161 53.500 C 161 52.379, 162.201 51.997, 165.750 51.986 C 171.923 51.969, 175 51.103, 175 49.383 C 175 48.308, 177.004 48, 184 48 C 191.163 48, 193 47.706, 193 46.561 C 193 44.657, 199.176 43.795, 209.989 44.190 C 217.132 44.451, 218.531 44.777, 218.812 46.250 C 219.044 47.461, 218.509 48, 217.073 48 C 215.667 48, 215 48.643, 215 50 C 215 51.721, 215.662 51.998, 219.750 51.986 C 227.272 51.965, 228.868 51.219, 229.587 47.390 C 229.947 45.469, 230.825 44, 231.611 44 C 232.375 44, 233 43.325, 233 42.500 C 233 41.675, 232.283 41, 231.406 41 C 230.530 41, 229.577 40.100, 229.290 39 C 228.788 37.081, 227.976 37.005, 209.133 37.116 C 198.335 37.180, 188.713 37.438, 187.750 37.689 M 74.120 56.750 C 73.333 58.156, 71.454 58.569, 64.570 58.853 C 58.455 59.104, 56 59.572, 56 60.486 C 56 61.190, 55.069 62.010, 53.931 62.308 C 52.271 62.742, 51.925 63.506, 52.181 66.174 C 52.477 69.263, 52.782 69.523, 56.456 69.823 C 62.097 70.283, 67 69.182, 67 67.455 C 67 66.270, 69.041 66, 78 66 L 89 66 89 78.500 L 89 91 83.500 91 C 78.667 91, 78 91.242, 78 93 C 78 94.758, 77.333 95, 72.500 95 C 67.667 95, 67 94.758, 67 93 C 67 91.889, 66.333 91, 65.500 91 C 64.675 91, 64 90.325, 64 89.500 C 64 88.675, 64.675 88, 65.500 88 C 66.652 88, 67 86.722, 67 82.500 L 67 77 60 77 L 53 77 53 82 C 53 85.589, 53.390 87, 54.383 87 C 55.374 87, 55.964 89.122, 56.468 94.500 C 56.980 99.968, 57.554 102, 58.585 102 C 59.670 102, 60 103.632, 60 109 C 60 114.330, 60.334 116, 61.399 116 C 62.396 116, 62.998 118.005, 63.500 123 C 64.002 127.995, 64.604 130, 65.601 130 C 66.620 130, 67.004 131.426, 67.014 135.250 C 67.031 141.902, 67.858 145, 69.617 145 C 70.564 145, 71 146.261, 71 149 C 71 152.905, 71.083 153, 74.500 153 C 76.944 153, 78 153.452, 78 154.500 C 78 155.548, 79.056 156, 81.500 156 C 84.906 156, 85 155.895, 85 152.071 C 85 147.055, 87.055 145, 92.071 145 L 96 145 96 151.899 L 96 158.797 89 159.500 C 84.005 160.002, 82 160.604, 82 161.601 C 82 162.630, 80.545 163, 76.500 163 C 71.667 163, 71 163.242, 71 165 C 71 166.758, 70.333 167, 65.500 167 C 61.278 167, 60 167.348, 60 168.500 C 60 169.548, 58.944 170, 56.500 170 C 53.667 170, 53 170.381, 53 172 C 53 173.333, 52.333 174, 51 174 C 49.242 174, 49 174.667, 49 179.500 C 49 183.722, 49.348 185, 50.500 185 C 51.325 185, 52 185.675, 52 186.500 C 52 187.325, 52.880 188, 53.955 188 C 55.397 188, 56.082 187.082, 56.566 184.500 C 56.942 182.495, 57.816 181, 58.611 181 C 59.375 181, 60 180.375, 60 179.611 C 60 178.816, 61.495 177.942, 63.500 177.566 C 65.595 177.173, 67 176.325, 67 175.455 C 67 174.424, 68.166 174, 71 174 C 73.814 174, 75 173.573, 75 172.561 C 75 171.511, 76.895 170.934, 82 170.431 C 86.927 169.946, 89 169.336, 89 168.371 C 89 167.393, 90.432 167, 94 167 C 98.484 167, 99.012 167.232, 99.116 169.250 C 99.181 170.488, 99.339 175.100, 99.468 179.500 C 99.597 183.900, 99.769 189.188, 99.851 191.250 L 100 195 105 195 C 108.778 195, 110 194.633, 110 193.500 C 110 192.667, 110.889 192, 112 192 C 113.619 192, 114 191.333, 114 188.500 C 114 185.167, 113.833 185, 110.500 185 L 107 185 107 176 C 107 168.667, 107.278 167, 108.500 167 C 109.333 167, 110 166.111, 110 165 C 110 163.140, 110.667 163, 119.500 163 C 127.278 163, 129 162.728, 129 161.500 C 129 160.397, 130.150 160, 133.349 160 C 143.435 160, 153 158.712, 153 157.353 C 153 156.311, 155.180 156, 162.500 156 C 169.971 156, 172 155.701, 172 154.601 C 172 153.604, 174.005 153.002, 179 152.500 C 185.062 151.891, 186 151.533, 186 149.825 C 186 147.045, 189.409 147.880, 189.820 150.760 C 189.995 151.992, 190.783 153, 191.570 153 C 192.719 153, 193 155.060, 193 163.500 C 193 172.167, 192.738 174, 191.500 174 C 190.644 174, 190 174.899, 190 176.094 C 190 178.103, 189.560 178.180, 179.250 177.982 C 160.231 177.617, 157 177.838, 157 179.500 C 157 180.689, 155.561 181, 150.050 181 C 144.487 181, 142.905 181.347, 142.126 182.739 C 141.357 184.113, 139.457 184.555, 133.076 184.845 L 125 185.212 125 193.606 C 125 200.401, 125.286 202, 126.500 202 C 127.486 202, 128 202.986, 128 204.875 C 128 209.841, 129.196 214, 130.625 214 C 131.661 214, 132 215.727, 132 221 C 132 226.330, 132.334 228, 133.399 228 C 134.396 228, 134.998 230.005, 135.500 235 C 135.985 239.829, 136.618 242, 137.541 242 C 138.366 242, 138.998 243.440, 139.190 245.750 L 139.500 249.500 144.750 249.802 L 150 250.105 150 244.669 C 150 240.074, 149.691 239.152, 148 238.710 C 146.544 238.329, 146 237.346, 146 235.094 C 146 233.010, 145.510 232, 144.500 232 C 143.350 232, 143 230.728, 143 226.550 C 143 222.412, 142.581 220.865, 141.261 220.126 C 139.887 219.357, 139.445 217.457, 139.155 211.076 C 138.807 203.415, 138.896 203, 140.894 203 C 142.780 203, 143 202.426, 143 197.500 L 143 192 148.500 192 C 152.516 192, 154 191.627, 154 190.617 C 154 188.553, 157.272 188.029, 170.250 188.014 C 181.338 188.001, 182 188.113, 182 190 C 182 191.778, 182.667 192, 188 192 C 192.442 192, 194 192.359, 194 193.383 C 194 194.899, 196.968 195.965, 201.250 195.986 C 203.329 195.997, 204 196.488, 204 198 C 204 199.111, 204.667 200, 205.500 200 C 206.540 200, 207.046 201.150, 207.151 203.750 C 207.234 205.813, 207.397 209.075, 207.513 211 C 207.850 216.585, 206.912 221, 205.389 221 C 204.336 221, 204 222.694, 204 228 C 204 234.333, 203.810 235, 202 235 C 200.381 235, 200 235.667, 200 238.500 C 200 240.944, 199.548 242, 198.500 242 C 197.667 242, 197 242.889, 197 244 C 197 245.852, 196.333 246, 188 246 C 180.667 246, 179 246.278, 179 247.500 C 179 248.605, 177.847 249, 174.625 249 C 168.259 249, 164 250.052, 164 251.625 C 164 252.661, 162.273 253, 157 253 C 150.667 253, 150 253.190, 150 255 C 150 256.333, 149.333 257, 148 257 C 146.381 257, 146 257.667, 146 260.500 L 146 264 153.500 264 C 159.500 264, 161 263.700, 161 262.500 C 161 261.588, 161.931 261, 163.375 261 C 167.880 261, 172 259.746, 172 258.375 C 172 257.339, 173.727 257, 179 257 C 185.333 257, 186 257.190, 186 259 C 186 260.111, 185.333 261, 184.500 261 C 183.675 261, 183 261.675, 183 262.500 C 183 263.633, 184.222 264, 188 264 C 192.333 264, 193 263.733, 193 262 C 193 260.900, 193.639 260, 194.421 260 C 195.202 260, 196.128 258.696, 196.478 257.102 C 197.237 253.644, 199 253.032, 208.250 253.014 C 213.336 253.003, 215 252.658, 215 251.611 C 215 250.816, 216.495 249.942, 218.500 249.566 C 221.950 248.919, 223.587 246, 220.500 246 C 219.675 246, 219 245.352, 219 244.559 C 219 243.766, 218.596 242.868, 218.103 242.563 C 216.530 241.591, 211 243.196, 211 244.625 C 211 245.381, 210.325 246, 209.500 246 C 208.452 246, 208 244.944, 208 242.500 C 208 240.056, 208.452 239, 209.500 239 C 210.544 239, 211 237.950, 211 235.550 C 211 233.345, 211.612 231.757, 212.696 231.150 C 213.945 230.451, 214.503 228.462, 214.813 223.600 C 215.115 218.850, 215.621 217, 216.616 217 C 217.663 217, 218 215.294, 218 210 C 218 204.444, 217.690 203, 216.500 203 C 215.348 203, 215 201.722, 215 197.500 C 215 192.667, 214.758 192, 213 192 C 211.667 192, 211 191.333, 211 190 C 211 188.889, 210.333 188, 209.500 188 C 208.675 188, 208 187.352, 208 186.560 C 208 185.619, 206.703 185.013, 204.250 184.810 L 200.500 184.500 200.825 177.500 C 201.426 164.565, 199.935 142, 198.480 142 C 197.488 142, 197.086 139.055, 196.834 129.928 C 196.551 119.687, 196.234 117.708, 194.750 116.878 C 191.824 115.244, 192.595 102, 195.617 102 C 196.377 102, 197 101.345, 197 100.545 C 197 99.675, 198.405 98.827, 200.500 98.434 C 202.505 98.058, 204 97.184, 204 96.389 C 204 95.342, 205.664 94.997, 210.750 94.986 C 218.848 94.970, 222 94.241, 222 92.383 C 222 91.279, 224.524 91, 234.500 91 C 245.271 91, 247 90.780, 247 89.406 C 247 88.530, 247.924 87.571, 249.054 87.276 C 250.665 86.854, 251.042 86.067, 250.804 83.619 C 250.510 80.606, 250.321 80.490, 245.250 80.198 C 241.473 79.980, 240 79.489, 240 78.448 C 240 77.244, 237.299 77, 224 77 C 210.444 77, 208 77.229, 208 78.500 C 208 79.662, 206.684 80, 202.156 80 C 188.210 80, 175 81.290, 175 82.652 C 175 83.654, 173.205 84, 168 84 L 161 84 161 80.500 C 161 78.056, 161.452 77, 162.500 77 C 163.412 77, 164 76.069, 164 74.625 C 164 73.319, 164.281 70.844, 164.625 69.125 C 165.177 66.366, 165.645 66, 168.625 66 C 170.958 66, 172 65.537, 172 64.500 C 172 63.534, 172.978 62.995, 174.750 62.986 C 179.032 62.965, 182 61.899, 182 60.383 C 182 59.337, 180.293 59, 175 59 C 169.444 59, 168 59.310, 168 60.500 C 168 61.637, 166.767 62, 162.906 62 C 158.654 62, 157.726 62.330, 157.290 64 C 157.002 65.100, 156.184 66, 155.471 66 C 153.747 66, 152.935 71.518, 153.044 82.500 C 153.197 97.993, 154.074 106, 155.617 106 C 156.741 106, 157.031 109.650, 157.167 125.500 C 157.258 136.225, 157.371 145.787, 157.417 146.750 C 157.489 148.277, 156.321 148.537, 148.250 148.788 C 140.931 149.015, 139 149.380, 139 150.538 C 139 151.728, 137.047 152, 128.500 152 C 118.667 152, 118 152.127, 118 154 C 118 155.758, 117.333 156, 112.500 156 L 107 156 107 152.469 C 107 150.252, 106.441 148.723, 105.500 148.362 C 104.645 148.034, 104 146.542, 104 144.893 C 104 142.988, 104.512 142, 105.500 142 C 106.333 142, 107 141.111, 107 140 C 107 138.900, 107.623 138, 108.383 138 C 109.144 138, 110.002 138.900, 110.290 140 C 110.726 141.670, 111.654 142, 115.906 142 C 120.333 142, 121 141.738, 121 140 C 121 138.667, 121.667 138, 123 138 C 124.111 138, 125 138.667, 125 139.500 C 125 140.325, 125.717 141, 126.594 141 C 127.470 141, 128.423 141.900, 128.710 143 C 128.998 144.100, 129.856 145, 130.617 145 C 131.377 145, 132 144.100, 132 143 C 132 141.900, 132.626 141, 133.392 141 C 134.895 141, 136.437 136.516, 135.472 134.954 C 135.147 134.429, 134.234 134, 133.441 134 C 132.383 134, 132 132.702, 132 129.117 C 132 125.074, 132.344 124.143, 134 123.710 C 135.532 123.310, 136 122.346, 136 119.594 C 136 117.066, 136.445 116, 137.500 116 C 138.716 116, 139 114.389, 139 107.500 C 139 100.611, 138.716 99, 137.500 99 C 136.667 99, 136 98.111, 136 97 C 136 95.667, 135.333 95, 134 95 C 132.667 95, 132 94.333, 132 93 C 132 91.333, 131.333 91, 128 91 C 125.111 91, 124 90.583, 124 89.500 C 124 88.250, 122 88, 112 88 L 100 88 100 77 C 100 66.667, 100.121 66, 102 66 C 103.111 66, 104 65.333, 104 64.500 C 104 63.367, 105.222 63, 109 63 C 112.778 63, 114 63.367, 114 64.500 C 114 65.538, 115.043 66, 117.383 66 C 119.926 66, 120.897 66.497, 121.290 68 C 121.577 69.100, 122.347 70, 123 70 C 123.653 70, 124.423 69.100, 124.710 68 C 124.998 66.900, 125.856 66, 126.617 66 C 127.377 66, 128 65.100, 128 64 C 128 62.889, 127.333 62, 126.500 62 C 125.675 62, 125 61.375, 125 60.611 C 125 59.816, 123.505 58.942, 121.500 58.566 C 119.405 58.173, 118 57.325, 118 56.455 C 118 55.227, 114.653 55, 96.550 55 C 77.161 55, 75.005 55.168, 74.120 56.750 M 218 85.353 C 218 86.896, 208.131 88, 194.349 88 C 187.594 88, 186 88.286, 186 89.500 C 186 90.691, 184.552 91, 178.969 91 C 173.699 91, 171.796 91.369, 171.372 92.473 C 171.061 93.283, 169.211 94.245, 167.260 94.611 L 163.713 95.276 164.356 105.794 C 164.710 111.578, 165 119.616, 165 123.656 C 165 129.517, 165.303 131, 166.500 131 C 167.690 131, 168 132.444, 168 138 L 168 145 171.500 145 C 173.803 145, 175 144.530, 175 143.625 C 175 141.984, 179.410 140.954, 183.250 141.700 C 184.762 141.993, 186 142.856, 186 143.617 C 186 146.220, 188.749 145.004, 189.320 142.149 C 190.062 138.438, 189.131 135, 187.383 135 C 186.279 135, 186 132.476, 186 122.500 C 186 112.056, 185.753 110, 184.500 110 C 183.667 110, 183 109.111, 183 108 C 183 106.889, 183.667 106, 184.500 106 C 185.583 106, 186 104.889, 186 102 C 186 99.111, 186.417 98, 187.500 98 C 188.325 98, 189 97.325, 189 96.500 C 189 95.675, 189.878 95, 190.950 95 C 192.023 95, 193.341 94.213, 193.878 93.250 C 194.719 91.745, 196.752 91.454, 208.428 91.173 C 218.762 90.923, 222 90.533, 222 89.539 C 222 88.821, 222.900 87.998, 224 87.710 C 225.100 87.423, 226 86.470, 226 85.594 C 226 84.401, 224.993 84, 222 84 C 219.304 84, 218 84.441, 218 85.353 M 107 96.389 C 107 97.184, 105.505 98.058, 103.500 98.434 C 100.302 99.034, 100 99.389, 100 102.545 C 100 104.949, 100.456 106, 101.500 106 C 102.325 106, 103 106.675, 103 107.500 C 103 108.757, 105.124 109, 116.117 109 C 129.231 109, 129.233 109, 128.630 106.750 C 128.299 105.513, 128.021 103.938, 128.014 103.250 C 128.006 102.563, 127.100 102, 126 102 C 124.900 102, 124 101.352, 124 100.561 C 124 99.511, 122.105 98.934, 117 98.431 C 112.073 97.946, 110 97.336, 110 96.371 C 110 95.617, 109.325 95, 108.500 95 C 107.675 95, 107 95.625, 107 96.389 M 85 100.500 C 85 101.633, 83.778 102, 80 102 C 76.092 102, 75 102.348, 75 103.594 C 75 104.470, 74.100 105.423, 73 105.710 C 71.201 106.181, 71 107.074, 71 114.617 C 71 121.402, 71.286 123, 72.500 123 C 73.605 123, 74 124.153, 74 127.375 C 74 129.781, 74.281 133.156, 74.625 134.875 C 75.222 137.862, 75.465 138, 80.125 138 C 83.657 138, 85 137.611, 85 136.588 C 85 135.720, 86.541 134.915, 89 134.500 C 92.036 133.987, 93 133.364, 93 131.912 C 93 130.860, 93.675 130, 94.500 130 C 95.500 130, 96 129, 96 127 C 96 124.238, 95.722 124, 92.500 124 C 89.710 124, 89 124.391, 89 125.929 C 89 130.325, 82.331 132.981, 81.290 129 C 81.002 127.900, 80.144 127, 79.383 127 C 78.469 127, 78 125.813, 78 123.500 C 78 120.667, 78.381 120, 80 120 C 81.100 120, 82 119.345, 82 118.545 C 82 117.675, 83.405 116.827, 85.500 116.434 C 87.505 116.058, 89 115.184, 89 114.389 C 89 113.625, 89.675 113, 90.500 113 C 91.690 113, 92 111.556, 92 106 L 92 99 88.500 99 C 86.056 99, 85 99.452, 85 100.500 M 107.352 116.716 C 103.773 117.166, 103.035 118.788, 103.014 126.250 C 103.001 130.587, 103.206 131, 105.375 131 C 109.880 131, 114 129.746, 114 128.375 C 114 127.375, 115.500 127, 119.500 127 L 125 127 125 123.500 C 125 121.056, 124.548 120, 123.500 120 C 122.675 120, 122 119.381, 122 118.625 C 122 116.411, 116.001 115.629, 107.352 116.716 M 166.750 206.689 C 165.787 206.941, 165 207.789, 165 208.573 C 165 209.571, 163.798 210, 161 210 C 157.667 210, 157 210.333, 157 212 C 157 213.111, 156.333 214, 155.500 214 C 154.310 214, 154 215.444, 154 221 L 154 228 157.500 228 C 160.833 228, 161 227.833, 161 224.500 C 161 222.187, 161.469 221, 162.383 221 C 163.144 221, 164.002 220.100, 164.290 219 C 164.776 217.140, 165.654 217, 176.790 217 C 190.404 217, 189.959 216.685, 189.986 226.344 C 189.998 230.353, 189.655 231.277, 188 231.710 C 186.900 231.998, 186 232.856, 186 233.617 C 186 234.377, 185.325 235, 184.500 235 C 183.452 235, 183 236.056, 183 238.500 C 183 240.944, 183.452 242, 184.500 242 C 185.325 242, 186 241.325, 186 240.500 C 186 239.667, 186.889 239, 188 239 C 189.100 239, 190 238.377, 190 237.617 C 190 236.856, 190.900 235.998, 192 235.710 C 193.100 235.423, 194 234.470, 194 233.594 C 194 232.717, 194.675 232, 195.500 232 C 196.728 232, 197 230.278, 197 222.500 C 197 214.722, 196.728 213, 195.500 213 C 194.675 213, 194 212.325, 194 211.500 C 194 210.567, 193.056 210, 191.500 210 C 190.038 210, 189 209.426, 189 208.617 C 189 207.856, 187.988 206.962, 186.750 206.630 C 184.204 205.948, 169.420 205.992, 166.750 206.689" stroke="none" fill="black" fill-rule="evenodd"/>
</svg>