<svg xmlns="http://www.w3.org/2000/svg" width="300" height="300" viewBox="0 0 300 300" version="1.1">
	<path d="M 168 47.500 C 168 48.753, 165.944 49, 155.500 49 C 145.524 49, 143 49.279, 143 50.383 C 143 52.142, 139.902 52.969, 133.250 52.986 C 129.256 52.997, 128 53.359, 128 54.500 C 128 55.548, 126.944 56, 124.500 56 C 121.667 56, 121 55.619, 121 54 C 121 52.889, 120.333 52, 119.500 52 C 118.675 52, 118 51.325, 118 50.500 C 118 49.417, 116.889 49, 114 49 L 110 49 110 56.500 C 110 62.500, 109.700 64, 108.500 64 C 107.675 64, 107 64.623, 107 65.383 C 107 66.144, 106.100 67.002, 105 67.290 C 103.528 67.675, 103 68.654, 103 71 C 103 73.346, 103.528 74.325, 105 74.710 C 106.100 74.998, 107 75.856, 107 76.617 C 107 77.377, 107.900 78, 109 78 C 110.111 78, 111 78.667, 111 79.500 C 111 80.548, 112.056 81, 114.500 81 C 116.944 81, 118 80.548, 118 79.500 C 118 78.675, 118.675 78, 119.500 78 C 120.523 78, 121.004 79.034, 121.014 81.250 C 121.034 86, 122.041 89, 123.617 89 C 124.663 89, 125 90.707, 125 96 C 125 101.556, 125.310 103, 126.500 103 C 127.333 103, 128 103.889, 128 105 C 128 106.629, 128.667 107, 131.594 107 C 134.346 107, 135.310 106.532, 135.710 105 C 136.103 103.497, 137.074 103, 139.617 103 C 141.957 103, 143 102.538, 143 101.500 C 143 100.425, 144.097 100, 146.875 100 C 149.006 100, 152.156 99.719, 153.875 99.375 C 156.740 98.802, 157 98.968, 157 101.375 C 157 103.042, 156.452 104, 155.500 104 C 154.500 104, 154 105, 154 107 C 154 109.333, 153.556 110, 152 110 C 150.667 110, 150 110.667, 150 112 C 150 113.822, 149.333 114, 142.500 114 C 136.781 114, 135 114.329, 135 115.383 C 135 116.899, 132.032 117.965, 127.750 117.986 C 125.978 117.995, 125 118.534, 125 119.500 C 125 120.537, 123.958 121, 121.625 121 C 118.651 121, 118.176 121.368, 117.630 124.098 C 117.290 125.801, 117.282 128.276, 117.614 129.598 C 118.148 131.725, 118.778 132, 123.108 132 C 126.654 132, 128 131.612, 128 130.588 C 128 129.720, 129.541 128.915, 132 128.500 C 134.459 128.085, 136 127.280, 136 126.412 C 136 125.465, 137.152 125, 139.500 125 C 141.803 125, 143 124.530, 143 123.625 C 143 122.869, 144.406 121.969, 146.125 121.625 C 151.501 120.550, 153 120.850, 153 123 C 153 124.111, 152.333 125, 151.500 125 C 150.452 125, 150 126.056, 150 128.500 C 150 131.333, 149.619 132, 148 132 C 146.900 132, 146 132.625, 146 133.389 C 146 134.184, 144.505 135.058, 142.500 135.434 C 140.405 135.827, 139 136.675, 139 137.545 C 139 138.628, 137.697 139, 133.906 139 C 129.654 139, 128.726 139.330, 128.290 141 C 127.897 142.503, 126.926 143, 124.383 143 C 122.043 143, 121 143.462, 121 144.500 C 121 145.466, 120.022 146.005, 118.250 146.014 C 113.968 146.035, 111 147.101, 111 148.617 C 111 149.377, 110.128 150, 109.061 150 C 107.535 150, 106.981 150.942, 106.458 154.429 C 106.093 156.865, 106.092 159.340, 106.456 159.929 C 106.824 160.524, 110.204 161, 114.059 161 C 120.333 161, 121 160.808, 121 159 C 121 157.381, 121.667 157, 124.500 157 C 127.833 157, 128 156.833, 128 153.500 C 128 150.667, 128.381 150, 130 150 C 131.111 150, 132 149.333, 132 148.500 C 132 145.413, 134.919 147.050, 135.566 150.500 C 136.266 154.231, 139 155.425, 139 152 C 139 150.381, 139.667 150, 142.500 150 C 144.820 150, 146 149.532, 146 148.611 C 146 147.816, 147.495 146.942, 149.500 146.566 C 151.595 146.173, 153 145.325, 153 144.455 C 153 143.655, 153.900 143, 155 143 C 156.104 143, 157 142.333, 157 141.512 C 157 140.549, 158.412 139.798, 161 139.384 C 163.413 138.998, 165 138.200, 165 137.372 C 165 136.505, 166.138 136, 168.094 136 C 170.346 136, 171.329 135.456, 171.710 134 C 172.103 132.497, 173.074 132, 175.617 132 C 177.911 132, 179 131.532, 179 130.545 C 179 129.675, 180.405 128.827, 182.500 128.434 C 184.505 128.058, 186 127.184, 186 126.389 C 186 125.372, 187.474 125, 191.500 125 C 195.722 125, 197 125.348, 197 126.500 C 197 127.325, 196.283 128, 195.406 128 C 194.530 128, 193.577 128.900, 193.290 130 C 192.897 131.503, 191.926 132, 189.383 132 C 186.667 132, 186 132.394, 186 134 C 186 135.619, 185.333 136, 182.500 136 C 180.575 136, 179 136.499, 179 137.109 C 179 138.645, 174.774 142.962, 173.250 142.983 C 172.563 142.992, 172 143.675, 172 144.500 C 172 145.333, 171.111 146, 170 146 C 168.667 146, 168 146.667, 168 148 C 168 149.619, 167.333 150, 164.500 150 C 161.964 150, 161 150.439, 161 151.594 C 161 152.470, 160.100 153.423, 159 153.710 C 157.900 153.998, 157 154.803, 157 155.500 C 157 156.197, 156.100 157.002, 155 157.290 C 153.900 157.577, 153 158.530, 153 159.406 C 153 160.283, 152.325 161, 151.500 161 C 150.675 161, 150 161.625, 150 162.389 C 150 163.184, 148.505 164.058, 146.500 164.434 C 144.405 164.827, 143 165.675, 143 166.545 C 143 167.345, 142.100 168, 141 168 C 139.889 168, 139 168.667, 139 169.500 C 139 170.325, 138.283 171, 137.406 171 C 136.530 171, 135.577 171.900, 135.290 173 C 135.002 174.100, 134.144 175, 133.383 175 C 132.623 175, 132 175.675, 132 176.500 C 132 177.325, 131.283 178, 130.406 178 C 129.530 178, 128.584 178.874, 128.305 179.943 C 128.009 181.073, 126.584 182.152, 124.898 182.522 C 123.304 182.872, 122 183.798, 122 184.579 C 122 185.361, 121.100 186, 120 186 C 118.667 186, 118 186.667, 118 188 C 118 189.333, 117.333 190, 116 190 C 114.451 190, 114 190.667, 114 192.955 C 114 195.525, 113.556 195.993, 110.592 196.549 C 108.421 196.956, 107.003 197.880, 106.686 199.094 C 106.412 200.142, 105.470 201, 104.594 201 C 103.717 201, 103 201.675, 103 202.500 C 103 203.325, 102.325 204, 101.500 204 C 100.675 204, 100 204.675, 100 205.500 C 100 206.688, 98.569 207, 93.117 207 C 85.164 207, 85.027 206.822, 85.027 196.500 C 85.027 189.140, 85.802 186, 87.617 186 C 88.711 186, 89 183.699, 89 175 C 89 165.889, 89.258 164, 90.500 164 C 91.652 164, 92 162.722, 92 158.500 C 92 154.278, 91.652 153, 90.500 153 C 89.247 153, 89 150.944, 89 140.500 C 89 130.524, 88.721 128, 87.617 128 C 86.041 128, 85.034 125, 85.014 120.250 C 85.004 118.034, 84.523 117, 83.500 117 C 82.452 117, 82 115.944, 82 113.500 C 82 110.667, 81.619 110, 80 110 C 78.381 110, 78 109.333, 78 106.500 C 78 103.667, 77.619 103, 76 103 C 74.889 103, 74 102.333, 74 101.500 C 74 100.675, 73.325 100, 72.500 100 C 71.667 100, 71 99.111, 71 98 C 71 96.242, 70.333 96, 65.500 96 C 61.278 96, 60 95.652, 60 94.500 C 60 93.667, 59.111 93, 58 93 C 56.889 93, 56 93.667, 56 94.500 C 56 95.548, 54.944 96, 52.500 96 C 49.667 96, 49 96.381, 49 98 C 49 99.111, 48.333 100, 47.500 100 C 46.675 100, 46 100.675, 46 101.500 C 46 102.325, 46.675 103, 47.500 103 C 48.783 103, 49 105.889, 49 123 C 49 140.111, 48.783 143, 47.500 143 C 46.218 143, 46 145.833, 46 162.500 C 46 178.472, 46.251 182, 47.389 182 C 48.184 182, 49.058 183.495, 49.434 185.500 C 50.008 188.562, 50.460 189, 53.045 189 C 55.005 189, 56 188.495, 56 187.500 C 56 186.667, 56.889 186, 58 186 C 59.667 186, 60 185.333, 60 182 C 60 179.261, 59.564 178, 58.617 178 C 57.101 178, 56.035 175.032, 56.014 170.750 C 56.005 168.978, 55.466 168, 54.500 168 C 53.675 168, 53 167.377, 53 166.617 C 53 165.101, 55.968 164.035, 60.250 164.014 C 62.474 164.003, 63 163.546, 63 161.625 C 63 157.120, 64.254 153, 65.625 153 C 66.381 153, 67 152.325, 67 151.500 C 67 150.348, 68.278 150, 72.500 150 C 76.722 150, 78 150.348, 78 151.500 C 78 152.325, 78.675 153, 79.500 153 C 80.756 153, 81 155.111, 81 166 C 81 176.889, 80.756 179, 79.500 179 C 78.278 179, 78 180.667, 78 188 C 78 195.333, 77.722 197, 76.500 197 C 75.534 197, 74.995 197.978, 74.986 199.750 C 74.953 206.528, 74.411 206.999, 66.633 207.009 C 55.874 207.022, 49 208.047, 49 209.639 C 49 210.388, 48.325 211, 47.500 211 C 46.452 211, 46 212.056, 46 214.500 L 46 218 51.500 218 C 55.722 218, 57 217.652, 57 216.500 C 57 215.238, 59.222 215, 71 215 C 82.778 215, 85 214.762, 85 213.500 C 85 212.667, 85.889 212, 87 212 C 89.878 212, 89.878 217.958, 87 218.710 C 85.900 218.998, 85 219.856, 85 220.617 C 85 221.377, 84.377 222, 83.617 222 C 82.856 222, 81.998 222.900, 81.710 224 C 81.423 225.100, 80.470 226, 79.594 226 C 78.717 226, 78 226.675, 78 227.500 C 78 228.325, 78.675 229, 79.500 229 C 80.333 229, 81 229.889, 81 231 C 81 232.822, 81.667 233, 88.500 233 C 95.333 233, 96 232.822, 96 231 C 96 229.900, 95.377 229, 94.617 229 C 93.331 229, 92.045 226.160, 92.014 223.250 C 92.006 222.563, 92.900 222, 94 222 C 95.333 222, 96 221.333, 96 220 C 96 218.889, 96.667 218, 97.500 218 C 98.325 218, 99 217.325, 99 216.500 C 99 215.667, 99.889 215, 101 215 C 102.333 215, 103 214.333, 103 213 C 103 211.667, 103.667 211, 105 211 C 106.111 211, 107 210.333, 107 209.500 C 107 208.675, 107.717 208, 108.594 208 C 109.470 208, 110.423 207.100, 110.710 206 C 110.998 204.900, 111.856 204, 112.617 204 C 113.377 204, 114 203.100, 114 202 C 114 200.667, 114.667 200, 116 200 C 117.111 200, 118 199.333, 118 198.500 C 118 197.675, 118.623 197, 119.383 197 C 120.144 197, 121.002 196.100, 121.290 195 C 121.577 193.900, 122.530 193, 123.406 193 C 124.283 193, 125 192.325, 125 191.500 C 125 190.675, 125.717 190, 126.594 190 C 127.470 190, 128.423 189.100, 128.710 188 C 128.998 186.900, 129.856 186, 130.617 186 C 131.377 186, 132 185.375, 132 184.611 C 132 183.816, 133.495 182.942, 135.500 182.566 C 137.595 182.173, 139 181.325, 139 180.455 C 139 179.655, 139.900 179, 141 179 C 142.333 179, 143 178.333, 143 177 C 143 175.381, 143.667 175, 146.500 175 C 149.833 175, 150 174.833, 150 171.500 C 150 168.167, 150.167 168, 153.500 168 C 156.036 168, 157 167.561, 157 166.406 C 157 165.530, 157.900 164.577, 159 164.290 C 160.100 164.002, 161 163.144, 161 162.383 C 161 161.469, 162.187 161, 164.500 161 C 167.333 161, 168 160.619, 168 159 C 168 157.667, 168.667 157, 170 157 C 171.111 157, 172 156.333, 172 155.500 C 172 154.675, 172.675 154, 173.500 154 C 174.333 154, 175 153.111, 175 152 C 175 150.667, 175.667 150, 177 150 C 178.100 150, 179 149.345, 179 148.545 C 179 147.675, 180.405 146.827, 182.500 146.434 C 184.505 146.058, 186 145.184, 186 144.389 C 186 143.625, 186.623 143, 187.383 143 C 188.144 143, 189.002 142.100, 189.290 141 C 189.603 139.803, 190.654 139, 191.906 139 C 193.058 139, 194 138.361, 194 137.579 C 194 136.798, 195.350 135.862, 197 135.500 C 198.650 135.138, 200 134.202, 200 133.421 C 200 132.639, 200.900 132, 202 132 C 203.100 132, 204 131.345, 204 130.545 C 204 129.675, 205.405 128.827, 207.500 128.434 C 209.505 128.058, 211 127.184, 211 126.389 C 211 125.477, 212.163 125, 214.383 125 C 216.926 125, 217.897 124.503, 218.290 123 C 218.690 121.468, 219.654 121, 222.406 121 C 224.934 121, 226 120.555, 226 119.500 C 226 118.363, 227.233 118, 231.094 118 C 235.346 118, 236.274 117.670, 236.710 116 C 237.169 114.244, 238.074 114, 244.117 114 C 249.311 114, 251 113.660, 251 112.617 C 251 111.856, 251.900 110.998, 253 110.710 C 255.465 110.066, 255.629 107.173, 253.250 106.281 C 252.287 105.919, 250.937 104.921, 250.250 104.062 C 249.132 102.665, 248.838 102.711, 247.459 104.500 C 246.100 106.265, 244.511 106.539, 233.959 106.834 C 224.467 107.099, 222 107.460, 222 108.584 C 222 109.605, 220.674 110.004, 217.250 110.014 C 211.077 110.031, 208 110.897, 208 112.617 C 208 113.627, 206.516 114, 202.500 114 L 197 114 197 108.500 C 197 103.667, 197.242 103, 199 103 C 200.111 103, 201 102.333, 201 101.500 C 201 100.675, 201.675 100, 202.500 100 C 203.538 100, 204 98.957, 204 96.617 C 204 94.074, 204.497 93.103, 206 92.710 C 207.532 92.310, 208 91.346, 208 88.594 C 208 86.066, 208.445 85, 209.500 85 C 210.631 85, 211 83.783, 211 80.050 C 211 76.747, 211.486 74.827, 212.462 74.281 C 213.506 73.697, 214.006 71.235, 214.212 65.664 C 214.455 59.087, 214.226 57.710, 212.750 56.882 C 211.787 56.342, 211 55.248, 211 54.450 C 211 53.459, 209.891 53, 207.500 53 C 204.667 53, 204 52.619, 204 51 C 204 49.083, 203.333 49, 188 49 C 174.444 49, 172 48.771, 172 47.500 C 172 46.667, 171.111 46, 170 46 C 168.889 46, 168 46.667, 168 47.500 M 155.250 56.718 C 151.512 56.993, 150 57.521, 150 58.552 C 150 59.687, 148.380 60, 142.500 60 C 136.781 60, 135 60.329, 135 61.383 C 135 62.899, 132.032 63.965, 127.750 63.986 C 125.276 63.999, 125 64.352, 125 67.500 C 125 69.832, 125.467 71, 126.399 71 C 127.396 71, 127.998 73.005, 128.500 78 C 129.002 82.995, 129.604 85, 130.601 85 C 131.533 85, 132 86.168, 132 88.500 C 132 91.833, 132.167 92, 135.500 92 C 137.813 92, 139 91.531, 139 90.616 C 139 89.621, 140.850 89.115, 145.600 88.813 C 150.462 88.503, 152.451 87.945, 153.150 86.696 C 153.757 85.612, 155.345 85, 157.550 85 C 159.902 85, 161 84.537, 161 83.545 C 161 82.675, 162.405 81.827, 164.500 81.434 C 167.541 80.864, 168 80.398, 168 77.889 C 168 75.912, 168.503 75, 169.594 75 C 170.470 75, 171.423 74.100, 171.710 73 C 171.998 71.900, 172.856 71, 173.617 71 C 174.377 71, 175 70.100, 175 69 C 175 67.381, 174.333 67, 171.500 67 C 168.667 67, 168 67.381, 168 69 C 168 70.619, 167.333 71, 164.500 71 C 162.056 71, 161 71.452, 161 72.500 C 161 73.333, 160.111 74, 159 74 C 157.667 74, 157 74.667, 157 76 C 157 77.100, 156.377 78, 155.617 78 C 154.856 78, 153.998 77.100, 153.710 76 C 153.423 74.900, 152.470 74, 151.594 74 C 150.717 74, 150 73.325, 150 72.500 C 150 71.675, 149.325 71, 148.500 71 C 147.667 71, 147 70.111, 147 69 C 147 67.889, 147.667 67, 148.500 67 C 149.325 67, 150 66.325, 150 65.500 C 150 64.358, 151.254 63.998, 155.250 63.991 C 164.255 63.976, 171 62.850, 171 61.361 C 171 60.566, 172.070 60, 173.573 60 C 175.485 60, 176.061 59.550, 175.812 58.250 C 175.531 56.778, 174.288 56.487, 167.989 56.416 C 163.870 56.370, 158.137 56.506, 155.250 56.718 M 193 61.500 C 193 62.325, 192.283 63, 191.406 63 C 190.530 63, 189.577 63.900, 189.290 65 C 189.002 66.100, 188.144 67, 187.383 67 C 186.623 67, 186 67.900, 186 69 C 186 70.333, 185.333 71, 184 71 C 182.889 71, 182 71.667, 182 72.500 C 182 73.325, 181.325 74, 180.500 74 C 179.667 74, 179 74.889, 179 76 C 179 77.333, 178.333 78, 177 78 C 175.667 78, 175 78.667, 175 80 C 175 81.111, 174.333 82, 173.500 82 C 172.675 82, 172 82.616, 172 83.370 C 172 84.261, 173.649 84.926, 176.717 85.272 C 179.312 85.564, 181.599 86.298, 181.801 86.902 C 182.002 87.506, 183.029 88, 184.083 88 C 185.294 88, 186 88.694, 186 89.883 C 186 90.926, 186.893 92, 188 92.290 C 189.532 92.690, 190 93.654, 190 96.406 C 190 99.865, 189.865 100, 186.406 100 C 183.654 100, 182.690 99.532, 182.290 98 C 182 96.893, 180.926 96, 179.883 96 C 178.848 96, 178 95.325, 178 94.500 C 178 93.675, 177.325 93, 176.500 93 C 175.675 93, 175 93.675, 175 94.500 C 175 95.333, 174.111 96, 173 96 C 171.837 96, 171 96.667, 171 97.594 C 171 98.470, 171.900 99.423, 173 99.710 C 174.100 99.998, 175 100.856, 175 101.617 C 175 102.610, 173.590 103, 170 103 C 165.667 103, 165 103.267, 165 105 C 165 106.873, 165.667 107, 175.500 107 C 185.333 107, 186 106.873, 186 105 C 186 103.393, 186.667 103, 189.389 103 C 192.470 103, 192.837 102.682, 193.434 99.500 C 193.827 97.405, 194.675 96, 195.545 96 C 196.541 96, 197 94.896, 197 92.500 C 197 90.152, 197.465 89, 198.412 89 C 199.280 89, 200.085 87.459, 200.500 85 C 200.915 82.541, 201.720 81, 202.588 81 C 203.714 81, 204 78.876, 204 70.500 L 204 60 198.500 60 C 194.278 60, 193 60.348, 193 61.500 M 114 73 C 114 74.111, 114.667 75, 115.500 75 C 116.333 75, 117 74.111, 117 73 C 117 71.889, 116.333 71, 115.500 71 C 114.667 71, 114 71.889, 114 73 M 65.750 110.679 C 64.787 110.936, 64 111.789, 64 112.573 C 64 113.358, 63.100 114, 62 114 C 60.242 114, 60 114.667, 60 119.500 C 60 123.448, 59.619 125, 58.651 125 C 57.648 125, 57.143 127.605, 56.684 135.149 C 56.344 140.730, 56.302 145.680, 56.592 146.149 C 57.605 147.788, 60 146.981, 60 145 C 60 143.381, 60.667 143, 63.500 143 C 65.881 143, 67 142.539, 67 141.559 C 67 139.357, 69.165 138.506, 70.416 140.216 C 71.028 141.053, 72.985 142.057, 74.764 142.448 L 78 143.159 78 135.579 C 78 129.793, 77.673 128, 76.617 128 C 75.041 128, 74.034 125, 74.014 120.250 C 74.005 118.098, 73.515 117, 72.563 117 C 71.674 117, 71.007 115.764, 70.813 113.758 C 70.498 110.491, 69.262 109.740, 65.750 110.679 M 168 115.500 C 168 116.325, 167.283 117, 166.406 117 C 165.530 117, 164.577 117.900, 164.290 119 C 164.002 120.100, 163.144 121, 162.383 121 C 161.469 121, 161 122.187, 161 124.500 C 161 127.333, 161.381 128, 163 128 C 164.111 128, 165 127.333, 165 126.500 C 165 125.371, 166.209 125, 169.883 125 C 173.926 125, 174.857 124.656, 175.290 123 C 175.726 121.330, 176.654 121, 180.906 121 C 185.371 121, 186 120.747, 186 118.955 C 186 117.159, 186.427 116.989, 189.500 117.566 C 192.602 118.148, 193 117.983, 193 116.111 C 193 114.076, 192.553 114, 180.500 114 C 170.056 114, 168 114.247, 168 115.500 M 182 158.319 C 182 159.954, 179.058 160.966, 174.250 160.986 C 172.034 160.996, 171 161.477, 171 162.500 C 171 163.325, 170.325 164, 169.500 164 C 168.417 164, 168 165.111, 168 168 C 168 170.834, 168.424 172, 169.455 172 C 170.325 172, 171.173 173.405, 171.566 175.500 C 172.168 178.711, 172.512 179, 175.736 179 C 179.034 179, 179.217 178.831, 178.708 176.250 C 178.410 174.738, 178.406 172.262, 178.700 170.750 C 179.203 168.157, 179.540 168, 184.617 168 C 188.735 168, 190 167.648, 190 166.500 C 190 165.262, 191.833 165, 200.500 165 C 209.167 165, 211 165.262, 211 166.500 C 211 167.538, 212.043 168, 214.389 168 C 217.470 168, 217.837 168.318, 218.434 171.500 C 218.827 173.595, 219.675 175, 220.545 175 C 221.345 175, 222 175.900, 222 177 C 222 178.111, 222.667 179, 223.500 179 C 224.548 179, 225 180.056, 225 182.500 C 225 184.944, 224.548 186, 223.500 186 C 222.675 186, 222 186.675, 222 187.500 C 222 188.325, 222.675 189, 223.500 189 C 224.583 189, 225 190.111, 225 193 C 225 195.889, 224.583 197, 223.500 197 C 222.462 197, 222 195.957, 222 193.617 C 222 191.074, 221.503 190.103, 220 189.710 C 218.900 189.423, 218 188.470, 218 187.594 C 218 186.439, 217.036 186, 214.500 186 C 211.667 186, 211 185.619, 211 184 C 211 182.095, 210.333 182, 196.906 182 C 183.654 182, 182.782 182.119, 182.290 184 C 182.002 185.100, 181.144 186, 180.383 186 C 179.469 186, 179 187.187, 179 189.500 C 179 193.638, 177.921 193.428, 197.250 193.037 C 210.681 192.766, 211 192.808, 211 194.880 C 211 196.333, 211.629 197, 213 197 C 214.733 197, 215 197.667, 215 202 C 215 205.778, 215.367 207, 216.500 207 C 217.356 207, 218 207.899, 218 209.094 C 218 210.346, 218.803 211.397, 220 211.710 C 222.260 212.301, 222.726 214, 220.628 214 C 219.800 214, 219.002 215.587, 218.616 218 C 218.012 221.780, 217.784 222, 214.488 222 C 212.054 222, 211 222.453, 211 223.500 C 211 224.565, 209.912 225.003, 207.250 225.011 C 200.894 225.030, 196 226.169, 196 227.631 C 196 228.647, 194.352 229, 189.611 229 L 183.223 229 182.566 232.500 C 182.173 234.595, 181.325 236, 180.455 236 C 179.459 236, 179 237.104, 179 239.500 L 179 243 184 243 C 187.778 243, 189 242.633, 189 241.500 C 189 240.417, 190.111 240, 193 240 C 196.333 240, 197 239.667, 197 238 C 197 236.381, 197.667 236, 200.500 236 C 202.944 236, 204 235.548, 204 234.500 C 204 233.348, 205.278 233, 209.500 233 C 213.516 233, 215 233.373, 215 234.383 C 215 235.144, 214.100 236.002, 213 236.290 C 211.468 236.690, 211 237.654, 211 240.406 C 211 242.934, 210.555 244, 209.500 244 C 208.452 244, 208 245.056, 208 247.500 C 208 250.833, 208.167 251, 211.500 251 C 214.333 251, 215 250.619, 215 249 C 215 247.889, 215.667 247, 216.500 247 C 217.466 247, 218.005 246.022, 218.014 244.250 C 218.035 239.968, 219.101 237, 220.617 237 C 221.426 237, 222 235.962, 222 234.500 C 222 233.030, 222.574 232, 223.393 232 C 224.159 232, 225.045 231.325, 225.362 230.500 C 225.798 229.363, 227.641 229, 232.969 229 C 239.333 229, 240 228.810, 240 227 C 240 225.889, 240.667 225, 241.500 225 C 242.325 225, 243 224.325, 243 223.500 C 243 222.284, 241.389 222, 234.500 222 C 227.611 222, 226 221.716, 226 220.500 C 226 219.675, 226.618 219, 227.373 219 C 228.294 219, 228.908 217.312, 229.239 213.865 C 229.558 210.544, 230.310 208.406, 231.366 207.815 C 232.781 207.023, 233 204.550, 233 189.357 C 233 172.654, 232.904 171.788, 231 171.290 C 229.608 170.926, 229 169.926, 229 168 C 229 166.074, 228.392 165.074, 227 164.710 C 225.900 164.423, 225 163.470, 225 162.594 C 225 161.496, 224.083 161, 222.050 161 C 220.279 161, 218.708 160.300, 218.122 159.250 C 217.259 157.707, 215.069 157.463, 199.572 157.186 C 184.756 156.920, 182 157.098, 182 158.319 M 161 173.500 C 161 174.333, 160.111 175, 159 175 C 157.333 175, 157 175.667, 157 179 C 157 181.889, 156.583 183, 155.500 183 C 154.675 183, 154 183.675, 154 184.500 C 154 185.325, 154.675 186, 155.500 186 C 156.722 186, 157 187.667, 157 195 C 157 201.970, 157.310 204, 158.375 204 C 160.060 204, 161 208.342, 161 216.125 C 161 220.681, 161.337 222, 162.500 222 C 163.548 222, 164 223.056, 164 225.500 C 164 228.333, 164.381 229, 166 229 C 167.333 229, 168 229.667, 168 231 C 168 232.667, 168.667 233, 172 233 C 174.752 233, 176 232.566, 176 231.607 C 176 230.841, 176.675 229.955, 177.500 229.638 C 180.217 228.596, 179.115 226.244, 175.599 225.585 C 172.205 224.948, 172.196 224.931, 171.497 217.973 C 170.998 213, 170.396 211, 169.399 211 C 168.275 211, 168 208.541, 168 198.500 C 168 188.056, 167.753 186, 166.500 186 C 165.310 186, 165 184.556, 165 179 C 165 172.667, 164.810 172, 163 172 C 161.889 172, 161 172.667, 161 173.500" stroke="none" fill="black" fill-rule="evenodd"/>
</svg>