<svg xmlns="http://www.w3.org/2000/svg" width="300" height="300" viewBox="0 0 300 300" version="1.1">
	<path d="M 136 17.500 C 136 18.684, 134.577 19.003, 129.250 19.014 C 121.152 19.030, 118 19.759, 118 21.617 C 118 22.523, 116.829 23, 114.608 23 C 111.767 23, 111.108 23.433, 110.547 25.669 C 110.178 27.137, 110.182 31.187, 110.555 34.669 L 111.233 41 114.616 41 L 118 41 118 35.500 L 118 30 121.500 30 C 123.776 30, 125 29.527, 125 28.647 C 125 26.986, 135.136 25.994, 151.901 26.014 C 164.731 26.029, 168 26.557, 168 28.617 C 168 29.564, 169.261 30, 172 30 C 175.925 30, 176 29.932, 176 26.406 C 176 23.654, 175.532 22.690, 174 22.290 C 172.900 22.002, 172 21.144, 172 20.383 C 172 19.623, 171.100 19, 170 19 C 168.889 19, 168 18.333, 168 17.500 C 168 16.229, 165.556 16, 152 16 C 138.444 16, 136 16.229, 136 17.500 M 193 31.371 C 193 32.379, 190.615 32.929, 184 33.446 C 177.207 33.978, 175 34.500, 175 35.575 C 175 36.717, 172.927 37, 164.550 37 C 155.637 37, 153.955 37.257, 153.120 38.750 C 152.333 40.156, 150.454 40.569, 143.570 40.853 C 137.067 41.120, 135 41.542, 135 42.603 C 135 43.601, 133.644 44.004, 130.250 44.014 C 124.077 44.031, 121 44.897, 121 46.617 C 121 47.671, 119.219 48, 113.500 48 C 107.813 48, 106 48.331, 106 49.371 C 106 50.261, 104.246 50.975, 101 51.406 L 96 52.069 96 57.534 L 96 63 101.500 63 C 105.722 63, 107 63.348, 107 64.500 C 107 65.333, 106.111 66, 105 66 C 102.561 66, 102.361 68.543, 104.696 69.850 C 105.945 70.549, 106.503 72.538, 106.813 77.400 C 107.115 82.150, 107.621 84, 108.616 84 C 109.684 84, 110 85.907, 110 92.353 C 110 104.915, 111.035 113, 112.642 113 C 113.752 113, 114 117.926, 114 140 C 114 162.242, 113.758 167, 112.625 167 C 111.096 167, 110 171.228, 110 177.125 C 110 179.903, 109.575 181, 108.500 181 C 107.348 181, 107 182.278, 107 186.500 C 107 190.516, 106.627 192, 105.617 192 C 104.101 192, 103.035 194.968, 103.014 199.250 C 103.005 200.945, 102.458 202, 101.588 202 C 100.720 202, 99.915 203.541, 99.500 206 C 99.085 208.459, 98.280 210, 97.412 210 C 96.465 210, 96 211.152, 96 213.500 C 96 215.896, 95.541 217, 94.545 217 C 93.675 217, 92.827 218.405, 92.434 220.500 C 92.058 222.505, 91.184 224, 90.389 224 C 89.625 224, 89 224.900, 89 226 C 89 227.100, 88.377 228, 87.617 228 C 86.041 228, 85.034 231, 85.014 235.750 C 85.001 238.780, 85.229 239, 88.389 239 C 91.470 239, 91.837 238.682, 92.434 235.500 C 92.827 233.405, 93.675 232, 94.545 232 C 95.345 232, 96 231.100, 96 230 C 96 228.900, 96.625 228, 97.389 228 C 98.184 228, 99.058 226.505, 99.434 224.500 C 99.827 222.405, 100.675 221, 101.545 221 C 102.532 221, 103 219.911, 103 217.617 C 103 215.074, 103.497 214.103, 105 213.710 C 106.532 213.310, 107 212.346, 107 209.594 C 107 207.216, 107.464 206, 108.371 206 C 109.261 206, 109.975 204.246, 110.406 201 C 110.860 197.576, 111.531 196, 112.534 196 C 113.578 196, 114 194.847, 114 192 C 114 189.261, 114.436 188, 115.383 188 C 117.103 188, 117.969 184.923, 117.986 178.750 C 117.996 175.422, 118.407 174, 119.358 174 C 121.187 174, 122.408 143.086, 121.427 121.627 L 120.712 106 124.450 106 C 127.346 106, 128.305 105.550, 128.710 104 C 128.998 102.900, 129.856 102, 130.617 102 C 131.377 102, 132 101.377, 132 100.617 C 132 99.041, 135 98.034, 139.750 98.014 C 141.966 98.004, 143 97.523, 143 96.500 C 143 95.452, 144.056 95, 146.500 95 L 150 95 150 100.500 C 150 104.646, 150.358 106, 151.455 106 C 152.325 106, 153.173 107.405, 153.566 109.500 C 153.942 111.505, 154.816 113, 155.611 113 C 156.375 113, 157 113.675, 157 114.500 C 157 115.325, 156.283 116, 155.406 116 C 154.530 116, 153.577 116.900, 153.290 118 C 152.923 119.404, 151.926 120, 149.945 120 C 147.373 120, 147.064 120.393, 146.458 124.429 C 146.093 126.865, 146.092 129.340, 146.456 129.929 C 146.820 130.518, 149.571 131, 152.569 131 C 156.782 131, 158.408 130.546, 159.732 129 C 160.798 127.755, 162.682 127, 164.722 127 C 166.852 127, 168 126.514, 168 125.611 C 168 124.816, 169.495 123.942, 171.500 123.566 C 173.595 123.173, 175 122.325, 175 121.455 C 175 120.459, 176.104 120, 178.500 120 C 180.848 120, 182 119.535, 182 118.588 C 182 117.720, 183.541 116.915, 186 116.500 C 188.459 116.085, 190 115.280, 190 114.412 C 190 113.635, 190.675 113, 191.500 113 C 192.325 113, 193 113.675, 193 114.500 C 193 115.325, 192.325 116, 191.500 116 C 190.348 116, 190 117.278, 190 121.500 C 190 126.926, 190.040 127, 192.955 127 C 195.540 127, 195.992 126.562, 196.566 123.500 C 196.927 121.575, 197.791 120, 198.486 120 C 199.924 120, 201 115.624, 201 109.781 C 201 106.654, 200.576 105.702, 199 105.290 C 197.900 105.002, 197 104.144, 197 103.383 C 197 102.623, 196.100 102, 195 102 C 193.889 102, 193 102.667, 193 103.500 C 193 104.633, 191.778 105, 188 105 C 184.222 105, 183 104.633, 183 103.500 C 183 102.675, 183.675 102, 184.500 102 C 185.548 102, 186 100.944, 186 98.500 C 186 95.667, 186.381 95, 188 95 C 189.333 95, 190 94.333, 190 93 C 190 91.889, 190.667 91, 191.500 91 C 192.548 91, 193 89.944, 193 87.500 C 193 84.083, 193.095 84, 197 84 C 199.739 84, 201 83.564, 201 82.617 C 201 80.759, 204.152 80.030, 212.250 80.014 C 217.577 80.003, 219 79.684, 219 78.500 C 219 77.675, 219.675 77, 220.500 77 C 221.652 77, 222 75.722, 222 71.500 L 222 66 218.500 66 C 216.056 66, 215 66.452, 215 67.500 C 215 68.412, 214.069 69, 212.625 69 C 211.319 69, 208.844 69.281, 207.125 69.625 C 204.409 70.168, 204 69.972, 204 68.125 C 204 66.216, 203.441 66, 198.500 66 C 193.667 66, 193 66.242, 193 68 C 193 69.100, 192.345 70, 191.545 70 C 190.675 70, 189.827 71.405, 189.434 73.500 C 188.864 76.541, 188.398 77, 185.889 77 C 183.988 77, 183 77.513, 183 78.500 C 183 79.655, 181.712 80, 177.406 80 C 172.654 80, 171.734 80.301, 171.290 82 C 170.831 83.756, 169.926 84, 163.883 84 L 157 84 157 80.617 C 157 78.074, 157.497 77.103, 159 76.710 C 160.456 76.329, 161 75.346, 161 73.094 C 161 70.389, 161.346 69.998, 163.750 69.986 C 168.032 69.965, 171 68.899, 171 67.383 C 171 66.525, 169.905 66, 168.117 66 C 166.074 66, 165.081 65.417, 164.710 64 C 164.277 62.345, 163.353 62.002, 159.344 62.014 C 149.821 62.040, 150 61.818, 150 73.617 C 150 83.333, 149.872 84, 148 84 C 146.900 84, 146 84.612, 146 85.361 C 146 86.850, 139.255 87.976, 130.250 87.991 C 126.254 87.998, 125 88.358, 125 89.500 C 125 90.548, 123.944 91, 121.500 91 L 118 91 118 80.500 L 118 70 121.500 70 C 124.333 70, 125 69.619, 125 68 C 125 66.324, 124.333 66, 120.883 66 C 117.102 66, 116.816 65.817, 117.370 63.750 C 117.701 62.513, 117.979 60.938, 117.986 60.250 C 117.994 59.563, 118.904 59, 120.010 59 C 121.115 59, 122.790 58.100, 123.732 57 C 124.798 55.755, 126.682 55, 128.722 55 C 130.969 55, 132 54.528, 132 53.500 C 132 52.435, 133.088 51.997, 135.750 51.989 C 142.106 51.970, 147 50.831, 147 49.369 C 147 48.341, 148.742 48, 154 48 C 159.237 48, 161 47.657, 161 46.639 C 161 45.042, 167.881 44.022, 178.750 44.009 C 184.524 44.002, 186 43.695, 186 42.500 C 186 41.348, 187.278 41, 191.500 41 C 195.866 41, 197 41.329, 197 42.594 C 197 43.470, 196.100 44.423, 195 44.710 C 193.583 45.081, 193 46.074, 193 48.117 C 193 50.333, 193.462 51, 195 51 C 196.111 51, 197 50.333, 197 49.500 C 197 48.452, 198.056 48, 200.500 48 C 203.333 48, 204 47.619, 204 46 C 204 44.900, 204.623 44, 205.383 44 C 206.883 44, 207.965 41.041, 207.986 36.875 C 207.997 34.731, 207.428 34.136, 204.875 33.625 C 203.156 33.281, 200.681 33, 199.375 33 C 197.931 33, 197 32.412, 197 31.500 C 197 30.667, 196.111 30, 195 30 C 193.900 30, 193 30.617, 193 31.371 M 75 85.500 C 75 86.535, 73.961 87, 71.647 87 C 63.723 87, 56 88.304, 56 89.642 C 56 90.605, 54.545 91, 51 91 C 47.222 91, 46 90.633, 46 89.500 C 46 88.667, 45.111 88, 44 88 C 42.889 88, 42 88.667, 42 89.500 C 42 90.325, 41.375 91, 40.611 91 C 39.816 91, 38.942 92.495, 38.566 94.500 C 38.173 96.595, 37.325 98, 36.455 98 C 35.459 98, 35 99.104, 35 101.500 C 35 103.944, 35.452 105, 36.500 105 C 37.801 105, 38 109.111, 38 136 C 38 162.889, 37.801 167, 36.500 167 C 35.675 167, 35 167.675, 35 168.500 C 35 169.325, 35.717 170, 36.594 170 C 37.470 170, 38.423 170.900, 38.710 172 C 39.074 173.392, 40.074 174, 42 174 C 43.926 174, 44.926 173.392, 45.290 172 C 45.577 170.900, 46.530 170, 47.406 170 C 48.713 170, 49 168.738, 49 163 C 49 157.444, 48.690 156, 47.500 156 C 46.348 156, 46 154.722, 46 150.500 C 46 145.163, 46.082 145, 48.750 145.014 C 53.032 145.035, 56 146.101, 56 147.617 C 56 148.570, 57.278 149, 60.111 149 L 64.223 149 63.583 145.593 C 62.956 142.249, 63.019 142.173, 66.972 141.505 C 69.453 141.086, 71 140.282, 71 139.412 C 71 138.330, 72.638 138, 78 138 L 85 138 85 154 L 85 170 79.906 170 C 75.654 170, 74.726 170.330, 74.290 172 C 73.798 173.879, 72.926 174, 59.883 174 C 47.847 174, 46 174.212, 46 175.594 C 46 176.470, 45.100 177.423, 44 177.710 C 42.608 178.074, 42 179.074, 42 181 C 42 184.542, 43.579 184.969, 56.750 184.986 C 66.338 184.999, 67 184.871, 67 183 C 67 181.242, 67.667 181, 72.500 181 C 76.722 181, 78 180.652, 78 179.500 C 78 178.452, 79.056 178, 81.500 178 L 85 178 85 183 L 85 188 88.375 188 C 91.355 188, 91.823 187.634, 92.375 184.875 C 92.719 183.156, 93 180.006, 93 177.875 C 93 175.097, 93.425 174, 94.500 174 C 95.652 174, 96 172.722, 96 168.500 C 96 164.278, 95.652 163, 94.500 163 C 93.675 163, 93 162.325, 93 161.500 C 93 160.675, 93.675 160, 94.500 160 C 95.806 160, 96 155.278, 96 123.500 C 96 91.722, 95.806 87, 94.500 87 C 93.675 87, 93 86.325, 93 85.500 C 93 84.278, 91.333 84, 84 84 C 76.667 84, 75 84.278, 75 85.500 M 179 89.500 C 179 90.652, 177.722 91, 173.500 91 C 168.667 91, 168 91.242, 168 93 C 168 94.606, 167.333 95, 164.617 95 C 160.587 95, 159.830 96.765, 160.701 104.122 L 161.279 109 166.139 109 C 169.920 109, 171 108.646, 171 107.406 C 171 106.530, 171.900 105.577, 173 105.290 C 174.392 104.926, 175 103.926, 175 102 C 175 100.074, 175.608 99.074, 177 98.710 C 178.197 98.397, 179 97.346, 179 96.094 C 179 94.899, 179.644 94, 180.500 94 C 181.500 94, 182 93, 182 91 C 182 89, 181.500 88, 180.500 88 C 179.675 88, 179 88.675, 179 89.500 M 64 96.412 C 64 97.280, 62.459 98.085, 60 98.500 C 57.541 98.915, 56 99.720, 56 100.588 C 56 101.490, 54.917 102, 53 102 C 50.238 102, 50 102.278, 50 105.500 C 50 107.425, 50.450 109, 51 109 C 52.572 109, 52.167 111.722, 50.500 112.362 C 49.675 112.678, 49 113.851, 49 114.969 C 49 116.108, 48.341 117, 47.500 117 C 46.675 117, 46 117.675, 46 118.500 C 46 119.325, 46.675 120, 47.500 120 C 48.325 120, 49 120.675, 49 121.500 C 49 122.325, 48.325 123, 47.500 123 C 46.348 123, 46 124.278, 46 128.500 L 46 134 51.500 134 C 55.722 134, 57 133.652, 57 132.500 C 57 131.379, 58.201 130.997, 61.750 130.986 C 67.923 130.969, 71 130.103, 71 128.383 C 71 127.326, 72.800 127, 78.625 127 L 86.250 127 85.625 123.875 C 85.281 122.156, 85 114.956, 85 107.875 L 85 95 74.500 95 C 66.124 95, 64 95.286, 64 96.412 M 139 139.500 C 139 140.325, 138.353 141, 137.561 141 C 135.823 141, 134.990 146.684, 135.363 156 C 135.506 159.575, 135.708 167.563, 135.812 173.750 C 135.967 183, 136.267 185, 137.500 185 C 138.711 185, 139.003 186.589, 139.014 193.250 C 139.029 202.804, 139.682 206, 141.617 206 C 142.377 206, 143 206.900, 143 208 C 143 209.619, 143.667 210, 146.500 210 C 148.878 210, 150 209.539, 150 208.561 C 150 206.970, 156.604 205.601, 161.559 206.165 C 164.040 206.448, 164.548 206.993, 164.806 209.653 C 165.095 212.629, 164.886 212.844, 161.056 213.491 C 158.553 213.913, 157 214.716, 157 215.588 C 157 216.535, 155.848 217, 153.500 217 C 150.667 217, 150 217.381, 150 219 C 150 220.333, 149.333 221, 148 221 C 146.889 221, 146 221.667, 146 222.500 C 146 223.325, 145.283 224, 144.406 224 C 143.530 224, 142.577 224.900, 142.290 226 C 141.919 227.417, 140.926 228, 138.883 228 C 136.667 228, 136 228.462, 136 230 C 136 231.333, 135.333 232, 134 232 C 132.381 232, 132 232.667, 132 235.500 C 132 238.333, 132.381 239, 134 239 C 135.111 239, 136 239.667, 136 240.500 C 136 241.690, 137.444 242, 143 242 C 148.556 242, 150 241.690, 150 240.500 C 150 239.416, 151.112 239, 154.010 239 C 156.782 239, 158.548 238.383, 159.732 237 C 160.674 235.900, 162.244 235, 163.222 235 C 164.200 235, 165 234.325, 165 233.500 C 165 232.675, 165.675 232, 166.500 232 C 167.333 232, 168 231.111, 168 230 C 168 228.667, 168.667 228, 170 228 C 171.333 228, 172 227.333, 172 226 C 172 224.900, 172.639 224, 173.421 224 C 174.202 224, 175.128 222.696, 175.478 221.102 C 175.878 219.278, 176.927 217.985, 178.307 217.615 C 181.659 216.717, 182 216.844, 182 219 C 182 220.111, 181.333 221, 180.500 221 C 179.452 221, 179 222.056, 179 224.500 C 179 227.333, 178.619 228, 177 228 C 175.381 228, 175 228.667, 175 231.500 C 175 234.333, 174.619 235, 173 235 C 171.667 235, 171 235.667, 171 237 C 171 238.111, 170.333 239, 169.500 239 C 168.452 239, 168 240.056, 168 242.500 C 168 245.333, 167.619 246, 166 246 C 164.667 246, 164 246.667, 164 248 C 164 249.111, 163.333 250, 162.500 250 C 161.490 250, 161 251.010, 161 253.094 C 161 255.346, 160.456 256.329, 159 256.710 C 157.893 257, 157 258.074, 157 259.117 C 157 260.152, 156.361 261, 155.579 261 C 154.798 261, 153.862 262.350, 153.500 264 C 153.138 265.650, 152.202 267, 151.421 267 C 150.639 267, 150 267.900, 150 269 C 150 270.333, 149.333 271, 148 271 C 146.667 271, 146 271.667, 146 273 C 146 274.111, 145.333 275, 144.500 275 C 143.345 275, 143 276.291, 143 280.617 C 143 285.953, 143.112 286.203, 145.250 285.630 C 146.488 285.299, 148.063 285.021, 148.750 285.014 C 149.469 285.006, 150 283.726, 150 282 C 150 279.922, 150.490 279, 151.594 279 C 152.470 279, 153.423 278.100, 153.710 277 C 153.998 275.900, 154.856 275, 155.617 275 C 156.531 275, 157 273.813, 157 271.500 C 157 268.667, 157.381 268, 159 268 C 160.333 268, 161 267.333, 161 266 C 161 264.889, 161.667 264, 162.500 264 C 163.325 264, 164 263.283, 164 262.406 C 164 261.530, 164.900 260.577, 166 260.290 C 167.503 259.897, 168 258.926, 168 256.383 C 168 253.667, 168.394 253, 170 253 C 171.333 253, 172 252.333, 172 251 C 172 249.889, 172.667 249, 173.500 249 C 174.487 249, 175 248.013, 175 246.117 C 175 244.074, 175.583 243.081, 177 242.710 C 178.100 242.423, 179 241.470, 179 240.594 C 179 239.717, 179.675 239, 180.500 239 C 181.555 239, 182 237.934, 182 235.406 C 182 232.654, 182.468 231.690, 184 231.290 C 185.100 231.002, 186 230.144, 186 229.383 C 186 228.623, 186.670 228, 187.488 228 C 188.451 228, 189.202 226.588, 189.616 224 C 190.002 221.587, 190.800 220, 191.628 220 C 192.481 220, 193 218.883, 193 217.050 C 193 215.315, 193.699 213.708, 194.696 213.150 C 195.952 212.448, 196.504 210.446, 196.822 205.448 L 197.252 198.694 191.626 199.275 L 186 199.855 186 193.928 C 186 189.547, 186.361 188, 187.383 188 C 188.899 188, 189.965 185.032, 189.986 180.750 C 189.995 178.978, 190.534 178, 191.500 178 C 192.333 178, 193 177.111, 193 176 C 193 174.381, 193.667 174, 196.500 174 C 198.848 174, 200 173.535, 200 172.588 C 200 171.720, 201.541 170.915, 204 170.500 C 206.459 170.085, 208 169.280, 208 168.412 C 208 167.465, 209.152 167, 211.500 167 C 213.944 167, 215 166.548, 215 165.500 C 215 164.675, 215.675 164, 216.500 164 C 217.769 164, 218 166.389, 218 179.500 C 218 191.903, 217.728 195, 216.640 195 C 215.720 195, 215.088 196.856, 214.688 200.734 C 214.363 203.888, 213.625 206.625, 213.048 206.817 C 212.472 207.009, 212 207.804, 212 208.583 C 212 209.363, 211.100 210, 210 210 C 208.900 210, 207.994 210.563, 207.986 211.250 C 207.979 211.938, 207.701 213.512, 207.370 214.750 C 206.798 216.884, 207.051 217, 212.272 217 C 217.772 217, 217.778 216.997, 218.434 213.500 C 218.827 211.405, 219.675 210, 220.545 210 C 221.642 210, 222 208.646, 222 204.500 C 222 199.667, 222.242 199, 224 199 C 225.852 199, 226 198.333, 226 190 C 226 182.667, 226.278 181, 227.500 181 C 228.753 181, 229 178.944, 229 168.500 C 229 158.056, 228.753 156, 227.500 156 C 226.452 156, 226 154.944, 226 152.500 C 226 149.149, 225.847 149, 222.406 149 C 219.654 149, 218.690 148.532, 218.290 147 C 217.799 145.122, 216.926 145, 204 145 C 191.074 145, 190.201 145.122, 189.710 147 C 189.249 148.763, 188.346 149, 182.094 149 C 176.455 149, 175 149.308, 175 150.500 C 175 151.575, 173.903 152, 171.125 152 C 165.228 152, 161 153.096, 161 154.625 C 161 155.669, 159.197 156, 153.500 156 L 146 156 146 150.906 C 146 146.654, 146.330 145.726, 148 145.290 C 150.314 144.685, 150.743 141, 148.500 141 C 147.675 141, 147 140.325, 147 139.500 C 147 138.417, 145.889 138, 143 138 C 140.111 138, 139 138.417, 139 139.500 M 173.750 159.720 C 169.846 159.978, 168 160.523, 168 161.420 C 168 162.249, 166.270 162.935, 163.349 163.264 C 160.551 163.580, 158.340 164.428, 157.799 165.394 C 157.245 166.385, 155.579 167, 153.450 167 C 150.174 167, 150 167.176, 150 170.500 C 150 172.944, 149.548 174, 148.500 174 C 147.310 174, 147 175.444, 147 181 C 147 186.556, 147.310 188, 148.500 188 C 149.325 188, 150 187.375, 150 186.611 C 150 185.816, 151.495 184.942, 153.500 184.566 C 155.595 184.173, 157 183.325, 157 182.455 C 157 181.459, 158.104 181, 160.500 181 C 162.848 181, 164 180.535, 164 179.588 C 164 178.720, 165.541 177.915, 168 177.500 C 170.459 177.085, 172 176.280, 172 175.412 C 172 174.465, 173.152 174, 175.500 174 C 177.944 174, 179 173.548, 179 172.500 C 179 171.675, 179.675 171, 180.500 171 C 181.583 171, 182 169.889, 182 167 C 182 163.667, 182.333 163, 184 163 C 185.111 163, 186 162.333, 186 161.500 C 186 160.675, 185.438 159.994, 184.750 159.986 C 184.063 159.979, 182.600 159.831, 181.500 159.657 C 180.400 159.483, 176.912 159.512, 173.750 159.720 M 196.667 159.667 C 194.781 161.552, 196.229 163, 200 163 C 203.333 163, 204 162.667, 204 161 C 204 159.400, 203.333 159, 200.667 159 C 198.833 159, 197.033 159.300, 196.667 159.667 M 172 186.500 C 172 187.333, 171.111 188, 170 188 C 168.667 188, 168 188.667, 168 190 C 168 191.333, 167.333 192, 166 192 C 164.900 192, 164 192.623, 164 193.383 C 164 194.144, 163.069 195.010, 161.931 195.308 C 160.271 195.742, 159.925 196.506, 160.181 199.174 C 160.474 202.228, 160.807 202.525, 164.250 202.810 C 166.703 203.013, 168 203.619, 168 204.560 C 168 205.528, 169.104 206, 171.370 206 C 174.638 206, 174.756 205.860, 175.264 201.349 C 175.580 198.551, 176.428 196.340, 177.394 195.799 C 178.531 195.163, 179 193.456, 179 189.950 L 179 185 175.500 185 C 173.056 185, 172 185.452, 172 186.500 M 161 224.500 C 161 226.944, 161.452 228, 162.500 228 C 163.325 228, 164.006 227.438, 164.014 226.750 C 164.021 226.063, 164.299 224.488, 164.630 223.250 C 165.117 221.435, 164.824 221, 163.117 221 C 161.364 221, 161 221.602, 161 224.500 M 186 240.500 L 186 246 191.500 246 C 195.646 246, 197 246.358, 197 247.455 C 197 248.325, 198.405 249.173, 200.500 249.566 C 202.505 249.942, 204 250.816, 204 251.611 C 204 252.534, 205.185 253, 207.531 253 C 209.719 253, 211.278 253.560, 211.628 254.473 C 211.939 255.283, 213.725 256.233, 215.597 256.584 C 217.468 256.935, 219 257.795, 219 258.495 C 219 259.901, 222.063 260.965, 226.171 260.986 C 228.314 260.997, 228.970 261.586, 229.493 263.968 C 230.020 266.366, 230.804 267.060, 233.572 267.580 C 235.522 267.945, 237 268.822, 237 269.611 C 237 270.375, 237.675 271, 238.500 271 C 239.333 271, 240 271.889, 240 273 C 240 274.619, 240.667 275, 243.500 275 C 246.833 275, 247 275.167, 247 278.500 C 247 281.333, 247.381 282, 249 282 C 250.370 282, 251 282.667, 251 284.117 C 251 285.824, 251.435 286.117, 253.250 285.630 C 254.488 285.299, 256.063 285.021, 256.750 285.014 C 257.509 285.005, 258 283.626, 258 281.500 C 258 279.056, 258.452 278, 259.500 278 C 260.325 278, 261 277.325, 261 276.500 C 261 275.675, 260.325 275, 259.500 275 C 258.667 275, 258 274.111, 258 273 C 258 271.667, 257.333 271, 256 271 C 254.900 271, 254 270.361, 254 269.579 C 254 268.798, 252.650 267.862, 251 267.500 C 249.350 267.138, 248 266.202, 248 265.421 C 248 264.572, 246.993 264, 245.500 264 C 243.979 264, 243 263.430, 243 262.545 C 243 261.675, 241.595 260.827, 239.500 260.434 C 237.495 260.058, 236 259.184, 236 258.389 C 236 257.625, 235.377 257, 234.617 257 C 233.856 257, 232.998 256.100, 232.710 255 C 232.329 253.544, 231.346 253, 229.094 253 C 227.121 253, 226 252.497, 226 251.611 C 226 250.816, 224.505 249.942, 222.500 249.566 C 220.405 249.173, 219 248.325, 219 247.455 C 219 246.468, 217.911 246, 215.617 246 C 213.074 246, 212.103 245.503, 211.710 244 C 211.397 242.803, 210.346 242, 209.094 242 C 207.899 242, 207 241.356, 207 240.500 C 207 239.534, 206.022 238.995, 204.250 238.986 C 199.968 238.965, 197 237.899, 197 236.383 C 197 235.373, 195.516 235, 191.500 235 L 186 235 186 240.500" stroke="none" fill="black" fill-rule="evenodd"/>
</svg>