<svg xmlns="http://www.w3.org/2000/svg" width="300" height="300" viewBox="0 0 300 300" version="1.1">
	<path d="M 124.566 26.500 C 124.173 28.595, 123.325 30, 122.455 30 C 121.358 30, 121 31.354, 121 35.500 L 121 41 112.617 41 C 103.447 41, 103.049 41.299, 103.014 48.205 C 103.002 50.522, 103.516 51.006, 106.598 51.584 C 108.577 51.956, 112.627 52.009, 115.598 51.702 L 121 51.145 121 59.974 L 121 68.803 109.489 69.522 C 93.163 70.542, 67 69.232, 67 67.395 C 67 66.628, 66.325 66, 65.500 66 C 64.675 66, 64 66.625, 64 67.389 C 64 68.184, 62.505 69.058, 60.500 69.434 C 57.302 70.034, 57 70.389, 57 73.545 C 57 75.949, 57.456 77, 58.500 77 C 59.325 77, 60 77.613, 60 78.362 C 60 80.411, 70.903 81.198, 88.150 80.395 C 99.618 79.861, 103 79.396, 103 78.352 C 103 77.316, 105.106 77, 112 77 L 121 77 121 89.500 C 121 99.944, 120.753 102, 119.500 102 C 118.459 102, 118 103.046, 118 105.416 L 118 108.833 105.962 109.166 C 97.108 109.412, 93.699 109.864, 93.075 110.875 C 92.540 111.744, 89.605 112.438, 85.113 112.760 C 80.364 113.100, 78 113.684, 78 114.518 C 78 115.205, 77.069 116.010, 75.931 116.308 C 74.271 116.742, 73.925 117.506, 74.181 120.174 L 74.500 123.500 81.750 123.794 C 88.481 124.067, 89 123.941, 89 122.044 C 89 120.079, 89.563 120, 103.500 120 L 118 120 118 127 C 118 133.702, 117.899 134, 115.625 134 C 111.120 134, 107 135.254, 107 136.625 C 107 137.690, 104.970 138, 98 138 C 90.432 138, 89 138.254, 89 139.594 C 89 140.470, 88.067 141.431, 86.926 141.730 C 85.257 142.166, 84.979 142.782, 85.505 144.876 C 85.864 146.308, 86.685 147.815, 87.329 148.225 C 87.973 148.634, 93.285 148.976, 99.133 148.985 C 109.050 148.999, 109.803 148.861, 110.308 146.931 C 110.742 145.271, 111.506 144.925, 114.174 145.181 C 117.157 145.467, 117.534 145.854, 117.827 148.933 C 118.007 150.821, 117.874 153.858, 117.532 155.683 C 116.922 158.933, 116.804 159, 111.705 159.009 C 102.742 159.024, 96 160.153, 96 161.639 C 96 162.560, 94.707 163, 92 163 C 89.248 163, 88 163.434, 88 164.393 C 88 165.159, 87.325 166.045, 86.500 166.362 C 85.449 166.765, 85 168.405, 85 171.844 C 85 176.530, 85.139 176.778, 88.098 177.370 C 92.068 178.164, 96 177.179, 96 175.392 C 96 174.626, 96.675 174, 97.500 174 C 98.325 174, 99 173.365, 99 172.588 C 99 171.720, 100.541 170.915, 103 170.500 C 105.459 170.085, 107 169.280, 107 168.412 C 107 167.367, 108.430 167, 112.500 167 L 118 167 118 185 C 118 202.333, 117.926 203, 116 203 C 114.889 203, 114 203.667, 114 204.500 C 114 205.690, 112.556 206, 107 206 C 101.444 206, 100 205.690, 100 204.500 C 100 203.348, 98.722 203, 94.500 203 L 89 203 89 208.500 C 89 212.646, 89.358 214, 90.455 214 C 91.325 214, 92.173 215.405, 92.566 217.500 C 92.942 219.505, 93.816 221, 94.611 221 C 95.532 221, 96 222.180, 96 224.500 C 96 226.848, 96.465 228, 97.412 228 C 98.280 228, 99.085 229.541, 99.500 232 C 99.915 234.459, 100.720 236, 101.588 236 C 102.458 236, 103.005 237.055, 103.014 238.750 C 103.035 243.032, 104.101 246, 105.617 246 C 106.531 246, 107 247.187, 107 249.500 C 107 252.333, 107.381 253, 109 253 C 110.333 253, 111 253.667, 111 255 C 111 256.111, 111.667 257, 112.500 257 C 113.325 257, 114 257.623, 114 258.383 C 114 259.144, 114.900 260.002, 116 260.290 C 117.100 260.577, 118 261.530, 118 262.406 C 118 263.671, 116.866 264, 112.500 264 C 108.484 264, 107 264.373, 107 265.383 C 107 266.144, 106.100 267.002, 105 267.290 C 103.468 267.690, 103 268.654, 103 271.406 L 103 275 126.500 275 C 146.277 275, 150 275.228, 150 276.439 C 150 278.007, 158.040 279.711, 159.929 278.544 C 160.518 278.180, 161 276.334, 161 274.441 C 161 271.175, 160.822 271, 157.500 271 C 155.197 271, 154 270.530, 154 269.625 C 154 268.196, 149.841 267, 144.875 267 C 142.986 267, 142 266.486, 142 265.500 C 142 264.262, 140.167 264, 131.500 264 C 122.833 264, 121 263.738, 121 262.500 C 121 261.667, 121.889 261, 123 261 C 124.333 261, 125 260.333, 125 259 C 125 257.889, 125.667 257, 126.500 257 C 127.333 257, 128 256.111, 128 255 C 128 253.889, 127.333 253, 126.500 253 C 125.675 253, 125 252.345, 125 251.545 C 125 250.675, 123.595 249.827, 121.500 249.434 C 119.495 249.058, 118 248.184, 118 247.389 C 118 246.625, 117.100 246, 116 246 C 114.333 246, 114 245.333, 114 242 C 114 239.166, 113.576 238, 112.545 238 C 111.675 238, 110.827 236.595, 110.434 234.500 C 110.058 232.495, 109.184 231, 108.389 231 C 107.389 231, 107 229.600, 107 226 C 107 222.222, 107.367 221, 108.500 221 C 109.333 221, 110 221.889, 110 223 C 110 224.333, 110.667 225, 112 225 C 113.606 225, 114 224.333, 114 221.617 C 114 218.953, 114.479 218.105, 116.250 217.630 C 120.399 216.518, 121 216.885, 121 220.531 C 121 222.748, 121.559 224.277, 122.500 224.638 C 124.167 225.278, 124.572 228, 123 228 C 122.450 228, 122 229.575, 122 231.500 C 122 234.691, 122.255 235, 124.883 235 C 126.926 235, 127.919 235.583, 128.290 237 C 128.976 239.622, 132 239.622, 132 237 C 132 235.667, 132.667 235, 134 235 C 135.111 235, 136 234.333, 136 233.500 C 136 232.452, 137.056 232, 139.500 232 C 141.944 232, 143 232.452, 143 233.500 C 143 234.466, 143.978 235.005, 145.750 235.014 C 150.878 235.039, 152.860 236.087, 153.527 239.123 C 154.441 243.282, 153.134 250, 151.412 250 C 150.635 250, 150 250.952, 150 252.117 C 150 253.824, 150.435 254.117, 152.250 253.630 C 153.488 253.299, 155.063 253.021, 155.750 253.014 C 156.438 253.006, 157 252.283, 157 251.406 C 157 250.530, 157.900 249.577, 159 249.290 C 160.802 248.819, 161 247.926, 161 240.290 C 161 232.654, 160.802 231.761, 159 231.290 C 157.900 231.002, 157 230.144, 157 229.383 C 157 228.623, 156.377 228, 155.617 228 C 154.856 228, 153.998 227.100, 153.710 226 C 153.310 224.468, 152.346 224, 149.594 224 C 147.066 224, 146 223.555, 146 222.500 C 146 221.285, 144.395 221, 137.559 221 C 132.916 221, 128.853 220.571, 128.528 220.046 C 128.204 219.521, 128.226 217.946, 128.578 216.546 C 129.059 214.627, 129.868 213.997, 131.858 213.986 C 136.039 213.965, 139 212.886, 139 211.383 C 139 210.253, 142.547 210, 158.383 210 C 176.926 210, 177.789 210.087, 178.290 212 C 178.724 213.662, 179.654 214, 183.790 214 C 188.305 214, 188.811 214.232, 189.245 216.500 C 189.940 220.136, 188.981 224, 187.383 224 C 186.478 224, 186 225.169, 186 227.383 C 186 229.926, 185.503 230.897, 184 231.290 C 182.900 231.577, 182 232.530, 182 233.406 C 182 234.283, 181.375 235, 180.611 235 C 179.816 235, 178.942 236.495, 178.566 238.500 C 178.173 240.595, 177.325 242, 176.455 242 C 175.655 242, 175 242.900, 175 244 C 175 245.333, 174.333 246, 173 246 C 171.667 246, 171 246.667, 171 248 C 171 249.111, 170.333 250, 169.500 250 C 168.675 250, 168 250.675, 168 251.500 C 168 252.333, 167.111 253, 166 253 C 164.634 253, 164 253.667, 164 255.102 C 164 257.104, 163.586 257.186, 155.250 256.852 C 145.801 256.472, 146.345 256.139, 146.833 262 C 146.987 263.840, 147.722 264, 156 264 C 163.209 264, 165 263.710, 165 262.545 C 165 261.675, 166.405 260.827, 168.500 260.434 C 170.505 260.058, 172 259.184, 172 258.389 C 172 257.625, 172.675 257, 173.500 257 C 174.333 257, 175 256.111, 175 255 C 175 253.667, 175.667 253, 177 253 C 178.111 253, 179 252.333, 179 251.500 C 179 250.675, 179.675 250, 180.500 250 C 181.333 250, 182 249.111, 182 248 C 182 246.667, 182.667 246, 184 246 C 185.333 246, 186 245.333, 186 244 C 186 242.900, 186.655 242, 187.455 242 C 188.325 242, 189.173 240.595, 189.566 238.500 C 189.942 236.495, 190.816 235, 191.611 235 C 192.375 235, 193 234.311, 193 233.469 C 193 232.626, 193.663 231.683, 194.473 231.372 C 195.283 231.061, 196.233 229.275, 196.584 227.403 C 196.935 225.532, 197.789 224, 198.481 224 C 199.229 224, 199.943 222.195, 200.241 219.552 C 200.871 213.969, 200.147 210, 198.500 210 C 197.803 210, 196.998 209.100, 196.710 208 C 196.310 206.468, 195.346 206, 192.594 206 C 190.205 206, 189 205.537, 189 204.620 C 189 203.649, 187.224 203.112, 182.996 202.806 C 178.782 202.501, 176.608 201.847, 175.704 200.610 C 174.531 199.006, 172.546 198.877, 153.540 199.174 C 137.965 199.417, 132.559 199.817, 132.249 200.750 C 132.020 201.437, 130.971 202, 129.917 202 C 128.393 202, 128 201.283, 128 198.500 C 128 196.056, 127.548 195, 126.500 195 C 125.675 195, 125 194.325, 125 193.500 C 125 192.675, 125.675 192, 126.500 192 C 127.652 192, 128 190.722, 128 186.500 C 128 182.278, 127.652 181, 126.500 181 C 125.675 181, 125 180.325, 125 179.500 C 125 178.675, 125.622 178, 126.383 178 C 127.374 178, 127.964 175.878, 128.468 170.500 L 129.171 163 145.085 163 C 158.565 163, 161 162.770, 161 161.500 C 161 160.452, 162.056 160, 164.500 160 C 166.944 160, 168 160.452, 168 161.500 C 168 162.548, 169.056 163, 171.500 163 C 173.976 163, 175 162.552, 175 161.469 C 175 160.626, 175.675 159.678, 176.500 159.362 C 177.325 159.045, 178 158.159, 178 157.393 C 178 156.627, 177.325 156, 176.500 156 C 175.667 156, 175 155.111, 175 154 C 175 152.096, 174.333 152, 161.147 152 C 143.371 152, 135 152.846, 135 154.642 C 135 155.605, 133.545 156, 130 156 L 125 156 125 150.500 C 125 146.278, 125.348 145, 126.500 145 C 127.325 145, 128 144.325, 128 143.500 C 128 142.477, 129.034 141.996, 131.250 141.986 C 136 141.966, 139 140.959, 139 139.383 C 139 138.308, 141.004 138, 148 138 C 155.333 138, 157 137.722, 157 136.500 C 157 135.258, 158.889 135, 168 135 C 177.111 135, 179 135.258, 179 136.500 C 179 137.325, 179.675 138, 180.500 138 C 181.363 138, 182 138.903, 182 140.125 C 182 141.979, 182.405 142.169, 185.177 141.615 C 189.231 140.804, 189.142 140.922, 189.747 135.549 C 190.213 131.414, 190.066 131, 188.130 131 C 186.667 131, 186 130.374, 186 129 C 186 127.074, 185.333 127, 168 127 C 153.341 127, 150 127.257, 150 128.383 C 150 130.399, 146.757 130.971, 135.250 130.986 L 125 131 125 127.500 C 125 125.056, 125.452 124, 126.500 124 C 127.555 124, 128 122.934, 128 120.406 C 128 117.654, 128.468 116.690, 130 116.290 C 131.100 116.002, 132 115.144, 132 114.383 C 132 113.308, 134.004 113, 141 113 C 147.996 113, 150 113.308, 150 114.383 C 150 115.144, 149.100 116.002, 148 116.290 C 146.554 116.668, 146 117.654, 146 119.847 C 146 123.441, 147.029 124.282, 150.395 123.437 C 152.068 123.017, 153.084 121.895, 153.498 120.008 C 153.850 118.406, 154.947 116.986, 156.057 116.695 C 157.126 116.416, 158 115.470, 158 114.594 C 158 113.717, 158.675 113, 159.500 113 C 160.325 113, 161 112.325, 161 111.500 C 161 110.675, 161.621 110, 162.380 110 C 163.432 110, 163.931 107.264, 164.479 98.500 C 165.032 89.646, 165.520 87, 166.599 87 C 167.614 87, 168 85.621, 168 82 L 168 77 171.500 77 C 173.813 77, 175 76.531, 175 75.617 C 175 74.856, 176.012 73.962, 177.250 73.630 C 180.182 72.844, 223.818 72.844, 226.750 73.630 C 230.050 74.515, 229.496 75.816, 225.500 76.566 C 223.495 76.942, 222 77.816, 222 78.611 C 222 79.375, 221.100 80, 220 80 C 218.667 80, 218 80.667, 218 82 C 218 83.619, 217.333 84, 214.500 84 C 212.104 84, 211 84.459, 211 85.455 C 211 86.325, 209.595 87.173, 207.500 87.566 C 205.495 87.942, 204 88.816, 204 89.611 C 204 90.523, 202.837 91, 200.617 91 C 198.074 91, 197.103 91.497, 196.710 93 C 196.423 94.100, 195.470 95, 194.594 95 C 193.717 95, 193 95.675, 193 96.500 C 193 97.548, 194.056 98, 196.500 98 C 198.944 98, 200 97.548, 200 96.500 C 200 95.348, 201.278 95, 205.500 95 C 209.703 95, 211 94.649, 211 93.512 C 211 92.549, 212.412 91.798, 215 91.384 C 217.413 90.998, 219 90.200, 219 89.372 C 219 88.505, 220.138 88, 222.094 88 C 224.346 88, 225.329 87.456, 225.710 86 C 226.103 84.497, 227.074 84, 229.617 84 C 231.911 84, 233 83.532, 233 82.545 C 233 81.675, 234.405 80.827, 236.500 80.434 C 239.500 79.871, 240 79.382, 240 77.005 C 240 75.074, 240.607 74.075, 242 73.710 C 243.197 73.397, 244 72.346, 244 71.094 C 244 69.899, 244.644 69, 245.500 69 C 246.325 69, 247 68.325, 247 67.500 C 247 66.194, 242.333 66, 211 66 L 175 66 175 62.500 C 175 59.964, 175.439 59, 176.594 59 C 177.470 59, 178.423 58.100, 178.710 57 C 178.998 55.900, 179.856 55, 180.617 55 C 181.377 55, 182 54.375, 182 53.611 C 182 52.825, 183.469 51.947, 185.390 51.587 C 188.922 50.924, 189.959 49.183, 189.986 43.872 C 190 41.259, 189.950 41.242, 180.925 40.811 C 174.483 40.503, 171.591 39.960, 170.955 38.938 C 169.829 37.130, 151.010 37.365, 149.875 39.202 C 149.470 39.858, 145.488 40.543, 140.583 40.800 L 132 41.251 132 32.125 L 132 23 128.611 23 C 125.530 23, 125.163 23.318, 124.566 26.500 M 132 55.500 C 132 61.500, 131.700 63, 130.500 63 C 129.675 63, 129 63.675, 129 64.500 C 129 65.325, 129.675 66, 130.500 66 C 131.325 66, 132 66.675, 132 67.500 C 132 68.548, 133.056 69, 135.500 69 C 137.944 69, 139 68.548, 139 67.500 C 139 66.258, 140.889 66, 150 66 C 160.333 66, 161 65.879, 161 64 C 161 62.889, 161.667 62, 162.500 62 C 163.510 62, 164 60.990, 164 58.906 C 164 56.654, 164.544 55.671, 166 55.290 C 167.107 55, 168 53.926, 168 52.883 C 168 51.848, 168.675 51, 169.500 51 C 170.325 51, 171 50.325, 171 49.500 C 171 48.218, 168.167 48, 151.500 48 L 132 48 132 55.500 M 141.250 76.745 C 133.950 77.005, 132 77.383, 132 78.538 C 132 79.342, 131.381 80, 130.625 80 C 129.869 80, 128.969 81.406, 128.625 83.125 C 127.747 87.516, 127.844 104.789, 128.750 105.330 C 129.162 105.576, 131.863 105.545, 134.750 105.262 C 138.283 104.914, 140 104.297, 140 103.373 C 140 102.618, 140.675 102, 141.500 102 C 142.325 102, 143 102.675, 143 103.500 C 143 104.325, 143.675 105, 144.500 105 C 145.325 105, 146 104.325, 146 103.500 C 146 102.348, 147.278 102, 151.500 102 L 157 102 157 91.406 C 157 81.654, 157.159 80.771, 159 80.290 C 163.985 78.986, 158.717 75.613, 152.625 76.208 C 151.456 76.322, 146.338 76.564, 141.250 76.745" stroke="none" fill="black" fill-rule="evenodd"/>
</svg>