<svg xmlns="http://www.w3.org/2000/svg" width="300" height="300" viewBox="0 0 300 300" version="1.1">
	<path d="M 179 25.500 C 179 26.325, 178.283 27, 177.406 27 C 176.530 27, 175.577 27.900, 175.290 29 C 175.002 30.100, 174.197 31, 173.500 31 C 172.803 31, 171.998 31.900, 171.710 33 C 171.423 34.100, 170.470 35, 169.594 35 C 168.439 35, 168 35.964, 168 38.500 C 168 40.896, 167.541 42, 166.545 42 C 165.675 42, 164.827 43.405, 164.434 45.500 C 164.058 47.505, 163.184 49, 162.389 49 C 161.468 49, 161 50.180, 161 52.500 C 161 55.036, 160.561 56, 159.406 56 C 158.530 56, 157.577 56.900, 157.290 58 C 157.002 59.100, 156.194 60, 155.495 60 C 154.795 60, 153.927 61.575, 153.566 63.500 C 153.173 65.595, 152.325 67, 151.455 67 C 150.655 67, 150 67.900, 150 69 C 150 70.333, 149.333 71, 148 71 C 146.889 71, 146 70.333, 146 69.500 C 146 68.675, 145.325 68, 144.500 68 C 143.352 68, 143 66.735, 143 62.617 C 143 58.074, 142.688 57.152, 141 56.710 C 139.330 56.274, 139 55.346, 139 51.094 C 139 47.233, 138.637 46, 137.500 46 C 136.667 46, 136 45.111, 136 44 C 136 42.394, 135.333 42, 132.617 42 C 128.732 42, 128.036 43.413, 128.014 51.344 C 128.002 55.353, 128.345 56.277, 130 56.710 C 131.647 57.141, 132 58.074, 132 62 C 132 65.926, 132.353 66.859, 134 67.290 C 135.456 67.671, 136 68.654, 136 70.906 C 136 72.990, 136.490 74, 137.500 74 C 138.333 74, 139 74.889, 139 76 C 139 77.333, 139.667 78, 141 78 C 142.163 78, 143 78.667, 143 79.594 C 143 80.470, 142.100 81.423, 141 81.710 C 139.900 81.998, 139 82.856, 139 83.617 C 139 84.531, 137.813 85, 135.500 85 C 133.187 85, 132 85.469, 132 86.383 C 132 88.103, 128.923 88.969, 122.750 88.986 C 119.370 88.996, 118 89.401, 118 90.389 C 118 91.184, 116.505 92.058, 114.500 92.434 C 112.405 92.827, 111 93.675, 111 94.545 C 111 95.430, 110.021 96, 108.500 96 C 106.944 96, 106 96.567, 106 97.500 C 106 98.325, 105.325 99, 104.500 99 C 103.567 99, 103 99.944, 103 101.500 C 103 103.056, 102.433 104, 101.500 104 C 100.675 104, 100 104.450, 100 105 C 100 105.550, 100.617 106, 101.372 106 C 102.200 106, 102.998 107.587, 103.384 110 C 103.798 112.588, 104.549 114, 105.512 114 C 106.333 114, 107 114.896, 107 116 C 107 119.191, 109.688 118.311, 110.371 114.897 C 110.712 113.191, 110.723 111.362, 110.396 110.832 C 109.335 109.115, 111.013 103, 112.545 103 C 113.345 103, 114 102.325, 114 101.500 C 114 100.534, 114.978 99.995, 116.750 99.986 C 121.032 99.965, 124 98.899, 124 97.383 C 124 96.436, 125.261 96, 128 96 C 131.333 96, 132 96.333, 132 98 C 132 99.100, 131.345 100, 130.545 100 C 129.675 100, 128.827 101.405, 128.434 103.500 C 128.058 105.505, 127.184 107, 126.389 107 C 125.625 107, 125 107.675, 125 108.500 C 125 109.325, 125.619 110, 126.375 110 C 127.804 110, 129.409 115.530, 128.437 117.103 C 128.132 117.596, 127.234 118, 126.441 118 C 125.648 118, 125 118.675, 125 119.500 C 125 120.548, 123.944 121, 121.500 121 C 118.667 121, 118 121.381, 118 123 C 118 124.758, 117.333 125, 112.500 125 C 108.278 125, 107 125.348, 107 126.500 C 107 127.548, 105.944 128, 103.500 128 C 101.056 128, 100 127.548, 100 126.500 C 100 125.667, 99.111 125, 98 125 C 96.333 125, 96 124.333, 96 121 C 96 118.111, 95.583 117, 94.500 117 C 93.404 117, 92.996 115.855, 92.986 112.750 C 92.968 107.053, 92.060 104, 90.383 104 C 89.436 104, 89 102.739, 89 100 L 89 96 83.500 96 L 78 96 78 101.500 C 78 105.516, 78.373 107, 79.383 107 C 80.899 107, 81.965 109.968, 81.986 114.250 C 81.995 115.923, 82.544 117, 83.389 117 C 84.202 117, 85.069 118.554, 85.480 120.748 C 85.867 122.809, 86.641 124.778, 87.201 125.124 C 87.760 125.470, 88.452 127.833, 88.739 130.376 C 89.076 133.371, 89.743 135, 90.630 135 C 91.384 135, 92 135.900, 92 137 C 92 138.333, 92.667 139, 94 139 C 95.606 139, 96 139.667, 96 142.383 C 96 144.926, 96.497 145.897, 98 146.290 C 99.100 146.577, 100 147.530, 100 148.406 C 100 149.363, 100.847 150, 102.117 150 C 103.824 150, 104.117 150.435, 103.630 152.250 C 103.299 153.488, 103.021 155.063, 103.014 155.750 C 103.004 156.630, 100.926 157, 96 157 C 89.667 157, 89 157.190, 89 159 C 89 160.111, 88.333 161, 87.500 161 C 86.675 161, 86 161.675, 86 162.500 C 86 163.325, 86.450 164, 87 164 C 87.550 164, 88 164.900, 88 166 C 88 167.879, 88.667 168, 99 168 C 107.667 168, 110 167.708, 110 166.625 C 110 165.254, 114.120 164, 118.625 164 C 120.914 164, 121 164.272, 121 171.500 C 121 177.500, 120.700 179, 119.500 179 C 118.675 179, 118 179.675, 118 180.500 C 118 181.333, 117.111 182, 116 182 C 114.667 182, 114 182.667, 114 184 C 114 185.333, 113.333 186, 112 186 C 110.482 186, 110.003 186.662, 110.014 188.750 C 110.039 193.810, 111.094 195.862, 114 196.500 C 115.729 196.880, 117.021 197.952, 117.385 199.307 C 117.708 200.513, 117.979 209.262, 117.986 218.750 C 117.998 233.411, 118.225 236, 119.500 236 C 120.523 236, 121.004 237.034, 121.014 239.250 C 121.042 246.086, 121.762 247, 127.117 247 C 131.333 247, 132 246.727, 132 245 C 132 243.889, 132.667 243, 133.500 243 C 134.325 243, 135 242.325, 135 241.500 C 135 240.675, 134.325 240, 133.500 240 C 132.667 240, 132 239.111, 132 238 C 132 236.667, 131.333 236, 130 236 C 128.344 236, 128 235.333, 128 232.125 C 128 226.228, 129.096 222, 130.625 222 C 131.381 222, 132 222.675, 132 223.500 C 132 224.333, 132.889 225, 134 225 C 135.111 225, 136 224.333, 136 223.500 C 136 222.675, 136.623 222, 137.383 222 C 138.144 222, 139.002 221.100, 139.290 220 C 139.776 218.141, 140.648 218.001, 151.656 218.014 C 168.814 218.033, 168 217.555, 168 227.617 C 168 235.333, 167.841 236, 166 236 C 164.333 236, 164 236.667, 164 240 C 164 243.333, 164.333 244, 166 244 C 167.333 244, 168 243.333, 168 242 C 168 240.667, 168.667 240, 170 240 C 171.333 240, 172 239.333, 172 238 C 172 236.889, 172.667 236, 173.500 236 C 174.753 236, 175 233.944, 175 223.500 L 175 211 171.500 211 C 169.159 211, 168 210.534, 168 209.594 C 168 208.505, 165.798 208.110, 158.250 207.844 C 142.004 207.271, 132 207.931, 132 209.576 C 132 211.873, 129.289 211.208, 128.630 208.750 C 128.299 207.512, 128.021 203.463, 128.014 199.750 C 128.001 193.662, 128.196 193, 130 193 C 131.111 193, 132 192.333, 132 191.500 C 132 190.236, 134.278 190, 146.500 190 C 158.206 190, 161 190.268, 161 191.389 C 161 192.184, 162.495 193.058, 164.500 193.434 C 166.595 193.827, 168 194.675, 168 195.545 C 168 196.345, 168.900 197, 170 197 C 171.111 197, 172 197.667, 172 198.500 C 172 199.325, 172.675 200, 173.500 200 C 174.333 200, 175 200.889, 175 202 C 175 203.333, 175.667 204, 177 204 C 178.619 204, 179 204.667, 179 207.500 C 179 209.944, 179.452 211, 180.500 211 C 181.728 211, 182 212.722, 182 220.500 C 182 228.278, 181.728 230, 180.500 230 C 179.318 230, 179 231.399, 179 236.594 C 179 242.346, 178.745 243.254, 177 243.710 C 175.344 244.143, 175 245.074, 175 249.117 C 175 252.617, 174.607 254, 173.611 254 C 172.816 254, 171.942 255.495, 171.566 257.500 L 170.909 261 151.080 261 C 140.173 261, 129.844 261.281, 128.125 261.625 C 125.138 262.222, 125 262.465, 125 267.125 C 125 271.333, 125.274 272, 127 272 C 128.111 272, 129 271.333, 129 270.500 C 129 269.675, 129.675 269, 130.500 269 C 131.325 269, 132 269.675, 132 270.500 C 132 271.652, 133.278 272, 137.500 272 C 141.722 272, 143 271.652, 143 270.500 C 143 269.278, 144.667 269, 152 269 L 161 269 161 272.500 C 161 275.833, 161.167 276, 164.500 276 C 166.820 276, 168 275.532, 168 274.611 C 168 273.816, 169.495 272.942, 171.500 272.566 C 173.595 272.173, 175 271.325, 175 270.455 C 175 269.358, 176.354 269, 180.500 269 C 184.722 269, 186 269.348, 186 270.500 C 186 272.987, 188.737 272.185, 189.411 269.500 C 190.858 263.731, 188.435 261.047, 181.750 261.014 C 179.978 261.005, 179 260.466, 179 259.500 C 179 258.675, 179.619 258, 180.375 258 C 181.746 258, 183 253.880, 183 249.375 C 183 247.931, 183.588 247, 184.500 247 C 185.690 247, 186 245.556, 186 240 C 186 233.667, 186.190 233, 188 233 C 189.904 233, 189.999 232.338, 189.986 219.250 C 189.972 204.304, 189.500 201, 187.383 201 C 186.623 201, 186 200.100, 186 199 C 186 197.837, 185.333 197, 184.406 197 C 183.530 197, 182.577 196.100, 182.290 195 C 182.002 193.900, 181.144 193, 180.383 193 C 179.623 193, 179 192.325, 179 191.500 C 179 190.675, 178.283 190, 177.406 190 C 176.530 190, 175.577 189.100, 175.290 188 C 174.897 186.497, 173.926 186, 171.383 186 C 168.667 186, 168 185.606, 168 184 C 168 182.333, 167.333 182, 164 182 C 161.142 182, 160 181.579, 160 180.525 C 160 179.300, 157.348 179.004, 144.332 178.775 C 132.459 178.567, 128.558 178.181, 128.227 177.184 C 127.986 176.459, 128.735 175.621, 129.895 175.317 C 131.512 174.894, 132 173.982, 132 171.383 C 132 168.667, 132.394 168, 134 168 C 135.100 168, 136 168.619, 136 169.375 C 136 170.131, 137.406 171.031, 139.125 171.375 C 144.501 172.450, 146 172.150, 146 170 C 146 168.889, 145.333 168, 144.500 168 C 143.675 168, 143 167.330, 143 166.512 C 143 165.549, 141.588 164.798, 139 164.384 C 136.800 164.032, 135 163.184, 135 162.500 C 135 161.816, 136.800 160.968, 139 160.616 C 141.588 160.202, 143 159.451, 143 158.488 C 143 157.226, 145.730 157, 161 157 C 178.333 157, 179 157.074, 179 159 C 179 160.333, 178.333 161, 177 161 C 175.381 161, 175 161.667, 175 164.500 C 175 167.333, 175.381 168, 177 168 C 178.100 168, 179 167.345, 179 166.545 C 179 165.675, 180.405 164.827, 182.500 164.434 C 184.505 164.058, 186 163.184, 186 162.389 C 186 161.625, 186.675 161, 187.500 161 C 188.325 161, 189.006 160.438, 189.014 159.750 C 189.021 159.063, 189.299 157.488, 189.630 156.250 C 190.117 154.435, 189.824 154, 188.117 154 C 186.667 154, 186 153.370, 186 152 C 186 150.381, 185.333 150, 182.500 150 C 180.056 150, 179 149.548, 179 148.500 C 179 147.278, 177.333 147, 170 147 C 162.667 147, 161 147.278, 161 148.500 C 161 149.764, 158.722 150, 146.500 150 C 134.278 150, 132 150.236, 132 151.500 C 132 152.333, 131.111 153, 130 153 C 128.889 153, 128 152.333, 128 151.500 C 128 150.667, 128.889 150, 130 150 C 131.606 150, 132 149.333, 132 146.617 C 132 144.074, 132.497 143.103, 134 142.710 C 135.100 142.423, 136 141.470, 136 140.594 C 136 139.717, 136.625 139, 137.389 139 C 138.184 139, 139.058 137.505, 139.434 135.500 C 140.008 132.438, 140.460 132, 143.045 132 C 145.082 132, 146 131.505, 146 130.406 C 146 129.530, 146.900 128.577, 148 128.290 C 149.100 128.002, 150 127.144, 150 126.383 C 150 125.469, 151.187 125, 153.500 125 C 156.333 125, 157 124.619, 157 123 C 157 121.667, 157.667 121, 159 121 C 160.111 121, 161 120.333, 161 119.500 C 161 118.675, 161.675 118, 162.500 118 C 163.333 118, 164 117.111, 164 116 C 164 114.667, 164.667 114, 166 114 C 167.111 114, 168 113.333, 168 112.500 C 168 111.675, 168.717 111, 169.594 111 C 170.470 111, 171.423 110.100, 171.710 109 C 171.998 107.900, 173.049 107, 174.045 107 C 176.596 107, 179 104.296, 179 101.429 C 179 99.227, 178.591 99, 174.625 99 C 168.259 99, 164 100.052, 164 101.625 C 164 102.530, 162.803 103, 160.500 103 C 158.104 103, 157 103.459, 157 104.455 C 157 105.325, 155.595 106.173, 153.500 106.566 C 151.495 106.942, 150 107.816, 150 108.611 C 150 109.539, 148.806 110, 146.406 110 C 143.654 110, 142.690 110.468, 142.290 112 C 141.596 114.652, 140.377 114.537, 139.630 111.750 C 138.443 107.320, 138.771 107, 144.500 107 C 149.333 107, 150 106.758, 150 105 C 150 103.889, 149.333 103, 148.500 103 C 147.675 103, 147 102.325, 147 101.500 C 147 100.667, 146.111 100, 145 100 C 143.667 100, 143 99.333, 143 98 C 143 96.889, 143.667 96, 144.500 96 C 145.325 96, 146 95.375, 146 94.611 C 146 93.816, 147.495 92.942, 149.500 92.566 C 151.595 92.173, 153 91.325, 153 90.455 C 153 89.311, 154.604 89, 160.500 89 C 166.293 89, 168 88.679, 168 87.588 C 168 84.676, 181.352 84.444, 183.182 87.324 C 183.556 87.914, 186.819 88.585, 190.432 88.815 C 195.156 89.116, 197 89.621, 197 90.616 C 197 91.531, 198.187 92, 200.500 92 C 203.333 92, 204 92.381, 204 94 C 204 95.333, 204.667 96, 206 96 C 207.333 96, 208 96.667, 208 98 C 208 99.111, 208.667 100, 209.500 100 C 210.652 100, 211 101.278, 211 105.500 C 211 109.722, 210.652 111, 209.500 111 C 208.490 111, 208 112.010, 208 114.094 C 208 116.346, 207.456 117.329, 206 117.710 C 204.497 118.103, 204 119.074, 204 121.617 C 204 124.333, 203.606 125, 202 125 C 200.667 125, 200 125.667, 200 127 C 200 128.111, 199.333 129, 198.500 129 C 197.675 129, 197 129.675, 197 130.500 C 197 131.333, 196.111 132, 195 132 C 193.667 132, 193 132.667, 193 134 C 193 135.111, 192.333 136, 191.500 136 C 190.675 136, 190 136.675, 190 137.500 C 190 138.652, 191.278 139, 195.500 139 C 199.722 139, 201 138.652, 201 137.500 C 201 136.675, 201.675 136, 202.500 136 C 203.333 136, 204 135.111, 204 134 C 204 132.667, 204.667 132, 206 132 C 207.333 132, 208 131.333, 208 130 C 208 128.889, 208.667 128, 209.500 128 C 210.336 128, 211 127.110, 211 125.990 C 211 124.885, 211.900 123.210, 213 122.268 C 214.100 121.326, 215 119.981, 215 119.278 C 215 118.575, 215.635 118, 216.412 118 C 217.280 118, 218.085 116.459, 218.500 114 C 218.915 111.541, 219.720 110, 220.588 110 C 221.633 110, 222 108.570, 222 104.500 C 222 100.507, 221.624 99, 220.629 99 C 219.739 99, 219.025 97.246, 218.594 94 C 217.943 89.089, 217.869 89, 214.466 89 C 211.667 89, 211 88.615, 211 87 C 211 85.381, 210.333 85, 207.500 85 C 205.104 85, 204 84.541, 204 83.545 C 204 82.675, 202.595 81.827, 200.500 81.434 C 198.495 81.058, 197 80.184, 197 79.389 C 197 78.250, 193.399 78, 177 78 L 157 78 157 74.617 C 157 72.074, 157.497 71.103, 159 70.710 C 160.456 70.329, 161 69.346, 161 67.094 C 161 65.010, 161.490 64, 162.500 64 C 163.333 64, 164 63.111, 164 62 C 164 60.667, 164.667 60, 166 60 C 167.619 60, 168 59.333, 168 56.500 C 168 54.187, 168.469 53, 169.383 53 C 170.144 53, 171.002 52.100, 171.290 51 C 171.577 49.900, 172.530 49, 173.406 49 C 174.561 49, 175 48.036, 175 45.500 C 175 42.667, 175.381 42, 177 42 C 178.605 42, 179 41.333, 179 38.625 C 179 35.714, 179.392 35.172, 181.851 34.680 C 183.420 34.366, 185.606 34.346, 186.710 34.635 C 188.334 35.059, 188.841 34.546, 189.359 31.955 C 190.855 24.477, 190.564 24, 184.500 24 C 180.278 24, 179 24.348, 179 25.500 M 143 119.500 C 143 120.333, 142.111 121, 141 121 C 139.667 121, 139 121.667, 139 123 C 139 124.333, 139.667 125, 141 125 C 142.100 125, 143 124.377, 143 123.617 C 143 122.856, 143.900 121.998, 145 121.710 C 146.100 121.423, 147 120.470, 147 119.594 C 147 118.667, 146.163 118, 145 118 C 143.889 118, 143 118.667, 143 119.500 M 123.250 128.706 C 122.013 128.944, 121 129.783, 121 130.570 C 121 131.538, 119.869 132, 117.500 132 C 114.667 132, 114 132.381, 114 134 C 114 135.619, 113.333 136, 110.500 136 C 108.056 136, 107 136.452, 107 137.500 C 107 138.325, 106.325 139, 105.500 139 C 102.745 139, 103.958 141.832, 107 142.500 C 109.141 142.970, 110 143.745, 110 145.204 C 110 146.962, 110.440 147.162, 113.125 146.625 C 114.844 146.281, 116.644 146, 117.125 146 C 117.606 146, 118 145.325, 118 144.500 C 118 143.675, 118.675 143, 119.500 143 C 120.325 143, 121 142.283, 121 141.406 C 121 140.530, 121.900 139.577, 123 139.290 C 124.100 139.002, 125 138.144, 125 137.383 C 125 136.623, 125.619 136, 126.375 136 C 127.804 136, 129.409 130.470, 128.437 128.897 C 127.868 127.978, 127.164 127.952, 123.250 128.706" stroke="none" fill="black" fill-rule="evenodd"/>
</svg>