<svg xmlns="http://www.w3.org/2000/svg" width="300" height="300" viewBox="0 0 300 300" version="1.1">
	<path d="M 103 0.883 C 103 1.369, 102.100 2.002, 101 2.290 C 99.900 2.577, 99 3.530, 99 4.406 C 99 5.283, 98.325 6, 97.500 6 C 96.462 6, 96 7.043, 96 9.383 C 96 11.926, 95.503 12.897, 94 13.290 C 92.544 13.671, 92 14.654, 92 16.906 C 92 18.990, 91.510 20, 90.500 20 C 89.667 20, 89 20.889, 89 22 C 89 23.333, 88.333 24, 87 24 C 85.242 24, 85 24.667, 85 29.500 C 85 33.454, 84.620 35, 83.648 35 C 82.678 35, 82.133 37.190, 81.719 42.750 C 80.928 53.350, 81.515 55.735, 85.106 56.523 C 86.698 56.873, 88 57.798, 88 58.579 C 88 59.361, 88.900 60, 90 60 C 91.333 60, 92 60.667, 92 62 C 92 63.333, 92.667 64, 94 64 C 95.111 64, 96 64.667, 96 65.500 C 96 66.333, 96.889 67, 98 67 C 99.333 67, 100 67.667, 100 69 C 100 70.556, 100.667 71, 103 71 C 105 71, 106 71.500, 106 72.500 C 106 73.325, 106.873 74, 107.941 74 C 109.009 74, 110.147 74.429, 110.472 74.954 C 111.437 76.516, 109.895 81, 108.392 81 C 107.626 81, 107 81.900, 107 83 C 107 84.333, 106.333 85, 105 85 C 103.667 85, 103 85.667, 103 87 C 103 88.111, 102.333 89, 101.500 89 C 100.675 89, 100 89.717, 100 90.594 C 100 91.470, 99.100 92.423, 98 92.710 C 96.583 93.081, 96 94.074, 96 96.117 C 96 98.333, 95.538 99, 94 99 C 92.667 99, 92 99.667, 92 101 C 92 102.810, 91.333 103, 85 103 C 78.667 103, 78 103.190, 78 105 C 78 106.727, 77.333 107, 73.117 107 C 67.762 107, 67.042 107.914, 67.014 114.750 C 67.001 117.800, 67.215 118, 70.500 118 C 72.944 118, 74 118.452, 74 119.500 C 74 120.548, 75.056 121, 77.500 121 C 79.944 121, 81 120.548, 81 119.500 C 81 118.452, 82.056 118, 84.500 118 C 87.932 118, 89.571 120.310, 86.795 121.235 C 86.040 121.487, 85.545 124.036, 85.468 128.068 C 85.402 131.606, 85.269 139.563, 85.173 145.750 C 85.031 155.006, 84.734 157, 83.500 157 C 82.667 157, 82 157.889, 82 159 C 82 160.333, 81.333 161, 80 161 C 78.381 161, 78 161.667, 78 164.500 C 78 167.833, 78.167 168, 81.500 168 L 85 168 85 177 C 85 184.333, 85.278 186, 86.500 186 C 87.548 186, 88 187.056, 88 189.500 C 88 192.833, 87.833 193, 84.500 193 C 82.104 193, 81 193.459, 81 194.455 C 81 195.325, 79.595 196.173, 77.500 196.566 C 75.495 196.942, 74 197.816, 74 198.611 C 74 199.532, 72.820 200, 70.500 200 C 67.667 200, 67 200.381, 67 202 C 67 203.619, 66.333 204, 63.500 204 C 60.189 204, 60 204.183, 60 207.389 C 60 210.512, 60.293 210.832, 63.748 211.480 C 65.809 211.867, 67.868 212.705, 68.324 213.342 C 68.943 214.207, 69.281 214.184, 69.659 213.250 C 69.938 212.562, 71.071 212, 72.177 212 C 73.346 212, 74.406 211.163, 74.710 210 C 74.998 208.900, 75.856 208, 76.617 208 C 77.377 208, 78 207.100, 78 206 C 78 204.394, 78.667 204, 81.383 204 C 83.926 204, 84.897 203.503, 85.290 202 C 85.690 200.468, 86.654 200, 89.406 200 C 91.934 200, 93 199.555, 93 198.500 C 93 197.452, 94.056 197, 96.500 197 C 99.333 197, 100 196.619, 100 195 C 100 193.381, 100.667 193, 103.500 193 C 105.820 193, 107 192.532, 107 191.611 C 107 190.816, 108.495 189.942, 110.500 189.566 C 112.595 189.173, 114 188.325, 114 187.455 C 114 186.655, 114.900 186, 116 186 C 117.933 186, 118 186.667, 118 206 C 118 223.111, 118.217 226, 119.500 226 C 120.776 226, 121 228.611, 121 243.500 C 121 260.333, 121.076 261, 123 261 C 124.111 261, 125 260.333, 125 259.500 C 125 258.675, 125.635 258, 126.412 258 C 128.110 258, 128.864 253.148, 128.588 244 C 128.479 240.425, 128.303 227.488, 128.195 215.250 C 128.028 196.226, 127.783 193, 126.500 193 C 125.310 193, 125 191.556, 125 186 C 125 180.707, 125.337 179, 126.383 179 C 127.144 179, 128.002 178.100, 128.290 177 C 128.577 175.900, 129.530 175, 130.406 175 C 131.283 175, 132 174.375, 132 173.611 C 132 172.824, 133.471 171.947, 135.398 171.585 C 137.976 171.102, 138.955 170.315, 139.454 168.329 C 139.815 166.889, 139.720 165.320, 139.243 164.843 C 137.960 163.560, 132 165.026, 132 166.625 C 132 167.381, 131.100 168, 130 168 C 128.889 168, 128 168.667, 128 169.500 C 128 170.325, 127.325 171, 126.500 171 C 125.247 171, 125 168.944, 125 158.500 C 125 148.056, 124.753 146, 123.500 146 C 122.452 146, 122 144.944, 122 142.500 C 122 140.575, 122.450 139, 123 139 C 123.550 139, 124 137.425, 124 135.500 C 124 133.575, 123.550 132, 123 132 C 121.621 132, 121.734 128.255, 123.127 127.791 C 123.747 127.584, 124.479 125.072, 124.754 122.208 C 125.091 118.703, 125.703 117, 126.627 117 C 127.529 117, 128 115.800, 128 113.500 C 128 110.345, 127.729 110.001, 125.250 110.014 C 120.968 110.035, 118 111.101, 118 112.617 C 118 113.377, 117.100 114, 116 114 C 114.274 114, 114 114.667, 114 118.875 C 114 123.535, 113.862 123.778, 110.875 124.375 C 106.951 125.160, 101.189 125.157, 98.250 124.370 C 96.306 123.849, 96 123.102, 96 118.883 C 96 115.392, 96.394 114, 97.383 114 C 98.144 114, 99.002 113.100, 99.290 112 C 99.726 110.330, 100.654 110, 104.906 110 C 108.767 110, 110 109.637, 110 108.500 C 110 107.300, 111.500 107, 117.500 107 C 123.500 107, 125 106.700, 125 105.500 C 125 104.675, 125.675 104, 126.500 104 C 127.325 104, 128 104.675, 128 105.500 C 128 106.333, 128.889 107, 130 107 C 131.370 107, 132 107.667, 132 109.117 C 132 110.824, 132.435 111.117, 134.250 110.630 C 135.488 110.299, 137.063 110.021, 137.750 110.014 C 138.578 110.005, 139 108.348, 139 105.111 C 139 100.316, 138.933 100.210, 135.500 99.566 C 133.405 99.173, 132 98.325, 132 97.455 C 132 96.358, 130.646 96, 126.500 96 C 122.278 96, 121 96.348, 121 97.500 C 121 98.702, 119.487 99, 113.383 99 C 105.973 99, 105.783 98.939, 106.370 96.750 C 106.701 95.513, 106.979 94.215, 106.986 93.867 C 106.994 93.518, 107.900 92.998, 109 92.710 C 110.100 92.423, 111 91.470, 111 90.594 C 111 89.717, 111.675 89, 112.500 89 C 113.333 89, 114 88.111, 114 87 C 114 85.667, 114.667 85, 116 85 C 117.111 85, 118 84.333, 118 83.500 C 118 82.675, 118.675 82, 119.500 82 C 120.325 82, 121 82.675, 121 83.500 C 121 84.722, 122.667 85, 130 85 C 138.333 85, 139 85.148, 139 87 C 139 88.758, 139.667 89, 144.500 89 C 148.545 89, 150 89.370, 150 90.399 C 150 91.396, 152.005 91.998, 157 92.500 C 161.995 93.002, 164 93.604, 164 94.601 C 164 95.735, 166.745 96, 178.500 96 C 190.136 96, 193 96.272, 193 97.375 C 193 99.092, 197.366 100, 205.625 100 C 210.625 100, 212 100.324, 212 101.500 C 212 102.738, 213.833 103, 222.500 103 C 231.167 103, 233 103.262, 233 104.500 C 233 105.548, 234.056 106, 236.500 106 L 240 106 240 101 L 240 96 233.117 96 C 227.074 96, 226.169 95.756, 225.710 94 C 225.236 92.185, 224.346 92, 216.094 92 C 208.946 92, 207 91.699, 207 90.594 C 207 89.502, 204.758 89.111, 196.962 88.844 C 189.392 88.585, 186.697 88.131, 186.001 87 C 185.282 85.834, 182.399 85.426, 173.038 85.166 C 163.478 84.901, 161 84.541, 161 83.416 C 161 82.592, 160.007 82, 158.625 82 C 154.120 82, 150 80.746, 150 79.375 C 150 78.375, 148.500 78, 144.500 78 C 140.500 78, 139 77.625, 139 76.625 C 139 75.254, 134.880 74, 130.375 74 C 128.387 74, 128 73.496, 128 70.906 C 128 68.654, 128.544 67.671, 130 67.290 C 131.100 67.002, 132 66.197, 132 65.500 C 132 64.803, 132.900 63.998, 134 63.710 C 135.100 63.423, 136 62.470, 136 61.594 C 136 60.717, 136.675 60, 137.500 60 C 138.548 60, 139 58.944, 139 56.500 C 139 53.667, 139.381 53, 141 53 C 142.333 53, 143 52.333, 143 51 C 143 49.900, 143.655 49, 144.455 49 C 145.325 49, 146.173 47.595, 146.566 45.500 C 146.942 43.495, 147.816 42, 148.611 42 C 149.375 42, 150 41.325, 150 40.500 C 150 39.675, 150.717 39, 151.594 39 C 152.470 39, 153.423 38.100, 153.710 37 C 153.998 35.900, 154.856 35, 155.617 35 C 156.377 35, 157 34.100, 157 33 C 157 31.667, 157.667 31, 159 31 C 160.111 31, 161 30.333, 161 29.500 C 161 28.675, 161.675 28, 162.500 28 C 163.333 28, 164 27.111, 164 26 C 164 24.242, 164.667 24, 169.500 24 C 173.722 24, 175 23.652, 175 22.500 C 175 21.379, 176.201 20.997, 179.750 20.986 C 187.582 20.964, 189 20.258, 189 16.383 C 189 13.291, 188.742 13, 186 13 C 184.083 13, 183 12.490, 183 11.588 C 183 10.720, 181.459 9.915, 179 9.500 C 176.541 9.085, 175 8.280, 175 7.412 C 175 6.271, 172.599 6, 162.500 6 L 150 6 150 9.448 L 150 12.895 155.250 13.198 C 160.325 13.490, 160.510 13.605, 160.804 16.629 C 161.084 19.502, 160.819 19.811, 157.554 20.424 C 155.416 20.825, 154 21.670, 154 22.545 C 154 23.345, 153.100 24, 152 24 C 150.381 24, 150 24.667, 150 27.500 C 150 30.333, 149.619 31, 148 31 C 146.667 31, 146 31.667, 146 33 C 146 34.100, 145.377 35, 144.617 35 C 143.856 35, 142.998 35.900, 142.710 37 C 142.423 38.100, 141.470 39, 140.594 39 C 139.504 39, 139 39.912, 139 41.883 C 139 43.926, 138.417 44.919, 137 45.290 C 135.900 45.577, 135 46.530, 135 47.406 C 135 48.283, 134.325 49, 133.500 49 C 132.667 49, 132 49.889, 132 51 C 132 52.100, 131.345 53, 130.545 53 C 129.675 53, 128.827 54.405, 128.434 56.500 C 128.058 58.505, 127.184 60, 126.389 60 C 125.625 60, 125 60.717, 125 61.594 C 125 62.470, 124.100 63.423, 123 63.710 C 121.900 63.998, 121 64.856, 121 65.617 C 121 66.531, 119.813 67, 117.500 67 C 115.180 67, 114 66.532, 114 65.611 C 114 64.816, 112.505 63.942, 110.500 63.566 C 108.405 63.173, 107 62.325, 107 61.455 C 107 60.655, 106.100 60, 105 60 C 103.900 60, 103 59.345, 103 58.545 C 103 57.675, 101.595 56.827, 99.500 56.434 C 96.967 55.959, 96 55.255, 96 53.889 C 96 52.850, 95.374 52, 94.608 52 C 93.105 52, 91.563 47.516, 92.528 45.954 C 92.853 45.429, 93.766 45, 94.559 45 C 95.639 45, 96 43.622, 96 39.500 C 96 35.278, 95.652 34, 94.500 34 C 93.675 34, 93 33.550, 93 33 C 93 32.450, 93.675 32, 94.500 32 C 95.583 32, 96 30.889, 96 28 C 96 24.667, 96.333 24, 98 24 C 99.619 24, 100 23.333, 100 20.500 C 100 18.180, 100.468 17, 101.389 17 C 102.184 17, 103.058 15.505, 103.434 13.500 C 103.827 11.405, 104.675 10, 105.545 10 C 106.345 10, 107 9.100, 107 8 C 107 6.190, 107.667 6, 114 6 L 121 6 121 3 L 121 0 112 0 C 107.050 0, 103 0.398, 103 0.883 M 155.750 110.689 C 154.787 110.941, 154 111.789, 154 112.573 C 154 113.358, 153.100 114, 152 114 C 150.242 114, 150 114.667, 150 119.500 C 150 124.403, 149.774 125, 147.920 125 C 145.932 125, 145.853 125.449, 146.112 135.250 C 146.441 147.711, 146.829 150, 148.617 150 C 149.692 150, 150 152.004, 150 159 C 150 165.970, 150.310 168, 151.375 168 C 153.322 168, 154 172.554, 154 185.625 C 154 195.069, 154.255 197, 155.500 197 C 156.806 197, 157.024 202.390, 157.190 238.750 C 157.294 261.712, 157.240 284.887, 157.070 290.250 L 156.762 300 162.381 300 L 168 300 168 295 C 168 291.433, 168.393 290, 169.370 290 C 170.249 290, 170.919 288.407, 171.241 285.552 C 171.885 279.840, 171.138 276, 169.383 276 C 168.269 276, 168 273.179, 168 261.500 C 168 249.278, 167.764 247, 166.500 247 C 165.452 247, 165 245.944, 165 243.500 C 165 241.056, 165.452 240, 166.500 240 C 167.652 240, 168 238.722, 168 234.500 C 168 230.278, 167.652 229, 166.500 229 C 165.247 229, 165 226.944, 165 216.500 C 165 206.056, 165.247 204, 166.500 204 C 167.548 204, 168 202.944, 168 200.500 C 168 197.667, 168.381 197, 170 197 C 171.111 197, 172 197.667, 172 198.500 C 172 199.690, 173.444 200, 179 200 C 184.556 200, 186 199.690, 186 198.500 C 186 197.416, 187.112 197, 190.010 197 C 192.782 197, 194.548 196.383, 195.732 195 C 196.674 193.900, 197.967 193, 198.606 193 C 199.244 193, 200.002 192.100, 200.290 191 C 200.577 189.900, 201.530 189, 202.406 189 C 203.561 189, 204 188.036, 204 185.500 C 204 183.187, 204.469 182, 205.383 182 C 207.041 182, 207.973 178.942, 207.973 173.500 C 207.973 168.058, 207.041 165, 205.383 165 C 204.623 165, 204 164.100, 204 163 C 204 161.381, 203.333 161, 200.500 161 C 197.667 161, 197 160.619, 197 159 C 197 157.381, 196.333 157, 193.500 157 L 190 157 190 152 C 190 148.222, 190.367 147, 191.500 147 C 192.325 147, 193 146.200, 193 145.222 C 193 144.244, 193.900 142.674, 195 141.732 C 196.383 140.548, 197 138.782, 197 136.010 C 197 133.112, 197.416 132, 198.500 132 C 199.722 132, 200 130.333, 200 123 L 200 114 196.500 114 C 194.187 114, 193 113.531, 193 112.617 C 193 111.856, 191.988 110.962, 190.750 110.630 C 188.186 109.943, 158.413 109.993, 155.750 110.689 M 165 119.500 C 165 120.996, 163.680 121.315, 157 121.437 C 154.324 121.485, 153.520 121.912, 153.583 123.250 C 153.629 124.213, 153.742 126.575, 153.833 128.500 C 153.939 130.710, 154.503 132, 155.366 132 C 156.344 132, 156.876 134.017, 157.240 139.113 C 157.562 143.605, 158.256 146.540, 159.125 147.075 C 160.169 147.719, 160.578 151.548, 160.822 162.962 C 161.074 174.704, 161.438 178, 162.484 178 C 163.268 178, 164.105 179.660, 164.500 182 C 164.915 184.459, 165.720 186, 166.588 186 C 167.365 186, 168 186.900, 168 188 C 168 189.333, 168.667 190, 170 190 C 171.111 190, 172 190.667, 172 191.500 C 172 192.690, 173.444 193, 179 193 C 184.556 193, 186 192.690, 186 191.500 C 186 190.675, 186.717 190, 187.594 190 C 188.470 190, 189.423 189.100, 189.710 188 C 189.998 186.900, 190.856 186, 191.617 186 C 192.377 186, 193 185.377, 193 184.617 C 193 183.856, 193.900 182.998, 195 182.710 C 196.655 182.277, 196.998 181.353, 196.986 177.344 C 196.964 169.413, 196.268 168, 192.383 168 C 190.089 168, 189 167.532, 189 166.545 C 189 165.675, 187.595 164.827, 185.500 164.434 C 183.495 164.058, 182 163.184, 182 162.389 C 182 161.468, 180.820 161, 178.500 161 C 175.167 161, 175 160.833, 175 157.500 C 175 154.964, 175.439 154, 176.594 154 C 177.470 154, 178.423 153.100, 178.710 152 C 178.998 150.900, 179.856 150, 180.617 150 C 181.531 150, 182 148.813, 182 146.500 C 182 143.667, 182.381 143, 184 143 C 185.619 143, 186 142.333, 186 139.500 C 186 137.197, 186.470 136, 187.375 136 C 188.948 136, 190 131.741, 190 125.375 C 190 121.667, 189.695 121, 188 121 C 186.889 121, 186 120.333, 186 119.500 C 186 118.262, 184.167 118, 175.500 118 C 166.833 118, 165 118.262, 165 119.500 M 103.710 134 C 103.310 135.532, 102.346 136, 99.594 136 L 96 136 96 141 C 96 144.778, 95.633 146, 94.500 146 C 93.667 146, 93 146.889, 93 148 C 93 149.111, 93.667 150, 94.500 150 C 95.325 150, 96 150.675, 96 151.500 C 96 152.548, 97.056 153, 99.500 153 C 101.944 153, 103 152.548, 103 151.500 C 103 150.348, 104.278 150, 108.500 150 L 114 150 114 143 C 114 137.444, 113.690 136, 112.500 136 C 111.667 136, 111 135.111, 111 134 C 111 132.394, 110.333 132, 107.617 132 C 105.074 132, 104.103 132.497, 103.710 134 M 103 162.500 C 103 163.548, 101.944 164, 99.500 164 C 96.083 164, 96 164.095, 96 168 C 96 170.889, 95.583 172, 94.500 172 C 93.452 172, 93 173.056, 93 175.500 C 93 177.944, 93.452 179, 94.500 179 C 95.548 179, 96 180.056, 96 182.500 C 96 185.333, 96.381 186, 98 186 C 99.100 186, 100 185.345, 100 184.545 C 100 183.675, 101.405 182.827, 103.500 182.434 C 105.505 182.058, 107 181.184, 107 180.389 C 107 179.468, 108.180 179, 110.500 179 L 114 179 114 170 L 114 161 108.500 161 C 104.278 161, 103 161.348, 103 162.500" stroke="none" fill="black" fill-rule="evenodd"/>
</svg>