<svg xmlns="http://www.w3.org/2000/svg" width="300" height="300" viewBox="0 0 300 300" version="1.1">
	<path d="M 210 60.383 C 210 61.144, 209.100 62.002, 208 62.290 C 206.194 62.762, 206 63.654, 206 71.500 C 206 79.346, 206.194 80.238, 208 80.710 C 209.879 81.202, 210 82.074, 210 95.117 C 210 106.230, 210.274 109, 211.375 109 C 213.176 109, 214 113.432, 214 123.125 C 214 130.333, 213.831 131, 212 131 C 210.889 131, 210 131.667, 210 132.500 C 210 133.695, 208.524 134.002, 202.750 134.009 C 191.881 134.022, 185 135.042, 185 136.639 C 185 137.657, 183.237 138, 178 138 C 172.727 138, 171 138.339, 171 139.375 C 171 140.746, 166.880 142, 162.375 142 C 160.931 142, 160 142.588, 160 143.500 C 160 144.333, 159.111 145, 158 145 C 156.381 145, 156 144.333, 156 141.500 C 156 139.197, 155.530 138, 154.625 138 C 153.254 138, 152 133.880, 152 129.375 C 152 127.931, 151.412 127, 150.500 127 C 149.667 127, 149 126.111, 149 125 C 149 123.393, 148.333 123, 145.611 123 C 142.527 123, 142.163 123.316, 141.563 126.517 C 141.200 128.451, 141.183 130.487, 141.526 131.041 C 141.868 131.595, 141.854 133.388, 141.495 135.024 C 140.765 138.348, 138 139.119, 138 136 C 138 134.242, 137.333 134, 132.500 134 C 127.667 134, 127 134.242, 127 136 C 127 137.619, 126.333 138, 123.500 138 C 120.667 138, 120 138.381, 120 140 C 120 141.333, 119.333 142, 118 142 C 116.889 142, 116 142.667, 116 143.500 C 116 144.325, 115.325 145, 114.500 145 C 113.667 145, 113 145.889, 113 147 C 113 148.333, 112.333 149, 111 149 C 109.889 149, 109 149.667, 109 150.500 C 109 151.325, 108.325 152, 107.500 152 C 106.667 152, 106 152.889, 106 154 C 106 155.333, 105.333 156, 104 156 C 102.667 156, 102 156.667, 102 158 C 102 159.333, 101.333 160, 100 160 C 98.889 160, 98 160.667, 98 161.500 C 98 162.548, 96.944 163, 94.500 163 C 91.667 163, 91 163.381, 91 165 C 91 166.111, 90.333 167, 89.500 167 C 88.667 167, 88 167.889, 88 169 C 88 170.111, 88.667 171, 89.500 171 C 90.325 171, 91 171.675, 91 172.500 C 91 173.753, 93.056 174, 103.500 174 C 113.708 174, 116 174.264, 116 175.439 C 116 177.343, 122.176 178.205, 133 177.810 L 141.500 177.500 141.500 174 L 141.500 170.500 132.250 170.212 C 124.931 169.985, 123 169.620, 123 168.462 C 123 167.318, 121.476 167, 116 167 L 109 167 109 163.500 C 109 160.667, 109.381 160, 111 160 C 112.333 160, 113 159.333, 113 158 C 113 156.667, 113.667 156, 115 156 C 116.111 156, 117 155.333, 117 154.500 C 117 153.675, 117.675 153, 118.500 153 C 119.333 153, 120 152.111, 120 151 C 120 149.667, 120.667 149, 122 149 C 123.333 149, 124 148.333, 124 147 C 124 145.381, 124.667 145, 127.500 145 C 129.944 145, 131 144.548, 131 143.500 C 131 142.452, 132.056 142, 134.500 142 C 136.944 142, 138 142.452, 138 143.500 C 138 144.325, 138.675 145, 139.500 145 C 140.325 145, 141 144.325, 141 143.500 C 141 142.667, 141.889 142, 143 142 C 144.100 142, 145 142.653, 145 143.450 C 145 144.248, 145.755 145.323, 146.678 145.840 C 147.873 146.509, 148.484 148.539, 148.798 152.889 C 149.095 156.989, 149.666 159, 150.532 159 C 151.260 159, 152.119 160.746, 152.500 163 C 152.915 165.459, 153.720 167, 154.588 167 C 155.535 167, 156 168.152, 156 170.500 C 156 172.944, 156.452 174, 157.500 174 C 158.575 174, 159 175.097, 159 177.875 C 159 183.772, 160.096 188, 161.625 188 C 162.381 188, 163 188.900, 163 190 C 163 191.100, 163.655 192, 164.455 192 C 165.325 192, 166.173 193.405, 166.566 195.500 C 167.220 198.986, 167.245 199, 172.611 199 C 176.735 199, 178 198.648, 178 197.500 C 178 196.675, 178.675 196, 179.500 196 C 180.333 196, 181 195.111, 181 194 C 181 192.381, 180.333 192, 177.500 192 C 175.187 192, 174 191.531, 174 190.617 C 174 189.856, 173.100 188.998, 172 188.710 C 170.468 188.310, 170 187.346, 170 184.594 C 170 182.066, 169.555 181, 168.500 181 C 167.289 181, 166.997 179.411, 166.986 172.750 C 166.971 163.196, 166.318 160, 164.383 160 C 163.462 160, 163 158.799, 163 156.406 C 163 153.654, 163.468 152.690, 165 152.290 C 166.100 152.002, 167 151.144, 167 150.383 C 167 149.387, 168.423 149, 172.094 149 C 176.346 149, 177.274 148.670, 177.710 147 C 178.184 145.189, 179.074 145, 187.117 145 C 194.346 145, 196 144.721, 196 143.500 C 196 142.262, 197.833 142, 206.500 142 L 217 142 217 158 L 217 174 195.500 174 L 174 174 174 179.500 L 174 185 177.500 185 C 179.944 185, 181 185.452, 181 186.500 C 181 187.548, 182.056 188, 184.500 188 C 186.944 188, 188 187.548, 188 186.500 C 188 185.244, 190.111 185, 201 185 L 214 185 214 190.094 C 214 194.346, 213.670 195.274, 212 195.710 C 210.244 196.169, 210 197.074, 210 203.117 L 210 210 204.500 210 C 200.455 210, 199 210.370, 199 211.399 C 199 212.396, 196.995 212.998, 192 213.500 L 185 214.203 185 219.013 L 185 223.822 191.250 224.165 C 201.727 224.739, 210 223.953, 210 222.384 C 210 221.373, 211.484 221, 215.500 221 C 219.516 221, 221 220.627, 221 219.617 C 221 218.041, 224 217.034, 228.750 217.014 C 230.966 217.004, 232 216.523, 232 215.500 C 232 214.363, 233.233 214, 237.094 214 C 241.346 214, 242.274 213.670, 242.710 212 C 243.103 210.497, 244.074 210, 246.617 210 C 248.664 210, 249.995 210.494, 249.986 211.250 C 249.955 214.160, 248.669 217, 247.383 217 C 246.623 217, 246 217.900, 246 219 C 246 220.100, 245.345 221, 244.545 221 C 243.675 221, 242.827 222.405, 242.434 224.500 C 241.837 227.682, 241.470 228, 238.389 228 C 235.183 228, 235 228.189, 235 231.500 C 235 234.917, 235.095 235, 239 235 C 241.889 235, 243 234.583, 243 233.500 C 243 232.675, 243.675 232, 244.500 232 C 245.333 232, 246 231.111, 246 230 C 246 228.381, 246.667 228, 249.500 228 C 252.833 228, 253 227.833, 253 224.500 C 253 221.667, 253.381 221, 255 221 C 256.619 221, 257 220.333, 257 217.500 C 257 215.056, 257.452 214, 258.500 214 C 259.333 214, 260 213.111, 260 212 C 260 210.667, 260.667 210, 262 210 C 263.727 210, 264 209.333, 264 205.117 C 264 201.074, 264.344 200.143, 266 199.710 C 267.532 199.310, 268 198.346, 268 195.594 C 268 193.066, 268.445 192, 269.500 192 C 270.652 192, 271 190.722, 271 186.500 C 271 182.484, 271.373 181, 272.383 181 C 274.603 181, 274.972 177.631, 274.986 157.250 C 275 138.662, 274.931 138, 273 138 C 271.393 138, 271 137.333, 271 134.611 C 271 131.530, 270.682 131.163, 267.500 130.566 C 265.575 130.205, 264 129.480, 264 128.955 C 264 128.430, 260.850 128, 257 128 C 253 128, 250 128.429, 250 129 C 250 129.550, 249.100 130, 248 130 C 246.900 130, 246 129.550, 246 129 C 246 127.549, 242.243 127.770, 241.751 129.250 C 241.462 130.118, 238.763 130.500, 232.918 130.500 L 224.500 130.500 224.211 121.750 C 223.992 115.125, 223.588 113, 222.545 113 C 221.470 113, 221.094 110.353, 220.834 100.928 C 220.545 90.469, 220.255 88.719, 218.667 87.832 C 217.233 87.031, 216.887 85.793, 217.081 82.154 C 217.217 79.594, 217.254 74.013, 217.164 69.750 C 217.015 62.721, 216.814 62, 215 62 C 213.889 62, 213 61.333, 213 60.500 C 213 59.675, 212.325 59, 211.500 59 C 210.675 59, 210 59.623, 210 60.383 M 77.352 69.716 C 74.036 70.133, 73.040 71.862, 73.014 77.250 C 73 79.989, 73.027 80, 80 80 C 85.556 80, 87 79.690, 87 78.500 C 87 77.567, 87.944 77, 89.500 77 C 91.056 77, 92 77.567, 92 78.500 C 92 79.487, 92.988 80, 94.889 80 C 97.382 80, 97.865 80.465, 98.415 83.398 C 98.891 85.933, 99.692 86.957, 101.572 87.429 C 105.271 88.357, 106 87.438, 106 81.847 C 106 77.654, 105.666 76.725, 104 76.290 C 102.900 76.002, 102 75.144, 102 74.383 C 102 73.623, 101.325 73, 100.500 73 C 99.675 73, 99 72.389, 99 71.642 C 99 69.592, 86.901 68.515, 77.352 69.716 M 105.212 92.585 C 104.529 93.806, 101.987 94.300, 94.162 94.731 C 86.556 95.150, 84 95.632, 84 96.645 C 84 97.405, 82.956 98, 81.625 98 C 77.120 98, 73 99.254, 73 100.625 C 73 101.625, 71.500 102, 67.500 102 C 63.354 102, 62 102.358, 62 103.455 C 62 104.325, 60.595 105.173, 58.500 105.566 C 56.575 105.927, 55 106.795, 55 107.495 C 55 108.194, 54.057 109.013, 52.905 109.314 C 51.111 109.784, 50.913 110.338, 51.522 113.181 C 51.914 115.007, 52.371 116.652, 52.538 116.838 C 52.706 117.024, 55.803 116.859, 59.421 116.472 C 64.017 115.979, 66 115.350, 66 114.384 C 66 113.469, 67.187 113, 69.500 113 C 72.333 113, 73 112.619, 73 111 C 73 109.333, 73.667 109, 77 109 C 79.889 109, 81 108.583, 81 107.500 C 81 106.363, 82.233 106, 86.094 106 C 90.346 106, 91.274 105.670, 91.710 104 C 92.169 102.244, 93.074 102, 99.117 102 C 104.569 102, 106 101.688, 106 100.500 C 106 99.452, 107.056 99, 109.500 99 C 112.691 99, 113 99.255, 113 101.883 C 113 103.926, 112.417 104.919, 111 105.290 C 109.803 105.603, 109 106.654, 109 107.906 C 109 109.058, 108.361 110, 107.579 110 C 106.798 110, 105.862 111.350, 105.500 113 C 105.138 114.650, 104.202 116, 103.421 116 C 102.464 116, 102 117.143, 102 119.500 C 102 122.036, 101.561 123, 100.406 123 C 99.530 123, 98.577 123.900, 98.290 125 C 98.002 126.100, 97.194 127, 96.495 127 C 95.795 127, 94.927 128.575, 94.566 130.500 C 94.173 132.595, 93.325 134, 92.455 134 C 91.655 134, 91 134.900, 91 136 C 91 137.111, 90.333 138, 89.500 138 C 88.675 138, 88 138.717, 88 139.594 C 88 140.470, 87.100 141.423, 86 141.710 C 84.900 141.998, 84 142.803, 84 143.500 C 84 144.197, 83.100 145.002, 82 145.290 C 80.900 145.577, 80 146.530, 80 147.406 C 80 148.283, 79.375 149, 78.611 149 C 77.816 149, 76.942 150.495, 76.566 152.500 C 76.173 154.595, 75.325 156, 74.455 156 C 73.655 156, 73 156.675, 73 157.500 C 73 158.325, 72.283 159, 71.406 159 C 70.530 159, 69.577 159.900, 69.290 161 C 69.002 162.100, 68.144 163, 67.383 163 C 66.623 163, 66 163.900, 66 165 C 66 166.100, 65.377 167, 64.617 167 C 63.856 167, 62.998 167.900, 62.710 169 C 62.423 170.100, 61.470 171, 60.594 171 C 59.490 171, 59 171.922, 59 174 C 59 176.333, 58.556 177, 57 177 C 55.667 177, 55 177.667, 55 179 C 55 180.111, 54.333 181, 53.500 181 C 52.667 181, 52 181.889, 52 183 C 52 184.333, 51.333 185, 50 185 C 48.381 185, 48 185.667, 48 188.500 C 48 191.333, 47.619 192, 46 192 C 44.667 192, 44 192.667, 44 194 C 44 195.111, 43.333 196, 42.500 196 C 41.675 196, 41 196.575, 41 197.278 C 41 197.981, 40.100 199.326, 39 200.268 C 37.900 201.210, 37 203.110, 37 204.490 C 37 206.054, 36.435 207, 35.500 207 C 34.675 207, 34 207.675, 34 208.500 C 34 209.333, 33.111 210, 32 210 C 30.333 210, 30 210.667, 30 214 C 30 216.739, 29.564 218, 28.617 218 C 27.101 218, 26.035 220.968, 26.014 225.250 C 26 227.989, 26.027 228, 33 228 C 38.404 228, 40 227.674, 40 226.570 C 40 225.783, 41.013 224.995, 42.250 224.820 C 44.057 224.563, 44.561 223.762, 44.810 220.750 C 45.078 217.513, 44.835 217, 43.029 217 C 41.879 217, 40.678 217.675, 40.362 218.500 C 39.386 221.041, 38 220.161, 38 217 C 38 215, 38.500 214, 39.500 214 C 40.333 214, 41 213.111, 41 212 C 41 210.900, 41.655 210, 42.455 210 C 43.325 210, 44.173 208.595, 44.566 206.500 C 44.942 204.495, 45.816 203, 46.611 203 C 47.375 203, 48 202.100, 48 201 C 48 199.667, 48.667 199, 50 199 C 51.333 199, 52 198.333, 52 197 C 52 195.900, 52.639 195, 53.421 195 C 54.202 195, 55.138 193.650, 55.500 192 C 55.862 190.350, 56.798 189, 57.579 189 C 58.361 189, 59 188.100, 59 187 C 59 185.889, 59.667 185, 60.500 185 C 61.333 185, 62 184.111, 62 183 C 62 181.667, 62.667 181, 64 181 C 65.619 181, 66 180.333, 66 177.500 C 66 174.667, 66.381 174, 68 174 C 69.111 174, 70 173.333, 70 172.500 C 70 171.675, 70.675 171, 71.500 171 C 72.333 171, 73 170.111, 73 169 C 73 167.667, 73.667 167, 75 167 C 76.333 167, 77 166.333, 77 165 C 77 163.900, 77.623 163, 78.383 163 C 79.144 163, 80.002 162.100, 80.290 161 C 80.577 159.900, 81.530 159, 82.406 159 C 83.283 159, 84 158.325, 84 157.500 C 84 156.675, 84.625 156, 85.389 156 C 86.184 156, 87.058 154.505, 87.434 152.500 C 87.827 150.405, 88.675 149, 89.545 149 C 90.345 149, 91 148.283, 91 147.406 C 91 146.530, 91.900 145.577, 93 145.290 C 94.107 145, 95 143.926, 95 142.883 C 95 141.848, 95.675 141, 96.500 141 C 97.325 141, 98 140.325, 98 139.500 C 98 138.667, 98.889 138, 100 138 C 101.619 138, 102 137.333, 102 134.500 C 102 131.667, 102.381 131, 104 131 C 105.333 131, 106 130.333, 106 129 C 106 127.900, 106.625 127, 107.389 127 C 108.184 127, 109.058 125.505, 109.434 123.500 C 109.827 121.405, 110.675 120, 111.545 120 C 112.345 120, 113 119.325, 113 118.500 C 113 117.675, 113.625 117, 114.389 117 C 115.184 117, 116.058 115.505, 116.434 113.500 C 116.827 111.405, 117.675 110, 118.545 110 C 119.430 110, 120 109.021, 120 107.500 C 120 105.944, 120.567 105, 121.500 105 C 122.325 105, 123 104.325, 123 103.500 C 123 102.675, 123.850 102, 124.889 102 C 126.255 102, 126.959 101.033, 127.434 98.500 C 127.795 96.575, 128.520 95, 129.045 95 C 130.625 95, 130.119 92.260, 128.418 91.607 C 127.548 91.273, 122.171 91, 116.468 91 C 108.043 91, 105.933 91.297, 105.212 92.585 M 228 140 C 228 141.100, 227.377 142, 226.615 142 C 224.814 142, 223.782 150.141, 224.042 162.295 C 224.337 176.106, 224.550 176.825, 228.572 177.580 L 232 178.223 232 187.111 C 232 195.333, 231.850 196, 230 196 C 228.381 196, 228 196.667, 228 199.500 C 228 202.375, 227.630 203, 225.927 203 C 224.490 203, 223.957 203.538, 224.190 204.750 C 224.376 205.713, 225.309 206.463, 226.264 206.417 C 227.219 206.371, 230.250 206.258, 233 206.167 C 236.704 206.043, 238 205.611, 238 204.500 C 238 203.300, 239.500 203, 245.500 203 C 251.696 203, 253 202.723, 253 201.406 C 253 200.530, 253.900 199.577, 255 199.290 C 256.107 199, 257 197.926, 257 196.883 C 257 195.848, 257.675 195, 258.500 195 C 259.633 195, 260 193.778, 260 190 C 260 185.667, 260.267 185, 262 185 C 263.822 185, 264 184.333, 264 177.500 C 264 171.500, 264.300 170, 265.500 170 C 266.738 170, 267 168.167, 267 159.500 C 267 150.833, 266.738 149, 265.500 149 C 264.348 149, 264 147.722, 264 143.500 L 264 138 246 138 C 228.667 138, 228 138.074, 228 140 M 74 177.500 C 74 179.944, 74.452 181, 75.500 181 C 76.333 181, 77 181.889, 77 183 C 77 184.111, 77.667 185, 78.500 185 C 79.548 185, 80 186.056, 80 188.500 C 80 191.333, 80.381 192, 82 192 C 83.733 192, 84 192.667, 84 197 C 84 200.576, 84.392 202, 85.375 202 C 86.804 202, 88 206.159, 88 211.125 C 88 213.014, 88.514 214, 89.500 214 C 90.690 214, 91 215.444, 91 221 C 91 227.333, 91.190 228, 93 228 C 94.758 228, 95 228.667, 95 233.500 L 95 239 100.500 239 C 105.333 239, 106 238.758, 106 237 C 106 235.889, 106.667 235, 107.500 235 C 108.325 235, 109 234.377, 109 233.617 C 109 232.856, 109.900 231.998, 111 231.710 C 112.100 231.423, 113 230.470, 113 229.594 C 113 228.329, 111.866 228, 107.500 228 C 102.667 228, 102 227.758, 102 226 C 102 224.889, 101.333 224, 100.500 224 C 99.337 224, 99 222.681, 99 218.125 C 99 210.342, 98.060 206, 96.375 206 C 95.388 206, 95 204.562, 95 200.906 C 95 196.654, 94.670 195.726, 93 195.290 C 91.344 194.857, 91 193.926, 91 189.883 C 91 186.209, 90.629 185, 89.500 185 C 88.452 185, 88 183.944, 88 181.500 C 88 178.667, 87.619 178, 86 178 C 84.667 178, 84 177.333, 84 176 C 84 174.267, 83.333 174, 79 174 L 74 174 74 177.500 M 220.833 190.500 C 220.742 193.525, 220.629 196.781, 220.583 197.736 C 220.537 198.691, 221.228 199.613, 222.118 199.784 C 223.390 200.029, 223.841 199.009, 224.224 195.020 C 224.837 188.641, 224.168 185, 222.383 185 C 221.393 185, 220.953 186.564, 220.833 190.500" stroke="none" fill="black" fill-rule="evenodd"/>
</svg>