<svg xmlns="http://www.w3.org/2000/svg" width="300" height="300" viewBox="0 0 300 300" version="1.1">
	<path d="M 117 74.594 C 117 75.470, 116.100 76.423, 115 76.710 C 113.900 76.998, 113 77.856, 113 78.617 C 113 79.377, 112.100 80, 111 80 C 109.667 80, 109 80.667, 109 82 C 109 83.100, 108.375 84, 107.611 84 C 106.816 84, 105.942 85.495, 105.566 87.500 C 105.173 89.595, 104.325 91, 103.455 91 C 102.468 91, 102 92.089, 102 94.383 C 102 96.926, 101.503 97.897, 100 98.290 C 98.544 98.671, 98 99.654, 98 101.906 C 98 103.879, 97.497 105, 96.611 105 C 95.823 105, 94.946 106.473, 94.584 108.403 C 94.233 110.275, 93.283 112.061, 92.473 112.372 C 91.560 112.722, 91 114.281, 91 116.469 C 91 118.892, 90.544 120, 89.545 120 C 88.675 120, 87.827 121.405, 87.434 123.500 C 87.058 125.505, 86.184 127, 85.389 127 C 84.625 127, 84 127.900, 84 129 C 84 130.100, 83.345 131, 82.545 131 C 81.683 131, 80.831 132.384, 80.453 134.400 C 79.169 141.241, 80.759 142.831, 87.600 141.547 C 89.616 141.169, 91 140.317, 91 139.455 C 91 138.641, 91.930 138, 93.111 138 C 94.983 138, 95.148 137.602, 94.566 134.500 C 93.728 130.033, 94.839 124, 96.500 124 C 97.203 124, 98.073 122.425, 98.434 120.500 C 98.827 118.405, 99.675 117, 100.545 117 C 101.532 117, 102 115.911, 102 113.617 C 102 111.074, 102.497 110.103, 104 109.710 C 105.532 109.310, 106 108.346, 106 105.594 C 106 103.194, 106.461 102, 107.389 102 C 108.184 102, 109.058 100.505, 109.434 98.500 C 109.827 96.405, 110.675 95, 111.545 95 C 112.345 95, 113 94.100, 113 93 C 113 91.900, 113.623 91, 114.383 91 C 115.144 91, 116.002 90.100, 116.290 89 C 116.577 87.900, 117.530 87, 118.406 87 C 119.283 87, 120 86.325, 120 85.500 C 120 84.675, 120.647 84, 121.439 84 C 123.007 84, 124.711 75.960, 123.544 74.071 C 122.457 72.312, 117 72.748, 117 74.594 M 174 96.500 C 174 97.548, 172.944 98, 170.500 98 C 167.667 98, 167 98.381, 167 100 C 167 101.333, 166.333 102, 165 102 C 162.910 102, 162.624 102.993, 163.630 106.750 C 164.151 108.694, 164.898 109, 169.117 109 C 172.791 109, 174 108.629, 174 107.500 C 174 106.675, 174.675 106, 175.500 106 C 176.325 106, 177 106.675, 177 107.500 C 177 108.333, 177.889 109, 179 109 C 180.111 109, 181 108.333, 181 107.500 C 181 106.417, 182.111 106, 185 106 C 187.889 106, 189 106.417, 189 107.500 C 189 108.690, 190.444 109, 196 109 C 201.459 109, 203 109.320, 203 110.455 C 203 111.325, 204.405 112.173, 206.500 112.566 C 210.231 113.266, 211.425 116, 208 116 C 206.667 116, 206 116.667, 206 118 C 206 119.810, 205.333 120, 199 120 C 192.667 120, 192 119.810, 192 118 C 192 116.242, 191.333 116, 186.500 116 C 181.667 116, 181 116.242, 181 118 C 181 119.333, 180.333 120, 179 120 C 177.889 120, 177 120.667, 177 121.500 C 177 122.325, 176.325 123, 175.500 123 C 174.667 123, 174 123.889, 174 125 C 174 126.100, 173.377 127, 172.617 127 C 171.856 127, 170.998 127.900, 170.710 129 C 170.423 130.100, 169.470 131, 168.594 131 C 167.439 131, 167 131.964, 167 134.500 C 167 137.333, 166.619 138, 165 138 C 163.900 138, 163 138.623, 163 139.383 C 163 140.144, 162.100 141.002, 161 141.290 C 159.900 141.577, 159 142.530, 159 143.406 C 159 144.283, 158.325 145, 157.500 145 C 156.452 145, 156 146.056, 156 148.500 C 156 151.333, 155.619 152, 154 152 C 152.667 152, 152 152.667, 152 154 C 152 155.111, 151.333 156, 150.500 156 C 149.452 156, 149 157.056, 149 159.500 C 149 162.333, 148.619 163, 147 163 C 145.667 163, 145 163.667, 145 165 C 145 166.100, 144.375 167, 143.611 167 C 142.816 167, 141.942 168.495, 141.566 170.500 C 141.173 172.595, 140.325 174, 139.455 174 C 138.459 174, 138 175.104, 138 177.500 C 138 179.944, 137.548 181, 136.500 181 C 135.675 181, 135 180.325, 135 179.500 C 135 178.644, 134.101 178, 132.906 178 C 131.654 178, 130.603 177.197, 130.290 176 C 129.919 174.583, 128.926 174, 126.883 174 C 124.667 174, 124 173.538, 124 172 C 124 170.667, 123.333 170, 122 170 C 120.889 170, 120 169.333, 120 168.500 C 120 167.675, 119.375 167, 118.611 167 C 117.816 167, 116.942 165.505, 116.566 163.500 C 116.173 161.405, 115.325 160, 114.455 160 C 113.655 160, 113 159.100, 113 158 C 113 156.900, 112.377 156, 111.617 156 C 110.856 156, 109.991 155.075, 109.696 153.945 C 109.225 152.144, 108.500 151.928, 103.839 152.195 C 97.949 152.533, 97.294 153.422, 98.439 159.527 C 98.935 162.170, 99.661 162.986, 101.967 163.493 C 104.138 163.970, 105.032 164.870, 105.514 167.065 C 105.869 168.679, 106.798 170, 107.579 170 C 108.361 170, 109 170.900, 109 172 C 109 173.333, 109.667 174, 111 174 C 112.100 174, 113 174.655, 113 175.455 C 113 176.325, 114.405 177.173, 116.500 177.566 C 118.505 177.942, 120 178.816, 120 179.611 C 120 180.375, 120.675 181, 121.500 181 C 122.333 181, 123 181.889, 123 183 C 123 184.619, 123.667 185, 126.500 185 C 129.833 185, 130 185.167, 130 188.500 C 130 190.944, 129.548 192, 128.500 192 C 127.667 192, 127 192.889, 127 194 C 127 195.111, 126.333 196, 125.500 196 C 124.675 196, 124 196.717, 124 197.594 C 124 198.470, 123.100 199.423, 122 199.710 C 120.583 200.081, 120 201.074, 120 203.117 C 120 205.333, 119.538 206, 118 206 C 116.667 206, 116 206.667, 116 208 C 116 209.111, 115.333 210, 114.500 210 C 113.675 210, 113 210.623, 113 211.383 C 113 212.144, 112.100 213.002, 111 213.290 C 109.900 213.577, 109 214.530, 109 215.406 C 109 216.333, 108.163 217, 107 217 C 105.889 217, 105 217.667, 105 218.500 C 105 219.325, 104.325 220, 103.500 220 C 102.417 220, 102 221.111, 102 224 C 102 227.905, 102.083 228, 105.500 228 C 108.333 228, 109 227.619, 109 226 C 109 224.667, 109.667 224, 111 224 C 112.111 224, 113 223.333, 113 222.500 C 113 221.675, 113.675 221, 114.500 221 C 115.333 221, 116 220.111, 116 219 C 116 217.667, 116.667 217, 118 217 C 119.333 217, 120 216.333, 120 215 C 120 213.889, 120.667 213, 121.500 213 C 122.325 213, 123 212.325, 123 211.500 C 123 210.667, 123.889 210, 125 210 C 126.333 210, 127 209.333, 127 208 C 127 206.667, 127.667 206, 129 206 C 130.619 206, 131 205.333, 131 202.500 C 131 200.056, 131.452 199, 132.500 199 C 133.325 199, 134 198.377, 134 197.617 C 134 195.817, 138.287 195.026, 144.250 195.723 C 147.317 196.082, 149 196.761, 149 197.639 C 149 198.528, 150.215 199, 152.500 199 C 155.333 199, 156 199.381, 156 201 C 156 202.667, 156.667 203, 160 203 C 162.722 203, 164 203.438, 164 204.371 C 164 205.261, 165.754 205.975, 169 206.406 C 172.424 206.860, 174 207.531, 174 208.534 C 174 209.578, 175.153 210, 178 210 C 180.834 210, 182 210.424, 182 211.455 C 182 212.325, 183.405 213.173, 185.500 213.566 C 187.505 213.942, 189 214.816, 189 215.611 C 189 216.611, 190.400 217, 194 217 C 198.333 217, 199 217.267, 199 219 C 199 220.758, 199.667 221, 204.500 221 C 208.526 221, 210 221.372, 210 222.389 C 210 224.154, 215.884 225.300, 220.500 224.434 C 223.682 223.837, 224 223.470, 224 220.389 L 224 217 218.500 217 C 214.507 217, 213 216.624, 213 215.629 C 213 214.739, 211.246 214.025, 208 213.594 C 204.576 213.140, 203 212.469, 203 211.466 C 203 210.422, 201.847 210, 199 210 C 196.166 210, 195 209.576, 195 208.545 C 195 207.675, 193.595 206.827, 191.500 206.434 C 189.495 206.058, 188 205.184, 188 204.389 C 188 203.544, 186.923 202.995, 185.250 202.986 C 180.968 202.965, 178 201.899, 178 200.383 C 178 199.469, 176.813 199, 174.500 199 C 172.152 199, 171 198.535, 171 197.588 C 171 196.720, 169.459 195.915, 167 195.500 C 164.541 195.085, 163 194.280, 163 193.412 C 163 192.465, 161.848 192, 159.500 192 C 157.187 192, 156 191.531, 156 190.617 C 156 189.114, 153.039 188.035, 148.858 188.014 C 146.880 188.003, 146.059 187.372, 145.589 185.500 C 144.753 182.169, 145.876 178, 147.608 178 C 148.374 178, 149 177.100, 149 176 C 149 174.900, 149.625 174, 150.389 174 C 151.184 174, 152.058 172.505, 152.434 170.500 C 152.827 168.405, 153.675 167, 154.545 167 C 155.541 167, 156 165.896, 156 163.500 C 156 160.667, 156.381 160, 158 160 C 159.333 160, 160 159.333, 160 158 C 160 156.889, 160.667 156, 161.500 156 C 162.333 156, 163 155.111, 163 154 C 163 152.900, 163.655 152, 164.455 152 C 165.325 152, 166.173 150.595, 166.566 148.500 C 166.942 146.495, 167.816 145, 168.611 145 C 169.375 145, 170 144.325, 170 143.500 C 170 142.667, 170.889 142, 172 142 C 173.333 142, 174 141.333, 174 140 C 174 138.900, 174.655 138, 175.455 138 C 176.325 138, 177.173 136.595, 177.566 134.500 C 177.942 132.495, 178.816 131, 179.611 131 C 180.375 131, 181 130.283, 181 129.406 C 181 128.530, 181.900 127.577, 183 127.290 C 184.100 127.002, 185 126.144, 185 125.383 C 185 124.287, 187.357 124, 196.375 124 C 209.446 124, 214 123.322, 214 121.375 C 214 120.619, 214.675 120, 215.500 120 C 216.652 120, 217 118.722, 217 114.500 C 217 110.474, 216.628 109, 215.611 109 C 214.816 109, 213.942 107.505, 213.566 105.500 C 212.966 102.302, 212.611 102, 209.455 102 C 207.208 102, 206 101.524, 206 100.639 C 206 98.973, 199.031 98.021, 186.750 98.009 C 179.643 98.002, 178 97.718, 178 96.500 C 178 95.667, 177.111 95, 176 95 C 174.889 95, 174 95.667, 174 96.500" stroke="none" fill="black" fill-rule="evenodd"/>
</svg>