<svg xmlns="http://www.w3.org/2000/svg" width="300" height="300" viewBox="0 0 300 300" version="1.1">
	<path d="M 174 54.500 C 174 55.325, 173.283 56, 172.406 56 C 171.530 56, 170.577 56.900, 170.290 58 C 170.002 59.100, 169.144 60, 168.383 60 C 167.623 60, 167 60.900, 167 62 C 167 63.100, 166.345 64, 165.545 64 C 164.675 64, 163.827 65.405, 163.434 67.500 C 163.071 69.437, 162.178 71, 161.434 71 C 160.690 71, 159.797 72.563, 159.434 74.500 C 159.058 76.505, 158.184 78, 157.389 78 C 156.625 78, 156 78.900, 156 80 C 156 81.100, 155.345 82, 154.545 82 C 153.675 82, 152.827 83.405, 152.434 85.500 C 152.073 87.425, 151.211 89, 150.519 89 C 149.767 89, 149.054 90.831, 148.747 93.549 C 148.465 96.052, 147.979 98.354, 147.667 98.667 C 147.354 98.979, 145.052 99.465, 142.549 99.747 C 138.414 100.213, 138 100.066, 138 98.130 C 138 96.926, 137.363 96, 136.534 96 C 135.531 96, 134.860 94.424, 134.406 91 C 133.975 87.754, 133.261 86, 132.371 86 C 131.375 86, 131 84.488, 131 80.469 C 131 76.520, 130.579 74.776, 129.527 74.372 C 128.717 74.061, 127.767 72.275, 127.416 70.403 C 127.065 68.532, 126.205 67, 125.505 67 C 124.806 67, 123.998 66.100, 123.710 65 C 123.341 63.587, 122.353 63.004, 120.344 63.014 C 114.770 63.040, 113 64.029, 113 67.117 C 113 69.013, 113.513 70, 114.500 70 C 115.583 70, 116 71.111, 116 74 C 116 77.333, 116.333 78, 118 78 C 119.619 78, 120 78.667, 120 81.500 C 120 83.820, 120.468 85, 121.389 85 C 122.184 85, 123.058 86.495, 123.434 88.500 C 123.827 90.595, 124.675 92, 125.545 92 C 126.345 92, 127 92.900, 127 94 C 127 95.100, 127.655 96, 128.455 96 C 129.325 96, 130.173 97.405, 130.566 99.500 C 130.942 101.505, 131.816 103, 132.611 103 C 133.375 103, 134 103.900, 134 105 C 134 106.333, 134.667 107, 136 107 C 137.619 107, 138 107.667, 138 110.500 C 138 112.813, 137.531 114, 136.617 114 C 134.607 114, 134.027 117.248, 134.027 128.500 C 134.027 139.752, 134.607 143, 136.617 143 C 137.377 143, 138 143.900, 138 145 C 138 146.100, 137.345 147, 136.545 147 C 135.675 147, 134.827 148.405, 134.434 150.500 C 133.596 154.965, 131.414 155.020, 130.584 150.597 C 130.233 148.725, 129.283 146.939, 128.473 146.628 C 127.284 146.172, 127 143.639, 127 133.479 L 127 120.895 121.750 121.198 L 116.500 121.500 116.171 126.500 C 115.611 134.997, 116.973 146, 118.585 146 C 119.569 146, 120 147.218, 120 150 C 120 152.834, 120.424 154, 121.455 154 C 122.325 154, 123.173 155.405, 123.566 157.500 C 123.942 159.505, 124.816 161, 125.611 161 C 126.375 161, 127 161.619, 127 162.375 C 127 164.016, 131.410 165.046, 135.250 164.300 C 137.552 163.854, 138 164.112, 138 165.883 C 138 167.636, 137.398 168, 134.500 168 C 132.152 168, 131 168.465, 131 169.412 C 131 170.280, 129.459 171.085, 127 171.500 C 124.541 171.915, 123 172.720, 123 173.588 C 123 174.458, 121.945 175.005, 120.250 175.014 C 115.968 175.035, 113 176.101, 113 177.617 C 113 178.564, 111.739 179, 109 179 C 106.111 179, 105 179.417, 105 180.500 C 105 181.325, 104.325 182, 103.500 182 C 102.667 182, 102 182.889, 102 184 C 102 185.111, 101.333 186, 100.500 186 C 98.146 186, 98.747 188.699, 101.250 189.370 C 102.487 189.701, 106.313 189.979, 109.750 189.986 C 115.338 189.999, 116 189.788, 116 188 C 116 186.333, 116.667 186, 120 186 C 122.834 186, 124 185.576, 124 184.545 C 124 183.675, 125.405 182.827, 127.500 182.434 C 129.425 182.073, 131 181.203, 131 180.500 C 131 179.797, 132.575 178.927, 134.500 178.566 C 136.595 178.173, 138 177.325, 138 176.455 C 138 175.459, 139.104 175, 141.500 175 C 143.944 175, 145 174.548, 145 173.500 C 145 172.667, 145.889 172, 147 172 C 148.333 172, 149 171.333, 149 170 C 149 168.381, 149.667 168, 152.500 168 C 155.333 168, 156 168.381, 156 170 C 156 171.111, 155.333 172, 154.500 172 C 153.675 172, 153 172.675, 153 173.500 C 153 174.333, 152.111 175, 151 175 C 149.667 175, 149 175.667, 149 177 C 149 178.333, 148.333 179, 147 179 C 145.381 179, 145 179.667, 145 182.500 C 145 185.333, 144.619 186, 143 186 C 141.667 186, 141 186.667, 141 188 C 141 189.111, 140.333 190, 139.500 190 C 138.675 190, 138 190.675, 138 191.500 C 138 192.325, 137.377 193, 136.617 193 C 135.856 193, 134.998 193.900, 134.710 195 C 134.423 196.100, 133.520 197, 132.705 197 C 131.803 197, 130.966 198.369, 130.566 200.500 C 130.173 202.595, 129.325 204, 128.455 204 C 127.655 204, 127 204.675, 127 205.500 C 127 206.325, 126.325 207, 125.500 207 C 124.644 207, 124 207.899, 124 209.094 C 124 210.346, 123.197 211.397, 122 211.710 C 120.608 212.074, 120 213.074, 120 215 C 120 216.926, 119.392 217.926, 118 218.290 C 116.544 218.671, 116 219.654, 116 221.906 C 116 223.990, 115.510 225, 114.500 225 C 113.675 225, 113 225.848, 113 226.883 C 113 227.926, 112.107 229, 111 229.290 C 109.330 229.726, 109 230.654, 109 234.906 C 109 238.767, 108.637 240, 107.500 240 C 106.667 240, 106 240.889, 106 242 C 106 243.111, 106.667 244, 107.500 244 C 108.325 244, 109 244.675, 109 245.500 C 109 246.537, 110.042 247, 112.375 247 C 115.355 247, 115.823 246.634, 116.375 243.875 C 116.719 242.156, 117 239.681, 117 238.375 C 117 236.931, 117.588 236, 118.500 236 C 119.548 236, 120 234.944, 120 232.500 C 120 229.667, 120.381 229, 122 229 C 123.619 229, 124 228.333, 124 225.500 C 124 223.056, 124.452 222, 125.500 222 C 126.333 222, 127 221.111, 127 220 C 127 218.667, 127.667 218, 129 218 C 130.619 218, 131 217.333, 131 214.500 C 131 212.056, 131.452 211, 132.500 211 C 133.325 211, 134 210.325, 134 209.500 C 134 208.667, 134.889 208, 136 208 C 137.333 208, 138 207.333, 138 206 C 138 204.900, 138.655 204, 139.455 204 C 140.325 204, 141.173 202.595, 141.566 200.500 C 141.927 198.575, 142.672 197, 143.220 197 C 144.670 197, 148.962 192.717, 148.983 191.250 C 148.992 190.563, 149.717 190, 150.594 190 C 151.470 190, 152.423 189.100, 152.710 188 C 152.998 186.900, 153.856 186, 154.617 186 C 155.377 186, 156 185.100, 156 184 C 156 182.900, 156.639 182, 157.421 182 C 158.202 182, 159.138 180.650, 159.500 179 C 159.862 177.350, 160.798 176, 161.579 176 C 162.361 176, 163 175.100, 163 174 C 163 172.667, 163.667 172, 165 172 C 166.333 172, 167 171.333, 167 170 C 167 168.889, 167.667 168, 168.500 168 C 169.325 168, 170 167.283, 170 166.406 C 170 165.530, 170.900 164.577, 172 164.290 C 173.656 163.857, 174 162.926, 174 158.883 C 174 154.667, 173.727 154, 172 154 C 170.889 154, 170 154.667, 170 155.500 C 170 156.633, 168.778 157, 165 157 C 161.410 157, 160 156.610, 160 155.617 C 160 154.856, 160.900 153.998, 162 153.710 C 163.100 153.423, 164 152.470, 164 151.594 C 164 150.490, 164.922 150, 167 150 C 169.078 150, 170 149.510, 170 148.406 C 170 147.530, 170.900 146.577, 172 146.290 C 173.503 145.897, 174 144.926, 174 142.383 C 174 139.667, 174.394 139, 176 139 C 177.333 139, 178 138.333, 178 137 C 178 135.889, 178.667 135, 179.500 135 C 180.510 135, 181 133.990, 181 131.906 C 181 129.654, 181.544 128.671, 183 128.290 C 184.656 127.857, 185 126.926, 185 122.883 C 185 119.082, 184.647 118, 183.406 118 C 182.530 118, 181.577 117.100, 181.290 116 C 180.816 114.189, 179.926 114, 171.883 114 C 164.654 114, 163 113.721, 163 112.500 C 163 111.675, 162.325 111, 161.500 111 C 160.675 111, 160 111.675, 160 112.500 C 160 113.667, 158.667 114, 154 114 C 149.333 114, 148 114.333, 148 115.500 C 148 116.325, 147.273 117, 146.383 117 C 145.195 117, 144.926 116.404, 145.370 114.750 C 145.701 113.513, 145.979 112.162, 145.986 111.750 C 145.994 111.338, 146.675 111, 147.500 111 C 148.333 111, 149 110.111, 149 109 C 149 107.900, 149.625 107, 150.389 107 C 151.184 107, 152.058 105.505, 152.434 103.500 C 152.827 101.405, 153.675 100, 154.545 100 C 155.532 100, 156 98.911, 156 96.617 C 156 94.074, 156.497 93.103, 158 92.710 C 159.197 92.397, 160 91.346, 160 90.094 C 160 88.899, 160.644 88, 161.500 88 C 162.510 88, 163 86.990, 163 84.906 C 163 82.654, 163.544 81.671, 165 81.290 C 166.392 80.926, 167 79.926, 167 78 C 167 76.074, 167.608 75.074, 169 74.710 C 170.100 74.423, 171 73.470, 171 72.594 C 171 71.717, 171.675 71, 172.500 71 C 173.333 71, 174 70.111, 174 69 C 174 67.667, 174.667 67, 176 67 C 177.111 67, 178 66.333, 178 65.500 C 178 64.675, 178.619 64, 179.375 64 C 181.016 64, 182.046 59.590, 181.300 55.750 C 180.844 53.397, 180.278 53, 177.383 53 C 175.043 53, 174 53.462, 174 54.500 M 33 85 C 33 87, 32.500 88, 31.500 88 C 30.555 88, 30 88.953, 30 90.578 L 30 93.157 40.250 92.830 C 58.999 92.233, 69 92.814, 69 94.500 C 69 95.433, 69.944 96, 71.500 96 C 73.056 96, 74 96.567, 74 97.500 C 74 99.811, 75.693 99.275, 76.370 96.750 C 77.611 92.117, 77.080 88.834, 75 88.290 C 73.900 88.002, 73 87.144, 73 86.383 C 73 85.271, 70.253 85, 59 85 C 47.222 85, 45 84.762, 45 83.500 C 45 82.333, 43.667 82, 39 82 L 33 82 33 85 M 30 115.455 C 30 116.325, 28.595 117.173, 26.500 117.566 C 23.292 118.168, 23 118.514, 23 121.723 L 23 125.223 44.250 124.978 C 72.659 124.651, 73 124.670, 73 126.594 C 73 127.470, 73.900 128.423, 75 128.710 C 76.100 128.998, 77 129.856, 77 130.617 C 77 131.377, 77.635 132, 78.412 132 C 79.280 132, 80.085 130.459, 80.500 128 C 80.915 125.541, 81.720 124, 82.588 124 C 83.365 124, 84 123.550, 84 123 C 84 122.450, 83.283 122, 82.406 122 C 81.530 122, 80.577 121.100, 80.290 120 C 80.002 118.900, 79.102 118, 78.290 118 C 77.477 118, 76.577 117.100, 76.290 116 C 75.786 114.074, 74.926 114, 52.883 114 C 33.526 114, 30 114.224, 30 115.455 M 156 123 C 156 124.733, 155.333 125, 151 125 C 147.092 125, 146 125.348, 146 126.594 C 146 127.470, 145.100 128.423, 144 128.710 C 142.162 129.191, 142 130.074, 142 139.617 C 142 149.333, 141.872 150, 140 150 C 138.889 150, 138 150.667, 138 151.500 C 138 152.325, 138.675 153, 139.500 153 C 140.333 153, 141 153.889, 141 155 C 141 156.111, 140.333 157, 139.500 157 C 138.452 157, 138 158.056, 138 160.500 C 138 163.333, 138.381 164, 140 164 C 141.111 164, 142 163.333, 142 162.500 C 142 161.675, 142.675 161, 143.500 161 C 144.333 161, 145 160.111, 145 159 C 145 157.667, 145.667 157, 147 157 C 148.111 157, 149 156.333, 149 155.500 C 149 154.675, 149.717 154, 150.594 154 C 151.470 154, 152.423 153.100, 152.710 152 C 153.081 150.583, 154.074 150, 156.117 150 C 158.088 150, 159 149.496, 159 148.406 C 159 147.530, 159.900 146.577, 161 146.290 C 162.112 145.999, 163 144.926, 163 143.874 C 163 142.832, 163.900 141.210, 165 140.268 C 166.100 139.326, 167 137.981, 167 137.278 C 167 136.575, 167.675 136, 168.500 136 C 169.333 136, 170 135.111, 170 134 C 170 132.667, 170.667 132, 172 132 C 173.726 132, 174 131.333, 174 127.125 C 174 122.465, 173.862 122.222, 170.875 121.625 C 169.156 121.281, 165.106 121, 161.875 121 C 156.667 121, 156 121.227, 156 123 M 66 140.375 C 66 141.948, 61.741 143, 55.375 143 C 52.262 143, 51 143.410, 51 144.421 C 51 145.202, 49.692 146.128, 48.094 146.479 C 43.859 147.410, 42.514 154, 46.559 154 C 47.352 154, 48 154.675, 48 155.500 C 48 156.548, 49.056 157, 51.500 157 C 53.944 157, 55 156.548, 55 155.500 C 55 154.588, 55.931 154, 57.375 154 C 61.880 154, 66 152.746, 66 151.375 C 66 150.310, 68.030 150, 75 150 C 83.333 150, 84 150.148, 84 152 C 84 154.090, 84.993 154.376, 88.750 153.370 C 90.521 152.895, 91 152.047, 91 149.383 C 91 147.043, 90.538 146, 89.500 146 C 88.675 146, 88 145.325, 88 144.500 C 88 143.667, 87.111 143, 86 143 C 84.667 143, 84 142.333, 84 141 C 84 139.148, 83.333 139, 75 139 C 68.030 139, 66 139.310, 66 140.375 M 80 162.500 C 80 163.690, 78.556 164, 73 164 C 66.667 164, 66 164.190, 66 166 C 66 167.667, 65.333 168, 62 168 C 59.111 168, 58 168.417, 58 169.500 C 58 170.466, 57.022 171.005, 55.250 171.014 C 51.015 171.035, 48 172.095, 48 173.564 C 48 174.465, 46.303 174.993, 42.750 175.198 L 37.500 175.500 37.198 180.750 L 36.895 186 42.448 186 C 46.519 186, 48 185.629, 48 184.611 C 48 183.816, 49.495 182.942, 51.500 182.566 C 53.437 182.203, 55 181.310, 55 180.566 C 55 179.822, 56.563 178.929, 58.500 178.566 C 60.595 178.173, 62 177.325, 62 176.455 C 62 175.358, 63.354 175, 67.500 175 C 71.722 175, 73 174.652, 73 173.500 C 73 172.588, 73.931 172, 75.375 172 C 76.681 172, 79.156 171.719, 80.875 171.375 C 83.971 170.756, 84 170.788, 84 174.875 C 84 178.923, 84.066 179, 87.500 179 C 90.333 179, 91 178.619, 91 177 C 91 175.889, 91.667 175, 92.500 175 C 93.548 175, 94 173.944, 94 171.500 C 94 169.056, 93.548 168, 92.500 168 C 91.667 168, 91 167.111, 91 166 C 91 164.889, 90.333 164, 89.500 164 C 88.675 164, 88 163.325, 88 162.500 C 88 161.417, 86.889 161, 84 161 C 81.111 161, 80 161.417, 80 162.500 M 275 173.383 C 275 174.144, 274.100 175.002, 273 175.290 C 271.468 175.690, 271 176.654, 271 179.406 C 271 181.845, 270.543 183, 269.579 183 C 268.798 183, 267.862 184.350, 267.500 186 C 267.138 187.650, 266.202 189, 265.421 189 C 264.473 189, 264 190.127, 264 192.383 C 264 194.926, 263.503 195.897, 262 196.290 C 260.803 196.603, 260 197.654, 260 198.906 C 260 200.101, 259.356 201, 258.500 201 C 257.490 201, 257 202.010, 257 204.094 C 257 206.346, 256.456 207.329, 255 207.710 C 253.893 208, 253 209.074, 253 210.117 C 253 211.152, 252.361 212, 251.579 212 C 250.798 212, 249.862 213.350, 249.500 215 C 249.138 216.650, 248.202 218, 247.421 218 C 246.639 218, 246 218.900, 246 220 C 246 221.333, 245.333 222, 244 222 C 242.900 222, 242 222.623, 242 223.383 C 242 224.144, 241.100 225.002, 240 225.290 C 238.900 225.577, 238 226.530, 238 227.406 C 238 228.521, 237.070 229, 234.906 229 C 232.654 229, 231.671 229.544, 231.290 231 C 230.857 232.656, 229.926 233, 225.883 233 C 222.209 233, 221 233.371, 221 234.500 C 221 235.742, 219.111 236, 210 236 C 200.889 236, 199 235.742, 199 234.500 C 199 233.363, 197.767 233, 193.906 233 C 189.654 233, 188.726 232.670, 188.290 231 C 187.922 229.593, 186.926 229, 184.929 229 C 182.477 229, 182.001 228.524, 181.434 225.500 C 180.837 222.318, 180.470 222, 177.389 222 C 174.183 222, 174 221.811, 174 218.500 C 174 216.180, 173.532 215, 172.611 215 C 171.816 215, 170.942 213.505, 170.566 211.500 C 170.204 209.571, 169.309 208, 168.571 208 C 167.631 208, 167.108 206.036, 166.813 201.400 C 166.503 196.538, 165.945 194.549, 164.696 193.850 C 163.763 193.328, 163 191.970, 163 190.834 C 163 189.178, 162.552 188.887, 160.750 189.370 C 159.512 189.701, 157.938 189.979, 157.250 189.986 C 156.344 189.996, 156 192.474, 156 199 C 156 206.209, 156.290 208, 157.455 208 C 158.325 208, 159.173 209.405, 159.566 211.500 C 159.927 213.425, 160.797 215, 161.500 215 C 162.203 215, 163.073 216.575, 163.434 218.500 C 163.827 220.595, 164.675 222, 165.545 222 C 166.345 222, 167 222.900, 167 224 C 167 225.100, 167.623 226, 168.383 226 C 169.144 226, 170.002 226.900, 170.290 228 C 170.577 229.100, 171.530 230, 172.406 230 C 173.283 230, 174 230.675, 174 231.500 C 174 232.333, 174.889 233, 176 233 C 177.111 233, 178 233.667, 178 234.500 C 178 235.325, 178.717 236, 179.594 236 C 180.470 236, 181.423 236.900, 181.710 238 C 182.103 239.503, 183.074 240, 185.617 240 C 187.808 240, 189 240.481, 189 241.364 C 189 243.192, 195.444 244, 210.015 244 C 223.435 244, 228 243.334, 228 241.375 C 228 240.470, 229.197 240, 231.500 240 C 233.848 240, 235 239.535, 235 238.588 C 235 237.720, 236.541 236.915, 239 236.500 C 241.459 236.085, 243 235.280, 243 234.412 C 243 233.635, 243.675 233, 244.500 233 C 245.325 233, 246 232.377, 246 231.617 C 246 230.856, 246.900 229.998, 248 229.710 C 249.100 229.423, 250 228.470, 250 227.594 C 250 226.717, 250.675 226, 251.500 226 C 252.333 226, 253 225.111, 253 224 C 253 222.667, 253.667 222, 255 222 C 256.619 222, 257 221.333, 257 218.500 C 257 216.056, 257.452 215, 258.500 215 C 259.333 215, 260 214.111, 260 213 C 260 211.667, 260.667 211, 262 211 C 263.727 211, 264 210.333, 264 206.117 C 264 202.074, 264.344 201.143, 266 200.710 C 267.532 200.310, 268 199.346, 268 196.594 C 268 194.066, 268.445 193, 269.500 193 C 270.548 193, 271 191.944, 271 189.500 C 271 186.667, 271.381 186, 273 186 C 274.333 186, 275 185.333, 275 184 C 275 182.900, 275.619 182, 276.375 182 C 277.972 182, 279.147 177.277, 278.329 174.149 C 277.712 171.790, 275 171.166, 275 173.383 M 55 191.500 C 55 192.548, 53.944 193, 51.500 193 L 48 193 48 200.500 C 48 206.197, 48.331 208, 49.375 208 C 51.150 208, 52 212.411, 52 221.625 C 52 227.514, 52.302 229, 53.500 229 C 54.652 229, 55 230.278, 55 234.500 C 55 238.646, 55.358 240, 56.455 240 C 57.325 240, 58.173 241.405, 58.566 243.500 C 59.163 246.682, 59.530 247, 62.611 247 L 66 247 66 238.500 C 66 231.611, 65.716 230, 64.500 230 C 63.675 230, 62.994 229.213, 62.986 228.250 C 62.979 227.287, 62.701 225.488, 62.370 224.250 C 61.883 222.435, 62.176 222, 63.883 222 C 65.636 222, 66 221.398, 66 218.500 C 66 215.167, 66.167 215, 69.500 215 C 72.333 215, 73 214.619, 73 213 C 73 211.148, 73.667 211, 82 211 C 88.996 211, 91 211.308, 91 212.383 C 91 213.144, 90.100 214.002, 89 214.290 C 87.900 214.577, 87 215.530, 87 216.406 C 87 217.521, 86.070 218, 83.906 218 C 81.654 218, 80.671 218.544, 80.290 220 C 80.002 221.100, 79.144 222, 78.383 222 C 77.623 222, 77 222.900, 77 224 C 77 225.333, 76.333 226, 75 226 C 73.889 226, 73 226.667, 73 227.500 C 73 228.325, 73.717 229, 74.594 229 C 75.470 229, 76.423 229.900, 76.710 231 C 77.103 232.503, 78.074 233, 80.617 233 C 83.333 233, 84 232.606, 84 231 C 84 229.667, 84.667 229, 86 229 C 87.100 229, 88 228.345, 88 227.545 C 88 226.675, 89.405 225.827, 91.500 225.434 C 94.500 224.871, 95 224.382, 95 222.005 C 95 220.074, 95.607 219.075, 97 218.710 C 98.100 218.423, 99 217.470, 99 216.594 C 99 215.717, 99.675 215, 100.500 215 C 101.652 215, 102 213.722, 102 209.500 C 102 204.667, 101.758 204, 100 204 C 98.900 204, 98 203.377, 98 202.617 C 98 200.959, 94.942 200.027, 89.500 200.027 C 84.058 200.027, 81 200.959, 81 202.617 C 81 203.671, 79.219 204, 73.500 204 C 66.667 204, 66 204.178, 66 206 C 66 207.619, 65.333 208, 62.500 208 L 59 208 58.986 201.250 C 58.979 197.537, 58.701 193.488, 58.370 192.250 C 57.699 189.747, 55 189.146, 55 191.500" stroke="none" fill="black" fill-rule="evenodd"/>
</svg>