<svg xmlns="http://www.w3.org/2000/svg" width="300" height="300" viewBox="0 0 300 300" version="1.1">
	<path d="M 170.750 26.728 C 168.335 26.981, 167 27.633, 167 28.560 C 167 29.539, 165.879 30, 163.500 30 C 161.180 30, 160 30.468, 160 31.389 C 160 32.184, 158.505 33.058, 156.500 33.434 C 154.405 33.827, 153 34.675, 153 35.545 C 153 36.345, 152.100 37, 151 37 C 149.178 37, 149 37.667, 149 44.500 C 149 50.696, 149.277 52, 150.594 52 C 151.470 52, 152.423 51.100, 152.710 50 C 152.998 48.900, 153.856 48, 154.617 48 C 155.377 48, 156 47.100, 156 46 C 156 44.889, 156.667 44, 157.500 44 C 158.325 44, 159 43.325, 159 42.500 C 159 41.445, 160.066 41, 162.594 41 C 165.346 41, 166.310 40.532, 166.710 39 C 167.152 37.312, 168.074 37, 172.617 37 C 176.735 37, 178 36.648, 178 35.500 C 178 34.348, 179.278 34, 183.500 34 C 188.333 34, 189 34.242, 189 36 C 189 37.111, 189.667 38, 190.500 38 C 192.698 38, 192.331 39.680, 190 40.290 C 188.900 40.577, 188 41.572, 188 42.500 C 188 43.428, 188.900 44.423, 190 44.710 C 191.100 44.998, 192 45.856, 192 46.617 C 192 49.617, 194.933 47.876, 195.566 44.500 C 195.942 42.495, 196.816 41, 197.611 41 C 198.565 41, 199 39.746, 199 37 C 199 34.211, 198.570 33, 197.579 33 C 196.798 33, 195.872 31.696, 195.522 30.102 C 195.122 28.278, 194.073 26.985, 192.693 26.615 C 190.381 25.995, 177.103 26.064, 170.750 26.728 M 186.750 58.712 C 179.910 58.998, 178 59.397, 178 60.539 C 178 61.482, 176.980 62, 175.125 62 C 170.159 62, 166 63.196, 166 64.625 C 166 65.684, 164.045 66, 157.500 66 C 150.839 66, 149 66.306, 149 67.415 C 149 68.446, 146.968 69.020, 141.500 69.532 C 136.122 70.036, 134 70.626, 134 71.617 C 134 72.627, 132.514 73, 128.500 73 C 124.484 73, 123 73.373, 123 74.383 C 123 75.899, 120.032 76.965, 115.750 76.986 C 113.127 76.999, 113 77.225, 113 81.892 C 113 86.222, 113.275 86.852, 115.402 87.386 C 118.784 88.235, 124 87.015, 124 85.375 C 124 84.392, 125.424 84, 129 84 C 132.600 84, 134 83.611, 134 82.611 C 134 81.816, 135.495 80.942, 137.500 80.566 C 139.595 80.173, 141 79.325, 141 78.455 C 141 77.343, 142.416 77, 147 77 C 151.442 77, 153 76.641, 153 75.617 C 153 73.759, 156.152 73.030, 164.250 73.014 C 169.577 73.003, 171 72.684, 171 71.500 C 171 70.425, 172.097 70, 174.875 70 C 180.772 70, 185 68.904, 185 67.375 C 185 66.309, 187.048 66, 194.117 66 C 203.083 66, 203.223 66.037, 202.630 68.250 C 202.299 69.487, 202.021 71.063, 202.014 71.750 C 202.006 72.438, 201.325 73, 200.500 73 C 199.667 73, 199 73.889, 199 75 C 199 76.100, 199.563 76.994, 200.250 76.986 C 203.160 76.955, 206 75.669, 206 74.383 C 206 73.623, 206.900 73, 208 73 C 209.810 73, 210 72.333, 210 66 L 210 59 205.625 59 C 203.219 59, 199.956 58.853, 198.375 58.673 C 196.794 58.493, 191.563 58.511, 186.750 58.712 M 192 78.500 C 192 79.412, 191.069 80, 189.625 80 C 185.120 80, 181 81.254, 181 82.625 C 181 83.381, 180.100 84, 179 84 C 177.889 84, 177 84.667, 177 85.500 C 177 86.325, 176.325 87, 175.500 87 C 174.667 87, 174 87.889, 174 89 C 174 90.333, 173.333 91, 172 91 C 170.667 91, 170 91.667, 170 93 C 170 94.111, 169.333 95, 168.500 95 C 167.675 95, 167 95.623, 167 96.383 C 167 97.144, 166.100 98.002, 165 98.290 C 163.900 98.577, 163 99.530, 163 100.406 C 163 101.283, 162.325 102, 161.500 102 C 160.675 102, 160 102.675, 160 103.500 C 160 104.541, 158.953 105, 156.579 105 C 153.592 105, 153.075 104.620, 152.500 102 C 152.138 100.350, 151.202 99, 150.421 99 C 149.430 99, 149 97.789, 149 95 C 149 91.667, 149.333 91, 151 91 C 152.333 91, 153 90.333, 153 89 C 153 87.889, 153.667 87, 154.500 87 C 155.325 87, 156 86.325, 156 85.500 C 156 84.312, 154.569 84, 149.117 84 C 143.074 84, 142.169 84.244, 141.710 86 C 141.423 87.100, 140.470 88, 139.594 88 C 138.439 88, 138 88.964, 138 91.500 C 138 93.944, 138.452 95, 139.500 95 C 140.412 95, 141 95.931, 141 97.375 C 141 101.880, 142.254 106, 143.625 106 C 144.381 106, 145 106.675, 145 107.500 C 145 108.333, 145.889 109, 147 109 C 148.111 109, 149 109.667, 149 110.500 C 149 111.325, 149.675 112, 150.500 112 C 151.325 112, 152 112.873, 152 113.941 C 152 116.694, 153.512 117.300, 158.512 116.551 C 162.533 115.948, 162.906 115.640, 163.191 112.698 C 163.461 109.898, 163.905 109.461, 166.750 109.187 C 168.864 108.983, 170 108.339, 170 107.343 C 170 106.501, 170.900 105.577, 172 105.290 C 173.100 105.002, 174 104.144, 174 103.383 C 174 102.623, 174.675 102, 175.500 102 C 176.325 102, 177 101.283, 177 100.406 C 177 99.530, 177.900 98.577, 179 98.290 C 180.100 98.002, 181 97.144, 181 96.383 C 181 95.623, 181.900 95, 183 95 C 184.333 95, 185 94.333, 185 93 C 185 91.889, 185.667 91, 186.500 91 C 187.325 91, 188 90.325, 188 89.500 C 188 88.667, 188.889 88, 190 88 C 191.333 88, 192 87.333, 192 86 C 192 84.667, 192.667 84, 194 84 C 196.090 84, 196.376 83.007, 195.370 79.250 C 194.699 76.747, 192 76.146, 192 78.500 M 59 86 C 59 87.100, 58.377 88, 57.617 88 C 56.250 88, 54.746 92.780, 55.651 94.244 C 55.908 94.660, 62.391 95, 70.059 95 C 81.784 95, 84 95.238, 84 96.500 C 84 97.325, 84.717 98, 85.594 98 C 86.470 98, 87.423 98.900, 87.710 100 C 88.143 101.656, 89.074 102, 93.117 102 L 98 102 98 98.500 C 98 96.187, 97.531 95, 96.617 95 C 95.856 95, 94.998 94.100, 94.710 93 C 94.329 91.544, 93.346 91, 91.094 91 C 89.096 91, 88 90.500, 88 89.588 C 88 88.720, 86.459 87.915, 84 87.500 C 81.541 87.085, 80 86.280, 80 85.412 C 80 84.286, 77.876 84, 69.500 84 C 59.667 84, 59 84.127, 59 86 M 211.750 105.739 C 207.559 106.002, 206 106.493, 206 107.550 C 206 108.702, 204.265 109, 197.550 109 C 190.771 109, 188.919 109.323, 188.185 110.634 C 187.594 111.690, 185.456 112.442, 182.135 112.761 C 178.688 113.092, 177 113.706, 177 114.627 C 177 115.455, 175.908 116.005, 174.250 116.014 C 169.968 116.035, 167 117.101, 167 118.617 C 167 119.627, 165.516 120, 161.500 120 C 157.474 120, 156 120.372, 156 121.389 C 156 122.184, 154.505 123.058, 152.500 123.434 C 150.405 123.827, 149 124.675, 149 125.545 C 149 126.642, 147.646 127, 143.500 127 C 139.278 127, 138 126.652, 138 125.500 C 138 124.417, 136.889 124, 134 124 C 131.111 124, 130 124.417, 130 125.500 C 130 126.325, 129.325 127, 128.500 127 C 127.452 127, 127 128.056, 127 130.500 C 127 133.833, 126.833 134, 123.500 134 C 120.667 134, 120 134.381, 120 136 C 120 137.731, 119.333 138, 115.045 138 C 110.175 138, 110.080 137.941, 109.434 134.500 L 108.777 131 99.889 131 C 92.654 131, 91 131.279, 91 132.500 C 91 133.621, 89.799 134.003, 86.250 134.014 C 80.077 134.031, 77 134.897, 77 136.617 C 77 137.627, 75.516 138, 71.500 138 L 66 138 66 143.500 L 66 149 75 149 C 83.333 149, 84 148.852, 84 147 C 84 145.267, 84.667 145, 89 145 C 92.629 145, 94 144.615, 94 143.594 C 94 142.069, 103.075 140.311, 104.954 141.472 C 105.529 141.827, 106 143.666, 106 145.559 L 106 149 110.883 149 C 114.926 149, 115.857 149.344, 116.290 151 C 116.577 152.100, 117.530 153, 118.406 153 C 119.283 153, 120 153.675, 120 154.500 C 120 155.333, 120.889 156, 122 156 C 123.619 156, 124 155.333, 124 152.500 C 124 150.056, 124.452 149, 125.500 149 C 126.652 149, 127 150.278, 127 154.500 C 127 158.722, 126.652 160, 125.500 160 C 124.675 160, 124 160.675, 124 161.500 C 124 162.325, 124.675 163, 125.500 163 C 126.801 163, 127 167.056, 127 193.500 L 127 224 130.500 224 L 134 224 134.250 205.750 C 134.387 195.713, 134.530 178.950, 134.566 168.500 C 134.655 142.765, 134.711 142, 136.500 142 C 137.333 142, 138 141.111, 138 140 C 138 138.381, 138.667 138, 141.500 138 C 143.896 138, 145 137.541, 145 136.545 C 145 135.675, 146.405 134.827, 148.500 134.434 C 150.505 134.058, 152 133.184, 152 132.389 C 152 131.435, 153.254 131, 156 131 C 158.739 131, 160 130.564, 160 129.617 C 160 128.101, 162.968 127.035, 167.250 127.014 C 169.022 127.005, 170 126.466, 170 125.500 C 170 124.348, 171.278 124, 175.500 124 C 180.333 124, 181 123.758, 181 122 C 181 120.190, 181.667 120, 188 120 C 193.237 120, 195 119.657, 195 118.639 C 195 117.093, 201.817 116.023, 211.750 116.009 C 216.635 116.002, 218 115.672, 218 114.500 C 218 113.367, 219.222 113, 223 113 C 226.778 113, 228 113.367, 228 114.500 C 228 115.325, 228.619 116, 229.375 116 C 231.266 116, 232 120.506, 232 132.125 C 232 140.052, 232.284 142, 233.439 142 C 234.648 142, 234.929 146.255, 235.189 168.538 C 235.450 190.817, 235.741 195.224, 237 195.999 C 238.217 196.749, 238.560 200.136, 238.816 213.962 C 239.075 227.946, 239.389 231, 240.566 231 C 241.719 231, 242 233.028, 242 241.353 C 242 247.048, 242.289 254.473, 242.642 257.853 C 243.284 263.994, 243.282 264, 240.642 264 C 238.997 264, 238 263.451, 238 262.545 C 238 261.675, 236.595 260.827, 234.500 260.434 C 232.495 260.058, 231 259.184, 231 258.389 C 231 257.625, 230.325 257, 229.500 257 C 228.667 257, 228 256.111, 228 255 C 228 253.667, 227.333 253, 226 253 C 224.900 253, 224 252.374, 224 251.608 C 224 250.105, 219.516 248.563, 217.954 249.528 C 216.305 250.548, 216.915 252.745, 219 253.290 C 220.456 253.671, 221 254.654, 221 256.906 C 221 259.070, 221.479 260, 222.594 260 C 223.470 260, 224.423 260.900, 224.710 262 C 225.074 263.392, 226.074 264, 228 264 C 229.926 264, 230.926 264.608, 231.290 266 C 231.577 267.100, 232.530 268, 233.406 268 C 234.283 268, 235 268.675, 235 269.500 C 235 270.333, 235.889 271, 237 271 C 238.100 271, 239 271.623, 239 272.383 C 239 274.093, 242.071 274.968, 248.133 274.986 C 252.372 274.999, 252.811 274.771, 253.281 272.313 C 253.563 270.835, 253.549 264.310, 253.250 257.813 C 252.836 248.818, 252.383 246, 251.353 246 C 250.309 246, 249.999 243.776, 249.994 236.250 C 249.984 220.590, 248.918 210, 247.352 210 C 246.254 210, 246 205.577, 246 186.500 C 246 167.482, 245.744 163, 244.655 163 C 243.233 163, 242 145.975, 242 126.342 C 242 118.705, 241.726 117, 240.500 117 C 239.353 117, 239 115.736, 239 111.625 C 239 106.405, 238.910 106.232, 235.875 105.625 C 232.766 105.003, 222.719 105.051, 211.750 105.739 M 76.150 110.696 C 75.451 111.945, 73.462 112.503, 68.600 112.813 C 63.850 113.115, 62 113.621, 62 114.616 C 62 115.531, 60.813 116, 58.500 116 C 55.667 116, 55 116.381, 55 118 C 55 119.619, 54.333 120, 51.500 120 C 48.167 120, 48 120.167, 48 123.500 L 48 127 57 127 C 64.333 127, 66 126.722, 66 125.500 C 66 124.534, 66.978 123.995, 68.750 123.986 C 73.032 123.965, 76 122.899, 76 121.383 C 76 120.276, 78.598 120, 89 120 L 102 120 102 123.500 C 102 126.833, 102.167 127, 105.500 127 L 109 127 109 121.500 C 109 116.667, 108.758 116, 107 116 C 105.889 116, 105 115.333, 105 114.500 C 105 113.675, 104.325 113, 103.500 113 C 102.675 113, 102 112.377, 102 111.617 C 102 109.603, 98.758 109.029, 87.300 109.014 C 78.739 109.002, 76.947 109.273, 76.150 110.696 M 174 134.500 C 174 137.333, 173.619 138, 172 138 C 170.190 138, 170 138.667, 170 145 L 170 152 165.250 152.014 C 159.077 152.031, 156 152.897, 156 154.617 C 156 155.606, 154.608 156, 151.117 156 C 145.577 156, 145.038 156.806, 145.014 165.125 C 145.001 169.509, 145.163 169.783, 148.125 170.375 C 154.823 171.715, 156 171.302, 156 167.617 C 156 163.923, 157.486 163.040, 163.750 163.014 C 165.966 163.004, 167 162.523, 167 161.500 C 167 160.675, 167.675 160, 168.500 160 C 169.753 160, 170 162.056, 170 172.500 C 170 182.944, 169.753 185, 168.500 185 C 167.371 185, 167 186.209, 167 189.883 C 167 194.102, 167.306 194.849, 169.250 195.370 C 173.726 196.569, 174 196.260, 174 190 C 174 185.558, 174.359 184, 175.383 184 C 177.376 184, 177.971 180.770, 177.986 169.867 C 177.999 161.080, 178.176 160.187, 180 159.710 C 181.100 159.423, 182 158.470, 182 157.594 C 182 156.205, 183.974 156, 197.383 156 C 211.926 156, 212.795 156.109, 213.290 158 C 213.690 159.532, 214.654 160, 217.406 160 L 221 160 221 154.500 C 221 149.667, 220.758 149, 219 149 C 217.900 149, 217 148.377, 217 147.617 C 217 144.969, 207.680 143.962, 206.283 146.459 C 205.673 147.548, 202.371 148.092, 193.233 148.609 L 181 149.300 181 145.141 L 181 140.983 186.500 141.629 C 191.653 142.235, 192 142.140, 192 140.138 C 192 138.962, 191.377 138, 190.617 138 C 189.856 138, 188.998 137.100, 188.710 136 C 188.397 134.803, 187.346 134, 186.094 134 C 184.899 134, 184 133.356, 184 132.500 C 184 131.367, 182.778 131, 179 131 L 174 131 174 134.500 M 84 164.906 C 84 166.682, 83.393 167, 80 167 C 77.111 167, 76 167.417, 76 168.500 C 76 169.466, 75.022 170.005, 73.250 170.014 C 68.968 170.035, 66 171.101, 66 172.617 C 66 173.522, 64.831 174, 62.617 174 C 60.074 174, 59.103 174.497, 58.710 176 C 58.423 177.100, 57.442 178, 56.530 178 C 55.263 178, 54.947 178.765, 55.187 181.250 L 55.500 184.500 62.750 184.794 C 68.655 185.033, 70 184.810, 70 183.589 C 70 182.668, 71.349 181.838, 73.500 181.434 C 75.437 181.071, 77 180.178, 77 179.434 C 77 178.690, 78.563 177.797, 80.500 177.434 C 82.505 177.058, 84 176.184, 84 175.389 C 84 174.293, 86.191 174, 94.389 174 L 104.777 174 105.434 177.500 C 106.067 180.876, 109 182.617, 109 179.617 C 109 178.856, 109.900 177.998, 111 177.710 C 112.472 177.325, 113 176.346, 113 174 C 113 171.654, 112.472 170.675, 111 170.290 C 109.900 170.002, 109 169.144, 109 168.383 C 109 167.623, 108.347 167, 107.550 167 C 106.752 167, 105.659 166.213, 105.121 165.250 C 104.313 163.804, 102.396 163.440, 94.072 163.156 C 84.407 162.826, 84 162.897, 84 164.906 M 70 186.500 C 70 187.333, 69.111 188, 68 188 C 66.667 188, 66 188.667, 66 190 C 66 191.111, 65.333 192, 64.500 192 C 63.667 192, 63 192.889, 63 194 C 63 195.111, 63.667 196, 64.500 196 C 65.761 196, 66 198.209, 66 209.883 C 66 222.926, 66.121 223.798, 68 224.290 C 69.456 224.671, 70 225.654, 70 227.906 C 70 229.990, 70.490 231, 71.500 231 C 72.435 231, 73 231.946, 73 233.510 C 73 234.890, 73.900 236.790, 75 237.732 C 76.100 238.674, 77 239.967, 77 240.606 C 77 241.244, 77.900 242.002, 79 242.290 C 80.100 242.577, 81 243.530, 81 244.406 C 81 245.510, 81.922 246, 84 246 C 86 246, 87 245.500, 87 244.500 C 87 243.644, 87.899 243, 89.094 243 C 90.346 243, 91.397 242.197, 91.710 241 C 92.081 239.583, 93.074 239, 95.117 239 C 97.333 239, 98 238.538, 98 237 C 98 235.667, 98.667 235, 100 235 C 101.333 235, 102 234.333, 102 233 C 102 231.900, 102.639 231, 103.421 231 C 104.202 231, 105.138 229.650, 105.500 228 C 105.862 226.350, 106.798 225, 107.579 225 C 108.361 225, 109 224.100, 109 223 C 109 221.667, 109.667 221, 111 221 C 112.619 221, 113 220.333, 113 217.500 C 113 215.197, 113.470 214, 114.375 214 C 115.804 214, 117.409 208.470, 116.437 206.897 C 116.132 206.404, 115.234 206, 114.441 206 C 113.461 206, 113 204.881, 113 202.500 L 113 199 98.500 199 C 84.667 199, 84 199.092, 84 201 C 84 202.758, 83.333 203, 78.500 203 L 73 203 73 197.500 C 73 192.667, 73.242 192, 75 192 C 76.163 192, 77 191.333, 77 190.406 C 77 189.530, 76.100 188.577, 75 188.290 C 73.900 188.002, 73 187.144, 73 186.383 C 73 185.623, 72.325 185, 71.500 185 C 70.675 185, 70 185.675, 70 186.500 M 163 204.500 C 163 205.325, 162.365 206, 161.588 206 C 160.720 206, 159.915 207.541, 159.500 210 C 159.085 212.459, 158.280 214, 157.412 214 C 156.367 214, 156 215.430, 156 219.500 C 156 223.516, 156.373 225, 157.383 225 C 158.959 225, 159.966 228, 159.986 232.750 C 159.996 234.966, 160.477 236, 161.500 236 C 162.633 236, 163 237.222, 163 241 C 163 244.590, 163.390 246, 164.383 246 C 165.144 246, 166.002 246.900, 166.290 248 C 166.690 249.532, 167.654 250, 170.406 250 L 174 250 174 235.617 C 174 222.074, 174.117 221.203, 176 220.710 C 177.100 220.423, 178 219.470, 178 218.594 C 178 217.439, 178.964 217, 181.500 217 C 183.944 217, 185 216.548, 185 215.500 C 185 214.310, 186.444 214, 192 214 C 197.619 214, 199 214.302, 199 215.531 C 199 216.374, 199.675 217.322, 200.500 217.638 C 201.355 217.966, 202 219.458, 202 221.107 C 202 223.012, 201.488 224, 200.500 224 C 199.667 224, 199 224.889, 199 226 C 199 227.333, 198.333 228, 197 228 C 195.900 228, 195 228.655, 195 229.455 C 195 230.325, 193.595 231.173, 191.500 231.566 C 188.967 232.041, 188 232.745, 188 234.111 C 188 235.150, 187.325 236, 186.500 236 C 185.675 236, 185 236.450, 185 237 C 185 237.550, 185.675 238, 186.500 238 C 187.333 238, 188 238.889, 188 240 C 188 241.619, 188.667 242, 191.500 242 C 193.944 242, 195 241.548, 195 240.500 C 195 239.395, 196.153 239, 199.375 239 C 205.741 239, 210 237.948, 210 236.375 C 210 235.619, 210.900 235, 212 235 C 213.100 235, 213.994 234.438, 213.986 233.750 C 213.955 230.840, 212.669 228, 211.383 228 C 210.308 228, 210 225.996, 210 219 L 210 210 206.500 210 C 203.667 210, 203 209.619, 203 208 C 203 206.333, 202.333 206, 199 206 C 196.111 206, 195 205.583, 195 204.500 C 195 203.500, 194 203, 192 203 C 190 203, 189 203.500, 189 204.500 C 189 205.486, 188.014 206, 186.125 206 C 181.159 206, 177 207.196, 177 208.625 C 177 209.530, 175.803 210, 173.500 210 C 171.056 210, 170 210.452, 170 211.500 C 170 212.325, 169.325 213, 168.500 213 C 167.367 213, 167 211.778, 167 208 C 167 203.667, 166.733 203, 165 203 C 163.889 203, 163 203.667, 163 204.500 M 92 208.500 C 92 209.325, 91.152 210, 90.117 210 C 89.074 210, 88 210.893, 87.710 212 C 87.310 213.532, 86.346 214, 83.594 214 L 80 214 80 219.875 C 80 227.658, 80.940 232, 82.625 232 C 83.381 232, 84 232.675, 84 233.500 C 84 236.549, 86.792 234.923, 87.434 231.500 C 87.827 229.405, 88.675 228, 89.545 228 C 90.345 228, 91 227.377, 91 226.617 C 91 225.856, 91.900 224.998, 93 224.710 C 94.100 224.423, 95 223.523, 95 222.710 C 95 221.898, 95.900 220.998, 97 220.710 C 98.100 220.423, 99 219.470, 99 218.594 C 99 217.717, 99.675 217, 100.500 217 C 101.325 217, 102 216.325, 102 215.500 C 102 214.675, 102.675 214, 103.500 214 C 104.548 214, 105 212.944, 105 210.500 L 105 207 98.500 207 C 93.389 207, 92 207.321, 92 208.500" stroke="none" fill="black" fill-rule="evenodd"/>
</svg>