<svg xmlns="http://www.w3.org/2000/svg" width="300" height="300" viewBox="0 0 300 300" version="1.1">
	<path d="M 130.250 38.706 C 129.012 38.944, 128 39.783, 128 40.570 C 128 41.619, 126.670 42, 123 42 C 119.400 42, 118 42.389, 118 43.389 C 118 44.184, 116.505 45.058, 114.500 45.434 C 112.405 45.827, 111 46.675, 111 47.545 C 111 48.345, 110.100 49, 109 49 C 107.900 49, 107 49.655, 107 50.455 C 107 51.325, 105.595 52.173, 103.500 52.566 C 101.495 52.942, 100 53.816, 100 54.611 C 100 55.375, 99.100 56, 98 56 C 96.667 56, 96 56.667, 96 58 C 96 59.100, 95.377 60, 94.617 60 C 92.897 60, 92.031 63.077, 92.014 69.250 C 92 73.983, 92.012 74, 95.383 74 C 99.002 74, 99.958 72.495, 99.986 66.750 C 99.995 64.978, 100.534 64, 101.500 64 C 102.333 64, 103 63.111, 103 62 C 103 60.394, 103.667 60, 106.383 60 C 108.926 60, 109.897 59.503, 110.290 58 C 110.577 56.900, 111.530 56, 112.406 56 C 113.283 56, 114 55.325, 114 54.500 C 114 53.456, 115.050 53, 117.450 53 C 119.697 53, 121.242 52.390, 121.878 51.250 C 122.728 49.728, 124.819 49.458, 137.928 49.178 C 152.612 48.864, 153 48.909, 153 50.928 C 153 52.312, 153.644 53, 154.941 53 C 157.701 53, 158.300 51.486, 157.542 46.429 L 156.877 42 148.555 42 C 141.074 42, 140.180 41.798, 139.710 40 C 139.183 37.985, 136.148 37.570, 130.250 38.706 M 43.750 63.689 C 42.788 63.941, 42 64.789, 42 65.573 C 42 66.358, 41.100 67, 40 67 C 38.667 67, 38 67.667, 38 69 C 38 70.893, 38.667 71, 50.500 71 C 60.599 71, 63 71.271, 63 72.412 C 63 73.280, 64.541 74.085, 67 74.500 C 70.753 75.134, 71 75.386, 71 78.588 C 71 82.436, 73.795 83.499, 74.710 80 C 74.998 78.900, 75.856 78, 76.617 78 C 77.606 78, 78 76.608, 78 73.117 C 78 67.845, 77.050 67.045, 70.750 67.014 C 69.107 67.005, 68 66.453, 68 65.642 C 68 63.603, 49.716 62.130, 43.750 63.689 M 157 65.500 C 157 66.629, 155.791 67, 152.117 67 C 148.074 67, 147.143 67.344, 146.710 69 C 146.274 70.670, 145.346 71, 141.094 71 C 137.233 71, 136 71.363, 136 72.500 C 136 73.555, 134.934 74, 132.406 74 C 129.654 74, 128.690 74.468, 128.290 76 C 127.848 77.688, 126.926 78, 122.383 78 C 118.464 78, 117 78.377, 117 79.385 C 117 80.313, 115.188 80.996, 111.500 81.457 C 107.722 81.929, 106 82.591, 106 83.572 C 106 84.619, 104.666 85, 101 85 C 97.410 85, 96 85.390, 96 86.383 C 96 87.885, 93.040 88.965, 88.867 88.986 C 87.107 88.995, 86.065 89.645, 85.725 90.944 C 85.245 92.780, 84.519 92.855, 72.608 92.292 C 60.185 91.705, 60 91.728, 60 93.848 C 60 95.891, 59.545 96, 51 96 C 44.030 96, 42 96.310, 42 97.375 C 42 98.746, 37.880 100, 33.375 100 C 31.931 100, 31 100.588, 31 101.500 C 31 102.333, 30.111 103, 29 103 C 27.667 103, 27 103.667, 27 105 C 27 106.111, 26.333 107, 25.500 107 C 24.452 107, 24 108.056, 24 110.500 L 24 114 29.500 114 C 33.722 114, 35 113.652, 35 112.500 C 35 111.588, 35.931 111, 37.375 111 C 41.880 111, 46 109.746, 46 108.375 C 46 107.392, 47.424 107, 51 107 C 54.576 107, 56 106.608, 56 105.625 C 56 103.859, 60.420 102.996, 69.375 103.014 C 80.062 103.034, 80.654 103.333, 81.417 109.086 C 82.056 113.901, 82.139 114, 85.534 114 L 89 114 89 107 C 89 100.034, 89.013 100, 91.750 99.986 C 96.032 99.965, 99 98.899, 99 97.383 C 99 96.478, 100.169 96, 102.383 96 C 104.973 96, 105.895 95.510, 106.312 93.913 C 106.667 92.556, 107.495 91.952, 108.679 92.185 C 110.235 92.492, 110.450 93.371, 110.157 98.212 C 109.732 105.239, 110.711 110, 112.579 110 C 113.527 110, 114 111.127, 114 113.383 C 114 115.926, 114.497 116.897, 116 117.290 C 117.100 117.577, 118 118.530, 118 119.406 C 118 120.713, 119.262 121, 125 121 C 131.333 121, 132 121.190, 132 123 C 132 124.111, 131.333 125, 130.500 125 C 129.675 125, 129 125.717, 129 126.594 C 129 127.470, 128.100 128.423, 127 128.710 C 125.900 128.998, 125 129.856, 125 130.617 C 125 131.377, 124.100 132, 123 132 C 121.667 132, 121 132.667, 121 134 C 121 135.619, 120.333 136, 117.500 136 C 115.180 136, 114 136.468, 114 137.389 C 114 138.177, 112.527 139.054, 110.597 139.416 C 108.725 139.767, 106.939 140.717, 106.628 141.527 C 106.234 142.554, 104.540 143, 101.031 143 C 97.405 143, 96 143.388, 96 144.389 C 96 145.184, 94.505 146.058, 92.500 146.434 C 90.405 146.827, 89 147.675, 89 148.545 C 89 149.541, 87.896 150, 85.500 150 C 83.215 150, 82 150.472, 82 151.361 C 82 152.751, 75.378 153.974, 67.750 153.991 C 65.087 153.997, 64 154.435, 64 155.500 C 64 156.583, 62.889 157, 60 157 C 57.261 157, 56 157.436, 56 158.383 C 56 159.899, 53.032 160.965, 48.750 160.986 C 47.077 160.995, 46 161.544, 46 162.389 C 46 163.178, 44.522 164.055, 42.572 164.420 C 39.804 164.940, 39.020 165.634, 38.493 168.032 C 38.134 169.664, 37.202 171, 36.421 171 C 35.639 171, 35 171.900, 35 173 C 35 174.852, 35.667 175, 44 175 C 51.013 175, 53 174.693, 53 173.611 C 53 172.816, 54.495 171.942, 56.500 171.566 C 58.595 171.173, 60 170.325, 60 169.455 C 60 168.655, 60.900 168, 62 168 C 63.100 168, 64 167.345, 64 166.545 C 64 165.675, 65.405 164.827, 67.500 164.434 C 69.505 164.058, 71 163.184, 71 162.389 C 71 161.336, 72.694 161, 78 161 C 83.556 161, 85 161.310, 85 162.500 C 85 163.333, 85.889 164, 87 164 C 88.333 164, 89 164.667, 89 166 C 89 169.461, 91.861 168.258, 92.566 164.500 C 92.942 162.495, 93.816 161, 94.611 161 C 95.375 161, 96 160.100, 96 159 C 96 157.381, 96.667 157, 99.500 157 C 101.944 157, 103 156.548, 103 155.500 C 103 154.477, 104.034 153.996, 106.250 153.986 C 111 153.966, 114 152.959, 114 151.383 C 114 150.436, 115.261 150, 118 150 C 120.834 150, 122 149.576, 122 148.545 C 122 147.675, 123.405 146.827, 125.500 146.434 C 127.505 146.058, 129 145.184, 129 144.389 C 129 143.503, 130.121 143, 132.094 143 C 134.346 143, 135.329 142.456, 135.710 141 C 136.103 139.497, 137.074 139, 139.617 139 C 141.957 139, 143 138.538, 143 137.500 C 143 136.452, 144.056 136, 146.500 136 C 149.333 136, 150 135.619, 150 134 C 150 132.381, 150.667 132, 153.500 132 C 155.803 132, 157 131.530, 157 130.625 C 157 129.254, 161.120 128, 165.625 128 C 167.069 128, 168 127.412, 168 126.500 C 168 125.462, 169.043 125, 171.383 125 C 173.926 125, 174.897 124.503, 175.290 123 C 175.690 121.468, 176.654 121, 179.406 121 C 181.784 121, 183 120.536, 183 119.629 C 183 118.168, 194.142 116.352, 196.013 117.508 C 196.556 117.843, 197 119.666, 197 121.559 C 197 123.828, 197.473 125, 198.389 125 C 199.184 125, 200.058 126.495, 200.434 128.500 C 200.827 130.595, 201.675 132, 202.545 132 C 203.541 132, 204 133.104, 204 135.500 C 204 137.820, 204.468 139, 205.389 139 C 206.184 139, 207.058 140.495, 207.434 142.500 C 207.797 144.437, 208.690 146, 209.434 146 C 210.178 146, 211.071 147.563, 211.434 149.500 C 211.827 151.595, 212.675 153, 213.545 153 C 214.430 153, 215 153.979, 215 155.500 C 215 157.056, 215.567 158, 216.500 158 C 217.510 158, 218 159.010, 218 161.094 C 218 163.346, 218.544 164.329, 220 164.710 C 221.503 165.103, 222 166.074, 222 168.617 C 222 170.911, 222.468 172, 223.455 172 C 224.325 172, 225.173 173.405, 225.566 175.500 C 225.927 177.425, 226.797 179, 227.500 179 C 228.203 179, 229.073 180.575, 229.434 182.500 C 229.795 184.425, 230.520 186, 231.045 186 C 232.584 186, 232.141 188.732, 230.500 189.362 C 229.675 189.678, 229 190.626, 229 191.469 C 229 192.311, 228.325 193, 227.500 193 C 226.667 193, 226 193.889, 226 195 C 226 196.333, 225.333 197, 224 197 C 222.381 197, 222 197.667, 222 200.500 C 222 203.333, 221.619 204, 220 204 C 218.667 204, 218 204.667, 218 206 C 218 207.111, 217.333 208, 216.500 208 C 215.675 208, 215 208.675, 215 209.500 C 215 210.325, 214.283 211, 213.406 211 C 212.530 211, 211.577 211.900, 211.290 213 C 211.002 214.100, 210.144 215, 209.383 215 C 208.623 215, 208 215.648, 208 216.440 C 208 217.381, 206.703 217.987, 204.250 218.190 C 200.690 218.484, 200.500 218.677, 200.500 222 L 200.500 225.500 205.750 225.802 C 210.476 226.074, 211 225.900, 211 224.052 C 211 222.667, 211.650 222, 213 222 C 214.111 222, 215 221.333, 215 220.500 C 215 219.675, 215.717 219, 216.594 219 C 217.470 219, 218.423 218.100, 218.710 217 C 218.998 215.900, 219.856 215, 220.617 215 C 221.377 215, 222 214.100, 222 213 C 222 211.667, 222.667 211, 224 211 C 225.111 211, 226 210.333, 226 209.500 C 226 208.675, 226.675 208, 227.500 208 C 228.333 208, 229 207.111, 229 206 C 229 204.667, 229.667 204, 231 204 C 232.619 204, 233 203.333, 233 200.500 C 233 197.167, 233.167 197, 236.500 197 C 239.333 197, 240 197.381, 240 199 C 240 200.100, 240.655 201, 241.455 201 C 242.325 201, 243.173 202.405, 243.566 204.500 C 243.942 206.505, 244.816 208, 245.611 208 C 246.532 208, 247 209.180, 247 211.500 C 247 214.333, 247.381 215, 249 215 C 250.619 215, 251 215.667, 251 218.500 C 251 220.820, 251.468 222, 252.389 222 C 253.184 222, 254.058 223.495, 254.434 225.500 C 254.827 227.595, 255.675 229, 256.545 229 C 257.541 229, 258 230.104, 258 232.500 C 258 234.944, 258.452 236, 259.500 236 C 260.333 236, 261 236.889, 261 238 C 261 239.667, 261.667 240, 265 240 L 269 240 269 234.500 C 269 230.278, 269.348 229, 270.500 229 C 271.325 229, 272 228.325, 272 227.500 C 272 226.675, 271.325 226, 270.500 226 C 269.667 226, 269 225.111, 269 224 C 269 222.381, 268.333 222, 265.500 222 C 262.167 222, 262 221.833, 262 218.500 C 262 215.667, 261.619 215, 260 215 C 258.667 215, 258 214.333, 258 213 C 258 211.900, 257.375 211, 256.611 211 C 255.816 211, 254.942 209.505, 254.566 207.500 C 254.173 205.405, 253.325 204, 252.455 204 C 251.468 204, 251 202.911, 251 200.617 C 251 198.074, 250.503 197.103, 249 196.710 C 247.544 196.329, 247 195.346, 247 193.094 C 247 191.010, 246.510 190, 245.500 190 C 244.667 190, 244 189.111, 244 188 C 244 186.900, 244.623 186, 245.383 186 C 246.144 186, 247.002 185.100, 247.290 184 C 247.577 182.900, 248.530 182, 249.406 182 C 250.283 182, 251 181.325, 251 180.500 C 251 179.675, 251.623 179, 252.383 179 C 253.144 179, 254.002 178.100, 254.290 177 C 254.577 175.900, 255.530 175, 256.406 175 C 257.283 175, 258 174.375, 258 173.611 C 258 172.816, 259.495 171.942, 261.500 171.566 C 263.595 171.173, 265 170.325, 265 169.455 C 265 168.358, 266.354 168, 270.500 168 L 276 168 276 164.500 L 276 161 267 161 C 259.667 161, 258 161.278, 258 162.500 C 258 163.333, 257.111 164, 256 164 C 254.667 164, 254 164.667, 254 166 C 254 167.333, 253.333 168, 252 168 C 250.889 168, 250 168.667, 250 169.500 C 250 170.325, 249.325 171, 248.500 171 C 247.667 171, 247 171.889, 247 173 C 247 174.333, 246.333 175, 245 175 C 243.667 175, 243 175.667, 243 177 C 243 178.549, 242.333 179, 240.045 179 C 237.460 179, 237.008 178.562, 236.434 175.500 C 236.058 173.495, 235.184 172, 234.389 172 C 233.461 172, 233 170.806, 233 168.406 C 233 165.654, 232.532 164.690, 231 164.290 C 229.497 163.897, 229 162.926, 229 160.383 C 229 158.043, 228.538 157, 227.500 157 C 226.675 157, 226 156.283, 226 155.406 C 226 154.530, 225.100 153.577, 224 153.290 C 222.497 152.897, 222 151.926, 222 149.383 C 222 147.089, 221.532 146, 220.545 146 C 219.675 146, 218.827 144.595, 218.434 142.500 C 218.073 140.575, 217.203 139, 216.500 139 C 215.797 139, 214.927 137.425, 214.566 135.500 C 214.173 133.405, 213.325 132, 212.455 132 C 211.655 132, 211 131.100, 211 130 C 211 128.889, 210.333 128, 209.500 128 C 208.452 128, 208 126.944, 208 124.500 C 208 121.667, 207.619 121, 206 121 C 204.242 121, 204 120.333, 204 115.500 L 204 110 207.500 110 C 209.944 110, 211 109.548, 211 108.500 C 211 107.348, 212.278 107, 216.500 107 C 221.333 107, 222 106.758, 222 105 C 222 103.242, 222.667 103, 227.500 103 C 231.492 103, 233 102.624, 233 101.629 C 233 100.621, 235.385 100.071, 242 99.554 C 248.793 99.022, 251 98.500, 251 97.425 C 251 96.364, 252.407 96, 256.500 96 C 261.333 96, 262 95.758, 262 94 C 262 92.889, 262.667 92, 263.500 92 C 264.325 92, 265 91.325, 265 90.500 C 265 89.452, 263.944 89, 261.500 89 L 258 89 258 83.500 C 258 79.354, 257.642 78, 256.545 78 C 255.675 78, 254.827 76.595, 254.434 74.500 C 254.073 72.575, 253.253 71, 252.611 71 C 251.969 71, 250.660 70.083, 249.700 68.963 C 248.141 67.142, 246.977 66.956, 238.728 67.213 L 229.500 67.500 229.198 72.750 L 228.895 78 237.948 78 C 244.988 78, 247 78.307, 247 79.383 C 247 80.144, 247.900 81.002, 249 81.290 C 250.532 81.690, 251 82.654, 251 85.406 L 251 89 245.500 89 C 241.278 89, 240 89.348, 240 90.500 C 240 91.692, 238.545 92, 232.906 92 C 226.654 92, 225.751 92.237, 225.290 94 C 224.857 95.656, 223.926 96, 219.883 96 C 216.344 96, 215 96.389, 215 97.412 C 215 98.280, 213.459 99.085, 211 99.500 C 208.541 99.915, 207 100.720, 207 101.588 C 207 102.611, 205.658 103, 202.130 103 L 197.260 103 196.736 98.349 C 196.420 95.551, 195.572 93.340, 194.606 92.799 C 193.615 92.245, 193 90.579, 193 88.450 C 193 86.050, 192.544 85, 191.500 85 C 190.310 85, 190 83.556, 190 78 C 190 72.444, 190.310 71, 191.500 71 C 192.333 71, 193 70.111, 193 69 C 193 67.262, 192.333 67, 187.906 67 C 183.654 67, 182.726 67.330, 182.290 69 C 182.002 70.100, 181.144 71, 180.383 71 C 179.337 71, 179 72.707, 179 78 C 179 83.362, 179.330 85, 180.412 85 C 181.280 85, 182.085 86.541, 182.500 89 C 182.915 91.459, 183.720 93, 184.588 93 C 185.616 93, 186 94.361, 186 98 C 186 101.778, 186.367 103, 187.500 103 C 188.548 103, 189 104.056, 189 106.500 L 189 110 184 110 C 179.667 110, 179 110.267, 179 112 C 179 113.758, 178.333 114, 173.500 114 C 169.335 114, 168 114.356, 168 115.466 C 168 116.469, 166.424 117.140, 163 117.594 C 159.754 118.025, 158 118.739, 158 119.629 C 158 120.562, 156.722 121, 154 121 C 150.667 121, 150 121.333, 150 123 C 150 124.619, 149.333 125, 146.500 125 C 144.056 125, 143 125.452, 143 126.500 C 143 127.325, 142.325 128, 141.500 128 C 140.675 128, 140 127.325, 140 126.500 C 140 125.675, 140.450 125, 141 125 C 141.550 125, 142 124.283, 142 123.406 C 142 122.530, 142.889 121.580, 143.975 121.296 C 145.261 120.960, 146.173 119.596, 146.587 117.390 C 146.947 115.469, 147.825 114, 148.611 114 C 149.375 114, 150 113.377, 150 112.617 C 150 111.856, 150.900 110.998, 152 110.710 C 153.100 110.423, 154 109.470, 154 108.594 C 154 107.717, 154.675 107, 155.500 107 C 156.333 107, 157 106.111, 157 105 C 157 103.667, 157.667 103, 159 103 C 160.619 103, 161 102.333, 161 99.500 C 161 96.667, 161.381 96, 163 96 C 164.111 96, 165 95.333, 165 94.500 C 165 93.675, 165.675 93, 166.500 93 C 167.433 93, 168 92.056, 168 90.500 C 168 88.944, 168.567 88, 169.500 88 C 171.811 88, 171.275 86.307, 168.750 85.630 C 164.008 84.359, 161 84.891, 161 87 C 161 88.333, 160.333 89, 159 89 C 157.667 89, 157 89.667, 157 91 C 157 92.100, 156.361 93, 155.579 93 C 154.798 93, 153.862 94.350, 153.500 96 C 153.138 97.650, 152.202 99, 151.421 99 C 150.639 99, 150 99.848, 150 100.883 C 150 101.926, 149.107 103, 148 103.290 C 146.544 103.671, 146 104.654, 146 106.906 C 146 109.775, 145.746 110, 142.500 110 C 139.667 110, 139 110.381, 139 112 C 139 113.852, 138.333 114, 130 114 L 121 114 121 103 C 121 92.667, 121.121 92, 123 92 C 124.111 92, 125 91.333, 125 90.500 C 125 89.452, 126.056 89, 128.500 89 C 131.833 89, 132 88.833, 132 85.500 C 132 82.167, 132.167 82, 135.500 82 C 138.333 82, 139 81.619, 139 80 C 139 78.242, 139.667 78, 144.500 78 C 148.500 78, 150 77.625, 150 76.625 C 150 75.254, 154.120 74, 158.625 74 C 160.069 74, 161 73.412, 161 72.500 C 161 71.452, 162.056 71, 164.500 71 C 167.333 71, 168 71.381, 168 73 C 168 74.629, 168.667 75, 171.594 75 C 174.346 75, 175.310 74.532, 175.710 73 C 175.998 71.900, 176.856 71, 177.617 71 C 178.377 71, 179 70.100, 179 69 C 179 67.667, 178.333 67, 177 67 C 175.889 67, 175 66.333, 175 65.500 C 175 64.278, 173.333 64, 166 64 C 158.667 64, 157 64.278, 157 65.500 M 68.268 123 C 66.957 124.531, 65.318 125, 61.278 125 C 57.253 125, 56 125.356, 56 126.500 C 56 127.466, 55.022 128.005, 53.250 128.014 C 48.968 128.035, 46 129.101, 46 130.617 C 46 131.377, 45.100 132, 44 132 C 42.900 132, 42 132.623, 42 133.383 C 42 134.144, 41.100 135.002, 40 135.290 C 37.920 135.834, 37.389 139.117, 38.630 143.750 C 39.105 145.521, 39.953 146, 42.617 146 C 44.957 146, 46 145.538, 46 144.500 C 46 143.664, 46.890 143, 48.010 143 C 49.115 143, 50.790 142.100, 51.732 141 C 52.674 139.900, 54.244 139, 55.222 139 C 56.200 139, 57 138.325, 57 137.500 C 57 136.534, 57.978 135.995, 59.750 135.986 C 64.032 135.965, 67 134.899, 67 133.383 C 67 132.308, 69.004 132, 76 132 C 83.333 132, 85 132.278, 85 133.500 C 85 134.325, 85.717 135, 86.594 135 C 87.470 135, 88.423 135.900, 88.710 137 C 89.103 138.503, 90.074 139, 92.617 139 L 96 139 96 134 C 96 130.092, 95.652 129, 94.406 129 C 93.530 129, 92.577 128.100, 92.290 127 C 92.002 125.900, 91.197 125, 90.500 125 C 89.803 125, 88.998 124.100, 88.710 123 C 88.236 121.185, 87.346 121, 79.084 121 C 71.218 121, 69.748 121.272, 68.268 123 M 140 155.500 C 140 156.325, 139.163 157, 138.139 157 C 135.659 157, 135.020 162.559, 135.009 184.250 C 135.001 198.468, 134.773 201, 133.500 201 C 132.214 201, 132 204, 132 222 C 132 240, 132.214 243, 133.500 243 C 134.333 243, 135 243.889, 135 245 C 135 246.667, 135.667 247, 139 247 L 143 247 143 227.500 C 143 210.833, 143.218 208, 144.500 208 C 145.325 208, 146 208.675, 146 209.500 C 146 210.583, 147.111 211, 150 211 C 152.739 211, 154 210.564, 154 209.617 C 154 208.856, 154.900 207.998, 156 207.710 C 157.100 207.423, 158 206.470, 158 205.594 C 158 204.348, 159.092 204, 163 204 L 168 204 168 213 L 168 222 171.380 222 L 174.760 222 175.211 215.766 C 175.853 206.879, 175.052 200, 173.373 200 C 172.618 200, 172 199.381, 172 198.625 C 172 196.545, 166.564 195.873, 155.750 196.616 C 148.536 197.112, 146 197.639, 146 198.643 C 146 199.389, 145.325 200, 144.500 200 C 143.286 200, 143 198.402, 143 191.617 C 143 184.074, 143.201 183.181, 145 182.710 C 146.532 182.310, 147 181.346, 147 178.594 C 147 176.066, 147.445 175, 148.500 175 C 149.325 175, 150 174.325, 150 173.500 C 150 172.300, 151.500 172, 157.500 172 C 163.500 172, 165 172.300, 165 173.500 C 165 174.548, 166.056 175, 168.500 175 C 170.857 175, 172 175.464, 172 176.421 C 172 177.202, 173.336 178.134, 174.968 178.493 C 177.366 179.020, 178.060 179.804, 178.580 182.572 C 178.945 184.522, 179.822 186, 180.611 186 C 181.614 186, 182 187.414, 182 191.094 C 182 195.346, 182.330 196.274, 184 196.710 C 185.913 197.211, 186 198.074, 186 216.617 C 186 233.180, 185.782 236, 184.500 236 C 183.667 236, 183 236.889, 183 238 C 183 239.333, 182.333 240, 181 240 C 179.889 240, 179 240.667, 179 241.500 C 179 242.412, 178.069 243, 176.625 243 C 172.120 243, 168 244.254, 168 245.625 C 168 246.655, 166.304 247.003, 161.250 247.014 C 153.152 247.030, 150 247.759, 150 249.617 C 150 250.627, 148.516 251, 144.500 251 L 139 251 139 256.625 L 139 262.250 142.125 261.625 C 143.844 261.281, 145.644 261, 146.125 261 C 146.606 261, 147 260.325, 147 259.500 C 147 258.348, 148.278 258, 152.500 258 C 156.516 258, 158 257.627, 158 256.617 C 158 255.101, 160.968 254.035, 165.250 254.014 C 166.918 254.005, 168 253.456, 168 252.616 C 168 251.621, 169.850 251.115, 174.600 250.813 C 179.462 250.503, 181.451 249.945, 182.150 248.696 C 182.708 247.699, 184.315 247, 186.050 247 C 188.006 247, 189 246.494, 189 245.500 C 189 244.667, 189.889 244, 191 244 C 192.333 244, 193 243.333, 193 242 C 193 240.889, 192.333 240, 191.500 240 C 190.667 240, 190 239.111, 190 238 C 190 236.900, 190.637 236, 191.416 236 C 192.539 236, 192.902 233.562, 193.166 224.250 C 193.756 203.487, 193.075 190, 191.438 190 C 190.427 190, 190 188.812, 190 186 C 190 182.667, 189.667 182, 188 182 C 186.273 182, 186 181.333, 186 177.111 C 186 172.316, 185.933 172.210, 182.500 171.566 C 180.405 171.173, 179 170.325, 179 169.455 C 179 168.459, 177.896 168, 175.500 168 C 172.667 168, 172 167.619, 172 166 C 172 164.333, 171.333 164, 168 164 C 165.111 164, 164 163.583, 164 162.500 C 164 161.675, 163.325 161, 162.500 161 C 161.675 161, 161 161.675, 161 162.500 C 161 163.548, 159.944 164, 157.500 164 C 155.180 164, 154 163.532, 154 162.611 C 154 161.816, 152.505 160.942, 150.500 160.566 C 148.405 160.173, 147 159.325, 147 158.455 C 147 157.655, 146.100 157, 145 157 C 143.889 157, 143 156.333, 143 155.500 C 143 154.675, 142.325 154, 141.500 154 C 140.675 154, 140 154.675, 140 155.500 M 42 193 C 42 201.611, 42.296 204, 43.361 204 C 44.751 204, 45.974 210.622, 45.991 218.250 C 45.997 220.913, 46.435 222, 47.500 222 C 48.637 222, 49 223.233, 49 227.094 C 49 231.346, 49.330 232.274, 51 232.710 C 52.503 233.103, 53 234.074, 53 236.617 L 53 240 60 240 C 66.333 240, 67 239.810, 67 238 C 67 236.667, 67.667 236, 69 236 C 70.111 236, 71 235.333, 71 234.500 C 71 233.675, 71.625 233, 72.389 233 C 73.184 233, 74.058 231.505, 74.434 229.500 C 74.827 227.405, 75.675 226, 76.545 226 C 77.345 226, 78 225.100, 78 224 C 78 222.667, 78.667 222, 80 222 C 81.111 222, 82 221.333, 82 220.500 C 82 219.675, 82.625 219, 83.389 219 C 84.184 219, 85.058 217.505, 85.434 215.500 C 85.827 213.405, 86.675 212, 87.545 212 C 88.576 212, 89 210.834, 89 208 C 89 205.111, 89.417 204, 90.500 204 C 91.333 204, 92 203.111, 92 202 C 92 200.381, 91.333 200, 88.500 200 C 85.167 200, 85 199.833, 85 196.500 L 85 193 76 193 C 68.791 193, 67 193.290, 67 194.455 C 67 195.325, 65.595 196.173, 63.500 196.566 C 61.575 196.927, 60 197.795, 60 198.495 C 60 199.194, 59.100 200.002, 58 200.290 C 56.544 200.671, 56 201.654, 56 203.906 C 56 205.990, 55.510 207, 54.500 207 C 53.262 207, 53 205.167, 53 196.500 C 53 187.833, 53.262 186, 54.500 186 C 56.854 186, 56.253 183.301, 53.750 182.630 C 52.513 182.299, 49.362 182.021, 46.750 182.014 L 42 182 42 193 M 70 202.500 C 70 203.325, 69.325 204, 68.500 204 C 67.675 204, 67 204.675, 67 205.500 C 67 206.325, 66.325 207, 65.500 207 C 64.644 207, 64 207.899, 64 209.094 C 64 210.346, 63.197 211.397, 62 211.710 C 60.240 212.170, 60 213.074, 60 219.233 C 60 226.005, 60.074 226.214, 62.250 225.630 C 63.487 225.299, 65.063 225.021, 65.750 225.014 C 66.458 225.006, 67 223.749, 67 222.117 C 67 220.074, 67.583 219.081, 69 218.710 C 70.100 218.423, 71 217.470, 71 216.594 C 71 215.717, 71.675 215, 72.500 215 C 73.325 215, 74 214.283, 74 213.406 C 74 212.530, 74.900 211.577, 76 211.290 C 77.656 210.857, 78 209.926, 78 205.883 L 78 201 74 201 C 71.111 201, 70 201.417, 70 202.500" stroke="none" fill="black" fill-rule="evenodd"/>
</svg>