<svg xmlns="http://www.w3.org/2000/svg" width="300" height="300" viewBox="0 0 300 300" version="1.1">
	<path d="M 236 61.466 C 236 62.469, 234.424 63.140, 231 63.594 C 227.754 64.025, 226 64.739, 226 65.629 C 226 66.383, 225.100 67, 224 67 C 222.667 67, 222 67.667, 222 69 C 222 70.111, 222.667 71, 223.500 71 C 224.325 71, 225 71.675, 225 72.500 C 225 73.325, 224.325 74, 223.500 74 C 222.300 74, 222 75.500, 222 81.500 C 222 88.333, 222.178 89, 224 89 C 225.111 89, 226 89.667, 226 90.500 C 226 91.325, 226.675 92, 227.500 92 C 228.333 92, 229 92.889, 229 94 C 229 95.822, 229.667 96, 236.500 96 C 242.396 96, 244 95.689, 244 94.545 C 244 93.675, 245.405 92.827, 247.500 92.434 C 249.505 92.058, 251 91.184, 251 90.389 C 251 89.625, 251.900 89, 253 89 C 254.333 89, 255 88.333, 255 87 C 255 85.889, 255.667 85, 256.500 85 C 257.690 85, 258 83.556, 258 78 C 258 72.444, 257.690 71, 256.500 71 C 255.667 71, 255 70.111, 255 69 C 255 67.667, 254.333 67, 253 67 C 251.896 67, 251 66.333, 251 65.512 C 251 64.549, 249.588 63.798, 247 63.384 C 244.587 62.998, 243 62.200, 243 61.372 C 243 60.471, 241.800 60, 239.500 60 C 237.092 60, 236 60.457, 236 61.466 M 233.250 70.732 C 229.147 71.102, 229 71.234, 229 74.557 C 229 77.333, 229.387 78, 231 78 C 232.619 78, 233 78.667, 233 81.500 L 233 85 240 85 C 245.293 85, 247 84.663, 247 83.617 C 247 82.856, 247.900 81.998, 249 81.710 C 250.532 81.310, 251 80.346, 251 77.594 C 251 75.066, 250.555 74, 249.500 74 C 248.675 74, 248 73.384, 248 72.631 C 248 71.332, 242.412 69.813, 239 70.186 C 238.175 70.276, 235.588 70.522, 233.250 70.732 M 171 101.500 C 171 102.325, 170.325 103, 169.500 103 C 168.675 103, 168 103.623, 168 104.383 C 168 105.144, 167.100 106.002, 166 106.290 C 164.900 106.577, 164 107.572, 164 108.500 C 164 109.428, 164.900 110.423, 166 110.710 C 167.392 111.074, 168 112.074, 168 114 C 168 115.848, 168.613 116.927, 169.844 117.249 C 171.661 117.724, 171.832 119.468, 171.116 130.250 C 171.052 131.213, 170.325 132, 169.500 132 C 168.452 132, 168 133.056, 168 135.500 C 168 137.803, 167.530 139, 166.625 139 C 165.254 139, 164 143.120, 164 147.625 C 164 149.069, 163.412 150, 162.500 150 C 161.348 150, 161 151.278, 161 155.500 C 161 159.646, 160.642 161, 159.545 161 C 158.675 161, 157.827 162.405, 157.434 164.500 C 157.058 166.505, 156.184 168, 155.389 168 C 154.594 168, 154 169.015, 154 170.375 C 154 174.880, 152.746 179, 151.375 179 C 150.470 179, 150 180.197, 150 182.500 C 150 185.333, 149.619 186, 148 186 C 146.381 186, 146 186.667, 146 189.500 C 146 191.944, 145.548 193, 144.500 193 C 143.667 193, 143 193.889, 143 195 C 143 196.100, 142.345 197, 141.545 197 C 140.675 197, 139.827 198.405, 139.434 200.500 C 139.058 202.505, 138.184 204, 137.389 204 C 136.625 204, 136 204.717, 136 205.594 C 136 206.470, 135.100 207.423, 134 207.710 C 132.900 207.998, 132 208.803, 132 209.500 C 132 210.197, 131.100 211.002, 130 211.290 C 128.900 211.577, 128 212.530, 128 213.406 C 128 214.510, 127.078 215, 125 215 C 123 215, 122 215.500, 122 216.500 C 122 217.333, 121.111 218, 120 218 C 118.667 218, 118 218.667, 118 220 C 118 221.333, 117.333 222, 116 222 C 114.900 222, 114 222.625, 114 223.389 C 114 224.184, 112.505 225.058, 110.500 225.434 C 108.405 225.827, 107 226.675, 107 227.545 C 107 228.642, 105.646 229, 101.500 229 C 97.500 229, 96 229.375, 96 230.375 C 96 232.060, 91.658 233, 83.875 233 C 78.667 233, 78 232.773, 78 231 C 78 229.273, 77.333 229, 73.117 229 C 69.074 229, 68.143 228.656, 67.710 227 C 67.423 225.900, 66.470 225, 65.594 225 C 64.717 225, 64 224.325, 64 223.500 C 64 222.667, 63.111 222, 62 222 C 60.667 222, 60 221.333, 60 220 C 60 218.900, 59.345 218, 58.545 218 C 57.675 218, 56.827 216.595, 56.434 214.500 C 56.073 212.575, 55.205 211, 54.505 211 C 53.649 211, 53.098 208.879, 52.820 204.509 C 52.519 199.784, 51.923 197.664, 50.631 196.720 C 48.586 195.224, 49.221 190.513, 51.590 189.604 C 52.568 189.228, 53 187.368, 53 183.531 C 53 179.419, 53.364 178, 54.420 178 C 55.431 178, 56.042 176.123, 56.537 171.500 C 57.022 166.968, 57.652 165, 58.616 165 C 59.564 165, 60 163.739, 60 161 C 60 157.667, 60.333 157, 62 157 C 63.619 157, 64 156.333, 64 153.500 C 64 151.056, 64.452 150, 65.500 150 C 66.538 150, 67 148.957, 67 146.617 C 67 144.074, 67.497 143.103, 69 142.710 C 70.532 142.310, 71 141.346, 71 138.594 C 71 136.216, 71.464 135, 72.371 135 C 73.261 135, 73.975 133.246, 74.406 130 C 74.860 126.576, 75.531 125, 76.534 125 C 77.533 125, 78 123.922, 78 121.617 C 78 119.074, 78.497 118.103, 80 117.710 C 81.670 117.274, 82 116.346, 82 112.094 L 82 107 73 107 C 65.667 107, 64 107.278, 64 108.500 C 64 109.565, 62.913 110.003, 60.250 110.009 C 52.622 110.026, 46 111.249, 46 112.639 C 46 113.388, 45.100 114, 44 114 C 42.381 114, 42 114.667, 42 117.500 C 42 119.944, 41.548 121, 40.500 121 C 38.146 121, 38.747 123.699, 41.250 124.370 C 45.992 125.641, 49 125.109, 49 123 C 49 121.381, 49.667 121, 52.500 121 C 54.944 121, 56 120.548, 56 119.500 C 56 118.348, 57.278 118, 61.500 118 L 67 118 67 121.500 C 67 123.896, 66.541 125, 65.545 125 C 64.675 125, 63.827 126.405, 63.434 128.500 C 63.058 130.505, 62.184 132, 61.389 132 C 60.435 132, 60 133.254, 60 136 C 60 138.834, 59.576 140, 58.545 140 C 57.675 140, 56.827 141.405, 56.434 143.500 C 56.058 145.505, 55.184 147, 54.389 147 C 53.389 147, 53 148.400, 53 152 C 53 156.333, 52.733 157, 51 157 C 49.333 157, 49 157.667, 49 161 C 49 163.741, 48.564 165, 47.615 165 C 46.687 165, 46.004 166.812, 45.543 170.500 C 45.071 174.278, 44.409 176, 43.428 176 C 42.244 176, 42 179.070, 42 194 C 42 208.659, 42.257 212, 43.383 212 C 44.899 212, 45.965 214.968, 45.986 219.250 C 45.997 221.329, 46.488 222, 48 222 C 49.111 222, 50 222.667, 50 223.500 C 50 224.325, 50.675 225, 51.500 225 C 52.333 225, 53 225.889, 53 227 C 53 228.129, 53.667 229, 54.531 229 C 55.374 229, 56.311 229.648, 56.615 230.439 C 56.919 231.230, 58.479 232.166, 60.084 232.518 C 61.688 232.871, 63 233.748, 63 234.468 C 63 235.188, 64.575 236.073, 66.500 236.434 C 68.595 236.827, 70 237.675, 70 238.545 C 70 239.576, 71.166 240, 74 240 C 76.889 240, 78 240.417, 78 241.500 C 78 242.700, 79.500 243, 85.500 243 C 91.500 243, 93 242.700, 93 241.500 C 93 240.310, 94.444 240, 100 240 C 105.459 240, 107 239.680, 107 238.545 C 107 237.675, 108.405 236.827, 110.500 236.434 C 112.505 236.058, 114 235.184, 114 234.389 C 114 233.625, 114.900 233, 116 233 C 117.100 233, 118 232.345, 118 231.545 C 118 230.675, 119.405 229.827, 121.500 229.434 C 123.425 229.073, 125 228.205, 125 227.505 C 125 226.806, 125.900 225.998, 127 225.710 C 128.100 225.423, 129 224.470, 129 223.594 C 129 222.717, 129.675 222, 130.500 222 C 131.325 222, 132 221.325, 132 220.500 C 132 219.667, 132.889 219, 134 219 C 135.333 219, 136 218.333, 136 217 C 136 215.889, 136.667 215, 137.500 215 C 138.325 215, 139 214.283, 139 213.406 C 139 212.530, 139.900 211.577, 141 211.290 C 142.100 211.002, 143 210.144, 143 209.383 C 143 208.623, 143.625 208, 144.389 208 C 145.184 208, 146.058 206.505, 146.434 204.500 C 146.827 202.405, 147.675 201, 148.545 201 C 149.430 201, 150 200.021, 150 198.500 C 150 196.979, 150.570 196, 151.455 196 C 152.325 196, 153.173 194.595, 153.566 192.500 C 153.942 190.495, 154.816 189, 155.611 189 C 156.602 189, 157 187.632, 157 184.222 C 157 180.682, 157.518 179.001, 159 177.732 C 160.383 176.548, 161 174.782, 161 172.010 C 161 169.255, 161.435 168, 162.389 168 C 163.184 168, 164.058 166.505, 164.434 164.500 C 164.827 162.405, 165.675 161, 166.545 161 C 167.642 161, 168 159.646, 168 155.500 C 168 151.500, 168.375 150, 169.375 150 C 170.904 150, 172 145.772, 172 139.875 C 172 137.097, 172.425 136, 173.500 136 C 174.555 136, 175 134.934, 175 132.406 C 175 129.654, 175.468 128.690, 177 128.290 C 178.100 128.002, 179 127.144, 179 126.383 C 179 125.623, 179.675 125, 180.500 125 C 181.325 125, 182 125.625, 182 126.389 C 182 127.184, 183.495 128.058, 185.500 128.434 C 187.595 128.827, 189 129.675, 189 130.545 C 189 131.345, 189.900 132, 191 132 C 192.100 132, 193 132.655, 193 133.455 C 193 134.325, 194.405 135.173, 196.500 135.566 C 198.425 135.927, 200 136.808, 200 137.523 C 200 138.262, 201.730 139.116, 204 139.500 C 206.459 139.915, 208 140.720, 208 141.588 C 208 142.365, 208.675 143, 209.500 143 C 210.548 143, 211 141.944, 211 139.500 C 211 137.056, 210.548 136, 209.500 136 C 208.667 136, 208 135.111, 208 134 C 208 132.667, 207.333 132, 206 132 C 204.900 132, 204 131.345, 204 130.545 C 204 129.675, 202.595 128.827, 200.500 128.434 C 198.575 128.073, 196.992 127.265, 196.983 126.639 C 196.962 125.259, 192.613 121, 191.226 121 C 190.680 121, 189.998 120.100, 189.710 119 C 189.423 117.900, 188.470 117, 187.594 117 C 186.717 117, 186 116.325, 186 115.500 C 186 114.675, 185.345 114, 184.545 114 C 183.675 114, 182.827 112.595, 182.434 110.500 C 182.058 108.495, 181.184 107, 180.389 107 C 179.625 107, 179 106.100, 179 105 C 179 103.667, 178.333 103, 177 103 C 175.889 103, 175 102.333, 175 101.500 C 175 100.667, 174.111 100, 173 100 C 171.889 100, 171 100.667, 171 101.500" stroke="none" fill="black" fill-rule="evenodd"/>
</svg>