<svg xmlns="http://www.w3.org/2000/svg" width="300" height="300" viewBox="0 0 300 300" version="1.1">
	<path d="M 150 46 C 150 47.100, 149.345 48, 148.545 48 C 147.675 48, 146.827 49.405, 146.434 51.500 C 146.058 53.505, 145.184 55, 144.389 55 C 143.477 55, 143 56.163, 143 58.383 C 143 60.926, 142.503 61.897, 141 62.290 C 139.468 62.690, 139 63.654, 139 66.406 C 139 68.884, 138.548 70, 137.545 70 C 136.675 70, 135.827 71.405, 135.434 73.500 C 135.058 75.505, 134.184 77, 133.389 77 C 132.468 77, 132 78.180, 132 80.500 C 132 83.333, 131.619 84, 130 84 C 128.381 84, 128 84.667, 128 87.500 C 128 89.944, 127.548 91, 126.500 91 C 125.477 91, 124.996 92.034, 124.986 94.250 C 124.966 99, 123.959 102, 122.383 102 C 121.469 102, 121 103.187, 121 105.500 C 121 107.944, 120.548 109, 119.500 109 C 118.667 109, 118 109.889, 118 111 C 118 112.333, 117.333 113, 116 113 C 114.273 113, 114 113.667, 114 117.883 C 114 121.926, 113.656 122.857, 112 123.290 C 110.301 123.734, 110 124.654, 110 129.406 C 110 133.502, 109.630 135, 108.617 135 C 107.856 135, 106.980 135.967, 106.671 137.149 C 105.853 140.277, 107.028 145, 108.625 145 C 109.381 145, 110 145.900, 110 147 C 110 148.333, 110.667 149, 112 149 C 113.111 149, 114 149.667, 114 150.500 C 114 151.412, 114.931 152, 116.375 152 C 120.880 152, 125 153.254, 125 154.625 C 125 155.530, 126.197 156, 128.500 156 C 130.944 156, 132 156.452, 132 157.500 C 132 158.412, 132.931 159, 134.375 159 C 138.880 159, 143 160.254, 143 161.625 C 143 162.406, 144.027 163, 145.375 163 C 149.880 163, 154 164.254, 154 165.625 C 154 166.530, 155.197 167, 157.500 167 C 161.271 167, 162.343 169.149, 159.394 170.799 C 158.428 171.340, 157.580 173.551, 157.264 176.349 C 156.944 179.193, 156.242 181, 155.458 181 C 154.741 181, 153.878 182.765, 153.500 185 C 153.085 187.459, 152.280 189, 151.412 189 C 150.465 189, 150 190.152, 150 192.500 C 150 194.896, 149.541 196, 148.545 196 C 147.675 196, 146.827 197.405, 146.434 199.500 C 146.073 201.425, 145.203 203, 144.500 203 C 143.797 203, 142.927 204.575, 142.566 206.500 C 142.173 208.595, 141.325 210, 140.455 210 C 139.655 210, 139 210.900, 139 212 C 139 213.100, 138.361 214, 137.579 214 C 136.798 214, 135.862 215.350, 135.500 217 C 135.138 218.650, 134.202 220, 133.421 220 C 132.639 220, 132 220.848, 132 221.883 C 132 222.926, 131.107 224, 130 224.290 C 128.900 224.577, 128 225.530, 128 226.406 C 128 227.283, 127.375 228, 126.611 228 C 125.816 228, 124.942 229.495, 124.566 231.500 C 124.173 233.595, 123.325 235, 122.455 235 C 121.655 235, 121 235.900, 121 237 C 121 238.111, 120.333 239, 119.500 239 C 118.675 239, 118 239.717, 118 240.594 C 118 241.470, 117.100 242.423, 116 242.710 C 114.900 242.998, 114 243.856, 114 244.617 C 114 245.377, 113.100 246, 112 246 C 110.900 246, 110 246.655, 110 247.455 C 110 248.325, 108.595 249.173, 106.500 249.566 C 103.318 250.163, 103 250.530, 103 253.611 L 103 257 108.500 257 C 113.333 257, 114 256.758, 114 255 C 114 253.667, 114.667 253, 116 253 C 117.111 253, 118 252.333, 118 251.500 C 118 250.675, 118.675 250, 119.500 250 C 120.333 250, 121 249.111, 121 248 C 121 246.667, 121.667 246, 123 246 C 124.333 246, 125 245.333, 125 244 C 125 242.889, 125.667 242, 126.500 242 C 127.325 242, 128 241.325, 128 240.500 C 128 239.667, 128.889 239, 130 239 C 131.333 239, 132 238.333, 132 237 C 132 235.900, 132.655 235, 133.455 235 C 134.325 235, 135.173 233.595, 135.566 231.500 C 135.942 229.495, 136.816 228, 137.611 228 C 138.375 228, 139 227.283, 139 226.406 C 139 225.530, 139.900 224.577, 141 224.290 C 142.100 224.002, 143 223.144, 143 222.383 C 143 221.623, 143.625 221, 144.389 221 C 145.184 221, 146.058 219.505, 146.434 217.500 C 146.827 215.405, 147.675 214, 148.545 214 C 149.532 214, 150 212.911, 150 210.617 C 150 208.074, 150.497 207.103, 152 206.710 C 153.197 206.397, 154 205.346, 154 204.094 C 154 202.899, 154.644 202, 155.500 202 C 156.503 202, 157 200.997, 157 198.969 C 157 197.221, 157.624 195.698, 158.473 195.372 C 159.283 195.061, 160.233 193.275, 160.584 191.403 C 160.946 189.473, 161.823 188, 162.611 188 C 163.456 188, 164.005 186.923, 164.014 185.250 C 164.035 180.968, 165.101 178, 166.617 178 C 167.531 178, 168 176.813, 168 174.500 L 168 171 173.500 171 C 177.722 171, 179 171.348, 179 172.500 C 179 173.629, 180.209 174, 183.883 174 C 187.926 174, 188.857 174.344, 189.290 176 C 189.690 177.532, 190.654 178, 193.406 178 C 197.095 178, 197.483 177.401, 196.400 173.367 C 195.950 171.687, 194.785 171.097, 190.914 170.583 C 187.769 170.166, 186 169.444, 186 168.577 C 186 167.821, 184.454 166.933, 182.500 166.566 C 180.405 166.173, 179 165.325, 179 164.455 C 179 163.655, 178.100 163, 177 163 C 175.242 163, 175 162.333, 175 157.500 C 175 153.484, 175.373 152, 176.383 152 C 178.103 152, 178.969 148.923, 178.986 142.750 C 178.996 139.417, 179.406 138, 180.361 138 C 181.751 138, 182.974 131.378, 182.991 123.750 C 182.997 121.087, 183.435 120, 184.500 120 C 185.690 120, 186 118.556, 186 113 C 186 107.727, 186.339 106, 187.375 106 C 189.176 106, 190 101.568, 190 91.875 C 190 85.542, 190.294 84, 191.500 84 C 192.333 84, 193 83.111, 193 82 C 193 80.889, 192.333 80, 191.500 80 C 190.452 80, 190 78.944, 190 76.500 L 190 73 180.500 73 C 172.722 73, 171 72.728, 171 71.500 C 171 70.362, 169.613 69.956, 165.250 69.817 C 162.088 69.717, 158.150 69.739, 156.500 69.868 C 151.680 70.244, 147 69.055, 147 67.455 C 147 66.655, 147.675 66, 148.500 66 C 149.333 66, 150 65.111, 150 64 C 150 62.667, 150.667 62, 152 62 C 153.333 62, 154 61.333, 154 60 C 154 58.889, 154.667 58, 155.500 58 C 156.690 58, 157 56.556, 157 51 L 157 44 153.500 44 C 150.667 44, 150 44.381, 150 46 M 148.250 80.706 C 147.012 80.944, 146 81.783, 146 82.570 C 146 83.538, 144.869 84, 142.500 84 C 139.667 84, 139 84.381, 139 86 C 139 87.111, 138.333 88, 137.500 88 C 136.534 88, 135.995 88.978, 135.986 90.750 C 135.965 95.032, 134.899 98, 133.383 98 C 132.436 98, 132 99.261, 132 102 C 132 104.789, 131.570 106, 130.579 106 C 129.798 106, 128.862 107.350, 128.500 109 C 128.138 110.650, 127.259 112, 126.548 112 C 125.813 112, 124.980 113.726, 124.616 116 C 124.202 118.588, 123.451 120, 122.488 120 C 121.454 120, 121 121.068, 121 123.500 C 121 125.944, 120.548 127, 119.500 127 C 118.348 127, 118 128.278, 118 132.500 C 118 136.722, 118.348 138, 119.500 138 C 120.333 138, 121 138.889, 121 140 C 121 141.333, 121.667 142, 123 142 C 124.111 142, 125 142.667, 125 143.500 C 125 144.548, 126.056 145, 128.500 145 C 131.333 145, 132 145.381, 132 147 C 132 148.667, 132.667 149, 136 149 C 138.889 149, 140 149.417, 140 150.500 C 140 151.466, 140.978 152.005, 142.750 152.014 C 147.032 152.035, 150 153.101, 150 154.617 C 150 155.610, 151.410 156, 155 156 C 158.778 156, 160 156.367, 160 157.500 C 160 158.333, 160.889 159, 162 159 C 163.111 159, 164 158.333, 164 157.500 C 164 156.667, 164.889 156, 166 156 C 167.758 156, 168 155.333, 168 150.500 C 168 146.528, 168.378 145, 169.361 145 C 170.751 145, 171.974 138.378, 171.991 130.750 C 171.997 128.087, 172.435 127, 173.500 127 C 174.690 127, 175 125.556, 175 120 C 175 114.727, 175.339 113, 176.375 113 C 178.322 113, 179 108.446, 179 95.375 C 179 85.931, 178.745 84, 177.500 84 C 176.675 84, 176 83.389, 176 82.642 C 176 80.526, 156.315 79.152, 148.250 80.706" stroke="none" fill="black" fill-rule="evenodd"/>
</svg>