<svg xmlns="http://www.w3.org/2000/svg" width="300" height="300" viewBox="0 0 300 300" version="1.1">
	<path d="M 80 76.875 C 80 91.404, 80.631 96, 82.625 96 C 83.530 96, 84 97.197, 84 99.500 C 84 102.333, 83.619 103, 82 103 C 80.900 103, 80 103.623, 80 104.383 C 80 106.318, 76.804 106.971, 67.250 106.986 C 60.589 106.997, 59 107.289, 59 108.500 C 59 109.555, 57.934 110, 55.406 110 C 52.654 110, 51.690 110.468, 51.290 112 C 51.002 113.100, 50.144 114, 49.383 114 C 47.117 114, 47.816 116.717, 50.250 117.370 C 56.160 118.954, 73 117.466, 73 115.361 C 73 114.378, 74.528 114, 78.500 114 L 84 114 84 126.500 C 84 136.944, 84.247 139, 85.500 139 C 86.548 139, 87 140.056, 87 142.500 C 87 144.944, 86.548 146, 85.500 146 C 84.462 146, 84 147.043, 84 149.383 C 84 151.926, 83.503 152.897, 82 153.290 C 80.900 153.577, 80 154.530, 80 155.406 C 80 156.283, 79.325 157, 78.500 157 C 77.667 157, 77 157.889, 77 159 C 77 160.333, 76.333 161, 75 161 C 73.381 161, 73 161.667, 73 164.500 C 73 166.944, 72.548 168, 71.500 168 C 70.675 168, 70 168.717, 70 169.594 C 70 170.470, 69.100 171.423, 68 171.710 C 66.497 172.103, 66 173.074, 66 175.617 C 66 177.831, 65.522 179, 64.617 179 C 63.041 179, 62.034 182, 62.014 186.750 C 62.004 188.966, 61.523 190, 60.500 190 C 59.367 190, 59 191.222, 59 195 C 59 198.778, 59.367 200, 60.500 200 C 61.523 200, 62.004 201.034, 62.014 203.250 C 62.034 208, 63.041 211, 64.617 211 C 65.377 211, 66 211.900, 66 213 C 66 214.100, 66.625 215, 67.389 215 C 68.184 215, 69.058 216.495, 69.434 218.500 C 69.827 220.595, 70.675 222, 71.545 222 C 72.345 222, 73 222.900, 73 224 C 73 225.100, 73.623 226, 74.383 226 C 75.144 226, 76.002 226.900, 76.290 228 C 76.577 229.100, 77.530 230, 78.406 230 C 79.495 230, 80 230.911, 80 232.875 C 80 235.291, 80.496 235.849, 83.103 236.371 C 86.557 237.061, 88 236.531, 88 234.571 C 88 233.757, 89.725 233.066, 92.549 232.747 C 95.052 232.465, 97.309 232.025, 97.566 231.768 C 98.477 230.856, 98.924 208.279, 98.318 193.750 C 97.842 182.328, 97.398 179, 96.352 179 C 95.278 179, 95 176.015, 95 164.500 C 95 152.278, 95.236 150, 96.500 150 C 97.333 150, 98 149.111, 98 148 C 98 146.667, 98.667 146, 100 146 C 101.549 146, 102 145.333, 102 143.045 C 102 140.460, 102.438 140.008, 105.500 139.434 C 107.425 139.073, 109 138.203, 109 137.500 C 109 136.797, 110.575 135.927, 112.500 135.566 C 114.595 135.173, 116 134.325, 116 133.455 C 116 132.424, 117.166 132, 120 132 C 122.789 132, 124 131.570, 124 130.579 C 124 129.798, 125.350 128.862, 127 128.500 C 128.650 128.138, 130 127.202, 130 126.421 C 130 125.572, 131.007 125, 132.500 125 C 134.021 125, 135 124.430, 135 123.545 C 135 122.675, 136.405 121.827, 138.500 121.434 C 140.505 121.058, 142 120.184, 142 119.389 C 142 118.503, 143.121 118, 145.094 118 C 147.346 118, 148.329 117.456, 148.710 116 C 149.141 114.353, 150.074 114, 154 114 C 157.926 114, 158.859 113.647, 159.290 112 C 159.690 110.468, 160.654 110, 163.406 110 C 165.782 110, 167 109.536, 167 108.630 C 167 107.742, 168.635 107.076, 171.651 106.736 C 174.449 106.420, 176.660 105.572, 177.201 104.606 C 177.854 103.438, 179.585 103, 183.550 103 C 187.728 103, 189 102.650, 189 101.500 C 189 100.250, 191 100, 201 100 C 211 100, 213 100.250, 213 101.500 C 213 102.325, 213.800 103, 214.778 103 C 215.756 103, 217.326 103.900, 218.268 105 C 219.210 106.100, 220.885 107, 221.990 107 C 223.110 107, 224 107.664, 224 108.500 C 224 109.333, 224.889 110, 226 110 C 227.333 110, 228 110.667, 228 112 C 228 113.111, 228.667 114, 229.500 114 C 230.325 114, 231 114.717, 231 115.594 C 231 116.470, 231.900 117.423, 233 117.710 C 234.503 118.103, 235 119.074, 235 121.617 C 235 124.333, 235.394 125, 237 125 C 238.758 125, 239 125.667, 239 130.500 C 239 134.722, 239.348 136, 240.500 136 C 241.325 136, 242 136.675, 242 137.500 C 242 138.325, 241.325 139, 240.500 139 C 239.308 139, 239 140.455, 239 146.094 C 239 152.346, 238.763 153.249, 237 153.710 C 235.497 154.103, 235 155.074, 235 157.617 C 235 159.911, 234.532 161, 233.545 161 C 232.675 161, 231.827 162.405, 231.434 164.500 C 231.058 166.505, 230.184 168, 229.389 168 C 228.625 168, 228 168.900, 228 170 C 228 171.100, 227.361 172, 226.579 172 C 225.798 172, 224.862 173.350, 224.500 175 C 224.138 176.650, 223.202 178, 222.421 178 C 221.639 178, 221 178.900, 221 180 C 221 181.333, 220.333 182, 219 182 C 217.667 182, 217 182.667, 217 184 C 217 185.111, 216.333 186, 215.500 186 C 214.675 186, 214 186.717, 214 187.594 C 214 188.470, 213.100 189.423, 212 189.710 C 210.900 189.998, 210 190.856, 210 191.617 C 210 192.377, 209.283 193, 208.406 193 C 207.530 193, 206.577 193.900, 206.290 195 C 206.002 196.100, 205.144 197, 204.383 197 C 203.623 197, 203 197.675, 203 198.500 C 203 199.333, 202.111 200, 201 200 C 199.667 200, 199 200.667, 199 202 C 199 203.357, 198.333 204, 196.927 204 C 195.492 204, 194.956 204.539, 195.186 205.750 C 195.443 207.103, 196.709 207.569, 200.759 207.802 C 205.476 208.074, 206 207.899, 206 206.052 C 206 204.667, 206.650 204, 208 204 C 209.333 204, 210 203.333, 210 202 C 210 200.667, 210.667 200, 212 200 C 213.111 200, 214 199.333, 214 198.500 C 214 197.675, 214.675 197, 215.500 197 C 216.333 197, 217 196.111, 217 195 C 217 193.667, 217.667 193, 219 193 C 220.111 193, 221 192.333, 221 191.500 C 221 190.675, 221.675 190, 222.500 190 C 223.333 190, 224 189.111, 224 188 C 224 186.667, 224.667 186, 226 186 C 227.333 186, 228 185.333, 228 184 C 228 182.889, 228.667 182, 229.500 182 C 230.325 182, 231 181.283, 231 180.406 C 231 179.530, 231.900 178.577, 233 178.290 C 234.417 177.919, 235 176.926, 235 174.883 C 235 172.667, 235.462 172, 237 172 C 238.619 172, 239 171.333, 239 168.500 C 239 166.180, 239.468 165, 240.389 165 C 241.184 165, 242.058 163.505, 242.434 161.500 C 242.827 159.405, 243.675 158, 244.545 158 C 245.576 158, 246 156.834, 246 154 C 246 150.667, 246.333 150, 248 150 C 249.871 150, 249.999 149.338, 249.986 139.750 C 249.971 128.243, 249.399 125, 247.383 125 C 246.436 125, 246 123.739, 246 121 C 246 118.111, 245.583 117, 244.500 117 C 243.675 117, 243 116.325, 243 115.500 C 243 114.667, 242.111 114, 241 114 C 239.667 114, 239 113.333, 239 112 C 239 110.889, 238.333 110, 237.500 110 C 236.675 110, 236 109.283, 236 108.406 C 236 107.530, 235.100 106.577, 234 106.290 C 232.900 106.002, 232 105.144, 232 104.383 C 232 103.623, 231.100 103, 230 103 C 228.667 103, 228 102.333, 228 101 C 228 99.667, 227.333 99, 226 99 C 224.889 99, 224 98.333, 224 97.500 C 224 96.452, 222.944 96, 220.500 96 C 217.667 96, 217 95.619, 217 94 C 217 92.096, 216.338 92.001, 203.250 92.014 C 188.304 92.028, 185 92.500, 185 94.617 C 185 95.663, 183.293 96, 178 96 C 172.638 96, 171 96.330, 171 97.412 C 171 98.280, 169.459 99.085, 167 99.500 C 164.541 99.915, 163 100.720, 163 101.588 C 163 102.535, 161.848 103, 159.500 103 C 157.197 103, 156 103.470, 156 104.375 C 156 105.746, 151.880 107, 147.375 107 C 146.015 107, 145 107.594, 145 108.389 C 145 109.184, 143.505 110.058, 141.500 110.434 C 139.405 110.827, 138 111.675, 138 112.545 C 138 113.345, 137.100 114, 136 114 C 134.889 114, 134 114.667, 134 115.500 C 134 116.510, 132.990 117, 130.906 117 C 128.654 117, 127.671 117.544, 127.290 119 C 126.897 120.503, 125.926 121, 123.383 121 C 120.667 121, 120 121.394, 120 123 C 120 124.733, 119.333 125, 115 125 C 111.092 125, 110 125.348, 110 126.594 C 110 127.470, 109.100 128.423, 108 128.710 C 106.900 128.998, 106 129.856, 106 130.617 C 106 131.377, 105.100 132, 104 132 C 102.889 132, 102 132.667, 102 133.500 C 102 134.325, 101.283 135, 100.406 135 C 99.530 135, 98.577 135.900, 98.290 137 C 97.679 139.336, 95 139.718, 95 137.469 C 95 136.626, 94.325 135.678, 93.500 135.362 C 91.760 134.694, 91.449 129.350, 93.118 128.794 C 93.737 128.588, 94.468 125.196, 94.753 121.211 L 95.269 114 109.634 114 C 121.737 114, 124 113.764, 124 112.500 C 124 111.675, 124.675 111, 125.500 111 C 126.583 111, 127 109.889, 127 107 C 127 103.095, 126.917 103, 123.500 103 C 120.667 103, 120 102.619, 120 101 C 120 99.889, 119.333 99, 118.500 99 C 117.675 99, 117 98.325, 117 97.500 C 117 96.667, 116.111 96, 115 96 C 113.395 96, 113 96.667, 113 99.375 C 113 103.344, 111.387 103.902, 101.258 103.436 C 96.271 103.207, 94.828 103.485, 94.083 104.817 C 92.195 108.190, 91.496 104.490, 91.312 90.166 C 91.209 82.100, 91.096 73.588, 91.062 71.250 C 91.017 68.167, 90.588 67, 89.500 67 C 88.675 67, 88 66.325, 88 65.500 C 88 64.417, 86.889 64, 84 64 L 80 64 80 76.875 M 84 162.383 C 84 163.144, 83.100 164.002, 82 164.290 C 80.544 164.671, 80 165.654, 80 167.906 C 80 170.070, 79.521 171, 78.406 171 C 77.530 171, 76.577 171.900, 76.290 173 C 76.002 174.100, 75.144 175, 74.383 175 C 73.373 175, 73 176.484, 73 180.500 C 73 184.500, 72.625 186, 71.625 186 C 69.724 186, 68.919 190.933, 69.661 198.032 C 70.085 202.086, 70.720 204, 71.642 204 C 72.527 204, 73 205.219, 73 207.500 C 73 210.333, 73.381 211, 75 211 C 76.333 211, 77 211.667, 77 213 C 77 214.100, 77.655 215, 78.455 215 C 79.325 215, 80.173 216.405, 80.566 218.500 C 81.163 221.682, 81.530 222, 84.611 222 L 88 222 88 217 C 88 213.222, 88.367 212, 89.500 212 C 90.746 212, 91 210.056, 91 200.500 C 91 190.944, 90.746 189, 89.500 189 C 88.259 189, 88 187.125, 88 178.125 C 88 165.539, 87.304 161, 85.375 161 C 84.619 161, 84 161.623, 84 162.383" stroke="none" fill="black" fill-rule="evenodd"/>
</svg>