<svg xmlns="http://www.w3.org/2000/svg" width="300" height="300" viewBox="0 0 300 300" version="1.1">
	<path d="M 152 61.500 C 152 62.663, 150.681 63, 146.125 63 C 138.342 63, 134 63.940, 134 65.625 C 134 66.604, 132.593 67, 129.117 67 C 125.074 67, 124.143 67.344, 123.710 69 C 123.310 70.532, 122.346 71, 119.594 71 C 117.066 71, 116 71.445, 116 72.500 C 116 73.466, 115.022 74.005, 113.250 74.014 C 108.968 74.035, 106 75.101, 106 76.617 C 106 77.627, 104.516 78, 100.500 78 C 96.278 78, 95 78.348, 95 79.500 C 95 80.325, 94.283 81, 93.406 81 C 92.530 81, 91.577 81.900, 91.290 83 C 90.897 84.503, 89.926 85, 87.383 85 C 84.667 85, 84 85.394, 84 87 C 84 88.111, 83.333 89, 82.500 89 C 81.452 89, 81 90.056, 81 92.500 C 81 95.833, 81.167 96, 84.500 96 C 86.896 96, 88 95.541, 88 94.545 C 88 93.675, 89.405 92.827, 91.500 92.434 C 93.425 92.073, 95 91.211, 95 90.519 C 95 89.763, 96.857 89.051, 99.651 88.736 C 102.449 88.420, 104.660 87.572, 105.201 86.606 C 105.755 85.615, 107.421 85, 109.550 85 C 111.950 85, 113 84.544, 113 83.500 C 113 82.452, 114.056 82, 116.500 82 C 119.333 82, 120 81.619, 120 80 C 120 78.333, 120.667 78, 124 78 C 126.739 78, 128 77.564, 128 76.617 C 128 74.897, 131.077 74.031, 137.250 74.014 C 141.338 74.002, 142 74.279, 142 76 C 142 77.333, 141.333 78, 140 78 C 138.381 78, 138 78.667, 138 81.500 C 138 84.333, 137.619 85, 136 85 C 134.381 85, 134 85.667, 134 88.500 C 134 90.944, 133.548 92, 132.500 92 C 131.667 92, 131 92.889, 131 94 C 131 95.333, 130.333 96, 129 96 C 127.381 96, 127 96.667, 127 99.500 C 127 102.036, 126.561 103, 125.406 103 C 124.530 103, 123.577 103.900, 123.290 105 C 123.002 106.100, 122.144 107, 121.383 107 C 120.623 107, 120 107.900, 120 109 C 120 110.100, 119.361 111, 118.579 111 C 117.798 111, 116.862 112.350, 116.500 114 C 116.138 115.650, 115.202 117, 114.421 117 C 113.639 117, 113 117.900, 113 119 C 113 120.333, 112.333 121, 111 121 C 109.667 121, 109 121.667, 109 123 C 109 124.100, 108.377 125, 107.617 125 C 106.856 125, 105.998 125.900, 105.710 127 C 105.423 128.100, 104.470 129, 103.594 129 C 102.717 129, 102 129.675, 102 130.500 C 102 131.325, 101.325 132, 100.500 132 C 99.675 132, 99 132.717, 99 133.594 C 99 134.470, 98.100 135.423, 97 135.710 C 95.900 135.998, 95 136.856, 95 137.617 C 95 138.377, 94.100 139, 93 139 C 91.667 139, 91 139.667, 91 141 C 91 142.333, 90.333 143, 89 143 C 87.889 143, 87 143.667, 87 144.500 C 87 145.325, 86.325 146, 85.500 146 C 84.667 146, 84 146.889, 84 148 C 84 149.111, 84.667 150, 85.500 150 C 86.325 150, 87 150.648, 87 151.441 C 87 152.234, 87.429 153.147, 87.954 153.472 C 89.516 154.437, 94 152.895, 94 151.392 C 94 150.435, 95.250 150, 98 150 C 100.834 150, 102 149.576, 102 148.545 C 102 147.675, 103.405 146.827, 105.500 146.434 C 107.425 146.073, 109 145.203, 109 144.500 C 109 143.797, 110.575 142.927, 112.500 142.566 C 114.595 142.173, 116 141.325, 116 140.455 C 116 139.655, 116.900 139, 118 139 C 119.111 139, 120 138.333, 120 137.500 C 120 136.452, 121.056 136, 123.500 136 C 126.333 136, 127 135.619, 127 134 C 127 132.242, 127.667 132, 132.500 132 C 136.575 132, 138 131.633, 138 130.585 C 138 129.554, 140.032 128.980, 145.500 128.468 C 150.878 127.964, 153 127.374, 153 126.383 C 153 125.390, 154.411 125, 158 125 C 161.778 125, 163 125.367, 163 126.500 C 163 127.605, 164.153 128, 167.375 128 C 173.741 128, 178 129.052, 178 130.625 C 178 131.608, 179.424 132, 183 132 C 186.778 132, 188 132.367, 188 133.500 C 188 134.333, 188.889 135, 190 135 C 191.333 135, 192 135.667, 192 137 C 192 138.333, 192.667 139, 194 139 C 195.111 139, 196 139.667, 196 140.500 C 196 141.325, 196.675 142, 197.500 142 C 198.333 142, 199 142.889, 199 144 C 199 145.333, 199.667 146, 201 146 C 202.333 146, 203 146.667, 203 148 C 203 149.100, 203.625 150, 204.389 150 C 205.184 150, 206.058 151.495, 206.434 153.500 C 206.827 155.595, 207.675 157, 208.545 157 C 209.764 157, 210 159.916, 210 175 C 210 189.659, 209.743 193, 208.617 193 C 206.858 193, 206.031 196.098, 206.014 202.750 C 206.003 206.744, 205.641 208, 204.500 208 C 203.452 208, 203 209.056, 203 211.500 C 203 213.896, 202.541 215, 201.545 215 C 200.675 215, 199.827 216.405, 199.434 218.500 C 198.959 221.033, 198.255 222, 196.889 222 C 195.850 222, 195 222.675, 195 223.500 C 195 224.325, 194.325 225, 193.500 225 C 192.667 225, 192 225.889, 192 227 C 192 228.919, 191.333 229, 175.500 229 C 161.500 229, 159 228.773, 159 227.500 C 159 226.476, 157.968 225.997, 155.750 225.991 C 148.574 225.972, 142 224.714, 142 223.361 C 142 222.378, 140.472 222, 136.500 222 C 132.500 222, 131 221.625, 131 220.625 C 131 219.254, 126.880 218, 122.375 218 C 120.667 218, 120 218.561, 120 220 C 120 221.606, 120.667 222, 123.383 222 C 125.926 222, 126.897 222.497, 127.290 224 C 127.690 225.532, 128.654 226, 131.406 226 C 133.934 226, 135 226.445, 135 227.500 C 135 228.466, 135.978 229.005, 137.750 229.014 C 142.032 229.035, 145 230.101, 145 231.617 C 145 232.627, 146.484 233, 150.500 233 C 154.545 233, 156 233.370, 156 234.399 C 156 235.396, 158.005 235.998, 163 236.500 C 167.995 237.002, 170 237.604, 170 238.601 C 170 239.675, 171.742 240, 177.500 240 C 183.500 240, 185 239.700, 185 238.500 C 185 237.588, 185.931 237, 187.375 237 C 191.880 237, 196 235.746, 196 234.375 C 196 233.619, 196.623 233, 197.383 233 C 198.144 233, 199.002 232.100, 199.290 231 C 199.577 229.900, 200.530 229, 201.406 229 C 202.283 229, 203 228.325, 203 227.500 C 203 226.675, 203.675 226, 204.500 226 C 205.333 226, 206 225.111, 206 224 C 206 222.667, 206.667 222, 208 222 C 209.333 222, 210 221.333, 210 220 C 210 218.667, 210.667 218, 212 218 C 213.619 218, 214 217.333, 214 214.500 C 214 212.056, 214.452 211, 215.500 211 C 216.735 211, 217.002 209.188, 217.014 200.750 C 217.029 189.243, 217.601 186, 219.617 186 C 220.731 186, 221 183.179, 221 171.500 C 221 159.821, 220.731 157, 219.617 157 C 218.101 157, 217.035 154.032, 217.014 149.750 C 217.005 147.978, 216.466 147, 215.500 147 C 214.667 147, 214 146.111, 214 145 C 214 143.667, 213.333 143, 212 143 C 210.667 143, 210 142.333, 210 141 C 210 139.900, 209.377 139, 208.617 139 C 207.856 139, 206.998 138.100, 206.710 137 C 206.423 135.900, 205.506 135, 204.673 135 C 203.807 135, 202.880 133.729, 202.507 132.032 C 201.980 129.634, 201.196 128.940, 198.428 128.420 C 196.478 128.055, 195 127.178, 195 126.389 C 195 125.389, 193.600 125, 190 125 C 185.667 125, 185 124.733, 185 123 C 185 121.242, 184.333 121, 179.500 121 C 175.525 121, 174 120.622, 174 119.638 C 174 117.723, 164.754 116.796, 153.859 117.618 C 147.396 118.106, 145 118.654, 145 119.643 C 145 120.656, 143.226 121, 138 121 C 132.469 121, 131 121.312, 131 122.488 C 131 123.451, 129.588 124.202, 127 124.616 C 124.587 125.002, 123 125.800, 123 126.628 C 123 127.383, 122.325 128, 121.500 128 C 120.452 128, 120 126.944, 120 124.500 C 120 122.056, 120.452 121, 121.500 121 C 122.325 121, 123 120.325, 123 119.500 C 123 118.667, 123.889 118, 125 118 C 126.619 118, 127 117.333, 127 114.500 C 127 111.667, 127.381 111, 129 111 C 130.333 111, 131 110.333, 131 109 C 131 107.900, 131.623 107, 132.383 107 C 133.144 107, 134.002 106.100, 134.290 105 C 134.577 103.900, 135.530 103, 136.406 103 C 137.561 103, 138 102.036, 138 99.500 C 138 96.667, 138.381 96, 140 96 C 141.333 96, 142 95.333, 142 94 C 142 92.889, 142.667 92, 143.500 92 C 144.548 92, 145 90.944, 145 88.500 C 145 85.667, 145.381 85, 147 85 C 148.619 85, 149 84.333, 149 81.500 C 149 78.167, 149.167 78, 152.500 78 C 155.833 78, 156 77.833, 156 74.500 C 156 71.667, 156.381 71, 158 71 C 159.593 71, 159.997 70.338, 159.986 67.750 C 159.960 61.486, 159.077 60, 155.383 60 C 153.043 60, 152 60.462, 152 61.500" stroke="none" fill="black" fill-rule="evenodd"/>
</svg>