<svg xmlns="http://www.w3.org/2000/svg" width="300" height="300" viewBox="0 0 300 300" version="1.1">
	<path d="M 233 42.500 C 233 43.333, 232.111 44, 231 44 C 229.188 44, 229 44.667, 229 51.094 C 229 57.346, 229.237 58.249, 231 58.710 C 232.503 59.103, 233 60.074, 233 62.617 C 233 64.957, 233.462 66, 234.500 66 C 235.412 66, 236 66.931, 236 68.375 C 236 72.880, 237.254 77, 238.625 77 C 239.682 77, 240 78.937, 240 85.383 C 240 94.660, 240.238 94.955, 247.750 94.986 L 251 95 250.986 88.250 C 250.970 80.152, 250.241 77, 248.383 77 C 247.373 77, 247 75.516, 247 71.500 C 247 67.278, 246.652 66, 245.500 66 C 244.452 66, 244 64.944, 244 62.500 C 244 59.667, 243.619 59, 242 59 C 240.242 59, 240 58.333, 240 53.500 C 240 49.474, 239.628 48, 238.611 48 C 237.816 48, 236.942 46.505, 236.566 44.500 C 235.919 41.050, 233 39.413, 233 42.500 M 254.434 51.500 C 253.549 56.217, 254.712 62, 256.545 62 C 257.710 62, 258 63.791, 258 71 C 258 78.333, 258.278 80, 259.500 80 C 260.946 80, 261.192 80.912, 261.524 87.500 C 261.916 95.277, 261.766 95, 265.584 95 L 269.167 95 268.834 82.962 C 268.581 73.841, 268.151 70.708, 267.062 70.036 C 266.039 69.406, 265.498 66.523, 265.189 60.075 C 264.863 53.243, 264.415 51, 263.378 51 C 262.620 51, 262 50.325, 262 49.500 C 262 48.456, 260.949 48, 258.545 48 C 255.389 48, 255.034 48.302, 254.434 51.500 M 161 81.883 C 161 83.048, 160.377 84, 159.617 84 C 157.456 84, 157.028 87.331, 157.014 104.250 L 157 120 152 120 C 148.222 120, 147 120.367, 147 121.500 C 147 122.535, 145.961 123, 143.647 123 C 135.723 123, 128 124.304, 128 125.642 C 128 126.603, 126.552 127, 123.050 127 C 119.544 127, 117.837 127.469, 117.201 128.606 C 116.660 129.572, 114.449 130.420, 111.651 130.736 C 108.857 131.051, 107 131.763, 107 132.519 C 107 133.211, 105.425 134.073, 103.500 134.434 C 101.015 134.900, 100 135.621, 100 136.920 C 100 137.927, 99.719 140.156, 99.375 141.875 C 98.756 144.971, 98.788 145, 102.875 145 C 105.720 145, 107 144.571, 107 143.617 C 107 142.856, 107.900 141.998, 109 141.710 C 110.100 141.423, 111 140.470, 111 139.594 C 111 138.287, 112.262 138, 118 138 C 123.293 138, 125 137.663, 125 136.617 C 125 134.897, 128.077 134.031, 134.250 134.014 C 137.799 134.003, 139 133.621, 139 132.500 C 139 131.271, 140.735 131, 148.617 131 C 158.101 131, 158.225 131.031, 157.630 133.250 C 157.299 134.488, 157.021 145.063, 157.014 156.750 C 157.002 174.966, 156.786 178, 155.500 178 C 154.328 178, 153.997 179.367, 153.986 184.250 C 153.964 194.412, 153.618 194.999, 147.633 195.009 C 138.736 195.024, 132 196.157, 132 197.639 C 132 198.561, 130.705 199, 127.990 199 C 125.218 199, 123.452 199.617, 122.268 201 C 121.326 202.100, 120.001 203, 119.323 203 C 118.645 203, 117.795 204.575, 117.434 206.500 C 117.058 208.505, 116.184 210, 115.389 210 C 114.625 210, 114 210.900, 114 212 C 114 213.100, 113.377 214, 112.617 214 C 110.588 214, 110.029 217.251, 110.014 229.125 C 109.998 241.454, 110.701 246, 112.625 246 C 113.530 246, 114 247.197, 114 249.500 C 114 252.036, 114.439 253, 115.594 253 C 116.470 253, 117.423 253.900, 117.710 255 C 117.998 256.100, 118.856 257, 119.617 257 C 120.377 257, 121 257.623, 121 258.384 C 121 259.345, 122.940 259.975, 127.364 260.449 C 135.742 261.346, 146 260.202, 146 258.371 C 146 257.617, 146.900 257, 148 257 C 149.333 257, 150 256.333, 150 255 C 150 253.667, 150.667 253, 152 253 C 153.333 253, 154 252.333, 154 251 C 154 249.889, 154.667 249, 155.500 249 C 156.466 249, 157.005 248.022, 157.014 246.250 C 157.035 241.968, 158.101 239, 159.617 239 C 160.731 239, 161 236.179, 161 224.500 C 161 212.821, 161.269 210, 162.383 210 C 163.144 210, 164.018 209.041, 164.324 207.868 C 164.759 206.207, 165.392 205.873, 167.191 206.354 C 168.461 206.694, 170.738 206.979, 172.250 206.986 C 174.022 206.995, 175 207.534, 175 208.500 C 175 209.652, 176.278 210, 180.500 210 C 184.516 210, 186 210.373, 186 211.383 C 186 212.959, 189 213.966, 193.750 213.986 C 195.966 213.996, 197 214.477, 197 215.500 C 197 216.466, 197.978 217.005, 199.750 217.014 C 204.032 217.035, 207 218.101, 207 219.617 C 207 220.377, 207.900 221, 209 221 C 210.100 221, 211 221.625, 211 222.389 C 211 223.178, 212.478 224.055, 214.428 224.420 C 217.175 224.936, 217.982 225.640, 218.493 227.967 C 218.970 230.138, 219.870 231.032, 222.065 231.514 C 223.679 231.869, 225 232.798, 225 233.579 C 225 234.361, 225.900 235, 227 235 C 228.333 235, 229 235.667, 229 237 C 229 238.333, 229.667 239, 231 239 C 232.619 239, 233 239.667, 233 242.500 C 233 244.813, 233.469 246, 234.383 246 C 235.144 246, 236.002 246.900, 236.290 248 C 236.577 249.100, 237.530 250, 238.406 250 C 239.283 250, 240 250.675, 240 251.500 C 240 252.333, 240.889 253, 242 253 C 243.100 253, 244 252.345, 244 251.545 C 244 250.668, 245.423 249.824, 247.583 249.418 C 250.625 248.848, 251.081 248.425, 250.597 246.623 C 250.284 245.455, 250.021 244.162, 250.014 243.750 C 250.006 243.338, 249.325 243, 248.500 243 C 247.667 243, 247 242.111, 247 241 C 247 239.667, 246.333 239, 245 239 C 243.900 239, 243 238.361, 243 237.579 C 243 236.798, 241.664 235.866, 240.032 235.507 C 237.634 234.980, 236.940 234.196, 236.420 231.428 C 235.872 228.503, 235.371 228, 233.005 228 C 231.074 228, 230.075 227.393, 229.710 226 C 229.423 224.900, 228.506 224, 227.673 224 C 226.807 224, 225.880 222.729, 225.507 221.032 C 224.980 218.634, 224.196 217.940, 221.428 217.420 C 219.542 217.067, 218 216.173, 218 215.434 C 218 214.690, 216.437 213.797, 214.500 213.434 C 212.495 213.058, 211 212.184, 211 211.389 C 211 210.625, 210.100 210, 209 210 C 207.900 210, 207 209.377, 207 208.617 C 207 207.101, 204.032 206.035, 199.750 206.014 C 197.978 206.005, 197 205.466, 197 204.500 C 197 203.348, 195.722 203, 191.500 203 C 186.667 203, 186 202.758, 186 201 C 186 199.242, 185.333 199, 180.500 199 C 176.278 199, 175 198.652, 175 197.500 C 175 196.588, 174.069 196, 172.625 196 C 171.319 196, 168.844 195.719, 167.125 195.375 L 164 194.750 164 186.029 C 164 170.671, 165.144 159, 166.650 159 C 167.727 159, 168 155.754, 168 142.920 L 168 126.841 177.750 127.035 C 189.961 127.279, 193 127.786, 193 129.579 C 193 130.361, 193.675 131, 194.500 131 C 195.325 131, 196 131.675, 196 132.500 C 196 133.583, 197.111 134, 200 134 C 202.889 134, 204 133.583, 204 132.500 C 204 131.667, 204.889 131, 206 131 C 207.333 131, 208 130.333, 208 129 C 208 127.889, 208.667 127, 209.500 127 C 210.333 127, 211 126.111, 211 125 C 211 123.889, 210.333 123, 209.500 123 C 208.675 123, 208 122.325, 208 121.500 C 208 120.236, 205.722 120, 193.500 120 C 181.278 120, 179 119.764, 179 118.500 C 179 117.675, 178.325 117, 177.500 117 C 176.675 117, 176 117.675, 176 118.500 C 176 119.583, 174.889 120, 172 120 C 168.095 120, 168 119.917, 168 116.500 C 168 114.056, 167.548 113, 166.500 113 C 165.452 113, 165 111.944, 165 109.500 C 165 107.056, 165.452 106, 166.500 106 C 167.753 106, 168 103.944, 168 93.500 C 168 84.174, 167.683 80.997, 166.750 80.986 C 166.063 80.979, 164.488 80.701, 163.250 80.370 C 161.435 79.883, 161 80.176, 161 81.883 M 49 110.927 C 49 112.103, 48.351 113, 47.500 113 C 46.675 113, 46 113.675, 46 114.500 C 46 115.333, 45.111 116, 44 116 C 42.333 116, 42 116.667, 42 120 C 42 122.739, 41.564 124, 40.617 124 C 38.601 124, 38.029 127.243, 38.014 138.750 C 38.003 146.754, 37.700 149, 36.630 149 C 35.561 149, 35.160 151.976, 34.800 162.586 C 34.452 172.862, 33.993 176.386, 32.920 177.049 C 31.754 177.769, 31.438 183.588, 31.153 209.567 C 30.927 230.230, 31.161 241.561, 31.828 242.228 C 33.350 243.750, 42 242.228, 42 240.439 C 42 239.647, 42.675 239, 43.500 239 C 44.325 239, 45 238.283, 45 237.406 C 45 236.530, 45.900 235.577, 47 235.290 C 48.100 235.002, 49 234.144, 49 233.383 C 49 232.623, 49.900 232, 51 232 C 52.333 232, 53 231.333, 53 230 C 53 228.667, 53.667 228, 55 228 C 56.111 228, 57 227.333, 57 226.500 C 57 225.675, 57.675 225, 58.500 225 C 59.325 225, 60 224.152, 60 223.117 C 60 222.074, 60.893 221, 62 220.710 C 63.100 220.423, 64 219.470, 64 218.594 C 64 217.717, 64.625 217, 65.389 217 C 66.184 217, 67.058 215.505, 67.434 213.500 C 67.827 211.405, 68.675 210, 69.545 210 C 70.345 210, 71 209.377, 71 208.617 C 71 207.856, 71.900 206.998, 73 206.710 C 74.100 206.423, 75 205.470, 75 204.594 C 75 203.717, 75.675 203, 76.500 203 C 77.333 203, 78 202.111, 78 201 C 78 199.667, 78.667 199, 80 199 C 82.109 199, 82.641 195.992, 81.370 191.250 C 80.699 188.747, 78 188.146, 78 190.500 C 78 191.325, 77.377 192, 76.617 192 C 75.856 192, 74.998 192.900, 74.710 194 C 74.423 195.100, 73.470 196, 72.594 196 C 71.664 196, 71 196.838, 71 198.010 C 71 199.115, 70.100 200.790, 69 201.732 C 67.900 202.674, 67 204.019, 67 204.722 C 67 205.425, 66.325 206, 65.500 206 C 64.667 206, 64 206.889, 64 208 C 64 209.333, 63.333 210, 62 210 C 60.667 210, 60 210.667, 60 212 C 60 213.333, 59.333 214, 58 214 C 56.889 214, 56 214.667, 56 215.500 C 56 216.325, 55.325 217, 54.500 217 C 53.675 217, 53 217.717, 53 218.594 C 53 219.470, 52.100 220.423, 51 220.710 C 49.900 220.998, 49 221.806, 49 222.505 C 49 223.205, 47.425 224.073, 45.500 224.434 C 43.405 224.827, 42 225.675, 42 226.545 C 42 227.345, 41.325 228, 40.500 228 C 39.222 228, 39 225.333, 39 210 C 39 194.667, 39.222 192, 40.500 192 C 41.778 192, 42 189.333, 42 174 C 42 159.394, 42.259 156, 43.375 156 C 45.246 156, 46 151.511, 46 140.375 C 46 132.708, 46.273 131, 47.500 131 C 48.652 131, 49 129.722, 49 125.500 L 49 120 52.500 120 C 55.333 120, 56 119.619, 56 118 C 56 116.900, 55.354 116, 54.563 116 C 53.674 116, 53.007 114.764, 52.813 112.758 C 52.450 108.998, 49 107.341, 49 110.927 M 143 204.371 C 143 205.336, 140.927 205.946, 136 206.431 C 130.895 206.934, 129 207.511, 129 208.561 C 129 209.429, 128.009 210, 126.500 210 C 124.944 210, 124 210.567, 124 211.500 C 124 212.325, 123.325 213, 122.500 213 C 121.667 213, 121 213.889, 121 215 C 121 216.100, 120.389 217, 119.642 217 C 117.789 217, 116.829 226.932, 117.651 237.617 C 118.084 243.258, 118.699 246, 119.531 246 C 120.211 246, 121.002 246.900, 121.290 248 C 121.671 249.456, 122.654 250, 124.906 250 C 126.990 250, 128 250.490, 128 251.500 C 128 252.652, 129.278 253, 133.500 253 C 137.526 253, 139 252.628, 139 251.611 C 139 250.816, 140.495 249.942, 142.500 249.566 C 145.591 248.986, 146 248.553, 146 245.861 C 146 243.654, 146.552 242.668, 148 242.290 C 149.688 241.848, 150 240.926, 150 236.383 C 150 232.265, 150.352 231, 151.500 231 C 152.741 231, 153 229.125, 153 220.125 C 153 214.144, 153.281 207.844, 153.625 206.125 L 154.250 203 148.625 203 C 144.527 203, 143 203.372, 143 204.371" stroke="none" fill="black" fill-rule="evenodd"/>
</svg>