<svg xmlns="http://www.w3.org/2000/svg" width="300" height="300" viewBox="0 0 300 300" version="1.1">
	<path d="M 124 83.403 C 124 84.486, 121.813 84.886, 114.429 85.153 C 106.584 85.437, 104.681 85.816, 103.879 87.250 C 103.242 88.389, 101.697 89, 99.450 89 C 97.050 89, 96 89.456, 96 90.500 C 96 91.523, 94.966 92.004, 92.750 92.014 C 88 92.034, 85 93.041, 85 94.617 C 85 95.531, 83.813 96, 81.500 96 C 79.104 96, 78 96.459, 78 97.455 C 78 98.325, 76.595 99.173, 74.500 99.566 C 72.569 99.928, 71 100.823, 71 101.562 C 71 102.298, 70.361 103.260, 69.580 103.700 C 68.798 104.140, 67.850 105.737, 67.471 107.250 L 66.783 110 74.392 110 C 80.488 110, 82 109.702, 82 108.500 C 82 107.675, 82.675 107, 83.500 107 C 84.333 107, 85 106.111, 85 105 C 85 103.381, 85.667 103, 88.500 103 C 90.944 103, 92 102.548, 92 101.500 C 92 100.445, 93.066 100, 95.594 100 C 98.346 100, 99.310 99.532, 99.710 98 C 100.169 96.244, 101.074 96, 107.117 96 C 112.224 96, 114 95.652, 114 94.652 C 114 92.744, 130.880 91.850, 151.532 92.665 C 164.325 93.169, 168 93.614, 168 94.657 C 168 95.712, 170.787 96, 181 96 C 191.889 96, 194 95.756, 194 94.500 C 194 93.404, 195.145 92.996, 198.250 92.986 C 200.588 92.979, 203.539 92.694, 204.809 92.354 C 206.608 91.873, 207.241 92.207, 207.676 93.868 C 207.982 95.041, 208.806 96, 209.505 96 C 210.205 96, 211.073 97.575, 211.434 99.500 C 211.827 101.595, 212.675 103, 213.545 103 C 214.751 103, 215 105.479, 215 117.500 C 215 131.333, 214.908 132, 213 132 C 211.381 132, 211 132.667, 211 135.500 C 211 138.333, 210.619 139, 209 139 C 207.667 139, 207 139.667, 207 141 C 207 142.111, 206.333 143, 205.500 143 C 204.667 143, 204 143.889, 204 145 C 204 146.111, 203.333 147, 202.500 147 C 201.675 147, 201 147.675, 201 148.500 C 201 149.333, 200.111 150, 199 150 C 197.667 150, 197 150.667, 197 152 C 197 153.333, 196.333 154, 195 154 C 193.451 154, 193 154.667, 193 156.955 C 193 159.540, 192.562 159.992, 189.500 160.566 C 186.318 161.163, 186 161.530, 186 164.611 C 186 167.333, 185.607 168, 184 168 C 182.900 168, 182 168.623, 182 169.383 C 182 170.144, 181.100 171.002, 180 171.290 C 178.900 171.577, 178 172.494, 178 173.327 C 178 174.196, 176.722 175.122, 175 175.500 C 173.350 175.862, 172 176.798, 172 177.579 C 172 178.361, 171.100 179, 170 179 C 168.667 179, 168 179.667, 168 181 C 168 182.111, 167.333 183, 166.500 183 C 165.675 183, 165 183.675, 165 184.500 C 165 185.333, 164.111 186, 163 186 C 161.900 186, 161 186.623, 161 187.383 C 161 188.144, 160.100 189.002, 159 189.290 C 157.900 189.577, 157 190.530, 157 191.406 C 157 192.561, 156.036 193, 153.500 193 C 150.667 193, 150 193.381, 150 195 C 150 196.333, 149.333 197, 148 197 C 146.900 197, 146 197.639, 146 198.421 C 146 199.202, 144.650 200.138, 143 200.500 C 141.350 200.862, 140 201.798, 140 202.579 C 140 203.361, 139.100 204, 138 204 C 136.667 204, 136 204.667, 136 206 C 136 207.333, 135.333 208, 134 208 C 132.667 208, 132 208.667, 132 210 C 132 211.100, 131.373 212, 130.607 212 C 129.841 212, 128.955 212.675, 128.638 213.500 C 128.322 214.325, 127.374 215, 126.531 215 C 124.070 215, 124.771 217.726, 127.402 218.386 C 130.784 219.235, 136 218.015, 136 216.375 C 136 215.619, 136.623 215, 137.383 215 C 138.144 215, 139.002 214.100, 139.290 213 C 139.668 211.552, 140.654 211, 142.861 211 C 145.553 211, 145.986 210.591, 146.566 207.500 C 147.163 204.318, 147.530 204, 150.611 204 C 152.873 204, 154 203.527, 154 202.579 C 154 201.798, 155.350 200.862, 157 200.500 C 158.650 200.138, 160 199.202, 160 198.421 C 160 197.639, 160.900 197, 162 197 C 163.163 197, 164 196.333, 164 195.406 C 164 194.530, 164.900 193.577, 166 193.290 C 167.100 193.002, 168 192.144, 168 191.383 C 168 190.623, 168.900 190, 170 190 C 171.333 190, 172 189.333, 172 188 C 172 186.444, 172.667 186, 175 186 C 177.078 186, 178 185.510, 178 184.406 C 178 183.530, 178.900 182.577, 180 182.290 C 181.100 182.002, 182 181.144, 182 180.383 C 182 179.623, 182.900 179, 184 179 C 185.333 179, 186 178.333, 186 177 C 186 175.889, 186.667 175, 187.500 175 C 188.325 175, 189 174.283, 189 173.406 C 189 172.530, 189.900 171.577, 191 171.290 C 192.100 171.002, 193 170.144, 193 169.383 C 193 168.623, 193.900 168, 195 168 C 196.333 168, 197 167.333, 197 166 C 197 164.900, 197.623 164, 198.383 164 C 199.144 164, 200.002 163.100, 200.290 162 C 200.577 160.900, 201.530 160, 202.406 160 C 203.283 160, 204 159.325, 204 158.500 C 204 157.675, 204.623 157, 205.383 157 C 206.144 157, 207.002 156.100, 207.290 155 C 207.577 153.900, 208.530 153, 209.406 153 C 210.283 153, 211 152.325, 211 151.500 C 211 150.675, 211.655 150, 212.455 150 C 213.325 150, 214.173 148.595, 214.566 146.500 C 214.927 144.575, 215.795 143, 216.495 143 C 217.194 143, 218.002 142.100, 218.290 141 C 218.577 139.900, 219.530 139, 220.406 139 C 221.561 139, 222 138.036, 222 135.500 C 222 133.187, 222.469 132, 223.383 132 C 224.959 132, 225.966 129, 225.986 124.250 C 225.996 122.034, 226.477 121, 227.500 121 C 228.548 121, 229 119.944, 229 117.500 C 229 115.056, 228.548 114, 227.500 114 C 226.308 114, 226 112.545, 226 106.906 C 226 100.654, 225.763 99.751, 224 99.290 C 222.344 98.857, 222 97.926, 222 93.883 C 222 90.392, 221.606 89, 220.617 89 C 219.856 89, 218.998 88.100, 218.710 87 C 218.423 85.900, 217.470 85, 216.594 85 C 215.717 85, 215 84.325, 215 83.500 C 215 82.348, 213.722 82, 209.500 82 C 205.278 82, 204 82.348, 204 83.500 C 204 84.791, 200.722 85, 180.500 85 C 160.278 85, 157 84.791, 157 83.500 C 157 82.227, 154.500 82, 140.500 82 C 127.004 82, 124 82.256, 124 83.403 M 82 112.500 C 82 113.325, 82.675 114, 83.500 114 C 84.325 114, 85 113.325, 85 112.500 C 85 111.675, 84.325 111, 83.500 111 C 82.675 111, 82 111.675, 82 112.500" stroke="none" fill="black" fill-rule="evenodd"/>
</svg>