<svg xmlns="http://www.w3.org/2000/svg" width="300" height="300" viewBox="0 0 300 300" version="1.1">
	<path d="M 178 7.500 C 178 8.333, 177.111 9, 176 9 C 174.708 9, 174 9.667, 174 10.883 C 174 11.926, 173.107 13, 172 13.290 C 170.544 13.671, 170 14.654, 170 16.906 C 170 18.990, 169.510 20, 168.500 20 C 167.445 20, 167 21.066, 167 23.594 C 167 26.346, 166.532 27.310, 165 27.710 C 163.497 28.103, 163 29.074, 163 31.617 C 163 34.333, 162.606 35, 161 35 C 159.381 35, 159 35.667, 159 38.500 C 159 40.944, 158.548 42, 157.500 42 C 156.667 42, 156 42.889, 156 44 C 156 45.721, 155.338 45.998, 151.250 45.986 C 143.657 45.965, 142 45.213, 142 41.790 C 142 39.654, 141.435 38.665, 140 38.290 C 138.244 37.831, 138 36.926, 138 30.883 L 138 24 132.500 24 L 127 24 127 30.883 C 127 36.926, 127.244 37.831, 129 38.290 C 130.532 38.690, 131 39.654, 131 42.406 C 131 44.806, 131.461 46, 132.389 46 C 133.184 46, 134.058 47.495, 134.434 49.500 C 134.827 51.595, 135.675 53, 136.545 53 C 137.345 53, 138 53.619, 138 54.375 C 138 55.746, 142.120 57, 146.625 57 C 148.069 57, 149 57.588, 149 58.500 C 149 59.333, 148.111 60, 147 60 C 145.381 60, 145 60.667, 145 63.500 C 145 66.833, 144.833 67, 141.500 67 C 139.187 67, 138 67.469, 138 68.383 C 138 69.959, 135 70.966, 130.250 70.986 C 128.034 70.996, 127 71.477, 127 72.500 C 127 73.548, 125.944 74, 123.500 74 C 120.667 74, 120 74.381, 120 76 C 120 77.333, 119.333 78, 118 78 C 116.381 78, 116 78.667, 116 81.500 L 116 85 125.500 85 C 133.278 85, 135 84.728, 135 83.500 C 135 82.452, 136.056 82, 138.500 82 C 141.333 82, 142 81.619, 142 80 C 142 78.267, 142.667 78, 147 78 C 150.778 78, 152 78.367, 152 79.500 C 152 80.325, 151.388 81, 150.640 81 C 149.722 81, 149.090 82.840, 148.696 86.656 C 148.375 89.767, 147.699 92.580, 147.195 92.906 C 146.690 93.233, 145.963 95.638, 145.578 98.250 L 144.877 103 137.939 103 C 132.698 103, 131 103.338, 131 104.383 C 131 106.103, 127.923 106.969, 121.750 106.986 C 118.076 106.997, 117 107.361, 117 108.594 C 117 109.470, 116.100 110.423, 115 110.710 C 113.344 111.143, 113 112.074, 113 116.117 L 113 121 118 121 C 121.639 121, 123 120.616, 123 119.588 C 123 118.720, 124.541 117.915, 127 117.500 C 129.459 117.085, 131 116.280, 131 115.412 C 131 114.299, 132.931 114, 140.111 114 L 149.223 114 148.520 117.748 C 148.133 119.809, 147.299 121.815, 146.668 122.205 C 146.011 122.611, 145.362 126.364, 145.153 130.958 C 144.896 136.627, 144.411 139, 143.511 139 C 142.808 139, 141.998 139.900, 141.710 141 C 141.238 142.804, 140.346 143, 132.594 143 C 125.622 143, 124 143.283, 124 144.500 C 124 145.333, 123.111 146, 122 146 C 120.667 146, 120 146.667, 120 148 C 120 149.333, 119.333 150, 118 150 C 116.837 150, 116 150.667, 116 151.594 C 116 152.470, 116.900 153.423, 118 153.710 C 119.107 154, 120 155.074, 120 156.117 C 120 157.152, 120.627 158, 121.393 158 C 122.159 158, 123.045 158.675, 123.362 159.500 C 124.414 162.242, 138 161.205, 138 158.383 C 138 157.373, 139.484 157, 143.500 157 C 147.722 157, 149 156.652, 149 155.500 C 149 154.368, 150.217 154, 153.955 154 C 158.825 154, 158.920 154.059, 159.566 157.500 C 159.927 159.425, 160.795 161, 161.495 161 C 162.194 161, 163.014 161.947, 163.317 163.105 C 163.620 164.264, 164.460 165.015, 165.184 164.775 C 166.070 164.482, 166.596 161.998, 166.794 157.170 C 167.018 151.694, 167.432 150, 168.544 150 C 169.345 150, 170 149.325, 170 148.500 C 170 147.667, 170.889 147, 172 147 C 173.111 147, 174 147.667, 174 148.500 C 174 149.325, 174.675 150, 175.500 150 C 176.325 150, 177 150.675, 177 151.500 C 177 152.325, 176.325 153, 175.500 153 C 174.417 153, 174 154.111, 174 157 C 174 159.834, 174.424 161, 175.455 161 C 176.325 161, 177.173 162.405, 177.566 164.500 C 177.942 166.505, 178.816 168, 179.611 168 C 180.375 168, 181 168.900, 181 170 C 181 171.333, 181.667 172, 183 172 C 184.619 172, 185 172.667, 185 175.500 C 185 177.944, 185.452 179, 186.500 179 C 187.548 179, 188 180.056, 188 182.500 L 188 186 173.361 186 L 158.721 186 159.352 180.750 C 159.699 177.863, 159.987 174.713, 159.991 173.750 C 159.996 172.787, 160.675 172, 161.500 172 C 162.325 172, 163 172.675, 163 173.500 C 163 174.652, 164.278 175, 168.500 175 C 172.722 175, 174 174.652, 174 173.500 C 174 172.667, 173.111 172, 172 172 C 170.667 172, 170 171.333, 170 170 C 170 168.273, 169.333 168, 165.117 168 C 161.074 168, 160.143 167.656, 159.710 166 C 159.274 164.330, 158.346 164, 154.094 164 L 149 164 149 175 C 149 185.333, 148.879 186, 147 186 C 145.900 186, 145 186.612, 145 187.361 C 145 188.958, 138.119 189.978, 127.250 189.991 C 121.691 189.998, 120 190.328, 120 191.406 C 120 192.499, 117.753 192.889, 109.928 193.156 C 101.604 193.440, 99.687 193.804, 98.879 195.250 C 98.242 196.390, 96.697 197, 94.450 197 C 92.050 197, 91 197.456, 91 198.500 C 91 199.325, 90.325 200, 89.500 200 C 88.348 200, 88 201.278, 88 205.500 C 88 209.722, 88.348 211, 89.500 211 C 90.325 211, 91 210.375, 91 209.611 C 91 208.816, 92.495 207.942, 94.500 207.566 C 96.595 207.173, 98 206.325, 98 205.455 C 98 204.358, 99.354 204, 103.500 204 C 107.722 204, 109 203.652, 109 202.500 C 109 201.667, 109.889 201, 111 201 C 112.111 201, 113 201.667, 113 202.500 C 113 203.325, 113.675 204, 114.500 204 C 115.325 204, 116 203.325, 116 202.500 C 116 201.458, 117.144 200.958, 119.750 200.863 C 136.099 200.264, 146.925 200.177, 149.250 200.627 C 151.934 201.146, 152 201.325, 152 208.079 C 152 213.564, 151.689 215, 150.500 215 C 149.675 215, 149 215.623, 149 216.383 C 149 217.144, 148.100 218.002, 147 218.290 C 145.900 218.577, 145 219.530, 145 220.406 C 145 221.283, 144.345 222, 143.545 222 C 142.675 222, 141.827 223.405, 141.434 225.500 C 141.058 227.505, 140.184 229, 139.389 229 C 138.625 229, 138 229.900, 138 231 C 138 232.100, 137.377 233, 136.617 233 C 135.101 233, 134.035 235.968, 134.014 240.250 C 134.005 242.022, 133.466 243, 132.500 243 C 131.300 243, 131 244.500, 131 250.500 C 131 256.500, 131.300 258, 132.500 258 C 133.325 258, 134 258.717, 134 259.594 C 134 260.470, 134.900 261.423, 136 261.710 C 137.100 261.998, 138 262.856, 138 263.617 C 138 264.377, 138.625 265, 139.389 265 C 140.175 265, 141.053 266.469, 141.413 268.390 C 142.132 272.219, 143.728 272.965, 151.250 272.986 C 155.338 272.998, 156 272.721, 156 271 C 156 269.667, 156.667 269, 158 269 C 159.111 269, 160 268.333, 160 267.500 C 160 266.675, 160.616 266, 161.368 266 C 162.365 266, 162.871 263.907, 163.231 258.296 C 163.517 253.844, 164.206 250.431, 164.863 250.212 C 166.262 249.746, 166.389 244, 165 244 C 163.299 244, 163.826 237.281, 165.580 236.608 C 166.790 236.143, 166.994 235.242, 166.454 232.751 C 166.066 230.963, 165.359 229.251, 164.882 228.946 C 163.592 228.121, 162.653 219.661, 163.406 215.648 C 163.941 212.800, 164.618 212.023, 167.032 211.493 C 168.664 211.134, 170 210.202, 170 209.421 C 170 208.639, 170.900 208, 172 208 C 173.619 208, 174 207.333, 174 204.500 C 174 201.667, 173.619 201, 172 201 C 170.889 201, 170 201.667, 170 202.500 C 170 203.633, 168.778 204, 165 204 C 161.222 204, 160 203.633, 160 202.500 C 160 201.675, 160.675 201, 161.500 201 C 162.333 201, 163 200.111, 163 199 C 163 197.149, 163.667 197, 171.950 197 C 179.327 197, 181.068 196.702, 181.850 195.304 C 182.549 194.055, 184.538 193.497, 189.400 193.187 C 195.587 192.793, 196 192.899, 196 194.884 C 196 196.098, 196.639 197, 197.500 197 C 198.548 197, 199 198.056, 199 200.500 C 199 203.333, 199.381 204, 201 204 C 202.111 204, 203 204.667, 203 205.500 C 203 206.325, 203.675 207, 204.500 207 C 205.333 207, 206 207.889, 206 209 C 206 210.333, 206.667 211, 208 211 C 209.333 211, 210 211.667, 210 213 C 210 214.100, 210.655 215, 211.455 215 C 212.325 215, 213.173 216.405, 213.566 218.500 C 213.942 220.505, 214.816 222, 215.611 222 C 216.375 222, 217 222.717, 217 223.594 C 217 224.470, 217.900 225.423, 219 225.710 C 220.100 225.998, 221 226.856, 221 227.617 C 221 228.377, 221.675 229, 222.500 229 C 223.325 229, 224 229.717, 224 230.594 C 224 231.470, 224.900 232.423, 226 232.710 C 227.503 233.103, 228 234.074, 228 236.617 C 228 238.957, 228.462 240, 229.500 240 C 230.333 240, 231 240.889, 231 242 C 231 243.111, 230.333 244, 229.500 244 C 228.667 244, 228 244.889, 228 246 C 228 247.100, 227.361 248, 226.579 248 C 225.798 248, 224.869 249.321, 224.514 250.935 C 224.034 253.120, 223.137 254.031, 221 254.500 C 218.863 254.969, 217.966 255.880, 217.486 258.065 C 217.119 259.736, 216.189 261, 215.327 261 C 214.494 261, 213.577 261.900, 213.290 263 C 213.002 264.100, 212.144 265, 211.383 265 C 210.623 265, 210 265.655, 210 266.455 C 210 267.325, 208.595 268.173, 206.500 268.566 C 204.495 268.942, 203 269.816, 203 270.611 C 203 271.509, 201.850 272.005, 199.750 272.014 C 195 272.034, 192 273.041, 192 274.617 C 192 275.377, 192.623 276, 193.383 276 C 194.144 276, 195.002 276.900, 195.290 278 C 195.659 279.413, 196.647 279.996, 198.656 279.986 C 203.026 279.965, 206 278.911, 206 277.383 C 206 276.623, 206.900 276, 208 276 C 209.100 276, 210 275.375, 210 274.611 C 210 273.816, 211.495 272.942, 213.500 272.566 C 215.595 272.173, 217 271.325, 217 270.455 C 217 269.655, 217.717 269, 218.594 269 C 219.470 269, 220.423 268.100, 220.710 267 C 220.998 265.900, 221.803 265, 222.500 265 C 223.197 265, 224.002 264.100, 224.290 263 C 224.577 261.900, 225.530 261, 226.406 261 C 227.283 261, 228 260.325, 228 259.500 C 228 258.675, 228.655 258, 229.455 258 C 230.325 258, 231.173 256.595, 231.566 254.500 C 232.163 251.318, 232.530 251, 235.611 251 C 237.830 251, 239 251.478, 239 252.383 C 239 253.144, 239.900 254.002, 241 254.290 C 242.100 254.577, 243 255.530, 243 256.406 C 243 257.283, 243.675 258, 244.500 258 C 245.333 258, 246 258.889, 246 260 C 246 261.111, 246.667 262, 247.500 262 C 248.325 262, 249 262.675, 249 263.500 C 249 264.333, 249.889 265, 251 265 C 252.619 265, 253 265.667, 253 268.500 C 253 271.333, 253.381 272, 255 272 C 256.333 272, 257 272.667, 257 274 C 257 275.100, 257.625 276, 258.389 276 C 259.184 276, 260.058 277.495, 260.434 279.500 C 260.827 281.595, 261.675 283, 262.545 283 C 263.345 283, 264 283.900, 264 285 C 264 286.333, 264.667 287, 266 287 C 267.111 287, 268 287.667, 268 288.500 C 268 289.325, 268.717 290, 269.594 290 C 270.470 290, 271.423 290.900, 271.710 292 C 272.164 293.737, 273.074 294, 278.617 294 C 284.333 294, 285 293.791, 285 292 C 285 290.889, 284.333 290, 283.500 290 C 282.675 290, 282 289.325, 282 288.500 C 282 287.675, 281.375 287, 280.611 287 C 279.816 287, 278.942 285.505, 278.566 283.500 C 278.188 281.487, 277.317 280, 276.515 280 C 275.632 280, 275.007 278.653, 274.810 276.327 C 274.464 272.231, 272.170 270.634, 271.317 273.895 C 270.619 276.563, 268.398 276.628, 267.710 274 C 267.423 272.900, 266.470 272, 265.594 272 C 264.667 272, 264 271.163, 264 270 C 264 268.900, 263.361 268, 262.579 268 C 261.798 268, 260.862 266.650, 260.500 265 C 260.138 263.350, 259.202 262, 258.421 262 C 257.639 262, 257 261.100, 257 260 C 257 258.667, 256.333 258, 255 258 C 253.381 258, 253 257.333, 253 254.500 C 253 251.667, 252.619 251, 251 251 C 249.889 251, 249 250.333, 249 249.500 C 249 248.675, 248.325 248, 247.500 248 C 246.667 248, 246 247.111, 246 246 C 246 244.889, 245.333 244, 244.500 244 C 243.667 244, 243 243.111, 243 242 C 243 240.889, 243.667 240, 244.500 240 C 245.548 240, 246 238.944, 246 236.500 C 246 233.667, 246.381 233, 248 233 C 249.333 233, 250 232.333, 250 231 C 250 229.889, 250.667 229, 251.500 229 C 252.325 229, 253 228.325, 253 227.500 C 253 226.348, 254.278 226, 258.500 226 C 262.722 226, 264 226.348, 264 227.500 C 264 228.325, 264.675 229, 265.500 229 C 266.548 229, 267 227.944, 267 225.500 C 267 223.056, 266.548 222, 265.500 222 C 264.452 222, 264 220.944, 264 218.500 L 264 215 258.500 215 C 254.474 215, 253 215.372, 253 216.389 C 253 217.184, 251.505 218.058, 249.500 218.434 C 246.476 219.001, 246 219.477, 246 221.929 C 246 223.926, 245.407 224.922, 244 225.290 C 242.900 225.577, 242 226.530, 242 227.406 C 242 228.283, 241.325 229, 240.500 229 C 239.667 229, 239 229.889, 239 231 C 239 232.333, 238.333 233, 237 233 C 235.667 233, 235 232.333, 235 231 C 235 229.889, 234.333 229, 233.500 229 C 232.675 229, 232 228.283, 232 227.406 C 232 226.530, 231.100 225.577, 230 225.290 C 228.900 225.002, 228 224.144, 228 223.383 C 228 222.623, 227.375 222, 226.611 222 C 225.816 222, 224.942 220.505, 224.566 218.500 C 224.173 216.405, 223.325 215, 222.455 215 C 221.655 215, 221 214.100, 221 213 C 221 211.667, 220.333 211, 219 211 C 217.381 211, 217 210.333, 217 207.500 C 217 204.667, 216.619 204, 215 204 C 213.889 204, 213 203.333, 213 202.500 C 213 201.675, 212.325 201, 211.500 201 C 210.348 201, 210 199.722, 210 195.500 L 210 190 214.750 189.986 C 221.921 189.966, 223.802 189.179, 224.522 185.898 C 224.872 184.304, 225.798 183, 226.579 183 C 227.361 183, 228 182.163, 228 181.139 C 228 179.644, 226.985 179.158, 222.825 178.666 C 219.979 178.329, 217.369 177.598, 217.026 177.041 C 216.682 176.485, 214.960 175.742, 213.200 175.390 C 210.403 174.831, 210 175.018, 210 176.875 C 210 178.333, 209.373 179, 208 179 C 206.889 179, 206 179.667, 206 180.500 C 206 181.548, 204.944 182, 202.500 182 C 199.167 182, 199 181.833, 199 178.500 C 199 176.187, 198.531 175, 197.617 175 C 196.856 175, 195.998 174.100, 195.710 173 C 195.423 171.900, 194.470 171, 193.594 171 C 192.504 171, 192 170.088, 192 168.117 C 192 166.074, 191.417 165.081, 190 164.710 C 188.468 164.310, 188 163.346, 188 160.594 C 188 158.218, 187.536 157, 186.630 157 C 185.284 157, 183.628 148.411, 184.654 146.751 C 184.909 146.338, 189.768 146, 195.451 146 C 205.638 146, 205.792 145.965, 206.411 143.500 C 206.756 142.125, 206.767 139.919, 206.435 138.597 C 205.698 135.660, 203.528 135.363, 186.250 135.834 C 176.507 136.099, 174 136.457, 174 137.584 C 174 138.720, 171.806 139, 162.883 139 C 151.843 139, 151.771 138.985, 152.370 136.750 C 152.701 135.512, 152.979 133.037, 152.986 131.250 C 152.996 129.034, 153.477 128, 154.500 128 C 155.716 128, 156 126.389, 156 119.500 L 156 111 165.250 110.991 C 170.338 110.987, 176.895 110.695, 179.821 110.344 C 184.944 109.728, 185.118 109.608, 184.492 107.112 C 183.662 103.807, 182.391 103.034, 177.750 103.015 C 175.090 103.004, 174 102.564, 174 101.500 C 174 100.667, 173.111 100, 172 100 C 170.889 100, 170 100.667, 170 101.500 C 170 102.652, 168.722 103, 164.500 103 C 160.278 103, 159 102.652, 159 101.500 C 159 100.675, 158.325 100, 157.500 100 C 156.452 100, 156 98.944, 156 96.500 C 156 93.482, 156.327 93, 158.375 93 C 162.880 93, 167 91.746, 167 90.375 C 167 89.619, 166.100 89, 165 89 C 163.667 89, 163 88.333, 163 87 C 163 85.900, 162.377 85, 161.617 85 C 160.856 85, 159.998 84.100, 159.710 83 C 159.423 81.900, 158.470 81, 157.594 81 C 156.717 81, 156 80.325, 156 79.500 C 156 78.675, 155.325 78, 154.500 78 C 153.675 78, 153 77.383, 153 76.629 C 153 75.739, 154.754 75.025, 158 74.594 C 161.424 74.140, 163 73.469, 163 72.466 C 163 71.308, 164.578 71, 170.500 71 C 176.500 71, 178 70.700, 178 69.500 C 178 68.675, 178.675 68, 179.500 68 C 180.325 68, 181 68.675, 181 69.500 C 181 70.333, 181.889 71, 183 71 C 184.100 71, 184.994 71.563, 184.986 72.250 C 184.955 75.160, 183.669 78, 182.383 78 C 181.623 78, 181 78.900, 181 80 C 181 81.100, 181.563 81.994, 182.250 81.986 C 185.160 81.955, 188 80.669, 188 79.383 C 188 78.623, 188.900 78, 190 78 C 191.619 78, 192 77.333, 192 74.500 C 192 72.056, 192.452 71, 193.500 71 C 194.333 71, 195 70.111, 195 69 C 195 67.889, 194.333 67, 193.500 67 C 192.667 67, 192 66.111, 192 65 C 192 63.889, 191.333 63, 190.500 63 C 189.675 63, 189 62.325, 189 61.500 C 189 60.236, 186.722 60, 174.500 60 C 162.278 60, 160 60.236, 160 61.500 C 160 62.333, 159.111 63, 158 63 C 156.889 63, 156 62.333, 156 61.500 C 156 60.675, 156.655 60, 157.455 60 C 158.325 60, 159.173 58.595, 159.566 56.500 C 159.942 54.495, 160.816 53, 161.611 53 C 162.534 53, 163 51.815, 163 49.469 C 163 47.281, 163.560 45.722, 164.473 45.372 C 165.283 45.061, 166.233 43.275, 166.584 41.403 C 166.935 39.532, 167.827 38, 168.566 38 C 169.310 38, 170.203 36.437, 170.566 34.500 C 170.942 32.495, 171.816 31, 172.611 31 C 173.532 31, 174 29.820, 174 27.500 C 174 24.667, 174.381 24, 176 24 C 177.333 24, 178 23.333, 178 22 C 178 20.900, 178.623 20, 179.383 20 C 180.144 20, 181.002 19.100, 181.290 18 C 181.577 16.900, 182.530 16, 183.406 16 C 184.283 16, 185 15.325, 185 14.500 C 185 13.675, 185.623 13, 186.383 13 C 187.669 13, 188.955 10.160, 188.986 7.250 C 188.996 6.400, 187.241 6, 183.500 6 C 179.278 6, 178 6.348, 178 7.500 M 87.290 40 C 87.002 41.100, 86.144 42, 85.383 42 C 84.623 42, 84 42.900, 84 44 C 84 45.100, 83.345 46, 82.545 46 C 81.675 46, 80.827 47.405, 80.434 49.500 C 80.058 51.505, 79.184 53, 78.389 53 C 77.544 53, 76.995 54.077, 76.986 55.750 C 76.965 60.032, 75.899 63, 74.383 63 C 73.478 63, 73 64.169, 73 66.383 C 73 68.926, 72.503 69.897, 71 70.290 C 69.468 70.690, 69 71.654, 69 74.406 C 69 76.934, 68.555 78, 67.500 78 C 66.667 78, 66 78.889, 66 80 C 66 81.100, 65.345 82, 64.545 82 C 63.675 82, 62.827 83.405, 62.434 85.500 C 62.058 87.505, 61.184 89, 60.389 89 C 59.625 89, 59 89.717, 59 90.594 C 59 91.470, 58.100 92.423, 57 92.710 C 55.497 93.103, 55 94.074, 55 96.617 C 55 98.957, 54.538 100, 53.500 100 C 52.675 100, 52 100.675, 52 101.500 C 52 102.333, 51.111 103, 50 103 C 48.333 103, 48 103.667, 48 107 C 48 109.789, 47.570 111, 46.579 111 C 45.798 111, 44.862 112.350, 44.500 114 C 44.138 115.650, 43.202 117, 42.421 117 C 41.639 117, 41 117.848, 41 118.883 C 41 119.926, 40.107 121, 39 121.290 C 37.544 121.671, 37 122.654, 37 124.906 C 37 126.990, 36.510 128, 35.500 128 C 34.667 128, 34 128.889, 34 130 C 34 131.333, 33.333 132, 32 132 C 30.381 132, 30 132.667, 30 135.500 C 30 138.333, 29.619 139, 28 139 C 26.381 139, 26 139.667, 26 142.500 C 26 144.944, 25.548 146, 24.500 146 C 23.667 146, 23 146.889, 23 148 C 23 149.104, 22.333 150, 21.512 150 C 20.549 150, 19.798 151.412, 19.384 154 C 19.032 156.200, 18.185 158, 17.501 158 C 15.940 158, 14.685 166.806, 15.572 171.534 C 16.196 174.859, 19 176.558, 19 173.611 C 19 172.816, 20.495 171.942, 22.500 171.566 L 26 170.909 26.014 164.705 C 26.030 157.134, 26.792 154, 28.617 154 C 29.377 154, 30 153.100, 30 152 C 30 150.896, 30.667 150, 31.488 150 C 32.451 150, 33.202 148.588, 33.616 146 C 34.002 143.587, 34.800 142, 35.628 142 C 36.486 142, 37 140.876, 37 139 C 37 136.667, 37.444 136, 39 136 C 40.333 136, 41 135.333, 41 134 C 41 132.900, 41.625 132, 42.389 132 C 43.184 132, 44.058 130.505, 44.434 128.500 C 44.827 126.405, 45.675 125, 46.545 125 C 47.350 125, 48 124.074, 48 122.927 C 48 121.492, 48.539 120.956, 49.750 121.186 C 51.103 121.443, 51.569 122.709, 51.802 126.759 C 52.020 130.528, 52.511 132, 53.552 132 C 54.676 132, 55 133.542, 55 138.883 C 55 144.926, 55.244 145.831, 57 146.290 C 58.904 146.788, 59 147.654, 59 164.406 C 59 179.378, 59.224 182, 60.500 182 C 61.791 182, 62 185.278, 62 205.500 C 62 224.843, 61.755 229, 60.616 229 C 59.618 229, 59.113 230.876, 58.803 235.750 C 58.164 245.784, 58.576 247, 62.617 247 C 65.817 247, 66 246.810, 66 243.500 C 66 241.197, 66.470 240, 67.375 240 C 69.684 240, 70 235.052, 69.991 199.125 C 69.982 161.744, 69.530 154, 67.361 154 C 66.309 154, 66 151.846, 66 144.500 C 66 136.900, 65.712 135, 64.561 135 C 63.511 135, 62.934 133.105, 62.431 128 C 61.946 123.073, 61.336 121, 60.371 121 C 59.317 121, 59 119.033, 59 112.500 C 59 105.611, 59.284 104, 60.500 104 C 61.356 104, 62 103.101, 62 101.906 C 62 100.654, 62.803 99.603, 64 99.290 C 65.503 98.897, 66 97.926, 66 95.383 C 66 92.667, 66.394 92, 68 92 C 69.556 92, 70 91.333, 70 89 C 70 87, 70.500 86, 71.500 86 C 72.333 86, 73 85.111, 73 84 C 73 82.667, 73.667 82, 75 82 C 76.619 82, 77 81.333, 77 78.500 C 77 76.056, 77.452 75, 78.500 75 C 79.356 75, 80 74.101, 80 72.906 C 80 71.654, 80.803 70.603, 82 70.290 C 83.503 69.897, 84 68.926, 84 66.383 C 84 64.043, 84.462 63, 85.500 63 C 86.325 63, 87 62.325, 87 61.500 C 87 60.675, 87.885 60, 88.966 60 C 90.566 60, 91.053 59.082, 91.586 55.061 C 91.953 52.296, 92.849 49.888, 93.621 49.592 C 94.563 49.230, 95 47.310, 95 43.531 L 95 38 91.406 38 C 88.654 38, 87.690 38.468, 87.290 40 M 228 144.383 C 228 145.144, 227.100 146.002, 226 146.290 C 224.345 146.723, 224.002 147.647, 224.014 151.656 C 224.021 154.320, 224.299 157.512, 224.630 158.750 C 225.377 161.537, 228 161.731, 228 159 C 228 157.279, 228.662 157.002, 232.750 157.014 C 238.923 157.031, 242 157.897, 242 159.617 C 242 160.377, 242.900 161, 244 161 C 245.100 161, 246 161.625, 246 162.389 C 246 163.184, 247.495 164.058, 249.500 164.434 C 251.595 164.827, 253 165.675, 253 166.545 C 253 167.345, 253.900 168, 255 168 C 256.333 168, 257 168.667, 257 170 C 257 171.100, 257.655 172, 258.455 172 C 259.330 172, 260.175 173.416, 260.576 175.554 C 261.189 178.819, 261.498 179.084, 264.371 178.804 C 267.111 178.538, 267.540 178.086, 267.819 175.174 C 268.075 172.506, 267.729 171.742, 266.069 171.308 C 264.491 170.895, 264 169.963, 264 167.383 C 264 164.667, 263.606 164, 262 164 C 260.889 164, 260 163.333, 260 162.500 C 260 161.675, 259.325 161, 258.500 161 C 257.667 161, 257 160.111, 257 159 C 257 157.667, 256.333 157, 255 157 C 253.889 157, 253 156.333, 253 155.500 C 253 154.675, 252.325 154, 251.500 154 C 250.667 154, 250 153.111, 250 152 C 250 150.394, 249.333 150, 246.617 150 C 244.074 150, 243.103 149.503, 242.710 148 C 242.310 146.468, 241.346 146, 238.594 146 C 236.066 146, 235 145.555, 235 144.500 C 235 143.452, 233.944 143, 231.500 143 C 229.187 143, 228 143.469, 228 144.383 M 153 223.594 C 153 224.470, 152.100 225.423, 151 225.710 C 149.900 225.998, 149 226.756, 149 227.394 C 149 228.033, 148.100 229.326, 147 230.268 C 145.900 231.210, 145 233.110, 145 234.490 C 145 235.940, 144.425 237, 143.639 237 C 142.744 237, 142.067 238.791, 141.658 242.237 C 140.846 249.092, 141.899 258, 143.521 258 C 144.206 258, 145.002 258.900, 145.290 260 C 145.577 261.100, 146.530 262, 147.406 262 C 148.283 262, 149 262.675, 149 263.500 C 149 264.325, 149.675 265, 150.500 265 C 151.325 265, 152 264.325, 152 263.500 C 152 262.667, 152.889 262, 154 262 C 155.933 262, 156 261.333, 156 242 C 156 224.889, 155.783 222, 154.500 222 C 153.675 222, 153 222.717, 153 223.594 M 268 260 C 268 263.778, 268.367 265, 269.500 265 C 270.633 265, 271 263.778, 271 260 C 271 256.222, 270.633 255, 269.500 255 C 268.367 255, 268 256.222, 268 260" stroke="none" fill="black" fill-rule="evenodd"/>
</svg>