<svg xmlns="http://www.w3.org/2000/svg" width="300" height="300" viewBox="0 0 300 300" version="1.1">
	<path d="M 139.630 68.250 C 139.299 69.487, 139.021 80.063, 139.014 91.750 C 139.002 109.966, 138.786 113, 137.500 113 C 136.675 113, 136 113.675, 136 114.500 C 136 115.655, 134.712 116, 130.406 116 C 125.654 116, 124.734 116.301, 124.290 118 C 123.802 119.864, 122.926 120, 111.383 120 C 101.043 120, 99 120.247, 99 121.500 C 99 122.325, 98.325 123, 97.500 123 C 96.675 123, 96 122.325, 96 121.500 C 96 120.667, 95.111 120, 94 120 C 92.900 120, 92.006 119.438, 92.014 118.750 C 92.045 115.840, 93.331 113, 94.617 113 C 95.627 113, 96 111.516, 96 107.500 C 96 103.297, 96.351 102, 97.488 102 C 98.451 102, 99.202 100.588, 99.616 98 C 100.002 95.587, 100.800 94, 101.628 94 C 102.647 94, 103 92.360, 103 87.617 C 103 82.074, 102.737 81.164, 101 80.710 C 99.900 80.423, 99 79.470, 99 78.594 C 99 77.504, 98.088 77, 96.117 77 C 92.539 77, 92.032 78.574, 92.014 89.750 C 92.003 96.411, 91.711 98, 90.500 98 C 89.477 98, 88.996 99.034, 88.986 101.250 C 88.966 106, 87.959 109, 86.383 109 C 85.436 109, 85 110.261, 85 113 C 85 115.834, 84.576 117, 83.545 117 C 82.675 117, 81.827 118.405, 81.434 120.500 C 81.058 122.505, 80.184 124, 79.389 124 C 78.369 124, 78 125.491, 78 129.617 C 78 134.953, 78.112 135.203, 80.250 134.630 C 81.487 134.299, 84.638 134.021, 87.250 134.014 C 90.799 134.003, 92 133.621, 92 132.500 C 92 131.258, 93.889 131, 103 131 C 111.667 131, 114 130.708, 114 129.625 C 114 127.940, 118.342 127, 126.125 127 C 130.681 127, 132 126.663, 132 125.500 C 132 124.367, 133.222 124, 137 124 C 140.607 124, 142 124.388, 142 125.393 C 142 126.159, 141.325 127.045, 140.500 127.362 C 139.212 127.856, 139 132.252, 139 158.469 C 139 184.941, 138.801 189, 137.500 189 C 136.328 189, 135.997 190.367, 135.986 195.250 C 135.970 202.865, 135.210 206, 133.383 206 C 132.469 206, 132 204.813, 132 202.500 C 132 200.104, 131.541 199, 130.545 199 C 129.675 199, 128.827 197.595, 128.434 195.500 C 127.393 189.950, 125 190.995, 125 197 C 125 200.778, 125.367 202, 126.500 202 C 127.583 202, 128 203.111, 128 206 C 128 209.333, 128.333 210, 130 210 C 131.619 210, 132 210.667, 132 213.500 C 132 216.333, 132.381 217, 134 217 C 135.619 217, 136 217.667, 136 220.500 L 136 224 128.750 224.009 C 117.881 224.022, 111 225.042, 111 226.639 C 111 227.560, 109.707 228, 107 228 C 104.261 228, 103 227.564, 103 226.617 C 103 224.759, 99.848 224.030, 91.750 224.014 C 86.423 224.003, 85 223.684, 85 222.500 C 85 221.675, 84.325 221, 83.500 221 C 82.417 221, 82 219.889, 82 217 C 82 214.111, 82.417 213, 83.500 213 C 84.466 213, 85.005 212.022, 85.014 210.250 C 85.035 205.968, 86.101 203, 87.617 203 C 88.531 203, 89 201.813, 89 199.500 C 89 197.056, 89.452 196, 90.500 196 C 91.412 196, 92 195.069, 92 193.625 C 92 189.120, 93.254 185, 94.625 185 C 95.530 185, 96 183.803, 96 181.500 C 96 179.180, 96.468 178, 97.389 178 C 98.184 178, 99.058 176.505, 99.434 174.500 C 99.827 172.405, 100.675 171, 101.545 171 C 102.345 171, 103 170.100, 103 169 C 103 167.242, 103.667 167, 108.500 167 C 113.333 167, 114 167.242, 114 169 C 114 170.100, 114.655 171, 115.455 171 C 116.325 171, 117.173 172.405, 117.566 174.500 C 118.503 179.493, 121 179.129, 121 174 C 121 171.111, 120.583 170, 119.500 170 C 118.675 170, 118 169.325, 118 168.500 C 118 167.667, 117.111 167, 116 167 C 114.395 167, 114 166.333, 114 163.625 C 114 160.645, 113.634 160.177, 110.875 159.625 C 109.156 159.281, 105.964 159, 103.781 159 C 100.654 159, 99.702 159.424, 99.290 161 C 99.002 162.100, 98.144 163, 97.383 163 C 96.623 163, 96 163.900, 96 165 C 96 166.100, 95.345 167, 94.545 167 C 93.675 167, 92.827 168.405, 92.434 170.500 C 92.073 172.425, 91.203 174, 90.500 174 C 89.797 174, 88.927 175.575, 88.566 177.500 C 88.173 179.595, 87.325 181, 86.455 181 C 85.358 181, 85 182.354, 85 186.500 C 85 190.526, 84.628 192, 83.611 192 C 82.816 192, 81.942 193.495, 81.566 195.500 C 81.173 197.595, 80.325 199, 79.455 199 C 78.424 199, 78 200.166, 78 203 C 78 205.739, 77.564 207, 76.617 207 C 75.101 207, 74.035 209.968, 74.014 214.250 C 74.005 215.896, 73.454 217, 72.639 217 C 71.086 217, 69.846 224.839, 70.700 229.250 C 71.220 231.932, 71.403 232, 78.117 232 C 83.569 232, 85 232.312, 85 233.500 C 85 234.788, 88.111 235, 107 235 C 125.889 235, 129 234.788, 129 233.500 C 129 232.337, 130.319 232, 134.875 232 C 142.658 232, 147 231.060, 147 229.375 C 147 228.392, 148.424 228, 152 228 C 155.576 228, 157 227.608, 157 226.625 C 157 225.254, 161.120 224, 165.625 224 C 167.069 224, 168 223.412, 168 222.500 C 168 221.462, 169.043 221, 171.383 221 C 173.926 221, 174.897 220.503, 175.290 219 C 175.671 217.544, 176.654 217, 178.906 217 C 180.879 217, 182 216.497, 182 215.611 C 182 214.816, 183.495 213.942, 185.500 213.566 C 187.595 213.173, 189 212.325, 189 211.455 C 189 210.655, 189.848 210, 190.883 210 C 191.926 210, 193 209.107, 193.290 208 C 193.577 206.900, 194.530 206, 195.406 206 C 196.283 206, 197 205.325, 197 204.500 C 197 203.452, 198.056 203, 200.500 203 C 203.833 203, 204 203.167, 204 206.500 C 204 209.333, 204.381 210, 206 210 C 207.333 210, 208 210.667, 208 212 C 208 213.111, 208.667 214, 209.500 214 C 210.325 214, 211 214.623, 211 215.383 C 211 216.144, 211.900 217.002, 213 217.290 C 214.456 217.671, 215 218.654, 215 220.906 C 215 222.990, 215.490 224, 216.500 224 C 217.333 224, 218 224.889, 218 226 C 218 227.333, 218.667 228, 220 228 C 221.619 228, 222 228.667, 222 231.500 C 222 235.368, 224.386 236.456, 225.290 233 C 225.577 231.900, 226.530 231, 227.406 231 C 228.283 231, 229 230.325, 229 229.500 C 229 228.675, 229.675 228, 230.500 228 C 231.333 228, 232 227.111, 232 226 C 232 224.900, 231.586 224, 231.079 224 C 230.573 224, 229.866 222.664, 229.507 221.032 C 228.980 218.634, 228.196 217.940, 225.428 217.420 C 222.325 216.838, 222 216.456, 222 213.389 C 222 211.170, 221.522 210, 220.617 210 C 219.856 210, 218.998 209.100, 218.710 208 C 218.423 206.900, 217.470 206, 216.594 206 C 215.479 206, 215 205.070, 215 202.906 C 215 200.654, 214.456 199.671, 213 199.290 C 211.893 199, 211 197.926, 211 196.883 C 211 195.848, 210.325 195, 209.500 195 C 208.534 195, 207.995 194.022, 207.986 192.250 C 207.965 187.968, 206.899 185, 205.383 185 C 204.623 185, 204 184.100, 204 183 C 204 181.889, 203.333 181, 202.500 181 C 201.452 181, 201 179.944, 201 177.500 L 201 174 195.617 174 C 190.971 174, 190.157 174.291, 189.678 176.122 C 188.747 179.683, 190.120 188, 191.639 188 C 192.622 188, 193 189.528, 193 193.500 C 193 197.866, 192.671 199, 191.406 199 C 190.530 199, 189.577 199.900, 189.290 201 C 188.897 202.503, 187.926 203, 185.383 203 C 183.127 203, 182 203.473, 182 204.421 C 182 205.202, 180.650 206.138, 179 206.500 C 177.350 206.862, 176 207.798, 176 208.579 C 176 209.428, 174.993 210, 173.500 210 C 172.038 210, 171 210.574, 171 211.383 C 171 212.899, 168.032 213.965, 163.750 213.986 C 161.978 213.995, 161 214.534, 161 215.500 C 161 216.652, 159.722 217, 155.500 217 C 151.484 217, 150 217.373, 150 218.383 C 150 219.959, 147 220.966, 142.250 220.986 C 139.662 220.997, 139 220.593, 139 219 C 139 217.667, 139.667 217, 141 217 C 142.111 217, 143 216.333, 143 215.500 C 143 214.675, 143.604 214, 144.342 214 C 145.393 214, 145.826 209.943, 146.339 195.250 C 146.699 184.938, 146.996 172.563, 146.997 167.750 C 146.999 160.640, 147.281 159, 148.500 159 C 149.782 159, 150 156.167, 150 139.500 L 150 120 157 120 C 162.291 120, 164 119.663, 164 118.617 C 164 117.626, 166.122 117.036, 171.500 116.532 C 176.593 116.055, 179 115.415, 179 114.540 C 179 113.019, 183.792 111.871, 186.827 112.665 C 188.272 113.043, 189.154 114.304, 189.587 116.610 C 189.947 118.531, 190.825 120, 191.611 120 C 194.615 120, 192.879 122.932, 189.500 123.566 C 185.769 124.266, 184.575 127, 188 127 C 189.333 127, 190 127.667, 190 129 C 190 130.727, 190.667 131, 194.883 131 C 198.926 131, 199.857 130.656, 200.290 129 C 200.577 127.900, 201.530 127, 202.406 127 C 203.333 127, 204 126.163, 204 125 C 204 123.900, 203.377 123, 202.616 123 C 201.652 123, 201.022 121.032, 200.537 116.500 C 200.042 111.877, 199.431 110, 198.420 110 C 197.572 110, 197 108.993, 197 107.500 C 197 105.979, 196.430 105, 195.545 105 C 194.675 105, 193.827 103.595, 193.434 101.500 C 193.058 99.495, 192.184 98, 191.389 98 C 190.468 98, 190 96.820, 190 94.500 C 190 91.667, 189.619 91, 188 91 C 186.889 91, 186 90.333, 186 89.500 C 186 88.667, 185.111 88, 184 88 C 182.889 88, 182 88.667, 182 89.500 C 182 90.325, 181.325 91, 180.500 91 C 179.300 91, 179 92.500, 179 98.500 L 179 106 175.500 106 C 173.170 106, 172 106.467, 172 107.397 C 172 108.459, 169.918 108.880, 163.332 109.151 C 157.569 109.387, 154.525 109.924, 154.249 110.753 C 154.020 111.439, 152.296 112, 150.417 112 L 147 112 147 105.500 C 147 100.389, 147.321 99, 148.500 99 C 149.764 99, 150 96.735, 150 84.617 C 150 71.074, 149.883 70.203, 148 69.710 C 146.900 69.423, 146 68.470, 146 67.594 C 146 66.504, 145.088 66, 143.117 66 C 140.972 66, 140.079 66.576, 139.630 68.250 M 153.826 68.250 C 153.602 69.487, 153.597 74.213, 153.815 78.750 C 154.113 84.948, 154.558 87, 155.606 87 C 156.657 87, 157 85.378, 157 80.406 C 157 74.654, 157.255 73.746, 159 73.290 C 160.503 72.897, 161 71.926, 161 69.383 C 161 66.206, 160.794 66, 157.617 66 C 154.895 66, 154.153 66.440, 153.826 68.250" stroke="none" fill="black" fill-rule="evenodd"/>
</svg>