<svg xmlns="http://www.w3.org/2000/svg" width="300" height="300" viewBox="0 0 300 300" version="1.1">
	<path d="M 164 67.455 C 164 68.325, 162.595 69.173, 160.500 69.566 L 157 70.223 157 80.611 C 157 88.790, 156.706 91, 155.617 91 C 154.856 91, 153.998 91.900, 153.710 93 C 153.212 94.904, 152.346 95, 135.594 95 C 120.622 95, 118 95.224, 118 96.500 C 118 97.684, 116.577 98.003, 111.250 98.014 C 103.152 98.030, 100 98.759, 100 100.617 C 100 101.377, 99.100 102, 98 102 C 96.889 102, 96 102.667, 96 103.500 C 96 104.325, 95.325 105, 94.500 105 C 93.667 105, 93 105.889, 93 107 C 93 108.111, 93.667 109, 94.500 109 C 95.325 109, 96 109.675, 96 110.500 C 96 112.233, 98.650 112.549, 99.206 110.882 C 99.412 110.263, 102.804 109.532, 106.789 109.247 L 114 108.731 114 137.866 C 114 162.693, 113.785 167, 112.545 167 C 111.675 167, 110.827 168.405, 110.434 170.500 C 109.837 173.682, 109.470 174, 106.389 174 C 104.043 174, 103 174.462, 103 175.500 C 103 176.695, 101.524 177.002, 95.750 177.009 C 84.881 177.022, 78 178.042, 78 179.639 C 78 180.528, 76.785 181, 74.500 181 L 71 181 71 186.500 L 71 192 78 192 C 83.214 192, 85 191.655, 85 190.648 C 85 189.312, 95.141 188.021, 105.750 188.006 C 108.704 188.002, 110 187.577, 110 186.613 C 110 185.544, 112.411 185.138, 120.553 184.836 C 128.451 184.544, 131.335 184.075, 132.016 182.973 C 132.745 181.791, 135.648 181.500, 146.712 181.500 L 160.500 181.500 160.789 190.250 C 161.016 197.126, 161.391 199, 162.539 199 C 163.761 199, 164 201.695, 164 215.500 L 164 232 169.500 232 L 175 232 175 224.500 C 175 218.500, 174.700 217, 173.500 217 C 172.222 217, 172 214.333, 172 199 L 172 181 184.500 181 C 194.944 181, 197 180.753, 197 179.500 C 197 178.300, 198.500 178, 204.500 178 C 210.500 178, 212 178.300, 212 179.500 C 212 180.500, 213 181, 215 181 C 216.917 181, 218 180.490, 218 179.588 C 218 178.720, 219.541 177.915, 222 177.500 C 224.459 177.085, 226 176.280, 226 175.412 C 226 174.635, 226.675 174, 227.500 174 C 228.333 174, 229 173.111, 229 172 C 229 170.889, 228.333 170, 227.500 170 C 226.675 170, 226 169.325, 226 168.500 C 226 167.667, 225.111 167, 224 167 C 222.889 167, 222 167.667, 222 168.500 C 222 169.777, 219.065 170.025, 202.250 170.167 C 191.387 170.258, 180.475 170.416, 178 170.517 C 175.525 170.619, 172.262 170.508, 170.750 170.271 L 168 169.841 168 157.421 C 168 147.047, 167.753 145, 166.500 145 C 165.327 145, 164.972 143.526, 164.872 138.250 C 164.802 134.537, 164.568 128.350, 164.352 124.500 C 164.137 120.650, 164.222 115.588, 164.542 113.250 C 165.097 109.187, 165.274 109, 168.561 109 C 170.951 109, 172 108.543, 172 107.500 C 172 106.534, 172.978 105.995, 174.750 105.986 C 179.032 105.965, 182 104.899, 182 103.383 C 182 102.623, 182.900 102, 184 102 C 185.100 102, 186 101.377, 186 100.617 C 186 99.856, 186.900 98.998, 188 98.710 C 189.197 98.397, 190 97.346, 190 96.094 C 190 94.899, 190.644 94, 191.500 94 C 192.325 94, 193 93.550, 193 93 C 193 92.450, 192.325 92, 191.500 92 C 190.667 92, 190 91.111, 190 90 C 190 88.242, 189.333 88, 184.500 88 C 180.278 88, 179 88.348, 179 89.500 C 179 90.690, 177.556 91, 172 91 C 166.444 91, 165 90.690, 165 89.500 C 165 88.675, 165.675 88, 166.500 88 C 167.700 88, 168 86.500, 168 80.500 C 168 74.500, 168.300 73, 169.500 73 C 170.325 73, 171 72.325, 171 71.500 C 171 70.675, 170.325 70, 169.500 70 C 168.667 70, 168 69.111, 168 68 C 168 66.667, 167.333 66, 166 66 C 164.900 66, 164 66.655, 164 67.455 M 146 103.383 C 146 104.899, 143.032 105.965, 138.750 105.986 C 136.978 105.995, 136 106.534, 136 107.500 C 136 108.647, 134.736 109, 130.627 109 L 125.254 109 124.754 114.208 C 124.479 117.072, 123.747 119.584, 123.127 119.791 C 121.537 120.321, 121.649 130.717, 123.250 131.249 C 124.134 131.542, 124.598 135.261, 124.837 143.963 C 125.219 157.929, 124.585 163, 122.455 163 C 121.424 163, 121 164.166, 121 167 C 121 169.889, 120.583 171, 119.500 171 C 118.675 171, 118 171.675, 118 172.500 C 118 173.786, 120.991 174, 138.921 174 L 159.841 174 160.505 170.978 C 161.398 166.909, 160.187 160.286, 158.425 159.610 C 157.274 159.168, 157 155.986, 157 143.031 C 157 129.448, 156.771 127, 155.500 127 C 154.308 127, 154 125.545, 154 119.906 C 154 113.654, 153.763 112.751, 152 112.290 C 150.900 112.002, 150 111.422, 150 111 C 150 110.578, 150.900 109.998, 152 109.710 C 153.197 109.397, 154 108.346, 154 107.094 C 154 105.899, 154.644 105, 155.500 105 C 156.325 105, 157 104.325, 157 103.500 C 157 102.348, 155.722 102, 151.500 102 C 147.484 102, 146 102.373, 146 103.383" stroke="none" fill="black" fill-rule="evenodd"/>
</svg>