<svg xmlns="http://www.w3.org/2000/svg" width="300" height="300" viewBox="0 0 300 300" version="1.1">
	<path d="M 128 49.383 C 128 50.899, 125.032 51.965, 120.750 51.986 C 118.978 51.995, 118 52.534, 118 53.500 C 118 54.537, 116.958 55, 114.625 55 C 111.645 55, 111.177 55.366, 110.625 58.125 C 109.470 63.898, 109.837 66, 112 66 C 113.619 66, 114 66.667, 114 69.500 C 114 72.333, 113.619 73, 112 73 C 110.667 73, 110 73.667, 110 75 C 110 76.111, 109.333 77, 108.500 77 C 107.452 77, 107 78.056, 107 80.500 C 107 83.333, 106.619 84, 105 84 C 103.667 84, 103 84.667, 103 86 C 103 87.100, 102.345 88, 101.545 88 C 100.675 88, 99.827 89.405, 99.434 91.500 C 99.058 93.505, 98.184 95, 97.389 95 C 96.625 95, 96 95.900, 96 97 C 96 98.100, 95.361 99, 94.579 99 C 93.798 99, 92.862 100.350, 92.500 102 C 92.138 103.650, 91.252 105, 90.532 105 C 89.812 105, 88.935 106.532, 88.584 108.403 C 88.233 110.275, 87.283 112.061, 86.473 112.372 C 85.663 112.683, 85 113.626, 85 114.469 C 85 115.311, 84.375 116, 83.611 116 C 82.822 116, 81.945 117.478, 81.580 119.428 C 81.062 122.186, 80.363 122.981, 78 123.500 C 75.637 124.019, 74.938 124.814, 74.420 127.572 C 74.055 129.522, 73.178 131, 72.389 131 C 71.625 131, 71 131.623, 71 132.383 C 71 133.144, 70.100 134.002, 69 134.290 C 67.565 134.665, 67 135.654, 67 137.790 C 67 139.926, 66.435 140.914, 65 141.290 C 63.900 141.577, 63 142.530, 63 143.406 C 63 144.283, 62.325 145, 61.500 145 C 60.667 145, 60 145.889, 60 147 C 60 148.333, 59.333 149, 58 149 C 56.889 149, 56 149.667, 56 150.500 C 56 151.325, 55.325 152, 54.500 152 C 53.667 152, 53 152.889, 53 154 C 53 155.333, 52.333 156, 51 156 C 49.889 156, 49 156.667, 49 157.500 C 49 158.325, 48.325 159, 47.500 159 C 46.667 159, 46 159.889, 46 161 C 46 162.333, 45.333 163, 44 163 C 42.667 163, 42 163.667, 42 165 C 42 166.111, 41.333 167, 40.500 167 C 39.452 167, 39 168.056, 39 170.500 L 39 174 46 174 L 53 174 53 168.500 C 53 164.278, 53.348 163, 54.500 163 C 55.325 163, 56 162.325, 56 161.500 C 56 160.667, 56.889 160, 58 160 C 59.333 160, 60 159.333, 60 158 C 60 156.667, 60.667 156, 62 156 C 63.333 156, 64 155.333, 64 154 C 64 152.889, 64.667 152, 65.500 152 C 66.325 152, 67 151.377, 67 150.617 C 67 149.856, 67.900 148.998, 69 148.710 C 70.100 148.423, 71 147.470, 71 146.594 C 71 145.717, 71.655 145, 72.455 145 C 73.325 145, 74.173 143.595, 74.566 141.500 C 74.942 139.495, 75.816 138, 76.611 138 C 77.375 138, 78 137.377, 78 136.617 C 78 135.856, 78.900 134.998, 80 134.710 C 81.100 134.423, 82 133.470, 82 132.594 C 82 131.717, 82.675 131, 83.500 131 C 84.333 131, 85 130.111, 85 129 C 85 127.900, 85.655 127, 86.455 127 C 87.325 127, 88.173 125.595, 88.566 123.500 C 88.927 121.575, 89.795 120, 90.495 120 C 91.194 120, 92.002 119.100, 92.290 118 C 92.577 116.900, 93.530 116, 94.406 116 C 95.561 116, 96 115.036, 96 112.500 C 96 109.667, 96.381 109, 98 109 C 99.619 109, 100 108.333, 100 105.500 C 100 103.056, 100.452 102, 101.500 102 C 102.325 102, 103 101.283, 103 100.406 C 103 99.530, 103.900 98.577, 105 98.290 C 106.100 98.002, 107 97.144, 107 96.383 C 107 95.623, 107.625 95, 108.389 95 C 109.184 95, 110.058 93.505, 110.434 91.500 C 110.827 89.405, 111.675 88, 112.545 88 C 113.345 88, 114 87.100, 114 86 C 114 84.900, 114.655 84, 115.455 84 C 116.325 84, 117.173 82.595, 117.566 80.500 C 117.927 78.575, 118.797 77, 119.500 77 C 120.203 77, 121.067 75.458, 121.420 73.572 C 121.940 70.804, 122.634 70.020, 125.032 69.493 C 126.664 69.134, 128 68.202, 128 67.421 C 128 66.319, 129.686 66, 135.500 66 C 142.333 66, 143 66.178, 143 68 C 143 69.619, 143.667 70, 146.500 70 C 148.944 70, 150 70.452, 150 71.500 C 150 72.637, 151.233 73, 155.094 73 C 159.346 73, 160.274 73.330, 160.710 75 C 161.103 76.503, 162.074 77, 164.617 77 C 166.957 77, 168 77.462, 168 78.500 C 168 79.555, 169.066 80, 171.594 80 C 174.346 80, 175.310 80.468, 175.710 82 C 176.143 83.656, 177.074 84, 181.117 84 C 184.608 84, 186 84.394, 186 85.383 C 186 86.959, 189 87.966, 193.750 87.986 C 195.966 87.996, 197 88.477, 197 89.500 C 197 90.688, 198.431 91, 203.883 91 C 209.926 91, 210.831 91.244, 211.290 93 C 211.746 94.745, 212.654 95, 218.406 95 C 223.453 95, 225 95.335, 225 96.428 C 225 97.409, 226.722 98.071, 230.500 98.543 C 234.188 99.004, 236 99.687, 236 100.615 C 236 101.672, 237.777 102, 243.500 102 C 249.500 102, 251 102.300, 251 103.500 C 251 104.325, 251.675 105, 252.500 105 C 253.333 105, 254 105.889, 254 107 C 254 108.667, 254.667 109, 258 109 C 261.700 109, 261.999 108.794, 261.986 106.250 C 261.961 101.134, 260.912 99.140, 257.898 98.478 C 256.304 98.128, 255 97.202, 255 96.421 C 255 95.367, 253.592 95, 249.550 95 C 245.412 95, 243.865 94.581, 243.126 93.261 C 242.357 91.887, 240.457 91.445, 234.076 91.155 C 228.284 90.892, 226 90.419, 226 89.482 C 226 88.737, 224.280 87.885, 222 87.500 C 219.541 87.085, 218 86.280, 218 85.412 C 218 84.330, 216.362 84, 211 84 C 204.667 84, 204 83.810, 204 82 C 204 80.242, 203.333 80, 198.500 80 C 194.278 80, 193 79.652, 193 78.500 C 193 77.452, 191.944 77, 189.500 77 C 187.187 77, 186 76.531, 186 75.617 C 186 74.041, 183 73.034, 178.250 73.014 C 176.150 73.005, 175 72.509, 175 71.611 C 175 70.816, 173.505 69.942, 171.500 69.566 C 169.405 69.173, 168 68.325, 168 67.455 C 168 66.380, 166.723 66, 163.117 66 C 159.074 66, 158.143 65.656, 157.710 64 C 157.310 62.468, 156.346 62, 153.594 62 C 151.066 62, 150 61.555, 150 60.500 C 150 59.452, 148.944 59, 146.500 59 C 143.667 59, 143 58.619, 143 57 C 143 55.381, 142.333 55, 139.500 55 C 136.964 55, 136 54.561, 136 53.406 C 136 52.530, 135.100 51.577, 134 51.290 C 132.900 51.002, 132 50.144, 132 49.383 C 132 48.623, 131.100 48, 130 48 C 128.900 48, 128 48.623, 128 49.383 M 147 78.500 C 147 79.325, 146.127 80, 145.059 80 C 143.991 80, 142.868 80.404, 142.563 80.897 C 141.632 82.405, 143.168 88, 144.514 88 C 145.209 88, 146.073 89.575, 146.434 91.500 C 146.827 93.595, 147.675 95, 148.545 95 C 149.541 95, 150 96.104, 150 98.500 C 150 100.803, 150.470 102, 151.375 102 C 152.904 102, 154 106.228, 154 112.125 C 154 114.903, 154.425 116, 155.500 116 C 156.722 116, 157 117.667, 157 125 C 157 132.166, 156.707 134, 155.560 134 C 154.619 134, 154.013 135.297, 153.810 137.750 L 153.500 141.500 141.500 141.658 C 134.900 141.744, 126.013 141.857, 121.750 141.908 C 115.569 141.981, 114 142.304, 114 143.500 C 114 144.333, 113.111 145, 112 145 C 110.667 145, 110 145.667, 110 147 C 110 148.111, 109.333 149, 108.500 149 C 105.413 149, 107.050 151.919, 110.500 152.566 C 112.505 152.942, 114 153.816, 114 154.611 C 114 155.664, 115.694 156, 121 156 C 126.273 156, 128 155.661, 128 154.625 C 128 152.360, 132.884 152, 163.625 152 C 189.069 152, 193 151.799, 193 150.500 C 193 149.348, 194.278 149, 198.500 149 L 204 149 204 152.500 C 204 155.333, 203.619 156, 202 156 C 200.889 156, 200 156.667, 200 157.500 C 200 158.325, 199.325 159, 198.500 159 C 197.667 159, 197 159.889, 197 161 C 197 162.333, 196.333 163, 195 163 C 193.667 163, 193 163.667, 193 165 C 193 166.111, 192.333 167, 191.500 167 C 190.675 167, 190 167.675, 190 168.500 C 190 169.333, 189.111 170, 188 170 C 186.667 170, 186 170.667, 186 172 C 186 173.100, 185.345 174, 184.545 174 C 183.675 174, 182.827 175.405, 182.434 177.500 C 182.073 179.425, 181.265 181.008, 180.639 181.017 C 179.199 181.039, 175 185.413, 175 186.891 C 175 187.501, 174.325 188, 173.500 188 C 172.667 188, 172 188.889, 172 190 C 172 191.333, 171.333 192, 170 192 C 168.381 192, 168 192.667, 168 195.500 C 168 198.333, 167.619 199, 166 199 C 164.667 199, 164 199.667, 164 201 C 164 202.111, 163.333 203, 162.500 203 C 161.675 203, 161 203.689, 161 204.531 C 161 205.374, 160.337 206.317, 159.527 206.628 C 158.717 206.939, 157.767 208.725, 157.416 210.597 C 157.054 212.527, 156.177 214, 155.389 214 C 154.625 214, 154 214.675, 154 215.500 C 154 216.333, 153.111 217, 152 217 C 150.667 217, 150 217.667, 150 219 C 150 220.333, 149.333 221, 148 221 C 146.889 221, 146 221.667, 146 222.500 C 146 223.325, 145.325 224, 144.500 224 C 143.667 224, 143 224.889, 143 226 C 143 227.333, 142.333 228, 141 228 C 139.393 228, 139 228.667, 139 231.389 C 139 234.470, 138.682 234.837, 135.500 235.434 C 132.475 236.002, 132 236.476, 132 238.934 C 132 241.392, 131.525 241.866, 128.500 242.434 C 126.405 242.827, 125 243.675, 125 244.545 C 125 245.345, 124.100 246, 123 246 C 121.667 246, 121 246.667, 121 248 C 121 249.111, 120.333 250, 119.500 250 C 118.675 250, 118 250.675, 118 251.500 C 118 252.633, 119.222 253, 123 253 C 126.778 253, 128 252.633, 128 251.500 C 128 250.667, 128.889 250, 130 250 C 131.333 250, 132 249.333, 132 248 C 132 246.393, 132.667 246, 135.389 246 C 138.470 246, 138.837 245.682, 139.434 242.500 C 139.827 240.405, 140.675 239, 141.545 239 C 142.345 239, 143 238.325, 143 237.500 C 143 236.675, 143.717 236, 144.594 236 C 145.470 236, 146.423 235.100, 146.710 234 C 146.998 232.900, 147.856 232, 148.617 232 C 149.377 232, 150 231.100, 150 230 C 150 228.667, 150.667 228, 152 228 C 153.333 228, 154 227.333, 154 226 C 154 224.889, 154.667 224, 155.500 224 C 156.325 224, 157 223.325, 157 222.500 C 157 221.667, 157.889 221, 159 221 C 160.333 221, 161 220.333, 161 219 C 161 217.900, 161.623 217, 162.383 217 C 163.144 217, 164.002 216.100, 164.290 215 C 164.577 213.900, 165.530 213, 166.406 213 C 167.496 213, 168 212.088, 168 210.117 C 168 208.074, 168.583 207.081, 170 206.710 C 171.100 206.423, 172 205.470, 172 204.594 C 172 203.717, 172.675 203, 173.500 203 C 174.333 203, 175 202.111, 175 201 C 175 199.667, 175.667 199, 177 199 C 178.619 199, 179 198.333, 179 195.500 C 179 192.667, 179.381 192, 181 192 C 182.111 192, 183 191.333, 183 190.500 C 183 189.675, 183.675 189, 184.500 189 C 185.333 189, 186 188.111, 186 187 C 186 185.900, 186.655 185, 187.455 185 C 188.318 185, 189.169 183.614, 189.549 181.592 C 189.956 179.421, 190.880 178.003, 192.094 177.686 C 193.142 177.412, 194 176.470, 194 175.594 C 194 174.717, 194.675 174, 195.500 174 C 196.325 174, 197 173.377, 197 172.617 C 197 171.856, 197.900 170.998, 199 170.710 C 200.100 170.423, 201 169.470, 201 168.594 C 201 167.717, 201.675 167, 202.500 167 C 203.333 167, 204 166.111, 204 165 C 204 163.667, 204.667 163, 206 163 C 207.111 163, 208 162.333, 208 161.500 C 208 160.675, 208.675 160, 209.500 160 C 210.333 160, 211 159.111, 211 158 C 211 156.667, 211.667 156, 213 156 C 214.607 156, 215 155.333, 215 152.611 C 215 149.530, 215.318 149.163, 218.500 148.566 C 221.941 147.920, 222 147.825, 222 142.955 L 222 138 213 138 C 205.667 138, 204 138.278, 204 139.500 C 204 141.018, 203.251 141.178, 195 141.425 C 178.375 141.922, 178.049 141.964, 178.638 143.500 C 179.108 144.723, 178.180 145, 173.607 145 C 169.290 145, 168 144.655, 168 143.500 C 168 142.452, 166.944 142, 164.500 142 C 161.167 142, 161 141.833, 161 138.500 C 161 136.213, 161.472 135, 162.362 135 C 164.217 135, 165.243 124.349, 164.382 114.024 C 163.901 108.265, 163.330 106, 162.356 106 C 161.379 106, 161 104.463, 161 100.500 C 161 95.667, 160.758 95, 159 95 C 157.381 95, 157 94.333, 157 91.500 C 157 89.056, 156.548 88, 155.500 88 C 154.667 88, 154 87.111, 154 86 C 154 84.667, 153.333 84, 152 84 C 150.381 84, 150 83.333, 150 80.500 C 150 78.056, 149.548 77, 148.500 77 C 147.675 77, 147 77.675, 147 78.500" stroke="none" fill="black" fill-rule="evenodd"/>
</svg>