<svg xmlns="http://www.w3.org/2000/svg" width="300" height="300" viewBox="0 0 300 300" version="1.1">
	<path d="M 158 62.500 C 158 64.944, 158.452 66, 159.500 66 C 160.333 66, 161 66.889, 161 68 C 161 69.111, 161.667 70, 162.500 70 C 163.325 70, 164 70.717, 164 71.594 C 164 72.470, 164.900 73.423, 166 73.710 C 167.503 74.103, 168 75.074, 168 77.617 C 168 79.911, 168.468 81, 169.455 81 C 170.325 81, 171.173 82.405, 171.566 84.500 C 171.942 86.505, 172.816 88, 173.611 88 C 174.532 88, 175 89.180, 175 91.500 C 175 93.813, 175.469 95, 176.383 95 C 177.885 95, 178.965 97.960, 178.986 102.133 C 178.996 104.013, 179.644 104.939, 181.250 105.370 C 185.831 106.597, 186 106.353, 186 98.500 C 186 92.604, 185.689 91, 184.545 91 C 183.675 91, 182.827 89.595, 182.434 87.500 C 182.058 85.495, 181.184 84, 180.389 84 C 179.486 84, 179 82.852, 179 80.722 C 179 78.682, 178.245 76.798, 177 75.732 C 175.900 74.790, 175 72.890, 175 71.510 C 175 70.008, 174.430 69, 173.579 69 C 172.798 69, 171.862 67.650, 171.500 66 C 171.138 64.350, 170.202 63, 169.421 63 C 168.639 63, 168 62.100, 168 61 C 168 59.267, 167.333 59, 163 59 L 158 59 158 62.500 M 189.583 61.525 C 188.551 65.639, 190.059 77, 191.638 77 C 192.657 77, 193 78.752, 193 83.950 C 193 89.417, 193.358 91.101, 194.678 91.840 C 195.873 92.509, 196.484 94.539, 196.798 98.889 C 197.087 102.881, 197.675 105, 198.492 105 C 199.181 105, 200.032 106.800, 200.384 109 C 200.988 112.780, 201.216 113, 204.512 113 C 207.783 113, 207.999 112.798, 207.986 109.750 C 207.966 105, 206.959 102, 205.383 102 C 204.308 102, 204 99.996, 204 93 C 204 85.667, 203.722 84, 202.500 84 C 201.435 84, 200.997 82.913, 200.991 80.250 C 200.974 72.622, 199.751 66, 198.361 66 C 197.472 66, 197 64.785, 197 62.500 C 197 59.188, 196.818 59, 193.608 59 C 190.816 59, 190.105 59.446, 189.583 61.525 M 99 100.500 C 99 101.325, 98.325 102, 97.500 102 C 96.217 102, 96 104.889, 96 122 C 96 138.136, 95.739 142, 94.648 142 C 93.604 142, 93.139 145.393, 92.602 156.912 C 91.717 175.916, 92.742 195, 94.647 195 C 95.664 195, 96 196.861, 96 202.500 C 96 208.219, 96.329 210, 97.383 210 C 98.889 210, 99.965 212.963, 99.986 217.171 C 99.997 219.314, 100.586 219.970, 102.968 220.493 C 105.366 221.020, 106.060 221.804, 106.580 224.572 C 106.933 226.458, 107.795 228, 108.495 228 C 109.194 228, 110.002 228.900, 110.290 230 C 110.726 231.670, 111.654 232, 115.906 232 L 121 232 121 235.500 C 121 238.333, 121.381 239, 123 239 C 124.100 239, 125 239.623, 125 240.383 C 125 242.110, 128.081 242.969, 134.344 242.986 C 138.353 242.998, 139.277 242.655, 139.710 241 C 140.074 239.608, 141.074 239, 143 239 C 144.926 239, 145.926 238.392, 146.290 237 C 146.577 235.900, 147.530 235, 148.406 235 C 149.283 235, 150 234.325, 150 233.500 C 150 232.675, 150.717 232, 151.594 232 C 152.470 232, 153.423 231.100, 153.710 230 C 153.998 228.900, 154.806 228, 155.505 228 C 156.205 228, 157.073 226.425, 157.434 224.500 C 157.827 222.405, 158.675 221, 159.545 221 C 160.345 221, 161 220.100, 161 219 C 161 217.900, 161.655 217, 162.455 217 C 163.325 217, 164.173 215.595, 164.566 213.500 C 164.942 211.495, 165.816 210, 166.611 210 C 167.375 210, 168 209.377, 168 208.617 C 168 207.856, 168.900 206.998, 170 206.710 C 171.100 206.423, 172 205.470, 172 204.594 C 172 203.717, 172.625 203, 173.389 203 C 174.184 203, 175.058 201.505, 175.434 199.500 C 175.827 197.405, 176.675 196, 177.545 196 C 178.538 196, 179 194.902, 179 192.545 C 179 189.389, 179.302 189.034, 182.500 188.434 C 185.682 187.837, 186 187.470, 186 184.389 C 186 182.043, 186.462 181, 187.500 181 C 188.325 181, 189 180.325, 189 179.500 C 189 178.500, 188 178, 186 178 C 184 178, 183 178.500, 183 179.500 C 183 180.333, 182.111 181, 181 181 C 179.667 181, 179 181.667, 179 183 C 179 184.333, 178.333 185, 177 185 C 175.667 185, 175 185.667, 175 187 C 175 188.111, 174.333 189, 173.500 189 C 172.675 189, 172 189.675, 172 190.500 C 172 191.333, 171.111 192, 170 192 C 168.394 192, 168 192.667, 168 195.383 C 168 197.926, 167.503 198.897, 166 199.290 C 164.900 199.577, 164 200.530, 164 201.406 C 164 202.283, 163.375 203, 162.611 203 C 161.816 203, 160.942 204.495, 160.566 206.500 C 160.173 208.595, 159.325 210, 158.455 210 C 157.655 210, 157 210.675, 157 211.500 C 157 212.325, 156.325 213, 155.500 213 C 154.667 213, 154 213.889, 154 215 C 154 216.333, 153.333 217, 152 217 C 150.667 217, 150 217.667, 150 219 C 150 220.111, 149.333 221, 148.500 221 C 147.675 221, 147 221.717, 147 222.594 C 147 223.470, 146.100 224.423, 145 224.710 C 143.900 224.998, 143 225.856, 143 226.617 C 143 227.377, 142.100 228, 141 228 C 139.627 228, 139 228.667, 139 230.125 C 139 231.972, 138.591 232.168, 135.875 231.625 C 134.156 231.281, 131.906 231, 130.875 231 C 129.844 231, 129 230.325, 129 229.500 C 129 228.667, 128.111 228, 127 228 C 125.667 228, 125 227.333, 125 226 C 125 224.667, 124.333 224, 123 224 C 121.889 224, 121 223.333, 121 222.500 C 121 221.675, 120.325 221, 119.500 221 C 118.667 221, 118 220.111, 118 219 C 118 217.667, 117.333 217, 116 217 C 114.900 217, 114 216.377, 114 215.617 C 114 214.856, 113.100 213.998, 112 213.710 C 110.900 213.423, 110 212.470, 110 211.594 C 110 210.717, 109.325 210, 108.500 210 C 107.477 210, 106.996 208.966, 106.986 206.750 C 106.966 202, 105.959 199, 104.383 199 C 103.224 199, 103 190.904, 103 149 C 103 99.667, 102.973 99, 101 99 C 99.889 99, 99 99.667, 99 100.500" stroke="none" fill="black" fill-rule="evenodd"/>
</svg>