<svg xmlns="http://www.w3.org/2000/svg" width="300" height="300" viewBox="0 0 300 300" version="1.1">
	<path d="M 175 22.500 C 175 23.548, 173.944 24, 171.500 24 C 168.667 24, 168 24.381, 168 26 C 168 27.100, 167.361 28, 166.579 28 C 165.798 28, 164.862 29.350, 164.500 31 C 164.138 32.650, 163.259 34, 162.548 34 C 161.813 34, 160.980 35.726, 160.616 38 C 160.202 40.588, 159.451 42, 158.488 42 C 157.454 42, 157 43.068, 157 45.500 C 157 47.820, 156.532 49, 155.611 49 C 154.816 49, 153.942 50.495, 153.566 52.500 C 153.173 54.595, 152.325 56, 151.455 56 C 150.459 56, 150 57.104, 150 59.500 C 150 62.036, 149.561 63, 148.406 63 C 147.530 63, 146.577 63.900, 146.290 65 C 146.002 66.100, 145.144 67, 144.383 67 C 143.373 67, 143 68.484, 143 72.500 C 143 77.333, 143.242 78, 145 78 C 146.111 78, 147 77.333, 147 76.500 C 147 75.675, 147.675 75, 148.500 75 C 149.325 75, 150 75.675, 150 76.500 C 150 77.325, 150.675 78, 151.500 78 C 152.325 78, 153 77.383, 153 76.629 C 153 75.593, 155.694 75.083, 164 74.544 C 172.484 73.994, 175 73.508, 175 72.416 C 175 71.366, 176.423 71, 180.500 71 C 185.333 71, 186 71.242, 186 73 C 186 74.100, 185.345 75, 184.545 75 C 183.675 75, 182.827 76.405, 182.434 78.500 C 182.058 80.505, 181.184 82, 180.389 82 C 179.468 82, 179 83.180, 179 85.500 C 179 88.333, 178.619 89, 177 89 C 175.667 89, 175 89.667, 175 91 C 175 92.111, 174.333 93, 173.500 93 C 172.490 93, 172 94.010, 172 96.094 C 172 98.346, 171.456 99.329, 170 99.710 C 168.900 99.998, 168 100.856, 168 101.617 C 168 102.627, 166.516 103, 162.500 103 C 158.500 103, 157 102.625, 157 101.625 C 157 99.754, 152.511 99, 141.375 99 C 132.667 99, 132 99.142, 132 101 C 132 102.100, 131.381 103, 130.625 103 C 129.254 103, 128 107.120, 128 111.625 C 128 113.333, 128.561 114, 130 114 C 131.100 114, 132 113.377, 132 112.617 C 132 111.856, 133.012 110.962, 134.250 110.630 C 137.221 109.834, 153.902 109.830, 157.875 110.625 C 161.306 111.311, 162.202 114, 159 114 C 157.667 114, 157 114.667, 157 116 C 157 117.111, 156.333 118, 155.500 118 C 154.675 118, 154 118.675, 154 119.500 C 154 120.333, 153.111 121, 152 121 C 150.393 121, 150 121.667, 150 124.389 C 150 127.470, 149.682 127.837, 146.500 128.434 C 144.405 128.827, 143 129.675, 143 130.545 C 143 131.345, 142.100 132, 141 132 C 139.889 132, 139 132.667, 139 133.500 C 139 134.548, 137.944 135, 135.500 135 C 132.433 135, 132 135.310, 132 137.500 C 132 138.970, 132.574 140, 133.393 140 C 134.159 140, 135.063 140.723, 135.402 141.606 C 136.141 143.530, 141.021 142.691, 142.300 140.420 C 142.740 139.639, 143.752 139, 144.550 139 C 145.347 139, 146 138.325, 146 137.500 C 146 136.667, 146.889 136, 148 136 C 149.333 136, 150 135.333, 150 134 C 150 132.667, 150.667 132, 152 132 C 153.333 132, 154 131.333, 154 130 C 154 128.889, 154.667 128, 155.500 128 C 156.325 128, 157 127.325, 157 126.500 C 157 125.667, 157.889 125, 159 125 C 160.333 125, 161 124.333, 161 123 C 161 121.889, 161.667 121, 162.500 121 C 163.325 121, 164 120.381, 164 119.625 C 164 118.254, 168.120 117, 172.625 117 C 174.069 117, 175 116.412, 175 115.500 C 175 114.675, 175.675 114, 176.500 114 C 177.325 114, 178 114.611, 178 115.358 C 178 116.897, 185.989 118, 197.147 118 C 202.315 118, 204 118.340, 204 119.384 C 204 120.379, 205.850 120.885, 210.600 121.187 C 215.462 121.497, 217.451 122.055, 218.150 123.304 C 218.981 124.788, 221.091 125, 235.050 125 C 248.305 125, 251 125.245, 251 126.448 C 251 127.489, 252.473 127.980, 256.250 128.198 C 261.335 128.490, 261.510 128.599, 261.806 131.656 C 262.146 135.159, 264.984 136.544, 269.500 135.411 C 271.740 134.848, 272 134.275, 272 129.892 C 272 126.393, 271.606 125, 270.617 125 C 269.856 125, 268.998 124.100, 268.710 123 C 268.310 121.468, 267.346 121, 264.594 121 C 262.239 121, 261 120.533, 261 119.647 C 261 118.288, 251.435 117, 241.349 117 C 238.150 117, 237 116.603, 237 115.500 C 237 114.247, 234.944 114, 224.500 114 C 214.561 114, 212 113.718, 212 112.625 C 212 111.052, 207.741 110, 201.375 110 C 198.153 110, 197 109.605, 197 108.500 C 197 107.278, 195.333 107, 188 107 L 179 107 179 103 C 179 100.211, 179.430 99, 180.421 99 C 181.202 99, 182.138 97.650, 182.500 96 C 182.862 94.350, 183.798 93, 184.579 93 C 185.361 93, 186 92.100, 186 91 C 186 89.900, 186.625 89, 187.389 89 C 188.184 89, 189.058 87.505, 189.434 85.500 C 189.797 83.563, 190.690 82, 191.434 82 C 192.178 82, 193.071 80.437, 193.434 78.500 C 193.827 76.405, 194.675 75, 195.545 75 C 196.541 75, 197 73.896, 197 71.500 C 197 69.056, 197.452 68, 198.500 68 C 199.356 68, 200 67.101, 200 65.906 C 200 64.654, 200.803 63.603, 202 63.290 C 203.503 62.897, 204 61.926, 204 59.383 L 204 56 198.500 56 C 193.667 56, 193 56.242, 193 58 C 193 59.843, 192.333 60, 184.500 60 C 177.852 60, 176 60.307, 176 61.410 C 176 62.457, 173.829 63.001, 167.584 63.521 C 162.956 63.907, 158.681 63.921, 158.084 63.552 C 156.256 62.422, 156.881 60, 159 60 C 160.619 60, 161 59.333, 161 56.500 C 161 54.056, 161.452 53, 162.500 53 C 163.555 53, 164 51.934, 164 49.406 C 164 46.654, 164.468 45.690, 166 45.290 C 167.503 44.897, 168 43.926, 168 41.383 C 168 38.667, 168.394 38, 170 38 C 171.538 38, 172 37.333, 172 35.117 C 172 31.797, 173.718 31.035, 181.250 31.014 L 186 31 186 27.500 C 186 24.667, 185.619 24, 184 24 C 182.889 24, 182 23.333, 182 22.500 C 182 21.452, 180.944 21, 178.500 21 C 176.056 21, 175 21.452, 175 22.500 M 96 63.500 C 96 66.779, 95.794 67.001, 92.750 67.017 C 88.563 67.040, 85 70.660, 85 74.891 C 85 76.877, 84.498 78, 83.611 78 C 82.816 78, 81.942 79.495, 81.566 81.500 C 81.173 83.595, 80.325 85, 79.455 85 C 78.424 85, 78 86.166, 78 89 C 78 91.834, 77.576 93, 76.545 93 C 75.675 93, 74.827 94.405, 74.434 96.500 C 74.058 98.505, 73.184 100, 72.389 100 C 71.468 100, 71 101.180, 71 103.500 C 71 105.813, 70.531 107, 69.617 107 C 68.101 107, 67.035 109.968, 67.014 114.250 C 67.005 116.022, 66.466 117, 65.500 117 C 64.644 117, 64 117.899, 64 119.094 C 64 120.346, 63.197 121.397, 62 121.710 C 60.497 122.103, 60 123.074, 60 125.617 C 60 127.911, 59.532 129, 58.545 129 C 57.675 129, 56.827 130.405, 56.434 132.500 C 56.058 134.505, 55.184 136, 54.389 136 C 53.625 136, 53 136.904, 53 138.010 C 53 139.115, 52.100 140.790, 51 141.732 C 49.900 142.674, 49 144.244, 49 145.222 C 49 146.200, 48.361 147, 47.579 147 C 46.798 147, 45.862 148.350, 45.500 150 C 45.138 151.650, 44.202 153, 43.421 153 C 42.572 153, 42 154.007, 42 155.500 C 42 156.993, 41.428 158, 40.579 158 C 39.798 158, 38.862 159.350, 38.500 161 C 38.138 162.650, 37.202 164, 36.421 164 C 35.464 164, 35 165.143, 35 167.500 C 35 170.333, 34.619 171, 33 171 C 31.667 171, 31 171.667, 31 173 C 31 174.100, 30.381 175, 29.625 175 C 28.254 175, 27 179.120, 27 183.625 C 27 185.729, 27.456 186, 31 186 C 34.333 186, 35 185.667, 35 184 C 35 182.889, 35.667 182, 36.500 182 C 37.466 182, 38.005 181.022, 38.014 179.250 C 38.035 174.968, 39.101 172, 40.617 172 C 41.377 172, 42 171.100, 42 170 C 42 168.900, 42.655 168, 43.455 168 C 44.325 168, 45.173 166.595, 45.566 164.500 C 45.942 162.495, 46.816 161, 47.611 161 C 48.532 161, 49 159.820, 49 157.500 C 49 154.667, 49.381 154, 51 154 C 52.333 154, 53 153.333, 53 152 C 53 150.900, 53.655 150, 54.455 150 C 55.325 150, 56.173 148.595, 56.566 146.500 C 56.942 144.495, 57.816 143, 58.611 143 C 59.375 143, 60 142.100, 60 141 C 60 139.900, 60.655 139, 61.455 139 C 62.325 139, 63.173 137.595, 63.566 135.500 C 64.129 132.500, 64.618 132, 66.995 132 C 70.238 132, 70.966 133.778, 70.986 141.750 C 70.997 145.744, 71.359 147, 72.500 147 C 73.799 147, 74.002 150.978, 74.014 176.750 C 74.021 193.113, 74.299 207.512, 74.630 208.750 C 75.079 210.424, 75.972 211, 78.117 211 C 80.013 211, 81 210.487, 81 209.500 C 81 208.667, 81.889 208, 83 208 C 84.333 208, 85 207.333, 85 206 C 85 204.667, 85.667 204, 87 204 C 88.610 204, 89 203.333, 89 200.582 C 89 196.177, 88.138 194, 86.393 194 C 85.306 194, 85 192.026, 85 185 C 85 177.667, 84.722 176, 83.500 176 C 82.232 176, 82 173.625, 82 160.625 C 82 143.658, 81.435 139, 79.375 139 C 78.310 139, 78 136.970, 78 130 C 78 123.030, 77.690 121, 76.625 121 C 75.028 121, 73.853 116.277, 74.671 113.149 C 74.980 111.967, 75.856 111, 76.617 111 C 77.426 111, 78 109.962, 78 108.500 C 78 107.038, 78.574 106, 79.383 106 C 80.899 106, 81.965 103.032, 81.986 98.750 C 81.995 96.978, 82.534 96, 83.500 96 C 84.333 96, 85 95.111, 85 94 C 85 92.900, 85.623 92, 86.383 92 C 87.899 92, 88.965 89.032, 88.986 84.750 C 88.995 82.978, 89.534 82, 90.500 82 C 91.333 82, 92 81.111, 92 80 C 92 78.667, 92.667 78, 94 78 C 95.333 78, 96 77.333, 96 76 C 96 74.667, 96.667 74, 98 74 C 99.111 74, 100 73.333, 100 72.500 C 100 71.675, 100.675 71, 101.500 71 C 102.548 71, 103 69.944, 103 67.500 C 103 65.056, 102.548 64, 101.500 64 C 100.667 64, 100 63.111, 100 62 C 100 60.667, 99.333 60, 98 60 C 96.381 60, 96 60.667, 96 63.500 M 198.750 128.689 C 197.787 128.941, 197 129.789, 197 130.573 C 197 131.358, 196.100 132, 195 132 C 193.394 132, 193 132.667, 193 135.383 C 193 137.926, 192.503 138.897, 191 139.290 C 189.900 139.577, 189 140.530, 189 141.406 C 189 142.283, 188.325 143, 187.500 143 C 186.667 143, 186 143.889, 186 145 C 186 146.100, 185.361 147, 184.579 147 C 183.798 147, 182.872 148.304, 182.522 149.898 C 182.152 151.584, 181.073 153.009, 179.943 153.305 C 178.874 153.584, 178 154.530, 178 155.406 C 178 156.283, 177.325 157, 176.500 157 C 175.667 157, 175 157.889, 175 159 C 175 160.100, 174.375 161, 173.611 161 C 172.816 161, 171.942 162.495, 171.566 164.500 C 171.173 166.595, 170.325 168, 169.455 168 C 168.459 168, 168 169.104, 168 171.500 C 168 174.333, 167.619 175, 166 175 C 164.242 175, 164 175.667, 164 180.500 L 164 186 169.500 186 C 174.333 186, 175 185.758, 175 184 C 175 182.889, 174.333 182, 173.500 182 C 172.452 182, 172 180.944, 172 178.500 C 172 176.056, 172.452 175, 173.500 175 C 174.333 175, 175 174.111, 175 173 C 175 171.900, 175.655 171, 176.455 171 C 177.325 171, 178.173 169.595, 178.566 167.500 C 178.942 165.495, 179.816 164, 180.611 164 C 181.375 164, 182 163.325, 182 162.500 C 182 161.667, 182.889 161, 184 161 C 185.606 161, 186 160.333, 186 157.617 C 186 155.074, 186.497 154.103, 188 153.710 C 189.100 153.423, 190 152.470, 190 151.594 C 190 150.717, 190.675 150, 191.500 150 C 192.333 150, 193 149.111, 193 148 C 193 146.900, 193.655 146, 194.455 146 C 195.325 146, 196.173 144.595, 196.566 142.500 C 197.163 139.318, 197.530 139, 200.611 139 C 202.957 139, 204 138.538, 204 137.500 C 204 135.946, 207.887 135.356, 215 135.830 C 220.392 136.189, 225 135.094, 225 133.455 C 225 132.655, 224.325 132, 223.500 132 C 222.675 132, 222 131.381, 222 130.625 C 222 129.869, 220.594 128.969, 218.875 128.625 C 215.403 127.931, 201.483 127.975, 198.750 128.689 M 92.500 132 C 92.138 133.650, 91.202 135, 90.421 135 C 89.572 135, 89 136.007, 89 137.500 C 89 139.056, 89.567 140, 90.500 140 C 91.510 140, 92 141.010, 92 143.094 C 92 145.346, 92.544 146.329, 94 146.710 C 95.656 147.143, 96 148.074, 96 152.117 C 96 155.617, 96.393 157, 97.389 157 C 98.184 157, 99.058 158.495, 99.434 160.500 C 99.827 162.595, 100.675 164, 101.545 164 C 102.640 164, 103 165.348, 103 169.450 C 103 173.415, 103.438 175.146, 104.606 175.799 C 105.572 176.340, 106.420 178.551, 106.736 181.349 C 107.076 184.365, 107.742 186, 108.630 186 C 109.384 186, 110 185.375, 110 184.611 C 110 183.816, 111.495 182.942, 113.500 182.566 C 116.562 181.992, 117 181.540, 117 178.955 C 117 176.995, 116.495 176, 115.500 176 C 114.417 176, 114 174.889, 114 172 C 114 169.273, 113.563 168, 112.625 168 C 111.254 168, 110 163.880, 110 159.375 C 110 157.931, 109.412 157, 108.500 157 C 107.312 157, 107 155.569, 107 150.117 C 107 144.074, 106.756 143.169, 105 142.710 C 103.544 142.329, 103 141.346, 103 139.094 C 103 137.010, 102.510 136, 101.500 136 C 100.667 136, 100 135.111, 100 134 C 100 132.667, 99.333 132, 98 132 C 96.889 132, 96 131.333, 96 130.500 C 96 127.745, 93.168 128.958, 92.500 132 M 228.250 146.713 C 227.012 146.947, 226 147.783, 226 148.570 C 226 149.356, 225.100 150, 224 150 C 222.667 150, 222 150.667, 222 152 C 222 153.111, 221.333 154, 220.500 154 C 219.675 154, 219 154.675, 219 155.500 C 219 156.333, 218.111 157, 217 157 C 215.381 157, 215 157.667, 215 160.500 C 215 163.333, 214.619 164, 213 164 C 211.667 164, 211 164.667, 211 166 C 211 167.100, 210.375 168, 209.611 168 C 208.816 168, 207.942 169.495, 207.566 171.500 C 207.173 173.595, 206.325 175, 205.455 175 C 204.459 175, 204 176.104, 204 178.500 C 204 181.036, 203.561 182, 202.406 182 C 201.530 182, 200.577 182.900, 200.290 184 C 200.002 185.100, 199.144 186, 198.383 186 C 197.469 186, 197 187.187, 197 189.500 C 197 192.333, 196.619 193, 195 193 C 193.667 193, 193 193.667, 193 195 C 193 196.100, 192.345 197, 191.545 197 C 190.675 197, 189.827 198.405, 189.434 200.500 C 189.058 202.505, 188.184 204, 187.389 204 C 186.625 204, 186 204.900, 186 206 C 186 207.100, 185.345 208, 184.545 208 C 183.675 208, 182.827 209.405, 182.434 211.500 C 182.073 213.425, 181.205 215, 180.505 215 C 179.806 215, 178.998 215.900, 178.710 217 C 178.423 218.100, 177.470 219, 176.594 219 C 175.717 219, 175 219.675, 175 220.500 C 175 221.325, 174.375 222, 173.611 222 C 172.816 222, 171.942 223.495, 171.566 225.500 C 171.173 227.595, 170.325 229, 169.455 229 C 168.424 229, 168 230.166, 168 233 C 168 236.905, 168.083 237, 171.500 237 C 174.187 237, 175 236.587, 175 235.222 C 175 234.244, 175.900 232.674, 177 231.732 C 178.100 230.790, 179 229.115, 179 228.010 C 179 226.890, 179.664 226, 180.500 226 C 181.333 226, 182 225.111, 182 224 C 182 222.667, 182.667 222, 184 222 C 185.619 222, 186 221.333, 186 218.500 C 186 215.667, 186.381 215, 188 215 C 189.333 215, 190 214.333, 190 213 C 190 211.889, 190.667 211, 191.500 211 C 192.325 211, 193 210.283, 193 209.406 C 193 208.530, 193.900 207.577, 195 207.290 C 196.417 206.919, 197 205.926, 197 203.883 C 197 201.987, 197.513 201, 198.500 201 C 199.333 201, 200 200.111, 200 199 C 200 197.667, 200.667 197, 202 197 C 203.606 197, 204 196.333, 204 193.617 C 204 191.074, 204.497 190.103, 206 189.710 C 207.100 189.423, 208 188.470, 208 187.594 C 208 186.717, 208.675 186, 209.500 186 C 210.548 186, 211 184.944, 211 182.500 C 211 179.667, 211.381 179, 213 179 C 214.333 179, 215 178.333, 215 177 C 215 175.900, 215.625 175, 216.389 175 C 217.184 175, 218.058 173.505, 218.434 171.500 C 218.827 169.405, 219.675 168, 220.545 168 C 221.541 168, 222 166.896, 222 164.500 C 222 161.667, 222.381 161, 224 161 C 225.100 161, 226 160.361, 226 159.579 C 226 158.798, 227.336 157.866, 228.968 157.507 C 231.344 156.985, 232.061 156.190, 232.561 153.527 C 233.717 147.364, 232.765 145.858, 228.250 146.713 M 240 184 C 240 185.100, 239.345 186, 238.545 186 C 237.675 186, 236.827 187.405, 236.434 189.500 C 236.058 191.505, 235.184 193, 234.389 193 C 233.477 193, 233 194.163, 233 196.383 C 233 198.926, 232.503 199.897, 231 200.290 C 229.468 200.690, 229 201.654, 229 204.406 C 229 206.806, 228.539 208, 227.611 208 C 226.816 208, 225.942 209.495, 225.566 211.500 C 225.173 213.595, 224.325 215, 223.455 215 C 222.459 215, 222 216.104, 222 218.500 C 222 221.333, 221.619 222, 220 222 C 218.667 222, 218 222.667, 218 224 C 218 225.100, 217.375 226, 216.611 226 C 215.816 226, 214.942 227.495, 214.566 229.500 C 214.173 231.595, 213.325 233, 212.455 233 C 211.655 233, 211 233.675, 211 234.500 C 211 235.325, 210.325 236, 209.500 236 C 208.667 236, 208 236.889, 208 238 C 208 239.333, 207.333 240, 206 240 C 204.667 240, 204 240.667, 204 242 C 204 243.100, 203.345 244, 202.545 244 C 201.675 244, 200.827 245.405, 200.434 247.500 C 200.058 249.505, 199.184 251, 198.389 251 C 197.625 251, 197 251.900, 197 253 C 197 254.100, 196.361 255, 195.579 255 C 194.798 255, 193.862 256.350, 193.500 258 C 193.122 259.722, 192.196 261, 191.327 261 C 190.494 261, 189.577 261.900, 189.290 263 C 189.002 264.100, 188.144 265, 187.383 265 C 186.623 265, 186 265.675, 186 266.500 C 186 267.325, 185.283 268, 184.406 268 C 183.530 268, 182.577 268.900, 182.290 270 C 181.914 271.435, 180.926 272, 178.790 272 C 176.654 272, 175.665 272.565, 175.290 274 C 174.897 275.503, 173.926 276, 171.383 276 C 168.667 276, 168 276.394, 168 278 C 168 279.721, 168.662 279.998, 172.750 279.986 C 178.923 279.969, 182 279.103, 182 277.383 C 182 276.623, 182.900 276, 184 276 C 185.100 276, 186 275.345, 186 274.545 C 186 273.679, 187.393 272.829, 189.443 272.445 C 192.204 271.927, 193.011 271.225, 193.522 268.899 C 193.872 267.305, 194.798 266, 195.579 266 C 196.361 266, 197 265.100, 197 264 C 197 262.837, 197.667 262, 198.594 262 C 199.470 262, 200.423 261.100, 200.710 260 C 200.998 258.900, 201.856 258, 202.617 258 C 203.377 258, 204 257.100, 204 256 C 204 254.900, 204.639 254, 205.421 254 C 206.202 254, 207.138 252.650, 207.500 251 C 207.862 249.350, 208.798 248, 209.579 248 C 210.361 248, 211 247.100, 211 246 C 211 244.667, 211.667 244, 213 244 C 214.333 244, 215 243.333, 215 242 C 215 240.889, 215.667 240, 216.500 240 C 217.325 240, 218 239.283, 218 238.406 C 218 237.530, 218.900 236.577, 220 236.290 C 221.503 235.897, 222 234.926, 222 232.383 C 222 229.667, 222.394 229, 224 229 C 225.111 229, 226 228.333, 226 227.500 C 226 226.675, 226.625 226, 227.389 226 C 228.177 226, 229.054 224.527, 229.416 222.597 C 229.767 220.725, 230.717 218.939, 231.527 218.628 C 232.440 218.278, 233 216.719, 233 214.531 C 233 212.108, 233.456 211, 234.455 211 C 235.325 211, 236.173 209.595, 236.566 207.500 C 236.942 205.495, 237.816 204, 238.611 204 C 239.375 204, 240 203.100, 240 202 C 240 200.900, 240.655 200, 241.455 200 C 242.325 200, 243.173 198.595, 243.566 196.500 C 243.942 194.495, 244.816 193, 245.611 193 C 246.628 193, 247 191.526, 247 187.500 L 247 182 243.500 182 C 240.667 182, 240 182.381, 240 184" stroke="none" fill="black" fill-rule="evenodd"/>
</svg>