<svg xmlns="http://www.w3.org/2000/svg" width="300" height="300" viewBox="0 0 300 300" version="1.1">
	<path d="M 113 54.500 C 113 55.325, 112.283 56, 111.406 56 C 110.530 56, 109.577 56.900, 109.290 58 C 109 59.107, 107.926 60, 106.883 60 C 105.848 60, 105 60.617, 105 61.371 C 105 62.261, 103.246 62.975, 100 63.406 C 95.089 64.057, 95 64.131, 95 67.534 C 95 69.948, 95.455 71, 96.500 71 C 97.633 71, 98 72.222, 98 76 C 98 79.778, 97.633 81, 96.500 81 C 95.417 81, 95 82.111, 95 85 C 95 88.333, 94.667 89, 93 89 C 91.381 89, 91 89.667, 91 92.500 C 91 94.820, 90.532 96, 89.611 96 C 88.816 96, 87.942 97.495, 87.566 99.500 C 87.173 101.595, 86.325 103, 85.455 103 C 84.358 103, 84 104.354, 84 108.500 C 84 113.333, 83.758 114, 82 114 C 80.381 114, 80 114.667, 80 117.500 C 80 119.944, 79.548 121, 78.500 121 C 77.445 121, 77 122.066, 77 124.594 C 77 127.346, 76.532 128.310, 75 128.710 C 73.344 129.143, 73 130.074, 73 134.117 C 73 137.656, 72.611 139, 71.588 139 C 70.720 139, 69.915 140.541, 69.500 143 C 69.085 145.459, 68.280 147, 67.412 147 C 66.389 147, 66 148.344, 66 151.883 C 66 156.021, 65.676 156.852, 63.876 157.322 C 62.110 157.784, 61.871 158.350, 62.458 160.687 C 63.309 164.079, 62.921 163.691, 66.313 164.542 C 68.650 165.129, 69.216 164.890, 69.678 163.124 C 69.983 161.956, 70.856 161, 71.617 161 C 72.627 161, 73 159.516, 73 155.500 C 73 150.667, 73.242 150, 75 150 C 76.727 150, 77 149.333, 77 145.117 C 77 141.074, 77.344 140.143, 79 139.710 C 80.197 139.397, 81 138.346, 81 137.094 C 81 135.899, 81.644 135, 82.500 135 C 83.633 135, 84 133.778, 84 130 C 84 125.667, 84.267 125, 86 125 C 87.667 125, 88 124.333, 88 121 C 88 118.111, 88.417 117, 89.500 117 C 90.466 117, 91.005 116.022, 91.014 114.250 C 91.035 109.968, 92.101 107, 93.617 107 C 94.531 107, 95 105.813, 95 103.500 C 95 101.152, 95.465 100, 96.412 100 C 97.280 100, 98.085 98.459, 98.500 96 C 98.915 93.541, 99.720 92, 100.588 92 C 101.535 92, 102 90.848, 102 88.500 C 102 85.667, 102.381 85, 104 85 C 105.619 85, 106 84.333, 106 81.500 L 106 78 113 78 C 118.459 78, 120 78.320, 120 79.455 C 120 80.325, 121.405 81.173, 123.500 81.566 C 125.505 81.942, 127 82.816, 127 83.611 C 127 84.539, 128.194 85, 130.594 85 C 133.346 85, 134.310 85.468, 134.710 87 C 135.103 88.503, 136.074 89, 138.617 89 C 140.957 89, 142 89.462, 142 90.500 C 142 91.548, 143.056 92, 145.500 92 C 148.333 92, 149 92.381, 149 94 C 149 95.727, 149.667 96, 153.883 96 C 157.926 96, 158.857 96.344, 159.290 98 C 159.690 99.532, 160.654 100, 163.406 100 C 165.934 100, 167 100.445, 167 101.500 C 167 102.466, 167.978 103.005, 169.750 103.014 C 174.032 103.035, 177 104.101, 177 105.617 C 177 106.564, 178.261 107, 181 107 C 183.889 107, 185 107.417, 185 108.500 C 185 109.548, 186.056 110, 188.500 110 C 191.333 110, 192 110.381, 192 112 C 192 113.758, 192.667 114, 197.500 114 C 201.500 114, 203 114.375, 203 115.375 C 203 116.746, 207.120 118, 211.625 118 C 213.069 118, 214 118.588, 214 119.500 C 214 120.621, 215.201 121.003, 218.750 121.014 C 224.923 121.031, 228 121.897, 228 123.617 C 228 124.631, 229.505 125, 233.639 125 L 239.279 125 238.690 129.972 C 238.027 135.571, 238.710 136.442, 243.024 135.495 C 245.618 134.925, 246 134.402, 246 131.421 C 246 129.047, 246.459 128, 247.500 128 C 248.325 128, 249 127.325, 249 126.500 C 249 125.675, 248.325 125, 247.500 125 C 246.667 125, 246 124.111, 246 123 C 246 121.889, 245.333 121, 244.500 121 C 243.675 121, 243 120.365, 243 119.588 C 243 118.720, 241.459 117.915, 239 117.500 C 236.541 117.085, 235 116.280, 235 115.412 C 235 114.367, 233.570 114, 229.500 114 C 225.484 114, 224 113.627, 224 112.617 C 224 111.041, 221 110.034, 216.250 110.014 C 214.034 110.004, 213 109.523, 213 108.500 C 213 107.367, 211.778 107, 208 107 C 204.410 107, 203 106.610, 203 105.617 C 203 104.041, 200 103.034, 195.250 103.014 C 193.068 103.004, 192 102.518, 192 101.534 C 192 100.531, 190.424 99.860, 187 99.406 C 183.754 98.975, 182 98.261, 182 97.371 C 182 96.438, 180.722 96, 178 96 C 174.667 96, 174 95.667, 174 94 C 174 92.381, 173.333 92, 170.500 92 C 168.056 92, 167 91.548, 167 90.500 C 167 89.456, 165.950 89, 163.550 89 C 161.421 89, 159.755 88.385, 159.201 87.394 C 158.660 86.428, 156.449 85.580, 153.651 85.264 C 150.857 84.949, 149 84.237, 149 83.481 C 149 82.789, 147.425 81.927, 145.500 81.566 C 143.405 81.173, 142 80.325, 142 79.455 C 142 78.468, 140.911 78, 138.617 78 C 136.074 78, 135.103 77.503, 134.710 76 C 134.329 74.544, 133.346 74, 131.094 74 C 129.077 74, 128 73.502, 128 72.570 C 128 71.783, 126.987 70.995, 125.750 70.820 C 123.691 70.527, 123.529 70.055, 123.842 65.250 C 124.153 60.481, 123.992 60, 122.092 60 C 120.368 60, 120 59.385, 120 56.500 C 120 53.167, 119.833 53, 116.500 53 C 114.056 53, 113 53.452, 113 54.500 M 120 122.361 C 120 123.751, 113.378 124.974, 105.750 124.991 C 103.228 124.997, 102 125.453, 102 126.383 C 102 127.144, 101.069 128.010, 99.931 128.308 C 98.271 128.742, 97.925 129.506, 98.181 132.174 C 98.474 135.228, 98.807 135.525, 102.250 135.810 C 104.703 136.013, 106 136.619, 106 137.560 C 106 138.539, 107.121 139, 109.500 139 C 112.333 139, 113 138.619, 113 137 C 113 135.889, 113.667 135, 114.500 135 C 115.325 135, 116 134.325, 116 133.500 C 116 132.300, 117.500 132, 123.500 132 C 129.500 132, 131 131.700, 131 130.500 C 131 129.247, 133.056 129, 143.500 129 C 153.944 129, 156 129.247, 156 130.500 C 156 131.737, 157.820 132, 166.383 132 C 175.926 132, 176.809 132.162, 177.290 134 C 177.577 135.100, 178.530 136, 179.406 136 C 180.283 136, 181 136.623, 181 137.383 C 181 138.144, 181.900 139.002, 183 139.290 C 184.875 139.780, 184.999 140.648, 184.986 153.156 C 184.971 167.702, 184.490 171, 182.383 171 C 181.373 171, 181 172.484, 181 176.500 C 181 180.570, 180.633 182, 179.588 182 C 178.720 182, 177.915 183.541, 177.500 186 C 177.085 188.459, 176.280 190, 175.412 190 C 174.389 190, 174 191.344, 174 194.883 C 174 198.926, 173.656 199.857, 172 200.290 C 170.468 200.690, 170 201.654, 170 204.406 C 170 206.934, 169.555 208, 168.500 208 C 167.452 208, 167 209.056, 167 211.500 C 167 213.813, 166.531 215, 165.617 215 C 164.101 215, 163.035 217.968, 163.014 222.250 C 163.005 224.022, 162.466 225, 161.500 225 C 160.667 225, 160 225.889, 160 227 C 160 228.333, 159.333 229, 158 229 C 156.667 229, 156 229.667, 156 231 C 156 232.619, 155.333 233, 152.500 233 C 149.667 233, 149 232.619, 149 231 C 149 229.381, 148.333 229, 145.500 229 C 142.482 229, 142 228.673, 142 226.625 C 142 222.120, 140.746 218, 139.375 218 C 138.339 218, 138 216.273, 138 211 C 138 204.667, 137.810 204, 136 204 C 134.148 204, 134 204.667, 134 213 C 134 221.333, 134.148 222, 136 222 C 137.758 222, 138 222.667, 138 227.500 C 138 232.333, 138.242 233, 140 233 C 141.100 233, 142 233.623, 142 234.383 C 142 235.144, 142.900 236.002, 144 236.290 C 145.100 236.577, 146 237.530, 146 238.406 C 146 239.283, 146.675 240, 147.500 240 C 148.325 240, 149 240.623, 149 241.383 C 149 242.669, 151.840 243.955, 154.750 243.986 C 155.438 243.994, 156 243.100, 156 242 C 156 240.381, 156.667 240, 159.500 240 C 162.036 240, 163 239.561, 163 238.406 C 163 237.530, 163.900 236.577, 165 236.290 C 166.392 235.926, 167 234.926, 167 233 C 167 231.074, 167.608 230.074, 169 229.710 C 170.532 229.310, 171 228.346, 171 225.594 C 171 223.066, 171.445 222, 172.500 222 C 173.548 222, 174 220.944, 174 218.500 C 174 216.068, 174.454 215, 175.488 215 C 176.451 215, 177.202 213.588, 177.616 211 C 178.002 208.587, 178.800 207, 179.628 207 C 180.455 207, 181.005 205.907, 181.014 204.250 C 181.035 199.968, 182.101 197, 183.617 197 C 184.627 197, 185 195.516, 185 191.500 C 185 187.354, 185.358 186, 186.455 186 C 187.325 186, 188.173 184.595, 188.566 182.500 C 188.942 180.495, 189.816 179, 190.611 179 C 191.673 179, 192 177.233, 192 171.500 C 192 165.781, 192.329 164, 193.383 164 C 195.285 164, 195.973 160.813, 195.973 152 C 195.973 143.187, 195.285 140, 193.383 140 C 192.436 140, 192 138.739, 192 136 C 192 132.667, 191.667 132, 190 132 C 188.667 132, 188 131.333, 188 130 C 188 128.381, 187.333 128, 184.500 128 C 182.203 128, 181 127.529, 181 126.630 C 181 125.742, 179.365 125.076, 176.349 124.736 C 173.551 124.420, 171.340 123.572, 170.799 122.606 C 170.012 121.198, 166.819 121, 144.950 121 C 124.574 121, 120 121.249, 120 122.361 M 120 145 C 120 146.111, 119.333 147, 118.500 147 C 117.675 147, 117 147.675, 117 148.500 C 117 149.325, 116.150 150, 115.111 150 C 113.745 150, 113.041 150.967, 112.566 153.500 C 112.173 155.595, 111.325 157, 110.455 157 C 109.655 157, 109 157.900, 109 159 C 109 160.100, 108.377 161, 107.617 161 C 106.856 161, 105.998 161.900, 105.710 163 C 105.423 164.100, 104.470 165, 103.594 165 C 102.439 165, 102 165.964, 102 168.500 C 102 170.896, 101.541 172, 100.545 172 C 99.675 172, 98.827 173.405, 98.434 175.500 C 98.058 177.505, 97.184 179, 96.389 179 C 95.625 179, 95 179.900, 95 181 C 95 182.100, 94.345 183, 93.545 183 C 92.675 183, 91.827 184.405, 91.434 186.500 C 91.071 188.437, 90.178 190, 89.434 190 C 88.690 190, 87.797 191.563, 87.434 193.500 C 87.058 195.505, 86.184 197, 85.389 197 C 84.625 197, 84 197.900, 84 199 C 84 200.100, 83.361 201, 82.579 201 C 81.798 201, 80.862 202.350, 80.500 204 C 80.138 205.650, 79.252 207, 78.532 207 C 77.812 207, 76.935 208.532, 76.584 210.403 C 76.233 212.275, 75.283 214.061, 74.473 214.372 C 73.663 214.683, 73 215.626, 73 216.469 C 73 217.311, 72.325 218, 71.500 218 C 70.667 218, 70 218.889, 70 220 C 70 221.333, 69.333 222, 68 222 C 66.381 222, 66 222.667, 66 225.500 C 66 228.036, 65.561 229, 64.406 229 C 63.530 229, 62.577 229.900, 62.290 231 C 62.002 232.100, 61.144 233, 60.383 233 C 59.623 233, 59 233.675, 59 234.500 C 59 235.333, 58.111 236, 57 236 C 55.333 236, 55 236.667, 55 240 C 55 243.905, 55.083 244, 58.500 244 C 61.333 244, 62 243.619, 62 242 C 62 240.667, 62.667 240, 64 240 C 65.333 240, 66 239.333, 66 238 C 66 236.667, 66.667 236, 68 236 C 69.111 236, 70 235.333, 70 234.500 C 70 233.675, 70.625 233, 71.389 233 C 72.184 233, 73.058 231.505, 73.434 229.500 C 73.827 227.405, 74.675 226, 75.545 226 C 76.345 226, 77 225.100, 77 224 C 77 222.900, 77.625 222, 78.389 222 C 79.184 222, 80.058 220.505, 80.434 218.500 C 80.827 216.405, 81.675 215, 82.545 215 C 83.345 215, 84 214.100, 84 213 C 84 211.900, 84.655 211, 85.455 211 C 86.325 211, 87.173 209.595, 87.566 207.500 C 87.942 205.495, 88.816 204, 89.611 204 C 90.375 204, 91 203.283, 91 202.406 C 91 201.530, 91.900 200.577, 93 200.290 C 94.417 199.919, 95 198.926, 95 196.883 C 95 194.987, 95.513 194, 96.500 194 C 97.356 194, 98 193.101, 98 191.906 C 98 190.654, 98.803 189.603, 100 189.290 C 101.392 188.926, 102 187.926, 102 186 C 102 184.074, 102.608 183.074, 104 182.710 C 105.197 182.397, 106 181.346, 106 180.094 C 106 178.899, 106.644 178, 107.500 178 C 108.503 178, 109 176.997, 109 174.969 C 109 173.221, 109.624 171.698, 110.473 171.372 C 111.283 171.061, 112.233 169.275, 112.584 167.403 C 112.935 165.532, 113.795 164, 114.495 164 C 115.194 164, 116.002 163.100, 116.290 162 C 116.577 160.900, 117.530 160, 118.406 160 C 119.495 160, 120 159.089, 120 157.125 C 120 154.705, 120.495 154.151, 123.125 153.625 C 124.844 153.281, 127.319 153, 128.625 153 C 130.808 153, 131 152.596, 131 148 L 131 143 125.500 143 C 120.667 143, 120 143.242, 120 145 M 131 198.500 C 131 199.325, 131.675 200, 132.500 200 C 133.325 200, 134 199.325, 134 198.500 C 134 197.675, 133.325 197, 132.500 197 C 131.675 197, 131 197.675, 131 198.500" stroke="none" fill="black" fill-rule="evenodd"/>
</svg>