<svg xmlns="http://www.w3.org/2000/svg" width="300" height="300" viewBox="0 0 300 300" version="1.1">
	<path d="M 142.290 40 C 142.002 41.100, 141.144 42, 140.383 42 C 138.938 42, 138.441 47.381, 139.607 50.418 C 140.410 52.510, 146 52.581, 146 50.500 C 146 49.313, 147.411 49.003, 152.750 49.014 C 156.463 49.021, 160.512 49.299, 161.750 49.630 C 164.275 50.307, 164.811 52, 162.500 52 C 161.667 52, 161 52.889, 161 54 C 161 55.717, 160.329 56.002, 156.250 56.014 C 150.077 56.031, 147 56.897, 147 58.617 C 147 59.627, 145.516 60, 141.500 60 C 137.134 60, 136 60.329, 136 61.594 C 136 62.470, 135.100 63.423, 134 63.710 C 132.344 64.143, 132 65.074, 132 69.117 L 132 74 137.500 74 C 141.722 74, 143 73.652, 143 72.500 C 143 71.452, 144.056 71, 146.500 71 C 149.333 71, 150 70.619, 150 69 C 150 67.381, 150.667 67, 153.500 67 C 155.944 67, 157 66.548, 157 65.500 C 157 64.588, 157.931 64, 159.375 64 C 163.880 64, 168 62.746, 168 61.375 C 168 60.272, 170.864 60, 182.500 60 L 197 60 197 67.094 C 197 73.346, 196.763 74.249, 195 74.710 C 193.583 75.081, 193 76.074, 193 78.117 C 193 80.088, 192.496 81, 191.406 81 C 190.530 81, 189.577 81.900, 189.290 83 C 189.002 84.100, 188.144 85, 187.383 85 C 186.623 85, 186 85.900, 186 87 C 186 88.333, 185.333 89, 184 89 C 182.889 89, 182 89.667, 182 90.500 C 182 91.325, 181.325 92, 180.500 92 C 179.667 92, 179 92.889, 179 94 C 179 95.758, 178.333 96, 173.500 96 C 169.297 96, 168 96.351, 168 97.488 C 168 98.451, 166.588 99.202, 164 99.616 C 161.587 100.002, 160 100.800, 160 101.628 C 160 102.652, 158.328 103, 153.406 103 C 147.654 103, 146.746 103.255, 146.290 105 C 145.857 106.656, 144.926 107, 140.883 107 C 137.209 107, 136 107.371, 136 108.500 C 136 109.548, 134.944 110, 132.500 110 C 130.056 110, 129 109.548, 129 108.500 C 129 107.675, 129.675 107, 130.500 107 C 131.688 107, 132 105.569, 132 100.117 C 132 94.074, 131.756 93.169, 130 92.710 C 128.900 92.423, 128 91.470, 128 90.594 C 128 89.717, 127.325 89, 126.500 89 C 125.675 89, 125 89.675, 125 90.500 C 125 91.333, 124.111 92, 123 92 C 121.039 92, 121 92.667, 121 126.500 C 121 156.500, 120.804 161, 119.500 161 C 118.435 161, 117.997 162.087, 117.991 164.750 C 117.974 172.378, 116.751 179, 115.361 179 C 114.286 179, 114 181.624, 114 191.500 C 114 201.508, 113.723 204, 112.609 204 C 111.550 204, 111.048 206.618, 110.500 215 C 109.952 223.382, 109.450 226, 108.391 226 C 107.280 226, 107 228.419, 107 238 C 107 248, 107.250 250, 108.500 250 C 109.325 250, 110 249.550, 110 249 C 110 248.450, 110.900 248, 112 248 C 113.822 248, 114 247.333, 114 240.500 C 114 234.803, 114.331 233, 115.375 233 C 117.150 233, 118 228.589, 118 219.375 C 118 213.698, 118.324 212, 119.409 212 C 120.510 212, 120.892 209.699, 121.159 201.462 C 121.418 193.445, 121.859 190.703, 123 189.999 C 124.164 189.280, 124.580 186.377, 124.855 177.036 C 125.125 167.915, 125.530 165, 126.530 165 C 127.473 165, 128.051 162.431, 128.554 156 C 129.071 149.385, 129.621 147, 130.629 147 C 131.717 147, 132 144.440, 132 134.617 C 132 120.823, 131.873 121.047, 139.750 121.014 C 141.966 121.004, 143 120.523, 143 119.500 C 143 118.425, 144.097 118, 146.875 118 C 152.772 118, 157 116.904, 157 115.375 C 157 114.438, 158.273 114, 161 114 C 163.739 114, 165 113.564, 165 112.617 C 165 111.101, 167.968 110.035, 172.250 110.014 C 174.022 110.005, 175 109.466, 175 108.500 C 175 107.417, 176.111 107, 179 107 C 181.739 107, 183 106.564, 183 105.617 C 183 104.101, 185.968 103.035, 190.250 103.014 C 192.022 103.005, 193 102.466, 193 101.500 C 193 100.417, 194.111 100, 197 100 C 199.889 100, 201 100.417, 201 101.500 C 201 102.325, 201.675 103, 202.500 103 C 203.333 103, 204 103.889, 204 105 C 204 106.333, 204.667 107, 206 107 C 207.111 107, 208 106.333, 208 105.500 C 208 104.675, 208.675 104, 209.500 104 C 210.583 104, 211 102.889, 211 100 C 211 97.261, 210.564 96, 209.617 96 C 208.856 96, 207.998 95.100, 207.710 94 C 207.249 92.237, 206.346 92, 200.094 92 C 194.721 92, 193 91.664, 193 90.617 C 193 89.856, 193.900 88.998, 195 88.710 C 196.100 88.423, 197 87.470, 197 86.594 C 197 85.717, 197.655 85, 198.455 85 C 199.325 85, 200.173 83.595, 200.566 81.500 C 200.942 79.495, 201.816 78, 202.611 78 C 203.607 78, 204 76.617, 204 73.117 C 204 69.074, 204.344 68.143, 206 67.710 C 207.655 67.277, 207.998 66.353, 207.986 62.344 C 207.965 54.653, 207.222 53, 203.790 53 C 201.654 53, 200.665 52.435, 200.290 51 C 199.799 49.122, 198.926 49, 185.995 49 L 172.223 49 171.566 45.500 C 170.966 42.302, 170.611 42, 167.455 42 C 165.180 42, 164 41.528, 164 40.617 C 164 38.678, 160.801 38.029, 151.156 38.014 C 143.648 38.001, 142.760 38.200, 142.290 40 M 96 77.955 C 96 80.540, 95.562 80.992, 92.500 81.566 C 90.575 81.927, 89 82.747, 89 83.389 C 89 84.031, 88.100 85.326, 87 86.268 C 85.900 87.210, 85 88.885, 85 89.990 C 85 91.096, 84.365 92, 83.588 92 C 82.720 92, 81.915 93.541, 81.500 96 C 81.085 98.459, 80.280 100, 79.412 100 C 78.389 100, 78 101.344, 78 104.883 C 78 108.926, 77.656 109.857, 76 110.290 C 74.468 110.690, 74 111.654, 74 114.406 C 74 116.934, 73.555 118, 72.500 118 C 71.452 118, 71 119.056, 71 121.500 C 71 124.333, 70.619 125, 69 125 C 67.381 125, 67 125.667, 67 128.500 C 67 130.908, 66.543 132, 65.534 132 C 64.531 132, 63.860 133.576, 63.406 137 C 62.975 140.246, 62.261 142, 61.371 142 C 60.438 142, 60 143.278, 60 146 C 60 149.333, 59.667 150, 58 150 C 56.381 150, 56 150.667, 56 153.500 C 56 155.944, 55.548 157, 54.500 157 C 53.667 157, 53 157.889, 53 159 C 53 160.333, 52.333 161, 51 161 C 49.267 161, 49 161.667, 49 166 C 49 169.639, 48.616 171, 47.588 171 C 46.720 171, 45.915 172.541, 45.500 175 C 45.085 177.459, 44.280 179, 43.412 179 C 42.465 179, 42 180.152, 42 182.500 C 42 184.896, 41.541 186, 40.545 186 C 39.017 186, 37.539 191.370, 38.169 194.639 C 38.596 196.856, 42 197.790, 42 195.690 C 42 194.889, 42.900 193.998, 44 193.710 C 45.532 193.310, 46 192.346, 46 189.594 C 46 187.194, 46.461 186, 47.389 186 C 48.184 186, 49.058 184.505, 49.434 182.500 C 49.827 180.405, 50.675 179, 51.545 179 C 52.345 179, 53 178.100, 53 177 C 53 175.889, 53.667 175, 54.500 175 C 55.412 175, 56 174.069, 56 172.625 C 56 168.120, 57.254 164, 58.625 164 C 59.474 164, 60 162.896, 60 161.117 C 60 159.074, 60.583 158.081, 62 157.710 C 63.532 157.310, 64 156.346, 64 153.594 C 64 151.194, 64.461 150, 65.389 150 C 66.184 150, 67.058 148.505, 67.434 146.500 C 67.827 144.405, 68.675 143, 69.545 143 C 70.541 143, 71 141.896, 71 139.500 C 71 137.180, 71.468 136, 72.389 136 C 73.184 136, 74.058 134.505, 74.434 132.500 C 74.827 130.405, 75.675 129, 76.545 129 C 77.576 129, 78 127.834, 78 125 C 78 122.166, 78.424 121, 79.455 121 C 80.325 121, 81.173 119.595, 81.566 117.500 C 81.942 115.495, 82.816 114, 83.611 114 C 84.514 114, 85 112.852, 85 110.722 C 85 108.682, 85.755 106.798, 87 105.732 C 88.100 104.790, 89 102.890, 89 101.510 C 89 99.946, 89.565 99, 90.500 99 C 91.510 99, 92 97.990, 92 95.906 C 92 93.654, 92.544 92.671, 94 92.290 C 95.100 92.002, 96 91.197, 96 90.500 C 96 89.803, 96.900 88.998, 98 88.710 C 99.616 88.288, 99.997 87.353, 99.986 83.844 C 99.968 78.058, 99.068 75, 97.383 75 C 96.518 75, 96 76.106, 96 77.955 M 85 123 C 85 124.100, 84.377 125, 83.617 125 C 81.654 125, 81.461 127.343, 81.816 146.750 C 82.069 160.585, 82.404 164, 83.510 164 C 84.627 164, 84.946 167.985, 85.194 185.072 C 85.468 203.909, 85.686 206.247, 87.250 207.121 C 88.409 207.769, 89 209.309, 89 211.680 L 89 215.260 93.651 214.736 C 96.449 214.420, 98.660 213.572, 99.201 212.606 C 99.695 211.723, 100.752 211, 101.550 211 C 102.347 211, 103 210.325, 103 209.500 C 103 208.667, 103.889 208, 105 208 C 106.667 208, 107 207.333, 107 204 C 107 201.459, 106.544 200.005, 105.750 200.014 C 102.840 200.045, 100 201.331, 100 202.617 C 100 203.377, 99.100 204, 98 204 C 96.242 204, 96 203.333, 96 198.500 C 96 194.566, 95.618 193, 94.658 193 C 93.176 193, 92.008 169.575, 92.003 139.750 C 92 126.418, 91.770 124, 90.500 124 C 89.675 124, 89 123.325, 89 122.500 C 89 121.667, 88.111 121, 87 121 C 85.667 121, 85 121.667, 85 123 M 172 144.500 C 172 145.742, 170.111 146, 161 146 C 150.667 146, 150 146.121, 150 148 C 150 149.764, 149.333 150, 144.344 150 L 138.687 150 139.356 166.250 C 139.734 175.432, 140.454 182.645, 141.012 182.833 C 142.495 183.334, 142.256 193.748, 140.750 194.249 C 139.867 194.542, 139.402 198.233, 139.166 206.832 C 138.901 216.504, 138.542 219, 137.416 219 C 136.306 219, 136 220.835, 136 227.500 L 136 236 139.500 236 C 141.944 236, 143 235.548, 143 234.500 C 143 233.675, 143.675 233, 144.500 233 C 145.673 233, 146.001 231.636, 146.006 226.750 C 146.018 214.327, 147.217 204, 148.648 204 C 149.743 204, 150 199.817, 150 182 C 150 163.111, 150.212 160, 151.500 160 C 152.325 160, 153 159.325, 153 158.500 C 153 157.667, 153.889 157, 155 157 C 156.111 157, 157 156.333, 157 155.500 C 157 154.316, 158.423 153.997, 163.750 153.986 C 171.848 153.970, 175 153.241, 175 151.383 C 175 150.623, 175.900 150, 177 150 C 178.111 150, 179 150.667, 179 151.500 C 179 152.548, 180.056 153, 182.500 153 C 184.944 153, 186 152.548, 186 151.500 C 186 150.278, 187.667 150, 195 150 C 203.333 150, 204 150.148, 204 152 C 204 153.111, 203.333 154, 202.500 154 C 201.452 154, 201 155.056, 201 157.500 C 201 159.944, 201.452 161, 202.500 161 C 203.778 161, 204 163.667, 204 179 L 204 197 198.500 197 C 194.278 197, 193 197.348, 193 198.500 C 193 199.652, 191.722 200, 187.500 200 L 182 200 182 184 C 182 168.667, 182.083 168, 184 168 C 185.677 168, 186 167.333, 186 163.875 C 186 159.788, 185.971 159.756, 182.875 160.375 C 181.156 160.719, 178.681 161, 177.375 161 C 175.327 161, 175 161.482, 175 164.500 C 175 166.944, 174.548 168, 173.500 168 C 172.234 168, 172 170.319, 172 182.875 C 172 191.056, 171.719 199.156, 171.375 200.875 L 170.750 204 163.875 204 C 158.431 204, 157 204.312, 157 205.500 C 157 206.325, 156.283 207, 155.406 207 C 154.530 207, 153.577 207.900, 153.290 209 C 153.002 210.100, 152.144 211, 151.383 211 C 150.436 211, 150 212.261, 150 215 C 150 217.889, 150.417 219, 151.500 219 C 152.325 219, 153 219.675, 153 220.500 C 153 221.333, 153.889 222, 155 222 C 156.333 222, 157 221.333, 157 220 C 157 218.667, 157.667 218, 159 218 C 160.111 218, 161 217.333, 161 216.500 C 161 215.667, 161.889 215, 163 215 C 164.100 215, 165 214.374, 165 213.608 C 165 211.876, 169.169 210.753, 172.500 211.589 C 175.185 212.263, 175.987 215, 173.500 215 C 172.452 215, 172 216.056, 172 218.500 C 172 220.944, 172.452 222, 173.500 222 C 174.764 222, 175 224.278, 175 236.500 C 175 248.521, 175.249 251, 176.455 251 C 177.325 251, 178.173 252.405, 178.566 254.500 C 179.220 257.986, 179.245 258, 184.611 258 L 190 258 190 254.500 C 190 251.667, 189.619 251, 188 251 C 186.667 251, 186 250.333, 186 249 C 186 247.900, 185.394 247, 184.654 247 C 183.008 247, 181.734 226.505, 182.680 215.250 L 183.290 208 187.005 208 C 194.004 208, 200 206.784, 200 205.364 C 200 204.614, 200.900 204, 202 204 C 203.932 204, 204 204.667, 204 223.500 C 204 239.430, 204.253 243, 205.383 243 C 206.374 243, 206.964 245.122, 207.468 250.500 C 207.980 255.968, 208.554 258, 209.585 258 C 210.363 258, 211 258.900, 211 260 C 211 261.362, 211.667 262, 213.091 262 C 215.102 262, 215.169 261.595, 214.841 251.462 C 214.589 243.662, 214.127 240.694, 213.063 240.038 C 211.115 238.836, 210.869 216.317, 212.790 215.130 C 213.485 214.700, 214.329 212.021, 214.666 209.175 L 215.279 204 227.639 204 L 240 204 240 199.891 L 240 195.782 232.750 196.058 C 219.628 196.557, 215 196.151, 215 194.500 C 215 193.675, 214.325 193, 213.500 193 C 211.496 193, 211.578 190.376, 213.606 189.598 C 214.797 189.141, 215.035 188.276, 214.527 186.251 C 214.150 184.749, 213.370 183.228, 212.793 182.872 C 212.168 182.486, 211.537 175.710, 211.230 166.112 L 210.716 150 223.358 150 C 233.929 150, 236 150.246, 236 151.500 C 236 152.555, 237.066 153, 239.594 153 C 242.346 153, 243.310 153.468, 243.710 155 C 243.998 156.100, 244.856 157, 245.617 157 C 246.377 157, 247 157.900, 247 159 C 247 160.111, 246.333 161, 245.500 161 C 244.667 161, 244 161.889, 244 163 C 244 164.111, 244.667 165, 245.500 165 C 246.776 165, 247 167.606, 247 182.450 C 247 197.573, 247.218 200.023, 248.638 200.817 C 249.967 201.561, 250.369 204.018, 250.775 213.867 C 251.159 223.198, 251.589 226, 252.637 226 C 253.700 226, 254 228.284, 254 236.375 L 254 246.750 251.027 247.345 C 248.953 247.759, 247.866 248.688, 247.433 250.413 C 246.506 254.104, 247.606 255, 253.059 255 C 257.333 255, 258 254.730, 258 253 C 258 251.900, 258.623 251, 259.383 251 C 260.959 251, 261.966 248, 261.986 243.250 C 261.996 241.034, 262.477 240, 263.500 240 C 264.333 240, 265 239.111, 265 238 C 265 236.889, 264.333 236, 263.500 236 C 262.289 236, 261.997 234.411, 261.986 227.750 C 261.971 218.196, 261.318 215, 259.383 215 C 258.248 215, 258 211.139, 258 193.500 C 258 175.056, 257.787 172, 256.500 172 C 255.272 172, 255 170.278, 255 162.500 C 255 154.722, 255.272 153, 256.500 153 C 257.325 153, 258 152.325, 258 151.500 C 258 150.675, 257.375 150, 256.611 150 C 255.816 150, 254.942 148.505, 254.566 146.500 C 253.919 143.050, 251 141.413, 251 144.500 C 251 145.548, 249.944 146, 247.500 146 C 245.056 146, 244 145.548, 244 144.500 C 244 143.194, 239.333 143, 208 143 C 176.667 143, 172 143.194, 172 144.500" stroke="none" fill="black" fill-rule="evenodd"/>
</svg>