<svg xmlns="http://www.w3.org/2000/svg" width="300" height="300" viewBox="0 0 300 300" version="1.1">
	<path d="M 106.566 40.500 C 105.940 43.838, 105.715 44.001, 101.705 44.014 C 96.051 44.032, 93 44.944, 93 46.617 C 93 47.377, 92.100 48, 91 48 C 89.837 48, 89 48.667, 89 49.594 C 89 50.470, 88.100 51.423, 87 51.710 C 85.900 51.998, 85 52.856, 85 53.617 C 85 54.377, 84.283 55, 83.406 55 C 82.530 55, 81.577 55.900, 81.290 57 C 81.002 58.100, 80.144 59, 79.383 59 C 78.623 59, 78 59.675, 78 60.500 C 78 61.333, 77.111 62, 76 62 C 74.667 62, 74 62.667, 74 64 C 74 65.333, 73.333 66, 72 66 C 70.889 66, 70 66.667, 70 67.500 C 70 68.325, 69.325 69, 68.500 69 C 67.667 69, 67 69.889, 67 71 C 67 72.333, 66.333 73, 65 73 C 63.889 73, 63 73.667, 63 74.500 C 63 75.325, 62.325 76, 61.500 76 C 60.667 76, 60 76.889, 60 78 C 60 79.333, 59.333 80, 58 80 C 56.667 80, 56 80.667, 56 82 C 56 83.333, 55.333 84, 54 84 C 52.889 84, 52 84.667, 52 85.500 C 52 86.325, 51.325 87, 50.500 87 C 49.667 87, 49 87.889, 49 89 C 49 90.333, 48.333 91, 47 91 C 45.889 91, 45 91.667, 45 92.500 C 45 93.325, 44.325 94, 43.500 94 C 42.667 94, 42 94.889, 42 96 C 42 97.333, 41.333 98, 40 98 C 38.667 98, 38 98.667, 38 100 C 38 101.619, 37.333 102, 34.500 102 C 32.187 102, 31 102.469, 31 103.383 C 31 104.144, 30.069 105.010, 28.931 105.308 C 27.271 105.742, 26.925 106.506, 27.181 109.174 C 27.474 112.228, 27.807 112.525, 31.250 112.810 C 34.470 113.077, 35 112.830, 35 111.060 C 35 109.667, 35.647 109, 37 109 C 38.111 109, 39 108.333, 39 107.500 C 39 106.675, 39.675 106, 40.500 106 C 41.333 106, 42 105.111, 42 104 C 42 102.667, 42.667 102, 44 102 C 45.100 102, 46 101.377, 46 100.617 C 46 99.331, 48.840 98.045, 51.750 98.014 C 52.438 98.006, 53 98.900, 53 100 C 53 101.111, 53.667 102, 54.500 102 C 55.706 102, 56 103.542, 56 109.875 C 56 119.568, 56.824 124, 58.625 124 C 59.734 124, 60 127.091, 60 140 C 60 155.333, 60.083 156, 62 156 C 63.333 156, 64 156.667, 64 158 C 64 159.726, 64.667 160, 68.875 160 C 73.526 160, 73.778 159.858, 74.370 156.902 C 75.164 152.932, 74.179 149, 72.392 149 C 71.472 149, 71 147.831, 71 145.550 C 71 143.611, 70.378 141.749, 69.580 141.300 C 68.798 140.860, 67.843 139.235, 67.456 137.689 C 66.871 135.351, 67.110 134.784, 68.876 134.322 C 70.422 133.918, 71 132.982, 71 130.883 C 71 128.912, 71.504 128, 72.594 128 C 73.470 128, 74.423 127.100, 74.710 126 C 75.165 124.260, 76.074 124, 81.710 124 C 87.346 124, 88.255 123.740, 88.710 122 C 89.184 120.189, 90.074 120, 98.117 120 L 107 120 107 116.500 L 107 113 91 113 C 77.444 113, 75 113.229, 75 114.500 C 75 115.583, 73.889 116, 71 116 L 67 116 67 105.500 C 67 96.833, 66.738 95, 65.500 95 C 64.348 95, 64 93.722, 64 89.500 C 64 85.278, 64.348 84, 65.500 84 C 66.333 84, 67 83.111, 67 82 C 67 80.667, 67.667 80, 69 80 C 70.538 80, 71 79.333, 71 77.117 C 71 75.074, 71.583 74.081, 73 73.710 C 74.100 73.423, 75 72.506, 75 71.673 C 75 70.804, 76.278 69.878, 78 69.500 C 79.650 69.138, 81 68.202, 81 67.421 C 81 66.639, 81.900 66, 83 66 C 84.333 66, 85 65.333, 85 64 C 85 62.667, 85.667 62, 87 62 C 88.111 62, 89 61.333, 89 60.500 C 89 59.675, 89.623 59, 90.383 59 C 91.144 59, 92.002 58.100, 92.290 57 C 92.671 55.544, 93.654 55, 95.906 55 C 97.879 55, 99 54.497, 99 53.611 C 99 52.816, 100.495 51.942, 102.500 51.566 C 104.595 51.173, 106 50.325, 106 49.455 C 106 48.424, 107.166 48, 110 48 L 114 48 114 42.500 L 114 37 110.611 37 C 107.530 37, 107.163 37.318, 106.566 40.500 M 148.750 55.689 C 147.787 55.941, 147 56.789, 147 57.573 C 147 58.358, 146.128 59, 145.061 59 C 143.525 59, 142.980 59.951, 142.436 63.575 C 142.025 66.318, 142.161 68.561, 142.776 69.176 C 144.191 70.591, 150 69.179, 150 67.421 C 150 66.365, 151.415 66, 155.500 66 C 159.722 66, 161 65.652, 161 64.500 C 161 63.310, 162.444 63, 168 63 C 173.556 63, 175 63.310, 175 64.500 C 175 65.333, 175.889 66, 177 66 C 178.111 66, 179 66.667, 179 67.500 C 179 68.325, 179.607 69, 180.349 69 C 181.399 69, 181.819 72.386, 182.241 84.250 C 182.539 92.638, 182.561 101.750, 182.289 104.500 L 181.795 109.500 168.209 109.147 C 156.557 108.845, 154.454 109.026, 153.435 110.419 C 152.587 111.579, 149.927 112.222, 144.124 112.670 C 137.995 113.143, 136 113.651, 136 114.742 C 136 115.537, 135.100 116.423, 134 116.710 C 132.900 116.998, 132 117.856, 132 118.617 C 132 119.377, 132.900 120, 134 120 C 135.100 120, 136 120.655, 136 121.455 C 136 123.288, 141.783 124.451, 146.500 123.566 C 148.595 123.173, 150 122.325, 150 121.455 C 150 120.320, 151.541 120, 157 120 C 162.556 120, 164 119.690, 164 118.500 C 164 117.667, 164.889 117, 166 117 C 167.538 117, 168 117.667, 168 119.883 C 168 122.028, 168.576 122.921, 170.250 123.370 C 174.007 124.376, 175 124.090, 175 122 C 175 120.667, 175.667 120, 177 120 C 178.333 120, 179 119.333, 179 118 C 179 116.889, 179.667 116, 180.500 116 C 181.583 116, 182 117.111, 182 120 C 182 122.889, 181.583 124, 180.500 124 C 179.289 124, 178.997 125.589, 178.986 132.250 C 178.971 141.804, 178.318 145, 176.383 145 C 175.469 145, 175 146.187, 175 148.500 C 175 150.944, 174.548 152, 173.500 152 C 172.675 152, 172 151.325, 172 150.500 C 172 149.417, 170.889 149, 168 149 C 165.111 149, 164 149.417, 164 150.500 C 164 151.621, 162.799 152.003, 159.250 152.014 C 153.077 152.031, 150 152.897, 150 154.617 C 150 155.663, 148.293 156, 143 156 C 137.727 156, 136 156.339, 136 157.375 C 136 158.746, 131.880 160, 127.375 160 C 125.931 160, 125 160.588, 125 161.500 C 125 162.753, 122.950 163, 112.550 163 C 101.731 163, 99.971 163.229, 99.122 164.750 C 98.298 166.225, 96.339 166.552, 86.659 166.834 C 75.472 167.159, 75.159 167.230, 74.568 169.584 C 73.510 173.801, 74.891 176.817, 78.215 177.547 C 83.131 178.627, 96 177.084, 96 175.415 C 96 174.285, 98.115 174, 106.500 174 C 114.742 174, 117 173.704, 117 172.625 C 117 171.196, 121.159 170, 126.125 170 C 128.014 170, 129 169.486, 129 168.500 C 129 167.675, 129.675 167, 130.500 167 C 131.548 167, 132 168.056, 132 170.500 C 132 173.333, 131.619 174, 130 174 C 128.889 174, 128 174.667, 128 175.500 C 128 176.325, 127.325 177, 126.500 177 C 125.667 177, 125 177.889, 125 179 C 125 180.333, 124.333 181, 123 181 C 121.667 181, 121 181.667, 121 183 C 121 184.100, 120.345 185, 119.545 185 C 118.675 185, 117.827 186.405, 117.434 188.500 C 117.058 190.505, 116.184 192, 115.389 192 C 114.625 192, 114 192.900, 114 194 C 114 195.100, 113.361 196, 112.579 196 C 111.798 196, 110.862 197.350, 110.500 199 C 110.138 200.650, 109.202 202, 108.421 202 C 107.639 202, 107 202.914, 107 204.031 C 107 205.149, 106.352 206.311, 105.561 206.615 C 104.770 206.919, 103.834 208.479, 103.482 210.084 C 103.129 211.688, 102.202 213, 101.421 213 C 100.639 213, 100 213.900, 100 215 C 100 216.333, 99.333 217, 98 217 C 96.381 217, 96 217.667, 96 220.500 C 96 223.333, 95.619 224, 94 224 C 92.667 224, 92 224.667, 92 226 C 92 227.111, 91.333 228, 90.500 228 C 89.675 228, 89 228.675, 89 229.500 C 89 230.325, 88.283 231, 87.406 231 C 86.530 231, 85.577 231.900, 85.290 233 C 85.002 234.100, 84.194 235, 83.495 235 C 82.795 235, 81.927 236.575, 81.566 238.500 C 81.173 240.595, 80.325 242, 79.455 242 C 78.655 242, 78 242.900, 78 244 C 78 245.333, 77.333 246, 76 246 C 74.667 246, 74 246.667, 74 248 C 74 249.100, 73.361 250, 72.579 250 C 71.798 250, 70.871 251.312, 70.518 252.916 C 70.166 254.521, 69.230 256.081, 68.439 256.385 C 66.526 257.119, 66.577 261, 68.500 261 C 69.325 261, 70 261.675, 70 262.500 C 70 263.333, 70.889 264, 72 264 C 73.163 264, 74 263.333, 74 262.406 C 74 261.530, 74.900 260.577, 76 260.290 C 77.107 260, 78 258.926, 78 257.883 C 78 256.848, 78.639 256, 79.421 256 C 80.202 256, 81.138 254.650, 81.500 253 C 81.862 251.350, 82.798 250, 83.579 250 C 84.361 250, 85 249.100, 85 248 C 85 246.667, 85.667 246, 87 246 C 88.619 246, 89 245.333, 89 242.500 C 89 240.056, 89.452 239, 90.500 239 C 91.325 239, 92 238.283, 92 237.406 C 92 236.530, 92.900 235.577, 94 235.290 C 95.107 235, 96 233.926, 96 232.883 C 96 231.848, 96.675 231, 97.500 231 C 98.325 231, 99 230.325, 99 229.500 C 99 228.675, 99.850 228, 100.889 228 C 102.255 228, 102.959 227.033, 103.434 224.500 C 103.827 222.405, 104.675 221, 105.545 221 C 106.345 221, 107 220.100, 107 219 C 107 217.900, 107.623 217, 108.383 217 C 109.144 217, 110.002 216.100, 110.290 215 C 110.577 213.900, 111.530 213, 112.406 213 C 113.561 213, 114 212.036, 114 209.500 C 114 207.143, 114.464 206, 115.421 206 C 116.202 206, 117.138 204.650, 117.500 203 C 117.862 201.350, 118.798 200, 119.579 200 C 120.361 200, 121 199.100, 121 198 C 121 196.667, 121.667 196, 123 196 C 124.333 196, 125 195.333, 125 194 C 125 192.900, 125.625 192, 126.389 192 C 127.184 192, 128.058 190.505, 128.434 188.500 C 128.827 186.405, 129.675 185, 130.545 185 C 131.345 185, 132 184.100, 132 183 C 132 181.667, 132.667 181, 134 181 C 135.111 181, 136 180.333, 136 179.500 C 136 178.675, 136.675 178, 137.500 178 C 138.333 178, 139 177.111, 139 176 C 139 174.667, 139.667 174, 141 174 C 142.100 174, 143 173.377, 143 172.617 C 143 171.331, 145.840 170.045, 148.750 170.014 C 149.700 170.003, 150 173.959, 150 186.500 C 150 199.912, 150.260 203, 151.389 203 C 152.184 203, 153.058 204.495, 153.434 206.500 C 153.918 209.082, 154.603 210, 156.045 210 C 157.120 210, 158 210.614, 158 211.364 C 158 212.795, 164.007 214, 171.140 214 C 173.904 214, 175 214.426, 175 215.500 C 175 216.544, 176.050 217, 178.450 217 C 180.696 217, 182.243 217.611, 182.881 218.750 C 183.783 220.362, 186.675 220.510, 219.430 220.631 C 253.630 220.757, 255 220.690, 255 218.881 C 255 217.846, 255.675 217, 256.500 217 C 257.333 217, 258 216.111, 258 215 C 258 213.889, 258.667 213, 259.500 213 C 261.234 213, 261.511 210.361, 261.838 190.750 C 261.970 182.822, 262.280 181, 263.500 181 C 264.689 181, 265 179.561, 265 174.050 C 265 168.554, 265.355 166.901, 266.696 166.150 C 267.945 165.451, 268.503 163.462, 268.813 158.600 C 269.115 153.850, 269.621 152, 270.616 152 C 271.663 152, 272 150.294, 272 145 C 272 139.444, 271.690 138, 270.500 138 C 269.675 138, 269 138.623, 269 139.383 C 269 140.144, 268.100 141.002, 267 141.290 C 265.330 141.726, 265 142.654, 265 146.906 C 265 150.562, 264.612 152, 263.625 152 C 262.254 152, 261 156.120, 261 160.625 C 261 162.069, 260.412 163, 259.500 163 C 258.312 163, 258 164.431, 258 169.883 C 258 175.926, 257.756 176.831, 256 177.290 C 254.330 177.726, 254 178.654, 254 182.906 C 254 186.767, 253.637 188, 252.500 188 C 251.352 188, 251 189.265, 251 193.383 C 251 197.926, 250.688 198.848, 249 199.290 C 247.544 199.671, 247 200.654, 247 202.906 C 247 205.070, 246.521 206, 245.406 206 C 244.530 206, 243.577 206.900, 243.290 208 C 242.819 209.799, 241.926 210, 234.383 210 C 227.598 210, 226 210.286, 226 211.500 C 226 212.764, 223.722 213, 211.500 213 C 199.278 213, 197 212.764, 197 211.500 C 197 210.312, 195.569 210, 190.117 210 C 184.074 210, 183.169 209.756, 182.710 208 C 182.274 206.330, 181.346 206, 177.094 206 C 173.414 206, 172 205.614, 172 204.611 C 172 203.822, 170.522 202.945, 168.572 202.580 C 165.804 202.060, 165.020 201.366, 164.493 198.968 C 164.134 197.336, 163.247 196, 162.521 196 C 160.823 196, 160.408 190.891, 160.834 175.250 L 161.167 163 164.584 163 C 166.908 163, 168 162.535, 168 161.544 C 168 160.430, 169.704 160.019, 175.250 159.794 L 182.500 159.500 182.802 154.250 C 183.020 150.473, 183.511 149, 184.552 149 C 185.687 149, 186 147.380, 186 141.500 C 186 135.832, 186.333 134, 187.364 134 C 188.930 134, 190 127.854, 190 118.860 C 190 114.318, 190.337 113, 191.500 113 C 192.787 113, 193 109.944, 193 91.500 C 193 73.056, 192.787 70, 191.500 70 C 190.445 70, 190 68.934, 190 66.406 C 190 63.654, 189.532 62.690, 188 62.290 C 186.893 62, 186 60.926, 186 59.883 C 186 58.848, 185.325 58, 184.500 58 C 183.675 58, 183 57.325, 183 56.500 C 183 55.223, 180.579 55.017, 166.750 55.116 C 157.813 55.180, 149.713 55.438, 148.750 55.689" stroke="none" fill="black" fill-rule="evenodd"/>
</svg>