<svg xmlns="http://www.w3.org/2000/svg" width="300" height="300" viewBox="0 0 300 300" version="1.1">
	<path d="M 220.566 62.500 C 220.173 64.595, 219.325 66, 218.455 66 C 217.358 66, 217 67.354, 217 71.500 C 217 76.333, 217.242 77, 219 77 C 220.810 77, 221 77.667, 221 84 C 221 89.556, 221.310 91, 222.500 91 C 223.737 91, 224 92.817, 224 101.353 C 224 115.801, 224.957 124, 226.642 124 C 227.766 124, 228 131.765, 228 169 C 228 206.882, 227.779 214, 226.601 214 C 225.604 214, 225.002 216.005, 224.500 221 L 223.797 228 219.015 228 C 215.074 228, 214.141 227.648, 213.710 226 C 213.274 224.330, 212.346 224, 208.094 224 C 204.233 224, 203 223.637, 203 222.500 C 203 221.450, 201.941 221, 199.469 221 C 197.281 221, 195.722 220.440, 195.372 219.527 C 195.061 218.717, 193.275 217.767, 191.403 217.416 C 189.532 217.065, 188 216.173, 188 215.434 C 188 214.690, 186.437 213.797, 184.500 213.434 C 182.495 213.058, 181 212.184, 181 211.389 C 181 210.625, 180.100 210, 179 210 C 177.900 210, 177 209.345, 177 208.545 C 177 207.675, 175.595 206.827, 173.500 206.434 C 171.495 206.058, 170 205.184, 170 204.389 C 170 203.625, 169.325 203, 168.500 203 C 167.452 203, 167 204.056, 167 206.500 C 167 209.333, 167.381 210, 169 210 C 170.111 210, 171 210.667, 171 211.500 C 171 212.325, 171.675 213, 172.500 213 C 173.333 213, 174 213.889, 174 215 C 174 216.619, 174.667 217, 177.500 217 C 180.333 217, 181 217.381, 181 219 C 181 220.333, 181.667 221, 183 221 C 184.111 221, 185 221.667, 185 222.500 C 185 223.466, 185.978 224.005, 187.750 224.014 C 192.032 224.035, 195 225.101, 195 226.617 C 195 227.564, 196.261 228, 199 228 C 201.834 228, 203 228.424, 203 229.455 C 203 230.325, 204.405 231.173, 206.500 231.566 C 208.425 231.927, 210 232.797, 210 233.500 C 210 234.203, 211.575 235.073, 213.500 235.434 C 215.595 235.827, 217 236.675, 217 237.545 C 217 238.642, 218.354 239, 222.500 239 C 227.333 239, 228 238.758, 228 237 C 228 235.667, 228.667 235, 230 235 C 231.733 235, 232 234.333, 232 230 C 232 226.474, 232.397 225, 233.347 225 C 234.673 225, 235.983 211.273, 235.995 197.250 C 235.998 194.363, 236.450 192, 237 192 C 237.550 192, 238 189.525, 238 186.500 C 238 183.475, 237.550 181, 237 181 C 235.549 181, 235.770 177.244, 237.250 176.749 C 239.146 176.115, 238.990 157.229, 237.080 156.049 C 235.930 155.339, 235.571 150.108, 235.196 128.586 C 234.820 107.002, 234.476 102, 233.366 102 C 232.327 102, 232 100.116, 232 94.125 C 232 84.432, 231.176 80, 229.375 80 C 228.339 80, 228 78.273, 228 73 C 228 67.694, 227.664 66, 226.611 66 C 225.816 66, 224.942 64.505, 224.566 62.500 C 224.203 60.563, 223.310 59, 222.566 59 C 221.822 59, 220.929 60.563, 220.566 62.500 M 145 67.500 C 145 68.412, 144.069 69, 142.625 69 C 138.120 69, 134 70.254, 134 71.625 C 134 72.530, 132.803 73, 130.500 73 C 128.187 73, 127 73.469, 127 74.383 C 127 75.886, 124.039 76.965, 119.857 76.986 C 118.403 76.994, 116.955 77.675, 116.638 78.500 C 116.297 79.391, 114.793 80, 112.938 80 C 110.654 80, 109.672 80.538, 109.290 82 C 108.848 83.688, 107.926 84, 103.383 84 C 99.265 84, 98 84.352, 98 85.500 C 98 86.412, 97.069 87, 95.625 87 C 91.120 87, 87 88.254, 87 89.625 C 87 90.653, 85.334 91, 80.406 91 C 74.654 91, 73.746 91.255, 73.290 93 C 72.897 94.503, 71.926 95, 69.383 95 C 67.120 95, 66 95.472, 66 96.427 C 66 97.211, 65.221 98.003, 64.270 98.187 C 62.923 98.446, 62.498 99.680, 62.350 103.760 C 62.185 108.326, 62.408 109, 64.080 109 C 65.136 109, 66 109.675, 66 110.500 C 66 111.325, 66.675 112, 67.500 112 C 68.500 112, 69 111, 69 109 C 69 106.667, 69.444 106, 71 106 C 72.333 106, 73 105.333, 73 104 C 73 102.242, 73.667 102, 78.500 102 C 82.570 102, 84 101.633, 84 100.588 C 84 99.720, 85.541 98.915, 88 98.500 C 90.222 98.125, 92 97.257, 92 96.549 C 92 95.695, 94.221 95.096, 98.717 94.735 C 102.412 94.438, 105.600 93.701, 105.801 93.098 C 106.258 91.725, 109 91.641, 109 93 C 109 93.550, 108.365 94, 107.588 94 C 106.720 94, 105.915 95.541, 105.500 98 C 104.900 101.552, 104.511 102, 102.029 102 C 100.074 102, 99.076 102.602, 98.710 104 C 98.423 105.100, 97.470 106, 96.594 106 C 95.717 106, 94.992 106.563, 94.983 107.250 C 94.962 108.751, 90.655 113, 89.154 113 C 88.569 113, 87.795 114.575, 87.434 116.500 C 86.864 119.541, 86.398 120, 83.889 120 C 81.912 120, 81 120.503, 81 121.594 C 81 122.470, 80.126 123.416, 79.057 123.695 C 77.941 123.987, 76.849 125.409, 76.492 127.037 C 76.034 129.120, 75.107 130.037, 72.986 130.503 C 70.490 131.051, 70.014 131.722, 69.448 135.497 C 69.088 137.896, 69.092 140.340, 69.456 140.929 C 70.802 143.106, 80 141.758, 80 139.383 C 80 138.308, 82.004 138, 89 138 C 96.092 138, 98 137.700, 98 136.585 C 98 135.554, 100.032 134.980, 105.500 134.468 C 110.878 133.964, 113 133.374, 113 132.383 C 113 131.622, 113.675 131, 114.500 131 C 115.325 131, 116 131.675, 116 132.500 C 116 133.333, 116.889 134, 118 134 C 119.879 134, 120 134.667, 120 145 C 120 155.333, 119.879 156, 118 156 C 116.242 156, 116 156.667, 116 161.500 L 116 167 111.250 166.986 C 105.077 166.969, 102 166.103, 102 164.383 C 102 163.436, 100.739 163, 98 163 C 95.240 163, 94 162.566, 94 161.601 C 94 159.950, 81.932 158.417, 77.171 159.463 C 73.037 160.371, 71.128 167, 75 167 C 76.111 167, 77 167.667, 77 168.500 C 77 169.711, 78.589 170.003, 85.250 170.014 C 94.804 170.029, 98 170.682, 98 172.617 C 98 173.531, 99.187 174, 101.500 174 C 104.036 174, 105 174.439, 105 175.594 C 105 176.470, 105.900 177.423, 107 177.710 C 109.253 178.299, 109.755 181, 107.611 181 C 106.816 181, 105.942 182.495, 105.566 184.500 C 105.173 186.595, 104.325 188, 103.455 188 C 102.655 188, 102 188.900, 102 190 C 102 191.100, 101.345 192, 100.545 192 C 99.675 192, 98.827 193.405, 98.434 195.500 C 98.058 197.505, 97.184 199, 96.389 199 C 95.625 199, 95 199.900, 95 201 C 95 202.333, 94.333 203, 93 203 C 91.381 203, 91 203.667, 91 206.500 C 91 209.833, 90.833 210, 87.500 210 C 84.667 210, 84 210.381, 84 212 C 84 213.100, 83.377 214, 82.617 214 C 81.331 214, 80.045 216.840, 80.014 219.750 C 80.005 220.544, 81.459 221, 84 221 C 87.333 221, 88 220.667, 88 219 C 88 217.889, 88.667 217, 89.500 217 C 90.325 217, 91 216.325, 91 215.500 C 91 214.667, 91.889 214, 93 214 C 94.333 214, 95 213.333, 95 212 C 95 210.667, 95.667 210, 97 210 C 98.333 210, 99 209.333, 99 208 C 99 206.889, 99.667 206, 100.500 206 C 101.325 206, 102 205.325, 102 204.500 C 102 203.675, 102.655 203, 103.455 203 C 104.325 203, 105.173 201.595, 105.566 199.500 C 105.942 197.495, 106.816 196, 107.611 196 C 108.375 196, 109 195.100, 109 194 C 109 192.667, 109.667 192, 111 192 C 112.619 192, 113 191.333, 113 188.500 C 113 186.187, 113.469 185, 114.383 185 C 115.144 185, 116.002 184.100, 116.290 183 C 116.690 181.468, 117.654 181, 120.406 181 C 123.847 181, 124 180.851, 124 177.500 C 124 174.667, 123.619 174, 122 174 C 120.667 174, 120 173.333, 120 172 C 120 170.900, 120.655 170, 121.455 170 C 122.325 170, 123.173 168.595, 123.566 166.500 C 123.942 164.495, 124.816 163, 125.611 163 C 126.599 163, 127.004 161.630, 127.014 158.250 C 127.031 152.077, 127.897 149, 129.617 149 C 130.711 149, 131 146.699, 131 138 C 131 127.667, 130.879 127, 129 127 C 127.667 127, 127 126.333, 127 125 C 127 122.718, 124.677 122.531, 110.250 123.654 C 104.302 124.117, 102 124.674, 102 125.648 C 102 126.620, 100.454 127, 96.500 127 C 92.278 127, 91 127.348, 91 128.500 C 91 129.325, 90.325 130, 89.500 130 C 88.500 130, 88 129, 88 127 C 88 125, 88.500 124, 89.500 124 C 90.333 124, 91 123.111, 91 122 C 91 120.667, 91.667 120, 93 120 C 94.100 120, 95 119.377, 95 118.617 C 95 117.856, 95.900 116.998, 97 116.710 C 98.100 116.423, 99 115.470, 99 114.594 C 99 113.717, 99.675 113, 100.500 113 C 101.325 113, 102 112.377, 102 111.617 C 102 110.856, 102.900 109.998, 104 109.710 C 105.100 109.423, 106 108.523, 106 107.710 C 106 106.898, 106.900 105.998, 108 105.710 C 109.100 105.423, 110 104.470, 110 103.594 C 110 102.717, 110.675 102, 111.500 102 C 112.325 102, 113 101.377, 113 100.617 C 113 99.856, 113.900 98.998, 115 98.710 C 116.100 98.423, 117 97.506, 117 96.673 C 117 95.804, 118.278 94.878, 120 94.500 C 121.650 94.138, 123 93.202, 123 92.421 C 123 91.639, 123.900 91, 125 91 C 126.111 91, 127 90.333, 127 89.500 C 127 88.667, 127.889 88, 129 88 C 130.333 88, 131 87.333, 131 86 C 131 84.381, 131.667 84, 134.500 84 C 136.820 84, 138 83.532, 138 82.611 C 138 81.816, 139.495 80.942, 141.500 80.566 C 143.595 80.173, 145 79.325, 145 78.455 C 145 77.655, 145.900 77, 147 77 C 148.333 77, 149 76.333, 149 75 C 149 73.889, 149.667 73, 150.500 73 C 151.325 73, 152.006 72.438, 152.014 71.750 C 152.021 71.063, 152.299 69.487, 152.630 68.250 C 153.184 66.183, 152.898 66, 149.117 66 C 146.124 66, 145 66.410, 145 67.500 M 167 96.500 C 167 100.722, 167.348 102, 168.500 102 C 169.523 102, 170.004 103.034, 170.014 105.250 C 170.034 110, 171.041 113, 172.617 113 C 173.707 113, 174 115.227, 174 123.500 C 174 131.742, 174.296 134, 175.375 134 C 176.948 134, 178 138.259, 178 144.625 C 178 147.683, 178.416 149, 179.383 149 C 180.144 149, 181.002 149.900, 181.290 151 C 181.726 152.670, 182.654 153, 186.906 153 L 192 153 192 149 C 192 145.095, 191.917 145, 188.500 145 L 185 145 185 132.500 C 185 122.524, 184.721 120, 183.617 120 C 181.897 120, 181.031 116.923, 181.014 110.750 C 181.003 107.201, 180.621 106, 179.500 106 C 178.348 106, 178 104.722, 178 100.500 C 178 95.667, 177.758 95, 176 95 C 174.667 95, 174 94.333, 174 93 C 174 91.381, 173.333 91, 170.500 91 L 167 91 167 96.500 M 164 201 C 164 201.550, 164.450 202, 165 202 C 165.550 202, 166 201.550, 166 201 C 166 200.450, 165.550 200, 165 200 C 164.450 200, 164 200.450, 164 201" stroke="none" fill="black" fill-rule="evenodd"/>
</svg>