<svg xmlns="http://www.w3.org/2000/svg" width="300" height="300" viewBox="0 0 300 300" version="1.1">
	<path d="M 173 170.500 C 173 172.333, 173.533 173, 175 173 C 176.467 173, 177 172.333, 177 170.500 C 177 168.667, 176.467 168, 175 168 C 173.533 168, 173 168.667, 173 170.500 M 168 184.500 C 168 185.875, 167.550 187, 167 187 C 166.450 187, 166 188.125, 166 189.500 C 166 191.056, 165.433 192, 164.500 192 C 163.227 192, 163 194.503, 163 208.531 C 163 222.303, 163.250 225.159, 164.500 225.638 C 165.325 225.955, 166 227.066, 166 228.107 C 166 229.148, 166.450 230, 167 230 C 167.550 230, 168 231.125, 168 232.500 C 168 233.875, 168.450 235, 169 235 C 169.622 235, 170.059 228.479, 170.156 217.750 C 170.242 208.262, 170.375 196.338, 170.451 191.250 C 170.556 184.273, 170.272 182, 169.295 182 C 168.580 182, 168 183.120, 168 184.500 M 168 256.417 C 168 257.837, 167.550 259, 167 259 C 166.450 259, 166 260.125, 166 261.500 C 166 263.056, 165.433 264, 164.500 264 C 163.222 264, 163 266.667, 163 282 L 163 300 166.500 300 L 170 300 170.179 279.500 C 170.277 268.225, 170.389 258.025, 170.429 256.833 C 170.468 255.642, 169.938 254.479, 169.250 254.250 C 168.465 253.988, 168 254.794, 168 256.417" stroke="none" fill="black" fill-rule="evenodd"/>
</svg>