<svg xmlns="http://www.w3.org/2000/svg" width="300" height="300" viewBox="0 0 300 300" version="1.1">
	<path d="M 178.393 159.750 C 177.705 160.438, 176.211 161, 175.071 161 C 173.932 161, 173 161.450, 173 162 C 173 162.550, 172.325 163, 171.500 163 C 170.675 163, 170 163.675, 170 164.500 C 170 165.325, 169.550 166, 169 166 C 168.450 166, 168 166.900, 168 168 C 168 169.100, 167.550 170, 167 170 C 166.450 170, 166 172.250, 166 175 L 166 180 169.500 180 L 173 180 173 172.587 L 173 165.173 212.500 165.337 L 252 165.500 252 162 L 252 158.500 215.821 158.500 C 188.211 158.500, 179.346 158.796, 178.393 159.750 M 266 162 L 266 165.925 282.998 165.713 L 299.996 165.500 299.996 162 L 299.996 158.500 282.998 158.287 L 266 158.075 266 162 M 166 212.500 C 166 215.722, 166.238 216, 169 216 C 171.762 216, 172 215.722, 172 212.500 C 172 209.278, 171.762 209, 169 209 C 166.238 209, 166 209.278, 166 212.500" stroke="none" fill="black" fill-rule="evenodd"/>
</svg>