<svg xmlns="http://www.w3.org/2000/svg" width="300" height="300" viewBox="0 0 300 300" version="1.1">
	<path d="M 149 43.594 C 149 44.470, 148.100 45.423, 147 45.710 C 145.900 45.998, 145 46.856, 145 47.617 C 145 48.377, 144.375 49, 143.611 49 C 142.816 49, 141.942 50.495, 141.566 52.500 C 141.173 54.595, 140.325 56, 139.455 56 C 138.424 56, 138 57.166, 138 60 C 138 62.889, 137.583 64, 136.500 64 C 135.675 64, 135 64.675, 135 65.500 C 135 66.583, 133.889 67, 131 67 C 128.111 67, 127 66.583, 127 65.500 C 127 64.452, 125.944 64, 123.500 64 C 121.056 64, 120 64.452, 120 65.500 C 120 66.344, 119.106 67, 117.956 67 C 116.059 67, 115.933 67.519, 116.206 74.239 C 116.448 80.200, 116.809 81.538, 118.250 81.813 C 119.652 82.080, 120 81.437, 120 78.573 C 120 75.156, 120.153 75, 123.500 75 C 126.833 75, 127 75.167, 127 78.500 C 127 80.896, 126.541 82, 125.545 82 C 124.675 82, 123.827 83.405, 123.434 85.500 C 123.058 87.505, 122.184 89, 121.389 89 C 120.625 89, 120 89.900, 120 91 C 120 92.100, 119.361 93, 118.579 93 C 117.798 93, 116.862 94.350, 116.500 96 C 116.138 97.650, 115.202 99, 114.421 99 C 113.639 99, 113 99.848, 113 100.883 C 113 101.926, 112.107 103, 111 103.290 C 109.900 103.577, 109 104.530, 109 105.406 C 109 106.283, 108.375 107, 107.611 107 C 106.816 107, 105.942 108.495, 105.566 110.500 C 105.173 112.595, 104.325 114, 103.455 114 C 102.655 114, 102 114.900, 102 116 C 102 117.100, 101.345 118, 100.545 118 C 99.675 118, 98.827 119.405, 98.434 121.500 C 98.058 123.505, 97.184 125, 96.389 125 C 95.468 125, 95 126.180, 95 128.500 C 95 131.333, 94.619 132, 93 132 C 91.667 132, 91 132.667, 91 134 C 91 135.100, 90.361 136, 89.579 136 C 88.798 136, 87.862 137.350, 87.500 139 C 87.138 140.650, 86.202 142, 85.421 142 C 84.639 142, 84 142.900, 84 144 C 84 145.333, 83.333 146, 82 146 C 80.667 146, 80 146.667, 80 148 C 80 149.100, 79.377 150, 78.617 150 C 77.856 150, 76.998 150.900, 76.710 152 C 76.423 153.100, 75.470 154, 74.594 154 C 73.717 154, 73 154.675, 73 155.500 C 73 156.325, 72.325 157, 71.500 157 C 70.667 157, 70 157.889, 70 159 C 70 160.333, 69.333 161, 68 161 C 66.381 161, 66 161.667, 66 164.500 L 66 168 71.500 168 L 77 168 77 164.500 C 77 162.056, 77.452 161, 78.500 161 C 79.325 161, 80 160.283, 80 159.406 C 80 158.530, 80.900 157.577, 82 157.290 C 83.107 157, 84 155.926, 84 154.883 C 84 153.848, 84.675 153, 85.500 153 C 86.325 153, 87 152.325, 87 151.500 C 87 150.675, 87.850 150, 88.889 150 C 90.255 150, 90.959 149.033, 91.434 146.500 C 91.827 144.405, 92.675 143, 93.545 143 C 94.345 143, 95 142.100, 95 141 C 95 139.667, 95.667 139, 97 139 C 98.111 139, 99 138.333, 99 137.500 C 99 136.675, 99.675 136, 100.500 136 C 101.538 136, 102 134.957, 102 132.617 C 102 130.074, 102.497 129.103, 104 128.710 C 105.197 128.397, 106 127.346, 106 126.094 C 106 124.899, 106.644 124, 107.500 124 C 108.500 124, 109 123, 109 121 C 109 118.667, 109.444 118, 111 118 C 112.333 118, 113 117.333, 113 116 C 113 114.900, 113.625 114, 114.389 114 C 115.184 114, 116.058 112.505, 116.434 110.500 C 116.827 108.405, 117.675 107, 118.545 107 C 119.345 107, 120 106.100, 120 105 C 120 103.667, 120.667 103, 122 103 C 123.333 103, 124 102.333, 124 101 C 124 99.889, 124.667 99, 125.500 99 C 126.487 99, 127 98.013, 127 96.117 C 127 94.074, 127.583 93.081, 129 92.710 C 130.456 92.329, 131 91.346, 131 89.094 C 131 86.930, 131.479 86, 132.594 86 C 133.470 86, 134.423 85.100, 134.710 84 C 135.181 82.201, 136.074 82, 143.617 82 C 150.402 82, 152 82.286, 152 83.500 C 152 84.652, 153.278 85, 157.500 85 C 162.333 85, 163 85.242, 163 87 C 163 88.758, 163.667 89, 168.500 89 C 172.722 89, 174 89.348, 174 90.500 C 174 91.621, 175.201 92.003, 178.750 92.014 C 184.923 92.031, 188 92.897, 188 94.617 C 188 95.671, 189.781 96, 195.500 96 C 201.197 96, 203 96.331, 203 97.375 C 203 98.904, 207.228 100, 213.125 100 C 215.722 100, 217 100.448, 217 101.358 C 217 102.952, 227.189 104.312, 231.968 103.356 C 234.625 102.825, 235 102.333, 235 99.375 C 235 96.002, 234.997 96, 230.117 96 C 226.074 96, 225.143 95.656, 224.710 94 C 224.249 92.237, 223.346 92, 217.094 92 C 211.455 92, 210 91.692, 210 90.500 C 210 89.348, 208.722 89, 204.500 89 C 200.484 89, 199 88.627, 199 87.617 C 199 85.897, 195.923 85.031, 189.750 85.014 C 186.354 85.004, 185 84.601, 185 83.601 C 185 82.604, 182.995 82.002, 178 81.500 C 173.005 80.998, 171 80.396, 171 79.399 C 171 78.434, 169.760 78, 167 78 C 164.261 78, 163 77.564, 163 76.617 C 163 75.041, 160 74.034, 155.250 74.014 C 153.034 74.004, 152 73.523, 152 72.500 C 152 71.452, 150.944 71, 148.500 71 C 145.149 71, 145 70.847, 145 67.406 C 145 64.654, 145.468 63.690, 147 63.290 C 148.503 62.897, 149 61.926, 149 59.383 C 149 57.043, 149.462 56, 150.500 56 C 151.325 56, 152 55.325, 152 54.500 C 152 53.667, 152.889 53, 154 53 C 155.333 53, 156 52.333, 156 51 C 156 49.667, 156.667 49, 158 49 C 159.619 49, 160 48.333, 160 45.500 L 160 42 154.500 42 C 150.134 42, 149 42.329, 149 43.594 M 156 91 C 156 92.100, 155.361 93, 154.579 93 C 153.798 93, 152.860 94.360, 152.495 96.022 C 151.563 100.265, 152.847 107, 154.588 107 C 155.670 107, 156 108.638, 156 114 C 156 119.368, 156.330 121, 157.415 121 C 158.446 121, 159.020 123.032, 159.532 128.500 C 160.036 133.878, 160.626 136, 161.617 136 C 162.692 136, 163 138.007, 163 145 C 163 152.333, 162.722 154, 161.500 154 C 160.675 154, 160 154.675, 160 155.500 C 160 156.753, 157.944 157, 147.500 157 C 137.561 157, 135 157.282, 135 158.375 C 135 159.948, 130.741 161, 124.375 161 C 121.309 161, 120 161.415, 120 162.389 C 120 163.184, 118.505 164.058, 116.500 164.434 C 113.452 165.006, 113 165.467, 113 168 C 113 170.533, 113.452 170.994, 116.500 171.566 C 121.217 172.451, 127 171.288, 127 169.455 C 127 168.311, 128.604 168, 134.500 168 C 140.500 168, 142 167.700, 142 166.500 C 142 165.356, 143.363 164.969, 147.750 164.870 C 150.912 164.799, 156.200 164.680, 159.500 164.607 C 180.801 164.133, 182 164.020, 182 162.500 C 182 161.675, 182.675 161, 183.500 161 C 184.325 161, 185 161.629, 185 162.399 C 185 163.396, 187.005 163.998, 192 164.500 C 196.995 165.002, 199 165.604, 199 166.601 C 199 167.371, 199.900 168, 201 168 C 202.619 168, 203 168.667, 203 171.500 C 203 174.333, 202.619 175, 201 175 C 199.667 175, 199 175.667, 199 177 C 199 178.100, 198.345 179, 197.545 179 C 196.675 179, 195.827 180.405, 195.434 182.500 C 195.058 184.505, 194.184 186, 193.389 186 C 192.625 186, 192 186.623, 192 187.383 C 192 188.144, 191.100 189.002, 190 189.290 C 188.900 189.577, 188 190.530, 188 191.406 C 188 192.283, 187.325 193, 186.500 193 C 185.667 193, 185 193.889, 185 195 C 185 196.333, 184.333 197, 183 197 C 181.889 197, 181 197.667, 181 198.500 C 181 199.325, 180.325 200, 179.500 200 C 178.667 200, 178 200.889, 178 202 C 178 203.333, 177.333 204, 176 204 C 174.667 204, 174 204.667, 174 206 C 174 207.111, 173.333 208, 172.500 208 C 171.675 208, 171 208.675, 171 209.500 C 171 210.333, 170.111 211, 169 211 C 167.667 211, 167 211.667, 167 213 C 167 214.333, 166.333 215, 165 215 C 163.889 215, 163 215.667, 163 216.500 C 163 217.325, 162.283 218, 161.406 218 C 160.530 218, 159.577 218.900, 159.290 220 C 158.926 221.392, 157.926 222, 156 222 C 154.031 222, 153.075 222.605, 152.685 224.098 C 152.210 225.912, 151.485 226.160, 147.318 225.934 C 144.668 225.790, 139.238 225.746, 135.250 225.836 C 129.545 225.965, 128 226.320, 128 227.500 C 128 228.333, 127.111 229, 126 229 C 124.667 229, 124 229.667, 124 231 C 124 232.111, 124.667 233, 125.500 233 C 126.333 233, 127 233.889, 127 235 C 127 236.333, 127.667 237, 129 237 C 130.111 237, 131 237.667, 131 238.500 C 131 239.716, 132.611 240, 139.500 240 C 146.389 240, 148 239.716, 148 238.500 C 148 237.244, 150.111 237, 161 237 C 171.889 237, 174 237.244, 174 238.500 C 174 239.722, 175.667 240, 183 240 C 190.013 240, 192 240.307, 192 241.389 C 192 242.184, 193.495 243.058, 195.500 243.434 C 197.595 243.827, 199 244.675, 199 245.545 C 199 246.576, 200.166 247, 203 247 C 205.889 247, 207 247.417, 207 248.500 C 207 249.325, 207.675 250, 208.500 250 C 209.583 250, 210 251.111, 210 254 L 210 258 214 258 C 216.889 258, 218 257.583, 218 256.500 C 218 255.675, 218.675 255, 219.500 255 C 220.583 255, 221 253.889, 221 251 C 221 248.111, 220.583 247, 219.500 247 C 218.675 247, 218 246.325, 218 245.500 C 218 244.644, 217.101 244, 215.906 244 C 214.654 244, 213.603 243.197, 213.290 242 C 212.897 240.497, 211.926 240, 209.383 240 C 207.169 240, 206 239.522, 206 238.617 C 206 237.101, 203.032 236.035, 198.750 236.014 C 196.978 236.005, 196 235.466, 196 234.500 C 196 233.477, 194.966 232.996, 192.750 232.986 C 188 232.966, 185 231.959, 185 230.383 C 185 229.308, 182.996 229, 176 229 L 167 229 167 225.500 C 167 222.667, 167.381 222, 169 222 C 170.111 222, 171 221.333, 171 220.500 C 171 219.675, 171.675 219, 172.500 219 C 173.325 219, 174 218.150, 174 217.111 C 174 215.752, 174.961 215.042, 177.428 214.580 C 180.175 214.064, 180.982 213.360, 181.493 211.033 C 181.965 208.881, 182.872 207.967, 185 207.500 C 187.137 207.031, 188.034 206.120, 188.514 203.935 C 188.869 202.321, 189.798 201, 190.579 201 C 191.361 201, 192 200.100, 192 199 C 192 197.667, 192.667 197, 194 197 C 195.333 197, 196 196.333, 196 195 C 196 193.889, 196.667 193, 197.500 193 C 198.325 193, 199 192.325, 199 191.500 C 199 190.667, 199.889 190, 201 190 C 202.333 190, 203 189.333, 203 188 C 203 186.900, 203.625 186, 204.389 186 C 205.184 186, 206.058 184.505, 206.434 182.500 C 206.827 180.405, 207.675 179, 208.545 179 C 209.345 179, 210 178.100, 210 177 C 210 175.900, 210.655 175, 211.455 175 C 213.276 175, 214.453 169.227, 213.580 164.572 C 213.065 161.832, 212.359 161.018, 210.052 160.511 C 208.465 160.163, 206.919 159.230, 206.615 158.439 C 206.207 157.376, 204.226 157, 199.031 157 C 193.448 157, 192 156.691, 192 155.500 C 192 154.265, 190.188 153.998, 181.750 153.986 C 176.113 153.979, 170.488 153.701, 169.250 153.370 C 166.747 152.699, 166.146 150, 168.500 150 C 169.738 150, 170 148.167, 170 139.500 C 170 130.833, 169.738 129, 168.500 129 C 167.359 129, 166.997 127.744, 166.986 123.750 C 166.969 116.987, 166.138 114, 164.275 114 C 163.031 114, 162.825 112.221, 163.029 103.250 C 163.371 88.209, 163.567 89, 159.500 89 C 156.667 89, 156 89.381, 156 91" stroke="none" fill="black" fill-rule="evenodd"/>
</svg>