<svg xmlns="http://www.w3.org/2000/svg" width="300" height="300" viewBox="0 0 300 300" version="1.1">
  <defs/>
  <path d="M96,91.94 C96,90.17 96.53,89.923 99.75,90.19 C102.095,90.384 103.406,90.968 103.25,91.75 C103.083,92.584 104.414,93.025 107.25,93.076 C120.923,93.321 133.291,94.72 132.539,95.937 C132.264,96.382 135.173,97.054 139.003,97.432 C143.76,97.9 146.246,98.617 146.848,99.693 C147.401,100.681 149.628,101.45 152.824,101.757 C155.679,102.031 157.826,102.717 157.709,103.318 C157.594,103.908 159.863,104.787 162.75,105.271 C166.212,105.852 168,106.637 168,107.576 C168,108.527 169.123,109 171.383,109 C173.926,109 174.897,109.497 175.29,111 C175.671,112.456 176.654,113 178.906,113 C180.99,113 182,113.49 182,114.5 C182,115.333 182.889,116 184,116 C185.333,116 186,116.667 186,118 C186,119.619 186.667,120 189.5,120 C191.871,120 193,120.462 193,121.433 C193,122.221 193.9,123.151 195,123.5 C196.1,123.849 197,124.779 197,125.567 C197,126.355 197.675,127 198.5,127 C199.325,127 200,127.848 200,128.883 C200,129.926 200.893,131 202,131.29 C203.456,131.671 204,132.654 204,134.906 C204,136.865 204.505,138 205.375,138 C206.131,138 207.031,139.406 207.375,141.125 C208.773,148.114 207.308,163.677 205.289,163.278 C204.672,163.155 203.864,164.843 203.495,167.028 C203.084,169.465 202.279,171 201.412,171 C200.635,171 200,171.675 200,172.5 C200,173.333 199.111,174 198,174 C196.667,174 196,174.667 196,176 C196,177.333 195.333,178 194,178 C192.889,178 192,178.667 192,179.5 C192,180.325 191.283,181 190.406,181 C189.53,181 188.577,181.9 188.29,183 C187.919,184.417 186.926,185 184.883,185 C182.912,185 182,185.504 182,186.594 C182,187.47 181.1,188.423 180,188.71 C178.9,188.998 178,189.856 178,190.617 C178,191.522 176.831,192 174.617,192 C172.074,192 171.103,192.497 170.71,194 C170.31,195.532 169.346,196 166.594,196 C164.252,196 163.087,196.436 163.25,197.25 C163.406,198.032 162.095,198.616 159.75,198.81 C157.313,199.012 156,199.62 156,200.549 C156,201.44 154.504,202.216 152.018,202.613 C149.828,202.963 148.255,203.604 148.522,204.036 C149.077,204.934 143.93,205.858 136.25,206.239 C132.856,206.408 131,206.942 131,207.75 C131,208.704 126.733,209 113,209 L95,209 L95,202 L109,202 L108.93,194.25 C108.886,189.381 108.566,187.243 108.071,188.5 C107.391,190.227 107.18,190.033 106.524,187.076 C105.559,182.725 107.068,131.637 108.062,135 C108.389,136.109 108.597,136.856 108.755,136.845 C109.047,136.826 109.167,134.214 109.558,126.5 C110.31,111.642 110.901,108 112.561,108 C113.548,108 114,106.863 114,104.383 C114,101.121 113.78,100.826 111.75,101.37 C110.513,101.701 108.15,102.01 106.5,102.057 C103.915,102.129 103.777,102.26 105.5,103 C107.408,103.82 107.397,103.863 105.25,103.93 C103.69,103.978 103,104.613 103,106 C103,107.619 102.333,108 99.5,108 C96.667,108 96,107.619 96,106 C96,104.9 95.374,104 94.608,104 C93.843,104 92.934,102.875 92.589,101.5 C91.753,98.169 92.876,94 94.608,94 C95.374,94 96,93.073 96,91.94 Z M121,108.387 C121,110.768 120.536,112 119.639,112 C118.646,112 118.094,114.367 117.6,120.75 C116.587,133.829 115.36,142.122 114.974,138.5 C114.585,134.864 113.292,159.488 113.122,173.75 C113.021,182.249 113.256,184 114.5,184 C115.579,184 116.033,185.192 116.118,188.25 C116.184,190.588 116.184,192.838 116.118,193.25 C116.053,193.662 116.9,194 118,194 C119.667,194 120,194.667 120,198 L120,202 L129,202 C135.924,202 138,201.686 138,200.639 C138,199.744 139.792,199.066 143.244,198.658 C146.128,198.316 148.636,197.592 148.817,197.05 C148.998,196.507 150.688,195.774 152.573,195.42 C154.522,195.055 156,194.178 156,193.389 C156,192.477 157.163,192 159.383,192 C161.926,192 162.897,191.503 163.29,190 C163.671,188.544 164.654,188 166.906,188 C168.879,188 170,187.497 170,186.611 C170,185.816 171.495,184.942 173.5,184.566 C175.595,184.173 177,183.325 177,182.455 C177,181.655 177.848,181 178.883,181 C179.926,181 181,180.107 181.29,179 C181.577,177.9 182.53,177 183.406,177 C184.283,177 185,176.325 185,175.5 C185,174.675 185.623,174 186.383,174 C187.144,174 188.002,173.1 188.29,172 C188.577,170.9 189.53,170 190.406,170 C191.283,170 192,169.325 192,168.5 C192,167.675 192.565,167 193.256,167 C193.947,167 195.148,165.537 195.926,163.75 C196.703,161.963 197.795,160.198 198.35,159.829 C199.712,158.926 200.412,148.197 199.495,142.28 C198.928,138.62 198.582,137.969 198.019,139.5 C197.387,141.216 197.179,141.029 196.547,138.182 C196.143,136.358 195.179,134.622 194.406,134.325 C193.633,134.029 193,133.159 193,132.393 C193,131.627 192.1,131 191,131 C189.667,131 189,130.333 189,129 C189,127.667 188.333,127 187,127 C185.889,127 185,126.333 185,125.5 C185,124.215 182.507,123.446 179.75,123.882 C179.338,123.947 179,123.1 179,122 C179,120.394 178.333,120 175.617,120 C173.116,120 172.102,119.497 171.729,118.072 C171.382,116.745 170.177,116.043 167.862,115.822 C166.013,115.645 164.594,114.992 164.71,114.371 C164.825,113.751 163.186,112.966 161.069,112.627 C158.951,112.288 156.957,111.33 156.637,110.496 C156.317,109.663 155.706,109.077 155.278,109.195 C153.353,109.723 143.464,107.752 142.822,106.712 C142.38,105.997 138.07,105.405 131.553,105.164 L121,104.773 Z"/>
</svg>

