<svg xmlns="http://www.w3.org/2000/svg" width="300" height="300" viewBox="0 0 300 300" version="1.1">
  <defs/>
  <path d="M225,74 C225,73.45 225.9,73 227,73 C228.163,73 229,73.667 229,74.594 C229,75.47 229.933,76.431 231.074,76.729 C232.952,77.221 233.117,77.894 232.824,83.886 L232.5,90.5 L227.25,90.802 L222,91.105 L222,95.062 C222,97.782 221.375,99.555 220,100.732 C218.515,102.004 218,103.682 218,107.254 C218,110.606 217.546,112.237 216.5,112.638 C215.675,112.955 214.994,114.403 214.986,115.857 C214.965,119.934 213.898,123 212.5,123 C210.776,123 210.033,126.27 209.998,134 C209.98,138.116 209.648,139.993 209.093,139.117 C208.174,137.665 207.803,138.878 206.479,147.672 C206.133,149.966 205.209,152.089 204.425,152.39 C203.411,152.779 203,154.664 203,158.919 C203,163.526 202.606,165.121 201.288,165.859 C199.992,166.584 199.478,168.539 199.175,173.908 C198.904,178.701 198.369,181 197.524,181 C196.628,181 196.113,184.322 195.703,192.75 C195.388,199.213 194.801,205.601 194.397,206.946 C193.716,209.22 193.61,209.255 192.902,207.446 C192.416,206.205 192.115,207.719 192.07,211.625 C191.979,219.604 191.059,224 189.482,224 C188.785,224 187.955,224.675 187.638,225.5 C187.322,226.325 186.622,227 186.083,227 C184.682,227 180,222.486 180,221.135 C180,220.511 179.662,220.089 179.25,220.198 C177.024,220.786 174.074,218.613 173.49,215.955 C173.12,214.268 172.191,213 171.327,213 C170.494,213 169.587,212.138 169.312,211.085 C169.036,210.031 167.715,208.894 166.375,208.558 C164.711,208.14 163.757,207.033 163.362,205.062 C163.028,203.39 161.99,201.969 160.893,201.682 C159.852,201.41 159,200.47 159,199.594 C159,198.717 158.325,198 157.5,198 C156.675,198 156,197.347 156,196.55 C156,195.752 155.391,194.74 154.647,194.3 C153.902,193.86 152.834,192.15 152.272,190.5 C151.71,188.85 150.744,187.612 150.125,187.75 C149.11,187.976 148.854,187.379 149.074,185.3 C149.115,184.914 148.215,184.254 147.074,183.832 C145.933,183.41 145,182.375 145,181.532 C145,180.69 144.377,180 143.617,180 C142.856,180 141.998,179.1 141.71,178 C141.33,176.546 140.346,176 138.105,176 C135.283,176 134.97,176.337 134.384,180 C133.998,182.413 133.2,184 132.372,184 C131.365,184 131,185.563 131,189.875 C131,197.658 130.06,202 128.375,202 C127.442,202 127,203.26 127,205.918 C127,210.434 126.148,213.21 124.984,212.49 C124.242,212.031 122.382,219.533 122.812,221.25 C122.916,221.662 122.314,222 121.475,222 C120.637,222 119.523,223.125 119,224.5 C118.368,226.163 117.288,226.995 115.775,226.986 C111.735,226.962 109.197,225.86 108.686,223.908 C108.412,222.858 107.444,222 106.535,222 C105.618,222 105.176,221.525 105.542,220.933 C105.904,220.346 105.298,219.629 104.195,219.341 C102.872,218.995 101.97,217.653 101.549,215.408 C101.187,213.479 100.308,212 99.524,212 C98.762,212 97.995,210.988 97.82,209.75 C97.644,208.513 97.072,207.646 96.55,207.824 C96.027,208.002 95.254,207.215 94.832,206.074 C94.41,204.933 93.375,204 92.532,204 C91.448,204 91,202.977 91,200.5 C91,198.056 90.548,197 89.5,197 C88.675,197 87.997,196.438 87.994,195.75 C87.991,195.063 87.5,192.74 86.903,190.589 C86.1,187.698 85.584,187.046 84.924,188.089 C84.307,189.064 84.026,188.342 84.015,185.75 C84.005,183.231 83.546,182 82.617,182 C81.101,182 80.035,179.032 80.014,174.75 C80.005,172.978 79.466,172 78.5,172 C77.352,172 77,170.735 77,166.617 C77,162.074 76.688,161.152 75,160.71 C73.33,160.274 73,159.346 73,155.094 C73,151.439 72.612,150 71.625,150 C70.6,150 70.135,147.794 69.795,141.306 C69.512,135.93 68.892,132.464 68.169,132.223 C67.43,131.977 67,129.333 67,125.033 C67,119.074 67.247,118.169 69,117.71 C70.1,117.423 71,116.47 71,115.594 C71,114.717 71.338,114.004 71.75,114.008 C72.829,114.019 75.044,119.119 74.413,120.14 C74.121,120.613 74.578,121 75.429,121 C76.45,121 77.185,122.305 77.589,124.833 C77.94,127.024 78.802,128.738 79.601,128.833 C80.371,128.925 81.675,129.075 82.5,129.167 C83.357,129.262 84,130.333 84,131.667 C84,132.95 84.024,134.338 84.053,134.75 C84.082,135.162 83.407,135.645 82.553,135.823 C81.544,136.033 81,135.42 81,134.073 C81,131.006 78.319,131.556 77.7,134.75 C77.05,138.098 77.937,143.157 79.053,142.467 C80.422,141.621 80.873,143.352 81.099,150.309 C81.255,155.133 81.69,157 82.658,157 C83.615,157 84,158.546 84,162.383 C84,166.926 84.312,167.848 86,168.29 C87.532,168.69 88,169.654 88,172.406 C88,174.934 88.445,176 89.5,176 C90.538,176 91,177.043 91,179.383 C91,181.942 91.495,182.896 93.029,183.297 C94.144,183.589 94.991,184.204 94.91,184.664 C94.421,187.447 95.169,190.965 96.205,190.75 C97.386,190.505 97.623,191.093 97.875,194.883 C97.944,195.919 98.9,197.002 100,197.29 C101.456,197.671 102,198.654 102,200.906 C102,202.99 102.49,204 103.5,204 C104.325,204 105,204.659 105,205.465 C105,206.27 105.913,207.418 107.028,208.015 C108.143,208.612 108.773,209.558 108.427,210.117 C108.082,210.677 108.702,211.371 109.807,211.66 C110.911,211.949 112.04,213.043 112.314,214.092 C113.004,216.73 114.867,216.481 115.96,213.605 C116.461,212.288 117.394,211.035 118.034,210.822 C118.673,210.609 119.435,208.321 119.726,205.737 C120.017,203.154 120.58,201.24 120.976,201.485 C121.373,201.73 122.27,199.359 122.969,196.215 C123.669,193.072 124.691,190.215 125.242,189.866 C125.792,189.517 126.585,185.74 127.003,181.472 C127.545,175.938 128.227,173.453 129.381,172.807 C130.533,172.162 131,170.472 131,166.95 L131,162 L136.5,162 C141.333,162 142,162.242 142,164 C142,165.111 142.667,166 143.5,166 C144.325,166 145,166.623 145,167.383 C145,168.144 145.9,169.002 147,169.29 C148.1,169.577 149,170.53 149,171.406 C149,172.283 149.702,173 150.559,173 C151.416,173 151.859,173.419 151.543,173.931 C151.226,174.443 151.425,175.144 151.984,175.49 C152.543,175.835 153,176.991 153,178.059 C153,179.127 153.675,180 154.5,180 C155.333,180 156,180.889 156,182 C156,183.1 156.639,184 157.421,184 C158.202,184 159.129,185.312 159.482,186.916 C159.834,188.521 160.77,190.081 161.561,190.385 C162.352,190.689 163,191.626 163,192.469 C163,193.333 163.871,194 165,194 C166.333,194 167,194.667 167,196 C167,197.111 167.667,198 168.5,198 C169.333,198 170,198.889 170,200 C170,201.111 170.667,202 171.5,202 C172.325,202 173,202.689 173,203.531 C173,204.374 173.725,205.341 174.611,205.681 C175.497,206.021 176.83,207.694 177.572,209.4 C178.314,211.105 178.955,211.825 178.996,211 C179.042,210.084 179.607,210.468 180.448,211.987 C181.205,213.356 181.612,214.818 181.353,215.237 C181.094,215.657 181.584,216 182.441,216 C183.298,216 183.951,215.662 183.892,215.25 C183.832,214.838 184.12,213.449 184.531,212.165 C185.047,210.55 185.513,210.212 186.043,211.069 C186.469,211.759 187.088,209.249 187.439,205.404 C188.851,189.969 189.104,188.521 190.534,187.721 C191.652,187.095 192,184.775 192,177.95 C192,170.828 192.294,169 193.439,169 C194.489,169 195.066,167.105 195.569,162 C196.012,157.496 196.698,155 197.49,155 C198.23,155 198.969,152.906 199.342,149.756 C199.684,146.872 200.425,144.358 200.988,144.171 C201.551,143.983 201.758,143.418 201.447,142.915 C201.136,142.412 201.306,142 201.823,142 C202.341,142 203.088,138.558 203.482,134.352 C203.926,129.616 204.515,127.216 205.031,128.049 C206.032,129.669 206.685,127.108 207.311,119.115 C207.594,115.5 208.27,113.429 209.366,112.815 C210.37,112.253 211,110.611 211,108.557 C211,106.644 211.588,104.988 212.375,104.687 C213.131,104.396 214.058,102.098 214.436,99.58 C214.886,96.58 215.619,95 216.561,95 C217.409,95 218,94.024 218,92.625 C218,88.12 219.254,84 220.625,84 C221.588,84 222,82.652 222,79.5 C222,76.167 222.389,75 223.5,75 C224.325,75 225,74.55 225,74 Z"/>
</svg>

