<svg xmlns="http://www.w3.org/2000/svg" width="300" height="300" viewBox="0 0 300 300" version="1.1">
  <defs/>
  <path d="M121,116 C121,114.178 121.667,114 128.5,114 L136,114 L135.986,118.75 C135.969,124.923 135.103,128 133.383,128 C132.276,128 132,130.598 132,141 C132,151.889 131.756,154 130.5,154 C129.49,154 129,155.01 129,157.094 C129,159.346 128.456,160.329 127,160.71 C125.497,161.103 125,162.074 125,164.617 C125,167.333 124.606,168 123,168 C121.381,168 121,168.667 121,171.5 C121,173.944 120.548,175 119.5,175 C118.667,175 118,175.889 118,177 C118,178.333 117.333,179 116,179 C114.381,179 114,179.667 114,182.5 C114,185.333 113.619,186 112,186 C110.889,186 110,185.333 110,184.5 C110,183.675 109.325,183 108.5,183 C107.417,183 107,181.889 107,179 C107,176.111 107.417,175 108.5,175 C109.325,175 110,174.283 110,173.406 C110,172.53 110.9,171.577 112,171.29 C113.656,170.857 114,169.926 114,165.883 C114,162.226 114.374,161 115.488,161 C116.451,161 117.202,159.588 117.616,157 C118.002,154.587 118.8,153 119.628,153 C120.608,153 121,151.571 121,148 C121,143.667 120.733,143 119,143 C117.9,143 117,142.345 117,141.545 C117,140.675 115.595,139.827 113.5,139.434 C110.095,138.795 110,138.652 110.014,134.139 C110.032,128.072 110.906,125 112.617,125 C113.377,125 114,124.1 114,123 C114,121.889 114.667,121 115.5,121 C116.325,121 117,120.325 117,119.5 C117,118.667 117.889,118 119,118 C120.333,118 121,117.333 121,116 Z M172,119.5 C172,118.284 173.611,118 180.5,118 C187.389,118 189,118.284 189,119.5 C189,120.333 189.889,121 191,121 C192.822,121 193,121.667 193,128.5 C193,134.5 192.7,136 191.5,136 C190.31,136 190,137.444 190,143 C190,149.333 189.81,150 188,150 C186.381,150 186,150.667 186,153.5 C186,155.82 185.532,157 184.611,157 C183.816,157 182.942,158.495 182.566,160.5 C182.203,162.437 181.31,164 180.566,164 C179.822,164 178.929,165.563 178.566,167.5 C178.173,169.595 177.325,171 176.455,171 C175.655,171 175,171.9 175,173 C175,174.1 174.375,175 173.611,175 C172.816,175 171.942,176.495 171.566,178.5 C171.173,180.595 170.325,182 169.455,182 C168.655,182 168,182.9 168,184 C168,185.333 167.333,186 166,186 C164.279,186 164.002,185.338 164.014,181.25 C164.031,175.077 164.897,172 166.617,172 C167.531,172 168,170.813 168,168.5 C168,165.964 168.439,165 169.594,165 C170.47,165 171.423,164.1 171.71,163 C171.998,161.9 172.856,161 173.617,161 C174.564,161 175,159.739 175,157 C175,154.261 175.436,153 176.383,153 C178.106,153 178.969,149.922 178.986,143.707 C179,138.917 178.997,138.914 175.75,139.136 C173.963,139.259 170.588,139.279 168.25,139.18 C164.727,139.031 164,138.658 164,137 C164,135.889 163.333,135 162.5,135 C161.675,135 161,134.325 161,133.5 C161,132.675 161.675,132 162.5,132 C163.548,132 164,130.944 164,128.5 C164,125.667 164.381,125 166,125 C167.333,125 168,124.333 168,123 C168,121.667 168.667,121 170,121 C171.111,121 172,120.333 172,119.5 Z"/>
</svg>

