<svg xmlns="http://www.w3.org/2000/svg" width="300" height="300" viewBox="0 0 300 300" version="1.1">
  <defs/>
  <path d="M159,70.914 C157.21,70.402 158.11,70.171 162.167,70.1 C165.887,70.034 167.976,70.429 168.249,71.25 C168.535,72.108 171.823,72.607 178.74,72.841 C187.655,73.142 188.872,73.401 189.313,75.091 C189.67,76.456 190.703,77 192.938,77 C194.793,77 196.297,77.609 196.638,78.5 C196.955,79.325 197.841,80 198.607,80 C199.373,80 200,80.9 200,82 C200,83.111 200.667,84 201.5,84 C202.325,84 203,84.659 203,85.465 C203,86.27 203.838,87.378 204.863,87.927 C206.042,88.558 206.933,90.461 207.287,93.106 C207.596,95.406 208.379,97.616 209.028,98.017 C209.677,98.418 210.395,101.82 210.623,105.576 C210.852,109.333 211.504,112.694 212.073,113.045 C212.891,113.551 214.881,123.315 214.98,127.309 C214.991,127.754 215.45,127.84 216,127.5 C216.611,127.122 217,128.656 217,131.441 C217,134.555 216.604,135.921 215.75,135.75 C214.883,135.577 214.5,137.033 214.5,140.5 C214.5,143.967 214.883,145.423 215.75,145.25 C216.661,145.068 217,147.033 217,152.5 C217,158.5 216.7,160 215.5,160 C214.321,160 213.988,161.442 213.942,166.75 C213.868,175.444 212.705,181.569 211.188,181.25 C210.361,181.076 210,183.11 210,187.95 C210,192.889 209.592,195.132 208.589,195.7 C207.813,196.14 206.753,198.075 206.233,200 C205.714,201.925 204.826,203.405 204.262,203.289 C203.697,203.173 202.953,204.483 202.61,206.201 C202.012,209.191 194.377,217.731 192.75,217.231 C192.338,217.104 192,217.9 192,219 C192,220.333 191.333,221 190,221 C188.9,221 188,221.635 188,222.412 C188,223.28 186.459,224.085 184,224.5 C181.541,224.915 180,225.72 180,226.588 C180,227.535 178.848,228 176.5,228 C174.104,228 173,228.459 173,229.455 C173,231.657 167.096,232.353 154.097,231.681 C141.215,231.015 137.031,230.23 139.165,228.877 C140.093,228.289 139.707,228.026 137.903,228.015 C136.475,228.007 134.254,227.088 132.969,225.973 C131.683,224.858 129.589,223.684 128.316,223.364 C127.042,223.045 126,222.157 126,221.392 C126,220.626 125.377,220 124.617,220 C123.856,220 122.998,219.1 122.71,218 C122.343,216.597 121.339,215.995 119.344,215.985 C117.324,215.974 116.901,215.715 117.885,215.092 C118.992,214.391 118.841,213.985 117.135,213.072 C115.961,212.444 115,211.27 115,210.465 C115,209.659 114.57,209 114.045,209 C113.52,209 112.803,207.466 112.451,205.592 C112.04,203.399 111.122,202.004 109.877,201.678 C108.813,201.4 108.009,200.796 108.09,200.336 C108.523,197.875 107.881,193.956 107.122,194.425 C105.657,195.33 105,189.43 105,175.375 C105,163.953 104.773,162 103.448,162 C102.203,162 101.955,160.958 102.198,156.75 C102.381,153.569 102.94,151.581 103.616,151.705 C104.339,151.838 104.97,148.489 105.405,142.205 C106.424,127.513 107.198,122.213 107.995,124.484 C108.472,125.845 108.865,124.951 109.323,121.458 C110.326,113.826 110.563,112.89 111.677,112.17 C112.247,111.802 112.958,108.365 113.259,104.533 C113.559,100.7 114.299,97.4 114.902,97.199 C116.575,96.642 116.231,95.352 113.671,92.59 L111.343,90.078 L110.004,93.489 C109.048,95.927 107.952,96.985 106.16,97.2 C104.387,97.412 103.37,98.377 102.68,100.5 C102.145,102.15 101.098,103.86 100.353,104.3 C99.609,104.74 99,105.752 99,106.55 C99,107.347 98.325,108 97.5,108 C96.675,108 95.997,108.787 95.994,109.75 C95.99,110.713 95.302,112.815 94.464,114.422 C93.607,116.065 93.34,117.598 93.854,117.922 C94.357,118.24 94.96,119.4 95.194,120.5 C95.427,121.6 96.102,122.405 96.692,122.289 C97.878,122.056 99.317,127.678 98.437,129.103 C98.132,129.596 95.616,130 92.847,130 C88.654,130 87.725,129.666 87.29,128 C87.002,126.9 86.144,126 85.383,126 C84.363,126 84,124.46 84,120.125 C84,112.405 84.937,108 86.58,108 C87.323,108 88.218,106.355 88.61,104.267 C89.123,101.533 89.479,101.016 89.942,102.334 C90.449,103.781 90.849,103.433 91.973,100.568 C92.743,98.605 93.964,97 94.687,97 C95.409,97 96,96.325 96,95.5 C96,94.675 96.717,94 97.594,94 C98.47,94 99.423,93.1 99.71,92 C100.007,90.866 101.074,90 102.176,90 C103.244,90 103.841,89.552 103.503,89.004 C103.164,88.457 104.15,87.454 105.694,86.775 C107.237,86.097 108.86,84.97 109.3,84.271 C109.74,83.572 110.977,83 112.05,83 C113.235,83 114.006,82.313 114.015,81.25 C114.027,79.91 114.229,79.812 114.876,80.834 C115.557,81.908 115.84,81.859 116.329,80.584 C116.668,79.703 118.087,79 119.528,79 C120.952,79 121.87,78.599 121.568,78.11 C121.04,77.256 122.283,76.935 131.75,75.478 C134.088,75.118 136,74.414 136,73.912 C136,73.41 137.912,72.997 140.25,72.994 C149.451,72.981 161.54,71.64 159,70.914 Z M152,77.925 C153.694,78.416 151.114,78.923 144,79.495 C138.225,79.96 133.162,80.264 132.75,80.17 C132.338,80.077 132,80.675 132,81.5 C132,82.4 131,83.05 129.5,83.125 C125.087,83.346 124.495,83.566 124.779,84.882 C124.932,85.591 124.144,86.411 123.029,86.703 C118.907,87.781 120.842,89.886 126.241,90.198 C130.291,90.431 131.557,90.897 131.814,92.25 C132.079,93.644 131.442,94 128.685,94 C125.52,94 125.166,94.3 124.566,97.5 C124.173,99.595 123.325,101 122.455,101 C121.442,101 120.997,102.14 120.989,104.75 C120.973,110.118 119.874,116.04 118.994,115.496 C118.099,114.943 117.3,118.615 116.395,127.446 C116.029,131.023 115.395,133.744 114.986,133.491 C113.53,132.591 113,139.536 113,159.542 C113,173.613 113.343,179.948 114.118,180.206 C114.737,180.412 115.468,183.804 115.753,187.789 C116.106,192.732 116.673,195 117.555,195 C118.262,195 119.158,196.463 119.546,198.25 C119.934,200.037 120.757,201.821 121.376,202.214 C121.994,202.606 122.539,203.281 122.586,203.714 C122.634,204.146 123.034,205.325 123.476,206.334 C124.053,207.652 124.49,207.826 125.03,206.951 C125.506,206.181 126.035,206.884 126.471,208.867 C126.872,210.695 127.789,212 128.673,212 C129.506,212 130.416,212.874 130.695,213.943 C130.991,215.073 132.416,216.152 134.102,216.522 C135.696,216.872 137,217.798 137,218.579 C137,219.417 137.997,220 139.429,220 C140.764,220 142.644,220.788 143.606,221.75 C145.078,223.223 147.262,223.5 157.427,223.5 C166.552,223.5 169.439,223.195 169.25,222.25 C169.087,221.436 170.252,221 172.594,221 C175.346,221 176.31,220.532 176.71,219 C177.103,217.497 178.074,217 180.617,217 C182.957,217 184,216.538 184,215.5 C184,214.675 184.717,214 185.594,214 C186.47,214 187.423,213.1 187.71,212 C187.998,210.9 188.825,210 189.549,210 C190.273,210 191.151,209.1 191.5,208 C191.849,206.9 192.779,206 193.567,206 C194.355,206 195,205.325 195,204.5 C195,203.675 195.675,203 196.5,203 C197.325,203 198,202.347 198,201.55 C198,200.752 198.787,199.641 199.75,199.08 C201.042,198.328 201.123,198.053 200.059,198.03 C198.94,198.007 199,197.721 200.327,196.75 C201.374,195.984 202.274,193.485 202.652,190.295 C202.992,187.424 203.748,185.181 204.339,185.295 C204.928,185.408 205.726,183.077 206.112,180.116 C206.498,177.156 207.418,174.36 208.157,173.904 C210.075,172.721 210.771,126.819 208.865,127.227 C207.464,127.528 207.373,127.079 207.152,118.75 C207.036,114.373 206.642,113 205.5,113 C204.348,113 204,111.722 204,107.5 C204,102.959 203.695,101.986 202.25,101.921 C201.205,101.874 201.003,101.639 201.75,101.338 C202.438,101.06 203,100.394 203,99.858 C203,99.321 202.594,99.133 202.097,99.44 C201.601,99.747 200.713,98.614 200.123,96.924 C199.534,95.233 198.59,94.135 198.026,94.484 C197.452,94.839 197,94.212 197,93.059 C197,91.667 196.352,91 195,91 C193.9,91 193,90.377 193,89.617 C193,88.856 192.1,87.998 191,87.71 C189.9,87.423 189,86.47 189,85.594 C189,84.717 188.325,84 187.5,84 C186.675,84 186,83.381 186,82.625 C186,81.254 181.88,80 177.375,80 C175.931,80 175,79.412 175,78.5 C175,77.24 172.961,77.016 162.25,77.1 C155.162,77.155 150.61,77.521 152,77.925 Z"/>
</svg>

