<svg xmlns="http://www.w3.org/2000/svg" width="300" height="300" viewBox="0 0 300 300" version="1.1">
  <defs/>
  <path d="M104.85,86.25 C104.975,84.366 105.579,84 108.559,84 C110.677,84 111.868,84.405 111.5,85 C110.944,85.899 112.257,86.433 114.25,86.118 C114.662,86.053 115,87.8 115,90 C115,92.675 114.556,94 113.661,94 C112.591,94 112.166,99.867 111.546,123.25 C110.832,150.154 109.695,168.379 109.034,163.5 C108.297,158.056 107.302,169.094 107.123,184.698 L106.926,201.896 L110.228,202.515 C112.044,202.856 121.528,202.992 131.303,202.817 C145.782,202.559 149.248,202.222 150,201 C150.752,199.779 154.19,199.441 168.462,199.186 L186,198.871 L186,193.436 C186,189.129 186.331,188 187.594,188 C188.47,188 189.423,188.9 189.71,190 C189.998,191.1 190.856,192 191.617,192 C192.377,192 193,192.915 193,194.032 C193,195.175 193.907,196.4 195.074,196.832 C196.215,197.254 197.115,197.914 197.074,198.3 C196.847,200.446 197.151,201 198.559,201 C199.416,201 199.835,201.457 199.49,202.016 C199.144,202.575 198.443,202.774 197.931,202.457 C197.419,202.141 197,203.076 197,204.535 C197,206.341 196.366,207.353 195.011,207.707 C193.917,207.993 193.269,208.626 193.57,209.114 C193.884,209.621 180.73,210.03 162.809,210.07 C145.589,210.109 132.384,210.486 133.464,210.908 C135.286,211.621 135.25,211.72 132.964,212.283 C131.609,212.617 126.225,212.976 121,213.081 C110.885,213.284 108.681,213.674 109.565,215.105 C109.869,215.597 108.261,216 105.992,216 C102.542,216 101.946,215.713 102.356,214.25 C102.626,213.287 103.183,188.2 103.595,158.5 C104.363,103.103 104.587,90.17 104.85,86.25 Z M108.195,158.5 C108.215,160.15 108.439,160.704 108.693,159.731 C108.947,158.758 108.93,157.408 108.656,156.731 C108.382,156.054 108.175,156.85 108.195,158.5 Z M175.813,208.683 C176.534,208.972 177.397,208.936 177.729,208.604 C178.061,208.272 177.471,208.036 176.417,208.079 C175.252,208.127 175.015,208.364 175.813,208.683 Z"/>
</svg>

