<svg xmlns="http://www.w3.org/2000/svg" width="300" height="300" viewBox="0 0 300 300" version="1.1">
  <defs/>
  <path d="M118,100.5 C118,99.675 118.675,99 119.5,99 C120.325,99 121,99.675 121,100.5 C121,101.333 121.889,102 123,102 C124.667,102 125,102.667 125,106 C125,108.712 125.439,110 126.364,110 C127.791,110 129.493,118.394 128.418,120.132 C128.104,120.641 128.159,123.969 128.54,127.528 C129.023,132.038 129.652,134 130.616,134 C131.531,134 132,135.187 132,137.5 C132,140.917 132.095,141 136,141 C138.889,141 140,140.583 140,139.5 C140,138.25 142,138 152,138 C161.515,138 164,137.715 164,136.625 C164,134.678 168.554,134 181.625,134 C191.069,134 193,133.745 193,132.5 C193,131.452 194.056,131 196.5,131 C198.944,131 200,131.452 200,132.5 C200,133.333 200.889,134 202,134 C203.667,134 204,134.667 204,138 C204,140.889 203.583,142 202.5,142 C201.675,142 201,142.675 201,143.5 C201,144.333 200.111,145 199,145 C197.667,145 197,145.667 197,147 C197,148.619 196.333,149 193.5,149 C190.167,149 190,148.833 190,145.5 L190,142 L184.5,142 C180.278,142 179,142.348 179,143.5 C179,144.725 177.302,145.002 169.75,145.009 C156.996,145.021 150,145.953 150,147.639 C150,148.686 147.924,149 141,149 L132,149 L132,156 C132,161.321 132.335,163 133.395,163 C134.496,163 134.942,166.25 135.514,178.461 C136.317,195.593 135.69,203 133.439,203 C132.274,203 132,205.097 132,214 C132,222.611 131.704,225 130.639,225 C129.286,225 128.028,231.574 128.009,238.75 C128.003,240.968 127.524,242 126.5,242 C125.352,242 125,243.265 125,247.383 C125,251.926 124.688,252.848 123,253.29 C121.33,253.726 121,254.654 121,258.906 L121,264 L114,264 L114,257 C114,251.608 114.327,250 115.425,250 C116.5,250 117.022,247.793 117.554,241 C118.038,234.809 118.651,232 119.516,232 C120.371,232 120.902,229.735 121.173,224.941 C121.443,220.166 122.046,217.59 123.036,216.978 C124.259,216.223 124.555,210.908 124.835,184.67 L125.169,153.265 L122.835,152.828 C121.551,152.588 115.888,152.581 110.25,152.812 C102.391,153.134 100,153.555 100,154.616 C100,155.739 96.884,156 83.5,156 C70.032,156 67,156.257 67,157.399 C67,158.396 64.995,158.998 60,159.5 C55.005,160.002 53,160.604 53,161.601 C53,162.524 51.848,163 49.617,163 C47.048,163 46.104,163.493 45.698,165.048 C45.214,166.898 44.504,167.066 38.342,166.798 C30.781,166.468 30.237,165.883 31.453,159.4 C32.076,156.077 32.202,156 37.045,156 C41.333,156 42,155.731 42,154 C42,152.178 42.667,152 49.5,152 C55.22,152 57,151.672 57,150.616 C57,149.557 59.355,149.138 67.06,148.829 C73.936,148.552 77.377,148.008 77.934,147.107 C78.547,146.114 83.947,145.656 99.874,145.247 L121,144.703 L121,135.852 C121,128.65 120.72,127 119.5,127 C118.425,127 118,125.903 118,123.125 C118,117.228 116.904,113 115.375,113 C114.375,113 114,111.5 114,107.5 C114,102.667 114.242,102 116,102 C117.111,102 118,101.333 118,100.5 Z M147,67.372 C147,66.34 148.734,66 154,66 C160.333,66 161,66.19 161,68 C161,69.111 161.667,70 162.5,70 Q164,70 164,73 C164,75.078 163.51,76 162.406,76 C161.53,76 160.577,76.9 160.29,78 C159.684,80.318 157,80.726 157,78.5 C157,77.278 155.333,77 148,77 C140.791,77 139,77.29 139,78.455 C139,79.325 137.595,80.173 135.5,80.566 C133.495,80.942 132,81.816 132,82.611 C132,83.532 130.82,84 128.5,84 C126.104,84 125,84.459 125,85.455 C125,86.325 123.595,87.173 121.5,87.566 C119.495,87.942 118,88.816 118,89.611 C118,90.565 116.746,91 114,91 C110.667,91 110,91.333 110,93 C110,94.619 109.333,95 106.5,95 C104.056,95 103,95.452 103,96.5 C103,97.466 102.022,98.005 100.25,98.014 C95.968,98.035 93,99.101 93,100.617 C93,101.564 91.739,102 89,102 C86.166,102 85,102.424 85,103.455 C85,104.983 79.63,106.461 76.361,105.831 C73.683,105.315 73.307,102 75.927,102 C77.074,102 78,101.35 78,100.545 C78,99.675 79.405,98.827 81.5,98.434 C83.425,98.073 85,97.203 85,96.5 C85,95.797 86.575,94.927 88.5,94.566 C90.595,94.173 92,93.325 92,92.455 C92,91.424 93.166,91 96,91 C98.847,91 100,90.578 100,89.534 C100,88.531 101.576,87.86 105,87.406 C108.246,86.975 110,86.261 110,85.371 C110,84.617 110.9,84 112,84 C113.1,84 114,83.365 114,82.588 C114,81.72 115.541,80.915 118,80.5 C120.459,80.085 122,79.28 122,78.412 C122,77.515 123.076,77 124.95,77 C126.619,77 128.291,76.303 128.799,75.394 C129.34,74.428 131.551,73.58 134.349,73.264 C137.343,72.927 139,72.256 139,71.382 C139,70.571 140.611,69.766 143,69.384 C145.413,68.998 147,68.2 147,67.372 Z M211.63,50.25 C212.079,48.576 212.972,48 215.117,48 C217.013,48 218,48.513 218,49.5 C218,50.333 218.889,51 220,51 C221.333,51 222,51.667 222,53 C222,54.163 222.667,55 223.594,55 C224.47,55 225.423,55.9 225.71,57 C225.998,58.1 226.856,59 227.617,59 C228.531,59 229,60.187 229,62.5 C229,65.333 229.381,66 231,66 C232.619,66 233,66.667 233,69.5 C233,72.333 233.381,73 235,73 C236.333,73 237,73.667 237,75 C237,76.111 237.667,77 238.5,77 C239.325,77 240,77.675 240,78.5 C240,79.333 240.889,80 242,80 C243.667,80 244,80.667 244,84 C244,87.849 243.877,87.999 240.75,87.986 C236,87.966 233,86.959 233,85.383 C233,84.623 232.345,84 231.545,84 C230.682,84 229.831,82.614 229.451,80.592 C229.044,78.421 228.12,77.003 226.906,76.686 C225.858,76.412 225,75.47 225,74.594 C225,73.717 224.325,73 223.5,73 C222.667,73 222,72.111 222,71 C222,69.9 221.361,69 220.579,69 C219.798,69 218.862,67.65 218.5,66 C218.138,64.35 217.202,63 216.421,63 C215.639,63 215,62.1 215,61 C215,59.667 214.333,59 213,59 C211.407,59 211.003,58.338 211.014,55.75 C211.021,53.962 211.299,51.487 211.63,50.25 Z M245.853,37.67 C249.617,36.67 251,37.027 251,39 C251,40.1 251.619,41 252.375,41 C253.746,41 255,45.12 255,49.625 C255,51.069 255.588,52 256.5,52 C257.69,52 258,53.444 258,59 C258,64.293 258.337,66 259.383,66 C260.899,66 261.965,68.968 261.986,73.25 C261.995,75.022 262.534,76 263.5,76 C264.356,76 265,76.899 265,78.094 C265,79.346 265.803,80.397 267,80.71 C268.417,81.081 269,82.074 269,84.117 C269,85.749 268.458,87.006 267.75,87.014 C267.063,87.021 265.488,87.299 264.25,87.63 C262.435,88.117 262,87.824 262,86.117 C262,84.667 261.37,84 260,84 C258.381,84 258,83.333 258,80.5 C258,78.068 257.546,77 256.512,77 C255.549,77 254.798,75.588 254.384,73 C253.998,70.587 253.2,69 252.372,69 C251.471,69 251,67.8 251,65.5 C251,63.187 250.531,62 249.617,62 C248.101,62 247.035,59.032 247.014,54.75 C247.005,53.104 246.454,52 245.639,52 C244.757,52 244.076,50.286 243.701,47.122 C242.998,41.188 243.667,38.25 245.853,37.67 Z"/>
</svg>

