<svg xmlns="http://www.w3.org/2000/svg" width="300" height="300" viewBox="0 0 300 300" version="1.1">
  <defs/>
  <path d="M145.376,105.462 C145.807,104.341 147.867,104.003 154.219,104.014 C163.803,104.029 167,104.681 167,106.617 C167,107.377 167.85,108 168.889,108 C170.255,108 170.959,108.967 171.434,111.5 C171.795,113.425 172.52,115 173.045,115 C173.57,115 174,117.475 174,120.5 C174,124.472 173.622,126 172.639,126 C171.042,126 170.022,132.881 170.009,143.75 C170.002,149.265 169.668,151 168.611,151 C167.816,151 166.942,152.495 166.566,154.5 C166.173,156.595 165.325,158 164.455,158 C163.655,158 163,158.9 163,160 C163,161.111 162.333,162 161.5,162 C160.675,162 160,162.717 160,163.594 C160,164.47 159.142,165.412 158.094,165.686 C156.876,166.004 155.955,167.424 155.543,169.62 C155.177,171.575 154.461,172.785 153.882,172.427 C153.323,172.082 152.618,172.744 152.316,173.899 C152.014,175.055 151.197,176 150.5,176 C149.803,176 148.998,176.9 148.71,178 C148.423,179.1 147.506,180 146.673,180 C145.804,180 144.878,181.278 144.5,183 C144.138,184.65 143.224,186 142.47,186 C141.716,186 140.641,186.787 140.08,187.75 C139.268,189.144 139.042,189.195 138.967,188 C138.912,187.115 138.502,187.423 137.969,188.75 C137.471,189.988 136.375,191 135.532,191 C134.69,191 134.049,191.338 134.108,191.75 C134.168,192.162 133.89,193.512 133.492,194.75 C132.408,198.112 127.443,197.9 126.578,194.454 C125.852,191.563 126.507,190 128.442,190 C129.171,190 130.002,189.1 130.29,188 C130.577,186.9 131.556,186 132.465,186 C133.374,186 133.859,185.581 133.542,185.068 C133.226,184.556 133.906,183.479 135.053,182.675 C136.571,181.612 136.78,181.069 135.82,180.686 C134.948,180.337 135.093,180.131 136.25,180.079 C137.324,180.03 138,179.205 138,177.941 C138,176.736 138.443,176.156 139.067,176.542 C139.655,176.905 140.381,176.257 140.684,175.101 C140.986,173.945 141.898,173 142.71,173 C143.523,173 144.423,172.1 144.71,171 C144.998,169.9 145.835,169 146.571,169 C147.325,169 148.215,167.369 148.61,165.267 C149.182,162.218 149.443,161.897 150.036,163.517 C150.629,165.139 150.894,164.818 151.492,161.75 C152.028,158.998 152.725,158 154.111,158 C155.603,158 156,157.265 156,154.5 C156,152.056 156.452,151 157.5,151 C158.688,151 159,149.569 159,144.12 L159,137.24 L152.866,136.797 C149.035,136.52 146.312,135.794 145.616,134.864 C145.002,134.046 143.684,133.07 142.687,132.695 C141.689,132.321 141.122,131.612 141.425,131.121 C141.904,130.346 139.394,129.052 136.601,128.635 C135.268,128.435 134.15,124.988 134.07,120.832 C133.984,116.326 134.808,114 136.49,114 C137.192,114 138.014,113.055 138.316,111.899 C138.619,110.743 139.345,110.095 139.933,110.458 C140.52,110.821 141,110.447 141,109.626 C141,108.806 141.858,107.862 142.908,107.529 C143.957,107.196 145.068,106.266 145.376,105.462 Z"/>
</svg>

