<svg xmlns="http://www.w3.org/2000/svg" width="300" height="300" viewBox="0 0 300 300" version="1.1">
  <defs/>
  <path d="M107.607,89.582 C107.941,88.712 108.867,88 109.666,88 C110.465,88 110.84,88.45 110.5,89 C110.16,89.55 110.809,90 111.941,90 C113.972,90 114,90.39 114,119 C114,141.667 114.273,147.945 115.25,147.75 C116.172,147.566 116.575,150.25 116.788,157.988 C116.946,163.756 117.494,168.894 118.006,169.406 C119.044,170.444 123.24,166.645 124.323,163.687 C124.687,162.689 125.442,162.155 126,162.5 C126.558,162.845 127.316,162.311 127.685,161.313 C128.614,158.803 132.24,155.038 133.75,155.017 C134.438,155.008 135,154.425 135,153.722 C135,153.019 135.9,151.674 137,150.732 C138.1,149.79 139,148.168 139,147.126 C139,146.074 139.888,145.001 141,144.71 C142.1,144.423 143,143.47 143,142.594 C143,141.717 143.639,141 144.421,141 C145.202,141 146.129,139.688 146.482,138.084 C146.834,136.479 147.77,134.919 148.561,134.615 C149.352,134.311 150,133.374 150,132.531 C150,131.689 150.717,131 151.594,131 C152.47,131 153.423,130.1 153.71,129 C153.998,127.9 154.806,127 155.505,127 C156.205,127 157.073,125.425 157.434,123.5 C157.827,121.405 158.675,120 159.545,120 C160.345,120 161,119.1 161,118 C161,116.9 161.565,116 162.256,116 C162.947,116 164.129,114.605 164.884,112.899 C165.907,110.588 166.475,110.142 167.113,111.149 C167.694,112.066 167.974,111.494 167.985,109.367 C167.996,107.082 168.542,106.092 170,105.71 C171.1,105.423 172,104.47 172,103.594 C172,102.717 172.675,102 173.5,102 C174.325,102 175,101.334 175,100.519 C175,99.705 176.125,98.756 177.5,98.411 C178.875,98.066 180,97.237 180,96.57 C180,95.812 181.874,95.272 185,95.129 L190,94.901 L190,98.451 C190,101.895 188.808,102.735 184.78,102.128 C184.384,102.069 183.58,102.915 182.995,104.01 C182.409,105.104 181.27,106 180.465,106 C179.659,106 179,106.623 179,107.383 C179,108.144 178.1,109.002 177,109.29 C175.803,109.603 175,110.654 175,111.906 C175,113.058 174.458,113.888 173.795,113.75 C172.604,113.503 172.369,114.102 172.125,118 C172.044,119.292 171.292,120 170,120 C168.667,120 168,120.667 168,122 C168,123.1 167.361,124 166.579,124 C165.798,124 164.862,125.35 164.5,127 C164.138,128.65 163.202,130 162.421,130 C161.639,130 161,130.942 161,132.094 C161,133.346 160.197,134.397 159,134.71 C157.9,134.998 157,135.856 157,136.617 C157,137.377 156.418,138 155.707,138 C154.996,138 153.983,139.463 153.457,141.25 C152.931,143.037 152.05,144.361 151.5,144.191 C150.95,144.021 150.255,144.921 149.955,146.191 C149.655,147.461 148.868,148.556 148.205,148.625 C147.542,148.694 146.521,148.806 145.937,148.875 C145.352,148.944 145.014,150.463 145.187,152.25 C145.427,154.741 146.025,155.575 147.75,155.82 C149.196,156.025 150,156.829 150,158.07 C150,159.131 150.675,160 151.5,160 C152.325,160 153,160.675 153,161.5 C153,162.325 153.623,163 154.383,163 C155.144,163 156.002,163.9 156.29,165 C156.577,166.1 157.477,167 158.29,167 C159.102,167 160.014,167.945 160.316,169.101 C160.619,170.257 161.345,170.905 161.933,170.542 C162.557,170.156 163,170.736 163,171.941 C163,173.333 163.648,174 165,174 C166.126,174 167,174.667 167,175.525 C167,176.363 168.152,177.488 169.56,178.023 C170.968,178.558 171.842,179.447 171.501,179.998 C171.161,180.549 171.813,181 172.951,181 C174.089,181 175.79,181.9 176.732,183 C177.674,184.1 179.019,185 179.722,185 C180.425,185 181,185.675 181,186.5 C181,187.333 181.889,188 183,188 C184.333,188 185,188.667 185,190 C185,191.333 185.667,192 187,192 C188.1,192 189,192.659 189,193.465 C189,194.27 189.913,195.418 191.028,196.015 C192.143,196.612 192.792,197.528 192.469,198.05 C192.146,198.573 192.809,199 193.941,199 C195.311,199 196,199.648 196,200.937 C196,202.391 196.81,202.951 199.25,203.187 C202.366,203.487 202.513,203.695 202.805,208.25 L203.11,213 L199.662,213 C197.52,213 195.996,212.432 195.638,211.5 C195.322,210.675 194.374,210 193.531,210 C192.689,210 192,209.377 192,208.617 C192,207.856 191.1,206.998 190,206.71 C188.9,206.423 188,205.47 188,204.594 C188,203.717 187.325,203 186.5,203 C185.675,203 185,202.283 185,201.406 C185,200.53 184.1,199.577 183,199.29 C181.9,199.002 181,198.144 181,197.383 C181,196.623 180.325,196 179.5,196 C178.667,196 178,195.111 178,194 C178,192.667 177.333,192 176,192 C174.9,192 174,191.377 174,190.617 C174,189.856 173.1,188.998 172,188.71 C170.9,188.423 169.968,187.358 169.93,186.344 C169.866,184.659 169.785,184.673 169,186.5 C168.265,188.21 168.13,188.246 168.07,186.75 C168.023,185.569 167.188,185 165.5,185 C163.667,185 163,184.467 163,183 C163,181.9 162.662,181.089 162.25,181.198 C161.838,181.307 160.428,181.033 159.118,180.589 C157.432,180.017 157.105,179.553 158.001,178.999 C158.84,178.481 158.211,177.986 156.133,177.529 C154.41,177.151 153,176.254 153,175.537 C153,174.82 152.055,173.986 150.899,173.684 C149.74,173.381 149.095,172.655 149.46,172.065 C149.828,171.469 148.962,170.556 147.5,170 C146.059,169.452 145.158,168.553 145.499,168.002 C145.839,167.451 145.374,167 144.465,167 C143.556,167 142.589,166.145 142.316,165.099 C141.466,161.85 137.034,161.812 133.819,165.027 C132.269,166.578 131,168.331 131,168.923 C131,169.515 130.377,170 129.617,170 C128.856,170 127.998,170.9 127.71,172 C127.423,173.1 126.47,174 125.594,174 C124.717,174 124,174.675 124,175.5 C124,176.325 123.31,177 122.468,177 C121.625,177 120.529,178.012 120.031,179.25 C119.534,180.488 119.091,181.05 119.048,180.5 C119.005,179.95 118.533,180.175 118,181 C116.531,183.273 116.811,186.99 118.5,187.638 C119.636,188.074 120,189.915 120,195.216 L120,202.219 L123.5,201.81 C126.939,201.409 127,201.466 127,205.076 C127,208.391 126.695,208.811 123.875,209.375 C117.816,210.587 112.98,210.117 112.294,208.25 C111.94,207.287 111.054,206.14 110.325,205.7 C109.429,205.16 109,202.656 109,197.969 L109,191.038 L104.75,191.562 C99.013,192.269 97.132,190.991 98.94,187.613 C99.681,186.228 101.572,184.648 103.143,184.1 C104.715,183.552 106,182.406 106,181.552 C106,180.698 106.675,180 107.5,180 C108.788,180 108.976,177.214 108.832,160.25 C108.723,147.516 108.428,142.631 108,146.5 C107.576,150.334 107.276,145.229 107.168,132.357 C107.035,116.437 106.716,112.105 105.643,111.693 C102.771,110.591 102.754,97 105.625,97 C106.478,97 107,95.891 107,94.082 C107,92.477 107.273,90.452 107.607,89.582 Z"/>
</svg>

