<svg xmlns="http://www.w3.org/2000/svg" width="300" height="300" viewBox="0 0 300 300" version="1.1">
  <defs/>
  <path d="M147.25,117.706 C148.488,117.467 152.58,117.211 156.344,117.136 C162.408,117.016 163.247,117.228 163.71,119 C163.998,120.1 164.856,121 165.617,121 C166.627,121 167,122.484 167,126.5 C167,130.532 166.629,132 165.608,132 C162.606,132 162.59,141.245 165.59,142.396 C166.435,142.72 167,144.353 167,146.469 C167,148.941 167.45,150 168.5,150 C170.34,150 170.357,150.196 170.056,167.75 C170.018,169.947 169.514,171 168.5,171 C167.667,171 167,171.889 167,173 C167,174.333 166.333,175 165,175 C163.388,175 163,175.667 163,178.439 C163,181.739 162.822,181.904 158.571,182.542 C153.122,183.359 152,182.728 152,178.847 C152,176.654 152.554,175.668 154,175.29 C155.1,175.002 156,174.144 156,173.383 C156,172.623 156.9,172 158,172 C159.333,172 160,171.333 160,170 C160,168.889 160.667,168 161.5,168 C162.652,168 163,166.722 163,162.5 C163,158.474 162.628,157 161.611,157 C160.816,157 159.942,155.505 159.566,153.5 C159.173,151.405 158.325,150 157.455,150 C156.655,150 156,149.1 156,148 C156,146.667 155.333,146 154,146 C152.889,146 152,145.333 152,144.5 C152,143.363 150.767,143 146.906,143 C142.654,143 141.726,142.67 141.29,141 C140.897,139.497 139.926,139 137.383,139 L134,139 L134,133.5 C134,129.278 133.652,128 132.5,128 C131.367,128 131,126.778 131,123 L131,118 L134.5,118 C136.944,118 138,118.452 138,119.5 C138,120.548 139.056,121 141.5,121 C143.869,121 145,120.538 145,119.57 C145,118.783 146.012,117.944 147.25,117.706 Z"/>
</svg>

