<svg xmlns="http://www.w3.org/2000/svg" width="300" height="300" viewBox="0 0 300 300" version="1.1">
  <defs/>
  <path d="M94,86.928 C94,84.887 94.331,84.86 116.25,85.099 C142.894,85.391 153.904,86.226 155.025,88.041 C155.514,88.832 158.687,89.589 162.943,89.93 C166.932,90.25 169.925,90.938 169.772,91.5 C169.623,92.05 171.863,92.92 174.75,93.432 C177.955,94.002 180,94.878 180,95.682 C180,96.6 181.546,97 185.094,97 C189.346,97 190.274,97.33 190.71,99 C190.998,100.1 191.856,101 192.617,101 C193.531,101 194,102.187 194,104.5 C194,107.927 193.405,108.36 189.3,107.926 C188.914,107.885 188.254,108.785 187.832,109.926 C186.735,112.889 180,112.953 180,110 C180,108.667 180.667,108 182,108 C184.074,108 184.375,107.001 183.4,103.364 C182.913,101.551 181.916,101.162 176.803,100.792 C172.529,100.483 170.506,99.869 169.84,98.678 C169.113,97.38 167.452,97 162.5,97 C157.82,97 155.871,96.592 155.251,95.484 C154.642,94.396 152.44,93.902 147.451,93.734 L140.5,93.5 L140.824,96.824 C141.084,99.491 140.74,100.255 139.085,100.688 C137.951,100.985 137.27,101.627 137.571,102.116 C137.873,102.604 136.968,103.442 135.56,103.977 C133.482,104.767 133,105.614 133,108.475 C133,111.139 132.572,112.017 131.25,112.07 C129.754,112.13 129.79,112.265 131.5,113 C133.21,113.735 133.246,113.87 131.75,113.93 C130.594,113.976 130,114.807 130,116.375 C130,120.733 128.764,125 127.502,125 C126.729,125 126.064,126.981 125.754,130.208 C125.479,133.072 124.761,135.58 124.158,135.781 C123.556,135.981 122.767,137.724 122.405,139.653 C122.044,141.582 121.161,143.385 120.445,143.66 C119.673,143.956 118.862,146.775 118.455,150.58 C118.012,154.708 117.318,157 116.509,157 C115.237,157 114.059,161.054 113.93,165.875 C113.867,168.2 113.769,168.271 113.071,166.5 C112.372,164.727 112.215,164.84 111.685,167.5 C111.356,169.15 110.789,173.988 110.426,178.25 C109.947,183.861 109.383,186 108.383,186 C107.33,186 107,187.773 107,193.429 C107,198.684 106.563,201.294 105.507,202.351 C104.182,203.675 104.352,203.918 107.007,204.501 C108.653,204.863 110,205.573 110,206.079 C110,206.586 113.402,207 117.559,207 C122.344,207 124.891,206.633 124.5,206 C124.091,205.339 139.803,205 170.882,205 C197.55,205 218.122,205.388 218.437,205.897 C218.742,206.391 218.708,208.208 218.363,209.937 L217.734,213.079 L182.2,212.79 C154.459,212.564 146.575,212.775 146.25,213.75 C145.933,214.702 140.352,215 122.885,215 C103.41,215 99.85,214.773 99.362,213.5 C99.045,212.675 98.159,212 97.393,212 C95.18,212 95.407,194.431 97.637,193.184 C98.833,192.514 99.489,190.011 100.074,183.884 C100.514,179.273 100.902,175.361 100.937,175.191 C100.972,175.021 101.388,175.122 101.863,175.415 C102.337,175.708 103.002,173.598 103.339,170.724 C104.257,162.911 104.524,161.912 105.925,161.046 C106.668,160.587 107.442,157.358 107.761,153.394 C108.114,148.99 108.563,147.245 109.014,148.518 C109.606,150.186 109.835,149.967 110.465,147.129 C110.922,145.065 111.947,143.565 113.106,143.262 C114.669,142.853 115,141.825 115,137.383 C115,132.667 115.248,132 117,132 C118.1,132 118.947,131.662 118.882,131.25 C118.816,130.838 118.816,127.688 118.882,124.25 C118.973,119.414 119.339,118 120.5,118 C121.579,118 122.033,116.808 122.118,113.75 C122.184,111.412 122.171,109.124 122.09,108.664 C122.009,108.204 122.856,107.589 123.971,107.297 C125.487,106.901 126,105.941 126,103.5 C126,101.036 126.509,100.1 128.074,99.691 C129.666,99.275 130.072,98.493 129.824,96.324 L129.5,93.5 L117,93.202 C103.293,92.875 96.026,93.642 99.5,95.049 C100.88,95.608 99.718,95.881 95.75,95.93 C90.638,95.992 90,96.228 90,98.056 C90,99.783 89.481,100.053 86.75,99.746 C83.903,99.425 83.46,98.975 83.181,96.115 C82.926,93.506 83.278,92.74 84.931,92.308 C86.069,92.01 87,91.144 87,90.383 C87,89.469 88.187,89 90.5,89 C93.374,89 94,88.629 94,86.928 Z M162.009,158.741 C167.977,158.021 180.132,157.983 188.799,158.658 C195.169,159.154 196.977,159.617 196.58,160.652 C196.201,161.641 197.104,162 199.972,162 C202.123,162 204.097,162.349 204.361,162.775 C205.263,164.234 203.501,169.5 202,169.834 C198.981,170.505 190.045,168.865 190.273,167.681 C190.633,165.811 158.874,165.474 157.831,167.337 C157.275,168.331 154.59,168.781 148.401,168.918 C142.397,169.05 139.306,169.551 138.303,170.554 C137.484,171.373 134.967,172 132.5,172 C127.028,172 125,173.912 125,179.071 C125,182.879 124.895,183 121.57,183 C118.78,183 118.075,182.579 117.796,180.75 C117.607,179.512 116.934,178.601 116.3,178.725 C115.667,178.849 114.856,177.623 114.5,176 C113.809,172.854 114.567,170.614 116.019,171.512 C116.503,171.811 117.386,171.148 117.98,170.038 C118.574,168.928 119.384,168.069 119.78,168.128 C120.176,168.188 121.4,168.177 122.5,168.103 C124.047,168 124.187,167.771 123.117,167.093 C121.657,166.169 122.754,165.838 132,164.414 C135.482,163.878 136.047,163.556 134.5,162.991 C133.394,162.586 137.99,162.09 144.786,161.88 C152.702,161.635 157.33,161.084 157.795,160.331 C158.192,159.689 160.089,158.973 162.009,158.741 Z"/>
</svg>

