<svg xmlns="http://www.w3.org/2000/svg" width="300" height="300" viewBox="0 0 300 300" version="1.1">
  <defs/>
  <path d="M168,61.389 C168,60.268 170.794,60 182.5,60 L197,60 L197,63.5 C197,66.333 196.619,67 195,67 C193.324,67 193,67.667 193,71.117 C193,74.898 192.817,75.184 190.75,74.63 C189.512,74.299 187.938,74.021 187.25,74.014 C186.563,74.006 186,73.1 186,72 C186,70.9 185.373,70 184.607,70 C183.841,70 182.955,69.325 182.638,68.5 C181.586,65.758 168,66.795 168,69.617 C168,70.377 167.391,71 166.647,71 C165.262,71 164,80.607 164,91.151 C164,94.795 163.627,96 162.5,96 C161.452,96 161,97.056 161,99.5 C161,101.926 161.455,103 162.483,103 C163.747,103 164.005,106.722 164.233,128.25 L164.5,153.5 L169.75,153.802 C173.527,154.02 175,154.511 175,155.552 C175,156.68 176.569,157 182.094,157 C188.346,157 189.249,157.237 189.71,159 C189.998,160.1 190.856,161 191.617,161 C192.627,161 193,162.484 193,166.5 C193,171.333 192.758,172 191,172 C189.889,172 189,172.667 189,173.5 C189,174.325 188.325,175 187.5,175 C186.675,175 186,174.325 186,173.5 C186,172.675 185.365,172 184.588,172 C183.714,172 182.912,170.437 182.483,167.899 L181.79,163.798 L173.975,164.153 C169.676,164.348 165.786,164.88 165.33,165.335 C164.873,165.789 164.358,174 164.186,183.581 C163.935,197.434 163.593,201 162.513,201 C161.451,201 161.084,203.981 160.827,214.668 C160.592,224.483 160.147,228.454 159.248,228.752 C158.56,228.981 157.715,230.93 157.371,233.084 C156.995,235.432 156.195,237 155.372,237 C154.617,237 154,237.675 154,238.5 C154,239.583 152.889,240 150,240 C147.111,240 146,240.417 146,241.5 C146,242.325 145.325,243 144.5,243 C143.675,243 143,242.325 143,241.5 C143,240.247 140.944,240 130.5,240 C120.056,240 118,239.753 118,238.5 C118,237.667 117.111,237 116,237 C114.889,237 114,237.667 114,238.5 C114,239.652 112.722,240 108.5,240 L103,240 L103,236.627 C103,233.301 103.071,233.248 108.107,232.764 C110.915,232.494 113.503,231.818 113.857,231.262 C115.015,229.442 120.745,228.73 121.666,230.291 C122.273,231.319 125.675,231.869 134.144,232.31 C145.132,232.881 145.818,232.805 146.301,230.958 C146.582,229.881 147.53,229 148.406,229 C149.671,229 150,227.866 150,223.5 C150,219.46 150.371,218 151.396,218 C153.08,218 154.33,196.866 153.821,177 L153.5,164.5 L147,164.185 C138.215,163.759 132,164.744 132,166.561 C132,167.722 129.968,168 121.5,168 L111,168 L111,164.5 C111,162.056 111.452,161 112.5,161 C113.333,161 114,160.111 114,159 C114,157.889 114.667,157 115.5,157 C116.325,157 117,156.335 117,155.523 C117,154.283 119.941,154.001 135.25,153.773 L153.5,153.5 L153.653,123.5 C153.88,79.222 153.861,75.322 154.898,75.017 C155.036,74.977 155.193,75 155.372,75 C156.2,75 156.998,73.413 157.384,71 C157.798,68.412 158.549,67 159.512,67 C160.33,67 161,66.345 161,65.545 C161,64.675 162.405,63.827 164.5,63.434 C166.505,63.058 168,62.184 168,61.389 Z"/>
</svg>

