<svg xmlns="http://www.w3.org/2000/svg" width="300" height="300" viewBox="0 0 300 300" version="1.1">
  <defs/>
  <path d="M236.308,106.931 C236.742,105.271 237.506,104.925 240.174,105.181 L243.5,105.5 L243.775,121.75 C244.004,135.282 244.296,138 245.525,138 C246.689,138 247.002,139.53 247.009,145.25 C247.022,156.119 248.042,163 249.639,163 C250.598,163 250.996,164.404 250.986,167.75 C250.969,173.923 250.103,177 248.383,177 C247.623,177 247,177.9 247,179 C247,180.111 246.333,181 245.5,181 C244.675,181 244,180.325 244,179.5 C244,178.667 243.111,178 242,178 C240.107,178 240,177.333 240,165.5 C240,155.561 239.718,153 238.625,153 C236.908,153 236,148.634 236,140.375 C236,135.375 235.676,134 234.5,134 C233.369,134 233,132.784 233,129.059 C233,126.341 232.571,123.853 232.046,123.528 C230.484,122.563 226,124.105 226,125.608 C226,126.374 225.1,127 224,127 C222.667,127 222,127.667 222,129 C222,130.619 221.333,131 218.5,131 C216.18,131 215,131.468 215,132.389 C215,133.184 213.505,134.058 211.5,134.434 C209.405,134.827 208,135.675 208,136.545 C208,137.642 206.646,138 202.5,138 C198.278,138 197,138.348 197,139.5 C197,140.652 195.722,141 191.5,141 C187.278,141 186,140.652 186,139.5 C186,138.417 184.889,138 182,138 C179.111,138 178,138.417 178,139.5 C178,142.437 176.079,140.94 175.434,137.5 C175.073,135.575 174.188,134 173.468,134 C172.748,134 171.872,132.696 171.522,131.102 C170.941,128.454 168.871,127.058 165.458,127.014 C164.519,127.001 164.47,130.866 164.981,164.75 C164.992,165.438 165.675,166 166.5,166 Q168,166 168,163 C168,160.667 168.444,160 170,160 C171.619,160 172,159.333 172,156.5 C172,154.056 172.452,153 173.5,153 C174.548,153 175,154.056 175,156.5 C175,158.813 174.531,160 173.617,160 C172.101,160 171.035,162.968 171.014,167.25 C171.005,169.022 170.466,170 169.5,170 C168.417,170 168,171.111 168,174 C168,177.905 167.917,178 164.5,178 C162.056,178 161,178.452 161,179.5 C161,180.325 160.377,181 159.617,181 C158.041,181 157.034,178 157.014,173.25 C157.004,171.034 156.523,170 155.5,170 Q154,170 154,167 Q154,164 155.5,164 C156.767,164 157,161.667 157,149 C157,136.333 156.767,134 155.5,134 C154.31,134 154,132.556 154,127 C154,121.444 154.31,120 155.5,120 C156.333,120 157,119.111 157,118 C157,116.371 157.667,116 160.594,116 C163.346,116 164.31,116.468 164.71,118 C164.998,119.1 165.856,120 166.617,120 C167.377,120 168,119.1 168,118 C168,116.381 168.667,116 171.5,116 C174.333,116 175,116.381 175,118 C175,119.333 175.667,120 177,120 C178.619,120 179,120.667 179,123.5 C179,126.333 179.381,127 181,127 C182.1,127 183,127.623 183,128.383 C183,130.318 186.196,130.971 195.75,130.986 C203.338,130.999 204,130.839 204,129 C204,127.381 204.667,127 207.5,127 C209.82,127 211,126.532 211,125.611 C211,124.816 212.495,123.942 214.5,123.566 C216.595,123.173 218,122.325 218,121.455 C218,120.655 218.9,120 220,120 C221.111,120 222,119.333 222,118.5 C222,117.675 222.717,117 223.594,117 C224.47,117 225.423,116.1 225.71,115 C226.086,113.565 227.074,113 229.21,113 C231.346,113 232.335,112.435 232.71,111 C232.998,109.9 233.803,109 234.5,109 C235.197,109 236.01,108.069 236.308,106.931 Z M82,114.5 C82,113.207 85.444,113 107,113 L132,113 L132,118.5 C132,123.333 131.758,124 130,124 C128.889,124 128,124.667 128,125.5 C128,126.333 127.111,127 126,127 C124.889,127 124,126.333 124,125.5 C124,124.31 122.556,124 117,124 C111.444,124 110,124.31 110,125.5 C110,126.548 108.944,127 106.5,127 L103,127 L103,147.375 C103,169.244 103.469,174 105.625,174 C106.661,174 107,175.727 107,181 L107,188 L110.5,188 C113.917,188 114,188.095 114,192 L114,196 L108.5,196 C103.667,196 103,195.758 103,194 C103,192.9 102.381,192 101.625,192 C100.254,192 99,187.88 99,183.375 C99,181.931 98.412,181 97.5,181 C96.222,181 96,178.333 96,163 C96,148.486 95.737,145 94.639,145 C93.15,145 92.024,138.255 92.009,129.25 L92,124 L83.5,124 C76.611,124 75,124.284 75,125.5 C75,126.652 73.722,127 69.5,127 C64.627,127 64,127.233 64,129.044 C64,130.941 63.481,131.067 56.75,130.794 L49.5,130.5 L49.198,125.25 L48.895,120 L54.448,120 C59.333,120 60,119.76 60,118 C60,116.121 60.667,116 71,116 C80.111,116 82,115.742 82,114.5 Z"/>
</svg>

