<svg xmlns="http://www.w3.org/2000/svg" width="300" height="300" viewBox="0 0 300 300" version="1.1">
  <defs/>
  <path d="M99.108,90.75 C99.049,90.338 100.912,90.007 103.25,90.015 C106.362,90.027 107.099,90.29 106,91 C104.787,91.784 104.931,91.972 106.75,91.985 C107.987,91.993 109,91.55 109,91 C109,90.373 115.333,90 126,90 C139.663,90 143,90.267 143,91.359 C143,92.215 144.944,93.06 148.25,93.641 C151.478,94.208 153.404,95.033 153.25,95.782 C153.092,96.551 154.264,97 156.433,97 C158.987,97 160.028,97.512 160.5,99 C160.945,100.401 162.013,101 164.067,101 C166.084,101 167,101.498 167,102.594 C167,103.47 167.9,104.423 169,104.71 C170.1,104.998 171,105.856 171,106.617 C171,107.377 171.675,108 172.5,108 C173.325,108 174,108.848 174,109.883 C174,110.956 174.904,112.003 176.101,112.316 C177.256,112.618 177.913,113.331 177.562,113.9 C177.21,114.469 177.84,115.508 178.961,116.208 C180.66,117.269 181,118.524 181,123.741 C181,128.638 180.674,130 179.5,130 C178.445,130 178,131.066 178,133.594 C178,136.453 177.551,137.305 175.804,137.762 C173.707,138.31 173.696,138.371 175.554,139.098 C177.241,139.758 177.267,139.869 175.75,139.93 C174.69,139.972 174,140.789 174,142 C174,143.333 173.333,144 172,144 C170.708,144 170,144.667 170,145.883 C170,146.956 169.096,148.003 167.899,148.316 C166.744,148.618 166.065,149.296 166.391,149.823 C166.716,150.35 165.411,151.075 163.491,151.436 C161.403,151.827 160,152.675 160,153.545 C160,154.576 158.834,155 156,155 C151.536,155 150.493,157.123 154.028,159.015 C155.143,159.612 155.792,160.528 155.469,161.05 C155.135,161.59 156.633,162 158.941,162 C161.793,162 163,162.425 163,163.429 C163,164.357 164.935,165.26 168.513,166.003 C171.546,166.632 173.804,167.508 173.532,167.949 C173.259,168.39 174.828,169.037 177.018,169.387 C179.592,169.798 181,170.55 181,171.512 C181,172.573 182.111,173 184.875,173 C190.11,173 195.08,174.062 194.469,175.05 C193.926,175.928 195.597,176.557 201.007,177.512 C204.986,178.215 206.916,181.111 206.002,185.01 C205.364,187.729 202.597,188.618 198.2,187.514 C196.154,187.001 195.911,186.669 197.052,185.947 C198.098,185.285 197.572,185.026 195.156,185.015 C192.739,185.004 191.677,184.482 191.324,183.129 C190.956,181.724 189.569,181.109 185.743,180.656 C182.942,180.324 180.311,179.503 179.895,178.83 C179.479,178.158 176.97,177.345 174.32,177.025 C171.317,176.662 169.593,175.986 169.746,175.232 C169.959,174.188 162.321,172.149 161.09,172.922 C160.864,173.063 160.281,172.466 159.793,171.594 C159.305,170.722 157.127,169.724 154.953,169.376 C152.779,169.029 150.993,168.239 150.985,167.622 C150.976,167.005 150.533,167.175 150,168 C149.172,169.282 149.028,169.246 149.015,167.75 C149.006,166.662 148.231,166 146.968,166 C145.85,166 144.613,165.127 144.218,164.06 C143.477,162.058 143.359,162 140,162 C138.9,162 138,161.374 138,160.608 C138,159.743 136.204,158.871 133.25,158.303 C130.462,157.766 128.603,156.895 128.75,156.194 C128.893,155.511 127.89,155 126.406,155 C124.654,155 123.643,154.351 123.29,153 C122.899,151.508 121.926,151 119.453,151 C116.785,151 116.072,150.562 115.796,148.75 C115.607,147.512 114.901,146.613 114.226,146.75 C113.552,146.888 113,146.325 113,145.5 C113,144.675 113.675,144 114.5,144 C115.333,144 116,143.111 116,142 C116,140.333 116.667,140 120,140 C123.333,140 124,140.333 124,142 C124,143.1 124.338,143.947 124.75,143.882 C127.803,143.4 131,144.204 131,145.455 C131,146.325 132.405,147.173 134.5,147.566 C136.505,147.942 138,148.816 138,149.611 C138,150.664 139.694,151 145,151 C150.306,151 152,150.664 152,149.611 C152,148.816 153.495,147.942 155.5,147.566 C157.595,147.173 159,146.325 159,145.455 C159,144.655 159.9,144 161,144 C162.333,144 163,143.333 163,142 C163,140.667 163.667,140 165,140 C166.1,140 166.947,139.662 166.882,139.25 C166.46,136.578 167.211,134 168.412,134 C169.28,134 170.085,132.459 170.5,130 C170.915,127.541 171.72,126 172.588,126 C173.365,126 174,125.325 174,124.5 C174,123.675 173.375,123 172.611,123 C171.816,123 170.942,121.505 170.566,119.5 C170.173,117.405 169.325,116 168.455,116 C167.655,116 167,115.283 167,114.406 C167,113.53 166.1,112.577 165,112.29 C163.9,112.002 163,111.192 163,110.49 C163,109.066 160.825,108 157.918,108 C156.863,108 156,107.314 156,106.475 C156,105.588 154.772,104.704 153.064,104.363 C151.449,104.04 149.888,103.151 149.595,102.388 C149.218,101.405 147.202,101 142.684,101 C137.741,101 135.787,100.55 134,99 C132.143,97.389 130.259,97 124.316,97 C118.74,97 116.799,97.36 116.372,98.473 C116.061,99.283 114.291,100.23 112.438,100.578 C110.586,100.925 109.107,101.5 109.153,101.855 C109.199,102.21 109.177,103.625 109.103,105 C109.008,106.773 108.724,107.112 108.124,106.166 C106.619,103.791 106,107.553 106,119.082 C106,128.12 106.258,130 107.5,130 C108.325,130 109,130.675 109,131.5 C109,132.325 108.325,133 107.5,133 C106.675,133 106,133.675 106,134.5 C106,135.325 106.513,135.888 107.14,135.75 C107.967,135.569 108.253,141.261 108.183,156.5 C108.08,178.78 108.454,183 110.529,183 C111.261,183 112.118,184.741 112.501,187.004 C112.873,189.207 113.587,190.755 114.089,190.445 C114.606,190.125 115,193.104 115,197.334 C115,202.813 114.628,204.929 113.594,205.325 C112.821,205.622 111.907,207.148 111.562,208.717 C111.03,211.142 110.455,211.563 107.718,211.534 C105.735,211.513 104.592,211.032 104.74,210.28 C104.872,209.609 104.085,208.58 102.99,207.995 C101.156,207.013 101,205.884 101,193.548 C101,183.731 100.667,180.056 99.75,179.751 C98.79,179.431 98.433,171.461 98.211,145.452 C98.005,121.267 97.593,111.366 96.771,110.859 C96.139,110.468 95.447,108.877 95.235,107.324 C94.674,103.224 96.031,93.432 96.953,94.924 C97.489,95.791 97.95,95.459 98.469,93.835 C98.88,92.551 99.168,91.162 99.108,90.75 Z M106.252,146.5 C106.263,148.7 106.468,149.482 106.707,148.238 C106.946,146.994 106.937,145.194 106.687,144.238 C106.437,143.282 106.241,144.3 106.252,146.5 Z"/>
</svg>

