<svg xmlns="http://www.w3.org/2000/svg" width="300" height="300" viewBox="0 0 300 300" version="1.1">
  <defs/>
  <path d="M185,45.883 C185,44.176 185.435,43.883 187.25,44.37 C188.488,44.701 190.063,44.979 190.75,44.986 C191.438,44.994 192,45.675 192,46.5 C192,47.798 195.833,48 220.5,48 C245.911,48 249,48.173 249,49.594 C249,50.47 249.879,51.417 250.954,51.698 C253.454,52.352 253.977,56.484 253.648,73 C253.511,79.875 253.31,91.688 253.2,99.25 C253.034,110.64 252.746,113 251.518,113 C250.26,113 249.996,116.499 249.768,136.25 L249.5,159.5 L244.25,159.802 C240.473,160.02 239,160.511 239,161.552 C239,162.349 238.1,163 237,163 C235.889,163 235,162.333 235,161.5 C235,160.534 234.022,159.995 232.25,159.986 C227.968,159.965 225,158.899 225,157.383 C225,156.623 224.152,156 223.117,156 C222.074,156 221,155.107 220.71,154 C220.332,152.552 219.346,152 217.139,152 C214.447,152 214.014,151.591 213.434,148.5 C213.058,146.495 212.184,145 211.389,145 C210.625,145 210,144.325 210,143.5 C210,142.675 209.325,142 208.5,142 C207.222,142 207,144.667 207,160 C207,175.333 207.222,178 208.5,178 C209.753,178 210,180.056 210,190.5 C210,200.422 209.717,203 208.629,203 C207.621,203 207.071,205.385 206.554,212 C206.057,218.355 205.468,221 204.55,221 C203.619,221 203.122,223.463 202.795,229.694 C202.512,235.07 201.892,238.536 201.169,238.777 C199.37,239.377 199.673,246 201.5,246 C202.548,246 203,247.056 203,249.5 C203,251.813 202.531,253 201.617,253 C200.856,253 199.998,253.9 199.71,255 C199.31,256.532 198.346,257 195.594,257 L192,257 L192,242.5 C192,230.835 192.27,228 193.381,228 C194.422,228 194.937,225.417 195.477,217.5 C196.023,209.493 196.526,207 197.596,207 C198.762,207 199,202.935 199,183 C199,162.333 198.792,159 197.5,159 C196.286,159 195.969,157.233 195.838,149.75 C195.53,132.232 195.377,131 193.5,131 C192.247,131 192,128.944 192,118.5 C192,108.447 191.726,106 190.599,106 C188.9,106 187.679,89.353 188.179,73 L188.5,62.5 L191.826,62.181 C194.494,61.925 195.258,62.271 195.692,63.931 C195.99,65.069 196.816,66 197.529,66 C198.522,66 198.903,69.748 199.162,82.038 C199.434,94.955 199.792,98.256 201,99.001 C202.093,99.676 202.596,102.242 202.853,108.463 C203.102,114.507 203.576,117 204.474,117 C205.241,117 206.004,118.976 206.406,122 C206.86,125.424 207.531,127 208.534,127 C209.578,127 210,128.153 210,131 C210,133.789 210.43,135 211.421,135 C212.202,135 213.128,136.304 213.478,137.898 C213.848,139.584 214.927,141.009 216.057,141.305 C217.126,141.584 218,142.494 218,143.327 C218,144.196 219.278,145.122 221,145.5 C222.65,145.862 224,146.798 224,147.579 C224,148.361 224.9,149 226,149 C227.111,149 228,149.667 228,150.5 C228,151.69 229.444,152 235,152 L242,152 L242,148.5 C242,146.056 241.548,145 240.5,145 C239.675,145 239,144.325 239,143.5 C239,142.675 239.675,142 240.5,142 C241.784,142 242.001,139.079 242.009,121.75 C242.019,98.421 242.654,91 244.639,91 C245.724,91 246,88.063 246,76.5 C246,64.278 245.764,62 244.5,62 C243.675,62 243,61.379 243,60.621 C243,59.544 239.766,59.081 228.25,58.509 C220.069,58.103 213.213,57.318 212.855,56.748 C212.5,56.183 208.675,55.731 204.355,55.743 C192.607,55.777 192,55.863 192,57.5 C192,58.528 190.978,58.996 188.75,58.986 C182.917,58.962 180.999,58.007 181.014,55.133 C181.035,50.96 182.115,48 183.617,48 C184.377,48 185,47.048 185,45.883 Z M94,150.5 C94,149.417 95.111,149 98,149 C100.889,149 102,149.417 102,150.5 C102,151.722 103.667,152 111,152 C118.333,152 120,151.722 120,150.5 C120,149.227 122.5,149 136.5,149 C150.5,149 153,149.227 153,150.5 C153,151.325 153.675,152 154.5,152 C155.742,152 156,153.889 156,163 C156,173.333 155.879,174 154,174 C152.667,174 152,174.667 152,176 C152,177.111 151.333,178 150.5,178 C149.49,178 149,179.01 149,181.094 C149,183.371 148.459,184.329 146.952,184.723 C145.729,185.043 145.039,185.912 145.24,186.879 C145.489,188.072 146.492,188.421 149.039,188.199 C154.219,187.749 159,188.875 159,190.545 C159,191.345 158.325,192 157.5,192 C156.667,192 156,192.889 156,194 C156,195.667 155.333,196 152,196 C149.111,196 148,196.417 148,197.5 C148,198.466 147.022,199.005 145.25,199.014 C140.968,199.035 138,200.101 138,201.617 C138,202.377 137.1,203 136,203 C134.889,203 134,203.667 134,204.5 C134,205.51 132.99,206 130.906,206 C128.654,206 127.671,206.544 127.29,208 C126.897,209.503 125.926,210 123.383,210 C120.667,210 120,210.394 120,212 C120,213.619 119.333,214 116.5,214 C114.056,214 113,214.452 113,215.5 C113,216.722 111.333,217 104,217 C95.667,217 95,216.852 95,215 C95,213.9 95.639,213 96.421,213 C97.202,213 98.138,211.65 98.5,210 C98.862,208.35 99.798,207 100.579,207 C101.361,207 102,206.1 102,205 C102,203.407 102.667,203 105.278,203 C107.318,203 109.202,202.245 110.268,201 C111.452,199.617 113.218,199 115.99,199 C118.846,199 120,198.578 120,197.534 C120,196.531 121.576,195.86 125,195.406 C128.246,194.975 130,194.261 130,193.371 C130,192.617 130.9,192 132,192 C133.333,192 134,191.333 134,190 C134,188.667 134.667,188 136,188 C137.619,188 138,187.333 138,184.5 C138,181.667 138.381,181 140,181 C141.619,181 142,180.333 142,177.5 C142,175.056 142.452,174 143.5,174 C144.333,174 145,173.111 145,172 C145,170.9 145.623,170 146.383,170 C147.911,170 148.965,167.026 148.986,162.656 C148.996,160.647 148.413,159.659 147,159.29 C145.9,159.002 145,158.144 145,157.383 C145,156.329 143.219,156 137.5,156 C131.781,156 130,156.329 130,157.383 C130,158.899 127.032,159.965 122.75,159.986 C120.978,159.995 120,160.534 120,161.5 C120,162.333 119.111,163 118,163 C116.667,163 116,163.667 116,165 C116,166.111 115.333,167 114.5,167 C113.452,167 113,168.056 113,170.5 C113,172.813 113.469,174 114.384,174 C115.344,174 115.974,175.934 116.445,180.331 C117.216,187.53 116.429,192 114.392,192 C113.626,192 113,192.675 113,193.5 C113,194.333 112.111,195 111,195 C109.889,195 109,194.333 109,193.5 C109,192.667 108.111,192 107,192 C105.889,192 105,191.333 105,190.5 C105,189.675 104.325,189 103.5,189 C102.675,189 102,188.152 102,187.117 C102,186.074 101.107,185 100,184.71 C98.33,184.274 98,183.346 98,179.094 C98,175.233 97.637,174 96.5,174 C95.348,174 95,172.722 95,168.5 C95,164.484 94.627,163 93.617,163 C92.041,163 91.034,160 91.014,155.25 C91.004,153.022 91.472,152 92.5,152 C93.325,152 94,151.325 94,150.5 Z M123,78.5 C123,77.417 124.111,77 127,77 C129.889,77 131,77.417 131,78.5 C131,79.548 132.056,80 134.5,80 C137.933,80 138,80.079 138,84.117 C138,87.898 137.817,88.184 135.75,87.63 C134.512,87.299 132.938,87.021 132.25,87.014 C131.563,87.006 131,86.325 131,85.5 C131,84.667 130.111,84 129,84 C127.9,84 127,84.623 127,85.383 C127,86.144 126.1,87.002 125,87.29 C123.9,87.577 123,88.53 123,89.406 C123,90.283 122.325,91 121.5,91 C120.667,91 120,91.889 120,93 C120,94.1 119.377,95 118.617,95 C117.856,95 116.998,95.9 116.71,97 C116.423,98.1 115.47,99 114.594,99 C113.479,99 113,99.93 113,102.094 C113,104.346 112.456,105.329 111,105.71 C109.9,105.998 109,106.856 109,107.617 C109,108.662 110.699,109 115.95,109 C121.446,109 123.099,109.355 123.85,110.696 C124.549,111.945 126.538,112.503 131.4,112.813 C136.15,113.115 138,113.621 138,114.616 C138,115.682 139.899,116.003 146.25,116.014 C155.804,116.029 159,116.682 159,118.617 C159,119.627 160.484,120 164.5,120 C168.722,120 170,120.348 170,121.5 C170,122.333 170.889,123 172,123 C173.86,123 174,123.667 174,132.5 C174,140.278 173.728,142 172.5,142 C171.675,142 171,142.675 171,143.5 C171,144.583 169.889,145 167,145 C163.667,145 163,144.667 163,143 C163,141.9 163.655,141 164.455,141 C165.996,141 167.468,135.586 166.807,132.35 C166.523,130.96 165.701,130.58 163.503,130.821 C161.576,131.032 160.134,130.536 159.28,129.368 C158.336,128.077 156.214,127.481 151.491,127.18 C146.83,126.884 145,126.377 145,125.384 C145,124.331 143.238,124 137.625,124 C128.411,124 124,123.15 124,121.375 C124,120.292 121.667,120 113,120 C103.889,120 102,120.258 102,121.5 C102,122.325 101.365,123 100.588,123 C99.72,123 98.915,124.541 98.5,127 C98.085,129.459 97.28,131 96.412,131 C95.635,131 95,131.717 95,132.594 C95,133.47 94.1,134.423 93,134.71 C91.9,134.998 91,135.856 91,136.617 C91,137.377 90.375,138 89.611,138 C88.816,138 87.942,139.495 87.566,141.5 C87.173,143.595 86.325,145 85.455,145 C84.655,145 84,145.9 84,147 C84,148.1 83.345,149 82.545,149 C81.675,149 80.827,150.405 80.434,152.5 C80.058,154.505 79.184,156 78.389,156 C77.625,156 77,156.9 77,158 C77,159.1 76.345,160 75.545,160 C74.675,160 73.827,161.405 73.434,163.5 C73.058,165.505 72.184,167 71.389,167 C70.625,167 70,167.717 70,168.594 C70,169.47 69.1,170.423 68,170.71 C66.497,171.103 66,172.074 66,174.617 C66,177.801 65.799,178 62.582,178 C60.702,178 58.452,177.727 57.582,177.393 C55.854,176.73 55.386,174 57,174 C57.55,174 58,173.283 58,172.406 C58,171.53 58.858,170.588 59.906,170.314 C61.12,169.997 62.044,168.579 62.451,166.408 C62.831,164.386 63.682,163 64.545,163 C65.541,163 66,161.896 66,159.5 C66,156.667 66.381,156 68,156 C69.111,156 70,155.333 70,154.5 C70,153.675 70.675,153 71.5,153 C72.325,153 73,152.152 73,151.117 C73,150.074 73.893,149 75,148.71 C76.456,148.329 77,147.346 77,145.094 C77,143.01 77.49,142 78.5,142 C79.333,142 80,141.111 80,140 C80,138.667 80.667,138 82,138 C83.606,138 84,137.333 84,134.617 C84,132.074 84.497,131.103 86,130.71 C87.1,130.423 88,129.47 88,128.594 C88,127.717 88.675,127 89.5,127 C90.548,127 91,125.944 91,123.5 C91,120.667 91.381,120 93,120 C94.619,120 95,119.333 95,116.5 C95,114.056 95.452,113 96.5,113 C97.333,113 98,112.111 98,111 C98,109.667 98.667,109 100,109 C101.619,109 102,108.333 102,105.5 C102,103.18 102.468,102 103.389,102 C104.184,102 105.058,100.505 105.434,98.5 C105.827,96.405 106.675,95 107.545,95 C108.345,95 109,94.1 109,93 C109,91.9 109.655,91 110.455,91 C111.325,91 112.173,89.595 112.566,87.5 C113.163,84.318 113.53,84 116.611,84 C119.333,84 120,83.607 120,82 C120,80.889 120.667,80 121.5,80 C122.325,80 123,79.325 123,78.5 Z M85.75,44.689 C86.713,44.438 89.188,44.18 91.25,44.116 C94.891,44.003 95,44.102 95,47.5 C95,49.944 95.452,51 96.5,51 C97.333,51 98,51.889 98,53 C98,54.111 97.333,55 96.5,55 C95.675,55 95,54.325 95,53.5 C95,52.675 94.325,52 93.5,52 C92.675,52 92,52.675 92,53.5 C92,54.325 91.15,55 90.111,55 C88.745,55 88.041,55.967 87.566,58.5 C87.173,60.595 86.325,62 85.455,62 C84.468,62 84,63.089 84,65.383 C84,67.926 83.503,68.897 82,69.29 C80.544,69.671 80,70.654 80,72.906 C80,74.862 79.495,76 78.628,76 C77.8,76 77.002,77.587 76.616,80 C76.202,82.588 75.451,84 74.488,84 C73.667,84 73,84.896 73,86 C73,87.111 72.333,88 71.5,88 C70.452,88 70,89.056 70,91.5 C70,94.333 69.619,95 68,95 C66.381,95 66,95.667 66,98.5 C66,100.82 65.532,102 64.611,102 C63.816,102 62.942,103.495 62.566,105.5 C62.173,107.595 61.325,109 60.455,109 C59.655,109 59,109.9 59,111 C59,112.1 58.377,113 57.617,113 C55.908,113 55.032,116.071 55.014,122.125 C55.001,126.406 54.788,126.792 52.149,127.32 C47.093,128.331 45,127.179 45,123.383 C45,121.043 45.462,120 46.5,120 C47.538,120 48,118.957 48,116.617 C48,114.074 48.497,113.103 50,112.71 C51.456,112.329 52,111.346 52,109.094 C52,107.01 52.49,106 53.5,106 C54.538,106 55,104.957 55,102.617 C55,100.074 55.497,99.103 57,98.71 C58.456,98.329 59,97.346 59,95.094 C59,93.138 59.505,92 60.372,92 C61.2,92 61.998,90.413 62.384,88 C62.798,85.412 63.549,84 64.512,84 C65.546,84 66,82.932 66,80.5 C66,77.667 66.381,77 68,77 C69.619,77 70,76.333 70,73.5 C70,71.056 70.452,70 71.5,70 C72.333,70 73,69.111 73,68 C73,66.9 73.655,66 74.455,66 C75.325,66 76.173,64.595 76.566,62.5 C76.927,60.575 77.797,59 78.5,59 C79.203,59 80.073,57.425 80.434,55.5 C80.827,53.405 81.675,52 82.545,52 C83.535,52 84,50.905 84,48.573 C84,46.151 84.513,45.013 85.75,44.689 Z M109,60.5 C109,59.452 110.056,59 112.5,59 C114.944,59 116,59.452 116,60.5 C116,61.732 117.764,62 125.875,62 C137.494,62 142,62.734 142,64.625 C142,65.682 143.937,66 150.383,66 C157.926,66 158.819,66.201 159.29,68 C159.577,69.1 160.53,70 161.406,70 C162.336,70 163,70.838 163,72.01 C163,73.115 163.9,74.79 165,75.732 C166.245,76.798 167,78.682 167,80.722 C167,82.969 167.472,84 168.5,84 C170.854,84 170.253,86.699 167.75,87.37 C163.993,88.376 163,88.09 163,86 C163,84.667 162.333,84 161,84 C159.667,84 159,83.333 159,82 C159,80.889 158.333,80 157.5,80 C156.675,80 156,79.325 156,78.5 C156,77.311 154.561,77 149.05,77 C143.47,77 141.907,76.655 141.121,75.25 C140.313,73.804 138.396,73.44 130.072,73.156 C122.247,72.889 120,72.499 120,71.406 C120,70.633 119.1,70 118,70 C116.889,70 116,70.667 116,71.5 C116,72.325 115.325,73 114.5,73 C113.675,73 113,72.325 113,71.5 C113,70.477 111.966,69.996 109.75,69.986 C103.486,69.96 102,69.077 102,65.383 C102,62.183 102.19,62 105.5,62 C107.944,62 109,61.548 109,60.5 Z M106,175.5 C106,179.722 106.348,181 107.5,181 C108.652,181 109,179.722 109,175.5 C109,171.278 108.652,170 107.5,170 C106.348,170 106,171.278 106,175.5 Z"/>
</svg>

