<svg xmlns="http://www.w3.org/2000/svg" width="300" height="300" viewBox="0 0 300 300" version="1.1">
  <defs/>
  <path d="M118,119.5 C118,118.31 119.444,118 125,118 C130.556,118 132,118.31 132,119.5 C132,120.652 133.278,121 137.5,121 C142.333,121 143,121.242 143,123 C143,124.111 143.667,125 144.5,125 C145.325,125 146,125.675 146,126.5 C146,127.325 145.325,128 144.5,128 C143.477,128 142.996,129.034 142.986,131.25 C142.966,136 141.959,139 140.383,139 C139.623,139 139,139.9 139,141 C139,142.111 138.333,143 137.5,143 C136.675,143 136,143.717 136,144.594 C136,145.47 135.1,146.423 134,146.71 C132.608,147.074 132,148.074 132,150 C132,151.926 131.392,152.926 130,153.29 C126.522,154.199 127.56,157 131.375,157 C134.355,157 134.823,157.366 135.375,160.125 C136.089,163.696 136.543,165.649 135.772,166.716 C134.796,168.067 131.857,168 125,168 C114.667,168 114,168.121 114,170 C114,171.238 113.333,172 112.249,172 C110.769,172 110.466,173.08 110.287,179 L110.075,186 L132,186 L132,193.5 C132,198.841 131.64,200.996 130.75,200.986 C127.84,200.955 125,199.669 125,198.383 C125,197.373 123.516,197 119.5,197 L114,197 L114,215.26 L118.651,214.736 C121.449,214.42 123.66,213.572 124.201,212.606 C124.891,211.372 126.708,211 132.05,211 C138.333,211 139,211.192 139,213 C139,214.1 139.623,215 140.383,215 C141.942,215 143.143,218.463 142.325,220.596 C142.028,221.368 141.159,222 140.393,222 C139.468,222 139,223.175 139,225.5 C139,228.833 138.833,229 135.5,229 C132.167,229 132,228.833 132,225.5 C132,222.167 131.833,222 128.5,222 C126.152,222 125,222.465 125,223.412 C125,224.28 123.459,225.085 121,225.5 C118.541,225.915 117,226.72 117,227.588 C117,228.365 116.325,229 115.5,229 C114.247,229 114,231.056 114,241.5 L114,254 L123,254 C130.333,254 132,253.722 132,252.5 C132,251.667 132.889,251 134,251 C135.111,251 136,251.667 136,252.5 C136,253.325 136.675,254 137.5,254 C138.325,254 139,253.325 139,252.5 C139,251.3 140.5,251 146.5,251 L154,251 L154,254.5 C154,257.333 153.619,258 152,258 C150.9,258 150,258.619 150,259.375 C150,261.15 145.589,262 136.375,262 C130.486,262 129,262.302 129,263.5 C129,264.723 127.323,265 119.906,265 C111.654,265 110.764,265.185 110.29,267 C109.816,268.811 108.926,269 100.883,269 C93.654,269 92,269.279 92,270.5 C92,271.466 91.022,272.005 89.25,272.014 C84.968,272.035 82,273.101 82,274.617 C82,275.672 80.211,276 74.448,276 L66.895,276 L67.198,270.75 L67.5,265.5 L74.25,265.204 C79.034,264.995 81,264.523 81,263.585 C81,262.059 86.109,261.027 93.75,261.011 C97.745,261.003 99,260.641 99,259.5 C99,258.452 100.056,258 102.5,258 L106,258 L106,252.5 C106,249.475 105.55,247 105,247 C104.45,247 104,246.325 104,245.5 C104,244.675 104.45,244 105,244 C105.55,244 106,241.525 106,238.5 C106,233.056 105.97,233 103,233 C101.107,233 100,233.512 100,234.389 C100,235.184 98.505,236.058 96.5,236.434 C94.405,236.827 93,237.675 93,238.545 C93,239.345 92.1,240 91,240 C89.667,240 89,240.667 89,242 C89,243.593 88.338,243.997 85.75,243.986 C79.486,243.96 78,243.077 78,239.383 C78,237.043 78.462,236 79.5,236 C80.325,236 81,235.325 81,234.5 C81,233.667 81.889,233 83,233 C84.333,233 85,232.333 85,231 C85,229.381 85.667,229 88.5,229 C90.848,229 92,228.535 92,227.588 C92,226.72 93.541,225.915 96,225.5 C98.459,225.085 100,224.28 100,223.412 C100,222.635 100.675,222 101.5,222 C102.722,222 103,220.333 103,213 L103,204 L99.5,204 C96.667,204 96,204.381 96,206 C96,207.333 95.333,208 94,208 C92.889,208 92,208.667 92,209.5 C92,210.325 91.377,211 90.617,211 C89.856,211 88.998,211.9 88.71,213 C88.249,214.763 87.346,215 81.094,215 L74,215 L74.014,211.75 C74.039,205.835 74.982,204 78,204 C79.926,204 80.926,203.392 81.29,202 C81.603,200.803 82.654,200 83.906,200 C85.101,200 86,199.356 86,198.5 C86,197.404 87.145,196.996 90.25,196.986 C95.947,196.968 99,196.06 99,194.383 C99,193.623 99.9,193 101,193 C102.619,193 103,192.333 103,189.5 C103,187.056 102.548,186 101.5,186 C100.457,186 100,184.951 100,182.559 C100,180.666 99.662,178.909 99.249,178.654 C97.711,177.703 89,179.277 89,180.505 C89,181.765 84.729,183 80.375,183 C78.931,183 78,183.588 78,184.5 C78,185.548 76.944,186 74.5,186 C72.187,186 71,185.531 71,184.617 C71,183.856 70.1,182.998 69,182.71 C67.9,182.423 67,181.47 67,180.594 C67,179.667 67.837,179 69,179 C70.772,179 71,178.333 71,173.14 C71,164.146 69.93,158 68.364,158 C67.439,158 67,156.712 67,154 C67,151.111 66.583,150 65.5,150 C64.452,150 64,148.944 64,146.5 C64,143.667 63.619,143 62,143 C60.148,143 60,142.333 60,134 C60,127.474 60.344,124.996 61.25,124.986 C61.938,124.979 63.513,124.701 64.75,124.37 C66.565,123.883 67,124.176 67,125.883 C67,127.882 67.501,128 76,128 C83.333,128 85,127.722 85,126.5 C85,125.348 86.278,125 90.5,125 C94.5,125 96,124.625 96,123.625 C96,121.824 100.432,121 110.125,121 C116.458,121 118,120.706 118,119.5 Z M212,72.594 C212,71.49 212.922,71 215,71 L218,71 L218,78 C218,83.402 217.674,85 216.57,85 C215.406,85 215.081,87.883 214.82,100.538 C214.594,111.498 214.136,116.301 213.264,116.838 C212.468,117.33 211.935,120.778 211.764,126.55 L211.5,135.5 L223.75,135.781 C233.731,136.01 236,136.334 236,137.531 C236,138.578 237.148,139 240,139 C242.834,139 244,139.424 244,140.455 C244,141.325 245.405,142.173 247.5,142.566 C249.505,142.942 251,143.816 251,144.611 C251,145.375 251.717,146 252.594,146 C253.47,146 254.423,146.9 254.71,148 C254.998,149.1 255.856,150 256.617,150 C257.377,150 258,150.9 258,152 C258,153.1 258.623,154 259.383,154 C260.899,154 261.965,156.968 261.986,161.25 C261.995,163.022 262.534,164 263.5,164 C264.788,164 265,167.111 265,186 C265,204.889 264.788,208 263.5,208 C262.425,208 262,209.097 262,211.875 C262,217.772 260.904,222 259.375,222 C258.47,222 258,223.197 258,225.5 C258,227.896 257.541,229 256.545,229 C255.675,229 254.827,230.405 254.434,232.5 C254.058,234.505 253.184,236 252.389,236 C251.468,236 251,237.18 251,239.5 C251,242.036 250.561,243 249.406,243 C248.53,243 247.577,243.9 247.29,245 C247.002,246.1 246.194,247 245.495,247 C244.795,247 243.927,248.575 243.566,250.5 C243.173,252.595 242.325,254 241.455,254 C240.655,254 240,254.9 240,256 C240,257.619 239.333,258 236.5,258 C234.056,258 233,258.452 233,259.5 C233,260.333 232.111,261 231,261 C229.889,261 229,260.333 229,259.5 C229,258.667 228.111,258 227,258 C225.9,258 225,257.361 225,256.579 C225,255.798 223.65,254.862 222,254.5 C220.35,254.138 219,253.202 219,252.421 C219,251.639 218.15,251 217.111,251 C215.745,251 215.041,250.033 214.566,247.5 C214.173,245.405 213.325,244 212.455,244 C211.424,244 211,242.834 211,240 C211,237.111 210.583,236 209.5,236 C208.358,236 207.998,234.746 207.991,230.75 C207.976,221.745 206.85,215 205.361,215 C204.296,215 204,212.611 204,204 C204,195.419 204.298,193 205.353,193 C206.738,193 208,183.393 208,172.849 C208,169.205 208.373,168 209.5,168 C210.793,168 211.002,171.423 211.014,192.75 C211.028,218.588 211.332,222 213.617,222 C214.663,222 215,223.707 215,229 C215,234.306 215.336,236 216.389,236 C217.184,236 218.058,237.495 218.434,239.5 C218.827,241.595 219.675,243 220.545,243 C221.345,243 222,243.844 222,244.875 C222,246.177 222.96,246.942 225.142,247.378 C226.871,247.724 228.827,248.749 229.491,249.656 C230.817,251.47 233,250.715 233,248.441 C233,247.648 233.623,247 234.383,247 C235.144,247 236.002,246.1 236.29,245 C236.577,243.9 237.53,243 238.406,243 C239.496,243 240,242.088 240,240.117 C240,238.074 240.583,237.081 242,236.71 C243.456,236.329 244,235.346 244,233.094 C244,231.138 244.505,230 245.372,230 C246.2,230 246.998,228.413 247.384,226 C247.798,223.412 248.549,222 249.512,222 C250.546,222 251,220.932 251,218.5 C251,216.19 251.469,215 252.381,215 C253.422,215 253.937,212.417 254.477,204.5 C255.023,196.493 255.526,194 256.596,194 C257.716,194 258,191.776 258,183 C258,174.333 257.708,172 256.625,172 C255.254,172 254,167.88 254,163.375 C254,161.931 253.412,161 252.5,161 C251.667,161 251,160.111 251,159 C251,157.9 250.377,157 249.617,157 C248.856,157 247.998,156.1 247.71,155 C247.423,153.9 246.47,153 245.594,153 C244.717,153 244,152.325 244,151.5 C244,150.452 242.944,150 240.5,150 C238.197,150 237,149.53 237,148.625 C237,146.75 232.508,146 221.281,146 C212.654,146 211.766,146.178 211.29,148 C211.002,149.1 210.144,150 209.383,150 C208.387,150 208,151.423 208,155.094 C208,159.346 207.67,160.274 206,160.71 C204.189,161.184 204,162.074 204,170.117 C204,176.987 203.688,179 202.625,179 C201.254,179 200,183.12 200,187.625 C200,189.069 199.412,190 198.5,190 C197.31,190 197,191.444 197,197 C197,202.293 196.663,204 195.617,204 C194.041,204 193.034,207 193.014,211.75 C193.004,213.966 192.523,215 191.5,215 C190.379,215 189.997,216.201 189.986,219.75 C189.969,225.923 189.103,229 187.383,229 C186.373,229 186,230.484 186,234.5 C186,238.5 185.625,240 184.625,240 C183.254,240 182,244.12 182,248.625 C182,250.069 181.412,251 180.5,251 C179.363,251 179,252.233 179,256.094 C179,260.346 178.67,261.274 177,261.71 C175.497,262.103 175,263.074 175,265.617 C175,267.957 174.538,269 173.5,269 C172.534,269 171.995,269.978 171.986,271.75 C171.965,276.032 170.899,279 169.383,279 C168.436,279 168,280.261 168,283 C168,285.739 167.564,287 166.617,287 C164.759,287 164.03,283.848 164.014,275.75 C164.001,269.662 164.196,269 166,269 C167.758,269 168,268.333 168,263.5 C168,259.5 168.375,258 169.375,258 C170.746,258 172,253.88 172,249.375 C172,247.931 172.588,247 173.5,247 C174.637,247 175,245.767 175,241.906 C175,237.654 175.33,236.726 177,236.29 C178.688,235.848 179,234.926 179,230.383 C179,226.265 179.352,225 180.5,225 C181.575,225 182,223.903 182,221.125 C182,215.228 183.096,211 184.625,211 C185.661,211 186,209.273 186,204 C186,198.727 186.339,197 187.375,197 C188.746,197 190,192.88 190,188.375 C190,187.019 190.594,186 191.384,186 C192.379,186 192.884,184.156 193.185,179.432 C193.438,175.46 194.127,172.54 194.927,172.045 C195.735,171.546 196.449,168.453 196.76,164.113 C197.124,159.017 197.656,157 198.634,157 C199.528,157 200,155.791 200,153.5 C200,151.056 199.548,150 198.5,150 C197.675,150 197,150.619 197,151.375 C197,152.746 192.88,154 188.375,154 C186.931,154 186,154.588 186,155.5 C186,156.548 184.944,157 182.5,157 C179.667,157 179,157.381 179,159 C179,160.619 178.333,161 175.5,161 C173.056,161 172,161.452 172,162.5 C172,163.333 171.111,164 170,164 C168.667,164 168,164.667 168,166 C168,167.333 167.333,168 166,168 C164.242,168 164,168.667 164,173.5 L164,179 L160.5,179 C157.667,179 157,178.619 157,177 C157,175.381 156.333,175 153.5,175 C150.667,175 150,174.619 150,173 C150,171.889 149.333,171 148.5,171 C147.675,171 147,170.325 147,169.5 C147,168.675 147.675,168 148.5,168 C149.325,168 150,167.377 150,166.617 C150,165.856 150.9,164.998 152,164.71 C153.1,164.423 154,163.47 154,162.594 C154,161.717 154.575,161 155.278,161 C155.981,161 157.326,160.1 158.268,159 C159.21,157.9 160.885,157 161.99,157 C163.096,157 164,156.365 164,155.588 C164,154.72 165.541,153.915 168,153.5 C170.459,153.085 172,152.28 172,151.412 C172,150.465 173.152,150 175.5,150 C177.813,150 179,149.531 179,148.617 C179,147.101 181.968,146.035 186.25,146.014 C188.022,146.005 189,145.466 189,144.5 C189,143.477 190.034,142.996 192.25,142.986 C197,142.966 200,141.959 200,140.383 C200,139.623 200.9,139 202,139 C203.947,139 204,138.333 204,114 C204,93.251 204.238,89 205.399,89 C206.395,89 206.997,87.012 207.491,82.093 C208.055,76.474 208.54,75.092 210.092,74.686 C211.141,74.412 212,73.47 212,72.594 Z M70,18.393 C70,17.434 71.248,17 74,17 C77.333,17 78,17.333 78,19 C78,20.1 78.623,21 79.383,21 C80.911,21 81.965,23.974 81.986,28.344 C81.996,30.353 81.413,31.341 80,31.71 C78.344,32.143 78,33.074 78,37.117 C78,40.791 77.629,42 76.5,42 C75.31,42 75,43.444 75,49 C75,54.556 75.31,56 76.5,56 C77.325,56 78,55.385 78,54.634 C78,53.656 80.017,53.124 85.113,52.76 C89.453,52.449 92.546,51.735 93.045,50.927 C93.54,50.127 96.46,49.438 100.432,49.185 L107,48.767 L107,38.384 C107,29.82 107.263,28 108.5,28 C109.652,28 110,26.722 110,22.5 L110,17 L121,17 L121,20.5 C121,22.944 120.548,24 119.5,24 C118.316,24 117.997,25.423 117.986,30.75 C117.97,38.848 117.241,42 115.383,42 C114.623,42 114,42.9 114,44 C114,45.758 114.667,46 119.5,46 C123.722,46 125,46.348 125,47.5 C125,48.325 125.675,49 126.5,49 C127.548,49 128,50.056 128,52.5 C128,55.036 127.561,56 126.406,56 C125.53,56 124.577,56.9 124.29,58 C123.857,59.656 122.926,60 118.883,60 L114,60 L114,67.5 C114,73.219 113.671,75 112.617,75 C111.101,75 110.035,77.968 110.014,82.25 C110.005,83.908 109.455,85 108.627,85 C107.703,85 107.091,86.703 106.754,90.208 C106.479,93.072 105.747,95.584 105.127,95.791 C104.507,95.998 104,96.804 104,97.583 C104,98.63 105.404,99 109.375,99 C116.684,99 121,99.975 121,101.625 C121,102.381 121.9,103 123,103 C124.667,103 125,103.667 125,107 C125,109.2 124.606,111 124.125,111 C120.984,111 117,109.532 117,108.375 C117,107.47 115.803,107 113.5,107 C111.056,107 110,107.452 110,108.5 C110,109.575 108.903,110 106.125,110 C100.228,110 96,111.096 96,112.625 C96,113.381 95.325,114 94.5,114 C93.675,114 93,114.717 93,115.594 C93,116.47 92.1,117.423 91,117.71 C89.9,117.998 89,118.856 89,119.617 C89,120.538 87.799,121 85.406,121 C82.654,121 81.69,121.468 81.29,123 C80.857,124.656 79.926,125 75.883,125 C72.383,125 71,124.607 71,123.611 C71,122.816 69.505,121.942 67.5,121.566 C64.302,120.966 64,120.611 64,117.455 C64,115.18 64.472,114 65.383,114 C67.381,114 67.533,111.825 67.194,88.25 L66.888,67 L61.85,67 C57.654,67 56.725,67.334 56.29,69 C55.848,70.688 54.926,71 50.383,71 C46.265,71 45,71.352 45,72.5 C45,73.325 44.325,74 43.5,74 C42.667,74 42,74.889 42,76 C42,77.606 41.333,78 38.617,78 C35.722,78 35.156,77.603 34.7,75.25 C33.954,71.41 34.984,67 36.625,67 C37.381,67 38,66.365 38,65.588 C38,64.72 39.541,63.915 42,63.5 C44.459,63.085 46,62.28 46,61.412 C46,60.33 47.638,60 53,60 C58.556,60 60,59.69 60,58.5 C60,57.452 61.056,57 63.5,57 L67,57 L67,38.969 C67,23.863 67.243,20.844 68.5,20.362 C69.325,20.045 70,19.159 70,18.393 Z M110.75,128.728 C108.335,128.981 107,129.633 107,130.56 C107,131.712 105.101,132 97.5,132 C90.078,132 88,132.303 88,133.383 C88,134.899 85.032,135.965 80.75,135.986 C78.978,135.995 78,136.534 78,137.5 C78,138.333 77.111,139 76,139 C73.775,139 73.615,140.154 74.648,148.75 C75.063,152.202 75.745,154 76.639,154 C77.601,154 78,155.431 78,158.883 C78,162.926 78.344,163.857 80,164.29 C81.1,164.577 82,165.53 82,166.406 C82,167.652 83.092,168 87,168 C90.778,168 92,167.633 92,166.5 C92,165.667 92.889,165 94,165 C95.879,165 96,164.333 96,154 C96,143.667 96.121,143 98,143 C99.333,143 100,142.333 100,141 C100,139.889 100.667,139 101.5,139 C102.333,139 103,139.889 103,141 C103,142.333 103.667,143 105,143 C106.81,143 107,143.667 107,150 L107,157 L112,157 C115.908,157 117,156.652 117,155.406 C117,154.53 117.9,153.577 119,153.29 C120.1,153.002 121,152.144 121,151.383 C121,150.623 121.623,150 122.383,150 C123.144,150 124.002,149.1 124.29,148 C124.577,146.9 125.53,146 126.406,146 C127.521,146 128,145.07 128,142.906 C128,140.654 128.544,139.671 130,139.29 C131.503,138.897 132,137.926 132,135.383 C132,133.043 132.462,132 133.5,132 C135.854,132 135.253,129.301 132.75,128.63 C130.391,127.998 117.168,128.057 110.75,128.728 Z M82,61.594 C82,62.47 81.1,63.423 80,63.71 C78.9,63.998 78,64.856 78,65.617 C78,66.377 77.377,67 76.617,67 C74.483,67 74.101,71.208 74.73,87.75 L75.31,103 L80.155,103 C83.795,103 85,102.627 85,101.5 C85,100.348 86.278,100 90.5,100 L96,100 L96,94.5 C96,90.5 96.375,89 97.375,89 C98.746,89 100,84.88 100,80.375 C100,78.931 100.588,78 101.5,78 C102.722,78 103,76.333 103,69 L103,60 L92.5,60 C83.559,60 82,60.237 82,61.594 Z"/>
</svg>

