<svg xmlns="http://www.w3.org/2000/svg" width="300" height="300" viewBox="0 0 300 300" version="1.1">
  <defs/>
  <path d="M124.15,68.696 C124.907,67.344 126.558,67.003 132.3,67.015 C140.265,67.032 143.759,68.294 140.75,70.068 C139.787,70.635 139,71.977 139,73.05 C139,74.122 138.325,75 137.5,75 C136.675,75 136,75.675 136,76.5 C136,77.583 134.889,78 132,78 C129.166,78 128,78.424 128,79.455 C128,80.325 126.595,81.173 124.5,81.566 C122.495,81.942 121,82.816 121,83.611 C121,84.375 120.1,85 119,85 C117.9,85 117,85.639 117,86.421 C117,87.202 115.664,88.134 114.032,88.493 C111.634,89.02 110.94,89.804 110.42,92.572 C110.055,94.522 109.178,96 108.389,96 C107.625,96 107,96.9 107,98 C107,99.333 106.333,100 105,100 C103.667,100 103,100.667 103,102 C103,103.1 102.361,104 101.579,104 C100.798,104 99.862,105.35 99.5,107 C99.138,108.65 98.202,110 97.421,110 C96.639,110 96,110.9 96,112 C96,113.111 95.333,114 94.5,114 C93.675,114 93,114.717 93,115.594 C93,116.47 92.1,117.423 91,117.71 C89.497,118.103 89,119.074 89,121.617 C89,124.333 88.606,125 87,125 C85.267,125 85,125.667 85,130 L85,135 L94.5,135 C102.278,135 104,134.728 104,133.5 C104,132.675 104.45,132 105,132 C105.55,132 106,132.675 106,133.5 C106,134.333 106.889,135 108,135 C109.111,135 110,134.333 110,133.5 C110,132.417 111.111,132 114,132 C116.739,132 118,131.564 118,130.617 C118,128.897 121.077,128.031 127.25,128.014 C130.621,128.004 132,127.598 132,126.617 C132,125.856 132.9,124.998 134,124.71 C135.1,124.423 136,123.47 136,122.594 C136,121.717 136.675,121 137.5,121 C138.325,121 139,120.325 139,119.5 C139,118.455 140.052,118 142.466,118 C145.869,118 145.943,118.089 146.594,123 C147.025,126.246 147.739,128 148.629,128 C149.745,128 150,131.724 150,148 L150,168 L146.5,168 C143.566,168 142.984,167.636 142.901,165.75 C142.847,164.512 142.734,158.407 142.651,152.182 C142.522,142.541 142.241,140.718 140.75,139.882 C139.787,139.342 139,137.97 139,136.834 C139,135.178 138.552,134.887 136.75,135.37 C135.512,135.701 133.037,135.979 131.25,135.986 C129.034,135.996 128,136.477 128,137.5 C128,138.69 126.556,139 121,139 C114.667,139 114,139.19 114,141 C114,142.917 113.333,143 98,143 C84.444,143 82,143.229 82,144.5 C82,145.652 80.722,146 76.5,146 L71,146 L71,139 C71,132.667 71.19,132 73,132 C74.333,132 75,131.333 75,130 C75,128.889 75.667,128 76.5,128 C77.487,128 78,127.013 78,125.117 C78,123.074 78.583,122.081 80,121.71 C81.197,121.397 82,120.346 82,119.094 C82,117.899 82.644,117 83.5,117 Q85,117 85,114 C85,111.922 85.49,111 86.594,111 C87.47,111 88.423,110.1 88.71,109 C88.998,107.9 89.806,107 90.505,107 C91.205,107 92.073,105.425 92.434,103.5 C92.827,101.405 93.675,100 94.545,100 C95.345,100 96,99.1 96,98 C96,96.9 96.655,96 97.455,96 C98.325,96 99.173,94.595 99.566,92.5 C99.927,90.575 100.672,89 101.22,89 C102.67,89 106.962,84.717 106.983,83.25 C106.994,82.399 105.243,82 101.5,82 C97.278,82 96,82.348 96,83.5 C96,84.769 93.577,85.002 80.25,85.014 C63.331,85.028 60,85.456 60,87.617 C60,88.551 58.784,88.995 56.25,88.985 C51.605,88.966 50.338,88.194 49.505,84.876 C48.979,82.782 49.257,82.166 50.926,81.73 C52.067,81.431 53,80.47 53,79.594 C53,78.196 55.154,78 70.5,78 C84.682,78 88,77.739 88,76.625 C88,74.824 92.432,74 102.125,74 C108.164,74 110,73.677 110,72.616 C110,71.621 111.85,71.115 116.6,70.813 C121.462,70.503 123.451,69.945 124.15,68.696 Z M240,58.5 C240,57.459 241.047,57 243.424,57 L246.848,57 L247.174,94.037 C247.452,125.64 247.72,131.21 249,132 C250.281,132.79 250.548,138.415 250.825,170.463 C251.099,202.132 251.373,208 252.575,208 C253.537,208 254,209.137 254,211.5 C254,213.944 253.548,215 252.5,215 C251.247,215 251,217.056 251,227.5 L251,240 L247.617,240 C245.074,240 244.103,240.497 243.71,242 C243.341,243.413 242.353,243.996 240.344,243.986 C235.974,243.965 233,242.911 233,241.383 C233,240.478 231.831,240 229.617,240 C227.074,240 226.103,239.503 225.71,238 C225.423,236.9 224.47,236 223.594,236 C222.717,236 222,235.325 222,234.5 C222,233.452 220.944,233 218.5,233 C216.056,233 215,232.548 215,231.5 C215,230.675 214.283,230 213.406,230 C212.53,230 211.588,229.142 211.314,228.094 C210.997,226.88 209.579,225.956 207.408,225.549 C205.386,225.169 204,224.318 204,223.455 C204,222.655 203.1,222 202,222 C200.889,222 200,221.333 200,220.5 C200,219.675 199.325,219 198.5,219 C197.667,219 197,218.111 197,217 C197,215.667 196.333,215 195,215 C193.667,215 193,214.333 193,213 C193,211.9 192.345,211 191.545,211 C190.675,211 189.827,209.595 189.434,207.5 C189.058,205.495 188.184,204 187.389,204 C186.468,204 186,202.82 186,200.5 C186,198.056 185.548,197 184.5,197 C183.667,197 183,196.111 183,195 C183,193.889 183.667,193 184.5,193 C185.333,193 186,193.889 186,195 C186,196.333 186.667,197 188,197 C189.333,197 190,197.667 190,199 C190,200.111 190.667,201 191.5,201 Q193,201 193,204 C193,206.078 193.49,207 194.594,207 C195.47,207 196.412,207.858 196.686,208.906 C197.003,210.12 198.421,211.044 200.592,211.451 C202.614,211.831 204,212.682 204,213.545 C204,214.345 204.675,215 205.5,215 C206.325,215 207,215.675 207,216.5 C207,217.333 207.889,218 209,218 C210.333,218 211,218.667 211,220 C211,221.606 211.667,222 214.383,222 C216.926,222 217.897,222.497 218.29,224 C218.671,225.456 219.654,226 221.906,226 C223.99,226 225,226.49 225,227.5 C225,228.583 226.111,229 229,229 C231.739,229 233,229.436 233,230.383 C233,231.883 235.959,232.965 240.125,232.986 C240.818,232.99 241.379,233.062 241.83,232.873 C243.823,232.034 243.655,226.06 243.235,186.25 C243.034,167.243 242.781,164 241.5,164 C240.204,164 240,160.333 240,137 C240,114.623 239.762,110 238.611,110 C237.491,110 237.08,105.839 236.49,88.549 C235.718,65.884 236.141,60 238.545,60 C239.345,60 240,59.325 240,58.5 Z M110,148 C110,146.178 110.667,146 117.5,146 C124.333,146 125,146.178 125,148 C125,149.619 125.667,150 128.5,150 C130.944,150 132,150.452 132,151.5 C132,152.325 132.717,153 133.594,153 C134.47,153 135.423,153.9 135.71,155 C135.998,156.1 136.829,157 137.558,157 C139.692,157 140.25,158.847 139.542,163.571 C138.904,167.822 138.739,168 135.439,168 C133.178,168 132,168.474 132,169.383 C132,170.959 129,171.966 124.25,171.986 C122.034,171.996 121,172.477 121,173.5 C121,174.633 119.778,175 116,175 L111,175 L111,186 C111,195.111 111.258,197 112.5,197 C113.652,197 114,198.278 114,202.5 L114,208 L117.25,207.986 C122,207.966 125,206.959 125,205.383 C125,204.469 126.187,204 128.5,204 C130.813,204 132,203.531 132,202.617 C132,201.856 132.9,200.998 134,200.71 C135.1,200.423 136,199.52 136,198.705 C136,197.803 137.369,196.966 139.5,196.566 C141.595,196.173 143,195.325 143,194.455 C143,193.655 143.675,193 144.5,193 C145.325,193 146,192.325 146,191.5 C146,190.667 146.889,190 148,190 C149.333,190 150,189.333 150,188 C150,186.381 150.667,186 153.5,186 C156.333,186 157,185.619 157,184 C157,182.667 157.667,182 159,182 C160.111,182 161,181.333 161,180.5 C161,179.675 161.717,179 162.594,179 C163.47,179 164.423,178.1 164.71,177 C164.998,175.9 165.856,175 166.617,175 C167.377,175 168,174.325 168,173.5 C168,172.675 168.717,172 169.594,172 C170.47,172 171.423,171.1 171.71,170 C172.074,168.608 173.074,168 175,168 C176.926,168 177.926,167.392 178.29,166 C178.577,164.9 179.53,164 180.406,164 C181.333,164 182,164.837 182,166 C182,167.1 181.375,168 180.611,168 C179.816,168 178.942,169.495 178.566,171.5 C178.173,173.595 177.325,175 176.455,175 C175.655,175 175,175.9 175,177 C175,178.111 174.333,179 173.5,179 C172.675,179 172,179.675 172,180.5 C172,181.333 171.111,182 170,182 C168.667,182 168,182.667 168,184 C168,185.333 167.333,186 166,186 C164.9,186 164,186.639 164,187.421 C164,188.202 162.65,189.138 161,189.5 C159.35,189.862 158,190.798 158,191.579 C158,192.361 157.1,193 156,193 C154.667,193 154,193.667 154,195 C154,196.333 153.333,197 152,197 C150.889,197 150,197.667 150,198.5 C150,199.325 149.283,200 148.406,200 C147.53,200 146.577,200.9 146.29,202 C146.002,203.1 145.144,204 144.383,204 C143.623,204 143,204.623 143,205.383 C143,206.144 142.1,207.002 141,207.29 C139.9,207.577 139,208.53 139,209.406 C139,210.561 138.036,211 135.5,211 C132.667,211 132,211.381 132,213 C132,214.619 131.333,215 128.5,215 C126.152,215 125,215.465 125,216.412 C125,217.28 123.459,218.085 121,218.5 C118.541,218.915 117,219.72 117,220.588 C117,221.365 116.325,222 115.5,222 C114.667,222 114,221.111 114,220 C114,218.667 113.333,218 112,218 C110.889,218 110,217.333 110,216.5 C110,215.675 109.325,215 108.5,215 C107.588,215 107,214.069 107,212.625 C107,208.12 105.746,204 104.375,204 C103.292,204 103,201.667 103,193 L103,182 L82,182 L82,177.117 C82,171.563 82.796,171.038 91.25,171.014 C94.799,171.003 96,170.621 96,169.5 C96,168.667 96.889,168 98,168 C99.333,168 100,167.333 100,166 C100,164.889 100.667,164 101.5,164 C102.652,164 103,162.722 103,158.5 C103,154.278 103.348,153 104.5,153 C105.325,153 106,152.325 106,151.5 C106,150.667 106.889,150 108,150 C109.333,150 110,149.333 110,148 Z M197,90.45 C197,89.653 197.9,89 199,89 C200.111,89 201,89.667 201,90.5 C201,91.325 201.675,92 202.5,92 C203.779,92 204,94.722 204,110.5 C204,125.817 204.244,129 205.42,129 C206.429,129 207.04,130.862 207.528,135.419 C208.139,141.123 208.487,141.905 210.654,142.449 C213.496,143.163 215,142.468 215,140.441 C215,139.461 216.119,139 218.5,139 C221.333,139 222,139.381 222,141 C222,142.111 221.333,143 220.5,143 C219.675,143 219,143.717 219,144.594 C219,145.47 218.1,146.423 217,146.71 C215.9,146.998 215,147.856 215,148.617 C215,149.671 213.219,150 207.5,150 L200,150 L200,146.5 C200,144.212 199.528,143 198.637,143 C197.59,143 197.16,140.215 196.779,130.964 C196.371,121.07 195.974,118.702 194.548,117.659 C193.04,116.556 192.858,114.911 193.156,105.123 C193.445,95.658 193.78,93.7 195.25,92.878 C196.213,92.341 197,91.248 197,90.45 Z M114,155.5 C114,156.325 113.381,157 112.625,157 C111.254,157 110,161.12 110,165.625 C110,167.333 110.561,168 112,168 C113.1,168 114,167.381 114,166.625 C114,165.254 118.12,164 122.625,164 C124.069,164 125,163.412 125,162.5 C125,161.452 126.056,161 128.5,161 C131.333,161 132,160.619 132,159 C132,157.667 131.333,157 130,157 C128.889,157 128,156.333 128,155.5 C128,154.31 126.556,154 121,154 C115.444,154 114,154.31 114,155.5 Z"/>
</svg>

