<svg xmlns="http://www.w3.org/2000/svg" width="300" height="300" viewBox="0 0 300 300" version="1.1">
  <defs/>
  <path d="M175.29,22 C175.726,20.33 176.654,20 180.906,20 L186,20 L186,24 C186,27.905 185.917,28 182.5,28 C180.056,28 179,28.452 179,29.5 C179,30.333 178.111,31 177,31 C175.667,31 175,31.667 175,33 C175,34.111 174.333,35 173.5,35 C172.675,35 172,35.675 172,36.5 C172,37.333 171.111,38 170,38 C168.667,38 168,38.667 168,40 C168,41.111 167.333,42 166.5,42 C165.675,42 165,42.717 165,43.594 C165,44.47 164.1,45.423 163,45.71 C161.497,46.103 161,47.074 161,49.617 C161,52.333 160.606,53 159,53 C157.889,53 157,53.667 157,54.5 C157,55.325 156.325,56 155.5,56 C154.667,56 154,56.889 154,58 C154,59.333 153.333,60 152,60 C150.667,60 150,60.667 150,62 C150,63.1 149.345,64 148.545,64 C147.675,64 146.827,65.405 146.434,67.5 C146.073,69.425 145.203,71 144.5,71 C143.797,71 142.927,72.575 142.566,74.5 C142.173,76.595 141.325,78 140.455,78 C139.655,78 139,78.623 139,79.383 C139,80.144 138.1,81.002 137,81.29 C135.9,81.577 135,82.53 135,83.406 C135,84.51 134.078,85 132,85 C129.667,85 129,85.444 129,87 C129,88.333 128.333,89 127,89 C125.667,89 125,89.667 125,91 C125,92.111 124.333,93 123.5,93 C122.675,93 122,93.675 122,94.5 C122,95.714 123.598,96 130.383,96 C137.926,96 138.819,95.799 139.29,94 C139.776,92.139 140.654,92 151.906,92 C161.99,92 164,91.751 164,90.5 C164,89.294 165.542,89 171.875,89 C181.568,89 186,88.176 186,86.375 C186,85.272 188.864,85 200.5,85 C212.722,85 215,85.236 215,86.5 C215,87.325 215.675,88 216.5,88 C217.583,88 218,89.111 218,92 C218,94.889 217.583,96 216.5,96 C215.488,96 215,97.012 215,99.109 C215,102.295 211.6,106.95 209.25,106.983 C208.563,106.992 208,107.675 208,108.5 C208,109.333 207.111,110 206,110 C204.667,110 204,110.667 204,112 C204,113.111 203.333,114 202.5,114 C201.452,114 201,112.944 201,110.5 C201,108.056 201.452,107 202.5,107 C203.333,107 204,106.111 204,105 C204,103.889 204.667,103 205.5,103 C206.325,103 207.006,102.438 207.014,101.75 C207.021,101.063 207.299,99.487 207.63,98.25 L208.233,96 L190.117,96 C175.412,96 172,96.259 172,97.375 C172,99.176 167.568,100 157.875,100 C151.542,100 150,100.294 150,101.5 C150,102.725 148.302,103.002 140.75,103.009 C135.662,103.013 129.137,103.301 126.25,103.648 C121.244,104.249 121,104.416 121,107.233 C121,109.346 121.569,110.336 123,110.71 C124.1,110.998 125,111.856 125,112.617 C125,113.377 125.675,114 126.5,114 C127.548,114 128,115.056 128,117.5 C128,120.333 127.619,121 126,121 C124.9,121 124,120.345 124,119.545 C124,118.675 122.595,117.827 120.5,117.434 C118.495,117.058 117,116.184 117,115.389 C117,114.625 116.325,114 115.5,114 C114.31,114 114,115.444 114,121 C114,126.556 113.69,128 112.5,128 C111.423,128 111,129.101 111,131.905 L111,135.81 L116.895,135.276 C124.67,134.571 132,135.68 132,137.561 C132,138.353 132.9,139 134,139 C135.111,139 136,139.667 136,140.5 C136,141.325 136.675,142 137.5,142 C138.333,142 139,142.889 139,144 C139,145.333 139.667,146 141,146 C142.333,146 143,146.667 143,148 C143,149.333 143.667,150 145,150 C146.111,150 147,150.667 147,151.5 C147,152.325 147.675,153 148.5,153 C149.538,153 150,154.043 150,156.383 C150,158.926 150.497,159.897 152,160.29 C153.532,160.69 154,161.654 154,164.406 L154,168 L159.5,168 C163.585,168 165,167.635 165,166.579 C165,165.798 166.304,164.872 167.898,164.522 C171.179,163.802 171.966,161.921 171.986,154.75 C171.996,151.379 172.402,150 173.383,150 C174.144,150 175.002,149.1 175.29,148 C175.726,146.33 176.654,146 180.906,146 L186,146 L186,150 C186,152.847 185.578,154 184.534,154 C183.531,154 182.86,155.576 182.406,159 C181.975,162.246 181.261,164 180.371,164 C179.293,164 179,166.348 179,175 C179,183.699 179.289,186 180.383,186 C181.144,186 182.002,186.9 182.29,188 C183.033,190.841 188.967,190.841 189.71,188 C190.103,186.497 191.074,186 193.617,186 C196.817,186 197,186.19 197,189.5 C197,192.333 196.619,193 195,193 C193.9,193 193,193.623 193,194.383 C193,196.241 189.848,196.97 181.75,196.986 C175.662,196.999 175,196.804 175,195 C175,193.889 174.333,193 173.5,193 C171.848,193 171.543,190.179 171.96,178.75 L172.207,172 L166.603,172 C162.499,172 161,172.37 161,173.383 C161,174.144 160.1,175.002 159,175.29 C157.108,175.785 157,176.654 157,191.406 C157,204.601 156.769,207 155.5,207 C154.324,207 154,208.375 154,213.375 C154,221.634 153.092,226 151.375,226 C150.339,226 150,227.727 150,233 C150,238.556 149.69,240 148.5,240 C147.477,240 146.996,241.034 146.986,243.25 C146.96,249.514 146.077,251 142.383,251 L139,251 L139,243.906 C139,237.654 139.237,236.751 141,236.29 C142.811,235.816 143,234.926 143,226.883 C143,219.98 143.309,218 144.385,218 C145.483,218 145.922,214.483 146.496,201.084 C146.895,191.78 146.92,183.68 146.552,183.084 C145.449,181.299 142.85,181.857 142.29,184 C141.857,185.656 140.926,186 136.883,186 C133.407,186 132,186.396 132,187.375 C132,188.746 127.88,190 123.375,190 C121.931,190 121,190.588 121,191.5 C121,192.548 119.944,193 117.5,193 C114.667,193 114,193.381 114,195 C114,196.619 113.333,197 110.5,197 C108.187,197 107,197.469 107,198.383 C107,199.144 106.1,200.002 105,200.29 C103.468,200.69 103,201.654 103,204.406 C103,206.799 103.462,208 104.383,208 C106.203,208 106.97,211.131 106.986,218.633 C106.998,223.932 106.728,224.838 105,225.29 C103.803,225.603 103,226.654 103,227.906 C103,229.101 102.356,230 101.5,230 C100.675,230 100,230.675 100,231.5 C100,232.583 98.889,233 96,233 L92,233 L92,223.656 C92,206.489 93.167,193 94.652,193 C95.601,193 96,191.535 96,188.045 C96,183.175 95.941,183.08 92.5,182.434 C89.08,181.792 89,181.668 89,177 C89,172.332 89.08,172.208 92.5,171.566 C95.698,170.966 96,170.611 96,167.455 C96,165.175 96.472,164 97.388,164 C98.47,164 98.934,160.925 99.5,150 C100.066,139.075 100.53,136 101.612,136 C102.678,136 103,134.175 103,128.125 C103,123.794 103.281,118.844 103.625,117.125 C104.244,114.029 104.212,114 100.125,114 C97.182,114 96,114.417 96,115.455 C96,116.325 94.595,117.173 92.5,117.566 C90.495,117.942 89,118.816 89,119.611 C89,120.628 87.526,121 83.5,121 C78.667,121 78,121.242 78,123 C78,124.873 77.333,125 67.5,125 C57.667,125 57,124.873 57,123 C57,121.889 57.667,121 58.5,121 C59.548,121 60,119.944 60,117.5 C60,114.167 60.167,114 63.5,114 C65.932,114 67,113.546 67,112.512 C67,111.549 68.412,110.798 71,110.384 C73.413,109.998 75,109.2 75,108.372 C75,107.348 76.672,107 81.594,107 C87.346,107 88.254,106.745 88.71,105 C89.152,103.312 90.074,103 94.617,103 C98.735,103 100,102.648 100,101.5 C100,100.534 100.978,99.995 102.75,99.986 C107.032,99.965 110,98.899 110,97.383 C110,96.623 110.9,96 112,96 C113.333,96 114,95.333 114,94 C114,92.889 114.667,92 115.5,92 C116.325,92 117,91.325 117,90.5 C117,89.667 117.889,89 119,89 C120.333,89 121,88.333 121,87 C121,85.9 121.623,85 122.383,85 C123.885,85 124.965,82.04 124.986,77.861 C124.998,75.634 124.455,75.12 121.5,74.566 C119.405,74.173 118,73.325 118,72.455 C118,71.655 117.1,71 116,71 C114.667,71 114,70.333 114,69 C114,67.889 113.333,67 112.5,67 C111.675,67 111,66.283 111,65.406 C111,64.53 110.1,63.577 109,63.29 C107.9,63.002 107,62.144 107,61.383 C107,60.623 106.345,60 105.545,60 C104.016,60 102.542,54.637 103.167,51.35 C103.447,49.88 104.594,49.438 108.759,49.198 C113.476,48.926 114,49.101 114,50.948 C114,52.333 114.65,53 116,53 C117.619,53 118,53.667 118,56.5 C118,58.813 118.469,60 119.383,60 C120.144,60 121.002,60.9 121.29,62 C121.577,63.1 122.53,64 123.406,64 C124.283,64 125,64.675 125,65.5 C125,66.325 125.623,67 126.383,67 C127.144,67 128.002,67.9 128.29,69 C128.959,71.561 135,71.927 135,69.406 C135,68.53 135.9,67.577 137,67.29 C138.107,67 139,65.926 139,64.883 C139,63.667 139.708,63 141,63 C142.556,63 143,62.333 143,60 C143,57.922 143.49,57 144.594,57 C145.47,57 146.423,56.1 146.71,55 C146.998,53.9 147.856,53 148.617,53 C149.377,53 150,52.1 150,51 C150,49.9 150.655,49 151.455,49 C152.325,49 153.173,47.595 153.566,45.5 C153.942,43.495 154.816,42 155.611,42 C156.375,42 157,41.283 157,40.406 C157,39.53 157.9,38.577 159,38.29 C160.1,38.002 161,37.144 161,36.383 C161,35.623 161.675,35 162.5,35 C163.333,35 164,34.111 164,33 C164,31.667 164.667,31 166,31 C167.333,31 168,30.333 168,29 C168,27.889 168.667,27 169.5,27 C170.325,27 171,26.325 171,25.5 C171,24.675 171.848,24 172.883,24 C173.926,24 175,23.107 175.29,22 Z M222,119.5 C222,118.452 223.056,118 225.5,118 L229,118 L229,130.875 C229,145.404 229.631,150 231.625,150 C232.718,150 233,152.561 233,162.5 C233,172.944 233.247,175 234.5,175 C235.622,175 236.002,176.197 236.006,179.75 C236.02,190.809 237.287,201 238.648,201 C239.732,201 240,204.464 240,218.5 C240,232.536 240.268,236 241.352,236 C243.166,236 244.121,248.637 243.312,261.924 C242.856,269.409 242.351,272 241.349,272 C240.483,272 240,273.21 240,275.375 C240,278.355 239.634,278.823 236.875,279.375 C229.615,280.827 215,279.481 215,277.361 C215,276.612 214.1,276 213,276 C211.9,276 211,275.345 211,274.545 C211,273.675 209.595,272.827 207.5,272.434 C205.495,272.058 204,271.184 204,270.389 C204,269.435 202.745,269 199.99,269 C197.218,269 195.452,268.383 194.268,267 C193.326,265.9 191.756,265 190.778,265 C189.8,265 189,264.325 189,263.5 C189,262.49 187.99,262 185.906,262 C183.654,262 182.671,261.456 182.29,260 C181.857,258.344 180.926,258 176.883,258 C173.344,258 172,257.611 172,256.588 C172,255.72 170.459,254.915 168,254.5 C165.541,254.085 164,253.28 164,252.412 C164,251.384 162.639,251 159,251 C155.674,251 153.995,250.582 153.986,249.75 C153.979,249.063 153.701,247.488 153.37,246.25 C152.797,244.112 153.047,244 158.383,244 C162.709,244 164,244.345 164,245.5 C164,246.538 165.043,247 167.383,247 C169.926,247 170.897,247.497 171.29,249 C171.726,250.67 172.654,251 176.906,251 C180.586,251 182,251.386 182,252.389 C182,253.184 183.495,254.058 185.5,254.434 C187.595,254.827 189,255.675 189,256.545 C189,257.576 190.166,258 193,258 C195.834,258 197,258.424 197,259.455 C197,260.325 198.405,261.173 200.5,261.566 C202.505,261.942 204,262.816 204,263.611 C204,264.509 205.15,265.005 207.25,265.014 C212,265.034 215,266.041 215,267.617 C215,268.61 216.41,269 220,269 C223.778,269 225,269.367 225,270.5 C225,271.433 225.944,272 227.5,272 C229.056,272 230,271.433 230,270.5 C230,269.675 230.717,269 231.592,269 C233.019,269 233.149,266.041 232.842,240.463 C232.554,216.43 232.263,211.78 231,211.001 C229.869,210.303 229.415,207.607 229.156,200.038 C228.889,192.242 228.498,190 227.406,190 C226.304,190 226,188.087 226,181.147 C226,168.115 224.986,160 223.358,160 C222.321,160 222,157.992 222,151.5 C222,144.998 221.68,143 220.639,143 C219.121,143 218.023,136.218 218.009,126.75 C218.001,121.664 218.231,121 220,121 C221.111,121 222,120.333 222,119.5 Z M115.75,146.689 C113.616,147.247 113.408,150 115.5,150 C116.548,150 117,151.056 117,153.5 C117,155.944 116.548,157 115.5,157 C114.675,157 114,157.675 114,158.5 C114,159.325 113.377,160 112.617,160 C111.101,160 110.035,157.032 110.014,152.75 C110.005,150.978 109.466,150 108.5,150 C107.278,150 107,151.667 107,159 L107,168 L111.883,168 C115.926,168 116.857,167.656 117.29,166 C117.744,164.263 118.648,164.002 124.156,164.014 C131.861,164.03 135,164.784 135,166.617 C135,167.377 135.9,168 137,168 C138.619,168 139,168.667 139,171.5 C139,174.833 139.167,175 142.5,175 L146,175 L146,170 C146,166.222 145.633,165 144.5,165 C143.667,165 143,164.111 143,163 C143,161.667 142.333,161 141,161 C139.393,161 139,160.333 139,157.611 C139,154.53 138.682,154.163 135.5,153.566 C133.405,153.173 132,152.325 132,151.455 C132,150.459 130.896,150 128.5,150 C125.667,150 125,149.619 125,148 C125,146.335 124.372,146.019 121.25,146.116 C119.188,146.18 116.713,146.438 115.75,146.689 Z M112.75,175.689 C111.787,175.941 111,176.789 111,177.573 C111,178.528 109.88,179 107.617,179 C103.998,179 103.042,180.505 103.014,186.25 C103.003,188.338 103.482,189 105,189 C106.111,189 107,188.333 107,187.5 C107,186.348 108.278,186 112.5,186 C116.516,186 118,185.627 118,184.617 C118,183.101 120.968,182.035 125.25,182.014 C127.022,182.005 128,181.466 128,180.5 C128,179.667 128.889,179 130,179 C131.333,179 132,178.333 132,177 C132,175.144 131.372,175.008 123.25,175.116 C118.438,175.18 113.713,175.438 112.75,175.689 Z"/>
</svg>

