<svg xmlns="http://www.w3.org/2000/svg" width="300" height="300" viewBox="0 0 300 300" version="1.1">
  <defs/>
  <path d="M175,71.5 C175,70.667 175.889,70 177,70 C178.111,70 179,70.667 179,71.5 C179,72.325 179.675,73 180.5,73 C181.333,73 182,73.889 182,75 C182,76.111 181.333,77 180.5,77 C179.452,77 179,78.056 179,80.5 C179,83.333 178.619,84 177,84 C175.667,84 175,84.667 175,86 C175,87.111 174.333,88 173.5,88 C172.49,88 172,89.01 172,91.094 C172,93.346 171.456,94.329 170,94.71 C168.893,95 168,96.074 168,97.117 C168,98.152 167.383,99 166.629,99 C165.739,99 165.025,100.754 164.594,104 C164.14,107.424 163.469,109 162.466,109 C161.66,109 161,109.9 161,111 C161,112.1 160.345,113 159.545,113 C158.675,113 157.827,114.405 157.434,116.5 C157.058,118.505 156.184,120 155.389,120 C154.625,120 154,120.717 154,121.594 C154,122.47 153.1,123.423 152,123.71 C150.9,123.998 150,124.803 150,125.5 C150,126.197 149.1,127.002 148,127.29 C146.9,127.577 146,128.53 146,129.406 C146,130.283 145.375,131 144.611,131 C143.816,131 142.942,132.495 142.566,134.5 C142.173,136.595 141.325,138 140.455,138 C139.655,138 139,138.675 139,139.5 C139,140.325 138.325,141 137.5,141 C136.667,141 136,141.889 136,143 C136,144.333 135.333,145 134,145 C132.667,145 132,145.667 132,147 C132,148.333 131.333,149 130,149 C128.667,149 128,149.667 128,151 C128,152.111 127.333,153 126.5,153 C125.675,153 125,153.675 125,154.5 C125,155.325 124.345,156 123.545,156 C122.675,156 121.827,157.405 121.434,159.5 C121.058,161.505 120.184,163 119.389,163 C118.625,163 118,163.9 118,165 C118,166.333 117.333,167 116,167 C114.381,167 114,167.667 114,170.5 C114,173.833 114.167,174 117.5,174 C120.036,174 121,174.439 121,175.594 C121,176.47 121.9,177.423 123,177.71 C124.1,177.998 125,178.856 125,179.617 C125,180.531 126.187,181 128.5,181 C131.333,181 132,181.381 132,183 C132,184.333 132.667,185 134,185 C135.111,185 136,185.667 136,186.5 C136,187.466 136.978,188.005 138.75,188.014 C143.032,188.035 146,189.101 146,190.617 C146,191.377 146.9,192 148,192 C149.1,192 150,192.635 150,193.412 C150,194.28 151.541,195.085 154,195.5 C156.459,195.915 158,196.72 158,197.588 C158,198.616 159.361,199 163,199 C167.333,199 168,199.267 168,201 C168,202.619 168.667,203 171.5,203 C173.944,203 175,203.452 175,204.5 C175,205.555 176.066,206 178.594,206 C181.346,206 182.31,206.468 182.71,208 C183.152,209.688 184.074,210 188.617,210 C192.601,210 194,210.369 194,211.42 C194,212.431 195.877,213.042 200.5,213.537 C205.032,214.022 207,214.652 207,215.616 C207,216.623 208.466,217 212.383,217 C216.926,217 217.848,217.312 218.29,219 C218.726,220.67 219.654,221 223.906,221 C227.767,221 229,221.363 229,222.5 C229,223.555 230.066,224 232.594,224 C235.346,224 236.31,224.468 236.71,226 C236.998,227.1 237.856,228 238.617,228 C239.377,228 240,228.9 240,230 C240,232.225 238.846,232.385 230.25,231.352 C226.798,230.937 225,230.255 225,229.361 C225,228.32 223.002,228 216.5,228 C209.955,228 208,227.684 208,226.625 C208,225.254 203.88,224 199.375,224 C197.931,224 197,223.412 197,222.5 C197,221.348 195.722,221 191.5,221 C187.484,221 186,220.627 186,219.617 C186,218.101 183.032,217.035 178.75,217.014 C177.093,217.005 176,216.455 176,215.628 C176,214.8 174.413,214.002 172,213.616 C169.412,213.202 168,212.451 168,211.488 C168,210.454 166.932,210 164.5,210 C162.152,210 161,209.535 161,208.588 C161,207.72 159.459,206.915 157,206.5 C154.541,206.085 153,205.28 153,204.412 C153,203.542 151.945,202.995 150.25,202.986 C145.968,202.965 143,201.899 143,200.383 C143,199.623 142.1,199 141,199 C139.9,199 139,198.34 139,197.534 C139,196.531 137.424,195.86 134,195.406 C130.754,194.975 129,194.261 129,193.371 C129,192.48 127.816,192 125.617,192 C123.074,192 122.103,191.503 121.71,190 C121.397,188.803 120.346,188 119.094,188 C117.899,188 117,187.356 117,186.5 C117,185.452 115.944,185 113.5,185 C111.177,185 110,184.532 110,183.608 C110,182.105 105.516,180.563 103.954,181.528 C103.429,181.853 103,183.441 103,185.059 C103,187.007 102.493,188 101.5,188 C100.667,188 100,188.889 100,190 C100,191.333 99.333,192 98,192 C96.667,192 96,192.667 96,194 C96,195.111 95.333,196 94.5,196 C93.675,196 93,196.717 93,197.594 C93,198.47 92.1,199.423 91,199.71 C89.583,200.081 89,201.074 89,203.117 C89,205.333 88.538,206 87,206 C85.667,206 85,206.667 85,208 C85,209.111 84.333,210 83.5,210 C82.667,210 82,210.889 82,212 C82,213.333 81.333,214 80,214 C78.667,214 78,214.667 78,216 C78,217.1 77.361,218 76.579,218 C75.798,218 74.862,219.35 74.5,221 C74.138,222.65 73.202,224 72.421,224 C71.639,224 71,224.9 71,226 C71,227.758 70.333,228 65.5,228 L60,228 L60,224.5 C60,222.18 60.468,221 61.389,221 C62.184,221 63.058,219.505 63.434,217.5 C64.034,214.302 64.389,214 67.545,214 C70.333,214 71,213.614 71,212 C71,210.9 71.623,210 72.383,210 C73.144,210 74.002,209.1 74.29,208 C74.577,206.9 75.53,206 76.406,206 C77.333,206 78,205.163 78,204 C78,202.9 78.639,202 79.421,202 C80.202,202 81.138,200.65 81.5,199 C81.862,197.35 82.798,196 83.579,196 C84.361,196 85,195.1 85,194 C85,192.667 85.667,192 87,192 C88.333,192 89,191.333 89,190 C89,188.9 89.639,188 90.421,188 C91.202,188 92.138,186.65 92.5,185 C92.862,183.35 93.798,182 94.579,182 C95.361,182 96,181.152 96,180.117 C96,179.074 96.893,178 98,177.71 C101.483,176.799 100.439,174 96.617,174 C94.074,174 93.103,173.503 92.71,172 C92.329,170.544 91.346,170 89.094,170 C87.138,170 86,169.495 86,168.628 C86,167.8 84.413,167.002 82,166.616 C79.412,166.202 78,165.451 78,164.488 C78,163.312 76.531,163 71,163 C65.262,163 64,162.713 64,161.406 C64,160.53 63.1,159.577 62,159.29 C60.344,158.857 60,157.926 60,153.883 L60,149 L67.5,149 C73.5,149 75,149.3 75,150.5 C75,151.51 76.01,152 78.094,152 C80.346,152 81.329,152.544 81.71,154 C82.103,155.503 83.074,156 85.617,156 C87.837,156 89,156.477 89,157.389 C89,158.184 90.495,159.058 92.5,159.434 C94.595,159.827 96,160.675 96,161.545 C96,162.532 97.089,163 99.383,163 C101.926,163 102.897,163.497 103.29,165 C103.577,166.1 104.347,167 105,167 C105.653,167 106.423,166.1 106.71,165 C106.998,163.9 107.856,163 108.617,163 C109.377,163 110,162.325 110,161.5 C110,160.667 110.889,160 112,160 C113.619,160 114,159.333 114,156.5 C114,153.964 114.439,153 115.594,153 C116.47,153 117.423,152.1 117.71,151 C117.998,149.9 118.856,149 119.617,149 C120.377,149 121,148.1 121,147 C121,145.667 121.667,145 123,145 C124.333,145 125,144.333 125,143 C125,141.889 125.667,141 126.5,141 C127.325,141 128,140.325 128,139.5 C128,138.667 128.889,138 130,138 C131.333,138 132,137.333 132,136 C132,134.9 132.655,134 133.455,134 C134.325,134 135.173,132.595 135.566,130.5 C135.942,128.495 136.816,127 137.611,127 C138.375,127 139,126.283 139,125.406 C139,124.53 139.9,123.577 141,123.29 C142.1,123.002 143,122.144 143,121.383 C143,120.623 143.625,120 144.389,120 C145.184,120 146.058,118.505 146.434,116.5 C146.827,114.405 147.675,113 148.545,113 C149.345,113 150,112.1 150,111 C150,109.9 150.625,109 151.389,109 C152.184,109 153.058,107.505 153.434,105.5 C153.827,103.405 154.675,102 155.545,102 C156.576,102 157,100.834 157,98 C157,95.211 157.43,94 158.421,94 C159.202,94 160.138,92.65 160.5,91 C160.862,89.35 161.798,88 162.579,88 C163.536,88 164,86.857 164,84.5 C164,82.056 163.548,81 162.5,81 C161.675,81 161,81.675 161,82.5 C161,83.7 159.5,84 153.5,84 C146.667,84 146,84.178 146,86 C146,87.81 145.333,88 139,88 C133.444,88 132,88.31 132,89.5 C132,90.722 130.333,91 123,91 C116.004,91 114,91.308 114,92.383 C114,94.241 110.848,94.97 102.75,94.986 C97.676,94.997 96,95.343 96,96.384 C96,98.017 84.901,99.515 80.669,98.453 C78.433,97.892 78,97.233 78,94.392 C78,91.182 78.188,91 81.5,91 C83.851,91 85,90.535 85,89.585 C85,88.554 87.032,87.98 92.5,87.468 C97.878,86.964 100,86.374 100,85.383 C100,84.308 102.007,84 109,84 C115.924,84 118,83.686 118,82.639 C118,81.15 124.745,80.024 133.75,80.009 C137.549,80.002 139,79.618 139,78.616 C139,77.621 140.85,77.115 145.6,76.813 C150.462,76.503 152.451,75.945 153.15,74.696 C153.948,73.27 155.763,73 164.55,73 C173.172,73 175,72.738 175,71.5 Z"/>
</svg>

