<svg xmlns="http://www.w3.org/2000/svg" width="300" height="300" viewBox="0 0 300 300" version="1.1">
  <defs/>
  <path d="M116,151.5 C116,150.348 117.278,150 121.5,150 C125.722,150 127,150.348 127,151.5 C127,152.333 127.889,153 129,153 C130.752,153 131,153.667 131,158.375 C131,163.587 130.906,163.769 127.897,164.371 C124.38,165.074 123,164.53 123,162.441 C123,161.519 121.96,161 120.111,161 C117.602,161 117.136,161.459 116.566,164.5 L115.909,168 L107.455,168 C100.385,168 99,168.261 99,169.594 C99,170.47 98.1,171.423 97,171.71 C95.9,171.998 95,172.856 95,173.617 C95,174.377 94.1,175 93,175 C91.667,175 91,175.667 91,177 C91,178.111 90.333,179 89.5,179 C88.452,179 88,180.056 88,182.5 C88,185.333 87.619,186 86,186 C84.381,186 84,186.667 84,189.5 C84,191.82 83.532,193 82.611,193 C81.816,193 80.942,194.495 80.566,196.5 C80.173,198.595 79.325,200 78.455,200 C77.655,200 77,200.9 77,202 C77,203.619 77.667,204 80.5,204 C83.333,204 84,203.619 84,202 C84,200.381 84.667,200 87.5,200 C89.944,200 91,199.548 91,198.5 C91,197.477 92.034,196.996 94.25,196.986 C99,196.966 102,195.959 102,194.383 C102,193.469 103.187,193 105.5,193 C107.944,193 109,192.548 109,191.5 C109,190.588 109.931,190 111.375,190 C115.88,190 120,188.746 120,187.375 C120,186.375 121.5,186 125.5,186 C130.333,186 131,186.242 131,188 C131,189.1 131.623,190 132.383,190 C134.409,190 134.972,193.254 134.978,205 C134.984,218.903 134.1,226 132.361,226 C131.343,226 131,227.763 131,233 C131,239.333 130.81,240 129,240 C127.333,240 127,240.667 127,244 C127,246.889 126.583,248 125.5,248 C124.367,248 124,249.222 124,253 C124,257.333 123.733,258 122,258 C120.667,258 120,258.667 120,260 C120,261.1 119.345,262 118.545,262 C117.675,262 116.827,263.405 116.434,265.5 C115.837,268.682 115.47,269 112.389,269 C110.185,269 109,269.479 109,270.371 C109,271.298 107.135,271.953 103.238,272.394 C96.382,273.169 91,272.282 91,270.375 C91,269.619 90.325,269 89.5,269 C88.675,269 88,268.283 88,267.406 C88,266.53 87.1,265.577 86,265.29 C84.189,264.816 84,263.926 84,255.883 C84,248.654 84.279,247 85.5,247 C86.325,247 87,246.325 87,245.5 C87,244.667 87.889,244 89,244 C90.619,244 91,244.667 91,247.5 C91,249.944 90.548,251 89.5,251 C88.452,251 88,252.056 88,254.5 C88,256.944 88.452,258 89.5,258 C90.333,258 91,258.889 91,260 C91,261.333 91.667,262 93,262 C94.111,262 95,262.667 95,263.5 C95,264.548 96.056,265 98.5,265 C100.944,265 102,264.548 102,263.5 C102,262.452 103.056,262 105.5,262 C108.333,262 109,261.619 109,260 C109,258.667 109.667,258 111,258 C112.619,258 113,257.333 113,254.5 C113,252.18 113.468,251 114.389,251 C115.184,251 116.058,249.505 116.434,247.5 C116.827,245.405 117.675,244 118.545,244 C119.642,244 120,242.646 120,238.5 C120,234.425 120.367,233 121.415,233 C122.446,233 123.02,230.968 123.532,225.5 C124.036,220.122 124.626,218 125.617,218 C126.706,218 127,215.77 127,207.5 L127,197 L123.5,197 C121.197,197 120,197.47 120,198.375 C120,199.746 115.88,201 111.375,201 C109.931,201 109,201.588 109,202.5 C109,203.548 107.944,204 105.5,204 C102.667,204 102,204.381 102,206 C102,207.667 101.333,208 98,208 C95.111,208 94,208.417 94,209.5 C94,210.633 92.778,211 89,211 C84.667,211 84,211.267 84,213 C84,214.619 83.333,215 80.5,215 C78.2,215 77,215.471 77,216.373 C77,217.829 68.35,219.166 64.851,218.251 C62.471,217.628 62.15,211 64.5,211 C65.629,211 66,209.791 66,206.117 C66,202.074 66.344,201.143 68,200.71 C69.197,200.397 70,199.346 70,198.094 C70,196.899 70.644,196 71.5,196 C72.51,196 73,194.99 73,192.906 C73,190.654 73.544,189.671 75,189.29 C76.503,188.897 77,187.926 77,185.383 C77,183.043 77.462,182 78.5,182 C79.51,182 80,180.99 80,178.906 C80,176.654 80.544,175.671 82,175.29 C85.456,174.386 84.368,172 80.5,172 C78.18,172 77,172.468 77,173.389 C77,174.184 75.505,175.058 73.5,175.434 C71.405,175.827 70,176.675 70,177.545 C70,178.576 68.834,179 66,179 C63.261,179 62,179.436 62,180.384 C62,181.381 60.117,181.891 55.25,182.21 C45.959,182.82 45,182.462 45,178.383 C45,176.043 45.462,175 46.5,175 C47.325,175 48,174.381 48,173.625 C48,172.096 52.228,171 58.125,171 C60.903,171 62,170.575 62,169.5 C62,168.348 63.278,168 67.5,168 C72.333,168 73,167.758 73,166 C73,164.242 73.667,164 78.5,164 C82.722,164 84,163.652 84,162.5 C84,161.416 85.112,161 88.01,161 C90.782,161 92.548,160.383 93.732,159 C95.001,157.518 96.682,157 100.222,157 C103.609,157 105,156.6 105,155.625 C105,154.254 109.12,153 113.625,153 C115.069,153 116,152.412 116,151.5 Z M93.25,27.685 C94.487,27.436 96.4,27.398 97.5,27.602 C98.6,27.806 100.063,27.979 100.75,27.986 C101.656,27.996 102,30.474 102,37 C102,44.013 101.693,46 100.611,46 C99.816,46 98.942,47.495 98.566,49.5 C98.173,51.595 97.325,53 96.455,53 C95.655,53 95,53.675 95,54.5 C95,55.633 96.222,56 100,56 C103.778,56 105,55.633 105,54.5 C105,53.359 106.256,52.997 110.25,52.986 C117.034,52.969 120,52.137 120,50.253 C120,48.138 128.938,49.138 130.201,51.394 C130.695,52.277 131.752,53 132.55,53 C133.541,53 134,54.109 134,56.5 L134,60 L121.5,60 C109.667,60 109,60.107 109,62 C109,63.733 108.333,64 104,64 C100.222,64 99,64.367 99,65.5 C99,66.333 98.111,67 97,67 C95.667,67 95,67.667 95,69 C95,70.333 94.333,71 93,71 C91.667,71 91,71.667 91,73 C91,74.111 90.333,75 89.5,75 C88.675,75 88,75.675 88,76.5 C88,77.333 87.111,78 86,78 C84.381,78 84,78.667 84,81.5 C84,83.944 83.548,85 82.5,85 C81.667,85 81,85.889 81,87 C81,88.111 81.667,89 82.5,89 C83.325,89 84,89.675 84,90.5 C84,91.325 84.717,92 85.594,92 C86.47,92 87.423,92.9 87.71,94 C87.998,95.1 88.856,96 89.617,96 C90.377,96 91,96.625 91,97.389 C91,98.184 92.495,99.058 94.5,99.434 C96.595,99.827 98,100.675 98,101.545 C98,102.532 99.089,103 101.383,103 C103.926,103 104.897,103.497 105.29,105 C105.751,106.763 106.654,107 112.906,107 C118.545,107 120,107.308 120,108.5 C120,109.711 121.589,110.003 128.25,110.014 C137.804,110.029 141,110.682 141,112.617 C141,113.377 141.848,114 142.883,114 C145.035,114 146.159,117.851 145.292,122.25 C144.829,124.6 144.259,125 141.375,125 C138.667,125 138,124.605 138,123 C138,121.381 137.333,121 134.5,121 C132.056,121 131,120.548 131,119.5 C131,118.255 129.069,118 119.625,118 C106.554,118 102,117.322 102,115.375 C102,114.479 100.821,114 98.617,114 C96.074,114 95.103,113.503 94.71,112 C94.329,110.544 93.346,110 91.094,110 C89.01,110 88,109.51 88,108.5 C88,107.667 87.111,107 86,107 C84.667,107 84,106.333 84,105 C84,103.667 83.333,103 82,103 C80.889,103 80,102.333 80,101.5 C80,100.505 79.005,100 77.045,100 C74.46,100 74.008,100.438 73.434,103.5 C73.058,105.505 72.184,107 71.389,107 C70.468,107 70,108.18 70,110.5 C70,113.333 69.619,114 68,114 C66.381,114 66,114.667 66,117.5 C66,119.82 65.532,121 64.611,121 C63.816,121 62.942,122.495 62.566,124.5 C62.173,126.595 61.325,128 60.455,128 C59.655,128 59,128.9 59,130 C59,131.333 58.333,132 57,132 C55.667,132 55,132.667 55,134 C55,135.111 54.333,136 53.5,136 C52.49,136 52,137.01 52,139.094 C52,141.346 51.456,142.329 50,142.71 C48.312,143.152 48,144.074 48,148.617 C48,152.735 47.648,154 46.5,154 C45.675,154 45,154.675 45,155.5 C45,156.652 43.722,157 39.5,157 C34.667,157 34,156.758 34,155 C34,153.889 34.667,153 35.5,153 C36.51,153 37,151.99 37,149.906 C37,147.654 37.544,146.671 39,146.29 C40.503,145.897 41,144.926 41,142.383 C41,140.043 41.462,139 42.5,139 C43.325,139 44,138.283 44,137.406 C44,136.53 44.9,135.577 46,135.29 C47.392,134.926 48,133.926 48,132 C48,130.074 48.608,129.074 50,128.71 C51.456,128.329 52,127.346 52,125.094 C52,123.01 52.49,122 53.5,122 C54.325,122 55,121.152 55,120.117 C55,119.074 55.893,118 57,117.71 C58.456,117.329 59,116.346 59,114.094 C59,112.01 59.49,111 60.5,111 C61.555,111 62,109.934 62,107.406 C62,104.654 62.468,103.69 64,103.29 C65.503,102.897 66,101.926 66,99.383 C66,96.667 66.394,96 68,96 C69.667,96 70,95.333 70,92 C70,89.111 70.417,88 71.5,88 C72.466,88 73.005,87.022 73.014,85.25 C73.035,80.968 74.101,78 75.617,78 C77.151,78 77.513,75.435 76.103,74.563 C74.53,73.591 69,75.196 69,76.625 C69,77.604 67.593,78 64.117,78 C60.074,78 59.143,78.344 58.71,80 C58.274,81.67 57.346,82 53.094,82 C48.101,82 48,82.059 48,85 C48,87.491 47.597,88 45.625,88 C44.319,88 41.844,88.281 40.125,88.625 C37.409,89.168 37,88.972 37,87.125 C37,85.903 36.363,85 35.5,85 C34.452,85 34,83.944 34,81.5 C34,78.309 34.255,78 36.883,78 C38.926,78 39.919,77.417 40.29,76 C40.69,74.468 41.654,74 44.406,74 C46.934,74 48,73.555 48,72.5 C48,71.348 49.278,71 53.5,71 C58.333,71 59,70.758 59,69 C59,67.19 59.667,67 66,67 C71.273,67 73,66.661 73,65.625 C73,64.254 77.12,63 81.625,63 C83.673,63 84,62.518 84,59.5 C84,57.197 84.47,56 85.375,56 C86.746,56 88,51.88 88,47.375 C88,45.931 88.588,45 89.5,45 C90.715,45 91,43.397 91,36.57 C91,28.628 91.13,28.113 93.25,27.685 Z M156,44 C156,42.237 156.667,42 161.625,42 L167.25,42 L166.606,45.221 C166.251,46.993 165.295,48.815 164.481,49.271 C163.666,49.726 163,50.752 163,51.55 C163,52.347 162.375,53 161.611,53 C160.816,53 159.942,54.495 159.566,56.5 C159.173,58.595 158.325,60 157.455,60 C156.424,60 156,61.166 156,64 C156,66.722 155.562,68 154.629,68 C153.739,68 153.025,69.754 152.594,73 C152.14,76.424 151.469,78 150.466,78 C149.356,78 149,79.335 149,83.5 C149,88.434 148.782,89 146.883,89 C145.176,89 144.883,89.435 145.37,91.25 C145.701,92.487 145.979,94.063 145.986,94.75 C145.994,95.438 146.675,96 147.5,96 C148.325,96 149,95.388 149,94.639 C149,93.286 155.574,92.028 162.75,92.009 C164.968,92.003 166,91.524 166,90.5 C166,89.417 167.111,89 170,89 C172.739,89 174,88.564 174,87.617 C174,85.897 177.077,85.031 183.25,85.014 C186.6,85.004 188,84.596 188,83.629 C188,82.696 189.915,82.042 194,81.58 C198.263,81.097 200,80.481 200,79.45 C200,78.377 201.298,78 205,78 C208.576,78 210,77.608 210,76.625 C210,74.94 214.342,74 222.125,74 L228,74 L228,81.5 C228,87.159 228.334,89 229.361,89 C231.326,89 231.983,96.41 231.978,118.5 C231.972,138.629 231.6,142 229.383,142 C228.289,142 228,144.301 228,153 C228,161.807 227.718,164 226.588,164 C225.72,164 224.915,165.541 224.5,168 C224.085,170.459 223.28,172 222.412,172 C221.635,172 221,172.623 221,173.383 C221,175.032 216.597,176.05 212.75,175.292 C209.897,174.73 208.86,172 211.5,172 C212.333,172 213,171.111 213,170 C213,168.667 213.667,168 215,168 C216.808,168 217,167.333 217,161.05 C217,155.47 217.345,153.906 218.75,153.121 C220.343,152.23 220.528,149.516 220.81,122.821 C220.981,106.695 220.841,91.588 220.499,89.25 L219.877,85 L214.939,85 C210.667,85 210,85.27 210,87 C210,88.81 209.333,89 203,89 C197.638,89 196,89.33 196,90.412 C196,91.28 194.459,92.085 192,92.5 C189.541,92.915 188,93.72 188,94.588 C188,95.67 186.362,96 181,96 C174.667,96 174,96.19 174,98 C174,99.758 173.333,100 168.5,100 C164.278,100 163,100.348 163,101.5 C163,102.652 161.722,103 157.5,103 C153.484,103 152,103.373 152,104.383 C152,106.318 148.804,106.971 139.25,106.986 L131,107 L131,103 C131,100.211 131.43,99 132.421,99 C133.202,99 134.138,97.65 134.5,96 C134.862,94.35 135.798,93 136.579,93 C137.57,93 138,91.789 138,89 C138,86.111 138.417,85 139.5,85 C140.412,85 141,84.069 141,82.625 C141,78.12 142.254,74 143.625,74 C144.612,74 145,72.562 145,68.906 C145,64.654 145.33,63.726 147,63.29 C148.503,62.897 149,61.926 149,59.383 C149,57.043 149.462,56 150.5,56 C151.466,56 152.005,55.022 152.014,53.25 C152.035,48.968 153.101,46 154.617,46 C155.377,46 156,45.1 156,44 Z M159,151.5 C159,150.417 160.111,150 163,150 C166.878,150 167,150.103 167,153.383 C167,155.926 166.503,156.897 165,157.29 C163.544,157.671 163,158.654 163,160.906 C163,162.831 162.492,164 161.655,164 C160.58,164 160.172,169.357 159.617,190.75 C158.874,219.389 159.382,229 161.638,229 C162.505,229 163.005,230.18 163.014,232.25 C163.034,237 164.041,240 165.617,240 C166.377,240 167,240.625 167,241.389 C167,242.184 168.495,243.058 170.5,243.434 C172.595,243.827 174,244.675 174,245.545 C174,246.642 175.354,247 179.5,247 C183.472,247 185,247.378 185,248.361 C185,250.241 190.723,250.741 214.5,250.938 C233.545,251.097 234.583,251.007 236.24,249.052 C237.197,247.924 238.835,247 239.879,247 C241.257,247 241.957,246.04 242.434,243.5 C242.827,241.405 243.675,240 244.545,240 C245.345,240 246,239.1 246,238 C246,236.889 246.667,236 247.5,236 C248.325,236 249,235.325 249,234.5 C249,233.667 249.889,233 251,233 C252.606,233 253,232.333 253,229.617 C253,227.074 253.497,226.103 255,225.71 C256.456,225.329 257,224.346 257,222.094 C257,220.01 257.49,219 258.5,219 C259.523,219 260.004,217.966 260.014,215.75 C260.039,209.762 260.971,208 264.117,208 C266.745,208 267,208.309 267,211.5 C267,213.944 266.548,215 265.5,215 C264.31,215 264,216.444 264,222 C264,227.306 263.664,229 262.611,229 C261.816,229 260.942,230.495 260.566,232.5 C260.173,234.595 259.325,236 258.455,236 C257.459,236 257,237.104 257,239.5 C257,242.036 256.561,243 255.406,243 C254.53,243 253.577,243.9 253.29,245 C253.002,246.1 252.144,247 251.383,247 C250.623,247 250,247.9 250,249 C250,250.333 249.333,251 248,251 C246.381,251 246,251.667 246,254.5 C246,257.333 245.619,258 244,258 C242.9,258 242,258.623 242,259.383 C242,261.375 238.771,261.971 227.901,261.986 C213.025,262.008 203,260.947 203,259.353 C203,258.27 199.705,258 186.5,258 C172.91,258 170,257.749 170,256.579 C170,255.798 168.65,254.862 167,254.5 C165.35,254.138 164,253.202 164,252.421 C164,251.639 163.1,251 162,251 C160.837,251 160,250.333 160,249.406 C160,248.53 159.1,247.577 158,247.29 C156.893,247 156,245.926 156,244.883 C156,243.848 155.377,243 154.617,243 C153.101,243 152.035,240.032 152.014,235.75 C152.005,233.978 151.466,233 150.5,233 C149.206,233 149,229.5 149,207.5 C149,185.5 149.206,182 150.5,182 C151.751,182 152,179.99 152,169.906 C152,158.654 152.139,157.776 154,157.29 C155.107,157 156,155.926 156,154.883 C156,153.848 156.675,153 157.5,153 C158.325,153 159,152.325 159,151.5 Z M196,126.5 C196,125.367 197.222,125 201,125 C204.778,125 206,125.367 206,126.5 C206,127.333 206.889,128 208,128 C209.892,128 210,128.667 210,140.383 C210,151.926 209.864,152.802 208,153.29 C206.544,153.671 206,154.654 206,156.906 C206,158.99 205.51,160 204.5,160 C203.675,160 203,160.848 203,161.883 C203,162.926 202.107,164 201,164.29 C199.552,164.668 199,165.654 199,167.861 C199,170.553 198.591,170.986 195.5,171.566 C193.495,171.942 192,172.816 192,173.611 C192,174.375 191.325,175 190.5,175 C189.667,175 189,175.889 189,177 C189,178.333 188.333,179 187,179 C185.9,179 185,179.623 185,180.383 C185,181.144 184.1,182.002 183,182.29 C181.9,182.577 181,183.53 181,184.406 C181,185.713 179.738,186 174,186 L167,186 L167,180.5 C167,176.278 167.348,175 168.5,175 C169.325,175 170,174.325 170,173.5 C170,172.667 170.889,172 172,172 C173.333,172 174,171.333 174,170 C174,168.325 174.667,168 178.107,168 C181.347,168 182.092,167.683 181.638,166.5 C181.228,165.43 181.734,165 183.406,165 C187.883,165 192,163.742 192,162.375 C192,161.619 192.625,161 193.389,161 C194.184,161 195.058,159.505 195.434,157.5 C195.827,155.405 196.675,154 197.545,154 C198.517,154 199.005,152.921 199.014,150.75 C199.034,146 200.041,143 201.617,143 C202.531,143 203,141.813 203,139.5 L203,136 L197.5,136 C193.278,136 192,136.348 192,137.5 C192,138.637 190.767,139 186.906,139 C182.654,139 181.726,139.33 181.29,141 C181.002,142.1 180.144,143 179.383,143 C178.469,143 178,144.187 178,146.5 C178,149.333 177.619,150 176,150 C174.9,150 174,149.375 174,148.611 C174,147.816 172.505,146.942 170.5,146.566 C167.302,145.966 167,145.611 167,142.455 C167,140.18 167.472,139 168.383,139 C169.144,139 170.002,138.1 170.29,137 C170.577,135.9 171.53,135 172.406,135 C173.283,135 174,134.325 174,133.5 C174,132.348 175.278,132 179.5,132 C184.333,132 185,131.758 185,130 C185,128.242 185.667,128 190.5,128 C194.722,128 196,127.652 196,126.5 Z M103.75,124.77 C109.762,124.426 122.183,125.002 122.939,125.661 C123.18,125.872 123.405,128.171 123.439,130.772 C123.499,135.412 123.438,135.506 120.174,135.819 C117.506,136.075 116.742,135.729 116.308,134.069 C115.827,132.23 115.002,132 108.883,132 C102.667,132 102,132.194 102,134 C102,135.667 101.333,136 98,136 C95.111,136 94,136.417 94,137.5 C94,138.51 92.99,139 90.906,139 C88.654,139 87.671,139.544 87.29,141 C86.717,143.191 81.661,143.879 80.456,141.929 C79.289,140.04 80.993,132 82.561,132 C83.353,132 84,131.377 84,130.617 C84,128.897 87.077,128.031 93.25,128.014 C96.727,128.004 98,127.611 98,126.55 C98,125.489 99.545,125.011 103.75,124.77 Z"/>
</svg>

