<svg xmlns="http://www.w3.org/2000/svg" width="300" height="300" viewBox="0 0 300 300" version="1.1">
  <defs/>
  <path d="M109,43.5 C109,42.667 109.889,42 111,42 C112.758,42 113,42.667 113,47.5 L113,53 L116.5,53 C119.333,53 120,52.619 120,51 C120,49.19 120.667,49 127,49 C132.556,49 134,48.69 134,47.5 C134,46.588 134.931,46 136.375,46 C140.88,46 145,44.746 145,43.375 C145,42.375 146.5,42 150.5,42 L156,42 L156,48.883 C156,54.926 155.756,55.831 154,56.29 C152.9,56.577 152,57.53 152,58.406 C152,59.283 151.325,60 150.5,60 C149.667,60 149,60.889 149,62 C149,63.333 148.333,64 147,64 C145.667,64 145,64.667 145,66 C145,67.1 144.373,68 143.607,68 C142.841,68 141.955,68.675 141.638,69.5 C141.302,70.377 139.803,71 138.031,71 C136.003,71 135,71.497 135,72.5 C135,73.548 133.944,74 131.5,74 C129.056,74 128,73.548 128,72.5 C128,71.675 128.675,71 129.5,71 C130.333,71 131,70.111 131,69 C131,67.667 131.667,67 133,67 C134.111,67 135,66.333 135,65.5 C135,64.675 135.675,64 136.5,64 C137.333,64 138,63.111 138,62 C138,60.667 138.667,60 140,60 C141.333,60 142,59.333 142,58 C142,56.889 142.667,56 143.5,56 C144.325,56 145,55.325 145,54.5 C145,53.675 144.325,53 143.5,53 C142.675,53 142,53.622 142,54.383 C142,55.374 139.878,55.964 134.5,56.468 C129.032,56.98 127,57.554 127,58.585 C127,59.612 125.66,60 122.117,60 C118.074,60 117.143,60.344 116.71,62 C116.423,63.1 115.47,64 114.594,64 C113.348,64 113,65.092 113,69 C113,72.778 113.367,74 114.5,74 C115.523,74 116.004,75.034 116.014,77.25 C116.044,84.539 116.526,85 124.117,85 C129.311,85 131,84.661 131,83.616 C131,82.656 132.934,82.026 137.331,81.555 C144.53,80.784 149,81.571 149,83.608 C149,84.607 150.378,85 153.883,85 C157.926,85 158.857,85.344 159.29,87 C159.726,88.67 160.654,89 164.906,89 C168.9,89 170,89.344 170,90.594 C170,91.47 170.9,92.423 172,92.71 C173.392,93.074 174,94.074 174,96 C174,97.926 173.392,98.926 172,99.29 C170.544,99.671 170,100.654 170,102.906 C170,104.99 169.51,106 168.5,106 C167.667,106 167,106.889 167,108 C167,109.163 166.333,110 165.406,110 C164.53,110 163.577,110.9 163.29,112 C163.002,113.1 162.144,114 161.383,114 C160.623,114 160,114.9 160,116 C160,117.333 159.333,118 158,118 C156.451,118 156,118.667 156,120.955 C156,123.54 155.562,123.992 152.5,124.566 C149.318,125.163 149,125.53 149,128.611 C149,131.333 148.607,132 147,132 C145.9,132 145,132.623 145,133.383 C145,134.144 144.1,135.002 143,135.29 C141.9,135.577 141,136.53 141,137.406 C141,138.283 140.325,139 139.5,139 C138.667,139 138,139.889 138,141 C138,142.333 137.333,143 136,143 C134.9,143 134,143.639 134,144.421 C134,145.202 132.65,146.138 131,146.5 C129.35,146.862 128,147.798 128,148.579 C128,149.361 127.1,150 126,150 C124.667,150 124,150.667 124,152 C124,153.333 123.333,154 122,154 C120.889,154 120,154.667 120,155.5 C120,156.325 119.377,157 118.617,157 C117.331,157 116.045,159.84 116.014,162.75 C116.004,163.64 118.159,164 123.5,164 C130.333,164 131,164.178 131,166 C131,167.111 131.667,168 132.5,168 C133.548,168 134,169.056 134,171.5 C134,173.944 133.548,175 132.5,175 C131.667,175 131,175.889 131,177 C131,178.333 130.333,179 129,179 C127.889,179 127,179.667 127,180.5 C127,183.571 124.126,181.992 123.813,178.75 C123.541,175.922 123.094,175.461 120.371,175.196 C117.498,174.916 117.189,175.181 116.576,178.446 C116.175,180.584 115.33,182 114.455,182 C113.358,182 113,183.354 113,187.5 L113,193 L116.5,193 C118.803,193 120,192.53 120,191.625 C120,190.254 124.12,189 128.625,189 C130.069,189 131,188.412 131,187.5 C131,186.452 132.056,186 134.5,186 L138,186 L138,206.909 L134.6,207.547 C129.999,208.41 127.589,207.822 127.188,205.739 C126.954,204.523 127.499,204 129,204 C132.646,204 131.058,200.556 127.242,200.187 C124.532,199.925 124,200.212 124,201.937 C124,203.771 123.39,204 118.5,204 C113.667,204 113,204.242 113,206 C113,207.619 112.333,208 109.5,208 C107.121,208 106,208.461 106,209.44 C106,210.381 104.703,210.987 102.25,211.19 C98.807,211.475 98.474,211.772 98.181,214.826 C97.925,217.494 98.271,218.258 99.931,218.692 C101.509,219.105 102,220.037 102,222.617 C102,224.911 102.468,226 103.455,226 C104.325,226 105.173,227.405 105.566,229.5 C105.927,231.425 106.797,233 107.5,233 C108.203,233 109.073,234.575 109.434,236.5 C109.827,238.595 110.675,240 111.545,240 C112.541,240 113,241.104 113,243.5 C113,245.944 113.452,247 114.5,247 C115.325,247 116,247.717 116,248.594 C116,249.47 116.9,250.423 118,250.71 C119.1,250.998 120,251.856 120,252.617 C120,253.377 120.956,254 122.125,254 C123.979,254 124.169,254.405 123.615,257.177 C122.805,261.223 122.91,261.143 117.682,261.732 C113.296,262.227 113.261,262.206 112.606,258.712 C112.243,256.776 111.283,254.939 110.473,254.628 C109.663,254.317 109,253.374 109,252.531 C109,251.689 108.375,251 107.611,251 C106.816,251 105.942,249.505 105.566,247.5 C105.173,245.405 104.325,244 103.455,244 C102.655,244 102,243.1 102,242 C102,240.667 101.333,240 100,240 C98.381,240 98,239.333 98,236.5 C98,234.056 97.548,233 96.5,233 C95.667,233 95,232.111 95,231 C95,229.667 94.333,229 93,229 C91.271,229 91,228.333 91,224.079 C91,219.417 90.841,219.124 87.978,218.495 C83.735,217.563 77,218.847 77,220.588 C77,221.365 76.1,222 75,222 C73.9,222 73,222.655 73,223.455 C73,224.325 71.595,225.173 69.5,225.566 C67.495,225.942 66,226.816 66,227.611 C66,228.532 64.82,229 62.5,229 C59.167,229 59,229.167 59,232.5 C59,234.848 59.465,236 60.412,236 C61.28,236 62.085,237.541 62.5,240 C62.915,242.459 63.72,244 64.588,244 C65.752,244 66,247.165 66,262 C66,279.333 65.926,280 64,280 C62.889,280 62,280.667 62,281.5 C62,282.325 61.391,283 60.647,283 C59.194,283 58,273.283 58,261.456 C58,256.83 57.612,255.065 56.5,254.638 C55.442,254.232 55,252.581 55,249.031 C55,245.226 54.635,244 53.5,244 C52.445,244 52,242.934 52,240.406 C52,237.654 51.532,236.69 50,236.29 C48.244,235.831 48,234.926 48,228.883 L48,222 L52.883,222 C56.926,222 57.857,221.656 58.29,220 C58.577,218.9 59.53,218 60.406,218 C61.283,218 62,217.365 62,216.588 C62,215.72 63.541,214.915 66,214.5 C68.459,214.085 70,213.28 70,212.412 C70,211.384 71.361,211 75,211 C78.778,211 80,210.633 80,209.5 C80,208.445 81.066,208 83.594,208 C86.346,208 87.31,207.532 87.71,206 C88.103,204.497 89.074,204 91.617,204 C93.911,204 95,203.532 95,202.545 C95,201.675 96.405,200.827 98.5,200.434 C101.933,199.79 102,199.684 102,194.889 C102,191.407 102.396,190 103.375,190 C105.015,190 106.235,184.784 105.386,181.402 C104.73,178.79 102,178.062 102,180.5 C102,181.548 100.944,182 98.5,182 C95.667,182 95,182.381 95,184 C95,185.333 94.333,186 93,186 C91.9,186 91,186.655 91,187.455 C91,188.991 85.608,190.464 82.35,189.818 C80.789,189.509 80.501,188.489 80.507,183.302 C80.51,179.92 80.826,176.841 81.207,176.459 C81.589,176.078 83.948,175.535 86.451,175.253 C89.386,174.922 91,174.254 91,173.37 C91,172.595 92.031,172 93.375,172 C97.88,172 102,170.746 102,169.375 C102,168.47 103.197,168 105.5,168 C108.833,168 109,167.833 109,164.5 C109,162.056 108.548,161 107.5,161 C106.452,161 106,159.944 106,157.5 C106,155.056 106.452,154 107.5,154 C108.652,154 109,152.722 109,148.5 L109,143 L102,143 C96.632,143 95,143.33 95,144.415 C95,145.446 92.968,146.02 87.5,146.532 C82.122,147.036 80,147.626 80,148.617 C80,149.61 78.589,150 75,150 C71.674,150 69.995,149.582 69.986,148.75 C69.979,148.063 69.701,146.488 69.37,145.25 C68.883,143.435 69.176,143 70.883,143 C72.911,143 73,142.535 73,132 C73,122.889 72.742,121 71.5,121 C70.452,121 70,119.944 70,117.5 C70,114.667 69.619,114 68,114 C66.148,114 66,113.333 66,105 C66,97.667 65.722,96 64.5,96 C63.452,96 63,94.944 63,92.5 C63,90.056 63.452,89 64.5,89 C65.333,89 66,88.111 66,87 C66,85.19 66.667,85 73,85 L80,85 L80,88.5 C80,90.944 79.548,92 78.5,92 C77.667,92 77,92.889 77,94 C77,95.758 77.667,96 82.5,96 C86.545,96 88,95.63 88,94.601 C88,93.604 90.005,93.002 95,92.5 C99.995,91.998 102,91.396 102,90.399 C102,89.629 102.9,89 104,89 C105.879,89 106,88.333 106,78 L106,67 L102,67 C99.261,67 98,67.436 98,68.383 C98,70.103 94.923,70.969 88.75,70.986 C85.201,70.997 84,71.379 84,72.5 C84,73.412 83.069,74 81.625,74 C77.12,74 73,75.254 73,76.625 C73,77.658 71.29,78 66.117,78 C60.074,78 59.169,78.244 58.71,80 C58.31,81.532 57.346,82 54.594,82 C52.066,82 51,82.445 51,83.5 C51,84.633 49.778,85 46,85 C41.667,85 41,85.267 41,87 C41,88.667 40.333,89 37,89 C34.211,89 33,89.43 33,90.421 C33,91.202 31.65,92.138 30,92.5 C28.35,92.862 27,93.798 27,94.579 C27,95.681 25.314,96 19.5,96 L12,96 L12,92.5 C12,90.187 12.469,89 13.383,89 C14.144,89 15.002,88.1 15.29,87 C15.671,85.544 16.654,85 18.906,85 C20.904,85 22,84.5 22,83.588 C22,82.72 23.541,81.915 26,81.5 C28.459,81.085 30,80.28 30,79.412 C30,78.367 31.43,78 35.5,78 C39.516,78 41,77.627 41,76.617 C41,75.101 43.968,74.035 48.25,74.014 C50.022,74.005 51,73.466 51,72.5 C51,71.417 52.111,71 55,71 C57.739,71 59,70.564 59,69.617 C59,67.897 62.077,67.031 68.25,67.014 C71.6,67.004 73,66.596 73,65.629 C73,64.664 75.073,64.054 80,63.569 C85.105,63.066 87,62.489 87,61.439 C87,60.361 88.381,60 92.5,60 C96.866,60 98,59.671 98,58.406 C98,57.53 98.9,56.577 100,56.29 C101.503,55.897 102,54.926 102,52.383 C102,50.169 102.478,49 103.383,49 C104.144,49 105.002,48.1 105.29,47 C105.577,45.9 106.53,45 107.406,45 C108.283,45 109,44.325 109,43.5 Z M220.566,49.5 C221.163,46.318 221.53,46 224.611,46 L228,46 L228,55 C228,61.895 227.684,64 226.648,64 C225.155,64 224.017,74.447 224.006,88.25 C224.001,94.47 223.704,96 222.5,96 C221.278,96 221,97.667 221,105 L221,114 L246,114 C267.209,114 271,114.221 271,115.455 C271,116.325 272.405,117.173 274.5,117.566 C276.505,117.942 278,118.816 278,119.611 C278,120.375 278.9,121 280,121 C281.333,121 282,121.667 282,123 C282,124.333 282.667,125 284,125 C285.619,125 286,125.667 286,128.5 C286,130.944 286.452,132 287.5,132 C288.652,132 289,133.278 289,137.5 C289,141.722 288.652,143 287.5,143 C286.31,143 286,144.444 286,150 C286,156.333 285.81,157 284,157 C282.242,157 282,157.667 282,162.5 C282,166.646 281.642,168 280.545,168 C279.675,168 278.827,169.405 278.434,171.5 C278.058,173.505 277.184,175 276.389,175 C275.461,175 275,176.194 275,178.594 C275,181.346 274.532,182.31 273,182.71 C271.344,183.143 271,184.074 271,188.117 C271,191.723 270.62,193 269.545,193 C268.675,193 267.827,194.405 267.434,196.5 C267.058,198.505 266.184,200 265.389,200 C264.435,200 264,201.254 264,204 C264,206.834 263.576,208 262.545,208 C261.675,208 260.827,209.405 260.434,211.5 C260.058,213.505 259.184,215 258.389,215 C257.468,215 257,216.18 257,218.5 C257,221.333 256.619,222 255,222 C253.667,222 253,222.667 253,224 C253,225.111 252.333,226 251.5,226 C250.675,226 250,226.675 250,227.5 C250,228.333 249.111,229 248,229 C246.667,229 246,229.667 246,231 C246,232.758 245.333,233 240.5,233 C235.667,233 235,232.758 235,231 C235,229.667 234.333,229 233,229 C231.889,229 231,228.333 231,227.5 C231,226.675 230.325,226 229.5,226 C228.667,226 228,225.111 228,224 C228,222.9 227.377,222 226.617,222 C225.041,222 224.034,219 224.014,214.25 C224.005,212.144 223.509,211 222.606,211 C221.559,211 221.12,208.988 220.845,202.924 C220.555,196.543 220.113,194.643 218.739,193.874 C217.18,193.001 217,190.888 217,173.45 C217,154.667 217.069,154 219,154 C220.81,154 221,154.667 221,161 C221,166.556 221.31,168 222.5,168 C223.333,168 224,168.889 224,170 C224,171.111 223.333,172 222.5,172 C221.675,172 221,172.675 221,173.5 C221,174.325 221.675,175 222.5,175 C223.706,175 224,176.542 224,182.875 C224,192.568 224.824,197 226.625,197 C227.69,197 228,199.03 228,206 C228,214.333 228.148,215 230,215 C231.333,215 232,215.667 232,217 C232,218.1 232.639,219 233.421,219 C234.202,219 235.138,220.35 235.5,222 C236.044,224.475 236.656,225 239,225 C241.344,225 241.956,224.475 242.5,222 C242.862,220.35 243.798,219 244.579,219 C245.361,219 246,218.152 246,217.117 C246,216.074 246.893,215 248,214.71 C249.456,214.329 250,213.346 250,211.094 C250,209.01 250.49,208 251.5,208 C252.333,208 253,207.111 253,206 C253,204.9 253.623,204 254.383,204 C255.899,204 256.965,201.032 256.986,196.75 C256.995,195.093 257.545,194 258.372,194 C259.2,194 259.998,192.413 260.384,190 C260.798,187.412 261.549,186 262.512,186 C263.546,186 264,184.932 264,182.5 C264,180.18 264.468,179 265.389,179 C266.184,179 267.058,177.505 267.434,175.5 C267.827,173.405 268.675,172 269.545,172 C270.638,172 271,170.661 271,166.617 C271,162.074 271.312,161.152 273,160.71 C274.67,160.274 275,159.346 275,155.094 C275,151.233 275.363,150 276.5,150 C277.738,150 278,148.167 278,139.5 C278,130.559 277.763,129 276.406,129 C275.53,129 274.591,128.151 274.32,127.114 C273.923,125.596 272.65,125.143 267.803,124.792 C263.529,124.483 261.506,123.869 260.84,122.678 C260.016,121.207 257.739,121 242.357,121 C225.654,121 224.788,121.096 224.29,123 C223.897,124.503 222.926,125 220.383,125 L217,125 L217,130 C217,133.778 216.633,135 215.5,135 C214.348,135 214,136.278 214,140.5 C214,145.333 213.758,146 212,146 C210.248,146 210,146.667 210,151.383 C210,155.926 209.688,156.848 208,157.29 C206.468,157.69 206,158.654 206,161.406 C206,163.934 205.555,165 204.5,165 C203.452,165 203,166.056 203,168.5 C203,170.813 202.531,172 201.617,172 C200.101,172 199.035,174.968 199.014,179.25 C199.005,181.022 198.466,182 197.5,182 C196.477,182 195.996,183.034 195.986,185.25 C195.966,190 194.959,193 193.383,193 C192.436,193 192,194.261 192,197 C192,199.834 191.576,201 190.545,201 C189.675,201 188.827,202.405 188.434,204.5 C188.058,206.505 187.184,208 186.389,208 C185.468,208 185,209.18 185,211.5 C185,213.896 184.541,215 183.545,215 C182.675,215 181.827,216.405 181.434,218.5 C181.058,220.505 180.184,222 179.389,222 C178.372,222 178,223.474 178,227.5 C178,231.722 178.348,233 179.5,233 C180.753,233 181,235.056 181,245.5 C181,255.944 180.753,258 179.5,258 C178.452,258 178,259.056 178,261.5 C178,264.81 177.817,265 174.617,265 C170.296,265 170.031,264.035 170.014,248.25 C170.003,238.366 169.727,236 168.586,236 C167.467,236 167.1,233.548 166.829,224.25 C166.365,208.379 166.453,208 170.617,208 C172.957,208 174,208.462 174,209.5 C174,210.333 174.889,211 176,211 C177.333,211 178,210.333 178,209 C178,207.889 178.667,207 179.5,207 C180.629,207 181,205.791 181,202.117 C181,198.074 181.344,197.143 183,196.71 C184.456,196.329 185,195.346 185,193.094 C185,191.01 185.49,190 186.5,190 C187.523,190 188.004,188.966 188.014,186.75 C188.034,182 189.041,179 190.617,179 C191.627,179 192,177.516 192,173.5 C192,168.667 192.242,168 194,168 C195.619,168 196,167.333 196,164.5 C196,162.056 196.452,161 197.5,161 C198.583,161 199,159.889 199,157 C199,154.261 199.436,153 200.383,153 C201.899,153 202.965,150.032 202.986,145.75 C202.995,143.978 203.534,143 204.5,143 C205.523,143 206.004,141.966 206.014,139.75 C206.034,135 207.041,132 208.617,132 C209.531,132 210,130.813 210,128.5 C210,125.167 209.833,125 206.5,125 C204.056,125 203,125.452 203,126.5 C203,127.412 202.069,128 200.625,128 C196.12,128 192,129.254 192,130.625 C192,131.381 191.377,132 190.617,132 C189.856,132 188.998,132.9 188.71,134 C188.249,135.763 187.346,136 181.094,136 L174,136 L174,125.279 L179.175,124.666 C182.021,124.329 184.673,123.53 185.068,122.89 C185.463,122.25 188.085,121.506 190.893,121.236 C194.317,120.907 196,120.293 196,119.373 C196,118.594 197.028,118 198.375,118 C202.88,118 207,116.746 207,115.375 C207,114.527 208.103,114 209.879,114 L212.758,114 L213.483,99.5 C214.053,88.104 214.507,85 215.604,85 C216.741,85 217,82.026 217,69 C217,55.666 217.242,53 218.455,53 C219.325,53 220.173,51.595 220.566,49.5 Z M138,94.5 C138,95.548 136.944,96 134.5,96 C131.167,96 131,96.167 131,99.5 C131,102.333 130.619,103 129,103 C127.889,103 127,103.667 127,104.5 C127,105.325 126.325,106 125.5,106 C124.667,106 124,106.889 124,108 C124,109.333 123.333,110 122,110 C120.148,110 120,110.667 120,119 L120,128 L123.383,128 C125.926,128 126.897,127.503 127.29,126 C127.577,124.9 128.53,124 129.406,124 C130.283,124 131,123.325 131,122.5 C131,121.667 131.889,121 133,121 C134.111,121 135,120.333 135,119.5 C135,118.367 136.222,118 140,118 C143.778,118 145,118.367 145,119.5 C145,120.333 145.889,121 147,121 C148.619,121 149,120.333 149,117.5 C149,114.667 149.381,114 151,114 C152.111,114 153,113.333 153,112.5 C153,111.675 153.675,111 154.5,111 C155.333,111 156,110.111 156,109 C156,107.9 156.623,107 157.383,107 C159.032,107 160.05,102.597 159.292,98.75 C158.764,96.069 158.577,96 151.875,96 C146.431,96 145,95.688 145,94.5 C145,93.452 143.944,93 141.5,93 C139.056,93 138,93.452 138,94.5 Z M77.25,20.723 C82.812,20.033 99.594,19.969 102.875,20.625 C104.594,20.969 106,21.869 106,22.625 C106,23.381 106.675,24 107.5,24 C108.652,24 109,25.278 109,29.5 C109,35.229 108.68,35.557 104.25,34.37 C102.576,33.921 102,33.028 102,30.883 C102,28.055 101.895,28 96.5,28 C92.278,28 91,28.348 91,29.5 C91,30.717 89.378,31 82.406,31 C74.654,31 73.762,31.196 73.29,33 C73,34.107 71.926,35 70.883,35 C69.848,35 69,35.675 69,36.5 Q69,38 66,38 Q63,38 63,36.5 C63,35.667 62.111,35 61,35 C59.381,35 59,34.333 59,31.5 C59,28.964 59.439,28 60.594,28 C61.47,28 62.423,27.1 62.71,26 C63.152,24.312 64.074,24 68.617,24 C72.63,24 74,23.634 74,22.563 C74,21.692 75.279,20.968 77.25,20.723 Z M131,222 L131,215 L134.5,215 C137.833,215 138,215.167 138,218.5 C138,220.813 138.469,222 139.383,222 C140.959,222 141.966,225 141.986,229.75 C141.996,231.966 142.477,233 143.5,233 C144.711,233 145.003,234.589 145.014,241.25 C145.029,250.804 145.682,254 147.617,254 C148.377,254 149,254.9 149,256 C149,257.333 148.333,258 147,258 C145.63,258 145,258.667 145,260.117 C145,261.824 144.565,262.117 142.75,261.63 C141.512,261.299 139.938,261.021 139.25,261.014 C138.418,261.005 138,259.326 138,256 C138,252.45 137.605,251 136.639,251 C135.121,251 134.023,244.218 134.009,234.75 C134.002,230.309 133.658,229 132.5,229 C131.31,229 131,227.556 131,222 Z M98,101.5 C98,102.633 96.778,103 93,103 C88.667,103 88,103.267 88,105 C88,106.619 87.333,107 84.5,107 C81.167,107 81,107.167 81,110.5 C81,112.944 81.452,114 82.5,114 C83.325,114 84,114.675 84,115.5 C84,116.583 85.111,117 88,117 C90.889,117 92,116.583 92,115.5 C92,114.452 93.056,114 95.5,114 C97.813,114 99,113.531 99,112.617 C99,111.331 101.84,110.045 104.75,110.014 C105.438,110.006 106,110.9 106,112 C106,113.333 105.333,114 104,114 C102.889,114 102,114.667 102,115.5 C102,116.333 102.889,117 104,117 C105.111,117 106,116.333 106,115.5 C106,114.675 106.675,114 107.5,114 C108.333,114 109,113.111 109,112 C109,110.889 108.333,110 107.5,110 C106.675,110 106,109.325 106,108.5 C106,107.675 106.675,107 107.5,107 C108.548,107 109,105.944 109,103.5 L109,100 L103.5,100 C99.278,100 98,100.348 98,101.5 Z M131,130.5 C131,131.333 130.111,132 129,132 C127.9,132 127,132.655 127,133.455 C127,134.325 125.595,135.173 123.5,135.566 C120.067,136.21 120,136.316 120,141.111 C120,144.79 120.371,146 121.5,146 C122.325,146 123,145.325 123,144.5 C123,143.667 123.889,143 125,143 C126.163,143 127,142.333 127,141.406 C127,140.53 127.9,139.577 129,139.29 C130.1,139.002 131,138.144 131,137.383 C131,136.623 131.675,136 132.5,136 C133.548,136 134,134.944 134,132.5 C134,130.056 133.548,129 132.5,129 C131.675,129 131,129.675 131,130.5 Z M92.75,121.689 C91.787,121.941 91,122.789 91,123.573 C91,124.619 89.664,125 86,125 C82.222,125 81,125.367 81,126.5 C81,127.325 81.675,128 82.5,128 C83.548,128 84,129.056 84,131.5 C84,133.944 84.452,135 85.5,135 C86.325,135 87,134.325 87,133.5 C87,132.667 87.889,132 89,132 C90.1,132 91,131.377 91,130.617 C91,129.856 91.9,128.998 93,128.71 C94.1,128.423 95,127.47 95,126.594 C95,125.717 95.675,125 96.5,125 C97.333,125 98,124.111 98,123 C98,121.013 96.638,120.673 92.75,121.689 Z M105.5,125 C105.138,126.65 104.202,128 103.421,128 C102.639,128 102,128.9 102,130 C102,131.111 101.333,132 100.5,132 C99.675,132 99,132.675 99,133.5 C99,134.548 100.056,135 102.5,135 C104.944,135 106,134.548 106,133.5 C106,132.667 106.889,132 108,132 C109.518,132 109.997,131.338 109.986,129.25 C109.952,122.254 106.766,119.236 105.5,125 Z M117,98.117 C117,99.824 117.435,100.117 119.25,99.63 C120.487,99.299 121.838,99.021 122.25,99.014 C122.662,99.006 123,98.325 123,97.5 Q123,96 120,96 C117.612,96 117,96.431 117,98.117 Z"/>
</svg>

