<svg xmlns="http://www.w3.org/2000/svg" width="300" height="300" viewBox="0 0 300 300" version="1.1">
  <defs/>
  <path d="M95,110.383 C95,109.623 95.675,109 96.5,109 C97.325,109 98,109.625 98,110.389 C98,111.184 99.495,112.058 101.5,112.434 C104.698,113.034 105,113.389 105,116.545 C105,118.949 104.544,120 103.5,120 C102.675,120 102,120.675 102,121.5 C102,122.754 104.088,123.002 114.75,123.011 C129.674,123.024 135,123.713 135,125.631 C135,126.384 135.675,127 136.5,127 C137.742,127 138,128.889 138,138 C138,146.699 138.289,149 139.383,149 C140.144,149 141.002,148.1 141.29,147 C141.69,145.468 142.654,145 145.406,145 C147.934,145 149,144.555 149,143.5 C149,142.534 149.978,141.995 151.75,141.986 C153.262,141.979 155.512,141.701 156.75,141.37 C158.565,140.883 159,141.176 159,142.883 C159,144.569 158.388,145 156,145 C153.667,145 153,145.444 153,147 C153,148.333 152.333,149 151,149 C149.9,149 149,149.625 149,150.389 C149,151.184 147.505,152.058 145.5,152.434 C143.405,152.827 142,153.675 142,154.545 C142,155.345 141.1,156 140,156 C138.9,156 138,156.623 138,157.383 C138,158.144 137.1,159.002 136,159.29 C134.9,159.577 134,160.53 134,161.406 C134,162.283 133.325,163 132.5,163 C131.667,163 131,163.889 131,165 C131,166.333 130.333,167 129,167 C127.9,167 127,167.623 127,168.383 C127,169.144 126.1,170.002 125,170.29 C123.9,170.577 123,171.53 123,172.406 C123,173.497 122.088,174 120.111,174 C117.622,174 117.135,174.467 116.59,177.372 C115.999,180.522 115.651,180.779 111.328,181.267 C108.547,181.58 106.339,182.43 105.799,183.394 C105.245,184.385 103.579,185 101.45,185 C98.157,185 98,184.837 98,181.406 C98,178.654 98.468,177.69 100,177.29 C101.1,177.002 102,176.144 102,175.383 C102,174.623 102.9,174 104,174 C105.607,174 106,173.333 106,170.611 C106,167.549 105.673,167.161 102.597,166.584 C100.725,166.233 98.939,165.283 98.628,164.473 C98.317,163.663 97.374,163 96.531,163 C95.689,163 95,162.283 95,161.406 C95,160.53 94.1,159.577 93,159.29 C91.497,158.897 91,157.926 91,155.383 C91,153.043 90.538,152 89.5,152 C88.534,152 87.995,151.022 87.986,149.25 C87.965,144.968 86.899,142 85.383,142 C84.436,142 84,140.739 84,138 C84,135.111 84.417,134 85.5,134 C86.325,134 87,133.325 87,132.5 C87,131.667 87.889,131 89,131 C91.258,131 91.419,130.108 91.036,119.684 C90.809,113.487 90.977,112.819 92.893,112.318 C94.052,112.015 95,111.144 95,110.383 Z M162.25,87.706 C167.833,86.63 170.185,86.99 170.71,89 C170.998,90.1 171.856,91 172.617,91 C173.627,91 174,92.484 174,96.5 C174,101.333 174.242,102 176,102 C177.879,102 178,102.667 178,113 C178,121.794 178.282,124 179.409,124 C180.585,124 180.874,129.521 181.159,157.537 C181.449,186.016 181.726,191.214 183,191.999 C184.24,192.764 184.553,196.571 184.806,213.962 C185.061,231.491 185.353,235 186.556,235 C187.64,235 188,236.373 188,240.5 L188,246 L183,246 C178.667,246 178,246.267 178,248 C178,249.333 177.333,250 176,250 C174.397,250 174,249.333 174,246.639 C174,243.332 173.917,243.269 168.75,242.648 C165.863,242.301 161.137,242.013 158.25,242.009 C154.47,242.002 153,241.615 153,240.627 C153,239.707 151.317,239.093 147.893,238.764 C145.085,238.494 142.496,237.803 142.141,237.228 C141.786,236.654 139.809,235.867 137.748,235.48 C135.554,235.069 134,234.202 134,233.389 C134,232.594 132.985,232 131.625,232 C127.12,232 123,230.746 123,229.375 C123,228.392 121.576,228 118,228 C114.424,228 113,227.608 113,226.625 C113,225.254 108.88,224 104.375,224 C102.931,224 102,223.412 102,222.5 C102,221.452 100.944,221 98.5,221 C95.667,221 95,220.619 95,219 C95,217.19 94.333,217 88,217 C82.707,217 81,216.663 81,215.617 C81,213.657 83.883,213.141 91.437,213.747 C96.053,214.118 98,214.678 98,215.637 C98,216.613 99.491,217.004 103.25,217.014 C109.902,217.031 113,217.858 113,219.617 C113,220.627 114.484,221 118.5,221 C122.722,221 124,221.348 124,222.5 C124,223.412 124.931,224 126.375,224 C130.88,224 135,225.254 135,226.625 C135,227.608 136.424,228 140,228 C143.589,228 145,228.39 145,229.383 C145,230.374 147.122,230.964 152.5,231.468 C157.968,231.98 160,232.554 160,233.585 C160,234.617 161.361,235 165.031,235 C168.581,235 170.232,235.442 170.638,236.5 C171.386,238.448 174,238.448 174,236.5 C174,235.675 174.675,235 175.5,235 C176.548,235 177,233.944 177,231.5 C177,229.056 176.548,228 175.5,228 C174.191,228 174,222.791 174,187.117 C174,147.201 173.953,146.221 172.018,145.715 C170.488,145.315 170.079,144.434 170.22,141.848 C170.321,140.007 170.313,131.863 170.202,123.75 C170.041,112.026 169.719,109 168.63,109 C167.742,109 167.076,107.365 166.736,104.349 C166.42,101.551 165.572,99.34 164.606,98.799 C163.723,98.305 163,97.248 163,96.45 C163,95.653 162.325,95 161.5,95 C160.458,95 160,93.952 160,91.57 C160,88.807 160.438,88.055 162.25,87.706 Z M196,53.431 C196,52.28 198.058,52 206.5,52 C215.167,52 217,52.262 217,53.5 C217,54.325 217.675,55 218.5,55 C220.272,55 220.539,58.654 218.809,59.23 C218.108,59.464 217.444,62.375 217.193,66.314 C216.828,72.045 216.498,73 214.884,73 C213.848,73 213,73.639 213,74.421 C213,75.202 211.65,76.138 210,76.5 C208.35,76.862 207,77.759 207,78.492 C207,79.267 205.328,80.107 203,80.5 C200.541,80.915 199,81.72 199,82.588 C199,83.535 197.848,84 195.5,84 C192.667,84 192,83.619 192,82 C192,80.381 192.667,80 195.5,80 C197.425,80 199,79.501 199,78.891 C199,77.416 203.198,73.039 204.633,73.017 C205.257,73.008 206.002,72.1 206.29,71 C206.577,69.9 207.53,69 208.406,69 C209.283,69 210,68.325 210,67.5 C210,66.452 208.944,66 206.5,66 C204.226,66 203,66.474 203,67.352 C203,68.918 192.41,69.984 176.75,69.994 C168.753,69.999 167,70.27 167,71.5 C167,72.766 164.681,73 152.125,73 C135.646,73 131,73.577 131,75.625 C131,76.734 127.909,77 115,77 C101.444,77 99,77.229 99,78.5 C99,79.7 97.5,80 91.5,80 L84,80 L84,77.117 C84,73.971 85.762,73.039 91.75,73.014 C93.83,73.005 95,72.506 95,71.629 C95,70.621 97.385,70.071 104,69.554 C110.793,69.022 113,68.5 113,67.425 C113,66.268 115.348,66 125.5,66 C137.333,66 138,65.893 138,64 C138,62.667 138.667,62 140,62 C141.1,62 142,61.367 142,60.594 C142,59.502 144.242,59.111 152.038,58.844 C159.608,58.585 162.303,58.131 162.999,57 C163.744,55.79 167.028,55.438 179.962,55.181 C193.06,54.921 196,54.6 196,53.431 Z M116,132.5 C116,133.466 115.022,134.005 113.25,134.014 C106.95,134.045 106,134.845 106,140.117 C106,143.791 106.371,145 107.5,145 C108.555,145 109,146.066 109,148.594 C109,151.346 109.468,152.31 111,152.71 C112.656,153.143 113,154.074 113,158.117 L113,163 L116.5,163 C119.333,163 120,162.619 120,161 C120,159.9 120.639,159 121.421,159 C122.202,159 123.138,157.65 123.5,156 C123.862,154.35 124.798,153 125.579,153 C126.57,153 127,151.789 127,149 C127,145.667 127.333,145 129,145 C130.731,145 131,144.333 131,140.045 C131,135.175 130.941,135.08 127.5,134.434 C125.495,134.058 124,133.184 124,132.389 C124,131.435 122.746,131 120,131 C117.111,131 116,131.417 116,132.5 Z M95,145.5 C95,151.5 95.3,153 96.5,153 C97.325,153 98,153.675 98,154.5 C98,155.333 98.889,156 100,156 C101.758,156 102,155.333 102,150.5 C102,146.354 101.642,145 100.545,145 C99.675,145 98.827,143.595 98.434,141.5 C98.058,139.495 97.184,138 96.389,138 C95.327,138 95,139.767 95,145.5 Z M177,89.5 C177,88.667 177.889,88 179,88 C180.111,88 181,88.667 181,89.5 C181,90.333 180.111,91 179,91 C177.889,91 177,90.333 177,89.5 Z"/>
</svg>

