<svg xmlns="http://www.w3.org/2000/svg" width="300" height="300" viewBox="0 0 300 300" version="1.1">
  <defs/>
  <path d="M206.566,40.5 C207.21,37.067 207.316,37 212.111,37 L217,37 L217,40.5 C217,42.82 216.532,44 215.611,44 C214.816,44 213.942,45.495 213.566,47.5 C213.173,49.595 212.325,51 211.455,51 C210.655,51 210,51.9 210,53 C210,54.1 209.375,55 208.611,55 C207.816,55 206.942,56.495 206.566,58.5 C206.173,60.595 205.325,62 204.455,62 C203.655,62 203,62.9 203,64 C203,65.1 202.345,66 201.545,66 C200.675,66 199.827,67.405 199.434,69.5 C199.058,71.505 198.184,73 197.389,73 C196.625,73 196,73.9 196,75 C196,76.333 195.333,77 194,77 C192.381,77 192,77.667 192,80.5 C192,83.333 191.619,84 190,84 C188.667,84 188,84.667 188,86 C188,87.111 187.333,88 186.5,88 C185.452,88 185,89.056 185,91.5 C185,94.333 184.619,95 183,95 C181.667,95 181,95.667 181,97 C181,98.111 180.333,99 179.5,99 C178.456,99 178,100.05 178,102.451 L178,105.901 L189.75,105.314 C206.804,104.461 231,105.805 231,107.604 C231,108.566 232.243,109 235,109 C238.333,109 239,109.333 239,111 C239,112.1 239.647,113 240.439,113 C241.374,113 242.11,114.55 242.542,117.429 C243.261,122.225 242.694,124 240.441,124 C239.648,124 239,124.675 239,125.5 C239,126.333 238.111,127 237,127 C235.273,127 235,126.333 235,122.117 C235,116.374 234.375,116.035 223.75,116.014 C218.423,116.003 217,115.684 217,114.5 C217,113.229 214.556,113 201,113 C188.091,113 185,113.266 185,114.375 C185,115.746 180.88,117 176.375,117 C174.163,117 174,117.377 174,122.5 C174,126.479 174.377,128 175.364,128 C177.012,128 178,134.235 178,144.64 L178,152 L197.5,152 C213.437,152 217,151.747 217,150.616 C217,149.618 218.876,149.113 223.75,148.803 C233.784,148.164 235,148.576 235,152.617 L235,156 L230,156 C226.424,156 225,156.392 225,157.375 C225,159.201 220.548,160 210.375,160 C203.597,160 202,160.286 202,161.5 Q202,163 199,163 Q196,163 196,161.5 C196,160.452 194.944,160 192.5,160 C190.056,160 189,160.452 189,161.5 C189,162.583 187.889,163 185,163 L181,163 L181,174.375 C181,187.446 181.678,192 183.625,192 C184.661,192 185,193.727 185,199 C185,204.392 185.327,206 186.425,206 C187.5,206 188.022,208.207 188.554,215 C189.071,221.615 189.621,224 190.629,224 C191.66,224 192,225.737 192,231 C192,236.258 192.341,238 193.369,238 C195.058,238 195.979,243.124 195.975,252.5 C195.972,262.271 195.374,264 192,264 C188.645,264 188.033,262.271 188.014,252.75 C188.003,247.423 187.684,246 186.5,246 C185.311,246 185,244.561 185,239.05 C185,233.487 184.653,231.905 183.261,231.126 C181.887,230.357 181.445,228.457 181.155,222.076 C180.88,216.012 180.441,214 179.394,214 C178.368,214 178,212.523 178,208.406 C178,203.654 177.699,202.734 176,202.29 C174.097,201.792 174,200.926 174,184.5 C174,168.074 173.903,167.208 172,166.71 C170.9,166.423 170,165.47 170,164.594 C170,163.263 168.638,163.002 161.75,163.014 C152.196,163.029 149,163.682 149,165.617 C149,166.663 147.293,167 142,167 C136.444,167 135,167.31 135,168.5 C135,169.356 134.101,170 132.906,170 C131.654,170 130.603,170.803 130.29,172 C129.684,174.318 127,174.726 127,172.5 C127,171.675 126.325,171 125.5,171 C124.675,171 124,171.675 124,172.5 C124,173.333 123.111,174 122,174 C120.667,174 120,174.667 120,176 C120,177.111 120.667,178 121.5,178 C122.325,178 123,178.675 123,179.5 C123,180.325 122.325,181 121.5,181 C120.667,181 120,181.889 120,183 C120,184.1 120.625,185 121.389,185 C122.184,185 123.058,186.495 123.434,188.5 C123.827,190.595 124.675,192 125.545,192 C126.541,192 127,193.104 127,195.5 L127,199 L116,199 L116,195.5 C116,193.156 115.535,192 114.591,192 C113.426,192 113.123,187.743 112.841,167.463 C112.565,147.574 112.23,142.759 111.075,142.046 C110.085,141.435 109.513,138.544 109.2,132.583 C108.864,126.187 108.399,124 107.375,124 C106.594,124 106,122.973 106,121.625 C106,117.12 104.746,113 103.375,113 C102.331,113 102,111.197 102,105.5 C102,99.5 101.7,98 100.5,98 C99.667,98 99,98.889 99,100 C99,101.333 98.333,102 97,102 C95.381,102 95,102.667 95,105.5 C95,108.333 94.619,109 93,109 C91.381,109 91,109.667 91,112.5 C91,114.82 90.532,116 89.611,116 C88.816,116 87.942,117.495 87.566,119.5 C87.173,121.595 86.325,123 85.455,123 C84.468,123 84,124.089 84,126.383 C84,128.926 83.503,129.897 82,130.29 C80.803,130.603 80,131.654 80,132.906 C80,134.101 79.356,135 78.5,135 C77.49,135 77,136.01 77,138.094 C77,140.346 76.456,141.329 75,141.71 C73.583,142.081 73,143.074 73,145.117 C73,146.894 72.473,148 71.628,148 C70.8,148 70.002,149.587 69.616,152 C69.202,154.588 68.451,156 67.488,156 C66.454,156 66,157.068 66,159.5 C66,162.833 65.833,163 62.5,163 L59,163 L59,157.5 C59,153.474 59.372,152 60.389,152 C61.184,152 62.058,150.505 62.434,148.5 C62.827,146.405 63.675,145 64.545,145 C65.541,145 66,143.896 66,141.5 C66,139.104 66.459,138 67.455,138 C68.325,138 69.173,136.595 69.566,134.5 C69.927,132.575 70.797,131 71.5,131 C72.203,131 73.073,129.425 73.434,127.5 C73.827,125.405 74.675,124 75.545,124 C76.345,124 77,123.1 77,122 C77,120.9 77.625,120 78.389,120 C79.184,120 80.058,118.505 80.434,116.5 C80.827,114.405 81.675,113 82.545,113 C83.541,113 84,111.896 84,109.5 C84,107.18 84.468,106 85.389,106 C86.184,106 87.058,104.505 87.434,102.5 C87.827,100.405 88.675,99 89.545,99 C90.548,99 91,97.884 91,95.406 C91,92.654 91.468,91.69 93,91.29 C94.107,91 95,89.926 95,88.883 C95,87.848 95.675,87 96.5,87 C97.51,87 98,85.99 98,83.906 C98,81.654 98.544,80.671 100,80.29 C101.503,79.897 102,78.926 102,76.383 C102,73.667 102.394,73 104,73 C105.619,73 106,72.333 106,69.5 C106,67.187 106.469,66 107.383,66 C108.144,66 109.002,65.1 109.29,64 C109.577,62.9 110.53,62 111.406,62 C112.333,62 113,61.163 113,60 C113,58.889 113.667,58 114.5,58 C115.633,58 116,56.778 116,53 C116,48.667 116.267,48 118,48 C119.619,48 120,47.333 120,44.5 C120,41.189 120.183,41 123.389,41 C126.47,41 126.837,41.318 127.434,44.5 C128.3,49.116 127.154,55 125.389,55 C124.468,55 124,56.18 124,58.5 C124,61.333 123.619,62 122,62 C120.394,62 120,62.667 120,65.383 C120,67.926 119.503,68.897 118,69.29 C116.9,69.577 116,70.53 116,71.406 C116,72.283 115.325,73 114.5,73 C113.667,73 113,73.889 113,75 C113,76.333 112.333,77 111,77 C109.381,77 109,77.667 109,80.5 C109,82.944 108.548,84 107.5,84 C106.458,84 106,85.049 106,87.437 C106,90.583 106.275,90.9 109.25,91.187 L112.5,91.5 L112.785,101.75 C113.013,109.956 113.362,112 114.535,112 C115.591,112 116.002,113.188 116.009,116.25 C116.025,124.335 117.214,131 118.639,131 C119.722,131 120,133.842 120,144.892 C120,158.725 120.01,158.786 122.402,159.386 C125.784,160.235 131,159.015 131,157.375 C131,156.259 134.394,156 149,156 C166.333,156 167,155.926 167,154 C167,152.889 167.667,152 168.5,152 C169.548,152 170,150.944 170,148.5 C170,146.056 169.548,145 168.5,145 C167.247,145 167,142.944 167,132.5 C167,120.667 166.893,120 165,120 C163.9,120 163,120.619 163,121.375 C163,122.904 158.772,124 152.875,124 C150.097,124 149,124.425 149,125.5 C149,126.605 147.847,127 144.625,127 C138.259,127 134,128.052 134,129.625 C134,130.53 132.803,131 130.5,131 C128.056,131 127,130.548 127,129.5 C127,128.675 126.325,128 125.5,128 C124.567,128 124,127.056 124,125.5 C124,123.944 124.567,123 125.5,123 C126.325,123 127,122.325 127,121.5 C127,120.667 127.889,120 129,120 C130.333,120 131,119.333 131,118 C131,116.242 131.667,116 136.5,116 C140.722,116 142,115.652 142,114.5 C142,113.425 143.097,113 145.875,113 C151.772,113 156,111.904 156,110.375 C156,109.619 156.9,109 158,109 C159.111,109 160,108.333 160,107.5 C160,106.675 160.675,106 161.5,106 C162.7,106 163,104.5 163,98.5 C163,92.604 162.689,91 161.545,91 C160.675,91 159.827,89.595 159.434,87.5 C159.058,85.495 158.184,84 157.389,84 C156.468,84 156,82.82 156,80.5 C156,78.18 155.532,77 154.611,77 C153.816,77 152.942,75.505 152.566,73.5 C152.173,71.405 151.325,70 150.455,70 C149.452,70 149,68.884 149,66.406 C149,63.654 148.532,62.69 147,62.29 C145.9,62.002 145,61.144 145,60.383 C145,59.623 144.353,59 143.561,59 C141.97,59 140.601,52.396 141.165,47.441 C141.462,44.836 141.929,44.465 145.25,44.19 C148.47,43.923 149,44.17 149,45.94 C149,47.073 149.623,48 150.383,48 C151.144,48 152.002,48.9 152.29,50 C152.577,51.1 153.53,52 154.406,52 C155.647,52 156,53.082 156,56.883 C156,60.926 156.344,61.857 158,62.29 C159.532,62.69 160,63.654 160,66.406 C160,68.934 160.445,70 161.5,70 C162.325,70 163,70.675 163,71.5 C163,72.325 163.675,73 164.5,73 C165.333,73 166,72.111 166,71 C166,69.9 165.55,69 165,69 C163.577,69 163.755,62.248 165.191,61.77 C165.892,61.536 166.556,58.625 166.807,54.686 C167.094,50.181 167.646,48 168.5,48 C169.197,48 170.002,47.1 170.29,46 C170.577,44.9 171.53,44 172.406,44 C173.333,44 174,44.837 174,46 C174,47.1 174.625,48 175.389,48 C176.184,48 177.058,49.495 177.434,51.5 C178.3,56.116 177.154,62 175.389,62 C174.268,62 174,64.794 174,76.5 C174,90.333 174.092,91 176,91 C177.111,91 178,90.333 178,89.5 C178,88.675 178.675,88 179.5,88 C180.538,88 181,86.957 181,84.617 C181,82.074 181.497,81.103 183,80.71 C184.1,80.423 185,79.47 185,78.594 C185,77.717 185.625,77 186.389,77 C187.184,77 188.058,75.505 188.434,73.5 C188.827,71.405 189.675,70 190.545,70 C191.345,70 192,69.1 192,68 C192,66.9 192.625,66 193.389,66 C194.184,66 195.058,64.505 195.434,62.5 C195.827,60.405 196.675,59 197.545,59 C198.576,59 199,57.834 199,55 C199,52.166 199.424,51 200.455,51 C201.325,51 202.173,49.595 202.566,47.5 C202.929,45.563 203.822,44 204.566,44 C205.31,44 206.203,42.437 206.566,40.5 Z"/>
</svg>

