<svg xmlns="http://www.w3.org/2000/svg" width="300" height="300" viewBox="0 0 300 300" version="1.1">
  <defs/>
  <path d="M193,49.455 C193,46.537 195.915,48.031 196.504,51.25 C196.831,53.038 196.964,72.179 196.799,93.787 C196.546,127.083 196.275,133.213 195.027,133.984 C193.925,134.665 193.456,137.549 193.164,145.447 C192.862,153.589 192.456,156 191.387,156 C190.362,156 190,157.533 190,161.875 C190,169.658 189.06,174 187.375,174 C186.375,174 186,175.5 186,179.5 C186,183.545 185.63,185 184.601,185 C183.604,185 183.002,187.005 182.5,192 C181.998,196.995 181.396,199 180.399,199 C179.471,199 179,200.161 179,202.45 C179,204.579 178.385,206.245 177.394,206.799 C176.428,207.34 175.58,209.551 175.264,212.349 C174.924,215.365 174.258,217 173.37,217 C172.464,217 172,218.218 172,220.594 C172,223.346 171.532,224.31 170,224.71 C168.344,225.143 168,226.074 168,230.117 C168,233.617 167.607,235 166.611,235 C165.816,235 164.942,236.495 164.566,238.5 C164.173,240.595 163.325,242 162.455,242 C161.468,242 161,243.089 161,245.383 C161,247.926 160.503,248.897 159,249.29 C157.9,249.577 157,250.53 157,251.406 C157,254.118 154.264,253.159 153.7,250.25 C152.954,246.41 153.984,242 155.625,242 C156.604,242 157,240.593 157,237.117 C157,233.074 157.344,232.143 159,231.71 C160.67,231.274 161,230.346 161,226.094 C161,222.233 161.363,221 162.5,221 C163.555,221 164,219.934 164,217.406 C164,214.654 164.468,213.69 166,213.29 C167.656,212.857 168,211.926 168,207.883 C168,204.407 168.396,203 169.375,203 C170.746,203 172,198.88 172,194.375 C172,193.019 172.594,192 173.384,192 C174.379,192 174.885,190.15 175.187,185.4 C175.497,180.538 176.055,178.549 177.304,177.85 C178.542,177.157 179,175.565 179,171.95 C179,168.217 179.369,167 180.5,167 C181.676,167 182,165.625 182,160.625 C182,152.366 182.908,148 184.625,148 C185.761,148 186,142.788 186,118 C186,92 186.2,88 187.5,88 C188.652,88 189,86.722 189,82.5 C189,78.278 188.652,77 187.5,77 C186.247,77 186,74.957 186,64.611 L186,52.223 L189.5,51.566 C191.595,51.173 193,50.325 193,49.455 Z M107,69.5 C107,67.056 107.452,66 108.5,66 C109.325,66 110,66.675 110,67.5 C110,68.333 110.889,69 112,69 C113.333,69 114,69.667 114,71 C114,72.333 114.667,73 116,73 C117.629,73 118,73.667 118,76.594 C118,79.346 117.532,80.31 116,80.71 C114.072,81.214 114,82.074 114,104.617 C114,123.859 114.245,128 115.383,128 C116.899,128 117.965,130.968 117.986,135.25 C118,137.915 118.17,138 123.5,138 C128.333,138 129,138.242 129,140 C129,141.333 128.333,142 127,142 C125.889,142 125,142.667 125,143.5 C125,144.333 124.111,145 123,145 C121.889,145 121,144.333 121,143.5 C121,142.452 119.944,142 117.5,142 C114.667,142 114,141.619 114,140 C114,138.667 113.333,138 112,138 C110.667,138 110,137.333 110,136 C110,134.889 109.333,134 108.5,134 C107.211,134 106.998,130.799 106.986,111.25 C106.972,87.398 106.647,84 104.383,84 C103.487,84 103.005,82.857 103.014,80.75 C103.034,76 104.041,73 105.617,73 C106.531,73 107,71.813 107,69.5 Z"/>
</svg>

