<svg xmlns="http://www.w3.org/2000/svg" width="300" height="300" viewBox="0 0 300 300" version="1.1">
  <defs/>
  <path d="M125,133.389 C125,132.307 126.987,132 134,132 L143,132 L143,135.5 C143,137.813 143.469,139 144.383,139 C145.144,139 146.002,139.9 146.29,141 C146.577,142.1 147.53,143 148.406,143 C149.652,143 150,144.092 150,148 C150,152.333 150.267,153 152,153 C153.333,153 154,153.667 154,155 C154,156.111 154.667,157 155.5,157 C156.333,157 157,157.889 157,159 C157,160.333 157.667,161 159,161 C160.333,161 161,161.667 161,163 C161,164.1 161.639,165 162.421,165 C163.202,165 164.138,166.35 164.5,168 C164.862,169.65 165.798,171 166.579,171 C167.361,171 168,171.9 168,173 C168,174.333 168.667,175 170,175 C171.333,175 172,175.667 172,177 C172,178.333 172.667,179 174,179 C175.1,179 176,179.639 176,180.421 C176,181.202 177.35,182.138 179,182.5 C180.65,182.862 182,183.798 182,184.579 C182,185.361 182.9,186 184,186 C185.333,186 186,186.667 186,188 C186,189.333 186.667,190 188,190 C189.111,190 190,190.667 190,191.5 C190,192.51 191.01,193 193.094,193 C195.346,193 196.329,193.544 196.71,195 C197,196.107 198.074,197 199.117,197 C200.152,197 201,197.639 201,198.421 C201,199.202 202.35,200.138 204,200.5 C205.65,200.862 207,201.798 207,202.579 C207,203.361 207.9,204 209,204 C210.111,204 211,204.667 211,205.5 C211,206.333 211.889,207 213,207 C214.333,207 215,207.667 215,209 C215,210.733 215.667,211 220,211 C224.333,211 225,211.267 225,213 C225,214.333 225.667,215 227,215 C228.111,215 229,215.667 229,216.5 C229,217.348 229.896,218 231.06,218 C232.83,218 233.077,218.53 232.81,221.75 C232.525,225.193 232.228,225.526 229.174,225.819 C226.506,226.075 225.742,225.729 225.308,224.069 C225.01,222.931 224.144,222 223.383,222 C222.623,222 222,221.1 222,220 C222,218.381 221.333,218 218.5,218 C216.18,218 215,217.532 215,216.611 C215,215.816 213.505,214.942 211.5,214.566 C209.405,214.173 208,213.325 208,212.455 C208,211.459 206.896,211 204.5,211 C202.056,211 201,210.548 201,209.5 C201,208.667 200.111,208 199,208 C197.667,208 197,207.333 197,206 C197,204.667 196.333,204 195,204 C193.9,204 193,203.345 193,202.545 C193,201.675 191.595,200.827 189.5,200.434 C187.495,200.058 186,199.184 186,198.389 C186,197.625 185.1,197 184,197 C182.9,197 182,196.345 182,195.545 C182,194.675 180.595,193.827 178.5,193.434 C176.495,193.058 175,192.184 175,191.389 C175,190.625 174.325,190 173.5,190 C172.667,190 172,189.111 172,188 C172,186.667 171.333,186 170,186 C168.667,186 168,185.333 168,184 C168,182.667 167.333,182 166,182 C164.889,182 164,181.333 164,180.5 C164,179.675 163.325,179 162.5,179 C161.667,179 161,178.111 161,177 C161,175.667 160.333,175 159,175 C157.667,175 157,174.333 157,173 C157,171.9 156.361,171 155.579,171 C154.798,171 153.862,169.65 153.5,168 C153.138,166.35 152.202,165 151.421,165 C150.639,165 150,164.1 150,163 C150,161.667 149.333,161 148,161 C146.667,161 146,160.333 146,159 C146,157.9 145.375,157 144.611,157 C143.816,157 142.942,155.505 142.566,153.5 C142.173,151.405 141.325,150 140.455,150 C139.459,150 139,148.896 139,146.5 L139,143 L130.5,143 C123.846,143 122,143.307 122,144.412 C122,145.28 120.459,146.085 118,146.5 C115.541,146.915 114,147.72 114,148.588 C114,149.535 112.848,150 110.5,150 C107.667,150 107,150.381 107,152 C107,153.667 106.333,154 103,154 C100.111,154 99,154.417 99,155.5 C99,156.466 98.022,157.005 96.25,157.014 C91.968,157.035 89,158.101 89,159.617 C89,160.531 87.813,161 85.5,161 C83.056,161 82,161.452 82,162.5 C82,163.333 81.111,164 80,164 C78.667,164 78,164.667 78,166 C78,167.758 77.333,168 72.5,168 C67.667,168 67,167.758 67,166 C67,164.9 67.655,164 68.455,164 C69.325,164 70.173,162.595 70.566,160.5 C71.163,157.318 71.53,157 74.611,157 C76.91,157 78,156.532 78,155.545 C78,154.675 79.405,153.827 81.5,153.434 C83.505,153.058 85,152.184 85,151.389 C85,150.435 86.254,150 89,150 C91.834,150 93,149.576 93,148.545 C93,147.675 94.405,146.827 96.5,146.434 C98.505,146.058 100,145.184 100,144.389 C100,143.544 101.077,142.995 102.75,142.986 C107.032,142.965 110,141.899 110,140.383 C110,139.436 111.261,139 114,139 C116.834,139 118,138.576 118,137.545 C118,136.675 119.405,135.827 121.5,135.434 C123.505,135.058 125,134.184 125,133.389 Z M202.845,74.671 C207.904,73.329 211,74.593 211,78 C211,79.926 211.608,80.926 213,81.29 C214.456,81.671 215,82.654 215,84.906 C215,87.07 215.479,88 216.594,88 C217.47,88 218.423,88.9 218.71,90 C218.998,91.1 219.856,92 220.617,92 C221.377,92 222,92.9 222,94 C222,95.111 222.667,96 223.5,96 C224.325,96 225,96.717 225,97.594 C225,98.47 225.852,99.41 226.893,99.682 C227.999,99.972 229.029,101.395 229.372,103.109 C229.825,105.377 230.643,106.179 232.979,106.646 C235.98,107.246 237.296,110 234.582,110 C233.802,110 232.425,110.283 231.522,110.63 C230.386,111.066 229.709,110.605 229.324,109.13 C228.894,107.486 227.995,107 225.383,107 C222.667,107 222,106.606 222,105 C222,103.667 221.333,103 220,103 C218.889,103 218,102.333 218,101.5 C218,100.675 217.325,100 216.5,100 C215.667,100 215,99.111 215,98 C215,96.667 214.333,96 213,96 C211.9,96 211,95.377 211,94.617 C211,93.856 210.1,92.998 209,92.71 C207.9,92.423 207,91.47 207,90.594 C207,89.717 206.325,89 205.5,89 C204.667,89 204,88.111 204,87 C204,85.9 203.374,85 202.608,85 C199.43,85 199.647,75.519 202.845,74.671 Z M175.324,86.87 C175.709,85.395 176.386,84.934 177.522,85.37 C178.425,85.717 179.802,86 180.582,86 C181.362,86 182,86.675 182,87.5 C182,88.333 182.889,89 184,89 C185.111,89 186,89.667 186,90.5 C186,91.548 187.056,92 189.5,92 C192.333,92 193,92.381 193,94 C193,95.667 193.667,96 197,96 C199.889,96 201,95.583 201,94.5 C201,93.675 201.675,93 202.5,93 C203.633,93 204,94.222 204,98 L204,103 L197,103 C191.444,103 190,102.69 190,101.5 C190,100.477 188.966,99.996 186.75,99.986 C182,99.966 179,98.959 179,97.383 C179,96.43 177.722,96 174.883,96 C171.102,96 170.816,95.817 171.37,93.75 C171.701,92.513 171.979,90.938 171.986,90.25 C171.994,89.563 172.623,89 173.383,89 C174.144,89 175.017,88.042 175.324,86.87 Z"/>
</svg>

