<svg xmlns="http://www.w3.org/2000/svg" width="300" height="300" viewBox="0 0 300 300" version="1.1">
  <defs/>
  <path d="M122,126.372 C122,125.392 123.429,125 127,125 L132,125 L132,128.5 C132,131.333 132.381,132 134,132 C135.333,132 136,132.667 136,134 C136,135.111 136.667,136 137.5,136 C138.51,136 139,137.01 139,139.094 C139,141.346 139.544,142.329 141,142.71 C142.1,142.998 143,143.856 143,144.617 C143,145.377 143.675,146 144.5,146 C145.333,146 146,146.889 146,148 C146,149.333 146.667,150 148,150 C149.607,150 150,150.667 150,153.389 C150,156.47 150.318,156.837 153.5,157.434 C155.595,157.827 157,158.675 157,159.545 C157,160.345 157.675,161 158.5,161 C159.325,161 160,161.717 160,162.594 C160,163.47 160.9,164.423 162,164.71 C163.1,164.998 164,165.856 164,166.617 C164,167.377 164.9,168 166,168 C167.333,168 168,168.667 168,170 C168,171.333 168.667,172 170,172 C171.111,172 172,172.667 172,173.5 C172,174.336 172.89,175 174.01,175 C175.115,175 176.79,175.9 177.732,177 C178.674,178.1 180.244,179 181.222,179 C182.2,179 183,179.639 183,180.421 C183,181.202 184.35,182.138 186,182.5 C187.65,182.862 189,183.798 189,184.579 C189,185.536 190.143,186 192.5,186 C195.036,186 196,186.439 196,187.594 C196,188.47 196.9,189.423 198,189.71 C199.1,189.998 200,190.806 200,191.505 C200,192.205 201.575,193.073 203.5,193.434 C205.595,193.827 207,194.675 207,195.545 C207,196.345 207.9,197 209,197 C210.111,197 211,197.667 211,198.5 C211,199.333 211.889,200 213,200 C214.333,200 215,200.667 215,202 C215,203.619 215.667,204 218.5,204 C221.333,204 222,204.381 222,206 C222,207.333 222.667,208 224,208 C225.111,208 226,208.667 226,209.5 C226,210.325 226.868,211 227.929,211 C232.815,211 234.853,217.407 230.25,218.3 C226.41,219.046 222,218.016 222,216.375 C222,215.619 221.283,215 220.406,215 C219.53,215 218.577,214.1 218.29,213 C218,211.893 216.926,211 215.883,211 C214.848,211 214,210.325 214,209.5 Q214,208 211,208 C208.667,208 208,207.556 208,206 C208,204.667 207.333,204 206,204 C204.9,204 204,203.375 204,202.611 C204,201.816 202.505,200.942 200.5,200.566 C198.405,200.173 197,199.325 197,198.455 C197,197.655 196.1,197 195,197 C193.9,197 193,196.345 193,195.545 C193,194.675 191.595,193.827 189.5,193.434 C187.563,193.071 186,192.178 186,191.434 C186,190.69 184.437,189.797 182.5,189.434 C180.495,189.058 179,188.184 179,187.389 C179,186.625 178.1,186 177,186 C175.9,186 175,185.345 175,184.545 C175,183.675 173.595,182.827 171.5,182.434 C169.495,182.058 168,181.184 168,180.389 C168,179.625 167.1,179 166,179 C164.667,179 164,178.333 164,177 C164,175.381 163.333,175 160.5,175 C157.667,175 157,174.619 157,173 C157,171.889 156.333,171 155.5,171 C154.675,171 154,170.325 154,169.5 C154,168.667 153.111,168 152,168 C150.667,168 150,167.333 150,166 C150,164.667 149.333,164 148,164 C146.889,164 146,163.333 146,162.5 C146,161.675 145.325,161 144.5,161 C143.667,161 143,160.111 143,159 C143,157.667 142.333,157 141,157 C139.381,157 139,156.333 139,153.5 C139,150.667 138.619,150 137,150 C135.889,150 135,149.333 135,148.5 C135,147.675 134.325,147 133.5,147 C132.667,147 132,146.111 132,145 C132,143.889 131.333,143 130.5,143 C129.675,143 129,142.283 129,141.406 C129,140.53 128.1,139.577 127,139.29 C125.9,139.002 125,138.144 125,137.383 C125,136.469 123.813,136 121.5,136 C119.056,136 118,136.452 118,137.5 C118,138.548 116.944,139 114.5,139 C111.964,139 111,139.439 111,140.594 C111,141.47 110.1,142.423 109,142.71 C107.9,142.998 107,143.806 107,144.505 C107,145.205 105.425,146.073 103.5,146.434 C101.405,146.827 100,147.675 100,148.545 C100,149.345 99.1,150 98,150 C96.9,150 96,150.655 96,151.455 C96,152.325 94.595,153.173 92.5,153.566 C90.495,153.942 89,154.816 89,155.611 C89,156.375 88.1,157 87,157 C85.9,157 85,157.655 85,158.455 C85,159.325 83.595,160.173 81.5,160.566 C78.967,161.041 78,161.745 78,163.111 C78,164.15 77.361,165 76.579,165 C75.798,165 74.862,166.35 74.5,168 C74.138,169.65 73.239,171 72.502,171 C71.766,171 70.425,171.283 69.522,171.63 C68.386,172.066 67.709,171.605 67.324,170.13 C67.017,168.958 66.144,168 65.383,168 C64.623,168 64,167.325 64,166.5 C64,165.675 64.675,165 65.5,165 C66.333,165 67,164.111 67,163 C67,161.667 67.667,161 69,161 C70.333,161 71,160.333 71,159 C71,157.889 71.667,157 72.5,157 C73.325,157 74,156.325 74,155.5 C74,154.667 74.889,154 76,154 C77.333,154 78,153.333 78,152 C78,150.381 78.667,150 81.5,150 C83.896,150 85,149.541 85,148.545 C85,147.675 86.405,146.827 88.5,146.434 C90.505,146.058 92,145.184 92,144.389 C92,143.625 92.9,143 94,143 C95.1,143 96,142.345 96,141.545 C96,140.675 97.405,139.827 99.5,139.434 C101.425,139.073 103,138.205 103,137.505 C103,136.806 103.9,135.998 105,135.71 C106.1,135.423 107,134.47 107,133.594 C107,132.439 107.964,132 110.5,132 C112.932,132 114,131.546 114,130.512 C114,129.549 115.412,128.798 118,128.384 C120.413,127.998 122,127.2 122,126.372 Z M192.75,81.728 C203.858,80.566 211,81.309 211,83.625 C211,84.521 212.179,85 214.383,85 C216.926,85 217.897,85.497 218.29,87 C218.577,88.1 219.53,89 220.406,89 C221.561,89 222,89.964 222,92.5 C222,94.803 222.47,96 223.375,96 C225.06,96 226,100.342 226,108.125 C226,113.333 225.773,114 224,114 C222.667,114 222,114.667 222,116 C222,117.1 221.377,118 220.617,118 C219.856,118 218.998,118.9 218.71,120 C218.423,121.1 217.47,122 216.594,122 C215.717,122 215,122.675 215,123.5 C215,124.333 214.111,125 213,125 C211.889,125 211,125.667 211,126.5 C211,127.412 210.069,128 208.625,128 C204.12,128 200,129.254 200,130.625 C200,131.53 198.803,132 196.5,132 C194.168,132 193,131.533 193,130.601 C193,129.604 190.995,129.002 186,128.5 C181.005,127.998 179,127.396 179,126.399 C179,125.629 178.1,125 177,125 C175.667,125 175,124.333 175,123 C175,121.667 174.333,121 173,121 C171.889,121 171,120.333 171,119.5 C171,118.675 170.325,118 169.5,118 C168.667,118 168,117.111 168,116 C168,114.889 167.333,114 166.5,114 C165.452,114 165,112.944 165,110.5 C165,108.056 165.452,107 166.5,107 C167.333,107 168,106.111 168,105 C168,103.381 168.667,103 171.5,103 C174.81,103 175,103.183 175,106.383 C175,108.926 175.497,109.897 177,110.29 C178.448,110.668 179,111.654 179,113.861 C179,116.553 179.409,116.986 182.5,117.566 C184.505,117.942 186,118.816 186,119.611 C186,120.708 188.207,121 196.5,121 C205.167,121 207,120.738 207,119.5 C207,118.667 207.889,118 209,118 C210.333,118 211,117.333 211,116 C211,114.667 211.667,114 213,114 C214.111,114 215,113.333 215,112.5 C215,111.675 215.675,111 216.5,111 C217.583,111 218,109.889 218,107 C218,104.111 217.583,103 216.5,103 C215.452,103 215,101.944 215,99.5 C215,96.667 214.619,96 213,96 C211.667,96 211,95.333 211,94 C211,92.242 210.333,92 205.5,92 C201.278,92 200,91.652 200,90.5 C200,89.452 198.944,89 196.5,89 C194.056,89 193,89.452 193,90.5 C193,91.325 192.283,92 191.406,92 C190.53,92 189.577,92.9 189.29,94 C188.897,95.503 187.926,96 185.383,96 C182.167,96 182,95.823 182,92.406 C182,89.654 182.468,88.69 184,88.29 C185.1,88.002 186,87.144 186,86.383 C186,85.623 186.675,85 187.5,85 C188.325,85 189,84.352 189,83.56 C189,82.633 190.335,81.981 192.75,81.728 Z"/>
</svg>

