<svg xmlns="http://www.w3.org/2000/svg" width="300" height="300" viewBox="0 0 300 300" version="1.1">
  <defs/>
  <path d="M96,183.5 C96,182.452 97.056,182 99.5,182 C101.944,182 103,182.452 103,183.5 C103,184.548 104.056,185 106.5,185 C108.944,185 110,185.452 110,186.5 C110,187.523 111.034,188.004 113.25,188.014 C118,188.034 121,189.041 121,190.617 C121,191.627 122.484,192 126.5,192 C130.722,192 132,192.348 132,193.5 C132,194.412 132.931,195 134.375,195 C138.746,195 143,196.237 143,197.509 C143,198.35 145.178,198.906 149.568,199.185 C153.483,199.435 156.462,200.13 156.942,200.907 C157.41,201.663 160.527,202.433 164.374,202.742 C169.041,203.117 171,203.677 171,204.637 C171,205.535 172.226,206 174.594,206 C177.346,206 178.31,206.468 178.71,208 C179.143,209.656 180.074,210 184.117,210 C187.593,210 189,210.396 189,211.375 C189,212.746 193.12,214 197.625,214 C199.069,214 200,214.588 200,215.5 C200,216.543 201.049,217 203.441,217 C205.334,217 207.147,217.429 207.472,217.954 C208.437,219.516 206.895,224 205.392,224 C204.626,224 204,224.9 204,226 C204,227.619 203.333,228 200.5,228 C198.18,228 197,227.532 197,226.611 C197,225.816 195.505,224.942 193.5,224.566 C191.405,224.173 190,223.325 190,222.455 C190,221.468 188.911,221 186.617,221 C184.074,221 183.103,220.503 182.71,219 C182.274,217.33 181.346,217 177.094,217 C173.374,217 172,216.619 172,215.588 C172,214.72 170.459,213.915 168,213.5 C165.541,213.085 164,212.28 164,211.412 C164,210.33 162.362,210 157,210 C151.469,210 150,209.688 150,208.512 C150,207.549 148.588,206.798 146,206.384 C143.587,205.998 142,205.2 142,204.372 C142,203.357 140.374,202.996 135.75,202.986 C128.135,202.97 125,202.21 125,200.383 C125,199.373 123.516,199 119.5,199 C115.278,199 114,198.652 114,197.5 C114,196.348 112.722,196 108.5,196 C103.667,196 103,195.758 103,194 C103,192.242 102.333,192 97.5,192 L92,192 L92,188.5 C92,185.667 92.381,185 94,185 C95.111,185 96,184.333 96,183.5 Z M103.638,129.5 C104.313,127.743 106.666,127.497 107.209,129.127 C107.416,129.747 109.928,130.479 112.792,130.754 C116.297,131.091 118,131.703 118,132.627 C118,133.529 119.2,134 121.5,134 C124.333,134 125,134.381 125,136 C125,137.758 125.667,138 130.5,138 C134.5,138 136,138.375 136,139.375 C136,140.904 140.228,142 146.125,142 C148.903,142 150,142.425 150,143.5 C150,144.652 151.278,145 155.5,145 C160.333,145 161,145.242 161,147 C161,148.81 161.667,149 168,149 C173.556,149 175,149.31 175,150.5 C175,151.523 176.034,152.004 178.25,152.014 C183,152.034 186,153.041 186,154.617 C186,155.627 187.484,156 191.5,156 C196.333,156 197,156.242 197,158 C197,159.111 197.667,160 198.5,160 C199.325,160 200,160.675 200,161.5 C200,162.325 199.325,163 198.5,163 C197.667,163 197,163.889 197,165 C197,166.333 196.333,167 195,167 C193.889,167 193,167.667 193,168.5 C193,169.325 192.325,170 191.5,170 C190.675,170 190,169.375 190,168.611 C190,167.816 188.505,166.942 186.5,166.566 C184.405,166.173 183,165.325 183,164.455 C183,163.655 182.1,163 181,163 C179.889,163 179,162.333 179,161.5 C179,160.588 178.069,160 176.625,160 C172.12,160 168,158.746 168,157.375 C168,156.375 166.5,156 162.5,156 C158.455,156 157,155.63 157,154.601 C157,153.604 154.995,153.002 150,152.5 C145.005,151.998 143,151.396 143,150.399 C143,149.37 141.545,149 137.5,149 C133.484,149 132,148.627 132,147.617 C132,146.041 129,145.034 124.25,145.014 C122.034,145.004 121,144.523 121,143.5 C121,142.425 119.903,142 117.125,142 C111.228,142 107,140.904 107,139.375 C107,138.438 105.727,138 103,138 C100.459,138 99.005,137.544 99.014,136.75 C99.046,133.816 100.336,131 101.648,131 C102.426,131 103.322,130.325 103.638,129.5 Z M94.75,73.689 C97.422,72.991 109.212,72.95 111.75,73.63 C112.987,73.962 114,74.856 114,75.617 C114,76.692 116.004,77 123,77 C130.333,77 132,77.278 132,78.5 C132,79.412 132.931,80 134.375,80 C138.88,80 143,81.254 143,82.625 C143,83.661 144.727,84 150,84 C155.273,84 157,84.339 157,85.375 C157,86.746 161.12,88 165.625,88 C167.069,88 168,88.588 168,89.5 C168,90.652 169.278,91 173.5,91 C178.333,91 179,91.242 179,93 C179,94.111 179.667,95 180.5,95 C181.548,95 182,96.056 182,98.5 L182,102 L176.5,102 C172.484,102 171,101.627 171,100.617 C171,99.101 168.032,98.035 163.75,98.014 C161.978,98.005 161,97.466 161,96.5 C161,95.348 159.722,95 155.5,95 C151.484,95 150,94.627 150,93.617 C150,91.858 146.902,91.031 140.25,91.014 C136.256,91.003 135,90.641 135,89.5 C135,88.425 133.903,88 131.125,88 C125.228,88 121,86.904 121,85.375 C121,84.271 118.117,84 106.375,84 L91.75,84 L92.375,80.875 C92.719,79.156 93,76.939 93,75.948 C93,74.957 93.787,73.941 94.75,73.689 Z"/>
</svg>

