<svg xmlns="http://www.w3.org/2000/svg" width="300" height="300" viewBox="0 0 300 300" version="1.1">
  <defs/>
  <path d="M163,71.5 C163,70.667 163.889,70 165,70 C166.81,70 167,70.667 167,77 C167,82.556 167.31,84 168.5,84 C169.325,84 170,84.675 170,85.5 C170,86.325 169.325,87 168.5,87 C167.217,87 167,89.889 167,107 L167,127 L172.5,127 C176.448,127 178,126.619 178,125.651 C178,124.651 180.521,124.153 187.75,123.725 C201.284,122.923 203,123.361 203,127.617 C203,130.333 202.606,131 201,131 C199.889,131 199,131.667 199,132.5 C199,133.325 198.325,134 197.5,134 C196.667,134 196,134.889 196,136 C196,137.667 195.333,138 192,138 C188.58,138 188,137.69 188,135.861 C188,133.867 187.644,133.764 182.75,134.352 C179.863,134.699 175.813,134.987 173.75,134.991 C171.087,134.997 170,135.435 170,136.5 C170,137.325 169.325,138 168.5,138 C167.206,138 167,141.5 167,163.5 C167,185.5 166.794,189 165.5,189 C164.675,189 164,189.675 164,190.5 C164,191.325 163.152,192 162.117,192 C161.074,192 160,192.893 159.71,194 C159.423,195.1 158.47,196 157.594,196 C156.172,196 156,192.868 156,167 L156,138 L152.5,138 C150.056,138 149,137.548 149,136.5 C149,135.667 148.111,135 147,135 C145.889,135 145,135.667 145,136.5 C145,137.771 142.556,138 129,138 C115.688,138 113,138.244 113,139.45 C113,140.248 112.213,141.341 111.25,141.879 C109.667,142.764 109.47,145.32 109.187,168.679 C108.848,196.673 109.286,203 111.561,203 C112.639,203 113,204.382 113,208.5 C113,212.722 113.348,214 114.5,214 C115.325,214 116,214.675 116,215.5 C116,216.333 116.889,217 118,217 C119.1,217 120,217.612 120,218.361 C120,219.879 126.782,220.977 136.25,220.991 C140.691,220.998 142,221.342 142,222.5 C142,223.793 145.444,224 167,224 C187.815,224 192,223.765 192,222.594 C192,221.5 194.267,221.111 202.213,220.844 C215.959,220.381 221,220.853 221,222.601 C221,223.37 221.675,224 222.5,224 C223.333,224 224,224.889 224,226 C224,227.111 223.333,228 222.5,228 C221.675,228 221,228.819 221,229.82 C221,231.55 218.763,231.652 175.921,231.875 C131.188,232.107 130.837,232.093 130.304,230.054 C129.816,228.188 129,228 121.383,228 C114.897,228 113,227.686 113,226.611 C113,225.819 111.514,224.944 109.538,224.573 C106.564,224.015 105.985,223.436 105.427,220.462 C105.056,218.486 104.181,217 103.389,217 C102.336,217 102,215.306 102,210 C102,204.782 101.655,203 100.647,203 C98.867,203 97.976,188.611 98.735,172.133 C99.162,162.877 99.615,160 100.647,160 C101.684,160 102,157.898 102,151 L102,142 L97,142 C93.222,142 92,142.367 92,143.5 C92,144.7 90.5,145 84.5,145 L77,145 L77,141.5 C77,138.667 77.381,138 79,138 C80.1,138 81,137.377 81,136.617 C81,135.101 83.968,134.035 88.25,134.014 C90.022,134.005 91,133.466 91,132.5 C91,131.348 92.278,131 96.5,131 L102,131 L102,124 C102,118.444 102.31,117 103.5,117 C104.583,117 105,115.889 105,113 C105,110.111 104.583,109 103.5,109 C102.675,109 102,108.325 102,107.5 C102,106.675 102.675,106 103.5,106 C104.333,106 105,105.111 105,104 C105,102.706 105.667,102 106.889,102 C108.255,102 108.959,101.033 109.434,98.5 C110.067,95.124 113,93.383 113,96.383 C113,97.144 113.9,98.002 115,98.29 C116.448,98.668 117,99.654 117,101.861 C117,104.562 117.405,104.985 120.554,105.576 C123.817,106.188 124.084,106.499 123.804,109.363 C123.442,113.08 120,114.561 120,111 C120,109.496 119.476,108.953 118.25,109.185 C117.027,109.417 116.407,110.643 116.19,113.258 C115.987,115.704 115.381,117 114.44,117 C113.334,117 113,118.51 113,123.5 C113,128.389 113.345,130 114.393,130 C115.159,130 116.045,129.325 116.362,128.5 C116.846,127.238 120.03,127 136.469,127 L156,127 L156,102 C156,80.444 156.207,77 157.5,77 C158.333,77 159,76.111 159,75 C159,73.667 159.667,73 161,73 C162.111,73 163,72.333 163,71.5 Z"/>
</svg>

