<svg xmlns="http://www.w3.org/2000/svg" width="300" height="300" viewBox="0 0 300 300" version="1.1">
  <defs/>
  <path d="M136.75,92.689 C137.713,92.438 140.005,92.18 141.844,92.116 C144.402,92.027 145.31,92.47 145.71,94 C145.998,95.1 146.856,96 147.617,96 C148.531,96 149,97.187 149,99.5 C149,101.82 149.468,103 150.389,103 C151.184,103 152.058,104.495 152.434,106.5 C152.827,108.595 153.675,110 154.545,110 C155.345,110 156,110.9 156,112 C156,113.1 156.655,114 157.455,114 C158.325,114 159.173,115.405 159.566,117.5 C159.942,119.505 160.816,121 161.611,121 C162.532,121 163,122.18 163,124.5 C163,127.333 163.381,128 165,128 C166.333,128 167,128.667 167,130 C167,131.1 167.655,132 168.455,132 C169.325,132 170.173,133.405 170.566,135.5 C170.942,137.505 171.816,139 172.611,139 C173.375,139 174,139.9 174,141 C174,142.1 174.655,143 175.455,143 C176.325,143 177.173,144.405 177.566,146.5 C178.134,149.525 178.608,150 181.066,150 C183.524,150 183.998,150.475 184.566,153.5 C185.041,156.033 185.745,157 187.111,157 C188.333,157 189,157.706 189,159 C189,160.111 189.667,161 190.5,161 C191.325,161 192,161.675 192,162.5 C192,163.333 192.889,164 194,164 C195.333,164 196,164.667 196,166 C196,167.333 196.667,168 198,168 C199.111,168 200,168.667 200,169.5 C200,170.325 200.675,171 201.5,171 C202.333,171 203,171.889 203,173 C203,174.333 203.667,175 205,175 C206.333,175 207,175.667 207,177 C207,178.111 207.667,179 208.5,179 C209.325,179 210,179.623 210,180.383 C210,181.144 210.9,182.002 212,182.29 C213.1,182.577 214,183.53 214,184.406 C214,185.283 214.675,186 215.5,186 C216.333,186 217,186.889 217,188 C217,189.333 217.667,190 219,190 C220.556,190 221,190.667 221,193 Q221,196 222.5,196 C223.583,196 224,197.111 224,200 C224,202.889 223.583,204 222.5,204 C221.667,204 221,204.889 221,206 C221,207.333 220.333,208 219,208 C217.667,208 217,207.333 217,206 C217,204.889 216.333,204 215.5,204 C214.452,204 214,202.944 214,200.5 C214,197.667 213.619,197 212,197 C210.667,197 210,196.333 210,195 C210,193.889 209.333,193 208.5,193 C207.675,193 207,192.283 207,191.406 C207,190.53 206.1,189.577 205,189.29 C203.583,188.919 203,187.926 203,185.883 C203,183.667 202.538,183 201,183 C199.667,183 199,182.333 199,181 C199,179.9 198.377,179 197.617,179 C196.856,179 195.998,178.1 195.71,177 C195.423,175.9 194.47,175 193.594,175 C192.717,175 192,174.377 192,173.617 C192,172.856 191.1,171.998 190,171.71 C188.9,171.423 188,170.47 188,169.594 C188,168.717 187.325,168 186.5,168 C185.675,168 185,167.325 185,166.5 C185,165.675 184.283,165 183.406,165 C182.53,165 181.577,164.1 181.29,163 C181.002,161.9 180.144,161 179.383,161 C178.623,161 178,160.1 178,159 C178,157.667 177.333,157 176,157 C174.667,157 174,156.333 174,155 C174,153.889 173.333,153 172.5,153 C171.675,153 171,152.325 171,151.5 C171,150.675 170.15,150 169.111,150 C167.745,150 167.041,149.033 166.566,146.5 C166.173,144.405 165.325,143 164.455,143 C163.655,143 163,142.377 163,141.617 C163,140.856 162.1,139.998 161,139.71 C159.9,139.423 159,138.47 159,137.594 C159,136.717 158.325,136 157.5,136 C156.667,136 156,135.111 156,134 C156,132.9 155.345,132 154.545,132 C153.675,132 152.827,130.595 152.434,128.5 C152.058,126.495 151.184,125 150.389,125 C149.477,125 149,123.837 149,121.617 C149,119.074 148.503,118.103 147,117.71 C145.9,117.423 145,116.47 145,115.594 C145,114.717 144.375,114 143.611,114 C142.816,114 141.942,112.505 141.566,110.5 C140.966,107.302 140.611,107 137.455,107 C135.18,107 134,107.472 134,108.383 C134,109.144 133.1,110.002 132,110.29 C130.9,110.577 130,111.53 130,112.406 C130,113.698 128.791,114 123.617,114 C118.074,114 117.164,114.263 116.71,116 C116.31,117.532 115.346,118 112.594,118 C110.066,118 109,118.445 109,119.5 C109,120.548 107.944,121 105.5,121 C102.667,121 102,121.381 102,123 C102,124.607 101.333,125 98.611,125 C95.53,125 95.163,125.318 94.566,128.5 L93.909,132 L77,132 L77,128.5 C77,125.964 77.439,125 78.594,125 C79.47,125 80.423,124.1 80.71,123 C81.103,121.497 82.074,121 84.617,121 C86.911,121 88,120.532 88,119.545 C88,118.675 89.405,117.827 91.5,117.434 C93.505,117.058 95,116.184 95,115.389 C95,114.625 95.9,114 97,114 C98.1,114 99,113.377 99,112.617 C99,111.101 101.968,110.035 106.25,110.014 C108.022,110.005 109,109.466 109,108.5 C109,107.445 110.066,107 112.594,107 C115.346,107 116.31,106.532 116.71,105 C117.164,103.265 118.074,103 123.571,103 L129.909,103 L130.566,99.5 C131.041,96.967 131.745,96 133.111,96 C134.15,96 135,95.358 135,94.573 C135,93.789 135.787,92.941 136.75,92.689 Z"/>
</svg>

