<svg xmlns="http://www.w3.org/2000/svg" width="300" height="300" viewBox="0 0 300 300" version="1.1">
  <defs/>
  <path d="M156,92.383 C156,91.261 159.118,91 172.5,91 C186.5,91 189,91.227 189,92.5 C189,93.325 189.675,94 190.5,94 C191.698,94 192,95.487 192,101.383 C192,107.926 191.772,108.826 190,109.29 C188.9,109.577 188,110.558 188,111.47 C188,113.852 181.645,113.181 181.185,110.75 C180.992,109.733 181.463,109 182.31,109 C183.657,109 184.954,106.214 184.986,103.25 C184.995,102.456 183.541,102 181,102 C178.111,102 177,101.583 177,100.5 C177,99.675 176.325,99 175.5,99 C174.675,99 174,99.675 174,100.5 C174,101.742 172.111,102 163,102 C151.443,102 151.366,102.035 152.616,106.694 C153.037,108.264 154.1,108.976 156.352,109.194 C158.987,109.45 159.553,109.968 159.828,112.372 C160.009,113.951 159.756,115.644 159.266,116.134 C157.966,117.434 152,115.99 152,114.375 C152,113.619 151.325,113 150.5,113 C149.675,113 149,113.675 149,114.5 C149,115.325 148.353,116 147.561,116 C145.463,116 144.811,122.385 145.328,137.897 C145.693,148.871 146.065,151.457 147.387,152.196 C148.274,152.693 149,153.752 149,154.55 C149,155.679 150.551,156 156,156 C161.556,156 163,155.69 163,154.5 C163,153.3 164.5,153 170.5,153 C176.5,153 178,153.3 178,154.5 C178,155.548 179.056,156 181.5,156 C183.896,156 185,155.541 185,154.545 C185,153.675 186.405,152.827 188.5,152.434 C190.505,152.058 192,151.184 192,150.389 C192,149.468 193.18,149 195.5,149 C197.813,149 199,149.469 199,150.383 C199,151.144 199.9,152.002 201,152.29 C202.448,152.668 203,153.654 203,155.861 C203,158.566 202.597,158.985 199.42,159.581 C197.451,159.95 195.603,160.871 195.313,161.626 C194.891,162.727 190.86,163 175.018,163 C164.146,163 153.844,163.281 152.125,163.625 L149,164.25 L149,178.125 C149,189.792 149.239,192 150.5,192 C151.753,192 152,194.056 152,204.5 L152,217 L174,217 C192.146,217 196,216.756 196,215.606 C196,214.558 198.052,214.113 204.25,213.815 C216.749,213.214 217,213.318 217,219.117 L217,224 L213.25,224.178 C211.188,224.276 208.6,224.287 207.5,224.201 C206.4,224.115 197.738,224.315 188.25,224.644 C174.549,225.12 171,225.527 171,226.622 C171,227.722 168.379,228 158,228 C145.667,228 145,228.103 145,230 C145,231.111 144.333,232 143.5,232 C142.675,232 142,232.675 142,233.5 C142,234.652 140.722,235 136.5,235 C132.278,235 131,234.652 131,233.5 C131,232.452 129.944,232 127.5,232 C124.667,232 124,231.619 124,230 C124,228.075 123.333,228 106.117,228 C89.074,228 88.209,227.906 87.71,226 C87.423,224.9 86.47,224 85.594,224 C84.717,224 84,223.325 84,222.5 C84,221.675 84.623,221 85.383,221 C86.144,221 87.002,220.1 87.29,219 C87.797,217.062 88.654,217 114.906,217 L142,217 L141.991,204.25 C141.98,188.161 141.17,181 139.361,181 C138.343,181 138,179.237 138,174 L138,167 L134.5,167 C132.18,167 131,167.468 131,168.389 C131,169.184 129.505,170.058 127.5,170.434 C125.405,170.827 124,171.675 124,172.545 C124,173.541 122.896,174 120.5,174 C118.056,174 117,174.452 117,175.5 C117,176.538 115.957,177 113.617,177 C110.953,177 110.105,176.521 109.63,174.75 C108.482,170.465 108.913,167 110.594,167 C111.47,167 112.423,166.1 112.71,165 C113.103,163.497 114.074,163 116.617,163 C118.821,163 120,162.521 120,161.625 C120,160.096 124.228,159 130.125,159 C132.903,159 134,158.575 134,157.5 C134,156.667 134.889,156 136,156 C137.908,156 138,155.333 138,141.5 C138,129.278 137.764,127 136.5,127 C135.667,127 135,126.111 135,125 C135,123.889 135.667,123 136.5,123 C137.716,123 138,121.389 138,114.5 C138,107.611 137.716,106 136.5,106 C135.675,106 135,106.675 135,107.5 C135,108.65 133.728,109 129.55,109 C125.398,109 123.866,109.417 123.122,110.75 C122.262,112.29 120.092,112.538 105.072,112.816 L88,113.132 L88,109.682 C88,105.465 89.18,105.033 100.75,105.014 C107.411,105.003 109,104.711 109,103.5 C109,102.272 110.722,102 118.5,102 C126.278,102 128,101.728 128,100.5 C128,99.476 129.032,98.997 131.25,98.991 C138.426,98.972 145,97.714 145,96.361 C145,95.495 146.182,94.995 148.25,94.986 C153,94.966 156,93.959 156,92.383 Z M116,68 C116,66.121 116.667,66 127,66 C135.807,66 138,66.282 138,67.412 C138,68.28 139.541,69.085 142,69.5 C144.459,69.915 146,70.72 146,71.588 C146,72.365 146.675,73 147.5,73 C148.333,73 149,73.889 149,75 C149,76.111 149.667,77 150.5,77 C151.548,77 152,78.056 152,80.5 C152,83.833 151.833,84 148.5,84 C146.056,84 145,83.548 145,82.5 C145,81.675 144.283,81 143.406,81 C142.53,81 141.577,80.1 141.29,79 C140.802,77.136 139.926,77 128.383,77 C116.667,77 116,76.892 116,75 C116,73.889 115.333,73 114.5,73 C113.675,73 113,72.325 113,71.5 C113,70.675 113.675,70 114.5,70 C115.333,70 116,69.111 116,68 Z M133.25,224.706 C129.522,225.424 130.5,228 134.5,228 C137.333,228 138,227.619 138,226 C138,224.009 137.531,223.881 133.25,224.706 Z"/>
</svg>

