<svg xmlns="http://www.w3.org/2000/svg" width="300" height="300" viewBox="0 0 300 300" version="1.1">
  <defs/>
  <path d="M108.816,74.646 C111.131,73.992 169.452,74.051 180.25,74.718 C186.732,75.118 189,75.613 189,76.629 C189,77.383 189.9,78 191,78 C192.111,78 193,78.667 193,79.5 C193,80.325 192.325,81 191.5,81 C190.667,81 190,81.889 190,83 C190,84.333 189.333,85 188,85 C186.9,85 186,85.612 186,86.361 C186,87.879 179.218,88.977 169.75,88.991 L164,89 L164,94 C164,97.778 163.633,99 162.5,99 C161.198,99 161,103.264 161,131.375 L161,163.75 L158.25,164.292 C156.738,164.59 154.262,164.594 152.75,164.3 C150.397,163.844 150,163.278 150,160.383 C150,157.667 149.606,157 148,157 C146.889,157 146,156.333 146,155.5 C146,154.452 144.944,154 142.5,154 C140.056,154 139,154.452 139,155.5 C139,156.629 137.791,157 134.117,157 C130.074,157 129.143,157.344 128.71,159 C128.423,160.1 127.47,161 126.594,161 C125.717,161 125,161.623 125,162.383 C125,163.144 124.1,164.002 123,164.29 C121.9,164.577 121,165.53 121,166.406 C121,167.283 120.325,168 119.5,168 C118.675,168 118,168.717 118,169.594 C118,170.47 117.1,171.423 116,171.71 C114.497,172.103 114,173.074 114,175.617 C114,177.957 113.538,179 112.5,179 C111.31,179 111,180.444 111,186 C111,191.556 111.31,193 112.5,193 C113.538,193 114,194.043 114,196.383 C114,198.926 114.497,199.897 116,200.29 C117.1,200.577 118,201.53 118,202.406 C118,203.283 118.623,204 119.383,204 C120.144,204 121.002,204.9 121.29,206 C121.577,207.1 122.53,208 123.406,208 C124.283,208 125,208.675 125,209.5 C125,210.548 126.056,211 128.5,211 C131.333,211 132,211.381 132,213 C132,214.667 132.667,215 136,215 C138.889,215 140,215.417 140,216.5 C140,217.738 141.833,218 150.5,218 C159.167,218 161,217.738 161,216.5 C161,215.379 162.201,214.997 165.75,214.986 C171.923,214.969 175,214.103 175,212.383 C175,211.373 176.484,211 180.5,211 C184.646,211 186,210.642 186,209.545 C186,208.675 187.405,207.827 189.5,207.434 C191.505,207.058 193,206.184 193,205.389 C193,204.477 194.163,204 196.383,204 C199.278,204 199.844,204.397 200.3,206.75 C200.594,208.262 200.59,210.737 200.292,212.25 C199.789,214.8 199.395,215 194.875,215 C191.405,215 190,215.396 190,216.375 C190,217.746 185.88,219 181.375,219 C179.931,219 179,219.588 179,220.5 C179,221.69 177.556,222 172,222 C166.727,222 165,222.339 165,223.375 C165,225.325 160.443,226 147.281,226 C136.654,226 135.774,225.853 135.29,224 C134.857,222.344 133.926,222 129.883,222 C126.209,222 125,221.629 125,220.5 C125,219.667 124.111,219 123,219 C121.667,219 121,218.333 121,217 C121,215.381 120.333,215 117.5,215 C114.189,215 114,214.817 114,211.611 C114,208.53 113.682,208.163 110.5,207.566 C108.405,207.173 107,206.325 107,205.455 C107,204.655 106.377,204 105.617,204 C104.041,204 103.034,201 103.014,196.25 C103.004,194.034 102.523,193 101.5,193 C100.31,193 100,191.556 100,186 C100,180.694 100.336,179 101.389,179 C102.184,179 103.058,177.505 103.434,175.5 C103.827,173.405 104.675,172 105.545,172 C106.345,172 107,171.1 107,170 C107,168.889 107.667,168 108.5,168 C109.333,168 110,167.111 110,166 C110,164.667 110.667,164 112,164 C113.333,164 114,163.333 114,162 C114,160.889 114.667,160 115.5,160 C116.325,160 117,159.325 117,158.5 C117,157.667 117.889,157 119,157 C120.333,157 121,156.333 121,155 C121,153.667 121.667,153 123,153 C124.111,153 125,152.333 125,151.5 C125,150.452 126.056,150 128.5,150 C131.333,150 132,149.619 132,148 C132,146.148 132.667,146 141,146 L150,146 L150,137 C150,129.774 150.288,128 151.461,128 C152.685,128 152.968,124.647 153.211,107.25 C153.37,95.838 153.361,86.162 153.191,85.75 C153.021,85.338 143.416,85 131.847,85 C111.471,85 110.796,85.064 110.276,87.054 C109.854,88.665 109.067,89.042 106.619,88.804 C103.905,88.539 103.459,88.077 103.186,85.243 C102.975,83.049 103.363,81.798 104.375,81.41 C105.202,81.092 106.16,79.548 106.505,77.977 C106.85,76.406 107.89,74.907 108.816,74.646 Z"/>
</svg>

