<svg xmlns="http://www.w3.org/2000/svg" width="300" height="300" viewBox="0 0 300 300" version="1.1">
  <defs/>
  <path d="M161,87 C161,85.9 161.647,85 162.439,85 C163.377,85 164.112,86.565 164.552,89.5 C165.461,95.562 164.297,103 162.439,103 C161.647,103 161,103.9 161,105 C161,106.333 160.333,107 159,107 C157.381,107 157,107.667 157,110.5 C157,112.944 156.548,114 155.5,114 C154.588,114 154,114.931 154,116.375 C154,120.88 152.746,125 151.375,125 C150.47,125 150,126.197 150,128.5 C150,130.82 149.532,132 148.611,132 C147.816,132 146.942,133.495 146.566,135.5 C146.173,137.595 145.325,139 144.455,139 C143.468,139 143,140.089 143,142.383 C143,144.926 142.503,145.897 141,146.29 C139.544,146.671 139,147.654 139,149.906 C139,151.99 138.51,153 137.5,153 C136.644,153 136,153.899 136,155.094 C136,156.346 135.197,157.397 134,157.71 C132.497,158.103 132,159.074 132,161.617 C132,163.911 131.532,165 130.545,165 C129.675,165 128.827,166.405 128.434,168.5 C128.058,170.505 127.184,172 126.389,172 C125.468,172 125,173.18 125,175.5 C125,178.333 124.619,179 123,179 C121.381,179 121,179.667 121,182.5 C121,184.944 120.548,186 119.5,186 C118.675,186 118,186.717 118,187.594 C118,188.47 117.1,189.423 116,189.71 C114.9,189.998 114,190.856 114,191.617 C114,192.377 113.325,193 112.5,193 C111.452,193 111,194.056 111,196.5 L111,200 L130.5,200 C147.167,200 150,199.782 150,198.5 C150,197.234 152.319,197 164.875,197 C181.354,197 186,196.423 186,194.375 C186,193.375 187.5,193 191.5,193 C195.722,193 197,192.652 197,191.5 C197,190.667 197.889,190 199,190 C200.111,190 201,190.667 201,191.5 C201,192.325 201.675,193 202.5,193 C203.545,193 204,194.052 204,196.466 C204,199.869 203.911,199.943 199,200.594 C195.754,201.025 194,201.739 194,202.629 C194,203.694 191.881,204 184.5,204 C177.209,204 175,204.313 175,205.345 C175,207.067 157.027,208 123.842,208 C103.316,208 100,208.209 100,209.5 C100,210.333 99.111,211 98,211 C96.242,211 96,210.333 96,205.5 C96,201.278 96.348,200 97.5,200 C98.325,200 99,199.283 99,198.406 C99,197.53 99.9,196.577 101,196.29 C102.392,195.926 103,194.926 103,193 C103,191.074 103.608,190.074 105,189.71 C106.1,189.423 107,188.47 107,187.594 C107,186.717 107.625,186 108.389,186 C109.184,186 110.058,184.505 110.434,182.5 C110.827,180.405 111.675,179 112.545,179 C113.345,179 114,178.1 114,177 C114,175.9 114.625,175 115.389,175 C116.184,175 117.058,173.505 117.434,171.5 C117.827,169.405 118.675,168 119.545,168 C120.541,168 121,166.896 121,164.5 C121,161.667 121.381,161 123,161 C124.619,161 125,160.333 125,157.5 C125,155.18 125.468,154 126.389,154 C127.184,154 128.058,152.505 128.434,150.5 C128.827,148.405 129.675,147 130.545,147 C131.43,147 132,146.021 132,144.5 C132,142.979 132.57,142 133.455,142 C134.325,142 135.173,140.595 135.566,138.5 C135.942,136.495 136.816,135 137.611,135 C138.456,135 139.005,133.923 139.014,132.25 C139.035,127.968 140.101,125 141.617,125 C142.531,125 143,123.813 143,121.5 C143,119.056 143.452,118 144.5,118 C145.523,118 146.004,116.966 146.014,114.75 C146.034,110 147.041,107 148.617,107 C149.627,107 150,105.516 150,101.5 C150,96.667 150.242,96 152,96 C153.111,96 154,95.333 154,94.5 C154,93.675 154.675,93 155.5,93 C156.333,93 157,92.111 157,91 C157,89.667 157.667,89 159,89 C160.333,89 161,88.333 161,87 Z"/>
</svg>

