<svg xmlns="http://www.w3.org/2000/svg" width="300" height="300" viewBox="0 0 300 300" version="1.1">
  <defs/>
  <path d="M132,61.383 C132,60.623 132.9,60 134,60 C135.1,60 136,60.655 136,61.455 C136,62.325 137.405,63.173 139.5,63.566 C142.682,64.163 143,64.53 143,67.611 C143,69.83 142.522,71 141.617,71 C140.101,71 139.035,73.968 139.014,78.25 C139.005,80.022 138.466,81 137.5,81 C136.277,81 136,82.677 136,90.094 C136,98.346 135.815,99.236 134,99.71 C132.344,100.143 132,101.074 132,105.117 L132,110 L137,110 C140.778,110 142,109.633 142,108.5 C142,107.3 143.5,107 149.5,107 C155.219,107 157,106.671 157,105.617 C157,103.66 160.209,103.029 170.25,103.014 C177.355,103.003 179,102.718 179,101.5 C179,100.348 180.278,100 184.5,100 L190,100 L190,103.5 C190,106.333 189.619,107 188,107 C186.381,107 186,107.667 186,110.5 L186,114 L168,114 C150.667,114 150,114.074 150,116 C150,117.81 149.333,118 143,118 C137.444,118 136,118.31 136,119.5 C136,120.333 135.111,121 134,121 C132.381,121 132,121.667 132,124.5 C132,126.848 131.535,128 130.588,128 C129.72,128 128.915,129.541 128.5,132 C128.085,134.459 127.28,136 126.412,136 C125.465,136 125,137.152 125,139.5 C125,141.813 124.531,143 123.617,143 C122.101,143 121.035,145.968 121.014,150.25 C121.005,152.022 120.466,153 119.5,153 C118.417,153 118,154.111 118,157 C118,160.333 117.667,161 116,161 C114.381,161 114,161.667 114,164.5 C114,166.848 113.535,168 112.588,168 C111.72,168 110.915,169.541 110.5,172 C110.085,174.459 109.28,176 108.412,176 C107.384,176 107,177.361 107,181 C107,185.333 106.733,186 105,186 C103.381,186 103,186.667 103,189.5 C103,191.813 102.531,193 101.617,193 C100.856,193 99.998,193.9 99.71,195 C99.423,196.1 98.47,197 97.594,197 C96.439,197 96,197.964 96,200.5 C96,203.333 95.619,204 94,204 C92.381,204 92,204.667 92,207.5 C92,209.944 91.548,211 90.5,211 C89.667,211 89,211.889 89,213 C89,214.333 88.333,215 87,215 C85.381,215 85,215.667 85,218.5 C85,220.813 84.531,222 83.617,222 C82.856,222 81.998,222.9 81.71,224 C81.329,225.456 80.346,226 78.094,226 C76.01,226 75,226.49 75,227.5 C75,228.333 74.111,229 73,229 C71.242,229 71,228.333 71,223.5 C71,219.484 71.373,218 72.383,218 C73.144,218 74.002,217.1 74.29,216 C74.577,214.9 75.53,214 76.406,214 C77.51,214 78,213.078 78,211 C78,208.922 78.49,208 79.594,208 C80.47,208 81.423,207.1 81.71,206 C81.998,204.9 82.856,204 83.617,204 C84.377,204 85,203.1 85,202 C85,200.9 85.655,200 86.455,200 C87.325,200 88.173,198.595 88.566,196.5 C88.942,194.495 89.816,193 90.611,193 C91.532,193 92,191.82 92,189.5 C92,186.667 92.381,186 94,186 C95.619,186 96,185.333 96,182.5 C96,180.18 96.468,179 97.389,179 C98.184,179 99.058,177.505 99.434,175.5 C99.827,173.405 100.675,172 101.545,172 C102.576,172 103,170.834 103,168 C103,164.667 103.333,164 105,164 C106.619,164 107,163.333 107,160.5 C107,158.056 107.452,157 108.5,157 C109.412,157 110,156.069 110,154.625 C110,150.12 111.254,146 112.625,146 C113.53,146 114,144.803 114,142.5 C114,140.197 114.47,139 115.375,139 C116.746,139 118,134.88 118,130.375 C118,128.931 118.588,128 119.5,128 C120.548,128 121,126.944 121,124.5 C121,120.651 118.84,119.676 117.121,122.75 C116.313,124.196 114.396,124.56 106.072,124.844 C98.247,125.111 96,125.501 96,126.594 C96,127.603 94.658,128.004 91.25,128.014 C85.077,128.031 82,128.897 82,130.617 C82,131.377 81.1,132 80,132 C78.242,132 78,131.333 78,126.5 C78,122.278 78.348,121 79.5,121 C80.325,121 81,120.384 81,119.631 C81,117.933 86.11,117.026 95.75,117.011 C101.523,117.002 103,116.694 103,115.5 C103,114.279 104.654,114 111.889,114 L120.777,114 L121.42,110.573 C121.774,108.688 122.61,106.963 123.278,106.741 C124.068,106.477 124.618,103.304 124.849,97.668 C125.12,91.082 125.541,89 126.603,89 C127.725,89 128,86.523 128,76.406 C128,64.654 128.134,63.778 130,63.29 C131.1,63.002 132,62.144 132,61.383 Z M135,133.5 C135,132.459 136.047,132 138.421,132 C141.403,132 141.925,132.382 142.495,134.978 C143.334,138.798 142.061,149.288 140.648,150.193 C139.958,150.635 139.422,157.948 139.165,170.443 C138.841,186.22 138.496,190 137.381,190 C136.27,190 136,192.831 136,204.5 C136,216.722 136.236,219 137.5,219 C138.51,219 139,220.01 139,222.094 C139,224.346 139.544,225.329 141,225.71 C142.1,225.998 143,226.799 143,227.491 C143,228.37 145.618,228.887 151.694,229.205 C157.07,229.488 160.536,230.108 160.777,230.831 C161.33,232.491 174.695,232.416 175.249,230.75 C175.564,229.802 182.102,229.428 202.332,229.203 L229,228.907 L229,232.953 C229,235.884 228.586,237 227.5,237 C226.675,237 226,237.675 226,238.5 C226,239.583 224.889,240 222,240 C219.28,240 218,239.562 218,238.63 C218,236.737 211.565,236.151 197.558,236.769 C188.728,237.159 186,237.6 186,238.639 C186,239.746 181.886,240 164,240 C145.935,240 142,239.753 142,238.617 C142,237.101 139.032,236.035 134.75,236.014 C132.276,236.001 132,235.648 132,232.5 C132,229.667 131.619,229 130,229 C128.19,229 128,228.333 128,222 C128,216.444 127.69,215 126.5,215 C125.348,215 125,213.722 125,209.5 C125,205.278 125.348,204 126.5,204 C127.727,204 128,202.292 128,194.625 C128,183.489 128.754,179 130.625,179 C131.75,179 132,175 132,157 C132,138.111 132.212,135 133.5,135 C134.325,135 135,134.325 135,133.5 Z"/>
</svg>

