<svg xmlns="http://www.w3.org/2000/svg" width="300" height="300" viewBox="0 0 300 300" version="1.1">
  <defs/>
  <path d="M143.25,63.745 C171.67,62.731 185,63.339 185,65.648 C185,66.655 186.786,67 192,67 C198.333,67 199,67.19 199,69 C199,70.333 199.667,71 201,71 C203.439,71 203.639,73.543 201.304,74.85 C200.055,75.549 199.497,77.538 199.187,82.4 C198.885,87.15 198.379,89 197.384,89 C196.387,89 196,90.423 196,94.094 C196,98.346 195.67,99.274 194,99.71 C192.244,100.169 192,101.074 192,107.117 C192,112.311 191.66,114 190.617,114 C189.101,114 188.035,116.968 188.014,121.25 C188.005,123.022 187.466,124 186.5,124 C185.417,124 185,125.111 185,128 C185,131.333 184.667,132 183,132 C181.381,132 181,132.667 181,135.5 C181,137.82 180.532,139 179.611,139 C178.816,139 177.942,140.495 177.566,142.5 C177.173,144.595 176.325,146 175.455,146 C174.655,146 174,146.9 174,148 C174,149.1 173.377,150 172.617,150 C171.856,150 170.998,150.9 170.71,152 C170.423,153.1 169.47,154 168.594,154 C167.717,154 167,154.675 167,155.5 C167,156.333 166.111,157 165,157 C163.667,157 163,157.667 163,159 C163,160.852 162.333,161 154,161 L145,161 L145,157.5 C145,154.482 145.327,154 147.375,154 C151.88,154 156,152.746 156,151.375 C156,150.47 157.197,150 159.5,150 C162.333,150 163,149.619 163,148 C163,146.667 163.667,146 165,146 C166.619,146 167,145.333 167,142.5 C167,140.056 167.452,139 168.5,139 C169.548,139 170,137.944 170,135.5 C170,132.667 170.381,132 172,132 C173.619,132 174,131.333 174,128.5 C174,126.104 174.459,125 175.455,125 C176.325,125 177.173,123.595 177.566,121.5 C177.942,119.495 178.816,118 179.611,118 C180.628,118 181,116.526 181,112.5 C181,107.667 181.242,107 183,107 C184.758,107 185,106.333 185,101.5 C185,97.278 185.348,96 186.5,96 C187.605,96 188,94.847 188,91.625 C188,85.259 189.052,81 190.625,81 C191.47,81 192,79.901 192,78.148 L192,75.296 L183.75,74.654 C179.213,74.301 172.688,74.009 169.25,74.006 C164.364,74.001 163,73.673 163,72.5 C163,71.667 162.111,71 161,71 C159.889,71 159,71.667 159,72.5 C159,73.758 156.85,74 145.647,74 C128.349,74 120,74.86 120,76.642 C120,77.527 118.781,78 116.5,78 C113.167,78 113,78.167 113,81.5 C113,84.81 112.817,85 109.617,85 C107.074,85 106.103,84.503 105.71,83 C105.423,81.9 104.47,81 103.594,81 C102.348,81 102,79.908 102,76 L102,71 L105.5,71 C108.333,71 109,70.619 109,69 C109,67.107 109.667,67 121.5,67 C131.802,67 134,66.743 134,65.538 C134,64.383 135.95,64.005 143.25,63.745 Z M127.63,80.25 C128.151,78.306 128.898,78 133.117,78 C137.333,78 138,78.273 138,80 C138,81.111 137.333,82 136.5,82 C135.675,82 135,82.675 135,83.5 C135,84.325 135.675,85 136.5,85 C137.803,85 138,89.278 138,117.5 C138,145.722 138.197,150 139.5,150 C140.333,150 141,150.889 141,152 C141,153.111 140.333,154 139.5,154 C138.675,154 138,154.675 138,155.5 C138,156.325 138.675,157 139.5,157 C140.333,157 141,157.889 141,159 C141,160.111 140.333,161 139.5,161 C138.213,161 138,164.056 138,182.5 C138,200.076 138.251,204 139.375,204 C141.322,204 142,208.554 142,221.625 C142,232.333 141.883,233 140,233 C138.889,233 138,233.667 138,234.5 C138,235.333 137.111,236 136,236 C134.667,236 134,236.667 134,238 C134,239.111 133.333,240 132.5,240 C131.238,240 131,237.774 131,225.969 C131,214.419 130.735,211.835 129.5,211.362 C128.244,210.88 128,207.885 128,192.976 C128,179.617 128.312,175.063 129.25,174.75 C130.146,174.452 130.599,170.44 130.85,160.6 C131.187,147.344 131.126,146.846 129.1,146.316 C127.022,145.773 127,145.432 127.014,114.133 C127.021,96.735 127.299,81.487 127.63,80.25 Z"/>
</svg>

