<svg xmlns="http://www.w3.org/2000/svg" width="300" height="300" viewBox="0 0 300 300" version="1.1">
  <defs/>
  <path d="M140,61.5 C140,60.675 140.45,60 141,60 C141.55,60 142,60.717 142,61.594 C142,62.47 142.9,63.423 144,63.71 C146.318,64.316 146.726,67 144.5,67 C143.675,67 143,67.717 143,68.594 C143,69.47 142.1,70.423 141,70.71 C139.106,71.206 139,72.074 139,87.117 L139,103 L143,103 C145.889,103 147,102.583 147,101.5 C147,100.358 148.254,99.998 152.25,99.991 C161.255,99.976 168,98.85 168,97.361 C168,96.276 170.937,96 182.5,96 L197,96 L197,107 L179,107 C163.667,107 161,107.222 161,108.5 C161,109.535 159.961,110 157.647,110 C149.723,110 142,111.304 142,112.642 C142,113.389 141.325,114 140.5,114 C139.337,114 139,115.319 139,119.875 C139,127.658 139.94,132 141.625,132 C142.749,132 143,135.924 143,153.5 C143,171.944 143.213,175 144.5,175 C145.325,175 146,175.717 146,176.594 C146,177.47 146.9,178.423 148,178.71 C149.503,179.103 150,180.074 150,182.617 C150,185.817 149.81,186 146.5,186 L143,186 L143,260.777 L139.5,261.434 C137.405,261.827 136,262.675 136,263.545 C136,264.642 134.646,265 130.5,265 C126.474,265 125,264.628 125,263.611 C125,262.816 123.505,261.942 121.5,261.566 C119.405,261.173 118,260.325 118,259.455 C118,258.655 117.1,258 116,258 C114.9,258 114,257.377 114,256.617 C114,255.856 113.1,254.998 112,254.71 C110.9,254.423 110,253.47 110,252.594 C110,251.717 109.325,251 108.5,251 C107.667,251 107,250.111 107,249 C107,247.667 106.333,247 105,247 C103.889,247 103,246.333 103,245.5 C103,244.675 102.381,244 101.625,244 C99.985,244 98.765,238.784 99.614,235.402 C100.27,232.79 103,232.062 103,234.5 C103,235.333 103.889,236 105,236 C106.333,236 107,236.667 107,238 C107,239.111 107.667,240 108.5,240 C109.325,240 110,240.717 110,241.594 C110,242.47 110.9,243.423 112,243.71 C113.1,243.998 114,244.806 114,245.505 C114,246.205 115.575,247.073 117.5,247.434 C119.595,247.827 121,248.675 121,249.545 C121,250.642 122.354,251 126.5,251 L132,251 L132,222 C132,197.976 131.763,193 130.617,193 C129.856,193 128.998,193.9 128.71,195 C128.423,196.1 127.47,197 126.594,197 C125.717,197 125,197.675 125,198.5 C125,199.325 124.283,200 123.406,200 C122.53,200 121.577,200.9 121.29,202 C121.002,203.1 120.197,204 119.5,204 C118.803,204 117.998,204.9 117.71,206 C117.423,207.1 116.47,208 115.594,208 C114.717,208 114,208.675 114,209.5 C114,210.333 113.111,211 112,211 C110.667,211 110,211.667 110,213 C110,214.538 109.333,215 107.117,215 C105.074,215 104.081,215.583 103.71,217 C103.423,218.1 102.47,219 101.594,219 C100.717,219 100,219.675 100,220.5 C100,221.333 99.111,222 98,222 C96.667,222 96,222.667 96,224 C96,225.111 95.333,226 94.5,226 C93.675,226 93,226.675 93,227.5 C93,228.325 92.152,229 91.117,229 C90.074,229 89,229.893 88.71,231 C88.329,232.456 87.346,233 85.094,233 C82.667,233 82,233.431 82,235 C82,236.333 81.333,237 80,237 C78.889,237 78,237.667 78,238.5 C78,239.325 77.325,240 76.5,240 C75.675,240 75,240.717 75,241.594 C75,242.47 74.1,243.423 73,243.71 C71.9,243.998 71,244.856 71,245.617 C71,246.377 70.1,247 69,247 C67.667,247 67,247.667 67,249 C67,250.1 66.375,251 65.611,251 C64.816,251 63.942,252.495 63.566,254.5 C62.966,257.698 62.611,258 59.455,258 L56,258 L56,252.5 C56,247.667 56.242,247 58,247 C59.333,247 60,246.333 60,245 C60,243.889 60.667,243 61.5,243 C62.325,243 63,242.325 63,241.5 C63,240.675 63.848,240 64.883,240 C65.926,240 67,239.107 67.29,238 C67.577,236.9 68.53,236 69.406,236 C70.283,236 71,235.325 71,234.5 C71,233.675 71.623,233 72.383,233 C73.144,233 74.002,232.1 74.29,231 C74.577,229.9 75.53,229 76.406,229 C77.283,229 78,228.325 78,227.5 C78,226.667 78.889,226 80,226 C81.333,226 82,225.333 82,224 C82,222.381 82.667,222 85.5,222 C88.333,222 89,221.619 89,220 C89,218.889 89.667,218 90.5,218 C91.325,218 92,217.325 92,216.5 C92,215.667 92.889,215 94,215 C95.333,215 96,214.333 96,213 C96,211.667 96.667,211 98,211 C99.111,211 100,210.333 100,209.5 C100,208.675 100.717,208 101.594,208 C102.47,208 103.423,207.1 103.71,206 C103.998,204.9 104.856,204 105.617,204 C106.377,204 107,203.325 107,202.5 C107,201.675 107.717,201 108.594,201 C109.47,201 110.416,200.126 110.695,199.057 C110.991,197.927 112.416,196.848 114.102,196.478 C115.696,196.128 117,195.202 117,194.421 C117,193.639 117.9,193 119,193 C120.333,193 121,192.333 121,191 C121,189.889 121.667,189 122.5,189 C123.325,189 124,188.325 124,187.5 C124,186.567 124.944,186 126.5,186 C128.056,186 129,185.433 129,184.5 C129,183.675 129.675,183 130.5,183 C131.728,183 132,181.278 132,173.5 C132,165.722 132.272,164 133.5,164 C134.325,164 135,163.325 135,162.5 C135,161.675 134.325,161 133.5,161 C132.209,161 132,157.722 132,137.5 L132,114 L119.5,114 C109.561,114 107,114.282 107,115.375 C107,117.497 102.28,118 82.375,118 C66.708,118 64,118.221 64,119.5 C64,120.555 62.934,121 60.406,121 C57.654,121 56.69,121.468 56.29,123 C55.634,125.509 49,125.964 49,123.5 C49,122.675 48.325,122 47.5,122 C46.417,122 46,120.889 46,118 C46,114.095 46.083,114 49.5,114 C52.333,114 53,113.619 53,112 C53,110.178 53.667,110 60.5,110 C66.351,110 68,109.684 68,108.564 C68,107.364 72.045,107.077 92.668,106.814 C111.285,106.577 117.437,106.193 117.751,105.25 C117.98,104.563 119.198,104 120.458,104 C121.719,104 124.156,103.719 125.875,103.375 L129,102.75 L129,90.375 C129,80.042 129.247,78 130.5,78 C131.652,78 132,76.722 132,72.5 C132,67.667 132.242,67 134,67 C135.333,67 136,66.333 136,65 C136,63.667 136.667,63 138,63 C139.111,63 140,62.333 140,61.5 Z M159.25,128.706 C160.488,128.467 162.006,128.211 162.625,128.136 C164.377,127.924 165.081,133.595 164.365,142.171 L163.712,150 L211,150 L211,157 C211,161.926 210.63,164.004 209.75,164.014 C209.063,164.021 207.488,164.299 206.25,164.63 C204.23,165.172 204,164.875 204,161.733 C204,158.975 203.537,158.112 201.813,157.661 C198.544,156.807 190.614,158.109 189.7,159.651 C189.13,160.614 186.48,161 180.45,161 C173.763,161 172,161.3 172,162.44 C172,163.381 170.703,163.987 168.25,164.19 C164.704,164.483 164.483,164.704 164.19,168.25 C163.987,170.703 163.381,172 162.44,172 C161.461,172 161,173.121 161,175.5 C161,177.944 161.452,179 162.5,179 C163.548,179 164,180.056 164,182.5 C164,185.333 164.381,186 166,186 C167.111,186 168,186.667 168,187.5 C168,188.742 169.889,189 179,189 C188.111,189 190,188.742 190,187.5 C190,186.371 191.209,186 194.883,186 C198.98,186 199.854,185.667 200.308,183.931 C200.742,182.272 201.506,181.925 204.166,182.181 C207.879,182.538 208.582,184.082 207.547,189.6 C206.987,192.584 206.536,193 203.861,193 C201.654,193 200.668,193.552 200.29,195 C199.819,196.799 198.926,197 191.383,197 C184.598,197 183,197.286 183,198.5 C183,199.722 181.333,200 174,200 C166.834,200 165,199.707 165,198.56 C165,197.619 163.703,197.013 161.25,196.81 C157.704,196.517 157.483,196.296 157.19,192.75 C157,190.463 156.363,189 155.556,189 C153.621,189 153.029,185.683 153.014,174.75 C153.002,166.756 152.73,165 151.5,165 C150.352,165 150,163.735 150,159.617 C150,155.06 150.31,154.152 152.016,153.706 C153.509,153.316 153.98,152.442 153.833,150.339 C153.378,143.838 153.997,140 155.5,140 C156.649,140 157,138.73 157,134.57 C157,129.733 157.246,129.092 159.25,128.706 Z M89,130 C89,128.381 89.667,128 92.5,128 L96,128 L96,134 C96,138.442 96.359,140 97.383,140 C99.447,140 99.971,143.272 99.986,156.25 C99.999,167.338 99.887,168 98,168 C96.121,168 96,168.667 96,179 C96,189.333 96.121,190 98,190 C100.159,190 100.284,190.338 99.376,193.725 C98.961,195.274 97.75,196.144 95.39,196.587 C92.958,197.043 92,197.756 92,199.111 C92,200.15 91.325,201 90.5,201 Q89,201 89,204 C89,206.333 88.556,207 87,207 C85.267,207 85,206.333 85,202 L85,197 L78,197 C72.444,197 71,197.31 71,198.5 C71,199.548 69.944,200 67.5,200 C65.056,200 64,199.548 64,198.5 C64,197.279 62.346,197 55.117,197 L46.233,197 L45.7,194.25 C45.406,192.738 45.41,190.262 45.708,188.75 C46.219,186.158 46.559,186 51.625,186 C55.736,186 57,186.353 57,187.5 C57,188.762 59.222,189 71,189 C82.778,189 85,188.762 85,187.5 C85,186.667 85.889,186 87,186 C88.852,186 89,185.333 89,177 L89,168 L78,168 C68.889,168 67,168.258 67,169.5 C67,170.466 66.022,171.005 64.25,171.014 C59.968,171.035 57,172.101 57,173.617 C57,174.377 56.152,175 55.117,175 C54.043,175 52.997,175.905 52.683,177.105 C52.38,178.263 51.54,179.015 50.816,178.776 C49.946,178.488 49.4,176.083 49.204,171.67 C48.955,166.036 49.163,165 50.548,165 C51.45,165 52.423,164.1 52.71,163 C53.209,161.093 54.074,161 71.23,161 L89.227,161 L88.832,150.323 C88.565,143.122 88.04,139.513 87.218,139.239 C85.385,138.628 85.643,132 87.5,132 C88.333,132 89,131.111 89,130 Z M157,209.389 C157,208.625 157.675,208 158.5,208 C159.325,208 160,208.675 160,209.5 C160,210.583 161.111,211 164,211 C166.875,211 168,211.419 168,212.488 C168,213.451 169.412,214.202 172,214.616 C174.2,214.968 176,215.815 176,216.499 C176,217.236 178.037,218.012 181,218.406 C184.424,218.86 186,219.531 186,220.534 C186,221.578 187.153,222 190,222 C192.789,222 194,222.43 194,223.42 C194,224.431 195.877,225.042 200.5,225.537 C205.032,226.022 207,226.652 207,227.616 C207,228.672 208.781,229 214.5,229 C220.197,229 222,229.331 222,230.375 C222,232.15 226.411,233 235.625,233 C241.514,233 243,233.302 243,234.5 C243,235.641 244.256,236.003 248.25,236.014 C251.137,236.021 254.512,236.299 255.75,236.63 C258.184,237.283 258.883,240 256.617,240 C255.856,240 254.998,240.9 254.71,242 C254.128,244.228 252.331,244.422 242.147,243.358 C237.952,242.919 236,242.284 236,241.358 C236,240.287 233.361,240 223.5,240 C213.561,240 211,239.718 211,238.625 C211,237.254 206.88,236 202.375,236 C200.931,236 200,235.412 200,234.5 C200,233.31 198.556,233 193,233 C186.667,233 186,232.81 186,231 C186,229.242 185.333,229 180.5,229 C176.278,229 175,228.652 175,227.5 C175,226.452 173.944,226 171.5,226 C168.667,226 168,225.619 168,224 C168,222.178 167.333,222 160.5,222 C154.5,222 153,221.7 153,220.5 C153,219.675 152.325,219 151.5,219 C150.456,219 150,217.949 150,215.545 C150,212.389 150.302,212.034 153.5,211.434 C155.505,211.058 157,210.184 157,209.389 Z M150,36.5 C150,35.452 151.056,35 153.5,35 L157,35 L157,41.883 C157,47.926 156.756,48.831 155,49.29 C153.9,49.577 153,50.53 153,51.406 C153,52.283 152.325,53 151.5,53 C150.667,53 150,52.111 150,51 C150,49.9 149.377,49 148.617,49 C147.856,49 146.998,49.9 146.71,51 C146.31,52.532 145.346,53 142.594,53 C139.667,53 139,53.371 139,55 C139,56.111 138.333,57 137.5,57 C136.675,57 136,57.675 136,58.5 C136,59.333 135.111,60 134,60 C132.9,60 132,60.623 132,61.383 C132,62.144 131.1,63.002 130,63.29 C128.9,63.577 128,64.53 128,65.406 C128,66.561 127.036,67 124.5,67 C121.667,67 121,67.381 121,69 C121,70.333 120.333,71 119,71 C117.9,71 117,71.639 117,72.421 C117,73.202 115.65,74.138 114,74.5 C112.35,74.862 111,75.798 111,76.579 C111,77.361 110.1,78 109,78 C107.9,78 107,78.625 107,79.389 C107,80.184 105.505,81.058 103.5,81.434 C101.405,81.827 100,82.675 100,83.545 C100,84.532 98.911,85 96.617,85 C94.074,85 93.103,85.497 92.71,87 C92.329,88.456 91.346,89 89.094,89 C87.096,89 86,89.5 86,90.412 C86,91.28 84.459,92.085 82,92.5 C79.541,92.915 78,93.72 78,94.588 C78,95.535 76.848,96 74.5,96 C70.632,96 69.544,93.614 73,92.71 C74.1,92.423 75,91.506 75,90.673 C75,89.804 76.278,88.878 78,88.5 C79.65,88.138 81,87.202 81,86.421 C81,85.639 81.9,85 83,85 C84.111,85 85,84.333 85,83.5 C85,82.445 86.066,82 88.594,82 C91.346,82 92.31,81.532 92.71,80 C92.998,78.9 93.856,78 94.617,78 C95.377,78 96,77.345 96,76.545 C96,75.675 97.405,74.827 99.5,74.434 C101.505,74.058 103,73.184 103,72.389 C103,71.625 103.9,71 105,71 C106.1,71 107,70.345 107,69.545 C107,68.675 108.405,67.827 110.5,67.434 C112.425,67.073 114,66.205 114,65.505 C114,64.806 114.9,63.998 116,63.71 C117.1,63.423 118,62.47 118,61.594 C118,60.717 118.675,60 119.5,60 C120.325,60 121,59.325 121,58.5 C121,57.675 121.717,57 122.594,57 C123.47,57 124.423,56.1 124.71,55 C125.103,53.497 126.074,53 128.617,53 C131.333,53 132,52.606 132,51 C132,49.667 132.667,49 134,49 C135.111,49 136,48.333 136,47.5 C136,46.675 136.675,46 137.5,46 C138.333,46 139,45.111 139,44 C139,42.394 139.667,42 142.383,42 C144.926,42 145.897,41.503 146.29,40 C146.577,38.9 147.53,38 148.406,38 C149.283,38 150,37.325 150,36.5 Z"/>
</svg>

