<svg xmlns="http://www.w3.org/2000/svg" width="300" height="300" viewBox="0 0 300 300" version="1.1">
  <defs/>
  <path d="M168,144.5 C168,143.213 171.056,143 189.5,143 L211,143 L211,146.5 C211,148.864 210.537,150 209.573,150 C208.789,150 207.992,150.787 207.804,151.75 C207.503,153.284 206.164,153.5 196.98,153.5 C191.216,153.5 167.038,153.613 143.25,153.75 C105.583,153.968 100,154.194 100,155.5 C100,156.648 98.734,157 94.608,157 C89.691,157 89.162,156.78 88.589,154.5 C87.658,150.788 88.883,147.266 91.335,146.608 C92.526,146.289 110.262,146.021 130.75,146.014 C163.188,146.002 168,145.806 168,144.5 Z"/>
</svg>

