<svg xmlns="http://www.w3.org/2000/svg" width="300" height="300" viewBox="0 0 300 300" version="1.1">
  <defs/>
  <path d="M168,120 L168,84 L179,84 L179,87.383 C179,89.926 178.503,90.897 177,91.29 C175.245,91.749 175.001,92.65 175.009,98.656 C175.013,102.42 175.301,107.862 175.648,110.75 L176.279,116 L182.639,116 C187.627,116 189,115.676 189,114.5 C189,113.227 191.5,113 205.5,113 L222,113 L222,116.5 C222,119.833 221.833,120 218.5,120 C216.056,120 215,120.452 215,121.5 C215,122.697 213.517,123 207.654,123 C193.569,123 182,124.195 182,125.65 C182,126.392 181.344,127 180.542,127 C179.303,127 179.04,131.549 178.792,157.25 C178.631,173.887 178.665,188.512 178.867,189.75 C179.221,191.923 179.605,192 190.117,192 C198.773,192 201,192.286 201,193.399 C201,194.396 203.005,194.998 208,195.5 C212.995,196.002 215,196.604 215,197.601 C215,198.609 216.367,199 219.883,199 C223.926,199 224.857,199.344 225.29,201 C225.69,202.532 226.654,203 229.406,203 C232.333,203 233,203.371 233,205 C233,206.1 233.626,207 234.392,207 C235.157,207 236.066,208.125 236.411,209.5 C237.237,212.791 236.131,217 234.441,217 C233.703,217 232.627,217.787 232.05,218.75 C231.05,220.417 230.95,220.417 229.95,218.75 C229.373,217.787 228.3,217 227.567,217 C226.833,217 225.998,216.1 225.71,215 C225.423,213.9 224.47,213 223.594,213 C222.717,213 222,212.325 222,211.5 C222,210.675 221.325,210 220.5,210 C219.675,210 219,209.363 219,208.585 C219,207.554 216.968,206.98 211.5,206.468 C206.122,205.964 204,205.374 204,204.383 C204,203.373 202.514,203 198.5,203 C194.278,203 193,202.652 193,201.5 C193,199.7 186.381,199.357 185.791,201.127 C185.584,201.747 183.072,202.479 180.208,202.754 L175,203.254 L175,210.627 C175,216.514 174.698,218 173.5,218 C172.367,218 172,219.222 172,223 C172,227.333 171.733,228 170,228 C168.393,228 168,228.667 168,231.389 C168,234.47 167.682,234.837 164.5,235.434 C162.405,235.827 161,236.675 161,237.545 C161,238.642 159.646,239 155.5,239 C151.354,239 150,238.642 150,237.545 C150,236.675 148.595,235.827 146.5,235.434 C144.575,235.073 143,234.205 143,233.505 C143,232.806 142.1,231.998 141,231.71 C139.544,231.329 139,230.346 139,228.094 C139,225.93 138.521,225 137.406,225 C136.53,225 135.577,224.1 135.29,223 C135.002,221.9 134.144,221 133.383,221 C132.309,221 132,219.013 132,212.117 C132,204.074 132.189,203.184 134,202.71 C135.1,202.423 136,201.47 136,200.594 C136,199.717 136.675,199 137.5,199 C138.325,199 139,198.363 139,197.585 C139,196.554 141.032,195.98 146.5,195.468 C151.878,194.964 154,194.374 154,193.383 C154,192.337 155.709,192 161,192 L168,192 L168,181 C168,171.889 168.258,170 169.5,170 C170.738,170 171,168.167 171,159.5 C171,150.833 170.738,149 169.5,149 C168.258,149 168,147.111 168,138 C168,129.859 167.675,127.004 166.75,127.014 C163.84,127.045 161,128.331 161,129.617 C161,130.627 159.516,131 155.5,131 C151.354,131 150,131.358 150,132.455 C150,133.325 148.595,134.173 146.5,134.566 C144.495,134.942 143,135.816 143,136.611 C143,137.375 142.1,138 141,138 C139.889,138 139,137.333 139,136.5 C139,135.675 138.352,135 137.559,135 C136.766,135 135.868,134.596 135.563,134.103 C134.591,132.53 136.196,127 137.625,127 C138.381,127 139,126.325 139,125.5 C139,124.588 139.931,124 141.375,124 C145.88,124 150,122.746 150,121.375 C150,120.31 152.03,120 159,120 L168,120 Z M69.25,87.706 C73.246,86.936 73.871,86.982 74.558,88.093 C74.929,88.695 74.909,96.12 74.511,104.593 C73.941,116.759 73.496,120 72.395,120 C71.26,120 71,122.981 71,136 C71,149.556 71.229,152 72.5,152 C73.695,152 74.002,153.476 74.009,159.25 C74.022,170.119 75.042,177 76.639,177 C77.56,177 78,178.293 78,181 C78,184.853 78.12,185 81.278,185 C83.318,185 85.202,184.245 86.268,183 C87.21,181.9 88.832,181 89.874,181 C90.926,181 91.999,180.112 92.29,179 C92.577,177.9 93.53,177 94.406,177 C95.51,177 96,176.078 96,174 Q96,171 97.5,171 C98.356,171 99,170.101 99,168.906 C99,167.654 99.803,166.603 101,166.29 C102.503,165.897 103,164.926 103,162.383 C103,159.667 103.394,159 105,159 C106.111,159 107,158.333 107,157.5 C107,156.675 107.675,156 108.5,156 C109.548,156 110,157.056 110,159.5 C110,161.944 109.548,163 108.5,163 C107.348,163 107,164.278 107,168.5 C107,173.333 106.758,174 105,174 C103.667,174 103,174.667 103,176 C103,177.1 102.375,178 101.611,178 C100.816,178 99.942,179.495 99.566,181.5 C99.173,183.595 98.325,185 97.455,185 C96.655,185 96,185.655 96,186.455 C96,187.325 94.595,188.173 92.5,188.566 C90.495,188.942 89,189.816 89,190.611 C89,191.375 88.377,192 87.617,192 C86.856,192 85.998,192.9 85.71,194 C85.277,195.655 84.353,195.998 80.344,195.986 C72.653,195.965 71,195.222 71,191.79 C71,189.654 70.435,188.665 69,188.29 C67.201,187.819 67,186.926 67,179.383 C67,172.794 66.695,171 65.575,171 C64.4,171 64.093,167.491 63.825,151 C63.646,140 63.646,122 63.825,111 C64.093,94.509 64.4,91 65.575,91 C66.359,91 67,90.356 67,89.57 C67,88.783 68.013,87.944 69.25,87.706 Z M189.324,63.868 C189.759,62.207 190.392,61.873 192.191,62.354 C193.461,62.694 195.063,62.979 195.75,62.986 C196.438,62.994 197,63.675 197,64.5 C197,65.325 197.675,66 198.5,66 C199.583,66 200,67.111 200,70 C200,72.889 199.583,74 198.5,74 C197.452,74 197,75.056 197,77.5 C197,79.857 196.536,81 195.579,81 C194.798,81 193.862,82.35 193.5,84 C191.907,91.253 188.194,84.729 189.504,76.978 L190.176,73 L177.638,73 C166.736,73 164.972,73.228 164.122,74.75 C163.292,76.234 161.313,76.551 151.072,76.834 C141.675,77.094 139,77.471 139,78.538 C139,79.313 137.479,80.195 135.5,80.566 C132.459,81.136 132,81.602 132,84.111 C132,88.037 129.355,87.895 128.483,83.922 C128.111,82.229 128.092,79.321 128.442,77.46 C128.983,74.571 129.583,73.981 132.538,73.427 C134.442,73.07 136,72.215 136,71.528 C136,70.053 143.268,69.021 153.75,69.009 C159.524,69.002 161,68.695 161,67.5 C161,66.258 162.889,66 172,66 C181.111,66 183,65.742 183,64.5 C183,63.675 183.675,63 184.5,63 C185.325,63 186,63.675 186,64.5 C186,66.795 188.693,66.283 189.324,63.868 Z M147,204.389 C147,205.175 145.531,206.053 143.61,206.413 C140.057,207.08 139.041,208.813 139.014,214.25 C139.003,216.338 139.482,217 141,217 C142.333,217 143,217.667 143,219 C143,220.1 143.655,221 144.455,221 C145.325,221 146.173,222.405 146.566,224.5 L147.223,228 L161,228 L161,224.5 C161,222.056 161.452,221 162.5,221 C163.412,221 164,220.069 164,218.625 C164,214.12 165.254,210 166.625,210 C167.53,210 168,208.803 168,206.5 L168,203 L157.5,203 C149.207,203 147,203.292 147,204.389 Z"/>
</svg>

