<svg xmlns="http://www.w3.org/2000/svg" width="300" height="300" viewBox="0 0 300 300" version="1.1">
  <defs/>
  <path d="M184.25,105.706 C187.896,105.004 188.39,104.998 190.75,105.63 C193.188,106.284 193.882,109 191.611,109 C190.816,109 189.942,110.495 189.566,112.5 C189.173,114.595 188.325,116 187.455,116 C186.236,116 186,118.901 186,133.883 C186,150.926 186.094,151.791 188,152.29 C189.1,152.577 190,153.53 190,154.406 C190,155.283 190.675,156 191.5,156 C192.325,156 193,155.381 193,154.625 C193,153.254 197.12,152 201.625,152 C202.992,152 204,151.407 204,150.603 C204,149.543 206.062,149.12 212.537,148.853 C217.887,148.632 221.358,148.039 221.836,147.265 C222.256,146.586 224.04,145.742 225.8,145.39 C228.269,144.896 229,145.095 229,146.258 C229,147.088 229.9,148.002 231,148.29 C232.1,148.577 233,149.53 233,150.406 C233,151.283 233.675,152 234.5,152 C235.333,152 236,152.889 236,154 C236,155.111 235.333,156 234.5,156 C233.452,156 233,157.056 233,159.5 C233,162.833 232.833,163 229.5,163 C226.167,163 226,162.833 226,159.5 L226,156 L220.5,156 C216.5,156 215,156.375 215,157.375 C215,158.948 210.741,160 204.375,160 C201.153,160 200,160.395 200,161.5 C200,162.548 198.944,163 196.5,163 C193.667,163 193,163.381 193,165 C193,166.111 192.333,167 191.5,167 C190.238,167 190,169.222 190,181 L190,195 L197,195 C202.556,195 204,194.69 204,193.5 C204,192.31 205.444,192 211,192 C216.273,192 218,191.661 218,190.625 C218,188.311 229.311,187.112 236.875,188.625 C239.634,189.177 240,189.645 240,192.625 C240,195.333 239.605,196 238,196 C236.889,196 236,196.667 236,197.5 C236,198.325 235.325,199 234.5,199 C233.675,199 233,198.325 233,197.5 C233,196.452 231.944,196 229.5,196 C227.056,196 226,196.452 226,197.5 C226,198.722 224.333,199 217,199 C208.667,199 208,199.148 208,201 C208,202.758 207.333,203 202.5,203 C198.484,203 197,203.373 197,204.383 C197,205.144 196.1,206.002 195,206.29 C193.079,206.792 193,207.654 193,228 C193,248.62 193.056,249.202 195.081,249.731 C196.625,250.135 197.015,250.82 196.594,252.388 C196.282,253.549 196.021,255.063 196.014,255.75 C196.006,256.438 195.325,257 194.5,257 C193.675,257 193,257.619 193,258.375 C193,259.949 188.292,261.151 185.245,260.354 C183.687,259.946 183.094,258.816 182.782,255.659 C182.121,248.973 183.063,242 184.627,242 C185.625,242 186,240.496 186,236.5 C186,232.278 185.652,231 184.5,231 C183.262,231 183,229.167 183,220.5 L183,210 L175,210 L175,199 L182,199 L182,186.5 C182,176.524 181.721,174 180.617,174 C179.856,174 178.998,173.1 178.71,172 C178.423,170.9 177.47,170 176.594,170 C175.348,170 175,168.908 175,165 C175,161.313 175.378,160 176.441,160 C178.914,160 179.227,158.161 178.495,147.929 C177.96,140.452 177.44,138 176.392,138 C175.306,138 175,136.023 175,129 C175,122.03 175.31,120 176.375,120 C177.746,120 179,115.88 179,111.375 C179,109.931 179.588,109 180.5,109 C181.325,109 182,108.356 182,107.57 C182,106.783 183.012,105.944 184.25,105.706 Z M168,43 C168,41.667 168.667,41 170,41 C171.111,41 172,41.667 172,42.5 C172,43.325 172.675,44 173.5,44 C174.583,44 175,45.111 175,48 C175,50.889 174.583,52 173.5,52 C172.49,52 172,53.01 172,55.094 C172,57.346 171.456,58.329 170,58.71 C168.497,59.103 168,60.074 168,62.617 C168,65.333 167.606,66 166,66 C164.381,66 164,66.667 164,69.5 C164,71.82 163.532,73 162.611,73 C161.816,73 160.942,74.495 160.566,76.5 C160.173,78.595 159.325,80 158.455,80 C157.655,80 157,80.9 157,82 C157,83.111 156.333,84 155.5,84 C154.445,84 154,85.066 154,87.594 C154,90.346 153.532,91.31 152,91.71 C150.583,92.081 150,93.074 150,95.117 C150,97.945 150.105,98 155.5,98 C159.522,98 161,97.627 161,96.613 C161,95.544 163.411,95.138 171.553,94.836 C179.266,94.551 182.343,94.063 182.985,93.025 C183.549,92.111 186.209,91.454 190.432,91.185 C194.822,90.906 197,90.35 197,89.509 C197,88.042 201.412,87 207.625,87 C210.847,87 212,86.605 212,85.5 C212,84.238 214.222,84 226,84 C239.333,84 240,84.095 240,86 C240,87.111 240.667,88 241.5,88 C242.325,88 243,88.675 243,89.5 C243,90.325 242.325,91 241.5,91 C240.667,91 240,91.889 240,93 C240,94.333 239.333,95 238,95 C236.889,95 236,95.667 236,96.5 C236,98.795 233.307,98.283 232.676,95.868 C232.241,94.207 231.608,93.873 229.809,94.354 C228.539,94.694 222.213,94.979 215.75,94.986 C205.978,94.998 204,95.253 204,96.5 C204,97.621 202.799,98.003 199.25,98.014 C193.077,98.031 190,98.897 190,100.617 C190,101.692 187.996,102 181,102 C174.03,102 172,102.31 172,103.375 C172,104.948 167.741,106 161.375,106 C158.153,106 157,106.395 157,107.5 C157,108.637 155.767,109 151.906,109 C147.654,109 146.726,109.33 146.29,111 C145.831,112.756 144.926,113 138.883,113 L132,113 L132,109 C132,106.111 132.417,105 133.5,105 C134.325,105 135,104.325 135,103.5 C135,102.667 135.889,102 137,102 C138.619,102 139,101.333 139,98.5 C139,95.667 139.381,95 141,95 C142.619,95 143,94.333 143,91.5 C143,89.18 143.468,88 144.389,88 C145.184,88 146.058,86.505 146.434,84.5 C146.827,82.405 147.675,81 148.545,81 C149.576,81 150,79.834 150,77 C150,74.166 150.424,73 151.455,73 C152.325,73 153.173,71.595 153.566,69.5 C153.942,67.495 154.816,66 155.611,66 C156.523,66 157,64.837 157,62.617 C157,60.074 157.497,59.103 159,58.71 C160.67,58.274 161,57.346 161,53.094 C161,48.667 161.262,48 163,48 C164.111,48 165,47.333 165,46.5 C165,45.675 165.675,45 166.5,45 C167.333,45 168,44.111 168,43 Z M99,114.5 C99,113.417 100.111,113 103,113 L107,113 L107,127.5 C107,139.255 107.265,142 108.399,142 C109.396,142 109.998,144.005 110.5,149 C111.002,153.995 111.604,156 112.601,156 C113.725,156 114,158.459 114,168.5 C114,178.439 114.282,181 115.375,181 C117.497,181 118,185.72 118,205.625 C118,221.292 118.221,224 119.5,224 C120.333,224 121,224.889 121,226 C121,227.333 121.667,228 123,228 C124.606,228 125,228.667 125,231.383 C125,233.926 124.503,234.897 123,235.29 C121.9,235.577 121,236.53 121,237.406 C121,238.561 120.036,239 117.5,239 C114.667,239 114,238.619 114,237 C114,235.667 113.333,235 112,235 C110.068,235 110,234.333 110,215.5 C110,198.833 109.782,196 108.5,196 C107.236,196 107,193.722 107,181.5 C107,169.821 106.731,167 105.617,167 C103.858,167 103.031,163.902 103.014,157.25 C103.004,153.416 102.621,152 101.596,152 C100.526,152 100.023,149.507 99.477,141.5 C98.937,133.583 98.422,131 97.381,131 C96.329,131 96,129.212 96,123.5 C96,117.5 96.3,116 97.5,116 C98.325,116 99,115.325 99,114.5 Z M111,71.5 C111,70.512 111.988,70 113.892,70 C116.142,70 116.922,70.554 117.411,72.5 C117.756,73.875 117.756,76.125 117.411,77.5 C116.922,79.446 116.142,80 113.892,80 C111.667,80 111,80.461 111,82 C111,83.333 110.333,84 109,84 C107.394,84 107,84.667 107,87.383 C107,89.926 106.503,90.897 105,91.29 C103.468,91.69 103,92.654 103,95.406 C103,97.884 102.548,99 101.545,99 C100.675,99 99.827,100.405 99.434,102.5 C99.058,104.505 98.184,106 97.389,106 C96.468,106 96,107.18 96,109.5 C96,111.896 95.541,113 94.545,113 C93.675,113 92.827,114.405 92.434,116.5 C92.058,118.505 91.184,120 90.389,120 C89.472,120 89,121.173 89,123.45 C89,125.579 88.385,127.245 87.394,127.799 C86.428,128.34 85.58,130.551 85.264,133.349 C84.924,136.365 84.258,138 83.37,138 C82.471,138 82,139.203 82,141.5 C82,144.333 81.619,145 80,145 C78.242,145 78,145.667 78,150.5 C78,154.646 77.642,156 76.545,156 C75.675,156 74.827,157.405 74.434,159.5 C74.073,161.425 73.203,163 72.5,163 C71.797,163 70.927,164.575 70.566,166.5 C70.205,168.425 69.519,170 69.043,170 C68.566,170 67.872,171.8 67.5,174 C67.085,176.459 66.28,178 65.412,178 C64.635,178 64,178.675 64,179.5 C64,180.333 63.111,181 62,181 C60.194,181 60,180.333 60,174.117 C60,168.074 60.244,167.169 62,166.71 C63.456,166.329 64,165.346 64,163.094 C64,161.01 64.49,160 65.5,160 C66.652,160 67,158.722 67,154.5 C67,149.667 67.242,149 69,149 C70.619,149 71,148.333 71,145.5 C71,143.056 71.452,142 72.5,142 C73.412,142 74,141.069 74,139.625 C74,135.12 75.254,131 76.625,131 C77.381,131 78,130.1 78,129 C78,127.9 78.625,127 79.389,127 C80.184,127 81.058,125.505 81.434,123.5 C81.827,121.405 82.675,120 83.545,120 C84.628,120 85,118.697 85,114.906 C85,110.654 85.33,109.726 87,109.29 C88.503,108.897 89,107.926 89,105.383 C89,103.043 89.462,102 90.5,102 C91.548,102 92,100.944 92,98.5 C92,95.667 92.381,95 94,95 C95.667,95 96,94.333 96,91 C96,88.166 96.424,87 97.455,87 C98.325,87 99.173,85.595 99.566,83.5 C99.942,81.495 100.816,80 101.611,80 C102.375,80 103,79.132 103,78.071 C103,75.416 105.654,73 108.571,73 C110.063,73 111,72.422 111,71.5 Z"/>
</svg>

