<svg xmlns="http://www.w3.org/2000/svg" width="300" height="300" viewBox="0 0 300 300" version="1.1">
  <defs/>
  <path d="M91,60.389 C91,59.468 92.18,59 94.5,59 C96.944,59 98,59.452 98,60.5 C98,61.523 99.034,62.004 101.25,62.014 C106,62.034 109,63.041 109,64.617 C109,65.564 110.261,66 113,66 C115.789,66 117,66.43 117,67.421 C117,68.202 118.308,69.128 119.906,69.479 C121.874,69.912 123.011,70.906 123.425,72.559 C124.249,75.839 123.111,80 121.392,80 C120.626,80 120,80.9 120,82 C120,83.1 119.375,84 118.611,84 C117.816,84 116.942,85.495 116.566,87.5 C116.151,89.71 115.339,91 114.361,91 C113.509,91 112.577,91.9 112.29,93 C112.002,94.1 111.144,95 110.383,95 C109.623,95 109,95.675 109,96.5 C109,97.333 109.889,98 111,98 C112.619,98 113,98.667 113,101.5 C113,103.848 113.465,105 114.412,105 C115.28,105 116.085,106.541 116.5,109 C116.915,111.459 117.72,113 118.588,113 C119.611,113 120,114.344 120,117.883 C120,121.926 120.344,122.857 122,123.29 C123.532,123.69 124,124.654 124,127.406 C124,129.934 124.445,131 125.5,131 C126.548,131 127,132.056 127,134.5 C127,137.333 127.381,138 129,138 C130.81,138 131,138.667 131,145 C131,150.556 131.31,152 132.5,152 C133.412,152 134,152.931 134,154.375 C134,158.88 135.254,163 136.625,163 C137.76,163 138,168.061 138,192 C138,215.939 137.76,221 136.625,221 C135.254,221 134,225.12 134,229.625 C134,231.069 133.412,232 132.5,232 C131.534,232 130.995,232.978 130.986,234.75 C130.965,239.032 129.899,242 128.383,242 C127.469,242 127,243.187 127,245.5 C127,247.82 126.532,249 125.611,249 C124.816,249 123.942,250.495 123.566,252.5 C123.173,254.595 122.325,256 121.455,256 C120.655,256 120,256.9 120,258 C120,259.333 119.333,260 118,260 C116.889,260 116,259.333 116,258.5 C116,257.675 115.325,257 114.5,257 C113.452,257 113,258.056 113,260.5 C113,263.833 112.833,264 109.5,264 C107.18,264 106,263.532 106,262.611 C106,261.816 104.505,260.942 102.5,260.566 C100.405,260.173 99,259.325 99,258.455 C99,257.655 98.1,257 97,257 C95.667,257 95,256.333 95,255 C95,253.667 94.333,253 93,253 C91.889,253 91,252.333 91,251.5 C91,250.675 90.325,250 89.5,250 C88.667,250 88,249.111 88,248 C88,246.667 87.333,246 86,246 C84.889,246 84,245.333 84,244.5 C84,243.452 82.944,243 80.5,243 C77.083,243 77,242.905 77,239 C77,235.3 77.206,235.001 79.75,235.014 C84.032,235.035 87,236.101 87,237.617 C87,238.377 87.9,239 89,239 C90.111,239 91,239.667 91,240.5 C91,241.548 92.056,242 94.5,242 C97.333,242 98,242.381 98,244 C98,245.333 98.667,246 100,246 C101.1,246 102,246.635 102,247.412 C102,249.153 108.735,250.437 112.978,249.505 C115.525,248.945 116,248.368 116,245.827 C116,243.654 116.558,242.667 118,242.29 C119.503,241.897 120,240.926 120,238.383 C120,236.043 120.462,235 121.5,235 C122.412,235 123,234.069 123,232.625 C123,228.12 124.254,224 125.625,224 C126.606,224 127,222.583 127,219.05 C127,215.374 127.451,213.848 128.75,213.122 C130.277,212.269 130.541,210.159 130.82,196.572 L131.141,181 L125.57,181 C120.667,181 120,181.239 120,183 C120,184.893 119.333,185 107.5,185 C97.056,185 95,185.247 95,186.5 C95,187.712 93.223,188.036 85.75,188.187 C76.642,188.37 72.688,188.517 68.25,188.838 C66.989,188.929 66,189.659 66,190.5 C66,191.688 64.569,192 59.117,192 C53.074,192 52.169,191.756 51.71,190 C51.423,188.9 50.47,188 49.594,188 C48.717,188 48,187.325 48,186.5 C48,185.667 47.111,185 46,185 C44.407,185 44.003,184.338 44.014,181.75 C44.042,174.914 44.762,174 50.117,174 C54.333,174 55,174.273 55,176 C55,177.333 55.667,178 57,178 C58.111,178 59,178.667 59,179.5 C59,180.753 61.056,181 71.5,181 C81.318,181 84,180.711 84,179.652 C84,178.29 97.21,177 111.156,177 C115.684,177 117,176.662 117,175.5 C117,174.344 118.293,174 122.639,174 L128.279,174 L127.648,168.75 C127.301,165.863 127.013,161.813 127.009,159.75 C127.003,157.191 126.551,156 125.588,156 C124.72,156 123.915,154.459 123.5,152 C123.085,149.541 122.28,148 121.412,148 C120.384,148 120,146.639 120,143 C120,139.24 119.631,138 118.512,138 C117.549,138 116.798,136.588 116.384,134 C115.998,131.587 115.2,130 114.372,130 C113.471,130 113,128.8 113,126.5 C113,124.104 112.541,123 111.545,123 C110.675,123 109.827,121.595 109.434,119.5 C109.058,117.495 108.184,116 107.389,116 C106.503,116 106,114.879 106,112.906 C106,110.654 105.456,109.671 104,109.29 C102.497,108.897 102,107.926 102,105.383 C102,102.667 101.606,102 100,102 C98.667,102 98,101.333 98,100 C98,98.889 97.333,98 96.5,98 C94.085,98 94.533,92.355 97,91.71 C98.1,91.423 99,90.506 99,89.673 C99,88.804 100.278,87.878 102,87.5 C103.65,87.138 105,86.202 105,85.421 C105,84.639 105.9,84 107,84 C108.163,84 109,83.333 109,82.406 C109,81.53 109.9,80.577 111,80.29 C112.1,80.002 112.992,79.257 112.983,78.633 C112.948,76.382 108.222,73 105.109,73 C103.012,73 102,72.512 102,71.5 C102,70.458 100.951,70 98.563,70 C95.417,70 95.1,70.275 94.813,73.25 C94.394,77.601 91.614,77.678 91.194,73.351 C90.931,70.64 90.409,70.112 87.444,69.556 C84.456,68.995 84,68.524 84,66 C84,63.467 84.452,63.006 87.5,62.434 C89.505,62.058 91,61.184 91,60.389 Z M178,146.594 C178,144.073 184.041,144.439 184.71,147 C184.998,148.1 185.856,149 186.617,149 C187.377,149 188,149.675 188,150.5 C188,151.333 188.889,152 190,152 C191.333,152 192,152.667 192,154 C192,155.606 192.667,156 195.383,156 C197.926,156 198.897,156.497 199.29,158 C199.577,159.1 200.53,160 201.406,160 C202.283,160 203,160.675 203,161.5 C203,162.333 203.889,163 205,163 C206.1,163 207,163.639 207,164.421 C207,165.202 208.35,166.138 210,166.5 C211.722,166.878 213,167.804 213,168.673 C213,169.506 213.9,170.423 215,170.71 C216.1,170.998 217,171.856 217,172.617 C217,173.377 217.9,174 219,174 C220.333,174 221,174.667 221,176 C221,177.333 221.667,178 223,178 C224.111,178 225,178.667 225,179.5 C225,180.325 225.675,181 226.5,181 C227.333,181 228,181.889 228,183 C228,184.333 228.667,185 230,185 C231.111,185 232,185.667 232,186.5 C232,187.325 232.675,188 233.5,188 C234.333,188 235,188.889 235,190 C235,191.333 235.667,192 237,192 C238.111,192 239,192.667 239,193.5 C239,194.325 239.648,195 240.441,195 C242.538,195 243.074,196.382 242.36,199.951 C241.795,202.773 241.4,203.074 238.614,202.803 C235.931,202.542 235.458,202.065 235.194,199.351 C234.931,196.64 234.409,196.112 231.444,195.556 C229.393,195.171 228,194.321 228,193.455 C228,192.655 227.1,192 226,192 C224.667,192 224,191.333 224,190 C224,188.889 223.333,188 222.5,188 C221.675,188 221,187.325 221,186.5 C221,185.667 220.111,185 219,185 C217.9,185 217,184.345 217,183.545 C217,182.675 215.595,181.827 213.5,181.434 C211.495,181.058 210,180.184 210,179.389 C210,178.625 209.283,178 208.406,178 C207.53,178 206.577,177.1 206.29,176 C206.002,174.9 205.144,174 204.383,174 C203.623,174 203,173.345 203,172.545 C203,171.675 201.595,170.827 199.5,170.434 C197.495,170.058 196,169.184 196,168.389 C196,167.625 195.1,167 194,167 C192.667,167 192,166.333 192,165 C192,163.381 191.333,163 188.5,163 C186.056,163 185,162.548 185,161.5 C185,160.445 183.934,160 181.406,160 C178.654,160 177.69,159.532 177.29,158 C177.002,156.9 176.144,156 175.383,156 C174.478,156 174,154.831 174,152.617 C174,150.074 174.497,149.103 176,148.71 C177.1,148.423 178,147.47 178,146.594 Z M211.75,37.689 C212.713,37.438 215.188,37.18 217.25,37.116 C220.891,37.003 221,37.102 221,40.5 C221,43.036 221.439,44 222.594,44 C223.47,44 224.423,44.9 224.71,46 C224.998,47.1 225.856,48 226.617,48 C227.377,48 228,48.9 228,50 C228,51.111 228.667,52 229.5,52 C230.325,52 231,52.675 231,53.5 C231,54.325 231.85,55 232.889,55 C234.255,55 234.959,55.967 235.434,58.5 C235.827,60.595 236.675,62 237.545,62 C238.345,62 239,62.9 239,64 C239,65.333 239.667,66 241,66 C242.111,66 243,66.667 243,67.5 C243,68.325 243.675,69 244.5,69 C245.333,69 246,69.889 246,71 C246,72.333 246.667,73 248,73 C249.333,73 250,73.667 250,75 C250,76.619 250.667,77 253.5,77 C256.833,77 257,77.167 257,80.5 C257,83.833 256.833,84 253.5,84 C251.18,84 250,83.532 250,82.611 C250,81.816 248.505,80.942 246.5,80.566 C244.405,80.173 243,79.325 243,78.455 C243,77.655 242.1,77 241,77 C239.667,77 239,76.333 239,75 C239,73.667 238.333,73 237,73 C235.9,73 235,72.377 235,71.617 C235,70.856 234.1,69.998 233,69.71 C231.9,69.423 231,68.47 231,67.594 C231,66.717 230.325,66 229.5,66 C228.667,66 228,65.111 228,64 C228,62.889 227.333,62 226.5,62 C225.675,62 225,61.325 225,60.5 C225,59.667 224.111,59 223,59 C221.667,59 221,58.333 221,57 C221,55.667 220.333,55 219,55 C217.667,55 217,54.333 217,53 C217,51.889 216.333,51 215.5,51 C214.675,51 214,50.325 214,49.5 C214,48.667 213.111,48 212,48 C210.271,48 210,47.333 210,43.073 C210,39.222 210.382,38.047 211.75,37.689 Z M192,60.383 C192,59.469 193.187,59 195.5,59 C197.944,59 199,59.452 199,60.5 C199,61.333 199.889,62 201,62 C202.333,62 203,62.667 203,64 C203,65.333 203.667,66 205,66 C206.111,66 207,66.667 207,67.5 C207,68.325 207.675,69 208.5,69 C209.325,69 210,68.325 210,67.5 C210,66.675 210.623,66 211.383,66 C212.959,66 213.966,69 213.986,73.75 L214,77 L206.5,77 C199.667,77 199,76.822 199,75 C199,73.889 198.333,73 197.5,73 C196.675,73 196,72.352 196,71.56 C196,70.619 194.703,70.013 192.25,69.81 C188.807,69.525 188.474,69.228 188.181,66.174 C187.925,63.506 188.271,62.742 189.931,62.308 C191.069,62.01 192,61.144 192,60.383 Z"/>
</svg>

