<svg xmlns="http://www.w3.org/2000/svg" width="300" height="300" viewBox="0 0 300 300" version="1.1">
  <defs/>
  <path d="M163.422,109.562 C164.082,106.048 164.158,106 169.045,106 L174,106 L174,120 C174,131.125 174.279,134 175.358,134 C177.154,134 178,142.371 178,160.147 C178,171.794 178.239,174 179.5,174 C180.779,174 181.024,176.99 181.164,194.25 C181.254,205.387 181.216,216.608 181.078,219.185 L180.828,223.869 L184.664,224.185 C188.203,224.476 188.525,224.757 188.819,227.826 C189.075,230.494 188.729,231.258 187.069,231.692 C185.931,231.99 185,232.856 185,233.617 C185,234.627 183.516,235 179.5,235 C175.278,235 174,234.652 174,233.5 C174,232.675 173.325,232 172.5,232 C171.417,232 171,230.889 171,228 C171,225.111 171.417,224 172.5,224 C173.771,224 174,221.556 174,208 C174,195.172 173.73,192 172.639,192 C170.736,192 170.019,184.705 170.009,165.25 C170.001,151.476 169.771,149 168.5,149 C167.247,149 167,146.95 167,136.55 C167,126.158 166.734,123.951 165.394,123.201 C163.505,122.143 162.442,114.79 163.422,109.562 Z M182,67.594 C182,66.348 183.092,66 187,66 L192,66 L192,69.5 C192,71.813 191.531,73 190.617,73 C189.856,73 188.998,73.9 188.71,75 C188.397,76.197 187.346,77 186.094,77 C184.899,77 184,77.644 184,78.5 Q184,80 181,80 C178.667,80 178,80.444 178,82 C178,83.333 177.333,84 176,84 C174.667,84 174,84.667 174,86 C174,87.333 173.333,88 172,88 C170.889,88 170,88.667 170,89.5 C170,90.325 169.325,91 168.5,91 C167.667,91 167,91.889 167,93 C167,94.333 166.333,95 165,95 C163.667,95 163,95.667 163,97 C163,98.111 162.333,99 161.5,99 C160.675,99 160,99.675 160,100.5 C160,101.333 159.111,102 158,102 C156.667,102 156,102.667 156,104 C156,105.111 155.333,106 154.5,106 C153.675,106 153,106.675 153,107.5 C153,108.325 152.15,109 151.111,109 C149.745,109 149.041,109.967 148.566,112.5 C148.173,114.595 147.325,116 146.455,116 C145.655,116 145,116.9 145,118 C145,119.333 144.333,120 143,120 C141.889,120 141,120.667 141,121.5 C141,122.325 140.325,123 139.5,123 C138.667,123 138,123.889 138,125 C138,126.333 137.333,127 136,127 C134.667,127 134,127.667 134,129 C134,130.111 133.333,131 132.5,131 C131.675,131 131,131.675 131,132.5 C131,133.333 130.111,134 129,134 C127.667,134 127,134.667 127,136 C127,137.333 126.333,138 125,138 C123.889,138 123,138.667 123,139.5 C123,140.325 122.325,141 121.5,141 C120.348,141 120,142.278 120,146.5 L120,152 L114.5,152 C109.163,152 109,151.918 109.014,149.25 C109.035,144.968 110.101,142 111.617,142 C112.377,142 113,141.1 113,140 C113,138.9 113.623,138 114.383,138 C115.144,138 116.002,137.1 116.29,136 C116.577,134.9 117.53,134 118.406,134 C119.333,134 120,133.163 120,132 C120,130.889 120.667,130 121.5,130 C122.325,130 123,129.325 123,128.5 C123,127.667 123.889,127 125,127 C126.333,127 127,126.333 127,125 C127,123.667 127.667,123 129,123 C130.111,123 131,122.333 131,121.5 C131,120.675 131.625,120 132.389,120 C133.184,120 134.058,118.505 134.434,116.5 C134.827,114.405 135.675,113 136.545,113 C137.345,113 138,112.325 138,111.5 C138,110.675 138.717,110 139.594,110 C140.47,110 141.423,109.1 141.71,108 C141.998,106.9 142.856,106 143.617,106 C144.377,106 145,105.1 145,104 C145,102.667 145.667,102 147,102 C148.333,102 149,101.333 149,100 C149,98.889 149.667,98 150.5,98 C151.325,98 152,97.325 152,96.5 C152,95.667 152.889,95 154,95 C155.333,95 156,94.333 156,93 C156,91.667 156.667,91 158,91 C159.111,91 160,90.333 160,89.5 C160,88.675 160.675,88 161.5,88 C162.333,88 163,87.111 163,86 C163,84.667 163.667,84 165,84 C166.333,84 167,83.333 167,82 C167,80.889 167.667,80 168.5,80 C169.325,80 170,79.325 170,78.5 C170,77.667 170.889,77 172,77 C173.333,77 174,76.333 174,75 C174,73.667 174.667,73 176,73 C177.1,73 178,72.377 178,71.617 C178,70.856 178.9,69.998 180,69.71 C181.1,69.423 182,68.47 182,67.594 Z"/>
</svg>

