<svg xmlns="http://www.w3.org/2000/svg" width="300" height="300" viewBox="0 0 300 300" version="1.1">
  <defs/>
  <path d="M188,61.5 C188,60.452 189.056,60 191.5,60 C194.833,60 195,60.167 195,63.5 C195,65.944 194.548,67 193.5,67 C192.272,67 192,68.722 192,76.5 C192,84.278 191.728,86 190.5,86 C189.425,86 189,87.097 189,89.875 C189,95.606 187.917,100 186.505,100 C185.769,100 185.05,101.862 184.747,104.554 C184.448,107.206 183.522,109.629 182.531,110.354 C181.421,111.165 180.945,112.626 181.164,114.549 C181.45,117.063 181.981,117.546 184.75,117.813 C186.763,118.007 188,118.673 188,119.563 C188,120.573 189.19,121 192,121 C194.739,121 196,121.436 196,122.383 C196,123.959 199,124.966 203.75,124.986 C205.966,124.996 207,125.477 207,126.5 C207,127.51 208.01,128 210.094,128 C212.346,128 213.329,128.544 213.71,130 C213.998,131.1 214.856,132 215.617,132 C216.531,132 217,133.187 217,135.5 C217,137.944 216.548,139 215.5,139 C214.667,139 214,139.889 214,141 C214,142.667 213.333,143 210,143 L206,143 L206,139 C206,135.095 205.917,135 202.5,135 C200.056,135 199,134.548 199,133.5 C199,132.348 197.722,132 193.5,132 C189.278,132 188,131.652 188,130.5 C188,129.425 186.903,129 184.125,129 C181.994,129 178.844,128.719 177.125,128.375 C174.409,127.832 174,128.028 174,129.875 C174,131.097 173.363,132 172.5,132 C171.445,132 171,133.066 171,135.594 C171,138.346 170.532,139.31 169,139.71 C167.121,140.202 167,141.074 167,154.117 L167,168 L174.5,168 C180.36,168 182,167.685 182,166.561 C182,165.511 183.895,164.934 189,164.431 C193.927,163.946 196,163.336 196,162.371 C196,161.376 197.508,161 201.5,161 L207,161 L207,164.5 C207,167.567 206.69,168 204.5,168 C203.038,168 202,168.574 202,169.383 C202,170.899 199.032,171.965 194.75,171.986 C192.978,171.995 192,172.534 192,173.5 C192,174.753 189.944,175 179.5,175 L167,175 L167,184 C167,190.996 166.692,193 165.617,193 C163.66,193 163.029,196.209 163.014,206.25 C163.003,213.355 162.718,215 161.5,215 C160.452,215 160,216.056 160,218.5 L160,222 L177.5,222 C191.682,222 195,221.739 195,220.625 C195,218.805 199.447,218 209.5,218 C219.553,218 224,218.805 224,220.625 C224,221.381 224.9,222 226,222 C227.619,222 228,222.667 228,225.5 C228,228.036 227.561,229 226.406,229 C225.53,229 224.577,229.9 224.29,231 C223.514,233.967 217,233.895 217,230.919 C217,228.865 216.715,228.842 195.833,229.169 C180.03,229.416 174.561,229.817 174.25,230.75 C173.756,232.232 171,232.444 171,231 C171,230.45 169.2,230 167,230 C164.111,230 163,230.417 163,231.5 C163,232.773 160.5,233 146.5,233 C133.295,233 130,233.27 130,234.353 C130,235.896 120.131,237 106.349,237 C100.203,237 98.066,237.33 98.25,238.25 C98.406,239.032 97.095,239.616 94.75,239.81 C91.53,240.077 91,239.83 91,238.06 C91,236.896 90.348,236 89.5,236 C88.675,236 88,235.325 88,234.5 C88,233.675 88.675,233 89.5,233 C90.333,233 91,232.111 91,231 C91,229.381 91.667,229 94.5,229 C96.944,229 98,228.548 98,227.5 C98,225.952 98.253,225.92 113,225.615 C136.861,225.121 138,225.025 138,223.5 C138,222.31 139.444,222 145,222 C151.702,222 152,221.899 152,219.625 C152,215.12 153.254,211 154.625,211 C155.741,211 156,207.606 156,193 L156,175 L143.617,175 C132.074,175 131.198,175.136 130.71,177 C130.037,179.573 124.544,179.794 123.15,177.304 C122.451,176.055 120.462,175.497 115.6,175.187 L109,174.767 L109,171.384 C109,168.183 109.19,168 112.5,168 C114.944,168 116,167.548 116,166.5 C116,165.3 117.5,165 123.5,165 C129.5,165 131,165.3 131,166.5 C131,167.742 132.889,168 142,168 C152.333,168 153,167.879 153,166 C153,164.889 153.667,164 154.5,164 C155.69,164 156,162.556 156,157 L156,150 L150.5,150 C145.667,150 145,149.758 145,148 C145,146.889 144.333,146 143.5,146 C142.675,146 142,145.325 142,144.5 C142,143.667 141.111,143 140,143 C138.381,143 138,142.333 138,139.5 C138,136.167 137.833,136 134.5,136 C131.667,136 131,135.619 131,134 C131,132.667 130.333,132 129,132 C127.9,132 127,131.345 127,130.545 C127,129.675 125.595,128.827 123.5,128.434 C121.495,128.058 120,127.184 120,126.389 C120,125.625 119.1,125 118,125 C116.9,125 116,124.361 116,123.579 C116,122.798 114.65,121.862 113,121.5 C111.35,121.138 110,120.202 110,119.421 C110,118.639 109.1,118 108,118 C106.667,118 106,117.333 106,116 C106,114.667 105.333,114 104,114 C102.667,114 102,114.667 102,116 C102,117.111 101.333,118 100.5,118 C99.588,118 99,118.931 99,120.375 C99,124.88 97.746,129 96.375,129 C95.394,129 95,130.417 95,133.95 C95,137.544 94.54,139.158 93.322,139.84 C92.127,140.509 91.516,142.539 91.202,146.889 C90.905,150.989 90.334,153 89.468,153 C88.74,153 87.881,154.746 87.5,157 C87.085,159.459 86.28,161 85.412,161 C84.321,161 84,162.707 84,168.5 C84,174.5 83.7,176 82.5,176 C81.675,176 81,176.675 81,177.5 C81,178.333 80.111,179 79,179 C77.837,179 77,178.333 77,177.406 C77,176.53 76.1,175.577 75,175.29 C73.497,174.897 73,173.926 73,171.383 C73,168.667 73.394,168 75,168 C76.758,168 77,167.333 77,162.5 C77,158.278 77.348,157 78.5,157 C79.548,157 80,155.944 80,153.5 C80,150.667 80.381,150 82,150 C83.81,150 84,149.333 84,143 C84,137.444 84.31,136 85.5,136 C86.412,136 87,135.069 87,133.625 C87,129.12 88.254,125 89.625,125 C90.563,125 91,123.727 91,121 C91,118.261 91.436,117 92.383,117 C93.959,117 94.966,114 94.986,109.25 C94.996,107.034 95.477,106 96.5,106 C97.633,106 98,104.778 98,101 C98,96.667 98.267,96 100,96 C101.619,96 102,95.333 102,92.5 C102,89.667 102.381,89 104,89 C105.333,89 106,88.333 106,87 C106,85.381 106.667,85 109.5,85 C111.944,85 113,85.452 113,86.5 C113,87.325 113.675,88 114.5,88 C115.583,88 116,89.111 116,92 C116,94.889 115.583,96 114.5,96 C113.675,96 113,95.325 113,94.5 C113,91.413 110.081,93.05 109.434,96.5 C109.058,98.505 108.184,100 107.389,100 C106.468,100 106,101.18 106,103.5 C106,106.833 106.167,107 109.5,107 C111.944,107 113,107.452 113,108.5 C113,109.333 113.889,110 115,110 C116.333,110 117,110.667 117,112 C117,113.556 117.667,114 120,114 C122.078,114 123,114.49 123,115.594 C123,116.47 123.9,117.423 125,117.71 C126.1,117.998 127,118.856 127,119.617 C127,120.377 127.9,121 129,121 C130.333,121 131,121.667 131,123 C131,124.333 131.667,125 133,125 C134.1,125 135,125.655 135,126.455 C135,127.325 136.405,128.173 138.5,128.566 C140.505,128.942 142,129.816 142,130.611 C142,131.375 142.625,132 143.389,132 C144.184,132 145.058,133.495 145.434,135.5 C145.827,137.595 146.675,139 147.545,139 C148.345,139 149,139.9 149,141 C149,142.333 149.667,143 151,143 C152.111,143 153,143.667 153,144.5 C153,145.325 153.675,146 154.5,146 Q156,146 156,143 C156,141.127 155.485,140 154.631,140 C152.658,140 152.024,134.616 152.011,117.75 C152.002,105.31 151.765,103 150.5,103 C149.31,103 149,101.556 149,96 C149,90.444 149.31,89 150.5,89 C151.652,89 152,87.722 152,83.5 L152,78 L156,78 C159.333,78 160,78.333 160,80 C160,81.111 160.667,82 161.5,82 C162.325,82 163,82.675 163,83.5 C163,84.333 163.889,85 165,85 C166.619,85 167,85.667 167,88.5 C167,91.333 166.619,92 165,92 C163.889,92 163,91.333 163,90.5 C163,89.675 162.325,89 161.5,89 C160.238,89 160,91.222 160,103 C160,114.778 160.238,117 161.5,117 C162.583,117 163,118.111 163,121 C163,123.889 162.583,125 161.5,125 C160.675,125 160,125.675 160,126.5 C160,127.325 160.675,128 161.5,128 C162.333,128 163,128.889 163,130 C163,131.333 163.667,132 165,132 C166.758,132 167,131.333 167,126.5 C167,122.278 167.348,121 168.5,121 C169.548,121 170,119.944 170,117.5 C170,114.667 170.381,114 172,114 C173.758,114 174,113.333 174,108.5 C174,104.354 174.358,103 175.455,103 C176.325,103 177.173,101.595 177.566,99.5 C177.942,97.495 178.816,96 179.611,96 C180.693,96 181,94.013 181,87 C181,80.004 181.308,78 182.383,78 C184.142,78 184.969,74.902 184.986,68.25 C184.997,64.256 185.359,63 186.5,63 C187.325,63 188,62.325 188,61.5 Z"/>
</svg>

