<svg xmlns="http://www.w3.org/2000/svg" width="300" height="300" viewBox="0 0 300 300" version="1.1">
  <defs/>
  <path d="M224.63,54.25 C225.105,52.479 225.953,52 228.617,52 C230.957,52 232,52.462 232,53.5 C232,54.325 232.675,55 233.5,55 C234.728,55 235,56.722 235,64.5 C235,72.278 234.728,74 233.5,74 C232.25,74 232,76 232,86 C232,96 232.25,98 233.5,98 C233.749,98 233.962,97.967 234.145,98.026 C235.299,98.4 235.26,102.459 235.386,141.783 C235.484,171.983 235.716,177.2 237,177.995 C238.24,178.763 238.553,182.573 238.806,199.962 C239.061,217.491 239.353,221 240.556,221 C241.727,221 242.043,223.408 242.226,233.75 C242.542,251.565 242.469,254.865 241.738,255.595 C241.386,255.947 239.052,256.465 236.549,256.747 C233.614,257.078 232,257.746 232,258.63 C232,259.638 230.414,260 226,260 C221.333,260 220,259.667 220,258.5 C220,257.367 218.778,257 215,257 C211.24,257 210,256.631 210,255.512 C210,254.549 208.588,253.798 206,253.384 C203.587,252.998 202,252.2 202,251.372 C202,250.392 200.571,250 197,250 C192.667,250 192,249.733 192,248 C192,246.242 191.333,246 186.5,246 C181.667,246 181,245.758 181,244 C181,242.381 180.333,242 177.5,242 C174.167,242 174,241.833 174,238.5 C174,235.167 173.833,235 170.5,235 C168.056,235 167,234.548 167,233.5 C167,232.417 165.889,232 163,232 C160.111,232 159,232.417 159,233.5 C159,234.624 157.802,235 154.222,235 C150.682,235 149.001,235.518 147.732,237 C146.79,238.1 144.89,239 143.51,239 C142.026,239 141,239.572 141,240.399 C141,241.396 138.995,241.998 134,242.5 C129.005,243.002 127,243.604 127,244.601 C127,245.533 125.832,246 123.5,246 C120.667,246 120,245.619 120,244 C120,242.889 119.333,242 118.5,242 C117.667,242 117,241.111 117,240 C117,238.889 117.667,238 118.5,238 C119.738,238 120,236.167 120,227.5 C120,219.258 119.704,217 118.625,217 C116.94,217 116,212.658 116,204.875 C116,200.319 115.663,199 114.5,199 C113.379,199 112.997,197.799 112.986,194.25 C112.969,188.077 112.103,185 110.383,185 C108.918,185 108.521,180.389 109.63,176.25 C110.151,174.306 110.898,174 115.117,174 C119.292,174 120,174.283 120,175.951 C120,177.808 120.564,177.873 131.756,177.31 C146.58,176.565 159,177.602 159,179.585 C159,180.428 160.011,181 161.5,181 C163.056,181 164,181.567 164,182.5 C164,183.325 164.675,184 165.5,184 C166.72,184 166.997,185.633 166.986,192.75 C166.971,202.791 166.34,206 164.383,206 C163.623,206 163,206.9 163,208 C163,209.1 162.375,210 161.611,210 C160.816,210 159.942,211.495 159.566,213.5 C159.173,215.595 158.325,217 157.455,217 C156.655,217 156,217.9 156,219 C156,220.357 155.333,221 153.927,221 C152.492,221 151.957,221.538 152.19,222.746 C152.49,224.304 153.682,224.455 163.263,224.15 L174,223.808 L174,227.904 C174,230.878 174.411,232 175.5,232 C176.325,232 177,232.675 177,233.5 C177,234.435 177.946,235 179.51,235 C180.89,235 182.79,235.9 183.732,237 C185.043,238.531 186.682,239 190.722,239 C194.747,239 196,239.356 196,240.5 C196,241.637 197.233,242 201.094,242 C205.346,242 206.274,242.33 206.71,244 C207.191,245.838 208.074,246 217.617,246 C226.18,246 228,246.263 228,247.5 C228,249.854 230.699,249.253 231.37,246.75 C232.171,243.76 232.16,226.565 231.35,215.154 C230.875,208.456 230.338,206 229.35,206 C228.608,206 228,205.325 228,204.5 C228,203.675 228.675,203 229.5,203 C230.548,203 231,201.944 231,199.5 C231,197.056 230.548,196 229.5,196 C228.217,196 228,193.111 228,176 C228,158.889 227.783,156 226.5,156 C225.219,156 224.998,153.188 224.986,136.75 C224.979,126.162 224.701,116.487 224.37,115.25 C223.716,112.812 221,112.118 221,114.389 C221,115.184 219.505,116.058 217.5,116.434 C215.405,116.827 214,117.675 214,118.545 C214,119.576 212.834,120 210,120 C206.667,120 206,120.333 206,122 C206,123.556 205.333,124 203,124 Q200,124 200,125.5 C200,126.356 199.101,127 197.906,127 C196.654,127 195.603,127.803 195.29,129 C194.897,130.503 193.926,131 191.383,131 C189.089,131 188,131.468 188,132.455 C188,133.325 186.595,134.173 184.5,134.566 C182.495,134.942 181,135.816 181,136.611 C181,137.532 179.82,138 177.5,138 C174.667,138 174,138.381 174,140 C174,141.111 173.333,142 172.5,142 C171.675,142 171,142.625 171,143.389 C171,144.177 169.527,145.054 167.597,145.416 C165.725,145.767 163.939,146.717 163.628,147.527 C163.224,148.579 161.48,149 157.531,149 C153.281,149 152,149.347 152,150.5 C152,151.548 150.944,152 148.5,152 L145,152 L145,147.111 C145,142.316 145.067,142.21 148.5,141.566 C150.595,141.173 152,140.325 152,139.455 C152,138.424 153.166,138 156,138 C159.544,138 160,137.729 160,135.625 C160,131.12 158.746,127 157.375,127 C156.24,127 156,121.939 156,98 C156,73.61 156.226,69 157.421,69 C158.202,69 159.128,67.696 159.478,66.102 C160.198,62.821 162.079,62.034 169.25,62.014 C173.338,62.002 174,62.279 174,64 C174,65.333 173.333,66 172,66 C170.889,66 170,66.667 170,67.5 C170,68.325 169.325,69 168.5,69 C167.675,69 167,69.878 167,70.95 C167,72.023 166.213,73.341 165.25,73.879 C163.804,74.687 163.44,76.604 163.156,84.928 C162.826,94.593 162.897,95 164.906,95 C166.333,95 167,94.363 167,93 C167,91.381 167.667,91 170.5,91 C173.333,91 174,90.619 174,89 C174,87.667 174.667,87 176,87 C177.111,87 178,86.333 178,85.5 C178,84.31 179.444,84 185,84 C190.556,84 192,83.69 192,82.5 C192,81.452 193.056,81 195.5,81 C197.944,81 199,81.452 199,82.5 C199,83.333 199.889,84 201,84 C202.333,84 203,84.667 203,86 C203,87.111 203.667,88 204.5,88 C205.69,88 206,89.444 206,95 C206,100.556 205.69,102 204.5,102 C203.462,102 203,103.043 203,105.383 C203,107.926 202.503,108.897 201,109.29 C199.554,109.668 199,110.654 199,112.847 C199,114.516 199.34,116.092 199.756,116.349 C201.22,117.254 206,115.75 206,114.383 C206,113.623 206.9,113 208,113 C209.333,113 210,112.333 210,111 C210,109.267 210.667,109 215,109 C218.778,109 220,108.633 220,107.5 C220,106.667 220.889,106 222,106 C223.86,106 224,105.333 224,96.5 C224,88.722 223.728,87 222.5,87 C221.278,87 221,85.333 221,78 C221,70.667 221.278,69 222.5,69 C223.672,69 224.003,67.633 224.014,62.75 C224.021,59.313 224.299,55.487 224.63,54.25 Z M66,60.383 C66,59.257 69.341,59 84,59 C99.333,59 102,59.222 102,60.5 C102,61.621 103.201,62.003 106.75,62.014 C112.923,62.031 116,62.897 116,64.617 C116,65.627 117.484,66 121.5,66 L127,66 L127,73 C127,78.556 126.69,80 125.5,80 C124.327,80 123.999,81.364 123.994,86.25 C123.982,98.673 122.783,109 121.352,109 C120.278,109 120,111.984 120,123.5 L120,138 L123.5,138 C125.848,138 127,137.535 127,136.588 C127,135.72 128.541,134.915 131,134.5 C133.459,134.085 135,133.28 135,132.412 C135,131.635 135.675,131 136.5,131 C137.548,131 138,132.056 138,134.5 C138,136.813 137.531,138 136.617,138 C135.856,138 134.998,138.9 134.71,140 C134.31,141.532 133.346,142 130.594,142 C128.066,142 127,142.445 127,143.5 C127,144.548 125.944,145 123.5,145 L120,145 L120,160.105 L114.75,159.802 L109.5,159.5 L109.638,154.25 L109.775,149 L103.888,149 C99.321,149 98,149.337 98,150.5 C98,151.466 97.022,152.005 95.25,152.014 C90.968,152.035 88,153.101 88,154.617 C88,155.627 86.516,156 82.5,156 C78.474,156 77,156.372 77,157.389 C77,158.184 75.505,159.058 73.5,159.434 L70,160.091 L70,181.906 C70,193.904 69.71,205.834 69.356,208.416 C68.776,212.649 68.924,213.167 70.856,213.673 C72.679,214.149 73,214.965 73,219.117 C73,222.791 72.629,224 71.5,224 C70.667,224 70,224.889 70,226 C70,227.758 69.333,228 64.5,228 L59,228 L59,210 C59,194.667 59.222,192 60.5,192 C61.818,192 62,184.156 62,127.406 C62,63.654 62.026,62.806 64,62.29 C65.1,62.002 66,61.144 66,60.383 Z M73,75 C73,78.778 72.633,80 71.5,80 C70.278,80 70,81.667 70,89 C70,96.333 70.278,98 71.5,98 C72.652,98 73,99.278 73,103.5 L73,109 L88.883,109 C103.926,109 104.794,109.106 105.29,111 C105.577,112.1 106.53,113 107.406,113 C108.713,113 109,114.262 109,120 C109,125.556 108.69,127 107.5,127 C106.675,127 106,127.717 106,128.594 C106,129.47 105.1,130.423 104,130.71 C102.9,130.998 102,131.856 102,132.617 C102,135.039 99.242,134.102 98.578,131.454 C97.839,128.51 98.511,127 100.559,127 C101.617,127 102,125.702 102,122.116 L102,117.233 L95.669,116.555 C88.47,115.784 84,116.571 84,118.608 C84,119.532 82.823,120 80.5,120 C78.056,120 77,120.452 77,121.5 C77,122.333 76.111,123 75,123 C73.242,123 73,123.667 73,128.5 C73,132.722 72.652,134 71.5,134 C69.137,134 69.373,144.604 71.75,145.221 C75.42,146.173 91,144.78 91,143.5 C91,142.083 95.388,141 101.125,141 C103.903,141 105,140.575 105,139.5 C105,138.452 106.056,138 108.5,138 C111.333,138 112,137.619 112,136 C112,134.9 111.55,134 111,134 C110.45,134 110,133.325 110,132.5 C110,131.675 110.675,131 111.5,131 C112.778,131 113,128.333 113,113 C113,97.667 113.222,95 114.5,95 C115.738,95 116,93.172 116,84.545 L116,74.091 L112.5,73.434 C110.495,73.058 109,72.184 109,71.389 C109,70.255 105.692,70 91,70 L73,70 Z M131,186.389 C131,187.184 129.505,188.058 127.5,188.434 L124,189.091 L124,198.045 C124,205.338 124.278,207 125.5,207 C126.738,207 127,208.833 127,217.5 L127,228 L132.5,228 C137.333,228 138,227.758 138,226 C138,224.667 138.667,224 140,224 C141.111,224 142,223.333 142,222.5 C142,221.675 142.675,221 143.5,221 C144.333,221 145,220.111 145,219 C145,217.667 145.667,217 147,217 C148.333,217 149,216.333 149,215 C149,213.9 149.639,213 150.421,213 C151.202,213 152.138,211.65 152.5,210 C152.862,208.35 153.798,207 154.579,207 C155.428,207 156,205.993 156,204.5 C156,203.055 156.576,202 157.364,202 C158.214,202 158.951,200.374 159.319,197.687 C160.375,189.986 158.859,188.049 151.75,188.014 C149.978,188.005 149,187.466 149,186.5 C149,185.278 147.333,185 140,185 C132.987,185 131,185.307 131,186.389 Z M199,42.5 C199,41.258 200.889,41 210,41 L221,41 L221,55 L215.5,55 C211.484,55 210,54.627 210,53.617 C210,51.5 206.713,51.072 195.382,51.713 C187.626,52.153 185,52.643 185,53.651 C185,54.683 182.887,55 176,55 C167.667,55 167,55.148 167,57 C167,58.81 166.333,59 160,59 C154.444,59 153,59.31 153,60.5 C153,61.333 152.111,62 151,62 C149.667,62 149,62.667 149,64 C149,65.333 148.333,66 147,66 C145.381,66 145,66.667 145,69.5 C145,71.944 144.548,73 143.5,73 C142.675,73 142,72.325 142,71.5 C142,70.667 141.111,70 140,70 C138.248,70 138,69.333 138,64.617 C138,60.074 138.312,59.152 140,58.71 C141.1,58.423 142,57.47 142,56.594 C142,55.439 142.964,55 145.5,55 C147.803,55 149,54.53 149,53.625 C149,52.254 153.12,51 157.625,51 C159.069,51 160,50.412 160,49.5 C160,48.278 161.667,48 169,48 C175.924,48 178,47.686 178,46.639 C178,45.15 184.745,44.024 193.75,44.009 C197.746,44.002 199,43.642 199,42.5 Z M184.71,93 C184.31,94.532 183.346,95 180.594,95 C178.066,95 177,95.445 177,96.5 C177,97.325 176.325,98 175.5,98 C174.667,98 174,98.889 174,100 C174,101.1 173.381,102 172.625,102 C170.94,102 170,106.342 170,114.125 C170,118.681 169.663,120 168.5,120 C167.348,120 167,121.278 167,125.5 C167,130.837 167.082,131 169.75,130.986 C174.032,130.965 177,129.899 177,128.383 C177,127.623 177.848,127 178.883,127 C179.926,127 181,126.107 181.29,125 C181.577,123.9 182.53,123 183.406,123 C184.283,123 185,122.325 185,121.5 C185,120.675 185.675,120 186.5,120 C187.548,120 188,118.944 188,116.5 C188,113.667 188.381,113 190,113 C191.333,113 192,112.333 192,111 C192,109.889 192.667,109 193.5,109 C194.412,109 195,108.069 195,106.625 C195,102.12 196.254,98 197.625,98 C198.381,98 199,97.1 199,96 C199,94.889 198.333,94 197.5,94 C196.675,94 196,93.325 196,92.5 C196,91.352 194.735,91 190.617,91 C186.074,91 185.152,91.312 184.71,93 Z M203,57 C203,55.381 203.667,55 206.5,55 C209.333,55 210,55.381 210,57 C210,58.619 209.333,59 206.5,59 C203.667,59 203,58.619 203,57 Z"/>
</svg>

