<svg xmlns="http://www.w3.org/2000/svg" width="300" height="300" viewBox="0 0 300 300" version="1.1">
  <defs/>
  <path d="M131,68.594 C131,67.439 131.964,67 134.5,67 C137.333,67 138,67.381 138,69 C138,70.333 138.667,71 140,71 C141.163,71 142,71.667 142,72.594 C142,73.47 141.1,74.423 140,74.71 C138.201,75.181 138,76.074 138,83.617 C138,91.333 138.159,92 140,92 C141.111,92 142,91.333 142,90.5 C142,89.238 144.222,89 156,89 C169.333,89 170,89.095 170,91 C170,92.111 169.333,93 168.5,93 C167.675,93 167,93.675 167,94.5 C167,95.7 165.5,96 159.5,96 C153.742,96 152,96.325 152,97.399 C152,98.396 149.995,98.998 145,99.5 C140.005,100.002 138,100.604 138,101.601 C138,102.371 137.375,103 136.611,103 C135.816,103 134.942,104.495 134.566,106.5 C134.173,108.595 133.325,110 132.455,110 C131.424,110 131,111.166 131,114 C131,117.333 131.333,118 133,118 C134.111,118 135,118.667 135,119.5 C135,120.325 135.675,121 136.5,121 C137.325,121 138,120.325 138,119.5 C138,118.3 139.5,118 145.5,118 C151.353,118 153,118.315 153,119.437 C153,120.327 154.237,120.993 156.25,121.187 C159.125,121.464 159.537,121.884 159.819,124.826 C160.075,127.494 159.729,128.258 158.069,128.692 C156.931,128.99 156,129.856 156,130.617 C156,131.606 157.392,132 160.883,132 C165.102,132 165.849,132.306 166.37,134.25 C167.509,138.499 167.084,143 165.545,143 C164.675,143 163.827,144.405 163.434,146.5 C163.073,148.425 162.205,150 161.505,150 C160.806,150 159.998,150.9 159.71,152 C159.423,153.1 158.47,154 157.594,154 C156.439,154 156,154.964 156,157.5 C156,159.944 155.548,161 154.5,161 C153.675,161 153,161.717 153,162.594 C153,163.47 152.1,164.423 151,164.71 C149.9,164.998 149,165.856 149,166.617 C149,167.377 148.1,168 147,168 C145.667,168 145,168.667 145,170 C145,171.333 144.333,172 143,172 C141.9,172 141,172.639 141,173.421 C141,174.202 139.65,175.138 138,175.5 C136.35,175.862 135,176.798 135,177.579 C135,178.361 134.1,179 133,179 C131.9,179 131,179.623 131,180.383 C131,181.144 131.9,182.002 133,182.29 C134.1,182.577 135,183.53 135,184.406 C135,185.763 136.559,186 145.5,186 C154.021,186 156,185.726 156,184.545 C156,183.675 157.405,182.827 159.5,182.434 C161.631,182.034 163,181.197 163,180.295 C163,179.48 163.9,178.577 165,178.29 C166.1,178.002 167,177.144 167,176.383 C167,175.623 167.675,175 168.5,175 C169.325,175 170,174.375 170,173.611 C170,172.816 171.495,171.942 173.5,171.566 C175.595,171.173 177,170.325 177,169.455 C177,168.655 177.9,168 179,168 C180.333,168 181,167.333 181,166 C181,164.667 181.667,164 183,164 C184.111,164 185,163.333 185,162.5 C185,161.675 185.653,161 186.45,161 C187.248,161 188.305,160.277 188.799,159.394 C189.34,158.428 191.551,157.58 194.349,157.264 C197.365,156.924 199,156.258 199,155.37 C199,154.376 200.51,154 204.5,154 L210,154 L210,158.883 C210,162.926 209.656,163.857 208,164.29 C206.9,164.577 206,165.53 206,166.406 C206,167.283 205.325,168 204.5,168 C203.452,168 203,169.056 203,171.5 C203,174.333 202.619,175 201,175 C199.667,175 199,175.667 199,177 C199,178.1 198.375,179 197.611,179 C196.816,179 195.942,180.495 195.566,182.5 C195.173,184.595 194.325,186 193.455,186 C192.655,186 192,186.9 192,188 C192,189.111 191.333,190 190.5,190 C189.675,190 189,190.675 189,191.5 C189,192.466 189.978,193.005 191.75,193.014 C199.181,193.051 200.532,195.179 199.411,205.084 C198.859,209.959 198.412,211 196.871,211 C195.292,211 195,210.218 195,206 L195,201 L188,201 C182.444,201 181,201.31 181,202.5 C181,203.325 180.377,204 179.617,204 C178.856,204 177.998,204.9 177.71,206 C177.423,207.1 176.47,208 175.594,208 C174.717,208 174,208.675 174,209.5 C174,210.325 173.377,211 172.617,211 C171.856,211 170.998,211.9 170.71,213 C170.423,214.1 169.47,215 168.594,215 C167.667,215 167,215.837 167,217 C167,218.333 166.333,219 165,219 C163.889,219 163,219.667 163,220.5 C163,221.325 162.377,222 161.617,222 C160.856,222 159.998,222.9 159.71,224 C159.423,225.1 158.47,226 157.594,226 C156.717,226 156,226.675 156,227.5 C156,228.333 155.111,229 154,229 C152.9,229 152,229.623 152,230.383 C152,232.241 148.848,232.97 140.75,232.986 C134.662,232.999 134,232.804 134,231 C134,229.889 133.333,229 132.5,229 C131.365,229 131,227.774 131,223.969 C131,220.419 130.558,218.768 129.5,218.362 C127.833,217.722 127.428,215 129,215 C130.572,215 130.167,212.278 128.5,211.638 C127.363,211.202 127,209.359 127,204.031 C127,198.698 126.665,197 125.611,197 C124.816,197 123.942,195.505 123.566,193.5 C122.919,190.05 120,188.413 120,191.5 C120,192.325 119.377,193 118.617,193 C117.856,193 116.998,193.9 116.71,195 C116.423,196.1 115.47,197 114.594,197 C113.439,197 113,197.964 113,200.5 C113,203.333 112.619,204 111,204 C109.889,204 109,204.667 109,205.5 C109,206.325 108.283,207 107.406,207 C106.53,207 105.577,207.9 105.29,209 C105.002,210.1 104.144,211 103.383,211 C102.623,211 102,211.9 102,213 C102,214.1 101.377,215 100.617,215 C99.856,215 98.998,215.9 98.71,217 C98.423,218.1 97.47,219 96.594,219 C95.717,219 95,219.675 95,220.5 C95,221.333 94.111,222 93,222 C91.381,222 91,222.667 91,225.5 C91,228.833 90.833,229 87.5,229 C84.667,229 84,228.619 84,227 C84,225.889 83.333,225 82.5,225 C81.675,225 81,224.325 81,223.5 C81,222.675 81.675,222 82.5,222 C83.333,222 84,221.111 84,220 C84,218.889 84.667,218 85.5,218 C86.325,218 87,217.325 87,216.5 C87,215.667 87.889,215 89,215 C90.333,215 91,214.333 91,213 C91,211.667 91.667,211 93,211 C94.333,211 95,210.333 95,209 C95,207.889 95.667,207 96.5,207 C97.325,207 98,206.325 98,205.5 C98,204.667 98.889,204 100,204 C101.619,204 102,203.333 102,200.5 C102,197.667 102.381,197 104,197 C105.111,197 106,196.333 106,195.5 C106,194.675 106.675,194 107.5,194 C108.325,194 109,193.152 109,192.117 C109,191.074 109.893,190 111,189.71 C112.1,189.423 113,188.47 113,187.594 C113,186.717 113.675,186 114.5,186 C115.325,186 116,185.283 116,184.406 C116,183.53 116.9,182.577 118,182.29 C119.1,182.002 120,181.144 120,180.383 C120,179.373 118.516,179 114.5,179 L109,179 L109,175 C109,172.111 109.417,171 110.5,171 C111.325,171 112,170.325 112,169.5 C112,168.667 112.889,168 114,168 C115.758,168 116,167.333 116,162.5 C116,158.278 115.652,157 114.5,157 C113.265,157 112.998,155.188 112.986,146.75 C112.975,138.057 113.098,134.479 111.398,133.011 C110.094,131.884 107.717,132 103.383,132 L95,132 L95,128 C95,125.111 95.417,124 96.5,124 C97.325,124 98,123.325 98,122.5 C98,121.272 99.722,121 107.5,121 C115.042,121 117,120.707 117,119.579 C117,118.798 118.321,117.869 119.935,117.514 C122.139,117.03 123.03,116.139 123.514,113.935 C123.869,112.321 124.798,111 125.579,111 C126.576,111 127,109.775 127,106.894 L127,102.788 L118.924,103.155 C112.543,103.445 110.643,103.887 109.874,105.261 C109.339,106.217 108.023,107 106.95,107 C105.667,107 105,107.684 105,109 C105,110.111 104.333,111 103.5,111 C102.675,111 102,111.675 102,112.5 C102,113.548 100.944,114 98.5,114 L95,114 L95,100.091 L98.5,99.434 C100.505,99.058 102,98.184 102,97.389 C102,96.435 103.254,96 106,96 C108.739,96 110,95.564 110,94.617 C110,92.79 113.135,92.03 120.75,92.014 L127,92 L127,81.617 C127,72.074 127.162,71.191 129,70.71 C130.1,70.423 131,69.47 131,68.594 Z M192,43.343 C192,42.273 195.355,42 208.5,42 L225,42 L225,45.5 C225,47.944 225.452,49 226.5,49 C227.7,49 228,50.5 228,56.5 C228,62.5 227.7,64 226.5,64 C225.675,64 225,64.675 225,65.5 C225,66.325 225.675,67 226.5,67 C227.325,67 228,67.675 228,68.5 C228,69.325 227.325,70 226.5,70 C225.417,70 225,71.111 225,74 C225,76.889 225.417,78 226.5,78 C227.787,78 228,81.056 228,99.5 C228,116.966 228.255,121 229.361,121 C230.958,121 231.978,127.881 231.991,138.75 C231.998,144.287 232.33,146 233.397,146 C234.458,146 234.88,148.067 235.147,154.57 C235.431,161.454 235.844,163.333 237.25,164.12 C238.743,164.955 239,166.637 239,175.55 C239,184.172 239.262,186 240.5,186 C241.565,186 242.003,187.087 242.009,189.75 C242.026,197.378 243.249,204 244.639,204 C245.704,204 246,206.389 246,215 C246,224.111 246.258,226 247.5,226 Q249,226 249,229 Q249,232 247.5,232 C246.333,232 246,233.333 246,238 C246,243.333 245.778,244 244,244 C242.9,244 242,244.626 242,245.392 C242,247.124 237.831,248.247 234.5,247.411 C232.448,246.896 232,246.175 232,243.392 C232,240.32 232.272,240 234.883,240 C238.394,240 238.967,238.376 238.986,228.375 C239.004,219.42 238.141,215 236.375,215 C235.31,215 235,212.97 235,206 C235,198.667 234.722,197 233.5,197 C232.294,197 232,195.458 232,189.125 C232,179.432 231.176,175 229.375,175 C228.31,175 228,172.97 228,166 C228,159.03 227.69,157 226.625,157 C224.85,157 224,152.589 224,143.375 C224,137.486 223.698,136 222.5,136 C221.236,136 221,133.728 221,121.55 C221,108.827 220.791,106.982 219.25,106.121 C217.666,105.236 217.472,102.683 217.203,79.176 C216.935,55.697 216.743,53.168 215.203,52.785 C214.266,52.552 203.713,52.56 191.75,52.803 C174.158,53.161 170,53.508 170,54.623 C170,55.718 167.473,56 157.656,56 C137.699,56 124,57.079 124,58.652 C124,59.682 121.901,60 115.117,60 C107.074,60 106.184,60.189 105.71,62 C105.274,63.67 104.346,64 100.094,64 C96.233,64 95,64.363 95,65.5 C95,66.523 93.966,67.004 91.75,67.014 C87,67.034 84,68.041 84,69.617 C84,70.377 83.1,71 82,71 C80.889,71 80,71.667 80,72.5 C80,73.466 79.022,74.005 77.25,74.014 C72.968,74.035 70,75.101 70,76.617 C70,77.377 69.1,78 68,78 C66.148,78 66,78.667 66,87 C66,94.163 65.706,96 64.561,96 C62.364,96 61.817,102.475 62.365,122 C62.635,131.625 62.888,156.262 62.928,176.75 C62.991,209.162 63.195,214 64.5,214 Q66,214 66,211 C66,209.083 66.51,208 67.412,208 C68.28,208 69.085,206.459 69.5,204 C70.591,197.545 72.702,198.979 73.181,206.5 C73.841,216.869 73,226 71.384,226 C70.623,226 70,226.675 70,227.5 C70,228.333 69.111,229 68,229 C66.667,229 66,229.667 66,231 C66,232.619 65.333,233 62.5,233 C59.482,233 59,232.673 59,230.625 C59,226.12 57.746,222 56.375,222 C55.219,222 55,208.53 55,137.5 C55,53.667 55.016,53 57,53 C58.333,53 59,52.333 59,51 C59,49.889 59.667,49 60.5,49 C61.325,49 62,48.325 62,47.5 C62,46.462 63.043,46 65.383,46 C68.047,46 68.895,46.479 69.37,48.25 C70.376,52.007 70.09,53 68,53 C66.19,53 66,53.667 66,60 C66,66.333 66.19,67 68,67 C69.1,67 70,66.383 70,65.629 C70,64.739 71.754,64.025 75,63.594 C78.424,63.14 80,62.469 80,61.466 C80,60.356 81.335,60 85.5,60 C90.333,60 91,59.758 91,58 C91,56.333 91.667,56 95,56 C97.889,56 99,55.583 99,54.5 C99,53.328 100.367,52.997 105.25,52.986 C112.865,52.97 116,52.21 116,50.383 C116,49.269 118.821,49 130.5,49 C142.722,49 145,48.764 145,47.5 C145,46.296 146.529,45.999 152.75,45.997 C157.012,45.995 167.588,45.699 176.25,45.34 C188.443,44.834 192,44.384 192,43.343 Z M80,241.455 C80,240.655 80.9,240 82,240 C83.1,240 84,240.604 84,241.343 C84,242.862 105.06,244 133.16,244 C146.573,244 149,244.23 149,245.5 C149,246.773 151.5,247 165.5,247 C179.5,247 182,246.773 182,245.5 C182,244.367 183.222,244 187,244 C190.778,244 192,244.367 192,245.5 C192,246.735 193.812,247.002 202.25,247.014 C215.904,247.032 217,247.374 217,251.617 C217,253.957 216.538,255 215.5,255 C214.675,255 214,255.675 214,256.5 C214,257.548 212.944,258 210.5,258 C208.197,258 207,257.53 207,256.625 C207,255.869 205.594,254.969 203.875,254.625 C202.156,254.281 179.206,254 152.875,254 C110.986,254 105,253.812 105,252.5 C105,251.367 103.778,251 100,251 C96.222,251 95,251.367 95,252.5 C95,253.333 94.111,254 93,254 C91.889,254 91,253.333 91,252.5 C91,251.278 89.333,251 82,251 L73,251 L73,247.611 C73,244.53 73.318,244.163 76.5,243.566 C78.595,243.173 80,242.325 80,241.455 Z M153,198.5 C153,199.523 151.966,200.004 149.75,200.014 C145,200.034 142,201.041 142,202.617 C142,203.377 141.1,204 140,204 C138.148,204 138,204.667 138,213 C138,221.333 138.148,222 140,222 C141.111,222 142,222.667 142,223.5 C142,224.325 142.675,225 143.5,225 C144.325,225 145,224.325 145,223.5 C145,222.667 145.889,222 147,222 C148.1,222 149,221.345 149,220.545 C149,219.675 150.405,218.827 152.5,218.434 C154.425,218.073 156,217.205 156,216.505 C156,215.806 156.9,214.998 158,214.71 C159.1,214.423 160,213.47 160,212.594 C160,211.717 160.675,211 161.5,211 C162.325,211 163,210.325 163,209.5 C163,208.675 163.717,208 164.594,208 C165.47,208 166.423,207.1 166.71,206 C166.998,204.9 167.856,204 168.617,204 C169.377,204 170,203.283 170,202.406 C170,201.53 170.9,200.577 172,200.29 C173.1,200.002 174,199.144 174,198.383 C174,197.293 171.773,197 163.5,197 C154.833,197 153,197.262 153,198.5 Z M149,141.5 C149,142.742 147.111,143 138,143 C128.889,143 127,143.258 127,144.5 C127,145.325 126.325,146 125.5,146 C124.3,146 124,147.5 124,153.5 C124,159.5 124.3,161 125.5,161 C126.325,161 127,161.675 127,162.5 C127,163.333 127.889,164 129,164 C130.111,164 131,163.333 131,162.5 C131,161.452 132.056,161 134.5,161 C137.333,161 138,160.619 138,159 C138,157.381 138.667,157 141.5,157 C144.333,157 145,156.619 145,155 C145,153.667 145.667,153 147,153 C148.111,153 149,152.333 149,151.5 C149,150.675 149.623,150 150.383,150 C151.144,150 152.002,149.1 152.29,148 C152.577,146.9 153.53,146 154.406,146 C155.333,146 156,145.163 156,144 C156,142.889 155.333,142 154.5,142 C153.675,142 153,141.55 153,141 C153,140.45 152.1,140 151,140 C149.889,140 149,140.667 149,141.5 Z M188.71,170 C188.397,171.197 187.346,172 186.094,172 C184.899,172 184,172.644 184,173.5 Q184,175 181,175 C178.667,175 178,175.444 178,177 C178,178.333 177.333,179 176,179 C174.889,179 174,179.667 174,180.5 C174,181.325 173.283,182 172.406,182 C171.53,182 170.577,182.9 170.29,184 C170.002,185.1 169.144,186 168.383,186 C167.623,186 167,186.675 167,187.5 C167,188.575 168.097,189 170.875,189 C173.006,189 176.156,189.281 177.875,189.625 C180.591,190.168 181,189.972 181,188.125 C181,186.667 181.627,186 183,186 C184.333,186 185,185.333 185,184 C185,182.889 185.667,182 186.5,182 C187.325,182 188,181.283 188,180.406 C188,179.53 188.9,178.577 190,178.29 C191.656,177.857 192,176.926 192,172.883 C192,169.392 191.606,168 190.617,168 C189.856,168 188.998,168.9 188.71,170 Z M134.75,128.707 C132.345,128.972 131,129.637 131,130.56 C131,131.707 132.844,132 140.073,132 C148.175,132 149.111,131.813 148.814,130.25 C148.553,128.879 147.4,128.478 143.491,128.396 C140.746,128.339 136.813,128.479 134.75,128.707 Z M124,133.5 C124,134.333 124.889,135 126,135 C127.111,135 128,134.333 128,133.5 C128,132.667 127.111,132 126,132 C124.889,132 124,132.667 124,133.5 Z M128,119.5 C128,120.325 128.45,121 129,121 C129.55,121 130,120.325 130,119.5 C130,118.675 129.55,118 129,118 C128.45,118 128,118.675 128,119.5 Z"/>
</svg>

