<svg xmlns="http://www.w3.org/2000/svg" width="300" height="300" viewBox="0 0 300 300" version="1.1">
  <defs/>
  <path d="M197,78 L197,67 L200.5,67 C203.833,67 204,67.167 204,70.5 C204,72.803 204.47,74 205.375,74 C207.092,74 208,78.366 208,86.625 C208,91.625 208.324,93 209.5,93 Q211,93 211,96 C211,98.333 211.444,99 213,99 C214.111,99 215,98.333 215,97.5 C215,96.31 216.444,96 222,96 C227.556,96 229,95.69 229,94.5 C229,93.452 230.056,93 232.5,93 C234.944,93 236,93.452 236,94.5 C236,95.333 236.889,96 238,96 C239.822,96 240,96.667 240,103.5 C240,109.5 239.7,111 238.5,111 C237.425,111 237,112.097 237,114.875 C237,120.772 235.904,125 234.375,125 C233.403,125 232.996,126.393 232.986,129.75 C232.969,135.923 232.103,139 230.383,139 C229.373,139 229,140.484 229,144.5 C229,148.722 228.652,150 227.5,150 C226.588,150 226,150.931 226,152.375 C226,156.88 224.746,161 223.375,161 C222.47,161 222,162.197 222,164.5 C222,166.803 221.53,168 220.625,168 C219.254,168 218,172.12 218,176.625 C218,178.333 217.439,179 216,179 C214.9,179 214,179.631 214,180.402 C214,181.923 202.997,183.734 201.053,182.533 C198.832,181.16 200.255,168 202.625,168 C203.758,168 204,163.242 204,141 L204,114 L198.5,114 C194.354,114 193,114.358 193,115.455 C193,116.325 191.595,117.173 189.5,117.566 C187.575,117.927 186,118.789 186,119.481 C186,120.237 184.143,120.949 181.349,121.264 C178.551,121.58 176.34,122.428 175.799,123.394 C175.245,124.385 173.579,125 171.45,125 C169.173,125 168,125.472 168,126.389 C168,127.184 166.505,128.058 164.5,128.434 C162.405,128.827 161,129.675 161,130.545 C161,131.541 159.896,132 157.5,132 C154.667,132 154,132.381 154,134 C154,135.333 153.333,136 152,136 C150.889,136 150,136.667 150,137.5 C150,138.325 149.379,139 148.621,139 C147.545,139 147.119,141.922 146.687,152.25 C146.382,159.537 146.269,167.75 146.436,170.5 C146.603,173.25 146.798,177.863 146.87,180.75 C146.968,184.692 147.374,186 148.5,186 C149.688,186 150,187.431 150,192.883 C150,198.926 150.244,199.831 152,200.29 C153.442,200.667 154,201.654 154,203.827 C154,206.363 154.476,206.946 157,207.5 C158.65,207.862 160,208.798 160,209.579 C160,210.361 160.848,211 161.883,211 C162.926,211 164,211.893 164.29,213 C164.671,214.456 165.654,215 167.906,215 C169.99,215 171,215.49 171,216.5 C171,217.555 172.066,218 174.594,218 C177.346,218 178.31,218.468 178.71,220 C179.184,221.811 180.074,222 188.117,222 C195.346,222 197,222.279 197,223.5 C197,224.753 199.056,225 209.5,225 C219.944,225 222,224.753 222,223.5 C222,222.312 223.431,222 228.883,222 C234.926,222 235.831,221.756 236.29,220 C236.726,218.33 237.654,218 241.906,218 C245.767,218 247,217.637 247,216.5 C247,215.298 248.514,215 254.63,215 L262.26,215 L261.747,219.549 C261.465,222.052 260.921,224.412 260.538,224.796 C260.154,225.179 256.277,225.654 251.92,225.852 C246.347,226.105 244,226.59 244,227.489 C244,228.355 241.87,228.903 237.4,229.187 C232.538,229.497 230.549,230.055 229.85,231.304 C229,232.822 226.514,232.999 206.2,232.986 C182.398,232.972 179,232.647 179,230.383 C179,229.373 177.516,229 173.5,229 C169.474,229 168,228.628 168,227.611 C168,226.816 166.505,225.942 164.5,225.566 C162.405,225.173 161,224.325 161,223.455 C161,222.655 160.1,222 159,222 C157.9,222 157,221.345 157,220.545 C157,219.675 155.595,218.827 153.5,218.434 C151.495,218.058 150,217.184 150,216.389 C150,215.625 149.377,215 148.617,215 C147.856,215 146.998,214.1 146.71,213 C146.423,211.9 145.47,211 144.594,211 C143.525,211 142.996,210.094 142.986,208.25 C142.965,203.968 141.899,201 140.383,201 C139.261,201 139,197.882 139,184.5 C139,170.5 138.773,168 137.5,168 C136.452,168 136,166.944 136,164.5 C136,162.056 136.452,161 137.5,161 C138.722,161 139,159.333 139,152 C139,144.667 138.722,143 137.5,143 C136.675,143 136,143.675 136,144.5 C136,145.333 135.111,146 134,146 C132.667,146 132,146.667 132,148 C132,149.333 131.333,150 130,150 C128.381,150 128,150.667 128,153.5 C128,156.833 127.833,157 124.5,157 C122.056,157 121,156.548 121,155.5 C121,154.675 120.325,154 119.5,154 C118.417,154 118,152.889 118,150 C118,147.273 118.438,146 119.375,146 C120.131,146 121.022,144.641 121.354,142.979 C121.826,140.618 122.618,139.826 124.979,139.354 C126.641,139.022 128,138.131 128,137.375 C128,136.619 128.9,136 130,136 C131.333,136 132,135.333 132,134 C132,132.394 132.667,132 135.384,132 L138.767,132 L139.185,125.432 C139.447,121.327 140.119,118.545 140.977,118.014 C141.904,117.441 142.496,114.379 142.8,108.583 C143.151,101.907 143.577,100 144.719,100 C145.527,100 146.423,99.1 146.71,98 C147.316,95.682 150,95.274 150,97.5 C150,98.333 150.889,99 152,99 C153.111,99 154,98.333 154,97.5 C154,96.675 154.675,96 155.5,96 C156.333,96 157,96.889 157,98 C157,99.333 157.667,100 159,100 C160.111,100 161,100.667 161,101.5 C161,102.325 160.283,103 159.406,103 C158.53,103 157.577,103.9 157.29,105 C156.897,106.503 155.926,107 153.383,107 L150,107 L150,116 C150,124.333 150.148,125 152,125 C153.1,125 154,124.345 154,123.545 C154,122.675 155.405,121.827 157.5,121.434 C159.425,121.073 161,120.203 161,119.5 C161,118.797 162.575,117.927 164.5,117.566 C166.595,117.173 168,116.325 168,115.455 C168,114.459 169.104,114 171.5,114 C173.803,114 175,113.53 175,112.625 C175,111.254 179.12,110 183.625,110 C185.069,110 186,109.412 186,108.5 C186,107.452 187.056,107 189.5,107 C192.333,107 193,106.619 193,105 C193,103.381 193.667,103 196.5,103 L200,103 L200,96 C200,90.444 199.69,89 198.5,89 C197.258,89 197,87.111 197,78 Z M62.25,99.706 C63.487,99.467 66.638,99.211 69.25,99.136 C73.379,99.018 74,99.262 74,101 C74,102.111 73.333,103 72.5,103 C71.667,103 71,103.889 71,105 C71,106.333 70.333,107 69,107 C67.107,107 67,107.667 67,119.5 L67,132 L76.5,132 C83.82,132 86,131.689 86,130.647 C86,129.189 95.726,128 107.651,128 L114,128 L114,136 L106.5,136 C100.5,136 99,136.3 99,137.5 C99,138.747 97.022,139.002 87.25,139.014 C74.272,139.029 71,139.553 71,141.617 C71,142.377 70.133,143 69.073,143 C67.268,143 67.158,143.758 67.323,155.037 C67.463,164.521 67.818,167.27 69,167.999 C70.173,168.722 70.572,171.654 70.832,181.462 C71.096,191.464 71.45,194 72.582,194 C73.491,194 74,195.077 74,197 C74,199.333 74.444,200 76,200 C77.333,200 78,199.333 78,198 C78,196.889 78.667,196 79.5,196 C80.325,196 81,195.325 81,194.5 C81,193.667 81.889,193 83,193 C84.1,193 85,192.375 85,191.611 C85,190.816 86.495,189.942 88.5,189.566 C90.595,189.173 92,188.325 92,187.455 C92,186.655 92.9,186 94,186 C95.333,186 96,185.333 96,184 C96,182.667 96.667,182 98,182 C99.111,182 100,181.333 100,180.5 C100,179.452 101.056,179 103.5,179 C105.813,179 107,178.531 107,177.617 C107,176.041 110,175.034 114.75,175.014 C116.844,175.005 118,174.508 118,173.617 C118,172.019 121.864,171.06 125.5,171.755 C128.17,172.266 129.013,175 126.5,175 C125.667,175 125,175.889 125,177 C125,178.619 124.333,179 121.5,179 C119.18,179 118,179.468 118,180.389 C118,181.184 116.505,182.058 114.5,182.434 C112.405,182.827 111,183.675 111,184.545 C111,185.43 110.021,186 108.5,186 C107.007,186 106,186.572 106,187.421 C106,188.202 104.65,189.138 103,189.5 C101.35,189.862 100,190.798 100,191.579 C100,192.361 99.1,193 98,193 C96.9,193 96,193.623 96,194.383 C96,195.144 95.1,196.002 94,196.29 C92.9,196.577 92,197.477 92,198.29 C92,199.102 91.1,200.002 90,200.29 C88.9,200.577 88,201.53 88,202.406 C88,203.283 87.325,204 86.5,204 C85.667,204 85,204.889 85,206 C85,207.1 84.375,208 83.611,208 C82.816,208 81.942,209.495 81.566,211.5 C81.173,213.595 80.325,215 79.455,215 C78.459,215 78,216.104 78,218.5 C78,220.813 77.531,222 76.617,222 C75.856,222 74.998,222.9 74.71,224 C74.423,225.1 73.428,226 72.5,226 C71.572,226 70.577,225.1 70.29,224 C70.002,222.9 69.144,222 68.383,222 C67.293,222 67,219.773 67,211.5 C67,203.2 66.709,201 65.609,201 C64.55,201 64.048,198.382 63.5,190 C62.952,181.618 62.45,179 61.391,179 C60.259,179 60,175.924 60,162.5 C60,148.5 59.773,146 58.5,146 C57.675,146 57,145.325 57,144.5 C57,143.667 56.111,143 55,143 C53.837,143 53,143.667 53,144.594 C53,145.47 52.1,146.423 51,146.71 C49.9,146.998 49,147.856 49,148.617 C49,149.531 47.813,150 45.5,150 C42.667,150 42,149.619 42,148 C42,146.667 41.333,146 40,146 C38.381,146 38,145.333 38,142.5 C38,139.667 38.381,139 40,139 C41.1,139 42,138.381 42,137.625 C42,136.107 46.22,135 52.008,135 C56.679,135 56.968,134.143 56.986,120.25 C56.998,111.812 57.265,110 58.5,110 C59.631,110 60,108.786 60,105.07 C60,100.752 60.279,100.085 62.25,99.706 Z M215,108.45 C215,109.248 214.213,110.341 213.251,110.88 C211.774,111.706 211.548,113.075 211.801,119.651 C211.965,123.937 212.564,127.731 213.132,128.082 C214.528,128.944 215.421,139.707 214.568,145.395 C214.086,148.611 213.406,150 212.314,150 C211.096,150 210.888,150.691 211.375,153.125 C211.719,154.844 212,157.994 212,160.125 C212,162.903 212.425,164 213.5,164 C214.548,164 215,162.944 215,160.5 C215,158.056 215.452,157 216.5,157 C217.621,157 218.003,155.799 218.014,152.25 C218.031,146.077 218.897,143 220.617,143 C221.671,143 222,141.219 222,135.5 C222,129.5 222.3,128 223.5,128 C224.642,128 225.002,126.746 225.009,122.75 C225.013,119.862 225.301,115.138 225.648,112.25 L226.279,107 L220.639,107 C216.379,107 215,107.355 215,108.45 Z"/>
</svg>

