<svg xmlns="http://www.w3.org/2000/svg" width="300" height="300" viewBox="0 0 300 300" version="1.1">
  <defs/>
  <path d="M189,61.388 C189,60.374 190.467,60 194.439,60 L199.877,60 L200.552,64.5 C201.427,70.33 200.292,78 198.555,78 C197.828,78 196.998,78.9 196.71,80 C196.329,81.456 195.346,82 193.094,82 C191.01,82 190,82.49 190,83.5 C190,84.333 189.111,85 188,85 C186.381,85 186,84.333 186,81.5 C186,79.056 186.452,78 187.5,78 C188.325,78 189,77.283 189,76.406 C189,75.53 189.9,74.577 191,74.29 C192.1,74.002 193,73.144 193,72.383 C193,71.373 191.516,71 187.5,71 C183.278,71 182,71.348 182,72.5 C182,73.325 181.325,74 180.5,74 C179.675,74 179,73.325 179,72.5 C179,71.675 178.325,71 177.5,71 C176.675,71 176,71.675 176,72.5 C176,73.486 175.014,74 173.125,74 C168.159,74 164,75.196 164,76.625 C164,77.381 163.1,78 162,78 C160.889,78 160,77.333 160,76.5 C160,73.822 158.177,74.916 157.5,78 C157.138,79.65 156.252,81 155.532,81 C154.812,81 153.927,82.575 153.566,84.5 C153.173,86.595 152.325,88 151.455,88 C150.655,88 150,88.9 150,90 C150,91.1 149.365,92 148.588,92 C147.72,92 146.915,93.541 146.5,96 C146.085,98.459 145.28,100 144.412,100 C143.465,100 143,101.152 143,103.5 C143,105.896 142.541,107 141.545,107 C140.675,107 139.827,108.405 139.434,110.5 C139.058,112.505 138.184,114 137.389,114 C136.461,114 136,115.194 136,117.594 C136,120.346 135.532,121.31 134,121.71 C131.043,122.483 131.569,123.746 135.177,124.539 C137.654,125.083 138.654,124.826 139.716,123.374 C140.8,121.891 142.699,121.438 149.039,121.15 C154.615,120.897 157,120.408 157,119.519 C157,118.085 161.362,117 167.125,117 C169.903,117 171,116.575 171,115.5 C171,114.204 174.654,114 197.883,114 L224.767,114 L225.37,116.25 C225.701,117.487 225.979,127.838 225.986,139.25 C225.998,157.022 226.215,160 227.5,160 C228.433,160 229,160.944 229,162.5 C229,164.056 228.433,165 227.5,165 C226.675,165 226,165.675 226,166.5 C226,167.325 226.648,168 227.439,168 C228.631,168 228.932,171.287 229.189,187.072 C229.465,204.001 229.697,206.254 231.25,207.122 C232.713,207.939 233,209.565 233,217.05 C233,223.965 233.312,226 234.371,226 C235.379,226 235.929,228.385 236.446,235 C236.978,241.793 237.5,244 238.575,244 C239.636,244 240,245.407 240,249.5 C240,253.532 240.371,255 241.392,255 C242.895,255 244.437,259.484 243.472,261.046 C243.147,261.571 242.234,262 241.441,262 C240.648,262 240,262.625 240,263.389 C240,264.184 238.505,265.058 236.5,265.434 C234.405,265.827 233,266.675 233,267.545 C233,268.532 231.911,269 229.617,269 C227.074,269 226.103,268.503 225.71,267 C225.31,265.468 224.346,265 221.594,265 C219.066,265 218,264.555 218,263.5 C218,262.49 216.99,262 214.906,262 C212.654,262 211.671,261.456 211.29,260 C211.002,258.9 210.144,258 209.383,258 C208.623,258 208,257.365 208,256.588 C208,255.72 206.459,254.915 204,254.5 C201.541,254.085 200,253.28 200,252.412 C200,251.635 199.501,251 198.891,251 C197.355,251 193.038,246.774 193.017,245.25 C193.007,244.485 194.357,244 196.5,244 C198.944,244 200,244.452 200,245.5 C200,246.538 201.043,247 203.383,247 C205.926,247 206.897,247.497 207.29,249 C207.69,250.532 208.654,251 211.406,251 C213.934,251 215,251.445 215,252.5 C215,253.325 215.787,254.004 216.75,254.009 C217.713,254.013 220.863,254.301 223.75,254.648 L229,255.279 L229,247.639 C229,241.863 228.668,240 227.639,240 C226.249,240 225.026,233.378 225.009,225.75 C225.003,223.087 224.565,222 223.5,222 C222.247,222 222,219.944 222,209.5 C222,199.056 221.753,197 220.5,197 C219.379,197 218.997,195.799 218.986,192.25 C218.979,189.637 218.701,186.488 218.37,185.25 C217.699,182.747 215,182.146 215,184.5 C215,185.333 214.111,186 213,186 C211.273,186 211,185.333 211,181.117 C211,175.762 210.086,175.042 203.25,175.014 C201.034,175.004 200,174.523 200,173.5 C200,172.452 198.944,172 196.5,172 C193.667,172 193,171.619 193,170 C193,168.242 192.333,168 187.5,168 C183.474,168 182,167.628 182,166.611 C182,165.816 180.505,164.942 178.5,164.566 C176.405,164.173 175,163.325 175,162.455 C175,161.459 173.896,161 171.5,161 C169.104,161 168,160.541 168,159.545 C168,158.675 166.595,157.827 164.5,157.434 C162.369,157.034 161,156.197 161,155.295 C161,154.48 160.1,153.577 159,153.29 C157.344,152.857 157,151.926 157,147.883 L157,143 L162.5,143 C167.333,143 168,143.242 168,145 C168,146.111 168.667,147 169.5,147 C170.325,147 171,147.675 171,148.5 C171,149.333 171.889,150 173,150 C174.1,150 175,150.625 175,151.389 C175,152.184 176.495,153.058 178.5,153.434 C180.595,153.827 182,154.675 182,155.545 C182,156.532 183.089,157 185.383,157 C187.926,157 188.897,157.497 189.29,159 C189.671,160.456 190.654,161 192.906,161 C194.99,161 196,161.49 196,162.5 C196,163.523 197.034,164.004 199.25,164.014 C204,164.034 207,165.041 207,166.617 C207,167.627 208.484,168 212.5,168 L218,168 L218,153.5 C218,141.45 217.753,139 216.539,139 C215.391,139 215.016,137.126 214.789,130.25 L214.5,121.5 L198.712,121.5 C185.756,121.5 182.759,121.769 182,123 C181.303,124.131 178.607,124.585 171.038,124.844 C163.722,125.094 161,125.535 161,126.469 C161,127.913 156.654,129 150.875,129 C148.097,129 147,129.425 147,130.5 C147,131.583 145.889,132 143,132 C139.667,132 139,132.333 139,134 C139,135.733 138.333,136 134,136 C130.222,136 129,136.367 129,137.5 C129,138.722 127.333,139 120,139 C112.432,139 111,139.254 111,140.594 C111,141.47 110.1,142.423 109,142.71 C107.9,142.998 107,143.856 107,144.617 C107,145.377 106.283,146 105.406,146 C104.53,146 103.577,146.9 103.29,148 C103,149.107 101.926,150 100.883,150 C99.301,150 99.002,149.24 99.014,145.25 C99.031,139.077 99.897,136 101.617,136 C102.377,136 103,135.1 103,134 C103,132.242 103.667,132 108.5,132 C113.333,132 114,131.758 114,130 C114,128.889 113.333,128 112.5,128 C111.675,128 111,127.325 111,126.5 C111,125.667 110.111,125 109,125 C107.667,125 107,124.333 107,123 C107,121.667 106.333,121 105,121 C103.242,121 103,120.333 103,115.5 C103,111.278 102.652,110 101.5,110 C100.262,110 100,108.167 100,99.5 C100,90.833 100.262,89 101.5,89 C102.652,89 103,87.722 103,83.5 C103,79.278 102.652,78 101.5,78 C100.675,78 100,78.637 100,79.415 C100,80.446 97.968,81.02 92.5,81.532 C87.565,81.995 85,82.66 85,83.478 C85,84.23 82.955,84.964 79.825,85.334 C76.979,85.671 74.336,86.456 73.951,87.079 C73.567,87.701 70.27,88.449 66.626,88.742 C60.359,89.245 60,89.158 60,87.137 C60,85.667 59.376,85 58,85 C56.837,85 56,84.333 56,83.406 C56,82.53 56.9,81.577 58,81.29 C59.1,81.002 60,80.144 60,79.383 C60,78.623 60.9,78 62,78 C63.1,78 64,77.377 64,76.617 C64,74.897 67.077,74.031 73.25,74.014 C76.799,74.003 78,73.621 78,72.5 C78,71.218 80.828,71 97.45,71 C114.859,71 117.002,70.818 117.87,69.268 C118.731,67.73 121.207,67.493 139.92,67.154 C156.132,66.861 161,66.479 161,65.499 C161,64.562 164.704,64.033 175,63.5 C185.925,62.934 189,62.47 189,61.388 Z M121,195 L121,179 L146.5,179 C168,179 172,179.225 172,180.437 C172,181.327 173.237,181.993 175.25,182.187 L178.5,182.5 L178.794,189.75 C179.033,195.655 178.81,197 177.589,197 C176.668,197 175.838,198.349 175.434,200.5 C175.073,202.425 174.203,204 173.5,204 C172.797,204 171.927,205.575 171.566,207.5 C171.173,209.595 170.325,211 169.455,211 C168.655,211 168,211.9 168,213 C168,214.333 167.333,215 166,215 C164.9,215 164,215.655 164,216.456 C164,217.57 165.704,217.981 171.25,218.206 L178.5,218.5 L178.5,225.5 L169.75,225.789 C162.874,226.016 161,226.391 161,227.539 C161,228.545 159.899,229 157.469,229 C155.281,229 153.722,229.56 153.372,230.473 C153.061,231.283 151.275,232.233 149.403,232.584 C147.473,232.946 146,233.823 146,234.611 C146,235.628 144.526,236 140.5,236 C136.278,236 135,235.652 135,234.5 C135,233.452 133.944,233 131.5,233 C128.667,233 128,232.619 128,231 C128,229.889 127.333,229 126.5,229 C125.316,229 124.997,227.577 124.986,222.25 C124.97,214.152 124.241,211 122.383,211 C121.263,211 121,207.956 121,195 Z M114,80 C114,81.81 114.667,82 121,82 L128,82 L128,85.579 C128,89.096 127.943,89.146 124.75,88.454 C122.963,88.066 121.253,87.362 120.95,86.889 C120.648,86.417 118.96,85.742 117.2,85.39 C114.403,84.831 114,85.018 114,86.875 C114,88.044 113.381,89 112.625,89 C110.917,89 110,93.359 110,101.485 C110,110.83 111.048,117 112.636,117 C113.386,117 114,117.9 114,119 C114,120.333 114.667,121 116,121 C117.619,121 118,121.667 118,124.5 C118,127.833 118.167,128 121.5,128 C124.833,128 125,127.833 125,124.5 C125,122.056 125.452,121 126.5,121 C127.548,121 128,119.944 128,117.5 C128,114.667 128.381,114 130,114 C131.758,114 132,113.333 132,108.5 C132,103.667 132.242,103 134,103 C135.619,103 136,102.333 136,99.5 C136,97.056 136.452,96 137.5,96 C138.55,96 139,94.941 139,92.469 C139,90.319 139.563,88.721 140.439,88.385 C141.23,88.081 142.166,86.521 142.518,84.916 C142.871,83.312 143.798,82 144.579,82 C145.361,82 146,81.1 146,80 C146,78.083 145.333,78 130,78 C114.667,78 114,78.083 114,80 Z M146,187.383 C146,188.899 143.032,189.965 138.75,189.986 C136.978,189.995 136,190.534 136,191.5 C136,192.333 135.111,193 134,193 C132.121,193 132,193.667 132,204 C132,212.667 132.292,215 133.375,215 C134.76,215 136,219.129 136,223.742 C136,225.838 136.357,226.137 138.25,225.63 C139.488,225.299 141.063,225.021 141.75,225.014 C142.438,225.006 143,224.325 143,223.5 C143,222.667 143.889,222 145,222 C146.1,222 147,221.361 147,220.579 C147,219.798 148.35,218.862 150,218.5 C151.65,218.138 153,217.202 153,216.421 C153,215.639 153.9,215 155,215 C156.333,215 157,214.333 157,213 C157,211.9 157.655,211 158.455,211 C159.325,211 160.173,209.595 160.566,207.5 C161.041,204.967 161.745,204 163.111,204 C164.333,204 165,203.294 165,202 C165,200.889 165.667,200 166.5,200 C167.548,200 168,198.944 168,196.5 C168,194.056 168.452,193 169.5,193 C170.325,193 171,192.325 171,191.5 C171,190.367 169.778,190 166,190 C161.667,190 161,189.733 161,188 C161,186.178 160.333,186 153.5,186 C147.781,186 146,186.329 146,187.383 Z M86.75,128.689 C89.438,127.987 91.291,127.971 93.75,128.63 C95.93,129.214 96,129.62 96,141.617 C96,151.957 95.753,154 94.5,154 C93.196,154 93,158.444 93,188 C93,217.556 93.196,222 94.5,222 C95.629,222 96,223.209 96,226.883 C96,231.102 95.694,231.849 93.75,232.37 C89.993,233.376 89,233.09 89,231 C89,229.667 88.333,229 87,229 C85.027,229 85,228.333 85,179.073 C85,132.365 85.113,129.117 86.75,128.689 Z M112.75,31.689 C113.713,31.438 120.013,31.18 126.75,31.116 C138.372,31.006 139,31.103 139,33 C139,34.607 139.667,35 142.389,35 C145.47,35 145.837,35.318 146.434,38.5 C147.3,43.116 146.154,49 144.389,49 C143.625,49 143,49.9 143,51 C143,52.333 142.333,53 141,53 C139.667,53 139,53.667 139,55 C139,56.619 138.333,57 135.5,57 C132.667,57 132,56.619 132,55 C132,53.889 132.667,53 133.5,53 C134.333,53 135,52.111 135,51 C135,49.667 135.667,49 137,49 C138.619,49 139,48.333 139,45.5 L139,42 L109.75,42 L110.375,38.875 C110.719,37.156 111,34.939 111,33.948 C111,32.957 111.787,31.941 112.75,31.689 Z M122,151.594 C122,150.348 123.092,150 127,150 L132,150 L132,161 L128.5,161 C125.964,161 125,161.439 125,162.594 C125,163.47 124.1,164.423 123,164.71 C121.9,164.998 121,165.856 121,166.617 C121,167.377 120.377,168 119.617,168 C118.856,168 117.998,168.9 117.71,170 C117.423,171.1 116.47,172 115.594,172 C114.667,172 114,172.837 114,174 C114,175.1 113.345,176 112.545,176 C111.675,176 110.827,177.405 110.434,179.5 C110.058,181.505 109.184,183 108.389,183 C107.625,183 107,183.675 107,184.5 C107,185.583 105.889,186 103,186 C99.3,186 99.001,185.794 99.014,183.25 C99.036,178.749 100.067,176.216 102.092,175.686 C103.142,175.412 104,174.47 104,173.594 C104,172.717 104.675,172 105.5,172 C106.333,172 107,171.111 107,170 C107,168.889 107.667,168 108.5,168 C109.325,168 110,167.283 110,166.406 C110,165.53 110.9,164.577 112,164.29 C113.417,163.919 114,162.926 114,160.883 C114,158.912 114.504,158 115.594,158 C116.47,158 117.412,157.142 117.686,156.092 C117.96,155.043 119.043,153.96 120.092,153.686 C121.142,153.412 122,152.47 122,151.594 Z"/>
</svg>

