<svg xmlns="http://www.w3.org/2000/svg" width="300" height="300" viewBox="0 0 300 300" version="1.1">
  <defs/>
  <path d="M153,93 C153,91.333 153.667,91 157,91 L161,91 L161,96.5 C161,101.333 160.758,102 159,102 C157.667,102 157,102.667 157,104 C157,105.111 156.333,106 155.5,106 C154.534,106 153.995,106.978 153.986,108.75 C153.965,113.032 152.899,116 151.383,116 C150.373,116 150,117.484 150,121.5 L150,127 L155.5,127 C159.447,127 161,126.619 161,125.652 C161,124.234 174.335,123 189.656,123 L197,123 L197,127 C197,130.333 196.667,131 195,131 C193.9,131 193,131.626 193,132.392 C193,133.157 191.919,134.055 190.598,134.386 C187.216,135.235 182,134.015 182,132.375 C182,131.392 180.576,131 177,131 C173.222,131 172,131.367 172,132.5 C172,133.622 170.803,134.002 167.25,134.006 C164.637,134.009 158.787,134.301 154.25,134.654 L146,135.296 L146,138.148 C146,140.016 145.483,141 144.5,141 C143.667,141 143,141.889 143,143 C143,144.333 142.333,145 141,145 C139.381,145 139,145.667 139,148.5 C139,150.848 138.535,152 137.588,152 C136.72,152 135.915,153.541 135.5,156 C135.085,158.459 134.28,160 133.412,160 C132.465,160 132,161.152 132,163.5 C132,165.896 131.541,167 130.545,167 C129.675,167 128.827,168.405 128.434,170.5 C128.058,172.505 127.184,174 126.389,174 C125.468,174 125,175.18 125,177.5 C125,180.333 124.619,181 123,181 C121.394,181 121,181.667 121,184.383 C121,186.926 120.503,187.897 119,188.29 C117.9,188.577 117,189.53 117,190.406 C117,191.333 117.837,192 119,192 C120.111,192 121,192.667 121,193.5 C121,194.333 121.889,195 123,195 C124.111,195 125,194.333 125,193.5 C125,192.247 127.056,192 137.5,192 C147.439,192 150,191.718 150,190.625 C150,188.85 154.411,188 163.625,188 C169.514,188 171,187.698 171,186.5 C171,185.359 172.256,184.997 176.25,184.986 C179.137,184.979 182.512,184.701 183.75,184.37 C186.253,183.699 186.854,181 184.5,181 C183.675,181 183,180.325 183,179.5 C183,178.667 182.111,178 181,178 C179.381,178 179,177.333 179,174.5 C179,172.056 179.452,171 180.5,171 C181.333,171 182,170.111 182,169 C182,167.394 182.667,167 185.383,167 C187.926,167 188.897,167.497 189.29,169 C189.577,170.1 190.53,171 191.406,171 C192.51,171 193,171.922 193,174 C193,176.333 193.444,177 195,177 C196.333,177 197,177.667 197,179 C197,180.111 197.667,181 198.5,181 C199.325,181 200,181.717 200,182.594 C200,183.47 200.9,184.423 202,184.71 C203.503,185.103 204,186.074 204,188.617 C204,191.333 204.394,192 206,192 C207.1,192 208,192.655 208,193.455 C208,194.325 209.405,195.173 211.5,195.566 L215,196.223 L215,210 L211.5,210 C208.964,210 208,209.561 208,208.406 C208,207.53 207.1,206.577 206,206.29 C204.9,206.002 204,205.144 204,204.383 C204,203.623 203.1,203 202,203 C200.667,203 200,202.333 200,201 C200,199.889 199.333,199 198.5,199 C197.667,199 197,198.111 197,197 C197,195.889 196.333,195 195.5,195 C194.675,195 194,194.325 194,193.5 C194,192.3 192.5,192 186.5,192 C180.803,192 179,192.331 179,193.375 C179,195.176 174.568,196 164.875,196 C158.542,196 157,196.294 157,197.5 C157,198.738 155.172,199 146.55,199 C137.636,199 135.956,199.257 135.122,200.75 C134.259,202.293 132.069,202.537 116.572,202.814 L99,203.129 L99,200.689 C99,199.348 99.281,196.844 99.625,195.125 C100.177,192.366 100.645,192 103.625,192 C106.333,192 107,191.605 107,190 C107,188.9 107.625,188 108.389,188 C109.184,188 110.058,186.505 110.434,184.5 C110.827,182.405 111.675,181 112.545,181 C113.541,181 114,179.896 114,177.5 C114,174.667 114.381,174 116,174 C117.619,174 118,173.333 118,170.5 C118,168.18 118.468,167 119.389,167 C120.184,167 121.058,165.505 121.434,163.5 C121.827,161.405 122.675,160 123.545,160 C124.345,160 125,159.1 125,158 C125,156.889 125.667,156 126.5,156 C127.637,156 128,154.767 128,150.906 C128,146.654 128.33,145.726 130,145.29 C131.107,145 132,143.926 132,142.883 C132,141.848 132.675,141 133.5,141 C134.325,141 135,140.325 135,139.5 C135,138.224 132.389,138 117.5,138 C103.095,138 100,138.25 100,139.412 C100,140.28 98.459,141.085 96,141.5 C93.541,141.915 92,142.72 92,143.588 C92,144.616 90.639,145 87,145 C82.667,145 82,144.733 82,143 C82,141.889 82.667,141 83.5,141 C84.495,141 85,140.005 85,138.045 C85,135.46 85.438,135.008 88.5,134.434 C90.425,134.073 92,133.22 92,132.539 C92,131.67 95.179,131.121 102.662,130.698 C109.761,130.296 113.591,129.66 114.124,128.797 C114.687,127.884 118.458,127.402 126.866,127.168 L138.808,126.837 L139.449,123.418 C139.83,121.388 140.681,120 141.545,120 C142.642,120 143,118.646 143,114.5 C143,110.278 143.348,109 144.5,109 C145.637,109 146,107.767 146,103.906 C146,99.654 146.33,98.726 148,98.29 C149.1,98.002 150,97.144 150,96.383 C150,95.623 150.675,95 151.5,95 C152.333,95 153,94.111 153,93 Z"/>
</svg>

