<svg xmlns="http://www.w3.org/2000/svg" width="300" height="300" viewBox="0 0 300 300" version="1.1">
  <defs/>
  <path d="M121,77.889 C121,75.272 121.319,75 124.392,75 C127.175,75 127.896,75.448 128.411,77.5 C129.247,80.831 128.124,85 126.392,85 C125.626,85 125,85.9 125,87 C125,88.111 124.333,89 123.5,89 C122.675,89 122,89.717 122,90.594 C122,91.47 121.126,92.416 120.057,92.695 C118.927,92.991 117.848,94.416 117.478,96.102 C117.128,97.696 116.202,99 115.421,99 C114.422,99 114,100.229 114,103.134 L114,107.268 L129.592,106.794 C141.541,106.431 145.388,105.991 146.054,104.91 C146.73,103.816 150.516,103.424 162.962,103.162 C175.948,102.889 179,102.556 179,101.412 C179,100.261 181.679,100 193.5,100 C205.722,100 208,100.236 208,101.5 C208,102.325 208.623,103 209.383,103 C210.144,103 211.002,103.9 211.29,105 C211.577,106.1 212.53,107 213.406,107 C214.561,107 215,107.964 215,110.5 C215,113.333 214.619,114 213,114 C211.103,114 211,114.667 211,127 C211,137.889 210.756,140 209.5,140 C208.284,140 208,141.611 208,148.5 C208,156.333 207.843,157 206,157 C204.178,157 204,157.667 204,164.5 C204,170.159 203.666,172 202.639,172 C201.286,172 200.028,178.574 200.009,185.75 C200.003,187.968 199.524,189 198.5,189 C197.3,189 197,190.5 197,196.5 C197,203.333 196.822,204 195,204 C193.242,204 193,204.667 193,209.5 C193,213.49 192.624,215 191.63,215 C190.746,215 190.078,216.614 189.747,219.549 C189.465,222.052 188.956,224.377 188.616,224.717 C187.584,225.75 177.379,226.284 172.544,225.559 C169.573,225.113 168,224.379 168,223.439 C168,222.461 166.878,222 164.5,222 C161.667,222 161,221.619 161,220 C161,218.667 160.333,218 159,218 C157.889,218 157,217.333 157,216.5 C157,215.675 156.377,215 155.617,215 C154.856,215 153.998,214.1 153.71,213 C153.423,211.9 152.47,211 151.594,211 C150.717,211 150,210.325 150,209.5 C150,208.675 149.283,208 148.406,208 C147.53,208 146.577,207.1 146.29,206 C146.002,204.9 145.144,204 144.383,204 C143.623,204 143,203.283 143,202.406 C143,201.53 142.1,200.577 141,200.29 C139.9,200.002 139,199.144 139,198.383 C139,197.623 138.375,197 137.611,197 C136.816,197 135.942,195.505 135.566,193.5 C135.173,191.405 134.325,190 133.455,190 C132.358,190 132,188.646 132,184.5 C132,179.667 132.242,179 134,179 C135.111,179 136,179.667 136,180.5 C136,181.325 136.675,182 137.5,182 C138.538,182 139,183.043 139,185.383 C139,187.926 139.497,188.897 141,189.29 C142.1,189.577 143,190.53 143,191.406 C143,192.283 143.675,193 144.5,193 C145.333,193 146,193.889 146,195 C146,196.333 146.667,197 148,197 C149.111,197 150,197.667 150,198.5 C150,199.325 150.717,200 151.594,200 C152.47,200 153.423,200.9 153.71,202 C153.998,203.1 154.856,204 155.617,204 C156.377,204 157,204.675 157,205.5 C157,206.333 157.889,207 159,207 C160.333,207 161,207.667 161,209 C161,210.619 161.667,211 164.5,211 C167.333,211 168,211.381 168,213 C168,214.619 168.667,215 171.5,215 C173.944,215 175,215.452 175,216.5 C175,217.333 175.889,218 177,218 C178.111,218 179,217.333 179,216.5 C179,215.675 179.625,215 180.389,215 C181.184,215 182.058,213.505 182.434,211.5 C182.827,209.405 183.675,208 184.545,208 C185.657,208 186,206.584 186,202 C186,197.584 186.362,196 187.371,196 C188.379,196 188.929,193.615 189.446,187 C189.978,180.207 190.5,178 191.575,178 C192.664,178 193,176.446 193,171.406 C193,165.654 193.255,164.746 195,164.29 C196.799,163.819 197,162.926 197,155.383 C197,148.598 197.286,147 198.5,147 C199.684,147 200.003,145.577 200.014,140.25 C200.03,132.152 200.759,129 202.617,129 C203.671,129 204,127.219 204,121.5 C204,115.781 203.671,114 202.617,114 C201.856,114 200.998,113.1 200.71,112 C200.246,110.226 199.346,110 192.749,110 C177.343,110 164,111.231 164,112.652 C164,113.393 163.325,114 162.5,114 C161.675,114 161,113.325 161,112.5 C161,111.667 160.111,111 159,111 C157.381,111 157,111.667 157,114.5 C157,116.896 157.459,118 158.455,118 C159.317,118 160.169,119.384 160.547,121.4 C161.609,127.06 160.896,128.492 156.979,128.563 C151.015,128.672 150,128.954 150,130.5 C150,131.325 149.375,132 148.611,132 C147.816,132 146.942,133.495 146.566,135.5 C146.173,137.595 145.325,139 144.455,139 C143.655,139 143,139.9 143,141 C143,142.333 142.333,143 141,143 C139.667,143 139,143.667 139,145 C139,146.111 138.333,147 137.5,147 C136.675,147 136,147.675 136,148.5 C136,149.333 135.111,150 134,150 C132.381,150 132,150.667 132,153.5 C132,156.036 131.561,157 130.406,157 C129.53,157 128.577,157.9 128.29,159 C128.002,160.1 127.144,161 126.383,161 C125.623,161 125,161.9 125,163 C125,164.1 124.345,165 123.545,165 C122.675,165 121.827,166.405 121.434,168.5 C121.058,170.505 120.184,172 119.389,172 C118.625,172 118,172.675 118,173.5 C118,174.333 117.111,175 116,175 C114.667,175 114,175.667 114,177 C114,178.1 113.345,179 112.545,179 C111.675,179 110.827,180.405 110.434,182.5 C110.058,184.505 109.184,186 108.389,186 C107.625,186 107,186.623 107,187.383 C107,188.144 106.1,189.002 105,189.29 C103.9,189.577 103,190.53 103,191.406 C103,192.283 102.375,193 101.611,193 C100.816,193 99.942,194.495 99.566,196.5 C99.173,198.595 98.325,200 97.455,200 C96.655,200 96,200.9 96,202 C96,203.333 95.333,204 94,204 C92.667,204 92,204.667 92,206 C92,207.111 91.333,208 90.5,208 C89.675,208 89,208.675 89,209.5 C89,210.333 88.111,211 87,211 C85.242,211 85,210.333 85,205.5 C85,200.667 85.242,200 87,200 C88.333,200 89,199.333 89,198 C89,196.9 89.639,196 90.421,196 C91.202,196 92.138,194.65 92.5,193 C92.862,191.35 93.798,190 94.579,190 C95.361,190 96,189.1 96,188 C96,186.9 96.655,186 97.455,186 C98.325,186 99.173,184.595 99.566,182.5 C99.942,180.495 100.816,179 101.611,179 C102.375,179 103,178.1 103,177 C103,175.667 103.667,175 105,175 C106.333,175 107,174.333 107,173 C107,171.889 107.667,171 108.5,171 C109.325,171 110,170.325 110,169.5 C110,168.667 110.889,168 112,168 C113.619,168 114,167.333 114,164.5 C114,161.964 114.439,161 115.594,161 C116.47,161 117.423,160.1 117.71,159 C117.998,157.9 118.856,157 119.617,157 C120.377,157 121,156.1 121,155 C121,153.9 121.639,153 122.421,153 C123.202,153 124.138,151.65 124.5,150 C124.862,148.35 125.798,147 126.579,147 C127.361,147 128,146.1 128,145 C128,143.667 128.667,143 130,143 C131.606,143 132,142.333 132,139.617 C132,137.074 132.497,136.103 134,135.71 C135.1,135.423 136,134.47 136,133.594 C136,132.717 136.675,132 137.5,132 C138.548,132 139,130.944 139,128.5 C139,125.667 139.381,125 141,125 C142.333,125 143,124.333 143,123 C143,121.9 143.623,121 144.383,121 C145.144,121 146.002,120.1 146.29,119 C146.577,117.9 147.53,117 148.406,117 C149.283,117 150,116.325 150,115.5 C150,114.3 148.5,114 142.5,114 C136.836,114 135,114.334 135,115.362 C135,116.902 125.184,117.743 109,117.59 L99.5,117.5 L99.195,112.171 C98.928,107.5 99.144,106.775 100.945,106.304 C102.394,105.925 103,104.95 103,103 C103,101.074 103.608,100.074 105,99.71 C106.1,99.423 107,98.47 107,97.594 C107,96.717 107.675,96 108.5,96 C109.548,96 110,94.944 110,92.5 C110,89.667 110.381,89 112,89 C113.614,89 114,88.333 114,85.545 C114,82.389 114.302,82.034 117.5,81.434 C120.541,80.864 121,80.398 121,77.889 Z"/>
</svg>

