<svg xmlns="http://www.w3.org/2000/svg" width="300" height="300" viewBox="0 0 300 300" version="1.1">
  <defs/>
  <path d="M106.566,91.5 C107.163,88.318 107.53,88 110.611,88 C112.83,88 114,88.478 114,89.383 C114,90.144 114.9,91.002 116,91.29 C117.1,91.577 118,92.53 118,93.406 C118,94.561 118.964,95 121.5,95 C124.833,95 125,95.167 125,98.5 C125,101.333 124.619,102 123,102 C121.889,102 121,101.333 121,100.5 C121,99.675 120.377,99 119.617,99 C118.101,99 117.035,101.968 117.014,106.25 C117.005,108.022 116.466,109 115.5,109 C114.667,109 114,109.889 114,111 C114,112.1 114.632,113 115.404,113 C116.474,113 116.977,115.493 117.523,123.5 L118.239,134 L135.619,134 C150.402,134 153,133.776 153,132.5 C153,131.675 153.848,131 154.883,131 C155.962,131 157.004,130.093 157.322,128.876 C157.784,127.11 158.351,126.871 160.689,127.456 C162.235,127.843 163.86,128.798 164.3,129.58 C164.74,130.361 166.427,131 168.05,131 C170.006,131 171,131.506 171,132.5 C171,133.325 170.325,134 169.5,134 C168.667,134 168,134.889 168,136 C168,137.619 167.333,138 164.5,138 C162.197,138 161,138.47 161,139.375 C161,141.06 156.658,142 148.875,142 C144.319,142 143,142.337 143,143.5 C143,144.333 142.111,145 141,145 C139.889,145 139,144.333 139,143.5 C139,142.675 138.325,142 137.5,142 C136.675,142 136,142.675 136,143.5 C136,144.702 134.487,145 128.387,145 L120.773,145 L121.164,155.553 C121.456,163.452 121.925,166.335 123.027,167.015 C124.16,167.713 124.577,170.705 124.834,179.962 C125.099,189.522 125.459,192 126.584,192 C127.697,192 128.002,193.873 128.009,200.75 C128.021,213.031 128.973,220 130.639,220 C131.686,220 132,222.069 132,228.955 L132,237.909 L128.5,238.566 C126.495,238.942 125,239.816 125,240.611 C125,241.375 124.1,242 123,242 C121.889,242 121,241.333 121,240.5 C121,239.379 119.799,238.997 116.25,238.986 C110.077,238.969 107,238.103 107,236.383 C107,235.623 106.1,235 105,235 C103.9,235 103,234.375 103,233.611 C103,232.816 101.505,231.942 99.5,231.566 C96.302,230.966 96,230.611 96,227.455 C96,224.349 96.278,224.001 98.75,224.014 C103.032,224.035 106,225.101 106,226.617 C106,227.671 107.781,228 113.5,228 L121,228 L121,222.5 C121,218.278 120.652,217 119.5,217 C118.256,217 117.999,215.081 117.994,205.75 C117.985,188.687 116.967,178 115.352,178 C114.298,178 114,175.575 114,167 C114,157.889 113.742,156 112.5,156 C111.588,156 111,155.069 111,153.625 C111,152.319 110.719,149.844 110.375,148.125 L109.75,145 L93.875,145 C81.072,145 78,145.266 78,146.375 C78,148.06 73.658,149 65.875,149 C61.319,149 60,149.337 60,150.5 C60,151.548 58.944,152 56.5,152 L53,152 L53,147.045 C53,142.175 53.059,142.08 56.5,141.434 C58.505,141.058 60,140.184 60,139.389 C60,138.268 62.794,138 74.5,138 C86.722,138 89,137.764 89,136.5 C89,135.277 90.676,135 98.081,135 L107.162,135 L106.831,116.832 C106.587,103.428 106.172,98.556 105.25,98.249 C103.795,97.765 103.543,95 104.955,95 C105.48,95 106.205,93.425 106.566,91.5 Z M178.708,169.75 C179.171,167.4 179.741,167 182.625,167 C184.958,167 186,167.463 186,168.5 C186,169.333 186.889,170 188,170 C189.333,170 190,170.667 190,172 C190,173.111 190.667,174 191.5,174 C192.325,174 193,174.623 193,175.383 C193,176.144 193.9,177.002 195,177.29 C196.197,177.603 197,178.654 197,179.906 C197,181.072 197.645,182 198.455,182 C199.325,182 200.173,183.405 200.566,185.5 C200.942,187.505 201.816,189 202.611,189 C203.611,189 204,190.4 204,194 C204,198.333 204.267,199 206,199 C207.333,199 208,199.667 208,201 C208,202.111 208.667,203 209.5,203 C210.548,203 211,204.056 211,206.5 C211,209.333 211.381,210 213,210 C214.667,210 215,210.667 215,214 C215,216.889 215.417,218 216.5,218 C217.325,218 218,218.45 218,219 C218,219.55 217.325,220 216.5,220 C215.667,220 215,220.889 215,222 C215,223.667 214.333,224 211,224 C208.111,224 207,223.583 207,222.5 C207,221.675 206.325,221 205.5,221 C204.348,221 204,219.722 204,215.5 C204,211.354 203.642,210 202.545,210 C201.675,210 200.827,208.595 200.434,206.5 C200.058,204.495 199.184,203 198.389,203 C197.461,203 197,201.806 197,199.406 C197,196.654 196.532,195.69 195,195.29 C193.583,194.919 193,193.926 193,191.883 C193,190.09 192.475,189 191.611,189 C190.822,189 189.945,187.522 189.58,185.572 C189.06,182.804 188.366,182.02 185.968,181.493 C184.336,181.134 183,180.202 183,179.421 C183,178.639 182.152,178 181.117,178 C178.965,178 177.841,174.149 178.708,169.75 Z M186,73.5 C186,71.056 186.452,70 187.5,70 C188.325,70 189,70.675 189,71.5 C189,72.333 189.889,73 191,73 C192.333,73 193,73.667 193,75 C193,76.1 193.655,77 194.455,77 C195.325,77 196.173,78.405 196.566,80.5 C196.942,82.505 197.816,84 198.611,84 C199.375,84 200,84.717 200,85.594 C200,86.47 200.9,87.423 202,87.71 C203.503,88.103 204,89.074 204,91.617 C204,94.333 204.394,95 206,95 C207.111,95 208,95.667 208,96.5 C208,97.548 209.056,98 211.5,98 C214.809,98 215,98.185 215,101.375 C215,104.355 214.634,104.823 211.875,105.375 C206.102,106.53 204,106.163 204,104 C204,102.889 203.333,102 202.5,102 C201.675,102 201,101.283 201,100.406 C201,99.53 200.1,98.577 199,98.29 C197.9,98.002 197,97.144 197,96.383 C197,95.623 196.1,95 195,95 C193.667,95 193,94.333 193,93 C193,91.9 192.345,91 191.545,91 C190.675,91 189.827,89.595 189.434,87.5 C188.864,84.459 188.398,84 185.889,84 C183.254,84 183,83.692 183,80.5 C183,78.056 183.452,77 184.5,77 C185.548,77 186,75.944 186,73.5 Z M62.25,177.706 C65.942,176.995 67.251,176.988 72.75,177.648 C76.976,178.156 78,178.641 78,180.139 C78,181.163 77.373,182 76.607,182 C75.841,182 74.955,182.675 74.638,183.5 C74.277,184.441 72.748,185 70.531,185 C68.185,185 67,185.466 67,186.389 C67,187.184 65.505,188.058 63.5,188.434 C60.302,189.034 60,189.389 60,192.545 C60,194.949 59.544,196 58.5,196 C56.968,196 56.509,198.165 56.933,203.397 C57.314,208.103 56.05,213 54.455,213 C53.655,213 53,212.325 53,211.5 C53,210.667 52.111,210 51,210 C49.127,210 49,209.333 49,199.5 C49,190.559 49.237,189 50.594,189 C51.47,189 52.423,188.1 52.71,187 C52.998,185.9 53.856,185 54.617,185 C55.377,185 56,184.1 56,183 C56,181.667 56.667,181 58,181 C59.1,181 60,180.356 60,179.57 C60,178.783 61.013,177.944 62.25,177.706 Z M222,64.5 C222,63.667 222.889,63 224,63 C225.111,63 226,63.667 226,64.5 C226,65.325 226.675,66 227.5,66 C228.325,66 229,66.623 229,67.383 C229,68.144 229.9,69.002 231,69.29 C232.197,69.603 233,70.654 233,71.906 C233,73.072 233.645,74 234.455,74 C235.325,74 236.173,75.405 236.566,77.5 C236.942,79.505 237.816,81 238.611,81 C239.475,81 240,82.09 240,83.883 C240,85.926 240.583,86.919 242,87.29 C243.1,87.577 244,88.53 244,89.406 C244,90.283 244.675,91 245.5,91 C246.333,91 247,91.889 247,93 C247,94.357 247.667,95 249.073,95 C251.693,95 251.317,98.315 248.639,98.831 C245.528,99.43 240,97.984 240,96.571 C240,95.835 239.1,94.998 238,94.71 C236.9,94.423 236,93.47 236,92.594 C236,91.717 235.375,91 234.611,91 C233.816,91 232.942,89.505 232.566,87.5 C232.173,85.405 231.325,84 230.455,84 C229.655,84 229,83.1 229,82 C229,80.9 228.361,80 227.579,80 C226.798,80 225.869,78.679 225.514,77.065 C225.03,74.861 224.139,73.97 221.935,73.486 C220.321,73.131 218.994,72.314 218.986,71.671 C218.979,71.027 218.701,69.487 218.37,68.25 C217.883,66.435 218.176,66 219.883,66 C221.098,66 222,65.361 222,64.5 Z"/>
</svg>

