<svg xmlns="http://www.w3.org/2000/svg" width="300" height="300" viewBox="0 0 300 300" version="1.1">
  <defs/>
  <path d="M184.25,69.685 C185.488,69.436 187.4,69.398 188.5,69.602 C189.6,69.806 191.063,69.979 191.75,69.986 C192.469,69.994 193,71.274 193,73 Q193,76 191.5,76 C190.667,76 190,76.889 190,78 C190,79.333 189.333,80 188,80 C186.667,80 186,80.667 186,82 C186,83.1 185.381,84 184.625,84 C183.254,84 182,88.12 182,92.625 C182,94.069 181.412,95 180.5,95 C179.363,95 179,96.233 179,100.094 C179,104.346 178.67,105.274 177,105.71 C175.344,106.143 175,107.074 175,111.117 C175,114.791 174.629,116 173.5,116 C172.445,116 172,117.066 172,119.594 C172,122.346 171.532,123.31 170,123.71 C167.416,124.386 167.047,131 169.594,131 C170.47,131 171.423,130.1 171.71,129 C172.211,127.087 173.074,127 191.617,127 L211,127 L211,130.594 C211,133.346 211.468,134.31 213,134.71 C214.798,135.18 215,136.074 215,143.567 C215,150.363 214.687,152.076 213.304,152.85 C212.055,153.549 211.497,155.538 211.187,160.4 C210.885,165.15 210.379,167 209.384,167 C208.594,167 208,168.019 208,169.375 C208,173.88 206.746,178 205.375,178 C204.47,178 204,179.197 204,181.5 C204,183.896 203.541,185 202.545,185 C201.675,185 200.827,186.405 200.434,188.5 C200.058,190.505 199.184,192 198.389,192 C197.468,192 197,193.18 197,195.5 C197,198.333 196.619,199 195,199 C193.667,199 193,199.667 193,201 C193,202.1 192.377,203 191.617,203 C190.856,203 189.998,203.9 189.71,205 C189.423,206.1 188.47,207 187.594,207 C186.439,207 186,207.964 186,210.5 C186,212.857 185.536,214 184.579,214 C183.798,214 182.862,215.35 182.5,217 C182.122,218.722 181.196,220 180.327,220 C179.494,220 178.577,220.9 178.29,222 C178.002,223.1 177.144,224 176.383,224 C175.623,224 175,224.9 175,226 C175,227.1 174.377,228 173.617,228 C172.856,228 171.998,228.9 171.71,230 C171.274,231.67 170.346,232 166.094,232 C162.233,232 161,232.363 161,233.5 C161,234.333 160.111,235 159,235 C157.889,235 157,234.333 157,233.5 C157,232.675 156.283,232 155.406,232 C154.53,232 153.577,231.1 153.29,230 C153.002,228.9 152.144,228 151.383,228 C150.623,228 150,227.1 150,226 C150,224.667 149.333,224 148,224 C146.444,224 146,223.333 146,221 C146,218.922 145.51,218 144.406,218 C143.53,218 142.577,217.1 142.29,216 C142.002,214.9 141.144,214 140.383,214 C139.623,214 139,213.1 139,212 C139,210.9 138.345,210 137.545,210 C136.675,210 135.827,208.595 135.434,206.5 C135.058,204.495 134.184,203 133.389,203 C132.327,203 132,201.233 132,195.5 C132,189.604 132.311,188 133.455,188 C134.325,188 135.173,186.595 135.566,184.5 C136.002,182.175 136.778,181 137.877,181 C139.339,181 139.488,182.28 139.155,192 C138.831,201.475 138.996,203 140.344,203 C141.341,203 142.148,204.27 142.566,206.5 C143.041,209.033 143.745,210 145.111,210 C146.333,210 147,210.706 147,212 C147,213.111 147.667,214 148.5,214 C149.325,214 150,214.675 150,215.5 C150,216.333 150.889,217 152,217 C153.333,217 154,217.667 154,219 C154,220.619 154.667,221 157.5,221 C159.944,221 161,221.452 161,222.5 C161,223.548 162.056,224 164.5,224 C167.333,224 168,223.619 168,222 C168,220.9 168.639,220 169.421,220 C170.202,220 171.138,218.65 171.5,217 C171.862,215.35 172.748,214 173.468,214 C174.188,214 175.073,212.425 175.434,210.5 C175.827,208.405 176.675,207 177.545,207 C178.345,207 179,206.1 179,205 C179,203.889 179.667,203 180.5,203 C181.333,203 182,202.111 182,201 C182,199.667 182.667,199 184,199 C185.619,199 186,198.333 186,195.5 C186,192.667 186.381,192 188,192 C189.333,192 190,191.333 190,190 C190,188.889 190.667,188 191.5,188 C192.548,188 193,186.944 193,184.5 C193,181.667 193.381,181 195,181 C196.619,181 197,180.333 197,177.5 C197,175.056 197.452,174 198.5,174 C199.605,174 200,172.847 200,169.625 C200,163.259 201.052,159 202.625,159 C203.704,159 204,156.742 204,148.5 C204,138.667 203.873,138 202,138 C200.889,138 200,137.333 200,136.5 C200,135.278 198.333,135 191,135 C183.667,135 182,135.278 182,136.5 C182,137.722 180.333,138 173,138 C165.667,138 164,138.278 164,139.5 C164,140.325 163.283,141 162.406,141 C161.53,141 160.577,141.9 160.29,143 C160.002,144.1 159.144,145 158.383,145 C157.623,145 157,145.9 157,147 C157,148.1 156.375,149 155.611,149 C154.816,149 153.942,150.495 153.566,152.5 C153.173,154.595 152.325,156 151.455,156 C150.655,156 150,156.9 150,158 C150,159.1 149.345,160 148.545,160 C147.675,160 146.827,161.405 146.434,163.5 C146.058,165.505 145.184,167 144.389,167 C143.625,167 143,167.623 143,168.383 C143,169.144 142.1,170.002 141,170.29 C139.468,170.69 139,171.654 139,174.406 C139,176.934 138.555,178 137.5,178 C136.675,178 136,178.675 136,179.5 C136,180.333 135.111,181 134,181 C132.667,181 132,181.667 132,183 C132,184.111 131.333,185 130.5,185 C129.675,185 129,185.717 129,186.594 C129,187.47 128.1,188.423 127,188.71 C125.9,188.998 125,189.856 125,190.617 C125,191.377 124.1,192 123,192 C121.381,192 121,192.667 121,195.5 C121,198.333 120.619,199 119,199 C117.889,199 117,199.667 117,200.5 C117,201.325 116.325,202 115.5,202 C114.675,202 114,202.88 114,203.955 C114,205.397 113.082,206.082 110.5,206.566 C107.475,207.134 107,207.608 107,210.066 C107,212.515 106.522,212.999 103.557,213.555 C100.818,214.069 99.988,214.78 99.492,217.035 C99.038,219.106 98.106,220.037 96.037,220.492 C94.409,220.849 92.987,221.941 92.695,223.057 C92.416,224.126 91.47,225 90.594,225 C89.717,225 89,225.675 89,226.5 C89,227.333 88.111,228 87,228 C85.339,228 85,227.333 85,224.071 C85,219.844 86.993,217 89.955,217 C90.951,217 92.002,216.1 92.29,215 C92.577,213.9 93.53,213 94.406,213 C95.283,213 96,212.325 96,211.5 C96,210.675 96.623,210 97.383,210 C98.144,210 99.002,209.1 99.29,208 C99.577,206.9 100.53,206 101.406,206 C102.283,206 103,205.325 103,204.5 C103,203.675 103.717,203 104.594,203 C105.47,203 106.423,202.1 106.71,201 C106.998,199.9 107.856,199 108.617,199 C109.377,199 110,198.283 110,197.406 C110,196.53 110.9,195.577 112,195.29 C113.1,195.002 114,194.144 114,193.383 C114,192.623 114.625,192 115.389,192 C116.184,192 117.058,190.505 117.434,188.5 C117.827,186.405 118.675,185 119.545,185 C120.345,185 121,184.1 121,183 C121,181.667 121.667,181 123,181 C124.333,181 125,180.333 125,179 C125,177.889 125.667,177 126.5,177 C127.325,177 128,176.325 128,175.5 C128,174.667 128.889,174 130,174 C131.619,174 132,173.333 132,170.5 C132,168.056 132.452,167 133.5,167 C134.325,167 135,166.283 135,165.406 C135,164.53 135.9,163.577 137,163.29 C138.503,162.897 139,161.926 139,159.383 C139,156.667 139.394,156 141,156 C142.333,156 143,155.333 143,154 C143,152.889 143.667,152 144.5,152 C145.51,152 146,150.99 146,148.906 C146,146.654 146.544,145.671 148,145.29 C149.159,144.987 150,143.926 150,142.767 C150,141.181 149.534,140.892 147.75,141.37 C146.512,141.701 142.463,141.979 138.75,141.986 C133.623,141.997 132,142.338 132,143.406 C132,144.499 129.753,144.889 121.928,145.156 C113.604,145.44 111.687,145.804 110.879,147.25 C110.044,148.743 108.364,149 99.45,149 L89,149 L89,143.5 C89,138.667 89.242,138 91,138 C92.111,138 93,137.333 93,136.5 C93,135.675 93.675,135 94.5,135 C95.433,135 96,134.056 96,132.5 C96,131.007 96.572,130 97.421,130 C98.202,130 99.138,128.65 99.5,127 C99.862,125.35 100.798,124 101.579,124 C102.543,124 103,122.845 103,120.406 C103,117.654 103.468,116.69 105,116.29 C106.656,115.857 107,114.926 107,110.883 C107,107.209 107.371,106 108.5,106 C109.523,106 110.004,104.966 110.014,102.75 C110.034,98 111.041,95 112.617,95 C113.564,95 114,93.739 114,91 C114,88.19 114.427,87 115.437,87 C116.327,87 116.993,85.763 117.187,83.75 C117.473,80.783 117.826,80.473 121.25,80.19 L125,79.879 L125,83.94 C125,86.882 125.413,88 126.5,88 C127.548,88 128,89.056 128,91.5 C128,94.333 127.619,95 126,95 C124.889,95 124,95.667 124,96.5 C124,97.325 123.325,98 122.5,98 C121.417,98 121,99.111 121,102 C121,104.889 120.583,106 119.5,106 C118.452,106 118,107.056 118,109.5 C118,112.333 117.619,113 116,113 C114.242,113 114,113.667 114,118.5 C114,122.646 113.642,124 112.545,124 C111.675,124 110.827,125.405 110.434,127.5 C110.058,129.505 109.184,131 108.389,131 C107.625,131 107,131.623 107,132.383 C107,133.144 106.1,134.002 105,134.29 C103.9,134.577 103,135.53 103,136.406 C103,137.78 104.729,138 115.5,138 C125.439,138 128,137.718 128,136.625 C128,134.94 132.342,134 140.125,134 C144.681,134 146,133.663 146,132.5 C146,131.348 147.278,131 151.5,131 C156.333,131 157,130.758 157,129 C157,127.667 157.667,127 159,127 C160.733,127 161,126.333 161,122 C161,118.4 161.389,117 162.389,117 C163.184,117 164.058,115.505 164.434,113.5 C164.827,111.405 165.675,110 166.545,110 C167.576,110 168,108.834 168,106 C168,103.111 168.417,102 169.5,102 C170.412,102 171,101.069 171,99.625 C171,95.12 172.254,91 173.625,91 C174.612,91 175,89.562 175,85.906 C175,81.654 175.33,80.726 177,80.29 C178.107,80 179,78.926 179,77.883 C179,76.848 179.675,76 180.5,76 C181.492,76 182,75.008 182,73.07 C182,70.832 182.532,70.032 184.25,69.685 Z"/>
</svg>

