<svg xmlns="http://www.w3.org/2000/svg" width="300" height="300" viewBox="0 0 300 300" version="1.1">
  <defs/>
  <path d="M138,91.726 C138.825,91.413 148.387,91.122 159.25,91.079 C175.437,91.014 179,91.25 179,92.383 C179,94.241 182.152,94.97 190.25,94.986 C195.577,94.997 197,95.316 197,96.5 C197,97.689 198.438,98 203.941,98 C207.759,98 211.073,98.338 211.306,98.75 C211.539,99.162 211.507,105.688 211.234,113.25 C210.848,123.982 210.439,127 209.37,127 C208.252,127 208,131.042 208,149 C208,167.889 208.212,171 209.5,171 C210.69,171 211,172.444 211,178 C211,183.293 211.337,185 212.383,185 C214.399,185 214.971,188.243 214.986,199.75 C214.999,209.338 214.871,210 213,210 C211.9,210 211,209.377 211,208.617 C211,207.856 210.1,206.998 209,206.71 C207.468,206.31 207,205.346 207,202.594 C207,200.066 206.555,199 205.5,199 C204.3,199 204,197.5 204,191.5 C204,185.832 203.667,184 202.636,184 C200.424,184 200,176.984 200,140.36 L200,106 L197.625,106 C193.12,106 189,104.746 189,103.375 C189,102.31 186.97,102 180,102 C172.667,102 171,101.722 171,100.5 C171,99.25 169,99 159,99 C149,99 147,99.25 147,100.5 C147,101.7 145.5,102 139.5,102 C133.742,102 132,102.325 132,103.399 C132,104.396 129.995,104.998 125,105.5 C120.005,106.002 118,106.604 118,107.601 C118,108.54 116.818,109 114.406,109 C111.654,109 110.69,109.468 110.29,111 C109.922,112.407 108.926,113 106.929,113 C104.477,113 104.001,113.476 103.434,116.5 C102.959,119.033 102.255,120 100.889,120 C99.85,120 99,120.639 99,121.421 C99,122.202 97.65,123.138 96,123.5 C93.019,124.155 93,124.203 93,131.079 C93,136.564 93.311,138 94.5,138 C95.791,138 96,141.278 96,161.5 C96,184.765 96.021,185 98.117,185 C99.824,185 100.117,185.435 99.63,187.25 C99.299,188.488 99.021,190.063 99.014,190.75 C99.005,191.582 97.326,192 94,192 C91.959,192 90.723,192.21 89.957,191.706 C88.578,190.797 88.725,187.571 88.448,176.628 C88.29,170.42 87.814,167.503 86.861,166.914 C85.766,166.237 85.5,160.678 85.5,138.466 C85.5,113.214 85.649,110.776 87.25,109.88 C88.213,109.341 89,108.248 89,107.45 C89,106.653 89.675,106 90.5,106 C91.333,106 92,105.111 92,104 C92,102.667 92.667,102 94,102 C95.1,102 96,102.619 96,103.375 C96,104.972 100.723,106.147 103.851,105.329 C105.033,105.02 106,104.144 106,103.383 C106,102.436 107.261,102 110,102 C113.333,102 114,101.667 114,100 C114,98.242 114.667,98 119.5,98 C123.722,98 125,97.652 125,96.5 C125,95.369 126.217,95 129.95,95 C133.052,95 135.199,94.494 135.7,93.647 C136.14,92.902 137.175,92.038 138,91.726 Z"/>
</svg>

