<svg xmlns="http://www.w3.org/2000/svg" width="300" height="300" viewBox="0 0 300 300" version="1.1">
  <defs/>
  <path d="M172,54.5 C172,53.675 172.675,53 173.5,53 C174.325,53 175,53.623 175,54.383 C175,55.144 175.9,56.002 177,56.29 C178.667,56.726 179,57.654 179,61.857 C179,65.56 178.549,67.153 177.304,67.85 C176.055,68.549 175.497,70.538 175.187,75.4 C174.885,80.15 174.379,82 173.384,82 C172.271,82 172,84.746 172,96 C172,107.778 172.238,110 173.5,110 C174.325,110 175,109.325 175,108.5 C175,107.311 176.439,107 181.95,107 C187.446,107 189.099,106.645 189.85,105.304 C190.549,104.055 192.538,103.497 197.4,103.187 C201.883,102.902 204,102.356 204,101.485 C204,100.631 206.339,99.968 211,99.5 C215.995,98.998 218,98.396 218,97.399 C218,96.299 220.029,96 227.5,96 L237,96 L236.991,99.75 C236.974,107.378 235.751,114 234.361,114 C233.343,114 233,115.763 233,121 C233,127.333 232.81,128 231,128 C229.381,128 229,128.667 229,131.5 C229,133.944 228.548,135 227.5,135 C226.644,135 226,135.899 226,137.094 C226,138.346 225.197,139.397 224,139.71 C222.497,140.103 222,141.074 222,143.617 C222,145.911 221.532,147 220.545,147 C219.675,147 218.827,148.405 218.434,150.5 C218.058,152.505 217.184,154 216.389,154 C215.625,154 215,154.689 215,155.531 C215,156.374 214.337,157.317 213.527,157.628 C212.717,157.939 211.767,159.725 211.416,161.597 C211.054,163.527 210.177,165 209.389,165 C208.625,165 208,165.675 208,166.5 C208,167.333 207.111,168 206,168 C204.667,168 204,168.667 204,170 C204,171.111 203.333,172 202.5,172 C201.675,172 201,172.675 201,173.5 C201,174.583 199.889,175 197,175 C193.095,175 193,174.917 193,171.5 C193,168.667 193.381,168 195,168 C196.1,168 197,167.377 197,166.617 C197,165.856 197.9,164.998 199,164.71 C200.1,164.423 201,163.47 201,162.594 C201,161.717 201.675,161 202.5,161 C203.333,161 204,160.111 204,159 C204,157.9 204.655,157 205.455,157 C206.325,157 207.173,155.595 207.566,153.5 C207.942,151.495 208.816,150 209.611,150 C210.523,150 211,148.837 211,146.617 C211,144.074 211.497,143.103 213,142.71 C214.456,142.329 215,141.346 215,139.094 C215,137.096 215.5,136 216.412,136 C217.28,136 218.085,134.459 218.5,132 C218.915,129.541 219.72,128 220.588,128 C221.535,128 222,126.848 222,124.5 C222,122.056 222.452,121 223.5,121 C224.325,121 225.004,120.213 225.009,119.25 C225.013,118.287 225.301,115.138 225.648,112.25 L226.279,107 L218.639,107 C212.515,107 211,107.298 211,108.5 C211,109.412 210.069,110 208.625,110 C204.12,110 200,111.254 200,112.625 C200,113.661 198.273,114 193,114 C187.707,114 186,114.337 186,115.383 C186,117.103 182.923,117.969 176.75,117.986 C173.201,117.997 172,118.379 172,119.5 C172,120.333 171.111,121 170,121 C168.242,121 168,121.667 168,126.5 C168,130.5 167.625,132 166.625,132 C165.096,132 164,136.228 164,142.125 C164,144.903 163.575,146 162.5,146 C161.35,146 161,147.272 161,151.45 C161,155.415 160.562,157.146 159.394,157.799 C158.428,158.34 157.58,160.551 157.264,163.349 C156.924,166.365 156.258,168 155.37,168 C154.494,168 153.995,169.172 153.986,171.25 C153.966,176 152.959,179 151.383,179 C150.469,179 150,180.187 150,182.5 C150,184.848 149.535,186 148.588,186 C147.72,186 146.915,187.541 146.5,190 C146.085,192.459 145.28,194 144.412,194 C143.5,194 143,195.096 143,197.094 C143,199.346 142.456,200.329 141,200.71 C139.344,201.143 139,202.074 139,206.117 C139,209.617 138.607,211 137.611,211 C136.816,211 135.942,212.495 135.566,214.5 C135.173,216.595 134.325,218 133.455,218 C132.459,218 132,219.104 132,221.5 C132,224.036 131.561,225 130.406,225 C129.53,225 128.577,225.9 128.29,227 C128.002,228.1 127.194,229 126.495,229 C125.795,229 124.936,230.525 124.587,232.39 C123.883,236.14 121.643,237.279 116.851,236.32 C114.392,235.828 114,235.286 114,232.375 C114,229.667 114.395,229 116,229 C117.333,229 118,228.333 118,227 C118,225.889 118.667,225 119.5,225 C120.325,225 121,224.325 121,223.5 C121,222.667 121.889,222 123,222 C124.619,222 125,221.333 125,218.5 C125,216.056 125.452,215 126.5,215 C127.412,215 128,214.069 128,212.625 C128,208.12 129.254,204 130.625,204 C131.53,204 132,202.803 132,200.5 C132,198.104 132.459,197 133.455,197 C134.325,197 135.173,195.595 135.566,193.5 C135.942,191.495 136.816,190 137.611,190 C138.628,190 139,188.526 139,184.5 C139,179.667 138.758,179 137,179 C135.381,179 135,178.333 135,175.5 C135,173.056 134.548,172 133.5,172 C132.217,172 132,169.111 132,152 L132,132 L128.5,132 C125.167,132 125,131.833 125,128.5 C125,125.083 124.905,125 121,125 C118.111,125 117,125.417 117,126.5 C117,127.565 115.913,128.003 113.25,128.009 C105.622,128.026 99,129.249 99,130.639 C99,131.388 98.325,132 97.5,132 C96.452,132 96,133.056 96,135.5 C96,138.333 96.381,139 98,139 C99.619,139 100,139.667 100,142.5 C100,144.944 100.452,146 101.5,146 C102.333,146 103,146.889 103,148 C103,149.619 102.333,150 99.5,150 L96,150 L96,156.883 C96,162.926 96.244,163.831 98,164.29 C99.1,164.577 100,165.53 100,166.406 C100,167.561 100.964,168 103.5,168 C105.896,168 107,168.459 107,169.455 C107,170.325 108.405,171.173 110.5,171.566 C112.505,171.942 114,172.816 114,173.611 C114,174.628 115.474,175 119.5,175 C123.722,175 125,174.652 125,173.5 C125,172.667 125.889,172 127,172 C128.619,172 129,172.667 129,175.5 C129,178.567 128.69,179 126.5,179 C124.944,179 124,179.567 124,180.5 C124,181.69 122.556,182 117,182 C111.444,182 110,181.69 110,180.5 C110,179.31 108.556,179 103,179 L96,179 L96,192.883 C96,205.926 96.121,206.798 98,207.29 C99.456,207.671 100,208.654 100,210.906 C100,212.99 100.49,214 101.5,214 C102.7,214 103,215.5 103,221.5 C103,227.5 102.7,229 101.5,229 C100.348,229 100,230.278 100,234.5 C100,239.333 99.758,240 98,240 C96.667,240 96,240.667 96,242 C96,243.618 95.333,244 92.511,244 L89.021,244 L88.761,200.764 C88.518,160.5 88.38,157.504 86.75,157.19 C85.682,156.985 85,157.467 85,158.427 C85,159.292 84.383,160 83.628,160 C82.8,160 82.002,161.587 81.616,164 C81.202,166.588 80.451,168 79.488,168 C78.667,168 78,168.896 78,170 C78,171.1 77.345,172 76.545,172 C75.675,172 74.827,173.405 74.434,175.5 C74.058,177.505 73.184,179 72.389,179 C71.625,179 71,179.675 71,180.5 C71,181.325 70.283,182 69.406,182 C68.53,182 67.577,182.9 67.29,184 C67.002,185.1 66.194,186 65.495,186 C64.795,186 63.927,187.575 63.566,189.5 C63.173,191.595 62.325,193 61.455,193 C60.655,193 60,193.9 60,195 C60,196.1 59.345,197 58.545,197 C57.675,197 56.827,198.405 56.434,200.5 C56.058,202.505 55.184,204 54.389,204 C53.435,204 53,205.255 53,208.01 C53,210.782 52.383,212.548 51,213.732 C49.9,214.674 49,216.019 49,216.722 C49,217.516 47.674,218 45.5,218 L42,218 L42,213 C42,209.4 42.389,208 43.389,208 C44.184,208 45.058,206.505 45.434,204.5 C45.827,202.405 46.675,201 47.545,201 C48.548,201 49,199.884 49,197.406 C49,194.654 49.468,193.69 51,193.29 C52.107,193 53,191.926 53,190.883 C53,189.848 53.639,189 54.421,189 C55.202,189 56.138,187.65 56.5,186 C56.862,184.35 57.798,183 58.579,183 C59.361,183 60,182.1 60,181 C60,179.889 60.667,179 61.5,179 C62.333,179 63,178.111 63,177 C63,175.667 63.667,175 65,175 C66.619,175 67,174.333 67,171.5 C67,168.667 67.381,168 69,168 C70.619,168 71,167.333 71,164.5 C71,162.18 71.468,161 72.389,161 C73.184,161 74.058,159.505 74.434,157.5 C74.827,155.405 75.675,154 76.545,154 C77.345,154 78,153.1 78,152 C78,150.889 78.667,150 79.5,150 C80.583,150 81,148.889 81,146 C81,143.111 80.583,142 79.5,142 Q78,142 78,139 C78,136.238 77.722,136 74.5,136 C71.083,136 71,135.905 71,132 C71,129.111 71.417,128 72.5,128 C73.325,128 74,127.325 74,126.5 C74,125.348 75.278,125 79.5,125 L85,125 L85,103.469 C85,85.429 85.239,81.846 86.473,81.372 C87.283,81.061 88.233,79.275 88.584,77.403 C89.209,74.073 89.329,74 94.205,74 C98.346,74 99.276,74.338 99.71,76 C99.998,77.1 100.856,78 101.617,78 C104.617,78 102.876,80.933 99.5,81.566 C96.318,82.163 96,82.53 96,85.611 C96,87.957 95.538,89 94.5,89 C93.278,89 93,90.667 93,98 C93,105.333 93.278,107 94.5,107 C95.69,107 96,108.444 96,114 L96,121 L99.5,121 C101.81,121 103,120.531 103,119.619 C103,118.578 105.583,118.063 113.5,117.523 C121.507,116.977 124,116.474 124,115.404 C124,114.433 125.233,114 128,114 L132,114 L132,92 L135.5,92 C138.333,92 139,92.381 139,94 C139,95.1 139.623,96 140.383,96 C142.241,96 142.97,99.152 142.986,107.25 L143,114 L150,114 C155.293,114 157,113.663 157,112.617 C157,111.856 157.9,110.998 159,110.71 C160.1,110.423 161,109.47 161,108.594 C161,107.717 161.675,107 162.5,107 C163.741,107 164,105.128 164,96.156 C164,77.597 165.121,64 166.652,64 C167.558,64 168,62.688 168,60 C168,56.667 168.333,56 170,56 C171.111,56 172,55.333 172,54.5 Z M171.667,128.667 C172.033,128.3 173.859,128 175.723,128 L179.112,128 L178.806,149.072 C178.532,167.909 178.314,170.247 176.75,171.121 C175.213,171.98 175,173.807 175,186.143 C175,199.346 175.12,200.219 177,200.71 C178.1,200.998 179,201.856 179,202.617 C179,203.377 179.623,204 180.383,204 C181.144,204 182.002,204.9 182.29,206 C182.577,207.1 183.53,208 184.406,208 C185.283,208 186,208.675 186,209.5 C186,210.528 187.031,211 189.278,211 C191.318,211 193.202,211.755 194.268,213 C195.452,214.383 197.218,215 199.99,215 C202.888,215 204,215.416 204,216.5 C204,217.555 205.066,218 207.594,218 C210.346,218 211.31,218.468 211.71,220 C212.169,221.756 213.074,222 219.117,222 C224.255,222 226,222.345 226,223.361 C226,224.85 232.745,225.976 241.75,225.991 L247,226 L247,204.406 C247,183.654 247.078,182.792 249,182.29 C250.756,181.831 251,180.926 251,174.883 L251,168 L254.5,168 C256.944,168 258,168.452 258,169.5 C258,170.325 257.381,171 256.625,171 C254.763,171 253.999,175.487 254.006,186.375 C254.016,201.453 255.103,212 256.648,212 C257.678,212 258,214.025 258,220.5 C258,227.086 257.687,229 256.611,229 C255.825,229 254.947,230.469 254.587,232.39 C254.173,234.596 253.261,235.96 251.975,236.296 C250.889,236.58 250,237.53 250,238.406 C250,239.283 249.55,240 249,240 C248.45,240 248,239.389 248,238.642 C248,237.304 240.277,236 232.353,236 C230.039,236 229,235.535 229,234.5 C229,233.311 227.561,233 222.05,233 C216.708,233 214.891,232.628 214.201,231.394 C213.66,230.428 211.449,229.58 208.651,229.264 C205.635,228.924 204,228.258 204,227.37 C204,226.389 202.552,226 198.906,226 C194.654,226 193.726,225.67 193.29,224 C192.848,222.312 191.926,222 187.383,222 C183.265,222 182,221.648 182,220.5 C182,219.675 181.283,219 180.406,219 C179.53,219 178.577,218.1 178.29,217 C177.857,215.344 176.926,215 172.883,215 C168.667,215 168,214.727 168,213 C168,211.9 167.377,211 166.617,211 C164.799,211 164.03,207.87 164.014,200.401 C163.988,188.814 165.195,179 166.647,179 C167.739,179 168,175.147 168,159 C168,141.889 168.217,139 169.5,139 C170.626,139 171,137.796 171,134.167 C171,131.508 171.3,129.033 171.667,128.667 Z M157,123.5 C157,124.548 155.944,125 153.5,125 C151.18,125 150,125.468 150,126.389 C150,127.175 148.532,128.053 146.615,128.412 L143.23,129.047 L142.806,135.71 C142.556,139.632 141.892,142.536 141.191,142.77 C139.684,143.272 139.521,160.674 141.018,161.173 C141.578,161.359 142.316,163.872 142.658,166.756 C143.407,173.084 145.525,173.769 146.5,168 C146.915,165.541 147.72,164 148.588,164 C149.633,164 150,162.57 150,158.5 C150,154.278 150.348,153 151.5,153 C152.575,153 153,151.903 153,149.125 C153,143.394 154.083,139 155.495,139 C156.235,139 156.953,137.112 157.264,134.349 C157.58,131.551 158.428,129.34 159.394,128.799 C160.303,128.291 161,126.619 161,124.95 C161,122.667 160.548,122 159,122 C157.889,122 157,122.667 157,123.5 Z M81.986,133.25 C81.979,133.938 81.701,135.512 81.37,136.75 C80.826,138.78 81.121,139 84.383,139 C86.931,139 88,138.557 88,137.5 C88,136.675 87.325,136 86.5,136 C85.667,136 85,135.111 85,134 C85,132.889 84.333,132 83.5,132 C82.675,132 81.994,132.563 81.986,133.25 Z"/>
</svg>

