<svg xmlns="http://www.w3.org/2000/svg" width="300" height="300" viewBox="0 0 300 300" version="1.1">
  <defs/>
  <path d="M174,80.5 L174,77 L178.927,77 C182.731,77 183.927,77.38 184.177,78.668 C184.466,80.164 186.38,80.312 202.611,80.097 C222.153,79.838 228,80.417 228,82.611 C228,83.628 229.474,84 233.5,84 C237.516,84 239,84.373 239,85.383 C239,86.144 239.9,87.002 241,87.29 C242.841,87.771 243,88.654 243,98.406 C243,107.156 243.261,109 244.5,109 C245.778,109 246,111.667 246,127 L246,145 L253,145 C258.556,145 260,144.69 260,143.5 C260,142.667 260.889,142 262,142 C263.619,142 264,142.667 264,145.5 C264,148.833 263.833,149 260.5,149 C258.197,149 257,149.47 257,150.375 C257,151.746 252.88,153 248.375,153 L246,153 L246,189 C246,220.333 246.194,225 247.5,225 Q249,225 249,228 Q249,231 247.5,231 C246.462,231 246,232.043 246,234.383 C246,238.077 244.514,238.96 238.25,238.986 C235.662,238.997 235,238.593 235,237 C235,235.889 234.333,235 233.5,235 C232.675,235 232,234.325 232,233.5 C232,232.667 231.111,232 230,232 C228.667,232 228,231.333 228,230 C228,228.667 227.333,228 226,228 C224.267,228 224,227.333 224,223 C224,219.222 223.633,218 222.5,218 C221.675,218 220.994,217.213 220.986,216.25 C220.979,215.287 220.701,213.488 220.37,212.25 C219.883,210.435 220.176,210 221.883,210 C223.636,210 224,210.602 224,213.5 C224,216.333 224.381,217 226,217 C227.607,217 228,217.667 228,220.389 C228,223.47 228.318,223.837 231.5,224.434 C233.595,224.827 235,225.675 235,226.545 C235,227.367 235.935,228 237.147,228 C239.257,228 239.284,227.787 238.731,215.778 C238.39,208.37 237.741,203.414 237.084,203.195 C235.721,202.74 235.642,195 237,195 C238.445,195 238.294,181.265 236.843,180.781 C236.077,180.526 235.655,176.954 235.593,170.2 L235.5,160.004 L231.75,160.002 C229.082,160.001 228,160.433 228,161.5 C228,162.631 226.783,163 223.05,163 C219.435,163 217.843,163.458 217.15,164.696 C216.451,165.945 214.462,166.503 209.6,166.813 C203.952,167.172 203,167.505 203,169.116 C203,170.152 202.325,171 201.5,171 C200.675,171 200,171.675 200,172.5 C200,173.699 198.508,174 192.57,174 L185.141,174 L184.82,189.572 C184.541,203.159 184.277,205.269 182.75,206.122 C181.345,206.907 181,208.469 181,214.05 C181,219.561 180.689,221 179.5,221 C178.452,221 178,222.056 178,224.5 C178,227.333 177.619,228 176,228 C174.667,228 174,228.667 174,230 C174,231.333 173.333,232 172,232 C170.667,232 170,231.333 170,230 C170,228.889 169.333,228 168.5,228 C167.667,228 167,227.111 167,226 C167,224.889 167.667,224 168.5,224 C169.73,224 170.002,222.244 170.014,214.25 C170.029,203.232 170.62,200 172.617,200 C173.564,200 174,198.739 174,196 C174,193.273 174.438,192 175.375,192 C177.344,192 177.696,188.745 177.941,168.236 C178.247,142.646 177.128,123 175.365,123 C174.269,123 174,119.853 174,107 C174,93.444 173.771,91 172.5,91 C171.452,91 171,89.944 171,87.5 C171,85.056 171.452,84 172.5,84 C173.548,84 174,82.944 174,80.5 Z M66,122 C66,120.107 66.667,120 78.5,120 C88.476,120 91,120.279 91,121.383 C91,122.959 88,123.966 83.25,123.986 C81.034,123.996 80,124.477 80,125.5 C80,126.548 78.944,127 76.5,127 C74.056,127 73,127.452 73,128.5 C73,129.325 72.283,130 71.406,130 C70.53,130 69.577,130.9 69.29,132 C69.002,133.1 68.144,134 67.383,134 C66.469,134 66,135.187 66,137.5 C66,140.036 65.561,141 64.406,141 C63.53,141 62.577,141.9 62.29,143 C62.002,144.1 61.144,145 60.383,145 C59.492,145 58.995,146.156 58.986,148.25 C58.966,153 57.959,156 56.383,156 C55.469,156 55,157.187 55,159.5 C55,161.944 54.548,163 53.5,163 C52.477,163 51.996,164.034 51.986,166.25 C51.966,171 50.959,174 49.383,174 C48.623,174 48,174.675 48,175.5 C48,176.69 49.444,177 55,177 C60.556,177 62,176.69 62,175.5 C62,174.312 63.431,174 68.883,174 C74.926,174 75.831,173.756 76.29,172 C76.69,170.468 77.654,170 80.406,170 L84,170 L84,154 C84,140.666 84.242,138 85.455,138 C86.325,138 87.173,136.595 87.566,134.5 C88.21,131.067 88.316,131 93.111,131 C96.79,131 98,131.371 98,132.5 C98,133.333 98.889,134 100,134 C101.606,134 102,134.667 102,137.383 C102,139.926 101.503,140.897 100,141.29 C98.9,141.577 98,142.53 98,143.406 C98,144.283 97.325,145 96.5,145 C95.262,145 95,146.833 95,155.5 C95,163.808 95.291,166 96.393,166 C97.159,166 98.045,165.325 98.362,164.5 C98.768,163.442 100.419,163 103.969,163 C107.635,163 109,162.617 109,161.588 C109,160.72 110.541,159.915 113,159.5 C115.459,159.085 117,158.28 117,157.412 C117,156.465 118.152,156 120.5,156 C122.944,156 124,155.548 124,154.5 C124,153.452 125.056,153 127.5,153 C129.944,153 131,153.452 131,154.5 C131,155.333 131.889,156 133,156 C134.111,156 135,156.667 135,157.5 C135,158.325 135.675,159 136.5,159 C137.333,159 138,159.889 138,161 C138,162.1 138.647,163 139.439,163 C140.377,163 141.112,164.565 141.552,167.5 C142.461,173.562 141.297,181 139.439,181 C138.647,181 138,181.9 138,183 C138,184.333 137.333,185 136,185 C134.889,185 134,185.667 134,186.5 C134,187.487 133.013,188 131.117,188 C128.044,188 127.041,186.228 127.014,180.75 C127.003,178.608 127.47,178 129.127,178 C131.079,178 131.215,177.585 130.772,172.978 C130.217,167.201 130.064,166.958 126.872,166.772 C119.17,166.323 113,167.072 113,168.455 C113,169.325 111.595,170.173 109.5,170.566 C107.495,170.942 106,171.816 106,172.611 C106,173.628 104.526,174 100.5,174 L95,174 L95,177.5 C95,179.813 94.531,181 93.617,181 C92.041,181 91.034,184 91.014,188.75 C91.004,190.966 90.523,192 89.5,192 C88.395,192 88,193.153 88,196.375 C88,202.741 86.948,207 85.375,207 C84.316,207 84,208.955 84,215.5 C84,222.154 83.693,224 82.588,224 C81.72,224 80.915,225.541 80.5,228 C80.118,230.261 79.261,232 78.529,232 C77.638,232 77.099,234.111 76.803,238.75 C76.283,246.917 76.78,250 78.617,250 C79.377,250 80,250.675 80,251.5 C80,252.325 79.325,253 78.5,253 C77.667,253 77,253.889 77,255 C77,256.758 76.333,257 71.5,257 L66,257 L66,248 C66,240.667 66.278,239 67.5,239 C68.412,239 69,238.069 69,236.625 C69,232.254 70.237,228 71.509,228 C72.35,228 72.906,225.814 73.187,221.4 C73.497,216.538 74.055,214.549 75.304,213.85 C76.645,213.099 77,211.446 77,205.95 C77,200.778 77.346,199 78.352,199 C79.325,199 79.879,196.725 80.331,190.87 C80.675,186.399 80.715,182.349 80.42,181.87 C80.124,181.392 78.516,181 76.847,181 C74.654,181 73.668,181.554 73.29,183 C72.831,184.756 71.926,185 65.883,185 C60.431,185 59,185.312 59,186.5 C59,187.509 57.936,188.026 55.75,188.081 C53.962,188.125 49.013,188.367 44.75,188.618 L37,189.074 L37,181.537 C37,174.667 37.177,174 39,174 C40.619,174 41,173.333 41,170.5 C41,168.056 41.452,167 42.5,167 C43.555,167 44,165.934 44,163.406 C44,160.654 44.468,159.69 46,159.29 C47.503,158.897 48,157.926 48,155.383 C48,153.078 48.467,152 49.466,152 C50.469,152 51.14,150.424 51.594,147 C52.025,143.754 52.739,142 53.629,142 C54.562,142 55,140.722 55,138 C55,134.667 55.333,134 57,134 C58.619,134 59,133.333 59,130.5 C59,127.667 59.381,127 61,127 C62.111,127 63,126.333 63,125.5 C63,124.675 63.675,124 64.5,124 C65.333,124 66,123.111 66,122 Z M206,89.5 C206,90.711 204.411,91.003 197.75,91.014 C191.695,91.024 188.494,90.663 186.81,92.091 C184.613,93.954 185,98.863 185,111.617 L185,131 L188.5,131 C190.944,131 192,131.452 192,132.5 C192,133.745 193.929,134 203.36,134 C217.571,134 224,134.821 224,136.636 C224,137.386 224.9,138 226,138 C227.111,138 228,138.667 228,139.5 C228,140.325 228.675,141 229.5,141 C230.333,141 231,141.889 231,143 C231,144.111 230.333,145 229.5,145 C228.667,145 228,145.889 228,147 C228,148.163 227.333,149 226.406,149 C225.53,149 224.577,148.1 224.29,147 C223.897,145.497 222.926,145 220.383,145 C218.043,145 217,144.538 217,143.5 C217,142.262 215.167,142 206.5,142 C197.833,142 196,142.262 196,143.5 C196,144.583 194.889,145 192,145 L188,145 L188.014,151.75 C188.021,155.463 188.299,159.512 188.63,160.75 C189.279,163.171 192,163.889 192,161.639 C192,160.249 198.622,159.026 206.25,159.009 C208.913,159.003 210,158.565 210,157.5 C210,156.348 211.278,156 215.5,156 C219.516,156 221,155.627 221,154.617 C221,152.897 224.077,152.031 230.25,152.014 L235,152 L235,125 C235,102.338 234.772,98 233.579,98 C232.798,98 231.872,96.696 231.522,95.102 C230.802,91.821 228.921,91.034 221.75,91.014 C218.201,91.003 217,90.621 217,89.5 C217,88.348 215.722,88 211.5,88 C207.278,88 206,88.348 206,89.5 Z M132.75,44.689 C137.385,43.478 138,43.866 138,48 C138,51.333 137.667,52 136,52 C134.889,52 134,52.667 134,53.5 C134,54.325 133.425,55 132.722,55 C132.019,55 130.674,55.9 129.732,57 C128.79,58.1 127.168,59 126.126,59 C125.074,59 124.001,59.888 123.71,61 C123.423,62.1 122.47,63 121.594,63 C120.504,63 120,63.912 120,65.883 C120,67.926 119.417,68.919 118,69.29 C116.9,69.577 116,70.494 116,71.327 C116,72.196 114.722,73.122 113,73.5 C111.35,73.862 110,74.798 110,75.579 C110,76.361 109.15,77 108.111,77 C106.745,77 106.041,77.967 105.566,80.5 C105.173,82.595 104.325,84 103.455,84 C102.655,84 102,84.675 102,85.5 C102,86.325 101.283,87 100.406,87 C99.53,87 98.577,87.9 98.29,89 C98.002,90.1 97.144,91 96.383,91 C95.623,91 95,91.9 95,93 C95,94.333 94.333,95 93,95 C91.9,95 91,95.655 91,96.455 C91,97.325 89.595,98.173 87.5,98.566 C85.495,98.942 84,99.816 84,100.611 C84,101.732 86.794,102 98.5,102 C110.722,102 113,101.764 113,100.5 C113,99.452 114.056,99 116.5,99 C118.944,99 120,99.452 120,100.5 C120,101.722 121.667,102 129,102 C136.333,102 138,102.278 138,103.5 C138,104.325 138.675,105 139.5,105 C140.333,105 141,105.889 141,107 C141,108.111 140.333,109 139.5,109 C138.667,109 138,109.889 138,111 C138,113.622 134.976,113.622 134.29,111 C133.788,109.08 132.926,109 112.79,109 C92.654,109 91.792,109.08 91.29,111 C90.848,112.688 89.926,113 85.383,113 C81.265,113 80,113.352 80,114.5 C80,115.575 78.903,116 76.125,116 C70.228,116 66,117.096 66,118.625 C66,119.718 63.439,120 53.5,120 L41,120 L41,116.5 C41,114.109 41.459,113 42.45,113 C43.248,113 44.328,112.237 44.85,111.304 C45.549,110.055 47.538,109.497 52.4,109.187 C57.15,108.885 59,108.379 59,107.384 C59,106.594 60.019,106 61.375,106 C65.88,106 70,104.746 70,103.375 C70,102.619 70.675,102 71.5,102 C72.333,102 73,101.111 73,100 C73,98.889 72.333,98 71.5,98 C70.675,98 70,97.325 70,96.5 C70,95.667 69.111,95 68,95 C66.667,95 66,94.333 66,93 C66,91.667 65.333,91 64,91 C62.667,91 62,90.333 62,89 C62,87.889 61.333,87 60.5,87 C59.49,87 59,85.99 59,83.906 C59,81.654 58.456,80.671 57,80.29 C55.272,79.838 55.002,78.932 55.014,73.633 C55.034,64.699 55.682,63 59.071,63 C61.523,63 61.999,63.476 62.566,66.5 C62.942,68.505 63.816,70 64.611,70 C65.532,70 66,71.18 66,73.5 C66,75.813 66.469,77 67.383,77 C68.959,77 69.966,80 69.986,84.75 C69.996,86.966 70.477,88 71.5,88 C72.325,88 73,88.623 73,89.383 C73,90.144 74.237,91.007 75.75,91.3 C79.59,92.046 84,91.016 84,89.375 C84,88.619 84.9,88 86,88 C87.333,88 88,87.333 88,86 C88,84.444 88.667,84 91,84 C93.078,84 94,83.51 94,82.406 C94,81.53 94.9,80.577 96,80.29 C97.1,80.002 98,79.102 98,78.29 C98,77.477 98.9,76.577 100,76.29 C101.417,75.919 102,74.926 102,72.883 C102,70.667 102.462,70 104,70 C105.333,70 106,69.333 106,68 C106,66.889 106.667,66 107.5,66 C108.325,66 109,65.325 109,64.5 C109,63.675 109.717,63 110.594,63 C111.47,63 112.423,62.1 112.71,61 C112.998,59.9 113.856,59 114.617,59 C115.377,59 116,58.283 116,57.406 C116,56.53 116.9,55.577 118,55.29 C119.1,55.002 120,54.194 120,53.495 C120,52.795 121.575,51.927 123.5,51.566 C125.595,51.173 127,50.325 127,49.455 C127,48.655 127.9,48 129,48 C130.1,48 131,47.358 131,46.573 C131,45.789 131.787,44.941 132.75,44.689 Z"/>
</svg>

