<svg xmlns="http://www.w3.org/2000/svg" width="300" height="300" viewBox="0 0 300 300" version="1.1">
  <defs/>
  <path d="M105.855,182.75 L106.21,179 L120,179 L120,182.5 C120,185.333 120.381,186 122,186 C123.1,186 124,185.387 124,184.638 C124,182.723 133.246,181.796 144.141,182.618 C150.604,183.106 153,183.654 153,184.643 C153,185.527 154.22,186 156.5,186 L160,186 L160,191.5 C160,196.333 159.758,197 158,197 C156.667,197 156,197.667 156,199 C156,200.111 155.333,201 154.5,201 C153.452,201 153,202.056 153,204.5 C153,206.944 153.452,208 154.5,208 C155.325,208 156,208.675 156,209.5 C156,210.333 155.111,211 154,211 C152.667,211 152,211.667 152,213 C152,214.111 151.333,215 150.5,215 C149.675,215 149,215.625 149,216.389 C149,217.184 147.505,218.058 145.5,218.434 C143.405,218.827 142,219.675 142,220.545 C142,221.345 141.1,222 140,222 C138.9,222 138,222.625 138,223.389 C138,224.184 136.505,225.058 134.5,225.434 C132.405,225.827 131,226.675 131,227.545 C131,228.345 130.1,229 129,229 C127.9,229 127,229.623 127,230.383 C127,231.144 126.1,232.002 125,232.29 C123.9,232.577 123,233.494 123,234.327 C123,235.184 121.743,236.117 120.102,236.478 C116.404,237.29 115.876,239.33 116.668,249.75 C117.121,255.708 117.671,258 118.648,258 C119.697,258 120,260.324 120,268.383 L120,278.767 L122.75,279.3 C126.59,280.046 131,279.016 131,277.375 C131,276.47 132.197,276 134.5,276 C137.333,276 138,275.619 138,274 C138,272.889 138.667,272 139.5,272 C140.325,272 141,271.375 141,270.611 C141,269.823 142.473,268.946 144.403,268.584 C146.275,268.233 148.061,267.283 148.372,266.473 C148.683,265.663 149.626,265 150.469,265 C151.311,265 152,264.325 152,263.5 C152,262.675 151.325,262 150.5,262 C149.667,262 149,261.111 149,260 C149,258.178 148.333,258 141.5,258 C135.5,258 134,257.7 134,256.5 C134,255.675 133.325,255 132.5,255 C131.279,255 131,253.346 131,246.117 C131,240.933 130.999,238.416 132.257,237.19 C133.445,236.032 135.756,236.027 140.25,236.014 C144.338,236.002 145,236.279 145,238 C145,239.619 145.667,240 148.5,240 C150.848,240 152,240.465 152,241.412 C152,242.28 153.541,243.085 156,243.5 C158.459,243.915 160,244.72 160,245.588 C160,246.535 161.152,247 163.5,247 C165.944,247 167,246.548 167,245.5 C167,244.675 167.717,244 168.594,244 C169.47,244 170.423,243.1 170.71,242 C171.081,240.583 172.074,240 174.117,240 C176.088,240 177,239.496 177,238.406 C177,237.53 177.9,236.577 179,236.29 C180.1,236.002 181,235.144 181,234.383 C181,233.623 181.9,233 183,233 C184.333,233 185,232.333 185,231 C185,229.381 185.667,229 188.5,229 C191.333,229 192,228.619 192,227 C192,225.667 192.667,225 194,225 C195.111,225 196,224.333 196,223.5 C196,222.513 196.987,222 198.883,222 C200.926,222 201.919,221.417 202.29,220 C202.69,218.468 203.654,218 206.406,218 C208.934,218 210,217.555 210,216.5 C210,215.675 210.675,215 211.5,215 C212.325,215 213,215.675 213,216.5 C213,217.333 213.889,218 215,218 C216.333,218 217,218.667 217,220 C217,221.1 216.377,222 215.617,222 C214.856,222 213.998,222.9 213.71,224 C213.423,225.1 212.47,226 211.594,226 C210.717,226 210,226.675 210,227.5 C210,228.333 209.111,229 208,229 C206.667,229 206,229.667 206,231 C206,232.111 205.333,233 204.5,233 C203.675,233 203,233.675 203,234.5 C203,235.325 202.283,236 201.406,236 C200.53,236 199.577,236.9 199.29,238 C198.897,239.503 197.926,240 195.383,240 C192.667,240 192,240.394 192,242 C192,243.333 191.333,244 190,244 C188.9,244 188,244.626 188,245.392 C188,246.157 186.767,247.093 185.26,247.471 C179.832,248.833 179.327,253.464 184.5,254.434 C186.595,254.827 188,255.675 188,256.545 C188,257.638 189.339,258 193.383,258 C197.926,258 198.848,258.312 199.29,260 C199.726,261.67 200.654,262 204.906,262 C208.767,262 210,262.363 210,263.5 C210,264.652 211.278,265 215.5,265 C219.516,265 221,265.373 221,266.383 C221,267.959 224,268.966 228.75,268.986 C230.966,268.996 232,269.477 232,270.5 C232,271.412 232.931,272 234.375,272 C238.88,272 243,273.254 243,274.625 C243,275.608 244.424,276 248,276 C251.576,276 253,276.392 253,277.375 C253,278.746 257.12,280 261.625,280 C263.069,280 264,280.588 264,281.5 C264,282.333 264.889,283 266,283 C267.1,283 267.994,283.563 267.986,284.25 C267.955,287.16 266.669,290 265.383,290 C264.623,290 264,290.9 264,292 C264,293.619 263.333,294 260.5,294 C258.056,294 257,293.548 257,292.5 C257,291.667 256.111,291 255,291 C253.667,291 253,290.333 253,289 C253,287.381 252.333,287 249.5,287 C246.667,287 246,286.619 246,285 C246,283.381 245.333,283 242.5,283 C240.056,283 239,282.548 239,281.5 C239,280.588 238.069,280 236.625,280 C232.12,280 228,278.746 228,277.375 C228,276.339 226.273,276 221,276 C215.727,276 214,275.661 214,274.625 C214,273.254 209.88,272 205.375,272 C204.019,272 203,271.406 203,270.616 C203,269.621 201.15,269.115 196.4,268.813 C191.538,268.503 189.549,267.945 188.85,266.696 C188.157,265.458 186.565,265 182.95,265 C179.217,265 178,264.631 178,263.5 C178,262.3 176.5,262 170.5,262 C164.5,262 163,262.3 163,263.5 C163,264.325 162.377,265 161.617,265 C160.856,265 159.998,265.9 159.71,267 C159.423,268.1 158.47,269 157.594,269 C156.717,269 156,269.625 156,270.389 C156,271.184 154.505,272.058 152.5,272.434 C150.405,272.827 149,273.675 149,274.545 C149,275.345 148.1,276 147,276 C145.667,276 145,276.667 145,278 C145,279.333 144.333,280 143,280 C141.9,280 141,280.639 141,281.421 C141,282.202 139.688,283.129 138.084,283.482 C136.479,283.834 134.919,284.77 134.615,285.561 C134.303,286.375 132.746,287 131.031,287 C129.129,287 128,287.511 128,288.372 C128,290.081 121.099,291.297 116.404,290.416 L113,289.777 L113,279.438 C113,270.656 112.738,268.953 111.261,268.126 C109.887,267.357 109.445,265.457 109.155,259.076 L108.788,251 L105.394,251 C103.171,251 102,251.477 102,252.383 C102,253.144 101.1,254.002 100,254.29 C98.9,254.577 98,255.53 98,256.406 C98,257.496 97.088,258 95.117,258 C93.074,258 92.081,258.583 91.71,260 C91.423,261.1 90.47,262 89.594,262 C88.717,262 88,262.675 88,263.5 C88,264.333 87.111,265 86,265 C84.667,265 84,265.667 84,267 C84,268.333 83.333,269 82,269 C80.667,269 80,269.667 80,271 C80,272.111 79.333,273 78.5,273 C77.675,273 76.933,273.675 76.85,274.5 C76.767,275.325 76.655,276.563 76.6,277.25 C76.545,277.938 75.713,278.823 74.75,279.218 C73.787,279.613 73,280.575 73,281.356 C73,282.189 71.55,283.049 69.5,283.434 C67.405,283.827 66,284.675 66,285.545 C66,286.345 65.1,287 64,287 C62.667,287 62,286.333 62,285 C62,283.889 61.333,283 60.5,283 C59.675,283 59,282.325 59,281.5 C59,280.675 59.675,280 60.5,280 C61.333,280 62,279.111 62,278 C62,276.667 62.667,276 64,276 C65.333,276 66,275.333 66,274 C66,272.667 66.667,272 68,272 C69.111,272 70,271.333 70,270.5 C70,269.675 70.675,269 71.5,269 C72.333,269 73,268.111 73,267 C73,265.667 73.667,265 75,265 C76.111,265 77,264.333 77,263.5 C77,262.675 77.717,262 78.594,262 C79.47,262 80.423,261.1 80.71,260 C80.998,258.9 81.856,258 82.617,258 C83.377,258 84,257.345 84,256.545 C84,255.675 85.405,254.827 87.5,254.434 C89.425,254.073 91,253.328 91,252.78 C91,251.33 95.283,247.038 96.75,247.017 C97.438,247.008 98,246.325 98,245.5 C98,244.667 98.889,244 100,244 C101.333,244 102,243.333 102,242 C102,240.667 102.667,240 104,240 C105.1,240 106,239.377 106,238.617 C106,237.856 106.9,236.998 108,236.71 C109.1,236.423 110,235.47 110,234.594 C110,233.277 108.696,233 102.5,233 L95,233 L95,222 L98.5,222 C100.896,222 102,221.541 102,220.545 C102,219.675 103.405,218.827 105.5,218.434 C108.875,217.801 110.568,215 107.576,215 C106.425,215 106.089,212.262 105.826,200.75 C105.647,192.912 105.66,184.813 105.855,182.75 Z M113,83.5 C113,80.413 115.919,82.05 116.566,85.5 C116.942,87.505 117.816,89 118.611,89 C119.375,89 120,89.675 120,90.5 C120,91.333 120.889,92 122,92 C123.1,92 124,91.373 124,90.606 C124,89.559 126.012,89.12 132.076,88.845 C138.457,88.555 140.357,88.113 141.126,86.739 C141.987,85.2 143.937,85 158.05,85 C170.963,85 174,85.263 174,86.383 C174,87.144 174.9,88.002 176,88.29 C177.839,88.771 177.999,89.648 177.986,99.156 C177.971,110.755 177.402,114 175.383,114 C174.289,114 174,116.301 174,125 C174,135.333 173.879,136 172,136 C170.889,136 170,136.667 170,137.5 C170,138.325 169.325,139 168.5,139 C167.675,139 167,139.717 167,140.594 C167,141.47 166.1,142.423 165,142.71 C163.893,143 163,144.074 163,145.117 C163,146.152 162.325,147 161.5,147 C160.675,147 160,147.675 160,148.5 C160,149.333 159.111,150 158,150 C156.889,150 156,150.667 156,151.5 C156,152.325 155.325,153 154.5,153 C153.675,153 153,152.325 153,151.5 C153,150.667 152.111,150 151,150 C149.381,150 149,149.333 149,146.5 C149,143.167 149.167,143 152.5,143 C155.333,143 156,142.619 156,141 C156,139.889 156.667,139 157.5,139 C158.325,139 159.006,138.438 159.014,137.75 C159.021,137.063 159.299,135.488 159.63,134.25 C160.203,132.112 159.953,132 154.617,132 C149.667,132 149,132.237 149,134 C149,135.619 148.333,136 145.5,136 C143.194,136 142,136.47 142,137.378 C142,138.415 139.757,138.863 132.925,139.189 C126.648,139.489 123.587,140.051 122.994,141.01 C122.004,142.612 110.989,143.596 105.521,142.57 C102.3,141.966 102,141.615 102,138.455 C102,136.18 102.472,135 103.383,135 C105.216,135 105.97,131.861 105.986,124.156 C105.998,118.648 105.737,117.744 104,117.29 C102.9,117.002 102,116.144 102,115.383 C102,114.623 101.325,114 100.5,114 C99.675,114 99,113.283 99,112.406 C99,111.53 98.1,110.577 97,110.29 C95.497,109.897 95,108.926 95,106.383 C95,104.169 95.478,103 96.383,103 C97.144,103 98.002,102.1 98.29,101 C98.577,99.9 99.53,99 100.406,99 C101.283,99 102,98.325 102,97.5 C102,96.667 102.889,96 104,96 C105.111,96 106,95.333 106,94.5 C106,93.675 106.675,93 107.5,93 C108.583,93 109,91.889 109,89 C109,85.667 109.333,85 111,85 C112.111,85 113,84.333 113,83.5 Z M131,13 L131,6 L134.5,6 C137.333,6 138,6.381 138,8 C138,9.1 138.623,10 139.383,10 C141.241,10 141.97,13.152 141.986,21.25 C141.997,26.577 142.316,28 143.5,28 C144.548,28 145,29.056 145,31.5 L145,35 L155.25,34.986 C166.757,34.971 170,34.399 170,32.383 C170,31.245 174.142,31 193.389,31 L216.777,31 L217.434,34.5 C217.827,36.595 218.675,38 219.545,38 C220.345,38 221,38.9 221,40 C221,41.1 221.625,42 222.389,42 C223.184,42 224.058,43.495 224.434,45.5 C225.3,50.116 224.154,56 222.389,56 C221.461,56 221,57.194 221,59.594 C221,62.346 220.532,63.31 219,63.71 C217.497,64.103 217,65.074 217,67.617 C217,69.957 216.538,71 215.5,71 C214.675,71 214,71.675 214,72.5 C214,73.333 213.111,74 212,74 C210.381,74 210,74.667 210,77.5 C210,80.036 209.561,81 208.406,81 C207.53,81 206.577,81.9 206.29,83 C206.002,84.1 205.144,85 204.383,85 C203.623,85 203,85.9 203,87 C203,88.333 202.333,89 201,89 C199.889,89 199,89.667 199,90.5 C199,91.325 198.283,92 197.406,92 C196.53,92 195.577,92.9 195.29,94 C194.919,95.417 193.926,96 191.883,96 C190.251,96 188.994,95.458 188.986,94.75 C188.979,94.063 188.701,92.487 188.37,91.25 C187.883,89.435 188.176,89 189.883,89 C191.333,89 192,88.37 192,87 C192,85.667 192.667,85 194,85 C195.111,85 196,84.333 196,83.5 C196,82.675 196.675,82 197.5,82 C198.333,82 199,81.111 199,80 C199,78.667 199.667,78 201,78 C202.619,78 203,77.333 203,74.5 C203,72.056 203.452,71 204.5,71 C205.325,71 206,70.283 206,69.406 C206,68.53 206.9,67.577 208,67.29 C209.656,66.857 210,65.926 210,61.883 C210,58.209 210.371,57 211.5,57 C212.652,57 213,55.722 213,51.5 C213,47.278 212.652,46 211.5,46 C210.667,46 210,45.111 210,44 C210,42.667 209.333,42 208,42 C206.889,42 206,41.333 206,40.5 C206,39.238 203.778,39 192,39 C180.222,39 178,39.238 178,40.5 C178,41.742 176.111,42 167,42 C158.301,42 156,42.289 156,43.383 C156,44.959 153,45.966 148.25,45.986 C146.034,45.996 145,46.477 145,47.5 C145,48.633 143.778,49 140,49 C136.222,49 135,48.633 135,47.5 C135,46.452 133.944,46 131.5,46 C129.17,46 128,46.467 128,47.397 C128,48.458 125.933,48.88 119.43,49.147 C112.546,49.431 110.667,49.844 109.88,51.25 C109.068,52.701 107.458,53 100.45,53 C93.839,53 92,53.307 92,54.412 C92,55.28 90.459,56.085 88,56.5 C85.541,56.915 84,57.72 84,58.588 C84,59.535 82.848,60 80.5,60 L77,60 L77,65.5 C77,69.516 76.627,71 75.617,71 C73.759,71 73.03,74.152 73.014,82.25 C73.003,87.469 72.672,89 71.552,89 C70.511,89 70.02,90.473 69.802,94.25 L69.5,99.5 L65.75,99.81 L62,100.121 L62,95.7 C62,88.049 63.164,82 64.636,82 C65.705,82 66,79.624 66,71 C66,61.889 65.742,60 64.5,60 C63.667,60 63,59.111 63,58 C63,56.889 63.667,56 64.5,56 C65.333,56 66,55.111 66,54 C66,52.9 66.655,52 67.455,52 C68.325,52 69.173,50.595 69.566,48.5 C69.942,46.495 70.816,45 71.611,45 C72.532,45 73,43.82 73,41.5 C73,39.187 73.469,38 74.383,38 C75.144,38 76.018,37.041 76.324,35.868 C76.759,34.207 77.392,33.873 79.191,34.354 C80.461,34.694 82.963,34.979 84.75,34.986 C86.885,34.995 88,35.487 88,36.421 C88,37.202 89.35,38.138 91,38.5 C96.099,39.62 94.739,42 89,42 C84.667,42 84,42.267 84,44 C84,45.646 84.664,45.998 87.75,45.991 C95.378,45.974 102,44.751 102,43.361 C102,42.334 103.841,42 109.5,42 C115.219,42 117,41.671 117,40.617 C117,38.897 120.077,38.031 126.25,38.014 C129.621,38.004 131,37.598 131,36.617 C131,35.856 131.9,34.998 133,34.71 C134.576,34.298 135,33.346 135,30.219 C135,24.234 133.912,20 132.375,20 C131.339,20 131,18.273 131,13 Z M188,155.455 C188,154.424 189.166,154 192,154 C194.889,154 196,154.417 196,155.5 C196,156.325 196.675,157 197.5,157 C198.548,157 199,158.056 199,160.5 C199,162.82 198.532,164 197.611,164 C196.819,164 195.944,165.486 195.573,167.462 C195.015,170.436 194.436,171.015 191.462,171.573 C189.486,171.944 188,172.819 188,173.611 C188,174.532 186.82,175 184.5,175 C181.167,175 181,174.833 181,171.5 C181,169.056 180.548,168 179.5,168 C178.675,168 178,167.325 178,166.5 C178,165.333 176.667,165 172,165 C167.333,165 166,165.333 166,166.5 C166,167.325 165.55,168 165,168 C164.45,168 164,167.325 164,166.5 C164,165.667 163.111,165 162,165 C160.889,165 160,165.667 160,166.5 C160,167.778 157.333,168 142,168 C127.394,168 124,168.259 124,169.375 C124,171.176 119.568,172 109.875,172 C103.542,172 102,172.294 102,173.5 C102,174.745 100.069,175 90.625,175 C77.554,175 73,175.678 73,177.625 C73,178.718 70.439,179 60.5,179 C50.056,179 48,179.247 48,180.5 C48,181.325 47.283,182 46.406,182 C45.53,182 44.577,182.9 44.29,184 C43.625,186.541 38,186.904 38,184.406 C38,183.53 37.1,182.577 36,182.29 C34.353,181.859 34,180.926 34,177 C34,171.39 34.666,171.035 45.25,171.014 C50.577,171.003 52,170.684 52,169.5 C52,168.238 54.222,168 66,168 C77.096,168 80,167.72 80,166.648 C80,165.217 90.327,164.018 102.75,164.006 C107.409,164.002 109,163.647 109,162.613 C109,161.544 111.411,161.138 119.553,160.836 C127.451,160.544 130.335,160.075 131.016,158.973 C131.774,157.744 136.573,157.451 159.962,157.205 C183.702,156.956 188,156.688 188,155.455 Z M156,98 C156,99.333 155.333,100 154,100 C152.381,100 152,100.667 152,103.5 C152,105.944 151.548,107 150.5,107 C149.452,107 149,108.056 149,110.5 C149,113.333 148.619,114 147,114 C145.667,114 145,114.667 145,116 C145,117.1 144.374,118 143.608,118 C141.876,118 140.753,122.169 141.589,125.5 C142.263,128.185 145,128.987 145,126.5 C145,125.316 146.423,124.997 151.75,124.986 C159.848,124.97 163,124.241 163,122.383 C163,121.623 163.9,121 165,121 C166.893,121 167,120.333 167,108.5 L167,96 L161.5,96 C156.667,96 156,96.242 156,98 Z M134,194.34 C134,195.895 131.07,196.965 126.75,196.986 C124.978,196.995 124,197.534 124,198.5 C124,199.333 123.111,200 122,200 C120.667,200 120,200.667 120,202 C120,203.35 119.333,204 117.948,204 C116.1,204 115.926,204.524 116.198,209.25 L116.5,214.5 L120.25,214.81 C122.995,215.038 124,214.734 124,213.677 C124,212.106 126.916,211.035 131.25,211.014 C132.923,211.005 134,210.456 134,209.611 C134,208.816 135.495,207.942 137.5,207.566 C139.595,207.173 141,206.325 141,205.455 C141,204.655 141.848,204 142.883,204 C143.926,204 145,203.107 145.29,202 C145.577,200.9 146.558,200 147.47,200 C148.737,200 149.053,199.235 148.813,196.75 L148.5,193.5 L141.25,193.206 C135.499,192.973 134,193.208 134,194.34 Z M138,97.5 C138,98.325 137.283,99 136.406,99 C135.53,99 134.577,99.9 134.29,101 C133.897,102.503 132.926,103 130.383,103 C127.183,103 127,103.19 127,106.5 C127,108.944 126.548,110 125.5,110 C124.463,110 124,111.042 124,113.375 C124,116.286 124.392,116.828 126.851,117.32 C130.562,118.062 134,117.131 134,115.383 C134,114.623 134.9,114 136,114 C137.333,114 138,113.333 138,112 C138,110.9 138.655,110 139.455,110 C140.325,110 141.173,108.595 141.566,106.5 C141.942,104.495 142.816,103 143.611,103 C144.532,103 145,101.82 145,99.5 C145,96.167 144.833,96 141.5,96 C139.056,96 138,96.452 138,97.5 Z M136.75,247.689 C134.612,248.248 134.423,250 136.5,250 C137.333,250 138,250.889 138,252 C138,253.676 138.667,254 142.117,254 C145.898,254 146.184,253.817 145.63,251.75 C145.299,250.512 145.021,248.938 145.014,248.25 C145,247.021 140.481,246.714 136.75,247.689 Z M116.63,120.25 C115.624,124.007 115.91,125 118,125 C119.111,125 120,125.667 120,126.5 C120,127.633 121.222,128 125,128 C128.778,128 130,127.633 130,126.5 C130,125.367 128.778,125 125,125 L120,125 L120,121.5 C120,117.489 117.608,116.602 116.63,120.25 Z"/>
</svg>

