<svg xmlns="http://www.w3.org/2000/svg" width="300" height="300" viewBox="0 0 300 300" version="1.1">
  <defs/>
  <path d="M153.75,80.709 C155.813,80.483 158.4,80.45 159.5,80.635 C160.6,80.821 162.963,80.979 164.75,80.986 C166.966,80.996 168,81.477 168,82.5 C168,83.325 168.675,84 169.5,84 C170.325,84 171,83.325 171,82.5 C171,81.667 171.889,81 173,81 C174.111,81 175,81.667 175,82.5 C175,83.333 175.889,84 177,84 C178.111,84 179,83.333 179,82.5 C179,81.675 179.675,81 180.5,81 C181.325,81 182,81.675 182,82.5 C182,83.333 182.889,84 184,84 C185.908,84 186,84.667 186,98.5 C186,110.179 186.269,113 187.383,113 C189.318,113 189.971,116.196 189.986,125.75 L190,134 L197,134 C202.556,134 204,133.69 204,132.5 C204,131.452 205.056,131 207.5,131 C210.833,131 211,131.167 211,134.5 L211,138 L205.5,138 C201.386,138 200,138.362 200,139.437 C200,140.327 198.763,140.993 196.75,141.187 L193.5,141.5 L193.545,155.314 C193.581,166.29 193.889,169.313 195.045,170.027 C196.16,170.716 196.582,173.855 196.853,183.463 C197.131,193.362 197.5,196 198.603,196 C199.613,196 200,197.386 200,201 C200,204.778 199.633,206 198.5,206 C197.667,206 197,206.889 197,208 C197,209.333 196.333,210 195,210 C193.667,210 193,210.667 193,212 C193,213.111 192.333,214 191.5,214 C190.675,214 190,214.675 190,215.5 C190,216.333 189.111,217 188,217 C186.667,217 186,217.667 186,219 C186,220.333 185.333,221 184,221 C182.889,221 182,221.667 182,222.5 C182,223.325 181.325,224 180.5,224 C179.675,224 179,223.325 179,222.5 C179,221.417 177.889,221 175,221 C171.667,221 171,220.667 171,219 C171,217.889 170.333,217 169.5,217 C168.675,217 168,216.381 168,215.625 C168,214.103 172.223,213 178.046,213 C181.45,213 181.909,212.691 182.5,210 C182.862,208.35 183.798,207 184.579,207 C185.57,207 186,205.789 186,203 C186,200.111 186.417,199 187.5,199 C188.325,199 189,198.325 189,197.5 C189,196.675 188.325,196 187.5,196 C186.222,196 186,193.333 186,178 C186,162.667 185.778,160 184.5,160 C183.034,160 182.872,159.031 182.582,148.5 C182.502,145.58 182.371,145.502 177.641,145.57 C174.181,145.619 172.51,146.123 171.841,147.32 C171.158,148.541 169.547,149 165.95,149 C162.217,149 161,149.369 161,150.5 C161,151.412 160.069,152 158.625,152 C154.12,152 150,153.254 150,154.625 C150,155.563 148.727,156 146,156 C143.261,156 142,156.436 142,157.383 C142,159.21 138.865,159.97 131.25,159.986 L125,160 L125,156 C125,152.667 125.333,152 127,152 C128.111,152 129,151.333 129,150.5 C129,149.376 130.198,149 133.778,149 C137.318,149 138.999,148.482 140.268,147 C141.628,145.412 143.218,145 147.99,145 C152.472,145 154,144.644 154,143.601 C154,142.604 156.005,142.002 161,141.5 C165.995,140.998 168,140.396 168,139.399 C168,138.37 169.455,138 173.5,138 C177.722,138 179,137.652 179,136.5 C179,135.675 179.675,135 180.5,135 C182.964,135 182.509,128.366 180,127.71 C178.9,127.423 178,126.47 178,125.594 C178,124.717 177.325,124 176.5,124 C175.675,124 175,124.675 175,125.5 C175,126.737 173.18,127 164.617,127 C155.074,127 154.191,127.162 153.71,129 C153.274,130.67 152.346,131 148.094,131 C144.423,131 143,131.387 143,132.383 C143,133.144 142.1,134.002 141,134.29 C139.468,134.69 139,135.654 139,138.406 C139,141.847 138.851,142 135.5,142 C132.667,142 132,141.619 132,140 C132,138.333 131.333,138 128,138 C123.628,138 123.234,137.08 124.625,130.125 C125.222,127.138 125.465,127 130.125,127 C133.595,127 135,126.604 135,125.625 C135,124.196 139.159,123 144.125,123 C146.014,123 147,122.486 147,121.5 C147,120.262 148.833,120 157.5,120 C165.876,120 168,119.714 168,118.588 C168,117.72 169.541,116.915 172,116.5 C174.459,116.085 176,115.28 176,114.412 C176,113.635 176.45,113 177,113 C178.572,113 178.167,110.278 176.5,109.638 C175.32,109.186 175,107.137 175,100.031 L175,91 L153.5,91 C132.667,91 132,91.062 132,93 C132,94.758 131.333,95 126.5,95 C122.474,95 121,95.372 121,96.389 C121,97.184 119.505,98.058 117.5,98.434 C115.405,98.827 114,99.675 114,100.545 C114,101.642 112.646,102 108.5,102 L103,102 L103,105.278 C103,107.318 103.755,109.202 105,110.268 C106.67,111.698 107,113.218 107,119.49 C107,125.12 107.337,127 108.347,127 C110.252,127 111.1,144.2 110.313,166.893 C109.822,181.067 109.394,185 108.343,185 C107.347,185 107,186.809 107,192 C107,198.333 106.81,199 105,199 C103.242,199 103,199.667 103,204.5 C103,208.722 102.652,210 101.5,210 C100.452,210 100,211.056 100,213.5 C100,216.333 99.619,217 98,217 C96.667,217 96,217.667 96,219 C96,220.619 95.333,221 92.5,221 L89,221 L89,215.5 C89,211.354 89.358,210 90.455,210 C91.325,210 92.173,208.595 92.566,206.5 C92.942,204.495 93.816,203 94.611,203 C95.628,203 96,201.526 96,197.5 C96,193.5 96.375,192 97.375,192 C99.246,192 100,187.511 100,176.375 C100,168.708 100.273,167 101.5,167 C102.742,167 103,165.111 103,156 C103,146.889 102.742,145 101.5,145 C100.373,145 100,143.794 100,140.147 C100,130.846 98.791,123 97.358,123 C96.343,123 96,121.229 96,116 C96,110.444 95.69,109 94.5,109 C93.675,109 93,108.325 93,107.5 C93,106.675 93.675,106 94.5,106 C95.333,106 96,105.111 96,104 C96,102.667 96.667,102 98,102 C99.111,102 100,101.333 100,100.5 C100,99.675 100.675,99 101.5,99 C102.583,99 103,97.889 103,95 C103,91.667 103.333,91 105,91 C106.1,91 107,90.371 107,89.601 C107,88.604 109.005,88.002 114,87.5 C118.995,86.998 121,86.396 121,85.399 C121,84.265 123.745,84 135.5,84 C147.452,84 150,83.747 150,82.56 C150,81.637 151.344,80.973 153.75,80.709 Z"/>
</svg>

