<svg xmlns="http://www.w3.org/2000/svg" width="300" height="300" viewBox="0 0 300 300" version="1.1">
  <defs/>
  <path d="M195.29,53 C195.675,51.528 196.654,51 199,51 C201.346,51 202.325,51.528 202.71,53 C203.103,54.503 204.074,55 206.617,55 C209.333,55 210,55.394 210,57 C210,58.111 210.667,59 211.5,59 C212.366,59 213,59.904 213,61.139 C213,63.119 212.626,63.234 208,62.686 L203,62.094 L203,67.43 C203,72.015 202.703,72.844 200.894,73.317 C198.932,73.831 198.838,74.299 199.51,80.184 C199.906,83.658 200.629,86.65 201.115,86.833 C201.602,87.017 202,88.198 202,89.458 C202,90.719 202.281,93.156 202.625,94.875 L203.25,98 L210.625,98 C216.514,98 218,97.698 218,96.5 C218,95.328 219.367,94.997 224.25,94.986 C231.865,94.97 235,94.21 235,92.383 C235,91.434 236.268,91 239.045,91 L243.091,91 L242.434,87.5 L241.777,84 L245.889,84 C248.82,84 250,84.418 250,85.455 C250,86.325 251.405,87.173 253.5,87.566 C256.455,88.12 256.998,88.634 256.986,90.861 C256.954,97.165 256.32,97.765 248.907,98.509 C243.988,99.003 242,99.605 242,100.601 C242,101.666 240.33,102 235,102 C229.727,102 228,102.339 228,103.375 C228,105.146 223.592,106 214.454,106 L207.159,106 L206.472,109.126 C206.095,110.845 206.11,118.945 206.506,127.126 C207.071,138.795 207.525,142 208.613,142 C209.664,142 210,143.698 210,149 C210,155.333 210.19,156 212,156 C213.1,156 214,156.655 214,157.455 C214,158.325 215.405,159.173 217.5,159.566 C219.505,159.942 221,160.816 221,161.611 C221,162.375 221.675,163 222.5,163 C223.325,163 224,163.717 224,164.594 C224,165.47 224.9,166.423 226,166.71 C227.1,166.998 228,167.806 228,168.505 C228,169.205 229.575,170.073 231.5,170.434 C233.595,170.827 235,171.675 235,172.545 C235,173.345 235.9,174 237,174 C238.333,174 239,174.667 239,176 C239,177.1 239.623,178 240.383,178 C241.144,178 242.002,178.9 242.29,180 C242.577,181.1 243.53,182 244.406,182 C245.561,182 246,182.964 246,185.5 C246,187.896 246.459,189 247.455,189 C249.288,189 250.451,194.783 249.566,199.5 C248.861,203.258 246,204.461 246,201 C246,199.667 245.333,199 244,199 C242.381,199 242,198.333 242,195.5 C242,193.056 241.548,192 240.5,192 C239.667,192 239,191.111 239,190 C239,188.667 238.333,188 237,188 C235.667,188 235,187.333 235,186 C235,184.889 234.333,184 233.5,184 C232.675,184 232,183.325 232,182.5 C232,181.667 231.111,181 230,181 C228.9,181 228,180.377 228,179.617 C228,178.856 227.1,177.998 226,177.71 C224.9,177.423 224,176.47 224,175.594 C224,174.439 223.036,174 220.5,174 C217.602,174 217,173.636 217,171.883 C217,170.176 216.565,169.883 214.75,170.37 C213.512,170.701 211.938,170.979 211.25,170.986 C210.563,170.994 210,171.675 210,172.5 C210,173.325 210.612,174 211.361,174 C213.047,174 213.979,180.996 213.991,193.75 C213.998,201.302 214.275,203 215.5,203 C216.778,203 217,205.672 217,221.052 L217,239.105 L211.75,238.802 L206.5,238.5 L206.19,234.75 C205.987,232.297 205.381,231 204.44,231 C203.236,231 203,227.803 203,211.5 C203,194.833 203.218,192 204.5,192 C205.325,192 206,191.325 206,190.5 C206,189.675 205.325,189 204.5,189 C203.254,189 203,187.063 203,177.571 C203,165.137 202.183,163 197.429,163 C195.32,163 195,162.539 195,159.5 C195,156.667 195.381,156 197,156 C198.879,156 199,155.333 199,145 C199,136.041 198.73,134 197.545,134 C196.675,134 195.827,132.595 195.434,130.5 C194.734,126.769 192,125.575 192,129 C192,130.619 191.333,131 188.5,131 C186.056,131 185,131.452 185,132.5 C185,133.333 184.111,134 183,134 C181.667,134 181,134.667 181,136 C181,137.333 180.333,138 179,138 C177.889,138 177,138.667 177,139.5 C177,140.325 176.325,141 175.5,141 C174.667,141 174,141.889 174,143 C174,144.333 173.333,145 172,145 C170.667,145 170,145.667 170,147 C170,148.111 169.333,149 168.5,149 C167.675,149 167,149.623 167,150.383 C167,151.144 166.1,152.002 165,152.29 C163.9,152.577 163,153.53 163,154.406 C163,155.283 162.325,156 161.5,156 C160.675,156 160,156.717 160,157.594 C160,158.47 159.1,159.423 158,159.71 C156.893,160 156,161.074 156,162.117 C156,163.152 155.325,164 154.5,164 C153.675,164 153,164.675 153,165.5 C153,166.333 152.111,167 151,167 C149.667,167 149,167.667 149,169 C149,170.333 148.333,171 147,171 C145.889,171 145,171.667 145,172.5 C145,173.325 144.325,174 143.5,174 C140.451,174 142.077,176.792 145.5,177.434 C148.698,178.034 149,178.389 149,181.545 L149,185 L143.5,185 C139.278,185 138,185.348 138,186.5 C138,187.548 136.944,188 134.5,188 C131.667,188 131,188.381 131,190 C131,191.333 130.333,192 129,192 C127.667,192 127,192.667 127,194 C127,195.1 126.377,196 125.617,196 C124.856,196 123.998,196.9 123.71,198 C123.423,199.1 122.47,200 121.594,200 C120.49,200 120,200.922 120,203 C120,204.917 119.49,206 118.588,206 C117.72,206 116.915,207.541 116.5,210 C115.866,213.753 115.614,214 112.412,214 L109,214 L109,230 C109,242.956 108.737,246 107.617,246 C106.856,246 105.99,246.931 105.692,248.069 C105.258,249.729 104.494,250.075 101.826,249.819 L98.5,249.5 L98.177,239 C97.635,221.384 98.966,200 100.604,200 C101.742,200 102,196.954 102,183.5 C102,167.333 101.957,167 99.871,167 C97.836,167 97.772,166.691 98.431,160 C99.084,153.375 99.011,153 97.061,153 C95.896,153 95,153.652 95,154.5 C95,155.548 93.944,156 91.5,156 C88.667,156 88,156.381 88,158 C88,159.333 87.333,160 86,160 C84.667,160 84,160.667 84,162 C84,163.1 83.361,164 82.579,164 C81.798,164 80.862,165.35 80.5,167 C80.138,168.65 79.202,170 78.421,170 C77.639,170 77,170.9 77,172 C77,173.333 76.333,174 75,174 C73.667,174 73,174.667 73,176 C73,177.111 72.333,178 71.5,178 C70.675,178 70,178.717 70,179.594 C70,180.47 69.1,181.423 68,181.71 C66.583,182.081 66,183.074 66,185.117 C66,187.088 65.496,188 64.406,188 C63.53,188 62.577,188.9 62.29,190 C62.002,191.1 61.144,192 60.383,192 C59.623,192 59,192.9 59,194 C59,195.333 58.333,196 57,196 C55.667,196 55,196.667 55,198 C55,199.111 54.333,200 53.5,200 C52.514,200 52,200.986 52,202.875 C52,205.291 51.504,205.849 48.897,206.371 C44.798,207.19 44,206.55 44,202.441 C44,199.667 44.387,199 46,199 C47.619,199 48,198.333 48,195.5 C48,192.667 48.381,192 50,192 C51.111,192 52,191.333 52,190.5 C52,189.675 52.675,189 53.5,189 C54.333,189 55,188.111 55,187 C55,185.837 55.667,185 56.594,185 C57.47,185 58.423,184.1 58.71,183 C58.998,181.9 59.806,181 60.505,181 C61.205,181 62.073,179.425 62.434,177.5 C62.827,175.405 63.675,174 64.545,174 C65.345,174 66,173.377 66,172.617 C66,171.856 66.9,170.998 68,170.71 C69.197,170.397 70,169.346 70,168.094 C70,166.942 70.639,166 71.421,166 C72.202,166 73.138,164.65 73.5,163 C73.862,161.35 74.798,160 75.579,160 C76.361,160 77,159.1 77,158 C77,156.889 77.667,156 78.5,156 C79.325,156 80,155.283 80,154.406 C80,153.53 80.9,152.577 82,152.29 C83.1,152.002 84,151.144 84,150.383 C84,149.623 84.717,149 85.594,149 C86.47,149 87.423,148.1 87.71,147 C87.998,145.9 88.856,145 89.617,145 C90.377,145 91,144.325 91,143.5 C91,142.348 92.278,142 96.5,142 L102,142 L102,127 L98.469,127 C96.281,127 94.722,127.56 94.372,128.473 C94.061,129.283 92.275,130.233 90.403,130.584 C88.473,130.946 87,131.823 87,132.611 C87,133.488 85.893,134 84,134 Q81,134 81,132.5 C81,131.417 79.889,131 77,131 C73.667,131 73,130.667 73,129 C73,127.889 72.333,127 71.5,127 C70.675,127 70,126.325 70,125.5 C70,124.675 70.675,124 71.5,124 C72.333,124 73,123.111 73,122 C73,120.103 73.667,120 86,120 C96.889,120 99,119.756 99,118.5 C99,117.675 99.675,117 100.5,117 C101.7,117 102,115.5 102,109.5 C102,103.841 101.666,102 100.639,102 C99.049,102 98.015,95.085 98.022,84.5 C98.029,74.569 98.601,73 102.21,73 C104.346,73 105.335,73.565 105.71,75 C105.998,76.1 106.856,77 107.617,77 C108.377,77 109,77.623 109,78.383 C109,79.144 109.9,80.002 111,80.29 C113.841,81.033 113.841,86.967 111,87.71 C109.121,88.202 109,89.074 109,102.117 L109,116 L114.5,116 C118.722,116 120,115.652 120,114.5 C120,113.308 121.455,113 127.094,113 C133.346,113 134.249,112.763 134.71,111 C135.169,109.244 136.074,109 142.117,109 C147.384,109 149,108.668 149,107.585 C149,106.554 151.032,105.98 156.5,105.468 C161.878,104.964 164,104.374 164,103.383 C164,102.272 166.751,102 178,102 L192,102 L192,78.5 C192,59.158 192.245,55 193.383,55 C194.144,55 195.002,54.1 195.29,53 Z M192,111.625 C192,112.901 191.349,113.12 188.968,112.644 C184.483,111.747 174,113.049 174,114.503 C174,115.834 166.786,116.977 158.295,116.991 C153.141,117 153.084,117.034 152.434,120.5 C151.837,123.682 151.47,124 148.389,124 C145.667,124 145,123.607 145,122 C145,120.19 144.333,120 138,120 C132.727,120 131,120.339 131,121.375 C131,122.904 126.772,124 120.875,124 C118.097,124 117,124.425 117,125.5 C117,126.333 116.111,127 115,127 C113.083,127 113,127.667 113,143 C113,156.556 113.229,159 114.5,159 C115.325,159 116,159.85 116,160.889 C116,162.255 116.967,162.959 119.5,163.434 C121.595,163.827 123,164.675 123,165.545 C123,166.345 123.9,167 125,167 C126.1,167 127,167.612 127,168.361 C127,169.243 128.714,169.924 131.878,170.299 C138.958,171.138 140.838,170.381 141.587,166.39 C141.947,164.469 142.825,163 143.611,163 C144.375,163 145,162.325 145,161.5 C145,160.667 145.889,160 147,160 C148.333,160 149,159.333 149,158 C149,156.9 149.623,156 150.383,156 C151.144,156 152.002,155.1 152.29,154 C152.577,152.9 153.53,152 154.406,152 C155.283,152 156,151.325 156,150.5 C156,149.675 156.623,149 157.383,149 C158.144,149 159.002,148.1 159.29,147 C159.577,145.9 160.53,145 161.406,145 C162.333,145 163,144.163 163,143 C163,141.889 163.667,141 164.5,141 C165.325,141 166,140.325 166,139.5 C166,138.675 166.85,138 167.889,138 C169.255,138 169.959,137.033 170.434,134.5 C170.827,132.405 171.675,131 172.545,131 C173.345,131 174,130.345 174,129.545 C174,128.675 175.405,127.827 177.5,127.434 C179.631,127.034 181,126.197 181,125.295 C181,124.48 181.9,123.577 183,123.29 C184.1,123.002 185,122.144 185,121.383 C185,120.469 186.187,120 188.5,120 C191.833,120 192,119.833 192,116.5 C192,114.056 192.452,113 193.5,113 C194.325,113 195,113.675 195,114.5 C195,115.333 195.889,116 197,116 C198.111,116 199,115.333 199,114.5 C199,113.667 198.111,113 197,113 C195.889,113 195,112.333 195,111.5 C195,110.675 194.325,110 193.5,110 C192.675,110 192,110.731 192,111.625 Z M113,172.5 C113,173.325 112.325,174 111.5,174 C110.667,174 110,174.889 110,176 C110,177.1 110.45,178 111,178 C111.55,178 112,178.675 112,179.5 C112,180.325 111.55,181 111,181 C109.71,181 109.69,184.727 110.977,185.167 C111.515,185.35 112.246,186.963 112.602,188.75 C113.12,191.349 112.925,192 111.625,192 C110.731,192 109.994,192.563 109.986,193.25 C109.979,193.938 109.701,195.512 109.37,196.75 C108.826,198.78 109.121,199 112.383,199 C115.026,199 116,198.571 116,197.406 C116,196.53 116.9,195.577 118,195.29 C119.1,195.002 120,194.144 120,193.383 C120,192.623 120.625,192 121.389,192 C122.184,192 123.058,190.505 123.434,188.5 C123.796,186.571 124.691,185 125.429,185 C126.165,185 127.002,184.1 127.29,183 C127.577,181.9 128.53,181 129.406,181 C130.283,181 131,180.325 131,179.5 C131,178.445 129.934,178 127.406,178 C124.654,178 123.69,177.532 123.29,176 C122.919,174.583 121.926,174 119.883,174 C117.987,174 117,173.487 117,172.5 C117,171.667 116.111,171 115,171 C113.889,171 113,171.667 113,172.5 Z"/>
</svg>

