<svg xmlns="http://www.w3.org/2000/svg" width="300" height="300" viewBox="0 0 300 300" version="1.1">
  <defs/>
  <path d="M208,108.594 C208,107.287 209.262,107 215,107 C220.556,107 222,107.31 222,108.5 C222,109.325 222.675,110 223.5,110 C224.333,110 225,110.889 225,112 C225,113.733 224.333,114 220,114 C216.41,114 215,114.39 215,115.383 C215,116.144 214.1,117.002 213,117.29 C211.9,117.577 211,118.53 211,119.406 C211,120.283 210.325,121 209.5,121 C208.667,121 208,121.889 208,123 C208,124.333 207.333,125 206,125 C204.381,125 204,125.667 204,128.5 C204,130.896 203.541,132 202.545,132 C201.675,132 200.827,133.405 200.434,135.5 C200.058,137.505 199.184,139 198.389,139 C197.625,139 197,139.9 197,141 C197,142.1 196.345,143 195.545,143 C194.675,143 193.827,144.405 193.434,146.5 C193.073,148.425 192.203,150 191.5,150 C190.797,150 189.927,151.575 189.566,153.5 C189.173,155.595 188.325,157 187.455,157 C186.655,157 186,157.9 186,159 C186,160.1 185.345,161 184.545,161 C183.675,161 182.827,162.405 182.434,164.5 C182.073,166.425 181.203,168 180.5,168 C179.797,168 178.927,169.575 178.566,171.5 C178.173,173.595 177.325,175 176.455,175 C175.655,175 175,175.675 175,176.5 C175,177.325 174.325,178 173.5,178 C172.644,178 172,178.899 172,180.094 C172,181.346 171.197,182.397 170,182.71 C168.583,183.081 168,184.074 168,186.117 C168,188.088 167.496,189 166.406,189 C165.53,189 164.577,189.9 164.29,191 C164.002,192.1 163.144,193 162.383,193 C161.623,193 161,193.9 161,195 C161,196.333 160.333,197 159,197 C157.889,197 157,197.667 157,198.5 C157,199.325 156.325,200 155.5,200 C154.667,200 154,200.889 154,202 C154,203.333 153.333,204 152,204 C150.667,204 150,204.667 150,206 C150,207.111 149.333,208 148.5,208 C147.675,208 147,208.675 147,209.5 C147,210.333 146.111,211 145,211 C143.667,211 143,211.667 143,213 C143,214.333 142.333,215 141,215 C139.889,215 139,215.667 139,216.5 C139,217.325 138.325,218 137.5,218 C136.667,218 136,218.889 136,220 C136,221.333 135.333,222 134,222 C132.667,222 132,222.667 132,224 C132,225.619 131.333,226 128.5,226 C126.575,226 125,226.499 125,227.109 C125,228.645 120.774,232.962 119.25,232.983 C118.563,232.992 118,233.675 118,234.5 C118,235.333 117.111,236 116,236 C114.667,236 114,236.667 114,238 C114,239.667 113.333,240 110,240 C107.261,240 106,240.436 106,241.383 C106,242.899 103.032,243.965 98.75,243.986 C96.978,243.995 96,244.534 96,245.5 C96,246.548 94.944,247 92.5,247 C90.187,247 89,247.469 89,248.383 C89,250.23 85.843,250.973 78,250.973 C70.157,250.973 67,250.23 67,248.383 C67,247.469 65.813,247 63.5,247 C60.664,247 60,246.62 60,244.995 C60,243.081 60.444,243.019 69.829,243.634 C81.443,244.395 89,243.53 89,241.439 C89,240.461 90.122,240 92.5,240 C94.896,240 96,239.541 96,238.545 C96,237.675 97.405,236.827 99.5,236.434 C101.505,236.058 103,235.184 103,234.389 C103,233.468 104.18,233 106.5,233 C109.333,233 110,232.619 110,231 C110,229.667 110.667,229 112,229 C113.1,229 114,228.375 114,227.611 C114,226.816 115.495,225.942 117.5,225.566 C119.595,225.173 121,224.325 121,223.455 C121,222.655 121.675,222 122.5,222 C123.325,222 124,221.283 124,220.406 C124,219.53 124.9,218.577 126,218.29 C127.1,218.002 128,217.144 128,216.383 C128,215.623 128.9,215 130,215 C131.333,215 132,214.333 132,213 C132,211.667 132.667,211 134,211 C135.111,211 136,210.333 136,209.5 C136,208.675 136.675,208 137.5,208 C138.333,208 139,207.111 139,206 C139,204.667 139.667,204 141,204 C142.333,204 143,203.333 143,202 C143,200.889 143.667,200 144.5,200 C145.325,200 146,199.325 146,198.5 C146,197.667 146.889,197 148,197 C149.333,197 150,196.333 150,195 C150,193.9 150.655,193 151.455,193 C152.325,193 153.173,191.595 153.566,189.5 C153.927,187.575 154.795,186 155.495,186 C156.194,186 157.002,185.1 157.29,184 C157.577,182.9 158.53,182 159.406,182 C160.283,182 161,181.325 161,180.5 C161,179.675 161.675,179 162.5,179 C163.333,179 164,178.111 164,177 C164,175.667 164.667,175 166,175 C167.619,175 168,174.333 168,171.5 C168,168.667 168.381,168 170,168 C171.619,168 172,167.333 172,164.5 C172,162.056 172.452,161 173.5,161 C174.333,161 175,160.111 175,159 C175,157.9 175.655,157 176.455,157 C177.325,157 178.173,155.595 178.566,153.5 C178.927,151.575 179.797,150 180.5,150 C181.203,150 182.073,148.425 182.434,146.5 C182.827,144.405 183.675,143 184.545,143 C185.345,143 186,142.1 186,141 C186,139.9 186.655,139 187.455,139 C188.325,139 189.173,137.595 189.566,135.5 C189.942,133.495 190.816,132 191.611,132 C192.532,132 193,130.82 193,128.5 C193,125.667 193.381,125 195,125 C196.333,125 197,124.333 197,123 C197,121.9 197.625,121 198.389,121 C199.184,121 200.058,119.505 200.434,117.5 C200.827,115.405 201.675,114 202.545,114 C203.345,114 204,113.377 204,112.617 C204,111.856 204.9,110.998 206,110.71 C207.1,110.423 208,109.47 208,108.594 Z M135,47.5 C135,46.462 136.043,46 138.383,46 C142.258,46 142.964,47.418 142.986,55.25 C142.998,59.174 142.685,60 141.188,60 C139.586,60 139.353,61.048 139.183,69 C139.005,77.359 139.132,78 140.966,78 C142.562,78 142.907,78.623 142.768,81.25 C142.674,83.037 142.687,91.138 142.798,99.25 C142.959,111.03 143.278,114 144.381,114 C145.422,114 145.937,116.583 146.477,124.5 C147.023,132.507 147.526,135 148.596,135 C149.726,135 150,137.42 150,147.383 C150,155.514 150.044,158.774 148.467,160.088 C147.369,161.002 145.484,160.972 142.25,160.986 L139,161 L139,143 C139,128.295 138.745,125 137.609,125 C136.55,125 136.048,122.382 135.5,114 C134.952,105.618 134.45,103 133.391,103 C132.237,103 132,98.39 132,76 C132,52.667 132.204,49 133.5,49 C134.325,49 135,48.325 135,47.5 Z M107,69.5 C107,67.826 109.642,67.425 110.173,69.018 C110.359,69.578 112.872,70.316 115.756,70.658 C119.98,71.158 121,71.641 121,73.139 C121,74.705 120.209,75 116,75 C112.222,75 111,75.367 111,76.5 C111,77.583 109.889,78 107,78 C103.667,78 103,78.333 103,80 C103,81.333 102.333,82 101,82 C99.889,82 99,82.667 99,83.5 C99,84.325 98.325,85 97.5,85 C96.667,85 96,85.889 96,87 C96,88.1 95.345,89 94.545,89 C93.675,89 92.827,90.405 92.434,92.5 C92.073,94.425 91.203,96 90.5,96 C89.797,96 88.927,97.575 88.566,99.5 C88.173,101.595 87.325,103 86.455,103 C85.655,103 85,103.9 85,105 C85,106.111 84.333,107 83.5,107 C82.667,107 82,107.889 82,109 C82,110.333 81.333,111 80,111 C78.381,111 78,111.667 78,114.5 C78,116.82 77.532,118 76.611,118 C75.816,118 74.942,119.495 74.566,121.5 C74.173,123.595 73.325,125 72.455,125 C71.459,125 71,126.104 71,128.5 C71,131.333 70.619,132 69,132 C67.381,132 67,132.667 67,135.5 C67,137.803 66.53,139 65.625,139 C64.196,139 62.591,144.53 63.563,146.103 C63.868,146.596 64.766,147 65.559,147 C66.539,147 67,148.119 67,150.5 C67,152.944 66.548,154 65.5,154 C64.675,154 64,154.675 64,155.5 C64,156.652 62.722,157 58.5,157 L53,157 L53,150 C53,144.444 53.31,143 54.5,143 C55.555,143 56,141.934 56,139.406 C56,136.654 56.468,135.69 58,135.29 C59.503,134.897 60,133.926 60,131.383 C60,129.089 60.468,128 61.455,128 C62.325,128 63.173,126.595 63.566,124.5 C63.927,122.575 64.797,121 65.5,121 C66.203,121 67.073,119.425 67.434,117.5 C67.827,115.405 68.675,114 69.545,114 C70.345,114 71,113.1 71,112 C71,110.889 71.667,110 72.5,110 C73.548,110 74,108.944 74,106.5 C74,103.667 74.381,103 76,103 C77.333,103 78,102.333 78,101 C78,99.9 78.623,99 79.383,99 C80.899,99 81.965,96.032 81.986,91.75 C81.995,89.978 82.534,89 83.5,89 C84.333,89 85,88.111 85,87 C85,85.667 85.667,85 87,85 C88.619,85 89,84.333 89,81.5 C89,78.167 89.167,78 92.5,78 C95.333,78 96,77.619 96,76 C96,74.889 96.667,74 97.5,74 C98.325,74 99,73.325 99,72.5 C99,71.417 100.111,71 103,71 C105.889,71 107,70.583 107,69.5 Z M197,76.5 C197,75.675 197.675,75 198.5,75 C199.325,75 200,75.675 200,76.5 C200,77.333 200.889,78 202,78 C203.1,78 204,78.625 204,79.389 C204,80.184 205.495,81.058 207.5,81.434 C209.595,81.827 211,82.675 211,83.545 C211,84.548 212.116,85 214.594,85 C217.346,85 218.31,85.468 218.71,87 C218.998,88.1 219.856,89 220.617,89 C221.377,89 222,89.675 222,90.5 C222,91.548 223.056,92 225.5,92 C228.333,92 229,92.381 229,94 C229,95.667 229.667,96 233,96 C235.789,96 237,96.43 237,97.421 C237,98.202 238.336,99.134 239.968,99.493 C242.366,100.02 243.06,100.804 243.58,103.572 C243.933,105.458 244.791,107 245.486,107 C247.653,107 249.13,120.184 247.103,121.437 C246.609,121.742 244.809,121.712 243.103,121.371 C240.094,120.769 240,120.587 240,115.375 C240,110.667 239.752,110 238,110 C236.889,110 236,109.333 236,108.5 C236,107.675 235.325,107 234.5,107 C233.667,107 233,106.111 233,105 C233,103.381 232.333,103 229.5,103 C227.056,103 226,102.548 226,101.5 C226,100.445 224.934,100 222.406,100 C219.654,100 218.69,99.532 218.29,98 C217.919,96.583 216.926,96 214.883,96 C213.067,96 212,95.478 212,94.588 C212,93.72 210.459,92.915 208,92.5 C205.765,92.122 204,91.259 204,90.542 C204,89.756 202.176,89.055 199.283,88.728 C196.688,88.436 194.401,87.702 194.199,87.098 C193.998,86.494 192.997,86 191.976,86 C189.454,86 188.727,84.52 189.505,80.976 C190.075,78.382 190.598,78 193.579,78 C195.953,78 197,77.541 197,76.5 Z"/>
</svg>

