<svg xmlns="http://www.w3.org/2000/svg" width="300" height="300" viewBox="0 0 300 300" version="1.1">
  <defs/>
  <path d="M121,133.389 C121,132.625 121.9,132 123,132 C124.111,132 125,132.667 125,133.5 C125,134.325 125.675,135 126.5,135 C127.433,135 128,135.944 128,137.5 C128,139.056 127.433,140 126.5,140 C125.367,140 125,141.222 125,145 C125,148.59 125.39,150 126.383,150 C127.144,150 128.002,149.1 128.29,148 C128.577,146.9 129.53,146 130.406,146 C131.283,146 132,145.325 132,144.5 C132,143.379 133.201,142.997 136.75,142.986 C142.923,142.969 146,142.103 146,140.383 C146,139.289 148.301,139 157,139 C167.333,139 168,139.121 168,141 C168,142.333 168.667,143 170,143 C171.111,143 172,143.667 172,144.5 C172,145.325 172.675,146 173.5,146 C174.583,146 175,147.111 175,150 C175,152.889 174.583,154 173.5,154 C172.452,154 172,155.056 172,157.5 C172,160.333 171.619,161 170,161 C168.381,161 168,161.667 168,164.5 C168,167.333 167.619,168 166,168 C164.889,168 164,168.667 164,169.5 C164,170.325 163.325,171 162.5,171 C161.667,171 161,171.889 161,173 C161,174.619 160.333,175 157.5,175 C154.667,175 154,175.381 154,177 C154,178.841 154.667,179 162.392,179 C170.509,179 170.804,179.082 171.411,181.5 C172.247,184.831 171.124,189 169.392,189 C168.626,189 168,188.325 168,187.5 C168,186.452 166.944,186 164.5,186 C162.215,186 161,186.472 161,187.361 C161,188.751 154.378,189.974 146.75,189.991 C144.087,189.997 143,190.435 143,191.5 C143,192.732 141.037,193.03 132,193.167 C125.95,193.258 120.213,193.371 119.25,193.417 C117.931,193.479 117.424,192.577 117.19,189.75 C116.923,186.53 117.17,186 118.94,186 C120.745,186 121,185.382 121,181 C121,177.222 120.633,176 119.5,176 C118.465,176 118,174.961 118,172.647 C118,164.723 116.696,157 115.358,157 C114.301,157 114,154.684 114,146.545 L114,136.091 L117.5,135.434 C119.505,135.058 121,134.184 121,133.389 Z M135.63,41.25 C136.151,39.306 136.898,39 141.117,39 C144.791,39 146,39.371 146,40.5 C146,41.333 146.889,42 148,42 C149.727,42 150,42.667 150,46.889 C150,51.684 149.933,51.79 146.5,52.434 L143,53.091 L143,82 L145.849,82 C154.57,82 164,80.625 164,79.353 C164,78.38 165.543,78 169.5,78 C174.333,78 175,77.758 175,76 C175,74.667 175.667,74 177,74 C178.81,74 179,73.333 179,67 C179,61.444 179.31,60 180.5,60 C181.348,60 182,59.104 182,57.94 C182,56.17 182.53,55.923 185.75,56.19 C189.174,56.473 189.527,56.783 189.813,59.75 C189.991,61.592 190.691,63 191.429,63 C192.331,63 192.89,65.219 193.247,70.211 C193.532,74.196 194.263,77.588 194.882,77.794 C196.198,78.233 196.414,85 195.111,85 C194.623,85 193.936,86.529 193.585,88.398 C193.122,90.866 192.297,91.96 190.571,92.393 C187.445,93.177 181.996,92.052 182.014,90.625 C182.048,87.825 183.355,85 184.617,85 C185.377,85 186,84.048 186,82.883 C186,81.176 185.565,80.883 183.75,81.37 C182.512,81.701 180.938,81.979 180.25,81.986 C179.563,81.994 179,82.675 179,83.5 C179,84.544 177.95,85 175.55,85 C173.303,85 171.758,85.61 171.122,86.75 C170.297,88.226 168.334,88.553 158.572,88.836 C149.424,89.102 147,89.468 147,90.586 C147,91.364 146.1,92 145,92 C143.667,92 143,92.667 143,94 C143,95.1 142.377,96 141.617,96 C139.897,96 139.031,99.077 139.014,105.25 C139.004,108.621 138.598,110 137.617,110 C135.897,110 135.031,106.923 135.014,100.75 C135.003,97.201 134.621,96 133.5,96 C132.675,96 132,95.325 132,94.5 C132,93.417 130.889,93 128,93 C125.111,93 124,93.417 124,94.5 C124,95.738 122.167,96 113.5,96 C105.227,96 103,96.293 103,97.383 C103,99.103 99.923,99.969 93.75,99.986 C90.201,99.997 89,100.379 89,101.5 C89,102.722 87.333,103 80,103 L71,103 L71,99.5 C71,97.056 71.452,96 72.5,96 C73.325,96 74,95.283 74,94.406 C74,93.53 74.9,92.577 76,92.29 C77.503,91.897 78,90.926 78,88.383 C78,86.089 78.468,85 79.455,85 C80.325,85 81.173,83.595 81.566,81.5 C81.942,79.495 82.816,78 83.611,78 C84.612,78 85,76.595 85,72.969 C85,69.46 85.446,67.766 86.473,67.372 C87.283,67.061 88.233,65.275 88.584,63.403 C88.946,61.473 89.823,60 90.611,60 C91.375,60 92,59.1 92,58 C92,56.667 92.667,56 94,56 C95.111,56 96,55.333 96,54.5 C96,53.417 97.111,53 100,53 C102.889,53 104,53.417 104,54.5 C104,55.325 104.675,56 105.5,56 C106.59,56 107,57.123 107,60.111 L107,64.223 L103.5,63.566 C100.427,62.989 100,63.159 100,64.955 C100,66.333 99.348,67 98,67 C96.381,67 96,67.667 96,70.5 C96,72.848 95.535,74 94.588,74 C93.72,74 92.915,75.541 92.5,78 C92.085,80.459 91.28,82 90.412,82 C89.384,82 89,83.361 89,87 C89,90.778 89.367,92 90.5,92 C91.325,92 92,91.325 92,90.5 C92,89.258 93.889,89 103,89 C113.333,89 114,88.879 114,87 C114,85.148 114.667,85 123,85 L132,85 L132,69 C132,55.444 132.229,53 133.5,53 C134.621,53 135.003,51.799 135.014,48.25 C135.021,45.638 135.299,42.487 135.63,41.25 Z M197,187.389 C197,186.468 198.18,186 200.5,186 C203.917,186 204,186.095 204,190 C204,193.333 203.667,194 202,194 C200.889,194 200,194.667 200,195.5 C200,196.325 199.325,197 198.5,197 C197.675,197 197,197.625 197,198.389 C197,199.184 195.505,200.058 193.5,200.434 C191.405,200.827 190,201.675 190,202.545 C190,203.345 189.1,204 188,204 C186.667,204 186,204.667 186,206 C186,207.111 185.333,208 184.5,208 C183.675,208 183,208.675 183,209.5 C183,210.325 182.152,211 181.117,211 C180.074,211 179,211.893 178.71,213 C178.423,214.1 177.47,215 176.594,215 C175.717,215 175,215.675 175,216.5 C175,217.325 174.325,218 173.5,218 C172.667,218 172,218.889 172,220 C172,221.333 171.333,222 170,222 C168.667,222 168,222.667 168,224 C168,225.333 167.333,226 166,226 C164.889,226 164,226.667 164,227.5 C164,228.325 163.325,229 162.5,229 C161.667,229 161,229.889 161,231 C161,232.619 160.333,233 157.5,233 C154.167,233 154,233.167 154,236.5 L154,240 L161,240 C166.293,240 168,239.663 168,238.617 C168,236.538 171.28,236.029 184.75,236.014 C194.966,236.002 197,235.751 197,234.5 C197,233.262 198.833,233 207.5,233 C217.436,233 218,232.889 218,230.94 C218,229.17 218.53,228.923 221.75,229.19 C225.174,229.473 225.527,229.783 225.813,232.75 C226.007,234.763 226.673,236 227.563,236 C228.354,236 229,236.9 229,238 C229,239.1 228.377,240 227.617,240 C226.856,240 225.981,240.965 225.673,242.144 C225.153,244.131 224.686,244.238 219.306,243.604 C216.113,243.228 205.738,243.231 196.25,243.61 C182.775,244.149 179,244.595 179,245.65 C179,246.685 176.845,247.002 169.75,247.009 C156.996,247.021 150,247.953 150,249.639 C150,250.528 148.785,251 146.5,251 C144.056,251 143,251.452 143,252.5 C143,253.565 141.913,254.003 139.25,254.009 C131.622,254.026 125,255.249 125,256.639 C125,257.528 123.785,258 121.5,258 C119.197,258 118,258.47 118,259.375 C118,261.338 113.431,262 99.875,262 C89.986,262 88,262.251 88,263.5 C88,265.811 86.307,265.275 85.63,262.75 C84.482,258.465 84.913,255 86.594,255 C87.47,255 88.423,254.1 88.71,253 C89.116,251.448 90.074,251 92.992,251 C98.78,251 103,249.893 103,248.375 C103,247.339 104.727,247 110,247 C115.229,247 117,246.657 117,245.642 C117,244.304 124.723,243 132.647,243 C134.961,243 136,242.535 136,241.5 C136,240.452 137.056,240 139.5,240 C142.333,240 143,239.619 143,238 C143,236.889 143.667,236 144.5,236 C145.325,236 146,235.325 146,234.5 C146,233.667 146.889,233 148,233 C149.333,233 150,232.333 150,231 C150,229.889 150.667,229 151.5,229 C152.325,229 153,228.283 153,227.406 C153,226.53 153.9,225.577 155,225.29 C156.1,225.002 157,224.144 157,223.383 C157,222.623 157.9,222 159,222 C160.333,222 161,221.333 161,220 C161,218.889 161.667,218 162.5,218 C163.325,218 164,217.325 164,216.5 C164,215.667 164.889,215 166,215 C167.333,215 168,214.333 168,213 C168,211.889 168.667,211 169.5,211 C170.325,211 171,210.283 171,209.406 C171,208.53 171.9,207.577 173,207.29 C174.1,207.002 175,206.144 175,205.383 C175,204.623 175.9,204 177,204 C178.333,204 179,203.333 179,202 C179,200.889 179.667,200 180.5,200 C181.325,200 182,199.283 182,198.406 C182,197.53 182.9,196.577 184,196.29 C185.1,196.002 186,195.144 186,194.383 C186,193.623 186.9,193 188,193 C189.1,193 190,192.345 190,191.545 C190,190.675 191.405,189.827 193.5,189.434 C195.505,189.058 197,188.184 197,187.389 Z M135,115.399 C135,114.263 137.817,114 150,114 C162.294,114 165,114.256 165,115.421 C165,116.202 166.302,117.127 167.894,117.477 C169.919,117.921 170.929,118.846 171.255,120.556 C171.941,124.143 170.971,128 169.383,128 C168.478,128 168,129.169 168,131.383 C168,134.047 167.521,134.895 165.75,135.37 C161.274,136.569 161,136.26 161,130 L161,124 L157.5,124 C155.575,124 154,123.55 154,123 C154,122.45 152.2,122 150,122 C147.111,122 146,122.417 146,123.5 C146,124.738 144.167,125 135.5,125 C127.23,125 125,125.294 125,126.383 C125,127.374 122.878,127.964 117.5,128.468 C112.032,128.98 110,129.554 110,130.585 C110,131.535 108.851,132 106.5,132 C104.197,132 103,132.47 103,133.375 C103,135.06 98.658,136 90.875,136 L85,136 L85,125 L88.45,125 C90.697,125 92.242,124.39 92.878,123.25 C93.719,121.745 95.752,121.454 107.428,121.173 C117.843,120.921 121,120.538 121,119.524 C121,118.622 123.221,117.98 128,117.5 C132.995,116.998 135,116.396 135,115.399 Z M146,151.455 C146,152.325 144.595,153.173 142.5,153.566 C140.495,153.942 139,154.816 139,155.611 C139,156.532 137.82,157 135.5,157 C132.667,157 132,157.381 132,159 C132,160.1 131.377,161 130.617,161 C128.802,161 128.027,164.14 128.027,171.5 C128.027,180.315 128.683,182 132.117,182 C134.013,182 135,181.487 135,180.5 C135,179.675 135.8,179 136.778,179 C137.756,179 139.326,178.1 140.268,177 C141.21,175.9 142.885,175 143.99,175 C145.11,175 146,174.336 146,173.5 C146,172.667 146.889,172 148,172 C149.333,172 150,171.333 150,170 C150,168.667 150.667,168 152,168 C153.1,168 154,167.377 154,166.617 C154,165.856 154.9,164.998 156,164.71 C157.1,164.423 158,163.47 158,162.594 C158,161.717 158.675,161 159.5,161 C160.325,161 161,160.325 161,159.5 C161,158.675 161.675,158 162.5,158 C163.583,158 164,156.889 164,154 L164,150 L155,150 C147.791,150 146,150.29 146,151.455 Z M96,198.5 C96,197.452 97.056,197 99.5,197 C101.944,197 103,197.452 103,198.5 C103,199.325 102.325,200 101.5,200 C100.667,200 100,200.889 100,202 C100,203.667 99.333,204 96,204 C92.667,204 92,204.333 92,206 C92,207.111 91.333,208 90.5,208 C89.31,208 89,209.444 89,215 C89,220.293 89.337,222 90.383,222 C91.144,222 92.002,222.9 92.29,224 C92.577,225.1 93.53,226 94.406,226 C95.283,226 96,226.675 96,227.5 C96,228.722 97.667,229 105,229 C113.333,229 114,229.148 114,231 C114,232.619 113.333,233 110.5,233 C108.056,233 107,233.452 107,234.5 C107,235.652 105.722,236 101.5,236 C97.278,236 96,235.652 96,234.5 C96,233.445 94.934,233 92.406,233 C89.654,233 88.69,232.532 88.29,231 C88.002,229.9 87.144,229 86.383,229 C85.623,229 85,228.325 85,227.5 C85,226.675 84.381,226 83.625,226 C82.254,226 81,221.88 81,217.375 C81,215.931 80.412,215 79.5,215 C78.417,215 78,213.889 78,211 C78,208.111 78.417,207 79.5,207 C80.325,207 81,206.325 81,205.5 C81,204.675 81.848,204 82.883,204 C83.926,204 85,203.107 85.29,202 C85.726,200.33 86.654,200 90.906,200 C94.767,200 96,199.637 96,198.5 Z"/>
</svg>

