<svg xmlns="http://www.w3.org/2000/svg" width="300" height="300" viewBox="0 0 300 300" version="1.1">
  <defs/>
  <path d="M170,54.5 C170,53.417 171.111,53 174,53 C177.905,53 178,53.083 178,56.5 C178,58.813 178.469,60 179.383,60 C180.144,60 181.002,60.9 181.29,62 C181.577,63.1 182.53,64 183.406,64 C184.561,64 185,64.964 185,67.5 C185,69.944 185.452,71 186.5,71 C187.325,71 188,71.675 188,72.5 C188,73.333 188.889,74 190,74 C191.333,74 192,74.667 192,76 C192,77.758 192.667,78 197.5,78 L203,78 L203,81.929 C203,88.432 201.71,89 186.929,89 C174.667,89 174,89.103 174,91 C174,92.1 173.388,93 172.639,93 C171.286,93 170.028,99.574 170.009,106.75 C170.003,108.968 169.524,110 168.5,110 C167.278,110 167,111.667 167,119 C167,125.97 166.69,128 165.625,128 C164.052,128 163,132.259 163,138.625 C163,141.67 162.582,143 161.625,143 C160.028,143 158.853,147.723 159.671,150.851 C160.306,153.279 163,153.804 163,151.5 C163,150.312 164.431,150 169.883,150 C175.926,150 176.831,149.756 177.29,148 C177.751,146.237 178.654,146 184.906,146 C190.545,146 192,145.692 192,144.5 C192,143.452 193.056,143 195.5,143 L199,143 L199,152 C199,159.333 198.722,161 197.5,161 C196.452,161 196,162.056 196,164.5 C196,167.333 195.619,168 194,168 C192.273,168 192,168.667 192,172.883 C192,176.926 191.656,177.857 190,178.29 C188.468,178.69 188,179.654 188,182.406 C188,184.806 187.539,186 186.611,186 C185.816,186 184.942,187.495 184.566,189.5 C184.173,191.595 183.325,193 182.455,193 C181.459,193 181,194.104 181,196.5 C181,198.944 180.548,200 179.5,200 C178.456,200 178,201.051 178,203.455 C178,206.611 178.302,206.966 181.5,207.566 C183.425,207.927 185,208.789 185,209.481 C185,210.237 186.857,210.949 189.651,211.264 C192.449,211.58 194.66,212.428 195.201,213.394 C195.837,214.531 197.544,215 201.05,215 C204.783,215 206,215.369 206,216.5 C206,217.605 207.153,218 210.375,218 C216.741,218 221,219.052 221,220.625 C221,221.661 222.727,222 228,222 C233.362,222 235,222.33 235,223.412 C235,224.28 236.541,225.085 239,225.5 C241.459,225.915 243,226.72 243,227.588 C243,228.535 244.152,229 246.5,229 C248.896,229 250,229.459 250,230.455 C250,231.325 251.405,232.173 253.5,232.566 C256.033,233.041 257,233.745 257,235.111 C257,236.15 257.675,237 258.5,237 C259.325,237 260,237.675 260,238.5 C260,239.325 259.377,240 258.617,240 C257.856,240 256.998,240.9 256.71,242 C256.423,243.1 255.653,244 255,244 C254.347,244 253.577,243.1 253.29,242 C252.897,240.497 251.926,240 249.383,240 C246.667,240 246,239.606 246,238 C246,236.381 245.333,236 242.5,236 C240.187,236 239,235.531 239,234.616 C239,233.621 237.15,233.115 232.4,232.813 C227.538,232.503 225.549,231.945 224.85,230.696 C224.099,229.355 222.446,229 216.95,229 C211.439,229 210,228.689 210,227.5 C210,226.395 208.847,226 205.625,226 C198.865,226 195.062,225.002 195.681,223.39 C196.105,222.284 194.763,222 189.107,222 C183.456,222 182,221.693 182,220.5 C182,219.614 181.079,218.996 179.75,218.991 C178.512,218.987 175.137,218.699 172.25,218.352 C167.356,217.764 167,217.867 167,219.861 C167,221.333 166.377,222 165,222 C163.667,222 163,222.667 163,224 C163,225.1 162.361,226 161.579,226 C160.798,226 159.862,227.35 159.5,229 C159.138,230.65 158.202,232 157.421,232 C156.639,232 156,232.848 156,233.883 C156,234.926 155.107,236 154,236.29 C152.9,236.577 152,237.53 152,238.406 C152,239.283 151.325,240 150.5,240 C149.675,240 149,240.717 149,241.594 C149,242.47 148.1,243.423 147,243.71 C145.9,243.998 145,244.803 145,245.5 C145,246.688 142.068,247.956 139.25,247.986 C138.456,247.995 138,246.541 138,244 C138,240.667 138.333,240 140,240 C141.111,240 142,239.333 142,238.5 C142,237.675 142.675,237 143.5,237 C144.333,237 145,236.111 145,235 C145,233.667 145.667,233 147,233 C148.333,233 149,232.333 149,231 C149,229.9 149.623,229 150.383,229 C151.144,229 152.002,228.1 152.29,227 C152.577,225.9 153.53,225 154.406,225 C155.561,225 156,224.036 156,221.5 C156,218.667 156.381,218 158,218 C159.111,218 160,217.333 160,216.5 C160,215.675 160.675,215 161.5,215 C162.333,215 163,214.111 163,213 C163,211.667 162.333,211 161,211 C159.889,211 159,210.333 159,209.5 C159,208.49 157.99,208 155.906,208 C153.654,208 152.671,207.456 152.29,206 C151.897,204.497 150.926,204 148.383,204 C145.667,204 145,203.606 145,202 C145,200.889 144.333,200 143.5,200 C142.675,200 142,199.325 142,198.5 C142,197.667 141.111,197 140,197 C138.667,197 138,196.333 138,195 C138,193.889 137.333,193 136.5,193 C135.675,193 135,192.325 135,191.5 C135,190.675 135.675,190 136.5,190 C137.333,190 138,189.111 138,188 C138,186.381 138.667,186 141.5,186 C143.82,186 145,186.468 145,187.389 C145,188.184 146.495,189.058 148.5,189.434 C150.595,189.827 152,190.675 152,191.545 C152,192.345 152.9,193 154,193 C155.333,193 156,193.667 156,195 C156,196.619 156.667,197 159.5,197 C161.944,197 163,197.452 163,198.5 C163,199.548 164.056,200 166.5,200 C169.746,200 170,199.775 170,196.906 C170,194.654 170.544,193.671 172,193.29 C173.503,192.897 174,191.926 174,189.383 C174,187.163 174.477,186 175.389,186 C176.184,186 177.058,184.505 177.434,182.5 C177.827,180.405 178.675,179 179.545,179 C180.537,179 181,177.902 181,175.55 C181,173.397 181.614,171.756 182.634,171.185 C183.69,170.594 184.442,168.456 184.761,165.135 C185.092,161.688 185.706,160 186.627,160 C188.838,160 188.204,158.288 185.75,157.63 C181.331,156.446 174,156.916 174,158.383 C174,159.959 171,160.966 166.25,160.986 C164.034,160.996 163,161.477 163,162.5 C163,163.466 162.022,164.005 160.25,164.014 C155.968,164.035 153,165.101 153,166.617 C153,167.627 151.516,168 147.5,168 C142.667,168 142,168.242 142,170 C142,172.09 141.007,172.376 137.25,171.37 C135.479,170.895 135,170.047 135,167.383 C135,165.043 135.462,164 136.5,164 C137.325,164 138,163.375 138,162.611 C138,161.822 139.478,160.945 141.428,160.58 C144.196,160.06 144.98,159.366 145.507,156.968 C145.866,155.336 146.798,154 147.579,154 C148.536,154 149,152.857 149,150.5 C149,148.056 149.452,147 150.5,147 C151.555,147 152,145.934 152,143.406 C152,140.654 152.468,139.69 154,139.29 C155.756,138.831 156,137.926 156,131.883 C156,126.753 156.346,125 157.358,125 C158.965,125 160,116.915 160,104.353 C160,97.595 160.286,96 161.5,96 C163.854,96 163.253,93.301 160.75,92.63 C156.117,91.389 152.834,91.92 152.29,94 C152.002,95.1 151.144,96 150.383,96 C149.623,96 149,96.9 149,98 C149,99.111 148.333,100 147.5,100 C146.675,100 146,100.675 146,101.5 C146,102.333 145.111,103 144,103 C142.242,103 142,102.333 142,97.5 C142,93.386 142.362,92 143.437,92 C144.327,92 144.993,90.763 145.187,88.75 C145.462,85.892 145.892,85.462 148.75,85.187 C150.763,84.993 152,84.327 152,83.437 C152,82.591 152.977,82 154.375,82 C155.681,82 158.156,81.719 159.875,81.375 L163,80.75 L163,73.875 C163,68.688 163.34,67 164.383,67 C165.959,67 166.966,64 166.986,59.25 C166.996,57.034 167.477,56 168.5,56 C169.325,56 170,55.325 170,54.5 Z M81,65.5 C81,64.675 81.675,64 82.5,64 C83.325,64 84,64.675 84,65.5 C84,66.333 84.889,67 86,67 C87.593,67 87.997,67.662 87.986,70.25 C87.966,75 86.959,78 85.383,78 C84.29,78 84,80.286 84,88.896 L84,99.791 L89.75,99.532 C92.912,99.39 97.862,99.212 100.75,99.137 C104.689,99.034 106,98.625 106,97.5 C106,96.262 107.833,96 116.5,96 L127,96 L127,100 C127,102.889 126.583,104 125.5,104 C124.675,104 124,104.675 124,105.5 C124,106.764 121.722,107 109.5,107 C97.278,107 95,107.236 95,108.5 C95,109.523 93.966,110.004 91.75,110.014 C84.914,110.042 84,110.762 84,116.117 L84,121 L87.531,121 C89.748,121 91.277,121.559 91.638,122.5 C91.955,123.325 92.841,124 93.607,124 C94.566,124 95,125.248 95,128 C95,131.333 94.667,132 93,132 C91.889,132 91,131.333 91,130.5 C91,128.405 88.321,128.616 87.835,130.75 C87.616,131.713 87.604,137.071 87.809,142.657 C88.138,151.638 88.403,152.872 90.091,153.313 C91.141,153.588 92,154.53 92,155.406 C92,156.475 92.906,157.004 94.75,157.014 C99.032,157.035 102,158.101 102,159.617 C102,160.711 104.301,161 113,161 C122.111,161 124,161.258 124,162.5 C124,163.325 124.675,164 125.5,164 C126.333,164 127,164.889 127,166 C127,167.927 126.333,168 108.845,168 L90.69,168 L91.302,183.664 C91.731,194.662 92.291,199.562 93.18,200.111 C94.027,200.635 94.574,204.375 94.836,211.437 C95.286,223.61 94.556,229 92.455,229 C91.655,229 91,229.623 91,230.383 C91,231.669 88.16,232.955 85.25,232.986 C84.281,232.997 84,226.941 84,206 C84,183.926 83.752,179 82.642,179 C80.975,179 80,170.828 80,156.853 C80,148.761 79.732,147 78.5,147 C77.675,147 77,147.675 77,148.5 C77,149.325 76.345,150 75.545,150 C74.675,150 73.827,151.405 73.434,153.5 C73.073,155.425 72.203,157 71.5,157 C70.797,157 69.927,158.575 69.566,160.5 C69.173,162.595 68.325,164 67.455,164 C66.468,164 66,165.089 66,167.383 C66,169.926 65.503,170.897 64,171.29 C62.544,171.671 62,172.654 62,174.906 C62,176.99 61.51,178 60.5,178 C59.644,178 59,178.899 59,180.094 C59,181.346 58.197,182.397 57,182.71 C55.497,183.103 55,184.074 55,186.617 C55,188.957 54.538,190 53.5,190 C52.49,190 52,191.01 52,193.094 C52,195.346 51.456,196.329 50,196.71 C48.9,196.998 48,197.856 48,198.617 C48,199.377 47.1,200 46,200 C44.889,200 44,199.333 44,198.5 C44,197.675 43.325,197 42.5,197 C41.667,197 41,196.111 41,195 C41,193.889 41.667,193 42.5,193 C43.548,193 44,191.944 44,189.5 C44,186.667 44.381,186 46,186 C47.619,186 48,185.333 48,182.5 C48,180.056 48.452,179 49.5,179 C50.325,179 51,178.283 51,177.406 C51,176.53 51.846,175.592 52.88,175.321 C54.265,174.959 54.894,173.628 55.274,170.264 C55.581,167.537 56.435,165.336 57.394,164.799 C58.277,164.305 59,163.023 59,161.95 C59,160.878 59.675,160 60.5,160 C61.51,160 62,158.99 62,156.906 C62,154.654 62.544,153.671 64,153.29 C65.503,152.897 66,151.926 66,149.383 C66,147.078 66.467,146 67.466,146 C68.469,146 69.14,144.424 69.594,141 C70.025,137.754 70.739,136 71.629,136 C72.562,136 73,134.722 73,132 C73,129.261 73.436,128 74.383,128 C76.287,128 76.985,124.673 76.299,118.878 C75.736,114.123 75.637,114 72.361,114 C69.667,114 69,114.397 69,116 C69,117.518 68.338,117.997 66.25,117.986 C59.95,117.955 59,117.155 59,111.883 C59,108.082 59.353,107 60.594,107 C61.47,107 62.423,106.1 62.71,105 C63.143,103.344 64.074,103 68.117,103 L73,103 L73,88.969 C73,77.534 73.273,74.833 74.473,74.372 C75.283,74.061 76.233,72.275 76.584,70.403 C77.043,67.959 77.755,67 79.111,67 C80.15,67 81,66.325 81,65.5 Z M178,69.5 C178,70.333 177.111,71 176,71 C174.267,71 174,71.667 174,76 L174,81 L185,81 L185,77.5 C185,74.667 184.619,74 183,74 C181.444,74 181,73.333 181,71 Q181,68 179.5,68 C178.675,68 178,68.675 178,69.5 Z"/>
</svg>

