<svg xmlns="http://www.w3.org/2000/svg" width="300" height="300" viewBox="0 0 300 300" version="1.1">
  <defs/>
  <path d="M138,82 C138,80.381 138.667,80 141.5,80 C142.832,80 143.716,79.994 144.286,80.413 C145.414,81.244 145.314,83.741 145.04,91.25 L144.793,98 L149.272,98 C155.735,98 160,99.044 160,100.625 C160,101.69 162.03,102 169,102 C177.333,102 178,102.148 178,104 C178,105.111 178.667,106 179.5,106 C180.325,106 181,106.675 181,107.5 C181,108.325 180.325,109 179.5,109 C178.667,109 178,109.889 178,111 C178,112.667 177.333,113 174,113 C171.261,113 170,112.564 170,111.617 C170,109.601 166.757,109.029 155.25,109.014 L145,109 L145,133.941 C145,147.659 145.338,159.021 145.75,159.191 C146.162,159.361 155.162,159.36 165.75,159.189 L185,158.879 L184.986,149.189 C184.971,138.231 184.378,135 182.383,135 C181.436,135 181,133.739 181,131 C181,128.166 181.424,127 182.455,127 C183.325,127 184.173,125.595 184.566,123.5 C185.163,120.318 185.53,120 188.611,120 L192,120 L192,127.5 C192,133.271 192.324,135 193.404,135 C194.474,135 194.977,137.493 195.523,145.5 L196.239,156 L204.503,156 C211.926,156 212.82,155.796 213.29,154 C213.744,152.263 214.648,152.002 220.156,152.014 C229.343,152.033 231,152.661 231,156.117 C231,158.013 230.487,159 229.5,159 C228.667,159 228,159.889 228,161 C228,162.163 227.333,163 226.406,163 C225.53,163 224.577,163.9 224.29,165 C223.802,166.864 222.926,167 211.383,167 L199,167 L199.005,186.25 C199.011,213.259 199.946,228 201.653,228 C202.756,228 203,234.138 203,261.875 L203,295.75 L199.84,296.382 C198.102,296.73 196.415,296.749 196.09,296.425 C195.766,296.101 195.344,289.573 195.154,281.918 C194.878,270.8 194.526,268 193.404,268 C192.369,268 192,266.555 192,262.5 C192,258.278 192.348,257 193.5,257 C194.728,257 195,255.278 195,247.5 C195,239.722 194.728,238 193.5,238 C192.218,238 192,235.167 192,218.5 C192,201.833 191.782,199 190.5,199 C189.265,199 188.97,197.009 188.832,187.75 C188.676,177.224 188.596,175.007 188.168,169.25 C188.016,167.21 187.487,167 182.5,167 C178.278,167 177,167.348 177,168.5 C177,169.756 174.903,170 164.125,170 C149.596,170 145,170.631 145,172.625 C145,173.53 143.803,174 141.5,174 C139.056,174 138,173.548 138,172.5 C138,171.675 137.438,170.994 136.75,170.986 C136.063,170.979 134.488,170.701 133.25,170.37 C131.061,169.783 131,169.973 131,177.383 C131,183.487 130.702,185 129.5,185 C128.247,185 128,187.056 128,197.5 C128,207.944 128.247,210 129.5,210 C130.548,210 131,211.056 131,213.5 C131,216.833 131.167,217 134.5,217 C137.333,217 138,217.381 138,219 C138,220.111 137.333,221 136.5,221 C135.675,221 135,221.675 135,222.5 C135,223.583 133.889,224 131,224 C128.111,224 127,223.583 127,222.5 C127,221.675 126.345,221 125.545,221 C124.675,221 123.827,219.595 123.434,217.5 C123.058,215.495 122.184,214 121.389,214 C120.25,214 120,210.399 120,194 L120,174 L109,174 C100.041,174 98,174.27 98,175.455 C98,176.325 96.595,177.173 94.5,177.566 C92.495,177.942 91,178.816 91,179.611 C91,180.609 89.606,181 86.045,181 C81.175,181 81.08,180.941 80.434,177.5 C80.073,175.575 80.061,172.486 80.409,170.635 C81.036,167.29 81.077,167.268 87.646,166.74 C91.549,166.427 94.588,165.667 95.073,164.882 C95.644,163.958 99.103,163.436 106.447,163.164 L117,162.773 L117,159.387 C117,157.043 117.462,156 118.5,156 C119.722,156 120,154.333 120,147 L120,138 L125.5,138 C130.333,138 131,138.242 131,140 C131,141.333 131.667,142 133,142 C134.111,142 135,142.667 135,143.5 C135,144.325 135.675,145 136.5,145 C137.722,145 138,143.333 138,136 C138,128.667 137.722,127 136.5,127 C135.362,127 134.955,125.612 134.813,121.25 C134.593,114.453 134.386,110.158 134.162,107.75 C133.965,105.621 131,105.387 131,107.5 C131,108.652 129.722,109 125.5,109 L120,109 L120,105.5 C120,103.187 120.469,102 121.383,102 C122.144,102 123.002,101.1 123.29,100 C123.726,98.33 124.654,98 128.906,98 L134,98 L134,91 C134,84.667 134.19,84 136,84 C137.333,84 138,83.333 138,82 Z M148,6.5 C148,5.667 148.889,5 150,5 C151.163,5 152,5.667 152,6.594 C152,7.47 152.9,8.423 154,8.71 C156.509,9.366 156.964,16 154.5,16 C153.534,16 152.995,16.978 152.986,18.75 C152.965,23.032 151.899,26 150.383,26 C149.436,26 149,27.261 149,30 C149,32.739 148.564,34 147.617,34 C146.309,34 145.044,36.853 145.014,39.869 C144.995,41.745 184.133,41.101 184.762,39.214 C185.372,37.384 192,37.646 192,39.5 C192,40.333 192.889,41 194,41 C195.619,41 196,41.667 196,44.5 L196,48 L142,48 L142,51.5 C142,54.746 142.225,55 145.094,55 C147.346,55 148.329,55.544 148.71,57 C149,58.107 150.074,59 151.117,59 C152.152,59 153,59.675 153,60.5 C153,61.51 154.01,62 156.094,62 C158.346,62 159.329,62.544 159.71,64 C160.143,65.656 161.074,66 165.117,66 C168.656,66 170,66.389 170,67.412 C170,68.28 171.541,69.085 174,69.5 C176.235,69.878 178,70.741 178,71.458 C178,72.242 179.807,72.944 182.651,73.264 C185.449,73.58 187.66,74.428 188.201,75.394 C188.837,76.531 190.544,77 194.05,77 C197.783,77 199,77.369 199,78.5 C199,79.605 200.153,80 203.375,80 C209.741,80 214,81.052 214,82.625 C214,83.608 215.424,84 219,84 C222.639,84 224,84.384 224,85.412 C224,86.28 225.541,87.085 228,87.5 C230.459,87.915 232,88.72 232,89.588 C232,90.365 232.717,91 233.594,91 C234.47,91 235.423,91.9 235.71,93 C235.998,94.1 236.631,95 237.117,95 C239.143,95 237.8,97.833 235.5,98.411 C232.169,99.247 228,98.124 228,96.392 C228,95.472 226.831,95 224.55,95 C222.345,95 220.757,94.388 220.15,93.304 C219.451,92.055 217.462,91.497 212.6,91.187 C207.85,90.885 206,90.379 206,89.384 C206,88.337 204.294,88 199,88 C192.667,88 192,87.81 192,86 C192,84.194 191.333,84 185.117,84 C179.074,84 178.169,83.756 177.71,82 C177.31,80.468 176.346,80 173.594,80 C171.066,80 170,79.555 170,78.5 C170,77.371 168.791,77 165.117,77 C161.074,77 160.143,76.656 159.71,75 C159.31,73.468 158.346,73 155.594,73 C153.066,73 152,72.555 152,71.5 C152,70.452 150.944,70 148.5,70 C145.667,70 145,69.619 145,68 C145,66.381 144.333,66 141.5,66 C139.056,66 138,65.548 138,64.5 C138,63.452 136.944,63 134.5,63 C131.167,63 131,63.167 131,66.5 C131,69.333 130.619,70 129,70 C127.381,70 127,70.667 127,73.5 C127,75.813 126.531,77 125.617,77 C124.856,77 123.998,77.9 123.71,79 C123.423,80.1 122.47,81 121.594,81 C120.49,81 120,81.922 120,84 C120,86.078 119.51,87 118.406,87 C117.53,87 116.577,87.9 116.29,89 C116.002,90.1 115.144,91 114.383,91 C113.623,91 113,91.9 113,93 C113,94.1 112.345,95 111.545,95 C110.675,95 109.827,96.405 109.434,98.5 C109.058,100.505 108.184,102 107.389,102 C106.625,102 106,102.717 106,103.594 C106,104.47 105.1,105.423 104,105.71 C102.9,105.998 102,106.856 102,107.617 C102,108.377 101.325,109 100.5,109 C99.675,109 99,109.717 99,110.594 C99,111.47 98.1,112.423 97,112.71 C95.497,113.103 95,114.074 95,116.617 C95,119.333 94.606,120 93,120 C91.9,120 91,120.623 91,121.383 C91,122.144 90.1,123.002 89,123.29 C87.9,123.577 87,124.53 87,125.406 C87,126.283 86.325,127 85.5,127 C84.667,127 84,127.889 84,129 C84,130.333 83.333,131 82,131 C80.889,131 80,131.667 80,132.5 C80,133.325 79.325,134 78.5,134 C77.667,134 77,134.889 77,136 C77,137.333 76.333,138 75,138 C73.9,138 73,138.623 73,139.383 C73,140.669 70.16,141.955 67.25,141.986 C66.4,141.996 66,140.241 66,136.5 L66,131 L69.5,131 C72.333,131 73,130.619 73,129 C73,127.667 73.667,127 75,127 C76.333,127 77,126.333 77,125 C77,123.889 77.667,123 78.5,123 C79.325,123 80,122.325 80,121.5 C80,120.667 80.889,120 82,120 C83.333,120 84,119.333 84,118 C84,116.9 84.639,116 85.421,116 C86.202,116 87.138,114.65 87.5,113 C87.862,111.35 88.798,110 89.579,110 C90.361,110 91,109.152 91,108.117 C91,107.074 91.893,106 93,105.71 C94.1,105.423 95,104.47 95,103.594 C95,102.717 95.625,102 96.389,102 C97.184,102 98.058,100.505 98.434,98.5 C98.827,96.405 99.675,95 100.545,95 C101.345,95 102,94.1 102,93 C102,91.667 102.667,91 104,91 C105.333,91 106,90.333 106,89 C106,87.889 106.667,87 107.5,87 C108.325,87 109,86.325 109,85.5 C109,84.667 109.889,84 111,84 C112.619,84 113,83.333 113,80.5 C113,78.18 113.468,77 114.389,77 C115.184,77 116.058,75.505 116.434,73.5 C116.827,71.405 117.675,70 118.545,70 C119.541,70 120,68.896 120,66.5 C120,64.175 120.468,63 121.393,63 C123.005,63 124,60.87 124,57.418 C124,55.935 124.58,55 125.5,55 C126.325,55 127,54.325 127,53.5 C127,52.284 125.389,52 118.5,52 C111.611,52 110,52.284 110,53.5 C110,54.7 108.5,55 102.5,55 C96.5,55 95,54.7 95,53.5 C95,52.675 95.675,52 96.5,52 C97.333,52 98,51.111 98,50 C98,48.667 98.667,48 100,48 C101.1,48 102,47.381 102,46.625 C102,44.85 106.411,44 115.625,44 C121.514,44 123,43.698 123,42.5 C123,41.345 124.288,41 128.594,41 C133.346,41 134.266,40.699 134.71,39 C134.998,37.9 135.856,37 136.617,37 C137.627,37 138,35.516 138,31.5 C138,27.381 138.361,26 139.439,26 C140.489,26 141.066,24.105 141.569,19 C142.054,14.073 142.664,12 143.629,12 C144.383,12 145,11.1 145,10 C145,8.889 145.667,8 146.5,8 C147.325,8 148,7.325 148,6.5 Z M131,152.5 C131,154.944 130.548,156 129.5,156 C127.509,156 127.572,158.622 129.582,159.393 C130.452,159.727 132.702,160 134.582,160 L138,160 L138,149 L134.5,149 C131.167,149 131,149.167 131,152.5 Z"/>
</svg>

