<svg xmlns="http://www.w3.org/2000/svg" width="300" height="300" viewBox="0 0 300 300" version="1.1">
  <defs/>
  <path d="M167,11.5 C167,10.675 167.675,10 168.5,10 C169.325,10 170,10.675 170,11.5 C170,12.333 170.889,13 172,13 C173.619,13 174,13.667 174,16.5 C174,19.036 173.561,20 172.406,20 C171.53,20 170.577,20.9 170.29,22 C170.002,23.1 169.144,24 168.383,24 C167.623,24 167,24.966 167,26.147 C167,28.212 167.292,28.269 174.651,27.647 C178.859,27.291 183.809,27 185.651,27 C187.961,27 189,26.535 189,25.5 C189,24.371 190.211,24 193.899,24 L198.799,24 L199.23,28.75 C199.467,31.363 199.486,33.837 199.272,34.25 C199.057,34.663 192.609,35 184.941,35 C173.712,35 171,35.27 171,36.389 C171,37.181 169.514,38.056 167.538,38.427 C164.564,38.985 163.985,39.564 163.427,42.538 C163.07,44.442 162.203,46 161.5,46 C160.797,46 159.927,47.575 159.566,49.5 C159.173,51.595 158.325,53 157.455,53 C156.655,53 156,53.9 156,55 C156,56.619 156.667,57 159.5,57 C161.944,57 163,57.452 163,58.5 C163,59.333 163.889,60 165,60 C166.1,60 167,60.623 167,61.383 C167,62.144 167.9,63.002 169,63.29 C170.1,63.577 171,64.53 171,65.406 C171,66.283 171.675,67 172.5,67 C173.325,67 174,67.655 174,68.455 C174,69.325 175.405,70.173 177.5,70.566 C179.425,70.927 181,71.797 181,72.5 C181,73.203 182.575,74.073 184.5,74.434 C186.595,74.827 188,75.675 188,76.545 C188,77.345 188.9,78 190,78 C191.1,78 192,78.625 192,79.389 C192,80.184 193.495,81.058 195.5,81.434 C197.437,81.797 199,82.69 199,83.434 C199,84.173 200.542,85.067 202.428,85.42 C205.196,85.94 205.98,86.634 206.507,89.032 C206.866,90.664 207.798,92 208.579,92 C209.635,92 210,93.415 210,97.5 L210,103 L235,103 L235,107 C235,109.889 234.583,111 233.5,111 C232.49,111 232,112.01 232,114.094 C232,116.346 231.456,117.329 230,117.71 C228.9,117.998 228,118.856 228,119.617 C228,120.456 226.918,121.005 225.25,121.014 C220.968,121.035 218,122.101 218,123.617 C218,124.377 217.1,125 216,125 C214.188,125 214,125.667 214,132.094 C214,138.346 213.763,139.249 212,139.71 C210.023,140.227 210,141.074 210,213.617 C210,286.333 209.982,287 208,287 C206.889,287 206,287.667 206,288.5 C206,289.722 204.333,290 197,290 C189.987,290 188,289.693 188,288.611 C188,287.822 186.522,286.945 184.573,286.58 C182.688,286.226 180.986,285.457 180.79,284.87 C180.594,284.283 178.312,283.564 175.717,283.272 C172.824,282.945 171,282.244 171,281.458 C171,280.741 169.235,279.878 167,279.5 C164.541,279.085 163,278.28 163,277.412 C163,276.465 161.848,276 159.5,276 C156.667,276 156,275.619 156,274 C156,272.381 155.333,272 152.5,272 C150.056,272 149,271.548 149,270.5 C149,269.667 148.111,269 147,269 C145.667,269 145,268.333 145,267 C145,265.889 144.333,265 143.5,265 C142.675,265 142,264.325 142,263.5 C142,262.667 141.111,262 140,262 C138.667,262 138,261.333 138,260 C138,258.667 137.333,258 136,258 C134.667,258 134,257.333 134,256 C134,254.889 133.333,254 132.5,254 C131.49,254 131,252.99 131,250.906 C131,248.654 130.456,247.671 129,247.29 C127.893,247 127,245.926 127,244.883 C127,243.848 126.325,243 125.5,243 Q124,243 124,240 Q124,237 125.5,237 Q127,237 127,240 C127,242.333 127.444,243 129,243 C130.333,243 131,243.667 131,245 C131,246.111 131.667,247 132.5,247 C133.325,247 134,247.717 134,248.594 C134,249.47 134.9,250.423 136,250.71 C137.1,250.998 138,251.803 138,252.5 C138,253.197 138.9,254.002 140,254.29 C141.1,254.577 142,255.53 142,256.406 C142,257.283 142.675,258 143.5,258 C144.325,258 145,258.625 145,259.389 C145,260.184 146.495,261.058 148.5,261.434 C150.595,261.827 152,262.675 152,263.545 C152,264.532 153.089,265 155.383,265 C157.926,265 158.897,265.497 159.29,267 C159.671,268.456 160.654,269 162.906,269 C164.904,269 166,269.5 166,270.412 C166,271.28 167.541,272.085 170,272.5 C172.459,272.915 174,273.72 174,274.588 C174,275.633 175.43,276 179.5,276 C183.5,276 185,276.375 185,277.375 C185,278.912 189.234,280 195.219,280 C198.346,280 199.298,279.576 199.71,278 C199.998,276.9 200.862,276 201.63,276 C202.814,276 203.016,264.83 202.955,202.75 C202.916,162.462 202.636,128.488 202.333,127.25 C202.031,126.013 201.157,125 200.392,125 C199.435,125 199,123.75 199,121 C199,118.111 199.417,117 200.5,117 C201.325,117 202.006,116.662 202.014,116.25 C202.021,115.838 202.299,114.487 202.63,113.25 C203.217,111.061 203.027,111 195.617,111 C189.513,111 188,111.298 188,112.5 C188,113.69 186.556,114 181,114 C175.444,114 174,113.69 174,112.5 C174,111.348 172.722,111 168.5,111 C164.278,111 163,111.348 163,112.5 C163,113.737 161.18,114 152.617,114 C143.074,114 142.191,114.162 141.71,116 C141.274,117.67 140.346,118 136.094,118 C132.233,118 131,118.363 131,119.5 C131,120.548 129.944,121 127.5,121 C124.632,121 124,121.372 124,123.06 C124,124.83 123.47,125.077 120.25,124.81 C116.674,124.514 116.515,124.349 116.814,121.25 L117.128,118 L109.564,118 C103.731,118 102,118.322 102,119.406 C102,120.499 99.753,120.889 91.928,121.156 C83.604,121.44 81.687,121.804 80.879,123.25 C80.341,124.213 79.248,125 78.45,125 C77.653,125 77,125.675 77,126.5 C77,127.652 75.722,128 71.5,128 L66,128 L66,123 C66,119.092 66.348,118 67.594,118 C68.47,118 69.423,117.1 69.71,116 C70.184,114.189 71.074,114 79.117,114 C85.942,114 88,113.685 88,112.639 C88,110.845 95.14,110.02 110.75,110.009 C120.968,110.001 123,109.751 123,108.5 C123,107.667 123.889,107 125,107 C126.667,107 127,106.333 127,103 C127,100.261 127.436,99 128.383,99 C129.899,99 130.965,96.032 130.986,91.75 C130.995,90.077 131.544,89 132.389,89 C133.184,89 134.058,87.505 134.434,85.5 C134.827,83.405 135.675,82 136.545,82 C137.541,82 138,80.896 138,78.5 C138,76.152 138.465,75 139.412,75 C140.28,75 141.085,73.459 141.5,71 C141.915,68.541 142.72,67 143.588,67 C144.619,67 145,65.626 145,61.906 C145,57.654 145.33,56.726 147,56.29 C148.503,55.897 149,54.926 149,52.383 C149,50.043 149.462,49 150.5,49 C151.548,49 152,47.944 152,45.5 L152,42 L147.117,42 C143.074,42 142.143,42.344 141.71,44 C141.31,45.532 140.346,46 137.594,46 C134.601,46 134,46.354 134,48.117 C134,49.824 133.565,50.117 131.75,49.63 C130.512,49.299 128.262,49.021 126.75,49.014 C124.276,49.001 124,48.648 124,45.5 C124,43.056 124.452,42 125.5,42 C126.333,42 127,41.111 127,40 C127,38.381 127.667,38 130.5,38 C132.944,38 134,37.548 134,36.5 C134,35.308 135.455,35 141.094,35 C147.346,35 148.249,34.763 148.71,33 C149.103,31.497 150.074,31 152.617,31 C155.817,31 156,30.81 156,27.5 C156,25.104 156.459,24 157.455,24 C158.325,24 159.173,22.595 159.566,20.5 C159.942,18.495 160.816,17 161.611,17 C162.375,17 163,16.1 163,15 C163,13.667 163.667,13 165,13 C166.111,13 167,12.333 167,11.5 Z M131,159 L131,132 L136.5,132 C140.5,132 142,132.375 142,133.375 C142,134.904 146.228,136 152.125,136 C154.903,136 156,136.425 156,137.5 C156,138.69 154.556,139 149,139 C142.667,139 142,139.19 142,141 C142,142.333 141.333,143 140,143 C138.267,143 138,143.667 138,148 C138,152.333 138.267,153 140,153 C141.111,153 142,152.333 142,151.5 C142,150.452 143.056,150 145.5,150 C147.813,150 149,149.531 149,148.617 C149,146.897 152.077,146.031 158.25,146.014 C161.799,146.003 163,145.621 163,144.5 C163,143.348 164.278,143 168.5,143 C172.526,143 174,143.372 174,144.389 C174,145.184 175.495,146.058 177.5,146.434 L181,147.091 L181,153.545 C181,158.616 180.678,160 179.5,160 C178.644,160 178,160.899 178,162.094 C178,163.346 177.197,164.397 176,164.71 C174.497,165.103 174,166.074 174,168.617 C174,170.957 173.538,172 172.5,172 C171.675,172 171,172.675 171,173.5 Q171,175 174,175 C175.917,175 177,174.49 177,173.588 C177,172.72 178.541,171.915 181,171.5 C183.459,171.085 185,170.28 185,169.412 C185,168.384 186.361,168 190,168 C193.778,168 195,168.367 195,169.5 C195,170.325 194.325,171 193.5,171 C192.667,171 192,171.889 192,173 C192,174.619 191.333,175 188.5,175 C185.667,175 185,175.381 185,177 C185,178.667 184.333,179 181,179 C178.111,179 177,179.417 177,180.5 C177,181.51 175.99,182 173.906,182 C171.654,182 170.671,182.544 170.29,184 C169.857,185.656 168.926,186 164.883,186 C160.667,186 160,186.273 160,188 C160,189.333 159.333,190 158,190 C156.889,190 156,190.667 156,191.5 C156,192.538 154.957,193 152.617,193 C150.074,193 149.103,193.497 148.71,195 C148.249,196.763 147.346,197 141.094,197 L134,197 L134,191.5 C134,187.278 133.652,186 132.5,186 C131.204,186 131,182.333 131,159 Z M152.667,63.667 C152.3,64.033 152,65.608 152,67.167 C152,69.019 151.48,70 150.5,70 C149.417,70 149,71.111 149,74 C149,77.333 148.667,78 147,78 C145.381,78 145,78.667 145,81.5 C145,83.944 144.548,85 143.5,85 C142.588,85 142,85.931 142,87.375 C142,91.88 140.746,96 139.375,96 C138.619,96 138,96.9 138,98 C138,99.1 137.377,100 136.617,100 C135.25,100 133.746,104.78 134.651,106.244 C135.842,108.171 145,106.524 145,104.383 C145,103.237 149.976,103 174,103 L203,103 L203,99.5 C203,97.187 202.531,96 201.617,96 C200.856,96 199.998,95.1 199.71,94 C199.31,92.468 198.346,92 195.594,92 C193.066,92 192,91.555 192,90.5 C192,89.667 191.111,89 190,89 C188.667,89 188,88.333 188,87 C188,85.381 187.333,85 184.5,85 C182.18,85 181,84.532 181,83.611 C181,82.816 179.505,81.942 177.5,81.566 C175.405,81.173 174,80.325 174,79.455 C174,78.468 172.911,78 170.617,78 C168.074,78 167.103,77.503 166.71,76 C166.423,74.9 165.47,74 164.594,74 C163.717,74 163,73.325 163,72.5 C163,71.675 162.325,71 161.5,71 C160.675,71 160,70.283 160,69.406 C160,68.53 159.1,67.577 158,67.29 C156.893,67 156,65.926 156,64.883 C156,63.051 154.009,62.324 152.667,63.667 Z M156,155.5 C156,156.325 155.283,157 154.406,157 C153.53,157 152.577,157.9 152.29,159 C152,160.107 150.926,161 149.883,161 C148.848,161 148,161.639 148,162.421 C148,163.202 146.65,164.138 145,164.5 L142,165.159 L142,186 L144.883,186 C146.926,186 147.919,185.417 148.29,184 C148.603,182.803 149.654,182 150.906,182 C152.058,182 153,181.361 153,180.579 C153,179.798 154.321,178.869 155.935,178.514 C158.139,178.03 159.03,177.139 159.514,174.935 C159.869,173.321 160.798,172 161.579,172 C162.361,172 163,171.1 163,170 C163,168.667 163.667,168 165,168 C166.333,168 167,167.333 167,166 C167,164.889 167.667,164 168.5,164 C169.633,164 170,162.778 170,159 L170,154 L163,154 C157.444,154 156,154.31 156,155.5 Z M210,118.279 L215.136,117.67 C217.96,117.336 220.457,116.876 220.684,116.649 C220.911,116.422 220.802,115.058 220.44,113.618 C219.844,111.24 219.334,111 214.892,111 L210,111 L210,118.279 Z"/>
</svg>

