<svg xmlns="http://www.w3.org/2000/svg" width="300" height="300" viewBox="0 0 300 300" version="1.1">
  <defs/>
  <path d="M77,49.383 C77,48.373 78.484,48 82.5,48 C86.722,48 88,48.348 88,49.5 C88,50.325 88.675,51 89.5,51 C90.325,51 91,51.88 91,52.955 C91,54.397 90.082,55.082 87.5,55.566 L84,56.223 L84,70 L91.25,69.991 C95.237,69.987 100.862,69.699 103.75,69.352 C108.577,68.772 109.001,68.511 109.014,66.111 C109.035,61.959 110.118,59 111.617,59 C112.377,59 113,58.041 113,56.87 C113,54.934 113.414,54.787 117.549,55.253 C120.052,55.535 122.413,56.08 122.797,56.463 C123.181,56.847 123.418,59.15 123.324,61.581 L123.153,66 L128.451,66 C133.578,66 133.77,66.101 134.371,69.103 C135.074,72.62 134.53,74 132.441,74 C131.648,74 131,74.675 131,75.5 C131,76.652 129.722,77 125.5,77 L120,77 L120,102 C120,122.545 120.245,127 121.375,127 C122.886,127 124.008,131.242 123.986,136.875 C123.967,141.979 122.999,145 121.383,145 C120.329,145 120,146.781 120,152.5 L120,160 L125.5,160 C129.722,160 131,160.348 131,161.5 C131,162.325 131.648,163 132.441,163 C134.694,163 135.261,164.775 134.542,169.571 C134.11,172.45 133.374,174 132.439,174 C131.647,174 131,174.675 131,175.5 C131,176.325 130.283,177 129.406,177 C128.53,177 127.577,177.9 127.29,179 C126.897,180.503 125.926,181 123.383,181 C120.183,181 120,181.19 120,184.5 C120,187.333 119.619,188 118,188 C116.667,188 116,188.667 116,190 C116,191.111 115.333,192 114.5,192 C113.675,192 113,192.675 113,193.5 C113,194.325 112.283,195 111.406,195 C110.53,195 109.577,195.9 109.29,197 C109.002,198.1 108.2,199 107.508,199 C106.167,199 104.634,204.598 105.563,206.103 C105.868,206.596 106.766,207 107.559,207 C108.352,207 109,207.675 109,208.5 C109,209.333 109.889,210 111,210 C112.333,210 113,210.667 113,212 C113,213.111 113.667,214 114.5,214 C115.325,214 116,214.675 116,215.5 C116,216.333 116.889,217 118,217 C119.333,217 120,217.667 120,219 C120,220.619 120.667,221 123.5,221 C125.82,221 127,221.468 127,222.389 C127,223.184 128.495,224.058 130.5,224.434 C132.595,224.827 134,225.675 134,226.545 C134,227.689 135.604,228 141.5,228 C147.5,228 149,227.7 149,226.5 C149,224.146 151.699,224.747 152.37,227.25 C153.376,231.007 153.09,232 151,232 C149.889,232 149,232.667 149,233.5 C149,234.738 147.167,235 138.5,235 C130.268,235 128,234.704 128,233.628 C128,232.8 126.413,232.002 124,231.616 C121.412,231.202 120,230.451 120,229.488 C120,228.667 119.104,228 118,228 C116.9,228 116,227.361 116,226.579 C116,225.798 114.65,224.862 113,224.5 C111.35,224.138 110,223.202 110,222.421 C110,221.639 109.086,221 107.969,221 C106.851,221 105.678,220.325 105.362,219.5 C105.045,218.675 104.159,218 103.393,218 C102.627,218 102,217.156 102,216.125 C102,214.863 101.067,214.063 99.149,213.68 C94.357,212.721 92.117,213.86 91.413,217.61 C91.053,219.531 90.175,221 89.389,221 C88.625,221 88,221.675 88,222.5 C88,223.333 87.111,224 86,224 C84.667,224 84,224.667 84,226 C84,227.111 83.333,228 82.5,228 C81.675,228 81,228.717 81,229.594 C81,230.47 80.1,231.423 79,231.71 C77.9,231.998 77,232.803 77,233.5 C77,234.197 76.1,235.002 75,235.29 C73.9,235.577 73,236.53 73,237.406 C73,238.283 72.325,239 71.5,239 C70.675,239 70,239.717 70,240.594 C70,241.47 69.1,242.423 68,242.71 C66.9,242.998 66,243.856 66,244.617 C66,245.377 65.325,246 64.5,246 C63.667,246 63,246.889 63,248 C63,249.333 62.333,250 61,250 C59.837,250 59,250.667 59,251.594 C59,252.47 58.1,253.423 57,253.71 C55.9,253.998 55,254.631 55,255.117 C55,255.602 54.325,256 53.5,256 C52.452,256 52,254.944 52,252.5 C52,250.056 52.452,249 53.5,249 C54.325,249 55,248.325 55,247.5 C55,246.675 55.675,246 56.5,246 C57.325,246 58,245.283 58,244.406 C58,243.53 58.9,242.577 60,242.29 C61.1,242.002 62,241.144 62,240.383 C62,239.623 62.9,239 64,239 C65.333,239 66,238.333 66,237 C66,235.889 66.667,235 67.5,235 C68.325,235 69,234.283 69,233.406 C69,232.53 69.874,231.584 70.943,231.305 C72.073,231.009 73.152,229.584 73.522,227.898 C73.872,226.304 74.798,225 75.579,225 C76.361,225 77,224.1 77,223 C77,221.9 77.623,221 78.383,221 C79.144,221 80.002,220.1 80.29,219 C80.577,217.9 81.53,217 82.406,217 C83.333,217 84,216.163 84,215 C84,213.889 84.667,213 85.5,213 C86.325,213 87,212.325 87,211.5 C87,210.667 87.889,210 89,210 C90.619,210 91,209.333 91,206.5 C91,203.667 91.381,203 93,203 C94.333,203 95,202.333 95,201 C95,199.889 95.667,199 96.5,199 C97.325,199 98,198.325 98,197.5 C98,196.667 98.889,196 100,196 C101.333,196 102,195.333 102,194 C102,192.9 102.655,192 103.455,192 C104.325,192 105.173,190.595 105.566,188.5 C105.942,186.495 106.816,185 107.611,185 C108.664,185 109,183.306 109,178 C109,171.667 108.81,171 107,171 C105.889,171 105,171.667 105,172.5 C105,173.548 103.944,174 101.5,174 C99.187,174 98,174.469 98,175.383 C98,176.899 95.032,177.965 90.75,177.986 C88.978,177.995 88,178.534 88,179.5 C88,180.333 87.111,181 86,181 C84.667,181 84,181.667 84,183 C84,184.758 83.333,185 78.5,185 C74.278,185 73,185.348 73,186.5 C73,187.722 71.333,188 64,188 L55,188 L55,178.176 L59,177.5 C61.459,177.085 63,176.28 63,175.412 C63,174.384 64.361,174 68,174 L73,174 L73,80 L65.906,80 C59.654,80 58.751,80.237 58.29,82 C57.857,83.656 56.926,84 52.883,84 L48,84 L48,73 L53.5,73 C57.722,73 59,72.652 59,71.5 C59,70.31 60.444,70 66,70 L73,70 L73,60.906 C73,52.654 73.185,51.764 75,51.29 C76.1,51.002 77,50.144 77,49.383 Z M181,64.5 C181,63.278 182.667,63 190,63 C197.333,63 199,63.278 199,64.5 C199,65.652 200.278,66 204.5,66 C208.526,66 210,66.372 210,67.389 C210,68.184 211.495,69.058 213.5,69.434 C215.595,69.827 217,70.675 217,71.545 C217,72.345 217.9,73 219,73 C220.961,73 221,73.667 221,107.617 L221,142.233 L223.25,141.63 C224.488,141.299 226.063,141.021 226.75,141.014 C227.438,141.006 228,140.325 228,139.5 C228,138.348 229.278,138 233.5,138 C237.516,138 239,137.627 239,136.617 C239,135.041 242,134.034 246.75,134.014 C248.966,134.004 250,133.523 250,132.5 C250,130.146 252.699,130.747 253.37,133.25 C254.366,136.969 254.094,138 252.117,138 C251.074,138 250,138.893 249.71,140 C249.31,141.532 248.346,142 245.594,142 C243.066,142 242,142.445 242,143.5 C242,144.575 240.903,145 238.125,145 C232.228,145 228,146.096 228,147.625 C228,148.53 226.803,149 224.5,149 L221,149 L221,177.5 C221,201.056 221.239,206 222.379,206 C223.455,206 223.918,209.193 224.483,220.5 C225.053,231.896 225.507,235 226.604,235 C227.566,235 228,236.243 228,239 C228,241.889 227.583,243 226.5,243 C225.675,243 225,243.675 225,244.5 C225,245.583 223.889,246 221,246 L217,246 L217,241.117 C217,237.074 216.656,236.143 215,235.71 C213.468,235.31 213,234.346 213,231.594 C213,229.066 212.555,228 211.5,228 C210.452,228 210,226.944 210,224.5 C210,222.187 209.531,221 208.617,221 C206.897,221 206.031,217.923 206.014,211.75 C206.003,208.201 205.621,207 204.5,207 C203.3,207 203,205.5 203,199.5 C203,193.5 203.3,192 204.5,192 C205.637,192 206,193.233 206,197.094 C206,201.346 206.33,202.274 208,202.71 C209.756,203.169 210,204.074 210,210.117 C210,216.389 210.182,217 212.05,217 C214.07,217 214.093,216.683 213.569,195.25 C213.278,183.288 213.03,170.463 213.019,166.75 C213.004,161.425 212.683,160 211.5,160 C210.667,160 210,159.111 210,158 C210,156.667 209.333,156 208,156 C206.667,156 206,156.667 206,158 C206,159.556 205.333,160 203,160 Q200,160 200,161.5 C200,162.333 199.111,163 198,163 C196.837,163 196,163.667 196,164.594 C196,165.47 195.1,166.423 194,166.71 C192.497,167.103 192,168.074 192,170.617 C192,173.897 191.878,174 188,174 C185.111,174 184,174.417 184,175.5 C184,176.325 183.325,177 182.5,177 C181.221,177 181,179.722 181,195.5 C181,211.278 180.779,214 179.5,214 C178.675,214 178,214.648 178,215.441 C178,217.53 176.62,218.074 173.103,217.371 L170,216.75 L170.006,207.125 C170.016,191.581 171.086,181 172.648,181 C173.712,181 174,178.335 174,168.5 C174,158.056 173.753,156 172.5,156 C171.667,156 171,155.111 171,154 C171,152.889 171.667,152 172.5,152 C173.652,152 174,150.722 174,146.5 C174,142.528 173.622,141 172.639,141 C170.83,141 170.02,133.839 170.009,117.75 C170.001,107.087 169.754,105 168.5,105 C167.284,105 167,103.385 167,96.469 C167,89.878 166.665,87.809 165.527,87.372 C164.717,87.061 163.767,85.275 163.416,83.403 C163.065,81.532 162.205,80 161.505,80 C160.806,80 159.998,79.1 159.71,78 C159.423,76.9 158.47,76 157.594,76 C156.503,76 156,75.088 156,73.111 C156,70.602 156.459,70.136 159.5,69.566 C161.595,69.173 163,68.325 163,67.455 C163,66.29 164.791,66 172,66 C179.333,66 181,65.722 181,64.5 Z M88,78.5 C88,79.333 87.111,80 86,80 C84.222,80 84,80.667 84,86 C84,90.667 83.667,92 82.5,92 C81.675,92 81,92.45 81,93 C81,93.55 81.675,94 82.5,94 C83.742,94 84,95.889 84,105 C84,114.111 83.742,116 82.5,116 C81.667,116 81,116.889 81,118 C81,119.111 81.667,120 82.5,120 C83.325,120 84,120.675 84,121.5 C84,122.325 83.325,123 82.5,123 C81.567,123 81,123.944 81,125.5 C81,127.056 81.567,128 82.5,128 C83.633,128 84,129.222 84,133 C84,136.778 83.633,138 82.5,138 C81.238,138 81,140.217 81,151.955 L81,165.909 L84.5,166.566 C88.744,167.362 94.71,166.369 95.241,164.778 C95.462,164.114 98.486,163.436 102.314,163.193 C108.045,162.828 109,162.498 109,160.884 C109,159.848 109.675,159 110.5,159 C111.325,159 112.039,158.438 112.088,157.75 C112.136,157.063 112.351,151.618 112.566,145.651 C112.932,135.509 112.828,134.768 110.979,134.284 C109.89,134 109,133.144 109,132.383 C109,131.623 108.325,131 107.5,131 C106.675,131 106,131.635 106,132.412 C106,133.28 104.459,134.085 102,134.5 C99.541,134.915 98,135.72 98,136.588 C98,137.365 97.1,138 96,138 C94.9,138 94,137.361 94,136.579 C94,135.798 92.692,134.872 91.094,134.521 C87.908,133.821 86.526,130.738 87.557,126.63 C88.058,124.635 88.968,124.163 93.326,123.639 C96.172,123.297 100.862,123.013 103.75,123.009 C108.901,123 109,122.944 109,120.034 C109,117.231 108.727,117.033 104,116.406 C100.997,116.007 99,115.239 99,114.482 C99,113.79 97.471,112.936 95.602,112.585 C93.067,112.109 92.043,111.308 91.571,109.428 C90.839,106.509 91.516,105 93.559,105 C94.352,105 95,104.325 95,103.5 C95,102.452 96.056,102 98.5,102 C100.878,102 102,102.461 102,103.439 C102,105.044 110.061,106.699 112.01,105.494 C113.506,104.57 112.333,99.777 110.337,98.654 C109.272,98.054 108.906,96.45 109.081,93.154 C109.217,90.594 109.254,85.912 109.164,82.75 L109,77 L98.5,77 C89.833,77 88,77.262 88,78.5 Z M177.201,74.606 C176.66,75.572 174.449,76.42 171.651,76.736 C165.031,77.482 165.433,79.805 172.25,80.198 L177.5,80.5 L177.81,84.25 C178.013,86.703 178.619,88 179.56,88 C180.676,88 181,89.575 181,95 C181,100.556 180.69,102 179.5,102 C178.31,102 178,103.444 178,109 L178,116 L181.5,116 C183.944,116 185,115.548 185,114.5 C185,113.278 186.667,113 194,113 C201.333,113 203,113.278 203,114.5 C203,115.548 204.056,116 206.5,116 L210,116 L210,98 C210,83.114 209.754,80 208.579,80 C207.798,80 206.872,78.696 206.522,77.102 C205.707,73.387 204.247,73.031 189.8,73.014 C180.087,73.002 177.947,73.273 177.201,74.606 Z M181.014,139.25 C181.021,149.838 181.299,159.512 181.63,160.75 C182.294,163.226 184,163.829 184,161.588 C184,160.72 185.541,159.915 188,159.5 C190.459,159.085 192,158.28 192,157.412 C192,156.635 192.9,156 194,156 C195.1,156 196,155.345 196,154.545 C196,153.675 197.405,152.827 199.5,152.434 C201.505,152.058 203,151.184 203,150.389 C203,149.468 204.18,149 206.5,149 C209.333,149 210,148.619 210,147 C210,145.889 210.667,145 211.5,145 C212.548,145 213,143.944 213,141.5 C213,139.056 212.548,138 211.5,138 C210.31,138 210,136.556 210,131 C210,124.034 209.987,124 207.25,123.986 C202.968,123.965 200,122.899 200,121.383 C200,120.623 199.1,120 198,120 C196.9,120 196,120.619 196,121.375 C196,123.015 190.784,124.235 187.402,123.386 C186.081,123.055 185,122.157 185,121.392 C185,120.626 184.1,120 183,120 C181.069,120 181,120.662 181.014,139.25 Z"/>
</svg>

