<svg xmlns="http://www.w3.org/2000/svg" width="300" height="300" viewBox="0 0 300 300" version="1.1">
  <defs/>
  <path d="M144,127.726 C144.825,127.413 149.438,127.122 154.25,127.079 C161.276,127.016 163,127.287 163,128.455 C163,129.325 164.405,130.173 166.5,130.566 C169.682,131.163 170,131.53 170,134.611 C170,136.957 169.538,138 168.5,138 C167.452,138 167,139.056 167,141.5 C167,144.333 166.619,145 165,145 C163.667,145 163,145.667 163,147 C163,148.111 162.333,149 161.5,149 C160.675,149 160,149.675 160,150.5 C160,151.333 159.111,152 158,152 C156.667,152 156,152.667 156,154 C156,155.111 155.333,156 154.5,156 C153.675,156 153,156.717 153,157.594 C153,158.47 152.1,159.423 151,159.71 C149.9,159.998 149,160.856 149,161.617 C149,162.377 148.1,163 147,163 C145.667,163 145,163.667 145,165 C145,166.667 145.667,167 149,167 C151.889,167 153,167.417 153,168.5 C153,169.621 154.201,170.003 157.75,170.014 C163.923,170.031 167,170.897 167,172.617 C167,173.377 167.675,174 168.5,174 C169.548,174 170,175.056 170,177.5 C170,179.944 169.548,181 168.5,181 C167.667,181 167,181.889 167,183 C167,184.333 167.667,185 169,185 C170.111,185 171,185.667 171,186.5 C171,187.325 171.675,188 172.5,188 C173.325,188 174,187.325 174,186.5 C174,185.452 175.056,185 177.5,185 C179.944,185 181,185.452 181,186.5 C181,187.333 181.889,188 183,188 C184.333,188 185,188.667 185,190 C185,191.1 184.377,192 183.617,192 C182.856,192 181.998,192.9 181.71,194 C181.266,195.699 180.346,196 175.594,196 C171.477,196 170,196.368 170,197.394 C170,198.441 167.988,198.88 161.924,199.155 C155.543,199.445 153.643,199.887 152.874,201.261 C152.339,202.217 151.023,203 149.95,203 C148.878,203 148,203.675 148,204.5 C148,205.325 147.325,206 146.5,206 C145.452,206 145,207.056 145,209.5 C145,211.944 144.548,213 143.5,213 C142.514,213 142,213.986 142,215.875 C142,220.841 140.804,225 139.375,225 C138.339,225 138,226.727 138,232 C138,237.556 137.69,239 136.5,239 C135.372,239 135,240.207 135,243.866 L135,248.732 L150.492,249.203 C173.385,249.899 192,249.076 192,247.367 C192,246.332 193.824,246 199.5,246 C205.219,246 207,245.671 207,244.617 C207,242.897 210.077,242.031 216.25,242.014 C219.799,242.003 221,241.621 221,240.5 C221,239.363 222.233,239 226.094,239 C230.346,239 231.274,238.67 231.71,237 C232.143,235.344 233.074,235 237.117,235 C241.333,235 242,235.273 242,237 C242,238.1 241.375,239 240.611,239 C239.816,239 238.942,240.495 238.566,242.5 C237.966,245.698 237.611,246 234.455,246 C232.18,246 231,246.472 231,247.383 C231,248.899 228.032,249.965 223.75,249.986 C221.978,249.995 221,250.534 221,251.5 C221,252.544 219.95,253 217.55,253 C215.303,253 213.758,253.61 213.122,254.75 C212.272,256.272 210.181,256.542 197.072,256.822 C184.83,257.084 182,257.412 182,258.572 C182,259.763 178.596,260 161.5,260 C143.944,260 141,259.785 141,258.5 Q141,257 138,257 C136.124,257 135,257.514 135,258.372 C135,259.2 133.413,259.998 131,260.384 C128.412,260.798 127,261.549 127,262.512 C127,263.546 125.932,264 123.5,264 C120.167,264 120,264.167 120,267.5 C120,270.81 119.817,271 116.617,271 C114.074,271 113.103,271.497 112.71,273 C112.249,274.763 111.346,275 105.094,275 C98.667,275 98,274.812 98,273 C98,271.381 97.333,271 94.5,271 C91.667,271 91,270.619 91,269 C91,267.9 90.374,267 89.608,267 C88.105,267 86.563,262.516 87.528,260.954 C87.853,260.429 88.766,260 89.559,260 C90.352,260 91,259.377 91,258.617 C91,257.856 91.9,256.998 93,256.71 C94.1,256.423 95,255.47 95,254.594 C95,253.287 96.262,253 102,253 C107.556,253 109,252.69 109,251.5 C109,250.395 110.153,250 113.375,250 C119.741,250 124,248.948 124,247.375 C124,246.619 124.623,246 125.384,246 C126.379,246 126.885,244.15 127.187,239.4 C127.497,234.538 128.055,232.549 129.304,231.85 C130.575,231.138 131,229.535 131,225.45 C131,221.501 131.377,220 132.371,220 C133.832,220 135.648,208.858 134.492,206.987 C133.237,204.957 123,206.416 123,208.625 C123,209.684 121.045,210 114.5,210 C107.611,210 106,209.716 106,208.5 C106,207.675 106.675,207 107.5,207 C108.333,207 109,206.111 109,205 C109,203.837 109.667,203 110.594,203 C111.47,203 112.423,202.1 112.71,201 C113.174,199.228 114.074,199 120.617,199 C126.513,199 128,198.698 128,197.5 C128,196.367 129.222,196 133,196 L138,196 L138,192 C138,189.273 138.438,188 139.375,188 C140.904,188 142,183.772 142,177.875 C142,174.021 141.978,174 138,174 C135.25,174 134,174.435 134,175.392 C134,177.124 129.831,178.247 126.5,177.411 C125.125,177.066 124,176.157 124,175.392 C124,174.626 123.1,174 122,174 C120.242,174 120,173.333 120,168.5 C120,163.667 119.758,163 118,163 C116.381,163 116,162.333 116,159.5 C116,157.056 115.548,156 114.5,156 C113.348,156 113,154.722 113,150.5 C113,146.468 112.629,145 111.608,145 C108.606,145 108.59,135.755 111.59,134.604 C112.366,134.306 113,133.374 113,132.531 C113,131.448 114.024,131 116.5,131 C119.833,131 120,131.167 120,134.5 C120,137.811 120.183,138 123.389,138 C126.47,138 126.837,137.682 127.434,134.5 L128.091,131 L134.496,131 C138.82,131 141.16,130.56 141.7,129.647 C142.14,128.902 143.175,128.038 144,127.726 Z M129.25,26.706 C130.488,26.467 132.006,26.211 132.625,26.136 C134.45,25.915 135,31.237 135,49.125 C135,63.458 135.226,66 136.5,66 C137.652,66 138,67.278 138,71.5 L138,77 L141.5,77 C144.333,77 145,76.619 145,75 C145,73.667 145.667,73 147,73 C148.619,73 149,72.333 149,69.5 C149,67.056 149.452,66 150.5,66 C151.548,66 152,64.944 152,62.5 C152,59.667 152.381,59 154,59 C155.667,59 156,58.333 156,55 C156,52.261 156.436,51 157.383,51 C158.899,51 159.965,48.032 159.986,43.75 C159.995,41.978 160.534,41 161.5,41 C162.548,41 163,39.944 163,37.5 C163,34.667 163.381,34 165,34 C166.333,34 167,33.333 167,32 C167,30.381 167.667,30 170.5,30 C172.944,30 174,29.548 174,28.5 C174,27.675 174.675,27 175.5,27 C176.325,27 177,27.675 177,28.5 C177,29.333 177.889,30 179,30 C180.333,30 181,30.667 181,32 C181,33.111 180.333,34 179.5,34 C178.675,34 178,34.675 178,35.5 C178,36.333 177.111,37 176,37 C174.394,37 174,37.667 174,40.383 C174,42.926 173.503,43.897 172,44.29 C170.9,44.577 170,45.53 170,46.406 C170,47.283 169.325,48 168.5,48 C167.452,48 167,49.056 167,51.5 C167,54.333 166.619,55 165,55 C163.381,55 163,55.667 163,58.5 C163,60.848 162.535,62 161.588,62 C160.72,62 159.915,63.541 159.5,66 C159.085,68.459 158.28,70 157.412,70 C156.51,70 156,71.083 156,73 C156,74.917 155.49,76 154.588,76 C153.72,76 152.915,77.541 152.5,80 C152.085,82.459 151.28,84 150.412,84 C149.635,84 149,84.9 149,86 C149,87.333 148.333,88 147,88 C145.381,88 145,88.667 145,91.5 C145,94.518 145.327,95 147.375,95 C151.959,95 156,93.744 156,92.319 C156,91.113 159.316,90.936 177.072,91.194 C195.909,91.468 198.247,91.686 199.121,93.25 C199.659,94.212 200.752,95 201.55,95 C202.347,95 203,95.675 203,96.5 C203,97.325 203.717,98 204.594,98 C205.47,98 206.423,98.9 206.71,100 C206.998,101.1 207.856,102 208.617,102 C209.377,102 210,102.623 210,103.383 C210,104.144 210.9,105.002 212,105.29 C213.806,105.762 214,106.654 214,114.5 C214,122.346 213.806,123.238 212,123.71 C210.497,124.103 210,125.074 210,127.617 C210,129.911 209.532,131 208.545,131 C207.675,131 206.827,132.405 206.434,134.5 C206.058,136.505 205.184,138 204.389,138 C203.625,138 203,138.9 203,140 C203,141.1 202.345,142 201.545,142 C200.675,142 199.827,143.405 199.434,145.5 C199.058,147.505 198.184,149 197.389,149 C196.625,149 196,149.675 196,150.5 C196,151.333 195.111,152 194,152 C192.667,152 192,152.667 192,154 C192,155.333 191.333,156 190,156 C188.9,156 188,156.655 188,157.455 C188,158.325 186.595,159.173 184.5,159.566 C182.495,159.942 181,160.816 181,161.611 C181,162.456 179.923,163.005 178.25,163.014 C173.968,163.035 171,164.101 171,165.617 C171,167.056 167.468,167.566 166.651,166.244 C166.394,165.829 166.418,164.265 166.704,162.769 C167.114,160.624 167.941,159.914 170.612,159.413 C172.531,159.053 174,158.175 174,157.389 C174,156.468 175.18,156 177.5,156 C180.333,156 181,155.619 181,154 C181,152.667 181.667,152 183,152 C184.111,152 185,151.333 185,150.5 C185,149.675 185.675,149 186.5,149 C187.333,149 188,148.111 188,147 C188,145.667 188.667,145 190,145 C191.619,145 192,144.333 192,141.5 C192,139.104 192.459,138 193.455,138 C194.325,138 195.173,136.595 195.566,134.5 C195.942,132.495 196.816,131 197.611,131 C198.375,131 199,130.1 199,129 C199,127.9 199.623,127 200.383,127 C202.216,127 202.97,123.861 202.986,116.156 C202.998,110.648 202.737,109.744 201,109.29 C199.9,109.002 199,108.194 199,107.495 C199,106.795 197.425,105.927 195.5,105.566 C193.405,105.173 192,104.325 192,103.455 C192,102.32 190.459,102 185,102 C179.444,102 178,101.69 178,100.5 C178,99.417 176.889,99 174,99 C171.111,99 170,99.417 170,100.5 C170,101.737 168.18,102 159.617,102 C150.074,102 149.191,102.162 148.71,104 C148.274,105.67 147.346,106 143.094,106 C139.233,106 138,106.363 138,107.5 C138,108.739 136.156,109 127.406,109 C117.654,109 116.771,109.159 116.29,111 C115.831,112.756 114.926,113 108.883,113 C103.431,113 102,113.312 102,114.5 C102,115.555 100.934,116 98.406,116 C95.654,116 94.69,116.468 94.29,118 C93.925,119.393 92.926,120 90.995,120 C88.634,120 88.128,120.504 87.585,123.398 C87.109,125.933 86.308,126.957 84.428,127.429 C81.509,128.161 80,127.484 80,125.441 C80,124.648 79.325,124 78.5,124 C77.348,124 77,122.722 77,118.5 L77,113 L80.5,113 C83.333,113 84,112.619 84,111 C84,109.267 84.667,109 89,109 C92.639,109 94,108.616 94,107.588 C94,106.72 95.541,105.915 98,105.5 C100.459,105.085 102,104.28 102,103.412 C102,102.321 103.707,102 109.5,102 C115.219,102 117,101.671 117,100.617 C117,98.897 120.077,98.031 126.25,98.014 C129.63,98.004 131,97.599 131,96.611 C131,95.816 132.495,94.942 134.5,94.566 C137.562,93.992 138,93.54 138,90.955 C138,88.995 137.495,88 136.5,88 C135.667,88 135,87.111 135,86 C135,84.667 134.333,84 133,84 C131.394,84 131,83.333 131,80.617 C131,78.065 130.504,77.104 128.984,76.706 C127.491,76.316 127.02,75.442 127.167,73.339 C127.276,71.778 127.283,65.438 127.183,59.25 C127.032,49.998 126.734,48 125.5,48 C124.278,48 124,46.333 124,39 C124,31.667 124.278,30 125.5,30 C126.325,30 127,29.356 127,28.57 C127,27.783 128.012,26.944 129.25,26.706 Z M59,119.883 L59,113 L62.5,113 C64.813,113 66,113.469 66,114.383 C66,115.144 66.9,116.002 68,116.29 C69.456,116.671 70,117.654 70,119.906 C70,121.99 70.49,123 71.5,123 C72.555,123 73,124.066 73,126.594 C73,129.346 73.468,130.31 75,130.71 C76.503,131.103 77,132.074 77,134.617 C77,136.864 77.474,138 78.412,138 C79.28,138 80.085,139.541 80.5,142 C80.915,144.459 81.72,146 82.588,146 C83.616,146 84,147.361 84,151 C84,155.333 84.267,156 86,156 C87.619,156 88,156.667 88,159.5 C88,161.944 88.452,163 89.5,163 C90.583,163 91,164.111 91,167 C91,169.541 90.544,170.995 89.75,170.986 C86.84,170.955 84,169.669 84,168.383 C84,167.623 83.345,167 82.545,167 C81.675,167 80.827,165.595 80.434,163.5 C80.058,161.495 79.184,160 78.389,160 C77.461,160 77,158.806 77,156.406 C77,153.654 76.532,152.69 75,152.29 C73.497,151.897 73,150.926 73,148.383 C73,146.163 72.523,145 71.611,145 C70.816,145 69.942,143.505 69.566,141.5 C69.173,139.405 68.325,138 67.455,138 C66.459,138 66,136.896 66,134.5 C66,132.056 65.548,131 64.5,131 C63.675,131 63,130.283 63,129.406 C63,128.53 62.1,127.577 61,127.29 C59.244,126.831 59,125.926 59,119.883 Z M142,139.375 C142,140.746 137.88,142 133.375,142 C131.329,142 130.975,142.52 130.82,145.75 C130.721,147.813 130.741,150.963 130.864,152.75 C131.018,155.002 130.649,156 129.66,156 C128.338,156 127.046,158.807 127.014,161.75 C127.005,162.515 128.359,163 130.5,163 C132.944,163 134,162.548 134,161.5 C134,160.667 134.889,160 136,160 C137.333,160 138,159.333 138,158 C138,156.381 138.667,156 141.5,156 C144.333,156 145,155.619 145,154 C145,152.667 145.667,152 147,152 C148.111,152 149,151.333 149,150.5 C149,149.675 149.623,149 150.383,149 C151.144,149 152.002,148.1 152.29,147 C152.577,145.9 153.53,145 154.406,145 C155.561,145 156,144.036 156,141.5 L156,138 L149,138 C143.727,138 142,138.339 142,139.375 Z M94.29,64 C94.69,62.468 95.654,62 98.406,62 C101.333,62 102,62.371 102,64 C102,65.1 102.655,66 103.455,66 C104.325,66 105.173,67.405 105.566,69.5 C105.942,71.505 106.816,73 107.611,73 C108.375,73 109,73.9 109,75 C109,76.111 109.667,77 110.5,77 C111.325,77 112,77.675 112,78.5 C112,79.583 113.111,80 116,80 C119.878,80 120,80.103 120,83.383 C120,87.268 118.587,87.964 110.656,87.986 C106.647,87.998 105.723,87.655 105.29,86 C105.002,84.9 104.144,84 103.383,84 C102.623,84 102,83.1 102,82 C102,80.9 101.361,80 100.579,80 C99.798,80 98.869,78.679 98.514,77.065 C98.03,74.861 97.139,73.97 94.935,73.486 C92.386,72.926 92,72.391 92,69.421 C92,67.539 92.398,66 92.883,66 C93.369,66 94.002,65.1 94.29,64 Z M152,184.5 C152,186.944 151.548,188 150.5,188 C149.667,188 149,188.889 149,190 C149,191.758 149.667,192 154.5,192 C158.722,192 160,191.652 160,190.5 C160,189.675 160.675,189 161.5,189 C162.333,189 163,188.111 163,187 C163,185.667 162.333,185 161,185 C159.9,185 159,184.377 159,183.617 C159,182.331 156.16,181.045 153.25,181.014 C152.485,181.005 152,182.359 152,184.5 Z M107.75,260.689 C106.787,260.941 106,261.789 106,262.573 C106,263.358 105.1,264 104,264 C102.627,264 102,264.667 102,266.125 C102,267.972 102.409,268.168 105.125,267.625 C106.844,267.281 109.094,267 110.125,267 C111.156,267 112,266.325 112,265.5 C112,264.667 112.889,264 114,264 C115.333,264 116,263.333 116,262 C116,260.386 115.372,260.022 112.75,260.116 C110.963,260.18 108.713,260.438 107.75,260.689 Z"/>
</svg>

