<svg xmlns="http://www.w3.org/2000/svg" width="300" height="300" viewBox="0 0 300 300" version="1.1">
  <defs/>
  <path d="M73,40 C73,38.667 73.667,38 75,38 C76.333,38 77,38.667 77,40 C77,41.111 77.667,42 78.5,42 C79.333,42 80,42.889 80,44 C80,45.111 79.333,46 78.5,46 C77.452,46 77,47.056 77,49.5 C77,52.333 76.619,53 75,53 C73.667,53 73,53.667 73,55 C73,56.111 72.333,57 71.5,57 Q70,57 70,60 Q70,63 71.5,63 C72.325,63 73,62.325 73,61.5 C73,60.222 75.667,60 91,60 L109,60 L109,72.5 C109,82.944 108.753,85 107.5,85 C106.348,85 106,86.278 106,90.5 C106,95.333 105.758,96 104,96 C102.333,96 102,96.667 102,100 C102,102.722 101.562,104 100.629,104 C99.739,104 99.025,105.754 98.594,109 C98.168,112.212 97.447,114 96.577,114 C95.821,114 94.933,115.546 94.566,117.5 C94.173,119.595 93.325,121 92.455,121 C91.655,121 91,121.9 91,123 C91,124.111 90.333,125 89.5,125 C88.675,125 88,125.675 88,126.5 C88,127.333 87.111,128 86,128 C84.333,128 84,128.667 84,132 C84,134.834 83.576,136 82.545,136 C81.675,136 80.827,137.405 80.434,139.5 C80.058,141.505 79.184,143 78.389,143 C77.625,143 77,143.623 77,144.383 C77,145.144 76.1,146.002 75,146.29 C73.9,146.577 73,147.53 73,148.406 C73,149.283 72.375,150 71.611,150 C70.822,150 69.945,151.478 69.58,153.428 C69.064,156.175 68.36,156.982 66.033,157.493 C63.862,157.97 62.968,158.87 62.486,161.065 C61.926,163.614 61.391,164 58.421,164 C55.178,164 55,163.818 55,160.5 C55,157.667 55.381,157 57,157 C58.333,157 59,156.333 59,155 C59,153.889 59.667,153 60.5,153 C61.325,153 62,152.325 62,151.5 C62,150.667 62.889,150 64,150 C65.606,150 66,149.333 66,146.617 C66,144.074 66.497,143.103 68,142.71 C69.1,142.423 70,141.47 70,140.594 C70,139.717 70.675,139 71.5,139 C72.548,139 73,137.944 73,135.5 C73,132.667 73.381,132 75,132 C76.333,132 77,131.333 77,130 C77,128.889 77.667,128 78.5,128 C79.548,128 80,126.944 80,124.5 L80,121 L73,121 C67.444,121 66,120.69 66,119.5 C66,118.675 65.283,118 64.406,118 C63.53,118 62.577,117.1 62.29,116 C61.857,114.344 60.926,114 56.883,114 L52,114 L52,107 L41,107 L41,103 C41,100.111 41.417,99 42.5,99 C43.51,99 44,97.99 44,95.906 C44,93.654 44.544,92.671 46,92.29 C47.503,91.897 48,90.926 48,88.383 C48,86.163 48.477,85 49.389,85 C50.184,85 51.058,83.505 51.434,81.5 C51.827,79.405 52.675,78 53.545,78 C54.628,78 55,76.697 55,72.906 C55,68.654 55.33,67.726 57,67.29 C58.503,66.897 59,65.926 59,63.383 C59,61.043 59.462,60 60.5,60 C61.466,60 62.005,59.022 62.014,57.25 C62.035,52.968 63.101,50 64.617,50 C65.377,50 66,49.1 66,48 C66,46.889 66.667,46 67.5,46 C68.333,46 69,45.111 69,44 C69,42.667 69.667,42 71,42 C72.333,42 73,41.333 73,40 Z M159.29,40 C159.728,38.324 160.654,38 165,38 C169.346,38 170.272,38.324 170.71,40 C171.074,41.392 172.074,42 174,42 C177.018,42 177.961,43.835 177.986,49.75 C177.996,51.966 178.477,53 179.5,53 C180.753,53 181,55.056 181,65.5 C181,75.944 180.753,78 179.5,78 C178.337,78 178,79.319 178,83.875 C178,91.658 177.06,96 175.375,96 C174.339,96 174,97.727 174,103 C174,108.273 173.661,110 172.625,110 C171.254,110 170,114.12 170,118.625 C170,120.069 169.412,121 168.5,121 C167.462,121 167,122.043 167,124.383 C167,126.926 166.503,127.897 165,128.29 C163.468,128.69 163,129.654 163,132.406 C163,134.934 162.555,136 161.5,136 C160.452,136 160,137.056 160,139.5 C160,142.333 159.619,143 158,143 C156.889,143 156,143.667 156,144.5 C156,145.333 155.111,146 154,146 C152.262,146 152,145.333 152,140.906 C152,136.654 152.33,135.726 154,135.29 C155.656,134.857 156,133.926 156,129.883 C156,126.344 156.389,125 157.412,125 C158.28,125 159.085,123.459 159.5,121 C159.915,118.541 160.72,117 161.588,117 C162.658,117 163,115.438 163,110.55 C163,105.524 163.375,103.89 164.696,103.15 C165.945,102.451 166.503,100.462 166.813,95.6 C167.091,91.229 167.653,89 168.477,89 C169.367,89 169.856,85.8 170.196,77.75 C170.845,62.372 170.158,53 168.384,53 C167.623,53 167,52.325 167,51.5 C167,49.728 163.346,49.461 162.77,51.191 C162.536,51.892 159.625,52.556 155.686,52.807 C150.865,53.114 149,53.619 149,54.616 C149,55.538 147.8,56 145.406,56 C142.654,56 141.69,56.468 141.29,58 C140.919,59.417 139.926,60 137.883,60 C135.255,60 135,60.309 135,63.5 C135,66.333 134.619,67 133,67 C131.667,67 131,67.667 131,69 C131,70.333 130.333,71 129,71 C127.038,71 127,71.662 127.014,106.25 C127.021,125.638 127.299,142.512 127.63,143.75 C127.962,144.988 128.856,146 129.617,146 C130.377,146 131,146.9 131,148 C131,149.111 131.667,150 132.5,150 C133.325,150 134,150.717 134,151.594 C134,152.47 134.9,153.423 136,153.71 C137.1,153.998 138,154.856 138,155.617 C138,156.377 138.9,157 140,157 C141.333,157 142,157.667 142,159 C142,160.733 142.667,161 147,161 C150.543,161 152,161.395 152,162.357 C152,164.23 166.529,165.246 180.867,164.376 C189.211,163.869 192,163.361 192,162.35 C192,161.596 193.048,161 194.375,161 C198.88,161 203,159.746 203,158.375 C203,157.375 204.5,157 208.5,157 L214,157 L214,160.594 C214,163.346 213.532,164.31 212,164.71 C210.9,164.998 210,165.856 210,166.617 C210,167.627 208.516,168 204.5,168 C199.667,168 199,168.242 199,170 C199,171.758 198.333,172 193.5,172 C189.278,172 188,172.348 188,173.5 C188,174.771 185.556,175 172,175 C158.444,175 156,174.771 156,173.5 C156,172.379 154.799,171.997 151.25,171.986 C145.077,171.969 142,171.103 142,169.383 C142,168.478 140.831,168 138.617,168 C136.074,168 135.103,167.503 134.71,166 C134.397,164.803 133.346,164 132.094,164 C130.899,164 130,163.356 130,162.5 C130,161.675 129.325,161 128.5,161 C127.675,161 127,160.377 127,159.617 C127,158.856 126.1,157.998 125,157.71 C123.9,157.423 123,156.47 123,155.594 C123,154.717 122.325,154 121.5,154 C120.417,154 120,152.889 120,150 C120,147.261 119.564,146 118.617,146 C117.856,146 117,145.109 116.715,144.02 C116.431,142.931 116.446,129.206 116.75,113.52 C117.196,90.531 117.564,85 118.651,85 C119.733,85 120,81.436 120,67 C120,51.667 120.222,49 121.5,49 C122.325,49 123,48.381 123,47.625 C123,46.243 127.127,45 131.719,45 C133.346,45 134.365,45.681 134.71,47 C135.316,49.318 138,49.726 138,47.5 C138,46.588 138.931,46 140.375,46 C144.88,46 149,44.746 149,43.375 C149,42.396 150.407,42 153.883,42 C157.926,42 158.857,41.656 159.29,40 Z M102,205.383 C102,204.623 102.9,204 104,204 C105.893,204 106,204.667 106,216.5 C106,226.944 106.247,229 107.5,229 C108.555,229 109,230.066 109,232.594 C109,235.346 109.468,236.31 111,236.71 C112.407,237.078 113,238.074 113,240.071 C113,242.523 113.476,242.999 116.5,243.566 C118.505,243.942 120,244.816 120,245.611 C120,246.375 120.653,247 121.45,247 C122.248,247 123.328,247.763 123.85,248.696 C124.549,249.945 126.538,250.503 131.4,250.813 C136.15,251.115 138,251.621 138,252.616 C138,253.627 139.484,254 143.5,254 C147.49,254 149,253.624 149,252.63 C149,251.742 150.635,251.076 153.651,250.736 C156.449,250.42 158.66,249.572 159.201,248.606 C159.709,247.697 161.381,247 163.05,247 C165.083,247 166,246.504 166,245.406 C166,244.53 166.9,243.577 168,243.29 C169.1,243.002 170,242.144 170,241.383 C170,240.623 170.9,240 172,240 C173.758,240 174,239.333 174,234.5 C174,229.667 173.758,229 172,229 C170.889,229 170,228.333 170,227.5 C170,226.534 169.022,225.995 167.25,225.986 C162.968,225.965 160,224.899 160,223.383 C160,222.329 158.219,222 152.5,222 C146.781,222 145,221.671 145,220.617 C145,219.856 144.1,218.998 143,218.71 C141.468,218.31 141,217.346 141,214.594 C141,211.667 141.371,211 143,211 C144.111,211 145,210.333 145,209.5 C145,208.452 146.056,208 148.5,208 C150.8,208 152,208.471 152,209.373 C152,210.293 153.683,210.907 157.107,211.236 C159.915,211.506 162.567,212.3 163,213 C163.433,213.7 166.085,214.494 168.893,214.764 C172.317,215.093 174,215.707 174,216.627 C174,217.562 175.276,218 178,218 C180.889,218 182,217.583 182,216.5 C182,215.328 183.367,214.997 188.25,214.986 C195.865,214.97 199,214.21 199,212.383 C199,211.469 200.187,211 202.5,211 C205.333,211 206,211.381 206,213 C206,214.111 205.333,215 204.5,215 C203.675,215 203,215.675 203,216.5 C203,217.325 202.283,218 201.406,218 C200.53,218 199.577,218.9 199.29,220 C198.848,221.688 197.926,222 193.383,222 C188.667,222 188,222.248 188,224 C188,225.619 187.333,226 184.5,226 L181,226 L181,235 C181,242.333 180.722,244 179.5,244 C178.675,244 178,244.675 178,245.5 C178,246.333 177.111,247 176,247 C174.667,247 174,247.667 174,249 C174,250.111 173.333,251 172.5,251 C171.675,251 171,251.675 171,252.5 C171,253.356 170.101,254 168.906,254 C167.654,254 166.603,254.803 166.29,256 C165.857,257.656 164.926,258 160.883,258 C156.667,258 156,258.273 156,260 C156,261.904 155.338,261.999 142.25,261.986 C127.304,261.972 124,261.5 124,259.383 C124,258.436 122.739,258 120,258 C117.111,258 116,257.583 116,256.5 C116,255.675 115.325,255 114.5,255 C113.675,255 113,254.15 113,253.111 C113,251.752 112.039,251.042 109.572,250.58 C106.804,250.06 106.02,249.366 105.493,246.968 C105.134,245.336 104.202,244 103.421,244 C102.473,244 102,242.873 102,240.617 C102,238.074 101.503,237.103 100,236.71 C98.301,236.266 98,235.346 98,230.594 C98,226.288 97.655,225 96.5,225 C95.367,225 95,223.778 95,220 C95,216.222 95.367,215 96.5,215 C97.555,215 98,213.934 98,211.406 C98,208.654 98.468,207.69 100,207.29 C101.1,207.002 102,206.144 102,205.383 Z M66,69 C66,70.1 65.34,71 64.534,71 C63.531,71 62.86,72.576 62.406,76 C61.975,79.246 61.261,81 60.371,81 C59.574,81 59,82.05 59,83.51 C59,84.89 58.1,86.79 57,87.732 C55.755,88.798 55,90.682 55,92.722 C55,94.969 54.528,96 53.5,96 C52.452,96 52,97.056 52,99.5 L52,103 L57,103 C61.333,103 62,103.267 62,105 C62,106.333 62.667,107 64,107 C65.1,107 66,107.625 66,108.389 C66,109.184 67.495,110.058 69.5,110.434 C71.595,110.827 73,111.675 73,112.545 C73,113.689 74.604,114 80.5,114 C87.333,114 88,113.822 88,112 C88,110.889 88.667,110 89.5,110 C90.629,110 91,108.791 91,105.117 C91,101.074 91.344,100.143 93,99.71 C94.67,99.274 95,98.346 95,94.094 C95,90.233 95.363,89 96.5,89 C97.523,89 98.004,87.966 98.014,85.75 C98.034,81 99.041,78 100.617,78 C102.756,78 102.25,75.299 100,74.71 C98.9,74.423 98,73.47 98,72.594 C98,71.717 97.325,71 96.5,71 C95.675,71 95,71.675 95,72.5 C95,73.333 94.111,74 93,74 C91.889,74 91,73.333 91,72.5 C91,71.262 89.167,71 80.5,71 C70.667,71 70,70.873 70,69 C70,67.667 69.333,67 68,67 C66.667,67 66,67.667 66,69 Z M58.803,208.459 L59.106,186 L64.553,186 C69.333,186 70,186.245 70,188 C70,189.111 70.667,190 71.5,190 C72.548,190 73,191.056 73,193.5 C73,195.944 72.548,197 71.5,197 C70.452,197 70,198.056 70,200.5 C70,203.333 69.619,204 68,204 C66.074,204 66,204.667 66,222 C66,237.333 65.778,240 64.5,240 C63.675,240 63,240.675 63,241.5 C63,242.325 63.675,243 64.5,243 C65.583,243 66,244.111 66,247 C66,249.739 65.564,251 64.617,251 C63.856,251 62.99,251.931 62.692,253.069 C62.258,254.729 61.494,255.075 58.826,254.819 L55.5,254.5 L55.212,244.014 C54.962,234.892 55.157,233.358 56.712,232.223 C58.321,231.048 58.53,228.665 58.803,208.459 Z M214,213 C214,211.269 214.667,211 218.95,211 C222.456,211 224.163,211.469 224.799,212.606 C225.34,213.572 227.551,214.42 230.349,214.736 C233.365,215.076 235,215.742 235,216.63 C235,217.384 235.9,218 237,218 C238.333,218 239,218.667 239,220 C239,221.1 239.623,222 240.383,222 C241.144,222 242.002,222.9 242.29,224 C242.577,225.1 243.53,226 244.406,226 C245.283,226 246,226.623 246,227.383 C246,228.144 246.9,229.002 248,229.29 C249.1,229.577 250,230.53 250,231.406 C250,232.283 250.675,233 251.5,233 C252.325,233 253,233.675 253,234.5 C253,235.333 253.889,236 255,236 C256.333,236 257,236.667 257,238 C257,239.333 257.667,240 259,240 C260.619,240 261,240.667 261,243.5 C261,246.917 260.905,247 257,247 C253.667,247 253,246.667 253,245 C253,243.889 252.333,243 251.5,243 C250.675,243 250,242.325 250,241.5 C250,240.452 248.944,240 246.5,240 C243.964,240 243,239.561 243,238.406 C243,237.53 242.1,236.577 241,236.29 C239.9,236.002 239,235.144 239,234.383 C239,233.623 238.1,233 237,233 C235.667,233 235,232.333 235,231 C235,229.667 234.333,229 233,229 C231.9,229 231,228.361 231,227.579 C231,226.798 229.65,225.862 228,225.5 C226.35,225.138 225,224.202 225,223.421 C225,222.639 224.15,222 223.111,222 C221.745,222 221.041,221.033 220.566,218.5 C219.992,215.438 219.54,215 216.955,215 C214.667,215 214,214.549 214,213 Z"/>
</svg>

