<svg xmlns="http://www.w3.org/2000/svg" width="300" height="300" viewBox="0 0 300 300" version="1.1">
  <defs/>
  <path d="M160.753,67.211 L161.269,60 L164.634,60 C167.333,60 168,60.396 168,62 C168,63.1 168.647,64 169.439,64 C171.297,64 172.461,71.438 171.552,77.5 C171.112,80.435 170.377,82 169.439,82 C168.264,82 168,84.292 168,94.5 L168,107 L178.5,107 C187.167,107 189,107.262 189,108.5 C189,109.648 190.265,110 194.383,110 C200.21,110 200.954,109.183 200.986,102.75 C200.995,100.978 201.534,100 202.5,100 C203.69,100 204,98.556 204,93 C204,87.444 203.69,86 202.5,86 C201.333,86 201,84.667 201,80 C201,75.333 201.333,74 202.5,74 C203.548,74 204,72.944 204,70.5 C204,67.149 204.153,67 207.594,67 C210.346,67 211.31,67.468 211.71,69 C211.998,70.1 212.856,71 213.617,71 C214.627,71 215,72.484 215,76.5 C215,80.516 214.627,82 213.617,82 C211.626,82 211.027,85.237 211.027,96 C211.027,103.19 210.691,106.712 212.291,108.426 C214.082,110.344 218.296,110 228.117,110 C241.569,110 244,109.77 244,108.5 C244,107.236 246.278,107 258.5,107 L273,107 L273,109.375 C273,110.681 272.719,113.156 272.375,114.875 C271.823,117.634 271.355,118 268.375,118 C265.667,118 265,117.605 265,116 C265,114.381 264.333,114 261.5,114 C259.219,114 258,114.473 258,115.358 C258,117.194 249.564,118 230.353,118 C217.373,118 215,118.232 215,119.5 C215,120.333 214.111,121 213,121 C211.178,121 211,121.667 211,128.5 C211,134.5 210.7,136 209.5,136 C208.31,136 208,137.444 208,143 C208,149.333 207.81,150 206,150 C204.19,150 204,150.667 204,157 C204,162.273 203.661,164 202.625,164 C201.254,164 200,168.12 200,172.625 C200,174.069 199.412,175 198.5,175 C197.348,175 197,176.278 197,180.5 L197,186 L202.5,186 C206.516,186 208,186.373 208,187.383 C208,188.899 210.968,189.965 215.25,189.986 C217.022,189.995 218,190.534 218,191.5 C218,192.333 218.889,193 220,193 C221.1,193 222,193.623 222,194.383 C222,195.959 225,196.966 229.75,196.986 C231.966,196.996 233,197.477 233,198.5 C233,200.137 234.939,200.466 242.25,200.072 L247,199.816 L247,208 L240.25,207.986 C232.152,207.97 229,207.241 229,205.383 C229,204.469 227.813,204 225.5,204 C223.092,204 222,203.543 222,202.534 C222,201.531 220.424,200.86 217,200.406 C214.035,200.012 212,199.236 212,198.498 C212,197.732 210.028,197.065 206.865,196.761 C203.544,196.442 201.406,195.69 200.815,194.634 C200.157,193.459 198.484,193 194.857,193 C190.654,193 189.726,193.333 189.29,195 C189.002,196.1 188.144,197 187.383,197 C186.623,197 186,197.675 186,198.5 C186,199.325 185.325,200 184.5,200 C183.667,200 183,200.889 183,202 C183,203.333 182.333,204 181,204 C179.9,204 179,204.623 179,205.383 C179,206.959 176,207.966 171.25,207.986 C168.662,207.997 168,207.593 168,206 C168,204.667 167.333,204 166,204 C164.381,204 164,203.333 164,200.5 C164,197.667 164.381,197 166,197 C167.111,197 168,197.667 168,198.5 C168,199.325 168.563,200.006 169.25,200.014 C169.938,200.021 171.512,200.299 172.75,200.63 C174.565,201.117 175,200.824 175,199.117 C175,197.667 175.63,197 177,197 C178.333,197 179,196.333 179,195 C179,193.889 179.667,193 180.5,193 C181.548,193 182,191.944 182,189.5 L182,186 L175,186 C169.541,186 168,185.68 168,184.545 C168,183.675 166.595,182.827 164.5,182.434 C162.495,182.058 161,181.184 161,180.389 C161,179.372 159.526,179 155.5,179 C150.667,179 150,178.758 150,177 C150,175.667 149.333,175 148,175 C146.381,175 146,174.333 146,171.5 C146,168.667 146.381,168 148,168 C149.758,168 150,167.333 150,162.5 C150,158.335 150.356,157 151.466,157 C152.469,157 153.14,155.424 153.594,152 C153.996,148.976 154.759,147 155.526,147 C156.424,147 156.898,144.507 157.147,138.463 C157.342,133.762 157.993,129.606 158.597,129.213 C159.201,128.821 159.972,126.091 160.312,123.147 C160.862,118.386 160.713,117.738 158.965,117.281 C157.884,116.998 157,116.144 157,115.383 C157,114.623 156.325,114 155.5,114 C154.675,114 154,114.619 154,115.375 C154,116.948 149.741,118 143.375,118 L139,118 L139,123 C139,128.739 136.62,130.099 135.5,125 C135.138,123.35 134.202,122 133.421,122 C132.639,122 132,121.152 132,120.117 C132,119.074 131.107,118 130,117.71 C128.528,117.325 128,116.346 128,114 C128,111.654 128.528,110.675 130,110.29 C131.1,110.002 132,109.157 132,108.411 C132,107.346 135.059,106.995 146.25,106.777 L160.5,106.5 L160.5,92.582 C160.5,82.336 160.17,78.554 159.25,78.249 C157.697,77.733 157.605,75.298 159.118,74.794 C159.737,74.588 160.468,71.196 160.753,67.211 Z M103,58 C103,56.667 103.667,56 105,56 C106.333,56 107,56.667 107,58 C107,59.111 107.667,60 108.5,60 C109.755,60 110,62.094 110,72.844 C110,93.268 111.066,107 112.652,107 C113.654,107 114,108.795 114,114 L114,121 L125,121 L125,124.5 C125,127.833 124.833,128 121.5,128 C118.083,128 118,128.095 118,132 C118,134.72 118.438,136 119.37,136 C120.249,136 120.919,137.593 121.241,140.448 C121.885,146.16 121.138,150 119.383,150 C117.702,150 117.473,152.031 117.162,169.75 C117.031,177.233 116.714,179 115.5,179 C114.247,179 114,181.056 114,191.5 C114,201.499 113.722,204 112.611,204 C111.816,204 110.942,205.495 110.566,207.5 C109.966,210.698 109.611,211 106.455,211 L103,211 L103,204 C103,198.707 103.337,197 104.383,197 C106.603,197 106.972,193.631 106.986,173.25 L107,154 L104.625,154 C100.12,154 96,152.746 96,151.375 C96,150.375 97.5,150 101.5,150 C107.229,150 107.557,149.68 106.37,145.25 C105.699,142.746 104,142.181 104,144.462 C104,145.619 102.07,145.985 94.761,146.212 C86.893,146.457 85.473,146.76 85.188,148.25 C84.914,149.685 85.586,150 88.927,150 C91.881,150 93,150.412 93,151.5 C93,152.652 91.722,153 87.5,153 C83.278,153 82,152.652 82,151.5 C82,150.667 81.111,150 80,150 C78.889,150 78,150.667 78,151.5 C78,152.555 76.934,153 74.406,153 C71.654,153 70.69,153.468 70.29,155 C70.002,156.1 69.144,157 68.383,157 C67.373,157 67,158.484 67,162.5 C67,166.722 66.652,168 65.5,168 C64.425,168 64,169.097 64,171.875 C64,177.772 62.904,182 61.375,182 C60.339,182 60,183.727 60,189 C60,194.273 59.661,196 58.625,196 C57.196,196 56,200.159 56,205.125 C56,207.014 55.486,208 54.5,208 C53.452,208 53,209.056 53,211.5 C53,213.813 52.531,215 51.617,215 C50.101,215 49.035,217.968 49.014,222.25 C49.005,224.022 48.466,225 47.5,225 C46.667,225 46,225.889 46,227 C46,228.333 45.333,229 44,229 C42.333,229 42,229.667 42,233 C42,235.789 41.57,237 40.579,237 C39.798,237 38.872,238.308 38.521,239.906 C37.813,243.126 34.731,244.473 30.5,243.411 C27.815,242.737 27.013,240 29.5,240 C30.548,240 31,238.944 31,236.5 C31,233.667 31.381,233 33,233 C34.333,233 35,232.333 35,231 C35,229.889 35.667,229 36.5,229 C37.548,229 38,227.944 38,225.5 C38,222.667 38.381,222 40,222 C41.667,222 42,221.333 42,218 C42,215.211 42.43,214 43.42,214 C44.431,214 45.042,212.123 45.537,207.5 C46.022,202.968 46.652,201 47.616,201 C48.625,201 49,199.524 49,195.55 C49,191.465 49.425,189.862 50.696,189.15 C51.945,188.451 52.503,186.462 52.813,181.6 C53.115,176.85 53.621,175 54.616,175 C55.638,175 56,173.461 56,169.125 C56,161.342 56.94,157 58.625,157 C59.53,157 60,155.803 60,153.5 C60,150.667 59.619,150 58,150 C56.889,150 56,149.333 56,148.5 C56,147.675 55.325,147 54.5,147 C53.462,147 53,145.957 53,143.617 C53,139.249 53.864,139.031 71.25,139.014 C82.658,139.002 85,138.75 85,137.534 C85,136.354 87.1,136.012 95.75,135.784 L106.5,135.5 L106.819,132.174 C107.075,129.506 106.729,128.742 105.069,128.308 C103.931,128.01 103,127.144 103,126.383 C103,125.253 99.436,125 83.5,125 C66.833,125 64,125.218 64,126.5 C64,127.583 62.889,128 60,128 L56,128 L56.014,123.25 C56.031,117.077 56.897,114 58.617,114 C59.76,114 60,109.322 60,87 C60,60.667 60.049,60 62,60 C63.111,60 64,60.667 64,61.5 C64,62.325 64.606,63 65.347,63 C66.673,63 67.983,76.727 67.995,90.75 C67.998,93.638 68.45,96 69,96 C69.55,96 70,96.675 70,97.5 C70,98.325 69.613,99 69.14,99 C68.082,99 66.954,109.107 67.695,111.941 C68.184,113.813 68.995,114 76.617,114 C83.402,114 85,114.286 85,115.5 C85,116.738 86.833,117 95.5,117 C104.167,117 106,116.738 106,115.5 C106,114.675 105.325,114 104.5,114 C103.278,114 103,112.333 103,105 C103,98.106 102.684,96 101.648,96 C100.605,96 100.142,92.64 99.616,81.25 C98.891,65.522 99.413,60 101.625,60 C102.381,60 103,59.1 103,58 Z M182.75,117.748 L168,118.053 L168,127.027 C168,133.928 167.686,136 166.639,136 C165.249,136 164.026,142.622 164.009,150.25 C164.003,152.913 163.565,154 162.5,154 C161.365,154 161,155.226 161,159.031 C161,162.581 160.558,164.232 159.5,164.638 C156.78,165.682 157.814,168 161,168 C163.078,168 164,168.49 164,169.594 C164,170.47 164.9,171.423 166,171.71 C167.1,171.998 168,172.856 168,173.617 C168,174.531 169.187,175 171.5,175 C173.813,175 175,175.469 175,176.383 C175,178.096 178.073,178.969 184.162,178.986 L188.824,179 L189.5,175 C189.915,172.541 190.72,171 191.588,171 C192.661,171 193,169.418 193,164.406 C193,158.654 193.255,157.746 195,157.29 C196.688,156.848 197,155.926 197,151.383 C197,147.474 197.378,146 198.379,146 C199.448,146 199.921,142.971 200.478,132.565 C201.198,119.133 200.927,116.806 198.691,117.221 C198.036,117.343 190.863,117.58 182.75,117.748 Z"/>
</svg>

