<svg xmlns="http://www.w3.org/2000/svg" width="300" height="300" viewBox="0 0 300 300" version="1.1">
  <defs/>
  <path d="M70,54.5 C70,53.417 71.111,53 74,53 L78,53 L78,71 C78,85.659 78.257,89 79.383,89 C81.399,89 81.971,92.243 81.986,103.75 C81.997,111.815 82.296,114 83.387,114 C84.456,114 84.862,116.411 85.164,124.553 C85.44,132.027 85.951,135.352 86.914,135.947 C87.661,136.409 88.494,139.085 88.764,141.893 C89.093,145.317 89.707,147 90.627,147 C91.382,147 92,147.675 92,148.5 C92,149.652 93.278,150 97.5,150 C102.333,150 103,149.758 103,148 C103,146.242 103.667,146 108.5,146 C112.722,146 114,145.652 114,144.5 C114,143.667 114.889,143 116,143 C117.1,143 118,142.345 118,141.545 C118,140.675 119.405,139.827 121.5,139.434 C124.682,138.837 125,138.47 125,135.389 C125,132.667 125.393,132 127,132 C128.111,132 129,131.333 129,130.5 C129,129.675 129.675,129 130.5,129 C131.433,129 132,128.056 132,126.5 C132,125.038 132.574,124 133.383,124 C134.899,124 135.965,121.032 135.986,116.75 C135.997,114.662 135.518,114 134,114 C132.889,114 132,114.667 132,115.5 C132,116.325 131.283,117 130.406,117 C129.53,117 128.577,117.9 128.29,119 C128.002,120.1 127.197,121 126.5,121 C125.803,121 124.998,121.9 124.71,123 C124.274,124.67 123.346,125 119.094,125 C114.667,125 114,124.738 114,123 C114,121.889 113.333,121 112.5,121 C111.675,121 111,120.325 111,119.5 C111,118.675 111.675,118 112.5,118 C113.333,118 114,117.111 114,116 C114,114.9 114.623,114 115.383,114 C116.144,114 117.002,113.1 117.29,112 C117.603,110.803 118.654,110 119.906,110 C121.101,110 122,109.356 122,108.5 C122,107.367 123.222,107 127,107 C131.333,107 132,106.733 132,105 C132,103.381 132.667,103 135.5,103 C137.813,103 139,102.531 139,101.617 C139,100.856 139.9,99.998 141,99.71 C142.1,99.423 143,98.47 143,97.594 C143,96.717 143.675,96 144.5,96 C145.412,96 146,95.069 146,93.625 C146,89.12 147.254,85 148.625,85 C149.381,85 150,84.325 150,83.5 C150,82.371 151.209,82 154.883,82 C159.102,82 159.849,82.306 160.37,84.25 C161.376,88.007 161.09,89 159,89 C157.889,89 157,89.667 157,90.5 C157,91.718 158.645,92.003 165.75,92.014 C175.791,92.029 179,92.66 179,94.617 C179,95.531 180.187,96 182.5,96 C185.333,96 186,96.381 186,98 C186,99.1 186.639,100 187.421,100 C188.202,100 189.138,101.35 189.5,103 C189.862,104.65 190.798,106 191.579,106 C193.095,106 193.532,111.767 193.04,125.25 L192.793,132 L211.397,132 C227.266,132 230,131.78 230,130.5 C230,129.238 232.222,129 244,129 L258,129 L258,134 C258,137.908 257.652,139 256.406,139 C255.53,139 254.577,139.9 254.29,141 C253.831,142.756 252.926,143 246.883,143 C240.667,143 240,142.806 240,141 C240,139.107 239.333,139 227.55,139 C216.732,139 214.971,139.229 214.121,140.75 C213.313,142.196 211.396,142.56 203.072,142.844 C195.411,143.105 193,143.513 193,144.548 C193,145.312 191.464,146.198 189.5,146.566 C186.067,147.21 186,147.316 186,152.111 L186,157 L177.725,157 L178.388,151.358 L179.051,145.715 L173.775,146.349 C170.874,146.697 166.813,146.987 164.75,146.991 C162.087,146.997 161,147.435 161,148.5 C161,149.77 158.569,150 145.117,150 C130.074,150 129.206,150.106 128.71,152 C128.274,153.67 127.346,154 123.094,154 L118,154 L118,161.178 L105.258,160.87 C93.368,160.583 92.491,160.69 92.147,162.477 C91.944,163.53 92.1,170.829 92.493,178.696 C93.054,189.929 93.508,193 94.604,193 C95.747,193 96,196.262 96,211 C96,225.835 96.248,229 97.412,229 C99.153,229 100.437,235.735 99.505,239.978 C99.14,241.64 98.202,243 97.421,243 C96.639,243 96,243.9 96,245 C96,246.605 95.333,247 92.62,247 L89.241,247 L88.831,227.939 C88.501,212.625 88.134,208.701 86.96,207.977 C85.791,207.256 85.434,203.576 85.167,189.538 C84.896,175.226 84.574,172 83.417,172 C82.327,172 82,170.361 82,164.906 C82,158.654 81.763,157.751 80,157.29 C78.9,157.002 78,156.144 78,155.383 C78,154.544 76.918,153.995 75.25,153.986 C70.968,153.965 68,152.899 68,151.383 C68,150.623 68.398,150 68.883,150 C69.369,150 70.002,149.1 70.29,148 C70.603,146.803 71.654,146 72.906,146 C74.101,146 75,145.356 75,144.5 C75,143.675 75.675,143 76.5,143 C77.7,143 78,141.5 78,135.5 C78,129.841 77.666,128 76.639,128 C74.896,128 74.02,120.928 74.009,106.75 C74.002,97.865 73.74,96 72.5,96 C71.311,96 71,94.561 71,89.05 C71,83.469 70.655,81.907 69.25,81.122 C67.766,80.292 67.449,78.313 67.166,68.072 C66.876,57.584 67.04,56 68.416,56 C69.287,56 70,55.325 70,54.5 Z M146.63,163.25 C147.207,161.1 147.694,161 157.617,161 C165.791,161 168,161.294 168,162.383 C168,163.144 167.1,164.002 166,164.29 C164.9,164.577 164,165.53 164,166.406 C164,167.561 163.036,168 160.5,168 C157.167,168 157,168.167 157,171.5 C157,173.944 156.548,175 155.5,175 C154.647,175 154,175.898 154,177.084 C154,179.1 154.397,179.157 166.168,178.834 C174.592,178.603 178.461,178.125 178.741,177.282 C179.723,174.325 193,174.57 193,177.545 C193,178.538 194.098,179 196.455,179 C199.615,179 199.966,179.3 200.57,182.522 C201.615,188.094 200.11,201 198.415,201 C197.465,201 197,202.149 197,204.5 C197,206.944 196.548,208 195.5,208 C194.675,208 194,208.717 194,209.594 C194,210.47 193.1,211.423 192,211.71 C186.924,213.038 192.903,215.405 200.032,214.891 C201.94,214.753 205.188,214.721 207.25,214.82 C210.835,214.992 211,215.154 211,218.5 L211,222 L200,222 C191.301,222 189,222.289 189,223.383 C189,224.899 186.032,225.965 181.75,225.986 C179.978,225.995 179,226.534 179,227.5 C179,228.555 177.934,229 175.406,229 C172.654,229 171.69,229.468 171.29,231 C171.002,232.1 170.144,233 169.383,233 C168.623,233 168,233.9 168,235 C168,237.199 167.686,237.287 163.125,236.375 C161.406,236.031 160,235.131 160,234.375 C160,233.619 159.325,233 158.5,233 C157.31,233 157,231.556 157,226 C157,220.709 156.663,219 155.617,219 C154.626,219 154.036,216.878 153.532,211.5 C153.02,206.032 152.446,204 151.415,204 C150.367,204 150,202.575 150,198.5 C150,194.484 149.627,193 148.617,193 C146.558,193 146.027,189.724 146.027,177 C146.027,170.675 146.299,164.488 146.63,163.25 Z M164,101.5 C164,102.633 162.778,103 159,103 C154.667,103 154,103.267 154,105 C154,106.333 153.333,107 152,107 C150.9,107 150,107.623 150,108.383 C150,109.144 149.1,110.002 148,110.29 C146.9,110.577 146,111.53 146,112.406 C146,113.283 145.325,114 144.5,114 C143.348,114 143,115.278 143,119.5 C143,123.646 142.642,125 141.545,125 C140.675,125 139.827,126.405 139.434,128.5 C139.058,130.505 138.184,132 137.389,132 C136.625,132 136,132.717 136,133.594 C136,134.47 135.1,135.423 134,135.71 C132.479,136.108 132,137.074 132,139.742 L132,143.251 L140.583,142.8 C146.545,142.487 149.434,141.915 150.045,140.925 C150.692,139.876 153.705,139.41 161.462,139.159 C169.699,138.892 172,138.51 172,137.409 C172,136.439 173.208,136 175.875,136 C178.006,136 181.156,135.719 182.875,135.375 L186,134.75 L186,124.375 C186,115.963 185.725,114 184.545,114 C183.675,114 182.827,112.595 182.434,110.5 C181.858,107.429 181.412,107 178.795,107 C176.654,107 175.665,106.436 175.29,105 C174.897,103.497 173.926,103 171.383,103 C169.043,103 168,102.538 168,101.5 C168,100.667 167.111,100 166,100 C164.889,100 164,100.667 164,101.5 Z M168,187.455 C168,188.325 166.595,189.173 164.5,189.566 L161,190.223 L161,199.111 C161,206.346 161.279,208 162.5,208 C163.631,208 164,209.216 164,212.941 C164,215.659 164.338,218.091 164.751,218.346 C166.411,219.372 175,217.716 175,216.37 C175,215.616 175.9,215 177,215 C178.1,215 179,214.377 179,213.617 C179,212.856 179.9,211.998 181,211.71 C182.1,211.423 183,210.47 183,209.594 C183,208.717 183.675,208 184.5,208 C185.333,208 186,207.111 186,206 C186,204.9 186.625,204 187.389,204 C188.184,204 189.058,202.505 189.434,200.5 C189.827,198.405 190.675,197 191.545,197 C192.642,197 193,195.646 193,191.5 L193,186 L180.5,186 C170.229,186 168,186.259 168,187.455 Z M146,61.5 C146,60.227 148.5,60 162.5,60 C175.882,60 179,60.261 179,61.383 C179,62.144 179.9,63.002 181,63.29 C182.655,63.723 182.998,64.647 182.986,68.656 C182.964,76.587 182.268,78 178.383,78 C175.183,78 175,77.81 175,74.5 L175,71 L157.5,71 C142.611,71 140,71.224 140,72.5 C140,73.583 138.889,74 136,74 C132.667,74 132,74.333 132,76 C132,77.758 131.333,78 126.5,78 L121,78 L121,74.5 C121,71.964 121.439,71 122.594,71 C123.47,71 124.423,70.1 124.71,69 C125,67.893 126.074,67 127.117,67 C128.152,67 129,66.388 129,65.639 C129,64.286 135.574,63.028 142.75,63.009 C144.968,63.003 146,62.524 146,61.5 Z M45.625,128.125 C46.144,125.531 46.719,125 49.008,125 C52.443,125 52.968,126.677 52.986,137.7 C52.998,144.479 52.697,146.07 51.25,146.88 C48.64,148.341 48.762,158.374 51.412,160.312 C53.571,161.89 52.986,165 50.531,165 C49.689,165 49,165.675 49,166.5 C49,167.325 48.325,168 47.5,168 C46.675,168 46,167.325 46,166.5 C46,165.667 45.111,165 44,165 C42.103,165 42,164.333 42,152 C42,141.111 42.244,139 43.5,139 C44.575,139 45,137.903 45,135.125 C45,132.994 45.281,129.844 45.625,128.125 Z"/>
</svg>

