<svg xmlns="http://www.w3.org/2000/svg" width="300" height="300" viewBox="0 0 300 300" version="1.1">
  <defs/>
  <path d="M96,34.5 L96,31 L101.5,31 C106.333,31 107,31.242 107,33 C107,34.111 107.667,35 108.5,35 C109.325,35 110,35.675 110,36.5 C110,37.325 109.325,38 108.5,38 C107.667,38 107,38.889 107,40 C107,41.341 106.333,42 104.975,42 C103.013,42 102.954,42.563 103.04,60.25 C103.14,80.691 103.587,85 105.611,85 C106.565,85 107,86.254 107,89 C107,91.889 107.417,93 108.5,93 C109.325,93 110,93.675 110,94.5 C110,95.767 112.333,96 125,96 C137.667,96 140,95.767 140,94.5 C140,93.675 140.45,93 141,93 C141.55,93 142,93.675 142,94.5 C142,95.333 142.889,96 144,96 C145.512,96 146.003,95.329 146.014,93.25 C146.035,88.968 147.101,86 148.617,86 C149.671,86 150,84.219 150,78.5 C150,72.841 150.334,71 151.361,71 C152.751,71 153.974,64.378 153.991,56.75 C153.997,54.087 154.435,53 155.5,53 C156.333,53 157,52.111 157,51 C157,49.667 157.667,49 159,49 C160.111,49 161,48.333 161,47.5 C161,46.675 161.675,46 162.5,46 C163.325,46 164,46.675 164,47.5 C164,48.333 164.889,49 166,49 C167.822,49 168,49.667 168,56.5 C168,62.5 167.7,64 166.5,64 C165.675,64 165,64.675 165,65.5 C165,66.738 166.833,67 175.5,67 C183.773,67 186,67.293 186,68.383 C186,69.959 189,70.966 193.75,70.986 C196.338,70.997 197,70.593 197,69 C197,67.889 197.667,67 198.5,67 C199.325,67 200,66.325 200,65.5 C200,64.456 201.051,64 203.455,64 C206.611,64 206.966,64.302 207.566,67.5 C207.927,69.425 208.789,71 209.481,71 C210.233,71 210.946,72.833 211.253,75.554 C211.536,78.059 212.465,80.647 213.318,81.304 C214.496,82.212 214.733,83.645 214.305,87.25 C213.994,89.862 213.348,92 212.87,92 C212.391,92 212,92.9 212,94 C212,95.924 212.667,96 229.5,96 C244.389,96 247,95.776 247,94.5 C247,93.312 248.432,93 253.892,93 C260.409,93 260.817,93.136 261.411,95.5 C262.55,100.039 261.138,102.883 257.398,103.585 C255.529,103.936 254,104.623 254,105.111 C254,105.6 253.325,106 252.5,106 C251.675,106 251,105.327 251,104.504 C251,103.229 248.625,103.04 234.926,103.225 C222.446,103.394 218.678,103.752 218.077,104.827 C217.651,105.589 215.249,106.443 212.74,106.726 C208.489,107.205 208.134,107.471 207.543,110.62 C207.168,112.62 206.316,114 205.455,114 C204.459,114 204,115.104 204,117.5 C204,119.944 203.548,121 202.5,121 C201.675,121 201,121.717 201,122.594 C201,123.47 200.1,124.423 199,124.71 C197.497,125.103 197,126.074 197,128.617 C197,131.333 196.606,132 195,132 C193.667,132 193,132.667 193,134 C193,135.111 192.333,136 191.5,136 C190.675,136 190,136.717 190,137.594 C190,138.47 189.1,139.423 188,139.71 C186.9,139.998 186,140.578 186,141 C186,142.509 190.732,142.973 206.25,142.986 L222,143 L222,150 L197,150 C176.136,150 172,149.766 172,148.588 C172,147.72 170.459,146.915 168,146.5 C165.541,146.085 164,145.28 164,144.412 C164,143.465 162.848,143 160.5,143 C158.104,143 157,142.541 157,141.545 C157,140.675 155.595,139.827 153.5,139.434 C151.575,139.073 150,138.205 150,137.505 C150,136.806 149.1,135.998 148,135.71 C146.9,135.423 146,134.47 146,133.594 C146,132.717 145.325,132 144.5,132 C143.675,132 143,131.283 143,130.406 C143,129.53 142.1,128.577 141,128.29 C139.497,127.897 139,126.926 139,124.383 C139,122.043 138.538,121 137.5,121 C136.452,121 136,119.944 136,117.5 C136,115.056 136.452,114 137.5,114 C138.55,114 139,112.941 139,110.469 C139,108.252 139.559,106.723 140.5,106.362 C141.325,106.045 142,105.159 142,104.393 C142,103.233 136.993,103 112.117,103 C83.074,103 82.219,103.056 81.71,105 C81.254,106.745 80.346,107 74.594,107 C69.582,107 68,107.339 68,108.412 C68,109.28 66.459,110.085 64,110.5 C61.541,110.915 60,111.72 60,112.588 C60,113.526 58.863,114 56.611,114 C53.53,114 53.163,114.318 52.566,117.5 C52.173,119.595 51.325,121 50.455,121 C49.655,121 49,121.9 49,123 C49,124.111 48.333,125 47.5,125 C46.452,125 46,126.056 46,128.5 C46,131.81 45.817,132 42.617,132 C39.722,132 39.156,131.603 38.7,129.25 C37.954,125.41 38.984,121 40.625,121 C41.53,121 42,119.803 42,117.5 C42,114.667 42.381,114 44,114 C45.111,114 46,113.333 46,112.5 C46,111.675 46.675,111 47.5,111 C48.325,111 49,110.15 49,109.111 C49,107.745 49.967,107.041 52.5,106.566 C54.595,106.173 56,105.325 56,104.455 C56,103.459 57.104,103 59.5,103 C61.796,103 63,102.529 63,101.631 C63,100.169 67.894,99.03 74.25,99.011 C76.912,99.003 78,98.565 78,97.5 C78,96.262 79.833,96 88.5,96 L99,96 L99,92.5 C99,90.056 98.548,89 97.5,89 C96.227,89 96,86.5 96,72.5 C96,58.5 95.773,56 94.5,56 C93.278,56 93,54.333 93,47 C93,39.667 93.278,38 94.5,38 C95.548,38 96,36.944 96,34.5 Z M135.822,145.75 C136.221,143.185 136.577,143 141.125,143 L146,143 L146,155.5 C146,167.333 146.107,168 148,168 C149.1,168 150,167.377 150,166.617 C150,164.897 153.077,164.031 159.25,164.014 C162.799,164.003 164,163.621 164,162.5 C164,161.236 166.278,161 178.5,161 C190.722,161 193,161.236 193,162.5 C193,163.523 194.034,164.004 196.25,164.014 C201,164.034 204,165.041 204,166.617 C204,167.377 204.9,168 206,168 C207.733,168 208,168.667 208,173 C208,176.778 208.367,178 209.5,178 C210.797,178 211,181.722 211,205.5 C211,229.278 210.797,233 209.5,233 C208.425,233 208,234.097 208,236.875 C208,242.772 206.904,247 205.375,247 C204.375,247 204,248.5 204,252.5 L204,258 L207.5,258 C209.944,258 211,258.452 211,259.5 C211,260.333 211.889,261 213,261 C214.333,261 215,261.667 215,263 C215,264.619 215.667,265 218.5,265 C220.896,265 222,265.459 222,266.455 C222,267.325 223.405,268.173 225.5,268.566 C227.505,268.942 229,269.816 229,270.611 C229,271.375 229.9,272 231,272 C232.333,272 233,272.667 233,274 C233,275.619 233.667,276 236.5,276 C239.333,276 240,276.381 240,278 C240,279.1 240.623,280 241.383,280 C243.103,280 243.969,283.077 243.986,289.25 L244,294 L238.5,294 C234.278,294 233,293.652 233,292.5 C233,291.675 233.675,291 234.5,291 C235.544,291 236,289.949 236,287.545 C236,284.389 235.698,284.034 232.5,283.434 C230.563,283.071 229,282.178 229,281.434 C229,280.69 227.437,279.797 225.5,279.434 C223.495,279.058 222,278.184 222,277.389 C222,276.468 220.82,276 218.5,276 C216.187,276 215,275.531 215,274.617 C215,273.856 214.1,272.998 213,272.71 C211.9,272.423 211,271.47 211,270.594 C211,269.344 209.9,269 205.906,269 C201.654,269 200.726,268.67 200.29,267 C199.897,265.497 198.926,265 196.383,265 C194.043,265 193,264.538 193,263.5 C193,262.534 192.022,261.995 190.25,261.986 C185.968,261.965 183,260.899 183,259.383 C183,258.436 181.739,258 179,258 C175.095,258 175,258.083 175,261.5 C175,263.944 174.548,265 173.5,265 C172.675,265 172,265.717 172,266.594 C172,267.47 171.1,268.423 170,268.71 C168.9,268.998 168,269.856 168,270.617 C168,271.377 167.283,272 166.406,272 C165.53,272 164.577,272.9 164.29,274 C163.922,275.407 162.926,276 160.929,276 C158.477,276 158.001,276.476 157.434,279.5 C157.073,281.425 156.203,283 155.5,283 C154.797,283 153.936,284.525 153.587,286.39 C152.92,289.943 151.187,290.959 145.75,290.986 C143.206,290.999 143,290.7 143,287 C143,284.261 143.436,283 144.383,283 C145.144,283 146.002,282.1 146.29,281 C146.577,279.9 147.53,279 148.406,279 C149.283,279 150,278.325 150,277.5 C150,276.675 150.623,276 151.383,276 C152.144,276 153.002,275.1 153.29,274 C153.577,272.9 154.53,272 155.406,272 C156.283,272 157,271.377 157,270.617 C157,269.856 157.9,268.998 159,268.71 C160.1,268.423 161,267.47 161,266.594 C161,265.717 161.625,265 162.389,265 C163.184,265 164.058,263.505 164.434,261.5 C164.827,259.405 165.675,258 166.545,258 C167.345,258 168,257.1 168,256 C168,254.667 168.667,254 170,254 C171.111,254 172,253.333 172,252.5 C172,251.675 172.675,251 173.5,251 C174.333,251 175,250.111 175,249 C175,247.667 175.667,247 177,247 C178.333,247 179,246.333 179,245 C179,243.889 179.667,243 180.5,243 C181.325,243 182,242.325 182,241.5 C182,240.452 180.944,240 178.5,240 C176.187,240 175,240.469 175,241.383 C175,243.103 171.923,243.969 165.75,243.986 C162.201,243.997 161,244.379 161,245.5 C161,246.333 160.111,247 159,247 C157.9,247 157,247.623 157,248.383 C157,249.144 155.988,250.038 154.75,250.37 C151.819,251.155 143.606,251.17 141.582,250.393 C139.49,249.59 139.419,244 141.5,244 C142.333,244 143,243.111 143,242 C143,240.242 143.667,240 148.5,240 C152.516,240 154,239.627 154,238.617 C154,236.897 157.077,236.031 163.25,236.014 C166.799,236.003 168,235.621 168,234.5 C168,233.278 169.667,233 177,233 C185.333,233 186,232.852 186,231 C186,229.242 186.667,229 191.5,229 C195.722,229 197,228.652 197,227.5 C197,226.675 197.648,226 198.441,226 C200.694,226 201.261,224.225 200.542,219.429 C200.11,216.55 199.374,215 198.439,215 C197.461,215 197,213.878 197,211.5 L197,208 L191.5,208 C187.278,208 186,208.348 186,209.5 C186,210.652 184.722,211 180.5,211 C175.667,211 175,211.242 175,213 C175,214.619 174.333,215 171.5,215 C169.056,215 168,215.452 168,216.5 C168,217.548 166.944,218 164.5,218 C161.667,218 161,218.381 161,220 C161,221.667 160.333,222 157,222 C154.111,222 153,221.583 153,220.5 C153,219.675 152.325,219 151.5,219 C150.667,219 150,218.111 150,217 C150,215.9 150.625,215 151.389,215 C152.181,215 153.056,213.514 153.427,211.538 C153.985,208.564 154.564,207.985 157.538,207.427 C159.514,207.056 161,206.181 161,205.389 C161,204.372 162.474,204 166.5,204 C170.516,204 172,203.627 172,202.617 C172,201.028 175.006,200.033 179.867,200.014 C182.868,200.001 183.168,199.756 182.63,197.75 C182.299,196.512 182.021,194.938 182.014,194.25 C181.993,192.392 179.246,192.738 178.126,194.739 C177.357,196.113 175.457,196.555 169.076,196.845 C163.012,197.12 161,197.559 161,198.606 C161,199.566 159.754,200 157,200 C154.111,200 153,199.583 153,198.5 C153,197.452 151.944,197 149.5,197 L146,197 L146,206.375 C146,217.511 146.754,222 148.625,222 C149.521,222 150,223.179 150,225.383 C150,227.926 149.503,228.897 148,229.29 C146.9,229.577 146,230.53 146,231.406 C146,232.283 145.325,233 144.5,233 C143.675,233 143,232.325 143,231.5 C143,230.675 142.283,230 141.406,230 C140.53,230 139.577,229.1 139.29,228 C139.002,226.9 138.144,226 137.383,226 C137.165,226 136.978,226.043 136.818,225.996 C135.809,225.699 135.843,221.852 135.596,181.5 C135.485,163.35 135.586,147.262 135.822,145.75 Z M150,8 C150,6.178 150.667,6 157.5,6 C163.396,6 165,6.311 165,7.455 C165,8.325 166.405,9.173 168.5,9.566 C171.905,10.205 172,10.348 171.986,14.861 C171.968,20.928 171.094,24 169.383,24 C168.623,24 168,24.964 168,26.142 C168,28.17 168.331,28.25 174.147,27.642 C177.527,27.289 183.827,27 188.147,27 C194.461,27 196,26.706 196,25.5 C196,24.212 199.111,24 218,24 C239.333,24 240,24.061 240,26 C240,27.333 240.667,28 242,28 C243.773,28 244,28.667 244,33.875 C244,41.658 243.06,46 241.375,46 C240.339,46 240,47.727 240,53 C240,58.263 239.66,60 238.629,60 C237.621,60 237.071,62.385 236.554,69 C236.034,75.649 235.489,78 234.469,78 C233.448,78 233.011,79.89 232.794,85.239 C232.468,93.264 231.95,93.776 225.4,92.547 C222.313,91.968 222,91.592 222,88.455 C222,86.208 222.476,85 223.361,85 C224.85,85 225.976,78.255 225.991,69.25 C225.998,65.254 226.358,64 227.5,64 C228.7,64 229,62.5 229,56.5 C229,50.781 229.329,49 230.383,49 C232.103,49 232.969,45.923 232.986,39.75 L233,35 L229.469,35 C227.252,35 225.723,34.441 225.362,33.5 C224.665,31.684 219.339,31.483 218.751,33.25 C218.442,34.178 213.275,34.584 198.668,34.826 C182.474,35.095 179,35.404 179,36.576 C179,37.642 177.553,38.002 173.25,38.009 C163.782,38.023 157,39.121 157,40.639 C157,41.655 155.255,42 150.117,42 C144.074,42 143.169,42.244 142.71,44 C142.254,45.745 141.346,46 135.594,46 C130.399,46 129,46.318 129,47.5 C129,48.583 127.889,49 125,49 C121.667,49 121,49.333 121,51 C121,52.619 120.333,53 117.5,53 C114.167,53 114,53.167 114,56.5 C114,59.333 113.619,60 112,60 C110.667,60 110,59.333 110,58 C110,56.889 109.333,56 108.5,56 C107.368,56 107,54.783 107,51.045 C107,46.175 107.059,46.08 110.5,45.434 C112.505,45.058 114,44.184 114,43.389 C114,42.468 115.18,42 117.5,42 C119.813,42 121,41.531 121,40.617 C121,38.858 124.098,38.031 130.75,38.014 C134.744,38.003 136,37.641 136,36.5 C136,35.379 137.201,34.997 140.75,34.986 C146.923,34.969 150,34.103 150,32.383 C150,31.469 151.187,31 153.5,31 C155.813,31 157,30.531 157,29.617 C157,28.856 157.9,27.998 159,27.71 C160.67,27.274 161,26.346 161,22.094 L161,17 L147,17 L147,13.5 C147,11.056 147.452,10 148.5,10 C149.333,10 150,9.111 150,8 Z M161,173.5 C161,174.538 159.957,175 157.617,175 C155.074,175 154.103,175.497 153.71,177 C153.332,178.448 152.346,179 150.139,179 C147.464,179 147.013,179.416 146.453,182.4 C145.59,187.001 146.178,189.411 148.261,189.812 C149.461,190.043 150,189.504 150,188.073 C150,186.047 150.438,186 169.383,186 C188.639,186 188.771,186.015 189.37,188.25 C189.701,189.488 189.979,191.717 189.986,193.205 C189.998,195.485 190.534,196.009 193.4,196.547 C198.078,197.425 200.516,196.796 200.417,194.736 C200.371,193.781 200.258,188.95 200.167,184 C200.013,175.722 199.84,175 198,175 C196.889,175 196,174.333 196,173.5 C196,172.224 193.389,172 178.5,172 C163.611,172 161,172.224 161,173.5 Z M161,81.5 C161,84.333 160.619,85 159,85 C157.407,85 157.003,85.662 157.014,88.25 C157.044,95.447 157.587,96 164.617,96 C170.669,96 171,95.877 171,93.625 C171,89.12 172.254,85 173.625,85 C174.381,85 175,84.325 175,83.5 C175,82.667 175.889,82 177,82 C178.111,82 179,82.667 179,83.5 C179,84.325 179.675,85 180.5,85 C181.583,85 182,86.111 182,89 C182,91.889 181.583,93 180.5,93 C179.675,93 179,93.675 179,94.5 C179,95.722 180.667,96 188,96 C195.333,96 197,96.278 197,97.5 C197,98.325 197.675,99 198.5,99 C199.325,99 200,98.325 200,97.5 C200,96.667 200.889,96 202,96 C203.806,96 204,95.333 204,89.111 L204,82.223 L200.5,81.566 C198.405,81.173 197,80.325 197,79.455 C197,78.256 194.709,78 184,78 C171.667,78 171,78.103 171,80 C171,81.569 170.333,82 167.906,82 C165.654,82 164.671,81.456 164.29,80 C163.386,76.544 161,77.632 161,81.5 Z M151.75,103.689 C150.233,104.086 150,105.455 150,113.957 C150,122.926 150.171,123.812 152,124.29 C153.1,124.577 154,125.48 154,126.295 C154,127.197 155.369,128.034 157.5,128.434 C159.595,128.827 161,129.675 161,130.545 C161,131.541 162.104,132 164.5,132 L168,132 L168,124.5 C168,118.816 168.332,117 169.37,117 C170.255,117 170.922,115.38 171.256,112.422 C171.929,106.454 171.298,104.314 168.658,103.606 C166.193,102.945 154.376,103.003 151.75,103.689 Z M179,114 C179,119.293 178.663,121 177.617,121 C175.897,121 175.031,124.077 175.014,130.25 C175.003,133.799 174.621,135 173.5,135 C172.667,135 172,135.889 172,137 C172,138.727 172.667,139 176.889,139 C181.684,139 181.79,138.933 182.434,135.5 C182.827,133.405 183.675,132 184.545,132 C185.345,132 186,131.1 186,130 C186,128.667 186.667,128 188,128 C189.111,128 190,127.333 190,126.5 C190,125.675 190.675,125 191.5,125 C192.55,125 193,123.941 193,121.469 C193,119.319 193.563,117.721 194.439,117.385 C195.23,117.081 196.166,115.521 196.518,113.916 C196.871,112.312 197.798,111 198.579,111 C199.361,111 200,110.1 200,109 C200,107.127 199.333,107 189.5,107 L179,107 Z M192.25,243.713 C191.012,243.947 190,244.825 190,245.663 C190,246.501 189.1,247.423 188,247.71 C184.953,248.507 185.609,249.836 189.4,250.547 C195.064,251.61 196.5,250.907 196.5,247.07 C196.5,243.488 195.908,243.02 192.25,243.713 Z"/>
</svg>

