<svg xmlns="http://www.w3.org/2000/svg" width="300" height="300" viewBox="0 0 300 300" version="1.1">
  <defs/>
  <path d="M177,32.5 C177,30.493 181.399,30.542 183.429,32.571 C184.293,33.436 185,35.176 185,36.438 C185,38.656 185.23,38.717 191.864,38.242 C195.639,37.972 198.936,38.144 199.19,38.625 C199.444,39.106 199.457,43.212 199.22,47.75 C198.896,53.932 198.439,56 197.394,56 C196.461,56 196,57.187 196,59.594 C196,62.346 195.532,63.31 194,63.71 C192.497,64.103 192,65.074 192,67.617 C192,69.837 191.523,71 190.611,71 C189.816,71 188.942,72.495 188.566,74.5 C188.203,76.437 187.31,78 186.566,78 C185.822,78 184.929,79.563 184.566,81.5 C184.173,83.595 183.325,85 182.455,85 C181.655,85 181,85.9 181,87 C181,88.111 180.333,89 179.5,89 C178.675,89 178,89.675 178,90.5 C178,91.722 179.667,92 187,92 C195.333,92 196,92.148 196,94 C196,95.619 196.667,96 199.5,96 C202.333,96 203,96.381 203,98 C203,99.1 203.639,100 204.421,100 C205.202,100 206.138,101.35 206.5,103 C206.862,104.65 207.798,106 208.579,106 C209.721,106 210,108.162 210,117 C210,125.816 209.719,128 208.585,128 C207.554,128 206.98,130.032 206.468,135.5 C205.964,140.878 205.374,143 204.383,143 C203.622,143 203,143.9 203,145 C203,146.333 202.333,147 201,147 C199.889,147 199,147.667 199,148.5 C199,149.325 198.325,150 197.5,150 C196.675,150 196,149.283 196,148.406 C196,147.53 195.1,146.577 194,146.29 C192.497,145.897 192,144.926 192,142.383 C192,139.667 192.394,139 194,139 C195.333,139 196,138.333 196,137 C196,135.889 196.667,135 197.5,135 C198.753,135 199,132.944 199,122.5 C199,112.056 198.753,110 197.5,110 C196.675,110 196,109.325 196,108.5 C196,107.667 195.111,107 194,107 C192.667,107 192,106.333 192,105 C192,103.148 191.333,103 183,103 C174.667,103 174,103.148 174,105 C174,106.1 174.655,107 175.455,107 C176.325,107 177.173,108.405 177.566,110.5 C177.942,112.505 178.816,114 179.611,114 C180.375,114 181,114.949 181,116.108 C181,117.835 180.565,118.108 178.598,117.614 C177.276,117.282 174.801,117.29 173.098,117.63 C170.368,118.176 170,118.651 170,121.625 C170,124.769 170.223,124.999 173.25,124.986 C178,124.966 181,123.959 181,122.383 C181,121.373 182.484,121 186.5,121 L192,121 L192,125 C192,127.789 191.57,129 190.579,129 C189.798,129 188.862,130.35 188.5,132 C188.138,133.65 187.202,135 186.421,135 C185.639,135 185,135.9 185,137 C185,138.333 184.333,139 183,139 C181.667,139 181,139.667 181,141 C181,142.111 180.333,143 179.5,143 C178.675,143 178,143.717 178,144.594 C178,145.47 177.1,146.423 176,146.71 C174.9,146.998 174,147.856 174,148.617 C174,149.377 173.1,150 172,150 C170.667,150 170,150.667 170,152 C170,153.111 169.333,154 168.5,154 C167.675,154 167,154.675 167,155.5 C167,156.333 166.111,157 165,157 C163.667,157 163,157.667 163,159 C163,160.111 162.333,161 161.5,161 C160.675,161 160,161.675 160,162.5 C160,163.333 159.111,164 158,164 C156.667,164 156,164.667 156,166 C156,167.333 155.333,168 154,168 C152.667,168 152,168.667 152,170 C152,171.111 151.333,172 150.5,172 C149.675,172 149,172.675 149,173.5 C149,174.333 148.111,175 147,175 C145.667,175 145,175.667 145,177 C145,178.333 144.333,179 143,179 C141.889,179 141,179.667 141,180.5 C141,181.325 140.325,182 139.5,182 C138.667,182 138,182.889 138,184 C138,185.619 137.333,186 134.5,186 C131.667,186 131,186.381 131,188 C131,189.111 130.333,190 129.5,190 C128.675,190 128,190.675 128,191.5 C128,192.333 127.111,193 126,193 C124.333,193 124,193.667 124,197 C124,200.333 123.667,201 122,201 C120.889,201 120,201.667 120,202.5 C120,203.652 118.722,204 114.5,204 L109,204 L109,200.406 C109,197.654 109.468,196.69 111,196.29 C112.1,196.002 113,195.144 113,194.383 C113,193.623 113.675,193 114.5,193 C115.325,193 116,192.325 116,191.5 C116,190.667 116.889,190 118,190 C119.333,190 120,189.333 120,188 C120,186.667 120.667,186 122,186 C123.1,186 124,185.361 124,184.579 C124,183.798 125.35,182.862 127,182.5 C128.65,182.138 130,181.202 130,180.421 C130,179.639 130.9,179 132,179 C133.333,179 134,178.333 134,177 C134,175.667 134.667,175 136,175 C137.333,175 138,174.333 138,173 C138,171.889 138.667,171 139.5,171 C140.325,171 141,170.325 141,169.5 C141,168.675 141.848,168 142.883,168 C143.926,168 145,167.107 145.29,166 C145.577,164.9 146.53,164 147.406,164 C148.283,164 149,163.325 149,162.5 C149,161.675 149.675,161 150.5,161 C151.333,161 152,160.111 152,159 C152,157.667 152.667,157 154,157 C155.333,157 156,156.333 156,155 C156,153.889 156.667,153 157.5,153 C158.325,153 159,152.325 159,151.5 C159,150.667 159.889,150 161,150 C162.333,150 163,149.333 163,148 C163,146.9 163.639,146 164.421,146 C165.202,146 166.128,144.696 166.478,143.102 C166.848,141.416 167.927,139.991 169.057,139.695 C170.126,139.416 171,138.47 171,137.594 C171,136.277 169.696,136 163.5,136 C157.5,136 156,136.3 156,137.5 C156,138.722 154.333,139 147,139 C139.667,139 138,138.722 138,137.5 C138,136.675 137.325,136 136.5,136 C135.675,136 135,136.675 135,137.5 C135,138.583 133.889,139 131,139 C127.667,139 127,139.333 127,141 C127,142.619 126.333,143 123.5,143 C120.667,143 120,142.619 120,141 C120,139.889 119.333,139 118.5,139 C117.675,139 117,138.325 117,137.5 C117,136.675 117.675,136 118.5,136 C119.652,136 120,134.722 120,130.5 C120,125.667 119.758,125 118,125 C116.889,125 116,125.667 116,126.5 C116,127.325 115.325,128 114.5,128 C113.667,128 113,128.889 113,130 C113,131.333 112.333,132 111,132 C109.9,132 109,132.623 109,133.383 C109,134.669 106.16,135.955 103.25,135.986 C102.563,135.994 102,135.1 102,134 C102,132.667 101.333,132 100,132 C97.891,132 97.359,128.992 98.63,124.25 C99.301,121.747 102,121.146 102,123.5 C102,124.548 103.056,125 105.5,125 C108.333,125 109,124.619 109,123 C109,121.667 109.667,121 111,121 C112.619,121 113,120.333 113,117.5 C113,115.056 113.452,114 114.5,114 C115.652,114 116,112.722 116,108.5 L116,103 L100,103 C84.667,103 84,103.083 84,105 C84,106.111 83.333,107 82.5,107 C81.452,107 81,108.056 81,110.5 C81,112.944 81.452,114 82.5,114 C83.722,114 84,115.667 84,123 C84,129.914 84.315,132 85.358,132 C86.897,132 88,139.989 88,151.147 C88,156.572 88.313,158 89.5,158 C90.698,158 91,159.486 91,165.375 C91,174.589 91.85,179 93.625,179 C94.739,179 95,182.318 95,196.5 C95,211.389 95.224,214 96.5,214 C97.649,214 98,215.269 98,219.421 C98,224.63 97.883,224.867 95,225.5 C93.35,225.862 92,226.741 92,227.452 C92,228.187 90.274,229.02 88,229.384 C85.8,229.736 84,230.412 84,230.887 C84,231.362 82.539,232.042 80.754,232.399 C78.354,232.879 77.196,232.621 76.309,231.407 C75.631,230.481 73.125,229.543 70.554,229.253 C67.833,228.946 66,228.233 66,227.481 C66,226.789 64.425,225.927 62.5,225.566 C59.475,224.998 59,224.524 59,222.066 C59,219.608 58.525,219.134 55.5,218.566 C53.405,218.173 52,217.325 52,216.455 C52,215.655 51.1,215 50,215 C48.667,215 48,214.333 48,213 C48,211.9 47.345,211 46.545,211 C45.675,211 44.827,209.595 44.434,207.5 C44.073,205.575 43.203,204 42.5,204 C41.797,204 40.927,202.425 40.566,200.5 C40.173,198.405 39.325,197 38.455,197 C37.452,197 37,195.884 37,193.406 C37,190.654 37.468,189.69 39,189.29 C40.1,189.002 41,188.144 41,187.383 C41,185.117 43.717,185.816 44.37,188.25 C44.701,189.488 44.979,192.637 44.986,195.25 C44.997,198.799 45.379,200 46.5,200 C47.333,200 48,200.889 48,202 C48,203.333 48.667,204 50,204 C51.111,204 52,204.667 52,205.5 C52,206.325 52.675,207 53.5,207 C54.333,207 55,207.889 55,209 C55,210.619 55.667,211 58.5,211 C61.333,211 62,211.381 62,213 C62,214.333 62.667,215 64,215 C65.111,215 66,215.667 66,216.5 C66,217.523 67.034,218.004 69.25,218.014 C74,218.034 77,219.041 77,220.617 C77,221.606 78.392,222 81.883,222 C87.93,222 87.937,221.976 87.23,203.448 C86.832,193.037 86.41,190 85.358,190 C84.296,190 84,187.601 84,179 C84,170.333 83.708,168 82.625,168 C80.94,168 80,163.658 80,155.875 C80,151.493 79.643,150 78.594,150 C77.501,150 77.111,147.753 76.844,139.928 C76.56,131.604 76.196,129.687 74.75,128.879 C73.417,128.134 73,126.602 73,122.45 C73,118.272 72.65,117 71.5,117 C70.534,117 69.995,116.022 69.986,114.25 C69.953,107.6 69.324,107 62.383,107 C57.376,107 56,107.323 56,108.5 C56,109.333 55.111,110 54,110 C52.889,110 52,109.333 52,108.5 C52,107.667 51.111,107 50,107 C48.9,107 48,107.625 48,108.389 C48,109.184 46.505,110.058 44.5,110.434 C42.405,110.827 41,111.675 41,112.545 C41,113.642 39.646,114 35.5,114 L30,114 L30,109.117 C30,103.762 30.914,103.042 37.75,103.014 C39.966,103.004 41,102.523 41,101.5 C41,100.296 42.53,99.999 48.75,99.994 C62.553,99.983 73,98.845 73,97.352 C73,96.288 75.665,96 85.5,96 C95.376,96 98,95.714 98,94.639 C98,93.249 104.622,92.026 112.25,92.009 C114.913,92.003 116,91.565 116,90.5 C116,89.675 115.325,89 114.5,89 C113.462,89 113,87.957 113,85.617 C113,83.074 112.503,82.103 111,81.71 C109.9,81.423 109,80.47 109,79.594 C109,78.717 108.325,78 107.5,78 C106.675,78 106,78.641 106,79.425 C106,80.5 103.793,81.022 97,81.554 C90.385,82.071 88,82.621 88,83.629 C88,84.674 86.129,85 80.125,85 C70.432,85 66,85.824 66,87.625 C66,88.53 64.803,89 62.5,89 L59,89 L59,78 L62.5,78 C64.803,78 66,77.53 66,76.625 C66,75.254 70.12,74 74.625,74 C76.069,74 77,73.412 77,72.5 C77,71.675 77.675,71 78.5,71 C79.333,71 80,70.111 80,69 C80,67.667 80.667,67 82,67 C83.619,67 84,66.333 84,63.5 L84,60 L55,60 L55,56.406 C55,53.654 55.468,52.69 57,52.29 C58.1,52.002 59,51.144 59,50.383 C59,49.258 62.223,49.003 76.25,49.014 C95.59,49.029 97.589,49.321 98.353,52.241 C99.151,55.292 97.95,60 96.375,60 C95.47,60 95,61.197 95,63.5 C95,66.333 94.619,67 93,67 C91.667,67 91,67.667 91,69 C91,70.879 91.667,71 102,71 C111.111,71 113,71.258 113,72.5 C113,73.548 114.056,74 116.5,74 L120,74 L120,83 C120,90.568 120.254,92 121.594,92 C122.47,92 123.423,92.9 123.71,94 C123.998,95.1 124.856,96 125.617,96 C126.377,96 127,95.1 127,94 C127,91.079 133.946,91.079 134.71,94 C134.998,95.1 135.856,96 136.617,96 C137.377,96 138,96.9 138,98 C138,99.333 137.333,100 136,100 C134.667,100 134,100.667 134,102 C134,103.111 133.333,104 132.5,104 C131.353,104 131,105.264 131,109.375 C131,116.684 130.025,121 128.375,121 C126.785,121 126.418,127.522 127.954,128.472 C129.516,129.437 134,127.895 134,126.392 C134,125.287 136.27,125 145,125 C155.333,125 156,124.879 156,123 C156,121.667 156.667,121 158,121 C159.111,121 160,120.333 160,119.5 C160,118.675 160.625,118 161.389,118 C162.184,118 163.058,116.505 163.434,114.5 C163.827,112.405 164.675,111 165.545,111 C166.345,111 167,110.1 167,109 C167,107.194 166.333,107 160.117,107 C154.074,107 153.169,106.756 152.71,105 C152.397,103.803 151.346,103 150.094,103 C148.942,103 148,102.361 148,101.579 C148,100.798 146.65,99.862 145,99.5 C142.162,98.877 142,98.575 142,93.921 L142,89 L147,89 C150.639,89 152,89.384 152,90.412 C152,91.28 153.541,92.085 156,92.5 C158.459,92.915 160,93.72 160,94.588 C160,95.365 160.9,96 162,96 C163.1,96 164,95.361 164,94.579 C164,93.798 165.321,92.869 166.935,92.514 C169.139,92.03 170.03,91.139 170.514,88.935 C170.869,87.321 171.798,86 172.579,86 C173.428,86 174,84.993 174,83.5 C174,81.979 174.57,81 175.455,81 C176.325,81 177.173,79.595 177.566,77.5 C177.942,75.495 178.816,74 179.611,74 C180.532,74 181,72.82 181,70.5 C181,67.667 181.381,67 183,67 C184.619,67 185,66.333 185,63.5 C185,61.056 185.452,60 186.5,60 C187.633,60 188,58.778 188,55 C188,51.222 187.633,50 186.5,50 C185.675,50 185,50.675 185,51.5 C185,52.333 184.111,53 183,53 C181.889,53 181,53.667 181,54.5 C181,55.325 180.325,56 179.5,56 C178.675,56 178,55.325 178,54.5 C178,53.667 177.111,53 176,53 C174.381,53 174,53.667 174,56.5 C174,59.333 173.619,60 172,60 C170.381,60 170,60.667 170,63.5 C170,65.944 169.548,67 168.5,67 C167.667,67 167,67.889 167,69 C167,70.1 166.345,71 165.545,71 C164.675,71 163.827,72.405 163.434,74.5 C163.058,76.505 162.184,78 161.389,78 C160.461,78 160,79.194 160,81.594 C160,84.346 159.532,85.31 158,85.71 C156.9,85.998 156,86.856 156,87.617 C156,88.377 155.1,89 154,89 C152.279,89 152.002,88.338 152.014,84.25 C152.031,78.077 152.897,75 154.617,75 C155.564,75 156,73.739 156,71 C156,68.166 156.424,67 157.455,67 C158.325,67 159.173,65.595 159.566,63.5 C159.942,61.495 160.816,60 161.611,60 C162.532,60 163,58.82 163,56.5 C163,53.667 163.381,53 165,53 C166.619,53 167,52.333 167,49.5 C167,47.18 167.468,46 168.389,46 C169.184,46 170.058,44.505 170.434,42.5 C170.827,40.405 171.675,39 172.545,39 C173.43,39 174,38.021 174,36.5 C174,34.944 174.567,34 175.5,34 C176.325,34 177,33.325 177,32.5 Z M218,162.594 C218,161.439 218.964,161 221.5,161 C223.944,161 225,161.452 225,162.5 C225,163.325 225.675,164 226.5,164 C227.333,164 228,164.889 228,166 C228,167.111 227.333,168 226.5,168 C225.675,168 225,168.717 225,169.594 C225,170.47 224.1,171.423 223,171.71 C221.9,171.998 221,172.856 221,173.617 C221,174.377 220.377,175 219.617,175 C218.856,175 217.998,175.9 217.71,177 C217.423,178.1 216.523,179 215.71,179 C214.898,179 213.998,179.9 213.71,181 C213.423,182.1 212.47,183 211.594,183 C210.717,183 210,183.675 210,184.5 C210,185.325 209.345,186 208.545,186 C207.675,186 206.827,187.405 206.434,189.5 C206.058,191.505 205.184,193 204.389,193 C203.625,193 203,193.9 203,195 C203,196.333 202.333,197 201,197 C199.889,197 199,197.667 199,198.5 C199,199.325 198.325,200 197.5,200 C196.667,200 196,200.889 196,202 C196,203.333 195.333,204 194,204 C192.667,204 192,204.667 192,206 C192,207.333 192.667,208 194,208 C195.111,208 196,208.667 196,209.5 C196,210.716 197.615,211 204.531,211 C211.192,211 213.189,211.329 213.638,212.5 C214.278,214.167 217,214.572 217,213 C217,211.584 219.751,211.753 220.233,213.198 C220.505,214.015 224.676,214.532 233.316,214.819 C243.227,215.149 246,215.543 246,216.621 C246,217.613 247.431,218 251.094,218 C255.346,218 256.274,218.33 256.71,220 C257.152,221.688 258.074,222 262.617,222 C267.333,222 268,222.248 268,224 C268,225.111 268.667,226 269.5,226 Q271,226 271,229 C271,231.078 270.51,232 269.406,232 C268.53,232 267.577,232.9 267.29,234 C266.684,236.318 264,236.726 264,234.5 C264,233.667 263.111,233 262,233 C260.667,233 260,232.333 260,231 C260,229.267 259.333,229 255,229 C251.222,229 250,228.633 250,227.5 C250,226.395 248.847,226 245.625,226 C239.259,226 235,224.948 235,223.375 C235,222.272 232.136,222 220.5,222 C208.937,222 206,221.724 206,220.639 C206,218.519 191.385,217.173 184.125,218.625 L181,219.25 L181,229.625 C181,238.181 180.737,240 179.5,240 C178.445,240 178,241.066 178,243.594 C178,246.346 177.532,247.31 176,247.71 C174.497,248.103 174,249.074 174,251.617 C174,253.873 173.527,255 172.579,255 C171.798,255 170.872,256.304 170.522,257.898 C170.152,259.584 169.073,261.009 167.943,261.305 C166.874,261.584 166,262.53 166,263.406 C166,264.283 165.325,265 164.5,265 C163.667,265 163,265.889 163,267 C163,268.619 162.333,269 159.5,269 L156,269 L156,263.5 C156,259.474 156.372,258 157.389,258 C158.184,258 159.058,256.505 159.434,254.5 C159.827,252.405 160.675,251 161.545,251 C162.345,251 163,250.1 163,249 C163,247.667 163.667,247 165,247 C166.111,247 167,246.333 167,245.5 C167,244.675 167.675,244 168.5,244 C169.523,244 170.004,242.966 170.014,240.75 C170.034,236 171.041,233 172.617,233 C173.531,233 174,231.813 174,229.5 C174,226.667 173.619,226 172,226 C170.889,226 170,226.667 170,227.5 C170,228.325 169.377,229 168.617,229 C167.856,229 166.998,229.9 166.71,231 C166.423,232.1 165.47,233 164.594,233 C163.717,233 163,233.675 163,234.5 C163,235.325 162.325,236 161.5,236 C160.667,236 160,236.889 160,238 C160,239.333 159.333,240 158,240 C156.667,240 156,240.667 156,242 C156,243.111 155.333,244 154.5,244 C153.675,244 153,244.675 153,245.5 C153,246.333 152.111,247 151,247 C149.667,247 149,247.667 149,249 C149,250.333 148.333,251 147,251 C145.889,251 145,251.667 145,252.5 C145,253.333 144.111,254 143,254 C141.889,254 141,253.333 141,252.5 C141,251.675 140.325,251 139.5,251 C138.667,251 138,250.111 138,249 C138,247.889 138.667,247 139.5,247 C140.325,247 141,246.283 141,245.406 C141,244.53 141.9,243.577 143,243.29 C144.1,243.002 145,242.144 145,241.383 C145,240.623 145.9,240 147,240 C148.111,240 149,239.333 149,238.5 C149,237.675 149.675,237 150.5,237 C151.333,237 152,236.111 152,235 C152,233.667 152.667,233 154,233 C155.333,233 156,232.333 156,231 C156,229.9 156.623,229 157.383,229 C158.144,229 159.002,228.1 159.29,227 C159.577,225.9 160.53,225 161.406,225 C162.51,225 163,224.078 163,222 C163,219.922 163.49,219 164.594,219 C165.47,219 166.423,218.1 166.71,217 C166.998,215.9 167.803,215 168.5,215 C169.348,215 169.901,212.892 170.173,208.632 C170.752,199.537 170.079,194 168.395,194 C167.628,194 167,193.1 167,192 C167,190.19 166.333,190 160,190 C154.444,190 153,190.31 153,191.5 C153,192.333 152.111,193 151,193 C149.667,193 149,193.667 149,195 C149,196.333 148.333,197 147,197 C145.9,197 145,197.623 145,198.383 C145,199.144 144.1,200.002 143,200.29 C141.9,200.577 141,201.53 141,202.406 C141,203.283 140.325,204 139.5,204 C138.667,204 138,204.889 138,206 C138,207.333 137.333,208 136,208 C134.889,208 134,208.667 134,209.5 C134,210.325 133.325,211 132.5,211 C131.667,211 131,211.889 131,213 C131,214.1 130.345,215 129.545,215 C128.675,215 127.827,216.405 127.434,218.5 C127.058,220.505 126.184,222 125.389,222 C124.491,222 123.995,223.15 123.986,225.25 C123.961,231.238 123.029,233 119.883,233 C117.987,233 117,233.513 117,234.5 C117,235.433 116.056,236 114.5,236 C112.944,236 112,235.433 112,234.5 C112,233.675 111.325,233 110.5,233 C109.667,233 109,232.111 109,231 C109,229.9 109.655,229 110.455,229 C111.325,229 112.173,227.595 112.566,225.5 C112.927,223.575 113.795,222 114.495,222 C115.194,222 116.002,221.1 116.29,220 C116.577,218.9 117.53,218 118.406,218 C119.561,218 120,217.036 120,214.5 C120,211.667 120.381,211 122,211 C123.111,211 124,210.333 124,209.5 C124,208.675 124.675,208 125.5,208 C126.333,208 127,207.111 127,206 C127,204.667 127.667,204 129,204 C130.333,204 131,203.333 131,202 C131,200.889 131.667,200 132.5,200 C133.325,200 134,199.325 134,198.5 C134,197.667 134.889,197 136,197 C137.333,197 138,196.333 138,195 C138,193.889 138.667,193 139.5,193 C140.325,193 141,192.283 141,191.406 C141,190.53 141.9,189.577 143,189.29 C144.1,189.002 145,188.144 145,187.383 C145,186.478 146.169,186 148.383,186 C150.926,186 151.897,185.503 152.29,184 C152.577,182.9 153.53,182 154.406,182 C155.652,182 156,180.908 156,177 L156,172 L159.5,172 C161.944,172 163,172.452 163,173.5 C163,174.333 163.889,175 165,175 C166.333,175 167,175.667 167,177 C167,178.111 167.667,179 168.5,179 C169.325,179 170,179.675 170,180.5 C170,181.333 170.889,182 172,182 C173.333,182 174,182.667 174,184 C174,185.1 174.655,186 175.455,186 C176.325,186 177.173,187.405 177.566,189.5 C177.942,191.505 178.816,193 179.611,193 C180.532,193 181,194.18 181,196.5 C181,199.333 181.381,200 183,200 C184.1,200 185,199.377 185,198.617 C185,197.856 185.9,196.998 187,196.71 C188.1,196.423 189,195.47 189,194.594 C189,193.717 189.675,193 190.5,193 C191.325,193 192,192.325 192,191.5 C192,190.675 192.717,190 193.594,190 C194.47,190 195.423,189.1 195.71,188 C195.998,186.9 196.856,186 197.617,186 C198.377,186 199,185.283 199,184.406 C199,183.53 199.9,182.577 201,182.29 C202.1,182.002 203,181.144 203,180.383 C203,179.623 203.675,179 204.5,179 C205.333,179 206,178.111 206,177 C206,175.667 206.667,175 208,175 C209.619,175 210,174.333 210,171.5 C210,168.667 210.381,168 212,168 C213.1,168 214,167.377 214,166.617 C214,165.856 214.9,164.998 216,164.71 C217.1,164.423 218,163.47 218,162.594 Z"/>
</svg>

