<svg xmlns="http://www.w3.org/2000/svg" width="300" height="300" viewBox="0 0 300 300" version="1.1">
  <defs/>
  <path d="M111,28.5 C111,27.675 111.675,27 112.5,27 C113.325,27 114,27.675 114,28.5 C114,29.69 115.444,30 121,30 C126.306,30 128,30.336 128,31.389 C128,32.184 129.495,33.058 131.5,33.434 C133.71,33.849 135,34.661 135,35.639 C135,36.491 135.839,37.407 136.864,37.675 C138.445,38.088 138.81,39.475 139.268,46.813 C139.964,57.978 139.167,66 137.36,66 C136.472,66 136,67.216 136,69.5 L136,73 L145,73 C151.859,73 154,72.681 154,71.659 C154,70.601 158.461,70.179 175.161,69.659 C201.831,68.828 225.818,68.814 229.875,69.625 C232.872,70.224 233,70.454 233,75.219 C233,79.346 232.661,80.276 231,80.71 C229.497,81.103 229,82.074 229,84.617 C229,86.957 228.538,88 227.5,88 C226.675,88 226,88.675 226,89.5 C226,90.333 225.111,91 224,91 C222.381,91 222,91.667 222,94.5 C222,97.036 221.561,98 220.406,98 C219.53,98 218.577,98.9 218.29,100 C218.002,101.1 217.194,102 216.495,102 C215.795,102 214.927,103.575 214.566,105.5 C214.173,107.595 213.325,109 212.455,109 C211.655,109 211,109.9 211,111 C211,112.333 210.333,113 209,113 C207.889,113 207,113.667 207,114.5 C207,115.325 206.325,116 205.5,116 C204.667,116 204,116.889 204,118 C204,119.333 203.333,120 202,120 C200.9,120 200,120.639 200,121.421 C200,122.202 198.65,123.138 197,123.5 C195.35,123.862 194,124.798 194,125.579 C194,126.361 193.1,127 192,127 C190.667,127 190,127.667 190,129 C190,130.333 189.333,131 188,131 C186.667,131 186,131.667 186,133 C186,134.111 185.333,135 184.5,135 C183.675,135 183,135.675 183,136.5 C183,137.333 182.111,138 181,138 C179.667,138 179,138.667 179,140 C179,141.333 178.333,142 177,142 C175.889,142 175,142.667 175,143.5 C175,144.325 174.325,145 173.5,145 C172.675,145 172,145.717 172,146.594 C172,147.47 171.1,148.423 170,148.71 C168.9,148.998 168,149.803 168,150.5 C168,151.197 167.1,152.002 166,152.29 C164.9,152.577 164,153.53 164,154.406 C164,155.599 165.007,156 168,156 C171.7,156 171.999,156.206 171.986,158.75 C171.965,163.032 170.899,166 169.383,166 C168.623,166 168,166.85 168,167.889 C168,169.255 167.033,169.959 164.5,170.434 C162.405,170.827 161,171.675 161,172.545 C161,173.576 159.834,174 157,174 C154.166,174 153,174.424 153,175.455 C153,176.325 151.595,177.173 149.5,177.566 C147.495,177.942 146,178.816 146,179.611 C146,180.456 144.923,181.005 143.25,181.014 C138.968,181.035 136,182.101 136,183.617 C136,184.377 135.1,185 134,185 C132.9,185 132,185.655 132,186.455 C132,187.325 130.595,188.173 128.5,188.566 C126.495,188.942 125,189.816 125,190.611 C125,191.375 124.1,192 123,192 C121.667,192 121,192.667 121,194 C121,195.619 120.333,196 117.5,196 C114.667,196 114,196.381 114,198 C114,199.111 113.333,200 112.5,200 C111.675,200 111,200.675 111,201.5 C111,202.333 110.111,203 109,203 C107.381,203 107,203.667 107,206.5 C107,209.333 106.619,210 105,210 C103.381,210 103,210.667 103,213.5 C103,216.917 103.095,217 107,217 C109.76,217 111,216.566 111,215.601 C111,214.604 113.005,214.002 118,213.5 C122.995,212.998 125,212.396 125,211.399 C125,210.37 126.455,210 130.5,210 C134.5,210 136,209.625 136,208.625 C136,206.975 140.316,206 147.625,206 C151.736,206 153,205.647 153,204.5 C153,203.3 154.5,203 160.5,203 C167.333,203 168,202.822 168,201 C168,199.054 168.662,199 192.75,199.014 C206.363,199.021 218.512,199.299 219.75,199.63 C221.694,200.151 222,200.898 222,205.117 C222,208.723 221.62,210 220.545,210 C219.675,210 218.827,211.405 218.434,213.5 C218.073,215.425 217.328,217 216.78,217 C215.388,217 211.038,221.256 211.017,222.639 C211.008,223.265 209.425,224.073 207.5,224.434 C205.405,224.827 204,225.675 204,226.545 C204,227.345 203.1,228 202,228 C200.667,228 200,228.667 200,230 C200,231.619 199.333,232 196.5,232 C194.187,232 193,232.469 193,233.383 C193,234.144 192.1,235.002 191,235.29 C189.9,235.577 189,236.53 189,237.406 C189,238.561 188.036,239 185.5,239 C183.056,239 182,239.452 182,240.5 C182,241.325 181.325,242 180.5,242 C179.667,242 179,242.889 179,244 C179,245.758 178.333,246 173.5,246 L168,246 L168,253 L177,253 C184.013,253 186,253.307 186,254.389 C186,255.184 187.495,256.058 189.5,256.434 C191.71,256.849 193,257.661 193,258.639 C193,259.491 193.9,260.423 195,260.71 C196.435,261.086 197,262.074 197,264.21 C197,266.346 196.435,267.335 195,267.71 C193.9,267.998 193,268.856 193,269.617 C193,270.377 192.1,271 191,271 C189.889,271 189,270.333 189,269.5 C189,268.675 188.325,268 187.5,268 C186.452,268 186,266.944 186,264.5 C186,262.056 185.548,261 184.5,261 C183.675,261 183,261.675 183,262.5 C183,263.433 182.056,264 180.5,264 C179.049,264 178,263.425 178,262.629 C178,261.622 175.63,261.073 169.082,260.56 C157.751,259.674 146,260.727 146,262.629 C146,263.66 144.262,264 139,264 C133.727,264 132,264.339 132,265.375 C132,266.746 127.88,268 123.375,268 C121.667,268 121,267.439 121,266 C121,264.889 120.333,264 119.5,264 C118.667,264 118,263.111 118,262 C118,260.889 118.667,260 119.5,260 C120.325,260 121,259.325 121,258.5 C121,257.588 121.931,257 123.375,257 C127.88,257 132,255.746 132,254.375 C132,253.331 133.803,253 139.5,253 C145.5,253 147,252.7 147,251.5 C147,250.534 147.978,249.995 149.75,249.986 C154.032,249.965 157,248.899 157,247.383 C157,246.469 158.187,246 160.5,246 C163.036,246 164,245.561 164,244.406 C164,243.53 164.9,242.577 166,242.29 C167.1,242.002 168,241.144 168,240.383 C168,239.469 169.187,239 171.5,239 C174.333,239 175,238.619 175,237 C175,235.667 175.667,235 177,235 C178.1,235 179,234.375 179,233.611 C179,232.816 180.495,231.942 182.5,231.566 C184.595,231.173 186,230.325 186,229.455 C186,228.655 186.9,228 188,228 C189.1,228 190,227.345 190,226.545 C190,225.675 191.405,224.827 193.5,224.434 C195.425,224.073 197,223.205 197,222.505 C197,221.806 197.9,220.998 199,220.71 C200.1,220.423 201,219.47 201,218.594 C201,217.717 201.675,217 202.5,217 C203.325,217 204,216.377 204,215.617 C204,214.856 204.9,213.998 206,213.71 C207.1,213.423 208,212.47 208,211.594 C208,210.177 205.166,210 182.5,210 C157.667,210 157,210.052 157,212 C157,213.81 156.333,214 150,214 C144.444,214 143,214.31 143,215.5 C143,216.523 141.966,217.004 139.75,217.014 C135,217.034 132,218.041 132,219.617 C132,220.663 130.293,221 125,221 C119.694,221 118,221.336 118,222.389 C118,223.184 116.505,224.058 114.5,224.434 C112.405,224.827 111,225.675 111,226.545 C111,227.345 110.1,228 109,228 C107.381,228 107,228.667 107,231.5 C107,233.803 107.47,235 108.375,235 C109.746,235 111,239.12 111,243.625 C111,245.069 111.588,246 112.5,246 C113.583,246 114,247.111 114,250 C114,252.722 113.562,254 112.629,254 C111.739,254 111.025,255.754 110.594,259 C109.943,263.911 109.869,264 106.466,264 C104.052,264 103,263.545 103,262.5 C103,261.675 102.375,261 101.611,261 C100.816,261 99.942,259.505 99.566,257.5 C99.173,255.405 98.325,254 97.455,254 C96.655,254 96,253.152 96,252.117 C96,251.074 95.107,250 94,249.71 C92.9,249.423 92,248.47 92,247.594 C92,246.717 91.325,246 90.5,246 C89.452,246 89,244.944 89,242.5 C89,239.667 88.619,239 87,239 C85.394,239 85,238.333 85,235.617 C85,233.074 85.497,232.103 87,231.71 C88.745,231.254 89,230.346 89,224.594 C89,219.672 89.348,218 90.372,218 C91.2,218 91.998,216.413 92.384,214 C92.798,211.412 93.549,210 94.512,210 C95.546,210 96,208.932 96,206.5 C96,204.187 96.469,203 97.383,203 C98.144,203 99.002,202.1 99.29,201 C99.577,199.9 100.477,199 101.29,199 C102.102,199 103.002,198.1 103.29,197 C103.577,195.9 104.53,195 105.406,195 C106.283,195 107,194.325 107,193.5 C107,192.452 108.056,192 110.5,192 C113.833,192 114,191.833 114,188.5 C114,185.667 113.619,185 112,185 C110.9,185 110.006,184.438 110.014,183.75 C110.045,180.84 111.331,178 112.617,178 C113.377,178 114,177.1 114,176 C114,174.667 114.667,174 116,174 C117.1,174 117.994,173.438 117.986,172.75 C117.955,169.84 116.669,167 115.383,167 C114.436,167 114,165.739 114,163 C114,160.211 113.57,159 112.579,159 C111.798,159 110.862,157.65 110.5,156 C110.138,154.35 109.252,153 108.532,153 C107.812,153 106.933,151.458 106.58,149.572 C106.06,146.804 105.366,146.02 102.968,145.493 C101.128,145.089 99.997,144.206 99.991,143.171 C99.987,142.252 99.699,139.137 99.352,136.25 L98.721,131 L104.361,131 C108.604,131 110,131.357 110,132.441 C110,133.234 110.429,134.147 110.954,134.472 C112.516,135.437 117,133.895 117,132.392 C117,131.626 117.878,131 118.95,131 C120.023,131 121.305,130.277 121.799,129.394 C122.34,128.428 124.551,127.58 127.349,127.264 C130.198,126.943 132,126.242 132,125.455 C132,124.586 134.424,123.944 139.5,123.468 C144.878,122.964 147,122.374 147,121.383 C147,120.294 149.23,120 157.5,120 C165.773,120 168,119.707 168,118.617 C168,117.856 169.238,116.993 170.75,116.7 C174.59,115.954 179,116.984 179,118.625 C179,119.661 180.727,120 186,120 C192.333,120 193,119.81 193,118 C193,116.9 193.639,116 194.421,116 C195.202,116 196.138,114.65 196.5,113 C196.878,111.278 197.804,110 198.673,110 C199.506,110 200.423,109.1 200.71,108 C200.998,106.9 201.856,106 202.617,106 C203.377,106 204,105.1 204,104 C204,102.9 204.655,102 205.455,102 C206.325,102 207.173,100.595 207.566,98.5 C207.942,96.495 208.816,95 209.611,95 C210.375,95 211,94.1 211,93 C211,91.667 211.667,91 213,91 C214.619,91 215,90.333 215,87.5 C215,84.667 215.381,84 217,84 C218.333,84 219,83.333 219,82 C219,80.889 219.667,80 220.5,80 C221.325,80 222,79.325 222,78.5 C222,77.206 218.5,77 196.5,77 C174.5,77 171,77.206 171,78.5 C171,79.732 169.239,80 161.151,80 C145.966,80 136,81.049 136,82.647 C136,83.702 133.581,84 125,84 C116.301,84 114,84.289 114,85.383 C114,87.103 110.923,87.969 104.75,87.986 C101.201,87.997 100,88.379 100,89.5 C100,90.523 98.966,91.004 96.75,91.014 C92,91.034 89,92.041 89,93.617 C89,94.377 88.1,95 87,95 C85.889,95 85,95.667 85,96.5 C85,97.325 84.325,98 83.5,98 C82.667,98 82,98.889 82,100 C82,101.676 81.333,102 77.883,102 C74.102,102 73.816,102.183 74.37,104.25 C74.701,105.487 74.979,110.213 74.986,114.75 C74.997,121.411 75.289,123 76.5,123 C77.648,123 78,124.265 78,128.383 C78,132.986 78.3,133.845 80.069,134.308 C81.729,134.742 82.075,135.506 81.819,138.174 C81.535,141.134 81.134,141.535 78.174,141.819 C75.506,142.075 74.742,141.729 74.308,140.069 C74.01,138.931 73.144,138 72.383,138 C71.594,138 71,136.98 71,135.625 C71,131.12 69.746,127 68.375,127 C67.272,127 67,124.136 67,112.5 C67,100.278 66.764,98 65.5,98 C64.452,98 64,96.944 64,94.5 C64,92.112 64.46,91 65.448,91 C66.489,91 66.98,89.527 67.198,85.75 L67.5,80.5 L72.75,80.198 L78,79.895 L78,83.948 C78,86.989 78.398,88 79.594,88 C80.47,88 81.423,87.1 81.71,86 C82.143,84.344 83.074,84 87.117,84 C90.593,84 92,83.604 92,82.625 C92,80.908 96.366,80 104.625,80 C109.625,80 111,79.676 111,78.5 C111,77.283 112.622,77 119.594,77 C127.346,77 128.238,76.804 128.71,75 C128.998,73.9 129.856,73 130.617,73 C131.728,73 132,70.271 132,59.117 C132,46.074 131.879,45.202 130,44.71 C128.9,44.423 128,43.47 128,42.594 C128,41.237 126.441,41 117.5,41 L107,41 L107,35.5 C107,30.667 107.242,30 109,30 C110.111,30 111,29.333 111,28.5 Z M172,125.5 C172,126.706 170.458,127 164.125,127 C154.432,127 150,127.824 150,129.625 C150,130.661 148.273,131 143,131 C137.638,131 136,131.33 136,132.412 C136,133.28 134.459,134.085 132,134.5 C129.541,134.915 128,135.72 128,136.588 C128,137.365 127.325,138 126.5,138 C125.675,138 125,138.623 125,139.383 C125,140.144 124.1,141.002 123,141.29 C121.468,141.69 121,142.654 121,145.406 C121,147.934 120.555,149 119.5,149 C118.675,149 118,149.675 118,150.5 C118,151.325 118.675,152 119.5,152 C120.555,152 121,153.066 121,155.594 C121,158.346 121.468,159.31 123,159.71 C124.503,160.103 125,161.074 125,163.617 C125,165.664 125.494,166.995 126.25,166.986 C129.16,166.955 132,165.669 132,164.383 C132,163.373 133.484,163 137.5,163 C141.646,163 143,162.642 143,161.545 C143,160.675 144.405,159.827 146.5,159.434 C148.505,159.058 150,158.184 150,157.389 C150,156.625 150.9,156 152,156 C153.333,156 154,155.333 154,154 C154,152.889 154.667,152 155.5,152 C156.325,152 157,151.377 157,150.617 C157,149.856 157.9,148.998 159,148.71 C160.1,148.423 161,147.47 161,146.594 C161,145.717 161.675,145 162.5,145 C163.325,145 164,144.283 164,143.406 C164,142.53 164.9,141.577 166,141.29 C167.1,141.002 168,140.144 168,139.383 C168,138.623 168.655,138 169.455,138 C170.325,138 171.173,136.595 171.566,134.5 C171.942,132.495 172.816,131 173.611,131 C174.532,131 175,129.82 175,127.5 C175,125.056 174.548,124 173.5,124 C172.675,124 172,124.675 172,125.5 Z"/>
</svg>

