<svg xmlns="http://www.w3.org/2000/svg" width="300" height="300" viewBox="0 0 300 300" version="1.1">
  <defs/>
  <path d="M170,62 C170,60.667 170.667,60 172,60 C173.111,60 174,60.667 174,61.5 C174,62.325 174.717,63 175.594,63 C176.47,63 177.423,63.9 177.71,65 C178.103,66.503 179.074,67 181.617,67 C184.333,67 185,67.394 185,69 C185,70.111 185.667,71 186.5,71 C187.325,71 188,71.675 188,72.5 C188,73.69 189.444,74 195,74 C200.556,74 202,73.69 202,72.5 C202,71.667 202.889,71 204,71 C205.111,71 206,71.667 206,72.5 C206,73.751 208.034,74.002 218.25,74.014 C231.72,74.029 235,74.538 235,76.617 C235,77.377 235.9,78 237,78 C238.822,78 239,78.667 239,85.5 C239,91.396 238.689,93 237.545,93 C236.675,93 235.827,94.405 235.434,96.5 C235.058,98.505 234.184,100 233.389,100 C232.625,100 232,100.675 232,101.5 C232,102.333 231.111,103 230,103 C228.381,103 228,102.333 228,99.5 C228,97.197 228.47,96 229.375,96 C230.746,96 232,91.88 232,87.375 C232,85.163 231.623,85 226.5,85 C222.278,85 221,84.652 221,83.5 C221,82.452 219.944,82 217.5,82 C215.056,82 214,82.452 214,83.5 C214,84.652 212.722,85 208.5,85 C204.278,85 203,84.652 203,83.5 C203,82.452 201.944,82 199.5,82 C197.056,82 196,82.452 196,83.5 C196,84.333 195.111,85 194,85 C192.148,85 192,85.667 192,94 C192,100.97 192.31,103 193.375,103 C195.246,103 196,107.489 196,118.625 L196,128 L212,128 C225.556,128 228,127.771 228,126.5 C228,125.31 229.444,125 235,125 C241.333,125 242,124.81 242,123 C242,121.178 242.667,121 249.5,121 L257,121 L257,124.389 C257,127.47 256.682,127.837 253.5,128.434 C251.405,128.827 250,129.675 250,130.545 C250,131.68 248.459,132 243,132 C237.771,132 236,132.343 236,133.358 C236,134.986 227.885,136 214.853,136 C207.65,136 206,136.28 206,137.5 C206,138.548 204.944,139 202.5,139 L199,139 L199,186 C199,225.437 198.777,233 197.611,233 C196.816,233 195.942,234.495 195.566,236.5 C194.923,239.925 194.806,240 190.089,240 L185.269,240 L184.753,232.789 C184.468,228.804 183.737,225.412 183.118,225.206 C181.607,224.702 181.697,222.268 183.246,221.751 C184.122,221.459 184.599,217.725 184.851,209.168 C185.117,200.188 185.543,197 186.48,197 C188.267,197 189,192.312 189,180.875 C189,172.764 189.268,171 190.5,171 C191.325,171 192,170.325 192,169.5 C192,168.641 191.099,168 189.892,168 C188.165,168 187.892,167.565 188.386,165.598 C188.718,164.276 188.71,161.801 188.37,160.098 C187.636,156.432 184.889,155.938 182.268,159 C181.326,160.1 179.981,161 179.278,161 C178.575,161 178,161.717 178,162.594 C178,163.47 177.1,164.423 176,164.71 C174.9,164.998 174,165.856 174,166.617 C174,167.377 173.325,168 172.5,168 C171.675,168 171,168.717 171,169.594 C171,170.47 170.1,171.423 169,171.71 C167.9,171.998 167,172.87 167,173.648 C167,174.426 166.352,175.311 165.561,175.615 C164.77,175.919 163.844,177.434 163.504,178.982 C163.15,180.593 162.055,182.014 160.943,182.305 C159.874,182.584 159,183.53 159,184.406 C159,185.283 158.325,186 157.5,186 C156.667,186 156,186.889 156,188 C156,189.333 155.333,190 154,190 C152.889,190 152,190.667 152,191.5 C152,192.325 151.325,193 150.5,193 C149.667,193 149,193.889 149,195 C149,196.333 148.333,197 147,197 C145.889,197 145,197.667 145,198.5 C145,199.325 144.325,200 143.5,200 C142.417,200 142,201.111 142,204 C142,206.889 142.417,208 143.5,208 Q145,208 145,211 C145,213.078 144.51,214 143.406,214 C142.53,214 141.588,214.858 141.314,215.908 C140.724,218.163 138.224,218.968 131.75,218.986 C128.201,218.997 127,219.379 127,220.5 C127,221.632 125.783,222 122.045,222 C117.205,222 117.076,221.922 116.455,218.611 C115.824,215.247 115.772,215.219 109.659,214.85 C106.272,214.645 100.955,214.634 97.844,214.826 C93.284,215.107 92.091,215.545 91.687,217.087 C91.156,219.121 88.701,219.49 83.125,218.375 C78.943,217.539 79.156,215.381 83.5,214.566 C86.562,213.992 87,213.54 87,210.955 C87,208.048 86.912,208 81.625,208 C74.316,208 70,207.025 70,205.375 C70,204.375 68.5,204 64.5,204 L59,204 L59,200.5 C59,198.056 59.452,197 60.5,197 C61.605,197 62,195.847 62,192.625 C62,186.259 63.052,182 64.625,182 C65.704,182 66,179.742 66,171.5 C66,163.226 66.293,161 67.384,161 C68.983,161 69.88,151.483 69.185,141.879 L68.76,136 L58.38,136 C49.82,136 48,136.263 48,137.5 C48,138.325 47.325,139 46.5,139 C45.477,139 44.996,140.034 44.986,142.25 C44.966,147 43.959,150 42.383,150 C41.623,150 41,149.1 41,148 C41,146.9 40.377,146 39.617,146 C37.897,146 37.031,142.923 37.014,136.75 C37.004,133.366 37.398,132 38.383,132 C39.144,132 40.002,131.1 40.29,130 C40.726,128.33 41.654,128 45.906,128 C49.767,128 51,127.637 51,126.5 C51,125.452 52.056,125 54.5,125 C56.944,125 58,125.452 58,126.5 C58,127.65 59.273,128 63.455,128 C68.847,128 68.915,127.963 69.374,124.75 C70.75,115.118 69.681,103 67.455,103 C66.655,103 66,102.325 66,101.5 C66,100.675 66.675,100 67.5,100 C68.412,100 69,99.069 69,97.625 C69,96.319 69.281,93.844 69.625,92.125 C70.177,89.366 70.645,89 73.625,89 L77,89 L77,108.5 C77,125.167 77.218,128 78.5,128 C79.333,128 80,128.889 80,130 C80,131.758 80.667,132 85.5,132 C89.57,132 91,132.367 91,133.412 C91,134.28 92.541,135.085 95,135.5 C97.459,135.915 99,136.72 99,137.588 C99,138.535 100.152,139 102.5,139 L106,139 L106,126.5 C106,116.056 106.247,114 107.5,114 C108.325,114 109,113.325 109,112.5 C109,111.667 109.889,111 111,111 C112.111,111 113,111.667 113,112.5 C113,113.333 113.889,114 115,114 C116.333,114 117,114.667 117,116 C117,117.111 117.667,118 118.5,118 C119.652,118 120,119.278 120,123.5 C120,127.49 119.624,129 118.63,129 C117.171,129 115.832,136.643 116.706,139.986 C117.217,141.939 119.795,142.964 124.25,142.986 C126.724,142.999 127,143.352 127,146.5 C127,149.333 126.619,150 125,150 C123.889,150 123,149.333 123,148.5 C123,147.452 121.944,147 119.5,147 L116,147 L116,152.5 C116,156.722 115.652,158 114.5,158 C113.25,158 113,159.994 113,169.95 C113,179.968 112.736,182.048 111.366,182.815 C110.31,183.406 109.558,185.544 109.239,188.865 C108.917,192.218 108.285,194 107.418,194 C106.688,194 105.795,195.575 105.434,197.5 C105.058,199.505 104.184,201 103.389,201 C102.625,201 102,201.675 102,202.5 C102,203.548 103.056,204 105.5,204 C107.803,204 109,204.47 109,205.375 C109,207.06 113.342,208 121.125,208 C126.333,208 127,207.773 127,206 C127,204.667 127.667,204 129,204 C130.111,204 131,203.333 131,202.5 C131,201.675 131.675,201 132.5,201 C133.333,201 134,200.111 134,199 C134,197.667 134.667,197 136,197 C137.333,197 138,196.333 138,195 C138,193.667 138.667,193 140,193 C141.111,193 142,192.333 142,191.5 C142,190.675 142.675,190 143.5,190 C144.333,190 145,189.111 145,188 C145,186.667 145.667,186 147,186 C148.333,186 149,185.333 149,184 C149,182.889 149.667,182 150.5,182 C151.325,182 152,181.283 152,180.406 C152,179.53 152.9,178.577 154,178.29 C155.417,177.919 156,176.926 156,174.883 C156,172.667 156.462,172 158,172 C159.333,172 160,171.333 160,170 C160,168.889 160.667,168 161.5,168 C162.325,168 163,167.283 163,166.406 C163,165.53 163.9,164.577 165,164.29 C166.1,164.002 167,163.197 167,162.5 C167,161.803 167.9,160.998 169,160.71 C170.1,160.423 171,159.47 171,158.594 C171,157.717 171.675,157 172.5,157 C173.325,157 174,156.377 174,155.617 C174,154.856 174.9,153.998 176,153.71 C177.1,153.423 178,152.47 178,151.594 C178,150.717 178.675,150 179.5,150 C180.325,150 181,149.325 181,148.5 C181,147.675 181.717,147 182.594,147 C183.47,147 184.423,146.1 184.71,145 C184.998,143.9 185.856,143 186.617,143 C187.377,143 188,142.1 188,141 C188,139.142 187.333,139 178.625,139 C167.489,139 163,139.754 163,141.625 C163,142.625 161.5,143 157.5,143 L152,143 L152,148 C152,151.778 151.633,153 150.5,153 C149.675,153 149,152.325 149,151.5 C149,150.31 147.556,150 142,150 L135,150 L135,146.5 C135,144.056 135.452,143 136.5,143 C137.333,143 138,142.111 138,141 C138,139.667 138.667,139 140,139 C141.1,139 142,138.381 142,137.625 C142,136.096 146.228,135 152.125,135 C154.903,135 156,134.575 156,133.5 C156,132.3 157.5,132 163.5,132 C169.5,132 171,131.7 171,130.5 C171,129.476 172.032,128.997 174.25,128.991 C176.037,128.987 179.863,128.699 182.75,128.352 L188,127.721 L188,118.861 C188,111.651 187.72,110 186.5,110 C185.534,110 184.995,109.022 184.986,107.25 C184.955,100.95 184.155,100 178.883,100 C174.005,100 174,99.997 174,96.63 C174,93.378 173.843,93.242 169.5,92.753 C162.945,92.014 156,92.98 156,94.63 C156,95.384 155.325,96 154.5,96 C153.452,96 153,97.056 153,99.5 C153,101.944 153.452,103 154.5,103 C155.333,103 156,103.889 156,105 C156,106.607 155.333,107 152.611,107 C149.549,107 149.161,106.673 148.584,103.597 C148.233,101.725 147.283,99.939 146.473,99.628 C143.93,98.652 144.969,89 147.617,89 C148.377,89 149,88.1 149,87 C149,85.242 149.667,85 154.5,85 C158.722,85 160,84.652 160,83.5 C160,82.675 160.675,82 161.5,82 C162.325,82 163,82.675 163,83.5 C163,84.652 164.278,85 168.5,85 L174,85 L174,80.117 C174,76.074 173.656,75.143 172,74.71 C170.9,74.423 170,73.47 170,72.594 C170,71.717 169.325,71 168.5,71 C167.452,71 167,69.944 167,67.5 C167,65.056 167.452,64 168.5,64 C169.333,64 170,63.111 170,62 Z M76.822,154.416 C76.576,166.359 76.173,170.278 75.125,170.925 C74.256,171.46 73.562,174.395 73.24,178.887 C72.876,183.983 72.344,186 71.366,186 C70.472,186 70,187.209 70,189.5 C70,191.944 70.452,193 71.5,193 C72.333,193 73,193.889 73,195 C73,196.667 73.667,197 77,197 C79.777,197 81,197.431 81,198.411 C81,199.437 82.705,199.92 87.25,200.18 C96.419,200.706 97.997,200.259 98.014,197.133 C98.035,192.96 99.115,190 100.617,190 C101.627,190 102,188.516 102,184.5 C102,180.278 102.348,179 103.5,179 C104.597,179 105.002,177.858 105.006,174.75 C105.021,164.141 106.312,154 107.648,154 C108.524,154 109,152.779 109,150.534 C109,147.131 108.911,147.057 104,146.406 C100.754,145.975 99,145.261 99,144.371 C99,143.377 97.5,143 93.55,143 C89.585,143 87.854,142.562 87.201,141.394 C86.663,140.434 84.461,139.581 81.723,139.272 L77.144,138.756 Z M206,173.5 C206,172.452 207.056,172 209.5,172 C211.944,172 213,172.452 213,173.5 C213,174.583 214.111,175 217,175 C219.739,175 221,175.436 221,176.383 C221,177.959 224,178.966 228.75,178.986 C230.966,178.996 232,179.477 232,180.5 C232,181.466 232.978,182.005 234.75,182.014 C239.032,182.035 242,183.101 242,184.617 C242,185.564 243.261,186 246,186 C248.741,186 250,186.436 250,187.385 C250,188.313 251.812,188.996 255.5,189.457 C259.278,189.929 261,190.591 261,191.572 C261,192.357 261.675,193 262.5,193 C263.548,193 264,194.056 264,196.5 C264,199.833 263.833,200 260.5,200 C258.056,200 257,199.548 257,198.5 C257,197.348 255.722,197 251.5,197 C247.484,197 246,196.627 246,195.617 C246,194.041 243,193.034 238.25,193.014 C236.034,193.004 235,192.523 235,191.5 C235,190.534 234.022,189.995 232.25,189.986 C227.968,189.965 225,188.899 225,187.383 C225,186.373 223.516,186 219.5,186 C215.5,186 214,185.625 214,184.625 C214,183.254 209.88,182 205.375,182 C203.327,182 203,181.518 203,178.5 C203,176.056 203.452,175 204.5,175 C205.325,175 206,174.325 206,173.5 Z"/>
</svg>

