<svg xmlns="http://www.w3.org/2000/svg" width="300" height="300" viewBox="0 0 300 300" version="1.1">
  <defs/>
  <path d="M168,62.101 C168,60.9 168.643,60 169.5,60 C170.333,60 171,60.889 171,62 C171,63.111 170.333,64 169.5,64 C168.675,64 168,64.675 168,65.5 C168,66.778 170.667,67 186,67 C203.333,67 204,67.074 204,69 C204,70.619 204.667,71 207.5,71 C209.944,71 211,71.452 211,72.5 C211,73.333 211.889,74 213,74 C214.333,74 215,74.667 215,76 C215,77.333 215.667,78 217,78 C218.333,78 219,78.667 219,80 C219,81.111 219.667,82 220.5,82 C221.652,82 222,83.278 222,87.5 C222,91.722 222.348,93 223.5,93 C224.69,93 225,94.444 225,100 C225,105.556 224.69,107 223.5,107 C222.31,107 222,108.444 222,114 C222,119.33 221.666,121 220.601,121 C219.604,121 219.002,123.005 218.5,128 C217.998,132.995 217.396,135 216.399,135 C215.37,135 215,136.455 215,140.5 C215,144.722 215.348,146 216.5,146 C217.333,146 218,146.889 218,148 C218,149.619 217.333,150 214.5,150 C211.667,150 211,150.381 211,152 C211,153.1 210.345,154 209.545,154 C208.675,154 207.827,155.405 207.434,157.5 C207.058,159.505 206.184,161 205.389,161 C204.625,161 204,161.675 204,162.5 C204,163.555 205.066,164 207.594,164 C210.346,164 211.31,164.468 211.71,166 C212.103,167.503 213.074,168 215.617,168 C217.957,168 219,168.462 219,169.5 C219,170.325 219.675,171 220.5,171 C221.7,171 222,172.5 222,178.5 L222,186 L215,186 L215,175 L209.5,175 C205.278,175 204,174.652 204,173.5 C204,172.236 201.722,172 189.5,172 C177.278,172 175,172.236 175,173.5 C175,174.548 173.944,175 171.5,175 C168.667,175 168,175.381 168,177 C168,178.1 167.375,179 166.611,179 C165.816,179 164.942,180.495 164.566,182.5 C163.933,185.876 161,187.617 161,184.617 C161,183.856 160.1,182.998 159,182.71 C157.301,182.266 157,181.346 157,176.594 C157,172.288 157.345,171 158.5,171 C159.325,171 160,170.325 160,169.5 C160,168.667 160.889,168 162,168 C163.1,168 164,167.381 164,166.625 C164,164.678 168.554,164 181.625,164 C191.069,164 193,163.745 193,162.5 C193,161.667 193.889,161 195,161 C196.111,161 197,160.333 197,159.5 C197,158.675 197.635,158 198.412,158 C199.28,158 200.085,156.459 200.5,154 C200.915,151.541 201.72,150 202.588,150 C203.535,150 204,148.848 204,146.5 L204,143 L198.5,143 C194.335,143 193,143.356 193,144.466 C193,145.469 191.424,146.14 188,146.594 C184.754,147.025 183,147.739 183,148.629 C183,149.638 181.416,150 177,150 C172.333,150 171,150.333 171,151.5 C171,152.325 170.325,153 169.5,153 C168.675,153 168,152.325 168,151.5 C168,150.452 166.944,150 164.5,150 C162.056,150 161,150.452 161,151.5 C161,152.333 160.111,153 159,153 C157.889,153 157,152.333 157,151.5 C157,150.367 155.778,150 152,150 C148.222,150 147,149.633 147,148.5 C147,147.675 147.675,147 148.5,147 C149.544,147 150,145.949 150,143.545 C150,140.389 150.302,140.034 153.5,139.434 C156.682,138.837 157,138.47 157,135.389 C157,133.043 156.538,132 155.5,132 C154.294,132 154,130.458 154,124.125 C154,114.432 153.176,110 151.375,110 C150.251,110 150,106.076 150,88.5 C150,70.861 150.248,67 151.383,67 C152.144,67 153.015,66.051 153.318,64.892 C153.836,62.91 154.292,62.826 160.935,63.493 C167.672,64.17 168,64.105 168,62.101 Z M186,197 L186,175 L191.5,175 C196.333,175 197,175.242 197,177 C197,178.333 197.667,179 199,179 C200.111,179 201,179.667 201,180.5 C201,181.325 201.675,182 202.5,182 C203.333,182 204,182.889 204,184 C204,185.619 203.333,186 200.5,186 C197.167,186 197,186.167 197,189.5 L197,193 L211.094,193 C224.346,193 225.218,193.119 225.71,195 C226.103,196.503 227.074,197 229.617,197 C231.831,197 233,197.478 233,198.383 C233,199.144 233.931,200.01 235.069,200.308 C236.729,200.742 237.075,201.506 236.819,204.174 C236.535,207.134 236.134,207.535 233.174,207.819 C230.506,208.075 229.742,207.729 229.308,206.069 C229.002,204.901 227.947,204 226.883,204 C225.848,204 225,203.325 225,202.5 C225,201.675 224.325,201 223.5,201 C222.675,201 222,201.675 222,202.5 C222,203.722 220.333,204 213,204 C205.667,204 204,203.722 204,202.5 C204,201.667 203.111,201 202,201 C200.889,201 200,201.667 200,202.5 C200,203.325 199.325,204 198.5,204 C197.462,204 197,205.043 197,207.383 C197,209.926 196.503,210.897 195,211.29 C193.237,211.751 193,212.654 193,218.906 C193,224.545 192.692,226 191.5,226 C190.425,226 190,227.097 190,229.875 C190,235.772 188.904,240 187.375,240 C186.47,240 186,241.197 186,243.5 L186,247 L206,247 C223.111,247 226,246.783 226,245.5 C226,244.505 226.995,244 228.955,244 C231.54,244 231.992,244.438 232.566,247.5 C233.451,252.217 232.288,258 230.455,258 C229.655,258 229,257.387 229,256.638 C229,254.684 220.304,253.878 207.602,254.655 C199.697,255.139 197,255.647 197,256.652 C197,257.701 194.56,258 186,258 C177.301,258 175,258.289 175,259.383 C175,260.959 172,261.966 167.25,261.986 C165.034,261.996 164,262.477 164,263.5 C164,264.631 162.785,265 159.061,265 L154.123,265 L153.458,260.571 C152.739,255.775 153.306,254 155.559,254 C156.352,254 157,253.325 157,252.5 C157,251.462 158.043,251 160.383,251 C162.926,251 163.897,250.503 164.29,249 C164.724,247.338 165.654,247 169.79,247 C173.926,247 174.855,246.662 175.29,245 C175.577,243.9 176.53,243 177.406,243 C178.652,243 179,241.908 179,238 C179,234.222 179.367,233 180.5,233 C181.605,233 182,231.847 182,228.625 C182,222.259 183.052,218 184.625,218 C185.661,218 186,216.273 186,211 C186,205.707 185.663,204 184.617,204 C183.856,204 182.998,204.9 182.71,206 C182.249,207.763 181.346,208 175.094,208 C169.455,208 168,208.308 168,209.5 C168,210.333 167.111,211 166,211 C164.889,211 164,211.667 164,212.5 C164,213.488 163.012,214 161.107,214 C159.458,214 157.966,213.355 157.638,212.5 C157.322,211.675 156.374,211 155.531,211 C154.448,211 154,209.976 154,207.5 C154,205.056 154.452,204 155.5,204 C156.325,204 157,203.33 157,202.512 C157,201.549 158.412,200.798 161,200.384 C163.413,199.998 165,199.2 165,198.372 C165,197.617 165.675,197 166.5,197 C167.325,197 168,197.675 168,198.5 C168,199.325 168.675,200 169.5,200 C170.325,200 171,199.325 171,198.5 C171,197.3 172.5,197 178.5,197 L186,197 Z M88.839,73.25 L89.178,67 L93.972,67 C95.851,67 97.142,66.983 98.028,67.574 C99.994,68.882 99.974,73.175 99.986,87.25 C99.998,100.577 100.231,103 101.5,103 C102.753,103 103,105.056 103,115.5 C103,126.271 103.22,128 104.594,128 C105.47,128 106.423,128.9 106.71,130 C107.169,131.756 108.074,132 114.117,132 C119.569,132 121,132.312 121,133.5 C121,134.523 122.034,135.004 124.25,135.014 C130.514,135.04 132,135.923 132,139.617 L132,143 L107,143 L107,152 C107,159.333 107.278,161 108.5,161 C109.646,161 110,162.261 110,166.346 C110,178.592 111.278,190 112.65,190 C113.752,190 114,195.238 114,218.5 C114,242.099 113.762,247 112.617,247 C111.856,247 110.99,247.931 110.692,249.069 C110.258,250.729 109.494,251.075 106.826,250.819 L103.5,250.5 L103.238,211.25 C103.012,177.281 102.777,172 101.488,172 C100.466,172 100,170.949 100,168.647 C100,160.723 98.696,153 97.358,153 C96.343,153 96,151.229 96,146 C96,141.059 95.632,139.004 94.75,139.014 C91.84,139.045 89,140.331 89,141.617 C89,142.377 88.1,143 87,143 C85.9,143 85,142.377 85,141.617 C85,140.856 84.1,139.998 83,139.71 C81.468,139.31 81,138.346 81,135.594 C81,132.667 81.371,132 83,132 C84.333,132 85,131.333 85,130 C85,128.394 85.667,128 88.383,128 C92.862,128 93.128,126.772 92.334,109.75 C91.869,99.8 91.348,96 90.449,96 C89.077,96 88.244,84.226 88.839,73.25 Z M171,79.5 C171,80.325 170.325,81 169.5,81 C168.417,81 168,82.111 168,85 L168,89 L163.883,89 C160.102,89 159.816,89.183 160.37,91.25 C160.701,92.487 160.979,98.787 160.986,105.25 C160.998,115.022 161.253,117 162.5,117 C163.658,117 164.002,118.309 164.009,122.75 C164.013,125.912 164.301,130.863 164.648,133.75 C165.269,138.917 165.332,139 168.639,139 C170.796,139 172,138.516 172,137.648 C172,136.082 182.59,135.016 198.25,135.006 C206.247,135.001 208,134.73 208,133.5 C208,132.675 208.675,132 209.5,132 C210.69,132 211,130.556 211,125 L211,118 L204,118 L204,107 L197,107 C191.444,107 190,107.31 190,108.5 C190,109.555 188.934,110 186.406,110 C183.654,110 182.69,110.468 182.29,112 C182.002,113.1 181.144,114 180.383,114 C179.373,114 179,115.484 179,119.5 C179,124.333 178.758,125 177,125 C175.667,125 175,124.333 175,123 C175,121.889 174.333,121 173.5,121 C172.31,121 172,119.556 172,114 C172,108.444 172.31,107 173.5,107 C174.333,107 175,106.111 175,105 C175,103.381 175.667,103 178.5,103 C180.851,103 182,102.535 182,101.585 C182,100.554 184.032,99.98 189.5,99.468 C194.878,98.964 197,98.374 197,97.383 C197,96.469 198.188,96 200.5,96 C202.896,96 204,96.459 204,97.455 C204,98.325 205.405,99.173 207.5,99.566 C209.505,99.942 211,100.816 211,101.611 C211,102.375 211.9,103 213,103 C214.721,103 214.998,102.338 214.986,98.25 C214.969,92.077 214.103,89 212.383,89 C211.623,89 211,88.1 211,87 C211,85.889 210.333,85 209.5,85 C208.675,85 208,84.325 208,83.5 C208,82.667 207.111,82 206,82 C204.667,82 204,81.333 204,80 C204,78.081 203.333,78 187.5,78 C173.5,78 171,78.227 171,79.5 Z M158,36.5 C158,35.222 160.667,35 176,35 C191.333,35 194,35.222 194,36.5 C194,37.466 194.978,38.005 196.75,38.014 C203.489,38.047 204,38.618 204,46.117 C204,51.473 203.677,53 202.545,53 C201.675,53 200.827,54.405 200.434,56.5 C199.837,59.682 199.47,60 196.389,60 C193.183,60 193,59.811 193,56.5 C193,53.667 193.381,53 195,53 C196.605,53 197,52.333 197,49.625 C197,46.645 196.634,46.177 193.875,45.625 C192.156,45.281 188.781,45 186.375,45 C183.153,45 182,44.605 182,43.5 C182,42.675 181.325,42 180.5,42 C179.675,42 179,42.675 179,43.5 C179,44.597 177.858,45.002 174.75,45.006 C164.141,45.021 154,46.312 154,47.648 C154,48.392 153.1,49 152,49 C150.667,49 150,49.667 150,51 C150,52.333 149.333,53 148,53 C146.889,53 146,53.667 146,54.5 C146,55.325 145.325,56 144.5,56 C143.675,56 143,55.325 143,54.5 C143,53.675 142.325,53 141.5,53 C140.667,53 140,52.111 140,51 C140,49.9 140.43,49 140.955,49 C141.48,49 142.205,47.425 142.566,45.5 C142.927,43.575 143.795,42 144.495,42 C145.194,42 146.002,41.1 146.29,40 C146.734,38.301 147.654,38 152.406,38 C156.712,38 158,37.655 158,36.5 Z M70.584,99.403 C71.161,96.327 71.549,96 74.611,96 L78,96 L78,107 C78,115.575 77.702,118 76.648,118 C75.082,118 74.016,128.59 74.006,144.25 C74.001,152.247 73.73,154 72.5,154 C71.367,154 71,155.222 71,159 C71,162.576 71.392,164 72.375,164 C73.804,164 75.409,169.53 74.437,171.103 C74.132,171.596 71.711,172 69.058,172 C67.031,172 65.709,172.003 64.871,171.368 C63.296,170.173 63.432,166.721 63.815,156.75 C64.133,148.45 64.543,146 65.613,146 C66.752,146 67,142.232 67,124.969 C67,107.369 67.24,103.845 68.473,103.372 C69.283,103.061 70.233,101.275 70.584,99.403 Z M161,69 C161,70.619 161.667,71 164.5,71 C167.333,71 168,70.619 168,69 C168,67.381 167.333,67 164.5,67 C161.667,67 161,67.381 161,69 Z"/>
</svg>

