<svg xmlns="http://www.w3.org/2000/svg" width="300" height="300" viewBox="0 0 300 300" version="1.1">
  <defs/>
  <path d="M141,186.5 C141,185.221 143.722,185 159.5,185 C175.278,185 178,185.221 178,186.5 C178,187.51 179.01,188 181.094,188 C183.346,188 184.329,188.544 184.71,190 C185,191.107 186.074,192 187.117,192 C188.152,192 189,192.675 189,193.5 C189,194.325 189.675,195 190.5,195 C191.722,195 192,196.667 192,204 C192,211.333 191.722,213 190.5,213 C189.675,213 189,213.394 189,213.875 C189,214.356 188.719,216.156 188.375,217.875 C187.832,220.591 188.028,221 189.875,221 C191.351,221 192,220.374 192,218.948 C192,217.104 192.525,216.926 197.171,217.198 C202.558,217.513 204.99,219.667 201.105,220.683 C199.947,220.986 199,221.806 199,222.505 C199,223.205 197.425,224.073 195.5,224.434 C193.405,224.827 192,225.675 192,226.545 C192,227.576 190.834,228 188,228 C185.211,228 184,228.43 184,229.421 C184,230.202 182.65,231.138 181,231.5 C179.35,231.862 178,232.798 178,233.579 C178,234.361 177.1,235 176,235 C174.667,235 174,235.667 174,237 C174,238.619 173.333,239 170.5,239 C168.187,239 167,239.469 167,240.383 C167,241.144 166.1,242.002 165,242.29 C163.9,242.577 163,243.53 163,244.406 C163,245.647 161.918,246 158.117,246 C154.074,246 153.143,246.344 152.71,248 C152.256,249.737 151.352,249.998 145.844,249.986 C142.355,249.979 138.488,249.701 137.25,249.37 C134.747,248.699 134.146,246 136.5,246 C137.652,246 138,244.722 138,240.5 C138,235.667 137.758,235 136,235 C134.381,235 134,234.333 134,231.5 C134,229.056 133.548,228 132.5,228 C131.588,228 131,227.069 131,225.625 C131,221.12 129.746,217 128.375,217 C127.392,217 127,215.576 127,212 C127,208.447 126.606,207 125.638,207 C124.088,207 122.669,197.941 123.641,194.25 C124.153,192.305 124.895,192 129.117,192 C133.333,192 134,191.727 134,190 C134,188.381 134.667,188 137.5,188 C139.944,188 141,187.548 141,186.5 Z M165.25,80.706 C166.488,80.467 169.68,80.211 172.344,80.136 C176.409,80.022 177.271,80.321 177.71,82 C178.103,83.503 179.074,84 181.617,84 C183.911,84 185,84.468 185,85.455 C185,86.325 186.405,87.173 188.5,87.566 C190.505,87.942 192,88.816 192,89.611 C192,90.375 192.9,91 194,91 C195.1,91 196,91.655 196,92.455 C196,93.325 197.405,94.173 199.5,94.566 C202.033,95.041 203,95.745 203,97.111 C203,98.15 203.675,99 204.5,99 C205.548,99 206,100.056 206,102.5 C206,105.746 205.775,106 202.906,106 C200.654,106 199.671,105.456 199.29,104 C198.831,102.244 197.926,102 191.883,102 C186.431,102 185,101.688 185,100.5 C185,99.417 183.889,99 181,99 C178.111,99 177,99.417 177,100.5 C177,101.633 175.778,102 172,102 C167.667,102 167,102.267 167,104 C167,105.333 166.333,106 165,106 C163.889,106 163,106.667 163,107.5 C163,108.333 162.111,109 161,109 C159.889,109 159,109.667 159,110.5 C159,111.325 158.325,112 157.5,112 C156.667,112 156,112.889 156,114 C156,115.333 155.333,116 154,116 C152.667,116 152,116.667 152,118 C152,119.333 151.333,120 150,120 C148.889,120 148,120.667 148,121.5 C148,122.325 147.325,123 146.5,123 C145.675,123 145,123.848 145,124.883 C145,125.926 144.107,127 143,127.29 C141.9,127.577 141,128.53 141,129.406 C141,130.283 140.325,131 139.5,131 C138.675,131 138,131.623 138,132.383 C138,133.144 137.1,134.002 136,134.29 C134.9,134.577 134,135.53 134,136.406 C134,137.283 133.325,138 132.5,138 C131.675,138 131,138.717 131,139.594 C131,140.47 130.1,141.423 129,141.71 C127.9,141.998 127,142.856 127,143.617 C127,144.377 126.283,145 125.406,145 C124.53,145 123.577,145.9 123.29,147 C123.002,148.1 122.144,149 121.383,149 C120.623,149 120,149.675 120,150.5 C120,151.325 119.283,152 118.406,152 C117.53,152 116.577,152.9 116.29,154 C116.002,155.1 115.144,156 114.383,156 C113.623,156 113,156.675 113,157.5 C113,158.325 112.283,159 111.406,159 C110.53,159 109.577,159.9 109.29,161 C109.002,162.1 108.13,163 107.352,163 C106.574,163 105.678,163.675 105.362,164.5 C105.045,165.325 104.159,166 103.393,166 C102.627,166 102,166.88 102,167.955 C102,169.397 101.082,170.082 98.5,170.566 C95.429,171.142 95,171.588 95,174.205 C95,176.346 94.436,177.335 93,177.71 C91.9,177.998 91,178.856 91,179.617 C91,180.377 90.377,181 89.617,181 C88.856,181 87.998,181.9 87.71,183 C87.423,184.1 86.47,185 85.594,185 C84.717,185 84,185.623 84,186.383 C84,187.144 83.1,188.002 82,188.29 C80.9,188.577 80,189.53 80,190.406 C80,191.283 79.325,192 78.5,192 C77.667,192 77,192.889 77,194 C77,195.333 76.333,196 75,196 C73.889,196 73,196.667 73,197.5 C73,198.325 72.283,199 71.406,199 C70.53,199 69.577,199.9 69.29,201 C69.002,202.1 68.144,203 67.383,203 C66.623,203 66,202.1 66,201 C66,199.889 65.333,199 64.5,199 C63.675,199 63,198.325 63,197.5 C63,196.675 63.675,196 64.5,196 C65.333,196 66,195.111 66,194 C66,192.889 66.667,192 67.5,192 C68.325,192 69,191.283 69,190.406 C69,189.53 69.9,188.577 71,188.29 C72.1,188.002 73,187.32 73,186.774 C73,185.329 77.286,181.038 78.75,181.017 C79.438,181.008 80,180.283 80,179.406 C80,178.53 80.9,177.577 82,177.29 C83.1,177.002 84,176.144 84,175.383 C84,174.623 84.625,174 85.389,174 C86.184,174 87.058,172.505 87.434,170.5 C87.796,168.571 88.691,167 89.429,167 C90.165,167 91.002,166.1 91.29,165 C91.665,163.564 92.654,163 94.795,163 C97.412,163 97.858,162.571 98.434,159.5 C99.001,156.476 99.477,156 101.929,156 C103.926,156 104.922,155.407 105.29,154 C105.577,152.9 106.474,152 107.281,152 C108.115,152 109.011,150.695 109.354,148.979 C109.821,146.644 110.623,145.825 112.888,145.372 C115.254,144.899 115.94,144.134 116.454,141.393 C116.831,139.382 117.683,138 118.545,138 C119.345,138 120,137.377 120,136.617 C120,135.856 120.9,134.998 122,134.71 C123.1,134.423 124,133.47 124,132.594 C124,131.717 124.675,131 125.5,131 C126.333,131 127,130.111 127,129 C127,127.667 127.667,127 129,127 C130.111,127 131,126.333 131,125.5 C131,124.675 131.675,124 132.5,124 C133.333,124 134,123.111 134,122 C134,120.667 134.667,120 136,120 C137.333,120 138,119.333 138,118 C138,116.667 138.667,116 140,116 C141.111,116 142,115.333 142,114.5 C142,113.675 142.675,113 143.5,113 C144.333,113 145,112.111 145,111 C145,109.667 145.667,109 147,109 C148.111,109 149,108.333 149,107.5 C149,106.675 149.675,106 150.5,106 C151.333,106 152,105.111 152,104 C152,102.667 152.667,102 154,102 C155.1,102 156,101.345 156,100.545 C156,99.675 157.405,98.827 159.5,98.434 C161.505,98.058 163,97.184 163,96.389 C163,95.491 164.15,94.995 166.25,94.986 C171,94.966 174,93.959 174,92.383 C174,91.623 173.1,91 172,91 C170.9,91 170,90.361 170,89.579 C170,88.798 168.696,87.872 167.102,87.522 C165.278,87.122 163.985,86.073 163.615,84.693 C162.73,81.391 162.819,81.174 165.25,80.706 Z M152.71,194 C152.31,195.532 151.346,196 148.594,196 C146.066,196 145,196.445 145,197.5 C145,198.325 144.325,199 143.5,199 C142.667,199 142,199.889 142,201 C142,202.111 142.667,203 143.5,203 C144.325,203 145,203.675 145,204.5 C145,205.325 144.438,206.006 143.75,206.014 C143.063,206.021 141.488,206.299 140.25,206.63 C138.183,207.184 138,206.898 138,203.117 C138,200.124 137.59,199 136.5,199 C135.348,199 135,200.278 135,204.5 C135,208.722 135.348,210 136.5,210 C137.652,210 138,211.278 138,215.5 C138,219.722 138.348,221 139.5,221 C140.548,221 141,222.056 141,224.5 C141,227.261 141.398,228 142.883,228 C143.926,228 145,228.893 145.29,230 C145.577,231.1 146.53,232 147.406,232 C148.283,232 149,232.675 149,233.5 C149,234.548 150.056,235 152.5,235 C154.82,235 156,234.532 156,233.611 C156,232.816 157.495,231.942 159.5,231.566 C161.595,231.173 163,230.325 163,229.455 C163,228.424 164.166,228 167,228 C169.889,228 171,227.583 171,226.5 C171,225.675 171.675,225 172.5,225 C173.325,225 174,224.152 174,223.117 C174,222.074 174.893,221 176,220.71 C177.1,220.423 178,219.47 178,218.594 C178,217.717 178.675,217 179.5,217 C180.548,217 181,215.944 181,213.5 C181,210.622 181.37,210 183.079,210 C184.903,210 185.073,209.599 184.458,206.75 C184.072,204.963 183.376,203.355 182.91,203.177 C182.444,203 181.782,201.354 181.438,199.519 C180.817,196.21 180.759,196.179 173.906,195.491 C168.987,194.997 167,194.395 167,193.399 C167,192.336 165.346,192 160.117,192 C154.074,192 153.169,192.244 152.71,194 Z M148.75,141.728 C161.645,140.38 178,141.402 178,143.557 C178,144.533 182.142,144.913 195.538,145.167 C209.795,145.438 213.248,145.781 214,147 C214.713,148.158 217.536,148.576 226.367,148.834 C233.565,149.044 236.656,149.068 237.981,150.61 C239.033,151.834 238.972,154.013 238.969,158 C238.965,163.488 235.897,167 231.109,167 C228.667,167 228,166.571 228,165 C228,163.889 228.667,163 229.5,163 C230.333,163 231,162.111 231,161 C231,159.889 230.333,159 229.5,159 C228.675,159 228,158.325 228,157.5 C228,156.213 224.944,156 206.5,156 C189.034,156 185,155.745 185,154.639 C185,152.79 177.783,152.019 160.367,152.009 C146.559,152 146.219,151.948 145.63,149.75 C145.299,148.512 145.021,146.29 145.014,144.81 C145.002,142.436 145.439,142.075 148.75,141.728 Z M120,53.389 C120,52.468 121.18,52 123.5,52 L127,52 L127,56.883 C127,60.926 126.656,61.857 125,62.29 C123.9,62.577 123,63.53 123,64.406 C123,65.561 122.036,66 119.5,66 C116.667,66 116,66.381 116,68 C116,69.111 115.333,70 114.5,70 C113.675,70 113,70.623 113,71.383 C113,72.144 112.1,73.002 111,73.29 C109.565,73.665 109,74.654 109,76.79 C109,78.926 108.435,79.914 107,80.29 C105.9,80.577 105,81.53 105,82.406 C105,83.283 104.325,84 103.5,84 C102.667,84 102,84.889 102,86 C102,87.1 101.377,88 100.617,88 C99.856,88 98.998,88.9 98.71,90 C98.423,91.1 97.47,92 96.594,92 C95.504,92 95,92.912 95,94.883 C95,96.926 94.417,97.919 93,98.29 C91.9,98.577 91,99.53 91,100.406 C91,101.283 90.325,102 89.5,102 C88.534,102 87.995,102.978 87.986,104.75 C87.965,109.032 86.899,112 85.383,112 C84.574,112 84,113.038 84,114.5 C84,116.021 83.43,117 82.545,117 C81.675,117 80.827,118.405 80.434,120.5 C80.058,122.505 79.184,124 78.389,124 C77.389,124 77,125.4 77,129 C77,132.908 76.652,134 75.406,134 C74.53,134 73.577,134.9 73.29,136 C73.002,137.1 72.197,138 71.5,138 C70.803,138 69.998,137.1 69.71,136 C69.423,134.9 68.47,134 67.594,134 C66.717,134 66,133.325 66,132.5 C66,131.675 66.619,131 67.375,131 C68.746,131 70,126.88 70,122.375 C70,120.931 70.588,120 71.5,120 C72.538,120 73,118.957 73,116.617 C73,114.074 73.497,113.103 75,112.71 C76.532,112.31 77,111.346 77,108.594 C77,106.155 77.457,105 78.421,105 C79.202,105 80.138,103.65 80.5,102 C80.862,100.35 81.798,99 82.579,99 C83.428,99 84,97.993 84,96.5 C84,95.007 84.572,94 85.421,94 C86.202,94 87.138,92.65 87.5,91 C87.862,89.35 88.798,88 89.579,88 C90.361,88 91,87.1 91,86 C91,84.667 91.667,84 93,84 C94.619,84 95,83.333 95,80.5 C95,77.964 95.439,77 96.594,77 C97.47,77 98.423,76.1 98.71,75 C98.998,73.9 99.856,73 100.617,73 C101.377,73 102,72.1 102,71 C102,69.9 102.639,69 103.421,69 C104.202,69 105.138,67.65 105.5,66 C105.862,64.35 106.798,63 107.579,63 C108.361,63 109,62.1 109,61 C109,59.667 109.667,59 111,59 C112.1,59 113,58.345 113,57.545 C113,56.675 114.405,55.827 116.5,55.434 C118.505,55.058 120,54.184 120,53.389 Z"/>
</svg>

