<svg xmlns="http://www.w3.org/2000/svg" width="300" height="300" viewBox="0 0 300 300" version="1.1">
  <defs/>
  <path d="M131,17.094 L131,12 L141,12 L141,17 C141,20.778 140.633,22 139.5,22 C138.333,22 138,23.333 138,28 C138,32.442 137.641,34 136.617,34 C135.101,34 134.035,36.968 134.014,41.25 C134.005,43.022 133.466,44 132.5,44 C131.41,44 131,45.124 131,48.117 C131,51.898 131.183,52.184 133.25,51.63 C134.488,51.299 136.738,51.021 138.25,51.014 C140.022,51.005 141,50.466 141,49.5 C141,48.279 142.654,48 149.883,48 C157.926,48 158.816,47.811 159.29,46 C159.734,44.301 160.654,44 165.406,44 C169.712,44 171,43.655 171,42.5 C171,41.675 171.675,41 172.5,41 C173.652,41 174,42.278 174,46.5 C174,51.333 173.758,52 172,52 C170.9,52 170,52.626 170,53.392 C170,54.157 168.79,55.087 167.312,55.458 C165.833,55.829 164.119,56.823 163.502,57.666 C162.59,58.914 161.132,59.066 155.69,58.483 C152.011,58.089 149,57.369 149,56.884 C149,55.398 146.252,55.902 145.638,57.5 C145.189,58.67 143.197,59 136.577,59 L128.091,59 L127.434,62.5 C127.073,64.425 126.205,66 125.505,66 C124.806,66 123.998,66.9 123.71,68 C123.423,69.1 122.47,70 121.594,70 C120.439,70 120,70.964 120,73.5 C120,75.813 119.531,77 118.617,77 C117.331,77 116.045,79.84 116.014,82.75 C116.003,83.695 119.659,84 131,84 C142.997,84 146,83.727 146,82.637 C146,81.678 147.947,81.118 152.563,80.747 C160.117,80.141 163,80.657 163,82.617 C163,83.523 164.172,84 166.399,84 L169.797,84 L170.495,90.95 C171.333,99.297 170.406,106 168.412,106 C167.396,106 166.996,107.332 166.986,110.75 C166.969,116.923 166.103,120 164.383,120 C163.469,120 163,121.187 163,123.5 C163,125.944 162.548,127 161.5,127 C160.445,127 160,128.066 160,130.594 C160,133.346 159.532,134.31 158,134.71 C156.497,135.103 156,136.074 156,138.617 C156,140.911 155.532,142 154.545,142 C153.675,142 152.827,143.405 152.434,145.5 C152.073,147.425 151.203,149 150.5,149 C149.797,149 148.927,150.575 148.566,152.5 C147.992,155.562 147.54,156 144.955,156 C142.667,156 142,156.451 142,158 C142,159.333 141.333,160 140,160 C138.333,160 138,159.333 138,156 C138,153.111 138.417,152 139.5,152 C140.325,152 141,151.325 141,150.5 C141,149.675 140.325,149 139.5,149 C138.667,149 138,148.111 138,147 C138,144.095 131.47,144.095 130.71,147 C130.423,148.1 129.47,149 128.594,149 C127.717,149 127,149.655 127,150.455 C127,151.325 125.595,152.173 123.5,152.566 C120.067,153.21 120,153.316 120,158.111 C120,162.333 119.727,163 118,163 C116.667,163 116,163.667 116,165 C116,166.111 115.333,167 114.5,167 C113.452,167 113,168.056 113,170.5 C113,173.833 113.167,174 116.5,174 C118.803,174 120,173.53 120,172.625 C120,171.096 124.228,170 130.125,170 C132.792,170 134,169.561 134,168.591 C134,167.49 136.301,167.108 144.538,166.841 C152.556,166.582 155.297,166.141 156,165 C156.733,163.809 159.813,163.433 170.962,163.174 C184.608,162.858 185,162.907 185,164.924 C185,166.103 185.648,167 186.5,167 C188.854,167 188.253,169.699 185.75,170.37 C184.512,170.701 179.787,170.979 175.25,170.986 C168.589,170.997 167,171.289 167,172.5 C167,173.728 165.278,174 157.5,174 C150.078,174 148,174.303 148,175.383 C148,177.131 144.562,178.062 140.851,177.32 C138.468,176.844 138,177.082 138,178.772 C138,180.675 138.737,180.815 150.537,181.147 C159.706,181.405 163.299,181.864 163.911,182.856 C164.549,183.889 169.312,184.341 183.875,184.754 C199.015,185.182 203,185.577 203,186.647 C203,187.631 204.604,188 208.875,188 C216.658,188 221,188.94 221,190.625 C221,191.381 221.675,192 222.5,192 C223.325,192 224,192.675 224,193.5 C224,194.325 223.325,195 222.5,195 C221.667,195 221,195.889 221,197 C221,198.333 220.333,199 219,199 C217.889,199 217,199.667 217,200.5 C217,201.325 216.325,202 215.5,202 C214.675,202 214,201.6 214,201.111 C214,200.623 212.425,199.927 210.5,199.566 C208.405,199.173 207,198.325 207,197.455 C207,196.294 205.234,195.997 198.25,195.986 C188.209,195.971 185,195.34 185,193.383 C185,192.252 181.362,192 165,192 C148.725,192 145,191.745 145,190.629 C145,189.621 142.615,189.071 136,188.554 C129.207,188.022 127,187.5 127,186.425 C127,185.382 125.661,185 122,185 C118.222,185 117,185.367 117,186.5 C117,187.583 115.889,188 113,188 C110.111,188 109,187.583 109,186.5 C109,185.452 107.944,185 105.5,185 C102.667,185 102,185.381 102,187 C102,188.1 101.361,189 100.579,189 C99.798,189 98.862,190.35 98.5,192 C98.138,193.65 97.202,195 96.421,195 C95.639,195 95,195.9 95,197 C95,198.1 94.345,199 93.545,199 C92.675,199 91.827,200.405 91.434,202.5 C91.058,204.505 90.184,206 89.389,206 C88.625,206 88,206.9 88,208 C88,209.333 87.333,210 86,210 C84.381,210 84,210.667 84,213.5 C84,215.896 83.541,217 82.545,217 C81.675,217 80.827,218.405 80.434,220.5 C80.058,222.505 79.184,224 78.389,224 C77.625,224 77,224.9 77,226 C77,227.333 76.333,228 75,228 C73.626,228 73,228.667 73,230.13 C73,232.066 72.586,232.213 68.451,231.747 C63.064,231.14 62.969,231.067 62.705,227.372 C62.523,224.818 62.856,224.466 65.716,224.189 C68.502,223.92 69.019,223.418 69.577,220.439 C69.945,218.481 70.821,217 71.611,217 C72.532,217 73,215.82 73,213.5 C73,210.667 73.381,210 75,210 C76.333,210 77,209.333 77,208 C77,206.9 77.639,206 78.421,206 C79.202,206 80.138,204.65 80.5,203 C80.862,201.35 81.798,200 82.579,200 C83.428,200 84,198.993 84,197.5 C84,195.944 84.567,195 85.5,195 C86.325,195 87.006,194.662 87.014,194.25 C87.021,193.838 87.299,192.487 87.63,191.25 C88.117,189.435 87.824,189 86.117,189 C84.902,189 84,189.639 84,190.5 C84,191.69 82.556,192 77,192 C70.667,192 70,192.19 70,194 C70,195.619 69.333,196 66.5,196 C64.056,196 63,196.452 63,197.5 C63,198.333 62.111,199 61,199 C59.667,199 59,199.667 59,201 C59,202.333 58.333,203 57,203 C55.667,203 55,203.667 55,205 C55,206.333 54.333,207 53,207 C51.889,207 51,207.667 51,208.5 C51,209.325 50.325,210 49.5,210 C48.675,210 48,209.377 48,208.617 C48,207.856 47.1,206.998 46,206.71 C43.079,205.946 43.079,199 46,199 C47.333,199 48,198.333 48,197 C48,195.667 48.667,195 50,195 C51.111,195 52,194.333 52,193.5 Q52,192 55,192 C56.879,192 58,191.486 58,190.625 C58,189.254 62.12,188 66.625,188 C68.069,188 69,187.412 69,186.5 C69,185.417 70.111,185 73,185 C76.333,185 77,184.667 77,183 C77,181.19 77.667,181 84,181 C89.362,181 91,180.67 91,179.588 C91,178.72 92.541,177.915 95,177.5 C97.459,177.085 99,176.28 99,175.412 C99,174.635 99.675,174 100.5,174 C101.548,174 102,172.944 102,170.5 C102,167.667 102.381,167 104,167 C105.333,167 106,166.333 106,165 C106,163.9 106.625,163 107.389,163 C108.184,163 109.058,161.505 109.434,159.5 C109.827,157.405 110.675,156 111.545,156 C112.345,156 113,155.1 113,154 C113,152.381 112.333,152 109.5,152 C106.667,152 106,152.381 106,154 C106,155.333 105.333,156 104,156 C102.667,156 102,156.667 102,158 C102,159.333 101.333,160 100,160 C98.889,160 98,160.667 98,161.5 C98,162.325 97.325,163 96.5,163 C95.675,163 95,162.377 95,161.617 C95,160.856 94.1,159.998 93,159.71 C91.237,159.249 91,158.346 91,152.094 C91,146.801 90.657,145 89.648,145 C88.217,145 87.018,134.673 87.006,122.25 C87.001,117.364 86.673,116 85.5,116 C84.31,116 84,114.556 84,109 C84,103.763 83.657,102 82.639,102 C81.757,102 81.076,100.286 80.701,97.122 C80.015,91.327 80.713,88 82.617,88 C83.377,88 84,87.1 84,86 C84,84.667 84.667,84 86,84 C87.111,84 88,84.667 88,85.5 C88,87.592 90.669,87.384 91.21,85.25 C91.454,84.288 91.454,80.463 91.21,76.75 L90.767,70 L83.384,70 C77.487,70 76,70.302 76,71.5 C76,72.672 74.633,73.003 69.75,73.014 C60.661,73.034 59,73.668 59,77.117 C59,79.745 58.691,80 55.5,80 C52.167,80 52,79.833 52,76.5 C52,74.18 52.468,73 53.389,73 C54.184,73 55.058,71.505 55.434,69.5 C56.08,66.059 56.175,66 61.045,66 C64.557,66 66,65.604 66,64.639 C66,63.15 72.745,62.024 81.75,62.009 L87,62 L87,57 C87,53.222 86.633,52 85.5,52 C84.258,52 84,50.111 84,41 C84,30.667 84.121,30 86,30 C87.111,30 88,29.333 88,28.5 C88,27.675 88.675,27 89.5,27 C90.325,27 91,27.675 91,28.5 C91,29.333 91.889,30 93,30 C94.904,30 95,30.667 95,43.883 C95,57.436 95.054,57.781 97.25,58.37 C101.007,59.376 102,59.09 102,57 C102,55.148 102.667,55 111,55 L120,55 L120,51.5 C120,49.197 120.47,48 121.375,48 C122.746,48 124,43.88 124,39.375 C124,37.931 124.588,37 125.5,37 C126.688,37 127,35.569 127,30.117 C127,24.074 127.244,23.169 129,22.71 C130.67,22.274 131,21.346 131,17.094 Z M127.528,91.733 C123.693,91.936 120.243,92.607 119.861,93.226 C119.473,93.853 115.375,94.549 110.583,94.8 C104.187,95.136 102,95.601 102,96.625 C102,97.53 100.803,98 98.5,98 L95,98 L95,118 C95,135.111 95.217,138 96.5,138 C97.548,138 98,139.056 98,141.5 C98,144.333 98.381,145 100,145 C101.1,145 102,144.375 102,143.611 C102,142.816 103.495,141.942 105.5,141.566 C107.595,141.173 109,140.325 109,139.455 C109,138.358 110.354,138 114.5,138 C119.333,138 120,137.758 120,136 C120,134.242 120.667,134 125.5,134 C129.722,134 131,133.652 131,132.5 C131,131.452 132.056,131 134.5,131 L138,131 L138,124 C138,118.444 138.31,117 139.5,117 C140.583,117 141,115.889 141,113 L141,109 L134.469,109 C129.639,109 127.79,109.384 127.372,110.473 C127.061,111.283 125.275,112.233 123.403,112.584 L120,113.223 L120,127 L113,127 L113,118 C113,111.004 113.308,109 114.383,109 C115.144,109 116.002,108.1 116.29,107 C116.577,105.9 117.53,105 118.406,105 C119.283,105 120,104.325 120,103.5 C120,102.367 121.222,102 125,102 C128.778,102 130,101.633 130,100.5 C130,99.3 131.5,99 137.5,99 C143.5,99 145,99.3 145,100.5 C145,101.333 145.889,102 147,102 C148.808,102 149,102.667 149,108.95 C149,114.292 148.628,116.109 147.394,116.799 C146.428,117.34 145.58,119.551 145.264,122.349 C144.848,126.039 144.353,127 142.87,127 C140.905,127 140.635,128.036 141.63,131.75 C142.105,133.521 142.953,134 145.617,134 C147.957,134 149,133.538 149,132.5 C149,131.675 149.619,131 150.375,131 C151.746,131 153,126.88 153,122.375 C153,120.931 153.588,120 154.5,120 C155.583,120 156,118.889 156,116 C156,113.218 156.431,112 157.415,112 C158.442,112 159.015,110.014 159.507,104.75 C159.88,100.763 160.031,96.15 159.842,94.5 L159.5,91.5 L147,91.432 C140.125,91.394 131.362,91.53 127.528,91.733 Z M131,197.5 C131,196.452 132.056,196 134.5,196 C136.944,196 138,196.452 138,197.5 C138,198.333 138.889,199 140,199 C141.629,199 142,199.667 142,202.594 C142,205.346 141.532,206.31 140,206.71 C137.769,207.294 137.236,210 139.352,210 C140.688,210 141.979,220.141 141.994,230.75 C141.998,233.858 142.403,235 143.5,235 C144.692,235 145,236.455 145,242.094 C145,248.346 145.237,249.249 147,249.71 C148.756,250.169 149,251.074 149,257.117 C149,263.333 148.806,264 147,264 C145.9,264 145,264.623 145,265.383 C145,267.198 141.86,267.973 134.5,267.973 C127.14,267.973 124,267.198 124,265.383 C124,264.359 122.442,264 118,264 C113.333,264 112,264.333 112,265.5 C112,266.325 111.325,267 110.5,267 C109.667,267 109,267.889 109,269 C109,270.111 108.333,271 107.5,271 C106.667,271 106,271.889 106,273 C106,274.333 105.333,275 104,275 C102.381,275 102,275.667 102,278.5 C102,280.82 101.532,282 100.611,282 C99.816,282 98.942,283.495 98.566,285.5 C98.082,288.082 97.397,289 95.955,289 C94.88,289 94,288.325 94,287.5 C94,286.675 93.55,286 93,286 C92.45,286 92,285.1 92,284 C92,282.9 92.43,282 92.955,282 C93.48,282 94.205,280.425 94.566,278.5 C94.942,276.495 95.816,275 96.611,275 C97.539,275 98,273.806 98,271.406 C98,268.654 98.468,267.69 100,267.29 C101.503,266.897 102,265.926 102,263.383 C102,261.169 102.478,260 103.383,260 C104.899,260 105.965,257.032 105.986,252.75 C105.995,250.978 106.534,250 107.5,250 C108.333,250 109,249.111 109,248 C109,246.667 109.667,246 111,246 C112.619,246 113,245.333 113,242.5 L113,239 L118.5,239 C123.837,239 124,239.082 123.986,241.75 C123.961,246.849 122.91,248.861 119.93,249.515 C117.643,250.018 116.933,250.838 116.42,253.572 C116.055,255.522 115.178,257 114.389,257 C113.625,257 113,257.675 113,258.5 C113,259.753 115.056,260 125.5,260 L138,260 L138,253 C138,247.727 137.661,246 136.625,246 C135.096,246 134,241.772 134,235.875 C134,233.25 133.556,232 132.622,232 C131.585,232 131.137,229.757 130.811,222.925 C130.511,216.648 129.949,213.587 128.99,212.994 C128.116,212.454 127.449,209.707 127.185,205.568 C126.793,199.414 126.901,199 128.884,199 C130.098,199 131,198.361 131,197.5 Z M185,246 L185,235 L188.5,235 C191.333,235 192,235.381 192,237 C192,238.606 192.667,239 195.383,239 C197.926,239 198.897,239.497 199.29,241 C199.577,242.1 200.53,243 201.406,243 C202.283,243 203,243.675 203,244.5 C203,245.325 203.623,246 204.383,246 C205.144,246 206.002,246.9 206.29,248 C206.577,249.1 207.53,250 208.406,250 C209.561,250 210,250.964 210,253.5 C210,256.333 210.381,257 212,257 C213.619,257 214,257.667 214,260.5 C214,262.944 214.452,264 215.5,264 C216.333,264 217,264.889 217,266 C217,267.333 217.667,268 219,268 C220.619,268 221,268.667 221,271.5 C221,274.333 220.619,275 219,275 C217.889,275 217,275.667 217,276.5 C217,277.333 216.111,278 215,278 C213.889,278 213,277.333 213,276.5 C213,275.675 212.325,275 211.5,275 C210.667,275 210,274.111 210,273 C210,271.667 209.333,271 208,271 C206.381,271 206,270.333 206,267.5 C206,265.18 205.532,264 204.611,264 C203.816,264 202.942,262.505 202.566,260.5 C202.173,258.405 201.325,257 200.455,257 C199.655,257 199,256.345 199,255.545 C199,254.675 197.595,253.827 195.5,253.434 C192.318,252.837 192,252.47 192,249.389 C192,246.183 191.811,246 188.5,246 L185,246 Z M232,239 L232,235 L237.094,235 C241.346,235 242.274,235.33 242.71,237 C242.998,238.1 243.856,239 244.617,239 C245.531,239 246,240.187 246,242.5 C246,245.333 246.381,246 248,246 C249.619,246 250,246.667 250,249.5 C250,251.944 250.452,253 251.5,253 C252.544,253 253,254.05 253,256.45 C253,258.697 253.61,260.242 254.75,260.878 C256.235,261.708 256.551,263.691 256.835,273.993 L257.17,286.131 L253.335,285.815 L249.5,285.5 L249.395,280.5 C249.214,271.842 249.046,271 247.5,271 C246.348,271 246,269.722 246,265.5 C246,261.354 245.642,260 244.545,260 C243.675,260 242.827,258.595 242.434,256.5 C242.058,254.495 241.184,253 240.389,253 C239.468,253 239,251.82 239,249.5 C239,246.667 238.619,246 237,246 C235.889,246 235,245.333 235,244.5 C235,243.675 234.325,243 233.5,243 C232.417,243 232,241.889 232,239 Z M113,64.5 C113,65.702 111.486,66 105.375,66 L97.75,66 L98.375,69.125 C98.719,70.844 99,73.994 99,76.125 C99,78.903 99.425,80 100.5,80 C101.333,80 102,80.889 102,82 C102,83.619 102.667,84 105.5,84 C108.81,84 109,83.817 109,80.617 C109,78.074 109.497,77.103 111,76.71 C112.532,76.31 113,75.346 113,72.594 C113,70.066 113.445,69 114.5,69 Q116,69 116,66 Q116,63 114.5,63 C113.675,63 113,63.675 113,64.5 Z"/>
</svg>

