<svg xmlns="http://www.w3.org/2000/svg" width="300" height="300" viewBox="0 0 300 300" version="1.1">
  <defs/>
  <path d="M197,44.5 L197,41 L201.875,41 C206.435,41 206.787,41.184 207.32,43.851 C208.062,47.562 207.131,51 205.383,51 C204.623,51 204,51.9 204,53 C204,54.619 204.667,55 207.5,55 C209.803,55 211,54.53 211,53.625 C211,52.254 215.12,51 219.625,51 C221.069,51 222,50.412 222,49.5 C222,48.417 223.111,48 226,48 C229.333,48 230,48.333 230,50 C230,51.111 230.667,52 231.5,52 C232.325,52 233,52.675 233,53.5 C233,54.333 232.111,55 231,55 C229.667,55 229,55.667 229,57 C229,58.1 228.375,59 227.611,59 C226.816,59 225.942,60.495 225.566,62.5 C224.92,65.941 224.825,66 219.955,66 C215.667,66 215,65.731 215,64 C215,62.561 214.333,62 212.625,62 C208.12,62 204,63.254 204,64.625 C204,65.381 203.1,66 202,66 C200.889,66 200,66.667 200,67.5 C200,68.325 199.325,69 198.5,69 C197.417,69 197,70.111 197,73 C197,75.746 196.565,77 195.611,77 C194.816,77 193.942,78.495 193.566,80.5 C193.173,82.595 192.325,84 191.455,84 C190.483,84 189.995,85.079 189.986,87.25 C189.966,92 188.959,95 187.383,95 C186.623,95 186,95.675 186,96.5 C186,97.652 187.278,98 191.5,98 C195.472,98 197,97.622 197,96.639 C197,95.746 198.777,95.068 202.175,94.666 C205.021,94.329 207.69,93.502 208.106,92.828 C208.53,92.143 211.756,91.419 215.432,91.185 C220.156,90.884 222,90.379 222,89.384 C222,88.623 222.675,88 223.5,88 C224.325,88 225,88.675 225,89.5 C225,90.325 225.878,91 226.95,91 C228.023,91 229.305,91.723 229.799,92.606 C230.34,93.572 232.551,94.42 235.349,94.736 C239.86,95.244 240,95.362 240,98.63 C240,101.333 240.396,102 242,102 C243.758,102 244,102.667 244,107.5 C244,111.722 244.348,113 245.5,113 C246.652,113 247,114.278 247,118.5 C247,122.722 246.652,124 245.5,124 C244.675,124 244,124.619 244,125.375 C244,126.736 239.887,128 235.458,128 C234.198,128 233.004,128.488 232.805,129.085 C232.579,129.762 227.081,130.383 218.222,130.734 C207.218,131.169 204,131.603 204,132.648 C204,133.526 202.774,134 200.5,134 C197.667,134 197,134.381 197,136 C197,137.333 196.333,138 195,138 C193.667,138 193,138.667 193,140 C193,141.111 192.333,142 191.5,142 C190.675,142 190,142.675 190,143.5 C190,144.333 189.111,145 188,145 C186.667,145 186,145.667 186,147 C186,148.111 185.333,149 184.5,149 C183.675,149 183,149.717 183,150.594 C183,151.47 182.1,152.423 181,152.71 C179.9,152.998 179,153.856 179,154.617 C179,155.377 178.345,156 177.545,156 C176.675,156 175.827,157.405 175.434,159.5 C175.058,161.505 174.184,163 173.389,163 C172.625,163 172,163.717 172,164.594 C172,165.47 171.1,166.423 170,166.71 C168.9,166.998 168,167.856 168,168.617 C168,169.377 167.283,170 166.406,170 C165.53,170 164.577,170.9 164.29,172 C164.002,173.1 163.144,174 162.383,174 C161.623,174 161,174.9 161,176 C161,177.333 160.333,178 159,178 C157.889,178 157,178.667 157,179.5 C157,180.325 156.375,181 155.611,181 C154.816,181 153.942,182.495 153.566,184.5 C153.173,186.595 152.325,188 151.455,188 C150.655,188 150,188.9 150,190 C150,191.1 149.345,192 148.545,192 C147.675,192 146.827,193.405 146.434,195.5 C146.058,197.505 145.184,199 144.389,199 C143.625,199 143,199.9 143,201 C143,202.333 142.333,203 141,203 C139.667,203 139,203.667 139,205 C139,206.1 138.361,207 137.579,207 C136.798,207 135.862,208.35 135.5,210 C135.138,211.65 134.202,213 133.421,213 C132.43,213 132,214.211 132,217 C132,219.889 131.583,221 130.5,221 C129.675,221 129,221.717 129,222.594 C129,223.47 128.1,224.423 127,224.71 C125.244,225.169 125,226.074 125,232.117 L125,239 L121.588,239 C118.404,239 118.132,238.741 117.52,235.119 C116.67,230.087 117.815,224 119.611,224 C120.532,224 121,222.82 121,220.5 C121,218.104 121.459,217 122.455,217 C123.325,217 124.173,215.595 124.566,213.5 C124.927,211.575 125.797,210 126.5,210 C127.203,210 128.073,208.425 128.434,206.5 C128.827,204.405 129.675,203 130.545,203 C131.345,203 132,202.1 132,201 C132,199.889 131.333,199 130.5,199 C129.667,199 129,199.889 129,201 C129,202.333 128.333,203 127,203 C125.889,203 125,203.667 125,204.5 C125,205.333 124.111,206 123,206 C121.667,206 121,206.667 121,208 C121,209.619 120.333,210 117.5,210 C114.667,210 114,210.381 114,212 C114,213.619 113.333,214 110.5,214 C108.056,214 107,214.452 107,215.5 C107,216.555 105.934,217 103.406,217 C100.654,217 99.69,217.468 99.29,219 C98.831,220.756 97.926,221 91.883,221 C86.71,221 85,221.342 85,222.375 C85,223.746 80.88,225 76.375,225 C74.931,225 74,225.588 74,226.5 C74,227.652 72.722,228 68.5,228 C64.415,228 63,227.635 63,226.579 C63,225.798 61.664,224.866 60.032,224.507 C57.634,223.98 56.94,223.196 56.42,220.428 C56.055,218.478 55.178,217 54.389,217 C53.544,217 52.995,215.923 52.986,214.25 C52.965,209.968 51.899,207 50.383,207 C49.329,207 49,205.219 49,199.5 C49,193.5 48.7,192 47.5,192 C46.278,192 46,190.333 46,183 C46,175.667 46.278,174 47.5,174 C48.548,174 49,172.944 49,170.5 C49,167.667 49.381,167 51,167 C52.1,167 53,166.377 53,165.617 C53,163.66 56.209,163.029 66.25,163.014 C74.338,163.001 75,163.151 75,165 C75,166.778 74.333,167 69,167 C64.333,167 63,167.333 63,168.5 C63,169.325 62.325,170 61.5,170 C60.667,170 60,170.889 60,172 C60,173.333 59.333,174 58,174 C56.142,174 56,174.667 56,183.375 C56,194.511 56.754,199 58.625,199 C59.625,199 60,200.5 60,204.5 C60,208.646 60.358,210 61.455,210 C62.325,210 63.173,211.405 63.566,213.5 L64.223,217 L72.611,217 C79.05,217 81,216.681 81,215.629 C81,214.696 82.915,214.042 87,213.58 C91.263,213.097 93,212.481 93,211.45 C93,210.377 94.298,210 98,210 C101.6,210 103,209.611 103,208.611 C103,207.816 104.495,206.942 106.5,206.566 C108.595,206.173 110,205.325 110,204.455 C110,203.459 111.104,203 113.5,203 C116.333,203 117,202.619 117,201 C117,199.667 117.667,199 119,199 C120.111,199 121,198.333 121,197.5 C121,196.667 121.889,196 123,196 C124.333,196 125,195.333 125,194 C125,192.667 125.667,192 127,192 C128.111,192 129,191.333 129,190.5 C129,189.675 129.675,189 130.5,189 C131.333,189 132,188.111 132,187 C132,185.837 132.667,185 133.594,185 C134.47,185 135.423,184.1 135.71,183 C136.103,181.497 137.074,181 139.617,181 C142.333,181 143,181.394 143,183 C143,184.111 143.667,185 144.5,185 C145.333,185 146,184.111 146,183 C146,181.667 146.667,181 148,181 C149.619,181 150,180.333 150,177.5 C150,174.667 150.381,174 152,174 C153.333,174 154,173.333 154,172 C154,170.889 154.667,170 155.5,170 C156.325,170 157,169.325 157,168.5 C157,167.667 157.889,167 159,167 C160.333,167 161,166.333 161,165 C161,163.9 161.625,163 162.389,163 C163.184,163 164.058,161.505 164.434,159.5 C164.827,157.405 165.675,156 166.545,156 C167.345,156 168,155.377 168,154.617 C168,153.856 168.9,152.998 170,152.71 C171.1,152.423 172,151.47 172,150.594 C172,149.717 172.675,149 173.5,149 C174.333,149 175,148.111 175,147 C175,145.667 175.667,145 177,145 C178.111,145 179,144.333 179,143.5 C179,142.675 179.675,142 180.5,142 C181.333,142 182,141.111 182,140 C182,138.667 182.667,138 184,138 C185.373,138 186,137.333 186,135.875 C186,134.028 185.591,133.832 182.875,134.375 C181.156,134.719 178.681,135 177.375,135 C175.931,135 175,135.588 175,136.5 C175,137.652 173.722,138 169.5,138 C164.667,138 164,138.242 164,140 C164,141.619 163.333,142 160.5,142 C158.056,142 157,142.452 157,143.5 C157,144.548 155.944,145 153.5,145 C150.667,145 150,145.381 150,147 C150,148.619 149.333,149 146.5,149 C144.119,149 143,149.461 143,150.441 C143,152.489 141.49,153.161 138.546,152.422 C136.263,151.849 136,151.291 136,147.008 C136,143.074 136.352,142.141 138,141.71 C139.1,141.423 140,140.47 140,139.594 C140,138.49 140.922,138 143,138 C145.333,138 146,137.556 146,136 C146,134.667 146.667,134 148,134 C149.111,134 150,133.333 150,132.5 C150,131.675 150.675,131 151.5,131 C152.333,131 153,130.111 153,129 C153,127.889 152.333,127 151.5,127 C150.675,127 150,126.325 150,125.5 C150,124.452 148.944,124 146.5,124 C143.083,124 143,123.905 143,120 C143,116.667 143.333,116 145,116 C146.111,116 147,115.333 147,114.5 C147,113.49 148.01,113 150.094,113 C152.346,113 153.329,112.456 153.71,111 C154.103,109.497 155.074,109 157.617,109 C159.957,109 161,108.538 161,107.5 C161,106.675 161.675,106 162.5,106 C163.333,106 164,105.111 164,104 C164,102.889 163.333,102 162.5,102 C161.667,102 161,101.111 161,100 C161,98.667 160.333,98 159,98 C157.242,98 157,97.333 157,92.5 C157,88.278 156.652,87 155.5,87 C154.367,87 154,85.778 154,82 L154,77 L148.5,77 C144.474,77 143,77.372 143,78.389 C143,79.184 141.505,80.058 139.5,80.434 C137.405,80.827 136,81.675 136,82.545 C136,83.345 135.1,84 134,84 C132.667,84 132,84.667 132,86 C132,87.163 131.333,88 130.406,88 C129.53,88 128.577,87.1 128.29,86 C128.002,84.9 127.144,84 126.383,84 C125.469,84 125,82.813 125,80.5 C125,78.187 125.469,77 126.383,77 C127.144,77 128.002,76.1 128.29,75 C128.69,73.468 129.654,73 132.406,73 C134.818,73 136,72.54 136,71.601 C136,70.604 138.005,70.002 143,69.5 C147.995,68.998 150,68.396 150,67.399 C150,66.629 149.388,66 148.639,66 C147.121,66 146.023,59.218 146.009,49.75 L146,44 L150,44 C153.333,44 154,44.333 154,46 C154,47.111 154.667,48 155.5,48 C156.722,48 157,49.667 157,57 L157,66 L166,66 C174.333,66 175,65.852 175,64 C175,62.242 175.667,62 180.5,62 C184.722,62 186,61.652 186,60.5 C186,59.452 187.056,59 189.5,59 C192.779,59 193.001,58.795 193.014,55.75 C193.034,51 194.041,48 195.617,48 C196.531,48 197,46.813 197,44.5 Z M81.16,74.678 C81.925,73.311 83.685,73 90.643,73 C98.346,73 99.239,73.197 99.71,75 C100.103,76.503 101.074,77 103.617,77 L107,77 L106.986,85.25 C106.971,94.804 106.318,98 104.383,98 C103.469,98 103,99.187 103,101.5 C103,103.82 102.532,105 101.611,105 C100.816,105 99.942,106.495 99.566,108.5 C99.173,110.595 98.325,112 97.455,112 C96.57,112 96,112.979 96,114.5 C96,116.056 95.433,117 94.5,117 C93.675,117 93,117.675 93,118.5 C93,119.325 93.675,120 94.5,120 C95.793,120 96,123.444 96,145 L96,170 L99.5,170 C101.944,170 103,169.548 103,168.5 C103,167.3 104.5,167 110.5,167 C116.219,167 118,167.329 118,168.383 C118,169.144 118.9,170.002 120,170.29 C121.1,170.577 122,171.53 122,172.406 C122,173.283 122.675,174 123.5,174 C125.733,174 125.315,177.105 123,177.71 C121.497,178.103 121,179.074 121,181.617 L121,185 L116,185 C111.667,185 111,184.733 111,183 C111,181.889 111.667,181 112.5,181 C113.361,181 114,180.098 114,178.883 C114,177.176 113.565,176.883 111.75,177.37 C110.513,177.701 108.938,177.979 108.25,177.986 C107.563,177.994 107,178.625 107,179.389 C107,180.184 105.505,181.058 103.5,181.434 C100.438,182.008 100,182.46 100,185.045 C100,186.883 100.519,188 101.373,188 C102.887,188 104.076,196.152 103.217,200.643 C102.756,203.056 102.428,203.196 98.312,202.732 C95.886,202.458 93.614,201.947 93.263,201.596 C92.912,201.245 92.43,198.267 92.192,194.979 C91.888,190.771 91.351,189 90.38,189 C89.281,189 89,186.468 89,176.55 C89,165.731 88.771,163.971 87.25,163.122 C85.723,162.269 85.459,160.159 85.18,146.572 C84.919,133.887 84.594,131 83.43,131 C82.643,131 82,131.625 82,132.389 C82,133.184 80.505,134.058 78.5,134.434 C76.405,134.827 75,135.675 75,136.545 C75,137.345 74.1,138 73,138 C71.889,138 71,138.667 71,139.5 C71,140.538 69.957,141 67.617,141 C65.035,141 64.105,140.509 63.691,138.927 C62.85,135.709 64.09,130 65.631,130 C66.384,130 67,129.55 67,129 C67,128.45 66.365,128 65.588,128 C64.72,128 63.915,126.459 63.5,124 C63.085,121.541 62.28,120 61.412,120 C60.321,120 60,118.293 60,112.5 C60,106.781 59.671,105 58.617,105 C57.101,105 56.035,102.032 56.014,97.75 C56.005,95.978 55.466,95 54.5,95 C53.456,95 53,93.95 53,91.55 C53,89.421 52.385,87.755 51.394,87.201 C50.428,86.66 49.58,84.449 49.264,81.651 C48.827,77.772 49.016,77 50.401,77 C51.315,77 52.322,76.325 52.638,75.5 C52.955,74.675 53.841,74 54.607,74 C55.373,74 56,74.675 56,75.5 C56,76.333 56.889,77 58,77 C59.333,77 60,77.667 60,79 C60,81.833 66.943,81.936 67.68,79.114 C68.077,77.596 69.35,77.143 74.197,76.792 C78.471,76.483 80.494,75.869 81.16,74.678 Z M186,157.383 C186,156.469 187.187,156 189.5,156 C191.944,156 193,156.452 193,157.5 C193,158.706 194.542,159 200.875,159 C210.568,159 215,159.824 215,161.625 C215,162.612 216.438,163 220.094,163 C224.346,163 225.274,163.33 225.71,165 C226.103,166.503 227.074,167 229.617,167 C231.957,167 233,167.462 233,168.5 C233,169.325 233.675,170 234.5,170 C235.333,170 236,170.889 236,172 C236,173.333 236.667,174 238,174 C239.619,174 240,174.667 240,177.5 C240,179.813 240.469,181 241.383,181 C243.416,181 243.971,184.253 243.986,196.25 C243.998,205.133 244.261,207 245.5,207 C246.325,207 247,207.675 247,208.5 C247,209.325 246.325,210 245.5,210 C244.363,210 244,211.233 244,215.094 C244,219.346 243.67,220.274 242,220.71 C240.9,220.998 240,221.856 240,222.617 C240,223.61 241.41,224 245,224 C248.778,224 250,223.633 250,222.5 C250,221.667 250.889,221 252,221 C253.619,221 254,221.667 254,224.5 C254,227.833 253.833,228 250.5,228 C247.667,228 247,228.381 247,230 C247,231.619 246.333,232 243.5,232 C241.056,232 240,232.452 240,233.5 C240,234.333 239.111,235 238,235 C236.9,235 236,235.655 236,236.455 C236,237.325 234.595,238.173 232.5,238.566 C230.563,238.929 229,239.822 229,240.566 C229,241.31 227.437,242.203 225.5,242.566 C223.495,242.942 222,243.816 222,244.611 C222,245.532 220.82,246 218.5,246 C215.667,246 215,246.381 215,248 C215,249.333 214.333,250 213,250 C211.889,250 211,250.667 211,251.5 C211,252.325 210.325,253 209.5,253 C208.675,253 208,253.717 208,254.594 C208,255.47 207.1,256.423 206,256.71 C204.893,257 204,258.074 204,259.117 C204,260.333 203.292,261 202,261 C200.889,261 200,261.667 200,262.5 C200,263.325 199.325,264 198.5,264 C197.667,264 197,263.111 197,262 C197,260.889 196.333,260 195.5,260 C194.675,260 194,259.325 194,258.5 C194,257.675 194.4,257 194.889,257 C195.377,257 196.073,255.425 196.434,253.5 C196.827,251.405 197.675,250 198.545,250 C199.345,250 200,249.1 200,248 C200,246.394 200.667,246 203.383,246 C205.926,246 206.897,245.503 207.29,244 C207.603,242.803 208.654,242 209.906,242 C211.101,242 212,241.356 212,240.5 C212,239.513 212.987,239 214.883,239 C216.926,239 217.919,238.417 218.29,237 C218.69,235.468 219.654,235 222.406,235 C224.884,235 226,234.548 226,233.545 C226,232.675 227.405,231.827 229.5,231.434 C232.933,230.79 233,230.684 233,225.889 C233,222.21 233.371,221 234.5,221 C235.722,221 236,219.333 236,212 C236,204.667 235.722,203 234.5,203 C233.667,203 233,202.111 233,201 C233,199.889 233.667,199 234.5,199 C235.325,199 236,198.325 236,197.5 C236,196.675 235.325,196 234.5,196 C233.667,196 233,195.111 233,194 C233,192.178 232.333,192 225.5,192 C219.604,192 218,192.311 218,193.455 C218,194.325 216.595,195.173 214.5,195.566 C212.495,195.942 211,196.816 211,197.611 C211,198.532 209.82,199 207.5,199 C204.667,199 204,199.381 204,201 C204,202.1 203.345,203 202.545,203 C201.675,203 200.827,204.405 200.434,206.5 C200.058,208.505 199.184,210 198.389,210 C197.327,210 197,211.767 197,217.5 C197,223.24 197.326,225 198.392,225 C199.895,225 201.437,229.484 200.472,231.046 C200.147,231.571 199.234,232 198.441,232 C197.648,232 197,232.675 197,233.5 C197,234.543 195.951,235 193.561,235 C190.274,235 190.097,234.813 189.537,230.75 C189.215,228.412 189.045,225.375 189.159,224 C189.273,222.625 189.284,218.012 189.183,213.75 C189.038,207.609 188.689,206 187.5,206 C186.229,206 186,203.556 186,190 C186,175.426 185.844,174 184.249,174 C182.766,174 182.466,172.914 182.284,166.897 C182.093,160.58 182.286,159.738 184.035,159.281 C185.116,158.998 186,158.144 186,157.383 Z M86,82.5 C86,83.667 84.667,84 80,84 C75.333,84 74,84.333 74,85.5 C74,86.325 73.283,87 72.406,87 C71.53,87 70.577,87.9 70.29,89 C70.002,90.1 69.144,91 68.383,91 C67.338,91 67,92.699 67,97.95 C67,103.513 67.347,105.095 68.739,105.874 C70.113,106.643 70.555,108.543 70.845,114.924 C71.08,120.095 71.623,123.005 72.356,123.014 C72.985,123.021 74.513,123.299 75.75,123.63 C77.565,124.117 78,123.824 78,122.117 C78,120.667 78.63,120 80,120 C81.111,120 82,119.333 82,118.5 C82,117.675 82.675,117 83.5,117 C84.325,117 85,116.152 85,115.117 C85,114.074 85.893,113 87,112.71 C88.456,112.329 89,111.346 89,109.094 C89,107.121 89.503,106 90.389,106 C91.184,106 92.058,104.505 92.434,102.5 C92.827,100.405 93.675,99 94.545,99 C95.541,99 96,97.896 96,95.5 C96,93.056 96.452,92 97.5,92 C98.583,92 99,90.889 99,88 C99,84.222 98.833,84 96,84 Q93,84 93,82.5 C93,81.452 91.944,81 89.5,81 C87.056,81 86,81.452 86,82.5 Z M212,100.5 C212,101.652 210.722,102 206.5,102 C202.134,102 201,102.329 201,103.594 C201,104.47 200.1,105.423 199,105.71 C197.9,105.998 197,106.856 197,107.617 C197,108.627 195.516,109 191.5,109 C186.667,109 186,109.242 186,111 C186,112.619 185.333,113 182.5,113 C180.152,113 179,113.465 179,114.412 C179,115.28 177.459,116.085 175,116.5 C172.541,116.915 171,117.72 171,118.588 C171,119.478 169.932,120 168.111,120 C165.602,120 165.136,120.459 164.566,123.5 C164.173,125.595 163.325,127 162.455,127 C161.655,127 161,127.9 161,129 C161,131.336 163.787,131.719 164.638,129.5 C165.278,127.833 168,127.428 168,129 C168,129.55 168.675,130 169.5,130 C170.325,130 171,129.325 171,128.5 C171,127.3 172.5,127 178.5,127 C184.258,127 186,126.675 186,125.601 C186,124.605 187.994,124.003 192.942,123.506 C199.573,122.84 199.912,122.679 200.521,119.904 C200.872,118.307 201.798,117 202.579,117 C203.361,117 204,116.152 204,115.117 C204,114.074 204.893,113 206,112.71 C207.1,112.423 208,111.47 208,110.594 C208,109.717 208.675,109 209.5,109 C210.325,109 211,108.283 211,107.406 C211,106.53 211.9,105.577 213,105.29 C214.1,105.002 215,104.144 215,103.383 C215,102.623 215.675,102 216.5,102 C217.325,102 218,101.325 218,100.5 Q218,99 215,99 Q212,99 212,100.5 Z M197.352,170.716 C195.144,170.993 194.028,171.767 193.616,173.306 C192.552,177.273 192.973,180.885 194.606,181.799 C195.572,182.34 196.42,184.551 196.736,187.349 C197.244,191.86 197.362,192 200.63,192 C203.333,192 204,191.604 204,190 C204,188.381 204.667,188 207.5,188 C209.944,188 211,187.548 211,186.5 C211,185.348 212.278,185 216.5,185 C220.526,185 222,184.628 222,183.611 C222,182.816 223.495,181.942 225.5,181.566 C228.95,180.919 230.587,178 227.5,178 C226.667,178 226,177.111 226,176 C226,174.667 225.333,174 224,174 C222.9,174 222,173.388 222,172.639 C222,170.475 207.974,169.381 197.352,170.716 Z M175,71.5 C175,72.575 173.903,73 171.125,73 C168.994,73 165.844,73.281 164.125,73.625 C161.366,74.177 161,74.645 161,77.625 C161,79.958 161.463,81 162.5,81 C163.575,81 164,82.097 164,84.875 C164,87.006 164.281,90.156 164.625,91.875 C165.151,94.505 165.705,95 168.125,95 C170.333,95 171,94.536 171,93 C171,91.667 171.667,91 173,91 C174.619,91 175,90.333 175,87.5 C175,84.167 175.167,84 178.5,84 C181.036,84 182,83.561 182,82.406 C182,81.53 182.9,80.577 184,80.29 C185.503,79.897 186,78.926 186,76.383 C186,74.043 186.462,73 187.5,73 C188.325,73 189,72.325 189,71.5 C189,70.31 187.556,70 182,70 C176.444,70 175,70.31 175,71.5 Z M228.25,105.706 C227.012,105.944 226,106.783 226,107.57 C226,108.538 224.869,109 222.5,109 C219.667,109 219,109.381 219,111 C219,112.333 218.333,113 217,113 C215.837,113 215,113.667 215,114.594 C215,115.47 214.1,116.423 213,116.71 C211.583,117.081 211,118.074 211,120.117 C211,122.333 211.462,123 213,123 C214.111,123 215,122.333 215,121.5 C215,120.247 217.056,120 227.5,120 L240,120 L240,116 C240,113.166 239.576,112 238.545,112 C237.675,112 236.827,110.595 236.434,108.5 C235.748,104.842 234.661,104.471 228.25,105.706 Z"/>
</svg>

