<svg xmlns="http://www.w3.org/2000/svg" width="300" height="300" viewBox="0 0 300 300" version="1.1">
  <defs/>
  <path d="M190.884,33.664 C195.504,32.43 203,33.574 203,35.514 C203,36.209 204.575,37.073 206.5,37.434 C209.698,38.034 210,38.389 210,41.545 C210,43.65 209.511,44.995 208.75,44.986 C205.84,44.955 203,43.669 203,42.383 C203,41.623 202.1,41 201,41 C199.19,41 199,41.667 199,48 C199,53.556 198.69,55 197.5,55 C196.229,55 196,57.444 196,71 C196,84.556 196.229,87 197.5,87 C198.333,87 199,87.889 199,89 C199,90.333 199.667,91 201,91 C202.111,91 203,90.333 203,89.5 C203,88.675 203.675,88 204.5,88 C205.333,88 206,87.111 206,86 C206,84.667 206.667,84 208,84 C209.333,84 210,83.333 210,82 C210,80.667 210.667,80 212,80 C213.629,80 214,80.667 214,83.594 C214,86.346 213.532,87.31 212,87.71 C210.893,88 210,89.074 210,90.117 C210,91.152 209.325,92 208.5,92 C207.675,92 207,92.675 207,93.5 C207,94.333 206.111,95 205,95 C203.667,95 203,95.667 203,97 C203,98.1 202.345,99 201.545,99 C199.551,99 198.834,103.731 199.197,114.499 L199.5,123.498 L210.02,123.16 C222.06,122.774 228,123.584 228,125.611 C228,126.375 228.675,127 229.5,127 C230.548,127 231,128.056 231,130.5 C231,132.944 230.548,134 229.5,134 C228.667,134 228,134.889 228,136 C228,137.1 227.377,138 226.617,138 C225.856,138 224.998,138.9 224.71,140 C224.31,141.532 223.346,142 220.594,142 C217.667,142 217,141.629 217,140 C217,138.667 217.667,138 219,138 C220.619,138 221,137.333 221,134.5 L221,131 L213.5,131 C207.781,131 206,131.329 206,132.383 C206,133.144 205.1,134.002 204,134.29 C202.9,134.577 202,135.53 202,136.406 C202,137.283 201.325,138 200.5,138 C199.313,138 199.003,139.411 199.014,144.75 C199.036,155.915 199.098,156 207.117,156 C212.311,156 214,155.66 214,154.617 C214,153.041 217,152.034 221.75,152.014 C223.966,152.004 225,151.523 225,150.5 C225,149.367 226.222,149 230,149 C234.333,149 235,148.733 235,147 C235,145.386 235.667,145 238.455,145 C241.611,145 241.966,144.698 242.566,141.5 C243.163,138.318 243.53,138 246.611,138 C248.957,138 250,138.462 250,139.5 C250,140.325 250.675,141 251.5,141 C252.433,141 253,141.944 253,143.5 C253,145.056 252.433,146 251.5,146 C250.675,146 250,146.675 250,147.5 C250,148.333 249.111,149 248,149 C246.9,149 246,149.625 246,150.389 C246,151.184 244.505,152.058 242.5,152.434 C240.405,152.827 239,153.675 239,154.545 C239,155.541 237.896,156 235.5,156 C232.667,156 232,156.381 232,158 C232,159.667 231.333,160 228,160 C225.111,160 224,160.417 224,161.5 C224,162.69 222.556,163 217,163 C210.667,163 210,163.19 210,165 C210,166.619 209.333,167 206.5,167 L203,167 L203,187 C203,204.111 203.217,207 204.5,207 C205.744,207 206.001,208.919 206.006,218.25 C206.015,235.313 207.033,246 208.648,246 C209.392,246 210,245.1 210,244 C210,242.667 210.667,242 212,242 C213.804,242 213.999,242.662 213.986,248.75 C213.97,256.848 213.241,260 211.383,260 C210.476,260 210,261.174 210,263.412 C210,266.614 209.753,266.866 206,267.5 C203.541,267.915 202,268.72 202,269.588 C202,271.829 200.294,271.226 199.63,268.75 C199.299,267.512 199.021,260.988 199.014,254.25 C199.002,244.034 198.751,242 197.5,242 C196.212,242 196,238.903 196,220.125 C196,196.781 195.554,192 193.375,192 C192.292,192 192,189.667 192,181 L192,170 L189.25,170.006 C179.967,170.026 170,171.394 170,172.648 C170,173.655 168.214,174 163,174 C156.667,174 156,174.19 156,176 C156,177.81 155.333,178 149,178 C143.444,178 142,178.31 142,179.5 C142,180.7 140.5,181 134.5,181 L127,181 L127,188 L132.5,188 C137.333,188 138,188.242 138,190 C138,191.333 137.333,192 136,192 C134.667,192 134,192.667 134,194 C134,195.619 133.333,196 130.5,196 C127.667,196 127,196.381 127,198 C127,199.1 126.361,200 125.579,200 C124.798,200 123.862,201.35 123.5,203 C122.559,207.283 120,206.918 120,202.5 L120,199 L113.117,199 C107.074,199 106.169,199.244 105.71,201 C105.249,202.763 104.346,203 98.094,203 C92.589,203 91,203.322 91,204.439 C91,206.142 83.566,207.516 78.659,206.72 C74.258,206.005 70,206.938 70,208.617 C70,209.564 68.739,210 66,210 L62,210 L62,204.5 C62,200.457 61.63,199 60.603,199 C59.543,199 59.12,196.938 58.853,190.463 C58.596,184.241 58.093,181.676 57,181.002 C55.795,180.258 55.437,177.025 55.18,164.538 C54.919,151.883 54.594,149 53.43,149 C52.256,149 52,146.405 52,134.5 C52,122.278 52.236,120 53.5,120 C54.548,120 55,118.944 55,116.5 C55,113.083 55.095,113 59,113 C61.889,113 63,113.417 63,114.5 C63,115.325 63.675,116 64.5,116 C65.333,116 66,116.889 66,118 C66,119.111 66.667,120 67.5,120 C68.333,120 69,120.889 69,122 C69,123.111 68.333,124 67.5,124 C66.675,124 66,124.675 66,125.5 C66,126.325 65.325,127 64.5,127 C63.244,127 63,129.111 63,140 C63,150.889 63.244,153 64.5,153 C65.325,153 66,153.675 66,154.5 C66,155.325 65.325,156 64.5,156 C63.452,156 63,157.056 63,159.5 C63,161.944 63.452,163 64.5,163 C65.742,163 66,164.889 66,174 C66,183.111 66.258,185 67.5,185 C68.575,185 69,186.097 69,188.875 C69,194.772 70.096,199 71.625,199 C72.381,199 73,198.325 73,197.5 C73,196.445 74.066,196 76.594,196 C79.346,196 80.31,195.532 80.71,194 C81.105,192.489 82.074,192 84.672,192 L88.11,192 L87.556,167 L78.895,167 C70.242,167 70.233,166.997 69.7,164.25 C69.406,162.738 69.41,160.262 69.708,158.75 C70.171,156.4 70.741,156 73.625,156 C75.958,156 77,155.537 77,154.5 C77,153.675 77.675,153 78.5,153 C79.325,153 80,153.675 80,154.5 C80,155.333 80.889,156 82,156 C83.852,156 84,155.333 84,147 C84,139.667 84.278,138 85.5,138 C86.333,138 87,137.111 87,136 C87,133.85 85.501,133.55 80.125,134.625 L77,135.25 L77,142.125 C77,149.314 76.792,149.587 72.25,148.37 C70.576,147.921 70,147.028 70,144.883 C70,142.667 69.538,142 68,142 C66.242,142 66,141.333 66,136.5 C66,131.667 66.242,131 68,131 C69.333,131 70,130.333 70,129 C70,127.381 70.667,127 73.5,127 C75.944,127 77,126.548 77,125.5 C77,124.588 77.931,124 79.375,124 C83.88,124 88,122.746 88,121.375 C88,120.339 89.727,120 95,120 C100.556,120 102,119.69 102,118.5 C102,117.278 103.667,117 111,117 C118.333,117 120,117.278 120,118.5 C120,119.548 121.056,120 123.5,120 L127,120 L127.014,124.75 C127.031,130.923 127.897,134 129.617,134 C130.739,134 131,137.118 131,150.5 L131,167 L143.5,167 C155.333,167 156,166.893 156,165 C156,163.19 156.667,163 163,163 C168.556,163 170,162.69 170,161.5 C170,160.294 171.542,160 177.875,160 C182.206,160 187.156,159.719 188.875,159.375 L192,158.75 L192,135.25 L188.762,134.602 C183.865,133.623 174,134.977 174,136.629 C174,137.717 171.421,138 161.5,138 L149,138 L149,134.5 C149,132.056 149.452,131 150.5,131 C151.333,131 152,130.111 152,129 C152,127.333 152.667,127 156,127 C158.834,127 160,126.576 160,125.545 C160,124.675 161.405,123.827 163.5,123.434 C165.505,123.058 167,122.184 167,121.389 C167,120.625 167.675,120 168.5,120 C169.325,120 170,119.325 170,118.5 C170,117.588 169.069,117 167.625,117 C163.12,117 159,115.746 159,114.375 C159,113.619 158.325,113 157.5,113 C156.667,113 156,112.111 156,111 C156,109.9 155.377,109 154.617,109 C153.101,109 152.035,106.032 152.014,101.75 C152.006,100.12 151.452,99 150.656,99 C149.623,99 149.162,95.72 148.669,84.883 C148.316,77.118 148.272,70.368 148.572,69.883 C148.872,69.397 150.666,69 152.559,69 C155.333,69 156,69.387 156,71 C156,72.1 156.608,73 157.352,73 C158.783,73 159.982,83.327 159.994,95.75 C159.999,100.636 160.327,102 161.5,102 C162.538,102 163,103.043 163,105.383 C163,108.217 163.415,108.846 165.552,109.255 C170.437,110.188 176.791,108.906 177.321,106.88 C177.592,105.846 178.53,105 179.406,105 C180.283,105 181,104.325 181,103.5 C181,102.667 181.889,102 183,102 C184.111,102 185,101.333 185,100.5 C185,99.675 185.675,99 186.5,99 C187.796,99 188.001,95.302 188.009,71.75 C188.019,40.741 188.505,34.299 190.884,33.664 Z M113,158 C113,159.758 112.333,160 107.5,160 C103.278,160 102,160.348 102,161.5 C102,162.548 100.944,163 98.5,163 L95,163 L95,170.5 C95,176.5 95.3,178 96.5,178 C97.325,178 98,178.675 98,179.5 C98,180.325 97.325,181 96.5,181 C95.348,181 95,182.278 95,186.5 L95,192 L102,192 C107.556,192 109,191.69 109,190.5 C109,189.588 109.931,189 111.375,189 C112.681,189 115.156,188.719 116.875,188.375 C119.634,187.823 120,187.355 120,184.375 L120,181 L110,181 L110,177.5 C110,175.056 110.452,174 111.5,174 C112.325,174 113,173.345 113,172.545 C113,171.675 114.405,170.827 116.5,170.434 L120,169.777 L120,156 L116.5,156 C113.667,156 113,156.381 113,158 Z M105.29,129 C104.897,130.503 103.926,131 101.383,131 C99.043,131 98,131.462 98,132.5 C98,133.325 97.325,134 96.5,134 C95.271,134 95,135.735 95,143.617 C95,153.101 95.031,153.225 97.25,152.63 C98.487,152.299 101.638,152.021 104.25,152.014 C107.799,152.003 109,151.621 109,150.5 C109,149.348 110.278,149 114.5,149 L120,149 L120,141.5 C120,135.604 119.689,134 118.545,134 C117.675,134 116.827,132.595 116.434,130.5 C115.788,127.056 115.697,127 110.795,127 C106.654,127 105.724,127.338 105.29,129 Z M185,114.5 C185,115.333 184.111,116 183,116 C181.667,116 181,116.667 181,118 C181,119.333 180.333,120 179,120 C177.889,120 177,120.667 177,121.5 C177,122.325 176.325,123 175.5,123 C174.667,123 174,123.889 174,125 C174,126.758 174.667,127 179.5,127 C183.722,127 185,126.652 185,125.5 C185,124.667 185.889,124 187,124 C188.667,124 189,123.333 189,120 C189,117.111 189.417,116 190.5,116 C191.325,116 192,115.325 192,114.5 C192,113.452 190.944,113 188.5,113 C186.056,113 185,113.452 185,114.5 Z"/>
</svg>

