<svg xmlns="http://www.w3.org/2000/svg" width="300" height="300" viewBox="0 0 300 300" version="1.1">
  <defs/>
  <path d="M154,50.594 C154,49.173 157.062,49.001 182.25,49.014 C197.787,49.021 211.512,49.299 212.75,49.63 C213.988,49.962 215,50.856 215,51.617 C215,52.377 215.675,53 216.5,53 C217.548,53 218,54.056 218,56.5 C218,58.944 217.548,60 216.5,60 C215.667,60 215,60.889 215,62 C215,63.629 214.333,64 211.406,64 C208.654,64 207.69,63.532 207.29,62 C207.002,60.9 206.144,60 205.383,60 C204.623,60 204,59.325 204,58.5 C204,57.667 203.111,57 202,57 C200.889,57 200,57.667 200,58.5 C200,59.716 198.389,60 191.5,60 C184.611,60 183,59.716 183,58.5 C183,57.348 181.722,57 177.5,57 C173.278,57 172,57.348 172,58.5 C172,59.583 170.889,60 168,60 C165.111,60 164,60.417 164,61.5 C164,62.325 163.325,63 162.5,63 C161.667,63 161,63.889 161,65 C161,66.733 161.667,67 166,67 C169.576,67 171,66.608 171,65.625 C171,64.196 176.53,62.591 178.103,63.563 C179.536,64.449 179.139,68 177.607,68 C176.841,68 175.955,68.675 175.638,69.5 C175.233,70.556 173.586,71 170.077,71 C165.17,71 165.08,71.056 164.434,74.5 C164.058,76.505 163.184,78 162.389,78 C161.468,78 161,79.18 161,81.5 C161,83.823 160.532,85 159.608,85 C157.836,85 156.709,89.4 157.528,93.128 L158.159,96 L166.579,96 C173.057,96 175,95.683 175,94.625 C175,92.503 179.72,92 199.625,92 C214.691,92 218,91.748 218,90.603 C218,89.5 220.638,89.131 230.537,88.853 C239.719,88.594 243.298,88.136 243.913,87.141 C244.375,86.394 246.767,85.555 249.229,85.278 C253.608,84.784 253.719,84.843 254.347,87.984 C255.161,92.054 254.198,96 252.392,96 C251.626,96 251,96.619 251,97.375 C251,99.468 246.31,100 227.875,100 C213.542,100 211,100.226 211,101.5 C211,102.633 209.778,103 206,103 C201.404,103 201,103.192 201,105.375 C201,109.88 199.746,114 198.375,114 C197.282,114 197,116.561 197,126.5 C197,136.944 197.247,139 198.5,139 C199.565,139 200.003,140.087 200.009,142.75 C200.013,144.813 200.301,148.863 200.648,151.75 C201.269,156.917 201.332,157 204.639,157 C206.834,157 208,157.48 208,158.383 C208,159.959 211,160.966 215.75,160.986 C217.966,160.996 219,161.477 219,162.5 C219,163.631 220.216,164 223.941,164 C229.584,164 230.233,164.586 229.371,168.897 L228.75,172 L221,172 C211.427,172 207,171.17 207,169.375 C207,168.619 206.325,168 205.5,168 C204.675,168 204,168.675 204,169.5 C204,170.325 203.325,171 202.5,171 C201.452,171 201,172.056 201,174.5 C201,176.944 201.452,178 202.5,178 C203.804,178 204,182.487 204,212.383 C204,245.926 203.951,246.78 202,247.29 C200.9,247.577 200,248.53 200,249.406 C200,250.561 199.036,251 196.5,251 L193,251 L193,207.5 C193,169.5 192.81,164 191.5,164 C190.675,164 190,163.325 190,162.5 C190,161.445 188.934,161 186.406,161 C183.654,161 182.69,160.532 182.29,159 C182.002,157.9 181.144,157 180.383,157 C179.469,157 179,155.813 179,153.5 L179,150 L189.5,150 L189.5,103 L177.367,103 C166.074,103 165.197,103.139 164.71,105 C164.31,106.532 163.346,107 160.594,107 L157,107 L157,116 C157,123.333 156.722,125 155.5,125 C154.229,125 154,127.444 154,141 C154,154.556 154.229,157 155.5,157 C156.787,157 157,160.066 157,178.594 C157,199.346 157.078,200.208 159,200.71 C160.656,201.143 161,202.074 161,206.117 C161,210.333 160.727,211 159,211 C157.667,211 157,211.667 157,213 C157,214.619 156.333,215 153.5,215 L150,215 L150,205.5 C150,197.722 149.728,196 148.5,196 C147.296,196 146.999,194.47 146.994,188.25 C146.983,174.447 145.845,164 144.352,164 C143.608,164 143,163.325 143,162.5 C143,161.456 141.95,161 139.55,161 C137.421,161 135.755,160.385 135.201,159.394 C134.66,158.428 132.449,157.58 129.651,157.264 C126.635,156.924 125,156.258 125,155.37 C125,154.595 123.969,154 122.625,154 C118.12,154 114,152.746 114,151.375 C114,150.619 113.325,150 112.5,150 C111.223,150 110.999,152.641 110.995,167.75 C110.989,193.343 110.025,208 108.347,208 C107.606,208 107,208.675 107,209.5 C107,210.538 105.957,211 103.617,211 C99.429,211 98.905,209.148 99.727,197.25 C100.14,191.268 100.669,189 101.649,189 C102.738,189 103,185.214 103,169.5 C103,153.621 102.745,150 101.625,150 C99.942,150 99.28,146.471 99.421,138.25 L99.528,132 L96.375,132 C93.564,132 93.151,132.379 92.566,135.5 C92.173,137.595 91.325,139 90.455,139 C89.459,139 89,140.104 89,142.5 C89,145.333 88.619,146 87,146 C85.667,146 85,146.667 85,148 C85,149.1 84.375,150 83.611,150 C82.816,150 81.942,151.495 81.566,153.5 C81.173,155.595 80.325,157 79.455,157 C78.655,157 78,157.9 78,159 C78,160.111 77.333,161 76.5,161 C75.675,161 75,161.717 75,162.594 C75,163.47 74.1,164.423 73,164.71 C71.608,165.074 71,166.074 71,168 C71,169.926 70.392,170.926 69,171.29 C67.9,171.577 67,172.53 67,173.406 C67,174.283 66.325,175 65.5,175 C64.667,175 64,175.889 64,177 C64,178.333 63.333,179 62,179 C60.667,179 60,179.667 60,181 C60,182.111 59.333,183 58.5,183 C57.675,183 57,183.675 57,184.5 C57,185.333 56.111,186 55,186 C53.667,186 53,186.667 53,188 C53,189.613 52.333,190 49.559,190 C47.666,190 45.868,189.596 45.563,189.103 C44.591,187.53 46.196,182 47.625,182 C48.381,182 49,181.325 49,180.5 C49,179.667 49.889,179 51,179 C52.333,179 53,178.333 53,177 C53,175.889 53.667,175 54.5,175 C55.325,175 56,174.325 56,173.5 C56,172.667 56.889,172 58,172 C59.333,172 60,171.333 60,170 C60,168.9 60.655,168 61.455,168 C62.325,168 63.173,166.595 63.566,164.5 C63.942,162.495 64.816,161 65.611,161 C66.375,161 67,160.1 67,159 C67,157.667 67.667,157 69,157 C70.333,157 71,156.333 71,155 C71,153.9 71.655,153 72.455,153 C73.325,153 74.173,151.595 74.566,149.5 C74.942,147.495 75.816,146 76.611,146 C77.488,146 78,144.893 78,143 C78,140.922 78.49,140 79.594,140 C80.47,140 81.423,139.1 81.71,138 C81.998,136.9 82.856,136 83.617,136 C84.531,136 85,134.813 85,132.5 C85,129.964 85.439,129 86.594,129 C87.47,129 88.423,128.1 88.71,127 C88.998,125.9 89.806,125 90.505,125 C91.205,125 92.073,123.425 92.434,121.5 C92.827,119.405 93.675,118 94.545,118 C95.68,118 96,116.459 96,111 L96,104 L92.583,104 C90.704,104 88.979,104.563 88.75,105.25 C88.47,106.091 85.386,106.612 79.332,106.843 C71.953,107.125 70.029,106.886 68.665,105.522 C66.371,103.228 66.548,99.931 69,99.29 C70.1,99.002 71,98.144 71,97.383 C71,96.279 73.524,96 83.5,96 L96,96 L96,83.5 C96,72.729 96.22,71 97.594,71 C98.47,71 99.423,70.1 99.71,69 C100.143,67.344 101.074,67 105.117,67 C109.333,67 110,67.273 110,69 C110,70.111 109.333,71 108.5,71 C107.394,71 106.969,72.246 106.883,75.75 C106.819,78.362 106.612,83.987 106.424,88.25 L106.08,96 L120.54,96 C132.142,96 135,95.728 135,94.625 C135,93.254 139.12,92 143.625,92 C145.069,92 146,91.412 146,90.5 C146,89.667 146.889,89 148,89 C149.758,89 150,88.333 150,83.5 C150,79.474 150.372,78 151.389,78 C152.184,78 153.058,76.505 153.434,74.5 C153.795,72.575 154.689,71 155.42,71 C156.815,71 158.392,65.444 157.437,63.897 C157.132,63.404 156.234,63 155.441,63 C154.648,63 154,62.325 154,61.5 C154,60.667 153.111,60 152,60 C150.394,60 150,59.333 150,56.617 C150,54.074 150.497,53.103 152,52.71 C153.1,52.423 154,51.47 154,50.594 Z M124.75,103.728 C122.335,103.981 121,104.633 121,105.56 C121,106.676 119.425,107 114,107 L107,107 L107,114 L111.883,114 C116.102,114 116.849,114.306 117.37,116.25 C118.557,120.68 118.229,121 112.5,121 C107.667,121 107,121.242 107,123 C107,124.111 107.667,125 108.5,125 C109.69,125 110,126.444 110,132 C110,138.333 110.19,139 112,139 C113.1,139 114,139.655 114,140.455 C114,141.325 115.405,142.173 117.5,142.566 C119.425,142.927 121,143.808 121,144.523 C121,145.262 122.73,146.116 125,146.5 C127.459,146.915 129,147.72 129,148.588 C129,149.535 130.152,150 132.5,150 C134.803,150 136,150.47 136,151.375 C136,152.682 140.078,154 144.125,154 C145.896,154 146,152.889 146,134 C146,114.667 145.933,114 144,114 C142.889,114 142,113.333 142,112.5 C142,111.675 141.325,111 140.5,111 C139.667,111 139,110.111 139,109 C139,107.9 138.377,107 137.617,107 C136.856,107 135.998,106.1 135.71,105 C135.168,102.927 133.862,102.775 124.75,103.728 Z"/>
</svg>

