<svg xmlns="http://www.w3.org/2000/svg" width="300" height="300" viewBox="0 0 300 300" version="1.1">
  <defs/>
  <path d="M170.667,51.667 C171.033,51.3 172.833,51 174.667,51 C177.333,51 178,51.4 178,53 C178,54.111 178.667,55 179.5,55 C180.325,55 181,55.717 181,56.594 C181,57.47 181.9,58.423 183,58.71 C184.503,59.103 185,60.074 185,62.617 C185,65.817 184.81,66 181.5,66 L178,66 L178,75 C178,82.333 178.278,84 179.5,84 C180.548,84 181,85.056 181,87.5 L181,91 L188,91 C193.556,91 195,90.69 195,89.5 C195,88.288 196.586,87.999 203.25,87.994 C217.516,87.984 228,86.864 228,85.352 C228,84.608 228.675,84 229.5,84 C230.325,84 231,84.675 231,85.5 C231,86.684 232.423,87.003 237.75,87.014 C241.463,87.021 245.512,87.299 246.75,87.63 C249.253,88.301 249.854,91 247.5,91 C246.667,91 246,91.889 246,93 C246,94.926 245.333,95 228,95 C212.667,95 210,95.222 210,96.5 C210,97.712 208.226,98.034 200.75,98.18 C195.662,98.279 190.002,98.255 188.17,98.126 C185.544,97.943 184.727,98.327 184.304,99.947 C184.008,101.076 183.076,102 182.232,102 C180.884,102 180.766,104.409 181.268,121.723 C181.627,134.093 182.231,141.577 182.888,141.796 C183.465,141.988 184.226,143.688 184.58,145.573 L185.223,149 L197.611,149 C207.957,149 210,149.247 210,150.5 C210,151.771 212.444,152 226,152 C239.556,152 242,151.771 242,150.5 C242,149.452 243.056,149 245.5,149 C248.833,149 249,149.167 249,152.5 C249,155.691 248.745,156 246.117,156 C244.005,156 243.082,156.577 242.669,158.156 L242.106,160.312 L215.61,159.735 C201.038,159.417 188.189,159.399 187.057,159.695 C185.106,160.206 185,160.945 185,174.117 C185,185.791 185.239,188 186.5,188 C187.796,188 188,191.667 188,215 C188,238.333 187.796,242 186.5,242 C185.667,242 185,242.889 185,244 C185,245.333 184.333,246 183,246 C181.889,246 181,246.667 181,247.5 C181,248.333 180.111,249 179,249 C177.889,249 177,248.333 177,247.5 C177,246.675 176.325,246 175.5,246 C174.3,246 174,244.5 174,238.5 C174,232.5 173.7,231 172.5,231 C171.278,231 171,229.333 171,222 C171,214.667 171.278,213 172.5,213 C173.796,213 174,209.328 174,185.953 L174,158.905 L166.75,159.203 L159.5,159.5 L159.5,156 C159.5,152.782 159.762,152.475 162.75,152.187 C164.763,151.993 166,151.327 166,150.437 C166,149.427 167.19,149 170,149 L174,149 L174,127 L169.25,127.014 C163.077,127.031 160,127.897 160,129.617 C160,130.377 159.1,131 158,131 C156.889,131 156,131.667 156,132.5 C156,133.325 155.283,134 154.406,134 C153.53,134 152.577,134.9 152.29,136 C151.926,137.392 150.926,138 149,138 C147.074,138 146.074,138.608 145.71,140 C145.423,141.1 144.47,142 143.594,142 C142.717,142 142,142.675 142,143.5 C142,144.333 141.111,145 140,145 C138.667,145 138,145.667 138,147 C138,148.111 137.333,149 136.5,149 C135.675,149 135,149.717 135,150.594 C135,151.47 134.1,152.423 133,152.71 C131.9,152.998 131,153.856 131,154.617 C131,155.377 130.1,156 129,156 C127.667,156 127,156.667 127,158 C127,159.111 126.333,160 125.5,160 C124.675,160 124,160.675 124,161.5 C124,162.333 123.111,163 122,163 C120.667,163 120,163.667 120,165 C120,166.111 119.333,167 118.5,167 C117.675,167 117,167.717 117,168.594 C117,169.47 116.1,170.423 115,170.71 C113.9,170.998 113,171.856 113,172.617 C113,173.377 112.1,174 111,174 C109.667,174 109,174.667 109,176 C109,177.1 108.377,178 107.617,178 C106.856,178 105.998,178.9 105.71,180 C105.423,181.1 104.47,182 103.594,182 C102.717,182 102,182.675 102,183.5 C102,184.325 101.345,185 100.545,185 C99.675,185 98.827,186.405 98.434,188.5 C97.871,191.5 97.382,192 95.005,192 C93.074,192 92.075,192.607 91.71,194 C91.423,195.1 90.523,196 89.71,196 C88.898,196 87.998,196.9 87.71,198 C87.423,199.1 86.47,200 85.594,200 C84.717,200 84,200.675 84,201.5 C84,202.325 83.377,203 82.617,203 C81.856,203 80.998,203.9 80.71,205 C80.423,206.1 79.47,207 78.594,207 C77.717,207 77,207.675 77,208.5 C77,209.333 76.111,210 75,210 C73.667,210 73,210.667 73,212 C73,213.111 72.333,214 71.5,214 C70.675,214 70,214.675 70,215.5 C70,216.333 69.111,217 68,217 C66.667,217 66,217.667 66,219 C66,220.333 65.333,221 64,221 C62.889,221 62,221.667 62,222.5 C62,223.487 61.013,224 59.117,224 C56.044,224 55.041,222.228 55.014,216.75 C55.001,214.258 55.337,214 58.594,214 C61.346,214 62.31,213.532 62.71,212 C62.998,210.9 63.856,210 64.617,210 C65.377,210 66,209.325 66,208.5 C66,207.675 66.717,207 67.594,207 C68.47,207 69.416,206.126 69.695,205.057 C69.991,203.927 71.416,202.848 73.102,202.478 C74.696,202.128 76,201.202 76,200.421 C76,199.639 76.848,199 77.883,199 C78.926,199 80,198.107 80.29,197 C80.577,195.9 81.53,195 82.406,195 C83.283,195 84,194.325 84,193.5 C84,192.675 84.623,192 85.383,192 C86.144,192 87.002,191.1 87.29,190 C87.577,188.9 88.53,188 89.406,188 C90.283,188 91.008,187.438 91.017,186.75 C91.038,185.283 95.33,181 96.78,181 C97.328,181 98.073,179.425 98.434,177.5 C99.002,174.475 99.476,174 101.934,174 C104.392,174 104.866,173.525 105.434,170.5 C105.795,168.575 106.645,167 107.323,167 C108.001,167 109.326,166.1 110.268,165 C111.21,163.9 112.835,163 113.879,163 C115.257,163 115.957,162.04 116.434,159.5 C116.827,157.405 117.675,156 118.545,156 C119.345,156 120,155.377 120,154.617 C120,153.856 120.9,152.998 122,152.71 C123.1,152.423 124,151.47 124,150.594 C124,149.717 124.575,149 125.278,149 C125.981,149 127.326,148.1 128.268,147 C129.21,145.9 130.885,145 131.99,145 C133.333,145 134,144.337 134,143 C134,141.667 134.667,141 136,141 C137.111,141 138,140.333 138,139.5 C138,138.675 138.623,138 139.383,138 C140.144,138 141.002,137.1 141.29,136 C141.577,134.9 142.53,134 143.406,134 C144.283,134 145,133.325 145,132.5 C145,131.675 145.717,131 146.594,131 C147.47,131 148.423,130.1 148.71,129 C148.998,127.9 149.856,127 150.617,127 C151.377,127 152,126.325 152,125.5 C152,124.667 152.889,124 154,124 C155.333,124 156,123.333 156,122 C156,120.381 156.667,120 159.5,120 C161.932,120 163,119.546 163,118.512 C163,117.549 164.412,116.798 167,116.384 C169.274,116.02 171,115.187 171,114.452 C171,113.741 172.35,112.862 174,112.5 C177.084,111.823 178.178,110 175.5,110 C174.667,110 174,109.111 174,108 C174,106.889 173.333,106 172.5,106 C171.461,106 171,104.956 171,102.601 C171,99.302 170.87,99.191 166.589,98.851 C164.163,98.658 158.313,98.658 153.589,98.852 C147.07,99.12 145,99.542 145,100.603 C145,101.714 142.752,102 134,102 C125.301,102 123,102.289 123,103.383 C123,104.144 122.067,105.011 120.927,105.309 C117.709,106.15 112,104.91 112,103.369 C112,102.616 111.325,102 110.5,102 C109.452,102 109,100.944 109,98.5 C109,95.176 109.174,95 112.45,95 C114.697,95 116.242,94.39 116.879,93.25 C117.765,91.665 120.322,91.472 143.929,91.203 L170,90.905 L170,82.453 C170,75.606 169.715,74 168.5,74 C167.292,74 167,72.444 167,66 C167,59.556 167.292,58 168.5,58 C169.48,58 170,57.019 170,55.167 C170,53.608 170.3,52.033 170.667,51.667 Z M178,209.5 C178,211.944 178.452,213 179.5,213 C180.548,213 181,211.944 181,209.5 C181,207.056 180.548,206 179.5,206 C178.452,206 178,207.056 178,209.5 Z"/>
</svg>

