<svg xmlns="http://www.w3.org/2000/svg" width="300" height="300" viewBox="0 0 300 300" version="1.1">
  <defs/>
  <path d="M143.75,62.716 C145.262,62.487 154.262,62.232 163.75,62.15 L181,62 L181,67.5 C181,71.772 180.658,73 179.469,73 C178.626,73 177.689,73.648 177.385,74.439 C177.081,75.23 175.521,76.166 173.916,76.518 C172.312,76.871 171,77.798 171,78.579 C171,79.57 169.789,80 167,80 C162.696,80 161.287,77.681 165,76.71 C166.1,76.423 167,75.47 167,74.594 C167,73.717 167.675,73 168.5,73 C169.325,73 170,72.325 170,71.5 C170,70.31 168.556,70 163,70 C157.444,70 156,70.31 156,71.5 C156,72.738 154.172,73 145.55,73 C136.763,73 134.948,73.27 134.15,74.696 C133.451,75.945 131.462,76.503 126.6,76.813 L120,77.233 L120,84 L113,84 C106.298,84 106,84.101 106,86.375 C106,90.88 104.746,95 103.375,95 C102.316,95 102,96.955 102,103.5 C102,110.389 101.716,112 100.5,112 C99.567,112 99,112.944 99,114.5 C99,116.056 99.567,117 100.5,117 C101.325,117 102,117.675 102,118.5 C102,119.722 103.667,120 111,120 C117.924,120 120,119.686 120,118.639 C120,116.973 126.969,116.021 139.25,116.009 C146.357,116.002 148,115.718 148,114.5 C148,113.278 149.667,113 157,113 C164.333,113 166,113.278 166,114.5 C166,115.325 166.86,116 167.912,116 C169.364,116 169.987,116.964 170.5,120 C170.915,122.459 171.72,124 172.588,124 C173.757,124 174,127.442 174,144 C174,161.111 173.783,164 172.5,164 C171.284,164 171,165.611 171,172.5 C171,179.389 171.284,181 172.5,181 C173.583,181 174,182.111 174,185 C174,187.889 174.417,189 175.5,189 C176.325,189 177,189.675 177,190.5 C177,191.333 177.889,192 179,192 C180.1,192 181,192.635 181,193.412 C181,194.28 182.541,195.085 185,195.5 C187.459,195.915 189,196.72 189,197.588 C189,198.616 190.361,199 194,199 C198.333,199 199,199.267 199,201 C199,202.879 199.667,203 210,203 C219.111,203 221,203.258 221,204.5 C221,205.69 222.444,206 228,206 L235,206 L235,210 C235,212.889 234.583,214 233.5,214 C232.675,214 232,214.675 232,215.5 C232,216.728 230.278,217 222.5,217 C214.722,217 213,216.728 213,215.5 C213,214.425 211.903,214 209.125,214 C203.228,214 199,212.904 199,211.375 C199,210.47 197.803,210 195.5,210 C193.056,210 192,209.548 192,208.5 C192,207.588 191.069,207 189.625,207 C185.12,207 181,205.746 181,204.375 C181,203.47 179.803,203 177.5,203 C174.667,203 174,202.619 174,201 C174,199.889 173.333,199 172.5,199 C171.675,199 171,198.325 171,197.5 C171,196.667 170.111,196 169,196 C167.667,196 167,195.333 167,194 C167,192.889 166.333,192 165.5,192 C164.675,192 164,191.283 164,190.406 C164,189.53 163.1,188.577 162,188.29 C160.244,187.831 160,186.926 160,180.883 C160,175.431 160.312,174 161.5,174 C162.788,174 163,170.889 163,152 C163,133.111 162.788,130 161.5,130 C160.675,130 160,129.325 160,128.5 C160,127.667 159.111,127 158,127 C156.889,127 156,126.333 156,125.5 C156,124.258 154.111,124 145,124 C135.889,124 134,124.258 134,125.5 C134,126.762 131.774,127 119.969,127 C108.684,127 105.829,127.282 105.385,128.439 C105.081,129.23 103.521,130.166 101.916,130.518 C99.388,131.074 99,131.614 99,134.579 C99,137.333 98.61,138 97,138 C95.269,138 95,138.667 95,142.95 C95,146.625 94.549,148.153 93.25,148.88 C91.844,149.667 91.431,151.546 91.147,158.43 C90.88,164.933 90.458,167 89.397,167 C88.441,167 88,168.224 88,170.875 C88,176.772 86.904,181 85.375,181 C84.339,181 84,182.727 84,188 C84,193.273 83.661,195 82.625,195 C81.254,195 80,199.12 80,203.625 C80,205.069 79.412,206 78.5,206 C77.452,206 77,207.056 77,209.5 C77,212.833 77.167,213 80.5,213 C82.944,213 84,212.548 84,211.5 C84,210.675 84.623,210 85.383,210 C86.144,210 87.002,209.1 87.29,208 C87.671,206.544 88.654,206 90.906,206 C92.99,206 94,205.51 94,204.5 C94,203.644 94.899,203 96.094,203 C97.346,203 98.397,202.197 98.71,201 C99.103,199.497 100.074,199 102.617,199 C104.837,199 106,198.523 106,197.611 C106,195.846 111.884,194.7 116.5,195.566 C119.923,196.208 121.549,199 118.5,199 C117.667,199 117,199.889 117,201 C117,202.667 116.333,203 113,203 C110.111,203 109,203.417 109,204.5 C109,205.325 108.283,206 107.406,206 C106.53,206 105.577,206.9 105.29,208 C104.897,209.503 103.926,210 101.383,210 C98.667,210 98,210.394 98,212 C98,213.333 97.333,214 96,214 C94.889,214 94,214.667 94,215.5 Q94,217 91,217 C88.667,217 88,217.444 88,219 C88,220.333 87.333,221 86,221 C84.889,221 84,221.667 84,222.5 C84,223.325 83.283,224 82.406,224 C81.53,224 80.577,224.9 80.29,226 C80,227.107 78.926,228 77.883,228 C76.398,228 76,228.739 76,231.5 C76,233.944 75.548,235 74.5,235 C73.667,235 73,235.889 73,237 C73,238.111 72.333,239 71.5,239 C70.417,239 70,237.889 70,235 C70,232.111 70.417,231 71.5,231 C72.325,231 73,230.325 73,229.5 C73,228.452 71.944,228 69.5,228 L66,228 L66,219 C66,212.03 66.31,210 67.375,210 C68.746,210 70,205.88 70,201.375 C70,199.931 70.588,199 71.5,199 C72.652,199 73,197.722 73,193.5 C73,189.484 73.373,188 74.383,188 C76.21,188 76.97,184.865 76.986,177.25 C76.997,172.367 77.328,171 78.5,171 C79.605,171 80,169.847 80,166.625 C80,160.259 81.052,156 82.625,156 C83.661,156 84,154.273 84,149 C84,143.444 84.31,142 85.5,142 C86.658,142 87.002,140.691 87.009,136.25 C87.023,126.782 88.121,120 89.639,120 C90.651,120 91.004,118.27 91.014,113.25 C91.03,105.152 91.759,102 93.617,102 C94.692,102 95,99.996 95,93 C95,85.667 95.278,84 96.5,84 C97.548,84 98,82.944 98,80.5 L98,77 L91,77 C85.694,77 84,77.336 84,78.389 C84,80.154 78.116,81.3 73.5,80.434 C70.077,79.792 68.451,77 71.5,77 C72.537,77 73,75.958 73,73.625 C73,70.645 73.366,70.177 76.125,69.625 C77.844,69.281 81.894,69 85.125,69 C89.681,69 91,68.663 91,67.5 C91,66.207 94.444,66 116,66 C137.041,66 141,65.773 141,64.566 C141,63.77 142.223,62.948 143.75,62.716 Z M99,154.5 C99,153.367 100.222,153 104,153 C107.778,153 109,153.367 109,154.5 C109,155.652 110.278,156 114.5,156 C118.526,156 120,156.372 120,157.389 C120,158.184 121.495,159.058 123.5,159.434 C126.698,160.034 127,160.389 127,163.545 C127,165.949 126.544,167 125.5,167 C124.675,167 124,167.675 124,168.5 C124,169.333 123.111,170 122,170 C120.9,170 120,169.377 120,168.617 C120,167.856 119.1,166.998 118,166.71 C116.9,166.423 116,165.47 116,164.594 C116,163.348 114.908,163 111,163 C106.667,163 106,163.267 106,165 C106,166.667 105.333,167 102,167 C99.111,167 98,166.583 98,165.5 C98,164.675 97.325,164 96.5,164 C95.417,164 95,162.889 95,160 C95,156.667 95.333,156 97,156 C98.111,156 99,155.333 99,154.5 Z"/>
</svg>

