<svg xmlns="http://www.w3.org/2000/svg" width="300" height="300" viewBox="0 0 300 300" version="1.1">
  <defs/>
  <path d="M147.853,123.648 C148.759,123.396 150.4,123.366 151.5,123.581 C152.6,123.796 154.063,123.979 154.75,123.986 C155.63,123.996 156,126.074 156,131 L156,138 L176,138 C193.111,138 196,138.217 196,139.5 C196,140.325 196.623,141 197.383,141 C198.144,141 199.007,142.238 199.3,143.75 C200.046,147.59 199.016,152 197.375,152 C196.619,152 196,152.9 196,154 C196,155.333 195.333,156 194,156 C192.667,156 192,156.667 192,158 C192,159.1 191.375,160 190.611,160 C189.816,160 188.942,161.495 188.566,163.5 C188.173,165.595 187.325,167 186.455,167 C185.655,167 185,167.675 185,168.5 C185,169.711 186.589,170.003 193.25,170.014 C197.787,170.021 202.471,170.288 203.658,170.606 C206.149,171.274 207.136,174.071 206.32,178.149 C205.828,180.608 205.286,181 202.375,181 C200.042,181 199,180.537 199,179.5 C199,178.31 197.556,178 192,178 C186.444,178 185,178.31 185,179.5 C185,180.325 185.619,181 186.375,181 C188.176,181 189,185.432 189,195.125 C189,201.458 189.294,203 190.5,203 C191.633,203 192,204.222 192,208 L192,213 L199.5,213 C205.5,213 207,212.7 207,211.5 C207,210.21 210.222,210 230,210 C252.333,210 253,209.942 253,208 C253,206.387 253.667,206 256.441,206 C260.723,206 261.374,207.02 260.56,212.448 L259.914,216.754 L251.374,217.202 C245.448,217.513 242.565,218.086 241.955,219.075 C241.245,220.225 236.725,220.559 218.538,220.803 C196.976,221.093 196,221.191 196,223.053 C196,224.124 196.627,225 197.394,225 C198.441,225 198.88,227.012 199.155,233.076 C199.445,239.457 199.887,241.357 201.261,242.126 C202.74,242.954 203,244.662 203,253.55 C203,263.333 202.872,264 201,264 C199.667,264 199,264.667 199,266 C199,268.09 198.007,268.376 194.25,267.37 C192.036,266.776 192,266.51 192,250.883 C192,238.027 191.736,235 190.617,235 C189.041,235 188.034,232 188.014,227.25 C188.004,225.034 187.523,224 186.5,224 C185.675,224 185,223.325 185,222.5 C185,221.31 183.556,221 178,221 C172.444,221 171,221.31 171,222.5 C171,223.749 169.014,224 159.125,224 C145.569,224 141,224.662 141,226.625 C141,227.53 139.803,228 137.5,228 C135.187,228 134,228.469 134,229.383 C134,230.959 131,231.966 126.25,231.986 C124.173,231.995 123,232.494 123,233.369 C123,234.948 106.3,236.038 94.75,235.213 L88,234.731 L88,231.366 C88,229.041 88.464,228 89.5,228 C90.333,228 91,227.111 91,226 C91,224.667 91.667,224 93,224 C94.111,224 95,223.333 95,222.5 C95,221.534 95.978,220.995 97.75,220.986 C102.032,220.965 105,219.899 105,218.383 C105,217.329 106.781,217 112.5,217 C118.135,217 120,216.664 120,215.648 C120,214.312 130.141,213.021 140.75,213.006 C143.858,213.002 145,212.597 145,211.5 C145,210.667 145.889,210 147,210 C148.758,210 149,209.333 149,204.5 C149,200.278 149.348,199 150.5,199 C151.652,199 152,197.722 152,193.5 L152,188 L138,188 L138,183.117 C138,179.001 138.329,178.147 140.095,177.686 C141.856,177.225 142.081,176.647 141.51,174.047 C141.137,172.347 141.134,169.166 141.504,166.978 C142.139,163.219 142.37,163 145.704,163 L149.233,163 L148.813,156.4 C148.503,151.538 147.945,149.549 146.696,148.85 C145.281,148.058 145.002,146.291 145.014,138.2 C145.029,127.015 145.562,124.286 147.853,123.648 Z M163,37 C163,34.258 163.291,34 166.383,34 C170.598,34 170.968,35.135 170.986,48.133 C170.994,53.88 170.974,56.577 172.31,57.846 C173.514,58.991 175.822,58.974 180.25,58.986 C184.329,58.998 185,59.283 185,61 C185,62.1 185.623,63 186.383,63 C187.899,63 188.965,65.968 188.986,70.25 C188.995,72.022 189.534,73 190.5,73 C191.753,73 192,75.056 192,85.5 L192,98 L217,98 L217,102 C217,104.889 216.583,106 215.5,106 C214.675,106 214,106.675 214,107.5 C214,108.583 212.889,109 210,109 C207.111,109 206,108.583 206,107.5 C206,106.452 204.944,106 202.5,106 C200.056,106 199,106.452 199,107.5 C199,108.753 196.944,109 186.5,109 C174.667,109 174,109.107 174,111 C174,112.1 173.388,113 172.639,113 C171.249,113 170.026,119.622 170.009,127.25 C170.003,129.913 169.565,131 168.5,131 C167.675,131 167,131.675 167,132.5 C167,134.854 164.301,134.253 163.63,131.75 C163.299,130.512 163.021,125.787 163.014,121.25 C163.003,114.514 162.719,113 161.469,113 C160.626,113 159.678,112.325 159.362,111.5 C158.529,109.331 149,109.37 149,111.543 C149,112.663 148.109,113.025 145.75,112.864 C143.963,112.741 139.012,112.721 134.75,112.82 C128.608,112.963 127,113.311 127,114.5 C127,115.548 125.944,116 123.5,116 C121.056,116 120,115.548 120,114.5 C120,113.667 119.111,113 118,113 C116.333,113 116,112.333 116,109 C116,105.667 116.333,105 118,105 C119.111,105 120,104.333 120,103.5 C120,102.213 123.056,102 141.5,102 L163,102 L163,91.5 C163,82.833 162.738,81 161.5,81 C160.348,81 160,79.722 160,75.5 L160,70 L154,70 C149.333,70 148,70.333 148,71.5 C148,72.487 147.013,73 145.117,73 C143.074,73 142.081,73.583 141.71,75 C141.31,76.532 140.346,77 137.594,77 C134.153,77 134,76.851 134,73.5 C134,70.667 134.381,70 136,70 C137.333,70 138,69.333 138,68 C138,66.9 138.623,66 139.383,66 C140.144,66 141.002,65.1 141.29,64 C141.726,62.33 142.654,62 146.906,62 C150.672,62 152,61.625 152,60.56 C152,59.619 153.297,59.013 155.75,58.81 L159.5,58.5 L159.605,53.5 C159.872,40.775 159.98,40 161.5,40 Q163,40 163,37 Z M66,106.875 C66,105.028 66.409,104.832 69.125,105.375 C70.844,105.719 73.094,106 74.125,106 C75.156,106 76,106.675 76,107.5 C76,108.333 76.889,109 78,109 C79.333,109 80,109.667 80,111 C80,112.538 79.333,113 77.117,113 C73.442,113 73.031,114.477 73.014,127.75 L73,138 L78.5,138 C82.516,138 84,137.627 84,136.617 C84,134.759 87.152,134.03 95.25,134.014 C100.577,134.003 102,133.684 102,132.5 C102,131.348 103.278,131 107.5,131 C112.333,131 113,131.242 113,133 C113,134.111 113.667,135 114.5,135 C115.325,135 116,135.675 116,136.5 Q116,138 113,138 C111.094,138 110,138.511 110,139.401 C110,140.48 107.354,140.968 98.5,141.521 C89.736,142.069 87,142.568 87,143.62 C87,144.609 85.585,145 82,145 L77,145 L77,148.531 C77,150.748 76.441,152.277 75.5,152.638 C73.684,153.335 73.483,158.661 75.25,159.249 C77.039,159.845 77.039,187.151 75.25,187.749 C74.563,187.979 74,189.029 74,190.083 C74,191.907 74.949,192 93.5,192 C109.897,192 113,192.232 113,193.455 C113,194.325 114.405,195.173 116.5,195.566 C120.231,196.266 121.425,199 118,199 C116.667,199 116,199.667 116,201 C116,202.937 115.333,203 95,203 C76.452,203 74,203.186 74,204.594 C74,205.47 73.1,206.423 72,206.71 C70.9,206.998 70,207.856 70,208.617 C70,209.377 69.1,210 68,210 C66.667,210 66,210.667 66,212 C66,213.518 65.338,213.997 63.25,213.986 C58.968,213.965 56,212.899 56,211.383 C56,210.574 54.962,210 53.5,210 C51.944,210 51,209.433 51,208.5 C51,207.675 50.325,207 49.5,207 C48.351,207 48,205.732 48,201.588 L48,196.176 L52,195.5 C54.459,195.085 56,194.28 56,193.412 C56,192.384 57.361,192 61,192 L66,192 L66,188.5 C66,186.056 66.452,185 67.5,185 C68.7,185 69,183.5 69,177.5 C69,171.5 68.7,170 67.5,170 C66.26,170 66,168.139 66,159.25 L66,148.5 L41,149.206 L41,145.728 C41,142.633 41.344,142.181 44.125,141.625 C45.844,141.281 48.994,141 51.125,141 C53.903,141 55,140.575 55,139.5 C55,138.348 56.278,138 60.5,138 L66,138 L66,132.5 C66,128.278 65.652,127 64.5,127 C63.278,127 63,125.333 63,118 C63,110.667 63.278,109 64.5,109 C65.363,109 66,108.097 66,106.875 Z M73.29,93 C73.782,91.119 74.654,91 87.906,91 C99.239,91 102,91.271 102,92.383 C102,93.144 102.9,94.002 104,94.29 C105.699,94.734 106,95.654 106,100.406 C106,105.333 105.762,106 104,106 C102.667,106 102,105.333 102,104 C102,102.667 101.333,102 100,102 C98.889,102 98,101.333 98,100.5 C98,99.452 96.944,99 94.5,99 C92.056,99 91,99.452 91,100.5 C91,101.753 88.944,102 78.5,102 C68.229,102 66,102.259 66,103.455 C66,104.325 64.595,105.173 62.5,105.566 C60.495,105.942 59,106.816 59,107.611 C59,108.565 57.746,109 55,109 C51.456,109 51,108.729 51,106.625 C51,102.12 52.254,98 53.625,98 C54.381,98 55,97.325 55,96.5 C55,95.279 56.654,95 63.883,95 C71.926,95 72.816,94.811 73.29,93 Z M165.25,184.685 C163.442,185.05 163,185.813 163,188.57 C163,190.952 162.542,192 161.5,192 C160.348,192 160,193.278 160,197.5 C160,202.333 159.758,203 158,203 C156.267,203 156,203.667 156,208 L156,213 L169.117,213 C182.231,213 182.233,213 181.63,210.75 C181.299,209.512 181.021,206.363 181.014,203.75 C181.003,200.201 180.621,199 179.5,199 C178.534,199 177.995,198.022 177.986,196.25 C177.965,191.968 176.899,189 175.383,189 C174.623,189 174,188.1 174,187 C174,185.9 173.438,184.994 172.75,184.986 C172.063,184.979 170.6,184.806 169.5,184.602 C168.4,184.398 166.488,184.436 165.25,184.685 Z M171,102 L181,102 L181,98.5 C181,96.197 181.47,95 182.375,95 C183.912,95 185,90.766 185,84.781 C185,81.654 184.576,80.702 183,80.29 C181.497,79.897 181,78.926 181,76.383 C181,74.043 180.538,73 179.5,73 C178.675,73 178,72.325 178,71.5 C178,70.452 176.944,70 174.5,70 L171,70 L171,102 Z M163,146.383 C163,147.144 162.034,148.019 160.854,148.328 C158.9,148.839 158.763,149.353 159.323,154.08 C159.661,156.935 160.064,159.394 160.219,159.544 C160.374,159.695 163.537,159.572 167.25,159.272 C172.015,158.887 174,158.325 174,157.363 C174,156.472 175.212,156 177.5,156 C179.82,156 181,155.532 181,154.611 C181,153.825 182.469,152.947 184.39,152.587 C186.596,152.173 187.96,151.261 188.296,149.975 C188.58,148.889 189.53,148 190.406,148 C192.792,148 192.327,146.321 189.75,145.63 C188.512,145.299 181.988,145.021 175.25,145.014 C165.48,145.003 163,145.28 163,146.383 Z M115.25,224.685 C114.013,224.935 113,225.783 113,226.57 C113,227.637 114.397,228 118.5,228 C122.722,228 124,227.652 124,226.5 C124,225.675 123.438,224.994 122.75,224.986 C122.063,224.979 120.6,224.806 119.5,224.602 C118.4,224.398 116.487,224.436 115.25,224.685 Z M164.75,170.672 C161.186,171.639 162.834,174 167.073,174 C170.413,174 171.087,173.685 170.813,172.25 C170.474,170.473 167.926,169.81 164.75,170.672 Z"/>
</svg>

