<svg xmlns="http://www.w3.org/2000/svg" width="300" height="300" viewBox="0 0 300 300" version="1.1">
  <defs/>
  <path d="M81,157.594 C81,156.348 82.092,156 86,156 C90.333,156 91,156.267 91,158 C91,159.111 90.333,160 89.5,160 C88.675,160 88,160.717 88,161.594 C88,162.47 87.1,163.423 86,163.71 C83.069,164.477 83.559,165.744 87.084,166.519 C89.493,167.048 90.597,166.736 92.123,165.098 C93.647,163.462 95.281,163 99.539,163 C103.727,163 105,162.65 105,161.5 C105,160.3 106.5,160 112.5,160 C118.5,160 120,160.3 120,161.5 C120,162.548 121.056,163 123.5,163 C126.333,163 127,163.381 127,165 C127,166.333 127.667,167 129,167 C130.333,167 131,167.667 131,169 C131,170.1 131.655,171 132.455,171 C133.325,171 134.173,172.405 134.566,174.5 C134.942,176.505 135.816,178 136.611,178 C137.532,178 138,179.18 138,181.5 C138,183.813 138.469,185 139.383,185 C141.103,185 141.969,188.077 141.986,194.25 C141.998,198.338 141.721,199 140,199 C138.14,199 138,199.667 138,208.5 C138,215.881 137.694,218 136.629,218 C135.739,218 135.025,219.754 134.594,223 C134.14,226.424 133.469,228 132.466,228 C131.66,228 131,228.9 131,230 C131,231.333 130.333,232 129,232 C127.889,232 127,232.667 127,233.5 C127,234.325 126.381,235 125.625,235 C124.196,235 122.591,240.53 123.563,242.103 C123.868,242.596 124.766,243 125.559,243 C126.352,243 127,243.675 127,244.5 C127,245.333 127.889,246 129,246 C130.1,246 131,246.655 131,247.455 C131,248.325 132.405,249.173 134.5,249.566 C136.505,249.942 138,250.816 138,251.611 C138,252.532 139.18,253 141.5,253 C144.333,253 145,253.381 145,255 C145,256.333 145.667,257 147,257 C148.111,257 149,257.667 149,258.5 C149,259.548 150.056,260 152.5,260 C155.333,260 156,260.381 156,262 C156,263.81 156.667,264 163,264 L170,264 L170,271 L163,271 C157.444,271 156,270.69 156,269.5 C156,268.445 154.934,268 152.406,268 C149.654,268 148.69,267.532 148.29,266 C147.897,264.497 146.926,264 144.383,264 C142.089,264 141,263.532 141,262.545 C141,261.675 139.595,260.827 137.5,260.434 C135.495,260.058 134,259.184 134,258.389 C134,257.389 132.6,257 129,257 C124.667,257 124,256.733 124,255 C124,253.333 123.333,253 120,253 C117.111,253 116,252.583 116,251.5 C116,250.452 114.944,250 112.5,250 C110.056,250 109,250.452 109,251.5 C109,252.325 108.325,253 107.5,253 C106.667,253 106,253.889 106,255 C106,256.333 105.333,257 104,257 C102.381,257 102,257.667 102,260.5 C102,263.333 101.619,264 100,264 C98.889,264 98,264.667 98,265.5 C98,266.325 97.325,267 96.5,267 C95.667,267 95,267.889 95,269 C95,270.333 94.333,271 93,271 C91.395,271 91,271.667 91,274.375 C91,277.286 90.608,277.828 88.149,278.32 C83.356,279.279 81,278.146 81,274.883 C81,272.987 81.513,272 82.5,272 C83.325,272 84,271.152 84,270.117 C84,269.074 84.893,268 86,267.71 C87.1,267.423 88,266.47 88,265.594 C88,264.717 88.675,264 89.5,264 C90.333,264 91,263.111 91,262 C91,260.9 91.655,260 92.455,260 C93.325,260 94.173,258.595 94.566,256.5 C94.942,254.495 95.816,253 96.611,253 C97.375,253 98,252.325 98,251.5 C98,250.667 98.889,250 100,250 C101.333,250 102,249.333 102,248 C102,246.9 102.623,246 103.383,246 C104.144,246 105.002,245.1 105.29,244 C105.577,242.9 106.53,242 107.406,242 C108.521,242 109,241.07 109,238.906 C109,236.654 109.544,235.671 111,235.29 C112.1,235.002 113,234.144 113,233.383 C113,232.623 113.675,232 114.5,232 C115.333,232 116,231.111 116,230 C116,228.667 116.667,228 118,228 C119.111,228 120,227.333 120,226.5 C120,225.452 118.944,225 116.5,225 C114.056,225 113,225.452 113,226.5 C113,227.583 111.889,228 109,228 C106.166,228 105,228.424 105,229.455 C105,230.325 103.595,231.173 101.5,231.566 C99.495,231.942 98,232.816 98,233.611 C98,234.532 96.82,235 94.5,235 C91.667,235 91,235.381 91,237 C91,238.619 90.333,239 87.5,239 C84.667,239 84,239.381 84,241 C84,242.758 83.333,243 78.5,243 C73.667,243 73,242.758 73,241 C73,239.889 72.333,239 71.5,239 C70.675,239 70,238.325 70,237.5 C70,236.675 70.717,236 71.594,236 C72.47,236 73.416,235.126 73.695,234.057 C73.991,232.927 75.416,231.848 77.102,231.478 C80.069,230.826 81.205,228 78.5,228 C77.278,228 77,226.333 77,219 C77,210.667 76.852,210 75,210 C73.062,210 73,209.333 73,188.617 C73,168.074 73.079,167.213 75,166.71 C76.435,166.335 77,165.346 77,163.21 C77,161.074 77.565,160.086 79,159.71 C80.1,159.423 81,158.47 81,157.594 Z M109,42.5 C109,41.667 109.889,41 111,41 C112.333,41 113,41.667 113,43 C113,44.1 113.655,45 114.455,45 C115.325,45 116.173,46.405 116.566,48.5 C116.942,50.505 117.816,52 118.611,52 C119.375,52 120,52.675 120,53.5 C120,54.794 123.5,55 145.5,55 C166.317,55 171,54.751 171,53.642 C171,52.59 174.037,52.168 184.448,51.77 C202.04,51.099 203,51.298 203,55.617 C203,58.333 202.606,59 201,59 C199.381,59 199,59.667 199,62.5 C199,64.944 198.548,66 197.5,66 C196.675,66 196,66.675 196,67.5 C196,68.333 195.111,69 194,69 C192.708,69 192,69.667 192,70.883 C192,71.926 191.107,73 190,73.29 C188.9,73.577 188,74.53 188,75.406 C188,76.561 187.036,77 184.5,77 C181.167,77 181,76.833 181,73.5 C181,70.964 181.439,70 182.594,70 C183.47,70 184.423,69.1 184.71,68 C184.998,66.9 185.856,66 186.617,66 C189.099,66 188.07,63.234 185.332,62.547 C183.864,62.179 171.939,62.197 158.832,62.587 C139.83,63.153 135,63.571 135,64.649 C135,65.62 133.453,66 129.5,66 C125.278,66 124,66.348 124,67.5 C124,68.325 124.675,69 125.5,69 C126.583,69 127,70.111 127,73 C127,75.834 127.424,77 128.455,77 C129.325,77 130.173,78.405 130.566,80.5 C130.927,82.425 131.797,84 132.5,84 C133.203,84 134.073,85.575 134.434,87.5 C134.827,89.595 135.675,91 136.545,91 C137.532,91 138,92.089 138,94.383 C138,96.926 138.497,97.897 140,98.29 C141.1,98.577 142,99.53 142,100.406 C142,101.283 142.675,102 143.5,102 C144.548,102 145,103.056 145,105.5 C145,108.333 145.381,109 147,109 C148.619,109 149,109.667 149,112.5 C149,114.82 149.468,116 150.389,116 C151.184,116 152.058,117.495 152.434,119.5 C152.827,121.595 153.675,123 154.545,123 C155.532,123 156,124.089 156,126.383 C156,128.926 156.497,129.897 158,130.29 C159.197,130.603 160,131.654 160,132.906 C160,134.101 160.644,135 161.5,135 C162.548,135 163,136.056 163,138.5 C163,141.333 163.381,142 165,142 C166.619,142 167,142.667 167,145.5 C167,147.896 167.459,149 168.455,149 C169.325,149 170.173,150.405 170.566,152.5 C170.942,154.505 171.816,156 172.611,156 C173.532,156 174,157.18 174,159.5 C174,162.333 174.381,163 176,163 C177.333,163 178,163.667 178,165 C178,166.1 178.625,167 179.389,167 C180.184,167 181.058,168.495 181.434,170.5 C181.827,172.595 182.675,174 183.545,174 C184.345,174 185,174.9 185,176 C185,177.1 185.623,178 186.383,178 C187.144,178 188.002,178.9 188.29,180 C188.577,181.1 189.53,182 190.406,182 C191.561,182 192,182.964 192,185.5 C192,187.857 192.464,189 193.421,189 C194.202,189 195.138,190.35 195.5,192 C195.862,193.65 196.748,195 197.468,195 C198.188,195 199.065,196.532 199.416,198.403 C199.767,200.275 200.717,202.061 201.527,202.372 C202.337,202.683 203,203.626 203,204.469 C203,205.311 203.625,206 204.389,206 C205.184,206 206.058,207.495 206.434,209.5 C206.827,211.595 207.675,213 208.545,213 C209.345,213 210,213.9 210,215 C210,216.333 210.667,217 212,217 C213.333,217 214,217.667 214,219 C214,220.111 214.667,221 215.5,221 C216.325,221 217,221.675 217,222.5 C217,223.363 217.903,224 219.125,224 C221.163,224 221.232,223.643 220.8,215.417 C220.487,209.456 219.915,206.566 218.925,205.954 C217.751,205.23 217.443,199.433 217.176,173.037 C216.918,147.641 216.583,141 215.556,141 C214.15,141 212.868,133.219 213.731,129.922 C214.49,127.018 216.757,127.619 217.482,130.916 C217.834,132.521 218.77,134.081 219.561,134.385 C220.73,134.834 221,137.944 221,150.969 C221,164.552 221.229,167 222.5,167 C223.754,167 224.001,169.087 224.009,179.75 C224.02,195.839 224.83,203 226.639,203 C227.622,203 228,204.528 228,208.5 C228,212.722 228.348,214 229.5,214 C230.524,214 231.003,215.032 231.009,217.25 C231.028,224.426 232.286,231 233.639,231 C234.56,231 235,232.293 235,235 C235,238.333 235.333,239 237,239 C238.619,239 239,239.667 239,242.5 C239,245.811 238.817,246 235.611,246 C232.53,246 232.163,246.318 231.566,249.5 C230.861,253.258 228,254.461 228,251 C228,249.889 227.333,249 226.5,249 C225.675,249 225,248.325 225,247.5 C225,246.667 224.111,246 223,246 C221.106,246 220.424,244.11 220.925,240.25 C221.015,239.562 220.168,239 219.044,239 C217.667,239 217,238.348 217,237 C217,235.667 216.333,235 215,235 C213.889,235 213,234.333 213,233.5 C213,232.675 212.325,232 211.5,232 C210.667,232 210,231.111 210,230 C210,228.667 209.333,228 208,228 C206.667,228 206,227.333 206,226 C206,224.889 205.333,224 204.5,224 C203.664,224 203,223.11 203,221.99 C203,220.885 202.1,219.21 201,218.268 C199.9,217.326 199,215.756 199,214.778 C199,213.8 198.361,213 197.579,213 C196.798,213 195.862,211.65 195.5,210 C195.138,208.35 194.202,207 193.421,207 C192.473,207 192,205.873 192,203.617 C192,201.074 191.503,200.103 190,199.71 C188.803,199.397 188,198.346 188,197.094 C188,195.899 187.356,195 186.5,195 Q185,195 185,192 C185,189.922 184.51,189 183.406,189 C182.53,189 181.577,188.1 181.29,187 C181.002,185.9 180.144,185 179.383,185 C178.623,185 178,184.1 178,183 C178,181.667 177.333,181 176,181 C174.381,181 174,180.333 174,177.5 C174,175.187 173.531,174 172.617,174 C171.856,174 170.998,173.1 170.71,172 C170.423,170.9 169.47,170 168.594,170 C167.439,170 167,169.036 167,166.5 C167,163.667 166.619,163 165,163 C163.381,163 163,162.333 163,159.5 C163,157.18 162.532,156 161.611,156 C160.816,156 159.942,154.505 159.566,152.5 C159.173,150.405 158.325,149 157.455,149 C156.655,149 156,148.1 156,147 C156,145.9 155.375,145 154.611,145 C153.816,145 152.942,143.505 152.566,141.5 C152.173,139.405 151.325,138 150.455,138 C149.483,138 148.995,136.921 148.986,134.75 C148.966,130 147.959,127 146.383,127 C145.469,127 145,125.813 145,123.5 C145,120.667 144.619,120 143,120 C141.667,120 141,119.333 141,118 C141,116.889 140.333,116 139.5,116 C138.452,116 138,114.944 138,112.5 C138,109.667 137.619,109 136,109 C134.381,109 134,108.333 134,105.5 C134,103.056 133.548,102 132.5,102 C131.667,102 131,101.111 131,100 C131,98.667 130.333,98 129,98 C127.667,98 127,97.333 127,96 C127,94.9 126.383,94 125.629,94 C124.739,94 124.025,92.246 123.594,89 C123.14,85.576 122.469,84 121.466,84 C120.66,84 120,83.1 120,82 C120,80.9 119.34,80 118.534,80 C117.531,80 116.86,78.424 116.406,75 C115.975,71.754 115.261,70 114.371,70 C113.617,70 113,69.1 113,68 C113,66.148 112.333,66 104,66 C96.667,66 95,66.278 95,67.5 C95,68.646 93.74,69 89.656,69 C86.716,69 79.516,69.293 73.656,69.652 C63.214,70.291 63,70.261 63,68.152 C63,66.906 63.631,66 64.5,66 C65.333,66 66,65.111 66,64 C66,62.889 66.667,62 67.5,62 C68.325,62 69,61.325 69,60.5 C69,59.224 71.645,58.998 86.75,58.986 C96.513,58.979 105.513,58.701 106.75,58.37 C109.275,57.693 109.811,56 107.5,56 C106.333,56 106,54.667 106,50 C106,45.333 106.333,44 107.5,44 C108.325,44 109,43.325 109,42.5 Z M95.75,98.728 C106.371,97.617 116,98.526 116,100.639 C116,101.56 117.293,102 120,102 C123.333,102 124,102.333 124,104 C124,105.111 124.667,106 125.5,106 C126.548,106 127,107.056 127,109.5 C127,111.944 126.548,113 125.5,113 C124.675,113 124,113.675 124,114.5 C124,115.325 124.675,116 125.5,116 C126.333,116 127,116.889 127,118 C127,119.111 127.667,120 128.5,120 C129.633,120 130,121.222 130,125 C130,127.75 129.59,130 129.088,130 C128.586,130 127.872,131.8 127.5,134 C126.523,139.78 124.231,139.22 123.406,133 C122.975,129.754 122.261,128 121.371,128 C120.617,128 120,127.1 120,126 C120,124.148 119.333,124 111,124 C103.667,124 102,124.278 102,125.5 C102,126.548 100.944,127 98.5,127 C95.667,127 95,127.381 95,129 C95,130.606 94.333,131 91.617,131 C89.074,131 88.103,131.497 87.71,133 C87.423,134.1 86.47,135 85.594,135 C84.717,135 84,135.675 84,136.5 C84,137.325 83.381,138 82.625,138 C81.254,138 80,142.12 80,146.625 C80,148.801 79.591,149 75.111,149 C70.285,149 70.214,148.954 69.544,145.381 C68.628,140.501 69.796,134 71.588,134 C72.365,134 73,133.325 73,132.5 C73,131.675 73.717,131 74.594,131 C75.47,131 76.423,130.1 76.71,129 C77.103,127.497 78.074,127 80.617,127 C83.333,127 84,126.606 84,125 C84,123.667 84.667,123 86,123 C87.111,123 88,122.333 88,121.5 C88,120.367 89.222,120 93,120 C96.576,120 98,119.608 98,118.625 C98,116.824 102.432,116 112.125,116 L120,116 L120,113.117 C120,109.319 118.711,109.03 101.656,109.014 C88.648,109.001 87.781,109.121 87.29,111 C86.857,112.656 85.926,113 81.883,113 C78.209,113 77,113.371 77,114.5 C77,115.333 76.111,116 75,116 C73.9,116 73,115.375 73,114.611 C73,113.816 71.505,112.942 69.5,112.566 C66.124,111.933 64.383,109 67.383,109 C68.144,109 69.002,108.1 69.29,107 C69.577,105.9 70.53,105 71.406,105 C72.283,105 73,104.325 73,103.5 C73,102.272 74.722,102 82.5,102 C90.101,102 92,101.712 92,100.56 C92,99.633 93.335,98.981 95.75,98.728 Z M120,194 C120,195.619 119.333,196 116.5,196 C114.18,196 113,196.468 113,197.389 C113,198.184 111.505,199.058 109.5,199.434 C107.405,199.827 106,200.675 106,201.545 C106,202.345 105.1,203 104,203 C102.889,203 102,203.667 102,204.5 C102,205.333 101.111,206 100,206 C98.667,206 98,206.667 98,208 C98,209.619 97.333,210 94.5,210 C91.167,210 91,210.167 91,213.5 C91,216.833 90.833,217 87.5,217 C84.667,217 84,217.381 84,219 C84,220.333 84.667,221 86,221 C87.619,221 88,221.667 88,224.5 C88,226.944 88.452,228 89.5,228 C90.333,228 91,227.111 91,226 C91,224.381 91.667,224 94.5,224 C96.944,224 98,223.548 98,222.5 C98,221.477 99.034,220.996 101.25,220.986 C106,220.966 109,219.959 109,218.383 C109,217.373 110.484,217 114.5,217 C118.526,217 120,216.628 120,215.611 C120,214.816 121.495,213.942 123.5,213.566 C125.595,213.173 127,212.325 127,211.455 C127,210.655 127.647,210 128.439,210 C130.297,210 131.461,202.562 130.552,196.5 L129.877,192 L124.939,192 C120.667,192 120,192.27 120,194 Z M100.75,170.689 C99.787,170.941 99,171.789 99,172.573 C99,173.571 97.798,174 95,174 C91.667,174 91,174.333 91,176 C91,177.619 90.333,178 87.5,178 C84.167,178 84,178.167 84,181.5 C84,183.641 84.485,184.995 85.25,184.986 C88.16,184.955 91,183.669 91,182.383 C91,181.623 91.9,181 93,181 C94.1,181 95,180.381 95,179.625 C95,177.916 99.36,177 107.5,177 C115.64,177 120,177.916 120,179.625 C120,180.381 120.9,181 122,181 C123.111,181 124,181.667 124,182.5 C124,183.325 124.675,184 125.5,184 C126.325,184 127,183.325 127,182.5 C127,181.675 126.375,181 125.611,181 C124.816,181 123.942,179.505 123.566,177.5 C122.992,174.438 122.54,174 119.955,174 C118.114,174 117,173.481 117,172.625 C117,170.45 106.466,169.196 100.75,170.689 Z M221,30 L221,23 L239,23 L239,26.5 C239,29.833 238.833,30 235.5,30 C233.056,30 232,30.452 232,31.5 C232,32.333 231.111,33 230,33 C228.381,33 228,33.667 228,36.5 C228,40.131 225.773,41.456 224.638,38.5 C224.322,37.675 223.374,37 222.531,37 C221.302,37 221,35.619 221,30 Z M102,186.5 C102,187.325 101.283,188 100.406,188 C99.53,188 98.577,188.9 98.29,190 C98.002,191.1 97.144,192 96.383,192 C95.623,192 95,192.675 95,193.5 C95,194.548 96.056,195 98.5,195 C100.944,195 102,194.548 102,193.5 C102,192.371 103.209,192 106.883,192 C110.926,192 111.857,191.656 112.29,190 C112.577,188.9 113.53,188 114.406,188 C115.283,188 116,187.325 116,186.5 C116,185.31 114.556,185 109,185 C103.444,185 102,185.31 102,186.5 Z M84,199 C84,202.411 84.311,203.087 85.75,202.81 C87.016,202.566 87.5,201.512 87.5,199 C87.5,196.488 87.016,195.434 85.75,195.19 C84.311,194.913 84,195.589 84,199 Z"/>
</svg>

