<svg xmlns="http://www.w3.org/2000/svg" width="300" height="300" viewBox="0 0 300 300" version="1.1">
  <defs/>
  <path d="M105.345,138.658 L104.69,125 L114.345,125 C121.993,125 124,125.293 124,126.412 C124,127.28 122.459,128.085 120,128.5 C116.499,129.091 116.002,129.508 116.014,131.838 C116.035,136.038 117.112,139 118.617,139 C119.377,139 120,138.325 120,137.5 C120,136.675 120.338,135.972 120.75,135.937 C121.162,135.902 127.575,135.642 135,135.36 C151.854,134.718 163,135.604 163,137.585 C163,138.542 164.162,139 166.594,139 C169.346,139 170.31,139.468 170.71,141 C170.998,142.1 171.856,143 172.617,143 C173.531,143 174,144.187 174,146.5 C174,148.827 174.467,150 175.395,150 C177.125,150 177.824,155.931 177.19,165.25 C176.863,170.064 176.34,172 175.366,172 C174.342,172 174,173.751 174,179 C174,185.333 173.81,186 172,186 C170.667,186 170,186.667 170,188 C170,189.333 169.333,190 168,190 C166.889,190 166,190.667 166,191.5 C166,192.495 165.005,193 163.045,193 C160.46,193 160.008,192.562 159.434,189.5 L158.777,186 L149.889,186 C142.875,186 141,186.3 141,187.421 C141,188.202 139.65,189.138 138,189.5 C136.35,189.862 135,190.798 135,191.579 C135,192.638 133.573,193 129.406,193 C124.654,193 123.734,193.301 123.29,195 C122.897,196.503 121.926,197 119.383,197 C117.043,197 116,197.462 116,198.5 C116,199.633 114.778,200 111,200 L106,200 L106,203.594 C106,206.346 105.532,207.31 104,207.71 C102.094,208.209 102,209.074 102,226.117 C102,241.346 101.777,244 100.5,244 C99.278,244 99,245.667 99,253 L99,262 L102.094,262 C104.346,262 105.329,261.456 105.71,260 C105.998,258.9 106.803,258 107.5,258 C108.197,258 109.014,257.053 109.317,255.895 C110.17,252.634 112.464,254.231 112.81,258.327 C113.04,261.044 112.735,262 111.64,262 C110.807,262 109.87,263.314 109.5,265 C109.122,266.722 108.196,268 107.327,268 C106.494,268 105.584,268.874 105.305,269.943 C104.676,272.346 100.35,273.404 94.909,272.485 L90.862,271.801 L91.181,256.362 C91.437,243.962 91.795,240.741 93,240 C94.229,239.243 94.559,235.634 94.828,220.038 C95.097,204.399 95.41,201 96.578,201 C97.544,201 98,199.847 98,197.406 C98,194.654 98.468,193.69 100,193.29 C101.1,193.002 102,192.144 102,191.383 C102,190.623 102.9,190 104,190 C105.333,190 106,189.333 106,188 C106,186.889 106.667,186 107.5,186 C108.652,186 109,184.722 109,180.5 C109,176.278 108.652,175 107.5,175 C106.675,175 106,174.325 106,173.5 C106,172.675 106.675,172 107.5,172 C108.333,172 109,171.111 109,170 C109,168.889 108.333,168 107.5,168 C106.294,168 106,166.462 106,160.158 C106,155.845 105.705,146.17 105.345,138.658 Z M51,50.421 C51,49.639 51.85,49 52.889,49 C54.245,49 54.957,49.959 55.416,52.403 C55.767,54.275 56.717,56.061 57.527,56.372 C58.695,56.82 59,59.116 59,67.469 C59,76.163 59.262,78 60.5,78 C61.695,78 62.002,79.476 62.009,85.25 C62.022,96.119 63.042,103 64.639,103 C65.704,103 66,105.389 66,114 C66,123.111 66.258,125 67.5,125 C68.325,125 69,125.675 69,126.5 C69,127.605 70.153,128 73.375,128 C75.781,128 79.156,128.281 80.875,128.625 C83.469,129.144 84,129.719 84,132.008 C84,135.354 82.265,135.967 72.75,135.986 L66,136 L66,146.5 C66,154.637 66.303,157 67.347,157 C69.097,157 69.989,171.865 69.995,201.125 C70,224.22 69.551,229 67.375,229 C66.619,229 66,229.9 66,231 C66,232.163 65.333,233 64.406,233 C63.53,233 62.577,232.1 62.29,231 C62.002,229.9 61.144,229 60.383,229 C59.337,229 59,227.293 59,222 C59,216.444 59.31,215 60.5,215 C61.764,215 62,212.722 62,200.5 C62,188.278 61.764,186 60.5,186 C59.207,186 59,182.568 59,161.111 L59,136.223 L55.5,135.566 C53.405,135.173 52,134.325 52,133.455 C52,132.32 50.459,132 45,132 C39.707,132 38,132.337 38,133.383 C38,135.26 34.312,135.827 25.98,135.231 C20.991,134.874 19,134.342 19,133.366 C19,132.615 18.365,132 17.589,132 C15.84,132 15.368,125.118 15.827,106.359 C16.091,95.628 16.435,93 17.577,93 C18.53,93 19,91.87 19,89.579 C19,86.598 19.382,86.075 21.976,85.505 C25.339,84.767 27,85.445 27,87.559 C27,88.352 27.675,89 28.5,89 C29.548,89 30,90.056 30,92.5 C30,95.375 30.37,96 32.073,96 C35.587,96 34.02,99.448 30.344,99.806 C26.497,100.18 26.032,101.571 26.014,112.75 L26,121 L32.75,121.014 C40.848,121.03 44,121.759 44,123.617 C44,124.627 45.484,125 49.5,125 L55,125 L55,109 C55,95.444 54.771,93 53.5,93 C52.395,93 52,91.847 52,88.625 C52,82.259 50.948,78 49.375,78 C48.331,78 48,76.197 48,70.5 C48,64.5 47.7,63 46.5,63 C45.37,63 45,61.787 45,58.079 C45,53.425 45.162,53.123 48,52.5 C49.65,52.138 51,51.202 51,50.421 Z M159,47.5 C159,46.417 160.111,46 163,46 C165.889,46 167,46.417 167,47.5 C167,48.548 168.056,49 170.5,49 L174,49 L174,54.5 C174,58.57 173.633,60 172.588,60 C171.72,60 170.915,61.541 170.5,64 C170.085,66.459 169.28,68 168.412,68 C167.635,68 167,68.675 167,69.5 C167,70.325 166.325,71 165.5,71 C164.675,71 164,71.675 164,72.5 C164,73.333 163.111,74 162,74 C160.667,74 160,74.667 160,76 C160,77.333 159.333,78 158,78 C156.667,78 156,78.667 156,80 C156,81.333 155.333,82 154,82 C152.889,82 152,82.667 152,83.5 C152,84.325 151.325,85 150.5,85 C149.667,85 149,85.889 149,87 C149,88.333 148.333,89 147,89 C145.889,89 145,89.667 145,90.5 C145,91.325 144.325,92 143.5,92 C142.667,92 142,92.889 142,94 C142,95.333 141.333,96 140,96 C138.889,96 138,96.667 138,97.5 C138,98.738 139.833,99 148.5,99 C157.167,99 159,98.738 159,97.5 C159,96.667 159.889,96 161,96 C162.1,96 163,96.625 163,97.389 C163,98.184 164.495,99.058 166.5,99.434 C168.595,99.827 170,100.675 170,101.545 C170,102.345 170.9,103 172,103 C173.667,103 174,103.667 174,107 C174,109.889 173.583,111 172.5,111 C171.675,111 171,111.675 171,112.5 C171,113.333 170.111,114 169,114 C167.667,114 167,113.333 167,112 C167,110.667 166.333,110 165,110 C163.889,110 163,109.333 163,108.5 C163,107.3 161.5,107 155.5,107 C149.5,107 148,107.3 148,108.5 C148,109.575 146.903,110 144.125,110 C138.228,110 134,111.096 134,112.625 C134,113.708 131.667,114 123,114 C113.889,114 112,114.258 112,115.5 C112,117.811 110.307,117.275 109.63,114.75 C109.299,113.513 109.021,109.688 109.014,106.25 C109.003,101.367 108.672,100 107.5,100 C106.3,100 106,98.5 106,92.5 C106,86.5 106.3,85 107.5,85 C108.548,85 109,83.944 109,81.5 L109,78 L116.5,78 C122.5,78 124,77.7 124,76.5 C124,75.675 124.675,75 125.5,75 C126.548,75 127,76.056 127,78.5 C127,81.833 126.833,82 123.5,82 C121.187,82 120,82.469 120,83.383 C120,84.144 119.1,85.002 118,85.29 C116.384,85.712 116.003,86.647 116.014,90.156 C116.036,97.269 116.839,99 120.117,99 C122.013,99 123,98.487 123,97.5 C123,96.567 123.944,96 125.5,96 C126.993,96 128,95.428 128,94.579 C128,93.798 129.35,92.862 131,92.5 C132.65,92.138 134,91.202 134,90.421 C134,89.639 134.9,89 136,89 C137.333,89 138,88.333 138,87 C138,85.9 138.623,85 139.383,85 C140.144,85 141.002,84.1 141.29,83 C141.577,81.9 142.53,81 143.406,81 C144.283,81 145,80.325 145,79.5 C145,78.667 145.889,78 147,78 C148.333,78 149,77.333 149,76 C149,74.889 149.667,74 150.5,74 C151.325,74 152,73.283 152,72.406 C152,71.53 152.9,70.577 154,70.29 C155.1,70.002 156,69.144 156,68.383 C156,67.623 156.623,67 157.383,67 C158.144,67 159.002,66.1 159.29,65 C159.577,63.9 160.53,63 161.406,63 C162.283,63 163,62.325 163,61.5 C163,60.667 163.889,60 165,60 C166.1,60 167,59.345 167,58.545 C167,56.71 162.381,55.922 154.5,56.413 C151.2,56.618 147.713,56.834 146.75,56.893 C145.787,56.952 145,57.675 145,58.5 C145,59.714 143.402,60 136.617,60 C129.074,60 128.181,60.201 127.71,62 C127.274,63.67 126.346,64 122.094,64 C118.233,64 117,64.363 117,65.5 C117,66.523 115.966,67.004 113.75,67.014 C109,67.034 106,68.041 106,69.617 C106,70.627 104.516,71 100.5,71 C95.667,71 95,71.242 95,73 C95,74.333 94.333,75 93,75 C91.451,75 91,75.667 91,77.955 C91,80.55 90.566,80.991 87.438,81.578 C84.14,82.196 75.379,81.713 74.532,80.865 C74.329,80.662 73.868,79.321 73.507,77.884 C72.979,75.781 73.255,75.166 74.926,74.73 C76.067,74.431 77,73.47 77,72.594 C77,71.717 77.689,71 78.531,71 C79.374,71 80.317,70.337 80.628,69.527 C80.939,68.717 82.725,67.767 84.597,67.416 C86.527,67.054 88,66.177 88,65.389 C88,64.443 89.235,64 91.875,64 C97.772,64 102,62.904 102,61.375 C102,60.375 103.5,60 107.5,60 C111.516,60 113,59.627 113,58.617 C113,56.897 116.077,56.031 122.25,56.014 C125.621,56.004 127,55.598 127,54.616 C127,53.621 128.85,53.115 133.6,52.813 C138.462,52.503 140.451,51.945 141.15,50.696 C141.926,49.31 143.644,49 150.55,49 C157.394,49 159,48.715 159,47.5 Z M224,198.5 C224,197.348 225.278,197 229.5,197 C234.333,197 235,197.242 235,199 C235,200.111 234.333,201 233.5,201 C232.675,201 232,201.675 232,202.5 C232,203.652 230.722,204 226.5,204 C222.297,204 221,204.351 221,205.488 C221,206.451 219.588,207.202 217,207.616 C214.587,208.002 213,208.8 213,209.628 C213,210.529 211.8,211 209.5,211 C207.187,211 206,211.469 206,212.383 C206,214.103 202.923,214.969 196.75,214.986 L192,215 L192,229.5 C192,243.333 191.908,244 190,244 C188.889,244 188,244.667 188,245.5 C188,246.325 187.325,247 186.5,247 C185.667,247 185,247.889 185,249 C185,250.333 184.333,251 183,251 C181.9,251 181,251.655 181,252.455 C181,253.325 179.595,254.173 177.5,254.566 C175.495,254.942 174,255.816 174,256.611 C174,257.611 172.6,258 169,258 C165.222,258 164,258.367 164,259.5 C164,260.667 162.667,261 158,261 C153.333,261 152,260.667 152,259.5 C152,258.367 150.778,258 147,258 C143.092,258 142,257.652 142,256.406 C142,255.53 141.1,254.577 140,254.29 C138.9,254.002 138,253.144 138,252.383 C138,251.623 137.375,251 136.611,251 C135.816,251 134.942,249.505 134.566,247.5 C134.173,245.405 133.325,244 132.455,244 C131.452,244 131,242.884 131,240.406 C131,237.654 130.532,236.69 129,236.29 C127.312,235.848 127,234.926 127,230.383 C127,226.265 126.648,225 125.5,225 C124.321,225 124,223.611 124,218.5 C124,213.389 124.321,212 125.5,212 C126.325,212 127,211.156 127,210.125 C127,208.821 127.962,208.058 130.16,207.618 C131.898,207.27 133.56,207.226 133.853,207.52 C134.146,207.813 134.58,212.091 134.816,217.027 C135.138,223.775 135.586,226 136.622,226 C137.609,226 138,227.42 138,231 C138,234.6 138.389,236 139.389,236 C140.178,236 141.055,237.478 141.42,239.428 C141.94,242.196 142.634,242.98 145.032,243.507 C146.664,243.866 148,244.798 148,245.579 C148,246.361 148.848,247 149.883,247 C150.926,247 152,247.893 152.29,249 C152.723,250.655 153.647,250.998 157.656,250.986 C163.919,250.969 167,250.11 167,248.383 C167,247.469 168.187,247 170.5,247 C172.82,247 174,246.532 174,245.611 C174,244.816 175.495,243.942 177.5,243.566 C179.595,243.173 181,242.325 181,241.455 C181,240.655 181.9,240 183,240 C184.852,240 185,239.333 185,231 C185,222.667 184.852,222 183,222 C181.9,222 181,221.377 181,220.617 C181,219.101 178.032,218.035 173.75,218.014 C171.978,218.005 171,217.466 171,216.5 C171,215.417 169.889,215 167,215 L163,215 L163,204 L172,204 C179.333,204 181,204.278 181,205.5 C181,206.722 182.667,207 190,207 C197.333,207 199,206.722 199,205.5 C199,204.348 200.278,204 204.5,204 C208.516,204 210,203.627 210,202.617 C210,200.897 213.077,200.031 219.25,200.014 C222.799,200.003 224,199.621 224,198.5 Z M138,29.5 C138,28.278 139.667,28 147,28 C154.333,28 156,28.278 156,29.5 C156,30.333 156.889,31 158,31 C159.605,31 160,31.667 160,34.375 C160,37.269 159.602,37.83 157.21,38.308 C155.675,38.615 152.553,38.616 150.272,38.31 C143.623,37.418 131,38.908 131,40.585 C131,41.7 129.092,42 122,42 C114.791,42 113,42.29 113,43.455 C113,44.325 111.595,45.173 109.5,45.566 C107.495,45.942 106,46.816 106,47.611 C106,48.375 105.1,49 104,49 C102.381,49 102,49.667 102,52.5 C102,55.833 101.833,56 98.5,56 C96.187,56 95,55.531 95,54.617 C95,53.856 94.1,52.998 93,52.71 C91.468,52.31 91,51.346 91,48.594 C91,46.066 91.445,45 92.5,45 C93.325,45 94,44.325 94,43.5 C94,42.675 94.848,42 95.883,42 C96.926,42 98,41.107 98.29,40 C98.69,38.468 99.654,38 102.406,38 C104.934,38 106,37.555 106,36.5 C106,35.328 107.367,34.997 112.25,34.986 C119.865,34.97 123,34.21 123,32.383 C123,31.329 124.781,31 130.5,31 C136.5,31 138,30.7 138,29.5 Z M131,144.412 C131,145.28 129.459,146.085 127,146.5 C124.541,146.915 123,147.72 123,148.588 C123,149.535 121.848,150 119.5,150 L116,150 L116,155.875 C116,165.707 116.78,168 120.125,168 C122.089,168 123,167.495 123,166.406 C123,165.53 123.9,164.577 125,164.29 C126.1,164.002 127,163.144 127,162.383 C127,161.623 127.9,161 129,161 C130.1,161 131,160.345 131,159.545 C131,158.675 132.405,157.827 134.5,157.434 C136.505,157.058 138,156.184 138,155.389 C138,154.594 139.015,154 140.375,154 C144.88,154 149,152.746 149,151.375 C149,150.339 150.727,150 156,150 C161.556,150 163,149.69 163,148.5 C163,147.588 162.069,147 160.625,147 C156.12,147 152,145.746 152,144.375 C152,143.296 149.742,143 141.5,143 C133.124,143 131,143.286 131,144.412 Z M163.384,161 C162.998,163.413 162.2,165 161.372,165 C160.617,165 160,165.675 160,166.5 C160,167.333 159.111,168 158,168 C156.267,168 156,167.333 156,163 C156,159.222 155.633,158 154.5,158 C153.675,158 153,158.675 153,159.5 C153,160.433 152.056,161 150.5,161 C149.049,161 148,161.575 148,162.371 C148,163.261 146.246,163.975 143,164.406 C139.576,164.86 138,165.531 138,166.534 C138,167.34 137.1,168 136,168 C134.9,168 134,168.655 134,169.455 C134,170.325 132.595,171.173 130.5,171.566 C128.495,171.942 127,172.816 127,173.611 C127,174.375 126.325,175 125.5,175 C124.452,175 124,176.056 124,178.5 C124,181.833 124.167,182 127.5,182 C129.944,182 131,181.548 131,180.5 C131,179.363 132.233,179 136.094,179 C140.346,179 141.274,178.67 141.71,177 C142.191,175.162 143.074,175 152.617,175 C162.456,175 163,175.109 163,177.073 C163,178.509 163.538,179.044 164.75,178.811 C166.265,178.521 166.538,177.037 166.784,167.738 C167.024,158.666 166.831,157 165.546,157 C164.543,157 163.805,158.366 163.384,161 Z M250,198.594 C250,197.439 250.964,197 253.5,197 C255.813,197 257,197.469 257,198.383 C257,199.144 257.9,200.002 259,200.29 C260.1,200.577 261,201.53 261,202.406 C261,203.283 261.675,204 262.5,204 C263.325,204 264,204.675 264,205.5 C264,206.325 264.717,207 265.594,207 C266.47,207 267.423,207.9 267.71,209 C268,210.107 269.074,211 270.117,211 C271.152,211 272,211.639 272,212.421 C272,213.202 273.304,214.128 274.898,214.478 C276.584,214.848 278.009,215.927 278.305,217.057 C278.584,218.126 279.53,219 280.406,219 C281.496,219 282,219.912 282,221.883 C282,223.926 282.583,224.919 284,225.29 C285.197,225.603 286,226.654 286,227.906 C286,229.101 286.644,230 287.5,230 C289.932,230 289.214,231.729 286.5,232.411 C282.325,233.459 279.186,232.123 278.502,229.007 C278.013,226.783 277.172,226.067 274.443,225.555 C272.393,225.171 271,224.321 271,223.455 C271,222.655 270.325,222 269.5,222 C268.675,222 268,221.283 268,220.406 C268,219.53 267.1,218.577 266,218.29 C264.9,218.002 264,217.194 264,216.495 C264,215.795 262.425,214.927 260.5,214.566 C258.405,214.173 257,213.325 257,212.455 C257,211.655 256.1,211 255,211 C253.889,211 253,210.333 253,209.5 C253,208.675 252.283,208 251.406,208 C250.53,208 249.577,207.1 249.29,206 C249.002,204.9 248.144,204 247.383,204 C245.244,204 245.75,201.299 248,200.71 C249.1,200.423 250,199.47 250,198.594 Z"/>
</svg>

