<svg xmlns="http://www.w3.org/2000/svg" width="300" height="300" viewBox="0 0 300 300" version="1.1">
  <defs/>
  <path d="M159.75,69.739 C180.445,68.44 197,69.285 197,71.639 C197,72.528 198.215,73 200.5,73 C203.333,73 204,73.381 204,75 C204,76.333 204.667,77 206,77 C207.111,77 208,77.667 208,78.5 C208,79.325 208.614,80 209.364,80 C210.385,80 210.853,82.396 211.227,89.547 C211.919,102.781 211.108,113 209.366,113 C208.472,113 208,114.209 208,116.5 C208,119.333 207.619,120 206,120 C204.394,120 204,120.667 204,123.383 C204,125.995 203.514,126.894 201.87,127.324 C200.395,127.709 199.934,128.386 200.37,129.522 C200.717,130.425 201,131.802 201,132.582 C201,133.362 201.675,134 202.5,134 C203.333,134 204,134.889 204,136 C204,137.111 203.333,138 202.5,138 C201.675,138 201,138.675 201,139.5 C201,140.325 201.675,141 202.5,141 C203.667,141 204,142.333 204,147 C204,151.667 203.667,153 202.5,153 C201.675,153 201,153.675 201,154.5 C201,155.333 200.111,156 199,156 C197.9,156 197,155.352 197,154.559 C197,152.306 195.225,151.739 190.429,152.458 C187.55,152.89 186,153.626 186,154.561 C186,155.539 184.878,156 182.5,156 C180.197,156 179,156.47 179,157.375 C179,158.948 174.741,160 168.375,160 C165.33,160 164,160.418 164,161.375 C164,162.746 168.12,164 172.625,164 C173.931,164 175,164.4 175,164.889 C175,165.377 176.575,166.073 178.5,166.434 C180.71,166.849 182,167.661 182,168.639 C182,169.491 182.9,170.423 184,170.71 C185.1,170.998 186,171.856 186,172.617 C186,173.377 185.1,174 184,174 C182.889,174 182,174.667 182,175.5 C182,176.325 181.325,177 180.5,177 C179.675,177 179,176.325 179,175.5 C179,174.31 177.556,174 172,174 L165,174 L165,179.5 C165,183.722 165.348,185 166.5,185 C167.548,185 168,186.056 168,188.5 C168,191.333 168.381,192 170,192 C171.1,192 172,191.377 172,190.617 C172,189.331 174.84,188.045 177.75,188.014 C178.521,188.005 179,189.378 179,191.594 C179,194.346 178.532,195.31 177,195.71 C175.9,195.998 175,196.856 175,197.617 C175,198.377 174.283,199 173.406,199 C172.53,199 171.577,199.9 171.29,201 C170.831,202.756 169.926,203 163.883,203 C158.431,203 157,203.312 157,204.5 C157,205.325 156.283,206 155.406,206 C154.53,206 153.577,206.9 153.29,208 C153.002,209.1 152.144,210 151.383,210 C150.308,210 150,212.004 150,219 C150,225.996 150.308,228 151.383,228 C153.241,228 153.97,231.152 153.986,239.25 C153.997,244.577 154.316,246 155.5,246 C156.652,246 157,247.278 157,251.5 C157,256.333 157.242,257 159,257 C160.333,257 161,256.333 161,255 C161,253.381 161.667,253 164.5,253 C167.333,253 168,252.619 168,251 C168,249.667 168.667,249 170,249 C171.111,249 172,248.333 172,247.5 C172,246.675 172.675,246 173.5,246 C174.325,246 175,245.325 175,244.5 C175,243.675 175.717,243 176.594,243 C177.47,243 178.412,242.142 178.686,241.094 C179.003,239.88 180.421,238.956 182.592,238.549 C184.614,238.169 186,237.318 186,236.455 C186,235.655 186.675,235 187.5,235 C188.325,235 189,234.283 189,233.406 C189,232.53 189.9,231.577 191,231.29 C194.456,230.386 193.368,228 189.5,228 C186.667,228 186,227.619 186,226 C186,224.267 185.333,224 181,224 C177.222,224 176,223.633 176,222.5 C176,221.3 174.5,221 168.5,221 L161,221 L161,210 L164.5,210 C166.944,210 168,209.548 168,208.5 C168,207.452 169.056,207 171.5,207 C173.944,207 175,207.452 175,208.5 C175,209.652 176.278,210 180.5,210 C184.526,210 186,209.628 186,208.611 C186,207.816 187.495,206.942 189.5,206.566 C191.437,206.203 193,205.31 193,204.566 C193,203.822 194.563,202.929 196.5,202.566 C198.595,202.173 200,201.325 200,200.455 C200,199.655 200.9,199 202,199 C203.1,199 204,198.377 204,197.617 C204,196.856 204.9,195.998 206,195.71 C207.1,195.423 208,194.47 208,193.594 C208,192.348 209.092,192 213,192 C217.333,192 218,191.733 218,190 C218,188.667 218.667,188 220,188 C221.111,188 222,187.333 222,186.5 C222,185.462 223.043,185 225.383,185 C227.926,185 228.897,184.503 229.29,183 C229.762,181.196 230.654,181 238.406,181 C246.333,181 247,181.155 247,183 C247,184.111 246.333,185 245.5,185 C244.675,185 244,185.717 244,186.594 C244,187.47 243.1,188.423 242,188.71 C240.9,188.998 240,189.856 240,190.617 C240,191.377 239.1,192 238,192 C236.667,192 236,192.667 236,194 C236,195.111 235.333,196 234.5,196 C233.675,196 233,196.675 233,197.5 C233,198.333 232.111,199 231,199 C229.667,199 229,199.667 229,201 C229,202.333 228.333,203 227,203 C225.889,203 225,203.667 225,204.5 C225,205.325 224.325,206 223.5,206 C222.667,206 222,206.889 222,208 C222,209.333 221.333,210 220,210 C218.667,210 218,210.667 218,212 C218,213.111 217.333,214 216.5,214 C215.675,214 215,214.675 215,215.5 C215,216.333 214.111,217 213,217 C211.667,217 211,217.667 211,219 C211,220.111 210.333,221 209.5,221 C208.667,221 208,221.889 208,223 C208,224.111 208.667,225 209.5,225 C210.325,225 211,225.675 211,226.5 C211,227.333 211.889,228 213,228 C214.1,228 215,228.625 215,229.389 C215,230.184 216.495,231.058 218.5,231.434 C220.595,231.827 222,232.675 222,233.545 C222,234.541 223.104,235 225.5,235 C228.333,235 229,235.381 229,237 C229,238.333 229.667,239 231,239 C232.111,239 233,239.667 233,240.5 C233,241.466 233.978,242.005 235.75,242.014 C240.032,242.035 243,243.101 243,244.617 C243,245.377 243.9,246 245,246 C246.619,246 247,246.667 247,249.5 L247,253 L241.5,253 C237.278,253 236,252.652 236,251.5 C236,250.49 234.99,250 232.906,250 C230.654,250 229.671,249.456 229.29,248 C229,246.893 227.926,246 226.883,246 C225.848,246 225,245.377 225,244.617 C225,243.101 222.032,242.035 217.75,242.014 C216.077,242.005 215,241.456 215,240.611 C215,239.816 213.505,238.942 211.5,238.566 C209.405,238.173 208,237.325 208,236.455 C208,235.343 206.582,235 201.99,235 C197.218,235 195.628,235.412 194.268,237 C193.326,238.1 192.033,239 191.394,239 C190.756,239 189.998,239.9 189.71,241 C189.423,242.1 188.47,243 187.594,243 C186.717,243 186,243.675 186,244.5 C186,245.325 185.377,246 184.617,246 C183.856,246 182.998,246.9 182.71,248 C182.423,249.1 181.47,250 180.594,250 C179.717,250 179,250.675 179,251.5 C179,252.333 178.111,253 177,253 C175.667,253 175,253.667 175,255 C175,256.333 174.333,257 173,257 C171.9,257 171,257.639 171,258.421 C171,259.202 169.65,260.138 168,260.5 C166.35,260.862 165,261.798 165,262.579 C165,263.361 164.1,264 163,264 C161.9,264 161,264.623 161,265.383 C161,266.959 158,267.966 153.25,267.986 C150.2,267.999 150,267.785 150,264.5 C150,262.197 149.53,261 148.625,261 C146.824,261 146,256.568 146,246.875 C146,240.542 145.706,239 144.5,239 C143.348,239 143,237.722 143,233.5 C143,228.667 142.758,228 141,228 C139.667,228 139,227.333 139,226 C139,223.378 135.976,223.378 135.29,226 C135.002,227.1 134.144,228 133.383,228 C132.623,228 132,228.9 132,230 C132,231.111 131.333,232 130.5,232 C129.675,232 129,232.675 129,233.5 C129,234.333 128.111,235 127,235 C125.667,235 125,235.667 125,237 C125,238.333 124.333,239 123,239 C121.667,239 121,239.667 121,241 C121,242.111 120.333,243 119.5,243 C118.675,243 118,243.675 118,244.5 C118,245.333 117.111,246 116,246 C114.667,246 114,246.667 114,248 C114,249.333 113.333,250 112,250 C110.889,250 110,250.667 110,251.5 C110,252.325 109.325,253 108.5,253 C107.667,253 107,253.889 107,255 C107,256.333 106.333,257 105,257 C103.667,257 103,257.667 103,259 C103,260.1 102.361,261 101.579,261 C100.798,261 99.866,262.336 99.507,263.968 C98.98,266.366 98.196,267.06 95.428,267.58 C93.478,267.945 92,268.822 92,269.611 C92,270.375 91.325,271 90.5,271 C89.675,271 89,270.325 89,269.5 C89,268.667 88.111,268 87,268 C85.667,268 85,267.333 85,266 C85,264.889 85.667,264 86.5,264 C87.325,264 88,263.283 88,262.406 C88,261.53 88.9,260.577 90,260.29 C91.1,260.002 92,259.144 92,258.383 C92,257.623 92.9,257 94,257 C95.333,257 96,256.333 96,255 C96,253.667 96.667,253 98,253 C99.111,253 100,252.333 100,251.5 C100,250.675 100.675,250 101.5,250 C102.333,250 103,249.111 103,248 C103,246.667 103.667,246 105,246 C106.333,246 107,245.333 107,244 C107,242.889 107.667,242 108.5,242 C109.325,242 110,241.325 110,240.5 C110,239.667 110.889,239 112,239 C113.333,239 114,238.333 114,237 C114,235.667 114.667,235 116,235 C117.111,235 118,234.333 118,233.5 C118,232.675 118.675,232 119.5,232 C120.333,232 121,231.111 121,230 C121,228.667 121.667,228 123,228 C124.333,228 125,227.333 125,226 C125,224.889 125.667,224 126.5,224 C127.325,224 128,223.325 128,222.5 C128,221.667 128.889,221 130,221 C131.619,221 132,220.333 132,217.5 C132,214.964 132.439,214 133.594,214 C134.47,214 135.423,213.1 135.71,212 C136.078,210.593 137.074,210 139.071,210 C141.523,210 141.999,209.524 142.566,206.5 C142.966,204.369 143.803,203 144.705,203 C145.52,203 146.423,202.1 146.71,201 C146.998,199.9 147.856,199 148.617,199 C149.377,199 150,198.325 150,197.5 C150,196.675 150.675,196 151.5,196 C152.333,196 153,195.111 153,194 C153,192.667 153.667,192 155,192 C156.81,192 157,191.333 157,185 L157,178 L153.5,178 C151.056,178 150,178.452 150,179.5 C150,180.528 148.969,181 146.722,181 C144.682,181 142.798,181.755 141.732,183 C140.548,184.383 138.782,185 136.01,185 C133.112,185 132,185.416 132,186.5 C132,187.652 130.722,188 126.5,188 C122.278,188 121,187.652 121,186.5 C121,185.675 120.325,185 119.5,185 C118.675,185 118,184.325 118,183.5 C118,182.675 118.675,182 119.5,182 C120.325,182 121,181.156 121,180.125 C121,178.226 124.383,177 129.625,177 C131.069,177 132,176.412 132,175.5 C132,174.452 133.056,174 135.5,174 C137.803,174 139,173.53 139,172.625 C139,171.254 143.12,170 147.625,170 C149.069,170 150,169.412 150,168.5 C150,167.452 151.056,167 153.5,167 L157,167 L157,160 C157,154.444 156.69,153 155.5,153 C154.667,153 154,152.111 154,151 C154,149.394 153.333,149 150.617,149 C148.074,149 147.103,149.497 146.71,151 C146.423,152.1 145.519,153 144.702,153 C143.885,153 142.907,154.233 142.529,155.74 C141.662,159.197 140.433,159.966 135.75,159.985 L132,160 L132,154.5 C132,150.134 132.329,149 133.594,149 C134.47,149 135.423,148.1 135.71,147 C136,145.893 137.074,145 138.117,145 C139.152,145 140,144.383 140,143.629 C140,142.739 141.754,142.025 145,141.594 C148.424,141.14 150,140.469 150,139.466 C150,138.66 150.9,138 152,138 C153.852,138 154,137.333 154,129 C154,121.667 154.278,120 155.5,120 C156.548,120 157,118.944 157,116.5 C157,114.056 156.548,113 155.5,113 C154.675,113 154,113.635 154,114.412 C154,115.28 152.459,116.085 150,116.5 C147.541,116.915 146,117.72 146,118.588 C146,119.535 144.848,120 142.5,120 L139,120 L139,131 L135.5,131 C132.667,131 132,130.619 132,129 C132,127.19 131.333,127 125,127 L118,127 L118,121.5 C118,116.667 118.242,116 120,116 C121.111,116 122,115.333 122,114.5 C122,113.675 122.731,113 123.625,113 C124.922,113 125.12,112.35 124.606,109.779 C124.251,108.007 123.295,106.185 122.481,105.729 C121.284,105.06 121,102.243 121,91.062 L121,77.223 L124.403,76.584 C126.275,76.233 128.063,75.279 128.375,74.465 C128.717,73.575 130.051,73.061 131.722,73.175 C133.25,73.28 138.887,73.283 144.25,73.183 C152.017,73.037 154,72.705 154,71.55 C154,70.493 155.559,70.002 159.75,69.739 Z M82,60.5 C82,59.513 82.987,59 84.883,59 C87.028,59 87.921,59.576 88.37,61.25 C88.701,62.487 88.979,77.787 88.986,95.25 C88.998,121.668 89.233,127 90.389,127 C91.178,127 92.055,128.478 92.42,130.428 C92.936,133.175 93.64,133.982 95.967,134.493 C98.129,134.968 99.032,135.871 99.507,138.033 C100.018,140.36 100.825,141.064 103.572,141.58 C106.675,142.162 107,142.544 107,145.611 L107,149 L101.5,149 C96.667,149 96,148.758 96,147 C96,145.621 95.333,145 93.852,145 C91.776,145 91.725,145.278 92.346,153.25 C92.699,157.787 92.991,164.313 92.994,167.75 C92.999,172.636 93.327,174 94.5,174 C95.791,174 96,177.278 96,197.5 C96,216.842 96.245,221 97.383,221 C98.144,221 99.007,222.238 99.3,223.75 C100.046,227.59 99.016,232 97.375,232 C96.619,232 96,232.675 96,233.5 C96,234.548 94.944,235 92.5,235 C90.109,235 89,234.541 89,233.55 C89,232.752 88.213,231.658 87.25,231.118 C85.77,230.289 85.5,228.634 85.5,220.402 C85.5,213.502 85.864,210.545 86.75,210.25 C88.448,209.684 88.452,199.317 86.755,198.752 C85.824,198.441 85.417,192.605 85.146,175.668 C84.849,157.145 84.529,153 83.391,153 C82.416,153 82,151.698 82,148.64 C82,146.241 81.714,142.191 81.364,139.64 C80.793,135.47 80.463,134.999 78.114,134.986 C73.959,134.965 71,133.882 71,132.383 C71,131.469 69.813,131 67.5,131 C64.167,131 64,131.167 64,134.5 C64,136.944 64.452,138 65.5,138 C66.333,138 67,138.889 67,140 C67,141.111 66.333,142 65.5,142 C64.675,142 64,142.675 64,143.5 C64,144.583 62.889,145 60,145 C57.111,145 56,144.583 56,143.5 C56,142.675 55.325,142 54.5,142 C53.417,142 53,140.889 53,138 C53,135.111 53.417,134 54.5,134 C55.695,134 56.002,132.524 56.009,126.75 C56.022,115.881 57.042,109 58.639,109 C59.388,109 60,108.1 60,107 C60,105.889 60.667,105 61.5,105 C62.325,105 63,104.325 63,103.5 C63,102.667 63.889,102 65,102 C66.333,102 67,102.667 67,104 C67,105.1 67.623,106 68.383,106 C69.669,106 70.955,108.84 70.986,111.75 C70.994,112.438 70.1,113 69,113 C67.889,113 67,113.667 67,114.5 C67,115.325 66.325,116 65.5,116 C64.667,116 64,116.889 64,118 C64,119.733 64.667,120 69,120 C72.908,120 74,120.348 74,121.594 C74,122.47 74.9,123.423 76,123.71 C77.1,123.998 78,124.856 78,125.617 C78,127.627 80.695,127.315 81.165,125.25 C81.384,124.287 81.394,117.088 81.186,109.25 C80.884,97.862 80.526,95 79.404,95 C78.255,95 78,91.999 78,78.5 C78,62.667 78.081,62 80,62 C81.111,62 82,61.333 82,60.5 Z M132,31.389 C132,30.255 135.308,30 150,30 C164.692,30 168,30.255 168,31.389 C168,32.184 169.495,33.058 171.5,33.434 C173.595,33.827 175,34.675 175,35.545 C175,36.541 176.104,37 178.5,37 C180.781,37 182,36.527 182,35.642 C182,34.723 183.891,34.087 187.857,33.673 C195.67,32.856 204,33.871 204,35.639 C204,36.388 204.619,37 205.375,37 C207.015,37 208.235,42.216 207.386,45.598 C207.055,46.919 206.157,48 205.392,48 C204.468,48 204,49.177 204,51.5 C204,54.833 203.833,55 200.5,55 L197,55 L197,50.059 C197,47.341 196.662,44.909 196.249,44.654 C194.589,43.628 186,45.284 186,46.63 C186,47.707 183.647,48 175,48 C166.301,48 164,48.289 164,49.383 C164,51.103 160.923,51.969 154.75,51.986 C151.201,51.997 150,52.379 150,53.5 C150,54.652 148.722,55 144.5,55 C139.667,55 139,55.242 139,57 C139,58.619 138.333,59 135.5,59 C133.056,59 132,59.452 132,60.5 C132,61.325 131.283,62 130.406,62 C129.53,62 128.577,62.9 128.29,64 C127.703,66.245 125,66.758 125,64.625 C125,63.254 120.88,62 116.375,62 C114.327,62 114,61.518 114,58.5 C114,55.167 114.167,55 117.5,55 C119.803,55 121,54.53 121,53.625 C121,52.254 125.12,51 129.625,51 C131.069,51 132,50.412 132,49.5 C132,48.3 133.5,48 139.5,48 C145.219,48 147,47.671 147,46.617 C147,45.028 150.006,44.033 154.867,44.014 C157.868,44.001 158.168,43.756 157.63,41.75 C157.299,40.513 157.021,39.163 157.014,38.75 C156.991,37.505 143.21,37.871 142.791,39.127 C142.584,39.747 140.072,40.479 137.208,40.754 C133.96,41.066 132,41.727 132,42.511 C132,43.201 131.1,44.002 130,44.29 C128.9,44.577 128,45.53 128,46.406 C128,48.702 125.331,48.372 124.71,46 C124.423,44.9 123.47,44 122.594,44 C120.333,44 120.593,40.329 123,38.268 C124.1,37.326 125,36.001 125,35.323 C125,34.645 126.575,33.795 128.5,33.434 C130.505,33.058 132,32.184 132,31.389 Z M183,78.389 C183,79.178 181.522,80.055 179.572,80.42 C176.838,80.933 176.018,81.643 175.515,83.93 C175.151,85.587 174.066,87.011 172.943,87.305 C171.874,87.584 171,88.53 171,89.406 C171,90.283 170.325,91 169.5,91 C168.667,91 168,91.889 168,93 C168,94.333 167.333,95 166,95 C164.667,95 164,95.667 164,97 C164,98.111 163.333,99 162.5,99 C161.675,99 161,99.675 161,100.5 C161,101.548 162.056,102 164.5,102 C166.803,102 168,101.53 168,100.625 C168,99.096 172.228,98 178.125,98 C180.903,98 182,97.575 182,96.5 C182,95.272 183.722,95 191.5,95 L201,95 L201,100.094 C201,104.346 200.67,105.274 199,105.71 C197.9,105.998 197,106.806 197,107.505 C197,108.205 195.468,109.065 193.597,109.416 C191.725,109.767 189.939,110.717 189.628,111.527 C189.21,112.616 187.361,113 182.531,113 C177.392,113 176,113.32 176,114.5 C176,115.583 174.889,116 172,116 C168.667,116 168,116.333 168,118 C168,119.1 167.383,120 166.629,120 C164.977,120 163.623,129.865 164.602,134.762 C165.144,137.471 165.699,138 168,138 C170.28,138 170.857,137.466 171.375,134.875 C171.719,133.156 172,130.681 172,129.375 C172,127.026 172.114,127 182.5,127 C192.333,127 193,126.873 193,125 C193,123.9 193.655,123 194.455,123 C195.325,123 196.173,121.595 196.566,119.5 C196.942,117.495 197.816,116 198.611,116 C199.456,116 200.005,114.923 200.014,113.25 C200.035,108.968 201.101,106 202.617,106 C203.691,106 204,104.013 204,97.117 C204,89.074 203.811,88.184 202,87.71 C200.9,87.423 200,86.47 200,85.594 C200,84.504 199.088,84 197.117,84 C195.074,84 194.081,83.417 193.71,82 C193.397,80.803 192.346,80 191.094,80 C189.899,80 189,79.356 189,78.5 Q189,77 186,77 C184.107,77 183,77.512 183,78.389 Z M161,78.5 C161,79.605 159.847,80 156.625,80 C150.259,80 146,81.052 146,82.625 C146,83.608 144.576,84 141,84 C137.674,84 135.995,84.418 135.986,85.25 C135.979,85.938 135.701,87.513 135.37,88.75 C134.783,90.939 134.973,91 142.383,91 C148.216,91 150,90.675 150,89.611 C150,88.816 151.495,87.942 153.5,87.566 C155.595,87.173 157,86.325 157,85.455 C157,84.424 158.166,84 161,84 C163.889,84 165,83.583 165,82.5 C165,81.675 165.675,81 166.5,81 C167.333,81 168,80.111 168,79 C168,77.381 167.333,77 164.5,77 C162.056,77 161,77.452 161,78.5 Z M215,201.5 C215,202.59 213.877,203 210.893,203 C207.653,203 206.908,203.317 207.362,204.5 C207.753,205.52 207.308,206 205.969,206 C204.667,206 204,206.677 204,208 C204,209.667 203.333,210 200,210 C197.248,210 196,210.434 196,211.393 C196,212.159 195.325,213.045 194.5,213.362 C192.281,214.213 192.664,217 195,217 C196.1,217 197,217.623 197,218.383 C197,219.669 199.84,220.955 202.75,220.986 C203.438,220.994 204,220.1 204,219 C204,217.9 204.655,217 205.455,217 C206.325,217 207.173,215.595 207.566,213.5 C208.134,210.475 208.608,210 211.066,210 C213.524,210 213.998,209.525 214.566,206.5 C214.942,204.495 215.816,203 216.611,203 C217.375,203 218,202.325 218,201.5 C218,200.675 217.325,200 216.5,200 C215.675,200 215,200.675 215,201.5 Z M132,104 L132,109 L137.5,109 C141.722,109 143,108.652 143,107.5 C143,106.675 143.675,106 144.5,106 C145.333,106 146,105.111 146,104 C146,102.267 145.333,102 141,102 C137.222,102 136,101.633 136,100.5 C136,99.667 135.111,99 134,99 C132.267,99 132,99.667 132,104 Z M186,103.383 C186,104.899 183.032,105.965 178.75,105.986 C176.978,105.995 176,106.534 176,107.5 C176,108.633 177.222,109 181,109 C184.59,109 186,108.61 186,107.617 C186,106.856 186.9,105.998 188,105.71 C189.1,105.423 190,104.47 190,103.594 C190,102.667 189.163,102 188,102 C186.9,102 186,102.623 186,103.383 Z M164.39,146.427 C163.422,148.949 164.447,152.47 166.25,152.813 C167.461,153.044 168,152.508 168,151.073 C168,149.897 168.649,149 169.5,149 C170.333,149 171,148.111 171,147 C171,145.44 170.333,145 167.969,145 C166.265,145 164.697,145.625 164.39,146.427 Z M190,139.5 C190,140.325 190.675,141 191.5,141 C192.325,141 193,140.325 193,139.5 C193,138.675 192.325,138 191.5,138 C190.675,138 190,138.675 190,139.5 Z"/>
</svg>

