<svg xmlns="http://www.w3.org/2000/svg" width="300" height="300" viewBox="0 0 300 300" version="1.1">
  <defs/>
  <path d="M156,80 C156,78.381 156.667,78 159.5,78 C161.944,78 163,78.452 163,79.5 C163,80.333 163.889,81 165,81 C166.333,81 167,81.667 167,83 C167,84.163 166.333,85 165.406,85 C164.53,85 163.577,85.9 163.29,87 C163.002,88.1 162.144,89 161.383,89 C160.246,89 160,93.084 160,112 L160,135 L165,135 C168.778,135 170,134.633 170,133.5 C170,132.28 171.651,132 178.861,132 L187.721,132 L188.352,126.75 C188.699,123.862 188.987,119.813 188.991,117.75 C188.997,115.087 189.435,114 190.5,114 C191.548,114 192,112.944 192,110.5 C192,108.056 191.548,107 190.5,107 C189.667,107 189,106.111 189,105 C189,103.889 189.667,103 190.5,103 C191.7,103 192,101.5 192,95.5 C192,89.604 192.311,88 193.455,88 C194.325,88 195.173,86.595 195.566,84.5 C195.942,82.495 196.816,81 197.611,81 C198.375,81 199,80.325 199,79.5 C199,78.667 199.889,78 201,78 C202.333,78 203,78.667 203,80 C203,81.111 203.667,82 204.5,82 C205.69,82 206,83.444 206,89 C206,94.556 205.69,96 204.5,96 C203.236,96 203,98.278 203,110.5 C203,122.722 203.236,125 204.5,125 C205.333,125 206,125.889 206,127 C206,128.111 205.333,129 204.5,129 C203.262,129 203,130.833 203,139.5 L203,150 L192,150 L192,146.5 C192,143.667 191.619,143 190,143 C188.889,143 188,142.333 188,141.5 C188,140.675 187.325,140 186.5,140 C185.675,140 185,140.45 185,141 C185,141.55 183.425,142 181.5,142 C179.575,142 178,141.55 178,141 C178,140.45 177.1,140 176,140 C174.889,140 174,140.667 174,141.5 C174,142.652 172.722,143 168.5,143 C163.667,143 163,143.242 163,145 C163,146.111 162.333,147 161.5,147 C160.296,147 159.999,148.53 159.994,154.75 C159.983,168.553 158.845,179 157.352,179 C156.608,179 156,179.675 156,180.5 C156,181.325 156.675,182 157.5,182 C158.333,182 159,182.889 159,184 C159,185.111 158.333,186 157.5,186 C156.348,186 156,187.278 156,191.5 C156,195.722 155.652,197 154.5,197 C153.675,197 153,197.675 153,198.5 C153,199.711 154.589,200.003 161.25,200.014 C170.804,200.029 174,200.682 174,202.617 C174,203.706 176.209,204 184.383,204 C193.926,204 194.809,203.838 195.29,202 C195.692,200.462 196.654,200 199.45,200 L203.088,200 L202.794,207.25 C202.502,214.458 202.483,214.502 199.549,214.836 C197.557,215.063 196.163,214.575 195.258,213.336 C194.031,211.656 191.833,211.474 169.458,211.2 C145.372,210.905 145,210.932 145,212.95 C145,214.106 144.345,215 143.5,215 C142.675,215 142,215.635 142,216.412 C142,217.28 140.459,218.085 138,218.5 C135.541,218.915 134,219.72 134,220.588 C134,221.713 131.892,222 123.617,222 C114.074,222 113.191,221.838 112.71,220 C112.329,218.544 111.346,218 109.094,218 C107.01,218 106,217.51 106,216.5 C106,215.675 106.675,215 107.5,215 C108.333,215 109,214.111 109,213 C109,211.889 108.333,211 107.5,211 C105.274,211 105.682,208.316 108,207.71 C109.1,207.423 110,206.47 110,205.594 C110,204.348 111.092,204 115,204 C118.576,204 120,203.608 120,202.625 C120,200.754 124.489,200 135.625,200 L145,200 L145,195.05 C145,191.374 145.451,189.848 146.75,189.122 C148.277,188.269 148.541,186.159 148.82,172.572 C149.081,159.887 149.406,157 150.57,157 C151.637,157 152,155.602 152,151.5 L152,146 L147.75,146.006 C137.141,146.021 127,147.312 127,148.648 C127,149.684 124.895,150 118,150 C110.791,150 109,150.29 109,151.455 C109,152.325 107.595,153.173 105.5,153.566 C103.495,153.942 102,154.816 102,155.611 C102,156.375 101.325,157 100.5,157 C99.675,157 99,156.325 99,155.5 C99,154.667 98.111,154 97,154 C95.061,154 95,153.333 95,132 C95,113.111 95.212,110 96.5,110 C97.739,110 98,108.156 98,99.406 C98,89.654 98.159,88.771 100,88.29 C101.417,87.919 102,86.926 102,84.883 C102,82.055 102.105,82 107.5,82 L113,82 L113,85.5 C113,88.333 112.619,89 111,89 C109.667,89 109,89.667 109,91 C109,92.111 108.333,93 107.5,93 C106.207,93 106,96.389 106,117.5 C106,138.611 106.207,142 107.5,142 C108.325,142 109,141.325 109,140.5 C109,139.236 111.278,139 123.5,139 C135.722,139 138,138.764 138,137.5 C138,136.425 139.097,136 141.875,136 C144.006,136 147.156,135.719 148.875,135.375 L152,134.75 L152,116.875 C152,101.653 151.777,99 150.5,99 C149.321,99 149,97.611 149,92.5 C149,87.389 149.321,86 150.5,86 C151.333,86 152,85.111 152,84 C152,82.667 152.667,82 154,82 C155.333,82 156,81.333 156,80 Z M131,209.5 C131,210.538 129.957,211 127.617,211 C125.074,211 124.103,211.497 123.71,213 C123.329,214.456 122.346,215 120.094,215 C116.663,215 115.733,217.435 118.851,218.251 C122.35,219.166 131,217.829 131,216.373 C131,215.618 131.717,215 132.594,215 C133.47,215 134.423,214.1 134.71,213 C134.998,211.9 135.856,211 136.617,211 C137.377,211 138,210.325 138,209.5 C138,208.452 136.944,208 134.5,208 C132.056,208 131,208.452 131,209.5 Z"/>
</svg>

