<svg xmlns="http://www.w3.org/2000/svg" width="300" height="300" viewBox="0 0 300 300" version="1.1">
  <defs/>
  <path d="M91,35.5 L91,23 L95,23 C97.889,23 99,23.417 99,24.5 C99,25.325 99.675,26 100.5,26 C101.783,26 102,28.889 102,46 L102,66 L109,66 C114.423,66 116,65.676 116,64.561 C116,62.825 122.281,61.717 129.5,62.18 C134.487,62.499 134.5,62.509 134.5,66 L134.5,69.5 L129.25,69.802 C125.473,70.02 124,70.511 124,71.552 C124,72.709 122.189,73 115,73 L106,73 L105.989,78.75 C105.973,86.972 104.979,92 103.369,92 C102.393,92 102,93.435 102,97 L102,102 L105.5,102 C107.813,102 109,101.531 109,100.617 C109,98.897 112.077,98.031 118.25,98.014 C121.799,98.003 123,97.621 123,96.5 C123,95.359 124.256,94.997 128.25,94.986 C134.902,94.969 138,94.142 138,92.383 C138,91.373 139.484,91 143.5,91 C147.722,91 149,90.652 149,89.5 C149,88.534 149.978,87.995 151.75,87.986 C156.032,87.965 159,86.899 159,85.383 C159,84.623 158.325,84 157.5,84 C156.348,84 156,82.722 156,78.5 C156,74.484 155.627,73 154.617,73 C153.041,73 152.034,70 152.014,65.25 C152.004,63.034 151.523,62 150.5,62 C149.425,62 149,60.903 149,58.125 C149,52.228 147.904,48 146.375,48 C145.339,48 145,46.273 145,41 C145,35.444 144.69,34 143.5,34 C142.667,34 142,33.111 142,32 C142,30.889 142.667,30 143.5,30 C144.548,30 145,28.944 145,26.5 L145,23 L156,23 L156,26.5 C156,28.944 155.548,30 154.5,30 C153.675,30 153,30.675 153,31.5 C153,32.325 153.675,33 154.5,33 C155.721,33 156,34.654 156,41.883 C156,49.926 156.189,50.816 158,51.29 C159.763,51.751 160,52.654 160,58.906 C160,64.545 160.308,66 161.5,66 C162.548,66 163,67.056 163,69.5 C163,71.932 163.454,73 164.488,73 C165.451,73 166.202,74.412 166.616,77 C167.002,79.413 167.8,81 168.628,81 C169.383,81 170,81.675 170,82.5 C170,84.964 176.634,84.509 177.29,82 C177.734,80.301 178.654,80 183.406,80 C187.546,80 189,79.634 189,78.594 C189,77.502 191.242,77.111 199.038,76.844 C205.016,76.639 209.364,76.045 209.788,75.376 C210.179,74.757 211.963,73.934 213.75,73.546 C216.334,72.985 217,73.162 217,74.409 C217,75.464 218.306,76.185 221,76.616 C225.081,77.269 225.429,77.799 224.37,81.75 C223.78,83.951 223.454,84 209.383,84 C197.919,84 195,84.276 195,85.361 C195,86.751 188.378,87.974 180.75,87.991 C178.087,87.997 177,88.435 177,89.5 C177,90.325 176.325,91 175.5,91 C174.417,91 174,92.111 174,95 C174,97.739 174.436,99 175.383,99 C176.899,99 177.965,101.968 177.986,106.25 C177.995,108.022 178.534,109 179.5,109 C180.333,109 181,109.889 181,111 C181,112.333 181.667,113 183,113 C184.619,113 185,113.667 185,116.5 C185,118.944 185.452,120 186.5,120 C187.548,120 188,121.056 188,123.5 C188,126.333 188.381,127 190,127 C191.667,127 192,127.667 192,131 C192,133.834 192.424,135 193.455,135 C194.325,135 195.173,136.405 195.566,138.5 C195.942,140.505 196.816,142 197.611,142 C198.532,142 199,143.18 199,145.5 C199,149.113 199.607,149.48 203.75,148.37 C205.424,147.921 206,147.028 206,144.883 C206,142.667 206.462,142 208,142 C209.333,142 210,141.333 210,140 C210,138.9 210.625,138 211.389,138 C212.184,138 213.058,136.505 213.434,134.5 C213.827,132.405 214.675,131 215.545,131 C216.345,131 217,130.1 217,129 C217,127.667 217.667,127 219,127 C220.333,127 221,126.333 221,125 C221,123.889 221.667,123 222.5,123 C223.325,123 224,122.325 224,121.5 C224,120.667 224.889,120 226,120 C227.333,120 228,119.333 228,118 C228,116.889 228.667,116 229.5,116 C230.325,116 231,115.325 231,114.5 C231,113.417 232.111,113 235,113 L239,113 L239,124 L235.5,124 C233.056,124 232,124.452 232,125.5 C232,126.333 231.111,127 230,127 C228.667,127 228,127.667 228,129 C228,130.1 227.345,131 226.545,131 C225.675,131 224.827,132.405 224.434,134.5 C224.058,136.505 223.184,138 222.389,138 C221.625,138 221,138.9 221,140 C221,141.333 220.333,142 219,142 C217.381,142 217,142.667 217,145.5 C217,148.333 216.619,149 215,149 C213.889,149 213,149.667 213,150.5 C213,151.325 212.325,152 211.5,152 C210.667,152 210,152.889 210,154 C210,155.111 209.333,156 208.5,156 C207.417,156 207,157.111 207,160 C207,162.889 207.417,164 208.5,164 C209.325,164 210,164.675 210,165.5 C210,166.325 210.655,167 211.455,167 C212.325,167 213.173,168.405 213.566,170.5 C213.927,172.425 214.797,174 215.5,174 C216.203,174 217.073,175.575 217.434,177.5 C217.827,179.595 218.675,181 219.545,181 C220.345,181 221,181.9 221,183 C221,184.1 221.625,185 222.389,185 C223.184,185 224.058,186.495 224.434,188.5 C224.827,190.595 225.675,192 226.545,192 C227.541,192 228,193.104 228,195.5 C228,197.932 228.454,199 229.488,199 C230.451,199 231.202,200.412 231.616,203 C232.002,205.413 232.8,207 233.628,207 C234.529,207 235,208.2 235,210.5 C235,213.333 235.381,214 237,214 C238.619,214 239,214.667 239,217.5 C239,219.896 239.459,221 240.455,221 C241.325,221 242.173,222.405 242.566,224.5 C242.942,226.505 243.816,228 244.611,228 C245.532,228 246,229.18 246,231.5 C246,234.333 246.381,235 248,235 C249.667,235 250,235.667 250,239 C250,241.889 250.417,243 251.5,243 C252.325,243 253,243.675 253,244.5 C253,245.325 253.643,246 254.428,246 C256.79,246 257.179,237.938 256.829,196.213 C256.553,163.245 256.267,156.782 255.052,156.031 C254.106,155.447 253.458,152.856 253.185,148.568 C252.906,144.178 252.35,142 251.509,142 C250.167,142 248.634,136.402 249.563,134.897 C250.815,132.873 252.819,134.221 253.434,137.5 C253.827,139.595 254.675,141 255.545,141 C256.576,141 257,142.166 257,145 C257,147.722 257.438,149 258.371,149 C259.379,149 259.929,151.385 260.446,158 C260.978,164.793 261.5,167 262.575,167 C263.788,167 264,173.906 264,213.383 C264,258.926 263.964,259.776 262,260.29 C260.9,260.577 260,261.53 260,262.406 C260,263.652 258.908,264 255,264 L250,264 L250,260.406 C250,257.654 249.532,256.69 248,256.29 C246.497,255.897 246,254.926 246,252.383 C246,250.169 245.522,249 244.617,249 C243.101,249 242.035,246.032 242.014,241.75 C242.005,239.978 241.466,239 240.5,239 C239.462,239 239,237.957 239,235.617 C239,233.074 238.503,232.103 237,231.71 C235.544,231.329 235,230.346 235,228.094 C235,226.01 234.51,225 233.5,225 C232.644,225 232,224.101 232,222.906 C232,221.654 231.197,220.603 230,220.29 C228.497,219.897 228,218.926 228,216.383 C228,214.127 227.527,213 226.579,213 C225.798,213 224.862,211.65 224.5,210 C224.138,208.35 223.259,207 222.548,207 C221.813,207 220.98,205.274 220.616,203 C220.202,200.412 219.451,199 218.488,199 C217.454,199 217,197.932 217,195.5 C217,193.18 216.532,192 215.611,192 C214.816,192 213.942,190.505 213.566,188.5 C213.173,186.405 212.325,185 211.455,185 C210.655,185 210,184.1 210,183 C210,181.667 209.333,181 208,181 C206.381,181 206,180.333 206,177.5 C206,174.667 205.619,174 204,174 C202.889,174 202,173.333 202,172.5 C202,171.675 201.55,171 201,171 C200.45,171 200,171.675 200,172.5 C200,173.325 199.15,174 198.111,174 C196.745,174 196.041,174.967 195.566,177.5 C195.173,179.595 194.325,181 193.455,181 C192.655,181 192,181.9 192,183 C192,184.1 191.375,185 190.611,185 C189.816,185 188.942,186.495 188.566,188.5 C188.173,190.595 187.325,192 186.455,192 C185.655,192 185,192.9 185,194 C185,195.1 184.345,196 183.545,196 C182.675,196 181.827,197.405 181.434,199.5 C180.959,202.033 180.255,203 178.889,203 C177.85,203 177,203.623 177,204.383 C177,206.103 173.923,206.969 167.75,206.986 C164.201,206.997 163,207.379 163,208.5 C163,209.738 161.167,210 152.5,210 C144.029,210 142,210.278 142,211.44 C142,212.381 140.703,212.987 138.25,213.19 C134.704,213.483 134.483,213.704 134.19,217.25 C133.987,219.703 133.381,221 132.44,221 C131.461,221 131,222.121 131,224.5 C131,226.862 131.463,228 132.425,228 C133.5,228 134.022,230.207 134.554,237 C135.071,243.615 135.621,246 136.629,246 C137.717,246 138,248.578 138,258.5 C138,268.944 138.247,271 139.5,271 C140.538,271 141,272.044 141,274.392 C141,277.175 140.552,277.896 138.5,278.411 C137.125,278.756 134.875,278.756 133.5,278.411 C131.009,277.786 131,277.739 131,265.941 C131,255.703 130.763,253.967 129.25,253.12 C127.844,252.333 127.431,250.454 127.147,243.57 C126.885,237.189 126.448,235 125.436,235 C124.417,235 124.006,232.814 123.789,226.25 L123.5,217.5 L115.019,217.206 C107.883,216.958 106.335,217.189 105.26,218.659 C104.339,219.919 102.173,220.522 97.491,220.82 C92.83,221.116 91,221.623 91,222.616 C91,223.406 89.981,224 88.625,224 C84.12,224 80,225.254 80,226.625 C80,227.604 78.593,228 75.111,228 C70.316,228 70.21,228.067 69.566,231.5 L68.909,235 L52,235 L52,224 L55.5,224 C57.944,224 59,223.548 59,222.5 C59,221.588 59.931,221 61.375,221 C65.88,221 70,219.746 70,218.375 C70,217.339 71.727,217 77,217 L84,217 L84,204.5 C84,194.1 83.75,192 82.512,192 C81.549,192 80.798,190.588 80.384,188 C79.998,185.587 79.2,184 78.372,184 C77.392,184 77,182.571 77,179 C77,174.667 76.733,174 75,174 C73.381,174 73,173.333 73,170.5 C73,168.187 72.531,167 71.617,167 C69.968,167 68.95,162.597 69.708,158.75 C70.171,156.4 70.741,156 73.625,156 C75.789,156 77,155.516 77,154.652 C77,153.31 90.166,152 103.656,152 L109,152 L109,142 L105.5,142 C103.2,142 102,142.471 102,143.373 C102,144.293 100.317,144.907 96.893,145.236 C94.085,145.506 91.412,146.334 90.953,147.076 C90.373,148.015 87.063,148.547 80.06,148.829 C70.355,149.218 70,149.158 70,147.116 C70,145.902 70.639,145 71.5,145 C72.325,145 73,144.381 73,143.625 C73,142.254 77.12,141 81.625,141 C83.069,141 84,140.412 84,139.5 C84,138.3 85.5,138 91.5,138 C97.396,138 99,137.689 99,136.545 C99,135.675 100.405,134.827 102.5,134.434 C105.033,133.959 106,133.255 106,131.889 C106,130.85 106.675,130 107.5,130 C108.325,130 109,129.325 109,128.5 C109,127.348 110.278,127 114.5,127 C118.516,127 120,127.373 120,128.383 C120,130.103 123.077,130.969 129.25,130.986 C132.799,130.997 134,131.379 134,132.5 C134,133.333 134.889,134 136,134 C137.667,134 138,134.667 138,138 C138,140.889 137.583,142 136.5,142 C135.675,142 135,142.648 135,143.441 C135,145.53 133.62,146.074 130.103,145.371 C127.368,144.824 127,144.35 127,141.375 C127,138.667 126.605,138 125,138 C123.889,138 123,138.667 123,139.5 C123,140.325 122.325,141 121.5,141 C120.417,141 120,142.111 120,145 L120,149 L132.5,149 C142.944,149 145,149.247 145,150.5 C145,151.523 146.034,152.004 148.25,152.014 C153,152.034 156,153.041 156,154.617 C156,155.377 156.9,156 158,156 C159.333,156 160,156.667 160,158 C160,159.111 160.667,160 161.5,160 C162.716,160 163,161.611 163,168.5 C163,175.389 162.716,177 161.5,177 C160.333,177 160,178.333 160,183 C160,187.667 160.333,189 161.5,189 C162.325,189 163,189.675 163,190.5 C163,191.325 162.325,192 161.5,192 C160.667,192 160,192.889 160,194 C160,195.758 159.333,196 154.5,196 C150.278,196 149,196.348 149,197.5 C149,198.722 150.667,199 158,199 C165.333,199 167,198.722 167,197.5 C167,196.534 167.978,195.995 169.75,195.986 C174.866,195.961 176.86,194.912 177.522,191.898 C177.872,190.304 178.798,189 179.579,189 C180.361,189 181,188.2 181,187.222 C181,186.244 181.9,184.674 183,183.732 C184.1,182.79 185,180.89 185,179.51 C185,177.946 185.565,177 186.5,177 C187.51,177 188,175.99 188,173.906 C188,171.654 188.544,170.671 190,170.29 C191.1,170.002 192,169.144 192,168.383 C192,167.623 192.619,167 193.375,167 C195.015,167 196.235,161.784 195.386,158.402 C195.055,157.081 194.157,156 193.392,156 C192.477,156 192,154.84 192,152.617 C192,150.074 191.503,149.103 190,148.71 C188.544,148.329 188,147.346 188,145.094 C188,143.01 187.51,142 186.5,142 C185.462,142 185,140.957 185,138.617 C185,136.074 184.503,135.103 183,134.71 C181.544,134.329 181,133.346 181,131.094 C181,129.138 180.495,128 179.628,128 C178.8,128 178.002,126.413 177.616,124 C177.202,121.412 176.451,120 175.488,120 C174.454,120 174,118.932 174,116.5 C174,114.056 173.548,113 172.5,113 C171.675,113 171,112.283 171,111.406 C171,110.53 170.1,109.577 169,109.29 C167.338,108.855 167,107.926 167,103.79 C167,99.654 166.662,98.724 165,98.29 C163.9,98.002 163,97.144 163,96.383 C163,95.39 161.59,95 158,95 C154.298,95 153,95.377 153,96.45 C153,97.481 151.263,98.097 147,98.58 C142.915,99.042 141,99.696 141,100.629 C141,101.608 139.568,102 136,102 C132.424,102 131,102.392 131,103.375 C131,104.904 126.772,106 120.875,106 C118.244,106 117,106.444 117,107.383 C117,108.374 114.878,108.964 109.5,109.468 C104.032,109.98 102,110.554 102,111.585 C102,112.67 100.368,113 95,113 C89.727,113 88,113.339 88,114.375 C88,115.746 83.88,117 79.375,117 C77.931,117 77,117.588 77,118.5 C77,119.69 75.556,120 70,120 C64.638,120 63,120.33 63,121.412 C63,122.28 61.459,123.085 59,123.5 C56.541,123.915 55,124.72 55,125.588 C55,126.365 54.325,127 53.5,127 C52.667,127 52,127.889 52,129 C52,130.822 51.333,131 44.5,131 L37,131 L37.014,127.75 C37.04,121.486 37.923,120 41.617,120 C43.831,120 45,119.522 45,118.617 C45,117.101 47.968,116.035 52.25,116.014 C54.022,116.005 55,115.466 55,114.5 C55,113.348 56.278,113 60.5,113 C64.5,113 66,112.625 66,111.625 C66,109.94 70.342,109 78.125,109 C82.681,109 84,108.663 84,107.5 C84,106.445 85.066,106 87.594,106 C90.346,106 91.31,105.532 91.71,104 C91.998,102.9 92.856,102 93.617,102 C94.377,102 95,101.1 95,100 C95,98.889 95.667,98 96.5,98 C97.738,98 98,96.167 98,87.5 L98,77 L91,77 C85.444,77 84,77.31 84,78.5 C84,79.548 82.944,80 80.5,80 C77.667,80 77,80.381 77,82 C77,83.606 76.333,84 73.617,84 C70.722,84 70.156,83.603 69.7,81.25 C69.406,79.737 69.41,77.263 69.708,75.75 C70.171,73.4 70.741,73 73.625,73 C75.868,73 77,72.525 77,71.585 C77,70.554 79.032,69.98 84.5,69.468 C89.878,68.964 92,68.374 92,67.383 C92,66.622 92.675,66 93.5,66 C94.528,66 94.996,64.978 94.986,62.75 C94.966,58 93.959,55 92.383,55 C90.521,55 90.615,52.085 92.5,51.362 C93.325,51.045 94,50.159 94,49.393 C94,48.627 93.325,48 92.5,48 C91.247,48 91,45.944 91,35.5 Z M92,161.372 C92,162.2 90.413,162.998 88,163.384 L84,164.024 L84,170.395 C84,175.926 84.264,176.836 86,177.29 C87.532,177.69 88,178.654 88,181.406 C88,183.782 88.464,185 89.37,185 C90.258,185 90.924,186.635 91.264,189.651 C91.58,192.449 92.428,194.66 93.394,195.201 C94.277,195.695 95,196.752 95,197.55 C95,198.541 96.109,199 98.5,199 C100.803,199 102,198.53 102,197.625 C102,196.254 106.12,195 110.625,195 C112.069,195 113,194.412 113,193.5 C113,192.637 113.903,192 115.125,192 C116.972,192 117.168,191.591 116.625,188.875 C116.281,187.156 116,183.106 116,179.875 L116,174 L112.5,174 C109.667,174 109,174.381 109,176 C109,177.111 108.333,178 107.5,178 C106.452,178 106,179.056 106,181.5 C106,184.809 105.815,185 102.625,185 C99.645,185 99.177,184.634 98.625,181.875 C97.47,176.102 97.837,174 100,174 C101.333,174 102,173.333 102,172 C102,170.381 102.667,170 105.5,170 C107.944,170 109,169.548 109,168.5 C109,167.667 109.889,167 111,167 C112.619,167 113,166.333 113,163.5 L113,160 L102.5,160 C94.268,160 92,160.296 92,161.372 Z M123.986,157.25 C123.979,157.938 123.701,159.512 123.37,160.75 C122.783,162.939 122.973,163 130.383,163 C137.333,163 138,163.175 138,165 C138,166.333 138.667,167 140,167 C141.738,167 142,167.667 142,172.094 C142,176.346 141.67,177.274 140,177.71 C138.497,178.103 138,179.074 138,181.617 C138,184.817 138.19,185 141.5,185 C144.333,185 145,184.619 145,183 C145,181.397 145.667,181 148.361,181 C151.668,181 151.731,180.917 152.352,175.75 C153.478,166.374 153.206,163.867 151,163.29 C149.9,163.002 149,162.144 149,161.383 C149,160.462 147.799,160 145.406,160 C142.654,160 141.69,159.532 141.29,158 C140.819,156.201 139.926,156 132.383,156 C126.351,156 123.996,156.35 123.986,157.25 Z M221,35.383 C221,34.469 222.187,34 224.5,34 C226.944,34 228,34.452 228,35.5 C228,36.333 228.889,37 230,37 C231.1,37 232,37.639 232,38.421 C232,39.202 233.35,40.138 235,40.5 C236.722,40.878 238,41.804 238,42.673 C238,43.506 238.9,44.423 240,44.71 C241.435,45.086 242,46.074 242,48.21 C242,50.346 242.565,51.335 244,51.71 C245.1,51.998 246,52.856 246,53.617 C246,54.377 246.675,55 247.5,55 C248.548,55 249,56.056 249,58.5 C249,61.722 248.762,62 246,62 Q243,62 243,60.5 C243,59.667 242.111,59 241,59 C239.667,59 239,58.333 239,57 C239,55.667 238.333,55 237,55 C235.889,55 235,54.333 235,53.5 C235,52.675 234.283,52 233.406,52 C232.53,52 231.577,51.1 231.29,50 C230.857,48.344 229.926,48 225.883,48 C221.667,48 221,47.727 221,46 C221,44.889 220.333,44 219.5,44 C218.675,44 218,43.362 218,42.582 C218,41.802 217.717,40.425 217.37,39.522 C216.934,38.386 217.395,37.709 218.87,37.324 C220.042,37.017 221,36.144 221,35.383 Z M115.352,202.692 C114.171,202.923 112.975,203.987 112.696,205.056 C112.276,206.66 111.297,207 107.094,207 C103.233,207 102,207.363 102,208.5 C102,209.652 100.722,210 96.5,210 C92.278,210 91,210.348 91,211.5 C91,212.69 92.444,213 98,213 C103.556,213 105,212.69 105,211.5 C105,210.348 106.278,210 110.5,210 C114.866,210 116,209.671 116,208.406 C116,207.53 116.9,206.577 118,206.29 C119.107,206 120,204.926 120,203.883 C120,202.014 119.489,201.883 115.352,202.692 Z M127.324,171.87 C127.017,173.042 126.144,174 125.383,174 C124.623,174 124,174.9 124,176 C124,177.111 124.667,178 125.5,178 C126.548,178 127,179.056 127,181.5 C127,184.333 127.381,185 129,185 C130.619,185 131,184.333 131,181.5 C131,179.056 131.452,178 132.5,178 C133.548,178 134,176.944 134,174.5 C134,172.145 133.536,171 132.582,171 C131.802,171 130.425,170.717 129.522,170.37 C128.386,169.934 127.709,170.395 127.324,171.87 Z M138,193.5 C138,194.548 136.944,195 134.5,195 C131.083,195 131,195.095 131,199 C131,202.905 131.083,203 134.5,203 C137.333,203 138,202.619 138,201 C138,199.667 138.667,199 140,199 C141.619,199 142,198.333 142,195.5 C142,192.667 141.619,192 140,192 C138.889,192 138,192.667 138,193.5 Z"/>
</svg>

