<svg xmlns="http://www.w3.org/2000/svg" width="300" height="300" viewBox="0 0 300 300" version="1.1">
  <defs/>
  <path d="M130.25,56.706 C131.488,56.467 133.963,56.211 135.75,56.136 C138.379,56.026 139,56.382 139,58 C139,59.917 139.667,60 155,60 C168.556,60 171,60.229 171,61.5 C171,62.333 171.889,63 173,63 C174.111,63 175,62.333 175,61.5 C175,60.236 177.278,60 189.5,60 L204,60 L204,65.5 C204,69.516 203.627,71 202.617,71 C201.101,71 200.035,73.968 200.014,78.25 C200.005,80.022 199.466,81 198.5,81 C197.348,81 197,82.278 197,86.5 C197,90.622 196.639,92 195.559,92 C193.511,92 192.839,93.51 193.578,96.454 C194.26,99.173 197,100.01 197,97.5 C197,96.236 199.278,96 211.5,96 L226,96 L226,99.5 C226,102.333 225.619,103 224,103 C222.667,103 222,103.667 222,105 C222,106.333 221.333,107 220,107 C218.9,107 218,107.625 218,108.389 C218,109.184 216.505,110.058 214.5,110.434 C212.405,110.827 211,111.675 211,112.545 C211,113.642 209.646,114 205.5,114 L200,114 L200,110.5 C200,107.167 199.833,107 196.5,107 C193.667,107 193,107.381 193,109 C193,110.1 192.365,111 191.589,111 C190.566,111 190.07,112.72 189.788,117.25 C189.573,120.688 189.56,123.838 189.758,124.25 C189.956,124.662 192.566,125 195.559,125 C199.729,125 201,124.65 201,123.5 C201,122.675 201.675,122 202.5,122 C203.325,122 204,122.398 204,122.883 C204,123.369 204.9,124.002 206,124.29 C207.532,124.69 208,125.654 208,128.406 C208,131.333 207.629,132 206,132 C204.9,132 204,132.637 204,133.415 C204,134.446 201.968,135.02 196.5,135.532 C191.122,136.036 189,136.626 189,137.617 C189,138.378 188.325,139 187.5,139 C186.675,139 186,139.675 186,140.5 C186,141.333 185.111,142 184,142 C182.9,142 182,141.55 182,141 C182,140.45 181.325,140 180.5,140 C179.667,140 179,139.111 179,138 C179,136.242 178.333,136 173.5,136 C169.278,136 168,136.348 168,137.5 C168,138.69 166.556,139 161,139 L154,139 L154,143.375 C154,149.741 152.948,154 151.375,154 C150.339,154 150,155.727 150,161 C150,166.33 149.666,168 148.601,168 C147.604,168 147.002,170.005 146.5,175 C145.998,179.995 145.396,182 144.399,182 C143.374,182 143,183.438 143,187.383 C143,191.926 142.688,192.848 141,193.29 C139.468,193.69 139,194.654 139,197.406 C139,199.934 138.555,201 137.5,201 C136.367,201 136,202.222 136,206 C136,210.333 135.733,211 134,211 C132.242,211 132,211.667 132,216.5 C132,220.646 131.642,222 130.545,222 C129.675,222 128.827,223.405 128.434,225.5 C128.058,227.505 127.184,229 126.389,229 C125.477,229 125,230.163 125,232.383 C125,234.926 124.503,235.897 123,236.29 C121.565,236.665 121,237.654 121,239.79 C121,242.032 120.444,242.916 118.75,243.37 C115.348,244.281 111.191,244.118 110.528,243.046 C109.563,241.484 111.105,237 112.608,237 C113.374,237 114,236.1 114,235 C114,233.9 114.635,233 115.412,233 C116.28,233 117.085,231.459 117.5,229 C117.915,226.541 118.72,225 119.588,225 C120.535,225 121,223.848 121,221.5 C121,219.187 121.469,218 122.383,218 C123.899,218 124.965,215.032 124.986,210.75 C124.995,208.978 125.534,208 126.5,208 C127.523,208 128.004,206.966 128.014,204.75 C128.034,200 129.041,197 130.617,197 C131.564,197 132,195.739 132,193 C132,190.111 132.417,189 133.5,189 C134.412,189 135,188.069 135,186.625 C135,182.242 136.239,178 137.519,178 C138.41,178 138.898,175.59 139.155,169.924 C139.445,163.543 139.887,161.643 141.261,160.874 C142.74,160.046 143,158.338 143,149.45 L143,139 L139.406,139 C136.654,139 135.69,139.468 135.29,141 C135.002,142.1 134.144,143 133.383,143 C132.623,143 132,143.675 132,144.5 C132,145.548 130.944,146 128.5,146 C126.056,146 125,145.548 125,144.5 C125,143.417 123.889,143 121,143 C117.075,143 117,142.932 117,139.406 C117,136.654 117.468,135.69 119,135.29 C120.1,135.002 121,134.144 121,133.383 C121,132.289 123.301,132 132,132 C142.333,132 143,131.879 143,130 C143,128.889 143.667,128 144.5,128 C145.716,128 146,126.389 146,119.5 L146,111 L140.5,111 C136.278,111 135,111.348 135,112.5 C135,113.548 133.944,114 131.5,114 C129.056,114 128,113.548 128,112.5 C128,111.675 127.325,111 126.5,111 C125.675,111 125,111.675 125,112.5 C125,113.778 122.333,114 107,114 C92.341,114 89,114.257 89,115.383 C89,116.144 88.093,117.004 86.984,117.294 C85.395,117.71 85.024,118.527 85.234,121.16 C85.457,123.958 85.136,124.551 83.25,124.819 C81.761,125.031 81,124.624 81,123.615 C81,122.661 79.673,121.842 77.452,121.425 L73.904,120.759 L74.202,115.63 L74.5,110.5 L78.25,110.19 C80.524,110.001 82,109.362 82,108.565 C82,107.616 84.388,107.125 90.583,106.8 C96.491,106.49 99.437,105.911 100.036,104.942 C100.727,103.824 105.243,103.456 121.953,103.154 L143,102.773 L143,99.387 C143,97.043 143.462,96 144.5,96 C145.548,96 146,94.944 146,92.5 C146,90.056 145.548,89 144.5,89 C143.258,89 143,87.111 143,78 L143,67 L125,67 L125,63.5 C125,61.056 125.452,60 126.5,60 C127.325,60 128,59.356 128,58.57 C128,57.783 129.012,56.944 130.25,56.706 Z M154,71 Q154,74 155.5,74 C156.722,74 157,75.667 157,83 C157,90.333 156.722,92 155.5,92 C154.417,92 154,93.111 154,96 L154,100 L164.75,99.991 C170.662,99.987 177.863,99.699 180.75,99.352 L186,98.721 L186,90.361 C186,83.933 186.318,82 187.375,82 C188.746,82 190,77.88 190,73.375 L190,71 L173.5,71 C159.5,71 157,70.773 157,69.5 C157,68.675 156.325,68 155.5,68 Q154,68 154,71 Z M179,108.5 C179,109.727 177.292,110 169.625,110 C164.469,110 158.844,110.281 157.125,110.625 L154,111.25 L154,128 L166,128 C176,128 178,127.75 178,126.5 C178,125.667 178.889,125 180,125 C181.852,125 182,124.333 182,116 C182,108.667 181.722,107 180.5,107 C179.675,107 179,107.675 179,108.5 Z"/>
</svg>

