<svg xmlns="http://www.w3.org/2000/svg" width="300" height="300" viewBox="0 0 300 300" version="1.1">
  <defs/>
  <path d="M170.5,138 C171.168,134.958 174,133.745 174,136.5 C174,137.333 174.889,138 176,138 C177.667,138 178,138.667 178,142 C178,144.889 178.417,146 179.5,146 C180.548,146 181,147.056 181,149.5 C181,151.944 180.548,153 179.5,153 C178.367,153 178,154.222 178,158 L178,163 L185,163 C190.33,163 192,162.666 192,161.601 C192,159.596 203.596,158.624 217.047,159.503 C225.391,160.048 228,160.55 228,161.609 C228,162.532 229.178,163 231.5,163 C234.333,163 235,163.381 235,165 C235,166.333 235.667,167 237,167 C238.333,167 239,167.667 239,169 C239,170.111 239.667,171 240.5,171 C241.325,171 242,171.675 242,172.5 C242,173.333 242.889,174 244,174 C245.333,174 246,174.667 246,176 C246,177.1 246.623,178 247.383,178 C249.103,178 249.969,181.077 249.986,187.25 C249.997,190.799 250.379,192 251.5,192 C252.548,192 253,193.056 253,195.5 C253,197.944 252.548,199 251.5,199 C250.379,199 249.997,200.201 249.986,203.75 C249.969,209.923 249.103,213 247.383,213 C246.436,213 246,214.261 246,217 C246,220.333 245.667,221 244,221 C242.889,221 242,221.667 242,222.5 C242,223.325 241.325,224 240.5,224 C239.667,224 239,224.889 239,226 C239,227.333 238.333,228 237,228 C235.9,228 235,228.655 235,229.455 C235,230.325 233.595,231.173 231.5,231.566 C229.495,231.942 228,232.816 228,233.611 C228,234.375 227.325,235 226.5,235 C225.675,235 225,234.375 225,233.611 C225,232.816 223.505,231.942 221.5,231.566 C219.405,231.173 218,230.325 218,229.455 C218,228.343 216.584,228 212,228 C207.333,228 206,227.667 206,226.5 C206,225.675 205.283,225 204.406,225 C203.53,225 202.577,224.1 202.29,223 C201.919,221.583 200.926,221 198.883,221 C196.667,221 196,220.538 196,219 C196,217.667 195.333,217 194,217 C192.889,217 192,216.333 192,215.5 C192,214.667 191.111,214 190,214 C188.667,214 188,213.333 188,212 C188,210.381 187.333,210 184.5,210 C181.667,210 181,209.619 181,208 C181,206.381 180.333,206 177.5,206 C174.167,206 174,206.167 174,209.5 C174,211.796 173.529,213 172.631,213 C171.021,213 170.027,218.028 170.011,226.25 C170.003,230.69 169.658,232 168.5,232 C167.675,232 167,232.675 167,233.5 C167,234.548 165.944,235 163.5,235 L160,235 L160,230 C160,226.222 160.367,225 161.5,225 C162.722,225 163,223.339 163,216.05 C163,208.916 163.322,206.919 164.587,206.211 C165.846,205.507 166.288,202.842 166.727,193.315 C167.347,179.865 166.657,174 164.455,174 C163.655,174 163,174.675 163,175.5 C163,176.325 162.283,177 161.406,177 C160.53,177 159.577,177.9 159.29,179 C158.859,180.647 157.926,181 154,181 C149.596,181 149.193,181.209 148.7,183.75 C147.954,187.59 148.984,192 150.625,192 C151.53,192 152,193.197 152,195.5 C152,197.944 151.548,199 150.5,199 C149.675,199 149,198.325 149,197.5 C149,196.667 148.111,196 147,196 C145.667,196 145,195.333 145,194 C145,192.889 144.333,192 143.5,192 C142.667,192 142,192.889 142,194 C142,195.111 142.667,196 143.5,196 C144.633,196 145,197.222 145,201 C145,205.333 145.267,206 147,206 C148.333,206 149,206.667 149,208 C149,209.619 149.667,210 152.5,210 C155.333,210 156,210.381 156,212 C156,213.111 156.667,214 157.5,214 Q159,214 159,217 Q159,220 157.5,220 C156.667,220 156,220.889 156,222 C156,223.619 155.333,224 152.5,224 C150.056,224 149,223.548 149,222.5 C149,221.667 148.111,221 147,221 C145.667,221 145,220.333 145,219 C145,217.889 144.333,217 143.5,217 C142.452,217 142,215.944 142,213.5 C142,210.667 141.619,210 140,210 C138.381,210 138,209.333 138,206.5 C138,204.197 137.53,203 136.625,203 C135.254,203 134,198.88 134,194.375 C134,193.031 133.405,192 132.63,192 C131.742,192 131.076,190.365 130.736,187.349 C130.42,184.551 129.572,182.34 128.606,181.799 C127.469,181.163 127,179.456 127,175.95 C127,172.217 126.631,171 125.5,171 C124.3,171 124,169.5 124,163.5 L124,156 L134,156 L134,159.5 C134,162.333 134.381,163 136,163 C137.758,163 138,163.667 138,168.5 L138,174 L141.383,174 C143.926,174 144.897,173.503 145.29,172 C145.69,170.468 146.654,170 149.406,170 C151.934,170 153,169.555 153,168.5 C153,167.31 154.444,167 160,167 L167,167 L167,154 C167,143.434 167.266,141 168.421,141 C169.202,141 170.138,139.65 170.5,138 Z M167,71.5 C167,70.31 168.444,70 174,70 C179.556,70 181,70.31 181,71.5 C181,72.652 182.278,73 186.5,73 L192,73 L192,84 L186.5,84 C182.415,84 181,83.635 181,82.579 C181,80.638 177.333,80.073 165,80.114 C146.974,80.174 138,80.997 138,82.59 C138,83.632 136.567,84 132.5,84 L127,84 L127,91 L118.406,91 C110.654,91 109.762,91.196 109.29,93 C109.002,94.1 108.144,95 107.383,95 C106.594,95 106,96.02 106,97.375 C106,101.88 104.746,106 103.375,106 C102.221,106 102,117.5 102,177.5 C102,237.352 101.777,249 100.631,249 C99.169,249 98.03,253.894 98.011,260.25 C98.003,262.912 97.565,264 96.5,264 C95.416,264 95,265.112 95,268.01 C95,270.782 94.383,272.548 93,273.732 C91.9,274.674 91,276.019 91,276.722 C91,277.425 90.283,278 89.406,278 C88.53,278 87.577,278.9 87.29,280 C86.386,283.456 84,282.368 84,278.5 C84,275.667 83.619,275 82,275 C80.407,275 80.003,274.338 80.014,271.75 C80.034,267 81.041,264 82.617,264 C83.377,264 84,264.675 84,265.5 C84,266.333 84.889,267 86,267 C87.111,267 88,266.333 88,265.5 C88,264.675 88.633,264 89.406,264 C90.498,264 90.889,261.758 91.156,253.962 C91.404,246.714 91.89,243.684 92.905,243.058 C94.029,242.364 94.406,237.179 94.792,217.095 L95.275,192 L87.638,192 C81.801,192 80,192.326 80,193.383 C80,194.959 77,195.966 72.25,195.986 C70.034,195.996 69,196.477 69,197.5 C69,198.325 68.325,199 67.5,199 C66.675,199 66,198.325 66,197.5 C66,196.675 65.352,196 64.559,196 C62.516,196 61.839,194.491 62.571,191.572 C63.043,189.692 64.067,188.891 66.602,188.415 C68.529,188.053 70,187.176 70,186.389 C70,185.293 72.19,185 80.383,185 C86.185,185 89.051,185.201 90.393,183.868 C91.859,182.412 91.508,179.126 91.182,171.75 L90.795,163 L87.397,163 C85.171,163 84,163.477 84,164.383 C84,166.142 80.902,166.969 74.25,166.986 C70.256,166.997 69,167.359 69,168.5 C69,169.325 68.325,170 67.5,170 C66.348,170 66,171.278 66,175.5 L66,181 L62.5,181 C59.964,181 59,180.561 59,179.406 C59,178.53 58.1,177.577 57,177.29 C55.9,177.002 55,176.144 55,175.383 C55,174.623 54.374,174 53.608,174 C51.821,174 50.836,170.068 51.63,166.098 C52.176,163.368 52.651,163 55.625,163 C57.958,163 59,162.537 59,161.5 C59,160.588 59.931,160 61.375,160 C65.88,160 70,158.746 70,157.375 C70,156.285 72.485,156 82,156 L94,156 L94.003,144.25 C94.009,119.313 95.265,95 96.547,95 C97.224,95 98.073,93.425 98.434,91.5 C98.827,89.405 99.675,88 100.545,88 C101.345,88 102,87.1 102,86 C102,84.889 101.333,84 100.5,84 C99.452,84 99,82.944 99,80.5 C99,78.056 99.452,77 100.5,77 C101.325,77 102,76.377 102,75.617 C102,74.856 103.012,73.962 104.25,73.63 C105.487,73.299 120.112,73.021 136.75,73.014 C162.966,73.002 167,72.8 167,71.5 Z M199,168.371 C199,169.379 196.615,169.929 190,170.446 C183.207,170.978 181,171.5 181,172.575 C181,173.359 180.378,174 179.617,174 C178.626,174 178.036,176.122 177.532,181.5 C177.02,186.968 176.446,189 175.415,189 C174.637,189 174,189.675 174,190.5 C174,191.333 174.889,192 176,192 C177.1,192 178,192.655 178,193.455 C178,194.325 179.405,195.173 181.5,195.566 C183.505,195.942 185,196.816 185,197.611 C185,198.375 185.717,199 186.594,199 C187.47,199 188.423,199.9 188.71,201 C188.998,202.1 189.856,203 190.617,203 C191.377,203 192,203.675 192,204.5 C192,205.333 192.889,206 194,206 C195.333,206 196,206.667 196,208 C196,209.333 196.667,210 198,210 C199.1,210 200,210.639 200,211.421 C200,212.202 201.35,213.138 203,213.5 C204.65,213.862 206,214.798 206,215.579 C206,216.361 206.9,217 208,217 C209.333,217 210,217.667 210,219 C210,220.333 210.667,221 212,221 C213.1,221 214,221.625 214,222.389 C214,223.184 215.495,224.058 217.5,224.434 C219.595,224.827 221,225.675 221,226.545 C221,227.541 222.104,228 224.5,228 C227.333,228 228,227.619 228,226 C228,224.667 228.667,224 230,224 C231.111,224 232,223.333 232,222.5 C232,221.675 232.675,221 233.5,221 C234.333,221 235,220.111 235,219 C235,217.9 235.655,217 236.455,217 C237.325,217 238.173,215.595 238.566,213.5 C238.942,211.495 239.816,210 240.611,210 C241.712,210 242,207.719 242,199 C242,189.889 241.742,188 240.5,188 C239.664,188 239,187.11 239,185.99 C239,184.885 238.1,183.21 237,182.268 C235.9,181.326 235,180.033 235,179.394 C235,178.756 234.1,177.998 233,177.71 C231.9,177.423 231,176.47 231,175.594 C231,174.717 230.325,174 229.5,174 C228.675,174 228,173.381 228,172.625 C228,170.94 223.658,170 215.875,170 C211.319,170 210,169.663 210,168.5 C210,167.348 208.722,167 204.5,167 C200.508,167 199,167.376 199,168.371 Z M145.638,24.5 C146.042,23.449 147.68,23 151.107,23 C154.79,23 156,23.371 156,24.5 C156,25.621 157.201,26.003 160.75,26.014 C166.923,26.031 170,26.897 170,28.617 C170,29.564 171.261,30 174,30 C176.739,30 178,30.436 178,31.383 C178,32.144 178.9,33.002 180,33.29 C181.1,33.577 182,34.53 182,35.406 C182,36.283 182.675,37 183.5,37 C184.333,37 185,37.889 185,39 C185,40.1 185.647,41 186.439,41 C187.374,41 188.11,42.55 188.542,45.429 C189.261,50.225 188.694,52 186.441,52 C185.648,52 185,52.675 185,53.5 C185,54.333 184.111,55 183,55 C181.242,55 181,54.333 181,49.5 C181,45.278 180.652,44 179.5,44 C178.675,44 178,43.325 178,42.5 C178,41.667 177.111,41 176,41 C174.667,41 174,40.333 174,39 C174,37.242 173.333,37 168.5,37 C164.278,37 163,36.652 163,35.5 C163,34.348 161.722,34 157.5,34 C153.278,34 152,34.348 152,35.5 C152,36.325 151.325,37 150.5,37 C149.667,37 149,37.889 149,39 C149,40.333 148.333,41 147,41 C145.667,41 145,40.333 145,39 C145,37.889 144.333,37 143.5,37 C142.348,37 142,35.722 142,31.5 C142,27.228 142.342,26 143.531,26 C144.374,26 145.322,25.325 145.638,24.5 Z M149,100 C149,98.837 149.667,98 150.594,98 C151.47,98 152.423,98.9 152.71,100 C153.184,101.811 154.074,102 162.117,102 C169.125,102 171,102.3 171,103.421 C171,104.202 172.304,105.128 173.898,105.478 C175.584,105.848 177.009,106.927 177.305,108.057 C177.584,109.126 178.53,110 179.406,110 C180.713,110 181,111.262 181,117 C181,124.321 180.8,124.589 176.25,123.37 C174.306,122.849 174,122.102 174,117.883 L174,113 L170.071,113 C167.765,113 165.466,112.323 164.505,111.362 C163.429,110.286 160.485,109.553 155.933,109.227 C149.366,108.757 149,108.844 149,110.866 C149,112.623 148.404,113 145.625,113 C142.645,113 142.177,112.634 141.625,109.875 C140.234,102.92 140.628,102 145,102 C148.333,102 149,101.667 149,100 Z"/>
</svg>

