<svg xmlns="http://www.w3.org/2000/svg" width="300" height="300" viewBox="0 0 300 300" version="1.1">
  <defs/>
  <path d="M167,71.406 C167,70.273 169.426,70 179.5,70 C189.944,70 192,70.247 192,71.5 C192,72.325 192.648,73 193.441,73 C194.234,73 195.147,73.429 195.472,73.954 C196.437,75.516 194.895,80 193.392,80 C192.626,80 192,80.9 192,82 C192,83.333 191.333,84 190,84 C188.667,84 188,84.667 188,86 C188,87.111 187.333,88 186.5,88 C185.675,88 185,88.612 185,89.361 C185,90.254 183.223,90.932 179.825,91.334 C176.979,91.671 174.392,92.343 174.075,92.826 C173.759,93.31 171.137,94.012 168.25,94.387 C163.901,94.952 163,94.805 163,93.534 C163,92.69 162.438,91.994 161.75,91.986 C161.063,91.979 159.488,91.701 158.25,91.37 C156.435,90.883 156,91.176 156,92.883 C156,94.333 155.37,95 154,95 C152.667,95 152,95.667 152,97 C152,98.111 151.333,99 150.5,99 C149.452,99 149,100.056 149,102.5 C149,104.896 148.541,106 147.545,106 C146.675,106 145.827,107.405 145.434,109.5 C145.058,111.505 144.184,113 143.389,113 C142.468,113 142,114.18 142,116.5 C142,119.333 141.619,120 140,120 C138.333,120 138,120.667 138,124 C138,126.739 137.564,128 136.617,128 C135.101,128 134.035,130.968 134.014,135.25 C134.005,137.022 133.466,138 132.5,138 C131.452,138 131,139.056 131,141.5 L131,145 L136.5,145 C140.504,145 142,144.625 142,143.623 C142,142.498 147.789,142.11 173.583,141.506 C195.108,141.001 205.498,141.098 206.208,141.808 C207.748,143.348 206.247,152 204.439,152 C203.365,152 203,153.367 203,157.383 C203,161.926 202.688,162.848 201,163.29 C199.196,163.762 199,164.654 199,172.406 C199,179.378 198.717,181 197.5,181 C196.308,181 196,182.455 196,188.094 C196,194.346 195.763,195.249 194,195.71 C192.244,196.169 192,197.074 192,203.117 C192,208.378 191.667,210 190.588,210 C189.72,210 188.915,211.541 188.5,214 C188.085,216.459 187.28,218 186.412,218 C185.384,218 185,219.361 185,223 L185,228 L181,228 C178.111,228 177,228.417 177,229.5 C177,230.69 175.556,231 170,231 C164.444,231 163,230.69 163,229.5 C163,228.452 161.944,228 159.5,228 C157.187,228 156,227.531 156,226.617 C156,225.041 153,224.034 148.25,224.014 C146.034,224.004 145,223.523 145,222.5 C145,221.452 143.944,221 141.5,221 C139.187,221 138,220.531 138,219.617 C138,218.041 135,217.034 130.25,217.014 C128.034,217.004 127,216.523 127,215.5 C127,214.452 125.944,214 123.5,214 C120.667,214 120,213.619 120,212 C120,210.333 119.333,210 116,210 C113.111,210 112,209.583 112,208.5 C112,207.675 111.55,207 111,207 C110.45,207 110,206.1 110,205 C110,203.381 110.667,203 113.5,203 C115.944,203 117,203.452 117,204.5 C117,205.466 117.978,206.005 119.75,206.014 C124.032,206.035 127,207.101 127,208.617 C127,209.627 128.484,210 132.5,210 C136.5,210 138,210.375 138,211.375 C138,212.746 142.12,214 146.625,214 C148.069,214 149,214.588 149,215.5 C149,216.699 150.496,217 156.461,217 C162.795,217 164.223,217.323 165.914,219.138 C167.54,220.883 168.665,221.174 172.035,220.722 C174.307,220.417 176.406,219.928 176.7,219.633 C176.994,219.339 177.465,217.052 177.747,214.549 C178.078,211.614 178.746,210 179.63,210 C180.525,210 181,208.804 181,206.55 C181,204.345 181.612,202.757 182.696,202.15 C183.945,201.451 184.503,199.462 184.813,194.6 C185.115,189.85 185.621,188 186.616,188 C187.618,188 188.002,186.549 188.009,182.75 C188.024,173.745 189.15,167 190.639,167 C191.686,167 192,164.924 192,158 L192,149 L177.5,149 C165.846,149 163,149.271 163,150.378 C163,151.469 159.35,151.909 145.5,152.486 C131.561,153.067 128,153.498 128,154.607 C128,155.681 126.17,156 120,156 C114.259,156 112.004,155.647 112.014,154.75 C112.045,151.84 113.331,149 114.617,149 C115.377,149 116,148.1 116,147 C116,145.667 116.667,145 118,145 C119.619,145 120,144.333 120,141.5 C120,139.18 120.468,138 121.389,138 C122.184,138 123.058,136.505 123.434,134.5 C123.827,132.405 124.675,131 125.545,131 C126.532,131 127,129.911 127,127.617 C127,125.074 127.497,124.103 129,123.71 C130.456,123.329 131,122.346 131,120.094 C131,118.01 131.49,117 132.5,117 C133.523,117 134.004,115.966 134.014,113.75 C134.034,109 135.041,106 136.617,106 C137.531,106 138,104.813 138,102.5 C138,100.152 138.465,99 139.412,99 C140.28,99 141.085,97.459 141.5,95 C141.915,92.541 142.72,91 143.588,91 C144.365,91 145,90.283 145,89.406 C145,88.53 145.9,87.577 147,87.29 C148.1,87.002 149,86.144 149,85.383 C149,84.373 147.516,84 143.5,84 C139.278,84 138,84.348 138,85.5 C138,86.333 137.111,87 136,87 C134.889,87 134,86.333 134,85.5 C134,84.675 133.325,84 132.5,84 C131.675,84 131,84.619 131,85.375 C131,87.092 126.634,88 118.375,88 C113.375,88 112,88.324 112,89.5 C112,90.633 110.778,91 107,91 C102.667,91 102,91.267 102,93 C102,94.333 101.333,95 100,95 C98.889,95 98,95.667 98,96.5 C98,97.325 97.325,98 96.5,98 C95.367,98 95,96.778 95,93 C95,89.222 95.367,88 96.5,88 C97.333,88 98,87.111 98,86 C98,84.394 98.667,84 101.383,84 C103.926,84 104.897,83.503 105.29,82 C105.751,80.237 106.654,80 112.906,80 C118.545,80 120,79.692 120,78.5 C120,77.247 122.05,77 132.45,77 C143.268,77 145.029,76.771 145.879,75.25 C146.687,73.804 148.604,73.44 156.928,73.156 C164.753,72.889 167,72.499 167,71.406 Z M165.25,80.737 C161.503,80.999 160,81.519 160,82.552 C160,83.349 160.675,84 161.5,84 C162.325,84 163,84.635 163,85.412 C163,87.204 169.501,88.372 174.381,87.456 C176.476,87.063 178,86.193 178,85.389 C178,84.625 178.675,84 179.5,84 C181.854,84 181.253,81.301 178.75,80.63 C176.509,80.03 175.219,80.04 165.25,80.737 Z"/>
</svg>

