<svg xmlns="http://www.w3.org/2000/svg" width="300" height="300" viewBox="0 0 300 300" version="1.1">
  <defs/>
  <path d="M162.75,19.654 C165.566,18.862 170.372,19.914 171.271,21.519 C171.726,22.334 172.752,23 173.55,23 C174.541,23 175,24.109 175,26.5 C175,29.333 174.619,30 173,30 C171.381,30 171,30.667 171,33.5 L171,37 L178.5,37 C185.333,37 186,37.178 186,39 C186,40.606 186.667,41 189.384,41 L192.767,41 L193.487,47.75 C193.884,51.462 194.707,54.811 195.318,55.191 C195.928,55.571 196.607,59.059 196.827,62.941 C197.202,69.585 197.101,70 195.113,70 C193.446,70 193,70.615 193,72.915 C193,75.813 193.043,75.833 200.5,76.532 C206.129,77.06 208,77.603 208,78.711 C208,79.523 207.1,80.423 206,80.71 C204.9,80.998 204,81.856 204,82.617 C204,83.692 201.996,84 195,84 C188.076,84 186,84.314 186,85.361 C186,86.751 179.378,87.974 171.75,87.991 L168,88 L168,92.883 C168,96.926 167.656,97.857 166,98.29 C164.139,98.776 164,99.654 164,110.906 C164,120.99 163.751,123 162.5,123 C161.272,123 161,124.722 161,132.5 L161,142 L164.5,142 C167.833,142 168,142.167 168,145.5 C168,148.333 168.381,149 170,149 C171.812,149 172,149.667 172,156.094 C172,162.346 171.763,163.249 170,163.71 C168.344,164.143 168,165.074 168,169.117 C168,172.723 167.62,174 166.545,174 C165.675,174 164.827,175.405 164.434,177.5 C164.058,179.505 163.184,181 162.389,181 C161.625,181 161,181.9 161,183 C161,184.111 160.333,185 159.5,185 C158.675,185 158,185.675 158,186.5 C158,187.325 158.675,188 159.5,188 C160.333,188 161,188.889 161,190 C161,191.111 161.667,192 162.5,192 C163.325,192 164,192.675 164,193.5 C164,194.325 163.325,195 162.5,195 C161.348,195 161,196.278 161,200.5 L161,206 L157.617,206 C154.015,206 153.043,204.491 153.014,198.855 C153.002,196.531 152.544,196.167 149.25,195.855 C147.188,195.66 140.887,195.655 135.25,195.844 C127.272,196.111 125,196.499 125,197.594 C125,198.677 123.278,199 117.5,199 C111.781,199 110,199.329 110,200.383 C110,202.103 106.923,202.969 100.75,202.986 C97.201,202.997 96,203.379 96,204.5 C96,205.575 94.903,206 92.125,206 C86.228,206 82,207.096 82,208.625 C82,209.521 80.821,210 78.617,210 C76.074,210 75.103,210.497 74.71,212 C74.249,213.763 73.346,214 67.094,214 L60,214 L60,210 C60,207.111 60.417,206 61.5,206 C62.325,206 63,205.383 63,204.628 C63,203.8 64.587,203.002 67,202.616 C69.588,202.202 71,201.451 71,200.488 C71,199.312 72.469,199 78,199 C83.556,199 85,198.69 85,197.5 C85,196.588 85.931,196 87.375,196 C91.88,196 96,194.746 96,193.375 C96,192.31 98.03,192 105,192 C113.333,192 114,191.852 114,190 C114,188.148 114.667,188 123,188 C130.333,188 132,187.722 132,186.5 C132,185.278 133.667,185 141,185 C148.333,185 150,184.722 150,183.5 C150,182.675 150.675,182 151.5,182 C152.636,182 153.048,180.606 153.2,176.25 C153.459,168.784 153.304,164.971 152.717,164.384 C152.458,164.124 149.464,163.835 146.065,163.741 C141.64,163.618 139.633,163.975 139.001,164.999 C138.414,165.948 135.748,166.562 131.059,166.827 C126.181,167.102 124,167.623 124,168.511 C124,169.37 121.672,170.031 117,170.5 C112.005,171.002 110,171.604 110,172.601 C110,173.613 108.617,174 105,174 L100,174 L100,179.5 C100,184.333 99.758,185 98,185 C96.9,185 96,184.345 96,183.545 C96,182.675 94.595,181.827 92.5,181.434 C89.014,180.78 89,180.755 89,175.389 C89,171.265 89.352,170 90.5,170 C91.325,170 92,169.325 92,168.5 C92,167.667 92.889,167 94,167 C95.1,167 96,166.377 96,165.617 C96,163.759 99.152,163.03 107.25,163.014 C112.359,163.003 114,162.66 114,161.601 C114,160.604 116.005,160.002 121,159.5 C125.995,158.998 128,158.396 128,157.399 C128,156.257 131.032,156 144.5,156 C158.65,156 161,155.782 161,154.469 C161,153.626 160.325,152.678 159.5,152.362 C158.675,152.045 158,151.159 158,150.393 C158,149.574 156.97,149 155.5,149 C154.038,149 153,148.426 153,147.617 C153,145.682 149.804,145.029 140.25,145.014 C133.589,145.003 132,144.711 132,143.5 C132,142.675 131.325,142 130.5,142 C129.675,142 129,142.675 129,143.5 C129,144.764 126.722,145 114.5,145 C102.278,145 100,144.764 100,143.5 C100,142.667 99.111,142 98,142 C96.15,142 96,141.333 96,133.117 C96,125.074 95.811,124.184 94,123.71 C92.558,123.333 92,122.346 92,120.173 C92,117.632 91.525,117.055 88.978,116.495 C84.735,115.563 78,116.847 78,118.588 C78,119.569 76.778,120 74,120 C71.261,120 70,120.436 70,121.383 C70,122.899 67.032,123.965 62.75,123.986 C61.077,123.995 60,124.544 60,125.389 C60,126.184 58.505,127.058 56.5,127.434 C54.405,127.827 53,128.675 53,129.545 C53,130.541 51.896,131 49.5,131 C47.056,131 46,131.452 46,132.5 C46,133.7 44.5,134 38.5,134 L31,134 L31,124.176 L35,123.5 C37.459,123.085 39,122.28 39,121.412 C39,120.389 40.344,120 43.883,120 C47.926,120 48.857,119.656 49.29,118 C49.726,116.33 50.654,116 54.906,116 C58.767,116 60,115.637 60,114.5 C60,113.348 61.278,113 65.5,113 C69.516,113 71,112.627 71,111.617 C71,110.101 73.968,109.035 78.25,109.014 C80.022,109.005 81,108.466 81,107.5 C81,106.667 81.889,106 83,106 C84.758,106 85,105.333 85,100.5 C85,96.278 84.652,95 83.5,95 C82.445,95 82,93.934 82,91.406 C82,88.654 81.532,87.69 80,87.29 C78.497,86.897 78,85.926 78,83.383 L78,80 L72.906,80 C68.654,80 67.726,80.33 67.29,82 C66.809,83.838 65.926,84 56.383,84 C46.667,84 46,83.872 46,82 C46,80.889 46.667,80 47.5,80 C48.325,80 49,79.325 49,78.5 C49,77.675 49.717,77 50.594,77 C51.47,77 52.423,76.1 52.71,75 C53.184,73.189 54.074,73 62.117,73 C69.346,73 71,72.721 71,71.5 C71,70.675 71.675,70 72.5,70 C73.652,70 74,68.722 74,64.5 L74,59 L67,59 C61.577,59 60,59.324 60,60.439 C60,62.007 51.96,63.711 50.071,62.544 C49.482,62.18 49,60.334 49,58.441 C49,55.667 49.387,55 51,55 C52.1,55 53,54.388 53,53.639 C53,52.295 59.563,51.028 66.633,51.009 C70.567,50.998 70.968,49.689 70.986,36.795 L71,27.091 L74.5,26.434 C79.217,25.549 85,26.712 85,28.545 C85,29.345 85.9,30 87,30 C89.09,30 89.376,30.993 88.37,34.75 C87.699,37.253 85,37.854 85,35.5 C85,34.675 84.325,34 83.5,34 C82.31,34 82,35.444 82,41 C82,46.556 82.31,48 83.5,48 C84.325,48 85,47.377 85,46.617 C85,45.856 86.238,44.993 87.75,44.7 C91.59,43.954 96,44.984 96,46.625 C96,47.53 97.197,48 99.5,48 C102.917,48 103,48.095 103,52 C103,54.889 102.583,56 101.5,56 C100.675,56 100,56.675 100,57.5 C100,58.333 99.111,59 98,59 C96.667,59 96,58.333 96,57 C96,55.242 95.333,55 90.5,55 L85,55 L85,69 L90.875,69 C98.328,69 103,69.926 103,71.403 C103,72.037 103.9,73.326 105,74.268 C107.5,76.409 107.89,84 105.5,84 C104.675,84 104,84.717 104,85.594 C104,86.47 103.126,87.416 102.057,87.695 C100.927,87.991 99.848,89.416 99.478,91.102 C99.128,92.696 98.202,94 97.421,94 C96.339,94 96,92.45 96,87.5 C96,82.389 96.321,81 97.5,81 C98.333,81 99,80.111 99,79 C99,77.267 98.333,77 94,77 L89,77 L89,82.5 C89,86.722 89.348,88 90.5,88 C91.412,88 92,88.931 92,90.375 C92,94.88 93.254,99 94.625,99 C95.381,99 96,99.675 96,100.5 C96,101.333 96.889,102 98,102 C99.1,102 100,101.377 100,100.617 C100,99.101 102.968,98.035 107.25,98.014 C109.022,98.005 110,97.466 110,96.5 C110,95.348 111.278,95 115.5,95 L121,95 L121,98.5 C121,100.813 120.531,102 119.617,102 C118.856,102 117.998,102.9 117.71,104 C117.31,105.532 116.346,106 113.594,106 C111.066,106 110,106.445 110,107.5 C110,108.633 108.778,109 105,109 L100,109 L100,116 C100,121.556 100.31,123 101.5,123 C102.583,123 103,124.111 103,127 L103,131 L116,131 C126.254,131 129,131.286 129,132.351 C129,133.377 131.83,133.842 140.737,134.281 C147.193,134.599 152.618,134.715 152.793,134.54 C152.969,134.365 153.38,128.546 153.708,121.611 C154.162,111.994 154.624,109 155.652,109 C156.654,109 157,107.205 157,102 C157,96.444 156.69,95 155.5,95 C154.675,95 154,95.625 154,96.389 C154,97.184 152.505,98.058 150.5,98.434 C148.405,98.827 147,99.675 147,100.545 C147,101.689 145.396,102 139.5,102 C133.5,102 132,101.7 132,100.5 C132,99.675 131.352,99 130.559,99 C128.47,99 127.926,97.62 128.629,94.103 C129.222,91.142 129.472,91 134.125,91 C137.595,91 139,90.604 139,89.625 C139,88.254 143.12,87 147.625,87 C149.069,87 150,86.412 150,85.5 C150,84.452 151.056,84 153.5,84 L157,84 L157,78.5 C157,73.566 156.782,73 154.883,73 C153.176,73 152.883,72.565 153.37,70.75 C153.701,69.513 153.979,67.938 153.986,67.25 C153.994,66.563 154.623,66 155.384,66 C156.378,66 156.901,64.102 157.243,59.25 C157.504,55.538 157.416,52.157 157.046,51.737 C155.97,50.515 150,52.114 150,53.625 C150,54.625 148.5,55 144.5,55 C139.667,55 139,54.758 139,53 C139,51.889 138.333,51 137.5,51 C136.675,51 136,50.325 136,49.5 C136,48.675 136.675,48 137.5,48 C138.333,48 139,47.111 139,46 C139,44.667 139.667,44 141,44 C142.1,44 143,43.384 143,42.63 C143,41.742 144.635,41.076 147.651,40.736 C150.449,40.42 152.66,39.572 153.201,38.606 C153.762,37.603 155.429,37 157.642,37 L161.184,37 L160.928,32.25 C160.444,23.269 160.891,20.177 162.75,19.654 Z M164,211.389 C164,210.336 165.694,210 171,210 C176.362,210 178,210.33 178,211.412 C178,212.28 179.541,213.085 182,213.5 C184.459,213.915 186,214.72 186,215.588 C186,216.752 189.165,217 204,217 C218.485,217 222,216.735 222,215.644 C222,214.673 224.226,214.102 229.829,213.635 C238.763,212.89 244,213.625 244,215.625 C244,216.381 244.675,217 245.5,217 C246.333,217 247,217.889 247,219 C247,220.333 247.667,221 249,221 C250.111,221 251,221.667 251,222.5 C251,223.325 251.625,224 252.389,224 C253.178,224 254.055,225.478 254.42,227.428 C254.936,230.175 255.64,230.982 257.967,231.493 C260.138,231.97 261.032,232.87 261.514,235.065 C261.869,236.679 262.798,238 263.579,238 C264.361,238 265,238.848 265,239.883 C265,240.926 265.893,242 267,242.29 C268.1,242.577 269,243.53 269,244.406 C269,245.671 267.866,246 263.5,246 L258,246 L258,242.5 C258,239.167 257.833,239 254.5,239 C251.667,239 251,238.619 251,237 C251,235.381 250.333,235 247.5,235 C244.964,235 244,234.561 244,233.406 C244,232.53 243.1,231.577 242,231.29 C240.9,231.002 240,230.144 240,229.383 C240,228.623 239.1,228 238,228 C236.9,228 236,227.345 236,226.545 C236,225.675 234.595,224.827 232.5,224.434 C230.495,224.058 229,223.184 229,222.389 C229,221.625 228.325,221 227.5,221 C226.675,221 226,221.611 226,222.358 C226,223.791 218.154,225 208.853,225 C205.206,225 204,225.373 204,226.5 C204,227.591 202.875,228 199.873,228 L195.746,228 L196.234,233.085 C196.587,236.759 196.353,238.311 195.389,238.681 C194.655,238.963 193.767,240.725 193.416,242.597 C193.054,244.527 192.177,246 191.389,246 C190.461,246 190,247.194 190,249.594 C190,252.346 189.532,253.31 188,253.71 C186.9,253.998 186,254.856 186,255.617 C186,256.377 185.377,257 184.617,257 C183.856,257 182.998,257.9 182.71,259 C182.397,260.197 181.346,261 180.094,261 C178.899,261 178,261.644 178,262.5 Q178,264 175,264 C172.667,264 172,264.444 172,266 C172,267.619 171.333,268 168.5,268 C166.2,268 165,268.471 165,269.372 C165,270.2 163.413,270.998 161,271.384 C158.274,271.82 157,272.531 157,273.618 C157,274.975 155.803,275.157 148.958,274.847 C144.364,274.638 140.611,273.989 140.205,273.332 C139.815,272.701 137.809,271.867 135.748,271.48 C133.554,271.069 132,270.202 132,269.389 C132,268.625 131.1,268 130,268 C128.667,268 128,267.333 128,266 C128,264.889 127.333,264 126.5,264 C125.675,264 125,263.375 125,262.611 C125,261.824 123.53,260.947 121.607,260.586 C118.704,260.041 118.119,259.447 117.561,256.475 C117.172,254.4 116.323,253 115.455,253 C114.655,253 114,252.1 114,251 C114,249.9 113.377,249 112.617,249 C110.959,249 110.027,245.942 110.027,240.5 C110.027,233.789 110.878,232 114.071,232 C116.523,232 116.999,232.476 117.566,235.5 C117.942,237.505 118.816,239 119.611,239 C120.532,239 121,240.18 121,242.5 C121,245.333 121.381,246 123,246 C124.619,246 125,246.667 125,249.5 C125,252.333 125.381,253 127,253 C128.333,253 129,253.667 129,255 C129,256.556 129.667,257 132,257 C134.078,257 135,257.49 135,258.594 C135,259.47 135.9,260.423 137,260.71 C138.1,260.998 139,261.856 139,262.617 C139,263.706 141.209,264 149.383,264 C158.926,264 159.809,263.838 160.29,262 C160.69,260.468 161.654,260 164.406,260 C166.934,260 168,259.555 168,258.5 C168,257.667 168.889,257 170,257 C171.333,257 172,256.333 172,255 C172,253.381 172.667,253 175.5,253 C177.944,253 179,252.548 179,251.5 C179,250.675 179.675,250 180.5,250 C181.333,250 182,249.111 182,248 C182,246.667 182.667,246 184,246 C185.871,246 186,245.333 186,235.639 L186,225.279 L180.75,224.648 C177.863,224.301 171.338,224.013 166.25,224.009 L157,224 L157,219.045 C157,214.175 157.059,214.08 160.5,213.434 C162.505,213.058 164,212.184 164,211.389 Z M92.638,219.5 C92.955,218.675 93.841,218 94.607,218 C95.373,218 96,218.675 96,219.5 C96,220.652 97.278,221 101.5,221 C106.333,221 107,221.242 107,223 C107,224.111 106.333,225 105.5,225 C104.675,225 104,225.675 104,226.5 C104,227.583 102.889,228 100,228 C96.667,228 96,228.333 96,230 C96,231.1 95.361,232 94.579,232 C93.798,232 92.862,233.35 92.5,235 C92.138,236.65 91.259,238 90.548,238 C89.818,238 88.983,239.704 88.629,241.916 C88.285,244.07 87.495,246.002 86.875,246.208 C86.254,246.415 85.521,248.928 85.246,251.792 C84.909,255.297 84.297,257 83.373,257 C82.471,257 82,258.2 82,260.5 C82,263.833 82.167,264 85.5,264 C88.833,264 89,264.167 89,267.5 C89,270.333 88.619,271 87,271 C85.667,271 85,271.667 85,273 C85,274.333 84.333,275 83,275 C81.9,275 81,275.639 81,276.421 C81,277.202 79.65,278.138 78,278.5 C76.35,278.862 75,279.798 75,280.579 C75,281.361 74.1,282 73,282 C71.127,282 71,281.333 71,271.5 C71,262.833 71.262,261 72.5,261 C73.523,261 74.004,259.966 74.014,257.75 C74.034,253 75.041,250 76.617,250 C77.564,250 78,248.739 78,246 C78,243.273 78.438,242 79.375,242 C80.746,242 82,237.88 82,233.375 C82,231.931 82.588,231 83.5,231 C84.548,231 85,229.944 85,227.5 C85,224.667 85.381,224 87,224 C88.111,224 89,223.333 89,222.5 C89,221.675 89.689,221 90.531,221 C91.374,221 92.322,220.325 92.638,219.5 Z M171.5,48 C171.138,49.65 170.202,51 169.421,51 C168.365,51 168,52.415 168,56.5 C168,61.333 168.242,62 170,62 C171.111,62 172,61.333 172,60.5 C172,59.328 173.367,58.997 178.25,58.986 C187.339,58.966 189,58.332 189,54.883 C189,52.987 188.487,52 187.5,52 C186.667,52 186,51.111 186,50 C186,48.242 185.333,48 180.5,48 C176.278,48 175,47.652 175,46.5 C175,43.745 172.168,44.958 171.5,48 Z M179,68 C179,69.619 178.333,70 175.5,70 C173.056,70 172,70.452 172,71.5 C172,72.333 171.111,73 170,73 C168.381,73 168,73.667 168,76.5 C168,79.833 168.167,80 171.5,80 C173.944,80 175,79.548 175,78.5 C175,77.348 176.278,77 180.5,77 L186,77 L186,66 L182.5,66 C179.667,66 179,66.381 179,68 Z"/>
</svg>

