<svg xmlns="http://www.w3.org/2000/svg" width="300" height="300" viewBox="0 0 300 300" version="1.1">
  <defs/>
  <path d="M112.25,81.706 C115.972,80.989 118.585,80.967 121.875,81.625 C124.872,82.224 125,82.454 125,87.219 C125,91.346 124.661,92.276 123,92.71 C121.593,93.078 121,94.074 121,96.071 C121,98.523 120.524,98.999 117.5,99.566 C114.475,100.134 114,100.608 114,103.066 C114,105.524 113.525,105.998 110.5,106.566 C107.318,107.163 107,107.53 107,110.611 C107,113.333 107.393,114 109,114 C110.111,114 111,114.667 111,115.5 C111,116.325 111.675,117 112.5,117 C113.583,117 114,118.111 114,121 C114,124.905 114.083,125 117.5,125 C119.944,125 121,125.452 121,126.5 C121,127.776 123.645,128.002 138.75,128.014 C157.646,128.028 161,128.421 161,130.617 C161,131.663 162.707,132 168,132 C173.556,132 175,132.31 175,133.5 C175,134.333 175.889,135 177,135 C178.758,135 179,135.667 179,140.5 L179,146 L182.5,146 C184.82,146 186,145.532 186,144.611 C186,143.816 187.495,142.942 189.5,142.566 C191.595,142.173 193,141.325 193,140.455 C193,139.655 193.9,139 195,139 C196.111,139 197,138.333 197,137.5 C197,136.675 197.675,136 198.5,136 C199.333,136 200,135.111 200,134 C200,132.667 200.667,132 202,132 C203.111,132 204,131.333 204,130.5 C204,129.675 204.717,129 205.594,129 C206.47,129 207.423,128.1 207.71,127 C207.998,125.9 208.856,125 209.617,125 C210.377,125 211,124.1 211,123 C211,121.667 211.667,121 213,121 C214.333,121 215,120.333 215,119 C215,117.9 215.639,117 216.421,117 C217.202,117 218.138,115.65 218.5,114 C218.862,112.35 219.798,111 220.579,111 C221.361,111 222,110.1 222,109 C222,107.667 222.667,107 224,107 C225.333,107 226,106.333 226,105 C226,103.889 226.667,103 227.5,103 C228.325,103 229,102.325 229,101.5 C229,100.675 229.717,100 230.594,100 C231.47,100 232.423,99.1 232.71,98 C232.998,96.9 233.856,96 234.617,96 C235.377,96 236,95.1 236,94 C236,92.381 235.333,92 232.5,92 C229.667,92 229,92.381 229,94 C229,95.619 228.333,96 225.5,96 C222.167,96 222,96.167 222,99.5 C222,102.833 221.833,103 218.5,103 C215.667,103 215,103.381 215,105 C215,106.859 214.333,107 205.571,107 C193.569,107 193,106.521 193,96.429 C193,89.667 193.179,89 195,89 C196.333,89 197,88.333 197,87 C197,85.667 197.667,85 199,85 C200.1,85 201,84.383 201,83.629 C201,82.168 212.142,80.352 214.013,81.508 C215.762,82.589 215.063,85 213,85 C211.667,85 211,85.667 211,87 C211,88.619 210.333,89 207.5,89 C204.667,89 204,89.381 204,91 C204,92.111 203.333,93 202.5,93 C201.452,93 201,94.056 201,96.5 C201,99.898 201.113,100 204.875,100 C210.772,100 215,98.904 215,97.375 C215,96.47 216.197,96 218.5,96 C220.896,96 222,95.541 222,94.545 C222,93.675 223.405,92.827 225.5,92.434 C227.505,92.058 229,91.184 229,90.389 C229,89.477 230.163,89 232.383,89 C234.926,89 235.897,88.503 236.29,87 C236.725,85.334 237.654,85 241.847,85 C244.616,85 247.091,85.338 247.346,85.751 C247.602,86.164 247.57,88.639 247.275,91.251 C246.849,95.032 246.359,96 244.87,96 C243.841,96 243,96.675 243,97.5 C243,98.325 242.325,99 241.5,99 C240.667,99 240,99.889 240,101 C240,102.163 239.333,103 238.406,103 C237.53,103 236.577,103.9 236.29,105 C236.002,106.1 235.197,107 234.5,107 C233.803,107 232.998,107.9 232.71,109 C232.423,110.1 231.47,111 230.594,111 C229.49,111 229,111.922 229,114 C229,116.078 228.51,117 227.406,117 C226.53,117 225.577,117.9 225.29,119 C225.002,120.1 224.144,121 223.383,121 C222.623,121 222,121.9 222,123 C222,124.333 221.333,125 220,125 C218.889,125 218,125.667 218,126.5 C218,127.325 217.325,128 216.5,128 C215.667,128 215,128.889 215,130 C215,131.333 214.333,132 213,132 C211.667,132 211,132.667 211,134 C211,135.1 210.377,136 209.617,136 C208.856,136 207.998,136.9 207.71,138 C207.423,139.1 206.47,140 205.594,140 C203.208,140 203.673,141.679 206.25,142.37 C210.883,143.611 214.166,143.08 214.71,141 C215.169,139.244 216.074,139 222.117,139 C227.569,139 229,138.688 229,137.5 C229,136.477 230.034,135.996 232.25,135.986 C237,135.966 240,134.959 240,133.383 C240,132.39 241.41,132 245,132 C248.778,132 250,132.367 250,133.5 C250,134.605 251.153,135 254.375,135 C256.781,135 260.156,135.281 261.875,135.625 C264.634,136.177 265,136.645 265,139.625 C265,141.838 264.522,143 263.611,143 C262.816,143 261.942,144.495 261.566,146.5 C261.173,148.595 260.325,150 259.455,150 C258.655,150 258,150.9 258,152 C258,153.111 258.667,154 259.5,154 C260.325,154 261,154.675 261,155.5 C261,156.333 261.889,157 263,157 C264.163,157 265,157.667 265,158.594 C265,159.47 265.9,160.423 267,160.71 C268.503,161.103 269,162.074 269,164.617 C269,167.333 268.606,168 267,168 C265.667,168 265,168.667 265,170 C265,171.619 264.333,172 261.5,172 C259.203,172 258,172.471 258,173.37 C258,174.258 256.365,174.924 253.349,175.264 C250.551,175.58 248.34,176.428 247.799,177.394 C247.245,178.385 245.579,179 243.45,179 C241.05,179 240,179.456 240,180.5 C240,181.548 238.944,182 236.5,182 C233.667,182 233,182.381 233,184 C233,185.111 232.333,186 231.5,186 C229.695,186 229.477,189.659 231.247,190.249 C232.076,190.525 232.613,193.569 232.849,199.332 C233.106,205.58 233.567,208 234.501,208 C235.372,208 236.028,210.296 236.5,215 C237.002,219.995 237.604,222 238.601,222 C239.566,222 240,223.24 240,226 C240,228.739 240.436,230 241.383,230 C243.103,230 243.969,233.077 243.986,239.25 C243.997,242.799 244.379,244 245.5,244 C246.69,244 247,245.444 247,251 C247,256.293 247.337,258 248.383,258 C250.241,258 250.97,261.152 250.986,269.25 C250.997,274.577 251.316,276 252.5,276 C253.576,276 254,277.098 254,279.883 C254,283.324 253.687,283.827 251.256,284.291 C247.886,284.936 247,284.446 247,281.941 C247,280.873 246.381,280 245.625,280 C244.052,280 243,275.741 243,269.375 C243,266.153 242.605,265 241.5,265 C240.31,265 240,263.556 240,258 C240,252.727 239.661,251 238.625,251 C237.096,251 236,246.772 236,240.875 C236,238.097 235.575,237 234.5,237 C233.417,237 233,235.889 233,233 C233,230.261 232.564,229 231.617,229 C230.041,229 229.034,226 229.014,221.25 C229.004,219.034 228.523,218 227.5,218 C226.379,218 225.997,216.799 225.986,213.25 C225.969,207.077 225.103,204 223.383,204 C222.337,204 222,202.293 222,197 L222,190 L216.5,190 C212.278,190 211,190.348 211,191.5 C211,192.652 209.722,193 205.5,193 C201.484,193 200,193.373 200,194.383 C200,195.894 197.035,196.965 192.795,196.986 C190.5,196.998 189.991,197.53 189.434,200.5 C188.872,203.497 188.38,204 186.014,204 C182.794,204 182,206.397 182,216.125 L182,222 L178.5,222 C175.602,222 175,222.364 175,224.117 C175,225.824 174.565,226.117 172.75,225.63 C171.512,225.299 169.938,225.021 169.25,225.014 C168.563,225.006 168,224.325 168,223.5 C168,222.675 167.345,222 166.545,222 C165.675,222 164.827,220.595 164.434,218.5 C164.058,216.495 163.184,215 162.389,215 C161.435,215 161,213.746 161,211 C161,208.111 160.583,207 159.5,207 C158.675,207 158,206.325 158,205.5 C158,204.675 158.675,204 159.5,204 C160.333,204 161,203.111 161,202 C161,200.381 161.667,200 164.5,200 C166.944,200 168,199.548 168,198.5 C168,197.667 168.889,197 170,197 C171.848,197 172,196.335 171.996,188.25 C171.987,169.805 170.764,154 169.346,154 C168.442,154 168,152.685 168,150 C168,147.111 167.583,146 166.5,146 C165.675,146 165,145.325 165,144.5 C165,143.348 163.722,143 159.5,143 C154.667,143 154,142.758 154,141 C154,139.178 153.333,139 146.5,139 C140.5,139 139,138.7 139,137.5 C139,136.229 136.556,136 123,136 C109.444,136 107,136.229 107,137.5 C107,138.555 105.934,139 103.406,139 C100.654,139 99.69,139.468 99.29,141 C99.002,142.1 98.144,143 97.383,143 C96.623,143 96,143.9 96,145 C96,146.111 95.333,147 94.5,147 C93.49,147 93,148.01 93,150.094 C93,152.346 92.456,153.329 91,153.71 C89.9,153.998 89,154.856 89,155.617 C89,156.663 90.707,157 96,157 C101.273,157 103,156.661 103,155.625 C103,154.254 107.12,153 111.625,153 C113.069,153 114,152.412 114,151.5 C114,150.667 114.889,150 116,150 C117.354,150 118,149.333 118,147.937 C118,146.211 118.532,145.925 121.25,146.187 L124.5,146.5 L124.784,157.25 C125.054,167.486 124.97,168 123.034,168 C121.667,168 121,168.656 121,170 C121,171.1 120.381,172 119.625,172 C118.254,172 117,167.88 117,163.375 C117,161.192 116.596,161 112,161 C108.424,161 107,161.392 107,162.375 C107,163.746 102.88,165 98.375,165 C96.931,165 96,165.588 96,166.5 C96,167.722 94.333,168 87,168 L78,168 L78,162.5 C78,158.484 78.373,157 79.383,157 C80.144,157 81.002,156.1 81.29,155 C81.577,153.9 82.53,153 83.406,153 C84.652,153 85,151.908 85,148 C85,144.222 84.633,143 83.5,143 C82.675,143 82,143.619 82,144.375 C82,145.746 77.88,147 73.375,147 C71.931,147 71,147.588 71,148.5 C71,149.583 69.889,150 67,150 C64.166,150 63,150.424 63,151.455 C63,152.325 61.595,153.173 59.5,153.566 C57.495,153.942 56,154.816 56,155.611 C56,156.375 55.325,157 54.5,157 C53.667,157 53,157.889 53,159 C53,160.606 52.333,161 49.617,161 C47.074,161 46.103,160.503 45.71,159 C45.423,157.9 44.47,157 43.594,157 C42.287,157 42,158.262 42,164 C42,169.237 42.343,171 43.361,171 C45.122,171 45.98,178.095 45.991,192.75 C45.999,202.079 46.256,204 47.5,204 C48.722,204 49,205.667 49,213 L49,222 L56,222 L56,227 C56,230.778 55.633,232 54.5,232 C53.667,232 53,232.889 53,234 C53,235.619 52.333,236 49.5,236 C47.056,236 46,235.548 46,234.5 C46,233.667 45.111,233 44,233 C42.14,233 42,232.333 42,223.5 C42,216.143 41.692,214 40.636,214 C38.839,214 38,207.593 38,193.86 C38,184.873 37.741,183 36.5,183 C35.236,183 35,180.728 35,168.55 C35,155.827 34.791,153.982 33.25,153.12 C31.749,152.28 31.5,150.578 31.5,141.154 C31.5,135.111 31.815,129.851 32.201,129.466 C32.586,129.081 34.948,128.535 37.451,128.253 C41.586,127.787 42,127.934 42,129.87 C42,131.097 42.636,132 43.5,132 C44.333,132 45,132.889 45,134 C45,135.111 44.333,136 43.5,136 C42.31,136 42,137.444 42,143 C42,148.293 42.337,150 43.383,150 C44.144,150 45.002,149.1 45.29,148 C45.69,146.468 46.654,146 49.406,146 C51.782,146 53,145.536 53,144.63 C53,143.742 54.635,143.076 57.651,142.736 C60.449,142.42 62.66,141.572 63.201,140.606 C63.854,139.438 65.585,139 69.55,139 C73.5,139 75,138.623 75,137.629 C75,136.739 76.754,136.025 80,135.594 C83.424,135.14 85,134.469 85,133.466 C85,132.466 86.079,132 88.389,132 C91.47,132 91.837,131.682 92.434,128.5 C92.827,126.405 93.675,125 94.545,125 C95.345,125 96,124.1 96,123 C96,121.407 95.338,121.003 92.75,121.014 C88,121.034 85,122.041 85,123.617 C85,124.602 83.634,124.996 80.25,124.986 C72.718,124.965 71,124.203 71,120.883 C71,118.987 71.513,118 72.5,118 C73.333,118 74,117.111 74,116 C74,114.394 74.667,114 77.383,114 C79.926,114 80.897,113.503 81.29,112 C81.726,110.33 82.654,110 86.906,110 C90.767,110 92,109.637 92,108.5 C92,107.417 93.111,107 96,107 C99.333,107 100,106.667 100,105 C100,103.889 100.667,103 101.5,103 C102.325,103 103,102.375 103,101.611 C103,100.824 104.471,99.947 106.398,99.585 C108.976,99.102 109.955,98.315 110.454,96.329 C110.815,94.889 110.72,93.32 110.243,92.843 C108.96,91.56 103,93.026 103,94.625 C103,95.53 101.803,96 99.5,96 C97.104,96 96,96.459 96,97.455 C96,98.325 94.595,99.173 92.5,99.566 C90.495,99.942 89,100.816 89,101.611 C89,102.375 88.1,103 87,103 C85.667,103 85,103.667 85,105 C85,106.758 84.333,107 79.5,107 C74.667,107 74,106.758 74,105 C74,103.889 73.333,103 72.5,103 C71.675,103 71,102.325 71,101.5 C71,100.675 71.675,100 72.5,100 C73.333,100 74,99.111 74,98 C74,96.667 74.667,96 76,96 C77.104,96 78,95.333 78,94.512 C78,93.549 79.412,92.798 82,92.384 C84.413,91.998 86,91.2 86,90.372 C86,89.392 87.429,89 91,89 C95.333,89 96,88.733 96,87 C96,85.19 96.667,85 103,85 C108.404,85 110,84.674 110,83.57 C110,82.783 111.013,81.944 112.25,81.706 Z M100,18.5 C100,17.452 101.056,17 103.5,17 C106.833,17 107,17.167 107,20.5 C107,23.333 106.619,24 105,24 C103.667,24 103,24.667 103,26 C103,27.111 102.333,28 101.5,28 C100.675,28 100,28.675 100,29.5 C100,30.333 99.111,31 98,31 C96.394,31 96,31.667 96,34.383 C96,36.926 95.503,37.897 94,38.29 C92.9,38.577 92,39.53 92,40.406 C92,41.283 91.375,42 90.611,42 C89.816,42 88.942,43.495 88.566,45.5 C88.173,47.595 87.325,49 86.455,49 C85.655,49 85,49.9 85,51 C85,52.1 84.377,53 83.617,53 C82.856,53 81.998,53.9 81.71,55 C81.423,56.1 80.47,57 79.594,57 C78.717,57 78,57.675 78,58.5 C78,59.548 79.056,60 81.5,60 C83.848,60 85,60.465 85,61.412 C85,62.28 86.541,63.085 89,63.5 C91.254,63.881 93,64.74 93,65.468 C93,66.334 95.011,66.905 99.111,67.202 C103.461,67.516 105.491,68.127 106.16,69.322 C107.71,72.091 109.735,71.228 110.434,67.5 C110.827,65.405 111.675,64 112.545,64 C113.345,64 114,63.1 114,62 C114,60.381 113.333,60 110.5,60 C108.056,60 107,59.548 107,58.5 C107,57.675 106.283,57 105.406,57 C104.53,57 103.577,56.1 103.29,55 C103.002,53.9 102.165,53 101.429,53 C100.691,53 99.796,51.429 99.434,49.5 C99.058,47.495 98.184,46 97.389,46 C96.625,46 96,45.1 96,44 C96,42.889 96.667,42 97.5,42 C98.333,42 99,41.111 99,40 C99,38.333 99.667,38 103,38 C106.905,38 107,38.083 107,41.5 C107,43.944 107.452,45 108.5,45 C109.356,45 110,45.899 110,47.094 C110,48.346 110.803,49.397 112,49.71 C113.1,49.998 114,50.889 114,51.69 C114,54.763 117.497,52.519 117.813,49.242 C118.007,47.236 118.674,46 119.563,46 C120.354,46 121,45.1 121,44 C121,42.9 121.655,42 122.455,42 C123.325,42 124.173,40.595 124.566,38.5 C124.966,36.369 125.803,35 126.705,35 C127.52,35 128.423,34.1 128.71,33 C129.107,31.482 130.074,31 132.724,31 C135.415,31 136.082,30.657 135.638,29.5 C135.247,28.48 135.692,28 137.031,28 C138.115,28 139,28.675 139,29.5 C139,30.333 139.889,31 141,31 C142.333,31 143,31.667 143,33 C143,34.111 142.333,35 141.5,35 C140.675,35 140,35.717 140,36.594 C140,37.47 139.1,38.423 138,38.71 C136.9,38.998 136,39.856 136,40.617 C136,41.377 135.1,42 134,42 C132.381,42 132,42.667 132,45.5 C132,47.82 131.532,49 130.611,49 C129.816,49 128.942,50.495 128.566,52.5 C128.173,54.595 127.325,56 126.455,56 C125.655,56 125,56.9 125,58 C125,59.1 124.345,60 123.545,60 C122.675,60 121.827,61.405 121.434,63.5 C121.058,65.505 120.184,67 119.389,67 C118.372,67 118,68.474 118,72.5 L118,78 L107,78 C98.333,78 96,77.708 96,76.625 C96,75.254 91.88,74 87.375,74 C85.931,74 85,73.412 85,72.5 C85,71.348 83.722,71 79.5,71 C75.278,71 74,70.652 74,69.5 C74,68.675 73.325,68 72.5,68 C71.675,68 71,68.675 71,69.5 C71,70.333 70.111,71 69,71 C67.889,71 67,71.667 67,72.5 C67,73.325 66.325,74 65.5,74 C64.667,74 64,74.889 64,76 C64,77.333 63.333,78 62,78 C60.667,78 60,78.667 60,80 C60,81.333 59.333,82 58,82 C56.889,82 56,82.667 56,83.5 C56,84.325 55.325,85 54.5,85 C53.675,85 53,84.377 53,83.617 C53,82.856 52.1,81.998 51,81.71 C48.378,81.024 48.378,78 51,78 C52.333,78 53,77.333 53,76 C53,74.889 53.667,74 54.5,74 C55.325,74 56,73.325 56,72.5 C56,71.667 56.889,71 58,71 C59.333,71 60,70.333 60,69 C60,67.889 60.667,67 61.5,67 C62.325,67 63,66.325 63,65.5 C63,64.667 63.889,64 65,64 C66.333,64 67,63.333 67,62 C67,60.667 67.667,60 69,60 C70.619,60 71,59.333 71,56.5 C71,54.187 71.469,53 72.383,53 C73.144,53 74.002,52.1 74.29,51 C74.577,49.9 75.53,49 76.406,49 C77.333,49 78,48.163 78,47 C78,45.9 78.639,45 79.421,45 C80.202,45 81.138,43.65 81.5,42 C81.862,40.35 82.798,39 83.579,39 C84.361,39 85,38.152 85,37.117 C85,36.074 85.893,35 87,34.71 C88.456,34.329 89,33.346 89,31.094 C89,29.01 89.49,28 90.5,28 C91.333,28 92,27.111 92,26 C92,24.667 92.667,24 94,24 C95.333,24 96,23.333 96,22 C96,20.667 96.667,20 98,20 C99.111,20 100,19.333 100,18.5 Z M116,175.729 C116.825,175.415 119.188,175.122 121.25,175.079 L125,175 L125,180.5 C125,185.333 124.758,186 123,186 C121.381,186 121,186.667 121,189.5 C121,191.82 120.532,193 119.611,193 C118.816,193 117.942,194.495 117.566,196.5 C117.173,198.595 116.325,200 115.455,200 C114.655,200 114,200.9 114,202 C114,203.1 113.345,204 112.545,204 C111.675,204 110.827,205.405 110.434,207.5 C110.058,209.505 109.184,211 108.389,211 C107.625,211 107,211.9 107,213 C107,214.333 106.333,215 105,215 C103.667,215 103,215.667 103,217 C103,218.1 102.374,219 101.608,219 C99.876,219 98.753,223.169 99.589,226.5 C100.149,228.73 100.732,229 104.992,229 C109.405,229 109.807,229.208 110.3,231.75 C111.152,236.139 110.017,240 107.875,240 C106.844,240 106,239.361 106,238.58 C106,237.569 104.123,236.958 99.5,236.463 C94.968,235.978 93,235.348 93,234.384 C93,233.436 91.739,233 89,233 C86.25,233 85,233.435 85,234.392 C85,236.124 80.831,237.247 77.5,236.411 C74.815,235.737 74.013,233 76.5,233 C77.333,233 78,232.111 78,231 C78,229.381 77.333,229 74.5,229 C72.121,229 71,228.539 71,227.56 C71,226.619 69.703,226.013 67.25,225.81 C63.807,225.525 63.474,225.228 63.181,222.174 C62.925,219.506 63.271,218.742 64.931,218.308 C66.069,218.01 67,217.144 67,216.383 C67,215.623 67.9,215 69,215 C70.111,215 71,215.667 71,216.5 C71,217.466 71.978,218.005 73.75,218.014 C78.032,218.035 81,219.101 81,220.617 C81,221.564 82.261,222 85,222 C87.889,222 89,221.583 89,220.5 C89,219.675 89.717,219 90.594,219 C91.47,219 92.423,218.1 92.71,217 C92.998,215.9 93.856,215 94.617,215 C95.377,215 96,214.1 96,213 C96,211.9 96.623,211 97.383,211 C98.144,211 99.002,210.1 99.29,209 C99.577,207.9 100.53,207 101.406,207 C102.561,207 103,206.036 103,203.5 C103,200.667 103.381,200 105,200 C106.111,200 107,199.333 107,198.5 C107,197.675 107.675,197 108.5,197 C109.548,197 110,195.944 110,193.5 C110,190.167 109.833,190 106.5,190 C104.056,190 103,190.452 103,191.5 C103,192.325 102.373,193 101.607,193 C100.841,193 99.955,192.325 99.638,191.5 C99.322,190.675 98.374,190 97.531,190 C96.689,190 96,190.675 96,191.5 C96,192.538 94.957,193 92.617,193 C89.783,193 89.154,192.585 88.745,190.448 C88.477,189.044 88.478,185.94 88.747,183.55 L89.237,179.204 L101.155,178.852 C108.344,178.64 113.356,178.063 113.786,177.4 C114.179,176.795 115.175,176.043 116,175.729 Z M204,151.383 C204,153.142 200.902,153.969 194.25,153.986 C190.256,153.997 189,154.359 189,155.5 C189,156.633 187.778,157 184,157 L179,157 L179,164 C179,169.556 179.31,171 180.5,171 C181.676,171 182,172.375 182,177.375 C182,180.881 182.281,185.156 182.625,186.875 C183.157,189.533 183.694,190 186.219,190 C188.346,190 189.335,189.433 189.71,188 C190.169,186.244 191.074,186 197.117,186 C203.333,186 204,185.806 204,184 C204,182.381 204.667,182 207.5,182 C209.944,182 211,181.548 211,180.5 C211,179.452 212.056,179 214.5,179 L218,179 L218,150 L211,150 C205.707,150 204,150.337 204,151.383 Z M225,61.5 C225,60.236 227.278,60 239.5,60 C253.333,60 254,60.092 254,62 C254,63.111 253.333,64 252.5,64 C251.667,64 251,64.889 251,66 C251,67.1 250.373,68 249.607,68 C248.841,68 247.955,68.675 247.638,69.5 C247.277,70.441 245.748,71 243.531,71 C241.191,71 240,71.467 240,72.383 C240,74.138 236.16,74.885 230.448,74.241 C227.593,73.919 226,73.249 226,72.37 C226,71.332 224.184,71 218.5,71 C212.742,71 211,71.325 211,72.399 C211,73.396 208.995,73.998 204,74.5 C199.005,75.002 197,75.604 197,76.601 C197,77.566 195.76,78 193,78 C190.261,78 189,78.436 189,79.383 C189,81.103 185.923,81.969 179.75,81.986 C176.201,81.997 175,82.379 175,83.5 C175,84.753 172.944,85 162.5,85 L150,85 L150,81.5 C150,78.19 150.183,78 153.383,78 C155.926,78 156.897,77.503 157.29,76 C157.751,74.237 158.654,74 164.906,74 C170.258,74 172,73.662 172,72.625 C172,71.601 174.187,71.136 180.583,70.8 C185.979,70.517 189.455,69.881 189.946,69.088 C190.449,68.273 194.314,67.629 200.863,67.268 C207.913,66.879 211,66.335 211,65.48 C211,64.081 215.415,63 221.125,63 C223.903,63 225,62.575 225,61.5 Z M204,32.915 C204,31.594 210.762,31.786 211.206,33.118 C211.412,33.737 214.804,34.468 218.789,34.753 L226,35.269 L225.986,39.884 C225.968,45.93 225.092,49 223.383,49 C222.623,49 222,49.9 222,51 C222,52.619 221.333,53 218.5,53 C215.083,53 215,52.905 215,49 C215,46.111 215.417,45 216.5,45 C217.325,45 218,44.325 218,43.5 C218,42.262 216.167,42 207.5,42 C197.667,42 197,42.127 197,44 C197,45.333 196.333,46 195,46 C193.381,46 193,46.667 193,49.5 C193,51.944 192.548,53 191.5,53 C190.675,53 190,52.325 190,51.5 C190,50.667 189.111,50 188,50 C186.222,50 186,49.333 186,44 C186,39.333 186.333,38 187.5,38 C188.325,38 189,37.378 189,36.617 C189,35.626 191.122,35.036 196.5,34.532 C200.625,34.146 204,33.418 204,32.915 Z M232,151.5 C232,152.325 231.325,153 230.5,153 C229.417,153 229,154.111 229,157 C229,159.889 228.583,161 227.5,161 C226.452,161 226,162.056 226,164.5 C226,166.813 226.469,168 227.383,168 C228.144,168 229.014,168.947 229.317,170.105 C230.114,173.152 232.447,171.885 232.811,168.207 C233.078,165.51 233.606,164.977 236.561,164.423 C238.519,164.055 240,163.179 240,162.389 C240,161.625 240.623,161 241.383,161 C242.144,161 243.002,160.1 243.29,159 C243.577,157.9 244.53,157 245.406,157 C246.561,157 247,156.036 247,153.5 L247,150 L239.5,150 C233.5,150 232,150.3 232,151.5 Z M251,159 C251,160.607 250.333,161 247.611,161 C244.53,161 244.163,161.318 243.566,164.5 C242.992,167.562 242.54,168 239.955,168 C237.995,168 237,168.505 237,169.5 C237,170.548 238.056,171 240.5,171 C242.944,171 244,170.548 244,169.5 C244,168.452 245.056,168 247.5,168 C249.896,168 251,167.541 251,166.545 C251,165.675 252.405,164.827 254.5,164.434 C257.682,163.837 258,163.47 258,160.389 C258,157.183 257.811,157 254.5,157 C251.667,157 251,157.381 251,159 Z M240,144.412 C240,145.28 241.541,146.085 244,146.5 C246.459,146.915 248,147.72 248,148.588 C248,149.365 248.45,150 249,150 C249.55,150 250,149.325 250,148.5 C250,147.667 250.889,147 252,147 C253.333,147 254,146.333 254,145 C254,143.19 253.333,143 247,143 C241.638,143 240,143.33 240,144.412 Z M168,211.5 C168,214.833 168.167,215 171.5,215 C174.333,215 175,214.619 175,213 C175,211.667 174.333,211 173,211 C171.889,211 171,210.333 171,209.5 C171,208.675 170.325,208 169.5,208 C168.452,208 168,209.056 168,211.5 Z M227.75,67.679 C226.787,67.936 226,68.817 226,69.637 C226,70.715 226.897,71.04 229.25,70.813 C231.318,70.614 232.5,69.96 232.5,69.014 C232.5,67.435 230.629,66.909 227.75,67.679 Z M104,126.5 C104,127.325 104.675,128 105.5,128 C106.325,128 107,127.325 107,126.5 C107,125.675 106.325,125 105.5,125 C104.675,125 104,125.675 104,126.5 Z"/>
</svg>

