<svg xmlns="http://www.w3.org/2000/svg" width="300" height="300" viewBox="0 0 300 300" version="1.1">
  <defs/>
  <path d="M151.75,38.689 C157.016,37.313 164,38.412 164,40.617 C164,41.531 162.813,42 160.5,42 C158.187,42 157,42.469 157,43.383 C157,44.144 156.061,45.012 154.913,45.312 C153.576,45.662 152.95,46.502 153.171,47.648 C153.484,49.276 154.669,49.41 166.258,49.13 L179,48.822 L179,57 L175,57 C172.111,57 171,57.417 171,58.5 C171,59.749 169.012,60 159.111,60 L147.223,60 L146.566,63.5 C146.204,65.429 145.309,67 144.571,67 C143.629,67 143.107,68.981 142.807,73.686 C142.556,77.625 141.892,80.536 141.191,80.77 C139.461,81.346 139.728,85 141.5,85 C142.7,85 143,86.5 143,92.5 C143,99.333 142.822,100 141,100 C139.279,100 139.002,100.662 139.014,104.75 C139.031,110.923 139.897,114 141.617,114 C142.377,114 143,114.619 143,115.375 C143,117.079 147.368,118.003 155.375,117.991 C165.192,117.977 172,116.9 172,115.361 C172,114.32 173.998,114 180.5,114 C187.228,114 189,113.7 189,112.561 C189,110.793 196.381,109.519 202.146,110.293 C206.97,110.94 207.036,110.995 207.295,114.628 L207.5,117.5 L200.25,117.794 C194.704,118.019 193,118.43 193,119.544 C193,120.628 191.699,121 187.906,121 C183.654,121 182.726,121.33 182.29,123 C181.816,124.811 180.926,125 172.883,125 C166.026,125 164,125.313 164,126.371 C164,128.207 154.23,129.284 145.601,128.4 C141.029,127.932 139,127.305 139,126.362 C139,125.613 138.1,125 137,125 C135.889,125 135,124.333 135,123.5 C135,122.675 134.325,122 133.5,122 C132.567,122 132,121.056 132,119.5 C132,117.944 131.433,117 130.5,117 C129.335,117 128.955,115.494 128.799,110.25 C128.689,106.537 128.697,101.813 128.818,99.75 L129.036,96 L121.518,96 C115.806,96 114,96.33 114,97.375 C114,98.746 109.88,100 105.375,100 C103.931,100 103,100.588 103,101.5 C103,102.548 101.944,103 99.5,103 C97.104,103 96,103.459 96,104.455 C96,105.984 90.637,107.458 87.35,106.833 C85.88,106.553 85.438,105.406 85.198,101.241 C84.922,96.454 85.081,96 87.041,96 C89.117,96 89.176,95.668 88.844,85.928 C88.56,77.604 88.196,75.687 86.75,74.879 C85.215,74.021 85,72.203 85,60.075 L85,46.25 L88.125,45.625 C94.31,44.388 96,44.79 96,47.5 C96,48.962 96.574,50 97.383,50 C99.131,50 100.062,53.438 99.32,57.149 L98.75,60 L109.875,60 C119.097,60 121,60.257 121,61.5 C121,62.333 121.889,63 123,63 C124.667,63 125,63.667 125,67 L125,71 L119.5,71 C115.278,71 114,70.652 114,69.5 C114,68.675 113.373,68 112.607,68 C111.841,68 110.955,68.675 110.638,69.5 C110.232,70.558 108.581,71 105.031,71 L100,71 L100,74.875 C100,80.772 98.904,85 97.375,85 C96.47,85 96,86.197 96,88.5 L96,92 L101,92 C104.778,92 106,91.633 106,90.5 C106,89.277 107.67,89 115.031,89 C122.137,89 124.186,88.68 124.638,87.5 C124.994,86.574 126.513,86 128.607,86 L132,86 L132,80.5 C132,76.278 132.348,75 133.5,75 C134.548,75 135,73.944 135,71.5 C135,69.056 134.548,68 133.5,68 C132.333,68 132,66.667 132,62 L132,56 L135.5,56 C138.833,56 139,55.833 139,52.5 C139,49.667 139.381,49 141,49 C142.619,49 143,48.333 143,45.5 C143,42.167 143.167,42 146.5,42 C148.864,42 150,41.537 150,40.573 C150,39.789 150.787,38.941 151.75,38.689 Z M132,158.383 C132,157.469 133.187,157 135.5,157 C138.333,157 139,157.381 139,159 C139,160.333 139.667,161 141,161 C142.1,161 143,161.623 143,162.383 C143,163.144 142.1,164.002 141,164.29 C139.544,164.671 139,165.654 139,167.906 C139,170.99 139.019,171 144.5,171 C148.722,171 150,170.652 150,169.5 C150,168.238 152.222,168 164,168 C175.378,168 178,168.264 178,169.409 C178,170.513 180.823,170.975 191,171.538 C200.999,172.091 204,172.573 204,173.628 C204,174.521 205.184,175 207.389,175 C210.47,175 210.837,175.318 211.434,178.5 C211.827,180.595 212.675,182 213.545,182 C214.689,182 215,183.604 215,189.5 C215,195.5 215.3,197 216.5,197 C217.325,197 218,197.675 218,198.5 C218,199.325 217.325,200 216.5,200 C215.246,200 215,202.066 215,212.594 C215,224.346 214.866,225.222 213,225.71 C211.344,226.143 211,227.074 211,231.117 C211,234.791 210.629,236 209.5,236 C208.445,236 208,237.066 208,239.594 C208,242.346 207.532,243.31 206,243.71 C204.9,243.998 204,244.856 204,245.617 C204,246.72 201.483,247 191.55,247 C180.732,247 178.971,247.229 178.12,248.75 C177.333,250.156 175.454,250.569 168.57,250.853 C162.067,251.12 160,251.542 160,252.603 C160,253.489 158.902,254 157,254 C154.667,254 154,254.444 154,256 C154,257.758 153.333,258 148.5,258 C144.43,258 143,258.367 143,259.412 C143,261.153 136.265,262.437 132.022,261.505 C128.964,260.833 127.734,258 130.5,258 C131.548,258 132,256.944 132,254.5 C132,251.19 132.183,251 135.383,251 C137.926,251 138.897,250.503 139.29,249 C139.751,247.237 140.654,247 146.906,247 C152.329,247 154,246.669 154,245.596 C154,244.526 156.493,244.023 164.5,243.477 C172.417,242.937 175,242.422 175,241.381 C175,240.29 177.312,240 186,240 C195.111,240 197,239.742 197,238.5 C197,237.675 197.717,237 198.594,237 C199.47,237 200.423,236.1 200.71,235 C200.998,233.9 201.856,233 202.617,233 C203.671,233 204,231.219 204,225.5 C204,219.753 204.326,218 205.394,218 C206.44,218 206.879,216.001 207.151,210.002 C207.67,198.587 207.094,193 205.399,193 C204.391,193 204,191.635 204,188.117 C204,182.762 203.086,182.042 196.25,182.014 C194.034,182.004 193,181.523 193,180.5 C193,179.209 189.722,179 169.5,179 C149.738,179 146,179.229 146,180.437 C146,181.327 144.763,181.993 142.75,182.187 L139.5,182.5 L139.236,213.25 L138.971,244 L132,244 L132,224 C132,207.697 131.746,204 130.625,204 C128.501,204 128,199.278 128,179.281 C128,161.654 128.091,160.789 130,160.29 C131.1,160.002 132,159.144 132,158.383 Z M145,139.729 C145.825,139.415 152.912,139.122 160.75,139.079 C174.36,139.004 175,139.09 175,141 C175,142.612 175.667,143 178.439,143 C181.739,143 181.904,143.178 182.542,147.429 C183.261,152.225 182.694,154 180.441,154 C179.461,154 179,155.119 179,157.5 C179,160.833 178.833,161 175.5,161 C172.667,161 172,160.619 172,159 C172,157.889 172.667,157 173.5,157 C174.548,157 175,155.944 175,153.5 C175,150.167 174.833,150 171.5,150 C169.056,150 168,149.548 168,148.5 C168,147.452 166.944,147 164.5,147 C162.056,147 161,147.452 161,148.5 C161,149.756 158.889,150 148,150 C137.111,150 135,150.244 135,151.5 C135,152.466 134.022,153.005 132.25,153.014 C127.968,153.035 125,154.101 125,155.617 C125,156.663 123.293,157 118,157 L111,157 L111,153.5 C111,151.056 111.452,150 112.5,150 C113.333,150 114,149.111 114,148 C114,146.267 114.667,146 119,146 C122.58,146 124,145.609 124,144.622 C124,143.585 126.243,143.137 133.075,142.811 C138.065,142.572 142.453,141.91 142.825,141.338 C143.196,140.767 144.175,140.043 145,139.729 Z M154,205.594 C154,204.189 156.367,204 174,204 C190.614,204 194,204.241 194,205.421 C194,206.202 195.321,207.131 196.935,207.486 C200.382,208.243 201.56,211.726 200.496,218.022 C199.798,222.154 197,223.737 197,220 C197,218.9 196.361,218 195.579,218 C194.798,218 193.872,216.696 193.522,215.102 C192.719,211.446 191.17,211.031 178.25,211.014 C168.662,211.001 168,211.129 168,213 C168,214.619 167.333,215 164.5,215 C161.167,215 161,215.167 161,218.5 C161,221.333 160.619,222 159,222 C157.9,222 157,221.377 157,220.617 C157,219.856 156.1,218.998 155,218.71 C153.9,218.423 153,217.47 153,216.594 C153,215.717 152.325,215 151.5,215 C149.036,215 149.491,208.366 152,207.71 C153.1,207.423 154,206.47 154,205.594 Z"/>
</svg>

