<svg xmlns="http://www.w3.org/2000/svg" width="300" height="300" viewBox="0 0 300 300" version="1.1">
  <defs/>
  <path d="M148.25,80.706 C151.788,80.024 192.243,79.959 194.75,80.63 C196.855,81.194 197,81.77 197,89.567 C197,96.328 196.683,98.078 195.322,98.84 C194.127,99.509 193.516,101.539 193.202,105.889 C192.89,110.204 192.354,112 191.38,112 C190.437,112 190,113.266 190,116 C190,119.333 189.667,120 188,120 C186.333,120 186,120.667 186,124 C186,126.722 185.562,128 184.629,128 C183.739,128 183.025,129.754 182.594,133 C181.97,137.707 181.76,138 179.011,138 C176.465,138 176.006,138.449 175.434,141.5 C175.073,143.425 174.205,145 173.505,145 C172.806,145 171.998,145.9 171.71,147 C171.423,148.1 170.47,149 169.594,149 C168.717,149 168,149.675 168,150.5 C168,151.548 166.944,152 164.5,152 C161.167,152 161,151.833 161,148.5 C161,146.056 161.452,145 162.5,145 C163.325,145 164,144.325 164,143.5 C164,142.667 164.889,142 166,142 C167.619,142 168,141.333 168,138.5 C168,136.056 167.548,135 166.5,135 C165.675,135 165,135.675 165,136.5 C165,137.721 163.346,138 156.117,138 C148.074,138 147.184,138.189 146.71,140 C146.31,141.532 145.346,142 142.594,142 C140.066,142 139,142.445 139,143.5 C139,145.015 138.658,145.073 127.664,145.408 C124.237,145.513 122.547,146.058 121.864,147.278 C121.243,148.388 119.675,149 117.45,149 C115.05,149 114,149.456 114,150.5 C114,151.722 112.333,152 105,152 L96,152 L96,147.111 C96,142.316 96.067,142.21 99.5,141.566 L103,140.909 L103,132.455 C103,125.96 102.682,124 101.629,124 C100.664,124 100.054,121.927 99.569,117 C99.066,111.895 98.489,110 97.439,110 C96.288,110 96,108.1 96,100.5 L96,91 L105,91 C111.957,91 114,90.689 114,89.629 C114,88.621 116.385,88.071 123,87.554 C129.793,87.022 132,86.5 132,85.425 C132,84.327 133.608,84 139,84 C144.404,84 146,83.674 146,82.57 C146,81.783 147.012,80.944 148.25,80.706 Z M221.751,147.25 C222.216,145.851 225,145.517 225,146.86 C225,147.333 227.522,147.981 230.605,148.299 C233.688,148.617 236.339,149.017 236.496,149.189 C236.653,149.36 236.548,151.863 236.263,154.75 C235.915,158.282 235.296,160 234.373,160 C233.392,160 233,161.428 233,165 C233,169.333 232.733,170 231,170 C229.333,170 229,170.667 229,174 C229,176.834 228.576,178 227.545,178 C226.675,178 225.827,179.405 225.434,181.5 C225.058,183.505 224.184,185 223.389,185 C222.625,185 222,185.9 222,187 C222,188.1 221.361,189 220.579,189 C219.798,189 218.862,190.35 218.5,192 C218.138,193.65 217.202,195 216.421,195 C215.639,195 215,195.914 215,197.031 C215,198.149 214.352,199.311 213.561,199.615 C212.77,199.919 211.844,201.434 211.504,202.982 C211.15,204.593 210.055,206.014 208.943,206.305 C207.874,206.584 207,207.53 207,208.406 C207,209.283 206.325,210 205.5,210 C204.667,210 204,210.889 204,212 C204,213.333 203.333,214 202,214 C200.889,214 200,214.667 200,215.5 C200,216.548 198.944,217 196.5,217 C193.625,217 193,217.37 193,219.073 C193,222.711 189.548,220.988 189.181,217.166 C188.925,214.506 189.272,213.742 190.931,213.308 C192.069,213.01 193,212.144 193,211.383 C193,210.623 193.9,210 195,210 C196.333,210 197,209.333 197,208 C197,206.9 197.625,206 198.389,206 C199.184,206 200.058,204.505 200.434,202.5 C200.827,200.405 201.675,199 202.545,199 C203.345,199 204,198.325 204,197.5 C204,196.675 204.625,196 205.389,196 C206.184,196 207.058,194.505 207.434,192.5 C207.827,190.405 208.675,189 209.545,189 C210.345,189 211,188.1 211,187 C211,185.667 211.667,185 213,185 C214.619,185 215,184.333 215,181.5 C215,179.18 215.468,178 216.389,178 C217.184,178 218.058,176.505 218.434,174.5 C218.827,172.405 219.675,171 220.545,171 C221.576,171 222,169.834 222,167 C222,164.111 222.417,163 223.5,163 C224.333,163 225,162.111 225,161 C225,159.889 224.333,159 223.5,159 C222.675,159 222,158.325 222,157.5 C222,156.452 220.944,156 218.5,156 C216.219,156 215,156.473 215,157.358 C215,158.873 207.045,160 196.353,160 C191.65,160 190,160.355 190,161.366 C190,162.344 187.983,162.876 182.887,163.24 C178.547,163.551 175.454,164.265 174.955,165.073 C174.46,165.873 171.54,166.562 167.568,166.815 C162.844,167.116 161,167.621 161,168.616 C161,169.584 159.683,170 156.625,170 C150.259,170 146,171.052 146,172.625 C146,173.69 143.97,174 137,174 C130.004,174 128,174.308 128,175.383 C128,177.241 124.848,177.97 116.75,177.986 C111.606,177.997 110,178.336 110,179.414 C110,180.532 107.576,180.898 98.428,181.164 C88.666,181.447 86.703,181.774 85.878,183.25 C85.242,184.39 83.697,185 81.45,185 C79.173,185 78,185.472 78,186.389 C78,187.184 76.505,188.058 74.5,188.434 L71,189.091 L71,232 L67.625,232 C64.645,232 64.177,231.634 63.625,228.875 C63.281,227.156 63,224.456 63,222.875 C63,220.986 62.486,220 61.5,220 C60.675,220 60,219.325 60,218.5 C60,217.675 60.675,217 61.5,217 C62.695,217 63.001,215.526 63.003,209.75 C63.005,205.762 63.301,195.412 63.66,186.75 C64.166,174.557 64.616,171 65.657,171 C66.395,171 67,170.1 67,169 C67,167.394 67.667,167 70.383,167 C72.926,167 73.897,167.497 74.29,169 C74.671,170.456 75.654,171 77.906,171 C79.99,171 81,171.49 81,172.5 C81,173.333 81.889,174 83,174 C84.1,174 85,173.381 85,172.625 C85,170.678 89.554,170 102.625,170 C112.069,170 114,169.745 114,168.5 C114,167.278 115.667,167 123,167 C129.996,167 132,166.692 132,165.617 C132,163.759 135.152,163.03 143.25,163.014 C148.577,163.003 150,162.684 150,161.5 C150,160.588 150.931,160 152.375,160 C156.88,160 161,158.746 161,157.375 C161,156.297 163.24,156 171.383,156 C180.926,156 181.809,155.838 182.29,154 C182.762,152.196 183.654,152 191.406,152 C198.132,152 200,151.694 200,150.591 C200,149.488 202.32,149.108 210.668,148.841 C218.059,148.605 221.463,148.116 221.751,147.25 Z M164,172 C164,170.242 164.667,170 169.5,170 C174.333,170 175,170.242 175,172 C175,173.333 175.667,174 177,174 C178.758,174 179,174.667 179,179.5 C179,184.333 178.758,185 177,185 C175.667,185 175,184.333 175,183 C175,181.381 174.333,181 171.5,181 C169.104,181 168,181.459 168,182.455 C168,183.325 166.595,184.173 164.5,184.566 C161.318,185.163 161,185.53 161,188.611 C161,191.373 160.617,192 158.927,192 C157.49,192 156.957,192.538 157.19,193.75 C157.376,194.713 158.309,195.463 159.264,195.417 C160.219,195.371 162.575,195.258 164.5,195.167 C166.87,195.054 168,194.516 168,193.5 C168,192.258 169.889,192 179,192 L190,192 L190,197.094 C190,201.346 189.67,202.274 188,202.71 C186.497,203.103 186,204.074 186,206.617 C186,208.957 185.538,210 184.5,210 C183.588,210 183,210.931 183,212.375 C183,216.88 181.746,221 180.375,221 C179.47,221 179,222.197 179,224.5 C179,227.333 178.619,228 177,228 C175.667,228 175,228.667 175,230 C175,231.111 174.333,232 173.5,232 C172.675,232 172,232.717 172,233.594 C172,234.47 171.1,235.423 170,235.71 C168.608,236.074 168,237.074 168,239 C168,240.926 167.392,241.926 166,242.29 C164.528,242.675 164,243.654 164,246 C164,248.346 164.528,249.325 166,249.71 C167.1,249.998 168,250.856 168,251.617 C168,252.627 169.484,253 173.5,253 C178.333,253 179,253.242 179,255 C179,256.619 179.667,257 182.5,257 C184.944,257 186,257.452 186,258.5 C186,259.555 187.066,260 189.594,260 C192.346,260 193.31,260.468 193.71,262 C194.081,263.417 195.074,264 197.117,264 C198.749,264 200.006,264.542 200.014,265.25 C200.021,265.938 200.299,267.512 200.63,268.75 C201.184,270.817 200.898,271 197.117,271 C194.124,271 193,270.59 193,269.5 C193,268.534 192.022,267.995 190.25,267.986 C185.968,267.965 183,266.899 183,265.383 C183,264.373 181.516,264 177.5,264 C173.5,264 172,263.625 172,262.625 C172,261.254 167.88,260 163.375,260 C161.931,260 161,259.412 161,258.5 C161,257.452 159.944,257 157.5,257 C155.056,257 154,257.452 154,258.5 C154,259.333 153.111,260 152,260 C150.667,260 150,260.667 150,262 C150,263.1 149.375,264 148.611,264 C147.816,264 146.942,265.495 146.566,267.5 C146.173,269.595 145.325,271 144.455,271 C143.655,271 143,271.9 143,273 C143,274.333 142.333,275 141,275 C139.667,275 139,275.667 139,277 C139,278.111 138.333,279 137.5,279 C136.675,279 136,279.675 136,280.5 C136,281.333 135.111,282 134,282 C132.381,282 132,282.667 132,285.5 C132,288.333 131.619,289 130,289 C128.667,289 128,289.667 128,291 C128,292.549 127.333,293 125.045,293 C122.46,293 122.008,293.438 121.434,296.5 L120.777,300 L113.889,300 C108.69,300 107,299.661 107,298.617 C107,297.856 107.9,296.998 109,296.71 C110.1,296.423 111,295.506 111,294.673 C111,293.813 112.261,292.882 113.916,292.518 C115.521,292.166 117.081,291.23 117.385,290.439 C117.689,289.648 118.626,289 119.469,289 C120.333,289 121,288.129 121,287 C121,285.667 121.667,285 123,285 C124.538,285 125,284.333 125,282.117 C125,280.074 125.583,279.081 127,278.71 C128.1,278.423 129,277.47 129,276.594 C129,275.717 129.675,275 130.5,275 C131.333,275 132,274.111 132,273 C132,271.9 132.655,271 133.455,271 C134.325,271 135.173,269.595 135.566,267.5 C135.942,265.495 136.816,264 137.611,264 C138.375,264 139,263.377 139,262.617 C139,261.856 139.9,260.998 141,260.71 C142.532,260.31 143,259.346 143,256.594 C143,253.153 142.851,253 139.5,253 C137.056,253 136,252.548 136,251.5 C136,250.417 134.889,250 132,250 C128.667,250 128,249.667 128,248 C128,246.19 127.333,246 121,246 L114,246 L114,242 C114,239.248 114.434,238 115.393,238 C116.159,238 117.045,237.325 117.362,236.5 C117.723,235.559 119.252,235 121.469,235 C124.333,235 125,235.378 125,237 C125,238.758 125.667,239 130.5,239 C134.5,239 136,239.375 136,240.375 C136,241.746 140.12,243 144.625,243 C146.069,243 147,243.588 147,244.5 C147,245.548 148.056,246 150.5,246 C153.333,246 154,245.619 154,244 C154,242.889 154.667,242 155.5,242 C156.51,242 157,240.99 157,238.906 C157,236.654 157.544,235.671 159,235.29 C160.1,235.002 161,234.144 161,233.383 C161,232.623 161.675,232 162.5,232 C163.333,232 164,231.111 164,230 C164,228.667 164.667,228 166,228 C167.619,228 168,227.333 168,224.5 C168,222.152 168.465,221 169.412,221 C170.28,221 171.085,219.459 171.5,217 C171.915,214.541 172.72,213 173.588,213 C174.458,213 175.005,211.945 175.014,210.25 C175.021,208.738 175.299,206.488 175.63,205.25 C176.207,203.096 175.972,203 170.117,203 C165.346,203 164,203.33 164,204.5 C164,205.738 162.167,206 153.5,206 L143,206 L143,200.5 C143,196.278 143.348,195 144.5,195 C145.325,195 146,194.325 146,193.5 C146,192.667 146.889,192 148,192 C149.619,192 150,191.333 150,188.5 C150,185.964 150.439,185 151.594,185 C152.47,185 153.423,184.1 153.71,183 C153.998,181.9 154.803,181 155.5,181 C156.197,181 157.002,180.1 157.29,179 C157.577,177.9 158.53,177 159.406,177 C160.283,177 161,176.325 161,175.5 C161,174.675 161.675,174 162.5,174 C163.333,174 164,173.111 164,172 Z M166.884,0.664 C167.773,0.426 169.963,0.18 171.75,0.116 L175,0 L175,9.5 C175,17.278 174.728,19 173.5,19 C172.588,19 172,19.931 172,21.375 C172,25.88 170.746,30 169.375,30 C168.371,30 168,31.519 168,35.627 L168,41.254 L173.107,40.764 C175.915,40.494 178.598,39.649 179.068,38.887 C179.701,37.861 183.059,37.413 191.962,37.166 L204,36.833 L204,42.416 C204,47.333 203.761,48 202,48 C200.9,48 200,48.623 200,49.383 C200,51.041 196.942,51.973 191.5,51.973 C186.058,51.973 183,51.041 183,49.383 C183,48.329 181.219,48 175.5,48 C169.5,48 168,48.3 168,49.5 C168,50.548 166.944,51 164.5,51 C161.149,51 161,51.153 161,54.594 C161,57.346 160.532,58.31 159,58.71 C157.893,59 157,60.074 157,61.117 C157,62.152 156.361,63 155.579,63 C154.798,63 153.862,64.35 153.5,66 C153.138,67.65 152.202,69 151.421,69 C150.639,69 150,69.9 150,71 C150,72.111 149.333,73 148.5,73 C147.675,73 146.994,72.438 146.986,71.75 C146.979,71.063 146.701,69.487 146.37,68.25 C145.883,66.435 146.176,66 147.883,66 C149.782,66 150,65.434 150,60.5 C150,56.278 150.348,55 151.5,55 C152.325,55 153,54.325 153,53.5 C153,52.262 151.167,52 142.5,52 C133.833,52 132,52.262 132,53.5 C132,54.548 130.944,55 128.5,55 C125.083,55 125,55.095 125,59 C125,61.889 125.417,63 126.5,63 C127.325,63 128,63.675 128,64.5 C128,65.333 128.889,66 130,66 C131.333,66 132,66.667 132,68 C132,69.333 131.333,70 130,70 C128.889,70 128,70.667 128,71.5 C128,72.325 127.325,73 126.5,73 C125.675,73 125,72.325 125,71.5 C125,70.667 124.111,70 123,70 C121.667,70 121,69.333 121,68 C121,66.9 120.375,66 119.611,66 C118.816,66 117.942,64.505 117.566,62.5 L116.909,59 L108.455,59 C101.606,59 100,59.285 100,60.5 C100,61.412 99.069,62 97.625,62 C93.12,62 89,63.254 89,64.625 C89,65.381 88.1,66 87,66 C85.889,66 85,66.667 85,67.5 C85,68.548 83.944,69 81.5,69 C78.167,69 78,68.833 78,65.5 C78,63.104 78.459,62 79.455,62 C80.325,62 81.173,60.595 81.566,58.5 C82.22,55.014 82.245,55 87.611,55 C91.6,55 93,54.631 93,53.58 C93,52.569 94.877,51.958 99.5,51.463 C104.032,50.978 106,50.348 106,49.384 C106,48.436 107.261,48 110,48 L114,48 L114,19 L117.929,19 C122.213,19 125,20.999 125,24.071 C125,25.132 125.675,26 126.5,26 C127.548,26 128,27.056 128,29.5 C128,31.944 127.548,33 126.5,33 C125.417,33 125,34.111 125,37 C125,39.889 124.583,41 123.5,41 C121.405,41 121.616,43.679 123.75,44.165 C124.713,44.384 130.113,44.395 135.75,44.188 C143.713,43.896 146,43.499 146,42.406 C146,41.368 147.441,41 151.5,41 C156.333,41 157,40.758 157,39 C157,37.9 157.619,37 158.375,37 C159.904,37 161,32.772 161,26.875 C161,24.097 161.425,23 162.5,23 C163.658,23 164.002,21.691 164.009,17.25 C164.024,7.349 165.1,1.14 166.884,0.664 Z M124,96.5 C124,97.466 123.022,98.005 121.25,98.014 C116.968,98.035 114,99.101 114,100.617 C114,101.377 113.1,102 112,102 C110.889,102 110,102.667 110,103.5 C110,104.325 109.325,105 108.5,105 C107.417,105 107,106.111 107,109 C107,111.722 107.438,113 108.371,113 C109.379,113 109.929,115.385 110.446,122 C110.978,128.793 111.5,131 112.575,131 C113.36,131 114,131.951 114,133.117 C114,134.824 114.435,135.117 116.25,134.63 C117.487,134.299 121.537,134.021 125.25,134.014 C130.577,134.003 132,133.684 132,132.5 C132,131.675 132.717,131 133.594,131 C134.47,131 135.423,130.1 135.71,129 C135.998,127.9 136.856,127 137.617,127 C138.377,127 139,126.1 139,125 C139,123.9 139.623,123 140.383,123 C141.144,123 142.038,121.987 142.37,120.75 C143.285,117.335 143.162,117 141,117 C139.667,117 139,116.333 139,115 C139,113.889 138.333,113 137.5,113 C136.31,113 136,111.556 136,106 C136,100.444 136.31,99 137.5,99 C138.333,99 139,98.111 139,97 C139,95.178 138.333,95 131.5,95 C125.5,95 124,95.3 124,96.5 Z M179,89.5 C179,90.333 178.111,91 177,91 C175.667,91 175,91.667 175,93 C175,94.1 174.375,95 173.611,95 C172.816,95 171.942,96.495 171.566,98.5 C170.992,101.562 170.54,102 167.955,102 C165.918,102 165,102.495 165,103.594 C165,104.47 164.148,105.41 163.107,105.682 C162.001,105.972 160.971,107.395 160.628,109.109 C160.175,111.377 159.357,112.179 157.021,112.646 C154.376,113.175 154,113.67 154,116.625 C154,119.333 153.605,120 152,120 C150.667,120 150,120.667 150,122 C150,123.1 149.377,124 148.617,124 C147.856,124 146.998,124.9 146.71,126 C146.423,127.1 145.47,128 144.594,128 C143.717,128 143,128.675 143,129.5 C143,130.548 144.056,131 146.5,131 C148.813,131 150,130.531 150,129.617 C150,127.601 153.243,127.029 164.75,127.014 C173.282,127.002 175,126.743 175,125.469 C175,124.626 175.663,123.683 176.473,123.372 C177.283,123.061 178.233,121.275 178.584,119.403 C178.946,117.473 179.823,116 180.611,116 C181.611,116 182,114.6 182,111 C182,106.667 182.267,106 184,106 C185.822,106 186,105.333 186,98.5 C186,92.5 185.7,91 184.5,91 C183.675,91 183,90.325 183,89.5 C183,88.667 182.111,88 181,88 C179.889,88 179,88.667 179,89.5 Z M157,89.5 C157,90.548 155.944,91 153.5,91 C150.19,91 150,91.183 150,94.383 C150,96.926 149.503,97.897 148,98.29 C146.33,98.726 146,99.654 146,103.906 L146,109 L149.455,109 C152.611,109 152.966,108.698 153.566,105.5 C153.942,103.495 154.816,102 155.611,102 C156.375,102 157,101.1 157,100 C157,98.667 157.667,98 159,98 C160.333,98 161,97.333 161,96 C161,94.889 161.667,94 162.5,94 Q164,94 164,91 C164,88.238 163.722,88 160.5,88 C158.056,88 157,88.452 157,89.5 Z"/>
</svg>

