<svg xmlns="http://www.w3.org/2000/svg" width="300" height="300" viewBox="0 0 300 300" version="1.1">
  <defs/>
  <path d="M168,128.5 L168,107 L173.5,107 C177.722,107 179,107.348 179,108.5 C179,109.325 179.675,110 180.5,110 C181.583,110 182,111.111 182,114 C182,116.889 181.583,118 180.5,118 C179.262,118 179,119.833 179,128.5 L179,139 L182.5,139 C184.896,139 186,138.541 186,137.545 C186,136.675 187.405,135.827 189.5,135.434 C191.505,135.058 193,134.184 193,133.389 C193,132.307 194.987,132 202,132 C209.163,132 211,131.706 211,130.561 C211,128.542 217.16,127.831 231.5,128.195 L243.5,128.5 L243.813,131.75 C244.007,133.763 244.673,135 245.563,135 C246.746,135 247,137.562 247,149.5 C247,161.722 246.764,164 245.5,164 C244.241,164 244,166.153 244,177.375 C244,192.39 243.383,197 241.375,197 C240.292,197 240,199.333 240,208 C240,216.756 239.715,219 238.601,219 C237.604,219 237.002,221.005 236.5,226 C235.998,230.995 235.396,233 234.399,233 C233.467,233 233,234.168 233,236.5 C233,239.333 233.381,240 235,240 C236.619,240 237,240.667 237,243.5 C237,246.917 236.905,247 233,247 C230.111,247 229,246.583 229,245.5 C229,244.588 228.069,244 226.625,244 C222.12,244 218,242.746 218,241.375 C218,240.266 214.909,240 202,240 L186,240 L186,236.617 C186,234.074 186.497,233.103 188,232.71 C189.1,232.423 190,231.47 190,230.594 C190,229.238 191.532,229.002 200.25,229.014 C211.757,229.029 215,229.601 215,231.617 C215,232.462 216.069,232.995 217.75,232.986 C222.032,232.965 225,231.899 225,230.383 C225,229.623 225.9,229 227,229 C228.893,229 229,228.333 229,216.5 C229,204.667 229.107,204 231,204 C232.873,204 233,203.333 233,193.5 L233,183 L227.5,183 C223.278,183 222,183.348 222,184.5 C222,185.7 220.5,186 214.5,186 C208.5,186 207,186.3 207,187.5 C207,188.677 205.623,189 200.608,189 C194.625,189 194.177,188.84 193.589,186.5 C192.527,182.269 193.874,179.187 197.094,178.479 C198.692,178.128 200,177.202 200,176.421 C200,175.279 202.162,175 211,175 L222,175 L222,164 L216.906,164 C212.654,164 211.726,164.33 211.29,166 C210.831,167.756 209.926,168 203.883,168 C198.252,168 197,167.71 197,166.406 C197,165.53 196.1,164.577 195,164.29 C193.9,164.002 193,163.197 193,162.5 C193,161.803 193.9,160.998 195,160.71 C196.1,160.423 197,159.47 197,158.594 C197,157.287 198.262,157 204,157 C209.556,157 211,156.69 211,155.5 C211,154.31 212.444,154 218,154 C223.556,154 225,154.31 225,155.5 C225,156.333 225.889,157 227,157 C228.758,157 229,157.667 229,162.5 C229,166.722 228.652,168 227.5,168 C226.675,168 226,168.626 226,169.392 C226,171.124 230.169,172.247 233.5,171.411 L236,170.783 L236,136 L232.5,136 C230.056,136 229,136.452 229,137.5 C229,138.747 227.022,139.002 217.25,139.014 C204.272,139.029 201,139.553 201,141.617 C201,142.564 199.739,143 197,143 C194.254,143 193,143.435 193,144.389 C193,145.184 191.505,146.058 189.5,146.434 C187.405,146.827 186,147.675 186,148.545 C186,149.345 185.325,150 184.5,150 C183.367,150 183,151.222 183,155 C183,158.778 183.367,160 184.5,160 C185.764,160 186,162.278 186,174.5 C186,186.722 186.236,189 187.5,189 C188.652,189 189,190.278 189,194.5 C189,198.722 188.652,200 187.5,200 C186.667,200 186,200.889 186,202 C186,203.758 185.333,204 180.5,204 L175,204 L175,190 C175,178.622 174.736,176 173.591,176 C172.487,176 172.025,173.177 171.462,163 C170.909,153.001 170.427,150 169.372,150 C168.252,150 168,146.05 168,128.5 Z M56.29,119 C56.577,117.9 57.53,117 58.406,117 C59.599,117 60,118.007 60,121 C60,123.727 60.438,125 61.375,125 C63.06,125 64,129.342 64,137.125 C64,141.681 64.337,143 65.5,143 C66.771,143 67,145.444 67,159 C67,172.556 66.771,175 65.5,175 C64.236,175 64,177.278 64,189.5 C64,201.179 64.269,204 65.383,204 C66.144,204 67.002,203.1 67.29,202 C67.577,200.9 68.53,200 69.406,200 C70.283,200 71,199.325 71,198.5 C71,197.452 72.056,197 74.5,197 C77.333,197 78,196.619 78,195 C78,193.381 78.667,193 81.5,193 C83.803,193 85,192.53 85,191.625 C85,190.254 89.12,189 93.625,189 C95.069,189 96,188.412 96,187.5 C96,186.348 97.278,186 101.5,186 C105.516,186 107,185.627 107,184.617 C107,183.101 109.968,182.035 114.25,182.014 C116.022,182.005 117,181.466 117,180.5 C117,179.667 117.889,179 119,179 C120.908,179 121,178.333 121,164.5 C121,152.278 120.764,150 119.5,150 C118.348,150 118,148.722 118,144.5 L118,139 L129,139 L129,143 C129,145.889 129.417,147 130.5,147 C131.75,147 132,149 132,159 C132,168.451 132.289,171 133.36,171 C134.271,171 134.905,172.795 135.282,176.441 C135.941,182.824 135.31,186 133.383,186 C132.478,186 132,187.169 132,189.383 C132,192.278 131.603,192.844 129.25,193.3 C124.861,194.152 121,193.017 121,190.875 C121,189.667 121.711,189 123,189 C124.111,189 125,188.333 125,187.5 C125,186.452 123.944,186 121.5,186 C118.667,186 118,186.381 118,188 C118,189.619 117.333,190 114.5,190 C112.056,190 111,190.452 111,191.5 C111,192.583 109.889,193 107,193 C104.261,193 103,193.436 103,194.383 C103,196.103 99.923,196.969 93.75,196.986 C90.37,196.996 89,197.401 89,198.389 C89,199.184 87.505,200.058 85.5,200.434 C83.405,200.827 82,201.675 82,202.545 C82,203.345 81.1,204 80,204 C78.9,204 78,204.623 78,205.383 C78,206.144 77.1,207.002 76,207.29 C74.9,207.577 74,208.494 74,209.327 C74,210.193 72.729,211.12 71.032,211.493 C68.634,212.02 67.94,212.804 67.42,215.572 C67.067,217.458 66.188,219 65.468,219 C64.748,219 63.862,220.35 63.5,222 C63.138,223.65 62.202,225 61.421,225 C60.639,225 60,225.9 60,227 C60,228.333 59.333,229 58,229 C56.889,229 56,229.667 56,230.5 C56,231.325 55.325,232 54.5,232 C53.675,232 53,231.325 53,230.5 C53,229.675 52.325,229 51.5,229 C49.693,229 49.478,225.34 51.25,224.751 C52.109,224.465 52.607,221.156 52.844,214.168 C53.111,206.26 53.5,204 54.594,204 C55.712,204 56,201.877 56,193.651 C56,177.997 57.032,168 58.647,168 C59.656,168 60,166.218 60,161 C60,155.771 59.657,154 58.642,154 C57.209,154 56,146.154 56,136.853 C56,133.206 55.627,132 54.5,132 C53.348,132 53,130.722 53,126.5 C53,122.484 53.373,121 54.383,121 C55.144,121 56.002,120.1 56.29,119 Z M150,83.5 L150,67 L155.094,67 C159.346,67 160.274,67.33 160.71,69 C161,70.107 162.074,71 163.117,71 C165.587,71 165.567,74.039 163.092,74.686 C162.043,74.96 161.031,75.931 160.842,76.842 C160.654,77.754 160.636,88.963 160.802,101.75 C161.056,121.238 161.339,125 162.552,125 C163.749,125 164,127.51 164,139.5 C164,151.722 163.764,154 162.5,154 C161.228,154 161,156.486 161,170.375 C161,188.32 160.457,193 158.375,193 C157.339,193 157,194.727 157,200 C157,205.556 156.69,207 155.5,207 C154.395,207 154,208.153 154,211.375 C154,217.741 152.948,222 151.375,222 C150.47,222 150,223.197 150,225.5 C150,227.813 149.531,229 148.617,229 C147.856,229 146.998,229.9 146.71,231 C146.024,233.622 143,233.622 143,231 C143,229.667 142.333,229 141,229 C139.889,229 139,228.333 139,227.5 C139,226.675 139.619,226 140.375,226 C141.948,226 143,221.741 143,215.375 C143,212.153 143.395,211 144.5,211 C145.412,211 146,210.069 146,208.625 C146,204.12 147.254,200 148.625,200 C149.708,200 150,197.667 150,189 C150,180.44 150.299,178 151.348,178 C153.769,178 154.67,150.297 153.343,116.66 C152.832,103.71 152.387,100 151.343,100 C150.273,100 150,96.642 150,83.5 Z M193,54.5 C193,53.348 194.278,53 198.5,53 C202.722,53 204,53.348 204,54.5 C204,55.523 205.034,56.004 207.25,56.014 C214.766,56.045 215,56.336 215,65.648 C215,72.136 214.663,74.192 213.527,74.628 C212.717,74.939 211.767,76.725 211.416,78.597 C211.054,80.527 210.177,82 209.389,82 C208.625,82 208,82.717 208,83.594 C208,84.47 207.1,85.423 206,85.71 C204.9,85.998 204,86.578 204,87 C204,88.337 208.235,88.972 217.25,88.986 L226,89 L226,96 L215,96 C204.667,96 204,96.121 204,98 C204,99.333 203.333,100 202,100 C200.889,100 200,100.667 200,101.5 C200,102.333 199.111,103 198,103 C196.889,103 196,102.333 196,101.5 C196,100.367 194.778,100 191,100 C187.222,100 186,100.367 186,101.5 C186,102.333 185.111,103 184,103 C182.889,103 182,102.333 182,101.5 C182,100.675 181.325,100 180.5,100 C179.417,100 179,98.889 179,96 C179,92.095 179.083,92 182.5,92 C184.944,92 186,91.548 186,90.5 C186,89.675 186.675,89 187.5,89 C188.548,89 189,87.944 189,85.5 C189,83.056 188.548,82 187.5,82 C186.417,82 186,80.889 186,78 C186,74.122 185.897,74 182.617,74 C178.587,74 177.83,72.235 178.701,64.878 C179.076,61.714 179.757,60 180.639,60 C181.388,60 182,59.1 182,58 C182,56.242 182.667,56 187.5,56 C191.722,56 193,55.652 193,54.5 Z M92,104.5 C92,103.417 93.111,103 96,103 C99.333,103 100,103.333 100,105 C100,106.111 100.667,107 101.5,107 C102.548,107 103,108.056 103,110.5 C103,112.766 102.526,114 101.654,114 C100.622,114 100.153,117.248 99.644,127.906 C98.776,146.089 99.8,165 101.652,165 C102.654,165 103,166.796 103,172 L103,179 L99.5,179 C96.667,179 96,178.619 96,177 C96,175.9 95.388,175 94.639,175 C93.15,175 92.024,168.255 92.009,159.25 C92.002,155.254 91.642,154 90.5,154 C89.208,154 89,150.667 89,130 C89,109.333 89.208,106 90.5,106 C91.325,106 92,105.325 92,104.5 Z M193.155,72.076 C193.445,78.457 193.887,80.357 195.261,81.126 C196.217,81.661 197,82.752 197,83.55 C197,86.561 199.798,84.891 200.434,81.5 C200.827,79.405 201.675,78 202.545,78 C203.541,78 204,76.896 204,74.5 C204,72.056 204.452,71 205.5,71 C206.548,71 207,69.944 207,67.5 L207,64 L192.788,64 Z"/>
</svg>

