<svg xmlns="http://www.w3.org/2000/svg" width="300" height="300" viewBox="0 0 300 300" version="1.1">
  <defs/>
  <path d="M80.29,21 C80.577,19.9 81.53,19 82.406,19 C83.333,19 84,19.837 84,21 C84,22.333 84.667,23 86,23 C87.619,23 88,23.667 88,26.5 C88,28.944 88.452,30 89.5,30 C90.333,30 91,30.889 91,32 C91,33.333 91.667,34 93,34 C94.111,34 95,34.667 95,35.5 C95,36.548 93.944,37 91.5,37 L88,37 L88,42.5 C88,47.333 87.758,48 86,48 C84.242,48 84,48.667 84,53.5 L84,59 L94.531,59 C102.97,59 105.177,58.702 105.638,57.5 C105.955,56.675 106.841,56 107.607,56 C108.373,56 109,55.163 109,54.139 C109,51.673 114.558,51.02 135.633,51.009 C145.839,51.004 150.071,51.315 151.81,49.384 C153.272,47.761 152.975,44.556 152.986,38.25 C152.997,31.589 153.289,30 154.5,30 C155.548,30 156,28.944 156,26.5 L156,23 L161,23 C164.571,23 166,23.392 166,24.372 C166,25.2 167.587,25.998 170,26.384 C172.588,26.798 174,27.549 174,28.512 C174,29.626 172.774,30 169.125,30 C164.465,30 164.222,30.138 163.625,33.125 C163.281,34.844 163,38.894 163,42.125 L163,48 L203.105,48 L202.802,53.25 L202.5,58.5 L188.25,58.777 L174,59.055 L174,70.223 L170.5,69.566 L167,68.909 L167,90.74 L171.651,91.264 C174.449,91.58 176.66,92.428 177.201,93.394 C177.709,94.303 179.381,95 181.05,95 C183.006,95 184,95.506 184,96.5 C184,97.333 184.889,98 186,98 C187.333,98 188,98.667 188,100 C188,101.333 188.667,102 190,102 C191.81,102 192,102.667 192,109 C192,114.738 191.713,116 190.406,116 C189.53,116 188.577,116.9 188.29,118 C188.002,119.1 187.144,120 186.383,120 C185.339,120 185,118.31 185,113.111 L185,106.223 L181.5,105.566 C179.405,105.173 178,104.325 178,103.455 C178,102.358 176.646,102 172.5,102 L167,102 L167,105.5 C167,107.851 167.465,109 168.415,109 C170.369,109 171.292,119.92 170.85,137.815 L170.5,152.001 L173.5,152.014 C179.503,152.04 181,152.959 181,156.617 C181,158.957 180.538,160 179.5,160 C178.49,160 178,161.01 178,163.094 C178,165.346 177.456,166.329 176,166.71 C174.497,167.103 174,168.074 174,170.617 C174,172.911 173.532,174 172.545,174 C171.675,174 170.827,175.405 170.434,177.5 C170.058,179.505 169.184,181 168.389,181 C167.477,181 167,182.163 167,184.383 C167,186.926 166.503,187.897 165,188.29 C163.468,188.69 163,189.654 163,192.406 C163,194.934 162.555,196 161.5,196 C160.367,196 160,197.222 160,201 L160,206 L163.875,206 C169.772,206 174,207.096 174,208.625 C174,209.381 174.9,210 176,210 C177.333,210 178,210.667 178,212 C178,213.111 178.667,214 179.5,214 Q181,214 181,217 Q181,220 179.5,220 C178.675,220 178,220.844 178,221.875 C178,223.172 177.044,223.941 174.897,224.371 C170.775,225.195 170,224.553 170,220.311 L170,216.74 L165.349,217.264 C162.551,217.58 160.34,218.428 159.799,219.394 C159.085,220.671 157.169,221 150.45,221 C142.667,221 142,220.842 142,219 C142,217.381 141.333,217 138.5,217 C135.667,217 135,217.381 135,219 C135,220.111 135.667,221 136.5,221 C137.722,221 138,222.667 138,230 C138,238.333 138.148,239 140,239 C141.738,239 142,239.667 142,244.094 C142,248.346 141.67,249.274 140,249.71 C138.9,249.998 138,250.856 138,251.617 C138,252.377 137.325,253 136.5,253 C135.675,253 135,252.325 135,251.5 C135,250.675 134.14,250 133.088,250 C131.636,250 131.013,249.036 130.5,246 C130.085,243.541 129.28,242 128.412,242 C127.24,242 127,238.35 127,220.5 C127,202.056 126.787,199 125.5,199 C124.452,199 124,197.944 124,195.5 C124,193.056 124.452,192 125.5,192 C126.737,192 127,190.181 127,181.625 L127,171.25 L124.25,170.775 C119.635,169.977 98.545,169.807 94.657,170.537 C92.533,170.935 91,171.805 91,172.611 C91,173.375 90.1,174 89,174 C87.9,174 87,173.354 87,172.563 C87,171.673 85.763,171.007 83.75,170.813 C80.875,170.536 80.463,170.116 80.181,167.174 C79.925,164.506 80.271,163.742 81.931,163.308 C83.069,163.01 84,162.144 84,161.383 C84,160.279 86.524,160 96.5,160 C106.944,160 109,160.247 109,161.5 C109,162.728 110.722,163 118.5,163 C125.82,163 128,162.689 128,161.647 C128,160.288 137.565,159 147.651,159 C150.85,159 152,158.603 152,157.5 C152,156.413 153.118,156 156.059,156 L160.117,156 L159.999,127.75 C159.864,95.388 159.375,88 157.371,88 C156.438,88 156,86.721 156,84 C156,79.859 155.487,79.495 151.25,80.63 C149.576,81.079 149,81.972 149,84.117 C149,86.088 148.496,87 147.406,87 C146.53,87 145.577,87.9 145.29,89 C145.002,90.1 144.102,91 143.29,91 C142.477,91 141.577,91.9 141.29,93 C141.002,94.1 140.144,95 139.383,95 C138.623,95 138,95.9 138,97 C138,98.1 137.361,99 136.579,99 C135.798,99 134.862,100.35 134.5,102 C134.138,103.65 133.202,105 132.421,105 C131.639,105 131,105.9 131,107 C131,108.333 130.333,109 129,109 C127.333,109 127,109.667 127,113 C127,115.789 126.57,117 125.579,117 C124.798,117 123.869,118.321 123.514,119.935 C123.03,122.139 122.139,123.03 119.935,123.514 C118.321,123.869 117,124.798 117,125.579 C117,126.361 116.1,127 115,127 C113.667,127 113,127.667 113,129 C113,130.1 112.345,131 111.545,131 C110.675,131 109.827,132.405 109.434,134.5 C109.073,136.425 108.205,138 107.505,138 C106.806,138 105.998,138.9 105.71,140 C105.31,141.532 104.346,142 101.594,142 C98.068,142 98,141.925 98,138 C98,134.667 98.333,134 100,134 C101.619,134 102,133.333 102,130.5 C102,127.667 102.381,127 104,127 C105.111,127 106,126.333 106,125.5 C106,124.675 106.675,124 107.5,124 C108.538,124 109,122.957 109,120.617 C109,118.074 109.497,117.103 111,116.71 C112.1,116.423 113,115.47 113,114.594 C113,113.667 112.163,113 111,113 C109.667,113 109,112.333 109,111 C109,109.381 108.333,109 105.5,109 C102.667,109 102,108.619 102,107 C102,105.667 101.333,105 100,105 C98.889,105 98,104.333 98,103.5 C98,102.452 96.944,102 94.5,102 C91.667,102 91,102.381 91,104 C91,105.111 90.333,106 89.5,106 C88.675,106 88,106.675 88,107.5 C88,108.325 88.675,109 89.5,109 C90.773,109 91,111.5 91,125.5 C91,139.5 90.773,142 89.5,142 C88.452,142 88,143.056 88,145.5 C88,148.333 87.619,149 86,149 C84.889,149 84,149.667 84,150.5 C84,151.548 82.944,152 80.5,152 L77,152 L77,136 C77,122.444 77.229,120 78.5,120 C79.773,120 80,117.5 80,103.5 C80,89.5 79.773,87 78.5,87 C77.367,87 77,85.778 77,82 L77,77 L73.611,77 C70.53,77 70.163,77.318 69.566,80.5 C69.173,82.595 68.325,84 67.455,84 C66.655,84 66,84.9 66,86 C66,87.1 65.361,88 64.579,88 C63.798,88 62.862,89.35 62.5,91 C62.138,92.65 61.202,94 60.421,94 C59.639,94 59,94.848 59,95.883 C59,96.926 58.107,98 57,98.29 C55.544,98.671 55,99.654 55,101.906 C55,103.99 54.51,105 53.5,105 C52.667,105 52,105.889 52,107 C52,108.333 51.333,109 50,109 C48.394,109 48,109.667 48,112.383 C48,114.926 47.503,115.897 46,116.29 C44.9,116.577 44,117.53 44,118.406 C44,119.283 43.375,120 42.611,120 C41.816,120 40.942,121.495 40.566,123.5 C40.173,125.595 39.325,127 38.455,127 C37.655,127 37,127.9 37,129 C37,130.1 36.375,131 35.611,131 C34.816,131 33.942,132.495 33.566,134.5 C32.92,137.941 32.825,138 27.955,138 C24.217,138 23,137.632 23,136.5 C23,135.675 23.625,135 24.389,135 C25.184,135 26.058,133.505 26.434,131.5 C26.827,129.405 27.675,128 28.545,128 C29.43,128 30,127.021 30,125.5 C30,123.979 30.57,123 31.455,123 C32.325,123 33.173,121.595 33.566,119.5 C33.942,117.495 34.816,116 35.611,116 C36.375,116 37,115.311 37,114.469 C37,113.626 37.648,112.689 38.439,112.385 C39.23,112.081 40.166,110.521 40.518,108.916 C40.871,107.312 41.798,106 42.579,106 C43.361,106 44,105.1 44,104 C44,102.667 44.667,102 46,102 C47.619,102 48,101.333 48,98.5 C48,96.056 48.452,95 49.5,95 C50.325,95 51,94.283 51,93.406 C51,92.53 51.9,91.577 53,91.29 C54.503,90.897 55,89.926 55,87.383 C55,84.667 55.394,84 57,84 C58.333,84 59,83.333 59,82 C59,80.9 59.625,80 60.389,80 C61.184,80 62.058,78.505 62.434,76.5 C62.827,74.405 63.675,73 64.545,73 C65.345,73 66,72.325 66,71.5 C66,70.3 64.5,70 58.496,70 L50.992,70 L51.246,73.25 C51.481,76.262 51.256,76.523 48.174,76.819 C45.506,77.075 44.742,76.729 44.308,75.069 C44.01,73.931 43.144,73 42.383,73 C41.392,73 41,71.597 41,68.045 C41,63.175 41.059,63.08 44.5,62.434 C46.505,62.058 48,61.184 48,60.389 C48,59.28 50.471,58.997 60.25,58.986 C70.032,58.975 74.212,59.273 75.943,57.358 C77.454,55.686 77.099,52.328 76.973,45.607 C76.612,26.308 76.819,23 78.383,23 C79.144,23 80.002,22.1 80.29,21 Z M88,204.594 C88,203.348 89.092,203 93,203 C96.6,203 98,203.389 98,204.389 C98,205.184 99.495,206.058 101.5,206.434 C104.524,207.001 105,207.477 105,209.929 C105,212.952 103.201,213.959 97.75,213.986 C95.122,213.999 95,214.22 95,218.95 C95,222.613 94.548,224.154 93.261,224.874 C91.887,225.643 91.445,227.543 91.155,233.924 L90.788,242 L94.144,242.014 C98.994,242.033 102,243.029 102,244.617 C102,245.564 103.261,246 106,246 C108.722,246 110,246.438 110,247.371 C110,248.261 111.754,248.975 115,249.406 C118.424,249.86 120,250.531 120,251.534 C120,252.644 121.335,253 125.5,253 C130.333,253 131,253.242 131,255 C131,256.81 131.667,257 138,257 C143.556,257 145,257.31 145,258.5 C145,259.627 146.206,260 149.853,260 C159.154,260 167,261.209 167,262.642 C167,263.704 169.402,264 178,264 C186.611,264 189,264.296 189,265.361 C189,266.85 195.745,267.976 204.75,267.991 C208.746,267.998 210,268.358 210,269.5 C210,270.778 212.667,271 228,271 C242.606,271 246,271.259 246,272.375 C246,274.322 250.554,275 263.625,275 L275,275 L275,282 L253,282 C234.111,282 231,281.788 231,280.5 C231,279.313 229.573,279 224.156,279 C209.294,279 196,277.748 196,276.348 C196,275.331 194.064,275 188.125,275 C178.432,275 174,274.176 174,272.375 C174,271.292 171.667,271 163,271 C153.889,271 152,270.742 152,269.5 C152,268.328 150.633,267.997 145.75,267.986 C138.135,267.97 135,267.21 135,265.383 C135,264.359 133.442,264 129,264 C124.527,264 123,263.644 123,262.601 C123,261.604 120.995,261.002 116,260.5 C111.217,260.02 109,259.378 109,258.475 C109,257.511 106.76,257.064 100.75,256.826 C96.213,256.647 91.487,256.665 90.25,256.867 C87.765,257.272 87.111,260 89.5,260 C90.652,260 91,261.278 91,265.5 C91,269.722 90.652,271 89.5,271 C88.667,271 88,271.889 88,273 C88,274.667 87.333,275 84,275 L80,275 L80.009,262.25 C80.02,246.161 80.83,239 82.639,239 C83.73,239 84,235.846 84,223.117 C84,208.074 84.106,207.206 86,206.71 C87.1,206.423 88,205.47 88,204.594 Z M131,60.5 C131,61.412 130.069,62 128.625,62 C124.12,62 120,63.254 120,64.625 C120,65.69 117.97,66 111,66 C104.004,66 102,66.308 102,67.383 C102,69.103 98.923,69.969 92.75,69.986 C88.671,69.998 88,70.283 88,72 C88,73.111 88.667,74 89.5,74 C90.325,74 91,74.675 91,75.5 C91,76.325 90.325,77 89.5,77 C88.452,77 88,78.056 88,80.5 C88,82.944 88.452,84 89.5,84 C90.325,84 91,84.623 91,85.383 C91,86.144 91.9,87.002 93,87.29 C94.1,87.577 95,88.477 95,89.29 C95,90.102 95.9,91.002 97,91.29 C98.1,91.577 99,92.53 99,93.406 C99,94.283 99.675,95 100.5,95 C101.325,95 102,95.625 102,96.389 C102,97.178 103.478,98.055 105.428,98.42 C108.162,98.933 108.982,99.643 109.485,101.93 C110.139,104.91 112.151,105.961 117.25,105.986 C119.338,105.997 120,105.518 120,104 C120,102.667 120.667,102 122,102 C123.111,102 124,101.333 124,100.5 C124,99.675 124.675,99 125.5,99 C126.333,99 127,98.111 127,97 C127,95.667 127.667,95 129,95 C130.333,95 131,94.333 131,93 C131,91.9 131.623,91 132.383,91 C133.144,91 134.002,90.1 134.29,89 C134.577,87.9 135.53,87 136.406,87 C137.51,87 138,86.078 138,84 C138,81.922 138.49,81 139.594,81 C140.47,81 141.423,80.1 141.71,79 C141.998,77.9 142.856,77 143.617,77 C144.377,77 145,76.1 145,75 C145,73.667 145.667,73 147,73 C148.333,73 149,72.333 149,71 C149,69.9 149.623,69 150.383,69 C151.899,69 152.965,66.032 152.986,61.75 L153,59 L142,59 C132.889,59 131,59.258 131,60.5 Z M149.287,166.742 L142.074,167.086 L141.426,170.543 C141.056,172.515 140.181,174 139.389,174 C138.625,174 138,174.675 138,175.5 C138,176.325 137.384,177 136.631,177 C134.822,177 134.025,182.215 134.011,194.125 C133.995,207.714 134.571,210 138.008,210 C139.926,210 140.926,209.39 141.29,208 C141.69,206.468 142.654,206 145.406,206 C148.847,206 149,205.851 149,202.5 C149,200.056 149.452,199 150.5,199 C151.466,199 152.005,198.022 152.014,196.25 C152.035,191.968 153.101,189 154.617,189 C155.627,189 156,187.516 156,183.5 C156,179.474 156.372,178 157.389,178 C158.184,178 159.058,176.505 159.434,174.5 C159.827,172.405 160.675,171 161.545,171 C162.43,171 163,170.021 163,168.5 C163,166.305 162.603,166.024 159.75,166.199 C157.963,166.308 153.254,166.552 149.287,166.742 Z"/>
</svg>

