<svg xmlns="http://www.w3.org/2000/svg" width="300" height="300" viewBox="0 0 300 300" version="1.1">
  <defs/>
  <path d="M127.29,57 C127.902,54.659 129.816,54.357 130.628,56.473 C130.939,57.283 132.725,58.233 134.597,58.584 C137.673,59.161 138,59.549 138,62.611 C138,65.333 137.607,66 136,66 C134.889,66 134,66.667 134,67.5 C134,68.325 133.283,69 132.406,69 C131.53,69 130.577,69.9 130.29,71 C130.002,72.1 129.144,73 128.383,73 C127.308,73 127,75.004 127,82 C127,90.333 127.148,91 129,91 C130.1,91 131,90.371 131,89.601 C131,88.604 133.005,88.002 138,87.5 C142.995,86.998 145,86.396 145,85.399 C145,84.252 148.247,84 163,84 L181,84 L181,88.883 C181,93.102 180.694,93.849 178.75,94.37 C174.433,95.527 170,95.086 170,93.5 C170,91.751 167.347,91.458 166.785,93.146 C166.401,94.297 163.046,94.583 146.75,94.854 C139.704,94.972 138,95.292 138,96.5 C138,97.575 136.903,98 134.125,98 C128.228,98 124,99.096 124,100.625 C124,101.381 123.1,102 122,102 C120.381,102 120,102.667 120,105.5 C120,107.803 119.53,109 118.625,109 C117.254,109 116,113.12 116,117.625 C116,119.069 115.412,120 114.5,120 C113.348,120 113,121.278 113,125.5 C113,130.333 112.758,131 111,131 C109.267,131 109,131.667 109,136 C109,139.778 108.633,141 107.5,141 C106.514,141 106,141.986 106,143.875 C106,148.841 104.804,153 103.375,153 C102.619,153 102,153.675 102,154.5 C102,155.548 103.056,156 105.5,156 C107.803,156 109,155.53 109,154.625 C109,152.94 113.342,152 121.125,152 C125.681,152 127,151.663 127,150.5 C127,149.294 128.542,149 134.875,149 C144.568,149 149,148.176 149,146.375 C149,145.255 152.612,145 168.441,145 C179.134,145 188.092,145.34 188.349,145.756 C188.606,146.171 188.585,147.721 188.302,149.199 C187.926,151.165 187.01,152.058 184.894,152.523 C183.302,152.873 182,153.798 182,154.579 C182,155.734 179.566,156 169,156 L156,156 L156,161.5 C156,165.722 155.652,167 154.5,167 C153.262,167 153,168.833 153,177.5 C153,186.167 153.262,188 154.5,188 C155.333,188 156,188.889 156,190 C156,191.111 155.333,192 154.5,192 C153.327,192 152.999,193.364 152.994,198.25 C152.982,210.673 151.783,221 150.352,221 C149.474,221 149,222.226 149,224.5 L149,228 L168.5,228 C184.257,228 188,227.739 188,226.642 C188,224.957 196.199,224 210.647,224 C219.183,224 221,223.737 221,222.5 C221,221.452 222.056,221 224.5,221 C226.898,221 228,221.459 228,222.456 C228,223.57 229.704,223.981 235.25,224.206 L242.5,224.5 L242.819,227.826 C243.075,230.494 242.729,231.258 241.069,231.692 C239.931,231.99 239,232.856 239,233.617 C239,234.772 232.167,235 197.5,235 C162.833,235 156,235.228 156,236.383 C156,238.241 152.848,238.97 144.75,238.986 C139.696,238.997 138,239.345 138,240.375 C138,241.746 133.88,243 129.375,243 C127.931,243 127,243.588 127,244.5 C127,245.787 123.944,246 105.5,246 C87.821,246 84,245.753 84,244.611 C84,243.816 82.505,242.942 80.5,242.566 C77.302,241.966 77,241.611 77,238.455 C77,235.667 77.386,235 79,235 C80.1,235 81,234.386 81,233.636 C81,232.205 87.007,231 94.14,231 C96.904,231 98,230.574 98,229.5 C98,228.217 100.889,228 118,228 C134.362,228 138,227.748 138,226.617 C138,225.856 138.9,224.998 140,224.71 C141.532,224.31 142,223.346 142,220.594 C142,218.066 142.445,217 143.5,217 C144.801,217 145,212.944 145,186.5 L145,156 L140,156 C136.424,156 135,156.392 135,157.375 C135,158.804 130.841,160 125.875,160 C123.986,160 123,160.514 123,161.5 C123,162.635 121.774,163 117.969,163 C114.514,163 112.764,163.451 112.385,164.439 C112.081,165.23 110.566,166.156 109.018,166.496 C107.332,166.866 105.987,167.943 105.663,169.181 C105.231,170.831 104.606,171.118 102.561,170.605 C101.153,170.251 98.875,170.244 97.5,170.589 C95.448,171.104 95,171.825 95,174.608 C95,176.829 94.523,178 93.617,178 C92.101,178 91.035,180.968 91.014,185.25 C91.005,186.923 90.456,188 89.611,188 C88.816,188 87.942,189.495 87.566,191.5 C87.173,193.595 86.325,195 85.455,195 C84.358,195 84,196.354 84,200.5 C84,204.722 83.652,206 82.5,206 C81.667,206 81,206.889 81,208 C81,209.292 80.333,210 79.117,210 C78.043,210 76.997,210.905 76.683,212.105 C76.38,213.264 75.54,214.015 74.816,213.775 C72.843,213.123 72.388,199 74.34,199 C75.955,199 76.966,196.04 76.986,191.25 C76.995,189.15 77.491,188 78.389,188 C79.184,188 80.058,186.505 80.434,184.5 C80.827,182.405 81.675,181 82.545,181 C83.541,181 84,179.896 84,177.5 C84,175.197 84.47,174 85.375,174 C86.746,174 88,169.88 88,165.375 C88,164.015 88.594,163 89.389,163 C90.178,163 91.055,161.522 91.42,159.573 C91.774,157.688 92.556,155.981 93.158,155.781 C93.761,155.58 94.479,153.072 94.754,150.208 C95.091,146.703 95.703,145 96.627,145 C97.406,145 98,143.972 98,142.625 C98,138.12 99.254,134 100.625,134 C101.608,134 102,132.576 102,129 C102,125.432 102.392,124 103.371,124 C104.304,124 104.958,122.085 105.42,118 C105.903,113.737 106.519,112 107.55,112 C108.498,112 109,110.95 109,108.969 C109,107.197 109.623,105.698 110.5,105.362 C111.325,105.045 112,104.159 112,103.393 C112,102.388 110.607,102 107,102 C103.424,102 102,102.392 102,103.375 C102,105.369 97.404,106 82.875,106 C72.097,106 70,106.244 70,107.5 C70,108.652 68.722,109 64.5,109 C60.484,109 59,108.627 59,107.617 C59,106.856 59.9,105.998 61,105.71 C62.435,105.335 63,104.346 63,102.21 C63,98.451 64.425,98.032 77.25,98.014 C85.244,98.002 87,97.73 87,96.5 C87,95.282 88.645,94.997 95.75,94.986 C105.791,94.971 109,94.34 109,92.383 C109,91.469 110.187,91 112.5,91 C115.898,91 116,90.887 116,87.125 C116,81.228 117.096,77 118.625,77 C119.661,77 120,75.273 120,70 C120,64.262 120.287,63 121.594,63 C122.47,63 123.423,62.1 123.71,61 C123.998,59.9 124.803,59 125.5,59 C126.197,59 127.002,58.1 127.29,57 Z M102,240.383 C102,242.22 105.083,242.717 113.25,242.197 C118.124,241.887 120,241.382 120,240.384 C120,239.308 117.997,239 111,239 C104.004,239 102,239.308 102,240.383 Z"/>
</svg>

