<svg xmlns="http://www.w3.org/2000/svg" width="300" height="300" viewBox="0 0 300 300" version="1.1">
  <defs/>
  <path d="M132,51 C132,49.381 132.667,49 135.5,49 L139,49 L139,59.5 C139,68.167 138.738,70 137.5,70 C136.417,70 136,71.111 136,74 C136,77.333 135.667,78 134,78 C132.242,78 132,78.667 132,83.5 C132,87.516 131.627,89 130.617,89 C129.331,89 128.045,91.84 128.014,94.75 C128.004,95.64 130.159,96 135.5,96 C141.258,96 143,95.675 143,94.601 C143,93.604 145.005,93.002 150,92.5 C154.704,92.028 157,91.372 157,90.501 C157,89.568 159.4,89.106 165.57,88.853 C172.454,88.569 174.333,88.156 175.12,86.75 C175.95,85.266 177.613,85 186.05,85 C193.737,85 196,84.693 196,83.65 C196,82.666 198.377,82.131 204.751,81.678 C209.564,81.337 214.514,81.322 215.751,81.645 L218,82.233 L218,105.117 C218,124.791 217.79,128 216.5,128 C215.258,128 215,129.889 215,139 C215,147.699 214.711,150 213.617,150 C211.759,150 211.03,153.152 211.014,161.25 C211.003,166.577 210.684,168 209.5,168 C208.588,168 208,168.931 208,170.375 C208,174.88 206.746,179 205.375,179 C204.47,179 204,180.197 204,182.5 L204,186 L198.5,186 C194.759,186 193.004,185.6 193.014,184.75 C193.045,181.84 194.331,179 195.617,179 C196.377,179 197,178.1 197,177 C197,175.889 197.667,175 198.5,175 C199.575,175 200,173.903 200,171.125 C200,165.228 201.096,161 202.625,161 C203.69,161 204,158.97 204,152 C204,145.044 204.311,143 205.371,143 C206.332,143 206.936,140.984 207.393,136.25 C208.191,127.985 208.167,107.893 207.347,98.75 L206.742,92 L202.522,92 C192.554,92 183,93.295 183,94.647 C183,95.689 180.82,96 173.5,96 C166.078,96 164,96.303 164,97.383 C164,99.103 160.923,99.969 154.75,99.986 C151.201,99.997 150,100.379 150,101.5 C150,102.548 148.944,103 146.5,103 C143.667,103 143,103.381 143,105 C143,106.619 142.333,107 139.5,107 C136.964,107 136,107.439 136,108.594 C136,109.47 135.1,110.423 134,110.71 C132.9,110.998 132,111.856 132,112.617 C132,113.531 130.813,114 128.5,114 C126.056,114 125,113.548 125,112.5 C125,111.258 123.111,111 114,111 C104.889,111 103,111.258 103,112.5 C103,113.628 101.792,114 98.125,114 C93.465,114 93.222,114.138 92.625,117.125 C91.738,121.56 91.847,152.787 92.751,153.346 C94.411,154.372 103,152.716 103,151.37 C103,150.311 105.046,150 112,150 L121,150 L121,139 C121,129.889 121.258,128 122.5,128 C123.325,128 124,127.365 124,126.588 C124,125.72 125.541,124.915 128,124.5 C130.2,124.128 132,123.414 132,122.912 C132,122.41 133.575,122 135.5,122 C138.71,122 139,122.245 139,124.955 C139,127.54 138.562,127.992 135.5,128.566 C132.014,129.22 132,129.245 132,134.611 C132,138.735 131.648,140 130.5,140 C129.21,140 129,143.222 129,163 C129,182.778 129.21,186 130.5,186 C131.7,186 132,187.5 132,193.5 C132,199.5 132.3,201 133.5,201 C134.51,201 135,202.01 135,204.094 C135,206.346 135.544,207.329 137,207.71 C138.435,208.086 139,209.074 139,211.21 C139,213.346 139.565,214.335 141,214.71 C142.1,214.998 143,215.806 143,216.505 C143,217.205 144.575,218.073 146.5,218.434 C148.595,218.827 150,219.675 150,220.545 C150,221.345 150.675,222 151.5,222 C152.325,222 153,222.619 153,223.375 C153,224.746 157.12,226 161.625,226 C163.069,226 164,226.588 164,227.5 C164,228.583 165.111,229 168,229 C170.834,229 172,229.424 172,230.455 C172,231.325 173.405,232.173 175.5,232.566 C177.505,232.942 179,233.816 179,234.611 C179,235.666 180.708,236 186.094,236 C192.346,236 193.249,236.237 193.71,238 C194.169,239.756 195.074,240 201.117,240 C206.569,240 208,240.312 208,241.5 C208,242.69 209.444,243 215,243 C220.556,243 222,242.69 222,241.5 C222,240.462 223.043,240 225.389,240 C228.451,240 228.839,239.673 229.416,236.597 C229.767,234.725 230.717,232.939 231.527,232.628 C232.554,232.234 233,230.54 233,227.031 C233,223.226 233.365,222 234.5,222 C235.466,222 236.005,221.022 236.014,219.25 C236.035,214.968 237.101,212 238.617,212 C239.641,212 240,210.442 240,206 C240,201.333 240.333,200 241.5,200 C242.466,200 243.005,199.022 243.014,197.25 C243.035,192.968 244.101,190 245.617,190 C246.721,190 247,192.524 247,202.5 C247,212.944 246.753,215 245.5,215 C244.379,215 243.997,216.201 243.986,219.75 C243.969,225.923 243.103,229 241.383,229 C240.373,229 240,230.484 240,234.5 C240,238.526 239.628,240 238.611,240 C237.816,240 236.942,241.495 236.566,243.5 C236.173,245.595 235.325,247 234.455,247 C233.655,247 233,247.9 233,249 C233,250.932 232.333,251 213.406,251 C194.654,251 193.79,250.914 193.29,249 C192.848,247.312 191.926,247 187.383,247 C183.321,247 182,246.64 182,245.534 C182,244.531 180.424,243.86 177,243.406 C173.754,242.975 172,242.261 172,241.371 C172,240.376 170.493,240 166.5,240 C162.43,240 161,239.633 161,238.588 C161,237.72 159.459,236.915 157,236.5 C154.541,236.085 153,235.28 153,234.412 C153,233.5 151.904,233 149.906,233 C147.654,233 146.671,232.456 146.29,231 C145.919,229.583 144.926,229 142.883,229 C140.987,229 140,228.487 140,227.5 C140,226.667 139.111,226 138,226 C136.667,226 136,225.333 136,224 C136,222.667 135.333,222 134,222 C132.889,222 132,221.333 132,220.5 C132,219.675 131.325,219 130.5,219 C129.667,219 129,218.111 129,217 C129,215.667 128.333,215 127,215 C125.413,215 124.997,214.329 124.986,211.75 C124.966,207 123.959,204 122.383,204 C121.242,204 121,199.527 121,178.383 L121,152.767 L118.75,153.37 C117.513,153.701 115.938,153.979 115.25,153.986 C114.563,153.994 114,154.616 114,155.37 C114,156.258 112.365,156.924 109.349,157.264 C106.551,157.58 104.34,158.428 103.799,159.394 C103.305,160.277 102.023,161 100.95,161 C99.878,161 99,161.639 99,162.421 C99,163.202 97.65,164.138 96,164.5 C93.38,165.075 93,165.592 93,168.579 C93,170.953 93.459,172 94.5,172 C95.801,172 96,176.056 96,202.5 C96,227.802 95.764,233 94.617,233 C93.856,233 92.998,233.9 92.71,235 C92.31,236.532 91.346,237 88.594,237 C85.068,237 85,236.925 85,233 C85,230.293 85.44,229 86.361,229 C88.212,229 88.981,221.78 88.991,204.3 C88.999,191.81 88.789,189.981 87.25,189.12 C85.842,188.332 85.43,186.446 85.143,179.467 L84.786,170.793 L81.768,171.396 C80.108,171.728 77.906,172 76.875,172 C75.844,172 75,172.675 75,173.5 C75,174.333 74.111,175 73,175 C71.667,175 71,175.667 71,177 C71,178.333 70.333,179 69,179 C67.889,179 67,179.667 67,180.5 C67,181.325 66.325,182 65.5,182 C64.667,182 64,182.889 64,184 C64,185.111 64.667,186 65.5,186 C66.548,186 67,187.056 67,189.5 C67,192.833 66.833,193 63.5,193 C60.667,193 60,192.619 60,191 C60,189.667 59.333,189 58,189 C56.889,189 56,188.333 56,187.5 C56,186.675 55.325,186 54.5,186 C53.367,186 53,184.778 53,181 C53,177.222 53.367,176 54.5,176 C55.325,176 56,175.15 56,174.111 C56,172.745 56.967,172.041 59.5,171.566 C61.595,171.173 63,170.325 63,169.455 C63,168.57 63.979,168 65.5,168 C66.962,168 68,167.426 68,166.617 C68,165.101 70.968,164.035 75.25,164.014 C77.022,164.005 78,163.466 78,162.5 C78,161.667 78.889,161 80,161 C81.938,161 82,160.338 81.986,139.75 C81.979,128.063 81.701,117.487 81.37,116.25 C80.717,113.816 78,113.117 78,115.383 C78,116.959 75,117.966 70.25,117.986 C68.034,117.996 67,118.477 67,119.5 C67,120.325 66.283,121 65.406,121 C64.53,121 63.577,121.9 63.29,123 C62.61,125.599 60,125.599 60,123 C60,121.381 59.333,121 56.5,121 C53.167,121 53,120.833 53,117.5 C53,115.056 53.452,114 54.5,114 C55.333,114 56,113.111 56,112 C56,110.242 56.667,110 61.5,110 C65.649,110 67,109.642 67,108.544 C67,107.43 68.704,107.019 74.25,106.794 L81.5,106.5 L81.785,96.25 C82,88.502 82.396,86 83.407,86 C84.194,86 85.008,84.354 85.384,82 C85.965,78.368 86.299,78 89.012,78 C91.001,78 92,77.499 92,76.5 C92,75.667 92.889,75 94,75 C95.733,75 96,75.667 96,80 C96,83.576 95.608,85 94.625,85 C92.94,85 92,89.342 92,97.125 L92,103 L114,103 L114,99.5 C114,96.667 114.381,96 116,96 C117.619,96 118,95.333 118,92.5 C118,90.18 118.468,89 119.389,89 C120.177,89 121.054,87.527 121.416,85.597 C121.767,83.725 122.717,81.939 123.527,81.628 C124.554,81.234 125,79.54 125,76.031 C125,72.226 125.365,71 126.5,71 C127.663,71 128,69.681 128,65.125 C128,57.342 128.94,53 130.625,53 C131.381,53 132,52.1 132,51 Z M174.25,128.706 C180.07,127.585 186,128.553 186,130.625 C186,131.381 186.9,132 188,132 C189.518,132 189.997,132.662 189.986,134.75 C189.965,139.032 188.899,142 187.383,142 C186.436,142 186,143.261 186,146 C186,148.834 185.576,150 184.545,150 C183.675,150 182.827,151.405 182.434,153.5 C182.058,155.505 181.184,157 180.389,157 C179.625,157 179,157.9 179,159 C179,160.111 178.333,161 177.5,161 C176.675,161 176,161.675 176,162.5 C176,163.325 176.675,164 177.5,164 C178.325,164 179,163.325 179,162.5 C179,161.31 180.444,161 186,161 L193,161 L193,168 L188.117,168 C184.074,168 183.143,168.344 182.71,170 C182.31,171.532 181.346,172 178.594,172 C176.066,172 175,172.445 175,173.5 C175,174.548 173.944,175 171.5,175 C168.667,175 168,175.381 168,177 C168,178.758 167.333,179 162.5,179 C158.528,179 157,179.378 157,180.361 C157,182.559 136.857,184.196 135.563,182.103 C134.591,180.53 136.196,175 137.625,175 C138.381,175 139,174.381 139,173.625 C139,172.254 143.12,171 147.625,171 C149.069,171 150,170.412 150,169.5 C150,168.348 151.278,168 155.5,168 C159.722,168 161,167.652 161,166.5 C161,165.675 161.717,165 162.594,165 C163.47,165 164.423,164.1 164.71,163 C164.998,161.9 165.856,161 166.617,161 C167.377,161 168,160.1 168,159 C168,157.889 168.667,157 169.5,157 C170.325,157 171,156.283 171,155.406 C171,154.53 171.9,153.577 173,153.29 C174.392,152.926 175,151.926 175,150 C175,148.074 175.608,147.074 177,146.71 C178.547,146.306 179,145.346 179,142.477 L179,138.767 L172.4,139.187 C167.538,139.497 165.549,140.055 164.85,141.304 C164.292,142.301 162.685,143 160.95,143 C158.917,143 158,143.496 158,144.594 C158,145.47 157.1,146.423 156,146.71 C154.9,146.998 154,147.856 154,148.617 C154,149.522 152.831,150 150.617,150 C148.074,150 147.103,149.503 146.71,148 C146.423,146.9 145.47,146 144.594,146 C143.439,146 143,145.036 143,142.5 C143,140.056 143.452,139 144.5,139 C145.325,139 146,138.381 146,137.625 C146,136.254 150.12,135 154.625,135 C156.069,135 157,134.412 157,133.5 C157,132.3 158.5,132 164.5,132 C170.338,132 172,131.683 172,130.57 C172,129.783 173.012,128.944 174.25,128.706 Z"/>
</svg>

