<svg xmlns="http://www.w3.org/2000/svg" width="300" height="300" viewBox="0 0 300 300" version="1.1">
  <defs/>
  <path d="M110.667,38.667 C111.033,38.3 112.833,38 114.667,38 C117.333,38 118,38.4 118,40 C118,41.111 118.667,42 119.5,42 C120.548,42 121,43.056 121,45.5 C121,48.333 121.381,49 123,49 C124.619,49 125,49.667 125,52.5 C125,54.944 125.452,56 126.5,56 C127.333,56 128,56.889 128,58 C128,59.333 128.667,60 130,60 C131.37,60 132,60.667 132,62.117 C132,63.824 132.435,64.117 134.25,63.63 C135.488,63.299 137.287,63.021 138.25,63.014 C139.213,63.006 140,62.325 140,61.5 C140,60.513 140.988,60 142.889,60 C145.387,60 145.864,59.536 146.42,56.572 C146.94,53.804 147.634,53.02 150.032,52.493 C151.664,52.134 153,51.202 153,50.421 C153,49.639 153.848,49 154.883,49 C155.926,49 157,48.107 157.29,47 C157.577,45.9 158.53,45 159.406,45 C160.283,45 161,44.325 161,43.5 C161,42.452 162.056,42 164.5,42 C166.896,42 168,41.541 168,40.545 C168,38.818 172.903,37.717 178.544,38.177 C182.337,38.487 182.5,38.644 182.5,42 L182.5,45.5 L177.25,45.802 C173.473,46.02 172,46.511 172,47.552 C172,48.531 170.903,49 168.617,49 C166.074,49 165.103,49.497 164.71,51 C164.423,52.1 163.47,53 162.594,53 C161.717,53 161,53.675 161,54.5 C161,55.333 160.111,56 159,56 C157.667,56 157,56.667 157,58 C157,59.111 156.333,60 155.5,60 C154.675,60 154,60.717 154,61.594 C154,62.47 153.1,63.423 152,63.71 C150.9,63.998 150,64.803 150,65.5 C150,66.197 149.1,67.002 148,67.29 C146.9,67.577 146,68.53 146,69.406 C146,70.283 145.325,71 144.5,71 C143.675,71 143,71.623 143,72.383 C143,73.144 142.1,74.002 141,74.29 C139.9,74.577 139,75.53 139,76.406 C139,77.671 140.134,78 144.5,78 C148.454,78 150,77.62 150,76.648 C150,75.235 160.292,74.018 172.344,74.006 C177.349,74.001 178.262,74.287 178.71,76 C179.103,77.503 180.074,78 182.617,78 C185.333,78 186,78.394 186,80 C186,81.111 186.667,82 187.5,82 C188.548,82 189,83.056 189,85.5 C189,87.944 188.548,89 187.5,89 C186.348,89 186,90.278 186,94.5 C186,98.516 185.627,100 184.617,100 C183.856,100 182.962,101.013 182.63,102.25 C181.848,105.169 181.848,122.831 182.63,125.75 C183.301,128.253 186,128.854 186,126.5 C186,125.31 187.444,125 193,125 C198.556,125 200,125.31 200,126.5 C200,127.333 200.889,128 202,128 C203.667,128 204,128.667 204,132 L204,136 L195,136 C187.667,136 186,136.278 186,137.5 C186,138.325 185.325,139 184.5,139 C183.348,139 183,140.278 183,144.5 C183,148.722 183.348,150 184.5,150 C185.753,150 186,152.056 186,162.5 C186,172.708 186.264,175 187.439,175 C189.284,175 190.463,182.425 189.567,188.403 C189.027,192.004 188.451,192.921 186.407,193.434 C185.033,193.779 183.479,193.796 182.954,193.472 C182.429,193.147 182,189.759 182,185.941 C182,180.438 181.689,179 180.5,179 C179.311,179 179,177.561 179,172.05 C179,166.469 178.655,164.907 177.25,164.122 C175.775,163.298 175.448,161.34 175.166,151.667 C174.978,145.186 175.12,142.016 173.605,140.469 C171.96,138.789 168.358,139.024 160.25,139.014 C150.662,139.001 150,139.129 150,141 C150,142.758 149.333,143 144.5,143 C140.278,143 139,143.348 139,144.5 C139,145.325 138.381,146 137.625,146 C136.254,146 135,150.12 135,154.625 C135,156.069 134.412,157 133.5,157 C132.222,157 132,159.667 132,175 C132,189.998 132.24,193 133.44,193 C134.381,193 134.987,194.297 135.19,196.75 C135.494,200.422 135.578,200.494 139.25,200.207 L143,199.913 L143,203.957 C143,207.333 142.67,208 141,208 C139.889,208 139,208.667 139,209.5 C139,210.548 137.944,211 135.5,211 C133.056,211 132,210.548 132,209.5 C132,208.675 131.365,208 130.588,208 C129.72,208 128.915,206.459 128.5,204 C128.085,201.541 127.28,200 126.412,200 C125.231,200 125,195.656 125,173.5 C125,147.667 124.95,147 123,147 C121.889,147 121,147.667 121,148.5 C121,149.548 119.944,150 117.5,150 C115.187,150 114,150.469 114,151.383 C114,152.959 111,153.966 106.25,153.986 C104.034,153.996 103,154.477 103,155.5 C103,156.653 101.716,157 97.448,157 L91.895,157 L92.198,151.75 L92.5,146.5 L96.25,146.19 C98.703,145.987 100,145.381 100,144.44 C100,143.461 101.121,143 103.5,143 C105.813,143 107,142.531 107,141.617 C107,139.897 110.077,139.031 116.25,139.014 C119.799,139.003 121,138.621 121,137.5 C121,136.667 121.889,136 123,136 C124.333,136 125,135.333 125,134 C125,132.9 125.665,132 126.479,132 C127.725,132 128,128.891 128.229,112.25 L128.5,92.5 L143,91.912 L143,95.55 C143,98.346 142.538,99.308 141,99.71 C139.497,100.103 139,101.074 139,103.617 C139,105.957 138.538,107 137.5,107 C136.238,107 136,109.222 136,121 C136,132.778 136.238,135 137.5,135 C138.325,135 139,134.325 139,133.5 C139,132.278 140.667,132 148,132 C154.97,132 157,131.69 157,130.625 C157,129.049 161.261,128 167.661,128 L172.072,128 L171.402,119.122 C171.033,114.24 171.037,108.615 171.411,106.622 C172.036,103.289 172.367,103 175.545,103 C177.949,103 179,102.544 179,101.5 C179,100.675 179.675,100 180.5,100 C181.688,100 182,98.569 182,93.117 C182,86.824 181.807,86.182 179.75,85.63 C178.512,85.299 168.838,85.021 158.25,85.014 C139.662,85 139,85.069 139,87 C139,88.893 138.333,89 126.5,89 C116.056,89 114,89.247 114,90.5 C114,91.325 113.345,92 112.545,92 C110.712,92 109.549,86.217 110.434,81.5 C111.089,78.008 111.103,78 116.545,78 C120.523,78 122,77.625 122,76.617 C122,75.101 124.968,74.035 129.25,74.014 C131.626,74.002 132,73.599 132,71.045 C132,68.46 131.562,68.008 128.5,67.434 C126.495,67.058 125,66.184 125,65.389 C125,64.625 124.1,64 123,64 C121.667,64 121,63.333 121,62 C121,60.9 120.345,60 119.545,60 C118.675,60 117.827,58.595 117.434,56.5 C117.058,54.495 116.184,53 115.389,53 C114.625,53 114,52.1 114,51 C114,49.9 113.377,49 112.617,49 C110.517,49 108.9,40.433 110.667,38.667 Z M45,151.5 C45,150.417 46.111,150 49,150 C52.333,150 53,150.333 53,152 C53,153.1 53.617,154 54.371,154 C55.261,154 55.975,155.754 56.406,159 C56.86,162.424 57.531,164 58.534,164 C59.757,164 60,166.49 60,179 C60,191.105 59.733,194 58.617,194 C57.101,194 56.035,196.968 56.014,201.25 C56.005,203.022 55.466,204 54.5,204 C53.667,204 53,204.889 53,206 C53,207.111 53.667,208 54.5,208 C55.325,208 56,208.675 56,209.5 C56,210.333 56.889,211 58,211 C59.104,211 60,211.667 60,212.488 C60,213.451 61.412,214.202 64,214.616 C66.274,214.98 68,215.813 68,216.548 C68,217.259 69.35,218.138 71,218.5 C72.65,218.862 74,219.798 74,220.579 C74,221.361 74.9,222 76,222 C77.1,222 78,222.655 78,223.455 C78,224.325 79.405,225.173 81.5,225.566 C83.505,225.942 85,226.816 85,227.611 C85,228.375 85.9,229 87,229 C88.333,229 89,229.667 89,231 C89,232.619 89.667,233 92.5,233 C94.82,233 96,233.468 96,234.389 C96,235.184 97.495,236.058 99.5,236.434 C101.595,236.827 103,237.675 103,238.545 C103,239.541 104.104,240 106.5,240 C108.848,240 110,240.465 110,241.412 C110,242.28 111.541,243.085 114,243.5 C116.459,243.915 118,244.72 118,245.588 C118,246.714 120.124,247 128.5,247 C138.462,247 139,247.106 139,249.076 C139,251.119 139.322,251.148 158.538,250.826 C174.579,250.558 178.241,250.232 179.001,249 C179.788,247.723 185.088,247.455 214.69,247.2 C246.411,246.927 249.562,247.049 250.692,248.594 C251.463,249.648 253.83,250.469 256.965,250.771 C260.332,251.094 262,251.709 262,252.627 C262,253.382 262.675,254 263.5,254 C264.583,254 265,255.111 265,258 L265,262 L259.906,262 C255.654,262 254.726,261.67 254.29,260 C253.807,258.155 252.926,258 242.883,258 C233.876,258 232,257.741 232,256.5 C232,255.262 230.167,255 221.5,255 C212.833,255 211,255.262 211,256.5 C211,257.81 205.5,258 167.5,258 C130.313,258 124,257.791 124,256.561 C124,255.511 122.105,254.934 117,254.431 C112.073,253.946 110,253.336 110,252.371 C110,251.471 108.798,251 106.5,251 C104.104,251 103,250.541 103,249.545 C103,248.675 101.595,247.827 99.5,247.434 C97.495,247.058 96,246.184 96,245.389 C96,244.544 94.923,243.995 93.25,243.986 C88.968,243.965 86,242.899 86,241.383 C86,240.574 84.962,240 83.5,240 C81.979,240 81,239.43 81,238.545 C81,237.675 79.595,236.827 77.5,236.434 C75.575,236.073 74,235.188 74,234.468 C74,233.748 72.688,232.871 71.084,232.518 C69.479,232.166 67.919,231.23 67.615,230.439 C67.311,229.648 66.374,229 65.531,229 C64.689,229 64,228.325 64,227.5 C64,226.667 63.111,226 62,226 C60.667,226 60,225.333 60,224 C60,222.381 59.333,222 56.5,222 C54.215,222 53,221.528 53,220.639 C53,219.757 51.286,219.076 48.122,218.701 C42.327,218.015 39,218.713 39,220.617 C39,221.442 37.945,222 36.383,222 C34.158,222 33.857,221.664 34.37,219.75 C34.701,218.512 34.979,216.037 34.986,214.25 C34.996,212.034 35.477,211 36.5,211 C37.325,211 38,210.283 38,209.406 C38,208.53 38.9,207.577 40,207.29 C41.1,207.002 42,206.144 42,205.383 C42,204.623 42.9,204 44,204 C45.619,204 46,203.333 46,200.5 C46,198.056 46.452,197 47.5,197 C48.538,197 49,195.957 49,193.617 C49,191.074 49.497,190.103 51,189.71 C52.802,189.239 53,188.346 53,180.71 C53,173.074 52.802,172.181 51,171.71 C49.565,171.335 49,170.346 49,168.21 C49,166.074 48.435,165.086 47,164.71 C45.9,164.423 45,163.47 45,162.594 C45,161.717 44.325,161 43.5,161 C42.417,161 42,159.889 42,157 C42,154.111 42.417,153 43.5,153 C44.325,153 45,152.325 45,151.5 Z M49,97.5 C49,95.274 51.684,95.682 52.29,98 C52.603,99.197 53.654,100 54.906,100 C56.101,100 57,100.644 57,101.5 C57,102.325 57.675,103 58.5,103 C59.333,103 60,103.889 60,105 C60,106.1 60.655,107 61.455,107 C62.325,107 63.173,108.405 63.566,110.5 C63.942,112.505 64.816,114 65.611,114 C66.712,114 67,116.281 67,125 L67,136 L60,136 L60,127 C60,119.432 59.746,118 58.406,118 C57.53,118 56.577,117.1 56.29,116 C56.002,114.9 55.144,114 54.383,114 C53.623,114 53,113.1 53,112 C53,110.667 52.333,110 51,110 C49.889,110 49,109.333 49,108.5 C49,107.675 48.381,107 47.625,107 C46.196,107 44.591,101.47 45.563,99.897 C45.868,99.404 46.766,99 47.559,99 C48.352,99 49,98.325 49,97.5 Z"/>
</svg>

