<svg xmlns="http://www.w3.org/2000/svg" width="300" height="300" viewBox="0 0 300 300" version="1.1">
  <defs/>
  <path d="M118.853,31.67 C119.759,31.429 121.963,31.18 123.75,31.116 L127,31 L127,36.5 C127,40.722 126.652,42 125.5,42 C123.21,42 123.714,44.692 126.122,45.322 C129.683,46.253 138,44.88 138,43.361 C138,42.612 138.675,42 139.5,42 C140.325,42 141,42.675 141,43.5 C141,44.333 141.889,45 143,45 C144.111,45 145,44.333 145,43.5 C145,42.258 146.889,42 156,42 C164.816,42 167,41.719 167,40.585 C167,39.556 169.01,38.982 174.379,38.479 C187.208,37.277 188.956,38.387 188.986,47.75 C188.996,50.855 189.404,52 190.5,52 C191.583,52 192,53.111 192,56 C192,58.889 191.583,60 190.5,60 C189.373,60 189,61.206 189,64.853 C189,74.154 187.791,82 186.358,82 C185.407,82 184.996,83.423 184.986,86.75 C184.969,92.923 184.103,96 182.383,96 C180.235,96 180.755,99.123 183,99.71 C184.366,100.068 184.996,101.067 184.986,102.867 C184.956,108.681 184.115,109.727 178.914,110.417 C174.099,111.056 174,111.139 174,114.534 C174,116.862 173.534,118 172.579,118 C171.798,118 170.869,119.321 170.514,120.935 C170.032,123.13 169.138,124.03 166.967,124.507 C164.661,125.014 163.935,125.83 163.439,128.473 C162.136,135.42 162.332,135.542 174.141,135.135 C188.096,134.655 199,135.737 199,137.601 C199,138.675 200.742,139 206.5,139 C212.396,139 214,139.311 214,140.455 C214,141.325 215.405,142.173 217.5,142.566 L221,143.223 L221,150.621 C221,156.782 220.665,158.306 219,159.732 C217.9,160.674 217,162.244 217,163.222 C217,164.2 216.325,165 215.5,165 C214.675,165 214,165.675 214,166.5 C214,167.333 213.111,168 212,168 C210.667,168 210,168.667 210,170 C210,171.111 209.333,172 208.5,172 C207.675,172 207,172.675 207,173.5 C207,174.333 206.111,175 205,175 C203.667,175 203,175.667 203,177 C203,178.606 202.333,179 199.617,179 C197.074,179 196.103,179.497 195.71,181 C195.329,182.456 194.346,183 192.094,183 C190.01,183 189,183.49 189,184.5 C189,185.667 187.667,186 183,186 C178.416,186 177,185.657 177,184.545 C177,183.675 175.595,182.827 173.5,182.434 C171.495,182.058 170,181.184 170,180.389 C170,177.463 167.198,179.134 166.58,182.427 C166.226,184.312 165.435,186.022 164.823,186.226 C163.477,186.674 163.332,189.967 163.146,224.25 C163.02,247.296 162.792,251 161.5,251 C160.209,251 160,254.278 160,274.5 C160,297.333 159.943,298 158,298 C156.9,298 156,298.45 156,299 C156,300.572 153.278,300.167 152.638,298.5 C152.322,297.675 151.374,297 150.531,297 C149.342,297 149,295.772 149,291.5 C149,287.278 149.348,286 150.5,286 C151.777,286 152,283.351 152,268.156 C152,243.028 152.95,229 154.652,229 C155.619,229 156,227.447 156,223.5 C156,219.278 155.652,218 154.5,218 C153.675,218 153,217.325 153,216.5 C153,215.675 153.675,215 154.5,215 C155.798,215 156,211.167 156,186.5 C156,161.833 155.798,158 154.5,158 C153.477,158 152.996,156.966 152.986,154.75 C152.96,148.486 152.077,147 148.383,147 C146.043,147 145,147.462 145,148.5 C145,149.652 143.722,150 139.5,150 C135.484,150 134,150.373 134,151.383 C134,152.899 131.032,153.965 126.75,153.986 C124.978,153.995 124,154.534 124,155.5 C124,156.555 122.934,157 120.406,157 C117.654,157 116.69,157.468 116.29,159 C116.002,160.1 115.144,161 114.383,161 C113.469,161 113,162.187 113,164.5 C113,167.81 112.817,168 109.617,168 C106.783,168 106.154,167.585 105.745,165.448 C104.928,161.173 106.109,154 107.63,154 C108.384,154 109,153.1 109,152 C109,150.333 109.667,150 113,150 C115.739,150 117,149.564 117,148.617 C117,147.101 119.968,146.035 124.25,146.014 C126.022,146.005 127,145.466 127,144.5 C127,143.348 128.278,143 132.5,143 C137.333,143 138,142.758 138,141 C138,139.19 138.667,139 145,139 L152,139 L152,132 C152,126.444 151.69,125 150.5,125 C149.348,125 149,123.722 149,119.5 C149,115.278 149.348,114 150.5,114 C151.325,114 152,113.325 152,112.5 Q152,111 149,111 Q146,111 146,112.5 C146,113.583 144.889,114 142,114 C139.261,114 138,114.436 138,115.383 C138,116.144 136.762,117.007 135.25,117.3 C131.41,118.046 127,117.016 127,115.375 C127,114.47 125.803,114 123.5,114 C120.167,114 120,113.833 120,110.5 C120,107.667 120.381,107 122,107 C123.725,107 124,106.333 124,102.147 C124,92.846 122.791,85 121.358,85 C120.296,85 120,82.598 120,74 C120,65.376 119.705,63 118.636,63 C116.924,63 115.995,56.665 116.014,45.11 C116.03,35.007 116.609,32.266 118.853,31.67 Z M163.121,50.75 C162.313,52.196 160.396,52.56 152.072,52.844 C144.729,53.094 142,53.535 142,54.469 C142,55.759 137.773,57 133.375,57 C131.387,57 131,57.504 131,60.094 C131,62.346 130.456,63.329 129,63.71 C127.497,64.103 127,65.074 127,67.617 C127,69.831 127.478,71 128.383,71 C130.34,71 130.971,74.209 130.986,84.25 C130.997,91.355 131.282,93 132.5,93 C133.466,93 134.005,93.978 134.014,95.75 C134.045,102.05 134.845,103 140.117,103 C143.593,103 145,102.604 145,101.625 C145,100.052 149.259,99 155.625,99 C158.847,99 160,98.605 160,97.5 C160,96.31 161.444,96 167,96 C173.333,96 174,95.81 174,94 C174,92.889 174.667,92 175.5,92 C176.325,92 177,91.325 177,90.5 C177,89.675 176.325,89 175.5,89 C173.274,89 173.682,86.316 176,85.71 C177.532,85.31 178,84.346 178,81.594 C178,78.667 177.629,78 176,78 C174.381,78 174,78.667 174,81.5 C174,83.813 173.531,85 172.617,85 C171.856,85 170.998,85.9 170.71,87 C170.423,88.1 169.47,89 168.594,89 C167.401,89 167,87.993 167,85 C167,82.111 167.417,81 168.5,81 C169.325,81 170,80.325 170,79.5 C170,78.31 168.556,78 163,78 C157.541,78 156,78.32 156,79.455 C156,80.325 154.595,81.173 152.5,81.566 C149.318,82.163 149,82.53 149,85.611 C149,88.333 148.607,89 147,89 C145.667,89 145,88.333 145,87 C145,85.381 144.333,85 141.5,85 C138.167,85 138,84.833 138,81.5 C138,79.056 138.452,78 139.5,78 C140.325,78 141,77.283 141,76.406 C141,75.53 141.9,74.577 143,74.29 C144.1,74.002 145,73.144 145,72.383 C145,71.462 146.201,71 148.594,71 C151.346,71 152.31,70.532 152.71,69 C153.191,67.162 154.074,67 163.617,67 C173.333,67 174,67.128 174,69 C174,70.1 174.623,71 175.383,71 C176.144,71 177.002,71.9 177.29,73 C177.577,74.1 178.53,75 179.406,75 C180.779,75 181,73.281 181,62.617 C181,54.976 181.153,51.625 179.565,50.156 C178.191,48.885 175.512,49.025 170.3,49.014 C165.425,49.003 163.89,49.374 163.121,50.75 Z M163.434,147.311 C163.157,148.032 163.059,153.77 163.215,160.061 L163.5,171.5 L166.75,171.813 C168.864,172.017 170,172.661 170,173.657 C170,174.499 170.9,175.423 172,175.71 C173.1,175.998 174,176.856 174,177.617 C174,178.66 175.689,179 180.883,179 C186.926,179 187.831,178.756 188.29,177 C188.671,175.544 189.654,175 191.906,175 C194.07,175 195,174.521 195,173.406 C195,172.53 195.9,171.577 197,171.29 C198.1,171.002 199,170.144 199,169.383 C199,168.623 199.9,168 201,168 C202.333,168 203,167.333 203,166 C203,164.889 203.667,164 204.5,164 C205.325,164 206,163.283 206,162.406 C206,161.53 206.9,160.577 208,160.29 C209.656,159.857 210,158.926 210,154.883 C210,150.667 209.727,150 208,150 C206.9,150 206,149.388 206,148.639 C206,146.748 198.722,146.019 179.719,146.009 C167.617,146.002 163.82,146.306 163.434,147.311 Z M145,1 C145,0.379 150.5,0 159.5,0 C167.475,0 174,0.4 174,0.889 C174,1.377 175.575,2.073 177.5,2.434 C180.562,3.008 181,3.46 181,6.045 C181,7.923 180.485,9 179.588,9 C178.72,9 177.915,10.541 177.5,13 C176.892,16.596 176.53,17 173.912,17 C171.274,17 171,16.684 171,13.64 C171,10.299 170.968,10.277 165.452,9.707 C156.251,8.758 131,10.102 131,11.542 C131,12.221 129.425,13.073 127.5,13.434 C125.405,13.827 124,14.675 124,15.545 C124,16.345 123.1,17 122,17 C120.643,17 120,17.667 120,19.073 C120,21.693 116.685,21.317 116.169,18.639 C115.539,15.37 117.017,10 118.545,10 C119.345,10 120,9.1 120,8 C120,6.381 120.667,6 123.5,6 C125.803,6 127,5.53 127,4.625 C127,2.94 131.342,2 139.125,2 C142.375,2 145,1.553 145,1 Z M84,144.383 C84,143.623 84.9,143 86,143 C87.111,143 88,143.667 88,144.5 C88,145.325 88.625,146 89.389,146 C90.184,146 91.058,147.495 91.434,149.5 C91.827,151.595 92.675,153 93.545,153 C94.576,153 95,154.166 95,157 C95,159.889 95.417,161 96.5,161 C97.548,161 98,162.056 98,164.5 C98,167.333 98.381,168 100,168 C101.727,168 102,168.667 102,172.883 C102,176.926 102.344,177.857 104,178.29 C105.197,178.603 106,179.654 106,180.906 C106,182.101 106.644,183 107.5,183 C108.325,183 109,183.675 109,184.5 C109,185.333 109.889,186 111,186 C112.758,186 113,186.667 113,191.5 L113,197 L109.406,197 C106.654,197 105.69,196.532 105.29,195 C105.002,193.9 104.144,193 103.383,193 C102.469,193 102,191.813 102,189.5 C102,186.667 101.619,186 100,186 C98.667,186 98,185.333 98,184 C98,182.9 97.375,182 96.611,182 C95.816,182 94.942,180.505 94.566,178.5 C94.173,176.405 93.325,175 92.455,175 C91.459,175 91,173.896 91,171.5 C91,168.667 90.619,168 89,168 C87.381,168 87,167.333 87,164.5 C87,162.056 86.548,161 85.5,161 C84.667,161 84,160.111 84,159 C84,157.667 83.333,157 82,157 C80.262,157 80,156.333 80,151.906 C80,147.654 80.33,146.726 82,146.29 C83.1,146.002 84,145.144 84,144.383 Z M163.638,105.5 C163.322,106.325 162.374,107 161.531,107 C160.448,107 160,108.024 160,110.5 C160,112.944 160.452,114 161.5,114 C162.325,114 163,114.675 163,115.5 C163,116.333 163.889,117 165,117 C166.619,117 167,116.333 167,113.5 C167,111.056 167.452,110 168.5,110 Q170,110 170,107 C170,104.358 169.655,104 167.107,104 C165.458,104 163.966,104.645 163.638,105.5 Z"/>
</svg>

