<svg xmlns="http://www.w3.org/2000/svg" width="300" height="300" viewBox="0 0 300 300" version="1.1">
  <defs/>
  <path d="M181.29,33 C181.852,30.852 182.309,30.708 185.693,31.615 C187.073,31.985 188.122,33.278 188.522,35.102 C188.872,36.696 189.798,38 190.579,38 C191.361,38 192,38.9 192,40 C192,41.619 192.667,42 195.5,42 C197.944,42 199,42.452 199,43.5 C199,44.333 199.889,45 201,45 C202.333,45 203,45.667 203,47 C203,48.619 203.667,49 206.5,49 C209.333,49 210,49.381 210,51 C210,52.333 210.667,53 212,53 C213.111,53 214,53.667 214,54.5 C214,55.548 215.056,56 217.5,56 C220.333,56 221,56.381 221,58 C221,59.619 221.667,60 224.5,60 C226.944,60 228,60.452 228,61.5 C228,62.548 229.056,63 231.5,63 C234.333,63 235,63.381 235,65 C235,66.333 235.667,67 237,67 C238.667,67 239,67.667 239,71 C239,73.889 238.583,75 237.5,75 C236.675,75 236,75.675 236,76.5 C236,77.583 234.889,78 232,78 C228.095,78 228,77.917 228,74.5 C228,71.167 227.833,71 224.5,71 C221.667,71 221,70.619 221,69 C221,67.667 220.333,67 219,67 C217.889,67 217,66.333 217,65.5 C217,64.534 216.022,63.995 214.25,63.986 C209.968,63.965 207,62.899 207,61.383 C207,60.623 206.1,60 205,60 C203.378,60 203,60.667 203,63.531 C203,65.67 202.436,67.279 201.571,67.611 C200.65,67.965 199.898,70.44 199.455,74.58 C198.976,79.048 198.346,81 197.384,81 C196.373,81 196,82.484 196,86.5 L196,92 L199.5,92 C201.944,92 203,91.548 203,90.5 C203,89.312 204.431,89 209.883,89 C215.926,89 216.831,88.756 217.29,87 C217.785,85.108 218.654,85 233.406,85 C247.008,85 249,85.204 249,86.594 C249,87.47 249.9,88.423 251,88.71 C252.1,88.998 253,89.803 253,90.5 C253,91.197 253.9,92.002 255,92.29 C256.737,92.744 256.998,93.648 256.986,99.156 C256.97,106.861 256.216,110 254.383,110 C253.436,110 253,111.261 253,114 C253,116.889 252.583,118 251.5,118 C250.534,118 249.995,118.978 249.986,120.75 C249.965,125.032 248.899,128 247.383,128 C246.478,128 246,129.169 246,131.383 C246,133.926 245.503,134.897 244,135.29 C242.468,135.69 242,136.654 242,139.406 C242,141.934 241.555,143 240.5,143 C239.667,143 239,143.889 239,145 C239,146.111 239.667,147 240.5,147 C241.325,147 242,147.675 242,148.5 C242,149.333 241.111,150 240,150 C238.9,150 238,150.639 238,151.421 C238,152.202 236.65,153.138 235,153.5 C233.35,153.862 232,154.798 232,155.579 C232,156.361 231.1,157 230,157 C228.381,157 228,157.667 228,160.5 C228,163.036 227.561,164 226.406,164 C225.53,164 224.577,164.9 224.29,166 C223.848,167.688 222.926,168 218.383,168 C214.265,168 213,168.352 213,169.5 C213,170.325 212.325,171 211.5,171 C210.452,171 210,169.944 210,167.5 C210,164.167 210.167,164 213.5,164 C216.857,164 217,163.852 217,160.37 L217,156.74 L212.349,157.264 C209.551,157.58 207.34,158.428 206.799,159.394 C206.245,160.385 204.579,161 202.45,161 C200.05,161 199,161.456 199,162.5 C199,163.466 198.022,164.005 196.25,164.014 C191.968,164.035 189,165.101 189,166.617 C189,167.377 188.1,168 187,168 C185.667,168 185,168.667 185,170 C185,171.111 185.667,172 186.5,172 C187.325,172 188,172.675 188,173.5 C188,174.325 187.325,175 186.5,175 C185.675,175 185,175.623 185,176.383 C185,178.103 181.923,178.969 175.75,178.986 C172.201,178.997 171,179.379 171,180.5 C171,181.325 171.675,182 172.5,182 C173.333,182 174,182.889 174,184 C174,185.1 174.655,186 175.455,186 C176.325,186 177.173,187.405 177.566,189.5 C177.927,191.425 178.797,193 179.5,193 C180.203,193 181.073,194.575 181.434,196.5 C181.827,198.595 182.675,200 183.545,200 C184.345,200 185,200.9 185,202 C185,203.111 185.667,204 186.5,204 C187.684,204 188.003,202.577 188.014,197.25 C188.033,187.729 188.645,186 192,186 C193.926,186 194.926,185.392 195.29,184 C195.726,182.33 196.654,182 200.906,182 C204.767,182 206,181.637 206,180.5 C206,179.222 208.667,179 224,179 C239.333,179 242,179.222 242,180.5 C242,181.333 242.889,182 244,182 C245.333,182 246,182.667 246,184 C246,185.333 246.667,186 248,186 C249.111,186 250,186.667 250,187.5 C250,188.325 250.675,189 251.5,189 C252.652,189 253,190.278 253,194.5 C253,198.526 252.628,200 251.611,200 C250.816,200 249.942,201.495 249.566,203.5 C249.173,205.595 248.325,207 247.455,207 C246.57,207 246,207.979 246,209.5 C246,211.056 245.433,212 244.5,212 C243.675,212 243,212.675 243,213.5 C243,214.333 242.111,215 241,215 C239.381,215 239,215.667 239,218.5 L239,222 L260,222 L260,225.383 C260,229.52 258.772,229.967 247.357,229.986 C241.05,229.997 239.084,230.338 238.638,231.5 C238.277,232.441 236.748,233 234.531,233 C232.108,233 231,233.456 231,234.455 C231,235.325 229.595,236.173 227.5,236.566 C225.495,236.942 224,237.816 224,238.611 C224,239.532 222.82,240 220.5,240 C218.187,240 217,240.469 217,241.383 C217,242.959 214,243.966 209.25,243.986 C207.034,243.996 206,244.477 206,245.5 C206,246.69 204.556,247 199,247 L192,247 L192,243.5 C192,241.056 192.452,240 193.5,240 C194.548,240 195,238.944 195,236.5 C195,234.056 194.548,233 193.5,233 C192.417,233 192,231.889 192,229 C192,226.211 191.57,225 190.579,225 C189.798,225 188.862,223.65 188.5,222 C188.138,220.35 187.259,219 186.548,219 C185.813,219 184.98,217.274 184.616,215 C184.202,212.412 183.451,211 182.488,211 C181.67,211 181,210.325 181,209.5 C181,208.675 180.325,208 179.5,208 C178.667,208 178,207.111 178,206 C178,204.667 177.333,204 176,204 C174.381,204 174,203.333 174,200.5 C174,197.667 173.619,197 172,197 C170.667,197 170,196.333 170,195 C170,193.9 169.377,193 168.617,193 C167.856,193 166.998,192.1 166.71,191 C166.335,189.564 165.346,189 163.205,189 C160.588,189 160.142,189.429 159.566,192.5 C159.173,194.595 158.325,196 157.455,196 C156.57,196 156,196.979 156,198.5 C156,200.021 155.43,201 154.545,201 C153.675,201 152.827,202.405 152.434,204.5 C152.058,206.505 151.184,208 150.389,208 C149.503,208 149,209.121 149,211.094 C149,213.346 148.456,214.329 147,214.71 C145.497,215.103 145,216.074 145,218.617 C145,220.957 144.538,222 143.5,222 C142.667,222 142,222.889 142,224 C142,225.333 141.333,226 140,226 C138.381,226 138,226.667 138,229.5 C138,231.944 137.548,233 136.5,233 C135.675,233 135,233.717 135,234.594 C135,235.47 134.1,236.423 133,236.71 C131.608,237.074 131,238.074 131,240 C131,241.926 130.392,242.926 129,243.29 C127.803,243.603 127,244.654 127,245.906 C127,247.058 126.361,248 125.579,248 C124.798,248 123.862,249.35 123.5,251 C123.138,252.65 122.202,254 121.421,254 C120.639,254 120,254.9 120,256 C120,257.333 119.333,258 118,258 C116.667,258 116,258.667 116,260 C116,261.111 115.333,262 114.5,262 C113.675,262 113,262.717 113,263.594 C113,264.47 112.1,265.423 111,265.71 C109.9,265.998 109,266.889 109,267.69 C109,269.79 105.596,268.856 105.169,266.639 C104.539,263.37 106.017,258 107.545,258 C108.345,258 109,257.1 109,256 C109,254.667 109.667,254 111,254 C112.111,254 113,253.333 113,252.5 C113,251.675 113.675,251 114.5,251 C115.333,251 116,250.111 116,249 C116,247.667 116.667,247 118,247 C119.619,247 120,246.333 120,243.5 C120,240.667 120.381,240 122,240 C123.333,240 124,239.333 124,238 C124,236.889 124.667,236 125.5,236 C126.548,236 127,234.944 127,232.5 C127,229.667 127.381,229 129,229 C130.619,229 131,228.333 131,225.5 C131,223.056 131.452,222 132.5,222 C133.325,222 134,221.283 134,220.406 C134,219.53 134.9,218.577 136,218.29 C137.656,217.857 138,216.926 138,212.883 C138,209.082 138.353,208 139.594,208 C140.47,208 141.423,207.1 141.71,206 C141.998,204.9 142.856,204 143.617,204 C144.531,204 145,202.813 145,200.5 C145,197.667 145.381,197 147,197 C148.619,197 149,196.333 149,193.5 C149,191.152 149.465,190 150.412,190 C151.28,190 152.085,188.459 152.5,186 C152.915,183.541 153.72,182 154.588,182 C155.535,182 156,180.848 156,178.5 L156,175 L147,175 C139.987,175 138,174.693 138,173.611 C138,172.816 136.505,171.942 134.5,171.566 C132.405,171.173 131,170.325 131,169.455 C131,168.655 130.1,168 129,168 C127.667,168 127,167.333 127,166 C127,164.667 126.333,164 125,164 C123.889,164 123,163.333 123,162.5 C123,161.675 122.325,161 121.5,161 C120.193,161 120,165.833 120,198.5 C120,231.167 119.807,236 118.5,236 C117.667,236 117,236.889 117,238 C117,239.333 116.333,240 115,240 C113.667,240 113,240.667 113,242 C113,243.619 112.333,244 109.5,244 L106,244 L106,229.5 C106,217.751 106.265,215 107.397,215 C108.458,215 108.88,212.933 109.147,206.43 C109.436,199.418 109.83,197.674 111.317,196.843 C112.977,195.914 113.073,194.819 112.428,184.163 C112.039,177.748 111.344,172.254 110.882,171.954 C110.421,171.654 109.742,167.492 109.374,162.704 L108.705,154 L105.352,154 C102.188,154 102,154.196 102,157.5 C102,160.333 101.619,161 100,161 C98.889,161 98,161.667 98,162.5 C98,163.325 97.325,164 96.5,164 C95.667,164 95,164.889 95,166 C95,167.1 94.377,168 93.617,168 C92.856,168 91.998,168.9 91.71,170 C91.423,171.1 90.52,172 89.705,172 C88.803,172 87.966,173.369 87.566,175.5 C87.173,177.595 86.325,179 85.455,179 C84.655,179 84,179.675 84,180.5 C84,181.325 83.283,182 82.406,182 C81.53,182 80.577,182.9 80.29,184 C80.002,185.1 79.197,186 78.5,186 C77.803,186 76.998,186.9 76.71,188 C76.423,189.1 75.47,190 74.594,190 C73.717,190 73,190.675 73,191.5 C73,192.325 72.283,193 71.406,193 C70.53,193 69.577,193.9 69.29,195 C69.002,196.1 68.144,197 67.383,197 C66.623,197 66,197.675 66,198.5 C66,199.325 65.283,200 64.406,200 C63.53,200 62.577,200.9 62.29,202 C62.002,203.1 61.197,204 60.5,204 C59.803,204 58.998,204.9 58.71,206 C58.423,207.1 57.47,208 56.594,208 C55.717,208 55,208.625 55,209.389 C55,210.184 53.505,211.058 51.5,211.434 C49.405,211.827 48,212.675 48,213.545 C48,214.541 46.896,215 44.5,215 C41.083,215 41,214.905 41,211 C41,208.111 41.417,207 42.5,207 C43.325,207 44,206.325 44,205.5 C44,204.417 45.111,204 48,204 C51.333,204 52,203.667 52,202 C52,200.889 52.667,200 53.5,200 C54.325,200 55,199.325 55,198.5 C55,197.667 55.889,197 57,197 C58.333,197 59,196.333 59,195 C59,193.667 59.667,193 61,193 C62.111,193 63,192.333 63,191.5 C63,190.675 63.675,190 64.5,190 C65.333,190 66,189.111 66,188 C66,186.9 66.623,186 67.383,186 C68.144,186 69.002,185.1 69.29,184 C69.577,182.9 70.477,182 71.29,182 C72.102,182 73.002,181.1 73.29,180 C73.577,178.9 74.53,178 75.406,178 C76.283,178 77,177.325 77,176.5 C77,175.675 77.625,175 78.389,175 C79.184,175 80.058,173.505 80.434,171.5 C80.827,169.405 81.675,168 82.545,168 C83.345,168 84,167.377 84,166.617 C84,165.856 84.9,164.998 86,164.71 C87.197,164.397 88,163.346 88,162.094 C88,160.942 88.639,160 89.421,160 C90.202,160 91.138,158.65 91.5,157 C91.862,155.35 92.798,154 93.579,154 C94.361,154 95,153.1 95,152 C95,150.889 95.667,150 96.5,150 C97.325,150 98,149.283 98,148.406 C98,147.53 98.9,146.577 100,146.29 C101.503,145.897 102,144.926 102,142.383 C102,139.667 102.394,139 104,139 C105.619,139 106,138.333 106,135.5 C106,133.056 106.452,132 107.5,132 C108.548,132 109,130.944 109,128.5 C109,125.667 108.619,125 107,125 C105.9,125 105,124.377 105,123.617 C105,121.79 101.865,121.03 94.25,121.014 L88,121 L88,116.117 C88,110.563 88.796,110.038 97.25,110.014 C100.799,110.003 102,109.621 102,108.5 C102,107.675 102.675,107 103.5,107 C104.7,107 105,105.5 105,99.5 C105,93.5 104.7,92 103.5,92 C102.278,92 102,90.333 102,83 C102,75.791 102.29,74 103.455,74 C104.325,74 105.173,72.595 105.566,70.5 C105.942,68.495 106.816,67 107.611,67 C108.375,67 109,66.325 109,65.5 C109,64.667 109.889,64 111,64 C112.111,64 113,64.667 113,65.5 C113,66.333 113.889,67 115,67 C116.629,67 117,67.667 117,70.594 C117,73.346 116.532,74.31 115,74.71 C113.097,75.208 113,76.074 113,92.617 L113,110 L120,110 C125.556,110 127,109.69 127,108.5 C127,107.477 128.034,106.996 130.25,106.986 C136.514,106.96 138,106.077 138,102.383 C138,100.127 138.473,99 139.421,99 C140.202,99 141.138,97.65 141.5,96 C141.862,94.35 142.798,93 143.579,93 C144.361,93 145,92.086 145,90.969 C145,89.851 145.663,88.683 146.473,88.372 C147.283,88.061 148.233,86.275 148.584,84.403 C148.935,82.532 149.812,81 150.532,81 C151.252,81 152.138,79.65 152.5,78 C152.862,76.35 153.798,75 154.579,75 C155.57,75 156,73.789 156,71 C156,67.667 156.333,67 158,67 C159.333,67 160,66.333 160,65 C160,63.889 160.667,63 161.5,63 C162.466,63 163.005,62.022 163.014,60.25 C163.035,55.968 164.101,53 165.617,53 C166.377,53 167,52.1 167,51 C167,49.889 167.667,49 168.5,49 C169.548,49 170,47.944 170,45.5 C170,42.667 170.381,42 172,42 C173.619,42 174,41.333 174,38.5 C174,35.19 174.183,35 177.383,35 C179.926,35 180.897,34.503 181.29,33 Z M179.75,45.689 C178.571,45.998 178,47.131 178,49.167 C178,51.346 177.443,52.333 176,52.71 C174.497,53.103 174,54.074 174,56.617 C174,58.837 173.523,60 172.611,60 C171.816,60 170.942,61.495 170.566,63.5 C170.203,65.437 169.31,67 168.566,67 C167.822,67 166.929,68.563 166.566,70.5 C166.173,72.595 165.325,74 164.455,74 C163.459,74 163,75.104 163,77.5 C163,79.944 162.548,81 161.5,81 C160.667,81 160,81.889 160,83 C160,84.333 159.333,85 158,85 C156.394,85 156,85.667 156,88.383 C156,90.926 155.503,91.897 154,92.29 C152.9,92.577 152,93.53 152,94.406 C152,95.283 151.325,96 150.5,96 C149.452,96 149,97.056 149,99.5 C149,102.333 148.619,103 147,103 C145.667,103 145,103.667 145,105 C145,106.807 145.667,107 151.892,107 C158.409,107 158.817,107.136 159.411,109.5 C160.286,112.986 159.101,116.974 157.142,117.137 C156.239,117.212 152.35,117.348 148.5,117.44 C136.14,117.732 135,117.906 135,119.5 C135,120.325 134.15,121 133.111,121 C131.745,121 131.041,121.967 130.566,124.5 C130.173,126.595 129.325,128 128.455,128 C127.655,128 127,128.9 127,130 C127,131.111 126.333,132 125.5,132 C124.452,132 124,133.056 124,135.5 C124,138.333 123.619,139 122,139 C120.242,139 120,139.667 120,144.5 C120,148.722 120.348,150 121.5,150 C122.325,150 123,150.717 123,151.594 C123,152.47 123.9,153.423 125,153.71 C126.1,153.998 127,154.856 127,155.617 C127,156.377 127.9,157 129,157 C130.333,157 131,157.667 131,159 C131,160.333 131.667,161 133,161 C134.111,161 135,161.667 135,162.5 C135,163.51 136.01,164 138.094,164 C140.346,164 141.329,164.544 141.71,166 C142.181,167.798 143.074,168 150.571,168 L158.909,168 L159.566,164.5 C159.927,162.575 160.795,161 161.495,161 C162.353,161 162.903,158.862 163.185,154.432 C163.438,150.46 164.127,147.54 164.927,147.045 C165.735,146.546 166.449,143.453 166.76,139.113 C167.124,134.017 167.656,132 168.634,132 C169.595,132 170.004,130.591 170.014,127.25 C170.031,121.077 170.897,118 172.617,118 C173.56,118 174,116.75 174,114.072 L174,110.145 L168.5,110.712 L163,111.28 L163,107.14 C163,103.667 163.322,103 165,103 C166.1,103 167,102.381 167,101.625 C167,100.254 171.12,99 175.625,99 C177.069,99 178,98.412 178,97.5 C178,96.675 178.675,96 179.5,96 C180.325,96 181,95.377 181,94.617 C181,93.856 181.9,92.998 183,92.71 C184.197,92.397 185,91.346 185,90.094 C185,88.942 185.639,88 186.42,88 C187.431,88 188.042,86.123 188.537,81.5 C189.022,76.968 189.652,75 190.616,75 C191.672,75 192,73.219 192,67.5 C192,61.803 191.669,60 190.625,60 C189.254,60 188,55.88 188,51.375 C188,49.931 187.412,49 186.5,49 C185.667,49 185,48.111 185,47 C185,45.013 183.638,44.673 179.75,45.689 Z M228,94.5 C228,95.722 226.333,96 219,96 C212.004,96 210,96.308 210,97.383 C210,99.103 206.923,99.969 200.75,99.986 C197.201,99.997 196,100.379 196,101.5 C196,102.548 194.944,103 192.5,103 C189.667,103 189,103.381 189,105 C189,106.538 189.667,107 191.883,107 C193.926,107 194.919,107.583 195.29,109 C195.577,110.1 196.53,111 197.406,111 C198.283,111 199,111.675 199,112.5 C199,113.652 197.722,114 193.5,114 C189.278,114 188,113.652 188,112.5 C188,111.675 187.325,111 186.5,111 C185.513,111 185,111.987 185,113.883 C185,115.926 184.417,116.919 183,117.29 C181.33,117.726 181,118.654 181,122.906 C181,126.767 180.637,128 179.5,128 C178.395,128 178,129.153 178,132.375 C178,138.741 176.948,143 175.375,143 C174.375,143 174,144.5 174,148.5 C174,152.479 173.623,154 172.636,154 C171.051,154 169.679,161.873 170.614,165.598 C171.342,168.498 174,168.814 174,166 C174,164.667 174.667,164 176,164 C177.111,164 178,163.333 178,162.5 C178,161.452 179.056,161 181.5,161 C184.333,161 185,160.619 185,159 C185,157.381 185.667,157 188.5,157 L192,157 L192,148 C192,141.004 192.308,139 193.383,139 C194.144,139 195.002,138.1 195.29,137 C195.577,135.9 196.53,135 197.406,135 C198.283,135 199,134.325 199,133.5 C199,132.667 199.889,132 201,132 C202.1,132 203,131.377 203,130.617 C203,129.041 206,128.034 210.75,128.014 C212.966,128.004 214,127.523 214,126.5 C214,125.278 215.667,125 223,125 C229.996,125 232,125.308 232,126.383 C232,127.75 236.78,129.254 238.244,128.349 C238.66,128.092 239,126.334 239,124.441 C239,122.049 239.457,121 240.5,121 C241.548,121 242,119.944 242,117.5 C242,114.667 242.381,114 244,114 C245.852,114 246,113.333 246,105 L246,96 L242.5,96 C240.056,96 239,95.548 239,94.5 C239,93.348 237.722,93 233.5,93 C229.278,93 228,93.348 228,94.5 Z M217,187.375 C217,188.904 212.772,190 206.875,190 C204.235,190 203,190.443 203,191.389 C203,192.174 201.535,193.052 199.629,193.41 C196.558,193.986 196.207,194.419 195.685,198.271 C194.766,205.053 196.055,218 197.648,218 C198.559,218 199,219.306 199,222 C199,224.834 199.424,226 200.455,226 C201.325,226 202.173,227.405 202.566,229.5 C203.163,232.682 203.53,233 206.611,233 C209.333,233 210,232.607 210,231 C210,229.381 210.667,229 213.5,229 C215.82,229 217,228.532 217,227.611 C217,226.816 218.495,225.942 220.5,225.566 C222.595,225.173 224,224.325 224,223.455 C224,222.655 224.9,222 226,222 C227.333,222 228,221.333 228,220 C228,218.9 228.639,218 229.421,218 C230.202,218 231.138,216.65 231.5,215 C231.862,213.35 232.798,212 233.579,212 C234.361,212 235,211.152 235,210.117 C235,209.074 235.893,208 237,207.71 C238.456,207.329 239,206.346 239,204.094 C239,202.01 239.49,201 240.5,201 C241.356,201 242,200.101 242,198.906 C242,197.654 242.803,196.603 244,196.29 C246.381,195.667 246.677,194 244.406,194 C243.53,194 242.58,193.111 242.296,192.025 C241.96,190.739 240.596,189.827 238.39,189.413 C236.469,189.053 235,188.175 235,187.389 C235,186.307 233.013,186 226,186 C219.03,186 217,186.31 217,187.375 Z M210.75,135.728 C208.335,135.981 207,136.633 207,137.56 C207,138.352 206.152,139 205.117,139 C204.074,139 203,139.893 202.71,141 C202.423,142.1 201.47,143 200.594,143 C199.348,143 199,144.092 199,148 C199,152.333 199.267,153 201,153 C202.111,153 203,152.333 203,151.5 C203,150.452 204.056,150 206.5,150 C208.813,150 210,149.531 210,148.617 C210,146.897 213.077,146.031 219.25,146.014 C222.799,146.003 224,145.621 224,144.5 C224,143.667 224.889,143 226,143 C227.667,143 228,142.333 228,139 L228,135 L221.25,135.168 C217.537,135.261 212.813,135.513 210.75,135.728 Z M120,119.5 C120,120.325 119.352,121 118.559,121 C116.511,121 115.839,122.51 116.578,125.454 C117.26,128.173 120,129.01 120,126.5 C120,125.675 120.675,125 121.5,125 C122.333,125 123,124.111 123,123 C123,121.667 123.667,121 125,121 C126.111,121 127,120.333 127,119.5 C127,118.452 125.944,118 123.5,118 C121.056,118 120,118.452 120,119.5 Z"/>
</svg>

