<svg xmlns="http://www.w3.org/2000/svg" width="300" height="300" viewBox="0 0 300 300" version="1.1">
  <defs/>
  <path d="M163,54.5 C163,53.452 164.056,53 166.5,53 C169.833,53 170,53.167 170,56.5 C170,58.944 169.548,60 168.5,60 C167.452,60 167,61.056 167,63.5 C167,66.833 167.167,67 170.5,67 C172.896,67 174,66.541 174,65.545 C174,64.675 175.405,63.827 177.5,63.434 C179.505,63.058 181,62.184 181,61.389 C181,60.625 181.9,60 183,60 C184.1,60 185,59.345 185,58.545 C185,56.712 190.783,55.549 195.5,56.434 C198.698,57.034 199,57.389 199,60.545 C199,62.826 198.528,64 197.611,64 C196.816,64 195.942,65.495 195.566,67.5 C195.173,69.595 194.325,71 193.455,71 C192.655,71 192,71.675 192,72.5 C192,73.325 191.283,74 190.406,74 C189.53,74 188.577,74.9 188.29,76 C188.002,77.1 187.144,78 186.383,78 C185.623,78 185,78.623 185,79.383 C185,80.144 184.1,81.002 183,81.29 C181.9,81.577 181,82.53 181,83.406 C181,84.283 180.311,85 179.469,85 C178.626,85 177.689,85.648 177.385,86.439 C177.081,87.23 175.521,88.166 173.916,88.518 C171.187,89.118 171,89.468 171,93.971 C171,98.27 171.267,98.85 173.5,99.411 C176.831,100.247 181,99.124 181,97.392 C181,96.291 183.197,96 191.5,96 C199.742,96 202,95.704 202,94.625 C202,93.052 206.259,92 212.625,92 C215.847,92 217,91.605 217,90.5 C217,89.452 218.056,89 220.5,89 C222.944,89 224,89.452 224,90.5 C224,91.333 224.889,92 226,92 C227.333,92 228,92.667 228,94 C228,95.367 227.333,96 225.893,96 C224.523,96 223.969,96.478 224.31,97.366 C224.881,98.854 217.506,100 207.353,100 C203.261,100 202,100.353 202,101.5 C202,102.672 200.633,103.003 195.75,103.014 C188.135,103.03 185,103.79 185,105.617 C185,106.627 183.516,107 179.5,107 C175.278,107 174,107.348 174,108.5 C174,109.325 173.381,110 172.625,110 C171.254,110 170,114.12 170,118.625 C170,120.333 170.561,121 172,121 C173.919,121 174,121.667 174,137.5 L174,154 L187.883,154 C201.436,154 201.781,154.054 202.37,156.25 C202.701,157.488 202.979,159.738 202.986,161.25 C203.001,164.234 202.988,164.239 193.5,164.447 C190.75,164.508 185.238,164.657 181.25,164.779 L174,165 L174,170 C174,173.778 173.633,175 172.5,175 C171.435,175 170.997,176.087 170.991,178.75 C170.974,186.378 169.751,193 168.361,193 C167.612,193 167,193.9 167,195 C167,196.333 166.333,197 165,197 C163.889,197 163,197.667 163,198.5 C163,200.796 160.307,200.283 159.675,197.867 C159.369,196.693 159.385,187.959 159.711,178.457 L160.305,161.181 L144.115,160.841 C134.07,160.629 127.654,160.093 127.212,159.427 C126.821,158.837 125.713,158.064 124.75,157.708 C123.536,157.26 123,155.982 123,153.531 C123,150.667 123.378,150 125,150 C126.104,150 127,149.333 127,148.512 C127,147.549 128.412,146.798 131,146.384 C133.413,145.998 135,145.2 135,144.372 C135,143.617 135.675,143 136.5,143 C137.333,143 138,142.111 138,141 C138,139.667 138.667,139 140,139 C141.111,139 142,138.333 142,137.5 C142,136.675 142.675,136 143.5,136 C144.333,136 145,135.111 145,134 C145,132.667 145.667,132 147,132 C148.1,132 149,131.345 149,130.545 C149,129.675 150.405,128.827 152.5,128.434 C154.425,128.073 156,127.185 156,126.462 C156,125.739 156.779,124.997 157.73,124.813 C159.077,124.554 159.502,123.32 159.65,119.24 L159.839,114 L154.42,114 C150.488,114 149,114.377 149,115.375 C149,116.746 144.88,118 140.375,118 C138.931,118 138,118.588 138,119.5 C138,120.652 136.722,121 132.5,121 C127.667,121 127,121.242 127,123 C127,124.721 126.338,124.998 122.25,124.986 C114.418,124.964 113,124.258 113,120.383 C113,118.043 113.462,117 114.5,117 C115.325,117 116,116.325 116,115.5 C116,114.462 117.043,114 119.383,114 C121.926,114 122.897,113.503 123.29,112 C123.734,110.301 124.654,110 129.406,110 C133.712,110 135,109.655 135,108.5 C135,107.49 136.01,107 138.094,107 C140.346,107 141.329,106.456 141.71,105 C142.081,103.583 143.074,103 145.117,103 C147.088,103 148,102.496 148,101.406 C148,100.53 148.9,99.577 150,99.29 C151.1,99.002 152,98.144 152,97.383 C152,96.623 152.9,96 154,96 C155.333,96 156,95.333 156,94 C156,92.9 156.623,92 157.383,92 C158.899,92 159.965,89.032 159.986,84.75 C159.999,82.206 159.7,82 156,82 C153.111,82 152,82.417 152,83.5 C152,84.738 150.167,85 141.5,85 C133.207,85 131,84.708 131,83.611 C131,82.816 129.505,81.942 127.5,81.566 C125.405,81.173 124,80.325 124,79.455 C124,78.655 123.1,78 122,78 C120.9,78 120,77.377 120,76.617 C120,75.856 119.069,74.99 117.931,74.692 C116.271,74.258 115.925,73.494 116.181,70.826 C116.494,67.566 116.604,67.494 121.75,67.198 C126.476,66.926 127,67.1 127,68.948 C127,70.333 127.65,71 129,71 C130.1,71 131,71.655 131,72.455 C131,73.325 132.405,74.173 134.5,74.566 C136.505,74.942 138,75.816 138,76.611 C138,77.628 139.474,78 143.5,78 C148.333,78 149,77.758 149,76 C149,74.267 149.667,74 154,74 L159,74 L159,70.5 C159,68.056 158.548,67 157.5,67 C156.675,67 156,66.325 156,65.5 C156,64.675 156.635,64 157.412,64 C158.28,64 159.085,62.459 159.5,60 C159.915,57.541 160.72,56 161.588,56 C162.365,56 163,55.325 163,54.5 Z M67.75,175.689 C68.713,175.438 70.963,175.18 72.75,175.116 C75.372,175.022 76,175.386 76,177 C76,178.111 75.333,179 74.5,179 C73.452,179 73,180.056 73,182.5 C73,184.944 72.548,186 71.5,186 C70.379,186 69.997,187.201 69.986,190.75 C69.969,196.923 69.103,200 67.383,200 C66.436,200 66,201.261 66,204 C66,207.905 66.083,208 69.5,208 C71.944,208 73,208.452 73,209.5 C73,210.753 75.043,211 85.383,211 C96.926,211 97.802,211.136 98.29,213 C98.726,214.67 99.654,215 103.906,215 C107.767,215 109,215.363 109,216.5 C109,217.684 110.423,218.003 115.75,218.014 C123.848,218.03 127,218.759 127,220.617 C127,221.671 128.781,222 134.5,222 C140.223,222 142,222.328 142,223.385 C142,224.313 143.812,224.996 147.5,225.457 C151.047,225.9 153,226.613 153,227.466 C153,228.423 155.232,228.89 161.076,229.155 C167.457,229.445 169.357,229.887 170.126,231.261 C170.954,232.74 172.662,233 181.55,233 C190.172,233 192,233.262 192,234.5 C192,235.722 193.667,236 201,236 C208.333,236 210,235.722 210,234.5 C210,233.289 211.589,232.997 218.25,232.986 C227.804,232.971 231,232.318 231,230.383 C231,229.373 232.484,229 236.5,229 C241.333,229 242,229.242 242,231 C242,232.333 242.667,233 244,233 C245.333,233 246,233.667 246,235 C246,236.111 245.333,237 244.5,237 C243.675,237 243,237.675 243,238.5 C243,239.333 242.111,240 241,240 C239.889,240 239,240.667 239,241.5 C239,242.333 238.111,243 237,243 C235.889,243 235,242.333 235,241.5 C235,240.452 233.944,240 231.5,240 C229.187,240 228,240.469 228,241.383 C228,243.34 224.791,243.971 214.75,243.986 C207.645,243.997 206,244.282 206,245.5 C206,246.633 204.778,247 201,247 C197.222,247 196,246.633 196,245.5 C196,244.277 194.323,244 186.906,244 C178.654,244 177.764,243.815 177.29,242 C176.684,239.682 174,239.274 174,241.5 C174,242.325 173.325,243 172.5,243 C171.675,243 171,242.325 171,241.5 C171,240.3 169.5,240 163.5,240 C157.742,240 156,239.675 156,238.601 C156,237.604 153.995,237.002 149,236.5 C144.005,235.998 142,235.396 142,234.399 C142,233.37 140.545,233 136.5,233 C132.484,233 131,232.627 131,231.617 C131,230.041 128,229.034 123.25,229.014 C121.034,229.004 120,228.523 120,227.5 C120,226.342 118.691,225.998 114.25,225.991 C104.782,225.977 98,224.879 98,223.361 C98,222.255 93.966,222 76.5,222 L55,222 L55,215.117 C55,209.074 55.244,208.169 57,207.71 C58.841,207.229 59,206.346 59,196.594 C59,187.844 59.261,186 60.5,186 C61.548,186 62,184.944 62,182.5 C62,179.667 62.381,179 64,179 C65.1,179 66,178.358 66,177.573 C66,176.789 66.787,175.941 67.75,175.689 Z M59,104.531 C59,103.448 60.024,103 62.5,103 C65.833,103 66,103.167 66,106.5 C66,109.333 66.381,110 68,110 C69.333,110 70,110.667 70,112 C70,113.111 70.667,114 71.5,114 C72.333,114 73,114.889 73,116 C73,117.1 73.655,118 74.455,118 C75.325,118 76.173,119.405 76.566,121.5 C76.929,123.437 77.822,125 78.566,125 C79.31,125 80.203,126.563 80.566,128.5 C80.942,130.505 81.816,132 82.611,132 C83.375,132 84,132.9 84,134 C84,135.1 84.623,136 85.383,136 C86.899,136 87.965,138.968 87.986,143.25 C87.995,145.022 88.534,146 89.5,146 C90.652,146 91,147.278 91,151.5 C91,155.722 90.652,157 89.5,157 C88.445,157 88,158.066 88,160.594 C88,163.346 87.532,164.31 86,164.71 C84.497,165.103 84,166.074 84,168.617 C84,171.333 83.606,172 82,172 C80.889,172 80,172.667 80,173.5 C80,174.325 79.325,175 78.5,175 C77.452,175 77,173.944 77,171.5 C77,168.667 77.381,168 79,168 C80.619,168 81,167.333 81,164.5 C81,162.056 81.452,161 82.5,161 C83.7,161 84,159.5 84,153.5 C84,147.604 83.689,146 82.545,146 C81.675,146 80.827,144.595 80.434,142.5 C80.058,140.495 79.184,139 78.389,139 C77.625,139 77,138.311 77,137.469 C77,136.626 76.337,135.683 75.527,135.372 C74.717,135.061 73.767,133.275 73.416,131.403 C73.054,129.473 72.177,128 71.389,128 C70.625,128 70,127.325 70,126.5 C70,125.667 69.111,125 68,125 C66.667,125 66,124.333 66,123 C66,121.9 65.345,121 64.545,121 C63.675,121 62.827,119.595 62.434,117.5 C62.058,115.495 61.184,114 60.389,114 C59.625,114 59,113.311 59,112.469 C59,111.626 58.325,110.678 57.5,110.362 C56.675,110.045 56,109.207 56,108.5 C56,107.793 56.675,106.955 57.5,106.638 C58.325,106.322 59,105.374 59,104.531 Z M59,62.5 L59,57 L62.5,57 C64.944,57 66,57.452 66,58.5 C66,59.333 66.889,60 68,60 C69.111,60 70,60.667 70,61.5 C70,62.325 70.675,63 71.5,63 C72.583,63 73,64.111 73,67 C73,69.889 72.583,71 71.5,71 C70.675,71 70,71.675 70,72.5 C70,73.541 68.953,74 66.579,74 C63.592,74 63.075,73.62 62.5,71 C62.138,69.35 61.202,68 60.421,68 C59.365,68 59,66.585 59,62.5 Z M156,137.389 C156,138.184 154.505,139.058 152.5,139.434 C150.405,139.827 149,140.675 149,141.545 C149,142.345 148.377,143 147.617,143 C146.331,143 145.045,145.84 145.014,148.75 C145.004,149.658 147.459,150 154,150 C162.333,150 163,149.852 163,148 C163,146.889 162.333,146 161.5,146 C160.367,146 160,144.778 160,141 C160,136.667 159.733,136 158,136 C156.9,136 156,136.625 156,137.389 Z M174,72.383 C174,73.144 173.1,74.002 172,74.29 C170.9,74.577 170,75.53 170,76.406 C170,78.953 176.614,78.584 177.29,76 C177.577,74.9 178.53,74 179.406,74 C180.283,74 181,73.325 181,72.5 C181,71.452 179.944,71 177.5,71 C175.187,71 174,71.469 174,72.383 Z"/>
</svg>

