<svg xmlns="http://www.w3.org/2000/svg" width="300" height="300" viewBox="0 0 300 300" version="1.1">
  <defs/>
  <path d="M156,76.5 C156,75.675 156.675,75 157.5,75 C158.325,75 159,75.675 159,76.5 C159,77.652 160.278,78 164.5,78 C168.722,78 170,78.348 170,79.5 C170,80.575 168.903,81 166.125,81 C160.228,81 156,82.096 156,83.625 C156,84.381 155.1,85 154,85 C152.667,85 152,85.667 152,87 C152,88.111 151.333,89 150.5,89 C149.344,89 149,90.292 149,94.625 L149,100.25 L152.125,99.625 C153.844,99.281 156.319,99 157.625,99 C159.069,99 160,98.412 160,97.5 C160,96.238 162.222,96 174,96 C185.229,96 188,95.727 188,94.622 C188,93.354 201.162,92.517 227,92.142 C233.883,92.042 239,93.074 239,94.561 C239,95.539 240.122,96 242.5,96 C245.833,96 246,96.167 246,99.5 C246,102.333 245.619,103 244,103 C242.645,103 242,103.667 242,105.066 C242,107.085 241.617,107.125 224.928,106.816 C209.908,106.538 207.738,106.29 206.878,104.75 C205.633,102.521 196.238,102.217 195.408,104.379 C195.112,105.151 192.704,106.047 189.939,106.414 L185,107.069 L185,121.034 C185,132.782 185.238,135 186.5,135 C187.605,135 188,136.153 188,139.375 C188,145.741 189.052,150 190.625,150 C191.669,150 192,151.803 192,157.5 C192,163.219 192.329,165 193.383,165 C195.21,165 195.97,168.135 195.986,175.75 C195.997,180.633 196.328,182 197.5,182 C198.753,182 199,184.05 199,194.45 C199,205.268 199.229,207.029 200.75,207.88 C203.172,209.236 204.069,226 201.719,226 C200.902,226 199.998,226.9 199.71,228 C199.423,229.1 198.47,230 197.594,230 C195.208,230 195.673,231.679 198.25,232.37 C199.488,232.701 206.012,232.979 212.75,232.986 C222.966,232.998 225,233.249 225,234.5 C225,235.698 226.486,236 232.375,236 C241.589,236 246,236.85 246,238.625 C246,239.53 247.197,240 249.5,240 C252.833,240 253,240.167 253,243.5 C253,245.944 252.548,247 251.5,247 C250.667,247 250,247.889 250,249 C250,250.667 249.333,251 246,251 C242.667,251 242,250.667 242,249 C242,247.381 241.333,247 238.5,247 C236.056,247 235,246.548 235,245.5 C235,244.275 233.302,243.998 225.75,243.991 C212.996,243.979 206,243.047 206,241.361 C206,240.278 203.141,240 192,240 C180.875,240 178,239.721 178,238.642 C178,237.304 170.277,236 162.353,236 C160.152,236 159,235.521 159,234.606 C159,233.559 156.988,233.12 150.924,232.845 C144.543,232.555 142.643,232.113 141.874,230.739 C141.095,229.347 139.513,229 133.95,229 C128.439,229 127,228.689 127,227.5 C127,226.363 125.767,226 121.906,226 C117.654,226 116.726,225.67 116.29,224 C115.857,222.344 114.926,222 110.883,222 C107.407,222 106,221.604 106,220.625 C106,219.254 101.88,218 97.375,218 C95.931,218 95,217.412 95,216.5 C95,215.445 93.934,215 91.406,215 C88.654,215 87.69,214.532 87.29,213 C86.897,211.497 85.926,211 83.383,211 C81.043,211 80,210.538 80,209.5 C80,208.49 78.99,208 76.906,208 C74.654,208 73.671,207.456 73.29,206 C72.897,204.497 71.926,204 69.383,204 C67.179,204 66,203.521 66,202.625 C66,201.254 61.88,200 57.375,200 C55.931,200 55,199.412 55,198.5 C55,197.452 53.944,197 51.5,197 L48,197 L48,186 L60.5,186 C72.333,186 73,185.893 73,184 C73,182.667 73.667,182 75,182 C76.111,182 77,181.333 77,180.5 C77,179.675 77.675,179 78.5,179 C79.325,179 80,178.283 80,177.406 C80,176.53 80.9,175.577 82,175.29 C83.107,175 84,173.926 84,172.883 C84,171.848 84.675,171 85.5,171 C86.325,171 87,170.325 87,169.5 C87,168.667 87.889,168 89,168 C90.619,168 91,167.333 91,164.5 C91,161.667 91.381,161 93,161 C94.667,161 95,160.333 95,157 C95,154.111 95.417,153 96.5,153 C97.75,153 98,151 98,141 C98,131 97.75,129 96.5,129 C95.675,129 95,128.276 95,127.391 C95,125.208 90.911,121.039 88.75,121.017 C87.787,121.008 87,120.354 87,119.563 C87,118.673 85.763,118.007 83.75,117.813 C80.875,117.536 80.463,117.116 80.181,114.174 C79.925,111.506 80.271,110.742 81.931,110.308 C83.069,110.01 84,109.144 84,108.383 C84,107.623 84.9,107 86,107 C87.111,107 88,107.667 88,108.5 C88,109.548 89.056,110 91.5,110 C94.333,110 95,110.381 95,112 C95,113.333 95.667,114 97,114 C98.333,114 99,114.667 99,116 C99,117.111 99.667,118 100.5,118 C101.487,118 102,118.987 102,120.883 C102,122.926 102.583,123.919 104,124.29 C105.532,124.69 106,125.654 106,128.406 C106,130.934 106.445,132 107.5,132 C108.722,132 109,133.667 109,141 C109,148.333 108.722,150 107.5,150 C106.445,150 106,151.066 106,153.594 C106,156.346 105.532,157.31 104,157.71 C102.497,158.103 102,159.074 102,161.617 C102,163.911 101.532,165 100.545,165 C99.675,165 98.827,166.405 98.434,168.5 C98.058,170.505 97.184,172 96.389,172 C95.625,172 95,172.623 95,173.383 C95,174.144 94.1,175.002 93,175.29 C91.9,175.577 91,176.53 91,177.406 C91,178.283 90.325,179 89.5,179 C88.675,179 88,179.717 88,180.594 C88,181.47 87.1,182.423 86,182.71 C84.9,182.998 84,183.856 84,184.617 C84,185.377 83.1,186 82,186 C80.9,186 80,186.623 80,187.383 C80,188.144 79.1,189.002 78,189.29 C76.9,189.577 76,190.53 76,191.406 C76,192.283 75.325,193 74.5,193 C73.667,193 73,193.889 73,195 C73,196.619 73.667,197 76.5,197 C78.944,197 80,197.452 80,198.5 C80,199.555 81.066,200 83.594,200 C86.346,200 87.31,200.468 87.71,202 C88.103,203.503 89.074,204 91.617,204 C93.922,204 95,204.467 95,205.466 C95,206.469 96.576,207.14 100,207.594 C103.246,208.025 105,208.739 105,209.629 C105,210.426 106.05,211 107.51,211 C108.89,211 110.79,211.9 111.732,213 C113.043,214.531 114.682,215 118.722,215 C122.747,215 124,215.356 124,216.5 C124,217.575 125.097,218 127.875,218 C133.772,218 138,219.096 138,220.625 C138,221.669 139.803,222 145.5,222 C151.159,222 153,222.334 153,223.361 C153,224.714 159.574,225.972 166.75,225.991 C168.968,225.997 170,226.476 170,227.5 C170,228.685 171.574,229.035 177.5,229.167 C181.625,229.258 185.787,229.371 186.75,229.417 C188.261,229.489 188.453,228.716 188.152,223.75 C187.833,218.467 187.975,218 189.902,218 C191.899,218 192,217.496 192,207.5 C192,198.833 191.738,197 190.5,197 C189.435,197 188.997,195.913 188.991,193.25 C188.974,185.622 187.751,179 186.361,179 C185.314,179 185,176.932 185,170.05 C185,162.871 184.682,160.921 183.394,160.201 C182.428,159.66 181.58,157.449 181.264,154.651 C180.957,151.927 180.231,150 179.512,150 C178.22,150 177,141.672 177,132.853 C177,129.206 176.627,128 175.5,128 C174.284,128 174,126.389 174,119.5 C174,112.611 174.284,111 175.5,111 C176.333,111 177,110.111 177,109 C177,107.889 176.333,107 175.5,107 C174.675,107 174,106.325 174,105.5 C174,104.675 173.373,104 172.607,104 C171.841,104 170.955,104.675 170.638,105.5 C170.202,106.637 168.359,107 163.031,107 C157.545,107 156,107.32 156,108.455 C156,109.325 154.595,110.173 152.5,110.566 L149,111.223 L149,127.111 C149,140.568 149.23,143 150.5,143 C151.695,143 152.002,144.476 152.009,150.25 C152.022,161.119 153.042,168 154.639,168 C155.519,168 156,169.198 156,171.392 C156,174.139 155.543,174.898 153.598,175.386 C152.276,175.718 149.801,175.71 148.098,175.37 L145,174.75 L145,165.875 C145,158.653 144.721,157 143.5,157 C142.324,157 142,155.627 142,150.647 C142,139.955 140.873,132 139.358,132 C138.259,132 138,128.178 138,112 C138,95.166 138.23,92 139.455,92 C140.325,92 141.173,90.595 141.566,88.5 C141.942,86.495 142.816,85 143.611,85 C144.375,85 145,84.1 145,83 C145,81.889 145.667,81 146.5,81 C147.325,81 148,80.325 148,79.5 C148,78.417 149.111,78 152,78 C154.889,78 156,77.583 156,76.5 Z M148.71,51 C149.216,49.066 150.074,49 174.626,49 C198.782,49 200.103,49.097 201.732,51 C202.798,52.245 204.682,53 206.722,53 C208.969,53 210,53.472 210,54.5 C210,55.333 210.889,56 212,56 C213.333,56 214,56.667 214,58 C214,59.111 214.667,60 215.5,60 C216.652,60 217,61.278 217,65.5 C217,70.333 216.758,71 215,71 C213.9,71 213,71.623 213,72.383 C213,73.899 210.032,74.965 205.75,74.986 C203.978,74.995 203,75.534 203,76.5 C203,77.333 202.111,78 201,78 C199.381,78 199,77.333 199,74.5 C199,71.167 199.167,71 202.5,71 C205.333,71 206,70.619 206,69 C206,67.667 206.667,67 208,67 C211.425,67 210.231,64.266 206.5,63.566 C204.405,63.173 203,62.325 203,61.455 C203,60.358 201.646,60 197.5,60 C193.278,60 192,59.652 192,58.5 C192,57.238 189.778,57 178,57 C166.222,57 164,57.238 164,58.5 C164,59.698 162.513,60 156.617,60 C150.074,60 149.174,60.228 148.71,62 C148.329,63.456 147.346,64 145.094,64 C143.01,64 142,64.49 142,65.5 C142,66.333 141.111,67 140,67 C138.667,67 138,67.667 138,69 C138,71.09 137.007,71.376 133.25,70.37 C130.767,69.704 130.137,67 132.466,67 C133.468,67 134.14,65.428 134.592,62.022 C135.213,57.338 135.452,57.006 138.626,56.41 C140.534,56.052 142,55.174 142,54.389 C142,53.503 143.121,53 145.094,53 C147.346,53 148.329,52.456 148.71,51 Z M91,72.5 C91,71.456 92.051,71 94.455,71 C97.611,71 97.966,71.302 98.566,74.5 C98.942,76.505 99.816,78 100.611,78 C101.532,78 102,79.18 102,81.5 C102,83.944 102.452,85 103.5,85 C104.652,85 105,86.278 105,90.5 C105,94.722 104.652,96 103.5,96 C102.452,96 102,97.056 102,99.5 C102,101.813 101.531,103 100.617,103 C98.759,103 98.03,99.848 98.014,91.75 C98.003,86.423 97.684,85 96.5,85 C95.675,85 95,84.377 95,83.617 C95,82.856 94.1,81.998 93,81.71 C91.9,81.423 91,80.47 91,79.594 C91,78.717 90.325,78 89.5,78 C88.667,78 88,77.111 88,76 C88,74.889 88.667,74 89.5,74 C90.325,74 91,73.325 91,72.5 Z M183.75,74.689 C187.207,73.786 188,74.031 188,76 C188,77.556 187.333,78 185,78 C181.697,78 180.743,75.475 183.75,74.689 Z"/>
</svg>

