<svg xmlns="http://www.w3.org/2000/svg" width="300" height="300" viewBox="0 0 300 300" version="1.1">
  <defs/>
  <path d="M167,51 C167,49.074 167.667,49 185,49 C200.084,49 203,49.236 203,50.455 C203,51.325 204.405,52.173 206.5,52.566 C208.505,52.942 210,53.816 210,54.611 C210,55.375 210.717,56 211.594,56 C212.47,56 213.423,56.9 213.71,58 C213.998,59.1 214.856,60 215.617,60 C216.711,60 217,62.301 217,71 C217,80.111 216.742,82 215.5,82 C214.49,82 214,83.01 214,85.094 C214,87.346 213.456,88.329 212,88.71 C210.497,89.103 210,90.074 210,92.617 C210,94.957 209.538,96 208.5,96 C207.675,96 207,96.717 207,97.594 C207,98.47 206.1,99.423 205,99.71 C203.9,99.998 203,100.756 203,101.394 C203,102.033 202.1,103.326 201,104.268 C199.9,105.21 199,106.885 199,107.99 C199,109.11 198.336,110 197.5,110 C196.667,110 196,110.889 196,112 C196,113.758 196.667,114 201.5,114 C205.722,114 207,113.652 207,112.5 C207,111.675 207.675,111 208.5,111 C209.325,111 210,111.675 210,112.5 C210,113.333 210.889,114 212,114 C213.111,114 214,113.333 214,112.5 C214,111.452 215.056,111 217.5,111 C219.944,111 221,111.452 221,112.5 C221,113.548 222.056,114 224.5,114 C227.917,114 228,114.095 228,118 C228,120.889 228.417,122 229.5,122 C231.811,122 231.275,123.693 228.75,124.37 C224.008,125.641 221,125.109 221,123 C221,121.148 220.333,121 212,121 L203,121 L203,132 L199.611,132 C196.53,132 196.163,132.318 195.566,135.5 C195.173,137.595 194.325,139 193.455,139 C192.468,139 192,140.089 192,142.383 C192,144.926 191.503,145.897 190,146.29 C188.9,146.577 188,147.53 188,148.406 C188,149.283 187.325,150 186.5,150 C185.416,150 185,151.112 185,154.01 C185,156.782 184.383,158.548 183,159.732 C178.289,163.766 180.939,164.798 195,164.407 C211.3,163.953 228,165.084 228,166.642 C228,167.621 229.533,168 233.5,168 C237.722,168 239,168.348 239,169.5 C239,170.325 239.625,171 240.389,171 C241.193,171 242.063,172.524 242.456,174.619 C243.372,179.499 242.204,186 240.412,186 C239.463,186 239,187.157 239,189.531 C239,191.681 238.437,193.279 237.561,193.615 C236.77,193.919 235.834,195.479 235.482,197.084 C235.129,198.688 234.202,200 233.421,200 C232.639,200 232,200.9 232,202 C232,203.333 231.333,204 230,204 C228.667,204 228,204.667 228,206 C228,207.1 227.377,208 226.617,208 C225.856,208 224.998,208.9 224.71,210 C224.423,211.1 223.47,212 222.594,212 C221.49,212 221,212.922 221,215 C221,217.333 220.556,218 219,218 C217.667,218 217,218.667 217,220 C217,221.333 216.333,222 215,222 C213.9,222 213,222.639 213,223.421 C213,224.202 211.65,225.138 210,225.5 C208.35,225.862 207,226.798 207,227.579 C207,228.361 206.1,229 205,229 C203.667,229 203,229.667 203,231 C203,232.81 203.667,233 210,233 C215.556,233 217,233.31 217,234.5 C217,235.723 218.677,236 226.094,236 C234.346,236 235.236,236.185 235.71,238 C236.075,239.394 237.074,240 239.008,240 C242.208,240 243.393,242.786 242.37,247.902 C241.722,251.138 239.353,252.083 238.362,249.5 C238.045,248.675 237.159,248 236.393,248 C235.627,248 235,247.169 235,246.153 C235,244.456 233.618,244.25 218.066,243.618 C198.727,242.833 188,243.554 188,245.638 C188,246.686 185.928,247 179,247 L170,247 L170,243.5 C170,240.667 170.381,240 172,240 C173.333,240 174,239.333 174,238 C174,236.242 174.667,236 179.5,236 C183.722,236 185,235.652 185,234.5 C185,233.452 186.056,233 188.5,233 C190.944,233 192,232.548 192,231.5 C192,230.675 192.717,230 193.594,230 C194.47,230 195.416,229.126 195.695,228.057 C195.991,226.927 197.416,225.848 199.102,225.478 C200.696,225.128 202,224.202 202,223.421 C202,222.639 202.85,222 203.889,222 C205.255,222 205.959,221.033 206.434,218.5 C206.827,216.405 207.675,215 208.545,215 C209.345,215 210,214.1 210,213 C210,211.667 210.667,211 212,211 C213.111,211 214,210.333 214,209.5 C214,208.675 214.675,208 215.5,208 C216.333,208 217,207.111 217,206 C217,204.667 217.667,204 219,204 C220.333,204 221,203.333 221,202 C221,200.9 221.639,200 222.421,200 C223.202,200 224.138,198.65 224.5,197 C224.862,195.35 225.798,194 226.579,194 C227.428,194 228,192.993 228,191.5 C228,190.007 228.572,189 229.421,189 C231.293,189 232.337,183.956 231.496,178.978 L230.824,175 L178.233,175 L177.867,177.25 C177.665,178.488 177.647,185.688 177.827,193.25 C178.091,204.319 178.432,207 179.577,207 C180.708,207 181,208.952 181,216.5 C181,224.278 181.272,226 182.5,226 C183.325,226 184,226.627 184,227.393 C184,228.159 183.325,229.045 182.5,229.362 C181.675,229.678 181,230.626 181,231.469 C181,232.552 179.976,233 177.5,233 L174,233 L174,224 C174,217.03 173.69,215 172.625,215 C170.94,215 170,210.658 170,202.875 C170,198.539 169.638,197 168.616,197 C167.621,197 167.115,195.15 166.813,190.4 C166.503,185.538 165.945,183.549 164.696,182.85 C163.612,182.243 163,180.655 163,178.45 C163,176.05 162.544,175 161.5,175 C160.452,175 160,173.944 160,171.5 C160,169.056 160.452,168 161.5,168 C162.325,168 163,167.345 163,166.545 C163,165.668 164.422,164.824 166.58,164.419 C168.549,164.05 170.397,163.129 170.687,162.374 C170.977,161.618 171.841,161 172.607,161 C173.532,161 174,159.825 174,157.5 C174,155.18 174.468,154 175.389,154 C176.184,154 177.058,152.505 177.434,150.5 C177.827,148.405 178.675,147 179.545,147 C180.548,147 181,145.884 181,143.406 C181,140.654 181.468,139.69 183,139.29 C184.503,138.897 185,137.926 185,135.383 C185,133.043 185.462,132 186.5,132 C187.325,132 188,131.325 188,130.5 C188,129.367 186.778,129 183,129 C179.222,129 178,129.367 178,130.5 C178,131.333 177.111,132 176,132 C174.242,132 174,132.667 174,137.5 L174,143 L170.55,143 C168.312,143 166.757,142.389 166.126,141.261 C165.357,139.887 163.457,139.445 157.076,139.155 L149,138.788 L149,135.394 C149,133.171 149.477,132 150.383,132 C151.144,132 152.002,131.1 152.29,130 C152.671,128.544 153.654,128 155.906,128 C157.99,128 159,127.51 159,126.5 C159,125.667 159.889,125 161,125 C162.758,125 163,124.333 163,119.5 C163,115.278 162.652,114 161.5,114 C160.305,114 159.998,112.524 159.991,106.75 C159.978,95.881 158.958,89 157.361,89 C156.276,89 156,86.063 156,74.5 C156,62.821 156.269,60 157.383,60 C158.144,60 159.002,59.1 159.29,58 C159.577,56.9 160.53,56 161.406,56 C162.283,56 163,55.325 163,54.5 C163,53.667 163.889,53 165,53 C166.333,53 167,52.333 167,51 Z M181,61.375 C181,62.746 176.88,64 172.375,64 C171.027,64 170,64.594 170,65.375 C170,66.131 168.65,67.02 167,67.35 C164.46,67.858 164,68.414 164,70.975 C164,72.997 164.497,74 165.5,74 C166.764,74 167,76.278 167,88.5 C167,100.722 167.236,103 168.5,103 C169.663,103 170,104.319 170,108.875 C170,116.658 170.94,121 172.625,121 C173.381,121 174,120.375 174,119.611 C174,118.816 175.495,117.942 177.5,117.566 C179.595,117.173 181,116.325 181,115.455 C181,114.655 181.9,114 183,114 C184.333,114 185,113.333 185,112 C185,110.889 185.667,110 186.5,110 C187.325,110 188,109.325 188,108.5 C188,107.667 188.889,107 190,107 C191.333,107 192,106.333 192,105 C192,103.9 192.655,103 193.455,103 C194.325,103 195.173,101.595 195.566,99.5 C195.942,97.495 196.816,96 197.611,96 C198.375,96 199,95.1 199,94 C199,92.667 199.667,92 201,92 C202.619,92 203,91.333 203,88.5 C203,86.18 203.468,85 204.389,85 C205.184,85 206.058,83.505 206.434,81.5 C206.827,79.405 207.675,78 208.545,78 C209.642,78 210,76.646 210,72.5 C210,67.667 209.758,67 208,67 C206.9,67 206,66.34 206,65.534 C206,64.531 204.424,63.86 201,63.406 C197.754,62.975 196,62.261 196,61.371 C196,60.331 194.187,60 188.5,60 C182.803,60 181,60.331 181,61.375 Z M131,52.5 C131,49.167 131.167,49 134.5,49 C137.333,49 138,49.381 138,51 C138,52.111 138.667,53 139.5,53 C140.629,53 141,54.209 141,57.883 C141,63.155 140.05,63.955 133.75,63.986 C131.276,63.999 131,64.352 131,67.5 C131,70.333 130.619,71 129,71 C127.667,71 127,71.667 127,73 C127,74.1 126.361,75 125.579,75 C124.798,75 123.862,76.35 123.5,78 C123.138,79.65 122.202,81 121.421,81 C120.639,81 120,81.9 120,83 C120,84.1 119.375,85 118.611,85 C117.816,85 116.942,86.495 116.566,88.5 C116.173,90.595 115.325,92 114.455,92 C113.655,92 113,92.9 113,94 C113,95.1 112.345,96 111.545,96 C110.675,96 109.827,97.405 109.434,99.5 C109.073,101.425 108.203,103 107.5,103 C106.797,103 105.927,104.575 105.566,106.5 C105.173,108.595 104.325,110 103.455,110 C102.655,110 102,110.9 102,112 C102,113.1 101.377,114 100.617,114 C99.856,114 98.998,114.9 98.71,116 C98.423,117.1 97.47,118 96.594,118 C95.439,118 95,118.964 95,121.5 C95,123.896 94.541,125 93.545,125 C92.675,125 91.827,126.405 91.434,128.5 C91.073,130.425 90.205,132 89.505,132 C88.806,132 87.998,132.9 87.71,134 C87.423,135.1 86.47,136 85.594,136 C84.439,136 84,136.964 84,139.5 C84,141.896 83.541,143 82.545,143 C81.675,143 80.827,144.405 80.434,146.5 C80.058,148.505 79.184,150 78.389,150 C77.625,150 77,150.9 77,152 C77,153.333 76.333,154 75,154 C73.381,154 73,154.667 73,157.5 C73,159.944 72.548,161 71.5,161 C70.588,161 70,161.931 70,163.375 C70,164.681 69.719,167.156 69.375,168.875 C68.778,171.862 68.535,172 63.875,172 L59,172 L59,168 C59,165.111 59.417,164 60.5,164 C61.548,164 62,162.944 62,160.5 C62,157.667 62.381,157 64,157 C65.619,157 66,156.333 66,153.5 C66,151.104 66.459,150 67.455,150 C68.325,150 69.173,148.595 69.566,146.5 C69.942,144.495 70.816,143 71.611,143 C72.375,143 73,142.1 73,141 C73,139.667 73.667,139 75,139 C76.619,139 77,138.333 77,135.5 C77,133.18 77.468,132 78.389,132 C79.184,132 80.058,130.505 80.434,128.5 C80.827,126.405 81.675,125 82.545,125 C83.345,125 84,124.1 84,123 C84,121.9 84.655,121 85.455,121 C86.325,121 87.173,119.595 87.566,117.5 C87.942,115.495 88.816,114 89.611,114 C90.375,114 91,113.1 91,112 C91,110.9 91.655,110 92.455,110 C93.325,110 94.173,108.595 94.566,106.5 C94.942,104.495 95.816,103 96.611,103 C97.375,103 98,102.1 98,101 C98,99.667 98.667,99 100,99 C101.619,99 102,98.333 102,95.5 C102,93.104 102.459,92 103.455,92 C104.325,92 105.173,90.595 105.566,88.5 C105.927,86.575 106.797,85 107.5,85 C108.203,85 109.073,83.425 109.434,81.5 C109.827,79.405 110.675,78 111.545,78 C112.345,78 113,77.325 113,76.5 C113,75.675 113.675,75 114.5,75 C115.356,75 116,74.101 116,72.906 C116,71.654 116.803,70.603 118,70.29 C119.417,69.919 120,68.926 120,66.883 C120,64.987 120.513,64 121.5,64 C122.333,64 123,63.111 123,62 C123,60.667 123.667,60 125,60 C126.333,60 127,59.333 127,58 C127,56.667 127.667,56 129,56 C130.619,56 131,55.333 131,52.5 Z M102,132 L102,121 L105.5,121 C108.036,121 109,121.439 109,122.594 C109,123.47 109.9,124.423 111,124.71 C112.894,125.206 113,126.074 113,141.117 C113,154.569 113.23,157 114.5,157 C115.776,157 116,159.595 116,174.353 C116,195.484 116.759,204 118.642,204 C119.605,204 120,205.455 120,209 C120,212.687 120.378,214 121.441,214 C123.555,214 124.233,215.661 123.495,219.024 C122.925,221.618 122.402,222 119.421,222 C117.047,222 116,221.541 116,220.5 C116,219.675 115.375,219 114.611,219 C113.823,219 112.946,217.527 112.584,215.597 C112.233,213.725 111.283,211.939 110.473,211.628 C109.369,211.204 109,209.301 109,204.031 C109,198.448 108.691,197 107.5,197 C106.228,197 106,194.517 106,180.656 C106,156.944 105.018,143 103.348,143 C102.299,143 102,140.56 102,132 Z"/>
</svg>

