<svg xmlns="http://www.w3.org/2000/svg" width="300" height="300" viewBox="0 0 300 300" version="1.1">
  <defs/>
  <path d="M174,72.5 C174,71.202 177.828,71 202.455,71 L230.909,71 L231.566,74.5 C231.942,76.505 232.816,78 233.611,78 C234.745,78 235,81.308 235,96 C235,111.333 234.778,114 233.5,114 C232.337,114 232,115.319 232,119.875 C232,127.658 231.06,132 229.375,132 C228.375,132 228,133.5 228,137.5 C228,141.646 227.642,143 226.545,143 C225.675,143 224.827,144.405 224.434,146.5 C224.058,148.505 223.184,150 222.389,150 C221.435,150 221,151.255 221,154.01 C221,156.782 220.383,158.548 219,159.732 C217.9,160.674 217,162.019 217,162.722 C217,163.516 215.674,164 213.5,164 L210,164 L210,150 L197.5,150 C187.401,150 185,150.271 185,151.412 C185,152.28 183.459,153.085 181,153.5 C178.615,153.903 177,154.727 177,155.542 C177,156.533 175.146,156.99 170.25,157.204 L163.5,157.5 L163.187,160.75 C162.993,162.763 162.327,164 161.437,164 C160.294,164 160,165.843 160,173 C160,180.333 160.278,182 161.5,182 C162.7,182 163,183.5 163,189.5 L163,197 L166.5,197 C168.944,197 170,197.452 170,198.5 C170,199.555 171.066,200 173.594,200 C176.346,200 177.31,200.468 177.71,202 C178.103,203.503 179.074,204 181.617,204 C183.957,204 185,204.462 185,205.5 C185,206.325 185.675,207 186.5,207 C187.325,207 188,206.325 188,205.5 C188,204.462 189.043,204 191.383,204 C193.926,204 194.897,203.503 195.29,202 C195.577,200.9 196.53,200 197.406,200 C198.283,200 199,199.325 199,198.5 C199,197.667 199.889,197 201,197 C202.333,197 203,196.333 203,195 C203,193.889 203.667,193 204.5,193 C205.325,193 206,192.283 206,191.406 C206,190.53 206.9,189.577 208,189.29 C209.1,189.002 210,188.144 210,187.383 C210,186.623 210.9,186 212,186 C213.333,186 214,185.333 214,184 C214,182.889 214.667,182 215.5,182 C216.325,182 217,181.377 217,180.617 C217,179.856 217.9,178.998 219,178.71 C220.1,178.423 221,177.47 221,176.594 C221,175.717 221.675,175 222.5,175 C223.325,175 224,174.283 224,173.406 C224,172.53 224.9,171.577 226,171.29 C227.1,171.002 228,170.144 228,169.383 C228,168.623 228.9,168 230,168 C231.333,168 232,167.333 232,166 C232,164.889 232.667,164 233.5,164 C234.325,164 235,163.325 235,162.5 C235,161.667 235.889,161 237,161 C238.333,161 239,160.333 239,159 C239,157.889 239.667,157 240.5,157 C241.325,157 242,156.283 242,155.406 C242,154.53 242.9,153.577 244,153.29 C245.1,153.002 246,152.144 246,151.383 C246,150.373 247.484,150 251.5,150 L257,150 L257,156.883 C257,162.926 256.756,163.831 255,164.29 C253.544,164.671 253,165.654 253,167.906 C253,169.879 252.497,171 251.611,171 C250.816,171 249.942,172.495 249.566,174.5 C249.173,176.595 248.325,178 247.455,178 C246.57,178 246,178.979 246,180.5 C246,182.021 245.43,183 244.545,183 C243.675,183 242.827,184.405 242.434,186.5 C242.058,188.505 241.184,190 240.389,190 C239.625,190 239,190.9 239,192 C239,193.1 238.361,194 237.579,194 C236.798,194 235.862,195.35 235.5,197 C235.138,198.65 234.202,200 233.421,200 C232.639,200 232,200.9 232,202 C232,203.333 231.333,204 230,204 C228.667,204 228,204.667 228,206 C228,207.1 227.345,208 226.545,208 C225.675,208 224.827,209.405 224.434,211.5 C224.058,213.505 223.184,215 222.389,215 C221.468,215 221,216.18 221,218.5 L221,222 L226,222 C229.639,222 231,222.384 231,223.412 C231,224.28 232.541,225.085 235,225.5 C237.27,225.884 239,226.738 239,227.477 C239,228.192 240.575,229.073 242.5,229.434 C244.595,229.827 246,230.675 246,231.545 C246,232.541 247.104,233 249.5,233 C251.82,233 253,233.468 253,234.389 C253,235.184 254.495,236.058 256.5,236.434 C258.595,236.827 260,237.675 260,238.545 C260,239.345 260.9,240 262,240 C263.1,240 264,240.623 264,241.383 C264,242.144 264.9,243.002 266,243.29 C267.532,243.69 268,244.654 268,247.406 L268,251 L262.5,251 C257.667,251 257,250.758 257,249 C257,247.667 256.333,247 255,247 C253.889,247 253,246.333 253,245.5 C253,244.452 251.944,244 249.5,244 C246.667,244 246,243.619 246,242 C246,240.381 245.333,240 242.5,240 C240.104,240 239,239.541 239,238.545 C239,237.675 237.595,236.827 235.5,236.434 C233.495,236.058 232,235.184 232,234.389 C232,233.435 230.746,233 228,233 C225.273,233 224,232.563 224,231.625 C224,230.096 219.772,229 213.875,229 C210.667,229 210,229.344 210,231 C210,232.1 209.377,233 208.617,233 C207.856,233 206.998,233.9 206.71,235 C206.423,236.1 205.47,237 204.594,237 C203.717,237 203,237.675 203,238.5 C203,239.333 202.111,240 201,240 C199.889,240 199,240.667 199,241.5 C199,242.325 198.283,243 197.406,243 C196.53,243 195.584,243.874 195.305,244.943 C195.009,246.073 193.584,247.152 191.898,247.522 C190.304,247.872 189,248.798 189,249.579 C189,250.536 187.857,251 185.5,251 C183.2,251 182,251.471 182,252.372 C182,253.2 180.413,253.998 178,254.384 C175.412,254.798 174,255.549 174,256.512 C174,257.697 172.474,258 166.5,258 L159,258 L159,254.5 C159,252.056 158.548,251 157.5,251 C156.258,251 156,249.111 156,240 C156,230.889 155.742,229 154.5,229 C153.675,229 153,228.352 153,227.56 C153,226.619 151.704,226.013 149.258,225.81 C145.084,225.464 144.383,224.101 145.453,218.4 C146.277,214.007 147.732,214.054 148.566,218.5 C149.163,221.682 149.53,222 152.611,222 L156,222 L156,215 C156,209.262 155.713,208 154.406,208 C153.53,208 152.577,207.1 152.29,206 C151.373,202.495 149,203.645 149,207.594 C149,210.346 148.532,211.31 147,211.71 C145.9,211.998 145,212.856 145,213.617 C145,215.756 142.299,215.25 141.71,213 C141.335,211.565 140.346,211 138.21,211 C136.074,211 135.086,210.435 134.71,209 C134.423,207.9 133.47,207 132.594,207 C131.717,207 131,206.325 131,205.5 C131,204.452 129.944,204 127.5,204 C125.152,204 124,203.535 124,202.588 C124,201.72 122.459,200.915 120,200.5 C117.541,200.085 116,199.28 116,198.412 C116,197.367 114.57,197 110.5,197 C105.667,197 105,197.242 105,199 C105,200.111 104.333,201 103.5,201 C102.675,201 102,201.675 102,202.5 C102,203.325 101.34,204 100.534,204 C99.531,204 98.86,205.576 98.406,209 C97.952,212.422 97.28,214 96.278,214 C95.472,214 94.577,214.9 94.29,216 C94.002,217.1 93.144,218 92.383,218 C91.623,218 91,218.9 91,220 C91,221.619 90.333,222 87.5,222 C84.167,222 84,221.833 84,218.5 C84,216.187 84.469,215 85.383,215 C86.144,215 87.002,214.1 87.29,213 C87.577,211.9 88.53,211 89.406,211 C90.561,211 91,210.036 91,207.5 C91,205.104 91.459,204 92.455,204 C93.325,204 94.173,202.595 94.566,200.5 C94.942,198.495 95.816,197 96.611,197 C97.523,197 98,195.836 98,193.611 C98,190.53 97.682,190.163 94.5,189.566 C92.405,189.173 91,188.325 91,187.455 C91,186.29 89.209,186 82,186 L73,186 L73,182.617 C73,180.074 73.497,179.103 75,178.71 C76.532,178.31 77,177.346 77,174.594 C77,172.066 77.445,171 78.5,171 C79.574,171 80,169.904 80,167.14 C80,160.007 81.205,154 82.636,154 C83.687,154 84,151.935 84,145 L84,136 L69.5,136 C57.278,136 55,136.236 55,137.5 C55,138.652 53.722,139 49.5,139 L44,139 L44,142.392 C44,145.192 43.556,145.895 41.454,146.422 C38.51,147.161 37,146.489 37,144.441 C37,143.648 36.377,143 35.617,143 C34.041,143 33.034,140 33.014,135.25 C33.003,132.662 33.407,132 35,132 C36.1,132 37,131.381 37,130.625 C37,128.469 41.756,128 63.625,128 L84,128 L84,123 C84,119.222 84.367,118 85.5,118 C86.583,118 87,116.889 87,114 C87,111.111 86.583,110 85.5,110 C84.278,110 84,108.333 84,101 C84,93.667 83.722,92 82.5,92 C81.452,92 81,90.944 81,88.5 C81,86.056 81.452,85 82.5,85 C83.333,85 84,84.111 84,83 C84,80.91 84.993,80.624 88.75,81.63 C90.67,82.145 91.002,82.913 91.014,86.867 C91.032,92.929 91.907,96 93.617,96 C94.737,96 95,99.037 95,111.955 L95,127.909 L98.4,128.547 C101.194,129.071 102.883,129.39 103.925,128.712 C105.519,127.674 105.592,124.297 105.78,115.738 C106.009,105.324 106.328,103 107.53,103 C108.338,103 109,102.325 109,101.5 C109,100.667 109.889,100 111,100 C112.111,100 113,100.667 113,101.5 C113,102.325 113.625,103 114.389,103 C115.184,103 116.058,104.495 116.434,106.5 C116.827,108.595 117.675,110 118.545,110 C119.576,110 120,111.166 120,114 C120,117.333 119.667,118 118,118 C116.19,118 116,118.667 116,125 C116,131.333 116.19,132 118,132 C119.111,132 120,132.667 120,133.5 C120,134.555 121.066,135 123.594,135 C126.346,135 127.31,135.468 127.71,137 C128.081,138.417 129.074,139 131.117,139 C133.333,139 134,139.462 134,141 C134,142.872 133.333,143 123.577,143 L113.155,143 L112.827,156.572 C112.546,168.248 112.255,170.281 110.75,171.122 C109.345,171.907 109,173.469 109,179.05 C109,185.333 109.192,186 111,186 C112.1,186 113,186.655 113,187.455 C113,188.325 114.405,189.173 116.5,189.566 C118.425,189.927 120,190.797 120,191.5 C120,192.203 121.575,193.073 123.5,193.434 C125.595,193.827 127,194.675 127,195.545 C127,196.541 128.104,197 130.5,197 C133.036,197 134,197.439 134,198.594 C134,199.47 134.9,200.423 136,200.71 C137.1,200.998 138,201.856 138,202.617 C138,203.531 139.187,204 141.5,204 C144.81,204 145,203.817 145,200.617 C145,198.074 145.497,197.103 147,196.71 C148.1,196.423 149,195.47 149,194.594 C149,193.717 149.675,193 150.5,193 C151.738,193 152,191.167 152,182.5 C152,173.833 151.738,172 150.5,172 C149.667,172 149,171.111 149,170 C149,168.667 148.333,168 147,168 C145.407,168 145.003,167.338 145.014,164.75 C145.034,159.875 146.053,157 147.76,157 C149.095,157 149.223,154.45 148.777,136.631 C148.19,113.142 148.622,106 150.627,106 C151.382,106 152,105.325 152,104.5 C152,103.352 153.265,103 157.383,103 C161.926,103 162.848,103.312 163.29,105 C163.671,106.456 164.654,107 166.906,107 C168.707,107 170.006,107.522 170.014,108.25 C170.021,108.938 170.299,110.513 170.63,111.75 C171.174,113.78 170.879,114 167.617,114 C165.069,114 164,113.557 164,112.5 C164,111.667 163.111,111 162,111 C160.431,111 160,111.667 160,114.094 C160,116.346 159.456,117.329 158,117.71 C156.312,118.152 156,119.074 156,123.617 C156,127.49 156.382,129 157.361,129 C158.85,129 159.976,135.745 159.991,144.75 C159.998,148.746 160.358,150 161.5,150 C162.325,150 163,149.345 163,148.545 C163,147.675 164.405,146.827 166.5,146.434 C168.505,146.058 170,145.184 170,144.389 C170,143.374 171.466,143 175.45,143 C179.602,143 181.134,142.583 181.878,141.25 C182.728,139.728 184.819,139.458 197.928,139.178 C209.699,138.926 213,138.562 213,137.516 C213,136.732 214.66,135.895 217,135.5 L221,134.824 L221,129.912 C221,125.667 220.729,125 219,125 C217.242,125 217,124.333 217,119.5 C217,114.667 217.242,114 219,114 C220.111,114 221,113.333 221,112.5 C221,111.675 220.283,111 219.406,111 C218.53,111 217.577,110.1 217.29,109 C216.703,106.757 213,106.224 213,108.383 C213,109.899 210.032,110.965 205.75,110.986 C203.978,110.995 203,111.534 203,112.5 C203,113.652 201.722,114 197.5,114 C192.667,114 192,114.242 192,116 C192,117.619 191.333,118 188.5,118 C186.056,118 185,118.452 185,119.5 C185,120.333 184.111,121 183,121 C181.242,121 181,121.667 181,126.5 L181,132 L177.5,132 C174.19,132 174,131.817 174,128.617 C174,126.074 173.503,125.103 172,124.71 C170.544,124.329 170,123.346 170,121.094 C170,118.667 170.431,118 172,118 C173.333,118 174,117.333 174,116 C174,114.667 174.667,114 176,114 C177.333,114 178,113.333 178,112 C178,110.381 178.667,110 181.5,110 C183.944,110 185,109.548 185,108.5 C185,107.452 186.056,107 188.5,107 C190.813,107 192,106.531 192,105.617 C192,104.041 195,103.034 199.75,103.014 C201.879,103.005 203,102.512 203,101.585 C203,99.9 215.889,98.377 220.879,99.474 C224.947,100.367 225.428,99.055 224.533,89.508 L223.835,82.06 L220.417,81.419 C218.476,81.054 217,80.178 217,79.389 C217,78.625 216.1,78 215,78 C213.889,78 213,78.667 213,79.5 C213,80.548 211.944,81 209.5,81 C207.056,81 206,80.548 206,79.5 C206,78.367 204.778,78 201,78 C197.222,78 196,78.367 196,79.5 C196,80.333 195.111,81 194,81 C192.889,81 192,80.333 192,79.5 C192,78.675 191.325,78 190.5,78 C189.675,78 189,78.619 189,79.375 C189,81.06 184.658,82 176.875,82 C172.319,82 171,82.337 171,83.5 C171,84.718 169.355,85.003 162.25,85.014 C157.438,85.021 152.488,85.299 151.25,85.63 C149.183,86.184 149,85.898 149,82.117 C149,78.079 149.067,78 152.5,78 C155.333,78 156,77.619 156,76 C156,74.148 156.667,74 165,74 C172.333,74 174,73.722 174,72.5 Z M183.25,218.706 C182.012,218.944 181,219.783 181,220.57 C181,221.538 179.869,222 177.5,222 C175.104,222 174,222.459 174,223.455 C174,224.325 172.595,225.173 170.5,225.566 C168.495,225.942 167,226.816 167,227.611 C167,228.375 166.044,229 164.875,229 C163.018,229 162.831,229.403 163.39,232.2 C163.742,233.96 164.485,235.682 165.041,236.026 C165.598,236.369 166.329,238.979 166.666,241.825 L167.279,247 L172.639,247 C176.663,247 178,246.637 178,245.545 C178,244.675 179.405,243.827 181.5,243.434 C183.505,243.058 185,242.184 185,241.389 C185,240.625 185.9,240 187,240 C188.111,240 189,239.333 189,238.5 C189,237.675 189.675,237 190.5,237 C191.333,237 192,236.111 192,235 C192,233.381 192.667,233 195.5,233 C198.333,233 199,232.619 199,231 C199,229.667 199.667,229 201,229 C202.619,229 203,228.333 203,225.5 C203,222.667 202.619,222 201,222 C199.9,222 199,221.381 199,220.625 C199,218.428 190.236,217.36 183.25,218.706 Z M239,173.5 C239,174.548 237.944,175 235.5,175 C232.667,175 232,175.381 232,177 C232,178.333 231.333,179 230,179 C228.667,179 228,179.667 228,181 C228,182.333 227.333,183 226,183 C224.889,183 224,183.667 224,184.5 C224,185.325 223.325,186 222.5,186 C221.667,186 221,186.889 221,188 C221,189.333 220.333,190 219,190 C217.889,190 217,190.667 217,191.5 C217,192.325 216.325,193 215.5,193 C214.667,193 214,193.889 214,195 C214,196.333 213.333,197 212,197 C210.9,197 210,197.623 210,198.383 C210,199.144 209.1,200.002 208,200.29 C206.9,200.577 206,201.53 206,202.406 C206,203.561 205.036,204 202.5,204 C199.167,204 199,204.167 199,207.5 C199,210.81 199.183,211 202.383,211 C204.926,211 205.897,211.497 206.29,213 C206.665,214.435 207.654,215 209.79,215 C211.926,215 212.914,214.435 213.29,213 C213.577,211.9 214.477,211 215.29,211 C216.102,211 217.002,210.1 217.29,209 C217.577,207.9 218.53,207 219.406,207 C220.496,207 221,206.088 221,204.117 C221,202.074 221.583,201.081 223,200.71 C224.1,200.423 225,199.47 225,198.594 C225,197.717 225.675,197 226.5,197 C227.333,197 228,196.111 228,195 C228,193.889 228.667,193 229.5,193 C230.325,193 231,192.283 231,191.406 C231,190.53 231.9,189.577 233,189.29 C234.503,188.897 235,187.926 235,185.383 C235,182.667 235.394,182 237,182 C238.619,182 239,181.333 239,178.5 C239,176.056 239.452,175 240.5,175 C241.325,175 242,174.325 242,173.5 C242,172.675 241.325,172 240.5,172 C239.675,172 239,172.675 239,173.5 Z M160,44 C160,42.127 160.667,42 170.5,42 C178.742,42 181,42.296 181,43.375 C181,44.746 185.12,46 189.625,46 C191.069,46 192,46.588 192,47.5 C192,48.55 193.059,49 195.531,49 C197.719,49 199.278,49.56 199.628,50.473 C199.939,51.283 201.725,52.233 203.597,52.584 C205.527,52.946 207,53.823 207,54.611 C207,55.375 207.675,56 208.5,56 C209.652,56 210,57.278 210,61.5 L210,67 L206.5,67 C203.167,67 203,66.833 203,63.5 C203,60.167 202.833,60 199.5,60 C197.197,60 196,59.53 196,58.625 C196,57.196 191.841,56 186.875,56 C184.986,56 184,55.486 184,54.5 C184,53.31 182.556,53 177,53 C171.444,53 170,53.31 170,54.5 C170,55.325 169.325,56 168.5,56 C167.675,56 167,55.325 167,54.5 C167,53.667 166.111,53 165,53 C163.381,53 163,52.333 163,49.5 C163,47.056 162.548,46 161.5,46 C160.667,46 160,45.111 160,44 Z M95,143 C95,145.739 94.564,147 93.617,147 C91.682,147 91.029,150.196 91.014,159.75 C91.003,166.411 90.711,168 89.5,168 C88.452,168 88,169.056 88,171.5 C88,173.944 88.452,175 89.5,175 C90.325,175 91,175.67 91,176.488 C91,177.451 92.412,178.202 95,178.616 C97.413,179.002 99,179.8 99,180.628 C99,181.383 99.675,182 100.5,182 C101.742,182 102,180.111 102,171 C102,162.435 102.299,160 103.349,160 C104.344,160 104.864,157.473 105.331,150.374 C105.678,145.08 105.72,140.355 105.422,139.874 C105.125,139.394 102.659,139 99.941,139 L95,139 Z M163,212.941 C163,215.659 163.482,218.18 164.071,218.544 C165.96,219.711 174,218.007 174,216.439 C174,215.647 174.9,215 176,215 C177.333,215 178,214.333 178,213 C178,211.333 177.333,211 174,211 C171.111,211 170,210.583 170,209.5 C170,208.452 168.944,208 166.5,208 L163,208 Z M221,123 C221,123.55 221.675,124 222.5,124 C223.325,124 224,123.55 224,123 C224,122.45 223.325,122 222.5,122 C221.675,122 221,122.45 221,123 Z"/>
</svg>

