<svg xmlns="http://www.w3.org/2000/svg" width="300" height="300" viewBox="0 0 300 300" version="1.1">
  <defs/>
  <path d="M48,97.383 C48,96.623 48.9,96 50,96 C51.111,96 52,96.667 52,97.5 C52,98.325 52.675,99 53.5,99 C54.325,99 55,99.8 55,100.778 C55,101.756 55.9,103.326 57,104.268 C58.1,105.21 59,106.885 59,107.99 C59,109.162 59.664,110 60.594,110 C61.47,110 62.423,110.9 62.71,112 C62.998,113.1 63.856,114 64.617,114 C65.531,114 66,115.187 66,117.5 C66,119.813 66.469,121 67.383,121 C68.959,121 69.966,124 69.986,128.75 C69.996,130.966 70.477,132 71.5,132 C72.742,132 73,133.889 73,143 C73,152.111 72.742,154 71.5,154 C70.328,154 69.997,155.367 69.986,160.25 C69.97,167.865 69.21,171 67.383,171 C66.252,171 66,174.638 66,191 L66,211 L71.5,211 C75.646,211 77,211.358 77,212.455 C77,213.325 78.405,214.173 80.5,214.566 C82.505,214.942 84,215.816 84,216.611 C84,217.532 85.18,218 87.5,218 C90.333,218 91,218.381 91,220 C91,221.619 91.667,222 94.5,222 C96.944,222 98,222.452 98,223.5 C98,224.333 98.889,225 100,225 C101.333,225 102,225.667 102,227 C102,228.606 102.667,229 105.383,229 C107.926,229 108.897,229.497 109.29,231 C109.69,232.532 110.654,233 113.406,233 C115.934,233 117,233.445 117,234.5 C117,235.51 118.01,236 120.094,236 C122.346,236 123.329,236.544 123.71,238 C124.103,239.503 125.074,240 127.617,240 C129.837,240 131,240.477 131,241.389 C131,242.184 132.495,243.058 134.5,243.434 C136.429,243.796 138,244.691 138,245.429 C138,246.369 139.964,246.892 144.6,247.187 C149.462,247.497 151.451,248.055 152.15,249.304 C152.901,250.645 154.554,251 160.05,251 C165.561,251 167,251.311 167,252.5 C167,253.672 168.367,254.003 173.25,254.014 C180.865,254.03 184,254.79 184,256.617 C184,257.765 189.273,258 215,258 C241.889,258 246,257.801 246,256.5 C246,255.403 247.141,254.999 250.25,254.995 C252.588,254.992 258.911,254.698 264.303,254.341 C273.763,253.714 274.126,253.767 274.67,255.846 C274.98,257.031 275.856,258 276.617,258 C277.377,258 278,258.675 278,259.5 C278,260.325 277.325,261 276.5,261 C275.675,261 275,261.827 275,262.838 C275,264.573 273.106,264.715 241.405,265.347 C201.075,266.151 174,265.346 174,263.344 C174,262.424 172.621,262 169.625,262 C163.259,262 159,260.948 159,259.375 C159,258.339 157.273,258 152,258 C146.727,258 145,257.661 145,256.625 C145,255.254 140.88,254 136.375,254 C134.931,254 134,253.412 134,252.5 C134,251.534 133.022,250.995 131.25,250.986 C126.968,250.965 124,249.899 124,248.383 C124,247.469 122.813,247 120.5,247 C118.2,247 117,246.529 117,245.628 C117,244.8 115.413,244.002 113,243.616 C110.412,243.202 109,242.451 109,241.488 C109,240.454 107.932,240 105.5,240 C102.667,240 102,239.619 102,238 C102,236.667 101.333,236 100,236 C98.889,236 98,235.333 98,234.5 C98,233.452 96.944,233 94.5,233 C92.104,233 91,232.541 91,231.545 C91,230.675 89.595,229.827 87.5,229.434 C85.575,229.073 84,228.203 84,227.5 C84,226.797 82.425,225.927 80.5,225.566 C78.405,225.173 77,224.325 77,223.455 C77,222.249 74.521,222 62.5,222 L48,222 L48,218.5 C48,216.056 48.452,215 49.5,215 C50.325,215 51,214.283 51,213.406 C51,212.53 51.9,211.577 53,211.29 C54.107,211 55,209.926 55,208.883 C55,207.848 55.623,207 56.383,207 C58.103,207 58.969,203.923 58.986,197.75 C58.996,194.366 58.602,193 57.617,193 C55.784,193 55.03,189.861 55.014,182.156 C55.002,176.648 55.263,175.744 57,175.29 C58.503,174.897 59,173.926 59,171.383 C59,169.043 59.462,168 60.5,168 C61.466,168 62.005,167.022 62.014,165.25 C62.035,160.968 63.101,158 64.617,158 C65.724,158 66,155.402 66,145 C66,134.157 65.753,132 64.512,132 C63.549,132 62.798,130.588 62.384,128 C61.998,125.587 61.2,124 60.372,124 C59.514,124 59,122.876 59,121 C59,118.667 58.556,118 57,118 C55.667,118 55,117.333 55,116 C55,114.889 54.333,114 53.5,114 C52.675,114 52,113.283 52,112.406 C52,111.53 51.1,110.577 50,110.29 C48.9,110.002 48,109.197 48,108.5 C48,107.803 47.1,106.998 46,106.71 C44.528,106.325 44,105.346 44,103 C44,100.654 44.528,99.675 46,99.29 C47.1,99.002 48,98.144 48,97.383 Z M152,105 C152,103.178 152.667,103 159.5,103 C166.333,103 167,103.178 167,105 C167,106.111 167.667,107 168.5,107 C169.366,107 170,107.904 170,109.139 C170,111.119 169.626,111.234 165,110.686 C160.505,110.154 160,110.291 160,112.047 C160,113.333 159.317,114 158,114 C156.667,114 156,114.667 156,116 C156,117.111 155.333,118 154.5,118 C153.452,118 153,119.056 153,121.5 L153,125 L158,125 C162.333,125 163,124.733 163,123 C163,121.19 163.667,121 170,121 C175.399,121 177,120.673 177,119.572 C177,118.591 178.722,117.929 182.5,117.457 C186.188,116.996 188,116.313 188,115.385 C188,114.289 190.296,114 199,114 L210,114 L210,117.5 C210,120.333 209.619,121 208,121 C206.889,121 206,121.667 206,122.5 C206,123.548 204.944,124 202.5,124 C200.575,124 199,123.55 199,123 C199,121.584 195.249,121.753 194.77,123.191 C194.536,123.892 191.625,124.556 187.686,124.807 C183.136,125.097 181,125.643 181,126.515 C181,127.369 178.661,128.032 174,128.5 C169.005,129.002 167,129.604 167,130.601 C167,131.566 165.76,132 163,132 C160.166,132 159,132.424 159,133.455 C159,134.325 157.595,135.173 155.5,135.566 C153.495,135.942 152,136.816 152,137.611 C152,138.375 151.375,139 150.611,139 C149.823,139 148.946,140.473 148.584,142.403 C148.233,144.275 147.283,146.061 146.473,146.372 C145.446,146.766 145,148.46 145,151.969 C145,155.774 144.635,157 143.5,157 C142.348,157 142,158.278 142,162.5 C142,167.333 141.758,168 140,168 C138.178,168 138,168.667 138,175.5 C138,181.219 137.671,183 136.617,183 C135.041,183 134.034,186 134.014,190.75 C134.004,192.966 133.523,194 132.5,194 C131.247,194 131,196.056 131,206.5 C131,216.944 130.753,219 129.5,219 C128.675,219 128,219.675 128,220.5 C128,221.583 126.889,222 124,222 L120,222 L120,213 C120,206.03 120.31,204 121.375,204 C122.746,204 124,199.88 124,195.375 C124,193.931 124.588,193 125.5,193 C126.69,193 127,191.556 127,186 C127,180.727 127.339,179 128.375,179 C129.948,179 131,174.741 131,168.375 C131,165.153 131.395,164 132.5,164 C133.575,164 134,162.903 134,160.125 C134,154.228 135.096,150 136.625,150 C137.53,150 138,148.803 138,146.5 L138,143 L132.5,143 C128.278,143 127,143.348 127,144.5 C127,145.466 126.022,146.005 124.25,146.014 C119.968,146.035 117,147.101 117,148.617 C117,149.564 115.739,150 113,150 C110.111,150 109,150.417 109,151.5 C109,152.325 108.213,153.004 107.25,153.009 C106.287,153.013 103.138,153.301 100.25,153.648 L95,154.279 L95,143 L98.5,143 C100.813,143 102,142.531 102,141.617 C102,139.759 105.152,139.03 113.25,139.014 C118.577,139.003 120,138.684 120,137.5 C120,136.588 120.931,136 122.375,136 C126.88,136 131,134.746 131,133.375 C131,132.393 132.417,132 135.955,132 C140.825,132 140.92,131.941 141.566,128.5 C141.942,126.495 142.816,125 143.611,125 C144.628,125 145,123.526 145,119.5 C145,114.667 145.242,114 147,114 C148.619,114 149,113.333 149,110.5 C149,108.056 149.452,107 150.5,107 C151.333,107 152,106.111 152,105 Z M109.264,39.651 L108.74,35 L120,35 L120,39.883 C120,43.926 120.344,44.857 122,45.29 C123.442,45.667 124,46.654 124,48.827 C124,51.363 124.476,51.946 127,52.5 C128.65,52.862 130,53.776 130,54.53 C130,55.463 131.915,56.117 136,56.58 C140.085,57.042 142,57.696 142,58.629 C142,59.383 142.675,60 143.5,60 C144.333,60 145,59.111 145,58 C145,56.381 145.667,56 148.5,56 C150.944,56 152,55.548 152,54.5 C152,53.667 152.889,53 154,53 C155.333,53 156,52.333 156,51 C156,49.667 156.667,49 158,49 C159.1,49 160,48.361 160,47.579 C160,46.798 161.35,45.862 163,45.5 C164.65,45.138 166,44.202 166,43.421 C166,42.43 167.211,42 170,42 C173.333,42 174,41.667 174,40 C174,38.381 174.667,38 177.5,38 C179.944,38 181,37.548 181,36.5 C181,35.41 182.124,35 185.117,35 C188.898,35 189.184,35.183 188.63,37.25 C188.299,38.487 188.021,40.063 188.014,40.75 C188.005,41.509 186.626,42 184.5,42 C181.667,42 181,42.381 181,44 C181,45.619 180.333,46 177.5,46 C175.056,46 174,46.452 174,47.5 C174,48.325 173.283,49 172.406,49 C171.53,49 170.577,49.9 170.29,51 C170.002,52.1 169.144,53 168.383,53 C167.623,53 167,53.675 167,54.5 C167,55.325 166.283,56 165.406,56 C164.53,56 163.577,56.9 163.29,58 C163,59.107 161.926,60 160.883,60 C159.848,60 159,60.675 159,61.5 C159,62.325 158.325,63 157.5,63 C156.667,63 156,63.889 156,65 C156,66.333 155.333,67 154,67 C152.9,67 152,67.655 152,68.455 C152,69.325 150.595,70.173 148.5,70.566 C146.575,70.927 145,71.795 145,72.495 C145,73.194 144.1,74.002 143,74.29 C141.9,74.577 141,75.53 141,76.406 C141,77.687 142.177,78 147,78 C151.442,78 153,77.641 153,76.617 C153,74.759 156.152,74.03 164.25,74.014 C169.577,74.003 171,73.684 171,72.5 C171,71.247 173.056,71 183.5,71 C193.944,71 196,71.247 196,72.5 C196,73.548 197.056,74 199.5,74 L203,74 L202.986,80.75 C202.979,84.463 202.701,88.513 202.37,89.75 C201.693,92.275 200,92.811 200,90.5 C200,89.667 199.111,89 198,89 C196.667,89 196,88.333 196,87 C196,85.889 196.667,85 197.5,85 C198.325,85 199,84.377 199,83.617 C199,82.041 196,81.034 191.25,81.014 C189.034,81.004 188,80.523 188,79.5 C188,78.675 187.325,78 186.5,78 C185.675,78 185,78.612 185,79.361 C185,80.879 178.218,81.977 168.75,81.991 C164.309,81.998 163,82.342 163,83.5 C163,84.621 161.799,85.003 158.25,85.014 C152.077,85.031 149,85.897 149,87.617 C149,88.663 147.293,89 142,89 C136.789,89 135,89.345 135,90.35 C135,91.334 132.623,91.869 126.249,92.322 C121.436,92.663 116.486,92.678 115.249,92.355 C112.813,91.718 112.117,89 114.389,89 C115.184,89 116.058,87.505 116.434,85.5 C117.014,82.409 117.447,82 120.139,82 C122.346,82 123.332,81.448 123.71,80 C123.998,78.9 124.856,78 125.617,78 C126.377,78 127,77.325 127,76.5 C127,75.675 127.717,75 128.594,75 C129.47,75 130.412,74.142 130.686,73.094 C131.003,71.88 132.421,70.956 134.592,70.549 C137.556,69.993 138,69.525 138,66.955 C138,64.04 137.926,64 132.5,64 C127.667,64 127,63.758 127,62 C127,60.381 126.333,60 123.5,60 C120.667,60 120,59.619 120,58 C120,56.9 119.345,56 118.545,56 C117.675,56 116.827,54.595 116.434,52.5 C116.058,50.495 115.184,49 114.389,49 C113.625,49 113,48.347 113,47.55 C113,46.752 112.277,45.695 111.394,45.201 C110.428,44.66 109.58,42.449 109.264,39.651 Z M156,176.883 C156,176.398 156.9,176 158,176 C159.1,176 160,176.43 160,176.955 C160,177.48 161.575,178.205 163.5,178.566 C165.505,178.942 167,179.816 167,180.611 C167,181.532 168.18,182 170.5,182 C173.333,182 174,182.381 174,184 C174,185.619 174.667,186 177.5,186 C179.848,186 181,186.465 181,187.412 C181,188.28 182.541,189.085 185,189.5 C187.459,189.915 189,190.72 189,191.588 C189,192.67 190.638,193 196,193 C201.293,193 203,193.337 203,194.383 C203,195.894 205.965,196.965 210.205,196.986 C212.485,196.998 213.009,197.534 213.547,200.4 C214.831,207.241 213.241,208.831 206.4,207.547 C204.384,207.169 203,206.317 203,205.455 C203,204.424 201.834,204 199,204 C196.278,204 195,203.562 195,202.629 C195,201.739 193.246,201.025 190,200.594 C186.576,200.14 185,199.469 185,198.466 C185,197.482 183.932,196.996 181.75,196.986 C177,196.966 174,195.959 174,194.383 C174,193.623 173.1,193 172,193 C170.889,193 170,192.333 170,191.5 C170,190.534 169.022,189.995 167.25,189.986 C162.968,189.965 160,188.899 160,187.383 C160,186.436 158.739,186 156,186 C152.075,186 152,185.932 152,182.406 C152,179.654 152.468,178.69 154,178.29 C155.1,178.002 156,177.369 156,176.883 Z M26.39,39.427 C26.764,38.453 28.533,38 31.969,38 C36.333,38 37,38.265 37,40 C37,41.333 37.667,42 39,42 C40.111,42 41,42.667 41,43.5 C41,44.325 41.675,45 42.5,45 C43.333,45 44,45.889 44,47 C44,48.758 43.333,49 38.5,49 C34.386,49 33,48.638 33,47.563 C33,46.673 31.763,46.007 29.75,45.813 C27.225,45.57 26.427,44.982 26.171,43.177 C25.99,41.9 26.088,40.212 26.39,39.427 Z"/>
</svg>

