<svg xmlns="http://www.w3.org/2000/svg" width="300" height="300" viewBox="0 0 300 300" version="1.1">
  <defs/>
  <path d="M88,49.42 C88,48.28 90.146,48 98.875,48 L109.75,48 L110.292,50.75 C111.03,54.492 110.048,59 108.495,59 C107.795,59 106.927,60.575 106.566,62.5 C106.173,64.595 105.325,66 104.455,66 C103.218,66 103,70.04 103,93 C103,116.333 102.796,120 101.5,120 C100.634,120 100,120.904 100,122.139 C100,124.133 100.356,124.236 105.25,123.648 C108.138,123.301 113.763,123.013 117.75,123.009 C123.524,123.002 125,122.695 125,121.5 C125,120.236 127.278,120 139.5,120 L154,120 L153.986,122.75 C153.959,128.187 152.943,129.92 149.39,130.587 C147.525,130.936 146,131.827 146,132.566 C146,133.31 144.437,134.203 142.5,134.566 C140.495,134.942 139,135.816 139,136.611 C139,137.628 137.526,138 133.5,138 C129.278,138 128,138.348 128,139.5 C128,140.325 127.325,141 126.5,141 C125.675,141 125,140.325 125,139.5 C125,138.675 125.675,138 126.5,138 C127.325,138 128,137.375 128,136.611 C128,135.825 129.469,134.947 131.39,134.587 C133.596,134.173 134.96,133.261 135.296,131.975 C135.58,130.889 136.53,130 137.406,130 C138.283,130 139,129.55 139,129 C139,127.31 129.299,127.778 128.638,129.5 C128.202,130.637 126.359,131 121.031,131 C115.448,131 114,131.309 114,132.5 C114,133.548 112.944,134 110.5,134 C107.667,134 107,134.381 107,136 C107,137.111 107.667,138 108.5,138 C109.466,138 110.005,138.978 110.014,140.75 C110.035,145.032 111.101,148 112.617,148 C113.711,148 114,150.301 114,159 C114,168.111 114.258,170 115.5,170 C116.779,170 117,172.722 117,188.5 C117,204.278 116.779,207 115.5,207 C114.251,207 114,208.984 114,218.857 L114,230.713 L104.964,231.395 C94.735,232.167 89,231.447 89,229.389 C89,228.372 87.526,228 83.5,228 C78.667,228 78,227.758 78,226 C78,224.381 77.333,224 74.5,224 C72.056,224 71,223.548 71,222.5 C71,221.667 70.111,221 69,221 C67.9,221 67,220.345 67,219.545 C67,218.675 65.595,217.827 63.5,217.434 C60.967,216.959 60,216.255 60,214.889 C60,213.667 59.294,213 58,213 C56.889,213 56,212.333 56,211.5 C56,210.675 55.325,210 54.5,210 C53.452,210 53,208.944 53,206.5 C53,203.667 52.619,203 51,203 C49.667,203 49,202.333 49,201 C49,199.889 49.667,199 50.5,199 C52.189,199 52.569,196.356 50.957,195.819 C50.373,195.624 49.647,190.752 49.307,184.736 C48.851,176.693 48.36,174 47.349,174 C46.547,174 45.994,172.885 45.986,171.25 C45.965,166.968 44.899,164 43.383,164 C42.359,164 42,162.442 42,158 L42,152 L45.25,152.014 C52.086,152.042 53,152.762 53,158.117 C53,161.791 53.371,163 54.5,163 C55.652,163 56,164.278 56,168.5 C56,173.333 56.242,174 58,174 C59.1,174 60,173.345 60,172.545 C60,171.675 61.405,170.827 63.5,170.434 C65.505,170.058 67,169.184 67,168.389 C67,167.327 68.767,167 74.5,167 C80.5,167 82,167.3 82,168.5 C82,169.325 82.675,170 83.5,170 C84.333,170 85,170.889 85,172 C85,173.667 85.667,174 89,174 C91.889,174 93,173.583 93,172.5 C93,171.675 93.675,171 94.5,171 Q96,171 96,174 C96,176.078 95.51,177 94.406,177 C93.53,177 92.577,177.9 92.29,179 C91.999,180.112 90.926,181 89.874,181 C88.832,181 87.21,181.9 86.268,183 C85.326,184.1 84.033,185 83.394,185 C82.756,185 81.998,185.9 81.71,187 C81.423,188.1 80.47,189 79.594,189 C78.717,189 78,189.675 78,190.5 C78,191.333 77.111,192 76,192 C74.667,192 74,192.667 74,194 C74,195.556 73.333,196 71,196 Q68,196 68,197.5 C68,198.341 67.108,199 65.969,199 C64.851,199 63.678,199.675 63.362,200.5 C63.045,201.325 62.159,202 61.393,202 C59.227,202 59.751,205.702 62,206.29 C63.1,206.577 64,207.53 64,208.406 C64,209.333 64.837,210 66,210 C67.1,210 68,210.655 68,211.455 C68,212.325 69.405,213.173 71.5,213.566 C73.505,213.942 75,214.816 75,215.611 C75,216.628 76.475,217 80.51,217 C84.782,217 86.404,217.449 87.732,219 C89.043,220.531 90.682,221 94.722,221 C98.747,221 100,221.356 100,222.5 C100,223.325 100.675,224 101.5,224 C102.325,224 103,223.325 103,222.5 C103,221.675 103.623,221 104.383,221 C105.144,221 106.038,219.988 106.37,218.75 C106.701,217.512 106.979,202.887 106.986,186.25 C106.998,160.128 106.797,156 105.512,156 C104.549,156 103.798,154.588 103.384,152 C102.998,149.587 102.2,148 101.372,148 C100.35,148 100,146.342 100,141.5 L100,135 L96.5,135 C94.056,135 93,135.452 93,136.5 C93,137.433 92.056,138 90.5,138 C88.979,138 88,138.57 88,139.455 C88,140.325 86.595,141.173 84.5,141.566 C82.495,141.942 81,142.816 81,143.611 C81,144.488 79.893,145 78,145 Q75,145 75,143.5 Q75,142 78,142 C80.762,142 81,141.722 81,138.5 C81,136.056 80.548,135 79.5,135 C78.675,135 78,135.675 78,136.5 C78,137.688 76.569,138 71.117,138 C65.074,138 64.169,138.244 63.71,140 C63.274,141.67 62.346,142 58.094,142 C54.233,142 53,142.363 53,143.5 C53,144.652 51.722,145 47.5,145 C43.354,145 42,145.358 42,146.455 C42,147.325 40.595,148.173 38.5,148.566 C35.318,149.163 35,149.53 35,152.611 L35,156 L17,156 L17,152 C17,149.111 17.417,148 18.5,148 C19.325,148 20,147.325 20,146.5 C20,145.452 21.056,145 23.5,145 C25.848,145 27,144.535 27,143.588 C27,142.72 28.541,141.915 31,141.5 C33.459,141.085 35,140.28 35,139.412 C35,138.367 36.43,138 40.5,138 C44.545,138 46,137.63 46,136.601 C46,135.604 48.005,135.002 53,134.5 C57.995,133.998 60,133.396 60,132.399 C60,131.37 61.455,131 65.5,131 C69.516,131 71,130.627 71,129.617 C71,127.688 74.193,127.03 83.625,127.014 L91.75,127 L92.375,123.875 C92.719,122.156 93,119.681 93,118.375 C93,116.931 93.588,116 94.5,116 C95.762,116 96,113.778 96,102 C96,90.751 95.728,88 94.617,88 C93.626,88 93.036,85.878 92.532,80.5 C92.02,75.032 91.446,73 90.415,73 C89.388,73 89,71.66 89,68.117 C89,62.845 89.95,62.045 96.25,62.014 C98.636,62.002 99,61.603 99,59 Q99,56 97.5,56 C96.675,56 96,56.675 96,57.5 C96,58.69 94.556,59 89,59 C83.444,59 82,59.31 82,60.5 C82,61.412 81.069,62 79.625,62 C75.12,62 71,63.254 71,64.625 C71,65.563 69.727,66 67,66 C64.261,66 63,66.436 63,67.383 C63,68.899 60.032,69.965 55.75,69.986 C53.978,69.995 53,70.534 53,71.5 C53,72.544 51.95,73 49.55,73 C47.345,73 45.757,73.612 45.15,74.696 C44.451,75.945 42.462,76.503 37.6,76.813 C31.413,77.207 31,77.101 31,75.116 C31,73.667 31.63,73 33,73 C34.111,73 35,72.333 35,71.5 C35,70.675 35.675,70 36.5,70 C37.333,70 38,69.111 38,68 C38,66.333 38.667,66 42,66 C44.739,66 46,65.564 46,64.617 C46,63.101 48.968,62.035 53.25,62.014 C55.022,62.005 56,61.466 56,60.5 C56,59.348 57.278,59 61.5,59 C66.333,59 67,58.758 67,57 C67,55.333 67.667,55 71,55 C73.739,55 75,54.564 75,53.616 C75,52.652 76.968,52.022 81.5,51.537 C86.123,51.042 88,50.431 88,49.42 Z M182,125.5 L182,102 L186,102 C189.905,102 190,102.083 190,105.5 C190,107.944 190.452,109 191.5,109 C192.722,109 193,110.667 193,118 C193,125.333 192.722,127 191.5,127 C190.24,127 189.998,129.201 189.986,140.75 C189.972,155.696 189.5,159 187.383,159 C186.303,159 186,161.078 186,168.5 C186,176.278 185.728,178 184.5,178 C183.425,178 183,179.097 183,181.875 C183,184.006 182.719,187.156 182.375,188.875 C181.832,191.591 182.028,192 183.875,192 C185.044,192 186,192.625 186,193.389 C186,194.184 187.495,195.058 189.5,195.434 C191.437,195.797 193,196.69 193,197.434 C193,198.178 194.563,199.071 196.5,199.434 C198.595,199.827 200,200.675 200,201.545 C200,202.345 200.9,203 202,203 C203.111,203 204,203.667 204,204.5 C204,205.548 205.056,206 207.5,206 C210.333,206 211,206.381 211,208 C211,209.619 211.667,210 214.5,210 C216.848,210 218,210.465 218,211.412 C218,212.28 219.541,213.085 222,213.5 C224.459,213.915 226,214.72 226,215.588 C226,216.535 227.152,217 229.5,217 C232.333,217 233,217.381 233,219 C233,220.619 233.667,221 236.5,221 C238.944,221 240,221.452 240,222.5 C240,223.548 241.056,224 243.5,224 C246.333,224 247,224.381 247,226 C247,227.619 247.667,228 250.5,228 C252.848,228 254,228.465 254,229.412 C254,230.28 255.541,231.085 258,231.5 C260.459,231.915 262,232.72 262,233.588 C262,234.5 263.096,235 265.094,235 C267.346,235 268.329,235.544 268.71,237 C269.103,238.503 270.074,239 272.617,239 C274.957,239 276,239.462 276,240.5 C276,241.548 277.056,242 279.5,242 C282.917,242 283,242.095 283,246 C283,248.889 282.583,250 281.5,250 C280.675,250 280,250.675 280,251.5 C280,252.583 278.889,253 276,253 C273.111,253 272,252.583 272,251.5 C272,250.675 271.325,250 270.5,250 C269.667,250 269,249.111 269,248 C269,246.394 268.333,246 265.617,246 C263.074,246 262.103,245.503 261.71,244 C261.329,242.544 260.346,242 258.094,242 C256.01,242 255,241.51 255,240.5 C255,239.445 253.934,239 251.406,239 C248.654,239 247.69,238.532 247.29,237 C246.897,235.497 245.926,235 243.383,235 C241.163,235 240,234.523 240,233.611 C240,232.816 238.505,231.942 236.5,231.566 C234.405,231.173 233,230.325 233,229.455 C233,228.655 232.1,228 231,228 C229.9,228 229,227.34 229,226.534 C229,225.531 227.424,224.86 224,224.406 C220.754,223.975 219,223.261 219,222.371 C219,221.617 218.1,221 217,221 C215.896,221 215,220.333 215,219.512 C215,218.549 213.588,217.798 211,217.384 C208.587,216.998 207,216.2 207,215.372 C207,214.505 205.862,214 203.906,214 C201.654,214 200.671,213.456 200.29,212 C199.897,210.497 198.926,210 196.383,210 C194.163,210 193,209.523 193,208.611 C193,207.816 191.505,206.942 189.5,206.566 C187.405,206.173 186,205.325 186,204.455 C186,203.358 184.646,203 180.5,203 L175,203 L175,206.5 C175,208.944 174.548,210 173.5,210 C172.452,210 172,211.056 172,213.5 C172,216.333 171.619,217 170,217 C168.333,217 168,217.667 168,221 C168,223.789 167.57,225 166.579,225 C165.798,225 164.862,226.35 164.5,228 C164.138,229.65 163.202,231 162.421,231 C161.639,231 161,231.9 161,233 C161,234.129 160.333,235 159.469,235 C158.626,235 157.678,235.675 157.362,236.5 C156.463,238.841 154.283,238.263 153.589,235.5 C152.753,232.169 153.876,228 155.608,228 C156.532,228 157,226.823 157,224.5 C157,221.667 157.381,221 159,221 C160.619,221 161,220.333 161,217.5 C161,215.056 161.452,214 162.5,214 C163.555,214 164,212.934 164,210.406 C164,207.654 164.468,206.69 166,206.29 C167.656,205.857 168,204.926 168,200.883 C168,197.344 168.389,196 169.412,196 C170.28,196 171.085,194.459 171.5,192 C171.889,189.698 172.735,188 173.494,188 C174.475,188 174.9,185.424 175.156,177.928 C175.44,169.604 175.804,167.687 177.25,166.879 C178.701,166.068 179,164.459 179,157.45 C179,150.606 179.285,149 180.5,149 C181.791,149 182,145.722 182,125.5 Z M161,53.383 C161,52.623 161.9,52 163,52 C164.111,52 165,52.667 165,53.5 C165,54.325 165.675,55 166.5,55 C167.688,55 168,56.431 168,61.883 C168,67.926 167.756,68.831 166,69.29 C164.468,69.69 164,70.654 164,73.406 C164,75.934 163.555,77 162.5,77 C161.31,77 161,78.444 161,84 L161,91 L166.5,91 C170.722,91 172,90.652 172,89.5 C172,88.534 172.978,87.995 174.75,87.986 C179.032,87.965 182,86.899 182,85.383 C182,84.373 183.484,84 187.5,84 C192.333,84 193,83.758 193,82 C193,80.381 193.667,80 196.5,80 C198.82,80 200,79.532 200,78.611 C200,77.823 201.473,76.946 203.403,76.584 C205.275,76.233 207.061,75.283 207.372,74.473 C207.698,73.624 209.221,73 210.969,73 C212.913,73 214,72.493 214,71.588 C214,70.72 215.541,69.915 218,69.5 C220.459,69.085 222,68.28 222,67.412 C222,66.465 223.152,66 225.5,66 C228.333,66 229,65.619 229,64 C229,62.381 229.667,62 232.5,62 C234.944,62 236,61.548 236,60.5 C236,59.667 236.889,59 238,59 C239.111,59 240,59.667 240,60.5 C240,61.333 240.889,62 242,62 C243.913,62 244,62.667 244,77.375 C244,94.342 243.435,99 241.375,99 C240.339,99 240,100.727 240,106 C240,111.459 239.68,113 238.545,113 C237.675,113 236.827,114.405 236.434,116.5 C236.058,118.505 235.184,120 234.389,120 C233.477,120 233,121.163 233,123.383 C233,125.926 232.503,126.897 231,127.29 C229.544,127.671 229,128.654 229,130.906 C229,132.99 228.51,134 227.5,134 C226.667,134 226,134.889 226,136 C226,137.333 225.333,138 224,138 C222.381,138 222,138.667 222,141.5 C222,144.333 221.619,145 220,145 C218.667,145 218,145.667 218,147 C218,148.111 217.333,149 216.5,149 C215.675,149 215,149.675 215,150.5 C215,151.333 214.111,152 213,152 C211.667,152 211,152.667 211,154 C211,155.758 210.333,156 205.5,156 C201.134,156 200,155.671 200,154.406 C200,153.53 200.9,152.577 202,152.29 C203.1,152.002 204,151.144 204,150.383 C204,149.623 204.675,149 205.5,149 C206.325,149 207,148.283 207,147.406 C207,146.53 207.9,145.577 209,145.29 C210.107,145 211,143.926 211,142.883 C211,141.667 211.708,141 213,141 C214.619,141 215,140.333 215,137.5 C215,135.187 215.469,134 216.383,134 C217.144,134 218.002,133.1 218.29,132 C218.577,130.9 219.53,130 220.406,130 C221.51,130 222,129.078 222,127 C222,125.083 222.51,124 223.412,124 C224.28,124 225.085,122.459 225.5,120 C225.915,117.541 226.72,116 227.588,116 C228.614,116 229,114.646 229,111.05 C229,107.374 229.451,105.847 230.75,105.121 C232.196,104.313 232.56,102.396 232.844,94.072 C233.111,86.247 233.501,84 234.594,84 C235.668,84 236,82.348 236,77 L236,70 L232.5,70 C230.056,70 229,70.452 229,71.5 C229,72.333 228.111,73 227,73 C225.9,73 225,73.655 225,74.455 C225,75.325 223.595,76.173 221.5,76.566 C219.575,76.927 218,77.797 218,78.5 C218,79.203 216.425,80.073 214.5,80.434 C212.405,80.827 211,81.675 211,82.545 C211,83.541 209.896,84 207.5,84 C205.068,84 204,84.454 204,85.488 C204,86.451 202.588,87.202 200,87.616 C197.587,88.002 196,88.8 196,89.628 C196,90.455 194.907,91.005 193.25,91.014 C188.968,91.035 186,92.101 186,93.617 C186,94.531 184.813,95 182.5,95 C180.056,95 179,95.452 179,96.5 C179,97.412 178.069,98 176.625,98 C172.12,98 168,99.254 168,100.625 C168,101.625 166.5,102 162.5,102 C158.278,102 157,101.652 157,100.5 C157,99.452 155.944,99 153.5,99 L150,99 L150,91.5 C150,85.788 150.329,84 151.381,84 C152.422,84 152.937,81.417 153.477,73.5 C154.023,65.493 154.526,63 155.596,63 C156.541,63 157,61.825 157,59.406 C157,56.654 157.468,55.69 159,55.29 C160.1,55.002 161,54.144 161,53.383 Z M40.845,87.671 C41.755,87.43 44.862,87.18 47.75,87.116 C52.328,87.015 53,87.249 53,88.95 C53,90.023 52.212,91.365 51.25,91.932 C49.724,92.832 49.692,93.092 51,93.966 C53.363,95.546 60,95.261 60,93.579 C60,91.365 66.086,90.398 67.537,92.382 C68.188,93.272 69.233,94 69.86,94 C70.612,94 71,96.554 71,101.5 C71,108.333 70.822,109 69,109 C67.667,109 67,109.667 67,111 C67,112.629 67.667,113 70.594,113 C73.346,113 74.31,112.532 74.71,111 C75.152,109.312 76.074,109 80.617,109 C84.876,109 86,109.333 86,110.594 C86,111.47 85.1,112.423 84,112.71 C82.9,112.998 82,113.806 82,114.505 C82,115.205 80.425,116.073 78.5,116.434 C76.405,116.827 75,117.675 75,118.545 C75,119.576 73.834,120 71,120 C68.166,120 67,120.424 67,121.455 C67,122.325 65.595,123.173 63.5,123.566 C61.495,123.942 60,124.816 60,125.611 C60,126.693 58.013,127 51,127 L42,127 L42,123.5 C42,120.667 42.381,120 44,120 C45.439,120 46,119.333 46,117.625 C46,113.12 44.746,109 43.375,109 C42.375,109 42,107.5 42,103.5 C42,99.468 41.629,98 40.608,98 C37.43,98 37.647,88.519 40.845,87.671 Z M67.308,178.931 C67.01,180.069 66.144,181 65.383,181 C64.623,181 64,181.9 64,183 C64,184.333 63.333,185 62,185 C60.889,185 60,185.667 60,186.5 C60,187.548 61.056,188 63.5,188 C65.944,188 67,187.548 67,186.5 C67,185.667 67.889,185 69,185 C70.333,185 71,184.333 71,183 C71,181.643 71.667,181 73.073,181 C76.711,181 74.988,177.548 71.166,177.181 C68.506,176.925 67.742,177.272 67.308,178.931 Z M71,147 C71,145.889 71.667,145 72.5,145 C73.333,145 74,145.889 74,147 C74,148.111 73.333,149 72.5,149 C71.667,149 71,148.111 71,147 Z"/>
</svg>

