<svg xmlns="http://www.w3.org/2000/svg" width="300" height="300" viewBox="0 0 300 300" version="1.1">
  <defs/>
  <path d="M115.75,56.689 C120.109,55.55 120.817,55.958 121.5,60 C121.872,62.2 122.537,64 122.979,64 C124.215,64 125.113,68.703 124.411,71.5 C123.729,74.214 122,74.932 122,72.5 C122,71.675 121.152,71 120.117,71 C119.074,71 118,70.107 117.71,69 C117.423,67.9 116.47,67 115.594,67 C114.667,67 114,67.837 114,69 C114,70.333 113.333,71 112,71 C110.9,71 110,71.655 110,72.455 C110,73.325 108.595,74.173 106.5,74.566 C104.495,74.942 103,75.816 103,76.611 C103,77.375 102.325,78 101.5,78 C100.675,78 99.994,78.563 99.986,79.25 C99.979,79.938 99.701,81.513 99.37,82.75 C98.883,84.565 99.176,85 100.883,85 C102.333,85 103,85.63 103,87 C103,88.111 103.667,89 104.5,89 C105.325,89 106,89.675 106,90.5 C106,91.325 105.325,92 104.5,92 C103.667,92 103,92.889 103,94 C103,95.111 102.333,96 101.5,96 C100.417,96 100,97.111 100,100 C100,102.889 100.417,104 101.5,104 C102.633,104 103,105.222 103,109 L103,114 L121,114 C136.333,114 139,113.778 139,112.5 C139,111.3 140.5,111 146.5,111 C152.5,111 154,111.3 154,112.5 C154,113.325 154.675,114 155.5,114 C156.333,114 157,114.889 157,116 C157,117.111 156.333,118 155.5,118 C154.675,118 154,118.641 154,119.424 C154,120.574 151.29,120.912 139.962,121.174 C129.155,121.425 125.721,121.828 125.044,122.925 C124.435,123.913 121.561,124.487 115.672,124.796 L107.177,125.241 L106.543,128.621 C106.14,130.771 105.333,132 104.325,132 C103.032,132 102.836,132.851 103.261,136.624 C103.548,139.167 104.301,141.568 104.936,141.96 C105.57,142.352 106.359,145.897 106.69,149.837 C107.2,155.931 107.567,157 109.145,157 C110.165,157 111,157.639 111,158.421 C111,159.202 112.35,160.138 114,160.5 C115.65,160.862 117,161.759 117,162.492 C117,163.267 118.672,164.107 121,164.5 C123.459,164.915 125,165.72 125,166.588 C125,167.535 126.152,168 128.5,168 C130.896,168 132,168.459 132,169.455 C132,170.325 133.405,171.173 135.5,171.566 C137.505,171.942 139,172.816 139,173.611 C139,174.375 139.9,175 141,175 C142.1,175 143,175.623 143,176.383 C143,177.144 144.012,178.038 145.25,178.37 C148.762,179.311 150,179.115 150,177.617 C150,176.856 150.9,175.998 152,175.71 C153.1,175.423 154,174.47 154,173.594 C154,172.717 154.675,172 155.5,172 C156.333,172 157,171.111 157,170 C157,168.667 157.667,168 159,168 C160.333,168 161,167.333 161,166 C161,164.889 161.667,164 162.5,164 C163.325,164 164,163.325 164,162.5 C164,161.667 164.889,161 166,161 C167.333,161 168,160.333 168,159 C168,157.667 168.667,157 170,157 C171.111,157 172,156.333 172,155.5 C172,154.675 172.675,154 173.5,154 C174.333,154 175,153.111 175,152 C175,150.667 175.667,150 177,150 C178.333,150 179,149.333 179,148 C179,146.63 179.667,146 181.117,146 C182.824,146 183.117,145.565 182.63,143.75 C182.299,142.512 182.021,140.938 182.014,140.25 C182.006,139.563 181.325,139 180.5,139 C179.371,139 179,137.791 179,134.117 C179,128.866 179.958,128.046 186.133,128.014 C188.015,128.004 188.937,127.357 189.363,125.75 C189.691,124.513 189.672,114.162 189.321,102.75 L188.682,82 L183.841,82 C180.205,82 179,82.373 179,83.5 C179,84.652 177.722,85 173.5,85 L168,85 L168,75.024 L172,74.384 C174.413,73.998 176,73.2 176,72.372 C176,71.348 177.672,71 182.594,71 C188.346,71 189.254,70.745 189.71,69 C189.998,67.9 190.856,67 191.617,67 C192.377,67 193,66.377 193,65.617 C193,64.041 196,63.034 200.75,63.014 C203.338,63.003 204,63.407 204,65 C204,66.933 204.667,67 224,67 C243.333,67 244,67.067 244,69 C244,70.111 244.667,71 245.5,71 C246.69,71 247,72.444 247,78 C247,83.293 246.663,85 245.617,85 C244.856,85 243.998,84.1 243.71,83 C243.423,81.9 242.47,81 241.594,81 C240.49,81 240,80.078 240,78 L240,75 L227.5,75 C217.056,75 215,75.247 215,76.5 C215,77.722 213.333,78 206,78 L197,78 L197,96 C197,111.333 197.222,114 198.5,114 C199.621,114 200.003,115.201 200.014,118.75 C200.021,121.362 200.299,124.513 200.63,125.75 C201.291,128.215 204,128.87 204,126.564 C204,125.383 207.139,125.073 221.75,124.814 C231.512,124.642 240.287,124.665 241.25,124.867 C242.5,125.128 243,126.201 243,128.617 L243,132 L234,132 C227.041,132 225,132.311 225,133.372 C225,134.418 222.152,134.913 213,135.459 L201,136.175 L201,139.588 C201,141.954 201.46,143 202.5,143 C203.548,143 204,144.056 204,146.5 C204,148.813 203.531,150 202.617,150 C200.756,150 200.138,153.853 200.759,161.587 C201.12,166.083 201.681,168 202.637,168 C203.687,168 204,170.068 204,177 C204,185.333 204.148,186 206,186 C207.1,186 208,186.648 208,187.439 C208,188.489 209.895,189.066 215,189.569 C219.927,190.054 222,190.664 222,191.629 C222,192.529 223.202,193 225.5,193 C227.813,193 229,193.469 229,194.383 C229,196.241 232.152,196.97 240.25,196.986 C245.577,196.997 247,197.316 247,198.5 C247,199.652 248.278,200 252.5,200 C256.722,200 258,199.652 258,198.5 C258,197.452 259.056,197 261.5,197 C264.333,197 265,196.619 265,195 C265,193.667 265.667,193 267,193 C268.758,193 269,193.667 269,198.5 C269,203.333 268.758,204 267,204 C265.667,204 265,204.667 265,206 C265,207.883 264.333,208 253.625,208 C240.554,208 236,207.322 236,205.375 C236,204.31 233.97,204 227,204 C219.667,204 218,203.722 218,202.5 C218,201.675 217.156,201 216.125,201 C215.094,201 212.818,200.714 211.067,200.363 C208.377,199.825 207.798,200.058 207.325,201.863 C207.018,203.039 206.144,204 205.383,204 C204.469,204 204,205.187 204,207.5 C204,209.774 204.474,211 205.352,211 C206.783,211 207.982,221.327 207.994,233.75 C207.999,239.335 207.787,240 206,240 C204.667,240 204,240.667 204,242 C204,243.619 203.333,244 200.5,244 L197,244 L196.865,228.75 C196.667,206.261 196.451,204 194.5,204 C193.348,204 193,202.722 193,198.5 C193,193.667 192.758,193 191,193 C189.9,193 189,192.354 189,191.563 C189,190.674 187.764,190.007 185.758,189.813 C181.998,189.45 180.341,186 183.927,186 C185.333,186 186,185.357 186,184 C186,182.381 186.667,182 189.5,182 L193,182 L193,154 L188,154 C184.092,154 183,154.348 183,155.594 C183,156.47 182.1,157.423 181,157.71 C179.9,157.998 179,158.856 179,159.617 C179,160.377 178.325,161 177.5,161 C176.675,161 176,161.717 176,162.594 C176,163.47 175.1,164.423 174,164.71 C172.9,164.998 172,165.856 172,166.617 C172,167.377 171.1,168 170,168 C168.381,168 168,168.667 168,171.5 C168,174.333 167.619,175 166,175 C164.889,175 164,175.667 164,176.5 C164,177.325 163.325,178 162.5,178 C161.667,178 161,178.889 161,180 C161,181.333 160.333,182 159,182 C157.667,182 157,182.667 157,184 C157,185.333 156.333,186 155,186 C153.889,186 153,186.667 153,187.5 C153,188.325 152.325,189 151.5,189 C150.667,189 150,189.889 150,191 C150,192.333 149.333,193 148,193 C146.667,193 146,193.667 146,195 C146,196.538 145.333,197 143.117,197 C141.074,197 140.081,197.583 139.71,199 C139.423,200.1 138.47,201 137.594,201 C136.717,201 136,201.675 136,202.5 C136,203.333 135.111,204 134,204 C132.667,204 132,204.667 132,206 C132,207.1 131.377,208 130.617,208 C129.856,208 128.998,208.9 128.71,210 C128.423,211.1 127.47,212 126.594,212 C125.717,212 125,212.675 125,213.5 C125,214.333 124.111,215 123,215 C121.667,215 121,215.667 121,217 C121,218.619 120.333,219 117.5,219 C114.083,219 114,218.905 114,215 C114,211.667 114.333,211 116,211 C117.111,211 118,210.333 118,209.5 C118,208.675 118.717,208 119.594,208 C120.47,208 121.423,207.1 121.71,206 C121.998,204.9 122.856,204 123.617,204 C124.377,204 125,203.345 125,202.545 C125,201.675 126.405,200.827 128.5,200.434 C131.682,199.837 132,199.47 132,196.389 C132,193.183 132.189,193 135.5,193 C138.333,193 139,192.619 139,191 C139,189.889 139.667,189 140.5,189 C141.487,189 142,188.013 142,186.117 C142,183.044 140.228,182.041 134.75,182.014 C133.077,182.005 132,181.456 132,180.611 C132,179.816 130.505,178.942 128.5,178.566 C126.405,178.173 125,177.325 125,176.455 C125,175.459 123.896,175 121.5,175 C119.18,175 118,174.532 118,173.611 C118,172.816 116.505,171.942 114.5,171.566 C112.405,171.173 111,170.325 111,169.455 C111,168.655 110.1,168 109,168 C107.074,168 107,168.667 107,186 C107,201.333 107.222,204 108.5,204 C109.325,204 110,204.675 110,205.5 C110,206.325 109.325,207 108.5,207 C107.667,207 107,207.889 107,209 C107,210.111 107.667,211 108.5,211 C109.333,211 110,211.889 110,213 C110,214.111 109.333,215 108.5,215 C107.675,215 107,215.675 107,216.5 C107,217.325 107.675,218 108.5,218 C109.548,218 110,219.056 110,221.5 C110,223.944 109.548,225 108.5,225 C107.345,225 107,226.288 107,230.594 C107,235.346 106.699,236.266 105,236.71 C103.9,236.998 103,237.856 103,238.617 C103,239.531 101.813,240 99.5,240 C96.167,240 96,239.833 96,236.5 C96,234.056 95.548,233 94.5,233 C93.458,233 93,231.951 93,229.563 C93,226.417 93.275,226.1 96.25,225.813 L99.5,225.5 L99.638,219.5 C99.714,216.2 99.534,205.738 99.238,196.25 C98.816,182.7 98.411,179 97.35,179 C96.298,179 96,176.568 96,168 L96,157 L89,157 L89,151.5 C89,147.278 89.348,146 90.5,146 C91.325,146 92,145.325 92,144.5 C92,143.675 91.347,143 90.55,143 C89.752,143 88.74,142.361 88.3,141.58 C87.86,140.798 86.235,139.843 84.689,139.456 C82.351,138.871 81.784,139.11 81.322,140.876 C80.924,142.397 79.98,143 77.995,143 C75.618,143 75.129,143.5 74.566,146.5 C74.173,148.595 73.325,150 72.455,150 C71.655,150 71,150.9 71,152 C71,153.333 70.333,154 69,154 C67.667,154 67,154.667 67,156 C67,157.1 66.361,158 65.579,158 C64.798,158 63.862,159.35 63.5,161 C63.138,162.65 62.202,164 61.421,164 C60.639,164 60,164.9 60,166 C60,167.333 59.333,168 58,168 C56.667,168 56,168.667 56,170 C56,171.111 55.333,172 54.5,172 C53.675,172 53,172.623 53,173.383 C53,174.144 52.1,175.002 51,175.29 C49.9,175.577 49,176.53 49,177.406 C49,178.283 48.375,179 47.611,179 C46.816,179 45.942,180.495 45.566,182.5 C45.173,184.595 44.325,186 43.455,186 C42.655,186 42,186.9 42,188 C42,189.1 41.361,190 40.579,190 C39.798,190 38.872,191.304 38.522,192.898 C38.122,194.722 37.073,196.015 35.693,196.385 C31.327,197.555 31,197.215 31,191.5 C31,186.667 31.242,186 33,186 C34.333,186 35,185.333 35,184 C35,182.889 35.667,182 36.5,182 C37.51,182 38,180.99 38,178.906 C38,176.654 38.544,175.671 40,175.29 C41.1,175.002 42,174.144 42,173.383 C42,172.623 42.675,172 43.5,172 C44.333,172 45,171.111 45,170 C45,168.667 45.667,168 47,168 C48.333,168 49,167.333 49,166 C49,164.667 49.667,164 51,164 C52.538,164 53,163.333 53,161.117 C53,159.074 53.583,158.081 55,157.71 C56.1,157.423 57,156.47 57,155.594 C57,154.717 57.675,154 58.5,154 C59.333,154 60,153.111 60,152 C60,150.889 60.667,150 61.5,150 C62.325,150 63,149.283 63,148.406 C63,147.53 63.9,146.577 65,146.29 C66.503,145.897 67,144.926 67,142.383 C67,139.667 67.394,139 69,139 C70.111,139 71,138.333 71,137.5 C71,136.675 71.675,136 72.5,136 C73.333,136 74,135.111 74,134 C74,132.333 74.667,132 78,132 C80.889,132 82,131.583 82,130.5 C82,129.333 80.667,129 76,129 C71.333,129 70,129.333 70,130.5 C70,131.325 69.325,132 68.5,132 C67.675,132 67,131.325 67,130.5 C67,129.675 66.352,129 65.559,129 C63.47,129 62.926,127.62 63.629,124.103 L64.25,121 L71.125,121 C76.31,121 78,120.66 78,119.617 C78,118.625 80.14,118.034 85.592,117.524 C92.734,116.854 93.15,116.684 92.606,114.656 C92.288,113.47 92.021,107.213 92.014,100.75 C92.002,90.978 91.747,89 90.5,89 C89.675,89 89,89.675 89,90.5 C89,91.325 88.283,92 87.406,92 C86.53,92 85.577,92.9 85.29,94 C85.002,95.1 84.144,96 83.383,96 C82.623,96 82,96.9 82,98 C82,99.333 81.333,100 80,100 C78.889,100 78,100.667 78,101.5 C78,102.325 77.325,103 76.5,103 C75.667,103 75,103.889 75,105 C75,106.333 74.333,107 73,107 C71.381,107 71,107.667 71,110.5 C71,112.944 70.548,114 69.5,114 C68.675,114 68,114.675 68,115.5 C68,117.792 64.312,117.302 63.691,114.927 C62.85,111.709 64.09,106 65.631,106 C66.485,106 67,104.873 67,103 C67,100.667 67.444,100 69,100 C70.333,100 71,99.333 71,98 C71,96.667 71.667,96 73,96 C74.111,96 75,95.333 75,94.5 C75,93.675 75.675,93 76.5,93 C77.325,93 78,92.152 78,91.117 C78,90.074 78.893,89 80,88.71 C81.1,88.423 82,87.47 82,86.594 C82,85.717 82.675,85 83.5,85 C84.325,85 85,84.325 85,83.5 C85,82.675 85.717,82 86.594,82 C87.47,82 88.423,81.1 88.71,80 C88.998,78.9 89.856,78 90.617,78 C91.377,78 92,77.325 92,76.5 C92,75.667 92.889,75 94,75 C95.333,75 96,74.333 96,73 C96,71.667 96.667,71 98,71 C99.333,71 100,70.333 100,69 C100,67.667 100.667,67 102,67 C103.1,67 104,66.361 104,65.579 C104,64.798 105.35,63.862 107,63.5 C108.65,63.138 110,62.202 110,61.421 C110,60.639 110.9,60 112,60 C113.1,60 114,59.358 114,58.573 C114,57.789 114.787,56.941 115.75,56.689 Z M87.75,128.689 C85.616,129.247 85.408,132 87.5,132 C88.325,132 89,132.623 89,133.383 C89,134.669 91.84,135.955 94.75,135.986 C95.544,135.995 96,134.541 96,132 C96,128.13 95.894,128.004 92.75,128.116 C90.963,128.18 88.713,128.438 87.75,128.689 Z"/>
</svg>

