<svg xmlns="http://www.w3.org/2000/svg" width="300" height="300" viewBox="0 0 300 300" version="1.1">
  <defs/>
  <path d="M117.29,118 C117.726,116.33 118.654,116 122.906,116 L128,116 L128,120 C128,123.742 127.814,124 125.117,124 C121.668,124 121.034,125.661 121.014,134.75 C121.003,139.633 120.672,141 119.5,141 C118.258,141 118,142.889 118,152 C118,161.111 118.258,163 119.5,163 C120.333,163 121,163.889 121,165 C121,166.871 121.662,166.999 131.25,166.986 C142.757,166.971 146,166.399 146,164.383 C146,163.359 147.558,163 152,163 C156.473,163 158,162.644 158,161.601 C158,160.604 160.005,160.002 165,159.5 C169.995,158.998 172,158.396 172,157.399 C172,156.391 173.367,156 176.883,156 C180.926,156 181.857,155.656 182.29,154 C182.69,152.468 183.654,152 186.406,152 C188.934,152 190,151.555 190,150.5 C190,149.452 191.056,149 193.5,149 C196.333,149 197,148.619 197,147 C197,145.889 197.667,145 198.5,145 C199.548,145 200,143.944 200,141.5 C200,138.667 200.381,138 202,138 C203.619,138 204,137.333 204,134.5 C204,132.056 204.452,131 205.5,131 C206.325,131 207,131.625 207,132.389 C207,133.175 208.469,134.053 210.39,134.413 C214.723,135.226 214.969,136.207 214.986,152.75 C214.998,163.855 215.243,166 216.5,166 C217.728,166 218,167.722 218,175.5 C218,183.278 217.728,185 216.5,185 C215.452,185 215,186.056 215,188.5 L215,192 L224,192 C232.333,192 233,192.148 233,194 C233,195.1 233.613,196 234.361,196 C236.163,196 236.969,209.808 236.244,228.25 C235.826,238.868 235.395,242 234.352,242 C233.384,242 233,243.528 233,247.383 C233,251.926 232.688,252.848 231,253.29 C229.468,253.69 229,254.654 229,257.406 C229,259.934 228.555,261 227.5,261 C226.367,261 226,262.222 226,266 L226,271 L222,271 C219.261,271 218,271.436 218,272.383 C218,274.103 214.923,274.969 208.75,274.986 C204.662,274.998 204,274.721 204,273 C204,271.889 203.333,271 202.5,271 C201.675,271 201,270.325 201,269.5 C201,268.404 202.145,267.996 205.25,267.986 C207.588,267.979 210.512,267.701 211.75,267.37 C214.253,266.699 214.854,264 212.5,264 C211.452,264 211,262.944 211,260.5 C211,258.187 210.531,257 209.617,257 C208.856,257 207.998,256.1 207.71,255 C207.423,253.9 206.47,253 205.594,253 C204.439,253 204,252.036 204,249.5 C204,246.667 203.619,246 202,246 C200.381,246 200,245.333 200,242.5 C200,240.056 199.548,239 198.5,239 C197.667,239 197,238.111 197,237 C197,235.9 196.438,235.006 195.75,235.014 C192.84,235.045 190,236.331 190,237.617 C190,238.377 189.1,239 188,239 C186.667,239 186,239.667 186,241 C186,242.111 185.333,243 184.5,243 C183.675,243 183,243.675 183,244.5 C183,245.333 182.111,246 181,246 C179.9,246 179,246.655 179,247.455 C179,248.325 177.595,249.173 175.5,249.566 C173.495,249.942 172,250.816 172,251.611 C172,252.528 170.827,253 168.55,253 C166.303,253 164.758,253.611 164.12,254.75 C163.333,256.156 161.454,256.569 154.57,256.853 C146.415,257.188 146,257.103 146,255.103 C146,253.9 145.358,253 144.5,253 C143.452,253 143,251.944 143,249.5 C143,247.056 143.452,246 144.5,246 C145.692,246 146,244.545 146,238.906 C146,232.654 146.237,231.751 148,231.29 C149.838,230.809 150,229.926 150,220.383 C150,211.82 149.737,210 148.5,210 C147.675,210 147,210.619 147,211.375 C147,212.746 142.88,214 138.375,214 C136.931,214 136,214.588 136,215.5 C136,216.333 135.111,217 134,217 C132.889,217 132,217.667 132,218.5 C132,219.325 131.381,220 130.625,220 C129.012,220 128,224.288 128,231.125 C128,234.792 127.628,236 126.5,236 C125.367,236 125,237.222 125,241 C125,244.709 124.624,246 123.545,246 C122.675,246 121.827,247.405 121.434,249.5 C120.959,252.033 120.255,253 118.889,253 C117.85,253 117,253.623 117,254.383 C117,255.899 114.032,256.965 109.75,256.986 C108.069,256.995 107,256.462 107,255.617 C107,254.856 106.1,253.998 105,253.71 C103.803,253.397 103,252.346 103,251.094 C103,249.899 102.356,249 101.5,249 C100.353,249 100,247.736 100,243.625 C100,236.316 99.025,232 97.375,232 C96.292,232 96,229.667 96,221 C96,212.333 95.708,210 94.625,210 C92.94,210 92,205.658 92,197.875 C92,193.319 91.663,192 90.5,192 C89.367,192 89,190.778 89,187 C89,183.429 89.392,182 90.372,182 C91.2,182 91.998,180.413 92.384,178 L93.024,174 L99.395,174 C105.157,174 105.824,174.215 106.37,176.25 C107.418,180.16 107.085,180.761 103.5,181.434 L100,182.091 L100,189.045 C100,194.561 100.31,196 101.5,196 C102.751,196 103,198.01 103,208.094 C103,219.346 103.139,220.224 105,220.71 C106.772,221.174 107,222.074 107,228.617 C107,234.513 107.302,236 108.5,236 C109.633,236 110,237.222 110,241 L110,246 L114,246 C117.333,246 118,245.667 118,244 C118,242.889 118.667,242 119.5,242 C120.548,242 121,240.944 121,238.5 C121,235.667 121.381,235 123,235 C124.758,235 125,234.333 125,229.5 C125,224.667 124.758,224 123,224 C121.19,224 121,223.333 121,217 L121,210 L124.383,210 C126.926,210 127.897,209.503 128.29,208 C128.726,206.33 129.654,206 133.906,206 C137.767,206 139,205.637 139,204.5 C139,203.348 140.278,203 144.5,203 C148.516,203 150,202.627 150,201.617 C150,200.856 150.9,199.998 152,199.71 C153.197,199.397 154,198.346 154,197.094 C154,195.94 154.645,195 155.437,195 C156.327,195 156.993,193.763 157.187,191.75 C157.466,188.852 157.872,188.465 160.933,188.173 C162.821,187.993 165.858,188.126 167.683,188.468 C170.71,189.036 171,189.405 171,192.695 L171,196.299 L180.154,195.65 C185.188,195.292 191.038,195 193.154,195 C195.906,195 197,194.573 197,193.5 C197,192.372 198.208,192 201.875,192 C206.535,192 206.778,191.862 207.375,188.875 C207.719,187.156 208,182.713 208,179 C208,170.384 207.115,166 205.375,166 C204.349,166 204,164.348 204,159.5 C204,154.389 203.679,153 202.5,153 C201.675,153 201,153.675 201,154.5 C201,155.583 199.889,156 197,156 C194.166,156 193,156.424 193,157.455 C193,158.325 191.595,159.173 189.5,159.566 C187.495,159.942 186,160.816 186,161.611 C186,162.509 184.85,163.005 182.75,163.014 C178,163.034 175,164.041 175,165.617 C175,166.531 173.813,167 171.5,167 C169.056,167 168,167.452 168,168.5 C168,169.565 166.913,170.003 164.25,170.009 C156.622,170.026 150,171.249 150,172.639 C150,173.686 147.924,174 141,174 C133.667,174 132,174.278 132,175.5 C132,176.652 130.722,177 126.5,177 C122.278,177 121,176.652 121,175.5 C121,174.452 119.944,174 117.5,174 C115.187,174 114,173.531 114,172.617 C114,171.856 113.1,170.998 112,170.71 C110.095,170.212 110,169.346 110,152.5 C110,135.654 110.095,134.788 112,134.29 C113.756,133.831 114,132.926 114,126.883 C114,121.689 114.34,120 115.383,120 C116.144,120 117.002,119.1 117.29,118 Z M143,24.594 C143,23.667 143.837,23 145,23 C146.1,23 147,23.639 147,24.421 C147,25.202 148.321,26.131 149.935,26.486 C152.139,26.97 153.03,27.861 153.514,30.065 C153.881,31.736 154.811,33 155.673,33 C156.506,33 157.423,33.9 157.71,35 C157.998,36.1 158.856,37 159.617,37 C160.377,37 161,37.9 161,39 C161,40.111 161.667,41 162.5,41 C163.325,41 164,41.675 164,42.5 C164,43.641 165.256,44.003 169.25,44.014 C175.902,44.031 179,44.858 179,46.617 C179,47.531 180.187,48 182.5,48 C185.333,48 186,48.381 186,50 C186,51.333 186.667,52 188,52 C189.111,52 190,52.667 190,53.5 C190,54.333 189.111,55 188,55 C186.889,55 186,55.667 186,56.5 C186,58.143 189.629,58.598 190.167,57.023 C190.35,56.485 191.963,55.754 193.75,55.398 C196.938,54.762 197,54.819 197,58.375 C197,61.851 197.144,62 200.5,62 C203.333,62 204,62.381 204,64 C204,65.733 204.667,66 209,66 C212.908,66 214,66.348 214,67.594 C214,68.47 214.9,69.423 216,69.71 C217.503,70.103 218,71.074 218,73.617 C218,76.988 217.983,77 213.25,76.986 C207.077,76.969 204,76.103 204,74.383 C204,73.469 202.813,73 200.5,73 C198.056,73 197,72.548 197,71.5 C197,70.445 195.934,70 193.406,70 C190.654,70 189.69,69.532 189.29,68 C188.859,66.353 187.926,66 184,66 C180.074,66 179.141,65.647 178.71,64 C178.166,61.92 174.883,61.389 170.25,62.63 C168.07,63.214 168,63.62 168,75.617 C168,87.333 167.892,88 166,88 C164.667,88 164,87.333 164,86 C164,84.889 163.333,84 162.5,84 C161.249,84 160.998,81.966 160.986,71.75 C160.971,58.28 160.462,55 158.383,55 C157.469,55 157,53.813 157,51.5 C157,48.667 156.619,48 155,48 C153.889,48 153,47.333 153,46.5 C153,45.675 152.325,45 151.5,45 C150.667,45 150,44.111 150,43 C150,41.667 149.333,41 148,41 C146.667,41 146,40.333 146,39 C146,37.381 145.333,37 142.5,37 C139.667,37 139,37.381 139,39 C139,40.111 138.333,41 137.5,41 C136.675,41 136,41.675 136,42.5 C136,43.333 135.111,44 134,44 C132.667,44 132,44.667 132,46 C132,47.333 131.333,48 130,48 C128.667,48 128,48.667 128,50 C128,51.111 127.333,52 126.5,52 C125.675,52 125,52.675 125,53.5 C125,54.325 124.283,55 123.406,55 C122.53,55 121.577,55.9 121.29,57 C121.002,58.1 120.144,59 119.383,59 C118.623,59 118,59.675 118,60.5 C118,61.333 117.111,62 116,62 C114.667,62 114,62.667 114,64 C114,65.333 113.333,66 112,66 C110.667,66 110,66.667 110,68 C110,69.111 109.333,70 108.5,70 C107.49,70 107,71.01 107,73.094 C107,75.346 106.456,76.329 105,76.71 C103.9,76.998 103,77.856 103,78.617 C103,79.377 102.325,80 101.5,80 C100.667,80 100,80.889 100,82 C100,83.333 99.333,84 98,84 C96.667,84 96,84.667 96,86 C96,87.1 95.377,88 94.617,88 C93.856,88 92.998,88.9 92.71,90 C92.423,91.1 91.506,92 90.673,92 C89.804,92 88.878,93.278 88.5,95 C88.138,96.65 87.202,98 86.421,98 C85.639,98 85,98.9 85,100 C85,101.111 84.333,102 83.5,102 C82.667,102 82,102.889 82,104 C82,105.333 81.333,106 80,106 C78.381,106 78,106.667 78,109.5 C78,112.333 77.619,113 76,113 C74.889,113 74,113.667 74,114.5 C74,115.325 73.325,116 72.5,116 C71.667,116 71,116.889 71,118 C71,119.667 70.333,120 67,120 C63.075,120 63,119.932 63,116.406 C63,113.654 63.468,112.69 65,112.29 C66.417,111.919 67,110.926 67,108.883 C67,106.667 67.462,106 69,106 C70.333,106 71,105.333 71,104 C71,102.889 71.667,102 72.5,102 C73.333,102 74,101.111 74,100 C74,98.667 74.667,98 76,98 C77.333,98 78,97.333 78,96 C78,94.9 78.639,94 79.421,94 C80.202,94 81.138,92.65 81.5,91 C81.862,89.35 82.798,88 83.579,88 C84.361,88 85,87.1 85,86 C85,84.667 85.667,84 87,84 C88.333,84 89,83.333 89,82 C89,80.889 89.667,80 90.5,80 C91.325,80 92,79.283 92,78.406 C92,77.53 92.9,76.577 94,76.29 C95.1,76.002 96,75.144 96,74.383 C96,73.623 96.625,73 97.389,73 C98.184,73 99.058,71.505 99.434,69.5 C99.827,67.405 100.675,66 101.545,66 C102.345,66 103,65.1 103,64 C103,62.667 103.667,62 105,62 C106.111,62 107,61.333 107,60.5 C107,59.675 107.675,59 108.5,59 C109.333,59 110,58.111 110,57 C110,55.667 110.667,55 112,55 C113.111,55 114,54.333 114,53.5 C114,52.675 114.717,52 115.594,52 C116.47,52 117.423,51.1 117.71,50 C117.998,48.9 118.856,48 119.617,48 C120.377,48 121,47.1 121,46 C121,44.667 121.667,44 123,44 C124.333,44 125,43.333 125,42 C125,40.889 125.667,40 126.5,40 C127.325,40 128,39.325 128,38.5 C128,37.667 128.889,37 130,37 C131.333,37 132,36.333 132,35 C132,33.889 132.667,33 133.5,33 C134.325,33 135,32.325 135,31.5 C135,30.667 135.889,30 137,30 C138.1,30 139,29.377 139,28.617 C139,27.856 139.9,26.998 141,26.71 C142.1,26.423 143,25.47 143,24.594 Z M186,204.5 C186,205.663 184.682,206 180.14,206 C171.146,206 165,207.07 165,208.636 C165,209.386 164.1,210 163,210 C161.386,210 161,210.667 161,213.45 C161,215.697 160.389,217.242 159.25,217.88 C157.844,218.667 157.431,220.546 157.147,227.43 C156.88,233.933 156.458,236 155.397,236 C154.387,236 154,237.385 154,241 L154,246 L161,246 C167.333,246 168,245.81 168,244 C168,242.381 168.667,242 171.5,242 C173.944,242 175,241.548 175,240.5 C175,239.667 175.889,239 177,239 C178.1,239 179,238.345 179,237.545 C179,236.675 180.405,235.827 182.5,235.434 C185.682,234.837 186,234.47 186,231.389 C186,228.667 186.393,228 188,228 C189.333,228 190,227.333 190,226 C190,224.889 190.667,224 191.5,224 C192.621,224 193.003,222.799 193.014,219.25 C193.036,211.418 193.742,210 197.617,210 C199.957,210 201,210.462 201,211.5 C201,212.325 201.675,213 202.5,213 C203.7,213 204,214.5 204,220.5 C204,226.219 204.329,228 205.383,228 C206.959,228 207.966,231 207.986,235.75 C207.995,237.85 208.491,239 209.389,239 C210.184,239 211.058,240.495 211.434,242.5 C211.827,244.595 212.675,246 213.545,246 C214.541,246 215,247.104 215,249.5 C215,251.813 215.469,253 216.383,253 C217.144,253 218.002,253.9 218.29,255 C218.577,256.1 219.53,257 220.406,257 C221.599,257 222,255.993 222,253 C222,250.288 222.439,249 223.364,249 C224.229,249 224.961,247.302 225.364,244.36 C226.18,238.406 226.172,215.08 225.352,208.25 L224.721,203 L215.861,203 C208.651,203 207,203.28 207,204.5 C207,205.325 206.325,206 205.5,206 C204.675,206 204,205.325 204,204.5 C204,203.278 202.333,203 195,203 C187.667,203 186,203.278 186,204.5 Z M119.75,91.689 C125.016,90.313 132,91.412 132,93.617 C132,94.764 137.198,95 162.5,95 C192.333,95 193,94.956 193,93 C193,91.194 193.667,91 199.883,91 C206.176,91 206.818,91.193 207.37,93.25 C208.474,97.37 208.086,99 206,99 C204.889,99 204,99.667 204,100.5 C204,101.325 203.377,102 202.617,102 C201.856,102 200.998,102.9 200.71,104 C200.31,105.532 199.346,106 196.594,106 C194.066,106 193,106.445 193,107.5 C193,108.325 192.377,109 191.617,109 C190.856,109 189.998,109.9 189.71,111 C189.31,112.532 188.346,113 185.594,113 C183.066,113 182,113.445 182,114.5 C182,115.325 181.325,116 180.5,116 C179.667,116 179,116.889 179,118 C179,119.619 178.333,120 175.5,120 C172.167,120 172,120.167 172,123.5 C172,125.425 172.499,127 173.109,127 C174.645,127 178.962,131.226 178.983,132.75 C178.992,133.438 179.625,134 180.389,134 C182.185,134 183.33,140.087 182.48,145.119 C181.868,148.741 181.596,149 178.412,149 L175,149 L175,138 L171.5,138 C169.197,138 168,137.53 168,136.625 C168,135.254 163.88,134 159.375,134 C157.667,134 157,134.561 157,136 C157,137.619 156.333,138 153.5,138 C150.667,138 150,138.381 150,140 C150,141.111 149.333,142 148.5,142 C147.675,142 147,142.675 147,143.5 C147,144.333 146.111,145 145,145 C143.837,145 143,145.667 143,146.594 C143,147.47 142.1,148.423 141,148.71 C139.9,148.998 139,149.835 139,150.571 C139,151.309 137.429,152.204 135.5,152.566 C133.495,152.942 132,153.816 132,154.611 C132,155.375 131.1,156 130,156 C128.667,156 128,156.667 128,158 C128,161.188 125.313,160.313 124.63,156.902 C123.836,152.932 124.821,149 126.608,149 C127.374,149 128,148.1 128,147 C128,145.667 128.667,145 130,145 C131.333,145 132,144.333 132,143 C132,141.667 132.667,141 134,141 C135.111,141 136,140.333 136,139.5 C136,138.452 137.056,138 139.5,138 C142.333,138 143,137.619 143,136 C143,134.381 143.667,134 146.5,134 C149.833,134 150,133.833 150,130.5 L150,127 L139,127 L139,121.5 C139,116.667 139.242,116 141,116 C142.111,116 143,115.333 143,114.5 C143,113.452 144.056,113 146.5,113 C148.82,113 150,113.468 150,114.389 C150,115.184 151.495,116.058 153.5,116.434 C155.595,116.827 157,117.675 157,118.545 C157,119.541 158.104,120 160.5,120 C163.036,120 164,119.561 164,118.406 C164,117.53 164.9,116.577 166,116.29 C167.1,116.002 168,115.144 168,114.383 C168,113.623 168.9,113 170,113 C171.333,113 172,112.333 172,111 C172,109.381 172.667,109 175.5,109 C178.833,109 179,108.833 179,105.5 L179,102 L172,102 C166.673,102 165,102.334 165,103.397 C165,104.502 162.331,104.868 152.25,105.148 C136.308,105.589 132,105.216 132,103.395 C132,102.371 130.538,102 126.5,102 C122.278,102 121,101.652 121,100.5 C121,99.675 120.325,99 119.5,99 C117.225,99 117.454,92.289 119.75,91.689 Z M178,53.5 C178,54.433 178.944,55 180.5,55 C182.056,55 183,54.433 183,53.5 C183,52.567 182.056,52 180.5,52 C178.944,52 178,52.567 178,53.5 Z"/>
</svg>

