<svg xmlns="http://www.w3.org/2000/svg" width="300" height="300" viewBox="0 0 300 300" version="1.1">
  <defs/>
  <path d="M146.25,45.714 C152.438,45.521 158.794,45.506 160.375,45.681 C161.956,45.857 164.319,46 165.625,46 C166.98,46 168,46.594 168,47.383 C168,48.144 168.9,49.002 170,49.29 C171.763,49.751 172,50.654 172,56.906 C172,63.333 171.812,64 170,64 C168.381,64 168,64.667 168,67.5 C168,69.944 167.548,71 166.5,71 C165.675,71 165,71.717 165,72.594 C165,73.47 164.1,74.423 163,74.71 C161.9,74.998 161,75.856 161,76.617 C161,77.377 160.1,78 159,78 C157.889,78 157,78.667 157,79.5 C157,80.325 156.325,81 155.5,81 Q154,81 154,78 Q154,75 155.5,75 C156.333,75 157,74.111 157,73 C157,71.837 157.667,71 158.594,71 C159.47,71 160.423,70.1 160.71,69 C160.998,67.9 161.856,67 162.617,67 C163.627,67 164,65.516 164,61.5 L164,56 L138.701,56 L139.353,65.193 C139.712,70.249 140.419,74.641 140.923,74.953 C141.428,75.265 142.15,76.749 142.527,78.251 C143.035,80.276 142.797,81.141 141.606,81.598 C139.589,82.372 139.541,84.683 141.5,86.643 C142.325,87.468 143,89.911 143,92.071 L143,96 L166,96 C185.141,96 189,96.237 189,97.412 C189,98.28 190.541,99.085 193,99.5 L197,100.176 L197,109.088 C197,116.009 196.691,118 195.617,118 C194.101,118 193.035,120.968 193.014,125.25 C193.005,127.022 192.466,128 191.5,128 C190.667,128 190,128.889 190,130 C190,131.333 189.333,132 188,132 C186.667,132 186,132.667 186,134 C186,135.1 185.361,136 184.579,136 C183.798,136 182.862,137.35 182.5,139 C182.138,140.65 181.202,142 180.421,142 C179.43,142 179,143.211 179,146 C179,149.905 179.083,150 182.5,150 L186,150 L186,157 C186,162.556 185.69,164 184.5,164 C183.667,164 183,164.889 183,166 C183,167.333 182.333,168 181,168 C179.413,168 178.997,167.329 178.986,164.75 C178.953,156.91 178.77,156.778 168.441,157.158 C163.338,157.346 158.789,157.874 158.332,158.331 C157.874,158.787 157.349,164.3 157.164,170.581 L156.828,182 L160.414,182 C162.787,182 164,181.536 164,180.627 C164,179.707 165.683,179.093 169.107,178.764 C171.915,178.494 174.564,177.705 174.993,177.011 C175.447,176.276 178.744,175.537 182.887,175.24 C187.983,174.876 190,174.344 190,173.366 C190,172.506 191.146,172 193.094,172 C195.346,172 196.329,171.456 196.71,170 C197.103,168.497 198.074,168 200.617,168 C203.333,168 204,168.394 204,170 C204,171.37 204.667,172 206.117,172 C207.824,172 208.117,172.435 207.63,174.25 C207.299,175.488 207.021,177.063 207.014,177.75 C207.006,178.469 205.726,179 204,179 Q201,179 201,180.5 C201,181.605 199.847,182 196.625,182 C190.259,182 186,183.052 186,184.625 C186,185.69 183.97,186 177,186 C168.667,186 168,186.148 168,188 C168,189.619 167.333,190 164.5,190 L161,190 L161,200.5 C161,209.167 161.262,211 162.5,211 C163.548,211 164,212.056 164,214.5 C164,216.944 163.548,218 162.5,218 C161.667,218 161,218.889 161,220 C161,221.667 160.333,222 157,222 L153,222 L153,213 C153,205.667 152.722,204 151.5,204 C150.348,204 150,202.722 150,198.5 C150,194.362 149.641,193 148.55,193 C147.752,193 146.695,193.723 146.201,194.606 C145.66,195.572 143.449,196.42 140.651,196.736 C137.635,197.076 136,197.742 136,198.63 C136,199.405 134.969,200 133.625,200 C129.12,200 125,201.254 125,202.625 C125,203.521 123.821,204 121.617,204 C119.074,204 118.103,204.497 117.71,206 C117.423,207.1 116.47,208 115.594,208 C114.717,208 114,208.675 114,209.5 C114,210.652 112.722,211 108.5,211 L103,211 L103,205.906 C103,201.654 103.33,200.726 105,200.29 C106.1,200.002 107,199.203 107,198.513 C107,197.764 108.869,197.049 111.651,196.736 C114.449,196.42 116.66,195.572 117.201,194.606 C117.854,193.438 119.585,193 123.55,193 C127.552,193 129,192.628 129,191.601 C129,190.604 131.005,190.002 136,189.5 C140.995,188.998 143,188.396 143,187.399 C143,186.467 144.168,186 146.5,186 L150,186 L150,180.5 C150,176.278 149.652,175 148.5,175 C147.367,175 147,173.778 147,170 L147,165 L143,165 C140.111,165 139,165.417 139,166.5 C139,167.333 138.111,168 137,168 C135.889,168 135,168.667 135,169.5 C135,170.325 134.325,171 133.5,171 C132.667,171 132,171.889 132,173 C132,174.614 131.333,175 128.55,175 C126.323,175 124.734,175.621 124.068,176.75 C122.408,179.567 120.908,176.377 121.129,170.5 C121.486,161.03 121.091,158 119.5,158 C118.514,158 118,157.014 118,155.125 C118,150.159 116.804,146 115.375,146 C114.392,146 114,144.576 114,141 C114,137.424 113.608,136 112.625,136 C110.94,136 110,131.658 110,123.875 C110,119.529 109.639,118 108.611,118 C107.823,118 106.946,116.527 106.584,114.597 C106.233,112.725 105.283,110.939 104.473,110.628 C103.305,110.18 103,107.884 103,99.531 C103,89.667 103.127,89 105,89 C106.333,89 107,88.333 107,87 C107,85.262 107.667,85 112.094,85 C116.346,85 117.274,85.33 117.71,87 C117.998,88.1 118.856,89 119.617,89 C122.617,89 120.876,91.933 117.5,92.566 C114.077,93.208 112.451,96 115.5,96 C116.325,96 117,96.675 117,97.5 C117,98.583 118.111,99 121,99 C123.889,99 125,98.583 125,97.5 C125,96.452 126.056,96 128.5,96 L132,96 L132,87 C132,80.004 131.692,78 130.617,78 C128.759,78 128.03,74.848 128.014,66.75 C128.003,61.423 127.684,60 126.5,60 C125.675,60 125,59.325 125,58.5 C125,57.348 123.722,57 119.5,57 C115.278,57 114,57.348 114,58.5 C114,59.738 112.167,60 103.5,60 C93.667,60 93,59.873 93,58 C93,56.889 93.667,56 94.5,56 C95.325,56 96,55.375 96,54.611 C96,53.816 97.495,52.942 99.5,52.566 C101.595,52.173 103,51.325 103,50.455 C103,49.242 105.666,49 119,49 C132.397,49 135,48.761 135,47.533 C135,46.351 137.188,45.997 146.25,45.714 Z M63,145.375 C63,143.139 63.351,143 69,143 L75,143 L75,146.5 C75,148.944 75.452,150 76.5,150 C77.333,150 78,150.889 78,152 C78,153.333 78.667,154 80,154 C81.556,154 82,154.667 82,157 C82,158.876 82.514,160 83.372,160 C84.2,160 84.998,161.587 85.384,164 C85.798,166.588 86.549,168 87.512,168 C88.749,168 89,170.086 89,180.383 C89,191.926 88.864,192.802 87,193.29 C85.544,193.671 85,194.654 85,196.906 C85,198.99 84.51,200 83.5,200 C82.667,200 82,200.889 82,202 C82,203.333 81.333,204 80,204 C78.394,204 78,204.667 78,207.383 C78,209.926 77.503,210.897 76,211.29 C74.544,211.671 74,212.654 74,214.906 C74,217.791 74.243,218 77.594,218 C80.346,218 81.31,218.468 81.71,220 C82.103,221.503 83.074,222 85.617,222 C87.957,222 89,222.462 89,223.5 C89,224.412 89.931,225 91.375,225 C95.88,225 100,226.254 100,227.625 C100,228.597 101.393,229.004 104.75,229.014 C110.923,229.031 114,229.897 114,231.617 C114,232.707 116.227,233 124.5,233 C133.167,233 135,233.262 135,234.5 C135,235.676 136.375,236 141.375,236 C149.634,236 154,236.908 154,238.625 C154,239.718 156.561,240 166.5,240 C176.318,240 179,240.289 179,241.348 C179,243.077 193.1,244 219.509,244 C242.416,244 251,243.28 251,241.358 C251,238.82 253.764,239.986 254.3,242.75 C255.046,246.59 254.016,251 252.375,251 C251.619,251 251,251.675 251,252.5 C251,253.806 246.333,254 215,254 C183.667,254 179,253.806 179,252.5 C179,251.258 177.111,251 168,251 C159.333,251 157,250.708 157,249.625 C157,247.824 152.568,247 142.875,247 C136.542,247 135,246.706 135,245.5 C135,244.337 133.681,244 129.125,244 C121.342,244 117,243.06 117,241.375 C117,240.316 115.045,240 108.5,240 C101.846,240 100,239.693 100,238.588 C100,237.72 98.459,236.915 96,236.5 C93.541,236.085 92,235.28 92,234.412 C92,233.367 90.57,233 86.5,233 C82.484,233 81,232.627 81,231.617 C81,229.94 77.947,229.032 72.25,229.014 C69.145,229.004 68,228.596 68,227.5 C68,226.333 66.667,226 62,226 C57.333,226 56,226.333 56,227.5 C56,228.633 54.778,229 51,229 L46,229 L46,223.5 C46,219.5 46.375,218 47.375,218 C48.131,218 49.008,216.708 49.324,215.13 C50.002,211.739 51.941,211.033 60.633,211.014 C65.919,211.002 66.839,210.724 67.29,209 C67.577,207.9 68.53,207 69.406,207 C70.51,207 71,206.078 71,204 Q71,201 72.5,201 C73.333,201 74,200.111 74,199 C74,197.667 74.667,197 76,197 C77.667,197 78,196.333 78,193 C78,190.245 78.434,189 79.395,189 C80.302,189 80.94,187.514 81.22,184.75 C81.874,178.276 80.964,172 79.37,172 C78.48,172 78,170.815 78,168.617 C78,166.074 77.503,165.103 76,164.71 C74.9,164.423 74,163.47 74,162.594 C74,161.717 73.325,161 72.5,161 C71.667,161 71,160.111 71,159 C71,157.667 70.333,157 69,157 C67.889,157 67,156.333 67,155.5 C67,154.675 66.381,154 65.625,154 C64.254,154 63,149.88 63,145.375 Z M122,108.412 C122,109.28 120.459,110.085 118,110.5 C115.541,110.915 114,111.72 114,112.588 C114,113.365 114.623,114 115.383,114 C116.959,114 117.966,117 117.986,121.75 C117.995,123.856 118.491,125 119.394,125 C120.441,125 120.88,127.012 121.155,133.076 C121.445,139.457 121.887,141.357 123.261,142.126 C124.548,142.846 125,144.387 125,148.05 C125,151.783 125.369,153 126.5,153 C127.356,153 128,153.899 128,155.094 C128,156.346 128.803,157.397 130,157.71 C131.1,157.998 132,158.631 132,159.117 C132,159.602 132.675,160 133.5,160 C134.325,160 135,159.325 135,158.5 C135,157.452 136.056,157 138.5,157 C141.036,157 142,156.561 142,155.406 C142,154.53 142.9,153.577 144,153.29 C146.318,152.684 146.726,150 144.5,150 C143.278,150 143,148.333 143,141 C143,132.667 142.852,132 141,132 C139.889,132 139,132.667 139,133.5 C139,134.325 138.325,135 137.5,135 C136.675,135 136,135.844 136,136.875 C136,138.172 135.044,138.941 132.897,139.371 C128.954,140.159 127.997,139.536 128.014,136.191 C128.035,131.964 129.108,129 130.617,129 C131.377,129 132,128.1 132,127 C132,125.381 132.667,125 135.5,125 L139,125 L139,107 L130.5,107 C123.846,107 122,107.307 122,108.412 Z M164.638,123.5 C164.232,124.558 162.581,125 159.031,125 C155.094,125 154,125.347 154,126.594 C154,127.47 153.1,128.423 152,128.71 C149.634,129.329 149.07,135 151.375,135 C152.948,135 154,139.259 154,145.625 C154,149.958 154.033,150 157.5,150 C159.896,150 161,149.541 161,148.545 C161,147.675 162.405,146.827 164.5,146.434 C166.505,146.058 168,145.184 168,144.389 C168,143.625 168.623,143 169.383,143 C170.144,143 171.002,142.1 171.29,141 C171.577,139.9 172.53,139 173.406,139 C174.333,139 175,138.163 175,137 C175,135.9 175.623,135 176.383,135 C177.144,135 178.038,133.988 178.37,132.75 C179.326,129.182 179.11,128 177.5,128 C176.675,128 176,127.325 176,126.5 C176,125.567 175.056,125 173.5,125 C171.944,125 171,124.433 171,123.5 C171,122.512 170.012,122 168.107,122 C166.458,122 164.966,122.645 164.638,123.5 Z M148.75,103.716 C146.385,104.298 146.149,114 148.5,114 C149.325,114 150,114.675 150,115.5 C150,116.583 151.111,117 154,117 C156.889,117 158,116.583 158,115.5 C158,114.262 159.833,114 168.5,114 C178.333,114 179,114.127 179,116 C179,117.111 179.667,118 180.5,118 C181.325,118 182,118.675 182,119.5 C182,120.333 182.889,121 184,121 C185.619,121 186,120.333 186,117.5 C186,115.056 186.452,114 187.5,114 C188.333,114 189,113.111 189,112 C189,110.889 188.333,110 187.5,110 C186.675,110 186,109.385 186,108.634 C186,107.654 183.965,107.123 178.789,106.753 C174.804,106.468 171.412,105.737 171.206,105.118 C170.744,103.731 168,103.63 168,105 C168,106.353 165.259,106.278 164.804,104.913 C164.441,103.823 152.067,102.901 148.75,103.716 Z M65.75,92.689 C69.866,91.614 74,92.58 74,94.617 C74,95.377 74.9,96 76,96 C77.619,96 78,96.667 78,99.5 C78,102.333 78.381,103 80,103 C81.333,103 82,103.667 82,105 C82,106.111 82.667,107 83.5,107 C84.742,107 85,108.889 85,118 C85,126.896 84.725,129 83.563,129 C82.674,129 82.007,130.236 81.813,132.242 C81.607,134.377 80.903,135.597 79.75,135.815 C78.156,136.117 78,134.984 78,123.073 C78,110.667 77.898,110 76,110 C74.667,110 74,109.333 74,108 C74,106.461 73.333,106 71.107,106 C69.458,106 67.966,105.355 67.638,104.5 C67.322,103.675 66.374,103 65.531,103 C63.155,103 63.36,93.314 65.75,92.689 Z M75,141 C75,140.45 75.675,140 76.5,140 C77.325,140 78,140.45 78,141 C78,141.55 77.325,142 76.5,142 C75.675,142 75,141.55 75,141 Z"/>
</svg>

