<svg xmlns="http://www.w3.org/2000/svg" width="300" height="300" viewBox="0 0 300 300" version="1.1">
  <defs/>
  <path d="M203,31.412 C203,30.321 204.707,30 210.5,30 C216.36,30 218,30.315 218,31.439 C218,32.489 219.895,33.066 225,33.569 C229.927,34.054 232,34.664 232,35.629 C232,36.383 232.675,37 233.5,37 C234.333,37 235,37.889 235,39 C235,40.333 235.667,41 237,41 C238.908,41 239,41.667 239,55.5 C239,67.179 238.731,70 237.617,70 C236.089,70 235.035,72.974 235.014,77.344 C235.004,79.353 235.587,80.341 237,80.71 C238.656,81.143 239,82.074 239,86.117 C239,89.617 239.393,91 240.389,91 C241.184,91 242.058,92.495 242.434,94.5 C242.827,96.595 243.675,98 244.545,98 C245.689,98 246,99.604 246,105.5 C246,111.219 245.671,113 244.617,113 C243.856,113 242.998,113.9 242.71,115 C242.423,116.1 241.506,117 240.673,117 C239.811,117 238.881,118.264 238.514,119.935 C238.03,122.139 237.139,123.03 234.935,123.514 C233.321,123.869 232,124.798 232,125.579 C232,126.361 231.1,127 230,127 C228.667,127 228,127.667 228,129 C228,130.758 227.333,131 222.5,131 C218.278,131 217,131.348 217,132.5 C217,133.633 215.778,134 212,134 C208.222,134 207,133.633 207,132.5 C207,131.445 205.934,131 203.406,131 C200.654,131 199.69,130.532 199.29,129 C199,127.893 197.926,127 196.883,127 C195.848,127 195,126.325 195,125.5 C195,124.675 194.325,124 193.5,124 C192.207,124 192,127.444 192,149 C192,169.418 192.249,174 193.361,174 C195.213,174 195.981,181.222 195.991,198.75 C195.998,210.533 196.251,213 197.451,213 C198.673,213 198.949,216.988 199.201,238.25 C199.543,267.122 199.474,268 196.883,268 C195.848,268 195,268.675 195,269.5 C195,270.325 194.325,271 193.5,271 C192.348,271 192,269.722 192,265.5 C192,261.558 191.619,260 190.654,260 C188.981,260 188.01,243.428 188.004,214.75 C188.001,198.295 187.761,195 186.57,195 C185.406,195 185.081,192.117 184.82,179.462 C184.563,166.974 184.206,163.742 183,162.999 C181.761,162.236 181.444,158.417 181.178,141.038 C180.911,123.629 180.609,120 179.428,120 C178.387,120 178,118.685 178,115.147 C178,105.846 176.791,98 175.358,98 C174.611,98 174,97.325 174,96.5 C174,95.675 174.675,95 175.5,95 C176.333,95 177,94.111 177,93 C177,91.333 177.667,91 181,91 L185,91 L185,95 C185,97.741 185.436,99 186.385,99 C187.313,99 187.996,100.812 188.457,104.5 C188.929,108.278 189.591,110 190.572,110 C191.492,110 192,111.067 192,113 C192,115.078 192.49,116 193.594,116 C194.47,116 195.423,116.9 195.71,118 C196,119.107 197.074,120 198.117,120 C199.152,120 200,120.623 200,121.383 C200,122.899 202.968,123.965 207.25,123.986 C209.022,123.995 210,124.534 210,125.5 C210,126.548 211.056,127 213.5,127 C215.82,127 217,126.532 217,125.611 C217,124.816 218.495,123.942 220.5,123.566 C222.595,123.173 224,122.325 224,121.455 C224,120.655 224.9,120 226,120 C227.111,120 228,119.333 228,118.5 C228,117.675 228.717,117 229.594,117 C230.47,117 231.423,116.1 231.71,115 C231.998,113.9 232.856,113 233.617,113 C234.627,113 235,111.516 235,107.5 C235,103.474 234.628,102 233.611,102 C232.816,102 231.942,100.505 231.566,98.5 C231.173,96.405 230.325,95 229.455,95 C228.311,95 228,93.396 228,87.5 C228,81.5 227.7,80 226.5,80 C225.675,80 225,79.325 225,78.5 C225,77.675 225.675,77 226.5,77 C227.7,77 228,75.5 228,69.5 C228,63.5 228.3,62 229.5,62 C230.69,62 231,60.556 231,55 C231,49.444 230.69,48 229.5,48 C228.667,48 228,47.111 228,46 C228,44.242 227.333,44 222.5,44 C218.278,44 217,43.652 217,42.5 C217,41.31 215.556,41 210,41 C204.694,41 203,41.336 203,42.389 C203,43.184 201.505,44.058 199.5,44.434 C196.457,45.005 196,45.469 196,47.986 C196,51.443 194.941,52.274 191.605,51.437 C188.638,50.692 187.507,46.878 188.504,40.978 C189.107,37.405 189.472,37 192.088,37 C193.929,37 195,36.481 195,35.588 C195,34.72 196.541,33.915 199,33.5 C201.459,33.085 203,32.28 203,31.412 Z M116.75,98.718 C118.813,98.497 129.275,98.357 140,98.408 L159.5,98.5 L159.82,103.5 C160.283,110.719 159.175,117 157.439,117 C156.384,117 156,118.302 156,121.883 C156,125.926 155.656,126.857 154,127.29 C152.9,127.577 152,128.53 152,129.406 C152,130.283 151.325,131 150.5,131 C149.452,131 149,132.056 149,134.5 C149,136.896 148.541,138 147.545,138 C146.675,138 145.827,139.405 145.434,141.5 C145.058,143.505 144.184,145 143.389,145 C142.468,145 142,146.18 142,148.5 C142,151.333 141.619,152 140,152 C138.667,152 138,152.667 138,154 C138,155.1 137.377,156 136.617,156 C135.331,156 134.045,158.84 134.014,161.75 C134.004,162.6 135.759,163 139.5,163 C143.593,163 145,162.636 145,161.575 C145,160.5 147.207,159.978 154,159.446 C160.615,158.929 163,158.379 163,157.371 C163,156.438 164.278,156 167,156 C169.889,156 171,156.417 171,157.5 C171,158.325 171.675,159 172.5,159 C173.333,159 174,159.889 174,161 C174,162.163 173.333,163 172.406,163 C171.53,163 170.577,163.9 170.29,165 C169.816,166.811 168.926,167 160.883,167 C153.654,167 152,167.279 152,168.5 C152,169.575 150.903,170 148.125,170 C142.228,170 138,171.096 138,172.625 C138,173.608 136.576,174 133,174 C129.361,174 128,174.384 128,175.412 C128,177.095 122.07,178.279 115.233,177.962 C112.63,177.841 107.013,177.8 102.75,177.871 C96.585,177.974 95,178.307 95,179.5 C95,180.692 93.545,181 87.906,181 C81.654,181 80.751,181.237 80.29,183 C79.897,184.503 78.926,185 76.383,185 C74.078,185 73,185.467 73,186.466 C73,187.467 71.433,188.139 68.053,188.587 C63.631,189.174 63.038,189.549 62.473,192.122 C61.96,194.458 61.313,195 59.037,195 C55.806,195 55.035,193.228 55.014,185.75 L55,181 L58.5,181 C60.803,181 62,180.53 62,179.625 C62,178.254 66.12,177 70.625,177 C72.069,177 73,176.412 73,175.5 C73,174.348 74.278,174 78.5,174 C82.472,174 84,173.622 84,172.639 C84,171.042 90.881,170.022 101.75,170.009 C107.524,170.002 109,169.695 109,168.5 C109,167.348 110.278,167 114.5,167 C119.333,167 120,166.758 120,165 C120,163.889 120.667,163 121.5,163 C122.325,163 123,162.283 123,161.406 C123,160.53 123.9,159.577 125,159.29 C126.435,158.914 127,157.926 127,155.79 C127,153.654 127.565,152.665 129,152.29 C130.1,152.002 131,151.144 131,150.383 C131,149.623 131.625,149 132.389,149 C133.184,149 134.058,147.505 134.434,145.5 C134.827,143.405 135.675,142 136.545,142 C137.541,142 138,140.896 138,138.5 C138,136.152 138.465,135 139.412,135 C140.28,135 141.085,133.459 141.5,131 C141.915,128.541 142.72,127 143.588,127 C144.535,127 145,125.848 145,123.5 C145,120.667 145.381,120 147,120 C148.81,120 149,119.333 149,113 L149,106 L136.5,106 C126.056,106 124,106.247 124,107.5 C124,108.638 122.766,109 118.891,109 C111.686,109 109.041,111.612 109.017,118.75 L109,124 L105.5,124 C102.083,124 102,123.905 102,120 C102,117.111 101.583,116 100.5,116 C99.675,116 99,115.325 99,114.5 C99,113.675 99.675,113 100.5,113 C101.583,113 102,111.889 102,109 C102,105.667 102.333,105 104,105 C105.111,105 106,104.333 106,103.5 C106,102.452 107.056,102 109.5,102 C111.879,102 113,101.539 113,100.56 C113,99.635 114.34,98.977 116.75,98.718 Z M91,75 C91,73.242 91.667,73 96.5,73 C100.526,73 102,73.372 102,74.389 C102,75.184 103.495,76.058 105.5,76.434 C111.073,77.48 109.976,79.839 103.75,80.198 L98.5,80.5 L98.198,85.75 C97.98,89.527 97.489,91 96.448,91 C95.218,91 95,95.291 95,119.5 C95,144.167 95.202,148 96.5,148 C97.325,148 98,148.85 98,149.889 C98,151.255 98.967,151.959 101.5,152.434 C104.548,153.006 105,153.467 105,156 C105,158.533 104.548,158.994 101.5,159.566 C99.575,159.927 96.425,159.927 94.5,159.566 C91.059,158.92 91,158.825 91,153.955 C91,150.217 90.632,149 89.5,149 C88.395,149 88,147.847 88,144.625 C88,138.259 86.948,134 85.375,134 C84.274,134 84,131.212 84,120 C84,108.222 84.238,106 85.5,106 C86.745,106 87,104.069 87,94.625 C87,81.554 87.678,77 89.625,77 C90.381,77 91,76.1 91,75 Z M114.75,51.739 C117.912,51.541 121.67,51.293 123.099,51.189 C124.529,51.085 129.133,51.29 133.331,51.645 L140.964,52.29 L141.593,55.645 C141.948,57.539 142.827,59 143.611,59 C144.532,59 145,60.18 145,62.5 C145,64.82 144.532,66 143.611,66 C142.816,66 141.942,67.495 141.566,69.5 C140.92,72.941 140.825,73 135.955,73 C132.217,73 131,72.632 131,71.5 C131,70.675 131.675,70 132.5,70 C133.333,70 134,69.111 134,68 C134,66.667 134.667,66 136,66 C137.111,66 138,65.333 138,64.5 C138,63.675 137.283,63 136.406,63 C135.53,63 134.577,62.1 134.29,61 C133.809,59.162 132.926,59 123.383,59 C115.155,59 113,59.29 113,60.399 C113,61.396 110.995,61.998 106,62.5 C101.005,63.002 99,63.604 99,64.601 C99,65.701 96.971,66 89.5,66 C82.078,66 80,66.303 80,67.383 C80,68.899 77.032,69.965 72.75,69.986 C70.978,69.995 70,70.534 70,71.5 C70,72.583 68.889,73 66,73 C63.111,73 62,72.583 62,71.5 C62,70.675 61.325,70 60.5,70 C59.667,70 59,69.111 59,68 C59,66.381 59.667,66 62.5,66 C65.833,66 66,65.833 66,62.5 L66,59 L76.45,59 C85.364,59 87.044,58.743 87.879,57.25 C88.687,55.804 90.604,55.44 98.928,55.156 C106.571,54.895 109,54.486 109,53.456 C109,52.513 110.753,51.99 114.75,51.739 Z"/>
</svg>

