<svg xmlns="http://www.w3.org/2000/svg" width="300" height="300" viewBox="0 0 300 300" version="1.1">
  <defs/>
  <path d="M147,144.5 C147,143.213 150.056,143 168.5,143 C186.944,143 190,143.213 190,144.5 C190,145.637 191.233,146 195.094,146 C199.346,146 200.274,146.33 200.71,148 C201.074,149.392 202.074,150 204,150 C205.926,150 206.926,150.608 207.29,152 C207.577,153.1 208.53,154 209.406,154 C210.521,154 211,154.93 211,157.094 C211,159.346 211.544,160.329 213,160.71 C214.656,161.143 215,162.074 215,166.117 C215,169.563 215.399,171 216.358,171 C218.094,171 219,179.277 219,195.147 C219,205.016 219.251,207 220.5,207 C221.333,207 222,207.889 222,209 C222,210.1 221.39,211 220.645,211 C219.631,211 219.149,213.568 218.727,221.228 C218.417,226.853 218.378,231.803 218.641,232.228 C218.903,232.653 221.341,233 224.059,233 C227.784,233 229,233.369 229,234.5 C229,235.325 228.325,236 227.5,236 C226.667,236 226,236.889 226,238 C226,239.758 225.333,240 220.5,240 L215,240 L215,245.5 C215,249.722 214.652,251 213.5,251 C212.675,251 212,251.648 212,252.441 C212,254.53 210.62,255.074 207.103,254.371 C204.368,253.824 204,253.35 204,250.375 C204,248.042 204.463,247 205.5,247 C206.325,247 207,246.325 207,245.5 C207,244.367 205.778,244 202,244 C198.222,244 197,244.367 197,245.5 C197,246.555 195.934,247 193.406,247 C190.654,247 189.69,247.468 189.29,249 C188.857,250.656 187.926,251 183.883,251 C180.209,251 179,251.371 179,252.5 C179,253.412 178.069,254 176.625,254 C172.12,254 168,255.254 168,256.625 C168,257.563 166.727,258 164,258 C161.211,258 160,258.43 160,259.421 C160,260.202 158.65,261.138 157,261.5 C155.35,261.862 154,262.798 154,263.579 C154,264.681 152.314,265 146.5,265 L139,265 L139,261.5 C139,259.056 139.452,258 140.5,258 C141.325,258 142,257.283 142,256.406 C142,255.53 142.9,254.577 144,254.29 C145.1,254.002 146,253.144 146,252.383 C146,251.373 147.484,251 151.5,251 C156.333,251 157,250.758 157,249 C157,247.242 157.667,247 162.5,247 C166.545,247 168,246.63 168,245.601 C168,244.604 170.005,244.002 175,243.5 C179.995,242.998 182,242.396 182,241.399 C182,240.434 183.24,240 186,240 C188.814,240 190,239.573 190,238.561 C190,237.511 191.895,236.934 197,236.431 C201.927,235.946 204,235.336 204,234.371 C204,233.617 204.9,233 206,233 C207.333,233 208,232.333 208,231 C208,229.889 208.667,229 209.5,229 C210.793,229 211,225.556 211,204 C211,183.455 210.755,179 209.625,179 C208.254,179 207,174.88 207,170.375 C207,168.931 206.412,168 205.5,168 C204.452,168 204,166.944 204,164.5 C204,161.667 203.619,161 202,161 C200.667,161 200,160.333 200,159 C200,157.381 199.333,157 196.5,157 C194.234,157 193,156.526 193,155.654 C193,154.622 189.741,154.152 179.034,153.641 C162.977,152.875 154,153.591 154,155.638 C154,156.387 153.1,157 152,157 C150.889,157 150,156.333 150,155.5 C150,154.452 148.944,154 146.5,154 L143,154 L143,182 L146.5,182 C148.791,182 150,181.528 150,180.634 C150,179.656 152.017,179.124 157.113,178.76 C161.605,178.438 164.54,177.744 165.075,176.875 C165.707,175.851 169.258,175.416 178.988,175.17 C191.524,174.853 192.151,174.934 194.509,177.17 C196.64,179.192 196.968,180.393 196.983,186.25 L197,193 L193.5,193 C190.352,193 189.999,192.724 189.986,190.25 C189.955,183.95 189.155,183 183.883,183 C180.209,183 179,183.371 179,184.5 C179,185.722 177.333,186 170,186 C163.004,186 161,186.308 161,187.383 C161,188.144 160.1,189.002 159,189.29 C157.468,189.69 157,190.654 157,193.406 C157,195.934 156.555,197 155.5,197 C154.667,197 154,196.111 154,195 C154,193.667 153.333,193 152,193 C150.889,193 150,192.333 150,191.5 C150,190.667 149.111,190 148,190 C146.181,190 146,190.667 146,197.375 C146,206.589 146.85,211 148.625,211 C149.381,211 150,210.345 150,209.545 C150,208.675 151.405,207.827 153.5,207.434 C155.505,207.058 157,206.184 157,205.389 C157,204.327 158.767,204 164.5,204 C171.333,204 172,203.822 172,202 C172,200.096 172.667,200 185.939,200 L199.877,200 L200.552,204.5 C200.923,206.975 200.923,211.025 200.552,213.5 C199.936,217.611 199.633,218 197.055,218 C194.049,218 193.041,216.191 193.014,210.75 C193,208.085 192.83,208 187.5,208 C183.278,208 182,208.348 182,209.5 C182,210.69 180.556,211 175,211 C169.541,211 168,211.32 168,212.455 C168,213.325 166.595,214.173 164.5,214.566 C162.575,214.927 161,215.797 161,216.5 C161,217.203 159.425,218.073 157.5,218.434 C155.405,218.827 154,219.675 154,220.545 C154,221.534 152.907,222 150.588,222 C147.404,222 147.132,222.259 146.52,225.881 C145.67,230.913 146.815,237 148.611,237 C149.483,237 150,238.1 150,239.955 C150,242.54 149.562,242.992 146.5,243.566 C144.495,243.942 143,244.816 143,245.611 C143,246.375 142.1,247 141,247 C139.667,247 139,246.333 139,245 C139,243.889 138.333,243 137.5,243 C136.284,243 136,241.389 136,234.5 C136,227.611 136.284,226 137.5,226 C138.333,226 139,225.111 139,224 C139,222.889 138.333,222 137.5,222 C136.278,222 136,220.333 136,213 C136,205.667 136.278,204 137.5,204 C138.333,204 139,203.111 139,202 C139,200.889 138.333,200 137.5,200 C136.282,200 135.998,198.357 135.991,191.25 C135.979,178.969 135.027,172 133.361,172 C132.314,172 132,169.924 132,163 C132,155.667 132.278,154 133.5,154 C134.583,154 135,152.889 135,150 L135,146 L141,146 C145.667,146 147,145.667 147,144.5 Z M157,57.94 C157,56.17 157.53,55.923 160.75,56.19 C164.174,56.473 164.527,56.783 164.813,59.75 C165.007,61.763 165.673,63 166.563,63 C167.354,63 168,63.9 168,65 C168,66.758 168.667,67 173.5,67 C177.457,67 179,66.62 179,65.647 C179,64.262 188.607,63 199.151,63 L204,63 L204,70.5 C204,76.396 203.689,78 202.545,78 C201.675,78 200.827,79.405 200.434,81.5 C199.451,86.739 197.192,85.93 196.414,80.061 C196.047,77.296 195.151,74.888 194.379,74.592 C193.621,74.301 193,73.374 193,72.531 C193,71.689 192.325,71 191.5,71 C190.675,71 190,71.675 190,72.5 C190,73.605 188.847,74 185.625,74 C179.259,74 175,75.052 175,76.625 C175,77.69 172.97,78 166,78 L157,78 L157,81.5 C157,83.944 156.548,85 155.5,85 C154.667,85 154,85.889 154,87 C154,88.333 153.333,89 152,89 C150.381,89 150,89.667 150,92.5 C150,94.803 149.53,96 148.625,96 C147.254,96 146,100.12 146,104.625 C146,106.069 145.412,107 144.5,107 C143.452,107 143,108.056 143,110.5 C143,113.333 142.619,114 141,114 C139.381,114 139,114.667 139,117.5 L139,121 L146.5,121 C152.258,121 154,120.675 154,119.601 C154,118.604 156.005,118.002 161,117.5 C165.995,116.998 168,116.396 168,115.399 C168,114.304 169.957,114 177,114 C185.333,114 186,113.852 186,112 C186,110.242 186.667,110 191.5,110 C195.499,110 197,109.625 197,108.625 C197,107.601 199.187,107.136 205.583,106.8 C210.546,106.54 214.468,105.861 214.883,105.19 C215.277,104.552 217.04,103.742 218.8,103.39 C221.269,102.896 222,103.095 222,104.258 C222,105.088 222.961,106.018 224.137,106.325 C226.032,106.821 226.215,107.404 225.754,111.491 C225.468,114.026 224.92,116.414 224.537,116.799 C224.153,117.185 216.225,117.642 206.919,117.816 C193.723,118.062 190,118.422 190,119.453 C190,120.386 187.924,120.892 182.941,121.173 C178.189,121.442 175.589,122.047 174.984,123.027 C174.352,124.048 171.691,124.59 166.042,124.847 C160.376,125.104 158,125.589 158,126.488 C158,127.348 155.55,127.995 150.5,128.468 C145.032,128.98 143,129.554 143,130.585 C143,131.569 141.782,132 139,132 C136.166,132 135,132.424 135,133.455 C135,134.325 133.595,135.173 131.5,135.566 C129.495,135.942 128,136.816 128,137.611 C128,138.375 127.325,139 126.5,139 C125.462,139 125,140.043 125,142.383 C125,144.926 124.503,145.897 123,146.29 C121.544,146.671 121,147.654 121,149.906 C121,151.99 120.51,153 119.5,153 C118.667,153 118,153.889 118,155 C118,156.333 117.333,157 116,157 C114.333,157 114,157.667 114,161 C114,163.834 113.576,165 112.545,165 C111.675,165 110.827,166.405 110.434,168.5 C110.058,170.505 109.184,172 108.389,172 C107.625,172 107,172.9 107,174 C107,175.1 106.361,176 105.579,176 C104.798,176 103.862,177.35 103.5,179 C103.138,180.65 102.252,182 101.532,182 C100.812,182 99.927,183.575 99.566,185.5 C99.173,187.595 98.325,189 97.455,189 C96.57,189 96,189.979 96,191.5 C96,192.993 95.428,194 94.579,194 C93.798,194 92.862,195.35 92.5,197 C92.138,198.65 91.202,200 90.421,200 C89.365,200 89,201.415 89,205.5 L89,211 L85.469,211 C83.252,211 81.723,211.559 81.362,212.5 C80.614,214.448 78,214.448 78,212.5 C78,211.675 77.325,211 76.5,211 C75.675,211 75,210.325 75,209.5 C75,208.675 75.675,208 76.5,208 C77.548,208 78,206.944 78,204.5 C78,201.964 78.439,201 79.594,201 C80.47,201 81.423,200.1 81.71,199 C81.998,197.9 82.856,197 83.617,197 C84.531,197 85,195.813 85,193.5 C85,190.667 85.381,190 87,190 C88.333,190 89,189.333 89,188 C89,186.9 89.625,186 90.389,186 C91.184,186 92.058,184.505 92.434,182.5 C92.827,180.405 93.675,179 94.545,179 C95.345,179 96,178.1 96,177 C96,175.9 96.625,175 97.389,175 C98.184,175 99.058,173.505 99.434,171.5 C99.827,169.405 100.675,168 101.545,168 C102.532,168 103,166.911 103,164.617 C103,162.074 103.497,161.103 105,160.71 C106.456,160.329 107,159.346 107,157.094 C107,155.01 107.49,154 108.5,154 C109.333,154 110,153.111 110,152 C110,150.667 110.667,150 112,150 C113.619,150 114,149.333 114,146.5 C114,143.964 114.439,143 115.594,143 C116.47,143 117.423,142.1 117.71,141 C117.998,139.9 118.856,139 119.617,139 C121.999,139 121.156,136.005 118.75,135.922 C117.513,135.879 109.533,135.767 101.017,135.672 C87.148,135.518 85.498,135.318 85.194,133.75 C84.995,132.729 85.46,132 86.31,132 C87.111,132 88.002,131.1 88.29,130 C88.751,128.236 89.654,128 95.938,128 C101.349,128 103.201,127.639 103.638,126.5 C104.105,125.284 106.446,125 115.996,125 L127.777,125 L128.434,121.5 C128.827,119.405 129.675,118 130.545,118 C131.576,118 132,116.834 132,114 C132,111.278 132.438,110 133.371,110 C134.261,110 134.975,108.246 135.406,105 C135.86,101.576 136.531,100 137.534,100 C138.55,100 139,98.897 139,96.406 C139,93.654 139.468,92.69 141,92.29 C142.503,91.897 143,90.926 143,88.383 C143,86.043 143.462,85 144.5,85 C145.325,85 146,84.325 146,83.5 Q146,82 143,82 Q140,82 140,83.5 C140,84.583 138.889,85 136,85 C132.667,85 132,85.333 132,87 C132,88.667 131.333,89 128,89 C125.266,89 124,89.437 124,90.38 C124,91.354 122.164,91.901 117.75,92.242 C114.313,92.508 111.162,92.535 110.75,92.303 C110.338,92.072 110,89.709 110,87.052 C110,82.324 110.074,82.209 113.5,81.566 C115.595,81.173 117,80.325 117,79.455 C117,78.311 118.604,78 124.5,78 C131.333,78 132,77.822 132,76 C132,74.242 132.667,74 137.5,74 C141.722,74 143,73.652 143,72.5 C143,71.452 144.056,71 146.5,71 C149.833,71 150,70.833 150,67.5 C150,64.964 150.439,64 151.594,64 C152.47,64 153.423,63.1 153.71,62 C153.998,60.9 154.856,60 155.617,60 C156.377,60 157,59.073 157,57.94 Z M128,36.5 C128,35.206 131.5,35 153.5,35 C175.5,35 179,35.206 179,36.5 C179,37.548 180.056,38 182.5,38 C185.333,38 186,38.381 186,40 C186,41.333 186.667,42 188,42 C189.629,42 190,42.667 190,45.594 C190,48.346 189.532,49.31 188,49.71 C186.487,50.106 186,51.074 186,53.69 C186,56.442 185.643,57.079 184.25,56.815 C183.027,56.583 182.407,55.357 182.19,52.742 C181.987,50.296 181.381,49 180.44,49 C179.648,49 179,48.375 179,47.611 C179,45.436 173.44,44.881 153.206,45.036 C132.326,45.196 128,45.624 128,47.532 C128,49.306 122.839,50.318 117.978,49.496 C114.249,48.866 114,48.61 114,45.412 C114,42.667 114.391,42 116,42 C117.1,42 118,41.377 118,40.617 C118,39.101 120.968,38.035 125.25,38.014 C127.022,38.005 128,37.466 128,36.5 Z"/>
</svg>

