<svg xmlns="http://www.w3.org/2000/svg" width="300" height="300" viewBox="0 0 300 300" version="1.1">
  <defs/>
  <path d="M192,65.5 C192,64.675 192.675,64 193.5,64 C194.325,64 195,64.675 195,65.5 C195,66.7 196.5,67 202.5,67 C209.333,67 210,67.178 210,69 C210,70.758 210.667,71 215.5,71 C219.526,71 221,71.372 221,72.389 C221,73.184 222.495,74.058 224.5,74.434 C227.941,75.08 228,75.175 228,80.045 C228,83.667 227.617,85 226.575,85 C225.5,85 224.978,87.207 224.446,94 C223.929,100.615 223.379,103 222.371,103 C221.494,103 220.995,104.17 220.986,106.25 C220.966,111 219.959,114 218.383,114 C217.373,114 217,115.484 217,119.5 C217,123.722 216.652,125 215.5,125 C214.379,125 213.997,126.201 213.986,129.75 C213.969,135.923 213.103,139 211.383,139 C210.373,139 210,140.484 210,144.5 C210,148.722 209.652,150 208.5,150 C207.452,150 207,151.056 207,153.5 C207,156.333 206.619,157 205,157 C203.488,157 202.997,156.329 202.986,154.25 C202.959,148.772 201.956,147 198.883,147 C196.987,147 196,147.513 196,148.5 C196,149.333 195.111,150 194,150 C192.9,150 192,150.619 192,151.375 C192,152.904 187.772,154 181.875,154 C179.097,154 178,154.425 178,155.5 C178,156.583 176.889,157 174,157 C171.261,157 170,157.436 170,158.383 C170,159.899 167.032,160.965 162.75,160.986 C161.077,160.995 160,161.544 160,162.389 C160,163.184 158.505,164.058 156.5,164.434 C154.405,164.827 153,165.675 153,166.545 C153,167.642 151.646,168 147.5,168 L142,168 L142,173 C142,176.778 142.367,178 143.5,178 C144.325,178 145,177.325 145,176.5 C145,175.667 145.889,175 147,175 C148.1,175 149,175.66 149,176.466 C149,177.469 150.576,178.14 154,178.594 C157.246,179.025 159,179.739 159,180.629 C159,181.536 160.216,182 162.594,182 C165.346,182 166.31,182.468 166.71,184 C167.198,185.864 168.074,186 179.617,186 C191.333,186 192,185.892 192,184 C192,182.333 192.667,182 196,182 C198.889,182 200,181.583 200,180.5 C200,179.534 200.978,178.995 202.75,178.986 C207.032,178.965 210,177.899 210,176.383 C210,175.469 211.187,175 213.5,175 C215.944,175 217,174.548 217,173.5 C217,172.379 218.201,171.997 221.75,171.986 C227.923,171.969 231,171.103 231,169.383 C231,168.436 232.261,168 235,168 C238.853,168 239,168.12 239,171.278 C239,173.318 238.245,175.202 237,176.268 C235.9,177.21 235,178.832 235,179.874 C235,180.926 234.112,181.999 233,182.29 C231.9,182.577 231,183.53 231,184.406 C231,185.283 230.325,186 229.5,186 C228.675,186 228,186.623 228,187.383 C228,188.144 227.1,189.002 226,189.29 C224.9,189.577 224,190.53 224,191.406 C224,192.283 223.425,193 222.722,193 C222.019,193 220.674,193.9 219.732,195 C218.79,196.1 217.115,197 216.01,197 C214.38,197 214,197.661 214,200.5 L214,204 L221,204 C226.306,204 228,204.336 228,205.389 C228,206.184 229.495,207.058 231.5,207.434 C233.595,207.827 235,208.675 235,209.545 C235,210.576 236.166,211 239,211 C241.834,211 243,211.424 243,212.455 C243,213.325 244.405,214.173 246.5,214.566 C248.505,214.942 250,215.816 250,216.611 C250,217.611 251.4,218 255,218 L260,218 L260,226 L255.25,225.986 C249.077,225.969 246,225.103 246,223.383 C246,222.436 244.739,222 242,222 C239.261,222 238,221.564 238,220.617 C238,219.101 235.032,218.035 230.75,218.014 C229.077,218.005 228,217.456 228,216.611 C228,215.816 226.505,214.942 224.5,214.566 C222.405,214.173 221,213.325 221,212.455 C221,211.275 219.059,211.003 210.75,211.014 C199.243,211.029 196,211.601 196,213.617 C196,214.377 195.1,215 194,215 C192.9,215 192,215.655 192,216.455 C192,217.325 190.595,218.173 188.5,218.566 C186.495,218.942 185,219.816 185,220.611 C185,221.375 184.1,222 183,222 C181.9,222 181,222.655 181,223.455 C181,224.325 179.595,225.173 177.5,225.566 C175.495,225.942 174,226.816 174,227.611 C174,228.532 172.82,229 170.5,229 C167.667,229 167,229.381 167,231 C167,232.758 166.333,233 161.5,233 C157.278,233 156,233.348 156,234.5 C156,235.333 155.111,236 154,236 C152.889,236 152,235.333 152,234.5 C152,233.31 150.556,233 145,233 C138.667,233 138,232.81 138,231 C138,229.9 137.377,229 136.617,229 C135.101,229 134.035,226.032 134.014,221.75 C134.005,219.978 133.466,219 132.5,219 C131.21,219 130.998,215.744 130.986,195.75 C130.972,171.402 130.653,168 128.383,168 C126.235,168 126.755,164.877 129,164.29 C130.932,163.784 131,162.926 131,138.883 C131,117.431 131.207,114 132.5,114 C133.548,114 134,112.944 134,110.5 C134,107.667 134.381,107 136,107 C137.333,107 138,106.333 138,105 C138,103.148 138.667,103 147,103 C155.333,103 156,103.148 156,105 C156,106.667 155.333,107 152,107 C149.111,107 148,107.417 148,108.5 C148,109.325 147.325,110 146.5,110 C145.667,110 145,110.889 145,112 C145,113.111 144.333,114 143.5,114 C142.535,114 141.993,114.981 141.979,116.75 C141.968,118.263 141.687,127.938 141.355,138.25 L140.752,157 L146.376,157 C150.481,157 152,156.629 152,155.625 C152,154.254 156.12,153 160.625,153 C162.069,153 163,152.412 163,151.5 C163,150.417 164.111,150 167,150 C169.739,150 171,149.564 171,148.617 C171,146.897 174.077,146.031 180.25,146.014 C183.799,146.003 185,145.621 185,144.5 C185,143.534 185.978,142.995 187.75,142.986 C192.032,142.965 195,141.899 195,140.383 C195,139.436 196.261,139 199,139 C202.905,139 203,138.917 203,135.5 C203,133.056 203.452,132 204.5,132 C205.738,132 206,130.167 206,121.5 L206,111 L202.5,111 C200.056,111 199,111.452 199,112.5 C199,113.69 197.556,114 192,114 C185.667,114 185,114.19 185,116 C185,117.619 184.333,118 181.5,118 C179.056,118 178,118.452 178,119.5 C178,120.333 177.111,121 176,121 C174.242,121 174,121.667 174,126.5 C174,131.333 173.758,132 172,132 C170.9,132 170,131.345 170,130.545 C170,129.675 168.595,128.827 166.5,128.434 C163.459,127.864 163,127.398 163,124.889 C163,122.988 162.487,122 161.5,122 C159.257,122 159.686,118.315 162,117.71 C163.1,117.423 164,116.47 164,115.594 C164,114.348 165.092,114 169,114 C173.333,114 174,113.733 174,112 C174,110.381 174.667,110 177.5,110 C179.944,110 181,109.548 181,108.5 C181,107.348 182.278,107 186.5,107 C190.516,107 192,106.627 192,105.617 C192,103.66 195.209,103.029 205.25,103.014 L214,103 L214,96 C214,90.444 214.31,89 215.5,89 C216.548,89 217,87.944 217,85.5 C217,83.056 216.548,82 215.5,82 C214.667,82 214,81.111 214,80 C214,78.222 213.333,78 208,78 C203.333,78 202,77.667 202,76.5 C202,75.321 200.611,75 195.5,75 C190.389,75 189,75.321 189,76.5 C189,77.433 188.056,78 186.5,78 C184.944,78 184,78.567 184,79.5 C184,80.325 183.325,81 182.5,81 C181.675,81 181,80.325 181,79.5 C181,78.675 180.377,78 179.617,78 C178.041,78 177.034,75 177.014,70.25 L177,67 L184.5,67 C190.5,67 192,66.7 192,65.5 Z M65,85.726 C65.825,85.413 72.912,85.122 80.75,85.079 C94.36,85.004 95,85.09 95,87 C95,88.111 95.667,89 96.5,89 C97.325,89 98,89.717 98,90.594 C98,91.47 98.9,92.423 100,92.71 C101.503,93.103 102,94.074 102,96.617 C102,98.911 102.468,100 103.455,100 C104.325,100 105.173,101.405 105.566,103.5 C105.927,105.425 106.789,107 107.481,107 C108.237,107 108.949,108.857 109.264,111.651 C109.58,114.449 110.428,116.66 111.394,117.201 C112.385,117.755 113,119.421 113,121.55 C113,123.95 113.456,125 114.5,125 C114.791,125 115.035,124.992 115.239,125.078 C116.292,125.517 116.317,128.42 116.584,147.5 C116.902,170.197 116.291,179 114.399,179 C113.37,179 113,180.455 113,184.5 C113,188.516 113.373,190 114.383,190 C115.669,190 116.955,192.84 116.986,195.75 C116.994,196.438 116.1,197 115,197 C113.889,197 113,197.667 113,198.5 C113,199.333 112.111,200 111,200 C109.667,200 109,200.667 109,202 C109,203.111 108.333,204 107.5,204 C106.363,204 106,205.233 106,209.094 C106,213.346 105.67,214.274 104,214.71 C102.9,214.998 102,215.856 102,216.617 C102,217.377 101.1,218 100,218 C98.889,218 98,217.333 98,216.5 C98,215.675 97.325,215 96.5,215 C95.667,215 95,214.111 95,213 C95,211.889 95.667,211 96.5,211 C97.548,211 98,209.944 98,207.5 C98,204.667 98.381,204 100,204 C102.743,204 102.535,201.335 99.75,200.803 C98.513,200.567 94.463,200.567 90.75,200.803 C85.876,201.113 84,201.618 84,202.616 C84,203.692 81.997,204 75,204 L66,204 L66,200.617 C66,198.074 66.497,197.103 68,196.71 C69.1,196.423 70,195.47 70,194.594 C70,193.202 72.027,193 86,193 C101.333,193 102,192.917 102,191 C102,189.9 102.607,189 103.35,189 C104.347,189 104.864,186.456 105.33,179.25 C106.206,165.71 105.935,165 99.883,165 C96.209,165 95,165.371 95,166.5 C95,167.652 93.722,168 89.5,168 C85.354,168 84,168.358 84,169.455 C84,170.325 82.595,171.173 80.5,171.566 C78.495,171.942 77,172.816 77,173.611 C77,174.375 76.1,175 75,175 C73.667,175 73,175.667 73,177 C73,178.758 72.333,179 67.5,179 C63.278,179 62,178.652 62,177.5 C62,176.675 61.325,176 60.5,176 C59.667,176 59,175.111 59,174 C59,172.889 59.667,172 60.5,172 C61.333,172 62,171.111 62,170 C62,168.333 62.667,168 66,168 C69.333,168 70,167.667 70,166 C70,164.267 70.667,164 75,164 C78.778,164 80,163.633 80,162.5 C80,161.445 81.066,161 83.594,161 C86.346,161 87.31,160.532 87.71,159 C88.18,157.204 89.074,157 96.492,157 L104.75,157 L105.375,153.875 C106.167,149.917 106.158,143.964 105.352,137.25 L104.721,132 L99.361,132 C95.262,132 94,132.353 94,133.5 C94,134.466 93.022,135.005 91.25,135.014 C85.505,135.042 84,135.998 84,139.617 C84,142.333 83.606,143 82,143 C80.667,143 80,142.333 80,141 C80,139.381 79.333,139 76.5,139 C73.667,139 73,138.619 73,137 C73,135.889 72.333,135 71.5,135 C70.675,135 70,134.325 70,133.5 C70,132.675 70.675,132 71.5,132 C72.333,132 73,131.111 73,130 C73,128.667 73.667,128 75,128 C76.1,128 77,127.385 77,126.634 C77,125.656 79.017,125.124 84.113,124.76 C88.561,124.442 91.566,123.735 92.132,122.875 C92.874,121.747 93.222,121.815 94.068,123.25 C94.734,124.379 96.323,125 98.55,125 L102,125 L102,119.5 C102,114.667 101.758,114 100,114 C98.381,114 98,113.333 98,110.5 C98,108.056 97.548,107 96.5,107 C95.452,107 95,105.944 95,103.5 C95,100.667 94.619,100 93,100 C91.667,100 91,99.333 91,98 C91,96.667 90.333,96 89,96 C87.889,96 87,95.333 87,94.5 C87,93.284 85.389,93 78.5,93 C71.611,93 70,93.284 70,94.5 C70,95.333 69.111,96 68,96 C66.667,96 66,96.667 66,98 C66,99.333 65.333,100 64,100 C62.889,100 62,100.667 62,101.5 C62,102.325 61.325,103 60.5,103 C59.667,103 59,103.889 59,105 C59,106.1 58.374,107 57.608,107 C56.843,107 55.971,108.013 55.671,109.25 C55.371,110.487 55.081,130.55 55.026,153.834 C54.927,195.624 54.952,196.175 56.963,196.701 C58.694,197.153 59,198.042 59,202.617 C59,207.333 58.752,208 57,208 C55.889,208 55,208.667 55,209.5 C55,210.325 54.325,211 53.5,211 C52.675,211 52,210.325 52,209.5 C52,208.667 51.111,208 50,208 C48.092,208 48,207.333 48,193.5 C48,181.683 47.739,179 46.589,179 C44.722,179 44.405,172.544 44.857,143.75 C45.149,125.142 45.468,121 46.607,121 C47.532,121 48,119.825 48,117.5 C48,115.187 47.531,114 46.617,114 C45.041,114 44.034,111 44.014,106.25 C44.004,104.034 43.523,103 42.5,103 C41.675,103 41,102.325 41,101.5 C41,100.675 41.675,100 42.5,100 C43.333,100 44,99.111 44,98 C44,96.667 44.667,96 46,96 C47.333,96 48,95.333 48,94 C48,92.381 48.667,92 51.5,92 C53.944,92 55,91.548 55,90.5 C55,89.456 56.05,89 58.45,89 C60.348,89 62.26,88.391 62.7,87.647 C63.14,86.902 64.175,86.038 65,85.726 Z M141.348,196.656 C141.707,202.516 142,209.941 142,213.156 C142,217.684 142.338,219 143.5,219 C144.503,219 145,220.003 145,222.031 C145,225.94 146.352,226.389 155.522,225.53 C160.972,225.019 163,224.446 163,223.415 C163,222.474 164.133,222 166.383,222 C168.926,222 169.897,221.503 170.29,220 C170.69,218.468 171.654,218 174.406,218 C176.845,218 178,217.543 178,216.579 C178,215.798 179.312,214.871 180.916,214.518 C182.521,214.166 184.081,213.23 184.385,212.439 C184.689,211.648 185.851,211 186.969,211 C188.086,211 189,210.361 189,209.579 C189,208.798 190.35,207.862 192,207.5 C196.283,206.559 195.918,204 191.5,204 C189.187,204 188,203.531 188,202.617 C188,200.897 184.923,200.031 178.75,200.014 C175.201,200.003 174,199.621 174,198.5 C174,197.363 172.767,197 168.906,197 C164.654,197 163.726,196.67 163.29,195 C162.897,193.497 161.926,193 159.383,193 C157.043,193 156,192.538 156,191.5 C156,190.534 155.022,189.995 153.25,189.986 C148.968,189.965 146,188.899 146,187.383 C146,186.553 144.939,186 143.348,186 L140.696,186 Z M214,184 C214,185.758 213.333,186 208.5,186 C204.5,186 203,186.375 203,187.375 C203,188.746 198.88,190 194.375,190 C191.478,190 191.186,192.554 194,193.29 C195.1,193.577 196,194.53 196,195.406 C196,196.656 197.1,197 201.094,197 C205.346,197 206.274,196.67 206.71,195 C206.998,193.9 207.856,193 208.617,193 C209.377,193 210,192.375 210,191.611 C210,190.816 211.495,189.942 213.5,189.566 C216.698,188.966 217,188.611 217,185.455 C217,183.051 216.544,182 215.5,182 C214.667,182 214,182.889 214,184 Z"/>
</svg>

