<svg xmlns="http://www.w3.org/2000/svg" width="300" height="300" viewBox="0 0 300 300" version="1.1">
  <defs/>
  <path d="M63.75,51.675 C65.813,51.43 69.75,51.399 72.5,51.606 C75.25,51.813 79.862,51.987 82.75,51.991 C86.53,51.998 88,52.385 88,53.373 C88,54.294 89.688,54.908 93.135,55.239 C96.456,55.558 98.594,56.31 99.185,57.366 C99.688,58.265 100.752,59 101.55,59 C102.347,59 103,59.625 103,60.389 C103,61.178 104.478,62.055 106.428,62.42 C109.196,62.94 109.98,63.634 110.507,66.032 C110.866,67.664 111.798,69 112.579,69 C113.527,69 114,70.127 114,72.383 C114,74.926 114.497,75.897 116,76.29 C117.655,76.723 117.998,77.647 117.986,81.656 C117.969,87.919 117.11,91 115.383,91 C114.436,91 114,92.261 114,95 C114,97.789 113.57,99 112.579,99 C111.798,99 110.872,100.304 110.522,101.898 C109.802,105.179 107.921,105.966 100.75,105.986 C97.402,105.996 96,106.404 96,107.37 C96,108.258 94.365,108.924 91.349,109.264 C88.551,109.58 86.34,110.428 85.799,111.394 C85.245,112.385 83.579,113 81.45,113 C78.667,113 78,112.614 78,111 C78,109.667 78.667,109 80,109 C81.1,109 82,108.345 82,107.545 C82,106.675 83.405,105.827 85.5,105.434 C87.505,105.058 89,104.184 89,103.389 C89,102.625 89.9,102 91,102 C92.1,102 93,101.361 93,100.579 C93,99.798 94.308,98.872 95.906,98.521 C100.141,97.59 101.486,91 97.441,91 C96.648,91 96,91.623 96,92.383 C96,93.885 93.04,94.965 88.867,94.986 C87.081,94.996 86.065,95.644 85.71,97 C85.31,98.532 84.346,99 81.594,99 C79.066,99 78,99.445 78,100.5 C78,101.333 77.111,102 76,102 C74.9,102 74,102.623 74,103.383 C74,104.899 71.032,105.965 66.75,105.986 C64.206,105.999 64,105.7 64,102 C64,99.111 64.417,98 65.5,98 C66.325,98 67,97.325 67,96.5 C67,95.667 67.889,95 69,95 C70.333,95 71,94.333 71,93 C71,91.242 71.667,91 76.5,91 C80.493,91 82,90.624 82,89.629 C82,88.739 83.754,88.025 87,87.594 C90.424,87.14 92,86.469 92,85.466 C92,84.422 93.153,84 96,84 C98.889,84 100,83.583 100,82.5 C100,81.675 100.675,81 101.5,81 C102.325,81 103,81.675 103,82.5 C103,84.854 105.699,84.253 106.37,81.75 C107.611,77.117 107.08,73.834 105,73.29 C103.9,73.002 103,72.197 103,71.5 C103,70.803 102.1,69.998 101,69.71 C99.9,69.423 99,68.47 99,67.594 C99,66.348 97.908,66 94,66 C90.424,66 89,65.608 89,64.625 C89,62.934 84.654,62 76.781,62 C71.654,62 70.739,62.282 70.29,64 C69.837,65.731 68.926,66 63.508,66 L57.25,66 L56.59,69.25 C56.228,71.037 56.239,81.388 56.617,92.25 C57.157,107.817 57.588,112 58.651,112 C59.393,112 60,112.9 60,114 C60,115.758 60.667,116 65.5,116 C69.722,116 71,115.652 71,114.5 C71,113.452 72.056,113 74.5,113 C76.944,113 78,113.452 78,114.5 C78,115.769 80.423,116.002 93.75,116.014 C102.412,116.021 110.513,116.299 111.75,116.63 C114.537,117.377 114.731,120 112,120 C110.633,120 110,120.667 110,122.107 C110,124.068 109.535,124.194 103.25,123.935 C99.537,123.781 92.338,123.734 87.25,123.828 L78,124 L78,127.5 C78,130.811 77.817,131 74.611,131 C71.53,131 71.163,131.318 70.566,134.5 C70.173,136.595 69.325,138 68.455,138 C67.655,138 67,138.9 67,140 C67,141.1 66.345,142 65.545,142 C64.675,142 63.827,143.405 63.434,145.5 C63.058,147.505 62.184,149 61.389,149 C60.625,149 60,149.9 60,151 C60,152.1 59.361,153 58.579,153 C57.798,153 56.862,154.35 56.5,156 C56.138,157.65 55.202,159 54.421,159 C53.639,159 53,159.9 53,161 C53,162.333 52.333,163 51,163 C49.667,163 49,163.667 49,165 C49,166.111 48.333,167 47.5,167 C46.452,167 46,168.056 46,170.5 C46,173.333 46.381,174 48,174 C49.1,174 50,173.388 50,172.639 C50,171.15 56.745,170.024 65.75,170.009 C69.571,170.002 71,169.62 71,168.605 C71,167.484 74.153,167.14 87.037,166.855 C99.94,166.569 103.254,166.207 103.998,165 C104.749,163.784 108.123,163.441 121.851,163.186 L138.778,162.871 L139.139,166.686 C139.337,168.783 139.36,182.538 139.189,197.25 C138.929,219.717 138.648,224 137.439,224 C136.309,224 136,225.689 136,231.875 C136,241.568 135.176,246 133.375,246 C132.619,246 132,246.623 132,247.383 C132,249.322 128.801,249.971 119.156,249.986 C111.648,249.999 110.76,249.8 110.29,248 C110,246.893 108.926,246 107.883,246 C106.848,246 106,245.361 106,244.579 C106,243.798 104.65,242.862 103,242.5 C101.35,242.138 100,241.202 100,240.421 C100,239.279 97.838,239 89,239 C79.889,239 78,239.258 78,240.5 C78,241.605 76.847,242 73.625,242 C67.259,242 63,243.052 63,244.625 C63,245.608 61.576,246 58,246 C54.424,246 53,246.392 53,247.375 C53,248.948 48.741,250 42.375,250 C39.153,250 38,250.395 38,251.5 C38,252.495 37.005,253 35.045,253 C32.46,253 32.008,252.562 31.434,249.5 C31.073,247.575 30.202,246 29.499,246 C28.525,246 28.049,240.937 27.494,224.669 C26.726,202.121 27.228,195 29.588,195 C30.365,195 31,194.325 31,193.5 C31,192.452 32.056,192 34.5,192 C37.833,192 38,192.167 38,195.5 C38,197.944 37.548,199 36.5,199 C35.221,199 35,201.722 35,217.5 C35,233.278 35.221,236 36.5,236 C37.325,236 38,236.675 38,237.5 C38,238.687 39.411,238.997 44.75,238.986 C48.462,238.979 52.512,238.701 53.75,238.37 C56.275,237.693 56.811,236 54.5,236 C53.333,236 53,234.667 53,230 C53,225.333 53.333,224 54.5,224 C55.466,224 56.005,223.022 56.014,221.25 C56.035,216.968 57.101,214 58.617,214 C59.377,214 60,213.1 60,212 C60,210.9 60.655,210 61.455,210 C62.325,210 63.173,208.595 63.566,206.5 C63.942,204.495 64.816,203 65.611,203 C66.375,203 67,202.1 67,201 C67,199.667 67.667,199 69,199 C70.333,199 71,198.333 71,197 C71,195.889 71.667,195 72.5,195 C73.325,195 74,194.325 74,193.5 C74,192.667 74.889,192 76,192 C77.333,192 78,191.333 78,190 C78,188.667 78.667,188 80,188 C81.111,188 82,187.333 82,186.5 C82,185.452 83.056,185 85.5,185 C87.944,185 89,185.452 89,186.5 C89,187.325 89.675,188 90.5,188 C91.333,188 92,188.889 92,190 C92,191.538 91.333,192 89.117,192 C87.074,192 86.081,192.583 85.71,194 C85.397,195.197 84.346,196 83.094,196 C81.899,196 81,196.644 81,197.5 C81,198.325 80.325,199 79.5,199 C78.671,199 78,199.887 78,200.984 C78,202.896 78.695,202.966 97.085,202.903 C107.582,202.867 116.353,203.019 116.575,203.242 C116.797,203.464 117.265,205.076 117.615,206.823 L118.25,210 L96,210 L96,213.5 C96,215.848 96.465,217 97.412,217 C98.28,217 99.085,218.541 99.5,221 C99.915,223.459 100.72,225 101.588,225 C102.478,225 103,226.067 103,227.883 C103,229.926 103.583,230.919 105,231.29 C106.448,231.668 107,232.654 107,234.861 C107,237.553 107.409,237.986 110.5,238.566 C112.505,238.942 114,239.816 114,240.611 C114,241.628 115.474,242 119.5,242 C123.722,242 125,241.652 125,240.5 C125,239.675 125.605,239 126.343,239 C127.741,239 128.989,219.595 128.997,197.75 C128.999,189.751 129.269,188 130.5,188 C131.716,188 132,186.389 132,179.5 L132,171 L121,171 C111.889,171 110,171.258 110,172.5 C110,173.782 107.18,174 90.617,174 C72.074,174 71.211,174.087 70.71,176 C70.254,177.745 69.346,178 63.594,178 C58.399,178 57,178.318 57,179.5 C57,180.7 55.5,181 49.5,181 C42.667,181 42,181.178 42,183 C42,184.81 41.333,185 35,185 L28,185 L28,181.5 C28,179.056 28.452,178 29.5,178 C30.333,178 31,177.111 31,176 C31,174.667 31.667,174 33,174 C34.333,174 35,173.333 35,172 C35,170.9 35.639,170 36.421,170 C37.202,170 38.138,168.65 38.5,167 C38.862,165.35 39.798,164 40.579,164 C41.361,164 42,163.1 42,162 C42,160.889 42.667,160 43.5,160 C44.333,160 45,159.111 45,158 C45,156.667 45.667,156 47,156 C48.606,156 49,155.333 49,152.617 C49,150.074 49.497,149.103 51,148.71 C52.456,148.329 53,147.346 53,145.094 C53,143.01 53.49,142 54.5,142 C55.333,142 56,141.111 56,140 C56,138.667 56.667,138 58,138 C59.333,138 60,137.333 60,136 C60,134.889 60.667,134 61.5,134 C62.325,134 63,133.325 63,132.5 C63,131.262 61.167,131 52.5,131 L42,131 L42,120 L47,120 C50.647,120 52,119.617 52,118.583 C52,117.804 51.438,116.98 50.75,116.751 C49.815,116.44 49.419,110.88 49.179,94.668 C48.913,76.703 48.613,73 47.429,73 C46.326,73 46,71.401 46,66 C46,60.444 46.31,59 47.5,59 C48.333,59 49,58.111 49,57 C49,55.242 49.667,55 54.5,55 C58.62,55 60,54.639 60,53.56 C60,52.643 61.36,51.959 63.75,51.675 Z M189,121.5 C189,120.352 190.265,120 194.383,120 C199.46,120 199.797,120.157 200.3,122.75 C201.046,126.59 200.016,131 198.375,131 C197.619,131 197,131.9 197,133 C197,134.1 196.377,135 195.617,135 C193.553,135 193.029,138.272 193.014,151.25 C193.002,161.022 192.747,163 191.5,163 C190.395,163 190,164.153 190,167.375 C190,173.741 188.948,178 187.375,178 C186.339,178 186,179.727 186,185 L186,192 L189.5,192 C191.82,192 193,192.468 193,193.389 C193,194.184 194.495,195.058 196.5,195.434 C198.437,195.797 200,196.69 200,197.434 C200,198.173 201.532,199.065 203.403,199.416 C205.275,199.767 207.061,200.717 207.372,201.527 C207.683,202.337 208.851,203 209.969,203 C211.108,203 212,203.659 212,204.5 C212,205.466 212.978,206.005 214.75,206.014 C219.032,206.035 222,207.101 222,208.617 C222,209.606 223.392,210 226.883,210 C230.926,210 231.857,210.344 232.29,212 C232.69,213.532 233.654,214 236.406,214 C238.934,214 240,214.445 240,215.5 C240,216.548 241.056,217 243.5,217 C246.333,217 247,217.381 247,219 C247,220.667 247.667,221 251,221 C253.72,221 255,221.438 255,222.37 C255,223.255 256.62,223.922 259.578,224.256 C265.925,224.971 267.781,224.274 268.522,220.898 C268.872,219.304 269.749,218 270.471,218 C272.397,218 273.171,222.37 272.42,229.006 C271.841,234.121 271.455,234.92 269.296,235.462 C265.507,236.413 255,234.958 255,233.482 C255,232.789 253.425,231.927 251.5,231.566 C249.405,231.173 248,230.325 248,229.455 C248,228.424 246.834,228 244,228 C241.166,228 240,227.576 240,226.545 C240,225.675 238.595,224.827 236.5,224.434 C234.495,224.058 233,223.184 233,222.389 C233,221.491 231.85,220.995 229.75,220.986 C225,220.966 222,219.959 222,218.383 C222,217.469 220.813,217 218.5,217 C216.056,217 215,216.548 215,215.5 C215,214.588 214.069,214 212.625,214 C208.12,214 204,212.746 204,211.375 C204,210.619 203.1,210 202,210 C200.9,210 200,209.345 200,208.545 C200,207.675 198.595,206.827 196.5,206.434 C194.575,206.073 193,205.203 193,204.5 C193,203.797 191.425,202.927 189.5,202.566 C187.405,202.173 186,201.325 186,200.455 C186,199.459 184.896,199 182.5,199 L179,199 L179,204.5 C179,209.333 178.758,210 177,210 C175.333,210 175,210.667 175,214 C175,216.889 174.583,218 173.5,218 C172.534,218 171.995,218.978 171.986,220.75 C171.965,225.032 170.899,228 169.383,228 C168.478,228 168,229.169 168,231.383 C168,233.926 167.503,234.897 166,235.29 C164.9,235.577 164,236.579 164,237.515 C164,238.871 163.443,239.077 161.26,238.529 C157.803,237.662 157.034,236.433 157.015,231.75 C157.003,228.662 157.353,228 159,228 C160.619,228 161,227.333 161,224.5 C161,222.18 161.468,221 162.389,221 C163.184,221 164.058,219.505 164.434,217.5 C164.827,215.405 165.675,214 166.545,214 C167.642,214 168,212.646 168,208.5 C168,204.43 168.367,203 169.412,203 C170.28,203 171.085,201.459 171.5,199 C171.915,196.541 172.72,195 173.588,195 C174.616,195 175,193.639 175,190 C175,186.41 175.39,185 176.383,185 C178.142,185 178.969,181.902 178.986,175.25 C178.997,171.256 179.359,170 180.5,170 C181.597,170 182.002,168.858 182.006,165.75 C182.021,155.141 183.312,145 184.648,145 C185.702,145 186,142.575 186,134 C186,124.889 186.258,123 187.5,123 C188.325,123 189,122.325 189,121.5 Z M151.75,73.689 C153.737,73.17 154.972,72.814 155.739,73.261 C157.038,74.017 157,77.066 157,85.5 C157,95.944 156.753,98 155.5,98 C154.311,98 154,99.436 154,104.921 C154,111.786 154.024,111.846 156.978,112.495 C161.282,113.441 170.763,112.059 171.403,110.393 C171.789,109.385 173.881,109 178.969,109 C184.552,109 186,108.691 186,107.5 C186,106.588 186.931,106 188.375,106 C192.88,106 197,104.746 197,103.375 C197,102.47 198.197,102 200.5,102 C202.803,102 204,101.53 204,100.625 C204,99.254 208.12,98 212.625,98 C214.069,98 215,97.412 215,96.5 C215,95.263 216.819,95 225.375,95 L235.75,95 L236.278,97.75 C236.568,99.263 236.69,109.05 236.55,119.5 C236.203,145.326 236.181,148.55 235.112,148.946 C234.938,149.01 234.736,149 234.5,149 C233.452,149 233,150.056 233,152.5 C233,154.932 232.546,156 231.512,156 C230.549,156 229.798,157.412 229.384,160 C228.998,162.413 228.2,164 227.372,164 C226.617,164 226,164.675 226,165.5 C226,166.333 225.111,167 224,167 C222.889,167 222,167.667 222,168.5 C222,170.987 219.263,170.185 218.589,167.5 C217.753,164.169 218.876,160 220.608,160 C221.374,160 222,159.1 222,158 C222,156.9 222.619,156 223.375,156 C224.904,156 226,151.772 226,145.875 C226,143.097 226.425,142 227.5,142 C228.652,142 229,140.722 229,136.5 C229,132.278 228.652,131 227.5,131 C226.249,131 225.998,128.966 225.986,118.75 C225.969,103.374 225.633,102 221.883,102 C220.104,102 219,102.526 219,103.375 C219,104.746 214.88,106 210.375,106 C208.931,106 208,106.588 208,107.5 C208,108.555 206.934,109 204.406,109 C201.654,109 200.69,109.468 200.29,111 C199.857,112.656 198.926,113 194.883,113 C191.209,113 190,113.371 190,114.5 C190,115.486 189.014,116 187.125,116 C182.159,116 178,117.196 178,118.625 C178,119.734 174.909,120 162,120 L146,120 L146,106.147 C146,88.371 146.846,80 148.642,80 C149.477,80 150,78.872 150,77.073 C150,75.127 150.586,73.993 151.75,73.689 Z M85,211.361 C85,212.751 78.378,213.974 70.75,213.991 C67.252,213.999 67,214.202 67,217 Q67,220 65.5,220 C64.644,220 64,220.899 64,222.094 C64,223.346 63.197,224.397 62,224.71 C60.497,225.103 60,226.074 60,228.617 C60,230.957 59.538,232 58.5,232 C57.675,232 57,232.675 57,233.5 C57,234.633 58.222,235 62,235 C65.534,235 67,234.604 67,233.648 C67,232.217 77.327,231.018 89.75,231.006 L96,231 L96,226 C96,222.424 95.608,221 94.625,221 C92.985,221 91.765,215.784 92.614,212.402 C93.177,210.158 92.947,210 89.108,210 C86.31,210 85,210.434 85,211.361 Z"/>
</svg>

