<svg xmlns="http://www.w3.org/2000/svg" width="300" height="300" viewBox="0 0 300 300" version="1.1">
  <defs/>
  <path d="M194.75,80.689 C195.713,80.438 203.813,80.18 212.75,80.116 L229,80 L229,87.5 C229,93.5 228.7,95 227.5,95 C226.675,95 226,95.675 226,96.5 C226,97.333 225.111,98 224,98 C222.267,98 222,97.333 222,93 L222,88 L211,88 C201.889,88 200,88.258 200,89.5 C200,90.69 198.556,91 193,91 C186.667,91 186,91.19 186,93 C186,94.822 185.333,95 178.5,95 C172.5,95 171,95.3 171,96.5 C171,97.325 170.325,98 169.5,98 C168.333,98 168,99.333 168,104 C168,109.333 167.778,110 166,110 C163.727,110 163.657,110.639 164.647,122.349 C165.107,127.796 165.683,130 166.647,130 C167.391,130 168,130.9 168,132 C168,135.461 170.861,134.258 171.566,130.5 C171.942,128.495 172.816,127 173.611,127 C174.375,127 175,126.375 175,125.611 C175,124.816 176.495,123.942 178.5,123.566 C180.595,123.173 182,122.325 182,121.455 C182,120.424 183.166,120 186,120 C188.739,120 190,119.564 190,118.617 C190,116.759 193.152,116.03 201.25,116.014 C206.577,116.003 208,115.684 208,114.5 C208,113.675 208.675,113 209.5,113 C210.325,113 211,113.675 211,114.5 C211,115.523 212.034,116.004 214.25,116.014 C221.539,116.044 222,116.526 222,124.117 C222,129.473 221.677,131 220.545,131 C219.675,131 218.827,132.405 218.434,134.5 C218.058,136.505 217.184,138 216.389,138 C215.625,138 215,138.717 215,139.594 C215,140.47 214.1,141.423 213,141.71 C211.9,141.998 211,142.856 211,143.617 C211,144.377 210.325,145 209.5,145 C208.667,145 208,145.889 208,147 C208,148.333 207.333,149 206,149 C204.667,149 204,149.667 204,151 C204,152.333 203.333,153 202,153 C200.889,153 200,153.667 200,154.5 Q200,156 197,156 C194.238,156 194,156.278 194,159.5 C194,161.425 194.45,163 195,163 C195.55,163 196,162.383 196,161.629 C196,159.839 207.666,158.637 215.949,159.574 L222,160.258 L222,165.129 C222,169.333 221.726,170 220,170 C218.889,170 218,169.333 218,168.5 C218,167.31 216.556,167 211,167 C205.444,167 204,167.31 204,168.5 C204,169.727 202.292,170 194.625,170 C181.158,170 179,170.57 179,174.125 C179,176.744 178.688,177 175.5,177 C172.667,177 172,177.381 172,179 C172,180.111 172.667,181 173.5,181 C174.333,181 175,181.889 175,183 C175,184.333 175.667,185 177,185 C178.111,185 179,185.667 179,186.5 C179,187.548 180.056,188 182.5,188 C184.944,188 186,187.548 186,186.5 C186,185.477 187.034,184.996 189.25,184.986 C194,184.966 197,183.959 197,182.383 C197,181.469 198.187,181 200.5,181 C202.944,181 204,180.548 204,179.5 C204,178.484 205.13,177.946 207.5,177.833 C209.425,177.742 211.781,177.629 212.736,177.583 C213.691,177.537 214.624,178.287 214.81,179.25 C215.043,180.462 214.51,181 213.073,181 C211.926,181 211,181.65 211,182.455 C211,183.325 209.595,184.173 207.5,184.566 C205.575,184.927 204,185.797 204,186.5 C204,187.203 202.425,188.073 200.5,188.434 C198.405,188.827 197,189.675 197,190.545 C197,191.744 194.709,192 184,192 C173.291,192 171,191.744 171,190.545 C171,189.675 169.595,188.827 167.5,188.434 C165.495,188.058 164,187.184 164,186.389 C164,185.625 163.325,185 162.5,185 C161.3,185 161,183.5 161,177.5 C161,171.5 161.3,170 162.5,170 C163.51,170 164,168.99 164,166.906 C164,164.654 164.544,163.671 166,163.29 C167.503,162.897 168,161.926 168,159.383 C168,157.136 167.526,156 166.588,156 C165.72,156 164.915,154.459 164.5,152 C164.085,149.541 163.28,148 162.412,148 C161.384,148 161,146.639 161,143 C161,138.667 160.733,138 159,138 C157.242,138 157,137.333 157,132.5 C157,128.278 156.652,127 155.5,127 C154.588,127 154,126.069 154,124.625 C154,120.12 152.746,116 151.375,116 C150.339,116 150,114.273 150,109 L150,102 L161,102 L161,96.5 C161,91.667 161.242,91 163,91 C164.1,91 165,90.377 165,89.617 C165,88.041 168,87.034 172.75,87.014 C174.966,87.004 176,86.523 176,85.5 C176,84.284 177.611,84 184.5,84 C191.195,84 193,83.697 193,82.573 C193,81.789 193.787,80.941 194.75,80.689 Z M96,133 C96,131.393 96.667,131 99.389,131 C102.47,131 102.837,131.318 103.434,134.5 C104.008,137.562 104.46,138 107.045,138 C108.735,138 110.006,138.535 110.014,139.25 C110.021,139.938 110.299,141.512 110.63,142.75 C111.185,144.82 110.9,145 107.056,145 L102.879,145 L103.19,148.75 C103.424,151.577 103.931,152.479 105.25,152.417 C106.213,152.371 109.475,152.258 112.5,152.167 C116.648,152.041 118,151.631 118,150.5 C118,149.258 119.889,149 129,149 C138.111,149 140,149.258 140,150.5 Q140,152 143,152 C145.833,152 146,152.222 146,156 C146,159.333 145.667,160 144,160 C142.889,160 142,160.667 142,161.5 C142,162.325 141.55,163 141,163 C140.45,163 140,162.382 140,161.627 C140,159.796 132.247,159.082 119.75,159.761 C112.476,160.156 110,160.635 110,161.645 C110,162.604 108.539,163 105,163 C100.404,163 100,163.192 100,165.375 C100,169.88 98.746,174 97.375,174 C96.47,174 96,175.197 96,177.5 C96,179.944 95.548,181 94.5,181 C91.745,181 92.958,183.832 96,184.5 C97.65,184.862 99,185.798 99,186.579 C99,187.361 99.9,188 101,188 C102.333,188 103,188.667 103,190 C103,191.333 103.667,192 105,192 C106.333,192 107,192.667 107,194 C107,195.333 107.667,196 109,196 C110.111,196 111,196.667 111,197.5 C111,198.325 111.675,199 112.5,199 C113.333,199 114,199.889 114,201 C114,202.333 114.667,203 116,203 C117.111,203 118,203.667 118,204.5 C118,205.325 118.717,206 119.594,206 C120.47,206 121.423,206.9 121.71,208 C121.998,209.1 122.856,210 123.617,210 C124.377,210 125,210.625 125,211.389 C125,212.184 126.495,213.058 128.5,213.434 C131.698,214.034 132,214.389 132,217.545 L132,221 L126.5,221 C121.667,221 121,220.758 121,219 C121,217.889 120.333,217 119.5,217 C118.675,217 118,216.325 118,215.5 C118,214.667 117.111,214 116,214 C114.667,214 114,213.333 114,212 C114,210.381 113.333,210 110.5,210 C107.167,210 107,209.833 107,206.5 C107,203.167 106.833,203 103.5,203 C100.667,203 100,202.619 100,201 C100,199.667 99.333,199 98,199 C96.889,199 96,198.333 96,197.5 C96,196.452 94.944,196 92.5,196 C89.167,196 89,196.167 89,199.5 C89,201.813 88.531,203 87.617,203 C86.101,203 85.035,205.968 85.014,210.25 C85.005,211.907 84.455,213 83.628,213 C82.8,213 82.002,214.587 81.616,217 C81.202,219.588 80.451,221 79.488,221 C78.312,221 78,222.469 78,228 L78,235 L67,235 L67,231.5 C67,228.667 67.381,228 69,228 C70.758,228 71,227.333 71,222.5 C71,218.354 71.358,217 72.455,217 C73.325,217 74.173,215.595 74.566,213.5 C74.942,211.495 75.816,210 76.611,210 C77.628,210 78,208.526 78,204.5 C78,200.484 78.373,199 79.383,199 C81.103,199 81.969,195.923 81.986,189.75 C81.997,186.201 82.379,185 83.5,185 C84.652,185 85,183.722 85,179.5 C85,175.484 85.373,174 86.383,174 C87.669,174 88.955,171.16 88.986,168.25 C88.996,167.4 87.241,167 83.5,167 C79.474,167 78,167.372 78,168.389 C78,169.184 76.505,170.058 74.5,170.434 C72.405,170.827 71,171.675 71,172.545 C71,173.751 68.521,174 56.5,174 L42,174 L42,170.5 C42,167.19 42.183,167 45.383,167 C47.926,167 48.897,166.503 49.29,165 C49.762,163.196 50.654,163 58.406,163 C64.978,163 67,162.681 67,161.642 C67,160.209 74.846,159 84.147,159 C87.794,159 89,158.627 89,157.5 C89,156.675 89.675,156 90.5,156 C91.711,156 92.003,154.411 92.014,147.75 C92.029,138.196 92.682,135 94.617,135 C95.377,135 96,134.1 96,133 Z M241.75,159.689 C246.385,158.478 247,158.866 247,163 C247,165.889 246.583,167 245.5,167 C244.675,167 244,167.675 244,168.5 C244,169.333 243.111,170 242,170 C240.667,170 240,170.667 240,172 C240,173.333 239.333,174 238,174 C236.667,174 236,174.667 236,176 C236,177.111 235.333,178 234.5,178 C233.675,178 233,178.675 233,179.5 C233,180.333 232.111,181 231,181 C229.667,181 229,181.667 229,183 C229,184.111 228.333,185 227.5,185 C226.675,185 226,185.675 226,186.5 C226,187.333 225.111,188 224,188 C222.667,188 222,188.667 222,190 C222,191.333 221.333,192 220,192 C218.667,192 218,192.667 218,194 C218,195.111 217.333,196 216.5,196 C215.675,196 215,196.675 215,197.5 C215,198.333 214.111,199 213,199 C211.667,199 211,199.667 211,201 C211,202.111 210.333,203 209.5,203 C208.675,203 208,203.675 208,204.5 C208,205.333 207.111,206 206,206 C204.667,206 204,206.667 204,208 C204,209.333 203.333,210 202,210 C200.667,210 200,210.667 200,212 C200,213.111 199.333,214 198.5,214 C197.675,214 197,214.625 197,215.389 C197,216.184 195.505,217.058 193.5,217.434 C190.438,218.008 190,218.46 190,221.045 C190,223.755 190.29,224 193.5,224 C195.944,224 197,223.548 197,222.5 C197,221.202 200.833,221 225.5,221 C250.167,221 254,221.202 254,222.5 C254,223.333 254.889,224 256,224 C257.619,224 258,224.667 258,227.5 C258,230.036 257.561,231 256.406,231 C255.53,231 254.577,231.9 254.29,233 C253.634,235.509 247,235.964 247,233.5 C247,232.452 245.944,232 243.5,232 C240.667,232 240,231.619 240,230 C240,228.148 239.333,228 231,228 C223.667,228 222,228.278 222,229.5 C222,231.391 220.819,231.476 189.75,231.831 C177.381,231.973 175,232.242 175,233.5 C175,234.691 173.552,235 167.969,235 C162.641,235 160.798,235.363 160.362,236.5 C160.045,237.325 159.159,238 158.393,238 C157.627,238 157,237.325 157,236.5 C157,235.675 156.325,235 155.5,235 C154.452,235 154,233.944 154,231.5 C154,228.167 154.167,228 157.5,228 C159.803,228 161,227.53 161,226.625 C161,225.096 165.228,224 171.125,224 C173.903,224 175,223.575 175,222.5 C175,221.667 175.889,221 177,221 C178.1,221 179,220.345 179,219.545 C179,218.675 180.405,217.827 182.5,217.434 C185.033,216.959 186,216.255 186,214.889 C186,213.85 186.675,213 187.5,213 C188.325,213 189,212.325 189,211.5 C189,210.667 189.889,210 191,210 C192.333,210 193,209.333 193,208 C193,206.667 193.667,206 195,206 C196.111,206 197,205.333 197,204.5 C197,203.675 197.675,203 198.5,203 C199.325,203 200,202.283 200,201.406 C200,200.53 200.9,199.577 202,199.29 C203.1,199.002 204,198.144 204,197.383 C204,196.623 204.717,196 205.594,196 C206.47,196 207.423,195.1 207.71,194 C207.998,192.9 208.856,192 209.617,192 C210.377,192 211,191.1 211,190 C211,188.667 211.667,188 213,188 C214.111,188 215,187.333 215,186.5 C215,185.675 215.675,185 216.5,185 C217.325,185 218,184.283 218,183.406 C218,182.53 218.9,181.577 220,181.29 C221.1,181.002 222,180.144 222,179.383 C222,178.623 222.717,178 223.594,178 C224.47,178 225.423,177.1 225.71,176 C225.998,174.9 226.856,174 227.617,174 C228.377,174 229,173.1 229,172 C229,170.667 229.667,170 231,170 C232.111,170 233,169.333 233,168.5 C233,167.675 233.675,167 234.5,167 C235.325,167 236,166.283 236,165.406 C236,164.53 236.9,163.577 238,163.29 C239.1,163.002 240,162.177 240,161.457 C240,160.736 240.787,159.941 241.75,159.689 Z M78,68 C78,66.333 78.667,66 82,66 C84.889,66 86,66.417 86,67.5 C86,68.325 86.702,69 87.56,69 C88.752,69 89.047,69.886 88.81,72.75 C88.529,76.146 88.203,76.529 85.351,76.806 C82.64,77.069 82.112,77.591 81.556,80.556 C81.171,82.607 80.321,84 79.455,84 C78.468,84 78,85.089 78,87.383 C78,89.926 77.503,90.897 76,91.29 C74.544,91.671 74,92.654 74,94.906 C74,96.99 73.51,98 72.5,98 C71.462,98 71,99.043 71,101.383 C71,103.926 70.503,104.897 69,105.29 C67.544,105.671 67,106.654 67,108.906 C67,110.99 66.51,112 65.5,112 C64.667,112 64,112.889 64,114 C64,115.733 64.667,116 69,116 C72.778,116 74,115.633 74,114.5 C74,113.308 75.455,113 81.094,113 C87.346,113 88.249,112.763 88.71,111 C89.174,109.228 90.074,109 96.617,109 C102.237,109 104,108.67 104,107.616 C104,106.558 106.334,106.139 113.934,105.834 C126.861,105.314 132,105.818 132,107.605 C132,108.372 132.9,109 134,109 C135.804,109 135.999,109.662 135.986,115.75 C135.97,123.848 135.241,127 133.383,127 C132.623,127 132,127.675 132,128.5 C132,130.854 129.301,130.253 128.63,127.75 C128.299,126.513 128.021,122.688 128.014,119.25 L128,113 L121,113 C115.727,113 114,113.339 114,114.375 C114,116.06 109.658,117 101.875,117 C97.319,117 96,117.337 96,118.5 C96,119.688 94.569,120 89.117,120 C83.074,120 82.169,120.244 81.71,122 C81.31,123.532 80.346,124 77.594,124 C75.194,124 74,124.461 74,125.389 C74,126.184 72.505,127.058 70.5,127.434 C68.405,127.827 67,128.675 67,129.545 C67,130.541 65.896,131 63.5,131 C61.056,131 60,131.452 60,132.5 C60,133.412 59.069,134 57.625,134 C53.12,134 49,135.254 49,136.625 C49,137.53 47.803,138 45.5,138 L42,138 L42,133 C42,129.092 42.348,128 43.594,128 C44.47,128 45.416,127.126 45.695,126.057 C45.987,124.941 47.409,123.849 49.037,123.492 C51.135,123.031 52.037,122.109 52.514,119.935 C52.869,118.321 53.798,117 54.579,117 C55.57,117 56,115.789 56,113 C56,109.667 56.333,109 58,109 C59.619,109 60,108.333 60,105.5 C60,103.18 60.468,102 61.389,102 C62.184,102 63.058,100.505 63.434,98.5 C63.827,96.405 64.675,95 65.545,95 C66.548,95 67,93.884 67,91.406 C67,88.654 67.468,87.69 69,87.29 C70.656,86.857 71,85.926 71,81.883 C71,78.383 71.393,77 72.389,77 C73.184,77 74.058,75.505 74.434,73.5 C74.827,71.405 75.675,70 76.545,70 C77.345,70 78,69.1 78,68 Z M204,125.5 C204,126.663 202.681,127 198.125,127 C190.342,127 186,127.94 186,129.625 C186,130.381 185.1,131 184,131 C182.889,131 182,131.667 182,132.5 C182,133.325 181.382,134 180.627,134 C179.703,134 179.091,135.703 178.754,139.208 C178.479,142.072 177.747,144.584 177.127,144.791 C175.497,145.334 175.743,147.687 177.5,148.362 C178.325,148.678 179,149.626 179,150.469 C179,151.311 178.325,152 177.5,152 C176.452,152 176,153.056 176,155.5 C176,158.833 176.167,159 179.5,159 C181.944,159 183,158.548 183,157.5 C183,156.675 183.675,156 184.5,156 C185.325,156 186,155.345 186,154.545 C186,153.682 187.386,152.831 189.408,152.451 C191.579,152.044 192.997,151.12 193.314,149.906 C193.588,148.858 194.53,148 195.406,148 C196.283,148 197,147.325 197,146.5 C197,145.675 197.675,145 198.5,145 C199.325,145 200,144.325 200,143.5 C200,142.667 200.889,142 202,142 C203.333,142 204,141.333 204,140 C204,138.889 204.667,138 205.5,138 C206.325,138 207,137.283 207,136.406 C207,135.53 207.9,134.577 209,134.29 C210.656,133.857 211,132.926 211,128.883 L211,124 L207.5,124 C205.056,124 204,124.452 204,125.5 Z"/>
</svg>

