<svg xmlns="http://www.w3.org/2000/svg" width="300" height="300" viewBox="0 0 300 300" version="1.1">
  <defs/>
  <path d="M128.63,187.25 C129.161,185.27 129.879,185 134.617,185 C138.735,185 140,185.352 140,186.5 C140,187.51 141.01,188 143.094,188 C145.346,188 146.329,188.544 146.71,190 C147.211,191.913 148.074,192 166.617,192 C183.18,192 186,192.218 186,193.5 C186,194.412 186.931,195 188.375,195 C192.752,195 197,196.238 197,197.514 C197,198.209 198.575,199.073 200.5,199.434 C202.595,199.827 204,200.675 204,201.545 C204,202.345 204.655,203 205.455,203 C206.325,203 207.173,204.405 207.566,206.5 C207.927,208.425 208.795,210 209.495,210 C211.16,210 211.78,219.602 211.188,236.25 C210.836,246.146 210.428,249 209.367,249 C208.528,249 208,250.11 208,251.875 C208,256.841 206.804,261 205.375,261 C204.47,261 204,262.197 204,264.5 C204,266.944 203.548,268 202.5,268 C201.509,268 201,268.991 201,270.921 C201,273.353 201.502,273.951 204,274.5 C207.042,275.168 208.255,278 205.5,278 C204.667,278 204,278.889 204,280 C204,281.727 203.333,282 199.117,282 C195.074,282 194.143,282.344 193.71,284 C193.397,285.197 192.346,286 191.094,286 C189.899,286 189,286.644 189,287.5 C189,288.325 188.325,289 187.5,289 C186.667,289 186,288.111 186,287 C186,285.9 185.361,285 184.579,285 C183.798,285 182.862,283.65 182.5,282 C181.832,278.958 179,277.745 179,280.5 C179,281.333 178.111,282 177,282 C175.889,282 175,281.333 175,280.5 C175,279.367 173.778,279 170,279 C166.222,279 165,279.367 165,280.5 C165,281.7 163.5,282 157.5,282 C151.781,282 150,282.329 150,283.383 C150,285.241 146.848,285.97 138.75,285.986 L132,286 L132,282 C132,278.667 132.333,278 134,278 C135.111,278 136,277.333 136,276.5 C136,275.31 137.444,275 143,275 C148.293,275 150,274.663 150,273.617 C150,271.397 153.369,271.028 173.75,271.014 C192.329,271 193,270.93 193,269 C193,267.9 193.623,267 194.383,267 C195.899,267 196.965,264.032 196.986,259.75 C196.995,257.978 197.534,257 198.5,257 C199.663,257 200,255.681 200,251.125 C200,243.342 200.94,239 202.625,239 C203.708,239 204,236.667 204,228 C204,218.889 203.742,217 202.5,217 C201.675,217 201,216.283 201,215.406 C201,214.53 200.1,213.577 199,213.29 C197.607,212.925 197,211.926 197,209.995 C197,207.618 196.5,207.129 193.5,206.566 C191.521,206.195 190,205.313 190,204.538 C190,203.471 187.325,203.094 177.928,202.834 C167.687,202.551 165.708,202.234 164.878,200.75 C163.604,198.47 158.416,198.434 157.15,200.696 C156.451,201.945 154.462,202.503 149.6,202.813 L143,203.233 L143,206.616 C143,209.333 142.606,210 141,210 C139.889,210 139,210.667 139,211.5 C139,212.325 138.325,213 137.5,213 C136.41,213 136,214.123 136,217.105 L136,221.211 L148.036,220.855 C157.378,220.58 160.28,220.164 160.998,219 C161.718,217.834 164.602,217.426 173.962,217.166 L186,216.833 L186,223.916 C186,230.333 185.812,231 184,231 C182.889,231 182,230.333 182,229.5 C182,228.675 181.325,228 180.5,228 C179.675,228 179,227.325 179,226.5 C179,225.348 177.722,225 173.5,225 C169.278,225 168,225.348 168,226.5 C168,227.722 166.333,228 159,228 C150.667,228 150,228.148 150,230 C150,231.807 149.333,232 143.101,232 L136.203,232 L135.5,239 C134.998,243.995 134.396,246 133.399,246 C131.184,246 131.774,248.708 134.122,249.322 C137.683,250.253 146,248.88 146,247.361 C146,246.296 148.389,246 157,246 C166.111,246 168,245.742 168,244.5 C168,243.3 169.5,243 175.5,243 C181.5,243 183,243.3 183,244.5 C183,245.325 183.675,246 184.5,246 C185.69,246 186,247.444 186,253 L186,260 L182.5,260 C179.167,260 179,259.833 179,256.5 L179,253 L168,253 C159.301,253 157,253.289 157,254.383 C157,256.21 153.865,256.97 146.25,256.986 C141.367,256.997 140,257.328 140,258.5 C140,259.356 139.101,260 137.906,260 C136.654,260 135.603,260.803 135.29,262 C134.857,263.656 133.926,264 129.883,264 L125,264 L125,247.5 C125,233.5 125.227,231 126.5,231 C127.548,231 128,229.944 128,227.5 C128,225.056 127.548,224 126.5,224 C125.675,224 125,223.325 125,222.5 C125,221.675 125.675,221 126.5,221 C127.769,221 128.002,218.577 128.014,205.25 C128.021,196.588 128.299,188.488 128.63,187.25 Z M132,17.5 C132,16.452 133.056,16 135.5,16 C137.674,16 139,16.484 139,17.278 C139,17.981 139.9,19.326 141,20.268 C142.383,21.452 143,23.218 143,25.99 C143,29.333 142.667,30 141,30 C139.19,30 139,30.667 139,37 L139,44 L182,44 L182,48 C182,50.889 181.583,52 180.5,52 C179.675,52 179,52.675 179,53.5 C179,54.652 177.722,55 173.5,55 C169.278,55 168,54.652 168,53.5 C168,52.31 166.556,52 161,52 C155.538,52 154,52.32 154,53.456 C154,54.57 152.296,54.981 146.75,55.206 L139.5,55.5 L139.204,62.25 C138.991,67.108 138.53,69 137.557,69 C136.557,69 136.095,71.275 135.781,77.75 C135.548,82.563 135.638,86.838 135.981,87.252 C136.323,87.665 142.768,87.708 150.302,87.347 C160.784,86.844 164,86.374 164,85.345 C164,84.259 168.238,84 186,84 C204.889,84 208,84.212 208,85.5 C208,86.325 208.675,87 209.5,87 C210.652,87 211,88.278 211,92.5 C211,96.722 210.652,98 209.5,98 C208.445,98 208,99.066 208,101.594 C208,104.346 207.532,105.31 206,105.71 C204.497,106.103 204,107.074 204,109.617 C204,111.957 203.538,113 202.5,113 C201.675,113 201,113.717 201,114.594 C201,115.47 200.1,116.423 199,116.71 C197.9,116.998 197,117.856 197,118.617 C197,119.377 196.325,120 195.5,120 C194.675,120 194,120.717 194,121.594 C194,122.47 193.1,123.423 192,123.71 C190.9,123.998 190,124.856 190,125.617 C190,126.377 189.1,127 188,127 C186.667,127 186,127.667 186,129 C186,130.333 185.333,131 184,131 C182.889,131 182,131.667 182,132.5 C182,134.987 179.263,134.185 178.589,131.5 C177.691,127.919 178.856,124.271 181.085,123.688 C182.138,123.413 183,122.47 183,121.594 C183,120.717 183.675,120 184.5,120 C185.325,120 186,119.377 186,118.617 C186,117.856 186.9,116.998 188,116.71 C189.1,116.423 190,115.47 190,114.594 C190,113.717 190.675,113 191.5,113 C192.333,113 193,112.111 193,111 C193,109.9 193.655,109 194.455,109 C195.325,109 196.173,107.595 196.566,105.5 C196.942,103.495 197.816,102 198.611,102 C199.532,102 200,100.82 200,98.5 C200,96.056 199.548,95 198.5,95 C197.675,95 197,94.325 197,93.5 C197,92.667 196.111,92 195,92 C193.889,92 193,92.667 193,93.5 C193,94.793 189.556,95 168,95 C147.61,95 143,95.25 143,96.358 C143,97.791 135.154,99 125.853,99 C122.206,99 121,99.373 121,100.5 C121,101.69 119.556,102 114,102 C108.727,102 107,102.339 107,103.375 C107,104.746 102.88,106 98.375,106 C96.931,106 96,106.588 96,107.5 C96,108.333 95.111,109 94,109 C92.9,109 92,109.639 92,110.421 C92,111.202 90.696,112.128 89.102,112.478 C85.821,113.198 85.034,115.079 85.014,122.25 C85.003,125.843 84.627,127 83.469,127 C82.626,127 81.678,127.675 81.362,128.5 C81.045,129.325 80.159,130 79.393,130 C78.574,130 78,131.03 78,132.5 C78,133.979 77.427,135 76.596,135 C75.526,135 75.023,137.493 74.477,145.5 C73.937,153.417 73.422,156 72.381,156 C71.476,156 71,157.178 71,159.418 C71,164.557 70.117,166 66.972,166 C64.655,166 64.042,165.467 63.495,162.978 C62.607,158.933 63.849,152 65.462,152 C66.376,152 66.88,149.514 67.2,143.417 C67.513,137.455 68.085,134.566 69.075,133.955 C70.148,133.294 70.582,130.104 70.834,121.038 C71.099,111.478 71.459,109 72.584,109 C73.605,109 74.004,107.674 74.014,104.25 C74.031,98.077 74.897,95 76.617,95 C77.377,95 78,94.1 78,93 C78,91.667 78.667,91 80,91 C81.111,91 82,90.333 82,89.5 C82,88.452 83.056,88 85.5,88 C87.944,88 89,88.452 89,89.5 C89,90.333 89.889,91 91,91 C92.333,91 93,91.667 93,93 C93,94.467 92.333,95 90.5,95 C88.944,95 88,95.567 88,96.5 C88,97.325 87.325,98 86.5,98 C85.667,98 85,98.889 85,100 C85,101.619 85.667,102 88.5,102 C91.333,102 92,101.619 92,100 C92,98.333 92.667,98 96,98 C98.889,98 100,97.583 100,96.5 C100,95.425 101.097,95 103.875,95 C109.772,95 114,93.904 114,92.375 C114,91.339 115.727,91 121,91 L128,91 L128.014,79.25 C128.021,72.787 128.287,66.534 128.603,65.353 C129.106,63.481 128.656,63.118 125.09,62.515 L121,61.824 L121,56.412 C121,52.268 121.351,51 122.5,51 C123.325,51 124,50.325 124,49.5 C124,48.567 124.944,48 126.5,48 C128.75,48 129,47.6 129,44 C129,41.111 129.417,40 130.5,40 C131.325,40 132,39.55 132,39 C132,38.45 131.382,38 130.627,38 C129.707,38 129.093,36.316 128.763,32.885 C128.066,25.627 128.957,19 130.63,19 C131.384,19 132,18.325 132,17.5 Z M137.75,141.689 C142.877,140.349 150,141.402 150,143.5 C150,144.352 152.161,144.905 156.6,145.187 C161.462,145.497 163.451,146.055 164.15,147.304 C164.96,148.751 166.853,149 177.05,149 C187.006,149 189,149.25 189,150.5 C189,151.768 191.375,152 204.375,152 C221.342,152 226,152.565 226,154.625 C226,155.381 226.675,156 227.5,156 C228.333,156 229,156.889 229,158 C229,159.1 228.345,160 227.545,160 C226.675,160 225.827,161.405 225.434,163.5 C225.058,165.505 224.184,167 223.389,167 C222.625,167 222,167.675 222,168.5 C222,169.548 220.944,170 218.5,170 C215.167,170 215,169.833 215,166.5 C215,163.667 214.619,163 213,163 C211.889,163 211,162.333 211,161.5 C211,160.219 208.188,159.998 191.75,159.986 C171.369,159.972 168,159.603 168,157.383 C168,156.308 165.996,156 159,156 C151.667,156 150,155.722 150,154.5 C150,153.675 149.325,153 148.5,153 C147.675,153 147,153.675 147,154.5 C147,155.325 147.675,156 148.5,156 C149.325,156 150,156.675 150,157.5 C150,158.333 149.111,159 148,159 C146.889,159 146,158.333 146,157.5 C146,156.675 145.325,156 144.5,156 C143.675,156 143,156.623 143,157.383 C143,158.144 142.1,159.002 141,159.29 C139.468,159.69 139,160.654 139,163.406 C139,166.847 139.149,167 142.5,167 C144.944,167 146,167.452 146,168.5 C146,169.663 147.319,170 151.875,170 C159.658,170 164,170.94 164,172.625 C164,173.721 166.636,174 177,174 C187.274,174 190,174.284 190,175.356 C190,176.441 194.492,176.814 212.54,177.229 C224.937,177.513 235.34,178.006 235.657,178.324 C235.975,178.641 236.468,180.974 236.754,183.509 C237.215,187.596 237.032,188.179 235.137,188.675 C233.961,188.982 233,189.856 233,190.617 C233,191.377 232.1,192 231,192 C229.667,192 229,192.667 229,194 C229,195.111 228.333,196 227.5,196 C226.675,196 226,196.675 226,197.5 C226,198.605 224.847,199 221.625,199 C219.219,199 215.844,199.281 214.125,199.625 C211.455,200.159 211,199.958 211,198.242 C211,197.074 211.837,196.014 213,195.71 C214.1,195.423 215,194.47 215,193.594 C215,192.439 215.964,192 218.5,192 C221.333,192 222,191.619 222,190 C222,188.889 221.333,188 220.5,188 C219.675,188 219,187.325 219,186.5 C219,185.209 215.728,185 195.55,185 C174.255,185 172.009,184.839 171.121,183.25 C170.313,181.804 168.396,181.44 160.072,181.156 C152.247,180.889 150,180.499 150,179.406 C150,178.273 147.574,178 137.5,178 C127.056,178 125,178.247 125,179.5 C125,180.333 124.111,181 123,181 C121.667,181 121,181.667 121,183 C121,184.111 120.333,185 119.5,185 C118.675,185 118,185.675 118,186.5 C118,187.333 117.111,188 116,188 C114.667,188 114,188.667 114,190 C114,191.333 113.333,192 112,192 C110.667,192 110,192.667 110,194 C110,195.111 109.333,196 108.5,196 C107.675,196 107,196.623 107,197.383 C107,198.144 106.1,199.002 105,199.29 C103.9,199.577 103,200.53 103,201.406 C103,202.283 102.325,203 101.5,203 C100.675,203 100,203.717 100,204.594 C100,205.47 99.1,206.423 98,206.71 C96.9,206.998 96,207.856 96,208.617 C96,209.531 94.813,210 92.5,210 C90.119,210 89,210.461 89,211.441 C89,213.489 87.49,214.161 84.546,213.422 C82.444,212.895 82,212.192 82,209.392 C82,207.044 82.462,206 83.5,206 C84.325,206 85,205.325 85,204.5 C85,203.667 85.889,203 87,203 C88.333,203 89,202.333 89,201 C89,199.381 89.667,199 92.5,199 C95.333,199 96,198.619 96,197 C96,195.889 96.667,195 97.5,195 C98.325,195 99,194.325 99,193.5 C99,192.667 99.889,192 101,192 C102.333,192 103,191.333 103,190 C103,188.667 103.667,188 105,188 C106.111,188 107,187.333 107,186.5 C107,185.675 107.675,185 108.5,185 C109.333,185 110,184.111 110,183 C110,181.667 110.667,181 112,181 C113.333,181 114,180.333 114,179 C114,177.9 114.639,177 115.421,177 C116.202,177 117.138,175.65 117.5,174 C117.878,172.278 118.804,171 119.673,171 C120.506,171 121.423,170.1 121.71,169 C121.998,167.9 122.856,167 123.617,167 C124.377,167 125,166.1 125,165 C125,163.667 125.667,163 127,163 C128.111,163 129,162.333 129,161.5 C129,160.675 129.675,160 130.5,160 C131.548,160 132,158.944 132,156.5 C132,153.167 132.167,153 135.5,153 C138.333,153 139,152.619 139,151 C139,149.889 138.333,149 137.5,149 C135.225,149 135.454,142.289 137.75,141.689 Z M121,118 C121,116.077 121.662,116.001 138.25,116.014 C147.738,116.021 156.487,116.292 157.693,116.615 C159.048,116.979 160.12,118.271 160.5,120 C160.85,121.595 161.949,123.015 163.057,123.305 C165.846,124.034 165.8,129.978 163,130.71 C161.9,130.998 161,131.856 161,132.617 C161,133.377 160.1,134 159,134 C157.381,134 157,133.333 157,130.5 C157,128.056 156.548,127 155.5,127 C154.675,127 154,126.325 154,125.5 C154,124.258 152.111,124 143,124 C133.889,124 132,124.258 132,125.5 C132,126.333 131.111,127 130,127 C128.667,127 128,127.667 128,129 C128,130.333 128.667,131 130,131 C131.111,131 132,131.667 132,132.5 C132,133.333 132.889,134 134,134 C135.333,134 136,134.667 136,136 C136,137.758 135.333,138 130.5,138 C126.484,138 125,138.373 125,139.383 C125,140.144 124.1,141.002 123,141.29 C121.9,141.577 121,142.53 121,143.406 C121,144.283 120.377,145 119.617,145 C118.856,145 117.998,145.9 117.71,147 C117.423,148.1 116.47,149 115.594,149 C114.667,149 114,149.837 114,151 C114,152.111 113.333,153 112.5,153 C111.675,153 111,153.675 111,154.5 C111,155.333 110.111,156 109,156 C107.667,156 107,156.667 107,158 C107,159.1 106.345,160 105.545,160 C104.675,160 103.827,161.405 103.434,163.5 C102.959,166.033 102.255,167 100.889,167 C99.85,167 99,167.675 99,168.5 C99,169.325 98.325,170 97.5,170 C96.667,170 96,170.889 96,172 C96,173.619 95.333,174 92.5,174 C89.667,174 89,174.381 89,176 C89,177.333 88.333,178 87,178 C85.667,178 85,178.667 85,180 C85,181.111 84.333,182 83.5,182 C82.675,182 82,182.675 82,183.5 C82,184.333 81.111,185 80,185 C78.9,185 78,185.619 78,186.375 C78,187.944 72.051,189.451 70.8,188.2 C69.549,186.949 71.056,181 72.625,181 C73.381,181 74,180.325 74,179.5 C74,178.667 74.889,178 76,178 C77.333,178 78,177.333 78,176 C78,174.667 78.667,174 80,174 C81.111,174 82,173.333 82,172.5 C82,171.675 82.675,171 83.5,171 C84.333,171 85,170.111 85,169 C85,167.667 85.667,167 87,167 C88.333,167 89,166.333 89,165 C89,163.667 89.667,163 91,163 C92.111,163 93,162.333 93,161.5 C93,160.675 93.675,160 94.5,160 C95.333,160 96,159.111 96,158 C96,156.667 96.667,156 98,156 C99.333,156 100,155.333 100,154 C100,152.889 100.667,152 101.5,152 C102.325,152 103,151.325 103,150.5 C103,149.675 103.717,149 104.594,149 C105.47,149 106.423,148.1 106.71,147 C106.998,145.9 107.856,145 108.617,145 C109.531,145 110,143.813 110,141.5 C110,138.667 110.381,138 112,138 C113.333,138 114,137.333 114,136 C114,134.889 114.667,134 115.5,134 C116.325,134 117,133.325 117,132.5 C117,131.675 116.325,131 115.5,131 C114.675,131 114,131.675 114,132.5 C114,133.688 112.568,134 107.108,134 C100.591,134 100.183,133.864 99.589,131.5 C98.527,127.269 99.874,124.187 103.094,123.479 C104.692,123.128 106,122.202 106,121.421 C106,120.319 107.686,120 113.5,120 C120.333,120 121,119.822 121,118 Z"/>
</svg>

