<svg xmlns="http://www.w3.org/2000/svg" width="300" height="300" viewBox="0 0 300 300" version="1.1">
  <defs/>
  <path d="M172.879,69.664 C173.771,69.427 175.963,69.18 177.75,69.116 C180.894,69.004 181,69.13 181,73 C181,75.889 180.583,77 179.5,77 C178.452,77 178,78.056 178,80.5 C178,82.944 178.452,84 179.5,84 C180.325,84 181,84.675 181,85.5 C181,86.7 182.5,87 188.5,87 C194.5,87 196,86.7 196,85.5 C196,84.213 199.056,84 217.5,84 L239,84 L239,88 C239,90.789 238.57,92 237.579,92 C236.798,92 235.862,93.35 235.5,95 C234.925,97.62 234.408,98 231.421,98 C228.162,98 228,97.83 228,94.41 L228,90.82 L219.25,91.54 C214.438,91.935 210.212,92.711 209.859,93.262 C209.507,93.814 202.869,94.493 195.109,94.772 C184.128,95.167 181,95.581 181,96.64 C181,97.388 180.325,98 179.5,98 C178.244,98 178,100.111 178,111 C178,121.889 178.244,124 179.5,124 C180.325,124 181,124.675 181,125.5 C181,126.333 181.889,127 183,127 C184.1,127 185,126.393 185,125.651 C185,124.649 187.602,124.144 195.133,123.685 C200.706,123.345 205.484,122.85 205.75,122.583 C206.017,122.317 206.465,120.052 206.747,117.549 C207.078,114.614 207.746,113 208.63,113 C209.384,113 210,112.1 210,111 C210,109.381 210.667,109 213.5,109 C216.333,109 217,109.381 217,111 C217,112.333 217.667,113 219,113 C220.619,113 221,113.667 221,116.5 C221,119.333 221.381,120 223,120 C224.111,120 225,119.333 225,118.5 C225,117.675 225.675,117 226.5,117 C227.325,117 228,117.675 228,118.5 C228,119.333 228.889,120 230,120 C231.163,120 232,120.667 232,121.594 C232,122.47 231.1,123.423 230,123.71 C228.497,124.103 228,125.074 228,127.617 L228,131 L221,131 C215.262,131 214,131.287 214,132.594 C214,133.47 213.1,134.423 212,134.71 C210.344,135.143 210,136.074 210,140.117 L210,145 L202.267,145 L202.768,138 L203.269,131 L199.634,131 C197.07,131 196,131.442 196,132.5 C196,133.944 195.274,134.135 188.5,134.476 C186.85,134.559 184.488,134.711 183.25,134.813 L181,135 L181,181 L192,181 C200.959,181 203,181.27 203,182.455 C203,183.325 204.405,184.173 206.5,184.566 L210,185.223 L210,199 L201.909,199 L202.566,195.5 L203.223,192 L181,192 L181,202.594 C181,212.346 181.159,213.229 183,213.71 C184.656,214.143 185,215.074 185,219.117 L185,224 L192,224 C197.556,224 199,223.69 199,222.5 C199,221.255 200.931,221 210.375,221 C223.446,221 228,220.322 228,218.375 C228,217.282 230.561,217 240.5,217 L253,217 L253,228 L231.5,228 C214.103,228 210,228.258 210,229.352 C210,230.688 199.859,231.979 189.25,231.994 C186.142,231.998 185,232.403 185,233.5 C185,234.544 183.95,235 181.55,235 C179.303,235 177.758,235.61 177.121,236.75 C176.313,238.196 174.396,238.56 166.072,238.844 C158.247,239.111 156,239.501 156,240.594 C156,241.603 154.658,242.004 151.25,242.014 C145.077,242.031 142,242.897 142,244.617 C142,245.711 139.699,246 131,246 C121.889,246 120,246.258 120,247.5 C120,248.583 118.889,249 116,249 C113.8,249 112,248.518 112,247.929 C112,247.339 111.274,246.131 110.386,245.243 C108.9,243.757 108.94,243.566 110.886,242.847 C112.049,242.416 113,241.427 113,240.649 C113,239.614 114.767,239.12 119.568,238.815 C123.857,238.542 126.447,237.894 127.03,236.948 C127.695,235.871 130.621,235.413 138.462,235.159 C146.299,234.905 149,234.483 149,233.51 C149,232.625 151.261,231.976 156,231.5 C160.995,230.998 163,230.396 163,229.399 C163,228.37 164.455,228 168.5,228 L174,228 L174,222.5 C174,218.278 173.652,217 172.5,217 C171.667,217 171,216.111 171,215 C171,213.889 171.667,213 172.5,213 C173.738,213 174,211.167 174,202.5 L174,192 L165,192 C157.791,192 156,192.29 156,193.455 C156,194.325 154.595,195.173 152.5,195.566 C150.495,195.942 149,196.816 149,197.611 C149,198.628 147.526,199 143.5,199 C138.667,199 138,198.758 138,197 C138,195.889 137.333,195 136.5,195 C135.675,195 135,194.325 135,193.5 C135,192.675 135.675,192 136.5,192 C137.333,192 138,191.111 138,190 C138,188.667 138.667,188 140,188 C141.111,188 142,187.333 142,186.5 C142,185.289 143.589,184.997 150.25,184.986 C159.804,184.971 163,184.318 163,182.383 C163,181.373 164.484,181 168.5,181 L174,181 L174,172 C174,164.667 173.722,163 172.5,163 C171.675,163 171,162.325 171,161.5 C171,160.417 169.889,160 167,160 C163.667,160 163,159.667 163,158 C163,156.9 162.377,156 161.617,156 C160.041,156 159.034,153 159.014,148.25 C159.004,146.034 158.523,145 157.5,145 C156.452,145 156,143.944 156,141.5 L156,138 L145.617,138 C136.074,138 135.191,138.162 134.71,140 C134.31,141.532 133.346,142 130.594,142 C127.203,142 127.001,141.816 127.014,138.75 C127.039,132.743 127.969,131 131.148,131 C132.816,131 134.309,130.359 134.638,129.5 C135.278,127.833 138,127.428 138,129 C138,129.55 139.8,130 142,130 C144.2,130 146,129.55 146,129 C146,128.45 146.675,128 147.5,128 C148.325,128 149,128.45 149,129 C149,129.55 149.675,130 150.5,130 C151.672,130 152.003,128.633 152.014,123.75 C152.036,113.668 152.415,113 158.117,113 L163,113 L163,127 L170,127 L170,98.127 L161.25,98.49 C156.438,98.69 150.137,98.887 147.25,98.927 C143.283,98.982 142,99.366 142,100.5 C142,101.764 139.722,102 127.5,102 L113,102 L113,105.5 C113,107.812 113.469,109 114.383,109 C115.374,109 115.964,111.122 116.468,116.5 C116.98,121.968 117.554,124 118.585,124 C119.781,124 120,130.114 120,163.5 C120,197.944 119.808,203 118.5,203 C117.452,203 117,204.056 117,206.5 C117,209.333 116.619,210 115,210 C113.667,210 113,210.667 113,212 C113,215.825 106.373,213.973 105.478,209.898 C105.128,208.304 104.202,207 103.421,207 C102.639,207 102,206.1 102,205 C102,203.381 101.333,203 98.5,203 C96.2,203 95,203.471 95,204.373 C95,205.469 90.79,205.892 74.069,206.474 C62.556,206.875 52.656,206.906 52.069,206.542 C51.481,206.179 51,203.434 51,200.441 C51,196.271 50.65,195 49.5,195 C48.195,195 48,190.389 48,159.5 C48,130.226 48.239,124 49.361,124 C50.958,124 51.978,117.119 51.991,106.25 C51.998,100.476 52.305,99 53.5,99 C54.652,99 55,97.722 55,93.5 C55,89.134 55.329,88 56.594,88 C57.47,88 58.423,87.1 58.71,86 C58.998,84.9 59.803,84 60.5,84 C61.197,84 62.002,83.1 62.29,82 C62.751,80.237 63.654,80 69.906,80 C75.545,80 77,79.692 77,78.5 C77,77.452 78.056,77 80.5,77 C82.944,77 84,77.452 84,78.5 C84,79.652 85.278,80 89.5,80 C94.333,80 95,80.242 95,82 C95,83.619 95.667,84 98.5,84 C100.813,84 102,84.469 102,85.383 C102,86.144 102.9,87.002 104,87.29 C105.1,87.577 106,88.53 106,89.406 C106,90.822 108.792,91 131,91 C152.556,91 156,90.793 156,89.5 C156,88.31 157.444,88 163,88 L170,88 L170,83.64 C170,75.718 171.152,70.125 172.879,69.664 Z M75.783,87.683 C74.769,87.949 73.802,89.54 73.421,91.567 C72.838,94.676 72.457,95 69.389,95 C67.043,95 66,95.462 66,96.5 C66,97.325 66.648,98 67.441,98 C69.478,98 70.162,99.507 69.436,102.398 C68.961,104.293 68.058,104.96 65.656,105.194 C62.796,105.471 62.471,105.852 62.19,109.25 C61.987,111.703 61.381,113 60.44,113 C59.293,113 59,114.834 59,122 L59,131 L70,131 C78.838,131 81,131.279 81,132.421 C81,133.202 82.308,134.128 83.906,134.479 C85.874,134.912 87.011,135.906 87.425,137.559 C88.249,140.839 87.111,145 85.392,145 C84.626,145 84,145.9 84,147 C84,148.111 83.333,149 82.5,149 C81.675,149 81,148.283 81,147.406 C81,146.53 80.1,145.577 79,145.29 C77.9,145.002 77,144.144 77,143.383 C77,142.289 74.699,142 66,142 L55,142 L55,149 L66,149 C75.111,149 77,149.258 77,150.5 C77,151.412 77.931,152 79.375,152 C83.88,152 88,153.254 88,154.625 C88,155.53 89.197,156 91.5,156 C94.333,156 95,156.381 95,158 C95,159.111 95.667,160 96.5,160 C98.041,160 98.491,162.166 98.058,167.5 C97.906,169.37 97.872,170.279 97.412,170.628 C96.948,170.98 96.051,170.76 94.16,170.382 C91.362,169.822 91,169.363 91,166.375 C91,163.185 90.809,163 87.5,163 C85.056,163 84,162.548 84,161.5 C84,160.256 81.87,159.972 71.5,159.833 C64.625,159.742 58.212,159.629 57.25,159.583 C55.677,159.508 55.5,160.698 55.5,171.322 C55.5,181.542 55.737,183.277 57.25,184.122 C58.583,184.866 59,186.398 59,190.55 C59,194.728 59.35,196 60.5,196 C61.333,196 62,195.111 62,194 C62,192.667 62.667,192 64,192 C65.619,192 66,191.333 66,188.5 C66,185.667 66.381,185 68,185 C69.111,185 70,184.333 70,183.5 C70,182.675 70.675,182 71.5,182 C72.548,182 73,183.056 73,185.5 C73,187.944 72.548,189 71.5,189 C70.452,189 70,190.056 70,192.5 L70,196 L77,196 C82.556,196 84,196.31 84,197.5 C84,198.333 84.889,199 86,199 C87.111,199 88,198.333 88,197.5 C88,196.261 89.844,196 98.594,196 C108.346,196 109.229,195.841 109.71,194 C109.998,192.9 110.883,192 111.677,192 C113.874,192 113.214,139.365 111,137.999 C109.907,137.324 109.404,134.758 109.147,128.537 C108.88,122.062 108.457,120 107.397,120 C106.399,120 105.996,118.644 105.986,115.25 C105.969,109.077 105.103,106 103.383,106 C102.623,106 102,105.1 102,104 C102,102.667 101.333,102 100,102 C98.333,102 98,101.333 98,98 C98,95.111 97.583,94 96.5,94 C95.675,94 95,93.325 95,92.5 C95,91.452 93.944,91 91.5,91 C89.197,91 88,90.53 88,89.625 C88,87.569 80.66,86.402 75.783,87.683 Z M150.75,51.631 C151.713,51.347 155.154,51.314 158.397,51.558 C161.64,51.801 167.377,52 171.147,52 C176.572,52 178,52.313 178,53.5 C178,54.652 179.278,55 183.5,55 C187.646,55 189,55.358 189,56.455 C189,57.325 190.405,58.173 192.5,58.566 C195.033,59.041 196,59.745 196,61.111 C196,62.15 196.675,63 197.5,63 C198.633,63 199,64.222 199,68 C199,71.326 198.582,73.005 197.75,73.014 C197.063,73.021 195.488,73.299 194.25,73.63 C192.336,74.143 192,73.842 192,71.617 C192,69.957 191.451,69 190.5,69 C189.675,69 189,68.325 189,67.5 C189,66.667 188.111,66 187,66 C185.9,66 185,65.375 185,64.611 C185,62.509 179.8,61.93 162.572,62.112 C153.976,62.203 146.736,62.069 146.482,61.816 C146.228,61.562 145.735,59.924 145.385,58.177 C144.831,55.405 145.021,55 146.875,55 C148.049,55 149,54.361 149,53.573 C149,52.789 149.787,51.915 150.75,51.631 Z M167,145 L167,152 L170.5,152 C172.944,152 174,151.548 174,150.5 C174,149.675 173.325,149 172.5,149 C171.667,149 171,148.111 171,147 C171,145.889 171.667,145 172.5,145 C173.325,145 174,144.325 174,143.5 C174,142.675 173.325,142 172.5,142 C171.667,142 171,141.111 171,140 C171,138.667 170.333,138 169,138 C167.19,138 167,138.667 167,145 Z"/>
</svg>

