<svg xmlns="http://www.w3.org/2000/svg" width="300" height="300" viewBox="0 0 300 300" version="1.1">
  <defs/>
  <path d="M179,30.094 C179,27.225 179.254,27 182.5,27 C184.944,27 186,27.452 186,28.5 C186,29.333 186.889,30 188,30 C189.1,30 189.994,30.563 189.986,31.25 C189.955,34.16 188.669,37 187.383,37 C186.469,37 186,38.187 186,40.5 C186,42.944 185.548,44 184.5,44 C183.667,44 183,44.889 183,46 C183,47.873 183.667,48 193.5,48 C202.167,48 204,48.262 204,49.5 C204,50.412 204.931,51 206.375,51 C207.681,51 210.156,51.281 211.875,51.625 C214.91,52.232 215,52.405 215,57.625 C215,62.333 214.752,63 213,63 C211.889,63 211,63.667 211,64.5 C211,67.549 208.208,65.923 207.566,62.5 L206.909,59 L186,59 L186,66 L191.5,66 C196.333,66 197,66.242 197,68 C197,69.333 197.667,70 199,70 C200.111,70 201,70.667 201,71.5 C201,72.466 201.978,73.005 203.75,73.014 C208.032,73.035 211,74.101 211,75.617 C211,76.531 212.187,77 214.5,77 C216.944,77 218,77.452 218,78.5 C218,79.333 218.889,80 220,80 C221.822,80 222,80.667 222,87.5 C222,93.219 221.671,95 220.617,95 C219.856,95 218.998,94.1 218.71,93 C218.423,91.9 217.47,91 216.594,91 C215.439,91 215,90.036 215,87.5 L215,84 L209.5,84 C205.5,84 204,83.625 204,82.625 C204,81.096 199.772,80 193.875,80 C191.097,80 190,79.575 190,78.5 C190,77.3 188.5,77 182.5,77 L175,77 L175,84 C175,89.556 174.69,91 173.5,91 C172.278,91 172,92.667 172,100 L172,109 L175.5,109 C177.785,109 179,108.528 179,107.639 C179,106.249 185.622,105.026 193.25,105.009 C195.913,105.003 197,104.565 197,103.5 C197,102.286 198.598,102 205.383,102 C213.232,102 213.805,102.144 214.37,104.25 C215.611,108.883 215.08,112.166 213,112.71 C211.497,113.103 211,114.074 211,116.617 C211,119.817 210.81,120 207.5,120 C204.189,120 204,120.183 204,123.389 C204,126.47 203.682,126.837 200.5,127.434 C198.405,127.827 197,128.675 197,129.545 C197,130.345 196.1,131 195,131 C193.9,131 193,131.623 193,132.383 C193,133.144 192.1,134.002 191,134.29 C189.9,134.577 189,135.53 189,136.406 C189,137.496 188.088,138 186.117,138 C184.074,138 183.081,138.583 182.71,140 C182.333,141.442 181.346,142 179.173,142 C176.632,142 176.055,142.475 175.495,145.022 C175.13,146.684 175.134,149.834 175.504,152.022 C176.1,155.55 176.492,156 178.971,156 C180.926,156 181.924,155.398 182.29,154 C182.762,152.196 183.654,152 191.406,152 C198.378,152 200,151.717 200,150.5 C200,149.3 201.5,149 207.5,149 C214.333,149 215,148.822 215,147 C215,145.267 215.667,145 220,145 C223.908,145 225,145.348 225,146.594 C225,147.47 225.85,148.41 226.889,148.681 C228.437,149.086 228.853,150.344 229.191,155.656 C229.446,159.669 230.123,162.458 230.968,162.98 C232.621,164.002 232.841,172.862 231.238,173.853 C230.635,174.225 229.824,178.461 229.434,183.265 C228.918,189.624 228.354,192 227.362,192 C226.472,192 226,193.213 226,195.5 C226,198.333 225.619,199 224,199 C222.381,199 222,199.667 222,202.5 C222,205.036 221.561,206 220.406,206 C219.53,206 218.577,206.9 218.29,208 C218.002,209.1 217.197,210 216.5,210 C215.803,210 214.998,210.9 214.71,212 C214.329,213.456 213.346,214 211.094,214 C209.01,214 208,214.49 208,215.5 C208,216.7 206.5,217 200.5,217 C194.5,217 193,216.7 193,215.5 C193,214.675 192.375,214 191.611,214 C190.824,214 189.947,212.529 189.585,210.602 C189.102,208.024 188.315,207.045 186.329,206.546 C184.889,206.185 183.389,206.252 182.996,206.695 C182.603,207.138 182.496,210.537 182.757,214.25 C183.099,219.102 183.622,221 184.616,221 C185.743,221 186,224.34 186,239 C186,254.333 185.778,257 184.5,257 C183.379,257 182.997,258.201 182.986,261.75 C182.969,267.872 182.105,271 180.433,271 C179.7,271 178.627,271.788 178.05,272.75 C177.05,274.417 176.95,274.417 175.95,272.75 C175.373,271.788 174.248,271 173.45,271 C172.377,271 172,269.702 172,266 C172,262.222 172.367,261 173.5,261 C174.799,261 175,257.111 175,232 C175,208.252 174.754,203 173.643,203 C172.65,203 172.101,200.534 171.591,193.781 C171.208,188.71 170.747,184.413 170.566,184.232 C169.741,183.408 165,185.358 165,186.521 C165,187.262 163.276,188.116 161,188.5 C158.541,188.915 157,189.72 157,190.588 C157,191.535 155.848,192 153.5,192 C150.667,192 150,192.381 150,194 C150,195.333 149.333,196 148,196 C146.889,196 146,196.667 146,197.5 C146,198.548 144.944,199 142.5,199 C139.667,199 139,199.381 139,201 C139,202.333 138.333,203 137,203 C135.9,203 135,203.655 135,204.455 C135,205.325 133.595,206.173 131.5,206.566 C129.495,206.942 128,207.816 128,208.611 C128,209.375 127.325,210 126.5,210 C125.675,210 125,210.623 125,211.383 C125,212.144 124.1,213.002 123,213.29 C121.9,213.577 121,214.48 121,215.295 C121,216.197 119.631,217.034 117.5,217.434 C115.405,217.827 114,218.675 114,219.545 C114,220.345 113.1,221 112,221 C110.889,221 110,221.667 110,222.5 C110,223.325 109.325,224 108.5,224 C107.667,224 107,224.889 107,226 C107,227.619 106.333,228 103.5,228 C100.667,228 100,228.381 100,230 C100,231.333 99.333,232 98,232 C96.889,232 96,232.667 96,233.5 C96,234.548 94.944,235 92.5,235 C89.667,235 89,235.381 89,237 C89,238.333 88.333,239 87,239 C85.9,239 85,239.647 85,240.439 C85,242.297 77.562,243.461 71.5,242.552 C66.667,241.828 64.976,239 69.375,239 C73.88,239 78,237.746 78,236.375 C78,235.619 78.9,235 80,235 C81.111,235 82,234.333 82,233.5 C82,232.49 83.01,232 85.094,232 C87.346,232 88.329,231.456 88.71,230 C89,228.893 90.074,228 91.117,228 C92.152,228 93,227.361 93,226.579 C93,225.798 94.35,224.862 96,224.5 C97.65,224.138 99,223.202 99,222.421 C99,221.639 99.9,221 101,221 C102.333,221 103,220.333 103,219 C103,217.667 103.667,217 105,217 C106.1,217 107,216.377 107,215.617 C107,214.856 107.9,213.998 109,213.71 C110.1,213.423 111,212.47 111,211.594 C111,210.717 111.675,210 112.5,210 C113.325,210 114,209.345 114,208.545 C114,207.675 115.405,206.827 117.5,206.434 C119.505,206.058 121,205.184 121,204.389 C121,203.625 121.9,203 123,203 C124.333,203 125,202.333 125,201 C125,199.667 125.667,199 127,199 C128.1,199 129,198.345 129,197.545 C129,196.675 130.405,195.827 132.5,195.434 C134.505,195.058 136,194.184 136,193.389 C136,192.625 136.675,192 137.5,192 C138.325,192 139,191.375 139,190.611 C139,189.816 140.495,188.942 142.5,188.566 C144.595,188.173 146,187.325 146,186.455 C146,185.468 147.089,185 149.383,185 C151.926,185 152.897,184.503 153.29,183 C153.603,181.803 154.654,181 155.906,181 C157.101,181 158,180.356 158,179.5 C158,178.367 159.222,178 163,178 L168,178 L168,171.117 C168,164.824 167.807,164.182 165.75,163.63 C161.595,162.517 158.117,162.968 157.121,164.75 C156.259,166.292 154.057,166.539 138.572,166.833 C121.328,167.159 121,167.126 121,165.083 C121,163.898 120.353,163 119.5,163 C118.667,163 118,162.111 118,161 C118,159.889 118.667,159 119.5,159 C120.325,159 121,158.325 121,157.5 C121,156.417 122.111,156 125,156 C127.739,156 129,155.564 129,154.617 C129,152.897 132.077,152.031 138.25,152.014 C141.799,152.003 143,151.621 143,150.5 C143,149.452 144.056,149 146.5,149 C148.932,149 150,148.546 150,147.512 C150,146.549 151.412,145.798 154,145.384 C156.413,144.998 158,144.2 158,143.372 C158,142.514 159.124,142 161,142 L164,142 L164,120 L151.5,120 C141.524,120 139,119.721 139,118.617 C139,117.856 138.069,116.99 136.931,116.692 C135.271,116.258 134.925,115.494 135.181,112.826 L135.5,109.5 L148.25,109.22 C158.675,108.991 161,108.672 161,107.47 C161,106.662 161.675,106 162.5,106 C163.718,106 164.003,104.355 164.014,97.25 C164.029,87.209 164.66,84 166.617,84 C167.627,84 168,82.516 168,78.5 C168,74.47 168.372,73 169.391,73 C170.45,73 170.952,70.382 171.5,62 C172.048,53.618 172.55,51 173.609,51 C174.686,51 175,49.109 175,42.617 C175,35.074 175.201,34.181 177,33.71 C178.456,33.329 179,32.346 179,30.094 Z M207,157.361 C207,158.85 200.255,159.976 191.25,159.991 C187.254,159.998 186,160.358 186,161.5 C186,162.548 184.944,163 182.5,163 L179,163 L179,169.883 C179,175.926 179.244,176.831 181,177.29 C182.67,177.726 183,178.654 183,182.906 C183,186.767 183.363,188 184.5,188 C185.652,188 186,189.278 186,193.5 C186,198.333 186.242,199 188,199 C189.333,199 190,199.667 190,201 C190,202.111 190.667,203 191.5,203 C192.325,203 193,203.635 193,204.412 C193,205.28 194.541,206.085 197,206.5 C199.459,206.915 201,207.72 201,208.588 C201,209.365 201.675,210 202.5,210 C203.333,210 204,209.111 204,208 C204,206.667 204.667,206 206,206 C207.111,206 208,205.333 208,204.5 C208,203.675 208.499,203 209.109,203 C210.887,203 214.964,198.662 214.983,196.75 C214.992,195.787 215.675,195 216.5,195 C217.466,195 218.005,194.022 218.014,192.25 C218.035,187.968 219.101,185 220.617,185 C221.721,185 222,182.476 222,172.5 C222,161.729 221.78,160 220.406,160 C219.53,160 218.577,159.1 218.29,158 C217.848,156.312 216.926,156 212.383,156 C208.51,156 207,156.382 207,157.361 Z M121,78.5 C121,77.258 122.889,77 132,77 C141.111,77 143,77.258 143,78.5 C143,79.333 143.889,80 145,80 C146.333,80 147,80.667 147,82 C147,83.111 147.667,84 148.5,84 C149.325,84 150,84.675 150,85.5 C150,86.325 149.325,87 148.5,87 C147.667,87 147,87.889 147,89 C147,90.614 146.333,91 143.545,91 C140.389,91 140.034,90.698 139.434,87.5 C138.718,83.684 136.545,82.808 135.71,86 C135.255,87.74 134.346,88 128.71,88 C122.839,88 122.177,88.21 121.63,90.25 C120.52,94.393 120.887,95 124.5,95 C126.944,95 128,95.452 128,96.5 C128,97.773 130.5,98 144.5,98 C160.333,98 161,98.081 161,100 C161,101.333 160.333,102 159,102 C157.9,102 157,102.619 157,103.375 C157,104.131 155.594,105.031 153.875,105.375 C149.881,106.174 112.234,106.169 109.25,105.37 C106.747,104.699 106.146,102 108.5,102 C109.333,102 110,101.111 110,100 C110,98.667 110.667,98 112,98 C113.81,98 114,97.333 114,91 C114,85.707 114.337,84 115.383,84 C116.144,84 117.002,83.1 117.29,82 C117.577,80.9 118.53,80 119.406,80 C120.283,80 121,79.325 121,78.5 Z M109.25,51.688 C111.42,51.252 116.105,51.772 116.865,52.532 C117.068,52.735 117.468,54.974 117.754,57.509 C118.215,61.596 118.032,62.179 116.137,62.675 C114.241,63.17 114,63.941 114,69.5 C114,74.926 113.732,75.837 112,76.29 C110.33,76.726 110,77.654 110,81.906 C110,85.767 109.637,87 108.5,87 C107.565,87 107,87.946 107,89.51 C107,90.89 106.1,92.79 105,93.732 C103.755,94.798 103,96.682 103,98.722 C103,100.852 102.514,102 101.611,102 C100.816,102 99.942,103.495 99.566,105.5 C99.173,107.595 98.325,109 97.455,109 C96.459,109 96,110.104 96,112.5 C96,114.626 95.509,116.005 94.75,116.014 C94.063,116.021 92.547,116.283 91.382,116.596 C89.662,117.057 89.162,116.633 88.716,114.332 C87.848,109.852 89.073,102 90.639,102 C91.388,102 92,101.1 92,100 C92,98.667 92.667,98 94,98 C95.619,98 96,97.333 96,94.5 C96,92.056 96.452,91 97.5,91 C98.565,91 99.003,89.912 99.011,87.25 C99.03,80.894 100.169,76 101.631,76 C102.682,76 103,74.028 103,67.5 C103,59.667 103.157,59 105,59 C106.611,59 107,58.333 107,55.57 C107,52.812 107.442,52.05 109.25,51.688 Z M189,114.5 C189,115.647 187.736,116 183.625,116 C180.669,116 176.844,116.281 175.125,116.625 L172,117.25 L172,134 L175.5,134 C177.944,134 179,133.548 179,132.5 C179,131.675 179.717,131 180.594,131 C181.47,131 182.423,130.1 182.71,129 C183.081,127.583 184.074,127 186.117,127 C188.088,127 189,126.496 189,125.406 C189,124.53 189.9,123.577 191,123.29 C192.1,123.002 193,122.144 193,121.383 C193,120.623 193.9,120 195,120 C196.333,120 197,119.333 197,118 C197,116.889 197.667,116 198.5,116 C199.325,116 200,115.325 200,114.5 C200,113.348 198.722,113 194.5,113 C190.278,113 189,113.348 189,114.5 Z M161,150.44 C161,151.381 159.704,151.987 157.258,152.19 C154.643,152.407 153.417,153.027 153.185,154.25 C152.893,155.792 153.754,156 160.427,156 L168,156 L168,152.5 C168,149.167 167.833,149 164.5,149 C162.121,149 161,149.461 161,150.44 Z"/>
</svg>

