<svg xmlns="http://www.w3.org/2000/svg" width="300" height="300" viewBox="0 0 300 300" version="1.1">
  <defs/>
  <path d="M157,103.348 C157,102.267 160.569,102 175,102 C189.659,102 193,102.257 193,103.383 C193,104.144 193.9,105.002 195,105.29 C196.532,105.69 197,106.654 197,109.406 C197,111.934 196.555,113 195.5,113 C194.675,113 194,113.717 194,114.594 C194,115.47 193.1,116.423 192,116.71 C190.9,116.998 190,117.856 190,118.617 C190,119.377 189.1,120 188,120 C186.242,120 186,120.667 186,125.5 C186,129.646 185.642,131 184.545,131 C183.675,131 182.827,132.405 182.434,134.5 C182.058,136.505 181.184,138 180.389,138 C179.342,138 178.997,139.664 178.986,144.75 C178.97,152.848 178.241,156 176.383,156 C175.436,156 175,157.261 175,160 C175,162.889 174.583,164 173.5,164 C172.404,164 171.996,165.145 171.986,168.25 C171.968,173.947 171.06,177 169.383,177 C168.373,177 168,178.484 168,182.5 C168,186.57 167.633,188 166.588,188 C165.72,188 164.915,189.541 164.5,192 C164.085,194.459 163.28,196 162.412,196 C161.465,196 161,197.152 161,199.5 C161,202.333 160.619,203 159,203 C156.91,203 156.624,203.993 157.63,207.75 C158.229,209.985 158.361,210 177.617,210 C193.208,210 197,210.264 197,211.348 C197,212.69 210.166,214 223.656,214 C228.927,214 229,214.041 229,217 Q229,220 227.5,220 C226.675,220 226,220.844 226,221.875 C226,223.171 225.044,223.941 222.902,224.37 C219.038,225.142 215,224.194 215,222.513 C215,221.559 211.131,221.139 199.435,220.825 C187.233,220.497 183.675,220.093 182.972,218.953 C181.628,216.777 151.35,216.82 150.001,219 C149.325,220.093 146.757,220.596 140.537,220.853 C134.062,221.12 132,221.543 132,222.603 C132,223.733 128.897,224.04 115.75,224.211 C79.476,224.682 78,224.61 78,222.375 C78,221.619 77.325,221 76.5,221 C75.667,221 75,220.111 75,219 C75,217.889 75.667,217 76.5,217 C77.325,217 78,216.345 78,215.545 C78,214.675 79.405,213.827 81.5,213.434 C83.505,213.058 85,212.184 85,211.389 C85,210.372 86.474,210 90.5,210 C94.516,210 96,209.627 96,208.617 C96,207.856 95.1,206.998 94,206.71 C92.9,206.423 92,205.47 92,204.594 C92,203.717 91.355,203 90.566,203 C88.779,203 88.374,192.726 88.8,158.25 C89.052,137.868 89.331,134 90.55,134 C91.541,134 92,132.891 92,130.5 L92,127 L81.5,127 C71.667,127 71,126.873 71,125 C71,123.9 71.646,123 72.437,123 C73.327,123 73.993,121.763 74.187,119.75 L74.5,116.5 L81.75,116.206 C87.296,115.981 89,115.57 89,114.456 C89,113.3 90.7,112.997 97.25,112.986 C106.804,112.971 110,112.318 110,110.383 C110,109.329 111.781,109 117.5,109 C123.5,109 125,108.7 125,107.5 C125,106.354 126.26,106 130.344,106 C143.834,106 157,104.69 157,103.348 Z M167,109.726 C166.175,110.038 165.14,110.902 164.7,111.647 C164.15,112.578 161.733,113 156.95,113 C151.439,113 150,113.311 150,114.5 C150,115.583 148.889,116 146,116 C143.111,116 142,115.583 142,114.5 C142,113.675 141.55,113 141,113 C140.45,113 140,113.675 140,114.5 C140,115.486 139.014,116 137.125,116 C135.544,116 132.821,116.286 131.075,116.635 C128.19,117.212 127.958,117.531 128.53,120.135 C129.065,122.572 128.848,123 127.079,123 C125.898,123 125,122.352 125,121.5 C125,120.31 123.556,120 118,120 C112.638,120 111,120.33 111,121.412 C111,122.28 109.459,123.085 107,123.5 L103,124.176 L103,129.088 C103,132.788 102.63,134 101.5,134 C100.373,134 100,135.206 100,138.853 C100,148.154 98.791,156 97.358,156 C96.261,156 96,159.743 96,175.5 C96,191.627 96.244,195 97.412,195 C98.28,195 99.085,196.541 99.5,199 C99.915,201.459 100.72,203 101.588,203 C102.365,203 103,203.675 103,204.5 C103,205.548 104.056,206 106.5,206 C108.944,206 110,205.548 110,204.5 C110,203.417 111.111,203 114,203 C116.789,203 118,202.57 118,201.579 C118,200.17 123.636,198.303 124.695,199.362 C126.09,200.757 123.831,203 121.031,203 C118.234,203 118,203.27 118,206.5 L118,210 L132,210 C145.333,210 146,209.905 146,208 C146,206.667 146.667,206 148,206 C149.333,206 150,205.333 150,204 C150,202.9 150.655,202 151.455,202 C152.325,202 153.173,200.595 153.566,198.5 C153.942,196.495 154.816,195 155.611,195 C156.607,195 157,193.617 157,190.117 C157,186.074 157.344,185.143 159,184.71 C160.745,184.254 161,183.346 161,177.594 C161,172.399 161.318,171 162.5,171 C163.486,171 164,170.014 164,168.125 C164,163.159 165.196,159 166.625,159 C167.608,159 168,157.576 168,154 C168,150.222 168.367,149 169.5,149 C170.565,149 171.003,147.913 171.009,145.25 C171.026,137.622 172.249,131 173.639,131 C174.56,131 175,129.707 175,127 C175,124.111 175.417,123 176.5,123 C177.325,123 178,122.325 178,121.5 C178,120.667 178.889,120 180,120 C181.333,120 182,119.333 182,118 C182,116.667 182.667,116 184,116 C185.619,116 186,115.333 186,112.5 L186,109 L177.25,109.079 C172.438,109.122 167.825,109.413 167,109.726 Z M106,78.5 C106,77.417 107.111,77 110,77 C112.889,77 114,77.417 114,78.5 C114,79.745 115.931,80 125.375,80 C138.446,80 143,80.678 143,82.625 C143,83.604 144.407,84 147.883,84 C151.926,84 152.857,84.344 153.29,86 C153.577,87.1 154.53,88 155.406,88 C156.561,88 157,88.964 157,91.5 C157,93.813 156.531,95 155.617,95 C154.856,95 153.998,95.9 153.71,97 C153.423,98.1 152.47,99 151.594,99 C150.717,99 150,99.675 150,100.5 C150,101.355 149.101,102 147.908,102 C146.008,102 145.848,101.519 146.158,96.75 L146.5,91.5 L141.25,91.198 C137.473,90.98 136,90.489 136,89.448 C136,88.258 133.68,88 123,88 C112.111,88 110,88.244 110,89.5 C110,90.325 109.347,91 108.55,91 C107.752,91 106.627,91.787 106.05,92.75 C105.05,94.417 104.95,94.417 103.95,92.75 C103.373,91.787 102.023,91 100.95,91 C98.842,91 98.48,88.85 99.625,83.125 C100.151,80.495 100.705,80 103.125,80 C105.014,80 106,79.486 106,78.5 Z M105.25,217.706 C104.013,217.944 103,218.783 103,219.57 C103,220.704 104.861,221 112,221 C120.333,221 121,220.852 121,219 C121,217.184 120.379,217.013 114.25,217.136 C110.537,217.211 106.487,217.467 105.25,217.706 Z"/>
</svg>

