<svg xmlns="http://www.w3.org/2000/svg" width="300" height="300" viewBox="0 0 300 300" version="1.1">
  <defs/>
  <path d="M149,125.387 C149,124.328 150.773,124 156.5,124 C162.5,124 164,124.3 164,125.5 C164,126.633 165.222,127 169,127 C173.333,127 174,127.267 174,129 C174,130.333 174.667,131 176,131 C177.111,131 178,131.667 178,132.5 C178,133.325 178.675,134 179.5,134 C180.742,134 181,135.889 181,145 C181,154.111 180.742,156 179.5,156 C178.379,156 177.997,157.201 177.986,160.75 C177.969,166.923 177.103,170 175.383,170 C174.289,170 174,172.301 174,181 C174,190.111 173.742,192 172.5,192 C171.31,192 171,193.444 171,199 C171,204.556 171.31,206 172.5,206 C173.538,206 174,207.043 174,209.389 C174,212.47 174.318,212.837 177.5,213.434 C179.595,213.827 181,214.675 181,215.545 C181,216.345 181.9,217 183,217 C184.1,217 185,217.623 185,218.383 C185,220.318 188.196,220.971 197.75,220.986 C204.411,220.997 206,221.289 206,222.5 C206,223.783 208.889,224 226,224 L246,224 L246,229.5 C246,234.333 245.758,235 244,235 C242.9,235 242,235.623 242,236.383 C242,238.198 238.86,238.973 231.5,238.973 C224.14,238.973 221,238.198 221,236.383 C221,235.623 220.1,235 219,235 C217.9,235 217,234.388 217,233.639 C217,232.579 213.521,232.122 201.244,231.572 C192.578,231.184 183.148,231.177 180.289,231.556 C172.09,232.644 152,231.114 152,229.401 C152,228.274 149.549,228 139.466,228 L126.932,228 L127.216,238.75 L127.5,249.5 L130.656,249.806 C134.774,250.206 135.338,252.498 134.438,265.19 C133.809,274.063 133.553,275 131.764,275 C130.417,275 129.97,275.478 130.362,276.5 C130.805,277.656 130.141,278 127.469,278 C124.107,278 124,277.88 124,274.125 C124,268.228 122.904,264 121.375,264 C120.259,264 120,260.606 120,246 C120,231.394 119.741,228 118.625,228 C116.754,228 116,223.511 116,212.375 L116,203 L112.5,203 C110.056,203 109,203.452 109,204.5 C109,205.325 108.283,206 107.406,206 C106.53,206 105.577,206.9 105.29,208 C104.897,209.503 103.926,210 101.383,210 C99.089,210 98,210.468 98,211.455 C98,212.325 96.595,213.173 94.5,213.566 C92.495,213.942 91,214.816 91,215.611 C91,216.532 89.82,217 87.5,217 C84.19,217 84,217.183 84,220.383 C84,222.926 83.503,223.897 82,224.29 C80.9,224.577 80,225.53 80,226.406 C80,227.283 79.325,228 78.5,228 C77.452,228 77,229.056 77,231.5 C77,234.333 76.619,235 75,235 C73.242,235 73,235.667 73,240.5 C73,244.722 72.652,246 71.5,246 C70.675,246 70,246.675 70,247.5 C70,248.333 69.111,249 68,249 C66.889,249 66,248.333 66,247.5 C66,246.639 65.098,246 63.883,246 C62.176,246 61.883,245.565 62.37,243.75 C62.701,242.512 62.979,240.938 62.986,240.25 C62.994,239.563 63.675,239 64.5,239 C65.548,239 66,237.944 66,235.5 C66,233.18 66.468,232 67.389,232 C68.184,232 69.058,230.505 69.434,228.5 C69.827,226.405 70.675,225 71.545,225 C72.345,225 73,224.1 73,223 C73,221.148 72.333,221 64,221 L55,221 L55,217.545 C55,214.389 55.302,214.034 58.5,213.434 C60.505,213.058 62,212.184 62,211.389 C62,210.435 63.254,210 66,210 C68.834,210 70,209.576 70,208.545 C70,207.675 71.405,206.827 73.5,206.434 C75.505,206.058 77,205.184 77,204.389 C77,203.468 78.18,203 80.5,203 C82.813,203 84,202.531 84,201.617 C84,200.041 87,199.034 91.75,199.014 C93.966,199.004 95,198.523 95,197.5 C95,196.675 95.717,196 96.594,196 C97.47,196 98.423,195.1 98.71,194 C99.074,192.608 100.074,192 102,192 C103.926,192 104.926,191.392 105.29,190 C105.665,188.565 106.654,188 108.79,188 C111.965,188 112.959,186.282 112.986,180.75 C112.997,178.662 112.518,178 111,178 C109.889,178 109,178.667 109,179.5 C109,180.466 108.022,181.005 106.25,181.014 C101.968,181.035 99,182.101 99,183.617 C99,184.641 97.442,185 93,185 C88.333,185 87,185.333 87,186.5 C87,187.738 85.167,188 76.5,188 L66,188 L66,178 L79.75,177.986 C94.696,177.972 98,177.5 98,175.383 C98,174.373 99.484,174 103.5,174 C108.333,174 109,173.758 109,172 C109,170.9 109.629,170 110.399,170 C111.396,170 111.998,167.995 112.5,163 C113.002,158.005 113.604,156 114.601,156 C115.371,156 116,155.1 116,154 C116,152.333 116.667,152 120,152 C123.333,152 124,152.333 124,154 C124,155.333 123.333,156 122,156 C120.242,156 120,156.667 120,161.5 L120,167 L125,167 C128.778,167 130,167.367 130,168.5 C130,169.487 129.013,170 127.117,170 C124.767,170 124.134,170.509 123.7,172.75 C123.406,174.262 123.41,176.738 123.708,178.25 C124.211,180.8 124.605,181 129.125,181 C132.792,181 134,180.628 134,179.5 C134,178.667 134.889,178 136,178 C137.333,178 138,177.333 138,176 C138,174.667 138.667,174 140,174 C141.1,174 142,173.345 142,172.545 C142,171.675 143.405,170.827 145.5,170.434 C148.5,169.871 149,169.382 149,167.005 C149,165.074 149.607,164.075 151,163.71 C152.1,163.423 153,162.47 153,161.594 C153,160.717 153.675,160 154.5,160 C155.325,160 156,160.623 156,161.383 C156,162.144 156.958,163.017 158.13,163.324 C159.605,163.709 160.066,164.386 159.63,165.522 C159.283,166.425 159,167.802 159,168.582 C159,169.362 158.325,170 157.5,170 C156.667,170 156,170.889 156,172 C156,173.619 155.333,174 152.5,174 C149.964,174 149,174.439 149,175.594 C149,176.47 148.1,177.423 147,177.71 C145.9,177.998 145,178.856 145,179.617 C145,180.627 146.484,181 150.5,181 C154.722,181 156,180.652 156,179.5 C156,178.477 157.034,177.996 159.25,177.986 C166.539,177.956 167,177.474 167,169.883 C167,164.431 167.312,163 168.5,163 C169.753,163 170,160.944 170,150.5 L170,138 L166.5,138 C164.187,138 163,137.531 163,136.617 C163,134.831 159.887,134.031 152.875,134.014 C145.351,133.995 141,134.952 141,136.625 C141,137.704 138.742,138 130.5,138 C120.667,138 120,138.127 120,140 C120,141.822 119.333,142 112.5,142 C106.5,142 105,142.3 105,143.5 C105,144.738 103.167,145 94.5,145 C84.667,145 84,145.127 84,147 C84,148.333 83.333,149 82,149 C80.889,149 80,149.667 80,150.5 C80,151.325 79.325,152 78.5,152 C77.667,152 77,152.889 77,154 C77,155.852 76.333,156 68,156 L59,156 L59,152.5 C59,150.187 59.469,149 60.383,149 C61.144,149 62.002,148.1 62.29,147 C62.69,145.468 63.654,145 66.406,145 C68.884,145 70,144.548 70,143.545 C70,142.675 71.405,141.827 73.5,141.434 C75.505,141.058 77,140.184 77,139.389 C77,138.372 78.474,138 82.5,138 C86.516,138 88,137.627 88,136.617 C88,134.759 91.152,134.03 99.25,134.014 C104.377,134.003 106,133.662 106,132.594 C106,131.502 108.242,131.111 116.038,130.844 C123.519,130.588 126.307,130.125 126.984,129.027 C127.665,127.925 130.549,127.456 138.447,127.164 C146.589,126.862 149,126.456 149,125.387 Z M94.696,31.656 C95.278,26.019 95.291,26 98.64,26 L102,26 L102,40.5 C102,52.136 101.728,55 100.625,55 C99.254,55 98,59.12 98,63.625 C98,65.831 98.383,66 103.383,66 C107.926,66 108.848,65.688 109.29,64 C109.769,62.167 110.654,62 119.906,62 C128.212,62 130,61.734 130,60.5 C130,59.233 132.333,59 145,59 C157.667,59 160,59.233 160,60.5 C160,61.325 160.675,62 161.5,62 C163.964,62 163.509,68.634 161,69.29 C159.9,69.577 159,70.53 159,71.406 C159,72.283 158.325,73 157.5,73 C156.667,73 156,73.889 156,75 C156,76.619 155.333,77 152.5,77 C149.083,77 149,76.905 149,73 C149,70.111 149.417,69 150.5,69 C151.325,69 152,68.325 152,67.5 C152,66.31 150.556,66 145,66 C139.727,66 138,66.339 138,67.375 C138,69.176 133.568,70 123.875,70 C117.542,70 116,70.294 116,71.5 C116,72.621 114.799,73.003 111.25,73.014 C105.077,73.031 102,73.897 102,75.617 C102,76.377 101.325,77 100.5,77 C99.675,77 99,77.717 99,78.594 C99,79.47 98.1,80.423 97,80.71 C95.9,80.998 95,81.856 95,82.617 C95,83.377 94.1,84 93,84 C91.889,84 91,84.667 91,85.5 C91,86.325 90.438,87.006 89.75,87.014 C89.063,87.021 87.487,87.299 86.25,87.63 C84.061,88.217 84,88.027 84,80.617 C84,74.821 84.329,73 85.375,73 C86.746,73 88,68.88 88,64.375 C88,63.045 88.595,62 89.353,62 C90.374,62 90.879,59.12 91.407,50.276 C91.793,43.827 92.559,38.272 93.11,37.932 C93.661,37.591 94.375,34.767 94.696,31.656 Z M145.75,188.728 C143.335,188.981 142,189.633 142,190.56 C142,191.539 140.879,192 138.5,192 C136.152,192 135,192.465 135,193.412 C135,194.28 133.459,195.085 131,195.5 C128.541,195.915 127,196.72 127,197.588 C127,198.365 126.325,199 125.5,199 C124.272,199 124,200.722 124,208.5 C124,216.278 124.272,218 125.5,218 C126.325,218 127,218.721 127,219.603 C127,220.94 128.121,221.166 133.75,220.96 C137.463,220.825 145.563,220.778 151.75,220.857 C161.02,220.975 163,221.264 163,222.5 C163,223.59 164.124,224 167.117,224 C170.898,224 171.184,223.817 170.63,221.75 C170.299,220.512 170.021,218.938 170.014,218.25 C170.006,217.563 169.325,217 168.5,217 C167.675,217 167,216.325 167,215.5 C167,214.667 166.111,214 165,214 C163.103,214 163,213.333 163,201 L163,188 L156.25,188.168 C152.537,188.261 147.813,188.513 145.75,188.728 Z M130,96.5 C130,95.292 131.556,95 138,95 C144.444,95 146,95.292 146,96.5 Q146,98 149,98 C151.833,98 152,98.222 152,102 C152,105.7 151.794,105.999 149.25,105.986 C144.968,105.965 142,104.899 142,103.383 C142,102.478 140.831,102 138.617,102 C136.074,102 135.103,102.497 134.71,104 C134.249,105.763 133.346,106 127.094,106 C121.455,106 120,106.308 120,107.5 C120,108.652 118.722,109 114.5,109 C109.632,109 109,109.234 109,111.039 C109,112.957 108.483,113.061 100.261,112.789 C92.87,112.545 91.471,112.23 91.188,110.75 C90.984,109.683 91.467,109 92.427,109 C93.292,109 94,108.283 94,107.406 C94,106.53 94.9,105.577 96,105.29 C97.1,105.002 98,104.144 98,103.383 C98,102.373 99.484,102 103.5,102 C107.5,102 109,101.625 109,100.625 C109,98.85 113.411,98 122.625,98 C128.514,98 130,97.698 130,96.5 Z"/>
</svg>

