<svg xmlns="http://www.w3.org/2000/svg" width="300" height="300" viewBox="0 0 300 300" version="1.1">
  <defs/>
  <path d="M152.25,110.706 C155.824,110.017 166.284,109.969 168.75,110.63 C170.396,111.071 171,111.976 171,114 C171,117.19 169.202,117.965 161.75,117.986 C158.201,117.997 157,118.379 157,119.5 C157,120.548 155.944,121 153.5,121 C151.104,121 150,121.459 150,122.455 C150,123.325 148.595,124.173 146.5,124.566 C144.575,124.927 143,125.797 143,126.5 C143,127.203 141.425,128.073 139.5,128.434 C137.405,128.827 136,129.675 136,130.545 C136,131.345 135.1,132 134,132 C132.667,132 132,132.667 132,134 C132,135.333 131.333,136 130,136 C128.9,136 128,136.625 128,137.389 C128,138.184 126.505,139.058 124.5,139.434 C122.405,139.827 121,140.675 121,141.545 C121,142.345 120.325,143 119.5,143 C118.675,143 118,143.675 118,144.5 C118,145.333 117.111,146 116,146 C114.667,146 114,146.667 114,148 C114,149.333 113.333,150 112,150 C110.667,150 110,150.667 110,152 C110,153.111 109.333,154 108.5,154 C107.675,154 107,154.675 107,155.5 C107,156.333 106.111,157 105,157 C103.9,157 103,157.655 103,158.455 C103,159.325 101.595,160.173 99.5,160.566 C94.236,161.554 95.075,163.808 101,164.594 C104.246,165.025 106,165.739 106,166.629 C106,167.741 109.495,168 124.5,168 L143,168 L143,153.5 C143,141.278 143.236,139 144.5,139 C145.325,139 146,138.325 146,137.5 C146,136.417 147.111,136 150,136 C152.889,136 154,136.417 154,137.5 C154,138.325 154.619,139 155.375,139 C156.804,139 158.409,144.53 157.437,146.103 C157.132,146.596 156.234,147 155.441,147 C154.332,147 154,148.519 154,153.594 C154,159.346 153.745,160.254 152,160.71 C149.491,161.366 149.036,168 151.5,168 C152.325,168 153,167.381 153,166.625 C153,164.908 157.366,164 165.625,164 C170.625,164 172,163.676 172,162.5 C172,161.285 173.606,161 180.45,161 C187.438,161 189.069,160.699 189.874,159.261 C190.643,157.887 192.543,157.445 198.924,157.155 C204.71,156.892 207,156.418 207,155.484 C207,154.107 220.616,152.481 226.5,153.156 C229.171,153.462 229.534,153.911 229.81,157.25 C230.095,160.688 229.908,161 227.56,161 C225.951,161 225,161.557 225,162.5 C225,163.698 223.514,164 217.625,164 C208.411,164 204,164.85 204,166.625 C204,167.708 201.667,168 193,168 C184.333,168 182,168.292 182,169.375 C182,171.06 177.658,172 169.875,172 C165.319,172 164,172.337 164,173.5 C164,174.621 162.799,175.003 159.25,175.014 C151.718,175.035 150,175.797 150,179.117 C150,180.896 149.474,182 148.625,182 C146.985,182 145.765,187.216 146.614,190.598 C146.945,191.919 147.843,193 148.608,193 C149.374,193 150,193.9 150,195 C150,196.333 150.667,197 152,197 C153.111,197 154,197.667 154,198.5 C154,199.325 154.675,200 155.5,200 C156.333,200 157,200.889 157,202 C157,203.333 157.667,204 159,204 C160.111,204 161,204.667 161,205.5 C161,206.325 161.717,207 162.594,207 C163.47,207 164.423,207.9 164.71,209 C165.081,210.417 166.074,211 168.117,211 C170.088,211 171,211.504 171,212.594 C171,213.47 171.9,214.423 173,214.71 C174.1,214.998 175,215.898 175,216.71 C175,217.523 175.9,218.423 177,218.71 C178.1,218.998 179,219.856 179,220.617 C179,221.377 179.675,222 180.5,222 C181.325,222 182,222.717 182,223.594 C182,224.47 182.9,225.423 184,225.71 C185.1,225.998 186,226.856 186,227.617 C186,228.377 186.9,229 188,229 C189.1,229 190,229.639 190,230.421 C190,231.202 191.35,232.138 193,232.5 C194.722,232.878 196,233.804 196,234.673 C196,235.506 196.9,236.423 198,236.71 C199.1,236.998 200,237.856 200,238.617 C200,239.377 200.9,240 202,240 C203.1,240 204,240.625 204,241.389 C204,242.184 205.495,243.058 207.5,243.434 C209.429,243.796 211,244.691 211,245.429 C211,246.165 211.9,247.002 213,247.29 C214.1,247.577 215,248.53 215,249.406 C215,250.283 215.623,251 216.383,251 C217.144,251 218.002,251.9 218.29,253 C218.577,254.1 219.53,255 220.406,255 C221.283,255 222,255.675 222,256.5 C222,257.325 222.623,258 223.383,258 C224.144,258 225.002,258.9 225.29,260 C225.577,261.1 226.53,262 227.406,262 C228.283,262 229,262.625 229,263.389 C229,264.184 230.495,265.058 232.5,265.434 C235.562,266.008 236,266.46 236,269.045 C236,271.755 235.71,272 232.5,272 C230.056,272 229,271.548 229,270.5 C229,269.452 227.944,269 225.5,269 C222.667,269 222,268.619 222,267 C222,265.667 221.333,265 220,265 C218.9,265 218,264.361 218,263.579 C218,262.798 216.65,261.862 215,261.5 C213.35,261.138 212,260.202 212,259.421 C212,258.639 211.152,258 210.117,258 C209.074,258 208,257.107 207.71,256 C207.423,254.9 206.47,254 205.594,254 C204.717,254 204,253.375 204,252.611 C204,251.816 202.505,250.942 200.5,250.566 C198.405,250.173 197,249.325 197,248.455 C197,247.655 196.1,247 195,247 C193.889,247 193,246.333 193,245.5 C193,244.675 192.283,244 191.406,244 C190.53,244 189.577,243.1 189.29,242 C189.002,240.9 188.144,240 187.383,240 C186.623,240 186,239.375 186,238.611 C186,237.816 184.505,236.942 182.5,236.566 C180.405,236.173 179,235.325 179,234.455 C179,233.655 178.1,233 177,233 C175.667,233 175,232.333 175,231 C175,229.889 174.333,229 173.5,229 C172.675,229 172,228.325 172,227.5 C172,226.667 171.111,226 170,226 C168.667,226 168,225.333 168,224 C168,222.667 167.333,222 166,222 C164.889,222 164,221.333 164,220.5 C164,219.675 163.325,219 162.5,219 C161.667,219 161,218.111 161,217 C161,215.667 160.333,215 159,215 C157.9,215 157,214.345 157,213.545 C157,212.675 155.595,211.827 153.5,211.434 C151.575,211.073 150,210.205 150,209.505 C150,208.806 149.1,207.998 148,207.71 C146.9,207.423 146,206.47 146,205.594 C146,204.348 144.908,204 141,204 C136.404,204 136,204.192 136,206.375 C136,210.88 134.746,215 133.375,215 C132.47,215 132,216.197 132,218.5 C132,221.333 131.619,222 130,222 C128.667,222 128,222.667 128,224 C128,225.111 127.333,226 126.5,226 C125.452,226 125,227.056 125,229.5 C125,232.333 124.619,233 123,233 C121.667,233 121,233.667 121,235 C121,236.111 120.333,237 119.5,237 C118.49,237 118,238.01 118,240.094 C118,242.346 117.456,243.329 116,243.71 C114.497,244.103 114,245.074 114,247.617 C114,250.333 113.606,251 112,251 C110.889,251 110,251.667 110,252.5 C110,253.325 109.325,254 108.5,254 C107.667,254 107,254.889 107,256 C107,257.333 106.333,258 105,258 C103.667,258 103,258.667 103,260 C103,261.1 102.377,262 101.617,262 C100.856,262 99.998,262.9 99.71,264 C99.423,265.1 98.47,266 97.594,266 C96.717,266 96,266.675 96,267.5 C96,268.325 95.377,269 94.617,269 C93.856,269 92.998,269.9 92.71,271 C92.423,272.1 91.47,273 90.594,273 C89.717,273 89,273.675 89,274.5 C89,275.333 88.111,276 87,276 C85.667,276 85,275.333 85,274 C85,272.889 84.333,272 83.5,272 C82.667,272 82,271.111 82,270 C82,268.889 82.667,268 83.5,268 C84.325,268 85,267.325 85,266.5 C85,265.462 86.043,265 88.389,265 C91.47,265 91.837,264.682 92.434,261.5 C92.827,259.405 93.675,258 94.545,258 C95.345,258 96,257.325 96,256.5 C96,255.675 96.717,255 97.594,255 C98.47,255 99.423,254.1 99.71,253 C99.998,251.9 100.806,251 101.505,251 C102.205,251 103.073,249.425 103.434,247.5 C103.827,245.405 104.675,244 105.545,244 C106.345,244 107,243.1 107,242 C107,240.889 107.667,240 108.5,240 C109.325,240 110,239.283 110,238.406 C110,237.53 110.9,236.577 112,236.29 C113.503,235.897 114,234.926 114,232.383 C114,230.089 114.468,229 115.455,229 C116.325,229 117.173,227.595 117.566,225.5 C117.942,223.495 118.816,222 119.611,222 C120.532,222 121,220.82 121,218.5 C121,215.667 121.381,215 123,215 C124.333,215 125,214.333 125,213 C125,211.889 125.667,211 126.5,211 C127.548,211 128,209.944 128,207.5 C128,204.667 128.381,204 130,204 C131.758,204 132,203.333 132,198.5 C132,194.354 132.358,193 133.455,193 C134.325,193 135.173,191.595 135.566,189.5 C135.942,187.495 136.816,186 137.611,186 C138.627,186 139,184.531 139,180.532 L139,175.063 L126.75,175.273 C120.013,175.388 106.287,175.374 96.25,175.241 C80.802,175.037 78,174.77 78,173.5 C78,172.652 77.104,172 75.94,172 C74.17,172 73.923,171.47 74.19,168.25 C74.473,164.826 74.783,164.473 77.75,164.187 C79.763,163.993 81,163.327 81,162.437 C81,161.454 82.136,161 84.594,161 C87.346,161 88.31,160.532 88.71,159 C89,157.893 90.074,157 91.117,157 C92.152,157 93,156.361 93,155.579 C93,154.798 94.35,153.862 96,153.5 C97.65,153.138 99,152.202 99,151.421 C99,150.639 99.9,150 101,150 C102.333,150 103,149.333 103,148 C103,146.667 103.667,146 105,146 C106.1,146 107,145.377 107,144.617 C107,143.856 107.9,142.998 109,142.71 C110.1,142.423 111,141.47 111,140.594 C111,139.717 111.675,139 112.5,139 C113.325,139 114,138.375 114,137.611 C114,136.816 115.495,135.942 117.5,135.566 C119.595,135.173 121,134.325 121,133.455 C121,132.655 121.9,132 123,132 C124.111,132 125,131.333 125,130.5 C125,129.675 125.717,129 126.594,129 C127.47,129 128.423,128.1 128.71,127 C129.086,125.565 130.074,125 132.21,125 C134.346,125 135.335,124.435 135.71,123 C136,121.893 137.074,121 138.117,121 C139.152,121 140,120.361 140,119.579 C140,118.798 141.35,117.862 143,117.5 C144.65,117.138 146,116.202 146,115.421 C146,114.639 146.9,114 148,114 C149.1,114 150,113.356 150,112.57 C150,111.783 151.012,110.944 152.25,110.706 Z M103,43.5 C103,42.667 103.889,42 105,42 C106.111,42 107,42.667 107,43.5 C107,44.325 107.675,45 108.5,45 C109.333,45 110,45.889 110,47 C110,48.111 109.333,49 108.5,49 C107.667,49 107,49.889 107,51 C107,52.1 106.377,53 105.617,53 C104.101,53 103.035,55.968 103.014,60.25 C103.005,62.022 102.466,63 101.5,63 C100.549,63 100,63.957 100,65.617 C100,67.842 100.336,68.143 102.25,67.63 C103.487,67.299 105.737,67.021 107.25,67.014 C109.022,67.005 110,66.466 110,65.5 C110,64.258 111.889,64 121,64 C130.111,64 132,64.258 132,65.5 C132,66.333 132.889,67 134,67 C135.629,67 136,67.667 136,70.594 C136,73.346 135.532,74.31 134,74.71 C132.9,74.998 132,75.856 132,76.617 C132,78.832 129.288,78.211 128.672,75.854 C128.159,73.892 127.658,73.763 122.805,74.345 C119.887,74.696 116.037,74.987 114.25,74.991 C112.032,74.997 111,75.476 111,76.5 C111,77.333 110.111,78 109,78 C107.393,78 107,78.667 107,81.389 C107,84.47 107.318,84.837 110.5,85.434 C112.595,85.827 114,86.675 114,87.545 C114,88.541 115.104,89 117.5,89 C119.944,89 121,89.452 121,90.5 C121,91.69 122.444,92 128,92 C134.333,92 135,92.19 135,94 C135,95.556 134.333,96 132,96 C130.121,96 129,96.514 129,97.375 C129,98.131 127.65,99.02 126,99.35 C121.96,100.158 117,99.07 117,97.375 C117,96.392 115.576,96 112,96 C108.315,96 107,95.621 107,94.56 C107,93.619 105.703,93.013 103.25,92.81 C100.238,92.561 99.437,92.057 99.18,90.25 C99.005,89.013 98.217,88 97.43,88 C95.287,88 95.708,86.31 98,85.71 C99.1,85.423 100,84.47 100,83.594 C100,82.667 99.163,82 98,82 C96.381,82 96,81.333 96,78.5 C96,76.056 95.548,75 94.5,75 C93.534,75 92.995,75.978 92.986,77.75 C92.965,82.032 91.899,85 90.383,85 C89.478,85 89,86.169 89,88.383 C89,90.926 88.503,91.897 87,92.29 C85.9,92.577 85,93.53 85,94.406 C85,95.283 84.375,96 83.611,96 C82.816,96 81.942,97.495 81.566,99.5 C81.173,101.595 80.325,103 79.455,103 C78.655,103 78,103.9 78,105 C78,106.1 77.345,107 76.545,107 C75.675,107 74.827,108.405 74.434,110.5 C74.058,112.505 73.184,114 72.389,114 C71.625,114 71,114.9 71,116 C71,117.333 70.333,118 69,118 C67.889,118 67,118.667 67,119.5 C67,121.726 64.316,121.318 63.71,119 C63.423,117.9 62.47,117 61.594,117 C60.717,117 60,116.325 60,115.5 C60,114.675 60.623,114 61.383,114 C62.144,114 63.002,113.1 63.29,112 C63.577,110.9 64.53,110 65.406,110 C66.336,110 67,109.162 67,107.99 C67,106.885 67.9,105.21 69,104.268 C70.245,103.202 71,101.318 71,99.278 C71,97.031 71.472,96 72.5,96 C73.325,96 74,95.283 74,94.406 C74,93.53 74.9,92.577 76,92.29 C77.392,91.926 78,90.926 78,89 C78,87.074 78.608,86.074 80,85.71 C81.197,85.397 82,84.346 82,83.094 C82,81.899 82.644,81 83.5,81 C84.633,81 85,79.778 85,76 C85,71.667 85.267,71 87,71 C88.619,71 89,70.333 89,67.5 C89,65.056 89.452,64 90.5,64 C91.523,64 92.004,62.966 92.014,60.75 C92.034,56 93.041,53 94.617,53 C95.377,53 96,52.1 96,51 C96,49.9 96.623,49 97.383,49 C98.144,49 99.002,48.1 99.29,47 C99.577,45.9 100.53,45 101.406,45 C102.283,45 103,44.325 103,43.5 Z M168,29.5 C168,28.348 169.278,28 173.5,28 L179,28 L179,33 C179,36.908 178.652,38 177.406,38 C176.53,38 175.577,38.9 175.29,40 C175,41.107 173.926,42 172.883,42 C171.667,42 171,42.708 171,44 C171,45.111 170.333,46 169.5,46 C168.452,46 168,47.056 168,49.5 C168,51.944 167.548,53 166.5,53 C165.675,53 165,53.675 165,54.5 C165,55.747 166.978,56.002 176.75,56.014 C189.728,56.029 193,56.553 193,58.617 C193,59.564 194.261,60 197,60 C199.889,60 201,60.417 201,61.5 C201,62.325 201.675,63 202.5,63 C203.333,63 204,63.889 204,65 C204,66.111 203.333,67 202.5,67 C201.667,67 201,67.889 201,69 C201,71.534 197.499,71.713 196.117,69.25 C195.239,67.684 193.231,67.5 176.997,67.5 C160.761,67.5 158.755,67.684 157.879,69.25 C157.341,70.213 156.248,71 155.45,71 C154.538,71 153.995,72.02 153.986,73.75 C153.965,78.032 152.899,81 151.383,81 C150.574,81 150,82.038 150,83.5 C150,84.993 149.428,86 148.579,86 C147.798,86 146.872,87.304 146.522,88.898 C146.122,90.722 145.073,92.015 143.693,92.385 C139.519,93.504 139,93.129 139,89 C139,86.166 139.424,85 140.455,85 C141.325,85 142.173,83.595 142.566,81.5 C142.942,79.495 143.816,78 144.611,78 C145.406,78 146,76.985 146,75.625 C146,71.12 147.254,67 148.625,67 C149.53,67 150,65.803 150,63.5 C150,61.104 150.459,60 151.455,60 C152.325,60 153.173,58.595 153.566,56.5 C153.942,54.495 154.816,53 155.611,53 C156.532,53 157,51.82 157,49.5 C157,46.667 157.381,46 159,46 C160.619,46 161,45.333 161,42.5 C161,40.152 161.465,39 162.412,39 C163.28,39 164.085,37.459 164.5,35 C164.915,32.541 165.72,31 166.588,31 C167.365,31 168,30.325 168,29.5 Z M164,76 C164,74.9 164.563,74.006 165.25,74.014 C168.16,74.045 171,75.331 171,76.617 C171,77.377 171.9,78 173,78 C174.1,78 175,78.625 175,79.389 C175,80.184 176.495,81.058 178.5,81.434 C180.595,81.827 182,82.675 182,83.545 C182,84.345 182.9,85 184,85 C185.333,85 186,85.667 186,87 C186,88.333 186.667,89 188,89 C189.111,89 190,89.667 190,90.5 C190,91.325 190.675,92 191.5,92 C192.333,92 193,92.889 193,94 C193,95.333 193.667,96 195,96 C196.852,96 197,96.667 197,105 L197,114 L190,114 L189.986,109.25 C189.969,103.077 189.103,100 187.383,100 C186.623,100 186,99.1 186,98 C186,96.667 185.333,96 184,96 C182.9,96 182,95.345 182,94.545 C182,93.675 180.595,92.827 178.5,92.434 C176.575,92.073 175,91.215 175,90.528 C175,89.767 172.952,89.036 169.756,88.658 C166.872,88.316 164.359,87.578 164.173,87.018 C163.986,86.458 163.196,86 162.417,86 C161.431,86 161,84.784 161,82 C161,79.111 161.417,78 162.5,78 C163.333,78 164,77.111 164,76 Z"/>
</svg>

