<svg xmlns="http://www.w3.org/2000/svg" width="300" height="300" viewBox="0 0 300 300" version="1.1">
  <defs/>
  <path d="M170,42.5 C170,41.452 171.056,41 173.5,41 C175.944,41 177,41.452 177,42.5 C177,43.735 178.812,44.002 187.25,44.014 C198.757,44.029 202,44.601 202,46.617 C202,47.564 203.261,48 206,48 L210,48 L210,53.5 C210,58.333 209.758,59 208,59 C206.889,59 206,59.667 206,60.5 C206,61.633 204.778,62 201,62 C197.222,62 196,61.633 196,60.5 C196,59.23 193.569,59 180.125,59 L164.25,59 L163.625,62.125 C163.281,63.844 163,70.186 163,76.219 C163,86.346 163.153,87.227 165,87.71 C166.756,88.169 167,89.074 167,95.117 C167,100.323 167.338,102 168.389,102 C169.184,102 170.058,100.505 170.434,98.5 C170.827,96.405 171.675,95 172.545,95 C173.532,95 174,93.91 174,91.611 C174,88.53 174.318,88.163 177.5,87.566 C179.595,87.173 181,86.325 181,85.455 C181,84.358 182.354,84 186.5,84 L192,84 L192,87.5 C192,89.944 192.452,91 193.5,91 C194.548,91 195,92.056 195,94.5 C195,96.944 194.548,98 193.5,98 C192.667,98 192,98.889 192,100 C192,102.905 198.53,102.905 199.29,100 C199.671,98.544 200.654,98 202.906,98 C204.879,98 206,97.497 206,96.611 C206,95.816 207.495,94.942 209.5,94.566 C211.595,94.173 213,93.325 213,92.455 C213,91.57 213.979,91 215.5,91 C217.056,91 218,90.433 218,89.5 C218,88.675 218.628,88 219.396,88 C220.458,88 220.73,86.627 220.532,82.25 C220.123,73.154 220.087,73 218.37,73 C217.023,73 216.83,72.197 217.261,68.376 C217.548,65.833 218.24,63.47 218.799,63.124 C219.359,62.778 220.133,60.809 220.52,58.748 C221.037,55.988 221.721,55 223.111,55 C224.15,55 225,54.325 225,53.5 C225,52.367 226.222,52 230,52 L235,52 L235,55.5 C235,58.333 234.619,59 233,59 C231.889,59 231,59.667 231,60.5 C231,61.325 230.325,62 229.5,62 C228.278,62 228,63.667 228,71 C228,79.333 228.148,80 230,80 C231.111,80 232,79.333 232,78.5 Q232,77 235,77 Q238,77 238,78.5 C238,79.325 237.325,80 236.5,80 C235.452,80 235,81.056 235,83.5 C235,85.944 234.548,87 233.5,87 C232.417,87 232,88.111 232,91 C232,93.889 232.417,95 233.5,95 C234.754,95 235.001,97.087 235.009,107.75 C235.02,123.839 235.83,131 237.639,131 C238.701,131 239,133.311 239,141.5 C239,149.729 239.297,152 240.371,152 C241.407,152 241.917,154.694 242.456,163 C243.006,171.484 243.492,174 244.584,174 C245.7,174 246,175.905 246,183 C246,189.9 246.316,192 247.353,192 C248.968,192 250,201.997 250,217.651 L250,228 L246,228 C243.111,228 242,228.417 242,229.5 C242,230.716 240.389,231 233.5,231 C226.611,231 225,230.716 225,229.5 C225,228.348 223.722,228 219.5,228 C215.5,228 214,227.625 214,226.625 C214,225.254 209.88,224 205.375,224 C203.931,224 203,223.412 203,222.5 C203,221.348 201.722,221 197.5,221 C192.667,221 192,220.758 192,219 C192,217.381 191.333,217 188.5,217 C186.056,217 185,216.548 185,215.5 C185,214.675 184.283,214 183.406,214 C182.53,214 181.577,213.1 181.29,212 C181,210.893 179.926,210 178.883,210 C177.848,210 177,209.325 177,208.5 C177,207.675 176.325,207 175.5,207 C174.417,207 174,205.889 174,203 C174,200.007 174.401,199 175.594,199 C176.47,199 177.423,199.9 177.71,201 C177.998,202.1 178.856,203 179.617,203 C180.377,203 181,203.675 181,204.5 C181,205.325 181.717,206 182.594,206 C183.47,206 184.423,206.9 184.71,208 C185.103,209.503 186.074,210 188.617,210 C190.848,210 192,210.476 192,211.399 C192,212.396 194.005,212.998 199,213.5 C203.995,214.002 206,214.604 206,215.601 C206,216.675 207.742,217 213.5,217 C219.219,217 221,217.329 221,218.383 C221,220.242 224.153,220.97 232.28,220.986 L239.06,221 L238.5,195.668 L219.951,195.904 C200.471,196.151 196,195.682 196,193.392 C196,192.357 194.459,192 190,192 C185.333,192 184,191.667 184,190.5 C184,189.016 183.35,188.819 177.5,188.524 C175.85,188.441 172.813,188.289 170.75,188.187 C168.166,188.058 167,187.534 167,186.5 C167,185.667 166.111,185 165,185 C163.889,185 163,185.667 163,186.5 C163,187.325 162.325,188 161.5,188 C160.417,188 160,189.111 160,192 C160,194.889 160.417,196 161.5,196 C162.735,196 163.002,197.812 163.014,206.25 C163.029,217.757 163.601,221 165.617,221 C166.707,221 167,223.227 167,231.5 C167,240.167 167.262,242 168.5,242 C169.325,242 170,241.325 170,240.5 C170,239.667 170.889,239 172,239 C173.81,239 174,239.667 174,246 C174,251.306 173.664,253 172.611,253 C171.816,253 170.942,254.495 170.566,256.5 C169.966,259.698 169.611,260 166.455,260 C164.051,260 163,259.544 163,258.5 C163,257.675 162.325,257 161.5,257 C160.327,257 159.999,255.636 159.994,250.75 C159.982,238.327 158.783,228 157.352,228 C156.302,228 156,225.655 156,217.5 C156,209.311 155.701,207 154.639,207 C153.129,207 152.023,200.228 152.009,190.889 L152,185.279 L146.756,184.658 C143.872,184.316 141.359,183.578 141.173,183.018 C140.986,182.458 140.196,182 139.417,182 C138.637,182 138,181.14 138,180.088 C138,178.636 138.964,178.013 142,177.5 C144.459,177.085 146,176.28 146,175.412 C146,174.635 146.675,174 147.5,174 C148.548,174 149,172.944 149,170.5 C149,167.167 148.833,167 145.5,167 C142.964,167 142,167.439 142,168.594 C142,169.47 141.1,170.423 140,170.71 C138.9,170.998 138,171.856 138,172.617 C138,173.377 137.1,174 136,174 C134.667,174 134,174.667 134,176 C134,177.111 133.333,178 132.5,178 C131.675,178 131,178.675 131,179.5 C131,180.333 130.111,181 129,181 C127.667,181 127,181.667 127,183 C127,184.333 126.333,185 125,185 C123.889,185 123,185.667 123,186.5 C123,187.325 122.325,188 121.5,188 C120.667,188 120,188.889 120,190 C120,191.333 119.333,192 118,192 C116.889,192 116,192.667 116,193.5 C116,194.325 115.325,195 114.5,195 C113.578,195 113,195.937 113,197.429 C113,200.978 110.434,203 105.929,203 C102.105,203 102,202.906 102,199.5 C102,196.964 102.439,196 103.594,196 C104.47,196 105.423,195.1 105.71,194 C105.998,192.9 106.803,192 107.5,192 C108.197,192 109.002,191.1 109.29,190 C109.577,188.9 110.53,188 111.406,188 C112.283,188 113,187.325 113,186.5 C113,185.675 113.675,185 114.5,185 C115.333,185 116,184.111 116,183 C116,181.667 116.667,181 118,181 C119.333,181 120,180.333 120,179 C120,177.889 120.667,177 121.5,177 C122.325,177 123,176.325 123,175.5 C123,174.667 123.889,174 125,174 C126.333,174 127,173.333 127,172 C127,170.889 127.667,170 128.5,170 C129.325,170 130,169.283 130,168.406 C130,167.53 130.9,166.577 132,166.29 C133.1,166.002 134,165.144 134,164.383 C134,163.623 134.9,163 136,163 C137.111,163 138,162.333 138,161.5 C138,160.31 136.556,160 131,160 C125.444,160 124,160.31 124,161.5 C124,162.652 122.722,163 118.5,163 C113.667,163 113,163.242 113,165 C113,166.1 112.377,167 111.617,167 C110.041,167 109.034,170 109.014,174.75 C108.995,179.225 106.417,179.038 105.566,174.5 C105.173,172.405 104.325,171 103.455,171 C102.655,171 102,170.1 102,169 C102,167.889 101.333,167 100.5,167 C99.667,167 99,166.111 99,165 C99,163.889 99.667,163 100.5,163 C101.333,163 102,162.111 102,161 C102,159.889 102.667,159 103.5,159 C104.325,159 105,158.325 105,157.5 C105,156.417 106.111,156 109,156 C111.739,156 113,155.564 113,154.617 C113,152.897 116.077,152.031 122.25,152.014 C125.751,152.004 127,151.614 127,150.534 C127,149.354 129.1,149.012 137.75,148.784 L148.5,148.5 L148.793,141.855 C149.041,136.238 149.389,135.132 151.043,134.699 C152.119,134.418 153,133.47 153,132.594 C153,131.348 154.092,131 158,131 C162.333,131 163,130.733 163,129 C163,127.9 162.377,127 161.617,127 C160.856,127 159.993,125.763 159.7,124.25 C158.954,120.41 159.984,116 161.625,116 C162.608,116 163,114.576 163,111 C163,107.361 162.616,106 161.588,106 C160.72,106 159.915,104.459 159.5,102 C159.085,99.541 158.28,98 157.412,98 C156.286,98 156,95.876 156,87.5 C156,78.833 155.738,77 154.5,77 C153.667,77 153,76.111 153,75 C153,73.889 153.667,73 154.5,73 C155.548,73 156,71.944 156,69.5 C156,67.056 155.548,66 154.5,66 C153.667,66 153,65.111 153,64 C153,62.889 153.667,62 154.5,62 C155.69,62 156,60.556 156,55 C156,48.667 156.19,48 158,48 C159.333,48 160,47.333 160,46 C160,44.267 160.667,44 165,44 C168.778,44 170,43.633 170,42.5 Z M70,85.375 C70,84.266 73.091,84 86,84 C99.113,84 102,84.255 102,85.412 C102,86.28 103.541,87.085 106,87.5 C108.459,87.915 110,88.72 110,89.588 C110,90.365 110.675,91 111.5,91 C112.325,91 113,91.655 113,92.455 C113,93.325 114.405,94.173 116.5,94.566 C119.033,95.041 120,95.745 120,97.111 C120,98.15 120.639,99 121.421,99 C122.202,99 123.138,100.35 123.5,102 C123.862,103.65 124.798,105 125.579,105 C126.638,105 127,106.427 127,110.594 C127,115.346 127.301,116.266 129,116.71 C130.407,117.078 131,118.074 131,120.071 C131,122.508 130.519,123 127.594,123.548 C124.693,124.093 124.093,124.693 123.548,127.594 C123.169,129.615 122.318,131 121.455,131 C120.655,131 120,131.675 120,132.5 C120,133.325 119.283,134 118.406,134 C117.53,134 116.577,134.9 116.29,136 C115.802,137.864 114.926,138 103.383,138 C91.667,138 91,138.108 91,140 C91,141.852 90.333,142 82,142 L73,142 L73,136.5 C73,131.667 73.242,131 75,131 C76.333,131 77,130.333 77,129 C77,127.667 76.333,127 75,127 C73.9,127 73,126.375 73,125.611 C73,124.816 71.505,123.942 69.5,123.566 C66.059,122.92 66,122.825 66,117.955 C66,114.217 65.632,113 64.5,113 C63.262,113 63,114.833 63,123.5 C63,132.167 63.262,134 64.5,134 C65.794,134 66,137.5 66,159.5 C66,180.34 66.249,185 67.361,185 C69.229,185 69.981,192.245 69.991,210.358 L70,225.217 L72.748,224.527 C76.293,223.637 76.15,223.852 76.747,218.549 C77.078,215.614 77.746,214 78.63,214 C79.707,214 80,216.353 80,225 C80,234.111 79.742,236 78.5,236 C77.452,236 77,237.056 77,239.5 C77,241.944 76.548,243 75.5,243 C74.675,243 74,243.675 74,244.5 C74,245.583 72.889,246 70,246 L66,246 L66,238.5 C66,232.781 65.671,231 64.617,231 C62.553,231 62.029,227.728 62.014,214.75 C62.003,205.194 61.731,203 60.559,203 C59.365,203 59.066,199.661 58.809,183.462 C58.603,170.398 58.127,163.688 57.376,163.212 C56.757,162.82 55.934,161.037 55.546,159.25 C54.984,156.658 55.161,156 56.421,156 C58.367,156 58.668,149.389 56.75,148.751 C55.816,148.441 55.418,142.979 55.178,127.168 C54.911,109.646 54.609,106 53.428,106 C52.364,106 52,104.598 52,100.5 C52,95.092 52.049,95 54.912,95 C57.54,95 57.891,94.602 58.514,90.917 C59.129,87.279 59.454,86.897 61.504,87.412 C64.8,88.239 70,86.992 70,85.375 Z M215.75,98.689 C214.787,98.941 214,99.789 214,100.573 C214,101.528 212.88,102 210.617,102 C208.074,102 207.103,102.497 206.71,104 C206.329,105.456 205.346,106 203.094,106 C201.01,106 200,106.49 200,107.5 C200,108.583 198.889,109 196,109 C192.667,109 192,109.333 192,111 C192,112.333 191.333,113 190,113 C188.9,113 188,113.639 188,114.421 C188,115.202 186.65,116.138 185,116.5 C183.35,116.862 182,117.798 182,118.579 C182,119.428 180.993,120 179.5,120 C178.038,120 177,120.574 177,121.383 C177,123.103 173.923,123.969 167.75,123.986 C164.201,123.997 163,124.379 163,125.5 C163,126.333 163.889,127 165,127 C166.607,127 167,127.667 167,130.389 C167,133.445 166.67,133.839 163.628,134.41 C160.488,134.999 160.22,135.357 159.742,139.599 C159.459,142.106 159.454,145.021 159.731,146.078 C160.294,148.231 162.609,148.673 163.249,146.75 C163.555,145.83 168.33,145.412 181.332,145.167 C195.756,144.896 199,144.575 199,143.417 C199,142.43 200.215,142 203,142 C205.889,142 207,142.417 207,143.5 C207,144.552 208.062,145 210.56,145 C214.063,145 214.116,145.061 213.81,148.75 L213.5,152.5 L202.75,152.784 C194.1,153.012 192,153.354 192,154.534 C192,155.744 189.816,156 179.5,156 C167.667,156 167,156.107 167,158 C167,159.111 167.667,160 168.5,160 C169.633,160 170,161.222 170,165 C170,168.778 169.633,170 168.5,170 C167.675,170 167,169.325 167,168.5 C167,167.667 166.111,167 165,167 C163.667,167 163,166.333 163,165 C163,163.381 162.333,163 159.5,163 C156.667,163 156,163.381 156,165 C156,166.111 156.667,167 157.5,167 C158.548,167 159,168.056 159,170.5 C159,173.917 159.095,174 163,174 C165.727,174 167,174.438 167,175.375 C167,176.746 171.12,178 175.625,178 C177.069,178 178,178.588 178,179.5 C178,180.69 179.444,181 185,181 C191.333,181 192,181.19 192,183 C192,184.758 192.667,185 197.5,185 C201.722,185 203,185.348 203,186.5 C203,187.778 205.667,188 221,188 C236.059,188 239,187.763 239,186.55 C239,185.752 238.237,184.672 237.304,184.15 C236.055,183.451 235.497,181.462 235.187,176.6 C234.885,171.85 234.379,170 233.384,170 C232.312,170 231.998,168.029 231.991,161.25 C231.979,148.969 231.027,142 229.361,142 C228.314,142 228,139.924 228,133 C228,126.076 227.686,124 226.639,124 C225.047,124 224.022,117.126 224.009,106.367 C224.001,99.818 223.816,99.184 221.75,98.63 C219.317,97.978 218.438,97.987 215.75,98.689 Z M80.75,91.72 C78.339,91.978 77,92.635 77,93.56 C77,94.529 75.895,95 73.625,95 C70.667,95 70.175,95.375 69.644,98.032 C69.31,99.699 69.318,103.749 69.661,107.032 L70.285,113 L82.642,113 C92.52,113 95,113.279 95,114.389 C95,115.184 96.495,116.058 98.5,116.434 C101.562,117.008 102,117.46 102,120.045 C102,122.826 102.236,123 106,123 C108.889,123 110,122.583 110,121.5 C110,120.367 111.222,120 115,120 L120,120 L120,116.5 C120,114.18 119.532,113 118.611,113 C117.816,113 116.942,111.505 116.566,109.5 C116.173,107.405 115.325,106 114.455,106 C113.655,106 113,105.1 113,104 C113,102.667 112.333,102 111,102 C109.9,102 109,101.345 109,100.545 C109,99.675 107.595,98.827 105.5,98.434 C103.575,98.073 102,97.209 102,96.514 C102,95.248 97.759,94 93.458,94 C92.198,94 91.017,93.605 90.833,93.122 C90.382,91.933 85.332,91.231 80.75,91.72 Z M84,121.383 C84,122.144 83.1,123.002 82,123.29 C80.9,123.577 80,124.53 80,125.406 C80,126.691 81.187,127 86.117,127 C91.972,127 92.207,126.904 91.63,124.75 C91.299,123.513 91.021,121.938 91.014,121.25 C91.005,120.491 89.626,120 87.5,120 C85.187,120 84,120.469 84,121.383 Z M181,96.5 C181,97.325 180.325,98 179.5,98 C178.667,98 178,98.889 178,100 C178,101.619 178.667,102 181.5,102 C184.833,102 185,101.833 185,98.5 C185,95.667 184.619,95 183,95 C181.889,95 181,95.667 181,96.5 Z M174,235 Q174,232 175.5,232 Q177,232 177,235 Q177,238 175.5,238 Q174,238 174,235 Z M55.667,98.667 C54.449,99.885 54.978,102 56.5,102 C57.333,102 58,101.111 58,100 C58,98.008 56.934,97.399 55.667,98.667 Z"/>
</svg>

