<svg xmlns="http://www.w3.org/2000/svg" width="300" height="300" viewBox="0 0 300 300" version="1.1">
  <defs/>
  <path d="M146.29,46 C146.779,44.13 147.654,44 159.781,44 C174.401,44 179,44.628 179,46.625 C179,47.661 180.727,48 186,48 C191.556,48 193,48.31 193,49.5 C193,50.333 193.889,51 195,51 C196.333,51 197,51.667 197,53 C197,54.1 197.648,55 198.441,55 C200.694,55 201.261,56.775 200.542,61.571 C200.141,64.241 199.353,66 198.555,66 C197.828,66 196.998,66.9 196.71,68 C196.31,69.532 195.346,70 192.594,70 C190.066,70 189,70.445 189,71.5 C189,72.771 186.556,73 173,73 C157.667,73 157,73.083 157,75 C157,76.111 156.333,77 155.5,77 C154.348,77 154,78.278 154,82.5 C154,86.722 154.348,88 155.5,88 C156.633,88 157,89.222 157,93 C157,97.333 157.267,98 159,98 C160.111,98 161,97.333 161,96.5 C161,95.452 162.056,95 164.5,95 C167.333,95 168,94.619 168,93 C168,91.667 168.667,91 170,91 C171.1,91 172,90.345 172,89.545 C172,88.675 173.405,87.827 175.5,87.434 C177.505,87.058 179,86.184 179,85.389 C179,84.625 179.675,84 180.5,84 C181.325,84 182,84.717 182,85.594 C182,86.47 182.9,87.423 184,87.71 C186.266,88.303 186.765,92 184.579,92 C183.286,92 181.263,97.597 182.214,98.547 C182.436,98.769 184.954,98.674 187.809,98.336 C191.219,97.932 193,97.255 193,96.361 C193,95.42 194.352,95 197.375,95 C203.741,95 208,93.948 208,92.375 C208,91.474 209.189,91 211.449,91 L214.898,91 L214.768,84 C214.681,79.286 214.245,77 213.436,77 C212.025,77 211.033,73.824 211.014,69.25 C211.003,66.662 211.407,66 213,66 C214.333,66 215,65.333 215,64 C215,62.381 215.667,62 218.5,62 C221.333,62 222,62.381 222,64 C222,65.333 222.667,66 224,66 C225.1,66 226,66.639 226,67.421 C226,68.202 227.308,69.128 228.906,69.479 C231.991,70.157 234.012,74.388 232.142,76.258 C230.929,77.471 229,76.357 229,74.441 C229,72.251 225.886,72.72 225.29,75 C225.002,76.1 224.144,77 223.383,77 C222.623,77 222,77.675 222,78.5 C222,79.325 222.675,80 223.5,80 C224.548,80 225,81.056 225,83.5 C225,86.917 225.095,87 229,87 C231.889,87 233,86.583 233,85.5 C233,84.452 234.056,84 236.5,84 C239.333,84 240,84.381 240,86 C240,87.333 239.333,88 238,88 C236.889,88 236,88.667 236,89.5 C236,90.554 234.935,91 232.419,91 L228.838,91 L229.169,109.038 C229.438,123.689 229.78,127.248 230.991,127.996 C232.056,128.653 232.586,131.212 232.847,136.958 C233.105,142.652 233.587,145 234.497,145 C235.422,145 235.983,148.081 236.5,156 C237.048,164.382 237.55,167 238.609,167 C239.723,167 240,169.492 240,179.5 C240,189.439 240.282,192 241.375,192 C243.06,192 244,196.342 244,204.125 C244,208.681 244.337,210 245.5,210 C246.782,210 247,212.844 247,229.594 C247,248.346 247.086,249.21 249,249.71 C251.25,250.299 251.756,253 249.617,253 C248.856,253 247.998,253.9 247.71,255 C247.222,256.866 246.346,257 234.594,257 C222.667,257 222,256.894 222,255 C222,253.381 221.333,253 218.5,253 C216.18,253 215,252.532 215,251.611 C215,250.816 213.505,249.942 211.5,249.566 C209.405,249.173 208,248.325 208,247.455 C208,246.213 203.46,246 177,246 C150.883,246 146,246.224 146,247.42 C146,248.426 144.157,249.038 139.688,249.517 C132.256,250.313 112.471,249.81 111.464,248.799 C111.08,248.414 110.535,246.052 110.253,243.549 C109.787,239.414 109.934,239 111.87,239 C113.333,239 114,238.374 114,237 C114,235.19 114.667,235 121,235 L128,235 L128,227.125 C128,217.432 128.824,213 130.625,213 C131.381,213 132,212.325 132,211.5 C132,210.675 131.325,210 130.5,210 C129.675,210 129,209.325 129,208.5 C129,207.667 128.111,207 127,207 C125.889,207 125,207.667 125,208.5 C125,209.538 123.957,210 121.617,210 C119.074,210 118.103,210.497 117.71,212 C117.31,213.532 116.346,214 113.594,214 C111.201,214 110,214.462 110,215.383 C110,217.105 106.917,217.708 100.75,217.194 L96,216.799 L96,211.945 C96,207.189 96.071,207.077 99.5,206.434 C101.505,206.058 103,205.184 103,204.389 C103,203.594 104.015,203 105.375,203 C109.88,203 114,201.746 114,200.375 C114,199.339 115.727,199 121,199 C126.997,199 128.001,198.749 128.009,197.25 C128.013,196.287 128.301,193.138 128.648,190.25 L129.279,185 L121.639,185 C115.515,185 114,185.298 114,186.5 C114,187.548 112.944,188 110.5,188 C108.056,188 107,187.548 107,186.5 C107,185.667 106.111,185 105,185 C103.371,185 103,184.333 103,181.406 C103,178.654 103.468,177.69 105,177.29 C106.1,177.002 107,176.144 107,175.383 C107,174.316 108.912,174 115.383,174 C123.232,174 123.805,173.856 124.37,171.75 C125.312,168.232 125.103,153.182 124.103,152.563 C122.53,151.591 117,153.196 117,154.625 C117,155.684 115.045,156 108.5,156 C101.389,156 100,156.26 100,157.594 C100,158.47 99.1,159.423 98,159.71 C96.497,160.103 96,161.074 96,163.617 C96,167.439 93.201,168.483 92.29,165 C92.002,163.9 91.144,163 90.383,163 C89.623,163 89,162.325 89,161.5 C89,160.675 88.352,160 87.559,160 C83.514,160 84.859,153.41 89.094,152.479 C90.692,152.128 92,151.265 92,150.56 C92,149.739 94.03,149.07 97.656,148.696 C100.767,148.375 103.673,147.529 104.114,146.815 C104.629,145.982 107.792,145.388 112.958,145.153 C118.994,144.879 121,144.44 121,143.394 C121,142.627 121.9,142 123,142 C124.333,142 125,141.333 125,140 C125,138.9 125.625,138 126.389,138 C127.184,138 128.058,136.505 128.434,134.5 L129.091,131 L135.545,131 C140.616,131 142,131.322 142,132.5 C142,133.583 143.111,134 146,134 C149.333,134 150,134.333 150,136 C150,137.619 150.667,138 153.5,138 C156.811,138 157,138.183 157,141.389 C157,144.47 156.682,144.837 153.5,145.434 C151.405,145.827 150,146.675 150,147.545 C150,148.68 148.459,149 143,149 C136.298,149 136,149.101 136,151.375 C136,155.88 134.746,160 133.375,160 C132.339,160 132,161.727 132,167 L132,174 L139.5,174 C145.396,174 147,174.311 147,175.455 C147,176.325 148.405,177.173 150.5,177.566 C152.505,177.942 154,178.816 154,179.611 C154,180.375 154.675,181 155.5,181 C156.333,181 157,181.889 157,183 C157,184.333 157.667,185 159,185 C160.1,185 161,185.651 161,186.448 C161,187.489 162.473,187.98 166.25,188.198 L171.5,188.5 L171.5,195.5 L166.25,195.802 C162.473,196.02 161,196.511 161,197.552 C161,198.64 159.634,199 155.5,199 C151.484,199 150,199.373 150,200.383 C150,201.885 147.04,202.965 142.867,202.986 C139.825,203.002 139.035,204.902 139.014,212.25 C139.003,215.799 138.621,217 137.5,217 C136.279,217 136,218.654 136,225.884 L136,234.767 L142.568,235.185 C146.546,235.438 149.46,236.126 149.956,236.929 C150.572,237.925 154.965,238.327 167.638,238.545 C176.912,238.705 185.512,238.599 186.75,238.309 C189.268,237.721 189.826,236 187.5,236 C186.675,236 186,235.152 186,234.117 C186,233.074 185.107,232 184,231.71 C182.9,231.423 182,230.47 182,229.594 C182,228.717 181.325,228 180.5,228 C179.675,228 179,227.283 179,226.406 C179,225.53 178.1,224.577 177,224.29 C173.959,223.494 174.612,221.328 178.103,220.629 C181.62,219.926 183,220.47 183,222.559 C183,223.352 183.675,224 184.5,224 C185.333,224 186,224.889 186,226 C186,227.333 186.667,228 188,228 C189.1,228 190,228.66 190,229.466 C190,230.469 191.576,231.14 195,231.594 C198.246,232.025 200,232.739 200,233.629 C200,234.383 200.9,235 202,235 C203.333,235 204,235.667 204,237 C204,238.619 204.667,239 207.5,239 C209.944,239 211,239.452 211,240.5 C211,241.555 212.066,242 214.594,242 C217.346,242 218.31,242.468 218.71,244 C219.143,245.656 220.074,246 224.117,246 C227.791,246 229,246.371 229,247.5 C229,248.652 230.278,249 234.5,249 L240,249 L240,240 C240,233.105 239.684,231 238.648,231 C237.24,231 236.018,220.716 236.006,208.75 C236.002,204.496 235.636,203 234.603,203 C233.543,203 233.12,200.938 232.853,194.463 C232.596,188.242 232.093,185.676 231,185.001 C229.796,184.258 229.433,181.009 229.16,168.538 C228.886,155.993 228.549,153 227.41,153 C226.489,153 225.995,151.874 225.986,149.75 C225.966,145 224.959,142 223.383,142 C222.303,142 222,139.922 222,132.5 C222,125.154 221.691,123 220.639,123 C219.15,123 218.024,116.255 218.009,107.25 C218.002,103.254 217.642,102 216.5,102 C215.675,102 215,101.325 215,100.5 C215,99.452 213.944,99 211.5,99 C209.056,99 208,99.452 208,100.5 C208,101.648 206.735,102 202.617,102 C198.074,102 197.152,102.312 196.71,104 C196.274,105.67 195.346,106 191.094,106 C187.233,106 186,106.363 186,107.5 C186,108.538 184.957,109 182.617,109 C180.074,109 179.103,109.497 178.71,111 C178.254,112.745 177.346,113 171.594,113 C166.399,113 165,113.318 165,114.5 C165,115.722 163.333,116 156,116 C148.667,116 147,115.722 147,114.5 C147,113.675 147.675,113 148.5,113 C149.69,113 150,111.556 150,106 C150,100.638 149.67,99 148.588,99 C147.72,99 146.915,97.459 146.5,95 C146.085,92.541 145.28,91 144.412,91 C143.321,91 143,89.293 143,83.5 C143,77.686 143.319,76 144.421,76 C145.202,76 146.138,74.65 146.5,73 L147.159,70 L164.673,70 C181.346,70 182.212,69.904 182.71,68 C183.103,66.497 184.074,66 186.617,66 C188.957,66 190,65.538 190,64.5 C190,63.675 190.675,63 191.5,63 C192.333,63 193,62.111 193,61 C193,59.9 192.377,59 191.617,59 C190.856,59 189.998,58.1 189.71,57 C189.208,55.08 188.346,55 168.182,55 L147.176,55 L146.485,59.09 C145.882,62.656 145.519,63.106 143.647,62.603 C142.466,62.287 140.938,62.021 140.25,62.014 C139.37,62.004 139,59.926 139,55 L139,48 L142.383,48 C144.926,48 145.897,47.503 146.29,46 Z M64,75 C64,73.428 66.722,73.833 67.362,75.5 C67.678,76.325 68.626,77 69.469,77 C70.552,77 71,78.024 71,80.5 L71,84 L76,84 C79.568,84 81,84.392 81,85.371 C81,86.304 82.915,86.958 87,87.42 C91.263,87.903 93,88.519 93,89.55 C93,90.494 94.046,91 96,91 C98.078,91 99,91.49 99,92.594 C99,93.47 99.858,94.412 100.906,94.686 C102.12,95.003 103.044,96.421 103.451,98.592 C103.831,100.614 104.682,102 105.545,102 C106.345,102 107,102.9 107,104 C107,105.1 107.66,106 108.466,106 C109.469,106 110.14,107.576 110.594,111 C111.216,115.685 111.439,116 114.129,116 C116.014,116 117,115.485 117,114.5 C117,113.417 118.111,113 121,113 C124.905,113 125,113.083 125,116.5 C125,119.917 124.905,120 121,120 C118.166,120 117,120.424 117,121.455 C117,122.325 115.595,123.173 113.5,123.566 C111.495,123.942 110,124.816 110,125.611 C110,126.611 108.6,127 105,127 C100.667,127 100,127.267 100,129 C100,130.333 99.333,131 98,131 C96.889,131 96,131.667 96,132.5 C96,133.548 94.944,134 92.5,134 C89.667,134 89,134.381 89,136 C89,137.852 88.333,138 80,138 L71,138 L71,127 L74.5,127 C76.803,127 78,126.53 78,125.625 C78,124.254 82.12,123 86.625,123 C88.069,123 89,122.412 89,121.5 C89,120.452 90.056,120 92.5,120 C95.833,120 96,119.833 96,116.5 L96,113 L87,113 C79.791,113 78,113.29 78,114.455 C78,115.325 76.595,116.173 74.5,116.566 C72.495,116.942 71,117.816 71,118.611 C71,119.565 69.746,120 67,120 C63.456,120 63,119.729 63,117.625 C63,113.12 64.254,109 65.625,109 C66.381,109 67,108.388 67,107.639 C67,106.042 73.881,105.022 84.75,105.009 L92,105 L92,102.117 C92,99.044 90.228,98.041 84.75,98.014 C82.978,98.005 82,97.466 82,96.5 C82,95.333 80.667,95 76,95 C71.333,95 70,95.333 70,96.5 C70,97.325 69.325,98 68.5,98 C67.667,98 67,98.889 67,100 C67,101.333 66.333,102 65,102 C63.667,102 63,102.667 63,104 C63,105.111 62.333,106 61.5,106 C60.189,106 60,111.611 60,150.5 C60,187.591 60.229,195 61.375,195 C63.266,195 64,199.506 64,211.125 C64,219.236 64.268,221 65.5,221 C66.333,221 67,220.111 67,219 C67,217.667 67.667,217 69,217 C70.619,217 71,216.333 71,213.5 C71,210.167 71.167,210 74.5,210 L78,210 L78,215.5 C78,219.646 77.642,221 76.545,221 C75.675,221 74.827,222.405 74.434,224.5 C74.073,226.425 73.203,228 72.5,228 C71.797,228 70.938,229.515 70.591,231.367 C70.014,234.441 69.586,234.785 65.667,235.322 C57.971,236.377 57.364,235.836 56.64,227.269 C56.288,223.105 56,216.616 56,212.849 C56,207.631 55.665,206 54.594,206 C53.5,206 53.111,203.74 52.844,195.832 C52.607,188.844 52.109,185.535 51.25,185.249 C49.774,184.758 49.541,178 51,178 C51.55,178 52,177.1 52,176 C52,174.9 51.55,174 51,174 C50.45,174 50,172.425 50,170.5 C50,168.575 50.45,167 51,167 C51.55,167 52,164.525 52,161.5 C52,158.475 51.55,156 51,156 C50.45,156 50,153.525 50,150.5 C50,147.475 50.397,145 50.882,145 C51.367,145 52.095,133.75 52.5,120 C53.096,99.746 53.498,95 54.618,95 C55.627,95 56,93.514 56,89.5 C56,84.667 56.242,84 58,84 C59.667,84 60,83.333 60,80 C60,76.667 60.333,76 62,76 C63.1,76 64,75.55 64,75 Z M141.75,188.689 C140.787,188.941 140,189.789 140,190.573 C140,191.663 141.537,192 146.5,192 C151.368,192 153,191.653 153,190.617 C153,188.439 146.782,187.374 141.75,188.689 Z"/>
</svg>

