<svg xmlns="http://www.w3.org/2000/svg" width="300" height="300" viewBox="0 0 300 300" version="1.1">
  <defs/>
  <path d="M181,85.5 C181,84.217 183.889,84 201,84 L221,84 L221,98.5 C221,110.179 220.731,113 219.617,113 C217.897,113 217.031,116.077 217.014,122.25 C217.003,125.799 216.621,127 215.5,127 C214.477,127 213.996,128.034 213.986,130.25 C213.966,135 212.959,138 211.383,138 C210.436,138 210,139.262 210,142.009 L210,146.017 L221,144.725 L221,148.362 C221,151.871 220.873,152 217.406,152 C214.654,152 213.69,152.468 213.29,154 C212.857,155.656 211.926,156 207.883,156 L203,156 L203,159.5 C203,162.333 202.619,163 201,163 C199.242,163 199,163.667 199,168.5 C199,172.722 198.652,174 197.5,174 C196.452,174 196,175.056 196,177.5 C196,180.333 195.619,181 194,181 C192.381,181 192,181.667 192,184.5 C192,186.803 191.53,188 190.625,188 C188.985,188 187.765,193.216 188.614,196.598 C189.082,198.463 189.884,199 192.202,199 C194.346,199 195.335,199.563 195.71,201 C196,202.107 197.074,203 198.117,203 C199.152,203 200,203.639 200,204.421 C200,205.202 201.35,206.138 203,206.5 C204.65,206.862 206,207.798 206,208.579 C206,209.536 207.143,210 209.5,210 C212.036,210 213,210.439 213,211.594 C213,212.47 213.9,213.423 215,213.71 C216.1,213.998 217,214.856 217,215.617 C217,216.531 218.187,217 220.5,217 C223.333,217 224,217.381 224,219 C224,220.333 224.667,221 226,221 C227.1,221 228,221.625 228,222.389 C228,223.184 229.495,224.058 231.5,224.434 C233.595,224.827 235,225.675 235,226.545 C235,227.532 236.089,228 238.383,228 C240.926,228 241.897,228.497 242.29,230 C242.577,231.1 243.53,232 244.406,232 C245.283,232 246,232.675 246,233.5 C246,234.584 247.112,235 250.01,235 C252.782,235 254.548,235.617 255.732,237 C256.798,238.245 258.682,239 260.722,239 C262.969,239 264,239.472 264,240.5 C264,241.69 265.444,242 271,242 L278,242 L278,250 L269.406,250 C261.654,250 260.762,249.804 260.29,248 C259.857,246.344 258.926,246 254.883,246 C251.344,246 250,245.611 250,244.588 C250,243.72 248.459,242.915 246,242.5 C243.541,242.085 242,241.28 242,240.412 C242,239.465 240.848,239 238.5,239 C235.667,239 235,238.619 235,237 C235,235.381 234.333,235 231.5,235 C229.18,235 228,234.532 228,233.611 C228,232.816 226.505,231.942 224.5,231.566 C222.405,231.173 221,230.325 221,229.455 C221,228.655 220.1,228 219,228 C217.9,228 217,227.345 217,226.545 C217,225.675 215.595,224.827 213.5,224.434 C211.495,224.058 210,223.184 210,222.389 C210,221.625 209.1,221 208,221 C206.9,221 206,220.345 206,219.545 C206,218.675 204.595,217.827 202.5,217.434 C200.563,217.071 199,216.178 199,215.434 C199,214.69 197.437,213.797 195.5,213.434 C193.495,213.058 192,212.184 192,211.389 C192,210.625 191.377,210 190.617,210 C189.856,210 188.998,209.1 188.71,208 C187.946,205.079 181,205.079 181,208 C181,209.1 180.375,210 179.611,210 C178.816,210 177.942,211.495 177.566,213.5 C177.173,215.595 176.325,217 175.455,217 C174.459,217 174,218.104 174,220.5 C174,223.036 173.561,224 172.406,224 C171.53,224 170.577,224.9 170.29,226 C170.002,227.1 169.144,228 168.383,228 C167.623,228 167,228.9 167,230 C167,231.1 166.345,232 165.545,232 C164.675,232 163.827,233.405 163.434,235.5 C163.073,237.425 162.205,239 161.505,239 C160.806,239 159.998,239.9 159.71,241 C159.423,242.1 158.47,243 157.594,243 C156.717,243 156,243.675 156,244.5 C156,245.548 154.944,246 152.5,246 L149,246 L149,240.5 C149,235.667 149.242,235 151,235 C152.1,235 153,234.361 153,233.579 C153,232.798 154.336,231.866 155.968,231.507 C158.366,230.98 159.06,230.196 159.58,227.428 C159.945,225.478 160.822,224 161.611,224 C162.532,224 163,222.82 163,220.5 C163,217.667 163.381,217 165,217 C166.619,217 167,216.333 167,213.5 C167,211.056 167.452,210 168.5,210 C169.333,210 170,209.111 170,208 C170,206.667 170.667,206 172,206 C173.727,206 174,205.333 174,201.111 C174,196.316 173.933,196.21 170.5,195.566 C168.405,195.173 167,194.325 167,193.455 C167,192.655 166.1,192 165,192 C163.667,192 163,191.333 163,190 C163,188.889 162.333,188 161.5,188 C160.675,188 160,187.283 160,186.406 C160,185.53 159.1,184.577 158,184.29 C156.9,184.002 156,183.144 156,182.383 C156,181.623 155.345,181 154.545,181 C153.675,181 152.827,179.595 152.434,177.5 C152.058,175.495 151.184,174 150.389,174 C149.389,174 149,172.6 149,169 L149,164 L152.5,164 C154.944,164 156,164.452 156,165.5 C156,166.333 156.889,167 158,167 C159.619,167 160,167.667 160,170.5 C160,172.944 160.452,174 161.5,174 C162.325,174 163,174.675 163,175.5 C163,176.333 163.889,177 165,177 C166.333,177 167,177.667 167,179 C167,180.333 167.667,181 169,181 C170.111,181 171,181.667 171,182.5 C171,183.325 171.675,184 172.5,184 C173.333,184 174,184.889 174,186 C174,187.619 174.667,188 177.5,188 C179.813,188 181,187.531 181,186.617 C181,185.856 181.9,184.998 183,184.71 C184.67,184.274 185,183.346 185,179.094 C185,175.329 185.375,174 186.439,174 C188.007,174 189.711,165.96 188.544,164.071 C188.18,163.482 186.334,163 184.441,163 C182.049,163 181,162.543 181,161.5 C181,160.675 180.352,160 179.559,160 C177.306,160 176.739,158.225 177.458,153.429 L178.123,149 L199,149 L199.014,145.75 C199.034,141 200.041,138 201.617,138 C202.564,138 203,136.739 203,134 C203,131.111 203.417,130 204.5,130 C205.682,130 206,128.601 206,123.406 C206,117.654 206.255,116.746 208,116.29 C209.865,115.802 210,114.926 210,103.27 L210,90.773 L199.447,91.164 C192.087,91.436 188.644,91.957 188.07,92.886 C187.618,93.619 185.167,94.452 182.624,94.739 C179.469,95.095 178,95.725 178,96.724 C178,97.529 177.1,98.423 176,98.71 C174.481,99.108 174,100.074 174,102.733 C174,105.875 173.77,106.172 171.75,105.63 C170.512,105.299 168.938,105.021 168.25,105.014 C167.381,105.004 167,103.035 167,98.545 L167,92.091 L170.5,91.434 C173.033,90.959 174,90.255 174,88.889 C174,87.397 174.735,87 177.5,87 C179.944,87 181,86.548 181,85.5 Z M108,109.726 C108.825,109.413 111.862,109.122 114.75,109.079 C118.713,109.019 120,109.356 120,110.455 C120,111.318 121.385,112.169 123.406,112.548 C126.307,113.093 126.907,113.693 127.452,116.594 C127.803,118.467 128.52,120 129.045,120 C130.376,120 130.247,123.751 128.902,124.199 C128.298,124.401 127.564,126.688 127.272,129.283 C126.755,133.867 126.645,134 123.37,134 L120,134 L120,120 L111,120 C102.667,120 102,120.148 102,122 C102,123.619 101.333,124 98.5,124 L95,124 L95,138 C95,149.778 95.238,152 96.5,152 C97.325,152 98,151.325 98,150.5 C98,149.456 99.05,149 101.45,149 C103.655,149 105.243,148.388 105.85,147.304 C106.549,146.055 108.538,145.497 113.4,145.187 C117.839,144.905 120,144.352 120,143.5 C120,141.952 124.513,140.971 128.25,141.708 C129.762,142.006 131,142.869 131,143.625 C131,144.381 131.675,145 132.5,145 C133.538,145 134,146.044 134,148.392 C134,151.139 133.543,151.898 131.598,152.386 C130.276,152.718 127.815,152.713 126.128,152.376 C121.357,151.421 112,152.876 112,154.572 C112,155.619 110.666,156 107,156 C103.41,156 102,156.39 102,157.383 C102,158.144 101.034,159.019 99.854,159.328 C97.892,159.841 97.763,160.342 98.345,165.195 C98.696,168.113 98.987,173.762 98.991,177.75 C98.998,183.524 99.305,185 100.5,185 C101.69,185 102,186.444 102,192 C102,198.333 102.19,199 104,199 C105.111,199 106,198.333 106,197.5 C106,196.675 106.675,196 107.5,196 C108.333,196 109,195.111 109,194 C109,192.667 109.667,192 111,192 C112.333,192 113,191.333 113,190 C113,188.889 113.667,188 114.5,188 C115.325,188 116,187.325 116,186.5 C116,185.667 116.889,185 118,185 C119.333,185 120,184.333 120,183 C120,181.667 120.667,181 122,181 C123.111,181 124,180.333 124,179.5 C124,178.452 125.056,178 127.5,178 C129.944,178 131,178.452 131,179.5 C131,180.325 131.675,181 132.5,181 C133.333,181 134,181.889 134,183 C134,184.111 133.333,185 132.5,185 C131.675,185 131,185.625 131,186.389 C131,187.184 129.505,188.058 127.5,188.434 C125.405,188.827 124,189.675 124,190.545 C124,191.345 123.1,192 122,192 C120.667,192 120,192.667 120,194 C120,195.111 119.333,196 118.5,196 C117.675,196 117,196.675 117,197.5 C117,198.333 116.111,199 115,199 C113.667,199 113,199.667 113,201 C113,202.1 112.345,203 111.545,203 C110.675,203 109.827,204.405 109.434,206.5 C109.058,208.505 108.184,210 107.389,210 C106.625,210 106,210.717 106,211.594 C106,212.47 105.1,213.423 104,213.71 C102.9,213.998 102,214.856 102,215.617 C102,216.377 101.325,217 100.5,217 C99.675,217 98.994,217.563 98.986,218.25 C98.979,218.938 98.701,220.512 98.37,221.75 C97.826,223.78 98.121,224 101.383,224 C103.836,224 105,223.544 105,222.584 C105,221.459 107.482,221.099 117.072,220.834 C127.313,220.551 129.292,220.234 130.122,218.75 C130.845,217.455 132.371,217 135.991,217 C141.438,217 142.353,217.745 141.429,221.428 C140.957,223.308 139.933,224.109 137.398,224.585 C135.471,224.947 134,225.824 134,226.611 C134,227.708 131.793,228 123.5,228 C115.258,228 113,228.296 113,229.375 C113,230.948 108.741,232 102.375,232 C99.153,232 98,232.395 98,233.5 C98,234.575 96.903,235 94.125,235 C88.228,235 84,236.096 84,237.625 C84,238.53 82.803,239 80.5,239 C78.202,239 77,239.471 77,240.371 C77,242.023 67.135,243.377 62.238,242.398 C59.028,241.756 57.618,239 60.5,239 C61.333,239 62,238.111 62,237 C62,235.667 62.667,235 64,235 C65.111,235 66,234.333 66,233.5 C66,232.452 67.056,232 69.5,232 C72.333,232 73,231.619 73,230 C73,228.381 73.667,228 76.5,228 C79.036,228 80,227.561 80,226.406 C80,225.53 80.9,224.577 82,224.29 C83.1,224.002 84,223.144 84,222.383 C84,221.623 84.9,221 86,221 C87.333,221 88,220.333 88,219 C88,217.889 88.667,217 89.5,217 C90.325,217 91,216.325 91,215.5 C91,214.337 89.681,214 85.125,214 C77.342,214 73,213.06 73,211.375 C73,210.619 72.325,210 71.5,210 C70.675,210 70,209.325 70,208.5 C70,207.667 69.111,207 68,207 C66.533,207 66,206.333 66,204.5 C66,202.979 65.43,202 64.545,202 C62.861,202 61.688,197.024 62.173,191.933 C62.477,188.739 62.743,188.5 66,188.5 C69.218,188.5 69.525,188.762 69.813,191.75 C70,193.691 70.681,195 71.503,195 C72.372,195 72.994,196.384 73.19,198.75 C73.473,202.174 73.783,202.527 76.75,202.813 C78.763,203.007 80,203.673 80,204.563 C80,205.638 81.386,206 85.5,206 L91,206 L91,186.5 C91,170.564 90.747,167 89.617,167 C88.856,167 87.998,166.1 87.71,165 C87.423,163.9 86.47,163 85.594,163 C84.439,163 84,163.964 84,166.5 C84,169.851 83.847,170 80.406,170 C77.654,170 76.69,170.468 76.29,172 C75.819,173.799 74.926,174 67.383,174 L59,174 L59,170.5 C59,168.109 59.459,167 60.45,167 C61.248,167 62.305,166.277 62.799,165.394 C63.336,164.435 65.537,163.581 68.264,163.274 C71.628,162.894 72.959,162.265 73.321,160.88 C73.669,159.551 74.72,159 76.906,159 C78.99,159 80,158.51 80,157.5 C80,156.452 81.056,156 83.5,156 C86.833,156 87,155.833 87,152.5 C87,150.056 86.548,149 85.5,149 C84.31,149 84,147.556 84,142 C84,136.262 83.713,135 82.406,135 C81.53,135 80.577,134.1 80.29,133 C80.002,131.9 79.144,131 78.383,131 C77.623,131 77,130.1 77,129 C77,127.889 77.667,127 78.5,127 C79.548,127 80,125.944 80,123.5 C80,120.19 80.183,120 83.383,120 C85.926,120 86.897,119.503 87.29,118 C87.69,116.468 88.654,116 91.406,116 C93.934,116 95,115.555 95,114.5 C95,113.369 96.217,113 99.95,113 C103.052,113 105.199,112.494 105.7,111.647 C106.14,110.902 107.175,110.038 108,109.726 Z M86.25,51.706 C89.862,51.01 93.333,50.982 95.75,51.63 C97.807,52.182 98,52.824 98,59.117 L98,66 L94.5,66 C92.056,66 91,65.548 91,64.5 C91,63.675 90.325,63 89.5,63 C88.675,63 88,63.675 88,64.5 C88,65.333 87.111,66 86,66 C84.667,66 84,66.667 84,68 C84,69.1 83.345,70 82.545,70 C81.675,70 80.827,71.405 80.434,73.5 C80.058,75.505 79.184,77 78.389,77 C77.625,77 77,77.675 77,78.5 C77,79.333 76.111,80 75,80 C73.381,80 73,80.667 73,83.5 C73,85.944 72.548,87 71.5,87 C70.667,87 70,87.889 70,89 C70,90.333 69.333,91 68,91 C66.394,91 66,91.667 66,94.383 C66,96.926 65.503,97.897 64,98.29 C62.9,98.577 62,99.53 62,100.406 C62,101.283 61.325,102 60.5,102 C59.667,102 59,102.889 59,104 C59,105.1 58.361,106 57.579,106 C56.798,106 55.862,107.35 55.5,109 C55.138,110.65 54.202,112 53.421,112 C52.639,112 52,112.942 52,114.094 C52,115.346 51.197,116.397 50,116.71 C48.583,117.081 48,118.074 48,120.117 C48,122.088 47.496,123 46.406,123 C45.53,123 44.577,123.9 44.29,125 C44.002,126.1 43.144,127 42.383,127 C41.478,127 41,128.169 41,130.383 C41,132.926 40.503,133.897 39,134.29 C37.9,134.577 37,135.53 37,136.406 C37,137.561 37.964,138 40.5,138 C42.944,138 44,138.452 44,139.5 C44,140.325 43.325,141 42.5,141 C41.667,141 41,141.889 41,143 C41,144.333 40.333,145 39,145 C37.667,145 37,145.667 37,147 C37,148.619 36.333,149 33.5,149 C31.056,149 30,149.452 30,150.5 C30,151.548 28.944,152 26.5,152 L23,152 L23,147 C23,143.4 23.389,142 24.389,142 C25.184,142 26.058,140.505 26.434,138.5 C26.827,136.405 27.675,135 28.545,135 C29.43,135 30,134.021 30,132.5 C30,131.007 30.572,130 31.421,130 C32.202,130 33.138,128.65 33.5,127 C33.862,125.35 34.748,124 35.468,124 C36.188,124 37.073,122.425 37.434,120.5 C37.827,118.405 38.675,117 39.545,117 C40.345,117 41,116.1 41,115 C41,113.889 41.667,113 42.5,113 C43.333,113 44,112.111 44,111 C44,109.667 44.667,109 46,109 C47.619,109 48,108.333 48,105.5 C48,102.667 48.381,102 50,102 C51.333,102 52,101.333 52,100 C52,98.889 52.667,98 53.5,98 C54.548,98 55,96.944 55,94.5 C55,91.667 55.381,91 57,91 C58.619,91 59,90.333 59,87.5 C59,85.056 59.452,84 60.5,84 C61.325,84 62,83.283 62,82.406 C62,81.53 62.9,80.577 64,80.29 C65.503,79.897 66,78.926 66,76.383 C66,73.667 66.394,73 68,73 C69.111,73 70,72.333 70,71.5 C70,70.675 70.675,70 71.5,70 C72.548,70 73,68.944 73,66.5 C73,63.964 73.439,63 74.594,63 C75.47,63 76.423,62.1 76.71,61 C76.998,59.9 77.856,59 78.617,59 C79.377,59 80,58.283 80,57.406 C80,56.53 80.9,55.577 82,55.29 C83.1,55.002 84,54.176 84,53.453 C84,52.73 85.013,51.944 86.25,51.706 Z M84,78.383 C84,77.373 85.484,77 89.5,77 C93.722,77 95,77.348 95,78.5 C95,79.412 95.931,80 97.375,80 C101.88,80 106,81.254 106,82.625 C106,83.741 109.394,84 124,84 C138.886,84 142,84.246 142,85.421 C142,86.202 143.304,87.128 144.898,87.478 C148.973,88.373 150.825,95 147,95 C145.381,95 145,95.667 145,98.5 C145,101.833 144.833,102 141.5,102 C138.19,102 138,101.817 138,98.616 L138,95.233 L131.25,94.513 C127.537,94.116 124.179,93.276 123.787,92.646 C123.324,91.901 118.158,91.379 109.037,91.154 C97.817,90.878 95,90.526 95,89.404 C95,88.369 93.555,88 89.5,88 C84.667,88 84,87.758 84,86 C84,84.667 83.333,84 82,84 C80.837,84 80,83.333 80,82.406 C80,81.53 80.9,80.577 82,80.29 C83.1,80.002 84,79.144 84,78.383 Z"/>
</svg>

