<svg xmlns="http://www.w3.org/2000/svg" width="300" height="300" viewBox="0 0 300 300" version="1.1">
  <defs/>
  <path d="M168,35.406 C168,34.273 170.426,34 180.5,34 C190.944,34 193,34.247 193,35.5 C193,36.333 193.889,37 195,37 C196.333,37 197,37.667 197,39 C197,40.111 197.667,41 198.5,41 C199.548,41 200,42.056 200,44.5 C200,46.813 199.531,48 198.617,48 C197.856,48 196.998,48.9 196.71,50 C196.423,51.1 195.653,52 195,52 C194.347,52 193.577,51.1 193.29,50 C193.002,48.9 192.197,48 191.5,48 C190.803,48 189.998,47.1 189.71,46 C189.238,44.194 188.346,44 180.5,44 C172.654,44 171.762,44.194 171.29,46 C170.919,47.417 169.926,48 167.883,48 C166.067,48 165,48.522 165,49.412 C165,50.28 163.459,51.085 161,51.5 L157,52.176 L157,73.588 C157,94.333 157.062,95 159,95 C160.333,95 161,94.333 161,93 C161,91.9 161.625,91 162.389,91 C163.184,91 164.058,89.505 164.434,87.5 C164.827,85.405 165.675,84 166.545,84 C167.345,84 168,83.1 168,82 C168,80.889 168.667,80 169.5,80 C170.325,80 171,79.325 171,78.5 C171,77.348 172.278,77 176.5,77 L182,77 L182,80.5 C182,82.944 181.548,84 180.5,84 C179.667,84 179,84.889 179,86 C179,87.111 178.333,88 177.5,88 C176.675,88 176,88.717 176,89.594 C176,90.47 175.1,91.423 174,91.71 C172.9,91.998 172,92.856 172,93.617 C172,94.377 171.1,95 170,95 C168.889,95 168,95.667 168,96.5 C168,97.742 169.889,98 179,98 C188.111,98 190,97.742 190,96.5 C190,95.262 191.833,95 200.5,95 L211,95 L211,85.5 C211,77.722 210.728,76 209.5,76 C208.396,76 208,74.85 208,71.647 C208,62.806 206.761,55 205.358,55 C204.315,55 204,52.914 204,46 L204,37 L207.929,37 C212.945,37 215,39.055 215,44.071 C215,46.897 215.421,48 216.5,48 C217.712,48 218.001,49.586 218.006,56.25 C218.016,70.516 219.136,81 220.648,81 C221.655,81 222,82.786 222,88 C222,93.368 222.33,95 223.415,95 C225.084,95 226.314,105.685 225.832,116 C225.665,119.575 225.635,129.137 225.764,137.25 C225.955,149.175 226.27,152 227.412,152 C228.556,152 228.889,155.052 229.162,168.038 C229.434,180.956 229.792,184.255 231,185 C232.141,185.703 232.582,188.444 232.841,196.462 C233.089,204.134 233.527,207 234.452,207 C235.707,207 236.973,213.853 236.991,220.75 C236.997,222.968 237.476,224 238.5,224 C239.742,224 240,225.889 240,235 C240,243.699 239.711,246 238.617,246 C237.856,246 236.981,246.966 236.672,248.146 C236.159,250.108 235.658,250.237 230.805,249.655 C227.887,249.304 223.137,249.013 220.25,249.009 C216.254,249.002 215,248.642 215,247.5 C215,246.348 213.722,246 209.5,246 C205.5,246 204,245.625 204,244.625 C204,243.254 199.88,242 195.375,242 C193.931,242 193,241.412 193,240.5 C193,239.667 192.111,239 191,239 C189.9,239 189,238.361 189,237.579 C189,236.798 187.65,235.862 186,235.5 C184.278,235.122 183,234.196 183,233.327 C183,232.494 182.1,231.577 181,231.29 C179.9,231.002 179,230.144 179,229.383 C179,228.623 178.1,228 177,228 C175.667,228 175,227.333 175,226 C175,224.9 174.345,224 173.545,224 C172.675,224 171.827,222.595 171.434,220.5 C171.058,218.495 170.184,217 169.389,217 C168.336,217 168,215.306 168,210 C168,204.707 168.337,203 169.383,203 C170.959,203 171.966,206 171.986,210.75 C171.996,212.966 172.477,214 173.5,214 C174.325,214 175,214.623 175,215.383 C175,216.144 175.9,217.002 177,217.29 C178.436,217.665 179,218.654 179,220.795 C179,223.412 179.429,223.858 182.5,224.434 C184.595,224.827 186,225.675 186,226.545 C186,227.345 186.9,228 188,228 C189.1,228 190,228.655 190,229.455 C190,230.325 191.405,231.173 193.5,231.566 C195.505,231.942 197,232.816 197,233.611 C197,234.689 198.928,235 205.594,235 C213.346,235 214.238,235.196 214.71,237 C215.169,238.756 216.074,239 222.117,239 L229,239 L229,228 C229,218.889 228.742,217 227.5,217 C226.435,217 225.997,215.913 225.991,213.25 C225.974,205.622 224.751,199 223.361,199 C222.278,199 222,196.141 222,185 C222,173.904 221.72,171 220.648,171 C219.196,171 218.017,160.632 218.006,147.75 C218.001,142.419 217.685,141 216.5,141 C215.229,141 215,138.556 215,125 C215,112.014 214.738,109 213.611,109 C212.816,109 211.942,107.505 211.566,105.5 L210.909,102 L201.955,102 C195.023,102 193,102.311 193,103.375 C193,105.06 188.658,106 180.875,106 C176.319,106 175,106.337 175,107.5 C175,108.637 173.767,109 169.906,109 C165.654,109 164.726,109.33 164.29,111 C163.857,112.656 162.926,113 158.883,113 C155.407,113 154,113.396 154,114.375 C154,115.746 149.88,117 145.375,117 C143.931,117 143,117.588 143,118.5 C143,119.548 141.944,120 139.5,120 L136,120 L136,115.079 C136,110.425 136.162,110.123 139,109.5 C140.65,109.138 142,108.241 142,107.508 C142,106.733 143.672,105.893 146,105.5 L150,104.824 L150,94.412 C150,85.91 149.73,84 148.527,84 C147.313,84 147.006,81.506 146.777,69.75 L146.5,55.5 L143.25,55.187 C141.237,54.993 140,54.327 140,53.437 C140,52.646 139.127,52 138.059,52 C136.991,52 135.868,51.596 135.563,51.103 C134.591,49.53 136.196,44 137.625,44 C138.381,44 139,43.325 139,42.5 C139,41.456 140.05,41 142.45,41 C144.697,41 146.242,40.39 146.879,39.25 C147.687,37.804 149.604,37.44 157.928,37.156 C165.753,36.889 168,36.499 168,35.406 Z M119.25,141.745 C153.486,140.524 171,141.165 171,143.639 C171,144.388 171.9,145 173,145 C174.852,145 175,145.667 175,154 C175,160.526 174.656,163.004 173.75,163.014 C173.063,163.021 171.488,163.299 170.25,163.63 C168.096,164.207 168,163.972 168,158.117 L168,152 L157.5,152 C148.833,152 147,151.738 147,150.5 C147,149.348 145.722,149 141.5,149 L136,149 L136,156 L150,156 L150,159.5 C150,161.944 150.452,163 151.5,163 C152.722,163 153,164.667 153,172 L153,181 L160.5,181 C166.5,181 168,180.7 168,179.5 C168,178.675 168.675,178 169.5,178 C170.325,178 171,178.675 171,179.5 C171,180.641 172.256,181.003 176.25,181.014 C184.3,181.035 186,181.75 186,185.117 C186,187.088 185.496,188 184.406,188 C183.53,188 182.577,188.9 182.29,190 C181.634,192.509 175,192.964 175,190.5 C175,189.31 173.556,189 168,189 C162.444,189 161,189.31 161,190.5 C161,191.548 159.944,192 157.5,192 L154,192 L154,213.5 C154,231.944 154.213,235 155.5,235 C156.688,235 157,236.431 157,241.883 C157,247.926 157.244,248.831 159,249.29 C160.532,249.69 161,250.654 161,253.406 C161,256.333 160.629,257 159,257 C157.9,257 157,257.619 157,258.375 C157,259.972 152.277,261.147 149.149,260.329 C148.662,260.202 148.267,260.192 147.944,260.034 C146.411,259.285 146.513,255.19 146.221,219.25 L146,192 L132,192 L132,204.5 C132,214.525 131.724,217 130.605,217 C129.504,217 129.059,220.23 128.492,232.343 C128.096,240.781 127.903,250.569 128.063,254.093 C128.612,266.165 128.436,266.827 124.5,267.566 C122.495,267.942 121,268.816 121,269.611 C121,272.108 118.234,271.068 117.542,268.31 C117.17,266.831 117.18,261.206 117.562,255.81 C118.08,248.504 118.608,246 119.629,246 C120.748,246 121,242.042 121,224.469 C121,206.252 121.231,202.849 122.5,202.362 C123.325,202.045 124,201.159 124,200.393 C124,199.627 123.325,199 122.5,199 C121.675,199 121,198.325 121,197.5 C121,196.452 119.944,196 117.5,196 C115.183,196 114,196.469 114,197.387 C114,198.456 111.597,198.862 103.491,199.162 C97.711,199.376 91.186,199.38 88.991,199.171 L85,198.79 L85,189.279 L90.25,188.648 C93.138,188.301 101.237,188.013 108.25,188.009 L121,188 L121.006,180.25 C121.017,166.447 122.155,156 123.648,156 C126.179,156 125.012,153.252 122.25,152.708 C118.403,151.95 114,152.968 114,154.617 C114,155.531 112.813,156 110.5,156 C107.167,156 107,156.167 107,159.5 C107,162.333 106.619,163 105,163 C103.889,163 103,162.333 103,161.5 C103,160.534 102.022,159.995 100.25,159.986 C94.505,159.958 93,159.002 93,155.383 C93,153.043 93.462,152 94.5,152 C95.325,152 96,151.325 96,150.5 C96,149.675 96.717,149 97.594,149 C98.47,149 99.423,148.1 99.71,147 C100.143,145.344 101.074,145 105.117,145 C108.735,145 110,144.621 110,143.538 C110,142.383 111.95,142.005 119.25,141.745 Z M71,49.383 C71,48.469 72.187,48 74.5,48 C76.813,48 78,48.469 78,49.383 C78,50.144 78.9,51.002 80,51.29 C81.1,51.577 82,52.53 82,53.406 C82,54.333 81.163,55 80,55 C78.381,55 78,55.667 78,58.5 L78,62 L87,62 C95.333,62 96,62.148 96,64 C96,65.333 96.667,66 98,66 C99.111,66 100,66.667 100,67.5 C100,68.325 100.717,69 101.594,69 C102.47,69 103.423,69.9 103.71,71 C103.998,72.1 104.856,73 105.617,73 C106.377,73 107,73.623 107,74.383 C107,75.144 107.9,76.002 109,76.29 C110.1,76.577 111,77.53 111,78.406 C111,79.283 111.675,80 112.5,80 C113.333,80 114,80.889 114,82 C114,83.333 114.667,84 116,84 C117.81,84 118,84.667 118,91 C118,96.556 118.31,98 119.5,98 C120.333,98 121,98.889 121,100 C121,101.333 121.667,102 123,102 C124.1,102 125,101.363 125,100.585 C125,99.554 127.028,98.981 132.478,98.47 C140.673,97.702 143,98.144 143,100.469 C143,101.542 141.988,102 139.617,102 C137.074,102 136.103,102.497 135.71,104 C135.31,105.532 134.346,106 131.594,106 C129.066,106 128,106.445 128,107.5 C128,108.548 126.944,109 124.5,109 C121.167,109 121,109.167 121,112.5 C121,114.82 120.532,116 119.611,116 C118.824,116 117.947,117.471 117.585,119.398 C117.109,121.933 116.308,122.957 114.428,123.429 C111.509,124.161 110,123.484 110,121.441 C110,120.648 109.325,120 108.5,120 C107.675,120 107,119.325 107,118.5 C107,117.417 105.889,117 103,117 C100.111,117 99,117.417 99,118.5 C99,119.548 97.944,120 95.5,120 C93.187,120 92,120.469 92,121.383 C92,123.103 88.923,123.969 82.75,123.986 L78,124 L78,113 L83.094,113 C87.346,113 88.274,112.67 88.71,111 C89.013,109.841 90.074,109 91.233,109 C92.819,109 93.108,108.534 92.63,106.75 C92.299,105.513 92.021,103.938 92.014,103.25 C92.006,102.563 91.1,102 90,102 C88.889,102 88,101.333 88,100.5 C88,99.675 87.325,99 86.5,99 C85.352,99 85,97.735 85,93.611 C85,88.245 85.014,88.22 88.5,87.566 C90.595,87.173 92,86.325 92,85.455 C92,84.459 93.104,84 95.5,84 C98.818,84 99,83.822 99,80.579 C99,77.592 98.62,77.075 96,76.5 C94.35,76.138 93,75.202 93,74.421 C93,73.572 91.993,73 90.5,73 C88.944,73 88,72.433 88,71.5 C88,70.675 87.325,70 86.5,70 C85.675,70 85,70.675 85,71.5 C85,72.548 83.944,73 81.5,73 C78.667,73 78,73.381 78,75 C78,76.1 78.655,77 79.455,77 C80.317,77 81.169,78.384 81.547,80.4 C82.41,85.001 81.822,87.411 79.739,87.812 C78.349,88.079 78,87.429 78,84.573 C78,80.092 75.45,79.674 74.5,84 C74.138,85.65 73.255,87 72.539,87 C71.528,87 71.147,91.367 70.835,106.557 C70.51,122.35 70.15,126.289 68.966,127.02 C67.735,127.78 67.452,133.3 67.2,161.463 C66.903,194.704 66.918,195 68.95,195 C70.561,195 71,194.358 71,192 Q71,189 72.5,189 C73.333,189 74,188.111 74,187 C74,185.667 74.667,185 76,185 C77.758,185 78,184.333 78,179.5 C78,175.484 78.373,174 79.383,174 C81.103,174 81.969,177.077 81.986,183.25 C81.998,187.338 81.721,188 80,188 C78.242,188 78,188.667 78,193.5 C78,197.526 77.628,199 76.611,199 C75.816,199 74.942,200.495 74.566,202.5 C74.151,204.71 73.339,206 72.361,206 C71.509,206 70.577,206.9 70.29,208 C69.857,209.656 68.926,210 64.883,210 L60,210 L60,159.5 C60,117.739 60.234,109 61.352,109 C63.078,109 63.986,98.087 63.994,77.25 C63.999,64.364 64.233,62 65.5,62 C66.637,62 67,60.767 67,56.906 C67,52.654 67.33,51.726 69,51.29 C70.1,51.002 71,50.144 71,49.383 Z M135,161.5 C135,162.325 134.325,163 133.5,163 C132.257,163 132,164.903 132,174.13 L132,185.26 L136.624,184.739 C139.167,184.452 141.635,183.606 142.108,182.859 C142.582,182.112 142.976,178.912 142.985,175.75 C142.997,171.299 142.661,170 141.5,170 C140.675,170 140,169.325 140,168.5 C140,167.675 140.45,167 141,167 C141.55,167 142,166.1 142,165 C142,163.9 141.55,163 141,163 C140.45,163 140,162.325 140,161.5 C140,160.567 139.056,160 137.5,160 C135.944,160 135,160.567 135,161.5 Z M99,92.421 C99,93.202 97.65,94.138 96,94.5 C93.38,95.075 93,95.592 93,98.579 C93,100.953 93.459,102 94.5,102 C95.333,102 96,102.889 96,104 C96,105.619 96.667,106 99.5,106 C102.333,106 103,105.619 103,104 C103,102.9 103.623,102 104.383,102 C105.959,102 106.966,99 106.986,94.25 C106.999,91.123 106.849,91 103,91 C100.211,91 99,91.43 99,92.421 Z"/>
</svg>

