<svg xmlns="http://www.w3.org/2000/svg" width="300" height="300" viewBox="0 0 300 300" version="1.1">
  <defs/>
  <path d="M173.751,21.246 C174.277,19.669 183.685,19.554 184.206,21.118 C184.412,21.737 187.804,22.468 191.789,22.753 C196.965,23.123 199,23.654 199,24.634 C199,25.385 199.9,26 201,26 C202.675,26 203,26.667 203,30.103 L203,34.205 L194.25,33.885 C179.574,33.348 174,33.793 174,35.5 C174,36.548 172.944,37 170.5,37 C167.083,37 167,37.095 167,41 C167,43.739 166.564,45 165.617,45 C163.553,45 163.029,48.272 163.014,61.25 C163.001,72.338 163.113,73 165,73 C166.1,73 167,72.377 167,71.617 C167,70.856 167.9,69.998 169,69.71 C170.1,69.423 171,68.47 171,67.594 C171,66.49 171.922,66 174,66 C176.078,66 177,65.51 177,64.406 C177,63.53 177.9,62.577 179,62.29 C180.1,62.002 181,61.144 181,60.383 C181,59.623 181.9,59 183,59 C184.1,59 185,58.345 185,57.545 C185,56.675 186.405,55.827 188.5,55.434 C190.505,55.058 192,54.184 192,53.389 C192,52.594 193.015,52 194.375,52 C198.88,52 203,50.746 203,49.375 C203,48.47 204.197,48 206.5,48 L210,48 L210,39 C210,30.667 210.148,30 212,30 C213.111,30 214,29.333 214,28.5 C214,27.675 214.675,27 215.5,27 C216.325,27 217,27.675 217,28.5 C217,29.333 217.889,30 219,30 C220.333,30 221,30.667 221,32 C221,33.111 221.667,34 222.5,34 C223.325,34 224,34.675 224,35.5 C224,36.333 224.889,37 226,37 C227.333,37 228,37.667 228,39 C228,40.619 227.333,41 224.5,41 L221,41 L221,49.383 C221,57.232 221.144,57.805 223.25,58.37 C227.007,59.376 228,59.09 228,57 C228,54.91 228.993,54.624 232.75,55.63 C235.184,56.283 235.883,59 233.617,59 C232.856,59 231.998,59.9 231.71,61 C231.423,62.1 230.47,63 229.594,63 C228.202,63 228,65.027 228,79 C228,91.909 228.266,95 229.375,95 C230.948,95 232,99.259 232,105.625 C232,108.666 232.418,110 233.372,110 C234.464,110 234.835,113.488 235.189,127.078 C235.537,140.47 235.942,144.346 237.066,145.04 C238.172,145.723 238.579,149.133 238.846,159.963 C239.107,170.574 239.506,174 240.481,174 C241.458,174 241.946,178.354 242.5,192 C243.081,206.317 243.514,210 244.615,210 C245.756,210 246,214.146 246,233.5 C246,253.722 245.791,257 244.5,257 C243.675,257 243,257.616 243,258.37 C243,259.252 241.397,259.921 238.5,260.247 C231.945,260.986 225,260.02 225,258.37 C225,257.616 224.1,257 223,257 C221.667,257 221,256.333 221,255 C221,253.667 220.333,253 219,253 C217.9,253 217,252.375 217,251.611 C217,250.816 215.505,249.942 213.5,249.566 C211.405,249.173 210,248.325 210,247.455 C210,246.655 209.1,246 208,246 C206.667,246 206,245.333 206,244 C206,242.889 205.333,242 204.5,242 C203.675,242 203,241.325 203,240.5 C203,239.667 202.111,239 201,239 C199.9,239 199,238.345 199,237.545 C199,236.675 197.595,235.827 195.5,235.434 C192.318,234.837 192,234.47 192,231.389 C192,228.667 191.607,228 190,228 C188.667,228 188,227.333 188,226 C188,224.889 187.333,224 186.5,224 C185.664,224 185,223.11 185,221.99 C185,220.885 184.1,219.21 183,218.268 C181.755,217.202 181,215.318 181,213.278 C181,211.031 180.528,210 179.5,210 C178.417,210 178,208.889 178,206 C178,202.667 177.667,202 176,202 C174.267,202 174,201.333 174,197 C174,192.667 174.267,192 176,192 C177.667,192 178,192.667 178,196 C178,198.889 178.417,200 179.5,200 C180.548,200 181,201.056 181,203.5 C181,206.333 181.381,207 183,207 C184.556,207 185,207.667 185,210 Q185,213 186.5,213 C187.333,213 188,213.889 188,215 C188,216.333 188.667,217 190,217 C191.333,217 192,217.667 192,219 C192,220.1 192.655,221 193.455,221 C194.325,221 195.173,222.405 195.566,224.5 C196.041,227.033 196.745,228 198.111,228 C199.15,228 200,228.639 200,229.421 C200,230.202 201.35,231.138 203,231.5 C204.65,231.862 206,232.798 206,233.579 C206,234.361 206.9,235 208,235 C209.333,235 210,235.667 210,237 C210,238.619 210.667,239 213.5,239 C215.82,239 217,239.468 217,240.389 C217,241.184 218.495,242.058 220.5,242.434 C222.595,242.827 224,243.675 224,244.545 C224,245.345 224.9,246 226,246 C227.111,246 228,246.667 228,247.5 C228,248.54 229.046,249 231.411,249 L234.822,249 L235.161,242.75 C235.348,239.313 235.365,225.813 235.199,212.75 C234.947,192.812 234.666,189 233.449,189 C232.309,189 231.998,187.347 231.989,181.25 C231.975,171.134 231.093,166 229.369,166 C228.254,166 228,162.108 228,145 C228,127.848 227.748,124 226.625,124 C224.94,124 224,119.658 224,111.875 C224,107.319 223.663,106 222.5,106 C221.3,106 221,104.5 221,98.5 C221,92.781 220.671,91 219.617,91 C217.759,91 217.03,87.848 217.014,79.75 L217,73 L213.5,73 C211.187,73 210,73.469 210,74.383 C210,75.899 207.032,76.965 202.75,76.986 C201.055,76.995 200,77.542 200,78.412 C200,79.28 198.459,80.085 196,80.5 C193.541,80.915 192,81.72 192,82.588 C192,83.365 191.1,84 190,84 C188.9,84 188,84.655 188,85.455 C188,86.325 186.595,87.173 184.5,87.566 C182.495,87.942 181,88.816 181,89.611 C181,90.532 179.82,91 177.5,91 C174.667,91 174,91.381 174,93 C174,95.905 167.47,95.905 166.71,93 C166.423,91.9 165.47,91 164.594,91 C163.667,91 163,90.163 163,89 C163,87.889 163.667,87 164.5,87 C165.325,87 166,86.325 166,85.5 C166,84.567 166.944,84 168.5,84 C170.021,84 171,83.43 171,82.545 C171,81.675 172.405,80.827 174.5,80.434 C176.505,80.058 178,79.184 178,78.389 C178,77.468 179.18,77 181.5,77 C184.333,77 185,76.619 185,75 C185,73.381 185.667,73 188.5,73 C190.944,73 192,72.548 192,71.5 C192,70.675 192.717,70 193.594,70 C194.47,70 195.423,69.1 195.71,68 C196.074,66.608 197.074,66 199,66 C201.024,66 201.929,65.396 202.37,63.75 C203.48,59.607 203.113,59 199.5,59 C197.18,59 196,59.468 196,60.389 C196,61.184 194.505,62.058 192.5,62.434 C190.405,62.827 189,63.675 189,64.545 C189,65.43 188.021,66 186.5,66 C185.007,66 184,66.572 184,67.421 C184,68.202 182.65,69.138 181,69.5 C179.35,69.862 178,70.798 178,71.579 C178,72.361 177.1,73 176,73 C174.667,73 174,73.667 174,75 C174,76.333 173.333,77 172,77 C170.9,77 170,77.655 170,78.455 C170,79.325 168.595,80.173 166.5,80.566 C164.495,80.942 163,81.816 163,82.611 C163,83.375 162.325,84 161.5,84 C160.675,84 160,83.325 160,82.5 C160,81.667 159.111,81 158,81 C156.178,81 156,80.333 156,73.5 C156,67.5 155.7,66 154.5,66 C153.452,66 153,64.944 153,62.5 C153,60.056 153.452,59 154.5,59 C155.753,59 156,56.949 156,46.545 L156,34.091 L152.5,33.434 C149.079,32.792 149,32.669 149,27.994 L149,23.211 L161.168,22.851 C169.725,22.599 173.459,22.122 173.751,21.246 Z M118.75,123.689 C121.42,122.992 136.204,122.948 138.75,123.63 C139.988,123.962 141,124.856 141,125.617 C141,126.427 142.04,127 143.51,127 C144.89,127 146.79,127.9 147.732,129 C148.674,130.1 149.999,131 150.677,131 C151.355,131 152.205,132.575 152.566,134.5 C153.129,137.5 153.618,138 155.995,138 C159.018,138 159.961,139.832 159.986,145.75 C159.996,147.966 160.477,149 161.5,149 C162.637,149 163,150.233 163,154.094 C163,158.346 163.33,159.274 165,159.71 C166.756,160.169 167,161.074 167,167.117 L167,174 L171.883,174 C175.926,174 176.857,173.656 177.29,172 C177.69,170.468 178.654,170 181.406,170 C183.934,170 185,169.555 185,168.5 C185,167.348 186.278,167 190.5,167 C196.229,167 196.557,167.32 195.37,171.75 C194.895,173.521 194.047,174 191.383,174 C189.089,174 188,174.468 188,175.455 C188,176.325 186.595,177.173 184.5,177.566 C182.495,177.942 181,178.816 181,179.611 C181,180.611 179.6,181 176,181 C170.419,181 170.382,181.065 170.943,190 C171.098,192.475 170.897,209.463 170.497,227.75 C169.899,255.052 169.521,261 168.384,261 C167.623,261 167,261.675 167,262.5 C167,263.325 167.675,264 168.5,264 C169.652,264 170,265.278 170,269.5 C170,273.722 169.652,275 168.5,275 C167.675,275 167,275.619 167,276.375 C167,277.804 161.47,279.409 159.897,278.437 C158.843,277.785 158.731,264.7 159.652,249.656 C160.138,241.707 160.646,239 161.652,239 C162.749,239 163,233.981 163,212 L163,185 L159.5,185 C157.056,185 156,185.452 156,186.5 C156,187.412 155.069,188 153.625,188 C149.12,188 145,189.254 145,190.625 C145,191.604 143.593,192 140.117,192 C136.074,192 135.143,192.344 134.71,194 C134.249,195.763 133.346,196 127.094,196 L120,196 L120,192.545 C120,189.389 120.302,189.034 123.5,188.434 C125.505,188.058 127,187.184 127,186.389 C127,185.461 128.194,185 130.594,185 C133.346,185 134.31,184.532 134.71,183 C134.998,181.9 135.856,181 136.617,181 C137.531,181 138,179.813 138,177.5 C138,175.056 138.452,174 139.5,174 C140.631,174 141.041,172.648 141.167,168.5 C141.258,165.475 141.371,162.219 141.417,161.264 C141.463,160.309 140.713,159.376 139.75,159.19 C138.311,158.913 138,159.589 138,163 C138,166.409 137.689,167.088 136.25,166.815 C135.107,166.599 134.393,165.382 134.192,163.308 C133.942,160.741 133.339,160.014 131.043,159.51 C128.111,158.866 127.039,156.832 127.014,151.867 C127.004,150.067 127.634,149.068 129,148.71 C130.1,148.423 131,147.47 131,146.594 C131,145.357 132.065,145.003 135.75,145.014 C142.921,145.034 144.802,145.821 145.522,149.102 C145.872,150.696 146.798,152 147.579,152 C148.361,152 149,152.9 149,154 C149,155.111 149.667,156 150.5,156 C151.548,156 152,157.056 152,159.5 C152,161.944 151.548,163 150.5,163 C149.477,163 148.996,164.034 148.986,166.25 C148.966,171 147.959,174 146.383,174 C145.469,174 145,175.187 145,177.5 C145,180.833 145.167,181 148.5,181 C150.82,181 152,180.532 152,179.611 C152,178.816 153.495,177.942 155.5,177.566 C158.698,176.966 159,176.611 159,173.455 C159,171.051 158.544,170 157.5,170 C156.31,170 156,168.556 156,163 C156,157.727 155.661,156 154.625,156 C153.254,156 152,151.88 152,147.375 C152,145.931 151.412,145 150.5,145 C149.675,145 149,144.325 149,143.5 C149,142.667 148.111,142 147,142 C145.667,142 145,141.333 145,140 C145,138.889 144.333,138 143.5,138 C142.675,138 142,137.375 142,136.611 C142,135.816 140.505,134.942 138.5,134.566 C136.405,134.173 135,133.325 135,132.455 C135,131.358 133.646,131 129.5,131 L124,131 L124,145 L120.625,145 C117.645,145 117.177,145.366 116.625,148.125 C116.281,149.844 116,156.369 116,162.625 C116,172.069 115.745,174 114.5,174 C113.218,174 113,176.833 113,193.5 C113,212.333 113.068,213 115,213 C116.111,213 117,212.333 117,211.5 Q117,210 120,210 C122.762,210 123,210.278 123,213.5 C123,215.944 122.548,217 121.5,217 C120.452,217 120,218.056 120,220.5 C120,222.944 119.548,224 118.5,224 C117.667,224 117,224.889 117,226 C117,227.467 116.333,228 114.5,228 C112.944,228 112,228.567 112,229.5 C112,230.325 111.55,231 111,231 C110.45,231 110,230.325 110,229.5 C110,228.667 109.111,228 108,228 C106.032,228 106,227.333 106,186.5 C106,150.278 106.191,145 107.5,145 C108.69,145 109,143.556 109,138 C109,132.707 109.337,131 110.383,131 C111.144,131 112.002,130.1 112.29,129 C112.603,127.803 113.654,127 114.906,127 C116.058,127 117,126.358 117,125.573 C117,124.789 117.787,123.941 118.75,123.689 Z M84,28.5 C84,27.278 85.667,27 93,27 C100.333,27 102,27.278 102,28.5 C102,29.538 103.043,30 105.383,30 C107.926,30 108.897,30.497 109.29,32 C109.577,33.1 110.53,34 111.406,34 C112.283,34 113,34.675 113,35.5 C113,36.333 113.889,37 115,37 C116.111,37 117,37.667 117,38.5 C117,39.325 117.675,40 118.5,40 C119.325,40 120,40.848 120,41.883 C120,42.926 120.893,44 122,44.29 C123.456,44.671 124,45.654 124,47.906 C124,49.904 124.5,51 125.412,51 C126.28,51 127.085,52.541 127.5,55 C127.915,57.459 128.72,59 129.588,59 C130.67,59 131,60.638 131,66 C131,71.556 131.31,73 132.5,73 C133.333,73 134,73.889 134,75 C134,76.111 133.333,77 132.5,77 C131.675,77 131,77.717 131,78.594 C131,79.47 130.1,80.423 129,80.71 C127.9,80.998 127,81.856 127,82.617 C127,83.377 126.325,84 125.5,84 C124.675,84 124,84.717 124,85.594 C124,86.47 123.1,87.423 122,87.71 C120.9,87.998 120,88.856 120,89.617 C120,90.531 118.813,91 116.5,91 C114.056,91 113,90.548 113,89.5 C113,88.667 112.111,88 111,88 C109.889,88 109,88.667 109,89.5 C109,90.325 108.311,91 107.469,91 C106.626,91 105.689,91.648 105.385,92.439 C105.081,93.23 103.521,94.166 101.916,94.518 C100.312,94.871 99,95.759 99,96.492 C99,97.267 97.328,98.107 95,98.5 C92.541,98.915 91,99.72 91,100.588 C91,101.693 89.154,102 82.5,102 C76.374,102 73.996,101.651 73.986,100.75 C73.979,100.063 73.716,98.545 73.403,97.377 C72.919,95.575 73.375,95.152 76.417,94.582 C78.577,94.176 80,93.332 80,92.455 C80,91.424 81.166,91 84,91 C86.834,91 88,90.576 88,89.545 C88,88.675 89.405,87.827 91.5,87.434 C94.682,86.837 95,86.47 95,83.389 C95,81.043 95.462,80 96.5,80 C97.548,80 98,78.944 98,76.5 C98,73.667 97.619,73 96,73 C94.889,73 94,72.333 94,71.5 Q94,70 91,70 C88.667,70 88,69.556 88,68 C88,66.667 87.333,66 86,66 C84.889,66 84,65.333 84,64.5 C84,63.675 84.675,63 85.5,63 C86.325,63 87,62.152 87,61.117 C87,58.793 90.622,57.948 97.25,58.723 C101.016,59.163 102,59.664 102,61.139 C102,62.163 102.623,63 103.383,63 C105.21,63 105.97,66.135 105.986,73.75 L106,80 L109.5,80 C111.944,80 113,79.548 113,78.5 C113,77.452 114.056,77 116.5,77 L120,77 L120,68 C120,60.987 119.693,59 118.611,59 C117.816,59 116.942,57.505 116.566,55.5 C116.173,53.405 115.325,52 114.455,52 C113.655,52 113,51.1 113,50 C113,48.667 112.333,48 111,48 C109.667,48 109,47.333 109,46 C109,44.889 108.333,44 107.5,44 C106.675,44 106,43.325 106,42.5 C106,41.667 105.111,41 104,41 C102.637,41 102,40.333 102,38.906 C102,36.897 101.593,36.826 91.928,37.156 C83.604,37.44 81.687,37.804 80.879,39.25 C80.292,40.3 78.721,41 76.95,41 C73.808,41 72.804,43.327 75.5,44.362 C77.043,44.954 77.633,50.491 76.244,51.349 C75.829,51.606 74.279,51.585 72.801,51.302 C70.835,50.926 69.942,50.01 69.477,47.894 C69.127,46.302 68.202,45 67.421,45 C66.351,45 66,43.518 66,39 C66,34.333 66.333,33 67.5,33 C68.325,33 69,32.325 69,31.5 C69,30.3 70.5,30 76.5,30 C82.5,30 84,29.7 84,28.5 Z M59,56.383 C59,55.469 60.187,55 62.5,55 C65.917,55 66,55.095 66,59 C66,61.739 65.564,63 64.617,63 C63.856,63 62.96,64.013 62.625,65.25 C62.29,66.487 62.312,97.087 62.672,133.25 C63.209,187.12 63.569,199 64.664,199 C65.399,199 66,199.9 66,201 C66,202.111 66.667,203 67.5,203 C68.325,203 69,203.675 69,204.5 C69,205.325 68.325,206 67.5,206 C66.299,206 66,207.506 66,213.552 L66,221.105 L60.75,220.802 L55.5,220.5 L55.38,214 C55.314,210.425 55.201,184.663 55.13,156.75 C55.016,112.363 54.812,106 53.5,106 C52.217,106 52,103.111 52,86 C52,68.889 52.217,66 53.5,66 C54.555,66 55,64.934 55,62.406 C55,59.654 55.468,58.69 57,58.29 C58.1,58.002 59,57.144 59,56.383 Z"/>
</svg>

