<svg xmlns="http://www.w3.org/2000/svg" width="300" height="300" viewBox="0 0 300 300" version="1.1">
  <defs/>
  <path d="M152.29,137 C152.726,135.33 153.654,135 157.906,135 C162.333,135 163,135.262 163,137 C163,138.111 162.333,139 161.5,139 C160.675,139 160,139.717 160,140.594 C160,141.47 159.1,142.423 158,142.71 C156.155,143.193 156,144.074 156,154.117 C156,164.333 156.123,165 158,165 C159.111,165 160,165.667 160,166.5 C160,167.325 160.675,168 161.5,168 C162.333,168 163,167.111 163,166 C163,164.667 163.667,164 165,164 C166.1,164 167,163.377 167,162.617 C167,161.856 167.9,160.998 169,160.71 C170.1,160.423 171,159.47 171,158.594 C171,157.717 171.675,157 172.5,157 C173.325,157 174,156.375 174,155.611 C174,154.816 175.495,153.942 177.5,153.566 C179.595,153.173 181,152.325 181,151.455 C181,150.424 182.166,150 185,150 C187.739,150 189,149.564 189,148.617 C189,147.101 191.968,146.035 196.25,146.014 C198.338,146.003 199,146.482 199,148 C199,149.1 198.377,150 197.617,150 C196.856,150 195.998,150.9 195.71,152 C195.329,153.456 194.346,154 192.094,154 C190.01,154 189,154.49 189,155.5 C189,156.325 188.152,157 187.117,157 C186.074,157 185,157.893 184.71,159 C184.329,160.456 183.346,161 181.094,161 C178.93,161 178,161.479 178,162.594 C178,163.47 177.1,164.423 176,164.71 C174.9,164.998 174,165.856 174,166.617 C174,167.377 173.1,168 172,168 C170.889,168 170,168.667 170,169.5 C170,170.325 169.325,171 168.5,171 C167.675,171 167,171.85 167,172.889 C167,174.255 166.033,174.959 163.5,175.434 C160.302,176.034 160,176.389 160,179.545 C160,181.949 160.456,183 161.5,183 C162.716,183 163,184.611 163,191.5 L163,200 L172,200 C178.997,200 181,199.692 181,198.616 C181,197.621 182.85,197.115 187.6,196.813 C192.462,196.503 194.451,195.945 195.15,194.696 C195.757,193.612 197.345,193 199.55,193 C201.827,193 203,192.528 203,191.611 C203,189.846 208.884,188.7 213.5,189.566 C216.682,190.163 217,190.53 217,193.611 C217,196.333 216.607,197 215,197 C213.9,197 213,197.623 213,198.385 C213,199.313 211.188,199.996 207.5,200.457 C203.722,200.929 202,201.591 202,202.572 C202,203.673 200.399,204 195,204 C189.707,204 188,204.337 188,205.383 C188,207.103 184.923,207.969 178.75,207.986 C175.201,207.997 174,208.379 174,209.5 C174,210.548 172.944,211 170.5,211 L167,211 L167,218.5 C167,224.5 167.3,226 168.5,226 C169.325,226 170,226.675 170,227.5 C170,228.523 171.034,229.004 173.25,229.014 C178,229.034 181,230.041 181,231.617 C181,232.531 182.187,233 184.5,233 C186.944,233 188,233.452 188,234.5 C188,235.523 189.034,236.004 191.25,236.014 C196,236.034 199,237.041 199,238.617 C199,239.627 200.484,240 204.5,240 C208.722,240 210,240.348 210,241.5 C210,242.412 210.931,243 212.375,243 C216.88,243 221,244.254 221,245.625 C221,246.53 222.197,247 224.5,247 C226.896,247 228,247.459 228,248.455 C228,249.325 229.405,250.173 231.5,250.566 C233.505,250.942 235,251.816 235,252.611 C235,253.375 235.9,254 237,254 C238.758,254 239,254.667 239,259.5 L239,265 L235.545,265 C232.389,265 232.034,264.698 231.434,261.5 C230.837,258.318 230.47,258 227.389,258 C225.17,258 224,257.522 224,256.617 C224,255.101 221.032,254.035 216.75,254.014 C214.978,254.005 214,253.466 214,252.5 C214,251.417 212.889,251 210,251 C207.261,251 206,250.564 206,249.617 C206,247.79 202.865,247.03 195.25,247.014 C190.54,247.003 189,246.652 189,245.588 C189,244.72 187.459,243.915 185,243.5 C182.541,243.085 181,242.28 181,241.412 C181,240.367 179.57,240 175.5,240 L170,240 L170,251 C170,260.111 169.742,262 168.5,262 C167.675,262 167,262.675 167,263.5 C167,264.544 165.949,265 163.545,265 C160.364,265 160.037,264.712 159.408,261.361 C159.032,259.359 158.995,254.218 159.325,249.937 C160.208,238.485 159.042,222 157.349,222 C156.435,222 156,220.671 156,217.883 C156,214.102 155.817,213.816 153.75,214.37 C152.512,214.701 150.037,214.979 148.25,214.986 C146.034,214.996 145,215.477 145,216.5 C145,217.412 144.069,218 142.625,218 C138.12,218 134,219.254 134,220.625 C134,221.474 132.896,222 131.117,222 C129.074,222 128.081,222.583 127.71,224 C127.423,225.1 126.506,226 125.673,226 C124.811,226 123.881,227.264 123.514,228.935 C123.03,231.139 122.139,232.03 119.935,232.514 C118.264,232.881 117,233.811 117,234.673 C117,235.506 116.1,236.423 115,236.71 C113.9,236.998 113,237.856 113,238.617 C113,239.377 112.1,240 111,240 C109.667,240 109,240.667 109,242 C109,243.111 108.333,244 107.5,244 C106.675,244 106,244.675 106,245.5 C106,246.333 105.111,247 104,247 C102.667,247 102,247.667 102,249 C102,250.333 101.333,251 100,251 C98.889,251 98,251.667 98,252.5 C98,253.325 97.325,254 96.5,254 C95.667,254 95,254.889 95,256 C95,257.333 94.333,258 93,258 C91.667,258 91,258.667 91,260 C91,261.111 90.333,262 89.5,262 C88.675,262 88,262.675 88,263.5 C88,264.583 86.889,265 84,265 C80.3,265 80.001,264.794 80.014,262.25 C80.039,257.134 81.088,255.14 84.102,254.478 C85.743,254.117 87,253.184 87,252.327 C87,251.494 87.9,250.577 89,250.29 C90.1,250.002 91,249.144 91,248.383 C91,247.623 91.9,247 93,247 C94.111,247 95,246.333 95,245.5 C95,244.675 95.675,244 96.5,244 C97.333,244 98,243.111 98,242 C98,240.667 98.667,240 100,240 C101.333,240 102,239.333 102,238 C102,236.667 102.667,236 104,236 C105.111,236 106,235.333 106,234.5 C106,233.675 106.675,233 107.5,233 C108.333,233 109,232.111 109,231 C109,229.667 109.667,229 111,229 C112.111,229 113,228.333 113,227.5 C113,226.675 113.717,226 114.594,226 C115.47,226 116.423,225.1 116.71,224 C117.081,222.583 118.074,222 120.117,222 C123.519,222 124.088,219.518 120.878,218.678 C117.317,217.747 109,219.12 109,220.639 C109,221.666 107.159,222 101.5,222 C95.781,222 94,222.329 94,223.383 C94,225.399 90.757,225.971 79.25,225.986 C70.812,225.998 69,226.265 69,227.5 C69,228.548 67.944,229 65.5,229 C62.667,229 62,228.619 62,227 C62,225.889 61.333,225 60.5,225 C59.675,225 59,224.325 59,223.5 C59,222.675 59.623,222 60.383,222 C61.144,222 62.002,221.1 62.29,220 C62.671,218.544 63.654,218 65.906,218 C67.889,218 69,217.498 69,216.603 C69,215.542 71.067,215.12 77.57,214.853 C84.454,214.569 86.333,214.156 87.12,212.75 C87.906,211.345 89.47,211 95.05,211 C100.561,211 102,210.689 102,209.5 C102,208.675 102.717,208 103.594,208 C104.47,208 105.423,207.1 105.71,206 C106.103,204.497 107.074,204 109.617,204 C112.333,204 113,203.606 113,202 C113,200.667 113.667,200 115,200 C116.111,200 117,199.333 117,198.5 C117,197.452 118.056,197 120.5,197 C123.333,197 124,196.619 124,195 C124,193.667 124.667,193 126,193 C127.1,193 128,192.361 128,191.579 C128,190.798 129.35,189.862 131,189.5 C132.65,189.138 134,188.202 134,187.421 C134,186.464 135.143,186 137.5,186 C139.813,186 141,185.531 141,184.617 C141,183.101 138.032,182.035 133.75,182.014 C131.978,182.005 131,181.466 131,180.5 C131,179.667 130.111,179 129,179 C127.889,179 127,178.333 127,177.5 C127,176.675 126.283,176 125.406,176 C124.53,176 123.577,175.1 123.29,174 C123.002,172.9 122.144,172 121.383,172 C120.623,172 120,171.1 120,170 C120,168.9 119.375,168 118.611,168 C117.816,168 116.942,166.505 116.566,164.5 C116.204,162.571 115.309,161 114.571,161 C112.962,161 111.958,156.555 112.708,152.75 C113.208,150.211 113.615,150 118.008,150 C121.926,150 122.859,150.353 123.29,152 C123.577,153.1 124.53,154 125.406,154 C126.713,154 127,155.262 127,161 C127,167.333 127.19,168 129,168 C130.333,168 131,168.667 131,170 C131,171.111 131.667,172 132.5,172 C133.325,172 134,172.675 134,173.5 C134,174.583 135.111,175 138,175 C140.834,175 142,174.576 142,173.545 C142,172.675 143.405,171.827 145.5,171.434 L149,170.777 L149,154.889 C149,142.027 149.264,139 150.383,139 C151.144,139 152.002,138.1 152.29,137 Z M98,37 C98,35.242 98.667,35 103.5,35 C107.722,35 109,35.348 109,36.5 C109,37.333 109.889,38 111,38 C114.78,38 112.983,44.625 108.963,45.508 C106.865,45.969 105.963,46.891 105.486,49.065 C105.131,50.679 104.202,52 103.421,52 C102.312,52 102,53.754 102,60 C102,66.223 102.314,68 103.412,68 C104.28,68 105.085,66.459 105.5,64 L106.176,60 L140.909,60 L141.566,63.5 C142.451,68.217 141.288,74 139.455,74 C138.655,74 138,73.325 138,72.5 C138,71.231 135.577,70.998 122.25,70.986 C113.588,70.979 105.487,70.701 104.25,70.37 C102.183,69.816 102,70.102 102,73.883 C102,76.744 101.573,78 100.601,78 C99.134,78 98.019,85.365 98.822,89.75 C99.221,91.935 99.578,92 111.21,92 C122.346,92 123.224,92.14 123.71,94 C124.103,95.503 125.074,96 127.617,96 C130.794,96 131,96.206 131,99.383 C131,101.926 130.503,102.897 129,103.29 C127.468,103.69 127,104.654 127,107.406 C127,109.934 126.555,111 125.5,111 C124.49,111 124,112.01 124,114.094 C124,116.346 123.456,117.329 122,117.71 C120.497,118.103 120,119.074 120,121.617 C120,123.957 119.538,125 118.5,125 C117.675,125 117,125.717 117,126.594 C117,127.47 116.1,128.423 115,128.71 C113.608,129.074 113,130.074 113,132 C113,133.926 112.392,134.926 111,135.29 C109.9,135.577 109,136.53 109,137.406 C109,138.333 109.837,139 111,139 C112.333,139 113,139.667 113,141 C113,142.333 112.333,143 111,143 C109.889,143 109,143.667 109,144.5 C109,145.548 107.944,146 105.5,146 C102.667,146 102,146.381 102,148 C102,149.333 101.333,150 100,150 C98.889,150 98,150.667 98,151.5 C98,152.325 97.325,153 96.5,153 C95.667,153 95,153.889 95,155 C95,156.333 94.333,157 93,157 C91.667,157 91,157.667 91,159 C91,160.111 90.333,161 89.5,161 C88.675,161 88,161.675 88,162.5 C88,163.333 87.111,164 86,164 C84.667,164 84,164.667 84,166 C84,167.333 83.333,168 82,168 C80.889,168 80,168.667 80,169.5 C80,170.325 79.325,171 78.5,171 C77.667,171 77,171.889 77,173 C77,174.333 76.333,175 75,175 C73.667,175 73,175.667 73,177 C73,178.619 72.333,179 69.5,179 C67.056,179 66,179.452 66,180.5 C66,182.987 63.263,182.185 62.589,179.5 C61.527,175.269 62.874,172.187 66.094,171.479 C67.692,171.128 69,170.202 69,169.421 C69,168.639 69.848,168 70.883,168 C71.926,168 73,167.107 73.29,166 C73.577,164.9 74.53,164 75.406,164 C76.283,164 77,163.325 77,162.5 C77,161.675 77.675,161 78.5,161 C79.333,161 80,160.111 80,159 C80,157.667 80.667,157 82,157 C83.111,157 84,156.333 84,155.5 C84,154.675 84.675,154 85.5,154 C86.333,154 87,153.111 87,152 C87,150.667 87.667,150 89,150 C90.333,150 91,149.333 91,148 C91,146.667 91.667,146 93,146 C94.619,146 95,145.333 95,142.5 C95,139.667 94.619,139 93,139 C91.889,139 91,138.333 91,137.5 C91,136.675 90.325,136 89.5,136 C88.667,136 88,135.111 88,134 C88,132.667 87.333,132 86,132 C84.9,132 84,131.377 84,130.617 C84,129.856 83.1,128.998 82,128.71 C80.9,128.423 80,127.47 80,126.594 C80,125.717 79.325,125 78.5,125 C77.417,125 77,123.889 77,121 C77,118.111 77.417,117 78.5,117 C79.325,117 80,116.325 80,115.5 C80,114.667 80.889,114 82,114 C83.111,114 84,114.667 84,115.5 C84,116.325 84.717,117 85.594,117 C86.47,117 87.423,117.9 87.71,119 C87.998,120.1 88.806,121 89.505,121 C90.205,121 91.073,122.575 91.434,124.5 C91.827,126.595 92.675,128 93.545,128 C94.345,128 95,128.9 95,130 C95,131.619 95.667,132 98.5,132 C100.813,132 102,131.531 102,130.617 C102,129.856 102.9,128.998 104,128.71 C105.1,128.423 106,127.47 106,126.594 C106,125.717 106.675,125 107.5,125 C108.538,125 109,123.957 109,121.617 C109,119.074 109.497,118.103 111,117.71 C112.456,117.329 113,116.346 113,114.094 C113,112.01 113.49,111 114.5,111 C115.356,111 116,110.101 116,108.906 C116,107.654 116.803,106.603 118,106.29 C123.095,104.957 118.548,103.035 110.25,103.014 C106.256,103.003 105,102.641 105,101.5 C105,100.229 102.556,100 89,100 L73,100 L73.017,94.75 C73.031,90.537 73.503,89.056 75.408,87.25 C76.714,86.013 78.281,85 78.891,85 C79.501,85 80,84.283 80,83.406 C80,82.53 80.9,81.577 82,81.29 C83.1,81.002 84,80.144 84,79.383 C84,78.436 85.261,78 88,78 C91.886,78 92,77.903 92,74.583 C92,72.704 92.563,70.98 93.25,70.751 C94.159,70.448 94.593,66.064 94.84,54.668 C95.114,42.011 95.451,39 96.59,39 C97.365,39 98,38.1 98,37 Z M181,54.5 C181,53.452 182.056,53 184.5,53 C186.944,53 188,53.452 188,54.5 C188,55.655 189.288,56 193.594,56 C198.346,56 199.266,56.301 199.71,58 C199.998,59.1 200.856,60 201.617,60 C202.377,60 203,60.623 203,61.383 C203,62.144 203.9,63.002 205,63.29 C206.576,63.702 207,64.654 207,67.781 C207,73.766 205.912,78 204.375,78 C203.437,78 203,79.274 203,82.01 C203,84.782 202.383,86.548 201,87.732 C199.9,88.674 199,90.019 199,90.722 C199,91.425 198.375,92 197.611,92 C196.816,92 195.942,93.495 195.566,95.5 C195.173,97.595 194.325,99 193.455,99 C192.655,99 192,99.85 192,100.889 C192,102.255 191.033,102.959 188.5,103.434 C186.575,103.795 184.994,104.408 184.986,104.795 C184.979,105.183 184.701,106.513 184.37,107.75 C183.883,109.565 184.176,110 185.883,110 C187.333,110 188,110.63 188,112 C188,113.758 188.667,114 193.5,114 C197.57,114 199,114.367 199,115.412 C199,116.28 200.541,117.085 203,117.5 C205.459,117.915 207,118.72 207,119.588 C207,120.535 208.152,121 210.5,121 C212.857,121 214,121.464 214,122.421 C214,123.202 215.35,124.138 217,124.5 C218.65,124.862 220,125.798 220,126.579 C220,127.361 220.9,128 222,128 C223.333,128 224,128.667 224,130 C224,131.333 224.667,132 226,132 C227.825,132 228,132.667 228,139.617 C228,147.027 227.939,147.217 225.75,146.63 C224.512,146.299 222.938,146.021 222.25,146.014 C221.56,146.006 220.994,144.769 220.986,143.25 C220.965,138.968 219.899,136 218.383,136 C217.623,136 217,135.1 217,134 C217,132.242 216.333,132 211.5,132 C207.484,132 206,131.627 206,130.617 C206,129.101 203.032,128.035 198.75,128.014 C196.978,128.005 196,127.466 196,126.5 C196,125.417 194.889,125 192,125 C189.261,125 188,124.564 188,123.617 C188,121.759 184.848,121.03 176.75,121.014 C171.411,121.003 170,121.313 170,122.5 C170,123.325 169.325,124 168.5,124 C167.667,124 167,124.889 167,126 C167,127.439 166.333,128 164.625,128 C160.12,128 156,129.254 156,130.625 C156,133.275 153.152,131.97 152.505,129.024 C151.767,125.661 152.445,124 154.559,124 C155.352,124 156,123.325 156,122.5 C156,121.452 157.056,121 159.5,121 C161.813,121 163,120.531 163,119.617 C163,118.856 163.9,117.998 165,117.71 C166.436,117.335 167,116.346 167,114.205 C167,111.588 166.571,111.142 163.5,110.566 C161.405,110.173 160,109.325 160,108.455 C160,107.655 159.1,107 158,107 C156.9,107 156,106.345 156,105.545 C156,104.675 154.595,103.827 152.5,103.434 C150.495,103.058 149,102.184 149,101.389 C149,100.625 148.1,100 147,100 C145.667,100 145,99.333 145,98 C145,96.381 144.333,96 141.5,96 C138.167,96 138,95.833 138,92.5 C138,89.667 138.381,89 140,89 C141.333,89 142,88.333 142,87 C142,85.889 142.667,85 143.5,85 C144.325,85 145,85.655 145,86.455 C145,87.318 146.386,88.169 148.408,88.549 C150.579,88.956 151.997,89.88 152.314,91.094 C152.588,92.142 153.53,93 154.406,93 C155.283,93 156,93.675 156,94.5 C156,95.333 156.889,96 158,96 C159.333,96 160,96.667 160,98 C160,99.619 160.667,100 163.5,100 C165.944,100 167,100.452 167,101.5 C167,102.466 167.978,103.005 169.75,103.014 C171.262,103.021 173.539,103.306 174.809,103.646 C176.608,104.127 177.241,103.793 177.676,102.132 C177.982,100.959 178.856,100 179.617,100 C180.377,100 181,99.1 181,98 C181,96.667 181.667,96 183,96 C184.111,96 185,95.333 185,94.5 C185,93.675 185.675,93 186.5,93 C187.356,93 188,92.101 188,90.906 C188,89.654 188.803,88.603 190,88.29 C191.417,87.919 192,86.926 192,84.883 C192,83.104 192.526,82 193.375,82 C194.948,82 196,77.741 196,71.375 C196,67.667 195.695,67 194,67 C192.889,67 192,66.333 192,65.5 C192,64.278 190.333,64 183,64 C175.667,64 174,64.278 174,65.5 C174,66.548 172.944,67 170.5,67 C167.667,67 167,67.381 167,69 C167,70.333 166.333,71 165,71 C163.889,71 163,71.667 163,72.5 C163,73.548 161.944,74 159.5,74 L156,74 L156,69 C156,65.092 156.348,64 157.594,64 C158.47,64 159.423,63.1 159.71,62 C160.103,60.497 161.074,60 163.617,60 C166.333,60 167,59.606 167,58 C167,56.19 167.667,56 174,56 C179.556,56 181,55.69 181,54.5 Z M145,188 C145,189.111 144.333,190 143.5,190 C142.675,190 142,190.675 142,191.5 C142,192.333 141.111,193 140,193 C138.9,193 138,193.655 138,194.455 C138,195.325 136.595,196.173 134.5,196.566 C132.495,196.942 131,197.816 131,198.611 C131,199.375 130.283,200 129.406,200 C128.53,200 127.577,200.9 127.29,202 C126.897,203.503 125.926,204 123.383,204 C119.249,204 118.739,206.467 122.669,207.453 C126.901,208.515 138,207.017 138,205.384 C138,204.623 138.9,204 140,204 C141.1,204 142,203.345 142,202.545 C142,201.675 143.405,200.827 145.5,200.434 C147.425,200.073 149,199.205 149,198.505 C149,197.806 149.959,196.982 151.132,196.676 C152.793,196.241 153.127,195.608 152.646,193.809 C152.306,192.539 152.021,190.262 152.014,188.75 C152.001,186.276 151.648,186 148.5,186 C145.667,186 145,186.381 145,188 Z"/>
</svg>

