<svg xmlns="http://www.w3.org/2000/svg" width="300" height="300" viewBox="0 0 300 300" version="1.1">
  <defs/>
  <path d="M107,118.5 C107,117.452 108.056,117 110.5,117 C112.944,117 114,117.452 114,118.5 C114,119.333 114.889,120 116,120 C117.163,120 118,120.667 118,121.594 C118,122.47 117.1,123.423 116,123.71 C114.9,123.998 114,124.803 114,125.5 C114,126.197 113.1,127.002 112,127.29 C110.33,127.726 110,128.654 110,132.906 L110,138 L119,138 C125.97,138 128,137.69 128,136.625 C128,135.052 132.259,134 138.625,134 C141.847,134 143,133.605 143,132.5 C143,131.316 144.423,130.997 149.75,130.986 C157.909,130.97 161,130.24 161,128.33 C161,127.115 164.477,126.94 183.572,127.197 C203.84,127.469 206.243,127.679 207.121,129.25 C207.758,130.39 209.303,131 211.55,131 C213.821,131 215,131.473 215,132.383 C215,133.144 215.9,134.002 217,134.29 C218.692,134.732 219,135.654 219,140.281 C219,147.679 218.032,152 216.375,152 C215.619,152 215,152.9 215,154 C215,155.333 214.333,156 213,156 C211.667,156 211,156.667 211,158 C211,159.333 210.333,160 209,160 C207.9,160 207,160.639 207,161.421 C207,162.202 205.65,163.138 204,163.5 C200.916,164.177 199.822,166 202.5,166 C203.333,166 204,166.889 204,168 C204,169.1 204.648,170 205.441,170 C206.234,170 207.147,170.429 207.472,170.954 C208.437,172.516 206.895,177 205.392,177 C204.435,177 204,178.25 204,181 C204,183.739 204.436,185 205.383,185 C206.144,185 207.002,185.9 207.29,187 C207.577,188.1 208.53,189 209.406,189 C210.746,189 211,190.432 211,198 L211,207 L204,207 L204,196 L196.5,196 C190.5,196 189,196.3 189,197.5 C189,198.716 187.385,199 180.469,199 C173.878,199 171.809,199.335 171.372,200.473 C171.061,201.283 169.275,202.233 167.403,202.584 C165.532,202.935 164,203.812 164,204.532 C164,205.252 162.696,206.128 161.102,206.478 C157.547,207.259 157.032,208.93 157.014,219.75 C157.001,227.338 157.161,228 159,228 C160.1,228 161,227.377 161,226.617 C161,224.572 164.26,224.029 176.625,224.014 C189.439,223.998 194,224.683 194,226.625 C194,227.381 194.73,228 195.622,228 C197.03,228 197.188,229.188 196.814,237 L196.384,246 L205.692,246 C213.542,246 215,246.25 215,247.594 C215,248.47 214.1,249.423 213,249.71 C211.9,249.998 211,250.856 211,251.617 C211,252.66 209.311,253 204.117,253 C198.074,253 197.169,253.244 196.71,255 C196.31,256.532 195.346,257 192.594,257 C190.182,257 189,257.46 189,258.399 C189,259.396 186.995,259.998 182,260.5 C177.005,261.002 175,261.604 175,262.601 C175,263.533 173.832,264 171.5,264 L168,264 L168,258.5 C168,253.667 168.242,253 170,253 C171.111,253 172,252.333 172,251.5 C172,250.534 172.978,249.995 174.75,249.986 C179.032,249.965 182,248.899 182,247.383 C182,246.623 182.9,246 184,246 C185.333,246 186,245.333 186,244 C186,242.889 186.667,242 187.5,242 C188.548,242 189,240.944 189,238.5 C189,235.167 188.833,235 185.5,235 C183.056,235 182,234.548 182,233.5 Q182,232 179,232 Q176,232 176,233.5 C176,234.583 174.889,235 172,235 C169.261,235 168,235.436 168,236.383 C168,237.959 165,238.966 160.25,238.986 C158.034,238.996 157,239.477 157,240.5 C157,241.325 156.325,242 155.5,242 C154.249,242 153.998,244.034 153.986,254.25 C153.969,270.035 153.704,271 149.383,271 C146.667,271 146,270.606 146,269 C146,267.889 145.333,267 144.5,267 C143.452,267 143,265.944 143,263.5 C143,261.056 143.452,260 144.5,260 C145.763,260 146.001,257.746 146.009,245.75 C146.019,228.222 146.787,221 148.639,221 C149.742,221 150,217.201 150,201 C150,183.707 149.793,181 148.469,181 C147.626,181 146.678,181.675 146.362,182.5 C146.045,183.325 145.159,184 144.393,184 C143.627,184 143,183.325 143,182.5 C143,181.654 142.105,181 140.948,181 C139.1,181 138.926,180.476 139.198,175.75 L139.5,170.5 L144.75,170.198 L150,169.895 L150,142 L143,142 C137.444,142 136,142.31 136,143.5 C136,144.689 134.561,145 129.05,145 C123.658,145 121.894,145.366 121.185,146.634 C120.594,147.69 118.456,148.442 115.135,148.761 C111.856,149.076 110,149.722 110,150.548 C110,151.259 108.696,152.128 107.102,152.478 C103.821,153.198 103.034,155.079 103.014,162.25 C103.003,165.799 102.621,167 101.5,167 C100.675,167 100,167.675 100,168.5 C100,169.333 99.111,170 98,170 C96.667,170 96,170.667 96,172 C96,173.758 95.333,174 90.5,174 C85.667,174 85,173.758 85,172 C85,170.889 84.333,170 83.5,170 C82.675,170 82,169.325 82,168.5 C82,167.675 82.675,167 83.5,167 C84.621,167 85.003,165.799 85.014,162.25 C85.031,156.077 85.897,153 87.617,153 C88.377,153 89,152.15 89,151.111 C89,149.745 89.967,149.041 92.5,148.566 C94.595,148.173 96,147.325 96,146.455 C96,145.655 96.612,145 97.361,145 C98.879,145 99.977,138.218 99.991,128.75 C99.998,124.309 100.342,123 101.5,123 C102.325,123 103,122.325 103,121.5 C103,120.667 103.889,120 105,120 C106.111,120 107,119.333 107,118.5 Z M146.695,32.059 C147.143,30.344 148.029,30 152,30 L156.767,30 L157.193,36.686 C157.444,40.625 158.108,43.536 158.809,43.77 C159.464,43.988 160,45.029 160,46.083 C160,47.813 160.783,48 168,48 C174.444,48 176,47.708 176,46.5 C176,45.675 176.675,45 177.5,45 C178.325,45 179,45.675 179,46.5 C179,47.722 180.667,48 188,48 C195.333,48 197,48.278 197,49.5 C197,50.325 197.717,51 198.594,51 C199.47,51 200.423,51.9 200.71,53 C200.998,54.1 201.856,55 202.617,55 C203.564,55 204,56.261 204,59 C204,61.789 203.57,63 202.579,63 C201.798,63 200.862,64.35 200.5,66 C199.66,69.824 197.005,70.013 196.986,66.25 C196.965,61.968 195.899,59 194.383,59 C193.623,59 193,58.1 193,57 C193,54.337 189.97,54.397 189.27,57.074 C188.834,58.743 188.218,59.021 186.124,58.495 C184.692,58.136 183.291,57.495 183.01,57.071 C182.276,55.961 174.073,55.035 170.79,55.692 C169.256,55.999 168,56.869 168,57.625 C168,58.53 166.803,59 164.5,59 C162.187,59 161,59.469 161,60.383 C161,61.144 160.075,62.009 158.945,62.304 C157.144,62.775 156.928,63.5 157.195,68.16 L157.5,73.479 L165.216,73.153 C174.277,72.77 179,73.601 179,75.579 C179,76.672 180.618,77 186,77 C191.556,77 193,77.31 193,78.5 C193,79.333 193.889,80 195,80 C196.822,80 197,80.667 197,87.5 C197,94.333 196.822,95 195,95 C193.667,95 193,94.333 193,93 C193,91.889 192.333,91 191.5,91 C190.452,91 190,89.944 190,87.5 L190,84 L182.5,84 C176.5,84 175,83.7 175,82.5 C175,81.278 173.333,81 166,81 C158.667,81 157,81.278 157,82.5 C157,83.325 156.37,84 155.601,84 C154.654,84 154.074,85.535 153.806,88.75 C153.151,96.605 153.726,98 157.617,98 C160.333,98 161,98.394 161,100 C161,101.619 161.667,102 164.5,102 C167.333,102 168,102.381 168,104 C168,105.111 168.667,106 169.5,106 C170.325,106 171,106.675 171,107.5 C171,108.325 170.325,109 169.5,109 C168.3,109 168,110.5 168,116.5 L168,124 L161,124 L161,109 L155.5,109 C150.667,109 150,109.242 150,111 C150,112.619 149.333,113 146.5,113 C143.482,113 143,112.673 143,110.625 C143,109.319 142.719,106.844 142.375,105.125 L141.75,102 L133.375,102 C126.911,102 125,102.316 125,103.383 C125,104.959 122,105.966 117.25,105.986 C115.156,105.995 114,106.492 114,107.384 C114,108.379 112.156,108.884 107.432,109.185 C103.151,109.458 100.548,110.108 99.958,111.052 C99.46,111.848 97.579,112.5 95.777,112.5 C92.712,112.5 92.48,112.743 92.19,116.25 C91.896,119.796 91.692,120 88.44,120 C86.049,120 85,119.543 85,118.5 C85,117.675 84.325,117 83.5,117 C82.667,117 82,116.111 82,115 C82,113.889 82.667,113 83.5,113 C84.742,113 85,111.111 85,102 C85,93.301 85.289,91 86.383,91 C88.241,91 88.97,87.848 88.986,79.75 C88.997,74.423 89.316,73 90.5,73 C91.727,73 92,71.292 92,63.625 C92,58.469 92.281,52.844 92.625,51.125 C93.177,48.366 93.645,48 96.625,48 C99.333,48 100,48.395 100,50 C100,51.111 100.667,52 101.5,52 C102.325,52 103,52.675 103,53.5 C103,54.325 102.325,55 101.5,55 C100.282,55 99.972,56.789 99.85,64.5 C99.767,69.725 99.655,74.563 99.6,75.25 C99.543,75.963 100.929,76.637 102.826,76.819 C105.494,77.075 106.258,76.729 106.692,75.069 C107.146,73.333 108.02,73 112.117,73 C115.606,73 117,72.605 117,71.617 C117,70.629 119.095,70.039 124.358,69.545 C132.905,68.745 139,69.604 139,71.611 C139,72.375 139.9,73 141,73 C142.667,73 143,73.667 143,77 C143,79.889 142.583,81 141.5,81 C140.675,81 140,81.675 140,82.5 C140,83.433 139.056,84 137.5,84 C135.944,84 135,83.433 135,82.5 C135,81.675 134.325,81 133.5,81 C132.667,81 132,80.111 132,79 C132,77.381 131.333,77 128.5,77 C126.056,77 125,77.452 125,78.5 C125,79.605 123.847,80 120.625,80 C114.259,80 110,81.052 110,82.625 C110,83.53 108.803,84 106.5,84 C103.667,84 103,84.381 103,86 C103,87.111 102.333,88 101.5,88 C100.675,88 100,88.717 100,89.594 C100,90.47 99.1,91.423 98,91.71 C96.9,91.998 96,92.856 96,93.617 C96,94.377 95.325,95 94.5,95 C93.452,95 93,96.056 93,98.5 L93,102 L98,102 C101.59,102 103,101.61 103,100.617 C103,98.759 106.152,98.03 114.25,98.014 C119.577,98.003 121,97.684 121,96.5 C121,95.294 122.542,95 128.875,95 C138.568,95 143,94.176 143,92.375 C143,91.619 143.675,91 144.5,91 C145.69,91 146,89.556 146,84 C146,77.667 146.19,77 148,77 C149.667,77 150,76.333 150,73 C150,70.211 149.57,69 148.579,69 C147.798,69 146.86,67.64 146.495,65.978 C145.563,61.735 146.847,55 148.588,55 C149.616,55 150,53.639 150,50 C150,46.451 149.605,45 148.64,45 C147.147,45 145.747,35.685 146.695,32.059 Z M161,140 C161,141.111 161.667,142 162.5,142 Q164,142 164,145 Q164,148 162.5,148 C161.271,148 161,149.737 161,157.63 L161,167.261 L174.616,166.799 C185.977,166.414 188.386,166.061 189.166,164.669 C189.708,163.699 191.334,163 193.05,163 C195.083,163 196,162.504 196,161.406 C196,160.53 196.9,159.577 198,159.29 C199.1,159.002 200,158.144 200,157.383 C200,156.623 200.9,156 202,156 C203.333,156 204,155.333 204,154 C204,152.667 204.667,152 206,152 C207.111,152 208,151.333 208,150.5 C208,149.675 208.675,149 209.5,149 C210.548,149 211,147.944 211,145.5 C211,142.964 210.561,142 209.406,142 C208.53,142 207.577,141.1 207.29,140 C206.786,138.074 205.926,138 183.883,138 C161.667,138 161,138.058 161,140 Z M160.566,177.5 C160.205,179.425 159.48,181 158.955,181 C158.43,181 158,182.575 158,184.5 C158,186.425 158.45,188 159,188 C159.55,188 160,188.9 160,190 C160,191.667 160.667,192 164,192 C167.333,192 168,191.667 168,190 C168,188.267 168.667,188 173,188 C176.778,188 178,187.633 178,186.5 C178,185.302 179.488,185 185.389,185 L192.777,185 L193.434,181.5 C193.827,179.405 194.675,178 195.545,178 C196.345,178 197,177.1 197,176 C197,174.075 196.333,174 179.111,174 L161.223,174 Z"/>
</svg>

