<svg xmlns="http://www.w3.org/2000/svg" width="300" height="300" viewBox="0 0 300 300" version="1.1">
  <defs/>
  <path d="M211,83.5 C211,82.348 212.278,82 216.5,82 C220.722,82 222,82.348 222,83.5 C222,84.652 223.278,85 227.5,85 C232.333,85 233,85.242 233,87 C233,88.111 233.667,89 234.5,89 C235.325,89 236,89.675 236,90.5 C236,91.325 235.325,92 234.5,92 C233.667,92 233,92.889 233,94 C233,95.606 232.333,96 229.617,96 C227.074,96 226.103,95.503 225.71,94 C225.118,91.737 222.563,91.54 208.25,92.654 C202.302,93.117 200,93.674 200,94.648 C200,95.684 197.895,96 191,96 C183.667,96 182,96.278 182,97.5 C182,98.325 181.325,99 180.5,99 C179.567,99 179,99.944 179,101.5 C179,103.056 179.567,104 180.5,104 C182.811,104 182.275,105.693 179.75,106.37 C176.182,107.326 175,107.11 175,105.5 C175,104.675 174.325,104 173.5,104 C172.675,104 172,104.675 172,105.5 C172,106.333 171.111,107 170,107 C168.242,107 168,107.667 168,112.5 C168,116.665 167.644,118 166.534,118 C165.531,118 164.86,119.576 164.406,123 C163.975,126.246 163.261,128 162.371,128 C161.376,128 161,129.507 161,133.5 C161,138.333 160.758,139 159,139 C157.333,139 157,139.667 157,143 C157,145.889 156.583,147 155.5,147 Q154,147 154,150 C154,152.667 154.333,153 157,153 Q160,153 160,151.5 C160,150.417 161.111,150 164,150 C166.739,150 168,149.564 168,148.617 C168,147.041 171,146.034 175.75,146.014 C177.828,146.005 179,145.506 179,144.63 C179,143.742 180.635,143.076 183.651,142.736 C186.449,142.42 188.66,141.572 189.201,140.606 C189.967,139.236 192.444,139 206.05,139 C218.917,139 222,139.266 222,140.375 C222,141.904 226.228,143 232.125,143 C234.903,143 236,143.425 236,144.5 C236,145.333 236.889,146 238,146 C239.333,146 240,146.667 240,148 C240,149.333 240.667,150 242,150 C243.333,150 244,150.667 244,152 C244,153.1 244.613,154 245.363,154 C247.143,154 248.001,164.3 247.258,176.75 C246.85,183.587 246.353,186 245.353,186 C244.547,186 243.994,187.112 243.986,188.75 C243.965,193.032 242.899,196 241.383,196 C240.436,196 240,197.261 240,200 C240,202.834 239.576,204 238.545,204 C237.675,204 236.827,205.405 236.434,207.5 C236.058,209.505 235.184,211 234.389,211 C233.625,211 233,211.9 233,213 C233,214.1 232.345,215 231.545,215 C230.675,215 229.827,216.405 229.434,218.5 C229.058,220.505 228.184,222 227.389,222 C226.625,222 226,222.717 226,223.594 C226,224.47 225.1,225.423 224,225.71 C222.9,225.998 222,226.856 222,227.617 C222,228.377 221.375,229 220.611,229 C219.819,229 218.944,230.486 218.573,232.462 C218.015,235.436 217.436,236.015 214.462,236.573 C212.486,236.944 211,237.819 211,238.611 C211,239.532 209.82,240 207.5,240 C205.215,240 204,240.472 204,241.361 C204,242.951 197.085,243.985 186.5,243.978 C178.168,243.972 175,243.257 175,241.383 C175,240.469 173.813,240 171.5,240 C168.667,240 168,239.619 168,238 C168,236.381 167.333,236 164.5,236 C162.056,236 161,235.548 161,234.5 C161,233.667 160.111,233 159,233 C157.667,233 157,232.333 157,231 C157,229.889 156.333,229 155.5,229 C154.667,229 154,228.111 154,227 C154,224.791 154.707,224.682 162.75,225.648 C166.202,226.063 168,226.745 168,227.639 C168,228.519 169.197,229 171.383,229 C173.926,229 174.897,229.497 175.29,231 C175.726,232.67 176.654,233 180.906,233 C184.767,233 186,233.363 186,234.5 C186,235.548 187.056,236 189.5,236 C191.944,236 193,235.548 193,234.5 C193,233.379 194.201,232.997 197.75,232.986 C203.923,232.969 207,232.103 207,230.383 C207,229.623 207.9,229 209,229 C210.111,229 211,228.333 211,227.5 C211,226.675 211.717,226 212.594,226 C213.47,226 214.423,225.1 214.71,224 C214.998,222.9 215.856,222 216.617,222 C217.377,222 218,221.1 218,220 C218,218.667 218.667,218 220,218 C221.619,218 222,217.333 222,214.5 C222,212.056 222.452,211 223.5,211 C224.325,211 225,210.283 225,209.406 C225,208.53 225.9,207.577 227,207.29 C228.503,206.897 229,205.926 229,203.383 C229,201.169 229.478,200 230.383,200 C231.899,200 232.965,197.032 232.986,192.75 C232.995,190.978 233.534,190 234.5,190 C235.655,190 236,188.712 236,184.406 C236,179.654 236.301,178.734 238,178.29 C239.83,177.811 240,176.926 240,167.883 C240,159.507 239.757,158 238.406,158 C237.53,158 236.588,157.142 236.314,156.094 C235.997,154.88 234.579,153.956 232.408,153.549 C230.386,153.169 229,152.318 229,151.455 C229,150.32 227.459,150 222,150 C216.444,150 215,149.69 215,148.5 C215,147.3 213.5,147 207.5,147 C201.5,147 200,147.3 200,148.5 C200,149.69 198.556,150 193,150 C187.727,150 186,150.339 186,151.375 C186,152.746 181.88,154 177.375,154 C175.931,154 175,154.588 175,155.5 C175,156.466 174.022,157.005 172.25,157.014 C167.968,157.035 165,158.101 165,159.617 C165,160.564 163.739,161 161,161 C158.166,161 157,161.424 157,162.455 C157,163.325 155.595,164.173 153.5,164.566 C151.495,164.942 150,165.816 150,166.611 C150,167.565 148.746,168 146,168 C143.111,168 142,168.417 142,169.5 C142,171.811 140.307,171.275 139.63,168.75 C138.359,164.008 138.891,161 141,161 C142.758,161 143,160.333 143,155.5 C143,151.474 143.372,150 144.389,150 C145.184,150 146.058,148.505 146.434,146.5 C146.827,144.405 147.675,143 148.545,143 C149.642,143 150,141.646 150,137.5 C150,133.43 150.367,132 151.412,132 C152.28,132 153.085,130.459 153.5,128 C153.915,125.541 154.72,124 155.588,124 C156.616,124 157,122.639 157,119 C157,115.41 157.39,114 158.383,114 C159.974,114 160.967,110.993 160.986,106.116 L161,102.731 L153.887,103.24 C149.395,103.562 146.46,104.256 145.924,105.125 C145.32,106.103 142.18,106.599 135.038,106.844 C127.242,107.111 125,107.502 125,108.594 C125,109.666 123.365,110 118.117,110 C111.824,110 111.182,109.807 110.63,107.75 C109.359,103.008 109.891,100 112,100 C113.333,100 114,99.333 114,98 C114,96.061 114.667,96 136,96 C154.065,96 158,95.753 158,94.617 C158,92.79 161.135,92.03 168.75,92.014 C173.633,92.003 175,91.672 175,90.5 C175,89.316 176.423,88.997 181.75,88.986 C189.848,88.97 193,88.241 193,86.383 C193,85.308 195.004,85 202,85 C209.333,85 211,84.722 211,83.5 Z M134.25,56.706 C135.488,56.467 145.205,56.211 155.844,56.136 C174.405,56.006 175.208,56.081 175.71,58 C176.103,59.503 177.074,60 179.617,60 C181.957,60 183,60.462 183,61.5 C183,62.325 183.675,63 184.5,63 C185.583,63 186,64.111 186,67 L186,71 L180.906,71 C176.654,71 175.726,70.67 175.29,69 C174.794,67.106 173.926,67 158.883,67 C143.667,67 143,67.084 143,69 C143,70.333 142.333,71 141,71 C139.889,71 139,71.667 139,72.5 C139,73.325 138.325,74 137.5,74 C136.675,74 136,73.325 136,72.5 C136,71.667 135.111,71 134,71 C132.192,71 132,70.333 132,64.07 C132,57.677 132.175,57.105 134.25,56.706 Z M107,169.412 C107,168.465 108.152,168 110.5,168 C113.833,168 114,168.167 114,171.5 C114,174.833 113.833,175 110.5,175 C107.667,175 107,175.381 107,177 C107,178.619 106.333,179 103.5,179 C101.152,179 100,179.465 100,180.412 C100,181.28 98.459,182.085 96,182.5 C93.541,182.915 92,183.72 92,184.588 C92,185.535 90.848,186 88.5,186 C86.104,186 85,186.459 85,187.455 C85,188.325 83.595,189.173 81.5,189.566 C79.495,189.942 78,190.816 78,191.611 C78,192.532 76.82,193 74.5,193 C71.964,193 71,193.439 71,194.594 C71,195.47 70.1,196.423 69,196.71 C67.9,196.998 67,197.835 67,198.571 C67,199.309 65.429,200.204 63.5,200.566 C61.495,200.942 60,201.816 60,202.611 C60,203.532 58.82,204 56.5,204 C53.083,204 53,203.905 53,200 C53,197.111 53.417,196 54.5,196 C55.325,196 56,195.325 56,194.5 C56,193.667 56.889,193 58,193 C59.1,193 60,192.377 60,191.617 C60,190.856 60.9,189.998 62,189.71 C63.1,189.423 64,188.47 64,187.594 C64,186.353 65.082,186 68.883,186 C72.926,186 73.857,185.656 74.29,184 C74.671,182.544 75.654,182 77.906,182 C79.99,182 81,181.51 81,180.5 C81,179.417 82.111,179 85,179 C88.333,179 89,178.667 89,177 C89,175.267 89.667,175 94,175 C97.639,175 99,174.616 99,173.588 C99,172.72 100.541,171.915 103,171.5 C105.459,171.085 107,170.28 107,169.412 Z M74,126.5 C74,125.247 76.056,125 86.5,125 C96.944,125 99,125.247 99,126.5 C99,127.333 99.889,128 101,128 C102.333,128 103,128.667 103,130 C103,131.333 103.667,132 105,132 C106.758,132 107,132.667 107,137.5 L107,143 L103.611,143 C100.537,143 100.162,142.678 99.573,139.538 C99.015,136.564 98.436,135.985 95.462,135.427 C93.486,135.056 92,134.181 92,133.389 C92,132.512 90.893,132 89,132 C87.121,132 86,132.514 86,133.375 C86,134.746 81.88,136 77.375,136 C75.931,136 75,136.588 75,137.5 C75,138.7 73.5,139 67.5,139 L60,139 L60,135.5 C60,133.187 60.469,132 61.383,132 C62.144,132 63.002,131.1 63.29,130 C63.726,128.33 64.654,128 68.906,128 C72.767,128 74,127.637 74,126.5 Z M60,76.5 C60,75.452 61.056,75 63.5,75 C65.944,75 67,75.452 67,76.5 C67,77.652 68.278,78 72.5,78 C76.722,78 78,78.348 78,79.5 C78,80.412 78.931,81 80.375,81 C84.88,81 89,82.254 89,83.625 C89,84.53 90.197,85 92.5,85 C94.896,85 96,85.459 96,86.455 C96,87.325 97.405,88.173 99.5,88.566 C102.682,89.163 103,89.53 103,92.611 C103,95.817 102.811,96 99.5,96 C97.152,96 96,95.535 96,94.588 C96,93.72 94.459,92.915 92,92.5 C89.541,92.085 88,91.28 88,90.412 C88,88.904 77.713,88.231 63.67,88.82 C57.497,89.08 56.789,88.91 56.304,87.054 C56.008,85.924 55.144,85 54.383,85 C53.623,85 53,84.325 53,83.5 C53,82.675 53.675,82 54.5,82 C55.333,82 56,81.111 56,80 C56,78.667 56.667,78 58,78 C59.111,78 60,77.333 60,76.5 Z"/>
</svg>

