<svg xmlns="http://www.w3.org/2000/svg" width="300" height="300" viewBox="0 0 300 300" version="1.1">
  <defs/>
  <path d="M179,144.5 C179,143.201 182.889,143 208,143 C233.111,143 237,143.201 237,144.5 C237,145.466 237.978,146.005 239.75,146.014 C245.495,146.042 247,146.998 247,150.617 C247,152.831 247.478,154 248.383,154 C250.318,154 250.971,157.196 250.986,166.75 C250.997,173.09 250.682,175 249.625,175 C247.94,175 247,179.342 247,187.125 C247,191.681 246.663,193 245.5,193 C244.348,193 244,194.278 244,198.5 C244,203.333 243.758,204 242,204 C240.242,204 240,204.667 240,209.5 C240,213.646 239.642,215 238.545,215 C237.675,215 236.827,216.405 236.434,218.5 C236.058,220.505 235.184,222 234.389,222 C233.466,222 233,223.185 233,225.531 C233,227.719 232.44,229.278 231.527,229.628 C230.717,229.939 229.767,231.725 229.416,233.597 C229.065,235.468 228.188,237 227.468,237 C226.748,237 225.862,238.35 225.5,240 C225.138,241.65 224.202,243 223.421,243 C222.639,243 222,243.848 222,244.883 C222,245.926 221.107,247 220,247.29 C218.9,247.577 218,248.53 218,249.406 C218,250.51 217.078,251 215,251 Q212,251 212,252.5 C212,253.583 210.889,254 208,254 L204,254 L204,249.117 C204,245.074 203.656,244.143 202,243.71 C200.9,243.423 200,242.47 200,241.594 C200,240.717 199.325,240 198.5,240 C197.477,240 196.996,238.966 196.986,236.75 C196.966,232 195.959,229 194.383,229 C193.263,229 193,225.956 193,213 C193,199.444 192.771,197 191.5,197 C190.327,197 189.999,195.636 189.994,190.75 C189.991,187.313 189.699,180.787 189.346,176.25 C188.706,168.029 188.694,168 185.897,168 C183.481,168 182.999,168.487 182.434,171.5 C182.058,173.505 181.184,175 180.389,175 C179.625,175 179,175.9 179,177 C179,178.1 178.345,179 177.545,179 C176.675,179 175.827,180.405 175.434,182.5 C175.058,184.505 174.184,186 173.389,186 C172.468,186 172,187.18 172,189.5 C172,192.333 171.619,193 170,193 C168.394,193 168,193.667 168,196.383 C168,198.926 167.503,199.897 166,200.29 C164.9,200.577 164,201.53 164,202.406 C164,203.283 163.325,204 162.5,204 C161.452,204 161,205.056 161,207.5 C161,210.333 160.619,211 159,211 C157.667,211 157,211.667 157,213 C157,214.111 156.333,215 155.5,215 C154.452,215 154,216.056 154,218.5 C154,221.333 153.619,222 152,222 C150.381,222 150,222.667 150,225.5 C150,228.333 149.619,229 148,229 C146.667,229 146,229.667 146,231 C146,232.111 145.333,233 144.5,233 C143.675,233 143,233.623 143,234.383 C143,235.144 142.1,236.002 141,236.29 C139.9,236.577 139,237.53 139,238.406 C139,239.283 138.325,240 137.5,240 C136.667,240 136,240.889 136,242 C136,243.333 135.333,244 134,244 C132.889,244 132,244.667 132,245.5 C132,246.548 130.944,247 128.5,247 C125.167,247 125,246.833 125,243.5 C125,240.667 125.381,240 127,240 C128.111,240 129,239.333 129,238.5 C129,237.675 129.675,237 130.5,237 C131.333,237 132,236.111 132,235 C132,233.667 132.667,233 134,233 C135.333,233 136,232.333 136,231 C136,229.9 136.625,229 137.389,229 C138.184,229 139.058,227.505 139.434,225.5 C139.827,223.405 140.675,222 141.545,222 C142.345,222 143,221.1 143,220 C143,218.9 143.655,218 144.455,218 C145.325,218 146.173,216.595 146.566,214.5 C146.942,212.495 147.816,211 148.611,211 C149.532,211 150,209.82 150,207.5 C150,204.667 150.381,204 152,204 C153.333,204 154,203.333 154,202 C154,200.889 154.667,200 155.5,200 C156.336,200 157,199.11 157,197.99 C157,196.885 157.9,195.21 159,194.268 C160.1,193.326 161,191.756 161,190.778 C161,189.8 161.675,189 162.5,189 C163.51,189 164,187.99 164,185.906 C164,183.654 164.544,182.671 166,182.29 C167.503,181.897 168,180.926 168,178.383 C168,176.089 168.468,175 169.455,175 C170.325,175 171.173,173.595 171.566,171.5 C171.942,169.495 172.816,168 173.611,168 C174.523,168 175,166.837 175,164.617 C175,162.018 175.488,161.106 177.105,160.683 C179.539,160.046 179.175,157.663 176.567,157.157 C173.363,156.536 168,158.031 168,159.545 C168,160.576 166.834,161 164,161 C161.111,161 160,161.417 160,162.5 C160,163.325 159.325,164 158.5,164 C157.675,164 157,163.325 157,162.5 C157,161.31 155.556,161 150,161 L143,161 L143,157.545 C143,154.389 143.302,154.034 146.5,153.434 C148.505,153.058 150,152.184 150,151.389 C150,150.307 151.987,150 159,150 C165.996,150 168,149.692 168,148.617 C168,147.041 171,146.034 175.75,146.014 C177.966,146.004 179,145.523 179,144.5 Z M202.75,45.668 C203.713,45.405 205.4,45.366 206.5,45.581 C207.6,45.796 209.063,45.979 209.75,45.986 C210.63,45.996 211,48.074 211,53 C211,59.333 210.81,60 209,60 C207.889,60 207,59.333 207,58.5 C207,57.675 206.325,57 205.5,57 C204.675,57 204,57.675 204,58.5 C204,59.333 203.111,60 202,60 C200.889,60 200,60.667 200,61.5 C200,62.325 199.325,63 198.5,63 C197.667,63 197,63.889 197,65 C197,66.333 196.333,67 195,67 C193.667,67 193,67.667 193,69 C193,70.1 192.345,71 191.545,71 C190.675,71 189.827,72.405 189.434,74.5 C189.058,76.505 188.184,78 187.389,78 C186.625,78 186,78.675 186,79.5 C186,80.325 185.283,81 184.406,81 C183.53,81 182.577,81.9 182.29,83 C182.002,84.1 181.144,85 180.383,85 C179.623,85 179,85.9 179,87 C179,88.333 179.667,89 181,89 C182.111,89 183,89.667 183,90.5 C183,91.633 184.222,92 188,92 C192.333,92 193,92.267 193,94 C193,95.852 193.667,96 202,96 C209.333,96 211,96.278 211,97.5 C211,98.687 212.428,99 217.853,99 C229.011,99 237,100.103 237,101.642 C237,102.527 238.219,103 240.5,103 C242.857,103 244,103.464 244,104.421 C244,105.202 245.304,106.128 246.898,106.478 C249.991,107.157 250.963,109.124 250.986,114.75 C250.997,117.338 250.593,118 249,118 C247.889,118 247,118.667 247,119.5 C247,122.549 244.208,120.923 243.566,117.5 C243.173,115.405 242.325,114 241.455,114 C240.655,114 240,113.381 240,112.625 C240,111.052 235.741,110 229.375,110 C226.259,110 225,109.591 225,108.577 C225,107.433 222.343,107.091 211.428,106.827 C199.752,106.546 197.719,106.255 196.878,104.75 C196.105,103.365 194.554,103 189.45,103 C184.383,103 183,102.678 183,101.5 C183,100.614 182.079,99.996 180.75,99.991 C179.512,99.987 176.137,99.699 173.25,99.352 C168.356,98.764 168,98.867 168,100.861 C168,102.333 167.377,103 166,103 C164.889,103 164,103.667 164,104.5 C164,105.325 163.325,106 162.5,106 C161.667,106 161,106.889 161,108 C161,109.333 160.333,110 159,110 C157.667,110 157,110.667 157,112 C157,113.1 156.377,114 155.617,114 C154.856,114 153.998,114.9 153.71,116 C153.423,117.1 152.47,118 151.594,118 C150.717,118 150,118.675 150,119.5 C150,120.652 151.278,121 155.5,121 C159.722,121 161,120.652 161,119.5 C161,118.452 162.056,118 164.5,118 C167.833,118 168,118.167 168,121.5 C168,124.333 167.619,125 166,125 C164.9,125 164,125.619 164,126.375 C164,127.904 159.772,129 153.875,129 C151.097,129 150,129.425 150,130.5 C150,131.764 147.722,132 135.5,132 L121,132 L121,135.5 C121,137.944 120.548,139 119.5,139 C118.236,139 118,141.278 118,153.5 C118,165.722 118.236,168 119.5,168 C120.325,168 121,168.613 121,169.363 C121,170.369 123.478,170.908 130.447,171.419 C142.788,172.325 157,171.224 157,169.362 C157,168.613 157.9,168 159,168 C160.111,168 161,168.667 161,169.5 C161,170.325 161.675,171 162.5,171 C163.333,171 164,171.889 164,173 C164,174.512 163.329,175.003 161.25,175.014 C156.968,175.035 154,176.101 154,177.617 C154,178.564 152.739,179 150,179 C147.111,179 146,179.417 146,180.5 C146,181.738 144.167,182 135.5,182 C126.833,182 125,181.738 125,180.5 C125,179.452 123.944,179 121.5,179 L118,179 L118,202.5 C118,225.333 117.943,226 116,226 C114.667,226 114,226.667 114,228 C114,229.333 113.333,230 112,230 C110.9,230 110,230.45 110,231 C110,231.55 109.325,232 108.5,232 C107.247,232 107,229.944 107,219.5 C107,209.056 107.247,207 108.5,207 C109.738,207 110,205.167 110,196.5 C110,187.833 109.738,186 108.5,186 C107.348,186 107,184.722 107,180.5 C107,175.667 106.758,175 105,175 C103.889,175 103,174.333 103,173.5 C103,172.452 101.944,172 99.5,172 C96.667,172 96,171.619 96,170 C96,168.889 96.667,168 97.5,168 C98.325,168 99,167.325 99,166.5 C99,165.588 99.931,165 101.375,165 C105.88,165 110,163.746 110,162.375 C110,161.619 109.325,161 108.5,161 C107.452,161 107,159.944 107,157.5 C107,155.056 107.452,154 108.5,154 C109.652,154 110,152.722 110,148.5 L110,143 L105.111,143 C100.316,143 100.21,143.067 99.566,146.5 C99.173,148.595 98.325,150 97.455,150 C96.655,150 96,150.675 96,151.5 C96,152.325 95.283,153 94.406,153 C93.53,153 92.577,153.9 92.29,155 C92.002,156.1 91.144,157 90.383,157 C89.623,157 89,157.9 89,159 C89,160.333 88.333,161 87,161 C85.667,161 85,161.667 85,163 C85,164.1 84.361,165 83.579,165 C82.798,165 81.862,166.35 81.5,168 C81.138,169.65 80.202,171 79.421,171 C78.639,171 78,171.9 78,173 C78,174.163 77.333,175 76.406,175 C75.53,175 74.577,175.9 74.29,177 C74.002,178.1 73.144,179 72.383,179 C71.623,179 71,179.675 71,180.5 C71,181.325 70.283,182 69.406,182 C68.53,182 67.577,182.9 67.29,184 C67.002,185.1 66.194,186 65.495,186 C64.795,186 63.927,187.575 63.566,189.5 C63.173,191.595 62.325,193 61.455,193 C60.655,193 60,193.9 60,195 C60,196.333 59.333,197 58,197 C56.667,197 56,197.667 56,199 C56,200.619 55.333,201 52.5,201 C49.083,201 49,200.905 49,197 C49,194.111 49.417,193 50.5,193 C51.325,193 52,192.283 52,191.406 C52,190.53 52.874,189.584 53.943,189.305 C55.073,189.009 56.152,187.584 56.522,185.898 C56.872,184.304 57.798,183 58.579,183 C59.361,183 60,182.1 60,181 C60,179.889 60.667,179 61.5,179 C62.325,179 63,178.283 63,177.406 C63,176.53 63.9,175.577 65,175.29 C66.1,175.002 67,174.102 67,173.29 C67,172.477 67.9,171.577 69,171.29 C70.1,171.002 71,170.144 71,169.383 C71,168.623 71.675,168 72.5,168 C73.548,168 74,166.944 74,164.5 C74,161.667 74.381,161 76,161 C77.333,161 78,160.333 78,159 C78,157.889 78.667,157 79.5,157 C80.325,157 81,156.283 81,155.406 C81,154.53 81.9,153.577 83,153.29 C84.1,153.002 85,152.144 85,151.383 C85,150.623 85.655,150 86.455,150 C87.318,150 88.169,148.615 88.548,146.594 C89.093,143.693 89.693,143.093 92.594,142.548 C95.519,142 96,141.508 96,139.071 C96,137.074 96.593,136.078 98,135.71 C99.1,135.423 100,134.47 100,133.594 C100,132.667 99.163,132 98,132 C96.9,132 96,132.619 96,133.375 C96,135.246 91.511,136 80.375,136 C72.708,136 71,136.273 71,137.5 C71,138.743 69.105,139 59.948,139 L48.895,139 L49.198,133.75 C49.492,128.63 49.581,128.492 52.75,128.187 C54.763,127.993 56,127.327 56,126.437 C56,125.275 58.104,125 67,125 C77.333,125 78,124.879 78,123 C78,121.381 78.667,121 81.5,121 C83.82,121 85,120.532 85,119.611 C85,118.816 86.495,117.942 88.5,117.566 C90.595,117.173 92,116.325 92,115.455 C92,114.655 92.9,114 94,114 C95.333,114 96,113.333 96,112 C96,110.889 96.667,110 97.5,110 C98.325,110 99,109.325 99,108.5 C99,107.667 99.889,107 101,107 C102.333,107 103,106.333 103,105 C103,103.667 103.667,103 105,103 C106.905,103 107,102.333 107,89 C107,77.222 107.238,75 108.5,75 C109.555,75 110,73.934 110,71.406 C110,68.654 110.468,67.69 112,67.29 C113.1,67.002 114,66.144 114,65.383 C114,64.39 115.41,64 119,64 C122.778,64 124,64.367 124,65.5 C124,66.325 124.88,67 125.955,67 C127.397,67 128.082,66.082 128.566,63.5 C128.942,61.495 129.816,60 130.611,60 C131.375,60 132,59.1 132,58 C132,56.667 132.667,56 134,56 C135.111,56 136,55.333 136,54.5 C136,53.675 136.675,53 137.5,53 C138.325,53 139,53.675 139,54.5 C139,55.333 139.889,56 141,56 C142.619,56 143,56.667 143,59.5 C143,62.036 142.561,63 141.406,63 C140.53,63 139.577,63.9 139.29,65 C139.002,66.1 138.144,67 137.383,67 C136.462,67 136,68.201 136,70.594 C136,73.346 135.532,74.31 134,74.71 C132.497,75.103 132,76.074 132,78.617 C132,80.911 131.532,82 130.545,82 C129.675,82 128.827,83.405 128.434,85.5 C128.058,87.505 127.184,89 126.389,89 C125.625,89 125,89.717 125,90.594 C125,91.47 124.1,92.423 123,92.71 C121.583,93.081 121,94.074 121,96.117 C121,98.013 120.487,99 119.5,99 C118.253,99 118,100.957 118,110.617 C118,122.176 118.011,122.23 120.25,121.63 C121.487,121.299 126.213,121.021 130.75,121.014 C137.411,121.003 139,120.711 139,119.5 C139,118.667 139.889,118 141,118 C142.333,118 143,117.333 143,116 C143,114.9 143.623,114 144.383,114 C145.144,114 146.002,113.1 146.29,112 C146.577,110.9 147.53,110 148.406,110 C149.333,110 150,109.163 150,108 C150,106.9 150.639,106 151.421,106 C152.202,106 153.134,104.664 153.493,103.032 C154.02,100.634 154.804,99.94 157.572,99.42 C160.497,98.872 161,98.371 161,96.005 C161,94.074 161.607,93.075 163,92.71 C164.1,92.423 165,91.47 165,90.594 C165,89.717 165.675,89 166.5,89 C167.333,89 168,88.111 168,87 C168,85.667 168.667,85 170,85 C171.333,85 172,84.333 172,83 C172,81.889 172.667,81 173.5,81 C174.325,81 175,80.325 175,79.5 C175,78.675 175.655,78 176.455,78 C177.325,78 178.173,76.595 178.566,74.5 C178.942,72.495 179.816,71 180.611,71 C181.375,71 182,70.1 182,69 C182,67.667 182.667,67 184,67 C185.619,67 186,66.333 186,63.5 C186,60.667 186.381,60 188,60 C189.333,60 190,59.333 190,58 C190,56.889 190.667,56 191.5,56 C192.325,56 193,55.325 193,54.5 C193,53.667 193.889,53 195,53 C196.333,53 197,52.333 197,51 C197,49.667 197.667,49 199,49 C200.1,49 201,48.358 201,47.573 C201,46.789 201.787,45.931 202.75,45.668 Z M207,151.5 C207,152.621 205.799,153.003 202.25,153.014 C199.637,153.021 196.426,153.315 195.114,153.666 L192.728,154.304 L193.243,167.795 C193.664,178.834 194.052,181.45 195.379,182.192 C196.738,182.953 197,185.109 197,195.55 C197,205.95 197.247,208 198.5,208 C199.663,208 200,209.319 200,213.875 C200,221.658 200.94,226 202.625,226 C203.608,226 204,227.424 204,231 C204,234.908 204.348,236 205.594,236 C206.47,236 207.423,236.9 207.71,238 C207.998,239.1 208.856,240 209.617,240 C210.377,240 211,240.675 211,241.5 C211,242.325 211.675,243 212.5,243 C213.325,243 214,242.325 214,241.5 C214,240.675 214.85,240 215.889,240 C217.255,240 217.959,239.033 218.434,236.5 C218.827,234.405 219.675,233 220.545,233 C221.541,233 222,231.896 222,229.5 C222,227.152 222.465,226 223.412,226 C224.28,226 225.085,224.459 225.5,222 C225.915,219.541 226.72,218 227.588,218 C228.633,218 229,216.57 229,212.5 C229,208.484 229.373,207 230.383,207 C231.959,207 232.966,204 232.986,199.25 C232.996,197.034 233.477,196 234.5,196 C235.633,196 236,194.778 236,191 C236,186.667 236.267,186 238,186 C239.908,186 240,185.333 240,171.5 C240,159.821 239.731,157 238.617,157 C237.856,157 236.998,156.1 236.71,155 C236.274,153.33 235.346,153 231.094,153 C227.233,153 226,152.637 226,151.5 C226,150.272 224.278,150 216.5,150 C208.722,150 207,150.272 207,151.5 Z M88.29,58 C88.69,56.468 89.654,56 92.406,56 C95.932,56 96,56.075 96,60 C96,63.333 95.667,64 94,64 C92.267,64 92,64.667 92,69 C92,72.778 91.633,74 90.5,74 C89.348,74 89,75.278 89,79.5 C89,83.62 89.361,85 90.44,85 C91.381,85 91.987,86.297 92.19,88.75 L92.5,92.5 L97.75,92.362 L103,92.225 L103,96.112 C103,99.333 102.657,100 101,100 C99.889,100 99,100.667 99,101.5 C99,102.633 97.778,103 94,103 C90.222,103 89,102.633 89,101.5 C89,100.667 88.111,100 87,100 C85.667,100 85,99.333 85,98 C85,96.889 84.333,96 83.5,96 C82.222,96 82,93.333 82,78 L82,60 L84.883,60 C86.926,60 87.919,59.417 88.29,58 Z M120.25,70.713 C118.587,71.028 117.996,71.838 117.986,73.82 C117.965,78.037 116.891,81 115.383,81 C114.623,81 114,81.9 114,83 C114,84.619 114.667,85 117.5,85 C120.833,85 121,84.833 121,81.5 C121,78.632 121.372,78 123.06,78 C124.823,78 125.076,77.47 124.81,74.327 C124.484,70.469 123.916,70.019 120.25,70.713 Z M103,115.5 C103,116.325 102.283,117 101.406,117 C100.53,117 99.577,117.9 99.29,119 C99.002,120.1 98.144,121 97.383,121 C96.623,121 96,121.675 96,122.5 C96,123.325 96.627,124 97.393,124 C98.159,124 99.045,123.325 99.362,122.5 C99.768,121.442 101.419,121 104.969,121 C108.774,121 110,120.635 110,119.5 C110,118.675 109.325,118 108.5,118 C107.667,118 107,117.111 107,116 C107,114.667 106.333,114 105,114 C103.889,114 103,114.667 103,115.5 Z"/>
</svg>

