<svg xmlns="http://www.w3.org/2000/svg" width="300" height="300" viewBox="0 0 300 300" version="1.1">
  <defs/>
  <path d="M226.75,92.689 C227.713,92.438 234.055,92.18 240.844,92.116 C252.397,92.007 253.221,92.128 253.71,94 C254.081,95.417 255.074,96 257.117,96 C259.013,96 260,96.513 260,97.5 C260,98.333 260.889,99 262,99 C263.333,99 264,99.667 264,101 C264,102.333 264.667,103 266,103 C267.758,103 268,103.667 268,108.5 C268,112.619 268.361,114 269.439,114 C270.631,114 270.932,117.287 271.189,133.072 C271.465,150.001 271.697,152.254 273.25,153.122 C275.79,154.541 275.609,160.028 273,160.71 C271.136,161.198 271,162.074 271,173.617 C271,183.957 270.753,186 269.5,186 C268.243,186 267.971,188.385 267.82,200.75 C267.721,208.863 267.753,217.06 267.891,218.968 C268.27,224.226 267.111,229 265.455,229 C264.358,229 264,230.354 264,234.5 C264,238.526 263.628,240 262.611,240 C261.816,240 260.942,241.495 260.566,243.5 C259.966,246.698 259.611,247 256.455,247 C254.051,247 253,246.544 253,245.5 C253,244.675 252.325,244 251.5,244 C250.667,244 250,243.111 250,242 C250,240.889 250.667,240 251.5,240 C252.333,240 253,239.111 253,238 C253,236.9 253.623,236 254.383,236 C255.69,236 256.956,233.147 256.986,230.137 C257.005,228.293 235.86,228.921 235.239,230.782 C234.753,232.241 232,232.427 232,231 C232,229.576 224.248,229.755 223.77,231.191 C223.536,231.892 220.625,232.556 216.686,232.807 C211.865,233.114 210,233.619 210,234.616 C210,235.61 208.591,236 205,236 C201.222,236 200,235.633 200,234.5 C200,233.667 199.111,233 198,233 C196.889,233 196,233.667 196,234.5 C196,235.333 195.111,236 194,236 C192.889,236 192,235.333 192,234.5 C192,233.675 191.325,233 190.5,233 C189.667,233 189,232.111 189,231 C189,229.889 189.667,229 190.5,229 C191.333,229 192,228.111 192,227 C192,225.667 192.667,225 194,225 C195.111,225 196,224.333 196,223.5 C196,222.371 197.21,222 200.889,222 C205.684,222 205.79,221.933 206.434,218.5 C206.827,216.405 207.675,215 208.545,215 C209.576,215 210,213.834 210,211 C210,208.278 210.438,207 211.371,207 C212.261,207 212.975,205.246 213.406,202 C213.834,198.77 214.551,197 215.432,197 C216.45,197 216.885,194.809 217.151,188.332 C217.387,182.569 217.924,179.525 218.753,179.249 C220.516,178.661 220.302,176.33 218.418,175.607 C215.634,174.538 214.247,174.949 213.71,177 C213.31,178.532 212.346,179 209.594,179 C207.066,179 206,179.445 206,180.5 C206,181.325 205.325,182 204.5,182 C203.667,182 203,182.889 203,184 C203,185.619 202.333,186 199.5,186 C197.056,186 196,185.548 196,184.5 C196,183.452 194.944,183 192.5,183 L189,183 L189,190 C189,195.556 189.31,197 190.5,197 C191.325,197 192,197.623 192,198.383 C192,199.144 192.956,200.017 194.124,200.322 C195.89,200.784 196.129,201.35 195.542,203.687 C194.635,207.301 194.86,207.149 189.549,207.747 C185.414,208.213 185,208.066 185,206.13 C185,204.959 184.377,204 183.617,204 C181.538,204 181.029,200.72 181.014,187.25 C181.002,177.034 180.751,175 179.5,175 C178.367,175 178,173.778 178,170 C178,166.222 178.367,165 179.5,165 C180.746,165 181,163.056 181,153.5 C181,143.944 180.746,142 179.5,142 C178.353,142 178,140.736 178,136.625 C178,127.74 177.158,125.194 173.988,124.497 C171.095,123.862 170.039,121.802 170.014,116.75 C170.003,114.662 170.482,114 172,114 C173.1,114 174,113.377 174,112.617 C174,111.856 174.9,110.998 176,110.71 C177.456,110.329 178,109.346 178,107.094 C178,105.01 178.49,104 179.5,104 C180.583,104 181,102.889 181,100 L181,96 L192,96 L192,99.5 C192,102.833 192.167,103 195.5,103 C197.944,103 199,102.548 199,101.5 C199,100.379 200.201,99.997 203.75,99.986 C209.923,99.969 213,99.103 213,97.383 C213,96.359 214.558,96 219,96 C223.53,96 225,95.65 225,94.573 C225,93.789 225.787,92.941 226.75,92.689 Z M228,101.5 C228,102.637 226.767,103 222.906,103 C218.654,103 217.726,103.33 217.29,105 C216.848,106.688 215.926,107 211.383,107 C207.265,107 206,107.352 206,108.5 C206,109.637 204.767,110 200.906,110 C196.654,110 195.726,110.33 195.29,112 C194.923,113.404 193.926,114 191.945,114 C189.381,114 189.07,114.39 188.549,118.25 C187.781,123.94 188.331,170.665 189.177,171.51 C189.543,171.876 192.803,171.859 196.421,171.472 C201.017,170.979 203,170.35 203,169.384 C203,168.308 205.003,168 212,168 L221,168 L221,164.5 C221,162.056 221.452,161 222.5,161 C223.565,161 224.003,159.913 224.009,157.25 C224.026,149.622 225.249,143 226.639,143 C227.622,143 228,141.472 228,137.5 C228,132.667 228.242,132 230,132 C231.1,132 232,131.377 232,130.617 C232,128.802 235.14,128.027 242.5,128.027 C249.86,128.027 253,128.802 253,130.617 C253,131.661 251.31,132 246.111,132 L239.223,132 L238.584,135.403 C238.233,137.275 237.283,139.061 236.473,139.372 C235.384,139.79 235,141.639 235,146.469 C235,151.608 234.68,153 233.5,153 C232.348,153 232,154.278 232,158.5 L232,164 L235.5,164 C237.813,164 239,163.531 239,162.616 C239,161.621 240.85,161.115 245.6,160.813 C250.462,160.503 252.451,159.945 253.15,158.696 C253.694,157.724 255.308,157 256.933,157 C260.541,157 260.97,155.465 260.982,142.5 C260.998,124.294 259.84,110 258.347,110 C257.606,110 257,109.325 257,108.5 C257,107.675 256.283,107 255.406,107 C254.53,107 253.577,106.1 253.29,105 C252.897,103.497 251.926,103 249.383,103 C247.043,103 246,102.538 246,101.5 C246,100.278 244.333,100 237,100 C229.667,100 228,100.278 228,101.5 Z M109.313,111.912 C109.833,109.922 110.397,109.84 121.349,110.162 C127.668,110.348 133.153,110.815 133.537,111.201 C134.657,112.326 135.305,120.561 134.578,124.438 C133.965,127.704 133.623,128 130.455,128 L127,128 L127,118 L121.5,118 C117.278,118 116,118.348 116,119.5 C116,120.548 114.944,121 112.5,121 C109.667,121 109,121.381 109,123 C109,124.111 108.333,125 107.5,125 C106.675,125 106,125.675 106,126.5 C106,127.493 106.993,128 108.941,128 C112.458,128 113.277,129.048 112.422,132.454 C111.732,135.204 110,135.952 110,133.5 C110,132.417 108.889,132 106,132 L102,132 L102,139 C102,144.362 102.33,146 103.412,146 C104.28,146 105.085,147.541 105.5,150 C106.058,153.304 106.574,154 108.463,154 C112.887,154 117,152.735 117,151.375 C117,150.352 118.634,150 123.383,150 C128.926,150 129.836,149.737 130.29,148 C130.734,146.301 131.654,146 136.406,146 L142,146 L142,156.755 L132.925,157.189 C126.972,157.474 123.575,158.069 123.049,158.92 C122.608,159.634 120.167,160.452 117.624,160.739 C114.629,161.076 113,161.743 113,162.63 C113,163.384 112.082,164 110.959,164 C108.951,164 108.923,164.406 109.199,189.5 L109.479,215 L113.239,215 C115.915,215 117,215.433 117,216.5 C117,217.333 116.111,218 115,218 C113.667,218 113,218.667 113,220 C113,221.333 112.333,222 111,222 C109.9,222 109,222.655 109,223.455 C109,224.325 107.595,225.173 105.5,225.566 C103.575,225.927 102,226.795 102,227.495 C102,228.346 99.934,228.898 95.75,229.163 C86.551,229.745 80,229.045 80,227.479 C80,226.753 78.664,225.866 77.032,225.507 C74.634,224.98 73.94,224.196 73.42,221.428 C73.055,219.478 72.178,218 71.389,218 C70.625,218 70,217.283 70,216.406 C70,215.53 69.1,214.577 68,214.29 C66.201,213.819 66,212.926 66,205.383 L66,197 L77,197 L77,204.5 C77,210.314 77.319,212 78.421,212 C79.202,212 80.138,213.35 80.5,215 C80.862,216.65 81.798,218 82.579,218 C83.361,218 84,218.9 84,220 C84,221.852 84.667,222 93,222 L102,222 L102,200.5 C102,182.861 101.752,179 100.617,179 C99.041,179 98.034,176 98.014,171.25 C98.003,168.671 97.587,168 96,168 C94.9,168 94,168.639 94,169.421 C94,170.202 92.65,171.138 91,171.5 C89.35,171.862 88,172.735 88,173.44 C88,174.236 86.062,174.951 82.885,175.327 C79.804,175.692 77.279,176.604 76.536,177.619 C75.188,179.464 73,178.735 73,176.441 C73,175.648 72.325,175 71.5,175 C70.675,175 70,174.325 70,173.5 C70,172.675 70.675,172 71.5,172 C72.333,172 73,171.111 73,170 C73,168.667 73.667,168 75,168 C76.333,168 77,167.333 77,166 C77,164.242 77.667,164 82.5,164 C86.614,164 88,163.638 88,162.563 C88,161.673 89.237,161.007 91.25,160.813 L94.5,160.5 L94.5,148.712 C94.5,139.786 94.166,136.718 93.125,136.075 C92.256,135.54 91.562,132.605 91.24,128.113 C90.817,122.197 90.987,121 92.249,121 C93.084,121 94.002,120.1 94.29,119 C94.603,117.803 95.654,117 96.906,117 C98.101,117 99,116.356 99,115.5 C99,114.371 100.209,114 103.883,114 C107.994,114 108.853,113.67 109.313,111.912 Z M102,36.5 C102,35.417 103.111,35 106,35 C108.889,35 110,35.417 110,36.5 C110,37.325 110.675,38 111.5,38 C112.333,38 113,38.889 113,40 C113,41.333 112.333,42 111,42 C109.9,42 109,42.655 109,43.455 C109,44.325 107.595,45.173 105.5,45.566 C102.967,46.041 102,46.745 102,48.111 C102,49.15 101.345,50 100.545,50 C99.675,50 98.827,51.405 98.434,53.5 C98.058,55.505 97.184,57 96.389,57 C95.468,57 95,58.18 95,60.5 C95,63.333 95.381,64 97,64 C98.111,64 99,64.667 99,65.5 C99,66.325 99.675,67 100.5,67 C101.325,67 102,67.655 102,68.455 C102,69.318 103.386,70.169 105.408,70.549 C107.579,70.956 108.997,71.88 109.314,73.094 C109.588,74.142 110.53,75 111.406,75 C112.283,75 113,75.675 113,76.5 C113,77.333 113.889,78 115,78 C116.1,78 117,78.655 117,79.455 C117,80.325 118.405,81.173 120.5,81.566 C122.505,81.942 124,82.816 124,83.611 C124,84.532 125.18,85 127.5,85 C129.896,85 131,85.459 131,86.455 C131,87.325 132.405,88.173 134.5,88.566 C136.505,88.942 138,89.816 138,90.611 C138,91.539 139.194,92 141.594,92 C144.346,92 145.31,92.468 145.71,94 C146.078,95.407 147.074,96 149.071,96 C151.523,96 151.999,96.476 152.566,99.5 C153.451,104.217 152.288,110 150.455,110 C149.655,110 149,110.9 149,112 C149,113.619 148.333,114 145.5,114 C143.056,114 142,113.548 142,112.5 C142,111.675 142.675,111 143.5,111 C144.652,111 145,109.722 145,105.5 L145,100 L139.906,100 C135.654,100 134.726,99.67 134.29,98 C133.857,96.344 132.926,96 128.883,96 C125.082,96 124,95.647 124,94.406 C124,93.53 123.1,92.577 122,92.29 C120.9,92.002 120,91.144 120,90.383 C120,89.469 118.813,89 116.5,89 C114.104,89 113,88.541 113,87.545 C113,86.675 111.595,85.827 109.5,85.434 C107.495,85.058 106,84.184 106,83.389 C106,82.625 105.1,82 104,82 C102.667,82 102,81.333 102,80 C102,78.393 101.333,78 98.611,78 C95.53,78 95.163,77.682 94.566,74.5 C93.992,71.438 93.54,71 90.955,71 C88.667,71 88,71.451 88,73 C88,74.333 87.333,75 86,75 C84.381,75 84,75.667 84,78.5 C84,80.896 83.541,82 82.545,82 C81.675,82 80.827,83.405 80.434,85.5 C80.058,87.505 79.184,89 78.389,89 C77.625,89 77,89.623 77,90.383 C77,91.144 76.1,92.002 75,92.29 C73.468,92.69 73,93.654 73,96.406 C73,98.799 72.538,100 71.617,100 C70.856,100 69.998,100.9 69.71,102 C69.423,103.1 68.47,104 67.594,104 C66.348,104 66,105.092 66,109 C66,113.333 65.733,114 64,114 C62.667,114 62,114.667 62,116 C62,117.111 61.333,118 60.5,118 C59.664,118 59,118.89 59,120.01 C59,121.115 58.1,122.79 57,123.732 C55.9,124.674 55,126.019 55,126.722 C55,127.425 54.325,128 53.5,128 C52.667,128 52,128.889 52,130 C52,131.333 51.333,132 50,132 C48.381,132 48,132.667 48,135.5 C48,138.333 47.619,139 46,139 C44.667,139 44,139.667 44,141 C44,142.1 43.375,143 42.611,143 C41.816,143 40.942,144.495 40.566,146.5 C40.173,148.595 39.325,150 38.455,150 C37.655,150 37,150.9 37,152 C37,153.111 36.333,154 35.5,154 C34.675,154 34,154.675 34,155.5 C34,156.333 33.111,157 32,157 C30.667,157 30,157.667 30,159 C30,160.1 29.377,161 28.617,161 C27.041,161 26.034,158 26.014,153.25 C26.003,150.662 26.407,150 28,150 C29.619,150 30,149.333 30,146.5 C30,143.667 30.381,143 32,143 C33.111,143 34,142.333 34,141.5 C34,140.675 34.675,140 35.5,140 C36.356,140 37,139.101 37,137.906 C37,136.654 37.803,135.603 39,135.29 C40.417,134.919 41,133.926 41,131.883 C41,129.987 41.513,129 42.5,129 C43.333,129 44,128.111 44,127 C44,125.667 44.667,125 46,125 C47.606,125 48,124.333 48,121.617 C48,119.074 48.497,118.103 50,117.71 C51.1,117.423 52,116.47 52,115.594 C52,114.717 52.675,114 53.5,114 C54.333,114 55,113.111 55,112 C55,110.9 55.623,110 56.383,110 C57.899,110 58.965,107.032 58.986,102.75 C58.995,100.978 59.534,100 60.5,100 C61.333,100 62,99.111 62,98 C62,96.667 62.667,96 64,96 C65.606,96 66,95.333 66,92.617 C66,90.074 66.497,89.103 68,88.71 C69.1,88.423 70,87.47 70,86.594 C70,85.717 70.675,85 71.5,85 C72.548,85 73,83.944 73,81.5 C73,78.667 73.381,78 75,78 C76.619,78 77,77.333 77,74.5 C77,72.056 77.452,71 78.5,71 C79.333,71 80,70.111 80,69 C80,67.667 80.667,67 82,67 C83.619,67 84,66.333 84,63.5 C84,61.068 84.454,60 85.488,60 C86.451,60 87.202,58.588 87.616,56 C88.002,53.587 88.8,52 89.628,52 C90.486,52 91,50.876 91,49 C91,46.922 91.49,46 92.594,46 C93.47,46 94.423,45.1 94.71,44 C94.998,42.9 95.803,42 96.5,42 C97.197,42 98.002,41.1 98.29,40 C98.577,38.9 99.53,38 100.406,38 C101.283,38 102,37.325 102,36.5 Z M254,166.5 C254,167.667 252.667,168 248,168 C243.558,168 242,168.359 242,169.383 C242,170.899 239.032,171.965 234.75,171.986 C232.978,171.995 232,172.534 232,173.5 C232,174.333 231.111,175 230,175 C228.242,175 228,175.667 228,180.5 C228,184.5 227.625,186 226.625,186 C225.254,186 224,190.12 224,194.625 C224,196.069 223.412,197 222.5,197 C221.31,197 221,198.444 221,204 C221,209.273 220.661,211 219.625,211 C218.254,211 217,215.12 217,219.625 L217,222 L233.5,222 C247.5,222 250,221.773 250,220.5 C250,219.452 251.056,219 253.5,219 L257,219 L257,211.5 C257,205.5 257.3,204 258.5,204 C259.763,204 260.001,201.746 260.009,189.75 C260.013,181.912 260.301,173.137 260.648,170.25 L261.279,165 L257.639,165 C255.071,165 254,165.441 254,166.5 Z M142,187.389 C142,186.468 143.18,186 145.5,186 C147.944,186 149,186.452 149,187.5 C149,188.325 149.675,189 150.5,189 C151.333,189 152,189.889 152,191 C152,192.619 151.333,193 148.5,193 C145.667,193 145,193.381 145,195 C145,196.111 144.333,197 143.5,197 C142.675,197 142,197.675 142,198.5 C142,199.333 141.111,200 140,200 C138.394,200 138,200.667 138,203.383 C138,205.926 137.503,206.897 136,207.29 C134.9,207.577 134,208.53 134,209.406 C134,210.283 133.325,211 132.5,211 C131.452,211 131,212.056 131,214.5 C131,217.333 130.619,218 129,218 C127.667,218 127,218.667 127,220 C127,221.111 126.333,222 125.5,222 C124.452,222 124,223.056 124,225.5 C124,228.333 123.619,229 122,229 C120.641,229 120,229.667 120,231.079 C120,232.903 120.399,233.072 123.25,232.454 C125.037,232.066 126.821,231.243 127.213,230.624 C127.619,229.985 131.613,229.348 136.463,229.147 C142.521,228.897 145,228.425 145,227.522 C145,226.239 149.238,225 153.625,225 C155.069,225 156,224.412 156,223.5 C156,222.348 157.278,222 161.5,222 C166.333,222 167,222.242 167,224 C167,225.333 166.333,226 165,226 C163.889,226 163,226.667 163,227.5 C163,228.548 161.944,229 159.5,229 C157.187,229 156,229.469 156,230.383 C156,231.959 153,232.966 148.25,232.986 C146.034,232.996 145,233.477 145,234.5 C145,235.575 143.903,236 141.125,236 C135.228,236 131,237.096 131,238.625 C131,239.625 129.5,240 125.5,240 C120.667,240 120,240.242 120,242 C120,243.333 119.333,244 118,244 C116.889,244 116,244.667 116,245.5 C116,246.548 114.944,247 112.5,247 C109.667,247 109,247.381 109,249 C109,250.333 108.333,251 107,251 C105.889,251 105,251.667 105,252.5 C105,253.325 104.325,254 103.5,254 C102.667,254 102,254.889 102,256 C102,257.333 101.333,258 100,258 C98.9,258 98,258.639 98,259.421 C98,260.202 96.65,261.138 95,261.5 C93.35,261.862 92,262.747 92,263.466 C92,265.185 88.308,265.643 78.25,265.173 L70,264.788 L70,259.894 C70,256.083 70.353,255 71.594,255 C72.47,255 73.423,254.1 73.71,253 C74.086,251.565 75.074,251 77.21,251 C79.346,251 80.335,250.435 80.71,249 C81.143,247.344 82.074,247 86.117,247 C89.617,247 91,246.607 91,245.611 C91,244.816 92.495,243.942 94.5,243.566 C96.595,243.173 98,242.325 98,241.455 C98,240.459 99.104,240 101.5,240 C104.036,240 105,239.561 105,238.406 C105,237.53 105.9,236.577 107,236.29 C108.112,235.999 109,234.926 109,233.874 C109,232.832 109.9,231.21 111,230.268 C112.1,229.326 113,227.981 113,227.278 C113,226.575 113.675,226 114.5,226 C115.333,226 116,225.111 116,224 C116,222.667 116.667,222 118,222 C119.619,222 120,221.333 120,218.5 C120,216.152 120.465,215 121.412,215 C122.28,215 123.085,213.459 123.5,211 C123.915,208.541 124.72,207 125.588,207 C126.478,207 127,205.933 127,204.117 C127,202.074 127.583,201.081 129,200.71 C130.197,200.397 131,199.346 131,198.094 C131,196.942 131.639,196 132.421,196 C133.202,196 134.134,194.664 134.493,193.032 C135.02,190.634 135.804,189.94 138.572,189.42 C140.522,189.055 142,188.178 142,187.389 Z"/>
</svg>

