<svg xmlns="http://www.w3.org/2000/svg" width="300" height="300" viewBox="0 0 300 300" version="1.1">
  <defs/>
  <path d="M172,60.5 C172,59.213 175.056,59 193.5,59 C211.944,59 215,59.213 215,60.5 C215,61.548 216.056,62 218.5,62 C221.333,62 222,62.381 222,64 C222,65.667 222.667,66 226,66 C228.789,66 230,66.43 230,67.421 C230,68.202 231.307,69.128 232.904,69.479 C235.679,70.088 235.84,70.427 236.506,77.058 C237.003,82.006 237.605,84 238.601,84 C239.666,84 240,85.67 240,91 C240,96.556 239.69,98 238.5,98 C237.395,98 237,99.153 237,102.375 C237,108.588 235.958,113 234.491,113 C233.65,113 233.094,115.186 232.813,119.6 C232.503,124.462 231.945,126.451 230.696,127.15 C229.612,127.757 229,129.345 229,131.55 C229,133.95 228.544,135 227.5,135 C226.49,135 226,136.01 226,138.094 C226,140.346 225.456,141.329 224,141.71 C222.843,142.013 222,143.074 222,144.228 C222,145.966 221.55,146.138 218.5,145.566 C215.427,144.989 215,145.159 215,146.955 C215,148.333 214.348,149 213,149 C211.9,149 211,149.655 211,150.455 C211,151.325 209.595,152.173 207.5,152.566 C205.495,152.942 204,153.816 204,154.611 C204,155.532 202.82,156 200.5,156 C197.964,156 197,156.439 197,157.594 C197,158.47 196.1,159.423 195,159.71 C193.9,159.998 193,160.856 193,161.617 C193,162.531 191.813,163 189.5,163 C186.667,163 186,163.381 186,165 C186,166.805 185.333,167 179.148,167 L172.296,167 L171.654,175.25 C171.301,179.787 171.009,186.988 171.006,191.25 C171.001,197.47 170.704,199 169.5,199 C168.3,199 168,200.5 168,206.5 C168,212.168 168.333,214 169.364,214 C170.93,214 172,220.146 172,229.14 C172,233.682 172.337,235 173.5,235 C174.333,235 175,235.889 175,237 C175,238.333 175.667,239 177,239 C178.619,239 179,239.667 179,242.5 C179,245.833 179.167,246 182.5,246 C184.82,246 186,245.532 186,244.611 C186,243.816 187.495,242.942 189.5,242.566 C191.437,242.203 193,241.31 193,240.566 C193,239.822 194.563,238.929 196.5,238.566 C198.595,238.173 200,237.325 200,236.455 C200,235.655 200.9,235 202,235 C203.333,235 204,234.333 204,233 C204,231.889 204.667,231 205.5,231 C206.325,231 207,230.325 207,229.5 C207,228.675 207.85,228 208.889,228 C210.255,228 210.959,227.033 211.434,224.5 C211.827,222.405 212.675,221 213.545,221 C214.345,221 215,220.1 215,219 C215,217.889 215.667,217 216.5,217 C217.325,217 218,216.325 218,215.5 C218,214.667 218.889,214 220,214 C221.667,214 222,213.333 222,210 L222,206 L218,206 C215.111,206 214,205.583 214,204.5 C214,203.328 212.633,202.997 207.75,202.986 C200.135,202.97 197,202.21 197,200.383 C197,199.373 195.516,199 191.5,199 L186,199 L186,188 L196.5,188 C205.167,188 207,187.738 207,186.5 C207,185.675 207.787,184.992 208.75,184.983 C210.662,184.964 215,180.887 215,179.109 C215,178.499 216.575,178 218.5,178 C221.333,178 222,177.619 222,176 C222,174.667 222.667,174 224,174 C225.1,174 226,173.345 226,172.545 C226,171.675 227.405,170.827 229.5,170.434 C231.505,170.058 233,169.184 233,168.389 C233,167.468 234.18,167 236.5,167 C239.333,167 240,166.619 240,165 C240,163.242 240.667,163 245.5,163 L251,163 L250.986,169.75 C250.97,177.848 250.241,181 248.383,181 C247.469,181 247,182.187 247,184.5 C247,186.944 246.548,188 245.5,188 C244.667,188 244,188.889 244,190 C244,191.333 243.333,192 242,192 C240.333,192 240,192.667 240,196 C240,198.889 239.583,200 238.5,200 C236.189,200 236.725,201.693 239.25,202.37 C240.488,202.701 243.637,202.979 246.25,202.986 C249.799,202.997 251,203.379 251,204.5 C251,205.672 252.367,206.003 257.25,206.014 C264.865,206.03 268,206.79 268,208.617 C268,209.697 270.078,210 277.5,210 L287,210 L287,221 L280.05,221 C274.487,221 272.905,220.653 272.126,219.261 C271.357,217.887 269.457,217.445 263.076,217.155 C257.012,216.88 255,216.441 255,215.394 C255,214.422 253.713,213.997 250.75,213.991 C242.665,213.975 236,212.786 236,211.361 C236,210.612 235.325,210 234.5,210 C233.675,210 233,210.675 233,211.5 C233,212.325 232.283,213 231.406,213 C230.53,213 229.577,213.9 229.29,215 C229.002,216.1 228.197,217 227.5,217 C226.803,217 225.998,217.9 225.71,219 C225.423,220.1 224.47,221 223.594,221 C222.667,221 222,221.837 222,223 C222,224.1 221.361,225 220.579,225 C219.798,225 218.862,226.35 218.5,228 C218.122,229.722 217.196,231 216.327,231 C215.494,231 214.584,231.874 214.305,232.943 C214.013,234.059 212.591,235.151 210.963,235.508 C208.865,235.969 207.963,236.891 207.486,239.065 C207.131,240.679 206.202,242 205.421,242 C204.639,242 204,242.9 204,244 C204,245.333 203.333,246 202,246 C200.9,246 200,246.655 200,247.455 C200,248.325 198.595,249.173 196.5,249.566 C194.575,249.927 193,250.797 193,251.5 C193,252.203 191.425,253.073 189.5,253.434 C187.405,253.827 186,254.675 186,255.545 C186,257.643 176.168,257.602 175.362,255.5 C175.045,254.675 174.159,254 173.393,254 C172.627,254 172,253.058 172,251.906 C172,250.654 171.197,249.603 170,249.29 C168.344,248.857 168,247.926 168,243.883 C168,239.667 167.727,239 166,239 C164.242,239 164,238.333 164,233.5 C164,229.278 163.652,228 162.5,228 C161.204,228 161,224.333 161,201 C161,177.667 161.204,174 162.5,174 C163.325,174 164,173.325 164,172.5 C164,171.675 163.325,171 162.5,171 C161.221,171 161,168.278 161,152.5 C161,136.722 161.221,134 162.5,134 C163.69,134 164,132.556 164,127 C164,120.667 164.19,120 166,120 C167.333,120 168,119.333 168,118 C168,116.889 168.667,116 169.5,116 C170.325,116 171,115.325 171,114.5 C171,113.667 171.889,113 173,113 C174.333,113 175,112.333 175,111 C175,109.242 175.667,109 180.5,109 C185.333,109 186,109.242 186,111 C186,112.111 185.333,113 184.5,113 C183.675,113 183,113.675 183,114.5 C183,115.356 182.101,116 180.906,116 C179.654,116 178.603,116.803 178.29,118 C178.002,119.1 177.144,120 176.383,120 C174.885,120 174.689,121.238 175.63,124.75 C176.294,127.226 178,127.829 178,125.588 C178,124.72 179.541,123.915 182,123.5 C184.459,123.085 186,122.28 186,121.412 C186,120.465 187.152,120 189.5,120 C191.803,120 193,119.53 193,118.625 C193,116.859 197.42,115.996 206.375,116.014 C214.836,116.03 218,116.738 218,118.617 C218,119.377 218.9,120 220,120 C221.333,120 222,120.667 222,122 C222,123.1 222.619,124 223.375,124 C224.948,124 226,119.741 226,113.375 C226,110.153 226.395,109 227.5,109 C228.77,109 229,106.568 229,93.111 L229,77.223 L225.5,76.566 C223.405,76.173 222,75.325 222,74.455 C222,73.424 220.834,73 218,73 C215.261,73 214,72.564 214,71.616 C214,70.652 212.032,70.022 207.5,69.537 C202.877,69.042 201,68.431 201,67.42 C201,66.319 199.313,66 193.5,66 C187.841,66 186,66.334 186,67.361 C186,68.751 179.378,69.974 171.75,69.991 C169.228,69.997 168,70.453 168,71.383 C168,72.144 167.1,73.002 166,73.29 C164.544,73.671 164,74.654 164,76.906 C164,79.775 163.746,80 160.5,80 L157,80 L157,73 C157,67.707 157.337,66 158.383,66 C159.144,66 160.002,65.1 160.29,64 C160.734,62.301 161.654,62 166.406,62 C170.712,62 172,61.655 172,60.5 Z M85.29,46 C85.834,43.92 89.117,43.389 93.75,44.63 C95.521,45.105 96,45.953 96,48.617 C96,50.957 95.538,52 94.5,52 C93.675,52 93,52.625 93,53.389 C93,54.177 91.527,55.054 89.597,55.416 C86.181,56.057 85,57.513 85,61.082 C85,62.137 84.361,63 83.579,63 C82.798,63 81.862,64.35 81.5,66 C81.138,67.65 80.202,69 79.421,69 C78.639,69 78,69.9 78,71 C78,72.333 78.667,73 80,73 C81.333,73 82,73.667 82,75 C82,76.111 82.667,77 83.5,77 C84.325,77 85,77.675 85,78.5 C85,79.333 85.889,80 87,80 C88.333,80 89,80.667 89,82 C89,83.727 89.667,84 93.883,84 C97.926,84 98.857,84.344 99.29,86 C99.603,87.197 100.654,88 101.906,88 C103.101,88 104,88.644 104,89.5 C104,90.466 104.978,91.005 106.75,91.014 C111.032,91.035 114,92.101 114,93.617 C114,94.377 114.9,95 116,95 C117.111,95 118,95.667 118,96.5 C118,97.325 118.63,98 119.399,98 C121.052,98 121.76,104.321 121.163,113.75 L120.767,120 L117.384,120 C115.136,120 114,119.526 114,118.588 C114,116.631 107.209,115.637 99.487,116.464 C93.868,117.066 93.114,117.409 92.56,119.616 C91.838,122.494 92.525,124 94.559,124 C95.493,124 96,125.055 96,127 Q96,130 94.5,130 C93.417,130 93,131.111 93,134 C93,136.889 93.417,138 94.5,138 C95.367,138 96,138.905 96,140.142 C96,142.17 96.331,142.25 102.147,141.642 C105.527,141.289 110.252,141 112.647,141 C115.85,141 117,140.604 117,139.5 C117,138.667 117.889,138 119,138 C120.1,138 121,138.625 121,139.389 C121,140.184 122.495,141.058 124.5,141.434 C127.082,141.918 128,142.603 128,144.045 C128,145.12 127.325,146 126.5,146 C125.675,146 125,146.675 125,147.5 C125,148.722 123.333,149 116,149 C108.667,149 107,149.278 107,150.5 C107,151.548 105.944,152 103.5,152 L100,152 L100,159 C100,164.556 100.31,166 101.5,166 C102.756,166 103,168.111 103,179 L103,192 L96,192 L96,181.5 C96,173.258 95.704,171 94.625,171 C93.254,171 92,166.88 92,162.375 C92,160.931 91.412,160 90.5,160 C89.667,160 89,159.111 89,158 C89,156.667 88.333,156 87,156 C85.667,156 85,156.667 85,158 C85,159.758 84.333,160 79.5,160 C75.278,160 74,160.348 74,161.5 C74,162.325 73.325,163 72.5,163 C71.675,163 71,162.325 71,161.5 C71,160.667 70.111,160 69,160 C67.333,160 67,159.333 67,156 C67,152.095 67.083,152 70.5,152 C72.944,152 74,151.548 74,150.5 C74,149.445 75.066,149 77.594,149 C80.346,149 81.31,148.532 81.71,147 C81.998,145.9 82.856,145 83.617,145 C84.627,145 85,143.516 85,139.5 C85,135.278 84.652,134 83.5,134 C82.367,134 82,132.778 82,129 C82,124.667 81.733,124 80,124 C78.889,124 78,124.667 78,125.5 C78,126.325 77.283,127 76.406,127 C75.53,127 74.577,127.9 74.29,129 C74.002,130.1 73.144,131 72.383,131 C71.623,131 71,130.1 71,129 C71,127.889 70.333,127 69.5,127 C68.452,127 68,125.944 68,123.5 C68,121.056 68.452,120 69.5,120 C70.325,120 71,119.345 71,118.545 C71,117.675 72.405,116.827 74.5,116.434 C76.505,116.058 78,115.184 78,114.389 C78,113.486 79.148,113 81.278,113 C83.318,113 85.202,112.245 86.268,111 C87.698,109.33 89.218,109 95.49,109 C101.499,109 103,108.7 103,107.5 C103,106.667 103.889,106 105,106 C106.111,106 107,106.667 107,107.5 C107,108.548 108.056,109 110.5,109 C113.833,109 114,108.833 114,105.5 C114,102.667 113.619,102 112,102 C110.9,102 110,101.383 110,100.629 C110,99.739 108.246,99.025 105,98.594 C101.576,98.14 100,97.469 100,96.466 C100,95.422 98.847,95 96,95 C93.261,95 92,94.564 92,93.617 C92,92.101 89.032,91.035 84.75,91.014 C82.978,91.005 82,90.466 82,89.5 C82,88.667 81.111,88 80,88 C78.667,88 78,87.333 78,86 C78,84.381 77.333,84 74.5,84 C71.667,84 71,84.381 71,86 C71,87.1 70.345,88 69.545,88 C68.675,88 67.827,89.405 67.434,91.5 C67.073,93.425 66.203,95 65.5,95 C64.797,95 63.927,96.575 63.566,98.5 C63.173,100.595 62.325,102 61.455,102 C60.655,102 60,102.9 60,104 C60,105.1 59.361,106 58.579,106 C57.798,106 56.862,107.35 56.5,109 C56.138,110.65 55.259,112 54.548,112 C53.813,112 52.98,113.726 52.616,116 C52.202,118.588 51.451,120 50.488,120 C49.667,120 49,120.896 49,122 C49,123.1 48.345,124 47.545,124 C46.675,124 45.827,125.405 45.434,127.5 C45.058,129.505 44.184,131 43.389,131 C42.625,131 42,131.9 42,133 C42,134.1 41.361,135 40.579,135 C39.798,135 38.862,136.35 38.5,138 C38.138,139.65 37.202,141 36.421,141 C35.457,141 35,142.155 35,144.594 C35,147.346 34.532,148.31 33,148.71 C31.893,149 31,150.074 31,151.117 C31,152.152 30.325,153 29.5,153 C28.675,153 28,153.675 28,154.5 C28,155.325 28.675,156 29.5,156 C30.583,156 31,157.111 31,160 C31,162.789 30.57,164 29.579,164 C28.798,164 27.869,165.321 27.514,166.935 C27.03,169.139 26.139,170.03 23.935,170.514 C22.321,170.869 21,171.798 21,172.579 C21,173.57 19.789,174 17,174 L13,174 L13,168.5 C13,163.667 13.242,163 15,163 C16.619,163 17,162.333 17,159.5 C17,157.18 17.468,156 18.389,156 C19.184,156 20.058,154.505 20.434,152.5 C20.827,150.405 21.675,149 22.545,149 C23.532,149 24,147.911 24,145.617 C24,143.074 24.497,142.103 26,141.71 C27.1,141.423 28,140.47 28,139.594 C28,138.717 28.625,138 29.389,138 C30.184,138 31.058,136.505 31.434,134.5 C31.827,132.405 32.675,131 33.545,131 C34.345,131 35,130.1 35,129 C35,127.889 35.667,127 36.5,127 C37.548,127 38,125.944 38,123.5 C38,120.667 38.381,120 40,120 C41.619,120 42,119.333 42,116.5 C42,113.667 42.381,113 44,113 C45.619,113 46,112.333 46,109.5 C46,107.056 46.452,106 47.5,106 C48.333,106 49,105.111 49,104 C49,102.9 49.655,102 50.455,102 C51.325,102 52.173,100.595 52.566,98.5 C52.942,96.495 53.816,95 54.611,95 C55.375,95 56,94.283 56,93.406 C56,92.53 56.9,91.577 58,91.29 C59.503,90.897 60,89.926 60,87.383 C60,85.163 60.477,84 61.389,84 C62.184,84 63.058,82.505 63.434,80.5 C63.827,78.405 64.675,77 65.545,77 C66.548,77 67,75.884 67,73.406 C67,70.654 67.468,69.69 69,69.29 C70.417,68.919 71,67.926 71,65.883 C71,63.987 71.513,63 72.5,63 C73.356,63 74,62.101 74,60.906 C74,59.654 74.803,58.603 76,58.29 C77.417,57.919 78,56.926 78,54.883 C78,52.912 78.504,52 79.594,52 C80.47,52 81.423,51.1 81.71,50 C81.998,48.9 82.803,48 83.5,48 C84.197,48 85.002,47.1 85.29,46 Z M146.408,164.379 C146.699,163.621 147.626,163 148.469,163 C149.589,163 150,164.075 150,167 C150,170.333 149.667,171 148,171 C146.889,171 146,171.667 146,172.5 C146,173.487 145.013,174 143.117,174 C141.074,174 140.081,174.583 139.71,176 C139.423,177.1 138.47,178 137.594,178 C136.717,178 136,178.675 136,179.5 C136,180.333 135.111,181 134,181 C132.667,181 132,181.667 132,183 C132,184.1 131.345,185 130.545,185 C129.675,185 128.827,186.405 128.434,188.5 C128.058,190.505 127.184,192 126.389,192 C125.625,192 125,192.9 125,194 C125,195.1 124.361,196 123.579,196 C122.798,196 121.862,197.35 121.5,199 C121.138,200.65 120.202,202 119.421,202 C118.639,202 118,202.9 118,204 C118,205.333 117.333,206 116,206 C114.667,206 114,206.667 114,208 C114,209.1 113.375,210 112.611,210 C111.816,210 110.942,211.495 110.566,213.5 C110.173,215.595 109.325,217 108.455,217 C107.655,217 107,217.675 107,218.5 C107,219.325 107.563,220.006 108.25,220.014 C108.938,220.021 110.513,220.299 111.75,220.63 C113.565,221.117 114,220.824 114,219.117 C114,217.074 114.437,217 126.5,217 C136.944,217 139,216.753 139,215.5 C139,214.462 140.043,214 142.383,214 C145.047,214 145.895,214.479 146.37,216.25 C147.376,220.007 147.09,221 145,221 C143.9,221 143,221.637 143,222.415 C143,223.446 140.968,224.02 135.5,224.532 C130.122,225.036 128,225.626 128,226.617 C128,227.663 126.291,228 121,228 C115.727,228 114,228.339 114,229.375 C114,231.15 109.589,232 100.375,232 C94.486,232 93,232.302 93,233.5 C93,234.325 92.152,235 91.117,235 C90.074,235 89,235.893 88.71,237 C88.274,238.67 87.346,239 83.094,239 C79.233,239 78,239.363 78,240.5 C78,241.722 76.333,242 69,242 C61.667,242 60,241.722 60,240.5 C60,239.667 59.111,239 58,239 C56.667,239 56,238.333 56,237 C56,235.889 55.333,235 54.5,235 C51.413,235 53.05,232.081 56.5,231.434 C58.505,231.058 60,230.184 60,229.389 C60,228.468 61.18,228 63.5,228 C65.813,228 67,227.531 67,226.617 C67,225.041 70,224.034 74.75,224.014 C76.966,224.004 78,223.523 78,222.5 C78,221.278 79.667,221 87,221 C95.333,221 96,220.852 96,219 C96,217.667 96.667,217 98,217 C99.333,217 100,216.333 100,215 C100,213.9 100.639,213 101.421,213 C102.202,213 103.138,211.65 103.5,210 C103.862,208.35 104.798,207 105.579,207 C106.361,207 107,206.1 107,205 C107,203.889 107.667,203 108.5,203 C109.333,203 110,202.111 110,201 C110,199.667 110.667,199 112,199 C113.619,199 114,198.333 114,195.5 C114,192.667 114.381,192 116,192 C117.333,192 118,191.333 118,190 C118,188.889 118.667,188 119.5,188 C120.51,188 121,186.99 121,184.906 C121,182.654 121.544,181.671 123,181.29 C124.1,181.002 125,180.144 125,179.383 C125,178.623 125.675,178 126.5,178 C127.333,178 128,177.111 128,176 C128,174.667 128.667,174 130,174 C131.333,174 132,173.333 132,172 C132,170.667 132.667,170 134,170 C135.1,170 136,169.34 136,168.534 C136,167.533 137.565,166.861 140.939,166.414 C143.704,166.047 146.112,165.151 146.408,164.379 Z M200,125.5 C200,126.633 198.778,127 195,127 C190.667,127 190,127.267 190,129 C190,130.614 189.333,131 186.545,131 C183.389,131 183.034,131.302 182.434,134.5 C181.837,137.682 181.47,138 178.389,138 C176.043,138 175,137.538 175,136.5 C175,135.675 174.325,135 173.5,135 C172.358,135 171.998,136.254 171.991,140.25 C171.987,143.137 171.699,147.863 171.352,150.75 L170.721,156 L176.361,156 C180.479,156 182,155.629 182,154.625 C182,153.254 186.12,152 190.625,152 C192.069,152 193,151.412 193,150.5 C193,149.462 194.043,149 196.383,149 C198.926,149 199.897,148.503 200.29,147 C200.671,145.544 201.654,145 203.906,145 C205.99,145 207,144.51 207,143.5 C207,142.667 207.889,142 209,142 C210.667,142 211,141.333 211,138 C211,135.25 211.435,134 212.392,134 C214.124,134 215.247,129.831 214.411,126.5 C213.817,124.136 213.409,124 206.892,124 C201.432,124 200,124.312 200,125.5 Z M64,172.5 C64,171.675 64.675,171 65.5,171 C66.325,171 67,171.675 67,172.5 C67,173.333 67.889,174 69,174 C70.733,174 71,174.667 71,179 C71,182.639 71.384,184 72.412,184 C73.28,184 74.085,185.541 74.5,188 C74.915,190.459 75.72,192 76.588,192 C77.365,192 78,192.9 78,194 C78,195.333 78.667,196 80,196 C81.111,196 82,196.667 82,197.5 C82,199.177 82.877,199.281 94.75,199.015 C102.504,198.841 103,198.956 103,200.915 C103,202.102 102.354,203 101.5,203 C100.675,203 100,203.635 100,204.412 C100,205.28 98.459,206.085 96,206.5 C93.541,206.915 92,207.72 92,208.588 C92,209.535 90.848,210 88.5,210 C86.056,210 85,209.548 85,208.5 C85,207.452 83.944,207 81.5,207 C78.667,207 78,206.619 78,205 C78,203.667 77.333,203 76,203 C74.9,203 74,202.377 74,201.617 C74,200.856 73.1,199.998 72,199.71 C70.9,199.423 70,198.47 70,197.594 C70,196.717 69.325,196 68.5,196 C67.667,196 67,195.111 67,194 C67,192.9 66.345,192 65.545,192 C64.675,192 63.827,190.595 63.434,188.5 C63.058,186.495 62.184,185 61.389,185 C60.372,185 60,183.526 60,179.5 C60,174.667 60.242,174 62,174 C63.111,174 64,173.333 64,172.5 Z M232.75,177.728 C230.335,177.981 229,178.633 229,179.56 C229,180.352 228.325,181 227.5,181 C226.675,181 226,181.717 226,182.594 C226,183.47 225.1,184.423 224,184.71 C222.9,184.998 222,185.806 222,186.505 C222,187.205 220.425,188.073 218.5,188.434 C215.476,189.001 215,189.477 215,191.929 C215,195.024 216.79,195.961 222.75,195.986 C224.966,195.996 226,196.477 226,197.5 C226,198.548 227.056,199 229.5,199 C232.833,199 233,198.833 233,195.5 C233,193.056 233.452,192 234.5,192 C235.333,192 236,191.111 236,190 C236,188.667 236.667,188 238,188 C239.758,188 240,187.333 240,182.5 C240,177.865 239.725,177.026 238.25,177.168 C237.287,177.261 234.813,177.513 232.75,177.728 Z"/>
</svg>

