<svg xmlns="http://www.w3.org/2000/svg" width="300" height="300" viewBox="0 0 300 300" version="1.1">
  <defs/>
  <path d="M224,43.5 C224,42.417 225.111,42 228,42 C230.81,42 232,42.427 232,43.437 C232,44.327 233.237,44.993 235.25,45.187 C238.217,45.473 238.527,45.826 238.81,49.25 C238.997,51.509 239.64,53 240.426,53 C242.06,53 243.017,64.419 242.25,74.75 C241.866,79.92 241.322,82 240.356,82 C239.28,82 239,84.877 239,95.95 C239,108.197 238.786,110.02 237.25,110.879 C235.804,111.687 235.44,113.604 235.156,121.928 L234.813,132 L258.406,132 C278.712,132 282,132.209 282,133.5 C282,134.548 283.056,135 285.5,135 L289,135 L289,144.5 C289,152.278 288.728,154 287.5,154 C286.328,154 285.997,155.367 285.986,160.25 C285.97,167.865 285.21,171 283.383,171 C282.373,171 282,172.484 282,176.5 C282,180.57 281.633,182 280.588,182 C279.72,182 278.915,183.541 278.5,186 C278.085,188.459 277.28,190 276.412,190 C275.542,190 274.995,191.055 274.986,192.75 C274.965,197.032 273.899,200 272.383,200 C271.436,200 271,201.261 271,204 C271,206.746 270.565,208 269.611,208 C268.816,208 267.942,209.495 267.566,211.5 C267.173,213.595 266.325,215 265.455,215 C264.459,215 264,216.104 264,218.5 C264,220.82 263.532,222 262.611,222 C261.816,222 260.942,223.495 260.566,225.5 C260.173,227.595 259.325,229 258.455,229 C257.655,229 257,229.9 257,231 C257,232.333 256.333,233 255,233 C253.667,233 253,233.667 253,235 C253,236.111 252.333,237 251.5,237 C250.675,237 250,237.675 250,238.5 C250,239.333 249.111,240 248,240 C246.667,240 246,240.667 246,242 C246,243.333 245.333,244 244,244 C242.889,244 242,244.667 242,245.5 C242,246.325 241.377,247 240.617,247 C239.856,247 238.998,247.9 238.71,249 C238.31,250.532 237.346,251 234.594,251 C232.066,251 231,251.445 231,252.5 C231,253.633 229.778,254 226,254 C222.222,254 221,253.633 221,252.5 C221,251.445 219.934,251 217.406,251 C214.654,251 213.69,250.532 213.29,249 C213.002,247.9 212.144,247 211.383,247 C210.623,247 210,246.325 210,245.5 C210,244.452 211.056,244 213.5,244 C215.944,244 217,244.452 217,245.5 C217,246.652 218.278,247 222.5,247 C226.526,247 228,246.628 228,245.611 C228,244.816 229.495,243.942 231.5,243.566 C233.595,243.173 235,242.325 235,241.455 C235,240.655 235.9,240 237,240 C238.333,240 239,239.333 239,238 C239,236.889 239.667,236 240.5,236 C241.325,236 242,235.325 242,234.5 C242,233.667 242.889,233 244,233 C245.333,233 246,232.333 246,231 C246,229.889 246.667,229 247.5,229 C248.325,229 249,228.283 249,227.406 C249,226.53 249.9,225.577 251,225.29 C252.435,224.914 253,223.926 253,221.79 C253,219.654 253.565,218.665 255,218.29 C256.503,217.897 257,216.926 257,214.383 C257,212.043 257.462,211 258.5,211 C259.466,211 260.005,210.022 260.014,208.25 C260.035,203.968 261.101,201 262.617,201 C263.564,201 264,199.739 264,197 C264,194.153 264.422,193 265.466,193 C266.469,193 267.14,191.424 267.594,188 C268.025,184.754 268.739,183 269.629,183 C270.621,183 271,181.51 271,177.617 C271,173.074 271.312,172.152 273,171.71 C274.763,171.249 275,170.346 275,164.094 C275,158.455 275.308,157 276.5,157 C277.621,157 278.003,155.799 278.014,152.25 C278.021,149.637 278.283,146.548 278.595,145.385 C279.109,143.47 278.669,143.223 273.946,142.769 C270.555,142.443 268.409,141.696 267.815,140.634 C266.587,138.44 253,138.211 253,140.383 C253,142.399 249.757,142.971 238.25,142.986 C229.812,142.998 228,143.265 228,144.5 C228,145.325 227.325,146 226.5,146 C225.675,146 225,145.325 225,144.5 C225,143.258 223.111,143 214,143 C204.889,143 203,143.258 203,144.5 C203,145.652 201.722,146 197.5,146 C192.667,146 192,146.242 192,148 C192,149.727 191.333,150 187.117,150 C181.762,150 181.042,150.914 181.014,157.75 C181.004,159.966 180.523,161 179.5,161 C178.675,161 178,161.675 178,162.5 C178,163.333 177.111,164 176,164 C174.889,164 174,163.333 174,162.5 C174,161.675 173.352,161 172.56,161 C171.619,161 171.013,159.704 170.81,157.258 C170.593,154.643 169.973,153.417 168.75,153.185 C167.539,152.956 167,153.492 167,154.927 C167,156.63 166.375,157 163.5,157 C160.667,157 160,157.381 160,159 C160,160.758 159.333,161 154.5,161 C150.278,161 149,161.348 149,162.5 C149,163.325 149.675,164 150.5,164 C151.605,164 152,165.153 152,168.375 C152,174.741 153.052,179 154.625,179 C155.669,179 156,180.803 156,186.5 L156,194 L163,194 L163,200.383 C163,206.158 162.785,206.824 160.75,207.37 C156.117,208.611 152.834,208.08 152.29,206 C152.002,204.9 151.144,204 150.383,204 C149.373,204 149,202.516 149,198.5 C149,194.484 148.627,193 147.617,193 C145.79,193 145.03,189.865 145.014,182.25 C145.003,177.367 144.672,176 143.5,176 C142.465,176 142,174.961 142,172.647 C142,164.723 140.696,157 139.358,157 C138.343,157 138,155.229 138,150 C138,144.444 137.69,143 136.5,143 C135.31,143 135,141.556 135,136 C135,130.444 135.31,129 136.5,129 C137.333,129 138,128.111 138,127 C138,125.237 138.667,125 143.632,125 L149.264,125 L148.958,103.75 C148.425,66.884 148.777,56 150.5,56 C151.325,56 152,55.325 152,54.5 C152,53.417 153.111,53 156,53 C158.889,53 160,53.417 160,54.5 C160,55.69 161.444,56 167,56 C172.556,56 174,55.69 174,54.5 C174,53.379 175.201,52.997 178.75,52.986 C184.923,52.969 188,52.103 188,50.383 C188,49.359 189.558,49 194,49 C198.378,49 200,48.634 200,47.647 C200,46.288 209.565,45 219.651,45 C222.85,45 224,44.603 224,43.5 Z M206,54.5 C206,55.412 205.069,56 203.625,56 C199.12,56 195,57.254 195,58.625 C195,59.661 193.273,60 188,60 C182.707,60 181,60.337 181,61.383 C181,62.959 178,63.966 173.25,63.986 C171.098,63.995 170,64.485 170,65.437 C170,66.327 168.763,66.993 166.75,67.187 C163.892,67.462 163.462,67.892 163.187,70.75 C162.993,72.763 162.327,74 161.437,74 C160.646,74 160,74.9 160,76 C160,77.333 159.333,78 158,78 C156.053,78 156,78.667 156,103 C156,124.1 156.225,128 157.441,128 C159.694,128 160.261,129.775 159.542,134.571 L158.877,139 L154.055,139 C149.591,139 149.194,139.204 148.7,141.75 C147.557,147.636 150.875,153.411 152.29,148 C152.671,146.544 153.654,146 155.906,146 C157.99,146 159,145.51 159,144.5 C159,143.359 160.256,142.997 164.25,142.986 C170.902,142.969 174,142.142 174,140.383 C174,139.623 174.9,139 176,139 C177.849,139 178,138.333 178,130.156 C178,113.452 176.817,100 175.348,100 C174.337,100 174,98.124 174,92.5 C174,86.5 174.3,85 175.5,85 C176.325,85 177,84.365 177,83.588 C177,82.72 178.541,81.915 181,81.5 C183.459,81.085 185,80.28 185,79.412 C185,78.261 187.679,78 199.5,78 C211.521,78 214,78.249 214,79.455 C214,80.325 215.405,81.173 217.5,81.566 C220.905,82.205 221,82.348 220.986,86.861 C220.968,92.928 220.094,96 218.383,96 C217.623,96 217,96.9 217,98 C217,99.619 216.333,100 213.5,100 C210.167,100 210,99.833 210,96.5 C210,94.056 210.452,93 211.5,93 C212.333,93 213,92.111 213,91 C213,89.889 212.333,89 211.5,89 C210.675,89 210,88.353 210,87.561 C210,85.703 202.562,84.539 196.5,85.448 C192.389,86.064 192,86.367 192,88.945 C192,90.926 192.596,91.923 194,92.29 C195.1,92.577 196,93.53 196,94.406 C196,95.333 195.163,96 194,96 C192.9,96 192,96.623 192,97.383 C192,98.144 191.1,99.002 190,99.29 C188.134,99.778 188,100.654 188,112.406 C188,122.934 187.754,125 186.5,125 C185.344,125 185,126.293 185,130.639 L185,136.279 L190.25,135.648 C193.137,135.301 198.762,135.013 202.75,135.009 C208.524,135.002 210,134.695 210,133.5 C210,132.31 211.439,132 216.955,132 L223.909,132 L224.566,128.5 C224.942,126.495 225.816,125 226.611,125 C227.708,125 228,122.793 228,114.5 C228,106.373 228.304,104 229.344,104 C230.377,104 230.84,100.694 231.341,89.75 C232.164,71.76 232.176,60.128 231.375,56.125 L230.75,53 L218.375,53 C208.042,53 206,53.247 206,54.5 Z M73,86.5 C73,85.654 73.895,85 75.054,85 C77.081,85 77.105,85.361 76.934,113.75 L76.762,142.5 L84.131,142.756 C88.184,142.898 92.175,142.573 93,142.035 C94.251,141.22 94.504,137.686 94.522,120.779 C94.544,101.213 94.393,97.025 96.001,96.178 C96.578,95.874 97.381,96 98.5,96 L102,96 L102,101.5 C102,105.516 102.373,107 103.383,107 C104.999,107 105.967,110.021 105.986,115.125 C106.008,120.758 104.886,125 103.375,125 C102.31,125 102,127.03 102,134 C102,141.333 102.278,143 103.5,143 C104.325,143 105,143.658 105,144.462 C105,145.62 106.931,145.985 114.25,146.212 L123.5,146.5 L123.81,150.25 L124.121,154 L102,154 L102,159 C102,162.778 101.633,164 100.5,164 C99.395,164 99,165.153 99,168.375 C99,174.741 97.948,179 96.375,179 C95.396,179 95,180.405 95,183.875 C95,188.535 95.138,188.778 98.125,189.375 C99.844,189.719 102.319,190 103.625,190 C105.069,190 106,190.588 106,191.5 C106,192.621 107.201,193.003 110.75,193.014 C116.923,193.031 120,193.897 120,195.617 C120,196.377 120.9,197 122,197 C123.1,197 124,197.625 124,198.389 C124,199.184 125.495,200.058 127.5,200.434 C129.595,200.827 131,201.675 131,202.545 C131,203.345 131.675,204 132.5,204 C133.325,204 134,204.717 134,205.594 C134,206.47 134.9,207.423 136,207.71 C137.1,207.998 138,208.856 138,209.617 C138,210.377 138.9,211 140,211 C141.605,211 142,211.667 142,214.375 C142,217.35 141.632,217.824 138.897,218.371 C135.38,219.074 134,218.53 134,216.441 C134,215.648 133.325,215 132.5,215 C131.675,215 131,214.283 131,213.406 C131,212.53 130.1,211.577 129,211.29 C127.9,211.002 127,210.194 127,209.495 C127,208.795 125.425,207.927 123.5,207.566 C121.405,207.173 120,206.325 120,205.455 C120,204.358 118.646,204 114.5,204 C110.484,204 109,203.627 109,202.617 C109,201.101 106.032,200.035 101.75,200.014 C99.978,200.005 99,199.466 99,198.5 C99,197.456 97.949,197 95.545,197 C92.389,197 92.034,197.302 91.434,200.5 C91.058,202.505 90.184,204 89.389,204 C88.625,204 88,204.717 88,205.594 C88,206.47 87.1,207.423 86,207.71 C84.497,208.103 84,209.074 84,211.617 C84,213.831 83.522,215 82.617,215 C81.856,215 80.998,215.9 80.71,217 C80.423,218.1 79.47,219 78.594,219 C77.717,219 77,219.675 77,220.5 C77,221.325 76.377,222 75.617,222 C74.856,222 73.998,222.9 73.71,224 C73.423,225.1 72.47,226 71.594,226 C70.717,226 70,226.613 70,227.362 C70,228.941 58.639,230.449 54.525,229.417 C50.184,228.327 51.54,226.13 57,225.406 C60.246,224.975 62,224.261 62,223.371 C62,222.471 63.202,222 65.5,222 C68.333,222 69,221.619 69,220 C69,218.667 69.667,218 71,218 C72.619,218 73,217.333 73,214.5 C73,211.667 73.381,211 75,211 C76.333,211 77,210.333 77,209 C77,207.889 77.667,207 78.5,207 C79.466,207 80.005,206.022 80.014,204.25 C80.035,199.968 81.101,197 82.617,197 C83.377,197 84,196.1 84,195 C84,193.381 83.333,193 80.5,193 C78.056,193 77,192.548 77,191.5 C77,190.452 75.944,190 73.5,190 C71.056,190 70,190.452 70,191.5 C70,192.333 69.111,193 68,193 C66.242,193 66,193.667 66,198.5 C66,203.333 65.758,204 64,204 C62.667,204 62,204.667 62,206 C62,207.733 61.333,208 57,208 L52,208 L52,204.5 C52,202.056 52.452,201 53.5,201 C54.667,201 55,199.667 55,195 C55,190.558 55.359,189 56.383,189 C58.103,189 58.969,185.923 58.986,179.75 C58.997,176.201 59.379,175 60.5,175 C61.71,175 62.032,173.259 62.167,166 C62.258,161.05 62.371,156.213 62.417,155.25 C62.479,153.931 61.577,153.424 58.75,153.19 C56.297,152.987 55,152.381 55,151.44 C55,150.648 54.325,150 53.5,150 C52.675,150 52,150.675 52,151.5 C52,152.695 50.524,153.002 44.75,153.009 C33.881,153.022 27,154.042 27,155.639 C27,156.388 26.1,157 25,157 C23.667,157 23,157.667 23,159 C23,160.333 22.333,161 21,161 C19.381,161 19,161.667 19,164.5 C19,166.944 18.548,168 17.5,168 C16.452,168 16,166.944 16,164.5 C16,161.667 15.619,161 14,161 C12.242,161 12,160.333 12,155.5 C12,150.667 12.242,150 14,150 C15.1,150 16,149.345 16,148.545 C16,147.675 17.405,146.827 19.5,146.434 C21.505,146.058 23,145.184 23,144.389 C23,143.247 26.821,143 44.5,143 L66,143 L66,132.5 C66,123.833 66.262,122 67.5,122 C68.761,122 69,119.792 69,108.125 C69,92.622 69.603,88 71.625,88 C72.381,88 73,87.325 73,86.5 Z M181.434,182.5 L182.091,179 L196.045,179 C207.783,179 210,179.238 210,180.5 C210,181.652 211.278,182 215.5,182 C220.333,182 221,182.242 221,184 C221,185.619 221.667,186 224.5,186 C227.333,186 228,186.381 228,188 C228,189.333 228.667,190 230,190 C231.721,190 231.998,190.662 231.986,194.75 C231.969,200.923 231.103,204 229.383,204 C228.623,204 228,204.9 228,206 C228,207.1 227.375,208 226.611,208 C225.816,208 224.942,209.495 224.566,211.5 C224.173,213.595 223.325,215 222.455,215 C221.655,215 221,215.625 221,216.389 C221,217.184 219.505,218.058 217.5,218.434 C215.405,218.827 214,219.675 214,220.545 C214,221.576 212.834,222 210,222 C206.667,222 206,222.333 206,224 C206,225.619 205.333,226 202.5,226 C200.056,226 199,226.452 199,227.5 C199,228.548 197.944,229 195.5,229 C192.167,229 192,228.833 192,225.5 C192,222.667 191.619,222 190,222 C188.19,222 188,221.333 188,215 C188,209.444 187.69,208 186.5,208 C185.3,208 185,206.5 185,200.5 C185,194.604 184.689,193 183.545,193 C181.712,193 180.549,187.217 181.434,182.5 Z M75.25,153.718 C73.278,154.087 73,154.748 73,159.07 C73,162.786 72.631,164 71.5,164 C70.3,164 70,165.5 70,171.5 L70,179 L73,179 C74.876,179 76,179.514 76,180.373 C76,181.297 77.717,181.914 81.25,182.262 C84.138,182.545 86.838,182.576 87.25,182.33 C87.662,182.083 88,180.334 88,178.441 C88,176.049 88.457,175 89.5,175 C90.71,175 91.032,173.259 91.167,166 C91.258,161.05 91.371,156.237 91.417,155.304 C91.487,153.876 90.391,153.583 84.5,153.453 C80.65,153.368 76.487,153.487 75.25,153.718 Z M196,195 C196,198.778 196.367,200 197.5,200 C198.65,200 199,201.271 199,205.441 C199,208.434 199.338,211.072 199.75,211.303 C201.503,212.288 213,210.716 213,209.491 C213,208.793 214.558,207.93 216.462,207.573 C219.436,207.015 220.015,206.436 220.573,203.462 C220.944,201.486 221.819,200 222.611,200 C223.479,200 224,198.905 224,197.079 C224,194.647 223.498,194.049 221,193.5 C219.35,193.138 218,192.202 218,191.421 C218,190.279 215.838,190 207,190 L196,190 Z"/>
</svg>

