<svg xmlns="http://www.w3.org/2000/svg" width="300" height="300" viewBox="0 0 300 300" version="1.1">
  <defs/>
  <path d="M113,49.5 C113,47.146 115.699,47.747 116.37,50.25 C116.701,51.487 116.979,54.68 116.986,57.344 C116.998,61.353 116.655,62.277 115,62.71 C113.497,63.103 113,64.074 113,66.617 C113,69.333 112.606,70 111,70 C109.237,70 109,70.667 109,75.625 L109,81.25 L112.125,80.625 C113.844,80.281 121.269,80 128.625,80 C139.847,80 142,79.759 142,78.5 C142,77.262 143.833,77 152.5,77 C162.526,77 163,76.904 163,74.884 C163,72.904 163.419,72.794 169.462,73.178 C173.016,73.405 176.258,73.924 176.667,74.333 C177.076,74.742 177.595,77.984 177.822,81.538 L178.233,88 L174.616,88 C171.667,88 171,87.631 171,86 C171,84.333 170.333,84 167,84 L163,84 L163,90.95 C163,96.513 163.347,98.095 164.739,98.874 C166.113,99.643 166.555,101.543 166.845,107.924 L167.212,116 L177.606,116 C186.178,116 188,115.737 188,114.5 C188,113.667 188.889,113 190,113 C191.1,113 192,113.625 192,114.389 C192,115.184 193.495,116.058 195.5,116.434 C198.698,117.034 199,117.389 199,120.545 C199,122.949 198.544,124 197.5,124 C196.675,124 196,124.675 196,125.5 C196,126.583 194.889,127 192,127 C189.111,127 188,126.583 188,125.5 C188,124.284 186.389,124 179.5,124 C172.611,124 171,124.284 171,125.5 C171,126.333 170.111,127 169,127 C167.333,127 167,127.667 167,131 C167,133.767 167.433,135 168.404,135 C169.474,135 169.977,137.493 170.523,145.5 C171.063,153.417 171.578,156 172.619,156 C173.72,156 174,158.536 174,168.5 L174,181 L207.883,181 C240.926,181 241.78,180.95 242.29,179 C242.726,177.33 243.654,177 247.906,177 L253,177 L253,182.375 C253,187.595 252.91,187.768 249.875,188.375 C248.156,188.719 245.006,189 242.875,189 C240.097,189 239,189.425 239,190.5 C239,191.722 237.333,192 230,192 C222.667,192 221,191.722 221,190.5 C221,189.667 220.111,189 219,189 C217.889,189 217,189.667 217,190.5 C217,191.782 214.167,192 197.5,192 L178,192 L178,211.5 C178,228.167 178.218,231 179.5,231 C180.728,231 181,232.722 181,240.5 C181,248.278 180.728,250 179.5,250 C178.675,250 178,250.675 178,251.5 C178,252.538 176.957,253 174.617,253 C171.953,253 171.105,252.521 170.63,250.75 C170.299,249.513 170.021,238.938 170.014,227.25 C170.002,209.034 169.786,206 168.5,206 C167.452,206 167,204.944 167,202.5 C167,200.056 167.452,199 168.5,199 C169.548,199 170,197.944 170,195.5 L170,192 L139.5,192 C113.056,192 109,192.199 109,193.5 C109,194.642 107.746,195.002 103.75,195.009 C100.862,195.013 96.113,195.304 93.195,195.655 C88.342,196.237 87.841,196.108 87.328,194.146 C86.799,192.125 86.161,192 76.383,192 L66,192 L66,199 L48,199 L48,194 C48,190.092 48.348,189 49.594,189 C50.47,189 51.409,188.151 51.681,187.113 C52.113,185.458 53.403,185.176 62.147,184.825 C69.098,184.546 72.373,184.014 72.956,183.071 C73.543,182.121 76.435,181.665 82.646,181.543 C100.748,181.186 102,181.061 102,179.617 C102,178.856 102.9,177.998 104,177.71 C105.1,177.423 106,176.47 106,175.594 C106,174.717 106.675,174 107.5,174 C108.548,174 109,172.944 109,170.5 C109,167.667 109.381,167 111,167 C112.758,167 113,166.333 113,161.5 C113,157.508 113.376,156 114.371,156 C115.379,156 115.929,153.615 116.446,147 C116.978,140.207 117.5,138 118.575,138 C119.537,138 120,136.862 120,134.5 L120,131 L104.75,131 L105.375,127.875 C105.719,126.156 106,123.681 106,122.375 L106,120 L156,120 L156,111 C156,104.03 155.69,102 154.625,102 C152.94,102 152,97.658 152,89.875 C152,85.54 151.637,84 150.617,84 C149.856,84 148.998,84.9 148.71,86 C148.231,87.833 147.346,88 138.094,88 C130.153,88 128,88.296 128,89.387 C128,90.4 126.116,90.881 121.02,91.169 C115.56,91.477 113.709,91.992 112.52,93.532 C111.082,95.394 110.927,95.406 109.64,93.75 C108.858,92.744 106.945,92 105.14,92 C102.039,92 102,92.062 102,97 C102,100.576 101.608,102 100.625,102 C99.254,102 98,106.12 98,110.625 C98,112.069 97.412,113 96.5,113 C95.452,113 95,114.056 95,116.5 C95,118.813 94.531,120 93.617,120 C91.897,120 91.031,123.077 91.014,129.25 C91.003,132.799 90.621,134 89.5,134 C88.667,134 88,134.889 88,136 C88,137.606 87.333,138 84.617,138 C80.923,138 80.04,136.514 80.014,130.25 C80.003,127.662 80.407,127 82,127 C83.733,127 84,126.333 84,122 C84,118.424 84.392,117 85.375,117 C86.746,117 88,112.88 88,108.375 C88,106.931 88.588,106 89.5,106 C90.523,106 91.004,104.966 91.014,102.75 C91.034,98 92.041,95 93.617,95 C94.564,95 95,93.739 95,91 C95,88.111 95.417,87 96.5,87 C97.596,87 98.004,85.855 98.014,82.75 C98.032,77.053 98.94,74 100.617,74 C101.671,74 102,72.219 102,66.5 C102,60.304 102.277,59 103.594,59 C104.47,59 105.423,58.1 105.71,57 C105.998,55.9 106.803,55 107.5,55 C108.197,55 109.002,54.1 109.29,53 C109.577,51.9 110.53,51 111.406,51 C112.283,51 113,50.325 113,49.5 Z M134.478,127.857 C134.281,128.053 134.38,130.416 134.699,133.107 L135.279,138 L127,138 L127,143.5 C127,147.722 126.652,149 125.5,149 C124.379,149 123.997,150.201 123.986,153.75 C123.969,159.923 123.103,163 121.383,163 C120.469,163 120,164.187 120,166.5 C120,168.944 119.548,170 118.5,170 C117.667,170 117,170.889 117,172 C117,173.333 116.333,174 115,174 C113.381,174 113,174.667 113,177.5 L113,181 L129,181.156 C137.8,181.242 147.475,181.313 150.5,181.313 C153.525,181.313 158.475,181.242 161.5,181.156 L167,181 L167,176.05 C167,172.374 166.549,170.847 165.25,170.121 C163.804,169.313 163.44,167.396 163.156,159.072 C162.893,151.369 162.49,149 161.44,149 C160.38,149 160.003,146.557 159.784,138.25 L159.5,127.5 L147.168,127.5 C140.386,127.5 134.675,127.661 134.478,127.857 Z M77,197.5 C77,196.675 77.675,196 78.5,196 C79.325,196 80,196.675 80,197.5 C80,198.325 79.325,199 78.5,199 C77.675,199 77,198.325 77,197.5 Z"/>
</svg>

