<svg xmlns="http://www.w3.org/2000/svg" width="300" height="300" viewBox="0 0 300 300" version="1.1">
  <defs/>
  <path d="M153,56.594 C153,55.35 154.087,55 157.941,55 C163.438,55 164.354,55.739 163.429,59.428 C162.957,61.308 161.933,62.109 159.398,62.585 C157.471,62.947 156,63.824 156,64.611 C156,65.375 155.325,66 154.5,66 C153.675,66 153,66.717 153,67.594 C153,68.47 152.1,69.423 151,69.71 C149.9,69.998 149,70.856 149,71.617 C149,72.377 148.1,73 147,73 C145.667,73 145,73.667 145,75 C145,76.111 144.333,77 143.5,77 C142.675,77 142,77.675 142,78.5 C142,79.333 141.111,80 140,80 C138.667,80 138,80.667 138,82 C138,83.111 137.333,84 136.5,84 C135.675,84 135,84.717 135,85.594 C135,86.47 134.1,87.423 133,87.71 C131.9,87.998 131,88.856 131,89.617 C131,90.377 130.1,91 129,91 C127.667,91 127,91.667 127,93 C127,94.1 126.375,95 125.611,95 C124.816,95 123.942,96.495 123.566,98.5 C122.992,101.562 122.54,102 119.955,102 C117.667,102 117,102.451 117,104 C117,105.312 116.333,106 115.063,106 C113.609,106 113.049,106.81 112.813,109.25 C112.538,112.108 112.108,112.538 109.25,112.813 C106.275,113.1 106,113.417 106,116.563 C106,119.715 106.249,120 109,120 Q112,120 112,121.5 C112,122.356 112.899,123 114.094,123 C115.346,123 116.397,123.803 116.71,125 C117.138,126.634 118.081,127.002 121.867,127.014 C127.725,127.031 131,127.897 131,129.429 C131,130.254 133.792,130.684 140,130.817 C148.404,130.996 149,130.876 149,129.004 C149,127.889 149.666,127 150.5,127 C151.333,127 152,126.111 152,125 C152,123.381 151.333,123 148.5,123 C146.056,123 145,122.548 145,121.5 C145,120.452 143.944,120 141.5,120 C138.083,120 138,119.905 138,116 C138,113.111 137.583,112 136.5,112 C135.404,112 134.996,110.855 134.986,107.75 C134.979,105.412 134.694,102.461 134.354,101.191 C133.873,99.392 134.207,98.759 135.868,98.324 C137.514,97.894 138,96.996 138,94.383 C138,91.012 138.017,91 142.75,91.014 C150.252,91.035 152,91.802 152,95.071 C152,97.523 151.524,97.999 148.5,98.566 L145,99.223 L145,113 L151.75,112.986 C159.848,112.97 163,112.241 163,110.383 C163,109.623 163.9,109 165,109 C166.333,109 167,108.333 167,107 C167,105.889 167.667,105 168.5,105 C169.325,105 170,104.325 170,103.5 C170,102.667 170.889,102 172,102 C173.333,102 174,101.333 174,100 C174,98.889 174.667,98 175.5,98 C176.325,98 177,97.325 177,96.5 C177,95.667 177.889,95 179,95 C180.333,95 181,94.333 181,93 C181,91.381 181.667,91 184.5,91 C186.944,91 188,90.548 188,89.5 C188,88.462 189.043,88 191.383,88 C194.047,88 194.895,88.479 195.37,90.25 C196.376,94.007 196.09,95 194,95 C192.9,95 192,95.635 192,96.412 C192,97.28 190.459,98.085 188,98.5 C185.541,98.915 184,99.72 184,100.588 C184,101.365 183.325,102 182.5,102 C181.675,102 181,102.623 181,103.383 C181,104.144 180.1,105.002 179,105.29 C177.9,105.577 177,106.53 177,107.406 C177,108.283 176.325,109 175.5,109 C174.667,109 174,109.889 174,111 C174,112.1 173.377,113 172.617,113 C171.856,113 170.998,113.9 170.71,115 C170.423,116.1 169.506,117 168.673,117 C167.804,117 166.878,118.278 166.5,120 C166.138,121.65 165.202,123 164.421,123 C163.639,123 163,123.9 163,125 C163,126.1 162.377,127 161.617,127 C160.856,127 159.998,127.9 159.71,129 C159.423,130.1 158.47,131 157.594,131 C156.667,131 156,131.837 156,133 C156,134.111 155.333,135 154.5,135 C153.675,135 153,135.675 153,136.5 C153,137.633 154.222,138 158,138 C161.778,138 163,138.367 163,139.5 C163,140.555 164.066,141 166.594,141 C169.346,141 170.31,141.468 170.71,143 C170.998,144.1 171.856,145 172.617,145 C173.627,145 174,146.484 174,150.5 C174,155.333 173.758,156 172,156 C170.381,156 170,156.667 170,159.5 C170,161.944 169.548,163 168.5,163 C167.667,163 167,163.889 167,165 C167,166.333 166.333,167 165,167 C163.889,167 163,167.667 163,168.5 C163,169.325 162.325,170 161.5,170 C160.667,170 160,170.889 160,172 C160,173.333 159.333,174 158,174 C156.667,174 156,174.667 156,176 C156,177.1 156.655,178 157.455,178 C158.325,178 159.173,179.405 159.566,181.5 C159.942,183.505 160.816,185 161.611,185 C162.375,185 163,185.606 163,186.346 C163,187.434 168.998,187.799 194.25,188.248 C235.349,188.979 264,188.2 264,186.353 C264,185.609 264.717,185 265.594,185 C266.47,185 267.423,184.1 267.71,183 C267.998,181.9 268.856,181 269.617,181 C270.663,181 271,182.707 271,188 C271,193.738 270.713,195 269.406,195 C268.53,195 267.577,195.9 267.29,197 C266.776,198.964 265.926,199 220.383,199 L174,199 L174,206 C174,211.556 174.31,213 175.5,213 C176.652,213 177,214.278 177,218.5 C177,222.722 176.652,224 175.5,224 C174.667,224 174,224.889 174,226 C174,227.111 173.333,228 172.5,228 C171.667,228 171,228.889 171,230 C171,231.333 170.333,232 169,232 C167.9,232 167,232.623 167,233.383 C167,234.144 166.1,235.002 165,235.29 C163.9,235.577 163,236.53 163,237.406 C163,238.333 162.163,239 161,239 C159.9,239 159,239.623 159,240.383 C159,241.899 156.032,242.965 151.75,242.986 C149.978,242.995 149,243.534 149,244.5 C149,245.652 147.722,246 143.5,246 C138.667,246 138,245.758 138,244 C138,242.889 137.333,242 136.5,242 C135.675,242 135,241.383 135,240.629 C135,239.739 136.754,239.025 140,238.594 C143.424,238.14 145,237.469 145,236.466 C145,235.422 146.153,235 149,235 C151.789,235 153,234.57 153,233.579 C153,232.798 154.35,231.862 156,231.5 C157.65,231.138 159,230.202 159,229.421 C159,228.639 159.848,228 160.883,228 C161.926,228 163,227.107 163.29,226 C163.577,224.9 164.53,224 165.406,224 C166.713,224 167,222.738 167,217 C167,210.667 166.81,210 165,210 C163.242,210 163,209.333 163,204.5 C163,199.667 162.758,199 161,199 C159.889,199 159,198.333 159,197.5 C159,196.675 158.325,196 157.5,196 C156.675,196 156,196.675 156,197.5 C156,198.758 153.858,199.001 142.75,199.006 C123.805,199.015 113,199.974 113,201.648 C113,202.518 111.792,203 109.611,203 C106.53,203 106.163,203.318 105.566,206.5 C104.992,209.562 104.54,210 101.955,210 C99.995,210 99,209.495 99,208.5 C99,207.675 98.127,207 97.059,207 C94.302,207 93.7,205.487 94.454,200.456 L95.114,196.054 L100.057,195.398 C103.259,194.973 105,194.259 105,193.371 C105,192.259 108.495,192 123.5,192 C138.505,192 142,191.741 142,190.629 C142,189.739 143.754,189.025 147,188.594 C150.424,188.14 152,187.469 152,186.466 C152,185.66 151.325,185 150.5,185 C149.675,185 149,184.283 149,183.406 C149,182.53 148.1,181.577 147,181.29 C145.9,181.002 145,180.144 145,179.383 C145,178.623 144.325,178 143.5,178 C142.459,178 142,176.953 142,174.579 C142,171.592 142.38,171.075 145,170.5 C146.65,170.138 148,169.202 148,168.421 C148,167.43 149.211,167 152,167 C155.333,167 156,166.667 156,165 C156,163.9 156.655,163 157.455,163 C158.325,163 159.173,161.595 159.566,159.5 C159.942,157.495 160.816,156 161.611,156 C162.532,156 163,154.82 163,152.5 L163,149 L152.5,149 C143.833,149 142,149.262 142,150.5 C142,151.548 140.944,152 138.5,152 C136.056,152 135,151.548 135,150.5 C135,149.417 133.889,149 131,149 C127.58,149 127,149.31 127,151.139 C127,153.133 126.644,153.236 121.75,152.648 C118.862,152.301 115.487,152.013 114.25,152.009 C112.921,152.004 112,151.386 112,150.5 C112,149.675 111.325,149 110.5,149 C109.667,149 109,148.111 109,147 C109,145.9 109.623,145 110.383,145 C111.144,145 112.002,144.1 112.29,143 C112.764,141.185 113.654,141 121.906,141 L131,141 L131,135 L122.75,134.986 C113.196,134.971 110,134.318 110,132.383 C110,131.276 107.402,131 97,131 C84.667,131 84,130.897 84,129 C84,127.9 84.655,127 85.455,127 C86.325,127 87.173,125.595 87.566,123.5 C88.041,120.967 88.745,120 90.111,120 C91.15,120 92,119.361 92,118.579 C92,117.798 93.35,116.862 95,116.5 C96.65,116.138 98,115.202 98,114.421 C98,113.639 98.9,113 100,113 C101.333,113 102,112.333 102,111 C102,109.889 102.667,109 103.5,109 C104.325,109 105,108.283 105,107.406 C105,106.53 105.9,105.577 107,105.29 C108.1,105.002 109,104.144 109,103.383 C109,102.623 109.675,102 110.5,102 C111.325,102 112,101.283 112,100.406 C112,99.53 112.874,98.584 113.943,98.305 C115.073,98.009 116.152,96.584 116.522,94.898 C116.872,93.304 117.798,92 118.579,92 C119.361,92 120,91.1 120,90 C120,88.889 120.667,88 121.5,88 C122.333,88 123,87.111 123,86 C123,84.667 123.667,84 125,84 C126.333,84 127,83.333 127,82 C127,80.667 127.667,80 129,80 C130.111,80 131,79.333 131,78.5 C131,77.675 131.675,77 132.5,77 C133.333,77 134,76.111 134,75 C134,73.667 134.667,73 136,73 C137.333,73 138,72.333 138,71 C138,69.667 138.667,69 140,69 C141.111,69 142,68.333 142,67.5 C142,66.675 142.623,66 143.383,66 C144.144,66 145.002,65.1 145.29,64 C145.577,62.9 146.53,62 147.406,62 C148.283,62 149,61.377 149,60.617 C149,59.856 149.9,58.998 151,58.71 C152.1,58.423 153,57.47 153,56.594 Z M87.29,190 C87.723,188.345 88.647,188.002 92.656,188.014 C98.919,188.031 102,188.89 102,190.617 C102,191.522 100.831,192 98.617,192 C96.074,192 95.103,192.497 94.71,194 C94.274,195.67 93.346,196 89.094,196 C85.233,196 84,196.363 84,197.5 C84,198.333 83.111,199 82,199 C80.9,199 80,199.655 80,200.455 C80,201.325 78.595,202.173 76.5,202.566 C74.575,202.927 73,203.797 73,204.5 C73,205.203 71.425,206.073 69.5,206.434 C67.405,206.827 66,207.675 66,208.545 C66,209.541 64.896,210 62.5,210 C59.667,210 59,210.381 59,212 C59,213.333 58.333,214 57,214 C55.9,214 55,214.616 55,215.37 C55,216.254 53.386,216.922 50.451,217.253 C47.948,217.535 45.646,218.021 45.333,218.333 C45.021,218.646 44.535,220.948 44.253,223.451 L43.74,228 L30,228 L30,223 C30,219.092 30.348,218 31.594,218 C32.47,218 33.423,217.1 33.71,216 C34.086,214.565 35.074,214 37.21,214 C39.346,214 40.335,213.435 40.71,212 C41.103,210.497 42.074,210 44.617,210 C46.911,210 48,209.532 48,208.545 C48,207.675 49.405,206.827 51.5,206.434 C53.505,206.058 55,205.184 55,204.389 C55,203.477 56.163,203 58.383,203 C60.926,203 61.897,202.503 62.29,201 C62.69,199.468 63.654,199 66.406,199 C68.845,199 70,198.543 70,197.579 C70,196.798 71.35,195.862 73,195.5 C74.65,195.138 76,194.202 76,193.421 C76,192.369 77.399,192 81.383,192 C85.926,192 86.848,191.688 87.29,190 Z M66,157.466 C66,156.318 67.518,156 73,156 C78.556,156 80,156.31 80,157.5 C80,158.412 80.931,159 82.375,159 C86.614,159 91,160.222 91,161.403 C91,162.037 91.929,163.351 93.064,164.323 C96.252,167.052 95.27,170.426 91.174,170.819 C88.506,171.075 87.742,170.729 87.308,169.069 C86.805,167.145 86.041,167 76.383,167 C68.19,167 66,167.293 66,168.389 C66,169.184 64.505,170.058 62.5,170.434 C60.405,170.827 59,171.675 59,172.545 C59,173.345 58.1,174 57,174 C55.9,174 55,174.623 55,175.383 C55,177.744 47.195,178.789 40.125,177.375 C37.467,176.843 37,176.306 37,173.781 C37,171.654 37.567,170.665 39,170.29 C40.1,170.002 41,169.194 41,168.495 C41,167.795 42.575,166.927 44.5,166.566 C46.595,166.173 48,165.325 48,164.455 C48,163.424 49.166,163 52,163 C54.722,163 56,162.562 56,161.629 C56,160.739 57.754,160.025 61,159.594 C64.424,159.14 66,158.469 66,157.466 Z M46.75,116.689 C50.866,115.614 55,116.58 55,118.617 C55,119.627 56.484,120 60.5,120 C64.526,120 66,120.372 66,121.389 C66,122.184 67.495,123.058 69.5,123.434 C71.595,123.827 73,124.675 73,125.545 C73,126.345 73.9,127 75,127 C76.758,127 77,127.667 77,132.5 C77,137.333 76.758,138 75,138 C73.889,138 73,137.333 73,136.5 C73,135.675 72.283,135 71.406,135 C70.53,135 69.592,134.154 69.321,133.12 C68.959,131.735 67.628,131.106 64.264,130.726 C61.537,130.419 59.336,129.565 58.799,128.606 C58.291,127.697 56.619,127 54.95,127 C52.245,127 52,127.291 52,130.5 C52,133.833 51.833,134 48.5,134 C46.056,134 45,133.548 45,132.5 C45,131.667 44.111,131 43,131 C41.242,131 41,130.333 41,125.5 C41,120.667 41.242,120 43,120 C44.1,120 45,119.358 45,118.573 C45,117.789 45.788,116.941 46.75,116.689 Z"/>
</svg>

