<svg xmlns="http://www.w3.org/2000/svg" width="300" height="300" viewBox="0 0 300 300" version="1.1">
  <defs/>
  <path d="M183.25,135.685 C184.488,135.436 186.4,135.398 187.5,135.602 C188.6,135.806 190.063,135.979 190.75,135.986 C191.438,135.994 192,136.675 192,137.5 C192,138.541 193.046,139 195.418,139 C199.823,139 202,139.862 202,141.607 C202,142.652 200.405,143 195.611,143 L189.223,143 L188.566,146.5 C188.173,148.595 187.325,150 186.455,150 C185.64,150 185,150.931 185,152.117 C185,153.824 185.435,154.117 187.25,153.63 C188.488,153.299 190.738,153.021 192.25,153.014 C194.022,153.005 195,152.466 195,151.5 C195,150.348 196.278,150 200.5,150 C205.333,150 206,149.758 206,148 C206,146.242 206.667,146 211.5,146 C215.722,146 217,145.652 217,144.5 C217,143.278 218.667,143 226,143 L235,143 L235,146.5 C235,149.833 234.833,150 231.5,150 C229.197,150 228,150.47 228,151.375 C228,152.948 223.741,154 217.375,154 C214.322,154 213,154.417 213,155.38 C213,156.354 211.204,156.89 206.889,157.202 C202.539,157.516 200.509,158.127 199.84,159.322 C199.158,160.54 197.544,161 193.95,161 C190.393,161 189,161.391 189,162.389 C189,163.175 187.531,164.053 185.61,164.413 C182.057,165.08 181.041,166.813 181.014,172.25 C181.005,174.022 180.466,175 179.5,175 C178.445,175 178,176.066 178,178.594 C178,181.346 177.532,182.31 176,182.71 C174.344,183.143 174,184.074 174,188.117 C174,192.333 174.273,193 176,193 C177.1,193 178,192.345 178,191.545 C178,190.675 179.405,189.827 181.5,189.434 C183.505,189.058 185,188.184 185,187.389 C185,186.307 186.987,186 194,186 C200.996,186 203,185.692 203,184.617 C203,182.601 206.243,182.029 217.75,182.014 C227.338,182.001 228,182.129 228,184 C228,185.111 228.667,186 229.5,186 C230.325,186 231,186.675 231,187.5 C231,188.325 230.325,189 229.5,189 C228.417,189 228,190.111 228,193 C228,195.834 227.576,197 226.545,197 C225.675,197 224.827,198.405 224.434,200.5 C224.058,202.505 223.184,204 222.389,204 C221.625,204 221,204.9 221,206 C221,207.333 220.333,208 219,208 C217.462,208 217,208.667 217,210.883 C217,212.926 216.417,213.919 215,214.29 C213.803,214.603 213,215.654 213,216.906 C213,218.101 212.356,219 211.5,219 C210.675,219 210,219.675 210,220.5 C210,221.548 211.056,222 213.5,222 C215.944,222 217,222.452 217,223.5 C217,224.333 217.889,225 219,225 C220.333,225 221,225.667 221,227 C221,228.619 221.667,229 224.5,229 C226.896,229 228,229.459 228,230.455 C228,231.325 229.405,232.173 231.5,232.566 C233.425,232.927 235,233.797 235,234.5 C235,235.203 236.575,236.073 238.5,236.434 C240.595,236.827 242,237.675 242,238.545 C242,239.541 243.104,240 245.5,240 C247.82,240 249,240.468 249,241.389 C249,242.184 250.495,243.058 252.5,243.434 C254.595,243.827 256,244.675 256,245.545 C256,246.355 256.928,247 258.094,247 C259.346,247 260.397,247.803 260.71,249 C260.998,250.1 261.856,251 262.617,251 C263.377,251 264,251.675 264,252.5 C264,253.333 264.889,254 266,254 C268.09,254 268.376,254.993 267.37,258.75 C266.699,261.253 264,261.854 264,259.5 C264,258.452 262.944,258 260.5,258 C257.667,258 257,257.619 257,256 C257,254.667 256.333,254 255,254 C253.889,254 253,253.333 253,252.5 C253,251.452 251.944,251 249.5,251 C247.104,251 246,250.541 246,249.545 C246,248.675 244.595,247.827 242.5,247.434 C240.495,247.058 239,246.184 239,245.389 C239,244.594 237.985,244 236.625,244 C232.12,244 228,242.746 228,241.375 C228,240.619 227.1,240 226,240 C224.9,240 224,239.377 224,238.617 C224,237.101 221.032,236.035 216.75,236.014 C214.978,236.005 214,235.466 214,234.5 C214,233.445 212.934,233 210.406,233 C207.654,233 206.69,232.532 206.29,231 C205.914,229.565 204.926,229 202.79,229 C200.654,229 199.665,229.565 199.29,231 C199.002,232.1 198.144,233 197.383,233 C196.623,233 196,233.675 196,234.5 C196,235.333 195.111,236 194,236 C192.667,236 192,236.667 192,238 C192,239.333 191.333,240 190,240 C188.9,240 188,240.655 188,241.455 C188,242.325 186.595,243.173 184.5,243.566 C182.495,243.942 181,244.816 181,245.611 C181,246.664 179.306,247 174,247 L167,247 L167,240 L172.5,240 C176.585,240 178,239.635 178,238.579 C178,237.798 179.35,236.862 181,236.5 C182.65,236.138 184,235.202 184,234.421 C184,233.639 184.9,233 186,233 C187.333,233 188,232.333 188,231 C188,229.667 188.667,229 190,229 C191.619,229 192,228.333 192,225.5 C192,222.167 191.833,222 188.5,222 C186.152,222 185,221.535 185,220.588 C185,219.72 183.459,218.915 181,218.5 C178.541,218.085 177,217.28 177,216.412 C177,215.507 175.913,215 173.969,215 C172.197,215 170.698,214.377 170.362,213.5 C170.045,212.675 169.159,212 168.393,212 C167.388,212 167,213.393 167,217 C167,220.59 166.61,222 165.617,222 C163.759,222 163.03,225.152 163.014,233.25 C163.001,239.329 162.801,240 161,240 C159.889,240 159,240.667 159,241.5 C159,242.325 158.325,243 157.5,243 C156.675,243 156,242.325 156,241.5 C156,240.637 155.097,240 153.875,240 C152.028,240 151.832,239.591 152.375,236.875 C152.719,235.156 153,232.906 153,231.875 C153,230.844 153.675,230 154.5,230 C155.667,230 156,228.667 156,224 C156,219.527 156.356,218 157.399,218 C158.396,218 158.998,215.995 159.5,211 C159.968,206.339 160.631,204 161.485,204 C162.356,204 162.902,201.883 163.187,197.4 C163.497,192.538 164.055,190.549 165.304,189.85 C166.388,189.243 167,187.655 167,185.45 C167,183.05 167.456,182 168.5,182 C169.655,182 170,180.709 170,176.383 C170,171.047 169.888,170.797 167.75,171.37 C166.512,171.701 164.037,171.979 162.25,171.986 C160.034,171.996 159,172.477 159,173.5 C159,174.75 157,175 147,175 L135,175 L135,171.5 C135,168.309 135.255,168 137.883,168 C139.926,168 140.919,167.417 141.29,166 C141.751,164.237 142.654,164 148.906,164 C154.248,164 156,163.661 156,162.629 C156,161.664 158.073,161.054 163,160.569 C168.105,160.066 170,159.489 170,158.439 C170,157.648 170.9,157 172,157 C173.619,157 174,156.333 174,153.5 C174,151.197 174.47,150 175.375,150 C176.746,150 178,145.88 178,141.375 C178,139.931 178.588,139 179.5,139 C180.325,139 181,138.356 181,137.57 C181,136.783 182.012,135.935 183.25,135.685 Z M78.75,45.666 C79.713,45.402 82.075,45.257 84,45.343 C87.29,45.491 87.519,45.725 87.81,49.25 C88.013,51.703 88.619,53 89.56,53 C90.352,53 91,53.675 91,54.5 C91,55.548 89.944,56 87.5,56 C84.667,56 84,56.381 84,58 C84,59.1 83.345,60 82.545,60 C81.675,60 80.827,61.405 80.434,63.5 C80.058,65.505 79.184,67 78.389,67 C77.477,67 77,68.163 77,70.383 C77,72.926 76.503,73.897 75,74.29 C73.544,74.671 73,75.654 73,77.906 C73,79.904 72.5,81 71.588,81 C70.72,81 69.915,82.541 69.5,85 C69.085,87.459 68.28,89 67.412,89 C66.635,89 66,89.9 66,91 C66,92.111 65.333,93 64.5,93 C63.49,93 63,94.01 63,96.094 C63,98.346 62.456,99.329 61,99.71 C59.497,100.103 59,101.074 59,103.617 C59,106.817 59.19,107 62.5,107 C64.813,107 66,106.531 66,105.617 C66,103.897 69.077,103.031 75.25,103.014 C78.607,103.004 80,102.597 80,101.625 C80,100.254 84.12,99 88.625,99 C90.069,99 91,98.412 91,97.5 C91,96.417 92.111,96 95,96 C97.75,96 99,95.565 99,94.608 C99,93.105 103.484,91.563 105.046,92.528 C105.571,92.853 106,93.766 106,94.559 C106,95.352 106.675,96 107.5,96 C108.333,96 109,96.889 109,98 C109,99.1 108.361,100 107.579,100 C106.798,100 105.862,101.35 105.5,103 C105.138,104.65 104.202,106 103.421,106 C102.639,106 102,106.9 102,108 C102,109.163 101.333,110 100.406,110 C99.53,110 98.577,110.9 98.29,112 C98.002,113.1 97.144,114 96.383,114 C95.623,114 95,114.9 95,116 C95,117.1 94.377,118 93.617,118 C92.856,118 91.998,118.9 91.71,120 C91.423,121.1 90.506,122 89.673,122 C88.811,122 87.881,123.264 87.514,124.935 C87.034,127.12 86.137,128.031 84,128.5 C81.863,128.969 80.966,129.88 80.486,132.065 C80.131,133.679 79.202,135 78.421,135 C77.639,135 77,135.9 77,137 C77,138.333 76.333,139 75,139 C73.667,139 73,139.667 73,141 C73,142.111 72.333,143 71.5,143 C70.675,143 70,143.675 70,144.5 C70,145.333 69.111,146 68,146 C66.667,146 66,146.667 66,148 C66,149.333 65.333,150 64,150 C62.667,150 62,150.667 62,152 C62,153.111 61.333,154 60.5,154 C59.675,154 59,154.675 59,155.5 C59,156.333 58.111,157 57,157 C55.667,157 55,157.667 55,159 C55,160.758 55.667,161 60.5,161 C65.333,161 66,160.758 66,159 C66,157.381 66.667,157 69.5,157 C72.333,157 73,156.619 73,155 C73,153.667 73.667,153 75,153 C76.111,153 77,152.333 77,151.5 C77,150.367 78.222,150 82,150 C86.333,150 87,149.733 87,148 C87,146.667 87.667,146 89,146 C90.1,146 91,145.375 91,144.611 C91,143.816 92.495,142.942 94.5,142.566 C96.595,142.173 98,141.325 98,140.455 C98,139.655 98.9,139 100,139 C101.1,139 102,139.623 102,140.383 C102,141.144 102.9,142.002 104,142.29 C105.197,142.603 106,143.654 106,144.906 C106,146.101 106.644,147 107.5,147 C108.466,147 109.005,147.978 109.014,149.75 C109.035,154.032 110.101,157 111.617,157 C112.377,157 113,157.9 113,159 C113,160.1 113.655,161 114.455,161 C115.325,161 116.173,162.405 116.566,164.5 C117.136,167.541 117.602,168 120.111,168 C122.088,168 123,168.503 123,169.594 C123,170.47 123.9,171.423 125,171.71 C126.1,171.998 127,172.856 127,173.617 C127,174.377 127.9,175 129,175 C130.758,175 131,175.667 131,180.5 C131,184.646 130.642,186 129.545,186 C128.675,186 127.827,187.405 127.434,189.5 C127.073,191.425 126.205,193 125.505,193 C124.806,193 123.998,193.9 123.71,195 C123.024,197.622 120,197.622 120,195 C120,193.889 119.333,193 118.5,193 C117.452,193 117,194.056 117,196.5 C117,198.944 117.452,200 118.5,200 C119.583,200 120,201.111 120,204 C120,207.333 120.333,208 122,208 C123.111,208 124,208.667 124,209.5 C124,210.325 124.675,211 125.5,211 C126.325,211 127,210.325 127,209.5 C127,208.667 127.889,208 129,208 C130.619,208 131,208.667 131,211.5 C131,214.333 130.619,215 129,215 C127.889,215 127,215.667 127,216.5 C127,217.63 125.787,218 122.079,218 C117.425,218 117.123,217.838 116.5,215 C116.138,213.35 115.202,212 114.421,212 C113.639,212 113,211.152 113,210.117 C113,209.074 112.107,208 111,207.71 C109.33,207.274 109,206.346 109,202.094 C109,198.233 108.637,197 107.5,197 C106.435,197 105.997,195.913 105.991,193.25 C105.987,191.188 105.696,187.113 105.345,184.195 C104.763,179.342 104.892,178.841 106.854,178.328 C108.034,178.019 109,177.144 109,176.383 C109,175.623 109.9,175 111,175 C112.111,175 113,174.333 113,173.5 C113,172.667 112.111,172 111,172 C109.667,172 109,171.333 109,170 C109,168.889 108.333,168 107.5,168 C106.675,168 106,167.283 106,166.406 C106,165.53 105.1,164.577 104,164.29 C102.497,163.897 102,162.926 102,160.383 C102,157.667 101.606,157 100,157 C98.63,157 98,156.333 98,154.883 C98,153.176 97.565,152.883 95.75,153.37 C94.513,153.701 92.938,153.979 92.25,153.986 C91.563,153.994 91,154.675 91,155.5 C91,156.548 89.944,157 87.5,157 C85.187,157 84,157.469 84,158.383 C84,159.899 81.032,160.965 76.75,160.986 C74.978,160.995 74,161.534 74,162.5 C74,163.356 73.101,164 71.906,164 C70.654,164 69.603,164.803 69.29,166 C68.857,167.656 67.926,168 63.883,168 C59.667,168 59,168.273 59,170 C59,171.667 58.333,172 55,172 C52.111,172 51,172.417 51,173.5 C51,174.716 49.389,175 42.5,175 L34,175 L34,171.5 C34,169.056 34.452,168 35.5,168 C36.333,168 37,167.111 37,166 C37,164.667 37.667,164 39,164 C40.111,164 41,163.333 41,162.5 C41,161.675 41.675,161 42.5,161 C43.325,161 44,160.283 44,159.406 C44,158.53 44.9,157.577 46,157.29 C47.1,157.002 48,156.197 48,155.5 C48,154.803 48.9,153.998 50,153.71 C51.1,153.423 52,152.47 52,151.594 C52,150.717 52.675,150 53.5,150 C54.333,150 55,149.111 55,148 C55,146.667 55.667,146 57,146 C58.111,146 59,145.333 59,144.5 C59,143.675 59.675,143 60.5,143 C61.333,143 62,142.111 62,141 C62,139.667 62.667,139 64,139 C65.333,139 66,138.333 66,137 C66,135.9 66.639,135 67.421,135 C68.202,135 69.131,133.679 69.486,132.065 C69.963,129.891 70.865,128.969 72.963,128.508 C74.591,128.151 76.013,127.059 76.305,125.943 C76.584,124.874 77.494,124 78.327,124 C79.196,124 80.122,122.722 80.5,121 C80.862,119.35 81.798,118 82.579,118 C83.361,118 84,117.1 84,116 C84,114.667 84.667,114 86,114 C87.333,114 88,113.333 88,112 C88,110.889 88.667,110 89.5,110 C90.325,110 91,109.325 91,108.5 C91,107.452 89.944,107 87.5,107 C85.197,107 84,107.47 84,108.375 C84,109.746 79.88,111 75.375,111 C73.931,111 73,111.588 73,112.5 C73,113.722 71.333,114 64,114 C56.667,114 55,114.278 55,115.5 C55,116.629 53.791,117 50.117,117 C44.845,117 44.045,116.05 44.014,109.75 C44.003,107.662 44.482,107 46,107 C47.606,107 48,106.333 48,103.617 C48,101.074 48.497,100.103 50,99.71 C51.1,99.423 52,98.47 52,97.594 C52,96.717 52.675,96 53.5,96 C54.548,96 55,94.944 55,92.5 C55,89.667 55.381,89 57,89 C58.619,89 59,88.333 59,85.5 C59,83.18 59.468,82 60.389,82 C61.184,82 62.058,80.505 62.434,78.5 C62.827,76.405 63.675,75 64.545,75 C65.541,75 66,73.896 66,71.5 C66,69.152 66.465,68 67.412,68 C68.28,68 69.085,66.459 69.5,64 C69.915,61.541 70.72,60 71.588,60 C72.526,60 73,58.864 73,56.617 C73,54.074 73.497,53.103 75,52.71 C76.443,52.333 77,51.346 77,49.167 C77,47.14 77.576,45.989 78.75,45.666 Z M156,45.383 L156,42 L170,42 L170,47 C170,51.923 169.952,52 166.906,52 C164.654,52 163.671,52.544 163.29,54 C163.002,55.1 162.194,56 161.495,56 C160.795,56 159.927,57.575 159.566,59.5 C159.173,61.595 158.325,63 157.455,63 C156.655,63 156,63.9 156,65 C156,66.1 155.377,67 154.617,67 C153.856,67 152.993,68.237 152.7,69.75 C151.954,73.59 152.984,78 154.625,78 C155.381,78 156,78.9 156,80 C156,81.1 156.639,82 157.421,82 C158.202,82 159.138,83.35 159.5,85 C159.862,86.65 160.798,88 161.579,88 C162.361,88 163,88.9 163,90 C163,91.333 163.667,92 165,92 C166.333,92 167,92.667 167,94 C167,95.111 167.667,96 168.5,96 C169.782,96 170,93.156 170,76.406 C170,57.654 170.086,56.79 172,56.29 C173.1,56.002 174,55.144 174,54.383 C174,53.478 175.169,53 177.383,53 C179.926,53 180.897,53.497 181.29,55 C181.577,56.1 182.53,57 183.406,57 C184.283,57 185,57.675 185,58.5 C185,59.333 184.111,60 183,60 C181.242,60 181,60.667 181,65.5 C181,69.722 180.652,71 179.5,71 C178.278,71 178,72.667 178,80 C178,87.333 178.278,89 179.5,89 C180.325,89 181,89.675 181,90.5 C181,91.333 181.889,92 183,92 C184.333,92 185,91.333 185,90 C185,88.889 185.667,88 186.5,88 C187.757,88 188.002,85.855 188.014,74.75 C188.029,60.297 188.512,57 190.617,57 C191.377,57 192,56.1 192,55 C192,53.333 192.667,53 196,53 C198.889,53 200,53.417 200,54.5 C200,55.325 200.675,56 201.5,56 C202.555,56 203,57.066 203,59.594 C203,62.346 202.532,63.31 201,63.71 C199.244,64.169 199,65.074 199,71.117 C199,76.569 198.688,78 197.5,78 C196.379,78 195.997,79.201 195.986,82.75 C195.969,88.923 195.103,92 193.383,92 C192.436,92 192,93.261 192,96 C192,99.905 191.917,100 188.5,100 C186.18,100 185,100.468 185,101.389 C185,102.184 183.505,103.058 181.5,103.434 C179.575,103.795 178,104.52 178,105.045 C178,105.57 176.2,106 174,106 C171.8,106 170,105.57 170,105.045 C170,104.52 168.425,103.795 166.5,103.434 C164.575,103.073 163,102.203 163,101.5 C163,100.797 161.425,99.927 159.5,99.566 C157.405,99.173 156,98.325 156,97.455 C156,96.655 155.325,96 154.5,96 C153.675,96 153,95.283 153,94.406 C153,93.53 152.1,92.577 151,92.29 C149.497,91.897 149,90.926 149,88.383 C149,85.183 148.81,85 145.5,85 C142.167,85 142,85.167 142,88.5 C142,91.333 141.619,92 140,92 C138.333,92 138,92.667 138,96 C138,98.889 137.583,100 136.5,100 C135.675,100 135,100.648 135,101.441 C135,103.53 133.62,104.074 130.103,103.371 C127.132,102.776 127,102.539 127,97.781 C127,93.654 127.339,92.724 129,92.29 C130.407,91.922 131,90.926 131,88.929 C131,86.477 131.476,86.001 134.5,85.434 C137.682,84.837 138,84.47 138,81.389 C138,79.164 138.477,78 139.389,78 C140.184,78 141.058,76.505 141.434,74.5 C141.827,72.405 142.675,71 143.545,71 C144.532,71 145,69.911 145,67.617 C145,65.074 145.497,64.103 147,63.71 C148.532,63.31 149,62.346 149,59.594 C149,57.066 149.445,56 150.5,56 C151.51,56 152,54.99 152,52.906 C152,50.654 152.544,49.671 154,49.29 C155.503,48.897 156,47.926 156,45.383 Z M201.25,110.706 C204.814,110.019 219.272,109.966 221.75,110.63 C223.694,111.151 224,111.898 224,116.117 C224,119.791 223.629,121 222.5,121 C221.667,121 221,121.889 221,123 C221,124.333 220.333,125 219,125 C217.381,125 217,125.667 217,128.5 C217,130.82 216.532,132 215.611,132 C213.846,132 212.7,126.116 213.566,121.5 L214.223,118 L208.611,118 C204.29,118 203,118.345 203,119.5 C203,120.523 201.966,121.004 199.75,121.014 C195,121.034 192,122.041 192,123.617 C192,124.692 189.996,125 183,125 C175.667,125 174,125.278 174,126.5 C174,127.341 173.011,128.071 171.75,128.162 C169.6,128.317 168.291,128.389 159.75,128.813 C157.166,128.942 156,129.466 156,130.5 C156,131.722 154.333,132 147,132 L138,132 L138,128 C138,125.248 138.434,124 139.393,124 C140.159,124 141.045,123.325 141.362,122.5 C141.823,121.298 144.03,121 152.469,121 C161.163,121 163,120.738 163,119.5 C163,118.342 164.309,117.998 168.75,117.991 C178.218,117.977 185,116.879 185,115.361 C185,114.343 186.763,114 192,114 C197.404,114 199,113.674 199,112.57 C199,111.783 200.012,110.944 201.25,110.706 Z M51.29,191 C51.726,189.33 52.654,189 56.906,189 L62,189 L62,196.5 C62,203.333 62.178,204 64,204 C65.619,204 66,204.667 66,207.5 C66,209.944 66.452,211 67.5,211 C68.325,211 69,211.717 69,212.594 C69,213.47 69.9,214.423 71,214.71 C72.107,215 73,216.074 73,217.117 C73,218.152 73.675,219 74.5,219 C75.325,219 76,219.675 76,220.5 C76,221.583 77.111,222 80,222 C82.889,222 84,222.417 84,223.5 C84,224.325 83.283,225 82.406,225 C81.53,225 80.577,225.9 80.29,227 C79.857,228.656 78.926,229 74.883,229 C71.383,229 70,228.607 70,227.611 C70,226.819 68.514,225.944 66.538,225.573 C63.564,225.015 62.985,224.436 62.427,221.462 C62.07,219.558 61.203,218 60.5,218 C59.797,218 58.927,216.425 58.566,214.5 C58.173,212.405 57.325,211 56.455,211 C55.655,211 55,210.325 55,209.5 C55,208.675 54.365,208 53.588,208 C52.72,208 51.915,206.459 51.5,204 C51.085,201.541 50.28,200 49.412,200 C48.465,200 48,198.848 48,196.5 C48,194.187 48.469,193 49.383,193 C50.144,193 51.002,192.1 51.29,191 Z M213,191.5 C213,192.716 211.389,193 204.5,193 C196.667,193 196,193.157 196,195 C196,196.667 195.333,197 192,197 C189.111,197 188,197.417 188,198.5 C188,199.325 187.325,200 186.5,200 C185.667,200 185,200.889 185,202 C185,203.111 184.333,204 183.5,204 C180.745,204 181.958,206.832 185,207.5 C186.65,207.862 188,208.748 188,209.468 C188,210.188 189.532,211.065 191.403,211.416 C193.275,211.767 195.061,212.717 195.372,213.527 C195.955,215.046 199.788,215.431 203.75,214.37 C205.424,213.921 206,213.028 206,210.883 C206,208.667 206.462,208 208,208 C209.333,208 210,207.333 210,206 C210,204.9 210.625,204 211.389,204 C212.184,204 213.058,202.505 213.434,200.5 C213.827,198.405 214.675,197 215.545,197 C216.541,197 217,195.896 217,193.5 C217,190.667 216.619,190 215,190 C213.889,190 213,190.667 213,191.5 Z M84,188 C84,186.395 84.667,186 87.373,186 C90.699,186 90.752,186.071 91.236,191.107 C91.506,193.915 92.3,196.567 93,197 C93.7,197.433 94.494,200.085 94.764,202.893 L95.254,208 L100.019,208 C104.267,208 104.851,208.271 105.411,210.5 C106.668,215.511 105.258,217.693 100.325,218.369 C94.886,219.114 91,218.29 91,216.392 C91,215.626 90.375,215 89.611,215 C88.816,215 87.942,213.505 87.566,211.5 C87.173,209.405 86.325,208 85.455,208 C84.424,208 84,206.834 84,204 C84,201.25 83.565,200 82.608,200 C81.843,200 80.934,198.875 80.589,197.5 C79.753,194.169 80.876,190 82.608,190 C83.374,190 84,189.1 84,188 Z M170.986,198.25 C170.979,198.938 170.701,200.512 170.37,201.75 C169.797,203.888 170.047,204 175.383,204 C179.499,204 181,203.63 181,202.617 C181,201.856 180.1,200.998 179,200.71 C177.9,200.423 177,199.47 177,198.594 C177,197.49 176.078,197 174,197 C172.274,197 170.994,197.531 170.986,198.25 Z M116.35,184.24 C116.498,188.32 116.923,189.554 118.27,189.813 C119.461,190.043 120,189.501 120,188.073 C120,186.897 120.649,186 121.5,186 C122.325,186 123,185.325 123,184.5 C123,183.675 122.325,183 121.5,183 C120.667,183 120,182.111 120,181 C120,179.695 119.333,179 118.08,179 C116.408,179 116.185,179.674 116.35,184.24 Z"/>
</svg>

