<svg xmlns="http://www.w3.org/2000/svg" width="300" height="300" viewBox="0 0 300 300" version="1.1">
  <defs/>
  <path d="M51.5,95 C52.134,91.247 52.386,91 55.588,91 L59,91 L59,102 C59,110.699 58.711,113 57.617,113 C56.041,113 55.034,116 55.014,120.75 C55.004,122.966 54.523,124 53.5,124 C52.452,124 52,125.056 52,127.5 C52,130.333 51.619,131 50,131 C48.381,131 48,131.667 48,134.5 C48,137.333 48.381,138 50,138 C51.1,138 52,137.377 52,136.617 C52,135.041 55,134.034 59.75,134.014 C61.966,134.004 63,133.523 63,132.5 C63,131.452 64.056,131 66.5,131 C69.333,131 70,130.619 70,129 C70,127.381 70.667,127 73.5,127 C75.82,127 77,126.532 77,125.611 C77,123.846 82.884,122.7 87.5,123.566 C90.923,124.208 92.549,127 89.5,127 C88.445,127 88,128.066 88,130.594 C88,133.346 87.532,134.31 86,134.71 C84.9,134.998 84,135.856 84,136.617 C84,137.377 83.325,138 82.5,138 C81.675,138 81,138.717 81,139.594 C81,140.47 80.1,141.423 79,141.71 C77.9,141.998 77,142.756 77,143.394 C77,144.033 76.1,145.326 75,146.268 C73.9,147.21 73,148.864 73,149.945 C73,151.398 72.089,152.08 69.5,152.566 C66.459,153.136 66,153.602 66,156.111 C66,158.088 65.497,159 64.406,159 C63.53,159 62.577,159.9 62.29,161 C62.002,162.1 61.144,163 60.383,163 C59.623,163 59,163.9 59,165 C59,166.333 58.333,167 57,167 C55.667,167 55,167.667 55,169 C55,170.111 54.333,171 53.5,171 C52.675,171 52,171.675 52,172.5 C52,173.333 51.111,174 50,174 C48.667,174 48,174.667 48,176 C48,177.111 47.333,178 46.5,178 C45.675,178 45,178.675 45,179.5 C45,180.633 46.222,181 50,181 C53.639,181 55,180.616 55,179.588 C55,178.72 56.541,177.915 59,177.5 C61.459,177.085 63,176.28 63,175.412 C63,174.384 64.361,174 68,174 C72.333,174 73,173.733 73,172 C73,170.242 73.667,170 78.5,170 L84,170 L84,173.5 C84,176.036 84.439,177 85.594,177 C86.47,177 87.423,177.9 87.71,179 C87.998,180.1 88.856,181 89.617,181 C90.377,181 91,181.9 91,183 C91,184.333 91.667,185 93,185 C94.1,185 95,185.625 95,186.389 C95,187.184 96.495,188.058 98.5,188.434 C100.595,188.827 102,189.675 102,190.545 C102,191.345 102.9,192 104,192 C105.333,192 106,192.667 106,194 C106,195.111 106.667,196 107.5,196 C108.633,196 109,197.222 109,201 C109,204.778 108.633,206 107.5,206 C106.348,206 106,207.278 106,211.5 C106,215.722 106.348,217 107.5,217 C108.692,217 109,218.455 109,224.094 C109,230.346 109.237,231.249 111,231.71 C112.1,231.998 113,232.856 113,233.617 C113,234.377 113.623,235 114.383,235 C116.032,235 117.05,239.403 116.292,243.25 C115.858,245.454 115.203,246 112.992,246 C111.074,246 110.074,245.39 109.71,244 C109.423,242.9 108.491,242 107.639,242 C106.661,242 105.849,240.71 105.434,238.5 C105.058,236.495 104.184,235 103.389,235 C102.468,235 102,233.82 102,231.5 C102,229.187 101.531,228 100.617,228 C99.101,228 98.035,225.032 98.014,220.75 C98.005,218.978 97.466,218 96.5,218 C95.417,218 95,216.889 95,214 C95,210.667 94.667,210 93,210 C91.262,210 91,209.333 91,204.906 C91,200.654 91.33,199.726 93,199.29 C96.192,198.455 95.316,196.282 91.5,195.566 C89.405,195.173 88,194.325 88,193.455 C88,192.655 87.1,192 86,192 C84.667,192 84,191.333 84,190 C84,188.381 83.333,188 80.5,188 C77.167,188 77,187.833 77,184.5 C77,181.215 76.8,181.001 73.75,181.014 C69,181.034 66,182.041 66,183.617 C66,184.377 65.1,185 64,185 C62.889,185 62,185.667 62,186.5 C62,187.412 61.069,188 59.625,188 C55.12,188 51,189.254 51,190.625 C51,191.608 49.576,192 46,192 C41.667,192 41,192.267 41,194 C41,195.667 40.333,196 37,196 C34.111,196 33,196.417 33,197.5 C33,198.652 31.722,199 27.5,199 C22.377,199 22,198.837 22,196.625 C22,191.383 23.226,188 25.125,188 C26.156,188 27,187.325 27,186.5 C27,185.675 27.675,185 28.5,185 C29.333,185 30,184.111 30,183 C30,181.667 30.667,181 32,181 C33.111,181 34,180.333 34,179.5 C34,178.675 34.675,178 35.5,178 C36.333,178 37,177.111 37,176 C37,174.667 37.667,174 39,174 C40.111,174 41,173.333 41,172.5 C41,171.675 41.675,171 42.5,171 C43.333,171 44,170.111 44,169 C44,167.667 44.667,167 46,167 C47.333,167 48,166.333 48,165 C48,163.9 48.623,163 49.383,163 C50.144,163 51.002,162.1 51.29,161 C51.577,159.9 52.53,159 53.406,159 C54.283,159 55,158.325 55,157.5 C55,156.675 55.655,156 56.455,156 C57.318,156 58.169,154.614 58.549,152.592 C58.956,150.421 59.88,149.003 61.094,148.686 C62.142,148.412 63,147.47 63,146.594 C63,145.717 63.675,145 64.5,145 C65.325,145 66,144.325 66,143.5 C66,142.417 64.889,142 62,142 C59.111,142 58,142.417 58,143.5 C58,144.633 56.778,145 53,145 C48.667,145 48,145.267 48,147 C48,148.667 47.333,149 44,149 C41.211,149 40,149.43 40,150.421 C40,152.236 34.849,153.382 30.422,152.551 C27.035,151.916 25.457,149 28.5,149 C29.538,149 30,147.957 30,145.617 C30,143.074 30.497,142.103 32,141.71 C33.1,141.423 34,140.47 34,139.594 C34,138.717 34.625,138 35.389,138 C36.184,138 37.058,136.505 37.434,134.5 C37.827,132.405 38.675,131 39.545,131 C40.345,131 41,130.1 41,129 C41,127.889 41.667,127 42.5,127 C43.466,127 44.005,126.022 44.014,124.25 C44.035,119.968 45.101,117 46.617,117 C47.692,117 48,114.996 48,108 C48,100.916 48.301,99 49.412,99 C50.28,99 51.085,97.459 51.5,95 Z M188.434,130.5 C189.034,127.302 189.389,127 192.545,127 C195.333,127 196,127.386 196,129 C196,130.111 196.667,131 197.5,131 C198.333,131 199,131.889 199,133 C199,134.111 198.333,135 197.5,135 C196.31,135 196,136.444 196,142 L196,149 L200.95,149 C204.626,149 206.152,148.549 206.878,147.25 C207.731,145.723 209.841,145.459 223.428,145.18 C238.613,144.867 239,144.911 239,146.93 C239,148.103 239.65,149 240.5,149 C241.548,149 242,150.056 242,152.5 C242,154.944 241.548,156 240.5,156 C239.667,156 239,156.889 239,158 C239,161.825 232.373,159.973 231.478,155.898 C230.856,153.068 230.691,153 224.421,153 C219.38,153 218,153.322 218,154.5 C218,155.7 216.5,156 210.5,156 L203,156 L203,167 C203,175.575 203.298,178 204.352,178 C205.396,178 205.861,181.39 206.397,192.895 C206.779,201.088 206.79,208.99 206.422,210.457 C205.875,212.634 206.142,213.224 207.876,213.678 C209.044,213.983 210,214.856 210,215.617 C210,216.663 211.707,217 217,217 C222.556,217 224,217.31 224,218.5 C224,220.205 225.167,220.38 237,220.452 C265.1,220.625 271,220.98 271,222.5 C271,223.548 272.056,224 274.5,224 C277.333,224 278,224.381 278,226 C278,227.333 278.667,228 280,228 C281.619,228 282,228.667 282,231.5 L282,235 L276.5,235 C272.278,235 271,234.652 271,233.5 C271,232.403 269.858,231.998 266.75,231.994 C256.141,231.979 246,230.688 246,229.352 C246,228.316 243.895,228 237,228 C229.978,228 228,228.306 228,229.392 C228,230.157 226.919,231.055 225.598,231.386 C222.216,232.235 217,231.015 217,229.375 C217,228.375 215.5,228 211.5,228 C207.507,228 206,227.624 206,226.629 C206,225.739 204.246,225.025 201,224.594 C197.788,224.168 196,223.447 196,222.577 C196,221.828 194.478,220.937 192.597,220.584 C190.725,220.233 188.939,219.283 188.628,218.473 C188.278,217.56 186.719,217 184.531,217 C182.185,217 181,216.534 181,215.611 C181,214.816 179.505,213.942 177.5,213.566 C175.405,213.173 174,212.325 174,211.455 C174,210.358 172.646,210 168.5,210 C164.278,210 163,210.348 163,211.5 C163,212.325 162.345,213 161.545,213 C159.355,213 158.676,207.245 159.479,195.468 C160.023,187.488 160.526,185 161.596,185 C162.631,185 163,183.555 163,179.5 C163,174.667 163.242,174 165,174 C166.619,174 167,173.333 167,170.5 C167,168.056 167.452,167 168.5,167 C169.333,167 170,166.111 170,165 C170,163.667 170.667,163 172,163 C173.1,163 174,162.381 174,161.625 C174,159.984 178.41,158.954 182.25,159.7 C184.424,160.121 184.997,160.785 184.986,162.867 C184.958,168.28 183.946,170 180.79,170 C178.654,170 177.665,170.565 177.29,172 C177.002,173.1 176.144,174 175.383,174 C174.436,174 174,175.261 174,178 C174,180.739 173.564,182 172.617,182 C171.101,182 170.035,184.968 170.014,189.25 C170.005,191.022 169.466,192 168.5,192 C165.413,192 167.05,194.919 170.5,195.566 C172.505,195.942 174,196.816 174,197.611 C174,198.375 174.9,199 176,199 C177.333,199 178,199.667 178,201 C178,202.333 178.667,203 180,203 C181.111,203 182,203.667 182,204.5 C182,205.51 183.01,206 185.094,206 C187.346,206 188.329,206.544 188.71,208 C189.143,209.656 190.074,210 194.117,210 L199,210 L199,201 C199,194.013 198.691,192 197.619,192 C196.578,192 196.063,189.417 195.523,181.5 C194.977,173.493 194.474,171 193.404,171 C192.369,171 192,169.555 192,165.5 C192,160.667 191.758,160 190,160 C188.121,160 188,159.333 188,149 C188,139.889 187.742,138 186.5,138 C185.667,138 185,137.111 185,136 C185,134.9 185.625,134 186.389,134 C187.184,134 188.058,132.505 188.434,130.5 Z M174,60.5 C174,59.278 175.667,59 183,59 L192,59 L192,66 L185,66 C179.262,66 178,66.287 178,67.594 C178,68.47 177.1,69.423 176,69.71 C174.893,70 174,71.074 174,72.117 C174,73.152 173.345,74 172.545,74 C171.675,74 170.827,75.405 170.434,77.5 C170.058,79.505 169.184,81 168.389,81 C167.389,81 167,82.4 167,86 C167,90.333 166.733,91 165,91 C163.397,91 163,91.667 163,94.361 C163,97.668 163.083,97.731 168.25,98.352 C174.864,99.146 182.822,99.154 185.75,98.37 C187.356,97.939 188.004,97.013 188.014,95.133 C188.035,90.96 189.115,88 190.617,88 C191.564,88 192,86.739 192,84 C192,81.259 192.436,80 193.385,80 C194.313,80 194.996,78.188 195.457,74.5 C195.908,70.892 196.608,69 197.493,69 C198.234,69 199.138,67.65 199.5,66 C200.177,62.916 202,61.822 202,64.5 C202,65.433 202.944,66 204.5,66 C206.333,66 207,66.533 207,68 C207,69.111 207.667,70 208.5,70 C209.325,70 210,70.675 210,71.5 C210,72.325 209.345,73 208.545,73 C207.675,73 206.827,74.405 206.434,76.5 C206.073,78.425 205.203,80 204.5,80 C203.797,80 202.927,81.575 202.566,83.5 C202.173,85.595 201.325,87 200.455,87 C199.424,87 199,88.166 199,91 L199,95 L204.5,95 C208.722,95 210,95.348 210,96.5 C210,97.523 211.034,98.004 213.25,98.014 C218,98.034 221,99.041 221,100.617 C221,101.627 222.484,102 226.5,102 L232,102 L232,105.5 C232,107.944 232.452,109 233.5,109 C234.7,109 235,110.5 235,116.5 L235,124 L228,124 L228,118.5 C228,113.667 227.758,113 226,113 C224.667,113 224,112.333 224,111 C224,109.121 223.333,109 213,109 C203.889,109 202,108.742 202,107.5 C202,106.675 201.662,105.994 201.25,105.986 C200.838,105.979 199.488,105.701 198.25,105.37 C196.435,104.883 196,105.176 196,106.883 C196,108.333 195.37,109 194,109 C192.667,109 192,109.667 192,111 C192,112.1 191.34,113 190.534,113 C189.534,113 188.862,114.561 188.417,117.914 C187.903,121.785 187.313,122.95 185.633,123.4 C182,124.375 181,124.073 181,122 C181,120.9 180.349,120 179.552,120 C178.511,120 178.02,118.527 177.802,114.75 L177.5,109.5 L170.25,109.206 C163.519,108.933 163,109.059 163,110.956 C163,112.817 162.383,113 156.111,113 L149.223,113 L148.566,116.5 C148.173,118.595 147.325,120 146.455,120 C145.655,120 145,120.9 145,122 C145,123.111 144.333,124 143.5,124 C142.452,124 142,125.056 142,127.5 C142,130.333 141.619,131 140,131 C138.667,131 138,131.667 138,133 C138,134.1 137.345,135 136.545,135 C135.675,135 134.827,136.405 134.434,138.5 C134.058,140.505 133.184,142 132.389,142 C131.625,142 131,142.689 131,143.531 C131,144.374 130.352,145.311 129.561,145.615 C128.77,145.919 127.834,147.479 127.482,149.084 C127.129,150.688 126.202,152 125.421,152 C124.487,152 123.995,153.115 123.986,155.25 C123.96,161.514 123.077,163 119.383,163 C116.667,163 116,162.606 116,161 C116,159.889 115.333,159 114.5,159 C113.675,159 113,158.325 113,157.5 C113,156.675 113.625,156 114.389,156 C115.184,156 116.058,154.505 116.434,152.5 C116.827,150.405 117.675,149 118.545,149 C119.532,149 120,147.911 120,145.617 C120,143.074 120.497,142.103 122,141.71 C123.1,141.423 124,140.47 124,139.594 C124,138.717 124.675,138 125.5,138 C126.548,138 127,136.944 127,134.5 C127,131.667 127.381,131 129,131 C130.619,131 131,130.333 131,127.5 C131,125.056 131.452,124 132.5,124 C133.333,124 134,123.111 134,122 C134,120.667 134.667,120 136,120 C137.619,120 138,119.333 138,116.5 C138,114.056 138.452,113 139.5,113 C140.325,113 141,112.283 141,111.406 C141,110.53 141.9,109.577 143,109.29 C144.356,108.935 145.004,107.919 145.014,106.133 C145.035,101.96 146.115,99 147.617,99 C148.377,99 149,98.1 149,97 C149,95.667 149.667,95 151,95 C152.111,95 153,94.333 153,93.5 C153,92.675 153.675,92 154.5,92 C155.433,92 156,91.056 156,89.5 C156,87.979 156.57,87 157.455,87 C158.325,87 159.173,85.595 159.566,83.5 C159.942,81.495 160.816,80 161.611,80 C162.532,80 163,78.82 163,76.5 C163,74.104 163.459,73 164.455,73 C165.325,73 166.173,71.595 166.566,69.5 C166.927,67.575 167.795,66 168.495,66 C169.194,66 170.002,65.1 170.29,64 C170.577,62.9 171.53,62 172.406,62 C173.283,62 174,61.325 174,60.5 Z M138,168.5 L138,138 L149,138 L149,141.5 C149,144.333 148.619,145 147,145 C145.107,145 145,145.667 145,157.45 C145,168.268 145.229,170.029 146.75,170.879 C148.321,171.757 148.531,174.16 148.803,194.428 L149.106,217 L141,217 L141,208 C141,200.667 140.722,199 139.5,199 C138.199,199 138,194.944 138,168.5 Z M120,91.5 C120,88.167 120.167,88 123.5,88 L127,88 L127,95 C127,100.556 126.69,102 125.5,102 C124.588,102 124,102.931 124,104.375 C124,108.88 122.746,113 121.375,113 C120.47,113 120,114.197 120,116.5 C120,118.848 119.535,120 118.588,120 C116.802,120 115.845,125.515 116.218,133.666 C116.373,137.058 116.275,140.032 116,140.275 C115.725,140.519 114.225,141.025 112.667,141.399 C110.342,141.958 109.738,141.714 109.3,140.04 C109.007,138.918 108.197,138 107.5,138 C105.952,138 104.971,133.487 105.708,129.75 C106.006,128.238 106.869,127 107.625,127 C108.597,127 109.004,125.607 109.014,122.25 C109.031,116.077 109.897,113 111.617,113 C112.564,113 113,111.739 113,109 C113,106.111 113.417,105 114.5,105 C115.466,105 116.005,104.022 116.014,102.25 C116.035,97.968 117.101,95 118.617,95 C119.531,95 120,93.813 120,91.5 Z M22.614,212.402 C23.157,210.237 23.75,210 28.608,210 L34,210 L34,213.5 C34,215.944 34.452,217 35.5,217 C36.333,217 37,217.889 37,219 C37,220.333 37.667,221 39,221 C40.1,221 41,221.623 41,222.383 C41,223.144 41.9,224.002 43,224.29 C44.1,224.577 45,225.53 45,226.406 C45,227.51 45.922,228 48,228 Q51,228 51,229.5 C51,230.605 52.153,231 55.375,231 C61.741,231 66,232.052 66,233.625 C66,234.381 65.377,235 64.617,235 C63.856,235 62.998,235.9 62.71,237 C62.236,238.815 61.346,239 53.094,239 C45.903,239 44,238.703 44,237.579 C44,236.798 42.65,235.862 41,235.5 C39.35,235.138 38,234.202 38,233.421 C38,232.639 37.1,232 36,232 C34.667,232 34,231.333 34,230 C34,228.667 33.333,228 32,228 C30.667,228 30,227.333 30,226 C30,224.889 29.333,224 28.5,224 C27.675,224 27,223.325 27,222.5 C27,221.675 26.156,221 25.125,221 C22.983,221 21.624,216.347 22.614,212.402 Z M66,205 C66,203.381 66.667,203 69.5,203 L73,203 L73,209.95 C73,215.292 73.372,217.109 74.606,217.799 C75.572,218.34 76.42,220.551 76.736,223.349 L77.26,228 L82.63,228 C88.537,228 88.847,228.515 87.375,235.875 C86.752,238.989 86.726,239 80.281,239 C74.654,239 73.745,238.74 73.29,237 C73.002,235.9 72.194,235 71.495,235 C70.795,235 69.927,233.425 69.566,231.5 C69.173,229.405 68.325,228 67.455,228 C66.358,228 66,226.646 66,222.5 C66,217.667 65.758,217 64,217 C62.482,217 62.003,216.338 62.014,214.25 C62.035,209.968 63.101,207 64.617,207 C65.377,207 66,206.1 66,205 Z"/>
</svg>

