<svg xmlns="http://www.w3.org/2000/svg" width="300" height="300" viewBox="0 0 300 300" version="1.1">
  <defs/>
  <path d="M200,57.962 C200,56.039 200.516,55.941 209.25,56.212 L218.5,56.5 L218.829,61.5 C219.389,69.997 218.027,81 216.415,81 C215.431,81 215,82.218 215,85 C215,87.834 214.576,89 213.545,89 C212.675,89 211.827,90.405 211.434,92.5 C211.058,94.505 210.184,96 209.389,96 C208.468,96 208,97.18 208,99.5 C208,101.891 208.459,103 209.45,103 C210.248,103 211.305,103.723 211.799,104.606 C212.34,105.572 214.551,106.42 217.349,106.736 C220.143,107.051 222,107.763 222,108.519 C222,109.211 223.558,110.07 225.462,110.427 C228.436,110.985 229.015,111.564 229.573,114.538 C229.944,116.514 230.819,118 231.611,118 C232.664,118 233,119.694 233,125 L233,132 L229.625,132 C226.645,132 226.177,131.634 225.625,128.875 C225.281,127.156 225,124.681 225,123.375 C225,121.931 224.412,121 223.5,121 C222.675,121 222,120.375 222,119.611 C222,118.816 220.505,117.942 218.5,117.566 C216.405,117.173 215,116.325 215,115.455 C215,114.459 213.896,114 211.5,114 C209.056,114 208,113.548 208,112.5 C208,111.417 206.889,111 204,111 C201.111,111 200,111.417 200,112.5 C200,113.325 199.325,114 198.5,114 C197.675,114 197,114.717 197,115.594 C197,116.47 196.1,117.423 195,117.71 C193.9,117.998 193,118.856 193,119.617 C193,120.377 192.377,121 191.617,121 C190.856,121 189.998,121.9 189.71,123 C189.423,124.1 188.47,125 187.594,125 C186.667,125 186,125.837 186,127 C186,128.333 185.333,129 184,129 C182.889,129 182,129.667 182,130.5 C182,131.548 180.944,132 178.5,132 C175.667,132 175,131.619 175,130 C175,128.267 174.333,128 170,128 C166.222,128 165,127.633 165,126.5 C165,125.396 163.849,125 160.64,125 C158.241,125 154.166,124.71 151.584,124.356 C147.384,123.781 146.83,123.933 146.342,125.799 C146.012,127.062 144.677,128.132 142.963,128.508 C140.865,128.969 139.963,129.891 139.486,132.065 C139.131,133.679 138.202,135 137.421,135 C136.639,135 136,135.9 136,137 C136,138.333 135.333,139 134,139 C132.667,139 132,139.667 132,141 C132,142.333 131.333,143 130,143 C128.889,143 128,143.667 128,144.5 C128,145.325 127.325,146 126.5,146 C125.667,146 125,146.889 125,148 C125,149.333 124.333,150 123,150 C121.889,150 121,149.333 121,148.5 C121,147.675 120.325,147 119.5,147 C118.567,147 118,146.056 118,144.5 C118,142.944 118.567,142 119.5,142 C120.325,142 121,141.325 121,140.5 C121,139.667 121.889,139 123,139 C124.111,139 125,138.333 125,137.5 C125,136.675 125.675,136 126.5,136 C127.333,136 128,135.111 128,134 C128,132.667 128.667,132 130,132 C131.333,132 132,131.333 132,130 C132,128.9 132.623,128 133.383,128 C134.144,128 135.002,127.1 135.29,126 C135.577,124.9 136.53,124 137.406,124 C138.283,124 139,123.325 139,122.5 C139,121.675 139.675,121 140.5,121 C141.325,121 142,120.325 142,119.5 C142,118.675 141.325,118 140.5,118 C139.667,118 139,117.111 139,116 C139,114.381 138.333,114 135.5,114 C133.152,114 132,113.535 132,112.588 C132,111.72 130.459,110.915 128,110.5 C125.038,110 124,109.35 124,107.995 C124,106.99 123.438,105.938 122.75,105.659 C119.866,104.489 124.834,103.03 131.75,103.015 C138.338,103.001 139,103.182 139,105 C139,106.333 139.667,107 141,107 C142.111,107 143,107.667 143,108.5 C143,109.548 144.056,110 146.5,110 C149.833,110 150,109.833 150,106.5 C150,104.104 150.459,103 151.455,103 C152.325,103 153.173,101.595 153.566,99.5 C153.942,97.495 154.816,96 155.611,96 C156.375,96 157,95.1 157,94 C157,92.667 157.667,92 159,92 C160.619,92 161,91.333 161,88.5 C161,86.056 161.452,85 162.5,85 C164.854,85 164.253,82.301 161.75,81.63 C160.512,81.299 157.363,81.021 154.75,81.014 C151.201,81.003 150,80.621 150,79.5 C150,78.675 149.325,78 148.5,78 C147.675,78 147,78.619 147,79.375 C147,80.804 142.841,82 137.875,82 C135.986,82 135,82.514 135,83.5 C135,84.325 134.325,85 133.5,85 C132.452,85 132,86.056 132,88.5 C132,91.833 131.833,92 128.5,92 L125,92 L125,85 C125,78.667 125.19,78 127,78 C128.1,78 129,77.377 129,76.617 C129,75.101 131.968,74.035 136.25,74.014 C138.022,74.005 139,73.466 139,72.5 C139,71.229 141.444,71 155,71 C168.556,71 171,71.229 171,72.5 C171,73.325 171.844,74 172.875,74 C174.161,74 174.94,73.051 175.354,70.979 C175.826,68.618 176.618,67.826 178.979,67.354 C180.641,67.022 182,66.171 182,65.463 C182,64.741 183.755,63.879 186,63.5 C188.459,63.085 190,62.28 190,61.412 C190,60.384 191.361,60 195,60 C199.364,60 200,59.741 200,57.962 Z M175.29,159 C175.751,157.237 176.654,157 182.906,157 C188.545,157 190,157.308 190,158.5 C190,159.325 190.675,160 191.5,160 C192.652,160 193,161.278 193,165.5 C193,169.722 192.652,171 191.5,171 C190.417,171 190,172.111 190,175 C190,178.333 189.667,179 188,179 C186.381,179 186,179.667 186,182.5 C186,184.82 185.532,186 184.611,186 C183.816,186 182.942,187.495 182.566,189.5 C182.203,191.437 181.31,193 180.566,193 C179.822,193 178.929,194.563 178.566,196.5 C178.173,198.595 177.325,200 176.455,200 C175.655,200 175,200.9 175,202 C175,203.111 174.333,204 173.5,204 C172.667,204 172,204.889 172,206 C172,207.333 171.333,208 170,208 C168.381,208 168,208.667 168,211.5 C168,214.333 168.381,215 170,215 C171.111,215 172,215.667 172,216.5 C172,217.548 173.056,218 175.5,218 C178.333,218 179,218.381 179,220 C179,221.81 179.667,222 186,222 C191.293,222 193,222.337 193,223.383 C193,224.144 194.238,225.007 195.75,225.3 C199.59,226.046 204,225.016 204,223.375 C204,222.619 204.675,222 205.5,222 C206.325,222 207,221.283 207,220.406 C207,219.53 207.9,218.577 209,218.29 C210.503,217.897 211,216.926 211,214.383 C211,211.183 210.81,211 207.5,211 C205.187,211 204,210.531 204,209.617 C204,208.856 203.1,207.998 202,207.71 C200.9,207.423 200,206.47 200,205.594 C200,204.287 198.738,204 193,204 L186,204 L186,200.5 C186,198.18 186.468,197 187.389,197 C188.184,197 189.058,195.505 189.434,193.5 C190.008,190.438 190.46,190 193.045,190 C195.005,190 196,190.505 196,191.5 C196,192.356 196.899,193 198.094,193 C199.346,193 200.397,193.803 200.71,195 C200.998,196.1 201.856,197 202.617,197 C203.377,197 204,197.675 204,198.5 C204,199.523 205.034,200.004 207.25,200.014 C212,200.034 215,201.041 215,202.617 C215,203.531 216.187,204 218.5,204 C221.833,204 222,203.833 222,200.5 C222,197.964 222.439,197 223.594,197 C224.47,197 225.423,196.1 225.71,195 C225.998,193.9 226.856,193 227.617,193 C228.531,193 229,191.813 229,189.5 C229,186.667 229.381,186 231,186 C232.619,186 233,185.333 233,182.5 C233,180.056 233.452,179 234.5,179 C235.523,179 236.004,177.966 236.014,175.75 C236.021,173.963 236.299,171.488 236.63,170.25 C237.117,168.435 236.824,168 235.117,168 C233.902,168 233,167.361 233,166.5 C233,165.452 231.944,165 229.5,165 C227.056,165 226,165.452 226,166.5 C226,167.7 224.5,168 218.5,168 C212.5,168 211,168.3 211,169.5 C211,170.325 210.325,171 209.5,171 C208.667,171 208,171.889 208,173 C208,174.667 207.333,175 204,175 L200,175 L200.014,170.25 C200.038,161.812 200.569,161 206.067,161 C209.631,161 211.157,160.54 211.878,159.25 C212.72,157.743 214.762,157.454 226.592,157.169 C234.147,156.988 241.829,157.121 243.664,157.465 L247,158.091 L247,165.045 C247,170.561 246.69,172 245.5,172 C244.363,172 244,173.233 244,177.094 C244,181.346 243.67,182.274 242,182.71 C240.344,183.143 240,184.074 240,188.117 C240,192.333 239.727,193 238,193 C236.667,193 236,193.667 236,195 C236,196.1 235.375,197 234.611,197 C233.816,197 232.942,198.495 232.566,200.5 C232.173,202.595 231.325,204 230.455,204 C229.459,204 229,205.104 229,207.5 C229,210.917 229.095,211 233,211 C235.834,211 237,211.424 237,212.455 C237,213.325 238.405,214.173 240.5,214.566 C242.425,214.927 244,215.797 244,216.5 C244,217.203 245.575,218.073 247.5,218.434 C249.595,218.827 251,219.675 251,220.545 C251,221.345 251.9,222 253,222 C254.1,222 255,222.639 255,223.421 C255,224.202 256.35,225.138 258,225.5 C259.65,225.862 261,226.798 261,227.579 C261,228.361 261.848,229 262.883,229 C263.926,229 265,229.893 265.29,231 C265.577,232.1 266.53,233 267.406,233 C268.671,233 269,234.134 269,238.5 C269,244.215 268.673,244.555 264.307,243.385 C262.943,243.019 261.879,241.726 261.492,239.963 C261.031,237.865 260.109,236.963 257.935,236.486 C256.264,236.119 255,235.189 255,234.327 C255,233.494 254.131,232.586 253.069,232.308 C252.007,232.03 250.896,231.172 250.601,230.401 C250.303,229.626 248.709,229 247.031,229 C245.003,229 244,228.503 244,227.5 C244,226.667 243.111,226 242,226 C240.667,226 240,225.333 240,224 C240,222.242 239.333,222 234.5,222 C230.415,222 229,221.635 229,220.579 C229,218.707 223.956,217.663 218.978,218.504 C215.405,219.107 215,219.472 215,222.088 C215,224.086 214.5,225 213.406,225 C212.53,225 211.577,225.9 211.29,227 C211.002,228.1 210.167,229 209.433,229 C208.7,229 207.656,229.787 207.115,230.75 C205.733,233.207 191.195,233.1 189.808,230.622 C189.107,229.369 187.32,229 181.95,229 C176.686,229 175,228.663 175,227.611 C175,226.816 173.505,225.942 171.5,225.566 C169.405,225.173 168,224.325 168,223.455 C168,222.358 166.646,222 162.5,222 C158.278,222 157,222.348 157,223.5 C157,224.325 156.325,225 155.5,225 C154.667,225 154,225.889 154,227 C154,228.333 153.333,229 152,229 C150.667,229 150,229.667 150,231 C150,232.1 149.377,233 148.617,233 C147.856,233 146.998,233.9 146.71,235 C146.423,236.1 145.47,237 144.594,237 C143.717,237 143,237.675 143,238.5 C143,239.333 142.111,240 141,240 C139.667,240 139,240.667 139,242 C139,243.333 138.333,244 137,244 C135.889,244 135,244.667 135,245.5 C135,246.325 134.325,247 133.5,247 C132.368,247 132,245.783 132,242.045 C132,237.175 132.059,237.08 135.5,236.434 C137.549,236.05 139,235.189 139,234.357 C139,233.576 139.648,232.689 140.439,232.385 C141.23,232.081 142.166,230.521 142.518,228.916 C142.871,227.312 143.798,226 144.579,226 C145.361,226 146,225.1 146,224 C146,222.381 146.667,222 149.5,222 C151.944,222 153,221.548 153,220.5 C153,219.675 152.325,219 151.5,219 C150.667,219 150,218.111 150,217 C150,215.394 149.333,215 146.617,215 C144.074,215 143.103,214.503 142.71,213 C142.31,211.468 141.346,211 138.594,211 C136.155,211 135,210.543 135,209.579 C135,208.798 133.65,207.862 132,207.5 C129.537,206.959 129,206.34 129,204.037 C129,200.806 130.772,200.035 138.25,200.014 C142.338,200.002 143,200.279 143,202 C143,203.619 143.667,204 146.5,204 C148.813,204 150,204.469 150,205.383 C150,206.144 150.9,207.002 152,207.29 C153.1,207.577 154,208.53 154,209.406 C154,210.283 154.675,211 155.5,211 C156.325,211 157,210.325 157,209.5 C157,208.667 157.889,208 159,208 C160.333,208 161,207.333 161,206 C161,204.889 161.667,204 162.5,204 C163.325,204 164,203.283 164,202.406 C164,201.53 164.9,200.577 166,200.29 C167.503,199.897 168,198.926 168,196.383 C168,193.667 168.394,193 170,193 C171.619,193 172,192.333 172,189.5 C172,187.056 172.452,186 173.5,186 C174.333,186 175,185.111 175,184 C175,182.9 175.623,182 176.383,182 C177.899,182 178.965,179.032 178.986,174.75 C178.995,172.978 179.534,172 180.5,172 C181.333,172 182,171.111 182,170 C182,168.267 181.333,168 177,168 C173.424,168 172,168.392 172,169.375 C172,170.746 167.88,172 163.375,172 C161.931,172 161,172.588 161,173.5 C161,174.333 160.111,175 159,175 C157.242,175 157,175.667 157,180.5 L157,186 L153.5,186 C150.667,186 150,185.619 150,184 C150,182.381 149.333,182 146.5,182 L143,182 L143,177.045 C143,172.175 143.059,172.08 146.5,171.434 C148.505,171.058 150,170.184 150,169.389 C150,168.468 151.18,168 153.5,168 C156.333,168 157,167.619 157,166 C157,164.381 157.667,164 160.5,164 C162.944,164 164,163.548 164,162.5 C164,161.352 165.265,161 169.383,161 C173.926,161 174.848,160.688 175.29,159 Z M67.29,69 C67.577,67.9 68.53,67 69.406,67 C70.333,67 71,67.837 71,69 C71,70.111 71.667,71 72.5,71 C73.325,71 74,71.675 74,72.5 C74,73.325 73.325,74 72.5,74 C71.667,74 71,74.889 71,76 C71,77.333 70.333,78 69,78 C67.242,78 67,78.667 67,83.5 C67,87.722 66.652,89 65.5,89 C64.534,89 63.995,89.978 63.986,91.75 C63.965,96.032 62.899,99 61.383,99 C60.377,99 60,100.467 60,104.383 C60,108.926 59.688,109.848 58,110.29 C56.9,110.577 56,111.53 56,112.406 C56,113.283 55.325,114 54.5,114 C53.462,114 53,115.043 53,117.383 C53,119.926 52.503,120.897 51,121.29 C49.544,121.671 49,122.654 49,124.906 C49,127.775 49.254,128 52.5,128 C54.82,128 56,127.532 56,126.611 C56,125.823 57.473,124.946 59.403,124.584 C61.275,124.233 63.061,123.283 63.372,122.473 C63.722,121.56 65.281,121 67.469,121 C69.892,121 71,120.544 71,119.545 C71,118.675 72.405,117.827 74.5,117.434 C76.505,117.058 78,116.184 78,115.389 C78,114.468 79.18,114 81.5,114 C84.333,114 85,113.619 85,112 C85,110.381 85.667,110 88.5,110 C90.944,110 92,109.548 92,108.5 C92,107.667 92.889,107 94,107 C95.111,107 96,107.667 96,108.5 C96,109.325 96.675,110 97.5,110 C98.333,110 99,110.889 99,112 C99,113.111 98.333,114 97.5,114 C96.667,114 96,114.889 96,116 C96,117.111 95.333,118 94.5,118 C93.675,118 93,118.717 93,119.594 C93,120.47 92.1,121.423 91,121.71 C89.583,122.081 89,123.074 89,125.117 C89,127.333 88.538,128 87,128 C85.667,128 85,128.667 85,130 C85,131.1 84.375,132 83.611,132 C82.816,132 81.942,133.495 81.566,135.5 C81.173,137.595 80.325,139 79.455,139 C78.655,139 78,139.9 78,141 C78,142.333 77.333,143 76,143 C74.667,143 74,143.667 74,145 C74,146.1 73.361,147 72.579,147 C71.798,147 70.862,148.35 70.5,150 C70.138,151.65 69.202,153 68.421,153 C67.639,153 67,153.848 67,154.883 C67,155.926 66.107,157 65,157.29 C63.9,157.577 63,158.53 63,159.406 C63,160.283 62.325,161 61.5,161 C60.675,161 60,161.675 60,162.5 C60,163.633 61.222,164 65,164 C68.778,164 70,163.633 70,162.5 C70,161.417 71.111,161 74,161 C77.333,161 78,160.667 78,159 C78,157.667 78.667,157 80,157 C81.111,157 82,156.333 82,155.5 C82,154.452 83.056,154 85.5,154 C87.944,154 89,154.452 89,155.5 C89,156.325 89.625,157 90.389,157 C91.184,157 92.058,158.495 92.434,160.5 C92.827,162.595 93.675,164 94.545,164 C95.345,164 96,164.9 96,166 C96,167.333 96.667,168 98,168 C99.333,168 100,168.667 100,170 C100,171.111 100.667,172 101.5,172 C102.325,172 103,172.675 103,173.5 C103,174.325 103.717,175 104.594,175 C105.47,175 106.423,175.9 106.71,177 C106.998,178.1 107.806,179 108.505,179 C109.205,179 110.073,180.575 110.434,182.5 C110.827,184.595 111.675,186 112.545,186 C113.642,186 114,187.354 114,191.5 C114,195.472 113.622,197 112.639,197 C111.757,197 111.076,198.714 110.701,201.878 C110.015,207.673 110.713,211 112.617,211 C113.377,211 114,211.9 114,213 C114,214.619 114.667,215 117.5,215 C119.944,215 121,215.452 121,216.5 C121,217.333 121.889,218 123,218 C124.667,218 125,218.667 125,222 C125,225.849 124.877,225.999 121.75,225.986 C117,225.966 114,224.959 114,223.383 C114,222.623 113.1,222 112,222 C110.667,222 110,221.333 110,220 C110,218.889 109.333,218 108.5,218 C107.675,218 107,217.325 107,216.5 C107,215.667 106.111,215 105,215 C103.667,215 103,214.333 103,213 C103,211.667 102.333,211 101,211 C99.889,211 99,210.333 99,209.5 C99,208.675 98.325,208 97.5,208 C96.348,208 96,206.722 96,202.5 L96,197 L99.5,197 C101.944,197 103,197.452 103,198.5 C103,199.325 103.675,200 104.5,200 C105.548,200 106,198.944 106,196.5 C106,194.575 105.57,193 105.045,193 C104.52,193 103.795,191.425 103.434,189.5 C103.058,187.495 102.184,186 101.389,186 C100.625,186 100,185.283 100,184.406 C100,183.53 99.1,182.577 98,182.29 C96.9,182.002 96,181.197 96,180.5 C96,179.803 95.1,178.998 94,178.71 C92.9,178.423 92,177.47 92,176.594 C92,175.717 91.325,175 90.5,175 C89.675,175 89,174.311 89,173.469 C89,172.626 88.325,171.678 87.5,171.362 C86.675,171.045 86,170.159 86,169.393 C86,168.357 84.462,168 80,168 C75.558,168 74,168.359 74,169.383 C74,170.899 71.032,171.965 66.75,171.986 C65.105,171.995 64,172.546 64,173.36 C64,174.278 62.16,174.91 58.344,175.304 C55.233,175.625 52.416,176.327 52.084,176.865 C51.752,177.402 50.251,178.15 48.749,178.527 C46.724,179.035 45.859,178.797 45.402,177.606 C45.063,176.723 44.159,176 43.393,176 C42.574,176 42,174.97 42,173.5 C42,172.007 42.572,171 43.421,171 C44.202,171 45.131,169.679 45.486,168.065 C45.968,165.87 46.862,164.97 49.033,164.493 C51.36,163.982 52.064,163.175 52.58,160.428 C52.933,158.542 53.795,157 54.495,157 C55.194,157 56.002,156.1 56.29,155 C56.577,153.9 57.53,153 58.406,153 C59.283,153 60,152.325 60,151.5 C60,150.675 60.625,150 61.389,150 C62.184,150 63.058,148.505 63.434,146.5 C63.827,144.405 64.675,143 65.545,143 C66.345,143 67,142.1 67,141 C67,139.667 67.667,139 69,139 C70.333,139 71,138.333 71,137 C71,135.9 71.655,135 72.455,135 C73.325,135 74.173,133.595 74.566,131.5 C74.942,129.495 75.816,128 76.611,128 C77.375,128 78,127.325 78,126.5 C78,125.452 76.944,125 74.5,125 C72.187,125 71,125.469 71,126.383 C71,127.144 70.1,128.002 69,128.29 C67.9,128.577 67,129.53 67,130.406 C67,131.561 66.036,132 63.5,132 C61.197,132 60,132.47 60,133.375 C60,134.746 55.88,136 51.375,136 C50.015,136 49,136.594 49,137.389 C49,138.184 47.505,139.058 45.5,139.434 C43.405,139.827 42,140.675 42,141.545 C42,142.642 40.646,143 36.5,143 L31,143 L31,139.617 C31,137.074 31.497,136.103 33,135.71 C34.456,135.329 35,134.346 35,132.094 C35,130.01 35.49,129 36.5,129 C37.333,129 38,128.111 38,127 C38,125.667 38.667,125 40,125 C41.619,125 42,124.333 42,121.5 C42,119.152 42.465,118 43.412,118 C44.28,118 45.085,116.459 45.5,114 C45.915,111.541 46.72,110 47.588,110 C48.535,110 49,108.848 49,106.5 C49,104.187 49.469,103 50.383,103 C51.899,103 52.965,100.032 52.986,95.75 C52.995,93.978 53.534,93 54.5,93 C55.523,93 56.004,91.966 56.014,89.75 C56.034,85 57.041,82 58.617,82 C59.531,82 60,80.813 60,78.5 C60,75.964 60.439,75 61.594,75 C62.47,75 63.423,74.1 63.71,73 C63.998,71.9 64.803,71 65.5,71 C66.197,71 67.002,70.1 67.29,69 Z M198.75,67.689 C197.787,67.941 197,68.789 197,69.573 C197,70.636 195.597,71 191.5,71 C186.667,71 186,71.242 186,73 C186,74.333 185.333,75 184,75 C182.889,75 182,75.667 182,76.5 C182,77.325 181.325,78 180.5,78 C179.64,78 179,78.901 179,80.111 C179,81.983 178.602,82.148 175.5,81.566 C172.021,80.913 172,80.931 172,84.548 C172,87.346 171.538,88.308 170,88.71 C168.497,89.103 168,90.074 168,92.617 C168,94.837 167.523,96 166.611,96 C165.816,96 164.942,97.495 164.566,99.5 C164.173,101.595 163.325,103 162.455,103 C161.655,103 161,103.9 161,105 C161,106.333 160.333,107 159,107 C157.667,107 157,107.667 157,109 C157,110.111 156.333,111 155.5,111 C154.675,111 154,111.675 154,112.5 C154,113.325 154.623,114 155.383,114 C156.144,114 157.002,114.9 157.29,116 C157.671,117.456 158.654,118 160.906,118 C162.99,118 164,118.49 164,119.5 C164,120.653 165.281,121 169.531,121 C173.526,121 175.223,121.417 175.638,122.5 C176.386,124.448 179,124.448 179,122.5 C179,121.675 179.675,121 180.5,121 C181.325,121 182,120.325 182,119.5 C182,118.667 182.889,118 184,118 C185.333,118 186,117.333 186,116 C186,114.9 186.623,114 187.383,114 C188.144,114 189.002,113.1 189.29,112 C189.577,110.9 190.53,110 191.406,110 C192.333,110 193,109.163 193,108 C193,106.889 192.333,106 191.5,106 C190.675,106 190,105.325 190,104.5 C190,103.452 188.944,103 186.5,103 C184.18,103 183,102.532 183,101.611 C183,100.825 181.531,99.947 179.61,99.587 C176.057,98.92 175.041,97.187 175.014,91.75 C175,89.082 175.163,89 180.5,89 C184.516,89 186,89.373 186,90.383 C186,91.144 186.9,92.002 188,92.29 C189.1,92.577 190,93.53 190,94.406 C190,95.561 190.964,96 193.5,96 C195.944,96 197,96.452 197,97.5 C197,98.325 197.675,99 198.5,99 C199.51,99 200,97.99 200,95.906 C200,93.654 200.544,92.671 202,92.29 C203.503,91.897 204,90.926 204,88.383 C204,86.169 204.478,85 205.383,85 C206.959,85 207.966,82 207.986,77.25 C207.996,75.034 208.477,74 209.5,74 C210.487,74 211,73.013 211,71.117 C211,68.972 210.424,68.079 208.75,67.63 C206.249,66.96 201.432,66.988 198.75,67.689 Z M42,198.5 L42,193 L45.389,193 C48.47,193 48.837,193.318 49.434,196.5 C49.827,198.595 50.675,200 51.545,200 C52.345,200 53,200.9 53,202 C53,203.111 53.667,204 54.5,204 C55.325,204 56,204.717 56,205.594 C56,206.47 56.9,207.423 58,207.71 C59.503,208.103 60,209.074 60,211.617 C60,214.333 60.394,215 62,215 C63.111,215 64,215.667 64,216.5 C64,217.325 64.675,218 65.5,218 C66.333,218 67,218.889 67,220 C67,221.333 67.667,222 69,222 C70.1,222 71,222.655 71,223.455 C71,224.325 72.405,225.173 74.5,225.566 C76.505,225.942 78,226.816 78,227.611 C78,228.375 78.675,229 79.5,229 C80.333,229 81,229.889 81,231 C81,232.81 80.333,233 74,233 C68.541,233 67,232.68 67,231.545 C67,230.675 65.595,229.827 63.5,229.434 C60.318,228.837 60,228.47 60,225.389 C60,222.667 59.607,222 58,222 C56.889,222 56,221.333 56,220.5 C56,219.675 55.325,219 54.5,219 C53.667,219 53,218.111 53,217 C53,215.667 52.333,215 51,215 C49.394,215 49,214.333 49,211.617 C49,209.074 48.503,208.103 47,207.71 C45.9,207.423 45,206.47 45,205.594 C45,204.717 44.325,204 43.5,204 C42.348,204 42,202.722 42,198.5 Z M76.25,196.685 C77.487,196.436 79.4,196.398 80.5,196.602 C81.6,196.806 83.063,196.979 83.75,196.986 C84.628,196.996 85,199.051 85,203.883 C85,209.926 85.244,210.831 87,211.29 C88.67,211.726 89,212.654 89,216.906 C89,220.767 89.363,222 90.5,222 C91.325,222 92,222.717 92,223.594 C92,224.47 92.9,225.423 94,225.71 C95.1,225.998 96,226.856 96,227.617 C96,228.377 96.675,229 97.5,229 C98.333,229 99,229.889 99,231 C99,232.81 98.333,233 92,233 L85,233 L85,229.5 C85,227.152 84.535,226 83.588,226 C82.72,226 81.915,224.459 81.5,222 C81.085,219.541 80.28,218 79.412,218 C78.465,218 78,216.848 78,214.5 C78,212.187 77.531,211 76.617,211 C74.903,211 74.031,207.927 74.014,201.82 C74.002,197.762 74.299,197.079 76.25,196.685 Z"/>
</svg>

