<svg xmlns="http://www.w3.org/2000/svg" width="300" height="300" viewBox="0 0 300 300" version="1.1">
  <defs/>
  <path d="M78,48 C78,46.889 78.667,46 79.5,46 C80.325,46 81,46.675 81,47.5 C81,48.333 81.889,49 83,49 C84.852,49 85,49.667 85,58 C85,65.333 84.722,67 83.5,67 C82.445,67 82,68.066 82,70.594 C82,73.346 81.532,74.31 80,74.71 C78.344,75.143 78,76.074 78,80.117 C78,84.333 77.727,85 76,85 C74.407,85 74.003,85.662 74.014,88.25 C74.034,93 75.041,96 76.617,96 C77.377,96 78,95.1 78,94 C78,92.19 78.667,92 85,92 L92,92 L92,97.5 C92,101.722 91.652,103 90.5,103 C89.417,103 89,104.111 89,107 C89,109.789 88.57,111 87.579,111 C86.798,111 85.862,112.35 85.5,114 C85.138,115.65 84.252,117 83.532,117 C82.812,117 81.927,118.575 81.566,120.5 C81.173,122.595 80.325,124 79.455,124 C78.57,124 78,124.979 78,126.5 C78,127.993 77.428,129 76.579,129 C75.798,129 74.862,130.35 74.5,132 C74.138,133.65 73.202,135 72.421,135 C71.572,135 71,136.007 71,137.5 C71,138.993 70.428,140 69.579,140 C68.798,140 67.862,141.35 67.5,143 C67.138,144.65 66.202,146 65.421,146 C64.639,146 64,146.9 64,148 C64,149.619 64.667,150 67.5,150 C70.333,150 71,149.619 71,148 C71,146.381 71.667,146 74.5,146 C76.813,146 78,145.531 78,144.617 C78,143.856 78.9,142.998 80,142.71 C81.1,142.423 82,141.47 82,140.594 C82,139.667 82.837,139 84,139 C85.1,139 86,138.361 86,137.579 C86,136.798 87.35,135.862 89,135.5 C90.65,135.138 92,134.202 92,133.421 C92,132.639 92.9,132 94,132 C95.333,132 96,131.333 96,130 C96,128.667 96.667,128 98,128 C99.111,128 100,127.333 100,126.5 C100,125.348 101.278,125 105.5,125 C109.722,125 111,125.348 111,126.5 C111,127.325 111.675,128 112.5,128 C113.333,128 114,128.889 114,130 C114,131.1 114.655,132 115.455,132 C116.325,132 117.173,133.405 117.566,135.5 C117.927,137.425 118.735,139.008 119.361,139.017 C120.741,139.038 125,143.387 125,144.774 C125,146.36 128.236,146.788 136.024,146.23 L143.288,145.711 L142.727,148.605 C141.979,152.465 142.944,157 144.514,157 C145.209,157 146.073,158.575 146.434,160.5 C146.827,162.595 147.675,164 148.545,164 C149.345,164 150,164.9 150,166 C150,167.333 150.667,168 152,168 C153.111,168 154,167.333 154,166.5 C154,165.675 154.675,165 155.5,165 C156.333,165 157,164.111 157,163 C157,161.889 157.667,161 158.5,161 C159.325,161 160,160.283 160,159.406 C160,158.53 160.9,157.577 162,157.29 C163.1,157.002 164,156.144 164,155.383 C164,154.623 164.9,154 166,154 C167.333,154 168,153.333 168,152 C168,150.394 168.667,150 171.383,150 C173.926,150 174.897,149.503 175.29,148 C175.69,146.468 176.654,146 179.406,146 C181.934,146 183,145.555 183,144.5 C183,143.675 183.675,143 184.5,143 C185.537,143 186,141.958 186,139.625 C186,136.714 186.392,136.172 188.851,135.68 C192.562,134.938 196,135.869 196,137.617 C196,138.641 197.558,139 202,139 C206.667,139 208,138.667 208,137.5 C208,136.229 210.444,136 224,136 C237.556,136 240,136.229 240,137.5 C240,138.637 241.233,139 245.094,139 C249.346,139 250.274,139.33 250.71,141 C251,142.107 252.074,143 253.117,143 C254.152,143 255,143.675 255,144.5 C255,145.325 255.675,146 256.5,146 C257.742,146 258,147.889 258,157 C258,165.959 257.73,168 256.545,168 C255.675,168 254.827,169.405 254.434,171.5 C254.058,173.505 253.184,175 252.389,175 C251.625,175 251,175.9 251,177 C251,178.333 250.333,179 249,179 C247.667,179 247,179.667 247,181 C247,182.111 246.333,183 245.5,183 C244.675,183 244,183.675 244,184.5 C244,185.333 243.111,186 242,186 C240.667,186 240,186.667 240,188 C240,189.333 239.333,190 238,190 C236.889,190 236,190.667 236,191.5 C236,192.753 233.944,193 223.5,193 C211.667,193 211,192.893 211,191 C211,189.889 210.333,189 209.5,189 C208.675,189 208,188.325 208,187.5 C208,186.367 209.222,186 213,186 C216.778,186 218,186.367 218,187.5 C218,188.548 219.056,189 221.5,189 C223.944,189 225,188.548 225,187.5 C225,186.452 226.056,186 228.5,186 C231.036,186 232,185.561 232,184.406 C232,183.53 232.9,182.577 234,182.29 C235.1,182.002 236,181.144 236,180.383 C236,179.623 236.9,179 238,179 C239.333,179 240,178.333 240,177 C240,175.889 240.667,175 241.5,175 C242.325,175 243,174.283 243,173.406 C243,172.53 243.9,171.577 245,171.29 C246.656,170.857 247,169.926 247,165.883 C247,161.667 247.273,161 249,161 C250.593,161 250.997,160.338 250.986,157.75 C250.958,150.914 250.238,150 244.883,150 C241.302,150 240,149.616 240,148.561 C240,147.62 238.422,146.886 235.431,146.437 C229.726,145.582 202.321,146.345 201.278,147.389 C200.854,147.813 200.346,151.723 200.148,156.08 C199.878,162.014 199.439,164 198.394,164 C197.627,164 197,164.9 197,166 C197,167.111 197.667,168 198.5,168 C199.799,168 200.024,172.385 200.18,200.75 C200.279,218.762 200.247,235.06 200.109,236.968 C199.73,242.226 200.889,247 202.545,247 C203.345,247 204,247.675 204,248.5 C204,249.325 204.675,250 205.5,250 C206.583,250 207,251.111 207,254 C207,256.889 206.583,258 205.5,258 C204.452,258 204,259.056 204,261.5 C204,264.333 203.619,265 202,265 C200.646,265 200,265.667 200,267.063 C200,268.789 199.468,269.075 196.75,268.813 L193.5,268.5 L193.239,227.25 C193.013,191.503 192.779,186 191.489,186 C190.278,186 189.998,184.271 189.991,176.75 C189.979,163.996 189.047,157 187.361,157 C186.612,157 186,156.325 186,155.5 C186,154.452 184.944,154 182.5,154 C180.056,154 179,154.452 179,155.5 C179,156.333 178.111,157 177,157 C175.667,157 175,157.667 175,159 C175,160.333 174.333,161 173,161 C171.889,161 171,161.667 171,162.5 C171,163.325 170.325,164 169.5,164 C168.667,164 168,164.889 168,166 C168,167.1 167.381,168 166.625,168 C165.096,168 164,172.228 164,178.125 C164,180.903 163.575,182 162.5,182 C161.667,182 161,182.889 161,184 C161,185.667 160.333,186 157,186 C154.111,186 153,185.583 153,184.5 C153,183.675 152.325,183 151.5,183 C150.667,183 150,182.111 150,181 C150,179.667 149.333,179 148,179 C146.667,179 146,178.333 146,177 C146,175.889 145.333,175 144.5,175 C143.452,175 143,173.944 143,171.5 C143,168.667 142.619,168 141,168 C139.381,168 139,167.333 139,164.5 C139,161.167 138.833,161 135.5,161 L132,161 L132,168 C132,173.293 131.663,175 130.617,175 C129.856,175 128.988,175.939 128.688,177.087 C128.334,178.44 127.502,179.05 126.321,178.822 C124.693,178.507 124.537,177.546 124.851,169.742 C125.142,162.508 124.933,160.912 123.628,160.411 C122.763,160.079 121.767,158.275 121.416,156.403 C121.065,154.532 120.188,153 119.468,153 C118.748,153 117.869,151.679 117.514,150.065 C117.032,147.87 116.138,146.97 113.967,146.493 C111.64,145.982 110.936,145.175 110.42,142.428 C110.055,140.478 109.178,139 108.389,139 C107.625,139 107,138.325 107,137.5 C107,136.452 105.944,136 103.5,136 C101.056,136 100,136.452 100,137.5 C100,138.333 99.111,139 98,139 C96.667,139 96,139.667 96,141 C96,142.619 95.333,143 92.5,143 C89.667,143 89,143.381 89,145 C89,146.333 88.333,147 87,147 C85.889,147 85,147.667 85,148.5 C85,149.333 84.111,150 83,150 C81.9,150 81,150.655 81,151.455 C81,152.325 79.595,153.173 77.5,153.566 C75.495,153.942 74,154.816 74,155.611 C74,156.497 72.879,157 70.906,157 C68.654,157 67.671,157.544 67.29,159 C66.897,160.503 65.926,161 63.383,161 C61.169,161 60,161.478 60,162.383 C60,163.144 59.1,164.002 58,164.29 C56.9,164.577 56,165.53 56,166.406 C56,167.561 55.036,168 52.5,168 C50.056,168 49,168.452 49,169.5 C49,170.548 47.944,171 45.5,171 L42,171 L42,166 C42,162.222 42.367,161 43.5,161 C44.333,161 45,160.111 45,159 C45,157.667 45.667,157 47,157 C48.333,157 49,156.333 49,155 C49,153.9 49.655,153 50.455,153 C51.325,153 52.173,151.595 52.566,149.5 C52.942,147.495 53.816,146 54.611,146 C55.375,146 56,145.325 56,144.5 C56,143.667 56.889,143 58,143 C59.619,143 60,142.333 60,139.5 C60,137.056 60.452,136 61.5,136 C62.333,136 63,135.111 63,134 C63,132.667 63.667,132 65,132 C66.619,132 67,131.333 67,128.5 C67,126.104 67.459,125 68.455,125 C69.325,125 70.173,123.595 70.566,121.5 C70.942,119.495 71.816,118 72.611,118 C73.375,118 74,117.1 74,116 C74,114.667 74.667,114 76,114 C77.758,114 78,113.333 78,108.5 C78,103.377 77.837,103 75.625,103 C71.12,103 67,104.254 67,105.625 C67,106.625 65.5,107 61.5,107 L56,107 L56,103.406 C56,100.654 56.468,99.69 58,99.29 C59.503,98.897 60,97.926 60,95.383 C60,93.089 60.468,92 61.455,92 C62.325,92 63.173,90.595 63.566,88.5 C63.942,86.495 64.816,85 65.611,85 C66.532,85 67,83.82 67,81.5 C67,79.187 67.469,78 68.383,78 C69.959,78 70.966,75 70.986,70.25 C70.996,68.034 71.477,67 72.5,67 C73.672,67 74.003,65.633 74.014,60.75 C74.03,53.135 74.79,50 76.617,50 C77.377,50 78,49.1 78,48 Z M146.75,31.728 C155.742,30.788 160.064,31.004 160.608,32.422 C160.975,33.378 163.585,34.072 168.577,34.539 C173.893,35.038 176,35.627 176,36.617 C176,37.378 176.675,38 177.5,38 C178.333,38 179,38.889 179,40 C179,41.111 179.667,42 180.5,42 C181.652,42 182,43.278 182,47.5 C182,51.722 181.652,53 180.5,53 C179.639,53 179,53.902 179,55.117 C179,56.824 179.435,57.117 181.25,56.63 C182.488,56.299 186.537,56.021 190.25,56.014 C195.577,56.003 197,55.684 197,54.5 C197,53.224 199.606,53 214.455,53 L231.909,53 L232.566,56.5 C233.041,59.033 233.745,60 235.111,60 C236.749,60 237,60.782 237,65.875 C237,73.658 236.06,78 234.375,78 C233.47,78 233,79.197 233,81.5 C233,84.333 232.619,85 231,85 C229.667,85 229,85.667 229,87 C229,88.111 228.333,89 227.5,89 C226.675,89 226,89.717 226,90.594 C226,91.47 225.1,92.423 224,92.71 C222.583,93.081 222,94.074 222,96.117 C222,98.088 221.496,99 220.406,99 C219.53,99 218.577,99.9 218.29,101 C218.002,102.1 217.197,103 216.5,103 C215.803,103 214.998,103.9 214.71,105 C214.423,106.1 213.47,107 212.594,107 C211.717,107 211,107.675 211,108.5 C211,109.325 210.438,110.006 209.75,110.014 C209.063,110.021 207.488,110.299 206.25,110.63 C204.183,111.184 204,110.898 204,107.117 C204,103.667 204.324,103 206,103 C207.111,103 208,102.333 208,101.5 C208,100.675 208.675,100 209.5,100 C210.333,100 211,99.111 211,98 C211,96.667 211.667,96 213,96 C214.333,96 215,95.333 215,94 C215,92.9 215.639,92 216.421,92 C217.202,92 218.138,90.65 218.5,89 C218.862,87.35 219.798,86 220.579,86 C221.428,86 222,84.993 222,83.5 C222,81.979 222.57,81 223.455,81 C224.325,81 225.173,79.595 225.566,77.5 C225.942,75.495 226.816,74 227.611,74 C228.532,74 229,72.82 229,70.5 C229,68.056 228.548,67 227.5,67 C226.675,67 226,66.283 226,65.406 C226,64.53 225.1,63.577 224,63.29 C222.9,63.002 222,62.144 222,61.383 C222,60.469 220.813,60 218.5,60 C216.056,60 215,60.452 215,61.5 C215,62.333 214.111,63 213,63 C211.889,63 211,62.333 211,61.5 C211,60.452 209.944,60 207.5,60 C205.187,60 204,60.469 204,61.383 C204,63.241 200.848,63.97 192.75,63.986 C187.623,63.997 186,64.338 186,65.406 C186,66.499 183.753,66.889 175.928,67.156 C167.604,67.44 165.687,67.804 164.879,69.25 C164.093,70.655 162.53,71 156.95,71 C151.699,71 150,71.338 150,72.383 C150,73.144 149.1,74.002 148,74.29 C146.9,74.577 146,75.53 146,76.406 C146,77.333 145.163,78 144,78 C142.9,78 142,78.627 142,79.393 C142,80.159 141.325,81.045 140.5,81.362 C139.559,81.723 139,83.252 139,85.469 C139,88.333 139.378,89 141,89 C142.733,89 143,89.667 143,94 C143,97.639 143.384,99 144.412,99 C145.28,99 146.085,100.541 146.5,103 C146.915,105.459 147.72,107 148.588,107 C149.535,107 150,108.152 150,110.5 C150,113.333 150.381,114 152,114 C153.619,114 154,114.667 154,117.5 L154,121 L159,121 C162.545,121 164,120.605 164,119.642 C164,118.209 171.846,117 181.147,117 C184.794,117 186,116.627 186,115.5 C186,114.667 186.889,114 188,114 C189.111,114 190,114.667 190,115.5 C190,116.621 191.201,117.003 194.75,117.014 C202.649,117.036 204,117.727 204,121.744 L204,125.254 L198.792,124.754 C195.928,124.479 193.416,123.747 193.209,123.127 C192.651,121.453 190,121.762 190,123.5 C190,124.728 188.278,125 180.5,125 C172.722,125 171,125.272 171,126.5 C171,127.412 170.069,128 168.625,128 C164.12,128 160,129.254 160,130.625 C160,131.651 158.348,132 153.5,132 C148.652,132 147,132.349 147,133.375 C147,134.948 142.741,136 136.375,136 L132,136 L132,132 C132,128.667 132.333,128 134,128 C135.111,128 136,127.333 136,126.5 C136,125.367 137.222,125 141,125 L146,125 L146,121 C146,118.211 145.57,117 144.579,117 C143.798,117 142.871,115.688 142.518,114.084 C142.166,112.479 141.23,110.919 140.439,110.615 C139.563,110.279 139,108.681 139,106.531 C139,104.108 138.544,103 137.545,103 C136.675,103 135.827,101.595 135.434,99.5 C135.058,97.495 134.184,96 133.389,96 C132.372,96 132,94.526 132,90.5 C132,86.484 131.627,85 130.617,85 C129.041,85 128.034,82 128.014,77.25 C128.004,75.034 127.523,74 126.5,74 C125.31,74 125,72.556 125,67 C125,60.667 124.81,60 123,60 C121.194,60 121,59.333 121,53.111 L121,46.223 L124.5,45.566 C127.591,44.986 128,44.553 128,41.861 C128,39.654 128.552,38.668 130,38.29 C131.1,38.002 132,37.2 132,36.508 C132,35.237 136.254,34 140.625,34 C141.931,34 143,33.577 143,33.06 C143,32.544 144.688,31.944 146.75,31.728 Z M146,43.383 C146,44.899 143.032,45.965 138.75,45.986 C136.276,45.999 136,46.352 136,49.5 C136,52.333 135.619,53 134,53 C132.242,53 132,53.667 132,58.5 C132,62.722 132.348,64 133.5,64 C134.325,64 135,64.675 135,65.5 C135,66.652 136.278,67 140.5,67 C144.722,67 146,66.652 146,65.5 C146,64.588 146.931,64 148.375,64 C152.88,64 157,62.746 157,61.375 C157,60.296 159.258,60 167.5,60 C175.892,60 178,59.716 178,58.583 C178,57.804 177.542,57.014 176.982,56.827 C176.422,56.641 175.684,54.128 175.342,51.244 C174.771,46.421 174.512,45.999 172.111,45.986 C167.959,45.965 165,44.882 165,43.383 C165,42.303 162.922,42 155.5,42 C148.078,42 146,42.303 146,43.383 Z M184.25,81.704 C187.137,81.484 190.794,81.46 192.375,81.652 C193.956,81.843 196.266,82 197.508,82 C198.926,82 199.962,82.745 200.29,84 C200.577,85.1 201.53,86 202.406,86 C203.652,86 204,87.092 204,91 C204,94.6 203.611,96 202.611,96 C201.816,96 200.942,97.495 200.566,99.5 C200.186,101.528 199.318,103 198.504,103 C197.732,103 196.635,103.787 196.068,104.75 C195.168,106.276 194.908,106.308 194.034,105 C192.421,102.589 192.844,100.274 195,99.71 C196.532,99.31 197,98.346 197,95.594 C197,93.066 196.555,92 195.5,92 C194.675,92 194,91.325 194,90.5 C194,89.348 192.722,89 188.5,89 C184.401,89 183,89.364 183,90.428 C183,91.407 181.289,92.07 177.556,92.536 C172.584,93.157 172.056,93.468 171.476,96.108 C171.127,97.699 170.202,99 169.421,99 C168.43,99 168,100.211 168,103 C168,105.993 167.599,107 166.406,107 C165.53,107 164.577,106.1 164.29,105 C164.002,103.9 163.144,103 162.383,103 C161.373,103 161,101.516 161,97.5 C161,93.278 161.348,92 162.5,92 C163.325,92 164,91.325 164,90.5 C164,89.667 164.889,89 166,89 C167.333,89 168,88.333 168,87 C168,85.242 168.667,85 173.5,85 C177.634,85 179,84.64 179,83.552 C179,82.523 180.519,81.989 184.25,81.704 Z M53,177 C53,175.381 53.667,175 56.5,175 C59.333,175 60,175.381 60,177 C60,178.1 60.655,179 61.455,179 C62.325,179 63.173,180.405 63.566,182.5 C63.942,184.505 64.816,186 65.611,186 C66.375,186 67,186.9 67,188 C67,189.111 67.667,190 68.5,190 C69.325,190 70,190.717 70,191.594 C70,192.47 70.874,193.416 71.943,193.695 C73.073,193.991 74.152,195.416 74.522,197.102 C74.872,198.696 75.798,200 76.579,200 C77.361,200 78,200.9 78,202 C78,203.619 78.667,204 81.5,204 C84.833,204 85,204.167 85,207.5 L85,211 L79.5,211 C75.415,211 74,210.635 74,209.579 C74,208.798 72.679,207.869 71.065,207.514 C68.861,207.03 67.97,206.139 67.486,203.935 C67.131,202.321 66.202,201 65.421,201 C64.639,201 64,200.1 64,199 C64,197.667 63.333,197 62,197 C60.667,197 60,196.333 60,195 C60,193.9 59.345,193 58.545,193 C57.675,193 56.827,191.595 56.434,189.5 C55.864,186.459 55.398,186 52.889,186 C50.254,186 50,185.692 50,182.5 C50,180.056 50.452,179 51.5,179 C52.333,179 53,178.111 53,177 Z M107,177 C107,169.667 107.278,168 108.5,168 C109.325,168 110,168.675 110,169.5 C110,170.333 110.889,171 112,171 C113.606,171 114,171.667 114,174.383 C114,176.926 114.497,177.897 116,178.29 C117.532,178.69 118,179.654 118,182.406 C118,184.782 118.464,186 119.37,186 C120.258,186 120.924,187.635 121.264,190.651 C121.58,193.449 122.428,195.66 123.394,196.201 C124.385,196.755 125,198.421 125,200.55 C125,203.333 125.386,204 127,204 C128.619,204 129,204.667 129,207.5 C129,210.917 128.905,211 125,211 C121.667,211 121,210.667 121,209 C121,207.9 120.361,207 119.579,207 C118.798,207 117.862,205.65 117.5,204 C117.138,202.35 116.202,201 115.421,201 C114.43,201 114,199.789 114,197 C114,194.166 113.576,193 112.545,193 C111.675,193 110.827,191.595 110.434,189.5 C110.058,187.495 109.184,186 108.389,186 C107.307,186 107,184.013 107,177 Z M85,180.5 L85,175 L88.5,175 C91.333,175 92,175.381 92,177 C92,178.333 92.667,179 94,179 C95.727,179 96,179.667 96,183.883 C96,187.926 96.344,188.857 98,189.29 C99.456,189.671 100,190.654 100,192.906 C100,194.862 100.505,196 101.372,196 C102.2,196 102.998,197.587 103.384,200 C103.798,202.588 104.549,204 105.512,204 C106.546,204 107,205.068 107,207.5 C107,210.81 106.817,211 103.617,211 C101.074,211 100.103,210.503 99.71,209 C99.423,207.9 98.47,207 97.594,207 C96.504,207 96,206.088 96,204.117 C96,202.074 95.417,201.081 94,200.71 C92.468,200.31 92,199.346 92,196.594 C92,194.066 91.555,193 90.5,193 C89.452,193 89,191.944 89,189.5 C89,186.667 88.619,186 87,186 C85.242,186 85,185.333 85,180.5 Z"/>
</svg>

