<svg xmlns="http://www.w3.org/2000/svg" width="300" height="300" viewBox="0 0 300 300" version="1.1">
  <defs/>
  <path d="M127,53.5 C127,52.452 128.056,52 130.5,52 C132.944,52 134,52.452 134,53.5 C134,54.548 135.056,55 137.5,55 C140.036,55 141,55.439 141,56.594 C141,57.47 141.9,58.423 143,58.71 C145.509,59.366 145.964,66 143.5,66 C142.442,66 141.956,67.178 141.85,70 C141.767,72.2 141.655,74.563 141.6,75.25 C141.456,77.045 147.181,76.429 148.24,74.536 C148.884,73.385 150.84,73 156.05,73 C161.318,73 163,72.664 163,71.609 C163,70.55 165.618,70.048 174,69.5 C182.382,68.952 185,68.45 185,67.391 C185,66.291 187.2,66 195.5,66 C204.441,66 206,66.237 206,67.594 C206,68.47 206.9,69.423 208,69.71 C209.503,70.103 210,71.074 210,73.617 C210,75.957 210.462,77 211.5,77 C212.548,77 213,78.056 213,80.5 C213,82.944 212.548,84 211.5,84 C210.371,84 210,85.209 210,88.883 C210,92.926 209.656,93.857 208,94.29 C206.803,94.603 206,95.654 206,96.906 C206,98.101 205.356,99 204.5,99 C203.452,99 203,100.056 203,102.5 C203,104.896 202.541,106 201.545,106 C200.675,106 199.827,107.405 199.434,109.5 C199.058,111.505 198.184,113 197.389,113 C196.625,113 196,113.717 196,114.594 C196,115.47 195.1,116.423 194,116.71 C192.9,116.998 192,117.856 192,118.617 C192,119.377 191.1,120 190,120 C188.669,120 188,120.667 188,121.992 C188,123.904 188.471,123.958 199.803,123.348 C206.295,122.999 213.72,123.031 216.303,123.418 C220.565,124.057 220.999,124.372 220.986,126.811 C220.965,131.036 219.892,134 218.383,134 C217.623,134 217,134.9 217,136 C217,137.111 216.333,138 215.5,138 C214.445,138 214,139.066 214,141.594 C214,144.346 213.532,145.31 212,145.71 C210.583,146.081 210,147.074 210,149.117 C210,150.933 209.478,152 208.588,152 C207.72,152 206.915,153.541 206.5,156 C206.085,158.459 205.28,160 204.412,160 C203.5,160 203,161.096 203,163.094 C203,165.346 202.456,166.329 201,166.71 C199.9,166.998 199,167.856 199,168.617 C199,169.377 198.325,170 197.5,170 C196.667,170 196,170.889 196,172 C196,173.333 195.333,174 194,174 C192.381,174 192,174.667 192,177.5 C192,180.036 191.561,181 190.406,181 C189.53,181 188.577,181.9 188.29,183 C188.002,184.1 187.144,185 186.383,185 C185.469,185 185,186.187 185,188.5 C185,191.333 185.381,192 187,192 C188.1,192 189,192.655 189,193.455 C189,194.325 190.405,195.173 192.5,195.566 C194.505,195.942 196,196.816 196,197.611 C196,198.375 196.904,199 198.01,199 C199.115,199 200.79,199.9 201.732,201 C202.674,202.1 204.019,203 204.722,203 C205.425,203 206,203.625 206,204.389 C206,205.184 207.495,206.058 209.5,206.434 C211.595,206.827 213,207.675 213,208.545 C213,209.345 213.9,210 215,210 C216.1,210 217,210.625 217,211.389 C217,212.184 218.495,213.058 220.5,213.434 C222.595,213.827 224,214.675 224,215.545 C224,216.345 224.9,217 226,217 C227.1,217 228,217.655 228,218.455 C228,219.325 229.405,220.173 231.5,220.566 C233.505,220.942 235,221.816 235,222.611 C235,223.375 235.9,224 237,224 C238.333,224 239,224.667 239,226 C239,227.333 239.667,228 241,228 C242.333,228 243,228.667 243,230 C243,231.111 243.667,232 244.5,232 C245.325,232 246,232.675 246,233.5 C246,234.548 244.944,235 242.5,235 C240.056,235 239,234.548 239,233.5 C239,232.667 238.111,232 237,232 C235.667,232 235,231.333 235,230 C235,228.381 234.333,228 231.5,228 C229.18,228 228,227.532 228,226.611 C228,225.816 226.505,224.942 224.5,224.566 C222.405,224.173 221,223.325 221,222.455 C221,221.452 219.884,221 217.406,221 C214.654,221 213.69,220.532 213.29,219 C213.002,217.9 212.144,217 211.383,217 C210.623,217 210,216.325 210,215.5 C210,214.452 208.944,214 206.5,214 C203.667,214 203,213.619 203,212 C203,210.394 202.333,210 199.617,210 C197.074,210 196.103,209.503 195.71,208 C195.423,206.9 194.47,206 193.594,206 C192.717,206 192,205.325 192,204.5 C192,203.416 190.888,203 187.99,203 C185.218,203 183.452,202.383 182.268,201 C181.202,199.755 179.318,199 177.278,199 C174.667,199 174,199.407 174,201 C174,202.333 173.333,203 172,203 C170.889,203 170,203.667 170,204.5 C170,205.325 169.325,206 168.5,206 C167.477,206 166.996,207.034 166.986,209.25 C166.966,214 165.959,217 164.383,217 C163.623,217 163,217.675 163,218.5 C163,219.325 162.283,220 161.406,220 C160.53,220 159.577,220.9 159.29,222 C159.002,223.1 158.144,224 157.383,224 C156.623,224 156,224.9 156,226 C156,227.619 155.333,228 152.5,228 C150.056,228 149,228.452 149,229.5 C149,230.325 148.283,231 147.406,231 C146.53,231 145.577,231.9 145.29,233 C145.002,234.1 144.144,235 143.383,235 C142.623,235 142,235.717 142,236.594 C142,237.47 141.1,238.423 140,238.71 C138.893,239 138,240.074 138,241.117 C138,242.152 137.325,243 136.5,243 C135.675,243 135,243.675 135,244.5 C135,245.333 134.111,246 133,246 C131.667,246 131,246.667 131,248 C131,249.333 130.333,250 129,250 C127.242,250 127,249.333 127,244.5 C127,239.667 127.242,239 129,239 C130.333,239 131,238.333 131,237 C131,235.9 131.623,235 132.383,235 C133.144,235 134.002,234.1 134.29,233 C134.577,231.9 135.53,231 136.406,231 C137.283,231 138,230.325 138,229.5 C138,228.675 138.623,228 139.383,228 C140.144,228 141.002,227.1 141.29,226 C141.577,224.9 142.53,224 143.406,224 C144.521,224 145,223.07 145,220.906 C145,218.654 145.544,217.671 147,217.29 C149.814,216.554 149.522,214 146.625,214 C142.12,214 138,212.746 138,211.375 C138,210.47 136.803,210 134.5,210 C132.152,210 131,209.535 131,208.588 C131,207.72 129.459,206.915 127,206.5 C124.541,206.085 123,205.28 123,204.412 C123,203.457 121.834,203 119.4,203 L115.799,203 L116.026,211.75 C116.15,216.563 116.195,225.563 116.126,231.75 C116.022,241.027 115.737,243 114.5,243 C113.675,243 113,243.675 113,244.5 C113,245.325 112.377,246 111.617,246 C110.856,246 109.988,246.939 109.688,248.087 C109.334,249.439 108.501,250.051 107.321,249.824 C105.618,249.496 105.483,247.619 105.235,220.737 L104.969,192 L99.985,192 C95.667,192 95,192.267 95,194 C95,195.111 94.333,196 93.5,196 C92.675,196 92,196.675 92,197.5 C92,198.333 91.111,199 90,199 C88.667,199 88,199.667 88,201 C88,202.333 87.333,203 86,203 C84.667,203 84,203.667 84,205 C84,206.1 83.361,207 82.579,207 C81.798,207 80.862,208.35 80.5,210 C80.138,211.65 79.202,213 78.421,213 C77.639,213 77,213.9 77,215 C77,216.333 76.333,217 75,217 C73.667,217 73,217.667 73,219 C73,220.111 72.333,221 71.5,221 C70.452,221 70,222.056 70,224.5 C70,227.333 69.619,228 68,228 C66.667,228 66,228.667 66,230 C66,231.111 65.333,232 64.5,232 C63.675,232 63,232.675 63,233.5 C63,234.583 61.889,235 59,235 C55.095,235 55,234.917 55,231.5 C55,229.104 55.459,228 56.455,228 C57.325,228 58.173,226.595 58.566,224.5 C58.927,222.575 59.795,221 60.495,221 C61.194,221 62.002,220.1 62.29,219 C62.577,217.9 63.53,217 64.406,217 C65.333,217 66,216.163 66,215 C66,213.889 66.667,213 67.5,213 C68.325,213 69,212.325 69,211.5 C69,210.675 69.85,210 70.889,210 C72.255,210 72.959,209.033 73.434,206.5 C73.827,204.405 74.675,203 75.545,203 C76.345,203 77,202.1 77,201 C77,199.667 77.667,199 79,199 C80.111,199 81,198.333 81,197.5 C81,196.675 81.675,196 82.5,196 C83.333,196 84,195.111 84,194 C84,192.667 84.667,192 86,192 C87.111,192 88,191.333 88,190.5 C88,189.675 88.675,189 89.5,189 C90.325,189 91.008,188.213 91.017,187.25 C91.039,185.089 95.208,181 97.391,181 C98.333,181 99,180.171 99,179 C99,177.889 99.667,177 100.5,177 C101.325,177 102,176.325 102,175.5 C102,174.348 100.722,174 96.5,174 C92.278,174 91,173.652 91,172.5 C91,171.452 89.944,171 87.5,171 L84,171 L84,165 C84,160.333 84.333,159 85.5,159 C86.325,159 87,158.325 87,157.5 C87,156.417 88.111,156 91,156 C93.834,156 95,155.576 95,154.545 C95,153.675 96.405,152.827 98.5,152.434 C100.505,152.058 102,151.184 102,150.389 C102,149.625 102.675,149 103.5,149 C104.548,149 105,147.944 105,145.5 C105,143.056 104.548,142 103.5,142 C102.348,142 102,140.722 102,136.5 C102,132.5 102.375,131 103.375,131 C105.246,131 106,126.511 106,115.375 C106,107.708 106.273,106 107.5,106 C108.583,106 109,104.889 109,102 C109,98.151 109.123,98.001 112.25,98.014 C118.238,98.039 120,98.971 120,102.117 C120,104.013 119.487,105 118.5,105 C117.324,105 117,106.375 117,111.375 C117,119.634 116.092,124 114.375,124 C113.619,124 113,124.675 113,125.5 C113,126.325 113.689,127 114.531,127 C115.374,127 116.322,127.675 116.638,128.5 C117.073,129.633 118.902,130 124.107,130 C127.898,130 131,129.57 131,129.045 C131,127.657 137.429,126.67 141.5,127.434 C144.698,128.034 145,128.389 145,131.545 C145,134.333 144.614,135 143,135 C141.889,135 141,135.667 141,136.5 C141,137.325 140.325,138 139.5,138 C138.675,138 138,137.325 138,136.5 C138,135.667 137.111,135 136,135 C134.889,135 134,135.667 134,136.5 C134,137.722 132.333,138 125,138 C116.667,138 116,138.148 116,140 C116,141.111 115.333,142 114.5,142 C113.675,142 113,142.675 113,143.5 C113,144.738 114.833,145 123.5,145 C131.968,145 134,144.722 134,143.561 C134,141.908 141.596,140.42 144.816,141.442 C147.606,142.327 152,141.073 152,139.392 C152,138.626 152.9,138 154,138 C155.1,138 156,137.377 156,136.617 C156,135.101 158.968,134.035 163.25,134.014 C164.908,134.005 166,133.455 166,132.627 C166,131.71 167.666,131.094 171.022,130.772 C173.784,130.507 176.312,130.021 176.639,129.694 C176.967,129.367 177.465,127.052 177.747,124.549 C178.078,121.614 178.746,120 179.63,120 C180.384,120 181,119.325 181,118.5 C181,117.675 181.717,117 182.594,117 C183.47,117 184.423,116.1 184.71,115 C184.998,113.9 185.856,113 186.617,113 C187.377,113 188,112.1 188,111 C188,109.667 188.667,109 190,109 C191.619,109 192,108.333 192,105.5 C192,103.104 192.459,102 193.455,102 C194.325,102 195.173,100.595 195.566,98.5 C195.942,96.495 196.816,95 197.611,95 C198.534,95 199,93.815 199,91.469 C199,89.252 199.559,87.723 200.5,87.362 C201.355,87.034 202,85.542 202,83.893 C202,81.988 201.488,81 200.5,81 C199.667,81 199,80.111 199,79 C199,77.107 198.333,77 186.5,77 C176.056,77 174,77.247 174,78.5 C174,79.642 172.746,80.002 168.75,80.009 C159.745,80.024 153,81.15 153,82.639 C153,83.636 151.394,84 147,84 C142.558,84 141,84.359 141,85.383 C141,87.103 137.923,87.969 131.75,87.986 C128.201,87.997 127,88.379 127,89.5 C127,90.686 125.58,91 120.222,91 C114.682,91 113.132,91.365 111.732,93 C110.548,94.383 108.782,95 106.01,95 C103.255,95 102,95.435 102,96.389 C102,97.184 100.505,98.058 98.5,98.434 C96.405,98.827 95,99.675 95,100.545 C95,101.345 94.377,102 93.617,102 C92.856,102 91.998,102.9 91.71,104 C91.423,105.1 90.47,106 89.594,106 C88.667,106 88,105.163 88,104 C88,102.39 87.333,102 84.585,102 L81.171,102 L80.479,109.379 C80.099,113.437 80.096,118.162 80.473,119.879 C81.046,122.487 81.629,123 84.02,123 C85.594,123 87.147,123.429 87.472,123.954 C88.437,125.516 86.895,130 85.392,130 C84.626,130 84,130.9 84,132 C84,133.619 83.333,134 80.5,134 C78.187,134 77,133.531 77,132.617 C77,131.856 76.1,130.998 75,130.71 C73.096,130.212 73,129.346 73,112.643 C73,97.575 73.227,94.973 74.606,94.201 C75.572,93.66 76.42,91.449 76.736,88.651 L77.26,84 L86.13,84 C94.496,84 95,84.12 95,86.117 C95,87.824 95.435,88.117 97.25,87.63 C98.487,87.299 100.737,87.021 102.25,87.014 C104.022,87.005 105,86.466 105,85.5 C105,84.348 106.278,84 110.5,84 C114.575,84 116,83.633 116,82.585 C116,81.554 118.032,80.98 123.5,80.468 C128.878,79.964 131,79.374 131,78.383 C131,77.622 131.675,77 132.5,77 C133.688,77 134,75.571 134,70.139 L134,63.279 L128.864,62.67 C126.04,62.336 123.562,61.895 123.357,61.691 C122.439,60.772 124.395,55 125.625,55 C126.381,55 127,54.325 127,53.5 Z M195,132.5 C195,133.575 193.903,134 191.125,134 C185.228,134 181,135.096 181,136.625 C181,137.608 179.576,138 176,138 C172.361,138 171,138.384 171,139.412 C171,140.28 169.459,141.085 167,141.5 C164.541,141.915 163,142.72 163,143.588 C163,144.365 162.325,145 161.5,145 C160.675,145 160,145.717 160,146.594 C160,147.47 159.1,148.423 158,148.71 C156.497,149.103 156,150.074 156,152.617 C156,155.333 155.606,156 154,156 C152.667,156 152,156.667 152,158 C152,159.619 151.333,160 148.5,160 C145.083,160 145,159.905 145,156 C145,154.453 145.036,153.436 144.558,152.813 C143.62,151.589 140.703,151.882 131.651,152.647 C126.204,153.107 124,153.683 124,154.647 C124,155.391 123.1,156 122,156 C120.394,156 120,156.667 120,159.383 C120,161.926 119.503,162.897 118,163.29 C116.33,163.726 116,164.654 116,168.906 C116,172.767 115.637,174 114.5,174 C113.278,174 113,175.667 113,183 L113,192 L116.5,192 C118.908,192 120,192.457 120,193.466 C120,194.469 121.576,195.14 125,195.594 C127.963,195.988 130,196.764 130,197.501 C130,198.185 131.8,199.032 134,199.384 C136.588,199.798 138,200.549 138,201.512 C138,202.546 139.068,203 141.5,203 C143.785,203 145,203.472 145,204.361 C145,205.243 146.714,205.924 149.878,206.299 C155.673,206.985 159,206.287 159,204.383 C159,203.623 159.9,203 161,203 C162.333,203 163,202.333 163,201 C163,199.667 163.667,199 165,199 C166.619,199 167,198.333 167,195.5 C167,193.056 166.548,192 165.5,192 C164.675,192 164,191.283 164,190.406 C164,189.53 163.1,188.577 162,188.29 C160.9,188.002 160,187.144 160,186.383 C160,185.469 158.813,185 156.5,185 C153.964,185 153,184.561 153,183.406 C153,182.53 152.1,181.577 151,181.29 C149.9,181.002 149,180.13 149,179.352 C149,178.574 148.325,177.678 147.5,177.362 C146.675,177.045 146,176.159 146,175.393 C146,174.627 146.675,174 147.5,174 C148.333,174 149,173.111 149,172 C149,170.262 149.667,170 154.094,170 C158.346,170 159.274,170.33 159.71,172 C159.998,173.1 160.856,174 161.617,174 C162.377,174 163,174.623 163,175.383 C163,176.144 163.9,177.002 165,177.29 C166.1,177.577 167,178.53 167,179.406 C167,180.333 167.837,181 169,181 C170.1,181 171,181.626 171,182.392 C171,183.895 175.484,185.437 177.046,184.472 C177.571,184.147 178,183.234 178,182.441 C178,181.648 178.675,181 179.5,181 C180.548,181 181,179.944 181,177.5 C181,174.667 181.381,174 183,174 C184.333,174 185,173.333 185,172 C185,170.9 185.623,170 186.383,170 C187.144,170 188.002,169.1 188.29,168 C188.577,166.9 189.53,166 190.406,166 C191.51,166 192,165.078 192,163 C192,161.107 192.512,160 193.389,160 C194.184,160 195.058,158.505 195.434,156.5 C195.827,154.405 196.675,153 197.545,153 C198.345,153 199,152.086 199,150.969 C199,149.851 199.663,148.683 200.473,148.372 C201.283,148.061 202.233,146.275 202.584,144.403 C202.946,142.473 203.823,141 204.611,141 C205.456,141 206.005,139.923 206.014,138.25 C206.021,136.738 206.299,134.488 206.63,133.25 C207.207,131.096 206.972,131 201.117,131 C196.346,131 195,131.33 195,132.5 Z"/>
</svg>

