<svg xmlns="http://www.w3.org/2000/svg" width="300" height="300" viewBox="0 0 300 300" version="1.1">
  <defs/>
  <path d="M84,73 C84,71.178 84.667,71 91.5,71 C97.5,71 99,71.3 99,72.5 C99,73.325 99.675,74 100.5,74 C101.333,74 102,74.889 102,76 C102,77.758 101.333,78 96.5,78 C91.667,78 91,78.242 91,80 C91,81.111 90.333,82 89.5,82 C88.452,82 88,83.056 88,85.5 L88,89 L104,89 C116.956,89 120,88.737 120,87.617 C120,85.538 123.28,85.029 136.75,85.014 C146.966,85.002 149,84.751 149,83.5 C149,82.354 150.26,82 154.344,82 C167.834,82 181,80.69 181,79.348 C181,78.256 185.455,78 204.5,78 L228,78 L228,83.5 C228,87.646 227.642,89 226.545,89 C225.675,89 224.827,90.405 224.434,92.5 C224.058,94.505 223.184,96 222.389,96 C221.625,96 221,96.9 221,98 C221,99.333 220.333,100 219,100 C217.667,100 217,100.667 217,102 C217,103.111 216.333,104 215.5,104 C214.675,104 214,104.675 214,105.5 C214,106.333 213.111,107 212,107 C210.667,107 210,107.667 210,109 C210,110.111 209.333,111 208.5,111 C207.675,111 207,111.675 207,112.5 C207,113.333 206.111,114 205,114 C203.667,114 203,114.667 203,116 C203,117.333 202.333,118 201,118 C199.889,118 199,118.667 199,119.5 C199,120.333 198.111,121 197,121 C195.9,121 195,121.655 195,122.455 C195,123.332 193.577,124.176 191.417,124.582 C188.375,125.152 187.919,125.575 188.403,127.377 C188.716,128.545 188.979,130.063 188.986,130.75 C188.995,131.582 190.674,132 194,132 C197.778,132 199,132.367 199,133.5 C199,134.722 200.667,135 208,135 C215.333,135 217,134.722 217,133.5 C217,132.417 218.111,132 221,132 C223.889,132 225,132.417 225,133.5 C225,134.325 225.675,135 226.5,135 C227.333,135 228,135.889 228,137 C228,138.1 227.377,139 226.617,139 C225.856,139 224.998,139.9 224.71,141 C224.238,142.804 223.346,143 215.594,143 C208.622,143 207,143.283 207,144.5 C207,145.684 205.577,146.003 200.25,146.014 C192.152,146.03 189,146.759 189,148.617 C189,149.627 187.516,150 183.5,150 L178,150 L177.826,155.75 C177.73,158.912 177.792,179.863 177.963,202.308 L178.276,243.115 L176.138,243.674 C174.485,244.106 174,245.002 174,247.617 C174,250.817 173.81,251 170.5,251 C168.22,251 167,251.473 167,252.357 C167,253.347 164.596,253.894 158.102,254.385 C147.964,255.15 141,254.363 141,252.452 C141,251.741 139.688,250.871 138.084,250.518 C136.479,250.166 134.919,249.23 134.615,248.439 C134.311,247.648 133.374,247 132.531,247 C131.689,247 131,246.325 131,245.5 C131,244.667 130.111,244 129,244 C127.667,244 127,243.333 127,242 C127,240.667 126.333,240 125,240 C123.889,240 123,239.333 123,238.5 C123,237.675 122.325,237 121.5,237 C120.675,237 120,236.152 120,235.117 C120,234.074 119.107,233 118,232.71 C116.237,232.249 116,231.346 116,225.094 C116,218.667 116.188,218 118,218 C119.333,218 120,217.333 120,216 C120,214.889 120.667,214 121.5,214 C122.325,214 123,213.325 123,212.5 C123,211.667 123.889,211 125,211 C126.1,211 127,210.381 127,209.625 C127,208.254 131.12,207 135.625,207 C137.069,207 138,206.412 138,205.5 C138,204.262 139.833,204 148.5,204 C156.226,204 159.004,204.33 159.014,205.25 C159.021,205.938 159.299,207.512 159.63,208.75 C160.217,210.939 160.027,211 152.617,211 C146.798,211 145,211.327 145,212.383 C145,214.093 141.929,214.968 135.867,214.986 C132.081,214.998 131.138,215.366 130.71,217 C130.423,218.1 129.47,219 128.594,219 C127.717,219 127,219.675 127,220.5 C127,221.325 126.325,222 125.5,222 C124.452,222 124,223.056 124,225.5 C124,227.944 124.452,229 125.5,229 C126.333,229 127,229.889 127,231 C127,232.1 127.655,233 128.455,233 C129.325,233 130.173,234.405 130.566,236.5 C131.163,239.682 131.53,240 134.611,240 C137.333,240 138,240.393 138,242 C138,243.333 138.667,244 140,244 C141.111,244 142,244.667 142,245.5 C142,246.738 143.833,247 152.5,247 C160.773,247 163,246.707 163,245.617 C163,244.856 163.9,243.998 165,243.71 C166.456,243.329 167,242.346 167,240.094 C167,238.01 167.49,237 168.5,237 C169.756,237 170,234.889 170,224 C170,213.111 169.756,211 168.5,211 C167.202,211 167,207.167 167,182.5 L167,154 L156.5,154 C148.135,154 146,154.286 146,155.409 C146,156.511 143.694,156.892 135.428,157.159 C126.624,157.443 124.693,157.793 123.879,159.25 C123.061,160.713 121.435,161 113.95,161 C106.661,161 105,161.278 105,162.5 C105,163.69 103.556,164 98,164 C91.667,164 91,164.19 91,166 C91,167.758 90.333,168 85.5,168 C81.278,168 80,168.348 80,169.5 C80,170.495 79.005,171 77.045,171 C74.491,171 74.006,170.55 73.468,167.683 C73.126,165.858 72.993,162.821 73.173,160.933 C73.465,157.872 73.852,157.466 76.75,157.187 C78.581,157.01 80,156.308 80,155.579 C80,154.215 88.075,153 97.147,153 C100.794,153 102,152.627 102,151.5 C102,150.258 103.889,150 113,150 C121.581,150 124,149.702 124,148.647 C124,147.262 133.607,146 144.151,146 C147.795,146 149,145.627 149,144.5 C149,143.278 150.667,143 158,143 L167,143 L167,134.117 C167,126.074 167.189,125.184 169,124.71 C170.1,124.423 171,123.47 171,122.594 C171,121.287 172.262,121 178,121 C183.459,121 185,120.68 185,119.545 C185,118.675 186.405,117.827 188.5,117.434 C190.505,117.058 192,116.184 192,115.389 C192,114.625 192.9,114 194,114 C195.333,114 196,113.333 196,112 C196,110.667 196.667,110 198,110 C199.111,110 200,109.333 200,108.5 C200,107.675 200.675,107 201.5,107 C202.333,107 203,106.111 203,105 C203,103.667 203.667,103 205,103 C206.111,103 207,102.333 207,101.5 C207,100.675 207.675,100 208.5,100 C209.333,100 210,99.111 210,98 C210,96.889 210.667,96 211.5,96 C212.325,96 213,95.283 213,94.406 C213,93.53 213.9,92.577 215,92.29 C216.407,91.922 217,90.926 217,88.929 C217,86.483 216.522,86.001 213.538,85.441 C207.373,84.285 193.037,85.322 192,87 C191.277,88.171 188.325,88.577 178.537,88.853 C168.638,89.131 166,89.5 166,90.603 C166,91.678 164.216,92.001 158.25,92.006 C144.447,92.017 134,93.155 134,94.648 C134,95.712 131.335,96 121.5,96 C111.056,96 109,96.247 109,97.5 C109,98.538 107.845,99.05 105.25,99.162 C103.188,99.252 100.15,99.393 98.5,99.476 C96.85,99.559 93.813,99.711 91.75,99.813 C89.306,99.935 88,100.484 88,101.389 C88,102.175 86.532,103.053 84.614,103.413 C81.266,104.041 81.22,104.122 80.519,110.665 C80.13,114.304 79.966,121.374 80.155,126.376 C80.54,136.523 80.305,136.843 73.4,135.547 C70.027,134.914 70,134.866 70,129.455 C70,125.273 70.35,124 71.5,124 C72.762,124 73,121.778 73,110 C73,96.667 73.095,96 75,96 C76.758,96 77,95.333 77,90.5 C77,86.278 77.348,85 78.5,85 C79.466,85 80.005,84.022 80.014,82.25 C80.035,77.968 81.101,75 82.617,75 C83.377,75 84,74.1 84,73 Z M112.736,50.651 L113.26,46 L120.13,46 C125.57,46 127,46.312 127,47.5 C127,48.652 128.278,49 132.5,49 C136.646,49 138,49.358 138,50.455 C138,51.325 139.405,52.173 141.5,52.566 C144.682,53.163 145,53.53 145,56.611 C145,58.873 145.473,60 146.421,60 C147.203,60 148.154,61.426 148.539,63.177 C149.071,65.598 148.824,66.656 147.502,67.622 C146.476,68.373 145.557,70.753 145.253,73.446 C144.288,82.011 141,77.705 141,67.875 C141,65.097 140.575,64 139.5,64 C138.667,64 138,63.111 138,62 C138,60.092 137.333,60 123.5,60 C111.499,60 109,59.75 109,58.55 C109,57.752 109.723,56.695 110.606,56.201 C111.572,55.66 112.42,53.449 112.736,50.651 Z M181,134 C181,135.111 180.333,136 179.5,136 C178.675,136 178,136.675 178,137.5 C178,138.655 179.291,139 183.617,139 C188.953,139 189.203,138.888 188.63,136.75 C188.299,135.512 188.021,133.938 188.014,133.25 C188.005,132.491 186.626,132 184.5,132 C181.667,132 181,132.381 181,134 Z"/>
</svg>

