<svg xmlns="http://www.w3.org/2000/svg" width="300" height="300" viewBox="0 0 300 300" version="1.1">
  <defs/>
  <path d="M148,49.383 C148,48.436 149.261,48 152,48 C154.889,48 156,48.417 156,49.5 C156,50.333 156.889,51 158,51 C159.111,51 160,50.333 160,49.5 C160,48.239 162.208,48 173.875,48 L187.75,48 L188.292,50.75 C188.59,52.263 188.586,54.78 188.282,56.344 L187.731,59.189 L179.115,58.877 C174.377,58.705 167.238,58.663 163.25,58.782 C156.739,58.978 156,59.204 156,61 C156,62.1 155.377,63 154.617,63 C153.041,63 152.034,66 152.014,70.75 C152.004,72.966 151.523,74 150.5,74 C149.675,74 149,74.45 149,75 C149,75.55 149.675,76 150.5,76 C151.433,76 152,76.944 152,78.5 C152,80.056 151.433,81 150.5,81 C149.675,81 149,81.675 149,82.5 C149,83.742 150.889,84 160,84 C168.769,84 171,83.716 171,82.598 C171,81.63 172.841,80.983 176.947,80.506 C183.246,79.775 185,80.222 185,82.559 C185,83.352 185.675,84 186.5,84 C187.548,84 188,85.056 188,87.5 L188,91 L177.75,91.014 C166.243,91.029 163,91.601 163,93.617 C163,94.627 161.516,95 157.5,95 L152,95 L152,98.5 C152,101.71 151.755,102 149.045,102 C146.46,102 146.008,102.438 145.434,105.5 C145.058,107.505 144.184,109 143.389,109 C142.625,109 142,109.9 142,111 C142,112.619 142.667,113 145.5,113 C148.333,113 149,112.619 149,111 C149,109.148 149.667,109 158,109 C165.333,109 167,108.722 167,107.5 C167,106.452 168.056,106 170.5,106 C172.813,106 174,106.469 174,107.383 C174,108.144 174.9,109.002 176,109.29 C177.456,109.671 178,110.654 178,112.906 C178,115.775 178.254,116 181.5,116 C183.944,116 185,115.548 185,114.5 C185,113.367 186.222,113 190,113 C193.908,113 195,112.652 195,111.406 C195,110.53 195.9,109.577 197,109.29 C198.1,109.002 199,108.194 199,107.495 C199,106.795 200.575,105.927 202.5,105.566 C204.595,105.173 206,104.325 206,103.455 C206,102.459 207.104,102 209.5,102 C211.82,102 213,102.468 213,103.389 C213,104.176 214.471,105.053 216.398,105.415 C218.933,105.891 219.957,106.692 220.429,108.572 C221.161,111.491 220.484,113 218.441,113 C217.648,113 217,113.675 217,114.5 C217,115.637 215.767,116 211.906,116 C207.654,116 206.726,116.33 206.29,118 C205.897,119.503 204.926,120 202.383,120 C199.103,120 199,120.122 199,124 C199,126.889 198.583,128 197.5,128 C196.367,128 196,129.222 196,133 C196,136.778 196.367,138 197.5,138 C198.325,138 199,138.675 199,139.5 C199,140.76 201.201,141.002 212.75,141.014 C227.696,141.028 231,141.5 231,143.617 C231,144.377 231.9,145 233,145 C234.619,145 235,145.667 235,148.5 C235,150.944 234.548,152 233.5,152 C232.667,152 232,152.889 232,154 C232,155.333 231.333,156 230,156 C228.667,156 228,155.333 228,154 C228,152.667 227.333,152 226,152 C224.889,152 224,151.333 224,150.5 C224,149.31 222.556,149 217,149 C211.444,149 210,149.31 210,150.5 C210,151.7 208.5,152 202.5,152 C196.5,152 195,151.7 195,150.5 C195,149.278 193.333,149 186,149 C178.667,149 177,149.278 177,150.5 C177,151.51 175.99,152 173.906,152 C171.654,152 170.671,152.544 170.29,154 C169.857,155.656 168.926,156 164.883,156 C161.407,156 160,156.396 160,157.375 C160,158.746 155.88,160 151.375,160 C149.931,160 149,160.588 149,161.5 C149,162.721 147.346,163 140.111,163 L131.223,163 L130.566,159.5 C130.173,157.405 129.325,156 128.455,156 C126.255,156 126.332,135.473 128.536,134.24 C130.859,132.94 130.945,127.67 128.65,127.197 C125.421,126.53 120,128.002 120,129.545 C120,130.532 118.911,131 116.617,131 C113.722,131 113.156,130.603 112.7,128.25 C112.406,126.737 112.41,124.263 112.708,122.75 C113.208,120.211 113.615,120 118.008,120 C121.926,120 122.859,119.647 123.29,118 C123.726,116.33 124.654,116 128.906,116 C133.793,116 134.001,115.888 134.014,113.25 C134.035,108.968 135.101,106 136.617,106 C137.377,106 138,105.1 138,104 C138,102.667 138.667,102 140,102 C141.333,102 142,101.333 142,100 C142,98.889 142.667,98 143.5,98 C144.325,98 145,97.325 145,96.5 C145,95.675 144.353,95 143.561,95 C141.47,95 140.605,87.443 141.366,75.829 L142.01,66 L136.505,66 C132.474,66 131,66.372 131,67.389 C131,68.176 129.53,69.053 127.607,69.414 C124.704,69.959 124.119,70.553 123.561,73.525 C122.86,77.263 120,78.447 120,75 C120,73.9 119.377,73 118.617,73 C117.089,73 116.035,70.026 116.014,65.656 C116.004,63.647 116.587,62.659 118,62.29 C119.1,62.002 120,61.144 120,60.383 C120,59.469 121.187,59 123.5,59 C126.333,59 127,58.619 127,57 C127,55.242 127.667,55 132.5,55 C136.722,55 138,54.652 138,53.5 C138,52.534 138.978,51.995 140.75,51.986 C145.032,51.965 148,50.899 148,49.383 Z M206,175.385 C206,174.337 207.703,174 213,174 C218.556,174 220,174.31 220,175.5 C220,176.325 219.6,177 219.111,177 C218.623,177 217.936,178.525 217.587,180.39 C217.173,182.596 216.261,183.96 214.975,184.296 C213.889,184.58 213,185.494 213,186.327 C213,187.196 211.722,188.122 210,188.5 C208.35,188.862 207,189.798 207,190.579 C207,191.361 206.1,192 205,192 C203.667,192 203,192.667 203,194 C203,195.333 202.333,196 201,196 C199.889,196 199,196.667 199,197.5 C199,198.325 198.325,199 197.5,199 C196.667,199 196,199.889 196,201 C196,202.333 195.333,203 194,203 C192.667,203 192,203.667 192,205 C192,206.333 191.333,207 190,207 C188.889,207 188,207.667 188,208.5 C188,209.325 187.377,210 186.617,210 C185.856,210 184.998,210.9 184.71,212 C184.423,213.1 183.47,214 182.594,214 C181.717,214 181,214.675 181,215.5 C181,216.325 180.283,217 179.406,217 C178.53,217 177.577,217.9 177.29,219 C177.002,220.1 176.144,221 175.383,221 C172.422,221 174.151,223.806 177.5,224.434 C179.595,224.827 181,225.675 181,226.545 C181,227.345 181.9,228 183,228 C184.333,228 185,228.667 185,230 C185,231.333 185.667,232 187,232 C188.111,232 189,232.667 189,233.5 C189,234.548 190.056,235 192.5,235 C195.333,235 196,235.381 196,237 C196,238.619 196.667,239 199.5,239 C201.798,239 203,239.471 203,240.371 C203,242.335 213.206,243.287 225.166,242.44 C232.491,241.92 235,241.393 235,240.371 C235,239.464 236.216,239 238.594,239 C241.346,239 242.31,238.532 242.71,237 C243.081,235.583 244.074,235 246.117,235 C248.013,235 249,234.487 249,233.5 C249,232.667 249.889,232 251,232 C252.333,232 253,231.333 253,230 C253,228.381 253.667,228 256.5,228 C259.333,228 260,227.619 260,226 C260,224.667 260.667,224 262,224 C263.333,224 264,223.333 264,222 C264,220.889 264.667,220 265.5,220 C266.325,220 267,219.325 267,218.5 C267,217.675 267.85,217 268.889,217 C270.255,217 270.959,216.033 271.434,213.5 C271.827,211.405 272.675,210 273.545,210 C274.345,210 275,209.345 275,208.545 C275,207.675 276.405,206.827 278.5,206.434 C280.505,206.058 282,205.184 282,204.389 C282,203.625 282.675,203 283.5,203 C284.333,203 285,203.889 285,205 C285,206.111 284.333,207 283.5,207 C282.452,207 282,208.056 282,210.5 C282,212.857 281.536,214 280.579,214 C279.798,214 278.869,215.321 278.514,216.935 C278.032,219.13 277.138,220.03 274.967,220.507 C272.64,221.018 271.936,221.825 271.42,224.572 C271.055,226.522 270.178,228 269.389,228 C268.625,228 268,228.717 268,229.594 C268,230.47 267.1,231.423 266,231.71 C264.9,231.998 264,232.806 264,233.505 C264,234.205 262.425,235.073 260.5,235.434 C258.405,235.827 257,236.675 257,237.545 C257,238.345 256.1,239 255,239 C253.889,239 253,239.667 253,240.5 C253,241.325 252.283,242 251.406,242 C250.53,242 249.577,242.9 249.29,244 C248.897,245.503 247.926,246 245.383,246 C242.667,246 242,246.394 242,248 C242,249.81 241.333,250 235,250 C229.444,250 228,250.31 228,251.5 C228,252.742 226.111,253 217,253 C207.889,253 206,252.742 206,251.5 C206,250.363 204.767,250 200.906,250 C196.654,250 195.726,249.67 195.29,248 C194.919,246.583 193.926,246 191.883,246 C190.09,246 189,245.475 189,244.611 C189,243.816 187.505,242.942 185.5,242.566 C183.405,242.173 182,241.325 182,240.455 C182,239.655 181.1,239 180,239 C178.837,239 178,238.333 178,237.406 C178,236.53 177.1,235.577 176,235.29 C174.9,235.002 174,234.144 174,233.383 C174,232.469 172.813,232 170.5,232 C168.056,232 167,232.452 167,233.5 C167,234.333 166.111,235 165,235 C163.667,235 163,235.667 163,237 C163,238.333 162.333,239 161,239 C159.889,239 159,239.667 159,240.5 C159,241.325 158.325,242 157.5,242 C156.667,242 156,242.889 156,244 C156,245.619 155.333,246 152.5,246 C149.194,246 149,246.187 149,249.361 C149,252.637 148.877,252.736 144.122,253.299 C141.44,253.617 138.29,253.627 137.122,253.322 C134.714,252.692 134.21,250 136.5,250 C137.548,250 138,248.944 138,246.5 C138,243.964 138.439,243 139.594,243 C140.47,243 141.423,242.1 141.71,241 C141.998,239.9 142.856,239 143.617,239 C144.377,239 145,238.283 145,237.406 C145,236.53 145.9,235.577 147,235.29 C148.1,235.002 149,234.165 149,233.429 C149,232.691 150.571,231.796 152.5,231.434 C155.525,230.866 156,230.392 156,227.934 C156,225.493 156.48,225 159.393,224.454 C162.134,223.94 162.899,223.254 163.372,220.888 C163.825,218.623 164.644,217.821 166.979,217.354 C168.695,217.011 170,216.115 170,215.281 C170,214.474 170.9,213.577 172,213.29 C173.1,213.002 174,212.144 174,211.383 C174,210.623 174.623,210 175.383,210 C176.144,210 177.002,209.1 177.29,208 C177.577,206.9 178.53,206 179.406,206 C180.283,206 181,205.325 181,204.5 C181,203.675 181.717,203 182.594,203 C183.47,203 184.423,202.1 184.71,201 C184.998,199.9 185.856,199 186.617,199 C187.377,199 188,198.325 188,197.5 C188,196.667 188.889,196 190,196 C191.333,196 192,195.333 192,194 C192,192.889 192.667,192 193.5,192 C194.325,192 195,191.325 195,190.5 C195,189.452 193.944,189 191.5,189 C189.056,189 188,189.452 188,190.5 C188,191.548 186.944,192 184.5,192 C182.187,192 181,192.469 181,193.383 C181,194.899 178.032,195.965 173.75,195.986 C172.093,195.995 171,196.545 171,197.372 C171,198.2 169.413,198.998 167,199.384 C164.412,199.798 163,200.549 163,201.512 C163,202.546 161.932,203 159.5,203 C157.18,203 156,203.468 156,204.389 C156,205.184 154.505,206.058 152.5,206.434 C150.405,206.827 149,207.675 149,208.545 C149,209.71 147.209,210 140,210 C132.667,210 131,210.278 131,211.5 C131,212.333 130.111,213 129,213 C127.273,213 127,212.333 127,208.111 C127,203.316 127.067,203.21 130.5,202.566 C132.595,202.173 134,201.325 134,200.455 C134,199.358 135.354,199 139.5,199 C143.722,199 145,198.652 145,197.5 C145,196.588 145.931,196 147.375,196 C151.88,196 156,194.746 156,193.375 C156,192.375 157.5,192 161.5,192 C165.516,192 167,191.627 167,190.617 C167,189.101 169.968,188.035 174.25,188.014 C176.022,188.005 177,187.466 177,186.5 C177,185.417 178.111,185 181,185 C183.739,185 185,184.564 185,183.617 C185,182.101 187.968,181.035 192.25,181.014 C193.96,181.005 195,180.46 195,179.572 C195,178.591 196.722,177.929 200.5,177.457 C204.188,176.996 206,176.313 206,175.385 Z M44.63,86.25 C45.105,84.479 45.953,84 48.617,84 C50.957,84 52,84.462 52,85.5 C52,86.325 52.675,87 53.5,87 C54.583,87 55,88.111 55,91 C55,93.889 54.583,95 53.5,95 C52.348,95 52,96.278 52,100.5 C52,105.333 51.758,106 50,106 C48.381,106 48,106.667 48,109.5 C48,111.896 47.541,113 46.545,113 C45.675,113 44.827,114.405 44.434,116.5 C44.058,118.505 43.184,120 42.389,120 C41.468,120 41,121.18 41,123.5 C41,126.333 40.619,127 39,127 C37.381,127 37,127.667 37,130.5 C37,132.944 36.548,134 35.5,134 C34.667,134 34,134.889 34,136 C34,137.333 33.333,138 32,138 C30.394,138 30,138.667 30,141.383 C30,143.982 29.512,144.894 27.895,145.317 C26.737,145.62 25.985,146.46 26.224,147.184 C26.513,148.057 28.933,148.6 33.411,148.798 C39.504,149.066 40.215,148.895 40.698,147.048 C41.104,145.493 42.048,145 44.617,145 C46.957,145 48,144.538 48,143.5 C48,142.534 48.978,141.995 50.75,141.986 C55.032,141.965 58,140.899 58,139.383 C58,138.574 59.038,138 60.5,138 C62.021,138 63,137.43 63,136.545 C63,135.675 64.405,134.827 66.5,134.434 C68.425,134.073 70,133.188 70,132.468 C70,131.748 71.312,130.871 72.916,130.518 C74.521,130.166 76.081,129.23 76.385,128.439 C76.721,127.563 78.319,127 80.469,127 C83.815,127 84,127.178 84,130.383 C84,132.926 83.503,133.897 82,134.29 C80.9,134.577 80,135.53 80,136.406 C80,137.283 79.325,138 78.5,138 C77.667,138 77,138.889 77,140 C77,141.333 76.333,142 75,142 C73.889,142 73,142.667 73,143.5 C73,144.325 72.325,145 71.5,145 C70.675,145 70,145.717 70,146.594 C70,147.47 69.1,148.423 68,148.71 C66.9,148.998 66,149.856 66,150.617 C66,151.377 65.283,152 64.406,152 C63.53,152 62.577,152.9 62.29,154 C62.002,155.1 61.144,156 60.383,156 C59.623,156 59,156.9 59,158 C59,159.333 58.333,160 57,160 C55.889,160 55,160.667 55,161.5 C55,162.325 54.325,163 53.5,163 C52.675,163 51.994,163.563 51.986,164.25 C51.979,164.938 51.701,166.512 51.37,167.75 C50.783,169.939 50.973,170 58.383,170 C64.487,170 66,169.702 66,168.5 C66,167.363 67.233,167 71.094,167 C75.346,167 76.274,166.67 76.71,165 C77.103,163.497 78.074,163 80.617,163 C83.817,163 84,162.81 84,159.5 C84,156.083 84.095,156 88,156 C90.889,156 92,156.417 92,157.5 C92,158.325 92.675,159 93.5,159 C94.583,159 95,160.111 95,163 C95,165.834 95.424,167 96.455,167 C97.325,167 98.173,168.405 98.566,170.5 C98.942,172.505 99.816,174 100.611,174 C101.532,174 102,175.18 102,177.5 C102,179.944 102.452,181 103.5,181 C104.69,181 105,182.444 105,188 C105,193.556 104.69,195 103.5,195 C102.279,195 102,196.654 102,203.883 C102,211.926 102.189,212.816 104,213.29 C105.67,213.726 106,214.654 106,218.906 L106,224 L102.5,224 C100.056,224 99,223.548 99,222.5 C99,221.667 98.111,221 97,221 C95.242,221 95,220.333 95,215.5 C95,210.667 94.758,210 93,210 C91.242,210 91,209.333 91,204.5 C91,200.534 90.621,199 89.642,199 C88.72,199 88.085,197.086 87.661,193.032 C86.919,185.933 87.724,181 89.625,181 C90.53,181 91,179.803 91,177.5 C91,175.056 90.548,174 89.5,174 C88.675,174 88,173.352 88,172.559 C88,171.766 87.596,170.868 87.103,170.563 C85.53,169.591 80,171.196 80,172.625 C80,173.604 78.593,174 75.117,174 C71.074,174 70.143,174.344 69.71,176 C69.249,177.763 68.346,178 62.094,178 C56.455,178 55,178.308 55,179.5 C55,180.548 53.944,181 51.5,181 C49.056,181 48,180.548 48,179.5 C48,178.462 46.957,178 44.617,178 C41.721,178 41.156,177.603 40.7,175.25 C39.846,170.839 41.086,163 42.639,163 C43.388,163 44,162.325 44,161.5 C44,160.667 44.889,160 46,160 C47.619,160 48,159.333 48,156.5 C48,154.056 47.548,153 46.5,153 C45.675,153 45,153.675 45,154.5 C45,155.583 43.889,156 41,156 C38.187,156 37,156.427 37,157.439 C37,159.17 31.227,160.083 22.318,159.759 C16.141,159.535 16.135,159.532 15.5,156.148 C14.622,151.466 15.833,145 17.588,145 C18.535,145 19,143.848 19,141.5 C19,138.667 19.381,138 21,138 C22.333,138 23,137.333 23,136 C23,134.889 23.667,134 24.5,134 C25.548,134 26,132.944 26,130.5 C26,127.667 26.381,127 28,127 C29.619,127 30,126.333 30,123.5 C30,120.667 30.381,120 32,120 C33.333,120 34,119.333 34,118 C34,116.889 34.667,116 35.5,116 C36.466,116 37.005,115.022 37.014,113.25 C37.035,108.968 38.101,106 39.617,106 C40.564,106 41,104.739 41,102 C41,99.111 41.417,98 42.5,98 C43.621,98 44.003,96.799 44.014,93.25 C44.021,90.638 44.299,87.487 44.63,86.25 Z M158.25,116.706 C157.012,116.944 156,117.783 156,118.57 C156,119.674 154.404,120 149,120 L142,120 L142,123.5 C142,126.333 141.619,127 140,127 C138.107,127 138,127.667 138,139.5 L138,152 L147,152 C153.954,152 156,151.689 156,150.63 C156,149.742 157.635,149.076 160.651,148.736 C163.449,148.42 165.66,147.572 166.201,146.606 C166.755,145.615 168.421,145 170.55,145 C172.811,145 174,144.526 174,143.625 C174,142.254 178.12,141 182.625,141 C184.899,141 185,140.702 185,134 C185,128.444 185.31,127 186.5,127 C187.325,127 188,126.325 188,125.5 C188,124.452 186.944,124 184.5,124 C182.187,124 181,124.469 181,125.383 C181,126.144 180.1,127.002 179,127.29 C177.9,127.577 177,128.53 177,129.406 C177,130.561 176.036,131 173.5,131 C170.667,131 170,130.619 170,129 C170,127.889 169.333,127 168.5,127 C167.675,127 167,126.325 167,125.5 C167,124.675 167.675,124 168.5,124 C169.333,124 170,123.111 170,122 C170,120.667 170.667,120 172,120 C173.333,120 174,119.333 174,118 C174,116.184 173.379,116.013 167.25,116.136 C163.537,116.211 159.488,116.467 158.25,116.706 Z M26.63,209.25 C27.074,207.595 27.975,207 30.037,207 C32.333,207 32.959,207.538 33.493,209.968 C34.02,212.366 34.804,213.06 37.572,213.58 C39.522,213.945 41,214.822 41,215.611 C41,216.375 41.675,217 42.5,217 C43.333,217 44,217.889 44,219 C44,220.333 44.667,221 46,221 C47.619,221 48,221.667 48,224.5 C48,227.333 48.381,228 50,228 C51.1,228 52,228.639 52,229.421 C52,230.202 53.304,231.128 54.898,231.478 C56.722,231.878 58.015,232.927 58.385,234.307 C59.555,238.673 59.215,239 53.5,239 C48.667,239 48,238.758 48,237 C48,235.667 47.333,235 46,235 C44.9,235 44,234.377 44,233.617 C44,232.856 43.1,231.998 42,231.71 C40.9,231.423 40,230.47 40,229.594 C40,228.717 39.325,228 38.5,228 C37.675,228 37,227.325 37,226.5 C37,225.675 36.283,225 35.406,225 C34.53,225 33.577,224.1 33.29,223 C33.002,221.9 32.144,221 31.383,221 C30.623,221 30,220.1 30,219 C30,217.667 29.333,217 28,217 C25.891,217 25.359,213.992 26.63,209.25 Z M55.63,198.25 C56.105,196.479 56.953,196 59.617,196 C61.957,196 63,196.462 63,197.5 C63,198.325 63.675,199 64.5,199 C65.548,199 66,200.056 66,202.5 C66,205.333 66.381,206 68,206 C69.619,206 70,206.667 70,209.5 C70,211.82 70.468,213 71.389,213 C72.181,213 73.056,214.486 73.427,216.462 C73.985,219.436 74.564,220.015 77.538,220.573 C80.678,221.162 81,221.537 81,224.611 L81,228 L75.5,228 C71.134,228 70,227.671 70,226.406 C70,225.53 69.1,224.577 68,224.29 C66.497,223.897 66,222.926 66,220.383 C66,217.667 65.606,217 64,217 C62.667,217 62,216.333 62,215 C62,213.889 61.333,213 60.5,213 C59.452,213 59,211.944 59,209.5 C59,206.667 58.619,206 57,206 C54.891,206 54.359,202.992 55.63,198.25 Z"/>
</svg>

