<svg xmlns="http://www.w3.org/2000/svg" width="300" height="300" viewBox="0 0 300 300" version="1.1">
  <defs/>
  <path d="M73,36.5 C73,35.456 74.051,35 76.455,35 C79.611,35 79.966,35.302 80.566,38.5 C80.942,40.505 81.816,42 82.611,42 C83.532,42 84,43.18 84,45.5 C84,47.803 83.53,49 82.625,49 C80.824,49 80,53.432 80,63.125 L80,71 L102,71 L102,65.5 C102,61.278 102.348,60 103.5,60 C104.722,60 105,58.333 105,51 L105,42 L113,42 L113,71 L116.5,71 C118.944,71 120,71.452 120,72.5 C120,73.548 121.056,74 123.5,74 C126.333,74 127,74.381 127,76 C127,77.35 127.667,78 129.052,78 C130.9,78 131.074,78.524 130.802,83.25 C130.508,88.37 130.419,88.508 127.25,88.813 C125.237,89.007 124,89.673 124,90.563 C124,91.539 122.876,92 120.5,92 C117.167,92 117,91.833 117,88.5 C117,86.056 117.452,85 118.5,85 C119.325,85 120,84.325 120,83.5 C120,82.452 118.944,82 116.5,82 L113,82 L113,86.883 C113,90.926 112.656,91.857 111,92.29 C109.33,92.726 109,93.654 109,97.906 C109,102.333 109.262,103 111,103 C112.111,103 113,103.667 113,104.5 C113,105.325 113.675,106 114.5,106 C115.583,106 116,107.111 116,110 C116,112.889 115.583,114 114.5,114 C113.675,114 113,114.675 113,115.5 C113,116.548 111.944,117 109.5,117 C107.056,117 106,116.548 106,115.5 C106,114.417 104.889,114 102,114 C99.166,114 98,114.424 98,115.455 C98,116.325 96.595,117.173 94.5,117.566 C92.575,117.927 91,118.797 91,119.5 C91,120.203 89.425,121.073 87.5,121.434 C84.438,122.008 84,122.46 84,125.045 C84,127.005 84.505,128 85.5,128 C86.333,128 87,128.889 87,130 C87,131.778 87.667,132 93,132 C97.442,132 99,131.641 99,130.617 C99,128.682 102.196,128.029 111.75,128.014 L120,128 L120,133.5 C120,137.526 119.628,139 118.611,139 C117.821,139 116.945,140.481 116.577,142.439 C116.019,145.418 115.502,145.92 112.716,146.189 C109.925,146.459 109.46,146.914 109.196,149.629 C108.916,152.502 109.181,152.811 112.446,153.424 C115.704,154.035 116,154.379 116,157.545 C116,159.949 115.544,161 114.5,161 C113.675,161 113,161.675 113,162.5 C113,163.548 114.056,164 116.5,164 C119.333,164 120,164.381 120,166 C120,167.619 120.667,168 123.5,168 L127,168 L127,173.5 C127,177.722 126.652,179 125.5,179 C124.667,179 124,179.889 124,181 C124,183.082 123.004,183.376 119.306,182.384 C117.736,181.963 117.024,180.9 116.806,178.648 C116.51,175.601 116.332,175.49 111.25,175.198 C106.524,174.926 106,175.1 106,176.948 C106,178.333 105.35,179 104,179 C102.19,179 102,179.667 102,186 C102,192.333 102.19,193 104,193 C105.1,193 106,192.388 106,191.639 C106,190.249 112.622,189.026 120.25,189.009 C122.913,189.003 124,188.565 124,187.5 C124,186.262 125.833,186 134.5,186 L145,186 L145,189.361 C145,192.663 144.91,192.732 139.825,193.334 C136.979,193.671 134.296,194.522 133.863,195.224 C133.334,196.081 129.781,196.613 123.038,196.844 C115.242,197.111 113,197.502 113,198.594 C113,199.632 111.559,200 107.5,200 C102.667,200 102,200.242 102,202 C102,203.1 101.345,204 100.545,204 C99.675,204 98.827,205.405 98.434,207.5 C98.058,209.505 97.184,211 96.389,211 C95.468,211 95,212.18 95,214.5 L95,218 L100.094,218 C104.346,218 105.274,218.33 105.71,220 C105.998,221.1 106.856,222 107.617,222 C108.377,222 109,222.625 109,223.389 C109,224.184 110.495,225.058 112.5,225.434 C114.437,225.797 116,226.69 116,227.434 C116,228.173 117.532,229.065 119.403,229.416 C121.275,229.767 123.061,230.717 123.372,231.527 C123.683,232.337 124.851,233 125.969,233 C127.086,233 128,233.639 128,234.421 C128,235.202 129.35,236.138 131,236.5 C132.65,236.862 134,237.798 134,238.579 C134,239.361 134.9,240 136,240 C137.1,240 138,240.623 138,241.383 C138,242.144 138.9,243.002 140,243.29 C141.1,243.577 142,244.53 142,245.406 C142,246.561 142.964,247 145.5,247 C148.822,247 149,247.175 149,250.441 C149,252.334 148.518,254.18 147.929,254.544 C146.04,255.711 138,254.007 138,252.439 C138,251.647 137.1,251 136,251 C134.9,251 134,250.361 134,249.579 C134,248.798 132.65,247.862 131,247.5 C129.35,247.138 128,246.202 128,245.421 C128,244.639 127.058,244 125.906,244 C124.654,244 123.603,243.197 123.29,242 C122.926,240.608 121.926,240 120,240 C118.074,240 117.074,239.392 116.71,238 C116.397,236.803 115.346,236 114.094,236 C112.899,236 112,235.356 112,234.5 C112,233.49 110.99,233 108.906,233 C106.654,233 105.671,232.456 105.29,231 C104.897,229.497 103.926,229 101.383,229 C99.043,229 98,228.538 98,227.5 C98,226.452 96.944,226 94.5,226 C91.167,226 91,226.167 91,229.5 C91,231.944 90.548,233 89.5,233 C88.534,233 87.995,233.978 87.986,235.75 C87.965,240.032 86.899,243 85.383,243 C84.436,243 84,244.261 84,247 C84,250.333 83.667,251 82,251 C80.381,251 80,251.667 80,254.5 C80,256.82 79.532,258 78.611,258 C77.816,258 76.942,259.495 76.566,261.5 C75.92,264.941 75.825,265 70.955,265 L66,265 L66,261.5 C66,258.667 66.381,258 68,258 C69.333,258 70,257.333 70,256 C70,254.889 70.667,254 71.5,254 C72.548,254 73,252.944 73,250.5 C73,248.187 73.469,247 74.383,247 C75.899,247 76.965,244.032 76.986,239.75 C76.995,237.978 77.534,237 78.5,237 C79.523,237 80.004,235.966 80.014,233.75 C80.034,229 81.041,226 82.617,226 C83.627,226 84,224.516 84,220.5 C84,216.43 84.367,215 85.412,215 C86.28,215 87.085,213.459 87.5,211 C87.915,208.541 88.72,207 89.588,207 C90.365,207 91,206.325 91,205.5 C91,204.348 89.722,204 85.5,204 C81.354,204 80,204.358 80,205.455 C80,206.325 78.595,207.173 76.5,207.566 C74.575,207.927 73,208.789 73,209.481 C73,210.237 71.143,210.949 68.349,211.264 C65.551,211.58 63.34,212.428 62.799,213.394 C62.305,214.277 61.248,215 60.45,215 C59.653,215 59,215.635 59,216.412 C59,218.204 52.499,219.372 47.619,218.456 C44.306,217.835 44,217.491 44,214.389 C44,211.667 44.393,211 46,211 C47.1,211 48,210.345 48,209.545 C48,208.675 49.405,207.827 51.5,207.434 C53.505,207.058 55,206.184 55,205.389 C55,204.435 56.254,204 59,204 C61.739,204 63,203.564 63,202.617 C63,200.94 66.053,200.032 71.75,200.014 C74.855,200.004 76,199.596 76,198.5 C76,197.514 76.986,197 78.875,197 C83.841,197 88,195.804 88,194.375 C88,193.619 88.616,193 89.37,193 C90.874,193 92.387,184.068 91.108,182.737 C89.944,181.527 84,183.105 84,184.625 C84,185.381 83.1,186 82,186 C80.889,186 80,186.667 80,187.5 C80,188.325 79.325,189 78.5,189 C77.667,189 77,189.889 77,191 C77,192.606 76.333,193 73.617,193 C70.953,193 70.105,192.521 69.63,190.75 C68.389,186.117 68.92,182.834 71,182.29 C72.1,182.002 73,181.194 73,180.495 C73,179.795 74.575,178.927 76.5,178.566 C79.941,177.92 80,177.825 80,172.955 C80,168.116 79.93,168 77,168 C75.065,168 74,167.492 74,166.57 C74,165.783 72.987,164.995 71.75,164.82 C69.943,164.563 69.439,163.762 69.19,160.75 L68.879,157 L72.94,157 C75.882,157 77,156.587 77,155.5 C77,154.675 77.675,154 78.5,154 C79.333,154 80,153.111 80,152 C80,150.889 79.333,150 78.5,150 C77.316,150 76.997,148.577 76.986,143.25 C76.97,135.152 76.241,132 74.383,132 C73.623,132 73,131.1 73,130 C73,128.9 73.623,128 74.383,128 C75.669,128 76.955,125.16 76.986,122.25 C76.994,121.563 76.1,121 75,121 C73.107,121 73,120.333 73,108.5 C73,98.056 72.753,96 71.5,96 C70.31,96 70,94.556 70,89 L70,82 L66.5,82 C64.056,82 63,82.452 63,83.5 C63,84.7 61.5,85 55.5,85 C48.667,85 48,85.178 48,87 C48,88.619 47.333,89 44.5,89 C41.083,89 41,88.905 41,85 C41,82.111 41.417,81 42.5,81 C43.325,81 44,80.325 44,79.5 C44,78.667 44.889,78 46,78 C47.333,78 48,77.333 48,76 C48,74.267 48.667,74 53,74 C56.778,74 58,73.633 58,72.5 C58,71.333 59.333,71 64,71 L70,71 L70,54.5 C70,40.5 70.227,38 71.5,38 C72.325,38 73,37.325 73,36.5 Z M181,72.5 C181,71.31 182.444,71 188,71 C193.556,71 195,71.31 195,72.5 C195,73.676 196.375,74 201.375,74 C209.634,74 214,74.908 214,76.625 C214,77.474 215.104,78 216.883,78 C220.203,78 220.965,79.718 220.986,87.25 C220.997,90.799 221.379,92 222.5,92 C223.333,92 224,92.889 224,94 C224,95.111 223.333,96 222.5,96 C221.675,96 220.994,96.563 220.986,97.25 C220.979,97.938 220.701,99.513 220.37,100.75 C219.783,102.939 219.973,103 227.383,103 C233.382,103 235,103.309 235,104.455 C235,105.322 236.395,106.171 238.454,106.557 C241.639,107.155 241.96,107.553 242.576,111.658 C243.174,115.648 242.672,122.661 241.72,123.613 C241.519,123.815 239.924,124.265 238.177,124.615 L235,125.25 L235,119.625 C235,115.292 234.656,114 233.5,114 C232.588,114 232,114.931 232,116.375 C232,120.88 230.746,125 229.375,125 C228.339,125 228,126.727 228,132 L228,139 L231.5,139 C233.944,139 235,138.548 235,137.5 C235,136.258 236.889,136 246,136 C255.111,136 257,136.258 257,137.5 C257,138.325 257.675,139 258.5,139 C259.333,139 260,139.889 260,141 C260,142.111 259.333,143 258.5,143 C257.675,143 257,143.675 257,144.5 C257,145.652 255.722,146 251.5,146 C247.278,146 246,145.652 246,144.5 C246,143.675 245.325,143 244.5,143 C243.675,143 243,143.675 243,144.5 C243,145.652 241.722,146 237.5,146 L232,146 L232,155 C232,162.333 232.278,164 233.5,164 C234.7,164 235,165.5 235,171.5 L235,179 L240.5,179 C245.333,179 246,179.242 246,181 C246,182.1 246.639,183 247.421,183 C248.202,183 249.14,184.36 249.505,186.022 C250.437,190.265 249.153,197 247.412,197 C246.465,197 246,198.152 246,200.5 C246,203.833 245.833,204 242.5,204 C239.167,204 239,203.833 239,200.5 C239,198.056 239.452,197 240.5,197 C241.548,197 242,195.944 242,193.5 C242,190.167 241.833,190 238.5,190 L235,190 L235,222 L240.5,222 C244.477,222 246,222.378 246,223.363 C246,224.322 247.945,224.882 252.556,225.252 C256.162,225.542 259.278,225.944 259.48,226.147 C259.683,226.349 259.995,227.862 260.174,229.507 L260.5,232.5 L246.5,232.666 C238.8,232.758 225.863,232.871 217.75,232.916 C205.942,232.983 203,233.274 203,234.375 C203,236.141 198.58,237.004 189.625,236.986 C179.288,236.967 178,236.456 178,232.383 C178,229.291 178.258,229 181,229 C182.873,229 184,228.485 184,227.631 C184,225.838 189.2,225.025 200.75,225.011 C208.301,225.002 210,224.724 210,223.5 C210,222.3 211.5,222 217.5,222 C224.333,222 225,221.822 225,220 C225,218.889 225.667,218 226.5,218 C227.762,218 228,215.778 228,204 L228,190 L219,190 C212.004,190 210,190.308 210,191.383 C210,192.144 209.1,193.002 208,193.29 C206.9,193.577 206,194.53 206,195.406 C206,197.667 202.329,197.407 200.268,195 C199.326,193.9 197.981,193 197.278,193 C196.484,193 196,191.674 196,189.5 C196,187.056 196.452,186 197.5,186 C198.325,186 199,185.377 199,184.617 C199,182.897 202.077,182.031 208.25,182.014 C211.727,182.004 213,181.611 213,180.55 C213,179.486 214.531,179.02 218.75,178.8 L224.5,178.5 L224.444,175.25 C224.414,173.463 224.301,167.05 224.194,161 L224,150 L210.117,150 C197.074,150 196.202,150.121 195.71,152 C195.274,153.67 194.346,154 190.094,154 C186.233,154 185,154.363 185,155.5 C185,156.548 183.944,157 181.5,157 L178,157 L178,172.853 C178,192.543 177.206,201 175.358,201 C174.343,201 174,202.771 174,208 L174,215 L170.5,215 C167.667,215 167,214.619 167,213 C167,211.889 166.333,211 165.5,211 C164.675,211 164,210.373 164,209.607 C164,208.841 164.675,207.955 165.5,207.638 C166.747,207.16 167,204.359 167,191.031 C167,177.448 167.229,175 168.5,175 C169.778,175 170,172.333 170,157 C170,141.667 169.778,139 168.5,139 C167.278,139 167,137.333 167,130 C167,122.667 167.278,121 168.5,121 C169.325,121 170,120.325 170,119.5 C170,118.417 171.111,118 174,118 L178,118 L178,143 L197.5,143 C213.87,143 217,142.767 217,141.55 C217,140.752 217.609,139.74 218.353,139.3 C219.316,138.73 219.878,134.972 220.304,126.25 L220.901,114 L213.451,114 C206.667,114 206,114.179 206,116 C206,117.733 205.333,118 201,118 C197.222,118 196,118.367 196,119.5 C196,120.333 195.111,121 194,121 C192.667,121 192,121.667 192,123 C192,124.619 191.333,125 188.5,125 L185,125 L185,119.5 C185,114.667 185.242,114 187,114 C188.1,114 189,113.377 189,112.617 C189,111.101 191.968,110.035 196.25,110.014 C197.906,110.005 199,109.455 199,108.629 C199,107.666 201.06,107.055 205.932,106.575 C212.457,105.932 212.893,105.734 213.351,103.196 C214.073,99.195 213.62,87.286 212.712,86.378 C212.278,85.945 209.016,85.405 205.462,85.178 C200.825,84.883 199,84.376 199,83.384 C199,82.337 197.294,82 192,82 C186.444,82 185,82.31 185,83.5 C185,84.652 183.722,85 179.5,85 L174,85 L174,74 L177.5,74 C179.944,74 181,73.548 181,72.5 Z M163,75.94 C163,74.17 163.53,73.923 166.75,74.19 C170.296,74.483 170.517,74.704 170.81,78.25 C171.077,81.47 170.83,82 169.06,82 C167.372,82 167,82.632 167,85.5 C167,88.333 166.619,89 165,89 C163.381,89 163,89.667 163,92.5 C163,94.944 162.548,96 161.5,96 C160.477,96 159.996,97.034 159.986,99.25 C159.966,104 158.959,107 157.383,107 C156.39,107 156,108.41 156,112 C156,115.639 155.616,117 154.588,117 C153.72,117 152.915,118.541 152.5,121 C152.085,123.459 151.28,125 150.412,125 C149.465,125 149,126.152 149,128.5 C149,131.333 148.619,132 147,132 C145.381,132 145,132.667 145,135.5 C145,137.82 144.532,139 143.611,139 C142.816,139 141.942,140.495 141.566,142.5 C141.173,144.595 140.325,146 139.455,146 C138.655,146 138,146.9 138,148 C138,149.1 137.34,150 136.534,150 C135.531,150 134.86,151.576 134.406,155 C133.975,158.246 133.261,160 132.371,160 C131.575,160 131,161.049 131,162.5 C131,164.69 130.567,165 127.5,165 C124.083,165 124,164.905 124,161 C124,158.28 124.438,157 125.37,157 C126.258,157 126.924,155.365 127.264,152.349 C127.58,149.551 128.428,147.34 129.394,146.799 C130.277,146.305 131,145.023 131,143.95 C131,142.878 131.675,142 132.5,142 Q134,142 134,139 C134,136.667 134.444,136 136,136 C137.667,136 138,135.333 138,132 C138,129.166 138.424,128 139.455,128 C140.325,128 141.173,126.595 141.566,124.5 C141.927,122.575 142.789,121 143.481,121 C144.237,121 144.949,119.143 145.264,116.349 C145.58,113.551 146.428,111.34 147.394,110.799 C148.531,110.163 149,108.456 149,104.95 C149,101.217 149.369,100 150.5,100 C151.523,100 152.004,98.966 152.014,96.75 C152.034,92 153.041,89 154.617,89 C155.564,89 156,87.739 156,85 C156,82.111 156.417,81 157.5,81 C158.325,81 159,80.325 159,79.5 C159,78.667 159.889,78 161,78 C162.353,78 163,77.333 163,75.94 Z M84,83.5 C84,84.325 83.377,85 82.616,85 C81.618,85 81.113,86.876 80.803,91.75 C80.164,101.784 80.576,103 84.617,103 C86.957,103 88,102.538 88,101.5 C88,100.425 89.097,100 91.875,100 C94.006,100 97.156,99.719 98.875,99.375 L102,98.75 L102,82 L93,82 C85.667,82 84,82.278 84,83.5 Z M91,163 C91,164.111 90.333,165 89.5,165 C88.443,165 88,166.069 88,168.617 C88,171.879 88.22,172.174 90.25,171.63 C91.487,171.299 92.789,171.021 93.142,171.014 C94.245,170.99 95.068,166.118 94.411,163.5 C93.664,160.526 91,160.136 91,163 Z M88,146.5 C88,149.833 88.167,150 91.5,150 C94.833,150 95,149.833 95,146.5 C95,143.167 94.833,143 91.5,143 C88.167,143 88,143.167 88,146.5 Z M106,137.5 C106,138.325 106.675,139 107.5,139 C108.325,139 109,138.325 109,137.5 C109,136.675 108.325,136 107.5,136 C106.675,136 106,136.675 106,137.5 Z M106,162.5 C106,163.325 106.675,164 107.5,164 C108.325,164 109,163.325 109,162.5 C109,161.675 108.325,161 107.5,161 C106.675,161 106,161.675 106,162.5 Z"/>
</svg>

