<svg xmlns="http://www.w3.org/2000/svg" width="300" height="300" viewBox="0 0 300 300" version="1.1">
  <defs/>
  <path d="M188.71,75 C189.211,73.087 190.074,73 208.617,73 L228,73 L228,112.5 C228,145.02 228.239,152 229.352,152 C230.935,152 231.985,162.623 231.994,178.75 C231.999,187.192 232.265,189 233.5,189 C234.776,189 235,191.611 235,206.5 C235,221.389 234.776,224 233.5,224 C232.667,224 232,224.889 232,226 C232,227.671 231.333,228 227.953,228 L223.905,228 L224.186,221.25 C224.34,217.537 224.361,206.287 224.233,196.25 C224.036,180.798 223.77,178 222.5,178 C221.279,178 221,176.34 221,169.059 C221,164.141 220.596,159.868 220.103,159.563 C218.53,158.591 213,160.196 213,161.625 C213,162.495 211.865,163 209.906,163 C207.654,163 206.671,163.544 206.29,165 C205.919,166.417 204.926,167 202.883,167 C200.987,167 200,167.513 200,168.5 C200,169.356 199.101,170 197.906,170 C196.654,170 195.603,170.803 195.29,172 C194.897,173.503 193.926,174 191.383,174 C189.089,174 188,174.468 188,175.455 C188,176.325 186.595,177.173 184.5,177.566 C182.495,177.942 181,178.816 181,179.611 C181,180.375 180.325,181 179.5,181 C178.675,181 178,181.717 178,182.594 C178,183.47 177.1,184.423 176,184.71 C174.497,185.103 174,186.074 174,188.617 L174,192 L166.5,192 C159.667,192 159,191.822 159,190 C159,188.889 158.333,188 157.5,188 C156.675,188 156,187.325 156,186.5 C156,185.667 156.889,185 158,185 C159.1,185 160,184.345 160,183.545 C160,182.675 161.405,181.827 163.5,181.434 C165.437,181.071 167,180.178 167,179.434 C167,178.69 168.563,177.797 170.5,177.434 C172.505,177.058 174,176.184 174,175.389 C174,174.625 174.9,174 176,174 C177.333,174 178,173.333 178,172 C178,170.381 178.667,170 181.5,170 C183.82,170 185,169.532 185,168.611 C185,167.816 186.495,166.942 188.5,166.566 C190.595,166.173 192,165.325 192,164.455 C192,163.655 192.9,163 194,163 C195.1,163 196,162.375 196,161.611 C196,160.816 197.495,159.942 199.5,159.566 C201.595,159.173 203,158.325 203,157.455 C203,156.38 204.277,156 207.883,156 C211.926,156 212.857,155.656 213.29,154 C213.69,152.468 214.654,152 217.406,152 L221,152 L221,145 C221,138.667 220.81,138 219,138 C217.667,138 217,138.667 217,140 C217,141.619 216.333,142 213.5,142 C210.083,142 210,141.905 210,138 L210,134 L204.14,134 C195.146,134 189,135.07 189,136.636 C189,137.561 187.712,138 185,138 C181.667,138 181,138.333 181,140 C181,141.619 180.333,142 177.5,142 C174.167,142 174,142.167 174,145.5 C174,147.944 174.452,149 175.5,149 C176.325,149 177,149.675 177,150.5 C177,151.548 175.944,152 173.5,152 C171.056,152 170,151.548 170,150.5 C170,149.675 169.325,149 168.5,149 C167.667,149 167,148.111 167,147 C167,145.667 166.333,145 165,145 C163.381,145 163,144.333 163,141.5 C163,138.667 163.381,138 165,138 C166.1,138 167,137.345 167,136.545 C167,135.675 168.405,134.827 170.5,134.434 C172.505,134.058 174,133.184 174,132.389 C174,131.477 175.163,131 177.383,131 C179.926,131 180.897,130.503 181.29,129 C181.726,127.33 182.654,127 186.906,127 C190.767,127 192,126.637 192,125.5 C192,124.337 193.319,124 197.875,124 C201.106,124 205.156,123.719 206.875,123.375 C209.591,122.832 210,123.028 210,124.875 C210,126.333 210.627,127 212,127 C213.111,127 214,127.667 214,128.5 C214,130.578 215.626,130.374 218,128 C220.387,125.613 220.524,124.415 218.5,123.638 C217.231,123.151 217,119.735 217,101.415 L217,79.767 L214.75,80.37 C213.512,80.701 209.463,80.979 205.75,80.986 C200.423,80.997 199,81.316 199,82.5 C199,83.69 197.556,84 192,84 C186.469,84 185,84.312 185,85.488 C185,86.451 183.588,87.202 181,87.616 C178.587,88.002 177,88.8 177,89.628 C177,90.489 175.871,91 173.969,91 C172.254,91 170.697,91.625 170.385,92.439 C170.081,93.23 168.535,94.163 166.948,94.511 C164.641,95.018 163.935,95.832 163.42,98.572 C162.958,101.039 162.248,102 160.889,102 C159.85,102 159,101.345 159,100.545 C159,99.668 157.577,98.824 155.417,98.418 C152.375,97.848 151.919,97.425 152.403,95.623 C152.716,94.455 152.979,92.938 152.986,92.25 C152.994,91.563 153.675,91 154.5,91 C155.325,91 156,90.325 156,89.5 C156,88.675 156.717,88 157.594,88 C158.47,88 159.423,87.1 159.71,86 C160.152,84.312 161.074,84 165.617,84 C169.533,84 171,83.623 171,82.617 C171,81.101 173.968,80.035 178.25,80.014 C180.022,80.005 181,79.466 181,78.5 C181,77.445 182.066,77 184.594,77 C187.346,77 188.31,76.532 188.71,75 Z M66,80.5 L66,77 L93,77 C116.333,77 120,77.204 120,78.5 C120,79.722 121.667,80 129,80 C137.333,80 138,80.148 138,82 C138,83.758 138.667,84 143.5,84 L149,84 L149,87.5 C149,89.813 148.531,91 147.617,91 C145.858,91 145.031,94.098 145.014,100.75 C145.004,104.629 144.627,106 143.57,106 C142.405,106 142.082,108.911 141.82,121.75 C141.644,130.412 141.665,138.287 141.867,139.25 C142.314,141.383 145,141.597 145,139.5 C145,138.667 145.889,138 147,138 C148.619,138 149,138.667 149,141.5 C149,144.833 148.833,145 145.5,145 L142,145 L142,161.875 C142,180.31 141.468,185 139.375,185 C138.396,185 138,186.407 138,189.883 C138,193.926 137.656,194.857 136,195.29 C134.468,195.69 134,196.654 134,199.406 C134,201.934 133.555,203 132.5,203 C131.675,203 131,203.635 131,204.412 C131,206.153 124.265,207.437 120.022,206.505 C117.536,205.959 117,205.344 117,203.037 C117,200.051 118.82,199.041 124.25,199.014 C126.888,199.001 127,198.793 127,193.906 C127,189.654 127.33,188.726 129,188.29 C130.906,187.791 131,186.926 131,169.883 C131,156.236 130.704,152.003 129.75,152.014 C126.84,152.045 124,153.331 124,154.617 C124,155.377 123.1,156 122,156 C120.9,156 120,156.655 120,157.455 C120,158.325 118.595,159.173 116.5,159.566 C114.575,159.927 113,160.797 113,161.5 C113,162.203 111.425,163.073 109.5,163.434 C107.405,163.827 106,164.675 106,165.545 C106,166.345 105.1,167 104,167 C102.9,167 102,167.623 102,168.383 C102,169.144 101.1,170.002 100,170.29 C98.9,170.577 98,171.53 98,172.406 C98,173.496 97.088,174 95.117,174 C93.074,174 92.081,174.583 91.71,176 C91.31,177.532 90.346,178 87.594,178 C85.066,178 84,178.445 84,179.5 C84,180.7 82.5,181 76.5,181 L69,181 L69,177.5 C69,174.19 69.183,174 72.383,174 C74.926,174 75.897,173.503 76.29,172 C76.69,170.468 77.654,170 80.406,170 C82.806,170 84,169.539 84,168.611 C84,167.816 85.495,166.942 87.5,166.566 C89.595,166.173 91,165.325 91,164.455 C91,163.655 91.9,163 93,163 C94.111,163 95,162.333 95,161.5 C95,160.452 96.056,160 98.5,160 C101.333,160 102,159.619 102,158 C102,156.381 102.667,156 105.5,156 C107.896,156 109,155.541 109,154.545 C109,153.675 110.405,152.827 112.5,152.434 C114.505,152.058 116,151.184 116,150.389 C116,149.477 117.163,149 119.383,149 C121.926,149 122.897,148.503 123.29,147 C123.665,145.565 124.654,145 126.79,145 C130.629,145 130.969,143.682 130.986,128.75 C130.998,118.978 131.253,117 132.5,117 C133.735,117 134.002,115.188 134.014,106.75 C134.021,101.112 134.306,95.461 134.646,94.191 C135.127,92.392 134.793,91.759 133.132,91.324 C131.959,91.018 131,90.144 131,89.383 C131,88.367 129.475,87.998 125.25,87.991 C115.782,87.977 109,86.879 109,85.361 C109,84.286 106.376,84 96.5,84 C86.501,84 84,84.278 84,85.389 C84,86.184 82.505,87.058 80.5,87.434 C78.405,87.827 77,88.675 77,89.545 C77,90.538 75.902,91 73.545,91 C70.389,91 70.034,90.698 69.434,87.5 C69.058,85.495 68.184,84 67.389,84 C66.468,84 66,82.82 66,80.5 Z M95,121.375 C95,120.296 97.258,120 105.5,120 C114.441,120 116,120.237 116,121.594 C116,122.47 116.9,123.423 118,123.71 C119.811,124.184 120,125.074 120,133.117 C120,141.333 119.85,142 118,142 C116.667,142 116,141.333 116,140 C116,138.889 115.333,138 114.5,138 C113.452,138 113,136.944 113,134.5 L113,131 L102.5,131 C94.124,131 92,131.286 92,132.412 C92,133.28 90.459,134.085 88,134.5 C85.541,134.915 84,135.72 84,136.588 C84,137.365 83.361,138 82.579,138 C80.707,138 79.663,143.044 80.504,148.022 C81.109,151.604 80.968,152 79.088,152 C77.899,152 77,151.354 77,150.5 C77,149.667 76.111,149 75,149 C73.667,149 73,148.333 73,147 C73,145.9 72.381,145 71.625,145 C69.984,145 68.954,140.59 69.7,136.75 C69.993,135.238 70.856,134 71.617,134 C72.377,134 73,133.325 73,132.5 C73,131.667 73.889,131 75,131 C76.1,131 77,130.345 77,129.545 C77,128.675 78.405,127.827 80.5,127.434 C82.505,127.058 84,126.184 84,125.389 C84,124.594 85.015,124 86.375,124 C90.88,124 95,122.746 95,121.375 Z"/>
</svg>

