<svg xmlns="http://www.w3.org/2000/svg" width="300" height="300" viewBox="0 0 300 300" version="1.1">
  <defs/>
  <path d="M181,72.5 C181,71.452 182.056,71 184.5,71 C186.944,71 188,71.452 188,72.5 C188,73.333 188.889,74 190,74 C191.667,74 192,74.667 192,78 C192,81.905 191.917,82 188.5,82 C186.056,82 185,82.452 185,83.5 C185,84.333 184.111,85 183,85 C181.667,85 181,85.667 181,87 C181,88.111 180.333,89 179.5,89 C178.667,89 178,89.889 178,91 C178,92.111 178.667,93 179.5,93 C180.325,93 181,93.675 181,94.5 C181,95.548 182.056,96 184.5,96 C186.781,96 188,96.473 188,97.358 C188,99.154 196.371,100 214.147,100 L228,100 L228,109 C228,116.043 227.696,118 226.601,118 C225.604,118 225.002,120.005 224.5,125 C223.998,129.995 223.396,132 222.399,132 C221.471,132 221,133.161 221,135.45 C221,137.579 220.385,139.245 219.394,139.799 C218.428,140.34 217.58,142.551 217.264,145.349 C216.924,148.365 216.258,150 215.37,150 C214.595,150 214,151.031 214,152.375 C214,156.88 212.746,161 211.375,161 C210.392,161 210,162.424 210,166 C210,169.639 209.616,171 208.588,171 C207.72,171 206.915,172.541 206.5,175 C206.085,177.459 205.28,179 204.412,179 C203.465,179 203,180.152 203,182.5 C203,185.333 202.619,186 201,186 C199.381,186 199,186.667 199,189.5 C199,191.944 198.548,193 197.5,193 C196.452,193 196,194.056 196,196.5 C196,198.944 196.452,200 197.5,200 C198.333,200 199,200.889 199,202 C199,203.333 199.667,204 201,204 C202.111,204 203,204.667 203,205.5 C203,206.325 203.675,207 204.5,207 C205.325,207 206,207.85 206,208.889 C206,210.255 206.967,210.959 209.5,211.434 C211.595,211.827 213,212.675 213,213.545 C213,214.345 213.9,215 215,215 C216.111,215 217,215.667 217,216.5 C217,217.325 217.717,218 218.594,218 C219.47,218 220.423,218.9 220.71,220 C220.998,221.1 221.803,222 222.5,222 C223.197,222 224.002,222.9 224.29,224 C224.577,225.1 225.53,226 226.406,226 C227.283,226 228,226.625 228,227.389 C228,228.184 229.495,229.058 231.5,229.434 C233.595,229.827 235,230.675 235,231.545 C235,232.345 235.9,233 237,233 C238.111,233 239,233.667 239,234.5 C239,235.325 239.717,236 240.594,236 C241.47,236 242.423,236.9 242.71,238 C242.998,239.1 243.856,240 244.617,240 C245.377,240 246,240.625 246,241.389 C246,242.184 247.495,243.058 249.5,243.434 C251.595,243.827 253,244.675 253,245.545 C253,246.345 253.9,247 255,247 C256.333,247 257,247.667 257,249 C257,250.619 257.667,251 260.5,251 C262.82,251 264,251.468 264,252.389 C264,253.184 265.495,254.058 267.5,254.434 C270.524,255.001 271,255.477 271,257.929 C271,260.027 270.413,260.924 268.75,261.37 C264.993,262.376 264,262.09 264,260 C264,258.381 263.333,258 260.5,258 C258.18,258 257,257.532 257,256.611 C257,255.816 255.505,254.942 253.5,254.566 C251.405,254.173 250,253.325 250,252.455 C250,251.655 249.1,251 248,251 C246.9,251 246,250.345 246,249.545 C246,248.675 244.595,247.827 242.5,247.434 C240.495,247.058 239,246.184 239,245.389 C239,244.625 238.1,244 237,244 C235.667,244 235,243.333 235,242 C235,240.667 234.333,240 233,240 C231.9,240 231,239.361 231,238.579 C231,237.798 229.65,236.862 228,236.5 C226.35,236.138 225,235.202 225,234.421 C225,233.639 224.152,233 223.117,233 C222.074,233 221,232.107 220.71,231 C220.423,229.9 219.47,229 218.594,229 C217.717,229 217,228.375 217,227.611 C217,226.816 215.505,225.942 213.5,225.566 C211.405,225.173 210,224.325 210,223.455 C210,222.655 209.1,222 208,222 C206.9,222 206,221.361 206,220.579 C206,219.798 204.65,218.862 203,218.5 C201.35,218.138 200,217.202 200,216.421 C200,215.639 199.122,215 198.05,215 C196.977,215 195.695,214.277 195.201,213.394 C194.66,212.428 192.449,211.58 189.651,211.264 L185,210.74 L185,214.464 C185,217.346 184.548,218.305 183,218.71 C181.9,218.998 181,219.856 181,220.617 C181,221.377 180.325,222 179.5,222 C178.445,222 178,223.066 178,225.594 C178,228.346 177.532,229.31 176,229.71 C174.583,230.081 174,231.074 174,233.117 C174,235.088 173.496,236 172.406,236 C171.53,236 170.577,236.9 170.29,238 C170.002,239.1 169.144,240 168.383,240 C167.623,240 167,240.9 167,242 C167,243.333 166.333,244 165,244 C163.889,244 163,244.667 163,245.5 C163,246.325 162.325,247 161.5,247 C160.667,247 160,247.889 160,249 C160,250.333 159.333,251 158,251 C156.889,251 156,251.667 156,252.5 C156,253.333 155.111,254 154,254 C152.889,254 152,253.333 152,252.5 C152,251.675 151.325,251 150.5,251 C149.452,251 149,249.944 149,247.5 C149,244.964 149.439,244 150.594,244 C151.47,244 152.423,243.1 152.71,242 C153.103,240.497 154.074,240 156.617,240 C159.333,240 160,239.606 160,238 C160,236.889 160.667,236 161.5,236 C162.336,236 163,235.11 163,233.99 C163,232.885 163.9,231.21 165,230.268 C166.1,229.326 167,227.981 167,227.278 C167,226.575 167.625,226 168.389,226 C169.184,226 170.058,224.505 170.434,222.5 C170.827,220.405 171.675,219 172.545,219 C173.345,219 174,218.1 174,217 C174,215.9 174.635,215 175.412,215 C176.28,215 177.085,213.459 177.5,211 C177.884,208.724 178.738,207 179.479,207 C180.915,207 182.408,202.469 181.472,200.954 C181.147,200.429 180.234,200 179.441,200 C178.648,200 178,199.325 178,198.5 C178,197.667 177.111,197 176,197 C174.667,197 174,196.333 174,195 C174,193.667 173.333,193 172,193 C170.667,193 170,192.333 170,191 C170,189.889 169.333,189 168.5,189 C167.675,189 167,188.325 167,187.5 C167,186.667 166.111,186 165,186 C163.667,186 163,185.333 163,184 C163,182.667 162.333,182 161,182 C159.889,182 159,181.333 159,180.5 C159,179.675 158.325,179 157.5,179 C156.348,179 156,177.722 156,173.5 L156,168 L161.5,168 C166.333,168 167,168.242 167,170 C167,171.1 167.655,172 168.455,172 C169.325,172 170.173,173.405 170.566,175.5 C170.942,177.505 171.816,179 172.611,179 C173.375,179 174,179.623 174,180.383 C174,181.144 174.9,182.002 176,182.29 C177.1,182.577 178,183.53 178,184.406 C178,185.283 178.675,186 179.5,186 C180.325,186 181,186.717 181,187.594 C181,188.47 181.9,189.423 183,189.71 C184.1,189.998 185,190.856 185,191.617 C185,194.578 187.806,192.849 188.434,189.5 C188.827,187.405 189.675,186 190.545,186 C191.345,186 192,185.1 192,184 C192,182.9 192.66,182 193.466,182 C194.469,182 195.14,180.424 195.594,177 C196.025,173.754 196.739,172 197.629,172 C198.506,172 199.005,170.83 199.014,168.75 C199.034,164 200.041,161 201.617,161 C202.564,161 203,159.739 203,157 C203,154.111 203.417,153 204.5,153 C205.596,153 206.004,151.855 206.014,148.75 C206.032,143.053 206.94,140 208.617,140 C209.564,140 210,138.739 210,136 C210,133.293 210.44,132 211.361,132 C212.885,132 213.977,125.211 213.991,115.647 L214,109.793 L207.25,110.04 C195.309,110.476 192,110.142 192,108.5 C192,107.312 190.569,107 185.117,107 C179.074,107 178.169,106.756 177.71,105 C177.31,103.468 176.346,103 173.594,103 C171.066,103 170,102.555 170,101.5 C170,100.675 169.365,100 168.588,100 C167.72,100 166.915,98.459 166.5,96 C166.128,93.8 165.414,92 164.912,92 C164.41,92 164,91.325 164,90.5 C164,89.675 164.675,89 165.5,89 C166.333,89 167,88.111 167,87 C167,85.889 167.667,85 168.5,85 C169.325,85 170,84.325 170,83.5 C170,82.667 170.889,82 172,82 C173.333,82 174,81.333 174,80 C174,78.9 174.623,78 175.383,78 C176.144,78 177.002,77.1 177.29,76 C177.577,74.9 178.53,74 179.406,74 C180.283,74 181,73.325 181,72.5 Z M91.63,37.25 C92.079,35.576 92.972,35 95.117,35 C97.088,35 98,35.504 98,36.594 C98,37.47 98.9,38.423 100,38.71 C101.799,39.181 102,40.074 102,47.617 C102,54.402 101.714,56 100.5,56 C99.348,56 99,57.278 99,61.5 L99,67 L106,67 C112.333,67 113,66.81 113,65 C113,63.889 113.667,63 114.5,63 C115.325,63 116,62.325 116,61.5 C116,60.3 117.5,60 123.5,60 C129.396,60 131,60.311 131,61.455 C131,62.325 132.405,63.173 134.5,63.566 C137.033,64.041 138,64.745 138,66.111 C138,67.15 138.675,68 139.5,68 C140.325,68 141,68.675 141,69.5 C141,70.633 139.778,71 136,71 C131.667,71 131,70.733 131,69 C131,67.394 130.333,67 127.617,67 C125.074,67 124.103,67.497 123.71,69 C123.423,70.1 122.47,71 121.594,71 C120.439,71 120,71.964 120,74.5 L120,78 L129,78 C137.333,78 138,78.148 138,80 C138,81.333 137.333,82 136,82 C134.889,82 134,82.667 134,83.5 C134,84.69 132.556,85 127,85 C121.707,85 120,85.337 120,86.383 C120,88.103 116.923,88.969 110.75,88.986 C106.671,88.998 106,89.283 106,91 C106,92.333 105.333,93 104,93 C102.444,93 102,93.667 102,96 Q102,99 100.5,99 C99.667,99 99,99.889 99,101 C99,102.333 98.333,103 97,103 C95.667,103 95,103.667 95,105 C95,106.333 94.333,107 93,107 C91.381,107 91,107.667 91,110.5 C91,112.813 90.531,114 89.617,114 C88.856,114 87.998,114.9 87.71,116 C87.423,117.1 86.47,118 85.594,118 C84.439,118 84,118.964 84,121.5 C84,124.333 83.619,125 82,125 C80.667,125 80,125.667 80,127 C80,128.111 79.333,129 78.5,129 C77.49,129 77,130.01 77,132.094 C77,134.346 76.456,135.329 75,135.71 C73.497,136.103 73,137.074 73,139.617 C73,141.957 72.538,143 71.5,143 C70.675,143 70,143.717 70,144.594 C70,145.47 69.1,146.423 68,146.71 C66.497,147.103 66,148.074 66,150.617 C66,152.922 65.533,154 64.534,154 C63.531,154 62.86,155.576 62.406,159 C61.975,162.246 61.261,164 60.371,164 C59.617,164 59,164.9 59,166 C59,167.1 58.377,168 57.617,168 C56.041,168 55.034,171 55.014,175.75 C55.005,177.85 54.509,179 53.611,179 C52.816,179 51.942,180.495 51.566,182.5 C51.173,184.595 50.325,186 49.455,186 C48.459,186 48,187.104 48,189.5 C48,191.823 47.532,193 46.608,193 C44.571,193 43.784,197.47 44.555,204.669 C45.197,210.663 45.12,211 43.116,211 C41.667,211 41,211.63 41,213 C41,214.758 40.333,215 35.5,215 L30,215 L30,209.5 C30,205.354 30.358,204 31.455,204 C32.325,204 33.173,202.595 33.566,200.5 C33.942,198.495 34.816,197 35.611,197 C36.509,197 37.005,195.85 37.014,193.75 C37.034,189 38.041,186 39.617,186 C40.377,186 41,185.1 41,184 C41,182.889 41.667,182 42.5,182 C43.466,182 44.005,181.022 44.014,179.25 C44.035,174.968 45.101,172 46.617,172 C47.377,172 48,171.1 48,170 C48,168.9 48.619,168 49.375,168 C50.746,168 52,163.88 52,159.375 C52,157.931 52.588,157 53.5,157 C54.548,157 55,155.944 55,153.5 C55,150.667 55.381,150 57,150 C58.619,150 59,149.333 59,146.5 C59,144.056 59.452,143 60.5,143 C61.333,143 62,142.111 62,141 C62,139.667 62.667,139 64,139 C65.619,139 66,138.333 66,135.5 C66,133.18 66.468,132 67.389,132 C68.184,132 69.058,130.505 69.434,128.5 C69.827,126.405 70.675,125 71.545,125 C72.345,125 73,124.1 73,123 C73,121.9 73.655,121 74.455,121 C75.325,121 76.173,119.595 76.566,117.5 C76.942,115.495 77.816,114 78.611,114 C79.532,114 80,112.82 80,110.5 C80,107.667 80.381,107 82,107 C83.333,107 84,106.333 84,105 C84,103.889 84.667,103 85.5,103 C86.548,103 87,101.944 87,99.5 C87,96.309 86.745,96 84.117,96 C82.074,96 81.081,96.583 80.71,98 C80.274,99.67 79.346,100 75.094,100 C71.233,100 70,100.363 70,101.5 C70,102.7 68.5,103 62.5,103 L55,103 L55,98.125 C55,93.465 55.138,93.222 58.125,92.625 C59.844,92.281 62.319,92 63.625,92 C65.069,92 66,91.412 66,90.5 C66,89.278 67.667,89 75,89 C83.333,89 84,88.852 84,87 C84,85.889 84.667,85 85.5,85 C86.325,85 87.006,84.438 87.014,83.75 C87.021,83.063 87.299,81.487 87.63,80.25 C88.184,78.183 87.898,78 84.117,78 C81.124,78 80,77.59 80,76.5 Q80,75 77,75 Q74,75 74,76.5 C74,77.667 72.667,78 68,78 C61.384,78 61.126,77.621 62.625,70.125 L63.25,67 L91,67 L91.014,53.25 C91.021,45.688 91.299,38.487 91.63,37.25 Z M99,130.5 C99,129.285 100.602,129 107.421,129 L115.841,129 L116.504,132.019 C117.568,136.864 116.019,150 114.383,150 C113.469,150 113,151.188 113,153.5 C113,156.333 112.619,157 111,157 C109.242,157 109,157.667 109,162.5 L109,168 L105.5,168 C102.189,168 102,168.183 102,171.389 C102,174.47 102.318,174.837 105.5,175.434 C107.595,175.827 109,176.675 109,177.545 C109,178.345 109.9,179 111,179 C112.111,179 113,179.667 113,180.5 C113,181.548 114.056,182 116.5,182 C119.333,182 120,182.381 120,184 C120,185.333 120.667,186 122,186 C123.333,186 124,186.667 124,188 C124,189.111 124.667,190 125.5,190 C126.325,190 127,190.675 127,191.5 C127,192.333 127.889,193 129,193 C130.619,193 131,193.667 131,196.5 C131,198.881 131.461,200 132.441,200 C134.694,200 135.261,201.775 134.542,206.571 C134.11,209.45 133.374,211 132.439,211 C131.485,211 130.995,212.096 130.986,214.25 C130.966,219 129.959,222 128.383,222 C127.623,222 127,222.9 127,224 C127,225.111 126.333,226 125.5,226 C124.675,226 124,226.717 124,227.594 C124,228.47 123.1,229.423 122,229.71 C120.497,230.103 120,231.074 120,233.617 C120,235.873 119.527,237 118.579,237 C117.798,237 116.862,238.35 116.5,240 C116.138,241.65 115.202,243 114.421,243 C113.639,243 113,243.9 113,245 C113,246.333 112.333,247 111,247 C109.667,247 109,247.667 109,249 C109,250.111 108.333,251 107.5,251 C106.675,251 106,251.675 106,252.5 C106,253.333 105.111,254 104,254 C102.667,254 102,254.667 102,256 C102,257.727 101.333,258 97.117,258 C92.898,258 92.151,257.694 91.63,255.75 C90.624,251.993 90.91,251 93,251 C94.1,251 95,250.345 95,249.545 C95,248.675 96.405,247.827 98.5,247.434 C101.033,246.959 102,246.255 102,244.889 C102,243.85 102.639,243 103.421,243 C104.202,243 105.138,241.65 105.5,240 C105.862,238.35 106.798,237 107.579,237 C108.361,237 109,236.152 109,235.117 C109,234.074 109.893,233 111,232.71 C112.456,232.329 113,231.346 113,229.094 C113,227.01 113.49,226 114.5,226 C115.333,226 116,225.111 116,224 C116,222.667 116.667,222 118,222 C119.733,222 120,221.333 120,217 C120,213.222 120.367,212 121.5,212 C122.333,212 123,211.111 123,210 C123,208.083 122.333,208 107,208 C93.444,208 91,208.229 91,209.5 C91,210.722 89.333,211 82,211 C73.667,211 73,210.852 73,209 C73,207.889 72.333,207 71.5,207 Q70,207 70,204 C70,201.922 70.49,201 71.594,201 C72.47,201 73.423,200.1 73.71,199 C74.169,197.244 75.074,197 81.117,197 C86.569,197 88,197.312 88,198.5 C88,199.771 90.444,200 104,200 L120,200 L120,197.045 C120,194.46 119.562,194.008 116.5,193.434 C114.495,193.058 113,192.184 113,191.389 C113,190.625 112.1,190 111,190 C109.667,190 109,189.333 109,188 C109,186.381 108.333,186 105.5,186 C103.197,186 102,185.53 102,184.625 C102,183.096 97.772,182 91.875,182 C88.113,182 88,181.898 88,178.5 C88,176.18 88.468,175 89.389,175 C90.184,175 91.058,173.505 91.434,171.5 C92.008,168.438 92.46,168 95.045,168 C97.755,168 98,167.71 98,164.5 C98,161.667 98.381,161 100,161 C101.667,161 102,160.333 102,157 C102,154.288 102.439,153 103.364,153 C104.229,153 104.961,151.302 105.364,148.36 C106.439,140.519 106.217,139 104,139 C102.667,139 102,139.667 102,141 C102,142.758 101.333,143 96.5,143 C92.278,143 91,143.348 91,144.5 C91,145.548 89.944,146 87.5,146 C85.056,146 84,145.548 84,144.5 C84,143.667 83.111,143 82,143 C80.371,143 80,142.333 80,139.406 C80,136.654 80.468,135.69 82,135.29 C83.1,135.002 84,134.144 84,133.383 C84,132.329 85.781,132 91.5,132 C97.5,132 99,131.7 99,130.5 Z M95,80 C95,83.778 95.367,85 96.5,85 C97.333,85 98,84.111 98,83 C98,81.667 98.667,81 100,81 C101.556,81 102,80.333 102,78 C102,75.238 101.722,75 98.5,75 L95,75 Z M113,79.5 C113,80.325 113.675,81 114.5,81 C115.325,81 116,80.325 116,79.5 C116,78.675 115.325,78 114.5,78 C113.675,78 113,78.675 113,79.5 Z"/>
</svg>

