<svg xmlns="http://www.w3.org/2000/svg" width="300" height="300" viewBox="0 0 300 300" version="1.1">
  <defs/>
  <path d="M94.75,63.689 C99.418,62.469 100.296,63.269 99.371,67.897 C99.029,69.604 98.131,71 97.375,71 C96.47,71 96,72.197 96,74.5 C96,76.944 95.548,78 94.5,78 C93.667,78 93,78.889 93,80 C93,81.556 93.667,82 96,82 Q99,82 99,83.5 C99,84.652 100.278,85 104.5,85 C108.866,85 110,85.329 110,86.594 C110,87.47 110.9,88.423 112,88.71 C113.1,88.998 114,89.856 114,90.617 C114,91.377 114.639,92 115.421,92 C116.972,92 118.546,86.692 117.498,84.996 C117.14,84.417 117.159,81.031 117.54,77.472 L118.233,71 L121.616,71 C124.817,71 125,71.19 125,74.5 C125,77.833 125.167,78 128.5,78 C131.333,78 132,77.619 132,76 C132,74.667 132.667,74 134,74 C135.111,74 136,73.333 136,72.5 C136,71.534 136.978,70.995 138.75,70.986 C143.032,70.965 146,69.899 146,68.383 C146,67.373 147.484,67 151.5,67 C155.722,67 157,66.652 157,65.5 C157,64.258 158.889,64 168,64 C177.111,64 179,64.258 179,65.5 C179,66.621 180.201,67.003 183.75,67.014 C189.923,67.031 193,67.897 193,69.617 C193,70.564 194.261,71 197,71 C199.889,71 201,71.417 201,72.5 C201,73.51 202.01,74 204.094,74 C206.346,74 207.329,74.544 207.71,76 C208,77.107 209.074,78 210.117,78 C211.152,78 212,78.639 212,79.421 C212,80.202 213.35,81.138 215,81.5 C216.65,81.862 218,82.798 218,83.579 C218,84.361 218.9,85 220,85 C221.333,85 222,85.667 222,87 C222,88.333 222.667,89 224,89 C225.333,89 226,89.667 226,91 C226,92.111 226.667,93 227.5,93 C228.325,93 229,93.675 229,94.5 C229,95.333 229.889,96 231,96 C232.619,96 233,96.667 233,99.5 C233,101.803 233.47,103 234.375,103 C235.746,103 237,107.12 237,111.625 C237,113.069 237.588,114 238.5,114 C239.787,114 240,117.056 240,135.5 C240,152.897 239.742,157 238.648,157 C237.017,157 236.015,167.717 236.006,185.25 C236.001,195.025 235.748,197 234.5,197 C233.236,197 233,199.278 233,211.5 C233,223.722 233.236,226 234.5,226 C235.325,226 236,226.717 236,227.594 C236,228.47 236.9,229.423 238,229.71 C239.1,229.998 240,230.856 240,231.617 C240,232.731 242.821,233 254.5,233 L269,233 L269,229.5 C269,226.667 269.381,226 271,226 C272.1,226 273,226.639 273,227.421 C273,228.202 274.312,229.129 275.916,229.482 C277.521,229.834 279.081,230.77 279.385,231.561 C279.689,232.352 280.626,233 281.469,233 C282.552,233 283,234.024 283,236.5 L283,240 L272.5,240 C264.258,240 262,240.296 262,241.375 C262,242.746 257.88,244 253.375,244 C252.02,244 251,244.594 251,245.383 C251,246.144 249.763,247.007 248.25,247.3 C244.41,248.046 240,247.016 240,245.375 C240,244.463 238.789,244 236.406,244 C233.654,244 232.69,243.532 232.29,242 C232.002,240.9 231.144,240 230.383,240 C229.623,240 229,239.325 229,238.5 C229,237.675 228.283,237 227.406,237 C226.53,237 225.577,236.1 225.29,235 C224.897,233.497 223.926,233 221.383,233 C219.127,233 218,233.473 218,234.421 C218,235.202 216.65,236.138 215,236.5 C213.35,236.862 212,237.798 212,238.579 C212,239.361 211.152,240 210.117,240 C209.074,240 208,240.893 207.71,242 C207.31,243.532 206.346,244 203.594,244 C201.237,244 200,244.466 200,245.355 C200,246.995 188.421,248.192 181.028,247.317 C175.555,246.669 175.037,245.845 175.014,237.75 C175.003,234.201 174.621,233 173.5,233 C172.452,233 172,231.944 172,229.5 C172,227.056 172.452,226 173.5,226 C174.333,226 175,225.111 175,224 C175,222.194 174.333,222 168.117,222 C162.074,222 161.169,221.756 160.71,220 C160.31,218.468 159.346,218 156.594,218 C154.066,218 153,217.555 153,216.5 C153,215.675 152.325,215 151.5,215 C150.348,215 150,213.722 150,209.5 C150,205.5 149.625,204 148.625,204 C147.028,204 145.853,199.277 146.671,196.149 C146.98,194.967 147.856,194 148.617,194 C149.377,194 150,193.15 150,192.111 C150,190.745 150.967,190.041 153.5,189.566 C155.595,189.173 157,188.325 157,187.455 C157,186.466 158.093,186 160.415,186 L163.829,186 L164.532,178.5 C165.036,173.122 165.626,171 166.617,171 C167.61,171 168,169.589 168,166 L168,161 L171.383,161 C175.526,161 175.936,162.158 175.241,171.88 L174.731,179 L180.366,179 C185.333,179 186,178.763 186,177 C186,175.127 186.667,175 196.5,175 C205.441,175 207,175.237 207,176.594 C207,177.47 207.855,178.411 208.901,178.684 C211.399,179.338 211.967,182.706 211.273,192.75 C210.86,198.732 210.331,201 209.351,201 C208.608,201 208,201.675 208,202.5 C208,203.333 207.111,204 206,204 C204.667,204 204,204.667 204,206 C204,207.111 203.333,208 202.5,208 C201.675,208 201,208.675 201,209.5 C201,210.333 200.111,211 199,211 C197.667,211 197,211.667 197,213 C197,214.619 196.333,215 193.5,215 C191.056,215 190,215.452 190,216.5 C190,217.333 189.111,218 188,218 C186.667,218 186,218.667 186,220 C186,221.1 185.353,222 184.561,222 C182.703,222 181.539,229.438 182.448,235.5 L183.123,240 L190.061,240 C196.333,240 197,239.808 197,238 C197,236.381 197.667,236 200.5,236 C202.944,236 204,235.548 204,234.5 C204,233.667 204.889,233 206,233 C207.1,233 208,232.345 208,231.545 C208,230.675 209.405,229.827 211.5,229.434 C214.933,228.79 215,228.684 215,223.889 C215,220.21 215.371,219 216.5,219 C217.333,219 218,218.111 218,217 C218,215.667 218.667,215 220,215 C221.667,215 222,214.333 222,211 C222,208.111 222.417,207 223.5,207 C224.62,207 225.046,205.669 225.183,201.75 C225.284,198.863 225.427,194.925 225.5,193 C225.573,191.075 225.716,185.338 225.817,180.25 C225.965,172.776 226.288,171 227.5,171 C228.801,171 229,166.944 229,140.5 C229,114.056 228.801,110 227.5,110 C226.49,110 226,108.99 226,106.906 C226,104.654 225.456,103.671 224,103.29 C222.893,103 222,101.926 222,100.883 C222,99.848 221.325,99 220.5,99 C219.675,99 219,98.325 219,97.5 C219,96.667 218.111,96 217,96 C215.667,96 215,95.333 215,94 C215,92.667 214.333,92 213,92 C211.889,92 211,91.333 211,90.5 C211,89.675 210.283,89 209.406,89 C208.53,89 207.577,88.1 207.29,87 C206.919,85.583 205.926,85 203.883,85 C202.067,85 201,84.478 201,83.588 C201,82.72 199.459,81.915 197,81.5 C194.541,81.085 193,80.28 193,79.412 C193,78.367 191.57,78 187.5,78 C183.5,78 182,77.625 182,76.625 C182,74.805 177.553,74 167.5,74 C157.447,74 153,74.805 153,76.625 C153,77.604 151.593,78 148.117,78 C144.074,78 143.143,78.344 142.71,80 C142.335,81.436 141.346,82 139.205,82 C136.588,82 136.142,82.429 135.566,85.5 C135.173,87.595 134.325,89 133.455,89 C132.38,89 132,90.277 132,93.883 C132,97.98 132.333,98.854 134.069,99.308 C135.728,99.742 136.075,100.506 135.819,103.166 C135.607,105.371 134.913,106.595 133.75,106.815 C132.348,107.081 132,106.436 132,103.573 C132,100.667 131.627,100 130,100 C128.667,100 128,99.333 128,98 C128,96.889 127.333,96 126.5,96 C125.348,96 125,97.278 125,101.5 C125,105.722 125.348,107 126.5,107 C127.714,107 128,108.595 128,115.353 C128,127.915 129.035,136 130.642,136 C131.734,136 132,139.427 132,153.5 C132,167.573 132.266,171 133.358,171 C135.311,171 136,179.64 136,204.147 C136,222.016 136.215,225 137.5,225 C138.325,225 139,224.325 139,223.5 C139,222.667 139.889,222 141,222 C142.758,222 143,222.667 143,227.5 C143,231.646 142.642,233 141.545,233 C140.675,233 139.827,234.405 139.434,236.5 C138.793,239.918 138.666,240 134.014,240 C129.478,240 129.22,239.85 128.625,236.875 C128.281,235.156 128,229.531 128,224.375 C128,216.708 127.727,215 126.5,215 C125.452,215 125,213.944 125,211.5 C125,209.056 125.452,208 126.5,208 C127.548,208 128,206.944 128,204.5 C128,202.056 127.548,201 126.5,201 C125.216,201 124.999,198.079 124.991,180.75 C124.981,157.421 124.346,150 122.361,150 C121.276,150 121,147.063 121,135.5 C121,121.667 120.908,121 119,121 C117.889,121 117,120.333 117,119.5 C117,118.675 116.325,118 115.5,118 C114.31,118 114,119.444 114,125 C114,130.556 113.69,132 112.5,132 C111.348,132 111,133.278 111,137.5 C111,141.722 111.348,143 112.5,143 C113.652,143 114,144.278 114,148.5 C114,152.722 113.652,154 112.5,154 C111.675,154 111,154.675 111,155.5 C111,156.433 110.056,157 108.5,157 C106.667,157 106,156.467 106,155 C106,153.431 105.333,153 102.906,153 C100.654,153 99.671,153.544 99.29,155 C99.002,156.1 98.144,157 97.383,157 C96.623,157 96,157.9 96,159 C96,160.333 95.333,161 94,161 C92.9,161 92,161.623 92,162.383 C92,163.899 89.032,164.965 84.75,164.986 C82.978,164.995 82,165.534 82,166.5 C82,167.333 81.111,168 80,168 C78.667,168 78,167.333 78,166 C78,164.889 77.333,164 76.5,164 C75.675,164 75,163.325 75,162.5 C75,161.367 76.222,161 80,161 C84.333,161 85,160.733 85,159 C85,157.667 85.667,157 87,157 C88.111,157 89,156.333 89,155.5 C89,154.348 87.722,154 83.5,154 C79.278,154 78,154.348 78,155.5 C78,156.548 76.944,157 74.5,157 C71.667,157 71,157.381 71,159 C71,160.619 70.333,161 67.5,161 C65.18,161 64,161.468 64,162.389 C64,163.184 62.505,164.058 60.5,164.434 C58.405,164.827 57,165.675 57,166.545 C57,167.345 56.1,168 55,168 C53.667,168 53,168.667 53,170 C53,171.111 53.667,172 54.5,172 C55.325,172 56,172.675 56,173.5 C56,174.69 54.556,175 49,175 L42,175 L42,169.5 C42,164.667 42.242,164 44,164 C45.1,164 46,163.361 46,162.579 C46,161.798 47.312,160.871 48.916,160.518 C50.521,160.166 52.081,159.23 52.385,158.439 C52.689,157.648 53.626,157 54.469,157 C55.311,157 56,156.365 56,155.588 C56,154.72 57.541,153.915 60,153.5 C62.459,153.085 64,152.28 64,151.412 C64,150.465 65.152,150 67.5,150 C69.944,150 71,149.548 71,148.5 C71,147.588 71.931,147 73.375,147 C77.88,147 82,145.746 82,144.375 C82,143.375 80.5,143 76.5,143 C72.278,143 71,143.348 71,144.5 C71,145.555 69.934,146 67.406,146 C64.654,146 63.69,146.468 63.29,148 C62.897,149.503 61.926,150 59.383,150 C57.169,150 56,150.478 56,151.383 C56,152.911 53.026,153.965 48.656,153.986 C46.647,153.996 45.659,153.413 45.29,152 C45.002,150.9 44.144,150 43.383,150 C42.623,150 42,149.1 42,148 C42,146.889 41.333,146 40.5,146 C39.675,146 39,145.325 39,144.5 C39,143.667 38.111,143 37,143 C35.667,143 35,142.333 35,141 C35,139.667 34.333,139 33,139 C31.381,139 31,138.333 31,135.5 C31,133.056 30.548,132 29.5,132 C28.452,132 28,130.944 28,128.5 C28,125.667 27.619,125 26,125 C24.242,125 24,124.333 24,119.5 C24,115.484 23.627,114 22.617,114 C21.041,114 20.034,111 20.014,106.25 C20.004,104.034 19.523,103 18.5,103 C17.263,103 17,101.18 17,92.617 C17,83.074 17.162,82.191 19,81.71 C20.1,81.423 21,80.47 21,79.594 C21,78.287 22.262,78 28,78 C33.556,78 35,78.31 35,79.5 C35,80.333 34.111,81 33,81 C31.667,81 31,81.667 31,83 C31,84.111 30.333,85 29.5,85 C28.66,85 27.928,85.99 27.836,87.25 C27.63,90.076 28.113,99.398 28.486,99.799 C29.277,100.648 34,98.586 34,97.392 C34,96.626 34.9,96 36,96 C37.1,96 38,95.381 38,94.625 C38,93.254 42.12,92 46.625,92 C48.79,92 49.001,91.58 49.014,87.25 C49.031,81.077 49.897,78 51.617,78 C52.531,78 53,76.813 53,74.5 C53,71.167 53.167,71 56.5,71 C58.944,71 60,71.452 60,72.5 C60,73.325 60.675,74 61.5,74 C62.548,74 63,75.056 63,77.5 C63,79.944 62.548,81 61.5,81 C60.452,81 60,82.056 60,84.5 C60,87.283 60.393,88 61.917,88 C62.971,88 64.02,87.439 64.249,86.753 C64.525,85.924 67.569,85.387 73.332,85.151 C81.052,84.834 82,84.587 82,82.897 C82,81.854 82.675,81 83.5,81 C84.548,81 85,79.944 85,77.5 C85,74.667 85.381,74 87,74 C88.619,74 89,73.333 89,70.5 C89,67.667 89.381,67 91,67 C92.1,67 93,66.358 93,65.573 C93,64.789 93.787,63.941 94.75,63.689 Z M95.75,171.728 C105.698,170.688 110,171.258 110,173.617 C110,174.377 110.9,175 112,175 C113.606,175 114,175.667 114,178.383 C114,181.278 113.603,181.844 111.25,182.3 C107.41,183.046 103,182.016 103,180.375 C103,179.47 101.803,179 99.5,179 C96.167,179 96,179.167 96,182.5 C96,185.333 96.381,186 98,186 C99.619,186 100,186.667 100,189.5 C100,192.779 99.795,193.001 96.75,193.014 C92,193.034 89,194.041 89,195.617 C89,196.377 89.675,197 90.5,197 C91.676,197 92,198.373 92,203.353 C92,214.045 93.127,222 94.642,222 C95.389,222 96,222.962 96,224.138 C96,226.14 96.347,226.235 101.5,225.629 C106.556,225.035 107,225.145 107,226.991 C107,228.759 107.659,229 112.5,229 C116.722,229 118,228.652 118,227.5 C118,226.675 118.675,226 119.5,226 C120.325,226 121,226.653 121,227.45 C121,228.248 121.787,229.365 122.75,229.932 C124.276,230.832 124.308,231.092 123,231.966 C122.175,232.518 120.713,232.976 119.75,232.985 C118.787,232.993 118,233.611 118,234.358 C118,236.066 108.397,237.19 101.143,236.33 L96,235.721 L96,241.361 C96,245.495 96.369,247 97.383,247 C98.144,247 99.002,246.1 99.29,245 C99.577,243.9 100.53,243 101.406,243 C102.671,243 103,244.134 103,248.5 C103,252.722 102.652,254 101.5,254 C100.445,254 100,255.066 100,257.594 C100,260.346 99.532,261.31 98,261.71 C96.9,261.998 96,262.856 96,263.617 C96,264.377 95.325,265 94.5,265 C93.675,265 93,264.283 93,263.406 C93,262.53 92.1,261.577 91,261.29 C89.14,260.803 89,259.926 89,248.79 C89,237.654 88.86,236.776 87,236.29 C85.9,236.002 85,235.144 85,234.383 C85,233.308 82.996,233 76,233 C67.667,233 67,232.852 67,231 C67,229.667 67.667,229 69,229 C70.1,229 71,228.377 71,227.617 C71,226.856 71.9,225.998 73,225.71 C74.1,225.423 75,224.47 75,223.594 C75,222.348 76.092,222 80,222 L85,222 L85,215 C85,209.444 84.69,208 83.5,208 C82.667,208 82,207.111 82,206 C82,204.667 81.333,204 80,204 C78.889,204 78,204.667 78,205.5 C78,206.325 77.283,207 76.406,207 C75.53,207 74.577,207.9 74.29,209 C74.002,210.1 73.144,211 72.383,211 C71.623,211 71,211.9 71,213 C71,214.333 70.333,215 69,215 C67.381,215 67,215.667 67,218.5 C67,221.333 66.619,222 65,222 C63.889,222 63,222.667 63,223.5 C63,224.325 62.325,225 61.5,225 C60.667,225 60,225.889 60,227 C60,228.333 59.333,229 58,229 C56.667,229 56,229.667 56,231 C56,232.111 55.333,233 54.5,233 C53.675,233 53,233.675 53,234.5 C53,235.325 52.283,236 51.406,236 C50.53,236 49.577,236.9 49.29,238 C49.002,239.1 48.194,240 47.495,240 C46.795,240 45.927,241.575 45.566,243.5 C45.173,245.595 44.325,247 43.455,247 C42.655,247 42,247.9 42,249 C42,250.1 41.345,251 40.545,251 C39.675,251 38.827,252.405 38.434,254.5 C38.058,256.505 37.184,258 36.389,258 C35.372,258 35,259.474 35,263.5 L35,269 L31.75,268.986 C27,268.966 24,267.959 24,266.383 C24,265.623 24.675,265 25.5,265 C26.412,265 27,264.069 27,262.625 C27,258.12 28.254,254 29.625,254 C30.495,254 31,252.865 31,250.906 C31,248.654 31.544,247.671 33,247.29 C34.107,247 35,245.926 35,244.883 C35,243.848 35.639,243 36.421,243 C37.202,243 38.138,241.65 38.5,240 C38.862,238.35 39.798,237 40.579,237 C41.361,237 42,236.1 42,235 C42,233.667 42.667,233 44,233 C45.333,233 46,232.333 46,231 C46,229.889 46.667,229 47.5,229 C48.333,229 49,228.111 49,227 C49,225.667 49.667,225 51,225 C52.111,225 53,224.333 53,223.5 C53,222.675 53.625,222 54.389,222 C55.184,222 56.058,220.505 56.434,218.5 C56.827,216.405 57.675,215 58.545,215 C59.345,215 60,214.1 60,213 C60,211.889 60.667,211 61.5,211 C62.325,211 63,210.283 63,209.406 C63,208.53 63.9,207.577 65,207.29 C66.1,207.002 67,206.144 67,205.383 C67,204.623 67.675,204 68.5,204 C69.325,204 70,203.283 70,202.406 C70,201.53 70.9,200.577 72,200.29 C73.1,200.002 74,199.144 74,198.383 C74,197.623 74.9,197 76,197 C77.619,197 78,196.333 78,193.5 C78,190.167 77.833,190 74.5,190 C72.056,190 71,190.452 71,191.5 C71,192.523 69.966,193.004 67.75,193.014 C63,193.034 60,194.041 60,195.617 C60,196.377 59.325,197 58.5,197 C57.675,197 57,197.717 57,198.594 C57,199.47 56.1,200.423 55,200.71 C53.9,200.998 53,201.856 53,202.617 C53,203.692 50.996,204 44,204 L35,204 L35,200.5 C35,197.667 35.381,197 37,197 C38.1,197 39,196.345 39,195.545 C39,194.675 40.405,193.827 42.5,193.434 C44.454,193.067 46,192.179 46,191.423 C46,190.553 47.788,189.832 51,189.406 C54.246,188.975 56,188.261 56,187.371 C56,186.438 57.278,186 60,186 C63.333,186 64,185.667 64,184 C64,182.381 64.667,182 67.5,182 C69.944,182 71,181.548 71,180.5 C71,179.369 72.217,179 75.95,179 C79.456,179 81.163,178.531 81.799,177.394 C82.34,176.428 84.551,175.58 87.349,175.264 C90.249,174.937 92,174.247 92,173.43 C92,172.653 93.525,171.961 95.75,171.728 Z M190,126.5 C190,125.236 192.278,125 204.5,125 C216.722,125 219,125.236 219,126.5 C219,127.325 219.675,128 220.5,128 C221.333,128 222,128.889 222,130 C222,131.333 222.667,132 224,132 C225.804,132 225.999,132.662 225.986,138.75 C225.97,146.848 225.241,150 223.383,150 C222.623,150 222,150.933 222,152.073 C222,153.509 221.462,154.044 220.25,153.812 C218.77,153.529 218.455,152.13 218.211,144.739 C217.984,137.873 217.609,136 216.461,136 C215.657,136 215,135.1 215,134 C215,132.381 214.333,132 211.5,132 C209.215,132 208,132.472 208,133.361 C208,134.751 201.378,135.974 193.75,135.991 C191.087,135.997 190,136.435 190,137.5 C190,138.523 188.966,139.004 186.75,139.014 C182,139.034 179,140.041 179,141.617 C179,142.627 177.516,143 173.5,143 C168.667,143 168,143.242 168,145 C168,146.333 167.333,147 166,147 C164.889,147 164,147.667 164,148.5 C164,149.629 162.79,150 159.111,150 C154.316,150 154.21,150.067 153.566,153.5 C153.173,155.595 152.325,157 151.455,157 C150.459,157 150,158.104 150,160.5 C150,162.944 150.452,164 151.5,164 C152.333,164 153,164.889 153,166 C153,167.549 152.333,168 150.045,168 C147.46,168 147.008,167.562 146.434,164.5 C146.073,162.575 145.205,161 144.505,161 C142.855,161 142.129,157.039 142.756,151.469 C143.218,147.371 143.505,146.996 146.628,146.41 C148.535,146.052 150,145.174 150,144.389 C150,143.625 150.9,143 152,143 C153.1,143 154,142.345 154,141.545 C154,140.675 155.405,139.827 157.5,139.434 C159.425,139.073 161,138.203 161,137.5 C161,136.797 162.575,135.927 164.5,135.566 C166.595,135.173 168,134.325 168,133.455 C168,132.323 169.527,132 174.883,132 C180.926,132 181.831,131.756 182.29,130 C182.69,128.468 183.654,128 186.406,128 C188.934,128 190,127.555 190,126.5 Z M88.518,95.916 C88.166,97.521 87.23,99.081 86.439,99.385 C85.648,99.689 85,100.851 85,101.969 C85,103.108 84.341,104 83.5,104 C82.49,104 82,105.01 82,107.094 C82,109.346 81.456,110.329 80,110.71 C78.344,111.143 78,112.074 78,116.117 C78,119.593 77.604,121 76.625,121 C75.254,121 74,125.12 74,129.625 C74,131.914 74.272,132 81.5,132 C87.5,132 89,131.7 89,130.5 C89,129.452 90.056,129 92.5,129 C94.944,129 96,129.452 96,130.5 C96,131.548 97.056,132 99.5,132 C102.333,132 103,131.619 103,130 C103,128.9 103.623,128 104.383,128 C106.442,128 106.973,124.724 106.973,112 C106.973,96.198 106.897,96 100.883,96 C97.209,96 96,95.629 96,94.5 C96,93.459 94.953,93 92.579,93 C89.614,93 89.074,93.388 88.518,95.916 Z M46,101.5 C46,102.333 45.111,103 44,103 C42.667,103 42,103.667 42,105 C42,106.111 41.333,107 40.5,107 C39.452,107 39,108.056 39,110.5 C39,113.917 38.905,114 35,114 C32.007,114 31,114.401 31,115.594 C31,116.47 31.9,117.423 33,117.71 C34.503,118.103 35,119.074 35,121.617 C35,123.957 35.462,125 36.5,125 C37.548,125 38,126.056 38,128.5 C38,131.333 38.381,132 40,132 C41.333,132 42,132.667 42,134 C42,135.111 42.667,136 43.5,136 C44.325,136 45,136.675 45,137.5 C45,138.583 46.111,139 49,139 C51.746,139 53,138.565 53,137.611 C53,136.816 54.495,135.942 56.5,135.566 C58.595,135.173 60,134.325 60,133.455 C60,132.655 60.9,132 62,132 C63.619,132 64,131.333 64,128.5 C64,126.056 64.452,125 65.5,125 C66.548,125 67,123.944 67,121.5 L67,118 L61.5,118 C56.667,118 56,117.758 56,116 C56,114.889 55.333,114 54.5,114 C53.667,114 53,113.111 53,112 C53,110.9 52.377,110 51.617,110 C50.101,110 49.035,107.032 49.014,102.75 C49.005,100.978 48.466,100 47.5,100 C46.675,100 46,100.675 46,101.5 Z M74.15,32.696 C74.927,31.308 76.649,31 83.643,31 C91.346,31 92.239,31.197 92.71,33 C92.998,34.1 93.856,35 94.617,35 C95.531,35 96,36.187 96,38.5 C96,40.896 95.541,42 94.545,42 C93.675,42 92.827,43.405 92.434,45.5 C92.058,47.505 91.184,49 90.389,49 C89.625,49 89,49.9 89,51 C89,52.333 88.333,53 87,53 C85.19,53 85,52.333 85,46 C85,40.444 84.69,39 83.5,39 C82.675,39 82,39.675 82,40.5 C82,41.652 80.722,42 76.5,42 C72.5,42 71,42.375 71,43.375 C71,44.746 66.88,46 62.375,46 C60.931,46 60,46.588 60,47.5 C60,48.652 58.722,49 54.5,49 C49.667,49 49,49.242 49,51 C49,52.619 48.333,53 45.5,53 C43.056,53 42,53.452 42,54.5 C42,55.325 41.377,56 40.617,56 C39.115,56 38.035,53.04 38.014,48.861 C38.002,46.634 38.545,46.12 41.5,45.566 C43.595,45.173 45,44.325 45,43.455 C45,42.468 46.089,42 48.383,42 C50.926,42 51.897,41.503 52.29,40 C52.69,38.468 53.654,38 56.406,38 C58.8,38 60,37.538 60,36.616 C60,35.621 61.85,35.115 66.6,34.813 C71.462,34.503 73.451,33.945 74.15,32.696 Z M190,187.594 C190,188.47 189.1,189.423 188,189.71 C186.344,190.143 186,191.074 186,195.117 C186,199.333 186.273,200 188,200 C189.111,200 190,199.333 190,198.5 C190,197.367 191.222,197 195,197 C199.333,197 200,196.733 200,195 C200,193.667 200.667,193 202,193 C203.619,193 204,192.333 204,189.5 L204,186 L197,186 C191.262,186 190,186.287 190,187.594 Z M60,110 L63.5,110 C65.944,110 67,109.548 67,108.5 C67,107.667 67.889,107 69,107 C70.333,107 71,106.333 71,105 C71,103.9 71.623,103 72.383,103 C73.669,103 74.955,100.16 74.986,97.25 C74.996,96.36 72.841,96 67.5,96 L60,96 L60,110 Z M169.75,193.672 C168.787,193.933 168,194.789 168,195.573 C168,196.358 167.365,197 166.588,197 C164.847,197 163.563,203.735 164.495,207.978 C165.152,210.967 168,212.294 168,209.611 C168,208.816 169.495,207.942 171.5,207.566 C174.91,206.926 175.004,206.782 175.167,201.955 C175.258,199.23 175.371,196.213 175.417,195.25 C175.502,193.453 173.061,192.773 169.75,193.672 Z M85.688,139.646 C84.272,141.061 85.073,143 87.073,143 C88.471,143 89.041,142.457 88.823,141.333 C88.466,139.492 86.759,138.574 85.688,139.646 Z M104,220.5 C104,219.675 104.45,219 105,219 C105.55,219 106,219.675 106,220.5 C106,221.325 105.55,222 105,222 C104.45,222 104,221.325 104,220.5 Z"/>
</svg>

