<svg xmlns="http://www.w3.org/2000/svg" width="300" height="300" viewBox="0 0 300 300" version="1.1">
  <defs/>
  <path d="M70,39 C70,37.242 70.667,37 75.5,37 C79.241,37 80.996,37.4 80.986,38.25 C80.952,41.378 79.646,43.859 77.775,44.348 C76.206,44.759 75.879,45.415 76.354,47.191 C76.694,48.461 76.979,50.687 76.986,52.139 C76.998,54.348 77.558,54.882 80.427,55.42 C82.312,55.774 84.037,56.612 84.26,57.282 C84.558,58.18 90.744,58.583 107.832,58.818 C127.125,59.082 131,59.375 131,60.568 C131,61.355 131.648,62 132.441,62 C134.694,62 135.261,63.775 134.542,68.571 C134.11,71.45 133.374,73 132.439,73 C131.461,73 131,74.122 131,76.5 C131,79.036 130.561,80 129.406,80 C128.53,80 127.577,80.9 127.29,82 C127.002,83.1 126.194,84 125.495,84 C124.795,84 123.927,85.575 123.566,87.5 C123.173,89.595 122.325,91 121.455,91 C120.655,91 120,91.9 120,93 C120,94.111 119.333,95 118.5,95 C117.675,95 117,95.717 117,96.594 C117,97.47 116.1,98.423 115,98.71 C113.565,99.086 113,100.074 113,102.21 C113,104.346 112.435,105.335 111,105.71 C109.9,105.998 109,106.856 109,107.617 C109,108.377 108.325,109 107.5,109 C106.667,109 106,109.889 106,111 C106,112.333 105.333,113 104,113 C102.381,113 102,113.667 102,116.5 C102,119.333 102.381,120 104,120 C105.163,120 106,120.667 106,121.594 C106,122.47 105.1,123.423 104,123.71 C102.9,123.998 102,124.856 102,125.617 C102,126.377 101.1,127 100,127 C98.889,127 98,126.333 98,125.5 C98,124.667 97.111,124 96,124 C94.889,124 94,124.667 94,125.5 C94,126.325 93.55,127 93,127 C92.45,127 92,126.325 92,125.5 C92,124.352 90.735,124 86.617,124 C81.879,124 81.161,124.27 80.63,126.25 C79.462,130.609 79.81,131 84.853,131 C94.154,131 102,129.791 102,128.358 C102,127.296 104.402,127 113,127 L124,127 L123.986,130.25 C123.966,135 122.959,138 121.383,138 C120.623,138 120,138.9 120,140 C120,141.333 119.333,142 118,142 C116.667,142 116,142.667 116,144 C116,145.1 115.361,146 114.579,146 C113.798,146 112.862,147.35 112.5,149 C112.138,150.65 111.202,152 110.421,152 C109.639,152 109,152.9 109,154 C109,155.619 108.333,156 105.5,156 C102.667,156 102,156.381 102,158 C102,159.1 101.377,160 100.617,160 C99.331,160 98.045,162.84 98.014,165.75 C98.006,166.438 98.9,167 100,167 C101.619,167 102,167.667 102,170.5 C102,173.833 101.833,174 98.5,174 C95.667,174 95,174.381 95,176 C95,177.619 94.333,178 91.5,178 C89.056,178 88,178.452 88,179.5 C88,180.333 87.111,181 86,181 C84.667,181 84,181.667 84,183 C84,184.333 83.333,185 82,185 C80.889,185 80,185.667 80,186.5 C80,187.325 79.325,188 78.5,188 C77.667,188 77,188.889 77,190 C77,191.758 77.667,192 82.5,192 C86.722,192 88,192.348 88,193.5 C88,194.633 89.222,195 93,195 C96.778,195 98,194.633 98,193.5 C98,192.667 98.889,192 100,192 C101.758,192 102,191.333 102,186.5 C102,182.484 102.373,181 103.383,181 C104.144,181 105.002,180.1 105.29,179 C105.725,177.334 106.654,177 110.847,177 C113.616,177 116.132,177.404 116.437,177.897 C117.409,179.47 115.804,185 114.375,185 C113.619,185 113,185.9 113,187 C113,188.1 112.374,189 111.608,189 C110.105,189 108.563,193.484 109.528,195.046 C109.853,195.571 111.666,196 113.559,196 C115.951,196 117,196.457 117,197.5 C117,198.724 118.681,199 126.125,199 L135.25,199 L134.615,202.177 C134.265,203.924 133.745,205.589 133.458,205.875 C133.172,206.162 128.16,206.286 122.321,206.151 C110.319,205.874 106,206.517 106,208.579 C106,209.361 105.1,210 104,210 C102.242,210 102,210.667 102,215.5 C102,219.646 101.642,221 100.545,221 C99.675,221 98.827,222.405 98.434,224.5 C98.058,226.505 97.184,228 96.389,228 C95.625,228 95,228.9 95,230 C95,231.1 94.377,232 93.617,232 C92.856,232 91.998,232.9 91.71,234 C91.423,235.1 90.47,236 89.594,236 C88.717,236 88,236.675 88,237.5 C88,238.333 87.111,239 86,239 C84.381,239 84,239.667 84,242.5 C84,245.917 84.095,246 88,246 C90.789,246 92,246.43 92,247.421 C92,249.501 97.23,250.307 105.621,249.521 C110.99,249.018 113,248.444 113,247.415 C113,246.465 114.149,246 116.5,246 C118.944,246 120,245.548 120,244.5 C120,243.452 121.056,243 123.5,243 C126.691,243 127,243.255 127,245.883 C127,247.926 126.417,248.919 125,249.29 C123.9,249.577 123,250.53 123,251.406 C123,252.561 122.036,253 119.5,253 C116.667,253 116,253.381 116,255 C116,256.905 115.333,257 102,257 C90.61,257 88,256.737 88,255.588 C88,254.72 86.459,253.915 84,253.5 C81.74,253.118 80,252.261 80,251.529 C80,250.106 76.961,249.035 72.867,249.014 C70.067,248.999 69.04,247.064 69.014,241.75 C69.005,239.978 68.466,239 67.5,239 C66.667,239 66,238.111 66,237 C66,235.667 65.333,235 64,235 C62.381,235 62,234.333 62,231.5 C62,229.2 61.529,228 60.627,228 C59.707,228 59.093,226.317 58.764,222.893 C58.494,220.085 57.706,217.436 57.013,217.008 C56.319,216.579 55.638,214.04 55.499,211.364 C55.359,208.689 55.19,205.713 55.122,204.75 C54.976,202.659 51,202.32 51,204.399 C51,205.396 48.995,205.998 44,206.5 C39.005,207.002 37,207.604 37,208.601 C37,209.609 35.633,210 32.117,210 C28.074,210 27.143,210.344 26.71,212 C26.423,213.1 25.47,214 24.594,214 C23.717,214 23,214.675 23,215.5 C23,216.333 22.111,217 21,217 C19.242,217 19,217.667 19,222.5 C19,226.722 18.652,228 17.5,228 C16.675,228 16,227.325 16,226.5 C16,225.667 15.111,225 14,225 C12.178,225 12,224.333 12,217.5 C12,210.667 12.178,210 14,210 C15.333,210 16,209.333 16,208 C16,206.444 16.667,206 19,206 Q22,206 22,204.5 C22,203.417 23.111,203 26,203 C29.333,203 30,202.667 30,201 C30,199.242 30.667,199 35.5,199 C39.492,199 41,198.624 41,197.629 C41,196.621 43.385,196.071 50,195.554 C56.793,195.022 59,194.5 59,193.425 C59,192.641 59.9,192 61,192 C62.619,192 63,191.333 63,188.5 C63,185.735 62.603,185 61.111,185 C59.745,185 59.041,184.033 58.566,181.5 C58.173,179.405 57.325,178 56.455,178 C55.655,178 55,177.1 55,176 C55,174.9 54.377,174 53.617,174 C52.856,174 51.998,173.1 51.71,172 C51.423,170.9 50.47,170 49.594,170 C48.439,170 48,169.036 48,166.5 C48,163.667 47.619,163 46,163 C44.381,163 44,162.333 44,159.5 C44,157.056 43.548,156 42.5,156 C41.417,156 41,154.889 41,152 C41,149.111 41.417,148 42.5,148 C43.325,148 44,147.325 44,146.5 C44,145.452 45.056,145 47.5,145 C49.944,145 51,144.548 51,143.5 C51,142.667 51.889,142 53,142 C54.333,142 55,141.333 55,140 C55,138.242 55.667,138 60.5,138 C64.646,138 66,137.642 66,136.545 C66,135.675 67.405,134.827 69.5,134.434 C72.923,133.792 74.549,131 71.5,131 C70.675,131 70,130.325 70,129.5 C70,128.667 69.111,128 68,128 C66.889,128 66,128.667 66,129.5 C66,130.333 65.111,131 64,131 C62.889,131 62,131.667 62,132.5 C62,134.029 61.377,134.125 49.75,134.383 L44.5,134.5 L44.19,130.75 C43.923,127.53 44.17,127 45.94,127 C47.083,127 48,126.348 48,125.534 C48,124.531 49.576,123.86 53,123.406 C56.246,122.975 58,122.261 58,121.371 C58,120.362 59.584,120 64,120 L70,120 L70,116.5 C70,113.667 69.619,113 68,113 C66.9,113 66,113.626 66,114.392 C66,116.179 62.068,117.164 58.098,116.37 C55.368,115.824 55,115.349 55,112.375 C55,110.151 54.523,109 53.601,109 C52.604,109 52.002,106.995 51.5,102 C50.998,97.005 50.396,95 49.399,95 C48.629,95 48,94.1 48,93 C48,91.9 47.381,91 46.625,91 C45.096,91 44,86.772 44,80.875 C44,78.257 43.555,77 42.627,77 C41.718,77 41.105,75.395 40.813,72.25 C40.145,65.079 40.968,59 42.605,59 C43.372,59 44,58.081 44,56.957 C44,55.272 44.571,54.953 47.25,55.136 C49.038,55.259 53.987,55.279 58.25,55.18 L66,55 L66,48 C66,41.667 66.19,41 68,41 C69.333,41 70,40.333 70,39 Z M189,46.5 C189,45.675 189.675,45 190.5,45 C191.325,45 192,45.675 192,46.5 C192,47.333 192.889,48 194,48 C195.111,48 196,48.667 196,49.5 C196,50.325 196.675,51 197.5,51 C198.652,51 199,52.278 199,56.5 C199,60.722 198.652,62 197.5,62 C196.675,62 196,61.325 196,60.5 C196,59.667 195.111,59 194,59 C192.889,59 192,59.667 192,60.5 C192,61.325 191.325,62 190.5,62 C189.667,62 189,62.889 189,64 C189,65.333 188.333,66 187,66 C185.381,66 185,66.667 185,69.5 C185,72.333 184.619,73 183,73 C181.381,73 181,73.667 181,76.5 C181,78.82 180.532,80 179.611,80 C178.816,80 177.942,81.495 177.566,83.5 C177.173,85.595 176.325,87 175.455,87 C174.655,87 174,87.831 174,88.846 C174,90.523 175.308,90.754 188.25,91.37 C196.088,91.743 202.65,92.487 202.833,93.024 C203.274,94.313 210,94.291 210,93 C210,91.609 212.747,91.741 213.218,93.155 C213.615,94.344 217.623,94.681 233.75,94.884 C242.295,94.991 243,95.153 243,97 C243,98.111 243.667,99 244.5,99 C245.325,99 246,99.675 246,100.5 C246,101.344 245.106,102 243.956,102 C242.564,102 242.006,102.558 242.206,103.75 C242.402,104.918 241.752,105.606 240.25,105.82 C239.012,105.995 238,106.783 238,107.57 C238,108.492 236.935,109 235,109 C232.667,109 232,109.444 232,111 C232,112.333 231.333,113 230,113 C228.667,113 228,113.667 228,115 C228,116.111 227.333,117 226.5,117 C225.675,117 225,117.675 225,118.5 C225,119.333 224.111,120 223,120 C221.667,120 221,120.667 221,122 C221,123.1 220.345,124 219.545,124 C218.675,124 217.827,125.405 217.434,127.5 C217.058,129.505 216.184,131 215.389,131 C214.468,131 214,132.18 214,134.5 C214,137.333 213.619,138 212,138 C210.381,138 210,138.667 210,141.5 C210,143.803 209.53,145 208.625,145 C207.254,145 206,149.12 206,153.625 C206,155.069 205.412,156 204.5,156 C203.456,156 203,157.05 203,159.45 C203,161.579 202.385,163.245 201.394,163.799 C200.428,164.34 199.58,166.551 199.264,169.349 C198.924,172.365 198.258,174 197.37,174 C196.471,174 196,175.203 196,177.5 C196,180.333 195.619,181 194,181 C192.242,181 192,181.667 192,186.5 C192,190.532 191.629,192 190.608,192 C188.836,192 187.709,196.4 188.528,200.128 C189.073,202.608 189.626,203 192.579,203 C194.953,203 196,203.459 196,204.5 C196,205.51 197.01,206 199.094,206 C201.346,206 202.329,206.544 202.71,208 C203.103,209.503 204.074,210 206.617,210 C208.837,210 210,210.477 210,211.389 C210,212.184 211.495,213.058 213.5,213.434 C215.595,213.827 217,214.675 217,215.545 C217,216.532 218.089,217 220.383,217 C222.926,217 223.897,217.497 224.29,219 C224.671,220.456 225.654,221 227.906,221 C229.879,221 231,221.503 231,222.389 C231,223.184 232.495,224.058 234.5,224.434 C236.595,224.827 238,225.675 238,226.545 C238,227.345 238.9,228 240,228 C241.1,228 242,228.625 242,229.389 C242,230.184 243.495,231.058 245.5,231.434 C247.595,231.827 249,232.675 249,233.545 C249,234.576 250.166,235 253,235 C256.333,235 257,235.333 257,237 C257,238.333 257.667,239 259,239 C260.1,239 261,239.639 261,240.421 C261,241.202 262.35,242.138 264,242.5 C265.65,242.862 267,243.798 267,244.579 C267,245.428 268.007,246 269.5,246 C270.993,246 272,246.572 272,247.421 C272,248.202 273.35,249.138 275,249.5 C276.65,249.862 278,250.798 278,251.579 C278,252.361 278.9,253 280,253 C281.1,253 282,253.655 282,254.455 C282,255.325 283.405,256.173 285.5,256.566 C288.682,257.163 289,257.53 289,260.611 C289,263.817 288.811,264 285.5,264 C283.18,264 282,263.532 282,262.611 C282,261.816 280.505,260.942 278.5,260.566 C276.563,260.203 275,259.31 275,258.566 C275,257.827 273.468,256.935 271.597,256.584 C269.725,256.233 267.939,255.283 267.628,254.473 C267.302,253.624 265.779,253 264.031,253 C262.003,253 261,252.503 261,251.5 C261,250.667 260.111,250 259,250 C257.667,250 257,249.333 257,248 C257,246.667 256.333,246 255,246 C253.9,246 253,245.375 253,244.611 C253,243.816 251.505,242.942 249.5,242.566 C247.405,242.173 246,241.325 246,240.455 C246,239.424 244.832,239 241.99,239 C239.218,239 237.452,238.383 236.268,237 C235.326,235.9 233.981,235 233.278,235 C232.575,235 232,234.375 232,233.611 C232,232.816 230.505,231.942 228.5,231.566 C226.405,231.173 225,230.325 225,229.455 C225,228.424 223.834,228 221,228 C217.667,228 217,227.667 217,226 C217,224.381 216.333,224 213.5,224 C211.18,224 210,223.532 210,222.611 C210,221.816 208.505,220.942 206.5,220.566 C204.405,220.173 203,219.325 203,218.455 C203,217.655 202.1,217 201,217 C199.889,217 199,216.333 199,215.5 C199,214.588 198.069,214 196.625,214 C192.12,214 188,212.746 188,211.375 C188,210.392 186.576,210 183,210 L178,210 L178,213.5 C178,216.333 177.619,217 176,217 C174.333,217 174,217.667 174,221 C174,223.789 173.57,225 172.579,225 C171.798,225 170.862,226.35 170.5,228 C170.138,229.65 169.202,231 168.421,231 C167.639,231 167,231.914 167,233.031 C167,234.149 166.352,235.311 165.561,235.615 C164.77,235.919 163.834,237.479 163.482,239.084 C163.129,240.688 162.202,242 161.421,242 C160.639,242 160,242.9 160,244 C160,245.333 159.333,246 158,246 C156.667,246 156,246.667 156,248 C156,249.111 155.333,250 154.5,250 C153.675,250 153,250.675 153,251.5 C153,252.333 152.111,253 151,253 C149.667,253 149,253.667 149,255 C149,256.607 148.333,257 145.611,257 C142.552,257 142.177,256.684 141.749,253.75 C141.324,250.829 141.339,248.845 141.849,241.25 C142.037,238.454 145,238.219 145,241 C145,242.333 145.667,243 147,243 C148.111,243 149,243.667 149,244.5 C149,247.549 151.792,245.923 152.434,242.5 C152.827,240.405 153.675,239 154.545,239 C155.345,239 156,238.1 156,237 C156,235.9 156.625,235 157.389,235 C158.184,235 159.058,233.505 159.434,231.5 C159.827,229.405 160.675,228 161.545,228 C162.541,228 163,226.896 163,224.5 C163,221.667 163.381,221 165,221 C166.333,221 167,220.333 167,219 C167,217.9 167.625,217 168.389,217 C169.184,217 170.058,215.505 170.434,213.5 C170.827,211.405 171.675,210 172.545,210 C173.576,210 174,208.834 174,206 C174,203.248 173.566,202 172.607,202 C171.841,202 170.955,201.325 170.638,200.5 C170.322,199.675 169.374,199 168.531,199 C167.689,199 167,198.375 167,197.611 C167,196.816 165.505,195.942 163.5,195.566 C161.405,195.173 160,194.325 160,193.455 C160,192.655 159.1,192 158,192 C156.889,192 156,191.333 156,190.5 C156,189.675 155.283,189 154.406,189 C153.53,189 152.577,188.1 152.29,187 C151.914,185.565 150.926,185 148.79,185 C146.654,185 145.665,184.435 145.29,183 C145.002,181.9 144.197,181 143.5,181 C142.803,181 141.998,180.1 141.71,179 C141.423,177.9 140.47,177 139.594,177 C138.49,177 138,176.078 138,174 Q138,171 139.5,171 C140.333,171 141,170.111 141,169 C141,167.333 141.667,167 145,167 C148.905,167 149,167.083 149,170.5 C149,173.333 149.381,174 151,174 C152.333,174 153,174.667 153,176 C153,177.111 153.667,178 154.5,178 C155.325,178 156,178.675 156,179.5 C156,180.333 156.889,181 158,181 C159.1,181 160,181.655 160,182.455 C160,183.325 161.405,184.173 163.5,184.566 C165.505,184.942 167,185.816 167,186.611 C167,187.375 167.717,188 168.594,188 C169.47,188 170.423,188.9 170.71,190 C171.143,191.656 172.074,192 176.117,192 L181,192 L181,188.5 C181,186.068 181.454,185 182.488,185 C183.451,185 184.202,183.588 184.616,181 C185.002,178.587 185.8,177 186.628,177 C187.455,177 188.005,175.907 188.014,174.25 C188.035,169.968 189.101,167 190.617,167 C191.531,167 192,165.813 192,163.5 C192,161.197 192.47,160 193.375,160 C194.746,160 196,155.88 196,151.375 C196,149.931 196.588,149 197.5,149 C198.583,149 199,147.889 199,145 C199,142.261 199.436,141 200.383,141 C201.899,141 202.965,138.032 202.986,133.75 C202.995,132.077 203.544,131 204.389,131 C205.184,131 206.058,129.505 206.434,127.5 C206.827,125.405 207.675,124 208.545,124 C209.345,124 210,123.1 210,122 C210,120.9 210.625,120 211.389,120 C212.184,120 213.058,118.505 213.434,116.5 C213.827,114.405 214.675,113 215.545,113 C216.345,113 217,112.1 217,111 C217,109.667 217.667,109 219,109 C220.333,109 221,108.333 221,107 C221,105.889 221.667,105 222.5,105 C223.325,105 224,104.325 224,103.5 C224,102.199 219.944,102 193.5,102 L163,102 L163.014,97.25 C163.031,91.077 163.897,88 165.617,88 C166.531,88 167,86.813 167,84.5 C167,82.056 167.452,81 168.5,81 C169.356,81 170,80.101 170,78.906 C170,77.654 170.803,76.603 172,76.29 C173.503,75.897 174,74.926 174,72.383 C174,70.169 174.478,69 175.383,69 C176.899,69 177.965,66.032 177.986,61.75 C177.995,60.077 178.544,59 179.389,59 C180.184,59 181.058,57.505 181.434,55.5 C181.827,53.405 182.675,52 183.545,52 C184.345,52 185,51.1 185,50 C185,48.667 185.667,48 187,48 C188.111,48 189,47.333 189,46.5 Z M77,91 L80.5,91 C82.813,91 84,90.531 84,89.617 C84,88.041 87,87.034 91.75,87.014 C93.966,87.004 95,86.523 95,85.5 C95,84.371 96.209,84 99.883,84 C103.926,84 104.857,84.344 105.29,86 C105.577,87.1 106.53,88 107.406,88 C108.283,88 109,88.675 109,89.5 C109,90.333 109.889,91 111,91 C112.619,91 113,90.333 113,87.5 C113,84.667 113.381,84 115,84 C116.333,84 117,83.333 117,82 C117,80.889 117.667,80 118.5,80 Q120,80 120,77 Q120,74 121.5,74 C122.325,74 123,73.136 123,72.079 C123,69.737 119.128,68.706 111.689,69.066 C103.837,69.446 102,69.149 102,67.5 C102,66.247 99.944,66 89.5,66 L77,66 L77,91 Z M73.75,202.675 C71.36,202.959 70,203.643 70,204.56 C70,205.352 69.1,206 68,206 C66.194,206 66,206.667 66,212.883 C66,218.926 66.244,219.831 68,220.29 C69.532,220.69 70,221.654 70,224.406 C70,226.934 70.445,228 71.5,228 C72.548,228 73,229.056 73,231.5 C73,234.333 73.381,235 75,235 C76.111,235 77,235.667 77,236.5 C77,237.325 77.675,238 78.5,238 C79.325,238 80,237.325 80,236.5 C80,235.667 80.889,235 82,235 C83.333,235 84,234.333 84,233 C84,231.9 84.639,231 85.421,231 C86.202,231 87.138,229.65 87.5,228 C87.862,226.35 88.798,225 89.579,225 C90.543,225 91,223.845 91,221.406 C91,218.654 91.468,217.69 93,217.29 C94.688,216.848 95,215.926 95,211.383 C95,207.265 95.352,206 96.5,206 C97.325,206 98,205.325 98,204.5 C98,203.358 96.746,202.998 92.75,202.991 C89.862,202.987 85.25,202.813 82.5,202.606 C79.75,202.399 75.813,202.43 73.75,202.675 Z M105.638,136.5 C105.202,137.637 103.359,138 98.031,138 C92.711,138 91,138.337 91,139.383 C91,140.885 88.04,141.965 83.867,141.986 C80.571,142.003 80.032,143.789 80.014,154.75 C80.003,161.411 79.711,163 78.5,163 C77.675,163 77,163.675 77,164.5 C77,165.325 77.675,166 78.5,166 C79.325,166 80,165.325 80,164.5 C80,163.417 81.111,163 84,163 C86.789,163 88,162.57 88,161.579 C88,160.798 89.321,159.869 90.935,159.514 C93.139,159.03 94.03,158.139 94.514,155.935 C94.881,154.264 95.811,153 96.673,153 C97.506,153 98.423,152.1 98.71,151 C98.998,149.9 99.856,149 100.617,149 C101.377,149 102,148.1 102,147 C102,145.667 102.667,145 104,145 C105.111,145 106,144.333 106,143.5 C106,142.675 106.675,142 107.5,142 C108.333,142 109,141.111 109,140 C109,138.889 109.667,138 110.5,138 C111.325,138 112,137.325 112,136.5 C112,135.512 111.012,135 109.107,135 C107.458,135 105.966,135.645 105.638,136.5 Z M52,73.5 C52,79.5 52.3,81 53.5,81 C54.51,81 55,82.01 55,84.094 C55,86.346 55.544,87.329 57,87.71 C58.797,88.18 59,89.074 59,96.5 C59,104.228 59.147,104.806 61.25,105.37 C65.487,106.505 66,106.141 66,102 C66,99.111 66.417,98 67.5,98 C68.325,98 69,97.325 69,96.5 C69,95.675 68.325,95 67.5,95 C66.244,95 66,92.889 66,82 C66,71.111 65.756,69 64.5,69 C63.675,69 63,68.325 63,67.5 C63,66.567 62.056,66 60.5,66 C58.944,66 58,66.567 58,67.5 C58,68.325 57.55,69 57,69 C56.45,69 56,68.325 56,67.5 C56,66.667 55.111,66 54,66 C52.178,66 52,66.667 52,73.5 Z M88,96.5 C88,97.555 86.934,98 84.406,98 C81.654,98 80.69,98.468 80.29,100 C80.002,101.1 79.144,102 78.383,102 C77.34,102 77,103.689 77,108.883 C77,115.469 77.11,115.788 79.552,116.255 C83.827,117.072 91,115.891 91,114.37 C91,113.616 91.9,113 93,113 C94.333,113 95,112.333 95,111 C95,109.9 95.625,109 96.389,109 C97.184,109 98.058,107.505 98.434,105.5 C98.827,103.405 99.675,102 100.545,102 C101.541,102 102,100.896 102,98.5 L102,95 L95,95 C89.444,95 88,95.31 88,96.5 Z M66,147 C66,148.333 65.333,149 64,149 C62.381,149 62,149.667 62,152.5 C62,155.833 61.833,156 58.5,156 C56.359,156 55.005,156.485 55.014,157.25 C55.045,160.16 56.331,163 57.617,163 C58.531,163 59,164.187 59,166.5 L59,170 L63.955,170 C68.825,170 68.92,169.941 69.566,166.5 C69.942,164.495 70.816,163 71.611,163 C72.693,163 73,161.013 73,154 L73,145 L69.5,145 C66.667,145 66,145.381 66,147 Z"/>
</svg>

