<svg xmlns="http://www.w3.org/2000/svg" width="300" height="300" viewBox="0 0 300 300" version="1.1">
  <defs/>
  <path d="M192,14.383 C192,13.279 194.524,13 204.5,13 L217,13 L217,22 C217,29.333 216.722,31 215.5,31 C214.213,31 213.999,34.087 213.991,52.75 C213.981,77.537 213.373,85 211.361,85 C210.296,85 210,87.389 210,96 C210,104.667 209.708,107 208.625,107 C207.041,107 205.851,111.714 206.656,114.794 C206.99,116.069 208.322,117.132 210.07,117.515 C212.357,118.018 213.067,118.838 213.58,121.572 C213.945,123.522 214.822,125 215.611,125 C216.375,125 217,125.9 217,127 C217,128.111 216.333,129 215.5,129 C214.379,129 213.997,130.201 213.986,133.75 C213.969,139.923 213.103,143 211.383,143 C210.469,143 210,144.187 210,146.5 C210,149.333 209.619,150 208,150 C206.667,150 206,150.667 206,152 C206,153.111 205.333,154 204.5,154 C203.452,154 203,155.056 203,157.5 C203,159.896 202.541,161 201.545,161 C200.675,161 199.827,162.405 199.434,164.5 C199.073,166.425 198.203,168 197.5,168 C196.797,168 195.927,169.575 195.566,171.5 C195.173,173.595 194.325,175 193.455,175 C192.459,175 192,176.104 192,178.5 C192,181.822 192.175,182 195.441,182 C197.334,182 199.091,182.338 199.346,182.751 C200.372,184.411 198.716,193 197.37,193 C196.494,193 195.995,194.172 195.986,196.25 C195.979,198.037 195.701,200.512 195.37,201.75 C194.798,203.884 195.051,204 200.267,204 C204.926,204 205.847,203.694 206.29,202 C206.726,200.33 207.654,200 211.906,200 C215.767,200 217,199.637 217,198.5 C217,197.348 218.278,197 222.5,197 C227.333,197 228,197.242 228,199 C228,200.111 228.667,201 229.5,201 C230.325,201 231,201.675 231,202.5 C231,203.325 230.325,204 229.5,204 C228.667,204 228,204.889 228,206 C228,207.822 227.333,208 220.5,208 C214.753,208 213,208.326 213,209.394 C213,210.441 210.988,210.88 204.924,211.155 C198.543,211.445 196.643,211.887 195.874,213.261 C195.154,214.548 193.613,215 189.95,215 L185,215 L185,218.5 C185,221.333 184.619,222 183,222 C181.381,222 181,222.667 181,225.5 C181,228.333 181.381,229 183,229 C184.667,229 185,229.667 185,233 C185,235.834 184.576,237 183.545,237 C182.675,237 181.827,238.405 181.434,240.5 C181.058,242.505 180.184,244 179.389,244 C178.625,244 178,244.675 178,245.5 C178,246.333 177.111,247 176,247 C174.9,247 174,247.623 174,248.383 C174,249.144 173.1,250.002 172,250.29 C170.9,250.577 170,251.477 170,252.29 C170,253.102 169.1,254.002 168,254.29 C166.9,254.577 166,255.53 166,256.406 C166,257.51 165.078,258 163,258 C160.667,258 160,258.444 160,260 C160,261.333 159.333,262 158,262 C156.9,262 156,262.623 156,263.383 C156,264.144 155.1,265.002 154,265.29 C152.9,265.577 152,266.53 152,267.406 C152,268.283 151.325,269 150.5,269 C149.675,269 149,269.675 149,270.5 C149,271.325 148.283,272 147.406,272 C146.53,272 145.577,272.9 145.29,274 C145.002,275.1 144.197,276 143.5,276 C142.803,276 141.998,276.9 141.71,278 C141.423,279.1 140.47,280 139.594,280 C138.717,280 138,280.675 138,281.5 C138,282.325 137.283,283 136.406,283 C135.53,283 134.577,283.9 134.29,285 C133.602,287.632 132.009,287.503 129.25,284.592 C126.676,281.876 126.29,279 128.5,279 C129.325,279 130,278.325 130,277.5 C130,276.667 130.889,276 132,276 C133.333,276 134,275.333 134,274 C134,272.667 134.667,272 136,272 C137.111,272 138,271.333 138,270.5 C138,269.675 138.675,269 139.5,269 C140.325,269 141,268.283 141,267.406 C141,266.53 141.9,265.577 143,265.29 C144.1,265.002 145,264.197 145,263.5 C145,262.803 145.931,261.99 147.069,261.692 C148.719,261.261 149.073,260.494 148.819,257.903 C148.449,254.138 146.125,252.805 145.317,255.895 C145.003,257.095 143.957,258 142.883,258 C141.848,258 141,258.639 141,259.421 C141,260.202 139.65,261.138 138,261.5 C136.35,261.862 135,262.798 135,263.579 C135,264.681 133.314,265 127.5,265 L120,265 L120,261.5 C120,258.667 120.381,258 122,258 C123.1,258 124,257.345 124,256.545 C124,255.675 125.405,254.827 127.5,254.434 C129.505,254.058 131,253.184 131,252.389 C131,251.625 131.653,251 132.45,251 C133.248,251 134.305,250.277 134.799,249.394 C135.34,248.428 137.551,247.58 140.349,247.264 C145.16,246.722 146.688,244.675 143,243.71 C141.9,243.423 141,242.47 141,241.594 C141,240.717 140.325,240 139.5,240 C138.452,240 138,238.944 138,236.5 C138,234.197 137.53,233 136.625,233 C135.254,233 134,228.88 134,224.375 C134,222.002 133.991,222 121.5,222 C111.229,222 109,222.259 109,223.455 C109,225.288 103.217,226.451 98.5,225.566 C95.074,224.923 95,224.807 95,220.085 L95,215.26 L99.651,214.736 C102.449,214.42 104.66,213.572 105.201,212.606 C105.958,211.252 108.27,211 119.925,211 L133.75,211 L134.375,207.875 C134.719,206.156 135,203.006 135,200.875 C135,198.097 135.425,197 136.5,197 C137.548,197 138,195.944 138,193.5 L138,190 L115.746,190 L116.228,184.978 C116.493,182.216 116.949,179.717 117.241,179.425 C117.533,179.134 123.855,178.882 131.29,178.867 C143.767,178.842 144.847,178.692 145.311,176.92 C145.587,175.864 146.53,175 147.406,175 C148.671,175 149,173.866 149,169.5 C149,165.278 149.348,164 150.5,164 C151.548,164 152,162.944 152,160.5 C152,158.575 151.501,157 150.891,157 C149.355,157 145.038,161.226 145.017,162.75 C145.008,163.438 144.375,164 143.611,164 C142.816,164 141.942,165.495 141.566,167.5 C140.919,170.95 138,172.587 138,169.5 C138,168.667 137.111,168 136,168 C134.667,168 134,167.333 134,166 C134,164.889 133.333,164 132.5,164 C131.452,164 131,162.944 131,160.5 C131,158.056 131.452,157 132.5,157 C133.325,157 134,156.325 134,155.5 C134,154.667 134.889,154 136,154 C137.333,154 138,153.333 138,152 C138,150.381 138.667,150 141.5,150 C143.848,150 145,149.535 145,148.588 C145,147.72 146.541,146.915 149,146.5 C151.459,146.085 153,145.28 153,144.412 C153,143.635 153.675,143 154.5,143 C155.333,143 156,142.111 156,141 C156,139.889 156.667,139 157.5,139 C158.325,139 159,138.283 159,137.406 C159,136.53 159.9,135.577 161,135.29 C162.1,135.002 163,134.144 163,133.383 C163,132.623 163.9,132 165,132 C166.619,132 167,132.667 167,135.5 L167,139 L172.5,139 C176.665,139 178,138.644 178,137.534 C178,136.531 179.576,135.86 183,135.406 C186.246,134.975 188,134.261 188,133.371 C188,132.438 189.278,132 192,132 C196.372,132 196.766,132.92 195.375,139.875 C194.753,142.983 194.715,143 188.375,143 C183.375,143 182,143.324 182,144.5 C182,145.523 180.966,146.004 178.75,146.014 C174,146.034 171,147.041 171,148.617 C171,149.564 169.739,150 167,150 C163.095,150 163,150.083 163,153.5 C163,155.944 162.548,157 161.5,157 C160.445,157 160,158.066 160,160.594 C160,163.346 159.532,164.31 158,164.71 C156.344,165.143 156,166.074 156,170.117 L156,175 L169,175 C179.889,175 182,174.756 182,173.5 C182,172.675 182.675,172 183.5,172 C184.333,172 185,171.111 185,170 C185,168.9 185.625,168 186.389,168 C187.184,168 188.058,166.505 188.434,164.5 C188.827,162.405 189.675,161 190.545,161 C191.345,161 192,160.1 192,159 C192,157.9 192.625,157 193.389,157 C194.184,157 195.058,155.505 195.434,153.5 C195.827,151.405 196.675,150 197.545,150 C198.576,150 199,148.832 199,145.99 C199,143.218 199.617,141.452 201,140.268 C202.531,138.957 203,137.318 203,133.278 L203,128 L199.5,128 C197.056,128 196,127.548 196,126.5 C196,125.272 194.278,125 186.5,125 C178.722,125 177,125.272 177,126.5 C177,127.603 175.85,128 172.651,128 C162.565,128 153,129.288 153,130.647 C153,131.664 151.139,132 145.5,132 C139.781,132 138,132.329 138,133.383 C138,135.103 134.923,135.969 128.75,135.986 C125.37,135.996 124,136.401 124,137.389 C124,138.184 122.505,139.058 120.5,139.434 C117.05,140.081 115.413,143 118.5,143 C119.7,143 120,144.5 120,150.5 C120,156.219 120.329,158 121.383,158 C122.899,158 123.965,160.968 123.986,165.25 C123.995,167.022 124.534,168 125.5,168 C126.538,168 127,169.043 127,171.383 C127,174.278 126.603,174.844 124.25,175.3 C122.737,175.594 120.263,175.59 118.75,175.292 C116.4,174.829 116,174.259 116,171.375 C116,169.042 115.537,168 114.5,168 C113.477,168 112.996,166.966 112.986,164.75 C112.966,160 111.959,157 110.383,157 C109.394,157 109,155.608 109,152.117 C109,148.255 108.623,147.135 107.2,146.763 C105.294,146.264 105.268,145.922 105.787,128.25 C105.954,122.567 106.324,121 107.5,121 C108.548,121 109,119.944 109,117.5 C109,115.056 108.548,114 107.5,114 C106.348,114 106,112.722 106,108.5 C106,104.278 106.348,103 107.5,103 C108.722,103 109,101.333 109,94 C109,87.459 108.658,85.004 107.75,85.014 C104.84,85.045 102,86.331 102,87.617 C102,88.377 101.1,89 100,89 C98.889,89 98,89.667 98,90.5 C98,91.325 97.283,92 96.406,92 C95.53,92 94.577,92.9 94.29,94 C93.919,95.417 92.926,96 90.883,96 C88.094,96 88,95.839 88,91.045 C88,86.175 88.059,86.08 91.5,85.434 C93.505,85.058 95,84.184 95,83.389 C95,82.625 95.717,82 96.594,82 C97.47,82 98.423,81.1 98.71,80 C99.143,78.344 100.074,78 104.117,78 C107.835,78 109,77.635 109,76.469 C109,75.626 109.675,74.678 110.5,74.362 C112.55,73.575 112.393,71.333 110.25,70.79 C109.287,70.546 105.462,70.546 101.75,70.79 L95,71.233 L95,74.616 C95,77.817 94.81,78 91.5,78 C89.056,78 88,77.548 88,76.5 C88,75.667 87.111,75 86,75 C84.333,75 84,74.333 84,71 C84,68.111 84.417,67 85.5,67 C86.325,67 87,66.365 87,65.588 C87,64.72 88.541,63.915 91,63.5 C93.459,63.085 95,62.28 95,61.412 C95,60.286 97.124,60 105.5,60 L116,60 L116.014,56.75 C116.034,52 117.041,49 118.617,49 C119.61,49 120,47.59 120,44 L120,39 L104,39 C90.444,39 88,39.229 88,40.5 C88,41.7 86.5,42 80.5,42 C74.5,42 73,42.3 73,43.5 C73,44.325 72.438,45.006 71.75,45.014 C71.063,45.021 69.487,45.299 68.25,45.63 C66.061,46.217 66,46.027 66,38.617 L66,31 L94.5,31 C119.167,31 123,30.798 123,29.5 C123,28.33 124.346,28 129.117,28 C134.972,28 135.207,28.096 134.63,30.25 C134.299,31.488 134.021,33.737 134.014,35.25 C134.005,37.022 133.466,38 132.5,38 C131.352,38 131,39.265 131,43.383 C131,47.926 130.688,48.848 129,49.29 C127.468,49.69 127,50.654 127,53.406 C127,55.934 126.555,57 125.5,57 C124.369,57 124,58.216 124,61.948 L124,66.895 L129.171,67.198 C134.558,67.513 136.99,69.667 133.105,70.683 C131.947,70.986 131,71.835 131,72.571 C131,73.309 129.429,74.204 127.5,74.566 C125.495,74.942 124,75.816 124,76.611 C124,77.375 123.1,78 122,78 C120.242,78 120,78.667 120,83.5 C120,87.722 119.652,89 118.5,89 C117.403,89 116.998,90.142 116.994,93.25 C116.991,95.588 116.699,101.213 116.346,105.75 C115.725,113.722 115.776,114 117.852,114 C119.626,114 120,114.589 120,117.383 C120,119.926 119.503,120.897 118,121.29 C116.544,121.671 116,122.654 116,124.906 L116,128 L123,128 C128.556,128 130,127.69 130,126.5 C130,125.3 131.5,125 137.5,125 C144.333,125 145,124.822 145,123 C145,121.178 145.667,121 152.5,121 C158.135,121 160,120.664 160,119.648 C160,118.312 170.141,117.021 180.75,117.006 C183.858,117.002 185,116.597 185,115.5 C185,114.31 186.444,114 192,114 L199,114 L199,105 C199,98.076 199.314,96 200.361,96 C202.373,96 202.981,88.537 202.991,63.75 C202.999,45.087 203.213,42 204.5,42 C205.722,42 206,40.333 206,33 C206,25.667 205.722,24 204.5,24 C203.675,24 203,23.325 203,22.5 C203,21.667 202.111,21 201,21 C199.889,21 199,21.667 199,22.5 C199,23.699 197.503,24 191.531,24 C185.678,24 184.175,24.291 184.58,25.348 C184.977,26.383 183.169,26.846 176.799,27.342 C172.234,27.697 166.363,27.991 163.75,27.994 C160.197,27.998 159,28.378 159,29.5 C159,30.548 157.944,31 155.5,31 C153.056,31 152,31.452 152,32.5 C152,33.325 151.325,34 150.5,34 C149.417,34 149,35.111 149,38 C149,41.333 148.667,42 147,42 C145.667,42 145,41.333 145,40 C145,38.9 144.374,38 143.608,38 C141.876,38 140.753,33.831 141.589,30.5 C141.934,29.125 142.885,28 143.702,28 C144.519,28 145.423,27.1 145.71,26 C146.081,24.583 147.074,24 149.117,24 C150.896,24 152,23.474 152,22.625 C152,20.94 156.342,20 164.125,20 C168.681,20 170,19.663 170,18.5 C170,17.282 171.645,16.997 178.75,16.986 C188.791,16.971 192,16.34 192,14.383 Z M170.29,58 C170.76,56.2 171.648,56.001 179.156,56.014 C186.602,56.026 189.732,56.012 191.047,57.549 C192.017,58.683 192,60.661 192,64.117 C192,70.333 191.806,71 190,71 C188.667,71 188,71.667 188,73 C188,74.111 187.333,75 186.5,75 C185.367,75 185,76.222 185,80 C185,83.778 184.633,85 183.5,85 C182.675,85 182,84.325 182,83.5 C182,82.3 180.5,82 174.5,82 C168.767,82 167,82.327 167,83.389 C167,84.184 165.505,85.058 163.5,85.434 C160.05,86.081 158.413,89 161.5,89 C162.325,89 163,89.675 163,90.5 C163,91.722 161.333,92 154,92 L145,92 L145.014,89.25 C145.039,84.134 146.088,82.14 149.102,81.478 C150.696,81.128 152,80.202 152,79.421 C152,78.43 153.211,78 156,78 C158.889,78 160,77.583 160,76.5 C160,75.675 160.675,75 161.5,75 C162.333,75 163,74.111 163,73 C163,71.9 162.381,71 161.625,71 C160.196,71 158.591,65.47 159.563,63.897 C159.868,63.404 160.766,63 161.559,63 C162.352,63 163,62.325 163,61.5 C163,60.462 164.043,60 166.383,60 C168.926,60 169.897,59.503 170.29,58 Z M171,184.5 C171,185.652 169.722,186 165.5,186 C160.667,186 160,186.242 160,188 C160,189.667 159.333,190 156,190 C153.111,190 152,190.417 152,191.5 C152,192.325 151.377,193 150.617,193 C149.856,193 148.998,193.9 148.71,195 C148.423,196.1 147.47,197 146.594,197 C145.287,197 145,198.262 145,204 L145,211 L152,211 C157.229,211 159,210.657 159,209.642 C159,208.209 166.846,207 176.147,207 C179.794,207 181,206.627 181,205.5 C181,204.667 181.889,204 183,204 C184.619,204 185,203.333 185,200.5 C185,198.056 185.452,197 186.5,197 C187.555,197 188,195.934 188,193.406 C188,190.654 188.468,189.69 190,189.29 C191.1,189.002 192,188.144 192,187.383 C192,186.373 190.516,186 186.5,186 C181.667,186 181,186.242 181,188 C181,189.619 180.333,190 177.5,190 C174.167,190 174,189.833 174,186.5 C174,184.056 173.548,183 172.5,183 C171.675,183 171,183.675 171,184.5 Z M182.75,254.689 C183.713,254.438 187.762,254.18 191.75,254.116 C198.372,254.01 199,254.173 199,256 C199,257.758 199.667,258 204.5,258 C208.5,258 210,258.375 210,259.375 C210,260.746 214.12,262 218.625,262 C220.069,262 221,262.588 221,263.5 C221,264.652 222.278,265 226.5,265 C231.333,265 232,265.242 232,267 C232,268.111 232.667,269 233.5,269 C234.548,269 235,270.056 235,272.5 L235,276 L229.5,276 C225.481,276 224,275.627 224,274.615 C224,273.687 222.188,273.004 218.5,272.543 C214.722,272.071 213,271.409 213,270.428 C213,269.327 211.399,269 206,269 C200.707,269 199,268.663 199,267.617 C199,265.601 195.757,265.029 184.25,265.014 L174,265 L174,261.5 C174,258.167 174.167,258 177.5,258 C179.864,258 181,257.537 181,256.573 C181,255.789 181.787,254.941 182.75,254.689 Z M170,216.5 C170,217.627 168.794,218 165.147,218 C155.846,218 148,219.209 148,220.642 C148,221.389 147.325,222 146.5,222 C145.375,222 145.003,223.188 145.014,226.75 C145.038,235.204 145.563,236 151.117,236 C154.608,236 156,235.606 156,234.617 C156,232.968 160.403,231.95 164.25,232.708 C166.557,233.163 167,232.908 167,231.125 C167,229.956 167.625,229 168.389,229 C169.184,229 170.058,227.505 170.434,225.5 C170.827,223.405 171.675,222 172.545,222 C173.541,222 174,220.896 174,218.5 C174,215.667 173.619,215 172,215 C170.889,215 170,215.667 170,216.5 Z M174,65.5 C174,66.333 173.111,67 172,67 C170.381,67 170,67.667 170,70.5 L170,74 L176.883,74 C184.382,74 184.953,73.489 184.986,66.75 C185,64.082 184.837,64 179.5,64 C175.278,64 174,64.348 174,65.5 Z M170.188,133.739 C169.957,132.539 170.496,132 171.927,132 C173.358,132 174,132.642 174,134.073 C174,136.636 170.69,136.345 170.188,133.739 Z"/>
</svg>

