<svg xmlns="http://www.w3.org/2000/svg" width="300" height="300" viewBox="0 0 300 300" version="1.1">
  <defs/>
  <path d="M83.75,20.689 C84.713,20.438 90.155,20.18 95.844,20.116 C105.397,20.009 106.227,20.153 106.71,22 C107.174,23.772 108.074,24 114.617,24 C120.513,24 122,24.302 122,25.5 C122,26.325 122.675,27 123.5,27 C124.583,27 125,28.111 125,31 L125,35 L114,35 C103.667,35 103,34.879 103,33 C103,31.889 102.333,31 101.5,31 C100.675,31 100,30.325 100,29.5 C100,28.348 98.722,28 94.5,28 C90.278,28 89,28.348 89,29.5 C89,30.325 89.675,31 90.5,31 C91.333,31 92,31.889 92,33 C92,34.81 91.333,35 85,35 L78,35 L78,80.767 L80.75,81.3 C84.59,82.046 89,81.016 89,79.375 C89,78.47 90.197,78 92.5,78 C94.813,78 96,77.531 96,76.617 C96,75.856 96.9,74.998 98,74.71 C99.1,74.423 100,73.47 100,72.594 C100,71.717 100.675,71 101.5,71 C102.333,71 103,70.111 103,69 C103,67.262 102.333,67 97.906,67 C93.654,67 92.726,67.33 92.29,69 C92.002,70.1 91.144,71 90.383,71 C89.623,71 89,71.675 89,72.5 C89,73.333 88.111,74 87,74 C85.667,74 85,73.333 85,72 C85,70.889 84.333,70 83.5,70 C82.367,70 82,68.778 82,65 C82,61.222 82.367,60 83.5,60 C84.325,60 85,59.381 85,58.625 C85,56.952 89.351,55.995 96.875,56.014 C103.887,56.031 107,56.831 107,58.617 C107,59.377 107.651,60 108.448,60 C109.489,60 109.98,61.473 110.198,65.25 L110.5,70.5 L117.75,70.794 C124.179,71.054 125,71.309 125,73.044 C125,74.12 125.623,75 126.383,75 C128.63,75 130.142,84.176 128.103,85.437 C126.53,86.409 121,84.804 121,83.375 C121,82.375 119.5,82 115.5,82 C111.278,82 110,82.348 110,83.5 C110,84.548 108.944,85 106.5,85 C104.104,85 103,85.459 103,86.455 C103,87.325 101.595,88.173 99.5,88.566 C97.495,88.942 96,89.816 96,90.611 C96,91.406 94.985,92 93.625,92 C92.319,92 89.844,92.281 88.125,92.625 C85.467,93.157 85,93.694 85,96.219 C85,98.346 85.567,99.335 87,99.71 C88.417,100.081 89,101.074 89,103.117 C89,105.292 89.471,106 90.917,106 C91.971,106 93.02,105.438 93.249,104.75 C93.535,103.891 96.844,103.393 103.832,103.156 L114,102.813 L114,106.906 C114,109.878 113.589,111 112.5,111 C111.675,111 111,111.675 111,112.5 C111,113.333 110.111,114 109,114 C107.667,114 107,114.667 107,116 C107,117.333 106.333,118 105,118 C103.889,118 103,118.667 103,119.5 C103,120.325 102.375,121 101.611,121 C100.822,121 99.945,122.478 99.58,124.428 C99.064,127.175 98.36,127.982 96.033,128.493 C93.862,128.97 92.968,129.87 92.486,132.065 C92.131,133.679 91.202,135 90.421,135 C89.639,135 89,135.9 89,137 C89,138.333 88.333,139 87,139 C85.667,139 85,139.667 85,141 C85,142.333 84.333,143 83,143 C81.889,143 81,143.667 81,144.5 C81,145.325 80.325,146 79.5,146 C78.667,146 78,146.889 78,148 C78,149.333 77.333,150 76,150 C74.9,150 74,150.623 74,151.383 C74,152.144 73.061,153.012 71.913,153.312 C69.372,153.977 69.676,157.541 72.264,157.417 C73.219,157.371 76.475,157.258 79.5,157.167 C83.491,157.046 85,156.613 85,155.588 C85,154.72 86.541,153.915 89,153.5 C91.459,153.085 93,152.28 93,151.412 C93,150.389 94.344,150 97.883,150 C101.926,150 102.857,149.656 103.29,148 C103.69,146.468 104.654,146 107.406,146 C109.845,146 111,145.543 111,144.579 C111,143.798 112.321,142.869 113.935,142.514 C116.139,142.03 117.03,141.139 117.514,138.935 C118.12,136.178 118.454,136 123.034,136 C127.814,136 127.922,136.068 128.566,139.5 C128.942,141.505 129.816,143 130.611,143 C131.375,143 132,143.623 132,144.383 C132,145.144 132.9,146.002 134,146.29 C135.1,146.577 136,147.53 136,148.406 C136,149.283 136.675,150 137.5,150 C138.325,150 139,150.623 139,151.383 C139,153.244 142.853,153.862 150.587,153.241 C156.631,152.756 157,152.849 157,154.863 C157,156.038 156.377,157 155.617,157 C154.856,157 153.998,157.9 153.71,159 C153.238,160.805 152.346,161 144.562,161 C137.889,161 135.809,160.667 135.372,159.527 C135.061,158.717 133.275,157.767 131.403,157.416 C129.473,157.054 128,156.177 128,155.389 C128,154.625 127.325,154 126.5,154 C125.667,154 125,153.111 125,152 C125,150.242 124.333,150 119.5,150 C115.354,150 114,150.358 114,151.455 C114,152.325 112.595,153.173 110.5,153.566 C108.495,153.942 107,154.816 107,155.611 C107,156.406 105.985,157 104.625,157 C100.12,157 96,158.254 96,159.625 C96,160.563 94.727,161 92,161 C89.186,161 88,161.427 88,162.439 C88,163.489 86.105,164.066 81,164.569 C76.073,165.054 74,165.664 74,166.629 C74,167.703 71.727,168 63.5,168 L53,168 L53,164.5 C53,162.056 53.452,161 54.5,161 C55.333,161 56,160.111 56,159 C56,157.667 56.667,157 58,157 C59.333,157 60,156.333 60,155 C60,153.889 60.667,153 61.5,153 C62.325,153 63,152.325 63,151.5 C63,150.667 63.889,150 65,150 C66.333,150 67,149.333 67,148 C67,146.667 67.667,146 69,146 C70.333,146 71,145.333 71,144 C71,142.889 71.667,142 72.5,142 C73.325,142 74,141.325 74,140.5 C74,139.667 74.889,139 76,139 C77.619,139 78,138.333 78,135.5 C78,132.667 78.381,132 80,132 C81.111,132 82,131.333 82,130.5 C82,129.675 82.675,129 83.5,129 C84.333,129 85,128.111 85,127 C85,125.667 85.667,125 87,125 C88.333,125 89,124.333 89,123 C89,121.667 89.667,121 91,121 C92.111,121 93,120.333 93,119.5 C93,118.675 93.675,118 94.5,118 C95.333,118 96,117.111 96,116 C96,114.381 95.333,114 92.5,114 C90.197,114 89,114.47 89,115.375 C89,116.746 84.88,118 80.375,118 C78.931,118 78,118.588 78,119.5 C78,120.652 76.722,121 72.5,121 C67.667,121 67,121.242 67,123 C67,124.893 66.333,125 54.5,125 L42,125 L42,121.617 C42,117.923 43.486,117.04 49.75,117.014 C51.966,117.004 53,116.523 53,115.5 C53,114.278 54.667,114 62,114 C69.209,114 71,113.71 71,112.545 C71,111.675 72.405,110.827 74.5,110.434 C77.933,109.79 78,109.684 78,104.889 C78,101.082 77.647,100 76.406,100 C75.53,100 74.577,99.1 74.29,98 C73.926,96.608 72.926,96 71,96 C68.976,96 68.071,95.396 67.63,93.75 C66.645,90.074 66.889,89.262 69.154,88.67 C71.231,88.127 71.286,87.758 70.669,78.371 C70.265,72.214 69.565,68.349 68.765,67.856 C67.866,67.301 67.4,62.867 67.156,52.537 L66.812,38 L63.406,38 C60.667,38 60,37.609 60,36 C60,34.889 59.333,34 58.5,34 Q57,34 57,31 Q57,28 58.5,28 C59.333,28 60,27.111 60,26 C60,24.121 60.667,24 71,24 C79.86,24 82,23.722 82,22.573 C82,21.789 82.787,20.941 83.75,20.689 Z M128,166.5 C128,165.667 128.889,165 130,165 C131.111,165 132,165.667 132,166.5 C132,167.333 132.889,168 134,168 C135.333,168 136,168.667 136,170 C136,171.111 136.667,172 137.5,172 C138.548,172 139,173.056 139,175.5 L139,179 L134.045,179 C129.175,179 129.08,179.059 128.434,182.5 C128.058,184.505 127.184,186 126.389,186 C125.625,186 125,186.952 125,188.117 C125,189.824 125.435,190.117 127.25,189.63 C128.488,189.299 130.063,189.021 130.75,189.014 C131.438,189.006 132,188.325 132,187.5 C132,186.258 133.889,186 143,186 C151.699,186 154,185.711 154,184.617 C154,182.897 157.077,182.031 163.25,182.014 C166.799,182.003 168,181.621 168,180.5 C168,179.278 169.667,179 177,179 C184.333,179 186,179.278 186,180.5 C186,181.333 186.889,182 188,182 C189.1,182 189.994,182.563 189.986,183.25 C189.955,186.16 188.669,189 187.383,189 C186.623,189 186,189.9 186,191 C186,192.619 185.333,193 182.5,193 C180.056,193 179,192.548 179,191.5 C179,190.31 177.556,190 172,190 C166.444,190 165,190.31 165,191.5 C165,192.641 163.744,193.003 159.75,193.014 C153.098,193.031 150,193.858 150,195.617 C150,196.707 147.773,197 139.5,197 C131.268,197 129,197.296 129,198.372 C129,199.2 127.413,199.998 125,200.384 C122.412,200.798 121,201.549 121,202.512 C121,203.546 119.932,204 117.5,204 C114.667,204 114,204.381 114,206 C114,207.1 113.345,208 112.545,208 C111.675,208 110.827,209.405 110.434,211.5 C110.058,213.505 109.184,215 108.389,215 C107.468,215 107,216.18 107,218.5 C107,221.333 106.619,222 105,222 C103.381,222 103,222.667 103,225.5 C103,227.944 102.548,229 101.5,229 C100.667,229 100,229.889 100,231 C100,232.619 100.667,233 103.5,233 C106.812,233 107,232.818 107,229.608 C107,226.861 107.457,226.102 109.402,225.614 C112.784,224.765 118,225.985 118,227.625 C118,228.495 119.135,229 121.094,229 C123.346,229 124.329,229.544 124.71,231 C125.103,232.503 126.074,233 128.617,233 C130.957,233 132,233.462 132,234.5 C132,235.548 133.056,236 135.5,236 C138.333,236 139,236.381 139,238 C139,239.758 139.667,240 144.5,240 C148.722,240 150,239.652 150,238.5 C150,237.675 150.717,237 151.594,237 C152.47,237 153.423,236.1 153.71,235 C153.998,233.9 154.856,233 155.617,233 C156.522,233 157,231.831 157,229.617 C157,227.074 157.497,226.103 159,225.71 C160.1,225.423 161,224.47 161,223.594 C161,222.717 161.675,222 162.5,222 C163.325,222 164,221.283 164,220.406 C164,219.53 164.9,218.577 166,218.29 C167.107,218 168,216.926 168,215.883 C168,214.848 168.675,214 169.5,214 C170.325,214 171,213.325 171,212.5 C171,210.914 175.433,210.473 179.75,211.63 C182.275,212.307 182.811,214 180.5,214 C179.567,214 179,214.944 179,216.5 C179,218.056 178.433,219 177.5,219 C176.675,219 176,219.675 176,220.5 C176,221.325 175.15,222 174.111,222 C172.745,222 172.041,222.967 171.566,225.5 C171.173,227.595 170.325,229 169.455,229 C168.655,229 168,229.9 168,231 C168,232.333 167.333,233 166,233 C164.667,233 164,233.667 164,235 C164,236.111 163.333,237 162.5,237 C161.452,237 161,238.056 161,240.5 L161,244 L166,244 C169.778,244 171,244.367 171,245.5 C171,246.7 172.5,247 178.5,247 C185.333,247 186,247.178 186,249 C186,250.852 186.667,251 195,251 C202.333,251 204,251.278 204,252.5 C204,253.652 205.278,254 209.5,254 C214.333,254 215,254.242 215,256 C215,257.619 215.667,258 218.5,258 C221.333,258 222,258.381 222,260 C222,261.1 222.623,262 223.383,262 C224.899,262 225.965,264.968 225.986,269.25 C225.999,271.729 225.655,272 222.5,272 C220.056,272 219,271.548 219,270.5 C219,269.667 218.111,269 217,269 C215.667,269 215,268.333 215,267 C215,265.667 214.333,265 213,265 C211.9,265 211,264.383 211,263.629 C211,262.621 208.615,262.071 202,261.554 C195.207,261.022 193,260.5 193,259.425 C193,258.282 190.921,258 182.5,258 C174.258,258 172,257.704 172,256.625 C172,254.859 167.58,253.996 158.625,254.014 C150.164,254.03 147,254.738 147,256.617 C147,257.377 146.1,258 145,258 C143.381,258 143,258.667 143,261.5 C143,264.333 142.619,265 141,265 C139.667,265 139,265.667 139,267 C139,268.111 138.333,269 137.5,269 C136.675,269 136,269.675 136,270.5 C136,271.333 135.111,272 134,272 C132.667,272 132,272.667 132,274 C132,275.333 131.333,276 130,276 C128.9,276 128,276.623 128,277.383 C128,279.103 124.923,279.969 118.75,279.986 C114.662,279.998 114,279.721 114,278 C114,276.667 114.667,276 116,276 C117.1,276 118,275.345 118,274.545 C118,273.675 119.405,272.827 121.5,272.434 C123.505,272.058 125,271.184 125,270.389 C125,269.625 125.675,269 126.5,269 C127.333,269 128,268.111 128,267 C128,265.667 128.667,265 130,265 C131.333,265 132,264.333 132,263 C132,261.9 132.639,261 133.421,261 C134.202,261 135.131,259.679 135.486,258.065 C135.963,255.891 136.865,254.969 138.963,254.508 C140.726,254.121 142.019,253.057 142.385,251.693 C143.588,247.207 143.306,247 136,247 C130.444,247 129,246.69 129,245.5 C129,244.667 128.111,244 127,244 C125.667,244 125,243.333 125,242 C125,240.242 124.333,240 119.5,240 C114.667,240 114,239.758 114,238 C114,236.371 113.333,236 110.406,236 C107.654,236 106.69,236.468 106.29,238 C105.836,239.735 104.926,240 99.429,240 L93.091,240 L92.434,236.5 C92.058,234.495 91.184,233 90.389,233 C89.625,233 89,232.1 89,231 C89,229.889 89.667,229 90.5,229 C91.548,229 92,227.944 92,225.5 C92,222.667 92.381,222 94,222 C95.606,222 96,221.333 96,218.617 C96,216.074 96.497,215.103 98,214.71 C99.1,214.423 100,213.47 100,212.594 C100,211.717 100.675,211 101.5,211 C102.548,211 103,209.944 103,207.5 L103,204 L94.617,204 C87.074,204 86.181,204.201 85.71,206 C85.31,207.532 84.346,208 81.594,208 C78.601,208 78,208.354 78,210.117 C78,211.824 77.565,212.117 75.75,211.63 C74.513,211.299 72.037,211.021 70.25,211.014 C67.205,211.001 67,210.779 67,207.5 C67,204.667 67.381,204 69,204 C70.333,204 71,203.333 71,202 C71,200.667 71.667,200 73,200 C74.111,200 75,199.333 75,198.5 C75,197.369 76.217,197 79.95,197 C83.626,197 85.152,196.549 85.878,195.25 C86.708,193.766 88.687,193.449 98.928,193.166 C108.518,192.901 111,192.541 111,191.416 C111,190.637 111.675,190 112.5,190 C113.583,190 114,188.889 114,186 C114,183.211 114.43,182 115.421,182 C116.202,182 117.138,180.65 117.5,179 C117.862,177.35 118.798,176 119.579,176 C120.428,176 121,174.993 121,173.5 C121,171.944 121.567,171 122.5,171 C123.325,171 124,170.325 124,169.5 C124,168.667 124.889,168 126,168 C127.111,168 128,167.333 128,166.5 Z M210.33,70.695 C214.147,69.951 217.868,69.977 218.346,70.751 C218.601,71.163 218.566,74.538 218.268,78.251 C217.885,83.017 217.326,85 216.363,85 C215.495,85 214.995,86.18 214.986,88.25 C214.966,93 213.959,96 212.383,96 C211.373,96 211,97.484 211,101.5 C211,105.722 210.652,107 209.5,107 C208.363,107 208,108.233 208,112.094 C208,116.346 207.67,117.274 206,117.71 C204.497,118.103 204,119.074 204,121.617 C204,123.911 203.532,125 202.545,125 C201.675,125 200.827,126.405 200.434,128.5 C200.058,130.505 199.184,132 198.389,132 C197.625,132 197,132.9 197,134 C197,135.1 196.345,136 195.545,136 C194.675,136 193.827,137.405 193.434,139.5 C192.959,142.033 192.255,143 190.889,143 C189.85,143 189,143.655 189,144.455 C189,145.325 187.595,146.173 185.5,146.566 C183.495,146.942 182,147.816 182,148.611 C182,149.375 181.325,150 180.5,150 C179.667,150 179,149.111 179,148 C179,146.889 179.667,146 180.5,146 C181.51,146 182,144.99 182,142.906 C182,140.654 182.544,139.671 184,139.29 C185.107,139 186,137.926 186,136.883 C186,135.848 186.655,135 187.455,135 C188.325,135 189.173,133.595 189.566,131.5 C189.942,129.495 190.816,128 191.611,128 C192.497,128 193,126.879 193,124.906 C193,122.654 193.544,121.671 195,121.29 C196.656,120.857 197,119.926 197,115.883 C197,112.209 197.371,111 198.5,111 C199.655,111 200,109.712 200,105.406 C200,100.654 200.301,99.734 202,99.29 C203.737,98.836 204,97.926 204,92.383 C204,87.617 204.35,86 205.383,86 C206.373,86 206.963,83.889 207.462,78.559 C208.077,71.996 208.416,71.068 210.33,70.695 Z M161,29.5 C161,28.452 162.056,28 164.5,28 L168,28 L168,33.5 C168,37.516 167.627,39 166.617,39 C165.101,39 164.035,41.968 164.014,46.25 C164.005,48.022 163.466,49 162.5,49 C161.477,49 160.996,50.034 160.986,52.25 C160.966,57 159.959,60 158.383,60 C157.337,60 157,61.707 157,67 C157,72.556 156.69,74 155.5,74 C154.459,74 154,75.047 154,77.421 C154,80.408 154.38,80.925 157,81.5 C159.647,82.081 161.412,85 159.117,85 C158.631,85 157.998,85.9 157.71,87 C157.266,88.699 156.346,89 151.594,89 L146,89 L146,78 C146,67.667 146.121,67 148,67 C149.81,67 150,66.333 150,60 C150,54.632 150.33,53 151.415,53 C152.446,53 153.02,50.968 153.532,45.5 C154.036,40.122 154.626,38 155.617,38 C156.531,38 157,36.812 157,34.5 C157,31.667 157.381,31 159,31 C160.111,31 161,30.333 161,29.5 Z M190,51 C190,49.9 190.563,49.006 191.25,49.014 C194.16,49.045 197,50.331 197,51.617 C197,52.377 197.675,53 198.5,53 C199.325,53 200,53.675 200,54.5 C200,55.325 199.325,56 198.5,56 C197.667,56 197,56.889 197,58 C197,59.333 196.333,60 195,60 C193.381,60 193,60.667 193,63.5 C193,65.944 192.548,67 191.5,67 C190.379,67 189.997,68.201 189.986,71.75 C189.969,77.923 189.103,81 187.383,81 C186.436,81 186,82.261 186,85 C186,87.75 185.565,89 184.608,89 C183.843,89 182.945,90.081 182.614,91.402 C181.765,94.784 182.985,100 184.625,100 C185.381,100 186,100.675 186,101.5 C186,102.333 185.111,103 184,103 C182.667,103 182,103.667 182,105 C182,106.73 181.333,107 177.059,107 C174.341,107 171.852,106.569 171.527,106.043 C170.371,104.173 172.201,92 173.638,92 C174.454,92 175.005,90.897 175.014,89.25 C175.035,84.968 176.101,82 177.617,82 C178.564,82 179,80.739 179,78 C179,75.111 179.417,74 180.5,74 C181.621,74 182.003,72.799 182.014,69.25 C182.031,63.077 182.897,60 184.617,60 C185.531,60 186,58.813 186,56.5 C186,53.667 186.381,53 188,53 C189.333,53 190,52.333 190,51 Z M222,155.5 C222,154.452 223.056,154 225.5,154 C227.944,154 229,154.452 229,155.5 C229,156.548 230.056,157 232.5,157 C235.333,157 236,157.381 236,159 C236,160.333 236.667,161 238,161 C239.1,161 240,161.625 240,162.389 C240,163.184 241.495,164.058 243.5,164.434 C245.595,164.827 247,165.675 247,166.545 C247,167.345 247.9,168 249,168 C250.111,168 251,168.667 251,169.5 C251,170.325 251.717,171 252.594,171 C253.47,171 254.423,171.9 254.71,173 C254.998,174.1 255.856,175 256.617,175 C257.627,175 258,176.484 258,180.5 L258,186 L254.5,186 C251.167,186 251,185.833 251,182.5 C251,179.667 250.619,179 249,179 C247.667,179 247,178.333 247,177 C247,175.381 246.333,175 243.5,175 C241.187,175 240,174.531 240,173.617 C240,172.856 239.1,171.998 238,171.71 C236.9,171.423 236,170.47 236,169.594 C236,168.439 235.036,168 232.5,168 C230.092,168 229,167.543 229,166.534 C229,165.534 227.439,164.862 224.086,164.417 C220.215,163.903 219.05,163.313 218.6,161.633 C217.625,158 217.927,157 220,157 C221.111,157 222,156.333 222,155.5 Z"/>
</svg>

