<svg xmlns="http://www.w3.org/2000/svg" width="300" height="300" viewBox="0 0 300 300" version="1.1">
  <defs/>
  <path d="M114,60.383 C114,59.469 115.187,59 117.5,59 C119.944,59 121,59.452 121,60.5 C121,61.652 122.278,62 126.5,62 L132,62 L132,65.5 C132,68.833 131.833,69 128.5,69 C126.056,69 125,68.548 125,67.5 C125,64.413 122.081,66.05 121.434,69.5 C121.073,71.425 120.205,73 119.505,73 C118.178,73 116.955,84.313 117.803,88.75 C118.265,91.164 121,91.913 121,89.625 C121,88.254 125.12,87 129.625,87 C131.069,87 132,86.412 132,85.5 C132,84.3 133.5,84 139.5,84 C145.219,84 147,83.671 147,82.617 C147,80.44 150.348,80.027 168,80.027 C185.652,80.027 189,80.44 189,82.617 C189,83.564 190.261,84 193,84 C195.739,84 197,84.436 197,85.383 C197,86.144 197.9,87.002 199,87.29 C200.1,87.577 201,88.53 201,89.406 C201,90.283 201.675,91 202.5,91 C203.542,91 204,92.047 204,94.427 C204,96.882 204.491,97.948 205.733,98.187 C208.37,98.695 208.469,109.064 205.844,109.751 C204.237,110.171 204,111.311 204,118.617 C204,125.063 203.682,127 202.625,127 C201.254,127 200,131.12 200,135.625 C200,137.069 199.412,138 198.5,138 C197.667,138 197,138.889 197,140 C197,141.111 196.333,142 195.5,142 C194.675,142 194,142.648 194,143.441 C194,145.53 192.62,146.074 189.103,145.371 C186.879,144.926 186,144.186 186,142.758 C186,141.181 185.532,140.892 183.75,141.37 C182.512,141.701 180.938,141.979 180.25,141.986 C179.563,141.994 179,142.675 179,143.5 C179,144.523 177.966,145.004 175.75,145.014 C171,145.034 168,146.041 168,147.617 C168,148.377 167.1,149 166,149 C164.889,149 164,149.667 164,150.5 C164,151.466 163.022,152.005 161.25,152.014 C154.95,152.045 154,152.845 154,158.117 C154,162.333 153.727,163 152,163 C150.148,163 150,163.667 150,172 C150,179.123 149.703,181 148.575,181 C147.5,181 146.978,183.207 146.446,190 C145.929,196.615 145.379,199 144.371,199 C143.376,199 143,200.508 143,204.5 C143,208.5 142.625,210 141.625,210 C140.254,210 139,214.12 139,218.625 C139,220.069 138.412,221 137.5,221 C136.588,221 136,221.931 136,223.375 C136,227.88 134.746,232 133.375,232 C132.47,232 132,233.197 132,235.5 C132,237.896 131.541,239 130.545,239 C129.675,239 128.827,240.405 128.434,242.5 C128.058,244.505 127.184,246 126.389,246 C125.625,246 125,246.9 125,248 C125,249.1 124.345,250 123.545,250 C122.675,250 121.827,251.405 121.434,253.5 C120.959,256.033 120.255,257 118.889,257 C117.85,257 117,257.675 117,258.5 C117,259.633 115.778,260 112,260 L107,260 L107,256.5 C107,254.056 107.452,253 108.5,253 C109.325,253 110,252.325 110,251.5 C110,250.667 110.889,250 112,250 C113.333,250 114,249.333 114,248 C114,246.667 114.667,246 116,246 C117.333,246 118,245.333 118,244 C118,242.889 118.667,242 119.5,242 C120.548,242 121,240.944 121,238.5 C121,236.187 121.469,235 122.383,235 C123.959,235 124.966,232 124.986,227.25 C124.996,225.034 125.477,224 126.5,224 C127.51,224 128,222.99 128,220.906 C128,218.654 128.544,217.671 130,217.29 C131.756,216.831 132,215.926 132,209.883 C132,204.71 132.342,203 133.375,203 C134.904,203 136,198.772 136,192.875 C136,190.208 136.439,189 137.409,189 C138.511,189 138.892,186.694 139.159,178.428 C139.443,169.624 139.793,167.693 141.25,166.879 C142.3,166.292 143,164.721 143,162.95 C143,160.245 142.709,160 139.5,160 C137.18,160 136,160.468 136,161.389 C136,162.177 134.527,163.054 132.597,163.416 C130.725,163.767 128.939,164.717 128.628,165.527 C128.278,166.44 126.719,167 124.531,167 C122.059,167 121,167.45 121,168.5 C121,169.652 119.722,170 115.5,170 C110.667,170 110,169.758 110,168 C110,166.889 109.333,166 108.5,166 C105.563,166 107.06,164.079 110.5,163.434 C112.425,163.073 114,162.205 114,161.505 C114,160.806 114.9,159.998 116,159.71 C117.1,159.423 118,158.47 118,157.594 C118,156.329 119.134,156 123.5,156 C127.516,156 129,155.627 129,154.617 C129,153.101 131.968,152.035 136.25,152.014 C138.022,152.005 139,151.466 139,150.5 C139,149.667 139.889,149 141,149 C142.667,149 143,148.333 143,145 C143,141.095 142.917,141 139.5,141 C137.056,141 136,140.548 136,139.5 C136,138.417 134.889,138 132,138 C128.095,138 128,137.917 128,134.5 C128,131.667 128.381,131 130,131 C131.333,131 132,130.333 132,129 C132,127.381 132.667,127 135.5,127 C137.944,127 139,126.548 139,125.5 C139,124.667 139.889,124 141,124 C142.333,124 143,123.333 143,122 C143,120.889 143.667,120 144.5,120 C145.637,120 146,118.767 146,114.906 C146,110.654 146.33,109.726 148,109.29 C149.1,109.002 150,108.144 150,107.383 C150,106.623 150.675,106 151.5,106 C152.325,106 153,106.644 153,107.43 C153,108.217 154.012,109.005 155.25,109.181 C157.121,109.447 157.457,110.049 157.246,112.751 C157.004,115.846 157.158,116 160.496,116 C162.944,116 164,115.548 164,114.5 C164,113.272 165.722,113 173.5,113 C181.278,113 183,113.272 183,114.5 C183,115.325 183.675,116 184.5,116 C185.652,116 186,117.278 186,121.5 C186,125.722 185.652,127 184.5,127 C183.452,127 183,128.056 183,130.5 C183,132.944 183.452,134 184.5,134 C185.325,134 186,133.325 186,132.5 C186,131.452 187.056,131 189.5,131 L193,131 L193,125.5 C193,121.484 193.373,120 194.383,120 C196.313,120 196.97,116.807 196.986,107.367 C196.999,100.068 196.795,99.18 195,98.71 C193.803,98.397 193,97.346 193,96.094 C193,94.368 192.386,94 189.5,94 C187.056,94 186,93.548 186,92.5 C186,91.213 182.944,91 164.5,91 C143.667,91 143,91.062 143,93 C143,94.758 142.333,95 137.5,95 C133.43,95 132,95.367 132,96.412 C132,97.28 130.459,98.085 128,98.5 C125.541,98.915 124,99.72 124,100.588 C124,101.49 122.917,102 121,102 L118,102 L118,120 C118,135.333 118.222,138 119.5,138 C120.333,138 121,138.889 121,140 C121,141.111 121.667,142 122.5,142 C123.325,142 124,142.675 124,143.5 C124,144.325 123.325,145 122.5,145 C121.667,145 121,145.889 121,147 C121,148.619 120.333,149 117.5,149 C114.667,149 114,148.619 114,147 C114,145.667 113.333,145 112,145 C110.178,145 110,144.333 110,137.5 C110,131.5 109.7,130 108.5,130 C107.2,130 107,126 107,100 C107,74 107.2,70 108.5,70 C109.555,70 110,68.934 110,66.406 C110,63.654 110.468,62.69 112,62.29 C113.1,62.002 114,61.144 114,60.383 Z M218.29,161 C218.589,159.854 219.654,159 220.781,159 C224.429,159 229,160.243 229,161.234 C229,162.673 233.29,166.963 234.75,166.983 C235.509,166.993 236,168.376 236,170.5 C236,173.333 236.381,174 238,174 C239.333,174 240,174.667 240,176 C240,177.333 240.667,178 242,178 C243.111,178 244,178.667 244,179.5 Q244,181 247,181 Q250,181 250,179.5 C250,178.477 251.034,177.996 253.25,177.986 C258,177.966 261,176.959 261,175.383 C261,174.623 261.9,174 263,174 C264.619,174 265,173.333 265,170.5 C265,167.083 265.095,167 269,167 C272.333,167 273,167.333 273,169 C273,170.111 273.667,171 274.5,171 Q276,171 276,174 C276,176.078 276.49,177 277.594,177 C278.47,177 279.423,177.9 279.71,179 C279.998,180.1 280.856,181 281.617,181 C282.377,181 283,181.9 283,183 C283,184.333 283.667,185 285,185 C286.1,185 287,185.625 287,186.389 C287,187.184 288.495,188.058 290.5,188.434 C292.595,188.827 294,189.675 294,190.545 C294,191.345 294.9,192 296,192 C297.619,192 298,192.667 298,195.5 L298,199 L292.5,199 C288.474,199 287,198.628 287,197.611 C287,196.816 285.505,195.942 283.5,195.566 C281.405,195.173 280,194.325 280,193.455 C280,192.655 279.1,192 278,192 C276.667,192 276,191.333 276,190 C276,188.9 275.345,188 274.545,188 C273.675,188 272.827,186.595 272.434,184.5 C271.837,181.318 271.47,181 268.389,181 C265.667,181 265,181.393 265,183 C265,184.619 264.333,185 261.5,185 C259.203,185 258,185.471 258,186.37 C258,187.254 256.386,187.922 253.451,188.253 C248.148,188.85 248.363,188.707 247.473,192.252 C246.884,194.599 247.091,195 248.892,195 C250.333,195 251,195.632 251,197 C251,198.111 251.667,199 252.5,199 C253.412,199 254,199.931 254,201.375 C254,205.88 255.254,210 256.625,210 C257.381,210 258,210.9 258,212 C258,213.1 258.655,214 259.455,214 C260.33,214 261.175,215.418 261.578,217.562 C262.265,221.224 261.678,229.655 260.667,230.667 C260.354,230.979 258.052,231.465 255.549,231.747 C252.614,232.078 251,232.746 251,233.63 C251,234.739 247.574,235 233,235 C217.667,235 215,234.778 215,233.5 C215,232.337 213.681,232 209.125,232 C201.342,232 197,231.06 197,229.375 C197,228.375 195.5,228 191.5,228 C187.5,228 186,227.625 186,226.625 C186,225.096 181.772,224 175.875,224 C173.097,224 172,223.575 172,222.5 C172,221.667 171.111,221 170,221 C168.242,221 168,220.333 168,215.5 C168,211.5 168.375,210 169.375,210 C170.746,210 172,205.88 172,201.375 C172,199.931 172.588,199 173.5,199 C174.771,199 175,196.556 175,183 L175,167 L179,167 C181.889,167 183,167.417 183,168.5 C183,169.325 183.675,170 184.5,170 C185.333,170 186,170.889 186,172 C186,173.111 185.333,174 184.5,174 C183.263,174 183,175.817 183,184.353 C183,198.801 182.043,207 180.358,207 C179.611,207 179,207.675 179,208.5 C179,209.325 179.675,210 180.5,210 C181.325,210 182,210.717 182,211.594 C182,212.47 182.9,213.423 184,213.71 C185.1,213.998 186,214.856 186,215.617 C186,216.564 187.262,217 190.01,217 C192.782,217 194.548,217.617 195.732,219 C197.043,220.531 198.682,221 202.722,221 C206.482,221 208,221.388 208,222.348 C208,224.447 238.063,225.913 249.36,224.364 L254,223.728 L254,218.364 C254,214.263 253.647,213 252.5,213 C251.534,213 250.995,212.022 250.986,210.25 C250.965,205.968 249.899,203 248.383,203 C247.469,203 247,201.813 247,199.5 C247,197.18 246.532,196 245.611,196 C244.819,196 243.944,194.514 243.573,192.538 C243.015,189.564 242.436,188.985 239.462,188.427 C237.486,188.056 236,187.181 236,186.389 C236,185.468 234.82,185 232.5,185 C229.667,185 229,184.619 229,183 C229,181.667 228.333,181 227,181 C225.9,181 225,180.361 225,179.579 C225,178.798 223.664,177.866 222.032,177.507 C219.634,176.98 218.94,176.196 218.42,173.428 C218.055,171.478 217.178,170 216.389,170 C215.468,170 215,168.82 215,166.5 C215,164.187 215.469,163 216.383,163 C217.144,163 218.002,162.1 218.29,161 Z M59,127.688 C60.876,126.932 66.214,127.738 66.95,128.889 C67.253,129.362 68.963,130.066 70.75,130.454 C73.881,131.133 74,131.339 74,136.079 C74,139.787 73.63,141 72.5,141 C71.417,141 71,142.111 71,145 C71,148.333 70.667,149 69,149 C67.381,149 67,149.667 67,152.5 C67,154.944 66.548,156 65.5,156 C64.667,156 64,156.889 64,158 C64,159.333 63.333,160 62,160 C60.667,160 60,160.667 60,162 C60,163.1 59.361,164 58.579,164 C57.798,164 56.862,165.35 56.5,167 C56.138,168.65 55.202,170 54.421,170 C53.639,170 53,170.9 53,172 C53,173.333 52.333,174 51,174 C49.381,174 49,174.667 49,177.5 C49,180.333 48.619,181 47,181 C45.889,181 45,181.667 45,182.5 C45,183.325 44.325,184 43.5,184 C42.667,184 42,184.889 42,186 C42,187.111 41.333,188 40.5,188 C39.667,188 39,188.889 39,190 C39,191.733 39.667,192 44,192 C48.333,192 49,191.733 49,190 C49,188.667 49.667,188 51,188 C52.111,188 53,187.333 53,186.5 C53,185.452 54.056,185 56.5,185 C59.333,185 60,184.619 60,183 C60,181.667 60.667,181 62,181 C63.1,181 64,180.345 64,179.545 C64,178.675 65.405,177.827 67.5,177.434 C69.505,177.058 71,176.184 71,175.389 C71,174.625 71.9,174 73,174 C74.111,174 75,173.333 75,172.5 C75,171.675 75.675,171 76.5,171 C77.325,171 78,171.675 78,172.5 C78,173.548 79.056,174 81.5,174 L85,174 L85,179.094 C85,183.346 85.33,184.274 87,184.71 C88.107,185 89,186.074 89,187.117 C89,188.152 89.639,189 90.421,189 C91.202,189 92.138,190.35 92.5,192 C92.862,193.65 93.798,195 94.579,195 C95.361,195 96,195.9 96,197 C96,198.333 96.667,199 98,199 C99.333,199 100,199.667 100,201 C100,202.333 100.667,203 102,203 C103.111,203 104,203.667 104,204.5 C104,205.51 105.01,206 107.094,206 C109.346,206 110.329,206.544 110.71,208 C110.998,209.1 111.856,210 112.617,210 C115.617,210 113.876,212.933 110.5,213.566 C105.783,214.451 100,213.288 100,211.455 C100,210.655 99.1,210 98,210 C96.9,210 96,209.345 96,208.545 C96,207.679 94.607,206.829 92.557,206.445 C89.825,205.932 88.987,205.218 88.496,202.983 C88.156,201.434 87.23,199.919 86.439,199.615 C85.648,199.311 85,198.374 85,197.531 C85,196.689 84.325,196 83.5,196 C82.667,196 82,195.111 82,194 C82,192.667 81.333,192 80,192 C78.667,192 78,191.333 78,190 C78,188.889 77.333,188 76.5,188 C75.675,188 75,187.325 75,186.5 C75,185.667 74.111,185 73,185 C71.9,185 71,185.625 71,186.389 C71,187.184 69.505,188.058 67.5,188.434 C65.405,188.827 64,189.675 64,190.545 C64,191.345 63.1,192 62,192 C60.9,192 60,192.655 60,193.455 C60,194.325 58.595,195.173 56.5,195.566 C54.575,195.927 53,196.797 53,197.5 C53,198.203 51.468,199.065 49.597,199.416 C47.725,199.767 45.939,200.717 45.628,201.527 C45.278,202.44 43.719,203 41.531,203 C39.059,203 38,203.45 38,204.5 C38,205.412 37.069,206 35.625,206 C31.12,206 27,207.254 27,208.625 C27,209.53 25.803,210 23.5,210 L20,210 L20.014,205.25 C20.034,198.12 20.827,196.197 24.037,195.492 C26.135,195.031 27.037,194.109 27.514,191.935 C27.869,190.321 28.798,189 29.579,189 C30.361,189 31,188.152 31,187.117 C31,186.074 31.893,185 33,184.71 C34.1,184.423 35,183.47 35,182.594 C35,181.717 35.625,181 36.389,181 C37.184,181 38.058,179.505 38.434,177.5 C38.827,175.405 39.675,174 40.545,174 C41.345,174 42,173.1 42,172 C42,170.9 42.623,170 43.383,170 C44.144,170 45.002,169.1 45.29,168 C45.577,166.9 46.53,166 47.406,166 C48.51,166 49,165.078 49,163 C49,160.667 49.444,160 51,160 C52.333,160 53,159.333 53,158 C53,156.9 53.625,156 54.389,156 C55.184,156 56.058,154.505 56.434,152.5 C56.827,150.405 57.675,149 58.545,149 C59.345,149 60,148.1 60,147 C60,145.889 60.667,145 61.5,145 C62.548,145 63,143.944 63,141.5 C63,138.167 62.833,138 59.5,138 C57.19,138 56,138.469 56,139.381 C56,140.422 53.417,140.937 45.5,141.477 C37.493,142.023 35,142.526 35,143.596 C35,144.511 33.867,145.005 31.75,145.014 C27,145.034 24,146.041 24,147.617 C24,148.707 21.773,149 13.5,149 L3,149 L3,145.579 C3,142.592 3.38,142.075 6,141.5 C7.65,141.138 9,140.202 9,139.421 C9,138.293 10.958,138 18.5,138 C25.922,138 28,137.697 28,136.617 C28,134.897 31.077,134.031 37.25,134.014 C40.799,134.003 42,133.621 42,132.5 C42,131.311 43.439,131 48.95,131 C53.733,131 56.15,130.578 56.7,129.647 C57.14,128.902 58.175,128.021 59,127.688 Z M20.75,80.728 C27.469,80.026 49.152,79.992 65.25,80.66 C77.443,81.166 81,81.616 81,82.657 C81,83.395 81.9,84 83,84 C84.619,84 85,84.667 85,87.5 C85,89.944 84.548,91 83.5,91 C82.452,91 82,92.056 82,94.5 C82,97.333 81.619,98 80,98 C78.667,98 78,98.667 78,100 C78,101.333 77.333,102 76,102 C74.242,102 74,101.333 74,96.5 L74,91 L47,91 C24.678,91 20,91.24 20,92.383 C20,93.899 17.032,94.965 12.75,94.986 C10.206,94.999 10,94.7 10,91 C10,88.111 10.417,87 11.5,87 C12.325,87 13,86.325 13,85.5 C13,84.667 13.889,84 15,84 C16.1,84 17,83.352 17,82.56 C17,81.633 18.335,80.981 20.75,80.728 Z M141.25,40.749 C152.387,40.588 163.075,40.357 165,40.237 C166.925,40.116 170.863,40.301 173.75,40.648 C178.917,41.269 179,41.332 179,44.639 C179,46.96 179.464,48 180.5,48 C181.333,48 182,48.889 182,50 C182,51.111 181.333,52 180.5,52 C179.452,52 179,53.056 179,55.5 C179,58.333 178.619,59 177,59 C175.889,59 175,59.667 175,60.5 C175,61.325 174.438,62.006 173.75,62.014 C173.063,62.021 171.488,62.299 170.25,62.63 C168.435,63.117 168,62.824 168,61.117 C168,59.952 168.635,59 169.412,59 C170.28,59 171.085,57.459 171.5,55 C171.915,52.541 172.72,51 173.588,51 C174.365,51 175,50.325 175,49.5 C175,48.222 172.333,48 157,48 C142.486,48 139,48.263 139,49.361 C139,51.027 132.031,51.979 119.75,51.991 C112.643,51.998 111,52.282 111,53.5 C111,54.583 109.889,55 107,55 C104.111,55 103,54.583 103,53.5 C103,52.675 102.325,52 101.5,52 C100.667,52 100,51.111 100,50 C100,48.889 100.667,48 101.5,48 C102.333,48 103,47.111 103,46 C103,44.242 103.667,44 108.5,44 C112.722,44 114,43.652 114,42.5 C114,41.675 114.675,41 115.5,41 C116.325,41 117,41.675 117,42.5 C117,43.333 117.889,44 119,44 C120.1,44 121,43.334 121,42.521 C121,41.273 124.175,40.996 141.25,40.749 Z M168,122 C168,123.619 167.333,124 164.5,124 C162.18,124 161,124.468 161,125.389 C161,126.184 159.505,127.058 157.5,127.434 L154,128.091 L154,145 L157,145 Q160,145 160,143.5 C160,142.644 160.899,142 162.094,142 C163.346,142 164.397,141.197 164.71,140 C165.141,138.354 166.074,138 169.989,138 L174.746,138 L175.246,132.792 C175.521,129.928 176.253,127.416 176.873,127.209 C178.547,126.651 178.238,124 176.5,124 C175.667,124 175,123.111 175,122 C175,120.381 174.333,120 171.5,120 C168.667,120 168,120.381 168,122 Z"/>
</svg>

