<svg xmlns="http://www.w3.org/2000/svg" width="300" height="300" viewBox="0 0 300 300" version="1.1">
  <defs/>
  <path d="M192,37.726 C192.825,37.413 198.338,37.122 204.25,37.079 C214.36,37.005 215,37.119 215,39 C215,40.1 215.635,41 216.412,41 C218.469,41 219.334,47.829 218.518,57.62 C218.001,63.835 217.456,66 216.41,66 C215.396,66 214.996,67.335 214.986,70.75 C214.969,76.923 214.103,80 212.383,80 C211.469,80 211,81.187 211,83.5 C211,85.944 210.548,87 209.5,87 C208.644,87 208,87.899 208,89.094 C208,90.346 207.197,91.397 206,91.71 C204.344,92.143 204,93.074 204,97.117 C204,101.333 204.273,102 206,102 C207.111,102 208,102.667 208,103.5 C208,104.325 208.675,105 209.5,105 C210.583,105 211,106.111 211,109 C211,111.739 210.564,113 209.617,113 C208.856,113 207.998,113.9 207.71,115 C207.423,116.1 206.47,117 205.594,117 C204.717,117 204,117.675 204,118.5 C204,119.325 203.375,120 202.611,120 C201.816,120 200.942,121.495 200.566,123.5 C199.986,126.591 199.553,127 196.861,127 C194.654,127 193.668,127.552 193.29,129 C192.897,130.503 191.926,131 189.383,131 C186.183,131 186,131.19 186,134.5 C186,136.944 186.452,138 187.5,138 C188.325,138 189,137.353 189,136.561 C189,134.491 195.162,133.844 211.5,134.197 L225.5,134.5 L225.5,141.5 L211.25,141.777 C199.494,142.006 197,142.313 197,143.527 C197,144.701 195.223,145.03 188.25,145.146 C172.55,145.407 168.809,145.692 168.15,146.676 C167.792,147.21 166.713,147.936 165.75,148.292 C164.536,148.74 164,150.018 164,152.469 C164,155.333 164.378,156 166,156 C167.333,156 168,156.667 168,158 C168,159.333 168.667,160 170,160 C171.111,160 172,160.667 172,161.5 C172,162.325 172.675,163 173.5,163 C174.583,163 175,164.111 175,167 C175,169.993 174.599,171 173.406,171 C172.53,171 171.587,170.138 171.312,169.085 C170.782,167.06 166.208,165.329 164.996,166.695 C164.603,167.138 164.496,170.537 164.757,174.25 L165.233,181 L171.71,181 C177.346,181 178.255,181.26 178.71,183 C179.103,184.503 180.074,185 182.617,185 C184.957,185 186,185.462 186,186.5 C186,187.637 187.233,188 191.094,188 C195.346,188 196.274,188.33 196.71,190 C197.152,191.688 198.074,192 202.617,192 C206.51,192 208,192.379 208,193.371 C208,194.379 210.385,194.929 217,195.446 C223.793,195.978 226,196.5 226,197.575 C226,198.697 227.814,199 234.531,199 C241.192,199 243.189,199.329 243.638,200.5 C244.494,202.73 258,202.674 258,200.44 C258,199.248 258.886,198.953 261.75,199.19 C265.193,199.475 265.526,199.772 265.819,202.826 C266.075,205.494 265.729,206.258 264.069,206.692 C262.931,206.99 262,207.856 262,208.617 C262,209.739 258.882,210 245.5,210 C232.167,210 229,209.736 229,208.625 C229,207.096 224.772,206 218.875,206 C216.097,206 215,205.575 215,204.5 C215,203.311 213.561,203 208.05,203 C202.658,203 200.894,202.634 200.185,201.366 C199.594,200.31 197.456,199.558 194.135,199.239 C190.688,198.908 189,198.294 189,197.373 C189,196.445 187.743,196 185.125,196 C179.228,196 175,194.904 175,193.375 C175,192.47 173.803,192 171.5,192 L168,192 L168,210 C168,225.333 168.222,228 169.5,228 C170.325,228 171.038,228.787 171.084,229.75 C172.357,256.135 171.982,264 169.455,264 C168.655,264 168,264.675 168,265.5 C168,266.548 166.944,267 164.5,267 L161,267 L161,237.05 C161,209.565 160.856,207.019 159.25,206.122 C157.71,205.262 157.462,203.092 157.184,188.072 C156.925,174.059 156.611,171 155.434,171 C154.645,171 154,170.1 154,169 C154,167.667 153.333,167 152,167 C150.9,167 150,167.625 150,168.389 C150,169.178 148.522,170.055 146.572,170.42 C143.832,170.935 143.018,171.641 142.511,173.948 C142.163,175.535 141.23,177.081 140.439,177.385 C139.648,177.689 139,178.574 139,179.352 C139,180.13 138.1,181.002 137,181.29 C135.9,181.577 135,182.53 135,183.406 C135,184.496 134.088,185 132.117,185 C130.074,185 129.081,185.583 128.71,187 C128.423,188.1 127.47,189 126.594,189 C125.717,189 125,189.675 125,190.5 C125,191.333 124.111,192 123,192 C121.667,192 121,192.667 121,194 C121,195.111 120.333,196 119.5,196 C118.675,196 118,196.675 118,197.5 C118,198.333 117.111,199 116,199 C114.667,199 114,199.667 114,201 C114,202.333 113.333,203 112,203 C110.889,203 110,203.667 110,204.5 C110,205.325 109.325,206 108.5,206 C107.667,206 107,206.889 107,208 C107,209.333 106.333,210 105,210 C103.889,210 103,210.667 103,211.5 C103,212.325 102.283,213 101.406,213 C100.53,213 99.584,213.874 99.305,214.943 C99.014,216.055 97.593,217.15 95.982,217.504 C94.434,217.844 92.919,218.77 92.615,219.561 C92.311,220.352 91.374,221 90.531,221 C89.689,221 89,221.625 89,222.389 C89,223.184 87.505,224.058 85.5,224.434 C83.405,224.827 82,225.675 82,226.545 C82,227.345 81.1,228 80,228 C78.667,228 78,228.667 78,230 C78,231.333 77.333,232 76,232 C74.889,232 74,232.667 74,233.5 C74,234.548 72.944,235 70.5,235 C67.167,235 67,234.833 67,231.5 C67,228.667 67.381,228 69,228 C70.333,228 71,227.333 71,226 C71,224.381 71.667,224 74.5,224 C76.813,224 78,223.531 78,222.617 C78,221.856 78.9,220.998 80,220.71 C81.1,220.423 82,219.47 82,218.594 C82,217.717 82.675,217 83.5,217 C84.325,217 85,216.325 85,215.5 C85,214.667 85.889,214 87,214 C88.333,214 89,213.333 89,212 C89,210.667 89.667,210 91,210 C92.1,210 93,209.361 93,208.579 C93,207.798 94.35,206.862 96,206.5 C97.65,206.138 99,205.202 99,204.421 C99,203.639 99.9,203 101,203 C102.333,203 103,202.333 103,201 C103,199.667 103.667,199 105,199 C106.333,199 107,198.333 107,197 C107,195.889 107.667,195 108.5,195 C109.325,195 110,194.325 110,193.5 C110,192.667 110.889,192 112,192 C113.111,192 114,191.333 114,190.5 C114,189.675 114.717,189 115.594,189 C116.47,189 117.423,188.1 117.71,187 C117.998,185.9 118.856,185 119.617,185 C120.377,185 121,184.1 121,183 C121,181.667 121.667,181 123,181 C124.1,181 125,180.345 125,179.545 C125,178.675 126.405,177.827 128.5,177.434 C131.541,176.864 132,176.398 132,173.889 C132,171.912 132.503,171 133.594,171 C134.47,171 135.423,170.1 135.71,169 C135.998,167.9 136.743,166.992 137.367,166.983 C138.779,166.961 143,162.594 143,161.154 C143,160.569 144.575,159.795 146.5,159.434 C149.933,158.79 150,158.684 150,153.889 C150,150.21 149.629,149 148.5,149 C147.675,149 147,149.675 147,150.5 C147,151.535 145.961,152 143.647,152 C135.723,152 128,153.304 128,154.642 C128,155.527 126.781,156 124.5,156 C122.056,156 121,155.548 121,154.5 C121,153.675 120.325,153 119.5,153 C118.675,153 118,153.675 118,154.5 C118,155.333 117.111,156 116,156 C114.667,156 114,155.333 114,154 C114,152.889 113.333,152 112.5,152 C111.667,152 111,151.111 111,150 C111,148.889 111.667,148 112.5,148 C113.325,148 114,147.325 114,146.5 C114,145.667 114.889,145 116,145 C117.111,145 118,144.333 118,143.5 C118,142.244 120.097,142 130.875,142 C137.956,142 145.156,141.719 146.875,141.375 L150,140.75 L150,120 L155,120 C158.639,120 160,120.384 160,121.412 C160,122.28 161.541,123.085 164,123.5 C166.459,123.915 168,124.72 168,125.588 C168,126.365 168.675,127 169.5,127 C170.325,127 171,126.325 171,125.5 C171,124.667 171.889,124 173,124 C174.333,124 175,123.333 175,122 C175,120.667 175.667,120 177,120 C178.333,120 179,119.333 179,118 C179,116.889 179.667,116 180.5,116 C181.325,116 182,115.325 182,114.5 C182,113.667 182.889,113 184,113 C185.333,113 186,112.333 186,111 C186,109.333 185.333,109 182,109 C179.111,109 178,108.583 178,107.5 C178,106.675 177.55,106 177,106 C176.45,106 176,106.617 176,107.372 C176,108.2 174.413,108.998 172,109.384 C169.412,109.798 168,110.549 168,111.512 C168,112.333 167.104,113 166,113 C164.381,113 164,112.333 164,109.5 C164,106.667 164.381,106 166,106 C167.614,106 168,105.333 168,102.545 C168,99.389 168.302,99.034 171.5,98.434 C173.505,98.058 175,97.184 175,96.389 C175,95.468 176.18,95 178.5,95 C180.944,95 182,95.452 182,96.5 C182,97.652 183.278,98 187.5,98 C191.722,98 193,97.652 193,96.5 C193,95.675 193.655,95 194.455,95 C195.325,95 196.173,93.595 196.566,91.5 C196.942,89.495 197.816,88 198.611,88 C199.539,88 200,86.806 200,84.406 C200,81.654 200.468,80.69 202,80.29 C203.656,79.857 204,78.926 204,74.883 C204,71.394 204.395,70 205.383,70 C206.374,70 206.964,67.878 207.468,62.5 C207.98,57.032 208.554,55 209.585,55 C210.363,55 211,54.325 211,53.5 C211,52.675 210.325,52 209.5,52 C208.667,52 208,51.111 208,50 C208,48.103 207.333,48 195,48 C184.291,48 182,48.256 182,49.455 C182,50.325 180.595,51.173 178.5,51.566 C176.495,51.942 175,52.816 175,53.611 C175,54.599 173.63,55.004 170.25,55.014 C164.077,55.031 161,55.897 161,57.617 C161,58.531 159.813,59 157.5,59 C155.152,59 154,59.465 154,60.412 C154,61.28 152.459,62.085 150,62.5 C147.541,62.915 146,63.72 146,64.588 C146,65.535 144.848,66 142.5,66 C139.667,66 139,66.381 139,68 C139,69.619 138.333,70 135.5,70 C133.056,70 132,70.452 132,71.5 C132,72.333 131.111,73 130,73 C128.667,73 128,73.667 128,75 C128,76.619 127.333,77 124.5,77 C121.667,77 121,77.381 121,79 C121,80.111 120.333,81 119.5,81 C118.675,81 118,81.675 118,82.5 C118,83.333 117.111,84 116,84 C114.242,84 114,84.667 114,89.5 C114,93.516 113.627,95 112.617,95 C110.627,95 110.134,99.008 110.75,110.18 C111.276,119.723 111.23,120 109.145,120 C107.025,120 107,119.774 107,100.5 C107,83.833 107.218,81 108.5,81 C109.333,81 110,80.111 110,79 C110,77.667 110.667,77 112,77 C113.333,77 114,76.333 114,75 C114,73.667 114.667,73 116,73 C117.1,73 118,72.377 118,71.617 C118,70.856 118.9,69.998 120,69.71 C121.1,69.423 122,68.47 122,67.594 C122,66.49 122.922,66 125,66 C127.333,66 128,65.556 128,64 C128,62.667 128.667,62 130,62 C131.1,62 132,61.384 132,60.63 C132,59.742 133.635,59.076 136.651,58.736 C139.449,58.42 141.66,57.572 142.201,56.606 C142.755,55.615 144.421,55 146.55,55 C148.827,55 150,54.528 150,53.611 C150,52.816 151.495,51.942 153.5,51.566 C155.595,51.173 157,50.325 157,49.455 C157,48.358 158.354,48 162.5,48 C166.516,48 168,47.627 168,46.617 C168,45.041 171,44.034 175.75,44.014 C177.966,44.004 179,43.523 179,42.5 C179,41.369 180.217,41 183.95,41 C187.052,41 189.199,40.494 189.7,39.647 C190.14,38.902 191.175,38.038 192,37.726 Z M141.25,76.706 C145.583,75.871 146.191,76.015 146.71,78 C146.998,79.1 147.856,80 148.617,80 C149.522,80 150,81.169 150,83.383 C150,85.926 149.503,86.897 148,87.29 C146.9,87.577 146,88.53 146,89.406 C146,90.283 145.438,91.008 144.75,91.017 C142.4,91.05 139,95.705 139,98.891 C139,100.877 138.498,102 137.611,102 C136.816,102 135.942,103.495 135.566,105.5 C135.173,107.595 134.325,109 133.455,109 C132.655,109 132,109.9 132,111 C132,112.1 131.375,113 130.611,113 C129.816,113 128.942,114.495 128.566,116.5 C128.173,118.595 127.325,120 126.455,120 C125.459,120 125,121.104 125,123.5 C125,126.333 124.619,127 123,127 C121.667,127 121,127.667 121,129 C121,130.111 120.333,131 119.5,131 C118.675,131 118,131.717 118,132.594 C118,133.47 117.1,134.423 116,134.71 C114.9,134.998 114,135.856 114,136.617 C114,137.377 113.325,138 112.5,138 C111.445,138 111,139.066 111,141.594 C111,144.346 110.532,145.31 109,145.71 C107.9,145.998 107,146.856 107,147.617 C107,149.115 105.762,149.311 102.25,148.37 C100.479,147.895 100,147.047 100,144.383 C100,142.043 100.462,141 101.5,141 C103.915,141 103.467,135.355 101,134.71 C99.9,134.423 99,133.47 99,132.594 C99,131.717 98.325,131 97.5,131 C96.462,131 96,129.957 96,127.617 C96,125.074 95.503,124.103 94,123.71 C92.468,123.31 92,122.346 92,119.594 C92,117.212 91.537,116 90.625,116 C89.601,116 89.136,113.813 88.8,107.417 C88.513,101.936 87.886,98.547 87.066,98.041 C86.36,97.604 85.548,95.167 85.261,92.624 C84.82,88.712 85.005,88 86.464,88 C87.412,88 88.423,87.1 88.71,86 C89.103,84.497 90.074,84 92.617,84 C95.817,84 96,84.19 96,87.5 C96,90.394 96.365,91 98.109,91 C100.086,91 100.201,91.454 99.942,98.25 C99.381,112.983 99.884,120 101.5,120 C102.548,120 103,121.056 103,123.5 L103,127 L108.5,127 C113.333,127 114,126.758 114,125 C114,123.9 114.639,123 115.421,123 C116.202,123 117.138,121.65 117.5,120 C117.862,118.35 118.798,117 119.579,117 C120.543,117 121,115.845 121,113.406 C121,110.654 121.468,109.69 123,109.29 C124.503,108.897 125,107.926 125,105.383 C125,103.163 125.477,102 126.389,102 C127.184,102 128.058,100.505 128.434,98.5 C128.827,96.405 129.675,95 130.545,95 C131.576,95 132,93.834 132,91 C132,88.166 132.424,87 133.455,87 C134.325,87 135.173,85.595 135.566,83.5 C135.942,81.495 136.816,80 137.611,80 C138.375,80 139,79.356 139,78.57 C139,77.783 140.012,76.944 141.25,76.706 Z M89,168.5 C89,167.367 90.222,167 94,167 C97.778,167 99,167.367 99,168.5 C99,169.325 98.325,170 97.5,170 C96.667,170 96,170.889 96,172 C96,173.333 95.333,174 94,174 C92.9,174 92,174.655 92,175.455 C92,176.325 90.595,177.173 88.5,177.566 C86.495,177.942 85,178.816 85,179.611 C85,180.532 83.82,181 81.5,181 C78.667,181 78,181.381 78,183 C78,184.619 77.333,185 74.5,185 C72.18,185 71,185.468 71,186.389 C71,187.184 69.505,188.058 67.5,188.434 C65.405,188.827 64,189.675 64,190.545 C64,191.532 62.91,192 60.611,192 C57.53,192 57.163,192.318 56.566,195.5 C56.173,197.595 55.325,199 54.455,199 C53.469,199 53,200.088 53,202.375 C53,205.355 52.634,205.823 49.875,206.375 C48.156,206.719 44.781,207 42.375,207 C39.153,207 38,207.395 38,208.5 C38,209.325 37.325,210 36.5,210 C35.348,210 35,208.722 35,204.5 C35,199.667 35.242,199 37,199 C38.111,199 39,198.333 39,197.5 C39,196.675 39.675,196 40.5,196 C41.333,196 42,195.111 42,194 C42,192.381 42.667,192 45.5,192 C48.333,192 49,191.619 49,190 C49,188.667 49.667,188 51,188 C52.111,188 53,187.333 53,186.5 C53,185.452 54.056,185 56.5,185 C59.333,185 60,184.619 60,183 C60,181.381 60.667,181 63.5,181 C65.82,181 67,180.532 67,179.611 C67,178.816 68.495,177.942 70.5,177.566 C72.595,177.173 74,176.325 74,175.455 C74,174.424 75.166,174 78,174 C81.333,174 82,173.667 82,172 C82,170.381 82.667,170 85.5,170 C87.944,170 89,169.548 89,168.5 Z M49,128.455 C49,127.29 50.791,127 58,127 C65.084,127 67,127.301 67,128.412 C67,129.28 68.541,130.085 71,130.5 C73.459,130.915 75,131.72 75,132.588 C75,133.365 75.675,134 76.5,134 C77.333,134 78,134.889 78,136 C78,137.333 78.667,138 80,138 C81.804,138 81.999,138.662 81.986,144.75 C81.97,152.848 81.241,156 79.383,156 C78.469,156 78,154.813 78,152.5 C78,150.18 77.532,149 76.611,149 C75.816,149 74.942,147.505 74.566,145.5 C74.173,143.405 73.325,142 72.455,142 C71.655,142 71,141.1 71,140 C71,138.178 70.333,138 63.5,138 C57.604,138 56,138.311 56,139.455 C56,141.286 51.229,142.224 44,141.813 C38.573,141.504 38.496,141.456 38.181,138.174 C37.925,135.506 38.271,134.742 39.931,134.308 C41.069,134.01 42,133.194 42,132.495 C42,131.795 43.575,130.927 45.5,130.566 C47.595,130.173 49,129.325 49,128.455 Z M51.853,80.67 C54.422,79.987 66.247,79.96 68.75,80.63 C69.987,80.962 71,81.856 71,82.617 C71,83.531 72.187,84 74.5,84 C77.333,84 78,84.381 78,86 C78,87.1 78.623,88 79.383,88 C80.899,88 81.965,90.968 81.986,95.25 C81.999,97.794 81.7,98 78,98 C75.111,98 74,97.583 74,96.5 C74,95.675 73.325,95 72.5,95 C71.675,95 71,94.377 71,93.617 C71,92.041 68,91.034 63.25,91.014 C60.662,91.003 60,91.407 60,93 C60,94.333 59.333,95 58,95 C56.9,95 56,94.345 56,93.545 C56,92.675 54.595,91.827 52.5,91.434 C49.545,90.88 49.002,90.366 49.014,88.139 C49.036,83.897 50.084,81.139 51.853,80.67 Z M195.709,109.697 C194.708,109.957 193.66,111.45 193.334,113.081 C193.007,114.716 192.104,116 191.281,116 C190.474,116 189.577,116.9 189.29,118 C189.002,119.1 188.144,120 187.383,120 C186.623,120 186,120.9 186,122 C186,123.333 185.333,124 184,124 C182.889,124 182,124.667 182,125.5 C182,126.325 181.325,127 180.5,127 C179.667,127 179,127.889 179,129 C179,130.333 179.667,131 181,131 C182.1,131 183,130.361 183,129.579 C183,128.798 184.35,127.862 186,127.5 C187.65,127.138 189,126.202 189,125.421 C189,124.639 189.9,124 191,124 C192.333,124 193,123.333 193,122 C193,120.667 193.667,120 195,120 C196.333,120 197,119.333 197,118 C197,116.889 197.667,116 198.5,116 C199.548,116 200,114.944 200,112.5 C200,108.997 199.547,108.7 195.709,109.697 Z M160.29,129 C160.002,130.1 159.369,131 158.883,131 C158.398,131 158,131.675 158,132.5 C158,133.548 159.056,134 161.5,134 C163.944,134 165,133.548 165,132.5 C165,131.675 165.675,131 166.5,131 C167.333,131 168,130.111 168,129 C168,127.371 167.333,127 164.406,127 C161.654,127 160.69,127.468 160.29,129 Z M172,136 C172,137.619 172.667,138 175.5,138 C179.511,138 180.398,135.608 176.75,134.63 C172.993,133.624 172,133.91 172,136 Z"/>
</svg>

