<svg xmlns="http://www.w3.org/2000/svg" width="300" height="300" viewBox="0 0 300 300" version="1.1">
  <defs/>
  <path d="M78,95 L78,80 L89,80 L89,91 L98,91 C106.333,91 107,91.148 107,93 C107,94.333 107.667,95 109,95 C110.656,95 111,95.667 111,98.875 C111,104.772 109.904,109 108.375,109 C107.619,109 107,108.325 107,107.5 C107,106.667 106.111,106 105,106 C103.667,106 103,105.333 103,104 C103,102.889 102.333,102 101.5,102 C100.675,102 100,101.325 100,100.5 C100,99.667 99.111,99 98,99 C96.889,99 96,99.667 96,100.5 C96,101.548 94.944,102 92.5,102 L89,102 L89,127 L96,127 C101.556,127 103,126.69 103,125.5 C103,124.348 104.278,124 108.5,124 C112.722,124 114,124.348 114,125.5 C114,126.333 114.889,127 116,127 C117.619,127 118,127.667 118,130.5 C118,133.876 117.867,134 114.25,134.009 C106.622,134.026 100,135.249 100,136.639 C100,137.518 98.805,138 96.629,138 L93.258,138 L92.554,147 C92.022,153.793 91.5,156 90.425,156 C89.316,156 89,157.691 89,163.617 C89,171.027 89.061,171.217 91.25,170.63 C92.487,170.299 94.737,170.021 96.25,170.014 C98.022,170.005 99,169.466 99,168.5 C99,167.417 100.111,167 103,167 C106.333,167 107,166.667 107,165 C107,163.148 107.667,163 116,163 L125,163 L125,172 C125,179.123 125.297,181 126.425,181 C127.5,181 128.022,183.207 128.554,190 C129.071,196.615 129.621,199 130.629,199 C131.562,199 132,200.278 132,203 C132,205.739 132.436,207 133.383,207 C134.899,207 135.965,209.968 135.986,214.25 C135.994,215.762 136.499,217 137.109,217 C138.645,217 142.962,221.226 142.983,222.75 C142.992,223.438 143.675,224 144.5,224 C145.333,224 146,224.889 146,226 C146,227.758 146.667,228 151.5,228 L157,228 L157,235 L150,235 C144.444,235 143,234.69 143,233.5 C143,232.667 142.111,232 141,232 C139.667,232 139,231.333 139,230 C139,228.667 138.333,228 137,228 C135.667,228 135,227.333 135,226 C135,224.458 134.333,224 132.088,224 C129.47,224 129.108,224.404 128.5,228 C128.085,230.459 127.28,232 126.412,232 C125.5,232 125,233.096 125,235.094 C125,237.346 124.456,238.329 123,238.71 C121.9,238.998 121,239.856 121,240.617 C121,241.377 120.377,242 119.617,242 C118.856,242 117.998,242.9 117.71,244 C117.423,245.1 116.47,246 115.594,246 C114.717,246 114,246.675 114,247.5 C114,248.325 113.283,249 112.406,249 C111.53,249 110.593,249.842 110.324,250.871 C109.955,252.281 108.564,252.892 104.673,253.352 C101.835,253.688 99.359,254.422 99.173,254.982 C98.733,256.302 96.267,256.302 95.827,254.982 C95.641,254.422 93.128,253.684 90.244,253.342 C84.934,252.714 84.548,252.287 85.63,248.25 C86.307,245.725 88,245.189 88,247.5 C88,248.667 89.333,249 94,249 C98.667,249 100,248.667 100,247.5 C100,246.452 101.056,246 103.5,246 C106.333,246 107,245.619 107,244 C107,242.889 107.667,242 108.5,242 C109.325,242 110,241.325 110,240.5 C110,239.667 110.889,239 112,239 C113.758,239 114,238.333 114,233.5 C114,228.667 113.758,228 112,228 C110.667,228 110,227.333 110,226 C110,224.889 109.333,224 108.5,224 C107.49,224 107,222.99 107,220.906 C107,218.654 106.456,217.671 105,217.29 C103.497,216.897 103,215.926 103,213.383 C103,211.163 102.523,210 101.611,210 C98.181,210 98.633,196.591 102.094,195.686 C103.142,195.412 104,194.47 104,193.594 C104,191.576 105.875,191.51 106.638,193.5 C106.955,194.325 107.841,195 108.607,195 C109.585,195 110,196.302 110,199.375 C110,205.741 111.052,210 112.625,210 C113.53,210 114,211.197 114,213.5 C114,215.976 114.448,217 115.531,217 C116.374,217 117.322,217.675 117.638,218.5 C117.955,219.325 118.841,220 119.607,220 C120.655,220 121,218.389 121,213.5 C121,208.389 120.679,207 119.5,207 C118.296,207 117.998,205.468 117.991,199.25 C117.979,187.912 116.982,181 115.361,181 C114.472,181 114,179.785 114,177.5 C114,174.167 113.833,174 110.5,174 C108.197,174 107,174.47 107,175.375 C107,176.746 102.88,178 98.375,178 C96.931,178 96,178.588 96,179.5 C96,180.637 94.767,181 90.906,181 C86.654,181 85.726,181.33 85.29,183 C84.857,184.656 83.926,185 79.883,185 C76.394,185 75,185.395 75,186.383 C75,187.374 72.878,187.964 67.5,188.468 C62.032,188.98 60,189.554 60,190.585 C60,191.679 58.299,192 52.5,192 C46.5,192 45,191.7 45,190.5 C45,189.675 44.325,189 43.5,189 C42.236,189 42,186.722 42,174.5 C42,162.937 42.276,160 43.361,160 C45.264,160 45.981,152.705 45.991,133.25 C45.999,119.476 46.229,117 47.5,117 C48.655,117 49,115.712 49,111.406 C49,106.654 49.301,105.734 51,105.29 C52.1,105.002 53,104.144 53,103.383 C53,102.623 53.675,102 54.5,102 C55.333,102 56,101.111 56,100 C56,98.19 56.667,98 63,98 C68.556,98 70,97.69 70,96.5 C70,95.417 71.111,95 74,95 L78,95 Z M150,39 C150,37.242 150.667,37 155.5,37 L161,37 L161,40.389 C161,43.47 160.682,43.837 157.5,44.434 C154.409,45.014 154,45.447 154,48.139 C154,50.346 153.448,51.332 152,51.71 C150.344,52.143 150,53.074 150,57.117 C150,60.791 149.629,62 148.5,62 C147.667,62 147,62.889 147,64 C147,65.111 147.667,66 148.5,66 C149.325,66 150,66.675 150,67.5 C150,68.652 151.278,69 155.5,69 C159.722,69 161,68.652 161,67.5 C161,66.312 162.431,66 167.883,66 C173.926,66 174.831,65.756 175.29,64 C175.671,62.544 176.654,62 178.906,62 C180.99,62 182,61.51 182,60.5 C182,59.445 183.066,59 185.594,59 C188.346,59 189.31,58.532 189.71,57 C190.103,55.497 191.074,55 193.617,55 C195.957,55 197,54.538 197,53.5 C197,52.675 197.675,52 198.5,52 C199.333,52 200,51.111 200,50 C200,48.667 200.667,48 202,48 C203.111,48 204,47.333 204,46.5 C204,45.675 204.675,45 205.5,45 C206.325,45 207,45.675 207,46.5 C207,47.333 207.889,48 209,48 C210.858,48 211,48.667 211,57.375 C211,68.751 211.745,73 213.738,73 C215.885,73 215.166,93.661 212.973,95.017 C211.912,95.672 211.401,98.317 211.147,104.463 C210.88,110.938 210.457,113 209.397,113 C208.467,113 208,114.17 208,116.5 C208,118.82 208.468,120 209.389,120 C210.184,120 211.058,121.495 211.434,123.5 C211.827,125.595 212.675,127 213.545,127 C214.345,127 215,127.9 215,129 C215,130.111 215.667,131 216.5,131 C217.325,131 218,131.675 218,132.5 C218,133.333 218.889,134 220,134 C221.333,134 222,134.667 222,136 C222,137.111 222.667,138 223.5,138 C224.325,138 225,138.675 225,139.5 C225,140.325 224.325,141 223.5,141 C222.667,141 222,141.889 222,143 C222,144.333 221.333,145 220,145 C218.9,145 218,144.361 218,143.579 C218,142.798 216.679,141.869 215.065,141.514 C212.891,141.037 211.969,140.135 211.508,138.037 C211.151,136.409 210.059,134.987 208.943,134.695 C207.874,134.416 207,133.47 207,132.594 C207,131.717 206.325,131 205.5,131 C204.667,131 204,130.111 204,129 C204,127.242 203.333,127 198.5,127 C193.667,127 193,127.242 193,129 C193,130.619 192.333,131 189.5,131 C187.187,131 186,131.469 186,132.383 C186,133.144 185.1,134.002 184,134.29 C182.9,134.577 182,135.53 182,136.406 C182,137.51 181.078,138 179,138 C176.922,138 176,138.49 176,139.594 C176,140.47 175.1,141.423 174,141.71 C172.9,141.998 172,142.856 172,143.617 C172,144.377 171.1,145 170,145 C168.667,145 168,145.667 168,147 C168,148.333 167.333,149 166,149 C164.889,149 164,149.667 164,150.5 C164,151.325 163.325,152 162.5,152 C161.667,152 161,152.889 161,154 C161,155.1 160.345,156 159.545,156 C158.675,156 157.827,157.405 157.434,159.5 C157.058,161.505 156.184,163 155.389,163 C154.468,163 154,164.18 154,166.5 C154,168.944 154.452,170 155.5,170 C156.325,170 157,169.325 157,168.5 C157,167.316 158.423,166.997 163.75,166.986 C171.848,166.97 175,166.241 175,164.383 C175,163.279 177.524,163 187.5,163 C197.944,163 200,162.753 200,161.5 C200,160.667 200.889,160 202,160 C203.111,160 204,160.667 204,161.5 C204,162.652 205.278,163 209.5,163 C213.722,163 215,163.348 215,164.5 C215,165.325 215.675,166 216.5,166 C217.7,166 218,167.5 218,173.5 C218,179.5 217.7,181 216.5,181 C215.417,181 215,182.111 215,185 C215,187.739 214.564,189 213.617,189 C212.101,189 211.035,191.968 211.014,196.25 C211.005,197.923 210.456,199 209.611,199 C208.816,199 207.942,200.495 207.566,202.5 C207.173,204.595 206.325,206 205.455,206 C204.459,206 204,207.104 204,209.5 C204,212.036 204.439,213 205.594,213 C206.47,213 207.423,213.9 207.71,215 C208.103,216.503 209.074,217 211.617,217 C214.333,217 215,217.394 215,219 C215,220.619 215.667,221 218.5,221 C221.333,221 222,221.381 222,223 C222,224.111 222.667,225 223.5,225 C224.325,225 225,225.675 225,226.5 C225,227.333 225.889,228 227,228 C228.1,228 229,228.623 229,229.383 C229,230.144 229.9,231.002 231,231.29 C232.1,231.577 233,232.53 233,233.406 C233,234.561 233.964,235 236.5,235 C239.333,235 240,235.381 240,237 C240,238.333 240.667,239 242,239 C243.111,239 244,239.667 244,240.5 C244,241.548 245.056,242 247.5,242 C250.333,242 251,242.381 251,244 C251,245.619 251.667,246 254.5,246 C257.333,246 258,246.381 258,248 C258,249.333 258.667,250 260,250 C261.111,250 262,250.667 262,251.5 C262,252.548 263.056,253 265.5,253 C268.333,253 269,253.381 269,255 C269,256.111 269.667,257 270.5,257 C271.548,257 272,258.056 272,260.5 L272,264 L267,264 C263.092,264 262,263.652 262,262.406 C262,261.53 261.1,260.577 260,260.29 C258.9,260.002 258,259.144 258,258.383 C258,257.623 257.1,257 256,257 C254.9,257 254,256.345 254,255.545 C254,254.675 252.595,253.827 250.5,253.434 C248.575,253.073 247,252.205 247,251.505 C247,250.806 246.1,249.998 245,249.71 C243.9,249.423 243,248.47 243,247.594 C243,246.439 242.036,246 239.5,246 C236.667,246 236,245.619 236,244 C236,242.444 235.333,242 233,242 Q230,242 230,240.5 C230,239.675 229.152,239 228.117,239 C227.074,239 226,238.107 225.71,237 C225.329,235.544 224.346,235 222.094,235 C220.01,235 219,234.51 219,233.5 C219,232.667 218.111,232 217,232 C215.667,232 215,231.333 215,230 C215,228.381 214.333,228 211.5,228 C208.964,228 208,227.561 208,226.406 C208,225.53 207.1,224.577 206,224.29 C204.9,224.002 204,223.144 204,222.383 C204,221.469 202.813,221 200.5,221 C198.187,221 197,221.469 197,222.383 C197,223.144 196.1,224.002 195,224.29 C193.9,224.577 193,225.53 193,226.406 C193,227.283 192.375,228 191.611,228 C190.816,228 189.942,229.495 189.566,231.5 C189.173,233.595 188.325,235 187.455,235 C186.655,235 186,235.9 186,237 C186,238.111 185.333,239 184.5,239 C183.675,239 183,239.717 183,240.594 C183,241.47 182.1,242.423 181,242.71 C179.9,242.998 179,243.856 179,244.617 C179,245.377 178.1,246 177,246 C175.889,246 175,246.667 175,247.5 C175,248.325 174.325,249 173.5,249 C172.675,249 172,248.325 172,247.5 C172,246.667 171.111,246 170,246 C168.667,246 168,245.333 168,244 C168,242.889 168.667,242 169.5,242 C170.325,242 171,241.325 171,240.5 C171,239.675 171.724,239 172.609,239 C174.538,239 178.958,235.012 178.983,233.25 C178.992,232.563 179.625,232 180.389,232 C181.184,232 182.058,230.505 182.434,228.5 C182.827,226.405 183.675,225 184.545,225 C185.43,225 186,224.021 186,222.5 C186,221.031 186.574,220 187.392,220 C188.895,220 190.437,215.516 189.472,213.954 C189.147,213.429 188.234,213 187.441,213 C186.648,213 186,212.325 186,211.5 C186,210.462 184.957,210 182.617,210 C180.074,210 179.103,209.503 178.71,208 C178.423,206.9 177.47,206 176.594,206 C175.717,206 175,205.325 175,204.5 C175,203.452 173.944,203 171.5,203 C168.667,203 168,202.619 168,201 C168,199.889 167.333,199 166.5,199 C165.452,199 165,197.944 165,195.5 L165,192 L172,192 C178.333,192 179,192.19 179,194 C179,195.111 179.667,196 180.5,196 C181.325,196 182,196.675 182,197.5 C182,198.333 182.889,199 184,199 C185.1,199 186,199.623 186,200.383 C186,201.959 189,202.966 193.75,202.986 C196.338,202.997 197,202.593 197,201 C197,199.889 197.667,199 198.5,199 C199.548,199 200,197.944 200,195.5 C200,192.667 200.381,192 202,192 C203.758,192 204,191.333 204,186.5 C204,182.278 204.348,181 205.5,181 C206.633,181 207,179.778 207,176 L207,171 L200,171 C194.444,171 193,171.31 193,172.5 C193,173.722 191.333,174 184,174 C177.03,174 175,174.31 175,175.375 C175,177.246 170.511,178 159.375,178 C151.708,178 150,178.273 150,179.5 C150,180.69 148.556,181 143,181 L136,181 L136,176 C136,172.222 136.367,171 137.5,171 C138.333,171 139,170.111 139,169 C139,167.667 139.667,167 141,167 C142.333,167 143,166.333 143,165 C143,163.9 143.625,163 144.389,163 C145.184,163 146.058,161.505 146.434,159.5 C146.827,157.405 147.675,156 148.545,156 C149.345,156 150,155.1 150,154 C150,152.889 150.667,152 151.5,152 C152.325,152 153,151.325 153,150.5 C153,149.667 153.889,149 155,149 C156.333,149 157,148.333 157,147 C157,145.667 157.667,145 159,145 C160.111,145 161,144.333 161,143.5 C161,142.675 161.675,142 162.5,142 C163.333,142 164,141.111 164,140 C164,138.667 164.667,138 166,138 C167.333,138 168,137.333 168,136 C168,134.667 168.667,134 170,134 C171.1,134 172,133.361 172,132.579 C172,131.798 173.312,130.871 174.916,130.518 C176.521,130.166 178.081,129.23 178.385,128.439 C178.689,127.648 179.626,127 180.469,127 C181.311,127 182,126.381 182,125.625 C182,124.254 186.12,123 190.625,123 C192.069,123 193,122.412 193,121.5 C193,120.667 193.889,120 195,120 C197.652,120 197.608,116.972 194.946,116.276 C193.335,115.854 192.958,115.067 193.196,112.619 C193.49,109.606 193.679,109.49 198.75,109.198 L204,108.895 L204,89.448 C204,73.366 203.756,70 202.588,70 C201.72,70 200.915,68.459 200.5,66 C200.128,63.8 199.301,62.006 198.662,62.014 C195.829,62.047 193,63.348 193,64.617 C193,65.531 191.813,66 189.5,66 C186.667,66 186,66.381 186,68 C186,69.619 185.333,70 182.5,70 C180.056,70 179,70.452 179,71.5 C179,72.652 177.722,73 173.5,73 C168.667,73 168,73.242 168,75 C168,76.904 167.338,76.999 154.25,76.986 C137.62,76.97 136.309,76.683 135.473,72.877 C134.559,68.718 135.866,62 137.588,62 C138.616,62 139,60.639 139,57 C139,52.667 139.267,52 141,52 C142.619,52 143,51.333 143,48.5 C143,45.964 143.439,45 144.594,45 C145.47,45 146.423,44.1 146.71,43 C146.998,41.9 147.856,41 148.617,41 C149.377,41 150,40.1 150,39 Z M76.25,141.696 C75.013,141.94 74,142.783 74,143.57 C74,144.621 72.666,145 68.969,145 C65.46,145 63.766,145.446 63.372,146.473 C63.061,147.283 61.275,148.233 59.403,148.584 C57.473,148.946 56,149.823 56,150.611 C56,151.375 55.325,152 54.5,152 C53.236,152 53,154.278 53,166.5 L53,181 L58.5,181 C62.722,181 64,180.652 64,179.5 C64,178.588 64.931,178 66.375,178 C70.88,178 75,176.746 75,175.375 C75,174.491 76.16,174 78.25,173.999 L81.5,173.998 L81.5,157.767 C81.5,146.126 81.545,142.395 79.984,141.515 C79.206,141.076 78.029,141.345 76.25,141.696 Z M172,78.5 C172,77.31 173.444,77 179,77 C184.556,77 186,77.31 186,78.5 C186,79.548 187.056,80 189.5,80 C192.333,80 193,80.381 193,82 C193,83.111 193.667,84 194.5,84 C196.987,84 196.185,86.737 193.5,87.411 C190.169,88.247 186,87.124 186,85.392 C186,84.468 184.823,84 182.5,84 C180.104,84 179,84.459 179,85.455 C179,86.325 177.595,87.173 175.5,87.566 C173.495,87.942 172,88.816 172,89.611 C172,90.375 171.1,91 170,91 C168.667,91 168,91.667 168,93 C168,94.1 167.345,95 166.545,95 C165.675,95 164.827,96.405 164.434,98.5 C164.058,100.505 163.184,102 162.389,102 C161.468,102 161,103.18 161,105.5 C161,108.333 160.619,109 159,109 C157.381,109 157,109.667 157,112.5 C157,114.944 156.548,116 155.5,116 C154.445,116 154,117.066 154,119.594 C154,122.346 153.532,123.31 152,123.71 C150.608,124.074 150,125.074 150,127 C150,128.926 149.392,129.926 148,130.29 C144.71,131.15 145.636,133.709 149.5,134.434 C152.562,135.008 153,135.46 153,138.045 C153,140.005 152.495,141 151.5,141 C150.675,141 150,141.837 150,142.861 C150,144.342 149.005,144.839 145.122,145.299 C136.222,146.353 134.709,144.761 135.759,135.448 C136.081,132.593 136.751,131 137.63,131 C138.52,131 139,129.815 139,127.617 C139,125.074 139.497,124.103 141,123.71 C142.456,123.329 143,122.346 143,120.094 C143,118.096 143.5,117 144.412,117 C145.28,117 146.085,115.459 146.5,113 C146.915,110.541 147.72,109 148.588,109 C149.535,109 150,107.848 150,105.5 C150,102.667 150.381,102 152,102 C153.619,102 154,101.333 154,98.5 C154,96.056 154.452,95 155.5,95 C156.333,95 157,94.111 157,93 C157,91.667 157.667,91 159,91 C160.333,91 161,90.333 161,89 C161,87.889 161.667,87 162.5,87 C163.325,87 164,86.325 164,85.5 C164,84.667 164.889,84 166,84 C167.333,84 168,83.333 168,82 C168,80.667 168.667,80 170,80 C171.111,80 172,79.333 172,78.5 Z M74.75,105.728 C72.496,105.964 71,106.651 71,107.449 C71,108.18 69.425,109.073 67.5,109.434 C65.405,109.827 64,110.675 64,111.545 C64,112.345 63.1,113 62,113 C60.667,113 60,113.667 60,115 C60,116.111 59.333,117 58.5,117 C57.476,117 56.997,118.032 56.991,120.25 C56.987,122.037 56.699,125.862 56.352,128.75 L55.721,134 L59.861,134 C62.873,134 64,133.592 64,132.5 C64,131.285 65.604,131 72.439,131 L80.877,131 L81.555,126.48 C82.497,120.199 81.141,104.953 79.66,105.168 C79.022,105.261 76.813,105.513 74.75,105.728 Z M67.792,58.732 C79.731,58.563 90.4,58.548 91.5,58.699 C92.6,58.849 94.063,58.979 94.75,58.986 C95.438,58.994 96,59.675 96,60.5 C96,61.333 96.889,62 98,62 C99.333,62 100,62.667 100,64 C100,65.111 100.667,66 101.5,66 C102.548,66 103,67.056 103,69.5 C103,72.833 102.833,73 99.5,73 C97.056,73 96,72.548 96,71.5 C96,70.675 95.283,70 94.406,70 C93.53,70 92.577,69.1 92.29,68 C91.816,66.189 90.926,66 82.883,66 C76.099,66 74,66.318 74,67.348 C74,68.354 71.293,68.862 63.344,69.348 C44.797,70.483 42,70.306 42,68 C42,66.9 42.625,66 43.389,66 C44.183,66 45.057,64.509 45.43,62.519 L46.083,59.039 Z M27.63,205.25 C28.105,203.479 28.953,203 31.617,203 C34.817,203 35,203.19 35,206.5 C35,208.944 35.452,210 36.5,210 C37.412,210 38,210.931 38,212.375 C38,216.88 39.254,221 40.625,221 C41.53,221 42,222.197 42,224.5 C42,227.833 42.167,228 45.5,228 C48.411,228 49,228.36 49,230.143 C49,232.226 49.255,232.268 58,231.608 C66.609,230.958 67,231.017 67,232.964 C67,234.084 66.377,235 65.617,235 C64.856,235 63.998,235.9 63.71,237 C63.24,238.8 62.352,238.999 54.844,238.986 C45.199,238.971 42,238.322 42,236.383 C42,235.623 41.325,235 40.5,235 C39.675,235 39,234.283 39,233.406 C39,232.53 38.1,231.577 37,231.29 C35.9,231.002 35,230.144 35,229.383 C35,228.623 34.1,228 33,228 C31.381,228 31,227.333 31,224.5 C31,222.197 30.53,221 29.625,221 C27.418,221 26.132,210.842 27.63,205.25 Z M70.357,207.512 C70.723,206.558 72.239,206 74.469,206 C77.333,206 78,206.378 78,208 C78,209.1 78.655,210 79.455,210 C80.325,210 81.173,211.405 81.566,213.5 C81.942,215.505 82.816,217 83.611,217 C84.375,217 85,217.9 85,219 C85,220.333 85.667,221 87,221 C88.111,221 89,221.667 89,222.5 C89,223.548 90.056,224 92.5,224 C94.944,224 96,223.548 96,222.5 C96,221.452 97.056,221 99.5,221 C102.833,221 103,221.167 103,224.5 C103,227.333 102.619,228 101,228 C99.9,228 99,228.623 99,229.383 C99,231.103 95.923,231.969 89.75,231.986 C85.662,231.998 85,231.721 85,230 C85,228.667 84.333,228 83,228 C81.9,228 81,227.361 81,226.579 C81,225.798 79.679,224.869 78.065,224.514 C75.861,224.03 74.97,223.139 74.486,220.935 C74.131,219.321 73.229,218 72.482,218 C70.986,218 69.378,210.063 70.357,207.512 Z"/>
</svg>

