<svg xmlns="http://www.w3.org/2000/svg" width="300" height="300" viewBox="0 0 300 300" version="1.1">
  <defs/>
  <path d="M117.667,152.667 C118.495,151.839 129.695,151.812 132.75,152.63 C133.988,152.962 135,153.856 135,154.617 C135,155.749 138.713,156 155.5,156 C172.346,156 176,155.752 176,154.608 C176,152.876 180.169,151.753 183.5,152.589 C184.875,152.934 186,153.843 186,154.608 C186,155.629 187.468,156 191.5,156 L197,156 L197,160.01 C197,162.782 196.383,164.548 195,165.732 C193.9,166.674 193,168.019 193,168.722 C193,169.425 192.325,170 191.5,170 C190.667,170 190,170.889 190,172 C190,173.333 189.333,174 188,174 C186.148,174 186,174.667 186,183 C186,191.333 186.148,192 188,192 C189.111,192 190,192.667 190,193.5 C190,194.325 190.675,195 191.5,195 C192.325,195 193,194.325 193,193.5 C193,192.247 195.056,192 205.5,192 C215.652,192 218,192.268 218,193.425 C218,194.5 220.207,195.022 227,195.554 C233.615,196.071 236,196.621 236,197.629 C236,198.383 236.9,199 238,199 C239.619,199 240,199.667 240,202.5 C240,205.333 240.381,206 242,206 C243.758,206 244,206.667 244,211.5 C244,216.333 243.758,217 242,217 C240.381,217 240,217.667 240,220.5 C240,223.036 239.561,224 238.406,224 C237.53,224 236.577,224.9 236.29,226 C236.002,227.1 235.144,228 234.383,228 C233.623,228 233,228.9 233,230 C233,231.333 232.333,232 231,232 C229.667,232 229,232.667 229,234 C229,235.111 228.333,236 227.5,236 C226.675,236 226,236.675 226,237.5 C226,238.333 225.111,239 224,239 C222.889,239 222,239.667 222,240.5 C222,241.325 221.283,242 220.406,242 C219.53,242 218.577,242.9 218.29,244 C217.859,245.647 216.926,246 213,246 C209.074,246 208.141,246.353 207.71,248 C207.329,249.456 206.346,250 204.094,250 C202.01,250 201,250.49 201,251.5 C201,252.333 200.111,253 199,253 C197.19,253 197,253.667 197,260 C197,265.273 197.339,267 198.375,267 C199.948,267 201,271.259 201,277.625 C201,281.333 200.695,282 199,282 C197.667,282 197,282.667 197,284 C197,286.09 196.007,286.376 192.25,285.37 C190.526,284.908 189.998,284.034 189.991,281.633 C189.972,274.563 188.705,268 187.361,268 C186.334,268 186,266.159 186,260.5 L186,253 L175,253 C165.889,253 164,252.742 164,251.5 C164,250.675 163.325,250 162.5,250 C161.675,250 161,250.675 161,251.5 C161,252.333 160.111,253 159,253 C157.667,253 157,253.667 157,255 C157,256.333 156.333,257 155,257 C153.9,257 153,257.639 153,258.421 C153,259.202 151.64,260.14 149.978,260.505 C145.735,261.437 139,260.153 139,258.412 C139,257.635 138.325,257 137.5,257 C136.588,257 136,256.069 136,254.625 C136,250.12 134.746,246 133.375,246 C132.296,246 132,243.742 132,235.5 C132,227.313 131.7,225 130.64,225 C129.724,225 129.091,223.171 128.701,219.395 C128.383,216.312 127.983,213.653 127.811,213.486 C127.64,213.318 125.362,213.424 122.75,213.721 C119.657,214.072 118,214.738 118,215.63 C118,216.614 116.522,217.004 112.75,217.014 C106.098,217.031 103,217.858 103,219.617 C103,220.663 101.293,221 96,221 C90.727,221 89,221.339 89,222.375 C89,223.746 84.88,225 80.375,225 C78.931,225 78,225.588 78,226.5 C78,227.652 76.722,228 72.5,228 C67.667,228 67,228.242 67,230 C67,231.619 66.333,232 63.5,232 C61.18,232 60,232.468 60,233.389 C60,234.177 58.527,235.054 56.597,235.416 C54.725,235.767 52.939,236.717 52.628,237.527 C52.234,238.554 50.54,239 47.031,239 L42,239 L42,235.5 C42,232.964 42.439,232 43.594,232 C44.47,232 45.423,231.1 45.71,230 C46.103,228.497 47.074,228 49.617,228 C52.333,228 53,227.606 53,226 C53,224.381 53.667,224 56.5,224 C58.944,224 60,223.548 60,222.5 C60,221.416 61.112,221 64.01,221 C66.782,221 68.548,220.383 69.732,219 C70.798,217.755 72.682,217 74.722,217 C76.852,217 78,216.514 78,215.611 C78,214.816 79.495,213.942 81.5,213.566 C83.595,213.173 85,212.325 85,211.455 C85,210.358 86.354,210 90.5,210 C95.333,210 96,209.758 96,208 C96,206.381 96.667,206 99.5,206 C101.944,206 103,205.548 103,204.5 C103,203.462 104.043,203 106.383,203 C108.926,203 109.897,202.503 110.29,201 C110.726,199.33 111.654,199 115.906,199 C119.586,199 121,198.614 121,197.611 C121,196.816 122.495,195.942 124.5,195.566 C127.47,195.009 128.002,194.5 128.014,192.205 C128.045,185.953 128.853,185 134.117,185 C137.791,185 139,185.371 139,186.5 C139,187.548 140.056,188 142.5,188 C144.944,188 146,187.548 146,186.5 C146,185.667 146.889,185 148,185 C149.333,185 150,184.333 150,183 C150,181.381 150.667,181 153.5,181 C155.82,181 157,180.532 157,179.611 C157,178.816 158.495,177.942 160.5,177.566 C162.595,177.173 164,176.325 164,175.455 C164,174.468 165.089,174 167.383,174 C169.926,174 170.897,173.503 171.29,172 C171.577,170.9 172.53,170 173.406,170 C174.283,170 175,169.325 175,168.5 C175,167.675 174.311,167 173.469,167 C172.626,167 171.678,166.325 171.362,165.5 C170.623,163.576 160.382,163.356 159.749,165.25 C159.18,166.95 140.193,166.931 139.142,165.229 C138.725,164.556 134.647,163.754 129.704,163.374 C123.822,162.922 121,162.304 121,161.469 C121,160.789 120.1,159.998 119,159.71 C117.575,159.338 117,158.346 117,156.26 C117,154.65 117.3,153.033 117.667,152.667 Z M85,21 C85,19.148 85.667,19 94,19 C101.022,19 103,19.306 103,20.392 C103,21.157 104.081,22.055 105.402,22.386 C108.283,23.109 114,22.104 114,20.875 C114,20.394 114.9,20 116,20 C117.1,20 118,20.43 118,20.955 C118,21.48 119.575,22.205 121.5,22.566 C123.425,22.927 125,23.797 125,24.5 C125,25.203 123.425,26.073 121.5,26.434 C119.405,26.827 118,27.675 118,28.545 C118,29.751 115.535,30 103.611,30 L89.223,30 L88.566,33.5 C88.173,35.595 87.325,37 86.455,37 C85.275,37 85.003,38.941 85.014,47.25 C85.028,57.649 85.613,62 87,62 C87.422,62 88.002,61.1 88.29,60 C88.603,58.803 89.654,58 90.906,58 C92.058,58 93,57.55 93,57 C93,55.622 98.744,55.732 99.206,57.118 C99.412,57.737 102.804,58.468 106.789,58.753 C111.965,59.123 114,59.654 114,60.634 C114,61.528 115.209,62 117.5,62 C120.333,62 121,62.381 121,64 C121,65.1 121.623,66 122.383,66 C123.144,66 124.038,67.013 124.37,68.25 C125.337,71.86 125.106,73 123.406,73 C122.53,73 121.577,73.9 121.29,75 C121,76.107 119.926,77 118.883,77 C117.667,77 117,76.292 117,75 C117,73.889 116.333,73 115.5,73 C114.675,73 114,72.325 114,71.5 C114,70.362 112.612,69.955 108.25,69.813 C101.945,69.609 97.705,69.412 94.25,69.162 C92.989,69.071 92,68.341 92,67.5 C92,66.452 90.944,66 88.5,66 L85,66 L85,77 L99.5,77 C111.179,77 114,77.269 114,78.383 C114,79.144 114.9,80.002 116,80.29 C117.413,80.659 117.996,81.647 117.986,83.656 C117.96,89.23 116.971,91 113.883,91 C112.067,91 111,90.478 111,89.588 C111,88.72 109.459,87.915 107,87.5 C104.541,87.085 103,86.28 103,85.412 C103,84.635 102.325,84 101.5,84 C100.675,84 100,84.619 100,85.375 C100,86.904 95.772,88 89.875,88 C85.651,88 84.705,89.848 87.5,92.643 C88.325,93.468 89,95.011 89,96.071 C89,97.793 89.753,98 96,98 C101.556,98 103,97.69 103,96.5 C103,95.348 104.278,95 108.5,95 L114,95 L114,98.5 C114,100.82 113.532,102 112.611,102 C111.816,102 110.942,103.495 110.566,105.5 C110.173,107.595 109.325,109 108.455,109 C107.655,109 107,109.9 107,111 C107,112.333 106.333,113 105,113 C103.889,113 103,113.667 103,114.5 C103,115.325 102.325,116 101.5,116 C100.667,116 100,116.889 100,118 C100,119.333 99.333,120 98,120 C96.667,120 96,120.667 96,122 C96,123.1 95.345,124 94.545,124 C93.675,124 92.827,125.405 92.434,127.5 C92.058,129.505 91.184,131 90.389,131 C89.625,131 89,131.675 89,132.5 C89,133.325 89.675,134 90.5,134 C91.325,134 92,133.325 92,132.5 C92,131.348 93.278,131 97.5,131 C102.333,131 103,130.758 103,129 C103,127.242 103.667,127 108.5,127 C112.722,127 114,126.652 114,125.5 C114,124.588 114.931,124 116.375,124 C120.88,124 125,122.746 125,121.375 C125,120.47 126.197,120 128.5,120 C131.333,120 132,119.619 132,118 C132,116.407 132.662,116.003 135.25,116.014 C142.086,116.042 143,116.762 143,122.117 L143,127 L146.5,127 C149.333,127 150,127.381 150,129 C150,130.676 150.667,131 154.117,131 C157.898,131 158.184,131.183 157.63,133.25 C157.299,134.488 157.021,136.063 157.014,136.75 C157.004,137.597 155.226,138 151.5,138 C147.474,138 146,137.628 146,136.611 C146,135.816 144.505,134.942 142.5,134.566 C140.405,134.173 139,133.325 139,132.455 C139,131.655 138.1,131 137,131 C135.667,131 135,130.333 135,129 C135,126.122 129.042,126.122 128.29,129 C127.897,130.503 126.926,131 124.383,131 C122.043,131 121,131.462 121,132.5 C121,133.412 120.069,134 118.625,134 C114.12,134 110,135.254 110,136.625 C110,137.661 108.273,138 103,138 C96.667,138 96,138.19 96,140 C96,141.893 95.333,142 83.5,142 L71,142 L71,138 C71,135.111 71.417,134 72.5,134 C73.325,134 74,133.325 74,132.5 C74,131.667 74.889,131 76,131 C77.333,131 78,130.333 78,129 C78,127.667 78.667,127 80,127 C81.111,127 82,126.333 82,125.5 C82,124.675 82.675,124 83.5,124 C84.333,124 85,123.111 85,122 C85,120.667 85.667,120 87,120 C88.333,120 89,119.333 89,118 C89,116.889 89.667,116 90.5,116 C91.325,116 92,115.325 92,114.5 C92,113.667 92.889,113 94,113 C95.333,113 96,112.333 96,111 C96,108.095 89.47,108.095 88.71,111 C88.274,112.67 87.346,113 83.094,113 C79.233,113 78,113.363 78,114.5 C78,115.412 77.069,116 75.625,116 C71.12,116 67,117.254 67,118.625 C67,119.69 64.97,120 58,120 C49.667,120 49,119.852 49,118 C49,116.889 48.333,116 47.5,116 C46.675,116 46,115.325 46,114.5 C46,113.675 46.675,113 47.5,113 C48.333,113 49,112.111 49,111 C49,109.178 49.667,109 56.5,109 C62.159,109 64,108.666 64,107.639 C64,106.294 70.564,105.028 77.642,105.009 C80.17,105.002 80.908,104.503 81.422,102.454 C82.161,99.51 81.489,98 79.441,98 C78.461,98 78,96.881 78,94.5 C78,91.167 77.833,91 74.5,91 L71,91 L71,86.073 C71,82.338 71.391,81.068 72.615,80.823 C74.023,80.541 74.229,78.391 74.225,64 C74.22,43.444 74.793,37 76.627,37 C77.382,37 78,36.325 78,35.5 C78,34.289 76.411,33.997 69.75,33.986 C65.213,33.979 60.487,33.701 59.25,33.37 C56.747,32.699 56.146,30 58.5,30 C59.325,30 60,29.325 60,28.5 C60,27.675 60.717,27 61.594,27 C62.47,27 63.423,26.1 63.71,25 C64.191,23.162 65.074,23 74.617,23 C84.333,23 85,22.872 85,21 Z M172,204.5 C172,205.742 170.111,206 161,206 C150.667,206 150,206.121 150,208 C150,209.746 149.333,210 144.75,210.001 L139.5,210.002 L139.288,224.501 C139.118,236.088 139.346,239 140.421,239 C142.105,239 142.969,242.116 142.986,248.25 L143,253 L146.5,253 C148.813,253 150,252.531 150,251.617 C150,250.856 150.927,249.991 152.06,249.695 C153.829,249.232 154.025,248.65 153.449,245.578 L152.777,242 L156.482,242 C159.346,242 160.306,242.454 160.71,244 C161.184,245.811 162.074,246 170.117,246 C177.346,246 179,246.279 179,247.5 C179,249.854 181.699,249.253 182.37,246.75 C183.899,241.043 182.392,224 180.358,224 C179.3,224 179,221.677 179,213.5 L179,203 L175.5,203 C173.056,203 172,203.452 172,204.5 Z M190,215.5 C190,225.944 190.247,228 191.5,228 C192.722,228 193,229.667 193,237 L193,246 L196.383,246 C198.926,246 199.897,245.503 200.29,244 C200.671,242.544 201.654,242 203.906,242 C205.99,242 207,241.51 207,240.5 C207,239.675 207.8,239 208.778,239 C209.756,239 211.326,238.1 212.268,237 C213.21,235.9 214.832,235 215.874,235 C216.926,235 217.999,234.112 218.29,233 C218.577,231.9 219.53,231 220.406,231 C221.283,231 222,230.325 222,229.5 C222,228.675 222.675,228 223.5,228 C224.325,228 225,227.283 225,226.406 C225,225.53 225.9,224.577 227,224.29 C228.435,223.914 229,222.926 229,220.79 C229,218.654 229.565,217.665 231,217.29 C232.688,216.848 233,215.926 233,211.383 C233,206.667 232.752,206 231,206 C229.889,206 229,205.333 229,204.5 C229,203.218 226.167,203 209.5,203 L190,203 Z M247,60.5 C247,59.348 248.278,59 252.5,59 L258,59 L258,62.5 C258,65.333 257.619,66 256,66 C254.889,66 254,66.667 254,67.5 C254,68.325 253.383,69 252.628,69 C251.8,69 251.002,70.587 250.616,73 C250.202,75.588 249.451,77 248.488,77 C247.454,77 247,78.068 247,80.5 C247,82.82 246.532,84 245.611,84 C244.816,84 243.942,85.495 243.566,87.5 C243.173,89.595 242.325,91 241.455,91 C240.459,91 240,92.104 240,94.5 C240,96.82 239.532,98 238.611,98 C237.816,98 236.942,99.495 236.566,101.5 C236.173,103.595 235.325,105 234.455,105 C233.655,105 233,105.848 233,106.883 C233,107.926 232.107,109 231,109.29 C229.468,109.69 229,110.654 229,113.406 C229,115.884 228.548,117 227.545,117 C226.675,117 225.827,118.405 225.434,120.5 C225.058,122.505 224.184,124 223.389,124 C222.525,124 222,125.09 222,126.883 C222,128.926 221.417,129.919 220,130.29 C218.9,130.577 218,131.53 218,132.406 C218,133.283 217.325,134 216.5,134 C215.667,134 215,134.889 215,136 C215,137.333 214.333,138 213,138 C211.667,138 211,138.667 211,140 C211,141.111 210.333,142 209.5,142 C208.675,142 208,142.675 208,143.5 C208,144.59 206.876,145 203.883,145 C200.102,145 199.816,144.817 200.37,142.75 C200.701,141.512 200.979,139.938 200.986,139.25 C200.994,138.542 202.252,138 203.889,138 C206.398,138 206.864,137.541 207.434,134.5 C207.827,132.405 208.675,131 209.545,131 C210.345,131 211,130.1 211,129 C211,127.667 211.667,127 213,127 C214.619,127 215,126.333 215,123.5 C215,121.18 215.468,120 216.389,120 C217.184,120 218.058,118.505 218.434,116.5 C218.827,114.405 219.675,113 220.545,113 C221.541,113 222,111.896 222,109.5 C222,107.152 222.465,106 223.412,106 C224.28,106 225.085,104.459 225.5,102 C225.915,99.541 226.72,98 227.588,98 C228.535,98 229,96.848 229,94.5 C229,91.667 229.381,91 231,91 C232.619,91 233,90.333 233,87.5 C233,85.056 233.452,84 234.5,84 C235.555,84 236,82.934 236,80.406 C236,77.654 236.468,76.69 238,76.29 C239.503,75.897 240,74.926 240,72.383 C240,70.089 240.468,69 241.455,69 C242.325,69 243.173,67.595 243.566,65.5 C243.942,63.495 244.816,62 245.611,62 C246.375,62 247,61.325 247,60.5 Z M168,17 C168,15.387 168.667,15 171.441,15 C173.334,15 175.168,15.463 175.518,16.028 C176.656,17.871 174.88,30 173.471,30 C172.739,30 171.882,31.739 171.5,34 C171.085,36.459 170.28,38 169.412,38 C168.33,38 168,39.638 168,45 C168,50.33 167.666,52 166.601,52 C165.604,52 165.002,54.005 164.5,59 C163.998,63.995 163.396,66 162.399,66 C161.29,66 161,68.155 161,76.383 C161,87.916 160.974,87.954 153.25,87.986 L150,88 L150,80.5 C150,74.5 150.3,73 151.5,73 C152.412,73 153,72.069 153,70.625 C153,66.12 154.254,62 155.625,62 C156.679,62 157.003,60.077 157.014,53.75 C157.029,44.196 157.682,41 159.617,41 C160.663,41 161,39.293 161,34 C161,28.444 161.31,27 162.5,27 C163.583,27 164,25.889 164,23 C164,19.667 164.333,19 166,19 C167.333,19 168,18.333 168,17 Z M197,46.5 C197,45.667 197.889,45 199,45 C200.111,45 201,45.667 201,46.5 C201,47.325 201.675,48 202.5,48 C203.333,48 204,48.889 204,50 C204,51.1 203.377,52 202.617,52 C201.856,52 200.998,52.9 200.71,54 C200.423,55.1 199.506,56 198.673,56 C197.804,56 196.878,57.278 196.5,59 C196.138,60.65 195.202,62 194.421,62 C193.43,62 193,63.211 193,66 C193,68.889 192.583,70 191.5,70 C190.452,70 190,71.056 190,73.5 C190,76.333 189.619,77 188,77 C186.242,77 186,77.667 186,82.5 C186,86.646 185.642,88 184.545,88 C183.675,88 182.827,89.405 182.434,91.5 C182.058,93.505 181.184,95 180.389,95 C179.372,95 179,96.474 179,100.5 L179,106 L168,106 L168,102 C168,99.166 168.424,98 169.455,98 C170.325,98 171.173,96.595 171.566,94.5 C171.942,92.495 172.816,91 173.611,91 C174.614,91 175,89.586 175,85.906 C175,81.654 175.33,80.726 177,80.29 C178.656,79.857 179,78.926 179,74.883 C179,71.344 179.389,70 180.412,70 C181.28,70 182.085,68.459 182.5,66 C182.915,63.541 183.72,62 184.588,62 C185.535,62 186,60.848 186,58.5 C186,56.056 186.452,55 187.5,55 C188.325,55 189,54.283 189,53.406 C189,52.53 189.9,51.577 191,51.29 C192.1,51.002 193,50.144 193,49.383 C193,48.623 193.9,48 195,48 C196.111,48 197,47.333 197,46.5 Z M169.75,181.672 C168.787,181.933 168,182.789 168,183.573 C168,184.537 166.864,185 164.5,185 C162.18,185 161,185.468 161,186.389 C161,187.184 159.505,188.058 157.5,188.434 C155.405,188.827 154,189.675 154,190.545 C154,191.576 152.834,192 150,192 C146.667,192 146,192.333 146,194 C146,195.627 145.333,196 142.427,196 C139.562,196 138.92,196.347 139.19,197.75 C139.376,198.713 140.309,199.463 141.264,199.417 C142.219,199.371 146.15,199.258 150,199.167 C155.481,199.036 157,198.675 157,197.5 C157,196.465 158.039,196 160.353,196 C162.198,196 166.471,195.711 169.849,195.358 L175.992,194.716 L175.719,188.108 C175.432,181.154 174.673,180.336 169.75,181.672 Z"/>
</svg>

