<svg xmlns="http://www.w3.org/2000/svg" width="300" height="300" viewBox="0 0 300 300" version="1.1">
  <defs/>
  <path d="M148.25,9.706 C152.513,8.885 156.883,9.002 157.472,9.954 C158.467,11.565 156.873,16 155.298,16 C154.481,16 153.577,16.9 153.29,18 C153.002,19.1 152.144,20 151.383,20 C150.623,20 150,20.9 150,22 C150,23.333 149.333,24 148,24 C146.667,24 146,24.667 146,26 C146,27.111 145.333,28 144.5,28 C143.667,28 143,28.889 143,30 C143,31.1 142.377,32 141.617,32 C140.101,32 139.035,34.968 139.014,39.25 C139.005,41.022 138.466,42 137.5,42 C136.667,42 136,42.889 136,44 C136,45.893 136.667,46 148.5,46 L161,46 L161,53 C161,58.556 161.31,60 162.5,60 C163.538,60 164,61.043 164,63.389 C164,66.456 164.325,66.838 167.428,67.42 C170.196,67.94 170.98,68.634 171.507,71.032 C171.866,72.664 172.798,74 173.579,74 C174.57,74 175,75.211 175,78 C175,81.333 174.667,82 173,82 C171.889,82 171,82.667 171,83.5 C171,84.325 170.325,85 169.5,85 C168.452,85 168,83.944 168,81.5 L168,78 L162.5,78 C158.278,78 157,78.348 157,79.5 C157,80.325 156.283,81 155.406,81 C154.53,81 153.577,81.9 153.29,83 C153.002,84.1 152.144,85 151.383,85 C150.436,85 150,86.261 150,89 C150,91.741 149.564,93 148.615,93 C147.687,93 147.004,94.812 146.543,98.5 C146.071,102.278 145.409,104 144.428,104 C143.643,104 143,104.43 143,104.955 C143,107.905 162.138,107.561 164.324,104.571 C165.449,103.033 166.68,102.809 171.913,103.187 C175.348,103.436 178.469,104.141 178.849,104.755 C179.228,105.369 181.78,106.013 184.519,106.186 C189.488,106.499 189.501,106.509 189.81,110.25 L190.121,114 L170.06,114 C153.61,114 150,114.25 150,115.389 C150,116.184 148.505,117.058 146.5,117.434 C144.527,117.804 143,118.687 143,119.457 C143,120.276 141.374,121.099 138.949,121.509 C132.514,122.596 134.718,124.461 142.83,124.794 C148.306,125.018 150,125.432 150,126.544 C150,127.345 150.9,128 152,128 C153.333,128 154,128.667 154,130 C154,131.758 154.667,132 159.5,132 C163.646,132 165,132.358 165,133.455 C165,134.325 166.405,135.173 168.5,135.566 C170.505,135.942 172,136.816 172,137.611 C172,138.532 173.18,139 175.5,139 C178.333,139 179,139.381 179,141 C179,142.333 179.667,143 181,143 C182.111,143 183,143.667 183,144.5 C183,145.325 183.675,146 184.5,146 C185.333,146 186,146.889 186,148 C186,149.333 186.667,150 188,150 C189.619,150 190,150.667 190,153.5 L190,157 L179,157 L179,153.5 C179,150.667 178.619,150 177,150 C175.9,150 175,149.345 175,148.545 C175,147.675 173.595,146.827 171.5,146.434 C169.495,146.058 168,145.184 168,144.389 C168,141.385 165.068,143.121 164.434,146.5 C164.058,148.505 163.184,150 162.389,150 C161.372,150 161,151.474 161,155.5 C161,160.333 160.758,161 159,161 C157.381,161 157,161.667 157,164.5 C157,167.375 156.63,168 154.927,168 C153.492,168 152.956,168.539 153.186,169.75 C153.449,171.13 154.732,171.563 159.26,171.8 C163.47,172.02 165,172.486 165,173.55 C165,174.619 166.284,175 169.883,175 C173.926,175 174.857,175.344 175.29,177 C175.671,178.456 176.654,179 178.906,179 C180.99,179 182,179.49 182,180.5 C182,181.333 182.889,182 184,182 C185.752,182 186,182.667 186,187.383 C186,191.926 186.312,192.848 188,193.29 C190.206,193.867 190.478,196.374 189.352,205.75 C188.937,209.202 188.255,211 187.361,211 C186.378,211 186,212.528 186,216.5 C186,221.333 185.758,222 184,222 C182.667,222 182,222.667 182,224 C182,225.758 181.333,226 176.5,226 C172.278,226 171,226.348 171,227.5 C171,228.548 169.944,229 167.5,229 C165.104,229 164,229.459 164,230.455 C164,231.325 162.595,232.173 160.5,232.566 C158.575,232.927 157,233.797 157,234.5 C157,235.203 155.425,236.073 153.5,236.434 C151.405,236.827 150,237.675 150,238.545 C150,239.541 148.896,240 146.5,240 C143.667,240 143,240.381 143,242 C143,243.333 142.333,244 141,244 C139.095,244 139,244.667 139,258 C139,270.143 139.211,272 140.594,272 C141.47,272 142.423,272.9 142.71,274 C142.998,275.1 143.856,276 144.617,276 C145.377,276 146,276.675 146,277.5 C146,278.583 147.111,279 150,279 C152.889,279 154,278.583 154,277.5 C154,276.452 155.056,276 157.5,276 C160.333,276 161,275.619 161,274 C161,272.889 161.667,272 162.5,272 C163.325,272 164,271.374 164,270.608 C164,268.863 159.822,267.756 156.439,268.605 C154.378,269.122 153.769,268.832 153.322,267.124 C152.852,265.324 152.021,265 147.883,265 L143,265 L143,254 L155.5,254 C165.499,254 168,253.722 168,252.611 C168,251.816 169.495,250.942 171.5,250.566 C173.595,250.173 175,249.325 175,248.455 C175,247.655 175.9,247 177,247 C178.1,247 179,246.375 179,245.611 C179,244.816 180.495,243.942 182.5,243.566 C184.595,243.173 186,242.325 186,241.455 C186,240.459 187.104,240 189.5,240 C191.813,240 193,239.531 193,238.617 C193,237.041 196,236.034 200.75,236.014 C203.877,236.001 204,236.151 204,240 C204,243.905 203.917,244 200.5,244 C197.167,244 197,244.167 197,247.5 C197,250.333 196.619,251 195,251 C193.667,251 193,251.667 193,253 C193,254.111 192.333,255 191.5,255 C190.675,255 190,255.675 190,256.5 C190,257.333 189.111,258 188,258 C186.667,258 186,258.667 186,260 C186,261.333 186.667,262 188,262 C189.1,262 190,262.623 190,263.384 C190,264.379 191.844,264.884 196.568,265.185 C200.571,265.44 203.459,266.125 203.962,266.938 C204.416,267.672 207.085,268.494 209.893,268.764 C213.317,269.093 215,269.707 215,270.627 C215,271.455 216.092,272.005 217.75,272.014 C222.032,272.035 225,273.101 225,274.617 C225,275.564 226.261,276 229,276 C231.834,276 233,276.424 233,277.455 C233,278.325 234.405,279.173 236.5,279.566 C238.505,279.942 240,280.816 240,281.611 C240,282.375 240.9,283 242,283 C243.1,283 243.994,283.563 243.986,284.25 C243.952,287.386 242.644,289.86 240.759,290.353 C237.708,291.151 233,289.95 233,288.375 C233,287.463 231.789,287 229.406,287 C226.654,287 225.69,286.532 225.29,285 C224.897,283.497 223.926,283 221.383,283 C219.043,283 218,282.538 218,281.5 C218,280.363 216.767,280 212.906,280 C208.654,280 207.726,279.67 207.29,278 C206.857,276.344 205.926,276 201.883,276 C198.34,276 197,275.612 197,274.585 C197,273.049 187.141,271.858 177.25,272.2 C172.918,272.35 172,272.698 172,274.191 C172,275.333 171.263,276 170,276 C168.667,276 168,276.667 168,278 C168,279.619 167.333,280 164.5,280 C162.056,280 161,280.452 161,281.5 C161,282.325 160.283,283 159.406,283 C158.53,283 157.577,283.9 157.29,285 C156.897,286.503 155.926,287 153.383,287 C151.043,287 150,287.462 150,288.5 C150,289.325 149.325,290 148.5,290 C147.675,290 147,289.325 147,288.5 C147,287.417 145.889,287 143,287 C139.667,287 139,286.667 139,285 C139,283.9 138.377,283 137.617,283 C136.856,283 135.998,282.1 135.71,281 C135.423,279.9 134.47,279 133.594,279 C132.329,279 132,277.866 132,273.5 C132,269.484 131.627,268 130.617,268 C128.94,268 128.032,264.947 128.014,259.25 C128.004,256.145 127.596,255 126.5,255 C125.628,255 124.977,254.058 124.944,252.75 C124.913,251.512 124.8,245.812 124.694,240.083 C124.558,232.782 124.126,229.541 123.25,229.25 C121.471,228.657 121.702,226.328 123.613,225.595 C124.684,225.184 125.039,224.257 124.668,222.839 C124.361,221.664 124.366,219.42 124.68,217.851 C125.172,215.392 125.714,215 128.625,215 C131.333,215 132,214.605 132,213 C132,211.381 132.667,211 135.5,211 C138.333,211 139,210.619 139,209 C139,207.667 139.667,207 141,207 C142.111,207 143,206.333 143,205.5 C143,204.667 143.889,204 145,204 C146.1,204 147,203.345 147,202.545 C147,201.675 148.405,200.827 150.5,200.434 C152.425,200.073 154,199.2 154,198.495 C154,197.587 156.41,197.096 162.25,196.815 C172.069,196.343 175,196.757 175,198.617 C175,199.377 175.9,200 177,200 C178.738,200 179,199.333 179,194.906 C179,190.654 178.67,189.726 177,189.29 C175.9,189.002 175,188.144 175,187.383 C175,186.623 174.1,186 173,186 C171.9,186 171,185.377 171,184.617 C171,182.588 167.749,182.029 155.875,182.014 C143.546,181.998 139,182.701 139,184.625 C139,185.682 137.063,186 130.617,186 C123.074,186 122.181,186.201 121.71,188 C121.31,189.532 120.346,190 117.594,190 L114,190 L114,179 L119.5,179 C123.516,179 125,178.627 125,177.617 C125,175.797 128.131,175.03 135.633,175.014 C140.919,175.002 141.839,174.724 142.29,173 C142.577,171.9 143.494,171 144.327,171 C145.196,171 146.122,169.722 146.5,168 C146.862,166.35 147.798,165 148.579,165 C149.57,165 150,163.789 150,161 C150,158.261 150.436,157 151.384,157 C153.017,157 154.515,145.901 153.453,141.669 C152.92,139.547 152.191,139 149.892,139 C148.108,139 147,138.474 147,137.628 C147,136.8 145.413,136.002 143,135.616 C140.412,135.202 139,134.451 139,133.488 C139,132.454 137.932,132 135.5,132 C132.667,132 132,132.381 132,134 C132,135.1 131.345,136 130.545,136 C129.675,136 128.827,137.405 128.434,139.5 C128.058,141.505 127.184,143 126.389,143 C125.468,143 125,144.18 125,146.5 C125,149.333 124.619,150 123,150 C121.381,150 121,150.667 121,153.5 C121,155.944 120.548,157 119.5,157 C118.667,157 118,157.889 118,159 C118,160.333 117.333,161 116,161 C114.381,161 114,161.667 114,164.5 C114,166.82 113.532,168 112.611,168 C111.816,168 110.942,169.495 110.566,171.5 C110.203,173.437 109.31,175 108.566,175 C107.822,175 106.929,176.563 106.566,178.5 C106.173,180.595 105.325,182 104.455,182 C103.655,182 103,182.9 103,184 C103,185.111 102.333,186 101.5,186 C100.667,186 100,186.889 100,188 C100,189.333 99.333,190 98,190 C96.381,190 96,190.667 96,193.5 C96,196.333 95.619,197 94,197 C92.889,197 92,197.667 92,198.5 C92,199.325 91.325,200 90.5,200 C89.667,200 89,200.889 89,202 C89,203.1 88.345,204 87.545,204 C86.682,204 85.831,205.386 85.451,207.408 C85.044,209.579 84.12,210.997 82.906,211.314 C81.858,211.588 81,212.53 81,213.406 C81,214.283 80.325,215 79.5,215 C78.667,215 78,215.889 78,217 C78,218.111 77.333,219 76.5,219 C75.675,219 75,219.675 75,220.5 C75,221.333 74.111,222 73,222 C71.381,222 71,222.667 71,225.5 C71,228.333 70.619,229 69,229 C67.65,229 67,229.667 67,231.052 C67,232.899 66.476,233.074 61.759,232.802 C57.709,232.569 56.443,232.103 56.186,230.75 C55.956,229.539 56.492,229 57.927,229 C59.63,229 60,228.375 60,225.5 C60,222.667 60.381,222 62,222 C63.111,222 64,221.333 64,220.5 C64,219.675 64.675,219 65.5,219 C66.333,219 67,218.111 67,217 C67,215.667 67.667,215 69,215 C70.333,215 71,214.333 71,213 C71,211.889 71.667,211 72.5,211 C73.325,211 74,210.283 74,209.406 C74,208.53 74.9,207.577 76,207.29 C77.392,206.926 78,205.926 78,204 C78,202.074 78.608,201.074 80,200.71 C81.1,200.423 82,199.47 82,198.594 C82,197.717 82.675,197 83.5,197 C84.333,197 85,196.111 85,195 C85,193.667 85.667,193 87,193 C88.619,193 89,192.333 89,189.5 C89,187.187 89.469,186 90.383,186 C91.144,186 92.002,185.1 92.29,184 C92.577,182.9 93.53,182 94.406,182 C95.561,182 96,181.036 96,178.5 C96,175.667 96.381,175 98,175 C99.619,175 100,174.333 100,171.5 C100,169.056 100.452,168 101.5,168 C102.333,168 103,167.111 103,166 C103,164.667 103.667,164 105,164 C106.619,164 107,163.333 107,160.5 C107,158.056 107.452,157 108.5,157 C109.548,157 110,155.944 110,153.5 C110,150.667 110.381,150 112,150 C113.619,150 114,149.333 114,146.5 C114,143.667 114.381,143 116,143 C117.619,143 118,142.333 118,139.5 C118,137.18 118.468,136 119.389,136 C120.184,136 121.058,134.505 121.434,132.5 C121.827,130.405 122.675,129 123.545,129 C124.345,129 125,128.1 125,127 C125,125.889 125.667,125 126.5,125 C127.333,125 128,124.111 128,123 C128,121.344 127.333,121 124.125,121 C118.228,121 114,122.096 114,123.625 C114,124.53 112.803,125 110.5,125 C108.187,125 107,125.469 107,126.383 C107,127.144 106.1,128.002 105,128.29 C103.9,128.577 103,129.53 103,130.406 C103,131.671 101.866,132 97.5,132 C92.667,132 92,131.758 92,130 C92,128.889 91.333,128 90.5,128 C89.675,128 89,127.325 89,126.5 C89,125.675 89.623,125 90.383,125 C91.144,125 92.002,124.1 92.29,123 C92.69,121.468 93.654,121 96.406,121 C98.799,121 100,120.538 100,119.617 C100,118.101 102.968,117.035 107.25,117.014 C109.022,117.005 110,116.466 110,115.5 C110,114.348 111.278,114 115.5,114 C119.722,114 121,113.652 121,112.5 C121,111.588 121.931,111 123.375,111 C127.88,111 132,109.746 132,108.375 C132,107.619 132.67,107 133.488,107 C134.451,107 135.202,105.588 135.616,103 C136.002,100.587 136.8,99 137.628,99 C138.608,99 139,97.571 139,94 C139,90.41 139.39,89 140.383,89 C141.669,89 142.955,86.16 142.986,83.25 C142.995,82.485 141.641,82 139.5,82 C137.18,82 136,82.468 136,83.389 C136,84.184 134.505,85.058 132.5,85.434 C130.405,85.827 129,86.675 129,87.545 C129,88.345 128.1,89 127,89 C125.9,89 125,89.623 125,90.384 C125,91.874 112.963,93.713 111.028,92.518 C110.463,92.168 110,90.334 110,88.441 C110,85.667 110.387,85 112,85 C113.333,85 114,84.333 114,83 C114,81.381 114.667,81 117.5,81 C119.944,81 121,80.548 121,79.5 C121,78.417 122.111,78 125,78 C127.739,78 129,77.564 129,76.617 C129,75.101 131.968,74.035 136.25,74.014 C138.022,74.005 139,73.466 139,72.5 C139,71.462 140.043,71 142.389,71 C145.47,71 145.837,70.682 146.434,67.5 C146.827,65.405 147.675,64 148.545,64 C149.345,64 150,63.1 150,62 C150,60.889 150.667,60 151.5,60 C152.333,60 153,59.111 153,58 C153,56.307 152.333,56 148.651,56 C138.565,56 129,57.288 129,58.647 C129,59.664 127.139,60 121.5,60 C114.667,60 114,59.822 114,58 C114,56.889 113.333,56 112.5,56 C111.675,56 111,55.325 111,54.5 C111,53.675 111.675,53 112.5,53 C113.333,53 114,52.111 114,51 C114,49.667 114.667,49 116,49 C117.1,49 117.994,48.438 117.986,47.75 C117.955,44.84 116.669,42 115.383,42 C114.469,42 114,40.813 114,38.5 C114,36.18 113.532,35 112.611,35 C111.816,35 110.942,33.505 110.566,31.5 C110.173,29.405 109.325,28 108.455,28 C107.311,28 107,26.396 107,20.5 L107,13 L111.875,13 C116.535,13 116.778,13.138 117.375,16.125 C117.719,17.844 118,21.219 118,23.625 C118,26.847 118.395,28 119.5,28 C120.633,28 121,29.222 121,33 C121,36.326 121.418,38.005 122.25,38.014 C122.938,38.021 124.455,38.284 125.623,38.597 C127.425,39.081 127.848,38.625 128.418,35.583 C128.824,33.423 129.668,32 130.545,32 C131.345,32 132,31.1 132,30 C132,28.889 132.667,28 133.5,28 C134.333,28 135,27.111 135,26 C135,24.667 135.667,24 137,24 C138.606,24 139,23.333 139,20.617 C139,18.074 139.497,17.103 141,16.71 C142.1,16.423 143,15.47 143,14.594 C143,13.717 143.675,13 144.5,13 C145.325,13 146,12.356 146,11.57 C146,10.783 147.012,9.944 148.25,9.706 Z M161,205.389 C161,206.184 159.505,207.058 157.5,207.434 C155.405,207.827 154,208.675 154,209.545 C154,210.345 153.1,211 152,211 C150.333,211 150,211.667 150,215 L150,219 L143.079,219 C136.203,219 136.155,219.019 135.5,222 C135.138,223.65 134.202,225 133.421,225 C132.365,225 132,226.415 132,230.5 L132,236 L135.5,236 C137.944,236 139,235.548 139,234.5 C139,233.462 140.043,233 142.383,233 C144.926,233 145.897,232.503 146.29,231 C146.69,229.468 147.654,229 150.406,229 C152.845,229 154,228.543 154,227.579 C154,226.798 155.35,225.862 157,225.5 C158.65,225.138 160,224.202 160,223.421 C160,222.43 161.211,222 164,222 C166.739,222 168,221.564 168,220.617 C168,219.856 168.9,218.998 170,218.71 C171.1,218.423 172,217.47 172,216.594 C172,215.717 172.675,215 173.5,215 C174.548,215 175,213.944 175,211.5 C175,209.056 174.548,208 173.5,208 C172.667,208 172,207.111 172,206 C172,204.242 171.333,204 166.5,204 C162.474,204 161,204.372 161,205.389 Z"/>
</svg>

