<svg xmlns="http://www.w3.org/2000/svg" width="300" height="300" viewBox="0 0 300 300" version="1.1">
  <defs/>
  <path d="M84.25,45.768 C86.588,45.577 92.325,45.519 97,45.638 C101.675,45.756 107.188,45.887 109.25,45.927 C111.884,45.978 113,46.446 113,47.5 C113,48.548 114.056,49 116.5,49 C119.333,49 120,49.381 120,51 C120,52.333 120.667,53 122,53 C123.111,53 124,53.667 124,54.5 C124,55.325 124.675,56 125.5,56 C126.523,56 127.004,57.034 127.014,59.25 C127.034,64 128.041,67 129.617,67 C130.671,67 131,68.781 131,74.5 C131,80.219 130.671,82 129.617,82 C128.041,82 127.034,85 127.014,89.75 C127.004,91.966 126.523,93 125.5,93 C124.49,93 124,94.01 124,96.094 C124,98.346 123.456,99.329 122,99.71 C120.353,100.141 120,101.074 120,104.992 C120,109.521 119.85,109.78 116.875,110.375 C115.156,110.719 112.681,111 111.375,111 C109.931,111 109,111.588 109,112.5 C109,113.652 107.722,114 103.5,114 C98.667,114 98,114.242 98,116 C98,117.619 97.333,118 94.5,118 C92.056,118 91,118.452 91,119.5 C91,120.652 89.722,121 85.5,121 C81.484,121 80,121.373 80,122.383 C80,123.899 77.032,124.965 72.75,124.986 C70.276,124.999 70,125.352 70,128.5 C70,130.944 70.452,132 71.5,132 C72.325,132 73,132.675 73,133.5 C73,134.325 72.325,135 71.5,135 C70.667,135 70,135.889 70,137 C70,138.1 70.624,139 71.387,139 C72.456,139 72.862,141.411 73.164,149.553 C73.456,157.452 73.925,160.335 75.027,161.015 C76.213,161.747 76.561,165.339 76.814,179.462 C77.073,193.889 77.384,197 78.564,197 C79.538,197 80,198.125 80,200.5 C80,202.944 79.548,204 78.5,204 C77.675,204 77,204.675 77,205.5 C77,206.538 75.957,207 73.617,207 C69.208,207 69.031,206.238 69.014,187.25 C69.002,174.367 68.767,172 67.5,172 C66.278,172 66,170.333 66,163 C66,156.076 65.686,154 64.639,154 C62.682,154 62.019,146.623 62.009,124.75 C62.001,108.754 61.78,106 60.5,106 C59.245,106 58.972,103.674 58.828,91.75 C58.582,71.326 58.821,53.846 59.354,53.312 C59.607,53.06 62.78,52.808 66.407,52.753 C72.088,52.667 73,52.401 73,50.827 C73,49.406 73.777,49 76.5,49 C78.882,49 80,48.539 80,47.557 C80,46.582 81.374,46.003 84.25,45.768 Z M145.25,117.732 C152.989,117.035 154.48,117.022 156.75,117.63 C157.988,117.962 159,118.856 159,119.617 C159,120.377 159.914,121 161.031,121 C162.149,121 163.311,121.648 163.615,122.439 C163.919,123.23 165.479,124.166 167.084,124.518 C169.612,125.074 170,125.614 170,128.579 C170,130.953 169.541,132 168.5,132 C167.213,132 167,135.056 167,153.5 C167,174.333 167.062,175 169,175 C170.1,175 171,175.623 171,176.383 C171,177.899 173.968,178.965 178.25,178.986 C180.724,178.999 181,179.352 181,182.5 L181,186 L170,186 L170,225.5 C170,259.944 169.808,265 168.5,265 C167.452,265 167,266.056 167,268.5 C167,271.81 166.817,272 163.617,272 C161.233,272 160.1,271.483 159.782,270.25 C159.535,269.288 159.542,256.238 159.798,241.25 C160.177,219.093 160.52,214 161.632,214 C162.607,214 163,212.563 163,209 C163,205.222 162.633,204 161.5,204 C160.278,204 160,202.333 160,195 L160,186 L156,186 C153.261,186 152,186.436 152,187.383 C152,189.103 148.923,189.969 142.75,189.986 C139.201,189.997 138,190.379 138,191.5 C138,192.652 136.722,193 132.5,193 C128.484,193 127,193.373 127,194.383 C127,195.894 124.035,196.965 119.795,196.986 C117.5,196.998 116.991,197.53 116.434,200.5 C115.837,203.682 115.47,204 112.389,204 C110.043,204 109,203.538 109,202.5 C109,201.675 108.325,201 107.5,201 C106.675,201 106,201.675 106,202.5 C106,203.333 105.111,204 104,204 C102.667,204 102,203.333 102,202 C102,200.889 101.333,200 100.5,200 C99.675,200 99,199.325 99,198.5 C99,197.675 99.675,197 100.5,197 C101.333,197 102,196.111 102,195 C102,193.889 102.667,193 103.5,193 C104.325,193 105,192.365 105,191.588 C105,190.72 106.541,189.915 109,189.5 C111.459,189.085 113,188.28 113,187.412 C113,186.635 113.675,186 114.5,186 C115.583,186 116,184.889 116,182 C116,179.111 115.583,178 114.5,178 C113.229,178 113,175.556 113,162 C113,148.666 113.242,146 114.455,146 C115.325,146 116.173,144.595 116.566,142.5 C116.942,140.495 117.816,139 118.611,139 C119.375,139 120,138.325 120,137.5 C120,136.452 118.944,136 116.5,136 C114.056,136 113,136.452 113,137.5 C113,138.652 111.722,139 107.5,139 L102,139 L102,128 L107.5,128 C111.722,128 113,127.652 113,126.5 C113,125.31 114.444,125 120,125 C126.333,125 127,124.81 127,123 C127,121.19 127.667,121 134,121 C139.432,121 141,120.677 141,119.557 C141,118.587 142.391,117.99 145.25,117.732 Z M172.25,27.788 C180.184,27.541 191.053,27.594 197.25,27.911 C198.213,27.96 199,28.675 199,29.5 C199,30.333 199.889,31 201,31 C202.806,31 203,31.667 203,37.875 L203,44.75 L199.897,45.371 C195.798,46.19 195,45.55 195,41.441 C195,39.049 194.543,38 193.5,38 C192.675,38 192,37.325 192,36.5 C192,35.667 191.111,35 190,35 C188.889,35 188,35.667 188,36.5 C188,37.325 187.325,38 186.5,38 C185.675,38 185,37.325 185,36.5 C185,35.452 183.944,35 181.5,35 C178.167,35 178,35.167 178,38.5 C178,41.827 177.828,42 174.534,42 C171.131,42 171.057,42.089 170.406,47 C169.975,50.246 169.261,52 168.371,52 C167.438,52 167,53.278 167,56 C167,58.889 167.417,60 168.5,60 C169.325,60 170,60.619 170,61.375 C170,62.746 174.12,64 178.625,64 C180.337,64 181,64.561 181,66.01 C181,67.115 181.9,68.79 183,69.732 C184.245,70.798 185,72.682 185,74.722 C185,77.333 184.593,78 183,78 C181.667,78 181,78.667 181,80 C181,81.1 180.377,82 179.617,82 C178.25,82 176.746,86.78 177.651,88.244 C178.499,89.616 184.045,89.046 184.628,87.527 C184.939,86.717 186.725,85.767 188.597,85.416 C190.468,85.065 192,84.203 192,83.5 C192,82.797 193.575,81.927 195.5,81.566 C197.595,81.173 199,80.325 199,79.455 C199,78.358 200.354,78 204.5,78 C208.5,78 210,77.625 210,76.625 C210,75.254 214.12,74 218.625,74 C220.673,74 221,73.518 221,70.5 C221,68.187 220.531,67 219.617,67 C217.553,67 217.029,63.728 217.014,50.75 C217.002,40.978 216.747,39 215.5,39 C214.667,39 214,38.111 214,37 C214,35.889 214.667,35 215.5,35 C216.548,35 217,33.944 217,31.5 L217,28 L228,28 L228,31.5 C228,34.333 228.381,35 230,35 C231.163,35 232,35.667 232,36.594 C232,37.47 231.1,38.423 230,38.71 C228.121,39.202 228,40.074 228,53.117 C228,64.23 228.274,67 229.375,67 C231.266,67 232,71.506 232,83.125 C232,90.929 232.294,93 233.402,93 C234.518,93 234.875,95.757 235.152,106.537 C235.427,117.221 235.816,120.269 237,120.999 C238.191,121.733 238.567,124.813 238.826,135.962 C239.069,146.46 239.471,150 240.419,150 C241.974,150 242.992,171.064 242.997,203.344 C243,224.348 242.923,225.207 241,225.71 C239.9,225.998 239,226.856 239,227.617 C239,228.692 236.996,229 230,229 C222.987,229 221,228.693 221,227.611 C221,226.816 219.505,225.942 217.5,225.566 C215.405,225.173 214,224.325 214,223.455 C214,222.468 212.911,222 210.617,222 C208.074,222 207.103,221.503 206.71,220 C206.329,218.544 205.346,218 203.094,218 C201.01,218 200,217.51 200,216.5 C200,215.667 199.111,215 198,215 C196.837,215 196,214.333 196,213.406 C196,212.53 195.1,211.577 194,211.29 C192.9,211.002 192,210.144 192,209.383 C192,208.623 191.283,208 190.406,208 C189.53,208 188.577,207.1 188.29,206 C188.002,204.9 187.144,204 186.383,204 C185.469,204 185,202.813 185,200.5 C185,197.667 184.619,197 183,197 C181.667,197 181,196.333 181,195 C181,193.889 180.333,193 179.5,193 C178.675,193 178,192.325 178,191.5 C178,190.452 179.056,190 181.5,190 C183.944,190 185,190.452 185,191.5 C185,192.325 185.625,193 186.389,193 C187.178,193 188.055,194.478 188.42,196.428 C188.936,199.175 189.64,199.982 191.967,200.493 C194.129,200.968 195.032,201.871 195.507,204.033 C196.018,206.36 196.825,207.064 199.572,207.58 C201.458,207.933 203,208.797 203,209.5 C203,210.203 204.575,211.073 206.5,211.434 C208.595,211.827 210,212.675 210,213.545 C210,214.541 211.104,215 213.5,215 C215.944,215 217,215.452 217,216.5 C217,217.412 217.931,218 219.375,218 C223.88,218 228,219.254 228,220.625 C228,221.53 229.197,222 231.5,222 L235,222 L235,193.5 C235,168.833 234.798,165 233.5,165 C232.313,165 232,163.572 232,158.151 C232,145.763 230.833,136 229.353,136 C228.298,136 228,133.581 228,125 C228,115.889 227.742,114 226.5,114 C224.993,114 224.754,112.478 224.462,101 C224.067,85.482 224.008,85 222.5,85 C221.675,85 221,84.352 221,83.559 C221,82.766 220.596,81.868 220.103,81.563 C218.53,80.591 213,82.196 213,83.625 C213,84.604 211.593,85 208.117,85 C204.074,85 203.143,85.344 202.71,87 C202.329,88.456 201.346,89 199.094,89 C197.096,89 196,89.5 196,90.412 C196,91.28 194.459,92.085 192,92.5 C189.541,92.915 188,93.72 188,94.588 C188,95.478 186.933,96 185.117,96 C183.074,96 182.081,96.583 181.71,98 C181.31,99.532 180.346,100 177.594,100 C175.066,100 174,100.445 174,101.5 C174,102.742 172.111,103 163,103 L152,103 L152.014,100.25 C152.041,94.781 153.052,93.081 156.682,92.4 L160.144,91.75 L159.664,65.625 C159.4,51.256 159.143,39.388 159.092,39.25 C158.713,38.22 156,39.316 156,40.5 C156,41.548 154.944,42 152.5,42 C149.167,42 149,42.167 149,45.5 C149,48.333 148.619,49 147,49 C145.889,49 145,48.333 145,47.5 C145,46.675 144.325,46 143.5,46 C142.35,46 142,44.727 142,40.545 C142,35.103 142.008,35.089 145.5,34.434 C147.505,34.058 149,33.184 149,32.389 C149,31.336 150.694,31 156,31 C161.476,31 163,30.682 163,29.538 C163,28.38 164.931,28.015 172.25,27.788 Z M82.25,56.706 C81.013,56.944 80,57.783 80,58.57 C80,59.356 79.325,60 78.5,60 C77.667,60 77,60.889 77,62 C77,63.111 77.667,64 78.5,64 C79.548,64 80,65.056 80,67.5 C80,70.29 79.609,71 78.071,71 C75.595,71 73,68.405 73,65.929 C73,64.391 72.29,64 69.5,64 L66,64 L66,76 C66,85.515 66.285,88 67.375,88 C69.266,88 70,92.506 70,104.125 L70,114 L77,114 C82.293,114 84,113.663 84,112.617 C84,110.897 87.077,110.031 93.25,110.014 C96.6,110.004 98,109.596 98,108.629 C98,107.666 100.052,107.056 104.897,106.579 C112.328,105.847 112.954,105.241 112.986,98.75 C112.997,96.662 112.518,96 111,96 C109.889,96 109,95.333 109,94.5 C109,93.278 107.333,93 100,93 L91,93 L91,96.5 C91,99.833 90.833,100 87.5,100 C84.667,100 84,99.619 84,98 C84,96.889 83.333,96 82.5,96 C81.452,96 81,94.944 81,92.5 C81,90.056 81.452,89 82.5,89 C83.333,89 84,88.111 84,87 C84,85.095 84.667,85 98.094,85 C111.346,85 112.218,85.119 112.71,87 C113.103,88.503 114.074,89 116.617,89 L120,89 L120,76.617 C120,65.074 119.864,64.198 118,63.71 C116.9,63.423 116,62.47 116,61.594 C116,60.717 115.377,60 114.617,60 C113.856,60 112.998,59.1 112.71,58 C112.217,56.113 111.406,56.008 98.344,56.136 C90.73,56.211 83.487,56.467 82.25,56.706 Z M141.75,128.728 C139.335,128.981 138,129.633 138,130.56 C138,131.707 136.166,132 129,132 C120.667,132 120,132.148 120,134 C120,135.111 120.667,136 121.5,136 C122.325,136 123,136.675 123,137.5 C123,138.325 123.85,139 124.889,139 C126.255,139 126.959,139.967 127.434,142.5 L128.091,146 L138.545,146 C148.333,146 149,146.128 149,148 C149,149.111 149.667,150 150.5,150 C151.548,150 152,151.056 152,153.5 C152,155.944 151.548,157 150.5,157 C149.258,157 149,158.889 149,168 L149,179 L151.75,178.986 C158.489,178.953 159,178.382 159,170.883 C159,165.431 158.688,164 157.5,164 C156.222,164 156,161.333 156,146 L156,128 L150.75,128.168 C147.863,128.261 143.813,128.513 141.75,128.728 Z M123.37,174.25 C123.701,175.488 123.979,177.738 123.986,179.25 L124,182 L132.383,182 C141.562,182 141.952,181.706 141.986,174.75 L142,172 L132.383,172 C122.899,172 122.775,172.031 123.37,174.25 Z M138,159 C138,162.59 138.39,164 139.383,164 C140.144,164 141.002,163.1 141.29,162 C141.577,160.9 142.53,160 143.406,160 C145.677,160 145.381,158.333 143,157.71 C141.9,157.423 141,156.47 141,155.594 C141,154.717 140.325,154 139.5,154 C138.367,154 138,155.222 138,159 Z M123.5,158 C122.397,159.785 124.041,161 127.559,161 C130.333,161 131,160.613 131,159 C131,157.387 130.333,157 127.559,157 C125.666,157 123.84,157.45 123.5,158 Z M171,76 C171,77.111 171.667,78 172.5,78 C173.333,78 174,77.111 174,76 C174,74.889 173.333,74 172.5,74 C171.667,74 171,74.889 171,76 Z"/>
</svg>

