<svg xmlns="http://www.w3.org/2000/svg" width="300" height="300" viewBox="0 0 300 300" version="1.1">
  <defs/>
  <path d="M73.25,76.706 C77.862,75.817 78,75.913 78,80 L78,84 L83.5,84 C87.5,84 89,83.625 89,82.625 C89,81.052 93.259,80 99.625,80 C102.847,80 104,79.605 104,78.5 C104,77.224 106.608,77 121.472,77 L138.943,77 L139.222,141.071 C139.481,200.882 139.616,205.206 141.25,206.12 C142.803,206.989 143,208.899 143,223.05 C143,236.561 143.229,239 144.5,239 C145.548,239 146,240.056 146,242.5 C146,244.944 145.548,246 144.5,246 C143.667,246 143,246.889 143,248 C143,249.605 142.333,250 139.625,250 C136.645,250 136.177,249.634 135.625,246.875 C135.281,245.156 135,241.781 135,239.375 C135,236.153 134.605,235 133.5,235 C132.197,235 132,230.722 132,202.5 C132,174.278 131.803,170 130.5,170 C129.273,170 129,168.292 129,160.625 C129,155.469 128.719,149.844 128.375,148.125 C127.779,145.143 127.529,145 122.925,145 C119.534,145 117.832,145.477 117.201,146.606 C116.66,147.572 114.449,148.42 111.651,148.736 C108.857,149.051 107,149.763 107,150.519 C107,151.211 105.425,152.073 103.5,152.434 C101.405,152.827 100,153.675 100,154.545 C100,155.345 99.1,156 98,156 C96.889,156 96,156.667 96,157.5 C96,158.325 95.283,159 94.406,159 C93.53,159 92.577,159.9 92.29,161 C92.002,162.1 91.144,163 90.383,163 C89.469,163 89,164.187 89,166.5 C89,169.833 88.833,170 85.5,170 L82,170 L81.986,176.75 C81.97,184.848 81.241,188 79.383,188 C78.289,188 78,190.301 78,199 C78,207.62 77.705,210 76.637,210 C75.678,210 75.118,211.945 74.748,216.556 C74.458,220.162 74.059,223.249 73.861,223.415 C73.662,223.582 72.225,224.025 70.667,224.399 C68.342,224.958 67.738,224.714 67.3,223.04 C67.007,221.918 66.144,221 65.383,221 C64.623,221 64,220.1 64,219 C64,217.9 64.627,217 65.394,217 C66.441,217 66.88,214.988 67.155,208.924 C67.445,202.543 67.887,200.643 69.261,199.874 C70.748,199.042 71,197.313 71,187.95 C71,178.883 71.258,177 72.5,177 C73.325,177 74,176.325 74,175.5 C74,174.675 73.325,174 72.5,174 C71.3,174 71,172.5 71,166.5 C71,160.5 71.3,159 72.5,159 C73.793,159 74,155.556 74,134 C74,112.444 73.793,109 72.5,109 C71.229,109 71,106.563 71,93.07 C71,77.344 71.029,77.134 73.25,76.706 Z M164,150.421 C164,149.365 165.415,149 169.5,149 L175,149 L175,152.5 C175,155.833 174.833,156 171.5,156 C169.056,156 168,156.452 168,157.5 C168,158.748 169.975,159.001 179.75,159.006 C197.283,159.015 208,160.017 208,161.648 C208,162.604 209.466,163 213,163 C217.333,163 218,163.267 218,165 C218,166.333 218.667,167 220,167 C221.111,167 222,167.667 222,168.5 C222,169.333 222.889,170 224,170 C225.333,170 226,170.667 226,172 C226,173.111 226.667,174 227.5,174 C228.325,174 229,174.717 229,175.594 C229,176.47 229.9,177.423 231,177.71 C232.894,178.206 233,179.074 233,194.117 C233,206.973 232.736,210 231.617,210 C230.041,210 229.034,213 229.014,217.75 C229.004,219.966 228.523,221 227.5,221 C226.534,221 225.995,221.978 225.986,223.75 C225.961,228.849 224.91,230.861 221.93,231.515 C219.643,232.018 218.933,232.838 218.42,235.572 C217.792,238.921 217.664,239 212.889,239 C208.667,239 208,238.727 208,237 C208,235.9 208.623,235 209.383,235 C210.144,235 211.002,234.1 211.29,233 C211.577,231.9 212.53,231 213.406,231 C214.51,231 215,230.078 215,228 C215,226.107 215.512,225 216.389,225 C217.184,225 218.058,223.505 218.434,221.5 C218.827,219.405 219.675,218 220.545,218 C221.657,218 222,216.584 222,212 C222,207.606 222.364,206 223.361,206 C225.105,206 226.185,197.427 225.343,190.263 C224.935,186.791 224.261,185 223.362,185 C222.613,185 222,184.1 222,183 C222,181.9 221.377,181 220.617,181 C219.856,181 218.998,180.1 218.71,179 C218.423,177.9 217.47,177 216.594,177 C215.717,177 215,176.325 215,175.5 C215,174.462 213.957,174 211.617,174 C209.074,174 208.103,173.503 207.71,172 C207.274,170.33 206.346,170 202.094,170 C198.233,170 197,169.637 197,168.5 C197,167.258 195.111,167 186,167 C176.889,167 175,167.258 175,168.5 C175,169.548 173.944,170 171.5,170 L168,170 L168,199 L173.5,199 C177.538,199 179,198.629 179,197.605 C179,195.921 184.537,195.248 193.632,195.827 C198.192,196.118 200,196.626 200,197.616 C200,198.564 201.261,199 204,199 C207.333,199 208,199.333 208,201 C208,202.111 208.667,203 209.5,203 C210.69,203 211,204.444 211,210 C211,215.293 210.663,217 209.617,217 C208.856,217 207.998,217.9 207.71,219 C207.329,220.456 206.346,221 204.094,221 C201.667,221 201,220.569 201,219 C201,217.889 201.667,217 202.5,217 C203.548,217 204,215.944 204,213.5 C204,210.667 203.619,210 202,210 C200.667,210 200,209.333 200,208 C200,206.161 199.338,206.001 191.75,206.014 C182.196,206.029 179,206.682 179,208.617 C179,209.531 177.813,210 175.5,210 C172.167,210 172,210.167 172,213.5 C172,216.333 171.619,217 170,217 C168.148,217 168,217.667 168,226 L168,235 L164,235 C161.111,235 160,234.583 160,233.5 C160,232.675 159.55,232 159,232 C157.549,232 157.77,228.243 159.25,227.75 C160.135,227.455 160.5,224.52 160.5,217.71 C160.5,209.649 160.212,207.875 158.726,206.789 C157.376,205.802 157.107,204.715 157.601,202.246 C157.958,200.461 158.644,199 159.125,199 C160.604,199 160.093,196.25 158.5,195.638 C157.32,195.186 157,193.137 157,186.031 C157,178.67 156.723,177 155.5,177 C154.667,177 154,177.889 154,179 C154,180.333 153.333,181 152,181 C150.889,181 150,180.333 150,179.5 C150,178.639 149.098,178 147.884,178 C145.904,178 145.794,177.581 146.178,171.538 C146.405,167.984 146.885,164.782 147.246,164.421 C147.606,164.061 149.948,163.535 152.451,163.253 C156.557,162.79 157.001,162.485 157.014,160.12 C157.04,155.136 158.11,153.135 161.102,152.478 C162.696,152.128 164,151.202 164,150.421 Z M173.75,51.625 C175.349,51.148 192.06,51.726 192.611,52.278 C192.741,52.408 192.995,53.846 193.174,55.472 C193.565,59.015 190.592,60.373 189.723,57.048 C189.126,54.765 186,54.211 186,56.389 C186,57.184 184.505,58.058 182.5,58.434 C180.571,58.796 179,59.691 179,60.429 C179,61.165 178.1,62.002 177,62.29 C175.255,62.746 175,63.654 175,69.406 C175,74.601 174.682,76 173.5,76 C172.667,76 172,76.889 172,78 C172,79.733 172.667,80 177,80 C180.778,80 182,79.633 182,78.5 C182,77.277 183.677,77 191.094,77 C199.346,77 200.236,76.815 200.71,75 C201.198,73.136 202.074,73 213.617,73 L226,73 L226,76.375 C226,79.355 225.634,79.823 222.875,80.375 C221.156,80.719 217.106,81 213.875,81 C209.319,81 208,81.337 208,82.5 C208,83.728 206.278,84 198.5,84 C190.9,84 189,84.288 189,85.439 C189,86.489 187.105,87.066 182,87.569 C177.073,88.054 175,88.664 175,89.629 C175,90.383 174.325,91 173.5,91 C172.3,91 172,92.5 172,98.5 C172,104.5 172.3,106 173.5,106 C174.548,106 175,107.056 175,109.5 C175,112.333 175.381,113 177,113 C178.1,113 179,113.635 179,114.411 C179,116.16 185.882,116.632 204.641,116.173 C215.372,115.909 218,115.565 218,114.423 C218,113.319 219.682,113 225.5,113 C232.333,113 233,113.178 233,115 C233,116.111 233.667,117 234.5,117 C235.325,117 236,117.675 236,118.5 C236,119.325 235.325,120 234.5,120 C233.452,120 233,121.056 233,123.5 C233,125.626 232.509,127.005 231.75,127.014 C231.063,127.021 229.534,127.287 228.353,127.603 C226.481,128.106 226.118,127.656 225.515,124.09 C225.088,121.56 224.285,120 223.412,120 C222.635,120 222,120.619 222,121.375 C222,123.06 217.658,124 209.875,124 C205.319,124 204,124.337 204,125.5 C204,126.762 201.778,127 190,127 C178.802,127 176,126.725 176,125.628 C176,124.8 174.413,124.002 172,123.616 L168,122.976 L168,118.105 C168,114.074 167.655,113.143 166,112.71 C164.183,112.235 164,111.346 164,102.977 C164,93.914 163.964,93.776 161.75,94.37 C160.512,94.701 158.938,94.979 158.25,94.986 C157.563,94.994 157,95.675 157,96.5 C157,97.325 156.325,98 155.5,98 C154.667,98 154,98.889 154,100 C154,101.667 153.333,102 150,102 L146,102 L146,96.906 C146,92.654 146.33,91.726 148,91.29 C149.1,91.002 150,90.194 150,89.495 C150,88.795 151.575,87.927 153.5,87.566 C155.595,87.173 157,86.325 157,85.455 C157,84.459 158.104,84 160.5,84 L164,84 L164,78.125 C164,70.342 164.94,66 166.625,66 C167.625,66 168,64.5 168,60.5 C168,55.667 168.242,55 170,55 C171.1,55 172,54.358 172,53.573 C172,52.789 172.787,51.912 173.75,51.625 Z M114,85.371 C114,86.379 111.615,86.929 105,87.446 C98.207,87.978 96,88.5 96,89.575 C96,90.528 94.878,91 92.617,91 C90.074,91 89.103,91.497 88.71,93 C88.329,94.456 87.346,95 85.094,95 L82,95 L82,124 L84.375,124 C88.88,124 93,122.746 93,121.375 C93,120.619 93.675,120 94.5,120 C95.325,120 96,120.675 96,121.5 C96,122.412 96.931,123 98.375,123 C102.88,123 107,124.254 107,125.625 C107,126.381 107.619,127 108.375,127 C109.904,127 111,131.228 111,137.125 C111,139.903 111.425,141 112.5,141 C113.325,141 114,140.325 114,139.5 C114,138.348 115.278,138 119.5,138 C123.516,138 125,137.627 125,136.617 C125,135.856 125.895,134.999 126.989,134.713 C128.793,134.241 128.941,133.513 128.587,126.847 C128.372,122.806 128.152,112.188 128.098,103.25 C128.015,89.516 127.768,87 126.5,87 C125.675,87 125,86.325 125,85.5 C125,84.348 123.722,84 119.5,84 C115.508,84 114,84.376 114,85.371 Z M164,240.5 C164,239.222 166.667,239 182,239 C197.333,239 200,239.222 200,240.5 C200,241.583 201.111,242 204,242 C207.333,242 208,242.333 208,244 C208,245.111 208.667,246 209.5,246 C211.867,246 211.246,248.727 208.75,249.295 C207.512,249.576 196.262,249.841 183.75,249.884 L161,249.961 L161,245.981 C161,243.109 161.418,242 162.5,242 C163.325,242 164,241.325 164,240.5 Z M82,143.5 C82,155.333 82.107,156 84,156 C85.111,156 86,155.333 86,154.5 C86,153.675 86.675,153 87.5,153 C88.333,153 89,152.111 89,151 C89,149.381 89.667,149 92.5,149 C95.333,149 96,148.619 96,147 C96,145.394 96.667,145 99.383,145 C103.296,145 104.095,143.022 103.241,135.448 C102.758,131.163 102.616,131 99.37,131 C96.185,131 96,131.192 96,134.5 C96,137.333 95.619,138 94,138 C92.9,138 92,137.345 92,136.545 C92,135.675 90.595,134.827 88.5,134.434 C86.495,134.058 85,133.184 85,132.389 C85,131.625 84.325,131 83.5,131 C82.247,131 82,133.056 82,143.5 Z"/>
</svg>

