<svg xmlns="http://www.w3.org/2000/svg" width="300" height="300" viewBox="0 0 300 300" version="1.1">
  <defs/>
  <path d="M196,61.393 C196,60.434 197.248,60 200,60 L204,60 L204,75.091 L207.5,74.434 C212.217,73.549 218,74.712 218,76.545 C218,77.576 219.166,78 222,78 C224.739,78 226,78.436 226,79.383 C226,80.894 228.965,81.965 233.205,81.986 C235.5,81.998 236.009,82.53 236.566,85.5 C236.942,87.505 237.816,89 238.611,89 C239.375,89 240,89.675 240,90.5 C240,91.325 239.283,92 238.406,92 C237.53,92 236.577,92.9 236.29,94 C236.002,95.1 235.144,96 234.383,96 C233.623,96 233,96.9 233,98 C233,99.619 232.333,100 229.5,100 C226.667,100 226,99.619 226,98 C226,96.889 226.667,96 227.5,96 C228.548,96 229,94.944 229,92.5 C229,89.167 228.833,89 225.5,89 C223.187,89 222,88.531 222,87.617 C222,85.897 218.923,85.031 212.75,85.014 C209.201,85.003 208,84.621 208,83.5 C208,82.667 207.111,82 206,82 C204.092,82 204,82.667 204,96.5 C204,108.063 204.276,111 205.361,111 C207.027,111 207.979,117.969 207.991,130.25 L208,139 L211,139 C212.954,139 214,138.494 214,137.55 C214,136.519 215.737,135.903 220,135.42 C224.085,134.958 226,134.304 226,133.371 C226,132.267 229.114,132 242,132 L258,132 L258,155.5 C258,174.908 258.242,179 259.391,179 C260.528,179 260.855,183.171 261.176,201.75 C261.604,226.575 261.445,229 259.383,229 C258.478,229 258,230.17 258,232.389 C258,235.47 257.682,235.837 254.5,236.434 C251.302,237.034 251,237.389 251,240.545 C251,243.844 250.838,244 247.406,244 C244.654,244 243.69,243.532 243.29,242 C242.897,240.497 241.926,240 239.383,240 C237.169,240 236,239.522 236,238.617 C236,236.879 232.568,235.936 228.906,236.669 C226.838,237.082 225.944,237.981 225.475,240.114 C225.126,241.701 224.202,243 223.421,243 C222.639,243 222,243.85 222,244.889 C222,246.255 221.033,246.959 218.5,247.434 C216.405,247.827 215,248.675 215,249.545 C215,250.345 214.1,251 213,251 C211.667,251 211,251.667 211,253 C211,254.111 210.333,255 209.5,255 C208.675,255 208,255.675 208,256.5 C208,257.333 207.111,258 206,258 C204.667,258 204,258.667 204,260 C204,261.619 203.333,262 200.5,262 C197.667,262 197,261.619 197,260 C197,258.9 196.377,258 195.617,258 C194.027,258 193.033,254.993 193.014,250.12 L193,246.74 L188.349,247.264 C185.551,247.58 183.34,248.428 182.799,249.394 C182.049,250.734 179.842,251 169.45,251 C157.667,251 157,251.107 157,253 C157,254.333 156.333,255 155,255 C153.889,255 153,255.667 153,256.5 C153,257.633 151.778,258 148,258 C144.41,258 143,257.61 143,256.617 C143,255.856 143.9,254.998 145,254.71 C146.1,254.423 147,253.47 147,252.594 C147,251.505 147.911,251 149.875,251 C152.302,251 152.849,250.507 153.382,247.84 C153.73,246.102 153.873,244.54 153.701,244.368 C153.529,244.196 149.692,243.884 145.174,243.674 C140.656,243.465 136.652,242.985 136.275,242.608 C135.898,242.231 135.405,239.016 135.178,235.462 L134.767,229 L138.884,229 C141.819,229 143,229.417 143,230.455 C143,231.325 144.405,232.173 146.5,232.566 C148.505,232.942 150,233.816 150,234.611 C150,235.532 151.18,236 153.5,236 C156.333,236 157,236.381 157,238 C157,239.333 157.667,240 159,240 C160.111,240 161,239.333 161,238.5 C161,237.675 161.717,237 162.594,237 C163.47,237 164.423,236.1 164.71,235 C164.998,233.9 165.856,233 166.617,233 C167.531,233 168,231.813 168,229.5 C168,227.056 168.452,226 169.5,226 C170.333,226 171,225.111 171,224 C171,222.889 170.333,222 169.5,222 C168.667,222 168,222.889 168,224 C168,225.333 167.333,226 166,226 C164.889,226 164,226.667 164,227.5 C164,228.325 163.377,229 162.617,229 C161.856,229 160.998,229.9 160.71,231 C159.967,233.841 154.033,233.841 153.29,231 C153.002,229.9 152.144,229 151.383,229 C150.623,229 150,228.1 150,227 C150,225.889 150.667,225 151.5,225 C152.325,225 153,224.325 153,223.5 C153,222.417 154.111,222 157,222 C159.889,222 161,221.583 161,220.5 C161,219.675 161.675,219 162.5,219 C163.356,219 164,218.101 164,216.906 C164,215.654 164.803,214.603 166,214.29 C167.417,213.919 168,212.926 168,210.883 C168,209.067 168.522,208 169.412,208 C170.28,208 171.085,206.459 171.5,204 C171.879,201.755 172.741,200 173.463,200 C174.696,200 176,195.825 176,191.875 C176,190.186 175.134,189.999 167.25,189.986 C162.438,189.979 157.526,189.711 156.335,189.392 C153.883,188.734 152.658,185.212 153.589,181.5 C154.2,179.068 154.458,179 163.108,179 C170.345,179 172,179.279 172,180.5 C172,181.69 173.444,182 179,182 L186,182 L186,172 L197,172 L197,175.5 C197,178.402 197.363,179 199.125,179 C200.972,179 201.168,178.591 200.625,175.875 C200.281,174.156 200,168.584 200,163.492 L200,154.233 L197.25,153.687 C192.334,152.711 179,154.144 179,155.648 C179,156.649 177.248,157.004 172.25,157.014 C164.152,157.03 161,157.759 161,159.617 C161,160.671 159.219,161 153.5,161 C147.5,161 146,161.3 146,162.5 C146,163.548 144.944,164 142.5,164 C139.167,164 139,164.167 139,167.5 C139,170.833 138.833,171 135.5,171 L132,171 L132,178.5 C132,184.197 132.331,186 133.375,186 C135.06,186 136,190.342 136,198.125 L136,204 L146,204 L146,209.5 C146,213.722 145.652,215 144.5,215 C143.452,215 143,216.056 143,218.5 L143,222 L132,222 L132,218.5 C132,216.197 131.53,215 130.625,215 C129.052,215 128,210.741 128,204.375 C128,201.153 127.605,200 126.5,200 C125.295,200 124.964,198.28 124.817,191.25 C124.423,172.48 124.366,172 122.5,172 C121.227,172 121,169.5 121,155.5 C121,139.667 121.081,139 123,139 C124.619,139 125,138.333 125,135.5 C125,132.167 125.167,132 128.5,132 C130.944,132 132,132.452 132,133.5 C132,134.325 132.717,135 133.594,135 C134.47,135 135.423,135.9 135.71,137 C135.998,138.1 136.856,139 137.617,139 C138.566,139 139,140.268 139,143.045 L139,147.091 L135.5,146.434 L132,145.777 L132,154.279 L137.25,153.648 C140.137,153.301 144.188,153.013 146.25,153.009 C148.913,153.003 150,152.565 150,151.5 C150,150.263 151.82,150 160.383,150 C169.926,150 170.809,149.838 171.29,148 C171.751,146.237 172.654,146 178.906,146 C184.545,146 186,145.692 186,144.5 C186,143.348 187.278,143 191.5,143 C196.333,143 197,142.758 197,141 C197,139.889 197.667,139 198.5,139 C199.548,139 200,137.944 200,135.5 C200,133.056 199.548,132 198.5,132 C197.246,132 196.999,129.913 196.991,119.25 C196.98,103.161 196.17,96 194.361,96 C192.243,96 192.379,64.176 194.5,63.362 C195.325,63.045 196,62.159 196,61.393 Z M78,76 C78,74.279 78.662,74.002 82.75,74.014 C88.923,74.031 92,74.897 92,76.617 C92,77.564 93.261,78 96,78 C98.889,78 100,78.417 100,79.5 C100,80.325 100.717,81 101.594,81 C102.47,81 103.423,81.9 103.71,83 C103.998,84.1 104.856,85 105.617,85 C106.707,85 107,87.227 107,95.5 C107,103.808 107.291,106 108.393,106 C109.159,106 110.063,105.277 110.402,104.394 C111.141,102.47 116.021,103.309 117.3,105.58 C117.74,106.361 118.752,107 119.55,107 C120.347,107 121,107.9 121,109 C121,110.111 120.333,111 119.5,111 C118.675,111 118,111.675 118,112.5 C118,113.753 115.957,114 105.617,114 C94.074,114 93.198,114.136 92.71,116 C92.218,117.881 91.346,118 78.094,118 C66.233,118 64,118.238 64,119.5 C64,120.333 63.111,121 62,121 C60.667,121 60,121.667 60,123 C60,124.1 59.388,125 58.639,125 C57.249,125 56.026,131.622 56.009,139.25 C56.003,141.913 55.565,143 54.5,143 C53.278,143 53,144.667 53,152 C53,158.996 52.692,161 51.617,161 C50.856,161 49.962,162.012 49.63,163.25 C48.845,166.181 48.83,174.394 49.607,176.418 C50.307,178.241 52.654,178.538 53.209,176.873 C53.416,176.253 55.928,175.521 58.792,175.246 C62.203,174.918 64,174.287 64,173.418 C64,172.688 65.575,171.795 67.5,171.434 C69.505,171.058 71,170.184 71,169.389 C71,168.468 72.18,168 74.5,168 C77.333,168 78,167.619 78,166 C78,164.381 78.667,164 81.5,164 C83.944,164 85,163.548 85,162.5 C85,161.278 86.667,161 94,161 C101.333,161 103,161.278 103,162.5 C103,163.333 103.889,164 105,164 C106.758,164 107,164.667 107,169.5 C107,173.722 107.348,175 108.5,175 C109.69,175 110,176.444 110,182 C110,187.556 109.69,189 108.5,189 C107.278,189 107,190.661 107,197.95 C107,205.129 106.682,207.079 105.394,207.799 C104.428,208.34 103.58,210.551 103.264,213.349 C102.924,216.365 102.258,218 101.37,218 C100.494,218 99.995,219.172 99.986,221.25 C99.966,226 98.959,229 97.383,229 C96.436,229 96,230.261 96,233 C96,235.739 95.564,237 94.617,237 C93.101,237 92.035,239.968 92.014,244.25 C92.005,246.022 91.466,247 90.5,247 C89.452,247 89,248.056 89,250.5 C89,253.333 88.619,254 87,254 C85.386,254 85,254.667 85,257.455 C85,260.611 84.698,260.966 81.5,261.566 C79.495,261.942 78,262.816 78,263.611 C78,264.532 76.82,265 74.5,265 C72.056,265 71,264.548 71,263.5 C71,262.667 70.111,262 69,262 C67.667,262 67,261.333 67,260 C67,258.381 66.333,258 63.5,258 C60.167,258 60,257.833 60,254.5 C60,251.667 59.619,251 58,251 C56.667,251 56,250.333 56,249 C56,247.889 55.333,247 54.5,247 C53.31,247 53,245.556 53,240 C53,234.444 52.69,233 51.5,233 C50.667,233 50,232.111 50,231 C50,229.444 50.667,229 53,229 C55.491,229 56,229.403 56,231.375 C56,235.88 57.254,240 58.625,240 C59.381,240 60,240.9 60,242 C60,243.1 60.655,244 61.455,244 C62.325,244 63.173,245.405 63.566,247.5 C64.163,250.682 64.53,251 67.611,251 C69.957,251 71,251.462 71,252.5 C71,253.548 72.056,254 74.5,254 C77.833,254 78,253.833 78,250.5 C78,248.104 78.459,247 79.455,247 C80.325,247 81.173,245.595 81.566,243.5 C81.942,241.495 82.816,240 83.611,240 C84.565,240 85,238.745 85,235.99 C85,233.218 85.617,231.452 87,230.268 C88.245,229.202 89,227.318 89,225.278 C89,223.031 89.472,222 90.5,222 C91.555,222 92,220.934 92,218.406 C92,215.654 92.468,214.69 94,214.29 C95.737,213.836 96,212.926 96,207.383 C96,202.617 96.35,201 97.383,201 C99.209,201 100.433,188.287 99.5,179.002 C98.879,172.812 98.58,172.111 96.323,171.545 C92.31,170.538 82,172.038 82,173.629 C82,174.536 80.784,175 78.406,175 C75.654,175 74.69,175.468 74.29,177 C73.897,178.503 72.926,179 70.383,179 C68.089,179 67,179.468 67,180.455 C67,181.325 65.595,182.173 63.5,182.566 C61.495,182.942 60,183.816 60,184.611 C60,185.628 58.526,186 54.5,186 C50.382,186 49,186.361 49,187.439 C49,189.007 40.96,190.711 39.071,189.544 C36.893,188.198 38.338,172 40.636,172 C41.692,172 42,169.857 42,162.5 C42,155.154 42.309,153 43.361,153 C44.751,153 45.974,146.378 45.991,138.75 C45.997,136.087 46.435,135 47.5,135 C48.69,135 49,133.556 49,128 C49,122.707 49.337,121 50.383,121 C51.959,121 52.966,118 52.986,113.25 C52.996,111.034 53.477,110 54.5,110 C55.325,110 56,109.325 56,108.5 C56,106.976 58.736,106.752 81.5,106.404 C91.513,106.251 92,106.163 92,104.5 C92,103.667 92.889,103 94,103 C95.111,103 96,102.333 96,101.5 C96,100.675 96.623,100 97.383,100 C98.144,100 99.007,98.763 99.3,97.25 C100.046,93.41 99.016,89 97.375,89 C96.619,89 96,88.381 96,87.625 C96,86.254 91.88,85 87.375,85 C85.667,85 85,85.561 85,87 C85,88.619 84.333,89 81.5,89 C78.167,89 78,88.833 78,85.5 C78,83.056 77.548,82 76.5,82 C75.667,82 75,81.111 75,80 C75,78.889 75.667,78 76.5,78 C77.333,78 78,77.111 78,76 Z M229,144.5 C229,145.672 227.633,146.003 222.75,146.014 C215.135,146.03 212,146.79 212,148.617 C212,149.377 211.1,150 210,150 C208.121,150 208,150.667 208,161 C208,170.111 208.258,172 209.5,172 C210.548,172 211,173.056 211,175.5 C211,178.333 211.381,179 213,179 C214.619,179 215,178.333 215,175.5 C215,173.056 215.452,172 216.5,172 C217.583,172 218,170.889 218,168 C218,164.667 218.333,164 220,164 C221.619,164 222,163.333 222,160.5 C222,157.667 222.381,157 224,157 C225.111,157 226,156.333 226,155.5 C226,154.675 226.675,154 227.5,154 C228.333,154 229,153.111 229,152 C229,150.381 229.667,150 232.5,150 C234.944,150 236,150.452 236,151.5 C236,152.333 236.889,153 238,153 C239.667,153 240,153.667 240,157 C240,160.905 239.917,161 236.5,161 C234.056,161 233,161.452 233,162.5 C233,163.333 232.111,164 231,164 C229.667,164 229,164.667 229,166 C229,167.111 228.333,168 227.5,168 C226.445,168 226,169.066 226,171.594 C226,174.346 225.532,175.31 224,175.71 C222.497,176.103 222,177.074 222,179.617 C222,181.831 221.522,183 220.617,183 C219.101,183 218.035,185.968 218.014,190.25 C218.003,192.338 218.482,193 220,193 C221.1,193 222,193.623 222,194.383 C222,195.144 222.9,196.002 224,196.29 C225.1,196.577 226,197.48 226,198.295 C226,199.197 227.369,200.034 229.5,200.434 C231.595,200.827 233,201.675 233,202.545 C233,203.345 233.9,204 235,204 C236.1,204 237,204.639 237,205.421 C237,206.202 238.35,207.138 240,207.5 C241.65,207.862 243,208.798 243,209.579 C243,210.57 244.211,211 247,211 L251,211 L250.986,193.75 C250.972,175.348 250.571,172 248.383,172 C247.28,172 247,169.483 247,159.545 L247,147.091 L243.5,146.434 C241.495,146.058 240,145.184 240,144.389 C240,143.372 238.526,143 234.5,143 C230.278,143 229,143.348 229,144.5 Z M215,36.5 C215,35.452 216.056,35 218.5,35 L222,35 L222,40 C222,43.778 221.633,45 220.5,45 C219.644,45 219,45.899 219,47.094 C219,48.346 218.197,49.397 217,49.71 C215.583,50.081 215,51.074 215,53.117 C215,55.726 214.679,56 211.617,56 C207.998,56 207.042,54.495 207.014,48.75 C207.005,46.978 206.466,46 205.5,46 C204.675,46 204,46.629 204,47.397 C204,48.457 201.938,48.88 195.463,49.147 C189.242,49.404 186.676,49.907 186.001,51 C185.241,52.232 181.579,52.558 165.538,52.826 C149.457,53.095 146,53.405 146,54.576 C146,55.618 144.658,56 141,56 L136,56 L136,51 C136,46.077 136.048,46 139.094,46 C141.346,46 142.329,45.456 142.71,44 C143.216,42.068 144.074,42 168.117,42 C188.436,42 193,41.75 193,40.639 C193,39.121 199.782,38.023 209.25,38.009 C213.691,38.002 215,37.658 215,36.5 Z M197,212.988 C197,213.532 195.2,214.264 193,214.616 C190.587,215.002 189,215.8 189,216.628 C189,217.383 188.325,218 187.5,218 C186.667,218 186,218.889 186,220 C186,221.333 185.333,222 184,222 C182.889,222 182,222.667 182,223.5 C182,224.325 181.325,225 180.5,225 C179.567,225 179,225.944 179,227.5 C179,228.993 178.428,230 177.579,230 C176.798,230 175.862,231.35 175.5,233 C175.138,234.65 174.202,236 173.421,236 C172.464,236 172,237.143 172,239.5 C172,242.833 172.167,243 175.5,243 C177.944,243 179,242.548 179,241.5 C179,240.31 180.444,240 186,240 C191.556,240 193,240.31 193,241.5 C193,242.325 193.717,243 194.594,243 C195.47,243 196.423,243.9 196.71,245 C196.998,246.1 197.856,247 198.617,247 C199.61,247 200.02,245.519 200.071,241.75 C200.11,238.863 200.334,232.225 200.568,227 C201.054,216.158 200.458,212 198.421,212 C197.639,212 197,212.445 197,212.988 Z M146.434,81.5 C147.077,78.073 147.191,78 151.929,78 C155.926,78 156.858,78.348 157.29,80 C157.577,81.1 158.53,82 159.406,82 C160.283,82 161,82.623 161,83.383 C161,84.144 161.947,85.014 163.105,85.317 C166.366,86.17 164.769,88.464 160.673,88.81 C157.53,89.076 157,88.823 157,87.06 C157,85.896 156.348,85 155.5,85 C154.667,85 154,85.889 154,87 C154,88.333 153.333,89 152,89 C150.381,89 150,89.667 150,92.5 C150,95.333 149.619,96 148,96 C146.381,96 146,96.667 146,99.5 C146,101.944 145.548,103 144.5,103 C143.452,103 143,104.056 143,106.5 L143,110 L147.75,110.014 C153.923,110.031 157,110.897 157,112.617 C157,113.531 155.813,114 153.5,114 C150.667,114 150,114.381 150,116 C150,117.667 149.333,118 146,118 C143.111,118 142,118.417 142,119.5 C142,120.325 141.55,121 141,121 C140.45,121 140,120.325 140,119.5 C140,118.644 139.101,118 137.906,118 C136.654,118 135.603,117.197 135.29,116 C135.002,114.9 134.144,114 133.383,114 C132.469,114 132,112.813 132,110.5 C132,108.197 132.47,107 133.375,107 C134.746,107 136,102.88 136,98.375 C136,96.931 136.588,96 137.5,96 C138.333,96 139,95.111 139,94 C139,92.9 139.655,92 140.455,92 C141.325,92 142.173,90.595 142.566,88.5 C142.927,86.575 143.797,85 144.5,85 C145.203,85 146.073,83.425 146.434,81.5 Z M211.698,200.636 C211.314,201.019 211,203.508 211,206.167 C211,210.333 211.276,211 213,211 C214.333,211 215,211.667 215,213 C215,214.111 215.667,215 216.5,215 C217.325,215 218,215.675 218,216.5 C218,217.333 218.889,218 220,218 C221.333,218 222,218.667 222,220 C222,221.333 222.667,222 224,222 C225.333,222 226,221.333 226,220 C226,218.381 226.667,218 229.5,218 C231.944,218 233,217.548 233,216.5 C233,215.675 233.675,215 234.5,215 C235.333,215 236,214.111 236,213 C236,211.381 235.333,211 232.5,211 C229.667,211 229,211.381 229,213 C229,216.425 226.266,215.231 225.566,211.5 C225.173,209.405 224.325,208 223.455,208 C222.655,208 222,207.1 222,206 C222,204.667 221.333,204 220,204 C218.889,204 218,203.333 218,202.5 C218,201.675 217.362,201 216.582,201 C215.802,201 214.541,200.761 213.78,200.469 C213.018,200.177 212.082,200.252 211.698,200.636 Z M186,198.019 C186,199.165 185.328,200 184.406,200 C183.53,200 182.577,200.9 182.29,202 C182.002,203.1 181.144,204 180.383,204 C179.478,204 179,205.169 179,207.383 C179,209.982 178.512,210.894 176.895,211.317 C175.734,211.621 174.986,212.459 175.228,213.184 C175.846,215.041 179,215.464 179,213.69 C179,212.889 179.9,211.998 181,211.71 C182.1,211.423 183,210.524 183,209.714 C183,208.628 184.575,208.126 188.979,207.808 C192.267,207.57 195.295,207.039 195.706,206.627 C196.523,205.81 196.749,198.38 195.977,197.701 C195.715,197.471 193.363,197.002 190.75,196.66 C186.473,196.1 186,196.235 186,198.019 Z M211.698,225.636 C211.314,226.019 211,230.083 211,234.667 C211,242.333 211.16,243 213,243 C214.549,243 215,242.333 215,240.045 C215,237.46 215.438,237.008 218.5,236.434 C221.682,235.837 222,235.47 222,232.389 C222,229.667 221.607,229 220,229 C218.889,229 218,228.333 218,227.5 C218,226.675 217.362,226 216.582,226 C215.802,226 214.541,225.761 213.78,225.469 C213.018,225.177 212.082,225.252 211.698,225.636 Z M247,220 C247,221.619 246.333,222 243.5,222 C240.167,222 240,222.167 240,225.5 L240,229 L251,229 L251,223.5 C251,218.667 250.758,218 249,218 C247.667,218 247,218.667 247,220 Z M172,220.5 C172,221.325 172.675,222 173.5,222 C174.325,222 175,221.325 175,220.5 C175,219.675 174.325,219 173.5,219 C172.675,219 172,219.675 172,220.5 Z M194,187.5 C194,188.325 194.45,189 195,189 C195.55,189 196,188.325 196,187.5 C196,186.675 195.55,186 195,186 C194.45,186 194,186.675 194,187.5 Z"/>
</svg>

