<svg xmlns="http://www.w3.org/2000/svg" width="300" height="300" viewBox="0 0 300 300" version="1.1">
  <defs/>
  <path d="M134,78.5 C134,77.348 135.278,77 139.5,77 L145,77 L145,80.5 C145,83.833 144.833,84 141.5,84 C138.667,84 138,84.381 138,86 C138,87.1 137.381,88 136.625,88 C135.318,88 134,92.078 134,96.125 C134,97.601 134.744,98 137.5,98 C139.944,98 141,97.548 141,96.5 C141,95.35 142.272,95 146.45,95 C150.602,95 152.134,94.583 152.879,93.25 C153.687,91.804 155.604,91.44 163.928,91.156 C171.753,90.889 174,90.499 174,89.406 C174,88.265 176.637,88 188,88 C199.778,88 202,88.238 202,89.5 C202,90.641 203.256,91.003 207.25,91.014 C213.902,91.031 217,91.858 217,93.617 C217,94.377 217.948,95 219.106,95 C221.103,95 221.193,95.416 220.847,103.042 C220.617,108.104 220.012,111.375 219.214,111.868 C218.517,112.298 217.671,114.979 217.334,117.825 C216.955,121.027 216.236,123 215.449,123 C214.743,123 213.875,124.782 213.5,127 C213.085,129.459 212.28,131 211.412,131 C210.635,131 210,131.9 210,133 C210,134.111 209.333,135 208.5,135 C207.675,135 207,135.675 207,136.5 C207,137.325 207.675,138 208.5,138 C209.325,138 210,138.675 210,139.5 C210,140.325 210.717,141 211.594,141 C212.47,141 213.412,141.858 213.686,142.908 C213.96,143.957 215.109,145.057 216.238,145.352 C218.092,145.837 218.23,146.405 217.655,151.195 C217.304,154.113 217.013,158.863 217.009,161.75 C217.002,165.746 216.642,167 215.5,167 C214.534,167 213.995,167.978 213.986,169.75 C213.965,174.032 212.899,177 211.383,177 C210.623,177 210,177.9 210,179 C210,180.1 209.375,181 208.611,181 C207.816,181 206.942,182.495 206.566,184.5 C206.173,186.595 205.325,188 204.455,188 C203.655,188 203,188.9 203,190 C203,191.333 202.333,192 201,192 C199.394,192 199,192.667 199,195.383 C199,198.278 198.603,198.844 196.25,199.3 C194.738,199.594 192.262,199.59 190.75,199.292 L188,198.75 L188,189.875 C188,181.667 188.15,181 190,181 C191.619,181 192,181.667 192,184.5 C192,187.333 192.381,188 194,188 C195.556,188 196,187.333 196,185 C196,183.124 196.514,182 197.372,182 C198.2,182 198.998,180.413 199.384,178 C199.798,175.412 200.549,174 201.512,174 C202.333,174 203,173.104 203,172 C203,170.889 203.667,170 204.5,170 C205.575,170 206,168.903 206,166.125 C206,160.228 207.096,156 208.625,156 C209.381,156 210,155.1 210,154 C210,152.667 209.333,152 208,152 C206.889,152 206,151.333 206,150.5 C206,149.348 204.722,149 200.5,149 C196.484,149 195,148.627 195,147.617 C195,146.101 192.032,145.035 187.75,145.014 C185.082,145 185,145.163 185,150.5 C185,154.722 185.348,156 186.5,156 C187.69,156 188,157.444 188,163 C188,168.556 187.69,170 186.5,170 C185.31,170 185,168.556 185,163 L185,156 L181.5,156 C178.482,156 178,156.327 178,158.375 C178,162.88 176.746,167 175.375,167 C174.339,167 174,168.727 174,174 C174,179.556 173.69,181 172.5,181 C171.435,181 170.997,182.087 170.991,184.75 C170.974,192.378 169.751,199 168.361,199 C167.286,199 167,201.624 167,211.5 C167,221.944 167.247,224 168.5,224 C169.621,224 170.003,225.201 170.014,228.75 C170.035,236.272 170.781,237.868 174.61,238.587 C176.531,238.947 178,239.825 178,240.611 C178,241.497 179.121,242 181.094,242 C183.346,242 184.329,242.544 184.71,244 C185.143,245.656 186.074,246 190.117,246 C193.613,246 195,246.394 195,247.386 C195,249.557 201.957,250.137 225.747,249.951 C245.364,249.798 250.928,250.017 252.464,247.636 C253.22,246.464 253,244.662 253,241.875 C253,236.688 253.34,235 254.383,235 C255.959,235 256.966,232 256.986,227.25 C256.996,225.034 257.477,224 258.5,224 C259.575,224 260,222.903 260,220.125 C260,217.994 260.281,214.844 260.625,213.125 C261.151,210.495 261.705,210 264.125,210 C266.744,210 267,210.312 267,213.5 C267,215.944 266.548,217 265.5,217 C264.3,217 264,218.5 264,224.5 C264,230.5 263.7,232 262.5,232 C261.306,232 260.998,233.477 260.989,239.25 C260.974,248.89 260.067,254 258.369,254 C257.515,254 257,255.127 257,257 L257,260 L226.5,260 C200.056,260 196,259.801 196,258.5 C196,257.3 194.5,257 188.5,257 C182.604,257 181,256.689 181,255.545 C181,254.675 179.595,253.827 177.5,253.434 C175.495,253.058 174,252.184 174,251.389 C174,250.468 172.82,250 170.5,250 C167.667,250 167,249.619 167,248 C167,246.667 166.333,246 165,246 C163.889,246 163,245.333 163,244.5 C163,243.675 162.381,243 161.625,243 C160.052,243 159,238.741 159,232.375 C159,229.153 158.605,228 157.5,228 C156.367,228 156,226.778 156,223 C156,219.222 156.367,218 157.5,218 C158.685,218 159.001,216.581 159.006,211.25 C159.017,198.368 160.196,188 161.648,188 C162.655,188 163,186.214 163,181 C163,175.707 163.337,174 164.383,174 C165.144,174 166.038,172.988 166.37,171.75 C167.151,168.835 167.151,154.165 166.37,151.25 C165.623,148.463 164.404,148.348 163.71,151 C163.423,152.1 162.47,153 161.594,153 C160.361,153 159.997,154.076 159.986,157.75 C159.969,163.923 159.103,167 157.383,167 C156.373,167 156,168.484 156,172.5 C156,176.646 155.642,178 154.545,178 C153.675,178 152.827,179.405 152.434,181.5 C152.058,183.505 151.184,185 150.389,185 C149.468,185 149,186.18 149,188.5 C149,190.896 148.541,192 147.545,192 C146.675,192 145.827,193.405 145.434,195.5 C145.073,197.425 144.203,199 143.5,199 C142.797,199 141.927,200.575 141.566,202.5 C141.173,204.595 140.325,206 139.455,206 C138.655,206 138,206.9 138,208 C138,209.1 137.365,210 136.588,210 C135.72,210 134.915,211.541 134.5,214 C134.085,216.459 133.28,218 132.412,218 C131.522,218 131,219.067 131,220.883 C131,222.926 130.417,223.919 129,224.29 C127.468,224.69 127,225.654 127,228.406 C127,230.934 126.555,232 125.5,232 C124.448,232 124,233.062 124,235.56 C124,239.063 123.939,239.116 120.25,238.81 C116.781,238.523 116.476,238.243 116.173,235.067 C115.688,229.976 116.861,225 118.545,225 C119.532,225 120,223.911 120,221.617 C120,219.074 120.497,218.103 122,217.71 C123.197,217.397 124,216.346 124,215.094 C124,213.899 124.644,213 125.5,213 C126.487,213 127,212.013 127,210.117 C127,208.074 127.583,207.081 129,206.71 C130.532,206.31 131,205.346 131,202.594 L131,199 L122,199 C115.004,199 113,198.692 113,197.617 C113,196.856 112.1,195.998 111,195.71 C109.9,195.423 109,194.47 109,193.594 C109,192.717 108.325,192 107.5,192 C106.229,192 106,194.444 106,208 C106,221.556 106.229,224 107.5,224 C108.652,224 109,225.278 109,229.5 C109,233.722 108.652,235 107.5,235 C106.348,235 106,236.278 106,240.5 L106,246 L98,246 L98,224 C98,205.111 97.788,202 96.5,202 C95.238,202 95,199.778 95,188 L95,174 L91.5,174 C88.964,174 88,174.439 88,175.594 C88,176.47 87.1,177.423 86,177.71 C84.9,177.998 84,178.856 84,179.617 C84,180.531 82.813,181 80.5,181 C77.964,181 77,181.439 77,182.594 C77,183.47 76.1,184.423 75,184.71 C73.9,184.998 73,185.806 73,186.505 C73,187.205 71.425,188.073 69.5,188.434 C67.405,188.827 66,189.675 66,190.545 C66,191.541 64.896,192 62.5,192 C60.056,192 59,192.452 59,193.5 C59,194.333 58.111,195 57,195 C55.889,195 55,194.333 55,193.5 C55,192.675 54.325,192 53.5,192 C51.274,192 51.682,189.316 54,188.71 C55.1,188.423 56,187.506 56,186.673 C56,185.804 57.278,184.878 59,184.5 C60.65,184.138 62,183.202 62,182.421 C62,181.639 62.9,181 64,181 C65.619,181 66,180.333 66,177.5 C66,174.667 65.619,174 64,174 C62.889,174 62,173.333 62,172.5 C62,171.675 61.325,171 60.5,171 C59.667,171 59,170.111 59,169 C59,167.381 58.333,167 55.5,167 L52,167 L52,172.875 C52,180.658 51.06,185 49.375,185 C48.31,185 48,187.03 48,194 C48,200.97 47.69,203 46.625,203 C45.096,203 44,207.228 44,213.125 C44,215.903 43.575,217 42.5,217 C41.3,217 41,218.5 41,224.5 L41,232 L37.559,232 C35.666,232 33.82,231.518 33.456,230.929 C33.092,230.34 33.114,225.39 33.505,219.929 C34.04,212.452 34.56,210 35.608,210 C36.664,210 37,208.322 37,203.05 C37,197.47 37.345,195.906 38.75,195.12 C40.156,194.333 40.569,192.454 40.853,185.57 C41.12,179.067 41.542,177 42.603,177 C43.768,177 44,172.021 44,147 C44,122.069 43.765,117 42.611,117 C41.823,117 40.946,115.527 40.584,113.597 C40.233,111.725 39.283,109.939 38.473,109.628 C36.535,108.884 36.558,105 38.5,105 C39.325,105 40,104.325 40,103.5 C40,102.567 40.944,102 42.5,102 C44.056,102 45,101.433 45,100.5 C45,99.675 45.337,98.968 45.75,98.928 C46.163,98.888 52.575,98.639 60,98.374 C75.075,97.837 80,98.371 80,100.545 C80,101.73 82.041,102 91,102 L102,102 L102,156 L109,156 C115.333,156 116,156.19 116,158 C116,159.619 115.333,160 112.5,160 C110.056,160 109,160.452 109,161.5 C109,162.325 108.325,163 107.5,163 C106.667,163 106,163.889 106,165 C106,166.333 105.333,167 104,167 C102.889,167 102,167.667 102,168.5 C102,169.325 102.675,170 103.5,170 C104.333,170 105,170.889 105,172 C105,173.111 104.333,174 103.5,174 C102.675,174 102,174.675 102,175.5 C102,176.325 102.675,177 103.5,177 C104.333,177 105,177.889 105,179 C105,180.111 104.333,181 103.5,181 C102.667,181 102,181.889 102,183 C102,184.822 102.667,185 109.5,185 C115.5,185 117,185.3 117,186.5 C117,187.325 117.675,188 118.5,188 C119.333,188 120,188.889 120,190 C120,191.852 120.667,192 129,192 C137.333,192 138,191.852 138,190 C138,188.9 138.617,188 139.371,188 C140.261,188 140.975,186.246 141.406,183 C141.86,179.576 142.531,178 143.534,178 C144.518,178 145.004,176.932 145.014,174.75 C145.034,170 146.041,167 147.617,167 C148.627,167 149,165.516 149,161.5 C149,157.278 149.348,156 150.5,156 C151.325,156 152,155.325 152,154.5 C152,153.675 151.325,153 150.5,153 C149.667,153 149,152.111 149,151 C149,149.242 148.333,149 143.5,149 C139.278,149 138,149.348 138,150.5 C138,151.325 137.325,152 136.5,152 C135.675,152 135,151.347 135,150.55 C135,149.486 133.469,149.02 129.25,148.8 L123.5,148.5 L123.198,143.25 L122.895,138 L126.448,138 C129.841,138 130,137.843 130,134.5 C130,132.056 129.548,131 128.5,131 C127.258,131 127,129.111 127,120 C127,110.889 126.742,109 125.5,109 C124.262,109 124,107.167 124,98.5 C124,89.833 124.262,88 125.5,88 C126.583,88 127,86.889 127,84 C127,80.095 127.083,80 130.5,80 C132.944,80 134,79.548 134,78.5 Z M159.75,98.728 C157.335,98.981 156,99.633 156,100.56 C156,101.62 154.69,102 151.045,102 C146.175,102 146.08,102.059 145.434,105.5 C144.837,108.682 144.47,109 141.389,109 C138.102,109 138,109.12 138,113 C138,115.889 137.583,117 136.5,117 C135.452,117 135,118.056 135,120.5 C135,122.944 135.452,124 136.5,124 C137.716,124 138,125.611 138,132.5 L138,141 L150.594,141 C162.346,141 163.222,141.134 163.71,143 C164.31,145.292 167,145.738 167,143.545 C167,142.675 168.405,141.827 170.5,141.434 C172.505,141.058 174,140.184 174,139.389 C174,138.327 175.767,138 181.5,138 C187.5,138 189,137.7 189,136.5 C189,135.675 189.675,135 190.5,135 C191.325,135 192,135.675 192,136.5 C192,137.538 193.043,138 195.389,138 C198.47,138 198.837,137.682 199.434,134.5 C199.827,132.405 200.675,131 201.545,131 C202.345,131 203,130.1 203,129 C203,127.889 203.667,127 204.5,127 C205.637,127 206,125.767 206,121.906 C206,117.654 206.33,116.726 208,116.29 C209.796,115.82 210,114.926 210,107.508 L210,99.25 L206.875,98.625 C203.598,97.97 166.22,98.052 159.75,98.728 Z M63,107.5 C63,108.583 61.889,109 59,109 L55,109 L55,132.5 C55,151.842 55.245,156 56.383,156 C57.144,156 58.002,155.1 58.29,154 C58.603,152.803 59.654,152 60.906,152 C62.101,152 63,151.356 63,150.5 C63,149.284 64.611,149 71.5,149 C78.389,149 80,149.284 80,150.5 C80,151.333 80.889,152 82,152 C83.822,152 84,152.667 84,159.5 L84,167 L87.5,167 C90.333,167 91,166.619 91,165 C91,163.627 91.667,163 93.125,163 C95.163,163 95.232,162.643 94.8,154.417 C94.487,148.455 93.915,145.566 92.925,144.955 C91.8,144.261 91.434,140.387 91.186,126.538 L90.871,109 L78.436,109 C68.048,109 66,108.753 66,107.5 C66,106.675 65.325,106 64.5,106 C63.675,106 63,106.675 63,107.5 Z M130.708,43.75 C131.236,41.069 131.423,41 138.125,41 C143.569,41 145,41.312 145,42.5 C145,43.652 146.278,44 150.5,44 C155.333,44 156,44.242 156,46 C156,47.619 156.667,48 159.5,48 C162.333,48 163,48.381 163,50 C163,51.333 163.667,52 165,52 C166.111,52 167,52.667 167,53.5 C167,54.325 167.625,55 168.389,55 C170.396,55 171.255,61.095 170.455,69.642 C169.995,74.548 169.343,77 168.499,77 C167.803,77 166.986,77.947 166.683,79.105 C166.38,80.265 165.541,81.014 164.816,80.774 C163.862,80.458 163.422,77.4 163.216,69.669 L162.932,59 L159.466,59 C156.667,59 156,58.615 156,57 C156,55.381 155.333,55 152.5,55 C150.056,55 149,54.548 149,53.5 C149,52.279 147.346,52 140.117,52 L131.233,52 L130.7,49.25 C130.406,47.737 130.41,45.263 130.708,43.75 Z M69,157.5 C69,158.325 68.325,159 67.5,159 C66.333,159 66,160.333 66,165 C66,169.667 66.333,171 67.5,171 Q69,171 69,174 C69,176.333 69.444,177 71,177 C72.111,177 73,176.333 73,175.5 C73,174.667 73.889,174 75,174 C76.852,174 77,173.333 77,165 L77,156 L73,156 C70.111,156 69,156.417 69,157.5 Z"/>
</svg>

