<svg xmlns="http://www.w3.org/2000/svg" width="300" height="300" viewBox="0 0 300 300" version="1.1">
  <defs/>
  <path d="M129,50.594 C129,49.287 130.262,49 136,49 C142.333,49 143,49.19 143,51 C143,52.333 142.333,53 141,53 C139.9,53 139,53.625 139,54.389 C139,55.184 137.505,56.058 135.5,56.434 C132.059,57.08 132,57.175 132,62.045 C132,65.783 132.368,67 133.5,67 C134.325,67 135,66.381 135,65.625 C135,64.254 139.12,63 143.625,63 C145.069,63 146,62.412 146,61.5 C146,60.348 147.278,60 151.5,60 C155.5,60 157,59.625 157,58.625 C157,57.052 161.259,56 167.625,56 C170.847,56 172,55.605 172,54.5 C172,53.25 174,53 184,53 C193.503,53 196,53.286 196,54.372 C196,55.2 197.587,55.998 200,56.384 C202.588,56.798 204,57.549 204,58.512 C204,59.333 204.896,60 206,60 C207.333,60 208,60.667 208,62 C208,63.1 208.625,64 209.389,64 C210.184,64 211.058,65.495 211.434,67.5 C211.827,69.595 212.675,71 213.545,71 C214.741,71 215,73.229 215,83.5 C215,95.333 214.893,96 213,96 C211.178,96 211,96.667 211,103.5 C211,109.5 210.7,111 209.5,111 C208.379,111 207.997,112.201 207.986,115.75 C207.969,121.923 207.103,125 205.383,125 C204.39,125 204,126.41 204,130 C204,133.908 203.652,135 202.406,135 C201.53,135 200.577,135.9 200.29,137 C200.002,138.1 199.144,139 198.383,139 C197.373,139 197,140.484 197,144.5 C197,148.516 196.627,150 195.617,150 C194.856,150 193.998,150.9 193.71,152 C193.31,153.532 192.346,154 189.594,154 C186.667,154 186,153.629 186,152 C186,150.107 185.333,150 173.5,150 C163.561,150 161,150.282 161,151.375 C161,153.239 156.503,154.003 145.625,153.986 C133.167,153.968 132,153.573 132,149.383 C132,147.089 131.532,146 130.545,146 C129.675,146 128.827,144.595 128.434,142.5 C128.073,140.575 127.195,139 126.482,139 C125.532,139 125.096,136.349 124.844,129.041 C124.562,120.873 124.177,118.847 122.706,117.772 C121.038,116.555 120.932,114.385 121.206,87.16 C121.474,60.474 121.656,57.77 123.25,56.879 C124.213,56.341 125,55.3 125,54.567 C125,53.833 125.9,52.998 127,52.71 C128.1,52.423 129,51.47 129,50.594 Z M147,176.594 C147,175.439 147.964,175 150.5,175 C152.896,175 154,175.459 154,176.455 C154,177.325 155.405,178.173 157.5,178.566 C161.47,179.311 162.351,182 158.625,182 C157.319,182 154.844,182.281 153.125,182.625 C150.495,183.151 150,183.705 150,186.125 C150,188.333 150.464,189 152,189 C153.111,189 154,188.333 154,187.5 C154,186.213 157.056,186 175.5,186 C193.139,186 197,186.248 197,187.383 C197,188.899 199.968,189.965 204.25,189.986 C206.022,189.995 207,190.534 207,191.5 C207,192.333 207.889,193 209,193 C210.333,193 211,193.667 211,195 C211,196.333 211.667,197 213,197 C214.111,197 215,197.667 215,198.5 C215,199.325 215.675,200 216.5,200 C217.69,200 218,201.444 218,207 C218,212.556 217.69,214 216.5,214 C215.333,214 215,215.333 215,220 C215,225.333 214.778,226 213,226 C211.381,226 211,226.667 211,229.5 C211,231.944 210.548,233 209.5,233 C208.675,233 208,233.675 208,234.5 C208,235.333 207.111,236 206,236 C204.667,236 204,236.667 204,238 C204,239.758 203.333,240 198.5,240 C193.667,240 193,239.758 193,238 C193,236.667 193.667,236 195,236 C196.111,236 197,235.333 197,234.5 C197,233.675 197.675,233 198.5,233 C199.333,233 200,232.111 200,231 C200,229.667 200.667,229 202,229 C203.37,229 204,228.333 204,226.883 C204,225.176 203.565,224.883 201.75,225.37 C200.512,225.701 197.137,225.979 194.25,225.986 C190.256,225.997 189,226.359 189,227.5 C189,228.717 187.378,229 180.406,229 C172.654,229 171.762,229.196 171.29,231 C171.002,232.1 170.144,233 169.383,233 C168.314,233 168,234.93 168,241.5 L168,250 L174.25,250.006 C177.688,250.009 184.213,250.301 188.75,250.654 L197,251.296 L197,261 L211,261 C222.778,261 225,260.762 225,259.5 C225,258.222 227.667,258 243,258 C257.993,258 261,257.76 261,256.561 C261,254.798 268.437,253.498 272.908,254.48 C275.948,255.147 277.328,258 274.611,258 C273.816,258 272.942,259.495 272.566,261.5 C272.204,263.429 271.309,265 270.571,265 C269.835,265 268.998,265.9 268.71,267 C268.028,269.609 262.541,269.79 261.121,267.25 C260.312,265.802 258.391,265.44 249.991,265.154 C238.159,264.75 233,265.476 233,267.545 C233,268.744 230.709,269 220,269 C209.111,269 207,269.244 207,270.5 C207,271.695 205.526,272.001 199.75,272.003 C195.762,272.005 185.412,272.301 176.75,272.66 C164.557,273.166 161,273.616 161,274.657 C161,275.731 157.401,276 143,276 C128.341,276 125,276.257 125,277.383 C125,278.959 122,279.966 117.25,279.986 C114.205,279.999 114,280.221 114,283.5 C114,286.81 113.817,287 110.617,287 C108.074,287 107.103,286.503 106.71,285 C106.332,283.555 105.346,283 103.155,283 C100.335,283 100.076,282.69 99.458,278.571 C98.739,273.775 99.306,272 101.559,272 C102.352,272 103,271.365 103,270.588 C103,269.444 106.052,269.111 119.038,268.838 C131.055,268.585 135.282,268.165 135.9,267.163 C136.46,266.256 139.984,265.647 146.863,265.268 C154.448,264.85 157,264.368 157,263.355 C157,262.61 156.325,262 155.5,262 C154.417,262 154,260.889 154,258 C154,255.111 154.417,254 155.5,254 C156.325,254 157,253.325 157,252.5 C157,251.675 157.623,251 158.383,251 C160.34,251 160.971,247.791 160.986,237.75 L161,229 L150,229 L150,234.5 C150,238.516 149.627,240 148.617,240 C147.856,240 146.99,240.931 146.692,242.069 C146.258,243.729 145.494,244.075 142.826,243.819 L139.5,243.5 L139.212,234.25 C138.985,226.931 138.62,225 137.462,225 C136.658,225 136,224.325 136,223.5 C136,222.675 136.675,222 137.5,222 C138.778,222 139,219.333 139,204 C139,188.916 139.236,186 140.455,186 C141.318,186 142.169,184.614 142.549,182.592 C142.956,180.421 143.88,179.003 145.094,178.686 C146.142,178.412 147,177.47 147,176.594 Z M52.29,58 C52.69,56.468 53.654,56 56.406,56 C59.333,56 60,56.371 60,58 C60,59.667 60.667,60 64,60 C66.814,60 68,60.427 68,61.439 C68,62.489 69.895,63.066 75,63.569 C79.927,64.054 82,64.664 82,65.629 C82,66.383 82.675,67 83.5,67 C84.652,67 85,68.278 85,72.5 C85,76.722 84.652,78 83.5,78 C82.452,78 82,79.056 82,81.5 C82,84.746 82.225,85 85.094,85 C87.346,85 88.329,85.544 88.71,87 C89.103,88.503 90.074,89 92.617,89 L96,89 L96,94.5 C96,98.722 95.652,100 94.5,100 C93.675,100 93,100.675 93,101.5 C93,102.325 92.15,103 91.111,103 C89.745,103 89.041,102.033 88.566,99.5 L87.909,96 L73.955,96 C60.667,96 60,96.096 60,98 C60,99.1 59.345,100 58.545,100 C57.675,100 56.827,101.405 56.434,103.5 C56.058,105.505 55.184,107 54.389,107 C53.625,107 53,107.689 53,108.531 C53,109.374 52.337,110.317 51.527,110.628 C50.717,110.939 49.767,112.725 49.416,114.597 C49.054,116.527 48.177,118 47.389,118 C46.544,118 45.995,119.077 45.986,120.75 C45.965,125.032 44.899,128 43.383,128 C42.623,128 42,128.9 42,130 C42,131.758 42.667,132 47.5,132 C51.545,132 53,131.63 53,130.601 C53,129.604 55.005,129.002 60,128.5 C64.623,128.036 67,127.366 67,126.527 C67,125.023 83.308,124.112 97.811,124.805 C104.737,125.136 107,125.584 107,126.622 C107,127.38 107.675,128 108.5,128 C109.652,128 110,129.278 110,133.5 C110,137.722 109.652,139 108.5,139 C107.316,139 106.997,140.423 106.986,145.75 C106.97,153.848 106.241,157 104.383,157 C103.373,157 103,158.484 103,162.5 C103,166.722 102.652,168 101.5,168 C100.452,168 100,169.056 100,171.5 L100,175 L105,175 C108.55,175 110,174.605 110,173.639 C110,172.249 116.622,171.026 124.25,171.009 C126.913,171.003 128,170.565 128,169.5 C128,168.3 129.5,168 135.5,168 C141.197,168 143,167.669 143,166.625 C143,164.975 147.316,164 154.625,164 C158.582,164 160,163.628 160,162.591 C160,161.49 162.301,161.108 170.538,160.841 C178.555,160.582 181.297,160.141 182.001,159 C182.724,157.829 185.674,157.423 195.463,157.147 C206.445,156.838 208,156.993 208,158.397 C208,159.279 208.675,160 209.5,160 C210.583,160 211,161.111 211,164 C211,166.746 210.565,168 209.611,168 C208.816,168 207.942,169.495 207.566,171.5 C206.986,174.591 206.553,175 203.861,175 C201.654,175 200.668,175.552 200.29,177 C199.816,178.811 198.926,179 190.883,179 C183.654,179 182,179.279 182,180.5 C182,181.69 180.556,182 175,182 C169.444,182 168,181.69 168,180.5 C168,179.31 169.444,179 175,179 C181.333,179 182,178.81 182,177 C182,175.242 182.667,175 187.5,175 C191.516,175 193,174.627 193,173.617 C193,172.856 193.9,171.998 195,171.71 C196.1,171.423 197,170.47 197,169.594 C197,168.202 194.973,168 181,168 C167.819,168 165,168.251 165,169.425 C165,170.5 162.793,171.022 156,171.554 C149.385,172.071 147,172.621 147,173.629 C147,174.581 145.664,175 142.625,175 C136.259,175 132,176.052 132,177.625 C132,178.69 129.97,179 123,179 C114.667,179 114,179.148 114,181 C114,182.333 113.333,183 112,183 C110.889,183 110,183.667 110,184.5 C110,185.333 110.889,186 112,186 C114.731,186 114.537,188.623 111.75,189.37 C107.117,190.611 103.834,190.08 103.29,188 C102.53,185.095 96,185.095 96,188 C96,189.1 95.383,190 94.629,190 C93.739,190 93.025,191.754 92.594,195 C92.14,198.424 91.469,200 90.466,200 C89.482,200 88.996,201.068 88.986,203.25 C88.966,208 87.959,211 86.383,211 C85.623,211 85,211.9 85,213 C85,214.1 84.375,215 83.611,215 C82.816,215 81.942,216.495 81.566,218.5 C81.173,220.595 80.325,222 79.455,222 C78.655,222 78,222.623 78,223.383 C78,225.103 74.923,225.969 68.75,225.986 C65.201,225.997 64,226.379 64,227.5 C64,228.548 62.944,229 60.5,229 C58.056,229 57,228.548 57,227.5 C57,226.667 56.111,226 55,226 C53.667,226 53,225.333 53,224 C53,222.394 52.333,222 49.617,222 C47.074,222 46.103,221.503 45.71,220 C45.423,218.9 44.47,218 43.594,218 C42.717,218 42,217.325 42,216.5 C42,215.675 41.325,215 40.5,215 C39.667,215 39,214.111 39,213 C39,211.889 39.667,211 40.5,211 C41.325,211 42,210.325 42,209.5 C42,208.675 42.563,207.994 43.25,207.986 C43.938,207.979 45.513,207.701 46.75,207.37 C48.817,206.816 49,207.102 49,210.883 C49,214.921 49.067,215 52.5,215 C54.8,215 56,215.471 56,216.373 C56,217.945 62.982,218.878 69.75,218.21 C73.833,217.806 74,217.657 74,214.395 C74,211.667 74.393,211 76,211 C77.619,211 78,210.333 78,207.5 C78,205.197 78.47,204 79.375,204 C80.746,204 82,199.88 82,195.375 C82,193.931 82.588,193 83.5,193 C84.548,193 85,191.944 85,189.5 C85,186.667 85.381,186 87,186 C88.81,186 89,185.333 89,179 C89,173.444 89.31,172 90.5,172 C91.655,172 92,170.712 92,166.406 C92,161.654 92.301,160.734 94,160.29 C95.737,159.836 96,158.926 96,153.383 C96,148.603 96.349,147 97.389,147 C99.185,147 100.33,140.913 99.48,135.881 L98.824,132 L87.029,132 C76.074,132 75.196,132.143 74.71,134 C74.266,135.699 73.346,136 68.594,136 C64.288,136 63,136.345 63,137.5 C63,138.575 61.903,139 59.125,139 C53.228,139 49,140.096 49,141.625 C49,142.608 47.576,143 44,143 C40.222,143 39,143.367 39,144.5 C39,145.652 37.722,146 33.5,146 L28,146 L28,142.5 C28,140.056 28.452,139 29.5,139 C30.548,139 31,137.944 31,135.5 C31,133.187 31.469,132 32.383,132 C33.899,132 34.965,129.032 34.986,124.75 C34.995,123.055 35.542,122 36.412,122 C37.28,122 38.085,120.459 38.5,118 C38.915,115.541 39.72,114 40.588,114 C41.535,114 42,112.848 42,110.5 C42,108.197 42.47,107 43.375,107 C45.06,107 46,102.658 46,94.875 C46,90.54 46.363,89 47.383,89 C48.144,89 49.002,88.1 49.29,87 C49.726,85.33 50.654,85 54.906,85 C58.767,85 60,84.637 60,83.5 C60,82.667 60.889,82 62,82 C63.111,82 64,82.667 64,83.5 C64,84.548 65.056,85 67.5,85 C69.944,85 71,84.548 71,83.5 C71,82.675 71.619,82 72.375,82 C73.746,82 75,77.88 75,73.375 C75,71.169 74.617,71 69.617,71 C65.074,71 64.152,70.688 63.71,69 C63.255,67.26 62.346,67 56.71,67 C50.839,67 50.177,66.79 49.63,64.75 C48.689,61.238 48.885,60 50.383,60 C51.144,60 52.002,59.1 52.29,58 Z M168.75,63.681 C162.811,63.99 161,64.425 161,65.542 C161,66.643 159.652,67 155.5,67 C150.667,67 150,67.242 150,69 C150,70.733 149.333,71 145,71 C141.33,71 140,71.381 140,72.43 C140,73.217 138.988,74.005 137.75,74.18 C135.783,74.46 135.54,74.999 135.82,78.468 C136.277,84.123 135.182,89 133.455,89 C132.655,89 132,88.1 132,87 C132,85.889 131.333,85 130.5,85 C129.247,85 129,87.056 129,97.5 C129,107.944 129.247,110 130.5,110 C131.742,110 132,111.889 132,121 L132,132 L139,132 L139,137 C139,140.59 139.39,142 140.383,142 C141.899,142 142.965,139.032 142.986,134.75 C142.995,132.978 143.534,132 144.5,132 C145.689,132 146.038,130.391 146.183,124.25 C146.401,115.02 146.261,111.928 145.594,111.261 C145.322,110.989 143.052,110.535 140.549,110.253 L136,109.74 L136,104.87 C136,101.208 136.372,100 137.5,100 C138.333,100 139,99.111 139,98 C139,96.242 139.667,96 144.5,96 L150,96 L150,88.5 C150,82.604 150.311,81 151.455,81 C152.325,81 153.173,79.595 153.566,77.5 C154.136,74.459 154.602,74 157.111,74 C159.012,74 160,73.487 160,72.5 C160,71.272 161.722,71 169.5,71 C177.278,71 179,71.272 179,72.5 C179,73.325 179.675,74 180.5,74 C181.333,74 182,74.889 182,76 C182,77.619 181.333,78 178.5,78 C175.602,78 175,77.636 175,75.883 C175,74.176 174.565,73.883 172.75,74.37 C171.512,74.701 169.262,74.979 167.75,74.986 C165.978,74.995 165,75.534 165,76.5 C165,77.333 164.111,78 163,78 C161.262,78 161,78.667 161,83.094 C161,87.346 160.67,88.274 159,88.71 C156.296,89.417 156.461,91.679 159.25,92.133 C160.488,92.335 167.688,92.353 175.25,92.173 C186.319,91.909 189,91.568 189,90.423 C189,89.64 189.9,89 191,89 C192.333,89 193,88.333 193,87 C193,85.9 193.563,85.006 194.25,85.014 C197.16,85.045 200,86.331 200,87.617 C200,88.377 200.9,89 202,89 C203.852,89 204,88.333 204,80 C204,72.667 203.722,71 202.5,71 C201.675,71 201,70.283 201,69.406 C201,68.53 200.1,67.577 199,67.29 C197.9,67.002 197,66.144 197,65.383 C197,64.529 195.91,64 194.151,64 C192.584,64 187.971,63.838 183.901,63.639 C179.83,63.441 173.012,63.46 168.75,63.681 Z M197,97.383 C197,99.318 193.804,99.971 184.25,99.986 C177.859,99.997 176,100.315 176,101.397 C176,102.455 173.955,102.88 167.583,103.147 C162.953,103.341 158.851,103.815 158.465,104.201 C158.08,104.586 157.535,106.948 157.253,109.451 C156.922,112.386 156.254,114 155.37,114 C154.347,114 153.997,115.708 153.986,120.75 C153.97,128.848 153.241,132 151.383,132 C150.372,132 150,133.492 150,137.554 L150,143.107 L164.25,142.985 C172.088,142.917 180.837,142.62 183.694,142.323 C188.435,141.831 188.944,141.531 189.524,138.892 C189.873,137.301 190.798,136 191.579,136 C192.361,136 193,135.1 193,134 C193,132.667 193.667,132 195,132 C196.758,132 197,131.333 197,126.5 C197,122.278 197.348,121 198.5,121 C199.692,121 200,119.545 200,113.906 C200,107.654 200.237,106.751 202,106.29 C203.656,105.857 204,104.926 204,100.883 L204,96 L200.5,96 C198.187,96 197,96.469 197,97.383 Z M139,14.455 C139,13.26 141.222,13 151.45,13 C162.238,13 164.031,13.232 164.874,14.739 C165.643,16.113 167.543,16.555 173.924,16.845 C179.988,17.12 182,17.559 182,18.606 C182,19.373 182.9,20 184,20 C185.758,20 186,20.667 186,25.5 C186,29.526 185.628,31 184.611,31 C183.822,31 182.945,32.478 182.58,34.428 C182.06,37.196 181.366,37.98 178.968,38.507 C177.336,38.866 176,39.798 176,40.579 C176,41.361 175.1,42 174,42 C172.667,42 172,41.333 172,40 C172,38.889 172.667,38 173.5,38 C174.548,38 175,36.944 175,34.5 C175,32.056 175.452,31 176.5,31 C177.548,31 178,29.944 178,27.5 L178,24 L139,24 L139,28.883 C139,33.102 138.694,33.849 136.75,34.37 C132.993,35.376 132,35.09 132,33 C132,31.9 131.374,31 130.608,31 C128.876,31 127.753,26.831 128.589,23.5 C128.934,22.125 129.843,21 130.608,21 C131.374,21 132,20.15 132,19.111 C132,17.745 132.967,17.041 135.5,16.566 C137.595,16.173 139,15.325 139,14.455 Z M190,198.5 C190,199.325 190.675,200 191.5,200 C192.333,200 193,200.889 193,202 C193,203.333 192.333,204 191,204 C189.9,204 189,203.377 189,202.617 C189,200.932 185.942,200.032 180.156,200.014 C176.647,200.003 175.712,200.384 175.29,202 C175.002,203.1 174.2,204 173.508,204 C172.084,204 171,208.376 171,214.125 L171,218 L184,218 C194.889,218 197,217.756 197,216.5 C197,215.667 197.889,215 199,215 C200.111,215 201,214.333 201,213.5 C201,212.675 201.675,212 202.5,212 C203.325,212 204,212.708 204,213.573 C204,214.532 204.684,215.017 205.75,214.814 C207.103,214.557 207.569,213.291 207.802,209.241 C208.074,204.524 207.899,204 206.052,204 C204.667,204 204,203.35 204,202 C204,200.381 203.333,200 200.5,200 C198.056,200 197,199.548 197,198.5 C197,197.452 195.944,197 193.5,197 C191.056,197 190,197.452 190,198.5 Z M154,198.594 C154,199.47 153.1,200.423 152,200.71 C150.201,201.181 150,202.074 150,209.617 L150,218 L161,218 L161,211 C161,205.444 161.31,204 162.5,204 C163.333,204 164,203.111 164,202 C164,200.667 164.667,200 166,200 C167.111,200 168,199.333 168,198.5 C168,197.31 166.556,197 161,197 C155.262,197 154,197.287 154,198.594 Z M168,259.455 C168,260.325 166.595,261.173 164.5,261.566 C162.495,261.942 161,262.816 161,263.611 C161,264.693 162.987,265 170,265 C177.333,265 179,264.722 179,263.5 C179,262.367 180.222,262 184,262 C188.333,262 189,261.733 189,260 C189,258.127 188.333,258 178.5,258 C169.979,258 168,258.274 168,259.455 Z"/>
</svg>

