<svg xmlns="http://www.w3.org/2000/svg" width="300" height="300" viewBox="0 0 300 300" version="1.1">
  <defs/>
  <path d="M225.75,74.728 C227.813,74.513 229.95,74.267 230.5,74.182 C235.397,73.425 237.74,77.66 236.496,85.022 L235.824,89 L218.412,89 C204.083,89 201,89.25 201,90.412 C201,91.28 199.459,92.085 197,92.5 C193.404,93.108 193,93.47 193,96.088 C193,97.889 192.477,99 191.628,99 C190.8,99 190.002,100.587 189.616,103 C189.202,105.588 188.451,107 187.488,107 C186.454,107 186,108.068 186,110.5 C186,112.798 185.529,114 184.629,114 C183.621,114 183.071,116.385 182.554,123 C182.022,129.793 181.5,132 180.425,132 C179.327,132 179,133.608 179,139 L179,146 L187.25,146.014 C196.804,146.029 200,146.682 200,148.617 C200,149.663 201.707,150 207,150 C212.362,150 214,150.33 214,151.412 C214,152.28 215.541,153.085 218,153.5 C220.459,153.915 222,154.72 222,155.588 C222,156.365 222.9,157 224,157 C225.333,157 226,157.667 226,159 C226,160.333 226.667,161 228,161 C229.1,161 230,161.639 230,162.421 C230,163.202 231.35,164.138 233,164.5 C235.524,165.054 236,165.637 236,168.173 C236,170.346 236.558,171.333 238,171.71 C239.503,172.103 240,173.074 240,175.617 C240,177.831 240.478,179 241.383,179 C243.241,179 243.97,182.152 243.986,190.25 C243.997,195.577 244.316,197 245.5,197 C246.69,197 247,198.444 247,204 C247,209.556 246.69,211 245.5,211 C244.316,211 243.997,212.423 243.986,217.75 C243.97,225.848 243.241,229 241.383,229 C240.469,229 240,230.187 240,232.5 C240,235.036 239.561,236 238.406,236 C237.53,236 236.577,236.9 236.29,238 C236.002,239.1 235.144,240 234.383,240 C233.623,240 233,240.67 233,241.488 C233,242.451 231.588,243.202 229,243.616 C226.587,244.002 225,244.8 225,245.628 C225,246.682 223.055,247 216.617,247 C209.074,247 208.181,246.799 207.71,245 C207.423,243.9 206.47,243 205.594,243 C204.717,243 204,242.325 204,241.5 C204,240.667 203.111,240 202,240 C200.9,240 200,239.345 200,238.545 C200,237.675 198.595,236.827 196.5,236.434 C193.318,235.837 193,235.47 193,232.389 C193,229.166 193.176,229 196.594,229 C199.346,229 200.31,229.468 200.71,231 C200.998,232.1 201.856,233 202.617,233 C203.377,233 204,233.628 204,234.395 C204,236.125 209.931,236.824 219.25,236.19 C224.064,235.863 226,235.34 226,234.366 C226,233.615 226.675,233 227.5,233 C228.333,233 229,232.111 229,231 C229,229.667 229.667,229 231,229 C232.619,229 233,228.333 233,225.5 C233,223.056 233.452,222 234.5,222 C235.778,222 236,219.333 236,204 C236,189.426 235.739,186 234.63,186 C233.742,186 233.076,184.365 232.736,181.349 C232.42,178.551 231.572,176.34 230.606,175.799 C229.723,175.305 229,174.3 229,173.567 C229,172.833 228.1,171.998 227,171.71 C225.9,171.423 225,170.47 225,169.594 C225,168.49 224.078,168 222,168 C219.922,168 219,167.51 219,166.406 C219,165.53 218.1,164.577 217,164.29 C215.9,164.002 215,163.144 215,162.383 C215,161.373 213.516,161 209.5,161 C204.667,161 204,160.758 204,159 C204,157.107 203.333,157 191.56,157 L179.121,157 L178.81,160.75 C178.529,164.156 178.208,164.528 175.317,164.808 C172.711,165.061 172.016,165.651 171.487,168.058 C171.132,169.676 170.202,171 169.421,171 C168.43,171 168,172.211 168,175 C168,177.782 167.569,179 166.585,179 C165.554,179 164.98,181.032 164.468,186.5 C163.964,191.878 163.374,194 162.383,194 C161.355,194 160.996,195.604 160.986,200.25 C160.97,207.865 160.21,211 158.383,211 C156.885,211 156.689,212.238 157.63,215.75 C157.962,216.987 158.856,218 159.617,218 C160.564,218 161,219.261 161,222 C161,224.889 160.583,226 159.5,226 C158.675,226 158,226.648 158,227.441 C158,229.53 156.62,230.074 153.103,229.371 L150,228.75 L150,214.875 C150,203.769 150.274,201 151.375,201 C152.804,201 154,196.841 154,191.875 C154,189.986 154.514,189 155.5,189 C156.69,189 157,187.556 157,182 C157,176.707 157.337,175 158.383,175 C159.959,175 160.966,172 160.986,167.25 C160.996,165.034 161.477,164 162.5,164 C163.575,164 164,162.903 164,160.125 C164,154.228 165.096,150 166.625,150 C167.661,150 168,148.273 168,143 C168,137.727 168.339,136 169.375,136 C170.948,136 172,131.741 172,125.375 C172,122.153 172.395,121 173.5,121 C174.621,121 175.003,119.799 175.014,116.25 C175.031,110.077 175.897,107 177.617,107 C178.564,107 179,105.739 179,103 C179,100.111 179.417,99 180.5,99 C181.325,99 182,98.325 182,97.5 C182,96.667 182.889,96 184,96 C185.619,96 186,95.333 186,92.5 L186,89 L179,89 C173.786,89 172,89.345 172,90.352 C172,91.783 161.673,92.982 149.25,92.994 C144.364,92.999 143,93.327 143,94.5 C143,95.728 141.278,96 133.5,96 C126.051,96 124,96.3 124,97.392 C124,98.895 119.516,100.437 117.954,99.472 C117.429,99.147 117,98.234 117,97.441 C117,96.648 116.325,96 115.5,96 C112.413,96 114.05,93.081 117.5,92.434 C119.425,92.073 121,91.215 121,90.528 C121,89.769 123.03,89.038 126.175,88.666 C129.021,88.329 131.703,87.478 132.136,86.776 C132.698,85.866 136.948,85.407 146.962,85.174 C158.29,84.912 161,84.574 161,83.424 C161,81.994 161.614,81.904 173.5,81.587 C187.502,81.214 189,81.012 189,79.5 C189,78.227 191.5,78 205.5,78 C219.193,78 222,77.755 222,76.56 C222,75.633 223.335,74.981 225.75,74.728 Z M132,101.389 C132,100.372 133.474,100 137.5,100 C141.722,100 143,100.348 143,101.5 C143,102.325 143.675,103 144.5,103 C145.548,103 146,104.056 146,106.5 L146,110 L141.25,110.014 C135.077,110.031 132,110.897 132,112.617 C132,113.377 131.1,114 130,114 C128.9,114 128,114.655 128,115.455 C128,116.325 126.595,117.173 124.5,117.566 C122.495,117.942 121,118.816 121,119.611 C121,120.375 120.375,121 119.611,121 C118.816,121 117.942,122.495 117.566,124.5 C117.173,126.595 116.325,128 115.455,128 C114.655,128 114,128.9 114,130 C114,131.1 113.345,132 112.545,132 C111.675,132 110.827,133.405 110.434,135.5 C110.058,137.505 109.184,139 108.389,139 C107.625,139 107,139.9 107,141 C107,142.333 106.333,143 105,143 C103.381,143 103,143.667 103,146.5 C103,149.333 102.619,150 101,150 C99.889,150 99,150.667 99,151.5 C99,152.325 98.325,153 97.5,153 C95.182,153 95.705,156.69 98.112,157.319 C100.11,157.841 100.21,158.425 99.971,168.186 C99.833,173.859 99.782,184.238 99.86,191.25 C99.976,201.854 100.252,204 101.5,204 C102.548,204 103,205.056 103,207.5 C103,210.833 103.167,211 106.5,211 C108.944,211 110,210.548 110,209.5 C110,208.667 110.889,208 112,208 C113.333,208 114,207.333 114,206 C114,203.136 116.664,203.526 117.411,206.5 C118.247,209.831 117.124,214 115.392,214 C114.626,214 114,214.85 114,215.889 C114,217.255 113.033,217.959 110.5,218.434 C108.405,218.827 107,219.675 107,220.545 C107,221.541 105.896,222 103.5,222 C100.964,222 100,221.561 100,220.406 C100,219.53 99.1,218.577 98,218.29 C96.893,218 96,216.926 96,215.883 C96,214.848 95.388,214 94.639,214 C93.042,214 92.022,207.119 92.009,196.25 C92.002,190.476 91.695,189 90.5,189 C89.27,189 88.998,187.244 88.986,179.25 C88.979,173.887 88.701,168.488 88.37,167.25 C87.693,164.725 86,164.189 86,166.5 C86,167.325 85.15,168 84.111,168 C82.745,168 82.041,168.967 81.566,171.5 C81.173,173.595 80.325,175 79.455,175 C78.655,175 78,175.9 78,177 C78,178.333 77.333,179 76,179 C74.889,179 74,179.667 74,180.5 C74,181.325 73.325,182 72.5,182 C71.667,182 71,182.889 71,184 C71,185.333 70.333,186 69,186 C67.667,186 67,186.667 67,188 C67,189.1 67.623,190 68.383,190 C69.144,190 70.038,191.012 70.37,192.25 C71.629,196.95 71.404,197.104 63.761,196.794 C57.644,196.546 56.466,196.213 56.168,194.65 C55.541,191.366 57.016,186 58.545,186 C59.345,186 60,185.1 60,184 C60,182.667 60.667,182 62,182 C63.111,182 64,181.333 64,180.5 C64,179.675 64.675,179 65.5,179 C66.333,179 67,178.111 67,177 C67,175.9 67.623,175 68.383,175 C69.144,175 70.002,174.1 70.29,173 C70.577,171.9 71.494,171 72.327,171 C73.189,171 74.119,169.736 74.486,168.065 C74.968,165.87 75.862,164.97 78.033,164.493 C80.36,163.982 81.064,163.175 81.58,160.428 C81.945,158.478 82.822,157 83.611,157 C84.375,157 85,156.377 85,155.617 C85,154.856 85.9,153.998 87,153.71 C88.1,153.423 89,152.47 89,151.594 C89,150.717 89.625,150 90.389,150 C91.184,150 92.058,148.505 92.434,146.5 C92.827,144.405 93.675,143 94.545,143 C95.345,143 96,142.1 96,141 C96,139.9 96.655,139 97.455,139 C98.325,139 99.173,137.595 99.566,135.5 C99.942,133.495 100.816,132 101.611,132 C102.375,132 103,131.1 103,130 C103,128.667 103.667,128 105,128 C106.333,128 107,127.333 107,126 C107,124.889 107.667,124 108.5,124 Q110,124 110,121 C110,118.667 110.444,118 112,118 C113.333,118 114,117.333 114,116 C114,114.667 114.667,114 116,114 C117.333,114 118,113.333 118,112 C118,110.889 118.667,110 119.5,110 C120.325,110 121,109.325 121,108.5 C121,107.667 121.889,107 123,107 C124.1,107 125,106.345 125,105.545 C125,104.675 126.405,103.827 128.5,103.434 C130.505,103.058 132,102.184 132,101.389 Z M96.302,81.73 C98.611,81.521 101.063,81.271 101.75,81.175 C102.571,81.06 103,82.373 103,85 C103,88.905 102.917,89 99.5,89 C97.187,89 96,89.469 96,90.383 C96,91.144 95.1,92.002 94,92.29 C92.544,92.671 92,93.654 92,95.906 C92,97.99 91.51,99 90.5,99 C89.667,99 89,99.889 89,101 C89,102.333 88.333,103 87,103 C85.667,103 85,103.667 85,105 C85,106.1 84.375,107 83.611,107 C82.816,107 81.942,108.495 81.566,110.5 C81.173,112.595 80.325,114 79.455,114 C78.655,114 78,114.9 78,116 C78,117.1 77.345,118 76.545,118 C75.675,118 74.827,119.405 74.434,121.5 C74.058,123.505 73.184,125 72.389,125 C71.393,125 71,126.383 71,129.883 C71,133.98 71.333,134.854 73.069,135.308 C74.729,135.742 75.075,136.506 74.819,139.174 L74.5,142.5 L67.25,142.794 L60,143.088 L60,134.044 C60,126.672 60.277,125 61.5,125 C62.325,125 63,124.283 63,123.406 C63,122.53 63.9,121.577 65,121.29 C66.503,120.897 67,119.926 67,117.383 C67,114.667 67.394,114 69,114 C70.333,114 71,113.333 71,112 C71,110.9 71.625,110 72.389,110 C73.184,110 74.058,108.505 74.434,106.5 C74.827,104.405 75.675,103 76.545,103 C77.345,103 78,102.1 78,101 C78,99.9 78.639,99 79.421,99 C80.202,99 81.138,97.65 81.5,96 C81.862,94.35 82.798,93 83.579,93 C84.361,93 85,92.1 85,91 C85,89.667 85.667,89 87,89 C88.333,89 89,88.333 89,87 C89,85.633 89.667,85 91.107,85 C92.533,85 93.035,84.533 92.659,83.555 C92.242,82.467 93.144,82.016 96.302,81.73 Z M175,54.5 C175,53.247 177.043,53 187.389,53 L199.777,53 L200.434,56.5 C200.795,58.425 200.795,61.575 200.434,63.5 C199.837,66.682 199.47,67 196.389,67 C193.183,67 193,66.811 193,63.5 C193,60.167 192.833,60 189.5,60 C187.149,60 186,60.465 186,61.415 C186,62.446 183.968,63.02 178.5,63.532 C173.122,64.036 171,64.626 171,65.617 C171,66.686 169.068,67 162.5,67 C154.667,67 154,67.157 154,69 C154,70.333 153.333,71 152,71 C150.667,71 150,71.667 150,73 C150,75.09 149.007,75.376 145.25,74.37 C143.31,73.85 143,73.101 143,68.929 C143,64.191 143.073,64.077 146.5,63.434 C148.505,63.058 150,62.184 150,61.389 C150,60.372 151.474,60 155.5,60 C159.516,60 161,59.627 161,58.617 C161,56.897 164.077,56.031 170.25,56.014 C173.799,56.003 175,55.621 175,54.5 Z"/>
</svg>

