<svg xmlns="http://www.w3.org/2000/svg" width="300" height="300" viewBox="0 0 300 300" version="1.1">
  <defs/>
  <path d="M214,61.375 C214,60.274 216.788,60 228,60 C239.279,60 242,60.27 242,61.389 C242,62.184 243.495,63.058 245.5,63.434 C247.595,63.827 249,64.675 249,65.545 C249,66.345 249.9,67 251,67 C252.163,67 253,67.667 253,68.594 C253,69.47 253.9,70.423 255,70.71 C256.1,70.998 257,71.856 257,72.617 C257,73.377 257.647,74 258.439,74 C260.796,74 261.35,81.846 260.678,105.75 C260.069,127.444 260.103,128 262.027,128 C263.662,128 264,128.685 264,132 C264,134.739 263.564,136 262.617,136 C260.433,136 260.028,139.348 260.018,157.5 C260.003,183.472 261.028,200 262.654,200 C263.662,200 264,201.882 264,207.5 C264,213.197 264.331,215 265.375,215 C267.025,215 268,219.316 268,226.625 C268,230.736 268.353,232 269.5,232 C270.698,232 271,233.487 271,239.383 C271,245.926 270.772,246.826 269,247.29 C267.9,247.577 267,248.53 267,249.406 C267,250.495 266.089,251 264.125,251 C261.705,251 261.151,250.505 260.625,247.875 C260.281,246.156 260,243.681 260,242.375 C260,241.019 259.406,240 258.616,240 C257.621,240 257.115,238.15 256.813,233.4 C256.503,228.538 255.945,226.549 254.696,225.85 C253.202,225.014 253,222.819 253,207.45 C253,192.606 252.776,190 251.5,190 C250.206,190 250,186.5 250,164.5 L250,139 L246.406,139 C243.654,139 242.69,139.468 242.29,141 C241.831,142.756 240.926,143 234.883,143 C229.677,143 228,143.338 228,144.389 C228,145.184 226.505,146.058 224.5,146.434 C222.405,146.827 221,147.675 221,148.545 C221,149.345 220.1,150 219,150 C217.9,150 217,150.623 217,151.383 C217,152.959 214,153.966 209.25,153.986 L206,154 L206,166.5 C206,176.944 205.753,179 204.5,179 C203.348,179 203,180.278 203,184.5 C203,188.722 203.348,190 204.5,190 C205.69,190 206,191.444 206,197 C206,203.333 205.81,204 204,204 C202.889,204 202,204.667 202,205.5 C202,206.325 201.325,207 200.5,207 C199.675,207 199,206.325 199,205.5 C199,204.632 198.095,204 196.852,204 C194.776,204 194.725,203.722 195.346,195.75 C195.699,191.213 195.991,177.488 195.994,165.25 C195.999,146.142 196.212,143 197.5,143 C198.807,143 199,138.111 199,105 C199,67.667 199.035,67 201,67 C202.111,67 203,66.333 203,65.5 C203,64.588 203.931,64 205.375,64 C209.88,64 214,62.746 214,61.375 Z M102,54.448 L102,48.895 L107.25,49.198 L112.5,49.5 L112.802,54.75 C113.007,58.314 113.534,60 114.441,60 C115.177,60 116.073,61.573 116.434,63.5 C116.827,65.595 117.675,67 118.545,67 C119.363,67 120,67.933 120,69.13 C120,71.073 120.408,71.214 124.651,70.736 C127.449,70.42 129.66,69.572 130.201,68.606 C130.695,67.723 131.752,67 132.55,67 C133.347,67 134,66.283 134,65.406 C134,64.53 134.9,63.577 136,63.29 C137.1,63.002 138,62.144 138,61.383 C138,60.623 138.675,60 139.5,60 C140.333,60 141,59.111 141,58 C141,56.667 141.667,56 143,56 C144.111,56 145,55.333 145,54.5 C145,53.667 145.889,53 147,53 C148.1,53 149,52.377 149,51.617 C149,49.897 152.077,49.031 158.25,49.014 L163,49 L163,53 C163,55.889 162.583,57 161.5,57 C160.675,57 160,57.675 160,58.5 C160,59.648 158.735,60 154.617,60 C150.074,60 149.152,60.312 148.71,62 C148.329,63.456 147.346,64 145.094,64 C142.389,64 141.998,64.346 141.986,66.75 C141.961,71.866 140.912,73.86 137.898,74.522 C136.304,74.872 135,75.798 135,76.579 C135,77.361 134.1,78 133,78 C131.667,78 131,78.667 131,80 C131,81.619 130.333,82 127.5,82 C125.056,82 124,82.452 124,83.5 C124,84.333 123.111,85 122,85 C120.667,85 120,85.667 120,87 C120,88.804 120.662,88.999 126.75,88.986 C134.943,88.97 138,88.24 138,86.3 C138,85.073 139.973,84.887 150.038,85.166 C157.128,85.363 162.369,85.941 162.788,86.573 C163.18,87.163 164.287,87.936 165.25,88.292 C166.464,88.74 167,90.018 167,92.469 C167,95.922 166.912,96 163,96 C160.111,96 159,95.583 159,94.5 C159,93.278 157.333,93 150,93 C142.667,93 141,93.278 141,94.5 C141,95.716 139.389,96 132.5,96 C125.846,96 124,96.307 124,97.412 C124,98.28 122.459,99.085 120,99.5 C117.541,99.915 116,100.72 116,101.588 C116,102.365 115.325,103 114.5,103 C113.348,103 113,104.278 113,108.5 C113,113.333 112.758,114 111,114 C109.667,114 109,114.667 109,116 C109,117.111 108.333,118 107.5,118 C106.534,118 105.995,118.978 105.986,120.75 C105.965,125.032 104.899,128 103.383,128 C102.469,128 102,129.187 102,131.5 C102,133.848 101.535,135 100.588,135 C99.72,135 98.915,136.541 98.5,139 C98.085,141.459 97.28,143 96.412,143 C95.635,143 95,143.616 95,144.37 C95,146.237 101.983,146.922 114.17,146.251 C121.505,145.847 124,145.365 124,144.355 C124,143.61 124.675,143 125.5,143 C126.783,143 127,140.111 127,123 C127,103.667 127.067,103 129,103 C130.1,103 131,102.374 131,101.608 C131,99.897 135.156,98.75 138.406,99.566 C142.306,100.545 143.751,110 140,110 C138.092,110 138,110.667 138,124.5 L138,139 L143.5,139 C147.722,139 149,138.652 149,137.5 C149,136.534 149.978,135.995 151.75,135.986 C156.032,135.965 159,134.899 159,133.383 C159,132.623 159.9,132 161,132 C162.806,132 163,131.333 163,125.125 L163,118.25 L166.125,117.625 C173.08,116.234 174,116.628 174,121 C174,123.707 174.44,125 175.361,125 C176.751,125 177.974,131.622 177.991,139.25 C177.998,142.336 177.646,143 176,143 C174.381,143 174,143.667 174,146.5 C174,149.917 173.905,150 170,150 L166,150 L166,145 C166,140.111 165.933,140 163,140 Q160,140 160,141.5 C160,142.548 158.944,143 156.5,143 C154.197,143 153,143.47 153,144.375 C153,145.746 148.88,147 144.375,147 C142.931,147 142,147.588 142,148.5 C142,149.333 141.111,150 140,150 C138.242,150 138,150.667 138,155.5 C138,159.722 137.652,161 136.5,161 C135.247,161 135,163.056 135,173.5 C135,183.944 135.247,186 136.5,186 C137.765,186 138,188.292 138,200.625 L138,215.25 L140.851,214.68 C142.42,214.366 144.67,214.362 145.851,214.671 C148.279,215.306 148.804,218 146.5,218 C145.667,218 145,218.889 145,220 C145,221.758 144.333,222 139.5,222 C135.278,222 134,221.652 134,220.5 C134,219.675 133.385,219 132.634,219 C131.656,219 131.124,216.983 130.76,211.887 C130.438,207.395 129.744,204.46 128.875,203.924 C127.782,203.25 127.438,198.038 127.2,178.538 L126.901,154 L119.95,154 C114.439,154 113,154.311 113,155.5 C113,156.742 111.111,157 102,157 C92.889,157 91,156.742 91,155.5 C91,154.452 89.944,154 87.5,154 C84.083,154 84,153.905 84,150 C84,147.153 84.422,146 85.466,146 C86.469,146 87.14,144.424 87.594,141 C88.025,137.754 88.739,136 89.629,136 C90.532,136 91,134.793 91,132.469 C91,130.281 91.56,128.722 92.473,128.372 C93.283,128.061 94.233,126.275 94.584,124.403 C94.946,122.473 95.823,121 96.611,121 C97.614,121 98,119.586 98,115.906 C98,111.654 98.33,110.726 100,110.29 C101.417,109.919 102,108.926 102,106.883 C102,104.255 101.691,104 98.5,104 C96.056,104 95,104.452 95,105.5 C95,106.652 93.722,107 89.5,107 C84.667,107 84,106.758 84,105 C84,103.889 83.333,103 82.5,103 C81.675,103 81,102.325 81,101.5 C81,100.675 81.675,100 82.5,100 C83.333,100 84,99.111 84,98 C84,96.381 84.667,96 87.5,96 C90.333,96 91,95.619 91,94 C91,92.242 91.667,92 96.5,92 C100.722,92 102,91.652 102,90.5 C102,89.452 103.056,89 105.5,89 C108.333,89 109,88.619 109,87 C109,85.667 109.667,85 111,85 C112.111,85 113,84.333 113,83.5 C113,82.675 113.675,82 114.5,82 C115.333,82 116,81.111 116,80 C116,78.889 115.333,78 114.5,78 C113.667,78 113,77.111 113,76 C113,74.667 112.333,74 111,74 C109.381,74 109,73.333 109,70.5 C109,68.18 108.532,67 107.611,67 C106.816,67 105.942,65.505 105.566,63.5 C105.173,61.405 104.325,60 103.455,60 C102.356,60 102,58.64 102,54.448 Z M224.37,68.479 C224.031,69.361 221.827,70.219 218.901,70.607 C216.206,70.965 213.994,71.762 213.986,72.379 C213.979,72.995 213.701,74.513 213.37,75.75 C212.883,77.565 213.176,78 214.883,78 C216.636,78 217,78.602 217,81.5 C217,84.833 216.833,85 213.5,85 L210,85 L210,97.5 C210,107.65 209.732,110 208.576,110 C207.425,110 207.088,112.74 206.821,124.25 C206.64,132.088 206.658,139.287 206.862,140.25 C207.341,142.508 213,142.739 213,140.5 C213,139.417 214.111,139 217,139 C219.76,139 221,138.566 221,137.601 C221,136.604 223.005,136.002 228,135.5 C232.995,134.998 235,134.396 235,133.399 C235,132.37 236.455,132 240.5,132 C244.516,132 246,131.627 246,130.617 C246,129.856 246.9,128.998 248,128.71 C249.866,128.222 250,127.346 250,115.594 C250,105.066 250.246,103 251.5,103 C252.548,103 253,101.944 253,99.5 C253,97.056 252.548,96 251.5,96 C250.337,96 250,94.681 250,90.125 C250,82.342 249.06,78 247.375,78 C246.619,78 246,77.1 246,76 C246,74.889 245.333,74 244.5,74 C243.675,74 243,73.325 243,72.5 C243,71.417 241.889,71 239,71 C236.261,71 235,70.564 235,69.617 C235,66.964 225.348,65.931 224.37,68.479 Z M48,140.973 C48,139.018 48.511,138.955 62.25,139.223 L76.5,139.5 L76.813,142.75 C77,144.689 77.681,146 78.502,146 C79.361,146 80.126,147.654 80.538,150.408 C81.408,156.205 80.333,161.005 78.171,160.985 C75.083,160.956 73.785,159.275 73.261,154.624 C72.924,151.629 72.257,150 71.37,150 C70.616,150 70,149.325 70,148.5 C70,147.348 68.722,147 64.5,147 C60.278,147 59,147.348 59,148.5 C59,149.688 57.569,150 52.125,150 L45.25,150 L44.625,153.125 C44.281,154.844 44,157.319 44,158.625 C44,161.524 42.041,161.696 39.732,159 C38.548,157.617 36.782,157 34.01,157 C30.094,157 30,156.918 30,153.5 C30,151.187 30.469,150 31.383,150 C32.144,150 33.002,149.1 33.29,148 C33.603,146.803 34.654,146 35.906,146 C37.101,146 38,145.356 38,144.5 C38,143.367 39.222,143 43,143 C47.356,143 48,142.739 48,140.973 Z M67.75,175.689 C68.713,175.438 73.662,175.18 78.75,175.116 C87.372,175.008 88,175.136 88,177 C88,178.619 87.333,179 84.5,179 C82.109,179 81,179.459 81,180.45 C81,181.481 79.263,182.097 75,182.58 C70.915,183.042 69,183.696 69,184.629 C69,185.608 67.568,186 64,186 C60.424,186 59,186.392 59,187.375 C59,188.746 54.88,190 50.375,190 C48.931,190 48,190.588 48,191.5 C48,192.333 47.111,193 46,193 C44.667,193 44,193.667 44,195 C44,196.111 43.333,197 42.5,197 C41.675,197 41,197.675 41,198.5 C41,199.548 39.944,200 37.5,200 C35.056,200 34,199.548 34,198.5 C34,197.667 33.111,197 32,197 C30.381,197 30,196.333 30,193.5 C30,190.964 30.439,190 31.594,190 C32.47,190 33.423,189.1 33.71,188 C34.103,186.497 35.074,186 37.617,186 C40.333,186 41,185.606 41,184 C41,182.242 41.667,182 46.5,182 C50.722,182 52,181.652 52,180.5 C52,179.31 53.444,179 59,179 C64.396,179 66,178.673 66,177.573 C66,176.789 66.787,175.941 67.75,175.689 Z M42.75,99.678 C43.712,99.42 48.325,99.356 53,99.535 C57.675,99.714 63.188,99.892 65.25,99.93 C67.886,99.979 69,100.446 69,101.5 C69,102.583 70.111,103 73,103 C76.333,103 77,103.333 77,105 C77,106.1 77.625,107 78.389,107 C80.154,107 81.3,112.884 80.434,117.5 C79.806,120.849 77,122.578 77,119.617 C77,118.856 76.1,117.998 75,117.71 C73.569,117.336 73,116.346 73,114.233 C73,111.416 72.756,111.249 67.75,110.648 C64.862,110.301 60.138,110.013 57.25,110.009 L52,110 L52,113.5 C52,116.333 51.619,117 50,117 C48.889,117 48,116.333 48,115.5 C48,114.462 46.957,114 44.611,114 C41.53,114 41.163,113.682 40.566,110.5 C40.205,108.575 39.48,107 38.955,107 C37.416,107 37.859,104.268 39.5,103.638 C40.325,103.322 41,102.407 41,101.605 C41,100.803 41.788,99.936 42.75,99.678 Z M218,101.5 C218,100.321 219.389,100 224.5,100 C229.611,100 231,100.321 231,101.5 C231,102.583 232.111,103 235,103 C238.333,103 239,103.333 239,105 C239,106.111 239.667,107 240.5,107 C241.652,107 242,108.278 242,112.5 C242,116.722 241.652,118 240.5,118 C239.367,118 239,119.222 239,123 C239,127.333 238.733,128 237,128 C235.19,128 235,127.333 235,121 C235,115.444 234.69,114 233.5,114 C232.675,114 232,113.325 232,112.5 C232,111.462 230.957,111 228.617,111 C224.998,111 224.042,112.505 224.014,118.25 C224.005,120.022 223.466,121 222.5,121 C221.667,121 221,120.111 221,119 C221,117.889 220.333,117 219.5,117 C218.675,117 218,116.325 218,115.5 C218,114.675 217.149,114 216.108,114 C213.84,114 212.747,110.515 213.63,106.098 C214.059,103.956 214.829,103 216.125,103 C217.156,103 218,102.325 218,101.5 Z"/>
</svg>

