<svg xmlns="http://www.w3.org/2000/svg" width="300" height="300" viewBox="0 0 300 300" version="1.1">
  <defs/>
  <path d="M123.5,12 C122.031,11.369 122.894,11.122 126.75,11.07 C130.597,11.019 132,11.371 132,12.389 C132,13.184 133.495,14.058 135.5,14.434 C137.595,14.827 139,15.675 139,16.545 C139,17.345 139.9,18 141,18 C142.111,18 143,18.667 143,19.5 C143,20.325 143.619,21 144.375,21 C146.092,21 147,25.366 147,33.625 C147,38.625 147.324,40 148.5,40 C149.325,40 150,40.675 150,41.5 C150,42.325 150.338,42.947 150.75,42.882 C153.501,42.447 154,43.31 154,48.5 C154,52.722 154.348,54 155.5,54 C156.605,54 157,55.153 157,58.375 C157,64.197 155.966,69.097 154.878,68.425 C154.395,68.126 154,68.809 154,69.941 C154,71.715 154.624,72 158.5,72 C161.739,72 163,72.401 163,73.433 C163,74.221 163.9,75.151 165,75.5 C166.677,76.032 167,77.013 167,81.567 C167,85.654 166.64,87 165.545,87 C164.675,87 163.827,88.405 163.434,90.5 C162.831,93.714 162.489,94 159.251,94 L155.725,94 L157.017,83 L153.009,83 C150.112,83 149,83.416 149,84.5 C149,85.637 147.767,86 143.906,86 C139.654,86 138.726,86.33 138.29,88 C137.919,89.417 136.926,90 134.883,90 C133.061,90 132,90.522 132,91.418 C132,92.198 131.75,93.489 131.443,94.287 C131.096,95.193 131.658,95.939 132.943,96.275 C134.712,96.738 135,97.602 135,102.457 L135,108.101 L140,107.8 C143.98,107.561 145,107.143 145,105.75 C145,104.248 146.005,104 152.094,104 C158.346,104 159.249,104.237 159.71,106 C159.998,107.1 160.856,108 161.617,108 C162.711,108 163,110.301 163,119 C163,128.111 162.742,130 161.5,130 C160.675,130 160,130.675 160,131.5 C160,132.333 159.111,133 158,133 C156.667,133 156,133.667 156,135 C156,136.333 155.333,137 154,137 C152.381,137 152,137.667 152,140.5 C152,142.944 152.452,144 153.5,144 C154.652,144 155,145.278 155,149.5 C155,152.525 154.55,155 154,155 C153.45,155 153,155.675 153,156.5 C153,157.679 154.389,158 159.5,158 C165.333,158 166,158.205 166,160 C166,161.607 166.667,162 169.389,162 C172.451,162 172.839,162.327 173.416,165.403 C173.767,167.275 174.732,169.067 175.56,169.385 C177.161,169.999 177.273,172.152 176.329,184.217 C175.993,188.509 175.388,190.856 174.652,190.717 C173.99,190.593 173.368,192.097 173.19,194.25 C172.992,196.642 172.374,198 171.485,198 C170.689,198 169.815,199.471 169.447,201.431 C169.093,203.318 168.215,205.087 167.496,205.363 C166.777,205.639 165.878,207.277 165.499,209.003 C165.031,211.133 164.359,211.968 163.405,211.602 C162.632,211.305 162,211.499 162,212.031 C162,212.564 161.374,213 160.608,213 C159.105,213 157.563,217.484 158.528,219.046 C158.853,219.571 159.766,220 160.559,220 C161.352,220 162,220.675 162,221.5 C162,222.325 162.675,223 163.5,223 C164.333,223 165,223.889 165,225 C165,226.111 164.333,227 163.5,227 C162.447,227 162,228.064 162,230.573 C162,233.438 161.653,234.08 160.25,233.81 C159.287,233.624 158.651,233.079 158.835,232.598 C159.522,230.807 156.298,230.092 148.583,230.325 C143.539,230.477 140.501,230.996 140.25,231.75 C140.032,232.403 138.343,233.22 136.496,233.567 C134.65,233.913 132.896,234.827 132.601,235.598 C132.238,236.544 130.424,237 127.031,237 L122,237 L122,248 L125.531,248 C127.61,248 129.28,247.433 129.592,246.621 C129.888,245.851 132.288,244.954 135.028,244.591 C137.726,244.233 140.287,243.347 140.717,242.622 C141.148,241.897 143.296,241.021 145.492,240.675 C147.688,240.33 149.632,239.605 149.812,239.065 C149.992,238.525 152.808,237.782 156.069,237.413 C160.1,236.957 162,236.302 162,235.371 C162,234.275 164.813,234 176.032,234 C189.65,234 190.091,234.067 190.969,236.25 C191.466,237.487 191.902,238.201 191.937,237.836 C192.047,236.685 197.494,238.587 197.625,239.822 C197.694,240.47 197.806,241.477 197.875,242.059 C197.944,242.641 198.45,242.84 199,242.5 C199.55,242.16 200,242.584 200,243.441 C200,244.298 200.45,245 201,245 C201.55,245 202.007,245.787 202.015,246.75 C202.028,248.246 202.172,248.282 203,247 C203.675,245.955 203.974,247.7 203.985,252.75 C203.996,258.023 203.659,259.932 202.75,259.75 C201.909,259.582 201.402,261.179 201.202,264.63 L200.904,269.759 L204.545,270.442 C207.897,271.071 208.132,271.338 207.511,273.811 C207.141,275.288 206.632,276.702 206.38,276.953 C206.129,277.204 203.016,277.595 199.462,277.822 C194.689,278.125 193,278.61 193,279.676 C193,280.469 192.601,280.871 192.113,280.57 C191.626,280.269 190.671,280.692 189.991,281.511 C189.311,282.33 189.148,283.029 189.628,283.063 C190.107,283.098 189.487,283.534 188.25,284.031 C187.012,284.529 186,285.625 186,286.468 C186,287.78 183.71,288 170.05,288 C158.235,288 153.892,287.67 153.3,286.729 C152.86,286.03 151.262,284.915 149.75,284.25 C143.981,281.717 146.88,281 162.883,281 C177.926,281 178.794,280.894 179.29,279 C179.603,277.803 180.654,277 181.906,277 C183.058,277 184.007,276.438 184.015,275.75 C184.026,274.871 184.298,274.922 184.929,275.919 C185.564,276.923 186.038,275.926 186.551,272.506 C187.151,268.511 186.972,267.453 185.521,266.392 C184.475,265.627 183.559,263.271 183.253,260.554 L182.74,256 L187.12,255.882 C189.529,255.816 191.838,255.816 192.25,255.882 C192.662,255.947 193,255.1 193,254 C193,252.9 192.602,252 192.117,252 C191.631,252 190.998,251.1 190.71,250 C190.423,248.9 189.438,248 188.522,248 C187.606,248 186.182,247.325 185.357,246.5 C183.138,244.28 155,244.28 155,246.5 C155,247.356 154.101,248 152.906,248 C151.654,248 150.603,248.803 150.29,250 C149.848,251.688 148.926,252 144.383,252 C140.174,252 139,252.34 139,253.559 C139,254.416 138.581,254.859 138.069,254.543 C137.557,254.226 136.856,254.425 136.51,254.984 C136.165,255.543 134.607,256 133.048,256 C131.451,256 129.963,256.655 129.638,257.5 C129.322,258.325 128.149,259 127.031,259 C125.914,259 125,259.639 125,260.421 C125,261.202 123.688,262.129 122.084,262.482 C120.479,262.834 118.919,263.77 118.615,264.561 C117.8,266.686 114.893,266.309 114.29,264 C114.002,262.9 113.369,262 112.883,262 C112.398,262 112,260.398 112,258.441 C112,256.323 112.405,255.132 113,255.5 C113.605,255.874 114,254.491 114,252 C114,249.735 113.607,248.125 113.127,248.421 C112.647,248.718 111.929,242.22 111.532,233.98 C110.96,222.126 110.516,219 109.405,219 C108.276,219 107.986,216.499 107.93,206.25 C107.889,198.946 107.523,194.354 107.072,195.5 C105.528,199.425 103.845,187.236 104.588,177.5 C105.483,165.764 105.533,165.466 106.595,165.697 C107.093,165.805 108.046,164.852 108.713,163.578 C110.47,160.225 114.994,161.15 115.014,164.867 C115.035,169.04 116.115,172 117.617,172 C118.377,172 119,171.383 119,170.629 C119,169.693 120.937,169.039 125.105,168.568 C128.463,168.188 130.897,167.567 130.515,167.188 C130.133,166.81 131.548,165.991 133.66,165.37 C135.772,164.748 137.388,163.736 137.25,163.12 C137.103,162.461 138.423,162 140.455,162 C143.57,162 143.97,161.676 144.527,158.706 C144.867,156.894 145,153.632 144.823,151.456 L144.5,147.5 L131.076,147.521 C121.365,147.536 117.539,147.882 117.243,148.771 C117.015,149.456 115.148,150 113.024,150 C109.117,150 108,151.13 108,155.082 C108,156.546 107.291,157 105,157 Q102,157 102,155.5 C102,154.667 101.111,154 100,154 C98.488,154 97.997,153.329 97.986,151.25 C97.964,146.765 96.867,143.602 95.877,145.165 C95.228,146.188 95.027,146.091 95.015,144.75 C95.003,143.378 94.137,143 91,143 C87.667,143 87,142.667 87,141 C87,139.889 86.333,139 85.5,139 C84.31,139 84,137.556 84,132 C84,126.541 83.68,125 82.545,125 C80.724,125 79.547,119.227 80.42,114.572 C80.952,111.742 81.616,111.024 84.24,110.447 C86.279,110 87.551,110.153 87.792,110.875 C87.998,111.494 88.804,112 89.583,112 C90.687,112 91,113.758 91,119.95 C91,125.756 91.381,128.116 92.413,128.7 C93.191,129.14 93.978,130.85 94.163,132.5 C94.413,134.721 95.019,135.5 96.5,135.5 C98.037,135.5 98.5,134.833 98.5,132.619 C98.5,130.494 99.128,129.504 100.893,128.848 C103.816,127.762 109.027,129.765 108.288,131.691 C108.014,132.405 107.388,132.74 106.895,132.435 C106.403,132.131 106,133.484 106,135.441 L106,139 L114.5,139 C119.175,139 123,138.602 123,138.117 C123,137.631 123.825,137.017 124.834,136.754 C126.469,136.326 126.676,135.065 126.739,125.169 C126.789,117.283 126.474,114.127 125.655,114.282 C124.87,114.43 124.407,111.692 124.211,105.75 L123.922,97 L120.711,96.986 C115.565,96.964 112.863,95.925 113.261,94.121 C113.458,93.229 114.155,92.612 114.809,92.75 C115.464,92.887 116,92.293 116,91.429 C116,89.171 118.681,86.627 119.341,88.259 C119.656,89.04 119.871,88.897 119.921,87.875 C119.969,86.891 121.207,86.009 123.058,85.638 C124.74,85.302 126.797,84.346 127.629,83.513 C128.462,82.681 130.461,82 132.071,82 C134.008,82 135,81.492 135,80.5 C135,79.45 136.059,79 138.531,79 C140.681,79 142.279,78.437 142.615,77.561 C142.919,76.77 144.479,75.834 146.084,75.482 C148.824,74.88 149,74.543 149,69.921 L149,65 L143.5,65 C139.633,65 138.074,65.371 138.25,66.25 C138.398,66.991 137.219,67.624 135.352,67.806 C133.233,68.012 132.038,68.747 131.696,70.056 C131.155,72.123 128.732,72.496 123.125,71.375 C121.212,70.992 119.973,70.12 119.93,69.125 C119.876,67.878 119.66,67.965 119,69.5 C118.272,71.194 118.13,71.019 118.07,68.357 C118.027,66.435 118.583,64.99 119.5,64.638 C120.325,64.322 121,63.374 121,62.531 C121,61.689 121.787,60.963 122.75,60.918 C127.066,60.715 130.449,59.774 131.433,58.504 C132.02,57.745 133.85,56.984 135.5,56.812 C137.247,56.63 138.396,55.978 138.25,55.25 C138.083,54.417 139.333,54 142,54 C146.141,54 146.505,53.487 145.37,49.25 C144.818,47.19 144.208,47.008 138.133,47.1 C133.51,47.169 132.258,47.426 134,47.949 C136.17,48.599 135.839,48.81 131.5,49.547 C128.75,50.015 126.162,50.308 125.75,50.198 C125.338,50.089 125,50.619 125,51.375 C125,53.008 120.595,54.047 116.795,53.309 C114.491,52.862 113.994,52.143 113.442,48.463 C112.65,43.182 113.292,42 116.952,42 C118.549,42 120.037,41.345 120.362,40.5 C120.721,39.564 122.247,39 124.419,39 C126.404,39 128.246,38.383 128.704,37.565 C129.19,36.695 131.477,36.006 134.503,35.815 C138.97,35.533 139.537,35.235 139.851,33 C140.044,31.625 140.719,30.169 141.351,29.765 C142.089,29.293 141.874,29.025 140.75,29.015 C139.719,29.006 139,28.239 139,27.148 C139,25.542 137.877,25.209 130.581,24.648 C121.854,23.977 119.063,24.416 117.7,26.675 C116.477,28.702 114,28.251 114,26 C114,24.381 113.333,24 110.5,24 L107,24 L107,19.117 C107,13.37 107.549,13.075 118.5,12.943 C123.348,12.885 124.885,12.595 123.5,12 Z M184.25,14.706 C185.488,14.467 186.748,14.211 187.051,14.136 C188.695,13.73 192.986,16.812 193.473,18.75 C193.784,19.988 194.705,21 195.519,21 C196.722,21 197,22.763 197,30.383 C197,38.926 196.821,39.814 195,40.29 C193.558,40.667 193,41.654 193,43.825 C193,45.481 192.727,47.548 192.393,48.418 C191.904,49.693 192.533,49.997 195.643,49.985 C198.136,49.975 199.028,49.67 198.165,49.123 C196.362,47.98 199.997,47.032 206.25,47.014 C210.338,47.002 211,47.279 211,49 C211,50.111 211.667,51 212.5,51 C213.548,51 214,52.056 214,54.5 C214,56.944 213.548,58 212.5,58 C211.456,58 211,59.05 211,61.45 C211,63.513 210.382,65.246 209.464,65.76 C208.62,66.233 207.556,67.942 207.101,69.56 C206.646,71.177 205.809,72.403 205.241,72.285 C204.674,72.167 203.917,73.629 203.559,75.535 C203.202,77.441 202.469,79 201.93,79 C201.391,79 200.523,80.125 200,81.5 C199.477,82.875 198.664,84 198.194,84 C197.723,84 196.699,85.237 195.919,86.75 C195.139,88.263 193.825,90.054 193,90.731 C191.667,91.825 191.667,92.073 193,92.962 C194.094,93.692 194.85,93.494 195.793,92.231 C197.283,90.237 196.909,90.32 205.75,90.025 C210.771,89.858 211.86,89.596 210,89 C207.65,88.247 207.698,88.193 210.809,88.1 C212.629,88.045 213.875,88.394 213.577,88.875 C213.28,89.356 214.775,90.028 216.9,90.368 C219.694,90.815 220.916,91.569 221.314,93.093 C221.64,94.34 222.329,94.915 223,94.5 C223.67,94.086 224.359,94.658 224.684,95.899 C224.986,97.055 225.743,98.008 226.367,98.017 C226.99,98.027 228.579,99.172 229.898,100.562 C232.175,102.962 232.267,103.553 231.715,112.295 C231.056,122.73 231.608,127 233.617,127 C234.814,127 235.556,129.687 235.09,132.336 C235.009,132.796 235.856,133.411 236.971,133.703 C238.505,134.104 239,135.058 239,137.617 C239,139.957 239.462,141 240.5,141 C241.558,141 242.044,142.178 242.15,145 C242.233,147.2 242.345,149.563 242.4,150.25 C242.455,150.938 241.488,151.644 240.25,151.82 C238.737,152.034 238,151.625 238,150.57 C238,149.706 237.325,149 236.5,149 C235.667,149 235,148.111 235,147 C235,145.874 234.333,145 233.475,145 C232.637,145 231.512,143.848 230.977,142.44 C230.442,141.032 229.553,140.158 229.002,140.499 C228.414,140.862 228,139.816 228,137.965 C228,135.654 227.466,134.673 226,134.29 C224.9,134.002 224,133.209 224,132.528 C224,131.847 222.573,130.88 220.828,130.38 C217.035,129.292 216.117,127.464 218.988,126.713 C220.126,126.416 220.991,125.796 220.91,125.336 C220.368,122.254 221.184,119 222.5,119 C223.633,119 224,117.778 224,114 C224,110.222 223.633,109 222.5,109 C221.675,109 221,108.283 221,107.406 C221,106.53 220.1,105.577 219,105.29 C217.9,105.002 217,104.165 217,103.429 C217,102.691 215.429,101.796 213.5,101.434 C211.495,101.058 210,100.184 210,99.389 C210,97.511 203.128,97.502 202.408,99.379 C202.112,100.151 199.704,101.047 196.939,101.414 C193.565,101.861 192,102.533 192,103.534 C192,104.34 191.1,105 190,105 C188.889,105 188,105.667 188,106.5 C188,107.548 186.944,108 184.5,108 C182.104,108 181,108.459 181,109.455 C181,110.317 179.616,111.169 177.6,111.547 C170.735,112.835 169.168,111.247 170.468,104.317 C170.933,101.843 171.539,100.993 172.561,101.385 C173.352,101.689 174,101.501 174,100.969 C174,100.436 174.639,100 175.421,100 C176.202,100 177.138,98.65 177.5,97 C177.878,95.278 178.804,94 179.673,94 C180.506,94 181.423,93.1 181.71,92 C181.998,90.9 182.856,90 183.617,90 C184.377,90 185,89.1 185,88 C185,86.9 185.639,86 186.421,86 C187.202,86 188.15,84.595 188.527,82.879 C188.931,81.039 189.985,79.555 191.095,79.265 C192.13,78.994 192.745,78.396 192.461,77.936 C192.177,77.477 192.755,76.666 193.747,76.135 C194.738,75.605 195.652,73.895 195.777,72.335 C195.902,70.776 196.649,69.022 197.436,68.438 C199.619,66.819 200.547,61.969 198.885,60.862 C197.959,60.245 198.412,60.151 200.25,60.578 C201.98,60.98 203,60.806 203,60.108 C203,59.499 201.65,59 200,59 C198.35,59 197,59.45 197,60 C197,60.55 196.058,61 194.906,61 C193.654,61 192.603,61.803 192.29,63 C191.868,64.613 190.926,65 187.419,65 C184.094,65 182.818,65.471 182,67 C181.411,68.1 180.27,69 179.465,69 C178.659,69 178,69.675 178,70.5 C178,71.488 177.012,72 175.108,72 C172.82,72 172.079,71.451 171.557,69.372 C170.666,65.82 171.83,61 173.579,61 C174.361,61 175,60.325 175,59.5 C175,58.675 175.623,58 176.383,58 C177.144,58 178.002,57.1 178.29,56 C178.577,54.9 179.53,54 180.406,54 C181.54,54 182,53.055 182,50.722 C182,48.682 182.755,46.798 184,45.732 C185.67,44.302 186,42.782 186,36.51 L186,29 L179,29 L179,23.5 C179,19.278 179.348,18 180.5,18 C181.325,18 182,17.356 182,16.57 C182,15.783 183.012,14.944 184.25,14.706 Z M67.118,24.75 C67.053,24.337 68.525,24 70.389,24 C73.426,24 73.841,24.34 74.392,27.278 C74.731,29.081 74.554,34.131 74,38.5 C72.764,48.246 73.46,53 76.121,53 C77.165,53 78.79,52.1 79.732,51 C81.51,48.923 87.288,48.262 89.789,49.848 C91.512,50.942 91.918,56.584 90.25,56.25 C89.121,56.024 88.565,57.243 88.882,59.25 C88.947,59.663 88.131,60 87.07,60 C85.898,60 85.014,60.802 84.82,62.04 C84.644,63.161 84.129,63.949 83.675,63.79 C83.221,63.63 82.041,65.248 81.053,67.385 C79.95,69.77 79.062,70.735 78.752,69.885 C78.443,69.038 77.962,69.569 77.515,71.25 C77.112,72.763 76.157,74 75.392,74 C74.626,74 74,74.9 74,76 C74,77.333 73.333,78 72,78 C70.667,78 70,78.667 70,80 C70,81.333 69.333,82 68,82 C66.889,82 66,82.667 66,83.5 C66,84.325 65.292,85 64.427,85 C63.467,85 62.984,85.682 63.19,86.75 C63.701,89.411 72.628,89.53 73.32,86.885 C73.687,85.48 74.727,85 77.406,85 C79.934,85 81,84.555 81,83.5 C81,82.31 82.444,82 88,82 C93.556,82 95,82.31 95,83.5 C95,84.797 98.138,85.61 101.25,85.118 C101.662,85.053 102,85.9 102,87 C102,88.803 104.387,89.64 108.145,89.153 C108.5,89.107 109.075,90.586 109.422,92.438 C109.77,94.291 110.717,96.061 111.527,96.372 C112.628,96.794 113,98.685 113,103.852 C113,109.958 112.763,110.829 110.971,111.297 C109.856,111.589 109.068,112.429 109.221,113.164 C109.38,113.926 108.641,114.5 107.5,114.5 C105.72,114.5 105.467,113.733 105.199,107.511 C104.991,102.695 104.447,100.27 103.449,99.711 C102.652,99.265 102,98.248 102,97.45 C102,96.459 100.891,96 98.5,96 C96.233,96 95.088,95.56 95.25,94.75 C95.431,93.843 93.098,93.421 86.75,93.211 C79.415,92.969 78,93.171 78,94.461 C78,95.718 76.534,96 70,96 C64.133,96 62.067,96.333 62.25,97.25 C62.427,98.137 60.397,98.585 55.25,98.794 C49.254,99.037 48,98.821 48,97.544 C48,96.695 47.325,96 46.5,96 C44.036,96 44.491,89.366 47,88.71 C48.1,88.423 49,87.47 49,86.594 C49,85.212 51.395,84.431 54.25,84.882 C54.663,84.947 55,84.341 55,83.535 C55,82.73 55.913,81.582 57.028,80.985 C58.143,80.388 58.792,79.472 58.469,78.95 C57.962,78.129 59.153,77.617 61.085,77.827 C61.407,77.861 62.278,76.34 63.022,74.445 C63.765,72.55 64.947,71 65.648,71 C67.471,71 71,66.945 71,64.849 C71,63.274 70.286,63.142 64.628,63.67 C55.434,64.529 49,63.404 49,60.939 C49,59.872 49.42,59 49.933,59 C50.916,59 52.556,55.088 52.169,53.664 C52.045,53.204 52.83,52.596 53.914,52.312 C55.073,52.009 56.148,50.602 56.522,48.898 C56.872,47.304 57.798,46 58.579,46 C59.57,46 60,44.789 60,42 C60,39.333 60.417,38.083 61.25,38.25 C62.036,38.407 62.846,36.551 63.432,33.25 C64.002,30.045 64.878,28 65.682,28 C66.877,28 67.433,26.741 67.118,24.75 Z M144.71,171 C144.31,172.532 143.346,173 140.594,173 C138.617,173 137,173.414 137,173.921 C137,174.966 133.295,175.871 127.673,176.197 C125.159,176.343 123.512,177.043 122.873,178.238 C122.338,179.238 121.442,179.773 120.883,179.427 C120.323,179.082 119.618,179.744 119.316,180.899 C119.014,182.055 118.165,183 117.429,183 C116.685,183 115.791,184.595 115.417,186.591 C114.581,191.044 115.607,200.369 116.982,200.827 C118.423,201.308 118.248,204.729 116.75,205.359 C115.855,205.735 115.997,206.198 117.25,206.992 C118.715,207.919 119,209.638 119,217.55 C119,225.442 119.257,227 120.559,227 C121.416,227 121.84,227.45 121.5,228 C121.148,228.569 122.009,229 123.5,229 C125.003,229 125.853,228.571 125.496,227.993 C124.827,226.91 126.122,226.222 129.832,225.688 C131.115,225.503 132.465,224.892 132.832,224.33 C133.2,223.768 134.845,222.978 136.49,222.575 C138.134,222.171 139.743,221.415 140.065,220.894 C140.387,220.373 142.979,219.671 145.825,219.334 C149.223,218.932 151,218.254 151,217.361 C151,216.612 151.619,216 152.375,216 C153.746,216 155,211.88 155,207.375 C155,205.327 154.518,205 151.5,205 C149.152,205 148,205.465 148,206.412 C148,207.28 146.459,208.085 144,208.5 C141.8,208.872 140,209.586 140,210.088 C140,210.59 139.325,211 138.5,211 C137.675,211 137,211.45 137,212 C137,212.55 136.373,213 135.607,213 C134.841,213 133.955,213.675 133.638,214.5 C133.277,215.441 131.748,216 129.531,216 C126.078,216 126,215.912 126,212 C126,209.111 126.417,208 127.5,208 C128.325,208 129,207.283 129,206.406 C129,205.53 129.813,204.6 130.806,204.341 C132.672,203.853 135.54,198 133.913,198 C133.411,198 133,195.483 133,192.406 C133,187.578 133.285,186.738 135.085,186.268 C136.466,185.906 136.771,185.476 135.988,184.993 C135.246,184.534 135.985,183.852 137.979,183.157 C139.723,182.549 140.865,181.59 140.516,181.026 C140.105,180.361 142.39,180 147,180 C151.138,180 153.877,180.39 153.543,180.931 C153.226,181.443 153.425,182.144 153.984,182.49 C154.543,182.835 155,185.566 155,188.559 C155,193.361 155.238,194 157.031,194 C158.149,194 159.322,194.675 159.638,195.5 C159.955,196.325 160.616,197 161.107,197 C161.598,197 162,196.325 162,195.5 C162,194.675 162.623,194 163.383,194 C165.319,194 165.971,190.803 165.986,181.219 C165.997,174.771 165.668,172.81 164.5,172.362 C163.675,172.045 163,171.159 163,170.393 C163,169.307 161.043,169 154.117,169 C146.074,169 145.184,169.189 144.71,171 Z M57.134,259.102 L56.901,254 L60.369,254 C65.55,254 66.881,254.848 67.584,258.597 C67.935,260.468 68.827,262 69.566,262 C70.31,262 71.203,263.563 71.566,265.5 C71.942,267.505 72.816,269 73.611,269 C74.375,269 75,269.623 75,270.383 C75,271.144 75.958,272.017 77.13,272.324 C78.553,272.696 79.061,273.399 78.661,274.44 C78.244,275.528 78.659,276 80.031,276 C81.114,276 82,276.585 82,277.299 C82,278.014 83.633,279.189 85.629,279.91 C88.312,280.881 88.898,281.45 87.879,282.096 C86.97,282.671 88.035,282.985 91,283.016 C95.942,283.068 100.293,285.29 97.529,286.35 C96.688,286.673 96,287.626 96,288.469 C96,289.658 94.772,290 90.5,290 C86.278,290 85,289.652 85,288.5 C85,287.675 84.662,287.053 84.25,287.118 C80.589,287.696 78,286.819 78,285 C78,283.667 77.333,283 76,283 C74.789,283 73.972,282.31 73.93,281.25 C73.87,279.754 73.735,279.79 73,281.5 C72.215,283.327 72.134,283.341 72.07,281.656 C72.032,280.642 71.126,279.584 70.057,279.305 C68.882,278.997 67.838,277.552 67.416,275.648 C66.821,272.97 66.613,272.793 66.02,274.464 C65.41,276.186 65.222,276.063 64.498,273.464 C64.044,271.834 63.746,270.163 63.836,269.75 C63.926,269.337 63.1,269 62,269 C60.704,269 60,268.333 60,267.107 C60,266.066 59.408,264.987 58.683,264.709 C57.88,264.4 57.276,262.216 57.134,259.102 Z M236.092,248.878 C237.416,248.511 238.95,248.388 239.5,248.604 C240.05,248.821 241.287,249.276 242.25,249.616 C243.213,249.955 244,250.856 244,251.617 C244,252.377 244.717,253 245.594,253 C246.47,253 247.423,253.9 247.71,255 C247.998,256.1 248.856,257 249.617,257 C250.377,257 251,257.689 251,258.531 C251,259.374 251.675,260.322 252.5,260.638 C253.325,260.955 254,261.841 254,262.607 C254,263.373 254.45,264 255,264 C255.55,264 256.032,264.788 256.07,265.75 C256.13,267.242 256.255,267.207 256.915,265.517 C257.563,263.857 257.801,264.124 258.37,267.156 C258.823,269.576 259.706,270.951 261.025,271.296 C263.328,271.898 263.854,277.458 261.687,278.29 C259.487,279.134 255,277.854 255,276.383 C255,275.623 254.1,275 253,275 C251.667,275 251,274.333 251,273 C251,271.9 250.377,271 249.617,271 C248.856,271 247.998,270.1 247.71,269 C247.423,267.9 246.47,267 245.594,267 C244.717,267 244,266.325 244,265.5 C244,264.675 243.31,264 242.468,264 C241.625,264 240.613,263.212 240.218,262.25 C239.541,260.599 237.998,259.796 235.33,259.706 C234.056,259.663 232.864,254.69 233.369,251.523 C233.542,250.436 234.767,249.246 236.092,248.878 Z M37,133 C37,123.567 37.102,123.384 41.704,124.618 C43.396,125.072 44.06,126.216 44.558,129.537 C44.915,131.918 45.835,134.107 46.603,134.401 C47.454,134.728 48.006,136.416 48.015,138.719 C48.025,141.206 48.324,142.038 48.887,141.149 C49.525,140.142 50.093,140.588 51.116,142.899 C51.871,144.605 53.053,146 53.744,146 C54.435,146 55,146.67 55,147.488 C55,148.454 56.422,149.204 59.053,149.624 C62.874,150.235 63.089,150.451 62.803,153.386 C62.501,156.492 62.484,156.5 56.5,156.5 C52.233,156.5 50.572,156.139 50.75,155.25 C50.887,154.563 50.325,154 49.5,154 C48.147,154 47.556,152.813 47.882,150.75 C47.947,150.338 47.1,150 46,150 C44.667,150 44,149.333 44,148 C44,146.9 43.377,146 42.617,146 C41.856,146 40.998,145.1 40.71,144 C40.423,142.9 39.47,142 38.594,142 C37.254,142 37,140.568 37,133 Z M129.376,263.461 C130.122,261.517 142.094,262.417 143.263,264.505 C143.723,265.327 145.441,266 147.081,266 C148.809,266 150.305,266.631 150.638,267.5 C151.322,269.28 153.668,269.495 154.224,267.828 C154.707,266.379 166.785,265.385 168.087,266.687 C168.603,267.203 168.738,269.059 168.387,270.813 L167.75,274 L154.625,273.891 C147.406,273.832 138.82,273.494 135.544,273.141 L129.588,272.5 L129.219,268.668 C129.015,266.56 129.086,264.217 129.376,263.461 Z M61.25,117.706 C62.487,117.467 63.725,117.217 64,117.15 C64.275,117.082 65.501,117.296 66.725,117.624 C68.274,118.039 69.144,119.25 69.587,121.61 C69.947,123.531 70.825,125 71.611,125 C72.523,125 73,126.163 73,128.383 C73,130.942 73.495,131.896 75.029,132.297 C76.144,132.589 76.991,133.204 76.91,133.664 C76.439,136.34 77.192,139 78.421,139 C79.958,139 81.55,144.302 80.515,145.976 C80.167,146.539 79.009,147 77.941,147 C76.873,147 76,147.675 76,148.5 C76,151.549 73.208,149.923 72.566,146.5 C72.173,144.405 71.325,143 70.455,143 C69.655,143 69,142.1 69,141 C69,139.889 68.333,139 67.5,139 C66.452,139 66,137.944 66,135.5 C66,132.667 65.619,132 64,132 C62.667,132 62,131.333 62,130 C62,128.889 61.333,128 60.5,128 C59.369,128 59,126.786 59,123.07 C59,118.752 59.279,118.085 61.25,117.706 Z M172.75,122.689 C173.713,122.438 175.963,122.18 177.75,122.116 C180.372,122.022 181,122.386 181,124 C181,125.333 181.667,126 183,126 C184.467,126 185,126.667 185,128.5 C185,129.921 185.52,130.892 186.205,130.75 C187.396,130.503 187.631,131.102 187.875,135 C187.956,136.292 188.708,137 190,137 C191.333,137 192,137.667 192,139 C192,140.333 192.667,141 194,141 C195.111,141 196,141.667 196,142.5 C196,143.325 196.675,144 197.5,144 C198.325,144 199,144.844 199,145.875 C199,148.164 195.203,149.105 189.21,148.301 C185.967,147.866 185,147.307 185,145.868 C185,144.703 184.289,144 183.111,144 C181.745,144 181.041,143.033 180.566,140.5 C180.173,138.405 179.325,137 178.455,137 C177.655,137 177,136.1 177,135 C177,133.889 176.333,133 175.5,133 C174.675,133 174,132.325 174,131.5 C174,130.675 173.325,130 172.5,130 C170.225,130 170.454,123.289 172.75,122.689 Z M204.75,122.689 C207.404,121.996 209.295,122.061 211.5,122.921 C213.699,123.779 213.69,123.745 213.89,131.25 C213.992,135.041 214.3,136.083 215,135 C215.831,133.715 215.972,133.748 215.985,135.231 C215.994,136.236 217.048,137.225 218.5,137.589 C220.413,138.069 221,138.866 221,140.983 C221,143.257 220.466,143.857 218,144.35 C214.467,145.057 208.811,144.114 209.537,142.94 C209.815,142.49 209.444,141.758 208.712,141.311 C207.981,140.865 206.779,139.007 206.042,137.183 C205.077,134.795 204.467,134.234 203.866,135.183 C203.37,135.965 203.024,133.788 203.015,129.823 C203.003,124.298 203.302,123.068 204.75,122.689 Z M145.5,117 C145.151,118.1 144.108,119.007 143.183,119.015 C141.733,119.029 141.707,119.163 143,119.985 C144.178,120.735 143.802,121.081 141.25,121.595 C138.068,122.236 138,122.362 138,127.625 C138,132.333 138.248,133 140,133 C141.1,133 142,132.435 142,131.744 C142,131.053 143.395,129.871 145.101,129.116 C147.412,128.093 147.858,127.525 146.851,126.887 C145.803,126.223 145.892,126.027 147.25,126.015 C148.213,126.007 149,125.325 149,124.5 C149,123.675 149.675,123 150.5,123 C151.583,123 152,121.889 152,119 C152,115.243 151.822,115 149.067,115 C147.013,115 145.945,115.599 145.5,117 Z M140.495,193.015 C140.144,194.123 139.435,194.769 138.92,194.45 C137.908,193.825 135.949,198.015 136.676,199.25 C136.919,199.662 138.779,199.955 140.809,199.9 C144.124,199.811 144.246,199.719 142,199 L139.5,198.199 L141.844,198.1 C143.328,198.037 144.387,197.236 144.732,195.915 C145.147,194.331 145.48,194.151 146.123,195.165 C146.704,196.082 146.974,195.638 146.985,193.75 C146.998,191.372 146.604,191 144.067,191 C142.006,191 140.945,191.598 140.495,193.015 Z M139.75,48.662 C139.063,48.385 139.625,48.158 141,48.158 C142.375,48.158 142.938,48.385 142.25,48.662 C141.563,48.94 140.438,48.94 139.75,48.662 Z M144.813,275.683 C144.015,275.364 144.252,275.127 145.417,275.079 C146.471,275.036 147.061,275.272 146.729,275.604 C146.397,275.936 145.534,275.972 144.813,275.683 Z"/>
</svg>

