<svg xmlns="http://www.w3.org/2000/svg" width="300" height="300" viewBox="0 0 300 300" version="1.1">
  <defs/>
  <path d="M185,78.5 C185,77.452 186.056,77 188.5,77 C190.944,77 192,77.452 192,78.5 C192,79.325 192.675,80 193.5,80 C194.325,80 195,79.325 195,78.5 C195,77.417 196.111,77 199,77 C201.889,77 203,77.417 203,78.5 C203,79.333 203.889,80 205,80 C206.758,80 207,80.667 207,85.5 C207,90.22 206.733,91 205.117,91 C204.074,91 203,91.893 202.71,93 C202.231,94.833 201.346,95 192.094,95 C184.169,95 182,95.297 182,96.383 C182,97.374 179.878,97.964 174.5,98.468 C169.032,98.98 167,99.554 167,100.585 C167,101.363 166.1,102 165,102 C163.889,102 163,102.667 163,103.5 C163,104.325 162.283,105 161.406,105 C160.53,105 159.577,105.9 159.29,107 C159.002,108.1 158.144,109 157.383,109 C156.623,109 156,109.9 156,111 C156,112.333 155.333,113 154,113 C152.667,113 152,113.667 152,115 C152,116.111 151.333,117 150.5,117 C149.452,117 149,118.056 149,120.5 C149,122.896 148.541,124 147.545,124 C146.675,124 145.827,125.405 145.434,127.5 C145.058,129.505 144.184,131 143.389,131 C142.625,131 142,131.675 142,132.5 C142,133.621 143.201,134.003 146.75,134.014 C152.923,134.031 156,134.897 156,136.617 C156,137.531 157.187,138 159.5,138 C161.82,138 163,138.468 163,139.389 C163,140.184 164.495,141.058 166.5,141.434 C168.595,141.827 170,142.675 170,143.545 C170,144.345 170.9,145 172,145 C173.333,145 174,145.667 174,147 C174,148.333 174.667,149 176,149 C177.111,149 178,149.667 178,150.5 C178,151.325 178.717,152 179.594,152 C180.47,152 181.423,152.9 181.71,154 C181.998,155.1 182.856,156 183.617,156 C184.377,156 185,156.675 185,157.5 C185,158.325 185.675,159 186.5,159 C187.333,159 188,159.889 188,161 C188,162.333 188.667,163 190,163 C191.606,163 192,163.667 192,166.383 C192,168.926 192.497,169.897 194,170.29 C195.67,170.726 196,171.654 196,175.906 C196,179.767 196.363,181 197.5,181 C198.753,181 199,183.056 199,193.5 C199,203.944 198.753,206 197.5,206 C196.395,206 196,207.153 196,210.375 C196,216.741 194.948,221 193.375,221 C192.47,221 192,222.197 192,224.5 C192,226.82 191.532,228 190.611,228 C189.816,228 188.942,229.495 188.566,231.5 C188.173,233.595 187.325,235 186.455,235 C185.655,235 185,235.9 185,237 C185,238.333 184.333,239 183,239 C181.381,239 181,239.667 181,242.5 C181,245.833 180.833,246 177.5,246 C174.667,246 174,246.381 174,248 C174,249.111 173.333,250 172.5,250 C171.675,250 171,250.675 171,251.5 C171,252.583 169.889,253 167,253 C164.211,253 163,253.43 163,254.421 C163,255.202 161.66,256.135 160.022,256.495 C155.718,257.441 146.237,256.059 145.597,254.393 C145.303,253.627 144.374,253 143.531,253 C142.689,253 142,252.325 142,251.5 C142,250.667 141.111,250 140,250 C138.667,250 138,249.333 138,248 C138,246.667 137.333,246 136,246 C134.148,246 134,245.333 134,237 C134,228.667 134.148,228 136,228 C137.758,228 138,228.667 138,233.5 C138,238.333 138.242,239 140,239 C141.111,239 142,239.667 142,240.5 C142,241.325 142.675,242 143.5,242 C144.333,242 145,242.889 145,244 C145,245.333 145.667,246 147,246 C148.111,246 149,246.667 149,247.5 C149,248.633 150.222,249 154,249 C157.778,249 159,248.633 159,247.5 C159,246.417 160.111,246 163,246 C165.889,246 167,245.583 167,244.5 C167,243.675 167.675,243 168.5,243 C169.333,243 170,242.111 170,241 C170,239.667 170.667,239 172,239 C173.333,239 174,238.333 174,237 C174,235.9 174.655,235 175.455,235 C176.325,235 177.173,233.595 177.566,231.5 C177.942,229.495 178.816,228 179.611,228 C180.375,228 181,227.1 181,226 C181,224.9 181.623,224 182.383,224 C183.899,224 184.965,221.032 184.986,216.75 C184.995,214.978 185.534,214 186.5,214 C187.641,214 188.003,212.744 188.014,208.75 C188.031,202.098 188.858,199 190.617,199 C191.531,199 192,197.813 192,195.5 C192,193.168 191.533,192 190.601,192 C189.604,192 189.002,189.995 188.5,185 C187.998,180.005 187.396,178 186.399,178 C185.46,178 185,176.818 185,174.406 C185,171.654 184.532,170.69 183,170.29 C181.583,169.919 181,168.926 181,166.883 C181,164.912 180.496,164 179.406,164 C178.53,164 177.577,163.1 177.29,162 C177.002,160.9 176.144,160 175.383,160 C174.623,160 174,159.1 174,158 C174,156.381 173.333,156 170.5,156 C167.667,156 167,155.619 167,154 C167,152.667 166.333,152 165,152 C163.9,152 163,151.375 163,150.611 C163,149.816 161.505,148.942 159.5,148.566 C157.405,148.173 156,147.325 156,146.455 C156,145.358 154.646,145 150.5,145 C146.278,145 145,144.652 145,143.5 C145,142.675 144.325,142 143.5,142 C142.675,142 142,142.675 142,143.5 C142,144.333 141.111,145 140,145 C138.667,145 138,145.667 138,147 C138,148.1 137.377,149 136.617,149 C135.856,149 134.998,149.9 134.71,151 C134.423,152.1 133.47,153 132.594,153 C131.717,153 131,153.675 131,154.5 C131,155.333 130.111,156 129,156 C127.381,156 127,156.667 127,159.5 C127,161.944 126.548,163 125.5,163 C124.445,163 124,164.066 124,166.594 C124,169.346 123.532,170.31 122,170.71 C120.244,171.169 120,172.074 120,178.117 C120,183.346 119.664,185 118.601,185 C117.604,185 117.002,187.005 116.5,192 C115.998,196.995 115.396,199 114.399,199 C113.467,199 113,200.168 113,202.5 C113,205.036 112.561,206 111.406,206 C110.53,206 109.577,206.9 109.29,208 C109.002,209.1 108.144,210 107.383,210 C106.623,210 106,210.648 106,211.441 C106,213.489 104.49,214.161 101.546,213.422 C99.444,212.895 99,212.192 99,209.392 C99,207.044 99.462,206 100.5,206 C101.652,206 102,204.722 102,200.5 C102,196.484 102.373,195 103.383,195 C104.959,195 105.966,192 105.986,187.25 C105.996,185.034 106.477,184 107.5,184 C108.548,184 109,182.944 109,180.5 C109,178.104 109.459,177 110.455,177 C111.325,177 112.173,175.595 112.566,173.5 C112.942,171.495 113.816,170 114.611,170 C115.611,170 116,168.6 116,165 C116,160.667 116.267,160 118,160 C119.667,160 120,159.333 120,156 C120,153.166 120.424,152 121.455,152 C122.325,152 123.173,150.595 123.566,148.5 C123.942,146.495 124.816,145 125.611,145 C126.532,145 127,143.82 127,141.5 C127,139.104 127.459,138 128.455,138 C129.325,138 130.173,136.595 130.566,134.5 C130.942,132.495 131.816,131 132.611,131 C133.375,131 134,130.1 134,129 C134,127.667 134.667,127 136,127 C137.619,127 138,126.333 138,123.5 C138,121.18 138.468,120 139.389,120 C140.184,120 141.058,118.505 141.434,116.5 C141.827,114.405 142.675,113 143.545,113 C144.345,113 145,112.1 145,111 C145,109.9 145.655,109 146.455,109 C147.325,109 148.173,107.595 148.566,105.5 C149.041,102.967 149.745,102 151.111,102 C152.15,102 153,101.325 153,100.5 C153,99.675 153.675,99 154.5,99 C155.333,99 156,98.111 156,97 C156,95.381 156.667,95 159.5,95 C162.398,95 163,94.636 163,92.884 C163,90.899 162.587,90.793 156.4,91.187 C151.538,91.497 149.549,92.055 148.85,93.304 C148.074,94.69 146.356,95 139.45,95 C132.606,95 131,95.285 131,96.5 C131,97.412 130.069,98 128.625,98 C124.12,98 120,99.254 120,100.625 C120,101.708 117.667,102 109,102 C99.889,102 98,101.742 98,100.5 C98,99.675 97.325,99 96.5,99 C95.667,99 95,98.111 95,97 C95,95.9 95.623,95 96.383,95 C97.144,95 98.002,94.1 98.29,93 C98.764,91.185 99.654,91 107.906,91 C115.046,91 117,90.698 117,89.596 C117,88.526 119.493,88.023 127.5,87.477 C135.417,86.937 138,86.422 138,85.381 C138,84.309 140.013,84 147,84 C153.924,84 156,83.686 156,82.639 C156,80.953 162.996,80.021 175.75,80.009 C183.302,80.002 185,79.725 185,78.5 Z M120,46 C120,44.142 120.667,44 129.375,44 C140.511,44 145,44.754 145,46.625 C145,47.741 148.394,48 163,48 C177.692,48 181,48.255 181,49.389 C181,50.184 182.495,51.058 184.5,51.434 C187.698,52.034 188,52.389 188,55.545 C188,57.949 187.544,59 186.5,59 C185.675,59 185,59.675 185,60.5 C185,61.325 184.325,62 183.5,62 C182.675,62 182,61.325 182,60.5 C182,59.417 180.889,59 178,59 C175.306,59 174,58.559 174,57.648 C174,55.806 162.833,55.014 136.75,55.006 C120.813,55.001 116.003,54.71 116.014,53.75 C116.045,50.84 117.331,48 118.617,48 C119.377,48 120,47.1 120,46 Z M171,89.5 C171,90.738 172.833,91 181.5,91 C190.167,91 192,90.738 192,89.5 C192,88.262 190.167,88 181.5,88 C172.833,88 171,88.262 171,89.5 Z"/>
</svg>

