<svg xmlns="http://www.w3.org/2000/svg" width="300" height="300" viewBox="0 0 300 300" version="1.1">
  <defs/>
  <path d="M163.25,109.408 C165.254,107.294 166.386,107.033 173.597,107.017 C180.275,107.003 182.098,107.351 184,109 C185.268,110.1 187.137,111 188.153,111 C190.798,111 190.688,116.966 188,119.268 C186.9,120.21 186,122.136 186,123.549 C186,125 185.567,125.85 185.004,125.503 C184.457,125.164 183.491,126.023 182.858,127.412 C182.225,128.801 181.323,129.7 180.854,129.41 C180.384,129.119 179.966,130.596 179.924,132.691 C179.678,145.057 178.261,160.221 177.296,160.817 C176.685,161.195 175.759,163.077 175.237,165.002 C174.716,166.926 173.83,168.406 173.269,168.292 C172.704,168.176 171.943,171.206 171.559,175.098 C171.099,179.769 170.389,182.297 169.434,182.664 C168.645,182.966 167.994,184.403 167.986,185.857 C167.964,190.118 166.876,193 165.29,193 C164.477,193 163.577,193.9 163.29,195 C162.494,198.042 161.297,197.396 160.572,193.534 C159.732,189.055 160.959,179.789 162.562,178.5 C163.614,177.654 164.807,168.081 164.961,159.25 C164.984,157.934 165.623,157 166.5,157 C167.753,157 168,154.944 168,144.5 C168,134.056 167.753,132 166.5,132 C165.675,132 165,131.377 165,130.617 C165,129.856 164.1,128.998 163,128.71 C161.468,128.31 161,127.346 161,124.594 C161,122.066 160.555,121 159.5,121 C157.611,121 157.625,119.08 159.532,116.559 C160.339,115.491 161,113.98 161,113.2 C161,112.42 162.012,110.714 163.25,109.408 Z M127.985,104.75 C127.997,103.345 128.887,103 132.5,103 C136.113,103 137.003,103.345 137.015,104.75 C137.027,106.139 137.211,106.215 137.907,105.117 C138.551,104.099 138.964,104.56 139.469,106.861 C139.847,108.581 140.909,110.409 141.828,110.924 C144.355,112.339 143.926,120.089 141.157,123.062 C139.971,124.335 139,126.192 139,127.189 C139,128.185 138.457,128.887 137.794,128.75 C136.496,128.481 135.247,134.411 135.004,142 C134.9,145.223 134.642,145.944 134.094,144.542 C133.113,142.034 132.021,150.521 132.009,160.75 L132,168 L125,168 L125,153.5 C125,139.667 124.908,139 123,139 C121.9,139 121,139.626 121,140.392 C121,141.895 116.516,143.437 114.954,142.472 C114.429,142.147 114,140.334 114,138.441 C114,136.049 113.543,135 112.5,135 C111.421,135 111,133.897 111,131.071 C111,128.911 111.675,126.468 112.5,125.643 C113.325,124.818 114.006,122.873 114.014,121.321 C114.035,116.973 115.092,114 116.617,114 C117.377,114 118,113.314 118,112.475 C118,111.637 119.152,110.512 120.56,109.977 C121.968,109.442 122.842,108.553 122.501,108.002 C122.161,107.451 122.809,107 123.941,107 C125.229,107 126.006,106.345 126.015,105.25 C126.028,103.754 126.172,103.718 127,105 C127.828,106.282 127.972,106.246 127.985,104.75 Z M126,129.032 C124.667,129.892 124.667,130.108 126,130.968 C126.967,131.592 127.618,131.592 127.833,130.968 C128.494,129.049 127.538,128.04 126,129.032 Z M122.71,127 C122.998,128.1 123.353,129 123.5,129 C123.647,129 124.002,128.1 124.29,127 C124.617,125.75 124.32,125 123.5,125 C122.68,125 122.383,125.75 122.71,127 Z M181.158,135 C181.158,133.625 181.385,133.063 181.662,133.75 C181.94,134.438 181.94,135.563 181.662,136.25 C181.385,136.938 181.158,136.375 181.158,135 Z"/>
</svg>

