<svg xmlns="http://www.w3.org/2000/svg" width="300" height="300" viewBox="0 0 300 300" version="1.1">
  <defs/>
  <path d="M197,76.5 C197,75.348 198.278,75 202.5,75 C206.722,75 208,75.348 208,76.5 C208,77.771 210.444,78 224,78 C239.333,78 240,78.083 240,80 C240,81.333 240.667,82 242,82 C243.721,82 243.998,82.662 243.986,86.75 C243.969,92.923 243.103,96 241.383,96 C240.623,96 240,96.9 240,98 C240,99.619 239.333,100 236.5,100 C234.056,100 233,100.452 233,101.5 C233,102.333 232.111,103 231,103 C229.381,103 229,102.333 229,99.5 C229,96.667 229.381,96 231,96 C232.333,96 233,95.333 233,94 C233,92.889 233.667,92 234.5,92 C235.549,92 236,90.942 236,88.477 L236,84.954 L218.263,85.227 C202.292,85.473 200.492,85.674 200.19,87.25 C199.957,88.462 200.491,89 201.927,89 C203.067,89 204,89.625 204,90.389 C204,91.184 205.495,92.058 207.5,92.434 C209.595,92.827 211,93.675 211,94.545 C211,95.541 212.104,96 214.5,96 C217.398,96 218,96.364 218,98.117 C218,99.824 217.565,100.117 215.75,99.63 C214.512,99.299 212.262,99.021 210.75,99.014 C208.978,99.005 208,98.466 208,97.5 C208,96.465 206.961,96 204.648,96 L201.296,96 L200.654,104.25 C200.301,108.787 200.012,119.025 200.012,127 C200.012,147.099 200.939,158 202.648,158 C203.392,158 204,158.45 204,159 C204,159.55 205.575,160 207.5,160 C209.425,160 211,159.606 211,159.125 C211,158.644 212.461,157.958 214.246,157.601 C216.576,157.135 217.806,157.382 218.606,158.476 C219.95,160.313 221.682,160.455 222.242,158.773 C222.9,156.801 230.978,157.21 232.133,159.273 C232.664,160.223 233.7,161 234.433,161 C236.311,161 236.935,164.226 236.282,170.559 C235.905,174.205 235.271,176 234.36,176 C233.612,176 233,176.708 233,177.573 C233,178.532 232.316,179.017 231.25,178.814 C229.897,178.557 229.431,177.291 229.198,173.241 L228.895,168 L221.948,168 C216.631,168 215,168.331 215,169.412 C215,170.28 213.459,171.085 211,171.5 C208.541,171.915 207,172.72 207,173.588 C207,174.365 206.325,175 205.5,175 C204.348,175 204,176.278 204,180.5 L204,186 L209,186 C212.778,186 214,186.367 214,187.5 C214,188.325 213.55,189 213,189 C212.45,189 212,189.9 212,191 C212,192.822 211.333,193 204.5,193 L197,193 L196.986,188.25 C196.969,182.077 196.103,179 194.383,179 C193.469,179 193,177.813 193,175.5 C193,173.056 192.548,172 191.5,172 C190.417,172 190,170.889 190,168 C190,165.111 190.417,164 191.5,164 C192.69,164 193,162.556 193,157 C193,151.444 192.69,150 191.5,150 C190.202,150 190,146.167 190,121.5 C190,96.833 190.202,93 191.5,93 C192.356,93 193,92.101 193,90.906 C193,89.654 193.803,88.603 195,88.29 C199.803,87.034 194.811,85 186.925,85 C184.321,85 182.787,85.559 182.121,86.75 C181.313,88.196 179.396,88.56 171.072,88.844 C163.576,89.1 161,89.525 161,90.506 C161,92.151 154.118,93.404 150.022,92.505 C146.964,91.833 145.734,89 148.5,89 C149.325,89 150,88.325 150,87.5 C150,86.675 150.635,86 151.412,86 C152.28,86 153.085,84.459 153.5,82 L154.176,78 L175.588,78 C193.954,78 197,77.787 197,76.5 Z M157,151.5 C157,150.3 158.5,150 164.5,150 C171.333,150 172,150.178 172,152 C172,153.111 172.667,154 173.5,154 C174.325,154 175,154.675 175,155.5 C175,156.629 173.79,157 170.111,157 C165.283,157 165.214,157.045 164.542,160.628 C164.168,162.624 164.178,169.824 164.566,176.628 C165.104,186.069 165.594,189 166.635,189 C167.705,189 168,191.374 168,200 L168,211 L182.5,211 C194.722,211 197,210.764 197,209.5 C197,208.367 198.222,208 202,208 C205.778,208 207,208.367 207,209.5 C207,210.776 209.645,211.002 224.75,211.014 C243.646,211.028 247,211.421 247,213.617 C247,214.627 248.484,215 252.5,215 C257.333,215 258,214.758 258,213 C258,211.837 258.667,211 259.594,211 C260.47,211 261.423,211.9 261.71,213 C262.016,214.168 263.074,215 264.256,215 C266.103,215 266.226,215.447 265.67,220.136 C265.336,222.96 264.867,225.467 264.628,225.706 C264.389,225.945 261,225.825 257.097,225.441 C252.093,224.948 250,224.337 250,223.371 C250,222.297 247.727,222 239.5,222 C231.207,222 229,221.708 229,220.611 C229,219.506 225.997,219.145 214.317,218.843 C192.107,218.268 179,218.926 179,220.613 C179,221.531 177.817,222 175.5,222 L172,222 L171.986,228.75 C171.97,236.848 171.241,240 169.383,240 C168.623,240 168,240.9 168,242 C168,243.333 167.333,244 166,244 C164.889,244 164,244.667 164,245.5 C164,246.548 162.944,247 160.5,247 C158.056,247 157,246.548 157,245.5 C157,244.667 156.111,244 155,244 C153.667,244 153,243.333 153,242 C153,240.381 152.333,240 149.5,240 C146.667,240 146,239.619 146,238 C146,236.889 145.333,236 144.5,236 C143.675,236 143,235.325 143,234.5 C143,233.675 142.283,233 141.406,233 C140.53,233 139.577,232.1 139.29,231 C139,229.893 137.926,229 136.883,229 C135.398,229 135,228.261 135,225.5 C135,222.667 135.381,222 137,222 C138.1,222 139,221.377 139,220.617 C139,219.856 139.9,218.998 141,218.71 C142.1,218.423 143,217.47 143,216.594 C143,215.252 144.44,215 152.094,215 L161.187,215 L160.844,204.928 C160.56,196.604 160.196,194.687 158.75,193.879 C157.287,193.061 157,191.435 157,183.95 C157,176.661 156.722,175 155.5,175 C154.258,175 154,173.111 154,164 C154,154.889 154.258,153 155.5,153 C156.325,153 157,152.325 157,151.5 Z M110,90.5 C110,89.417 111.111,89 114,89 C116.889,89 118,89.417 118,90.5 C118,91.325 118.619,92 119.375,92 C120.804,92 122.409,97.53 121.437,99.103 C121.132,99.596 118.434,100 115.441,100 C111.271,100 110,100.35 110,101.5 C110,102.325 109.325,103 108.5,103 C107.675,103 107,103.717 107,104.594 C107,105.47 106.1,106.423 105,106.71 C103.9,106.998 103,107.806 103,108.505 C103,109.205 101.425,110.073 99.5,110.434 C97.405,110.827 96,111.675 96,112.545 C96,113.345 95.377,114 94.617,114 C93.856,114 92.998,114.9 92.71,116 C92.423,117.1 91.47,118 90.594,118 C89.717,118 89,118.653 89,119.45 C89,120.248 88.213,121.365 87.25,121.932 C85.724,122.832 85.692,123.092 87,123.966 C87.825,124.518 89.287,124.976 90.25,124.985 C91.213,124.993 92,125.675 92,126.5 C92,127.333 92.889,128 94,128 C95.822,128 96,128.667 96,135.5 C96,141.5 96.3,143 97.5,143 C98.548,143 99,144.056 99,146.5 C99,148.944 98.548,150 97.5,150 C96.222,150 96,152.667 96,168 C96,182.659 96.257,186 97.383,186 C99.241,186 99.97,189.152 99.986,197.25 C99.997,202.577 100.316,204 101.5,204 C102.976,204 103.636,208.341 103.194,215.136 C103.073,217.012 103.597,217.923 105.012,218.293 C106.531,218.69 107,219.661 107,222.406 C107,225.847 107.149,226 110.5,226 L114,226 L114,235.824 L110.022,236.496 C107.834,236.866 104.739,236.882 103.144,236.532 C100.546,235.961 100.175,235.379 99.587,230.947 C99.139,227.567 98.467,226 97.466,226 C96.356,226 96,224.665 96,220.5 C96,215.667 95.758,215 94,215 C92.19,215 92,214.333 92,208 C92,202.612 91.672,201 90.576,201 C89.405,201 89.095,197.543 88.826,181.462 C88.582,166.805 88.176,161.724 87.201,161.123 C86.255,160.539 85.738,155.526 85.296,142.661 C84.821,128.838 84.397,125 83.345,125 C82.605,125 82,125.9 82,127 C82,128.333 81.333,129 80,129 C78.462,129 78,129.667 78,131.883 C78,133.926 77.417,134.919 76,135.29 C74.9,135.577 74,136.53 74,137.406 C74,138.283 73.325,139 72.5,139 C71.667,139 71,139.889 71,141 C71,142.333 70.333,143 69,143 C67.381,143 67,143.667 67,146.5 C67,149.333 66.619,150 65,150 C63.889,150 63,150.667 63,151.5 C63,152.325 62.325,153 61.5,153 C60.667,153 60,153.889 60,155 C60,156.333 59.333,157 58,157 C56.667,157 56,157.667 56,159 C56,160.111 55.333,161 54.5,161 C53.667,161 53,161.889 53,163 C53,164.1 52.345,165 51.545,165 C50.675,165 49.827,166.405 49.434,168.5 C49.058,170.505 48.184,172 47.389,172 C46.625,172 46,172.675 46,173.5 C46,174.633 47.222,175 51,175 C55.333,175 56,175.267 56,177 C56,178.111 55.333,179 54.5,179 C53.675,179 53,179.675 53,180.5 C53,181.7 51.5,182 45.5,182 C39.5,182 38,181.7 38,180.5 C38,179.675 37.325,179 36.5,179 C35.452,179 35,177.944 35,175.5 C35,173.056 35.452,172 36.5,172 C37.333,172 38,171.111 38,170 C38,168.667 38.667,168 40,168 C41.619,168 42,167.333 42,164.5 C42,162.187 42.469,161 43.383,161 C44.144,161 45.002,160.1 45.29,159 C45.577,157.9 46.53,157 47.406,157 C48.333,157 49,156.163 49,155 C49,153.889 49.667,153 50.5,153 C51.325,153 52,152.325 52,151.5 C52,150.675 52.85,150 53.889,150 C55.255,150 55.959,149.033 56.434,146.5 C56.827,144.405 57.675,143 58.545,143 C59.345,143 60,142.1 60,141 C60,139.667 60.667,139 62,139 C63.111,139 64,138.333 64,137.5 C64,136.675 64.625,136 65.389,136 C66.178,136 67.055,134.522 67.42,132.572 C67.94,129.804 68.634,129.02 71.032,128.493 C73.522,127.946 74,127.356 74,124.827 C74,122.654 74.558,121.667 76,121.29 C77.1,121.002 78,120.144 78,119.383 C78,118.623 78.717,118 79.594,118 C80.47,118 81.423,117.1 81.71,116 C81.998,114.9 82.856,114 83.617,114 C84.377,114 85,113.283 85,112.406 C85,111.53 85.9,110.577 87,110.29 C88.1,110.002 89,109.144 89,108.383 C89,107.623 89.675,107 90.5,107 C91.333,107 92,106.111 92,105 C92,103.667 92.667,103 94,103 C95.111,103 96,102.333 96,101.5 C96,100.675 96.717,100 97.594,100 C98.47,100 99.423,99.1 99.71,98 C100.074,96.608 101.074,96 103,96 C104.926,96 105.926,95.392 106.29,94 C106.577,92.9 107.53,92 108.406,92 C109.283,92 110,91.325 110,90.5 Z M94.25,52.685 C95.487,52.436 97.4,52.398 98.5,52.602 C99.6,52.806 101.063,52.979 101.75,52.986 C102.597,52.996 103,54.774 103,58.5 L103,64 L98.045,64 C93.175,64 93.08,64.059 92.434,67.5 C92.058,69.505 91.184,71 90.389,71 C89.625,71 89,71.9 89,73 C89,74.1 88.361,75 87.579,75 C86.798,75 85.862,76.35 85.5,78 C85.138,79.65 84.202,81 83.421,81 C82.639,81 82,81.9 82,83 C82,84.333 81.333,85 80,85 C78.667,85 78,85.667 78,87 C78,88.1 77.377,89 76.617,89 C75.856,89 74.998,89.9 74.71,91 C74.423,92.1 73.506,93 72.673,93 C71.813,93 70.882,94.261 70.518,95.916 C70.166,97.521 69.23,99.081 68.439,99.385 C67.648,99.689 67,100.626 67,101.469 C67,102.311 66.325,103 65.5,103 C64.675,103 64,103.717 64,104.594 C64,105.47 63.1,106.423 62,106.71 C60.9,106.998 60,107.803 60,108.5 C60,109.197 59.1,110.002 58,110.29 C56.9,110.577 56,111.53 56,112.406 C56,113.283 55.325,114 54.5,114 C53.667,114 53,114.889 53,116 C53,117.111 53.667,118 54.5,118 C55.548,118 56,119.056 56,121.5 C56,124.833 55.833,125 52.5,125 C50.122,125 49,125.461 49,126.439 C49,128.007 40.96,129.711 39.071,128.544 C36.894,127.198 38.242,118 40.617,118 C41.377,118 42,117.1 42,116 C42,114.667 42.667,114 44,114 C45.333,114 46,113.333 46,112 C46,110.889 46.667,110 47.5,110 C48.325,110 49,109.325 49,108.5 C49,107.667 49.889,107 51,107 C52.333,107 53,106.333 53,105 C53,103.889 53.667,103 54.5,103 C55.325,103 56,102.325 56,101.5 C56,100.667 56.889,100 58,100 C59.333,100 60,99.333 60,98 C60,96.9 60.625,96 61.389,96 C62.184,96 63.058,94.505 63.434,92.5 C63.827,90.405 64.675,89 65.545,89 C66.345,89 67,88.1 67,87 C67,85.667 67.667,85 69,85 C70.333,85 71,84.333 71,83 C71,81.889 71.667,81 72.5,81 C73.325,81 74,80.325 74,79.5 C74,78.667 74.889,78 76,78 C77.606,78 78,77.333 78,74.617 C78,72.074 78.497,71.103 80,70.71 C81.1,70.423 82,69.47 82,68.594 C82,67.717 82.675,67 83.5,67 C84.548,67 85,65.944 85,63.5 C85,60.667 85.381,60 87,60 C88.111,60 89,59.333 89,58.5 C89,57.675 89.675,57 90.5,57 C91.325,57 92,56.131 92,55.07 C92,53.869 92.85,52.968 94.25,52.685 Z M157,224 C157,225.619 156.333,226 153.5,226 C150.167,226 150,226.167 150,229.5 C150,232.333 150.381,233 152,233 C153.111,233 154,233.667 154,234.5 C154,235.325 154.675,236 155.5,236 C156.333,236 157,236.889 157,238 C157,239.333 157.667,240 159,240 C160.333,240 161,239.333 161,238 C161,236.889 161.667,236 162.5,236 C163.69,236 164,234.556 164,229 L164,222 L160.5,222 C157.667,222 157,222.381 157,224 Z"/>
</svg>

