<svg xmlns="http://www.w3.org/2000/svg" width="300" height="300" viewBox="0 0 300 300" version="1.1">
  <defs/>
  <path d="M154,49.594 C154,48.348 155.092,48 159,48 L164,48 L164,59 L160.5,59 C158.056,59 157,59.452 157,60.5 C157,61.325 156.325,62 155.5,62 C154.667,62 154,62.889 154,64 C154,65.333 153.333,66 152,66 C150.667,66 150,66.667 150,68 C150,69.111 149.333,70 148.5,70 C147.675,70 147,70.675 147,71.5 C147,72.333 146.111,73 145,73 C143.667,73 143,73.667 143,75 C143,76.333 142.333,77 141,77 C139.667,77 139,77.667 139,79 C139,80.111 138.333,81 137.5,81 C136.675,81 136,81.675 136,82.5 C136,83.333 135.111,84 134,84 C132.667,84 132,84.667 132,86 C132,87.1 131.377,88 130.617,88 C129.041,88 128.034,91 128.014,95.75 C128.004,97.966 127.523,99 126.5,99 C125.284,99 125,100.611 125,107.5 L125,116 L130.5,116 C134.722,116 136,115.652 136,114.5 C136,113.262 137.837,113 146.531,113 C154.97,113 157.177,112.702 157.638,111.5 C158.317,109.731 160.667,109.501 161.216,111.149 C161.705,112.616 185.342,112.473 185.833,111 C186.342,109.473 188.713,109.809 189.362,111.5 C189.678,112.325 190.574,113 191.352,113 C192.13,113 193.002,113.9 193.29,115 C193.577,116.1 194.53,117 195.406,117 C196.713,117 197,118.262 197,124 C197,129.197 197.346,131 198.345,131 C199.902,131 201,148.432 201,173.158 C201,185.684 201.234,188 202.5,188 C203.333,188 204,188.889 204,190 C204,191.111 203.333,192 202.5,192 C201.675,192 201,192.675 201,193.5 C201,194.325 201.675,195 202.5,195 C203.779,195 204,197.722 204,213.5 C204,229.278 204.221,232 205.5,232 C206.524,232 207.003,233.032 207.009,235.25 C207.013,237.037 207.304,240.887 207.655,243.805 C208.237,248.658 208.108,249.159 206.146,249.672 C204.966,249.981 204,250.856 204,251.617 C204,252.531 202.813,253 200.5,253 C197.667,253 197,252.619 197,251 C197,249.9 196.377,249 195.617,249 C194.101,249 193.035,246.032 193.014,241.75 C193.005,240.03 192.461,239 191.56,239 C190.622,239 190.013,237.709 189.81,235.292 L189.5,231.585 L170.5,231.804 C145.475,232.093 132,231.249 132,229.392 C132,228.626 131.1,228 130,228 C127.91,228 127.624,227.007 128.63,223.25 L129.233,221 L161.21,221 C192.346,221 193.201,220.947 193.71,219 C193.998,217.9 194.631,217 195.117,217 C196.384,217 196.21,214.237 194.916,213.805 C194.259,213.586 193.61,208.63 193.269,201.222 L192.706,189 L189.353,189 C186.096,189 186,188.883 186,184.916 L186,180.833 L173.962,181.166 C165.077,181.413 161.7,181.862 161.071,182.882 C160.436,183.911 156.611,184.395 146.109,184.772 L132,185.28 L132,181.756 C132,179.074 132.477,178.108 134,177.71 C135.1,177.423 136,176.47 136,175.594 C136,174.209 137.899,174 150.5,174 C162.361,174 165,173.741 165,172.58 C165,170.654 175.712,169.551 185.505,170.468 L193,171.171 L193,161.585 C193,153.732 192.729,152 191.5,152 C190.273,152 190,150.292 190,142.625 C190,131.489 189.246,127 187.375,127 C186.47,127 186,125.803 186,123.5 L186,120 L166,120 C149.166,120 146,120.23 146,121.455 C146,122.325 144.595,123.173 142.5,123.566 C137.186,124.563 137.961,129.527 143.597,130.584 C145.527,130.946 147,131.823 147,132.611 C147,133.619 148.441,134.002 152.25,134.009 C161.255,134.024 168,135.15 168,136.639 C168,137.519 169.197,138 171.389,138 C174.512,138 174.832,138.293 175.48,141.748 C175.867,143.809 176.705,145.842 177.342,146.266 C178.159,146.81 177.985,147.34 176.75,148.068 C175.787,148.635 175,149.752 175,150.55 C175,151.347 174.325,152 173.5,152 C172.675,152 172,151.325 172,150.5 C172,149.667 171.111,149 170,149 C168.667,149 168,148.333 168,147 C168,145.107 167.333,145 155.5,145 C145.056,145 143,144.753 143,143.5 C143,142.667 142.111,142 141,142 C139.667,142 139,141.333 139,140 C139,138.381 138.333,138 135.5,138 C133.056,138 132,137.548 132,136.5 C132,135.452 130.944,135 128.5,135 C125.278,135 125,135.238 125,138 Q125,141 126.5,141 C127.7,141 128,142.5 128,148.5 C128,154.5 127.7,156 126.5,156 C125.236,156 125,158.278 125,170.5 C125,182.722 125.236,185 126.5,185 C127.548,185 128,186.056 128,188.5 C128,190.944 127.548,192 126.5,192 C125.462,192 125,193.043 125,195.389 C125,198.47 124.682,198.837 121.5,199.434 C119.575,199.795 118,200.52 118,201.045 C118,201.57 117.1,202 116,202 C114.095,202 114,201.333 114,188 C114,176.761 114.272,174 115.381,174 C117.504,174 118.315,156.691 117.467,129.461 C116.881,110.632 116.467,106 115.368,106 C114.616,106 114,106.625 114,107.389 C114,108.184 112.505,109.058 110.5,109.434 C108.405,109.827 107,110.675 107,111.545 C107,112.345 106.1,113 105,113 C103.9,113 103,113.655 103,114.455 C103,115.325 101.595,116.173 99.5,116.566 C97.495,116.942 96,117.816 96,118.611 C96,119.532 94.82,120 92.5,120 C89.167,120 89,119.833 89,116.5 C89,113.167 89.167,113 92.5,113 C95.333,113 96,112.619 96,111 C96,109.667 96.667,109 98,109 C99.111,109 100,108.333 100,107.5 C100,106.675 100.675,106 101.5,106 C102.333,106 103,105.111 103,104 C103,102.381 103.667,102 106.5,102 C109.333,102 110,101.619 110,100 C110,98.667 110.667,98 112,98 C113.619,98 114,97.333 114,94.5 C114,92.187 114.469,91 115.383,91 C116.144,91 117.002,90.1 117.29,89 C117.603,87.803 118.654,87 119.906,87 C121.101,87 122,86.356 122,85.5 C122,84.675 122.675,84 123.5,84 C124.325,84 125,83.325 125,82.5 C125,81.675 125.717,81 126.594,81 C127.47,81 128.423,80.1 128.71,79 C128.998,77.9 129.856,77 130.617,77 C131.377,77 132,76.1 132,75 C132,73.667 132.667,73 134,73 C135.111,73 136,72.333 136,71.5 C136,70.675 136.675,70 137.5,70 C138.333,70 139,69.111 139,68 C139,66.889 139.667,66 140.5,66 C141.325,66 142,65.283 142,64.406 C142,63.53 142.9,62.577 144,62.29 C145.435,61.914 146,60.926 146,58.79 C146,56.654 146.565,55.665 148,55.29 C149.1,55.002 150,54.197 150,53.5 C150,52.803 150.9,51.998 152,51.71 C153.1,51.423 154,50.47 154,49.594 Z M193.688,231.646 C192.272,233.061 193.073,235 195.073,235 C196.471,235 197.041,234.457 196.823,233.333 C196.466,231.492 194.759,230.574 193.688,231.646 Z"/>
</svg>

