<svg xmlns="http://www.w3.org/2000/svg" width="300" height="300" viewBox="0 0 300 300" version="1.1">
  <defs/>
  <path d="M171.75,98.713 C173.813,98.488 180.225,98.349 186,98.402 L196.5,98.5 L196.816,102.92 C197.314,109.897 196.444,112 193.06,112 C190.65,112 190.047,111.493 189.5,109 C188.925,106.38 188.408,106 185.421,106 C183.047,106 182,106.459 182,107.5 C182,108.325 181.325,109 180.5,109 C179.348,109 179,110.278 179,114.5 C179,118.722 178.652,120 177.5,120 C175.21,120 175.714,122.692 178.122,123.322 C181.683,124.253 190,122.88 190,121.361 C190,120.299 192.311,120 200.5,120 L211,120 L211,123.361 C211,126.663 210.91,126.732 205.825,127.334 C202.979,127.671 200.296,128.522 199.863,129.224 C199.334,130.081 195.781,130.613 189.038,130.844 L179,131.187 L179,145 L182.5,145 C184.944,145 186,144.548 186,143.5 C186,142.278 187.667,142 195,142 L204,142 L204,150.5 C204,156.626 203.651,159.004 202.75,159.014 C202.063,159.021 200.488,159.299 199.25,159.63 C197.244,160.168 196.999,159.868 196.986,156.867 C196.967,152.006 195.972,149 194.383,149 C193.623,149 193,149.655 193,150.455 C193,151.325 191.595,152.173 189.5,152.566 C187.495,152.942 186,153.816 186,154.611 C186,155.375 185.1,156 184,156 C182.667,156 182,156.667 182,158 C182,159.111 181.333,160 180.5,160 C179.452,160 179,161.056 179,163.5 C179,165.944 179.452,167 180.5,167 C181.325,167 182,167.675 182,168.5 C182,169.583 183.111,170 186,170 C188.889,170 190,169.583 190,168.5 C190,167.367 191.222,167 195,167 C198.778,167 200,167.367 200,168.5 C200,169.333 200.889,170 202,170 C203.758,170 204,170.667 204,175.5 C204,179.516 203.627,181 202.617,181 C201.856,181 200.998,181.9 200.71,183 C200.124,185.24 197,185.767 197,183.625 C197,182.114 192.758,180.992 187.125,181.014 C182.021,181.033 179,182.001 179,183.617 C179,184.627 177.516,185 173.5,185 C169.425,185 168,185.367 168,186.415 C168,188.1 155.111,189.623 150.121,188.527 C147.495,187.95 147,187.378 147,184.921 C147,182.991 147.509,182 148.5,182 C149.325,182 150,181.146 150,180.101 C150,178.485 151.038,178.099 157,177.5 C161.995,176.998 164,176.396 164,175.399 C164,174.431 165.248,174 168.052,174 L172.105,174 L171.802,168.759 C171.569,164.709 171.103,163.443 169.75,163.186 C168.539,162.956 168,163.492 168,164.927 C168,166.679 167.38,167 164,167 C160.456,167 160,166.729 160,164.625 C160,160.254 161.237,156 162.508,156 C163.2,156 164.002,155.1 164.29,154 C164.671,152.544 165.654,152 167.906,152 L171,152 L171,138 L160.5,138 C152.094,138 150,138.283 150,139.421 C150,140.958 144.698,142.55 143.024,141.515 C141.892,140.815 141.697,136.733 142.63,133.25 C143.15,131.31 143.9,131 148.067,131 C151.572,131 153.161,130.534 153.85,129.304 C154.549,128.055 156.538,127.497 161.4,127.187 L168,126.767 L168,109 L164.5,109 C161.667,109 161,109.381 161,111 C161,112.333 160.333,113 159,113 C157.889,113 157,113.667 157,114.5 C157,115.69 155.556,116 150,116 L143,116 L143,112.5 C143,110.056 143.452,109 144.5,109 C145.325,109 146,108.381 146,107.625 C146,106.254 150.12,105 154.625,105 C156.069,105 157,104.412 157,103.5 C157,102.348 158.278,102 162.5,102 C166.62,102 168,101.639 168,100.56 C168,99.636 169.342,98.975 171.75,98.713 Z M200.71,201 C201.196,199.142 202.074,199 213.117,199 C223.323,199 225,199.225 225,200.594 C225,201.47 225.9,202.423 227,202.71 C228.1,202.998 229,203.856 229,204.617 C229,205.377 229.9,206 231,206 C232.333,206 233,206.667 233,208 C233,209.1 233.621,210 234.381,210 C235.421,210 235.936,212.57 236.472,220.433 C237.361,233.476 236.338,246 234.383,246 C233.469,246 233,247.188 233,249.5 C233,251.803 232.53,253 231.625,253 C230.254,253 229,257.12 229,261.625 C229,263.069 228.412,264 227.5,264 C226.675,264 225.994,264.563 225.986,265.25 C225.979,265.938 225.701,267.512 225.37,268.75 C224.816,270.817 225.102,271 228.883,271 L233,271 L233,275 C233,278.333 232.667,279 231,279 C229.889,279 229,279.667 229,280.5 C229,281.753 226.944,282 216.5,282 C206.056,282 204,282.247 204,283.5 C204,284.597 202.858,285.002 199.75,285.006 C189.647,285.02 179,286.321 179,287.541 C179,288.488 173.457,288.871 155.833,289.143 C138.449,289.411 132.563,289.812 132.25,290.75 C131.72,292.341 128.295,292.386 127.77,290.809 C127.536,290.108 124.625,289.444 120.686,289.193 L114,288.767 L114,285.384 C114,283.043 114.462,282 115.5,282 C116.325,282 117,281.381 117,280.625 C117,278.93 121.96,277.842 126,278.65 C127.65,278.98 129,279.869 129,280.625 C129,281.704 131.258,282 139.5,282 C147.689,282 150,281.701 150,280.639 C150,278.787 157.222,278.019 174.75,278.009 C186.746,278.001 189,277.763 189,276.5 C189,275.259 190.876,275 199.883,275 C209.926,275 210.807,274.845 211.29,273 C211.577,271.9 212.53,271 213.406,271 C214.283,271 215,270.325 215,269.5 C215,268.675 215.675,268 216.5,268 C217.523,268 218.004,266.966 218.014,264.75 C218.034,260 219.041,257 220.617,257 C221.531,257 222,255.813 222,253.5 C222,251.197 222.47,250 223.375,250 C224.746,250 226,245.88 226,241.375 C226,239.931 226.588,239 227.5,239 C228.7,239 229,237.5 229,231.5 C229,225.5 228.7,224 227.5,224 C226.363,224 226,222.767 226,218.906 C226,214.654 225.67,213.726 224,213.29 C222.9,213.002 222,212.144 222,211.383 C222,210.623 221.1,210 220,210 C218.889,210 218,209.333 218,208.5 C218,207.452 216.944,207 214.5,207 C212.056,207 211,207.452 211,208.5 C211,209.652 209.722,210 205.5,210 C201.484,210 200,210.373 200,211.383 C200,212.959 197,213.966 192.25,213.986 C189.123,213.999 189,213.849 189,210 C189,206.667 189.333,206 191,206 C192.111,206 193,205.333 193,204.5 C193,203.445 194.066,203 196.594,203 C199.346,203 200.31,202.532 200.71,201 Z M119.75,26.689 C120.713,26.438 122.906,26.18 124.625,26.116 C127.36,26.014 127.828,26.39 128.375,29.125 C128.719,30.844 129,33.319 129,34.625 C129,36.069 129.588,37 130.5,37 C131.742,37 132,38.889 132,48 C132,56.699 132.289,59 133.383,59 C134.899,59 135.965,61.968 135.986,66.25 C135.999,68.724 136.352,69 139.5,69 C141.944,69 143,68.548 143,67.5 C143,66.452 144.056,66 146.5,66 C148.944,66 150,65.548 150,64.5 C150,63.667 150.889,63 152,63 C153.111,63 154,63.667 154,64.5 C154,65.548 155.056,66 157.5,66 C160.333,66 161,66.381 161,68 C161,69.619 160.333,70 157.5,70 C155.056,70 154,70.452 154,71.5 C154,72.555 152.934,73 150.406,73 C147.654,73 146.69,73.468 146.29,75 C146.002,76.1 145.144,77 144.383,77 C143.623,77 143,77.675 143,78.5 C143,79.325 143.675,80 144.5,80 C145.333,80 146,80.889 146,82 C146,83.1 145.377,84 144.617,84 C143.856,84 142.998,84.9 142.71,86 C142.31,87.532 141.346,88 138.594,88 C136.066,88 135,88.445 135,89.5 C135,90.487 134.013,91 132.117,91 C130.074,91 129.081,91.583 128.71,93 C128.31,94.532 127.346,95 124.594,95 C121.153,95 121,95.149 121,98.5 C121,101.333 120.619,102 119,102 C117.9,102 117,102.639 117,103.421 C117,104.202 115.679,105.131 114.065,105.486 C111.861,105.97 110.97,106.861 110.486,109.065 C110.131,110.679 109.202,112 108.421,112 C107.639,112 107,112.9 107,114 C107,115.333 106.333,116 105,116 C103.667,116 103,116.667 103,118 C103,119.619 102.333,120 99.5,120 C96.667,120 96,120.381 96,122 C96,123.1 95.345,124 94.545,124 C93.675,124 92.827,125.405 92.434,127.5 C92.058,129.505 91.184,131 90.389,131 C89.625,131 89,131.625 89,132.389 C89,133.184 87.505,134.058 85.5,134.434 C82.409,135.014 82,135.447 82,138.139 C82,140.346 81.448,141.332 80,141.71 C78.9,141.998 78,142.856 78,143.617 C78,144.377 77.325,145 76.5,145 C75.588,145 75,145.931 75,147.375 C75,148.681 74.719,151.156 74.375,152.875 C73.78,155.849 73.52,156 69,156 C64.577,156 64.211,155.804 63.68,153.149 C62.938,149.438 63.869,146 65.617,146 C66.377,146 67,145.152 67,144.117 C67,143.074 67.893,142 69,141.71 C70.1,141.423 71,140.47 71,139.594 C71,138.717 71.675,138 72.5,138 C73.333,138 74,137.111 74,136 C74,134.667 74.667,134 76,134 C77.111,134 78,133.333 78,132.5 C78,131.675 78.675,131 79.5,131 C80.333,131 81,130.111 81,129 C81,127.667 81.667,127 83,127 C84.333,127 85,126.333 85,125 C85,123.9 85.639,123 86.421,123 C87.202,123 88.138,121.65 88.5,120 C88.878,118.278 89.804,117 90.673,117 C91.506,117 92.416,116.126 92.695,115.057 C92.991,113.927 94.416,112.848 96.102,112.478 C97.696,112.128 99,111.202 99,110.421 C99,109.639 99.85,109 100.889,109 C102.255,109 102.959,108.033 103.434,105.5 C104.002,102.475 104.476,102 106.934,102 C109.38,102 109.867,101.521 110.42,98.572 C110.936,95.825 111.64,95.018 113.967,94.507 C116.108,94.037 117.033,93.126 117.492,91.037 C117.849,89.409 118.941,87.987 120.057,87.695 C121.126,87.416 122,86.47 122,85.594 C122,84.717 122.675,84 123.5,84 C124.333,84 125,83.111 125,82 C125,80.889 125.667,80 126.5,80 C127.548,80 128,78.944 128,76.5 C128,74.056 127.548,73 126.5,73 C125.675,73 125,72.325 125,71.5 C125,70.417 123.889,70 121,70 C118.111,70 117,70.417 117,71.5 C117,72.716 115.389,73 108.5,73 C100.667,73 100,73.157 100,75 C100,76.758 99.333,77 94.5,77 L89,77 L89,66 L92.5,66 C95.333,66 96,65.619 96,64 C96,62.092 96.667,62 110.5,62 L125,62 L125,56.906 C125,52.654 124.67,51.726 123,51.29 C121.244,50.831 121,49.926 121,43.883 C121,38.431 120.688,37 119.5,37 C117.151,37 117.386,27.307 119.75,26.689 Z M136,197.397 C136,196.39 137.374,196 140.921,196 C145.583,196 145.876,196.159 146.505,199.022 C146.87,200.684 146.866,203.834 146.496,206.022 C145.866,209.751 145.61,210 142.412,210 C140.046,210 139,209.54 139,208.5 C139,207.367 137.778,207 134,207 C130.222,207 129,207.367 129,208.5 C129,209.7 127.5,210 121.5,210 C114.667,210 114,210.178 114,212 C114,213.111 114.667,214 115.5,214 C116.325,214 117,214.675 117,215.5 C117,216.325 116.325,217 115.5,217 C114.452,217 114,218.056 114,220.5 C114,222.944 113.548,224 112.5,224 C111.31,224 111,225.444 111,231 C111,236.556 111.31,238 112.5,238 C113.325,238 114,237.325 114,236.5 C114,234.359 134.783,234.272 135.604,236.41 C136.755,239.41 146,239.394 146,236.392 C146,235.326 147.76,235 153.5,235 C160.333,235 161,235.178 161,237 C161,238.111 160.333,239 159.5,239 C158.675,239 158,239.635 158,240.412 C158,241.28 156.459,242.085 154,242.5 C151.541,242.915 150,243.72 150,244.588 C150,245.752 146.835,246 132,246 L114,246 L114,251.5 C114,255.516 114.373,257 115.383,257 C116.959,257 117.966,260 117.986,264.75 C117.996,266.966 118.477,268 119.5,268 C120.487,268 121,268.987 121,270.883 C121,273.937 119.226,274.959 113.875,274.986 C110.984,275.001 110,272.433 110,264.875 C110,262.097 109.575,261 108.5,261 C107.35,261 107,259.728 107,255.55 C107,251.398 106.583,249.866 105.25,249.122 C103.723,248.269 103.459,246.159 103.18,232.572 L102.859,217 L100.18,217.014 C95.963,217.035 93,218.109 93,219.617 C93,220.564 91.739,221 89,221 L85,221 L85,210 L88.383,210 C90.926,210 91.897,209.503 92.29,208 C92.726,206.33 93.654,206 97.906,206 C101.767,206 103,205.637 103,204.5 C103,203.311 104.439,203 109.95,203 C115.53,203 117.094,202.655 117.88,201.25 C118.667,199.844 120.546,199.431 127.43,199.147 C133.933,198.88 136,198.458 136,197.397 Z M179,14 C179,12.194 179.667,12 185.883,12 C191.926,12 192.831,12.244 193.29,14 C193.577,15.1 194.53,16 195.406,16 C196.283,16 197,16.675 197,17.5 C197,18.652 195.722,19 191.5,19 C186.667,19 186,19.242 186,21 C186,22.917 186.667,23 202,23 L218,23 L218,30 L205.5,30 C195.524,30 193,30.279 193,31.383 C193,32.959 190,33.966 185.25,33.986 C183.034,33.996 182,34.477 182,35.5 C182,36.325 181.325,37 180.5,37 C179.462,37 179,38.043 179,40.383 C179,42.926 178.503,43.897 177,44.29 C175.301,44.734 175,45.654 175,50.406 C175,54.712 174.655,56 173.5,56 C172.284,56 172,57.611 172,64.5 L172,73 L180.594,73 C188.346,73 189.238,73.196 189.71,75 C189.998,76.1 190.856,77 191.617,77 C192.531,77 193,78.187 193,80.5 C193,82.944 192.548,84 191.5,84 C190.667,84 190,84.889 190,86 C190,88.921 183.054,88.921 182.29,86 C181.831,84.244 180.926,84 174.883,84 C168.667,84 168,84.194 168,86 C168,87.333 167.333,88 166,88 C164.9,88 164,88.626 164,89.392 C164,91.124 159.831,92.247 156.5,91.411 C154.22,90.838 154,90.309 154,85.392 C154,81.468 154.377,80 155.383,80 C156.144,80 157.002,79.1 157.29,78 C157.577,76.9 158.53,76 159.406,76 C160.283,76 161,75.325 161,74.5 C161,73.675 161.675,73 162.5,73 C163.711,73 164.003,71.411 164.014,64.75 C164.029,55.196 164.682,52 166.617,52 C167.531,52 168,50.813 168,48.5 C168,45.667 167.619,45 166,45 C164.889,45 164,45.667 164,46.5 C164,47.325 163.325,48 162.5,48 C161.675,48 161,47.377 161,46.617 C161,45.856 160.1,44.998 159,44.71 C157.33,44.274 157,43.346 157,39.094 C157,35.233 157.363,34 158.5,34 C159.333,34 160,33.111 160,32 C160,30.333 160.667,30 164,30 C167.333,30 168,29.667 168,28 C168,26.667 168.667,26 170,26 C171.333,26 172,25.333 172,24 C172,22.889 172.667,22 173.5,22 Q175,22 175,19 C175,16.667 175.444,16 177,16 C178.333,16 179,15.333 179,14 Z M117,110.5 C117,109.417 118.111,109 121,109 L125,109 L125,116 C125,121.556 125.31,123 126.5,123 C127.535,123 128,124.039 128,126.353 C128,134.277 129.304,142 130.642,142 C131.657,142 132,143.771 132,149 C132,154.556 132.31,156 133.5,156 C134.325,156 135,156.717 135,157.594 C135,158.47 135.862,159.413 136.915,159.688 C137.969,159.964 139.091,161.227 139.41,162.497 C140.239,165.799 138.994,171 137.375,171 C136.619,171 136,171.675 136,172.5 C136,173.544 134.949,174 132.545,174 C129.389,174 129.034,173.698 128.434,170.5 C128.073,168.575 127.205,167 126.505,167 C125.647,167 125.096,164.854 124.813,160.4 C124.503,155.538 123.945,153.549 122.696,152.85 C121.298,152.068 121,150.327 121,142.95 C121,135.95 120.695,134 119.601,134 C118.604,134 118.002,131.995 117.5,127 C116.998,122.005 116.396,120 115.399,120 C114.434,120 114,118.76 114,116 C114,113.111 114.417,112 115.5,112 C116.325,112 117,111.325 117,110.5 Z M176,247.5 C176,246.238 178.222,246 190,246 L204,246 L204,249.5 C204,251.944 204.452,253 205.5,253 C206.333,253 207,253.889 207,255 C207,256.111 206.333,257 205.5,257 C204.667,257 204,257.889 204,259 C204,260.333 203.333,261 202,261 C200.889,261 200,261.667 200,262.5 C200,263.325 199.352,264 198.56,264 C197.619,264 197.013,262.703 196.81,260.25 C196.576,257.423 196.069,256.521 194.75,256.583 C193.787,256.629 189.227,256.742 184.617,256.833 C177.149,256.982 176.176,257.218 175.71,259 C175.31,260.532 174.346,261 171.594,261 C169.066,261 168,261.445 168,262.5 C168,263.548 166.944,264 164.5,264 C162.024,264 161,263.552 161,262.469 C161,261.626 160.325,260.678 159.5,260.362 C158.675,260.045 158,259.207 158,258.5 C158,257.793 158.675,256.955 159.5,256.638 C160.325,256.322 161,255.374 161,254.531 C161,253.689 161.675,253 162.5,253 C163.325,253 164,252.381 164,251.625 C164,250.196 168.159,249 173.125,249 C175.014,249 176,248.486 176,247.5 Z"/>
</svg>

