<svg xmlns="http://www.w3.org/2000/svg" width="300" height="300" viewBox="0 0 300 300" version="1.1">
  <defs/>
  <path d="M141.079,102.719 C144.644,101.311 150,102.756 150,105.125 C150,106.156 150.675,107 151.5,107 C152.325,107 152.926,107.338 152.836,107.75 C152.509,109.244 154.239,114 155.108,114 C155.599,114 156,114.653 156,115.45 C156,116.248 156.787,117.359 157.75,117.92 C159.087,118.699 159.153,118.946 158.027,118.97 C157.036,118.99 157.282,119.509 158.777,120.557 C160,121.413 161,122.763 161,123.557 C161,124.351 161.45,125 162,125 C162.55,125 163,125.642 163,126.427 C163,127.211 163.748,127.999 164.661,128.177 C165.575,128.355 166.891,130.075 167.585,132 C168.438,134.363 168.884,134.851 168.958,133.5 C169.036,132.085 169.633,132.671 171,135.5 C172.398,138.395 172.974,138.947 173.082,137.5 C173.209,135.804 173.302,135.766 173.689,137.25 C173.941,138.213 174.705,139 175.387,139 C176.069,139 177.237,140.556 177.984,142.458 C178.73,144.36 179.931,146.143 180.653,146.421 C181.376,146.698 181.701,147.616 181.376,148.462 C180.96,149.546 181.408,150 182.893,150 C184.052,150 185,150.623 185,151.383 C185,152.144 185.9,153.002 187,153.29 C188.1,153.577 189,154.53 189,155.406 C189,156.283 189.675,157 190.5,157 C191.333,157 192,157.889 192,159 C192,160.333 192.667,161 194,161 C195.1,161 196,161.565 196,162.256 C196,162.947 197.395,164.129 199.101,164.884 C201.412,165.907 201.858,166.475 200.851,167.113 C199.94,167.691 200.558,167.974 202.75,167.985 C205.051,167.996 206,168.465 206,169.594 C206,170.47 206.9,171.423 208,171.71 C209.1,171.998 210,172.856 210,173.617 C210,174.377 210.645,175 211.433,175 C212.221,175 213.151,175.9 213.5,177 C213.849,178.1 214.779,179 215.567,179 C216.355,179 217,179.623 217,180.383 C217,181.589 219.245,182.825 222.5,183.411 C223.05,183.51 223.375,184.172 223.221,184.882 C223.068,185.591 223.844,186.408 224.947,186.696 C226.247,187.036 227.167,188.375 227.568,190.51 C228.599,196.004 227.85,197.533 224.267,197.254 C221.143,197.01 216,193.253 216,191.215 C216,190.634 214.65,189.862 213,189.5 C211.35,189.138 210,188.202 210,187.421 C210,186.639 209.073,186 207.941,186 C206.809,186 206.161,185.549 206.501,184.998 C206.842,184.447 205.941,183.548 204.5,183 C203.059,182.452 202.16,181.55 202.503,180.995 C202.846,180.44 202.311,179.684 201.313,179.315 C198.803,178.386 195.038,174.76 195.017,173.25 C195.003,172.182 192.297,171.479 189.75,171.882 C189.338,171.947 189,171.1 189,170 C189,168.667 188.333,168 187,168 C185.871,168 185,167.333 185,166.469 C185,165.626 184.325,164.678 183.5,164.362 C182.675,164.045 182,163.159 182,162.393 C182,161.627 181.1,161 180,161 C178.667,161 178,160.333 178,159 C178,157.667 177.333,157 176,157 C174.381,157 174,156.333 174,153.5 C174,150.167 173.833,150 170.5,150 C167.167,150 167,149.833 167,146.5 C167,143.964 166.561,143 165.406,143 C164.53,143 163.577,142.1 163.29,141 C163.002,139.9 162.32,139 161.774,139 C160.329,139 156.038,134.714 156.017,133.25 C156.008,132.563 155.356,132 154.57,132 C153.783,132 152.985,130.988 152.796,129.75 C152.607,128.512 151.92,127.606 151.269,127.736 C150.618,127.865 149.791,126.403 149.431,124.486 C149.072,122.569 148.265,120.992 147.639,120.983 C147.012,120.973 145.44,119.848 144.145,118.483 C141.271,115.453 138.996,115.299 138.268,118.085 C137.907,119.464 137.476,119.77 136.994,118.99 C136.533,118.245 136.021,118.78 135.604,120.44 C135.22,121.973 133.887,123.473 132.412,124.033 C131.019,124.563 130.158,125.447 130.499,125.998 C130.839,126.549 130.447,127 129.626,127 C128.806,127 127.82,127.992 127.435,129.203 C127.051,130.415 126.121,132.022 125.368,132.775 C124.616,133.527 124,135.011 124,136.071 C124,137.333 123.309,138 122,138 C120.381,138 120,138.667 120,141.5 C120,144.036 119.561,145 118.406,145 C117.53,145 116.577,145.9 116.29,147 C116.002,148.1 115.144,149 114.383,149 C113.623,149 113,149.9 113,151 C113,152.333 112.333,153 111,153 C109.444,153 109,153.667 109,156 Q109,159 107.5,159 C106.667,159 106,159.889 106,161 C106,162.333 105.333,163 104,163 C102.667,163 102,163.667 102,165 C102,166.1 101.345,167 100.545,167 C99.675,167 98.827,168.405 98.434,170.5 C97.959,173.033 97.255,174 95.889,174 C94.85,174 94,174.675 94,175.5 C94,176.325 93.325,177 92.5,177 C91.417,177 91,178.111 91,181 C91,183.636 90.552,185 89.687,185 C88.964,185 87.743,186.605 86.973,188.568 C85.814,191.522 85.45,191.823 84.857,190.318 C84.197,188.643 84.135,188.638 84.07,190.25 C84.012,191.696 83.045,192 78.5,192 L73,192 L73,186.968 C73,182.668 73.327,181.812 75.25,181.085 C76.487,180.617 77.762,180.387 78.081,180.572 C78.401,180.758 79.272,179.355 80.018,177.455 C80.763,175.555 81.964,174 82.687,174 C83.409,174 84,173.1 84,172 C84,170.667 84.667,170 86,170 C87.111,170 88,169.333 88,168.5 C88,167.675 88.675,167 89.5,167 C90.333,167 91,166.111 91,165 C91,163.667 91.667,163 93,163 C94.333,163 95,162.333 95,161 C95,159.889 95.667,159 96.5,159 C97.325,159 98,158.325 98,157.5 C98,156.645 98.968,155.95 100.25,155.884 C101.943,155.797 102.067,155.655 100.75,155.311 C99.787,155.059 99,154.388 99,153.82 C99,153.251 99.675,153.045 100.5,153.362 C101.584,153.777 102,153.252 102,151.469 C102,149.667 102.54,149 104,149 C105.333,149 106,148.333 106,147 C106,145.889 106.667,145 107.5,145 C108.806,145 109.575,142.419 109.09,139.664 C109.009,139.204 109.856,138.589 110.971,138.297 C112.087,138.005 113,137.13 113,136.352 C113,135.574 113.658,134.685 114.462,134.376 C115.266,134.068 116.195,132.959 116.527,131.914 C116.859,130.868 117.889,129.254 118.816,128.327 C119.742,127.401 120.5,126.161 120.5,125.571 C120.5,124.982 121.175,124.5 122,124.5 C122.825,124.5 123.644,123.487 123.82,122.25 C123.995,121.013 124.73,120 125.453,120 C126.532,120 127.473,118.175 128.031,115 C128.08,114.725 128.992,114.177 130.06,113.782 C131.127,113.387 132,112.15 132,111.032 C132,109.915 132.352,109.112 132.783,109.25 C133.213,109.388 134.937,108.101 136.612,106.39 C138.288,104.68 140.298,103.028 141.079,102.719 Z"/>
</svg>

