<svg xmlns="http://www.w3.org/2000/svg" width="300" height="300" viewBox="0 0 300 300" version="1.1">
  <defs/>
  <path d="M158.5,106 C158.84,105.45 161.341,105 164.059,105 C167.784,105 169,105.369 169,106.5 C169,107.512 170.012,108 172.109,108 C177.181,108 182.339,114.165 178.5,115.638 C177.675,115.955 177,116.811 177,117.54 C177,118.269 176.1,119.151 175,119.5 C173.9,119.849 173,120.566 173,121.092 C173,121.619 171.848,122.488 170.44,123.023 C169.032,123.558 168.158,124.447 168.499,124.998 C168.839,125.549 168.237,126 167.16,126 C165.356,126 165.143,127.01 164.459,138.75 C164.051,145.762 163.405,150.621 163.024,149.547 C162.45,147.93 162.217,148.166 161.666,150.922 C161.3,152.752 161,155.941 161,158.008 C161,160.926 160.552,161.884 159,162.29 C157.803,162.603 157,163.654 157,164.906 C157,166.058 156.438,166.888 155.75,166.75 C155.002,166.6 154.374,167.804 154.187,169.75 C153.951,172.19 153.391,173 151.937,173 C150.871,173 150,173.675 150,174.5 C150,175.325 149.325,176 148.5,176 C147.667,176 147,176.889 147,178 C147,179.292 146.333,180 145.117,180 C144.074,180 143,180.893 142.71,182 C142.423,183.1 141.47,184 140.594,184 C139.717,184 139,184.675 139,185.5 C139,186.325 138.283,187 137.406,187 C136.53,187 135.577,187.9 135.29,189 C135.002,190.1 134.306,191 133.744,191 C133.181,191 132.221,191.672 131.61,192.494 C131,193.315 128.371,194.275 125.77,194.627 C121.762,195.169 120.933,194.988 120.34,193.443 C119.905,192.309 120.133,191.456 120.945,191.185 C121.663,190.946 123.094,189.906 124.125,188.875 C125.156,187.844 126.398,187 126.883,187 C127.369,187 128.002,186.1 128.29,185 C128.577,183.9 129.53,183 130.406,183 C131.283,183 132,182.325 132,181.5 C132,180.667 132.889,180 134,180 C135.333,180 136,179.333 136,178 C136,176.889 136.667,176 137.5,176 C138.325,176 139,175.325 139,174.5 C139,173.675 139.717,173 140.594,173 C141.47,173 142.423,172.1 142.71,171 C142.998,169.9 143.806,169 144.505,169 C145.205,169 146.073,167.425 146.434,165.5 C146.827,163.405 147.675,162 148.545,162 C149.541,162 150,160.896 150,158.5 C150,156.197 150.47,155 151.375,155 C153.176,155 154,150.568 154,140.875 C154,134.542 153.706,133 152.5,133 C151.675,133 151,132.325 151,131.5 C151,130.313 149.572,130 144.147,130 C132.989,130 125,128.897 125,127.358 C125,126.611 124.1,126 123,126 C120.91,126 120.624,125.007 121.63,121.25 C121.985,119.927 123.009,119 124.117,119 C125.152,119 126.9,118.1 128,117 C129.238,115.762 131.333,115 133.5,115 C135.944,115 137,114.548 137,113.5 C137,112.391 138.239,111.974 141.75,111.9 C147.611,111.777 151.217,110.822 150.809,109.5 C150.639,108.95 152.525,108.23 155,107.9 C157.475,107.57 159.136,107.233 158.691,107.15 C158.246,107.068 158.16,106.55 158.5,106 Z"/>
</svg>

