<svg xmlns="http://www.w3.org/2000/svg" width="300" height="300" viewBox="0 0 300 300" version="1.1">
  <defs/>
  <path d="M172,21.5 C172,20.675 172.675,20 173.5,20 C174.325,20 175,20.398 175,20.883 C175,21.369 175.9,22.002 177,22.29 C178.699,22.734 179,23.654 179,28.406 L179,34 L175,34 C172.111,34 171,34.417 171,35.5 C171,36.325 170.325,37 169.5,37 C168.675,37 168,37.623 168,38.383 C168,39.144 167.1,40.002 166,40.29 C164.9,40.577 164,41.53 164,42.406 C164,43.569 164.972,44 167.594,44 C170.346,44 171.31,44.468 171.71,46 C172.143,47.656 173.074,48 177.117,48 C180.617,48 182,48.393 182,49.389 C182,50.184 183.495,51.058 185.5,51.434 C187.595,51.827 189,52.675 189,53.545 C189,54.532 190.089,55 192.383,55 C194.926,55 195.897,54.503 196.29,53 C196.846,50.873 199.216,50.493 204.875,51.625 C207.634,52.177 208,52.645 208,55.625 C208,58.333 207.605,59 206,59 C204.9,59 204,59.625 204,60.389 C204,61.184 202.505,62.058 200.5,62.434 C198.405,62.827 197,63.675 197,64.545 C197,65.541 195.896,66 193.5,66 C190.667,66 190,66.381 190,68 C190,69.333 189.333,70 188,70 C186.9,70 186,70.623 186,71.383 C186,72.144 185.1,73.002 184,73.29 C182.9,73.577 182,74.53 182,75.406 C182,76.283 181.325,77 180.5,77 C179.675,77 179,77.623 179,78.383 C179,79.144 178.1,80.002 177,80.29 C175.9,80.577 175,81.53 175,82.406 C175,83.333 174.163,84 173,84 C171.889,84 171,84.667 171,85.5 C171,86.325 170.325,87 169.5,87 C168.667,87 168,87.889 168,89 C168,90.333 167.333,91 166,91 C164.889,91 164,91.667 164,92.5 C164,93.325 163.283,94 162.406,94 C161.53,94 160.584,94.874 160.305,95.943 C160.009,97.073 158.584,98.152 156.898,98.522 C154.507,99.047 154,99.67 154,102.079 C154,104.009 154.509,105 155.5,105 C156.325,105 157,104.325 157,103.5 C157,102.278 158.667,102 166,102 C172.97,102 175,101.69 175,100.625 C175,99.096 179.228,98 185.125,98 C187.903,98 189,97.575 189,96.5 C189,95.477 190.034,94.996 192.25,94.986 C198.727,94.959 199.712,94.227 200.417,88.914 L201.069,84 L219.034,84 C233.664,84 237,83.743 237,82.617 C237,80.94 240.053,80.032 245.75,80.014 C248.855,80.004 250,79.596 250,78.5 C250,77.417 251.111,77 254,77 C256.889,77 258,77.417 258,78.5 C258,79.325 258.675,80 259.5,80 C260.333,80 261,80.889 261,82 C261,83.111 260.333,84 259.5,84 C258.667,84 258,84.889 258,86 C258,87.333 257.333,88 256,88 C254.9,88 254,88.619 254,89.375 C254,90.399 251.813,90.864 245.417,91.2 C239.485,91.511 236.564,92.087 235.959,93.066 C235.357,94.041 232.582,94.595 227.042,94.847 C221.188,95.112 219,95.575 219,96.546 C219,97.365 217.554,97.999 215.25,98.19 L211.5,98.5 L211.206,105.75 C210.981,111.296 210.57,113 209.456,113 C208.375,113 208,114.289 208,118 C208,121.778 208.367,123 209.5,123 C210.667,123 211,124.333 211,129 C211,133.667 210.667,135 209.5,135 C208.452,135 208,136.056 208,138.5 C208,140.944 208.452,142 209.5,142 C210.738,142 211,143.833 211,152.5 C211,161.167 210.738,163 209.5,163 C208.667,163 208,163.889 208,165 C208,166.333 207.333,167 206,167 C204.9,167 204,167.625 204,168.389 C204,169.184 202.505,170.058 200.5,170.434 C198.405,170.827 197,171.675 197,172.545 C197,173.709 195.223,174 188.117,174 C180.074,174 179.184,173.811 178.71,172 C178.423,170.9 177.47,170 176.594,170 C175.717,170 175,169.325 175,168.5 C175,167.667 174.111,167 173,167 C171.9,167 171,166.361 171,165.579 C171,164.798 169.696,163.872 168.102,163.522 C166.416,163.152 164.991,162.073 164.695,160.943 C164.416,159.874 163.47,159 162.594,159 C161.717,159 161,158.325 161,157.5 C161,156.675 160.377,156 159.617,156 C158.089,156 157.035,153.026 157.014,148.656 C157.004,146.647 157.587,145.659 159,145.29 C160.107,145 161,143.926 161,142.883 C161,141.848 161.675,141 162.5,141 C163.325,141 164,140.325 164,139.5 C164,138.667 164.889,138 166,138 C167.619,138 168,137.333 168,134.5 C168,131.167 168.167,131 171.5,131 C174.333,131 175,130.619 175,129 C175,127.381 175.667,127 178.5,127 C180.803,127 182,126.53 182,125.625 C182,124.052 186.259,123 192.625,123 L197,123 L197,112.5 C197,102.667 196.873,102 195,102 C193.667,102 193,102.667 193,104 C193,105.619 192.333,106 189.5,106 C187.056,106 186,106.452 186,107.5 C186,108.722 184.333,109 177,109 C170.004,109 168,109.308 168,110.383 C168,112.142 164.902,112.969 158.25,112.986 C154.416,112.996 153,113.379 153,114.404 C153,115.474 150.507,115.977 142.5,116.523 C134.583,117.063 132,117.578 132,118.619 C132,119.626 130.511,120 126.5,120 C122.278,120 121,120.348 121,121.5 C121,122.333 120.111,123 119,123 C117.889,123 117,122.333 117,121.5 C117,120.675 116.325,120 115.5,120 C114.348,120 114,118.722 114,114.5 C114,109.667 114.242,109 116,109 C117.1,109 118,108.388 118,107.639 C118,106.286 124.574,105.028 131.75,105.009 C133.968,105.003 135,104.524 135,103.5 C135,102.417 136.111,102 139,102 C142.333,102 143,101.667 143,100 C143,98.667 143.667,98 145,98 C146.111,98 147,97.333 147,96.5 C147,95.675 147.675,95 148.5,95 C149.325,95 150,94.345 150,93.545 C150,92.682 151.386,91.831 153.408,91.451 C155.579,91.044 156.997,90.12 157.314,88.906 C157.588,87.858 158.53,87 159.406,87 C160.509,87 161,86.079 161,84.012 C161,81.299 160.632,80.965 157,80.384 C154.587,79.998 153,79.2 153,78.372 C153,77.392 151.571,77 148,77 C144.092,77 143,76.652 143,75.406 C143,74.53 142.1,73.577 141,73.29 C139.497,72.897 139,71.926 139,69.383 L139,66 L144.5,66 C148.646,66 150,66.358 150,67.455 C150,68.325 151.405,69.173 153.5,69.566 C155.505,69.942 157,70.816 157,71.611 C157,72.523 158.164,73 160.389,73 C163.47,73 163.837,72.682 164.434,69.5 C165.08,66.059 165.175,66 170.045,66 C173.783,66 175,66.368 175,67.5 C175,68.333 175.889,69 177,69 C178.111,69 179,68.333 179,67.5 C179,66.675 179.675,66 180.5,66 C181.325,66 182.006,65.438 182.014,64.75 C182.021,64.063 182.299,62.487 182.63,61.25 C183.108,59.466 182.819,59 181.233,59 C180.074,59 179.013,58.159 178.71,57 C178.212,55.096 177.346,55 160.594,55 L143,55 L143,44 L146.5,44 C148.82,44 150,43.532 150,42.611 C150,41.816 151.495,40.942 153.5,40.566 C155.595,40.173 157,39.325 157,38.455 C157,37.655 157.655,37 158.455,37 C159.325,37 160.173,35.595 160.566,33.5 C160.942,31.495 161.816,30 162.611,30 C163.375,30 164,29.325 164,28.5 C164,27.667 164.889,27 166,27 C167.333,27 168,26.333 168,25 C168,23.667 168.667,23 170,23 C171.111,23 172,22.333 172,21.5 Z M139,144 C139,142.667 139.667,142 141,142 C142.111,142 143,142.667 143,143.5 C143,144.325 143.675,145 144.5,145 C145.573,145 146.046,146.211 146.162,149.25 C146.252,151.588 146.393,154.85 146.476,156.5 C146.559,158.15 146.711,163.438 146.813,168.25 C146.963,175.278 147.295,177 148.5,177 C149.7,177 150,178.5 150,184.5 C150,191.333 150.178,192 152,192 C153.806,192 154,192.667 154,198.883 C154,206.979 154.054,207.015 164.88,206.241 C169.982,205.876 172,205.344 172,204.366 C172,203.392 173.446,203 177.031,203 C180.54,203 182.234,202.554 182.628,201.527 C182.939,200.717 184.725,199.767 186.597,199.416 C188.527,199.054 190,198.177 190,197.389 C190,196.625 190.675,196 191.5,196 C192.333,196 193,195.111 193,194 C193,192.394 193.667,192 196.383,192 C198.926,192 199.897,191.503 200.29,190 C200.751,188.237 201.654,188 207.906,188 L215,188 L215,196 L209.5,196 C205.278,196 204,196.348 204,197.5 C204,198.333 203.111,199 202,199 C200.9,199 200,199.655 200,200.455 C200,201.325 198.595,202.173 196.5,202.566 C194.563,202.929 193,203.822 193,204.566 C193,205.31 191.437,206.203 189.5,206.566 C187.495,206.942 186,207.816 186,208.611 C186,209.565 184.746,210 182,210 C179.261,210 178,210.436 178,211.383 C178,213.06 174.947,213.968 169.25,213.986 C166.145,213.996 165,214.404 165,215.5 C165,216.325 165.675,217 166.5,217 C167.333,217 168,217.889 168,219 C168,220.333 168.667,221 170,221 C171.111,221 172,221.667 172,222.5 C172,223.548 173.056,224 175.5,224 C178.333,224 179,224.381 179,226 C179,227.619 179.667,228 182.5,228 C184.944,228 186,228.452 186,229.5 C186,230.412 186.931,231 188.375,231 C192.88,231 197,232.254 197,233.625 C197,234.625 198.5,235 202.5,235 C206.516,235 208,235.373 208,236.383 C208,238.103 211.077,238.969 217.25,238.986 C220.799,238.997 222,239.379 222,240.5 C222,241.739 223.844,242 232.594,242 C242.346,242 243.229,242.159 243.71,244 C243.998,245.1 244.856,246 245.617,246 C246.531,246 247,247.187 247,249.5 C247,251.976 246.552,253 245.469,253 C244.626,253 243.678,253.675 243.362,254.5 C243.045,255.325 242.159,256 241.393,256 C240.627,256 240,255.325 240,254.5 C240,253.348 238.722,253 234.5,253 C230.278,253 229,252.652 229,251.5 C229,250.328 227.633,249.997 222.75,249.986 C215.135,249.97 212,249.21 212,247.383 C212,246.329 210.219,246 204.5,246 C198.767,246 197,245.673 197,244.611 C197,243.816 195.505,242.942 193.5,242.566 C191.405,242.173 190,241.325 190,240.455 C190,239.358 188.646,239 184.5,239 C179.667,239 179,238.758 179,237 C179,235.381 178.333,235 175.5,235 C173.18,235 172,234.532 172,233.611 C172,232.816 170.505,231.942 168.5,231.566 C166.405,231.173 165,230.325 165,229.455 C165,228.57 164.021,228 162.5,228 C160.944,228 160,227.433 160,226.5 C160,225.675 159.325,225 158.5,225 C157.224,225 157,227.615 157,242.531 C157,257.192 157.246,260.157 158.5,260.638 C159.325,260.955 160,261.841 160,262.607 C160,263.373 159.325,264 158.5,264 C157.675,264 157,264.623 157,265.383 C157,266.144 156.1,267.002 155,267.29 C153.9,267.577 153,268.53 153,269.406 C153,270.283 152.325,271 151.5,271 C150.667,271 150,270.111 150,269 C150,267.9 149.377,267 148.617,267 C147.101,267 146.035,264.032 146.014,259.75 C146.005,257.978 145.466,257 144.5,257 C143.312,257 143,255.568 143,250.111 L143,243.223 L146.5,242.566 C149.871,241.934 151.619,239 148.625,239 C146.824,239 146,234.568 146,224.875 C146,218.542 145.706,217 144.5,217 C143.675,217 143,216.325 143,215.5 C143,214.675 142.325,214 141.5,214 C140.675,214 140,214.675 140,215.5 C140,216.583 138.889,217 136,217 C132.667,217 132,217.333 132,219 C132,220.333 131.333,221 130,221 C128.9,221 128,221.655 128,222.455 C128,223.325 126.595,224.173 124.5,224.566 C122.495,224.942 121,225.816 121,226.611 C121,227.375 120.377,228 119.617,228 C118.856,228 117.998,228.9 117.71,230 C117.423,231.1 116.47,232 115.594,232 C114.717,232 114,232.675 114,233.5 C114,234.333 113.111,235 112,235 C110.667,235 110,235.667 110,237 C110,238.333 109.333,239 108,239 C106.9,239 106,239.639 106,240.421 C106,241.202 104.65,242.138 103,242.5 C101.35,242.862 100,243.798 100,244.579 C100,245.361 99.1,246 98,246 C96.667,246 96,246.667 96,248 C96,249.333 95.333,250 94,250 C92.889,250 92,250.667 92,251.5 C92,252.336 91.11,253 89.99,253 C88.885,253 87.21,253.9 86.268,255 C85.326,256.1 83.981,257 83.278,257 C82.575,257 82,257.625 82,258.389 C82,259.184 80.505,260.058 78.5,260.434 C76.405,260.827 75,261.675 75,262.545 C75,263.345 74.1,264 73,264 C71.667,264 71,264.667 71,266 C71,267.333 70.333,268 69,268 C67.9,268 67,268.625 67,269.389 C67,270.184 65.505,271.058 63.5,271.434 C61.405,271.827 60,272.675 60,273.545 C60,274.345 59.1,275 58,275 C56.9,275 56,275.623 56,276.383 C56,277.899 53.032,278.965 48.75,278.986 C46.206,278.999 46,278.7 46,275 C46,271.667 46.333,271 48,271 C49.1,271 50,270.345 50,269.545 C50,268.675 51.405,267.827 53.5,267.434 C55.505,267.058 57,266.184 57,265.389 C57,264.525 58.09,264 59.883,264 C61.926,264 62.919,263.417 63.29,262 C63.603,260.803 64.654,260 65.906,260 C67.101,260 68,259.356 68,258.5 Q68,257 71,257 C73.333,257 74,256.556 74,255 C74,253.667 74.667,253 76,253 C77.1,253 78,252.375 78,251.611 C78,250.816 79.495,249.942 81.5,249.566 C83.595,249.173 85,248.325 85,247.455 C85,246.655 85.9,246 87,246 C88.333,246 89,245.333 89,244 C89,242.889 89.667,242 90.5,242 C91.325,242 92,241.325 92,240.5 C92,239.667 92.889,239 94,239 C95.1,239 96,238.345 96,237.545 C96,236.675 97.405,235.827 99.5,235.434 C102.033,234.959 103,234.255 103,232.889 C103,231.667 103.706,231 105,231 C106.111,231 107,230.333 107,229.5 C107,228.675 107.623,228 108.383,228 C109.144,228 110.002,227.1 110.29,226 C110.577,224.9 111.53,224 112.406,224 C113.283,224 114,223.325 114,222.5 C114,221.675 114.717,221 115.594,221 C116.47,221 117.423,220.1 117.71,219 C118.103,217.497 119.074,217 121.617,217 C124.333,217 125,216.606 125,215 C125,213.889 125.667,213 126.5,213 C127.325,213 128,212.325 128,211.5 C128,210.667 128.889,210 130,210 C131.333,210 132,209.333 132,208 C132,206.667 132.667,206 134,206 C135.111,206 136,205.333 136,204.5 C136,203.3 134.5,203 128.5,203 C122.5,203 121,203.3 121,204.5 C121,205.967 119.509,206.167 106.5,206.438 C103.862,206.492 103.462,206.892 103.187,209.75 C102.874,212.992 100,214.571 100,211.5 C100,210.417 98.889,210 96,210 C93.153,210 92,209.578 92,208.534 C92,207.534 90.438,206.862 87.079,206.416 C82.994,205.874 82.056,205.358 81.56,203.382 C81.231,202.072 81.239,199.896 81.578,198.547 C82.077,196.555 83.022,195.969 86.597,195.433 C89.019,195.07 93.063,195.082 95.584,195.46 C98.106,195.838 107.331,195.827 116.084,195.435 C128.492,194.879 132,194.422 132,193.361 C132,192.378 133.528,192 137.5,192 C141.638,192 143,191.641 143,190.55 C143,189.752 142.213,188.659 141.25,188.12 C139.844,187.333 139.431,185.454 139.147,178.57 C138.88,172.067 138.458,170 137.397,170 C136.279,170 136,167.608 136,158 C136,148 136.25,146 137.5,146 C138.333,146 139,145.111 139,144 Z M64,42.5 C64,41.675 64.675,41 65.5,41 C66.753,41 67,43.056 67,53.5 C67,63.944 66.753,66 65.5,66 C64.452,66 64,67.056 64,69.5 L64,73 L74.5,73 C82.921,73 85,72.718 85,71.575 C85,70.5 87.207,69.978 94,69.446 L103,68.742 L103.014,60.621 C103.032,49.58 103.546,48 107.117,48 C109.013,48 110,48.513 110,49.5 C110,50.333 110.889,51 112,51 C113.667,51 114,51.667 114,55 C114,57.739 114.436,59 115.383,59 C117.138,59 117.885,62.84 117.241,68.552 C116.919,71.407 116.249,73 115.37,73 C114.293,73 114,75.353 114,84 C114,93.111 113.742,95 112.5,95 C111.287,95 111,96.593 111,103.34 C111,123.43 109.685,145 108.46,145 C107.785,145 106.998,145.9 106.71,147 C106.31,148.532 105.346,149 102.594,149 C99.306,149 99,148.756 99,146.14 C99,139.927 100.287,134 101.636,134 C102.386,134 103,133.325 103,132.5 C103,131.675 102.325,131 101.5,131 C100.452,131 100,129.944 100,127.5 C100,125.056 100.452,124 101.5,124 C102.7,124 103,122.5 103,116.5 L103,109 L97.5,109 C93.278,109 92,108.652 92,107.5 C92,106.452 90.944,106 88.5,106 C86.056,106 85,106.452 85,107.5 C85,108.69 83.556,109 78,109 C72.707,109 71,109.337 71,110.383 C71,111.144 70.1,112.002 69,112.29 C67.468,112.69 67,113.654 67,116.406 C67,118.799 66.538,120 65.617,120 C64.856,120 63.998,120.9 63.71,122 C63.423,123.1 62.47,124 61.594,124 C60.504,124 60,124.912 60,126.883 C60,128.926 59.417,129.919 58,130.29 C56.468,130.69 56,131.654 56,134.406 C56,136.934 55.555,138 54.5,138 C53.368,138 53,139.217 53,142.955 C53,147.825 53.059,147.92 56.5,148.566 C58.437,148.929 60,149.822 60,150.566 C60,151.31 58.437,152.203 56.5,152.566 C54.495,152.942 53,153.816 53,154.611 C53,155.532 51.82,156 49.5,156 C46.964,156 46,155.561 46,154.406 C46,153.53 45.1,152.577 44,152.29 C42.312,151.848 42,150.926 42,146.383 C42,142.467 42.377,141 43.383,141 C44.899,141 45.965,138.032 45.986,133.75 C45.995,131.978 46.534,131 47.5,131 C48.538,131 49,129.957 49,127.617 C49,125.074 49.497,124.103 51,123.71 C52.532,123.31 53,122.346 53,119.594 C53,117.066 53.445,116 54.5,116 C55.325,116 56,115.325 56,114.5 C56,113.675 55.377,113 54.617,113 C53.856,113 52.998,112.1 52.71,111 C52.329,109.544 51.346,109 49.094,109 C46.225,109 46,108.746 46,105.5 C46,102.667 46.381,102 48,102 C49.1,102 50,101.374 50,100.608 C50,98.294 54.399,97.869 76.924,98.007 C88.791,98.079 99.513,98.108 100.75,98.069 C102.936,98.002 103,97.702 103,87.5 L103,77 L96,77 C90.763,77 89,77.343 89,78.361 C89,79.751 82.378,80.974 74.75,80.991 C72.087,80.997 71,81.435 71,82.5 C71,83.652 69.722,84 65.5,84 C61.468,84 60,84.371 60,85.392 C60,87.192 56.059,88.162 52.024,87.355 C49.198,86.79 48.924,86.437 49.506,84.11 C49.865,82.675 50.798,81.14 51.58,80.7 C52.508,80.178 53,78.185 53,74.95 C53,71.217 53.369,70 54.5,70 C55.706,70 56,68.458 56,62.125 C56,52.432 56.824,48 58.625,48 C59.381,48 60,47.1 60,46 C60,44.667 60.667,44 62,44 C63.111,44 64,43.333 64,42.5 Z M189,132.5 C189,133.51 187.99,134 185.906,134 C183.654,134 182.671,134.544 182.29,136 C181.897,137.503 180.926,138 178.383,138 C176.043,138 175,138.462 175,139.5 C175,140.325 174.365,141 173.588,141 C172.72,141 171.915,142.541 171.5,145 C171.085,147.459 170.28,149 169.412,149 C168.635,149 168,149.9 168,151 C168,152.111 168.667,153 169.5,153 C170.325,153 171,153.675 171,154.5 C171,155.333 171.889,156 173,156 C174.333,156 175,156.667 175,158 C175,159.333 175.667,160 177,160 C178.111,160 179,160.667 179,161.5 C179,162.325 179.623,163 180.383,163 C181.144,163 182.002,163.9 182.29,165 C182.726,166.67 183.654,167 187.906,167 C192.333,167 193,166.738 193,165 C193,163.667 193.667,163 195,163 C196.111,163 197,162.333 197,161.5 C197,160.675 197.675,160 198.5,160 C199.764,160 200,157.722 200,145.5 L200,131 L194.5,131 C190.278,131 189,131.348 189,132.5 Z"/>
</svg>

