<svg xmlns="http://www.w3.org/2000/svg" width="300" height="300" viewBox="0 0 300 300" version="1.1">
  <defs/>
  <path d="M163,43.399 C163,42.259 165.961,42 179,42 C192.113,42 195,42.255 195,43.412 C195,44.28 196.541,45.085 199,45.5 C202.036,46.013 203,46.636 203,48.088 C203,49.14 203.639,50 204.421,50 C205.202,50 206.138,51.35 206.5,53 C206.862,54.65 207.798,56 208.579,56 C209.635,56 210,57.415 210,61.5 C210,65.482 210.377,67 211.366,67 C212.342,67 212.874,68.991 213.231,73.98 C213.827,82.312 213.26,86 211.383,86 C210.39,86 210,87.409 210,91 C210,94.6 209.611,96 208.611,96 C207.816,96 206.942,97.495 206.566,99.5 C206.173,101.595 205.325,103 204.455,103 C203.311,103 203,104.604 203,110.5 C203,116.396 202.689,118 201.545,118 C200.667,118 199.823,119.426 199.415,121.599 C198.809,124.833 198.474,125.146 196.12,124.682 C192.386,123.946 188,124.991 188,126.617 C188,127.531 186.813,128 184.5,128 C182.056,128 181,127.548 181,126.5 C181,125.667 181.889,125 183,125 C184.619,125 185,124.333 185,121.5 C185,119.056 185.452,118 186.5,118 C187.333,118 188,117.111 188,116 C188,114.148 187.333,114 179,114 C172.004,114 170,114.308 170,115.383 C170,116.899 167.032,117.965 162.75,117.986 C160.978,117.995 160,118.534 160,119.5 C160,120.652 158.722,121 154.5,121 L149,121 L149,115.5 C149,110.667 148.758,110 147,110 C145.273,110 145,109.333 145,105.117 C145,101.074 144.656,100.143 143,99.71 C141.9,99.423 141,98.47 141,97.594 C141,96.717 140.325,96 139.5,96 C138.348,96 138,94.722 138,90.5 C138,85.667 137.758,85 136,85 C134.667,85 134,84.333 134,83 C134,81.889 133.333,81 132.5,81 C131.417,81 131,82.111 131,85 C131,88.333 130.667,89 129,89 C127.667,89 127,89.667 127,91 C127,92.333 126.333,93 125,93 C123.889,93 123,93.667 123,94.5 C123,95.325 122.325,96 121.5,96 C120.675,96 120,96.623 120,97.383 C120,98.144 119.1,99.002 118,99.29 C116.9,99.577 116,100.53 116,101.406 C116,102.283 115.375,103 114.611,103 C113.816,103 112.942,104.495 112.566,106.5 C112.173,108.595 111.325,110 110.455,110 C109.655,110 109,110.9 109,112 C109,113.1 108.377,114 107.617,114 C106.856,114 105.998,114.9 105.71,116 C105.423,117.1 104.47,118 103.594,118 C102.439,118 102,118.964 102,121.5 C102,124.333 101.619,125 100,125 C98.667,125 98,125.667 98,127 C98,128.111 97.333,129 96.5,129 C95.513,129 95,129.987 95,131.883 C95,133.926 94.417,134.919 93,135.29 C91.9,135.577 91,136.53 91,137.406 C91,138.283 90.375,139 89.611,139 C88.816,139 87.942,140.495 87.566,142.5 C87.173,144.595 86.325,146 85.455,146 C84.655,146 84,146.9 84,148 C84,149.111 83.333,150 82.5,150 C81.675,150 81,150.717 81,151.594 C81,152.47 80.1,153.423 79,153.71 C77.565,154.086 77,155.074 77,157.21 C77,159.346 76.435,160.335 75,160.71 C73.893,161 73,162.074 73,163.117 C73,164.152 72.325,165 71.5,165 C70.675,165 70,165.675 70,166.5 C70,167.333 69.111,168 68,168 C66.381,168 66,168.667 66,171.5 C66,173.896 65.541,175 64.545,175 C63.675,175 62.827,176.405 62.434,178.5 C62.058,180.505 61.184,182 60.389,182 C59.625,182 59,182.9 59,184 C59,185.333 58.333,186 57,186 C54.401,186 54.401,188.61 57,189.29 C59.622,189.976 59.622,193 57,193 C55.667,193 55,193.667 55,195 C55,196.333 54.333,197 53,197 C51.9,197 51,197.623 51,198.383 C51,199.669 48.16,200.955 45.25,200.986 C44.4,200.996 44,199.241 44,195.5 C44,190.667 44.242,190 46,190 C47.619,190 48,189.333 48,186.5 C48,183.964 48.439,183 49.594,183 C50.47,183 51.423,182.1 51.71,181 C51.998,179.9 52.856,179 53.617,179 C54.531,179 55,177.813 55,175.5 C55,172.964 55.439,172 56.594,172 C57.47,172 58.423,171.1 58.71,170 C58.998,168.9 59.806,168 60.505,168 C61.205,168 62.073,166.425 62.434,164.5 C62.827,162.405 63.675,161 64.545,161 C65.345,161 66,160.1 66,159 C66,157.9 66.655,157 67.455,157 C68.325,157 69.173,155.595 69.566,153.5 C69.942,151.495 70.816,150 71.611,150 C72.375,150 73,149.283 73,148.406 C73,147.53 73.9,146.577 75,146.29 C76.417,145.919 77,144.926 77,142.883 C77,140.987 77.513,140 78.5,140 C79.333,140 80,139.111 80,138 C80,136.667 80.667,136 82,136 C83.333,136 84,135.333 84,134 C84,132.9 84.625,132 85.389,132 C86.184,132 87.058,130.505 87.434,128.5 C87.827,126.405 88.675,125 89.545,125 C90.541,125 91,123.896 91,121.5 C91,118.667 91.381,118 93,118 C94.333,118 95,117.333 95,116 C95,114.9 95.623,114 96.383,114 C97.144,114 98.002,113.1 98.29,112 C98.577,110.9 99.53,110 100.406,110 C101.561,110 102,109.036 102,106.5 C102,104.056 102.452,103 103.5,103 C104.325,103 105,102.283 105,101.406 C105,100.53 105.9,99.577 107,99.29 C108.1,99.002 109,98.144 109,97.383 C109,96.623 109.9,96 111,96 C112.619,96 113,95.333 113,92.5 C113,89.964 113.439,89 114.594,89 C115.47,89 116.423,88.1 116.71,87 C116.998,85.9 117.856,85 118.617,85 C119.377,85 120,84.325 120,83.5 C120,82.675 120.717,82 121.594,82 C122.47,82 123.423,81.1 123.71,80 C124.103,78.497 125.074,78 127.617,78 L131,78 L131,60 L142,60 L142,67 C142,72.556 142.31,74 143.5,74 C144.652,74 145,75.278 145,79.5 L145,85 L148.383,85 C150.926,85 151.897,84.503 152.29,83 C152.577,81.9 153.53,81 154.406,81 C155.283,81 156,80.325 156,79.5 C156,78.452 157.056,78 159.5,78 C161.803,78 163,77.53 163,76.625 C163,74.761 167.497,73.997 178.375,74.014 C188.782,74.029 192,74.644 192,76.617 C192,77.377 192.655,78 193.455,78 C194.325,78 195.173,79.405 195.566,81.5 C195.942,83.505 196.816,85 197.611,85 C198.565,85 199,86.254 199,89 C199,92.333 199.333,93 201,93 C202.907,93 203,92.333 203,78.617 C203,65.074 202.883,64.203 201,63.71 C199.552,63.332 199,62.346 199,60.139 C199,57.447 198.591,57.014 195.5,56.434 C193.495,56.058 192,55.184 192,54.389 C192,53.262 188.986,53 176,53 C162.444,53 160,53.229 160,54.5 C160,55.538 158.957,56 156.611,56 C153.53,56 153.163,56.318 152.566,59.5 C151.966,62.698 151.611,63 148.455,63 C146.051,63 145,62.544 145,61.5 C145,60.675 144.377,60 143.617,60 C142.331,60 141.045,57.16 141.014,54.25 C141.006,53.563 141.9,53 143,53 C144.333,53 145,52.333 145,51 C145,49.667 145.667,49 147,49 C148.1,49 149,48.371 149,47.601 C149,46.604 151.005,46.002 156,45.5 C160.995,44.998 163,44.396 163,43.399 Z M192,133.5 C192,132.675 192.675,132 193.5,132 C194.325,132 195,132.675 195,133.5 C195,134.605 196.153,135 199.375,135 C205.741,135 210,136.052 210,137.625 C210,138.521 211.18,139 213.389,139 C216.451,139 216.839,139.327 217.416,142.403 C217.767,144.275 218.763,146.079 219.628,146.411 C220.949,146.918 221.089,148.138 220.499,154.007 C219.83,160.669 219.897,161 221.899,161 C223.054,161 224,161.619 224,162.375 C224,164.319 229.089,165.099 236.985,164.365 C245.515,163.572 253,164.599 253,166.561 C253,167.539 254.122,168 256.5,168 C259.333,168 260,168.381 260,170 C260,171.1 259.377,172 258.617,172 C257.856,172 256.998,172.9 256.71,174 C256.423,175.1 255.47,176 254.594,176 C253.717,176 253,176.675 253,177.5 C253,178.625 251.812,178.997 248.25,178.986 C242.077,178.969 239,178.103 239,176.383 C239,175.341 237.337,175.003 232.25,175.014 C224.152,175.03 221,175.759 221,177.617 C221,178.377 220.1,179 219,179 C217.242,179 217,179.667 217,184.5 C217,188.516 217.373,190 218.383,190 C219.894,190 220.965,192.965 220.986,197.205 C220.998,199.5 221.53,200.009 224.5,200.566 C227.5,201.129 228,201.618 228,203.995 C228,205.991 227.398,206.924 225.848,207.329 C223.734,207.882 223.709,208.133 224.382,221.735 C225.148,237.212 224.409,247 222.474,247 C221.786,247 220.933,248.542 220.58,250.428 C220.06,253.196 219.366,253.98 216.968,254.507 C215.336,254.866 214,255.798 214,256.579 C214,257.57 212.789,258 210,258 C207.111,258 206,258.417 206,259.5 C206,260.325 205.325,261 204.5,261 C203.675,261 203,260.325 203,259.5 C203,258.278 201.333,258 194,258 C185.667,258 185,257.852 185,256 C185,254.667 184.333,254 183,254 C181.889,254 181,253.333 181,252.5 C181,251.675 180.383,251 179.629,251 C178.702,251 178.047,249.135 177.606,245.238 C176.847,238.529 177.709,233 179.514,233 C180.209,233 181.073,231.425 181.434,229.5 C181.827,227.405 182.675,226 183.545,226 C184.345,226 185,225.1 185,224 C185,222.667 185.667,222 187,222 C188.1,222 189,221.361 189,220.579 C189,219.798 190.35,218.862 192,218.5 C193.65,218.138 195,217.202 195,216.421 C195,215.639 195.9,215 197,215 C198.333,215 199,214.333 199,213 C199,211.394 199.667,211 202.383,211 C204.926,211 205.897,210.503 206.29,209 C206.577,207.9 207.53,207 208.406,207 C209.283,207 210,206.325 210,205.5 C210,204.675 210.675,204 211.5,204 C212.325,204 213,203.325 213,202.5 C213,201.675 212.325,201 211.5,201 C210.333,201 210,199.667 210,195 C210,190.451 209.653,189 208.563,189 C207.673,189 207.007,187.763 206.813,185.75 C206.547,182.984 206.062,182.45 203.559,182.165 C198.604,181.601 192,182.97 192,184.561 C192,185.685 190.358,186 184.5,186 C178.781,186 177,186.329 177,187.383 C177,189.21 173.865,189.97 166.25,189.986 C161.367,189.997 160,190.328 160,191.5 C160,192.652 158.722,193 154.5,193 C150.484,193 149,193.373 149,194.383 C149,195.959 146,196.966 141.25,196.986 C139.15,196.995 138,197.491 138,198.389 C138,199.184 136.505,200.058 134.5,200.434 C132.405,200.827 131,201.675 131,202.545 C131,203.642 129.646,204 125.5,204 C121.278,204 120,204.348 120,205.5 C120,206.333 119.111,207 118,207 C116.889,207 116,206.333 116,205.5 C116,204.675 115.325,204 114.5,204 C113.452,204 113,202.944 113,200.5 C113,197.167 113.167,197 116.5,197 C119.333,197 120,196.619 120,195 C120,193.267 120.667,193 125,193 C128.666,193 130,192.619 130,191.572 C130,190.591 131.722,189.929 135.5,189.457 C139.188,188.996 141,188.313 141,187.385 C141,186.377 142.464,186 146.383,186 C150.926,186 151.848,185.688 152.29,184 C152.762,182.196 153.654,182 161.406,182 C168.057,182 170,181.687 170,180.616 C170,179.621 171.85,179.115 176.6,178.813 C181.462,178.503 183.451,177.945 184.15,176.696 C184.843,175.458 186.435,175 190.05,175 C193.646,175 195,174.614 195,173.588 C195,172.713 196.567,171.911 199.118,171.48 L203.236,170.784 L202.716,166.175 C202.431,163.64 201.702,161.401 201.098,161.199 C199.796,160.765 199.603,157 200.883,157 C201.369,157 202.002,156.1 202.29,155 C202.726,153.33 203.654,153 207.906,153 C212.854,153 213,152.917 213,150.117 C213,146.797 211.282,146.035 203.75,146.014 C200.201,146.003 199,145.621 199,144.5 C199,143.31 197.556,143 192,143 C186.709,143 185,143.337 185,144.383 C185,145.374 182.878,145.964 177.5,146.468 C172.032,146.98 170,147.554 170,148.585 C170,149.67 168.368,150 163,150 C156.667,150 156,150.19 156,152 C156,153.333 155.333,154 154,154 C152.889,154 152,154.667 152,155.5 C152,156.325 151.325,157 150.5,157 C149.667,157 149,157.889 149,159 C149,161.09 148.007,161.376 144.25,160.37 C142.576,159.921 142,159.028 142,156.883 C142,154.987 142.513,154 143.5,154 C144.555,154 145,152.934 145,150.406 C145,147.654 145.468,146.69 147,146.29 C148.1,146.002 149,145.203 149,144.513 C149,143.764 150.869,143.049 153.651,142.736 C156.449,142.42 158.66,141.572 159.201,140.606 C159.854,139.438 161.585,139 165.55,139 C169.486,139 171,138.621 171,137.636 C171,136.07 177.146,135 186.14,135 C190.682,135 192,134.663 192,133.5 Z M208.75,214.668 C207.787,214.931 207,215.831 207,216.667 C207,217.503 206.1,218.423 205,218.71 C203.9,218.998 203,219.856 203,220.617 C203,221.377 202.1,222 201,222 C199.9,222 199,222.655 199,223.455 C199,224.325 197.595,225.173 195.5,225.566 C192.5,226.129 192,226.618 192,228.995 C192,230.926 191.393,231.925 190,232.29 C188.468,232.69 188,233.654 188,236.406 C188,238.934 187.555,240 186.5,240 C185.675,240 185,240.675 185,241.5 C185,242.325 185.675,243 186.5,243 C187.356,243 188,243.899 188,245.094 C188,246.346 188.803,247.397 190,247.71 C191.1,247.998 192,248.856 192,249.617 C192,250.692 194.004,251 201,251 C209.333,251 210,250.852 210,249 C210,247.9 210.655,247 211.455,247 C212.325,247 213.173,245.595 213.566,243.5 C213.942,241.495 214.816,240 215.611,240 C216.722,240 217,237.499 217,227.5 C217,218.174 216.683,214.997 215.75,214.986 C215.063,214.979 213.6,214.796 212.5,214.581 C211.4,214.366 209.713,214.405 208.75,214.668 Z M96.75,146.666 C97.713,146.402 100.075,146.257 102,146.343 L105.5,146.5 L105.768,169.75 C105.996,189.501 106.26,193 107.518,193 C108.333,193 109,193.9 109,195 C109,196.111 108.333,197 107.5,197 C106.667,197 106,197.889 106,199 C106,200.111 106.667,201 107.5,201 C108.677,201 109,202.377 109,207.389 L109,213.777 L112.5,214.434 C115.698,215.034 116,215.389 116,218.545 C116,220.949 115.544,222 114.5,222 C113.675,222 113,222.619 113,223.375 C113,225.016 108.59,226.046 104.75,225.3 C102.011,224.769 102,224.733 102,216.383 C102,209.937 101.682,208 100.625,208 C98.617,208 98,203.39 98,188.375 C98,177.153 97.759,175 96.5,175 C95.238,175 95,172.786 95,161.073 C95,148.659 95.19,147.094 96.75,146.666 Z M98,62 C98,60.242 98.667,60 103.5,60 L109,60 L109,63.389 C109,66.47 108.682,66.837 105.5,67.434 C102.476,68.001 102,68.477 102,70.929 C102,72.926 101.407,73.922 100,74.29 C98.9,74.577 98,75.53 98,76.406 C98,77.283 97.325,78 96.5,78 C95.416,78 95,79.112 95,82.01 C95,84.782 94.383,86.548 93,87.732 C91.9,88.674 91,90.019 91,90.722 C91,91.425 90.325,92 89.5,92 C88.667,92 88,92.889 88,94 C88,95.333 87.333,96 86,96 C84.381,96 84,96.667 84,99.5 C84,102.036 83.561,103 82.406,103 C81.53,103 80.577,103.9 80.29,105 C80.002,106.1 79.144,107 78.383,107 C77.469,107 77,108.187 77,110.5 C77,113.333 76.619,114 75,114 C73.381,114 73,114.667 73,117.5 C73,119.944 72.548,121 71.5,121 C70.445,121 70,122.066 70,124.594 C70,127.346 69.532,128.31 68,128.71 C66.497,129.103 66,130.074 66,132.617 C66,134.957 65.538,136 64.5,136 C63.675,136 63,136.675 63,137.5 C63,138.333 62.111,139 61,139 C59.19,139 59,138.333 59,132 C59,126.444 59.31,125 60.5,125 C61.412,125 62,124.069 62,122.625 C62,118.12 63.254,114 64.625,114 C65.381,114 66,113.1 66,112 C66,110.9 66.655,110 67.455,110 C68.325,110 69.173,108.595 69.566,106.5 C69.927,104.575 70.795,103 71.495,103 C72.194,103 73.002,102.1 73.29,101 C73.577,99.9 74.53,99 75.406,99 C76.51,99 77,98.078 77,96 Q77,93 78.5,93 C79.333,93 80,92.111 80,91 C80,89.667 80.667,89 82,89 C83.667,89 84,88.333 84,85 C84,82.166 84.424,81 85.455,81 C86.325,81 87.173,79.595 87.566,77.5 C87.942,75.495 88.816,74 89.611,74 C90.497,74 91,72.879 91,70.906 C91,68.654 91.544,67.671 93,67.29 C94.1,67.002 95,66.144 95,65.383 C95,64.623 95.675,64 96.5,64 C97.333,64 98,63.111 98,62 Z M169.25,85.647 C168.012,85.918 167,86.783 167,87.57 C167,88.572 165.802,89 163,89 C160.111,89 159,89.417 159,90.5 C159,91.325 158.325,92 157.5,92 C156.667,92 156,92.889 156,94 C156,95.1 155.361,96 154.579,96 C153.042,96 151.45,101.302 152.485,102.976 C152.833,103.539 153.766,104 154.559,104 C155.352,104 156,104.644 156,105.432 C156,106.582 157.772,106.828 165,106.682 C170.932,106.562 174,106.114 174,105.367 C174,102.815 187.314,101.958 188.7,104.42 C189.842,106.448 194.996,107.622 195.014,105.858 C195.021,105.111 195.299,103.487 195.63,102.25 C196.117,100.435 195.824,100 194.117,100 C192.223,100 192,99.432 192,94.611 C192,89.266 191.972,89.217 188.573,88.58 C186.688,88.226 184.986,87.457 184.79,86.871 C184.41,85.73 172.988,84.831 169.25,85.647 Z M214,166 C214,167.619 214.667,168 217.5,168 C220.333,168 221,167.619 221,166 C221,164.381 220.333,164 217.5,164 C214.667,164 214,164.381 214,166 Z M196,97.5 C196,98.325 196.675,99 197.5,99 C198.325,99 199,98.325 199,97.5 C199,96.675 198.325,96 197.5,96 C196.675,96 196,96.675 196,97.5 Z"/>
</svg>

