<svg xmlns="http://www.w3.org/2000/svg" width="300" height="300" viewBox="0 0 300 300" version="1.1">
  <defs/>
  <path d="M197.25,87.745 C202.338,87.564 208.075,87.326 210,87.216 C216.042,86.873 224,88.187 224,89.528 C224,90.215 225.575,91.073 227.5,91.434 C229.595,91.827 231,92.675 231,93.545 C231,94.345 231.837,95 232.861,95 C234.34,95 234.839,95.993 235.295,99.845 C236.15,107.059 234.976,120 233.467,120 C232.783,120 231.927,121.575 231.566,123.5 C231.173,125.595 230.325,127 229.455,127 C228.655,127 228,127.9 228,129 C228,130.333 227.333,131 226,131 C224.889,131 224,131.667 224,132.5 C224,133.325 223.325,134 222.5,134 C221.667,134 221,134.889 221,136 C221,137.333 220.333,138 219,138 C217.667,138 217,138.667 217,140 C217,141.111 216.333,142 215.5,142 C214.675,142 214,142.675 214,143.5 C214,144.753 216.056,145 226.5,145 L239,145 L239,150.5 C239,155.333 238.758,156 237,156 C235.9,156 235,155.371 235,154.601 C235,152.596 223.404,151.624 209.953,152.503 C201.609,153.048 199,153.55 199,154.609 C199,155.374 198.325,156 197.5,156 C196.035,156 195.691,154.669 195.562,148.5 C195.5,145.514 195.469,145.499 189,145.185 C180.215,144.759 174,145.744 174,147.561 C174,148.539 172.878,149 170.5,149 L167,149 L167,158 C167,165.333 167.278,167 168.5,167 C169.799,167 170,170.889 170,196 C170,221.111 169.799,225 168.5,225 C167.675,225 167,225.675 167,226.5 C167,227.325 167.675,228 168.5,228 C169.325,228 170,228.675 170,229.5 C170,230.325 169.325,231 168.5,231 C167.667,231 167,231.889 167,233 C167,234.644 166.333,235 163.25,235.001 L159.5,235.002 L159.846,210.251 C160.323,176.162 159.235,149 157.392,149 C156.626,149 156,149.675 156,150.5 C156,151.627 154.794,152 151.147,152 C141.846,152 134,153.209 134,154.642 C134,155.7 131.677,156 123.5,156 C115.207,156 113,156.292 113,157.389 C113,158.184 111.505,159.058 109.5,159.434 L106,160.091 L106,183.045 C106,202.783 106.21,206 107.5,206 C108.538,206 109,207.043 109,209.383 C109,213.077 107.514,213.96 101.25,213.986 L98,214 L98,160 L92.5,160 C88.278,160 87,160.348 87,161.5 C87,162.678 85.617,163 80.55,163 C75.446,163 73.895,163.365 73.12,164.75 C72.333,166.156 70.454,166.569 63.57,166.853 L55,167.205 L55,163.103 C55,159.667 55.325,159 57,159 C58.111,159 59,158.333 59,157.5 C59,156.262 60.833,156 69.5,156 C77.742,156 80,155.704 80,154.625 C80,152.94 84.342,152 92.125,152 L98,152 L98,138 L91,138 L91,132.5 C91,127.667 91.242,127 93,127 C94.111,127 95,126.333 95,125.5 C95,124.675 95.675,124 96.5,124 C97.754,124 98,121.934 98,111.406 C98,99.654 98.134,98.778 100,98.29 C101.1,98.002 102,97.144 102,96.383 C102,95.394 103.392,95 106.883,95 C111.102,95 111.849,95.306 112.37,97.25 C113.376,101.007 113.09,102 111,102 C109.333,102 109,102.667 109,106 C109,108.889 108.583,110 107.5,110 C106.367,110 106,111.222 106,115 L106,120 L116.5,120 C125.441,120 127,119.763 127,118.406 C127,117.53 127.9,116.577 129,116.29 C130.647,115.859 131,114.926 131,111 C131,107.074 131.353,106.141 133,105.71 C134.1,105.423 135,104.47 135,103.594 C135,102.439 135.964,102 138.5,102 C140.896,102 142,102.459 142,103.455 C142,104.325 143.405,105.173 145.5,105.566 C150.213,106.45 150.052,108.792 145.25,109.19 C141.826,109.473 141.473,109.783 141.187,112.75 C140.886,115.867 141.019,116 144.437,116 C146.937,116 148,115.553 148,114.5 C148,113.302 149.485,113 155.366,113 L162.731,113 L163.24,120.113 C163.53,124.162 164.281,127.556 164.983,127.99 C165.662,128.409 166.452,130.833 166.739,133.376 L167.26,138 L176.13,138 C183.348,138 185,137.721 185,136.5 C185,135.675 185.675,135 186.5,135 C187.667,135 188,133.667 188,129 C188,124.333 187.667,123 186.5,123 C185.238,123 185,120.778 185,109 C185,97.222 185.238,95 186.5,95 C187.545,95 188,93.949 188,91.538 L188,88.075 Z M202.16,164.678 C202.756,163.613 204.36,163 206.55,163 C209.333,163 210,163.386 210,165 C210,166.111 209.333,167 208.5,167 C207.675,167 207,167.635 207,168.412 C207,169.28 205.459,170.085 203,170.5 C199.404,171.108 199,171.47 199,174.088 C199,176.01 198.49,177 197.5,177 C196.348,177 196,178.278 196,182.5 L196,188 L199.5,188 C201.841,188 203,187.534 203,186.594 C203,185.499 205.272,185.111 213.25,184.844 C229.386,184.303 239,184.961 239,186.606 C239,187.532 240.174,188 242.5,188 L246,188 L246,197 C246,204.084 245.699,206 244.588,206 C243.72,206 242.915,207.541 242.5,210 C242.085,212.459 241.28,214 240.412,214 C239.635,214 239,214.623 239,215.383 C239,216.144 238.1,217.002 237,217.29 C235.9,217.577 235,218.53 235,219.406 C235,220.333 234.163,221 233,221 C229.251,221 230.85,223.799 235,224.5 C237.459,224.915 239,225.72 239,226.588 C239,227.365 239.9,228 241,228 C242.163,228 243,228.667 243,229.594 C243,230.47 242.1,231.423 241,231.71 C239.9,231.998 239,232.856 239,233.617 C239,234.721 236.462,235 226.406,235 C214.654,235 213.778,235.134 213.29,237 C212.819,238.799 211.926,239 204.383,239 L196,239 L196,235 C196,232.111 196.417,231 197.5,231 C198.325,231 199,230.325 199,229.5 C199,228.452 197.944,228 195.5,228 L192,228 L192,220.5 C192,214.5 191.7,213 190.5,213 C189.675,213 188.991,212.887 188.98,212.75 C188.375,205.012 187.93,173.189 188.392,170.721 C189.042,167.26 189.086,167.234 195.134,166.797 C199.464,166.483 201.492,165.872 202.16,164.678 Z M203,96.383 C203,97.144 202.1,98.002 201,98.29 C199.119,98.782 199,99.654 199,112.906 C199,124.767 198.762,127 197.5,127 C196.675,127 196,127.675 196,128.5 C196,129.325 196.675,130 197.5,130 C198.356,130 199,130.899 199,132.094 C199,133.346 199.803,134.397 201,134.71 C203.318,135.316 203.726,138 201.5,138 C200.667,138 200,138.889 200,140 C200,141.556 200.667,142 203,142 C205.333,142 206,141.556 206,140 C206,138.667 206.667,138 208,138 C209.333,138 210,137.333 210,136 C210,134.667 210.667,134 212,134 C213.111,134 214,133.333 214,132.5 C214,131.675 214.675,131 215.5,131 C216.333,131 217,130.111 217,129 C217,127.9 217.655,127 218.455,127 C219.325,127 220.173,125.595 220.566,123.5 C220.927,121.575 221.797,120 222.5,120 C223.203,120 224.073,118.425 224.434,116.5 C224.827,114.405 225.675,113 226.545,113 C227.642,113 228,111.646 228,107.5 C228,102.667 227.758,102 226,102 C224.9,102 224,101.377 224,100.617 C224,99.856 223.1,98.998 222,98.71 C220.9,98.423 220,97.47 220,96.594 C220,95.717 219.325,95 218.5,95 C217.675,95 217,95.675 217,96.5 C217,97.325 216.325,98 215.5,98 C214.675,98 214,97.325 214,96.5 C214,95.348 212.722,95 208.5,95 C204.484,95 203,95.373 203,96.383 Z M217,193.383 C217,195.103 213.923,195.969 207.75,195.986 L203,196 L203,199.5 C203,201.944 202.548,203 201.5,203 C199.729,203 199.468,205.656 201.183,206.228 C201.934,206.478 202.526,209.976 202.805,215.811 C203.187,223.801 203.033,225 201.622,225 C200.73,225 200,225.675 200,226.5 C200,227.633 201.222,228 205,228 C209.333,228 210,227.733 210,226 C210,224.273 210.667,224 214.883,224 C218.926,224 219.857,223.656 220.29,222 C220.577,220.9 221.53,220 222.406,220 C223.283,220 224,219.325 224,218.5 C224,217.667 224.889,217 226,217 C227.333,217 228,216.333 228,215 C228,213.889 228.667,213 229.5,213 C230.325,213 231,212.325 231,211.5 C231,210.667 231.889,210 233,210 C234.822,210 235,209.333 235,202.5 C235,195.667 234.822,195 233,195 C231.889,195 231,194.333 231,193.5 C231,192.31 229.556,192 224,192 C218.707,192 217,192.337 217,193.383 Z M138,64 C138,62.148 138.667,62 147,62 C155.333,62 156,62.148 156,64 C156,65.1 156.623,66 157.383,66 C158.144,66 159.007,67.237 159.3,68.75 C160.046,72.59 159.016,77 157.375,77 C156.619,77 156,77.9 156,79 C156,80.111 155.333,81 154.5,81 C153.675,81 153,81.675 153,82.5 C153,83.333 152.111,84 151,84 C149.242,84 149,83.333 149,78.5 L149,73 L142.05,73 C136.554,73 134.901,73.355 134.15,74.696 C133.451,75.945 131.462,76.503 126.6,76.813 C121.85,77.115 120,77.621 120,78.616 C120,79.556 118.758,80 116.125,80 C108.696,80 106.164,80.978 105.475,84.114 C105.126,85.701 104.202,87 103.421,87 C102.639,87 102,87.9 102,89 C102,90.619 101.333,91 98.5,91 C95.167,91 95,90.833 95,87.5 C95,85.18 95.468,84 96.389,84 C97.184,84 98.058,82.505 98.434,80.5 C98.827,78.405 99.675,77 100.545,77 C101.345,77 102,76.1 102,75 C102,73.381 102.667,73 105.5,73 C107.944,73 109,72.548 109,71.5 C109,70.588 109.931,70 111.375,70 C115.88,70 120,68.746 120,67.375 C120,66.31 122.03,66 129,66 C137.333,66 138,65.852 138,64 Z M119,127.726 C118.175,128.038 117.14,128.902 116.7,129.647 C116.26,130.391 114.348,131 112.45,131 L109,131 L109,136.5 C109,140.722 108.652,142 107.5,142 C106.452,142 106,143.056 106,145.5 L106,149 L113,149 C118.273,149 120,148.661 120,147.625 C120,146.254 124.12,145 128.625,145 C130.949,145 131,144.807 131,136 L131,127 L125.75,127.079 C122.862,127.122 119.825,127.413 119,127.726 Z M112,172 C112,170.333 112.667,170 116,170 C119.333,170 120,170.333 120,172 C120,173.1 120.655,174 121.455,174 C122.325,174 123.173,175.405 123.566,177.5 C123.942,179.505 124.816,181 125.611,181 C126.375,181 127,181.9 127,183 C127,184.333 127.667,185 129,185 C130.111,185 131,185.667 131,186.5 C131,187.325 131.675,188 132.5,188 C133.333,188 134,188.889 134,190 C134,191.333 134.667,192 136,192 C137.333,192 138,192.667 138,194 C138,195.619 138.667,196 141.5,196 C143.944,196 145,196.452 145,197.5 C145,198.333 145.889,199 147,199 C149.09,199 149.376,199.993 148.37,203.75 C147.921,205.424 147.028,206 144.883,206 C142.987,206 142,205.487 142,204.5 C142,203.417 140.889,203 138,203 C135.261,203 134,202.564 134,201.617 C134,200.856 133.1,199.998 132,199.71 C130.9,199.423 130,198.47 130,197.594 C130,196.717 129.325,196 128.5,196 C127.667,196 127,195.111 127,194 C127,192.381 126.333,192 123.5,192 C120.167,192 120,191.833 120,188.5 C120,185.667 119.619,185 118,185 C116.667,185 116,184.333 116,183 C116,181.889 115.333,181 114.5,181 C113.675,181 113,180.311 113,179.469 C113,178.626 112.325,177.678 111.5,177.362 C109.833,176.722 109.428,174 111,174 C111.55,174 112,173.1 112,172 Z M145.852,123.703 C143.285,123.988 142.054,124.685 141.696,126.054 C141.416,127.124 140.47,128 139.594,128 C138.26,128 138,129.389 138,136.5 L138,145 L143.5,145 C147.722,145 149,144.652 149,143.5 C149,142.452 150.056,142 152.5,142 L156,142 L156,133 C156,126.474 155.656,123.996 154.75,123.986 C154.063,123.979 152.6,123.821 151.5,123.635 C150.4,123.45 147.859,123.48 145.852,123.703 Z"/>
</svg>

