<svg xmlns="http://www.w3.org/2000/svg" width="300" height="300" viewBox="0 0 300 300" version="1.1">
  <defs/>
  <path d="M102,71.369 C102,69.892 104.334,69.78 126.612,70.193 C148.302,70.594 151.335,70.847 152.161,72.324 C152.842,73.54 154.458,74 158.05,74 C162.333,74 163,74.269 163,76 C163,77.852 163.667,78 172,78 C179.209,78 181,78.29 181,79.455 C181,80.325 182.405,81.173 184.5,81.566 C186.425,81.927 188,82.797 188,83.5 C188,84.203 189.575,85.073 191.5,85.434 C193.595,85.827 195,86.675 195,87.545 C195,88.345 195.9,89 197,89 C198.333,89 199,89.667 199,91 C199,92.333 199.667,93 201,93 C202.333,93 203,93.667 203,95 C203,96.1 203.619,97 204.375,97 C205.131,97 206.02,98.35 206.35,100 C206.702,101.76 207.581,103 208.475,103 C209.619,103 210,104.14 210,107.559 C210,110.344 210.389,111.878 211,111.5 C211.55,111.16 212.067,111.809 212.15,112.941 C212.233,114.073 212.345,115.563 212.4,116.25 C212.455,116.938 211.938,117.388 211.25,117.25 C210.415,117.083 210,118.34 210,121.031 C210,123.878 209.508,125.251 208.326,125.705 C206.191,126.524 203,129.697 203,131 C203,131.55 202.058,132 200.906,132 C199.688,132 198.604,132.797 198.314,133.908 C198.04,134.957 196.911,136.051 195.807,136.34 C194.702,136.629 194.065,137.296 194.391,137.823 C194.716,138.35 193.411,139.075 191.491,139.436 C189.403,139.827 188,140.675 188,141.545 C188,142.532 186.911,143 184.617,143 C182.058,143 181.104,143.495 180.703,145.029 C180.411,146.144 179.796,146.991 179.336,146.91 C176.254,146.368 173,147.184 173,148.5 C173,149.69 171.556,150 166,150 C160.727,150 159,150.339 159,151.375 C159,152.733 154.889,154 150.482,154 C149.235,154 147.961,154.661 147.651,155.468 C147.208,156.62 144.552,156.996 135.294,157.218 L123.5,157.5 L123.21,166.938 C122.974,174.606 123.209,176.537 124.46,177.238 C125.723,177.944 126,180.429 126,191.05 C126,200.877 126.301,203.94 127.25,203.75 C128.083,203.583 128.667,205.333 129,209 C129.484,214.324 129.602,214.51 132.673,214.808 C135.336,215.066 135.898,214.744 136.173,212.808 C136.653,209.423 139.432,209.904 139.835,213.441 C140.312,217.635 139.041,225.143 137.965,224.478 C137.467,224.17 136.772,225.062 136.421,226.459 C136.019,228.06 135.083,229 133.892,229 C132.851,229 132,229.675 132,230.5 C132,232.394 130.116,232.465 129.399,230.599 C129.104,229.828 127.993,228.97 126.931,228.692 C125.548,228.331 125,227.309 125,225.094 C125,223.138 124.495,222 123.627,222 C122.707,222 122.093,220.317 121.764,216.893 C121.494,214.085 120.817,211.497 120.259,211.143 C119.163,210.448 118.185,205.169 117.824,198 C117.7,195.525 117.126,193.179 116.549,192.786 C115.212,191.877 115.272,192.622 115.125,175 C115.03,163.586 114.701,160.06 113.75,160.25 C112.785,160.443 112.443,155.262 112.25,137.5 C112.043,118.418 111.745,114.311 110.5,113.39 C109.278,112.485 109,109.383 109,96.64 L109,81 L105.5,81 C103.187,81 102,81.469 102,82.383 C102,83.144 101.1,84.002 100,84.29 C97.401,84.969 97.428,87.038 100.044,87.722 C101.791,88.179 102.055,88.962 101.865,93.128 C101.646,97.915 99.887,99.754 98.638,96.5 C98.322,95.675 97.374,95 96.531,95 C95.667,95 95,94.129 95,93 C95,91.648 94.333,91 92.941,91 C91.809,91 91.161,90.549 91.501,89.998 C91.842,89.447 90.968,88.558 89.56,88.023 C88.152,87.488 87,86.363 87,85.525 C87,84.686 86.325,84 85.5,84 C84.675,84 84,83.325 84,82.5 C84,81.675 84.717,81 85.594,81 C86.47,81 87.423,80.1 87.71,79 C88.001,77.888 89.074,77 90.126,77 C91.168,77 92.79,76.1 93.732,75 C94.798,73.755 96.682,73 98.722,73 C101.087,73 102,72.545 102,71.369 Z M123,79 C123,79.55 122.325,80 121.5,80 C120.675,80 120,80.85 120,81.889 C120,83.255 120.967,83.959 123.5,84.434 C126.082,84.918 127,85.603 127,87.045 C127,88.12 127.675,89 128.5,89 C131.023,89 130.167,90.741 127.289,91.464 C125.378,91.943 124.24,91.68 123.429,90.572 C121.934,88.527 117,88.472 117,90.5 C117,91.325 117.716,92 118.592,92 C119.855,92 120.138,92.98 119.963,96.75 C119.435,108.096 120.063,129.079 120.915,128.552 C121.433,128.233 122.141,132.77 122.544,138.993 L123.257,150 L133.579,150 C142.201,150 144.055,149.724 144.84,148.322 C145.509,147.127 147.539,146.516 151.889,146.202 C156.204,145.89 158,145.354 158,144.38 C158,143.374 159.491,143 163.5,143 C168.333,143 169,142.758 169,141 C169,139.333 169.667,139 173,139 C175.889,139 177,138.583 177,137.5 C177,136.58 177.935,136 179.418,136 C182.765,136 185.105,134.978 184.394,133.828 C184.066,133.299 184.744,132.618 185.899,132.316 C187.055,132.014 188,131.144 188,130.383 C188,129.623 188.69,129 189.532,129 C190.375,129 191.387,128.213 191.782,127.25 C192.459,125.599 194.002,124.796 196.67,124.706 C197.313,124.684 198.121,123.167 198.465,121.333 C198.834,119.37 199.688,118 200.545,118 C202.639,118 202.597,108.443 200.5,107.638 C199.675,107.322 199,106.149 199,105.031 C199,103.914 198.57,103 198.045,103 C196.805,103 192,98.195 192,96.955 C192,96.43 191.1,96 190,96 C188.9,96 188,95.345 188,94.545 C188,93.675 186.595,92.827 184.5,92.434 C182.495,92.058 181,91.184 181,90.389 C181,89.435 179.745,89 176.99,89 C174.218,89 172.452,88.383 171.268,87 C169.957,85.469 168.318,85 164.278,85 C160.493,85 159,84.615 159,83.639 C159,82.286 152.426,81.028 145.25,81.009 C143.032,81.003 142,80.524 142,79.5 C142,78.272 140.278,78 132.5,78 C126.833,78 123,78.404 123,79 Z M113,79 C113,79.55 113.675,80 114.5,80 C115.325,80 116,79.55 116,79 C116,78.45 115.325,78 114.5,78 C113.675,78 113,78.45 113,79 Z M131.269,216.693 C132.242,216.947 133.592,216.93 134.269,216.656 C134.946,216.382 134.15,216.175 132.5,216.195 C130.85,216.215 130.296,216.439 131.269,216.693 Z"/>
</svg>

