<svg xmlns="http://www.w3.org/2000/svg" width="300" height="300" viewBox="0 0 300 300" version="1.1">
  <defs/>
  <path d="M120,76.702 C120.825,76.377 123.075,76.198 125,76.305 C128.296,76.489 128.5,76.704 128.5,80 C128.5,83.323 128.31,83.516 124.75,83.81 C122.297,84.013 121,84.619 121,85.56 C121,86.616 122.299,87 125.875,87 C131.869,87 137.126,87.987 136.504,88.994 C136.248,89.407 140.081,90.061 145.02,90.448 C151.648,90.966 154,91.512 154,92.53 C154,93.315 155.509,94.192 157.5,94.566 C159.425,94.927 161,95.797 161,96.5 C161,97.203 162.575,98.073 164.5,98.434 C166.595,98.827 168,99.675 168,100.545 C168,101.345 168.9,102 170,102 C171.333,102 172,102.667 172,104 C172,105.1 172.625,106 173.389,106 C174.184,106 175.058,107.495 175.434,109.5 C175.827,111.595 176.675,113 177.545,113 C178.345,113 179,113.9 179,115 C179,116.111 179.667,117 180.5,117 C181.325,117 182.034,117.787 182.077,118.75 C182.227,122.193 182.841,123.984 184.409,125.551 C185.469,126.612 186.023,129.038 186.07,132.821 C186.118,136.695 186.393,137.864 186.935,136.5 C187.557,134.932 187.99,135.746 188.938,140.263 C189.603,143.433 190.564,145.769 191.074,145.454 C191.629,145.111 192,152.307 192,163.441 C192,177.109 191.691,181.934 190.828,181.75 C190.183,181.612 189.155,183.21 188.544,185.299 C187.932,187.389 187.092,188.759 186.676,188.343 C186.261,187.927 185.661,188.58 185.344,189.794 C184.997,191.12 183.987,192 182.81,192 C179.576,192 181.123,195.194 185,196.521 C187.89,197.51 188.151,197.811 186.5,198.244 C185.4,198.532 186.905,198.82 189.844,198.884 C194.292,198.981 195.275,199.335 195.71,201 C196.087,202.441 197.109,203.02 199.367,203.07 C201.09,203.109 203.4,203.527 204.5,204 L206.5,204.859 L204.5,205.033 C203.306,205.137 204.012,205.608 206.25,206.203 C208.313,206.75 210,207.779 210,208.488 C210,209.197 211.575,210.073 213.5,210.434 C215.429,210.796 217,211.691 217,212.429 C217,213.165 217.926,214.009 219.058,214.305 C220.836,214.77 221.074,215.501 220.808,219.672 C220.502,224.464 220.474,224.5 217,224.5 C214.733,224.5 213.588,224.06 213.75,223.25 C213.888,222.563 213.2,222 212.222,222 C211.244,222 209.732,221.167 208.86,220.15 C207.989,219.132 205.414,218.002 203.138,217.638 C200.437,217.206 199,216.459 199,215.488 C199,214.464 197.945,214 195.617,214 C193.074,214 192.103,213.503 191.71,212 C191.329,210.544 190.346,210 188.094,210 C186.121,210 185,209.497 185,208.611 C185,207.823 183.527,206.946 181.597,206.584 C179.725,206.233 177.939,205.283 177.628,204.473 C176.838,202.414 160,202.307 160,204.361 C160,205.744 153.388,206.973 145.857,206.991 C143.547,206.997 142.003,207.549 141.638,208.5 C141.248,209.518 139.652,210 136.671,210 C130.254,210 122.97,208.857 123.538,207.939 C124.072,207.074 122.48,206.508 116.847,205.56 C114.837,205.222 112.939,204.283 112.628,203.473 C112.278,202.56 110.719,202 108.531,202 C106.147,202 105,201.539 105,200.579 C105,199.798 103.65,198.862 102,198.5 C100.278,198.122 99,197.196 99,196.327 C99,195.494 98.148,194.59 97.107,194.318 C96.023,194.034 94.973,192.617 94.65,191 C94.223,188.863 93.346,188.015 91.043,187.509 C89.369,187.142 88,186.302 88,185.643 C88,184.984 87.1,183.674 86,182.732 C84.9,181.79 84,179.89 84,178.51 C84,176.946 83.435,176 82.5,176 C80.353,176 80.302,159.49 82.446,158.29 C83.466,157.719 84.089,154.685 84.561,147.991 C85.007,141.671 85.705,138.121 86.649,137.365 C87.429,136.741 88.34,133.929 88.673,131.115 C89.07,127.765 89.748,126 90.639,126 C91.597,126 92,124.585 92,121.222 C92,117.682 92.518,116.001 94,114.732 C95.383,113.548 96,111.782 96,109.01 C96,106.223 96.431,105 97.412,105 C98.659,105 100.755,98.015 100.188,95.75 C100.084,95.338 100.645,95 101.433,95 C102.221,95 103.138,94.142 103.471,93.092 C103.804,92.043 104.734,90.932 105.538,90.624 C106.342,90.315 107,89.149 107,88.031 C107,86.914 107.599,86 108.331,86 C109.063,86 110.269,84.866 111.01,83.481 C111.99,81.65 112.579,81.309 113.164,82.231 C113.749,83.152 113.974,83.021 113.985,81.75 C113.993,80.787 114.653,80 115.45,80 C116.248,80 117.26,79.391 117.7,78.647 C118.14,77.902 119.175,77.027 120,76.702 Z M114.982,94.833 C114.442,95.017 114,96.015 114,97.052 C114,98.317 113.506,98.748 112.5,98.362 C111.55,97.997 111,98.375 111,99.393 C111,100.277 111.675,101 112.5,101 C113.537,101 114,102.042 114,104.375 C114,107.299 113.613,107.827 111.1,108.33 C105.886,109.373 103.334,112.787 102.789,119.45 C102.521,122.722 101.784,125.572 101.151,125.783 C100.518,125.994 99.955,127.592 99.9,129.333 C99.756,133.914 98.502,137.539 97.161,137.25 C96.403,137.087 96,138.709 96,141.929 C96,144.963 95.427,147.43 94.509,148.348 C93.379,149.478 93.318,149.961 94.259,150.341 C95.017,150.647 94.847,150.873 93.821,150.921 C92.409,150.987 92.091,152.39 91.821,159.75 C91.424,170.568 91.745,173 93.57,173 C94.795,173 95.595,176.23 95.118,179.25 C95.053,179.662 95.9,180 97,180 C98.333,180 99,180.667 99,182 C99,183.111 99.667,184 100.5,184 C101.325,184 102,184.675 102,185.5 C102,186.333 102.889,187 104,187 C105.333,187 106,187.667 106,189 C106,190.305 106.667,191 107.918,191 C110.872,191 113,192.074 113,193.563 C113,194.544 114.978,194.993 120.25,195.206 C125.196,195.407 127.427,195.879 127.269,196.692 C126.939,198.399 134.638,199.33 144.096,198.726 C148.509,198.444 152.278,198.053 152.472,197.857 C152.665,197.661 152.586,196.262 152.295,194.75 C151.879,192.585 151.207,191.997 149.133,191.986 C145.309,191.967 141.94,190.906 142.552,189.916 C143.084,189.055 141.71,188.632 134.722,187.507 C132.644,187.173 131.208,186.472 131.531,185.949 C131.877,185.39 129.607,185 126,185 C122.479,185 120.126,185.395 120.457,185.931 C120.774,186.443 120.583,187.14 120.033,187.479 C118.591,188.371 111.913,186.949 112.568,185.89 C112.87,185.401 112.191,185 111.059,185 C109.321,185 109,184.372 109,180.969 C109,178.041 109.479,176.761 110.75,176.294 C111.713,175.94 112.836,175.097 113.247,174.42 C114.299,172.686 133.196,173.682 134.256,175.527 C134.672,176.251 136.472,177.16 138.256,177.547 C140.04,177.935 141.782,178.694 142.126,179.235 C142.471,179.775 144.892,180.459 147.508,180.754 C151.022,181.15 152.39,181.774 152.748,183.145 C153.1,184.491 154.162,185 156.617,185 C158.816,185 160,185.48 160,186.371 C160,187.302 161.897,187.956 165.916,188.411 C173.238,189.239 176.281,188.53 177.573,185.695 C178.123,184.488 179.086,183.601 179.713,183.725 C180.339,183.849 181.138,182.649 181.487,181.059 C181.836,179.468 182.77,177.919 183.561,177.615 C185.709,176.791 185.654,150.512 183.5,148.357 C182.675,147.532 181.994,145.202 181.986,143.179 C181.979,141.155 181.678,138.399 181.318,137.054 C180.712,134.788 180.608,134.751 179.902,136.554 C179.397,137.844 179.117,136.7 179.07,133.156 C179.011,128.686 178.673,127.727 177,127.29 C175.497,126.897 175,125.926 175,123.383 C175,121.089 174.532,120 173.545,120 C172.675,120 171.827,118.595 171.434,116.5 C171.058,114.495 170.184,113 169.389,113 C168.625,113 168,112.1 168,111 C168,109.667 167.333,109 166,109 C164.889,109 164,108.333 164,107.5 C164,106.675 163.283,106 162.406,106 C161.53,106 160.577,105.1 160.29,104 C159.897,102.497 158.926,102 156.383,102 C154.16,102 153,101.523 153,100.608 C153,98.632 148.911,97.764 138,97.425 C132.775,97.262 127.6,97.068 126.5,96.994 L124.5,96.859 L126.5,96.054 C127.914,95.484 126.663,95.138 122.232,94.874 C118.785,94.668 115.522,94.65 114.982,94.833 Z M134.768,95.725 C136.565,95.947 139.265,95.943 140.768,95.715 C142.271,95.486 140.8,95.304 137.5,95.31 C134.2,95.315 132.971,95.502 134.768,95.725 Z M107.195,180.5 C107.175,178.85 107.382,178.054 107.656,178.731 C107.93,179.408 107.947,180.758 107.693,181.731 C107.439,182.704 107.215,182.15 107.195,180.5 Z M118.813,96.683 C118.015,96.364 118.252,96.127 119.417,96.079 C120.471,96.036 121.061,96.272 120.729,96.604 C120.397,96.936 119.534,96.972 118.813,96.683 Z"/>
</svg>

