<svg xmlns="http://www.w3.org/2000/svg" width="300" height="300" viewBox="0 0 300 300" version="1.1">
  <defs/>
  <path d="M125,103.5 C125,102.229 127.444,102 141,102 C154.556,102 157,102.229 157,103.5 C157,104.412 157.931,105 159.375,105 C163.88,105 168,106.254 168,107.625 C168,108.381 168.9,109 170,109 C171.333,109 172,109.667 172,111 C172,112.111 172.667,113 173.5,113 C174.548,113 175,114.056 175,116.5 C175,118.823 175.468,120 176.392,120 C179.394,120 179.41,129.245 176.41,130.396 C175.432,130.772 175,132.632 175,136.469 C175,140.719 174.653,142 173.5,142 C172.49,142 172,143.01 172,145.094 C172,147.346 171.456,148.329 170,148.71 C168.497,149.103 168,150.074 168,152.617 C168,154.957 167.538,156 166.5,156 C165.675,156 165,156.717 165,157.594 C165,158.47 164.1,159.423 163,159.71 C160.491,160.366 160.036,167 162.5,167 C163.325,167 164,167.675 164,168.5 C164,169.548 165.056,170 167.5,170 C169.944,170 171,169.548 171,168.5 C171,167.316 172.423,166.997 177.75,166.986 C185.848,166.97 189,166.241 189,164.383 C189,163.247 192.935,163 211,163 C229.065,163 233,163.247 233,164.383 C233,165.899 235.968,166.965 240.25,166.986 C242.022,166.995 243,167.534 243,168.5 C243,169.356 243.899,170 245.094,170 C246.346,170 247.397,170.803 247.71,172 C247.998,173.1 248.856,174 249.617,174 C250.377,174 251,174.675 251,175.5 C251,176.325 251.717,177 252.594,177 C253.47,177 254.423,177.9 254.71,179 C254.998,180.1 255.856,181 256.617,181 C257.564,181 258,182.261 258,185 C258,187.712 258.439,189 259.364,189 C261.237,189 262.002,195.514 261.991,211.39 C261.98,227.824 261.181,235 259.361,235 C258.472,235 258,236.215 258,238.5 C258,240.848 257.535,242 256.588,242 C255.72,242 254.915,243.541 254.5,246 C254.085,248.459 253.28,250 252.412,250 C251.635,250 251,250.675 251,251.5 C251,252.325 250.283,253 249.406,253 C248.53,253 247.577,253.9 247.29,255 C247,256.107 245.926,257 244.883,257 C243.848,257 243,257.655 243,258.455 C243,259.325 241.595,260.173 239.5,260.566 C237.495,260.942 236,261.816 236,262.611 C236,263.722 233.499,264 223.5,264 C213.229,264 211,263.741 211,262.545 C211,261.675 209.595,260.827 207.5,260.434 C205.495,260.058 204,259.184 204,258.389 C204,257.625 203.1,257 202,257 C200.9,257 200,256.345 200,255.545 C200,254.675 198.595,253.827 196.5,253.434 C194.575,253.073 193,252.203 193,251.5 C193,250.797 191.425,249.927 189.5,249.566 C186.302,248.966 186,248.611 186,245.455 C186,242.173 185.825,242 182.5,242 C179.667,242 179,242.381 179,244 C179,245.333 178.333,246 177,246 C175.667,246 175,246.667 175,248 C175,250.112 172.579,250.746 171.456,248.929 C170.352,247.143 171.987,239 173.45,239 C174.18,239 175.073,237.425 175.434,235.5 C175.827,233.405 176.675,232 177.545,232 C178.71,232 179,230.209 179,223 C179,214.667 178.852,214 177,214 C175.889,214 175,214.667 175,215.5 C175,216.548 173.944,217 171.5,217 C168.667,217 168,217.381 168,219 C168,220.733 167.333,221 163,221 C159.435,221 158,221.393 158,222.369 C158,223.174 156.456,223.994 154.25,224.358 C149.35,225.168 132.544,225.173 126.66,224.367 C122.381,223.78 121.994,223.486 121.409,220.367 C121.052,218.464 120.174,217 119.389,217 C118.303,217 118,214.958 118,207.625 C118,202.469 117.719,196.844 117.375,195.125 C116.689,191.694 114,190.798 114,194 C114,195.333 113.333,196 112,196 C110.889,196 110,196.667 110,197.5 C110,198.325 109.438,199.008 108.75,199.017 C108.063,199.027 106.487,200.103 105.25,201.408 C103.097,203.68 103,204.518 103,220.891 C103,235.432 102.775,238 101.5,238 C100.675,238 100,238.844 100,239.875 C100,241.175 99.042,241.942 96.875,242.375 C89.968,243.756 81,242.627 81,240.375 C81,239.619 80.325,239 79.5,239 C78.675,239 78,238.325 78,237.5 C78,236.675 77.283,236 76.406,236 C75.53,236 74.577,235.1 74.29,234 C74.002,232.9 73.144,232 72.383,232 C71.623,232 71,231.1 71,230 C71,228.667 70.333,228 69,228 C67.381,228 67,227.333 67,224.5 C67,222.152 66.535,221 65.588,221 C64.72,221 63.915,219.459 63.5,217 C63.085,214.541 62.28,213 61.412,213 C60.384,213 60,211.639 60,208 L60,203 L71,203 L71,208 C71,211.639 71.384,213 72.412,213 C73.28,213 74.085,214.541 74.5,217 C74.915,219.459 75.72,221 76.588,221 C77.535,221 78,222.152 78,224.5 C78,227.333 78.381,228 80,228 C81.111,228 82,228.667 82,229.5 C82,230.325 82.675,231 83.5,231 C84.333,231 85,231.889 85,233 C85,234.758 85.667,235 90.5,235 L96,235 L96,226 C96,218.667 96.278,217 97.5,217 C98.333,217 99,216.111 99,215 C99,213.889 98.333,213 97.5,213 C96.284,213 96,211.389 96,204.5 C96,196.667 95.843,196 94,196 C92.9,196 92,196.616 92,197.37 C92,198.254 90.385,198.922 87.446,199.253 C84.811,199.55 82.371,200.479 81.656,201.455 C80.779,202.655 79.665,202.954 77.805,202.487 C74.887,201.755 73.82,199.149 74.68,194.851 C75.141,192.543 75.775,192 78.008,192 C79.926,192 80.926,191.39 81.29,190 C81.577,188.9 82.53,188 83.406,188 C84.283,188 85,187.325 85,186.5 C85,185.477 86.034,184.996 88.25,184.986 C93,184.966 96,183.959 96,182.383 C96,181.469 97.187,181 99.5,181 C101.803,181 103,180.53 103,179.625 C103,178.254 107.12,177 111.625,177 C113.069,177 114,176.412 114,175.5 C114,174.675 114.623,174 115.383,174 C116.959,174 117.966,171 117.986,166.25 C117.996,164.034 118.477,163 119.5,163 C121.987,163 121.185,160.263 118.5,159.589 C115.169,158.753 111,159.876 111,161.608 C111,162.374 110.2,163 109.222,163 C108.244,163 106.674,163.9 105.732,165 C104.79,166.1 103.115,167 102.01,167 C100.904,167 100,167.623 100,168.383 C100,169.144 98.763,170.007 97.25,170.3 C93.521,171.024 89,170.033 89,168.492 C89,167.8 88.1,166.998 87,166.71 C85.255,166.254 85,165.346 85,159.594 C85,154.554 84.664,153 83.575,153 C82.5,153 81.978,150.793 81.446,144 C80.929,137.385 80.379,135 79.371,135 C78.294,135 78,132.668 78,124.108 C78,113.443 78.05,113.204 80.402,112.614 C81.724,112.282 84.199,112.29 85.902,112.63 L89,113.25 L89,129.625 C89,142.901 89.262,146 90.384,146 C91.348,146 91.978,147.968 92.463,152.5 C93.144,158.857 93.223,159 96.08,159 C98.009,159 99,158.491 99,157.5 C99,156.675 99.848,156 100.883,156 C101.926,156 103,155.107 103.29,154 C103.726,152.33 104.654,152 108.906,152 C112.767,152 114,151.637 114,150.5 C114,149.452 115.056,149 117.5,149 L121,149 L121,138.55 C121,129.994 121.291,127.936 122.606,127.201 C123.572,126.66 124.42,124.449 124.736,121.651 C125.244,117.14 125.362,117 128.63,117 C130.959,117 132,117.463 132,118.5 C132,119.325 132.635,120 133.412,120 C134.28,120 135.085,121.541 135.5,124 C135.915,126.459 136.72,128 137.588,128 C138.49,128 139,129.083 139,131 Q139,134 137.5,134 C136.675,134 136,133.325 136,132.5 C136,131.667 135.111,131 134,131 C132.381,131 132,131.667 132,134.5 C132,136.944 131.548,138 130.5,138 C129.675,138 129,138.675 129,139.5 C129,140.325 129.675,141 130.5,141 C131.333,141 132,141.889 132,143 C132,144.619 132.667,145 135.5,145 C137.944,145 139,144.548 139,143.5 C139,142.417 140.111,142 143,142 C145.81,142 147,142.427 147,143.437 C147,144.327 148.237,144.993 150.25,145.187 C153.419,145.492 153.508,145.63 153.802,150.75 L154.105,156 L150.052,156 C146.599,156 146,155.689 146,153.894 C146,151.9 145.58,151.807 138.08,152.148 C133.723,152.346 129.956,152.731 129.708,153.004 C129.46,153.277 128.943,157.213 128.56,161.75 L127.863,170 L131.431,170 C133.937,170 135,169.553 135,168.5 C135,167.316 136.423,166.997 141.75,166.986 C151.379,166.967 152.834,166.402 153.587,162.39 C153.947,160.469 154.825,159 155.611,159 C156.532,159 157,157.82 157,155.5 C157,152.667 157.381,152 159,152 C160.619,152 161,151.333 161,148.5 C161,146.056 161.452,145 162.5,145 C163.548,145 164,143.944 164,141.5 C164,138.667 164.381,138 166,138 C167.852,138 168,137.333 168,129 C168,120.667 167.852,120 166,120 C164.9,120 164,119.345 164,118.545 C164,117.675 162.595,116.827 160.5,116.434 C158.495,116.058 157,115.184 157,114.389 C157,113.247 153.179,113 135.5,113 C117.056,113 114,113.213 114,114.5 C114,115.466 113.022,116.005 111.25,116.014 C106.968,116.035 104,117.101 104,118.617 C104,119.377 103.15,120 102.111,120 C100.745,120 100.041,120.967 99.566,123.5 C99.173,125.595 98.325,127 97.455,127 C96.32,127 96,125.459 96,120 C96,113.667 96.19,113 98,113 C99.333,113 100,112.333 100,111 C100,109.381 100.667,109 103.5,109 C105.785,109 107,108.528 107,107.639 C107,106.249 113.622,105.026 121.25,105.009 C123.913,105.003 125,104.565 125,103.5 Z M193,172.5 C193,173.722 191.333,174 184,174 C177.004,174 175,174.308 175,175.383 C175,176.959 172,177.966 167.25,177.986 C165.034,177.996 164,178.477 164,179.5 C164,180.621 162.799,181.003 159.25,181.014 C153.077,181.031 150,181.897 150,183.617 C150,184.663 148.293,185 143,185 C137.575,185 136,185.324 136,186.44 C136,187.381 134.703,187.987 132.25,188.19 L128.5,188.5 L128.19,197 C128.019,201.675 128.159,207.412 128.501,209.75 C129.071,213.645 129.368,214 132.061,214 C134.007,214 135,214.507 135,215.5 C135,216.667 136.333,217 141,217 C145.394,217 147,216.636 147,215.639 C147,214.286 153.574,213.028 160.75,213.009 C162.968,213.003 164,212.524 164,211.5 C164,210.667 164.889,210 166,210 C167.1,210 168,209.375 168,208.611 C168,207.816 169.495,206.942 171.5,206.566 L175,205.909 L175,198.955 C175,192.667 175.192,192 177,192 C178.333,192 179,191.333 179,190 C179,188.381 179.667,188 182.5,188 C185.917,188 186,188.095 186,192 C186,194.707 186.44,196 187.361,196 C188.976,196 189.979,202.904 189.991,214.125 C190.002,223.567 189.166,228 187.375,228 C186.375,228 186,229.5 186,233.5 C186,238.333 186.242,239 188,239 C189.619,239 190,239.667 190,242.5 C190,245.833 190.167,246 193.5,246 C195.813,246 197,246.469 197,247.383 C197,248.899 199.968,249.965 204.25,249.986 C206.022,249.995 207,250.534 207,251.5 C207,252.767 209.333,253 222,253 C234.294,253 237,252.744 237,251.579 C237,250.798 238.321,249.869 239.935,249.514 C242.139,249.03 243.03,248.139 243.514,245.935 C243.869,244.321 244.798,243 245.579,243 C246.428,243 247,241.993 247,240.5 C247,239.038 247.574,238 248.383,238 C250.103,238 250.969,234.923 250.986,228.75 C250.997,225.201 251.379,224 252.5,224 C253.738,224 254,222.167 254,213.5 C254,204.833 253.738,203 252.5,203 C251.308,203 251,201.545 251,195.906 C251,189.654 250.763,188.751 249,188.29 C247.893,188 247,186.926 247,185.883 C247,184.848 246.325,184 245.5,184 C244.675,184 244,183.325 244,182.5 C244,181.667 243.111,181 242,181 C240.667,181 240,180.333 240,179 C240,177.889 239.333,177 238.5,177 C237.675,177 237,176.325 237,175.5 C237,174.348 235.722,174 231.5,174 C227.278,174 226,173.652 226,172.5 C226,171.227 223.5,171 209.5,171 C195.5,171 193,171.227 193,172.5 Z M143,39 C143,37.242 143.667,37 148.5,37 C152.241,37 153.996,37.4 153.986,38.25 C153.955,41.16 152.669,44 151.383,44 C150.472,44 150,45.18 150,47.455 C150,50.611 149.698,50.966 146.5,51.566 C143.318,52.163 143,52.53 143,55.611 L143,59 L174.767,59 L175.3,61.75 C176.046,65.59 175.016,70 173.375,70 C172.619,70 172,70.675 172,71.5 C172,72.538 170.957,73 168.617,73 C166.074,73 165.103,73.497 164.71,75 C164.31,76.532 163.346,77 160.594,77 C158.066,77 157,77.445 157,78.5 C157,79.633 155.778,80 152,80 C148.222,80 147,79.633 147,78.5 C147,77.513 147.987,77 149.883,77 C151.926,77 152.919,76.417 153.29,75 C153.69,73.468 154.654,73 157.406,73 C162.513,73 162.208,70.38 157,69.5 C154.541,69.085 153,68.28 153,67.412 C153,65.075 147.337,65.604 146.71,68 C146.274,69.67 145.346,70 141.094,70 C137.233,70 136,70.363 136,71.5 C136,72.333 135.111,73 134,73 C132.667,73 132,73.667 132,75 C132,76.1 131.345,77 130.545,77 C129.675,77 128.827,78.405 128.434,80.5 C128.058,82.505 127.184,84 126.389,84 C125.435,84 125,85.255 125,88.01 C125,90.782 124.383,92.548 123,93.732 C121.755,94.798 121,96.682 121,98.722 C121,101.802 120.788,102 117.5,102 C114.083,102 114,101.905 114,98 C114,95.278 114.438,94 115.371,94 C116.261,94 116.975,92.246 117.406,89 C117.86,85.576 118.531,84 119.534,84 C120.648,84 121,82.65 121,78.375 L121,72.749 L112.306,73.205 C106.93,73.488 103.464,74.108 103.223,74.831 C103.009,75.474 101.633,76.006 100.167,76.014 C94.508,76.043 93,77.011 93,80.617 C93,82.957 93.462,84 94.5,84 C95.548,84 96,85.056 96,87.5 L96,91 L107.25,91 L106.615,94.177 C106.265,95.924 105.749,97.584 105.469,97.865 C105.188,98.146 102.24,98.572 98.918,98.812 C93.416,99.21 92.828,99.06 92.322,97.125 C92.017,95.956 91.194,95 90.495,95 C89.795,95 88.927,93.425 88.566,91.5 C88.173,89.405 87.325,88 86.455,88 C85.424,88 85,86.834 85,84 L85,80 L79.75,80.009 C70.745,80.024 64,81.15 64,82.639 C64,83.618 62.49,84 58.617,84 C54.074,84 53.152,84.312 52.71,86 C52.423,87.1 51.47,88 50.594,88 C49.717,88 49,88.675 49,89.5 C49,90.632 47.783,91 44.045,91 C39.202,91 39.076,90.923 38.453,87.6 C37.424,82.115 38.127,80.538 41.758,80.187 C43.604,80.008 45,79.309 45,78.564 C45,77.719 46.821,77.08 50.135,76.761 C53.456,76.442 55.594,75.69 56.185,74.634 C56.925,73.312 58.808,73 66.05,73 C73.163,73 75,72.705 75,71.563 C75,70.673 76.237,70.007 78.25,69.813 C81.217,69.527 81.527,69.174 81.81,65.75 C82.013,63.297 82.619,62 83.56,62 C84.676,62 85,60.425 85,55 C85,49.707 85.337,48 86.383,48 C87.144,48 88.002,47.1 88.29,46 C88.577,44.9 89.53,44 90.406,44 C91.333,44 92,44.837 92,46 C92,47.333 92.667,48 94,48 C95.619,48 96,48.667 96,51.5 C96,53.944 96.452,55 97.5,55 C98.333,55 99,55.889 99,57 C99,58.111 98.333,59 97.5,59 C96.667,59 96,59.889 96,61 C96,62.111 95.333,63 94.5,63 Q93,63 93,66 Q93,69 94.5,69 C95.325,69 96,68.325 96,67.5 C96,66.258 97.889,66 107,66 C115.699,66 118,65.711 118,64.617 C118,62.897 121.077,62.031 127.25,62.014 L132,62 L132,58.5 C132,56.092 132.457,55 133.466,55 C134.469,55 135.14,53.424 135.594,50 C136.025,46.754 136.739,45 137.629,45 C138.383,45 139,44.1 139,43 C139,41.667 139.667,41 141,41 C142.333,41 143,40.333 143,39 Z M100,60.5 C100,59.675 100.675,59 101.5,59 C102.325,59 103,59.675 103,60.5 C103,61.325 102.325,62 101.5,62 C100.675,62 100,61.325 100,60.5 Z"/>
</svg>

