<svg xmlns="http://www.w3.org/2000/svg" width="300" height="300" viewBox="0 0 300 300" version="1.1">
  <defs/>
  <path d="M177,85.072 C177,84.322 178.217,83.991 180.25,84.187 C183.323,84.483 183.5,84.718 183.5,88.5 C183.5,91.088 183.074,92.417 182.293,92.264 C181.626,92.134 180.793,93.589 180.431,95.514 C180.072,97.431 179.185,99 178.462,99 C177.739,99 176.995,99.787 176.81,100.748 C176.625,101.71 175.804,102.541 174.987,102.596 C174.169,102.651 172.748,102.764 171.829,102.848 C170.845,102.937 169.888,104.232 169.5,106 C169.138,107.65 168.232,109 167.488,109 C166.744,109 165.849,109.9 165.5,111 C165.151,112.1 164.221,113 163.433,113 C162.645,113 162,113.675 162,114.5 C162,115.325 161.283,116 160.406,116 C159.53,116 158.577,116.9 158.29,118 C158.002,119.1 157.144,120 156.383,120 C155.623,120 155,120.675 155,121.5 C155,122.325 154.283,123 153.406,123 C152.53,123 151.577,123.9 151.29,125 C151.002,126.1 150.102,127 149.29,127 C148.477,127 147.577,127.9 147.29,129 C147.002,130.1 146.144,131 145.383,131 C144.623,131 144,131.675 144,132.5 C144,133.341 143.108,134 141.969,134 C140.851,134 139.664,134.713 139.329,135.584 C138.84,136.859 138.557,136.908 137.876,135.834 C137.229,134.812 137.027,134.91 137.015,136.25 C137.006,137.328 136.232,138 135,138 C133.667,138 133,138.667 133,140 C133,141.1 132.373,142 131.607,142 C130.841,142 129.955,142.675 129.638,143.5 C129.322,144.325 128.426,145 127.648,145 C126.87,145 125.998,145.9 125.71,147 C125.329,148.456 124.346,149 122.094,149 C120.121,149 119,149.503 119,150.389 C119,151.177 117.527,152.054 115.597,152.416 C113.725,152.767 111.939,153.717 111.628,154.527 C111.317,155.337 110.149,156 109.031,156 C106.84,156 106.714,156.333 107.624,159.725 C108.039,161.274 109.25,162.144 111.61,162.587 C113.475,162.936 115,163.827 115,164.566 C115,165.307 116.554,166.201 118.465,166.559 C120.371,166.917 121.833,167.714 121.715,168.331 C121.597,168.948 122.513,169.607 123.75,169.796 C125.046,169.994 126.006,170.852 126.015,171.82 C126.029,173.27 126.163,173.295 127,172 C127.828,170.718 127.972,170.754 127.985,172.25 C127.997,173.614 128.857,174 131.883,174 C134.944,174 135.879,174.43 136.297,176.029 C136.589,177.144 137.204,177.991 137.664,177.91 C139.774,177.539 141,178.123 141,179.5 Q141,181 144,181 C146.307,181 147,181.45 147,182.948 C147,184.579 147.815,184.945 152.013,185.198 C154.77,185.364 156.908,185.95 156.763,186.5 C156.545,187.331 160.517,188.395 166.75,189.177 C167.438,189.263 168,189.933 168,190.667 C168,191.526 169.255,192 171.531,192 C173.658,192 175.279,192.564 175.607,193.418 C175.906,194.199 178.367,195.368 181.076,196.018 C183.784,196.668 186,197.533 186,197.941 C186,198.348 188.436,199.227 191.413,199.893 C194.39,200.559 197.076,201.756 197.382,202.552 C197.698,203.375 199.245,204 200.969,204 C202.889,204 204,204.509 204,205.389 C204,206.184 205.495,207.058 207.5,207.434 C210.698,208.034 211,208.389 211,211.545 C211,213.464 210.493,215 209.86,215 C209.233,215 208.203,215.707 207.571,216.572 C206.76,217.68 205.622,217.943 203.711,217.464 C202.22,217.089 201,216.422 201,215.979 C201,215.537 199.2,214.872 197,214.5 C194.614,214.097 193,213.273 193,212.457 C193,211.687 191.473,210.804 189.5,210.434 C187.495,210.058 186,209.184 186,208.389 C186,207.544 184.923,206.995 183.25,206.986 C179.388,206.967 175.929,205.924 176.526,204.958 C177.161,203.931 174.596,203.131 169.673,202.821 C167.197,202.666 165.508,201.949 164.888,200.79 C164.25,199.599 162.771,199 160.465,199 C158.052,199 157,198.545 157,197.5 C157,196.675 156.662,196.053 156.25,196.118 C152.589,196.696 150,195.819 150,194 C150,192.9 149.662,192.053 149.25,192.118 C148.838,192.184 146.588,192.184 144.25,192.118 C141.077,192.03 140,191.596 140,190.406 C140,189.53 139.1,188.577 138,188.29 C136.9,188.002 136,187.144 136,186.383 C136,185.478 134.831,185 132.617,185 C130.074,185 129.103,184.503 128.71,183 C128.332,181.553 127.346,181 125.143,181 C123.469,181 121.74,180.415 121.3,179.7 C120.86,178.985 118.588,177.842 116.25,177.16 C113.912,176.478 112,175.488 112,174.96 C112,174.432 111.122,174 110.05,174 C108.977,174 107.74,173.391 107.3,172.646 C106.315,170.979 102.024,168.634 101.937,169.715 C101.902,170.147 101.466,169.488 100.969,168.25 C100.241,166.439 99.228,165.977 95.782,165.882 C93.427,165.816 91.162,165.816 90.75,165.882 C90.338,165.947 90,163.498 90,160.441 C90,157.262 90.399,155.128 90.932,155.458 C91.444,155.774 92.456,155.192 93.182,154.164 C93.995,153.01 96.416,151.999 99.5,151.524 C103.43,150.919 104.072,150.582 102.5,149.947 C100.876,149.292 101.129,149.127 103.844,149.07 C106.312,149.018 107.324,148.476 107.71,147 C108.103,145.497 109.074,145 111.617,145 C113.957,145 115,144.538 115,143.5 C115,142.667 115.889,142 117,142 C118.1,142 119,141.523 119,140.941 C119,140.359 119.453,140.162 120.007,140.504 C120.561,140.847 121.284,140.423 121.614,139.563 C121.944,138.704 123.066,138 124.107,138 C125.333,138 126,137.296 126,136 C126,134.889 126.667,134 127.5,134 C128.325,134 129,133.325 129,132.5 C129,131.675 129.8,131 130.778,131 C131.756,131 133.326,130.1 134.268,129 C135.21,127.9 136.885,127 137.99,127 C139.162,127 140,126.336 140,125.406 C140,124.53 140.9,123.577 142,123.29 C143.1,123.002 144,122.144 144,121.383 C144,120.623 144.591,120 145.313,120 C146.036,120 147.257,118.395 148.027,116.432 C149.134,113.61 149.556,113.234 150.048,114.636 C150.519,115.979 150.823,115.633 151.309,113.203 C151.714,111.182 152.547,110 153.569,110 C154.459,110 155.421,109.105 155.707,108.011 C155.993,106.917 156.613,106.261 157.084,106.552 C157.556,106.843 158.228,105.938 158.579,104.541 C158.93,103.143 159.843,102 160.608,102 C161.374,102 162,101.283 162,100.406 C162,99.53 162.9,98.577 164,98.29 C165.1,98.002 166,97.144 166,96.383 C166,95.623 166.675,95 167.5,95 C168.325,95 169,94.311 169,93.469 C169,92.626 169.724,91.659 170.609,91.32 C172.955,90.419 177,86.465 177,85.072 Z"/>
</svg>

