<svg xmlns="http://www.w3.org/2000/svg" width="300" height="300" viewBox="0 0 300 300" version="1.1">
  <defs/>
  <path d="M84,57 C84,55.381 84.667,55 87.5,55 C90.333,55 91,55.381 91,57 C91,58.619 91.667,59 94.5,59 C96.944,59 98,59.452 98,60.5 C98,61.333 98.889,62 100,62 C101.333,62 102,62.667 102,64 C102,65.758 101.333,66 96.5,66 L91,66 L91,69.5 C91,71.944 90.548,73 89.5,73 C88.348,73 88,74.278 88,78.5 L88,84 L100.5,84 C110.771,84 113,83.741 113,82.545 C113,81.675 114.405,80.827 116.5,80.434 L120,79.777 L120,72.889 C120,67.527 120.323,66 121.455,66 C122.325,66 123.173,64.595 123.566,62.5 C124.163,59.318 124.53,59 127.611,59 C129.957,59 131,58.538 131,57.5 C131,56.675 131.675,56 132.5,56 C133.325,56 134,56.45 134,57 C134,57.55 134.9,58 136,58 C137.667,58 138,58.667 138,62 C138,65.333 137.667,66 136,66 C134.889,66 134,66.667 134,67.5 C134,68.325 133.283,69 132.406,69 C131.53,69 130.577,69.9 130.29,71 C130.002,72.1 129.144,73 128.383,73 C127.469,73 127,74.187 127,76.5 L127,80 L134.5,80 C140.278,80 142,79.677 142,78.594 C142,77.502 144.242,77.111 152.038,76.844 C159.221,76.598 162.319,76.106 162.931,75.113 C163.402,74.351 166.085,73.506 168.893,73.236 C173.589,72.785 174,72.917 174,74.873 C174,76.333 174.627,77 176,77 C177.758,77 178,77.667 178,82.5 C178,87.333 177.758,88 176,88 C174.9,88 174,88.623 174,89.383 C174,90.144 173.1,91.002 172,91.29 C170.9,91.577 170,92.53 170,93.406 C170,94.652 168.908,95 165,95 C161.222,95 160,95.367 160,96.5 C160,97.333 159.111,98 158,98 C156.462,98 156,97.333 156,95.117 C156,91.971 157.762,91.039 163.75,91.014 C165.966,91.004 167,90.523 167,89.5 C167,88.236 164.722,88 152.5,88 C140.278,88 138,88.236 138,89.5 C138,90.692 136.545,91 130.906,91 C124.654,91 123.751,91.237 123.29,93 C123.002,94.1 122.144,95 121.383,95 C120.469,95 120,96.187 120,98.5 C120,100.803 119.53,102 118.625,102 C117.254,102 116,106.12 116,110.625 C116,112.069 115.412,113 114.5,113 C113.452,113 113,114.056 113,116.5 L113,120 L107.5,120 C102.667,120 102,120.242 102,122 C102,123.333 101.333,124 100,124 C98.889,124 98,124.667 98,125.5 C98,126.325 97.438,127.008 96.75,127.017 C95.226,127.038 91,131.355 91,132.891 C91,133.501 90.283,134 89.406,134 C88.53,134 87.577,134.9 87.29,136 C87.002,137.1 86.144,138 85.383,138 C84.623,138 84,138.675 84,139.5 C84,140.325 83.325,141 82.5,141 C80.698,141 80.451,144.983 82.25,145.039 C106.512,145.803 111.545,146.135 111.83,146.991 C112.015,147.546 113.929,148 116.083,148 C118.898,148 120,147.578 120,146.5 C120,145.675 120.625,145 121.389,145 C122.184,145 123.058,143.505 123.434,141.5 C123.827,139.405 124.675,138 125.545,138 C126.345,138 127,137.1 127,136 C127,134.667 127.667,134 129,134 C130.111,134 131,133.333 131,132.5 C131,131.452 132.056,131 134.5,131 C136.813,131 138,130.531 138,129.617 C138,127.421 141.354,127.028 160.25,127.014 C177.338,127.001 178,127.075 178,129 C178,130.1 178.625,131 179.389,131 C180.184,131 181.058,132.495 181.434,134.5 C181.827,136.595 182.675,138 183.545,138 C185.803,138 185.661,158.531 183.394,159.799 C182.428,160.34 181.58,162.551 181.264,165.349 C180.924,168.365 180.258,170 179.37,170 C178.464,170 178,171.218 178,173.594 C178,176.346 177.532,177.31 176,177.71 C174.344,178.143 174,179.074 174,183.117 C174,186.656 173.611,188 172.588,188 C171.72,188 170.915,189.541 170.5,192 C170.085,194.459 169.28,196 168.412,196 C167.465,196 167,197.152 167,199.5 C167,202.333 166.619,203 165,203 C163.889,203 163,203.667 163,204.5 C163,205.548 161.944,206 159.5,206 C156.167,206 156,205.833 156,202.5 C156,200.104 156.459,199 157.455,199 C158.325,199 159.173,197.595 159.566,195.5 C159.942,193.495 160.816,192 161.611,192 C162.532,192 163,190.82 163,188.5 C163,185.667 163.381,185 165,185 C166.758,185 167,184.333 167,179.5 C167,175.474 167.372,174 168.389,174 C169.184,174 170.058,172.505 170.434,170.5 C170.827,168.405 171.675,167 172.545,167 C173.751,167 174,164.521 174,152.5 L174,138 L170.5,138 C168.056,138 167,137.548 167,136.5 C167,135.667 166.111,135 165,135 C163.889,135 163,135.667 163,136.5 C163,137.652 161.722,138 157.5,138 C153.278,138 152,138.348 152,139.5 C152,140.325 151.325,141 150.5,141 C149.477,141 148.996,142.034 148.986,144.25 C148.966,149 147.959,152 146.383,152 C145.373,152 145,153.484 145,157.5 C145,161.722 144.652,163 143.5,163 C142.395,163 142,164.153 142,167.375 C142,173.741 140.948,178 139.375,178 C138.47,178 138,179.197 138,181.5 C138,183.832 138.467,185 139.399,185 C140.396,185 140.998,187.005 141.5,192 C142.002,196.995 142.604,199 143.601,199 C144.371,199 145,199.9 145,201 C145,202.333 145.667,203 147,203 C148.111,203 149,203.667 149,204.5 C149,205.325 149.717,206 150.594,206 C151.47,206 152.423,206.9 152.71,208 C153.152,209.688 154.074,210 158.617,210 C162.661,210 164,210.362 164,211.455 C164,212.325 165.405,213.173 167.5,213.566 C169.505,213.942 171,214.816 171,215.611 C171,216.689 172.928,217 179.594,217 C187.443,217 188.234,217.179 188.729,219.07 C189.25,221.065 189.809,221.128 204.207,220.82 C217.189,220.542 219.272,220.271 220.122,218.75 C220.659,217.788 221.702,217 222.438,217 C223.177,217 224.072,215.431 224.434,213.5 C224.827,211.405 225.675,210 226.545,210 C227.345,210 228,209.1 228,208 C228,206.889 228.667,206 229.5,206 C230.325,206 231,205.283 231,204.406 C231,203.53 231.9,202.577 233,202.29 C234.417,201.919 235,200.926 235,198.883 C235,196.667 235.462,196 237,196 C238.333,196 239,195.333 239,194 C239,192.889 239.667,192 240.5,192 C241.548,192 242,190.944 242,188.5 C242,185.667 242.381,185 244,185 C245.333,185 246,184.333 246,183 C246,181.9 246.625,181 247.389,181 C248.184,181 249.058,179.505 249.434,177.5 C249.827,175.405 250.675,174 251.545,174 C252.345,174 253,173.1 253,172 C253,170.9 253.655,170 254.455,170 C255.325,170 256.173,168.595 256.566,166.5 C257.239,162.915 257.84,162.582 261.75,163.63 C264.537,164.377 264.652,165.596 262,166.29 C260.803,166.603 260,167.654 260,168.906 C260,170.101 259.356,171 258.5,171 C257.452,171 257,172.056 257,174.5 C257,176.896 256.541,178 255.545,178 C254.675,178 253.827,179.405 253.434,181.5 C253.073,183.425 252.203,185 251.5,185 C250.797,185 249.927,186.575 249.566,188.5 C249.173,190.595 248.325,192 247.455,192 C246.459,192 246,193.104 246,195.5 C246,197.82 245.532,199 244.611,199 C243.816,199 242.942,200.495 242.566,202.5 C242.173,204.595 241.325,206 240.455,206 C239.655,206 239,206.9 239,208 C239,209.333 238.333,210 237,210 C235.667,210 235,210.667 235,212 C235,213.1 234.375,214 233.611,214 C232.816,214 231.942,215.495 231.566,217.5 C231.173,219.595 230.325,221 229.455,221 C228.655,221 228,221.675 228,222.5 C228,223.325 227.283,224 226.406,224 C225.53,224 224.577,224.9 224.29,226 C224,227.107 222.926,228 221.883,228 C220.848,228 220,228.675 220,229.5 C220,230.633 218.778,231 215,231 C211.222,231 210,230.633 210,229.5 C210,228.258 208.111,228 199,228 C190.193,228 188,227.718 188,226.588 C188,225.49 185.331,225.016 176,224.459 C167.483,223.951 164,223.382 164,222.499 C164,221.815 162.2,220.968 160,220.616 C157.412,220.202 156,219.451 156,218.488 C156,217.454 154.932,217 152.5,217 C150.18,217 149,216.532 149,215.611 C149,214.816 147.505,213.942 145.5,213.566 C143.405,213.173 142,212.325 142,211.455 C142,210.655 141.1,210 140,210 C138.889,210 138,209.333 138,208.5 C138,207.675 137.283,207 136.406,207 C135.53,207 134.577,206.1 134.29,205 C134.002,203.9 133.144,203 132.383,203 C131.253,203 131,199.436 131,183.5 C131,166.833 131.218,164 132.5,164 C133.667,164 134,162.667 134,158 C134,152.667 134.222,152 136,152 C137.758,152 138,151.333 138,146.5 C138,142.759 137.6,141.004 136.75,141.014 C133.84,141.045 131,142.331 131,143.617 C131,144.377 130.1,145 129,145 C127.889,145 127,145.667 127,146.5 C127,147.325 126.325,148 125.5,148 C124.3,148 124,149.5 124,155.5 C124,162.333 123.822,163 122,163 C120.381,163 120,163.667 120,166.5 C120,168.944 119.548,170 118.5,170 C117.667,170 117,170.889 117,172 C117,173.333 116.333,174 115,174 C113.394,174 113,174.667 113,177.383 C113,179.926 112.503,180.897 111,181.29 C109.544,181.671 109,182.654 109,184.906 C109,186.99 108.51,188 107.5,188 C106.667,188 106,188.889 106,190 C106,191.333 105.333,192 104,192 C102.381,192 102,192.667 102,195.5 C102,198.036 101.561,199 100.406,199 C99.53,199 98.577,199.9 98.29,201 C98.002,202.1 97.144,203 96.383,203 C95.623,203 95,203.9 95,205 C95,206.1 94.361,207 93.579,207 C92.798,207 91.862,208.35 91.5,210 C91.138,211.65 90.202,213 89.421,213 C88.639,213 88,213.9 88,215 C88,216.333 87.333,217 86,217 C84.667,217 84,217.667 84,219 C84,220.333 83.333,221 82,221 C80.889,221 80,221.667 80,222.5 C80,223.325 79.325,224 78.5,224 C77.667,224 77,224.889 77,226 C77,227.333 76.333,228 75,228 C73.889,228 73,228.667 73,229.5 C73,230.325 72.325,231 71.5,231 C70.667,231 70,231.889 70,233 C70,234.333 69.333,235 68,235 C66.667,235 66,235.667 66,237 C66,238.333 65.333,239 64,239 C62.889,239 62,239.667 62,240.5 C62,241.325 61.325,242 60.5,242 C59.667,242 59,242.889 59,244 C59,245.758 58.333,246 53.5,246 L48,246 L48,240.5 C48,236.354 48.358,235 49.455,235 C50.325,235 51.173,233.595 51.566,231.5 C52.411,226.994 54.589,226.994 55.434,231.5 C56.079,234.94 58,236.437 58,233.5 C58,232.667 58.889,232 60,232 C61.333,232 62,231.333 62,230 C62,228.667 62.667,228 64,228 C65.333,228 66,227.333 66,226 C66,224.889 66.667,224 67.5,224 C68.325,224 69,223.325 69,222.5 C69,221.667 69.889,221 71,221 C72.333,221 73,220.333 73,219 C73,217.9 73.655,217 74.455,217 C75.325,217 76.173,215.595 76.566,213.5 C77.163,210.318 77.53,210 80.611,210 C83.817,210 84,209.811 84,206.5 C84,203.667 83.619,203 82,203 C80.9,203 80,202.377 80,201.617 C80,200.106 77.035,199.035 72.795,199.014 C70.5,199.002 69.991,198.47 69.434,195.5 C68.871,192.498 68.382,192 66,192 C63.618,192 63.129,191.502 62.566,188.5 C62.173,186.405 61.325,185 60.455,185 C59.424,185 59,183.834 59,181 C59,177.3 59.206,177.001 61.75,177.014 C67.187,177.041 68.92,178.057 69.587,181.61 C69.936,183.475 70.795,185 71.495,185 C72.194,185 73.002,185.9 73.29,187 C73.577,188.1 74.53,189 75.406,189 C76.283,189 77,189.675 77,190.5 C77,191.325 77.675,192 78.5,192 C79.325,192 80,192.619 80,193.375 C80,194.746 84.12,196 88.625,196 C90.333,196 91,195.439 91,194 C91,192.667 91.667,192 93,192 C94.333,192 95,191.333 95,190 C95,188.889 95.667,188 96.5,188 C97.51,188 98,186.99 98,184.906 C98,182.654 98.544,181.671 100,181.29 C101.503,180.897 102,179.926 102,177.383 C102,174.667 102.394,174 104,174 C105.333,174 106,173.333 106,172 C106,170.889 106.667,170 107.5,170 C108.51,170 109,168.99 109,166.906 C109,164.654 109.544,163.671 111,163.29 C112.503,162.897 113,161.926 113,159.383 L113,156 L91.5,156 C73.056,156 70,155.787 70,154.5 C70,153.667 69.111,153 68,153 C66.333,153 66,152.333 66,149 C66,146.166 66.424,145 67.455,145 C68.325,145 69.173,143.595 69.566,141.5 C69.942,139.495 70.816,138 71.611,138 C72.375,138 73,137.1 73,136 C73,134.9 73.639,134 74.421,134 C75.202,134 76.138,132.65 76.5,131 C76.878,129.278 77.804,128 78.673,128 C79.506,128 80.423,127.1 80.71,126 C80.998,124.9 81.856,124 82.617,124 C83.564,124 84,122.739 84,120 C84,117.261 83.564,116 82.617,116 C81.041,116 80.034,113 80.014,108.25 C80.004,106.034 79.523,105 78.5,105 C77.367,105 77,103.778 77,100 L77,95 L68,95 C60.987,95 59,95.307 59,96.389 C59,97.184 57.505,98.058 55.5,98.434 C53.405,98.827 52,99.675 52,100.545 C52,101.642 50.646,102 46.5,102 L41,102 L41,98.5 C41,96.056 41.452,95 42.5,95 C43.333,95 44,94.111 44,93 C44,91.242 44.667,91 49.5,91 C53.5,91 55,90.625 55,89.625 C55,87.94 59.342,87 67.125,87 C71.681,87 73,86.663 73,85.5 C73,84.452 74.056,84 76.5,84 C79.917,84 80,83.905 80,80 C80,77.111 79.583,76 78.5,76 C77.675,76 77,75.55 77,75 C77,74.45 77.675,74 78.5,74 C79.605,74 80,72.847 80,69.625 C80,63.259 81.052,59 82.625,59 C83.381,59 84,58.1 84,57 Z M105.362,92.5 C104.722,94.167 102,94.572 102,93 C102,92.45 99.525,92 96.5,92 C92.278,92 91,92.348 91,93.5 C91,94.325 90.325,95 89.5,95 C88.262,95 88,96.833 88,105.5 C88,114.167 88.262,116 89.5,116 C90.325,116 91,115.325 91,114.5 C91,113.348 92.278,113 96.5,113 C101.333,113 102,112.758 102,111 C102,109.393 102.667,109 105.389,109 C108.456,109 108.838,108.675 109.42,105.573 C109.774,103.688 110.556,101.981 111.158,101.781 C111.761,101.58 112.479,99.072 112.754,96.208 L113.254,91 L109.596,91 C107.266,91 105.728,91.545 105.362,92.5 Z"/>
</svg>

