<svg xmlns="http://www.w3.org/2000/svg" width="300" height="300" viewBox="0 0 300 300" version="1.1">
  <defs/>
  <path d="M167.5,80.644 C175.419,79.915 199.985,81.774 198.069,82.957 C196.61,83.859 199.98,84.965 204.25,84.986 C205.983,84.995 207,85.538 207,86.455 C207,87.325 208.405,88.173 210.5,88.566 C212.505,88.942 214,89.816 214,90.611 C214,91.375 214.623,92 215.383,92 C216.144,92 217.002,92.9 217.29,94 C217.577,95.1 218.53,96 219.406,96 C220.671,96 221,97.134 221,101.5 C221,105.646 220.642,107 219.545,107 C218.675,107 217.827,108.405 217.434,110.5 C216.749,114.154 215.346,115.067 214.362,112.5 C214.045,111.675 212.934,111 211.893,111 C210.361,111 210,110.26 210,107.117 C210,104.012 209.579,103.123 207.899,102.684 C206.658,102.359 206.086,101.67 206.5,101 C206.914,100.33 206.342,99.641 205.101,99.316 C203.945,99.014 203,98.144 203,97.383 C203,96.623 202.1,96 201,96 C199.9,96 199,95.37 199,94.6 C199,93.738 196.989,92.717 193.768,91.944 C189.832,91 189.016,90.52 190.476,90.008 C191.804,89.543 190.694,89.121 186.958,88.673 C179.506,87.778 167.933,87.955 165.5,89 L163.5,89.859 L165.5,90.072 C166.6,90.188 164.396,90.599 160.602,90.984 C155.951,91.456 153.309,92.224 152.492,93.342 C151.664,94.474 149.806,95 146.64,95 C143.347,95 142,95.403 142,96.389 C142,97.175 140.531,98.053 138.61,98.413 C134.828,99.123 134.036,100.748 134.014,107.844 C134.003,111.353 134.384,112.288 136,112.71 C137.503,113.103 138,114.074 138,116.617 C138,119.333 138.394,120 140,120 C141.1,120 142,120.565 142,121.256 C142,121.947 143.395,123.129 145.101,123.884 C147.412,124.907 147.858,125.475 146.851,126.113 C145.803,126.777 145.892,126.973 147.25,126.985 C148.328,126.994 149,127.768 149,129 C149,130.333 149.667,131 151,131 C152.111,131 153,131.667 153,132.5 C153,133.325 153.47,134 154.045,134 C155.651,134 160,138.715 160,140.455 C160,141.305 160.675,142 161.5,142 C162.325,142 163,142.675 163,143.5 C163,144.325 163.689,145 164.531,145 C165.374,145 166.352,145.753 166.705,146.674 C167.528,148.818 170.182,151.472 172.326,152.295 C173.247,152.648 174,153.626 174,154.469 C174,155.311 174.623,156 175.383,156 C176.144,156 177.002,156.9 177.29,158 C177.577,159.1 178.53,160 179.406,160 C180.283,160 181,160.639 181,161.421 C181,162.202 182.35,163.138 184,163.5 C185.653,163.863 187,164.811 187,165.611 C187,166.409 187.753,167.352 188.674,167.705 C190.717,168.489 198,175.657 198,176.883 C198,177.369 198.9,178.002 200,178.29 C201.1,178.577 202,179.53 202,180.406 C202,181.283 202.675,182 203.5,182 C204.325,182 205,182.689 205,183.531 C205,184.374 205.672,185.321 206.494,185.636 C207.316,185.952 207.759,186.581 207.478,187.036 C207.197,187.49 207.425,188.144 207.984,188.49 C209.64,189.514 209.255,197 207.545,197 C206.675,197 205.827,198.405 205.434,200.5 C205.058,202.505 204.184,204 203.389,204 C202.625,204 202,204.717 202,205.594 C202,206.47 201.1,207.423 200,207.71 C198.9,207.998 198,208.806 198,209.505 C198,210.205 196.425,211.073 194.5,211.434 C192.575,211.795 191,212.47 191,212.934 C191,213.398 189.425,214.073 187.5,214.434 C185.575,214.795 184,215.464 184,215.92 C184,216.377 182.539,217.042 180.754,217.399 C178.424,217.865 177.194,217.618 176.394,216.524 C174.989,214.602 173,214.546 173,216.429 C173,217.214 172.293,218.564 171.429,219.429 C170.146,220.711 167.248,220.997 155.679,220.986 C140.31,220.972 137,220.51 137,218.383 C137,217.373 135.516,217 131.5,217 C127.278,217 126,216.652 126,215.5 C126,214.395 124.846,214 121.614,214 C117.018,214 109.543,211.133 113.5,210.889 C114.6,210.82 113.282,210.394 110.572,209.94 C107.861,209.486 105.252,208.414 104.772,207.557 C104.293,206.701 103.234,206 102.419,206 C101.604,206 100.689,205.352 100.385,204.561 C100.081,203.77 98.521,202.834 96.916,202.482 C95.261,202.118 94,201.187 94,200.327 C94,199.494 93.1,198.577 92,198.29 C90.893,198 90,196.926 90,195.883 C90,194.848 89.438,193.993 88.75,193.985 C87.917,193.974 88,193.646 89,193 C90.276,192.175 90.235,192.028 88.719,192.015 C87.739,192.007 86.647,191.213 86.292,190.25 C85.936,189.288 85.163,188.179 84.573,187.786 C83.452,187.041 83.33,186.596 83.125,182.5 C83.055,181.098 82.392,180 81.617,180 C79.887,180 78.921,175.338 80.041,172.393 C81.03,169.79 85.596,168.514 90.578,169.449 C93.697,170.034 94,170.399 94,173.578 C94,176.214 93.484,177.255 91.886,177.847 C90.057,178.523 89.963,178.822 91.192,180.064 C92.622,181.51 94.215,184.648 94.459,186.5 C94.532,187.05 95.133,187.388 95.795,187.25 C96.458,187.113 97,187.942 97,189.094 C97,190.346 97.803,191.397 99,191.71 C100.1,191.998 101,192.856 101,193.617 C101,194.377 101.623,195 102.383,195 C103.144,195 104.002,195.9 104.29,197 C104.69,198.532 105.654,199 108.406,199 C110.884,199 112,199.452 112,200.455 C112,201.325 113.405,202.173 115.5,202.566 C117.505,202.942 119,203.816 119,204.611 C119,205.456 120.077,206.005 121.75,206.014 C126.032,206.035 129,207.101 129,208.617 C129,209.671 130.781,210 136.5,210 C142.5,210 144,210.3 144,211.5 C144,212.73 145.663,212.987 153.25,212.93 C158.642,212.889 161.683,212.54 160.542,212.094 C158.247,211.196 166.241,210.023 174.75,210.009 C178.559,210.002 180,209.619 180,208.611 C180,207.816 181.495,206.942 183.5,206.566 C185.425,206.205 187,205.48 187,204.955 C187,204.43 187.689,204 188.531,204 C189.374,204 190.292,203.402 190.573,202.67 C190.854,201.939 192.64,200.73 194.542,199.984 C197.819,198.698 198,198.375 198,193.813 C198,190.201 197.626,189 196.5,189 C195.675,189 195,188.283 195,187.406 C195,186.53 194.1,185.577 193,185.29 C191.9,185.002 191,184.197 191,183.5 C191,182.803 190.1,181.998 189,181.71 C187.9,181.423 187,180.444 187,179.535 C187,178.618 186.525,178.176 185.933,178.542 C185.346,178.904 184.629,178.298 184.34,177.193 C184.051,176.089 182.957,174.96 181.908,174.686 C180.858,174.412 180,173.523 180,172.71 C180,171.898 179.055,170.986 177.899,170.684 C176.744,170.382 176.073,169.691 176.408,169.149 C176.743,168.606 175.707,167.875 174.106,167.523 C172.131,167.089 170.796,165.921 169.954,163.888 C169.107,161.844 167.805,160.711 165.856,160.321 C163.933,159.937 163,159.137 163,157.875 C163,156.619 162.285,156 160.833,156 C159.642,156 158.963,155.704 159.325,155.342 C160.229,154.438 157.988,151.889 156.887,152.57 C156.399,152.871 156,152.191 156,151.059 C156,149.667 155.352,149 154,149 C152.667,149 152,148.333 152,147 C152,145.889 151.333,145 150.5,145 C149.675,145 149,144.283 149,143.406 C149,142.53 148.1,141.577 147,141.29 C145.9,141.002 145,140.144 145,139.383 C145,138.623 144.325,138 143.5,138 C142.675,138 142,137.283 142,136.406 C142,135.53 141.1,134.577 140,134.29 C138.9,134.002 138,133.144 138,132.383 C138,131.623 137.325,131 136.5,131 C135.675,131 135,130.283 135,129.406 C135,128.53 134.1,127.577 133,127.29 C131.9,127.002 131,126.102 131,125.29 C131,124.477 130.1,123.577 129,123.29 C127.9,123.002 127,122.144 127,121.383 C127,120.623 126.377,120 125.617,120 C124.856,120 123.998,119.1 123.71,118 C123.423,116.9 122.47,116 121.594,116 C120.287,116 120,114.738 120,109 C120,102.751 120.207,102 121.93,102 C123.164,102 123.985,101.188 124.204,99.75 C124.393,98.513 125.099,97.613 125.774,97.75 C126.448,97.888 127,97.325 127,96.5 C127,95.675 127.848,95 128.883,95 C129.926,95 131,94.107 131.29,93 C131.671,91.544 132.654,91 134.906,91 C136.99,91 138,90.51 138,89.5 C138,88.588 138.931,88 140.375,88 C144.88,88 149,86.746 149,85.375 C149,84.385 150.47,83.996 154.25,83.985 C157.776,83.974 159.03,83.672 158.069,83.064 C156.556,82.106 159.315,81.399 167.5,80.644 Z"/>
</svg>

