<svg xmlns="http://www.w3.org/2000/svg" width="300" height="300" viewBox="0 0 300 300" version="1.1">
  <defs/>
  <path d="M146.29,16 C146.799,14.054 147.654,14 177.781,14 C210.097,14 215,14.346 215,16.625 C215,17.53 216.197,18 218.5,18 C221.333,18 222,18.381 222,20 C222,21.1 222.623,22 223.383,22 C224.999,22 225.967,25.021 225.986,30.125 C226.008,35.758 224.886,40 223.375,40 C222.375,40 222,41.5 222,45.5 C222,49.493 221.624,51 220.629,51 C219.739,51 219.025,52.754 218.594,56 C218.14,59.424 217.469,61 216.466,61 C215.66,61 215,61.9 215,63 C215,64.333 214.333,65 213,65 C211.381,65 211,65.667 211,68.5 C211,70.944 210.548,72 209.5,72 C208.675,72 208,72.717 208,73.594 C208,74.47 207.1,75.423 206,75.71 C204.9,75.998 204,76.856 204,77.617 C204,78.627 205.484,79 209.5,79 L215,79 L215,82.375 C215,85.355 214.634,85.823 211.875,86.375 C210.156,86.719 207.006,87 204.875,87 C202.097,87 201,87.425 201,88.5 C201,89.583 199.889,90 197,90 C194.273,90 193,90.438 193,91.375 C193,93.06 188.658,94 180.875,94 C176.319,94 175,94.337 175,95.5 C175,96.325 174.325,97 173.5,97 C172.445,97 172,98.066 172,100.594 C172,103.346 171.532,104.31 170,104.71 C168.306,105.153 168,106.074 168,110.733 C168,115.949 168.116,116.202 170.25,115.63 C171.488,115.299 173.963,115.021 175.75,115.014 C177.861,115.005 179,114.51 179,113.601 C179,112.604 181.005,112.002 186,111.5 C190.995,110.998 193,110.396 193,109.399 C193,108.305 194.94,108 201.883,108 C209.926,108 210.816,107.811 211.29,106 C211.744,104.263 212.648,104.002 218.156,104.014 C228.299,104.035 229,104.423 229,110 C229,113.926 228.647,114.859 227,115.29 C225.9,115.577 225,116.53 225,117.406 C225,118.652 223.908,119 220,119 C215.667,119 215,118.733 215,117 C215,115.242 214.333,115 209.5,115 L204,115 L204,122.5 C204,128.396 203.689,130 202.545,130 C201.675,130 200.827,131.405 200.434,133.5 C199.837,136.682 199.47,137 196.389,137 C193.667,137 193,137.393 193,139 C193,140.111 192.333,141 191.5,141 C190.675,141 190,141.675 190,142.5 C190,143.333 189.111,144 188,144 C186.667,144 186,144.667 186,146 C186,147.111 185.333,148 184.5,148 C183.675,148 183,148.675 183,149.5 C183,150.333 182.111,151 181,151 C179.667,151 179,151.667 179,153 C179,154.333 178.333,155 177,155 C175.889,155 175,155.667 175,156.5 C175,157.325 174.283,158 173.406,158 C172.53,158 171.577,158.9 171.29,160 C171.002,161.1 170.144,162 169.383,162 C168.623,162 168,162.675 168,163.5 C168,164.333 168.889,165 170,165 C171.111,165 172,164.333 172,163.5 C172,162.263 173.82,162 182.383,162 C191.926,162 192.809,161.838 193.29,160 C193.762,158.194 194.654,158 202.5,158 C210.346,158 211.238,158.194 211.71,160 C211.998,161.1 212.856,162 213.617,162 C214.627,162 215,163.484 215,167.5 C215,172.333 214.758,173 213,173 C211.667,173 211,173.667 211,175 C211,176.619 210.333,177 207.5,177 C204.667,177 204,176.619 204,175 C204,173.889 204.667,173 205.5,173 C206.548,173 207,171.944 207,169.5 C207,166.167 206.833,166 203.5,166 C201.187,166 200,166.469 200,167.384 C200,168.381 198.135,168.886 193.314,169.193 C189.486,169.436 186.462,170.114 186.241,170.778 C186.028,171.415 184.312,172.226 182.427,172.58 L179,173.223 L179,184.111 C179,193.123 179.259,195 180.5,195 C181.325,195 182,195.675 182,196.5 C182,197.548 183.056,198 185.5,198 C187.803,198 189,197.53 189,196.625 C189,195.052 193.259,194 199.625,194 C202.663,194 204,193.581 204,192.63 C204,191.742 205.635,191.076 208.651,190.736 C211.449,190.42 213.66,189.572 214.201,188.606 C214.837,187.469 216.544,187 220.05,187 C223.783,187 225,186.631 225,185.5 C225,184.644 225.899,184 227.094,184 C228.346,184 229.397,183.197 229.71,182 C230.074,180.61 231.074,180 232.992,180 C235.277,180 235.856,180.532 236.371,183.103 C237.074,186.62 236.53,188 234.441,188 C233.648,188 233,188.675 233,189.5 C233,190.548 231.944,191 229.5,191 C227.197,191 226,191.47 226,192.375 C226,193.746 221.88,195 217.375,195 C215.931,195 215,195.588 215,196.5 C215,197.652 213.722,198 209.5,198 C204.667,198 204,198.242 204,200 C204,201.758 203.333,202 198.5,202 C194.51,202 193,202.376 193,203.37 C193,204.254 191.386,204.922 188.451,205.253 C185.948,205.535 183.661,206.006 183.367,206.3 C181.071,208.596 182.172,230 184.585,230 C185.719,230 186,232.184 186,241 C186,249.816 186.281,252 187.415,252 C189.221,252 190.257,262.571 189.817,276.5 L189.5,286.5 L184.25,286.802 L179,287.105 L179,282.052 C179,278.228 179.365,277 180.5,277 C181.548,277 182,275.944 182,273.5 C182,271.056 181.548,270 180.5,270 C179.249,270 178.998,267.966 178.986,257.75 C178.971,244.28 178.462,241 176.383,241 C175.329,241 175,239.219 175,233.5 C175,227.5 174.7,226 173.5,226 C172.284,226 172,224.389 172,217.5 L172,209 L164.5,209 C158.803,209 157,209.331 157,210.375 C157,212.025 152.684,213 145.375,213 C141.264,213 140,213.353 140,214.5 C140,215.728 138.278,216 130.5,216 C123.078,216 121,215.697 121,214.617 C121,213.856 121.9,212.998 123,212.71 C124.1,212.423 125,211.47 125,210.594 C125,209.439 125.964,209 128.5,209 C131.333,209 132,208.619 132,207 C132,205.148 132.667,205 141,205 C147.924,205 150,204.686 150,203.639 C150,202.249 156.622,201.026 164.25,201.009 C166.913,201.003 168,200.565 168,199.5 C168,198.675 168.675,198 169.5,198 C170.333,198 171,197.111 171,196 C171,194.889 170.333,194 169.5,194 C168.276,194 168,192.319 168,184.875 L168,175.75 L164.875,176.375 C163.156,176.719 160.681,177 159.375,177 C157.931,177 157,177.588 157,178.5 C157,179.722 155.333,180 148,180 C140.667,180 139,180.278 139,181.5 C139,182.548 137.944,183 135.5,183 C132.167,183 132,182.833 132,179.5 C132,177.056 132.452,176 133.5,176 C134.325,176 135,175.383 135,174.628 C135,173.8 136.587,173.002 139,172.616 C141.588,172.202 143,171.451 143,170.488 C143,169.454 144.068,169 146.5,169 C148.896,169 150,168.541 150,167.545 C150,166.675 151.405,165.827 153.5,165.434 C155.505,165.058 157,164.184 157,163.389 C157,162.625 157.9,162 159,162 C160.333,162 161,161.333 161,160 C161,158.667 161.667,158 163,158 C164.111,158 165,157.333 165,156.5 C165,155.675 165.675,155 166.5,155 C167.333,155 168,154.111 168,153 C168,151.667 168.667,151 170,151 C171.111,151 172,150.333 172,149.5 C172,148.675 172.717,148 173.594,148 C174.47,148 175.423,147.1 175.71,146 C176.081,144.583 177.074,144 179.117,144 C181.333,144 182,143.538 182,142 C182,140.667 182.667,140 184,140 C185.549,140 186,139.333 186,137.045 C186,134.46 186.438,134.008 189.5,133.434 C192.033,132.959 193,132.255 193,130.889 C193,129.85 192.325,129 191.5,129 C190.675,129 190,128.325 190,127.5 C190,126.675 190.623,126 191.383,126 C192.144,126 193.002,125.1 193.29,124 C193.69,122.468 194.654,122 197.406,122 C199.934,122 201,121.555 201,120.5 C201,119.3 199.5,119 193.5,119 C187.767,119 186,119.327 186,120.389 C186,121.184 184.505,122.058 182.5,122.434 C180.405,122.827 179,123.675 179,124.545 C179,125.541 177.896,126 175.5,126 C172.667,126 172,126.381 172,128 C172,129.333 171.333,130 170,130 C168.889,130 168,130.667 168,131.5 C168,132.621 166.799,133.003 163.25,133.014 C160.637,133.021 157.526,133.289 156.335,133.608 C154.094,134.209 152.255,138.693 153.695,140.046 C155.097,141.364 165,139.898 165,138.373 C165,137.505 166.138,137 168.094,137 C170.346,137 171.329,136.456 171.71,135 C172.103,133.497 173.074,133 175.617,133 C177.957,133 179,132.538 179,131.5 C179,130.675 179.675,130 180.5,130 C181.325,130 182,130.675 182,131.5 C182,132.325 181.325,133 180.5,133 C179.667,133 179,133.889 179,135 C179,136.333 178.333,137 177,137 C175.889,137 175,137.667 175,138.5 C175,139.325 174.325,140 173.5,140 C172.667,140 172,140.889 172,142 C172,143.606 171.333,144 168.617,144 C166.074,144 165.103,144.497 164.71,146 C164.238,147.806 163.346,148 155.5,148 C147.654,148 146.762,147.806 146.29,146 C146.002,144.9 145.144,144 144.383,144 C143.623,144 143,143.283 143,142.406 C143,141.53 142.1,140.577 141,140.29 C139.312,139.848 139,138.926 139,134.383 C139,129.667 139.248,129 141,129 C142.111,129 143,128.333 143,127.5 C143,126.667 143.889,126 145,126 C146.1,126 147,125.345 147,124.545 C147,123.675 148.405,122.827 150.5,122.434 C152.505,122.058 154,121.184 154,120.389 C154,119.625 154.675,119 155.5,119 C156.544,119 157,117.95 157,115.55 C157,113.421 157.615,111.755 158.606,111.201 C159.572,110.66 160.42,108.449 160.736,105.651 L161.26,101 L155.63,101 C151.292,101 150,101.344 150,102.5 C150,103.722 148.333,104 141,104 C133.667,104 132,103.722 132,102.5 C132,101.675 131.325,101 130.5,101 C129.667,101 129,100.111 129,99 C129,97.889 129.667,97 130.5,97 C131.325,97 132,96.377 132,95.617 C132,94.856 132.959,93.982 134.132,93.676 C135.793,93.241 136.127,92.608 135.646,90.809 C135.306,89.539 135.021,87.263 135.014,85.75 C135.005,83.978 134.466,83 133.5,83 C132.417,83 132,81.889 132,79 C132,76.166 131.576,75 130.545,75 C129.675,75 128.827,73.595 128.434,71.5 C128.058,69.495 127.184,68 126.389,68 C125.503,68 125,66.879 125,64.906 C125,62.654 124.456,61.671 123,61.29 C121.344,60.857 121,59.926 121,55.883 C121,52.082 120.647,51 119.406,51 C118.53,51 117.577,50.1 117.29,49 C117.002,47.9 116.144,47 115.383,47 C114.623,47 114,46.1 114,45 C114,43.889 114.667,43 115.5,43 C116.652,43 117,41.722 117,37.5 C117,33.278 116.652,32 115.5,32 C114.675,32 114,31.325 114,30.5 C114,29.667 114.889,29 116,29 C117.333,29 118,28.333 118,27 C118,25.444 118.667,25 121,25 C122.917,25 124,24.49 124,23.588 C124,22.72 125.541,21.915 128,21.5 C130.459,21.085 132,20.28 132,19.412 C132,18.333 133.622,18 138.883,18 C144.926,18 145.831,17.756 146.29,16 Z M175,23.434 C175,24.611 171.941,24.925 157.928,25.184 C142.908,25.462 140.738,25.71 139.878,27.25 C139.242,28.39 137.697,29 135.45,29 C133.173,29 132,29.472 132,30.389 C132,31.184 130.505,32.058 128.5,32.434 C125.302,33.034 125,33.389 125,36.545 C125,38.838 125.47,40 126.399,40 C127.396,40 127.998,42.005 128.5,47 C129.002,51.995 129.604,54 130.601,54 C131.533,54 132,55.168 132,57.5 C132,60.333 132.381,61 134,61 C135.667,61 136,61.667 136,65 C136,67.889 136.417,69 137.5,69 C138.325,69 139,69.675 139,70.5 C139,72.964 145.634,72.509 146.29,70 C146.671,68.544 147.654,68 149.906,68 C151.99,68 153,67.51 153,66.5 C153,65.667 153.889,65 155,65 C156.333,65 157,64.333 157,63 C157,61.889 157.667,61 158.5,61 C159.325,61 160,60.283 160,59.406 C160,58.53 160.9,57.577 162,57.29 C164.509,56.634 164.964,50 162.5,50 C161.348,50 161,48.722 161,44.5 C161,40.278 161.348,39 162.5,39 C163.325,39 164,38.325 164,37.5 C164,36.667 164.889,36 166,36 C167.111,36 168,36.667 168,37.5 C168,38.325 168.717,39 169.594,39 C170.47,39 171.423,39.9 171.71,41 C172.545,44.192 174.718,43.316 175.434,39.5 C175.827,37.405 176.675,36 177.545,36 C178.345,36 179,35.325 179,34.5 C179,33.675 179.717,33 180.594,33 C181.47,33 182.423,32.1 182.71,31 C183.065,29.644 184.081,28.996 185.867,28.986 C190.04,28.965 193,27.885 193,26.383 C193,25.623 192.325,25 191.5,25 C190.675,25 190,24.325 190,23.5 C190,22.3 188.5,22 182.5,22 C176.653,22 175,22.316 175,23.434 Z M200,27 C200,28.111 199.333,29 198.5,29 C197.667,29 197,29.889 197,31 C197,32.333 196.333,33 195,33 C193.889,33 193,33.667 193,34.5 C193,35.325 192.325,36 191.5,36 C190.667,36 190,36.889 190,38 C190,39.333 189.333,40 188,40 C186.462,40 186,40.667 186,42.883 C186,44.926 185.417,45.919 184,46.29 C182.9,46.577 182,47.53 182,48.406 C182,49.283 181.325,50 180.5,50 C179.667,50 179,50.889 179,52 C179,53.333 178.333,54 177,54 C175.667,54 175,54.667 175,56 C175,57.111 174.333,58 173.5,58 C172.675,58 172,58.675 172,59.5 C172,60.333 171.111,61 170,61 C168.625,61 168,61.667 168,63.134 C168,65.161 168.358,65.243 175.113,64.76 C179.605,64.438 182.54,63.744 183.075,62.875 C183.699,61.864 187.108,61.412 195.962,61.166 C207.042,60.859 208,60.68 208,58.916 C208,57.862 208.675,57 209.5,57 C210.633,57 211,55.778 211,52 C211,47.667 211.267,47 213,47 C214.859,47 215,46.333 215,37.571 C215,25.928 214.331,25 205.929,25 C200.667,25 200,25.225 200,27 Z M110,167.5 C110,166.417 111.111,166 114,166 C118.141,166 118.505,166.513 117.37,170.75 C116.929,172.396 116.024,173 114,173 C112.074,173 111.074,173.608 110.71,175 C110.423,176.1 109.47,177 108.594,177 C107.717,177 107,177.675 107,178.5 C107,179.548 105.944,180 103.5,180 C101.18,180 100,180.468 100,181.389 C100,182.184 98.505,183.058 96.5,183.434 C94.405,183.827 93,184.675 93,185.545 C93,186.345 92.2,187 91.222,187 C90.244,187 88.674,187.9 87.732,189 C86.79,190.1 85.115,191 84.01,191 C82.89,191 82,191.664 82,192.5 C82,193.333 81.111,194 80,194 C78.667,194 78,194.667 78,196 C78,197.111 77.333,198 76.5,198 C75.675,198 75,198.717 75,199.594 C75,200.47 74.1,201.423 73,201.71 C71.9,201.998 71,202.856 71,203.617 C71,204.564 69.739,205 67,205 C63.456,205 63,204.729 63,202.625 C63,198.12 64.254,194 65.625,194 C66.381,194 67,193.325 67,192.5 C67,191.667 67.889,191 69,191 C70.333,191 71,190.333 71,189 C71,187.381 71.667,187 74.5,187 C76.944,187 78,186.548 78,185.5 C78,184.675 78.717,184 79.594,184 C80.47,184 81.423,183.1 81.71,182 C82.103,180.497 83.074,180 85.617,180 C87.911,180 89,179.532 89,178.545 C89,177.675 90.405,176.827 92.5,176.434 C94.505,176.058 96,175.184 96,174.389 C96,173.477 97.163,173 99.383,173 C101.926,173 102.897,172.503 103.29,171 C103.671,169.544 104.654,169 106.906,169 C108.99,169 110,168.51 110,167.5 Z M91.25,122.706 C97.518,121.498 103,122.39 103,124.617 C103,125.377 103.9,126 105,126 C106.1,126 107,126.623 107,127.383 C107,128.144 107.9,129.002 109,129.29 C110.655,129.723 110.998,130.647 110.986,134.656 C110.969,140.919 110.11,144 108.383,144 C107.469,144 107,142.813 107,140.5 C107,137.667 106.619,137 105,137 C103.667,137 103,136.333 103,135 C103,133.161 102.338,133.001 94.75,133.014 C85.196,133.029 82,133.682 82,135.617 C82,136.564 80.739,137 78,137 C74.095,137 74,137.083 74,140.5 L74,144 L68.5,144 C62.447,144 62.147,143.515 63.625,136.125 C64.151,133.495 64.705,133 67.125,133 C68.934,133 70,132.477 70,131.588 C70,130.72 71.541,129.915 74,129.5 C76.459,129.085 78,128.28 78,127.412 C78,126.367 79.43,126 83.5,126 C87.603,126 89,125.637 89,124.57 C89,123.783 90.013,122.944 91.25,122.706 Z M67.284,75.678 C69.053,75.434 72.075,75.402 74,75.606 C75.925,75.811 80.763,75.983 84.75,75.989 C90.523,75.998 92,76.306 92,77.5 C92,78.583 93.111,79 96,79 C99.333,79 100,79.333 100,81 C100,82.333 100.667,83 102,83 C103.518,83 103.997,83.662 103.986,85.75 C103.952,92.725 100.767,95.769 99.507,90.032 C98.98,87.634 98.196,86.94 95.428,86.42 C93.478,86.055 92,85.178 92,84.389 C92,83.292 89.793,83 81.5,83 C72.833,83 71,83.262 71,84.5 C71,85.652 69.722,86 65.5,86 C61.278,86 60,85.652 60,84.5 C60,83.675 60.625,83 61.389,83 C62.179,83 63.055,81.519 63.423,79.561 C63.974,76.623 64.537,76.057 67.284,75.678 Z M192.75,68.728 C190.335,68.981 189,69.633 189,70.56 C189,71.352 188.325,72 187.5,72 C186.675,72 186,72.675 186,73.5 C186,74.466 185.022,75.005 183.25,75.014 C177.813,75.041 176.08,76.057 175.413,79.61 C175.053,81.531 174.175,83 173.389,83 C172.625,83 172,83.675 172,84.5 C172,85.652 173.278,86 177.5,86 C181.722,86 183,85.652 183,84.5 C183,83.371 184.21,83 187.889,83 C192.684,83 192.79,82.933 193.434,79.5 C193.827,77.405 194.675,76 195.545,76 C196.345,76 197,75.1 197,74 C197,72.889 197.667,72 198.5,72 C199.333,72 200,71.111 200,70 C200,68.698 199.389,68.059 198.25,68.168 C197.287,68.261 194.813,68.513 192.75,68.728 Z M161,77.5 C161,78.523 159.966,79.004 157.75,79.014 C153,79.034 150,80.041 150,81.617 C150,82.531 148.813,83 146.5,83 C143.167,83 143,83.167 143,86.5 L143,90 L152,90 C159.333,90 161,89.722 161,88.5 C161,87.675 161.624,87 162.387,87 C163.919,87 164.949,82.183 164.225,78.398 C163.729,75.801 161,75.041 161,77.5 Z"/>
</svg>

