<svg xmlns="http://www.w3.org/2000/svg" width="300" height="300" viewBox="0 0 300 300" version="1.1">
  <defs/>
  <path d="M113,86.5 C113,85.567 113.944,85 115.5,85 C117.208,85 118.005,85.554 118.015,86.75 C118.028,88.246 118.172,88.282 119,87 C119.671,85.961 119.974,85.892 119.985,86.775 C119.993,87.476 121.125,88.477 122.5,89 C123.875,89.523 125,90.637 125,91.475 C125,92.314 125.563,92.888 126.25,92.75 C127.03,92.594 127.538,93.722 127.6,95.75 C127.665,97.861 127.227,99 126.35,99 C125.608,99 125,98.325 125,97.5 C125,96.549 124.043,96 122.384,96 L119.767,96 L120.483,102.75 C120.894,106.628 121.762,109.822 122.521,110.256 C123.249,110.672 124.131,112.322 124.483,113.922 C124.835,115.523 125.77,117.081 126.561,117.385 C127.352,117.689 128,118.626 128,119.469 C128,120.311 128.675,121 129.5,121 C130.433,121 131,121.944 131,123.5 C131,124.875 131.027,126.338 131.06,126.75 C131.092,127.162 131.992,127.823 133.06,128.218 C134.127,128.613 135,129.625 135,130.468 C135,131.31 135.675,132 136.5,132 C137.797,132 138.61,135.138 138.118,138.25 C138.053,138.662 138.9,139 140,139 C141.333,139 142,139.667 142,141 C142,142.1 142.623,143 143.383,143 C144.144,143 145.002,143.9 145.29,145 C145.577,146.1 146.477,147 147.29,147 C148.102,147 149.014,147.945 149.316,149.101 C149.619,150.257 150.345,150.905 150.933,150.542 C151.563,150.152 152,150.764 152,152.035 C152,153.346 152.781,154.392 154,154.71 C155.1,154.998 156,155.856 156,156.617 C156,157.377 156.623,158 157.383,158 C158.144,158 159.002,158.9 159.29,160 C159.577,161.1 160.53,162 161.406,162 C162.788,162 163.569,164.395 163.118,167.25 C163.053,167.662 163.9,168 165,168 C166.352,168 167,168.667 167,170.059 C167,171.191 167.435,171.849 167.967,171.52 C168.499,171.191 169.508,171.84 170.208,172.961 C170.908,174.083 172.048,175 172.741,175 C173.433,175 174,175.477 174,176.059 C174,176.641 174.427,176.854 174.95,176.531 C175.472,176.208 176.388,176.857 176.985,177.972 C177.582,179.087 178.73,180 179.535,180 C180.341,180 181,180.623 181,181.383 C181,182.144 181.9,183.002 183,183.29 C184.1,183.577 185,184.558 185,185.47 C185,186.737 185.765,187.053 188.25,186.813 C191.182,186.531 191.478,186.207 191.279,183.51 C191.157,181.865 190.595,180.365 190.029,180.176 C188.456,179.652 188.805,176.289 190.5,175.638 C191.325,175.322 192,174.599 192,174.031 C192,173.464 191.325,173 190.5,173 C189.255,173 189.003,171.09 189.015,161.75 C189.024,155.563 189.467,149.825 190,149 C190.811,147.744 191.006,147.826 191.196,149.5 C191.586,152.951 192.518,108.723 192.15,104.253 C191.957,101.917 191.449,100.222 191.021,100.487 C189.93,101.161 188.89,95.288 189.6,92.46 C190.547,88.683 198.372,88.489 199.347,92.219 C199.637,93.33 199.608,105.435 199.281,119.119 C198.806,138.98 198.415,144 197.343,144 C196.298,144 196.016,146.385 196.07,154.75 C196.11,160.839 196.473,164.651 196.906,163.542 C197.467,162.107 197.847,163.042 198.327,167.042 C198.688,170.044 198.987,174.188 198.991,176.25 C198.996,178.313 199.338,180.001 199.75,180.002 C200.162,180.003 200.612,181.578 200.749,183.502 C200.887,185.426 200.549,187 199.999,187 C199.45,187 199,189.264 199,192.031 C199,195.523 198.553,197.234 197.538,197.624 C196.734,197.932 195.804,199.043 195.471,200.092 C194.609,202.808 188.024,202.808 187.314,200.092 C187.04,199.043 185.911,197.949 184.807,197.66 C183.702,197.371 183.049,196.73 183.354,196.236 C183.659,195.742 182.375,194.736 180.5,194 C178.625,193.264 177.341,192.258 177.646,191.764 C177.951,191.27 177.256,190.618 176.101,190.316 C174.945,190.014 174,189.13 174,188.352 C174,187.574 173.247,186.648 172.326,186.295 C171.406,185.942 169.831,184.831 168.826,183.826 C167.822,182.822 166.213,181.993 165.25,181.985 C163.754,181.972 163.718,181.828 165,181 C166.282,180.172 166.246,180.028 164.75,180.015 C163.787,180.007 163,179.489 163,178.865 C163,177.53 158.326,173 156.948,173 C156.427,173 156,172.058 156,170.906 C156,169.654 155.197,168.603 154,168.29 C152.9,168.002 152,167.144 152,166.383 C152,165.623 151.325,165 150.5,165 C149.667,165 149,164.111 149,163 C149,161.837 148.333,161 147.406,161 C146.53,161 145.577,160.1 145.29,159 C145.002,157.9 144.144,157 143.383,157 C142.623,157 142,156.325 142,155.5 C142,154.667 141.111,154 140,154 C138.381,154 138,153.333 138,150.5 C138,148.286 137.554,147.092 136.787,147.25 C136.119,147.387 135.113,146.488 134.549,145.25 C133.986,144.012 132.957,143 132.263,143 C131.568,143 131,142.1 131,141 C131,139.667 130.333,139 129,139 C127.9,139 127.053,138.662 127.118,138.25 C127.184,137.838 127.152,136.15 127.048,134.5 C126.887,131.942 126.743,131.795 126.071,133.5 C125.377,135.261 125.2,135.124 124.584,132.352 C124.162,130.448 123.118,129.003 121.943,128.695 C120.799,128.396 120,127.326 120,126.094 C120,124.942 119.475,124.113 118.833,124.25 C118.191,124.388 117.225,123.037 116.688,121.25 C116.15,119.463 115.378,118 114.972,118 C113.423,118 112.762,132.864 112.569,172.047 C112.459,194.347 112.035,213.135 111.626,213.797 C111.204,214.479 108.68,215 105.792,215 L100.702,215 L101.357,196.75 C101.717,186.712 102.089,169.05 102.184,157.5 C102.339,138.661 103.245,125.169 103.999,130.5 C104.63,134.966 105.809,120.594 105.901,107.3 C105.972,97.124 106.354,92.873 107.25,92.3 C107.938,91.86 109.021,90.6 109.657,89.5 C110.293,88.4 111.306,87.612 111.907,87.75 C112.508,87.888 113,87.325 113,86.5 Z M118.079,97.583 C118.127,98.748 118.364,98.985 118.683,98.188 C118.972,97.466 118.936,96.603 118.604,96.271 C118.272,95.939 118.036,96.529 118.079,97.583 Z"/>
</svg>

