<svg xmlns="http://www.w3.org/2000/svg" width="300" height="300" viewBox="0 0 300 300" version="1.1">
  <defs/>
  <path d="M139.29,21 C139.959,18.439 146,18.073 146,20.594 C146,21.47 146.9,22.423 148,22.71 C149.1,22.998 150,23.856 150,24.617 C150,25.377 150.9,26 152,26 C153.333,26 154,26.667 154,28 C154,29.619 154.667,30 157.5,30 C160.333,30 161,30.381 161,32 C161,33.111 161.667,34 162.5,34 C163.325,34 164,34.675 164,35.5 C164,36.333 164.889,37 166,37 C167.333,37 168,37.667 168,39 C168,40.111 168.667,41 169.5,41 C170.325,41 171,41.675 171,42.5 C171,43.652 172.278,44 176.5,44 C180.722,44 182,43.652 182,42.5 C182,41.217 184.889,41 202,41 C218.399,41 222,41.25 222,42.389 C222,43.184 223.495,44.058 225.5,44.434 L229,45.091 L229,52.045 C229,57.561 228.69,59 227.5,59 C226.534,59 225.995,59.978 225.986,61.75 C225.965,66.032 224.899,69 223.383,69 C222.623,69 222,69.9 222,71 C222,72.1 221.375,73 220.611,73 C219.822,73 218.945,74.478 218.58,76.428 C218.06,79.196 217.366,79.98 214.968,80.507 C213.336,80.866 212,81.798 212,82.579 C212,83.428 210.993,84 209.5,84 C208.031,84 207,84.574 207,85.392 C207,86.924 202.503,88.429 200.895,87.435 C200.335,87.089 200.167,85.514 200.521,83.905 L201.159,81 L193.579,81 C187.509,81 186,81.299 186,82.5 C186,83.688 184.569,84 179.117,84 C173.074,84 172.169,84.244 171.71,86 C171.423,87.1 170.47,88 169.594,88 C168.348,88 168,89.092 168,93 L168,98 L171.5,98 C173.944,98 175,97.548 175,96.5 C175,95.3 176.5,95 182.5,95 C188.219,95 190,94.671 190,93.617 C190,91.397 193.369,91.028 213.75,91.014 C229.48,91.002 233,91.253 233,92.383 C233,94.103 236.077,94.969 242.25,94.986 L247,95 L247,98.5 C247,101.833 246.833,102 243.5,102 C240.667,102 240,102.381 240,104 C240,105.333 239.333,106 238,106 C236.889,106 236,106.667 236,107.5 C236,108.548 234.944,109 232.5,109 C230.104,109 229,109.459 229,110.455 C229,111.325 227.595,112.173 225.5,112.566 C222.967,113.041 222,113.745 222,115.111 C222,116.333 221.294,117 220,117 C218.889,117 218,117.667 218,118.5 C218,119.325 217.325,120 216.5,120 C215.675,120 215,120.625 215,121.389 C215,122.184 213.505,123.058 211.5,123.434 C209.405,123.827 208,124.675 208,125.545 C208,126.345 207.1,127 206,127 C204.667,127 204,127.667 204,129 C204,130.333 203.333,131 202,131 C200.9,131 200,131.655 200,132.455 C200,133.325 198.595,134.173 196.5,134.566 C194.495,134.942 193,135.816 193,136.611 C193,137.375 192.1,138 191,138 C189.9,138 189,138.639 189,139.421 C189,140.202 187.65,141.138 186,141.5 C184.35,141.862 183,142.798 183,143.579 C183,144.361 182.152,145 181.117,145 C180.074,145 179,145.893 178.71,147 C178.329,148.456 177.346,149 175.094,149 C173.01,149 172,149.49 172,150.5 C172,151.756 174.097,152 184.875,152 C199.404,152 204,152.631 204,154.625 C204,155.563 205.273,156 208,156 C210.789,156 212,156.43 212,157.421 C212,158.202 213.35,159.138 215,159.5 C216.65,159.862 218,160.798 218,161.579 C218,162.361 218.9,163 220,163 C221.606,163 222,163.667 222,166.383 C222,168.926 222.497,169.897 224,170.29 C225.804,170.762 226,171.654 226,179.406 C226,186.378 226.283,188 227.5,188 C228.333,188 229,188.889 229,190 C229,191.111 228.333,192 227.5,192 C226.337,192 226,193.319 226,197.875 C226,205.658 225.06,210 223.375,210 C222.392,210 222,211.424 222,215 C222,218.639 221.616,220 220.588,220 C219.72,220 218.915,221.541 218.5,224 C218.085,226.459 217.28,228 216.412,228 C215.635,228 215,228.717 215,229.594 C215,230.47 214.1,231.423 213,231.71 C211.9,231.998 211,232.856 211,233.617 C211,234.377 210.377,235 209.617,235 C208.856,235 207.998,235.9 207.71,237 C207.166,239.08 203.883,239.611 199.25,238.37 C196.725,237.693 196.189,236 198.5,236 C199.356,236 200,235.101 200,233.906 C200,232.654 200.803,231.603 202,231.29 C203.1,231.002 204,230.144 204,229.383 C204,228.623 204.675,228 205.5,228 C206.325,228 207,227.283 207,226.406 C207,225.53 207.9,224.577 209,224.29 C210.647,223.859 211,222.926 211,219 C211,215.074 211.353,214.141 213,213.71 C214.745,213.254 215,212.346 215,206.594 C215,201.399 215.318,200 216.5,200 C217.742,200 218,198.111 218,189 C218,179.889 217.742,178 216.5,178 C215.667,178 215,177.111 215,176 C215,174.9 214.345,174 213.545,174 C212.682,174 211.831,172.615 211.452,170.594 C210.907,167.693 210.307,167.093 207.406,166.548 C205.385,166.169 204,165.318 204,164.455 C204,163.29 202.209,163 195,163 C187.667,163 186,162.722 186,161.5 C186,160.348 184.722,160 180.5,160 C176.278,160 175,160.348 175,161.5 C175,162.652 173.722,163 169.5,163 C165.354,163 164,163.358 164,164.455 C164,165.325 162.595,166.173 160.5,166.566 C157.014,167.22 157,167.245 157,172.611 C157,176.735 156.648,178 155.5,178 C154.247,178 154,180.056 154,190.5 C154,200.944 154.247,203 155.5,203 C156.325,203 157,203.675 157,204.5 C157,205.333 157.889,206 159,206 C160.1,206 161,205.375 161,204.611 C161,203.816 162.495,202.942 164.5,202.566 C166.595,202.173 168,201.325 168,200.455 C168,199.358 169.354,199 173.5,199 C177.722,199 179,198.652 179,197.5 C179,196.425 180.097,196 182.875,196 C185.006,196 188.156,195.719 189.875,195.375 C192.862,194.778 193,194.535 193,189.875 L193,185 L176.091,185 L175.434,188.5 C174.837,191.682 174.47,192 171.389,192 C168.667,192 168,191.607 168,190 C168,188.667 167.333,188 166,188 C164.381,188 164,187.333 164,184.5 C164,181.667 164.381,181 166,181 C167.1,181 168,180.377 168,179.617 C168,178.041 171,177.034 175.75,177.014 C177.966,177.004 179,176.523 179,175.5 C179,174.452 180.056,174 182.5,174 C184.944,174 186,174.452 186,175.5 C186,176.412 186.931,177 188.375,177 C192.752,177 197,178.238 197,179.514 C197,180.209 198.575,181.073 200.5,181.434 C203.94,182.079 205.437,184 202.5,184 C201.644,184 201,184.899 201,186.094 C201,187.346 200.197,188.397 199,188.71 C197.583,189.081 197,190.074 197,192.117 C197,194.592 197.389,195.002 199.75,195.014 C206.897,195.049 209.105,198.294 207.566,206.5 C206.966,209.698 206.611,210 203.455,210 C200.173,210 200,209.825 200,206.5 L200,203 L193,203 C187.444,203 186,203.31 186,204.5 C186,205.412 185.069,206 183.625,206 C179.12,206 175,207.254 175,208.625 C175,209.53 173.803,210 171.5,210 C169.187,210 168,210.469 168,211.383 C168,212.899 165.032,213.965 160.75,213.986 C158.978,213.995 158,214.534 158,215.5 C158,216.333 157.111,217 156,217 C154.381,217 154,217.667 154,220.5 L154,224 L159.5,224 C163.722,224 165,223.652 165,222.5 C165,221.238 167.222,221 179,221 L193,221 L193,224.5 C193,226.82 192.532,228 191.611,228 C190.822,228 189.945,229.478 189.58,231.428 C189.06,234.196 188.366,234.98 185.968,235.507 C184.336,235.866 183,236.798 183,237.579 C183,238.361 182.1,239 181,239 C179.889,239 179,239.667 179,240.5 C179,241.333 178.111,242 177,242 C175.667,242 175,242.667 175,244 C175,245.333 174.333,246 173,246 C171.889,246 171,246.667 171,247.5 C171,248.325 170.325,249 169.5,249 C168.667,249 168,249.889 168,251 C168,252.333 167.333,253 166,253 C164.667,253 164,253.667 164,255 C164,256.111 163.333,257 162.5,257 C161.675,257 161,257.623 161,258.383 C161,259.144 160.1,260.002 159,260.29 C157.9,260.577 157,261.53 157,262.406 C157,263.283 156.325,264 155.5,264 C154.675,264 154,264.717 154,265.594 C154,266.47 153.1,267.423 152,267.71 C150.9,267.998 150,268.856 150,269.617 C150,270.377 149.325,271 148.5,271 C147.675,271 147,271.717 147,272.594 C147,273.47 146.1,274.423 145,274.71 C143.497,275.103 143,276.074 143,278.617 L143,282 L137.5,282 C133.278,282 132,281.652 132,280.5 C132,279.675 132.625,279 133.389,279 C134.184,279 135.058,277.505 135.434,275.5 C135.827,273.405 136.675,272 137.545,272 C138.345,272 139,271.152 139,270.117 C139,269.074 139.893,268 141,267.71 C142.1,267.423 143,266.47 143,265.594 C143,264.717 143.675,264 144.5,264 C145.333,264 146,263.111 146,262 C146,260.667 146.667,260 148,260 C149.333,260 150,259.333 150,258 C150,256.889 150.667,256 151.5,256 C152.325,256 153,255.325 153,254.5 C153,253.667 153.889,253 155,253 C156.333,253 157,252.333 157,251 C157,249.889 157.667,249 158.5,249 C159.325,249 160,248.325 160,247.5 C160,246.667 160.889,246 162,246 C163.333,246 164,245.333 164,244 C164,242.667 164.667,242 166,242 C167.111,242 168,241.333 168,240.5 C168,239.675 168.675,239 169.5,239 C170.325,239 171,238.283 171,237.406 C171,236.53 171.9,235.577 173,235.29 C174.159,234.987 175,233.926 175,232.767 C175,231.181 174.534,230.892 172.75,231.37 C171.512,231.701 168.363,231.979 165.75,231.986 C162.201,231.997 161,232.379 161,233.5 C161,234.55 159.941,235 157.469,235 C155.252,235 153.723,235.559 153.362,236.5 C152.736,238.132 150,238.588 150,237.06 C150,236.544 148.313,235.981 146.25,235.81 C142.704,235.517 142.483,235.296 142.19,231.75 C141.923,228.53 142.17,228 143.94,228 C145.969,228 146,227.597 146,201 L146,174 L141,174 C137.222,174 136,174.367 136,175.5 C136,176.333 135.111,177 134,177 C132.667,177 132,177.667 132,179 C132,180.593 131.333,181 128.722,181 C126.682,181 124.798,181.755 123.732,183 C122.79,184.1 121.115,185 120.01,185 C118.89,185 118,185.664 118,186.5 C118,187.333 117.111,188 116,188 C114.667,188 114,188.667 114,190 C114,191.333 113.333,192 112,192 C110.9,192 110,192.655 110,193.455 C110,194.325 108.595,195.173 106.5,195.566 C104.495,195.942 103,196.816 103,197.611 C103,198.375 102.325,199 101.5,199 C100.667,199 100,199.889 100,201 C100,202.333 99.333,203 98,203 C96.889,203 96,203.667 96,204.5 C96,205.548 94.944,206 92.5,206 C89.167,206 89,205.833 89,202.5 C89,200.056 89.452,199 90.5,199 C91.325,199 92,198.325 92,197.5 C92,196.667 92.889,196 94,196 C95.333,196 96,195.333 96,194 C96,192.381 96.667,192 99.5,192 C102.333,192 103,191.619 103,190 C103,188.667 103.667,188 105,188 C106.111,188 107,187.333 107,186.5 C107,185.675 107.717,185 108.594,185 C109.47,185 110.423,184.1 110.71,183 C111.081,181.583 112.074,181 114.117,181 C116.013,181 117,180.487 117,179.5 C117,178.644 117.899,178 119.094,178 C120.346,178 121.397,177.197 121.71,176 C122.081,174.583 123.074,174 125.117,174 C127.013,174 128,173.487 128,172.5 C128,171.667 128.889,171 130,171 C131.333,171 132,170.333 132,169 C132,167.394 132.667,167 135.383,167 C137.926,167 138.897,166.503 139.29,165 C139.577,163.9 140.53,163 141.406,163 C142.333,163 143,162.163 143,161 C143,159.889 143.667,159 144.5,159 C145.325,159 146,158.325 146,157.5 C146,156.417 147.111,156 150,156 C153.333,156 154,155.667 154,154 C154,152.889 154.667,152 155.5,152 C156.325,152 157,151.325 157,150.5 C157,149.363 155.767,149 151.906,149 C147.654,149 146.726,148.67 146.29,147 C146.002,145.9 145.144,145 144.383,145 C143.623,145 143,144.375 143,143.611 C143,142.822 141.522,141.945 139.572,141.58 C136.814,141.062 136.019,140.363 135.5,138 C134.981,135.637 134.186,134.938 131.428,134.42 C129.478,134.055 128,133.178 128,132.389 C128,131.625 127.325,131 126.5,131 C125.667,131 125,130.111 125,129 C125,126.68 127.785,126.275 128.628,128.473 C128.939,129.283 130.725,130.233 132.597,130.584 C134.527,130.946 136,131.823 136,132.611 C136,133.497 137.121,134 139.094,134 C141.346,134 142.329,134.544 142.71,136 C143,137.107 144.074,138 145.117,138 C146.152,138 147,138.623 147,139.383 C147,141.21 150.135,141.97 157.75,141.986 L164,142 L164,136.5 C164,132.278 163.652,131 162.5,131 C161.258,131 161,129.111 161,120 L161,109 L157.406,109 C154.654,109 153.69,109.468 153.29,111 C152.857,112.656 151.926,113 147.883,113 C144.344,113 143,113.389 143,114.412 C143,115.28 141.459,116.085 139,116.5 C136.541,116.915 135,117.72 135,118.588 C135,119.49 133.917,120 132,120 C129.922,120 129,120.49 129,121.594 C129,122.47 128.1,123.423 127,123.71 C125.9,123.998 125,124.856 125,125.617 C125,126.627 123.516,127 119.5,127 L114,127 L114,123.5 C114,121.056 114.452,120 115.5,120 C116.325,120 117,119.283 117,118.406 C117,117.53 117.9,116.577 119,116.29 C120.1,116.002 121,115.144 121,114.383 C121,113.469 122.187,113 124.5,113 C127.333,113 128,112.619 128,111 C128,109.333 128.667,109 132,109 C134.814,109 136,108.573 136,107.561 C136,106.511 137.895,105.934 143,105.431 C147.927,104.946 150,104.336 150,103.371 C150,102.471 151.202,102 153.5,102 L157,102 L157,91 L152.05,91 C148.375,91 146.847,91.451 146.12,92.75 C145.351,94.125 143.804,94.5 138.904,94.5 C134.803,94.5 132.524,94.072 132.25,93.25 C132.021,92.562 131.222,92 130.476,92 C128.443,92 127.776,90.298 128.505,86.976 C129.122,84.167 129.434,84 134.079,84 C137.588,84 139,83.605 139,82.625 C139,80.94 143.342,80 151.125,80 C155.434,80 157,79.635 157,78.629 C157,77.666 159.056,77.056 163.913,76.577 C168.538,76.122 171.01,75.417 171.382,74.448 C171.794,73.374 173.753,73 178.969,73 C184.552,73 186,72.691 186,71.5 C186,70.278 187.667,70 195,70 C202.333,70 204,70.278 204,71.5 C204,72.583 205.111,73 208,73 C210.889,73 212,72.583 212,71.5 C212,70.675 212.675,70 213.5,70 C214.548,70 215,68.944 215,66.5 C215,64.056 215.452,63 216.5,63 C217.652,63 218,61.722 218,57.5 L218,52 L203.5,52 C191.278,52 189,52.236 189,53.5 C189,54.716 187.385,55 180.469,55 C173.808,55 171.811,55.329 171.362,56.5 C170.584,58.528 165.385,58.446 164.598,56.394 C163.859,54.47 158.979,55.309 157.7,57.58 C157.178,58.508 155.185,59 151.95,59 C148.354,59 147,59.386 147,60.412 C147,61.28 145.459,62.085 143,62.5 C140.541,62.915 139,63.72 139,64.588 C139,65.616 137.639,66 134,66 C130.092,66 129,66.348 129,67.594 C129,68.47 128.1,69.423 127,69.71 C125.565,70.086 125,71.074 125,73.21 C125,75.346 124.435,76.335 123,76.71 C121.228,77.174 121,78.074 121,84.617 C121,90.513 120.698,92 119.5,92 C118.675,92 118,92.675 118,93.5 C118,94.333 117.111,95 116,95 C114.9,95 114,94.377 114,93.617 C114,92.856 113.1,91.998 112,91.71 C110.105,91.215 110,90.346 110,75.094 C110,59.667 110.083,59 112,59 C113.378,59 114,58.333 114,56.856 C114,54.81 114.333,54.737 121.256,55.26 C131.233,56.015 142,55.076 142,53.451 C142,52.743 143.778,51.875 146,51.5 C148.459,51.085 150,50.28 150,49.412 C150,48.367 151.43,48 155.5,48 L161,48 L161,44.5 C161,41.19 160.817,41 157.617,41 C155.074,41 154.103,40.503 153.71,39 C153.329,37.544 152.346,37 150.094,37 C148.096,37 147,36.5 147,35.588 C147,34.72 145.459,33.915 143,33.5 C139.404,32.892 139,32.53 139,29.912 C139,27.99 138.49,27 137.5,27 C136.667,27 136,26.111 136,25 C136,23.9 136.623,23 137.383,23 C138.144,23 139.002,22.1 139.29,21 Z M202.75,98.785 C195.876,99.015 194,99.391 194,100.539 C194,101.69 192.411,102 186.5,102 C179.667,102 179,102.178 179,104 C179,105.333 178.333,106 177,106 C175.889,106 175,106.667 175,107.5 C175,108.369 174.094,109 172.847,109 C170.733,109 170.706,109.2 171.343,120.25 C171.699,126.438 171.993,133.637 171.995,136.25 C171.999,139.804 172.378,141 173.5,141 C174.325,141 175,140.325 175,139.5 C175,138.667 175.889,138 177,138 C178.1,138 179,137.345 179,136.545 C179,135.675 180.405,134.827 182.5,134.434 C184.425,134.073 186,133.205 186,132.505 C186,131.806 186.9,130.998 188,130.71 C189.1,130.423 190,129.47 190,128.594 C190,127.717 190.675,127 191.5,127 C192.325,127 193,126.375 193,125.611 C193,124.816 194.495,123.942 196.5,123.566 C198.595,123.173 200,122.325 200,121.455 C200,120.655 200.9,120 202,120 C203.333,120 204,119.333 204,118 C204,116.667 204.667,116 206,116 C207.1,116 208,115.361 208,114.579 C208,113.798 209.312,112.871 210.916,112.518 C212.521,112.166 214.081,111.23 214.385,110.439 C214.689,109.648 215.626,109 216.469,109 C217.311,109 218,108.375 218,107.611 C218,106.824 219.471,105.947 221.398,105.585 C223.965,105.104 224.956,104.313 225.447,102.356 C225.805,100.93 225.963,99.654 225.799,99.52 C225.119,98.966 210.892,98.512 202.75,98.785 Z M190,247.594 C190,246.237 191.559,246 200.5,246 C208.742,246 211,246.296 211,247.375 C211,248.746 215.12,250 219.625,250 C221.069,250 222,250.588 222,251.5 C222,252.333 222.889,253 224,253 C225.1,253 226,253.655 226,254.455 C226,255.325 227.405,256.173 229.5,256.566 C231.425,256.927 233,257.797 233,258.5 C233,259.203 234.575,260.073 236.5,260.434 C238.595,260.827 240,261.675 240,262.545 C240,263.345 240.9,264 242,264 C243.1,264 244,264.655 244,265.455 C244,266.325 245.405,267.173 247.5,267.566 C250.682,268.163 251,268.53 251,271.611 C251,273.957 250.538,275 249.5,275 C248.675,275 248,275.675 248,276.5 C248,277.333 247.111,278 246,278 C244.889,278 244,277.333 244,276.5 C244,275.667 243.111,275 242,275 C240.889,275 240,274.333 240,273.5 C240,272.675 239.283,272 238.406,272 C237.53,272 236.577,271.1 236.29,270 C235.935,268.644 234.919,267.996 233.133,267.986 C228.96,267.965 226,266.885 226,265.383 C226,264.623 225.1,264 224,264 C222.9,264 222,263.375 222,262.611 C222,261.816 220.505,260.942 218.5,260.566 C216.405,260.173 215,259.325 215,258.455 C215,257.358 213.646,257 209.5,257 C205.5,257 204,256.625 204,255.625 C204,253.94 199.658,253 191.875,253 C187.54,253 186,252.637 186,251.617 C186,250.856 186.9,249.998 188,249.71 C189.1,249.423 190,248.47 190,247.594 Z M83.25,116.706 C86.821,116.018 98.281,115.968 100.75,116.63 C101.987,116.962 103,117.856 103,118.617 C103,119.377 103.9,120 105,120 C106.839,120 106.999,120.662 106.986,128.25 C106.968,139.426 106.461,141 102.883,141 C100.112,141 99.999,140.815 99.986,136.25 C99.959,126.89 99.818,126.751 90.781,127.161 C84.532,127.445 82.64,127.891 81.874,129.261 C81.062,130.711 79.413,131 71.95,131 C63.667,131 63,130.851 63,129 C63,127.889 62.333,127 61.5,127 C60.675,127 60,126.325 60,125.5 C60,124.675 60.717,124 61.594,124 C62.47,124 63.423,123.1 63.71,122 C64.181,120.201 65.074,120 72.617,120 C79.221,120 81,119.696 81,118.57 C81,117.783 82.013,116.944 83.25,116.706 Z M103,165 C103,163.381 103.667,163 106.5,163 C109.825,163 110,163.173 110,166.455 C110,169.611 109.698,169.966 106.5,170.566 C104.495,170.942 103,171.816 103,172.611 C103,173.532 101.82,174 99.5,174 C97.187,174 96,174.469 96,175.383 C96,176.959 93,177.966 88.25,177.986 C86.15,177.995 85,178.491 85,179.389 C85,180.184 83.505,181.058 81.5,181.434 C79.405,181.827 78,182.675 78,183.545 C78,184.541 76.896,185 74.5,185 C72.187,185 71,185.469 71,186.383 C71,187.144 70.1,188.002 69,188.29 C67.9,188.577 67,189.53 67,190.406 C67,191.283 66.34,192 65.534,192 C64.534,192 63.862,193.561 63.417,196.914 C62.727,202.115 61.681,202.956 55.867,202.986 C54.067,202.996 53.068,202.366 52.71,201 C52.423,199.9 51.47,199 50.594,199 C49.439,199 49,198.036 49,195.5 C49,192.667 49.381,192 51,192 C52.1,192 53,191.345 53,190.545 C53,189.675 54.405,188.827 56.5,188.434 C58.425,188.073 60,187.205 60,186.505 C60,185.806 60.9,184.998 62,184.71 C63.1,184.423 64,183.47 64,182.594 C64,181.49 64.922,181 67,181 C68.917,181 70,180.49 70,179.588 C70,178.72 71.541,177.915 74,177.5 C76.459,177.085 78,176.28 78,175.412 C78,174.465 79.152,174 81.5,174 C84.333,174 85,173.619 85,172 C85,170.381 85.667,170 88.5,170 C90.944,170 92,169.548 92,168.5 C92,167.348 93.278,167 97.5,167 C102.333,167 103,166.758 103,165 Z M67,85.5 C67,84.222 69.667,84 85,84 C102.333,84 103,84.074 103,86 C103,87.354 103.667,88 105.063,88 C106.789,88 107.075,88.532 106.813,91.25 C106.508,94.419 106.37,94.508 101.25,94.802 C97.19,95.036 96,94.776 96,93.654 C96,92.592 94.136,92.016 89.05,91.505 C80.703,90.667 74,91.594 74,93.588 C74,94.67 72.362,95 67,95 L60,95 L60,91 C60,87.095 60.083,87 63.5,87 C65.944,87 67,86.548 67,85.5 Z"/>
</svg>

