<svg xmlns="http://www.w3.org/2000/svg" width="300" height="300" viewBox="0 0 300 300" version="1.1">
  <defs/>
  <path d="M145.5,60 C146.168,56.958 149,55.745 149,58.5 C149,59.325 149.608,60 150.352,60 C151.783,60 152.982,70.327 152.994,82.75 C152.999,87.636 153.327,89 154.5,89 C155.787,89 156,92.056 156,110.5 C156,128.944 155.787,132 154.5,132 C153.354,132 153,133.26 153,137.344 C153,140.284 152.711,147.419 152.357,153.2 L151.714,163.711 L158.977,164.23 C168.564,164.916 169.815,164.502 170.587,160.39 C170.947,158.469 171.825,157 172.611,157 C173.375,157 174,156.1 174,155 C174,153.889 174.667,153 175.5,153 C176.325,153 177,152.325 177,151.5 C177,150.667 177.889,150 179,150 C180.333,150 181,149.333 181,148 C181,146.9 181.655,146 182.455,146 C183.325,146 184.173,144.595 184.566,142.5 C185.041,139.967 185.745,139 187.111,139 C188.15,139 189,138.325 189,137.5 C189,136.675 189.675,136 190.5,136 C191.333,136 192,135.111 192,134 C192,132.667 192.667,132 194,132 C195.111,132 196,131.333 196,130.5 C196,129.675 196.717,129 197.594,129 C198.47,129 199.423,128.1 199.71,127 C199.998,125.9 200.856,125 201.617,125 C202.377,125 203,124.1 203,123 C203,121.381 203.667,121 206.5,121 C209.333,121 210,120.619 210,119 C210,117.667 210.667,117 212,117 C213.111,117 214,116.333 214,115.5 C214,114.367 215.222,114 219,114 L224,114 L224,117.5 C224,119.944 223.548,121 222.5,121 C221.667,121 221,121.889 221,123 C221,124.619 220.333,125 217.5,125 C215.056,125 214,125.452 214,126.5 C214,127.333 213.111,128 212,128 C210.667,128 210,128.667 210,130 C210,131.333 209.333,132 208,132 C206.889,132 206,132.667 206,133.5 C206,134.325 205.325,135 204.5,135 C203.675,135 203,135.85 203,136.889 C203,138.248 202.039,138.958 199.572,139.42 C196.804,139.94 196.02,140.634 195.493,143.032 C195.134,144.664 194.202,146 193.421,146 C192.639,146 192,146.9 192,148 C192,149.333 191.333,150 190,150 C188.667,150 188,150.667 188,152 C188,153.111 187.333,154 186.5,154 C185.675,154 185,154.623 185,155.383 C185,156.144 184.1,157.002 183,157.29 C181.565,157.665 181,158.654 181,160.79 C181,162.926 180.435,163.914 179,164.29 C177.9,164.577 177,165.53 177,166.406 C177,167.283 176.325,168 175.5,168 C174.675,168 174,168.623 174,169.383 C174,170.144 173.1,171.002 172,171.29 C170.9,171.577 170,172.53 170,173.406 C170,174.283 169.325,175 168.5,175 C167.667,175 167,175.889 167,177 C167,178.333 166.333,179 165,179 C163.889,179 163,179.667 163,180.5 C163,181.548 161.944,182 159.5,182 C156.167,182 156,181.833 156,178.5 C156,175.667 156.381,175 158,175 C159.111,175 160,174.333 160,173.5 C160,172.675 160.675,172 161.5,172 C162.333,172 163,171.111 163,170 C163,168.381 162.333,168 159.5,168 C156.667,168 156,168.381 156,170 C156,171.604 155.333,172 152.63,172 C149.384,172 149.242,172.163 148.759,176.448 C147.905,184.022 148.704,186 152.617,186 C155.333,186 156,186.394 156,188 C156,189.619 156.667,190 159.5,190 C161.944,190 163,190.452 163,191.5 C163,192.548 164.056,193 166.5,193 C169.333,193 170,193.381 170,195 C170,196.667 170.667,197 174,197 C176.889,197 178,197.417 178,198.5 C178,199.51 179.01,200 181.094,200 C183.346,200 184.329,200.544 184.71,202 C185.152,203.688 186.074,204 190.617,204 C194.533,204 196,204.377 196,205.383 C196,207.103 199.077,207.969 205.25,207.986 C208.799,207.997 210,208.379 210,209.5 C210,210.692 211.455,211 217.094,211 C223.346,211 224.249,211.237 224.71,213 C224.998,214.1 225.856,215 226.617,215 C227.377,215 228,215.635 228,216.412 C228,217.28 226.459,218.085 224,218.5 C221.541,218.915 220,219.72 220,220.588 C220,221.365 219.55,222 219,222 C218.45,222 218,221.325 218,220.5 C218,219.465 216.961,219 214.647,219 C206.723,219 199,217.696 199,216.358 C199,215.397 197.552,215 194.05,215 C190.544,215 188.837,214.531 188.201,213.394 C187.66,212.428 185.449,211.58 182.651,211.264 C179.857,210.949 178,210.237 178,209.481 C178,208.789 176.425,207.927 174.5,207.566 C172.405,207.173 171,206.325 171,205.455 C171,204.424 169.834,204 167,204 C164.166,204 163,203.576 163,202.545 C163,201.675 161.595,200.827 159.5,200.434 C157.495,200.058 156,199.184 156,198.389 C156,197.327 154.233,197 148.5,197 C142.5,197 141,197.3 141,198.5 C141,199.325 140.325,200 139.5,200 C138.352,200 138,201.265 138,205.383 C138,209.926 137.688,210.848 136,211.29 C134.544,211.671 134,212.654 134,214.906 C134,216.99 133.51,218 132.5,218 C131.667,218 131,218.889 131,220 C131,221.1 130.345,222 129.545,222 C128.675,222 127.827,223.405 127.434,225.5 C127.058,227.505 126.184,229 125.389,229 C124.461,229 124,230.194 124,232.594 C124,235.346 123.532,236.31 122,236.71 C120.9,236.998 120,237.856 120,238.617 C120,239.531 118.813,240 116.5,240 C113.083,240 113,239.905 113,236 C113,233.211 113.43,232 114.421,232 C115.202,232 116.138,230.65 116.5,229 C116.862,227.35 117.798,226 118.579,226 C119.536,226 120,224.857 120,222.5 C120,220.152 120.465,219 121.412,219 C122.28,219 123.085,217.459 123.5,215 C123.915,212.541 124.72,211 125.588,211 C126.535,211 127,209.848 127,207.5 C127,205.187 127.469,204 128.383,204 C129.959,204 130.966,201 130.986,196.25 C130.996,194.034 131.477,193 132.5,193 C135.571,193 133.992,190.126 130.75,189.813 C127.537,189.504 127.497,189.435 127.2,183.75 C126.927,178.522 127.086,178 128.95,178 C130.078,178 131,177.55 131,177 C131,175.428 133.722,175.833 134.362,177.5 C135.5,180.466 138,179.178 138,175.625 C138,172.645 137.634,172.177 134.875,171.625 C133.156,171.281 130.681,171 129.375,171 C127.931,171 127,170.412 127,169.5 C127,168.31 125.556,168 120,168 C114.444,168 113,167.69 113,166.5 C113,165.588 112.069,165 110.625,165 C106.12,165 102,163.746 102,162.375 C102,161.479 100.821,161 98.617,161 C96.074,161 95.103,160.503 94.71,159 C94.329,157.544 93.346,157 91.094,157 C89.121,157 88,156.497 88,155.611 C88,154.816 86.505,153.942 84.5,153.566 C82.405,153.173 81,152.325 81,151.455 C81,150.655 80.1,150 79,150 C77.381,150 77,149.333 77,146.5 L77,143 L82.5,143 C86.722,143 88,143.348 88,144.5 C88,145.548 89.056,146 91.5,146 C94.333,146 95,146.381 95,148 C95,149.619 95.667,150 98.5,150 C100.896,150 102,150.459 102,151.455 C102,152.325 103.405,153.173 105.5,153.566 C107.505,153.942 109,154.816 109,155.611 C109,156.523 110.163,157 112.383,157 C114.926,157 115.897,157.497 116.29,159 C116.734,160.699 117.654,161 122.406,161 C126.712,161 128,161.345 128,162.5 C128,163.677 129.376,164 134.383,164 C141.629,164 141.961,163.596 141.986,154.75 C141.997,151.201 142.379,150 143.5,150 C144.753,150 145,147.944 145,137.5 C145,127.056 145.247,125 146.5,125 C148.377,125 148.605,118.37 146.75,117.746 C145.983,117.488 145.488,115.43 145.47,112.413 C145.318,87.374 144.946,81 143.637,81 C142.681,81 142.12,79.083 141.759,74.587 C141.146,66.953 141.753,63 143.537,63 C144.254,63 145.138,61.65 145.5,60 Z"/>
</svg>

