<svg xmlns="http://www.w3.org/2000/svg" width="300" height="300" viewBox="0 0 300 300" version="1.1">
  <defs/>
  <path d="M149,53 C149,51.428 151.722,51.833 152.362,53.5 C152.723,54.441 154.252,55 156.469,55 C158.892,55 160,55.456 160,56.455 C160,57.325 161.405,58.173 163.5,58.566 C165.505,58.942 167,59.816 167,60.611 C167,61.375 167.675,62 168.5,62 C169.333,62 170,62.889 170,64 C170,65.333 170.667,66 172,66 C173.619,66 174,66.667 174,69.5 C174,71.896 174.459,73 175.455,73 C176.333,73 177.177,74.426 177.585,76.599 C178.054,79.101 178.516,79.787 179.1,78.849 C179.694,77.895 180.132,78.453 180.595,80.75 C180.955,82.537 181.848,84 182.58,84 C183.311,84 184.199,85.544 184.553,87.431 C184.907,89.318 185.827,91.104 186.598,91.399 C187.429,91.718 188,93.355 188,95.419 C188,97.621 188.609,99.242 189.658,99.828 C190.806,100.471 191.46,102.56 191.788,106.628 C192.052,109.909 192.83,112.833 193.551,113.255 C194.268,113.675 195.164,117.008 195.567,120.755 C196.085,125.574 196.516,126.929 197.076,125.5 C197.603,124.154 197.882,125.382 197.93,129.25 C197.977,133.142 197.622,134.919 196.832,134.75 C196.189,134.612 195.251,136.16 194.747,138.189 C194.015,141.134 193.242,142.008 190.914,142.519 C187.282,143.317 185.75,147.613 188.406,149.555 C189.695,150.498 189.791,150.924 188.803,151.32 C187.961,151.657 188.12,151.87 189.25,151.921 C190.695,151.986 191,152.959 191,157.5 C191,161.516 191.373,163 192.384,163 C193.379,163 193.885,164.85 194.187,169.6 C194.497,174.462 195.055,176.451 196.304,177.15 C197.452,177.793 198,179.375 198,182.05 C198,184.604 198.455,186 199.287,186 C200.03,186 200.662,187.374 200.782,189.25 C201.187,195.572 202.189,200.001 203.089,199.445 C203.619,199.117 204,204.36 204,212 C204,219.373 203.612,224.878 203.113,224.57 C202.012,223.889 199.771,226.438 200.675,227.342 C201.037,227.704 200.358,228 199.167,228 C197.667,228 197,228.615 197,230 C197,231.333 196.333,232 195,232 C193.889,232 193,232.667 193,233.5 C193,234.548 191.944,235 189.5,235 C186.787,235 186,235.408 186,236.813 C186,238.278 185.087,238.67 181.25,238.852 C178.488,238.983 176.035,239.69 175.389,240.54 C174.313,241.956 170.991,242.656 164.25,242.888 C161.995,242.966 161,243.486 161,244.588 C161,245.986 159.088,246.135 144.962,245.838 C133.355,245.593 128.707,245.148 128.139,244.226 C127.516,243.218 118.439,241.034 114.75,241.006 C114.338,241.003 114,240.325 114,239.5 C114,238.664 113.11,238 111.99,238 C110.885,238 109.21,237.1 108.268,236 C107.326,234.9 105.868,233.993 105.028,233.985 C103.676,233.971 103.673,233.857 105,233 C106.282,232.172 106.246,232.028 104.75,232.015 C103.787,232.007 103,231.55 103,231 C103,230.45 102.494,230.112 101.875,230.25 C101.256,230.387 100.29,229.15 99.728,227.5 C99.166,225.85 98.098,224.14 97.353,223.7 C94.755,222.165 95.922,205 98.625,205 C99.381,205 99.911,204.662 99.802,204.25 C99.281,202.284 101.245,194.066 102.186,194.269 C102.774,194.396 103.443,193.15 103.673,191.5 C103.902,189.85 104.743,188.002 105.542,187.392 C106.34,186.783 107.276,184.871 107.622,183.142 C107.967,181.414 108.869,180 109.625,180 C110.381,180 111,179.096 111,177.99 C111,176.885 111.9,175.21 113,174.268 C114.1,173.326 115,171.756 115,170.778 C115,169.778 115.766,168.969 116.75,168.93 C118.267,168.869 118.241,168.758 116.554,168.098 C114.696,167.371 114.707,167.31 116.804,166.762 C118.012,166.446 119,165.47 119,164.594 C119,163.717 119.625,163 120.389,163 C121.184,163 122.058,161.505 122.434,159.5 C122.827,157.405 123.675,156 124.545,156 C125.345,156 126,155.1 126,154 C126,152.667 126.667,152 128,152 C129.111,152 130,151.333 130,150.5 C130,149.675 130.637,149 131.417,149 C134.353,149 134.087,144.056 131.143,143.93 C129.872,143.875 129.949,143.684 131.483,143.085 C133.132,142.441 132.836,142.192 129.733,141.61 C126.934,141.085 126,140.42 126,138.955 C126,137.88 125.573,137 125.052,137 C124.53,137 122.911,135.895 121.453,134.544 C118.886,132.165 118.815,131.793 119.152,122.507 C119.367,116.592 119.95,112.647 120.676,112.199 C121.323,111.8 122.389,109.342 123.045,106.737 C123.747,103.95 124.806,102 125.619,102 C126.378,102 127,101.1 127,100 C127,98.9 127.655,98 128.455,98 C129.333,98 130.177,96.574 130.585,94.401 C131.054,91.899 131.516,91.213 132.1,92.151 C132.692,93.101 133.139,92.514 133.612,90.164 C133.982,88.329 134.933,86.579 135.726,86.275 C136.908,85.821 136.928,85.57 135.834,84.876 C134.812,84.229 134.91,84.027 136.25,84.015 C137.328,84.006 138,83.232 138,82 C138,80.9 138.623,80 139.383,80 C140.144,80 141.014,79.055 141.316,77.899 C141.641,76.658 142.33,76.086 143,76.5 C143.67,76.914 144.359,76.342 144.684,75.101 C145.156,73.295 145.988,73 150.617,73 C155.333,73 156,72.752 156,71 C156,68.126 157.873,68.537 159.066,71.672 C160.272,74.845 159.652,77 157.531,77 C156.689,77 156,77.675 156,78.5 C156,79.325 155.283,80 154.406,80 C153.53,80 152.577,80.9 152.29,82 C152,83.107 150.926,84 149.883,84 C148.848,84 148,84.675 148,85.5 C148,86.325 147.375,87 146.611,87 C145.823,87 144.946,88.473 144.584,90.403 C144.233,92.275 143.283,94.061 142.473,94.372 C141.663,94.683 141,95.626 141,96.469 C141,97.311 140.325,98 139.5,98 C138.675,98 138,98.882 138,99.961 C138,101.04 137.152,102.727 136.116,103.711 C135.081,104.695 133.928,106.925 133.555,108.666 C133.183,110.408 132.23,112.081 131.439,112.385 C130.396,112.785 130.004,114.667 130.014,119.219 C130.031,127.203 130.739,129.783 133.122,130.539 C134.171,130.872 134.799,131.517 134.517,131.973 C134.235,132.429 136.254,133.341 139.002,134.001 C141.751,134.66 144,135.605 144,136.1 C144,137.598 146.745,137.108 147.362,135.5 C147.723,134.559 149.252,134 151.469,134 C153.941,134 155,133.55 155,132.5 C155,131.278 156.667,131 164,131 C169.588,131 171.885,130.964 172.787,132.068 C173.444,132.872 173.36,134.282 173.269,136.75 C173.237,137.601 174.942,138 178.611,138 C182.735,138 184,137.648 184,136.5 C184,135.675 184.632,135 185.403,135 C186.964,135 187.751,128.662 187.143,121 C186.865,117.5 186.603,116.944 185.963,118.5 C185.247,120.241 185.131,120.137 185.07,117.693 C184.973,113.817 182.926,106 182.009,106 C181.594,106 181.034,103.702 180.764,100.893 C180.494,98.085 179.838,95.497 179.306,95.143 C178.775,94.79 177.718,93.07 176.958,91.322 C176.198,89.574 175.277,88.329 174.913,88.554 C174.548,88.779 173.971,87.221 173.631,85.091 C173.29,82.961 172.334,80.958 171.506,80.641 C170.678,80.323 170,79.374 170,78.531 C170,77.689 169.325,77 168.5,77 C167.156,77 166.5,74.692 166.899,71.365 C166.974,70.74 165.452,69.932 163.518,69.569 C161.409,69.174 160,68.327 160,67.455 C160,66.655 159.1,66 158,66 C156.667,66 156,65.333 156,64 C156,62.19 155.333,62 149,62 C143.262,62 142,62.287 142,63.594 C142,64.47 141.1,65.423 140,65.71 C138.497,66.103 138,67.074 138,69.617 C138,72.333 137.606,73 136,73 C134.667,73 134,72.333 134,71 C134,69.889 133.333,69 132.5,69 C131.675,69 131,68.325 131,67.5 C131,66.675 131.675,66 132.5,66 C133.555,66 134,64.934 134,62.406 C134,59.654 134.468,58.69 136,58.29 C137.1,58.002 138,57.197 138,56.5 C138,55.031 141.111,54.033 145.75,54.014 C147.537,54.006 149,53.55 149,53 Z M158.361,148.773 C141.964,149.034 141.198,149.136 140.678,151.124 C140.358,152.349 139.669,152.914 139,152.5 C138.33,152.086 137.641,152.658 137.316,153.899 C137.014,155.055 136.032,156.007 135.133,156.015 C133.857,156.027 133.792,156.215 134.834,156.876 C135.908,157.557 135.859,157.84 134.584,158.329 C133.713,158.664 133,159.899 133,161.076 C133,162.566 132.545,163.039 131.5,162.638 C130.465,162.241 130,162.703 130,164.125 C130,165.346 129.184,166.401 128,166.71 C126.608,167.074 126,168.074 126,170 C126,171.926 125.392,172.926 124,173.29 C122.8,173.604 122,174.654 122,175.916 C122,177.073 121.1,178.79 120,179.732 C118.9,180.674 118,182.019 118,182.722 C118,183.425 117.325,184 116.5,184 C115.45,184 115,185.059 115,187.531 C115,189.658 114.436,191.279 113.582,191.607 C112.801,191.906 111.632,194.366 110.982,197.073 C110.333,199.781 109.447,201.777 109.015,201.509 C107.971,200.864 106.83,210.335 107.112,217.303 C107.291,221.731 107.707,222.952 109.168,223.334 C110.176,223.597 111,224.53 111,225.406 C111,226.283 111.623,227 112.383,227 C113.144,227 113.985,227.835 114.252,228.855 C114.611,230.228 115.98,230.85 119.52,231.249 C122.428,231.577 124.654,232.417 125.201,233.394 C125.982,234.791 128.894,235 147.55,235 C162.832,235 168.928,234.679 168.75,233.883 C168.612,233.268 169.4,232.62 170.5,232.441 C177.496,231.305 179,230.776 179,229.455 C179,228.468 180.091,228 182.393,228 C184.385,228 186.009,227.42 186.325,226.594 C186.622,225.821 188.245,224.885 189.932,224.515 C191.62,224.144 193,223.287 193,222.609 C193,221.932 193.9,220.411 195,219.23 C197.41,216.644 197.877,207.55 195.644,206.694 C194.771,206.359 194.096,203.781 193.749,199.461 C193.453,195.769 192.771,192.467 192.234,192.124 C191.697,191.781 191.054,188.627 190.805,185.116 C190.498,180.78 189.832,178.35 188.729,177.544 C187.588,176.71 187.015,174.442 186.802,169.928 C186.591,165.442 186.122,163.576 185.25,163.75 C184.417,163.917 184,162.667 184,160 C184,156.667 183.667,156 182,156 C180.394,156 180,155.333 180,152.617 C180,151.519 180.02,150.708 179.67,150.116 C178.667,148.418 174.626,148.514 158.361,148.773 Z"/>
</svg>

