<svg xmlns="http://www.w3.org/2000/svg" width="300" height="300" viewBox="0 0 300 300" version="1.1">
  <defs/>
  <path d="M135.325,34.863 C135.821,32.968 136.404,32.785 140.491,33.246 C145.804,33.845 145.513,33.644 146.399,37.333 C146.958,39.658 146.714,40.262 145.04,40.7 C143.18,41.186 143,42.016 143,50.117 L143,59 L157.5,59 C169.179,59 172,58.731 172,57.617 C172,55.897 175.077,55.031 181.25,55.014 L186,55 L186,50 C186,46.092 186.348,45 187.594,45 C188.47,45 189.423,44.1 189.71,43 C190.074,41.608 191.074,41 193,41 C196.19,41 196.965,42.798 196.986,50.25 C196.998,54.329 197.283,55 199,55 C200.1,55 201,54.388 201,53.639 C201,52.249 207.622,51.026 215.25,51.009 C217.913,51.003 219,50.565 219,49.5 C219,48.31 220.444,48 226,48 C232.333,48 233,48.19 233,50 C233,51.111 233.667,52 234.5,52 C235.325,52 236,52.675 236,53.5 C236,54.325 235.325,55 234.5,55 C233.667,55 233,55.889 233,57 C233,58.1 232.377,59 231.617,59 C230.856,59 229.998,59.9 229.71,61 C229.423,62.1 228.47,63 227.594,63 C226.717,63 226,63.675 226,64.5 C226,65.764 223.722,66 211.5,66 C199.821,66 197,66.269 197,67.383 C197,68.144 196.1,69.002 195,69.29 C193.301,69.734 193,70.654 193,75.406 C193,79.712 192.655,81 191.5,81 C190.262,81 190,82.833 190,91.5 L190,102 L182.5,102 C175.667,102 175,102.178 175,104 C175,105.333 174.333,106 173,106 C171.889,106 171,106.667 171,107.5 C171,108.325 170.325,109 169.5,109 C168.667,109 168,109.889 168,111 C168,112.1 167.345,113 166.545,113 C165.675,113 164.827,114.405 164.434,116.5 C164.058,118.505 163.184,120 162.389,120 C161.625,120 161,120.9 161,122 C161,123.333 160.333,124 159,124 C157.889,124 157,124.667 157,125.5 C157,126.325 156.375,127 155.611,127 C154.816,127 153.942,128.495 153.566,130.5 C153.173,132.595 152.325,134 151.455,134 C150.655,134 150,134.9 150,136 C150,137.333 149.333,138 148,138 C146.667,138 146,138.667 146,140 C146,141.111 145.333,142 144.5,142 C143.675,142 143,142.623 143,143.383 C143,144.144 142.1,145.002 141,145.29 C139.565,145.665 139,146.654 139,148.79 C139,150.926 138.435,151.914 137,152.29 C135.9,152.577 135,153.53 135,154.406 C135,155.283 134.325,156 133.5,156 C132.667,156 132,156.889 132,158 C132,159.1 131.377,160 130.617,160 C129.856,160 128.998,160.9 128.71,162 C128.423,163.1 127.47,164 126.594,164 C125.49,164 125,164.922 125,167 C125,169.333 124.556,170 123,170 C121.667,170 121,170.667 121,172 C121,173.1 120.345,174 119.545,174 C118.679,174 117.829,175.393 117.445,177.443 C116.927,180.204 116.225,181.011 113.899,181.522 C112.305,181.872 111,182.798 111,183.579 C111,184.361 110.15,185 109.111,185 C107.745,185 107.041,185.967 106.566,188.5 C106.173,190.595 105.325,192 104.455,192 C103.655,192 103,192.675 103,193.5 C103,194.325 102.283,195 101.406,195 C100.53,195 99.577,195.9 99.29,197 C99.002,198.1 98.144,199 97.383,199 C96.623,199 96,199.9 96,201 C96,202.333 95.333,203 94,203 C92.9,203 92,203.623 92,204.383 C92,205.144 91.1,206.002 90,206.29 C88.9,206.577 88,207.53 88,208.406 C88,209.283 87.325,210 86.5,210 C85.675,210 85,210.655 85,211.455 C85,212.325 83.595,213.173 81.5,213.566 C78.475,214.134 78,214.608 78,217.066 C78,219.524 77.525,219.998 74.5,220.566 C72.495,220.942 71,221.816 71,222.611 C71,223.532 69.82,224 67.5,224 C64.167,224 64,223.833 64,220.5 C64,218.056 64.452,217 65.5,217 C66.325,217 67,216.325 67,215.5 C67,214.667 67.889,214 69,214 C70.333,214 71,213.333 71,212 C71,210.667 71.667,210 73,210 C74.1,210 75,209.361 75,208.579 C75,207.798 76.304,206.872 77.898,206.522 C79.584,206.152 81.009,205.073 81.305,203.943 C81.584,202.874 82.53,202 83.406,202 C84.283,202 85,201.325 85,200.5 C85,199.675 85.623,199 86.383,199 C87.144,199 88.002,198.1 88.29,197 C88.577,195.9 89.53,195 90.406,195 C91.283,195 92,194.325 92,193.5 C92,192.667 92.889,192 94,192 C95.333,192 96,191.333 96,190 C96,188.9 96.655,188 97.455,188 C98.325,188 99.173,186.595 99.566,184.5 C99.942,182.495 100.816,181 101.611,181 C102.375,181 103,180.325 103,179.5 C103,178.667 103.889,178 105,178 C106.333,178 107,177.333 107,176 C107,174.9 107.623,174 108.383,174 C109.144,174 110.002,173.1 110.29,172 C110.577,170.9 111.53,170 112.406,170 C113.333,170 114,169.163 114,168 C114,166.9 114.639,166 115.421,166 C116.202,166 117.138,164.65 117.5,163 C117.862,161.35 118.798,160 119.579,160 C120.361,160 121,159.1 121,158 C121,156.667 121.667,156 123,156 C124.333,156 125,155.333 125,154 C125,152.9 125.625,152 126.389,152 C127.184,152 128.058,150.505 128.434,148.5 C128.827,146.405 129.675,145 130.545,145 C131.345,145 132,144.377 132,143.617 C132,142.856 132.9,141.998 134,141.71 C135.1,141.423 136,140.47 136,139.594 C136,138.717 136.675,138 137.5,138 C138.333,138 139,137.111 139,136 C139,134.9 139.655,134 140.455,134 C141.325,134 142.173,132.595 142.566,130.5 C142.942,128.495 143.816,127 144.611,127 C145.375,127 146,126.325 146,125.5 C146,124.667 146.889,124 148,124 C149.333,124 150,123.333 150,122 C150,120.9 150.625,120 151.389,120 C152.184,120 153.058,118.505 153.434,116.5 C153.827,114.405 154.675,113 155.545,113 C156.345,113 157,112.1 157,111 C157,109.9 157.655,109 158.455,109 C159.325,109 160.173,107.595 160.566,105.5 C161.041,102.967 161.745,102 163.111,102 C164.15,102 165,101.325 165,100.5 C165,99.675 165.675,99 166.5,99 C167.325,99 168,98.152 168,97.117 C168,96.074 168.893,95 170,94.71 C171.1,94.423 172,93.47 172,92.594 C172,91.353 173.082,91 176.883,91 C182.155,91 182.955,90.05 182.986,83.75 C182.995,81.978 183.534,81 184.5,81 C185.7,81 186,79.5 186,73.5 L186,66 L180.5,66 C176.425,66 175,66.367 175,67.415 C175,68.444 173.027,69.007 167.75,69.481 C163.762,69.839 159.15,70.02 157.5,69.883 C155.85,69.746 151.912,69.717 148.75,69.817 L143,70 L143,75.5 C143,79.722 143.348,81 144.5,81 C145.486,81 146,81.986 146,83.875 C146,86.213 146.513,86.851 148.75,87.292 C150.262,87.59 152.738,87.594 154.25,87.3 C156.685,86.828 157,87.066 157,89.383 C157,90.953 156.443,92 155.607,92 C154.841,92 153.955,92.675 153.638,93.5 C152.654,96.067 143,95.053 143,92.383 C143,91.623 142.345,91 141.545,91 C140.675,91 139.827,89.595 139.434,87.5 C139.073,85.575 138.209,84 137.514,84 C136.238,84 135,79.752 135,75.375 C135,73.403 134.491,73 132,73 Q129,73 129,71.5 C129,70.3 127.5,70 121.5,70 C115.697,70 114,70.32 114,71.416 C114,72.542 111.504,72.901 101.832,73.166 C93.233,73.402 89.542,73.867 89.249,74.75 C88.662,76.516 86.33,76.304 85.607,74.418 C85.273,73.548 85,71.298 85,69.418 C85,66.667 85.39,66 87,66 C88.333,66 89,65.333 89,64 C89,62.127 89.667,62 99.5,62 C108.167,62 110,61.738 110,60.5 C110,59.258 111.889,59 121,59 L132,59 L132,48 C132,39.301 132.289,37 133.383,37 C134.144,37 135.018,36.039 135.325,34.863 Z M157,134.5 L157,131 L164,131 C169.556,131 171,131.31 171,132.5 C171,133.333 171.889,134 173,134 C174.333,134 175,134.667 175,136 C175,137.667 175.667,138 179,138 C181.834,138 183,138.424 183,139.455 C183,140.325 184.405,141.173 186.5,141.566 C188.505,141.942 190,142.816 190,143.611 C190,144.456 191.077,145.005 192.75,145.014 C197.032,145.035 200,146.101 200,147.617 C200,148.377 200.9,149 202,149 C203.1,149 204,149.625 204,150.389 C204,151.184 205.495,152.058 207.5,152.434 C210.941,153.08 211,153.175 211,158.045 L211,163 L207.5,163 C204.667,163 204,162.619 204,161 C204,159.667 203.333,159 202,159 C200.889,159 200,158.333 200,157.5 C200,156.452 198.944,156 196.5,156 C193.602,156 193,155.636 193,153.883 C193,152.176 192.565,151.883 190.75,152.37 C189.512,152.701 187.938,152.979 187.25,152.986 C186.491,152.995 186,154.374 186,156.5 C186,158.908 185.543,160 184.534,160 C183.531,160 182.86,161.576 182.406,165 C181.975,168.246 181.261,170 180.371,170 C179.464,170 179,171.216 179,173.594 C179,176.346 178.532,177.31 177,177.71 C175.497,178.103 175,179.074 175,181.617 C175,183.957 174.538,185 173.5,185 C172.675,185 172,185.675 172,186.5 C172,187.333 171.111,188 170,188 C168.667,188 168,188.667 168,190 C168,191.333 167.333,192 166,192 C164.889,192 164,192.667 164,193.5 C164,194.548 165.056,195 167.5,195 C169.944,195 171,194.548 171,193.5 C171,192.258 172.889,192 182,192 C190.658,192 193,191.708 193,190.627 C193,189.705 194.691,189.092 198.149,188.76 C204.289,188.17 207,188.738 207,190.617 C207,191.623 208.467,192 212.389,192 C217.755,192 217.78,192.014 218.434,195.5 C218.827,197.595 219.675,199 220.545,199 C221.345,199 222,199.675 222,200.5 C222,201.325 221.365,202 220.588,202 C219.72,202 218.915,203.541 218.5,206 C218.085,208.459 217.28,210 216.412,210 C215.465,210 215,211.152 215,213.5 C215,216.333 214.619,217 213,217 C211.381,217 211,217.667 211,220.5 C211,222.944 210.548,224 209.5,224 C208.667,224 208,224.889 208,226 C208,227.333 207.333,228 206,228 C204.667,228 204,228.667 204,230 C204,231.1 203.345,232 202.545,232 C201.675,232 200.827,233.405 200.434,235.5 C200.058,237.505 199.184,239 198.389,239 C197.625,239 197,239.717 197,240.594 C197,241.47 196.1,242.423 195,242.71 C193.9,242.998 193,243.856 193,244.617 C193,245.377 192.325,246 191.5,246 C190.675,246 190,246.717 190,247.594 C190,248.47 189.1,249.423 188,249.71 C186.893,250 186,251.074 186,252.117 C186,253.152 185.325,254 184.5,254 C183.675,254 183,254.675 183,255.5 C183,256.333 182.111,257 181,257 C179.667,257 179,257.667 179,259 C179,260.333 178.333,261 177,261 C175.889,261 175,261.667 175,262.5 C175,263.325 174.377,264 173.617,264 C172.856,264 171.998,264.9 171.71,266 C171.274,267.67 170.346,268 166.094,268 L161,268 L161,264 C161,260.095 161.083,260 164.5,260 C166.813,260 168,259.531 168,258.617 C168,257.856 168.9,256.998 170,256.71 C171.1,256.423 172,255.47 172,254.594 C172,253.717 172.675,253 173.5,253 C174.325,253 175,252.377 175,251.617 C175,250.856 175.9,249.998 177,249.71 C178.1,249.423 179,248.47 179,247.594 C179,246.717 179.675,246 180.5,246 C181.333,246 182,245.111 182,244 C182,242.667 182.667,242 184,242 C185.111,242 186,241.333 186,240.5 C186,239.675 186.675,239 187.5,239 C188.333,239 189,238.111 189,237 C189,235.706 189.667,235 190.889,235 C192.255,235 192.959,234.033 193.434,231.5 C193.827,229.405 194.675,228 195.545,228 C196.345,228 197,227.1 197,226 C197,224.889 197.667,224 198.5,224 C199.51,224 200,222.99 200,220.906 C200,218.654 200.544,217.671 202,217.29 C203.503,216.897 204,215.926 204,213.383 C204,210.638 204.387,210 206.052,210 C207.9,210 208.074,209.476 207.802,204.75 L207.5,199.5 L193.25,199.223 C179.511,198.955 179,199.018 179,200.973 C179,202.829 178.367,203 171.5,203 C165.5,203 164,203.3 164,204.5 C164,205.69 162.556,206 157,206 C150.667,206 150,206.19 150,208 C150,209.908 149.333,210 135.5,210 L121,210 L121,206.5 C121,203.667 121.381,203 123,203 C124.333,203 125,202.333 125,201 C125,199.19 125.667,199 132,199 C137.556,199 139,198.69 139,197.5 C139,196.588 139.931,196 141.375,196 C145.88,196 150,194.746 150,193.375 C150,192.47 151.197,192 153.5,192 C156.333,192 157,191.619 157,190 C157,188.667 157.667,188 159,188 C160.111,188 161,187.333 161,186.5 C161,185.675 161.675,185 162.5,185 C163.333,185 164,184.111 164,183 C164,181.667 164.667,181 166,181 C167.619,181 168,180.333 168,177.5 C168,175.068 168.454,174 169.488,174 C170.451,174 171.202,172.588 171.616,170 C172.002,167.587 172.8,166 173.628,166 C174.652,166 175,164.328 175,159.406 C175,153.654 175.255,152.746 177,152.29 C178.1,152.002 179,151.197 179,150.5 C179,149.803 178.1,148.998 177,148.71 C175.9,148.423 175,147.47 175,146.594 C175,145.439 174.036,145 171.5,145 C169.18,145 168,144.532 168,143.611 C168,142.816 166.505,141.942 164.5,141.566 C162.405,141.173 161,140.325 161,139.455 C161,138.655 160.1,138 159,138 C157.381,138 157,137.333 157,134.5 Z M150,42.5 C150,41.452 151.056,41 153.5,41 C155.944,41 157,41.452 157,42.5 C157,43.548 155.944,44 153.5,44 C151.056,44 150,43.548 150,42.5 Z"/>
</svg>

