<svg xmlns="http://www.w3.org/2000/svg" width="300" height="300" viewBox="0 0 300 300" version="1.1">
  <defs/>
  <path d="M152.75,80.728 C159.1,80.064 183.368,79.992 185.75,80.63 C186.988,80.962 188,81.856 188,82.617 C188,83.564 189.261,84 192,84 C194.889,84 196,84.417 196,85.5 C196,86.325 196.675,87 197.5,87 C198.325,87 199,87.878 199,88.95 C199,90.023 199.787,91.341 200.75,91.88 C202.316,92.756 202.5,94.761 202.5,110.966 C202.5,124.735 202.189,129.265 201.201,129.876 C200.255,130.46 199.738,135.475 199.296,148.339 C198.821,162.162 198.397,166 197.345,166 C196.303,166 195.997,168.42 195.986,176.75 C195.971,188.747 195.416,192 193.383,192 C192.469,192 192,193.187 192,195.5 C192,198.333 191.619,199 190,199 C188.667,199 188,199.667 188,201 C188,202.81 187.333,203 181,203 C174.667,203 174,202.81 174,201 C174,199.667 173.333,199 172,199 C170.889,199 170,198.333 170,197.5 C170,196.345 171.288,196 175.594,196 C180.346,196 181.266,195.699 181.71,194 C181.998,192.9 182.856,192 183.617,192 C184.564,192 185,190.739 185,188 C185,185.111 185.417,184 186.5,184 C187.766,184 188,181.681 188,169.125 C188,152.646 188.577,148 190.625,148 C191.757,148 192,143.318 192,121.5 C192,95.667 191.95,95 190,95 C188.9,95 188,94.377 188,93.617 C188,91.397 184.631,91.028 164.25,91.014 C148.52,91.002 145,91.253 145,92.383 C145,93.959 142,94.966 137.25,94.986 C135.034,94.996 134,95.477 134,96.5 C134,97.672 132.633,98.003 127.75,98.014 C120.135,98.03 117,98.79 117,100.617 C117,101.377 116.1,102 115,102 C113.667,102 113,102.667 113,104 C113,105.1 112.374,106 111.608,106 C110.105,106 108.563,110.484 109.528,112.046 C109.853,112.571 110.766,113 111.559,113 C112.617,113 113,114.298 113,117.883 C113,122.02 112.675,122.852 110.877,123.322 C108.876,123.845 108.784,124.349 109.262,132.084 C109.642,138.225 110.176,140.519 111.385,141.195 C112.711,141.938 113,143.969 113,152.55 C113,161.172 113.262,163 114.5,163 C115.565,163 116.003,164.087 116.009,166.75 C116.026,174.378 117.249,181 118.639,181 C119.388,181 120,181.623 120,182.383 C120,183.144 120.9,184.002 122,184.29 C123.532,184.69 124,185.654 124,188.406 C124,191.333 123.629,192 122,192 C120.267,192 120,192.667 120,197 C120,201.333 120.267,202 122,202 C123.1,202 124,201.55 124,201 C124,200.45 124.675,200 125.5,200 C126.325,200 127,200.45 127,201 C127,202.451 130.757,202.23 131.25,200.75 C131.82,199.038 150.753,198.989 151.811,200.697 C152.243,201.394 156.406,202.185 161.776,202.591 C168.533,203.101 171,203.65 171,204.643 C171,205.453 172.108,206.006 173.75,206.014 C178.032,206.035 181,207.101 181,208.617 C181,209.377 181.9,210 183,210 C184.619,210 185,210.667 185,213.5 C185,215.944 185.452,217 186.5,217 C187.333,217 188,217.889 188,219 C188,220.111 187.333,221 186.5,221 C185.675,221 185,221.675 185,222.5 C185,225.587 182.081,223.95 181.434,220.5 C180.837,217.318 180.47,217 177.389,217 C175.043,217 174,216.538 174,215.5 C174,214.452 172.944,214 170.5,214 C167.667,214 167,213.619 167,212 C167,210.041 166.333,210 134.5,210 L102,210 L102,199 L113,199 L113,193.906 C113,189.654 112.67,188.726 111,188.29 C109.189,187.816 109,186.926 109,178.883 C109,171.654 108.721,170 107.5,170 C106.358,170 105.998,168.746 105.991,164.75 C105.976,155.745 104.85,149 103.361,149 C102.258,149 102,145.201 102,129 C102,111.889 101.783,109 100.5,109 C99.258,109 99,107.111 99,98 C99,88.889 99.258,87 100.5,87 Q102,87 102,84 Q102,81 103.5,81 C104.325,81 105,81.675 105,82.5 C105,83.333 105.889,84 107,84 C108.619,84 109,84.667 109,87.5 L109,91 L114.5,91 C118.722,91 120,90.652 120,89.5 C120,88.395 121.153,88 124.375,88 C130.741,88 135,86.948 135,85.375 C135,84.339 136.727,84 142,84 C147.425,84 149,83.676 149,82.56 C149,81.633 150.335,80.981 152.75,80.728 Z M131,136 C131,134.077 131.662,134.001 148.25,134.014 C166.652,134.028 170,134.429 170,136.617 C170,137.377 170.9,138 172,138 C173.758,138 174,138.667 174,143.5 C174,147.722 173.652,149 172.5,149 C171.452,149 171,150.056 171,152.5 C171,155.833 170.833,156 167.5,156 C163.869,156 162.544,153.773 165.5,152.638 C167.047,152.045 167.441,148.246 166.37,144.25 C165.805,142.144 165.232,142 157.383,142 C150.598,142 149,142.286 149,143.5 C149,144.538 147.957,145 145.617,145 C143.074,145 142.103,145.497 141.71,147 C141.31,148.532 140.346,149 137.594,149 C134.667,149 134,148.629 134,147 C134,145.381 133.333,145 130.5,145 C127.167,145 127,144.833 127,141.5 C127,138.667 127.381,138 129,138 C130.333,138 131,137.333 131,136 Z"/>
</svg>

