<svg xmlns="http://www.w3.org/2000/svg" width="300" height="300" viewBox="0 0 300 300" version="1.1">
  <defs/>
  <path d="M120.25,106.055 C123.261,103.233 124.04,103.009 130.844,103.005 C137.348,103.001 138.247,103.228 138.71,105 C139,106.107 140.074,107 141.117,107 C142.152,107 142.888,107.552 142.75,108.226 C142.613,108.901 143.4,109.552 144.5,109.673 C145.6,109.794 149.537,110.178 153.25,110.526 C158.118,110.983 160,111.555 160,112.58 C160,113.669 161.603,114 166.883,114 C172.926,114 173.831,114.244 174.29,116 C174.672,117.462 175.654,118 177.938,118 C179.793,118 181.297,118.609 181.638,119.5 C181.955,120.325 182.841,121 183.607,121 C184.373,121 185,121.689 185,122.531 C185,123.374 185.787,124.346 186.75,124.691 C189.155,125.556 192,128.617 192,130.342 C192,131.125 192.9,132.002 194,132.29 C195.693,132.733 196.018,133.708 196.118,138.656 C196.184,141.87 196.184,144.838 196.118,145.25 C195.92,146.506 197.798,146.086 198.353,144.75 C198.639,144.063 198.789,149.8 198.687,157.5 C198.556,167.266 198.159,171.437 197.371,171.29 C196.751,171.175 195.958,172.863 195.61,175.04 C195.201,177.596 194.449,179 193.488,179 C192.67,179 192,179.8 192,180.778 C192,182.823 188.668,186 186.524,186 C185.724,186 184.589,186.9 184,188 C183.299,189.31 181.906,190 179.965,190 C177.996,190 177,190.504 177,191.5 C177,192.55 175.941,193 173.468,193 C170.865,193 169.743,193.519 169.206,194.972 C168.509,196.855 167.577,196.935 148.657,196.722 C130.13,196.515 128.742,196.37 127.376,194.5 C126.572,193.4 125.596,192.5 125.207,192.5 C124.119,192.5 119.467,187.598 119.75,186.75 C119.887,186.338 119.086,186 117.969,186 C116.851,186 115.664,185.287 115.329,184.416 C114.84,183.141 114.557,183.092 113.876,184.166 C113.27,185.123 113.026,184.864 113.015,183.25 C113.007,182.012 112.1,180.1 111,179 C109.9,177.9 109,175.702 109,174.117 C109,172.104 108.414,171.08 107.059,170.726 C105.534,170.327 105.052,169.177 104.809,165.359 C104.604,162.129 104.081,160.584 103.25,160.75 C102.417,160.917 102,159.667 102,157 C102,154.244 102.434,153 103.396,153 C104.428,153 105.018,150.586 105.657,143.75 C106.262,137.28 106.894,134.575 107.761,134.75 C108.541,134.907 109.005,133.797 109.014,131.75 C109.033,127.124 110.03,124 111.487,124 C112.236,124 112.951,122.131 113.264,119.349 C113.58,116.551 114.428,114.34 115.394,113.799 C116.277,113.305 117,112.046 117,111.001 C117,109.956 118.463,107.731 120.25,106.055 Z M124.522,120.898 C124.152,122.584 123.073,124.009 121.943,124.305 C120.474,124.689 120,125.689 120,128.406 C120,130.818 119.54,132 118.601,132 C117.604,132 117.002,134.005 116.5,139 C115.998,143.995 115.396,146 114.399,146 C113.304,146 113,147.957 113,155 C113,161.667 113.324,163.935 114.25,163.75 C114.998,163.6 115.626,164.804 115.813,166.749 C116.002,168.708 116.895,170.409 118.063,171.034 C119.31,171.701 120,173.126 120,175.035 C120,176.959 120.509,178 121.45,178 C122.248,178 123.26,178.609 123.7,179.353 C124.14,180.098 125.85,181.148 127.5,181.687 C129.15,182.226 130.5,183.304 130.5,184.083 C130.5,184.968 131.921,185.688 134.283,186 C136.364,186.275 138.164,186.95 138.283,187.5 C138.541,188.691 155,189.166 155,187.982 C155,187.534 154.438,186.94 153.75,186.662 C153.063,186.385 157.338,186.122 163.25,186.079 C171.105,186.021 173.933,185.674 173.75,184.789 C173.613,184.122 175.188,183.143 177.25,182.612 C179.313,182.082 181,181.052 181,180.324 C181,179.596 181.645,179 182.433,179 C183.221,179 184.151,178.1 184.5,177 C184.849,175.9 185.779,175 186.567,175 C187.355,175 187.916,174.662 187.812,174.25 C187.245,171.985 189.341,165 190.588,165 C191.699,165 192,163.084 192,156 C192,148.667 191.722,147 190.5,147 C189.477,147 188.996,145.966 188.986,143.75 C188.966,139 187.959,136 186.383,136 C185.623,136 185,135.1 185,134 C185,132.474 184.333,132 182.187,132 C179.93,132 179.116,131.345 178.074,128.689 C176.922,125.751 176.308,125.352 172.637,125.153 C170.353,125.028 167.988,124.252 167.356,123.418 C166.727,122.588 164.59,121.645 162.606,121.324 C160.237,120.939 158.976,120.183 158.93,119.119 C158.876,117.884 158.656,117.974 158,119.5 C157.265,121.21 157.13,121.246 157.07,119.75 C157.006,118.16 155.548,118 141.079,118 L125.159,118 Z"/>
</svg>

