<svg xmlns="http://www.w3.org/2000/svg" width="300" height="300" viewBox="0 0 300 300" version="1.1">
  <defs/>
  <path d="M187,78.5 C187,77.347 188.283,77 192.55,77 L198.1,77 L197.8,82.75 C197.606,86.461 197.086,88.421 196.333,88.278 C193.779,87.791 193.486,111.446 196.026,113.016 C196.56,113.346 197.113,117.45 197.255,122.136 C197.447,128.468 197.938,131.081 199.166,132.308 C200.074,133.217 201.123,135.771 201.497,137.984 C201.871,140.198 202.587,141.755 203.089,141.445 C203.628,141.112 204,150.915 204,165.441 C204,183.146 204.315,189.93 205.128,189.75 C206.339,189.481 206.511,190.381 207.515,202.25 C207.876,206.512 208.582,210 209.085,210 C209.588,210 210,211.559 210,213.465 C210,215.825 210.596,217.248 211.868,217.929 C215.042,219.628 213.485,223.818 209.395,224.586 C205.911,225.239 199.476,224.129 201.803,223.276 C202.837,222.897 202.806,222.561 201.656,221.649 C200.416,220.666 199.484,213.57 199.009,201.5 C198.987,200.95 198.596,201.089 198.139,201.81 C197.648,202.584 197.045,198.903 196.664,192.81 C195.887,180.377 195.711,179.311 194.19,177.79 C193.45,177.05 193,173.27 193,167.8 C193,160.767 192.708,159 191.546,159 C190.446,159 190.019,157.354 189.796,152.25 C189.504,145.601 189.456,145.495 186.559,145.165 C181.796,144.623 175,145.973 175,147.462 C175,148.563 169.928,148.703 146.526,148.25 C120.67,147.749 117.995,147.85 117.42,149.349 C117.071,150.257 116.159,151 115.393,151 C114.326,151 114,152.756 114,158.5 C114,164.5 113.7,166 112.5,166 C111.675,166 110.958,165.213 110.906,164.25 C110.243,151.928 109.881,151.112 105,150.945 C102.794,150.869 102.729,150.77 104.446,150.098 C106.257,149.389 106.225,149.292 103.99,148.708 C102.669,148.362 101.343,148.323 101.044,148.62 C100.745,148.918 100.353,155.436 100.174,163.106 C99.913,174.288 100.111,176.996 101.174,176.775 C102.184,176.566 102.569,178.717 102.788,185.816 C103.035,193.794 103.311,195.086 104.705,194.816 C105.656,194.631 106.5,193.253 106.734,191.502 C106.954,189.853 107.779,188.143 108.567,187.702 C109.355,187.261 110,185.854 110,184.575 C110,179.737 111.191,176.136 112.61,176.681 C113.637,177.075 114,176.28 114,173.638 C114,171.138 114.386,170.211 115.284,170.555 C117.128,171.263 117.288,175.952 115.492,176.642 C114.34,177.083 113.997,179.071 113.986,185.357 C113.971,194.66 113.313,198 111.495,198 C110.795,198 109.927,199.575 109.566,201.5 C109.205,203.425 108.367,205.008 107.705,205.017 C107.042,205.027 105.512,206.077 104.304,207.352 C102.694,209.051 101.318,209.553 99.145,209.235 C95.972,208.769 95.038,206.982 95.014,201.333 C95.006,199.592 94.474,197.991 93.832,197.777 C92.996,197.499 92.52,189.715 92.161,170.444 C91.885,155.625 91.331,144.625 90.929,146 C90.523,147.392 90.088,141.855 89.947,133.5 C89.809,125.25 89.591,118.05 89.463,117.5 C89.335,116.95 89.179,114.588 89.115,112.25 C89.032,109.19 88.58,108 87.5,108 C86.313,108 86.003,106.589 86.014,101.25 C86.03,93.152 86.759,90 88.617,90 C89.377,90 90,89.157 90,88.126 C90,86.534 90.488,86.359 93.25,86.961 C95.037,87.35 96.388,88.193 96.25,88.834 C96.112,89.478 97.12,90 98.5,90 C100.839,90 101,90.327 101,95.094 C101,99.346 100.67,100.274 99,100.71 C97.248,101.168 97,102.074 97,108.01 C97,113.111 97.371,114.928 98.5,115.362 C99.715,115.828 100.003,118.178 100.014,127.719 C100.032,143.309 101.353,148.188 103.543,140.75 L104.5,137.5 L145.094,137.899 L185.689,138.298 L186.331,135.899 C187.829,130.301 186.534,103.151 184.979,107.542 C184.003,110.295 182.658,88.985 183.494,84.035 C183.914,81.549 184.718,80 185.588,80 C186.365,80 187,79.325 187,78.5 Z M191.71,136 C191.423,137.1 191.595,138 192.094,138 C192.592,138 193,137.1 193,136 C193,134.9 192.827,134 192.617,134 C192.406,134 191.998,134.9 191.71,136 Z"/>
</svg>

