<svg xmlns="http://www.w3.org/2000/svg" width="300" height="300" viewBox="0 0 300 300" version="1.1">
  <defs/>
  <path d="M189.15,32.696 C189.981,31.212 192.091,31 206.05,31 C221.333,31 222,31.084 222,33 C222,34.619 222.667,35 225.5,35 L229,35 L229,46.223 L232.578,45.551 C235.65,44.975 236.232,45.171 236.695,46.94 C236.991,48.073 237.856,49 238.617,49 C239.522,49 240,50.169 240,52.383 C240,54.926 240.497,55.897 242,56.29 C243.67,56.726 244,57.654 244,61.906 C244,65.767 244.363,67 245.5,67 C246.722,67 247,68.667 247,76 C247,84.333 247.148,85 249,85 C250.943,85 251,85.667 251,108.5 C251,128.092 251.235,132 252.415,132 C253.446,132 254.02,134.032 254.532,139.5 C255.036,144.878 255.626,147 256.617,147 C257.686,147 258,148.932 258,155.5 C258,162.045 258.316,164 259.375,164 C261.092,164 262,168.366 262,176.625 C262,181.378 262.351,183 263.38,183 C264.354,183 264.89,184.796 265.202,189.111 C265.516,193.461 266.127,195.491 267.322,196.16 C268.642,196.899 269,198.583 269,204.05 C269,209.28 269.34,211 270.375,211 C271.746,211 273,215.12 273,219.625 C273,221.069 273.588,222 274.5,222 C275.652,222 276,223.278 276,227.5 C276,231.516 276.373,233 277.383,233 C278.959,233 279.966,236 279.986,240.75 C279.995,242.856 280.491,244 281.394,244 C282.441,244 282.88,246.012 283.155,252.076 C283.445,258.457 283.887,260.357 285.261,261.126 C289.636,263.574 285.961,269 279.929,269 C277.103,269 276,269.421 276,270.5 C276,271.325 275.325,272 274.5,272 C273.675,272 273,271.325 273,270.5 C273,269.667 272.111,269 271,269 C269.667,269 269,268.333 269,267 C269,265.667 268.333,265 267,265 C265.889,265 265,264.333 265,263.5 C265,262.675 264.325,262 263.5,262 C262.667,262 262,261.111 262,260 C262,258.667 261.333,258 260,258 C258.9,258 258,257.345 258,256.545 C258,255.675 256.595,254.827 254.5,254.434 C252.495,254.058 251,253.184 251,252.389 C251,251.625 250.1,251 249,251 C247.667,251 247,250.333 247,249 C247,247.667 246.333,247 245,247 C243.889,247 243,246.333 243,245.5 C243,244.675 242.325,244 241.5,244 C240.667,244 240,243.111 240,242 C240,240.381 239.333,240 236.5,240 C233.667,240 233,239.619 233,238 C233,236.889 232.333,236 231.5,236 C230.675,236 230,235.325 230,234.5 C230,233.667 229.111,233 228,233 C226.667,233 226,232.333 226,231 C226,229.667 225.333,229 224,229 C222.9,229 222,228.375 222,227.611 C222,226.816 220.505,225.942 218.5,225.566 C216.405,225.173 215,224.325 215,223.455 C215,222.655 214.1,222 213,222 C211.667,222 211,221.333 211,220 C211,218.667 210.333,218 209,218 C207.889,218 207,217.333 207,216.5 C207,215.675 206.325,215 205.5,215 C204.452,215 204,216.056 204,218.5 C204,221.833 203.833,222 200.5,222 C197.964,222 197,221.561 197,220.406 C197,219.53 196.1,218.577 195,218.29 C193.9,218.002 193,217.144 193,216.383 C193,215.623 192.325,215 191.5,215 C190.675,215 190,215.675 190,216.5 C190,217.723 188.323,218 180.906,218 C172.654,218 171.764,218.185 171.29,220 C170.848,221.688 169.926,222 165.383,222 C161.265,222 160,222.352 160,223.5 C160,224.325 159.325,225 158.5,225 C157.675,225 157,225.85 157,226.889 C157,228.255 156.033,228.959 153.5,229.434 C151.405,229.827 150,230.675 150,231.545 C150,232.642 148.646,233 144.5,233 L139,233 L139.014,229.75 C139.034,225 140.041,222 141.617,222 C142.377,222 143,221.325 143,220.5 C143,219.675 143.717,219 144.594,219 C145.47,219 146.416,218.126 146.695,217.057 C146.983,215.955 148.402,214.851 149.973,214.506 C152.378,213.978 152.825,213.294 153.371,209.309 C153.717,206.786 154,202.984 154,200.86 C154,198.096 154.426,197 155.5,197 C156.7,197 157,195.5 157,189.5 C157,184.159 156.64,182.004 155.75,182.014 C152.84,182.045 150,183.331 150,184.617 C150,185.531 148.813,186 146.5,186 C143.667,186 143,186.381 143,188 C143,189.333 142.333,190 141,190 C139.889,190 139,190.667 139,191.5 C139,192.548 137.944,193 135.5,193 L132,193 L132,179.26 L136.651,178.736 C139.449,178.42 141.66,177.572 142.201,176.606 C142.837,175.469 144.544,175 148.05,175 C151.607,175 153,174.609 153,173.611 C153,172.825 154.469,171.947 156.39,171.587 C160.504,170.815 160.968,169.468 160.986,158.25 C160.999,150.671 161.163,150 163,150 C164.1,150 165,149.377 165,148.617 C165,147.101 167.968,146.035 172.25,146.014 C174.338,146.003 175,146.482 175,148 C175,149.619 175.667,150 178.5,150 C181.833,150 182,150.167 182,153.5 C182,156.333 181.619,157 180,157 C178.889,157 178,156.333 178,155.5 C178,154.675 177.55,154 177,154 C176.45,154 176,154.675 176,155.5 C176,156.333 175.111,157 174,157 C172.371,157 172,157.667 172,160.594 C172,163.346 171.532,164.31 170,164.71 C168.9,164.998 168,165.856 168,166.617 C168,167.663 169.707,168 175,168 C180.273,168 182,167.661 182,166.625 C182,165.254 186.12,164 190.625,164 C192.069,164 193,163.412 193,162.5 C193,161.31 194.439,161 199.955,161 L206.909,161 L207.547,164.4 C208.776,170.95 208.264,171.468 200.239,171.794 C194.94,172.009 193,172.453 193,173.45 C193,174.487 190.594,174.895 182.928,175.156 C174.604,175.44 172.687,175.804 171.879,177.25 C171.341,178.213 170.248,179 169.45,179 C168.359,179 168,180.362 168,184.5 C168,188.479 167.623,190 166.636,190 C165.168,190 164,196.045 164,203.64 C164,206.849 163.604,208 162.5,208 C161.675,208 161,208.675 161,209.5 C161,210.325 161.675,211 162.5,211 C163.325,211 164,210.389 164,209.642 C164,207.906 172.277,207 188.147,207 C198.016,207 200,206.749 200,205.5 C200,204.667 200.889,204 202,204 C203.1,204 204,204.655 204,205.455 C204,206.318 205.385,207.169 207.406,207.548 C210.307,208.093 210.907,208.693 211.452,211.594 C212.007,214.556 212.476,215 215.045,215 C217.005,215 218,215.505 218,216.5 C218,217.333 218.889,218 220,218 C221.333,218 222,218.667 222,220 C222,221.619 222.667,222 225.5,222 C228.333,222 229,222.381 229,224 C229,225.333 229.667,226 231,226 C232.1,226 233,226.623 233,227.383 C233,228.144 233.9,229.002 235,229.29 C236.1,229.577 237,230.53 237,231.406 C237,232.283 237.675,233 238.5,233 C239.325,233 240,233.625 240,234.389 C240,235.184 241.495,236.058 243.5,236.434 C245.595,236.827 247,237.675 247,238.545 C247,239.345 247.9,240 249,240 C250.1,240 251,240.623 251,241.383 C251,242.144 251.9,243.002 253,243.29 C254.1,243.577 255,244.53 255,245.406 C255,246.521 255.93,247 258.094,247 C260.346,247 261.329,247.544 261.71,249 C262,250.107 263.074,251 264.117,251 C265.152,251 266,251.626 266,252.392 C266,253.977 270.897,255.528 272.046,254.305 C273.364,252.903 271.898,243 270.373,243 C269.445,243 269,241.743 269,239.125 C269,233.228 267.904,229 266.375,229 C265.375,229 265,227.5 265,223.5 C265,219.278 264.652,218 263.5,218 C262.363,218 262,216.767 262,212.906 C262,208.654 261.67,207.726 260,207.29 C258.263,206.836 258,205.926 258,200.383 C258,195.634 257.648,194 256.625,194 C255.012,194 254,189.712 254,182.875 C254,179.373 253.607,178 252.606,178 C251.559,178 251.12,175.988 250.845,169.924 C250.555,163.543 250.113,161.643 248.739,160.874 C247.301,160.069 247,158.438 247,151.45 C247,144.606 246.715,143 245.5,143 C244.378,143 243.998,141.803 243.994,138.25 C243.98,127.191 242.713,117 241.352,117 C240.262,117 240,113.216 240,97.5 C240,81.103 239.768,78 238.545,78 C237.675,78 236.827,76.595 236.434,74.5 C236.058,72.495 235.184,71 234.389,71 C233.401,71 232.996,69.63 232.986,66.25 C232.969,60.077 232.103,57 230.383,57 C229.436,57 229,55.739 229,53 L229,49 L217.931,49 L218.594,44 C219.21,39.358 219.105,39 217.129,39 C215.903,39 215,39.636 215,40.5 C215,41.333 214.111,42 213,42 C211.889,42 211,41.333 211,40.5 C211,39.452 209.944,39 207.5,39 C205.056,39 204,39.452 204,40.5 C204,41.548 202.944,42 200.5,42 C198.056,42 197,41.548 197,40.5 C197,39.667 196.111,39 195,39 C193.889,39 193,39.667 193,40.5 C193,41.69 191.556,42 186,42 C180.694,42 179,42.336 179,43.389 C179,44.184 177.505,45.058 175.5,45.434 C173.563,45.797 172,46.69 172,47.434 C172,48.178 170.437,49.071 168.5,49.434 C165.059,50.08 165,50.175 165,55.045 C165,59.664 164.83,60 162.5,60 C161.03,60 160,59.426 160,58.607 C160,57.841 159.325,56.955 158.5,56.638 C157.363,56.202 157,54.359 157,49.031 L157,42 L160.5,42 C162.803,42 164,41.53 164,40.625 C164,39.254 168.12,38 172.625,38 C173.981,38 175,37.406 175,36.616 C175,35.621 176.85,35.115 181.6,34.813 C186.462,34.503 188.451,33.945 189.15,32.696 Z M118,54.5 C118,53.247 120.056,53 130.5,53 C140.944,53 143,53.247 143,54.5 C143,55.548 144.056,56 146.5,56 C149.333,56 150,56.381 150,58 C150,59.1 150.623,60 151.383,60 C153.241,60 153.97,63.152 153.986,71.25 C153.999,77.338 153.804,78 152,78 C150.333,78 150,78.667 150,82 C150,84.739 149.564,86 148.617,86 C147.101,86 146.035,88.968 146.014,93.25 C146,95.946 146.118,96 152,96 C156.823,96 158,96.313 158,97.594 C158,98.47 157.1,99.423 156,99.71 C154.9,99.998 154,100.856 154,101.617 C154,102.627 152.516,103 148.5,103 C143.667,103 143,103.242 143,105 C143,106.619 142.333,107 139.5,107 C137.056,107 136,107.452 136,108.5 C136,109.412 135.069,110 133.625,110 C129.12,110 125,111.254 125,112.625 C125,113.625 123.5,114 119.5,114 C114.667,114 114,114.242 114,116 C114,117.333 113.333,118 112,118 C110.889,118 110,118.667 110,119.5 C110,120.325 109.377,121 108.617,121 C107.856,121 106.998,121.9 106.71,123 C106.329,124.456 105.346,125 103.094,125 L100,125 L100,132 C100,137.556 100.31,139 101.5,139 C102.786,139 103.002,142.034 103.014,160.25 C103.028,182.614 103.37,186 105.617,186 C106.377,186 107,186.675 107,187.5 C107,188.325 107.675,189 108.5,189 C109.548,189 110,190.056 110,192.5 C110,194.944 109.548,196 108.5,196 C107.675,196 107,196.844 107,197.875 C107,200.017 103.139,201.152 98.75,200.3 L96,199.767 L96,181.883 C96,167.516 95.734,164 94.647,164 C93.049,164 92,154.034 92,138.849 C92,131.17 91.698,129 90.628,129 C89.552,129 89.16,125.966 88.807,114.92 C88.464,104.161 88.021,100.631 86.929,99.957 C85.801,99.261 85.43,95.412 85.169,81.664 L84.839,64.253 L88.419,63.581 C90.578,63.176 92,62.332 92,61.455 C92,60.358 93.354,60 97.5,60 C101.516,60 103,59.627 103,58.617 C103,56.858 106.098,56.031 112.75,56.014 C116.744,56.003 118,55.641 118,54.5 Z M183,47.594 C183,46.26 184.389,46 191.5,46 C198.389,46 200,46.284 200,47.5 C200,48.548 198.944,49 196.5,49 C193.667,49 193,49.381 193,51 C193,52.111 192.333,53 191.5,53 C190.675,53 190,53.717 190,54.594 C190,55.47 189.1,56.423 188,56.71 C186.244,57.169 186,58.074 186,64.117 C186,69.748 186.29,71 187.594,71 C188.47,71 189.423,70.1 189.71,69 C190.143,67.344 191.074,67 195.117,67 C198.791,67 200,66.629 200,65.5 C200,64.417 201.111,64 204,64 C206.889,64 208,64.417 208,65.5 C208,66.325 208.675,67 209.5,67 C210.325,67 211,67.717 211,68.594 C211,69.47 211.9,70.423 213,70.71 C214.662,71.145 215,72.074 215,76.21 C215,80.346 214.662,81.276 213,81.71 C211.477,82.108 211,83.074 211,85.757 L211,89.28 L216.5,88.712 C221.812,88.164 222,88.227 222,90.572 C222,92.064 221.421,93 220.5,93 C219.675,93 219,93.675 219,94.5 C219,95.538 217.957,96 215.617,96 C213.074,96 212.103,96.497 211.71,98 C211.31,99.532 210.346,100 207.594,100 C205.066,100 204,100.445 204,101.5 C204,102.333 203.111,103 202,103 C200.667,103 200,103.667 200,105 C200,106.619 199.333,107 196.5,107 C194.187,107 193,107.469 193,108.383 C193,109.144 192.156,109.987 191.124,110.257 C189.449,110.695 189.303,111.506 189.759,117.874 L190.269,125 L186.134,125 C183.126,125 182,124.591 182,123.5 C182,122.675 181.325,122 180.5,122 C179.675,122 179,121.122 179,120.05 C179,118.977 178.213,117.659 177.25,117.121 C175.666,116.236 175.472,113.684 175.203,90.2 C174.913,64.778 174.948,64.247 176.953,63.722 C178.75,63.253 179,62.395 179,56.71 C179,51.074 179.26,50.165 181,49.71 C182.1,49.423 183,48.47 183,47.594 Z M129,61.369 C129,62.946 124.002,63.973 116.25,63.989 C112.255,63.997 111,64.359 111,65.5 C111,66.583 109.889,67 107,67 C103.667,67 103,67.333 103,69 C103,70.333 102.333,71 101,71 C99.889,71 99,71.667 99,72.5 C99,73.325 98.325,74 97.5,74 C96.667,74 96,74.889 96,76 C96,77.1 96.623,78 97.383,78 C98.959,78 99.966,81 99.986,85.75 C99.997,88.338 99.593,89 98,89 C96.127,89 96,89.667 96,99.5 L96,110 L101.5,110 C105.722,110 107,109.652 107,108.5 C107,107.363 108.233,107 112.094,107 C116.346,107 117.274,106.67 117.71,105 C118.141,103.353 119.074,103 123,103 C126.926,103 127.859,102.647 128.29,101 C128.577,99.9 129.53,99 130.406,99 C131.496,99 132,98.088 132,96.117 C132,94.074 132.583,93.081 134,92.71 C137.846,91.705 136.21,86.593 131.679,85.456 C129.351,84.871 128.784,85.111 128.322,86.876 C127.854,88.667 127.018,89 122.995,89 C118.333,89 118.207,89.081 117.566,92.5 C116.966,95.698 116.611,96 113.455,96 L110,96 L110,90.5 C110,85.667 110.242,85 112,85 C113.333,85 114,84.333 114,83 C114,81.381 114.667,81 117.5,81 C119.944,81 121,80.548 121,79.5 C121,78.278 122.667,78 130,78 C137.333,78 139,78.278 139,79.5 C139,80.333 139.889,81 141,81 C142.619,81 143,80.333 143,77.5 C143,75.056 143.452,74 144.5,74 C145.325,74 146,73.325 146,72.5 C146,71.675 145.325,71 144.5,71 C143.452,71 143,69.944 143,67.5 C143,64.149 142.847,64 139.406,64 C136.654,64 135.69,63.532 135.29,62 C134.672,59.638 129,59.07 129,61.369 Z M75,180.372 C75,179.392 76.429,179 80,179 L85,179 L85,182.5 C85,185.833 84.833,186 81.5,186 C79.104,186 78,186.459 78,187.455 C78,188.325 76.595,189.173 74.5,189.566 C72.495,189.942 71,190.816 71,191.611 C71,192.523 69.837,193 67.617,193 C65.074,193 64.103,193.497 63.71,195 C63.329,196.456 62.346,197 60.094,197 C58.121,197 57,197.503 57,198.389 C57,199.184 55.505,200.058 53.5,200.434 C51.405,200.827 50,201.675 50,202.545 C50,203.345 49.152,204 48.117,204 C47.074,204 46,204.893 45.71,206 C45.31,207.532 44.346,208 41.594,208 C39.066,208 38,208.445 38,209.5 C38,210.325 37.425,211 36.722,211 C36.019,211 34.674,211.9 33.732,213 C32.79,214.1 31.161,215 30.111,215 C28.482,215 28.1,216.024 27.5,222 C26.998,226.995 26.396,229 25.399,229 C24.629,229 24,228.325 24,227.5 C24,226.588 23.069,226 21.625,226 C20.319,226 17.811,225.712 16.052,225.36 C13.197,224.789 12.923,224.44 13.506,222.11 C13.865,220.675 14.798,219.14 15.58,218.7 C16.361,218.26 17,217.248 17,216.45 C17,215.653 17.675,215 18.5,215 C19.333,215 20,214.111 20,213 C20,211.667 20.667,211 22,211 C23.333,211 24,210.333 24,209 C24,207.667 24.667,207 26,207 C27.111,207 28,206.333 28,205.5 C28,204.513 28.987,204 30.883,204 C32.926,204 33.919,203.417 34.29,202 C34.69,200.468 35.654,200 38.406,200 C40.934,200 42,199.555 42,198.5 C42,197.675 42.717,197 43.594,197 C44.47,197 45.423,196.1 45.71,195 C46.103,193.497 47.074,193 49.617,193 C51.911,193 53,192.532 53,191.545 C53,190.675 54.405,189.827 56.5,189.434 C58.505,189.058 60,188.184 60,187.389 C60,186.468 61.18,186 63.5,186 C65.932,186 67,185.546 67,184.512 C67,183.549 68.412,182.798 71,182.384 C73.413,181.998 75,181.2 75,180.372 Z M162.75,128.689 C165.415,127.993 188.192,127.945 190.75,128.63 C191.988,128.962 193,129.856 193,130.617 C193,131.377 193.623,132 194.383,132 C197.155,132 198.249,145.583 195.561,146.615 C194.77,146.919 193.834,148.479 193.482,150.084 C192.926,152.612 192.386,153 189.421,153 L186,153 L186,138.833 L173.928,139.166 C163.687,139.449 161.708,139.766 160.878,141.25 C160.291,142.3 158.721,143 156.95,143 C154.402,143 153.998,143.374 153.986,145.75 C153.965,150.032 152.899,153 151.383,153 C150.623,153 150,152.325 150,151.5 C150,150.675 149.345,150 148.545,150 C147.675,150 146.827,148.595 146.434,146.5 C146.058,144.495 145.184,143 144.389,143 C143.625,143 143,142.1 143,141 C143,139.889 143.667,139 144.5,139 C145.325,139 146,138.325 146,137.5 C146,136.667 146.889,136 148,136 C149.333,136 150,135.333 150,134 C150,132.242 150.667,132 155.5,132 C159.597,132 161,131.636 161,130.573 C161,129.789 161.787,128.941 162.75,128.689 Z M45.201,140.606 C46.502,138.28 75,138.178 75,140.5 C75,141.325 75.675,142 76.5,142 C77.325,142 78,142.848 78,143.883 C78,144.926 78.893,146 80,146.29 C81.67,146.726 82,147.654 82,151.906 L82,157 L78,157 C74.095,157 74,156.917 74,153.5 C74,151.056 73.548,150 72.5,150 C71.675,150 71,149.325 71,148.5 C71,147.278 69.333,147 62,147 C54.667,147 53,147.278 53,148.5 C53,149.583 51.889,150 49,150 C46.261,150 45,150.436 45,151.383 C45,152.899 42.032,153.965 37.75,153.986 C35.118,153.999 35,154.215 35,159 L35,164 L31.5,164 C29.056,164 28,163.548 28,162.5 C28,161.417 26.889,161 24,161 C20.075,161 20,160.932 20,157.406 C20,154.654 20.468,153.69 22,153.29 C23.1,153.002 24,152.144 24,151.383 C24,150.623 24.623,150 25.383,150 C26.144,150 27.002,149.1 27.29,148 C27.69,146.468 28.654,146 31.406,146 C33.782,146 35,145.536 35,144.63 C35,143.742 36.635,143.076 39.651,142.736 C42.449,142.42 44.66,141.572 45.201,140.606 Z M46,90.5 C46,89.31 47.444,89 53,89 C58.556,89 60,89.31 60,90.5 C60,91.605 61.153,92 64.375,92 C70.741,92 75,93.052 75,94.625 C75,95.381 75.675,96 76.5,96 C77.333,96 78,96.889 78,98 C78,99.333 78.667,100 80,100 C81.81,100 82,100.667 82,107 C82,113.333 81.81,114 80,114 C78.667,114 78,113.333 78,112 C78,110.9 77.345,110 76.545,110 C75.675,110 74.827,108.595 74.434,106.5 C73.837,103.318 73.47,103 70.389,103 C68.043,103 67,102.538 67,101.5 C67,100.278 65.333,100 58,100 C50.667,100 49,100.278 49,101.5 C49,102.325 48.325,103 47.5,103 C46.667,103 46,103.889 46,105 C46,106.333 45.333,107 44,107 C42.667,107 42,106.333 42,105 C42,103.381 41.333,103 38.5,103 L35,103 L35,98.117 C35,92.762 35.914,92.042 42.75,92.014 C44.966,92.004 46,91.523 46,90.5 Z M197,76 C197,77.333 196.333,78 195,78 C193.242,78 193,78.667 193,83.5 C193,88.333 192.758,89 191,89 C189.381,89 189,88.333 189,85.5 C189,82.278 188.762,82 186,82 C183.067,82 183,82.111 183,87 C183,90.778 183.367,92 184.5,92 C185.333,92 186,92.889 186,94 C186,95.111 185.333,96 184.5,96 C183.675,96 183,96.675 183,97.5 C183,98.548 184.056,99 186.5,99 C188.944,99 190,98.548 190,97.5 C190,96.452 191.056,96 193.5,96 C196.333,96 197,95.619 197,94 C197,92.889 197.667,92 198.5,92 C199.51,92 200,90.99 200,88.906 C200,86.654 200.544,85.671 202,85.29 C203.503,84.897 204,83.926 204,81.383 C204,79.043 204.462,78 205.5,78 C207.854,78 207.253,75.301 204.75,74.63 C200.008,73.359 197,73.891 197,76 Z"/>
</svg>

