<svg xmlns="http://www.w3.org/2000/svg" width="300" height="300" viewBox="0 0 300 300" version="1.1">
  <defs/>
  <path d="M150,85.361 C150,84.472 151.215,84 153.5,84 C155.851,84 157,84.465 157,85.415 C157,86.446 159.032,87.02 164.5,87.532 C169.878,88.036 172,88.626 172,89.617 C172,90.456 173.083,91.005 174.75,91.014 C179.032,91.035 182,92.101 182,93.617 C182,94.377 182.9,95 184,95 C185.758,95 186,95.667 186,100.5 C186,104.722 185.652,106 184.5,106 C183.44,106 183,107.072 183,109.652 L183,113.304 L196.713,112.616 C205.722,112.164 210.684,111.511 211.177,110.714 C212.037,109.321 227.112,108.423 232.538,109.441 C235.56,110.008 236,110.466 236,113.045 C236,115.005 235.495,116 234.5,116 C233.667,116 233,116.889 233,118 C233,119.333 232.333,120 231,120 C229.667,120 229,120.667 229,122 C229,123.333 228.333,124 227,124 C225.889,124 225,124.667 225,125.5 C225,126.51 223.99,127 221.906,127 C219.654,127 218.671,127.544 218.29,129 C217.857,130.656 216.926,131 212.883,131 C209.407,131 208,131.396 208,132.375 C208,133.746 203.88,135 199.375,135 C197.931,135 197,135.588 197,136.5 C197,137.325 196.325,138 195.5,138 C194.667,138 194,137.111 194,136 C194,134.9 194.45,134 195,134 C195.55,134 196,133.325 196,132.5 C196,131.644 196.899,131 198.094,131 C199.346,131 200.397,130.197 200.71,129 C201.103,127.497 202.074,127 204.617,127 C206.911,127 208,126.532 208,125.545 C208,124.675 209.405,123.827 211.5,123.434 C213.505,123.058 215,122.184 215,121.389 C215,120.275 212.426,120 202,120 C191.434,120 189,120.266 189,121.421 C189,122.202 187.65,123.138 186,123.5 C183.38,124.075 183,124.592 183,127.579 C183,129.953 183.459,131 184.5,131 C185.737,131 186,132.819 186,141.375 L186,151.75 L182.897,152.371 C179.38,153.074 178,152.53 178,150.441 C178,149.324 176.428,149 171,149 C164.667,149 164,149.19 164,151 C164,152.111 163.333,153 162.5,153 C161.218,153 161,155.833 161,172.5 L161,192 L186,192 L186,197.5 C186,201.722 185.652,203 184.5,203 C183.675,203 183,203.675 183,204.5 C183,205.333 182.111,206 181,206 C179.667,206 179,206.667 179,208 C179,209.758 178.333,210 173.5,210 L168,210 L168,206.5 C168,203.167 167.833,203 164.5,203 L161,203 L161,208.5 C161,212.722 161.348,214 162.5,214 C163.548,214 164,215.056 164,217.5 C164,219.944 163.548,221 162.5,221 C161.675,221 161,221.675 161,222.5 C161,223.325 161.675,224 162.5,224 C163.692,224 164,225.455 164,231.094 C164,237.346 164.237,238.249 166,238.71 C167.688,239.152 168,240.074 168,244.617 C168,248.735 167.648,250 166.5,250 C165.675,250 165,250.675 165,251.5 C165,252.333 164.111,253 163,253 C161.667,253 161,253.667 161,255 C161,256.333 160.333,257 159,257 C157.242,257 157,256.333 157,251.5 C157,247.278 156.652,246 155.5,246 C154.452,246 154,244.944 154,242.5 C154,240.056 154.452,239 155.5,239 C156.333,239 157,238.111 157,237 C157,235.889 156.333,235 155.5,235 C153.961,235 153.841,233.648 153.588,213.5 C153.513,207.5 153.25,206.512 151.75,206.583 C150.787,206.629 148.425,206.742 146.5,206.833 C144.13,206.946 143,207.484 143,208.5 C143,209.652 141.722,210 137.5,210 C133.278,210 132,210.348 132,211.5 C132,212.325 131.283,213 130.406,213 C129.53,213 128.577,213.9 128.29,215 C127.816,216.811 126.926,217 118.883,217 C111.654,217 110,217.279 110,218.5 C110,219.333 109.111,220 108,220 C106.9,220 106,219.55 106,219 C106,218.45 105.325,218 104.5,218 C103.667,218 103,217.111 103,216 C103,214.667 102.333,214 101,214 C99.889,214 99,214.667 99,215.5 C99,216.325 98.325,217 97.5,217 C96.348,217 96,218.278 96,222.5 L96,228 L99.5,228 C101.803,228 103,227.53 103,226.625 C103,225.052 107.259,224 113.625,224 C116.847,224 118,223.605 118,222.5 C118,221.235 120.291,221 132.617,221 L147.233,221 L146.63,223.25 C146.299,224.488 146.021,226.063 146.014,226.75 C146.006,227.438 145.325,228 144.5,228 C143.675,228 143,228.625 143,229.389 C143,230.184 141.505,231.058 139.5,231.434 C137.405,231.827 136,232.675 136,233.545 C136,234.345 135.1,235 134,235 C132.107,235 132,235.667 132,247.5 L132,260 L135.5,260 C138.81,260 139,260.183 139,263.383 C139,266.047 138.521,266.895 136.75,267.37 C132.117,268.611 128.834,268.08 128.29,266 C128.002,264.9 127.188,264 126.48,264 C125.069,264 123.559,247.78 124.049,237.898 C124.412,230.595 124.167,228 123.117,228 C122.631,228 121.998,228.9 121.71,230 C121.266,231.699 120.346,232 115.594,232 C111.487,232 110,232.369 110,233.389 C110,234.184 108.505,235.058 106.5,235.434 C104.405,235.827 103,236.675 103,237.545 C103,238.345 102.1,239 101,239 C99.889,239 99,239.667 99,240.5 C99,241.325 98.325,242 97.5,242 C96.452,242 96,243.056 96,245.5 C96,247.944 95.548,249 94.5,249 C93.667,249 93,249.889 93,251 C93,252.667 92.333,253 89,253 L85,253 L85,244 C85,236.837 85.294,235 86.439,235 C89.672,235 89.873,215.627 86.658,213.828 C85.222,213.025 85,210.758 85,196.89 L85,180.879 L88.75,181.19 C92.174,181.473 92.527,181.783 92.813,184.75 C93.007,186.763 93.673,188 94.563,188 C95.706,188 96,189.843 96,197 L96,206 L114,206 L114,202.5 C114,200.202 114.471,199 115.371,199 C117.207,199 118.284,189.23 117.4,180.601 L116.724,174 L120.862,174 C123.874,174 125,174.408 125,175.5 C125,176.325 125.619,177 126.375,177 C127.131,177 128.041,178.457 128.398,180.238 C129.331,184.903 128.022,195 126.484,195 C125.251,195 123.813,200.775 124.678,202.25 C124.92,202.662 127.566,203 130.559,203 C134.525,203 136,202.625 136,201.617 C136,199.897 139.077,199.031 145.25,199.014 C148.621,199.004 150,198.598 150,197.617 C150,196.856 150.889,196.001 151.976,195.716 C153.876,195.22 153.944,194.371 153.726,173.85 L153.5,152.5 L149.75,152.19 C147.297,151.987 146,151.381 146,150.44 C146,149.648 145.325,149 144.5,149 C143.675,149 143,149.622 143,150.383 C143,151.374 140.878,151.964 135.5,152.468 C130.032,152.98 128,153.554 128,154.585 C128,155.363 127.325,156 126.5,156 C125.675,156 125,156.623 125,157.383 C125,158.959 122,159.966 117.25,159.986 C115.034,159.996 114,160.477 114,161.5 C114,162.583 112.889,163 110,163 C107.111,163 106,162.583 106,161.5 C106,160.675 105.325,160 104.5,160 C103.456,160 103,158.949 103,156.545 C103,153.389 103.302,153.034 106.5,152.434 C108.505,152.058 110,151.184 110,150.389 C110,149.472 111.173,149 113.45,149 C115.697,149 117.242,148.39 117.879,147.25 C118.687,145.804 120.604,145.44 128.928,145.156 C136.753,144.889 139,144.499 139,143.406 C139,142.368 140.441,142 144.5,142 L150,142 L150,133 C150,124.667 149.852,124 148,124 C146.9,124 146,124.609 146,125.353 C146,126.423 142.015,126.818 126.875,127.246 C112.594,127.651 107.543,128.122 106.934,129.106 C106.377,130.008 102.941,130.552 96.06,130.829 C88.355,131.138 86,131.557 86,132.616 C86,133.474 84.906,134 83.125,134 C78.159,134 74,135.196 74,136.625 C74,137.381 73.325,138 72.5,138 C71.667,138 71,138.889 71,140 C71,141.593 70.338,141.997 67.75,141.986 C61.486,141.96 60,141.077 60,137.383 C60,135.169 60.478,134 61.383,134 C62.144,134 63.002,133.1 63.29,132 C63.577,130.9 64.53,130 65.406,130 C66.283,130 67,129.325 67,128.5 C67,127.31 68.444,127 74,127 C79.556,127 81,126.69 81,125.5 C81,124.297 82.533,123.998 88.75,123.989 C98.866,123.975 104,123.093 104,121.369 C104,120.262 107.354,120 121.5,120 C136.389,120 139,119.776 139,118.5 C139,117.588 139.931,117 141.375,117 C142.681,117 145.156,116.719 146.875,116.375 C149.505,115.849 150,115.295 150,112.875 C150,110.986 149.486,110 148.5,110 C147.514,110 147,109.014 147,107.125 C147,105.544 146.719,102.844 146.375,101.125 C145.756,98.032 145.687,98 139.625,98.006 C127.316,98.018 117,99.223 117,100.648 C117,101.392 116.325,102 115.5,102 C114.667,102 114,101.111 114,100 C114,98.889 113.333,98 112.5,98 C111.675,98 111,97.325 111,96.5 C111,95.675 111.675,95 112.5,95 C113.333,95 114,94.111 114,93 C114,91.178 114.667,91 121.5,91 C127.5,91 129,90.7 129,89.5 C129,88.358 130.254,87.998 134.25,87.991 C143.255,87.976 150,86.85 150,85.361 Z M180.75,15.654 C182.411,15.187 188,15.666 188.667,16.333 C188.839,16.505 189.265,18.076 189.615,19.823 C190.169,22.595 189.979,23 188.125,23 C186.363,23 186,23.598 186,26.5 C186,28.813 185.531,30 184.617,30 C183.331,30 182.045,32.84 182.014,35.75 C182.003,36.709 186.659,37 202,37 L222,37 L222,42.5 C222,47.333 221.758,48 220,48 C218.889,48 218,48.667 218,49.5 C218,50.325 217.325,51 216.5,51 C215.675,51 215,51.837 215,52.861 C215,54.359 213.98,54.842 209.756,55.342 C206.872,55.684 204.359,56.422 204.173,56.982 C203.659,58.523 201.291,58.2 200.638,56.5 C200.322,55.675 199.374,55 198.531,55 C195.421,55 197.03,52.085 200.5,51.434 C202.505,51.058 204,50.184 204,49.389 C204,48.278 201.499,48 191.5,48 C179.667,48 179,48.107 179,50 C179,51.333 178.333,52 177,52 C175.095,52 175,52.667 175,66 C175,79.333 174.905,80 173,80 C171.889,80 171,79.333 171,78.5 C171,77.675 170.325,77 169.5,77 C168.243,77 168,74.872 168,63.852 L168,50.704 L159.75,51.346 C155.213,51.699 148.012,51.991 143.75,51.994 C137.53,51.999 136,52.296 136,53.5 C136,54.333 135.111,55 134,55 C132.242,55 132,55.667 132,60.5 C132,65.333 132.242,66 134,66 C135.619,66 136,66.667 136,69.5 C136,71.944 136.452,73 137.5,73 C138.333,73 139,73.889 139,75 C139,76.733 138.333,77 134.012,77 L129.024,77 L128.384,73 C128.011,70.665 127.192,69 126.418,69 C125.476,69 125.006,67.042 124.796,62.25 L124.5,55.5 L117.662,55.584 C112.914,55.642 110.556,56.101 109.95,57.084 C109.272,58.183 105.602,58.572 93.538,58.82 C80.883,59.081 78,59.406 78,60.57 C78,61.619 76.668,62 73,62 C68.667,62 68,61.733 68,60 C68,58.9 68.414,58 68.921,58 C69.427,58 70.134,56.664 70.493,55.032 C71.02,52.634 71.804,51.94 74.572,51.42 C76.522,51.055 78,50.178 78,49.389 C78,48.255 81.308,48 96,48 C110.692,48 114,47.745 114,46.611 C114,45.826 115.465,44.948 117.372,44.59 C120.522,43.999 120.779,43.651 121.267,39.328 C121.58,36.547 122.43,34.339 123.394,33.799 C125.421,32.665 125.495,30 123.5,30 C122.452,30 122,28.944 122,26.5 C122,24.056 122.452,23 123.5,23 C124.333,23 125,22.111 125,21 C125,19.271 125.667,19 129.912,19 L134.824,19 L135.5,23 C135.915,25.459 136.72,27 137.588,27 C138.616,27 139,28.361 139,32 L139,37 L135.5,37 C132.667,37 132,37.381 132,39 C132,40.111 132.667,41 133.5,41 C134.325,41 135,41.675 135,42.5 C135,43.583 136.111,44 139,44 C141.792,44 143,43.57 143,42.577 C143,41.434 145.636,41.091 156.42,40.827 C163.8,40.647 170.153,40.185 170.537,39.799 C170.921,39.414 171.465,37.052 171.747,34.549 C172.078,31.614 172.746,30 173.63,30 C174.624,30 175,28.49 175,24.5 C175,19.667 175.242,19 177,19 C178.1,19 179,18.358 179,17.573 C179,16.789 179.787,15.925 180.75,15.654 Z M186,157.383 C186,156.448 187.232,156 189.808,156 L193.616,156 L193.186,165 L192.755,174 L205.378,174 C217.998,174 218,174 218,171.625 C218,167.12 219.254,163 220.625,163 C221.53,163 222,161.803 222,159.5 C222,156.19 222.183,156 225.383,156 C227.926,156 228.897,156.497 229.29,158 C229.577,159.1 230.53,160 231.406,160 C232.561,160 233,160.964 233,163.5 C233,165.944 233.452,167 234.5,167 C235.325,167 236,167.675 236,168.5 C236,169.325 235.325,170 234.5,170 C233.213,170 233,173.056 233,191.5 C233,210.506 233.185,213 234.594,213 C235.47,213 236.423,213.9 236.71,215 C236.998,216.1 237.856,217 238.617,217 C239.531,217 240,218.187 240,220.5 C240,223.833 239.833,224 236.5,224 C233.083,224 233,224.095 233,228 C233,230.696 233.441,232 234.353,232 C235.372,232 235.875,234.824 236.39,243.43 C236.766,249.717 236.783,256.017 236.428,257.43 C235.741,260.166 233,261.022 233,258.5 C233,257.667 232.111,257 231,257 C229.667,257 229,256.333 229,255 C229,253.9 228.345,253 227.545,253 C226.675,253 225.827,251.595 225.434,249.5 C225.058,247.495 224.184,246 223.389,246 C222.625,246 222,245.1 222,244 C222,242.889 221.333,242 220.5,242 C219.675,242 219,241.325 219,240.5 C219,239.452 220.056,239 222.5,239 C225.879,239 226,238.871 225.991,235.25 C225.987,233.188 225.699,229.137 225.352,226.25 L224.721,221 L219.861,221 C216.207,221 215,221.372 215,222.5 C215,223.555 213.934,224 211.406,224 C208.654,224 207.69,224.468 207.29,226 C206.897,227.503 205.926,228 203.383,228 C200.667,228 200,228.394 200,230 C200,231.111 199.333,232 198.5,232 C197.369,232 197,233.217 197,236.95 C197,240.613 196.548,242.154 195.261,242.874 C193.887,243.643 193.445,245.543 193.155,251.924 C192.884,257.9 192.433,260 191.424,260 C190.358,260 189.999,262.784 189.78,272.75 L189.5,285.5 L182.5,285.5 L182.168,280 C181.986,276.975 182.142,269.887 182.515,264.25 C183.031,256.44 183.527,254 184.596,254 C185.716,254 186,251.776 186,243 C186,233.889 186.258,232 187.5,232 C188.333,232 189,231.111 189,230 C189,228.381 188.333,228 185.5,228 C182.149,228 182,227.847 182,224.406 C182,221.654 182.468,220.69 184,220.29 C185.1,220.002 186,219.144 186,218.383 C186,217.293 188.227,217 196.5,217 C205.167,217 207,216.738 207,215.5 C207,214.3 208.5,214 214.5,214 L222,214 L222,201.617 C222,190.074 221.864,189.198 220,188.71 C218.544,188.329 218,187.346 218,185.094 C218,181.824 215.7,180.734 214.638,183.5 C214.165,184.735 211.581,185 200.031,185 C186.667,185 186,184.905 186,183 C186,181.667 185.333,181 184,181 C182.126,181 182,180.333 182,170.406 C182,160.654 182.159,159.771 184,159.29 C185.1,159.002 186,158.144 186,157.383 Z M157,105.5 L157,116 L164.5,116 C170.5,116 172,115.7 172,114.5 C172,113.675 172.675,113 173.5,113 C174.548,113 175,111.944 175,109.5 C175,107.18 174.532,106 173.611,106 C172.825,106 171.947,104.531 171.587,102.61 C170.92,99.057 169.187,98.041 163.75,98.014 C161.978,98.005 161,97.466 161,96.5 C161,95.667 160.111,95 159,95 C157.127,95 157,95.667 157,105.5 Z M164.864,123.712 C161.734,124.052 161.144,124.532 160.618,127.16 C159.6,132.25 161.02,140.982 162.888,141.116 C163.774,141.18 166.863,141.334 169.75,141.457 L175,141.682 L175,136.341 C175,132.36 174.634,131 173.56,131 C172.619,131 172.013,129.704 171.81,127.258 C171.478,123.246 171.071,123.038 164.864,123.712 Z"/>
</svg>

