<svg xmlns="http://www.w3.org/2000/svg" width="300" height="300" viewBox="0 0 300 300" version="1.1">
  <defs/>
  <path d="M160,68.594 C160,67.348 161.092,67 165,67 L170,67 L170,71 C170,73.889 169.583,75 168.5,75 C167.675,75 167,75.675 167,76.5 C167,77.548 165.944,78 163.5,78 C160.667,78 160,78.381 160,80 C160,81.333 159.333,82 158,82 C156.381,82 156,82.667 156,85.5 C156,88.333 155.619,89 154,89 C152.667,89 152,89.667 152,91 C152,92.1 151.374,93 150.608,93 C148.999,93 147.487,97.887 148.717,99.117 C149.172,99.572 154.147,99.664 159.772,99.321 C167.38,98.858 170,98.352 170,97.349 C170,96.25 175.01,96 197,96 C219.242,96 224,95.758 224,94.625 C224,92.562 228.661,92 245.764,92 L261.279,92 L260.648,97.25 C260.301,100.138 260.013,103.513 260.009,104.75 C260.004,106.079 259.386,107 258.5,107 C257.262,107 257,108.828 257,117.45 C257,126.363 256.743,128.045 255.25,128.879 C253.641,129.779 253.477,132.837 253.215,166.929 C252.97,198.689 252.72,204 251.465,204 C250.482,204 249.996,205.069 249.986,207.25 C249.966,212 248.959,215 247.383,215 C246.623,215 246,215.675 246,216.5 C246,217.325 245.283,218 244.406,218 C243.53,218 242.577,218.9 242.29,220 C241.926,221.392 240.926,222 239,222 C237.074,222 236.074,222.608 235.71,224 C235.249,225.763 234.346,226 228.094,226 C222.455,226 221,226.308 221,227.5 C221,228.652 219.722,229 215.5,229 C211.278,229 210,228.652 210,227.5 C210,226.675 209.283,226 208.406,226 C207.53,226 206.577,225.1 206.29,224 C205.897,222.497 204.926,222 202.383,222 C199.183,222 199,221.81 199,218.5 C199,215.964 198.561,215 197.406,215 C196.53,215 195.577,214.1 195.29,213 C195.002,211.9 194.144,211 193.383,211 C192.469,211 192,209.813 192,207.5 C192,204.667 192.381,204 194,204 C195.619,204 196,204.667 196,207.5 C196,210.333 196.381,211 198,211 C199.111,211 200,211.667 200,212.5 C200,213.325 200.675,214 201.5,214 C202.325,214 203,214.837 203,215.861 C203,217.359 204.024,217.844 208.25,218.352 C211.137,218.699 215.188,218.987 217.25,218.991 C219.913,218.997 221,219.435 221,220.5 C221,222.726 223.684,222.318 224.29,220 C224.69,218.468 225.654,218 228.406,218 C230.934,218 232,217.555 232,216.5 C232,215.675 232.623,215 233.383,215 C234.144,215 235.002,214.1 235.29,213 C235.577,211.9 236.53,211 237.406,211 C238.333,211 239,210.163 239,209 C239,207.889 239.667,207 240.5,207 C242.198,207 242.34,204.22 242.017,177.423 C241.764,156.453 242.785,143 244.629,143 C245.733,143 246,139.887 246,127 C246,113.444 246.229,111 247.5,111 C248.652,111 249,109.722 249,105.5 L249,100 L242,100 C236.642,100 235,100.331 235,101.41 C235,102.549 232.007,102.886 219.462,103.16 C206.991,103.433 203.742,103.796 203,105 C202.231,106.248 198.199,106.553 179.038,106.818 C159.857,107.082 156,107.375 156,108.568 C156,109.608 154.7,110.004 151.25,110.014 C145.077,110.031 142,110.897 142,112.617 C142,113.377 141.1,114 140,114 C138.667,114 138,114.667 138,116 C138,117.612 137.333,118 134.56,118 C131.322,118 131.103,117.786 130.81,114.327 C130.464,110.231 128.17,108.634 127.317,111.895 C127.014,113.053 126.144,114 125.383,114 C124.469,114 124,115.187 124,117.5 C124,120.333 123.619,121 122,121 C120.381,121 120,121.667 120,124.5 C120,126.944 119.548,128 118.5,128 C117.667,128 117,128.889 117,130 C117,131.333 116.333,132 115,132 C113.381,132 113,132.667 113,135.5 C113,137.803 112.53,139 111.625,139 C109.94,139 109,143.342 109,151.125 L109,157 L105.5,157 C102.167,157 102,156.833 102,153.5 C102,150.667 101.619,150 100,150 C98.837,150 98,149.333 98,148.406 C98,147.53 98.9,146.577 100,146.29 C101.647,145.859 102,144.926 102,141 C102,137.074 102.353,136.141 104,135.71 C105.456,135.329 106,134.346 106,132.094 C106,130.01 106.49,129 107.5,129 C108.341,129 109,128.108 109,126.969 C109,125.851 109.663,124.683 110.473,124.372 C111.283,124.061 112.233,122.275 112.584,120.403 C112.946,118.473 113.823,117 114.611,117 C115.497,117 116,115.879 116,113.906 C116,111.654 116.544,110.671 118,110.29 C119.107,110 120,108.926 120,107.883 C120,106.848 120.639,106 121.421,106 C122.202,106 123.138,104.65 123.5,103 C123.862,101.35 124.798,100 125.579,100 C126.361,100 127,99.1 127,98 C127,96.667 127.667,96 129,96 C130.1,96 131,95.345 131,94.545 C131,93.675 132.405,92.827 134.5,92.434 C136.505,92.058 138,91.184 138,90.389 C138,89.468 139.18,89 141.5,89 C144.333,89 145,88.619 145,87 C145,85.667 145.667,85 147,85 C148.619,85 149,84.333 149,81.5 C149,78.667 149.381,78 151,78 C152.333,78 153,77.333 153,76 C153,74.889 153.667,74 154.5,74 C155.325,74 156,73.377 156,72.617 C156,71.856 156.9,70.998 158,70.71 C159.1,70.423 160,69.47 160,68.594 Z M73.667,92.667 C74.033,92.3 75.608,92 77.167,92 C79.333,92 80,92.471 80,94 C80,95.333 80.667,96 82,96 C83.758,96 84,96.667 84,101.5 C84,105.516 84.373,107 85.383,107 C87.103,107 87.969,110.077 87.986,116.25 C87.996,119.644 88.399,121 89.397,121 C90.457,121 90.88,123.062 91.147,129.537 C91.376,135.066 91.951,138.352 92.781,138.865 C93.613,139.379 94.28,143.215 94.681,149.802 C95.217,158.603 95.084,160.031 93.677,160.571 C90.408,161.825 90.288,175 93.545,175 C94.345,175 95,175.623 95,176.383 C95,177.899 97.968,178.965 102.25,178.986 C104.022,178.995 105,179.534 105,180.5 C105,181.356 105.899,182 107.094,182 C108.346,182 109.397,182.803 109.71,184 C110.143,185.656 111.074,186 115.117,186 C118.723,186 120,186.38 120,187.455 C120,188.325 121.405,189.173 123.5,189.566 C125.505,189.942 127,190.816 127,191.611 C127,192.375 127.9,193 129,193 C130.1,193 131,193.655 131,194.455 C131,195.325 132.405,196.173 134.5,196.566 C137.682,197.163 138,197.53 138,200.611 C138,203.333 137.607,204 136,204 C134.889,204 134,204.667 134,205.5 Q134,207 131,207 Q128,207 128,205.5 C128,204.667 127.111,204 126,204 C124.837,204 124,203.333 124,202.406 C124,201.53 123.1,200.577 122,200.29 C120.9,200.002 120,199.144 120,198.383 C120,197.387 118.577,197 114.906,197 C110.654,197 109.726,196.67 109.29,195 C108.897,193.497 107.926,193 105.383,193 C103.163,193 102,192.523 102,191.611 C102,190.816 100.505,189.942 98.5,189.566 C96.405,189.173 95,188.325 95,187.455 C95,186.655 94.1,186 93,186 C91.889,186 91,186.667 91,187.5 C91,188.325 90.325,189 89.5,189 C88.395,189 88,190.153 88,193.375 C88,199.741 86.948,204 85.375,204 C84.392,204 84,205.424 84,209 C84,212.639 83.616,214 82.588,214 C81.72,214 80.915,215.541 80.5,218 C80.085,220.459 79.28,222 78.412,222 C77.465,222 77,223.152 77,225.5 C77,228.036 76.561,229 75.406,229 C74.53,229 73.577,229.9 73.29,231 C72.897,232.503 71.926,233 69.383,233 L66,233 L66,227.5 C66,223.278 66.348,222 67.5,222 C68.412,222 69,221.069 69,219.625 C69,215.12 70.254,211 71.625,211 C72.53,211 73,209.803 73,207.5 C73,204.667 73.381,204 75,204 C76.758,204 77,203.333 77,198.5 C77,194.528 77.378,193 78.361,193 C79.714,193 80.972,186.426 80.991,179.25 C80.997,177.032 81.476,176 82.5,176 C83.665,176 84,174.673 84,170.061 L84,164.123 L71.673,164.705 C57.938,165.354 52,164.675 52,162.455 C52,161.655 51.1,161 50,161 C48.9,161 48,160.345 48,159.545 C48,158.675 46.595,157.827 44.5,157.434 C41.067,156.79 41,156.684 41,151.889 L41,147 L46,147 C49.778,147 51,147.367 51,148.5 C51,149.333 51.889,150 53,150 C54.333,150 55,150.667 55,152 C55,153.333 55.667,154 57,154 C58.111,154 59,154.667 59,155.5 C59,156.738 60.833,157 69.5,157 C78.167,157 80,156.738 80,155.5 C80,154.667 80.889,154 82,154 C83.879,154 84,153.333 84,143 C84,134.333 83.708,132 82.625,132 C81.052,132 80,127.741 80,121.375 C80,118.153 79.605,117 78.5,117 C77.534,117 76.995,116.022 76.986,114.25 C76.965,109.968 75.899,107 74.383,107 C73.341,107 73,105.318 73,100.167 C73,96.408 73.3,93.033 73.667,92.667 Z M167,161 L167,150 L174,150 C179.273,150 181,150.339 181,151.375 C181,152.746 185.12,154 189.625,154 C191.069,154 192,154.588 192,155.5 C192,156.771 194.444,157 208,157 C221.556,157 224,156.771 224,155.5 C224,154.417 225.111,154 228,154 C232.141,154 232.505,154.513 231.37,158.75 C230.895,160.521 230.047,161 227.383,161 C225.169,161 224,161.478 224,162.383 C224,164.103 220.923,164.969 214.75,164.986 C211.201,164.997 210,165.379 210,166.5 C210,167.652 208.722,168 204.5,168 C200.543,168 199,167.62 199,166.647 C199,165.262 189.393,164 178.849,164 C175.205,164 174,163.627 174,162.5 C174,161.452 172.944,161 170.5,161 L167,161 Z"/>
</svg>

