<svg xmlns="http://www.w3.org/2000/svg" width="300" height="300" viewBox="0 0 300 300" version="1.1">
  <defs/>
  <path d="M99.29,118 C99.726,116.33 100.654,116 104.906,116 L110,116 L110,120 C110,122.889 109.583,124 108.5,124 C107.348,124 107,125.278 107,129.5 C107,133.722 107.348,135 108.5,135 C109.565,135 110.003,136.087 110.009,138.75 C110.026,146.378 111.249,153 112.639,153 C113.605,153 114,154.45 114,158 C114,161.639 114.384,163 115.412,163 C116.28,163 117.085,164.541 117.5,167 C117.915,169.459 118.72,171 119.588,171 C120.365,171 121,171.675 121,172.5 C121,173.333 121.889,174 123,174 C124.333,174 125,174.667 125,176 C125,177.111 125.667,178 126.5,178 C127.325,178 128,178.675 128,179.5 C128,180.583 129.111,181 132,181 C134.739,181 136,181.436 136,182.383 C136,185.134 145.337,186.008 146.799,183.394 C147.34,182.428 149.551,181.58 152.349,181.264 C155.143,180.949 157,180.237 157,179.481 C157,178.789 158.575,177.927 160.5,177.566 C162.595,177.173 164,176.325 164,175.455 C164,174.655 164.9,174 166,174 C167.333,174 168,173.333 168,172 C168,170.9 167.39,170 166.644,170 C165.668,170 165.096,167.698 164.603,161.793 C164.227,157.279 163.695,153.361 163.421,153.088 C163.147,152.814 160.016,152.405 156.462,152.178 C151.825,151.883 150,151.376 150,150.384 C150,149.387 148.577,149 144.906,149 C140.654,149 139.726,148.67 139.29,147 C139.002,145.9 138.144,145 137.383,145 C136.623,145 136,144.325 136,143.5 C136,142.667 135.111,142 134,142 C132.667,142 132,141.333 132,140 C132,138.667 131.333,138 130,138 C128.889,138 128,137.333 128,136.5 C128,135.675 127.325,135 126.5,135 C125.667,135 125,134.111 125,133 C125,131.667 124.333,131 123,131 C121.407,131 121.003,130.338 121.014,127.75 C121.039,121.835 121.982,120 125,120 C126.926,120 127.926,120.608 128.29,122 C128.577,123.1 129.53,124 130.406,124 C131.283,124 132,124.675 132,125.5 C132,126.652 133.278,127 137.5,127 C142.333,127 143,127.242 143,129 C143,130.619 143.667,131 146.5,131 C148.82,131 150,131.468 150,132.389 C150,133.184 151.495,134.058 153.5,134.434 C155.595,134.827 157,135.675 157,136.545 C157,137.345 157.9,138 159,138 C160.333,138 161,138.667 161,140 C161,141.1 161.639,142 162.421,142 C163.202,142 164.138,143.35 164.5,145 C164.862,146.65 165.798,148 166.579,148 C167.361,148 168,148.848 168,149.883 C168,150.926 168.893,152 170,152.29 C171.67,152.726 172,153.654 172,157.906 C172,161.767 172.363,163 173.5,163 C174.7,163 175,164.5 175,170.5 C175,176.5 174.7,178 173.5,178 C172.675,178 172,178.717 172,179.594 C172,180.47 171.1,181.423 170,181.71 C168.9,181.998 168,182.856 168,183.617 C168,184.377 167.1,185 166,185 C164.9,185 164,185.655 164,186.455 C164,187.325 162.595,188.173 160.5,188.566 C158.495,188.942 157,189.816 157,190.611 C157,191.738 154.003,192 141.117,192 C126.074,192 125.206,191.894 124.71,190 C124.333,188.558 123.346,188 121.173,188 C118.637,188 118.054,187.524 117.5,185 C117.138,183.35 116.202,182 115.421,182 C114.639,182 114,181.152 114,180.117 C114,179.074 113.107,178 112,177.71 C110.544,177.329 110,176.346 110,174.094 C110,172.01 109.51,171 108.5,171 C107.445,171 107,169.934 107,167.406 C107,164.654 106.532,163.69 105,163.29 C103.244,162.831 103,161.926 103,155.883 C103,150.745 102.655,149 101.639,149 C100.214,149 99.025,142.335 99.009,134.25 C99.002,131.143 98.597,130 97.5,130 C96.367,130 96,128.778 96,125 C96,121.41 96.39,120 97.383,120 C98.144,120 99.002,119.1 99.29,118 Z M60,109.5 C60,106.167 60.167,106 63.5,106 C66.833,106 67,106.167 67,109.5 C67,111.944 67.452,113 68.5,113 C70.377,113 70.605,119.632 68.75,120.249 C67.829,120.555 67.417,125.316 67.186,138.332 C66.927,152.872 66.617,156 65.436,156 C64.279,156 64,158.043 64,166.5 C64,175.167 64.262,177 65.5,177 C66.583,177 67,178.111 67,181 L67,185 L56,185 L56,179.5 C56,175.278 55.652,174 54.5,174 C53.675,174 53,173.325 53,172.5 C53,171.675 53.622,171 54.381,171 C55.508,171 55.899,165.647 56.5,142 C57.101,118.353 57.492,113 58.619,113 C59.531,113 60,111.811 60,109.5 Z M207.651,127.756 C207.908,127.34 211.241,127 215.059,127 C221.333,127 222,127.192 222,129 C222,130.333 222.667,131 224,131 C225.1,131 226,131.623 226,132.383 C226,133.144 226.9,134.002 228,134.29 C229.1,134.577 230,135.53 230,136.406 C230,137.283 230.675,138 231.5,138 C232.325,138 233,138.675 233,139.5 C233,140.325 233.675,141 234.5,141 C235.333,141 236,141.889 236,143 C236,144.333 236.667,145 238,145 C239.606,145 240,145.667 240,148.383 C240,150.963 240.491,151.895 242.069,152.308 C243.729,152.742 244.075,153.506 243.819,156.174 C243.524,159.248 243.234,159.5 240,159.5 C236.806,159.5 236.473,159.225 236.194,156.352 C235.988,154.23 235.253,153.038 233.94,152.695 C232.651,152.357 232.198,151.646 232.603,150.593 C233.043,149.446 232.623,149 231.107,149 C229.93,149 229,148.358 229,147.545 C229,146.675 227.595,145.827 225.5,145.434 C222.967,144.959 222,144.255 222,142.889 C222,141.85 221.325,141 220.5,141 C219.675,141 219,140.325 219,139.5 C219,138.667 218.111,138 217,138 C215.9,138 215,137.375 215,136.611 C215,135.825 213.531,134.947 211.612,134.587 C208.941,134.086 208.114,133.376 207.704,131.231 C207.418,129.735 207.394,128.171 207.651,127.756 Z M141.25,134.662 C138.789,135.655 139.937,138 142.883,138 C144.926,138 145.919,138.583 146.29,140 C146.577,141.1 147.53,142 148.406,142 C149.283,142 150,142.675 150,143.5 C150,144.333 150.889,145 152,145 C153.1,145 153.994,144.438 153.986,143.75 C153.955,140.84 152.669,138 151.383,138 C150.623,138 150,137.377 150,136.617 C150,134.585 144.49,133.355 141.25,134.662 Z"/>
</svg>

