<svg xmlns="http://www.w3.org/2000/svg" width="300" height="300" viewBox="0 0 300 300" version="1.1">
  <defs/>
  <path d="M112.731,32.919 C113.135,31.375 113.82,30.985 115.388,31.406 C116.549,31.718 118.063,31.979 118.75,31.986 C119.438,31.994 120,32.675 120,33.5 C120,34.325 120.675,35 121.5,35 C122.325,35 123,35.675 123,36.5 C123,37.325 122.325,38 121.5,38 C120.667,38 120,38.889 120,40 C120,41.619 119.333,42 116.5,42 C113.167,42 113,42.167 113,45.5 C113,48.333 112.619,49 111,49 C109.667,49 109,49.667 109,51 C109,52.111 108.333,53 107.5,53 C106.363,53 106,54.233 106,58.094 C106,62.346 105.67,63.274 104,63.71 C102.344,64.143 102,65.074 102,69.117 C102,73.333 102.273,74 104,74 C105.333,74 106,74.667 106,76 C106,77.333 105.333,78 104,78 C102.333,78 102,78.667 102,82 C102,84.722 101.562,86 100.629,86 C99.739,86 99.025,87.754 98.594,91 C98.14,94.424 97.469,96 96.466,96 C95.66,96 95,96.831 95,97.848 C95,99.569 96.169,99.701 112.104,99.785 C121.511,99.834 129.499,100.166 129.854,100.521 C130.209,100.876 130.5,104.536 130.5,108.654 C130.5,114.744 130.174,116.323 128.75,117.12 C127.787,117.659 127,118.752 127,119.55 C127,120.347 126.325,121 125.5,121 C124.675,121 124,121.675 124,122.5 C124,123.325 124.675,124 125.5,124 C126.325,124 127,123.415 127,122.7 C127,121.768 128.979,121.37 134,121.292 C139.606,121.206 141,121.483 141,122.686 C141,123.512 141.9,124.423 143,124.71 C145.318,125.316 145.726,128 143.5,128 C142.667,128 142,128.889 142,130 C142,131.333 141.333,132 140,132 C138.393,132 138,132.667 138,135.389 C138,138.47 137.682,138.837 134.5,139.434 C132.405,139.827 131,140.675 131,141.545 C131,142.345 130.1,143 129,143 C127.889,143 127,143.667 127,144.5 C127,145.325 126.325,146 125.5,146 C124.667,146 124,146.889 124,148 C124,149.333 123.333,150 122,150 C120.9,150 120,150.655 120,151.455 C120,152.325 118.595,153.173 116.5,153.566 C114.495,153.942 113,154.816 113,155.611 C113,156.375 112.1,157 111,157 C109.667,157 109,157.667 109,159 C109,160.619 108.333,161 105.5,161 C103.056,161 102,161.452 102,162.5 C102,163.325 101.283,164 100.406,164 C99.53,164 98.577,164.9 98.29,166 C97.897,167.503 96.926,168 94.383,168 C91.667,168 91,168.394 91,170 C91,171.111 90.333,172 89.5,172 C88.675,172 88,172.675 88,173.5 C88,174.325 88.675,175 89.5,175 C90.325,175 91,174.325 91,173.5 C91,172.348 92.278,172 96.5,172 C101.333,172 102,171.758 102,170 C102,168.19 102.667,168 109,168 C114.237,168 116,167.657 116,166.639 C116,165.249 122.622,164.026 130.25,164.009 C132.913,164.003 134,163.565 134,162.5 C134,161.246 136.059,161 146.531,161 C156.748,161 159.169,160.723 159.638,159.5 C160.253,157.898 163,157.4 163,158.891 C163,159.381 167.95,160.105 174,160.5 C182.382,161.048 185,161.55 185,162.609 C185,163.532 186.178,164 188.5,164 C191.333,164 192,164.381 192,166 C192,167.619 192.667,168 195.5,168 C198.333,168 199,168.381 199,170 C199,171.1 199.655,172 200.455,172 C201.325,172 202.173,173.405 202.566,175.5 C202.927,177.425 203.785,179 204.472,179 C205.962,179 206.983,186.315 206.983,197 C206.983,207.616 205.96,215 204.491,215 C203.768,215 203.044,216.92 202.736,219.651 C202.42,222.449 201.572,224.66 200.606,225.201 C199.615,225.755 199,227.421 199,229.55 C199,231.95 198.544,233 197.5,233 C196.452,233 196,234.056 196,236.5 C196,239.333 195.619,240 194,240 C192.381,240 192,240.667 192,243.5 C192,246.333 191.619,247 190,247 C188.667,247 188,247.667 188,249 C188,250.111 187.333,251 186.5,251 C185.675,251 185,251.717 185,252.594 C185,253.47 184.1,254.423 183,254.71 C181.9,254.998 181,255.856 181,256.617 C181,257.531 179.813,258 177.5,258 C174.667,258 174,258.381 174,260 C174,261.758 173.333,262 168.5,262 C164.278,262 163,262.348 163,263.5 C163,264.548 161.944,265 159.5,265 C157.056,265 156,264.548 156,263.5 C156,262.477 154.966,261.996 152.75,261.986 C148,261.966 145,260.959 145,259.383 C145,258.308 147.004,258 154,258 C161.302,258 163,257.719 163,256.512 C163,255.549 164.412,254.798 167,254.384 C169.274,254.02 171,253.187 171,252.452 C171,251.741 172.35,250.862 174,250.5 C175.65,250.138 177,249.202 177,248.421 C177,247.639 177.9,247 179,247 C180.619,247 181,246.333 181,243.5 C181,240.667 181.381,240 183,240 C184.333,240 185,239.333 185,238 C185,236.889 185.667,236 186.5,236 C187.466,236 188.005,235.022 188.014,233.25 C188.035,228.968 189.101,226 190.617,226 C191.564,226 192,224.739 192,222 C192,219.273 192.438,218 193.375,218 C194.746,218 196,213.88 196,209.375 C196,207.931 196.588,207 197.5,207 C198.738,207 199,205.167 199,196.5 C199,188.207 198.708,186 197.611,186 C196.816,186 195.942,184.505 195.566,182.5 C195.173,180.405 194.325,179 193.455,179 C192.655,179 192,178.1 192,177 C192,175.381 191.333,175 188.5,175 C186.18,175 185,174.532 185,173.611 C185,172.816 183.505,171.942 181.5,171.566 C179.405,171.173 178,170.325 178,169.455 C178,168.236 175.084,168 160,168 C145.394,168 142,168.259 142,169.375 C142,171.06 137.658,172 129.875,172 C125.319,172 124,172.337 124,173.5 C124,174.648 122.735,175 118.617,175 C114.074,175 113.152,175.312 112.71,177 C112.249,178.763 111.346,179 105.094,179 C99.455,179 98,179.308 98,180.5 C98,181.575 96.903,182 94.125,182 C88.228,182 84,183.096 84,184.625 C84,185.521 82.821,186 80.617,186 C78.074,186 77.103,186.497 76.71,188 C76.335,189.435 75.346,190 73.21,190 C71.074,190 70.086,190.565 69.71,192 C69.423,193.1 68.47,194 67.594,194 C66.299,194 66,195.219 66,200.5 C66,205.339 65.65,207 64.629,207 C63.696,207 63.042,208.915 62.58,213 C62.097,217.263 61.481,219 60.45,219 C59.377,219 59,220.298 59,224 C59,228.333 58.733,229 57,229 C55.242,229 55,229.667 55,234.5 C55,238.722 54.652,240 53.5,240 C52.667,240 52,240.889 52,242 C52,243.333 51.333,244 50,244 C48.889,244 48,244.667 48,245.5 C48,246.325 47.377,247 46.617,247 C45.041,247 44.034,244 44.014,239.25 C44.003,236.662 44.407,236 46,236 C47.758,236 48,235.333 48,230.5 C48,226.484 48.373,225 49.383,225 C50.959,225 51.966,222 51.986,217.25 C51.995,215.16 52.493,214 53.38,214 C54.354,214 54.89,212.204 55.202,207.889 C55.516,203.539 56.127,201.509 57.322,200.84 C58.387,200.244 59,198.64 59,196.45 C59,193.637 58.621,193 56.948,193 C55.1,193 54.926,192.476 55.198,187.75 C55.49,182.668 55.6,182.49 58.649,182.194 C61.36,181.931 61.888,181.409 62.444,178.444 C62.829,176.393 63.679,175 64.545,175 C65.68,175 66,173.459 66,168 C66,162.727 66.339,161 67.375,161 C68.948,161 70,156.741 70,150.375 C70,147.153 70.395,146 71.5,146 C72.714,146 73,144.402 73,137.617 C73,130.074 73.201,129.181 75,128.71 C76.67,128.274 77,127.346 77,123.094 C77,118.667 76.738,118 75,118 C73.889,118 73,118.667 73,119.5 C73,120.633 71.778,121 68,121 L63,121 L63,117.5 C63,115.056 63.452,114 64.5,114 C65.333,114 66,113.111 66,112 C66,110.381 66.667,110 69.5,110 C71.944,110 73,109.548 73,108.5 C73,107.445 74.066,107 76.594,107 C79.346,107 80.31,106.532 80.71,105 C80.998,103.9 81.856,103 82.617,103 C83.661,103 84,101.31 84,96.111 L84,89.223 L80.573,88.58 C78.688,88.226 76.998,87.493 76.817,86.95 C76.636,86.408 74.128,85.684 71.244,85.342 C66.082,84.731 66,84.669 66,81.361 C66,78.667 66.397,78 68,78 C69.111,78 70,77.333 70,76.5 C70,75.675 70.675,75 71.5,75 C72.325,75 73,75.675 73,76.5 C73,77.722 74.667,78 82,78 L91,78 L91,72.5 C91,67.667 91.242,67 93,67 C94.733,67 95,66.333 95,62 C95,58.222 95.367,57 96.5,57 C97.523,57 98.004,55.966 98.014,53.75 C98.034,49 99.041,46 100.617,46 C101.377,46 102,45.1 102,44 C102,42.9 102.625,42 103.389,42 C104.184,42 105.058,40.505 105.434,38.5 C106.014,35.409 106.447,35 109.139,35 C111.386,35 112.33,34.453 112.731,32.919 Z M120,133.488 C120,134.451 118.588,135.202 116,135.616 C113.587,136.002 112,136.8 112,137.628 C112,138.455 110.907,139.005 109.25,139.014 C104.968,139.035 102,140.101 102,141.617 C102,142.706 99.792,143 91.625,143 L81.25,143 L80.625,146.125 C80.281,147.844 80,150.319 80,151.625 C80,153.069 79.412,154 78.5,154 C77.31,154 77,155.444 77,161 C77,166.556 76.69,168 75.5,168 C74.675,168 74,168.675 74,169.5 C74,170.325 74.675,171 75.5,171 C76.325,171 77,170.325 77,169.5 C77,168.452 78.056,168 80.5,168 C83.333,168 84,167.619 84,166 C84,164.667 84.667,164 86,164 C87.111,164 88,163.333 88,162.5 C88,161.452 89.056,161 91.5,161 C94.333,161 95,160.619 95,159 C95,157.667 95.667,157 97,157 C98.1,157 99,156.361 99,155.579 C99,154.798 100.35,153.862 102,153.5 C103.65,153.138 105,152.202 105,151.421 C105,150.639 105.9,150 107,150 C108.163,150 109,149.333 109,148.406 C109,147.53 109.9,146.577 111,146.29 C112.1,146.002 113,145.144 113,144.383 C113,143.469 114.187,143 116.5,143 C119.333,143 120,142.619 120,141 C120,139.667 120.667,139 122,139 C123.333,139 124,138.333 124,137 C124,135.889 124.667,135 125.5,135 C126.325,135 127,134.325 127,133.5 C127,132.452 125.944,132 123.5,132 C121.068,132 120,132.454 120,133.488 Z M221,187.5 C221,184.451 223.792,186.077 224.434,189.5 C224.827,191.595 225.675,193 226.545,193 C227.345,193 228,193.9 228,195 C228,196.333 228.667,197 230,197 C231.333,197 232,197.667 232,199 C232,200.111 232.667,201 233.5,201 C234.51,201 235,202.01 235,204.094 C235,206.346 235.544,207.329 237,207.71 C238.1,207.998 239,208.856 239,209.617 C239,210.377 239.625,211 240.389,211 C241.184,211 242.058,212.495 242.434,214.5 C242.827,216.595 243.675,218 244.545,218 C245.345,218 246,218.9 246,220 C246,221.111 246.667,222 247.5,222 C248.325,222 249,222.619 249,223.375 C249,224.746 253.12,226 257.625,226 C259.069,226 260,226.588 260,227.5 C260,228.325 259.325,229 258.5,229 C257.667,229 257,229.889 257,231 C257,232.721 256.338,232.998 252.25,232.986 C245.079,232.966 243.198,232.179 242.478,228.898 C242.128,227.304 241.202,226 240.421,226 C239.639,226 239,225.1 239,224 C239,222.667 238.333,222 237,222 C235.667,222 235,221.333 235,220 C235,218.889 234.333,218 233.5,218 C232.675,218 232,217.325 232,216.5 C232,215.667 231.111,215 230,215 C228.381,215 228,214.333 228,211.5 C228,208.964 227.561,208 226.406,208 C225.53,208 224.577,207.1 224.29,206 C224.002,204.9 223.144,204 222.383,204 C221.623,204 221,203.377 221,202.617 C221,201.856 220.1,200.998 219,200.71 C217.301,200.266 217,199.346 217,194.594 C217,189.667 217.238,189 219,189 C220.111,189 221,188.333 221,187.5 Z M94.75,110.728 C92.335,110.981 91,111.633 91,112.56 C91,113.352 90.325,114 89.5,114 C88.452,114 88,115.056 88,117.5 C88,120.333 87.619,121 86,121 C84.242,121 84,121.667 84,126.5 L84,132 L89,132 C92.576,132 94,131.608 94,130.625 C94,129.196 98.159,128 103.125,128 C104.911,128 106,127.474 106,126.611 C106,125.816 107.495,124.942 109.5,124.566 C111.595,124.173 113,123.325 113,122.455 C113,121.655 113.675,121 114.5,121 C115.325,121 116,120.283 116,119.406 C116,118.53 116.9,117.577 118,117.29 C119.503,116.897 120,115.926 120,113.383 L120,110 L109.25,110.168 C103.338,110.261 96.813,110.513 94.75,110.728 Z M163,195 C163,193.242 163.667,193 168.5,193 L174,193 L174,204 C174,212.699 174.289,215 175.383,215 C176.144,215 176.998,215.884 177.281,216.965 C177.735,218.701 178.39,218.86 182.897,218.326 C187.632,217.765 188,217.876 188,219.861 C188,221.096 187.366,222 186.5,222 C185.452,222 185,223.056 185,225.5 L185,229 L179.5,229 C175.474,229 174,228.628 174,227.611 C174,226.816 172.505,225.942 170.5,225.566 C167.53,225.009 166.998,224.5 166.986,222.205 C166.965,217.965 165.894,215 164.383,215 C163.373,215 163,213.516 163,209.5 C163,205.278 162.652,204 161.5,204 C160.452,204 160,202.944 160,200.5 C160,198.056 160.452,197 161.5,197 C162.333,197 163,196.111 163,195 Z M70,205.594 C70,204.439 70.964,204 73.5,204 C75.813,204 77,204.469 77,205.383 C77,206.144 77.9,207.002 79,207.29 C80.532,207.69 81,208.654 81,211.406 C81,213.934 81.445,215 82.5,215 C83.548,215 84,216.056 84,218.5 C84,220.896 84.459,222 85.455,222 C86.325,222 87.173,223.405 87.566,225.5 L88.223,229 L102,229 L102,233 C102,236.905 101.917,237 98.5,237 C96.056,237 95,237.452 95,238.5 C95,239.333 94.111,240 93,240 C91.9,240 91,239.345 91,238.545 C91,237.675 89.595,236.827 87.5,236.434 C85.575,236.073 84,235.205 84,234.505 C84,233.806 83.1,232.998 82,232.71 C80.544,232.329 80,231.346 80,229.094 C80,226.93 79.521,226 78.406,226 C77.53,226 76.577,225.1 76.29,224 C76.002,222.9 75.144,222 74.383,222 C73.623,222 73,221.1 73,220 C73,218.9 72.345,218 71.545,218 C70.675,218 69.827,216.595 69.434,214.5 C69.058,212.495 68.184,211 67.389,211 C65.245,211 65.747,208.299 68,207.71 C69.1,207.423 70,206.47 70,205.594 Z M127.014,205.25 L127,197 L138,197 L138,207.5 C138,215.876 138.286,218 139.412,218 C140.28,218 141.085,219.541 141.5,222 L142.176,226 L152,226 L152,229.5 C152,232.833 151.833,233 148.5,233 C146.056,233 145,233.452 145,234.5 C145,235.333 144.111,236 143,236 C141.9,236 141,235.361 141,234.579 C141,233.798 139.679,232.869 138.065,232.514 C135.861,232.03 134.97,231.139 134.486,228.935 C134.131,227.321 133.202,226 132.421,226 C131.43,226 131,224.789 131,222 C131,219.261 130.564,218 129.617,218 C127.682,218 127.029,214.804 127.014,205.25 Z"/>
</svg>

