<svg xmlns="http://www.w3.org/2000/svg" width="300" height="300" viewBox="0 0 300 300" version="1.1">
  <defs/>
  <path d="M184,85.729 C184.825,85.415 189.438,85.122 194.25,85.079 C201.071,85.017 203,85.305 203,86.383 C203,87.144 203.9,88.002 205,88.29 C208.654,89.245 207.337,98.448 203.406,99.434 C200.156,100.25 196,99.103 196,97.392 C196,96.287 193.73,96 185,96 L174,96 L174,99.5 C174,102.81 173.817,103 170.617,103 C166.41,103 166.398,103.055 166.826,121.75 L167.151,136 L172.576,136 C177.333,136 178,135.754 178,134 C178,132.889 178.667,132 179.5,132 C180.333,132 181,132.889 181,134 C181,136.199 181.314,136.287 185.875,135.375 C187.594,135.031 189,134.131 189,133.375 C189,132.392 190.424,132 194,132 C198.333,132 199,131.733 199,130 C199,128.381 199.667,128 202.5,128 C204.82,128 206,127.532 206,126.611 C206,125.823 207.473,124.946 209.403,124.584 C211.275,124.233 213.061,123.283 213.372,122.473 C213.722,121.56 215.281,121 217.469,121 L221,121 L221,84.895 L226.171,85.198 C231.558,85.513 233.99,87.667 230.105,88.683 C228.222,89.175 228,89.959 228,96.117 C228,101.29 228.342,103 229.375,103 C231.322,103 232,107.554 232,120.625 C232,129.656 232.286,132 233.387,132 C234.456,132 234.862,134.411 235.164,142.553 C235.456,150.451 235.925,153.335 237.027,154.015 C238.135,154.699 238.585,157.536 238.841,165.462 C239.108,173.699 239.49,176 240.591,176 C241.587,176 242,177.275 242,180.349 C242,190.435 243.288,200 244.647,200 C245.722,200 246,202.977 246,214.5 C246,226.136 246.272,229 247.375,229 C249.464,229 250.001,233.693 249.991,251.875 C249.981,271.692 249.272,279 247.361,279 C246.381,279 246,280.511 246,284.389 C246,289.755 245.986,289.78 242.5,290.434 C240.405,290.827 239,291.675 239,292.545 C239,293.541 237.896,294 235.5,294 C233.18,294 232,293.532 232,292.611 C232,291.816 230.505,290.942 228.5,290.566 C226.405,290.173 225,289.325 225,288.455 C225,287.655 224.1,287 223,287 C221.667,287 221,286.333 221,285 C221,283.667 220.333,283 219,283 C217.667,283 217,282.333 217,281 C217,279.9 216.361,279 215.579,279 C214.798,279 213.862,277.65 213.5,276 C213.138,274.35 212.202,273 211.421,273 C210.639,273 210,272.1 210,271 C210,269.667 209.333,269 208,269 C206.667,269 206,268.333 206,267 C206,265.083 205.333,265 190,265 C176.444,265 174,264.771 174,263.5 C174,262.667 173.111,262 172,262 C170.889,262 170,262.667 170,263.5 C170,264.325 169.325,265 168.5,265 C167.279,265 167,266.653 167,273.875 L167,282.75 L163.897,283.371 C160.38,284.074 159,283.53 159,281.441 C159,280.648 158.325,280 157.5,280 C156.667,280 156,279.111 156,278 C156,276.889 156.667,276 157.5,276 C158.722,276 159,274.333 159,267 C159,259.667 158.722,258 157.5,258 C156.667,258 156,257.111 156,256 C156,254.667 155.333,254 154,254 C152.889,254 152,253.333 152,252.5 C152,251.675 151.325,251 150.5,251 C149.667,251 149,250.111 149,249 C149,247.267 149.667,247 154,247 L159,247 L159,242 C159,238.222 158.633,237 157.5,237 C156.417,237 156,235.889 156,233 C156,229.151 155.877,229.001 152.75,229.014 C148,229.034 145,230.041 145,231.617 C145,232.377 144.1,233 143,233 C141.9,233 141,233.639 141,234.421 C141,235.202 139.65,236.138 138,236.5 C136.35,236.862 135,237.798 135,238.579 C135,239.361 134.1,240 133,240 C131.889,240 131,240.667 131,241.5 C131,242.325 130.283,243 129.406,243 C128.53,243 127.577,243.9 127.29,245 C127,246.107 125.926,247 124.883,247 C123.848,247 123,247.675 123,248.5 C123,249.325 122.325,250 121.5,250 C120.667,250 120,250.889 120,252 C120,253.163 119.333,254 118.406,254 C117.53,254 116.577,254.9 116.29,256 C116.002,257.1 115.144,258 114.383,258 C113.623,258 113,258.9 113,260 C113,261.333 112.333,262 111,262 C109.9,262 109,262.623 109,263.383 C109,264.144 108.1,265.002 107,265.29 C105.9,265.577 105,266.53 105,267.406 C105,268.283 104.325,269 103.5,269 C102.348,269 102,267.722 102,263.5 C102,259.484 102.373,258 103.383,258 C104.144,258 105.002,257.1 105.29,256 C105.577,254.9 106.53,254 107.406,254 C108.336,254 109,253.162 109,251.99 C109,250.885 109.9,249.21 111,248.268 C112.1,247.326 113,245.981 113,245.278 C113,244.575 113.717,244 114.594,244 C115.47,244 116.423,243.1 116.71,242 C116.998,240.9 117.856,240 118.617,240 C119.377,240 120,239.345 120,238.545 C120,237.675 121.405,236.827 123.5,236.434 C125.425,236.073 127,235.189 127,234.47 C127,233.752 127.283,232.425 127.63,231.522 C128.066,230.386 127.605,229.709 126.13,229.324 C124.958,229.017 124,228.194 124,227.495 C124,226.795 122.442,225.93 120.538,225.573 C117.564,225.015 116.985,224.436 116.427,221.462 C116.056,219.486 115.181,218 114.389,218 C113.503,218 113,216.879 113,214.906 C113,212.654 112.456,211.671 111,211.29 C109.497,210.897 109,209.926 109,207.383 C109,205.169 108.522,204 107.616,204 C106.652,204 106.023,202.038 105.54,197.528 C104.812,190.731 105.213,189 107.513,189 C108.54,189 108.987,187.217 109.204,182.25 L109.5,175.5 L112.75,175.187 C114.655,175.003 116,174.315 116,173.525 C116,172.73 117.645,171.898 120,171.5 C122.459,171.085 124,170.28 124,169.412 C124,168.301 125.916,168 133,168 C139.97,168 142,167.69 142,166.625 C142,164.587 146.637,164 162.719,164 C176.346,164 177.218,164.116 177.71,166 C177.998,167.1 178.856,168 179.617,168 C180.377,168 181,168.675 181,169.5 C181,170.325 180.325,171 179.5,171 C178.667,171 178,171.889 178,173 C178,174.512 178.671,175.003 180.75,175.014 C185.866,175.039 187.86,176.088 188.522,179.102 C188.872,180.696 189.798,182 190.579,182 C191.649,182 192,183.482 192,188 C192,192.416 191.638,194 190.629,194 C189.739,194 189.025,195.754 188.594,199 C188.14,202.424 187.469,204 186.466,204 C185.457,204 185,205.092 185,207.5 C185,210.333 184.619,211 183,211 C181.393,211 181,211.667 181,214.389 C181,217.47 180.682,217.837 177.5,218.434 C175.405,218.827 174,219.675 174,220.545 C174,221.541 172.896,222 170.5,222 L167,222 L167,236.5 C167,250.333 167.092,251 169,251 C170.111,251 171,251.667 171,252.5 C171,253.727 172.708,254 180.375,254 C191.511,254 196,254.754 196,256.625 C196,257.381 196.675,258 197.5,258 C199.137,258 199.466,256.061 199.072,248.75 C198.844,244.516 199.043,244 200.908,244 C202.632,244 203,244.615 203,247.5 C203,249.896 203.459,251 204.455,251 C205.325,251 206.173,252.405 206.566,254.5 C207.163,257.682 207.53,258 210.611,258 L214,258 L214,263.5 C214,268.926 214.04,269 216.955,269 C219.54,269 219.992,269.438 220.566,272.5 C221.163,275.682 221.53,276 224.611,276 C227.333,276 228,276.393 228,278 C228,279.761 228.667,280 233.585,280 L239.169,280 L238.835,247.963 C238.551,220.813 238.271,215.784 237,215 C235.829,214.277 235.423,211.325 235.147,201.537 C234.885,192.213 234.467,189 233.517,189 C232.606,189 232.033,185.981 231.523,178.5 C230.977,170.493 230.474,168 229.404,168 C228.288,168 228,165.847 228,157.5 C228,149.258 227.704,147 226.625,147 C224.908,147 224,142.634 224,134.375 C224,128.084 223.964,128 221.25,128.014 C216.968,128.035 214,129.101 214,130.617 C214,131.522 212.831,132 210.617,132 C208.074,132 207.103,132.497 206.71,134 C206.31,135.532 205.346,136 202.594,136 C200.194,136 199,136.461 199,137.389 C199,138.184 197.505,139.058 195.5,139.434 C193.405,139.827 192,140.675 192,141.545 C192,142.541 190.896,143 188.5,143 C186.197,143 185,143.47 185,144.375 C185,145.746 180.88,147 176.375,147 C174.931,147 174,147.588 174,148.5 C174,149.69 172.556,150 167,150 L160,150 L160,145.147 C160,135.846 158.791,128 157.358,128 C156.279,128 156,125.125 156,114 C156,102.222 155.762,100 154.5,100 C153.675,100 153,100.675 153,101.5 C153,102.325 152.122,103 151.05,103 C149.977,103 148.627,103.787 148.05,104.75 C147.05,106.417 146.95,106.417 145.95,104.75 C145.373,103.787 144.248,103 143.45,103 C142.459,103 142,101.891 142,99.5 C142,96.667 142.381,96 144,96 C145.1,96 146,95.361 146,94.579 C146,93.798 147.35,92.862 149,92.5 C150.65,92.138 152,91.244 152,90.514 C152,89.489 155.298,89.11 166.537,88.844 C175.646,88.628 181.341,88.089 181.787,87.4 C182.179,86.795 183.175,86.043 184,85.729 Z M141.5,13 C142.123,10.162 142.425,10 147.079,10 L152,10 L152,13.5 C152,15.944 151.548,17 150.5,17 C149.675,17 149,17.717 149,18.594 C149,19.47 148.1,20.423 147,20.71 C145.497,21.103 145,22.074 145,24.617 C145,26.957 144.538,28 143.5,28 C142.534,28 141.995,28.978 141.986,30.75 C141.979,32.263 141.701,34.513 141.37,35.75 L140.767,38 L155.883,38 C168.654,38 171,37.767 171,36.5 C171,35.262 172.833,35 181.5,35 C190.059,35 192,35.271 192,36.466 C192,37.646 194.1,37.988 202.75,38.216 L213.5,38.5 L213.81,42.25 C214.013,44.703 214.619,46 215.56,46 C216.352,46 217,46.675 217,47.5 C217,48.325 216.375,49 215.611,49 C214.816,49 213.942,50.495 213.566,52.5 C213.173,54.595 212.325,56 211.455,56 C210.655,56 210,56.9 210,58 C210,59.333 209.333,60 208,60 C206.9,60 206,60.655 206,61.455 C206,62.325 204.595,63.173 202.5,63.566 C200.495,63.942 199,64.816 199,65.611 C199,66.375 198.325,67 197.5,67 C196.452,67 196,65.944 196,63.5 C196,61.056 196.452,60 197.5,60 C198.333,60 199,59.111 199,58 C199,56.667 199.667,56 201,56 C202.111,56 203,55.333 203,54.5 C203,53.675 203.675,53 204.5,53 C205.333,53 206,52.111 206,51 C206,49.242 205.333,49 200.5,49 C196.278,49 195,48.652 195,47.5 C195,46.229 192.556,46 179,46 C165.444,46 163,46.229 163,47.5 C163,48.753 160.944,49 150.5,49 L138,49 L138,53 C138,55.722 137.562,57 136.629,57 C135.739,57 135.025,58.754 134.594,62 C134.14,65.424 133.469,67 132.466,67 C131.007,67 130.913,66.428 130.544,55.286 C130.383,50.421 129.278,48.753 127.875,51.258 C127.046,52.741 125.344,53 116.45,53 L106,53 L106,58 C106,61.778 106.367,63 107.5,63 C108.333,63 109,63.889 109,65 C109,66.353 109.667,67 111.06,67 C112.83,67 113.077,67.53 112.81,70.75 C112.525,74.193 112.228,74.526 109.174,74.819 C106.506,75.075 105.742,74.729 105.308,73.069 C105.01,71.931 104.144,71 103.383,71 C102.478,71 102,69.831 102,67.617 C102,65.074 101.503,64.103 100,63.71 C98.468,63.31 98,62.346 98,59.592 L98,55.997 L90.25,56.403 C85.987,56.627 81.263,56.852 79.75,56.905 C78.015,56.965 77,57.553 77,58.5 C77,59.538 75.957,60 73.617,60 C71.074,60 70.103,60.497 69.71,62 C69.31,63.532 68.346,64 65.594,64 C63.066,64 62,64.445 62,65.5 C62,66.633 60.778,67 57,67 L52,67 L52,62.079 C52,57.425 52.162,57.123 55,56.5 C56.65,56.138 58,55.259 58,54.548 C58,53.813 59.726,52.98 62,52.616 C64.588,52.202 66,51.451 66,50.488 C66,49.265 67.87,49 76.5,49 C84.971,49 87,48.722 87,47.56 C87,46.619 88.297,46.013 90.75,45.81 L94.5,45.5 L94.784,34.75 L95.068,24 L106.201,24 L105.974,32.75 C105.754,41.287 105.611,43.885 106.735,44.669 C107.294,45.059 108.167,45 109.5,45 C111.944,45 113,44.548 113,43.5 C113,42.286 114.598,42 121.383,42 C130.562,42 130.952,41.706 130.986,34.75 C130.995,32.978 131.534,32 132.5,32 C133.655,32 134,30.712 134,26.406 C134,21.654 134.301,20.734 136,20.29 C137.107,20 138,18.926 138,17.883 C138,16.848 138.639,16 139.421,16 C140.202,16 141.138,14.65 141.5,13 Z M64.25,117.696 C69.173,116.726 69.484,117.122 69.794,124.761 C70.019,130.298 70.43,132 71.544,132 C72.679,132 73,133.532 73,138.95 C73,144.513 73.347,146.095 74.739,146.874 C76.113,147.643 76.555,149.543 76.845,155.924 C77.169,163.054 77.434,164 79.106,164 C80.148,164 81,163.361 81,162.579 C81,161.798 82.35,160.862 84,160.5 C85.65,160.138 87,159.202 87,158.421 C87,157.639 87.9,157 89,157 C90.1,157 91,156.375 91,155.611 C91,154.816 92.495,153.942 94.5,153.566 C96.595,153.173 98,152.325 98,151.455 C98,150.468 99.089,150 101.383,150 C103.926,150 104.897,149.503 105.29,148 C105.726,146.33 106.654,146 110.906,146 C115.333,146 116,146.262 116,148 C116,149.556 115.333,150 113,150 C110.922,150 110,150.49 110,151.594 C110,152.47 109.1,153.423 108,153.71 C106.9,153.998 106,154.806 106,155.505 C106,156.205 104.425,157.073 102.5,157.434 C100.405,157.827 99,158.675 99,159.545 C99,160.345 98.1,161 97,161 C95.9,161 95,161.623 95,162.383 C95,163.144 94.1,164.002 93,164.29 C91.9,164.577 91,165.53 91,166.406 C91,167.333 90.163,168 89,168 C87.9,168 87,168.655 87,169.455 C87,170.335 85.569,171.178 83.377,171.589 L79.753,172.269 L80.368,177.384 C80.706,180.198 80.987,184.188 80.991,186.25 C80.997,188.913 81.435,190 82.5,190 C83.801,190 84,194.056 84,220.5 C84,247.741 84.17,251 85.594,251 C86.47,251 87.423,250.1 87.71,249 C87.998,247.9 88.856,247 89.617,247 C90.377,247 91,246.325 91,245.5 C91,244.452 92.056,244 94.5,244 C96.944,244 98,244.452 98,245.5 C98,246.325 97.325,247 96.5,247 C95.462,247 95,248.043 95,250.383 C95,252.926 94.503,253.897 93,254.29 C91.544,254.671 91,255.654 91,257.906 C91,260.07 90.521,261 89.406,261 C88.53,261 87.577,261.9 87.29,263 C87.002,264.1 86.144,265 85.383,265 C84.623,265 84,265.639 84,266.421 C84,268.095 78.917,269.426 76.025,268.508 C74.914,268.155 73.724,266.75 73.382,265.386 C72.56,262.112 73.776,254.759 75.297,253.807 C76.85,252.835 76.518,222.938 74.944,221.965 C74.29,221.561 73.667,212.596 73.29,198.158 C72.835,180.707 72.38,175 71.445,175 C70.641,175 69.955,172.531 69.5,168 C68.998,163.005 68.396,161 67.399,161 C66.299,161 66,158.971 66,151.5 C66,144.143 65.692,142 64.636,142 C62.991,142 62,135.769 62,125.43 C62,118.667 62.163,118.107 64.25,117.696 Z M98,97.5 C98,96.244 100.111,96 111,96 C121.402,96 124,96.276 124,97.383 C124,98.144 124.9,99.002 126,99.29 C127.1,99.577 128,100.53 128,101.406 C128,102.283 128.675,103 129.5,103 C130.652,103 131,104.278 131,108.5 C131,112.722 131.348,114 132.5,114 C133.738,114 134,115.833 134,124.5 C134,133.167 133.738,135 132.5,135 C131.352,135 131,136.265 131,140.383 C131,144.926 130.688,145.848 129,146.29 C127.9,146.577 127,147.53 127,148.406 C127,151.034 124.272,150.203 123.739,147.413 C122.834,142.681 124.15,132 125.637,132 C126.528,132 127,130.788 127,128.5 C127,126.056 126.548,125 125.5,125 C124.379,125 123.997,123.799 123.986,120.25 C123.969,114.077 123.103,111 121.383,111 C120.623,111 120,110.1 120,109 C120,107.092 119.333,107 105.5,107 C93.278,107 91,107.236 91,108.5 C91,109.548 89.944,110 87.5,110 C84.667,110 84,110.381 84,112 C84,113.619 83.333,114 80.5,114 L77,114 L77,108.5 C77,103.667 77.242,103 79,103 C80.1,103 81,102.386 81,101.636 C81,100.205 87.007,99 94.14,99 C96.904,99 98,98.574 98,97.5 Z M136.75,193.689 C135.787,193.941 135,194.789 135,195.573 C135,196.571 133.798,197 131,197 C127.667,197 127,197.333 127,199 C127,200.111 126.333,201 125.5,201 C124.675,201 124,201.675 124,202.5 C124,203.333 123.111,204 122,204 C120.889,204 120,204.667 120,205.5 C120,206.325 120.675,207 121.5,207 C122.523,207 123.004,208.034 123.014,210.25 C123.04,216.514 123.923,218 127.617,218 C130.698,218 131,217.736 131,215.045 C131,212.46 131.438,212.008 134.5,211.434 C137.033,210.959 138,210.255 138,208.889 C138,207.667 138.706,207 140,207 C141.111,207 142,206.333 142,205.5 C142,204.452 143.056,204 145.5,204 C148.833,204 149,203.833 149,200.5 C149,198.056 149.452,197 150.5,197 C152.854,197 152.253,194.301 149.75,193.63 C147.228,192.954 139.427,192.99 136.75,193.689 Z M102,116 C102,114.192 102.667,114 108.955,114 L115.909,114 L116.566,117.5 C116.942,119.505 117.816,121 118.611,121 C119.565,121 120,122.254 120,125 C120,127.834 119.576,129 118.545,129 C117.675,129 116.827,130.405 116.434,132.5 C116.058,134.505 115.184,136 114.389,136 C113.625,136 113,136.675 113,137.5 C113,138.364 112.097,139 110.87,139 C108.933,139 108.786,138.587 109.253,134.446 C109.563,131.7 110.473,129.374 111.546,128.59 C113.734,126.99 112.784,123.485 110.41,124.396 C109.544,124.728 107.298,125 105.418,125 C102.178,125 102,125.183 102,128.5 C102,131.333 101.619,132 100,132 C98.889,132 98,132.667 98,133.5 C98,134.325 97.325,135 96.5,135 C95.321,135 95,133.611 95,128.5 C95,123.219 95.299,122 96.594,122 C97.47,122 98.423,121.1 98.71,120 C98.998,118.9 99.856,118 100.617,118 C101.377,118 102,117.1 102,116 Z M137,175.726 C136.175,176.038 135.14,176.902 134.7,177.647 C134.199,178.494 132.052,179 128.95,179 C125.309,179 124,179.381 124,180.44 C124,181.376 122.712,181.988 120.317,182.19 L116.634,182.5 L116.567,191.484 C116.509,199.275 116.732,200.512 118.25,200.807 C119.645,201.078 120,200.445 120,197.69 C120,195.074 120.487,194.106 122,193.71 C123.1,193.423 124,192.491 124,191.639 C124,190.661 125.29,189.849 127.5,189.434 C129.505,189.058 131,188.184 131,187.389 C131,186.468 132.18,186 134.5,186 C136.803,186 138,185.53 138,184.625 C138,183.254 142.12,182 146.625,182 C148.673,182 149,181.518 149,178.5 L149,175 L143.75,175.079 C140.863,175.122 137.825,175.413 137,175.726 Z M160,191.5 C160,195.722 160.348,197 161.5,197 C162.333,197 163,196.111 163,195 C163,193.148 163.667,193 172,193 L181,193 L181,186 L160,186 Z M170,202.5 C170,203.548 168.944,204 166.5,204 L163,204 L163,215 L166.5,215 C169.333,215 170,214.619 170,213 C170,211.667 170.667,211 172,211 C173.1,211 174,210.377 174,209.617 C174,208.856 174.9,207.998 176,207.71 C177.456,207.329 178,206.346 178,204.094 C178,201.151 177.805,201 174,201 C171.111,201 170,201.417 170,202.5 Z M196,109.375 C196,107.931 196.588,107 197.5,107 C198.325,107 199,107.675 199,108.5 C199,109.333 199.889,110 201,110 C202.606,110 203,110.667 203,113.383 C203,115.926 202.503,116.897 201,117.29 C199.9,117.577 199,118.477 199,119.29 C199,120.102 198.1,121.002 197,121.29 C195.9,121.577 195,122.53 195,123.406 C195,125.156 194.583,125.263 191.25,124.37 C188.725,123.693 188.189,122 190.5,122 C191.333,122 192,121.111 192,120 C192,118.9 192.619,118 193.375,118 C194.746,118 196,113.88 196,109.375 Z M156,173.5 C156,174.325 156.623,175 157.383,175 C158.144,175 159.001,175.897 159.288,176.994 C159.749,178.758 160.369,178.915 164.655,178.353 C167.32,178.004 169.576,177.668 169.669,177.607 C169.762,177.546 170.148,176.259 170.527,174.748 L171.217,172 L163.608,172 C157.512,172 156,172.298 156,173.5 Z M146.75,211.689 C144.106,212.38 144.329,218 147,218 C148.111,218 149,217.333 149,216.5 C149,215.675 149.675,215 150.5,215 C151.333,215 152,214.111 152,213 C152,211.013 150.638,210.673 146.75,211.689 Z M181,120 C181,118.667 181.667,118 183,118 C184.619,118 185,118.667 185,121.5 C185,125.113 184.393,125.48 180.25,124.37 C177.725,123.693 177.189,122 179.5,122 C180.333,122 181,121.111 181,120 Z M185,115.5 C185,114.452 186.056,114 188.5,114 C190.944,114 192,114.452 192,115.5 C192,116.548 190.944,117 188.5,117 C186.056,117 185,116.548 185,115.5 Z"/>
</svg>

