<svg xmlns="http://www.w3.org/2000/svg" width="300" height="300" viewBox="0 0 300 300" version="1.1">
  <defs/>
  <path d="M136.25,80.81 C137.488,80.629 139.625,80.54 141,80.612 C142.375,80.683 144.738,80.8 146.25,80.871 C147.97,80.952 149,81.562 149,82.5 C149,83.69 150.444,84 156,84 C162.333,84 163,84.19 163,86 C163,87.333 163.667,88 165,88 C166.111,88 167,88.667 167,89.5 C167,90.325 167.563,91.008 168.25,91.017 C170.012,91.042 174,95.462 174,97.391 C174,98.276 174.536,98.887 175.191,98.75 C175.845,98.612 176.538,99.4 176.73,100.5 C177.634,105.692 178.125,107.041 178.928,106.544 C179.406,106.249 180.111,109.124 180.493,112.933 C180.934,117.324 181.687,120.05 182.55,120.381 C183.485,120.74 184.003,123.186 184.205,128.201 C184.415,133.386 184.862,135.428 185.75,135.25 C186.71,135.058 187,138.833 187,151.5 C187,166.542 187.155,168.001 188.75,168.015 C190.09,168.027 190.188,168.229 189.166,168.876 C188.092,169.557 188.141,169.84 189.416,170.329 C190.746,170.84 191.002,172.989 191.015,183.719 C191.024,191.198 191.386,195.94 191.887,195.149 C192.465,194.236 192.969,195.308 193.441,198.457 C193.826,201.02 194.739,203.346 195.471,203.627 C196.204,203.908 197.03,205.007 197.308,206.069 C197.609,207.223 198.679,208 199.965,208 C201.149,208 201.84,208.45 201.5,209 C200.902,209.967 201.675,210.15 207.917,210.525 C210.483,210.679 210.909,210.298 211.462,207.35 C212.002,204.472 212.496,204 214.966,204 C217.31,204 217.956,204.524 218.463,206.832 C218.805,208.39 218.971,211.362 218.831,213.437 C218.553,217.561 216.511,219 210.935,219 C209.321,219 208,219.45 208,220 C208,220.57 205.039,221 201.117,221 C194.964,221 194.175,220.777 193.684,218.899 C193.379,217.733 192.657,217.094 192.06,217.463 C191.469,217.828 190.692,217.311 190.333,216.313 C189.974,215.316 188.852,213.695 187.84,212.711 C186.828,211.727 186,210.088 186,209.068 C186,208.048 185.42,206.992 184.712,206.72 C184.004,206.448 183.323,204.487 183.199,202.363 C182.728,194.249 181.106,190.676 179.635,194.509 C179.316,195.339 178.706,195.925 178.278,195.811 C176.876,195.437 173,197.113 173,198.092 C173,198.619 171.875,199.477 170.5,200 C169.125,200.523 168,201.412 168,201.975 C168,202.539 166.65,203 165,203 C162.978,203 162,203.497 162,204.525 C162,205.363 160.875,206.477 159.5,207 C158.125,207.523 157,208.412 157,208.975 C157,209.539 155.608,210 153.906,210 C151.654,210 150.671,210.544 150.29,212 C149.857,213.656 148.926,214 144.883,214 C141.139,214 140,214.362 140,215.55 C140,216.805 138.906,217.043 134.25,216.8 C130.304,216.594 128.578,216.108 128.75,215.25 C128.924,214.38 127.404,213.99 123.75,213.968 C118.511,213.936 113.507,211.758 116.197,210.68 C116.914,210.393 116.037,210.122 114.25,210.079 C111.976,210.024 111,209.521 111,208.406 C111,207.53 110.1,206.577 109,206.29 C107.9,206.002 107,205.144 107,204.383 C107,203.623 106.325,203 105.5,203 C104.675,203 104,202.122 104,201.05 C104,199.977 103.292,198.703 102.428,198.219 C101.542,197.724 100.604,195.408 100.281,192.92 C99.965,190.489 99.097,188.14 98.353,187.7 C96.765,186.762 96.507,180 98.059,180 C98.641,180 98.84,179.55 98.5,179 C98.16,178.45 98.331,178 98.88,178 C99.428,178 100.179,175.991 100.547,173.536 C100.915,171.081 101.683,169.168 102.252,169.286 C102.822,169.404 103.687,168.037 104.173,166.25 C104.661,164.456 105.717,163 106.529,163 C107.338,163 108,162.325 108,161.5 C108,160.675 108.717,160 109.594,160 C110.47,160 111.423,159.1 111.71,158 C111.998,156.9 112.856,156 113.617,156 C114.377,156 115,155.409 115,154.687 C115,153.964 116.556,152.763 118.458,152.016 C120.36,151.27 122.164,150.014 122.467,149.226 C122.769,148.438 123.688,148.05 124.508,148.365 C125.519,148.753 126,148.303 126,146.969 C126,145.667 126.677,145 128,145 C129.1,145 130,144.377 130,143.617 C130,142.856 130.9,141.998 132,141.71 C133.1,141.423 134,140.47 134,139.594 C134,138.504 134.912,138 136.883,138 C138.926,138 139.919,137.417 140.29,136 C140.69,134.468 141.654,134 144.406,134 C146.934,134 148,133.555 148,132.5 C148,131.244 150.107,131 160.962,131 L173.925,131 L173.299,124.25 C172.955,120.537 172.12,117.05 171.443,116.5 C170.767,115.95 169.919,113.402 169.559,110.839 C169.17,108.07 168.289,105.941 167.389,105.596 C166.555,105.276 166.12,104.615 166.421,104.128 C167.118,103 162.176,98 160.364,98 C159.614,98 159,97.325 159,96.5 C159,95.348 157.721,95 153.49,95 C149.218,95 147.596,94.551 146.268,93 C144.125,90.497 134.603,90.099 133.284,92.457 C132.729,93.449 129.841,94.133 124.234,94.601 C118.307,95.095 116,95.668 116,96.644 C116,97.531 114.702,98.026 112.25,98.077 C106.824,98.187 104.589,98.734 104.147,100.059 C103.872,100.883 103.504,100.825 102.894,99.863 C102.218,98.796 102.027,98.88 102.015,100.25 C102.004,101.569 101.166,102 98.617,102 C95.016,102 94.043,103.509 94.014,109.139 C94.002,111.35 94.549,111.88 97.388,112.413 C100.056,112.913 100.89,113.628 101.311,115.774 C101.959,119.075 100.771,120.543 98.317,119.474 C97.318,119.039 96.182,118.748 95.793,118.827 C95.404,118.907 94.791,117.403 94.431,115.486 C93.818,112.214 93.538,112 89.889,112 C87.75,112 85.695,112.112 85.322,112.25 C84.191,112.667 83.065,106.927 83.676,103.868 C83.992,102.291 84.869,101 85.625,101 C86.381,101 87,100.325 87,99.5 C87,98.675 87.659,98 88.465,98 C89.27,98 90.411,97.1 91,96 C91.589,94.9 92.73,94 93.535,94 C94.341,94 95.007,93.213 95.015,92.25 C95.028,90.754 95.172,90.718 96,92 C96.568,92.878 96.976,93.012 96.985,92.322 C96.993,91.645 99.381,90.846 102.602,90.444 C106.006,90.019 107.701,89.433 106.921,88.951 C105.593,88.13 109.168,87.267 116,86.76 C118.165,86.599 119.405,86.023 119.25,85.25 C119.068,84.339 121.033,84 126.5,84 C132.338,84 134,83.683 134,82.57 C134,81.783 135.012,80.991 136.25,80.81 Z M146.25,141.706 C145.012,141.944 144,142.783 144,143.57 C144,144.356 143.1,145 142,145 C140.768,145 139.994,145.672 139.985,146.75 C139.973,148.09 139.771,148.188 139.124,147.166 C138.443,146.092 138.16,146.141 137.671,147.416 C137.336,148.287 136.149,149 135.031,149 C133.892,149 133,149.659 133,150.5 C133,151.325 132.325,152 131.5,152 C130.667,152 130,152.889 130,154 C130,155.333 129.333,156 128,156 C126.889,156 126,156.667 126,157.5 C126,158.325 125.283,159 124.406,159 C123.53,159 122.577,159.9 122.29,161 C122.002,162.1 120.989,163 120.038,163 C118.171,163 115.679,165.443 114.683,168.25 C114.342,169.213 113.619,170 113.077,170 C112.534,170 111.795,171.575 111.434,173.5 C111.058,175.505 110.184,177 109.389,177 C108.372,177 108,178.474 108,182.5 C108,186.171 108.389,187.917 109.168,187.75 C109.811,187.613 110.756,189.188 111.268,191.25 C111.78,193.313 112.604,195 113.099,195 C113.595,195 114,195.717 114,196.594 C114,197.47 114.9,198.423 116,198.71 C117.1,198.998 118,199.898 118,200.71 C118,201.523 118.869,202.414 119.931,202.692 C120.993,202.97 122.104,203.828 122.399,204.599 C123.216,206.725 143,206.631 143,204.5 C143,203.417 144.111,203 147,203 C149.834,203 151,202.576 151,201.545 C151,200.675 152.405,199.827 154.5,199.434 C156.505,199.058 158,198.184 158,197.389 C158,196.625 158.9,196 160,196 C161.333,196 162,195.333 162,194 C162,192.9 162.338,192.053 162.75,192.118 C165.862,192.61 169,191.797 169,190.5 C169,189.675 169.69,189 170.532,189 C171.375,189 172.439,187.988 172.897,186.75 C173.355,185.512 174.015,184.613 174.365,184.75 C175.969,185.381 177,184.869 177,183.441 C177,182.584 177.437,182.152 177.971,182.482 C179.454,183.399 180.258,178.693 179.532,173.34 C178.875,168.494 177.813,167.043 174.901,167.015 C173.582,167.003 173.193,165.213 172.681,156.807 C172.216,149.17 171.676,146.398 170.53,145.757 C169.689,145.286 169,144.3 169,143.567 C169,142.833 167.988,141.962 166.75,141.63 C164.272,140.966 149.814,141.019 146.25,141.706 Z M175.079,129.583 C175.127,130.748 175.364,130.985 175.683,130.188 C175.972,129.466 175.936,128.603 175.604,128.271 C175.272,127.939 175.036,128.529 175.079,129.583 Z"/>
</svg>

