<svg xmlns="http://www.w3.org/2000/svg" width="300" height="300" viewBox="0 0 300 300" version="1.1">
  <defs/>
  <path d="M123,72.421 C123,71.43 124.211,71 127,71 L131,71 L131,76.094 C131,80.346 130.67,81.274 129,81.71 C125.544,82.614 126.632,85 130.5,85 C133.333,85 134,85.381 134,87 C134,88.333 134.667,89 136,89 C137.873,89 138,89.667 138,99.5 L138,110 L145.094,110 C151.346,110 152.249,110.237 152.71,112 C152.998,113.1 153.856,114 154.617,114 C155.377,114 156,114.623 156,115.383 C156,116.144 156.9,117.002 158,117.29 C159.456,117.671 160,118.654 160,120.906 C160,122.99 160.49,124 161.5,124 C162.583,124 163,125.111 163,128 C163,131.333 163.333,132 165,132 C166.1,132 167,132.625 167,133.389 C167,134.184 168.495,135.058 170.5,135.434 C174.009,136.092 175.563,139 172.406,139 C171.53,139 170.577,139.9 170.29,141 C170.002,142.1 169.144,143 168.383,143 C167.308,143 167,145.004 167,152 C167,158.996 166.692,161 165.617,161 C164.331,161 163.045,163.84 163.014,166.75 C163.006,167.438 163.9,168 165,168 C166.822,168 167,168.667 167,175.5 C167,181.5 167.3,183 168.5,183 C169.325,183 170,183.675 170,184.5 C170,185.652 171.278,186 175.5,186 C179.722,186 181,186.348 181,187.5 C181,188.348 181.896,189 183.06,189 C184.83,189 185.077,189.53 184.81,192.75 L184.5,196.5 L177.75,196.796 C172.958,197.006 171,197.476 171,198.418 C171,199.192 169.335,200.011 167,200.384 C164.412,200.798 163,201.549 163,202.512 C163,203.546 161.932,204 159.5,204 C157.104,204 156,204.459 156,205.455 C156,206.325 154.595,207.173 152.5,207.566 C149.555,208.118 148.998,208.641 148.986,210.861 C148.965,215.04 147.885,218 146.383,218 C145.487,218 145.005,219.143 145.014,221.25 C145.039,227.165 145.982,229 149,229 C150.926,229 151.926,229.608 152.29,231 C152.577,232.1 153.53,233 154.406,233 C155.283,233 156,233.675 156,234.5 C156,235.333 156.889,236 158,236 C159.333,236 160,236.667 160,238 C160,239.619 160.667,240 163.5,240 C166.333,240 167,240.381 167,242 C167,243.111 167.667,244 168.5,244 C169.325,244 170,244.675 170,245.5 C170,246.333 170.889,247 172,247 C173.333,247 174,247.667 174,249 C174,250.758 174.667,251 179.5,251 L185,251 L185,258 L176,258 C167.667,258 167,257.852 167,256 C167,254.667 166.333,254 165,254 C163.889,254 163,253.333 163,252.5 C163,251.675 162.377,251 161.617,251 C160.856,251 159.998,250.1 159.71,249 C159.423,247.9 158.47,247 157.594,247 C156.717,247 156,246.375 156,245.611 C156,244.816 154.505,243.942 152.5,243.566 C150.405,243.173 149,242.325 149,241.455 C149,240.655 148.1,240 147,240 C145.889,240 145,239.333 145,238.5 C145,237.675 144.377,237 143.617,237 C142.101,237 141.035,239.968 141.014,244.25 C141.005,246.022 140.466,247 139.5,247 C138.258,247 138,248.889 138,258 C138,268.333 137.879,269 136,269 C134.889,269 134,269.667 134,270.5 C134,272.649 131.326,272.356 130.748,270.144 C130.481,269.123 130.491,261.923 130.771,254.144 C131.167,243.134 131.581,240 132.64,240 C133.632,240 134,238.412 134,234.125 C134,226.342 134.94,222 136.625,222 C137.53,222 138,220.803 138,218.5 C138,216.056 137.548,215 136.5,215 C135.675,215 135,215.675 135,216.5 C135,217.356 134.101,218 132.906,218 C131.654,218 130.603,218.803 130.29,220 C129.919,221.417 128.926,222 126.883,222 C125.067,222 124,222.522 124,223.412 C124,224.28 122.459,225.085 120,225.5 C117.541,225.915 116,226.72 116,227.588 C116,228.67 114.362,229 109,229 L102,229 L102,225.5 C102,223.187 102.469,222 103.383,222 C104.144,222 105.002,221.1 105.29,220 C105.69,218.468 106.654,218 109.406,218 C111.934,218 113,217.555 113,216.5 C113,215.452 114.056,215 116.5,215 C119.333,215 120,214.619 120,213 C120,211.381 120.667,211 123.5,211 C125.944,211 127,210.548 127,209.5 C127,208.445 128.066,208 130.594,208 C133.346,208 134.31,207.532 134.71,206 C134.998,204.9 135.856,204 136.617,204 C137.692,204 138,201.996 138,195 C138,187.667 137.722,186 136.5,186 C135.675,186 135,186.717 135,187.594 C135,188.47 134.1,189.423 133,189.71 C131.9,189.998 131,190.856 131,191.617 C131,192.627 129.516,193 125.5,193 L120,193 L120,189.5 C120,186.167 119.833,186 116.5,186 C113.19,186 113,185.817 113,182.617 C113,180.074 112.503,179.103 111,178.71 C109.139,178.224 109,177.346 109,166.094 C109,156.01 108.751,154 107.5,154 C106.373,154 106,152.795 106,149.151 C106,138.607 104.738,129 103.353,129 C102.441,129 102,127.696 102,125 C102,122.166 102.424,121 103.455,121 C104.325,121 105.173,119.595 105.566,117.5 L106.223,114 L113.111,114 C118.31,114 120,113.661 120,112.617 C120,111.106 122.965,110.035 127.205,110.014 C129.5,110.002 130.009,109.47 130.566,106.5 C130.927,104.575 130.927,101.425 130.566,99.5 C129.92,96.059 129.825,96 124.955,96 C121.286,96 120,96.378 120,97.455 C120,98.325 118.595,99.173 116.5,99.566 C114.495,99.942 113,100.816 113,101.611 C113,102.375 112.1,103 111,103 C109.667,103 109,103.667 109,105 C109,106.1 108.377,107 107.617,107 C106.856,107 105.998,107.9 105.71,109 C105.329,110.456 104.346,111 102.094,111 C100.01,111 99,111.49 99,112.5 C99,113.333 98.111,114 97,114 C95.381,114 95,114.667 95,117.5 C95,120.333 94.619,121 93,121 C91.667,121 91,121.667 91,123 C91,124.111 90.333,125 89.5,125 C88.452,125 88,126.056 88,128.5 C88,131.333 87.619,132 86,132 C84.667,132 84,132.667 84,134 C84,135.1 83.345,136 82.545,136 C81.675,136 80.827,137.405 80.434,139.5 C80.058,141.505 79.184,143 78.389,143 C77.625,143 77,143.9 77,145 C77,146.1 76.345,147 75.545,147 C74.675,147 73.827,148.405 73.434,150.5 C73.058,152.505 72.184,154 71.389,154 C70.625,154 70,154.675 70,155.5 C70,156.333 69.111,157 68,157 C66.394,157 66,157.667 66,160.383 C66,162.926 65.503,163.897 64,164.29 C62.9,164.577 62,165.53 62,166.406 C62,167.283 61.325,168 60.5,168 C59.667,168 59,168.889 59,170 C59,171.333 58.333,172 57,172 C55.667,172 55,172.667 55,174 C55,175.1 54.361,176 53.579,176 C52.798,176 51.862,177.35 51.5,179 C51.138,180.65 50.202,182 49.421,182 C48.639,182 48,182.9 48,184 C48,185.111 47.333,186 46.5,186 C45.675,186 45,186.717 45,187.594 C45,188.47 44.1,189.423 43,189.71 C41.608,190.074 41,191.074 41,193 C41,194.926 40.392,195.926 39,196.29 C37.9,196.577 37,197.53 37,198.406 C37,199.561 36.036,200 33.5,200 C30.167,200 30,199.833 30,196.5 C30,194.18 30.468,193 31.389,193 C32.184,193 33.058,191.505 33.434,189.5 C33.918,186.918 34.603,186 36.045,186 C37.12,186 38,185.373 38,184.607 C38,183.841 38.675,182.955 39.5,182.638 C40.325,182.322 41,181.374 41,180.531 C41,179.689 41.675,179 42.5,179 C43.333,179 44,178.111 44,177 C44,175.667 44.667,175 46,175 C47.619,175 48,174.333 48,171.5 C48,168.667 48.381,168 50,168 C51.111,168 52,167.333 52,166.5 C52,165.675 52.675,165 53.5,165 C54.325,165 55,164.152 55,163.117 C55,162.074 55.893,161 57,160.71 C58.456,160.329 59,159.346 59,157.094 C59,155.01 59.49,154 60.5,154 C61.333,154 62,153.111 62,152 C62,150.667 62.667,150 64,150 C65.619,150 66,149.333 66,146.5 C66,143.964 66.439,143 67.594,143 C68.47,143 69.423,142.1 69.71,141 C69.998,139.9 70.856,139 71.617,139 C72.377,139 73,138.1 73,137 C73,135.9 73.623,135 74.383,135 C75.899,135 76.965,132.032 76.986,127.75 C76.995,125.978 77.534,125 78.5,125 C79.333,125 80,124.111 80,123 C80,121.667 80.667,121 82,121 C83.619,121 84,120.333 84,117.5 C84,114.667 84.381,114 86,114 C87.333,114 88,113.333 88,112 C88,110.889 88.667,110 89.5,110 C90.325,110 91.008,109.438 91.017,108.75 C91.038,107.283 95.33,103 96.78,103 C97.328,103 98.073,101.425 98.434,99.5 C99.008,96.438 99.46,96 102.045,96 C104.333,96 105,95.549 105,94 C105,92.667 105.667,92 107,92 C108.333,92 109,91.333 109,90 C109,88.9 109.639,88 110.421,88 C111.202,88 112.138,86.65 112.5,85 C112.862,83.35 113.748,82 114.468,82 C115.188,82 116.067,80.458 116.42,78.572 C116.94,75.804 117.634,75.02 120.032,74.493 C121.664,74.134 123,73.202 123,72.421 Z M239,144.5 C239,143.236 241.278,143 253.5,143 C265.722,143 268,143.236 268,144.5 C268,145.325 268.675,146 269.5,146 C270.333,146 271,146.889 271,148 C271,149.1 270.377,150 269.617,150 C268.856,150 267.998,150.9 267.71,152 C267.236,153.815 266.346,154 258.094,154 C251.057,154 249,154.31 249,155.371 C249,156.261 247.246,156.975 244,157.406 L239,158.069 L239,175.534 C239,190.393 239.224,193 240.5,193 C241.565,193 242.003,194.087 242.009,196.75 C242.026,204.378 243.249,211 244.639,211 C245.666,211 246,212.841 246,218.5 C246,224.219 246.329,226 247.383,226 C249.103,226 249.969,229.077 249.986,235.25 C249.997,238.799 250.379,240 251.5,240 C252.722,240 253,241.667 253,249 C253,257.333 253.148,258 255,258 C256.916,258 257,258.667 257,273.883 C257,288.926 256.894,289.794 255,290.29 C253.468,290.69 253,291.654 253,294.406 C253,297.847 252.851,298 249.5,298 C247.575,298 246,298.45 246,299 C246,299.55 244.425,300 242.5,300 C240.575,300 239,299.6 239,299.111 C239,298.623 237.458,297.933 235.572,297.58 C232.825,297.064 232.018,296.36 231.507,294.033 C231.03,291.862 230.13,290.968 227.935,290.486 C226.321,290.131 225,289.202 225,288.421 C225,287.639 224.1,287 223,287 C221.667,287 221,286.333 221,285 C221,283.667 220.333,283 219,283 C217.667,283 217,282.333 217,281 C217,279.9 216.361,279 215.579,279 C214.798,279 213.862,277.65 213.5,276 C213.138,274.35 212.202,273 211.421,273 C210.572,273 210,271.993 210,270.5 C210,269.038 209.426,268 208.617,268 C207.101,268 206.035,265.032 206.014,260.75 C206.005,258.978 205.466,258 204.5,258 C203.31,258 203,256.556 203,251 C203,245.444 203.31,244 204.5,244 C205.466,244 206.005,244.978 206.014,246.75 C206.035,251.032 207.101,254 208.617,254 C209.564,254 210,255.261 210,258 C210,260.789 210.43,262 211.421,262 C212.202,262 213.138,263.35 213.5,265 C213.862,266.65 214.798,268 215.579,268 C216.361,268 217,268.9 217,270 C217,271.333 217.667,272 219,272 C220.333,272 221,272.667 221,274 C221,275.333 221.667,276 223,276 C224.111,276 225,276.667 225,277.5 C225,278.325 225.675,279 226.5,279 C227.333,279 228,279.889 228,281 C228,282.333 228.667,283 230,283 C231.333,283 232,283.667 232,285 C232,286.619 232.667,287 235.5,287 C237.944,287 239,287.452 239,288.5 C239,289.548 240.056,290 242.5,290 L246,290 L246,270 C246,253.263 245.765,250 244.561,250 C243.511,250 242.934,248.105 242.431,243 C241.946,238.073 241.336,236 240.371,236 C239.34,236 239,234.262 239,229 C239,222.667 238.81,222 237,222 C235.148,222 235,221.333 235,213 C235,205.877 234.703,204 233.575,204 C232.5,204 231.978,201.793 231.446,195 C230.929,188.385 230.379,186 229.371,186 C228.273,186 228,183.116 228,171.5 L228,157 L222.5,157 C217.667,157 217,157.242 217,159 C217,160.758 216.333,161 211.5,161 C207.528,161 206,161.378 206,162.361 C206,163.85 199.255,164.976 190.25,164.991 C186.254,164.998 185,165.358 185,166.5 C185,168.726 182.316,168.318 181.71,166 C181.423,164.9 180.47,164 179.594,164 C178.495,164 178,163.082 178,161.045 C178,158.46 178.438,158.008 181.5,157.434 C183.425,157.073 185,156.215 185,155.528 C185,154.258 191.97,153.026 199.25,153.009 C201.913,153.003 203,152.565 203,151.5 C203,150.278 204.667,150 212,150 C218.996,150 221,149.692 221,148.617 C221,146.759 224.152,146.03 232.25,146.014 C237.577,146.003 239,145.684 239,144.5 Z M170,0.889 C170,0.4 170.9,0 172,0 C173.733,0 174,0.667 174,5 C174,9.333 173.733,10 172,10 C170.667,10 170,10.667 170,12 C170,13.111 169.333,14 168.5,14 C167.321,14 167,15.389 167,20.5 L167,27 L174,27 C179.556,27 181,26.69 181,25.5 C181,24.667 181.889,24 183,24 C184.111,24 185,24.667 185,25.5 C185,26.779 187.708,27 203.375,27 C213.481,27 223.156,27.281 224.875,27.625 C228.003,28.251 229.327,31 226.5,31 C225.445,31 225,32.066 225,34.594 C225,37.346 224.532,38.31 223,38.71 C221.9,38.998 221,39.856 221,40.617 C221,41.377 220.1,42 219,42 C217.63,42 217,42.667 217,44.117 C217,45.824 216.565,46.117 214.75,45.63 C213.512,45.299 211.938,45.021 211.25,45.014 C210.418,45.005 210,43.326 210,40 C210,35.667 209.733,35 208,35 C206.889,35 206,35.667 206,36.5 C206,37.548 204.944,38 202.5,38 C200.056,38 199,37.548 199,36.5 C199,35.675 198.325,35 197.5,35 C196.675,35 196,35.675 196,36.5 C196,37.333 195.111,38 194,38 C192.889,38 192,37.333 192,36.5 C192,35.247 189.944,35 179.5,35 C169.056,35 167,35.247 167,36.5 C167,37.333 166.111,38 165,38 C163.333,38 163,38.667 163,42 C163,44.825 162.575,46 161.552,46 C160.511,46 160.02,47.472 159.802,51.241 C159.569,55.291 159.103,56.557 157.75,56.814 C156.182,57.112 156,56.151 156,47.573 L156,38 L147.647,38 C135.085,38 127,39.035 127,40.642 C127,41.621 125.466,42 121.5,42 L116,42 L116.014,46.75 C116.031,52.923 116.897,56 118.617,56 C119.377,56 120,56.9 120,58 C120,59.758 120.667,60 125.5,60 C130.333,60 131,60.242 131,62 C131,63.111 130.333,64 129.5,64 C128.675,64 128,64.675 128,65.5 C128,66.667 126.667,67 122,67 C117.333,67 116,66.667 116,65.5 C116,64.675 115.325,64 114.5,64 C113.667,64 113,63.111 113,62 C113,60.667 112.333,60 111,60 C109.381,60 109,59.333 109,56.5 C109,54.18 108.532,53 107.611,53 C106.816,53 105.942,51.505 105.566,49.5 C104.911,46.008 104.897,46 99.455,46 C95.484,46 94,46.375 94,47.38 C94,48.354 92.204,48.89 87.889,49.202 C83.539,49.516 81.509,50.127 80.84,51.322 C80.244,52.387 78.64,53 76.45,53 C73.603,53 73,53.37 73,55.117 C73,56.824 72.565,57.117 70.75,56.63 C69.513,56.299 67.938,56.021 67.25,56.014 C66.563,56.006 66,55.325 66,54.5 C66,53.675 66.625,53 67.389,53 C68.184,53 69.058,51.505 69.434,49.5 C69.827,47.405 70.675,46 71.545,46 C72.345,46 73,45.1 73,44 C73,42.194 73.667,42 79.883,42 C85.926,42 86.831,41.756 87.29,40 C87.726,38.33 88.654,38 92.906,38 C96.767,38 98,37.637 98,36.5 C98,35.667 98.889,35 100,35 C101.806,35 102,34.333 102,28.117 C102,20.526 102.461,20.044 109.75,20.014 L113,20 L113,31 L122,31 C129.333,31 131,30.722 131,29.5 C131,28.273 132.708,28 140.375,28 C145.531,28 151.156,27.719 152.875,27.375 C155.634,26.823 156,26.355 156,23.375 C156,21.042 156.463,20 157.5,20 C158.412,20 159,19.069 159,17.625 C159,13.12 160.254,9 161.625,9 C162.481,9 163,7.886 163,6.045 C163,3.46 163.438,3.008 166.5,2.434 C168.425,2.073 170,1.377 170,0.889 Z M69,163 C69,161.333 69.667,161 73,161 L77,161 L77,171.5 C77,180.167 77.262,182 78.5,182 C79.72,182 80,183.649 80,190.84 C80,195.702 80.296,207.177 80.657,216.34 C81.168,229.29 81.613,233 82.657,233 C83.396,233 84,233.675 84,234.5 C84,235.325 84.675,236 85.5,236 C86.548,236 87,237.056 87,239.5 C87,241.944 86.548,243 85.5,243 C84.667,243 84,243.889 84,245 C84,246.129 83.333,247 82.469,247 C81.626,247 80.678,247.675 80.362,248.5 C80.045,249.325 79.159,250 78.393,250 C77.627,250 77,249.325 77,248.5 C77,247.675 76.381,247 75.625,247 C73.503,247 73,242.28 73,222.375 C73,206.708 72.779,204 71.5,204 C70.276,204 69.998,202.301 69.989,194.75 C69.975,183.2 69.162,178 67.369,178 C66.616,178 66,177.55 66,177 C66,176.45 66.675,176 67.5,176 C68.583,176 69,174.889 69,172 C69,169.111 68.583,168 67.5,168 C66.675,168 66,167.325 66,166.5 C66,165.675 66.675,165 67.5,165 C68.333,165 69,164.111 69,163 Z M70,94.5 C70,93.675 70.675,93 71.5,93 C72.629,93 73,94.209 73,97.883 C73,101.926 72.656,102.857 71,103.29 C69.9,103.577 69,104.53 69,105.406 C69,106.283 68.325,107 67.5,107 C66.667,107 66,107.889 66,109 C66,110.1 65.377,111 64.617,111 C63.101,111 62.035,113.968 62.014,118.25 C62.005,120.022 61.466,121 60.5,121 C59.452,121 59,122.056 59,124.5 C59,127.333 58.619,128 57,128 C55.381,128 55,128.667 55,131.5 C55,133.944 54.548,135 53.5,135 C52.667,135 52,135.889 52,137 C52,138.333 51.333,139 50,139 C48.333,139 48,139.667 48,143 C48,145.789 47.57,147 46.579,147 C45.798,147 44.862,148.35 44.5,150 C44.138,151.65 43.202,153 42.421,153 C41.43,153 41,154.211 41,157 C41,160.333 40.667,161 39,161 C37.381,161 37,161.667 37,164.5 C37,167.333 36.619,168 35,168 C33.889,168 33,168.667 33,169.5 C33,170.325 32.325,171 31.5,171 C30.323,171 30,169.624 30,164.617 C30,159.074 30.263,158.164 32,157.71 C33.532,157.31 34,156.346 34,153.594 C34,151.194 34.461,150 35.389,150 C36.184,150 37.058,148.505 37.434,146.5 C37.827,144.405 38.675,143 39.545,143 C40.541,143 41,141.896 41,139.5 C41,137.18 41.468,136 42.389,136 C43.184,136 44.058,134.505 44.434,132.5 C44.827,130.405 45.675,129 46.545,129 C47.576,129 48,127.834 48,125 C48,122.166 48.424,121 49.455,121 C50.325,121 51.173,119.595 51.566,117.5 C51.942,115.495 52.816,114 53.611,114 C54.565,114 55,112.745 55,109.99 C55,107.218 55.617,105.452 57,104.268 C58.1,103.326 59,101.981 59,101.278 C59,100.575 59.675,100 60.5,100 C61.333,100 62,99.111 62,98 C62,96.333 62.667,96 66,96 C68.889,96 70,95.583 70,94.5 Z M231.638,105.5 C232.307,103.758 234.664,103.492 235.199,105.098 C235.4,105.701 238.569,106.437 242.241,106.731 L248.918,107.267 L249.562,111.563 C250.262,116.232 249.679,118 247.441,118 C246.648,118 246,118.675 246,119.5 C246,122.587 243.081,120.95 242.434,117.5 L241.777,114 L233.389,114 C226.938,114 225,114.318 225,115.375 C225,116.948 220.741,118 214.375,118 C211.336,118 210,118.419 210,119.371 C210,120.336 207.927,120.946 203,121.431 C197.895,121.934 196,122.511 196,123.561 C196,124.535 194.885,125 192.545,125 C189.389,125 189.034,125.302 188.434,128.5 C188.073,130.425 187.205,132 186.505,132 C185.806,132 184.998,132.9 184.71,134 C184.423,135.1 183.653,136 183,136 C182.347,136 181.577,135.1 181.29,134 C181.002,132.9 180.144,132 179.383,132 C178.469,132 178,130.813 178,128.5 C178,126.056 178.452,125 179.5,125 C180.548,125 181,123.944 181,121.5 C181,118.482 181.327,118 183.375,118 C187.88,118 192,116.746 192,115.375 C192,114.375 193.5,114 197.5,114 C202.333,114 203,113.758 203,112 C203,110.242 203.667,110 208.5,110 C212.722,110 214,109.652 214,108.5 C214,107.284 215.615,107 222.531,107 C229.192,107 231.189,106.671 231.638,105.5 Z M153,144.412 C153,145.28 151.459,146.085 149,146.5 C146.541,146.915 145,147.72 145,148.588 C145,149.535 143.848,150 141.5,150 C138.167,150 138,150.167 138,153.5 C138,155.785 137.528,157 136.639,157 C135.249,157 134.026,163.622 134.009,171.25 C134,174.96 134.043,175 138,175 C140.739,175 142,174.564 142,173.617 C142,172.101 144.968,171.035 149.25,171.014 C151.022,171.005 152,170.466 152,169.5 C152,168.667 152.889,168 154,168 C155.667,168 156,167.333 156,164 C156,161.111 156.417,160 157.5,160 C158.69,160 159,158.556 159,153 C159,147.444 158.69,146 157.5,146 C156.675,146 156,145.325 156,144.5 C156,143.675 155.325,143 154.5,143 C153.675,143 153,143.635 153,144.412 Z M138,119.5 C138,120.684 136.577,121.003 131.25,121.014 C123.152,121.03 120,121.759 120,123.617 C120,124.531 118.813,125 116.5,125 L113,125 L113,132 C113,137.556 113.31,139 114.5,139 C115.543,139 116,140.049 116,142.441 C116,144.334 116.404,146.132 116.897,146.437 C118.47,147.409 124,145.804 124,144.375 C124,143.47 125.197,143 127.5,143 C130.833,143 131,142.833 131,139.5 C131,137.056 131.452,136 132.5,136 C133.555,136 134,134.934 134,132.406 C134,129.654 134.468,128.69 136,128.29 C137.1,128.002 138,127.144 138,126.383 C138,125.623 138.9,125 140,125 C142.09,125 142.376,124.007 141.37,120.25 C140.699,117.747 138,117.146 138,119.5 Z M154.25,182.685 C153.012,182.935 152,183.783 152,184.57 C152,185.356 151.325,186 150.5,186 C149.588,186 149,186.931 149,188.375 C149,189.681 148.719,192.156 148.375,193.875 C147.756,196.971 147.788,197 151.875,197 C155.333,197 156,196.677 156,195 C156,193.242 156.667,193 161.5,193 C166.333,193 167,192.758 167,191 C167,189.889 167.667,189 168.5,189 C169.325,189 170,188.325 170,187.5 C170,186.452 168.944,186 166.5,186 C164.056,186 163,185.548 163,184.5 C163,183.675 162.438,182.994 161.75,182.986 C161.063,182.979 159.6,182.806 158.5,182.602 C157.4,182.398 155.488,182.436 154.25,182.685 Z M120.75,160.728 C117.22,161.098 117,161.322 117,164.56 C117,166.951 117.457,168 118.5,168 C119.654,168 120,169.286 120,173.573 C120,178.341 120.253,179.099 121.75,178.814 C123.103,178.557 123.569,177.291 123.802,173.241 C124.02,169.472 124.511,168 125.552,168 C126.575,168 127,166.825 127,164 C127,161.377 126.57,160.058 125.75,160.168 C125.063,160.261 122.813,160.513 120.75,160.728 Z M145.29,130 C145.002,131.1 144.144,132 143.383,132 C142.469,132 142,133.187 142,135.5 C142,138.333 142.381,139 144,139 C145.111,139 146,138.333 146,137.5 Q146,136 149,136 C151.833,136 152,135.778 152,132 C152,128.195 151.849,128 148.906,128 C146.654,128 145.671,128.544 145.29,130 Z"/>
</svg>

