<svg xmlns="http://www.w3.org/2000/svg" width="300" height="300" viewBox="0 0 300 300" version="1.1">
  <defs/>
  <path d="M160,39 C160,37.889 160.667,37 161.5,37 C162.325,37 163,37.717 163,38.594 C163,39.47 163.9,40.423 165,40.71 C166.688,41.152 167,42.074 167,46.617 C167,50.735 166.648,52 165.5,52 C164.675,52 164,52.675 164,53.5 C164,54.633 165.222,55 169,55 C173.333,55 174,55.267 174,57 C174,58.607 174.667,59 177.389,59 C180.47,59 180.837,59.318 181.434,62.5 C181.827,64.595 182.675,66 183.545,66 C185.999,66 185.328,72.157 182.592,74.75 C179.338,77.835 178.332,77.585 177.566,73.5 C177.173,71.405 176.325,70 175.455,70 C174.655,70 174,69.1 174,68 C174,66.242 173.333,66 168.5,66 C164.278,66 163,66.348 163,67.5 C163,68.325 162.365,69 161.588,69 C160.72,69 159.915,70.541 159.5,73 C159.085,75.459 158.28,77 157.412,77 C156.384,77 156,78.361 156,82 C156,85.778 156.367,87 157.5,87 C158.325,87 159,86.325 159,85.5 C159,84.667 159.889,84 161,84 C162.111,84 163,84.667 163,85.5 C163,86.325 163.675,87 164.5,87 C165.325,87 166,86.325 166,85.5 C166,84.417 167.111,84 170,84 C172.739,84 174,84.436 174,85.383 C174,86.144 174.9,87.002 176,87.29 C177.1,87.577 178,88.53 178,89.406 C178,90.283 178.675,91 179.5,91 C180.722,91 181,92.667 181,100 C181,108.333 180.852,109 179,109 C177.889,109 177,108.333 177,107.5 C177,106.675 176.325,106 175.5,106 C174.348,106 174,104.722 174,100.5 L174,95 L156,95 L156,98.5 C156,101.333 155.619,102 154,102 C152.667,102 152,102.667 152,104 C152,105.111 151.333,106 150.5,106 C149.363,106 149,107.233 149,111.094 C149,115.346 148.67,116.274 147,116.71 C145.9,116.998 145,117.856 145,118.617 C145,119.736 148.027,120 160.883,120 C175.926,120 176.794,119.894 177.29,118 C177.764,116.185 178.654,116 186.906,116 C194.323,116 196,115.723 196,114.5 C196,113.675 196.675,113 197.5,113 C198.325,113 199,113.675 199,114.5 C199,115.325 199.675,116 200.5,116 C201.325,116 202,115.325 202,114.5 C202,113.278 203.667,113 211,113 C218.333,113 220,113.278 220,114.5 C220,115.7 221.5,116 227.5,116 C233.5,116 235,115.7 235,114.5 C235,113.675 235.675,113 236.5,113 C237.325,113 238,113.675 238,114.5 C238,115.325 238.873,116 239.941,116 C242.531,116 243.115,117.177 242.371,120.897 L241.75,124 L213.375,124 C190.159,124 185,124.247 185,125.356 C185,126.409 181.488,126.873 169.262,127.432 C160.606,127.828 153.26,128.579 152.937,129.102 C152.614,129.625 150.021,130.329 147.175,130.666 C143.595,131.09 142,131.727 142,132.733 C142,133.533 141.1,134.423 140,134.71 C138.344,135.143 138,136.074 138,140.117 C138,143.791 137.629,145 136.5,145 C135.675,145 135,145.717 135,146.594 C135,147.47 134.154,148.408 133.12,148.679 C131.735,149.041 131.106,150.372 130.726,153.736 C130.419,156.463 129.565,158.664 128.606,159.201 C127.723,159.695 127,160.977 127,162.05 C127,163.122 126.361,164 125.579,164 C124.798,164 123.862,165.35 123.5,167 C123.138,168.65 122.202,170 121.421,170 C120.639,170 120,170.9 120,172 C120,173.1 119.377,174 118.617,174 C117.331,174 116.045,176.84 116.014,179.75 C116.005,180.544 117.459,181 120,181 C123.333,181 124,181.333 124,183 C124,185.599 126.61,185.599 127.29,183 C127.762,181.196 128.654,181 136.406,181 C142.98,181 145,180.681 145,179.642 C145,178.612 147.889,178.114 156.938,177.585 C171.025,176.761 181,177.608 181,179.629 C181,180.506 182.171,181.005 184.25,181.014 C190.238,181.039 192,181.971 192,185.117 C192,187.333 192.462,188 194,188 C195.619,188 196,188.667 196,191.5 C196,193.944 196.452,195 197.5,195 C198.728,195 199,196.722 199,204.5 C199,212.278 198.728,214 197.5,214 C196.452,214 196,215.056 196,217.5 C196,220.333 195.619,221 194,221 C192.381,221 192,221.667 192,224.5 C192,226.82 191.532,228 190.611,228 C189.816,228 188.942,229.495 188.566,231.5 C188.173,233.595 187.325,235 186.455,235 C185.655,235 185,235.9 185,237 C185,238.333 184.333,239 183,239 C181.889,239 181,239.667 181,240.5 C181,241.325 180.352,242 179.559,242 C177.511,242 176.839,243.51 177.578,246.454 C178.105,248.556 178.808,249 181.608,249 C184.333,249 185,249.393 185,251 C185,252.1 185.648,253 186.441,253 C188.694,253 189.261,254.775 188.542,259.571 C188.019,263.058 187.465,264 185.939,264 C184.872,264 184,263.325 184,262.5 C184,261.675 183.325,261 182.5,261 C181.675,261 181,260.159 181,259.13 C181,257.647 180.039,257.152 176.349,256.736 C173.551,256.42 171.34,255.572 170.799,254.606 C169.586,252.437 156,252.233 156,254.383 C156,256.241 152.848,256.97 144.75,256.986 C139.73,256.996 138,257.349 138,258.361 C138,260.481 123.385,261.827 116.125,260.375 C113.366,259.823 113,259.355 113,256.375 C113,253.667 113.395,253 115,253 C116.1,253 117,252.388 117,251.639 C117,250.067 123.85,249.022 134.25,249.009 C139.579,249.002 141,248.684 141,247.5 C141,246.244 143.111,246 154,246 C164.402,246 167,245.724 167,244.617 C167,243.856 167.9,242.998 169,242.71 C170.1,242.423 171,241.47 171,240.594 C171,239.717 171.675,239 172.5,239 C173.333,239 174,238.111 174,237 C174,235.667 174.667,235 176,235 C177.111,235 178,234.333 178,233.5 C178,232.675 178.625,232 179.389,232 C180.177,232 181.054,230.527 181.416,228.597 C181.767,226.725 182.717,224.939 183.527,224.628 C184.337,224.317 185,223.149 185,222.031 C185,220.914 185.621,220 186.38,220 C187.351,220 187.888,218.225 188.194,214 C188.872,204.623 188.003,196 186.38,196 C185.621,196 185,195.1 185,194 C185,192.667 184.333,192 183,192 C181.667,192 181,191.333 181,190 C181,188.381 180.333,188 177.5,188 C175.056,188 174,187.548 174,186.5 C174,185.278 172.333,185 165,185 C157.667,185 156,185.278 156,186.5 C156,187.692 154.545,188 148.906,188 C142.654,188 141.751,188.237 141.29,190 C140.857,191.656 139.926,192 135.883,192 L131,192 L131,197.5 C131,202.333 130.758,203 129,203 C127.63,203 127,202.333 127,200.883 C127,199.176 126.565,198.883 124.75,199.37 C123.513,199.701 121.938,199.979 121.25,199.986 C119.251,200.008 119.807,201.716 122,202.29 C123.532,202.69 124,203.654 124,206.406 C124,208.934 124.445,210 125.5,210 C126.333,210 127,209.111 127,208 C127,206.381 127.667,206 130.5,206 C132.944,206 134,205.548 134,204.5 C134,203.278 135.661,203 142.95,203 C150.39,203 152.064,202.708 152.867,201.273 C154.063,199.137 161.673,198.853 162.937,200.898 C163.457,201.74 166.461,202.443 170.887,202.76 C175.983,203.124 178,203.656 178,204.634 C178,205.385 178.675,206 179.5,206 C180.652,206 181,207.278 181,211.5 C181,215.722 180.652,217 179.5,217 C178.445,217 178,218.066 178,220.594 C178,223.346 177.532,224.31 176,224.71 C174.9,224.998 174,225.856 174,226.617 C174,227.377 173.1,228 172,228 C170.561,228 170,227.333 170,225.625 C170,221.12 171.254,217 172.625,217 C173.53,217 174,215.803 174,213.5 L174,210 L159.5,210 C147.821,210 145,210.269 145,211.383 C145,212.959 142,213.966 137.25,213.986 C135.034,213.996 134,214.477 134,215.5 C134,216.325 133.325,217 132.5,217 C131.667,217 131,217.889 131,219 C131,220.619 130.333,221 127.5,221 L124,221 L124,235 L127.56,235 C131.063,235 131.116,235.061 130.81,238.75 L130.5,242.5 L125.25,242.802 C120.621,243.069 120,242.876 120,241.169 C120,240.074 119.131,239.006 118,238.71 C116.237,238.249 116,237.346 116,231.094 C116,225.455 115.692,224 114.5,224 C113.218,224 113,221.167 113,204.5 C113,185.667 112.932,185 111,185 C109.667,185 109,185.667 109,187 C109,188.1 108.345,189 107.545,189 C106.675,189 105.827,190.405 105.434,192.5 C105.058,194.505 104.184,196 103.389,196 C102.625,196 102,196.9 102,198 C102,199.1 101.361,200 100.579,200 C99.798,200 98.862,201.35 98.5,203 C98.122,204.722 97.196,206 96.327,206 C95.494,206 94.577,206.9 94.29,208 C94.002,209.1 93.144,210 92.383,210 C91.623,210 91,210.675 91,211.5 C91,212.325 90.283,213 89.406,213 C88.53,213 87.577,213.9 87.29,215 C87.002,216.1 86.144,217 85.383,217 C84.623,217 84,217.623 84,218.383 C84,219.144 83.1,220.002 82,220.29 C80.9,220.577 80,221.494 80,222.327 C80,223.196 78.722,224.122 77,224.5 C75.35,224.862 74,225.798 74,226.579 C74,227.361 73.1,228 72,228 C70.837,228 70,228.667 70,229.594 C70,230.47 69.1,231.423 68,231.71 C66.9,231.998 66,232.856 66,233.617 C66,234.522 64.83,235 62.611,235 C59.548,235 59.161,234.673 58.584,231.596 C57.738,227.088 58.922,220 60.521,220 C61.217,220 62.045,219.325 62.362,218.5 C63.213,216.281 66,216.664 66,219 C66,220.1 66.563,220.994 67.25,220.986 C70.16,220.955 73,219.669 73,218.383 C73,217.623 73.9,217 75,217 C76.333,217 77,216.333 77,215 C77,213.889 77.667,213 78.5,213 C79.325,213 80,212.325 80,211.5 C80,210.667 80.889,210 82,210 C83.333,210 84,209.333 84,208 C84,206.9 84.639,206 85.421,206 C86.202,206 87.138,204.65 87.5,203 C87.862,201.35 88.798,200 89.579,200 C90.361,200 91,199.1 91,198 C91,196.667 91.667,196 93,196 C94.333,196 95,195.333 95,194 C95,192.9 95.625,192 96.389,192 C97.184,192 98.058,190.505 98.434,188.5 C98.827,186.405 99.675,185 100.545,185 C101.345,185 102,184.1 102,183 C102,181.9 102.623,181 103.383,181 C104.144,181 105.002,180.1 105.29,179 C105.577,177.9 106.53,177 107.406,177 C108.51,177 109,176.078 109,174 C109,171.922 109.49,171 110.594,171 C111.47,171 112.423,170.1 112.71,169 C112.998,167.9 113.856,167 114.617,167 C115.531,167 116,165.813 116,163.5 C116,160.667 116.381,160 118,160 C119.333,160 120,159.333 120,158 C120,156.9 120.619,156 121.375,156 C122.746,156 124,151.88 124,147.375 C124,145.931 124.588,145 125.5,145 C126.548,145 127,143.944 127,141.5 C127,138.667 127.381,138 129,138 C130.619,138 131,137.333 131,134.5 C131,131.667 130.619,131 129,131 C127.889,131 127,131.667 127,132.5 C127,133.565 125.913,134.003 123.25,134.009 C115.622,134.026 109,135.249 109,136.639 C109,137.657 107.237,138 102,138 C96.541,138 95,138.32 95,139.455 C95,140.325 93.595,141.173 91.5,141.566 C88.318,142.163 88,142.53 88,145.611 L88,149 L70.25,149 L69.629,145.897 C68.926,142.38 69.47,141 71.559,141 C72.352,141 73,140.325 73,139.5 C73,138.667 73.889,138 75,138 C76.1,138 77,137.377 77,136.617 C77,135.041 80,134.034 84.75,134.014 C86.844,134.005 88,133.508 88,132.616 C88,131.621 89.844,131.116 94.568,130.815 C98.732,130.55 101.453,129.885 102,129 C102.547,128.115 105.268,127.45 109.432,127.185 C114.156,126.884 116,126.379 116,125.384 C116,124.362 117.539,124 121.875,124 C129.658,124 134,123.06 134,121.375 C134,120.619 134.9,120 136,120 C137.727,120 138,119.333 138,115.117 C138,111.006 138.33,110.147 140.087,109.688 C141.453,109.33 142.044,108.513 141.798,107.321 C141.512,105.932 140.639,105.563 138.122,105.766 C135.527,105.975 134.708,105.6 134.294,104.016 C134.004,102.907 133.144,102 132.383,102 C131.623,102 131,101.325 131,100.5 C131,99.675 131.648,99 132.44,99 C133.381,99 133.987,97.703 134.19,95.25 L134.5,91.5 L139.648,91.201 C144.648,90.911 144.814,90.803 145.443,87.451 C145.829,85.395 146.678,84 147.545,84 C148.642,84 149,82.646 149,78.5 C149,74.278 149.348,73 150.5,73 C151.325,73 152,72.325 152,71.5 C152,70.675 151.325,70 150.5,70 C149.667,70 149,69.111 149,68 C149,66.667 148.333,66 147,66 C145.667,66 145,66.667 145,68 C145,69.81 144.333,70 138,70 C132.986,70 131,70.362 131,71.278 C131,71.981 130.1,73.326 129,74.268 C127.9,75.21 127,76.885 127,77.99 C127,79.11 126.336,80 125.5,80 C124.675,80 124,79.325 124,78.5 C124,77.667 123.111,77 122,77 C120.242,77 120,76.333 120,71.5 C120,67.484 120.373,66 121.383,66 C122.144,66 123.002,65.1 123.29,64 C123.69,62.468 124.654,62 127.406,62 C129.934,62 131,61.555 131,60.5 C131,59.365 132.226,59 136.031,59 C139.581,59 141.232,58.558 141.638,57.5 C141.955,56.675 143.235,56 144.482,56 C148.889,56 153,54.733 153,53.375 C153,52.619 153.675,52 154.5,52 C155.652,52 156,50.722 156,46.5 C156,41.667 156.242,41 158,41 C159.333,41 160,40.333 160,39 Z M138,158 C138,156.19 138.667,156 145,156 C150.362,156 152,156.33 152,157.412 C152,158.28 153.541,159.085 156,159.5 C158.459,159.915 160,160.72 160,161.588 C160,162.67 161.638,163 167,163 C172.293,163 174,163.337 174,164.383 C174,166.103 177.077,166.969 183.25,166.986 C186.799,166.997 188,167.379 188,168.5 C188,169.687 189.428,170 194.849,170 C207.237,170 217,171.167 217,172.647 C217,173.664 218.861,174 224.5,174 C230.5,174 232,174.3 232,175.5 C232,176.548 233.056,177 235.5,177 L239,177 L239,182.5 C239,186.866 238.671,188 237.406,188 C236.53,188 235.577,188.9 235.29,190 C235,191.107 233.926,192 232.883,192 C231.848,192 231,192.655 231,193.455 C231,196.596 217.777,196.878 217.185,193.75 C216.956,192.539 217.492,192 218.927,192 C220.074,192 221,191.35 221,190.545 C221,189.675 222.405,188.827 224.5,188.434 C227.033,187.959 228,187.255 228,185.889 C228,184.85 227.373,184 226.607,184 C225.841,184 224.955,183.325 224.638,182.5 C224.186,181.32 222.137,181 215.031,181 C207.67,181 206,180.723 206,179.5 C206,178.373 204.794,178 201.147,178 C191.846,178 184,176.791 184,175.358 C184,174.321 181.992,174 175.5,174 C168.611,174 167,173.716 167,172.5 C167,171.588 166.069,171 164.625,171 C160.254,171 156,169.763 156,168.491 C156,167.65 153.822,167.094 149.432,166.815 C145.819,166.585 142.556,165.914 142.182,165.324 C141.807,164.734 140.037,163.934 138.25,163.546 C135.018,162.845 133.614,160 136.5,160 C137.333,160 138,159.111 138,158 Z"/>
</svg>

