<svg xmlns="http://www.w3.org/2000/svg" width="300" height="300" viewBox="0 0 300 300" version="1.1">
  <defs/>
  <path d="M58.566,94.5 C59.205,91.095 59.348,91 63.861,91.014 C66.413,91.021 69.513,91.299 70.75,91.63 C73.253,92.301 73.854,95 71.5,95 C70.675,95 70,95.675 70,96.5 C70,97.575 71.097,98 73.875,98 C79.772,98 84,99.096 84,100.625 C84,101.53 85.197,102 87.5,102 C89.82,102 91,102.468 91,103.389 C91,104.184 92.495,105.058 94.5,105.434 C96.595,105.827 98,106.675 98,107.545 C98,108.345 98.9,109 100,109 C101.606,109 102,109.667 102,112.383 C102,114.926 102.497,115.897 104,116.29 C105.1,116.577 106,117.53 106,118.406 C106,119.283 106.675,120 107.5,120 C108.791,120 109,123.278 109,143.5 C109,163.722 108.791,167 107.5,167 C106.363,167 106,168.233 106,172.094 C106,176.346 105.67,177.274 104,177.71 C100.544,178.614 101.632,181 105.5,181 C107.944,181 109,180.548 109,179.5 C109,178.452 110.056,178 112.5,178 C115.71,178 116,178.245 116,180.955 C116,183.54 115.562,183.992 112.5,184.566 C110.563,184.929 109,185.822 109,186.566 C109,187.31 107.437,188.203 105.5,188.566 C103.495,188.942 102,189.816 102,190.611 C102,191.375 101.1,192 100,192 C98.63,192 98,192.667 98,194.117 C98,195.824 97.565,196.117 95.75,195.63 C94.513,195.299 92.938,195.021 92.25,195.014 C91.563,195.006 91,194.325 91,193.5 C91,192.667 90.111,192 89,192 C87.9,192 87,192.623 87,193.383 C87,195.06 83.947,195.968 78.25,195.986 C75.145,195.996 74,196.404 74,197.5 C74,198.583 72.889,199 70,199 C67.111,199 66,199.417 66,200.5 C66,201.325 65.438,202.006 64.75,202.014 C64.063,202.021 62.487,202.299 61.25,202.63 C59.615,203.068 59,202.803 59,201.662 C59,200.666 57.752,199.857 55.594,199.452 C52.693,198.907 52.093,198.307 51.548,195.406 C51.169,193.385 50.318,192 49.455,192 C48.215,192 48,187.71 48,163 C48,138.933 48.236,134 49.388,134 C50.47,134 50.934,130.925 51.5,120 C52.066,109.075 52.53,106 53.612,106 C54.565,106 55,104.745 55,102 C55,99.166 55.424,98 56.455,98 C57.325,98 58.173,96.595 58.566,94.5 Z M136.75,44.689 C139.427,43.99 147.228,43.954 149.75,44.63 C150.988,44.962 152,45.856 152,46.617 C152,47.663 153.707,48 159,48 C164.362,48 166,48.33 166,49.412 C166,50.28 167.541,51.085 170,51.5 C172.459,51.915 174,52.72 174,53.588 C174,54.365 174.9,55 176,55 C177.825,55 178,55.667 178,62.639 L178,70.279 L183.25,69.648 C186.137,69.301 190.188,69.013 192.25,69.009 C194.913,69.003 196,68.565 196,67.5 C196,66.31 197.444,66 203,66 C208.556,66 210,65.69 210,64.5 C210,63.348 211.278,63 215.5,63 C219.722,63 221,63.348 221,64.5 C221,65.632 222.217,66 225.955,66 C230.825,66 230.92,66.059 231.566,69.5 C231.927,71.425 231.933,74.542 231.58,76.428 C231.06,79.196 230.366,79.98 227.968,80.507 C226.336,80.866 225,81.798 225,82.579 C225,83.361 224.1,84 223,84 C221.333,84 221,83.333 221,80 C221,77.111 221.417,76 222.5,76 C223.325,76 224,75.325 224,74.5 C224,73.31 222.556,73 217,73 L210,73 L210,78.5 C210,82.646 209.642,84 208.545,84 C207.675,84 206.827,85.405 206.434,87.5 C206.073,89.425 205.205,91 204.505,91 C203.806,91 202.998,91.9 202.71,93 C202.335,94.436 201.346,95 199.205,95 C196.588,95 196.142,95.429 195.566,98.5 C194.966,101.698 194.611,102 191.455,102 C189.051,102 188,102.456 188,103.5 C188,104.325 187.325,105 186.5,105 C185.667,105 185,105.889 185,107 C185,108.758 185.667,109 190.5,109 C194.467,109 196,108.621 196,107.642 C196,106.59 198.986,106.177 209.25,105.81 C225.358,105.233 231,105.699 231,107.605 C231,108.372 231.9,109 233,109 C234.333,109 235,109.667 235,111 C235,112.333 235.667,113 237,113 C238.619,113 239,113.667 239,116.5 C239,118.813 238.531,120 237.617,120 C236.856,120 235.988,120.939 235.688,122.087 C234.735,125.728 231.548,124.066 231.19,119.742 C230.987,117.296 230.381,116 229.44,116 C228.648,116 228,115.325 228,114.5 C228,113.247 225.944,113 215.5,113 C205.056,113 203,113.247 203,114.5 C203,115.565 201.913,116.003 199.25,116.009 C191.622,116.026 185,117.249 185,118.639 C185,119.622 183.472,120 179.5,120 C174.667,120 174,120.242 174,122 C174,123.758 173.333,124 168.5,124 C164.278,124 163,124.348 163,125.5 C163,126.631 161.783,127 158.05,127 C154.435,127 152.843,127.458 152.15,128.696 C151.451,129.945 149.462,130.503 144.6,130.813 C140.228,131.091 138,131.653 138,132.477 C138,133.742 131.013,134.974 123.75,134.991 C120.04,135 120,134.957 120,131 C120,127.667 120.333,127 122,127 C123.111,127 124,126.333 124,125.5 C124,124.534 124.978,123.995 126.75,123.986 C131.032,123.965 134,122.899 134,121.383 C134,120.359 135.558,120 140,120 C144.442,120 146,119.641 146,118.617 C146,116.897 149.077,116.031 155.25,116.014 C158.799,116.003 160,115.621 160,114.5 C160,113.452 161.056,113 163.5,113 C166.333,113 167,112.619 167,111 C167,109.381 167.667,109 170.5,109 C172.813,109 174,108.531 174,107.617 C174,106.856 174.9,105.998 176,105.71 C177.1,105.423 178,104.47 178,103.594 C178,102.667 178.837,102 180,102 C181.1,102 182,101.361 182,100.579 C182,99.798 183.35,98.862 185,98.5 C186.722,98.122 188,97.196 188,96.327 C188,95.494 188.9,94.577 190,94.29 C191.1,94.002 192,93.144 192,92.383 C192,91.623 192.623,91 193.383,91 C194.144,91 195.002,90.1 195.29,89 C195.577,87.9 196.53,87 197.406,87 C198.51,87 199,86.078 199,84 Q199,81 197.5,81 C196.675,81 196,81.675 196,82.5 C196,83.538 194.957,84 192.617,84 C190.074,84 189.103,84.497 188.71,86 C188.423,87.1 187.47,88 186.594,88 C185.717,88 185,88.625 185,89.389 C185,90.184 183.505,91.058 181.5,91.434 C179.405,91.827 178,92.675 178,93.545 C178,94.345 177.1,95 176,95 C174.9,95 174,95.625 174,96.389 C174,97.184 172.505,98.058 170.5,98.434 C168.405,98.827 167,99.675 167,100.545 C167,101.576 165.834,102 163,102 C160.211,102 159,102.43 159,103.421 C159,104.202 157.64,105.14 155.978,105.505 C151.735,106.437 145,105.153 145,103.412 C145,102.635 144.377,102 143.617,102 C141.897,102 141.031,98.923 141.014,92.75 L141,88 L136,88 C132.409,88 131,88.39 131,89.384 C131,90.381 129.135,90.886 124.314,91.193 C120.375,91.444 117.464,92.108 117.23,92.809 C116.988,93.535 114.717,94 111.417,94 C107.269,94 106,93.649 106,92.5 C106,91.667 105.111,91 104,91 C102.889,91 102,90.333 102,89.5 C102,88.675 102.717,88 103.594,88 C104.47,88 105.423,87.1 105.71,86 C106.143,84.344 107.074,84 111.117,84 C114.593,84 116,83.604 116,82.625 C116,80.754 120.489,80 131.625,80 C138.922,80 141,79.695 141,78.622 C141,77.585 143.243,77.137 150.075,76.811 C156.352,76.511 159.413,75.949 160.006,74.99 C160.546,74.116 163.293,73.449 167.432,73.185 C172.156,72.884 174,72.379 174,71.384 C174,70.623 173.325,70 172.5,70 C171.588,70 171,69.069 171,67.625 C171,66.319 170.719,63.844 170.375,62.125 C169.779,59.143 169.529,59 164.925,59 C161.369,59 159.841,58.539 159.119,57.25 C158.301,55.788 156.521,55.473 148.32,55.333 C134.888,55.105 131.754,55.254 131.097,54.051 C130.805,53.517 131,52.717 131,51.5 C131,48.667 131.381,48 133,48 C134.1,48 135,47.358 135,46.573 C135,45.789 135.787,44.941 136.75,44.689 Z M169.25,130.685 C170.488,130.436 172.4,130.398 173.5,130.602 C174.6,130.806 178.313,130.979 181.75,130.986 C186.546,130.997 188,131.338 188,132.455 C188,133.325 186.595,134.173 184.5,134.566 C182.495,134.942 181,135.816 181,136.611 C181,137.532 179.82,138 177.5,138 C174.167,138 174,138.167 174,141.5 L174,145 L179.5,145 C183.511,145 185,144.626 185,143.619 C185,142.579 187.57,142.064 195.433,141.528 C208.049,140.668 221,141.67 221,143.506 C221,144.205 222.575,145.073 224.5,145.434 C227.562,146.008 228,146.46 228,149.045 C228,151.333 228.451,152 230,152 C231.333,152 232,152.667 232,154 C232,155.111 232.667,156 233.5,156 C234.325,156 235,156.717 235,157.594 C235,158.47 235.9,159.423 237,159.71 C238.503,160.103 239,161.074 239,163.617 C239,165.848 239.476,167 240.399,167 C241.396,167 241.998,169.005 242.5,174 C243.002,178.995 243.604,181 244.601,181 C245.741,181 246,183.961 246,197 C246,209.896 245.734,213 244.627,213 C243.132,213 241.92,221.132 242.761,225.528 C243.186,227.755 243.717,228 248.117,228 C252.333,228 253,228.273 253,230 C253,231.619 252.333,232 249.5,232 C247.056,232 246,232.452 246,233.5 C246,234.512 244.988,235 242.891,235 C238.66,235 235.04,238.563 235.017,242.75 L235,246 L224,246 L224,242.5 C224,239.667 223.619,239 222,239 C220.889,239 220,239.667 220,240.5 C220,241.596 218.855,242.004 215.75,242.014 C210.053,242.032 207,242.94 207,244.617 C207,245.627 205.516,246 201.5,246 C197.43,246 196,246.367 196,247.412 C196,248.28 194.459,249.085 192,249.5 C189.541,249.915 188,250.72 188,251.588 C188,252.611 186.656,253 183.117,253 C178.965,253 178.149,253.321 177.673,255.144 C177.166,257.08 176.653,257.224 172.36,256.636 C169.747,256.278 167.359,255.618 167.054,255.169 C166.749,254.721 165.713,254.064 164.75,253.708 C163.536,253.26 163,251.982 163,249.531 C163,246.078 163.088,246 167,246 C169.739,246 171,245.564 171,244.617 C171,242.759 174.152,242.03 182.25,242.014 C187.577,242.003 189,241.684 189,240.5 C189,239.379 190.201,238.997 193.75,238.986 C199.923,238.969 203,238.103 203,236.383 C203,235.39 204.41,235 208,235 C211.702,235 213,234.623 213,233.55 C213,232.519 214.737,231.903 219,231.42 C223.085,230.958 225,230.304 225,229.371 C225,228.471 226.202,228 228.5,228 C230.944,228 232,227.548 232,226.5 C232,225.675 232.675,225 233.5,225 C234.753,225 235,222.957 235,212.617 C235,201.074 234.864,200.198 233,199.71 C231.333,199.274 231,198.346 231,194.139 C231,189.161 230.951,189.081 227.5,188.434 C225.495,188.058 224,187.184 224,186.389 C224,185.307 222.013,185 215,185 C207.667,185 206,185.278 206,186.5 C206,187.621 204.799,188.003 201.25,188.014 C195.077,188.031 192,188.897 192,190.617 C192,191.531 190.813,192 188.5,192 C185.178,192 185,192.175 185,195.441 C185,197.334 184.66,199.092 184.244,199.349 C182.603,200.363 178.156,198.704 177.684,196.901 C177.411,195.855 176.47,195 175.594,195 C174.353,195 174,193.918 174,190.117 C174,186.074 174.344,185.143 176,184.71 C177.1,184.423 178,183.47 178,182.594 C178,181.287 179.262,181 185,181 C190.311,181 192,180.664 192,179.609 C192,177.722 210.188,176.548 224.402,177.517 C234.76,178.223 235,178.191 235,176.119 C235,174.954 234.375,174 233.611,174 C232.816,174 231.942,172.505 231.566,170.5 C231.173,168.405 230.325,167 229.455,167 C228.468,167 228,165.91 228,163.611 C228,160.544 227.675,160.162 224.572,159.58 C221.838,159.067 221.018,158.357 220.515,156.07 C219.815,152.88 217.885,152.035 211.25,152.014 C208.145,152.004 207,151.596 207,150.5 C207,149.417 205.889,149 203,149 C200.111,149 199,149.417 199,150.5 C199,151.663 197.681,152 193.125,152 C185.342,152 181,152.94 181,154.625 C181,155.53 179.803,156 177.5,156 L174,156 L174,163 C174,168.556 174.31,170 175.5,170 C176.333,170 177,170.889 177,172 C177,173.111 176.333,174 175.5,174 C174.667,174 174,174.889 174,176 C174,177.111 173.333,178 172.5,178 C171.3,178 170.989,179.552 170.946,185.75 C170.916,190.012 170.66,197.992 170.378,203.482 C169.662,217.396 170.223,219.797 174.284,220.189 C177.212,220.472 177.528,220.835 177.81,224.25 L178.121,228 L174.06,228 C171.118,228 170,228.413 170,229.5 C170,230.325 169.325,231 168.5,231 C167.675,231 167,230.325 167,229.5 C167,228.667 166.111,228 165,228 C163.148,228 163,227.333 163,219 C163,211.667 162.722,210 161.5,210 C160.675,210 160,209.325 160,208.5 C160,207.675 160.675,207 161.5,207 C162.801,207 163,202.889 163,176 C163,150.364 163.238,145 164.375,145 C165.898,145 167,140.777 167,134.945 C167,131.799 167.39,131.06 169.25,130.685 Z M66,112.389 C66,115.47 65.682,115.837 62.5,116.434 L59,117.091 L59,130.996 C59,142.602 58.74,145.046 57.427,145.781 C56.117,146.514 55.803,149.406 55.544,163.08 C55.171,182.802 55.498,185.365 58.29,184.635 C61.299,183.847 66,185.061 66,186.625 C66,187.69 68.03,188 75,188 C82.333,188 84,187.722 84,186.5 C84,185.452 85.056,185 87.5,185 C89.813,185 91,184.531 91,183.617 C91,182.856 91.9,181.998 93,181.71 C94.699,181.266 95,180.346 95,175.594 C95,171.288 95.345,170 96.5,170 C97.714,170 98,168.404 98,161.637 L98,153.274 L91.587,152.759 C83.853,152.138 80,152.756 80,154.617 C80,155.531 78.813,156 76.5,156 L73,156 L73,167 L69.5,167 C66.19,167 66,166.817 66,163.617 C66,161.074 65.503,160.103 64,159.71 C62.528,159.325 62,158.346 62,156 C62,153.654 62.528,152.675 64,152.29 C65.1,152.002 66,151.194 66,150.495 C66,149.795 67.575,148.927 69.5,148.566 C71.595,148.173 73,147.325 73,146.455 C73,145.358 74.354,145 78.5,145 C82.722,145 84,144.652 84,143.5 C84,142.452 85.056,142 87.5,142 C89.944,142 91,142.452 91,143.5 C91,144.652 92.278,145 96.5,145 L102,145 L102,138 C102,132.727 101.661,131 100.625,131 C99.254,131 98,126.88 98,122.375 C98,121.02 97.406,120 96.617,120 C95.856,120 94.998,119.1 94.71,118 C94.423,116.9 93.47,116 92.594,116 C91.717,116 91,115.325 91,114.5 C91,113.452 89.944,113 87.5,113 C84.667,113 84,112.619 84,111 C84,109.148 83.333,109 75,109 L66,109 Z M181,78.5 C181,79.412 180.069,80 178.625,80 C174.12,80 170,81.254 170,82.625 C170,83.53 168.803,84 166.5,84 C164.056,84 163,84.452 163,85.5 C163,86.412 162.069,87 160.625,87 C156.12,87 152,88.254 152,89.625 C152,90.381 151.325,91 150.5,91 C149.667,91 149,91.889 149,93 C149,94.111 149.667,95 150.5,95 C151.325,95 152,95.675 152,96.5 C152,97.548 153.056,98 155.5,98 C157.944,98 159,97.548 159,96.5 C159,95.445 160.066,95 162.594,95 C165.346,95 166.31,94.532 166.71,93 C167.103,91.497 168.074,91 170.617,91 C172.911,91 174,90.532 174,89.545 C174,88.675 175.405,87.827 177.5,87.434 C179.505,87.058 181,86.184 181,85.389 C181,84.625 181.9,84 183,84 C184.333,84 185,83.333 185,82 C185,80.667 185.667,80 187,80 C188.111,80 189,79.333 189,78.5 C189,77.417 187.889,77 185,77 C182.111,77 181,77.417 181,78.5 Z"/>
</svg>

