<svg xmlns="http://www.w3.org/2000/svg" width="300" height="300" viewBox="0 0 300 300" version="1.1">
  <defs/>
  <path d="M150,35.5 C150,34.217 152.889,34 170,34 C187.111,34 190,34.217 190,35.5 C190,36.548 191.056,37 193.5,37 C195.944,37 197,37.452 197,38.5 C197,39.325 197.675,40 198.5,40 C199.583,40 200,41.111 200,44 C200,46.889 199.583,48 198.5,48 C197.452,48 197,49.056 197,51.5 C197,54.833 196.833,55 193.5,55 C190.667,55 190,55.381 190,57 C190,58.333 189.333,59 188,59 C186.9,59 186,59.625 186,60.389 C186,61.184 184.505,62.058 182.5,62.434 C180.405,62.827 179,63.675 179,64.545 C179,65.576 177.834,66 175,66 C172.261,66 171,66.436 171,67.383 C171,68.899 168.032,69.965 163.75,69.986 C161.276,69.999 161,70.352 161,73.5 C161,75.813 160.531,77 159.617,77 C158.041,77 157.034,80 157.014,84.75 C157.005,86.698 157.501,87.995 158.25,87.986 C161.16,87.955 164,86.669 164,85.383 C164,84.329 165.781,84 171.5,84 C177.5,84 179,84.3 179,85.5 C179,86.745 180.931,87 190.375,87 C203.446,87 208,87.678 208,89.625 C208,90.608 209.424,91 213,91 C217.333,91 218,91.267 218,93 C218,94.333 218.667,95 220,95 C221.111,95 222,95.667 222,96.5 C222,97.325 222.717,98 223.594,98 C224.47,98 225.423,98.9 225.71,100 C225.998,101.1 226.856,102 227.617,102 C228.377,102 229,102.9 229,104 C229,105.333 229.667,106 231,106 C232.619,106 233,106.667 233,109.5 C233,111.896 233.459,113 234.455,113 C235.325,113 236.173,114.405 236.566,116.5 C236.942,118.505 237.816,120 238.611,120 C239.693,120 240,121.987 240,129 C240,137.333 240.148,138 242,138 C243.864,138 244,138.665 243.995,147.75 C243.986,164.639 242.868,177 241.349,177 C240.337,177 240,178.873 240,184.5 C240,190.197 239.669,192 238.625,192 C237.254,192 236,196.12 236,200.625 C236,202.069 235.412,203 234.5,203 C233.534,203 232.995,203.978 232.986,205.75 C232.965,210.032 231.899,213 230.383,213 C229.623,213 229,213.9 229,215 C229,216.758 228.333,217 223.5,217 C218.667,217 218,216.758 218,215 C218,213.889 217.333,213 216.5,213 Q215,213 215,210 Q215,207 216.5,207 C217.325,207 218,207.675 218,208.5 C218,209.537 219.042,210 221.375,210 C224.355,210 224.823,209.634 225.375,206.875 C225.719,205.156 226,202.681 226,201.375 C226,199.931 226.588,199 227.5,199 C228.69,199 229,197.556 229,192 C229,186.541 229.32,185 230.455,185 C232.175,185 233.285,180.094 232.823,174.533 C232.468,170.273 230.19,168.558 229.317,171.895 C229.014,173.053 228.194,174 227.495,174 C226.795,174 225.927,175.575 225.566,177.5 C225.173,179.595 224.325,181 223.455,181 C222.459,181 222,179.896 222,177.5 C222,175.187 222.469,174 223.384,174 C224.382,174 224.887,172.124 225.197,167.25 C225.836,157.216 225.424,156 221.383,156 C219.043,156 218,155.538 218,154.5 C218,153.31 216.556,153 211,153 C205.444,153 204,153.31 204,154.5 C204,155.652 202.722,156 198.5,156 C194.484,156 193,156.373 193,157.383 C193,158.899 190.032,159.965 185.75,159.986 C183.978,159.995 183,160.534 183,161.5 C183,162.333 182.111,163 181,163 C179.667,163 179,163.667 179,165 C179,166.333 178.333,167 177,167 C175.889,167 175,167.667 175,168.5 C175,169.621 173.799,170.003 170.25,170.014 C164.077,170.031 161,170.897 161,172.617 C161,173.522 159.831,174 157.617,174 C155.074,174 154.103,173.503 153.71,172 C153.423,170.9 152.47,170 151.594,170 C150.254,170 150,168.568 150,161 C150,154.076 149.686,152 148.639,152 C147.745,152 147.063,150.202 146.648,146.75 C145.844,140.054 145.829,86.241 146.63,83.25 C146.962,82.013 147.856,81 148.617,81 C149.627,81 150,79.516 150,75.5 C150,71.278 150.348,70 151.5,70 C152.333,70 153,69.111 153,68 C153,66.667 153.667,66 155,66 C156.163,66 157,65.333 157,64.406 C157,63.53 157.9,62.577 159,62.29 C160.1,62.002 161,61.144 161,60.383 C161,59.402 162.379,58.996 165.75,58.986 C171.923,58.969 175,58.103 175,56.383 C175,55.469 176.187,55 178.5,55 C180.944,55 182,54.548 182,53.5 C182,52.667 182.889,52 184,52 C185.333,52 186,51.333 186,50 C186,48.889 186.667,48 187.5,48 C188.333,48 189,47.111 189,46 C189,44.084 188.336,44 173.25,44.009 C154.277,44.019 147,44.748 147,46.639 C147,47.56 145.707,48 143,48 L139,48 L139,53.5 C139,59.229 138.68,59.557 134.25,58.37 C132.147,57.806 132,57.228 132,49.495 L132,41.223 L135.5,40.566 C137.595,40.173 139,39.325 139,38.455 C139,37.358 140.354,37 144.5,37 C148.722,37 150,36.652 150,35.5 Z M157,96.5 C157,97.325 156.325,98 155.5,98 C154.222,98 154,100.667 154,116 C154,130.745 154.253,134 155.397,134 C156.499,134 156.869,136.621 157.147,146.417 C157.341,153.247 157.784,159.119 158.132,159.466 C159.215,160.548 164,158.857 164,157.392 C164,156.371 165.468,156 169.5,156 C173.703,156 175,155.649 175,154.512 C175,153.549 176.412,152.798 179,152.384 C181.413,151.998 183,151.2 183,150.372 C183,149.397 184.411,149 187.883,149 C191.926,149 192.857,148.656 193.29,147 C193.726,145.33 194.654,145 198.906,145 L204,145 L204,140.125 C204,135.465 203.862,135.222 200.875,134.625 C196.913,133.833 184.214,133.836 181.25,134.63 C180.012,134.962 179,135.856 179,136.617 C179,137.377 178.325,138 177.5,138 C176.675,138 176,138.675 176,139.5 C176,140.325 176.675,141 177.5,141 C178.583,141 179,142.111 179,145 C179,148.333 178.667,149 177,149 C175.667,149 175,148.333 175,147 C175,145.9 174.345,145 173.545,145 C172.675,145 171.827,143.595 171.434,141.5 C170.837,138.318 170.47,138 167.389,138 C164.183,138 164,137.811 164,134.5 C164,131.667 164.381,131 166,131 C167.333,131 168,130.333 168,129 C168,127.148 168.667,127 177,127 C184.333,127 186,126.722 186,125.5 C186,124.348 187.278,124 191.5,124 C195.722,124 197,124.348 197,125.5 C197,126.637 198.233,127 202.094,127 C206.346,127 207.274,127.33 207.71,129 C207.998,130.1 208.797,131 209.487,131 C210.235,131 210.95,132.862 211.261,135.624 C211.811,140.504 213.067,141.96 216.75,141.985 C218.077,141.994 219,142.616 219,143.5 C219,144.548 220.056,145 222.5,145 C225.333,145 226,145.381 226,147 C226,148.111 226.667,149 227.5,149 C228.325,149 229,149.675 229,150.5 C229,151.325 229.563,152.006 230.25,152.014 C230.938,152.021 232.512,152.299 233.75,152.63 C235.817,153.184 236,152.898 236,149.117 C236,146.258 235.573,145 234.603,145 C233.541,145 233.12,142.918 232.849,136.332 C232.618,130.696 232.068,127.523 231.278,127.259 C230.61,127.037 229.774,125.312 229.42,123.427 C229.067,121.542 228.203,120 227.5,120 C226.797,120 225.927,118.425 225.566,116.5 C225.173,114.405 224.325,113 223.455,113 C222.655,113 222,112.1 222,111 C222,109.9 221.377,109 220.617,109 C219.856,109 218.998,108.1 218.71,107 C218.423,105.9 217.47,105 216.594,105 C215.717,105 215,104.325 215,103.5 C215,102.667 214.111,102 213,102 C211.9,102 211,101.345 211,100.545 C211,99.675 209.595,98.827 207.5,98.434 C205.495,98.058 204,97.184 204,96.389 C204,95.255 200.692,95 186,95 L168,95 L168,102 C168,108.333 167.81,109 166,109 C164.381,109 164,108.333 164,105.5 C164,103.18 163.532,102 162.611,102 C161.816,102 160.942,100.505 160.566,98.5 C159.919,95.05 157,93.413 157,96.5 Z M53,98.5 L53,88 L56.5,88 C58.944,88 60,88.452 60,89.5 C60,90.325 60.623,91 61.383,91 C63.241,91 63.97,94.152 63.986,102.25 C63.997,107.331 64.343,109 65.387,109 C66.456,109 66.862,111.411 67.164,119.553 C67.44,127.027 67.951,130.352 68.914,130.947 C69.661,131.409 70.494,134.085 70.764,136.893 C71.248,141.929 71.301,142 74.627,142 C77.333,142 78,141.605 78,140 C78,138.889 78.667,138 79.5,138 C80.555,138 81,136.934 81,134.406 C81,131.654 81.468,130.69 83,130.29 C84.423,129.918 85,128.926 85,126.852 C85,125.208 85.642,123.691 86.473,123.372 C87.283,123.061 88.233,121.275 88.584,119.403 C88.935,117.532 89.812,116 90.532,116 C91.252,116 92.138,114.65 92.5,113 C92.862,111.35 93.798,110 94.579,110 C95.361,110 96,109.152 96,108.117 C96,107.074 96.893,106 98,105.71 C99.1,105.423 100,104.47 100,103.594 C100,102.717 100.675,102 101.5,102 C102.325,102 103,101.345 103,100.545 C103,99.675 104.405,98.827 106.5,98.434 C108.505,98.058 110,97.184 110,96.389 C110,95.307 111.987,95 119,95 C125.996,95 128,95.308 128,96.383 C128,97.144 127.1,98.002 126,98.29 C124.9,98.577 124,99.53 124,100.406 C124,101.283 123.55,102 123,102 C122.45,102 122,101.325 122,100.5 C122,99.667 121.111,99 120,99 C118.889,99 118,99.667 118,100.5 C118,101.538 116.957,102 114.617,102 C112.074,102 111.103,102.497 110.71,104 C110.423,105.1 109.47,106 108.594,106 C107.717,106 107,106.675 107,107.5 C107,108.325 106.283,109 105.406,109 C104.53,109 103.577,109.9 103.29,111 C103.002,112.1 102.194,113 101.495,113 C100.795,113 99.927,114.575 99.566,116.5 C99.173,118.595 98.325,120 97.455,120 C96.468,120 96,121.089 96,123.383 C96,125.926 95.503,126.897 94,127.29 C92.544,127.671 92,128.654 92,130.906 C92,132.99 91.51,134 90.5,134 C89.417,134 89,135.111 89,138 C89,140.746 88.565,142 87.611,142 C86.816,142 85.942,143.495 85.566,145.5 C85.082,148.082 84.397,149 82.955,149 C81.667,149 81,148.318 81,147 C81,145.458 80.333,145 78.088,145 C75.472,145 75.107,145.405 74.504,148.978 C73.663,153.956 74.707,159 76.579,159 C77.361,159 78,159.9 78,161 C78,162.333 78.667,163 80,163 C81.1,163 82,163.639 82,164.421 C82,165.202 83.35,166.138 85,166.5 C86.65,166.862 88,167.798 88,168.579 C88,169.361 88.844,170 89.875,170 C92.017,170 93.376,174.653 92.386,178.598 C91.898,180.543 91.139,181 88.392,181 C86.044,181 85,180.538 85,179.5 C85,178.675 84.283,178 83.406,178 C82.53,178 81.577,177.1 81.29,176 C81.002,174.9 80.144,174 79.383,174 C78.623,174 78,173.325 78,172.5 C78,171.675 77.438,170.994 76.75,170.986 C76.063,170.979 74.487,170.701 73.25,170.37 C71.015,169.771 71,169.843 71,180.883 C71,191.333 70.88,192 69,192 C67.667,192 67,192.667 67,194 C67,195.111 66.333,196 65.5,196 C64.675,196 64,196.675 64,197.5 C64,198.333 63.111,199 62,199 C60.667,199 60,198.333 60,197 C60,195.889 59.333,195 58.5,195 C57.675,195 57,194.325 57,193.5 C57,192.675 57.675,192 58.5,192 C59.325,192 60,191.325 60,190.5 C60,189.675 59.325,189 58.5,189 C57.667,189 57,188.111 57,187 C57,185.889 57.667,185 58.5,185 C59.764,185 60,182.722 60,170.5 C60,158.278 59.764,156 58.5,156 C57.675,156 57,155.347 57,154.55 C57,153.519 55.263,152.903 51,152.42 C46.915,151.958 45,151.304 45,150.371 C45,149.505 43.86,149 41.906,149 C39.654,149 38.671,148.456 38.29,147 C38,145.893 36.926,145 35.883,145 C34.848,145 34,144.325 34,143.5 C34,142.675 33.325,142 32.5,142 C31.667,142 31,141.111 31,140 C31,138.889 30.333,138 29.5,138 C28.675,138 28,137.283 28,136.406 C28,135.53 27.1,134.577 26,134.29 C24.497,133.897 24,132.926 24,130.383 C24,128.043 23.538,127 22.5,127 C21.675,127 21,126.325 21,125.5 C21,124.675 21.675,124 22.5,124 C23.333,124 24,123.111 24,122 C24,120.242 24.667,120 29.5,120 L35,120 L35,125.5 C35,129.646 35.358,131 36.455,131 C37.325,131 38.173,132.405 38.566,134.5 C38.942,136.505 39.816,138 40.611,138 C41.375,138 42,138.625 42,139.389 C42,140.184 43.495,141.058 45.5,141.434 C47.595,141.827 49,142.675 49,143.545 C49,144.642 50.354,145 54.5,145 L60,145 L60,132.5 C60,122.561 59.718,120 58.625,120 C57.254,120 56,115.88 56,111.375 C56,109.931 55.412,109 54.5,109 C53.262,109 53,107.167 53,98.5 Z M205.75,181.689 C206.713,181.438 210.088,181.18 213.25,181.116 C217.606,181.028 219,181.344 219,182.421 C219,183.202 220.35,184.138 222,184.5 C224.063,184.953 225,185.759 225,187.079 C225,188.136 224.325,189 223.5,189 Q222,189 222,192 C222,194.078 221.51,195 220.406,195 C219.53,195 218.577,195.9 218.29,197 C218.002,198.1 217.144,199 216.383,199 C215.623,199 215,199.9 215,201 C215,202.333 214.333,203 213,203 C211.889,203 211,203.667 211,204.5 C211,205.325 210.325,206 209.5,206 C208.667,206 208,206.889 208,208 C208,209.333 207.333,210 206,210 C204.667,210 204,210.667 204,212 C204,213.333 203.333,214 202,214 C200.889,214 200,214.667 200,215.5 C200,216.325 199.325,217 198.5,217 C197.667,217 197,217.889 197,219 C197,220.333 196.333,221 195,221 C193.889,221 193,221.667 193,222.5 C193,223.325 192.283,224 191.406,224 C190.53,224 189.577,224.9 189.29,226 C189.002,227.1 188.144,228 187.383,228 C186.623,228 186,228.623 186,229.383 C186,230.144 185.1,231.002 184,231.29 C182.9,231.577 182,232.53 182,233.406 C182,234.283 181.325,235 180.5,235 C179.675,235 179,235.717 179,236.594 C179,237.47 178.1,238.423 177,238.71 C175.9,238.998 175,239.856 175,240.617 C175,241.377 174.325,242 173.5,242 C172.667,242 172,242.889 172,244 C172,245.333 171.333,246 170,246 C168.667,246 168,246.667 168,248 C168,249.333 167.333,250 166,250 C164.889,250 164,250.667 164,251.5 C164,252.325 163.325,253 162.5,253 C161.667,253 161,253.889 161,255 C161,256.333 160.333,257 159,257 C157.667,257 157,257.667 157,259 C157,260.1 156.361,261 155.579,261 C154.798,261 153.862,262.35 153.5,264 C152.958,266.466 152.34,267 150.029,267 C147.863,267 147.073,266.425 146.589,264.5 C145.753,261.169 146.876,257 148.608,257 C149.374,257 150,256.1 150,255 C150,253.667 150.667,253 152,253 C153.111,253 154,252.333 154,251.5 C154,250.675 154.675,250 155.5,250 C156.333,250 157,249.111 157,248 C157,246.667 157.667,246 159,246 C160.333,246 161,245.333 161,244 C161,242.889 161.667,242 162.5,242 C163.325,242 164,241.325 164,240.5 C164,239.667 164.889,239 166,239 C167.333,239 168,238.333 168,237 C168,235.889 168.667,235 169.5,235 C170.325,235 171,234.283 171,233.406 C171,232.53 171.9,231.577 173,231.29 C174.1,231.002 175,230.144 175,229.383 C175,228.623 175.623,228 176.383,228 C177.144,228 178.002,227.1 178.29,226 C178.577,224.9 179.494,224 180.327,224 C181.189,224 182.119,222.736 182.486,221.065 C182.963,218.891 183.865,217.969 185.963,217.508 C187.591,217.151 189.013,216.059 189.305,214.943 C189.584,213.874 190.53,213 191.406,213 C192.283,213 193,212.325 193,211.5 C193,210.675 193.623,210 194.383,210 C195.144,210 196.002,209.1 196.29,208 C196.577,206.9 197.53,206 198.406,206 C199.283,206 200,205.283 200,204.406 C200,203.53 200.9,202.577 202,202.29 C203.392,201.926 204,200.926 204,199 C204,197.074 204.608,196.074 206,195.71 C207.1,195.423 208,194.47 208,193.594 C208,192.329 206.866,192 202.5,192 C197.667,192 197,192.242 197,194 C197,195.667 196.333,196 193,196 C190.111,196 189,196.417 189,197.5 C189,198.548 187.944,199 185.5,199 C182.667,199 182,199.381 182,201 C182,202.733 181.333,203 177,203 C173.222,203 172,203.367 172,204.5 C172,205.7 170.5,206 164.5,206 C158.5,206 157,205.7 157,204.5 C157,203.675 156.325,203 155.5,203 C154.667,203 154,202.111 154,201 C154,199.889 154.667,199 155.5,199 C156.325,199 157,198.325 157,197.5 C157,196.445 158.066,196 160.594,196 C163.346,196 164.31,195.532 164.71,194 C165.169,192.244 166.074,192 172.117,192 C177.311,192 179,191.66 179,190.617 C179,189.041 182,188.034 186.75,188.014 C188.966,188.004 190,187.523 190,186.5 C190,185.31 191.444,185 197,185 C202.396,185 204,184.673 204,183.573 C204,182.789 204.787,181.941 205.75,181.689 Z M211,226.5 C211,225.667 211.889,225 213,225 C214.111,225 215,225.667 215,226.5 C215,227.548 216.056,228 218.5,228 C220.944,228 222,228.452 222,229.5 C222,230.575 223.097,231 225.875,231 C231.772,231 236,232.096 236,233.625 C236,234.625 237.5,235 241.5,235 C246.333,235 247,235.242 247,237 C247,238.758 247.667,239 252.5,239 C256.722,239 258,239.348 258,240.5 C258,241.652 259.278,242 263.5,242 C267.722,242 269,241.652 269,240.5 C269,239.452 270.056,239 272.5,239 L276,239 L276,253 L270.5,253 C266.278,253 265,252.652 265,251.5 C265,250.337 263.681,250 259.125,250 C251.342,250 247,249.06 247,247.375 C247,246.375 245.5,246 241.5,246 C237.484,246 236,245.627 236,244.617 C236,242.897 232.923,242.031 226.75,242.014 C223.397,242.004 222,241.596 222,240.627 C222,239.703 220.297,239.091 216.792,238.754 C213.928,238.479 211.416,237.747 211.209,237.127 C211.002,236.507 209.296,236 207.417,236 C204.097,236 204,235.886 204,232 C204,228.095 204.083,228 207.5,228 C209.944,228 211,227.548 211,226.5 Z"/>
</svg>

