<svg xmlns="http://www.w3.org/2000/svg" width="300" height="300" viewBox="0 0 300 300" version="1.1">
  <defs/>
  <path d="M179,65.5 C179,64.452 180.056,64 182.5,64 C184.944,64 186,64.452 186,65.5 C186,66.548 187.056,67 189.5,67 C192.923,67 193,67.089 193,71.045 L193,75.091 L189.5,74.434 C186.025,73.782 186,73.803 186,77.389 C186,79.932 185.556,81 184.5,81 C183.348,81 183,82.278 183,86.5 C183,90.722 183.348,92 184.5,92 C185.325,92 186,91.379 186,90.621 C186,89.543 188.773,89.149 198.684,88.819 C207.324,88.532 211.495,88.015 211.767,87.198 C212.238,85.786 219,85.558 219,86.955 C219,87.48 220.597,88.209 222.548,88.575 L226.096,89.241 L225.798,94.37 L225.5,99.5 L221.75,99.81 C218.53,100.077 218,99.83 218,98.06 C218,96.09 217.455,96 205.5,96 C195.056,96 193,96.247 193,97.5 C193,98.548 191.944,99 189.5,99 C186.083,99 186,99.095 186,103 C186,105.783 185.569,107 184.584,107 C183.492,107 183.006,109.516 182.456,118 C181.917,126.306 181.407,129 180.371,129 C179.392,129 179,130.431 179,134 L179,139 L193.094,139 C206.346,139 207.218,139.119 207.71,141 C208.006,142.131 209.074,143 210.169,143 C211.876,143 212.069,143.621 211.802,148.25 C211.539,152.824 211.21,153.541 209.25,153.82 C207.539,154.063 207,153.644 207,152.07 C207,150.897 206.35,150 205.5,150 C204.675,150 204,149.325 204,148.5 C204,147.452 202.944,147 200.5,147 C198.056,147 197,147.452 197,148.5 C197,149.325 196.377,150 195.617,150 C194.856,150 193.998,150.9 193.71,152 C193.423,153.1 192.47,154 191.594,154 C190.43,154 190,154.973 190,157.602 L190,161.203 L198.25,160.972 C202.787,160.844 209.988,160.799 214.25,160.87 L222,161 L222,171 L218.5,171 C216.056,171 215,170.548 215,169.5 C215,168.258 213.111,168 204,168 L193,168 L193,171.5 C193,173.944 192.548,175 191.5,175 C190.342,175 189.997,176.31 189.989,180.75 C189.973,188.972 188.979,194 187.369,194 C186.297,194 186,196.279 186,204.5 L186,215 L218.5,215 C250.333,215 251,214.959 251,213 C251,211.667 251.667,211 253,211 C254.111,211 255,210.333 255,209.5 C255,208.675 255.675,208 256.5,208 C257.548,208 258,209.056 258,211.5 C258,214.405 258.362,215 260.13,215 C262.066,215 262.213,215.414 261.747,219.549 C261.465,222.052 260.92,224.414 260.535,224.799 C260.15,225.185 241.647,225.627 219.418,225.783 C184.684,226.025 179,226.271 179,227.533 C179,228.534 177.923,229 175.608,229 C172.861,229 172.102,228.543 171.614,226.598 C170.765,223.216 171.985,218 173.625,218 C174.53,218 175,216.803 175,214.5 C175,212.187 175.469,211 176.383,211 C178.462,211 178.971,207.72 178.986,194.25 C178.998,184.034 179.249,182 180.5,182 C181.633,182 182,180.778 182,177 L182,172 L178.5,172 C176.056,172 175,172.452 175,173.5 C175,174.637 173.767,175 169.906,175 C165.654,175 164.726,175.33 164.29,177 C163.857,178.656 162.926,179 158.883,179 C155.082,179 154,179.353 154,180.594 C154,181.47 153.1,182.423 152,182.71 C150.583,183.081 150,184.074 150,186.117 C150,188.826 149.753,189 145.893,189 C142.653,189 141.908,188.683 142.362,187.5 C142.805,186.344 142.141,186 139.469,186 C136.962,186 136,185.558 136,184.406 C136,183.53 135.1,182.577 134,182.29 C132.9,182.002 132,181.144 132,180.383 C132,179.308 129.996,179 123,179 C114.667,179 114,178.852 114,177 C114,175.381 113.333,175 110.5,175 C108.056,175 107,174.548 107,173.5 C107,172.452 105.944,172 103.5,172 C100.667,172 100,171.619 100,170 C100,168.242 99.333,168 94.5,168 C90.484,168 89,167.627 89,166.617 C89,165.331 86.16,164.045 83.25,164.014 C82.4,164.004 82,165.759 82,169.5 C82,173.471 82.378,175 83.36,175 C84.419,175 84.833,178.128 85.228,189.109 C85.605,199.61 86.089,203.436 87.118,204.071 C88.196,204.737 88.572,209.107 88.828,223.962 C89.138,241.962 89.261,243 91.078,243 C92.135,243 93,242.325 93,241.5 C93,240.675 93.675,240 94.5,240 C95.548,240 96,241.056 96,243.5 C96,245.82 95.532,247 94.611,247 C93.816,247 92.942,248.495 92.566,250.5 C92.173,252.595 91.325,254 90.455,254 C89.655,254 89,254.9 89,256 C89,257.333 88.333,258 87,258 C85.889,258 85,258.667 85,259.5 C85,260.325 84.325,261 83.5,261 C82.675,261 82,260.325 82,259.5 C82,258.667 81.111,258 80,258 C78.242,258 78,257.333 78,252.5 C78,248.278 78.348,247 79.5,247 C80.753,247 81,244.944 81,234.5 C81,224.056 80.753,222 79.5,222 C78.218,222 78,219.167 78,202.5 C78,186.621 77.745,183 76.625,183 C75.052,183 74,178.741 74,172.375 C74,169.153 73.605,168 72.5,168 C71.348,168 71,166.722 71,162.5 C71,157.667 70.758,157 69,157 C67.667,157 67,157.667 67,159 C67,160.111 66.333,161 65.5,161 C64.675,161 64,161.675 64,162.5 C64,163.333 63.111,164 62,164 C60.667,164 60,164.667 60,166 C60,167.333 59.333,168 58,168 C56.667,168 56,168.667 56,170 C56,171.111 55.333,172 54.5,172 C53.675,172 53,172.675 53,173.5 C53,174.333 52.111,175 51,175 C49.242,175 49,175.667 49,180.5 L49,186 L45.5,186 C43.056,186 42,186.452 42,187.5 C42,189.854 39.301,189.253 38.63,186.75 C37.359,182.008 37.891,179 40,179 C41.333,179 42,178.333 42,177 C42,175.9 42.625,175 43.389,175 C44.184,175 45.058,173.505 45.434,171.5 C45.827,169.405 46.675,168 47.545,168 C48.345,168 49,167.283 49,166.406 C49,165.53 49.9,164.577 51,164.29 C52.1,164.002 53,163.144 53,162.383 C53,161.623 53.675,161 54.5,161 C55.333,161 56,160.111 56,159 C56,157.667 56.667,157 58,157 C59.333,157 60,156.333 60,155 C60,153.667 60.667,153 62,153 C63.111,153 64,152.333 64,151.5 C64,150.675 64.625,150 65.389,150 C66.184,150 67.058,148.505 67.434,146.5 C67.827,144.405 68.675,143 69.545,143 C70.345,143 71,142.1 71,141 C71,139.889 71.667,139 72.5,139 C73.325,139 74,138.325 74,137.5 C74,136.667 74.889,136 76,136 C77.614,136 78,135.333 78,132.545 C78,129.389 78.302,129.034 81.5,128.434 C84.571,127.858 85,127.412 85,124.795 C85,122.654 85.564,121.665 87,121.29 C88.1,121.002 89,120.144 89,119.383 C89,118.623 89.675,118 90.5,118 C91.333,118 92,117.111 92,116 C92,114.667 92.667,114 94,114 C95.606,114 96,113.333 96,110.617 C96,108.074 96.497,107.103 98,106.71 C99.1,106.423 100,105.47 100,104.594 C100,103.717 100.675,103 101.5,103 C102.325,103 103,102.283 103,101.406 C103,100.53 103.9,99.577 105,99.29 C106.1,99.002 107,98.144 107,97.383 C107,96.623 107.675,96 108.5,96 C109.548,96 110,94.944 110,92.5 L110,89 L104.5,89 C100.528,89 99,89.378 99,90.361 C99,91.714 92.426,92.972 85.25,92.991 C83.032,92.997 82,93.476 82,94.5 C82,95.688 80.569,96 75.117,96 C69.013,96 68.172,96.233 67.696,98.055 C67.225,99.856 66.5,100.072 61.829,99.805 C56.594,99.505 56.494,99.441 56.181,96.174 C55.925,93.506 56.271,92.742 57.931,92.308 C59.069,92.01 60,91.144 60,90.383 C60,89.594 61.02,89 62.375,89 C66.88,89 71,87.746 71,86.375 C71,85.316 72.955,85 79.5,85 C86.068,85 88,84.686 88,83.617 C88,82.626 90.122,82.036 95.5,81.532 C100.968,81.02 103,80.446 103,79.415 C103,78.267 105.476,78 116.117,78 C129.231,78 129.233,78 128.63,80.25 C128.299,81.487 128.021,83.063 128.014,83.75 C128.006,84.438 127.325,85 126.5,85 C125.445,85 125,86.066 125,88.594 C125,91.346 124.532,92.31 123,92.71 C121.9,92.998 121,93.856 121,94.617 C121,95.377 120.377,96 119.617,96 C118.856,96 117.998,96.9 117.71,98 C117.423,99.1 116.47,100 115.594,100 C114.717,100 114,100.675 114,101.5 C114,102.325 113.325,103 112.5,103 C111.667,103 111,103.889 111,105 C111,106.333 110.333,107 109,107 C107.381,107 107,107.667 107,110.5 C107,113.333 106.619,114 105,114 C103.667,114 103,114.667 103,116 C103,117.111 102.333,118 101.5,118 C100.675,118 100,118.717 100,119.594 C100,120.47 99.1,121.423 98,121.71 C96.9,121.998 96,122.856 96,123.617 C96,124.377 95.375,125 94.611,125 C93.816,125 92.942,126.495 92.566,128.5 C92.173,130.595 91.325,132 90.455,132 C89.655,132 89,132.675 89,133.5 C89,134.325 88.283,135 87.406,135 C86.53,135 85.577,135.9 85.29,137 C85.002,138.1 84.144,139 83.383,139 C82.623,139 82,139.9 82,141 C82,142.333 81.333,143 80,143 C78.267,143 78,143.667 78,148 L78,153 L81.5,153 C83.944,153 85,152.548 85,151.5 C85,150.667 85.889,150 87,150 C88.111,150 89,149.333 89,148.5 C89,147.675 89.717,147 90.594,147 C91.47,147 92.423,146.1 92.71,145 C92.998,143.9 93.856,143 94.617,143 C95.377,143 96,142.1 96,141 C96,139.667 96.667,139 98,139 C99.111,139 100,138.333 100,137.5 C100,136.675 100.675,136 101.5,136 C102.333,136 103,135.111 103,134 C103,132.394 103.667,132 106.383,132 C108.926,132 109.897,131.503 110.29,130 C110.728,128.324 111.654,128 116,128 C120.346,128 121.272,128.324 121.71,130 C122.081,131.417 123.074,132 125.117,132 C127.745,132 128,132.309 128,135.5 C128,138.833 127.833,139 124.5,139 C122.056,139 121,138.548 121,137.5 C121,136.667 120.111,136 119,136 C117.889,136 117,136.667 117,137.5 C117,138.633 115.778,139 112,139 C107.667,139 107,139.267 107,141 C107,142.333 106.333,143 105,143 C103.667,143 103,143.667 103,145 C103,146.111 102.333,147 101.5,147 C100.675,147 100,147.675 100,148.5 C100,149.333 99.111,150 98,150 C96.242,150 96,150.667 96,155.5 L96,161 L99.5,161 C101.82,161 103,161.468 103,162.389 C103,163.184 104.495,164.058 106.5,164.434 C108.595,164.827 110,165.675 110,166.545 C110,167.345 110.9,168 112,168 C113.1,168 114,168.629 114,169.399 C114,170.396 116.005,170.998 121,171.5 C125.661,171.968 128,172.631 128,173.485 C128,174.359 130.15,174.904 134.75,175.197 C142.764,175.707 146,175.222 146,173.508 C146,172.237 150.254,171 154.625,171 C156.069,171 157,170.412 157,169.5 C157,168.348 158.278,168 162.5,168 C166.722,168 168,167.652 168,166.5 C168,165.588 168.931,165 170.375,165 C174.88,165 179,163.746 179,162.375 C179,161.619 179.675,161 180.5,161 C181.652,161 182,159.722 182,155.5 L182,150 L175,150 C169.707,150 168,150.337 168,151.383 C168,153.399 164.757,153.971 153.25,153.986 L143,154 L143,150 C143,146.667 143.333,146 145,146 C146.111,146 147,145.333 147,144.5 C147,143.318 148.399,143 153.594,143 C159.346,143 160.254,142.745 160.71,141 C161.142,139.351 162.074,139 166.031,139 L170.829,139 L171.532,131.5 C172.036,126.122 172.626,124 173.617,124 C174.706,124 175,121.77 175,113.5 L175,103 L164.406,103 C154.654,103 153.771,103.159 153.29,105 C152.831,106.756 151.926,107 145.883,107 L139,107 L139,103.611 C139,100.53 139.318,100.163 142.5,99.566 C144.595,99.173 146,98.325 146,97.455 C146,96.284 147.854,96 155.5,96 C162.881,96 165,95.694 165,94.629 C165,93.739 166.754,93.025 170,92.594 L175,91.931 L175,79.466 C175,67.667 175.107,67 177,67 C178.111,67 179,66.333 179,65.5 Z M63.504,45.978 L64.176,42 L69.088,42 C72.589,42 74,42.395 74,43.375 C74,44.746 78.12,46 82.625,46 C84.069,46 85,46.588 85,47.5 C85,48.621 86.201,49.003 89.75,49.014 C95.923,49.031 99,49.897 99,51.617 C99,52.377 99.9,53 101,53 C102.81,53 103,53.667 103,60 C103,65.556 102.69,67 101.5,67 C100.667,67 100,67.889 100,69 C100,70.333 99.333,71 98,71 C96.242,71 96,70.333 96,65.5 C96,60.667 95.758,60 94,60 C92.889,60 92,59.333 92,58.5 C92,57.321 90.446,56.961 84.75,56.817 C68.408,56.404 65.075,56.394 64.069,54.859 C63.762,54.392 63.672,53.783 63.495,52.978 C63.13,51.316 63.134,48.166 63.504,45.978 Z"/>
</svg>

