<svg xmlns="http://www.w3.org/2000/svg" width="300" height="300" viewBox="0 0 300 300" version="1.1">
  <defs/>
  <path d="M165,114.5 C165,113.675 165.675,113 166.5,113 C167.325,113 168,113.675 168,114.5 C168,115.583 169.111,116 172,116 C174.889,116 176,115.583 176,114.5 C176,113.284 177.611,113 184.5,113 L193,113 L193,123.5 C193,132.167 192.738,134 191.5,134 C190.452,134 190,135.056 190,137.5 L190,141 L197.375,141 C201.431,141 206.156,141.281 207.875,141.625 C210.862,142.222 211,142.465 211,147.125 C211,150.792 210.628,152 209.5,152 C208.445,152 208,153.066 208,155.594 C208,158.346 207.532,159.31 206,159.71 C204.9,159.998 204,160.856 204,161.617 C204,162.377 203.375,163 202.611,163 C201.816,163 200.942,164.495 200.566,166.5 C200.173,168.595 199.325,170 198.455,170 C197.655,170 197,170.9 197,172 C197,173.333 196.333,174 195,174 C193.667,174 193,174.667 193,176 C193,177.111 192.333,178 191.5,178 Q190,178 190,181 Q190,184 191.5,184 C192.325,184 193,183.325 193,182.5 C193,181.236 195.278,181 207.5,181 C219.722,181 222,180.764 222,179.5 C222,178.452 223.056,178 225.5,178 C227.82,178 229,178.468 229,179.389 C229,180.18 230.482,181.055 232.443,181.423 L235.886,182.069 L236.572,189.035 C237.055,193.934 237.665,196 238.629,196 C239.727,196 240,198.885 240,210.5 C240,222.722 240.236,225 241.5,225 C242.325,225 243,225.675 243,226.5 C243,227.325 243.85,228 244.889,228 C246.255,228 246.959,228.967 247.434,231.5 C247.827,233.595 248.675,235 249.545,235 C250.345,235 251,235.623 251,236.383 C251,237.144 251.9,238.002 253,238.29 C254.1,238.577 255,239.53 255,240.406 C255,241.283 255.675,242 256.5,242 C257.333,242 258,242.889 258,244 C258,245.333 258.667,246 260,246 C262.09,246 262.376,246.993 261.37,250.75 C260.562,253.763 255.483,253.954 254.71,251 C254.423,249.9 253.47,249 252.594,249 C251.717,249 251,248.325 251,247.5 C251,246.667 250.111,246 249,246 C247.667,246 247,245.333 247,244 C247,242.889 246.333,242 245.5,242 C244.675,242 244,241.325 244,240.5 C244,239.667 243.111,239 242,239 C240.889,239 240,238.333 240,237.5 C240,236.675 239.373,236 238.607,236 C237.841,236 236.955,236.675 236.638,237.5 C236.322,238.325 235.374,239 234.531,239 C233.36,239 233,240.177 233,244 C233,247.908 232.652,249 231.406,249 C230.53,249 229.577,249.9 229.29,251 C229.002,252.1 228.102,253 227.29,253 C226.477,253 225.577,253.9 225.29,255 C224.836,256.737 223.926,257 218.383,257 C213.376,257 212,257.323 212,258.5 C212,259.583 210.889,260 208,260 C205.111,260 204,259.583 204,258.5 C204,257.472 202.969,257 200.722,257 C198.682,257 196.798,256.245 195.732,255 C194.79,253.9 193.115,253 192.01,253 C190.89,253 190,252.336 190,251.5 C190,250.667 189.111,250 188,250 C186.667,250 186,249.333 186,248 C186,246.9 185.345,246 184.545,246 C183.675,246 182.827,244.595 182.434,242.5 C182.058,240.495 181.184,239 180.389,239 C179.625,239 179,238.1 179,237 C179,235.9 178.345,235 177.545,235 C176.675,235 175.827,233.595 175.434,231.5 C175.058,229.495 174.184,228 173.389,228 C172.468,228 172,226.82 172,224.5 C172,222.056 172.452,221 173.5,221 C174.333,221 175,220.111 175,219 C175,217.381 175.667,217 178.5,217 C181.333,217 182,217.381 182,219 C182,220.333 182.667,221 184,221 C185.727,221 186,221.667 186,225.883 C186,229.926 186.344,230.857 188,231.29 C189.665,231.725 190,232.654 190,236.827 C190,241.56 190.164,241.877 192.935,242.486 C195.109,242.963 196.031,243.865 196.492,245.963 C197.216,249.258 199.089,249.967 207.125,249.986 C214.649,250.005 219,249.048 219,247.375 C219,246.619 219.675,246 220.5,246 C221.333,246 222,245.111 222,244 C222,242.9 222.617,242 223.371,242 C224.261,242 224.975,240.246 225.406,237 C225.86,233.576 226.531,232 227.534,232 C228.34,232 229,231.1 229,230 C229,228.889 228.333,228 227.5,228 C226.675,228 226,227.365 226,226.588 C226,225.72 224.459,224.915 222,224.5 L218,223.824 L218,219.037 C218,214.476 218.147,214.221 221.125,213.625 C222.844,213.281 225.319,213 226.625,213 C228.939,213 229,212.781 229,204.5 C229,197.611 228.716,196 227.5,196 C226.667,196 226,195.111 226,194 C226,192.081 225.333,192 209.5,192 C196.118,192 193,192.261 193,193.383 C193,195.103 189.923,195.969 183.75,195.986 C180.379,195.996 179,196.402 179,197.384 C179,198.379 177.15,198.885 172.4,199.187 C167.538,199.497 165.549,200.055 164.85,201.304 C164.138,202.575 162.535,203 158.45,203 C154.272,203 153,203.35 153,204.5 C153,205.621 151.799,206.003 148.25,206.014 C142.077,206.031 139,206.897 139,208.617 C139,209.721 136.476,210 126.5,210 C114.667,210 114,210.107 114,212 C114,213.1 113.361,214 112.579,214 C111.798,214 110.862,215.35 110.5,217 C110.138,218.65 109.202,220 108.421,220 C107.639,220 107,220.942 107,222.094 C107,223.346 106.197,224.397 105,224.71 C103.9,224.998 103,225.856 103,226.617 C103,227.377 102.325,228 101.5,228 C100.675,228 100,228.717 100,229.594 C100,230.47 99.1,231.423 98,231.71 C96.9,231.998 96,232.803 96,233.5 C96,234.197 95.1,235.002 94,235.29 C92.9,235.577 92,236.53 92,237.406 C92,238.283 91.325,239 90.5,239 C89.675,239 89,239.675 89,240.5 C89,241.325 88.283,242 87.406,242 C86.53,242 85.577,242.9 85.29,244 C85,245.107 83.926,246 82.883,246 C81.848,246 81,246.655 81,247.455 C81,248.325 79.595,249.173 77.5,249.566 C75.495,249.942 74,250.816 74,251.611 C74,252.497 72.879,253 70.906,253 C68.654,253 67.671,253.544 67.29,255 C66.857,256.656 65.926,257 61.883,257 C58.209,257 57,257.371 57,258.5 C57,259.583 55.889,260 53,260 C50.111,260 49,259.583 49,258.5 C49,257.452 47.944,257 45.5,257 C43.056,257 42,256.548 42,255.5 C42,254.675 41.352,254 40.559,254 C38.47,254 37.926,252.62 38.629,249.103 C39.312,245.689 42,244.809 42,248 C42,249.111 42.667,250 43.5,250 C44.325,250 45,250.675 45,251.5 C45,252.652 46.278,253 50.5,253 C54.722,253 56,252.652 56,251.5 C56,250.445 57.066,250 59.594,250 C62.346,250 63.31,249.532 63.71,248 C64.103,246.497 65.074,246 67.617,246 C69.911,246 71,245.532 71,244.545 C71,243.675 72.405,242.827 74.5,242.434 C76.505,242.058 78,241.184 78,240.389 C78,239.625 78.675,239 79.5,239 C80.325,239 81,238.283 81,237.406 C81,236.53 81.9,235.577 83,235.29 C84.1,235.002 85,234.197 85,233.5 C85,232.803 85.9,231.998 87,231.71 C88.1,231.423 89,230.47 89,229.594 C89,228.717 89.675,228 90.5,228 C91.325,228 92,227.283 92,226.406 C92,225.53 92.9,224.577 94,224.29 C95.1,224.002 96,223.144 96,222.383 C96,221.623 96.625,221 97.389,221 C98.184,221 99.058,219.505 99.434,217.5 C99.827,215.405 100.675,214 101.545,214 C102.345,214 103,213.1 103,212 C103,210.667 103.667,210 105,210 C106.619,210 107,209.333 107,206.5 C107,204.18 107.468,203 108.389,203 C109.184,203 110.058,201.505 110.434,199.5 C110.827,197.405 111.675,196 112.545,196 C113.532,196 114,194.911 114,192.617 C114,190.074 114.497,189.103 116,188.71 C117.532,188.31 118,187.346 118,184.594 C118,182.066 118.445,181 119.5,181 C120.548,181 121,179.944 121,177.5 C121,175.187 121.469,174 122.383,174 C124.34,174 124.971,170.791 124.986,160.75 C124.997,153.645 125.282,152 126.5,152 C127.548,152 128,150.944 128,148.5 C128,145.215 128.2,145.001 131.25,145.014 C136,145.034 139,146.041 139,147.617 C139,148.513 140.143,148.995 142.25,148.986 C147,148.966 150,147.959 150,146.383 C150,145.337 151.707,145 157,145 C162.262,145 164,144.66 164,143.629 C164,142.664 166.073,142.054 171,141.569 C176.105,141.066 178,140.489 178,139.439 C178,138.648 178.9,138 180,138 C181.758,138 182,137.333 182,132.5 C182,128.278 181.652,127 180.5,127 C179.675,127 179,126.325 179,125.5 C179,124.247 176.944,124 166.5,124 C156.056,124 154,124.247 154,125.5 C154,126.652 152.722,127 148.5,127 C143.636,127 143,127.235 143,129.034 C143,130.97 142.486,131.054 132.25,130.784 L121.5,130.5 L121.198,125.25 L120.895,120 L128.448,120 C134.189,120 136,119.67 136,118.625 C136,116.678 140.554,116 153.625,116 C163.069,116 165,115.745 165,114.5 Z M168,150.5 C168,151.412 167.069,152 165.625,152 C161.12,152 157,153.254 157,154.625 C157,155.606 155.585,156 152.06,156 L147.121,156 L146.81,159.75 L146.5,163.5 L141.376,163.169 L136.253,162.839 L135.581,166.419 C135.176,168.578 134.332,170 133.455,170 C132.358,170 132,171.354 132,175.5 C132,179.57 131.633,181 130.588,181 C129.72,181 128.915,182.541 128.5,185 C128.085,187.459 127.28,189 126.412,189 C125.522,189 125,190.067 125,191.883 C125,193.958 124.42,194.919 122.931,195.308 C121.281,195.739 120.927,196.506 121.181,199.097 C121.551,202.862 123.875,204.195 124.683,201.105 C125.175,199.222 125.959,199 132.117,199 C137.309,199 139,198.66 139,197.617 C139,196.626 141.122,196.036 146.5,195.532 C151.968,195.02 154,194.446 154,193.415 C154,192.33 155.632,192 161,192 C166.459,192 168,191.68 168,190.545 C168,189.675 169.405,188.827 171.5,188.434 C173.425,188.073 175,187.205 175,186.505 C175,185.806 175.9,184.998 177,184.71 C178.456,184.329 179,183.346 179,181.094 C179,179.01 179.49,178 180.5,178 C181.333,178 182,177.111 182,176 C182,174.667 182.667,174 184,174 C185.619,174 186,173.333 186,170.5 C186,167.667 186.381,167 188,167 C189.333,167 190,166.333 190,165 C190,163.889 190.667,163 191.5,163 C192.548,163 193,161.944 193,159.5 C193,156.625 193.37,156 195.073,156 C196.508,156 197.044,155.461 196.815,154.25 C196.223,151.122 183,151.404 183,154.545 C183,155.576 181.834,156 179,156 C176.261,156 175,155.564 175,154.617 C175,153.856 174.1,152.998 173,152.71 C171.9,152.423 171,151.47 171,150.594 C171,149.717 170.325,149 169.5,149 C168.675,149 168,149.675 168,150.5 Z M168,42.5 C168,41.409 169.126,41 172.13,41 L176.26,41 L175.747,45.549 C175.465,48.052 174.979,50.354 174.667,50.667 C174.354,50.979 172.052,51.465 169.549,51.747 C166.614,52.078 165,52.746 165,53.63 C165,54.384 164.1,55 163,55 C161.667,55 161,55.667 161,57 C161,58.333 160.333,59 159,59 C157.889,59 157,59.667 157,60.5 C157,61.325 156.325,62 155.5,62 C154.667,62 154,62.889 154,64 C154,65.333 153.333,66 152,66 C150.667,66 150,66.667 150,68 C150,69.111 149.333,70 148.5,70 C147.675,70 147,70.717 147,71.594 C147,72.47 146.1,73.423 145,73.71 C143.9,73.998 143,74.856 143,75.617 C143,76.377 142.377,77 141.617,77 C140.856,77 139.998,77.9 139.71,79 C139.423,80.1 138.506,81 137.673,81 C136.804,81 135.878,82.278 135.5,84 C135.138,85.65 134.202,87 133.421,87 C132.639,87 132,87.848 132,88.883 C132,89.926 131.107,91 130,91.29 C128.9,91.577 128,92.53 128,93.406 C128,94.283 127.325,95 126.5,95 C125.675,95 125,95.623 125,96.383 C125,97.144 124.1,98.002 123,98.29 C121.9,98.577 121,99.53 121,100.406 C121,101.283 120.325,102 119.5,102 C118.675,102 118,102.717 118,103.594 C118,104.47 117.1,105.423 116,105.71 C114.9,105.998 114,106.856 114,107.617 C114,108.377 113.375,109 112.611,109 C111.816,109 110.942,110.495 110.566,112.5 C109.966,115.698 109.611,116 106.455,116 L103,116 L103,111 C103,106.667 103.267,106 105,106 C106.333,106 107,105.333 107,104 C107,102.889 107.667,102 108.5,102 C109.325,102 110,101.283 110,100.406 C110,99.53 110.9,98.577 112,98.29 C113.1,98.002 114,97.144 114,96.383 C114,95.623 114.675,95 115.5,95 C116.325,95 117,94.283 117,93.406 C117,92.53 117.858,91.588 118.906,91.314 C120.12,90.997 121.044,89.579 121.451,87.408 C121.831,85.386 122.682,84 123.545,84 C124.345,84 125,83.325 125,82.5 C125,81.675 125.717,81 126.594,81 C127.47,81 128.423,80.1 128.71,79 C128.998,77.9 129.856,77 130.617,77 C131.377,77 132,76.1 132,75 C132,73.667 132.667,73 134,73 C135.333,73 136,72.333 136,71 C136,69.889 136.667,69 137.5,69 C138.325,69 139,68.325 139,67.5 C139,66.667 139.889,66 141,66 C142.619,66 143,65.333 143,62.5 C143,59.167 143.167,59 146.5,59 C149.811,59 150,58.817 150,55.611 C150,52.53 150.318,52.163 153.5,51.566 C155.595,51.173 157,50.325 157,49.455 C157,48.655 157.9,48 159,48 C160.333,48 161,47.333 161,46 C161,44.381 161.667,44 164.5,44 C166.944,44 168,43.548 168,42.5 Z M202.75,62.679 C206.74,61.612 207.492,62.38 207.805,67.839 C208.072,72.5 207.856,73.225 206.055,73.696 C204.581,74.081 204,75.049 204,77.117 C204,79.088 203.496,80 202.406,80 C201.53,80 200.577,80.9 200.29,82 C200.002,83.1 199.144,84 198.383,84 C197.623,84 197,84.717 197,85.594 C197,86.47 196.1,87.423 195,87.71 C193.9,87.998 193,88.856 193,89.617 C193,90.377 192.325,91 191.5,91 C190.667,91 190,91.889 190,93 C190,94.333 189.333,95 188,95 C186.381,95 186,95.667 186,98.5 C186,100.813 185.531,102 184.617,102 C183.856,102 182.998,102.9 182.71,104 C182.423,105.1 181.47,106 180.594,106 C179.717,106 179,106.675 179,107.5 C179,108.333 178.111,109 177,109 C175.19,109 175,108.333 175,102 C175,96.444 174.69,95 173.5,95 C172.675,95 172,94.283 172,93.406 C172,92.53 171.1,91.577 170,91.29 C168.893,91 168,89.926 168,88.883 C168,87.848 167.325,87 166.5,87 C165.675,87 165,86.325 165,85.5 C165,84.667 164.111,84 163,84 C161.667,84 161,83.333 161,82 C161,80.889 160.333,80 159.5,80 C158.675,80 158,79.325 158,78.5 C158,77.675 158.398,77 158.883,77 C159.369,77 160.002,76.1 160.29,75 C160.659,73.587 161.647,73.004 163.656,73.014 C168.026,73.035 171,74.089 171,75.617 C171,76.377 171.9,77 173,77 C174.333,77 175,77.667 175,79 C175,80.1 175.655,81 176.455,81 C177.325,81 178.173,82.405 178.566,84.5 C179.163,87.682 179.53,88 182.611,88 C185.795,88 186,87.796 186,84.617 C186,82.074 186.497,81.103 188,80.71 C189.1,80.423 190,79.47 190,78.594 C190,77.717 190.675,77 191.5,77 C192.333,77 193,76.111 193,75 C193,73.667 193.667,73 195,73 C196.1,73 197,72.375 197,71.611 C197,70.816 198.495,69.942 200.5,69.566 C203.95,68.919 205.587,66 202.5,66 C200.408,66 200.615,63.249 202.75,62.679 Z M150,211.389 C150,210.625 150.675,210 151.5,210 C152.325,210 153,210.717 153,211.594 C153,212.47 153.9,213.423 155,213.71 C156.662,214.145 157,215.074 157,219.21 C157,223.346 157.338,224.276 159,224.71 C160.647,225.141 161,226.074 161,230 C161,233.926 161.353,234.859 163,235.29 C164.532,235.69 165,236.654 165,239.406 C165,241.934 165.445,243 166.5,243 C167.487,243 168,243.987 168,245.883 C168,248.028 167.424,248.921 165.75,249.37 C161.993,250.376 161,250.09 161,248 C161,246.667 160.333,246 159,246 C157.381,246 157,245.333 157,242.5 C157,240.18 156.532,239 155.611,239 C154.816,239 153.942,237.505 153.566,235.5 C153.173,233.405 152.325,232 151.455,232 C150.459,232 150,230.896 150,228.5 C150,226.056 149.548,225 148.5,225 C147.667,225 147,224.111 147,223 C147,221.667 146.333,221 145,221 C143.386,221 143,220.333 143,217.545 C143,214.389 143.302,214.034 146.5,213.434 C148.505,213.058 150,212.184 150,211.389 Z M114,229.383 C114,228.623 114.9,228 116,228 C117.111,228 118,228.667 118,229.5 C118,230.325 118.675,231 119.5,231 C120.325,231 121,231.8 121,232.778 C121,233.756 121.9,235.326 123,236.268 C124.383,237.452 125,239.218 125,241.99 C125,244.888 125.416,246 126.5,246 C127.548,246 128,247.056 128,249.5 C128,252.822 128.175,253 131.441,253 C135.453,253 136.302,253.95 135.422,257.454 C134.846,259.748 134.299,260 129.892,260 C126.21,260 125,259.629 125,258.5 C125,257.667 124.111,257 123,257 C121.667,257 121,256.333 121,255 C121,253.9 120.345,253 119.545,253 C118.675,253 117.827,251.595 117.434,249.5 C117.058,247.495 116.184,246 115.389,246 C114.625,246 114,245.1 114,244 C114,242.9 113.377,242 112.617,242 C111.089,242 110.035,239.026 110.014,234.656 C110.004,232.647 110.587,231.659 112,231.29 C113.1,231.002 114,230.144 114,229.383 Z M139,86 C139,84.333 139.667,84 143,84 C145.789,84 147,84.43 147,85.421 C147,86.202 148.35,87.138 150,87.5 C151.65,87.862 153,88.798 153,89.579 C153,90.361 153.9,91 155,91 C156.333,91 157,91.667 157,93 C157,94.758 157.667,95 162.5,95 L168,95 L168,102 L159,102 C151.761,102 150,101.713 150,100.534 C150,99.531 148.424,98.86 145,98.406 C141.754,97.975 140,97.261 140,96.371 C140,95.617 139.1,95 138,95 C136.381,95 136,94.333 136,91.5 C136,89.056 136.452,88 137.5,88 C138.333,88 139,87.111 139,86 Z"/>
</svg>

