<svg xmlns="http://www.w3.org/2000/svg" width="300" height="300" viewBox="0 0 300 300" version="1.1">
  <defs/>
  <path d="M120,114.5 C120,113.31 121.444,113 127,113 C132.425,113 134,113.324 134,114.44 C134,115.381 135.296,115.987 137.742,116.19 C140.357,116.407 141.583,117.027 141.815,118.25 C142.111,119.812 141.174,120 133.073,120 C124.667,120 124,120.147 124,122 C124,123.333 123.333,124 122,124 C120.381,124 120,124.667 120,127.5 C120,129.944 119.548,131 118.5,131 C117.452,131 117,132.056 117,134.5 C117,137.833 117.167,138 120.5,138 C122.776,138 124,137.527 124,136.647 C124,134.769 134.509,134 160.151,134 C180.333,134 181,134.064 181,136 C181,137.333 181.667,138 183,138 C184.333,138 185,138.667 185,140 C185,141.111 184.333,142 183.5,142 C182.675,142 182,142.675 182,143.5 C182,144.583 180.889,145 178,145 C175.111,145 174,144.583 174,143.5 C174,142.278 172.333,142 165,142 C157.667,142 156,142.278 156,143.5 C156,144.548 154.944,145 152.5,145 C150.056,145 149,144.548 149,143.5 C149,142.667 148.111,142 147,142 C145.889,142 145,142.667 145,143.5 C145,144.747 143.022,145.002 133.25,145.014 C118.75,145.031 117.294,145.386 116.478,149.102 C116.128,150.696 115.252,152 114.532,152 C113.812,152 112.935,153.532 112.584,155.403 C112.233,157.275 111.283,159.061 110.473,159.372 C109.369,159.796 109,161.699 109,166.969 C109,172.552 108.691,174 107.5,174 C106.379,174 105.997,175.201 105.986,178.75 C105.969,184.923 105.103,188 103.383,188 C102.359,188 102,189.558 102,194 C102,198.416 101.638,200 100.629,200 C99.739,200 99.025,201.754 98.594,205 C98.14,208.424 97.469,210 96.466,210 C94.376,210 94.643,212.967 96.75,213.161 C97.713,213.249 121.112,213.362 148.748,213.411 L198.997,213.5 L198.998,210.25 C198.999,208.162 198.51,207 197.628,207 C196.8,207 196.002,205.413 195.616,203 C195.202,200.412 194.451,199 193.488,199 C192.454,199 192,197.932 192,195.5 C192,193.104 191.541,192 190.545,192 C189.675,192 188.827,190.595 188.434,188.5 C188.058,186.495 187.184,185 186.389,185 C185.468,185 185,183.82 185,181.5 C185,178.667 184.619,178 183,178 C181.667,178 181,177.333 181,176 C181,174.667 180.333,174 179,174 C177.667,174 177,173.333 177,172 C177,170.889 176.333,170 175.5,170 C174.675,170 174,169.325 174,168.5 C174,167.667 173.111,167 172,167 C170.667,167 170,166.333 170,165 C170,163.889 169.333,163 168.5,163 C167.452,163 167,161.944 167,159.5 L167,156 L172.5,156 C176.722,156 178,156.348 178,157.5 C178,158.325 178.675,159 179.5,159 C180.333,159 181,159.889 181,161 C181,162.333 181.667,163 183,163 C184.333,163 185,163.667 185,165 C185,166.111 185.667,167 186.5,167 C187.325,167 188,167.717 188,168.594 C188,169.47 188.9,170.423 190,170.71 C191.417,171.081 192,172.074 192,174.117 C192,176.333 192.462,177 194,177 C195.333,177 196,177.667 196,179 C196,180.111 196.667,181 197.5,181 C198.325,181 199,181.717 199,182.594 C199,183.47 199.9,184.423 201,184.71 C202.1,184.998 203,185.856 203,186.617 C203,187.377 203.9,188 205,188 C206.333,188 207,188.667 207,190 C207,191.111 207.667,192 208.5,192 C209.325,192 210,192.625 210,193.389 C210,194.184 211.495,195.058 213.5,195.434 C216.698,196.034 217,196.389 217,199.545 C217,202.333 217.386,203 219,203 C220.758,203 221,203.667 221,208.5 C221,213.333 220.758,214 219,214 C217.667,214 217,213.333 217,212 C217,210.889 216.333,210 215.5,210 C214.675,210 214,209.283 214,208.406 C214,207.53 213.1,206.577 212,206.29 C210.9,206.002 210,205.144 210,204.383 C210,203.623 209.325,203 208.5,203 C207.675,203 207,202.283 207,201.406 C207,200.53 206.1,199.577 205,199.29 C203.9,199.002 203,198.144 203,197.383 C203,196.623 202.1,196 201,196 C199.381,196 199,196.667 199,199.5 C199,202.333 199.381,203 201,203 C202.619,203 203,203.667 203,206.5 C203,209.333 203.381,210 205,210 C206.758,210 207,210.667 207,215.5 C207,220.333 206.758,221 205,221 C203.889,221 203,221.667 203,222.5 C203,223.7 201.5,224 195.5,224 C189.5,224 188,223.7 188,222.5 C188,221.452 186.944,221 184.5,221 C182.056,221 181,221.452 181,222.5 C181,223.548 179.944,224 177.5,224 C175.056,224 174,223.548 174,222.5 C174,221.348 172.722,221 168.5,221 C164.278,221 163,221.348 163,222.5 C163,223.762 160.778,224 149,224 C137.222,224 135,223.762 135,222.5 C135,221.417 133.889,221 131,221 C128.111,221 127,221.417 127,222.5 C127,223.695 125.524,224.002 119.75,224.009 C108.881,224.022 102,225.042 102,226.639 C102,227.704 99.611,228 91,228 L80,228 L80,224.5 C80,221.667 80.381,221 82,221 C83.606,221 84,220.333 84,217.617 C84,215.074 84.497,214.103 86,213.71 C87.456,213.329 88,212.346 88,210.094 C88,208.01 88.49,207 89.5,207 C90.648,207 91,205.735 91,201.617 C91,197.074 91.312,196.152 93,195.71 C94.67,195.274 95,194.346 95,190.094 C95,186.233 95.363,185 96.5,185 C97.565,185 98.003,183.913 98.009,181.25 C98.026,173.622 99.249,167 100.639,167 C101.657,167 102,165.237 102,160 C102,154.444 102.31,153 103.5,153 C104.333,153 105,152.111 105,151 C105,149.157 104.333,149 96.5,149 L88,149 L88,145.545 C88,142.389 88.302,142.034 91.5,141.434 C93.505,141.058 95,140.184 95,139.389 C95,138.372 96.474,138 100.5,138 C104.722,138 106,137.652 106,136.5 C106,135.675 106.675,135 107.5,135 C108.583,135 109,133.889 109,131 C109,127.667 109.333,127 111,127 C112.619,127 113,126.333 113,123.5 C113,121.056 113.452,120 114.5,120 C115.333,120 116,119.111 116,118 C116,116.667 116.667,116 118,116 C119.111,116 120,115.333 120,114.5 Z M112,73.673 C112.825,73.332 116.358,73.177 119.85,73.33 C124.582,73.537 126.443,74.04 127.15,75.304 C127.926,76.69 129.644,77 136.55,77 C143.394,77 145,77.285 145,78.5 C145,79.652 146.278,80 150.5,80 C155.333,80 156,80.242 156,82 C156,83.606 156.667,84 159.383,84 C161.926,84 162.897,84.497 163.29,86 C163.577,87.1 164.53,88 165.406,88 C166.561,88 167,88.964 167,91.5 C167,93.944 167.452,95 168.5,95 C169.548,95 170,96.056 170,98.5 C170,100.944 169.548,102 168.5,102 C167.452,102 167,103.056 167,105.5 C167,108.333 166.619,109 165,109 C163.242,109 163,108.333 163,103.5 C163,99.278 162.652,98 161.5,98 C160.675,98 160,97.325 160,96.5 C160,95.667 159.111,95 158,95 C156.667,95 156,94.333 156,93 C156,91.667 155.333,91 154,91 C152.889,91 152,90.333 152,89.5 C152,88.337 150.681,88 146.125,88 C138.342,88 134,87.06 134,85.375 C134,84.296 131.742,84 123.5,84 L113,84 L113,87.5 C113,90.333 112.619,91 111,91 C109.889,91 109,90.333 109,89.5 C109,88.675 108.325,88 107.5,88 C106.348,88 106,86.722 106,82.5 C106,78.362 106.359,77 107.45,77 C108.248,77 109.26,76.391 109.7,75.647 C110.14,74.902 111.175,74.014 112,73.673 Z"/>
</svg>

