<svg xmlns="http://www.w3.org/2000/svg" width="300" height="300" viewBox="0 0 300 300" version="1.1">
  <defs/>
  <path d="M178,53.5 C178,52.452 179.056,52 181.5,52 L185,52 L185,59 C185,65.333 184.81,66 183,66 C181.394,66 181,66.667 181,69.383 C181,71.926 180.503,72.897 179,73.29 C177.9,73.577 177,74.53 177,75.406 C177,76.283 176.325,77 175.5,77 C174.667,77 174,77.889 174,79 C174,80.1 173.345,81 172.545,81 C171.675,81 170.827,82.405 170.434,84.5 C170.058,86.505 169.184,88 168.389,88 C167.468,88 167,89.18 167,91.5 C167,94.333 166.619,95 165,95 C163.667,95 163,95.667 163,97 C163,98.111 162.333,99 161.5,99 C160.49,99 160,100.01 160,102.094 C160,104.346 159.456,105.329 158,105.71 C156.497,106.103 156,107.074 156,109.617 C156,111.957 155.538,113 154.5,113 C153.675,113 153,113.717 153,114.594 C153,115.47 152.1,116.423 151,116.71 C149.497,117.103 149,118.074 149,120.617 C149,122.911 148.532,124 147.545,124 C146.675,124 145.827,125.405 145.434,127.5 C145.058,129.505 144.184,131 143.389,131 C142.334,131 142,132.708 142,138.094 C142,144.346 141.763,145.249 140,145.71 C138.9,145.998 138,146.631 138,147.117 C138,147.602 137.283,148 136.406,148 C135.53,148 134.577,148.9 134.29,150 C134.002,151.1 133.144,152 132.383,152 C131.623,152 131,152.9 131,154 C131,155.758 130.333,156 125.5,156 L120,156 L120,152.5 C120,150.056 120.452,149 121.5,149 C122.325,149 123,148.325 123,147.5 C123,145.715 120.342,145.474 119.764,147.207 C119.518,147.946 116.579,148.571 112.181,148.82 C107.094,149.107 105,149.612 105,150.549 C105,151.312 103.622,152.006 101.75,152.187 C98.783,152.473 98.473,152.826 98.19,156.25 C97.987,158.703 97.381,160 96.44,160 C95.247,160 95,162.743 95,176 L95,192 L102,192 C107.368,192 109,191.67 109,190.585 C109,189.554 111.032,188.98 116.5,188.468 C121.878,187.964 124,187.374 124,186.383 C124,185.544 125.083,184.995 126.75,184.986 C131.032,184.965 134,183.899 134,182.383 C134,181.375 135.477,181 139.455,181 C144.897,181 144.911,180.992 145.566,177.5 C145.942,175.495 146.816,174 147.611,174 C148.375,174 149,173.1 149,172 C149,170.381 149.667,170 152.5,170 C154.944,170 156,169.548 156,168.5 C156,167.278 157.667,167 165,167 C171.996,167 174,166.692 174,165.617 C174,163.584 177.253,163.029 189.25,163.014 C198.133,163.002 200,162.739 200,161.5 C200,160.321 201.389,160 206.5,160 C211.611,160 213,160.321 213,161.5 C213,162.722 214.667,163 222,163 C229.568,163 231,163.254 231,164.594 C231,165.47 231.9,166.423 233,166.71 C234.688,167.152 235,168.074 235,172.617 C235,176.601 234.631,178 233.579,178 C232.798,178 231.862,179.35 231.5,181 C231.138,182.65 230.202,184 229.421,184 C228.639,184 228,184.9 228,186 C228,187.163 227.333,188 226.406,188 C225.53,188 224.577,188.9 224.29,190 C224.002,191.1 223.197,192 222.5,192 C221.803,192 220.998,192.9 220.71,194 C220.423,195.1 219.47,196 218.594,196 C217.717,196 217,196.675 217,197.5 C217,198.325 216.325,199 215.5,199 C214.667,199 214,199.889 214,201 C214,202.333 213.333,203 212,203 C210.667,203 210,203.667 210,205 C210,206.111 209.333,207 208.5,207 C207.675,207 207,207.675 207,208.5 C207,209.333 206.111,210 205,210 C203.667,210 203,210.667 203,212 C203,213.333 202.333,214 201,214 C199.889,214 199,214.667 199,215.5 C199,216.325 198.377,217 197.617,217 C196.856,217 195.998,217.9 195.71,219 C195.423,220.1 194.47,221 193.594,221 C192.439,221 192,221.964 192,224.5 L192,228 L197.5,228 C201.646,228 203,228.358 203,229.455 C203,230.325 204.405,231.173 206.5,231.566 C208.505,231.942 210,232.816 210,233.611 C210,234.628 211.474,235 215.5,235 C220.333,235 221,235.242 221,237 C221,238.619 221.667,239 224.5,239 C227.333,239 228,239.381 228,241 C228,242.111 228.667,243 229.5,243 C230.325,243 231,243.675 231,244.5 C231,245.325 230.325,246 229.5,246 C228.667,246 228,246.889 228,248 C228,249.629 227.333,250 224.406,250 C221.654,250 220.69,249.532 220.29,248 C219.897,246.497 218.926,246 216.383,246 C214.169,246 213,245.522 213,244.617 C213,243.101 210.032,242.035 205.75,242.014 C203.978,242.005 203,241.466 203,240.5 C203,239.348 201.722,239 197.5,239 C192.667,239 192,238.758 192,237 C192,235.178 191.333,235 184.5,235 C178.605,235 177,234.689 177,233.546 C177,232.446 175.354,232.019 170.25,231.796 L163.5,231.5 L163.19,227.75 C162.923,224.53 163.17,224 164.94,224 C166.104,224 167,223.348 167,222.5 C167,221.283 168.622,221 175.594,221 C183.346,221 184.238,220.804 184.71,219 C184.998,217.9 185.856,217 186.617,217 C187.377,217 188,216.325 188,215.5 C188,214.667 188.889,214 190,214 C191.333,214 192,213.333 192,212 C192,210.667 192.667,210 194,210 C195.333,210 196,209.333 196,208 C196,206.889 196.667,206 197.5,206 C198.325,206 199,205.325 199,204.5 C199,203.675 199.717,203 200.594,203 C201.47,203 202.423,202.1 202.71,201 C202.998,199.9 203.803,199 204.5,199 C205.197,199 206.002,198.1 206.29,197 C206.577,195.9 207.53,195 208.406,195 C209.283,195 210,194.325 210,193.5 C210,192.675 210.623,192 211.383,192 C212.144,192 213.002,191.1 213.29,190 C213.577,188.9 214.53,188 215.406,188 C216.336,188 217,187.162 217,185.99 C217,184.885 217.9,183.21 219,182.268 C220.1,181.326 221,179.981 221,179.278 C221,178.575 221.675,178 222.5,178 C223.537,178 224,176.959 224,174.629 L224,171.258 L217.938,170.573 C208.687,169.526 188,170.956 188,172.642 C188,173.657 186.231,174 181,174 C175.707,174 174,174.337 174,175.383 C174,177.142 170.902,177.969 164.25,177.986 C160.256,177.997 159,178.359 159,179.5 C159,180.325 158.325,181 157.5,181 C156.675,181 156,180.325 156,179.5 C156,178.452 154.944,178 152.5,178 C149.167,178 149,178.167 149,181.5 C149,184.333 148.619,185 147,185 C145.889,185 145,185.667 145,186.5 C145,187.466 144.022,188.005 142.25,188.014 C137.968,188.035 135,189.101 135,190.617 C135,191.564 133.739,192 131,192 C128.261,192 127,192.436 127,193.383 C127,194.899 124.032,195.965 119.75,195.986 C117.978,195.995 117,196.534 117,197.5 C117,198.655 115.712,199 111.406,199 C106.654,199 105.734,199.301 105.29,201 C104.919,202.417 103.926,203 101.883,203 C100.067,203 99,203.522 99,204.412 C99,205.28 97.459,206.085 95,206.5 C92.541,206.915 91,207.72 91,208.588 C91,209.535 89.848,210 87.5,210 C84.667,210 84,210.381 84,212 C84,213.333 83.333,214 82,214 C80.889,214 80,214.667 80,215.5 C80,216.69 78.556,217 73,217 L66,217 L66,213.5 C66,211.187 66.469,210 67.383,210 C68.144,210 69.002,209.1 69.29,208 C69.671,206.544 70.654,206 72.906,206 C74.99,206 76,205.51 76,204.5 C76,203.667 76.889,203 78,203 C79.333,203 80,202.333 80,201 C80,199.394 80.667,199 83.383,199 C86.047,199 86.895,198.521 87.37,196.75 C87.701,195.513 87.979,185.838 87.986,175.25 L88,156 L84.5,156 C82.197,156 81,156.47 81,157.375 C81,158.948 76.741,160 70.375,160 C66.667,160 66,159.695 66,158 C66,156.889 65.333,156 64.5,156 C63.675,156 63,155.325 63,154.5 C63,153.675 63.675,153 64.5,153 C65.325,153 66,152.15 66,151.111 C66,149.755 66.959,149.043 69.403,148.584 C71.275,148.233 73.061,147.283 73.372,146.473 C73.796,145.369 75.699,145 80.969,145 L88,145 L88,139.5 C88,135.278 88.348,134 89.5,134 C90.722,134 91,132.333 91,125 C91,116.667 91.148,116 93,116 C94.111,116 95,115.333 95,114.5 C95,113.348 96.278,113 100.5,113 L106,113 L106,116.5 C106,119.333 105.619,120 104,120 C102.889,120 102,120.667 102,121.5 C102,122.325 101.365,123 100.59,123 C99.541,123 98.996,125.2 98.465,131.575 C98.072,136.292 98.144,140.531 98.625,140.996 C100.033,142.356 109,140.95 109,139.37 C109,138.298 111.258,138 119.383,138 C128.926,138 129.809,137.838 130.29,136 C130.577,134.9 131.53,134 132.406,134 C133.561,134 134,133.036 134,130.5 C134,127.667 134.381,127 136,127 C137.619,127 138,126.333 138,123.5 C138,120.667 138.381,120 140,120 C141.333,120 142,119.333 142,118 C142,116.889 142.667,116 143.5,116 C144.548,116 145,114.944 145,112.5 C145,109.667 145.381,109 147,109 C148.619,109 149,108.333 149,105.5 C149,103.056 149.452,102 150.5,102 C151.333,102 152,101.111 152,100 C152,98.667 152.667,98 154,98 C155.619,98 156,97.333 156,94.5 C156,92.104 156.459,91 157.455,91 C158.325,91 159.173,89.595 159.566,87.5 C159.942,85.495 160.816,84 161.611,84 C162.523,84 163,82.837 163,80.617 C163,78.074 163.497,77.103 165,76.71 C166.456,76.329 167,75.346 167,73.094 C167,71.01 167.49,70 168.5,70 C169.555,70 170,68.934 170,66.406 C170,63.654 170.468,62.69 172,62.29 C173.503,61.897 174,60.926 174,58.383 C174,55.667 174.394,55 176,55 C177.111,55 178,54.333 178,53.5 Z M177.667,80.667 C178.033,80.3 180.55,80 183.26,80 C187.346,80 188.277,80.341 188.71,82 C189.103,83.503 190.074,84 192.617,84 C194.911,84 196,84.468 196,85.455 C196,86.325 197.405,87.173 199.5,87.566 C201.505,87.942 203,88.816 203,89.611 C203,90.532 204.18,91 206.5,91 C209.333,91 210,91.381 210,93 C210,94.619 210.667,95 213.5,95 C215.82,95 217,95.468 217,96.389 C217,97.184 218.495,98.058 220.5,98.434 C222.595,98.827 224,99.675 224,100.545 C224,101.345 224.9,102 226,102 C227.333,102 228,102.667 228,104 C228,105.111 228.667,106 229.5,106 C230.633,106 231,107.222 231,111 L231,116 L227.5,116 C224.309,116 224,115.745 224,113.117 C224,111.074 223.417,110.081 222,109.71 C220.9,109.423 220,108.528 220,107.722 C220,106.72 218.422,106.048 215,105.594 C211.576,105.14 210,104.469 210,103.466 C210,102.457 208.908,102 206.5,102 L203,102 L203,109 C203,114.556 203.31,116 204.5,116 C205.742,116 206,117.889 206,127 C206,136.111 205.742,138 204.5,138 C203.462,138 203,139.043 203,141.383 C203,143.926 202.503,144.897 201,145.29 C199.468,145.69 199,146.654 199,149.406 C199,151.934 198.555,153 197.5,153 C196.675,153 196,153.675 196,154.5 C196,155.333 195.111,156 194,156 C192.381,156 192,155.333 192,152.5 C192,150.056 192.452,149 193.5,149 C194.412,149 195,148.069 195,146.625 C195,142.12 196.254,138 197.625,138 C198.69,138 199,135.97 199,129 C199,121.667 198.722,120 197.5,120 C196.363,120 196,118.767 196,114.906 C196,110.654 195.67,109.726 194,109.29 C192.344,108.857 192,107.926 192,103.883 C192,100.209 191.629,99 190.5,99 C189.667,99 189,98.111 189,97 C189,95.708 188.333,95 187.117,95 C186.074,95 185,94.107 184.71,93 C184.335,91.565 183.346,91 181.21,91 C178.968,91 178.084,90.444 177.63,88.75 C176.823,85.739 176.842,81.491 177.667,80.667 Z M116,96.5 C116,95.667 116.889,95 118,95 C119.111,95 120,95.667 120,96.5 C120,97.555 121.066,98 123.594,98 C126.346,98 127.31,98.468 127.71,100 C127.998,101.1 128.856,102 129.617,102 C130.531,102 131,103.187 131,105.5 C131,108.833 130.833,109 127.5,109 C125.153,109 124,108.535 124,107.589 C124,105.939 116.298,105.295 103.25,105.853 C97.021,106.119 95,106.548 95,107.603 C95,108.714 92.752,109 84,109 C73.667,109 73,109.121 73,111 C73,112.619 72.333,113 69.5,113 L66,113 L66,107.5 C66,103.278 66.348,102 67.5,102 C68.325,102 69,101.381 69,100.625 C69,98.469 73.756,98 95.625,98 C113.069,98 116,97.784 116,96.5 Z"/>
</svg>

