<svg xmlns="http://www.w3.org/2000/svg" width="300" height="300" viewBox="0 0 300 300" version="1.1">
  <defs/>
  <path d="M141.324,46.868 C141.759,45.207 142.392,44.873 144.191,45.354 C145.461,45.694 147.063,45.979 147.75,45.986 C149.668,46.007 149.506,66.616 147.58,67.7 C146.798,68.14 145.85,69.737 145.471,71.25 L144.783,74 L155.892,74 C164.968,74 167,73.733 167,72.539 C167,71.391 168.874,71.016 175.75,70.789 L184.5,70.5 L184.81,66.75 C185.013,64.297 185.619,63 186.56,63 C187.352,63 188,62.325 188,61.5 C188,59.036 194.634,59.491 195.29,62 C195.693,63.541 196.654,64 199.48,64 C202.435,64 203.081,64.34 202.807,65.75 C202.561,67.017 201.505,67.5 198.983,67.5 C196.554,67.5 195.5,67.954 195.5,69 C195.5,70.046 196.554,70.5 198.983,70.5 C201.505,70.5 202.561,70.983 202.807,72.25 C203.051,73.51 204.106,74 206.573,74 L210,74 L210,81.5 C210,87.5 209.7,89 208.5,89 C207.675,89 207,89.717 207,90.594 C207,91.47 206.1,92.423 205,92.71 C203.9,92.998 203,93.856 203,94.617 C203,95.377 202.044,96 200.875,96 C199.018,96 198.831,95.597 199.39,92.8 C199.742,91.04 200.467,89.33 201,89 C201.533,88.67 202.263,86.934 202.622,85.142 C203.176,82.37 202.954,81.801 201.137,81.325 C199.961,81.018 199,80.144 199,79.383 C199,78.623 198.392,78 197.648,78 C195.892,78 194.828,90.963 195.68,102 L196.296,110 L201.648,110 C205.739,110 207,109.646 207,108.5 C207,107.289 208.589,106.997 215.25,106.986 C224.804,106.971 228,106.318 228,104.383 C228,103.373 229.484,103 233.5,103 C237.722,103 239,102.652 239,101.5 C239,100.675 239.675,100 240.5,100 C241.325,100 242,100.675 242,101.5 C242,102.333 242.889,103 244,103 C245.619,103 246,103.667 246,106.5 C246,109.518 245.673,110 243.625,110 C239.12,110 235,111.254 235,112.625 C235,113.704 232.742,114 224.5,114 L214,114 L214,121 L199,121 L199,146.5 C199,168.5 199.206,172 200.5,172 C201.325,172 202,172.675 202,173.5 C202,174.65 203.272,175 207.45,175 C211.535,175 213.138,175.425 213.85,176.696 C214.549,177.945 216.538,178.503 221.4,178.813 C226.15,179.115 228,179.621 228,180.616 C228,181.657 229.676,182.003 234.75,182.014 C242.848,182.03 246,182.759 246,184.617 C246,185.711 248.301,186 257,186 C267.333,186 268,186.121 268,188 C268,189.111 268.667,190 269.5,190 C270.325,190 271,190.675 271,191.5 C271,192.778 268.333,193 253,193 C237.667,193 235,192.778 235,191.5 C235,190.395 233.847,190 230.625,190 C224.259,190 220,188.948 220,187.375 C220,186.3 217.818,186 210,186 L200,186 L200,189.5 C200,191.809 200.47,193 201.38,193 C202.509,193 202.79,197.266 202.925,216.5 C203.064,236.212 202.861,240 201.67,240 C200.257,240 199,244.06 199,248.625 C199,250.069 198.412,251 197.5,251 C196.675,251 196,251.675 196,252.5 C196,253.333 195.111,254 194,254 C192.037,254 192,253.333 192,218 L192,182 L185.108,182 C178.558,182 178.185,181.874 177.578,179.454 C177.226,178.054 177.204,176.479 177.528,175.954 C177.853,175.429 181.241,175 185.059,175 L192,175 L192,164.5 C192,155.833 191.738,154 190.5,154 C189.667,154 189,153.111 189,152 C189,150.889 189.667,150 190.5,150 C191.333,150 192,149.111 192,148 C192,146.889 191.333,146 190.5,146 C189.675,146 189,145.325 189,144.5 C189,143.675 189.675,143 190.5,143 C191.333,143 192,142.111 192,141 C192,139.889 191.333,139 190.5,139 C189.379,139 188.997,137.799 188.986,134.25 C188.979,131.637 188.701,128.487 188.37,127.25 C187.716,124.812 185,124.118 185,126.389 C185,127.178 183.522,128.055 181.572,128.42 C178.804,128.94 178.02,129.634 177.493,132.032 C177.134,133.664 176.202,135 175.421,135 C174.639,135 174,135.848 174,136.883 C174,137.926 173.107,139 172,139.29 C170.9,139.577 170,140.53 170,141.406 C170,142.283 169.325,143 168.5,143 C167.675,143 167,143.623 167,144.383 C167,145.144 166.1,146.002 165,146.29 C163.552,146.668 163,147.654 163,149.861 C163,152.553 162.591,152.986 159.5,153.566 C156.318,154.163 156,154.53 156,157.611 C156,160.333 155.607,161 154,161 C152.889,161 152,161.667 152,162.5 C152,163.325 151.325,164 150.5,164 C149.667,164 149,164.889 149,166 C149,167.333 148.333,168 147,168 C145.9,168 145,168.623 145,169.383 C145,170.144 144.1,171.002 143,171.29 C141.9,171.577 141,172.53 141,173.406 C141,174.283 140.325,175 139.5,175 C138.667,175 138,175.889 138,177 C138,178.1 137.345,179 136.545,179 C135.675,179 134.827,180.405 134.434,182.5 C133.866,185.525 133.392,186 130.934,186 C128.476,186 128.002,186.475 127.434,189.5 C126.959,192.033 126.255,193 124.889,193 C123.85,193 123,193.623 123,194.383 C123,195.899 120.032,196.965 115.75,196.986 C113.271,196.999 113,196.655 113,193.5 C113,190.964 113.439,190 114.594,190 C115.47,190 116.423,189.1 116.71,188 C116.998,186.9 117.856,186 118.617,186 C119.377,186 120,185.325 120,184.5 C120,183.675 120.717,183 121.594,183 C122.47,183 123.423,182.1 123.71,181 C123.998,179.9 124.856,179 125.617,179 C126.377,179 127,178.1 127,177 C127,175.667 127.667,175 129,175 C130.333,175 131,174.333 131,173 C131,171.889 131.667,171 132.5,171 C133.325,171 134,170.325 134,169.5 C134,168.667 134.889,168 136,168 C137.333,168 138,167.333 138,166 C138,164.889 138.667,164 139.5,164 C140.325,164 141,163.283 141,162.406 C141,161.53 141.9,160.577 143,160.29 C144.1,160.002 145,159.144 145,158.383 C145,157.623 145.655,157 146.455,157 C147.325,157 148.173,155.595 148.566,153.5 C149.041,150.967 149.745,150 151.111,150 C152.15,150 153,149.325 153,148.5 C153,147.675 153.675,147 154.5,147 C155.325,147 156,146.152 156,145.117 C156,144.074 156.893,143 158,142.71 C159.1,142.423 160,141.47 160,140.594 C160,139.717 160.675,139 161.5,139 C162.333,139 163,138.111 163,137 C163,135.9 163.639,135 164.421,135 C165.714,135 167.737,129.403 166.786,128.453 C166.564,128.231 164.046,128.326 161.191,128.664 C157.781,129.068 156,129.745 156,130.639 C156,131.686 153.924,132 147,132 C140.03,132 138,132.31 138,133.375 C138,134.904 133.772,136 127.875,136 C125.097,136 124,136.425 124,137.5 C124,138.523 122.966,139.004 120.75,139.014 C116,139.034 113,140.041 113,141.617 C113,142.61 114.41,143 118,143 C121.625,143 123,143.386 123,144.404 C123,146.19 105.134,147.569 95.441,146.531 C86.03,145.523 70,146.839 70,148.619 C70,149.564 68.736,150 66,150 C62.095,150 62,150.083 62,153.5 C62,155.944 61.548,157 60.5,157 C59.222,157 59,159.667 59,175 C59,192.333 59.074,193 61,193 C62.1,193 63,192.345 63,191.545 C63,190.675 64.405,189.827 66.5,189.434 C68.505,189.058 70,188.184 70,187.389 C70,186.393 71.383,186 74.883,186 C78.926,186 79.857,185.656 80.29,184 C80.671,182.544 81.654,182 83.906,182 C85.99,182 87,181.51 87,180.5 C87,179.445 88.066,179 90.594,179 C93.346,179 94.31,178.532 94.71,177 C95.103,175.497 96.074,175 98.617,175 C100.911,175 102,174.532 102,173.545 C102,172.675 103.405,171.827 105.5,171.434 C107.505,171.058 109,170.184 109,169.389 C109,168.625 109.9,168 111,168 C112.1,168 113,167.345 113,166.545 C113,165.675 114.405,164.827 116.5,164.434 C118.505,164.058 120,163.184 120,162.389 C120,159.985 122.754,160.882 123.411,163.5 C124.473,167.731 123.126,170.813 119.906,171.521 C118.308,171.872 117,172.748 117,173.468 C117,174.188 115.425,175.073 113.5,175.434 C111.405,175.827 110,176.675 110,177.545 C110,178.576 108.834,179 106,179 C102.667,179 102,179.333 102,181 C102,182.111 101.333,183 100.5,183 C99.675,183 99,183.675 99,184.5 C99,185.583 97.889,186 95,186 C91.667,186 91,186.333 91,188 C91,189.619 90.333,190 87.5,190 C85.18,190 84,190.468 84,191.389 C84,192.184 82.505,193.058 80.5,193.434 C78.405,193.827 77,194.675 77,195.545 C77,196.541 75.896,197 73.5,197 C71.18,197 70,197.468 70,198.389 C70,199.184 68.505,200.058 66.5,200.434 C64.405,200.827 63,201.675 63,202.545 C63,203.43 62.021,204 60.5,204 C58.944,204 58,204.567 58,205.5 C58,206.482 57.017,207 55.155,207 L52.31,207 L51.655,193.342 C51.295,185.83 51,174.58 51,168.342 L51,157 L46.108,157 C41.725,157 41.152,156.74 40.589,154.5 C39.45,149.961 40.862,147.117 44.602,146.415 C46.529,146.053 48,145.176 48,144.389 C48,143.625 48.675,143 49.5,143 C50.535,143 51,141.961 51,139.647 C51,131.723 52.304,124 53.642,124 C54.484,124 55,122.86 55,121 C55,118.167 55.222,118 59,118 C61.889,118 63,118.417 63,119.5 C63,120.548 64.056,121 66.5,121 C70.113,121 70.48,121.607 69.37,125.75 C68.916,127.444 68.032,128 65.79,128 C63.654,128 62.665,128.565 62.29,130 C62.002,131.1 61.144,132 60.383,132 C59.373,132 59,133.484 59,137.5 L59,143 L62.5,143 C65.333,143 66,142.619 66,141 C66,139.19 66.667,139 73,139 C78.556,139 80,138.69 80,137.5 C80,136.294 81.542,136 87.875,136 C97.568,136 102,135.176 102,133.375 C102,132.375 103.5,132 107.5,132 C111.516,132 113,131.627 113,130.617 C113,128.759 116.152,128.03 124.25,128.014 C129.324,128.003 131,127.657 131,126.616 C131,125.621 132.844,125.116 137.568,124.815 C141.673,124.553 144.455,123.881 144.986,123.023 C145.559,122.096 148.621,121.504 154.417,121.2 C160.813,120.864 163,120.399 163,119.375 C163,118.594 164.027,118 165.375,118 C169.88,118 174,116.746 174,115.375 C174,114.339 175.727,114 181,114 L188,114 L188,110.5 C188,108.056 187.548,107 186.5,107 C185.247,107 185,104.957 185,94.617 C185,87.964 185.407,84.605 183.92,82.971 C182.127,81.001 177.581,81.536 166.25,81.827 C154.856,82.119 152,82.473 152,83.596 C152,84.712 149.848,85 141.5,85 L131,85 L131,81.5 C131,79.056 131.452,78 132.5,78 C133.548,78 134,76.944 134,74.5 C134,71.667 134.381,71 136,71 C137.879,71 138,70.333 138,60 C138,51.301 138.289,49 139.383,49 C140.144,49 141.018,48.041 141.324,46.868 Z M80.75,92.728 C82.813,92.513 88.438,92.261 93.25,92.168 C101.389,92.012 102,92.14 102,94 C102,95.333 102.667,96 104,96 C105.593,96 105.997,96.662 105.986,99.25 C105.966,104 104.959,107 103.383,107 C102.469,107 102,108.187 102,110.5 C102,113.333 101.619,114 100,114 C98.667,114 98,113.333 98,112 C98,110.889 97.333,110 96.5,110 C95.675,110 95,109.325 95,108.5 C95,107.675 95.675,107 96.5,107 C97.356,107 98,106.1 98,104.904 C98,102.859 97.657,102.817 83.963,103.154 C72.832,103.428 69.734,103.811 68.999,105 C68.324,106.093 65.758,106.596 59.537,106.853 C53.062,107.12 51,107.543 51,108.603 C51,109.498 49.889,110 47.906,110 C45.654,110 44.671,110.544 44.29,112 C43.859,113.647 42.926,114 39,114 C34.596,114 34.193,113.791 33.7,111.25 C32.954,107.41 33.984,103 35.625,103 C36.381,103 37,102.381 37,101.625 C37,100.096 41.228,99 47.125,99 C49.903,99 51,98.575 51,97.5 C51,96.244 53.111,96 64,96 C74.647,96 77,95.739 77,94.56 C77,93.633 78.335,92.981 80.75,92.728 Z"/>
</svg>

