<svg xmlns="http://www.w3.org/2000/svg" width="300" height="300" viewBox="0 0 300 300" version="1.1">
  <defs/>
  <path d="M184.29,208 C184.766,206.178 185.654,206 194.281,206 C199.489,206 205.156,206.281 206.875,206.625 C209.634,207.177 210,207.645 210,210.625 C210,212.958 210.463,214 211.5,214 C212.548,214 213,215.056 213,217.5 C213,219.944 212.548,221 211.5,221 C210.452,221 210,222.056 210,224.5 C210,226.82 209.532,228 208.611,228 C207.816,228 206.942,229.495 206.566,231.5 C206.173,233.595 205.325,235 204.455,235 C203.655,235 203,235.9 203,237 C203,238.111 202.333,239 201.5,239 C200.675,239 200,239.675 200,240.5 Q200,242 203,242 Q206,242 206,240.5 C206,239.417 207.111,239 210,239 C213.905,239 214,239.083 214,242.5 C214,245.333 213.619,246 212,246 C210.9,246 210,246.619 210,247.375 C210,248.746 205.88,250 201.375,250 C199.931,250 199,250.588 199,251.5 C199,252.548 197.944,253 195.5,253 C193.187,253 192,253.469 192,254.383 C192,255.959 189,256.966 184.25,256.986 C182.079,256.995 181,257.483 181,258.455 C181,259.317 179.616,260.169 177.6,260.547 C171.899,261.617 170.536,260.916 170.19,256.742 C169.923,253.53 170.171,253 171.94,253 C173.104,253 174,252.348 174,251.5 C174,250.675 174.717,250 175.594,250 C176.47,250 177.423,249.1 177.71,248 C178.103,246.497 179.074,246 181.617,246 C184.333,246 185,245.606 185,244 C185,242.667 185.667,242 187,242 C188.111,242 189,241.333 189,240.5 C189,239.675 189.675,239 190.5,239 C191.333,239 192,238.111 192,237 C192,235.667 192.667,235 194,235 C195.333,235 196,234.333 196,233 C196,231.889 196.667,231 197.5,231 C198.487,231 199,230.013 199,228.117 C199,226.074 199.583,225.081 201,224.71 C202.67,224.274 203,223.346 203,219.094 L203,214 L195.5,214 C189.5,214 188,214.3 188,215.5 C188,216.633 186.778,217 183,217 C178.667,217 178,217.267 178,219 C178,220.333 177.333,221 176,221 C174.889,221 174,221.667 174,222.5 C174,223.325 173.283,224 172.406,224 C171.53,224 170.577,224.9 170.29,226 C170.002,227.1 169.144,228 168.383,228 C167.623,228 167,228.675 167,229.5 C167,230.325 166.352,231 165.559,231 C164.766,231 163.833,231.461 163.485,232.024 C162.45,233.698 164.042,239 165.579,239 C167.085,239 167.573,246.26 166.37,250.75 C165.693,253.275 164,253.811 164,251.5 C164,250.417 162.889,250 160,250 C156.667,250 156,249.667 156,248 C156,246.667 155.333,246 154,246 C152.667,246 152,245.333 152,244 C152,242.889 151.333,242 150.5,242 C149.49,242 149,240.99 149,238.906 C149,236.654 148.456,235.671 147,235.29 C145.497,234.897 145,233.926 145,231.383 C145,229.043 144.538,228 143.5,228 C142.675,228 142,227.283 142,226.406 C142,225.53 141.1,224.577 140,224.29 C138.312,223.848 138,222.926 138,218.383 C138,214.265 138.352,213 139.5,213 C140.325,213 141,212.325 141,211.5 C141,210.567 141.944,210 143.5,210 C145.056,210 146,210.567 146,211.5 C146,212.325 146.675,213 147.5,213 C148.548,213 149,214.056 149,216.5 C149,218.803 149.47,220 150.375,220 C151.746,220 153,224.12 153,228.625 C153,230.069 153.588,231 154.5,231 Q156,231 156,228 C156,225.922 156.49,225 157.594,225 C158.47,225 159.423,224.1 159.71,223 C159.998,221.9 160.856,221 161.617,221 C162.377,221 163,220.1 163,219 C163,217.381 163.667,217 166.5,217 C169.036,217 170,216.561 170,215.406 C170,214.53 170.9,213.577 172,213.29 C173.1,213.002 174,212.144 174,211.383 C174,210.394 175.392,210 178.883,210 C182.926,210 183.857,209.656 184.29,208 Z M185,78.5 C185,77.236 187.278,77 199.5,77 C211.722,77 214,77.236 214,78.5 C214,79.325 214.675,80 215.5,80 C216.583,80 217,81.111 217,84 C217,86.789 216.57,88 215.579,88 C214.798,88 213.872,89.304 213.522,90.898 C213.122,92.722 212.073,94.015 210.693,94.385 C206.327,95.555 206,95.215 206,89.5 L206,84 L200.5,84 C196.521,84 195,84.377 195,85.364 C195,87.104 188.661,88 176.36,88 C169.173,88 167,88.313 167,89.349 C167,90.352 164.386,90.857 156.807,91.319 C149.17,91.784 146.398,92.324 145.757,93.47 C145.108,94.63 143.098,95 137.45,95 C131.494,95 130,95.301 130,96.5 C130,97.524 128.968,98.003 126.75,98.009 C119.574,98.028 113,99.286 113,100.639 C113,101.704 110.611,102 102,102 C92.889,102 91,102.258 91,103.5 C91,104.325 90.325,105 89.5,105 C88.675,105 88,104.325 88,103.5 C88,102.667 87.111,102 86,102 C84.667,102 84,101.333 84,100 C84,98.889 84.667,98 85.5,98 C86.325,98 87,97.382 87,96.627 C87,95.707 88.683,95.093 92.107,94.764 C94.915,94.494 97.599,93.649 98.07,92.887 C98.702,91.864 102.083,91.407 110.964,91.145 C119.82,90.883 123,90.455 123,89.523 C123,88.622 126.168,88.052 134,87.544 C142.484,86.994 145,86.508 145,85.416 C145,84.294 146.974,84 154.5,84 C161.922,84 164,83.697 164,82.617 C164,80.682 167.196,80.029 176.75,80.014 C183.411,80.003 185,79.711 185,78.5 Z M195,157.385 C195,156.377 196.464,156 200.383,156 C204.926,156 205.848,156.312 206.29,158 C206.577,159.1 207.53,160 208.406,160 C209.283,160 210,160.675 210,161.5 C210,162.325 209.325,163 208.5,163 C207.588,163 207,163.931 207,165.375 C207,166.681 206.719,169.156 206.375,170.875 C205.823,173.634 205.355,174 202.375,174 C199.185,174 199,173.809 199,170.5 C199,167.167 198.833,167 195.5,167 C193.056,167 192,167.452 192,168.5 C192,169.412 191.069,170 189.625,170 C185.12,170 181,171.254 181,172.625 C181,173.53 179.803,174 177.5,174 C175.068,174 174,174.454 174,175.488 C174,176.451 172.588,177.202 170,177.616 C167.587,178.002 166,178.8 166,179.628 C166,180.489 164.871,181 162.969,181 C161.221,181 159.698,181.624 159.372,182.473 C159.061,183.283 157.275,184.233 155.403,184.584 C153.473,184.946 152,185.823 152,186.611 C152,187.497 150.879,188 148.906,188 C146.654,188 145.671,188.544 145.29,190 C145,191.107 143.926,192 142.883,192 C141.848,192 141,192.623 141,193.383 C141,194.899 138.032,195.965 133.75,195.986 C131.978,195.995 131,196.534 131,197.5 C131,198.548 129.944,199 127.5,199 L124,199 L124,194.045 C124,189.175 124.059,189.08 127.5,188.434 C129.505,188.058 131,187.184 131,186.389 C131,185.468 132.18,185 134.5,185 C137.333,185 138,184.619 138,183 C138,181.381 138.667,181 141.5,181 C143.944,181 145,180.548 145,179.5 C145,178.445 146.066,178 148.594,178 C151.346,178 152.31,177.532 152.71,176 C153.103,174.497 154.074,174 156.617,174 C158.911,174 160,173.532 160,172.545 C160,171.675 161.405,170.827 163.5,170.434 C165.505,170.058 167,169.184 167,168.389 C167,167.468 168.18,167 170.5,167 C172.813,167 174,166.531 174,165.617 C174,164.101 176.968,163.035 181.25,163.014 C182.96,163.005 184,162.46 184,161.572 C184,160.591 185.722,159.929 189.5,159.457 C193.188,158.996 195,158.313 195,157.385 Z M168.75,134.689 C169.713,134.438 174.387,134.18 179.139,134.116 L187.777,134 L188.456,137.619 C188.83,139.61 188.836,143.01 188.47,145.176 C187.845,148.875 187.615,149.094 184.653,148.806 C181.903,148.539 181.46,148.084 181.187,145.25 C180.9,142.275 180.583,142 177.437,142 C175.049,142 174,142.458 174,143.5 C174,144.637 172.767,145 168.906,145 C164.654,145 163.726,145.33 163.29,147 C162.897,148.503 161.926,149 159.383,149 C157.163,149 156,149.477 156,150.389 C156,151.184 154.505,152.058 152.5,152.434 C150.405,152.827 149,153.675 149,154.545 C149,155.541 147.896,156 145.5,156 C142.667,156 142,156.381 142,158 C142,159.758 141.333,160 136.5,160 C132.278,160 131,160.348 131,161.5 C131,162.333 130.111,163 129,163 C127.889,163 127,162.333 127,161.5 C127,160.675 126.325,160 125.5,160 C124.667,160 124,159.111 124,158 C124,156.889 124.667,156 125.5,156 C126.333,156 127,155.111 127,154 C127,152.667 127.667,152 129,152 C130.111,152 131,151.333 131,150.5 C131,149.452 132.056,149 134.5,149 C136.813,149 138,148.531 138,147.617 C138,146.041 141,145.034 145.75,145.014 C147.966,145.004 149,144.523 149,143.5 C149,142.452 150.056,142 152.5,142 C155.333,142 156,141.619 156,140 C156,138.242 156.667,138 161.5,138 C165.597,138 167,137.636 167,136.573 C167,135.789 167.787,134.941 168.75,134.689 Z M142,42.5 C142,41.667 142.889,41 144,41 C145.1,41 146,41.639 146,42.421 C146,43.202 147.35,44.138 149,44.5 C150.65,44.862 152,45.798 152,46.579 C152,47.361 152.9,48 154,48 C155.1,48 156,48.655 156,49.455 C156,50.325 157.405,51.173 159.5,51.566 C161.505,51.942 163,52.816 163,53.611 C163,54.375 163.9,55 165,55 C166.333,55 167,55.667 167,57 C167,58.333 167.667,59 169,59 C170.111,59 171,59.667 171,60.5 C171,61.325 171.675,62 172.5,62 C173.652,62 174,63.278 174,67.5 C174,72.333 173.758,73 172,73 C170.667,73 170,72.333 170,71 C170,69.889 169.333,69 168.5,69 C167.675,69 167,68.325 167,67.5 C167,66.667 166.111,66 165,66 C163.667,66 163,65.333 163,64 C163,62.667 162.333,62 161,62 C159.889,62 159,61.333 159,60.5 C159,59.452 157.944,59 155.5,59 C153.104,59 152,58.541 152,57.545 C152,56.675 150.595,55.827 148.5,55.434 C146.495,55.058 145,54.184 145,53.389 C145,52.468 143.82,52 141.5,52 C138.083,52 138,51.905 138,48 C138,44.667 138.333,44 140,44 C141.111,44 142,43.333 142,42.5 Z"/>
</svg>

