<svg xmlns="http://www.w3.org/2000/svg" width="300" height="300" viewBox="0 0 300 300" version="1.1">
  <defs/>
  <path d="M168,55.5 C168,52.167 168.167,52 171.5,52 C173.944,52 175,52.452 175,53.5 C175,54.333 175.889,55 177,55 C178.333,55 179,55.667 179,57 C179,58.893 179.667,59 191.5,59 C203.333,59 204,59.107 204,61 C204,62.111 204.667,63 205.5,63 C206.325,63 207,63.675 207,64.5 C207,65.325 206.325,66 205.5,66 C204.675,66 204,66.67 204,67.488 C204,68.451 202.588,69.202 200,69.616 C197.587,70.002 196,70.8 196,71.628 C196,72.383 195.55,73 195,73 C194.45,73 194,72.388 194,71.64 C194,70.729 192.205,70.095 188.559,69.718 C184.081,69.256 181.701,68.998 180.436,70.064 C178.987,71.284 179,74.241 179,80.617 C179,88.76 178.703,91 177.625,91 C176.034,91 174.557,96.957 175.831,98.231 C177.234,99.634 190,97.95 190,96.362 C190,95.278 192.853,95 204,95 C215.778,95 218,95.238 218,96.5 C218,97.583 219.111,98 222,98 C225.333,98 226,98.333 226,100 C226,101.549 226.667,102 228.955,102 C231.54,102 231.992,102.438 232.566,105.5 C232.927,107.425 233.791,109 234.486,109 C235.762,109 237,113.248 237,117.625 C237,119.069 237.588,120 238.5,120 C239.333,120 240,120.889 240,122 C240,123.333 240.667,124 242,124 C243.111,124 244,124.667 244,125.5 C244,126.333 244.889,127 246,127 C247.111,127 248,127.667 248,128.5 C248,129.325 248.675,130 249.5,130 C250.333,130 251,130.889 251,132 C251,133.163 251.667,134 252.594,134 C253.47,134 254.423,134.9 254.71,136 C255.103,137.503 256.074,138 258.617,138 C260.873,138 262,138.473 262,139.421 C262,140.202 263.35,141.138 265,141.5 C268.042,142.168 269.255,145 266.5,145 C265.667,145 265,145.889 265,147 C265,148.917 264.333,149 249,149 L233,149 L233,165.5 C233,178.906 233.26,182 234.388,182 C235.47,182 235.934,185.075 236.5,196 C237.066,206.925 237.53,210 238.612,210 C239.708,210 240,212.211 240,220.5 C240,228.77 239.706,231 238.617,231 C237.626,231 237.036,233.122 236.532,238.5 C236.051,243.638 235.419,246 234.526,246 C233.809,246 232.927,247.575 232.566,249.5 C232.173,251.595 231.325,253 230.455,253 C229.655,253 229,253.9 229,255 C229,256.111 228.333,257 227.5,257 C226.675,257 226,257.675 226,258.5 C226,259.333 225.111,260 224,260 C222.667,260 222,260.667 222,262 C222,263.893 221.333,264 209.5,264 C198.729,264 197,263.78 197,262.406 C197,261.53 196.1,260.577 195,260.29 C193.9,260.002 193,259.197 193,258.5 C193,257.803 192.1,256.998 191,256.71 C189.9,256.423 189,255.47 189,254.594 C189,253.717 188.325,253 187.5,253 C186.667,253 186,252.111 186,251 C186,249.9 185.377,249 184.617,249 C183.101,249 182.035,246.032 182.014,241.75 C182.003,239.662 182.482,239 184,239 C185.619,239 186,238.333 186,235.5 C186,232.964 186.439,232 187.594,232 C188.47,232 189.423,231.1 189.71,230 C189.998,228.9 190.806,228 191.505,228 C192.205,228 193.073,226.425 193.434,224.5 C193.827,222.405 194.675,221 195.545,221 C196.345,221 197,220.325 197,219.5 C197,218.675 197.717,218 198.594,218 C199.47,218 200.423,217.1 200.71,216 C200.998,214.9 201.856,214 202.617,214 C203.377,214 204,213.1 204,212 C204,210.381 204.667,210 207.5,210 C210.333,210 211,209.619 211,208 C211,206.667 211.667,206 213,206 C214.111,206 215,205.333 215,204.5 C215,203.675 215.717,203 216.594,203 C217.47,203 218.423,202.1 218.71,201 C219.103,199.497 220.074,199 222.617,199 C225.333,199 226,198.606 226,197 C226,195.889 226.667,195 227.5,195 C228.325,195 229,194.325 229,193.5 C229,192.675 228.325,192 227.5,192 C226.435,192 225.997,190.913 225.991,188.25 C225.974,180.622 224.751,174 223.361,174 C222.3,174 222,171.707 222,163.617 C222,157.883 222.167,154.92 220.767,153.481 C219.138,151.806 215.387,152.196 206.78,152.689 C198.713,153.15 196,153.645 196,154.653 C196,155.677 193.96,156 187.5,156 C180.955,156 179,156.316 179,157.375 C179,158.948 174.741,160 168.375,160 C165.153,160 164,160.395 164,161.5 C164,162.698 162.514,163 156.625,163 C147.411,163 143,163.85 143,165.625 C143,166.625 141.5,167 137.5,167 C133.278,167 132,167.348 132,168.5 C132,169.412 131.069,170 129.625,170 C125.12,170 121,171.254 121,172.625 C121,173.381 120.325,174 119.5,174 C118.457,174 118,175.05 118,177.45 L118,180.9 L112.307,181.2 L106.613,181.5 L106.885,192.25 C107.144,202.555 107.07,203 105.078,203 C103.667,203 103,203.642 103,205 C103,206.111 102.333,207 101.5,207 C100.675,207 100,207.675 100,208.5 C100,209.333 99.111,210 98,210 C96.667,210 96,210.667 96,212 C96,213.333 95.333,214 94,214 C92.889,214 92,214.667 92,215.5 C92,216.336 91.11,217 89.99,217 C88.885,217 87.21,217.9 86.268,219 C85.326,220.1 83.756,221 82.778,221 C81.8,221 81,221.675 81,222.5 C81,223.325 80.325,224 79.5,224 C78.675,224 78,223.325 78,222.5 C78,221.667 77.111,221 76,221 C74.9,221 74.006,220.438 74.014,219.75 C74.045,216.84 75.331,214 76.617,214 C77.377,214 78,213.1 78,212 C78,210.381 78.667,210 81.5,210 C84.333,210 85,209.619 85,208 C85,206.667 85.667,206 87,206 C88.111,206 89,205.333 89,204.5 C89,203.675 89.675,203 90.5,203 C91.333,203 92,202.111 92,201 C92,199.667 92.667,199 94,199 C95.733,199 96,198.333 96,194 C96,189.667 95.733,189 94,189 C92.889,189 92,189.667 92,190.5 C92,191.548 90.944,192 88.5,192 C86.056,192 85,192.452 85,193.5 C85,194.325 84.283,195 83.406,195 C82.53,195 81.584,195.874 81.305,196.943 C81.013,198.059 79.591,199.151 77.963,199.508 C75.865,199.969 74.963,200.891 74.486,203.065 C74.131,204.679 73.202,206 72.421,206 C71.251,206 71,208.91 71,222.5 L71,239 L67.406,239 C64.654,239 63.69,238.532 63.29,237 C63.002,235.9 62.144,235 61.383,235 C60.394,235 60,233.608 60,230.117 C60,226.074 59.656,225.143 58,224.71 C56.468,224.31 56,223.346 56,220.594 C56,218.066 55.555,217 54.5,217 C53.534,217 52.995,216.022 52.986,214.25 C52.965,209.968 51.899,207 50.383,207 C49.436,207 49,205.739 49,203 C49,200.111 48.583,199 47.5,199 C46.452,199 46,197.944 46,195.5 C46,193.056 46.452,192 47.5,192 C48.333,192 49,191.111 49,190 C49,187.837 51.102,187.47 56.875,188.625 C60.003,189.251 61.327,192 58.5,192 C57.452,192 57,193.056 57,195.5 C57,197.944 57.452,199 58.5,199 C59.652,199 60,200.278 60,204.5 C60,208.516 60.373,210 61.383,210 C62.899,210 63.965,207.032 63.986,202.75 C63.995,200.978 64.534,200 65.5,200 C66.356,200 67,199.101 67,197.906 C67,196.654 67.803,195.603 69,195.29 C70.1,195.002 71,194.144 71,193.383 C71,192.623 71.9,192 73,192 C74.1,192 75,191.361 75,190.579 C75,189.798 76.35,188.862 78,188.5 C79.65,188.138 81,187.259 81,186.548 C81,185.813 82.726,184.98 85,184.616 C87.588,184.202 89,183.451 89,182.488 C89,181.312 90.469,181 96,181 C101.556,181 103,180.69 103,179.5 C103,178.675 102.325,178 101.5,178 C99.036,178 99.491,171.366 102,170.71 C103.1,170.423 104,169.47 104,168.594 C104,167.525 104.906,166.996 106.75,166.986 C111.032,166.965 114,165.899 114,164.383 C114,163.373 115.484,163 119.5,163 C123.545,163 125,162.63 125,161.601 C125,160.604 127.005,160.002 132,159.5 C136.995,158.998 139,158.396 139,157.399 C139,156.334 140.67,156 146,156 C151.273,156 153,155.661 153,154.625 C153,153.052 157.259,152 163.625,152 C166.67,152 168,151.582 168,150.625 C168,149.601 170.187,149.136 176.583,148.8 C182.545,148.487 185.434,147.915 186.045,146.925 C186.729,145.815 190.335,145.43 202.35,145.181 L217.778,144.862 L218.389,141.806 C218.725,140.125 219,137.006 219,134.875 C219,132.097 219.425,131 220.5,131 C221.583,131 222,129.889 222,127 C222,124.111 222.417,123 223.5,123 C224.325,123 225,122.325 225,121.5 C225,120.667 225.889,120 227,120 C228.619,120 229,119.333 229,116.5 C229,114.056 228.548,113 227.5,113 C226.675,113 226,112.283 226,111.406 C226,110.53 225.1,109.577 224,109.29 C222.9,109.002 222,108.144 222,107.383 C222,106.269 219.179,106 207.5,106 C195.278,106 193,106.236 193,107.5 C193,108.548 191.944,109 189.5,109 C187.104,109 186,109.459 186,110.455 C186,111.325 184.595,112.173 182.5,112.566 C180.575,112.927 179,113.797 179,114.5 C179,115.203 177.425,116.073 175.5,116.434 C172.409,117.014 172,117.447 172,120.139 C172,122.346 171.448,123.332 170,123.71 C168.893,124 168,125.074 168,126.117 C168,127.152 167.325,128 166.5,128 C165.675,128 165,128.675 165,129.5 C165,130.548 163.944,131 161.5,131 C159.056,131 158,131.452 158,132.5 C158,133.523 156.966,134.004 154.75,134.014 C150,134.034 147,135.041 147,136.617 C147,137.731 144.179,138 132.5,138 L118,138 L118,132.5 C118,127.667 118.242,127 120,127 C121.1,127 122,126.361 122,125.579 C122,124.798 123.35,123.862 125,123.5 C126.65,123.138 128,122.202 128,121.421 C128,120.473 129.127,120 131.383,120 C133.926,120 134.897,119.503 135.29,118 C135.726,116.33 136.654,116 140.906,116 C144.586,116 146,115.614 146,114.611 C146,113.816 147.495,112.942 149.5,112.566 C151.595,112.173 153,111.325 153,110.455 C153,109.358 154.354,109 158.5,109 C162.722,109 164,108.652 164,107.5 C164,106.667 164.889,106 166,106 C167.822,106 168,105.333 168,98.5 C168,92.5 168.3,91 169.5,91 C170.716,91 171,89.389 171,82.5 C171,75.611 170.716,74 169.5,74 C168.667,74 168,73.111 168,72 C168,70.19 167.333,70 161,70 C155.444,70 154,70.31 154,71.5 C154,72.652 152.722,73 148.5,73 C143.667,73 143,73.242 143,75 C143,76.808 142.333,77 136.045,77 L129.091,77 L128.434,80.5 C127.959,83.033 127.255,84 125.889,84 C124.85,84 124,84.675 124,85.5 C124,87.811 122.307,87.275 121.63,84.75 C121.299,83.513 121.021,80.362 121.014,77.75 C121.002,73.662 121.279,73 123,73 C124.1,73 125,72.375 125,71.611 C125,70.816 126.495,69.942 128.5,69.566 C130.595,69.173 132,68.325 132,67.455 C132,66.29 133.791,66 141,66 C147.97,66 150,65.69 150,64.625 C150,63.052 154.259,62 160.625,62 C163.847,62 165,61.605 165,60.5 C165,59.675 165.675,59 166.5,59 C167.548,59 168,57.944 168,55.5 Z M225.71,205 C225.333,206.442 224.346,207 222.173,207 C219.644,207 219.054,207.478 218.507,209.968 C217.98,212.366 217.196,213.06 214.428,213.58 C212.478,213.945 211,214.822 211,215.611 C211,216.375 210.283,217 209.406,217 C208.53,217 207.577,217.9 207.29,219 C207.002,220.1 206.144,221 205.383,221 C204.623,221 204,221.9 204,223 C204,224.1 203.361,225 202.579,225 C201.798,225 200.862,226.35 200.5,228 C200.138,229.65 199.202,231 198.421,231 C197.457,231 197,232.155 197,234.594 C197,237.346 196.532,238.31 195,238.71 C193.344,239.143 193,240.074 193,244.117 C193,248.333 193.273,249 195,249 C196.333,249 197,249.667 197,251 C197,252.619 197.667,253 200.5,253 C203.333,253 204,253.381 204,255 C204,256.721 204.662,256.998 208.75,256.986 C214.923,256.969 218,256.103 218,254.383 C218,253.623 218.9,253 220,253 C221.333,253 222,252.333 222,251 C222,249.9 222.623,249 223.383,249 C224.899,249 225.965,246.032 225.986,241.75 C225.995,239.978 226.534,239 227.5,239 C228.778,239 229,236.333 229,221 C229,206.341 228.743,203 227.617,203 C226.856,203 225.998,203.9 225.71,205 Z M71,147 C71,145.107 71.667,145 83.5,145 C95.333,145 96,145.107 96,147 C96,148.333 96.667,149 98,149 C99.111,149 100,149.667 100,150.5 C100,151.325 100.675,152 101.5,152 C102.652,152 103,153.278 103,157.5 L103,163 L99.5,163 C96.167,163 96,162.833 96,159.5 C96,156.167 95.833,156 92.5,156 C90.056,156 89,155.548 89,154.5 C89,153.667 88.111,153 87,153 C85.889,153 85,153.667 85,154.5 C85,155.69 83.556,156 78,156 C72.727,156 71,156.339 71,157.375 C71,158.746 66.88,160 62.375,160 C60.411,160 60,160.511 60,162.955 C60,165.525 59.556,165.993 56.592,166.549 C54.421,166.956 53.003,167.88 52.686,169.094 C52.331,170.451 51.295,171 49.094,171 C47.01,171 46,171.49 46,172.5 C46,173.583 44.889,174 42,174 C38.667,174 38,173.667 38,172 C38,170.889 37.333,170 36.5,170 C35.675,170 35,169.325 35,168.5 C35,167.675 35.675,167 36.5,167 C37.333,167 38,166.111 38,165 C38,163.667 38.667,163 40,163 C41.1,163 42,162.375 42,161.611 C42,160.816 43.495,159.942 45.5,159.566 C47.595,159.173 49,158.325 49,157.455 C49,156.468 50.089,156 52.383,156 C54.926,156 55.897,155.503 56.29,154 C56.69,152.468 57.654,152 60.406,152 C62.934,152 64,151.555 64,150.5 C64,149.452 65.056,149 67.5,149 C70.333,149 71,148.619 71,147 Z M64,78.5 C64,77.452 65.056,77 67.5,77 C69.944,77 71,77.452 71,78.5 C71,79.711 72.589,80.003 79.25,80.014 C88.804,80.029 92,80.682 92,82.617 C92,83.377 92.9,84 94,84 C95.1,84 96,84.623 96,85.383 C96,86.144 96.9,87.002 98,87.29 C99.1,87.577 100,88.53 100,89.406 C100,90.283 100.675,91 101.5,91 C102.69,91 103,92.444 103,98 L103,105 L96,105 L96,100 C96,95.667 95.733,95 94,95 C92.9,95 92,94.377 92,93.617 C92,92.101 89.032,91.035 84.75,91.014 C82.978,91.005 82,90.466 82,89.5 C82,88.278 80.333,88 73,88 C65.667,88 64,88.278 64,89.5 C64,90.604 62.849,91 59.64,91 C52.045,91 46,92.168 46,93.636 C46,94.623 44.479,95 40.5,95 L35,95 L35,91.617 C35,89.074 35.497,88.103 37,87.71 C38.1,87.423 39,86.47 39,85.594 C39,84.353 40.082,84 43.883,84 C47.926,84 48.857,83.656 49.29,82 C49.751,80.237 50.654,80 56.906,80 C62.545,80 64,79.692 64,78.5 Z M63.75,123.68 C69.464,123.007 90.74,123.406 91.534,124.201 C91.919,124.586 92.465,126.948 92.747,129.451 C93.078,132.386 93.746,134 94.63,134 C95.384,134 96,134.9 96,136 C96,137.606 95.333,138 92.617,138 C90.074,138 89.103,137.503 88.71,136 C88.423,134.9 87.47,134 86.594,134 C85.717,134 85,133.325 85,132.5 C85,131.284 83.389,131 76.5,131 C69.846,131 68,131.307 68,132.412 C68,133.28 66.459,134.085 64,134.5 C61.541,134.915 60,135.72 60,136.588 C60,137.535 58.848,138 56.5,138 C54.068,138 53,138.454 53,139.488 C53,140.451 51.588,141.202 49,141.616 C46.587,142.002 45,142.8 45,143.628 C45,144.608 43.571,145 40,145 C36.177,145 35,144.64 35,143.469 C35,142.626 34.325,141.678 33.5,141.362 C31.552,140.614 31.552,138 33.5,138 C34.325,138 35,137.345 35,136.545 C35,135.675 36.405,134.827 38.5,134.434 C40.505,134.058 42,133.184 42,132.389 C42,131.386 43.414,131 47.094,131 C51.346,131 52.274,130.67 52.71,129 C53.103,127.497 54.074,127 56.617,127 C58.894,127 60,126.53 60,125.56 C60,124.642 61.358,123.961 63.75,123.68 Z M77,37.726 C80.161,36.529 82,36.998 82,39 C82,40.333 82.667,41 84,41 C85.111,41 86,41.667 86,42.5 C86,43.325 86.675,44 87.5,44 C88.333,44 89,44.889 89,46 C89,47.104 89.667,48 90.488,48 C91.451,48 92.202,49.412 92.616,52 C93.002,54.413 93.8,56 94.628,56 C95.383,56 96,56.45 96,57 C96,57.55 95.365,58 94.588,58 C93.72,58 92.915,59.541 92.5,62 C92.085,64.459 91.28,66 90.412,66 C89.635,66 89,66.655 89,67.455 C89,68.325 87.595,69.173 85.5,69.566 C83.495,69.942 82,70.816 82,71.611 C82,72.565 80.746,73 78,73 C72.914,73 72.496,70.505 77.428,69.58 C80.196,69.06 80.98,68.366 81.507,65.968 C81.866,64.336 82.747,63 83.466,63 C84.908,63 85.932,58.096 85.243,54.491 C84.919,52.797 83.901,52.016 81.401,51.547 C79.384,51.169 78,50.317 78,49.455 C78,48.459 76.896,48 74.5,48 C71.167,48 71,47.833 71,44.5 C71,42.109 71.459,41 72.45,41 C73.248,41 74.26,40.391 74.7,39.647 C75.14,38.902 76.175,38.038 77,37.726 Z M161,118.5 C161,119.583 159.889,120 157,120 C154.261,120 153,120.436 153,121.383 C153,122.899 150.032,123.965 145.75,123.986 C144.077,123.995 143,124.544 143,125.389 C143,126.184 141.505,127.058 139.5,127.434 C136.002,128.09 134.583,130 137.594,130 C138.47,130 139.423,130.9 139.71,132 C140.316,134.318 143,134.726 143,132.5 C143,131.31 144.444,131 150,131 C155.738,131 157,130.713 157,129.406 C157,128.53 157.9,127.577 159,127.29 C160.1,127.002 161,126.144 161,125.383 C161,124.623 161.675,124 162.5,124 C163.333,124 164,123.111 164,122 C164,120.667 164.667,120 166,120 C167.111,120 168,119.333 168,118.5 C168,117.452 166.944,117 164.5,117 C162.056,117 161,117.452 161,118.5 Z M232.566,130.5 C232.173,132.595 231.325,134 230.455,134 C229.459,134 229,135.104 229,137.5 L229,141 L234.5,141 C238.722,141 240,140.652 240,139.5 C240,138.667 240.889,138 242,138 C243.111,138 244,138.667 244,139.5 Q244,141 247,141 Q250,141 250,139.5 C250,138.675 249.325,138 248.5,138 C247.452,138 247,136.944 247,134.5 C247,131.167 246.833,131 243.5,131 C241.187,131 240,130.531 240,129.617 C240,128.352 237.173,127.047 234.361,127.014 C233.735,127.006 232.927,128.575 232.566,130.5 Z"/>
</svg>

