<svg xmlns="http://www.w3.org/2000/svg" width="300" height="300" viewBox="0 0 300 300" version="1.1">
  <defs/>
  <path d="M87.832,94.25 C88.248,91.917 90.958,91.345 95.642,92.602 C97.655,93.142 97.828,94.015 98.505,107.088 C99.066,117.941 99.53,121 100.612,121 C101.571,121 102,122.272 102,125.117 C102,128.898 102.183,129.184 104.25,128.63 C105.487,128.299 107.737,128.021 109.25,128.014 C111.022,128.005 112,127.466 112,126.5 C112,125.417 113.111,125 116,125 C118.739,125 120,124.564 120,123.617 C120,121.897 123.077,121.031 129.25,121.014 C132.607,121.004 134,120.597 134,119.625 C134,118.254 138.12,117 142.625,117 C144.069,117 145,116.412 145,115.5 C145,114.452 146.056,114 148.5,114 C150.803,114 152,113.53 152,112.625 C152,111.052 156.259,110 162.625,110 C165.847,110 167,109.605 167,108.5 C167,107.312 168.431,107 173.883,107 C179.926,107 180.831,106.756 181.29,105 C181.782,103.119 182.654,103 195.906,103 C209.333,103 210,103.095 210,105 C210,106.619 210.667,107 213.5,107 C215.944,107 217,107.452 217,108.5 C217,109.555 218.066,110 220.594,110 C223.346,110 224.31,110.468 224.71,112 C224.998,113.1 225.856,114 226.617,114 C227.377,114 228,114.9 228,116 C228,117.111 228.667,118 229.5,118 C230.325,118 231,118.675 231,119.5 C231,120.325 230.325,121 229.5,121 C228.3,121 228,122.5 228,128.5 C228,134.5 227.7,136 226.5,136 C225.675,136 225,136.717 225,137.594 C225,138.47 224.126,139.416 223.057,139.695 C221.927,139.991 220.848,141.416 220.478,143.102 C220.128,144.696 219.202,146 218.421,146 C217.639,146 217,146.9 217,148 C217,149.333 216.333,150 215,150 C213.889,150 213,150.667 213,151.5 C213,152.325 212.325,153 211.5,153 C210.675,153 210,153.85 210,154.889 C210,156.255 209.033,156.959 206.5,157.434 C204.405,157.827 203,158.675 203,159.545 C203,160.345 202.377,161 201.617,161 C200.856,161 199.998,161.9 199.71,163 C199.397,164.197 198.346,165 197.094,165 C195.899,165 195,165.644 195,166.5 C195,167.487 194.013,168 192.117,168 C190.074,168 189.081,168.583 188.71,170 C188.397,171.197 187.346,172 186.094,172 C184.899,172 184,172.644 184,173.5 C184,174.325 183.325,175 182.5,175 C181.675,175 181,174.325 181,173.5 C181,172.675 180.325,172 179.5,172 C178.667,172 178,171.111 178,170 C178,168.889 178.667,168 179.5,168 C180.333,168 181,167.111 181,166 C181,164.381 181.667,164 184.5,164 C186.944,164 188,163.548 188,162.5 C188,161.667 188.889,161 190,161 C191.333,161 192,160.333 192,159 C192,157.667 192.667,157 194,157 C195.111,157 196,156.333 196,155.5 C196,154.675 196.675,154 197.5,154 C198.333,154 199,153.111 199,152 C199,150.667 199.667,150 201,150 C202.111,150 203,149.333 203,148.5 C203,147.675 203.717,147 204.594,147 C205.47,147 206.423,146.1 206.71,145 C206.998,143.9 207.856,143 208.617,143 C209.377,143 210,142.1 210,141 C210,139.667 210.667,139 212,139 C213.333,139 214,138.333 214,137 C214,135.889 214.667,135 215.5,135 C216.548,135 217,133.944 217,131.5 C217,129.056 217.452,128 218.5,128 C219.325,128 220,127.325 220,126.5 C220,125.675 219.57,125 219.045,125 C218.52,125 217.797,123.436 217.439,121.525 C216.881,118.553 216.296,117.959 213.393,117.414 C211.47,117.053 210,116.176 210,115.389 C210,114.255 206.692,114 192,114 C177.341,114 174,114.257 174,115.383 C174,117.103 170.923,117.969 164.75,117.986 C161.201,117.997 160,118.379 160,119.5 C160,120.583 158.889,121 156,121 C153.261,121 152,121.436 152,122.383 C152,123.959 149,124.966 144.25,124.986 C142.034,124.996 141,125.477 141,126.5 C141,127.412 140.069,128 138.625,128 C134.12,128 130,129.254 130,130.625 C130,131.648 128.366,132 123.617,132 C118.074,132 117.164,132.263 116.71,134 C116.274,135.67 115.346,136 111.094,136 C107.1,136 106,136.344 106,137.594 C106,138.47 105.1,139.423 104,139.71 C101.634,140.329 101.07,146 103.375,146 C104.904,146 106,150.228 106,156.125 C106,158.903 106.425,160 107.5,160 C108.523,160 109.004,161.034 109.014,163.25 C109.034,168 110.041,171 111.617,171 C112.377,171 113,171.9 113,173 C113,174.1 113.625,175 114.389,175 C115.184,175 116.058,176.495 116.434,178.5 C116.827,180.595 117.675,182 118.545,182 C119.345,182 120,182.9 120,184 C120,185.1 120.655,186 121.455,186 C122.325,186 123.173,187.405 123.566,189.5 C123.942,191.505 124.816,193 125.611,193 C126.375,193 127,193.9 127,195 C127,196.333 127.667,197 129,197 C130.333,197 131,197.667 131,199 C131,200.1 131.639,201 132.421,201 C133.202,201 134.138,202.35 134.5,204 C134.862,205.65 135.798,207 136.579,207 C137.527,207 138,208.127 138,210.383 C138,212.926 138.497,213.897 140,214.29 C141.197,214.603 142,215.654 142,216.906 C142,218.058 142.639,219 143.421,219 C144.202,219 145.138,220.35 145.5,222 C145.862,223.65 146.798,225 147.579,225 C148.708,225 149,226.967 149,234.56 L149,244.121 L145.25,243.81 L141.5,243.5 L141.198,238.25 C140.98,234.473 140.489,233 139.448,233 C138.651,233 138,232.1 138,231 C138,229.889 137.333,229 136.5,229 C135.452,229 135,227.944 135,225.5 C135,222.667 134.619,222 133,222 C131.378,222 131,221.333 131,218.469 C131,216.319 130.437,214.721 129.561,214.385 C128.77,214.081 127.834,212.521 127.482,210.916 C127.129,209.312 126.202,208 125.421,208 C124.639,208 124,207.1 124,206 C124,204.667 123.333,204 122,204 C120.381,204 120,203.333 120,200.5 C120,197.667 119.619,197 118,197 C116.667,197 116,196.333 116,195 C116,193.889 115.333,193 114.5,193 C113.675,193 113,192.283 113,191.406 C113,190.53 112.1,189.577 111,189.29 C109.497,188.897 109,187.926 109,185.383 C109,183.089 108.532,182 107.545,182 C106.675,182 105.827,180.595 105.434,178.5 C105.058,176.495 104.184,175 103.389,175 C102.468,175 102,173.82 102,171.5 C102,169.187 101.531,168 100.617,168 C98.897,168 98.031,164.923 98.014,158.75 C98.003,155.201 97.621,154 96.5,154 C95.348,154 95,152.722 95,148.5 L95,143 L91.5,143 C89.056,143 88,143.452 88,144.5 C88,145.386 87.079,146.004 85.75,146.009 C84.513,146.013 81.138,146.301 78.25,146.648 L73,147.279 L73,143.139 C73,139.667 73.322,139 75,139 C76.1,139 77,138.381 77,137.625 C77,136.254 81.12,135 85.625,135 C87.069,135 88,134.412 88,133.5 C88,132.675 88.675,132 89.5,132 C90.722,132 91,130.333 91,123 C91,115.96 90.696,114 89.603,114 C88.542,114 88.112,111.891 87.818,105.25 C87.605,100.438 87.611,95.487 87.832,94.25 Z M127.19,59.75 L126.879,56 L132.44,56 C137.333,56 138,56.24 138,58 C138,59.619 138.667,60 141.5,60 C143.848,60 145,60.465 145,61.412 C145,62.28 146.541,63.085 149,63.5 C151.459,63.915 153,64.72 153,65.588 C153,66.535 154.152,67 156.5,67 C159.333,67 160,67.381 160,69 C160,70.538 160.667,71 162.883,71 C166.029,71 166.961,72.762 166.986,78.75 C166.999,81.8 166.785,82 163.5,82 C160.667,82 160,81.619 160,80 C160,78.394 159.333,78 156.617,78 C154.074,78 153.103,77.503 152.71,76 C152.397,74.803 151.346,74 150.094,74 C148.899,74 148,73.356 148,72.5 C148,71.534 147.022,70.995 145.25,70.986 C140.968,70.965 138,69.899 138,68.383 C138,67.623 137.1,67 136,67 C134.9,67 134,66.354 134,65.563 C134,64.673 132.763,64.007 130.75,63.813 C127.783,63.527 127.473,63.174 127.19,59.75 Z"/>
</svg>

