<svg xmlns="http://www.w3.org/2000/svg" width="300" height="300" viewBox="0 0 300 300" version="1.1">
  <defs/>
  <path d="M156,86.383 C156,84.885 157.238,84.689 160.75,85.63 C161.988,85.962 163,86.856 163,87.617 C163,88.377 163.675,89 164.5,89 C165.325,89 166,89.717 166,90.594 C166,91.47 166.9,92.423 168,92.71 C169.1,92.998 170,93.856 170,94.617 C170,95.377 170.9,96 172,96 C173.619,96 174,96.667 174,99.5 C174,102.036 174.439,103 175.594,103 C176.47,103 177.423,103.9 177.71,105 C177.998,106.1 178.806,107 179.505,107 C180.205,107 181.073,108.575 181.434,110.5 C181.827,112.595 182.675,114 183.545,114 C184.345,114 185,114.9 185,116 C185,117.111 185.667,118 186.5,118 C187.325,118 188,118.675 188,119.5 C188,120.333 188.889,121 190,121 C191.619,121 192,121.667 192,124.5 C192,127.036 192.439,128 193.594,128 C194.47,128 195.423,128.9 195.71,130 C195.998,131.1 196.806,132 197.505,132 C198.205,132 199.073,133.575 199.434,135.5 C199.827,137.595 200.675,139 201.545,139 C202.345,139 203,139.675 203,140.5 C203,141.325 203.717,142 204.594,142 C205.47,142 206.423,142.9 206.71,144 C206.998,145.1 207.856,146 208.617,146 C209.377,146 210,146.9 210,148 C210,149.1 210.623,150 211.383,150 C212.144,150 213.002,150.9 213.29,152 C213.577,153.1 214.53,154 215.406,154 C216.561,154 217,154.964 217,157.5 C217,160.333 217.381,161 219,161 C220.619,161 221,161.667 221,164.5 C221,166.896 221.459,168 222.455,168 C223.325,168 224.173,169.405 224.566,171.5 C224.942,173.505 225.816,175 226.611,175 C227.523,175 228,176.163 228,178.383 C228,180.926 228.497,181.897 230,182.29 C232.08,182.834 232.611,186.117 231.37,190.75 C230.717,193.184 228,193.883 228,191.617 C228,190.856 227.1,189.998 226,189.71 C224.544,189.329 224,188.346 224,186.094 C224,184.01 223.51,183 222.5,183 C221.675,183 221,182.152 221,181.117 C221,180.074 220.107,179 219,178.71 C217.544,178.329 217,177.346 217,175.094 C217,173.01 216.51,172 215.5,172 C214.667,172 214,171.111 214,170 C214,168.667 213.333,168 212,168 C210.381,168 210,167.333 210,164.5 C210,161.667 209.619,161 208,161 C206.667,161 206,160.333 206,159 C206,157.9 205.375,157 204.611,157 C203.816,157 202.942,155.505 202.566,153.5 C202.173,151.405 201.325,150 200.455,150 C199.655,150 199,149.325 199,148.5 C199,147.675 198.325,147 197.5,147 C196.667,147 196,146.111 196,145 C196,143.667 195.333,143 194,143 C192.667,143 192,142.333 192,141 C192,139.667 191.333,139 190,139 C188.667,139 188,138.333 188,137 C188,135.9 187.361,135 186.579,135 C185.798,135 184.871,133.688 184.518,132.084 C184.166,130.479 183.23,128.919 182.439,128.615 C181.648,128.311 181,127.374 181,126.531 C181,125.689 180.377,125 179.617,125 C178.856,125 177.998,124.1 177.71,123 C177.423,121.9 176.47,121 175.594,121 C174.439,121 174,120.036 174,117.5 C174,114.667 173.619,114 172,114 C170.667,114 170,113.333 170,112 C170,110.889 169.333,110 168.5,110 C167.675,110 167,109.377 167,108.617 C167,107.856 166.1,106.998 165,106.71 C163.567,106.335 163,105.346 163,103.219 C163,100.778 162.511,100.154 160.25,99.708 C158.738,99.41 156.262,99.406 154.75,99.7 C152.009,100.231 152,100.215 152,94.523 C152,89.654 152.295,88.736 154,88.29 C155.1,88.002 156,87.144 156,86.383 Z M107.816,99.677 C112.833,98.352 113,98.572 113,106.5 C113,113.333 112.822,114 111,114 C109.242,114 109,114.667 109,119.5 C109,123.722 108.652,125 107.5,125 C106.363,125 106,126.233 106,130.094 C106,134.346 105.67,135.274 104,135.71 C102.344,136.143 102,137.074 102,141.117 C102,144.593 101.604,146 100.625,146 C99.254,146 98,150.12 98,154.625 C98,156.069 97.412,157 96.5,157 C95.462,157 95,158.043 95,160.383 C95,162.926 94.503,163.897 93,164.29 C91.468,164.69 91,165.654 91,168.406 C91,170.934 90.555,172 89.5,172 C88.534,172 87.995,172.978 87.986,174.75 C87.965,179.032 86.899,182 85.383,182 C84.436,182 84,183.261 84,186 C84,188.739 83.564,190 82.617,190 C81.101,190 80.035,192.968 80.014,197.25 C80.005,199.022 79.466,200 78.5,200 C77.417,200 77,201.111 77,204 C77,206.889 77.417,208 78.5,208 C79.552,208 80,209.061 80,211.552 L80,215.105 L74.75,214.802 L69.5,214.5 L69.18,209.5 C68.717,202.281 69.825,196 71.561,196 C72.621,196 73,194.683 73,191 C73,186.667 73.267,186 75,186 C76.667,186 77,185.333 77,182 C77,179.111 77.417,178 78.5,178 C79.466,178 80.005,177.022 80.014,175.25 C80.035,170.968 81.101,168 82.617,168 C83.531,168 84,166.813 84,164.5 C84,162.197 84.47,161 85.375,161 C86.746,161 88,156.88 88,152.375 C88,150.931 88.588,150 89.5,150 C90.544,150 91,148.95 91,146.55 C91,144.421 91.615,142.755 92.606,142.201 C93.572,141.66 94.42,139.449 94.736,136.651 C95.076,133.635 95.742,132 96.63,132 C97.596,132 98.004,130.598 98.014,127.25 C98.031,121.077 98.897,118 100.617,118 C101.641,118 102,116.442 102,112 C102,107.482 102.351,106 103.421,106 C104.202,106 105.132,104.677 105.487,103.061 C105.842,101.444 106.89,99.921 107.816,99.677 Z"/>
</svg>

