<svg xmlns="http://www.w3.org/2000/svg" width="300" height="300" viewBox="0 0 300 300" version="1.1">
  <defs/>
  <path d="M153,38.912 C153,38.41 153.675,38 154.5,38 C155.633,38 156,39.222 156,43 C156,46.778 155.633,48 154.5,48 C153.675,48 153,48.717 153,49.594 C153,50.47 152.1,51.423 151,51.71 C149.888,52.001 149,53.074 149,54.126 C149,55.168 148.1,56.79 147,57.732 C145.9,58.674 145,60.019 145,60.722 C145,61.425 144.325,62 143.5,62 C142.667,62 142,62.889 142,64 C142,65.333 141.333,66 140,66 C138.381,66 138,66.667 138,69.5 C138,71.896 137.541,73 136.545,73 C135.675,73 134.827,74.405 134.434,76.5 C134.058,78.505 133.184,80 132.389,80 C131.625,80 131,80.9 131,82 C131,83.1 130.345,84 129.545,84 C128.675,84 127.827,85.405 127.434,87.5 C127.058,89.505 126.184,91 125.389,91 C124.468,91 124,92.18 124,94.5 C124,96.944 124.452,98 125.5,98 C126.325,98 127,97.325 127,96.5 C127,95.236 129.278,95 141.5,95 C153.179,95 156,94.731 156,93.617 C156,91.759 159.152,91.03 167.25,91.014 C172.27,91.004 174,90.651 174,89.639 C174,88.249 180.622,87.026 188.25,87.009 C190.913,87.003 192,86.565 192,85.5 C192,84.348 193.278,84 197.5,84 C201.722,84 203,84.348 203,85.5 C203,86.325 203.675,87 204.5,87 C205.333,87 206,87.889 206,89 C206,90.111 205.333,91 204.5,91 C203.46,91 203,92.046 203,94.412 C203,97.614 202.753,97.866 199,98.5 C196.541,98.915 195,99.72 195,100.588 C195,101.611 193.656,102 190.117,102 C186.074,102 185.143,101.656 184.71,100 C184.298,98.424 183.346,98 180.219,98 C174.234,98 170,99.088 170,100.625 C170,101.726 167.212,102 156,102 C144.788,102 142,102.274 142,103.375 C142,105.176 137.568,106 127.875,106 C121.822,106 120,106.321 120,107.389 C120,108.184 118.505,109.058 116.5,109.434 C113.302,110.034 113,110.389 113,113.545 C113,115.864 112.533,117 111.579,117 C110.798,117 109.862,118.35 109.5,120 C109.138,121.65 108.241,123 107.508,123 C106.733,123 105.893,124.672 105.5,127 C105.085,129.459 104.28,131 103.412,131 C102.465,131 102,132.152 102,134.5 C102,137.333 101.619,138 100,138 C98.667,138 98,138.667 98,140 C98,141.111 97.333,142 96.5,142 C95.675,142 95,142.675 95,143.5 C95,144.325 95.675,145 96.5,145 C97.325,145 98,144.381 98,143.625 C98,142.254 102.12,141 106.625,141 C108.069,141 109,140.412 109,139.5 C109,138.278 110.667,138 118,138 C125.333,138 127,138.278 127,139.5 C127,140.412 127.931,141 129.375,141 C133.88,141 138,142.254 138,143.625 C138,144.53 139.197,145 141.5,145 C144.333,145 145,145.381 145,147 C145,148.333 145.667,149 147,149 C148.1,149 149,149.625 149,150.389 C149,151.184 150.495,152.058 152.5,152.434 C154.595,152.827 156,153.675 156,154.545 C156,155.345 156.675,156 157.5,156 C158.325,156 159,156.717 159,157.594 C159,158.47 159.9,159.423 161,159.71 C162.1,159.998 163,160.856 163,161.617 C163,162.377 163.9,163 165,163 C166.1,163 167,162.345 167,161.545 C167,160.675 168.405,159.827 170.5,159.434 C172.505,159.058 174,158.184 174,157.389 C174,156.468 175.18,156 177.5,156 C179.803,156 181,155.53 181,154.625 C181,153.096 185.228,152 191.125,152 C193.903,152 195,151.575 195,150.5 C195,149.348 196.278,149 200.5,149 C204.722,149 206,149.348 206,150.5 C206,151.333 206.889,152 208,152 C209.667,152 210,152.667 210,156 L210,160 L197.5,160 C187.056,160 185,160.247 185,161.5 C185,162.523 183.966,163.004 181.75,163.014 C177,163.034 174,164.041 174,165.617 C174,166.531 172.813,167 170.5,167 L167,167 L167,172.5 C167,176.722 167.348,178 168.5,178 C169.749,178 170,179.987 170,189.883 C170,197.714 170.008,200.852 168.473,202.117 C167.438,202.969 165.704,202.972 162.795,202.986 C160.475,202.998 159.994,202.485 159.411,199.378 C159.037,197.385 159.03,191.795 159.396,186.955 C159.782,181.84 159.672,177.915 159.133,177.582 C157.537,176.596 152,178.182 152,179.625 C152,180.495 150.865,181 148.906,181 C146.654,181 145.671,181.544 145.29,183 C145,184.107 143.926,185 142.883,185 C141.848,185 141,185.675 141,186.5 C141,187.325 140.325,188 139.5,188 C138.667,188 138,188.889 138,190 C138,191.333 137.333,192 136,192 C134.9,192 134,192.639 134,193.421 C134,194.202 132.679,195.131 131.065,195.486 C128.861,195.97 127.97,196.861 127.486,199.065 C127.119,200.736 126.189,202 125.327,202 C124.494,202 123.577,202.9 123.29,204 C123.002,205.1 122.144,206 121.383,206 C120.623,206 120,206.9 120,208 C120,209.333 119.333,210 118,210 C116.667,210 116,210.667 116,212 C116,213.111 115.333,214 114.5,214 C113.675,214 113,214.653 113,215.45 C113,216.248 112.277,217.305 111.394,217.799 C110.428,218.34 109.58,220.551 109.264,223.349 C108.924,226.365 108.258,228 107.37,228 C106.616,228 106,228.9 106,230 C106,231.111 106.667,232 107.5,232 C108.548,232 109,233.056 109,235.5 C109,238.333 109.381,239 111,239 C112.111,239 113,239.667 113,240.5 C113,241.412 113.931,242 115.375,242 C119.88,242 124,243.254 124,244.625 C124,245.661 125.727,246 131,246 C136.272,246 138,246.339 138,247.375 C138,249.229 149.828,249.808 175.25,249.199 C191.026,248.821 195,248.452 195,247.363 C195,246.267 198.237,246 211.5,246 L228,246 L228,242 C228,239.248 228.434,238 229.393,238 C230.159,238 231.045,237.325 231.362,236.5 C231.678,235.675 232.626,235 233.469,235 C234.73,235 235,236.585 235,244 C235,250.996 234.692,253 233.617,253 C232.856,253 231.998,253.9 231.71,255 C231.105,257.315 228,257.733 228,255.5 C228,253.726 225.344,253.469 224.771,255.188 C224.492,256.023 219.117,256.506 206.687,256.814 C192.565,257.164 189,257.529 189,258.626 C189,259.747 185.22,260 168.5,260 C150.944,260 148,259.785 148,258.5 C148,257.262 146.167,257 137.5,257 C127.667,257 127,256.873 127,255 C127,253.19 126.333,253 120,253 C114.638,253 113,252.67 113,251.588 C113,250.72 111.459,249.915 109,249.5 C106.541,249.085 105,248.28 105,247.412 C105,246.635 104.325,246 103.5,246 C102.675,246 102,245.325 102,244.5 C102,243.675 101.381,243 100.625,243 C98.859,243 97.996,238.58 98.014,229.625 C98.03,221.164 98.738,218 100.617,218 C101.377,218 102,217.1 102,216 C102,214.837 102.667,214 103.594,214 C104.47,214 105.423,213.1 105.71,212 C105.998,210.9 106.806,210 107.505,210 C108.205,210 109.067,208.458 109.42,206.572 C109.936,203.825 110.64,203.018 112.967,202.507 C115.138,202.03 116.032,201.13 116.514,198.935 C116.869,197.321 117.798,196 118.579,196 C119.361,196 120,195.1 120,194 C120,192.381 120.667,192 123.5,192 C126.333,192 127,191.619 127,190 C127,188.667 127.667,188 129,188 C130.111,188 131,187.333 131,186.5 C131,185.675 131.623,185 132.383,185 C133.144,185 134.002,184.1 134.29,183 C134.577,181.9 135.53,181 136.406,181 C137.283,181 138,180.345 138,179.545 C138,178.675 139.405,177.827 141.5,177.434 C143.505,177.058 145,176.184 145,175.389 C145,174.625 145.9,174 147,174 C148.333,174 149,173.333 149,172 C149,170.63 149.667,170 151.117,170 C152.824,170 153.117,169.565 152.63,167.75 C152.299,166.512 152.021,164.938 152.014,164.25 C152.006,163.563 151.325,163 150.5,163 C149.675,163 149,162.283 149,161.406 C149,160.53 148.1,159.577 147,159.29 C145.9,159.002 145,158.144 145,157.383 C145,156.623 144.1,156 143,156 C141.9,156 141,155.345 141,154.545 C141,153.675 139.595,152.827 137.5,152.434 C135.495,152.058 134,151.184 134,150.389 C134,149.278 131.499,149 121.5,149 C111.056,149 109,149.247 109,150.5 C109,151.466 108.022,152.005 106.25,152.014 C101.968,152.035 99,153.101 99,154.617 C99,155.377 98.1,156 97,156 C95.9,156 95,156.623 95,157.383 C95,158.144 94.1,159.002 93,159.29 C91.9,159.577 91,160.53 91,161.406 C91,162.283 90.311,163 89.469,163 C88.626,163 87.678,163.675 87.362,164.5 C87.045,165.325 86.159,166 85.393,166 C84.627,166 84,166.9 84,168 C84,169.111 83.333,170 82.5,170 C81.667,170 81,170.889 81,172 C81,173.333 80.333,174 79,174 C77.667,174 77,174.667 77,176 C77,177.333 76.333,178 75,178 C73.889,178 73,178.667 73,179.5 C73,180.333 72.111,181 71,181 C69.889,181 69,180.333 69,179.5 C69,178.675 68.325,178 67.5,178 C66.452,178 66,176.944 66,174.5 C66,172.152 66.465,171 67.412,171 C68.28,171 69.085,169.459 69.5,167 C69.915,164.541 70.72,163 71.588,163 C72.365,163 73,162.377 73,161.617 C73,160.856 73.9,159.998 75,159.71 C76.1,159.423 77,158.47 77,157.594 C77,156.717 77.675,156 78.5,156 C79.548,156 80,154.944 80,152.5 C80,149.667 80.381,149 82,149 C83.333,149 84,148.333 84,147 C84,145.9 84.655,145 85.455,145 C86.325,145 87.173,143.595 87.566,141.5 C87.942,139.495 88.816,138 89.611,138 C90.532,138 91,136.82 91,134.5 C91,131.667 91.381,131 93,131 C94.333,131 95,130.333 95,129 C95,127.889 95.667,127 96.5,127 C97.548,127 98,125.944 98,123.5 C98,120.667 98.381,120 100,120 C101.619,120 102,119.333 102,116.5 C102,114.056 102.452,113 103.5,113 C104.365,113 105,112.096 105,110.863 C105,108.842 104.641,108.755 98.374,109.258 C94.73,109.551 91.411,110.334 91,111 C90.589,111.666 87.27,112.449 83.626,112.742 C78.959,113.117 77,113.677 77,114.637 C77,115.387 76.1,116 75,116 C73.262,116 73,115.333 73,110.906 C73,106.654 73.33,105.726 75,105.29 C76.1,105.002 77,104.144 77,103.383 C77,102.269 79.821,102 91.5,102 C103.521,102 106,101.751 106,100.545 C106,99.675 107.405,98.827 109.5,98.434 C112.541,97.864 113,97.398 113,94.889 C113,92.988 113.513,92 114.5,92 C115.356,92 116,91.101 116,89.906 C116,88.654 116.803,87.603 118,87.29 C119.503,86.897 120,85.926 120,83.383 C120,81.089 120.468,80 121.455,80 C122.325,80 123.173,78.595 123.566,76.5 C123.942,74.495 124.816,73 125.611,73 C126.532,73 127,71.82 127,69.5 C127,66.667 127.381,66 129,66 C130.619,66 131,65.333 131,62.5 C131,60.18 131.468,59 132.389,59 C133.184,59 134.058,57.505 134.434,55.5 C134.827,53.405 135.675,52 136.545,52 C137.345,52 138,51.1 138,50 C138,48.667 138.667,48 140,48 C141.333,48 142,47.333 142,46 C142,44.889 142.667,44 143.5,44 C144.325,44 145,43.365 145,42.588 C145,41.72 146.541,40.915 149,40.5 C151.2,40.128 153,39.414 153,38.912 Z"/>
</svg>

