<svg xmlns="http://www.w3.org/2000/svg" width="300" height="300" viewBox="0 0 300 300" version="1.1">
  <defs/>
  <path d="M229,80 C229,78.667 229.667,78 231,78 C232.758,78 233,78.667 233,83.5 C233,88.333 232.758,89 231,89 C229.381,89 229,89.667 229,92.5 C229,94.82 228.532,96 227.611,96 C226.816,96 225.942,97.495 225.566,99.5 C225.173,101.595 224.325,103 223.455,103 C222.655,103 222,103.9 222,105 C222,106.111 221.333,107 220.5,107 C219.675,107 219,107.717 219,108.594 C219,109.47 218.1,110.423 217,110.71 C215.583,111.081 215,112.074 215,114.117 C215,116.088 214.496,117 213.406,117 C212.53,117 211.577,117.9 211.29,119 C211.002,120.1 210.144,121 209.383,121 C208.623,121 208,121.717 208,122.594 C208,123.47 207.1,124.423 206,124.71 C204.497,125.103 204,126.074 204,128.617 C204,131.333 203.606,132 202,132 C200.667,132 200,132.667 200,134 C200,135.1 199.361,136 198.579,136 C197.798,136 196.871,137.312 196.518,138.916 C196.166,140.521 195.23,142.081 194.439,142.385 C193.648,142.689 193,143.626 193,144.469 C193,145.311 192.325,146 191.5,146 C190.667,146 190,146.889 190,148 C190,149.333 189.333,150 188,150 C186.667,150 186,150.667 186,152 C186,153.1 185.377,154 184.617,154 C183.856,154 182.998,154.9 182.71,156 C182.423,157.1 181.47,158 180.594,158 C179.717,158 179,158.675 179,159.5 C179,160.325 178.377,161 177.617,161 C176.856,161 175.998,161.9 175.71,163 C175.423,164.1 174.506,165 173.673,165 C172.804,165 171.878,166.278 171.5,168 C171.138,169.65 170.202,171 169.421,171 C168.639,171 168,171.9 168,173 C168,174.333 167.333,175 166,175 C164.667,175 164,175.667 164,177 C164,178.111 163.333,179 162.5,179 C161.675,179 161,179.623 161,180.383 C161,181.144 160.1,182.002 159,182.29 C157.9,182.577 157,183.53 157,184.406 C157,185.333 156.163,186 155,186 C153.889,186 153,186.667 153,187.5 C153,188.325 152.325,189 151.5,189 C150.667,189 150,189.889 150,191 C150,192.619 149.333,193 146.5,193 C143.667,193 143,193.381 143,195 C143,196.333 142.333,197 141,197 C139.667,197 139,197.667 139,199 C139,200.111 138.333,201 137.5,201 C136.675,201 136,201.675 136,202.5 C136,203.333 135.111,204 134,204 C132.667,204 132,204.667 132,206 C132,207.333 131.333,208 130,208 C128.889,208 128,208.667 128,209.5 C128,210.325 127.425,211 126.722,211 C126.019,211 124.674,211.9 123.732,213 C122.79,214.1 121.115,215 120.01,215 C118.667,215 118,215.663 118,217 C118,218.333 117.333,219 116,219 C114.889,219 114,219.667 114,220.5 C114,221.333 113.111,222 112,222 C110.667,222 110,222.667 110,224 C110,225.333 109.333,226 108,226 C106.889,226 106,226.667 106,227.5 C106,228.487 105.013,229 103.117,229 C101.074,229 100.081,229.583 99.71,231 C99.31,232.532 98.346,233 95.594,233 C93.216,233 92,233.464 92,234.371 C92,236.207 82.23,237.284 73.601,236.4 L67,235.724 L67,226 L72.5,226 C76.722,226 78,226.348 78,227.5 C78,228.548 79.056,229 81.5,229 C83.848,229 85,228.535 85,227.588 C85,226.72 86.541,225.915 89,225.5 C91.459,225.085 93,224.28 93,223.412 C93,222.465 94.152,222 96.5,222 C99.333,222 100,221.619 100,220 C100,218.444 100.667,218 103,218 Q106,218 106,216.5 C106,215.675 106.848,215 107.883,215 C108.926,215 110,214.107 110.29,213 C110.577,211.9 111.53,211 112.406,211 C113.283,211 114,210.325 114,209.5 C114,208.675 114.717,208 115.594,208 C116.47,208 117.423,207.1 117.71,206 C118,204.893 119.074,204 120.117,204 C121.152,204 122,203.361 122,202.579 C122,201.798 123.35,200.862 125,200.5 C126.65,200.138 128,199.202 128,198.421 C128,197.639 128.9,197 130,197 C131.333,197 132,196.333 132,195 C132,193.889 132.667,193 133.5,193 C134.325,193 135,192.325 135,191.5 C135,190.667 135.889,190 137,190 C138.333,190 139,189.333 139,188 C139,186.667 139.667,186 141,186 C142.1,186 143,185.377 143,184.617 C143,183.856 143.9,182.998 145,182.71 C146.1,182.423 147,181.47 147,180.594 C147,179.717 147.675,179 148.5,179 C149.325,179 150,178.345 150,177.545 C150,176.682 151.385,175.831 153.406,175.452 C156.307,174.907 156.907,174.307 157.452,171.406 C157.831,169.385 158.682,168 159.545,168 C160.345,168 161,167.325 161,166.5 C161,165.675 161.717,165 162.594,165 C163.47,165 164.423,164.1 164.71,163 C164.998,161.9 165.856,161 166.617,161 C167.377,161 168,160.1 168,159 C168,157.667 168.667,157 170,157 C171.111,157 172,156.333 172,155.5 C172,154.675 172.675,154 173.5,154 C174.333,154 175,153.111 175,152 C175,150.667 175.667,150 177,150 C178.333,150 179,149.333 179,148 C179,146.889 179.667,146 180.5,146 C181.325,146 182,145.325 182,144.5 C182,143.667 182.889,143 184,143 C185.607,143 186,142.333 186,139.611 C186,136.53 186.318,136.163 189.5,135.566 C192.591,134.986 193,134.553 193,131.861 C193,129.654 193.552,128.668 195,128.29 C196.107,128 197,126.926 197,125.883 C197,124.848 197.639,124 198.421,124 C199.202,124 200.138,122.65 200.5,121 C200.862,119.35 201.798,118 202.579,118 C203.361,118 204,117.1 204,116 C204,114.9 204.623,114 205.383,114 C206.144,114 207.002,113.1 207.29,112 C207.577,110.9 208.53,110 209.406,110 C210.336,110 211,109.162 211,107.99 C211,106.885 211.9,105.21 213,104.268 C214.1,103.326 215,101.981 215,101.278 C215,100.575 215.675,100 216.5,100 C217.333,100 218,99.111 218,98 C218,96.667 218.667,96 220,96 C221.619,96 222,95.333 222,92.5 C222,90.104 222.459,89 223.455,89 C224.325,89 225.173,87.595 225.566,85.5 C225.942,83.495 226.816,82 227.611,82 C228.375,82 229,81.1 229,80 Z M96,65.5 C96,64.452 97.056,64 99.5,64 C101.944,64 103,64.452 103,65.5 C103,66.333 103.889,67 105,67 C106.333,67 107,67.667 107,69 C107,70.111 107.667,71 108.5,71 C109.325,71 110,71.675 110,72.5 C110,73.333 110.889,74 112,74 C113.333,74 114,74.667 114,76 C114,77.333 114.667,78 116,78 C117.333,78 118,78.667 118,80 C118,81.111 118.667,82 119.5,82 C120.325,82 121,82.675 121,83.5 C121,84.333 121.889,85 123,85 C124.333,85 125,85.667 125,87 C125,88.111 125.667,89 126.5,89 C127.325,89 128,89.717 128,90.594 C128,91.47 128.9,92.423 130,92.71 C131.503,93.103 132,94.074 132,96.617 C132,99.333 132.394,100 134,100 C135.333,100 136,100.667 136,102 C136,103.111 136.667,104 137.5,104 C138.487,104 139,104.987 139,106.883 C139,109.028 138.424,109.921 136.75,110.37 C132.993,111.376 132,111.09 132,109 C132,107.667 131.333,107 130,107 C128.667,107 128,106.333 128,105 C128,103.889 127.333,103 126.5,103 C125.675,103 125,102.325 125,101.5 C125,100.675 124.283,100 123.406,100 C122.53,100 121.577,99.1 121.29,98 C121.002,96.9 120.144,96 119.383,96 C118.623,96 118,95.1 118,94 C118,92.667 117.333,92 116,92 C114.667,92 114,91.333 114,90 C114,88.889 113.333,88 112.5,88 C111.675,88 111,87.325 111,86.5 C111,85.675 110.152,85 109.117,85 C108.074,85 107,84.107 106.71,83 C106.423,81.9 105.47,81 104.594,81 C103.717,81 103,80.325 103,79.5 C103,78.452 101.944,78 99.5,78 C96.667,78 96,77.619 96,76 C96,74.667 95.333,74 94,74 C92.381,74 92,73.333 92,70.5 C92,67.667 92.381,67 94,67 C95.111,67 96,66.333 96,65.5 Z M65.75,106.654 C66.713,106.383 68.794,106.35 70.375,106.581 C71.956,106.811 74.319,107 75.625,107 C77.069,107 78,107.588 78,108.5 C78,109.325 78.717,110 79.594,110 C80.47,110 81.423,110.9 81.71,112 C82,113.107 83.074,114 84.117,114 C85.152,114 86,114.655 86,115.455 C86,116.325 87.405,117.173 89.5,117.566 C91.505,117.942 93,118.816 93,119.611 C93,120.375 93.675,121 94.5,121 C95.325,121 96,121.625 96,122.389 C96,123.184 97.495,124.058 99.5,124.434 C101.595,124.827 103,125.675 103,126.545 C103,127.348 103.924,128 105.06,128 C106.83,128 107.077,128.53 106.81,131.75 L106.5,135.5 L101.25,135.802 L96,136.105 L96,132.664 C96,129.523 95.695,129.165 92.5,128.566 C90.405,128.173 89,127.325 89,126.455 C89,125.468 87.911,125 85.617,125 C83.074,125 82.103,124.503 81.71,123 C81.329,121.544 80.346,121 78.094,121 C76.01,121 75,120.51 75,119.5 C75,118.667 74.111,118 73,118 C71.667,118 71,117.333 71,116 C71,114.667 70.333,114 69,114 C67.667,114 67,113.333 67,112 C67,110.889 66.333,110 65.5,110 C63.41,110 63.615,107.255 65.75,106.654 Z"/>
</svg>

