<svg xmlns="http://www.w3.org/2000/svg" width="300" height="300" viewBox="0 0 300 300" version="1.1">
  <defs/>
  <path d="M84,98.5 C84,95.18 84.177,95 87.43,95 C90.214,95 90.929,95.424 91.224,97.25 C91.424,98.487 91.392,109.669 91.154,122.099 C90.694,146.094 91.166,152 93.545,152 C94.345,152 95,151.373 95,150.606 C95,149.559 97.012,149.12 103.076,148.845 C109.457,148.555 111.357,148.113 112.126,146.739 C112.757,145.611 114.312,145 116.55,145 C118.95,145 120,144.544 120,143.5 C120,142.534 120.978,141.995 122.75,141.986 C127.032,141.965 130,140.899 130,139.383 C130,138.436 131.261,138 134,138 C136.739,138 138,137.564 138,136.617 C138,135.041 141,134.034 145.75,134.014 C147.966,134.004 149,133.523 149,132.5 C149,131.379 150.201,130.997 153.75,130.986 C159.923,130.969 163,130.103 163,128.383 C163,127.373 164.484,127 168.5,127 C172.49,127 174,126.624 174,125.63 C174,124.109 181.173,122.928 185.448,123.745 C187.481,124.134 188,124.819 188,127.117 C188,128.894 187.473,130 186.628,130 C185.8,130 185.002,131.587 184.616,134 C184.202,136.588 183.451,138 182.488,138 C181.454,138 181,139.068 181,141.5 C181,143.944 180.548,145 179.5,145 C178.452,145 178,146.056 178,148.5 C178,151.333 177.619,152 176,152 C174.333,152 174,152.667 174,156 C174,158.834 173.576,160 172.545,160 C171.675,160 170.827,161.405 170.434,163.5 C170.058,165.505 169.184,167 168.389,167 C167.386,167 167,168.414 167,172.094 C167,176.346 166.67,177.274 165,177.71 C163.608,178.074 163,179.074 163,181 C163,182.926 162.392,183.926 161,184.29 C159.9,184.577 159,185.53 159,186.406 C159,187.283 158.325,188 157.5,188 C156.31,188 156,186.556 156,181 C156,175.444 156.31,174 157.5,174 C158.412,174 159,173.069 159,171.625 C159,167.12 160.254,163 161.625,163 C162.53,163 163,161.803 163,159.5 C163,157.187 163.469,156 164.383,156 C165.899,156 166.965,153.032 166.986,148.75 C166.995,146.978 167.534,146 168.5,146 C169.652,146 170,144.722 170,140.5 C170,136.278 169.652,135 168.5,135 C167.675,135 167,135.675 167,136.5 C167,137.583 165.889,138 163,138 C160.186,138 159,138.427 159,139.439 C159,140.489 157.105,141.066 152,141.569 C147.073,142.054 145,142.664 145,143.629 C145,144.603 143.586,145 140.117,145 C136.074,145 135.143,145.344 134.71,147 C134.31,148.532 133.346,149 130.594,149 C128.066,149 127,149.445 127,150.5 C127,151.412 126.069,152 124.625,152 C120.12,152 116,153.254 116,154.625 C116,155.661 114.273,156 109,156 C103.541,156 102,156.32 102,157.455 C102,158.325 100.595,159.173 98.5,159.566 L95,160.223 L95,169.111 C95,176.059 95.305,178 96.399,178 C97.396,178 97.998,180.005 98.5,185 C99.002,189.995 99.604,192 100.601,192 C101.524,192 102,193.152 102,195.383 C102,197.926 102.497,198.897 104,199.29 C105.456,199.671 106,200.654 106,202.906 C106,204.879 106.503,206 107.389,206 C108.184,206 109.058,207.495 109.434,209.5 C109.827,211.595 110.675,213 111.545,213 C112.345,213 113,213.9 113,215 C113,216.111 113.667,217 114.5,217 C115.325,217 116,217.717 116,218.594 C116,219.47 116.9,220.423 118,220.71 C119.1,220.998 120,221.856 120,222.617 C120,223.377 120.9,224 122,224 C123.333,224 124,224.667 124,226 C124,227.556 124.667,228 127,228 C128.917,228 130,228.51 130,229.412 C130,230.28 131.541,231.085 134,231.5 C136.459,231.915 138,232.72 138,233.588 C138,234.512 139.124,235.005 141.25,235.014 C146,235.034 149,236.041 149,237.617 C149,238.744 152.397,239 167.375,239 C187.28,239 192,238.497 192,236.375 C192,235.31 194.03,235 201,235 C208.333,235 210,234.722 210,233.5 C210,232.348 211.278,232 215.5,232 C219.722,232 221,232.348 221,233.5 C221,234.333 221.889,235 223,235 C224.333,235 225,235.667 225,237 C225,238.111 225.667,239 226.5,239 C227.333,239 228,239.889 228,241 C228,242.111 227.333,243 226.5,243 C225.675,243 225,243.675 225,244.5 C225,245.333 224.111,246 223,246 C221.9,246 221,245.381 221,244.625 C221,242.639 216.199,241.97 207.023,242.678 C201.254,243.123 199,243.676 199,244.648 C199,245.702 196.575,246 188,246 C178.889,246 177,246.258 177,247.5 C177,248.738 175.167,249 166.5,249 C157.833,249 156,248.738 156,247.5 C156,246.278 154.333,246 147,246 C139.916,246 138,245.699 138,244.588 C138,243.72 136.459,242.915 134,242.5 C131.541,242.085 130,241.28 130,240.412 C130,239.542 128.945,238.995 127.25,238.986 C122.968,238.965 120,237.899 120,236.383 C120,235.623 119.325,235 118.5,235 C117.675,235 117,234.325 117,233.5 C117,232.667 116.111,232 115,232 C113.667,232 113,231.333 113,230 C113,228.667 112.333,228 111,228 C109.667,228 109,227.333 109,226 C109,224.889 108.333,224 107.5,224 C106.675,224 106,223.283 106,222.406 C106,221.53 105.1,220.577 104,220.29 C102.497,219.897 102,218.926 102,216.383 C102,214.089 101.532,213 100.545,213 C99.675,213 98.827,211.595 98.434,209.5 C98.073,207.575 97.188,206 96.468,206 C95.748,206 94.871,204.688 94.518,203.084 C94.166,201.479 93.23,199.919 92.439,199.615 C91.451,199.236 91,197.486 91,194.031 C91,190.416 90.611,189 89.617,189 C88.626,189 88.036,186.878 87.532,181.5 C87.02,176.032 86.446,174 85.415,174 C84.465,174 84,172.851 84,170.5 L84,167 L66,167 L66,156 L79.75,156 L80.375,152.875 C80.719,151.156 81,148.681 81,147.375 C81,145.931 81.588,145 82.5,145 C83.652,145 84,143.722 84,139.5 C84,135.278 83.652,134 82.5,134 C81.26,134 80.998,132.135 80.991,123.25 C80.987,117.338 80.699,110.138 80.352,107.25 C79.764,102.356 79.867,102 81.861,102 C83.639,102 84,101.409 84,98.5 Z M206.63,50.25 C207.076,48.587 207.973,48 210.071,48 C212.523,48 212.999,48.476 213.566,51.5 C213.927,53.425 214.797,55 215.5,55 C216.203,55 217.073,56.575 217.434,58.5 C217.827,60.595 218.675,62 219.545,62 C220.345,62 221,62.9 221,64 C221,65.1 221.625,66 222.389,66 C223.184,66 224.058,67.495 224.434,69.5 C224.827,71.595 225.675,73 226.545,73 C227.345,73 228,73.9 228,75 C228,76.1 228.655,77 229.455,77 C230.325,77 231.173,78.405 231.566,80.5 C231.942,82.505 232.816,84 233.611,84 C234.532,84 235,85.18 235,87.5 C235,90.833 234.833,91 231.5,91 C228.167,91 228,90.833 228,87.5 C228,84.667 227.619,84 226,84 C224.667,84 224,83.333 224,82 C224,80.889 223.333,80 222.5,80 C221.675,80 221,79.377 221,78.617 C221,77.856 220.1,76.998 219,76.71 C217.544,76.329 217,75.346 217,73.094 C217,70.93 216.521,70 215.406,70 C214.53,70 213.577,69.1 213.29,68 C213.002,66.9 212.144,66 211.383,66 C210.623,66 210,65.1 210,64 C210,62.667 209.333,62 208,62 C206.279,62 206.002,61.338 206.014,57.25 C206.021,54.638 206.299,51.487 206.63,50.25 Z M184.986,61.75 C184.995,59.978 185.534,59 186.5,59 C187.325,59 188,59.675 188,60.5 C188,61.583 189.111,62 192,62 C195.333,62 196,62.333 196,64 C196,65.111 196.667,66 197.5,66 C198.325,66 199,66.675 199,67.5 C199,68.333 199.889,69 201,69 C202.333,69 203,69.667 203,71 C203,72.1 203.623,73 204.383,73 C205.144,73 206.002,73.9 206.29,75 C206.577,76.1 207.53,77 208.406,77 C209.283,77 210,77.675 210,78.5 C210,79.333 210.889,80 212,80 C213.613,80 214,80.667 214,83.441 C214,85.334 213.596,87.132 213.103,87.437 C211.53,88.409 206,86.804 206,85.375 C206,84.619 205.1,84 204,84 C202.9,84 202,83.361 202,82.579 C202,81.798 200.65,80.862 199,80.5 C197.35,80.138 196,79.202 196,78.421 C196,77.639 195.1,77 194,77 C192.667,77 192,76.333 192,75 C192,73.667 191.333,73 190,73 C188.9,73 188,72.377 188,71.617 C188,70.856 187.041,69.982 185.868,69.676 C184.207,69.241 183.873,68.608 184.354,66.809 C184.694,65.539 184.979,63.263 184.986,61.75 Z"/>
</svg>

