<svg xmlns="http://www.w3.org/2000/svg" width="300" height="300" viewBox="0 0 300 300" version="1.1">
  <defs/>
  <path d="M127.513,91.743 C129.706,91.519 141.063,91.261 152.75,91.168 L174,91 L174,95 C174,97.889 173.583,99 172.5,99 C171.675,99 171,99.675 171,100.5 C171,101.333 170.111,102 169,102 C167.9,102 167,102.623 167,103.383 C167,104.144 166.1,105.002 165,105.29 C163.9,105.577 163,106.48 163,107.295 C163,108.197 161.631,109.034 159.5,109.434 C156.438,110.008 156,110.46 156,113.045 C156,115.082 155.505,116 154.406,116 C153.53,116 152.577,116.9 152.29,118 C152.002,119.1 151.144,120 150.383,120 C149.623,120 149,120.9 149,122 C149,123.1 148.361,124 147.579,124 C146.798,124 145.862,125.35 145.5,127 C145.122,128.722 144.196,130 143.327,130 C142.494,130 141.577,130.9 141.29,132 C141.002,133.1 140.144,134 139.383,134 C138.623,134 138,134.9 138,136 C138,137.1 137.375,138 136.611,138 C135.816,138 134.942,139.495 134.566,141.5 C134.173,143.595 133.325,145 132.455,145 C131.655,145 131,145.9 131,147 C131,148.1 130.345,149 129.545,149 C128.675,149 127.827,150.405 127.434,152.5 C127.073,154.425 126.205,156 125.505,156 C123.952,156 122.97,160.508 123.708,164.25 C124.171,166.6 124.741,167 127.625,167 C129.838,167 131,167.478 131,168.389 C131,169.184 132.495,170.058 134.5,170.434 C136.595,170.827 138,171.675 138,172.545 C138,173.541 139.104,174 141.5,174 C143.82,174 145,174.468 145,175.389 C145,176.184 146.495,177.058 148.5,177.434 C150.595,177.827 152,178.675 152,179.545 C152,180.532 153.089,181 155.383,181 C157.926,181 158.897,181.497 159.29,183 C159.726,184.67 160.654,185 164.906,185 C168.767,185 170,185.363 170,186.5 C170,187.412 170.931,188 172.375,188 C176.88,188 181,189.254 181,190.625 C181,191.563 182.273,192 185,192 C187.739,192 189,192.436 189,193.383 C189,194.899 191.968,195.965 196.25,195.986 C198.022,195.995 199,196.534 199,197.5 C199,198.333 199.889,199 201,199 C202.1,199 203,199.655 203,200.455 C203,201.325 204.405,202.173 206.5,202.566 C208.425,202.927 210,203.797 210,204.5 C210,205.203 211.575,206.073 213.5,206.434 C215.595,206.827 217,207.675 217,208.545 C217,209.541 218.104,210 220.5,210 C222.626,210 224.005,210.491 224.014,211.25 C224.021,211.938 224.299,213.513 224.63,214.75 C225.207,216.904 224.972,217 219.117,217 C214.498,217 213,216.652 213,215.579 C213,214.798 211.65,213.862 210,213.5 C208.35,213.138 207,212.202 207,211.421 C207,210.43 205.789,210 203,210 C200.166,210 199,209.576 199,208.545 C199,207.675 197.595,206.827 195.5,206.434 C193.495,206.058 192,205.184 192,204.389 C192,203.477 190.837,203 188.617,203 C186.074,203 185.103,202.503 184.71,201 C184.274,199.33 183.346,199 179.094,199 C175.233,199 174,198.637 174,197.5 C174,196.588 173.069,196 171.625,196 C167.12,196 163,194.746 163,193.375 C163,192.396 161.593,192 158.117,192 C154.074,192 153.143,191.656 152.71,190 C152.329,188.544 151.346,188 149.094,188 C147.01,188 146,187.51 146,186.5 C146,185.417 144.889,185 142,185 C138.667,185 138,184.667 138,183 C138,181.381 137.333,181 134.5,181 C132.056,181 131,180.548 131,179.5 C131,178.445 129.934,178 127.406,178 C124.654,178 123.69,177.532 123.29,176 C122.857,174.344 121.926,174 117.883,174 C114.392,174 113,174.394 113,175.383 C113,176.144 112.1,177.002 111,177.29 C109.803,177.603 109,178.654 109,179.906 C109,181.101 108.356,182 107.5,182 C106.675,182 106,182.675 106,183.5 C106,184.333 105.111,185 104,185 C102.381,185 102,185.667 102,188.5 C102,190.82 101.532,192 100.611,192 C99.816,192 98.942,193.495 98.566,195.5 C98.173,197.595 97.325,199 96.455,199 C95.655,199 95,199.9 95,201 C95,202.333 94.333,203 93,203 C91.381,203 91,203.667 91,206.5 C91,208.944 90.548,210 89.5,210 C88.667,210 88,210.889 88,212 C88,213.333 87.333,214 86,214 C84.444,214 84,214.667 84,217 C84,219.078 83.51,220 82.406,220 C81.53,220 80.577,220.9 80.29,222 C80.002,223.1 79.144,224 78.383,224 C77.623,224 77,224.9 77,226 C77,227.333 76.333,228 75,228 C73.667,228 73,228.667 73,230 C73,231.1 72.375,232 71.611,232 C70.816,232 69.942,233.495 69.566,235.5 C69.173,237.595 68.325,239 67.455,239 C66.655,239 66,239.675 66,240.5 C66,241.325 65.283,242 64.406,242 C63.53,242 62.577,242.9 62.29,244 C61.701,246.25 59,246.756 59,244.617 C59,243.856 58.1,242.998 57,242.71 C54.378,242.024 54.378,239 57,239 C58.333,239 59,238.333 59,237 C59,235.889 59.667,235 60.5,235 C61.333,235 62,234.111 62,233 C62,231.667 62.667,231 64,231 C65.619,231 66,230.333 66,227.5 C66,224.667 66.381,224 68,224 C69.111,224 70,223.333 70,222.5 C70,221.675 70.625,221 71.389,221 C72.184,221 73.058,219.505 73.434,217.5 C73.827,215.405 74.675,214 75.545,214 C76.345,214 77,213.1 77,212 C77,210.9 77.625,210 78.389,210 C79.184,210 80.058,208.505 80.434,206.5 C80.827,204.405 81.675,203 82.545,203 C83.345,203 84,202.1 84,201 C84,199.9 84.655,199 85.455,199 C86.325,199 87.173,197.595 87.566,195.5 C87.942,193.495 88.816,192 89.611,192 C90.375,192 91,191.283 91,190.406 C91,189.53 91.9,188.577 93,188.29 C94.417,187.919 95,186.926 95,184.883 C95,182.987 95.513,182 96.5,182 C97.356,182 98,181.101 98,179.906 C98,178.654 98.803,177.603 100,177.29 C101.756,176.831 102,175.926 102,169.883 C102,164.431 102.312,163 103.5,163 C104.325,163 105,162.365 105,161.588 C105,160.72 106.541,159.915 109,159.5 C111.459,159.085 113,158.28 113,157.412 C113,156.635 113.625,156 114.389,156 C115.184,156 116.058,154.505 116.434,152.5 C116.827,150.405 117.675,149 118.545,149 C119.345,149 120,148.1 120,147 C120,145.889 120.667,145 121.5,145 C122.325,145 123,144.283 123,143.406 C123,142.53 123.9,141.577 125,141.29 C126.503,140.897 127,139.926 127,137.383 C127,135.089 127.468,134 128.455,134 C129.325,134 130.173,132.595 130.566,130.5 C130.942,128.495 131.816,127 132.611,127 C133.375,127 134,126.325 134,125.5 C134,124.667 134.889,124 136,124 C137.333,124 138,123.333 138,122 C138,120.9 138.625,120 139.389,120 C140.184,120 141.058,118.505 141.434,116.5 C141.827,114.405 142.675,113 143.545,113 C144.345,113 145,112.1 145,111 C145,109.667 145.667,109 147,109 C148.333,109 149,108.333 149,107 C149,105.889 149.667,105 150.5,105 Q152,105 152,102 C152,99.238 151.722,99 148.5,99 C146.056,99 145,99.452 145,100.5 C145,101.793 141.556,102 120,102 C99.389,102 95,102.243 95,103.383 C95,105.019 81.864,106.568 77.019,105.504 C74.359,104.92 72.579,102 74.883,102 C75.369,102 76.002,101.1 76.29,100 C76.577,98.9 77.53,98 78.406,98 C79.283,98 80,97.35 80,96.556 C80,95.353 83.509,95.061 101.038,94.806 C115.786,94.592 122.293,94.149 122.801,93.324 C123.2,92.678 125.32,91.966 127.513,91.743 Z M235,58.5 L235,55 L240.5,55 C245.333,55 246,55.242 246,57 C246,58.111 245.333,59 244.5,59 C243.588,59 243,59.931 243,61.375 C243,65.773 241.759,70 240.469,70 C239.535,70 239.094,72.722 238.844,80.038 C238.631,86.254 238.056,90.349 237.335,90.795 C236.694,91.19 235.844,94.809 235.447,98.838 C234.776,105.654 234.579,106.122 232.613,105.594 C231.451,105.283 229.938,105.021 229.25,105.014 C228.317,105.003 228,101.826 228,92.5 C228,82.624 228.286,80 229.361,80 C230.751,80 231.974,73.378 231.991,65.75 C231.997,63.087 232.435,62 233.5,62 C234.548,62 235,60.944 235,58.5 Z M210,53.5 C210,52.675 210.675,52 211.5,52 C212.325,52 213,52.675 213,53.5 C213,54.333 213.889,55 215,55 C216.926,55 217,55.667 217,73 C217,88.333 217.222,91 218.5,91 C219.333,91 220,91.889 220,93 C220,94.111 219.333,95 218.5,95 C217.675,95 217,95.675 217,96.5 C217,97.333 216.111,98 215,98 C213.889,98 213,97.333 213,96.5 C213,95.675 212.325,95 211.5,95 C210.236,95 210,92.722 210,80.5 C210,68.864 209.728,66 208.625,66 C206.984,66 205.954,61.59 206.7,57.75 C206.993,56.237 207.856,55 208.617,55 C209.377,55 210,54.325 210,53.5 Z"/>
</svg>

