<svg xmlns="http://www.w3.org/2000/svg" width="300" height="300" viewBox="0 0 300 300" version="1.1">
  <defs/>
  <path d="M111,94.5 Q111,93 114,93 Q117,93 117,94.5 C117,95.333 117.889,96 119,96 C120.607,96 121,96.667 121,99.389 C121,102.47 120.682,102.837 117.5,103.434 C114.438,104.008 114,104.46 114,107.045 C114,109.082 113.505,110 112.406,110 C111.53,110 110.577,110.9 110.29,112 C110.002,113.1 109.144,114 108.383,114 C107.373,114 107,115.484 107,119.5 C107,123.516 106.627,125 105.617,125 C104.331,125 103.045,127.84 103.014,130.75 C103.005,131.515 104.359,132 106.5,132 C108.803,132 110,131.53 110,130.625 C110,128.577 114.646,128 131.125,128 C143.681,128 146,127.766 146,126.5 C146,125.315 147.574,124.965 153.5,124.833 C157.625,124.742 161.787,124.629 162.75,124.583 C164.069,124.521 164.576,125.423 164.81,128.25 C165.077,131.47 164.83,132 163.06,132 C161.896,132 161,132.652 161,133.5 C161,134.333 160.111,135 159,135 C157.889,135 157,134.333 157,133.5 C157,131.274 154.316,131.682 153.71,134 C153.217,135.885 152.346,136 138.594,136 C126.288,136 124,136.235 124,137.5 C124,138.738 122.167,139 113.5,139 C103.667,139 103,139.127 103,141 C103,142.333 102.333,143 101,143 C99.889,143 99,143.667 99,144.5 C99,145.325 98.325,146 97.5,146 C96.667,146 96,146.889 96,148 C96,149.1 95.381,150 94.625,150 C93.254,150 92,154.12 92,158.625 C92,160.069 91.412,161 90.5,161 C89.452,161 89,162.056 89,164.5 C89,166.857 88.536,168 87.579,168 C85.967,168 84.348,173.811 85.649,174.928 C87.141,176.208 103,174.936 103,173.537 C103,172.113 111.4,171 122.147,171 C127.572,171 129,170.687 129,169.5 C129,168.238 131.222,168 143,168 C154.778,168 157,168.238 157,169.5 C157,170.652 158.278,171 162.5,171 C167.333,171 168,171.242 168,173 C168,174.619 168.667,175 171.5,175 C174.333,175 175,175.381 175,177 C175,178.333 175.667,179 177,179 C178.111,179 179,179.667 179,180.5 C179,181.325 179.675,182 180.5,182 C181.333,182 182,182.889 182,184 C182,185.333 182.667,186 184,186 C185.879,186 186,186.667 186,197 C186,205.959 185.73,208 184.545,208 C183.675,208 182.827,209.405 182.434,211.5 C182.058,213.505 181.184,215 180.389,215 C179.625,215 179,215.717 179,216.594 C179,217.47 178.1,218.423 177,218.71 C175.9,218.998 175,219.856 175,220.617 C175,221.377 174.325,222 173.5,222 C172.667,222 172,222.889 172,224 C172,225.333 171.333,226 170,226 C168.889,226 168,226.667 168,227.5 C168,228.325 167.283,229 166.406,229 C165.53,229 164.577,229.9 164.29,231 C163.926,232.392 162.926,233 161,233 C159.074,233 158.074,233.608 157.71,235 C157.397,236.197 156.346,237 155.094,237 C153.899,237 153,237.644 153,238.5 C153,239.633 151.778,240 148,240 C143.667,240 143,240.267 143,242 C143,243.619 142.333,244 139.5,244 C137.056,244 136,244.452 136,245.5 C136,246.648 134.735,247 130.617,247 C126.074,247 125.152,247.312 124.71,249 C124.224,250.86 123.346,251 112.21,251 C101.074,251 100.197,250.86 99.71,249 C99.423,247.9 98.47,247 97.594,247 C96.717,247 96,246.213 96.001,245.25 C96.002,243.666 97.343,243.5 110.16,243.5 C122.802,243.5 124.367,243.313 124.775,241.75 C125.14,240.357 126.331,240 130.617,240 C134.661,240 136,239.638 136,238.545 C136,237.675 137.405,236.827 139.5,236.434 C141.505,236.058 143,235.184 143,234.389 C143,233.625 143.689,233 144.531,233 C145.374,233 146.317,232.337 146.628,231.527 C146.939,230.717 148.725,229.767 150.597,229.416 C152.527,229.054 154,228.177 154,227.389 C154,226.625 154.717,226 155.594,226 C156.47,226 157.423,225.1 157.71,224 C158.081,222.583 159.074,222 161.117,222 C163.333,222 164,221.538 164,220 C164,218.667 164.667,218 166,218 C167.111,218 168,217.333 168,216.5 C168,215.675 168.625,215 169.389,215 C170.184,215 171.058,213.505 171.434,211.5 C171.797,209.563 172.69,208 173.434,208 C174.173,208 175.065,206.468 175.416,204.597 C175.767,202.725 176.717,200.939 177.527,200.628 C179.859,199.733 179.441,193.928 177,193.29 C175.497,192.897 175,191.926 175,189.383 C175,186.183 174.81,186 171.5,186 C168.667,186 168,185.619 168,184 C168,182.381 167.333,182 164.5,182 C162.2,182 161,181.529 161,180.627 C161,179.703 159.297,179.091 155.792,178.754 C152.928,178.479 150.416,177.747 150.209,177.127 C149.64,175.42 143.317,175.732 142.638,177.5 C142.16,178.747 139.359,179 126.031,179 C112.965,179 110,179.259 110,180.399 C110,181.396 107.995,181.998 103,182.5 C98.005,183.002 96,183.604 96,184.601 C96,185.63 94.545,186 90.5,186 C86.484,186 85,186.373 85,187.383 C85,188.899 82.032,189.965 77.75,189.986 C75.978,189.995 75,190.534 75,191.5 C75,192.583 73.889,193 71,193 C67.095,193 67,192.917 67,189.5 C67,186.667 67.381,186 69,186 C70.619,186 71,185.333 71,182.5 C71,180.18 71.468,179 72.389,179 C73.184,179 74.058,177.505 74.434,175.5 C74.827,173.405 75.675,172 76.545,172 C77.576,172 78,170.834 78,168 C78,165.111 78.417,164 79.5,164 C80.466,164 81.005,163.022 81.014,161.25 C81.035,156.968 82.101,154 83.617,154 C84.564,154 85,152.739 85,150 C85,146.667 85.333,146 87,146 C88.111,146 89,145.333 89,144.5 C89,143.278 87.333,143 80,143 C72.667,143 71,143.278 71,144.5 C71,145.555 69.934,146 67.406,146 C64.654,146 63.69,146.468 63.29,148 C62.473,151.123 57.404,150.744 56.589,147.5 C55.753,144.169 56.876,140 58.608,140 C59.374,140 60,139.163 60,138.139 C60,135.988 65.468,135.023 77.75,135.009 C83.524,135.002 85,134.695 85,133.5 C85,132.348 86.278,132 90.5,132 L96,132 L96,126.5 C96,122.278 96.348,121 97.5,121 C98.412,121 99,120.069 99,118.625 C99,114.12 100.254,110 101.625,110 C102.53,110 103,108.803 103,106.5 C103,104.104 103.459,103 104.455,103 C105.325,103 106.173,101.595 106.566,99.5 C107.041,96.967 107.745,96 109.111,96 C110.15,96 111,95.325 111,94.5 Z M229,51 C229,49.381 229.667,49 232.5,49 L236,49 L236,63.86 C236,81.439 236.716,88 238.636,88 C239.561,88 240,89.288 240,92 C240,95.333 240.333,96 242,96 C243.613,96 244,96.667 244,99.441 C244,103.446 243.05,104.302 239.572,103.429 C237.692,102.957 236.891,101.933 236.415,99.398 C236.064,97.529 235.211,96 234.519,96 C233.763,96 233.051,94.143 232.736,91.349 C232.42,88.551 231.572,86.34 230.606,85.799 C229.469,85.163 229,83.456 229,79.95 C229,76.217 228.631,75 227.5,75 C226.258,75 226,73.111 226,64 C226,54.889 226.258,53 227.5,53 C228.333,53 229,52.111 229,51 Z M189,67.875 C189,64.021 189.022,64 193,64 C196.333,64 197,64.333 197,66 C197,67.1 197.655,68 198.455,68 C199.325,68 200.173,69.405 200.566,71.5 C200.942,73.505 201.816,75 202.611,75 C203.475,75 204,76.09 204,77.883 C204,79.926 204.583,80.919 206,81.29 C207.197,81.603 208,82.654 208,83.906 C208,85.101 208.644,86 209.5,86 C210.325,86 211,86.675 211,87.5 C211,88.333 211.889,89 213,89 C214.619,89 215,89.667 215,92.5 L215,96 L209.5,96 C204.667,96 204,95.758 204,94 C204,92.9 203.377,92 202.617,92 C201.856,92 200.998,91.1 200.71,90 C200.423,88.9 199.47,88 198.594,88 C197.504,88 197,87.088 197,85.117 C197,83.074 196.417,82.081 195,81.71 C193.9,81.423 193,80.47 193,79.594 C193,78.717 192.381,78 191.625,78 C190.096,78 189,73.772 189,67.875 Z"/>
</svg>

