<svg xmlns="http://www.w3.org/2000/svg" width="300" height="300" viewBox="0 0 300 300" version="1.1">
  <defs/>
  <path d="M204,42.5 C204,41.247 206.056,41 216.5,41 C226.944,41 229,41.247 229,42.5 C229,43.325 228.325,44 227.5,44 C226.667,44 226,44.889 226,46 C226,47.333 225.333,48 224,48 C222.667,48 222,48.667 222,50 C222,51.619 221.333,52 218.5,52 C216.18,52 215,52.468 215,53.389 C215,54.177 213.527,55.054 211.597,55.416 C209.725,55.767 207.939,56.717 207.628,57.527 C207.278,58.44 205.719,59 203.531,59 C201.147,59 200,59.461 200,60.421 C200,61.202 198.679,62.131 197.065,62.486 C194.861,62.97 193.97,63.861 193.486,66.065 C193.131,67.679 192.202,69 191.421,69 C190.639,69 190,69.9 190,71 C190,72.333 189.333,73 188,73 C186.381,73 186,73.667 186,76.5 C186,78.851 185.535,80 184.585,80 C183.554,80 182.98,82.032 182.468,87.5 C181.964,92.878 181.374,95 180.383,95 C179.622,95 179,95.675 179,96.5 C179,97.548 180.056,98 182.5,98 C184.82,98 186,97.532 186,96.611 C186,95.816 187.495,94.942 189.5,94.566 C191.595,94.173 193,93.325 193,92.455 C193,91.358 194.354,91 198.5,91 C202.722,91 204,90.652 204,89.5 C204,88.278 205.667,88 213,88 C220.333,88 222,88.278 222,89.5 C222,90.691 223.448,91 229.031,91 C234.226,91 236.207,91.376 236.615,92.439 C236.919,93.23 238.479,94.166 240.084,94.518 C241.688,94.871 243,95.798 243,96.579 C243,97.361 243.85,98 244.889,98 C246.245,98 246.957,98.959 247.416,101.403 C247.767,103.275 248.734,105.068 249.564,105.386 C250.887,105.894 251.038,111.914 250.787,154.02 C250.553,193.138 250.248,202.23 249.145,202.911 C248.328,203.416 247.579,206.379 247.258,210.374 C246.865,215.266 246.345,217 245.269,217 C244.468,217 243.577,217.9 243.29,219 C242.684,221.318 240,221.726 240,219.5 C240,218.675 239.352,218 238.559,218 C237.766,218 236.833,217.539 236.485,216.976 C235.45,215.302 237.042,210 238.579,210 C239.763,210 240,206.41 240,188.5 C240,170.056 240.213,167 241.5,167 C242.791,167 243,163.722 243,143.5 C243,123.278 242.791,120 241.5,120 C240.31,120 240,118.556 240,113 C240,107.262 239.713,106 238.406,106 C237.53,106 236.577,105.1 236.29,104 C235.897,102.497 234.926,102 232.383,102 C230.197,102 229,101.519 229,100.639 C229,98.365 213.94,97.244 202.25,98.648 C198.798,99.063 197,99.745 197,100.639 C197,101.528 195.785,102 193.5,102 C190.667,102 190,102.381 190,104 C190,105.333 189.333,106 188,106 C186.381,106 186,106.667 186,109.5 C186,112.333 185.619,113 184,113 C182.889,113 182,113.667 182,114.5 C182,115.325 181.325,116 180.5,116 C179.258,116 179,117.889 179,127 L179,138 L184.5,138 C188.516,138 190,137.627 190,136.617 C190,134.682 193.196,134.029 202.75,134.014 C209.411,134.003 211,133.711 211,132.5 C211,131.452 212.056,131 214.5,131 C216.944,131 218,131.452 218,132.5 C218,133.333 218.889,134 220,134 C221.822,134 222,134.667 222,141.5 C222,147.5 222.3,149 223.5,149 C224.325,149 225,149.675 225,150.5 C225,151.356 225.899,152 227.094,152 C228.346,152 229.397,152.803 229.71,154 C229.998,155.1 230.856,156 231.617,156 C232.627,156 233,157.484 233,161.5 C233,166.333 232.758,167 231,167 C229.889,167 229,167.667 229,168.5 C229,169.325 228.34,170 227.534,170 C226.531,170 225.86,168.424 225.406,165 C224.758,160.12 224.661,160 221.371,160 C219.041,160 218,160.463 218,161.5 C218,162.548 216.944,163 214.5,163 C212.104,163 211,163.459 211,164.455 C211,165.325 209.595,166.173 207.5,166.566 C205.495,166.942 204,167.816 204,168.611 C204,169.532 202.82,170 200.5,170 C197.667,170 197,170.381 197,172 C197,173.606 196.333,174 193.617,174 C191.074,174 190.103,174.497 189.71,176 C189.329,177.456 188.346,178 186.094,178 C184.01,178 183,178.49 183,179.5 C183,180.652 181.722,181 177.5,181 C174.475,181 171.955,180.887 171.9,180.75 C171.846,180.613 171.603,163.175 171.362,142 C170.876,99.23 171.371,87 173.59,87 C174.617,87 175,85.632 175,81.969 C175,78.514 175.451,76.764 176.439,76.385 C177.23,76.081 178.166,74.521 178.518,72.916 C178.871,71.312 179.748,70 180.468,70 C181.188,70 182.067,68.458 182.42,66.572 C182.934,63.835 183.642,63.018 185.938,62.514 C190.146,61.589 191.464,55 187.441,55 C186.648,55 186,55.9 186,57 C186,58.758 185.333,59 180.5,59 C176.278,59 175,59.348 175,60.5 C175,61.466 174.022,62.005 172.25,62.014 C167.968,62.035 165,63.101 165,64.617 C165,65.377 164.124,66 163.052,66 C161.408,66 161.057,66.817 160.802,71.25 C160.51,76.325 160.395,76.51 157.371,76.804 C154.498,77.084 154.189,76.819 153.576,73.554 C153.175,71.416 152.33,70 151.455,70 C150.655,70 150,69.1 150,68 C150,66.9 150.625,66 151.389,66 C152.184,66 153.058,64.505 153.434,62.5 C154.034,59.302 154.389,59 157.545,59 C160.333,59 161,58.614 161,57 C161,55.381 161.667,55 164.5,55 C166.832,55 168,54.533 168,53.601 C168,52.604 170.005,52.002 175,51.5 C179.995,50.998 182,50.396 182,49.399 C182,48.434 183.24,48 186,48 C188.739,48 190,47.564 190,46.617 C190,44.897 193.077,44.031 199.25,44.014 C202.799,44.003 204,43.621 204,42.5 Z M85,86 C85,84.242 85.667,84 90.5,84 L96,84 L96,95 L92.5,95 C89.167,95 89,95.167 89,98.5 C89,101.333 88.619,102 87,102 C85.381,102 85,102.667 85,105.5 C85,107.944 84.548,109 83.5,109 C82.452,109 82,110.056 82,112.5 C82,115.333 81.619,116 80,116 C78.333,116 78,116.667 78,120 C78,122.789 77.57,124 76.579,124 C75.798,124 74.86,125.36 74.495,127.022 C73.563,131.265 74.847,138 76.588,138 C77.633,138 78,139.43 78,143.5 C78,147.722 78.348,149 79.5,149 C80.325,149 81,149.675 81,150.5 C81,151.325 80.325,152 79.5,152 C78.667,152 78,152.889 78,154 C78,155.1 78.619,156 79.375,156 C81.383,156 82,160.61 82,175.625 C82,186.847 82.241,189 83.5,189 C84.325,189 85,189.675 85,190.5 C85,191.325 84.325,192 83.5,192 C80.413,192 82.05,194.919 85.5,195.566 C88.923,196.208 89,196.328 89,201.023 L89,205.824 L85,206.5 C82.541,206.915 81,207.72 81,208.588 C81,209.365 80.325,210 79.5,210 C78.667,210 78,209.111 78,208 C78,206.9 77.377,206 76.617,206 C74.5,206 74.028,202.696 74.014,187.75 C74.002,176.201 73.76,174 72.5,174 C71.289,174 70.997,172.411 70.986,165.75 C70.971,156.196 70.318,153 68.383,153 C67.469,153 67,151.813 67,149.5 C67,143.886 64.385,145.037 63.594,151 C63.14,154.424 62.469,156 61.466,156 C60.66,156 60,156.9 60,158 C60,159.1 59.345,160 58.545,160 C57.675,160 56.827,161.405 56.434,163.5 C56.058,165.505 55.184,167 54.389,167 C53.468,167 53,168.18 53,170.5 C53,173.333 52.619,174 51,174 C49.381,174 49,174.667 49,177.5 C49,179.82 48.532,181 47.611,181 C46.816,181 45.942,182.495 45.566,184.5 C45.173,186.595 44.325,188 43.455,188 C42.468,188 42,189.089 42,191.383 C42,193.926 41.503,194.897 40,195.29 C38.337,195.725 38,196.654 38,200.798 C38,205.306 37.756,205.844 35.454,206.422 C32.318,207.209 31,206.475 31,203.941 C31,202.873 30.325,202 29.5,202 C28.675,202 28,201.55 28,201 C28,200.45 28.617,200 29.372,200 C30.2,200 30.998,198.413 31.384,196 C31.798,193.412 32.549,192 33.512,192 C34.546,192 35,190.932 35,188.5 C35,186.18 35.468,185 36.389,185 C37.184,185 38.058,183.505 38.434,181.5 C38.827,179.405 39.675,178 40.545,178 C41.345,178 42,177.1 42,176 C42,174.9 42.635,174 43.412,174 C44.28,174 45.085,172.459 45.5,170 C45.915,167.541 46.72,166 47.588,166 C48.535,166 49,164.848 49,162.5 C49,160.104 49.459,159 50.455,159 C51.325,159 52.173,157.595 52.566,155.5 C52.942,153.495 53.816,152 54.611,152 C55.532,152 56,150.82 56,148.5 C56,145.667 56.381,145 58,145 C59.733,145 60,144.333 60,140 C60,136.361 60.384,135 61.412,135 C62.28,135 63.085,133.459 63.5,131 C63.915,128.541 64.72,127 65.588,127 C66.535,127 67,125.848 67,123.5 C67,120.667 67.381,120 69,120 C70.667,120 71,119.333 71,116 C71,113.111 71.417,112 72.5,112 C73.51,112 74,110.99 74,108.906 C74,106.654 74.544,105.671 76,105.29 C77.647,104.859 78,103.926 78,100 C78,96.074 78.353,95.141 80,94.71 C81.456,94.329 82,93.346 82,91.094 C82,89.01 82.49,88 83.5,88 C84.333,88 85,87.111 85,86 Z M106.859,104.25 C107.186,102.284 107.834,102 111.994,102 L116.756,102 L117.489,123.5 L118.221,145 L121.611,145 C124.333,145 125,144.607 125,143 C125,141.889 125.667,141 126.5,141 C127.325,141 128,140.325 128,139.5 C128,138.667 128.889,138 130,138 C131.1,138 132,137.345 132,136.545 C132,135.675 133.405,134.827 135.5,134.434 C137.425,134.073 139,133.203 139,132.5 C139,131.797 140.575,130.927 142.5,130.566 C144.595,130.173 146,129.325 146,128.455 C146,127.424 147.166,127 150,127 C152.739,127 154,126.564 154,125.617 C154,124.019 157.864,123.06 161.5,123.755 C163.58,124.153 164,124.802 164,127.617 C164,130.333 163.606,131 162,131 C160.9,131 160,131.617 160,132.371 C160,133.261 158.246,133.975 155,134.406 C151.576,134.86 150,135.531 150,136.534 C150,137.543 148.908,138 146.5,138 C144.056,138 143,138.452 143,139.5 C143,140.325 142.283,141 141.406,141 C140.53,141 139.577,141.9 139.29,143 C138.897,144.503 137.926,145 135.383,145 C132.667,145 132,145.394 132,147 C132,148.333 131.333,149 130,149 C128.889,149 128,149.667 128,150.5 C128,151.325 127.325,152 126.5,152 C125.229,152 125,154.444 125,168 C125,181.556 125.229,184 126.5,184 C127.583,184 128,185.111 128,188 C128,191.333 128.333,192 130,192 C131.333,192 132,191.333 132,190 C132,188.667 132.667,188 134,188 C135.111,188 136,187.333 136,186.5 C136,185.675 136.625,185 137.389,185 C138.184,185 139.058,183.505 139.434,181.5 C139.827,179.405 140.675,178 141.545,178 C142.532,178 143,176.911 143,174.617 C143,171.953 143.479,171.105 145.25,170.63 C148.584,169.737 152.804,169.875 153.437,170.897 C154.409,172.47 152.804,178 151.375,178 C150.526,178 150,179.104 150,180.883 C150,182.926 149.417,183.919 148,184.29 C146.803,184.603 146,185.654 146,186.906 C146,188.058 145.361,189 144.579,189 C143.798,189 142.871,190.312 142.518,191.916 C142.166,193.521 141.23,195.081 140.439,195.385 C139.632,195.695 139,197.248 139,198.923 C139,201.544 138.572,201.99 135.5,202.566 C133.575,202.927 132,203.795 132,204.495 C132,205.194 131.1,206.002 130,206.29 C128.9,206.577 128,207.53 128,208.406 C128,209.561 127.036,210 124.5,210 C121.167,210 121,209.833 121,206.5 C121,204.056 120.548,203 119.5,203 C118.286,203 118,201.406 118,194.651 C118,180.869 116.896,171 115.353,171 C114.336,171 114,169.139 114,163.5 C114,157.861 113.664,156 112.647,156 C111.236,156 110,146.352 110,135.349 C110,131.406 109.628,130 108.586,130 C107.467,130 107.1,127.548 106.829,118.25 C106.64,111.787 106.654,105.487 106.859,104.25 Z M222,179.5 C222,178.348 223.278,178 227.5,178 L233,178 L233,181.5 C233,183.896 232.541,185 231.545,185 C230.675,185 229.827,186.405 229.434,188.5 C229.058,190.505 228.184,192 227.389,192 C226.625,192 226,192.717 226,193.594 C226,194.47 225.1,195.423 224,195.71 C222.9,195.998 222,196.856 222,197.617 C222,198.377 221.325,199 220.5,199 C219.667,199 219,199.889 219,201 C219,202.294 218.333,203 217.111,203 C215.745,203 215.041,203.967 214.566,206.5 C214.173,208.595 213.325,210 212.455,210 C211.655,210 211,210.9 211,212 C211,213.1 210.377,214 209.617,214 C208.856,214 207.998,214.9 207.71,216 C207.423,217.1 206.47,218 205.594,218 C204.49,218 204,218.922 204,221 C204,223.078 203.51,224 202.406,224 C201.53,224 200.577,224.9 200.29,226 C200.002,227.1 199.144,228 198.383,228 C197.623,228 197,228.9 197,230 C197,231.333 196.333,232 195,232 C193.462,232 193,232.667 193,234.883 C193,236.926 192.417,237.919 191,238.29 C189.9,238.577 189,239.53 189,240.406 C189,241.283 188.325,242 187.5,242 C186.667,242 186,242.889 186,244 C186,245.333 185.333,246 184,246 C182.889,246 182,246.667 182,247.5 C182,248.325 181.325,249 180.5,249 C179.667,249 179,249.889 179,251 C179,252.163 178.333,253 177.406,253 C176.53,253 175.577,253.9 175.29,255 C174.897,256.503 173.926,257 171.383,257 C168.183,257 168,256.81 168,253.5 C168,250.964 168.439,250 169.594,250 C170.47,250 171.423,249.1 171.71,248 C171.998,246.9 172.856,246 173.617,246 C174.377,246 175,245.1 175,244 C175,242.667 175.667,242 177,242 C178.333,242 179,241.333 179,240 C179,238.889 179.667,238 180.5,238 C181.325,238 182,237.325 182,236.5 C182,235.667 182.889,235 184,235 C185.619,235 186,234.333 186,231.5 C186,228.667 186.381,228 188,228 C189.333,228 190,227.333 190,226 C190,224.889 190.667,224 191.5,224 C192.325,224 193,223.377 193,222.617 C193,221.856 193.9,220.998 195,220.71 C196.456,220.329 197,219.346 197,217.094 C197,215.01 197.49,214 198.5,214 C199.333,214 200,213.111 200,212 C200,210.667 200.667,210 202,210 C203.619,210 204,209.333 204,206.5 C204,203.667 204.381,203 206,203 C207.333,203 208,202.333 208,201 C208,199.889 208.667,199 209.5,199 C210.333,199 211,198.111 211,197 C211,195.889 211.667,195 212.5,195 C213.325,195 214,194.325 214,193.5 C214,192.675 213.325,192 212.5,192 C211.675,192 211,192.623 211,193.383 C211,194.899 208.032,195.965 203.75,195.986 C201.978,195.995 201,196.534 201,197.5 C201,198.555 199.934,199 197.406,199 C194.654,199 193.69,199.468 193.29,201 C192.897,202.503 191.926,203 189.383,203 C187.169,203 186,203.478 186,204.383 C186,205.144 185.1,206.002 184,206.29 C182.9,206.577 182,207.53 182,208.406 C182,209.561 181.036,210 178.5,210 C176.177,210 175,210.468 175,211.392 C175,213.124 170.831,214.247 167.5,213.411 C165.448,212.896 165,212.175 165,209.392 C165,207.044 165.462,206 166.5,206 C167.325,206 168,205.325 168,204.5 C168,203.452 169.056,203 171.5,203 C174.333,203 175,202.619 175,201 C175,199.667 175.667,199 177,199 C178.111,199 179,198.333 179,197.5 C179,196.588 179.931,196 181.375,196 C185.88,196 190,194.746 190,193.375 C190,192.47 191.197,192 193.5,192 C195.896,192 197,191.541 197,190.545 C197,189.675 198.405,188.827 200.5,188.434 C202.505,188.058 204,187.184 204,186.389 C204,185.486 205.148,185 207.278,185 C209.318,185 211.202,184.245 212.268,183 C213.452,181.617 215.218,181 217.99,181 C220.888,181 222,180.584 222,179.5 Z M205.75,224.689 C210.215,223.522 215,224.519 215,226.617 C215,227.531 216.187,228 218.5,228 C220.896,228 222,228.459 222,229.455 C222,230.325 223.405,231.173 225.5,231.566 C227.505,231.942 229,232.816 229,233.611 C229,234.523 230.163,235 232.383,235 C234.926,235 235.897,235.497 236.29,237 C236.69,238.532 237.654,239 240.406,239 C242.934,239 244,239.445 244,240.5 C244,241.466 244.978,242.005 246.75,242.014 C251.032,242.035 254,243.101 254,244.617 C254,245.564 255.261,246 258,246 C260.81,246 262,246.427 262,247.437 C262,248.327 263.237,248.993 265.25,249.187 C268.419,249.492 268.508,249.63 268.802,254.75 L269.105,260 L265.552,260 C263.061,260 262,259.552 262,258.5 C262,257.667 261.111,257 260,257 C258.9,257 258,256.345 258,255.545 C258,254.675 256.595,253.827 254.5,253.434 C252.495,253.058 251,252.184 251,251.389 C251,250.491 249.85,249.995 247.75,249.986 C243,249.966 240,248.959 240,247.383 C240,246.436 238.739,246 236,246 C233.278,246 232,245.562 232,244.629 C232,243.739 230.246,243.025 227,242.594 C223.576,242.14 222,241.469 222,240.466 C222,239.467 220.922,239 218.617,239 C216.074,239 215.103,238.503 214.71,237 C214.31,235.468 213.346,235 210.594,235 C208.066,235 207,234.555 207,233.5 C207,232.675 206.325,232 205.5,232 C203.225,232 203.454,225.289 205.75,224.689 Z M204,143.5 C204,144.528 202.969,145 200.722,145 C198.682,145 196.798,145.755 195.732,147 C194.79,148.1 192.89,149 191.51,149 C189.946,149 189,149.565 189,150.5 C189,151.633 187.778,152 184,152 L179,152 L179,159 C179,164.317 179.335,166 180.393,166 C181.159,166 182.045,165.325 182.362,164.5 C182.768,163.442 184.419,163 187.969,163 C191.774,163 193,162.635 193,161.5 C193,160.588 193.931,160 195.375,160 C199.88,160 204,158.746 204,157.375 C204,156.47 205.197,156 207.5,156 C209.896,156 211,155.541 211,154.545 C211,153.675 212.405,152.827 214.5,152.434 C217.923,151.792 219.549,149 216.5,149 C215.452,149 215,147.944 215,145.5 L215,142 L209.5,142 C205.278,142 204,142.348 204,143.5 Z"/>
</svg>

