<svg xmlns="http://www.w3.org/2000/svg" width="300" height="300" viewBox="0 0 300 300" version="1.1">
  <defs/>
  <path d="M190.783,26.683 C196.205,25.259 207,26.555 207,28.631 C207,29.659 208.742,30 214,30 C219.306,30 221,30.336 221,31.389 C221,32.184 222.495,33.058 224.5,33.434 C226.429,33.796 228,34.691 228,35.429 C228,36.165 228.958,37.017 230.13,37.324 C231.605,37.709 232.066,38.386 231.63,39.522 C231.283,40.425 231,41.802 231,42.582 C231,43.362 230.325,44 229.5,44 C228.667,44 228,44.889 228,46 C228,47.333 227.333,48 226,48 C224.889,48 224,48.667 224,49.5 C224,50.583 225.111,51 228,51 C230.889,51 232,50.583 232,49.5 C232,48.236 234.278,48 246.5,48 C258.722,48 261,47.764 261,46.5 C261,45.452 262.056,45 264.5,45 C266.944,45 268,45.452 268,46.5 C268,47.325 268.675,48 269.5,48 C270.538,48 271,49.043 271,51.389 C271,54.47 270.682,54.837 267.5,55.434 C265.405,55.827 264,56.675 264,57.545 C264,58.71 262.209,59 255,59 C247.667,59 246,59.278 246,60.5 C246,61.333 245.111,62 244,62 C242.889,62 242,61.333 242,60.5 C242,59.667 242.889,59 244,59 C245.333,59 246,58.333 246,57 C246,54.91 245.007,54.624 241.25,55.63 C239.576,56.079 239,56.972 239,59.117 L239,62 L231.125,62 C221.432,62 217,62.824 217,64.625 C217,65.381 216.1,66 215,66 C213.889,66 213,66.667 213,67.5 C213,68.325 212.325,69 211.5,69 C210.333,69 210,70.333 210,75 C210,79.584 209.657,81 208.545,81 C207.676,81 206.828,82.4 206.438,84.477 C205.654,88.659 206.223,103.556 207.204,104.538 C207.588,104.921 209.974,105.468 212.509,105.754 C216.596,106.215 217.179,106.032 217.675,104.137 C218.082,102.578 219.013,102 221.117,102 C223.013,102 224,101.487 224,100.5 C224,99.667 224.889,99 226,99 C227.111,99 228,99.667 228,100.5 C228,101.325 227.325,102 226.5,102 C225.675,102 225,102.675 225,103.5 C225,104.325 225.675,105 226.5,105 C227.325,105 228,104.325 228,103.5 C228,102.675 228.623,102 229.383,102 C230.144,102 231.002,101.1 231.29,100 C231.577,98.9 232.53,98 233.406,98 C234.283,98 235,97.425 235,96.722 C235,96.019 235.9,94.674 237,93.732 C238.1,92.79 239,91.115 239,90.01 C239,88.838 239.664,88 240.594,88 C241.47,88 242.423,87.1 242.71,86 C242.998,84.9 243.856,84 244.617,84 C245.377,84 246,83.1 246,82 C246,80.889 246.667,80 247.5,80 C248.325,80 249,79.283 249,78.406 C249,77.53 249.9,76.577 251,76.29 C252.39,75.926 253,74.926 253,73.008 C253,70.724 253.533,70.143 256.098,69.63 C260.068,68.836 264,69.821 264,71.608 C264,72.374 263.375,73 262.611,73 C261.816,73 260.942,74.495 260.566,76.5 C260.173,78.595 259.325,80 258.455,80 C257.655,80 257,80.9 257,82 C257,83.333 256.333,84 255,84 C253.667,84 253,84.667 253,86 C253,87.111 252.333,88 251.5,88 C250.675,88 250,88.675 250,89.5 C250,90.333 249.111,91 248,91 C246.667,91 246,91.667 246,93 C246,94.1 245.345,95 244.545,95 C243.675,95 242.827,96.405 242.434,98.5 C242.058,100.505 241.184,102 240.389,102 C239.625,102 239,102.675 239,103.5 C239,104.325 238.283,105 237.406,105 C236.53,105 235.577,105.9 235.29,107 C235.002,108.1 234.197,109 233.5,109 C232.803,109 231.998,109.9 231.71,111 C231.423,112.1 230.47,113 229.594,113 C228.667,113 228,113.837 228,115 C228,116.111 227.333,117 226.5,117 C225.675,117 225,117.675 225,118.5 C225,119.333 224.111,120 223,120 C221.667,120 221,120.667 221,122 C221,123.333 220.333,124 219,124 C217.667,124 217,124.667 217,126 C217,127.111 216.333,128 215.5,128 C214.675,128 214,128.675 214,129.5 C214,130.325 214.675,131 215.5,131 C216.325,131 217,131.675 217,132.5 C217,133.583 218.111,134 221,134 C223.889,134 225,133.583 225,132.5 C225,131.253 226.978,130.998 236.75,130.986 C249.728,130.971 253,130.447 253,128.383 C253,127.329 254.781,127 260.5,127 L268,127 L267.986,131.75 C267.966,138.921 267.179,140.802 263.898,141.522 C262.304,141.872 261,142.798 261,143.579 C261,144.428 259.993,145 258.5,145 C257.007,145 256,145.572 256,146.421 C256,147.202 254.65,148.138 253,148.5 C251.35,148.862 250,149.798 250,150.579 C250,151.361 249.1,152 248,152 C246.178,152 246,152.667 246,159.5 L246,167 L251.094,167 C255.346,167 256.274,166.67 256.71,165 C257.152,163.312 258.074,163 262.617,163 L268,163 L268,159.5 C268,156.667 267.619,156 266,156 C264.667,156 264,155.333 264,154 C264,151.783 265.519,151.561 273.36,152.636 C276.302,153.039 278,153.771 278,154.636 C278,155.386 278.9,156 280,156 C281.667,156 282,156.667 282,160 C282,162.889 281.583,164 280.5,164 C279.675,164 279,164.675 279,165.5 C279,166.333 278.111,167 277,167 C275.9,167 275,167.619 275,168.375 C275,169.746 270.88,171 266.375,171 C264.931,171 264,171.588 264,172.5 C264,173.652 262.722,174 258.5,174 C254.278,174 253,174.348 253,175.5 C253,176.548 251.944,177 249.5,177 L246,177 L246,188 C246,196.667 246.292,199 247.375,199 C249.322,199 250,203.554 250,216.625 C250,226.069 250.255,228 251.5,228 C252.753,228 253,230.05 253,240.45 C253,251.269 253.229,253.029 254.75,253.878 C256.232,254.706 256.5,256.363 256.5,264.678 L256.5,274.5 L253.371,274.804 C250.498,275.084 250.189,274.819 249.576,271.554 C249.175,269.416 248.33,268 247.455,268 C246.242,268 246,265.334 246,252 C246,239.124 245.733,236 244.631,236 C243.021,236 242.027,230.972 242.011,222.75 C242.003,218.31 241.658,217 240.5,217 C239.247,217 239,214.944 239,204.5 C239,194.561 238.718,192 237.625,192 C236.869,192 235.958,190.539 235.601,188.754 C235.107,186.287 235.376,185.198 236.721,184.215 C238.262,183.088 238.298,182.792 236.995,181.919 C234.711,180.387 222.07,181.269 220.978,183.036 C220.329,184.086 217.658,184.6 211.537,184.853 C205.479,185.103 203,185.575 203,186.478 C203,187.761 198.762,189 194.375,189 C192.931,189 192,189.588 192,190.5 C192,191.548 190.944,192 188.5,192 C185.167,192 185,191.833 185,188.5 C185,186.056 185.452,185 186.5,185 C187.333,185 188,184.111 188,183 C188,181.667 188.667,181 190,181 C191.1,181 192,180.388 192,179.639 C192,178.249 198.622,177.026 206.25,177.009 C208.913,177.003 210,176.565 210,175.5 C210,174.3 211.5,174 217.5,174 C223.219,174 225,173.671 225,172.617 C225,171.101 227.968,170.035 232.25,170.014 L235,170 L235,142 L224.5,142 C216.248,142 214,142.295 214,143.378 C214,144.415 211.757,144.863 204.925,145.189 C199.885,145.43 195.549,146.111 195.172,146.721 C194.799,147.325 193.145,147.973 191.497,148.16 C188.524,148.497 188.503,148.543 188.845,153.992 C189.383,162.561 188.057,174 186.526,174 C185.809,174 184.927,175.575 184.566,177.5 C184.173,179.595 183.325,181 182.455,181 C181.655,181 181,181.9 181,183 C181,184.1 180.377,185 179.617,185 C178.856,185 177.998,185.9 177.71,187 C177.423,188.1 176.47,189 175.594,189 C174.717,189 174,189.675 174,190.5 C174,191.325 173.375,192 172.611,192 C171.816,192 170.942,193.495 170.566,195.5 C170.173,197.595 169.325,199 168.455,199 C166.135,199 166.773,201.706 169.25,202.37 C170.488,202.701 176.113,202.979 181.75,202.986 L192,203 L192,210 L185,210 C179.444,210 178,210.31 178,211.5 C178,212.535 176.961,213 174.647,213 C166.723,213 159,214.304 159,215.642 C159,216.389 158.325,217 157.5,217 C156.667,217 156,217.889 156,219 C156,220.733 155.333,221 151.012,221 L146.024,221 L145.384,217 C145.02,214.726 144.187,213 143.452,213 C142.741,213 141.86,211.64 141.495,209.978 C140.563,205.735 141.847,199 143.588,199 C144.535,199 145,197.848 145,195.5 C145,193.056 144.548,192 143.5,192 C142.288,192 141.999,190.414 141.994,183.75 C141.984,169.484 140.864,159 139.352,159 C138.474,159 138,157.774 138,155.5 C138,153.056 138.452,152 139.5,152 C140.51,152 141,150.99 141,148.906 C141,146.654 141.544,145.671 143,145.29 C144.1,145.002 145,144.213 145,143.535 C145,142.033 166.401,140.815 177.079,141.71 C183.675,142.263 184.144,142.166 184.671,140.15 C185.107,138.484 185.996,138 188.617,138 C191.333,138 192,137.606 192,136 C192,134.381 192.667,134 195.5,134 C197.944,134 199,133.548 199,132.5 C199,131.667 199.889,131 201,131 C202.1,131 203,130.377 203,129.617 C203,128.856 203.9,127.998 205,127.71 C206.1,127.423 207,126.506 207,125.673 C207,124.804 208.278,123.878 210,123.5 C211.65,123.138 213,122.202 213,121.421 C213,120.639 213.9,120 215,120 C216.619,120 217,119.333 217,116.5 L217,113 L210,113 C203.667,113 203,112.81 203,111 C203,109.9 202.377,109 201.617,109 C199.897,109 199.031,105.923 199.014,99.75 C199.003,96.201 198.621,95 197.5,95 C196.452,95 196,93.944 196,91.5 C196,89.056 196.452,88 197.5,88 C198.667,88 199,86.666 199,81.99 C199,77.218 199.412,75.628 201,74.268 C202.1,73.326 203,71.756 203,70.778 C203,69.8 203.675,69 204.5,69 C205.325,69 206,68.325 206,67.5 C206,66.667 206.889,66 208,66 C211.011,66 210.402,63.329 207.25,62.708 C203.403,61.95 199,62.968 199,64.617 C199,65.692 196.996,66 190,66 C182.667,66 181,66.278 181,67.5 C181,68.325 180.325,69 179.5,69 C178.675,69 178,68.325 178,67.5 C178,66.667 177.111,66 176,66 C174.667,66 174,65.333 174,64 C174,62.889 174.667,62 175.5,62 C176.325,62 177,61.325 177,60.5 C177,59.675 177.848,59 178.883,59 C179.926,59 181,58.107 181.29,57 C181.776,55.139 182.654,55 193.906,55 C203.533,55 206,54.718 206,53.617 C206,52.626 208.122,52.036 213.5,51.532 L221,50.829 L221,46.026 C221,41.354 220.907,41.205 217.597,40.584 C215.725,40.233 213.939,39.283 213.628,38.473 C213.18,37.305 210.884,37 202.531,37 C192.667,37 192,37.127 192,39 C192,40.619 191.333,41 188.5,41 C185.167,41 185,40.833 185,37.5 C185,35.18 185.468,34 186.389,34 C187.179,34 188.055,32.52 188.421,30.567 C188.802,28.54 189.769,26.949 190.783,26.683 Z M132.25,44.706 C133.488,44.467 138.438,44.211 143.25,44.136 C151.379,44.01 152,44.142 152,46 C152,47.333 152.667,48 154,48 C155.822,48 156,48.667 156,55.5 C156,61.396 155.689,63 154.545,63 C153.675,63 152.827,64.405 152.434,66.5 C152.058,68.505 151.184,70 150.389,70 C149.625,70 149,70.9 149,72 C149,73.1 148.361,74 147.579,74 C146.798,74 145.862,75.35 145.5,77 C145.138,78.65 144.202,80 143.421,80 C142.639,80 142,80.9 142,82 C142,83.333 141.333,84 140,84 C138.667,84 138,84.667 138,86 C138,87.1 137.377,88 136.617,88 C135.331,88 134.045,90.84 134.014,93.75 C134.004,94.629 136.002,94.996 140.75,94.986 C148.848,94.97 152,94.241 152,92.383 C152,91.373 153.484,91 157.5,91 C162.333,91 163,91.242 163,93 C163,94.111 163.667,95 164.5,95 C165.325,95 166,95.623 166,96.383 C166,97.899 163.032,98.965 158.75,98.986 C156.978,98.995 156,99.534 156,100.5 C156,101.7 154.5,102 148.5,102 C142.5,102 141,102.3 141,103.5 C141,104.575 139.903,105 137.125,105 C131.293,105 127,106.091 127,107.573 C127,108.463 125.285,108.994 121.75,109.198 L116.5,109.5 L116.198,114.75 C115.989,118.37 115.472,120 114.531,120 C113.474,120 113.093,122.701 112.834,132.038 C112.574,141.399 112.166,144.282 111,145 C109.859,145.703 109.418,148.444 109.159,156.462 C108.892,164.699 108.51,167 107.409,167 C106.397,167 105.996,168.337 105.986,171.75 C105.969,177.923 105.103,181 103.383,181 C102.337,181 102,182.707 102,188 C102,193.273 101.661,195 100.625,195 C99.254,195 98,199.12 98,203.625 C98,205.069 97.412,206 96.5,206 C95.348,206 95,207.278 95,211.5 C95,215.5 94.625,217 93.625,217 C92.254,217 91,221.12 91,225.625 C91,227.673 90.518,228 87.5,228 L84,228 L84,221 C84,215.727 84.339,214 85.375,214 C86.948,214 88,209.741 88,203.375 C88,200.153 88.395,199 89.5,199 C90.631,199 91,197.783 91,194.05 C91,190.509 91.465,188.839 92.634,188.185 C93.69,187.594 94.442,185.456 94.761,182.135 C95.092,178.688 95.706,177 96.627,177 C97.635,177 98,175.439 98,171.125 C98,163.342 98.94,159 100.625,159 C101.726,159 102,156.212 102,145 C102,133.834 102.276,131 103.366,131 C104.344,131 104.876,128.982 105.241,123.88 C105.888,114.827 105.44,113.256 101.992,112.498 C100.124,112.088 98.983,111.067 98.575,109.441 C97.751,106.161 98.889,102 100.608,102 C101.713,102 102,99.73 102,91 C102,81.889 101.742,80 100.5,80 C99.675,80 99,79.325 99,78.5 C99,77.675 99.675,77 100.5,77 C101.7,77 102,75.5 102,69.5 L102,62 L107.094,62 C111.346,62 112.274,62.33 112.71,64 C112.998,65.1 113.856,66 114.617,66 C115.377,66 116,66.9 116,68 C116,69.619 115.333,70 112.5,70 L109,70 L109,74.95 C109,78.613 109.452,80.154 110.739,80.874 C112.113,81.643 112.555,83.543 112.845,89.924 C113.169,97.054 113.434,98 115.106,98 C116.148,98 117,97.361 117,96.579 C117,95.798 118.312,94.871 119.916,94.518 C121.521,94.166 123.081,93.23 123.385,92.439 C123.689,91.648 124.626,91 125.469,91 C126.311,91 127,90.325 127,89.5 C127,88.675 127.717,88 128.594,88 C129.47,88 130.423,87.1 130.71,86 C130.998,84.9 131.856,84 132.617,84 C133.531,84 134,82.813 134,80.5 C134,77.667 134.381,77 136,77 C137.333,77 138,76.333 138,75 C138,73.9 138.625,73 139.389,73 C140.184,73 141.058,71.505 141.434,69.5 C141.827,67.405 142.675,66 143.545,66 C144.642,66 145,64.646 145,60.5 L145,55 L138.117,55 C132.074,55 131.169,55.244 130.71,57 C130.274,58.67 129.346,59 125.094,59 L120,59 L120,55 C120,52.111 120.417,51 121.5,51 C122.325,51 123,50.325 123,49.5 C123,48.452 124.056,48 126.5,48 C128.869,48 130,47.538 130,46.57 C130,45.783 131.012,44.944 132.25,44.706 Z M80,39 C80,38.45 80.9,38 82,38 C83.865,38 84,38.667 84,47.883 C84,56.926 83.83,57.811 82,58.29 C80.803,58.603 80,59.654 80,60.906 C80,62.101 79.356,63 78.5,63 C77.675,63 77,63.675 77,64.5 C77,65.333 76.111,66 75,66 C73.381,66 73,66.667 73,69.5 C73,71.82 72.532,73 71.611,73 C70.816,73 69.942,74.495 69.566,76.5 C69.173,78.595 68.325,80 67.455,80 C66.655,80 66,80.9 66,82 C66,83.1 65.365,84 64.588,84 C63.72,84 62.915,85.541 62.5,88 C62.085,90.459 61.28,92 60.412,92 C59.465,92 59,93.152 59,95.5 C59,97.896 58.541,99 57.545,99 C56.675,99 55.827,100.405 55.434,102.5 C55.058,104.505 54.184,106 53.389,106 C52.468,106 52,107.18 52,109.5 C52,112.333 51.619,113 50,113 C48.381,113 48,113.667 48,116.5 C48,118.848 47.535,120 46.588,120 C45.72,120 44.915,121.541 44.5,124 C44.085,126.459 43.28,128 42.412,128 C41.384,128 41,129.361 41,133 C41,136.709 40.624,138 39.545,138 C38.675,138 37.827,139.405 37.434,141.5 C37.058,143.505 36.184,145 35.389,145 C34.594,145 34,146.015 34,147.375 C34,151.88 32.746,156 31.375,156 C30.47,156 30,157.197 30,159.5 C30,161.878 29.539,163 28.561,163 C26.82,163 25.704,169.31 26.174,176.501 L26.5,181.5 L22.75,181.81 C19.312,182.095 19,181.908 19,179.56 C19,177.951 18.443,177 17.5,177 C16.675,177 16,176.325 16,175.5 C16,174.675 16.675,174 17.5,174 C18.7,174 19,172.5 19,166.5 C19,160.781 19.329,159 20.383,159 C21.899,159 22.965,156.032 22.986,151.75 C22.995,149.978 23.534,149 24.5,149 C25.555,149 26,147.934 26,145.406 C26,142.654 26.468,141.69 28,141.29 C29.503,140.897 30,139.926 30,137.383 C30,135.078 30.467,134 31.466,134 C32.469,134 33.14,132.424 33.594,129 C34.025,125.754 34.739,124 35.629,124 C36.562,124 37,122.722 37,120 C37,116.667 37.333,116 39,116 C40.619,116 41,115.333 41,112.5 C41,110.18 41.468,109 42.389,109 C43.184,109 44.058,107.505 44.434,105.5 C44.827,103.405 45.675,102 46.545,102 C47.541,102 48,100.896 48,98.5 C48,96.152 48.465,95 49.412,95 C50.28,95 51.085,93.459 51.5,91 C51.915,88.541 52.72,87 53.588,87 C54.535,87 55,85.848 55,83.5 C55,80.667 55.381,80 57,80 C58.619,80 59,79.333 59,76.5 C59,74.056 59.452,73 60.5,73 C61.548,73 62,71.944 62,69.5 C62,66.667 62.381,66 64,66 C65.667,66 66,65.333 66,62 C66,59.166 66.424,58 67.455,58 C68.325,58 69.173,56.595 69.566,54.5 C69.942,52.495 70.816,51 71.611,51 C72.532,51 73,49.82 73,47.5 C73,44.667 73.381,44 75,44 C76.333,44 77,43.333 77,42 C77,40.889 77.667,40 78.5,40 C79.325,40 80,39.55 80,39 Z M52,118.5 C52,117.675 52.675,117 53.5,117 C54.325,117 55,117.675 55,118.5 C55,119.333 55.889,120 57,120 C58.667,120 59,120.667 59,124 C59,126.889 59.417,128 60.5,128 Q62,128 62,131 Q62,134 60.5,134 C59.667,134 59,134.889 59,136 C59,137.1 59.641,138 60.424,138 C62.431,138 62.715,146.47 62.421,197.5 C62.157,243.291 62.44,250 64.639,250 C65.388,250 66,250.675 66,251.5 C66,252.652 64.722,253 60.5,253 L55,253 L55,246 C55,240.444 54.69,239 53.5,239 C52.667,239 52,238.111 52,237 C52,235.889 52.667,235 53.5,235 C54.633,235 55,233.778 55,230 C55,226.222 54.633,225 53.5,225 C52.244,225 52,222.889 52,212 C52,201.111 52.244,199 53.5,199 C54.787,199 55,195.944 55,177.5 C55,159.056 54.787,156 53.5,156 C52.294,156 52,154.458 52,148.125 C52,138.432 51.176,134 49.375,134 C48.339,134 48,132.273 48,127 C48,120.667 48.19,120 50,120 C51.111,120 52,119.333 52,118.5 Z M158.25,152.706 C157.012,152.944 156,153.783 156,154.57 C156,155.356 155.381,156 154.625,156 C153.254,156 152,160.12 152,164.625 C152,166.069 151.412,167 150.5,167 C149.452,167 149,168.056 149,170.5 C149,172.944 149.452,174 150.5,174 C151.735,174 152.002,175.812 152.014,184.25 C152.031,197.421 152.458,199 156,199 C157.926,199 158.926,198.392 159.29,197 C159.577,195.9 160.53,195 161.406,195 C162.283,195 163,194.325 163,193.5 C163,192.675 163.655,192 164.455,192 C165.318,192 166.169,190.614 166.549,188.592 C166.956,186.421 167.88,185.003 169.094,184.686 C170.142,184.412 171,183.47 171,182.594 C171,181.717 171.675,181 172.5,181 C173.333,181 174,180.111 174,179 C174,177.9 174.623,177 175.383,177 C176.899,177 177.965,174.032 177.986,169.75 C177.995,167.978 178.534,167 179.5,167 C180.652,167 181,165.722 181,161.5 C181,156.667 180.758,156 179,156 C177.9,156 177,155.377 177,154.617 C177,153.856 175.988,152.962 174.75,152.63 C172.284,151.969 161.824,152.017 158.25,152.706 Z M250,140 C250,141.333 249.333,142 248,142 C246.381,142 246,142.667 246,145.5 C246,148.333 246.381,149 248,149 C249.333,149 250,148.333 250,147 C250,145.889 250.667,145 251.5,145 C252.325,145 253,144.377 253,143.617 C253,142.856 253.9,141.998 255,141.71 C256.1,141.423 257,140.47 257,139.594 C257,138.439 256.036,138 253.5,138 C250.667,138 250,138.381 250,140 Z M221,107.5 C221,108.325 221.675,109 222.5,109 C223.325,109 224,108.325 224,107.5 C224,106.675 223.325,106 222.5,106 C221.675,106 221,106.675 221,107.5 Z"/>
</svg>

