<svg xmlns="http://www.w3.org/2000/svg" width="300" height="300" viewBox="0 0 300 300" version="1.1">
  <defs/>
  <path d="M188.63,54.25 C189.301,51.747 192,51.146 192,53.5 C192,54.333 192.889,55 194,55 C195.333,55 196,55.667 196,57 C196,58.111 196.667,59 197.5,59 C198.722,59 199,60.667 199,68 C199,74.996 199.308,77 200.383,77 C202.103,77 202.969,80.077 202.986,86.25 L203,91 L221,91 C236.333,91 239,90.778 239,89.5 C239,88.348 240.278,88 244.5,88 C248.722,88 250,88.348 250,89.5 C250,90.325 250.625,91 251.389,91 C252.184,91 253.058,92.495 253.434,94.5 C253.827,96.595 254.675,98 255.545,98 C256.764,98 256.998,100.878 256.986,115.75 C256.972,134.646 256.579,138 254.383,138 C253.469,138 253,139.187 253,141.5 C253,143.944 252.548,145 251.5,145 C250.477,145 249.996,146.034 249.986,148.25 C249.966,153 248.959,156 247.383,156 C246.623,156 246,156.9 246,158 C246,159.1 245.345,160 244.545,160 C243.675,160 242.827,161.405 242.434,163.5 C242.058,165.505 241.184,167 240.389,167 C239.625,167 239,167.675 239,168.5 C239,169.412 238.069,170 236.625,170 C232.12,170 228,171.254 228,172.625 C228,173.521 226.821,174 224.617,174 C222.074,174 221.103,174.497 220.71,176 C220.31,177.532 219.346,178 216.594,178 C214.066,178 213,178.445 213,179.5 C213,180.51 211.99,181 209.906,181 C207.654,181 206.671,181.544 206.29,183 C205.897,184.503 204.926,185 202.383,185 C200.089,185 199,185.468 199,186.455 C199,187.325 197.595,188.173 195.5,188.566 C193.495,188.942 192,189.816 192,190.611 C192,191.375 191.1,192 190,192 C188.9,192 188,192.623 188,193.383 C188,194.899 185.032,195.965 180.75,195.986 C178.978,195.995 178,196.534 178,197.5 C178,198.716 179.611,199 186.5,199 C193.26,199 195,198.703 195,197.55 C195,196.519 196.737,195.903 201,195.42 C205.085,194.958 207,194.304 207,193.371 C207,192.311 209.044,192 216,192 C222.9,192 225,191.684 225,190.647 C225,189.683 227.204,189.107 232.651,188.647 C246.148,187.506 249.12,187.742 249.71,190 C250.169,191.756 251.074,192 257.117,192 C262.323,192 264,192.338 264,193.389 C264,194.184 265.495,195.058 267.5,195.434 C270.591,196.014 271,196.447 271,199.139 C271,201.346 271.552,202.332 273,202.71 C274.837,203.191 275,204.074 275,213.567 C275,222.244 274.728,224.053 273.304,224.85 C272.055,225.549 271.497,227.538 271.187,232.4 C270.885,237.15 270.379,239 269.384,239 C268.469,239 268,240.187 268,242.5 C268,245.333 267.619,246 266,246 C264.394,246 264,246.667 264,249.383 C264,251.926 263.503,252.897 262,253.29 C260.544,253.671 260,254.654 260,256.906 C260,258.99 259.51,260 258.5,260 C257.667,260 257,260.889 257,262 C257,263.1 256.345,264 255.545,264 C254.682,264 253.831,265.386 253.451,267.408 C253.044,269.579 252.12,270.997 250.906,271.314 C249.858,271.588 249,272.53 249,273.406 C249,274.283 248.325,275 247.5,275 C246.675,275 246,275.66 246,276.466 C246,277.469 244.424,278.14 241,278.594 C237.754,279.025 236,279.739 236,280.629 C236,281.562 234.722,282 232,282 C228.095,282 228,281.917 228,278.5 L228,275 L233.5,275 C238.333,275 239,274.758 239,273 C239,271.889 239.667,271 240.5,271 C241.325,271 242,270.283 242,269.406 C242,268.53 242.9,267.577 244,267.29 C245.503,266.897 246,265.926 246,263.383 C246,261.127 246.473,260 247.421,260 C248.202,260 249.138,258.65 249.5,257 C249.862,255.35 250.798,254 251.579,254 C252.361,254 253,253.058 253,251.906 C253,250.654 253.803,249.603 255,249.29 C256.503,248.897 257,247.926 257,245.383 C257,243.043 257.462,242 258.5,242 C259.637,242 260,240.767 260,236.906 C260,232.654 260.33,231.726 262,231.29 C263.879,230.798 264,229.926 264,216.883 L264,203 L260.25,202.798 C258.188,202.687 255.037,202.674 253.25,202.768 C250.625,202.907 250,202.561 250,200.97 C250,199.185 249.295,199 242.5,199 C235.667,199 235,199.178 235,201 C235,202.111 234.333,203 233.5,203 C232.282,203 231.998,204.643 231.991,211.75 C231.979,224.031 231.027,231 229.361,231 C228.296,231 228,233.389 228,242 C228,250.575 227.702,253 226.648,253 C225.082,253 224.016,263.59 224.006,279.25 L224,289 L216.888,289 L217.194,267.962 C217.447,250.57 217.76,246.764 219,246 C220.221,245.249 220.559,241.81 220.814,227.538 C221.073,213.111 221.384,210 222.564,210 C223.616,210 224,208.692 224,205.108 C224,200.623 223.775,200.16 221.289,199.536 C219.309,199.039 218.236,199.324 217.309,200.592 C216.345,201.91 214.106,202.44 208.02,202.793 C202.117,203.134 200,203.619 200,204.628 C200,205.472 198.894,206 197.125,206 C192.159,206 188,207.196 188,208.625 C188,209.661 186.273,210 181,210 C174.667,210 174,210.19 174,212 C174,213.333 173.333,214 172,214 C170.889,214 170,214.667 170,215.5 C170,216.325 169.325,217 168.5,217 C167.667,217 167,217.889 167,219 C167,220.111 167.667,221 168.5,221 C169.548,221 170,222.056 170,224.5 C170,227.333 170.381,228 172,228 C173.758,228 174,228.667 174,233.5 C174,237.516 174.373,239 175.383,239 C176.959,239 177.966,242 177.986,246.75 C177.996,248.966 178.477,250 179.5,250 C180.633,250 181,251.222 181,255 L181,260 L177.5,260 C174.309,260 174,259.745 174,257.117 C174,255.074 173.417,254.081 172,253.71 C170.468,253.31 170,252.346 170,249.594 C170,247.066 169.555,246 168.5,246 C167.472,246 167,244.969 167,242.722 C167,240.682 166.245,238.798 165,237.732 C163.9,236.79 163,234.89 163,233.51 C163,231.98 162.432,231 161.545,231 C160.675,231 159.827,229.595 159.434,227.5 C159.058,225.495 158.184,224 157.389,224 C156.468,224 156,222.82 156,220.5 C156,218.136 155.537,217 154.573,217 C153.789,217 152.993,216.213 152.806,215.25 C152.532,213.839 151.409,213.5 147.008,213.5 C142.61,213.5 141.483,213.16 141.202,211.75 C140.916,210.313 141.581,210 144.927,210 C148.333,210 149,209.673 149,208 C149,206.889 149.667,206 150.5,206 C151.325,206 152,205.325 152,204.5 C152,203.445 153.066,203 155.594,203 C158.346,203 159.31,202.532 159.71,201 C160.103,199.497 161.074,199 163.617,199 C165.957,199 167,198.538 167,197.5 C167,196.675 167.717,196 168.594,196 C169.47,196 170.423,195.1 170.71,194 C171.103,192.497 172.074,192 174.617,192 C176.911,192 178,191.532 178,190.545 C178,189.675 179.405,188.827 181.5,188.434 C183.505,188.058 185,187.184 185,186.389 C185,185.625 185.675,185 186.5,185 C188.854,185 188.253,182.301 185.75,181.63 C181.117,180.389 177.834,180.92 177.29,183 C176.857,184.656 175.926,185 171.883,185 C168.209,185 167,185.371 167,186.5 C167,187.583 165.889,188 163,188 C160.111,188 159,187.583 159,186.5 C159,185.675 158.325,185 157.5,185 C156.667,185 156,184.111 156,183 C156,181.889 156.667,181 157.5,181 C158.325,181 159,180.283 159,179.406 C159,178.53 159.9,177.577 161,177.29 C162.1,177.002 163,176.144 163,175.383 C163,174.303 165.078,174 172.5,174 C179.857,174 182,173.692 182,172.636 C182,171.101 188.114,170 196.64,170 C200.738,170 202,169.647 202,168.5 C202,167.675 201.325,167 200.5,167 C199.408,167 199,165.873 199,162.861 L199,158.721 L193.75,159.352 C190.863,159.699 187.713,159.987 186.75,159.991 C185.787,159.996 185,160.675 185,161.5 C185,162.652 183.722,163 179.5,163 C175.278,163 174,163.348 174,164.5 C174,165.325 173.438,166.006 172.75,166.014 C172.063,166.021 170.488,166.299 169.25,166.63 C167.653,167.058 167,166.801 167,165.742 C167,164.252 163.061,163 158.375,163 C156.2,163 156,162.59 156,158.125 C156,153.565 156.184,153.213 158.851,152.68 C162.562,151.938 166,152.869 166,154.617 C166,155.641 167.558,156 172,156 C176.442,156 178,155.641 178,154.617 C178,153.101 180.968,152.035 185.25,152.014 C187.022,152.005 188,151.466 188,150.5 C188,149.348 189.278,149 193.5,149 L199,149 L199,145.55 C199,143.381 199.614,141.756 200.652,141.175 C203.145,139.78 203.229,127.672 200.75,127.192 C199.537,126.957 199,127.49 199,128.927 C199,130.63 198.375,131 195.5,131 C192.167,131 192,130.833 192,127.5 L192,124 L167.25,124 L166.629,120.897 C165.926,117.38 166.47,116 168.559,116 C169.352,116 170,115.325 170,114.5 C170,113.278 171.667,113 179,113 C186.333,113 188,113.278 188,114.5 C188,115.555 189.066,116 191.594,116 C194.346,116 195.31,116.468 195.71,118 C196.081,119.417 197.074,120 199.117,120 C202.2,120 203.163,117.66 200.5,116.638 C199.363,116.202 199,114.359 199,109.031 L199,102 L184.5,102 C172.821,102 170,102.269 170,103.383 C170,105.21 166.865,105.97 159.25,105.986 C154.59,105.997 153,106.353 153,107.389 C153,108.176 151.529,109.053 149.602,109.415 C145.494,110.186 143.655,114.543 146.545,116.656 C147.521,117.371 148.45,119.811 148.747,122.446 C149.054,125.167 149.767,127 150.519,127 C151.211,127 152.073,128.575 152.434,130.5 C152.827,132.595 153.675,134 154.545,134 C155.689,134 156,135.604 156,141.5 L156,149 L152.5,149 C149.667,149 149,148.619 149,147 C149,145.667 148.333,145 147,145 C145.242,145 145,144.333 145,139.5 C145,135.335 144.644,134 143.534,134 C142.531,134 141.86,132.424 141.406,129 C140.975,125.754 140.261,124 139.371,124 C138.617,124 138,123.1 138,122 C138,120.9 137.345,120 136.545,120 C135.675,120 134.827,118.595 134.434,116.5 C134.058,114.495 133.184,113 132.389,113 C131.491,113 130.995,111.85 130.986,109.75 C130.966,105 129.959,102 128.383,102 C127.469,102 127,100.813 127,98.5 C127,96.215 126.528,95 125.639,95 C124.139,95 122.743,86.7 123.656,83.207 C124.701,79.212 133.313,79.314 134.392,83.335 C134.711,84.526 134.979,87.638 134.986,90.25 C134.997,93.799 135.379,95 136.5,95 C137.361,95 138,95.902 138,97.117 C138,98.824 138.435,99.117 140.25,98.63 C141.488,98.299 144.863,98.021 147.75,98.014 C151.744,98.003 153,97.641 153,96.5 C153,95.224 155.615,95 170.531,95 C185.048,95 188.16,94.747 188.628,93.527 C188.939,92.717 190.762,91.76 192.68,91.4 C195.627,90.847 196.079,90.417 195.597,88.623 C195.284,87.455 195.021,85.938 195.014,85.25 C195.006,84.563 194.325,84 193.5,84 C192.348,84 192,82.722 192,78.5 C192,74.484 191.627,73 190.617,73 C188.802,73 188.027,69.86 188.027,62.5 C188.027,59.2 188.299,55.487 188.63,54.25 Z M237.25,98.706 C236.012,98.944 235,99.783 235,100.57 C235,101.734 232.674,102 222.5,102 L210,102 L210,116 L214,116 C216.889,116 218,115.583 218,114.5 C218,113.284 219.611,113 226.5,113 C233.389,113 235,113.284 235,114.5 C235,115.333 235.889,116 237,116 C238.758,116 239,116.667 239,121.5 L239,127 L235.617,127 C233.074,127 232.103,126.503 231.71,125 C231.298,123.424 230.346,123 227.219,123 C221.234,123 217,124.088 217,125.625 C217,126.53 215.803,127 213.5,127 L210,127 L210,149 L215.094,149 C219.346,149 220.274,148.67 220.71,147 C221.103,145.497 222.074,145 224.617,145 C226.831,145 228,145.478 228,146.383 C228,147.144 228.9,148.002 230,148.29 C231.532,148.69 232,149.654 232,152.406 L232,156 L224.5,156 C218.781,156 217,156.329 217,157.383 C217,158.899 214.032,159.965 209.75,159.986 C207.906,159.996 207,160.525 207,161.594 C207,162.47 206.1,163.423 205,163.71 C202.348,164.404 202.463,165.623 205.25,166.37 C209.405,167.483 212.883,167.032 213.879,165.25 C214.687,163.804 216.604,163.44 224.928,163.156 C233.061,162.879 235,162.524 235,161.313 C235,160.488 235.9,159.577 237,159.29 C238.656,158.857 239,157.926 239,153.883 C239,150.209 239.371,149 240.5,149 C241.555,149 242,147.934 242,145.406 C242,142.654 242.468,141.69 244,141.29 C245.756,140.831 246,139.926 246,133.883 C246,128.431 246.312,127 247.5,127 C248.69,127 249,125.556 249,120 C249,114.444 248.69,113 247.5,113 C246.348,113 246,111.722 246,107.5 C246,103.484 245.627,102 244.617,102 C243.856,102 242.998,101.1 242.71,100 C242.191,98.015 241.583,97.871 237.25,98.706 Z M89.75,73.689 C94.191,72.529 95,72.924 94.986,76.25 C94.966,81 93.959,84 92.383,84 C91.623,84 91,84.675 91,85.5 C91,86.325 90.365,87 89.588,87 C88.72,87 87.915,88.541 87.5,91 C87.085,93.459 86.28,95 85.412,95 C84.465,95 84,96.152 84,98.5 C84,100.896 83.541,102 82.545,102 C81.675,102 80.827,103.405 80.434,105.5 C80.058,107.505 79.184,109 78.389,109 C77.625,109 77,109.9 77,111 C77,112.1 76.345,113 75.545,113 C74.675,113 73.827,114.405 73.434,116.5 C73.073,118.425 72.203,120 71.5,120 C70.797,120 69.927,121.575 69.566,123.5 C69.173,125.595 68.325,127 67.455,127 C66.655,127 66,127.9 66,129 C66,130.111 65.333,131 64.5,131 C63.675,131 63,131.717 63,132.594 C63,133.47 62.1,134.423 61,134.71 C59.497,135.103 59,136.074 59,138.617 C59,141.333 58.606,142 57,142 C55.381,142 55,142.667 55,145.5 C55,147.82 54.532,149 53.611,149 C52.816,149 51.942,150.495 51.566,152.5 C51.173,154.595 50.325,156 49.455,156 C48.459,156 48,157.104 48,159.5 C48,162.333 47.619,163 46,163 C44.667,163 44,163.667 44,165 C44,166.111 43.333,167 42.5,167 C41.452,167 41,168.056 41,170.5 C41,173.333 40.619,174 39,174 C37.381,174 37,174.667 37,177.5 C37,179.82 36.532,181 35.611,181 C34.816,181 33.942,182.495 33.566,184.5 C32.919,187.95 30,189.587 30,186.5 C30,185.667 29.111,185 28,185 C26.371,185 26,184.333 26,181.406 C26,178.654 26.468,177.69 28,177.29 C29.503,176.897 30,175.926 30,173.383 C30,171.089 30.468,170 31.455,170 C32.325,170 33.173,168.595 33.566,166.5 C33.942,164.495 34.816,163 35.611,163 C36.375,163 37,162.1 37,161 C37,159.9 37.655,159 38.455,159 C39.325,159 40.173,157.595 40.566,155.5 C40.942,153.495 41.816,152 42.611,152 C43.497,152 44,150.879 44,148.906 C44,146.654 44.544,145.671 46,145.29 C47.503,144.897 48,143.926 48,141.383 C48,138.667 48.394,138 50,138 C51.333,138 52,137.333 52,136 C52,134.889 52.667,134 53.5,134 C54.548,134 55,132.944 55,130.5 C55,128.104 55.459,127 56.455,127 C57.325,127 58.173,125.595 58.566,123.5 C58.942,121.495 59.816,120 60.611,120 C61.375,120 62,119.1 62,118 C62,116.667 62.667,116 64,116 C65.619,116 66,115.333 66,112.5 C66,110.104 66.459,109 67.455,109 C68.325,109 69.173,107.595 69.566,105.5 C69.942,103.495 70.816,102 71.611,102 C72.532,102 73,100.82 73,98.5 C73,95.667 73.381,95 75,95 C76.619,95 77,94.333 77,91.5 C77,89.18 77.468,88 78.389,88 C79.184,88 80.058,86.505 80.434,84.5 C80.827,82.405 81.675,81 82.545,81 C83.345,81 84,80.1 84,79 C84,77.667 84.667,77 86,77 C87.1,77 88,76.358 88,75.573 C88,74.789 88.787,73.941 89.75,73.689 Z M87,110.5 C87,108.493 91.399,108.542 93.429,110.571 C95.373,112.516 95.513,117 93.629,117 C90.708,117 90.483,139.358 93.385,141.212 C94.105,141.672 94.62,147.613 94.838,157.962 C95.111,170.948 95.444,174 96.588,174 C97.673,174 98.002,175.677 98.009,181.25 C98.022,192.119 99.042,199 100.639,199 C101.388,199 102,199.9 102,201 C102,202.111 102.667,203 103.5,203 C104.652,203 105,204.278 105,208.5 C105,212.722 104.652,214 103.5,214 C102.452,214 102,215.056 102,217.5 C102,220.333 101.619,221 100,221 C98.889,221 98,221.667 98,222.5 C98,223.487 97.013,224 95.117,224 C91.282,224 91.03,222.788 91.014,204.25 C91.003,192.111 90.724,189 89.648,189 C88.287,189 87.02,178.809 87.006,167.75 C87.002,164.197 86.622,163 85.5,163 C84.206,163 84,159.5 84,137.5 C84,115.5 84.206,112 85.5,112 C86.325,112 87,111.325 87,110.5 Z M214,10.5 C214,9.513 214.987,9 216.883,9 C219.028,9 219.921,9.576 220.37,11.25 C221.582,15.774 221.076,18.747 219,19.29 C217.544,19.671 217,20.654 217,22.906 C217,24.99 216.51,26 215.5,26 C214.667,26 214,26.889 214,28 C214,29.333 213.333,30 212,30 C210.667,30 210,30.667 210,32 C210,33.333 209.333,34 208,34 C206.889,34 206,34.667 206,35.5 C206,36.325 205.325,37 204.5,37 C203.675,37 203,37.675 203,38.5 C203,39.333 202.111,40 201,40 C199.462,40 199,39.333 199,37.117 C199,35.074 199.583,34.081 201,33.71 C202.1,33.423 203,32.47 203,31.594 C203,30.717 203.675,30 204.5,30 C205.548,30 206,28.944 206,26.5 C206,23.278 205.762,23 203,23 Q200,23 200,24.5 C200,25.583 198.889,26 196,26 C192.667,26 192,26.333 192,28 C192,29.806 191.333,30 185.117,30 C179.074,30 178.169,30.244 177.71,32 C177.249,33.763 176.346,34 170.094,34 C164.455,34 163,34.308 163,35.5 C163,36.548 161.944,37 159.5,37 C156.667,37 156,37.381 156,39 C156,40.1 155.345,41 154.545,41 C153.675,41 152.827,42.405 152.434,44.5 C151.837,47.682 151.47,48 148.389,48 C145.183,48 145,47.811 145,44.5 C145,42.068 145.454,41 146.488,41 C147.451,41 148.202,39.588 148.616,37 C149.002,34.587 149.8,33 150.628,33 C151.383,33 152,32.325 152,31.5 C152,30.667 152.889,30 154,30 C155.1,30 156,29.377 156,28.617 C156,27.041 159,26.034 163.75,26.014 C165.966,26.004 167,25.523 167,24.5 C167,23.311 168.439,23 173.95,23 C179.292,23 181.109,22.628 181.799,21.394 C182.34,20.428 184.551,19.58 187.349,19.264 C190.164,18.947 192,18.239 192,17.471 C192,16.635 194.382,15.964 199,15.5 C203.995,14.998 206,14.396 206,13.399 C206,12.434 207.24,12 210,12 C212.889,12 214,11.583 214,10.5 Z M188.005,222.25 L188,217 L191.25,217.014 C194.206,217.026 196.026,216.913 197.161,217.74 C199.116,219.165 199.035,223.385 199.227,235.861 L199.5,253.5 L202.75,253.813 C205.608,254.089 206,254.481 206,257.063 C206,259.007 205.493,260 204.5,260 C203.667,260 203,260.889 203,262 C203,263.758 202.333,264 197.5,264 L192,264 L192,260.5 C192,258.056 191.548,257 190.5,257 C189.667,257 189,256.111 189,255 C189,253.889 189.667,253 190.5,253 C191.325,253 192,252.325 192,251.5 C192,250.675 191.394,250 190.653,250 C189.327,250 188.017,236.273 188.005,222.25 Z"/>
</svg>

