<svg xmlns="http://www.w3.org/2000/svg" width="300" height="300" viewBox="0 0 300 300" version="1.1">
  <defs/>
  <path d="M111,71.5 C111,70.512 111.988,70 113.892,70 C116.142,70 116.922,70.554 117.411,72.5 C117.756,73.875 117.756,76.125 117.411,77.5 L116.783,80 L134.642,80.014 C153.645,80.028 157,80.419 157,82.617 C157,83.377 157.9,84 159,84 C160.111,84 161,84.667 161,85.5 C161,86.325 161.675,87 162.5,87 C163.667,87 164,88.333 164,93 C164,97.667 163.667,99 162.5,99 C161.31,99 161,100.444 161,106 C161,111.293 160.663,113 159.617,113 C158.041,113 157.034,116 157.014,120.75 C157.004,122.966 156.523,124 155.5,124 C154.534,124 153.995,124.978 153.986,126.75 C153.965,131.032 152.899,134 151.383,134 C150.373,134 150,135.484 150,139.5 C150,143.722 149.652,145 148.5,145 C147.675,145 146.994,145.563 146.986,146.25 C146.979,146.938 146.701,148.512 146.37,149.75 C145.883,151.565 146.176,152 147.883,152 C149.333,152 150,152.63 150,154 C150,155.619 150.667,156 153.5,156 C155.82,156 157,156.468 157,157.389 C157,158.184 158.495,159.058 160.5,159.434 C162.595,159.827 164,160.675 164,161.545 C164,162.576 165.166,163 168,163 C170.834,163 172,163.424 172,164.455 C172,165.325 173.405,166.173 175.5,166.566 C178.033,167.041 179,167.745 179,169.111 C179,170.629 178.263,170.998 175.25,170.991 C167.622,170.974 161,169.751 161,168.361 C161,167.466 159.771,167 157.406,167 C154.654,167 153.69,166.532 153.29,165 C152.837,163.268 151.926,163 146.5,163 C139.601,163 139.044,163.577 139.014,170.75 C139.004,172.966 138.523,174 137.5,174 C136.445,174 136,175.066 136,177.594 C136,180.346 135.532,181.31 134,181.71 C132.344,182.143 132,183.074 132,187.117 C132,190.723 131.62,192 130.545,192 C129.675,192 128.827,193.405 128.434,195.5 C128.058,197.505 127.184,199 126.389,199 C125.468,199 125,200.18 125,202.5 C125,205.036 124.561,206 123.406,206 C122.53,206 121.577,206.9 121.29,208 C121.002,209.1 120.144,210 119.383,210 C118.469,210 118,211.187 118,213.5 C118,216.333 117.619,217 116,217 C114.667,217 114,217.667 114,219 C114,220.1 113.345,221 112.545,221 C111.675,221 110.827,222.405 110.434,224.5 C110.058,226.505 109.184,228 108.389,228 C107.625,228 107,228.9 107,230 C107,231.1 106.345,232 105.545,232 C104.675,232 103.827,233.405 103.434,235.5 C102.959,238.033 102.255,239 100.889,239 C99.85,239 99,239.675 99,240.5 C99,241.325 98.325,242 97.5,242 C96.667,242 96,242.889 96,244 C96,245.333 95.333,246 94,246 C92.667,246 92,246.667 92,248 C92,249.111 91.333,250 90.5,250 C89.675,250 89,250.675 89,251.5 C89,252.333 88.111,253 87,253 C85.9,253 85,253.623 85,254.383 C85,255.966 81.997,256.967 77.19,256.986 C73.974,257 73.888,256.893 74.19,253.25 C74.483,249.704 74.704,249.483 78.25,249.19 C80.703,248.987 82,248.381 82,247.44 C82,246.648 82.675,246 83.5,246 C84.333,246 85,245.111 85,244 C85,242.667 85.667,242 87,242 C88.549,242 89,241.333 89,239.045 C89,236.46 89.438,236.008 92.5,235.434 C95.682,234.837 96,234.47 96,231.389 C96,228.667 96.393,228 98,228 C99.333,228 100,227.333 100,226 C100,224.889 100.667,224 101.5,224 C102.548,224 103,222.944 103,220.5 C103,217.667 103.381,217 105,217 C106.333,217 107,216.333 107,215 C107,213.889 107.667,213 108.5,213 C109.51,213 110,211.99 110,209.906 C110,207.654 110.544,206.671 112,206.29 C113.503,205.897 114,204.926 114,202.383 C114,199.667 114.394,199 116,199 C117.333,199 118,198.333 118,197 C118,195.889 118.667,195 119.5,195 C120.629,195 121,193.791 121,190.117 C121,186.074 121.344,185.143 123,184.71 C124.532,184.31 125,183.346 125,180.594 C125,178.066 125.445,177 126.5,177 C127.466,177 128.005,176.022 128.014,174.25 C128.035,169.968 129.101,167 130.617,167 C131.564,167 132,165.739 132,163 C132,160.111 132.417,159 133.5,159 C134.325,159 135,158.325 135,157.5 C135,156.675 134.325,156 133.5,156 C132.675,156 132,155.375 132,154.611 C132,153.816 130.505,152.942 128.5,152.566 C126.405,152.173 125,151.325 125,150.455 C125,149.452 123.884,149 121.406,149 C118.654,149 117.69,148.532 117.29,147 C116.926,145.608 115.926,145 114,145 C112.074,145 111.074,144.392 110.71,143 C110.423,141.9 109.47,141 108.594,141 C107.717,141 107,140.325 107,139.5 C107,138.667 106.111,138 105,138 C103.9,138 103,137.381 103,136.625 C103,134.988 98.674,133.995 91.625,134.014 C85.093,134.031 82,134.867 82,136.617 C82,137.377 81.1,138 80,138 C78.667,138 78,138.667 78,140 C78,141.619 77.333,142 74.5,142 C71.167,142 71,141.833 71,138.5 C71,136.056 71.452,135 72.5,135 C73.333,135 74,134.111 74,133 C74,131.667 74.667,131 76,131 C77.333,131 78,130.333 78,129 C78,127.667 78.667,127 80,127 C81.619,127 82,126.333 82,123.5 C82,121.056 82.452,120 83.5,120 C84.325,120 85,119.283 85,118.406 C85,117.53 85.9,116.577 87,116.29 C88.503,115.897 89,114.926 89,112.383 C89,110.169 89.478,109 90.383,109 C91.144,109 92.002,108.1 92.29,107 C92.577,105.9 93.53,105 94.406,105 C95.738,105 96,103.62 96,96.611 L96,88.223 L99.5,87.566 C102.524,86.999 103,86.523 103,84.071 C103,82.074 103.593,81.078 105,80.71 C106.532,80.31 107,79.346 107,76.594 C107,73.667 107.371,73 109,73 C110.111,73 111,72.333 111,71.5 Z M117,89.5 C117,90.325 116.325,91 115.5,91 C114.675,91 114,91.655 114,92.455 C114,93.325 112.595,94.173 110.5,94.566 C107.318,95.163 107,95.53 107,98.611 C107,101.333 106.607,102 105,102 C103.381,102 103,102.667 103,105.5 C103,107.944 102.548,109 101.5,109 C100.667,109 100,109.889 100,111 C100,112.333 99.333,113 98,113 C96.242,113 96,113.667 96,118.5 C96,123.333 96.242,124 98,124 C99.111,124 100,124.667 100,125.5 C100,126.548 101.056,127 103.5,127 C106.333,127 107,127.381 107,129 C107,130.619 107.667,131 110.5,131 C112.813,131 114,131.469 114,132.383 C114,133.144 114.9,134.002 116,134.29 C117.1,134.577 118,135.53 118,136.406 C118,137.496 118.912,138 120.883,138 C122.926,138 123.919,138.583 124.29,140 C124.603,141.197 125.654,142 126.906,142 C128.101,142 129,142.644 129,143.5 C129,144.466 129.978,145.005 131.75,145.014 C133.262,145.021 135.512,145.299 136.75,145.63 C138.817,146.184 139,145.898 139,142.117 C139,138.667 139.324,138 141,138 C142.758,138 143,137.333 143,132.5 C143,128.278 143.348,127 144.5,127 C145.575,127 146,125.903 146,123.125 C146,117.228 147.096,113 148.625,113 C149.69,113 150,110.97 150,104 C150,96.667 150.278,95 151.5,95 C154.587,95 152.95,92.081 149.5,91.434 C147.495,91.058 146,90.184 146,89.389 C146,88.268 143.206,88 131.5,88 C119.278,88 117,88.236 117,89.5 Z M207.29,46 C207.69,44.468 208.654,44 211.406,44 C214.333,44 215,44.371 215,46 C215,47.111 215.667,48 216.5,48 C217.412,48 218,48.931 218,50.375 C218,54.88 219.254,59 220.625,59 C221.625,59 222,60.5 222,64.5 C222,68.516 222.373,70 223.383,70 C224.959,70 225.966,73 225.986,77.75 C225.996,79.966 226.477,81 227.5,81 C228.679,81 229,82.389 229,87.5 C229,92.611 228.679,94 227.5,94 C226.675,94 226,93.325 226,92.5 C226,91.667 225.111,91 224,91 C222.273,91 222,90.333 222,86.117 C222,82.074 221.656,81.143 220,80.71 C218.468,80.31 218,79.346 218,76.594 C218,74.066 217.555,73 216.5,73 C215.452,73 215,71.944 215,69.5 C215,67.187 214.531,66 213.617,66 C212.106,66 211.035,63.035 211.014,58.795 C211.002,56.5 210.47,55.991 207.5,55.434 C204.318,54.837 204,54.47 204,51.389 C204,49.17 204.478,48 205.383,48 C206.144,48 207.002,47.1 207.29,46 Z M178.708,50.75 C179.171,48.4 179.741,48 182.625,48 C185.333,48 186,48.395 186,50 C186,51.333 186.667,52 188,52 C189.619,52 190,52.667 190,55.5 C190,57.944 190.452,59 191.5,59 C192.325,59 193,59.717 193,60.594 C193,61.47 193.9,62.423 195,62.71 C196.417,63.081 197,64.074 197,66.117 C197,68.013 197.513,69 198.5,69 C199.333,69 200,69.889 200,71 C200,72.333 200.667,73 202,73 C203.333,73 204,73.667 204,75 C204,76.111 204.667,77 205.5,77 C206.325,77 207,77.675 207,78.5 C207,79.333 207.889,80 209,80 C210.619,80 211,80.667 211,83.5 C211,86.833 210.833,87 207.5,87 C205.056,87 204,86.548 204,85.5 C204,84.667 203.111,84 202,84 C200.889,84 200,83.333 200,82.5 C200,81.675 199.325,81 198.5,81 C197.667,81 197,80.111 197,79 C197,77.667 196.333,77 195,77 C193.667,77 193,76.333 193,75 C193,73.889 192.333,73 191.5,73 C190.675,73 190,72.325 190,71.5 C190,70.667 189.111,70 188,70 C186.394,70 186,69.333 186,66.617 C186,64.074 185.503,63.103 184,62.71 C182.9,62.423 182,61.47 182,60.594 C182,59.717 181.377,59 180.617,59 C178.968,59 177.95,54.597 178.708,50.75 Z"/>
</svg>

