<svg xmlns="http://www.w3.org/2000/svg" width="300" height="300" viewBox="0 0 300 300" version="1.1">
  <defs/>
  <path d="M161,46.5 C161,45.675 161.675,45 162.5,45 C163.325,45 164,45.675 164,46.5 C164,47.333 164.889,48 166,48 C167.333,48 168,48.667 168,50 C168,51.111 168.667,52 169.5,52 Q171,52 171,55 Q171,58 169.5,58 C168.244,58 168,60.111 168,71 C168,81.364 168.279,84 169.375,84 C170.904,84 172,88.228 172,94.125 L172,98 L179,98 C184.556,98 186,97.69 186,96.5 C186,95.29 187.741,94.968 195,94.833 C199.95,94.742 204.787,94.629 205.75,94.583 C207.069,94.521 207.576,95.423 207.81,98.25 L208.121,102 L202.06,102 C197.608,102 196,102.362 196,103.364 C196,104.795 189.993,106 182.86,106 C180.096,106 179,106.426 179,107.5 C179,108.333 178.111,109 177,109 C175.333,109 175,109.667 175,113 C175,115.889 174.583,117 173.5,117 C172.207,117 172,120.444 172,142 C172,163.556 172.207,167 173.5,167 C174.325,167 175,167.675 175,168.5 C175,169.333 175.889,170 177,170 C178.333,170 179,170.667 179,172 C179,173.1 179.623,174 180.383,174 C181.144,174 182.002,174.9 182.29,176 C182.577,177.1 183.53,178 184.406,178 C185.283,178 186,178.623 186,179.383 C186,180.144 186.9,181.002 188,181.29 C189.456,181.671 190,182.654 190,184.906 C190,186.99 190.49,188 191.5,188 C192.55,188 193,189.059 193,191.531 C193,193.748 193.559,195.277 194.5,195.638 C196.24,196.306 196.665,205.612 194.982,206.173 C194.422,206.359 193.684,208.872 193.342,211.756 C192.934,215.208 192.256,217 191.361,217 C190.466,217 190,218.229 190,220.594 C190,223.346 189.532,224.31 188,224.71 C186.497,225.103 186,226.074 186,228.617 C186,230.957 185.538,232 184.5,232 C183.675,232 183,232.717 183,233.594 C183,234.47 182.126,235.416 181.057,235.695 C179.927,235.991 178.848,237.416 178.478,239.102 C178.128,240.696 177.202,242 176.421,242 C175.639,242 175,242.9 175,244 C175,245.111 174.333,246 173.5,246 C172.667,246 172,246.889 172,248 C172,249.333 171.333,250 170,250 C168.889,250 168,250.667 168,251.5 C168,252.333 167.111,253 166,253 C164.381,253 164,252.333 164,249.5 C164,246.667 164.381,246 166,246 C167.619,246 168,245.333 168,242.5 C168,240.18 168.468,239 169.389,239 C170.184,239 171.058,237.505 171.434,235.5 C171.827,233.405 172.675,232 173.545,232 C174.345,232 175,231.1 175,230 C175,228.9 175.655,228 176.455,228 C177.325,228 178.173,226.595 178.566,224.5 C178.942,222.495 179.816,221 180.611,221 C181.509,221 182.005,219.85 182.014,217.75 C182.034,213 183.041,210 184.617,210 C185.671,210 186,208.219 186,202.5 C186,196.604 185.689,195 184.545,195 C183.675,195 182.827,193.595 182.434,191.5 C182.058,189.495 181.184,188 180.389,188 C179.625,188 179,187.325 179,186.5 C179,185.667 178.111,185 177,185 C175.667,185 175,184.333 175,183 C175,180.378 171.976,180.378 171.29,183 C171.002,184.1 170.144,185 169.383,185 C168.337,185 168,186.707 168,192 C168,198.333 167.81,199 166,199 C164.667,199 164,199.667 164,201 C164,202.111 163.333,203 162.5,203 C161.675,203 161,203.63 161,204.399 C161,206.147 155.959,206.619 142.213,206.156 C134.267,205.889 132,205.5 132,204.406 C132,203.633 131.1,203 130,203 C128.667,203 128,202.333 128,201 C128,199.9 127.377,199 126.617,199 C125.856,199 124.998,198.1 124.71,197 C124.423,195.9 123.47,195 122.594,195 C121.439,195 121,194.036 121,191.5 C121,189.056 120.548,188 119.5,188 C118.667,188 118,187.111 118,186 C118,184.889 118.667,184 119.5,184 C120.466,184 121.005,183.022 121.014,181.25 C121.041,175.84 122.053,174 125.005,174 C127.382,174 127.871,173.5 128.434,170.5 C128.991,167.53 129.5,166.998 131.795,166.986 C136.035,166.965 139,165.894 139,164.383 C139,163.341 140.663,163.003 145.75,163.014 C153.988,163.03 157,163.761 157,165.742 C157,166.903 157.731,167.104 160.177,166.615 C161.924,166.265 163.473,165.86 163.618,165.715 C163.842,165.491 164.241,116.9 164.061,111.75 C164.015,110.437 163.147,110 160.583,110 C158.704,110 156.98,110.562 156.751,111.25 C156.465,112.109 153.156,112.607 146.168,112.844 C138.63,113.098 136,113.526 136,114.497 C136,115.491 132.149,115.98 120,116.531 C107.46,117.099 104,117.553 104,118.628 C104,119.638 102.418,120 98,120 C93.859,120 92.004,119.613 92.014,118.75 C92.045,115.84 93.331,113 94.617,113 C95.377,113 96,112.1 96,111 C96,109.103 96.667,109 109,109 C119.889,109 122,108.756 122,107.5 C122,106.316 123.421,105.998 128.75,105.991 C139.15,105.978 146,104.933 146,103.361 C146,102.334 147.841,102 153.5,102 C159.5,102 161,101.7 161,100.5 C161,99.675 161.675,99 162.5,99 C163.333,99 164,98.111 164,97 C164,95.9 163.365,95 162.588,95 C161.444,95 161.112,91.93 160.838,78.832 C160.591,67.035 160.162,62.552 159.25,62.249 C157.768,61.756 157.556,59 159,59 C159.55,59 160,58.325 160,57.5 C160,56.675 159.55,56 159,56 C158.45,56 158,54.2 158,52 C158,49.111 158.417,48 159.5,48 C160.325,48 161,47.325 161,46.5 Z M136,175.594 C136,176.47 135.1,177.423 134,177.71 C132.9,177.998 132,178.856 132,179.617 C132,180.377 131.325,181 130.5,181 C129.675,181 128.994,181.563 128.986,182.25 C128.979,182.938 128.701,184.512 128.37,185.75 C127.883,187.565 128.176,188 129.883,188 C131.622,188 132,188.605 132,191.383 C132,193.926 132.497,194.897 134,195.29 C135.1,195.577 136,196.53 136,197.406 C136,198.746 137.432,199 145,199 C152.333,199 154,198.722 154,197.5 C154,196.675 154.625,196 155.389,196 C156.177,196 157.054,194.527 157.416,192.597 C157.767,190.725 158.717,188.939 159.527,188.628 C160.631,188.204 161,186.301 161,181.031 L161,174 L148.5,174 C137.729,174 136,174.22 136,175.594 Z"/>
</svg>

