<svg xmlns="http://www.w3.org/2000/svg" width="300" height="300" viewBox="0 0 300 300" version="1.1">
  <defs/>
  <path d="M160,89.421 C160,88.43 161.211,88 164,88 C167.905,88 168,88.083 168,91.5 C168,94.333 168.381,95 170,95 C171.1,95 172,95.625 172,96.389 C172,97.184 173.495,98.058 175.5,98.434 C177.595,98.827 179,99.675 179,100.545 C179,101.345 179.9,102 181,102 C182.1,102 183,102.655 183,103.455 C183,104.325 184.405,105.173 186.5,105.566 C188.505,105.942 190,106.816 190,107.611 C190,108.497 191.121,109 193.094,109 C195.346,109 196.329,109.544 196.71,111 C197.103,112.503 198.074,113 200.617,113 C202.837,113 204,113.477 204,114.389 C204,115.184 205.495,116.058 207.5,116.434 C209.595,116.827 211,117.675 211,118.545 C211,119.71 212.791,120 220,120 C227.333,120 229,120.278 229,121.5 C229,122.333 229.889,123 231,123 C232.678,123 233,123.667 233,127.134 L233,131.269 L225.887,130.76 C221.974,130.48 218.451,129.73 218.058,129.094 C217.638,128.414 213.15,127.682 207.172,127.318 C197.237,126.712 197,126.748 197,128.849 C197,130.333 196.38,131 195,131 C193.242,131 193,131.667 193,136.5 C193,140.722 192.652,142 191.5,142 C190.452,142 190,143.056 190,145.5 C190,148.333 189.619,149 188,149 C186.381,149 186,149.667 186,152.5 C186,154.896 185.541,156 184.545,156 C183.675,156 182.827,157.405 182.434,159.5 C182.073,161.425 181.203,163 180.5,163 C179.797,163 178.927,164.575 178.566,166.5 C178.173,168.595 177.325,170 176.455,170 C175.655,170 175,170.9 175,172 C175,173.1 174.375,174 173.611,174 C172.816,174 171.942,175.495 171.566,177.5 C171.173,179.595 170.325,181 169.455,181 C168.655,181 168,181.9 168,183 C168,184.1 167.375,185 166.611,185 C165.816,185 164.942,186.495 164.566,188.5 C164.203,190.437 163.31,192 162.566,192 C161.822,192 160.929,193.563 160.566,195.5 C160.205,197.425 159.48,199 158.955,199 C158.43,199 158,199.623 158,200.383 C158,201.899 160.968,202.965 165.25,202.986 C166.923,202.995 168,203.544 168,204.389 C168,205.184 169.495,206.058 171.5,206.434 C173.595,206.827 175,207.675 175,208.545 C175,209.532 176.089,210 178.383,210 C180.926,210 181.897,210.497 182.29,212 C182.671,213.456 183.654,214 185.906,214 C187.99,214 189,214.49 189,215.5 C189,216.583 190.111,217 193,217 C195.834,217 197,217.424 197,218.455 C197,219.325 198.405,220.173 200.5,220.566 C202.505,220.942 204,221.816 204,222.611 C204,223.509 205.15,224.005 207.25,224.014 C212,224.034 215,225.041 215,226.617 C215,227.663 216.707,228 222,228 C227.556,228 229,228.31 229,229.5 C229,230.412 229.931,231 231.375,231 C235.88,231 240,232.254 240,233.625 C240,234.612 241.438,235 245.094,235 C249.346,235 250.274,235.33 250.71,237 C250.998,238.1 251.856,239 252.617,239 C253.377,239 254,239.675 254,240.5 C254,241.633 252.778,242 249,242 C245.222,242 244,241.633 244,240.5 C244,239.279 242.346,239 235.117,239 C227.074,239 226.184,238.811 225.71,237 C225.249,235.237 224.346,235 218.094,235 C212.455,235 211,234.692 211,233.5 C211,232.588 210.069,232 208.625,232 C204.12,232 200,230.746 200,229.375 C200,228.396 198.593,228 195.117,228 C191.074,228 190.143,227.656 189.71,226 C189.329,224.544 188.346,224 186.094,224 C184.01,224 183,223.51 183,222.5 C183,221.565 182.054,221 180.49,221 C179.11,221 177.21,220.1 176.268,219 C174.999,217.518 173.318,217 169.778,217 C166.198,217 165,216.624 165,215.5 C165,214.644 164.101,214 162.906,214 C161.654,214 160.603,213.197 160.29,212 C159.836,210.263 158.926,210 153.383,210 C148.209,210 147,210.302 147,211.594 C147,212.47 146.1,213.423 145,213.71 C143.9,213.998 143,214.756 143,215.394 C143,216.033 142.1,217.326 141,218.268 C139.9,219.21 139,220.885 139,221.99 C139,223.162 138.336,224 137.406,224 C136.53,224 135.577,224.9 135.29,226 C135.002,227.1 134.144,228 133.383,228 C132.623,228 132,228.9 132,230 C132,231.333 131.333,232 130,232 C128.889,232 128,232.667 128,233.5 C128,234.325 127.325,235 126.5,235 C125.667,235 125,235.889 125,237 C125,238.333 124.333,239 123,239 C121.9,239 121,239.655 121,240.455 C121,241.325 119.595,242.173 117.5,242.566 C114.459,243.136 114,243.602 114,246.111 C114,248.088 113.497,249 112.406,249 C111.53,249 110.577,249.9 110.29,251 C109.897,252.503 108.926,253 106.383,253 C103.667,253 103,253.394 103,255 C103,256.73 102.333,257 98.059,257 C92.573,257 91.646,256.259 92.563,252.605 C92.99,250.905 94.107,249.916 96.094,249.479 C97.692,249.128 99,248.202 99,247.421 C99,246.572 100.007,246 101.5,246 C103.056,246 104,245.433 104,244.5 C104,243.675 104.675,243 105.5,243 C106.333,243 107,242.111 107,241 C107,239.667 107.667,239 109,239 C110.1,239 111,238.361 111,237.579 C111,236.798 112.304,235.872 113.898,235.522 C115.584,235.152 117.009,234.073 117.305,232.943 C117.584,231.874 118.53,231 119.406,231 C120.283,231 121,230.325 121,229.5 C121,228.675 121.623,228 122.383,228 C123.144,228 124.002,227.1 124.29,226 C124.577,224.9 125.494,224 126.327,224 C127.196,224 128.122,222.722 128.5,221 C128.862,219.35 129.798,218 130.579,218 C131.361,218 132,217.152 132,216.117 C132,215.074 132.893,214 134,213.71 C135.1,213.423 136,212.47 136,211.594 C136,210.717 136.675,210 137.5,210 C138.333,210 139,209.111 139,208 C139,206.667 139.667,206 141,206 C142.554,206 143,205.333 143,203.012 C143,200.299 142.632,199.965 139,199.384 C136.587,198.998 135,198.2 135,197.372 C135,196.617 134.325,196 133.5,196 C132.667,196 132,195.111 132,194 C132,192.667 131.333,192 130,192 C128.9,192 128,191.345 128,190.545 C128,189.675 126.595,188.827 124.5,188.434 C121.475,187.866 121,187.392 121,184.934 C121,182.476 120.525,182.002 117.5,181.434 C114.967,180.959 114,180.255 114,178.889 C114,177.85 113.325,177 112.5,177 C111.675,177 111,176.325 111,175.5 C111,174.667 110.111,174 109,174 C107.381,174 107,173.333 107,170.5 C107,167.667 106.619,167 105,167 C103.667,167 103,166.333 103,165 C103,163.889 102.333,163 101.5,163 C100.675,163 100,162.325 100,161.5 C100,160.667 99.111,160 98,160 C96.333,160 96,159.333 96,156 C96,152.667 96.333,152 98,152 C99.111,152 100,151.333 100,150.5 C100,149.675 100.675,149 101.5,149 C102.325,149 103,149.675 103,150.5 C103,151.333 103.889,152 105,152 C106.333,152 107,152.667 107,154 C107,155.1 107.623,156 108.383,156 C109.144,156 110.002,156.9 110.29,158 C110.577,159.1 111.53,160 112.406,160 C113.283,160 114,160.675 114,161.5 C114,162.325 114.623,163 115.383,163 C116.144,163 117.002,163.9 117.29,165 C117.577,166.1 118.53,167 119.406,167 C120.283,167 121,167.689 121,168.531 C121,169.374 121.675,170.322 122.5,170.638 C123.325,170.955 124,171.841 124,172.607 C124,173.373 124.85,174 125.889,174 C127.255,174 127.959,174.967 128.434,177.5 C128.827,179.595 129.675,181 130.545,181 C131.345,181 132,181.623 132,182.383 C132,183.144 132.9,184.002 134,184.29 C135.1,184.577 136,185.53 136,186.406 C136,187.521 136.93,188 139.094,188 C141.346,188 142.329,188.544 142.71,190 C142.998,191.1 143.856,192 144.617,192 C145.377,192 146,192.675 146,193.5 C146,194.333 146.889,195 148,195 C149.111,195 150,194.333 150,193.5 C150,192.667 150.889,192 152,192 C153.333,192 154,191.333 154,190 C154,188.889 154.667,188 155.5,188 C156.51,188 157,186.99 157,184.906 C157,182.654 157.544,181.671 159,181.29 C160.107,181 161,179.926 161,178.883 C161,177.848 161.675,177 162.5,177 C163.51,177 164,175.99 164,173.906 C164,171.654 164.544,170.671 166,170.29 C167.503,169.897 168,168.926 168,166.383 C168,164.089 168.468,163 169.455,163 C170.325,163 171.173,161.595 171.566,159.5 C171.942,157.495 172.816,156 173.611,156 C174.375,156 175,155.1 175,154 C175,152.9 175.655,152 176.455,152 C177.325,152 178.173,150.595 178.566,148.5 C178.942,146.495 179.816,145 180.611,145 C181.456,145 182.005,143.923 182.014,142.25 C182.035,137.968 183.101,135 184.617,135 C185.641,135 186,133.442 186,129 C186,124.333 186.333,123 187.5,123 C188.325,123 189,122.325 189,121.5 C189,120.675 188.325,120 187.5,120 C186.667,120 186,119.111 186,118 C186,116.381 185.333,116 182.5,116 C180.18,116 179,115.532 179,114.611 C179,113.816 177.505,112.942 175.5,112.566 C173.405,112.173 172,111.325 172,110.455 C172,109.655 171.1,109 170,109 C168.9,109 168,108.375 168,107.611 C168,106.816 166.505,105.942 164.5,105.566 C162.405,105.173 161,104.325 161,103.455 C161,102.655 160.1,102 159,102 C157.333,102 157,101.333 157,98 C157,95.111 156.583,94 155.5,94 C152.822,94 153.916,92.177 157,91.5 C158.65,91.138 160,90.202 160,89.421 Z M103,42.5 C103,41.675 103.675,41 104.5,41 C105.325,41 106,41.617 106,42.372 C106,43.2 107.587,43.998 110,44.384 C113.592,44.958 114,45.317 114,47.901 C114,50.385 114.467,50.865 117.428,51.42 C120.168,51.935 120.982,52.641 121.489,54.948 C121.837,56.535 122.77,58.081 123.561,58.385 C124.352,58.689 125,59.851 125,60.969 C125,62.108 125.659,63 126.5,63 C127.466,63 128.005,63.978 128.014,65.75 C128.035,70.032 129.101,73 130.617,73 C131.377,73 132,72.392 132,71.648 C132,70.155 142.447,69.017 156.25,69.006 C162.47,69.001 164,68.704 164,67.5 C164,66.278 165.667,66 173,66 C179.97,66 182,65.69 182,64.625 C182,62.94 186.342,62 194.125,62 C198.681,62 200,61.663 200,60.5 C200,59.667 200.889,59 202,59 C203.111,59 204,59.667 204,60.5 C204,61.325 204.648,62 205.441,62 C206.234,62 207.147,62.429 207.472,62.954 C208.437,64.516 206.895,69 205.392,69 C204.626,69 204,69.9 204,71 C204,72.163 203.333,73 202.406,73 C201.53,73 200.577,73.9 200.29,75 C200.002,76.1 199.144,77 198.383,77 C197.623,77 197,77.629 197,78.399 C197,79.396 194.995,79.998 190,80.5 C185.005,81.002 183,81.604 183,82.601 C183,83.524 181.848,84 179.617,84 C177.074,84 176.103,84.497 175.71,86 C175.178,88.037 172.569,88.73 171.563,87.103 C171.258,86.609 171.288,84.809 171.629,83.103 C172.176,80.368 172.65,80 175.625,80 C177.838,80 179,79.522 179,78.611 C179,77.816 180.495,76.942 182.5,76.566 C184.756,76.143 186,75.345 186,74.32 C186,72.969 184.934,72.808 178.887,73.24 C174.396,73.562 171.46,74.256 170.923,75.125 C170.34,76.068 167.39,76.611 161.537,76.853 C155.062,77.12 153,77.543 153,78.603 C153,79.713 150.77,80 142.125,80 C129.539,80 125,80.696 125,82.625 C125,83.734 121.909,84 109,84 C95.444,84 93,84.229 93,85.5 C93,86.662 91.684,87 87.154,87 C74.45,87 63,88.256 63,89.65 C63,90.655 61.211,91 56,91 C50.444,91 49,90.69 49,89.5 C49,88.675 48.325,88 47.5,88 C46.462,88 46,86.957 46,84.617 C46,80.923 47.486,80.04 53.75,80.014 C55.966,80.004 57,79.523 57,78.5 C57,77.212 60.097,77 78.875,77 C102.219,77 107,76.554 107,74.375 C107,73.339 108.727,73 114,73 C120.333,73 121,72.81 121,71 C121,69.9 120.361,69 119.579,69 C118.798,69 117.862,67.65 117.5,66 C117.138,64.35 116.202,63 115.421,63 C114.639,63 114,62.1 114,61 C114,59.381 113.333,59 110.5,59 C107.667,59 107,58.619 107,57 C107,55.393 106.333,55 103.608,55 C100.861,55 100.102,54.543 99.614,52.598 C98.765,49.216 99.985,44 101.625,44 C102.381,44 103,43.325 103,42.5 Z M132,86 C132,84.381 132.667,84 135.5,84 C138.036,84 139,84.439 139,85.594 C139,86.47 139.9,87.423 141,87.71 C142.157,88.013 143,89.074 143,90.228 C143,91.966 143.45,92.138 146.5,91.566 C149.559,90.992 150,91.163 150,92.925 C150,94.567 149.398,94.908 146.75,94.768 C138.375,94.325 132,95.023 132,96.383 C132,97.144 131.1,98.002 130,98.29 C128.9,98.577 128,99.53 128,100.406 C128,101.283 127.377,102 126.617,102 C125.856,102 124.998,102.9 124.71,104 C124.423,105.1 123.47,106 122.594,106 C121.504,106 121,106.912 121,108.883 C121,110.926 120.417,111.919 119,112.29 C117.9,112.577 117,113.53 117,114.406 C117,115.283 116.325,116 115.5,116 C114.667,116 114,116.889 114,118 C114,119.1 113.377,120 112.617,120 C111.856,120 110.998,120.9 110.71,122 C110.423,123.1 109.47,124 108.594,124 C107.717,124 107,124.575 107,125.278 C107,125.981 106.1,127.326 105,128.268 C103.9,129.21 103,130.832 103,131.874 C103,132.926 102.112,133.999 101,134.29 C99.9,134.577 99,135.53 99,136.406 C99,137.497 98.088,138 96.111,138 C93.602,138 93.136,138.459 92.566,141.5 C92.204,143.429 91.309,145 90.571,145 C89.835,145 88.998,145.9 88.71,147 C88.335,148.435 87.346,149 85.21,149 C83.074,149 82.086,149.565 81.71,151 C81.423,152.1 80.47,153 79.594,153 C78.504,153 78,153.912 78,155.883 C78,159.029 76.238,159.961 70.25,159.986 C67.123,159.999 67,159.849 67,156 C67,152.667 67.333,152 69,152 C70.111,152 71,151.333 71,150.5 C71,149.675 71.675,149 72.5,149 C73.325,149 74,148.283 74,147.406 C74,146.53 74.9,145.577 76,145.29 C77.1,145.002 78,144.144 78,143.383 C78,142.623 78.717,142 79.594,142 C80.47,142 81.423,141.1 81.71,140 C81.998,138.9 82.856,138 83.617,138 C84.377,138 85,137.283 85,136.406 C85,135.53 85.9,134.577 87,134.29 C88.1,134.002 89,133.144 89,132.383 C89,131.623 89.675,131 90.5,131 C91.325,131 92,130.283 92,129.406 C92,128.53 92.9,127.577 94,127.29 C95.1,127.002 96,126.144 96,125.383 C96,124.623 96.717,124 97.594,124 C98.47,124 99.423,123.1 99.71,122 C99.998,120.9 100.856,120 101.617,120 C102.377,120 103,119.1 103,118 C103,116.9 103.655,116 104.455,116 C105.325,116 106.173,114.595 106.566,112.5 C106.942,110.495 107.816,109 108.611,109 C109.375,109 110,108.325 110,107.5 C110,106.667 110.889,106 112,106 C113.619,106 114,105.333 114,102.5 C114,99.964 114.439,99 115.594,99 C116.47,99 117.423,98.1 117.71,97 C117.998,95.9 118.856,95 119.617,95 C120.377,95 121,94.1 121,93 C121,91.381 121.667,91 124.5,91 C126.944,91 128,90.548 128,89.5 C128,88.667 128.889,88 130,88 C131.333,88 132,87.333 132,86 Z"/>
</svg>

