<svg xmlns="http://www.w3.org/2000/svg" width="300" height="300" viewBox="0 0 300 300" version="1.1">
  <defs/>
  <path d="M139.63,68.25 C140.079,66.576 140.972,66 143.117,66 C145.088,66 146,66.504 146,67.594 C146,68.47 146.9,69.423 148,69.71 C149.883,70.203 150,71.074 150,84.617 C150,96.735 149.764,99 148.5,99 C147.321,99 147,100.389 147,105.5 L147,112 L150.417,112 C152.296,112 154.02,111.439 154.249,110.753 C154.525,109.924 157.569,109.387 163.332,109.151 C169.918,108.88 172,108.459 172,107.397 C172,106.467 173.17,106 175.5,106 L179,106 L179,98.5 C179,92.5 179.3,91 180.5,91 C181.325,91 182,90.325 182,89.5 C182,88.667 182.889,88 184,88 C185.111,88 186,88.667 186,89.5 C186,90.333 186.889,91 188,91 C189.619,91 190,91.667 190,94.5 C190,96.82 190.468,98 191.389,98 C192.184,98 193.058,99.495 193.434,101.5 C193.827,103.595 194.675,105 195.545,105 C196.43,105 197,105.979 197,107.5 C197,108.993 197.572,110 198.42,110 C199.431,110 200.042,111.877 200.537,116.5 C201.022,121.032 201.652,123 202.616,123 C203.377,123 204,123.9 204,125 C204,126.163 203.333,127 202.406,127 C201.53,127 200.577,127.9 200.29,129 C199.857,130.656 198.926,131 194.883,131 C190.667,131 190,130.727 190,129 C190,127.667 189.333,127 188,127 C184.575,127 185.769,124.266 189.5,123.566 C192.879,122.932 194.615,120 191.611,120 C190.825,120 189.947,118.531 189.587,116.61 C189.154,114.304 188.272,113.043 186.827,112.665 C183.792,111.871 179,113.019 179,114.54 C179,115.415 176.593,116.055 171.5,116.532 C166.122,117.036 164,117.626 164,118.617 C164,119.663 162.291,120 157,120 L150,120 L150,139.5 C150,156.167 149.782,159 148.5,159 C147.281,159 146.999,160.64 146.997,167.75 C146.996,172.563 146.699,184.938 146.339,195.25 C145.826,209.943 145.393,214 144.342,214 C143.604,214 143,214.675 143,215.5 C143,216.333 142.111,217 141,217 C139.667,217 139,217.667 139,219 C139,220.593 139.662,220.997 142.25,220.986 C147,220.966 150,219.959 150,218.383 C150,217.373 151.484,217 155.5,217 C159.722,217 161,216.652 161,215.5 C161,214.534 161.978,213.995 163.75,213.986 C168.032,213.965 171,212.899 171,211.383 C171,210.574 172.038,210 173.5,210 C174.993,210 176,209.428 176,208.579 C176,207.798 177.35,206.862 179,206.5 C180.65,206.138 182,205.202 182,204.421 C182,203.473 183.127,203 185.383,203 C187.926,203 188.897,202.503 189.29,201 C189.577,199.9 190.53,199 191.406,199 C192.671,199 193,197.866 193,193.5 C193,189.528 192.622,188 191.639,188 C190.12,188 188.747,179.683 189.678,176.122 C190.157,174.291 190.971,174 195.617,174 L201,174 L201,177.5 C201,179.944 201.452,181 202.5,181 C203.333,181 204,181.889 204,183 C204,184.1 204.623,185 205.383,185 C206.899,185 207.965,187.968 207.986,192.25 C207.995,194.022 208.534,195 209.5,195 C210.325,195 211,195.848 211,196.883 C211,197.926 211.893,199 213,199.29 C214.456,199.671 215,200.654 215,202.906 C215,205.07 215.479,206 216.594,206 C217.47,206 218.423,206.9 218.71,208 C218.998,209.1 219.856,210 220.617,210 C221.522,210 222,211.17 222,213.389 C222,216.456 222.325,216.838 225.428,217.42 C228.196,217.94 228.98,218.634 229.507,221.032 C229.866,222.664 230.573,224 231.079,224 C231.586,224 232,224.9 232,226 C232,227.111 231.333,228 230.5,228 C229.675,228 229,228.675 229,229.5 C229,230.325 228.283,231 227.406,231 C226.53,231 225.577,231.9 225.29,233 C224.386,236.456 222,235.368 222,231.5 C222,228.667 221.619,228 220,228 C218.667,228 218,227.333 218,226 C218,224.889 217.333,224 216.5,224 C215.49,224 215,222.99 215,220.906 C215,218.654 214.456,217.671 213,217.29 C211.9,217.002 211,216.144 211,215.383 C211,214.623 210.325,214 209.5,214 C208.667,214 208,213.111 208,212 C208,210.667 207.333,210 206,210 C204.381,210 204,209.333 204,206.5 C204,203.167 203.833,203 200.5,203 C198.056,203 197,203.452 197,204.5 C197,205.325 196.283,206 195.406,206 C194.53,206 193.577,206.9 193.29,208 C193,209.107 191.926,210 190.883,210 C189.848,210 189,210.655 189,211.455 C189,212.325 187.595,213.173 185.5,213.566 C183.495,213.942 182,214.816 182,215.611 C182,216.497 180.879,217 178.906,217 C176.654,217 175.671,217.544 175.29,219 C174.897,220.503 173.926,221 171.383,221 C169.043,221 168,221.462 168,222.5 C168,223.412 167.069,224 165.625,224 C161.12,224 157,225.254 157,226.625 C157,227.608 155.576,228 152,228 C148.424,228 147,228.392 147,229.375 C147,231.06 142.658,232 134.875,232 C130.319,232 129,232.337 129,233.5 C129,234.788 125.889,235 107,235 C88.111,235 85,234.788 85,233.5 C85,232.312 83.569,232 78.117,232 C71.403,232 71.22,231.932 70.7,229.25 C69.846,224.839 71.086,217 72.639,217 C73.454,217 74.005,215.896 74.014,214.25 C74.035,209.968 75.101,207 76.617,207 C77.564,207 78,205.739 78,203 C78,200.166 78.424,199 79.455,199 C80.325,199 81.173,197.595 81.566,195.5 C81.942,193.495 82.816,192 83.611,192 C84.628,192 85,190.526 85,186.5 C85,182.354 85.358,181 86.455,181 C87.325,181 88.173,179.595 88.566,177.5 C88.927,175.575 89.797,174 90.5,174 C91.203,174 92.073,172.425 92.434,170.5 C92.827,168.405 93.675,167 94.545,167 C95.345,167 96,166.1 96,165 C96,163.9 96.623,163 97.383,163 C98.144,163 99.002,162.1 99.29,161 C99.702,159.424 100.654,159 103.781,159 C105.964,159 109.156,159.281 110.875,159.625 C113.634,160.177 114,160.645 114,163.625 C114,166.333 114.395,167 116,167 C117.111,167 118,167.667 118,168.5 C118,169.325 118.675,170 119.5,170 C120.583,170 121,171.111 121,174 C121,179.129 118.503,179.493 117.566,174.5 C117.173,172.405 116.325,171 115.455,171 C114.655,171 114,170.1 114,169 C114,167.242 113.333,167 108.5,167 C103.667,167 103,167.242 103,169 C103,170.1 102.345,171 101.545,171 C100.675,171 99.827,172.405 99.434,174.5 C99.058,176.505 98.184,178 97.389,178 C96.468,178 96,179.18 96,181.5 C96,183.803 95.53,185 94.625,185 C93.254,185 92,189.12 92,193.625 C92,195.069 91.412,196 90.5,196 C89.452,196 89,197.056 89,199.5 C89,201.813 88.531,203 87.617,203 C86.101,203 85.035,205.968 85.014,210.25 C85.005,212.022 84.466,213 83.5,213 C82.417,213 82,214.111 82,217 C82,219.889 82.417,221 83.5,221 C84.325,221 85,221.675 85,222.5 C85,223.684 86.423,224.003 91.75,224.014 C99.848,224.03 103,224.759 103,226.617 C103,227.564 104.261,228 107,228 C109.707,228 111,227.56 111,226.639 C111,225.042 117.881,224.022 128.75,224.009 L136,224 L136,220.5 C136,217.667 135.619,217 134,217 C132.381,217 132,216.333 132,213.5 C132,210.667 131.619,210 130,210 C128.333,210 128,209.333 128,206 C128,203.111 127.583,202 126.5,202 C125.367,202 125,200.778 125,197 C125,190.995 127.393,189.95 128.434,195.5 C128.827,197.595 129.675,199 130.545,199 C131.541,199 132,200.104 132,202.5 C132,204.813 132.469,206 133.383,206 C135.21,206 135.97,202.865 135.986,195.25 C135.997,190.367 136.328,189 137.5,189 C138.801,189 139,184.941 139,158.469 C139,132.252 139.212,127.856 140.5,127.362 C141.325,127.045 142,126.159 142,125.393 C142,124.388 140.607,124 137,124 C133.222,124 132,124.367 132,125.5 C132,126.663 130.681,127 126.125,127 C118.342,127 114,127.94 114,129.625 C114,130.708 111.667,131 103,131 C93.889,131 92,131.258 92,132.5 C92,133.621 90.799,134.003 87.25,134.014 C84.638,134.021 81.487,134.299 80.25,134.63 C78.112,135.203 78,134.953 78,129.617 C78,125.491 78.369,124 79.389,124 C80.184,124 81.058,122.505 81.434,120.5 C81.827,118.405 82.675,117 83.545,117 C84.576,117 85,115.834 85,113 C85,110.261 85.436,109 86.383,109 C87.959,109 88.966,106 88.986,101.25 C88.996,99.034 89.477,98 90.5,98 C91.711,98 92.003,96.411 92.014,89.75 C92.032,78.574 92.539,77 96.117,77 C98.088,77 99,77.504 99,78.594 C99,79.47 99.9,80.423 101,80.71 C102.737,81.164 103,82.074 103,87.617 C103,92.36 102.647,94 101.628,94 C100.8,94 100.002,95.587 99.616,98 C99.202,100.588 98.451,102 97.488,102 C96.351,102 96,103.297 96,107.5 C96,111.516 95.627,113 94.617,113 C93.331,113 92.045,115.84 92.014,118.75 C92.006,119.438 92.9,120 94,120 C95.111,120 96,120.667 96,121.5 C96,122.325 96.675,123 97.5,123 C98.325,123 99,122.325 99,121.5 C99,120.247 101.043,120 111.383,120 C122.926,120 123.802,119.864 124.29,118 C124.734,116.301 125.654,116 130.406,116 C134.712,116 136,115.655 136,114.5 C136,113.675 136.675,113 137.5,113 C138.786,113 139.002,109.966 139.014,91.75 C139.021,80.063 139.299,69.487 139.63,68.25 Z M153.826,68.25 C154.153,66.44 154.895,66 157.617,66 C160.794,66 161,66.206 161,69.383 C161,71.926 160.503,72.897 159,73.29 C157.255,73.746 157,74.654 157,80.406 C157,85.378 156.657,87 155.606,87 C154.558,87 154.113,84.948 153.815,78.75 C153.597,74.213 153.602,69.487 153.826,68.25 Z"/>
</svg>

