<svg xmlns="http://www.w3.org/2000/svg" width="300" height="300" viewBox="0 0 300 300" version="1.1">
  <defs/>
  <path d="M159.25,98.689 C160.488,98.442 167.012,98.263 173.75,98.291 C184.931,98.339 186,98.503 186,100.172 C186,101.721 186.839,102 191.5,102 L197,102 L197,107.5 C197,112.333 196.758,113 195,113 C193.381,113 193,113.667 193,116.5 C193,118.944 192.548,120 191.5,120 C190.667,120 190,120.889 190,122 C190,123.333 189.333,124 188,124 C186.667,124 186,124.667 186,126 C186,127.111 185.333,128 184.5,128 C183.675,128 183,128.675 183,129.5 C183,130.333 182.111,131 181,131 C179.667,131 179,131.667 179,133 C179,134.111 178.333,135 177.5,135 C176.675,135 176,135.675 176,136.5 C176,137.716 177.611,138 184.5,138 L193,138 L193,143.5 C193,148.333 192.758,149 191,149 C189.889,149 189,149.667 189,150.5 C189,151.548 187.944,152 185.5,152 C183.056,152 182,151.548 182,150.5 C182,149.367 180.778,149 177,149 C173.222,149 172,149.367 172,150.5 C172,151.548 170.944,152 168.5,152 C166.056,152 165,151.548 165,150.5 C165,149.667 164.111,149 163,149 C161.667,149 161,149.667 161,151 C161,152.333 160.333,153 159,153 C157.042,153 157,153.667 157,185 C157,212.778 156.802,217 155.5,217 C154.226,217 154,219.542 154,233.875 C154,252.31 153.468,257 151.375,257 C150.619,257 150,257.647 150,258.439 C150,259.377 148.435,260.112 145.5,260.552 C139.438,261.461 132,260.297 132,258.439 C132,257.647 131.377,257 130.617,257 C129.856,257 128.998,256.1 128.71,255 C128.423,253.9 127.52,253 126.705,253 C125.803,253 124.966,251.631 124.566,249.5 C124.173,247.405 123.325,246 122.455,246 C121.459,246 121,244.896 121,242.5 C121,240.056 120.548,239 119.5,239 C118.452,239 118,237.944 118,235.5 C118,233.056 118.452,232 119.5,232 C120.325,232 121,232.623 121,233.383 C121,234.144 121.9,235.002 123,235.29 C124.532,235.69 125,236.654 125,239.406 C125,241.934 125.445,243 126.5,243 C127.325,243 128,243.675 128,244.5 C128,245.333 128.889,246 130,246 C131.333,246 132,246.667 132,248 C132,249.758 132.667,250 137.5,250 C142.333,250 143,249.758 143,248 C143,246.9 143.622,246 144.382,246 C145.529,246 145.841,238.74 146.217,203.25 C146.467,179.738 146.379,160.157 146.023,159.738 C144.98,158.51 139,160.118 139,161.625 C139,162.597 137.607,163.004 134.25,163.014 C128.077,163.031 125,163.897 125,165.617 C125,166.627 123.516,167 119.5,167 L114,167 L114,170.5 C114,173.333 113.619,174 112,174 C110.889,174 110,174.667 110,175.5 Q110,177 107,177 Q104,177 104,175.5 C104,174.675 103.152,174 102.117,174 C101.074,174 100,173.107 99.71,172 C99.423,170.9 98.47,170 97.594,170 C96.717,170 96,169.325 96,168.5 C96,167.675 95.325,167 94.5,167 C93.667,167 93,166.111 93,165 C93,163.889 93.667,163 94.5,163 C95.69,163 96,161.556 96,156 C96,150.763 95.657,149 94.639,149 C93.018,149 92.021,142.088 92.009,130.75 C92.002,124.532 91.704,123 90.5,123 C89.367,123 89,121.778 89,118 C89,114.222 89.367,113 90.5,113 C91.333,113 92,112.111 92,111 C92,109.667 92.667,109 94,109 C95.111,109 96,108.333 96,107.5 C96,106.667 96.889,106 98,106 C99.111,106 100,106.667 100,107.5 C100,108.69 101.444,109 107,109 C112.237,109 114,108.657 114,107.639 C114,106.15 120.745,105.024 129.75,105.009 C133.746,105.002 135,104.642 135,103.5 C135,102.258 136.889,102 146,102 C154.873,102 157,101.723 157,100.57 C157,99.783 158.012,98.937 159.25,98.689 Z M149,109.726 C148.175,110.038 147.14,110.902 146.7,111.647 C146.123,112.624 143.415,113 136.95,113 C129.661,113 128,113.278 128,114.5 C128,115.574 126.904,116 124.14,116 C117.007,116 111,117.205 111,118.636 C111,119.424 109.945,120 108.5,120 C107.01,120 106,120.572 106,121.417 C106,122.196 105.492,123.003 104.871,123.21 C104.136,123.455 103.564,128.547 103.231,137.793 L102.72,152 L108.36,152 C112.707,152 114,151.656 114,150.5 C114,149.312 115.431,149 120.883,149 C126.926,149 127.831,148.756 128.29,147 C128.734,145.301 129.654,145 134.406,145 C138.712,145 140,144.655 140,143.5 C140,142.367 141.222,142 145,142 C149.333,142 150,141.733 150,140 C150,138.178 150.667,138 157.5,138 C163.5,138 165,137.7 165,136.5 C165,135.675 165.675,135 166.5,135 C167.333,135 168,134.111 168,133 C168,131.667 168.667,131 170,131 C171.1,131 172,130.361 172,129.579 C172,128.798 173.336,127.866 174.968,127.507 C177.366,126.98 178.06,126.196 178.58,123.428 C178.933,121.542 179.795,120 180.495,120 C181.194,120 182.002,119.1 182.29,118 C182.577,116.9 183.53,116 184.406,116 C185.561,116 186,115.036 186,112.5 L186,109 L168.25,109.079 C158.488,109.122 149.825,109.413 149,109.726 Z M150,67.5 C150,66.229 152.444,66 166,66 C179.556,66 182,66.229 182,67.5 C182,68.333 182.889,69 184,69 C185.778,69 186,69.667 186,75 C186,79.584 185.657,81 184.545,81 C183.675,81 182.827,82.405 182.434,84.5 C182.058,86.505 181.184,88 180.389,88 C179.625,88 178.992,88.563 178.983,89.25 C178.973,89.938 177.848,91.56 176.481,92.856 C173.778,95.42 170.356,95.12 171.396,92.41 C171.728,91.544 172,90.198 172,89.418 C172,88.638 172.675,88 173.5,88 C174.55,88 175,86.941 175,84.469 C175,82.252 175.559,80.723 176.5,80.362 C178.922,79.432 178.224,77.273 175.26,76.529 C173.753,76.151 172.291,75.484 172.01,75.046 C171.73,74.609 170.007,73.927 168.181,73.531 C165.334,72.913 164.784,73.109 164.314,74.905 C163.81,76.833 163.059,77 154.883,77 C147.654,77 146,77.279 146,78.5 C146,79.725 144.303,80.001 136.75,80.006 C121.556,80.016 111,81.099 111,82.648 C111,83.689 108.815,84 101.5,84 C94.029,84 92,84.299 92,85.399 C92,86.396 89.995,86.998 85,87.5 C80.239,87.978 78,88.624 78,89.518 C78,90.514 75.034,90.914 65.75,91.17 C49.304,91.623 49,91.554 49,87.383 C49,84.206 49.206,84 52.383,84 C54.926,84 55.897,83.503 56.29,82 C56.726,80.33 57.654,80 61.906,80 C65.767,80 67,79.637 67,78.5 C67,77.241 69.153,77 80.375,77 C95.39,77 100,76.383 100,74.375 C100,73.31 102.03,73 109,73 C115.882,73 118,72.683 118,71.652 C118,70.31 131.166,69 144.656,69 C148.74,69 150,68.646 150,67.5 Z M164.63,201.25 C165.207,199.1 165.694,199 175.617,199 C185.333,199 186,199.128 186,201 C186,202.758 186.667,203 191.5,203 C195.722,203 197,203.348 197,204.5 C197,205.548 198.056,206 200.5,206 C203.333,206 204,206.381 204,208 C204,209.81 204.667,210 211,210 C216.362,210 218,210.33 218,211.412 C218,212.28 219.541,213.085 222,213.5 C224.459,213.915 226,214.72 226,215.588 C226,216.614 227.354,217 230.95,217 C234.565,217 236.157,217.458 236.85,218.696 C237.549,219.945 239.538,220.503 244.4,220.813 L251,221.233 L251,228 L240,228 C231.004,228 229,227.733 229,226.534 C229,225.531 227.424,224.86 224,224.406 C220.754,223.975 219,223.261 219,222.371 C219,221.494 217.83,220.995 215.75,220.986 C211,220.966 208,219.959 208,218.383 C208,217.373 206.516,217 202.5,217 C198.278,217 197,216.652 197,215.5 C197,214.348 195.722,214 191.5,214 C186.667,214 186,213.758 186,212 C186,210.121 185.333,210 175,210 L164,210 L164.014,206.75 C164.021,204.963 164.299,202.488 164.63,201.25 Z M114,183 C114,181.242 114.667,181 119.5,181 L125,181 L125,196.223 L121.381,195.544 C116.501,194.628 110,195.796 110,197.588 C110,198.535 108.848,199 106.5,199 C103.667,199 103,199.381 103,201 C103,202.333 102.333,203 101,203 C99.9,203 99,203.639 99,204.421 C99,205.202 97.65,206.138 96,206.5 C94.35,206.862 93,207.798 93,208.579 C93,209.361 92.1,210 91,210 C89.9,210 89,210.655 89,211.455 C89,212.325 87.595,213.173 85.5,213.566 C83.495,213.942 82,214.816 82,215.611 C82,216.375 81.1,217 80,217 C78.667,217 78,217.667 78,219 C78,220.333 77.333,221 76,221 C74.667,221 74,221.667 74,223 C74,224.111 73.333,225 72.5,225 C71.675,225 71,225.675 71,226.5 C71,227.548 69.944,228 67.5,228 C64.167,228 64,227.833 64,224.5 C64,222.056 64.452,221 65.5,221 C66.333,221 67,220.111 67,219 C67,217.667 67.667,217 69,217 C70.111,217 71,216.333 71,215.5 C71,214.675 71.675,214 72.5,214 C73.333,214 74,213.111 74,212 C74,210.381 74.667,210 77.5,210 C80.036,210 81,209.561 81,208.406 C81,207.53 81.9,206.577 83,206.29 C84.1,206.002 85,205.144 85,204.383 C85,203.623 85.9,203 87,203 C88.333,203 89,202.333 89,201 C89,199.381 89.667,199 92.5,199 C95.333,199 96,198.619 96,197 C96,195.667 96.667,195 98,195 C99.111,195 100,194.333 100,193.5 C100,192.675 100.675,192 101.5,192 C102.325,192 103,191.377 103,190.617 C103,189.856 103.9,188.998 105,188.71 C106.1,188.423 107,187.47 107,186.594 C107,185.439 107.964,185 110.5,185 C113.333,185 114,184.619 114,183 Z M100,42.594 C100,41.348 101.092,41 105,41 C108.6,41 110,41.389 110,42.389 C110,43.184 111.495,44.058 113.5,44.434 C115.595,44.827 117,45.675 117,46.545 C117,47.345 117.9,48 119,48 C120.852,48 121,48.667 121,57 C121,64.333 120.722,66 119.5,66 C118.667,66 118,66.889 118,68 C118,69.333 117.333,70 116,70 C114.178,70 114,69.333 114,62.5 L114,55 L110.5,55 C108.056,55 107,54.548 107,53.5 C107,52.445 105.934,52 103.406,52 C100.654,52 99.69,51.532 99.29,50 C99.002,48.9 98.144,48 97.383,48 C95.244,48 95.75,45.299 98,44.71 C99.1,44.423 100,43.47 100,42.594 Z M118,157.392 C118,159.179 121.932,160.164 125.902,159.37 C131.329,158.284 129.701,156 123.5,156 C119.468,156 118,156.371 118,157.392 Z"/>
</svg>

