<svg xmlns="http://www.w3.org/2000/svg" width="300" height="300" viewBox="0 0 300 300" version="1.1">
  <defs/>
  <path d="M159,127.729 C159.825,127.415 162.188,127.122 164.25,127.079 L168,127 L168,132.5 C168,137.333 167.758,138 166,138 C164.889,138 164,138.667 164,139.5 C164,140.325 163.383,141 162.628,141 C161.8,141 161.002,142.587 160.616,145 C160.202,147.588 159.451,149 158.488,149 C157.369,149 157,150.24 157,154 C157,157.778 156.633,159 155.5,159 C154.227,159 154,161.5 154,175.5 C154,189.5 154.227,192 155.5,192 C156.652,192 157,193.278 157,197.5 C157,202.333 157.242,203 159,203 C160.81,203 161,203.667 161,210 C161,213.65 161.102,215.541 160.207,216.47 C159.162,217.555 156.758,217.33 151.25,217.061 C146.504,216.829 146,217.006 146,218.902 C146,220.753 145.411,221 141,221 C136.667,221 136,220.733 136,219 C136,217.889 136.667,217 137.5,217 C138.325,217 139,216.325 139,215.5 C139,214.284 137.389,214 130.5,214 C123.611,214 122,214.284 122,215.5 C122,216.739 120.133,217.002 111.25,217.014 C99.253,217.029 96,217.584 96,219.617 C96,220.531 94.813,221 92.5,221 C90.056,221 89,221.452 89,222.5 C89,223.652 87.722,224 83.5,224 C79.474,224 78,223.628 78,222.611 C78,221.816 76.505,220.942 74.5,220.566 C71.06,219.921 69.563,218 72.5,218 C73.356,218 74,217.101 74,215.906 C74,214.654 74.803,213.603 76,213.29 C77.1,213.002 78,212.144 78,211.383 C78,210.269 80.821,210 92.5,210 C104.136,210 107,209.728 107,208.625 C107,206.754 111.489,206 122.625,206 C130.292,206 132,205.727 132,204.5 C132,203.31 133.444,203 139,203 L146,203 L146,192.5 C146,183.833 145.738,182 144.5,182 C143.278,182 143,180.333 143,173 C143,165.667 143.278,164 144.5,164 C145.641,164 146.003,162.744 146.014,158.75 C146.031,152.098 146.858,149 148.617,149 C149.627,149 150,147.516 150,143.5 L150,138 L134,138 C121.264,138 118,138.274 118,139.345 C118,140.833 100.781,142 78.842,142 C68.982,142 67,142.251 67,143.5 C67,144.652 65.722,145 61.5,145 C57.278,145 56,145.348 56,146.5 C56,147.325 55.325,148 54.5,148 C53.667,148 53,148.889 53,150 C53,151.333 52.333,152 51,152 C49.19,152 49,151.333 49,145 L49,138 L56,138 C61.273,138 63,137.661 63,136.625 C63,134.461 67.764,134 90.125,134 C107.568,134 111,133.765 111,132.569 C111,131.379 114.8,131.084 133.538,130.819 C148.5,130.607 156.315,130.13 156.788,129.4 C157.18,128.795 158.175,128.043 159,127.729 Z M193.63,86.25 C194.079,84.576 194.972,84 197.117,84 C199.088,84 200,84.504 200,85.594 C200,86.47 200.9,87.423 202,87.71 C203.503,88.103 204,89.074 204,91.617 C204,94.333 204.394,95 206,95 C207.333,95 208,95.667 208,97 C208,98.111 208.667,99 209.5,99 C210.51,99 211,100.01 211,102.094 C211,104.346 211.544,105.329 213,105.71 C214.503,106.103 215,107.074 215,109.617 C215,112.333 215.394,113 217,113 C218.111,113 219,113.667 219,114.5 C219,115.325 219.675,116 220.5,116 C221.538,116 222,117.043 222,119.383 C222,122.278 221.603,122.844 219.25,123.3 C217.738,123.594 215.262,123.59 213.75,123.292 C211.513,122.851 211,122.213 211,119.875 C211,118.089 210.474,117 209.611,117 C208.816,117 207.942,115.505 207.566,113.5 C207.173,111.405 206.325,110 205.455,110 C204.57,110 204,109.021 204,107.5 C204,106.007 203.428,105 202.579,105 C201.798,105 200.862,103.65 200.5,102 C200.138,100.35 199.202,99 198.421,99 C197.639,99 197,98.1 197,97 C197,95.667 196.333,95 195,95 C193.407,95 193.003,94.338 193.014,91.75 C193.021,89.963 193.299,87.487 193.63,86.25 Z M229,82.5 L229,77 L240,77 L240,84 C240,89.273 240.339,91 241.375,91 C242.746,91 244,95.12 244,99.625 C244,101.069 244.588,102 245.5,102 C246.548,102 247,103.056 247,105.5 C247,108.333 247.381,109 249,109 C250.619,109 251,109.667 251,112.5 C251,115.833 250.833,116 247.5,116 C244.964,116 244,115.561 244,114.406 C244,113.53 243.1,112.577 242,112.29 C240.497,111.897 240,110.926 240,108.383 C240,106.089 239.532,105 238.545,105 C237.675,105 236.827,103.595 236.434,101.5 C236.058,99.495 235.184,98 234.389,98 C233.389,98 233,96.6 233,93 C233,88.667 232.733,88 231,88 C229.242,88 229,87.333 229,82.5 Z"/>
</svg>

