<svg xmlns="http://www.w3.org/2000/svg" width="300" height="300" viewBox="0 0 300 300" version="1.1">
  <defs/>
  <path d="M174,38.5 C174,35.167 174.167,35 177.5,35 C180.833,35 181,35.167 181,38.5 C181,40.944 181.452,42 182.5,42 C184.234,42 184.557,45.648 182.873,46.209 C182.253,46.416 181.521,48.928 181.246,51.792 C180.909,55.297 180.297,57 179.373,57 C178.618,57 178,57.675 178,58.5 C178,59.771 180.444,60 194,60 C209.333,60 210,60.083 210,62 C210,63.111 210.667,64 211.5,64 C212.325,64 213,64.675 213,65.5 C213,66.325 212.325,67 211.5,67 C210.642,67 210,67.9 210,69.103 C210,71.058 209.522,71.189 203.25,70.96 C189.903,70.473 185,70.887 185,72.5 C185,73.325 185.675,74 186.5,74 C187.333,74 188,74.889 188,76 C188,77.333 188.667,78 190,78 C191.333,78 192,78.667 192,80 C192,81.333 192.667,82 194,82 C195.111,82 196,82.667 196,83.5 C196,84.325 196.675,85 197.5,85 C198.333,85 199,85.889 199,87 C199,88.111 199.667,89 200.5,89 C201.325,89 202,89.717 202,90.594 C202,91.47 202.9,92.423 204,92.71 C205.435,93.086 206,94.074 206,96.21 C206,98.346 206.565,99.335 208,99.71 C209.656,100.143 210,101.074 210,105.117 C210,108.791 210.371,110 211.5,110 C212.333,110 213,110.889 213,112 C213,113.86 213.667,114 222.5,114 C229.82,114 232,113.689 232,112.647 C232,111.683 234.204,111.107 239.651,110.647 C249.186,109.841 261.773,109.832 264.75,110.63 C267.253,111.301 267.854,114 265.5,114 C264.452,114 264,115.056 264,117.5 C264,119.82 263.532,121 262.611,121 C261.819,121 260.944,122.486 260.573,124.462 C260.015,127.436 259.436,128.015 256.462,128.573 C254.486,128.944 253,129.819 253,130.611 C253,131.375 252.1,132 251,132 C249.561,132 249,131.333 249,129.625 C249,125.12 250.254,121 251.625,121 C252.381,121 253,120.325 253,119.5 C253,118.452 251.944,118 249.5,118 C247.17,118 246,118.467 246,119.397 C246,120.457 243.938,120.88 237.463,121.147 C231.242,121.404 228.676,121.907 228.001,123 C227.297,124.141 224.555,124.582 216.538,124.841 C208.301,125.108 206,125.49 206,126.591 C206,127.765 201.838,128 181,128 C156.667,128 156,128.053 156,130 C156,131.1 155.345,132 154.545,132 C153.675,132 152.827,133.405 152.434,135.5 C152.058,137.505 151.184,139 150.389,139 C149.625,139 149,139.9 149,141 C149,142.111 148.333,143 147.5,143 C146.534,143 145.995,143.978 145.986,145.75 C145.979,147.262 145.709,149.483 145.387,150.684 C144.868,152.619 145.24,152.903 148.651,153.184 L152.5,153.5 L152.158,158.75 L151.816,164 L155.908,164 C158.879,164 160,163.589 160,162.5 C160,161.49 161.01,161 163.094,161 C165.346,161 166.329,160.456 166.71,159 C167.169,157.244 168.074,157 174.117,157 C179.569,157 181,156.688 181,155.5 C181,154.452 182.056,154 184.5,154 C186.944,154 188,154.452 188,155.5 C188,156.333 188.889,157 190,157 C191.81,157 192,157.667 192,164 C192,170.333 192.19,171 194,171 C195.111,171 196,170.333 196,169.5 C196,168.367 197.222,168 201,168 C204.778,168 206,168.367 206,169.5 C206,170.325 205.325,171 204.5,171 C203.675,171 203,171.85 203,172.889 C203,174.255 202.033,174.959 199.5,175.434 C197.405,175.827 196,176.675 196,177.545 C196,178.576 194.834,179 192,179 C189.111,179 188,179.417 188,180.5 C188,181.325 187.325,182 186.5,182 C185.667,182 185,182.889 185,184 C185,185.619 184.333,186 181.5,186 C178.667,186 178,186.381 178,188 C178,189.619 177.333,190 174.5,190 C172.2,190 171,190.471 171,191.372 C171,192.2 169.413,192.998 167,193.384 C164.412,193.798 163,194.549 163,195.512 C163,196.546 161.932,197 159.5,197 C157.187,197 156,196.531 156,195.617 C156,194.856 155.1,193.998 154,193.71 C152.468,193.31 152,192.346 152,189.594 C152,187.066 151.555,186 150.5,186 C149.452,186 149,184.944 149,182.5 C149,179.667 148.619,179 147,179 C145.381,179 145,178.333 145,175.5 C145,173.056 144.548,172 143.5,172 C142.445,172 142,170.934 142,168.406 C142,165.654 141.532,164.69 140,164.29 C138.162,163.809 138,162.926 138,153.383 C138,144.964 138.275,143 139.455,143 C140.325,143 141.173,141.595 141.566,139.5 C141.942,137.495 142.816,136 143.611,136 C144.532,136 145,134.82 145,132.5 L145,129 L137.5,129 C131.5,129 130,129.3 130,130.5 C130,131.69 128.556,132 123,132 C117.444,132 116,132.31 116,133.5 C116,134.629 114.79,135 111.108,135 C106.778,135 106.148,134.725 105.614,132.598 C104.765,129.216 105.985,124 107.625,124 C108.381,124 109,123.325 109,122.5 C109,121.218 111.833,121 128.5,121 C145.167,121 148,120.782 148,119.5 C148,118.667 148.889,118 150,118 C151.629,118 152,117.333 152,114.406 C152,111.654 152.468,110.69 154,110.29 C155.756,109.831 156,108.926 156,102.883 C156,97.527 156.323,96 157.455,96 C158.325,96 159.173,94.595 159.566,92.5 C159.927,90.575 160.79,89 161.484,89 C162.83,89 164.116,80.159 163.251,76.851 C162.673,74.642 160,74.354 160,76.5 C160,77.7 158.5,78 152.5,78 C145.667,78 145,78.178 145,80 C145,81.619 144.333,82 141.5,82 C139.056,82 138,82.452 138,83.5 C138,84.538 136.957,85 134.617,85 C131.722,85 131.156,84.603 130.7,82.25 C129.954,78.41 130.984,74 132.625,74 C133.381,74 134,73.375 134,72.611 C134,71.823 135.473,70.946 137.403,70.584 C139.275,70.233 141.061,69.283 141.372,68.473 C141.828,67.284 144.355,67 154.469,67 L167,67 L167,63.5 C167,61.056 167.452,60 168.5,60 C169.684,60 170.003,58.577 170.014,53.25 C170.03,45.152 170.759,42 172.617,42 C173.531,42 174,40.813 174,38.5 Z M106,65.594 C106,64.504 106.912,64 108.883,64 C111.028,64 111.921,64.576 112.37,66.25 C113.376,70.007 113.09,71 111,71 C109.667,71 109,71.667 109,73 C109,74.111 108.333,75 107.5,75 C106.49,75 106,76.01 106,78.094 C106,80.346 105.456,81.329 104,81.71 C102.344,82.143 102,83.074 102,87.117 C102,90.656 101.611,92 100.588,92 C99.72,92 98.915,93.541 98.5,96 C98.085,98.459 97.28,100 96.412,100 C95.465,100 95,101.152 95,103.5 C95,105.813 94.531,107 93.617,107 C92.101,107 91.035,109.968 91.014,114.25 C91.005,116.022 90.466,117 89.5,117 C88.675,117 88,117.394 88,117.875 C88,118.356 87.719,120.156 87.375,121.875 C86.832,124.591 87.028,125 88.875,125 C90.445,125 91,125.62 91,127.375 C91,131.88 92.254,136 93.625,136 C94.661,136 95,137.727 95,143 C95,148.237 95.343,150 96.361,150 C98.104,150 98.98,157.072 98.991,171.25 C98.998,180.135 99.26,182 100.5,182 C101.729,182 102,183.727 102,191.545 L102,201.091 L105.5,200.434 C108.975,199.782 109,199.803 109,203.389 C109,205.832 108.543,207 107.588,207 C106.72,207 105.915,208.541 105.5,211 C105.085,213.459 104.28,215 103.412,215 C102.635,215 102,215.635 102,216.412 C102,217.28 100.459,218.085 98,218.5 C95.541,218.915 94,219.72 94,220.588 C94,222.829 92.294,222.226 91.63,219.75 C91.299,218.512 91.021,204.787 91.014,189.25 C91.002,164.812 90.798,161 89.5,161 C88.308,161 88,159.545 88,153.906 C88,147.654 87.763,146.751 86,146.29 C84.312,145.848 84,144.926 84,140.383 C84,134.778 83.668,134.446 79.25,135.63 C77.479,136.105 77,136.953 77,139.617 C77,142.333 76.606,143 75,143 C73.381,143 73,143.667 73,146.5 C73,148.82 72.532,150 71.611,150 C70.816,150 69.942,151.495 69.566,153.5 C69.173,155.595 68.325,157 67.455,157 C66.655,157 66,157.9 66,159 C66,160.1 65.345,161 64.545,161 C63.675,161 62.827,162.405 62.434,164.5 C62.073,166.425 61.203,168 60.5,168 C59.797,168 58.927,169.575 58.566,171.5 C58.173,173.595 57.325,175 56.455,175 C55.655,175 55,175.9 55,177 C55,178.1 54.375,179 53.611,179 C52.816,179 51.942,180.495 51.566,182.5 C51.173,184.595 50.325,186 49.455,186 C48.459,186 48,187.104 48,189.5 C48,192.036 47.561,193 46.406,193 C45.53,193 44.577,193.9 44.29,195 C44.002,196.1 42.951,197 41.955,197 C38.993,197 37,194.156 37,189.929 C37,186.667 37.339,186 39,186 C40.333,186 41,185.333 41,184 C41,182.9 41.639,182 42.421,182 C43.202,182 44.138,180.65 44.5,179 C44.862,177.35 45.798,176 46.579,176 C47.361,176 48,175.1 48,174 C48,172.9 48.635,172 49.412,172 C50.28,172 51.085,170.459 51.5,168 C51.915,165.541 52.72,164 53.588,164 C54.365,164 55,163.1 55,162 C55,160.9 55.655,160 56.455,160 C57.325,160 58.173,158.595 58.566,156.5 C58.929,154.563 59.822,153 60.566,153 C61.31,153 62.203,151.437 62.566,149.5 C62.942,147.495 63.816,146 64.611,146 C65.532,146 66,144.82 66,142.5 C66,139.667 66.381,139 68,139 C69.333,139 70,138.333 70,137 C70,135.889 70.667,135 71.5,135 C72.466,135 73.005,134.022 73.014,132.25 C73.035,127.968 74.101,125 75.617,125 C76.377,125 77,124.1 77,123 C77,121.889 77.667,121 78.5,121 C79.548,121 80,119.944 80,117.5 C80,114.667 80.381,114 82,114 C83.758,114 84,113.333 84,108.5 C84,104.354 84.358,103 85.455,103 C86.325,103 87.173,101.595 87.566,99.5 C87.942,97.495 88.816,96 89.611,96 C90.628,96 91,94.526 91,90.5 C91,85.667 91.242,85 93,85 C94.619,85 95,84.333 95,81.5 C95,79.18 95.468,78 96.389,78 C97.184,78 98.058,76.505 98.434,74.5 C98.827,72.405 99.675,71 100.545,71 C101.345,71 102,70.377 102,69.617 C102,68.856 102.9,67.998 104,67.71 C105.1,67.423 106,66.47 106,65.594 Z M214,133.5 C214,132.675 214.675,132 215.5,132 C216.325,132 217,132.717 217,133.594 C217,134.47 217.9,135.423 219,135.71 C220.879,136.202 221,137.074 221,150.117 C221,161.114 221.281,164 222.352,164 C224.322,164 224.988,175.487 224.988,209.5 C224.988,243.513 224.322,255 222.352,255 C221.608,255 221,255.675 221,256.5 C221,257.583 219.889,258 217,258 C214.111,258 213,258.417 213,259.5 C213,260.548 211.944,261 209.5,261 C207.056,261 206,260.548 206,259.5 C206,258.367 204.778,258 201,258 C197.4,258 196,257.611 196,256.611 C196,255.816 194.505,254.942 192.5,254.566 C190.405,254.173 189,253.325 189,252.455 C189,251.424 187.834,251 185,251 C181.667,251 181,250.667 181,249 C181,247.381 180.333,247 177.5,247 C175.18,247 174,246.532 174,245.611 C174,244.816 172.505,243.942 170.5,243.566 C168.405,243.173 167,242.325 167,241.455 C167,240.655 166.1,240 165,240 C163.9,240 163,239.377 163,238.617 C163,237.856 162.1,236.998 161,236.71 C159.9,236.423 159,235.47 159,234.594 C159,233.717 158.325,233 157.5,233 C156.667,233 156,232.111 156,231 C156,229.667 155.333,229 154,229 C151.91,229 151.624,228.007 152.63,224.25 C153.377,221.463 156,221.269 156,224 C156,225.111 156.667,226 157.5,226 C158.325,226 159,226.717 159,227.594 C159,228.47 159.9,229.423 161,229.71 C162.1,229.998 163,230.856 163,231.617 C163,232.377 163.9,233 165,233 C166.111,233 167,233.667 167,234.5 C167,235.548 168.056,236 170.5,236 C173.333,236 174,236.381 174,238 C174,239.619 174.667,240 177.5,240 C179.944,240 181,240.452 181,241.5 C181,242.412 181.931,243 183.375,243 C187.88,243 192,244.254 192,245.625 C192,246.625 193.5,247 197.5,247 C202.38,247 203,247.231 203,249.052 C203,250.9 203.524,251.074 208.25,250.802 L213.5,250.5 L213.81,246.75 C214.013,244.297 214.619,243 215.56,243 C216.78,243 217,238.636 217,214.5 C217,189.833 216.798,186 215.5,186 C214.288,186 213.999,184.414 213.994,177.75 C213.984,163.484 212.864,153 211.352,153 C210.316,153 210,150.895 210,144 C210,135.667 210.148,135 212,135 C213.111,135 214,134.333 214,133.5 Z M174,83.5 C174,84.325 173.365,85 172.588,85 C171.72,85 170.915,86.541 170.5,89 C170.085,91.459 169.28,93 168.412,93 C167.384,93 167,94.361 167,98 C167,102.333 166.733,103 165,103 C163.381,103 163,103.667 163,106.5 C163,108.944 162.548,110 161.5,110 C160.417,110 160,111.111 160,114 L160,118 L177.75,117.991 C198.655,117.981 206,117.297 206,115.361 C206,114.612 205.384,114 204.63,114 C203.742,114 203.076,112.365 202.736,109.349 C202.42,106.551 201.572,104.34 200.606,103.799 C199.723,103.305 199,102.023 199,100.95 C199,99.878 198.325,99 197.5,99 C196.675,99 196,98.325 196,97.5 C196,96.667 195.111,96 194,96 C192.667,96 192,95.333 192,94 C192,92.667 191.333,92 190,92 C188.9,92 188,91.377 188,90.617 C188,89.856 187.1,88.998 186,88.71 C184.9,88.423 184,87.47 184,86.594 C184,85.717 183.325,85 182.5,85 C181.675,85 181,84.325 181,83.5 C181,82.452 179.944,82 177.5,82 C175.056,82 174,82.452 174,83.5 Z M176.25,164.706 C175.012,164.944 174,165.783 174,166.57 C174,167.538 172.869,168 170.5,168 C168.18,168 167,168.468 167,169.389 C167,170.184 165.505,171.058 163.5,171.434 C161.405,171.827 160,172.675 160,173.545 C160,174.345 159.1,175 158,175 C156.667,175 156,175.667 156,177 C156,178.111 156.667,179 157.5,179 C158.325,179 159,179.648 159,180.441 C159,181.234 159.404,182.132 159.897,182.437 C161.47,183.409 167,181.804 167,180.375 C167,179.47 168.197,179 170.5,179 C173.333,179 174,178.619 174,177 C174,175.667 174.667,175 176,175 C177.111,175 178,174.333 178,173.5 C178,172.675 178.619,172 179.375,172 C180.804,172 182.409,166.47 181.437,164.897 C180.868,163.978 180.164,163.952 176.25,164.706 Z"/>
</svg>

