<svg xmlns="http://www.w3.org/2000/svg" width="300" height="300" viewBox="0 0 300 300" version="1.1">
  <defs/>
  <path d="M168.75,55.689 C171.419,54.992 187.202,54.947 189.75,55.63 C191.78,56.174 192,56.846 192,62.5 C192,67.926 191.732,68.837 190,69.29 C188.9,69.577 188,70.53 188,71.406 C188,72.283 187.325,73 186.5,73 C185.675,73 185,72.325 185,71.5 C185,70.667 184.111,70 183,70 C181.667,70 181,69.333 181,68 C181,66.158 180.333,66 172.545,66 L164.091,66 L163.434,69.5 C163.058,71.505 162.184,73 161.389,73 C160.293,73 160,75.19 160,83.383 C160,89.7 159.952,92.571 161.358,93.879 C162.575,95.012 164.881,94.973 169.25,94.986 C173.338,94.998 174,94.721 174,93 C174,91.058 174.667,91 197.094,91 C219.346,91 220.206,91.073 220.71,93 C220.998,94.1 221.856,95 222.617,95 C223.663,95 224,96.707 224,102 C224,107.556 223.69,109 222.5,109 C221.348,109 221,110.278 221,114.5 C221,119.333 220.758,120 219,120 C217.381,120 217,120.667 217,123.5 C217,125.944 216.548,127 215.5,127 C214.452,127 214,128.056 214,130.5 C214,133.333 213.619,134 212,134 C210.394,134 210,134.667 210,137.383 C210,139.997 209.514,140.894 207.864,141.325 C205.891,141.841 205.778,142.325 206.387,147.703 C206.749,150.904 206.754,154.98 206.398,156.762 C205.848,159.512 205.316,160 202.875,160 C200.986,160 200,160.514 200,161.5 C200,162.325 199.152,163 198.117,163 C197.074,163 196,163.893 195.71,165 C195.249,166.763 194.346,167 188.094,167 C182.455,167 181,167.308 181,168.5 C181,169.412 180.069,170 178.625,170 C174.12,170 170,171.254 170,172.625 C170,173.53 168.803,174 166.5,174 L163,174 L163,186.5 C163,196.944 162.753,199 161.5,199 C160.348,199 160,200.278 160,204.5 L160,210 L187,210 C209.322,210 214,209.76 214,208.617 C214,207.111 216.963,206.035 221.171,206.014 C223.299,206.003 223.97,205.412 224.478,203.102 C224.878,201.278 225.927,199.985 227.307,199.615 C230.761,198.689 232,198.892 232,200.383 C232,201.959 235,202.966 239.75,202.986 L243,203 L242.986,232.75 C242.979,249.113 242.701,263.512 242.37,264.75 C242.038,265.988 241.144,267 240.383,267 C239.623,267 239,267.9 239,269 C239,270.333 238.333,271 237,271 C235.9,271 235,271.623 235,272.383 C235,274.241 231.848,274.97 223.75,274.986 C218.663,274.997 217,274.659 217,273.617 C217,272.106 214.035,271.035 209.795,271.014 C207.5,271.002 206.991,270.47 206.434,267.5 C205.837,264.318 205.47,264 202.389,264 C199.667,264 199,263.607 199,262 C199,260.889 198.333,260 197.5,260 C196.675,260 196,259.325 196,258.5 C196,257.667 195.111,257 194,257 C192.148,257 192,256.333 192,248 C192,240.987 192.307,239 193.389,239 C194.184,239 195.058,237.505 195.434,235.5 C195.797,233.563 196.69,232 197.434,232 C198.178,232 199.071,230.437 199.434,228.5 C199.827,226.405 200.675,225 201.545,225 C202.345,225 203,224.1 203,223 C203,221.889 203.667,221 204.5,221 C205.35,221 206,220.103 206,218.931 C206,216.934 205.623,216.88 195.334,217.389 C188.28,217.739 184.361,218.355 183.758,219.209 C183.038,220.23 182.742,220.239 182.341,219.25 C181.689,217.644 174.297,217.608 173.764,219.207 C173.497,220.008 169.928,220.553 163.181,220.824 C155.375,221.137 153,221.555 153,222.616 C153,224.863 149.291,224.222 148.676,221.868 C148.241,220.207 147.608,219.873 145.809,220.354 C144.539,220.694 140.688,220.979 137.25,220.986 C132.54,220.997 131,221.348 131,222.412 C131,223.28 129.459,224.085 127,224.5 C122.85,225.201 121.251,228 125,228 C126.111,228 127,228.667 127,229.5 C127,230.633 125.778,231 122,231 C118.222,231 117,230.633 117,229.5 C117,228.667 116.111,228 115,228 C113.333,228 113,227.333 113,224 C113,221.111 113.417,220 114.5,220 C115.325,220 116,219.325 116,218.5 C116,217.667 116.889,217 118,217 C119.1,217 120,216.388 120,215.639 C120,214.249 126.622,213.026 134.25,213.009 C136.913,213.003 138,212.565 138,211.5 C138,210.31 139.439,210 144.955,210 L151.909,210 L152.566,206.5 C152.942,204.495 153.816,203 154.611,203 C155.722,203 156,200.499 156,190.5 L156,178 L152.5,178 C150.056,178 149,178.452 149,179.5 C149,180.753 146.958,181 136.625,181 L124.25,181 L123.625,177.875 C123.281,176.156 123,173.006 123,170.875 C123,168.097 122.575,167 121.5,167 C120.417,167 120,165.889 120,163 C120,160.261 119.564,159 118.617,159 C116.897,159 116.031,155.923 116.014,149.75 C116.004,146.36 115.601,145 114.605,145 C113.509,145 113.135,142.422 112.855,132.964 C112.588,123.896 112.147,120.709 111.07,120.043 C110.169,119.487 109.472,116.844 109.187,112.913 C108.816,107.778 109.047,106.439 110.484,105.388 C111.525,104.627 112.441,102.264 112.747,99.554 C113.068,96.708 113.755,95 114.58,95 C115.307,95 116.338,94.218 116.873,93.263 C117.632,91.906 119.208,91.523 124.078,91.513 C128.346,91.504 130.453,91.915 130.761,92.816 C131.011,93.547 130.275,94.377 129.105,94.683 C127.947,94.986 127,95.806 127,96.505 C127,97.205 125.425,98.073 123.5,98.434 C120.302,99.034 120,99.389 120,102.545 C120,105.651 120.278,105.999 122.75,105.986 C127.032,105.965 130,104.899 130,103.383 C130,102.359 131.558,102 136,102 C140.442,102 142,101.641 142,100.617 C142,99.101 144.968,98.035 149.25,98.014 L152,98 L152,89 C152,81.667 151.722,80 150.5,80 C149.367,80 149,78.778 149,75 C149,70.667 148.733,70 147,70 C145.889,70 145,70.667 145,71.5 C145,72.722 143.333,73 136,73 C127.667,73 127,73.148 127,75 C127,76.731 126.333,77 122.034,77 L117.069,77 L116.417,81.914 C115.903,85.785 115.313,86.95 113.633,87.4 C109.618,88.478 109,88.09 109,84.5 C109,82.056 108.548,81 107.5,81 C106.667,81 106,80.111 106,79 C106,77.889 106.667,77 107.5,77 C108.333,77 109,76.111 109,75 C109,73.889 109.667,73 110.5,73 C111.325,73 112,72.365 112,71.588 C112,70.72 113.541,69.915 116,69.5 C118.459,69.085 120,68.28 120,67.412 C120,66.33 121.638,66 127,66 C132.273,66 134,65.661 134,64.625 C134,62.94 138.342,62 146.125,62 C150.681,62 152,61.663 152,60.5 C152,59.3 153.5,59 159.5,59 C165.329,59 167,58.682 167,57.573 C167,56.789 167.787,55.941 168.75,55.689 Z M185,100.5 C185,101.737 183.18,102 174.617,102 C168.768,102 165.865,101.839 164.426,103.212 C162.865,104.701 163.025,107.994 163.014,115.25 C163,123.798 163.055,124 165.375,124 C169.88,124 174,122.746 174,121.375 C174,120.619 174.9,120 176,120 C177.111,120 178,120.667 178,121.5 C178,122.51 179.01,123 181.094,123 C183.346,123 184.329,123.544 184.71,125 C184.998,126.1 185.856,127 186.617,127 C187.377,127 188,127.9 188,129 C188,130.111 187.333,131 186.5,131 C185.367,131 185,132.222 185,136 C185,139.326 184.582,141.005 183.75,141.014 C183.063,141.021 181.488,141.299 180.25,141.63 C178.112,142.203 178,141.953 178,136.617 L178,131 L174.5,131 C172.121,131 171,131.461 171,132.44 C171,133.381 169.703,133.987 167.25,134.19 L163.5,134.5 L163.223,148.75 L162.945,163 L168.473,163 C172.496,163 174,162.626 174,161.625 C174,160.254 178.12,159 182.625,159 C184.069,159 185,158.412 185,157.5 C185,156.452 186.056,156 188.5,156 C191.833,156 192,155.833 192,152.5 C192,149.667 192.381,149 194,149 C195.333,149 196,148.333 196,147 C196,145.889 196.667,145 197.5,145 C198.548,145 199,143.944 199,141.5 C199,138.667 199.381,138 201,138 C202.619,138 203,137.333 203,134.5 C203,132.18 203.468,131 204.389,131 C205.184,131 206.058,129.505 206.434,127.5 C206.827,125.405 207.675,124 208.545,124 C209.576,124 210,122.834 210,120 C210,117.29 210.439,116 211.363,116 C212.322,116 212.882,114.053 213.253,109.437 C213.647,104.535 214.018,101.929 212.89,100.547 C211.488,98.827 207.766,99 198.883,99 C187.209,99 185,99.239 185,100.5 Z M149,107.5 C149,108.523 147.966,109.004 145.75,109.014 C141,109.034 138,110.041 138,111.617 C138,112.531 136.813,113 134.5,113 C132.18,113 131,113.468 131,114.389 C131,115.184 129.505,116.058 127.5,116.434 C124.302,117.034 124,117.389 124,120.545 C124,122.949 124.456,124 125.5,124 C126.548,124 127,125.056 127,127.5 C127,130.833 126.833,131 123.5,131 C121.056,131 120,131.452 120,132.5 C120,133.325 120.619,134 121.375,134 C122.904,134 124,138.228 124,144.125 C124,146.903 124.425,148 125.5,148 C126.655,148 127,149.288 127,153.594 C127,158.346 127.301,159.266 129,159.71 C130.1,159.998 131,160.856 131,161.617 C131,162.377 131.675,163 132.5,163 C133.333,163 134,163.889 134,165 C134,166.333 134.667,167 136,167 C137.111,167 138,167.667 138,168.5 C138,169.633 139.222,170 143,170 C146.778,170 148,169.633 148,168.5 C148,167.417 149.111,167 152,167 L156,167 L156,138 L152.611,138 C149.53,138 149.163,138.318 148.566,141.5 C148.205,143.425 147.532,145 147.071,145 C146.61,145 145.998,145.9 145.71,147 C145.423,148.1 144.428,149 143.5,149 C142.572,149 141.577,148.1 141.29,147 C141.002,145.9 140.144,145 139.383,145 C138.623,145 138,144.1 138,143 C138,141.889 137.333,141 136.5,141 C135.675,141 135,140.325 135,139.5 C135,138.675 135.675,138 136.5,138 C137.325,138 138,137.377 138,136.617 C138,135.856 138.9,134.998 140,134.71 C141.1,134.423 142,133.47 142,132.594 C142,131.348 143.092,131 147,131 C151.333,131 152,130.733 152,129 C152,127.667 152.667,127 154,127 C155.852,127 156,126.333 156,118 C156,109.667 155.852,109 154,109 C152.889,109 152,108.333 152,107.5 C152,106.675 151.325,106 150.5,106 C149.675,106 149,106.675 149,107.5 Z M228,215.5 C228,216.652 226.722,217 222.5,217 C217.667,217 217,217.242 217,219 C217,220.1 216.377,221 215.617,221 C214.856,221 213.998,221.9 213.71,223 C213.423,224.1 212.47,225 211.594,225 C210.717,225 210,225.675 210,226.5 C210,227.325 209.375,228 208.611,228 C207.816,228 206.942,229.495 206.566,231.5 C206.173,233.595 205.325,235 204.455,235 C203.274,235 203,236.979 203,245.5 C203,254.441 203.237,256 204.594,256 C205.47,256 206.416,256.874 206.695,257.943 C206.991,259.073 208.416,260.152 210.102,260.522 C211.696,260.872 213,261.798 213,262.579 C213,263.428 214.007,264 215.5,264 C217.056,264 218,264.567 218,265.5 C218,266.679 219.389,267 224.5,267 C229.611,267 231,266.679 231,265.5 C231,264.667 231.889,264 233,264 C234.919,264 235,263.333 235,247.5 C235,233.5 234.773,231 233.5,231 C232.328,231 231.997,229.633 231.986,224.75 C231.979,221.313 231.701,217.488 231.37,216.25 C230.699,213.747 228,213.146 228,215.5 Z M88,85.594 C88,84.439 88.964,84 91.5,84 C94.333,84 95,84.381 95,86 C95,87.1 95.626,88 96.392,88 C97.895,88 99.437,92.484 98.472,94.046 C98.147,94.571 96.334,95 94.441,95 C91.175,95 91,95.178 91,98.5 C91,100.944 90.548,102 89.5,102 C88.477,102 87.996,103.034 87.986,105.25 C87.966,110 86.959,113 85.383,113 C84.469,113 84,114.187 84,116.5 C84,118.82 83.532,120 82.611,120 C81.816,120 80.942,121.495 80.566,123.5 C80.173,125.595 79.325,127 78.455,127 C77.468,127 77,128.089 77,130.383 C77,132.926 76.503,133.897 75,134.29 C73.544,134.671 73,135.654 73,137.906 C73,139.862 72.495,141 71.628,141 C70.8,141 70.002,142.587 69.616,145 C69.202,147.588 68.451,149 67.488,149 C66.454,149 66,150.068 66,152.5 C66,154.848 65.535,156 64.588,156 C63.72,156 62.915,157.541 62.5,160 C62.085,162.459 61.28,164 60.412,164 C59.542,164 58.995,165.055 58.986,166.75 C58.965,171.032 57.899,174 56.383,174 C55.623,174 55,174.9 55,176 C55,177.111 54.333,178 53.5,178 C52.452,178 52,179.056 52,181.5 C52,184.333 51.619,185 50,185 C48.381,185 48,185.667 48,188.5 C48,190.82 47.532,192 46.611,192 C45.816,192 44.942,193.495 44.566,195.5 C44.173,197.595 43.325,199 42.455,199 C41.655,199 41,199.9 41,201 C41,202.333 40.333,203 39,203 C37.381,203 37,203.667 37,206.5 C37,208.908 36.543,210 35.534,210 C34.534,210 33.862,211.561 33.417,214.914 C32.724,220.138 31.69,220.957 25.75,220.986 C23.206,220.999 23,220.7 23,217 C23,214.111 23.417,213 24.5,213 C25.51,213 26,211.99 26,209.906 C26,207.654 26.544,206.671 28,206.29 C29.392,205.926 30,204.926 30,203 C30,201.074 30.608,200.074 32,199.71 C33.1,199.423 34,198.47 34,197.594 C34,196.717 34.675,196 35.5,196 C36.538,196 37,194.957 37,192.617 C37,190.074 37.497,189.103 39,188.71 C40.532,188.31 41,187.346 41,184.594 C41,182.194 41.461,181 42.389,181 C43.184,181 44.058,179.505 44.434,177.5 C44.827,175.405 45.675,174 46.545,174 C47.532,174 48,172.911 48,170.617 C48,168.074 48.497,167.103 50,166.71 C51.456,166.329 52,165.346 52,163.094 C52,161.01 52.49,160 53.5,160 C54.538,160 55,158.957 55,156.617 C55,154.074 55.497,153.103 57,152.71 C58.532,152.31 59,151.346 59,148.594 C59,146.066 59.445,145 60.5,145 C61.548,145 62,143.944 62,141.5 C62,138.667 62.381,138 64,138 C65.619,138 66,137.333 66,134.5 C66,132.152 66.465,131 67.412,131 C68.28,131 69.085,129.459 69.5,127 C69.915,124.541 70.72,123 71.588,123 C72.535,123 73,121.848 73,119.5 C73,117.187 73.469,116 74.383,116 C75.899,116 76.965,113.032 76.986,108.75 C76.995,106.978 77.534,106 78.5,106 C79.555,106 80,104.934 80,102.406 C80,99.654 80.468,98.69 82,98.29 C83.647,97.859 84,96.926 84,93 C84,89.074 84.353,88.141 86,87.71 C87.1,87.423 88,86.47 88,85.594 Z M77,139.594 C77,138.717 77.675,138 78.5,138 C79.325,138 80,138.717 80,139.594 C80,140.47 80.9,141.423 82,141.71 C84.318,142.316 84.726,145 82.5,145 C81.31,145 81,146.444 81,152 C81,157.556 81.31,159 82.5,159 C83.808,159 84,164.111 84,199 C84,234.933 84.162,239 85.594,239 C86.47,239 87.423,238.1 87.71,237 C87.998,235.9 88.856,235 89.617,235 C90.377,235 91,234.325 91,233.5 C91,230.99 93.74,231.827 94.422,234.546 C95.161,237.49 94.489,239 92.441,239 C91.461,239 91,240.119 91,242.5 C91,244.82 90.532,246 89.611,246 C88.816,246 87.942,247.495 87.566,249.5 C87.009,252.47 86.5,253.002 84.205,253.014 C82.717,253.021 80.461,253.306 79.191,253.646 C77.392,254.127 76.759,253.793 76.324,252.132 C76.018,250.959 75.369,250 74.883,250 C74.398,250 74,249.1 74,248 C74,246.9 74.45,246 75,246 C76.444,246 76.232,243.244 74.75,242.751 C73.778,242.427 73.431,231.217 73.191,192.299 C72.884,142.501 72.892,142.261 74.941,141.726 C76.074,141.43 77,140.47 77,139.594 Z M235.667,26.667 C236.493,25.84 243.713,25.816 246.75,26.63 C247.988,26.962 249,27.856 249,28.617 C249,29.377 249.85,30 250.889,30 C252.255,30 252.959,30.967 253.434,33.5 C253.827,35.595 254.675,37 255.545,37 C256.345,37 257,37.9 257,39 C257,40.1 257.623,41 258.383,41 C259.144,41 260.002,41.9 260.29,43 C260.577,44.1 261.53,45 262.406,45 C263.51,45 264,45.922 264,48 C264,50.333 264.444,51 266,51 C267.333,51 268,51.667 268,53 C268,54.111 268.667,55 269.5,55 C270.333,55 271,55.889 271,57 C271,58.1 271.655,59 272.455,59 C273.325,59 274.173,60.405 274.566,62.5 C275.041,65.033 275.745,66 277.111,66 C279.153,66 279.508,68.211 278.375,73.875 C277.764,76.93 275,78.356 275,75.617 C275,74.856 274.1,73.998 273,73.71 C271.468,73.31 271,72.346 271,69.594 C271,66.667 270.629,66 269,66 C267.889,66 267,65.333 267,64.5 C267,63.675 266.325,63 265.5,63 C264.667,63 264,62.111 264,61 C264,59.889 263.333,59 262.5,59 C261.675,59 261,58.283 261,57.406 C261,56.53 260.1,55.577 259,55.29 C257.9,55.002 257,54.102 257,53.29 C257,52.477 256.1,51.577 255,51.29 C253.608,50.926 253,49.926 253,48 C253,46.074 252.392,45.074 251,44.71 C249.9,44.423 249,43.47 249,42.594 C249,41.717 248.325,41 247.5,41 C246.675,41 246,40.377 246,39.617 C246,38.115 243.04,37.035 238.867,37.014 C236.987,37.004 236.061,36.356 235.63,34.75 C234.823,31.739 234.842,27.491 235.667,26.667 Z"/>
</svg>

