<svg xmlns="http://www.w3.org/2000/svg" width="300" height="300" viewBox="0 0 300 300" version="1.1">
  <defs/>
  <path d="M74,35.5 C74,34.456 75.051,34 77.455,34 C80.611,34 80.966,34.302 81.566,37.5 C81.942,39.505 82.816,41 83.611,41 C84.664,41 85,42.694 85,48 C85,53.556 84.69,55 83.5,55 C82.234,55 82,57.319 82,69.875 C82,78.056 81.719,86.156 81.375,87.875 L80.75,91 L96,91 L96,85.5 C96,81.484 95.627,80 94.617,80 C93.041,80 92.034,77 92.014,72.25 C92.005,70.079 91.517,69 90.545,69 C89.675,69 88.827,67.595 88.434,65.5 C88.058,63.495 87.184,62 86.389,62 C85.468,62 85,60.82 85,58.5 C85,55.667 85.381,55 87,55 C88.111,55 89,54.333 89,53.5 C89,52.452 90.056,52 92.5,52 C95.722,52 96,52.238 96,55 C96,57.078 96.49,58 97.594,58 C98.47,58 99.423,58.9 99.71,60 C99.998,61.1 100.856,62 101.617,62 C102.538,62 103,63.201 103,65.594 C103,68.346 103.468,69.31 105,69.71 C106.1,69.998 107,70.856 107,71.617 C107,72.531 108.187,73 110.5,73 C113.917,73 114,73.095 114,77 C114,79.739 114.436,81 115.383,81 C117.068,81 117.968,84.058 117.986,89.844 C117.997,93.353 117.616,94.288 116,94.71 C114.893,95 114,96.074 114,97.117 C114,98.333 113.292,99 112,99 C110.889,99 110,99.667 110,100.5 C110,101.325 109.325,102 108.5,102 C107.667,102 107,101.111 107,100 C107,98.305 106.333,98 102.625,98 C96.259,98 92,99.052 92,100.625 C92,101.661 90.273,102 85,102 L78,102 L78,107.5 C78,112.623 78.163,113 80.375,113 C84.88,113 89,111.746 89,110.375 C89,109.339 90.727,109 96,109 C102.333,109 103,109.19 103,111 C103,112.1 103.619,113 104.375,113 C105.972,113 107.147,117.723 106.329,120.851 C106.02,122.033 105.144,123 104.383,123 C103.623,123 103,123.9 103,125 C103,126.111 102.333,127 101.5,127 C100.667,127 100,127.889 100,129 C100,130.619 99.333,131 96.5,131 C93.167,131 93,130.833 93,127.5 C93,125.056 93.452,124 94.5,124 C95.333,124 96,123.111 96,122 C96,120.242 95.333,120 90.5,120 C86.278,120 85,120.348 85,121.5 C85,122.333 84.111,123 83,123 C81.889,123 81,122.333 81,121.5 C81,120.675 80.325,120 79.5,120 C78.674,120 78,120.886 78,121.97 C78,123.561 77.375,123.907 74.75,123.768 C67.917,123.407 64,123.991 64,125.373 C64,126.29 62.334,126.906 58.978,127.228 C50.971,127.998 50.69,129.873 58.451,130.747 C62.848,131.243 63,131.372 63,134.63 C63,137.708 62.74,138 60,138 Q57,138 57,139.5 C57,140.325 57.675,141 58.5,141 C59.548,141 60,142.056 60,144.5 C60,147.833 60.167,148 63.5,148 C65.944,148 67,147.548 67,146.5 C67,145.31 68.444,145 74,145 C79.556,145 81,144.69 81,143.5 C81,141.94 82.171,141.733 91,141.733 C93.75,141.733 97.575,141.793 99.5,141.867 L103,142 L103,147 C103,150.778 102.633,152 101.5,152 C100.445,152 100,153.066 100,155.594 C100,158.346 99.532,159.31 98,159.71 C96.583,160.081 96,161.074 96,163.117 C96,165.088 95.496,166 94.406,166 C93.53,166 92.577,166.9 92.29,168 C92.002,169.1 91.144,170 90.383,170 C89.623,170 89,170.9 89,172 C89,173.619 88.333,174 85.5,174 C83.374,174 81.995,174.491 81.986,175.25 C81.979,175.938 81.701,177.512 81.37,178.75 C80.768,180.996 80.789,181 93.338,181 L105.909,181 L106.566,177.5 C107.222,174.003 107.228,174 112.728,174 C117.949,174 118.202,174.116 117.63,176.25 C117.299,177.488 117.021,179.063 117.014,179.75 C117.006,180.438 116.325,181 115.5,181 C114.452,181 114,182.056 114,184.5 C114,187.036 113.561,188 112.406,188 C111.53,188 110.577,188.9 110.29,190 C110.002,191.1 109.144,192 108.383,192 C107.467,192 107,193.191 107,195.531 C107,197.719 106.44,199.278 105.527,199.628 C104.717,199.939 103.767,201.725 103.416,203.597 C103.054,205.527 102.177,207 101.389,207 C100.544,207 99.995,208.077 99.986,209.75 C99.965,214.032 98.899,217 97.383,217 C96.623,217 96,217.9 96,219 C96,220.1 95.375,221 94.611,221 C93.816,221 92.942,222.495 92.566,224.5 C92.173,226.595 91.325,228 90.455,228 C89.459,228 89,229.104 89,231.5 C89,234.333 88.619,235 87,235 C85.667,235 85,235.667 85,237 C85,238.111 84.333,239 83.5,239 C82.675,239 82,239.675 82,240.5 C82,241.652 83.278,242 87.5,242 C91.722,242 93,241.652 93,240.5 C93,239.222 95.667,239 111,239 L129,239 L128.986,241.75 C128.958,247.495 128.002,249 124.383,249 C122.043,249 121,248.538 121,247.5 C121,246.348 119.722,246 115.5,246 C111.43,246 110,246.367 110,247.412 C110,248.51 107.331,248.984 98,249.541 C88.848,250.087 86,250.582 86,251.628 C86,252.627 84.479,253 80.406,253 C75.654,253 74.734,253.301 74.29,255 C73.857,256.656 72.926,257 68.883,257 C65.407,257 64,257.396 64,258.375 C64,259.996 58.798,261.238 55.489,260.408 C51.409,259.384 51.083,250.735 55.085,249.688 C56.138,249.413 57,248.47 57,247.594 C57,246.348 58.092,246 62,246 C65.6,246 67,245.611 67,244.611 C67,243.816 68.495,242.942 70.5,242.566 C72.71,242.151 74,241.339 74,240.361 C74,239.509 74.9,238.577 76,238.29 C77.503,237.897 78,236.926 78,234.383 C78,232.127 78.473,231 79.421,231 C80.202,231 81.138,229.65 81.5,228 C81.862,226.35 82.798,225 83.579,225 C84.43,225 85,223.992 85,222.49 C85,221.11 85.9,219.21 87,218.268 C88.245,217.202 89,215.318 89,213.278 C89,211.148 89.486,210 90.389,210 C91.184,210 92.058,208.505 92.434,206.5 C92.827,204.405 93.675,203 94.545,203 C95.541,203 96,201.896 96,199.5 C96,197.056 96.452,196 97.5,196 C98.325,196 99.006,195.438 99.014,194.75 C99.021,194.063 99.299,192.488 99.63,191.25 C100.217,189.061 100.027,189 92.617,189 C86.513,189 85,189.298 85,190.5 C85,191.722 83.333,192 76,192 C68.791,192 67,192.29 67,193.455 C67,195.288 61.217,196.451 56.5,195.566 C53.302,194.966 53,194.611 53,191.455 C53,189.18 53.472,188 54.383,188 C55.144,188 55.982,186.875 56.245,185.5 C56.94,181.864 55.981,178 54.383,178 C53.436,178 53,176.739 53,174 C53,171.261 52.564,170 51.617,170 C49.897,170 49.031,166.923 49.014,160.75 C49.003,157.188 49.375,156 50.5,156 C51.333,156 52,155.111 52,154 C52,152.889 51.333,152 50.5,152 C49.452,152 49,150.944 49,148.5 C49,146.056 48.548,145 47.5,145 C46.348,145 46,143.722 46,139.5 C46,135.278 46.348,134 47.5,134 C48.325,134 49,133.325 49,132.5 C49,131.452 47.944,131 45.5,131 C43.187,131 42,131.469 42,132.383 C42,134.138 38.16,134.885 32.448,134.241 C28.163,133.758 28,133.616 28,130.37 C28,128.041 28.463,127 29.5,127 C30.333,127 31,126.111 31,125 C31,123.667 31.667,123 33,123 C34.111,123 35,122.333 35,121.5 C35,120.348 36.278,120 40.5,120 C44.479,120 46,119.623 46,118.636 C46,116.99 52.233,116 62.594,116 L69.909,116 L70.547,112.6 C71.425,107.922 70.796,105.484 68.736,105.583 C67.781,105.629 62.95,105.742 58,105.833 C50.741,105.968 49,106.29 49,107.5 C49,108.743 47.098,109 37.883,109 C26.843,109 26.771,108.985 27.37,106.75 C27.701,105.513 27.979,103.938 27.986,103.25 C27.994,102.563 28.675,102 29.5,102 C30.333,102 31,101.111 31,100 C31,98.9 31.655,98 32.455,98 C33.325,98 34.173,96.595 34.566,94.5 C34.927,92.575 35.797,91 36.5,91 C37.203,91 38.073,89.425 38.434,87.5 C38.827,85.405 39.675,84 40.545,84 C41.541,84 42,82.896 42,80.5 C42,78.152 42.465,77 43.412,77 C44.28,77 45.085,75.459 45.5,73 C45.893,70.672 46.733,69 47.508,69 C48.241,69 49.131,67.679 49.486,66.065 C49.97,63.861 50.861,62.97 53.065,62.486 C54.679,62.131 56,61.202 56,60.421 C56,59.43 57.211,59 60,59 C63.905,59 64,59.083 64,62.5 C64,65.333 63.619,66 62,66 C60.667,66 60,66.667 60,68 C60,69.333 59.333,70 58,70 C56.667,70 56,70.667 56,72 C56,73.111 55.333,74 54.5,74 C53.49,74 53,75.01 53,77.094 C53,79.346 52.456,80.329 51,80.71 C49.497,81.103 49,82.074 49,84.617 C49,86.957 48.538,88 47.5,88 C46.49,88 46,89.01 46,91.094 C46,93.346 45.456,94.329 44,94.71 C42.9,94.998 42,95.856 42,96.617 C42,97.692 44.004,98 51,98 C58.333,98 60,97.722 60,96.5 C60,95.348 61.278,95 65.5,95 L71,95 L71,91 C71,88.111 71.417,87 72.5,87 C73.738,87 74,85.167 74,76.5 C74,67.833 73.738,66 72.5,66 C71.236,66 71,63.722 71,51.5 C71,39.278 71.236,37 72.5,37 C73.325,37 74,36.325 74,35.5 Z M180.75,91.654 C183.566,90.862 188.372,91.914 189.271,93.519 C189.753,94.381 191.542,95 193.55,95 C195.821,95 197,95.473 197,96.383 C197,97.144 197.9,98.002 199,98.29 C200.456,98.671 201,99.654 201,101.906 C201,103.99 201.49,105 202.5,105 C203.7,105 204,106.5 204,112.5 C204,118.5 204.3,120 205.5,120 C206.69,120 207,121.444 207,127 C207,132.556 206.69,134 205.5,134 C204.244,134 204,136.111 204,147 C204,157.493 203.729,160 202.596,160 C201.526,160 201.023,162.493 200.477,170.5 C199.937,178.417 199.422,181 198.381,181 C197.243,181 197,185.406 197,206 C197,226.665 197.241,231 198.389,231 C199.178,231 200.055,232.478 200.42,234.428 C200.94,237.196 201.634,237.98 204.032,238.507 C205.664,238.866 207,239.798 207,240.579 C207,241.361 207.9,242 209,242 C210.333,242 211,242.667 211,244 C211,245.619 211.667,246 214.5,246 C216.848,246 218,246.465 218,247.412 C218,248.28 219.541,249.085 222,249.5 C224.28,249.885 226,250.737 226,251.482 C226,252.418 228.277,252.892 234.042,253.153 C239.716,253.411 242.351,253.95 242.989,254.982 C243.67,256.084 246.069,256.453 252.697,256.473 L261.5,256.5 L261.768,233.25 C261.996,213.499 262.26,210 263.518,210 C264.717,210 265,208.284 265,201 C265,192.667 265.148,192 267,192 C268.948,192 269,192.667 269,217.5 C269,239.5 269.206,243 270.5,243 C271.716,243 272,244.611 272,251.5 C272,258.389 271.716,260 270.5,260 C269.463,260 269,261.042 269,263.375 C269,266.355 268.634,266.823 265.875,267.375 C258.615,268.827 244,267.481 244,265.361 C244,264.334 242.159,264 236.5,264 C230.5,264 229,263.7 229,262.5 C229,261.452 227.944,261 225.5,261 C222.667,261 222,260.619 222,259 C222,257.242 221.333,257 216.5,257 C211.667,257 211,256.758 211,255 C211,253.381 210.333,253 207.5,253 C205.18,253 204,252.532 204,251.611 C204,250.816 202.505,249.942 200.5,249.566 C198.405,249.173 197,248.325 197,247.455 C197,246.655 196.377,246 195.617,246 C194.856,246 193.998,245.1 193.71,244 C193.423,242.9 192.491,242 191.639,242 C190.661,242 189.849,240.71 189.434,238.5 C189.058,236.495 188.184,235 187.389,235 C186.247,235 186,231.179 186,213.5 C186,195.807 186.246,192 187.391,192 C188.45,192 188.952,189.382 189.5,181 C190.048,172.618 190.55,170 191.609,170 C192.708,170 193,167.807 193,159.55 C193,150.637 193.258,148.955 194.75,148.119 C196.297,147.252 196.5,145.373 196.5,131.902 C196.5,120.602 196.177,116.558 195.25,116.249 C194.563,116.021 194,114.479 194,112.823 C194,110.703 193.436,109.665 192.094,109.314 C190.88,108.997 189.956,107.579 189.549,105.408 L188.909,102 L180.571,102 C173.074,102 172.181,102.202 171.71,104 C171.31,105.532 170.346,106 167.594,106 C165.066,106 164,106.445 164,107.5 C164,108.548 162.944,109 160.5,109 C157.667,109 157,109.381 157,111 C157,112.333 156.333,113 155,113 C153.889,113 153,113.667 153,114.5 C153,115.325 152.325,116 151.5,116 C150.3,116 150,117.5 150,123.5 C150,129.258 150.325,131 151.399,131 C153.588,131 154.143,143.447 153.196,171.25 C153.047,175.607 152.637,177 151.5,177 C150.203,177 150,180.722 150,204.5 C150,228.278 150.203,232 151.5,232 C152.548,232 153,233.056 153,235.5 C153,238.722 152.762,239 150,239 Q147,239 147,240.5 C147,241.333 146.111,242 145,242 C143.889,242 143,241.333 143,240.5 C143,239.646 142.101,239 140.912,239 C138.868,239 138.831,238.666 139.162,222.962 C139.434,210.045 139.792,206.745 141,205.999 C142.289,205.204 142.5,199.929 142.5,168.468 C142.5,134.646 142.367,131.788 140.75,130.882 C139.309,130.074 139,128.476 139,121.841 C139,114.853 139.299,113.466 141.25,111.408 C142.488,110.103 144.063,109.027 144.75,109.017 C145.438,109.008 146,108.325 146,107.5 C146,106.667 146.889,106 148,106 C149.333,106 150,105.333 150,104 C150,102.394 150.667,102 153.383,102 C155.926,102 156.897,101.503 157.29,100 C157.69,98.468 158.654,98 161.406,98 C163.934,98 165,97.555 165,96.5 C165,95.31 166.444,95 172,95 C177.396,95 179,94.673 179,93.573 C179,92.789 179.787,91.925 180.75,91.654 Z M88,150.5 C88,151.575 86.903,152 84.125,152 C78.228,152 74,153.096 74,154.625 C74,155.53 72.803,156 70.5,156 C68.056,156 67,156.452 67,157.5 C67,158.325 66.325,159 65.5,159 C64.417,159 64,160.111 64,163 C64,165.889 64.417,167 65.5,167 C66.652,167 67,168.278 67,172.5 C67,176.241 67.4,177.996 68.25,177.986 C71.16,177.955 74,176.669 74,175.383 C74,174.623 74.9,174 76,174 C77.607,174 78,173.333 78,170.611 C78,167.53 78.318,167.163 81.5,166.566 C84.562,165.992 85,165.54 85,162.955 C85,160.918 85.495,160 86.594,160 C87.47,160 88.423,159.1 88.71,158 C88.998,156.9 89.856,156 90.617,156 C91.531,156 92,154.813 92,152.5 C92,149.667 91.619,149 90,149 C88.889,149 88,149.667 88,150.5 Z M49,201 C49,199.667 49.667,199 51,199 C52.333,199 53,199.667 53,201 C53,202.111 53.667,203 54.5,203 C55.325,203 56,203.675 56,204.5 C56,205.325 55.325,206 54.5,206 C53.667,206 53,206.889 53,208 C53,209.333 52.333,210 51,210 C49.381,210 49,210.667 49,213.5 C49,216.333 49.381,217 51,217 C52.1,217 53,217.623 53,218.383 C53,219.885 55.96,220.965 60.133,220.986 C61.933,220.996 62.932,220.366 63.29,219 C63.69,217.468 64.654,217 67.406,217 C69.934,217 71,216.555 71,215.5 C71,214.675 71.675,214 72.5,214 C73.333,214 74,213.111 74,212 C74,210.381 74.667,210 77.5,210 C81.901,210 82.29,212.558 78.032,213.493 C75.634,214.02 74.94,214.804 74.42,217.572 C74.055,219.522 73.178,221 72.389,221 C71.625,221 71,221.635 71,222.412 C71,223.28 69.459,224.085 67,224.5 C64.541,224.915 63,225.72 63,226.588 C63,227.67 61.362,228 56,228 C50.444,228 49,227.69 49,226.5 C49,225.675 48.283,225 47.406,225 C46.53,225 45.577,224.1 45.29,223 C45.002,221.9 44.144,221 43.383,221 C42.329,221 42,219.219 42,213.5 C42,207.5 42.3,206 43.5,206 C44.325,206 45,205.325 45,204.5 C45,203.667 45.889,203 47,203 C48.333,203 49,202.333 49,201 Z"/>
</svg>

