<svg xmlns="http://www.w3.org/2000/svg" width="300" height="300" viewBox="0 0 300 300" version="1.1">
  <defs/>
  <path d="M118,29.5 C118,28.675 118.675,28 119.5,28 C120.325,28 121,28.675 121,29.5 C121,30.333 121.889,31 123,31 C124.333,31 125,31.667 125,33 C125,34.111 125.667,35 126.5,35 C127.548,35 128,36.056 128,38.5 C128,40.944 127.548,42 126.5,42 C125.452,42 125,43.056 125,45.5 C125,47.813 124.531,49 123.617,49 C121.6,49 121.029,52.244 121.014,63.781 C121.003,72.007 121.3,74.178 122.5,74.638 C123.325,74.955 124,75.841 124,76.607 C124,77.566 125.248,78 128,78 C130.727,78 132,77.563 132,76.625 C132,74.546 136.687,73.999 154.375,74.014 C168.744,74.026 173.104,73.994 174.426,75.982 C175.024,76.883 175,78.197 175,80.117 L175,85 L169.5,85 C165.278,85 164,84.652 164,83.5 C164,82.278 162.333,82 155,82 C147.667,82 146,82.278 146,83.5 C146,84.738 144.167,85 135.5,85 C125.667,85 125,85.127 125,87 C125,88.1 124.377,89 123.617,89 C121.5,89 121.028,92.304 121.014,107.25 C121.002,118.799 120.76,121 119.5,121 C118.452,121 118,122.056 118,124.5 L118,128 L134,128 C149.333,128 150,128.083 150,130 C150,131.619 150.667,132 153.5,132 L157,132 L157,137 C157,140.778 156.633,142 155.5,142 C154.417,142 154,143.111 154,146 C154,149.333 153.667,150 152,150 C150.381,150 150,150.667 150,153.5 C150,155.944 149.548,157 148.5,157 C147.667,157 147,157.889 147,159 C147,160.333 146.333,161 145,161 C143.667,161 143,161.667 143,163 C143,164.111 142.333,165 141.5,165 C140.675,165 139.994,165.338 139.986,165.75 C139.979,166.162 139.701,167.512 139.37,168.75 C138.777,170.963 138.917,171 147.883,171 L157,171 L157,175 C157,177.889 156.583,179 155.5,179 C154.675,179 154,179.675 154,180.5 C154,181.605 152.847,182 149.625,182 C143.259,182 139,183.052 139,184.625 C139,185.381 138.377,186 137.617,186 C136.856,186 135.998,186.9 135.71,188 C135.423,189.1 134.47,190 133.594,190 C132.348,190 132,191.092 132,195 C132,198.544 131.605,200 130.643,200 C129.639,200 129.112,202.536 128.616,209.75 C127.873,220.564 128.545,226 130.625,226 C131.53,226 132,227.197 132,229.5 C132,232.333 132.381,233 134,233 C135.1,233 136,233.623 136,234.383 C136,235.144 136.9,236.002 138,236.29 C139.1,236.577 140,237.53 140,238.406 C140,239.652 141.092,240 145,240 C148.576,240 150,240.392 150,241.375 C150,242.746 154.12,244 158.625,244 C160.069,244 161,244.588 161,245.5 C161,246.769 163.737,247.034 178.75,247.221 C195.822,247.434 217.196,247.053 217.781,246.525 C217.936,246.385 218.336,243.96 218.67,241.136 C219.069,237.769 219.747,236 220.639,236 C221.686,236 222,233.924 222,227 C222,220.03 222.31,218 223.375,218 C224.746,218 226,213.88 226,209.375 C226,207.931 226.588,207 227.5,207 C228.641,207 229.004,205.743 229.015,201.75 C229.034,195.508 230.447,192.499 232.068,195.25 C232.635,196.213 233.752,197 234.55,197 C235.347,197 236,197.675 236,198.5 C236,199.325 235.325,200 234.5,200 C233.258,200 233,201.889 233,211 C233,219.667 232.708,222 231.625,222 C229.754,222 229,226.489 229,237.625 C229,245.292 228.727,247 227.5,247 C226.445,247 226,248.066 226,250.594 C226,253.346 225.532,254.31 224,254.71 C222.9,254.998 222,255.856 222,256.617 C222,257.752 218.139,258 200.5,258 C182.056,258 179,257.787 179,256.5 C179,255.378 177.803,254.998 174.25,254.994 C163.191,254.98 153,253.713 153,252.352 C153,251.345 151.214,251 146,251 C139.667,251 139,250.81 139,249 C139,247.381 138.333,247 135.5,247 C133.187,247 132,246.531 132,245.617 C132,244.856 131.1,243.998 130,243.71 C128.9,243.423 128,242.47 128,241.594 C128,240.717 127.325,240 126.5,240 C125.675,240 125,239.377 125,238.617 C125,237.856 124.1,236.998 123,236.71 C121.468,236.31 121,235.346 121,232.594 C121,230.066 120.555,229 119.5,229 C118.452,229 118,227.944 118,225.5 C118,223.056 118.452,222 119.5,222 C120.652,222 121,220.722 121,216.5 C121,212.278 120.652,211 119.5,211 C118.675,211 118,210.325 118,209.5 C118,208.667 117.111,208 116,208 C114.667,208 114,208.667 114,210 C114,211.1 113.361,212 112.579,212 C111.798,212 110.862,213.35 110.5,215 C110.138,216.65 109.202,218 108.421,218 C107.639,218 107,218.9 107,220 C107,221.333 106.333,222 105,222 C103.381,222 103,222.667 103,225.5 C103,228.333 102.619,229 101,229 C99.667,229 99,229.667 99,231 C99,232.111 98.333,233 97.5,233 C96.667,233 96,233.889 96,235 C96,236.1 95.345,237 94.545,237 C93.675,237 92.827,238.405 92.434,240.5 C92.058,242.505 91.184,244 90.389,244 C89.625,244 89,244.575 89,245.278 C89,245.981 88.1,247.326 87,248.268 C85.9,249.21 85,250.885 85,251.99 C85,253.096 84.375,254 83.611,254 C82.816,254 81.942,255.495 81.566,257.5 C81.173,259.595 80.325,261 79.455,261 C78.655,261 78,261.848 78,262.883 C78,263.926 77.107,265 76,265.29 C74.9,265.577 74,266.53 74,267.406 C74,268.561 73.036,269 70.5,269 C67.161,269 67,268.838 67,265.469 C67,263.319 67.563,261.721 68.439,261.385 C69.23,261.081 70.166,259.521 70.518,257.916 C70.871,256.312 71.798,255 72.579,255 C73.361,255 74,254.1 74,253 C74,251.667 74.667,251 76,251 C77.606,251 78,250.333 78,247.617 C78,245.074 78.497,244.103 80,243.71 C81.1,243.423 82,242.47 82,241.594 C82,240.717 82.675,240 83.5,240 C84.548,240 85,238.944 85,236.5 C85,233.667 85.381,233 87,233 C88.333,233 89,232.333 89,231 C89,229.9 89.625,229 90.389,229 C91.184,229 92.058,227.505 92.434,225.5 C92.827,223.405 93.675,222 94.545,222 C95.345,222 96,221.1 96,220 C96,218.889 96.667,218 97.5,218 C98.325,218 99,217.325 99,216.5 C99,215.667 99.889,215 101,215 C102.619,215 103,214.333 103,211.5 C103,208.667 103.381,208 105,208 C106.333,208 107,207.333 107,206 C107,204.889 107.667,204 108.5,204 C109.333,204 110,203.111 110,202 C110,200.667 110.667,200 112,200 C113.333,200 114,199.333 114,198 C114,196.889 114.667,196 115.5,196 C116.325,196 117.006,195.662 117.014,195.25 C117.021,194.838 117.299,193.488 117.63,192.25 C118.184,190.183 117.898,190 114.117,190 C111.124,190 110,190.41 110,191.5 C110,192.466 109.022,193.005 107.25,193.014 C102.968,193.035 100,194.101 100,195.617 C100,196.564 98.739,197 96,197 C93.111,197 92,197.417 92,198.5 C92,199.575 90.903,200 88.125,200 C82.228,200 78,201.096 78,202.625 C78,203.53 76.803,204 74.5,204 L71,204 L71,193 L74.5,193 C76.82,193 78,192.532 78,191.611 C78,190.816 79.495,189.942 81.5,189.566 C83.595,189.173 85,188.325 85,187.455 C85,186.459 86.104,186 88.5,186 C91.833,186 92,185.833 92,182.5 C92,180.056 91.548,179 90.5,179 C89.348,179 89,177.722 89,173.5 C89,168.667 88.758,168 87,168 C85.242,168 85,167.333 85,162.5 C85,158.278 84.652,157 83.5,157 C82.588,157 82,156.069 82,154.625 C82,150.12 80.746,146 79.375,146 C78.297,146 78,143.76 78,135.617 C78,126.074 78.162,125.191 80,124.71 C81.1,124.423 82,123.47 82,122.594 C82,120.295 84.149,120.664 86.75,123.408 C88.617,125.378 89,126.907 89,132.391 L89,139 L92.5,139 C94.944,139 96,138.548 96,137.5 C96,136.534 96.978,135.995 98.75,135.986 C103.032,135.965 106,134.899 106,133.383 C106,132.623 106.9,132 108,132 C109.695,132 110,131.333 110,127.625 C110,121.259 111.052,117 112.625,117 C113.734,117 114,113.938 114,101.194 L114,85.388 L107,85.444 C101.022,85.492 100.001,85.755 100,87.25 C100,88.572 99.172,89 96.617,89 C94.074,89 93.103,89.497 92.71,91 C91.821,94.401 89.002,93.455 88.986,89.75 C88.979,87.963 88.694,85.461 88.354,84.191 C87.873,82.392 88.207,81.759 89.868,81.324 C91.041,81.018 92,80.144 92,79.383 C92,78.289 94.301,78 103,78 L114,78 L114,54.5 C114,31.667 114.057,31 116,31 C117.111,31 118,30.333 118,29.5 Z M128,140.383 C128,142.103 124.923,142.969 118.75,142.986 C115.201,142.997 114,143.379 114,144.5 C114,145.692 112.545,146 106.906,146 C100.654,146 99.751,146.237 99.29,148 C99.002,149.1 98.144,150 97.383,150 C96.289,150 96,152.301 96,161 C96,169.959 96.27,172 97.455,172 C98.334,172 99.177,173.428 99.586,175.608 L100.263,179.216 L106.818,178.799 C110.552,178.561 113.539,177.883 113.759,177.222 C113.972,176.585 115.688,175.774 117.573,175.42 C119.522,175.055 121,174.178 121,173.389 C121,172.625 121.9,172 123,172 C124.333,172 125,171.333 125,170 C125,168.667 125.667,168 127,168 C128.111,168 129,167.333 129,166.5 C129,165.675 129.675,165 130.5,165 C131.325,165 132,164.15 132,163.111 C132,161.745 132.967,161.041 135.5,160.566 C138.562,159.992 139,159.54 139,156.955 C139,154.667 139.451,154 141,154 C142.619,154 143,153.333 143,150.5 C143,148.056 143.452,147 144.5,147 C145.583,147 146,145.889 146,143 L146,139 L137,139 C130.004,139 128,139.308 128,140.383 Z"/>
</svg>

